<?xml version="1.0" encoding="UTF-8"?>
<svg version="1.1" xmlns="http://www.w3.org/2000/svg" xmlns:xlink="http://www.w3.org/1999/xlink" width="100%" height="100%" viewBox="29657 0 22400 12966">
 <defs>
  <style type="text/css">
   <![CDATA[
	.outline{fill:none;stroke:#0A1923;stroke-width:400;stroke-miterlimit:1} 
	.loop{fill:#FFF}
	.Collar.fill{fill:#FFF}
	.Insert.fill{fill:#FFF}
   ]]>
  </style>
  <linearGradient id="NeckFade" gradientUnits="objectBoundingBox" x1="0%" y1="0%" x2="0%" y2="100%"><stop offset="0" stop-color="#CCC"/><stop offset="1" stop-color="#333"/></linearGradient>   
 </defs>
 <path fill="none" d="m29857 2200c3300 1500 18700 1500 22000 0v500a11000 10000 1 0 1-22000 0v-500z"/>
 <path class="loop outline" d="m29857 2200c3300 1500 18700 1500 22000 0v750c-3300 1500-18700 1500-22000 0z"/>
 <path class="Insert fill outline" d="m29857 2700h1100a9900 9000 1 0 0 19800 0h1100a11000 10000 1 0 1-22000 0v-500z"/>
 <g class="Collar fill outline">
  <path class="Collar fill outline" d="m29857 2200c3300 1500 18700 1500 22000 0c-990-600-2090-1900-2420-1600c-3300 1000-13860 1000-17160 0c-330-300-1430 1000-2420 1600zz"/>
  <path class="Collar fill outline" d="m29857 2200c990-600 2090-1900 2420-1600c0 9000 3630 7000 4730 11467.5a11000 10000 1 0 1-7150-8867.5v-500zm22000 0c-990-600-2090-1900-2420-1600c0 9000-3630 7000-4730 11467.5a11000 10000 1 0 0 7150-8867.5v-500z"/>
 </g>
</svg>
