<?xml version="1.0" encoding="utf-8"?>
<!-- Generator: Adobe Illustrator 19.1.0, SVG Export Plug-In . SVG Version: 6.00 Build 0)  -->
<svg version="1.1" id="Layer_1" xmlns="http://www.w3.org/2000/svg" xmlns:xlink="http://www.w3.org/1999/xlink" x="0px" y="0px"
	 viewBox="0 0 335.2 641.14" style="enable-background:new 0 0 335.2 641.14;" xml:space="preserve">
<style type="text/css">
	<![CDATA[
	@font-face{font-family:'codaheavy';src:url('/fonts/coda-heavy-webfont.woff') format('woff')}
	text{font-family:Impact,codaheavy,sans-serif}
	.Colour1.fill{fill:#CCCBCB;}
	.Colour2.fill{fill:#212021;}
	.NeckAndArmTrim.fill{fill:#3A3A3A;stroke:#000000;stroke-miterlimit:10;}
	.SidePanels.fill{fill:#3A3A3A;stroke:#000000;stroke-miterlimit:10;}
	.st0{fill:none;stroke:#000000;stroke-miterlimit:10;}
	.st1{fill:#FFFFFF;stroke:#000000;}
	.st2{fill:none;stroke:#000000;stroke-linecap:round;stroke-linejoin:round;}
	]]>
</style>
<path class="Colour1 fill" d="M291.34,206.32c4.48-15.84,9.37-28.64,12.98-37.35c-1.09,0.18-2.97,0.39-5.19,0
	c-11.75-2.05-17.97-18.02-20.77-25.19c-12.49-32.06-9.72-126.75-9.52-132.91c-13.84-3.76-27.69-7.53-41.53-11.29
	c-2.39,18.33-9.83,53.47-37.21,84.26c-8.08,9.09-16.47,16.19-24.23,21.72c-7.75-5.49-16.15-12.58-24.23-21.72
	c-27.32-30.9-34.24-66.28-36.34-84.26C92.03,3.33,78.76,7.1,65.5,10.86c0,4,0.01,10.04,0,17.37c-0.04,43.07-0.08,64.76-0.87,72.1
	c-1.81,16.96-6.52,61-28.55,67.76c-2.8,0.86-5.28,0.93-6.92,0.87c3.11,7.92,7.32,19.54,11.25,33.88
	c10.91,39.79,13.75,78.93,10.38,128.57C43.02,446.06,2.42,613.27,0.6,620.69c43.67,11.08,102.8,21.48,173.06,20.85
	c64.65-0.58,119.45-10.32,160.94-20.85c-16.41-70.98-29.76-138.88-40.67-203.28C278.6,326.86,272.89,271.5,291.34,206.32z"/>
<rect x="264.53" y="239.4" transform="matrix(0.9856 0.1692 -0.1692 0.9856 44.5153 -41.4698)" class="Colour2 fill" width="2.21" height="2.22"/>
<polygon class="Colour2 fill" points="242.15,227.14 253.6,228.13 248.82,218.55 "/>
<polygon class="Colour2 fill" points="261.89,247.61 261.29,253 265,248.19 "/>
<polygon class="Colour2 fill" points="261.38,235.75 249.47,234.11 250.16,244.7 "/>
<polygon class="Colour2 fill" points="187.34,178.17 187.19,172.76 172.43,187.72 187.86,197.87 187.46,182.68 187.97,177.92 "/>
<polygon class="Colour2 fill" points="211.26,192.39 214.07,198.93 224.8,193.31 "/>
<polygon class="Colour2 fill" points="221.45,217.44 223.69,239.65 231.05,229.4 "/>
<polygon class="Colour2 fill" points="230.28,302.4 225.43,299.93 221.84,308.51 "/>
<ellipse transform="matrix(0.1579 0.9875 -0.9875 0.1579 391.0346 -42.5301)" class="Colour2 fill" cx="220.45" cy="207.99" rx="2.38" ry="2.37"/>
<polygon class="Colour2 fill" points="272.8,245.83 275.79,249.25 277.12,243.91 276.76,243.56 "/>
<polygon class="Colour2 fill" points="219.24,156.57 222.58,156.8 220.37,154.26 "/>
<path class="Colour2 fill" d="M65.5,30.49l17.09,7.71l-7.38,3L93.9,59.97l2.74-5.71l16.7,9.63L103.9,70l10.32,10.37l1.84-15.16
	l4.12,17.32l8.79-0.19l1.68-7.31l5.02,1.56c-2.54-3.29-4.87-6.61-7.01-9.94l-2.67,5.81l0.7-8.98
	c-14.73-24.34-19.49-48.54-21.25-62.81h-3.98c-11.99,3.4-23.97,6.8-35.96,10.2c0,4,0.01,10.04,0,17.37
	C65.5,29,65.5,29.74,65.5,30.49z"/>
<path class="Colour2 fill" d="M65.48,45.16l9.73-3.96l-9.71-9.75C65.49,36.3,65.48,40.87,65.48,45.16z"/>
<path class="Colour2 fill" d="M192.3,84.6l-1.44-1.65c-0.26,0.29-0.5,0.59-0.76,0.88c-4.25,4.78-8.58,8.99-12.86,12.73l7.69,3.18
	L174.66,111l2.25-14.15c-2.95,2.56-5.88,4.9-8.73,7.02l-1.14,3.55l-0.62-2.27c-0.18,0.13-0.37,0.27-0.55,0.4
	c-6.95-4.92-14.43-11.15-21.72-18.98l-4.85,3.37l1.86,5.16l0.61-0.42l-0.3,1.26l2.26,6.25l-4.02,1.14l-0.51,2.11l2.01,2.02
	l5.07-2.47l0.35-4.23l4.99,1.63l0.71-0.35l-0.07-0.49l0.23,0.42l4.51-2.2l-2.19,3.66l3.03,0.99l-2.38,3.04l7.52,13.88l6.64-5.51
	l8.43,12.79l-15.09,0.66l5.65,5.68l3.93-4.78l-1.09,7.64l9.92,9.96l2.92-18.39l11.77,4.86l2.5-11.14l5.04,2.27l5.62-7.47l-4.09-1.9
	l12.13-1.4l1.34,7.67l-6.91-3.21l3.05,9.32l-3.55,0.42l6.19,2.79l-22.43,9.13l8.88,7.73l6.07-1.44l-5.35,9.15l-0.49-1.06l-6.67,8.76
	l0.24,0.24l15.59-7.65l-8.69,14.58l0.84,0.84l2.97-7.09l4.85,2.48l-7.22,5.22l10.64,10.68c0.1-0.11,0.21-0.22,0.33-0.31
	c1.15-0.89,2.81-0.67,3.69,0.49c0.83,1.09,0.67,2.63-0.32,3.54l14.82,14.87l6.26-6l-0.01,12.28l7.6,7.63l6.85-19.37l0.36,25.86
	l-0.61,0.15l21.17,21.26l0.39,0.39l-0.03-0.03l5.29,5.31c1.87-14.15,4.78-28.28,8.92-42.91c4.48-15.84,9.37-28.64,12.98-37.35
	c-1.09,0.18-2.97,0.39-5.19,0c-11.75-2.05-17.97-18.02-20.77-25.19c-12.49-32.06-9.72-126.75-9.52-132.91
	c-12.51-3.4-25.01-6.8-37.52-10.2h-4.16c-2.43,17.8-9.57,50.02-33.69,79.22L192.3,84.6z M275.94,220.65l5.27,13.6l-8.15,2.52
	L275.94,220.65z M180.24,116.04l5.46-3.87l2.29,4.12L180.24,116.04z M188.81,120.97l15.22-20.87l9.8,4.28L188.81,120.97z
	 M211.16,176.32l5.88-19.71l-1.65-0.81l1.67-3.42l2.91,1.43l-14.01-16.1l9.04,4.93l8.74,1.46l-0.71,2.92l3.12,1.7l-2.3,8.17
	l1.81,0.13L211.16,176.32z M221.99,131.89c0.61-1.16,2.05-1.61,3.21-0.99c1.16,0.62,1.6,2.06,0.99,3.22
	c-0.61,1.16-2.05,1.61-3.21,0.99C221.82,134.5,221.38,133.06,221.99,131.89z M222.1,180.22l4.27-13.58l6.4,8.3L222.1,180.22z
	 M234.22,186.11l9.57-1.7l0.59,5.69L234.22,186.11z M239.19,175.64c0.15-1.04,1.12-1.77,2.16-1.61c1.04,0.15,1.76,1.13,1.61,2.17
	c-0.15,1.05-1.12,1.77-2.16,1.61C239.76,177.66,239.04,176.69,239.19,175.64z M227.5,165.09l17.73-26.85l0.45,25.4L227.5,165.09z
	 M240.09,134.9l-6.37-8.02l-5.61,3.78l-4.69-6.2l8.11-0.34l-4.3-5.41l24.5,2.22L240.09,134.9z M251.79,180.48l3.23-26.66l5.33,22.44
	L251.79,180.48z M257.49,87.37l-7.11,5.98l-3.18-4.43L257.49,87.37z M249.83,102.76l-0.33,7.82l-8.6-2.14L249.83,102.76z
	 M237.74,95.05l2.26,3.06l-3.04,2.27l-2.27-3.06L237.74,95.05z M205.47,100.01l11.18-22.79l16.83,7.06L205.47,100.01z M205.67,74.36
	l3.7-15.1l9.53,0.18l-11.79,17.44l2.22,3.89l-4.09,3.77l-0.65-3.93l-0.71,1.04l0.52-2.14l-1.73-10.4L205.67,74.36z M204.06,93.31
	l-5.57,2.56l2.07-11.59L204.06,93.31z"/>
<polygon class="Colour2 fill" points="119.3,88.68 123.95,100.61 130.11,96.33 114.22,80.37 112.83,91.87 "/>
<polygon class="Colour2 fill" points="188.95,155.39 183.96,158.92 192.75,159.21 "/>
<polygon class="Colour2 fill" points="183.05,163.65 179.53,165.08 180.94,168.61 184.46,167.19 "/>
<polygon class="Colour2 fill" points="178.92,224.5 186.66,211.65 170.55,218.11 "/>
<polygon class="Colour2 fill" points="170.77,166.86 166.52,174.66 173.97,176.97 "/>
<polygon class="Colour2 fill" points="190.65,145.31 185.04,151.46 188.95,155.39 192.58,152.81 "/>
<polygon class="Colour2 fill" points="122.35,291.7 122.18,282.03 115.43,292.25 "/>
<polygon class="Colour2 fill" points="202.61,216.96 191.61,249.29 210.86,248.87 "/>
<polygon class="Colour2 fill" points="169.63,265.27 166.22,263.59 164.55,267.01 167.96,268.69 "/>
<polygon class="Colour2 fill" points="114.51,113.83 118.24,114.56 118.96,110.82 115.24,110.09 "/>
<path class="Colour2 fill" d="M70.93,58.41l-5.49,1.3c-0.01,2.63-0.02,5.12-0.03,7.49l0.16,0.36L70.93,58.41z"/>
<path class="Colour2 fill" d="M195.85,214.07c0.83-0.64,0.99-1.83,0.35-2.66c-0.63-0.83-1.82-0.99-2.65-0.35
	c-0.83,0.64-0.98,1.83-0.35,2.66C193.84,214.54,195.02,214.7,195.85,214.07z"/>
<path class="Colour2 fill" d="M75,94.62l-10.92,10.73c-0.09,0.76-0.18,1.54-0.28,2.35l22.39,4.32L75,94.62z"/>
<polygon class="Colour2 fill" points="69.38,76.17 65.79,84.76 74.23,78.65 "/>
<polygon class="Colour2 fill" points="117.8,186.76 121.23,199.38 127.02,181.29 "/>
<polygon class="Colour2 fill" points="63.71,131.2 74.11,130.68 71.38,125.95 "/>
<polygon class="Colour2 fill" points="202.13,183.27 199.8,198.85 207.57,196.21 "/>
<polygon class="Colour2 fill" points="84.79,145.98 94.23,141.23 85.89,138.24 "/>
<polygon class="Colour2 fill" points="147.76,146.68 156.42,162.69 164.51,146.57 168.38,154.69 177.37,151.63 164.87,145.85 
	167.49,140.63 "/>
<path class="Colour2 fill" d="M140.14,82.09c-0.79-0.93-1.57-1.86-2.32-2.79l-1.73,1.77l0.4,1.11L140.14,82.09z"/>
<polygon class="Colour2 fill" points="96.67,168.13 111.27,162.19 99.22,156.75 "/>
<polygon class="Colour2 fill" points="82.17,122.26 84.12,125.53 87.37,123.57 85.42,120.3 "/>
<polygon class="Colour2 fill" points="99.03,75.24 90.7,63.76 75.63,85.66 "/>
<polygon class="Colour2 fill" points="78.1,63.76 76.43,67.18 79.84,68.86 81.51,65.44 "/>
<polygon class="Colour2 fill" points="101.64,117.72 111.1,99.94 91.68,111.41 "/>
<polygon class="Colour2 fill" points="154.74,195.26 151.8,213.83 164.91,199.45 "/>
<polygon class="Colour2 fill" points="145.57,126.8 149.84,111.17 137.93,117.64 "/>
<polygon class="Colour2 fill" points="122.45,155.6 144.01,140.63 116.85,141.23 "/>
<polygon class="Colour2 fill" points="165.9,215.32 158.92,220.27 168.82,220.59 "/>
<polygon class="Colour2 fill" points="133.68,238.75 129.79,222.38 127.44,241.82 "/>
<polygon class="Colour2 fill" points="150.43,252.13 141.81,254.18 145.08,261.28 "/>
<polygon class="Colour2 fill" points="139.76,200.8 142.06,209.26 145.94,197.13 "/>
<polygon class="Colour2 fill" points="134.6,184.37 146.72,187.79 154.6,174.62 "/>
<path class="Colour2 fill" d="M173.66,641.54c33.95-0.3,65.15-3.15,93.16-7.29l-2.13-2.14l0,0l-18.82-8.49l7.38-3l-18.69-18.76
	l-2.74,5.71l-16.7-9.63l9.44-6.12l-10.32-10.37l-1.84,15.16l-4.12-17.32l-8.79,0.19l-1.68,7.31l-8.7-2.7l3.26-3.34l-0.4-1.1
	l-14.47,0.32l11.66-8.1l-1.86-5.16l-0.61,0.42l0.3-1.26l-2.26-6.25l4.02-1.14l0.51-2.11l-2.01-2.02l-5.07,2.47l-0.35,4.23
	l-4.99-1.63l-0.71,0.35l0.07,0.49l-0.23-0.42l-4.51,2.2l2.19-3.66l-3.03-0.99l2.38-3.04l-7.52-13.88l-6.64,5.51l-8.43-12.79
	l15.09-0.66l-5.65-5.67l-3.93,4.78L157,524l-9.92-9.96l-2.92,18.39l-11.77-4.86l-2.5,11.14l-5.04-2.27l-5.62,7.47l4.09,1.9
	l-12.13,1.4l-1.34-7.67l6.91,3.21l-3.05-9.32l3.55-0.42l-6.19-2.79l22.43-9.13l-8.88-7.73l-6.07,1.44l5.35-9.15l0.49,1.06l6.67-8.76
	l-0.24-0.24l-15.59,7.65l8.69-14.58l-0.84-0.84l-2.97,7.09l-4.85-2.47l7.22-5.22l-10.64-10.68c-0.1,0.11-0.21,0.22-0.33,0.31
	c-1.15,0.89-2.81,0.67-3.69-0.49c-0.83-1.1-0.67-2.63,0.32-3.54l-14.82-14.87l-6.26,6l0.01-12.28l-7.6-7.63l-6.85,19.37l-0.36-25.86
	l0.61-0.15l-21.17-21.26l-0.39-0.39l0.03,0.03l-6.65-6.67l-1.49-1.5l-0.03-0.03l-0.96-0.97c-0.48,3.31-0.97,6.63-1.47,9.95
	l1.56,9.37l-2.36-4.13c-7.37,47.72-16.82,95.37-24.62,131.85v68.46C57.19,633.89,111,642.1,173.66,641.54z M202.46,589.37
	l-1.11,14.31l-5.87,0.86L202.46,589.37z M188.93,592.39l-4.91,4.39l-0.59-4.83L188.93,592.39z M180.27,581.25l1.7,1.65l-1.64,1.71
	l-1.7-1.65L180.27,581.25z M192.7,599.72l-3.09,10.08l-0.41,1.78l-6.45-1.1l3.9-3.99l-8.63-9.65L192.7,599.72z M168.98,591.32
	l3.76-4.4l2.4,2.39L168.98,591.32z M117.29,485.51l-5.88,19.71l1.65,0.81l-1.67,3.42l-2.91-1.43l14.01,16.1l-9.04-4.93l-8.74-1.46
	l0.71-2.92l-3.12-1.7l2.3-8.17l-1.81-0.13L117.29,485.51z M106.46,529.94c-0.61,1.16-2.05,1.61-3.21,0.99
	c-1.16-0.62-1.6-2.06-0.99-3.22c0.61-1.16,2.05-1.61,3.21-0.99C106.63,527.33,107.07,528.77,106.46,529.94z M106.35,481.61
	l-4.27,13.58l-6.4-8.3L106.35,481.61z M94.23,475.72l-9.57,1.71l-0.58-5.69L94.23,475.72z M89.26,486.19
	c-0.15,1.04-1.12,1.77-2.16,1.61c-1.04-0.15-1.76-1.13-1.61-2.17c0.15-1.05,1.12-1.77,2.16-1.61
	C88.69,484.17,89.41,485.14,89.26,486.19z M100.95,496.74L83.21,523.6l-0.45-25.4L100.95,496.74z M88.36,526.93l6.37,8.02l5.61-3.78
	l4.69,6.2l-8.11,0.34l4.3,5.41l-24.5-2.22L88.36,526.93z M52.51,441.18l-5.27-13.6l8.15-2.52L52.51,441.18z M76.66,481.35
	l-3.23,26.66l-5.33-22.44L76.66,481.35z M70.96,574.46l7.11-5.98l3.18,4.43L70.96,574.46z M78.62,559.07l0.33-7.82l8.6,2.14
	L78.62,559.07z M90.71,566.78l-2.26-3.06l3.04-2.27l2.27,3.06L90.71,566.78z M122.98,561.82l-11.18,22.79l-16.83-7.06L122.98,561.82
	z M122.78,587.47l-3.7,15.1l-9.53-0.18l11.79-17.44l-2.22-3.89l4.09-3.77l0.65,3.93l0.71-1.04l-0.52,2.14l1.73,10.4L122.78,587.47z
	 M127.88,577.54l-3.5-9.03l5.57-2.56L127.88,577.54z M136,605.84l-5.27-13.6l8.15-2.52L136,605.84z M134.66,583.23l1.49-5.99
	l2.99,3.43L134.66,583.23z M124.42,561.73l-9.8-4.28l25.02-16.59L124.42,561.73z M140.46,545.54l7.75,0.25l-5.46,3.87L140.46,545.54
	z M153.79,550.83l-2.31,14.54l-7.96-3.29L153.79,550.83z M147.22,587.25l-2.18-0.37l0.37-2.19l2.18,0.37L147.22,587.25z
	 M146.94,578.3l3.71-4.81l-0.6,5.39L146.94,578.3z M150.57,590.74l11.21-8.95l0.69,10.59L150.57,590.74z M158.37,563.9l3.04-9.49
	l1.8,6.62L158.37,563.9z M169.87,567.52l9.53,8.63l-15.26,1.13L169.87,567.52z"/>
<path class="Colour2 fill" d="M46.46,401.3l-3.43,1.58c-0.22,1.59-0.45,3.17-0.68,4.76l0.8,2.07l1.53,1.53L46.46,401.3z"/>
<polygon class="Colour2 fill" points="55.65,416 52.66,412.58 51.33,417.92 51.69,418.27 "/>
<polygon class="Colour2 fill" points="254.22,583.18 259.07,585.66 262.66,577.07 "/>
<polygon class="Colour2 fill" points="209.15,573.15 204.5,561.22 198.34,565.5 214.23,581.46 215.62,569.96 "/>
<polygon class="Colour2 fill" points="268.67,614.35 253.24,620.63 264.68,632.11 "/>
<polygon class="Colour2 fill" points="109.21,505.26 105.87,505.03 108.08,507.57 "/>
<polygon class="Colour2 fill" points="262.87,594.28 257.52,603.42 266.14,601.38 "/>
<polygon class="Colour2 fill" points="210.65,475.07 207.22,462.45 201.43,480.54 "/>
<polygon class="Colour2 fill" points="206,506.23 184.44,521.2 211.6,520.6 "/>
<polygon class="Colour2 fill" points="194.77,423.08 198.66,439.45 201.01,420 "/>
<polygon class="Colour2 fill" points="206.1,370.13 206.27,379.8 213.02,369.58 "/>
<polygon class="Colour2 fill" points="213.94,548 210.21,547.27 209.49,551.01 213.21,551.74 "/>
<polygon class="Colour2 fill" points="158.82,396.56 162.22,398.23 163.9,394.81 160.49,393.14 "/>
<polygon class="Colour2 fill" points="162.55,446.5 169.53,441.56 159.63,441.24 "/>
<polygon class="Colour2 fill" points="157.68,494.97 161.93,487.17 154.48,484.86 "/>
<polygon class="Colour2 fill" points="67.16,408.83 63.45,413.64 66.56,414.22 "/>
<polygon class="Colour2 fill" points="149.53,437.33 141.79,450.18 157.9,443.71 "/>
<polygon class="Colour2 fill" points="182.88,535.03 178.61,550.66 190.52,544.19 "/>
<polygon class="Colour2 fill" points="114.38,462.9 103.64,468.52 117.19,469.44 "/>
<path class="Colour2 fill" d="M105.66,454.21c0.21,1.3,1.42,2.18,2.72,1.97c1.29-0.21,2.17-1.43,1.97-2.73c-0.21-1.3-1.42-2.18-2.72-1.97
	C106.33,451.69,105.45,452.91,105.66,454.21z"/>
<polygon class="Colour2 fill" points="98.17,359.43 103.02,361.9 106.61,353.32 "/>
<polygon class="Colour2 fill" points="86.3,434.69 74.85,433.7 79.62,443.28 "/>
<polygon class="Colour2 fill" points="78.29,417.13 67.07,426.08 78.98,427.71 "/>
<rect x="61.71" y="420.21" transform="matrix(-0.9856 -0.1692 0.1692 -0.9856 53.4584 847.1908)" class="Colour2 fill" width="2.21" height="2.22"/>
<polygon class="Colour2 fill" points="104.76,422.18 97.4,432.42 107,444.39 "/>
<polygon class="Colour2 fill" points="242.25,549.81 253.45,567.21 266.42,554.47 "/>
<polygon class="Colour2 fill" points="243.03,541.53 246.28,539.57 244.33,536.3 241.08,538.26 "/>
<polygon class="Colour2 fill" points="254.34,531.15 257.07,535.88 264.74,530.63 "/>
<polygon class="Colour2 fill" points="242.56,523.59 243.66,515.84 234.22,520.6 "/>
<polygon class="Colour2 fill" points="180.69,515.15 172.03,499.14 163.94,515.26 160.07,507.13 151.08,510.2 163.58,515.98 
	160.96,521.2 "/>
<polygon class="Colour2 fill" points="229.42,586.59 237.75,598.07 252.82,576.17 "/>
<polygon class="Colour2 fill" points="137.8,516.52 143.41,510.36 139.5,506.44 135.87,509.01 "/>
<polygon class="Colour2 fill" points="250.34,598.07 252.02,594.65 248.61,592.97 246.94,596.39 "/>
<polygon class="Colour2 fill" points="231.78,493.7 217.18,499.64 229.23,505.08 "/>
<polygon class="Colour2 fill" points="226.81,544.11 217.35,561.89 236.77,550.42 "/>
<polygon class="Colour2 fill" points="178.02,409.69 186.64,407.65 183.37,400.55 "/>
<polygon class="Colour2 fill" points="140.59,463.96 140.99,479.15 140.48,483.91 141.11,483.66 141.26,489.07 156.02,474.1 "/>
<polygon class="Colour2 fill" points="182.51,464.7 188.69,461.03 186.39,452.57 "/>
<polygon class="Colour2 fill" points="173.7,466.57 176.65,448 163.54,462.38 "/>
<polygon class="Colour2 fill" points="193.85,477.46 181.73,474.04 173.85,487.21 "/>
<polygon class="Colour2 fill" points="126.32,478.56 128.65,462.98 120.88,465.62 "/>
<polygon class="Colour2 fill" points="148.92,496.75 147.51,493.22 143.98,494.64 145.4,498.18 "/>
<polygon class="Colour2 fill" points="117.58,412.96 125.84,444.87 136.84,412.54 "/>
<path class="Colour2 fill" d="M132.6,447.76c-0.83,0.64-0.98,1.83-0.35,2.66c0.63,0.83,1.82,0.99,2.65,0.35
	c0.83-0.64,0.98-1.83,0.35-2.66C134.61,447.29,133.43,447.13,132.6,447.76z"/>
<polygon class="Colour2 fill" points="135.7,502.62 139.5,506.44 144.49,502.91 "/>
<path class="st0" d="M98.67,1.45c1.6,14.45,6.57,41.47,24.8,69.35c14.38,22.01,31.28,35.76,42.4,43.44
	c11.12-7.34,27.93-20.47,42.4-41.7C227.72,44,232.69,15.88,234.22,1.45"/>
<path class="st0" d="M72.2,8.96c-0.17,8.95-0.45,25.06-0.65,45.34c-0.34,36.5-0.09,54.28-6.06,78.18
	c-5.05,20.23-11.57,32.87-23.36,39.09c-4,2.11-7.74,3.03-10.38,3.47"/>
<path class="st0" d="M262.78,9.13c-0.25,7.48-2.8,92.53,8.76,131.73c2.66,9.02,8.04,27.27,22.39,32.46
	c3.28,1.18,6.21,1.39,8.06,1.41"/>
<path class="st0" d="M107.61,14.02c8.95,5.27,30.13,16.11,59.12,15.96c28.27-0.15,48.92-10.69,57.87-15.96"/>
<path class="st0" d="M109.45,22c10.2,5.01,29.77,12.96,55.56,13.19c27.06,0.24,47.57-8.13,57.87-13.19"/>
<g>
	<rect x="109.19" y="214.75" class="st1" width="32.02" height="12.16"/>
	<rect x="193.99" y="214.75" class="st1" width="32.02" height="12.16"/>
	<rect x="194.07" y="322.38" class="st1" width="32.02" height="12.16"/>
	<rect x="109.28" y="322.38" class="st1" width="32.02" height="12.16"/>
	<rect x="109.28" y="310.22" class="st1" width="32.02" height="12.16"/>
	<rect x="193.99" y="310.22" class="st1" width="32.02" height="12.16"/>
</g>
<path class="SidePanels fill" d="M301.69,174.71c-1.86-0.03-4.66-0.28-7.76-1.4c-9.9-3.58-15.54-13.39-18.95-22.09l-0.17,0.72
	c-24,82.72-27.43,150.88-26.31,196.53c1.43,58.03,10.92,107.82,21.63,163.97c9.24,48.44,26.82,116.68,26.82,116.68
	c13.53-2.63,26.1-5.5,37.64-8.42c-16.41-70.98-29.76-138.88-40.67-203.28c-15.34-90.56-21.04-145.91-2.6-211.1
	c3.56-12.57,10.64-31.55,10.66-31.6L301.69,174.71z"/>
<path class="SidePanels fill" d="M31.75,175.05c2.64-0.44,6.39-1.36,10.38-3.47c8.11-4.28,13.72-11.59,18.08-22.32l0.18,0.72
	c26.13,99.49,26.19,177.68,21.97,228.53c-3.4,40.92-11.35,85.72-16.44,114.38c-9.91,55.82-29.5,135.87-29.5,135.87
	c-12.88-2.54-24.84-5.28-35.83-8.07c1.82-7.43,42.42-174.64,50.19-289.28c3.36-49.63,0.53-88.77-10.38-128.57
	c-3.02-11.02-6.21-20.43-8.93-27.8L31.75,175.05z"/>
<g>
	<path class="st2" d="M15.62,551.91c-0.27,1.28-0.54,2.55-0.81,3.81"/>
	<path class="st2" d="M51.61,295.98c-0.04,11.27-0.49,23.02-1.33,35.43c-0.55,8.06-1.25,16.38-2.1,24.89"/>
	<path class="st2" d="M17.64,542.34c-0.62,2.97-1.24,5.89-1.84,8.75"/>
	<path class="st2" d="M22.96,516.26c-1.74,8.73-3.45,17.14-5.12,25.15"/>
	<path class="st2" d="M25.52,503.19c-0.86,4.42-1.71,8.79-2.57,13.07"/>
	<path class="st2" d="M39.89,202.83c-0.34-1.22-0.67-2.42-1.01-3.6"/>
	<path class="st2" d="M48.86,247.93c-1.92-15.33-4.88-30.16-8.97-45.08c0,0,0-0.01,0-0.01"/>
	<path class="st2" d="M27.13,494.82c-0.47,2.45-0.93,4.88-1.4,7.3"/>
	<path class="st2" d="M3.8,605.07c-0.2,0.85-0.39,1.66-0.57,2.45"/>
	<line class="st2" x1="51.61" y1="295.98" x2="51.61" y2="295.98"/>
	<path class="st2" d="M50.44,263.44c0.11,1.39,0.21,2.78,0.3,4.18"/>
	<path class="st2" d="M2.96,608.67c-0.18,0.75-0.35,1.47-0.51,2.16"/>
	<path class="st2" d="M49.74,255.64c0.26,2.58,0.5,5.19,0.7,7.81"/>
	<path class="st2" d="M14.64,556.53c-3.38,15.81-6.45,29.49-8.89,40.13"/>
	<path class="st2" d="M1.99,612.8c-0.15,0.62-0.29,1.21-0.42,1.77"/>
	<path class="st2" d="M51.18,275.37c0.13,2.71,0.22,5.45,0.29,8.21"/>
	<path class="st2" d="M4.42,602.44c-0.21,0.91-0.41,1.78-0.61,2.63"/>
	<path class="st2" d="M306.76,491.32c1.6,8.37,3.25,16.79,4.94,25.27"/>
	<path class="st2" d="M311.7,516.59c3.38,16.95,6.93,34.1,10.65,51.46"/>
	<path class="st2" d="M28.62,627.28c0.8,0.17,1.59,0.33,2.4,0.5"/>
	<path class="st2" d="M31.03,175.24c0.3,0.8,0.6,1.63,0.9,2.48"/>
	<path class="st2" d="M31.47,471.37c-0.35,1.94-0.7,3.87-1.05,5.8"/>
	<path class="st2" d="M325.69,622.77c-0.58,0.14-1.17,0.28-1.75,0.42"/>
	<path class="st2" d="M329.94,621.73c-0.48,0.12-0.97,0.24-1.45,0.35"/>
	<path class="st2" d="M334.09,620.69c-0.06,0.01-0.11,0.03-0.17,0.04"/>
	<path class="st2" d="M34.1,183.92c-0.32-0.96-0.64-1.89-0.96-2.8"/>
	<path class="st2" d="M36.35,190.82c-0.33-1.06-0.66-2.09-0.99-3.11"/>
	<path class="st2" d="M30.42,477.17c-0.32,1.75-0.64,3.49-0.96,5.23"/>
	<path class="st2" d="M37.52,194.61c-0.31-1.03-0.62-2.03-0.93-3.02"/>
	<path class="st2" d="M29.28,483.37c-0.65,3.49-1.3,6.95-1.95,10.38"/>
	<path class="st2" d="M38.64,198.38c-0.33-1.16-0.67-2.3-1-3.41"/>
	<path class="st2" d="M32.95,180.57c-0.27-0.78-0.55-1.55-0.81-2.3"/>
	<path class="st2" d="M33.37,628.25c0.81,0.16,1.61,0.33,2.43,0.49"/>
	<path class="st2" d="M35.2,187.22c-0.29-0.9-0.59-1.78-0.88-2.64"/>
	<path class="st2" d="M46.65,370.64c0.55-4.83,1.06-9.61,1.53-14.34"/>
	<path class="st2" d="M39.42,423.93c-0.44,2.86-0.89,5.71-1.34,8.56"/>
	<path class="st2" d="M38.64,198.38c0.08,0.28,0.16,0.56,0.24,0.85"/>
	<path class="st2" d="M17.64,542.34c0.06-0.31,0.13-0.62,0.19-0.93"/>
	<path class="st2" d="M51.18,275.37c-0.12-2.61-0.27-5.19-0.44-7.75"/>
	<path class="st2" d="M15.62,551.91c0.06-0.27,0.12-0.55,0.17-0.82"/>
	<path class="st2" d="M14.64,556.53c0.06-0.27,0.11-0.54,0.17-0.8"/>
	<path class="st2" d="M36.06,444.84c-0.31,1.84-0.62,3.68-0.93,5.51"/>
	<path class="st2" d="M37.94,433.32c-0.27,1.72-0.55,3.43-0.83,5.14"/>
	<path class="st2" d="M36.35,190.82c0.08,0.26,0.16,0.51,0.24,0.77"/>
	<path class="st2" d="M32.95,180.57c0.07,0.19,0.13,0.37,0.2,0.56"/>
	<path class="st2" d="M27.13,494.82c0.07-0.36,0.14-0.71,0.2-1.07"/>
	<path class="st2" d="M31.94,177.72c0.06,0.18,0.13,0.36,0.19,0.54"/>
	<path class="st2" d="M34.1,183.92c0.07,0.21,0.15,0.43,0.22,0.65"/>
	<path class="st2" d="M37.52,194.61c0.04,0.12,0.07,0.24,0.11,0.36"/>
	<path class="st2" d="M25.52,503.19c0.07-0.36,0.14-0.71,0.21-1.07"/>
	<path class="st2" d="M35.2,187.22c0.05,0.17,0.11,0.33,0.16,0.49"/>
	<path class="st2" d="M40.71,415.41c-0.25,1.69-0.51,3.39-0.77,5.08"/>
	<path class="st2" d="M45.25,382.31c0.37-2.93,0.72-5.86,1.06-8.76"/>
	<path class="st2" d="M42.5,403.02c0.7-4.96,1.37-9.91,2-14.83"/>
	<path class="st2" d="M44.51,388.19c0.25-1.97,0.5-3.93,0.75-5.89"/>
	<path class="st2" d="M40.71,415.41c0.32-2.14,0.63-4.28,0.94-6.42"/>
	<path class="st2" d="M1.57,614.57c-0.2,0.83-0.38,1.59-0.54,2.26"/>
	<path class="st2" d="M1.03,616.83c-0.11,0.45-0.21,0.87-0.3,1.25"/>
	<path class="st2" d="M321.35,623.8c-0.62,0.15-1.26,0.29-1.89,0.44"/>
	<path class="st2" d="M51.61,295.98c0.01-4.2-0.03-8.33-0.13-12.4"/>
	<path class="st2" d="M0.48,619.11c0.07-0.31,0.16-0.65,0.25-1.03"/>
	<path class="st2" d="M34.56,453.74c0.19-1.13,0.39-2.26,0.58-3.39"/>
	<path class="st2" d="M33.45,460.16c0.06-0.32,0.11-0.63,0.17-0.95"/>
	<path class="st2" d="M39.42,423.93c0.18-1.15,0.35-2.3,0.53-3.45"/>
	<path class="st2" d="M31.47,471.37c0.67-3.71,1.33-7.45,1.98-11.2"/>
	<path class="st2" d="M36.55,441.86c0.19-1.13,0.37-2.26,0.56-3.4"/>
	<path class="st2" d="M34.56,453.74c-0.31,1.83-0.63,3.65-0.94,5.47"/>
	<path class="st2" d="M37.94,433.32c0.04-0.27,0.09-0.55,0.13-0.82"/>
	<path class="st2" d="M312.36,625.83c0.87-0.19,1.74-0.38,2.6-0.58"/>
	<path class="st2" d="M290.38,207.98c0.15-0.55,0.3-1.1,0.45-1.66c0-0.01,0-0.01,0.01-0.02"/>
	<path class="st2" d="M301.46,174.78c-3.12,7.94-6.79,18.16-10.25,30.2"/>
	<path class="st2" d="M287.17,378.53c1.83,12.26,3.93,25.16,6.25,38.89c4.09,24.15,8.52,48.79,13.33,73.9"/>
	<path class="st2" d="M31.03,175.24c-0.85-2.29-1.65-4.39-2.39-6.28c1.64,0.07,4.12-0.01,6.92-0.87
		c22.03-6.76,26.74-50.8,28.55-67.76c0.79-7.35,0.82-29.03,0.87-72.1c0.01-7.33,0-13.37,0-17.37c13.27-3.76,26.54-7.53,39.8-11.29
		c2.1,17.98,9.02,53.37,36.34,84.26c8.08,9.14,16.48,16.23,24.23,21.72c7.76-5.52,16.14-12.62,24.23-21.72
		c27.38-30.79,34.82-65.93,37.21-84.26c13.84,3.76,27.69,7.53,41.53,11.29c-0.2,6.16-2.97,100.86,9.52,132.91
		c2.79,7.17,9.01,23.15,20.77,25.19c2.22,0.39,4.1,0.18,5.19,0c-0.73,1.77-1.52,3.72-2.35,5.82"/>
	<path class="st2" d="M286.27,224.43c1.2-5.43,2.57-10.91,4.11-16.45"/>
	<path class="st2" d="M296.45,629.12c-35.1,6.82-76.63,12.01-123.3,12.43c-52.58,0.47-98.93-5.24-137.23-12.78"/>
	<path class="st2" d="M329.94,621.73c1.34-0.33,2.67-0.66,3.98-1"/>
	<path class="st2" d="M287.17,378.53c-0.43-2.91-0.86-5.8-1.26-8.64"/>
	<path class="st2" d="M23.87,626.27c0.82,0.18,1.64,0.36,2.47,0.53"/>
	<path class="st2" d="M325.69,622.77c0.94-0.23,1.87-0.45,2.8-0.68"/>
	<path class="st2" d="M334.09,620.69L334.09,620.69c-1.03-4.44-2.04-8.86-3.04-13.27"/>
	<path class="st2" d="M285.02,230.39c-6.71,33.7-7.12,66.21-3.4,104.29"/>
	<path class="st2" d="M285.91,369.89c-1.75-12.33-3.2-24.02-4.3-35.22"/>
	<path class="st2" d="M28.62,627.28c-0.76-0.16-1.52-0.31-2.27-0.47"/>
	<path class="st2" d="M10.89,623.34c0.64,0.15,1.27,0.3,1.92,0.45"/>
	<path class="st2" d="M15.07,624.31c-0.75-0.17-1.52-0.35-2.26-0.52"/>
	<path class="st2" d="M6.98,622.4c0.5,0.12,0.99,0.24,1.49,0.36"/>
	<path class="st2" d="M10.89,623.34c-0.81-0.19-1.62-0.38-2.42-0.57"/>
	<path class="st2" d="M0.48,619.11c-0.19,0.77-0.32,1.3-0.39,1.59l0,0"/>
	<path class="st2" d="M6.98,622.4c-2.33-0.57-4.64-1.14-6.89-1.71"/>
	<path class="st2" d="M321.35,623.8c0.87-0.2,1.73-0.41,2.59-0.61"/>
	<path class="st2" d="M35.92,628.76c-0.04-0.01-0.08-0.02-0.12-0.02"/>
	<path class="st2" d="M33.37,628.25c-0.78-0.16-1.57-0.31-2.35-0.47"/>
	<path class="st2" d="M19.41,625.29c0.78,0.17,1.55,0.35,2.34,0.52"/>
	<path class="st2" d="M15.07,624.31c0.72,0.17,1.43,0.33,2.16,0.5"/>
	<path class="st2" d="M19.41,625.29c-0.72-0.16-1.46-0.32-2.17-0.48"/>
	<path class="st2" d="M23.87,626.27c-0.71-0.15-1.42-0.3-2.13-0.46"/>
	<path class="st2" d="M290.83,206.3c0.13-0.45,0.25-0.88,0.38-1.32"/>
	<path class="st2" d="M29.28,483.37c0.06-0.33,0.12-0.65,0.18-0.98"/>
	<path class="st2" d="M297.8,628.85c1.08-0.21,2.17-0.43,3.24-0.64"/>
	<path class="st2" d="M307.72,626.83c-0.65,0.14-1.31,0.28-1.96,0.41"/>
	<path class="st2" d="M296.45,629.12c0.45-0.09,0.89-0.18,1.34-0.26"/>
	<path class="st2" d="M302.9,627.83c-0.62,0.13-1.24,0.25-1.87,0.38"/>
	<path class="st2" d="M312.36,625.83c-0.65,0.14-1.31,0.29-1.97,0.43"/>
	<path class="st2" d="M302.9,627.83c0.95-0.19,1.91-0.39,2.85-0.59"/>
	<path class="st2" d="M316.91,624.82c-0.65,0.15-1.29,0.29-1.95,0.44"/>
	<path class="st2" d="M316.91,624.82c0.86-0.19,1.71-0.39,2.55-0.58"/>
	<path class="st2" d="M307.72,626.83c0.9-0.19,1.79-0.38,2.68-0.57"/>
	<path class="st2" d="M301.46,174.78c0.02-0.04,0.02-0.06,0.02-0.07l-0.3,0c-1.86-0.03-4.66-0.28-7.76-1.4
		c-9.9-3.58-15.54-13.39-18.95-22.09l-0.17,0.72c-24,82.72-27.43,150.88-26.31,196.53c1.43,58.03,10.92,107.82,21.63,163.97
		c9.23,48.42,26.81,116.62,26.82,116.68"/>
	<path class="st2" d="M319.46,624.23c0.63-0.15,1.26-0.29,1.89-0.44"/>
	<path class="st2" d="M301.04,628.21c0.63-0.13,1.24-0.25,1.87-0.38"/>
	<path class="st2" d="M296.45,629.12L296.45,629.12c0.45-0.09,0.89-0.18,1.34-0.26"/>
	<path class="st2" d="M287.17,378.53c1.83,12.26,3.93,25.16,6.25,38.89c4.09,24.15,8.52,48.79,13.33,73.9"/>
	<path class="st2" d="M301.46,174.78c-0.44,1.17-6.71,18.08-10.25,30.2"/>
	<path class="st2" d="M291.22,204.98c-0.13,0.45-0.26,0.89-0.38,1.32"/>
	<path class="st2" d="M328.49,622.09c-0.93,0.23-1.86,0.45-2.8,0.68"/>
	<path class="st2" d="M333.92,620.74c-1.31,0.33-2.64,0.67-3.98,1"/>
	<path class="st2" d="M314.97,625.25c-0.86,0.19-1.73,0.38-2.6,0.58"/>
	<path class="st2" d="M323.94,623.19c-0.86,0.2-1.72,0.41-2.59,0.61"/>
	<path class="st2" d="M331.05,607.42c1,4.41,2.02,8.84,3.04,13.27"/>
	<path class="st2" d="M310.39,626.26c-0.89,0.19-1.78,0.38-2.68,0.57"/>
	<path class="st2" d="M305.75,627.24c-0.94,0.2-1.9,0.39-2.85,0.59"/>
	<path class="st2" d="M301.04,628.21c-1.07,0.22-2.16,0.43-3.24,0.64"/>
	<path class="st2" d="M290.38,207.98c0.15-0.55,0.3-1.1,0.45-1.66c0-0.01,0-0.01,0.01-0.02"/>
	<path class="st2" d="M311.7,516.59c-1.69-8.47-3.33-16.9-4.94-25.27"/>
	<path class="st2" d="M290.38,207.98c-1.54,5.54-2.91,11.02-4.11,16.45"/>
	<path class="st2" d="M310.39,626.26c0.66-0.14,1.31-0.29,1.97-0.43"/>
	<path class="st2" d="M328.49,622.09c0.48-0.12,0.97-0.24,1.45-0.35"/>
	<path class="st2" d="M319.46,624.23c-0.85,0.2-1.7,0.39-2.55,0.58"/>
	<path class="st2" d="M323.94,623.19c0.58-0.14,1.17-0.28,1.75-0.42"/>
	<path class="st2" d="M333.92,620.74c0.06-0.01,0.11-0.03,0.17-0.04v0"/>
	<path class="st2" d="M314.97,625.25c0.65-0.15,1.3-0.29,1.95-0.44"/>
	<path class="st2" d="M322.35,568.04c-3.73-17.35-7.28-34.51-10.65-51.46"/>
	<path class="st2" d="M281.61,334.68c1.09,11.2,2.54,22.88,4.3,35.22"/>
	<path class="st2" d="M285.02,230.39c-6.71,33.7-7.12,66.21-3.4,104.29"/>
	<path class="st2" d="M287.17,378.53c-0.43-2.91-0.86-5.8-1.26-8.64"/>
	<path class="st2" d="M305.75,627.24c0.66-0.14,1.31-0.28,1.96-0.41"/>
	<path class="st2" d="M286.27,224.43c-0.44,1.99-0.86,3.98-1.25,5.96"/>
	<path class="st2" d="M331.05,607.42c-3.01-13.24-5.9-26.36-8.7-39.38"/>
	<path class="st2" d="M15.8,551.09c-0.06,0.27-0.12,0.55-0.17,0.82"/>
	<path class="st2" d="M17.83,541.41c1.67-8.01,3.39-16.42,5.12-25.15"/>
	<path class="st2" d="M12.81,623.79c0.75,0.17,1.51,0.35,2.26,0.52"/>
	<path class="st2" d="M25.73,502.12c-0.07,0.36-0.14,0.71-0.21,1.07"/>
	<path class="st2" d="M27.33,493.75c-0.07,0.36-0.14,0.71-0.2,1.07"/>
	<path class="st2" d="M22.96,516.26c0.85-4.28,1.71-8.65,2.57-13.07"/>
	<path class="st2" d="M25.73,502.12c0.47-2.41,0.93-4.85,1.4-7.3"/>
	<path class="st2" d="M0.09,620.69L0.09,620.69c2.25,0.57,4.56,1.14,6.89,1.71"/>
	<path class="st2" d="M27.33,493.75c0.65-3.43,1.3-6.89,1.95-10.38"/>
	<path class="st2" d="M8.48,622.77c0.8,0.19,1.61,0.38,2.42,0.57"/>
	<path class="st2" d="M17.83,541.41c-0.07,0.31-0.13,0.62-0.19,0.93"/>
	<path class="st2" d="M14.81,555.72c0.27-1.26,0.54-2.53,0.81-3.81"/>
	<path class="st2" d="M21.75,625.81c0.7,0.15,1.42,0.31,2.13,0.46"/>
	<path class="st2" d="M2.45,610.83c0.16-0.69,0.33-1.41,0.51-2.16"/>
	<path class="st2" d="M15.8,551.09c0.61-2.86,1.22-5.77,1.84-8.75"/>
	<path class="st2" d="M1.57,614.57c0.13-0.56,0.27-1.14,0.42-1.77"/>
	<path class="st2" d="M29.46,482.39c-0.06,0.33-0.12,0.65-0.18,0.98"/>
	<path class="st2" d="M0.48,619.11c0.07-0.31,0.16-0.65,0.25-1.03"/>
	<path class="st2" d="M31.02,627.78c0.78,0.16,1.56,0.31,2.35,0.47"/>
	<path class="st2" d="M1.03,616.83c0.16-0.68,0.34-1.43,0.54-2.26"/>
	<path class="st2" d="M17.23,624.81c0.72,0.16,1.45,0.32,2.17,0.48"/>
	<path class="st2" d="M14.81,555.72c-0.06,0.27-0.11,0.54-0.17,0.8"/>
	<path class="st2" d="M26.35,626.81c0.75,0.16,1.51,0.32,2.27,0.47"/>
	<path class="st2" d="M5.75,596.66c2.44-10.64,5.51-24.32,8.89-40.13"/>
	<path class="st2" d="M3.23,607.52c0.18-0.78,0.37-1.6,0.57-2.45"/>
	<path class="st2" d="M3.8,605.07c0.2-0.85,0.4-1.72,0.61-2.63"/>
	<path class="st2" d="M0.73,618.08c0.09-0.38,0.19-0.79,0.3-1.25"/>
	<path class="st2" d="M38.88,199.23c-0.08-0.28-0.16-0.57-0.24-0.85"/>
	<path class="st2" d="M44.51,388.19c-0.64,4.92-1.3,9.86-2,14.83"/>
	<path class="st2" d="M48.86,247.93c-1.92-15.33-4.88-30.16-8.97-45.08c0,0,0-0.01,0-0.01"/>
	<path class="st2" d="M37.63,194.97c-0.04-0.12-0.07-0.24-0.11-0.36"/>
	<path class="st2" d="M35.36,187.71c-0.05-0.17-0.11-0.33-0.16-0.49"/>
	<path class="st2" d="M36.59,191.59c-0.08-0.26-0.16-0.52-0.24-0.77"/>
	<path class="st2" d="M51.61,295.98c-0.04,11.27-0.49,23.02-1.33,35.43c-0.55,8.06-1.25,16.38-2.1,24.89"/>
	<path class="st2" d="M34.32,184.57c-0.07-0.22-0.15-0.43-0.22-0.65"/>
	<line class="st2" x1="51.61" y1="295.98" x2="51.61" y2="295.98"/>
	<path class="st2" d="M51.48,283.58c0.1,4.07,0.15,8.2,0.13,12.4"/>
	<path class="st2" d="M46.31,373.54c-0.34,2.91-0.69,5.83-1.06,8.76"/>
	<path class="st2" d="M48.18,356.3c-0.47,4.73-0.98,9.51-1.53,14.34"/>
	<path class="st2" d="M45.25,382.31c-0.24,1.96-0.49,3.92-0.75,5.89"/>
	<path class="st2" d="M26.35,626.81c-0.83-0.18-1.65-0.35-2.47-0.53"/>
	<path class="st2" d="M17.23,624.81c-0.73-0.16-1.44-0.33-2.16-0.5"/>
	<path class="st2" d="M50.74,267.62c0.17,2.56,0.32,5.15,0.44,7.75"/>
	<path class="st2" d="M12.81,623.79c-0.65-0.15-1.28-0.3-1.92-0.45"/>
	<path class="st2" d="M29.46,482.39c0.32-1.74,0.64-3.48,0.96-5.23"/>
	<path class="st2" d="M8.48,622.77c-0.5-0.12-0.99-0.24-1.49-0.36"/>
	<path class="st2" d="M0.48,619.11c-0.19,0.77-0.32,1.3-0.39,1.59"/>
	<path class="st2" d="M35.8,628.74c-0.82-0.16-1.62-0.33-2.43-0.49"/>
	<path class="st2" d="M31.03,175.24c-0.02-0.06-0.05-0.13-0.07-0.19l0.28,0c2.64-0.44,6.39-1.36,10.38-3.47
		c8.11-4.28,13.72-11.59,18.08-22.32l0.18,0.72c26.13,99.49,26.19,177.68,21.97,228.53c-3.4,40.92-11.35,85.72-16.44,114.38
		c-9.91,55.81-29.49,135.83-29.5,135.86"/>
	<path class="st2" d="M31.03,175.24c0.3,0.8,0.6,1.63,0.9,2.48"/>
	<path class="st2" d="M31.02,627.78c-0.81-0.17-1.6-0.33-2.4-0.5"/>
	<path class="st2" d="M32.13,178.27c-0.06-0.18-0.13-0.37-0.19-0.54"/>
	<path class="st2" d="M33.14,181.12c-0.07-0.19-0.13-0.37-0.2-0.56"/>
	<path class="st2" d="M35.92,628.76L35.92,628.76c-0.04-0.01-0.08-0.02-0.12-0.02"/>
	<path class="st2" d="M21.75,625.81c-0.79-0.17-1.56-0.35-2.34-0.52"/>
	<path class="st2" d="M38.07,432.5c-0.04,0.27-0.09,0.55-0.13,0.82"/>
	<path class="st2" d="M38.88,199.23c0.34,1.18,0.68,2.38,1.01,3.6"/>
	<path class="st2" d="M33.62,459.21c-0.06,0.32-0.11,0.63-0.17,0.95"/>
	<path class="st2" d="M39.95,420.49c-0.17,1.15-0.35,2.3-0.53,3.45"/>
	<path class="st2" d="M34.32,184.57c0.29,0.86,0.58,1.74,0.88,2.64"/>
	<path class="st2" d="M35.36,187.71c0.33,1.01,0.66,2.05,0.99,3.11"/>
	<path class="st2" d="M37.11,438.46c-0.18,1.13-0.37,2.27-0.56,3.4"/>
	<path class="st2" d="M32.13,178.27c0.27,0.75,0.54,1.52,0.81,2.3"/>
	<path class="st2" d="M41.65,408.99c-0.31,2.14-0.62,4.28-0.94,6.42"/>
	<path class="st2" d="M33.14,181.12c0.32,0.91,0.64,1.85,0.96,2.8"/>
	<path class="st2" d="M30.42,477.17c0.35-1.93,0.7-3.86,1.05-5.8"/>
	<path class="st2" d="M36.59,191.59c0.31,0.99,0.62,2,0.93,3.02"/>
	<path class="st2" d="M37.63,194.97c0.34,1.11,0.67,2.26,1,3.41"/>
	<path class="st2" d="M35.14,450.35c-0.19,1.13-0.38,2.26-0.58,3.39"/>
	<path class="st2" d="M38.07,432.5c0.45-2.85,0.9-5.71,1.34-8.56"/>
	<path class="st2" d="M35.14,450.35c0.31-1.83,0.62-3.67,0.93-5.51"/>
	<path class="st2" d="M37.11,438.46c0.28-1.71,0.56-3.43,0.83-5.14"/>
	<path class="st2" d="M39.95,420.49c0.26-1.69,0.51-3.39,0.77-5.08"/>
	<path class="st2" d="M50.44,263.44c-0.21-2.62-0.44-5.22-0.7-7.81"/>
	<path class="st2" d="M51.48,283.58c-0.07-2.76-0.17-5.5-0.29-8.21"/>
	<path class="st2" d="M50.74,267.62c-0.09-1.4-0.19-2.79-0.3-4.18"/>
	<path class="st2" d="M31.47,471.37c0.67-3.71,1.33-7.45,1.98-11.2"/>
	<path class="st2" d="M33.62,459.21c0.32-1.82,0.63-3.64,0.94-5.47"/>
	<path class="st2" d="M1.99,612.8c0.15-0.62,0.3-1.28,0.47-1.97"/>
	<path class="st2" d="M4.42,602.44c0.42-1.81,0.87-3.74,1.33-5.79"/>
	<path class="st2" d="M2.96,608.67c0.09-0.38,0.18-0.76,0.27-1.15"/>
	<path class="st2" d="M42.5,403.02c-0.28,1.99-0.56,3.97-0.85,5.96"/>
	<path class="st2" d="M48.86,247.93c0.32,2.55,0.61,5.12,0.87,7.71"/>
	<path class="st2" d="M36.06,444.84c0.17-0.99,0.33-1.98,0.49-2.98"/>
	<path class="st2" d="M46.65,370.64c-0.11,0.97-0.22,1.93-0.33,2.9"/>
</g>
<path class="NeckAndArmTrim fill" d="M234.22,1.45c-1.53,14.43-6.5,42.55-25.95,71.09c-14.47,21.23-31.28,34.36-42.4,41.7
	c-11.12-7.68-28.01-21.43-42.4-43.44c-18.23-27.88-23.2-54.9-24.8-69.35l6.63-1.88c2.1,17.98,9.02,53.37,36.34,84.26
	c8.08,9.14,16.48,16.23,24.23,21.72c7.76-5.52,16.14-12.62,24.23-21.72c27.38-30.79,34.82-65.93,37.21-84.26L234.22,1.45z
	 M31.75,175.05c2.64-0.44,6.39-1.36,10.38-3.47c11.79-6.23,18.31-18.86,23.36-39.09c5.97-23.9,5.71-41.68,6.06-78.18
	c0.19-20.28,0.47-36.38,0.65-45.34l-6.7,1.9c0,4,0.01,10.04,0,17.37c-0.04,43.07-0.08,64.76-0.87,72.1
	c-1.81,16.96-6.52,61-28.55,67.76c-2.8,0.86-5.28,0.93-6.92,0.87L31.75,175.05z M304.32,168.97c-1.09,0.18-2.97,0.39-5.19,0
	c-11.75-2.05-17.97-18.02-20.77-25.19c-12.49-32.06-9.72-126.75-9.52-132.91l-6.06-1.74c-0.25,7.48-2.8,92.53,8.76,131.73
	c2.66,9.02,8.04,27.27,22.39,32.46c3.28,1.18,6.21,1.39,8.06,1.41L304.32,168.97z M109.45,22c10.2,5.01,29.77,12.96,55.56,13.19
	c27.06,0.24,47.57-8.13,57.87-13.19l1.74-7.98c-8.95,5.27-29.6,15.8-57.87,15.96c-28.99,0.16-50.17-10.69-59.12-15.96L109.45,22z"/>
<g id="FBodyLogos"></g>
</svg>
