<?xml version="1.0" encoding="utf-8"?>
<!-- Generator: Adobe Illustrator 19.1.0, SVG Export Plug-In . SVG Version: 6.00 Build 0)  -->
<svg version="1.1" id="Layer_1" xmlns="http://www.w3.org/2000/svg" xmlns:xlink="http://www.w3.org/1999/xlink" x="0px" y="0px"
	 viewBox="0 0 335.2 641.14" style="enable-background:new 0 0 335.2 641.14;" xml:space="preserve">
<style type="text/css">
	<![CDATA[
	@font-face{font-family:'codaheavy';src:url('/fonts/coda-heavy-webfont.woff') format('woff')}
	text{font-family:Impact,codaheavy,sans-serif}
	.Number.fill{fill:#000}
	.NumberOutline.stroke{fill:none;stroke:#777;stroke-width:2.5}
	.Colour1.fill{fill:#FFFFFF;}
	.Colour2.fill{fill:#000000;}
	.Colour3.fill{fill:#E2E2E2;}
	.Colour4.fill{fill:#132847;}
	.NeckAndArmTrim.fill{fill:#AB834A;stroke:#000000;stroke-miterlimit:10;}
	.SidePanels.fill{fill:#AB834A;stroke:#000000;stroke-miterlimit:10;}
	.st0{fill:none;stroke:#000000;stroke-miterlimit:10;}
	.st1{fill:#FFFFFF;stroke:#000000;}
	.st2{fill:none;stroke:#000000;stroke-linecap:round;stroke-linejoin:round;}
	]]>
</style>
<path class="Colour1 fill" d="M291.1,206.55c4.47-15.83,9.35-28.62,12.95-37.33c-1.09,0.18-2.97,0.39-5.18,0
	c-11.73-2.04-17.94-18.01-20.73-25.17c-12.46-32.03-9.7-126.66-9.5-132.82c-13.82-3.76-26.78-7.81-40.6-11.57
	c0,21.92-122.64,22.21-122.64,0.29C92.17,3.7,78.93,7.46,65.69,11.23c0,4,0.01,10.03,0,17.36c-0.04,43.04-0.08,64.71-0.86,72.05
	c-1.81,16.94-6.51,60.96-28.5,67.71c-2.79,0.86-5.27,0.93-6.91,0.87c3.1,7.91,7.3,19.53,11.23,33.86
	c10.89,39.77,13.72,78.88,10.36,128.48C43.25,446.11,2.73,613.2,0.91,620.63c43.59,11.07,102.61,21.46,172.73,20.83
	c64.53-0.58,119.22-10.31,160.64-20.83c-16.37-70.93-29.71-138.78-40.59-203.13C278.39,327,272.7,271.68,291.1,206.55z"/>
<path class="Colour3 fill" d="M35.95,168.47c-2.79,0.89-5.27,0.97-6.9,0.9c3.09,8.2,7.29,20.24,11.21,35.09
	c7.19,27.27,10.85,54.26,11.53,84.29l174.06,151.31l73.82,26.88c-2.36-13.54-4.64-26.98-6.8-40.24c-4-24.52-7.32-46.53-9.75-66.89
	L48.94,157.69C45.47,162.88,41.21,166.79,35.95,168.47z"/>
<path class="Colour4 fill" d="M0.6,620.69c43.51,11.08,102.43,21.48,172.43,20.85c64.42-0.58,119.01-10.32,160.36-20.85
	c-10.24-44.45-19.28-87.69-27.28-129.62L51.73,281.88c0.46,15.52,0.07,31.86-1.13,49.54C42.87,446.06,2.42,613.27,0.6,620.69z"/>
<path class="SidePanels fill" d="M49.77,249.47L300.3,459.74c-2.59-14.26-5.08-28.39-7.43-42.32c-1.5-8.88-2.9-17.41-4.2-25.66L49.77,190.95
	V249.47z"/>
<path class="Colour2 fill" d="M327.37,594.09L47.96,361.69c-2.1,20.03-4.91,40.99-8.13,61.95c37.1,36.45,79.25,74.6,125.03,112.67
	c41.8,34.77,83.08,66.52,122.29,94.43c16.82-3.05,32.3-6.5,46.24-10.05C331.34,611.78,329.33,602.91,327.37,594.09z"/>
<path class="st0" d="M234.58,1.45"/>
<path class="st0" d="M99.53,1.45"/>
<path class="st0" d="M98.13,1.85c9.78,6.23,35.6,20.83,71.39,20.13c32.89-0.64,56.56-13.85,66.44-20.15"/>
<g>
	<rect x="109.97" y="214.75" class="st1" width="31.9" height="12.16"/>
	<rect x="194.46" y="214.75" class="st1" width="31.9" height="12.16"/>
	<rect x="194.54" y="322.38" class="st1" width="31.9" height="12.16"/>
	<rect x="110.05" y="322.38" class="st1" width="31.9" height="12.16"/>
	<rect x="110.05" y="310.22" class="st1" width="31.9" height="12.16"/>
	<rect x="194.54" y="310.22" class="st1" width="31.9" height="12.16"/>
</g>
<path class="SidePanels fill" d="M301.81,174.71c-1.85-0.03-4.64-0.28-7.73-1.4c-9.87-3.58-15.48-13.39-18.88-22.09l-0.17,0.72
	c-23.91,82.72-27.33,150.88-26.21,196.53c1.42,58.03,10.88,107.82,21.55,163.97c9.2,48.44,26.73,116.68,26.73,116.68
	c13.48-2.63,26-5.5,37.5-8.42c-16.35-70.98-29.65-138.88-40.52-203.28c-15.28-90.56-20.96-145.91-2.59-211.1
	c3.54-12.57,10.6-31.55,10.62-31.6L301.81,174.71z"/>
<path class="SidePanels fill" d="M31.97,175.17c2.63-0.44,6.36-1.36,10.35-3.47c8.08-4.28,13.67-11.59,18.02-22.32l0.18,0.72
	c26.04,99.49,26.1,177.68,21.89,228.53c-3.38,40.92-11.31,85.72-16.38,114.38c-9.88,55.82-29.4,135.87-29.4,135.87
	c-12.83-2.54-24.75-5.28-35.7-8.07c1.82-7.43,42.27-174.64,50.01-289.28c3.35-49.63,0.53-88.77-10.35-128.57
	c-3.01-11.02-6.19-20.43-8.9-27.8L31.97,175.17z"/>
<g>
	<path class="st2" d="M34.98,184.99c-2.08-6.22-4.06-11.53-5.72-15.77c1.63,0.07,4.12-0.01,6.91-0.87
		c21.99-6.75,26.69-50.77,28.5-67.71c0.78-7.34,0.82-29.01,0.86-72.05c0.01-7.33,0-13.36,0-17.36C78.77,7.46,92.02,3.7,105.26-0.06
		c0,21.92,122.64,21.63,122.64-0.29c13.82,3.76,26.78,7.81,40.6,11.57c-0.2,6.16-2.96,100.78,9.5,132.82
		c2.79,7.17,9,23.13,20.73,25.17c2.22,0.39,4.09,0.18,5.18,0c-0.7,1.68-1.44,3.52-2.22,5.5"/>
	<path class="st2" d="M296.91,628.98c-35.11,6.85-76.68,12.07-123.42,12.48c-52.48,0.47-98.74-5.23-136.97-12.77"/>
	<path class="st2" d="M25.9,504.45C13.74,567.17,1.73,616.66,0.76,620.63c0.02,0.01,0.04,0.01,0.07,0.02"/>
	<path class="st2" d="M301.68,174.71c-3.26,8.27-7.13,19.06-10.74,31.83c-18.41,65.14-12.72,120.45,2.59,210.95
		c10.89,64.35,24.22,132.2,40.59,203.13c-11.42,2.9-23.86,5.74-37.23,8.35"/>
	<path class="st2" d="M34.98,184.99c1.8,5.38,3.68,11.44,5.5,18.09c10.89,39.77,13.72,78.88,10.36,128.48
		c-3.61,53.38-14.34,118.17-24.95,172.9"/>
	<path class="st2" d="M0.82,620.64c10.95,2.78,22.87,5.52,35.7,8.05"/>
	<path class="st2" d="M301.68,174.71l0.27,0c-0.02,0.05-7.07,19.03-10.62,31.6c-18.38,65.18-12.7,120.54,2.59,211.1
		c10.87,64.39,24.18,132.3,40.52,203.28c-11.5,2.93-24.03,5.8-37.5,8.42c0,0-0.01-0.06-0.04-0.14"/>
	<path class="st2" d="M301.68,174.71l-0.03,0c-1.85-0.03-4.64-0.28-7.73-1.4c-9.87-3.58-15.48-13.39-18.88-22.09l-0.17,0.72
		c-23.91,82.72-27.33,150.88-26.21,196.53c1.42,58.03,10.88,107.82,21.55,163.97c8.97,47.22,25.84,113.22,26.69,116.54"/>
	<path class="st2" d="M0.82,620.64c-0.02,0.06-0.03,0.13-0.04,0.18c10.95,2.79,22.87,5.53,35.7,8.07c0,0,0.02-0.07,0.05-0.2"/>
	<path class="st2" d="M25.9,504.45C13.9,566.47,2.05,615.59,0.82,620.64"/>
	<path class="st2" d="M34.98,184.99c1.79,5.36,3.65,11.38,5.46,17.98c10.87,39.79,13.7,78.93,10.35,128.57
		c-3.6,53.39-14.3,118.17-24.89,172.91"/>
	<path class="st2" d="M34.98,184.99c-1.19-3.58-2.36-6.87-3.44-9.81l0.28,0c2.63-0.44,6.36-1.36,10.35-3.47
		c8.08-4.28,13.67-11.59,18.02-22.32l0.18,0.72c26.04,99.49,26.1,177.68,21.89,228.53c-3.38,40.92-11.31,85.72-16.38,114.38
		c-9.6,54.25-28.3,131.37-29.35,135.67"/>
</g>
<path class="NeckAndArmTrim fill" d="M32.1,175.05c2.63-0.44,6.36-1.36,10.35-3.47c11.75-6.23,18.24-18.86,23.28-39.09
	c5.95-23.9,5.69-41.68,6.04-78.18c0.19-20.28,0.47-36.38,0.64-45.34l-6.68,1.9c0,4,0.01,10.04,0,17.37
	c-0.04,43.07-0.08,64.76-0.86,72.1c-1.81,16.96-6.5,61-28.45,67.76c-2.79,0.86-5.27,0.93-6.9,0.87L32.1,175.05z"/>
<path class="NeckAndArmTrim fill" d="M302.11,174.72c-1.84-0.01-4.77-0.22-8.03-1.41c-14.29-5.19-19.66-23.43-22.31-32.46
	c-11.52-39.2-8.98-124.25-8.73-131.73l6.04,1.74c-0.2,6.16-2.96,100.85,9.48,132.91c2.78,7.17,8.98,23.15,20.69,25.19
	c2.21,0.39,4.09,0.18,5.17,0L302.11,174.72z"/>
<path class="NeckAndArmTrim fill" d="M98.13,1.85c9.78,6.23,35.6,20.83,71.39,20.13c32.89-0.64,56.56-13.85,66.44-20.15l-8.27-2.26
	c-10.15,5.48-31.3,15.13-59.67,15.38c-29.63,0.26-51.7-9.88-61.9-15.38L98.13,1.85z"/>
<g id="BBodyLogos"></g>
</svg>
