<?xml version="1.0" encoding="utf-8"?>
<!-- Generator: Adobe Illustrator 19.1.0, SVG Export Plug-In . SVG Version: 6.00 Build 0)  -->
<svg version="1.1" id="Layer_1" xmlns="http://www.w3.org/2000/svg" xmlns:xlink="http://www.w3.org/1999/xlink" x="0px" y="0px"
	 viewBox="0 0 335.2 641.14" style="enable-background:new 0 0 335.2 641.14;" xml:space="preserve">
<style type="text/css">
	<![CDATA[
	@font-face{font-family:'codaheavy';src:url('/fonts/coda-heavy-webfont.woff') format('woff')}
	text{font-family:Impact,codaheavy,sans-serif}
	.Colour1.fill{fill:#FFFFFF;}
	.Colour2.fill{fill:#2A7CBF;}
	.Colour3.fill{fill:#58B9CE;}
	.Colour4.fill{fill:#71C1EC;}
	.Colour5.fill{fill:#2DA2DB;}
	.Colour6.fill{fill:#CBEAFA;}
	.NeckAndArmTrim.fill{fill:#2A7CBF;stroke:#000000;stroke-miterlimit:10;}
	.SidePanels.fill{fill:#FFFFFF;stroke:#000000;stroke-miterlimit:10;}
	.st0{fill:none;stroke:#000000;stroke-miterlimit:10;}
	.st1{fill:#FFFFFF;stroke:#000000;}
	.st2{fill:none;stroke:#000000;stroke-linecap:round;stroke-linejoin:round;}
	]]>
</style>
<path class="Colour1 fill" d="M0.6,620.69c43.67,11.08,102.8,21.48,173.06,20.85c64.65-0.58,119.45-10.32,160.94-20.85
	c-16.41-70.98-29.76-138.88-40.67-203.28c-15.34-90.56-21.04-145.91-2.6-211.1c4.48-15.84,9.37-28.64,12.98-37.35
	c-1.09,0.18-2.97,0.39-5.19,0c-11.75-2.05-17.97-18.02-20.77-25.19c-12.48-32.06-9.72-126.75-9.52-132.91
	c-13.84-3.76-27.69-7.53-41.53-11.29c-2.39,18.33-9.83,53.47-37.21,84.26c-8.08,9.09-16.47,16.19-24.23,21.72
	c-7.75-5.49-16.15-12.58-24.23-21.72c-27.32-30.9-34.24-66.28-36.34-84.26C92.03,3.33,78.77,7.1,65.5,10.86c0,4,0.01,10.04,0,17.37
	c-0.04,43.07-0.08,64.76-0.87,72.1c-1.81,16.96-6.52,61-28.55,67.76c-2.8,0.86-5.28,0.93-6.92,0.87c3.1,7.92,7.32,19.54,11.25,33.88
	c10.91,39.79,13.75,78.93,10.38,128.57C43.02,446.06,2.42,613.27,0.6,620.69z"/>
<path class="Colour3 fill" d="M93.29,9.24c0.09,0.06,0.18,0.12,0.27,0.18c-0.01,0.03-0.03,0.08-0.03,0.08c-0.09-0.06-0.18-0.12-0.27-0.18
	C93.26,9.32,93.28,9.27,93.29,9.24z M107.31,19.01c0.09,0.07,0.19,0.14,0.29,0.21c0.01-0.03,0.02-0.06,0.04-0.09
	c-0.1-0.07-0.19-0.14-0.28-0.21C107.34,18.95,107.32,18.98,107.31,19.01z M97.77,18.15c0.42,0.31,0.83,0.62,1.25,0.94
	c0.06-0.14,0.11-0.28,0.17-0.43c-0.42-0.31-0.83-0.63-1.25-0.93C97.88,17.87,97.82,18.01,97.77,18.15z M88.89,17.71
	c0.66,0.51,1.33,1.02,1.99,1.54c0.1-0.25,0.2-0.5,0.3-0.75c-0.67-0.52-1.34-1.03-2-1.53C89.08,17.21,88.99,17.46,88.89,17.71z
	 M72.48,17.89c1.17,0.95,2.35,1.92,3.53,2.92c0.2-0.56,0.4-1.1,0.6-1.65c-1.2-0.97-2.39-1.93-3.57-2.85
	C72.85,16.82,72.66,17.36,72.48,17.89z M122.95,31.11c0.12,0.1,0.23,0.19,0.35,0.29c0.02-0.03,0.03-0.07,0.05-0.11
	c-0.12-0.1-0.23-0.19-0.35-0.29C122.97,31.04,122.97,31.08,122.95,31.11z M101.93,28.39c0.81,0.71,1.63,1.41,2.45,2.14
	c0.13-0.32,0.27-0.64,0.4-0.96c-0.83-0.71-1.65-1.42-2.46-2.12C102.19,27.76,102.05,28.07,101.93,28.39z M98.82,53.64
	c1.66,2.09,3.33,4.25,5.02,6.5c0.45-1.04,0.9-2.07,1.34-3.08c-1.72-2.19-3.43-4.28-5.13-6.31C99.64,51.69,99.24,52.66,98.82,53.64z
	 M89.16,53.39c1.73,2.28,3.46,4.67,5.21,7.16c0.52-1.25,1.04-2.47,1.56-3.67c-1.8-2.4-3.58-4.71-5.36-6.91
	C90.1,51.08,89.63,52.22,89.16,53.39z M112.16,71.59c1.76,2.55,3.55,5.21,5.34,7.97c0.54-1.17,1.07-2.33,1.6-3.47
	c-1.84-2.69-3.68-5.26-5.48-7.75C113.15,69.42,112.66,70.5,112.16,71.59z M80.79,90.56c2,4.65,3.98,9.58,5.92,14.83
	c1.26-2.85,2.47-5.61,3.65-8.29c-2.13-4.94-4.29-9.59-6.46-13.96C82.9,85.54,81.87,88.01,80.79,90.56z M160,130.56
	c2.34,4.21,4.72,8.58,7.14,13.11c0.77-1.44,1.51-2.89,2.27-4.29c-2.49-4.44-4.93-8.71-7.33-12.83
	C161.4,127.88,160.71,129.21,160,130.56z M112.73,146.28c2.4,7.59,4.79,15.68,7.15,24.33c1.84-3.61,3.61-7.12,5.34-10.54
	c-2.63-8.21-5.31-15.88-7.95-23.08C115.8,140,114.27,143.09,112.73,146.28z M127.18,149.71c2.77,7.7,5.53,15.87,8.32,24.56
	c1.71-3.3,3.38-6.52,5.02-9.67c-3.02-8.32-6.02-16.14-9-23.5C130.09,143.9,128.67,146.78,127.18,149.71z M144.41,156.68
	c2.53,6.29,5.08,12.95,7.66,19.98c1.29-2.42,2.55-4.81,3.79-7.14c-2.76-6.78-5.46-13.2-8.13-19.27
	C146.65,152.36,145.55,154.5,144.41,156.68z M86.69,144.17c1.84,7.91,3.59,16.41,5.22,25.57c2.21-4.62,4.37-9.05,6.43-13.33
	c-2.04-8.52-4.16-16.43-6.33-23.79C90.3,136.33,88.53,140.18,86.69,144.17z M256.92,182.01c0.31,0.42,0.61,0.86,0.93,1.28
	c0.03-0.1,0.11-0.18,0.16-0.27c-0.32-0.42-0.64-0.85-0.94-1.28C257.02,181.83,256.97,181.92,256.92,182.01z M74.88,145.73
	c1.51,8.07,2.9,16.77,4.15,26.17c2.44-5.21,4.8-10.19,7.03-14.96c-1.71-8.65-3.54-16.65-5.45-24.07
	C78.79,136.98,76.88,141.26,74.88,145.73z M109.2,184.73c1.98,9.46,3.87,19.67,5.68,30.69c2.4-4.6,4.71-9.06,6.96-13.36
	c-2.24-10.35-4.54-19.94-6.88-28.82C113.09,176.94,111.19,180.77,109.2,184.73z M185.38,220.62c3.34,8.84,6.76,18.18,10.27,28.08
	c1.57-2.7,3.12-5.37,4.58-8.02c-3.7-9.62-7.32-18.68-10.83-27.27C188.08,215.77,186.74,218.18,185.38,220.62z M212.38,239.46
	c3.36,7.98,6.84,16.36,10.4,25.18c1.29-2.13,2.51-4.28,3.74-6.38c-3.69-8.62-7.28-16.82-10.79-24.61
	C214.67,235.57,213.52,237.5,212.38,239.46z M86.48,290.98c0.1,10.15,0.07,20.8-0.06,32c-0.13,11.78-0.46,24.19-0.89,37.27
	c5.95-10.78,11.59-21.05,16.97-30.86c-0.31-11.97-0.68-23.32-1.18-34.11c-0.48-10.26-1.03-20.02-1.69-29.3
	C95.45,273.94,91.07,282.26,86.48,290.98z M150.49,328.08c1.41,10.17,2.78,20.81,4.12,31.96c1.42,11.68,2.81,23.93,4.16,36.79
	c4.37-7.39,8.55-14.6,12.71-21.54c-1.8-12.19-3.64-23.8-5.5-34.86c-1.73-10.57-3.51-20.65-5.27-30.29
	C157.37,315.93,153.98,321.91,150.49,328.08z M84.51,376.1c-0.59,15.6-1.46,32.1-2.5,49.56c-1.11,18.51-2.5,38.15-4.17,59.02
	c8.82-15.3,17.25-29.85,25.27-43.7c0.46-19.08,0.7-37.03,0.75-53.95c0.03-15.96-0.03-31.05-0.32-45.32
	C97.48,352.62,91.17,364.08,84.51,376.1z M108.54,397.15c0.05,13.6-0.04,27.97-0.31,43.18c-0.26,16.11-0.72,33.19-1.31,51.34
	c6.9-11.66,13.57-22.8,19.87-33.54c-0.31-16.82-0.73-32.65-1.3-47.57c-0.48-14.09-1.11-27.41-1.84-40.01
	C118.85,379.07,113.8,387.92,108.54,397.15z M72.26,10.11c-0.42-0.3-0.84-0.57-1.26-0.86c-0.47,0.13-0.95,0.27-1.42,0.4
	c0.76,0.53,1.52,1.05,2.28,1.6C72,10.86,72.13,10.48,72.26,10.11z M65.3,18.74c1.21,1,2.41,2.03,3.62,3.1
	c0.23-0.66,0.46-1.32,0.68-1.96c-1.28-1.08-2.55-2.12-3.82-3.13c-0.16,0.47-0.32,0.96-0.49,1.45C65.3,18.38,65.3,18.56,65.3,18.74z"
	/>
<path class="Colour6 fill" d="M84.93,8.66c0.36,0.23,0.72,0.47,1.08,0.71c-0.04,0.12-0.08,0.24-0.13,0.36c-0.36-0.24-0.72-0.48-1.07-0.71
	C84.85,8.89,84.88,8.77,84.93,8.66z M76.8,9c0.6,0.41,1.2,0.82,1.81,1.24c0.08-0.22,0.16-0.44,0.24-0.66
	c-0.61-0.41-1.22-0.82-1.82-1.22C76.96,8.57,76.88,8.79,76.8,9z M75.35,27.88c1.51,1.44,3.03,2.93,4.56,4.47
	c0.32-0.84,0.64-1.68,0.95-2.5c-1.55-1.5-3.1-2.95-4.63-4.35C75.93,26.28,75.64,27.07,75.35,27.88z M109.51,54.75
	c1.38,1.66,2.77,3.37,4.18,5.13c0.33-0.76,0.68-1.5,1.01-2.24c-1.43-1.72-2.84-3.4-4.25-5.02
	C110.13,53.32,109.83,54.03,109.51,54.75z M90.84,70.08c1.86,3.05,3.72,6.25,5.58,9.61c0.74-1.68,1.46-3.32,2.16-4.93
	c-1.95-3.22-3.9-6.29-5.83-9.21C92.13,67.03,91.49,68.54,90.84,70.08z M186.12,92.96c0.19,0.21,0.38,0.42,0.57,0.64
	c0.02-0.06,0.06-0.12,0.1-0.18c-0.19-0.21-0.38-0.43-0.57-0.64C186.19,92.84,186.15,92.9,186.12,92.96z M114.53,116.56
	c2.2,5.08,4.41,10.45,6.62,16.13c1.17-2.38,2.31-4.7,3.43-6.97c-2.37-5.43-4.73-10.57-7.06-15.44
	C116.54,112.32,115.55,114.42,114.53,116.56z M162.68,164.77c2.64,5.94,5.32,12.17,8.03,18.74c1.11-2.05,2.21-4.07,3.29-6.05
	c-2.83-6.38-5.65-12.44-8.39-18.2C164.65,161.06,163.68,162.9,162.68,164.77z M244.42,263.78c3.37,7.2,6.87,14.7,10.4,22.55
	c1.02-1.69,2.01-3.38,3.01-5.03c-3.63-7.72-7.2-15.09-10.66-22.17C246.27,260.66,245.31,262.19,244.42,263.78z M137.6,246.89
	c2.58,13.49,5.13,28.12,7.57,44c2.98-5.36,5.89-10.56,8.74-15.59c-3-15.06-6.08-28.91-9.1-41.7
	C142.46,237.9,140.07,242.34,137.6,246.89z M177.31,350.58c2.06,11.18,4.09,22.86,6.12,35.08c2.15,12.77,4.32,26.16,6.46,40.19
	c4.31-7.05,8.42-13.99,12.51-20.72c-2.59-13.42-5.15-26.21-7.7-38.41c-2.41-11.69-4.81-22.85-7.19-33.54
	C184.22,338.85,180.83,344.65,177.31,350.58z M120.59,56.32c1.3,1.48,2.6,3.01,3.91,4.57c0.07-0.15,0.13-0.29,0.2-0.44
	c-1.07-1.87-2.08-3.73-3.03-5.58c-0.09-0.1-0.19-0.21-0.28-0.32C121.12,55.14,120.86,55.73,120.59,56.32z M66.69,31.87
	c-0.47-0.49-0.93-0.96-1.4-1.44c0,1.7,0,3.37-0.01,5c0.04,0.04,0.07,0.08,0.11,0.12C65.84,34.3,66.27,33.07,66.69,31.87z"/>
<path class="Colour5 fill" d="M68.71,26.05c1.55,1.45,3.11,2.97,4.68,4.54c-0.34,0.93-0.69,1.88-1.04,2.84c-1.53-1.63-3.06-3.2-4.58-4.7
	C68.09,27.82,68.41,26.93,68.71,26.05z M70.22,40.78c1.57,1.88,3.14,3.86,4.71,5.92c0.46-1.21,0.92-2.4,1.36-3.56
	c-1.63-1.98-3.25-3.87-4.86-5.68C71.02,38.55,70.63,39.65,70.22,40.78z M79.7,53.58c1.98,2.76,3.95,5.66,5.94,8.7
	c0.68-1.64,1.34-3.26,1.98-4.84c-2.06-2.91-4.11-5.69-6.16-8.34C80.89,50.57,80.3,52.06,79.7,53.58z M71.19,54.7
	c1.97,2.93,3.93,6.02,5.89,9.27c0.75-1.91,1.5-3.76,2.22-5.58c-2.06-3.09-4.11-6.03-6.17-8.81C72.49,51.25,71.85,52.95,71.19,54.7z
	 M126.67,94.34c2.05,3.45,4.14,7.04,6.25,10.79c0.71-1.45,1.41-2.88,2.1-4.28c-2.17-3.64-4.33-7.13-6.44-10.48
	C127.95,91.68,127.31,93,126.67,94.34z M91.51,90.27c1.87,3.94,3.73,8.11,5.58,12.52c1-2.2,1.96-4.34,2.91-6.43
	c-1.99-4.19-3.98-8.15-5.97-11.89C93.21,86.36,92.37,88.29,91.51,90.27z M71.06,92.26c1.92,4.96,3.8,10.25,5.6,15.91
	c1.43-3.35,2.81-6.57,4.14-9.68c-2.04-5.27-4.13-10.21-6.26-14.82C73.42,86.42,72.26,89.29,71.06,92.26z M78.6,114.78
	c2.01,6.64,4,13.74,5.86,21.35c1.88-4.17,3.72-8.17,5.48-12.04c-2.19-7.09-4.46-13.7-6.76-19.88
	C81.71,107.61,80.17,111.13,78.6,114.78z M68.32,117.27c1.77,6.76,3.41,14.04,4.97,21.84c2.07-4.68,4.06-9.16,5.96-13.46
	c-1.93-7.19-3.94-13.89-6.02-20.12C71.65,109.29,70.02,113.2,68.32,117.27z M201.24,150.25c1.68,2.63,3.4,5.32,5.13,8.08
	c0.4-0.72,0.8-1.44,1.2-2.16c-1.75-2.73-3.48-5.39-5.19-8C202,148.87,201.61,149.55,201.24,150.25z M99.41,144.59
	c2.08,7.5,4.08,15.55,6.03,24.18c1.96-3.95,3.84-7.79,5.68-11.49c-2.28-8.11-4.58-15.68-6.94-22.73
	C102.64,137.79,101.05,141.13,99.41,144.59z M142.48,196.06c2.84,9.71,5.69,20.09,8.56,31.2c2.09-3.77,4.04-7.5,6.05-11.09
	c-3.2-10.62-6.35-20.55-9.46-29.84C145.94,189.5,144.23,192.74,142.48,196.06z M270.59,231.73c1.5,2.44,3.04,4.9,4.58,7.42
	c0.34-0.48,0.58-1.02,0.9-1.51c-1.55-2.5-3.09-4.96-4.61-7.38C271.15,230.74,270.85,231.23,270.59,231.73z M105.5,297.94
	c0.54,10.21,0.98,20.93,1.32,32.19c0.34,11.82,0.61,24.26,0.78,37.35c5.39-9.62,10.57-18.85,15.58-27.68
	c-0.84-12.14-1.67-23.67-2.6-34.63c-0.91-10.44-1.84-20.38-2.87-29.85C113.85,282.58,109.74,290.09,105.5,297.94z M135.02,422.62
	c0.62,13.39,1.15,27.54,1.58,42.5c0.48,15.84,0.77,32.64,1.06,50.49c6.06-9.99,11.91-19.62,17.55-28.92
	c-1.08-16.73-2.07-32.49-3.28-47.33c-1.09-14.03-2.23-27.29-3.42-39.84C144.13,406.93,139.7,414.66,135.02,422.62z M69.2,44.61
	c-1.3-1.68-2.61-3.27-3.91-4.83c0,2.19-0.01,4.3-0.01,6.36c0.74,1,1.49,2.02,2.23,3.07C68.09,47.63,68.64,46.1,69.2,44.61z"/>
<g>
	<path class="Colour2 fill" d="M84,27.72c1.13,1.03,2.26,2.1,3.4,3.2c0.22-0.56,0.43-1.11,0.65-1.66c-1.15-1.07-2.3-2.11-3.44-3.13
		C84.41,26.66,84.21,27.19,84,27.72z"/>
	<path class="Colour2 fill" d="M86.85,39.48c1.46,1.6,2.93,3.25,4.41,4.97c0.35-0.87,0.7-1.72,1.05-2.56c-1.51-1.67-3-3.28-4.49-4.83
		C87.49,37.85,87.17,38.66,86.85,39.48z"/>
	<path class="Colour2 fill" d="M114.23,92.09c1.93,3.44,3.85,7.05,5.8,10.83c0.76-1.59,1.51-3.15,2.24-4.69
		c-2.03-3.65-4.04-7.14-6.04-10.46C115.57,89.19,114.91,90.63,114.23,92.09z"/>
	<path class="Colour2 fill" d="M216.81,129.44c0.25,0.31,0.5,0.62,0.75,0.93c0.05-0.07,0.08-0.16,0.13-0.23
		c-0.25-0.31-0.49-0.63-0.75-0.93C216.89,129.29,216.87,129.38,216.81,129.44z"/>
	<path class="Colour2 fill" d="M128.29,119.73c2.27,4.74,4.53,9.74,6.82,14.99c1.01-2.01,2-3.99,2.99-5.92
		c-2.43-5.06-4.79-9.89-7.16-14.46C130.08,116.11,129.19,117.9,128.29,119.73z"/>
	<path class="Colour2 fill" d="M101.23,114.13c2.39,6.12,4.77,12.62,7.14,19.51c1.52-3.16,2.99-6.23,4.42-9.22
		c-2.58-6.55-5.17-12.72-7.75-18.52C103.8,108.57,102.53,111.31,101.23,114.13z"/>
	<path class="Colour2 fill" d="M143.57,124.57c2.18,4.24,4.39,8.68,6.65,13.32c0.84-1.62,1.66-3.22,2.48-4.79
		c-2.34-4.5-4.63-8.82-6.9-12.94C145.08,121.61,144.33,123.08,143.57,124.57z"/>
	<path class="Colour2 fill" d="M179.36,139.32c2.01,3.38,4.07,6.86,6.15,10.45c0.57-1.04,1.15-2.06,1.68-3.1
		c-2.12-3.54-4.24-6.95-6.27-10.28C180.39,137.35,179.88,138.33,179.36,139.32z"/>
	<path class="Colour2 fill" d="M226.82,164.31c1.1,1.58,2.18,3.19,3.28,4.82c0.23-0.38,0.44-0.77,0.65-1.15c-1.11-1.62-2.2-3.22-3.3-4.79
		C227.25,163.56,227.04,163.94,226.82,164.31z"/>
	<path class="Colour2 fill" d="M183.58,175.64c2.6,5.37,5.26,10.96,7.97,16.81c0.94-1.64,1.83-3.28,2.72-4.89
		c-2.79-5.72-5.53-11.2-8.22-16.44C185.24,172.61,184.41,174.12,183.58,175.64z"/>
	<path class="Colour2 fill" d="M236.21,208.01c2.14,3.73,4.31,7.55,6.52,11.49c0.55-0.87,1.03-1.78,1.55-2.66
		c-2.24-3.89-4.44-7.68-6.61-11.36C237.19,206.32,236.7,207.17,236.21,208.01z"/>
	<path class="Colour2 fill" d="M125.03,189.13c2.4,9.56,4.75,19.83,7.09,30.86c2.23-4.16,4.39-8.21,6.48-12.15
		c-2.71-10.47-5.41-20.2-8.13-29.26C128.71,182,126.9,185.52,125.03,189.13z"/>
	<path class="Colour2 fill" d="M79.55,180.21c1.52,12.24,2.8,25.53,3.83,39.96c3.67-7.36,7.15-14.41,10.49-21.14
		c-1.79-13.26-3.74-25.46-5.88-36.7C85.31,168.03,82.5,173.99,79.55,180.21z"/>
	<path class="Colour2 fill" d="M162,205.83c3.36,9.92,6.74,20.48,10.15,31.74c1.94-3.44,3.85-6.8,5.66-10.14
		c-3.68-10.86-7.33-21.04-10.91-30.6C165.3,199.78,163.68,202.78,162,205.83z"/>
	<path class="Colour2 fill" d="M126.62,310.23c0.94,10.14,1.85,20.76,2.7,31.91c0.87,11.69,1.69,23.98,2.45,36.9
		c4.86-8.4,9.51-16.54,14.04-24.37c-1.31-12.11-2.63-23.63-4.01-34.59c-1.32-10.45-2.67-20.41-4.03-29.92
		C134.15,296.61,130.48,303.32,126.62,310.23z"/>
	<path class="Colour2 fill" d="M70.97,59.84c-1.86-2.99-3.72-5.81-5.59-8.48c-0.04,0.11-0.08,0.23-0.12,0.34
		c-0.01,2.78-0.01,5.45-0.02,7.97c1.17,1.95,2.33,3.94,3.48,6.03C69.5,63.69,70.25,61.73,70.97,59.84z"/>
	<path class="Colour2 fill" d="M72.01,78.3c-1.94-4.09-3.93-7.93-5.93-11.54c-0.29,0.76-0.58,1.55-0.88,2.33
		c-0.02,3.19-0.04,6.13-0.07,8.83c1.23,2.71,2.44,5.53,3.63,8.48C69.88,83.61,70.97,80.91,72.01,78.3z"/>
	<path class="Colour2 fill" d="M71.68,100.86c-1.95-5.64-3.96-10.92-6.03-15.84c-0.21,0.53-0.42,1.09-0.63,1.63
		c-0.12,6.61-0.31,11.07-0.59,13.69c-0.08,0.72-0.16,1.5-0.25,2.31c0.95,3.09,1.88,6.28,2.77,9.6
		C68.6,108.3,70.18,104.5,71.68,100.86z"/>
	<g>
		<path class="Colour2 fill" d="M93.94,606.01c1.79-27.49,3.3-53.07,4.41-76.9c1.08-22.25,1.88-43.06,2.42-62.57
			c-7.57,13.11-15.64,26.82-24.02,41.29c-1.83,21.35-3.97,44.13-6.49,68.48c-1.31,12.82-2.88,26.07-4.31,39.83
			c-0.68,5.73-1.36,11.57-2.05,17.47c3.97,0.61,8,1.2,12.1,1.76C82.14,625.31,88.13,615.53,93.94,606.01z"/>
	</g>
</g>
<path class="Colour4 fill" d="M80.75,16.3c1.03,0.79,2.07,1.6,3.11,2.42c-0.16,0.43-0.32,0.86-0.49,1.29c-1.03-0.84-2.06-1.66-3.09-2.46
	C80.45,17.14,80.6,16.72,80.75,16.3z M92.53,27.77c1.07,0.95,2.14,1.93,3.22,2.92c0.19-0.47,0.38-0.94,0.57-1.41
	c-1.09-0.98-2.17-1.94-3.25-2.87C92.89,26.86,92.71,27.31,92.53,27.77z M105.73,40.36c1.23,1.23,2.46,2.51,3.7,3.81
	c0.24-0.57,0.48-1.13,0.73-1.69c-1.25-1.28-2.5-2.53-3.75-3.75C106.18,39.27,105.97,39.82,105.73,40.36z M95.92,39.62
	c1.39,1.46,2.79,2.95,4.19,4.5c0.3-0.73,0.6-1.44,0.9-2.15c-1.42-1.51-2.84-2.98-4.25-4.4C96.49,38.24,96.2,38.92,95.92,39.62z
	 M77.83,39.64c1.78,2.04,3.56,4.15,5.35,6.35c0.47-1.2,0.94-2.38,1.39-3.54c-1.84-2.12-3.67-4.17-5.49-6.13
	C78.67,37.4,78.25,38.51,77.83,39.64z M100.85,70.23c1.97,3.01,3.93,6.18,5.92,9.47c0.69-1.52,1.36-3,2.01-4.47
	c-2.07-3.18-4.1-6.22-6.13-9.14C102.06,67.44,101.48,68.83,100.85,70.23z M80.88,70.35c2.01,3.56,4.03,7.31,6.03,11.27
	c0.91-2.15,1.8-4.23,2.67-6.27c-2.13-3.77-4.25-7.34-6.37-10.72C82.45,66.5,81.67,68.4,80.88,70.35z M71.82,71.72
	c1.97,3.77,3.92,7.76,5.85,11.99c1.03-2.49,2.02-4.9,2.99-7.24c-2.07-3.99-4.16-7.76-6.27-11.3C73.55,67.29,72.71,69.47,71.82,71.72
	z M102.28,90.51c2,3.86,3.99,7.93,5.99,12.21c0.91-1.96,1.81-3.88,2.68-5.76c-2.11-4.11-4.22-8-6.32-11.7
	C103.87,86.97,103.08,88.72,102.28,90.51z M173.96,110.03c1.41,1.96,2.84,3.95,4.27,6c0.32-0.61,0.64-1.21,0.96-1.81
	c-1.45-2.02-2.89-4-4.31-5.94C174.56,108.86,174.26,109.45,173.96,110.03z M193.79,118.54c0.98,1.29,1.97,2.59,2.96,3.92
	c0.19-0.36,0.38-0.72,0.58-1.07c-1-1.32-2-2.61-2.98-3.9C194.16,117.84,193.99,118.2,193.79,118.54z M90.29,114.56
	c1.92,5.49,3.81,11.35,5.64,17.6c1.45-3.13,2.88-6.16,4.25-9.09c-2.08-5.88-4.17-11.4-6.29-16.56
	C92.73,109.11,91.54,111.8,90.29,114.56z M207.79,189.83c2.44,4.6,4.92,9.38,7.45,14.32c0.71-1.26,1.41-2.5,2.12-3.73
	c-2.59-4.86-5.13-9.55-7.61-14.08C209.11,187.49,208.44,188.65,207.79,189.83z M94.38,182.22c1.63,9.84,3.15,20.48,4.5,32.01
	c2.7-5.33,5.31-10.45,7.82-15.37c-1.88-10.72-3.87-20.61-5.93-29.75C98.72,173.32,96.6,177.69,94.38,182.22z M100.84,231.66
	c1.46,13.79,2.71,28.82,3.74,45.27c3.69-6.9,7.22-13.53,10.64-19.89c-1.79-15.26-3.75-29.22-5.84-42.01
	C106.66,220.37,103.79,225.9,100.84,231.66z M84.88,229.37c0.85,13.65,1.49,28.57,1.74,44.93c4.02-7.63,7.81-14.93,11.45-21.89
	c-1.14-15-2.54-28.69-4.12-41.19C91.05,217,88.04,223.05,84.88,229.37z M117.98,236.82c2.13,14.26,4.11,29.79,5.93,46.7
	c3.49-6.36,6.88-12.51,10.12-18.46c-2.55-15.87-5.14-30.44-7.82-43.82C123.54,226.26,120.81,231.45,117.98,236.82z M158.44,258.46
	c3.51,14.97,7.02,31.13,10.57,48.59c3.04-5.23,5.97-10.35,8.82-15.36c-4.08-16.7-8.06-32.15-12.01-46.46
	C163.43,249.54,160.94,253.93,158.44,258.46z M183.77,277.28c4,14.42,8.1,29.92,12.29,46.6c2.59-4.46,5.23-8.76,7.67-13.06
	c-4.6-16.08-9.1-31.02-13.45-44.92C188.18,269.63,186,273.42,183.77,277.28z M214.41,303.61c4.17,12.89,8.49,26.66,12.9,41.43
	c2.05-3.48,4.12-6.87,6.15-10.21c-4.72-14.34-9.32-27.71-13.74-40.23C217.98,297.55,216.22,300.56,214.41,303.61z M73.01,500.86
	c1.96-21.64,3.5-41.91,4.73-60.92c-8.25,14.64-17.02,30.1-26.32,46.49c-2.64,21.13-5.73,43.67-9.33,67.73
	c-1.84,12.67-3.86,25.79-6.01,39.37c-1.69,11.05-3.58,22.41-5.51,34.09c1.24,0.25,2.49,0.51,3.74,0.76
	c11.02-18.48,21.42-36.07,31.35-52.77C68.52,548.9,71.02,524.05,73.01,500.86z"/>
<path class="st0" d="M227.31-0.43c13.84,3.76,27.69,7.53,41.53,11.29c-0.2,6.16-2.97,100.85,9.52,132.91
	c2.79,7.17,9.01,23.15,20.77,25.19c2.22,0.39,4.1,0.18,5.19,0c-3.61,8.71-8.5,21.51-12.98,37.35
	c-18.44,65.18-12.74,120.54,2.6,211.1c10.91,64.39,24.26,132.3,40.67,203.28c-41.5,10.53-96.29,20.27-160.94,20.85
	c-70.25,0.63-129.39-9.77-173.06-20.85c1.82-7.43,42.42-174.64,50.19-289.28c3.36-49.63,0.53-88.77-10.38-128.57
	c-3.93-14.34-8.14-25.96-11.25-33.88c1.64,0.07,4.12-0.01,6.92-0.87c22.03-6.76,26.74-50.8,28.55-67.76
	c0.79-7.35,0.82-29.03,0.87-72.1c0.01-7.33,0-13.37,0-17.37C78.77,7.1,92.03,3.33,105.3-0.43c2.1,17.98,9.02,53.37,36.34,84.26
	c8.08,9.14,16.48,16.23,24.23,21.72c7.76-5.52,16.14-12.62,24.23-21.72C217.47,53.05,224.91,17.9,227.31-0.43z"/>
<path class="st0" d="M98.67,1.45c1.6,14.45,6.57,41.47,24.8,69.35c14.38,22.01,31.28,35.76,42.4,43.44
	c11.12-7.34,27.93-20.47,42.4-41.7C227.72,44,232.69,15.88,234.22,1.45"/>
<path class="st0" d="M72.2,8.96c-0.17,8.95-0.45,25.06-0.65,45.34c-0.34,36.5-0.09,54.28-6.06,78.18
	c-5.05,20.23-11.57,32.87-23.36,39.09c-4,2.11-7.74,3.03-10.38,3.47"/>
<path class="st0" d="M262.78,9.13c-0.25,7.48-2.8,92.53,8.76,131.73c2.66,9.02,8.04,27.27,22.39,32.46
	c3.28,1.18,6.21,1.39,8.06,1.41"/>
<path class="st0" d="M107.61,14.02c8.95,5.27,30.13,16.11,59.12,15.96c28.27-0.15,48.92-10.69,57.87-15.96"/>
<path class="st0" d="M109.45,22c10.2,5.01,29.77,12.96,55.56,13.19c27.06,0.24,47.57-8.13,57.87-13.19"/>
<g>
	<rect x="109.19" y="214.75" class="st1" width="32.02" height="12.16"/>
	<rect x="193.99" y="214.75" class="st1" width="32.02" height="12.16"/>
	<rect x="194.07" y="322.38" class="st1" width="32.02" height="12.16"/>
	<rect x="109.28" y="322.38" class="st1" width="32.02" height="12.16"/>
	<rect x="109.28" y="310.22" class="st1" width="32.02" height="12.16"/>
	<rect x="193.99" y="310.22" class="st1" width="32.02" height="12.16"/>
</g>
<path class="SidePanels fill" d="M301.69,174.71c-1.86-0.03-4.66-0.28-7.76-1.4c-9.9-3.58-15.54-13.39-18.95-22.09l-0.17,0.72
	c-24,82.72-27.43,150.88-26.31,196.53c1.43,58.03,10.92,107.82,21.63,163.97c9.24,48.44,26.82,116.68,26.82,116.68
	c13.53-2.63,26.1-5.5,37.64-8.42c-16.41-70.98-29.76-138.88-40.67-203.28c-15.34-90.56-21.04-145.91-2.6-211.1
	c3.56-12.57,10.64-31.55,10.66-31.6L301.69,174.71z"/>
<path class="SidePanels fill" d="M31.75,175.05c2.64-0.44,6.39-1.36,10.38-3.47c8.11-4.28,13.72-11.59,18.08-22.32l0.18,0.72
	c26.13,99.49,26.19,177.68,21.97,228.53c-3.4,40.92-11.35,85.72-16.44,114.38c-9.91,55.82-29.5,135.87-29.5,135.87
	c-12.88-2.54-24.84-5.28-35.83-8.07c1.82-7.43,42.42-174.64,50.19-289.28c3.36-49.63,0.53-88.77-10.38-128.57
	c-3.02-11.02-6.21-20.43-8.93-27.8L31.75,175.05z"/>
<g>
	<path class="st2" d="M34.62,628.25c0.81,0.16,1.61,0.33,2.42,0.49"/>
	<path class="st2" d="M33.19,177.73c0.06,0.17,0.12,0.35,0.18,0.52"/>
	<path class="st2" d="M29.87,627.28c0.8,0.17,1.59,0.33,2.4,0.5"/>
	<path class="st2" d="M331.18,621.74c-0.45,0.11-0.91,0.22-1.37,0.33"/>
	<path class="st2" d="M34.2,180.57c0.06,0.19,0.13,0.37,0.19,0.55"/>
	<path class="st2" d="M16.12,624.26c0.79,0.18,1.57,0.36,2.37,0.55"/>
	<path class="st2" d="M25.16,626.28c0.81,0.18,1.62,0.35,2.44,0.52"/>
	<path class="st2" d="M35.35,183.91c0.08,0.23,0.15,0.46,0.23,0.69"/>
	<path class="st2" d="M326.93,622.77c-0.56,0.13-1.13,0.27-1.69,0.4"/>
	<path class="st2" d="M20.53,625.26c0.82,0.18,1.64,0.37,2.47,0.55"/>
	<path class="st2" d="M304.14,627.83c-0.62,0.13-1.23,0.25-1.85,0.38"/>
	<path class="st2" d="M299.02,628.86c1.1-0.22,2.19-0.43,3.27-0.65"/>
	<path class="st2" d="M304.14,627.83c0.96-0.2,1.92-0.39,2.87-0.59"/>
	<path class="st2" d="M308.94,626.84c0.91-0.19,1.82-0.39,2.72-0.58"/>
	<path class="st2" d="M318.14,624.82c0.87-0.2,1.74-0.4,2.61-0.6"/>
	<path class="st2" d="M297.71,629.12c0.44-0.09,0.87-0.17,1.31-0.26"/>
	<path class="st2" d="M313.6,625.83c0.88-0.19,1.76-0.39,2.64-0.58"/>
	<path class="st2" d="M318.14,624.82c-0.63,0.14-1.27,0.29-1.91,0.43"/>
	<path class="st2" d="M313.6,625.83c-0.64,0.14-1.28,0.28-1.93,0.42"/>
	<path class="st2" d="M11.79,623.25c0.76,0.18,1.51,0.36,2.28,0.54"/>
	<path class="st2" d="M308.94,626.84c-0.64,0.14-1.28,0.27-1.93,0.41"/>
	<path class="st2" d="M322.59,623.8c-0.61,0.14-1.22,0.28-1.84,0.42"/>
	<path class="st2" d="M7.42,622.2c0.77,0.19,1.53,0.38,2.31,0.56"/>
	<path class="st2" d="M37.17,628.76c-0.04-0.01-0.09-0.02-0.13-0.03"/>
	<path class="st2" d="M29.87,627.28c-0.76-0.16-1.53-0.32-2.28-0.48"/>
	<path class="st2" d="M33.19,177.73c-0.31-0.86-0.61-1.69-0.91-2.5"/>
	<path class="st2" d="M34.62,628.25c-0.78-0.16-1.57-0.31-2.35-0.47"/>
	<path class="st2" d="M34.2,180.57c-0.28-0.79-0.55-1.57-0.82-2.32"/>
	<path class="st2" d="M40.13,199.22c-0.08-0.28-0.16-0.55-0.24-0.82"/>
	<path class="st2" d="M35.35,183.91c-0.32-0.95-0.64-1.88-0.96-2.79"/>
	<path class="st2" d="M36.44,187.18c-0.29-0.88-0.57-1.74-0.86-2.59"/>
	<path class="st2" d="M38.77,194.61c-0.31-1.02-0.62-2.02-0.92-3.01"/>
	<path class="st2" d="M39.89,198.39c-0.34-1.16-0.67-2.3-1.01-3.42"/>
	<path class="st2" d="M25.16,626.28c-0.72-0.16-1.44-0.31-2.16-0.47"/>
	<path class="st2" d="M37.6,190.81c0.08,0.26,0.17,0.53,0.25,0.8"/>
	<path class="st2" d="M1.35,620.69c1.37,0.35,2.75,0.69,4.15,1.04"/>
	<path class="st2" d="M36.44,187.18c0.06,0.18,0.12,0.35,0.18,0.53"/>
	<path class="st2" d="M7.42,622.2c-0.64-0.16-1.29-0.31-1.93-0.47"/>
	<path class="st2" d="M20.53,625.26c-0.68-0.15-1.36-0.3-2.04-0.45"/>
	<path class="st2" d="M11.79,623.25c-0.69-0.16-1.38-0.32-2.06-0.49"/>
	<path class="st2" d="M38.77,194.61c0.04,0.12,0.07,0.24,0.11,0.36"/>
	<path class="st2" d="M16.12,624.26c-0.68-0.16-1.37-0.31-2.05-0.47"/>
	<path class="st2" d="M44.58,397.07c0.4-2.97,0.8-5.93,1.18-8.88"/>
	<path class="st2" d="M11.35,577.39c0.17-0.77,0.34-1.55,0.52-2.34"/>
	<path class="st2" d="M48.54,364.87c-0.21,1.92-0.42,3.84-0.64,5.77"/>
	<path class="st2" d="M37.6,190.81c-0.33-1.05-0.66-2.08-0.99-3.09"/>
	<path class="st2" d="M32.2,474.27c3.85-21.27,7.54-43.39,10.71-65.29"/>
	<path class="st2" d="M43.34,406c0.43-2.98,0.84-5.96,1.25-8.93"/>
	<path class="st2" d="M297.71,629.12c-35.1,6.82-76.63,12.01-123.3,12.43c-52.58,0.47-98.93-5.24-137.23-12.78"/>
	<path class="st2" d="M51.69,263.44c0.21,2.68,0.39,5.39,0.55,8.12"/>
	<path class="st2" d="M51.69,263.44c-1.65-20.96-5.09-40.7-10.54-60.59c-0.34-1.23-0.68-2.44-1.02-3.63"/>
	<path class="st2" d="M30.08,485.78c0.53-2.85,1.06-5.73,1.59-8.62"/>
	<path class="st2" d="M52.24,271.56c1.05,18.57,0.76,38.22-0.71,59.86c-0.67,9.85-1.58,20.09-2.68,30.59"/>
	<path class="st2" d="M282.25,328.02c2.28,26.43,6.67,55.44,12.42,89.4c10.91,64.39,24.26,132.3,40.67,203.28"/>
	<path class="st2" d="M11.35,577.39c-4.92,22.2-8.61,37.58-9.72,42.15"/>
	<path class="st2" d="M16.47,553.83c-0.33,1.54-0.65,3.06-0.98,4.57"/>
	<path class="st2" d="M17.46,549.15c0.33-1.58,0.67-3.18,1.01-4.79"/>
	<path class="st2" d="M21.57,529.37c-0.35,1.71-0.7,3.41-1.04,5.09"/>
	<path class="st2" d="M13.05,569.65c0.05-0.25,0.11-0.5,0.16-0.75"/>
	<path class="st2" d="M302.71,174.79c0.83-2.1,1.62-4.05,2.35-5.82c-1.09,0.18-2.97,0.39-5.19,0
		c-11.75-2.05-17.97-18.02-20.77-25.19c-12.48-32.06-9.72-126.75-9.52-132.91C255.74,7.1,241.9,3.33,228.05-0.43
		c-2.39,18.33-9.83,53.47-37.21,84.26c-8.08,9.09-16.47,16.19-24.23,21.72c-7.75-5.49-16.15-12.58-24.23-21.72
		c-27.32-30.9-34.24-66.28-36.34-84.26C92.78,3.33,79.51,7.1,66.24,10.86c0,4,0.01,10.04,0,17.37c-0.04,43.07-0.08,64.76-0.87,72.1
		c-1.81,16.96-6.52,61-28.55,67.76c-2.8,0.86-5.28,0.93-6.92,0.87c0.74,1.88,1.54,3.98,2.38,6.26"/>
	<path class="st2" d="M16.47,553.83c0.33-1.54,0.66-3.1,0.99-4.68"/>
	<path class="st2" d="M24.21,516.26c0.71-3.57,1.42-7.19,2.13-10.85"/>
	<path class="st2" d="M26.88,502.65c1.07-5.53,2.14-11.16,3.2-16.87"/>
	<path class="st2" d="M22.62,524.19c0.53-2.61,1.06-5.26,1.59-7.93"/>
	<path class="st2" d="M14.06,565.02c-0.28,1.31-0.57,2.6-0.85,3.88"/>
	<path class="st2" d="M13.05,569.65c-0.4,1.84-0.8,3.64-1.19,5.4"/>
	<path class="st2" d="M322.59,623.8c0.89-0.21,1.77-0.42,2.65-0.62"/>
	<path class="st2" d="M331.18,621.74c1.4-0.35,2.79-0.69,4.17-1.04"/>
	<path class="st2" d="M326.93,622.77c0.97-0.23,1.93-0.47,2.88-0.7"/>
	<path class="st2" d="M281.73,321.46c-3.04-41.2-0.6-76.44,10.35-115.14c0.13-0.46,0.26-0.91,0.39-1.37"/>
	<path class="st2" d="M302.71,174.79c-3.12,7.93-6.78,18.14-10.24,30.16"/>
	<path class="st2" d="M325.23,623.18c-0.88,0.21-1.76,0.42-2.65,0.62"/>
	<path class="st2" d="M302.71,174.79c-0.45,1.21-6.7,18.07-10.24,30.16"/>
	<path class="st2" d="M325.23,623.18c0.56-0.13,1.13-0.27,1.69-0.4"/>
	<path class="st2" d="M302.29,628.21c-1.08,0.22-2.18,0.43-3.27,0.65"/>
	<path class="st2" d="M311.67,626.25c0.65-0.14,1.29-0.28,1.93-0.42"/>
	<path class="st2" d="M329.81,622.07c0.45-0.11,0.92-0.22,1.37-0.33"/>
	<path class="st2" d="M307.01,627.24c0.65-0.14,1.29-0.27,1.93-0.41"/>
	<path class="st2" d="M302.29,628.21c0.62-0.12,1.23-0.25,1.85-0.38"/>
	<path class="st2" d="M297.71,629.12L297.71,629.12c0.44-0.08,0.87-0.17,1.31-0.26"/>
	<path class="st2" d="M335.35,620.69c-1.37,0.35-2.76,0.7-4.17,1.04"/>
	<path class="st2" d="M282.25,328.02c2.28,26.43,6.67,55.44,12.42,89.4c10.91,64.39,24.26,132.3,40.67,203.28"/>
	<path class="st2" d="M320.75,624.22c-0.86,0.2-1.73,0.4-2.61,0.6"/>
	<path class="st2" d="M302.71,174.79c0.02-0.04,0.03-0.07,0.03-0.07l-0.3,0c-1.86-0.03-4.66-0.28-7.76-1.4
		c-9.9-3.58-15.54-13.39-18.95-22.09l-0.17,0.72c-24,82.72-27.43,150.88-26.31,196.53c1.43,58.03,10.92,107.82,21.63,163.97
		c9.23,48.42,26.81,116.62,26.82,116.68"/>
	<path class="st2" d="M307.01,627.24c-0.95,0.2-1.91,0.39-2.87,0.59"/>
	<path class="st2" d="M316.24,625.25c0.64-0.14,1.27-0.29,1.91-0.43"/>
	<path class="st2" d="M329.81,622.07c-0.96,0.23-1.92,0.47-2.88,0.7"/>
	<path class="st2" d="M320.75,624.22c0.61-0.14,1.23-0.28,1.84-0.42"/>
	<path class="st2" d="M311.67,626.25c-0.9,0.19-1.81,0.39-2.72,0.58"/>
	<path class="st2" d="M281.73,321.46c-3.04-41.2-0.6-76.44,10.35-115.14c0.13-0.45,0.26-0.91,0.39-1.37"/>
	<path class="st2" d="M316.24,625.25c-0.87,0.2-1.75,0.39-2.64,0.58"/>
	<path class="st2" d="M282.25,328.02c-0.19-2.2-0.36-4.39-0.52-6.56"/>
	<path class="st2" d="M38.88,194.97c-0.04-0.12-0.07-0.24-0.11-0.36"/>
	<path class="st2" d="M11.87,575.05c0.39-1.76,0.78-3.56,1.19-5.4"/>
	<path class="st2" d="M37.85,191.6c-0.08-0.27-0.17-0.53-0.25-0.8"/>
	<path class="st2" d="M1.63,619.54c1.11-4.57,4.8-19.95,9.72-42.15"/>
	<path class="st2" d="M40.13,199.22c-0.08-0.28-0.16-0.55-0.24-0.82"/>
	<path class="st2" d="M47.9,370.64c0.22-1.93,0.43-3.86,0.64-5.77"/>
	<path class="st2" d="M33.38,178.25c0.27,0.76,0.55,1.53,0.82,2.32"/>
	<path class="st2" d="M34.4,181.12c0.32,0.91,0.63,1.84,0.96,2.79"/>
	<path class="st2" d="M51.69,263.44c0.21,2.68,0.39,5.39,0.55,8.12"/>
	<path class="st2" d="M32.28,175.23c0.3,0.81,0.6,1.64,0.91,2.5"/>
	<path class="st2" d="M35.58,184.6c0.28,0.85,0.57,1.71,0.86,2.59"/>
	<path class="st2" d="M37.85,191.6c0.31,0.99,0.62,1.99,0.92,3.01"/>
	<path class="st2" d="M20.52,534.47c0.35-1.68,0.69-3.38,1.04-5.09"/>
	<path class="st2" d="M30.08,485.78c0.53-2.85,1.06-5.73,1.59-8.62"/>
	<path class="st2" d="M38.88,194.97c0.34,1.12,0.67,2.26,1.01,3.42"/>
	<path class="st2" d="M36.62,187.72c0.33,1.01,0.66,2.04,0.99,3.09"/>
	<path class="st2" d="M13.22,568.9c0.28-1.28,0.56-2.57,0.85-3.88"/>
	<path class="st2" d="M15.49,558.4c0.32-1.5,0.65-3.02,0.98-4.57"/>
	<path class="st2" d="M13.22,568.9c-0.05,0.25-0.11,0.5-0.16,0.75"/>
	<path class="st2" d="M45.76,388.19c-0.38,2.95-0.77,5.91-1.18,8.88"/>
	<path class="st2" d="M11.87,575.05c-0.17,0.79-0.35,1.57-0.52,2.34"/>
	<path class="st2" d="M44.58,397.07c-0.4,2.97-0.82,5.95-1.25,8.93"/>
	<path class="st2" d="M52.24,271.56c1.05,18.57,0.76,38.22-0.71,59.86c-0.67,9.85-1.58,20.09-2.68,30.59"/>
	<path class="st2" d="M32.28,627.78c0.78,0.16,1.56,0.31,2.35,0.47"/>
	<path class="st2" d="M32.28,175.23c-0.02-0.06-0.04-0.12-0.07-0.18l0.28,0c2.64-0.44,6.39-1.36,10.38-3.47
		c8.11-4.28,13.72-11.59,18.08-22.32l0.18,0.72c26.13,99.49,26.19,177.68,21.97,228.53c-3.4,40.92-11.35,85.72-16.44,114.38
		c-9.91,55.81-29.49,135.83-29.5,135.86"/>
	<path class="st2" d="M37.04,628.74c0.04,0.01,0.09,0.02,0.13,0.03l0,0"/>
	<path class="st2" d="M36.62,187.72c-0.06-0.18-0.12-0.35-0.18-0.53"/>
	<path class="st2" d="M40.13,199.22c0.34,1.19,0.68,2.4,1.02,3.63c5.46,19.9,8.89,39.63,10.54,60.59"/>
	<path class="st2" d="M24.21,516.26c-0.53,2.67-1.06,5.32-1.59,7.93"/>
	<path class="st2" d="M17.46,549.15c-0.33,1.58-0.66,3.14-0.99,4.68"/>
	<path class="st2" d="M26.34,505.41c-0.71,3.66-1.43,7.28-2.13,10.85"/>
	<path class="st2" d="M42.91,408.99c-3.17,21.89-6.86,44.01-10.71,65.29"/>
	<path class="st2" d="M30.08,485.78c-1.06,5.71-2.13,11.34-3.2,16.87"/>
	<path class="st2" d="M27.59,626.8c0.75,0.16,1.52,0.32,2.28,0.48"/>
	<path class="st2" d="M9.74,622.77c0.68,0.16,1.37,0.32,2.06,0.49"/>
	<path class="st2" d="M27.59,626.8c-0.82-0.17-1.62-0.35-2.44-0.52"/>
	<path class="st2" d="M23,625.81c-0.83-0.18-1.65-0.37-2.47-0.55"/>
	<path class="st2" d="M18.49,624.81c-0.8-0.18-1.58-0.36-2.37-0.55"/>
	<path class="st2" d="M35.58,184.6c-0.08-0.23-0.15-0.46-0.23-0.69"/>
	<path class="st2" d="M37.04,628.74c-0.81-0.16-1.61-0.32-2.42-0.49"/>
	<path class="st2" d="M33.38,178.25c-0.06-0.17-0.12-0.35-0.18-0.52"/>
	<path class="st2" d="M14.07,623.79c-0.77-0.18-1.52-0.36-2.28-0.54"/>
	<path class="st2" d="M32.28,627.78c-0.81-0.17-1.6-0.33-2.4-0.5"/>
	<path class="st2" d="M5.49,621.73c0.64,0.16,1.29,0.31,1.93,0.47"/>
	<path class="st2" d="M9.74,622.77c-0.78-0.19-1.54-0.38-2.31-0.56"/>
	<path class="st2" d="M18.49,624.81c0.67,0.15,1.36,0.3,2.04,0.45"/>
	<path class="st2" d="M18.47,544.36c-0.34,1.61-0.67,3.21-1.01,4.79"/>
	<path class="st2" d="M14.07,623.79c0.68,0.16,1.37,0.31,2.05,0.47"/>
	<path class="st2" d="M34.4,181.12c-0.07-0.19-0.13-0.37-0.19-0.55"/>
	<path class="st2" d="M1.35,620.69c1.37,0.35,2.75,0.69,4.15,1.04"/>
	<path class="st2" d="M23,625.81c0.71,0.16,1.44,0.31,2.16,0.47"/>
	<path class="st2" d="M1.63,619.54c-0.13,0.54-0.23,0.93-0.28,1.16"/>
	<path class="st2" d="M15.49,558.4c-0.48,2.25-0.96,4.46-1.43,6.62"/>
	<path class="st2" d="M26.88,502.65c-0.18,0.92-0.36,1.84-0.53,2.76"/>
	<path class="st2" d="M47.9,370.64c-0.66,5.79-1.38,11.65-2.14,17.55"/>
	<path class="st2" d="M42.91,408.99c0.14-1,0.29-1.99,0.43-2.98"/>
	<path class="st2" d="M48.85,362c-0.1,0.95-0.2,1.91-0.31,2.87"/>
	<path class="st2" d="M32.2,474.27c-0.18,0.97-0.35,1.93-0.53,2.9"/>
	<path class="st2" d="M20.52,534.47c-0.69,3.36-1.38,6.66-2.05,9.89"/>
	<path class="st2" d="M22.62,524.19c-0.35,1.74-0.7,3.47-1.05,5.18"/>
</g>
<path class="NeckAndArmTrim fill" d="M234.22,1.45c-1.53,14.43-6.5,42.55-25.95,71.09c-14.47,21.23-31.28,34.36-42.4,41.7
	c-11.12-7.68-28.01-21.43-42.4-43.44c-18.23-27.88-23.2-54.9-24.8-69.35l6.63-1.88c2.1,17.98,9.02,53.37,36.34,84.26
	c8.08,9.14,16.48,16.23,24.23,21.72c7.76-5.52,16.14-12.62,24.23-21.72c27.38-30.79,34.82-65.93,37.21-84.26L234.22,1.45z"/>
<path class="NeckAndArmTrim fill" d="M31.75,175.05c2.64-0.44,6.39-1.36,10.38-3.47c11.79-6.23,18.31-18.86,23.36-39.09
	c5.97-23.9,5.71-41.68,6.06-78.18c0.19-20.28,0.47-36.38,0.65-45.34l-6.7,1.9c0,4,0.01,10.04,0,17.37
	c-0.04,43.07-0.08,64.76-0.87,72.1c-1.81,16.96-6.52,61-28.55,67.76c-2.8,0.86-5.28,0.93-6.92,0.87L31.75,175.05z"/>
<path class="NeckAndArmTrim fill" d="M301.99,174.72c-1.85-0.01-4.78-0.22-8.06-1.41c-14.35-5.19-19.73-23.43-22.39-32.46
	c-11.56-39.2-9.01-124.25-8.76-131.73l6.06,1.74c-0.2,6.16-2.97,100.85,9.52,132.91c2.79,7.17,9.01,23.15,20.77,25.19
	c2.22,0.39,4.1,0.18,5.19,0L301.99,174.72z"/>
<path class="NeckAndArmTrim fill" d="M109.45,22c10.2,5.01,29.77,12.96,55.56,13.19c27.06,0.24,47.57-8.13,57.87-13.19l1.74-7.98
	c-8.95,5.27-29.6,15.8-57.87,15.96c-28.99,0.16-50.17-10.69-59.12-15.96L109.45,22z"/>
<g id="FBodyLogos"></g>
</svg>
