<?xml version="1.0" encoding="utf-8"?>
<!-- Generator: Adobe Illustrator 19.1.0, SVG Export Plug-In . SVG Version: 6.00 Build 0)  -->
<svg version="1.1" id="Layer_1" xmlns="http://www.w3.org/2000/svg" xmlns:xlink="http://www.w3.org/1999/xlink" x="0px" y="0px"
	 viewBox="0 0 335.2 641.14" style="enable-background:new 0 0 335.2 641.14;" xml:space="preserve">
<style type="text/css">
	<![CDATA[
	@font-face{font-family:'codaheavy';src:url('/fonts/coda-heavy-webfont.woff') format('woff')}
	text{font-family:Impact,codaheavy,sans-serif}
	.Number.fill{fill:#000}
	.NumberOutline.stroke{fill:none;stroke:#777;stroke-width:2.5}
	.Colour1.fill{fill:#FFFFFF;}
	.Colour2.fill{fill:#2A7CBF;}
	.Colour3.fill{fill:#58B9CE;}
	.Colour4.fill{fill:#71C1EC;}
	.Colour5.fill{fill:#2DA2DB;}
	.Colour6.fill{fill:#CBEAFA;}
	.NeckAndArmTrim.fill{fill:#2A7CBF;stroke:#000000;stroke-miterlimit:10;}
	.SidePanels.fill{fill:#FFFFFF;stroke:#000000;stroke-miterlimit:10;}
	.st0{fill:#2A7CBF;}
	.st1{fill:none;stroke:#000000;stroke-miterlimit:10;}
	.st2{fill:#FFFFFF;stroke:#000000;}
	.st3{fill:none;stroke:#000000;stroke-linecap:round;stroke-linejoin:round;}
	]]>
</style>
<path class="Colour1 fill" d="M1.2,620.69c43.51,11.08,102.43,21.48,172.43,20.85c64.42-0.58,119.02-10.32,160.36-20.85
	c-16.35-70.98-29.65-138.88-40.52-203.28c-15.28-90.56-20.96-145.91-2.59-211.1c4.47-15.84,9.33-28.64,12.93-37.35
	c-1.09,0.18-2.96,0.39-5.17,0c-11.71-2.05-17.91-18.02-20.69-25.19c-12.44-32.06-9.68-126.75-9.48-132.91
	c-13.79-3.76-27.59-7.53-41.38-11.29c0,22.71-121.56,22.71-121.56,0C92.31,3.33,79.09,7.1,65.87,10.86c0,4,0.01,10.04,0,17.37
	c-0.04,43.07-0.08,64.76-0.86,72.1c-1.81,16.96-6.5,61-28.45,67.76c-2.79,0.86-5.27,0.93-6.9,0.87c3.09,7.92,7.29,19.54,11.21,33.88
	c10.87,39.79,13.7,78.93,10.35,128.57C43.47,446.06,3.02,613.27,1.2,620.69z"/>
<path class="Colour3 fill" d="M240.04,9.77c-0.09,0.06-0.18,0.12-0.27,0.18c0,0-0.02-0.06-0.03-0.08c0.09-0.06,0.18-0.12,0.27-0.18
	C240.02,9.71,240.04,9.77,240.04,9.77z M226,19.36c-0.1,0.07-0.19,0.14-0.28,0.21c0.01,0.03,0.03,0.06,0.04,0.09
	c0.09-0.07,0.19-0.13,0.28-0.21C226.03,19.42,226.01,19.39,226,19.36z M235.38,18.17c-0.42,0.3-0.83,0.62-1.25,0.93
	c0.06,0.14,0.11,0.29,0.17,0.43c0.41-0.31,0.83-0.63,1.24-0.94C235.49,18.45,235.43,18.31,235.38,18.17z M244.11,17.41
	c-0.66,0.5-1.33,1.01-2,1.52c0.1,0.25,0.19,0.5,0.29,0.75c0.66-0.52,1.33-1.04,1.99-1.54C244.29,17.9,244.2,17.65,244.11,17.41z
	 M260.19,16.74c-1.18,0.92-2.37,1.88-3.56,2.85c0.2,0.54,0.39,1.09,0.6,1.65c1.18-0.99,2.35-1.97,3.52-2.91
	C260.56,17.79,260.37,17.26,260.19,16.74z M210.41,31.43c-0.11,0.1-0.23,0.19-0.35,0.29c0.02,0.03,0.03,0.07,0.05,0.11
	c0.12-0.09,0.23-0.19,0.35-0.29C210.44,31.51,210.43,31.47,210.41,31.43z M231.01,27.89c-0.81,0.7-1.63,1.4-2.45,2.11
	c0.13,0.32,0.27,0.64,0.4,0.96c0.81-0.72,1.63-1.43,2.44-2.14C231.27,28.5,231.14,28.2,231.01,27.89z M233.27,51.15
	c-1.69,2.03-3.4,4.12-5.11,6.31c0.44,1.01,0.89,2.04,1.34,3.08c1.68-2.24,3.35-4.41,5-6.49C234.08,53.07,233.68,52.1,233.27,51.15z
	 M242.72,50.38c-1.77,2.2-3.55,4.51-5.34,6.91c0.51,1.2,1.03,2.42,1.55,3.67c1.74-2.49,3.46-4.87,5.19-7.16
	C243.65,52.64,243.18,51.5,242.72,50.38z M219.74,68.76c-1.8,2.48-3.63,5.06-5.46,7.74c0.53,1.13,1.06,2.29,1.6,3.46
	c1.79-2.76,3.56-5.42,5.32-7.97C220.71,70.9,220.22,69.82,219.74,68.76z M249.35,83.53c-2.16,4.37-4.31,9.01-6.43,13.95
	c1.18,2.68,2.39,5.44,3.64,8.28c1.94-5.24,3.91-10.18,5.9-14.82C251.39,88.4,250.36,85.93,249.35,83.53z M171.46,126.92
	c-2.39,4.12-4.82,8.38-7.3,12.82c0.76,1.4,1.5,2.84,2.26,4.29c2.4-4.54,4.78-8.9,7.11-13.11
	C172.83,129.57,172.15,128.24,171.46,126.92z M216.11,137.34c-2.63,7.19-5.3,14.86-7.92,23.06c1.72,3.41,3.48,6.93,5.32,10.53
	c2.35-8.64,4.74-16.73,7.13-24.31C219.1,143.44,217.58,140.36,216.11,137.34z M201.92,141.45c-2.97,7.35-5.96,15.17-8.97,23.48
	c1.63,3.14,3.29,6.37,5,9.66c2.78-8.68,5.53-16.85,8.29-24.54C204.76,147.13,203.34,144.25,201.92,141.45z M185.76,150.6
	c-2.65,6.07-5.35,12.48-8.1,19.26c1.24,2.33,2.5,4.71,3.78,7.13c2.58-7.03,5.11-13.68,7.63-19.97
	C187.94,154.85,186.84,152.71,185.76,150.6z M241.28,132.98c-2.16,7.36-4.28,15.26-6.31,23.77c2.05,4.28,4.2,8.71,6.4,13.32
	c1.63-9.15,3.37-17.65,5.2-25.55C244.74,140.53,242.98,136.69,241.28,132.98z M76.81,182.06c-0.3,0.43-0.61,0.86-0.93,1.28
	c0.05,0.09,0.13,0.17,0.16,0.27c0.32-0.42,0.62-0.86,0.93-1.28C76.92,182.24,76.87,182.15,76.81,182.06z M252.64,133.23
	c-1.9,7.41-3.72,15.41-5.43,24.05c2.22,4.77,4.57,9.74,7,14.95c1.24-9.39,2.63-18.09,4.14-26.15
	C256.35,141.61,254.46,137.33,252.64,133.23z M218.42,173.56c-2.33,8.88-4.63,18.46-6.86,28.8c2.24,4.3,4.54,8.75,6.93,13.36
	c1.8-11.01,3.69-21.21,5.66-30.67C222.17,181.09,220.27,177.26,218.42,173.56z M144.23,213.71c-3.49,8.58-7.1,17.64-10.79,27.25
	c1.46,2.65,3,5.31,4.57,8.01c3.5-9.89,6.91-19.23,10.24-28.06C146.89,218.47,145.56,216.07,144.23,213.71z M118.01,233.92
	c-3.49,7.79-7.07,15.98-10.75,24.6c1.23,2.1,2.43,4.25,3.72,6.38c3.54-8.81,7.01-17.18,10.36-25.16
	C120.21,237.78,119.07,235.86,118.01,233.92z M233.7,266.25c-0.66,9.28-1.2,19.03-1.68,29.28c-0.5,10.78-0.87,22.13-1.18,34.09
	c5.36,9.8,10.98,20.07,16.91,30.83c-0.43-13.07-0.75-25.47-0.89-37.25c-0.13-11.19-0.16-21.84-0.06-31.98
	C242.22,282.52,237.85,274.2,233.7,266.25z M172.83,310.38c-1.75,9.63-3.53,19.71-5.25,30.27c-1.85,11.05-3.69,22.65-5.48,34.84
	c4.14,6.93,8.31,14.14,12.67,21.52c1.35-12.86,2.73-25.1,4.14-36.77c1.33-11.14,2.71-21.78,4.11-31.94
	C179.54,322.14,176.15,316.16,172.83,310.38z M229.8,341.92c-0.28,14.26-0.35,29.33-0.32,45.29c0.04,16.91,0.29,34.85,0.74,53.91
	c7.99,13.84,16.39,28.38,25.18,43.67c-1.66-20.86-3.05-40.48-4.15-58.98c-1.04-17.45-1.91-33.93-2.5-49.52
	C242.12,364.28,235.83,352.82,229.8,341.92z M209.75,370.73c-0.73,12.59-1.35,25.9-1.83,39.98c-0.57,14.91-0.98,30.73-1.29,47.54
	c6.28,10.73,12.92,21.86,19.8,33.52c-0.58-18.13-1.05-35.21-1.3-51.3c-0.27-15.19-0.37-29.56-0.31-43.15
	C219.57,388.1,214.53,379.25,209.75,370.73z M261.35,11.69c0.76-0.55,1.52-1.07,2.27-1.6c-0.47-0.13-0.94-0.27-1.41-0.4
	c-0.42,0.29-0.84,0.57-1.25,0.86C261.08,10.93,261.22,11.31,261.35,11.69z M267.89,18.64c-0.16-0.49-0.32-0.97-0.49-1.45
	c-1.26,1-2.53,2.05-3.81,3.13c0.23,0.65,0.46,1.3,0.68,1.96c1.21-1.07,2.41-2.1,3.61-3.1C267.89,19,267.89,18.82,267.89,18.64z"/>
<path class="Colour6 fill" d="M248.47,9.45c-0.36,0.24-0.71,0.47-1.07,0.71c-0.05-0.11-0.09-0.24-0.13-0.36
	c0.36-0.24,0.71-0.47,1.07-0.71C248.38,9.22,248.42,9.34,248.47,9.45z M256.2,8.8c-0.6,0.4-1.21,0.81-1.81,1.22
	c0.08,0.22,0.16,0.44,0.24,0.66c0.6-0.42,1.2-0.83,1.8-1.23C256.35,9.23,256.28,9.02,256.2,8.8z M257.01,25.93
	c-1.53,1.4-3.07,2.85-4.62,4.35c0.31,0.82,0.63,1.66,0.95,2.5c1.52-1.54,3.03-3.03,4.54-4.47C257.59,27.5,257.3,26.71,257.01,25.93z
	 M222.91,53.03c-1.4,1.62-2.81,3.29-4.23,5.01c0.32,0.74,0.67,1.48,1,2.24c1.4-1.76,2.79-3.47,4.16-5.13
	C223.53,54.45,223.22,53.73,222.91,53.03z M240.54,65.96c-1.93,2.92-3.87,5.98-5.81,9.2c0.7,1.61,1.41,3.25,2.15,4.92
	c1.86-3.36,3.71-6.56,5.56-9.61C241.8,68.94,241.16,67.44,240.54,65.96z M147.42,93.17c-0.19,0.21-0.37,0.43-0.57,0.64
	c0.04,0.06,0.07,0.12,0.09,0.18c0.18-0.22,0.38-0.43,0.57-0.64C147.48,93.29,147.44,93.23,147.42,93.17z M215.86,110.65
	c-2.32,4.86-4.67,10-7.03,15.43c1.12,2.27,2.26,4.59,3.42,6.96c2.2-5.67,4.41-11.03,6.6-16.11
	C217.83,114.79,216.84,112.7,215.86,110.65z M167.94,159.59c-2.73,5.76-5.53,11.81-8.36,18.19c1.08,1.98,2.17,4,3.28,6.05
	c2.7-6.56,5.37-12.8,8-18.73C169.87,163.24,168.9,161.4,167.94,159.59z M86.68,259.39c-3.44,7.08-7,14.45-10.62,22.16
	c1,1.66,1.99,3.34,3,5.03c3.52-7.84,7-15.34,10.36-22.53C88.53,262.46,87.58,260.93,86.68,259.39z M188.68,233.88
	c-3.01,12.78-6.08,26.63-9.07,41.67c2.84,5.03,5.74,10.23,8.71,15.58c2.43-15.87,4.97-30.48,7.54-43.97
	C193.39,242.62,191.01,238.18,188.68,233.88z M146.13,333.39c-2.38,10.68-4.77,21.84-7.17,33.51c-2.54,12.2-5.1,24.98-7.67,38.39
	c4.07,6.72,8.17,13.66,12.46,20.7c2.14-14.02,4.29-27.4,6.44-40.16c2.02-12.21,4.05-23.89,6.1-35.06
	C152.78,344.86,149.41,339.06,146.13,333.39z M212,54.97c-0.09,0.1-0.19,0.21-0.28,0.32c-0.95,1.85-1.96,3.71-3.02,5.58
	c0.07,0.15,0.13,0.29,0.2,0.44c1.31-1.56,2.61-3.08,3.9-4.56C212.53,56.14,212.27,55.55,212,54.97z M267.79,35.98
	c0.04-0.04,0.07-0.08,0.11-0.12c0-1.63,0-3.3-0.01-4.99c-0.46,0.48-0.93,0.95-1.39,1.44C266.93,33.5,267.36,34.72,267.79,35.98z"/>
<path class="Colour5 fill" d="M265.43,29.16c-1.52,1.5-3.04,3.07-4.56,4.7c-0.35-0.96-0.69-1.91-1.03-2.84c1.56-1.58,3.12-3.09,4.66-4.54
	C264.8,27.36,265.12,28.25,265.43,29.16z M261.79,37.89c-1.61,1.81-3.23,3.69-4.85,5.67c0.44,1.16,0.89,2.35,1.35,3.56
	c1.57-2.07,3.13-4.04,4.7-5.92C262.59,40.08,262.19,38.97,261.79,37.89z M251.8,49.53c-2.04,2.65-4.08,5.42-6.14,8.33
	c0.64,1.58,1.3,3.19,1.98,4.83c1.98-3.04,3.94-5.93,5.92-8.7C252.95,52.47,252.36,50.99,251.8,49.53z M260.1,50
	c-2.05,2.78-4.09,5.72-6.15,8.81c0.71,1.81,1.46,3.67,2.21,5.57c1.95-3.25,3.9-6.34,5.86-9.27C261.37,53.37,260.73,51.66,260.1,50z
	 M204.85,90.76c-2.11,3.35-4.26,6.83-6.42,10.47c0.68,1.4,1.38,2.83,2.09,4.28c2.1-3.74,4.18-7.33,6.22-10.78
	C206.11,93.39,205.47,92.07,204.85,90.76z M239.27,84.87c-1.98,3.74-3.96,7.69-5.95,11.88c0.95,2.08,1.9,4.23,2.9,6.42
	c1.84-4.41,3.69-8.58,5.56-12.51C240.92,88.68,240.08,86.75,239.27,84.87z M258.69,84.05c-2.12,4.62-4.21,9.55-6.24,14.81
	c1.33,3.11,2.7,6.33,4.12,9.68c1.79-5.65,3.66-10.94,5.58-15.89C260.96,89.68,259.81,86.81,258.69,84.05z M250.09,104.59
	c-2.29,6.18-4.55,12.78-6.74,19.87c1.75,3.86,3.58,7.86,5.46,12.03c1.85-7.61,3.83-14.7,5.84-21.34
	C253.08,111.5,251.55,107.99,250.09,104.59z M260,105.92c-2.07,6.22-4.07,12.91-6,20.1c1.89,4.29,3.87,8.77,5.93,13.45
	c1.55-7.8,3.18-15.07,4.95-21.83C263.19,113.57,261.57,109.66,260,105.92z M131.32,148.53c-1.7,2.6-3.43,5.26-5.17,7.99
	c0.4,0.71,0.79,1.43,1.19,2.16c1.73-2.76,3.44-5.45,5.11-8.08C132.08,149.9,131.69,149.22,131.32,148.53z M229.16,134.9
	c-2.35,7.04-4.65,14.61-6.92,22.71c1.83,3.7,3.71,7.53,5.66,11.49c1.94-8.62,3.93-16.67,6-24.16
	C232.27,141.48,230.69,138.14,229.16,134.9z M185.86,186.66c-3.09,9.28-6.23,19.2-9.42,29.82c2,3.58,3.95,7.31,6.03,11.08
	c2.86-11.1,5.7-21.47,8.53-31.18C189.25,193.06,187.54,189.82,185.86,186.66z M62.48,230.56c-1.51,2.42-3.04,4.87-4.59,7.37
	c0.32,0.49,0.56,1.03,0.9,1.51c1.53-2.52,3.06-4.98,4.56-7.42C63.09,231.51,62.79,231.03,62.48,230.56z M215.67,275.57
	c-1.02,9.47-1.94,19.4-2.86,29.83c-0.92,10.95-1.75,22.47-2.59,34.6c5,8.82,10.15,18.04,15.52,27.66
	c0.17-13.08,0.45-25.51,0.78-37.32c0.34-11.24,0.79-21.96,1.32-32.16C223.62,290.34,219.52,282.83,215.67,275.57z M185,399.69
	c-1.19,12.54-2.33,25.79-3.41,39.81c-1.21,14.83-2.2,30.58-3.27,47.3c5.61,9.29,11.44,18.91,17.48,28.89
	c0.29-17.83,0.58-34.62,1.05-50.45c0.42-14.95,0.95-29.09,1.57-42.47C193.76,414.82,189.35,407.1,185,399.69z M265.7,49.62
	c0.74-1.05,1.48-2.06,2.22-3.06c0-2.06-0.01-4.17-0.01-6.35c-1.3,1.56-2.6,3.15-3.9,4.83C264.56,46.52,265.12,48.05,265.7,49.62z"/>
<g>
	<path class="st0" d="M249.26,28.16c-1.12,1.03-2.25,2.1-3.39,3.2c-0.22-0.56-0.43-1.11-0.65-1.66c1.15-1.07,2.29-2.11,3.43-3.12
		C248.85,27.09,249.06,27.62,249.26,28.16z"/>
	<path class="st0" d="M246.43,39.9c-1.45,1.6-2.92,3.25-4.39,4.96c-0.35-0.87-0.7-1.72-1.04-2.56c1.5-1.67,2.99-3.27,4.48-4.82
		C245.78,38.27,246.1,39.08,246.43,39.9z"/>
	<path class="st0" d="M219.14,92.48c-1.92,3.44-3.84,7.05-5.78,10.83c-0.76-1.59-1.5-3.15-2.23-4.69c2.03-3.65,4.03-7.13,6.02-10.45
		C217.8,89.58,218.46,91.02,219.14,92.48z"/>
	<path class="st0" d="M116.94,129.8c-0.25,0.3-0.5,0.62-0.74,0.93c-0.05-0.07-0.08-0.15-0.13-0.23c0.24-0.31,0.49-0.63,0.75-0.93
		C116.85,129.65,116.87,129.75,116.94,129.8z"/>
	<path class="st0" d="M205.13,120.1c-2.26,4.74-4.51,9.73-6.8,14.98c-1.01-2.01-1.99-3.98-2.97-5.92c2.42-5.06,4.77-9.88,7.14-14.45
		C203.35,116.48,204.23,118.27,205.13,120.1z"/>
	<path class="st0" d="M232.1,114.5c-2.38,6.11-4.75,12.61-7.11,19.5c-1.51-3.15-2.98-6.23-4.41-9.22
		c2.57-6.55,5.15-12.71,7.73-18.51C229.53,108.94,230.8,111.69,232.1,114.5z"/>
	<path class="st0" d="M189.9,124.94c-2.17,4.24-4.38,8.68-6.63,13.31c-0.84-1.62-1.65-3.22-2.47-4.79c2.33-4.5,4.61-8.81,6.87-12.93
		C188.4,121.98,189.15,123.44,189.9,124.94z"/>
	<path class="st0" d="M154.25,139.67c-2,3.38-4.06,6.85-6.13,10.44c-0.57-1.04-1.14-2.06-1.67-3.1c2.11-3.53,4.22-6.94,6.25-10.27
		C153.22,137.71,153.73,138.69,154.25,139.67z"/>
	<path class="st0" d="M106.96,164.65c-1.09,1.57-2.17,3.19-3.27,4.82c-0.22-0.38-0.44-0.77-0.65-1.15c1.11-1.62,2.19-3.22,3.29-4.79
		C106.53,163.9,106.74,164.28,106.96,164.65z"/>
	<path class="st0" d="M150.04,175.97c-2.59,5.37-5.24,10.96-7.94,16.8c-0.94-1.64-1.82-3.28-2.71-4.89
		c2.78-5.72,5.51-11.19,8.19-16.43C148.39,172.94,149.21,174.45,150.04,175.97z"/>
	<path class="st0" d="M97.6,208.32c-2.13,3.72-4.3,7.55-6.5,11.48c-0.55-0.87-1.02-1.78-1.54-2.65c2.24-3.88,4.43-7.67,6.59-11.35
		C96.63,206.63,97.11,207.47,97.6,208.32z"/>
	<path class="st0" d="M208.38,189.45c-2.4,9.55-4.74,19.81-7.06,30.84c-2.23-4.15-4.37-8.2-6.46-12.14
		c2.7-10.46,5.39-20.19,8.1-29.24C204.71,182.32,206.51,185.84,208.38,189.45z"/>
	<path class="st0" d="M253.7,180.54c-1.51,12.23-2.79,25.51-3.82,39.94c-3.66-7.35-7.13-14.4-10.45-21.13
		c1.78-13.25,3.73-25.45,5.86-36.67C247.95,168.37,250.76,174.32,253.7,180.54z"/>
	<path class="st0" d="M171.54,206.14c-3.35,9.91-6.71,20.47-10.12,31.72c-1.93-3.43-3.84-6.8-5.64-10.13
		c3.67-10.85,7.3-21.03,10.87-30.58C168.26,200.09,169.87,203.09,171.54,206.14z"/>
	<path class="st0" d="M206.79,310.47c-0.93,10.13-1.84,20.75-2.69,31.89c-0.87,11.68-1.68,23.96-2.44,36.87
		c-4.84-8.4-9.47-16.53-13.99-24.36c1.3-12.1,2.62-23.62,4-34.57c1.32-10.44,2.66-20.4,4.02-29.9
		C199.29,296.85,202.95,303.55,206.79,310.47z"/>
	<path class="st0" d="M262.24,60.24c1.85-2.98,3.7-5.81,5.57-8.47c0.04,0.11,0.08,0.23,0.12,0.33c0.01,2.78,0.01,5.44,0.02,7.97
		c-1.16,1.95-2.32,3.94-3.47,6.03C263.71,64.09,262.96,62.14,262.24,60.24z"/>
	<path class="st0" d="M261.21,78.7c1.93-4.09,3.91-7.92,5.91-11.53c0.29,0.76,0.58,1.55,0.87,2.33c0.02,3.18,0.04,6.13,0.07,8.82
		c-1.22,2.71-2.43,5.53-3.61,8.48C263.33,84,262.25,81.31,261.21,78.7z"/>
	<path class="st0" d="M261.54,101.24c1.94-5.64,3.95-10.91,6-15.83c0.21,0.53,0.42,1.09,0.63,1.63c0.12,6.6,0.31,11.06,0.59,13.69
		c0.08,0.72,0.16,1.5,0.25,2.31c-0.95,3.09-1.87,6.28-2.76,9.6C264.6,108.67,263.04,104.88,261.54,101.24z"/>
	<g>
		<path class="st0" d="M239.36,606.04c-1.79-27.47-3.29-53.03-4.39-76.85c-1.07-22.23-1.87-43.03-2.41-62.53
			c7.55,13.1,15.58,26.8,23.93,41.26c1.82,21.34,3.96,44.1,6.47,68.44c1.31,12.81,2.87,26.06,4.3,39.8
			c0.67,5.73,1.35,11.56,2.04,17.46c-3.95,0.61-7.97,1.2-12.06,1.76C251.12,625.32,245.14,615.54,239.36,606.04z"/>
	</g>
</g>
<path class="Colour4 fill" d="M252.96,18c-1.02,0.8-2.05,1.62-3.07,2.46c-0.16-0.43-0.32-0.87-0.48-1.29c1.04-0.82,2.07-1.63,3.1-2.42
	C252.65,17.16,252.8,17.57,252.96,18z M240.22,26.84c-1.07,0.93-2.15,1.9-3.24,2.87c0.19,0.46,0.38,0.93,0.57,1.41
	c1.08-0.99,2.14-1.97,3.21-2.92C240.58,27.74,240.4,27.29,240.22,26.84z M226.93,39.16c-1.24,1.22-2.48,2.47-3.73,3.75
	c0.25,0.55,0.49,1.12,0.73,1.68c1.24-1.3,2.47-2.57,3.69-3.81C227.38,40.24,227.16,39.7,226.93,39.16z M236.55,37.99
	c-1.4,1.42-2.82,2.89-4.24,4.4c0.3,0.71,0.6,1.42,0.9,2.15c1.4-1.55,2.79-3.04,4.18-4.5C237.11,39.35,236.82,38.67,236.55,37.99z
	 M254.16,36.74c-1.81,1.96-3.63,4.01-5.47,6.13c0.45,1.16,0.92,2.34,1.39,3.54c1.78-2.2,3.57-4.31,5.34-6.35
	C254.99,38.94,254.57,37.83,254.16,36.74z M230.67,66.5c-2.02,2.91-4.05,5.96-6.11,9.13c0.65,1.47,1.32,2.95,2.01,4.47
	c1.99-3.29,3.94-6.45,5.9-9.46C231.85,69.24,231.26,67.85,230.67,66.5z M250.06,65.05c-2.12,3.38-4.23,6.95-6.35,10.71
	c0.87,2.03,1.75,4.12,2.66,6.26c2-3.96,4-7.71,6.01-11.27C251.58,68.8,250.81,66.9,250.06,65.05z M258.84,65.58
	c-2.1,3.54-4.18,7.3-6.25,11.29c0.96,2.34,1.96,4.75,2.98,7.24c1.92-4.23,3.86-8.22,5.82-11.98
	C260.51,69.88,259.67,67.69,258.84,65.58z M228.7,85.66c-2.09,3.69-4.19,7.59-6.3,11.69c0.87,1.88,1.76,3.79,2.67,5.76
	c1.99-4.28,3.99-8.35,5.97-12.2C230.25,89.11,229.47,87.36,228.7,85.66z M158.72,108.66c-1.42,1.94-2.85,3.91-4.3,5.93
	c0.31,0.6,0.63,1.2,0.95,1.81c1.42-2.05,2.85-4.04,4.25-6C159.33,109.82,159.03,109.24,158.72,108.66z M139.31,117.86
	c-0.98,1.28-1.98,2.58-2.97,3.89c0.2,0.35,0.39,0.71,0.58,1.07c0.99-1.32,1.97-2.63,2.95-3.92
	C139.67,118.56,139.5,118.21,139.31,117.86z M239.41,106.89c-2.12,5.16-4.2,10.67-6.27,16.55c1.37,2.93,2.79,5.96,4.24,9.09
	c1.83-6.25,3.71-12.1,5.62-17.59C241.75,112.17,240.57,109.48,239.41,106.89z M123.97,186.66c-2.48,4.53-5,9.22-7.59,14.07
	c0.71,1.23,1.41,2.47,2.11,3.73c2.53-4.94,5-9.71,7.43-14.31C125.28,188.97,124.61,187.81,123.97,186.66z M232.56,169.44
	c-2.06,9.13-4.04,19.01-5.91,29.73c2.5,4.92,5.09,10.04,7.79,15.36c1.35-11.52,2.86-22.16,4.48-31.99
	C236.71,178.01,234.6,173.65,232.56,169.44z M223.97,215.33c-2.08,12.78-4.03,26.73-5.82,41.98c3.41,6.36,6.93,12.98,10.6,19.87
	c1.02-16.43,2.27-31.46,3.73-45.23C229.54,226.19,226.68,220.66,223.97,215.33z M239.36,211.52c-1.57,12.5-2.96,26.17-4.1,41.16
	c3.62,6.96,7.4,14.26,11.41,21.88c0.24-16.35,0.88-31.27,1.73-44.9C245.23,223.34,242.24,217.29,239.36,211.52z M207.22,221.54
	c-2.68,13.38-5.26,27.93-7.8,43.79c3.23,5.95,6.6,12.09,10.08,18.45c1.81-16.91,3.79-32.42,5.91-46.67
	C212.59,231.74,209.87,226.55,207.22,221.54z M167.75,245.5c-3.93,14.3-7.9,29.74-11.96,46.43c2.84,5,5.75,10.13,8.78,15.35
	c3.54-17.45,7.03-33.6,10.53-48.56C172.6,254.2,170.11,249.81,167.75,245.5z M143.35,266.16c-4.34,13.89-8.81,28.82-13.4,44.89
	c2.44,4.3,5.07,8.6,7.65,13.06c4.18-16.67,8.27-32.15,12.25-46.57C147.63,273.68,145.46,269.89,143.35,266.16z M114.03,294.84
	c-4.41,12.51-8.99,25.87-13.69,40.2c2.02,3.34,4.08,6.73,6.12,10.21c4.39-14.75,8.69-28.52,12.85-41.4
	C117.52,300.8,115.76,297.8,114.03,294.84z M267.53,575.66c9.89,16.69,20.25,34.26,31.23,52.73c1.25-0.25,2.5-0.5,3.73-0.76
	c-1.93-11.68-3.81-23.03-5.49-34.07c-2.14-13.57-4.15-26.67-5.99-39.34c-3.6-24.05-6.67-46.57-9.3-67.69
	c-9.26-16.38-18-31.83-26.22-46.45c1.23,18.99,2.76,39.25,4.72,60.87C262.19,524.13,264.69,548.97,267.53,575.66z"/>
<path class="st1" d="M229.3,0.02c13.79,3.76,24.77,7.52,38.57,11.29c-0.2,6.16-2.96,100.78,9.48,132.82
	c2.78,7.17,8.98,23.13,20.69,25.17c2.21,0.39,4.09,0.18,5.17,0c-3.6,8.71-8.47,21.5-12.93,37.33
	c-18.38,65.14-12.7,120.45,2.59,210.95c10.87,64.35,24.18,132.2,40.52,203.13c-41.35,10.53-95.94,20.26-160.36,20.83
	c-70,0.63-128.92-9.76-172.43-20.83c1.82-7.42,42.27-174.52,50.01-289.08c3.35-49.6,0.53-88.71-10.35-128.48
	c-3.92-14.33-8.11-25.94-11.21-33.86c1.63,0.07,4.11-0.01,6.9-0.87c21.95-6.75,26.65-50.77,28.45-67.71
	c0.78-7.34,0.82-29.01,0.86-72.05c0.01-7.33,0-13.36,0-17.36C78.48,7.55,91.7,3.78,104.92,0.02C104.92,22.45,229.3,22.45,229.3,0.02
	z"/>
<path class="st1" d="M234.58,1.9"/>
<path class="st1" d="M99.53,1.9"/>
<g>
	<rect x="109.97" y="215.05" class="st2" width="31.9" height="12.15"/>
	<rect x="194.46" y="215.05" class="st2" width="31.9" height="12.15"/>
	<rect x="194.54" y="322.61" class="st2" width="31.9" height="12.15"/>
	<rect x="110.05" y="322.61" class="st2" width="31.9" height="12.15"/>
	<rect x="110.05" y="310.46" class="st2" width="31.9" height="12.15"/>
	<rect x="194.54" y="310.46" class="st2" width="31.9" height="12.15"/>
</g>
<path class="SidePanels fill" d="M301.81,175.04c-1.85-0.03-4.64-0.28-7.73-1.4c-9.87-3.58-15.48-13.38-18.88-22.07l-0.17,0.72
	c-23.91,82.66-27.33,150.77-26.21,196.39c1.42,57.99,10.88,107.74,21.55,163.85c9.2,48.41,26.73,116.6,26.73,116.6
	c13.48-2.62,26-5.49,37.5-8.42c-16.35-70.93-29.65-138.78-40.52-203.13c-15.28-90.5-20.96-145.81-2.59-210.95
	c3.54-12.56,10.6-31.53,10.62-31.58L301.81,175.04z"/>
<path class="SidePanels fill" d="M32.22,175.38c2.63-0.44,6.36-1.36,10.35-3.47c8.08-4.28,13.67-11.58,18.02-22.3l0.18,0.72
	c26.04,99.42,26.1,177.55,21.89,228.37c-3.38,40.89-11.31,85.66-16.38,114.3c-9.88,55.78-29.4,135.77-29.4,135.77
	c-12.83-2.53-24.75-5.28-35.7-8.06C3,613.29,43.45,446.19,51.19,331.63c3.35-49.6,0.53-88.71-10.35-128.48
	c-3.01-11.01-6.19-20.42-8.9-27.78L32.22,175.38z"/>
<g>
	<path class="st3" d="M31.79,175.38c2.69,7.32,5.81,16.61,8.78,27.47c10.87,39.79,13.7,78.93,10.35,128.57
		c-0.67,9.88-1.58,20.16-2.69,30.69"/>
	<path class="st3" d="M30.42,481.03c0.06-0.32,0.12-0.64,0.18-0.96"/>
	<path class="st3" d="M48.23,362.1c-4.01,38.08-10.59,79.48-17.6,117.79"/>
	<path class="st3" d="M301.1,175.03c-3.2,8.2-6.97,18.8-10.5,31.29c-18.38,65.18-12.7,120.54,2.59,211.1
		c10.87,64.39,24.18,132.3,40.52,203.28c-11.34,2.89-23.67,5.71-36.93,8.31"/>
	<path class="st3" d="M30.6,480.07c0.01-0.06,0.02-0.12,0.03-0.18"/>
	<path class="st3" d="M30.42,481.03C16.94,554.49,2,616.25,0.91,620.69c10.94,2.79,22.86,5.53,35.68,8.06"/>
	<path class="st3" d="M31.79,175.38c-0.86-2.34-1.68-4.49-2.43-6.41c1.63,0.07,4.11-0.01,6.9-0.87
		c21.95-6.76,26.64-50.8,28.45-67.76c0.78-7.35,0.82-29.03,0.86-72.1c0.01-7.33,0-13.37,0-17.37C78.8,7.1,92.01,3.33,105.23-0.43
		c0,22.71,121.56,22.71,121.56,0c13.79,3.76,27.59,7.53,41.38,11.29c-0.2,6.16-2.96,100.85,9.48,132.91
		c2.78,7.17,8.98,23.15,20.69,25.19c2.21,0.39,4.08,0.18,5.17,0c-0.76,1.84-1.58,3.87-2.43,6.06"/>
	<path class="st3" d="M296.77,629c-35.1,6.87-76.67,12.12-123.43,12.54c-52.4,0.47-98.59-5.24-136.75-12.78"/>
	<path class="st3" d="M301.1,175.03c-1.84-0.06-4.44-0.35-7.31-1.39c-9.87-3.58-15.48-13.38-18.88-22.07l-0.17,0.72
		c-23.91,82.66-27.33,150.77-26.21,196.39c1.42,57.99,10.88,107.74,21.55,163.85c8.99,47.28,25.91,113.4,26.7,116.47"/>
	<path class="st3" d="M301.1,175.03c0.14,0,0.29,0.01,0.42,0.01l0.3,0c-0.02,0.05-7.07,19.02-10.62,31.58
		c-18.38,65.14-12.7,120.45,2.59,210.95c10.87,64.35,24.18,132.2,40.52,203.13c-11.5,2.93-24.03,5.79-37.5,8.42
		c0,0-0.01-0.05-0.03-0.12"/>
	<path class="st3" d="M30.42,481.03c0.06-0.32,0.12-0.64,0.18-0.96"/>
	<path class="st3" d="M30.42,481.03C16.94,554.48,1.98,616.26,0.89,620.71c10.95,2.79,22.87,5.53,35.7,8.06c0,0,0-0.01,0-0.01"/>
	<path class="st3" d="M30.63,479.89c-0.01,0.06-0.02,0.12-0.03,0.18"/>
	<path class="st3" d="M31.79,175.38l-0.14,0c2.71,7.36,5.89,16.77,8.9,27.78c10.87,39.77,13.7,78.88,10.35,128.48
		c-0.66,9.82-1.57,20.02-2.67,30.47"/>
	<path class="st3" d="M30.63,479.89c7.01-38.31,13.6-79.72,17.6-117.79"/>
	<path class="st3" d="M31.79,175.38l0.14,0c2.63-0.44,6.36-1.36,10.35-3.47c8.08-4.28,13.67-11.58,18.02-22.3l0.18,0.72
		c26.04,99.42,26.1,177.55,21.89,228.37c-3.38,40.89-11.31,85.66-16.38,114.3c-9.84,55.58-29.25,135.19-29.39,135.76"/>
</g>
<path class="NeckAndArmTrim fill" d="M32.1,175.38c2.63-0.44,6.36-1.36,10.35-3.47c11.75-6.22,18.24-18.85,23.28-39.06
	c5.95-23.88,5.69-41.65,6.04-78.13c0.19-20.26,0.47-36.36,0.64-45.31l-6.68,1.9c0,4,0.01,10.03,0,17.36
	c-0.04,43.04-0.08,64.71-0.86,72.05c-1.81,16.94-6.5,60.96-28.45,67.71c-2.79,0.86-5.27,0.93-6.9,0.87L32.1,175.38z"/>
<path class="NeckAndArmTrim fill" d="M302.11,175.05c-1.84-0.01-4.77-0.22-8.03-1.41c-14.29-5.18-19.66-23.42-22.31-32.44
	c-11.52-39.17-8.98-124.16-8.73-131.63l6.04,1.74c-0.2,6.16-2.96,100.78,9.48,132.82c2.78,7.17,8.98,23.13,20.69,25.17
	c2.21,0.39,4.09,0.18,5.17,0L302.11,175.05z"/>
<path class="NeckAndArmTrim fill" d="M98.08,1.85c9.78,6.22,35.6,20.81,71.39,20.12c32.89-0.64,56.56-13.84,66.44-20.14l-8.27-2.25
	c-10.15,5.47-31.3,15.12-59.67,15.37c-29.63,0.26-51.7-9.87-61.9-15.37L98.08,1.85z"/>
<g id="BBodyLogos"></g>
</svg>
