<?xml version="1.0" encoding="utf-8"?>
<!-- Generator: Adobe Illustrator 19.1.0, SVG Export Plug-In . SVG Version: 6.00 Build 0)  -->
<svg version="1.1" id="Layer_1" xmlns="http://www.w3.org/2000/svg" xmlns:xlink="http://www.w3.org/1999/xlink" x="0px" y="0px"
	 viewBox="0 0 335.2 641.14" style="enable-background:new 0 0 335.2 641.14;" xml:space="preserve">
<style type="text/css">
	<![CDATA[
	@font-face{font-family:'codaheavy';src:url('/fonts/coda-heavy-webfont.woff') format('woff')}
	text{font-family:Impact,codaheavy,sans-serif}
	.Number.fill{fill:#000}
	.NumberOutline.stroke{fill:none;stroke:#777;stroke-width:2.5}
	.Colour1.fill{fill-rule:evenodd;clip-rule:evenodd;fill:#373435;}
	.Colour2.fill{fill-rule:evenodd;clip-rule:evenodd;fill:#029347;}
	.Colour3.fill{fill-rule:evenodd;clip-rule:evenodd;fill:#009247;}
	.Colour4.fill{fill-rule:evenodd;clip-rule:evenodd;fill:#E11270;}
	.Colour5.fill{fill-rule:evenodd;clip-rule:evenodd;fill:#D7D684;}
	.Colour6.fill{fill-rule:evenodd;clip-rule:evenodd;fill:#C2CC76;}
	.Colour7.fill{fill-rule:evenodd;clip-rule:evenodd;fill:#EC0D6D;}
	.NeckAndArmTrim.fill{fill-rule:evenodd;clip-rule:evenodd;fill:#DC1A56;stroke:#000000;stroke-width:1.0001;stroke-miterlimit:2.6131;}
	.st0{fill-rule:evenodd;clip-rule:evenodd;fill:#FFFFFF;stroke:#292929;stroke-width:1.0001;stroke-miterlimit:2.6131;}
	.st1{fill:none;stroke:#000000;stroke-linecap:round;stroke-linejoin:round;}
	]]>
</style>
<path class="Colour1 fill" d="M43.55,206.63c-4.45-15.83-9.3-28.62-12.89-37.33c1.08,0.18,2.95,0.39,5.15,0
	c11.67-2.04,17.84-18.01,20.62-25.17c12.39-32.03,9.65-126.66,9.45-132.82c13.74-3.76,27.49-7.52,41.23-11.28
	c10.45,5.47,32.31,15.12,61.47,14.91c28.14-0.2,49.25-9.47,59.65-14.91c13.17,3.76,26.34,7.52,39.51,11.28c0,4-0.01,10.03,0,17.36
	c0.04,43.04,0.08,64.71,0.86,72.05c1.8,16.94,6.47,60.96,28.35,67.71c2.78,0.86,5.25,0.93,6.87,0.87
	c-3.08,7.91-7.26,19.53-11.17,33.86c-10.83,39.77-13.65,78.88-10.31,128.48c7.71,114.56,48.01,281.65,49.82,289.08
	c-43.35,11.07-102.06,21.46-171.8,20.83C96.19,640.97,41.8,631.23,0.6,620.71c16.29-70.93,29.55-138.78,40.37-203.13
	C56.2,327.08,61.86,271.76,43.55,206.63z"/>
<g>
	<rect x="109.59" y="215.05" class="st0" width="31.78" height="12.15"/>
	<rect x="193.77" y="215.05" class="st0" width="31.78" height="12.15"/>
	<rect x="193.85" y="322.61" class="st0" width="31.78" height="12.15"/>
	<rect x="109.67" y="322.61" class="st0" width="31.78" height="12.15"/>
	<rect x="109.67" y="310.46" class="st0" width="31.78" height="12.15"/>
	<rect x="193.77" y="310.46" class="st0" width="31.78" height="12.15"/>
</g>
<polygon class="Colour5 fill" points="71.79,36.93 67.8,40.67 72.48,39.88 "/>
<path class="Colour5 fill" d="M97.43,547.66l-36.76-18.73l1.03-4.92l2.92,0.25l33.08,22.61L97.43,547.66z M91.41,548.18l-32.34-11.69
	l-1.04,5.03L91.41,548.18z M55.86,551.39l-1.07,4.75l31.87-6.11L55.86,551.39z M84.16,554.54l-31.94,12.58l-1.24,5.47L84.16,554.54z
	 M91.78,447.34l27.82-18.91l-10.38,62.95l-30.17,20.59L91.78,447.34z M135.26,475.43l62.29-72.65l-19.98,42.56l47.01-7.52
	L135.26,475.43z M182.27,440.64l3.28-5.89l0.39,5.2l-3.53,2.33L182.27,440.64z M187.61,429.06l3.72-5.84l-0.39,13.26l-3.53,2.33
	L187.61,429.06z M193.34,420.74l3.43-1.19l-0.2,12.77l-3.53,2.33L193.34,420.74z M198.63,418.96l3.43-1.19l-0.2,10.39l-3.53,2.33
	L198.63,418.96z M203.87,417.13l3.43-1.19l-0.2,8.36l-3.53,2.33L203.87,417.13z M209.16,415.35l3.43-1.19l-0.2,6.33l-3.53,2.33
	L209.16,415.35z M214.2,413.76l3.43-1.19l0,4.26l-3.53,2.33L214.2,413.76z M219.49,411.93l3.43-1.19l0.15,2.28l-3.53,2.33
	L219.49,411.93z M192.85,438.64l2.91-2.61l0.03,3.2l-2.85,0.38L192.85,438.64z M198.09,434.83l2.76-2.37l0.03,5.87l-2.85,0.38
	L198.09,434.83z M203.35,430.79l3.51-3.02l0.04,9.36l-3.64,0.48L203.35,430.79z M208.49,426.88l3.51-3.02l0.04,12.48l-3.64,0.48
	L208.49,426.88z M213.99,422.67l3.53-3l-0.08,15.8l-3.64,0.46L213.99,422.67z M219.28,418.66l3.53-3l0.16,10.11l-3.64,4.07
	L219.28,418.66z M224.52,414.75l3.53-3l0.4,6.35l-3.64,4.07L224.52,414.75z M230.1,410.44l3.04-2.21l0.65,1.79l-3.64,4.07
	L230.1,410.44z M164.93,519.82l0.59,2.47l-2.64-0.59L164.93,519.82z M170.81,522.15l-2.94-0.3l-0.78-3.22l2.25-1.34L170.81,522.15z
	 M175.71,521.56l-2.94,0.05l-1.47-5.54l2.45-1.48L175.71,521.56z M180.85,521.51l-2.94,0.05l-2.25-8.41l2.45-1.48L180.85,521.51z
	 M185.55,521.31l-2.94,0.05l-2.74-10.79l2.45-1.48L185.55,521.31z M190.55,521.01l-2.94,0.05l-3.23-13.46l2.45-1.48L190.55,521.01z
	 M195.84,520.71l-2.94,0.05l-3.92-16.04l2.45-1.48L195.84,520.71z M201.03,520.32l-2.94,0.05l-4.41-18.41l2.45-1.48L201.03,520.32z
	 M206.07,520.07l-2.94,0.05l-5.04-20.74l2.45-1.48L206.07,520.07z M211.02,519.72l-2.94,0.05l-5.58-23.16l2.45-1.48L211.02,519.72z
	 M216.11,519.63l-2.94,0.05l-6.37-25.93l2.45-1.48L216.11,519.63z M221.3,519.53l-2.94,0.05l-3.1-13.6l2.92,0L221.3,519.53z
	 M226.59,519.23l-2.94,0.05l-3.19-12.71l2.92,0L226.59,519.23z M231.78,519.13l-2.94,0.05l-3-11.91l2.92,0L231.78,519.13z
	 M237.07,519.13l-2.94,0.05l-2.9-11.32l2.92,0L237.07,519.13z M242.36,519.03l-2.94,0.05l-2.8-10.83l2.92,0L242.36,519.03z
	 M247.35,518.73l-2.94,0.05l-2.56-9.93l2.92,0L247.35,518.73z M252.25,518.73l-2.94,0.05l-2.27-8.84l2.92,0L252.25,518.73z
	 M257.15,518.34l-2.94,0.05l-1.88-7.83l2.92,0L257.15,518.34z M262.34,517.94l-2.94,0.05l-1.59-6.74l2.92,0L262.34,517.94z
	 M267.43,517.45l-2.94,0.05l-1.3-5.95l2.92,0L267.43,517.45z M272.33,517.25l-2.94,0.05l-1.14-5.35l2.92,0L272.33,517.25z
	 M211.2,490.95l2.5-1.78l2.61,9.69l-2.62,1.88L211.2,490.95z M215.61,487.68l2.5-1.78l2.41,8.9l-2.62,1.88L215.61,487.68z
	 M219.92,485.16l2.5-1.78l2.02,7.36l-2.62,1.88L219.92,485.16z M224.52,482.29l2.5-1.78l1.53,5.98l-2.62,1.88L224.52,482.29z
	 M229.22,479.41l2.5-1.78l1.14,4.49l-2.62,1.88L229.22,479.41z M233.63,476.49l2.5-1.78l0.94,2.91l-2.62,1.88L233.63,476.49z
	 M237.84,473.72l2.5-1.78l0.65,1.82l-2.62,1.88L237.84,473.72z M223.1,497.96l-0.44,4.45l-4.55,1.48L223.1,497.96z M229.08,500.04
	l-4.51,1.83l2.64-8.51l4.8-5.35L229.08,500.04z M235.25,497.76l-4.46,1.68l3.97-12.92l3.77-0.35L235.25,497.76z M240.68,495.39
	l-3.92,1.29l3.48-10.64l3.77-0.35L240.68,495.39z M246.27,493.71l-3.53,0.94l2.94-8.71l3.43-0.35L246.27,493.71z M252.83,491.58
	l-3.87,0.89l2.35-7.13l3.43-0.35L252.83,491.58z M258.8,489.45l-3.87,0.89l1.67-5.2l3.43-0.35L258.8,489.45z M264.88,487.17
	l-3.87,0.89l0.59-3.17l3.43-0.35L264.88,487.17z M260.86,498.65l-4.02,3.07l3.33-10.74l3.67-1.09L260.86,498.65z M253.12,505.98
	l-3.33,0.4l4.11-13.02l3.67-1.09L253.12,505.98z M247.64,505.88l-3.33,0.4l3.48-10.44l3.67-1.09L247.64,505.88z M242.45,505.34
	l-3.33,0.4l2.6-7.57l3.67-1.09L242.45,505.34z M237.11,505.14l-2.84-0.4l1.22-4.26l3.23-1.09L237.11,505.14z M232.31,504.69l-3.48,0
	l0.44-1.63l3.23-1.09L232.31,504.69z M120.07,558.87l19.88,11.78l31.64-5.44L120.07,558.87z"/>
<path class="Colour6 fill" d="M57.68,598.9l8.91,34.54l-11.83-1.8L57.68,598.9z M79.15,635.26l18.1,2.17l0.29-6.26L63.7,590.13
	L79.15,635.26z M236.82,545.61l22.82,18.91l-27.03,13.66l49.63-9.1l-1.56-6.94L236.82,545.61z M242.89,564.71l-52.99-2.87
	l-13.32,9.4l51.62,8.12L242.89,564.71z M155.94,602.72l27.3,37.92l25.92-1.13L155.94,602.72z M157.65,611.78l-25.47-23.06
	l7.84,21.18L157.65,611.78z M137.75,611.13l-17.07-14.63l12.85,32.03L137.75,611.13z M169.87,640.79l-13.81-10.36l3.72,10.29
	L169.87,640.79z"/>
<path class="Colour3 fill" d="M154.51,556.6l-52.01-3.56l27.72-8.31L154.51,556.6z M145.24,586.79l-36.53-28.41l12.44,19.99
	L145.24,586.79z M147.64,575.9l2.89,11.09l3.28,0.54L150.68,576L147.64,575.9z M153.08,576.54l2.94,11.23l3.33,0.94l-3.23-12.08
	L153.08,576.54z M158.56,577.14l3.13,12.08l3.48,0.94l-3.58-12.92L158.56,577.14z M164.05,577.73l3.43,12.77l3.48,0.94l-3.87-13.61
	L164.05,577.73z M169.63,578.13l3.57,13.61l3.48,0.94l-3.97-14.15L169.63,578.13z M175.16,578.77l3.97,14.45l3.48,0.94l-4.36-15.09
	L175.16,578.77z M180.45,579.31l4.26,15.05l3.28,0.59l-4.36-15.29L180.45,579.31z M185.94,579.81l4.6,16.18l3.28,0.59l-4.7-16.43
	L185.94,579.81z M191.62,580.8l4.6,16.18l3.28,0.59l-4.7-16.43L191.62,580.8z M197.3,581.19l4.9,17.32l3.28,0.59l-5-17.57
	L197.3,581.19z M202.78,581.79l5.04,17.77l2.6-1.53l-4.46-15.89L202.78,581.79z M208.07,582.23l4.21,14.95l2.6-1.53l-3.62-13.07
	L208.07,582.23z M213.65,582.83l3.18,11.33l2.6-1.53l-2.6-9.45L213.65,582.83z M219.14,583.57l2.45,8.02l2.6-1.53l-1.86-6.14
	L219.14,583.57z M224.43,584.21l1.47,4.8l2.6-1.53l-0.88-2.92L224.43,584.21z M229.15,584.73l0.64,2.3l2.6-1.53l-0.22-0.72
	L229.15,584.73z"/>
<path class="Colour2 fill" d="M107.03,633.62l-4.16-5.54l9.21-0.2l2.25,5.74H107.03z M110.31,622.98l-2.25-5.74l-14.1,0.2l4.16,5.54
	H110.31z M106.39,612.49l-2.25-5.74l-19.2,0.2l4.16,5.54H106.39z M102.23,601.8l-2.25-5.74l-24.05,0.2l4.16,5.54H102.23z
	 M98.46,591.16l-2.25-5.74l-20.76,0.2l-1.71,5.54H98.46z M94.25,580.52L92,574.78l-12.98,0.2l-1.71,5.54H94.25z M90.14,569.68
	l-2.2-5.64l-5.34,0.1l-1.71,5.54H90.14z M86.35,558.82l-0.99-2.75l-1.39,2.72L86.35,558.82z M97.01,439.92l-2.64-0.1l-1.71,3.22
	L97.01,439.92z M109.26,430.51l-10.38-0.05l-2.5,4.83l7.1,0.12L109.26,430.51z M100.79,426.01l17.09,0.05l0.44-5.25l-15.33,0.15
	L100.79,426.01z M107.54,411.51l-2.3,5.05l14.01-0.2l0.1-5L107.54,411.51z M111.66,402.06l-2.35,5.15l10.97,0.15l-0.05-5.34
	L111.66,402.06z M121.11,398.1l0.34-5.25l-5.29,0.05l-2.47,5.25L121.11,398.1z M120.47,383.28l-2.42,5.2h3.87l0.69-5.2
	L120.47,383.28z M115.08,486.74l11.36-7.52l24.68-88.69l-27.23,42.76L115.08,486.74z M258.91,430.64l-124.39,51.67l-15.48,27.52
	L258.91,430.64z M153.69,640.53l-0.54-3.56l-8.57-0.1l-1.66,3.27L153.69,640.53z M152.02,634.3l-0.32-3.56l-5.03-0.1l-0.98,3.27
	L152.02,634.3z M150.55,628.01l-0.32-3.56l-0.91,0.1l-0.98,3.27L150.55,628.01z"/>
<path class="Colour4 fill" d="M250.43,598.96l-10.97-13.07l38.88,9.9L250.43,598.96z M153.1,594.41l53.48,36.23l53.48-9.6L153.1,594.41z
	 M107.8,561.2l-17.24-6.93l34.33,85.37l3.41,0.11L107.8,561.2z"/>
<path class="Colour7 fill" d="M95.84,540.21l-24.78-15.54l53.38-38.6L95.84,540.21z M92.17,410.1l-13.09,11.02l-7.83,49.92l3.78,27.36
	L92.17,410.1z M186.39,396.27l-32.91,8.86l-15.08,51.82L186.39,396.27z M156.17,403.46l2.5-0.71l0.05-4.4l-2.47,2.28L156.17,403.46z
	 M161.46,401.97l2.5-0.8l0.05-8.24l-2.52,2.69L161.46,401.97z M166.26,400.5l3.13-0.89l-0.17-12.5l-2.92,3.22L166.26,400.5z
	 M171.35,399.36l2.89-0.97l-0.17-17.12l-2.92,3.97L171.35,399.36z M176.2,397.83l2.89-0.68l-0.17-22.16L176,379.4L176.2,397.83z
	 M181.49,396.14l2.89-0.68l-0.51-25.88l-2.92,4.42L181.49,396.14z M186.34,394.96l2.89-0.68l-0.56-29.64l-2.92,4.42L186.34,394.96z
	 M122.18,514.38l31.93,5.15l103.82-66.91L122.18,514.38z M157.88,543.14L274,531.42l-0.75-3.73l-152.2-0.2L157.88,543.14z
	 M244.56,560.06l-15.08-18.21l-67.68,5.64l-3.33,6.73L244.56,560.06z M247.22,357.64h1.37v-2.28h-1.37V357.64z M240.95,358.58h3.62
	v-3.81h-3.62V358.58z M234.21,359.27h3.89v-5h-3.89V359.27z M227.95,359.62h3.89v-5h-3.89V359.62z M224.93,357.34l-3.75,2.13
	l-0.15,0.89h3.89V357.34z M249.13,363.57l-2.28,0.27v2.28l2.28-0.27V363.57z M244.18,364.47l-3.7,0.82l-0.1,3.22l3.7-0.82
	L244.18,364.47z M237.81,366l-3.7,0.82l-0.2,4.26l3.7-0.82L237.81,366z M231.01,367.44l-3.7,0.82l0,5.44l3.7-0.82L231.01,367.44z
	 M224.1,370.5l-3.84,4.28l0.2,1.78l3.94-1.46L224.1,370.5z M249.62,370.21l-2.72,1.46l0.34,3.07l2.38-2.25V370.21z M243.98,374.26
	l-3.92,2.11l0.15,4.43l3.92-2.8L243.98,374.26z M237.08,378.97l-3.77,2.7l0.3,5.17l3.77-2.7L237.08,378.97z M230.81,382.78
	l-4.12,3.69l-0.04,7.15l4.45-3.6L230.81,382.78z M249.76,381.24l-3.43,3.94l0.2,5.02l3.38-5.23L249.76,381.24z M243.2,389.76
	l-3.43,3.94l0.1,9.08l3.77-5.23L243.2,389.76z M236.64,398.07l-1.47,1.27l0.3,10.86l1.52-1.07L236.64,398.07z"/>
<path class="Colour1 fill" d="M301.93,175.04c-1.85-0.03-4.62-0.28-7.7-1.4c-9.83-3.58-15.42-13.38-18.81-22.07l-0.17,0.72
	c-23.82,82.66-27.23,150.77-26.12,196.39c1.42,57.99,10.84,107.74,21.47,163.85c9.17,48.41,26.63,116.6,26.63,116.6
	c13.43-2.62,25.91-5.49,37.37-8.42c-16.29-70.93-29.55-138.78-40.37-203.13c-15.23-90.5-20.89-145.81-2.58-210.95
	c3.53-12.56,10.56-31.53,10.58-31.58L301.93,175.04z"/>
<path class="Colour1 fill" d="M33.33,175.38c2.62-0.44,6.34-1.36,10.31-3.47c8.05-4.28,13.62-11.58,17.95-22.3l0.18,0.72
	c25.94,99.42,26,177.55,21.81,228.37c-3.37,40.89-11.27,85.66-16.32,114.3c-9.84,55.78-29.29,135.77-29.29,135.77
	c-12.78-2.53-24.66-5.28-35.57-8.06c1.81-7.42,42.11-174.52,49.82-289.08c3.34-49.6,0.52-88.71-10.31-128.48
	c-3-11.01-6.16-20.42-8.87-27.78L33.33,175.38z"/>
<g>
	<path class="st1" d="M249.58,348.68c1.42,57.99,10.84,107.74,21.47,163.85c9.17,48.41,26.63,116.6,26.63,116.6
		c13.43-2.62,25.91-5.49,37.37-8.42c-16.29-70.93-29.55-138.78-40.37-203.13c-15.23-90.5-20.89-145.81-2.58-210.95
		c3.53-12.56,10.56-31.53,10.58-31.58l-0.3,0c-1.85-0.03-4.62-0.28-7.7-1.4c-9.83-3.58-15.42-13.38-18.81-22.07l-0.17,0.72
		C251.87,234.95,248.46,303.06,249.58,348.68z"/>
	<path class="st1" d="M2.85,620.71c10.91,2.79,22.78,5.53,35.57,8.06c0,0,19.45-79.99,29.29-135.77
		c5.05-28.64,12.95-73.42,16.32-114.3c4.19-50.82,4.13-128.95-21.81-228.37l-0.18-0.72c-4.33,10.72-9.9,18.02-17.95,22.3
		c-3.97,2.11-7.68,3.03-10.31,3.47l-0.28,0c2.7,7.36,5.87,16.77,8.87,27.78c10.83,39.77,13.65,78.88,10.31,128.48
		C44.96,446.19,4.66,613.29,2.85,620.71z"/>
</g>
<path class="NeckAndArmTrim fill" d="M33.21,175.38c2.62-0.44,6.34-1.36,10.31-3.47c11.71-6.22,18.18-18.85,23.19-39.06
	c5.93-23.88,5.67-41.65,6.01-78.13c0.19-20.26,0.47-36.36,0.64-45.31l-6.65,1.9c0,4,0.01,10.03,0,17.36
	c-0.04,43.04-0.08,64.71-0.86,72.05c-1.8,16.94-6.47,60.96-28.35,67.71c-2.78,0.86-5.25,0.93-6.87,0.87L33.21,175.38z"/>
<path class="NeckAndArmTrim fill" d="M302.23,175.05c-1.84-0.01-4.75-0.22-8-1.41c-14.24-5.18-19.58-23.42-22.23-32.44
	c-11.48-39.17-8.94-124.16-8.7-131.63l6.01,1.74c-0.2,6.16-2.95,100.78,9.45,132.82c2.77,7.17,8.95,23.13,20.62,25.17
	c2.2,0.39,4.07,0.18,5.15,0L302.23,175.05z"/>
<g id="BBodyLogos"></g>
</svg>
