<?xml version="1.0" encoding="utf-8"?>
<!-- Generator: Adobe Illustrator 19.1.0, SVG Export Plug-In . SVG Version: 6.00 Build 0)  -->
<svg version="1.1" id="Layer_1" xmlns="http://www.w3.org/2000/svg" xmlns:xlink="http://www.w3.org/1999/xlink" x="0px" y="0px"
	 viewBox="0 0 335.2 641.14" style="enable-background:new 0 0 335.2 641.14;" xml:space="preserve">
<style type="text/css">
	<![CDATA[
	@font-face{font-family:'codaheavy';src:url('/fonts/coda-heavy-webfont.woff') format('woff')}
	text{font-family:Impact,codaheavy,sans-serif}
	.Number.fill{fill:#000}
	.NumberOutline.stroke{fill:none;stroke:#777;stroke-width:2.5}
	.Colour1.fill{fill:#E27225;}
	.Colour2.fill{fill:#154A93;}
	.NeckAndArmTrim.fill{fill:#154A93;stroke:#000000;stroke-miterlimit:10;}
	.st0{fill:none;stroke:#000000;stroke-miterlimit:10;}
	.st1{fill:#FFFFFF;stroke:#000000;}
	.st2{fill:none;stroke:#000000;stroke-linecap:round;stroke-linejoin:round;}
	]]>
</style>
<path class="Colour1 fill" d="M0.6,620.69c43.51,11.08,102.43,21.48,172.43,20.85c64.42-0.58,119.02-10.32,160.36-20.85
	c-16.35-70.98-29.65-138.88-40.52-203.28c-15.28-90.56-20.96-145.91-2.59-211.1c4.47-15.84,9.33-28.64,12.93-37.35
	c-1.09,0.18-2.96,0.39-5.17,0c-11.71-2.05-17.91-18.02-20.69-25.19c-12.44-32.06-9.68-126.75-9.48-132.91
	c-13.79-3.76-27.59-7.53-41.38-11.29c0,22.71-121.56,22.71-121.56,0C91.7,3.33,78.48,7.1,65.26,10.86c0,4,0.01,10.04,0,17.37
	c-0.04,43.07-0.08,64.76-0.86,72.1c-1.81,16.96-6.5,61-28.45,67.76c-2.79,0.86-5.27,0.93-6.9,0.87c3.09,7.92,7.29,19.54,11.21,33.88
	c10.87,39.79,13.7,78.93,10.35,128.57C42.87,446.06,2.42,613.27,0.6,620.69z"/>
<polygon class="Colour2 fill" points="200.01,501.48 200.52,500.97 200.01,500.46 199.5,500.97 "/>
<polygon class="Colour2 fill" points="200.01,526.81 201.23,525.59 200.01,524.36 198.79,525.59 "/>
<polygon class="Colour2 fill" points="200.01,552.35 202.14,550.2 200.01,548.05 197.87,550.2 "/>
<rect x="199.94" y="476.28" transform="matrix(0.7041 0.7101 -0.7101 0.7041 397.4369 -1.0744)" class="Colour2 fill" width="0.14" height="0.14"/>
<polygon class="Colour2 fill" points="224.44,551.74 225.96,550.2 224.44,548.67 222.91,550.2 "/>
<polygon class="Colour2 fill" points="200.01,604.04 204.58,599.43 200.01,594.83 195.43,599.43 "/>
<polygon class="Colour2 fill" points="200.01,630.09 206,624.05 200.01,618.01 194.01,624.05 "/>
<polygon class="Colour2 fill" points="200.01,578.09 203.26,574.82 200.01,571.54 196.76,574.82 "/>
<polygon class="Colour2 fill" points="224.44,577.27 226.88,574.82 224.44,572.36 222,574.82 "/>
<polygon class="Colour2 fill" points="224.44,526.3 225.15,525.59 224.44,524.87 223.73,525.59 "/>
<path class="Colour2 fill" d="M34.58,500.97L29,495.34l-1.93,1.94c-0.4,2.08-0.79,4.14-1.19,6.19L29,506.6L34.58,500.97z"/>
<path class="Colour2 fill" d="M151.15,638.63l-2.66,2.68c1.81,0.05,3.62,0.1,5.45,0.13L151.15,638.63z"/>
<polygon class="Colour2 fill" points="175.58,501.89 176.49,500.97 175.58,500.05 174.66,500.97 "/>
<polygon class="Colour2 fill" points="159.38,624.05 151.15,615.76 142.92,624.05 151.15,632.34 "/>
<polygon class="Colour2 fill" points="144.64,599.43 151.15,605.99 157.65,599.43 151.15,592.88 "/>
<polygon class="Colour2 fill" points="175.58,553.07 178.42,550.2 175.58,547.33 172.73,550.2 "/>
<polygon class="Colour2 fill" points="175.58,604.96 181.06,599.43 175.58,593.9 170.09,599.43 "/>
<polygon class="Colour2 fill" points="175.58,631.22 182.69,624.05 175.58,616.88 168.46,624.05 "/>
<path class="Colour2 fill" d="M175.58,639.86l-1.65,1.67c1.09-0.01,2.17-0.04,3.25-0.06L175.58,639.86z"/>
<polygon class="Colour2 fill" points="175.58,527.43 177.41,525.59 175.58,523.74 173.75,525.59 "/>
<polygon class="Colour2 fill" points="175.58,579.02 179.74,574.82 175.58,570.62 171.41,574.82 "/>
<rect x="224.29" y="500.83" transform="matrix(0.7036 0.7106 -0.7106 0.7036 422.4919 -11.0043)" class="Colour2 fill" width="0.29" height="0.29"/>
<polygon class="Colour2 fill" points="224.44,629.07 229.42,624.05 224.44,619.03 219.46,624.05 "/>
<polygon class="Colour2 fill" points="248.87,628.14 252.93,624.05 248.87,619.95 244.8,624.05 "/>
<polygon class="Colour2 fill" points="224.44,603.12 228.1,599.43 224.44,595.75 220.78,599.43 "/>
<rect x="297.58" y="550.06" transform="matrix(0.7033 0.7109 -0.7109 0.7033 479.4655 -48.4099)" class="Colour2 fill" width="0.29" height="0.29"/>
<polygon class="Colour2 fill" points="297.73,575.53 298.44,574.82 297.73,574.1 297.02,574.82 "/>
<polygon class="Colour2 fill" points="248.87,551.12 249.78,550.2 248.87,549.28 247.95,550.2 "/>
<polygon class="Colour2 fill" points="248.87,602.3 251.71,599.43 248.87,596.57 246.02,599.43 "/>
<rect x="248.65" y="525.37" transform="matrix(0.7051 0.7091 -0.7091 0.7051 446.1153 -21.4693)" class="Colour2 fill" width="0.43" height="0.43"/>
<polygon class="Colour2 fill" points="297.73,600.97 299.25,599.43 297.73,597.9 296.2,599.43 "/>
<polygon class="Colour2 fill" points="248.87,576.66 250.7,574.82 248.87,572.97 247.04,574.82 "/>
<polygon class="Colour2 fill" points="273.3,576.05 274.52,574.82 273.3,573.59 272.08,574.82 "/>
<polygon class="Colour2 fill" points="151.15,579.94 156.23,574.82 151.15,569.7 146.07,574.82 "/>
<polygon class="Colour2 fill" points="273.3,627.33 276.55,624.05 273.3,620.77 270.05,624.05 "/>
<polygon class="Colour2 fill" points="297.73,626.51 300.17,624.05 297.73,621.59 295.29,624.05 "/>
<rect x="273.23" y="525.51" transform="matrix(0.7051 0.7091 -0.7091 0.7051 453.3207 -38.7939)" class="Colour2 fill" width="0.14" height="0.14"/>
<polygon class="Colour2 fill" points="273.3,550.71 273.81,550.2 273.3,549.69 272.79,550.2 "/>
<polygon class="Colour2 fill" points="273.3,601.58 275.43,599.43 273.3,597.28 271.16,599.43 "/>
<path class="Colour2 fill" d="M320.56,623.82c0.87-0.2,1.73-0.41,2.59-0.61l-0.99-1L320.56,623.82z"/>
<polygon class="Colour2 fill" points="321.24,599.43 322.16,600.35 323.07,599.43 322.16,598.51 "/>
<path class="Colour2 fill" d="M16.56,574.82l-4.44-4.48c-0.88,4.03-1.73,7.87-2.54,11.51L16.56,574.82z"/>
<rect x="321.94" y="574.6" transform="matrix(0.705 0.7092 -0.7092 0.705 502.739 -58.896)" class="Colour2 fill" width="0.43" height="0.43"/>
<rect x="175.36" y="476.14" transform="matrix(0.7046 0.7096 -0.7096 0.7046 389.8634 16.1126)" class="Colour2 fill" width="0.43" height="0.43"/>
<polygon class="Colour2 fill" points="77.86,453.27 79.38,451.74 77.86,450.2 76.33,451.74 "/>
<polygon class="Colour2 fill" points="77.86,504.66 81.51,500.97 77.86,497.28 74.2,500.97 "/>
<polygon class="Colour2 fill" points="77.86,478.91 80.4,476.35 77.86,473.79 75.32,476.35 "/>
<path class="Colour2 fill" d="M78.6,635.28l11.15-11.23l-11.89-11.98l-11.5,11.59l-12.85-12.94l11.2-11.28l-11.28-11.36l-11.28,11.36
	l11.2,11.28l-11.42,11.51l-11.47-11.56l11.15-11.23L29,586.74l-11.5,11.59l-9.47-9.54c-4.13,18.33-6.97,30.06-7.42,31.91
	c11.6,2.95,24.3,5.86,38.01,8.52l3.32-3.34l4.84,4.87c3.73,0.68,7.53,1.33,11.39,1.96l8.21-8.27l10.76,10.84l-0.23,0.23
	c0.74,0.1,1.48,0.19,2.22,0.29L78.6,635.28z M7.49,610.62l10-10.08l10.05,10.13l-10,10.08L7.49,610.62z"/>
<rect x="77.71" y="402.36" transform="matrix(0.7051 0.7091 -0.7091 0.7051 308.3968 63.5023)" class="Colour2 fill" width="0.29" height="0.29"/>
<polygon class="Colour2 fill" points="77.86,427.84 78.57,427.12 77.86,426.41 77.14,427.12 "/>
<polygon class="Colour2 fill" points="77.86,583.11 86.09,574.82 77.86,566.52 69.63,574.82 "/>
<polygon class="Colour2 fill" points="95.17,574.82 102.29,581.98 109.4,574.82 102.29,567.65 "/>
<polygon class="Colour2 fill" points="77.86,609.47 87.81,599.43 77.86,589.4 67.9,599.43 "/>
<polygon class="Colour2 fill" points="77.86,556.86 84.46,550.2 77.86,543.55 71.25,550.2 "/>
<polygon class="Colour2 fill" points="77.86,530.71 82.94,525.59 77.86,520.47 72.77,525.59 "/>
<polygon class="Colour2 fill" points="100.46,476.35 102.29,478.2 104.12,476.35 102.29,474.51 "/>
<polygon class="Colour2 fill" points="126.72,580.86 132.71,574.82 126.72,568.78 120.72,574.82 "/>
<polygon class="Colour2 fill" points="126.72,633.47 136.07,624.05 126.72,614.63 117.37,624.05 "/>
<polygon class="Colour2 fill" points="126.72,607.11 134.34,599.43 126.72,591.75 119.1,599.43 "/>
<polygon class="Colour2 fill" points="126.72,554.81 131.29,550.2 126.72,545.59 122.14,550.2 "/>
<polygon class="Colour2 fill" points="126.72,528.86 129.97,525.59 126.72,522.31 123.46,525.59 "/>
<polygon class="Colour2 fill" points="126.72,503.12 128.85,500.97 126.72,498.82 124.58,500.97 "/>
<polygon class="Colour2 fill" points="151.15,477.07 151.86,476.35 151.15,475.64 150.44,476.35 "/>
<polygon class="Colour2 fill" points="151.15,528.04 153.59,525.59 151.15,523.13 148.71,525.59 "/>
<polygon class="Colour2 fill" points="151.15,502.51 152.67,500.97 151.15,499.43 149.62,500.97 "/>
<rect x="151" y="451.59" transform="matrix(0.7038 0.7104 -0.7104 0.7038 365.692 26.4347)" class="Colour2 fill" width="0.29" height="0.29"/>
<polygon class="Colour2 fill" points="99.44,500.97 102.29,503.84 105.13,500.97 102.29,498.1 "/>
<polygon class="Colour2 fill" points="93.45,599.43 102.29,608.34 111.13,599.43 102.29,590.53 "/>
<polygon class="Colour2 fill" points="102.29,452.66 103.2,451.74 102.29,450.82 101.37,451.74 "/>
<polygon class="Colour2 fill" points="126.72,477.58 127.94,476.35 126.72,475.13 125.5,476.35 "/>
<polygon class="Colour2 fill" points="96.7,550.2 102.29,555.83 107.87,550.2 102.29,544.57 "/>
<polygon class="Colour2 fill" points="98.12,525.59 102.29,529.78 106.45,525.59 102.29,521.39 "/>
<polygon class="Colour2 fill" points="151.15,553.89 154.8,550.2 151.15,546.52 147.49,550.2 "/>
<polygon class="Colour2 fill" points="126.72,452.25 127.23,451.74 126.72,451.23 126.21,451.74 "/>
<rect x="102.07" y="426.91" transform="matrix(0.705 0.7092 -0.7092 0.705 333.1147 53.4722)" class="Colour2 fill" width="0.43" height="0.43"/>
<rect x="126.64" y="427.05" transform="matrix(0.7051 0.7091 -0.7091 0.7051 340.2639 36.1131)" class="Colour2 fill" width="0.14" height="0.14"/>
<polygon class="Colour2 fill" points="112.96,624.05 102.29,613.3 91.62,624.05 102.29,634.8 "/>
<polygon class="Colour2 fill" points="53.43,453.89 55.56,451.74 53.43,449.59 51.29,451.74 "/>
<path class="Colour2 fill" d="M102.29,635.97l-2.24,2.26c1.65,0.16,3.3,0.33,4.96,0.48L102.29,635.97z"/>
<polygon class="Colour2 fill" points="50.17,476.35 53.43,479.63 56.68,476.35 53.43,473.08 "/>
<polygon class="Colour2 fill" points="62.77,574.82 53.43,565.4 44.08,574.82 53.43,584.24 "/>
<path class="Colour2 fill" d="M126.72,637.3l-2.86,2.88c2.01,0.13,4.04,0.25,6.08,0.36L126.72,637.3z"/>
<polygon class="Colour2 fill" points="53.43,403.02 53.93,402.51 53.43,401.99 52.92,402.51 "/>
<path class="Colour2 fill" d="M33.16,476.35l-1.86-1.88c-0.28,1.53-0.55,3.07-0.83,4.59L33.16,476.35z"/>
<polygon class="Colour2 fill" points="20.15,550.2 29,559.11 37.84,550.2 29,541.29 "/>
<polygon class="Colour2 fill" points="39.67,574.82 29,564.07 18.33,574.82 29,585.57 "/>
<rect x="53.35" y="377.82" transform="matrix(0.7038 0.7104 -0.7104 0.7038 284.2825 73.9814)" class="Colour2 fill" width="0.14" height="0.14"/>
<polygon class="Colour2 fill" points="47.33,525.59 53.43,531.73 59.52,525.59 53.43,519.44 "/>
<polygon class="Colour2 fill" points="48.85,500.97 53.43,505.58 58,500.97 53.43,496.36 "/>
<polygon class="Colour2 fill" points="45.8,550.2 53.43,557.88 61.05,550.2 53.43,542.52 "/>
<polygon class="Colour2 fill" points="53.43,428.35 54.64,427.12 53.43,425.89 52.21,427.12 "/>
<polygon class="Colour2 fill" points="21.88,525.59 29,532.75 36.11,525.59 29,518.42 "/>
<polygon class="Colour2 fill" points="190.8,214.65 188.22,217.24 190.8,219.84 193.38,217.24 "/>
<polygon class="Colour2 fill" points="190.8,68.32 180.78,78.43 190.8,88.53 200.83,78.43 "/>
<polygon class="Colour2 fill" points="190.8,178.5 186.79,182.54 190.8,186.58 194.81,182.54 "/>
<polygon class="Colour2 fill" points="190.8,105.19 182.92,113.13 190.8,121.07 198.68,113.13 "/>
<polygon class="Colour2 fill" points="190.8,141.92 184.93,147.84 190.8,153.75 196.68,147.84 "/>
<polygon class="Colour2 fill" points="225.25,66.74 213.64,78.43 225.25,90.12 236.85,78.43 "/>
<polygon class="Colour2 fill" points="225.25,29.58 211.21,43.73 225.25,57.87 239.28,43.73 "/>
<polygon class="Colour2 fill" points="190.37,286.65 190.8,287.08 191.23,286.65 190.8,286.22 "/>
<polygon class="Colour2 fill" points="190.8,31.17 178.34,43.73 190.8,56.28 203.27,43.73 "/>
<polygon class="Colour2 fill" points="190.8,250.65 189.51,251.95 190.8,253.25 192.09,251.95 "/>
<polygon class="Colour2 fill" points="121.92,71.21 114.76,78.43 121.92,85.65 129.08,78.43 "/>
<path class="Colour2 fill" d="M121.92,20.71l7.18-7.23c-7.2-1.41-13.32-3.29-17.59-5.66l-1.19,1.2L121.92,20.71z"/>
<path class="Colour2 fill" d="M87.48,19.13l10.03-10.1L91.83,3.3c-4.04,1.15-8.08,2.3-12.12,3.45l-2.25,2.27L87.48,19.13z"/>
<polygon class="Colour2 fill" points="121.92,34.49 112.75,43.73 121.92,52.96 131.09,43.73 "/>
<polygon class="Colour2 fill" points="87.05,217.24 87.48,217.68 87.91,217.24 87.48,216.81 "/>
<polygon class="Colour2 fill" points="87.48,181.24 86.19,182.54 87.48,183.84 88.77,182.54 "/>
<polygon class="Colour2 fill" points="225.25,103.75 215.93,113.13 225.25,122.52 234.56,113.13 "/>
<rect x="121.72" y="251.74" transform="matrix(-0.7043 -0.7099 0.7099 -0.7043 28.9351 515.946)" class="Colour2 fill" width="0.41" height="0.41"/>
<polygon class="Colour2 fill" points="87.48,145.24 84.9,147.84 87.48,150.43 90.06,147.84 "/>
<polygon class="Colour2 fill" points="121.92,144.37 118.48,147.84 121.92,151.3 125.36,147.84 "/>
<polygon class="Colour2 fill" points="121.92,180.37 119.77,182.54 121.92,184.71 124.07,182.54 "/>
<polygon class="Colour2 fill" points="121.92,107.94 116.76,113.13 121.92,118.33 127.08,113.13 "/>
<polygon class="Colour2 fill" points="121.92,216.23 120.92,217.24 121.92,218.25 122.92,217.24 "/>
<polygon class="Colour2 fill" points="259.69,320.63 258.97,321.35 259.69,322.08 260.4,321.35 "/>
<rect x="259.59" y="355.96" transform="matrix(-0.7037 -0.7105 0.7105 -0.7037 189.4805 791.1268)" class="Colour2 fill" width="0.2" height="0.2"/>
<polygon class="Colour2 fill" points="259.69,248.92 256.68,251.95 259.69,254.98 262.7,251.95 "/>
<polygon class="Colour2 fill" points="259.69,284.92 257.97,286.65 259.69,288.38 261.41,286.65 "/>
<polygon class="Colour2 fill" points="259.69,212.62 255.1,217.24 259.69,221.86 264.27,217.24 "/>
<polygon class="Colour2 fill" points="225.25,285.64 224.24,286.65 225.25,287.66 226.25,286.65 "/>
<rect x="225.04" y="321.15" transform="matrix(-0.7051 -0.7091 0.7091 -0.7051 156.1947 707.665)" class="Colour2 fill" width="0.41" height="0.41"/>
<polygon class="Colour2 fill" points="225.25,140.62 218.08,147.84 225.25,155.05 232.41,147.84 "/>
<polygon class="Colour2 fill" points="225.25,249.78 223.1,251.95 225.25,254.11 227.39,251.95 "/>
<polygon class="Colour2 fill" points="259.69,176.04 253.24,182.54 259.69,189.04 266.13,182.54 "/>
<polygon class="Colour2 fill" points="225.25,213.63 221.66,217.24 225.25,220.85 228.83,217.24 "/>
<polygon class="Colour2 fill" points="225.25,177.34 220.09,182.54 225.25,187.74 230.4,182.54 "/>
<path class="Colour2 fill" d="M259.69,59.75l7.86-7.92c-0.07-5.82-0.08-11.31-0.07-16.27l-7.68-7.74l7.85-7.91
	c0.09-4.84,0.19-8.06,0.22-9.04c-7.55-2.06-15.1-4.12-22.64-6.18l-3.76,3.79l-6.56-6.61c-2.81-0.77-5.61-1.53-8.42-2.3
	c0,5.09-6.13,9.04-15.62,11.85l14.38,14.49l16.22-16.34l18.11,18.25l-15.79,15.91L259.69,59.75z"/>
<polygon class="Colour2 fill" points="259.69,102.31 248.94,113.13 259.69,123.96 270.43,113.13 "/>
<polygon class="Colour2 fill" points="259.69,139.18 251.09,147.84 259.69,156.5 268.28,147.84 "/>
<path class="Colour2 fill" d="M259.69,65.15l-13.18,13.28l13.18,13.28l8.79-8.86c-0.16-3.09-0.29-6.18-0.41-9.25L259.69,65.15z"/>
<polygon class="Colour2 fill" points="87.48,109.09 83.47,113.13 87.48,117.17 91.49,113.13 "/>
<polygon class="Colour2 fill" points="156.36,251.23 155.64,251.95 156.36,252.67 157.08,251.95 "/>
<rect x="156.26" y="286.55" transform="matrix(-0.7051 -0.7091 0.7091 -0.7051 63.3485 599.6458)" class="Colour2 fill" width="0.2" height="0.2"/>
<polygon class="Colour2 fill" points="156.36,179.51 153.35,182.54 156.36,185.57 159.37,182.54 "/>
<polygon class="Colour2 fill" points="156.36,215.51 154.64,217.24 156.36,218.98 158.08,217.24 "/>
<rect x="52.93" y="217.14" transform="matrix(-0.7042 -0.71 0.71 -0.7042 -63.8597 407.8811)" class="Colour2 fill" width="0.2" height="0.2"/>
<polygon class="Colour2 fill" points="87.48,35.93 79.74,43.73 87.48,51.52 95.21,43.73 "/>
<polygon class="Colour2 fill" points="156.36,143.22 151.78,147.84 156.36,152.46 160.95,147.84 "/>
<polygon class="Colour2 fill" points="53.04,181.82 52.32,182.54 53.04,183.26 53.75,182.54 "/>
<polygon class="Colour2 fill" points="87.48,72.51 81.6,78.43 87.48,84.35 93.35,78.43 "/>
<path class="Colour2 fill" d="M54.4,147.48c-0.18,0.42-0.36,0.84-0.54,1.26l0.89-0.9L54.4,147.48z"/>
<polygon class="Colour2 fill" points="147.91,78.43 156.36,86.95 164.81,78.43 156.36,69.91 "/>
<path class="Colour2 fill" d="M298.52,179.02l-4.39-4.42l-7.88,7.94l7.88,7.94l1.59-1.6c0.67-1.98,1.34-3.88,2-5.7
	C297.99,181.79,298.25,180.4,298.52,179.02z"/>
<polygon class="Colour2 fill" points="156.36,106.64 149.91,113.13 156.36,119.63 162.81,113.13 "/>
<polygon class="Colour2 fill" points="156.36,32.9 145.62,43.73 156.36,54.55 167.11,43.73 "/>
<path class="Colour2 fill" d="M162.05,16.57c-3.99-0.06-7.96-0.22-11.85-0.48l6.16,6.21L162.05,16.57z"/>
<path class="Colour2 fill" d="M190.8,24.18l10.4-10.48c-5.66,1.05-11.94,1.82-18.53,2.3L190.8,24.18z"/>
<path class="st0" d="M228.83,0.21c13.79,3.76,25.25,6.89,39.04,10.65c-0.2,6.16-2.96,100.85,9.48,132.91
	c2.78,7.17,8.98,23.15,20.69,25.19c2.21,0.39,4.09,0.18,5.17,0c-3.6,8.71-8.47,21.51-12.93,37.35
	c-18.38,65.18-12.7,120.54,2.59,211.1c10.87,64.39,24.18,132.3,40.52,203.28c-41.35,10.53-95.94,20.27-160.36,20.85
	c-70,0.63-128.92-9.77-172.43-20.85c1.82-7.43,42.27-174.64,50.01-289.28c3.35-49.63,0.53-88.77-10.35-128.57
	c-3.92-14.34-8.11-25.96-11.21-33.88c1.63,0.07,4.11-0.01,6.9-0.87c21.95-6.76,26.65-50.8,28.45-67.76
	c0.78-7.35,0.82-29.03,0.86-72.1c0.01-7.33,0-13.37,0-17.37C78.48,7.1,91.22,3.82,104.44,0.05"/>
<path class="st0" d="M234.58,1.45"/>
<path class="st0" d="M99.53,1.45"/>
<path class="st0" d="M98.13,1.85c9.78,6.23,35.6,20.83,71.39,20.13c32.89-0.64,56.56-13.85,66.44-20.15"/>
<g>
	<rect x="109.97" y="214.75" class="st1" width="31.9" height="12.16"/>
	<rect x="194.46" y="214.75" class="st1" width="31.9" height="12.16"/>
	<rect x="194.54" y="322.38" class="st1" width="31.9" height="12.16"/>
	<rect x="110.05" y="322.38" class="st1" width="31.9" height="12.16"/>
	<rect x="110.05" y="310.22" class="st1" width="31.9" height="12.16"/>
	<rect x="194.54" y="310.22" class="st1" width="31.9" height="12.16"/>
</g>
<path class="Colour2 fill" d="M301.81,174.71c-1.85-0.03-4.64-0.28-7.73-1.4c-9.87-3.58-15.48-13.39-18.88-22.09l-0.17,0.72
	c-23.91,82.72-27.33,150.88-26.21,196.53c1.42,58.03,10.88,107.82,21.55,163.97c9.2,48.44,26.73,116.68,26.73,116.68
	c13.48-2.63,26-5.5,37.5-8.42c-16.35-70.98-29.65-138.88-40.52-203.28c-15.28-90.56-20.96-145.91-2.59-211.1
	c3.54-12.57,10.6-31.55,10.62-31.6L301.81,174.71z"/>
<path class="Colour2 fill" d="M32.85,175.05c2.63-0.44,6.36-1.36,10.35-3.47c8.08-4.28,13.67-11.59,18.02-22.32l0.18,0.72
	c26.04,99.49,26.1,177.68,21.89,228.53C79.9,419.43,71.97,464.23,66.9,492.9c-9.88,55.82-29.4,135.87-29.4,135.87
	c-12.83-2.54-24.75-5.28-35.7-8.07c1.82-7.43,42.27-174.64,50.01-289.28c3.35-49.63,0.53-88.77-10.35-128.57
	c-3.01-11.02-6.19-20.43-8.9-27.8L32.85,175.05z"/>
<path class="st2" d="M297.64,628.89c13.04-2.56,25.18-5.35,36.35-8.2c-16.35-70.98-29.65-138.88-40.52-203.28
	c-15.28-90.56-20.96-145.91-2.59-211.1c3.57-12.67,7.4-23.4,10.63-31.64 M301.52,174.68c0.81-2.06,1.58-3.97,2.3-5.71
	c-1.09,0.18-2.96,0.39-5.17,0c-11.71-2.05-17.91-18.02-20.69-25.19c-12.44-32.06-9.68-126.75-9.48-132.91
	c-13.79-3.76-27.59-7.53-41.38-11.29c0,22.71-121.56,22.71-121.56,0C92.31,3.33,79.09,7.1,65.87,10.86c0,4,0.01,10.04,0,17.37
	c-0.04,43.07-0.08,64.76-0.86,72.1c-1.81,16.96-6.5,61-28.45,67.76c-2.79,0.86-5.27,0.93-6.9,0.87c3.09,7.92,7.29,19.54,11.21,33.88
	c10.87,39.79,13.7,78.93,10.35,128.57c-7.74,114.64-48.19,281.85-50,289.28c43.51,11.08,102.43,21.48,172.43,20.85
	c47.02-0.42,88.79-5.72,124.01-12.65 M301.52,174.68c-1.8-0.09-4.21-0.41-6.84-1.37c-9.87-3.58-15.48-13.39-18.88-22.09l-0.17,0.72
	c-23.91,82.72-27.33,150.88-26.21,196.53c1.42,58.03,10.88,107.82,21.55,163.97c8.9,46.83,25.57,112.15,26.67,116.45 M61,149.98
	l-0.18-0.72c-4.34,10.72-9.94,18.03-18.02,22.32c-3.98,2.11-7.71,3.03-10.35,3.47l-0.28,0c2.71,7.36,5.89,16.78,8.9,27.8
	c10.87,39.79,13.7,78.93,10.35,128.57C43.68,446.06,3.23,613.27,1.41,620.69c10.95,2.79,22.87,5.53,35.7,8.07
	c0,0,19.52-80.04,29.4-135.87c5.07-28.66,13-73.47,16.38-114.38C87.09,327.66,87.03,249.47,61,149.98z"/>
<path class="NeckAndArmTrim fill" d="M32.1,175.05c2.63-0.44,6.36-1.36,10.35-3.47c11.75-6.23,18.24-18.86,23.28-39.09
	c5.95-23.9,5.69-41.68,6.04-78.18c0.19-20.28,0.47-36.38,0.64-45.34l-6.68,1.9c0,4,0.01,10.04,0,17.37
	c-0.04,43.07-0.08,64.76-0.86,72.1c-1.81,16.96-6.5,61-28.45,67.76c-2.79,0.86-5.27,0.93-6.9,0.87L32.1,175.05z"/>
<path class="NeckAndArmTrim fill" d="M302.11,174.72c-1.84-0.01-4.77-0.22-8.03-1.41c-14.29-5.19-19.66-23.43-22.31-32.46
	c-11.52-39.2-8.98-124.25-8.73-131.73l6.04,1.74c-0.2,6.16-2.96,100.85,9.48,132.91c2.78,7.17,8.98,23.15,20.69,25.19
	c2.21,0.39,4.09,0.18,5.17,0L302.11,174.72z"/>
<path class="NeckAndArmTrim fill" d="M98.13,1.85c9.78,6.23,35.6,20.83,71.39,20.13c32.89-0.64,56.56-13.85,66.44-20.15l-8.27-2.26
	c-10.15,5.48-31.3,15.13-59.67,15.38c-29.63,0.26-51.7-9.88-61.9-15.38L98.13,1.85z"/>
<g id="BBodyLogos"></g>
</svg>
