<?xml version="1.0" encoding="utf-8"?>
<!-- Generator: Adobe Illustrator 19.1.0, SVG Export Plug-In . SVG Version: 6.00 Build 0)  -->
<svg version="1.1" id="Layer_1" xmlns="http://www.w3.org/2000/svg" xmlns:xlink="http://www.w3.org/1999/xlink" x="0px" y="0px"
	 viewBox="0 0 335.2 641.14" style="enable-background:new 0 0 335.2 641.14;" xml:space="preserve">
<style type="text/css">
	<![CDATA[
	@font-face{font-family:'codaheavy';src:url('/fonts/coda-heavy-webfont.woff') format('woff')}
	text{font-family:Impact,codaheavy,sans-serif}
	.Colour1.fill{fill:#064246;}
	.Colour2.fill{fill:#16A185;}
	.Colour3.fill{fill:#0A4849;}
	.NeckAndArmTrim.fill{fill:#16A185;stroke:#000000;stroke-miterlimit:10;}
	.st0{fill:url(#SVGID_1_);}
	.st1{fill:#118D76;}
	.st2{fill:#0E7C67;}
	.st3{fill:none;stroke:#000000;stroke-miterlimit:10;}
	.st4{fill:#FFFFFF;stroke:#000000;}
	.st5{fill:none;stroke:#000000;stroke-linecap:round;stroke-linejoin:round;}
	]]>
</style>
<path class="Colour1 fill" d="M291.34,206.32c4.48-15.84,9.37-28.64,12.98-37.35c-1.09,0.18-2.97,0.39-5.19,0
	c-11.75-2.05-17.97-18.02-20.77-25.19c-12.48-32.06-9.72-126.75-9.52-132.91c-13.84-3.76-27.69-7.53-41.53-11.29
	c-2.39,18.33-9.83,53.47-37.21,84.26c-8.08,9.09-16.47,16.19-24.23,21.72c-7.75-5.49-16.15-12.58-24.23-21.72
	c-27.32-30.9-34.24-66.28-36.34-84.26C92.03,3.33,78.76,7.1,65.5,10.86c0,4,0.01,10.04,0,17.37c-0.04,43.07-0.08,64.76-0.86,72.1
	c-1.81,16.96-6.52,61-28.55,67.76c-2.8,0.86-5.28,0.93-6.92,0.87c3.11,7.92,7.32,19.54,11.25,33.88
	c10.91,39.79,13.75,78.93,10.38,128.57C43.02,446.06,2.42,613.27,0.6,620.69c43.67,11.08,102.8,21.48,173.06,20.85
	c64.65-0.58,119.45-10.32,160.94-20.85c-16.41-70.98-29.76-138.88-40.67-203.28C278.59,326.86,272.89,271.5,291.34,206.32z"/>
<path class="Colour3 fill" d="M268.62,72.71c0.16,4.34,0.35,8.73,0.6,13.1l-47.38-61.47c0.92-3.23,1.69-6.34,2.35-9.28L268.62,72.71z
	 M216.57,39.9l54.66,70.92c-0.51-4.52-0.94-9.23-1.3-14.02l-50.31-65.27C218.71,34.26,217.7,37.05,216.57,39.9z M252,6.39
	c-4.01-1.09-8.01-2.18-12.02-3.27l28.07,36.41c0-4.47,0.03-8.59,0.07-12.24L252,6.39z M230.18,0.46c-1.09-0.3-2.18-0.59-3.27-0.89
	c-0.29,2.26-0.67,4.77-1.14,7.5l42.54,55.18c-0.1-4.33-0.17-8.55-0.21-12.6L230.18,0.46z M268.28,17.45
	c0.07-3.47,0.14-5.78,0.17-6.59c-2.21-0.6-4.42-1.2-6.64-1.8L268.28,17.45z M180.76,93.02c-1.88,1.77-3.76,3.44-5.63,5.02
	L283.6,238.77c0.56-3.3,1.17-6.61,1.85-9.92L180.76,93.02z M170.36,101.91c-1.65,1.28-3.28,2.51-4.88,3.65
	c-1.38-0.98-2.79-2.03-4.2-3.11L281.02,257.8c0.36-3.56,0.79-7.11,1.28-10.66L170.36,101.91z M116.63,44.53
	c-3.27-7.73-5.67-15.17-7.43-21.97L93.89,2.7c-2.6,0.74-5.2,1.47-7.8,2.21L116.63,44.53z M106.21,8.62
	c-0.57-3.35-0.99-6.39-1.3-9.05c-1.55,0.44-3.1,0.88-4.66,1.32L106.21,8.62z M199.11,72.06c-1.49,2.08-3.06,4.15-4.71,6.21
	l97.13,126.01c0.89-3.07,1.79-6.02,2.69-8.84L199.11,72.06z M190.35,83.08c-0.22,0.25-0.43,0.5-0.65,0.75
	c-1.5,1.69-3.02,3.29-4.54,4.85l102,132.33c0.72-3.09,1.48-6.2,2.31-9.33L190.35,83.08z M213.83,46.39
	c-1.12,2.51-2.34,5.04-3.66,7.58l66.6,86.41c-1.55-4.87-2.84-10.79-3.9-17.38L213.83,46.39z M206.96,59.86
	c-1.32,2.29-2.72,4.58-4.21,6.87l93.8,121.7c1.03-2.99,2.04-5.8,3.02-8.41L206.96,59.86z M26.73,497.49
	c-0.64,3.32-1.27,6.61-1.9,9.86l102.55,133.05c3.27,0.19,6.57,0.36,9.89,0.51L26.73,497.49z M30.1,479.48
	c-0.61,3.34-1.23,6.65-1.84,9.94l117,151.79c3.21,0.1,6.43,0.19,9.69,0.25L30.1,479.48z M23.25,515.35
	c-0.66,3.31-1.31,6.57-1.96,9.78l87.82,113.93c3.34,0.29,6.71,0.55,10.11,0.79L23.25,515.35z M36.48,442.99
	c-0.56,3.38-1.13,6.76-1.7,10.12l145.15,188.31c3.13-0.06,6.24-0.14,9.32-0.24L36.48,442.99z M44.82,386.66
	c-0.45,3.49-0.91,7-1.39,10.52l186.15,241.5c2.97-0.27,5.91-0.57,8.82-0.88L44.82,386.66z M47.13,367.29
	c-0.39,3.55-0.81,7.12-1.24,10.72l199.64,259.01c2.92-0.34,5.82-0.69,8.69-1.06L47.13,367.29z M39.45,424.46
	c-0.53,3.41-1.07,6.82-1.61,10.23l158.96,206.23c3.08-0.13,6.11-0.3,9.14-0.48L39.45,424.46z M19.67,533.09
	c-0.68,3.3-1.35,6.54-2.01,9.72l72.76,94.39c3.41,0.39,6.86,0.76,10.35,1.1L19.67,533.09z M42.24,405.7c-0.49,3.45-1,6.9-1.51,10.36
	l172.59,223.92c3.02-0.21,6.02-0.42,8.99-0.67L42.24,405.7z M33.36,461.32c-0.59,3.36-1.18,6.7-1.78,10.02l131.19,170.2
	c3.14,0.02,6.31,0.02,9.5,0L33.36,461.32z M0.38,619.98c-0.07,0.3-0.14,0.56-0.18,0.72c0.3,0.08,0.6,0.15,0.9,0.23L0.38,619.98z
	 M298.82,168.98l3.34,4.33c0.61-1.54,1.21-3,1.76-4.35C302.84,169.15,301,169.34,298.82,168.98z M49.12,347.49
	c-0.32,3.62-0.67,7.28-1.05,10.97l213.17,276.56c2.88-0.4,5.72-0.83,8.53-1.26L49.12,347.49z M12.23,568.2
	c-0.73,3.32-1.43,6.52-2.11,9.59l41.51,53.85c3.57,0.62,7.19,1.21,10.88,1.79L12.23,568.2z M4.43,602.85
	c-0.85,3.67-1.6,6.84-2.22,9.45l8.44,10.95c3.75,0.89,7.58,1.77,11.53,2.63L4.43,602.85z M15.99,550.7c-0.7,3.3-1.39,6.52-2.06,9.65
	l57.34,74.39c3.48,0.5,7.02,0.97,10.6,1.43L15.99,550.7z M8.38,585.59c-0.76,3.38-1.48,6.57-2.16,9.53l25.23,32.73
	c3.65,0.75,7.38,1.47,11.18,2.18L8.38,585.59z M50.66,327.09c-0.09,1.44-0.16,2.86-0.26,4.32c-0.16,2.31-0.33,4.65-0.51,7
	l226.8,294.24c2.84-0.46,5.64-0.94,8.4-1.43L50.66,327.09z M65.06,54.82c-0.01,4.43-0.02,8.52-0.04,12.27L283.47,350.5
	c-0.59-4.89-1.12-9.69-1.6-14.4L65.06,54.82z M64.95,77.06c-0.04,4.72-0.1,8.74-0.18,12.1l222.38,288.51
	c-0.77-5.15-1.48-10.18-2.15-15.12L64.95,77.06z M58.26,135.52c-0.81,2.97-1.74,5.89-2.78,8.72L301.7,463.69
	c-0.99-5.39-1.95-10.75-2.9-16.09L58.26,135.52z M61.97,117.96c-0.51,3.2-1.12,6.54-1.85,9.92L296.5,434.56
	c-0.93-5.31-1.86-10.63-2.75-15.9L61.97,117.96z M64.38,98.7c-0.04,0.61-0.09,1.15-0.14,1.64c-0.27,2.52-0.6,5.64-1.05,9.14
	L291.6,405.81c-0.88-5.32-1.72-10.51-2.52-15.6L64.38,98.7z M79.73,6.71c-2.6,0.74-5.2,1.47-7.8,2.21L279.6,278.34
	c0.14-3.86,0.35-7.7,0.62-11.52L79.73,6.71z M279.4,288.14L65.58,10.73c-0.16,0.04-0.32,0.09-0.48,0.13c0,2.89,0.01,6.85,0,11.58
	l214.43,278.19C279.42,296.42,279.38,292.26,279.4,288.14z M65.1,32.49c0,4.33-0.01,8.43-0.01,12.31l215.77,279.93
	c-0.37-4.57-0.66-9.06-0.9-13.49L65.1,32.49z M50.18,259.34c0.41,4.48,0.74,9,0.98,13.6l270.41,350.82c2.72-0.64,5.4-1.28,8.02-1.92
	L50.18,259.34z M46.63,232.35c0.89,5.07,1.66,10.17,2.31,15.32l284.32,368.87c-1.34-5.85-2.66-11.67-3.97-17.48L46.63,232.35z
	 M52.74,150.74c-1.22,2.53-2.58,4.9-4.08,7.04l258.59,335.49c-1.05-5.47-2.06-10.9-3.08-16.32L52.74,150.74z M51.58,305.91
	c-0.09,3.86-0.24,7.8-0.42,11.78l240.73,312.32c2.8-0.52,5.55-1.06,8.27-1.6L51.58,305.91z M51.57,283.51
	c0.11,4.12,0.17,8.28,0.16,12.53l255.12,330.99c2.76-0.58,5.47-1.17,8.14-1.76L51.57,283.51z M39.37,200.54
	c0.22,0.76,0.43,1.53,0.64,2.31c1.46,5.32,2.76,10.64,3.94,15.96l282.22,366.14c-1.27-5.75-2.54-11.51-3.77-17.21L39.37,200.54z
	 M44.63,162.6c-1.86,1.81-3.9,3.29-6.14,4.37l274.69,356.38c-1.12-5.56-2.21-11.09-3.3-16.61L44.63,162.6z M32.17,168.82
	c-1.33,0.16-2.51,0.18-3.41,0.14c1.57,4.01,3.43,8.97,5.39,14.74l285.33,370.18c-1.19-5.65-2.37-11.29-3.53-16.9L32.17,168.82z"/>
<g>
	<path class="st2" d="M227.29-0.34l0.08-0.08c-0.02-0.01-0.05-0.01-0.07-0.02C227.3-0.4,227.3-0.37,227.29-0.34z"/>
	<path class="Colour2 fill" d="M105.3-0.43C92.03,3.33,78.76,7.1,65.5,10.86c0,0.47,0,0.98,0,1.5l42.87,5.16
		C106.79,10.56,105.87,4.43,105.3-0.43z"/>
</g>
<path class="Colour2 fill" d="M227.31-0.43c-0.79,6.05-2.13,13.93-4.55,22.87l44.75,37.28l1.13-0.8c-0.48-24.73,0.12-45.3,0.21-48.06
	C254.99,7.1,241.15,3.33,227.31-0.43z"/>
<path class="st3" d="M98.67,1.45c1.6,14.45,6.57,41.47,24.8,69.35c14.38,22.01,31.28,35.76,42.4,43.44
	c11.12-7.34,27.93-20.47,42.4-41.7C227.72,44,232.69,15.88,234.22,1.45"/>
<path class="st3" d="M72.2,8.96c-0.17,8.95-0.45,25.06-0.65,45.34c-0.34,36.5-0.09,54.28-6.06,78.18
	c-5.05,20.23-11.57,32.87-23.36,39.09c-4,2.11-7.74,3.03-10.38,3.47"/>
<path class="st3" d="M262.78,9.13c-0.25,7.48-2.8,92.53,8.76,131.73c2.66,9.02,8.04,27.27,22.39,32.46
	c3.28,1.18,6.21,1.39,8.06,1.41"/>
<path class="st3" d="M107.61,14.02c8.95,5.27,30.13,16.11,59.12,15.96c28.27-0.15,48.92-10.69,57.87-15.96"/>
<path class="st3" d="M109.45,22c10.2,5.01,29.77,12.96,55.56,13.19c27.06,0.24,47.57-8.13,57.87-13.19"/>
<g>
	<rect x="109.19" y="214.75" class="st4" width="32.02" height="12.16"/>
	<rect x="193.99" y="214.75" class="st4" width="32.02" height="12.16"/>
	<rect x="194.07" y="322.38" class="st4" width="32.02" height="12.16"/>
	<rect x="109.28" y="322.38" class="st4" width="32.02" height="12.16"/>
	<rect x="109.28" y="310.22" class="st4" width="32.02" height="12.16"/>
	<rect x="193.99" y="310.22" class="st4" width="32.02" height="12.16"/>
</g>
<path class="Colour2 fill" d="M301.69,174.71c-1.86-0.03-4.66-0.28-7.76-1.4c-9.9-3.58-15.54-13.39-18.95-22.09l-0.17,0.72
	c-24,82.72-27.43,150.88-26.31,196.53c1.43,58.03,10.92,107.82,21.63,163.97c9.24,48.44,26.82,116.68,26.82,116.68
	c13.53-2.63,26.1-5.5,37.64-8.42c-16.41-70.98-29.76-138.88-40.67-203.28c-15.34-90.56-21.04-145.91-2.6-211.1
	c3.56-12.57,10.64-31.55,10.66-31.6L301.69,174.71z"/>
<path class="Colour2 fill" d="M31.75,175.05c2.64-0.44,6.39-1.36,10.38-3.47c8.11-4.28,13.72-11.59,18.08-22.32l0.18,0.72
	c26.13,99.49,26.19,177.68,21.97,228.53c-3.4,40.92-11.35,85.72-16.44,114.38c-9.91,55.82-29.5,135.87-29.5,135.87
	c-12.88-2.54-24.84-5.28-35.83-8.07c1.82-7.43,42.42-174.64,50.19-289.28c3.36-49.63,0.53-88.77-10.38-128.57
	c-3.02-11.02-6.21-20.43-8.93-27.8L31.75,175.05z"/>
<g>
	<path class="st5" d="M35.67,187.12c0.07,0.21,0.14,0.41,0.2,0.62"/>
	<path class="st5" d="M15.45,624.28c0.77,0.18,1.52,0.35,2.3,0.53"/>
	<path class="st5" d="M19.78,625.26c0.82,0.18,1.64,0.37,2.47,0.55"/>
	<path class="st5" d="M34.6,183.89c0.08,0.25,0.17,0.5,0.25,0.75"/>
	<path class="st5" d="M4.08,621.57c0.22,0.06,0.44,0.11,0.66,0.17"/>
	<path class="st5" d="M11.27,623.31c0.68,0.16,1.36,0.32,2.05,0.49"/>
	<path class="st5" d="M36.85,190.77c0.09,0.29,0.18,0.59,0.28,0.88"/>
	<path class="st5" d="M7.27,622.35c0.57,0.14,1.14,0.28,1.72,0.42"/>
	<path class="st5" d="M334.6,620.69c-0.06,0.01-0.11,0.03-0.17,0.04"/>
	<path class="st5" d="M321.86,623.8c-0.63,0.15-1.26,0.29-1.89,0.44"/>
	<path class="st5" d="M326.2,622.77c-0.58,0.14-1.17,0.28-1.76,0.42"/>
	<path class="st5" d="M330.45,621.73c-0.48,0.12-0.97,0.24-1.46,0.36"/>
	<path class="st5" d="M317.42,624.82c-0.65,0.15-1.3,0.29-1.96,0.44"/>
	<path class="st5" d="M33.82,628.24c0.83,0.17,1.65,0.33,2.49,0.5"/>
	<path class="st5" d="M33.43,180.5c0.08,0.22,0.15,0.43,0.23,0.65"/>
	<path class="st5" d="M28.99,627.25c0.85,0.18,1.68,0.35,2.54,0.53"/>
	<path class="st5" d="M0.6,620.69c1.15,0.29,2.31,0.58,3.48,0.87"/>
	<path class="st5" d="M24.28,626.25c0.86,0.19,1.71,0.37,2.58,0.56"/>
	<path class="st5" d="M15.45,624.28c-0.71-0.16-1.43-0.33-2.13-0.49"/>
	<path class="st5" d="M36.43,628.76c-0.04-0.01-0.08-0.02-0.13-0.02"/>
	<path class="st5" d="M33.43,180.5c-0.26-0.74-0.52-1.47-0.77-2.18"/>
	<path class="st5" d="M32.44,177.69c-0.3-0.83-0.59-1.63-0.88-2.41"/>
	<path class="st5" d="M39.12,198.31c-0.32-1.12-0.65-2.22-0.97-3.3"/>
	<path class="st5" d="M35.67,187.12c-0.28-0.84-0.55-1.67-0.82-2.49"/>
	<path class="st5" d="M33.82,628.24c-0.76-0.15-1.53-0.3-2.28-0.46"/>
	<path class="st5" d="M37.99,194.46c-0.29-0.95-0.58-1.89-0.86-2.81"/>
	<path class="st5" d="M36.85,190.77c-0.32-1.03-0.65-2.04-0.97-3.03"/>
	<path class="st5" d="M37.99,194.46c0.06,0.18,0.11,0.36,0.17,0.55"/>
	<path class="st5" d="M28.99,627.25c-0.71-0.15-1.43-0.3-2.14-0.45"/>
	<path class="st5" d="M39.12,198.31c0.1,0.33,0.19,0.66,0.29,0.99"/>
	<path class="st5" d="M312.88,625.83c-0.66,0.14-1.32,0.29-1.99,0.43"/>
	<path class="st5" d="M7.27,622.35c-0.84-0.21-1.69-0.41-2.53-0.62"/>
	<path class="st5" d="M11.27,623.31c-0.76-0.18-1.53-0.36-2.28-0.54"/>
	<path class="st5" d="M24.28,626.25c-0.67-0.15-1.35-0.29-2.02-0.44"/>
	<path class="st5" d="M40.33,202.58c-0.31-1.11-0.61-2.2-0.92-3.27"/>
	<path class="st5" d="M19.78,625.26c-0.68-0.15-1.37-0.3-2.04-0.45"/>
	<path class="st5" d="M34.6,183.89c-0.32-0.93-0.63-1.85-0.94-2.74"/>
	<path class="st5" d="M334.6,620.69L334.6,620.69c-0.19-0.83-0.38-1.65-0.57-2.47"/>
	<path class="st5" d="M301.98,174.77c-3.13,7.96-6.81,18.22-10.28,30.3"/>
	<path class="st5" d="M298.35,628.84c1.06-0.21,2.13-0.42,3.18-0.63"/>
	<path class="st5" d="M303.44,627.82c0.94-0.19,1.88-0.38,2.81-0.58"/>
	<path class="st5" d="M296.96,629.12c0.47-0.09,0.93-0.18,1.39-0.27"/>
	<path class="st5" d="M326.2,622.77c0.94-0.23,1.86-0.45,2.79-0.68"/>
	<path class="st5" d="M317.42,624.82c0.85-0.19,1.7-0.39,2.54-0.58"/>
	<path class="st5" d="M291.53,205.64c0.06-0.19,0.11-0.39,0.17-0.58"/>
	<path class="st5" d="M312.88,625.83c0.87-0.19,1.73-0.38,2.59-0.57"/>
	<path class="st5" d="M308.24,626.83c0.89-0.19,1.78-0.38,2.66-0.57"/>
	<path class="st5" d="M330.45,621.73c1.34-0.33,2.67-0.66,3.98-1"/>
	<path class="st5" d="M40.33,202.58c0.02,0.09,0.05,0.18,0.07,0.27c10.91,39.79,13.75,78.93,10.38,128.57
		C43.02,446.06,2.42,613.27,0.6,620.69l0,0"/>
	<path class="st5" d="M308.24,626.83c-0.66,0.14-1.32,0.28-1.99,0.42"/>
	<path class="st5" d="M303.44,627.82c-0.63,0.13-1.27,0.26-1.91,0.39"/>
	<path class="st5" d="M32.44,177.69c0.07,0.2,0.15,0.42,0.22,0.62"/>
	<path class="st5" d="M296.96,629.12c-35.1,6.82-76.63,12.01-123.3,12.43c-52.58,0.47-98.93-5.23-137.23-12.78"/>
	<path class="st5" d="M291.53,205.64c-0.07,0.23-0.13,0.45-0.2,0.68c-18.44,65.18-12.74,120.54,2.6,211.1
		c10.78,63.64,23.96,130.72,40.1,200.8"/>
	<path class="st5" d="M321.86,623.8c0.87-0.2,1.72-0.41,2.58-0.61"/>
	<path class="st5" d="M301.98,174.77c0.82-2.09,1.61-4.03,2.34-5.8c-1.09,0.18-2.97,0.39-5.19,0
		c-11.75-2.05-17.97-18.02-20.77-25.19c-12.48-32.06-9.72-126.75-9.52-132.91c-13.84-3.76-27.69-7.53-41.53-11.29
		c-2.39,18.33-9.83,53.47-37.21,84.26c-8.08,9.09-16.47,16.19-24.23,21.72c-7.75-5.49-16.15-12.58-24.23-21.72
		c-27.32-30.9-34.24-66.28-36.34-84.26C92.03,3.33,78.76,7.1,65.5,10.86c0,4,0.01,10.04,0,17.37c-0.04,43.07-0.08,64.76-0.86,72.1
		c-1.81,16.96-6.52,61-28.55,67.76c-2.8,0.86-5.28,0.93-6.92,0.87c0.74,1.9,1.55,4.01,2.4,6.31"/>
	<path class="st5" d="M328.99,622.09c0.49-0.12,0.98-0.24,1.46-0.36"/>
	<path class="st5" d="M291.7,205.06c3.56-12.21,9.92-29.35,10.28-30.3"/>
	<path class="st5" d="M324.44,623.19c0.59-0.14,1.18-0.28,1.76-0.42"/>
	<path class="st5" d="M301.98,174.77c0.01-0.03,0.02-0.05,0.02-0.05l-0.3,0c-1.86-0.03-4.66-0.28-7.76-1.4
		c-9.9-3.58-15.54-13.39-18.95-22.09l-0.17,0.72c-24,82.72-27.43,150.88-26.31,196.53c1.43,58.03,10.92,107.82,21.63,163.97
		c9.23,48.42,26.81,116.61,26.82,116.68"/>
	<path class="st5" d="M291.53,205.64c0.06-0.19,0.11-0.38,0.17-0.58"/>
	<path class="st5" d="M291.53,205.64c-0.07,0.23-0.13,0.46-0.2,0.68c-18.44,65.18-12.74,120.54,2.6,211.1
		c10.78,63.64,23.96,130.72,40.1,200.8"/>
	<path class="st5" d="M334.43,620.74c0.06-0.01,0.11-0.03,0.17-0.04v0"/>
	<path class="st5" d="M319.97,624.23c0.63-0.15,1.27-0.29,1.89-0.44"/>
	<path class="st5" d="M328.99,622.09c-0.93,0.23-1.85,0.45-2.79,0.68"/>
	<path class="st5" d="M319.97,624.23c-0.84,0.19-1.69,0.39-2.54,0.58"/>
	<path class="st5" d="M301.53,628.21c0.64-0.13,1.27-0.26,1.91-0.39"/>
	<path class="st5" d="M334.03,618.22c0.19,0.83,0.38,1.65,0.57,2.47"/>
	<path class="st5" d="M324.44,623.19c-0.86,0.2-1.71,0.41-2.58,0.61"/>
	<path class="st5" d="M334.43,620.74c-1.31,0.33-2.64,0.67-3.98,1"/>
	<path class="st5" d="M306.25,627.25c-0.93,0.19-1.87,0.39-2.81,0.58"/>
	<path class="st5" d="M301.53,628.21c-1.05,0.21-2.12,0.42-3.18,0.63"/>
	<path class="st5" d="M296.96,629.12L296.96,629.12c0.47-0.09,0.93-0.18,1.39-0.27"/>
	<path class="st5" d="M306.25,627.25c0.67-0.14,1.33-0.28,1.99-0.42"/>
	<path class="st5" d="M315.47,625.25c0.65-0.15,1.31-0.29,1.96-0.44"/>
	<path class="st5" d="M315.47,625.25c-0.86,0.19-1.72,0.38-2.59,0.57"/>
	<path class="st5" d="M310.89,626.26c-0.88,0.19-1.77,0.38-2.66,0.57"/>
	<path class="st5" d="M310.89,626.26c0.67-0.14,1.33-0.29,1.99-0.43"/>
	<path class="st5" d="M37.12,191.65c-0.09-0.29-0.18-0.59-0.28-0.88"/>
	<path class="st5" d="M31.56,175.28c0.29,0.78,0.58,1.59,0.88,2.41"/>
	<path class="st5" d="M38.15,195.01c-0.06-0.19-0.11-0.36-0.17-0.55"/>
	<path class="st5" d="M32.66,178.32c0.26,0.71,0.51,1.44,0.77,2.18"/>
	<path class="st5" d="M34.85,184.63c0.27,0.81,0.55,1.64,0.82,2.49"/>
	<path class="st5" d="M38.15,195.01c0.32,1.08,0.65,2.18,0.97,3.3"/>
	<path class="st5" d="M39.41,199.31c-0.1-0.33-0.19-0.66-0.29-0.99"/>
	<path class="st5" d="M35.88,187.74c0.32,0.99,0.64,2,0.97,3.03"/>
	<path class="st5" d="M37.12,191.65c0.29,0.92,0.58,1.86,0.86,2.81"/>
	<path class="st5" d="M40.33,202.58c-0.31-1.11-0.61-2.2-0.92-3.27"/>
	<path class="st5" d="M33.66,181.15c0.31,0.89,0.62,1.8,0.94,2.74"/>
	<path class="st5" d="M26.86,626.81c-0.87-0.18-1.72-0.37-2.58-0.56"/>
	<path class="st5" d="M13.32,623.79c0.7,0.16,1.42,0.33,2.13,0.49"/>
	<path class="st5" d="M22.26,625.81c0.67,0.15,1.35,0.29,2.02,0.44"/>
	<path class="st5" d="M0.6,620.69L0.6,620.69c1.15,0.29,2.31,0.58,3.48,0.87"/>
	<path class="st5" d="M8.99,622.77c0.75,0.18,1.52,0.36,2.28,0.54"/>
	<path class="st5" d="M4.74,621.73c0.83,0.21,1.68,0.41,2.53,0.62"/>
	<path class="st5" d="M17.75,624.81c0.67,0.15,1.36,0.3,2.04,0.45"/>
	<path class="st5" d="M31.56,175.28c-0.03-0.08-0.06-0.16-0.08-0.23l0.28,0c2.64-0.44,6.39-1.36,10.38-3.47
		c8.11-4.28,13.72-11.59,18.08-22.32l0.18,0.72c26.13,99.49,26.19,177.68,21.97,228.53c-3.4,40.92-11.35,85.72-16.44,114.38
		c-9.91,55.81-29.49,135.83-29.5,135.86"/>
	<path class="st5" d="M26.86,626.81c0.71,0.15,1.42,0.3,2.14,0.45"/>
	<path class="st5" d="M40.33,202.58c0.02,0.09,0.05,0.18,0.07,0.27c10.91,39.79,13.75,78.93,10.38,128.57
		C43.02,446.05,2.42,613.26,0.6,620.69"/>
	<path class="st5" d="M36.3,628.74c0.04,0.01,0.08,0.02,0.13,0.03l0,0"/>
	<path class="st5" d="M31.53,627.78c0.75,0.15,1.52,0.31,2.28,0.46"/>
	<path class="st5" d="M33.66,181.15c-0.08-0.22-0.15-0.43-0.23-0.65"/>
	<path class="st5" d="M36.3,628.74c-0.84-0.16-1.66-0.33-2.49-0.5"/>
	<path class="st5" d="M31.53,627.78c-0.85-0.17-1.69-0.35-2.54-0.53"/>
	<path class="st5" d="M32.66,178.32c-0.07-0.21-0.15-0.42-0.22-0.62"/>
	<path class="st5" d="M34.85,184.63c-0.08-0.25-0.17-0.5-0.25-0.75"/>
	<path class="st5" d="M35.88,187.74c-0.07-0.21-0.14-0.41-0.2-0.62"/>
	<path class="st5" d="M22.26,625.81c-0.83-0.18-1.65-0.37-2.47-0.55"/>
	<path class="st5" d="M8.99,622.77c-0.58-0.14-1.14-0.28-1.72-0.42"/>
	<path class="st5" d="M13.32,623.79c-0.69-0.16-1.37-0.32-2.05-0.49"/>
	<path class="st5" d="M17.75,624.81c-0.77-0.17-1.53-0.35-2.3-0.53"/>
	<path class="st5" d="M4.74,621.73c-0.22-0.06-0.44-0.11-0.66-0.17"/>
</g>
<path class="NeckAndArmTrim fill" d="M234.22,1.45c-1.53,14.43-6.5,42.55-25.95,71.09c-14.47,21.23-31.28,34.36-42.4,41.7
	c-11.12-7.68-28.01-21.43-42.4-43.44c-18.23-27.88-23.2-54.9-24.8-69.35l6.63-1.88c2.1,17.98,9.02,53.37,36.34,84.26
	c8.08,9.14,16.48,16.23,24.23,21.72c7.76-5.52,16.14-12.62,24.23-21.72c27.38-30.79,34.82-65.93,37.21-84.26L234.22,1.45z"/>
<path class="NeckAndArmTrim fill" d="M31.75,175.05c2.64-0.44,6.39-1.36,10.38-3.47c11.79-6.23,18.31-18.86,23.36-39.09
	c5.97-23.9,5.71-41.68,6.06-78.18c0.19-20.28,0.47-36.38,0.65-45.34l-6.7,1.9c0,4,0.01,10.04,0,17.37
	c-0.04,43.07-0.08,64.76-0.87,72.1c-1.81,16.96-6.52,61-28.55,67.76c-2.8,0.86-5.28,0.93-6.92,0.87L31.75,175.05z"/>
<path class="NeckAndArmTrim fill" d="M301.99,174.72c-1.85-0.01-4.78-0.22-8.06-1.41c-14.35-5.19-19.73-23.43-22.39-32.46
	c-11.56-39.2-9.01-124.25-8.76-131.73l6.06,1.74c-0.2,6.16-2.97,100.85,9.52,132.91c2.79,7.17,9.01,23.15,20.77,25.19
	c2.22,0.39,4.1,0.18,5.19,0L301.99,174.72z"/>
<path class="NeckAndArmTrim fill" d="M109.45,22c10.2,5.01,29.77,12.96,55.56,13.19c27.06,0.24,47.57-8.13,57.87-13.19l1.74-7.98
	c-8.95,5.27-29.6,15.8-57.87,15.96c-28.99,0.16-50.17-10.69-59.12-15.96L109.45,22z"/>
<g id="FBodyLogos"></g>
</svg>
