<?xml version="1.0" encoding="utf-8"?>
<!-- Generator: Adobe Illustrator 19.1.0, SVG Export Plug-In . SVG Version: 6.00 Build 0)  -->
<svg version="1.1" id="Layer_1" xmlns="http://www.w3.org/2000/svg" xmlns:xlink="http://www.w3.org/1999/xlink" x="0px" y="0px"
	 viewBox="0 0 335.2 641.14" style="enable-background:new 0 0 335.2 641.14;" xml:space="preserve">
<style type="text/css">
	<![CDATA[
	@font-face{font-family:'codaheavy';src:url('/fonts/coda-heavy-webfont.woff') format('woff')}
	text{font-family:Impact,codaheavy,sans-serif}
	.Colour1.fill{fill:#CA4B28;}
	.Colour2.fill{fill:#FBAF2D;}
	.NeckAndArmTrim.fill{fill:#FBAF2D;stroke:#000000;stroke-miterlimit:10;}
	.st0{fill:none;stroke:#000000;stroke-miterlimit:10;}
	.st1{fill:#FFFFFF;stroke:#000000;}
	.st2{fill:none;stroke:#000000;stroke-linecap:round;stroke-linejoin:round;}
	]]>
</style>
<path class="Colour1 fill" d="M227.31-0.43c13.84,3.73,27.69,7.47,41.53,11.2c-0.2,6.11-2.97,100.04,9.52,131.83
	c2.79,7.11,9.01,22.96,20.77,24.99c2.22,0.38,4.1,0.18,5.19,0c-3.61,8.64-8.5,21.34-12.98,37.05
	c-18.44,64.65-12.74,119.56,2.6,209.38c10.91,63.87,24.26,131.22,40.67,201.63c-41.5,10.45-96.29,20.11-160.94,20.68
	c-70.25,0.62-129.39-9.69-173.06-20.68c1.82-7.37,42.42-173.22,50.19-286.93c3.36-49.23,0.53-88.05-10.38-127.53
	c-3.93-14.22-8.14-25.75-11.25-33.6c1.64,0.06,4.12-0.01,6.92-0.86c22.03-6.7,26.74-50.39,28.55-67.21
	c0.79-7.29,0.82-28.8,0.87-71.52c0.01-7.27,0-13.26,0-17.23c13.27-3.73,26.54-7.47,39.8-11.2c2.1,17.83,9.02,52.93,36.34,83.58
	c8.08,9.06,16.48,16.1,24.23,21.54c7.76-5.48,16.14-12.52,24.23-21.54C217.47,52.61,224.91,17.75,227.31-0.43z"/>
<path class="Colour2 fill" d="M237.36,632.78c-4.74,0.49-9.55,0.93-14.44,1.33V21.85c2.35-8.7,3.67-16.38,4.44-22.28
	c3.33,0.9,6.67,1.8,10,2.7V632.78z M197.9,73.71v561.98c4.89-0.22,9.69-0.5,14.44-0.81V50.1C208.54,57.89,203.8,65.87,197.9,73.71z
	 M187.33,636.07V86.2c-4.81,5.06-9.69,9.44-14.44,13.24v536.9c0.28,0,0.55,0,0.83,0C178.31,636.3,182.84,636.2,187.33,636.07z
	 M262.37,9.01c-4.81-1.3-9.63-2.6-14.44-3.9v626.49c4.89-0.58,9.73-1.19,14.44-1.85V9.01z M87.27,4.66
	c-4.81,1.36-9.63,2.71-14.44,4.06v621.02c4.72,0.66,9.54,1.29,14.44,1.87V4.66z M122.86,634.89c4.75,0.31,9.57,0.57,14.44,0.79
	V77.96c-5.79-7.17-10.54-14.52-14.44-21.77V634.89z M147.87,636.08c4.76,0.14,9.57,0.22,14.44,0.26V102.06
	c-4.71-3.53-9.59-7.63-14.44-12.42V636.08z M112.29,31.38c-4.14-12.72-6-23.94-6.93-31.81c-2.5,0.7-5.01,1.41-7.51,2.11v631.1
	c4.74,0.49,9.55,0.93,14.44,1.33V31.38z M234.94,641.57h2.42v-0.25C236.55,641.4,235.75,641.49,234.94,641.57z M97.84,641.3v0.27
	h2.67C99.62,641.48,98.73,641.39,97.84,641.3z"/>
<path class="st0" d="M98.67,1.44c1.6,14.33,6.57,41.13,24.8,68.79c14.38,21.83,31.28,35.47,42.4,43.08
	c11.12-7.28,27.93-20.3,42.4-41.36c19.45-28.31,24.43-56.2,25.95-70.51"/>
<path class="st0" d="M72.2,8.89c-0.17,8.88-0.45,24.86-0.65,44.97c-0.34,36.21-0.09,53.84-6.06,77.55
	c-5.05,20.07-11.57,32.6-23.36,38.77c-4,2.09-7.74,3.01-10.38,3.45"/>
<path class="st0" d="M262.78,9.05c-0.25,7.42-2.8,91.78,8.76,130.66c2.66,8.95,8.04,27.05,22.39,32.19
	c3.28,1.17,6.21,1.38,8.06,1.39"/>
<path class="st0" d="M107.61,13.9c8.95,5.23,30.13,15.98,59.12,15.83c28.27-0.15,48.92-10.6,57.87-15.83"/>
<path class="st0" d="M109.45,21.82c10.2,4.97,29.77,12.85,55.56,13.08c27.06,0.24,47.57-8.07,57.87-13.08"/>
<g>
	<rect x="109.19" y="213" class="st1" width="32.02" height="12.06"/>
	<rect x="193.99" y="213" class="st1" width="32.02" height="12.06"/>
	<rect x="194.07" y="319.77" class="st1" width="32.02" height="12.06"/>
	<rect x="109.28" y="319.77" class="st1" width="32.02" height="12.06"/>
	<rect x="109.28" y="307.7" class="st1" width="32.02" height="12.06"/>
	<rect x="193.99" y="307.7" class="st1" width="32.02" height="12.06"/>
</g>
<path class="Colour2 fill" d="M301.69,173.29c-1.86-0.03-4.66-0.28-7.76-1.39c-9.9-3.55-15.54-13.28-18.95-21.91l-0.17,0.72
	c-24,82.05-27.43,149.66-26.31,194.93c1.43,57.56,10.92,106.94,21.63,162.64c9.24,48.05,26.82,115.73,26.82,115.73
	c13.53-2.61,26.1-5.45,37.64-8.36c-16.41-70.41-29.76-137.76-40.67-201.63c-15.34-89.82-21.04-144.73-2.6-209.38
	c3.56-12.47,10.64-31.3,10.66-31.35L301.69,173.29z"/>
<path class="Colour2 fill" d="M31.75,173.63c2.64-0.44,6.39-1.35,10.38-3.45c8.11-4.25,13.72-11.5,18.08-22.13l0.18,0.72
	C86.53,247.44,86.59,325,82.37,375.44c-3.4,40.58-11.35,85.03-16.44,113.46c-9.91,55.37-29.5,134.76-29.5,134.76
	c-12.88-2.52-24.84-5.24-35.83-8c1.82-7.37,42.42-173.22,50.19-286.93c3.36-49.23,0.53-88.05-10.38-127.53
	c-3.02-10.93-6.21-20.27-8.93-27.57L31.75,173.63z"/>
<g>
	<path class="st2" d="M24.45,621.21c0.8,0.17,1.59,0.34,2.4,0.51"/>
	<path class="st2" d="M35.71,185.7c0.05,0.16,0.1,0.32,0.16,0.48"/>
	<path class="st2" d="M29.02,622.17c0.84,0.17,1.67,0.35,2.52,0.52"/>
	<path class="st2" d="M36.86,189.27c-0.33-1.05-0.67-2.08-1-3.09"/>
	<path class="st2" d="M34.61,182.44c0.07,0.21,0.14,0.42,0.21,0.63"/>
	<path class="st2" d="M19.92,620.22c0.78,0.17,1.54,0.34,2.33,0.51"/>
	<path class="st2" d="M36.86,189.27c0.08,0.25,0.16,0.5,0.24,0.75"/>
	<path class="st2" d="M15.47,619.22c0.76,0.17,1.51,0.35,2.28,0.52"/>
	<path class="st2" d="M40.4,201.2c-0.34-1.22-0.68-2.41-1.02-3.59"/>
	<path class="st2" d="M330.44,616.69c-0.46,0.11-0.94,0.23-1.41,0.34"/>
	<path class="st2" d="M320.1,550.56c1.82,8.56,3.68,17.16,5.59,25.82"/>
	<path class="st2" d="M326.18,617.72c-0.55,0.13-1.11,0.26-1.67,0.39"/>
	<path class="st2" d="M11.28,618.25c0.68,0.16,1.35,0.32,2.04,0.48"/>
	<path class="st2" d="M317.39,619.75c-0.63,0.14-1.26,0.28-1.89,0.42"/>
	<path class="st2" d="M321.84,618.74c-0.6,0.14-1.22,0.28-1.82,0.42"/>
	<path class="st2" d="M312.2,512.39c2.53,12.61,5.16,25.33,7.89,38.17"/>
	<path class="st2" d="M293.93,414.03c2.04,11.98,4.18,24.07,6.4,36.29"/>
	<path class="st2" d="M291.34,204.65c0.13-0.45,0.26-0.89,0.39-1.33"/>
	<path class="st2" d="M302.58,462.58c2.28,12.3,4.65,24.71,7.12,37.24"/>
	<path class="st2" d="M33.71,623.12c0.87,0.17,1.73,0.35,2.6,0.52"/>
	<path class="st2" d="M38.04,193.05c0.03,0.11,0.07,0.22,0.1,0.33"/>
	<path class="st2" d="M52.07,285.28c-0.04-2.74-0.11-5.45-0.21-8.13"/>
	<path class="st2" d="M29.02,622.17c-0.72-0.15-1.45-0.3-2.17-0.45"/>
	<path class="st2" d="M51.49,269.16c0.15,2.64,0.28,5.3,0.37,7.99"/>
	<path class="st2" d="M24.45,621.21c-0.73-0.16-1.47-0.31-2.2-0.47"/>
	<path class="st2" d="M33.71,623.12c-0.72-0.14-1.45-0.29-2.17-0.43"/>
	<path class="st2" d="M36.43,623.66c-0.04-0.01-0.08-0.02-0.12-0.02"/>
	<path class="st2" d="M50.95,261.3c0.21,2.6,0.39,5.22,0.54,7.86"/>
	<path class="st2" d="M32.45,176.29c-0.31-0.85-0.61-1.68-0.91-2.48"/>
	<path class="st2" d="M35.71,185.7c-0.3-0.9-0.59-1.77-0.88-2.63"/>
	<path class="st2" d="M34.61,182.44c-0.33-0.95-0.65-1.89-0.97-2.79"/>
	<path class="st2" d="M0.6,615.66c1.37,0.34,2.75,0.69,4.15,1.03"/>
	<path class="st2" d="M312.85,620.75c-0.64,0.14-1.28,0.28-1.93,0.42"/>
	<path class="st2" d="M6.85,617.2c0.71,0.17,1.42,0.34,2.14,0.52"/>
	<path class="st2" d="M6.85,617.2c-0.7-0.17-1.41-0.34-2.1-0.51"/>
	<path class="st2" d="M49.83,249.72c0.44,3.82,0.81,7.68,1.12,11.58"/>
	<path class="st2" d="M39.15,196.78c0.08,0.27,0.16,0.55,0.24,0.83"/>
	<path class="st2" d="M19.92,620.22c-0.73-0.16-1.46-0.32-2.18-0.48"/>
	<path class="st2" d="M15.47,619.22c-0.72-0.16-1.44-0.33-2.15-0.49"/>
	<path class="st2" d="M11.28,618.25c-0.77-0.18-1.54-0.36-2.3-0.54"/>
	<path class="st2" d="M301.97,173.37c0.83-2.08,1.61-4.02,2.35-5.77c-1.09,0.18-2.97,0.38-5.19,0
		c-11.75-2.03-17.97-17.87-20.77-24.99c-12.49-31.8-9.72-125.72-9.52-131.83c-13.84-3.73-27.69-7.47-41.53-11.2
		c-2.39,18.18-9.83,53.04-37.21,83.58c-8.08,9.02-16.47,16.06-24.23,21.54c-7.75-5.44-16.15-12.48-24.23-21.54
		C114.32,52.5,107.4,17.4,105.3-0.43C92.03,3.3,78.77,7.04,65.5,10.77c0,3.97,0.01,9.96,0,17.23c-0.04,42.72-0.08,64.23-0.87,71.52
		c-1.81,16.82-6.52,60.5-28.55,67.21c-2.8,0.85-5.28,0.93-6.92,0.86c0.74,1.87,1.54,3.95,2.39,6.22"/>
	<path class="st2" d="M301.97,173.37c-3.12,7.87-6.78,18.01-10.24,29.95"/>
	<path class="st2" d="M33.46,179.12c-0.28-0.8-0.56-1.58-0.83-2.34"/>
	<path class="st2" d="M326.18,617.72c0.96-0.23,1.91-0.46,2.86-0.69"/>
	<path class="st2" d="M303.36,622.74c0.98-0.2,1.95-0.4,2.91-0.6"/>
	<path class="st2" d="M298.26,623.76c1.1-0.21,2.21-0.43,3.3-0.65"/>
	<path class="st2" d="M296.96,624.01c0.43-0.08,0.86-0.17,1.3-0.25"/>
	<path class="st2" d="M312.85,620.75c0.89-0.19,1.77-0.39,2.65-0.58"/>
	<path class="st2" d="M330.44,616.69c1.4-0.34,2.79-0.69,4.16-1.03"/>
	<path class="st2" d="M317.39,619.75c0.88-0.2,1.75-0.4,2.62-0.59"/>
	<path class="st2" d="M308.19,621.75c0.91-0.19,1.83-0.38,2.73-0.58"/>
	<path class="st2" d="M321.84,618.74c0.9-0.21,1.78-0.42,2.67-0.63"/>
	<path class="st2" d="M308.19,621.75c-0.64,0.13-1.27,0.27-1.91,0.4"/>
	<path class="st2" d="M33.46,179.12c0.06,0.17,0.12,0.35,0.18,0.52"/>
	<path class="st2" d="M38.04,193.05c-0.31-1.03-0.63-2.04-0.94-3.03"/>
	<path class="st2" d="M32.45,176.29c0.06,0.16,0.12,0.33,0.18,0.49"/>
	<path class="st2" d="M39.15,196.78c-0.34-1.15-0.67-2.29-1.01-3.4"/>
	<path class="st2" d="M52.09,297.79c0.04-2.83,0.04-5.62,0.03-8.39"/>
	<path class="st2" d="M303.36,622.74c-0.6,0.12-1.2,0.24-1.81,0.37"/>
	<path class="st2" d="M296.96,624.01c-35.1,6.76-76.63,11.91-123.3,12.32c-52.58,0.47-98.93-5.19-137.23-12.68"/>
	<path class="st2" d="M329.04,617.03c0.47-0.11,0.94-0.23,1.41-0.34"/>
	<path class="st2" d="M325.69,576.38c-1.91-8.66-3.77-17.26-5.59-25.82"/>
	<path class="st2" d="M291.72,203.31c-0.13,0.45-0.26,0.9-0.39,1.33"/>
	<path class="st2" d="M301.97,173.37c-0.44,1.18-6.71,17.94-10.24,29.95"/>
	<path class="st2" d="M301.97,173.37c0.02-0.04,0.03-0.07,0.03-0.07l-0.3,0c-1.86-0.03-4.66-0.28-7.76-1.39
		c-9.9-3.55-15.54-13.28-18.95-21.91l-0.17,0.72c-24,82.05-27.43,149.66-26.31,194.93c1.43,57.56,10.92,106.94,21.63,162.64
		c9.23,48.03,26.81,115.67,26.82,115.73"/>
	<path class="st2" d="M309.7,499.82c-2.47-12.53-4.84-24.95-7.12-37.24"/>
	<path class="st2" d="M320.1,550.56c-2.73-12.84-5.36-25.56-7.89-38.17"/>
	<path class="st2" d="M306.28,622.15c-0.96,0.2-1.94,0.4-2.91,0.6"/>
	<path class="st2" d="M334.6,615.66c-1.37,0.35-2.76,0.69-4.16,1.03"/>
	<path class="st2" d="M301.56,623.11c-1.09,0.22-2.19,0.43-3.3,0.65"/>
	<path class="st2" d="M296.96,624.01L296.96,624.01c0.44-0.08,0.86-0.17,1.3-0.25"/>
	<path class="st2" d="M293.93,414.03c2.04,11.98,4.18,24.07,6.4,36.29"/>
	<path class="st2" d="M329.04,617.03c-0.95,0.23-1.9,0.46-2.86,0.69"/>
	<path class="st2" d="M324.51,618.11c-0.89,0.21-1.77,0.42-2.67,0.63"/>
	<path class="st2" d="M301.56,623.11c0.61-0.12,1.21-0.24,1.81-0.37"/>
	<path class="st2" d="M320.01,619.16c-0.87,0.2-1.74,0.4-2.62,0.59"/>
	<path class="st2" d="M315.5,620.17c-0.88,0.19-1.76,0.39-2.65,0.58"/>
	<path class="st2" d="M310.92,621.17c-0.9,0.19-1.82,0.39-2.73,0.58"/>
	<path class="st2" d="M310.92,621.17c0.65-0.14,1.29-0.28,1.93-0.42"/>
	<path class="st2" d="M315.5,620.17c0.63-0.14,1.26-0.28,1.89-0.42"/>
	<path class="st2" d="M320.01,619.16c0.61-0.14,1.22-0.28,1.82-0.42"/>
	<path class="st2" d="M306.28,622.15c0.64-0.13,1.27-0.27,1.91-0.4"/>
	<path class="st2" d="M324.51,618.11c0.56-0.13,1.12-0.26,1.67-0.39"/>
	<path class="st2" d="M334.6,615.66c-3.08-13.2-6.04-26.29-8.91-39.28"/>
	<path class="st2" d="M302.58,462.58c-0.76-4.1-1.51-8.18-2.25-12.26"/>
	<path class="st2" d="M291.34,204.65c-18.44,64.65-12.74,119.56,2.6,209.38"/>
	<path class="st2" d="M312.2,512.39c-0.84-4.2-1.68-8.39-2.5-12.57"/>
	<path class="st2" d="M51.49,269.16c-0.15-2.64-0.33-5.26-0.54-7.86"/>
	<path class="st2" d="M39.39,197.6c-0.08-0.28-0.16-0.55-0.24-0.83"/>
	<path class="st2" d="M50.95,261.3c-0.31-3.9-0.68-7.75-1.12-11.58"/>
	<path class="st2" d="M31.54,173.82c0.3,0.8,0.6,1.63,0.91,2.48"/>
	<path class="st2" d="M51.86,277.15c-0.1-2.69-0.22-5.35-0.37-7.99"/>
	<path class="st2" d="M33.65,179.64c0.32,0.91,0.64,1.84,0.97,2.79"/>
	<path class="st2" d="M32.63,176.78c0.27,0.76,0.55,1.54,0.83,2.34"/>
	<path class="st2" d="M35.87,186.18c0.33,1.01,0.66,2.04,1,3.09"/>
	<path class="st2" d="M34.83,183.07c0.29,0.86,0.59,1.74,0.88,2.63"/>
	<path class="st2" d="M37.1,190.02c0.31,0.99,0.63,2,0.94,3.03"/>
	<path class="st2" d="M52.07,285.28c-0.04-2.74-0.11-5.45-0.21-8.13"/>
	<path class="st2" d="M39.39,197.6c0.34,1.18,0.68,2.37,1.02,3.59"/>
	<path class="st2" d="M38.14,193.38c0.34,1.11,0.67,2.25,1.01,3.4"/>
	<path class="st2" d="M13.32,618.73c0.71,0.16,1.43,0.33,2.15,0.49"/>
	<path class="st2" d="M22.25,620.73c0.73,0.16,1.47,0.31,2.2,0.47"/>
	<path class="st2" d="M8.99,617.71c-0.72-0.17-1.42-0.34-2.14-0.52"/>
	<path class="st2" d="M17.75,619.74c0.72,0.16,1.45,0.32,2.18,0.48"/>
	<path class="st2" d="M4.75,616.69c0.69,0.17,1.4,0.34,2.1,0.51"/>
	<path class="st2" d="M0.6,615.66c1.37,0.34,2.75,0.69,4.15,1.03"/>
	<path class="st2" d="M8.99,617.71c0.76,0.18,1.53,0.36,2.3,0.54"/>
	<path class="st2" d="M52.09,297.79c0.04-2.83,0.04-5.62,0.03-8.39"/>
	<path class="st2" d="M31.54,173.82c-0.02-0.06-0.05-0.13-0.07-0.19l0.28,0c2.64-0.44,6.39-1.35,10.38-3.45
		c8.11-4.25,13.72-11.5,18.08-22.13l0.18,0.72C86.53,247.44,86.59,325,82.37,375.44c-3.4,40.58-11.35,85.03-16.44,113.46
		c-9.91,55.36-29.49,134.73-29.5,134.76"/>
	<path class="st2" d="M36.31,623.64c0.04,0.01,0.08,0.02,0.12,0.02l0,0"/>
	<path class="st2" d="M26.85,621.72c0.72,0.15,1.44,0.3,2.17,0.45"/>
	<path class="st2" d="M31.54,622.69c0.72,0.15,1.45,0.29,2.17,0.43"/>
	<path class="st2" d="M17.75,619.74c-0.77-0.17-1.52-0.35-2.28-0.52"/>
	<path class="st2" d="M34.83,183.07c-0.07-0.21-0.14-0.42-0.21-0.63"/>
	<path class="st2" d="M33.65,179.64c-0.06-0.18-0.12-0.35-0.18-0.52"/>
	<path class="st2" d="M35.87,186.18c-0.05-0.16-0.1-0.32-0.16-0.48"/>
	<path class="st2" d="M37.1,190.02c-0.08-0.25-0.16-0.5-0.24-0.75"/>
	<path class="st2" d="M13.32,618.73c-0.69-0.16-1.36-0.32-2.04-0.48"/>
	<path class="st2" d="M32.63,176.78c-0.06-0.16-0.12-0.33-0.18-0.49"/>
	<path class="st2" d="M38.14,193.38c-0.03-0.11-0.07-0.22-0.1-0.33"/>
	<path class="st2" d="M36.31,623.64c-0.88-0.17-1.74-0.35-2.6-0.52"/>
	<path class="st2" d="M22.25,620.73c-0.78-0.17-1.55-0.34-2.33-0.51"/>
	<path class="st2" d="M31.54,622.69c-0.85-0.17-1.68-0.35-2.52-0.52"/>
	<path class="st2" d="M26.85,621.72c-0.81-0.17-1.6-0.34-2.4-0.51"/>
	<path class="st2" d="M52.09,297.79c-0.12,9.89-0.56,20.16-1.3,30.93C43.02,442.43,2.42,608.29,0.6,615.66"/>
	<path class="st2" d="M52.07,285.28c0.02,1.37,0.04,2.74,0.05,4.13"/>
	<path class="st2" d="M49.83,249.72c-1.89-16.56-4.99-32.49-9.43-48.53"/>
</g>
<path class="NeckAndArmTrim fill" d="M234.22,1.44c-1.53,14.31-6.5,42.2-25.95,70.51c-14.47,21.06-31.28,34.08-42.4,41.36
	c-11.12-7.62-28.01-21.25-42.4-43.08c-18.23-27.66-23.2-54.46-24.8-68.79l6.63-1.87c2.1,17.83,9.02,52.93,36.34,83.58
	c8.08,9.06,16.48,16.1,24.23,21.54c7.76-5.48,16.14-12.52,24.23-21.54c27.38-30.54,34.82-65.4,37.21-83.58L234.22,1.44z"/>
<path class="NeckAndArmTrim fill" d="M31.75,173.63c2.64-0.44,6.39-1.35,10.38-3.45C53.93,164,60.45,151.47,65.5,131.4
	c5.97-23.71,5.71-41.34,6.06-77.55c0.19-20.11,0.47-36.09,0.65-44.97l-6.7,1.89c0,3.97,0.01,9.96,0,17.23
	c-0.04,42.72-0.08,64.23-0.87,71.52c-1.81,16.82-6.52,60.5-28.55,67.21c-2.8,0.85-5.28,0.93-6.92,0.86L31.75,173.63z"/>
<path class="NeckAndArmTrim fill" d="M301.99,173.3c-1.85-0.01-4.78-0.22-8.06-1.39c-14.35-5.14-19.73-23.24-22.39-32.19
	c-11.56-38.88-9.01-123.24-8.76-130.66l6.06,1.72c-0.2,6.11-2.97,100.04,9.52,131.83c2.79,7.11,9.01,22.96,20.77,24.99
	c2.22,0.38,4.1,0.18,5.19,0L301.99,173.3z"/>
<path class="NeckAndArmTrim fill" d="M109.45,21.82c10.2,4.97,29.77,12.85,55.56,13.08c27.06,0.24,47.57-8.07,57.87-13.08l1.74-7.91
	c-8.95,5.23-29.6,15.67-57.87,15.83c-28.99,0.16-50.17-10.6-59.12-15.83L109.45,21.82z"/>
<g id="FBodyLogos"></g>
</svg>
