<?xml version="1.0" encoding="utf-8"?>
<!-- Generator: Adobe Illustrator 19.1.0, SVG Export Plug-In . SVG Version: 6.00 Build 0)  -->
<svg version="1.1" id="Layer_1" xmlns="http://www.w3.org/2000/svg" xmlns:xlink="http://www.w3.org/1999/xlink" x="0px" y="0px"
	 viewBox="0 0 335.2 641.14" style="enable-background:new 0 0 335.2 641.14;" xml:space="preserve">
<style type="text/css">
	<![CDATA[
	@font-face{font-family:'codaheavy';src:url('/fonts/coda-heavy-webfont.woff') format('woff')}
	text{font-family:Impact,codaheavy,sans-serif}
	.Number.fill{fill:#000}
	.NumberOutline.stroke{fill:none;stroke:#777;stroke-width:2.5}
	.Colour1.fill{fill:#211E1F;}
	.Colour2.fill{fill-rule:evenodd;clip-rule:evenodd;fill:#DD1A56;}
	.NeckAndArmTrim.fill{fill:#DD1A56;stroke:#040404;stroke-width:0.9921;stroke-miterlimit:10;}
	.st0{fill:#FFFFFF;stroke:#040404;stroke-width:0.9921;stroke-miterlimit:10;}
	.st1{fill:none;stroke:#00216A;stroke-linecap:round;stroke-linejoin:round;}
	.st2{fill-rule:evenodd;clip-rule:evenodd;fill:url(#SVGID_1_);}
	]]>
</style>
<path class="Colour1 fill" d="M43.52,206.62c-4.45-15.82-9.29-28.62-12.88-37.33c1.08,0.19,2.95,0.39,5.15,0
	c11.66-2.04,17.84-18,20.6-25.17c12.39-32.03,9.64-126.65,9.45-132.81c13.74-3.76,27.47-7.53,41.21-11.29
	c10.44,5.47,32.3,15.12,61.43,14.91c28.12-0.19,49.22-9.47,59.61-14.91c13.16,3.76,26.33,7.53,39.49,11.29
	c-0.01,4-0.01,10.03,0,17.36c0.04,43.04,0.08,64.7,0.86,72.04c1.8,16.94,6.47,60.96,28.33,67.7c2.78,0.86,5.24,0.93,6.87,0.87
	c-3.08,7.91-7.26,19.54-11.16,33.86c-10.83,39.77-13.63,78.87-10.3,128.47c7.71,114.55,47.98,281.64,49.79,289.06
	c-43.32,11.08-102,21.47-171.69,20.83C96.13,640.93,41.77,631.2,0.6,620.67c16.27-70.92,29.53-138.78,40.35-203.12
	C56.16,327.07,61.82,271.75,43.52,206.62L43.52,206.62z"/>

<rect x="109.52" y="215.04" class="st0" width="31.76" height="12.15"/>
<rect x="193.65" y="215.04" class="st0" width="31.77" height="12.15"/>
<rect x="109.6" y="322.59" class="st0" width="31.77" height="12.16"/>
<rect x="109.6" y="310.44" class="st0" width="31.77" height="12.15"/>
<path class="Colour2 fill" d="M33.19,175.37c2.63-0.75,5.59-1.89,8.62-3.65c11.37-6.61,16.19-17.57,17.93-22.3l0.18,0.72
	c25.93,99.41,25.98,177.54,21.8,228.36c-3.37,40.88-11.26,85.65-16.31,114.29c-9.83,55.78-29.26,135.77-29.26,135.77
	c-12.78-2.54-24.64-5.28-35.54-8.07c1.8-7.42,42.08-174.5,49.79-289.06c3.25-48.35-1.56-88.47-10.3-128.47
	C37.56,191.38,35.02,181.87,33.19,175.37z"/>
<path class="st1" d="M0.6,620.49c0.01,0,0.03,0.01,0.04,0.01c-0.01,0.06-0.03,0.11-0.04,0.17c41.17,10.53,95.52,20.26,159.68,20.83
	c52.51,0.48,98.75-5.3,136.9-12.92c0.05,0.21,0.08,0.33,0.08,0.33c13.42-2.64,25.89-5.52,37.34-8.46
	c-16.27-71.22-29.53-139.35-40.35-203.95c-5.88-35.13-10.33-64.96-12.52-92.14c-2.59-46.2,0.45-83.41,10.74-121.22
	c1.71-6.26,3.46-12,5.16-17.14c2.49-7.25,4.6-12.99,4.61-13.01h-0.03c0.49-1.31,0.97-2.55,1.42-3.71c-1.63,0.06-4.09-0.01-6.87-0.87
	c-21.85-6.75-26.53-50.76-28.33-67.7c-0.78-7.34-0.82-29.01-0.86-72.04c-0.01-7.33-0.01-13.36,0-17.36
	c-13.16-3.76-26.33-7.53-39.49-11.29c-10.39,5.44-31.49,14.72-59.61,14.91c-29.14,0.2-50.99-9.45-61.43-14.91
	C93.31,3.79,79.58,7.55,65.84,11.31c0.19,6.15,2.94,100.77-9.45,132.81c-2.77,7.17-8.94,23.13-20.6,25.17
	c-2.2,0.39-4.07,0.19-5.15,0c0.88,2.13,1.83,4.5,2.83,7.1c1.81,6.45,4.22,15.58,6.62,26.58c8.74,40,13.55,80.12,10.3,128.47
	c-2.31,34.32-7.54,73.35-13.79,111.39c-9.79,55.76-21.43,114.04-35.25,174.56C0.97,618.99,0.71,620.04,0.6,620.49z"/>
<path class="NeckAndArmTrim fill" d="M98.88,1.85c9.74,6.23,35.45,20.82,71.09,20.12c32.74-0.64,56.32-13.84,66.16-20.14l-8.24-2.25
	c-10.11,5.47-31.17,15.12-59.41,15.37C138.98,15.2,117,5.07,106.85-0.43L98.88,1.85z"/>
<path class="NeckAndArmTrim fill" d="M31.93,175.29c2.62-0.45,6.34-1.36,10.3-3.47c11.7-6.23,18.17-18.85,23.18-39.06
	c5.93-23.88,5.67-41.65,6.01-78.13c0.18-20.27,0.47-36.35,0.64-45.31l-6.66,1.91c0.01,4.09,0.01,10.1,0,17.36
	c-0.09,43.84-0.17,66.03-1.97,78.96c-2.58,18.57-7.6,54.7-27.22,60.79c-2.77,0.86-5.24,0.93-6.87,0.87L31.93,175.29z"/>
<path class="NeckAndArmTrim fill" d="M302.04,175.04c-1.84-0.01-4.75-0.22-8-1.4c-14.24-5.18-19.58-23.42-22.21-32.44
	c-11.47-39.17-8.94-124.15-8.69-131.62l6.01,1.74c-0.19,6.15-2.94,100.77,9.45,132.81c2.77,7.17,8.94,23.13,20.6,25.17
	c2.21,0.39,4.07,0.19,5.15,0L302.04,175.04z"/>
<linearGradient id="SVGID_1_" gradientUnits="userSpaceOnUse" x1="-603.4131" y1="334.488" x2="-496.0197" y2="441.8814" gradientTransform="matrix(-1 0 0 1 -341.6165 0)">
	<stop class="Gradient1 stopColor" offset="0" style="stop-color:#E01860"/>
	<stop class="Gradient2 stopColor" offset="0.1182" style="stop-color:#E11667"/>
	<stop class="Gradient3 stopColor" offset="0.2562" style="stop-color:#E83F85"/>
	<stop class="Gradient4 stopColor" offset="0.8325" style="stop-color:#F5BCD4"/>
	<stop class="Gradient5 stopColor" offset="1" style="stop-color:#FFFFFF"/>
</linearGradient>
<rect x="193.73" y="322.59" class="st0" width="31.77" height="12.16"/>
<rect x="193.65" y="310.44" class="st0" width="31.77" height="12.15"/>
<path class="Colour2 fill" d="M301.95,173c-1.84-0.04-4.62-0.29-7.7-1.41c-9.82-3.6-15.41-13.44-18.8-22.16l-0.17,0.72
	c-23.81,83-27.22,151.38-26.1,197.18c1.42,58.22,10.84,108.18,21.46,164.52c9.17,48.6,26.62,117.07,26.62,117.07
	c13.42-2.64,25.89-5.52,37.34-8.46c-16.27-71.22-29.53-139.35-40.35-203.95c-15.21-90.86-20.88-146.41-2.57-211.81
	c3.53-12.61,10.55-31.66,10.57-31.71H301.95z"/>
<g id="BBodyLogos"></g>
</svg>
