<?xml version="1.0" encoding="utf-8"?>
<!-- Generator: Adobe Illustrator 19.1.0, SVG Export Plug-In . SVG Version: 6.00 Build 0)  -->
<svg version="1.1" id="Layer_1" xmlns="http://www.w3.org/2000/svg" xmlns:xlink="http://www.w3.org/1999/xlink" x="0px" y="0px"
	 viewBox="0 0 335.2 641.14" style="enable-background:new 0 0 335.2 641.14;" xml:space="preserve">
<style type="text/css">
	<![CDATA[
	@font-face{font-family:'codaheavy';src:url('/fonts/coda-heavy-webfont.woff') format('woff')}
	text{font-family:Impact,codaheavy,sans-serif}
	.Number.fill{fill:#000}
	.NumberOutline.stroke{fill:none;stroke:#777;stroke-width:2.5}
	.Colour1.fill{fill:#CCCBCB;}
	.Colour2.fill{fill:#3A3A3A;}
	.Colour3.fill{fill:#212021;}
	.NeckAndArmTrim.fill{fill:#3A3A3A;stroke:#000000;stroke-miterlimit:10;}
	.st0{fill:none;stroke:#000000;stroke-linecap:round;stroke-linejoin:round;}
	.st1{fill:none;stroke:#000000;stroke-miterlimit:10;}
	.st2{fill:#FFFFFF;stroke:#000000;}
	]]>
</style>
<path class="Colour1 fill" d="M44.1,206.63c-4.47-15.83-9.35-28.62-12.95-37.33c1.09,0.18,2.97,0.39,5.18,0
	c11.73-2.04,17.94-18.01,20.73-25.17c12.46-32.03,9.7-126.66,9.5-132.82c13.82-3.76,27.64-7.52,41.46-11.29
	c3.18,21.97,111.55,21.97,121.78,0c13.24,3.76,26.49,7.52,39.73,11.29c0,4-0.01,10.03,0,17.36c0.04,43.04,0.08,64.71,0.86,72.05
	c1.81,16.94,6.51,60.96,28.5,67.71c2.79,0.86,5.27,0.93,6.91,0.87c-3.1,7.91-14.52,18.54-18.44,32.87
	c-10.89,39.77-13.72,78.88-10.36,128.48c7.75,114.56,55.49,282.64,57.31,290.06c-43.59,11.07-102.61,21.46-172.73,20.83
	c-64.53-0.58-119.22-10.31-160.64-20.83c16.37-70.93,29.71-138.78,40.59-203.13C56.81,327.08,62.51,271.76,44.1,206.63z"/>
<path class="Colour3 fill" d="M319.61,624.26v-68.42c-7.78-36.46-17.22-84.07-24.57-131.76l-2.35,4.13l1.56-9.36
	c-0.5-3.32-0.99-6.63-1.47-9.94l-0.96,0.96l-0.03,0.03l-1.49,1.5l-6.64,6.67l0.03-0.03l-0.38,0.39l-21.13,21.24l0.61,0.15
	l-0.36,25.84l-6.84-19.36l-7.59,7.63l0.01,12.27l-6.25-6l-14.79,14.86c0.99,0.91,1.15,2.45,0.32,3.54
	c-0.88,1.16-2.53,1.38-3.68,0.49c-0.12-0.1-0.23-0.2-0.33-0.31l-10.62,10.67l7.2,5.22l-4.84,2.47l-2.96-7.09l-0.84,0.84l8.67,14.57
	l-15.56-7.64l-0.24,0.24l6.65,8.75l0.49-1.06l5.34,9.14l-6.06-1.44l-8.86,7.72l22.38,9.12l-6.18,2.79l3.54,0.42l-3.05,9.32l6.9-3.21
	l-1.34,7.66l-12.11-1.4l4.08-1.9l-5.61-7.46l-5.03,2.27l-2.49-11.13L191,532.51l-2.91-18.38l-9.9,9.95l1.08,7.64l-3.93-4.78
	l-5.64,5.67l15.06,0.66l-8.41,12.78l-6.63-5.5l-7.5,13.87l2.37,3.04l-3.03,0.99l2.19,3.66l-4.5-2.2l-0.23,0.42l0.07-0.49l-0.71-0.34
	l-4.98,1.63l-0.35-4.23l-5.06-2.47l-2.01,2.02l0.5,2.11l4.02,1.14l-2.25,6.24l0.3,1.26l-0.6-0.42l-1.86,5.16l11.63,8.09l-14.44-0.32
	l-0.4,1.1l3.26,3.34l-8.68,2.7l-1.68-7.31l-8.78-0.19l-4.11,17.31l-1.83-15.15l-10.31,10.36l9.42,6.12l-16.67,9.62l-2.73-5.71
	l-18.65,18.75l7.36,3l-18.78,8.48l0,0l-2.13,2.14c27.96,4.14,59.1,6.98,92.98,7.28C224.1,642.1,277.8,633.9,319.61,624.26z
	 M139.77,604.57l-5.86-0.86l-1.11-14.3L139.77,604.57z M151.79,591.98l-0.59,4.83l-4.9-4.39L151.79,591.98z M156.59,582.99
	l-1.7,1.65l-1.64-1.7l1.7-1.64L156.59,582.99z M157.21,596.87l-8.61,9.64l3.89,3.98l-6.44,1.1l-0.41-1.78l-3.09-10.07L157.21,596.87
	z M160.07,589.36l2.4-2.39l3.75,4.39L160.07,589.36z M232.29,504.91l-1.8,0.13l2.3,8.16l-3.11,1.7l0.7,2.92l-8.72,1.46l-9.02,4.93
	l13.98-16.09l-2.9,1.43l-1.67-3.42l1.64-0.81l-5.87-19.7L232.29,504.91z M229.61,526.8c1.16-0.62,2.59-0.17,3.2,0.99
	c0.61,1.16,0.17,2.6-0.99,3.22c-1.16,0.61-2.59,0.17-3.2-0.99C228.01,528.85,228.45,527.41,229.61,526.8z M239.38,486.99l-6.39,8.3
	l-4.26-13.57L239.38,486.99z M250.97,471.85l-0.58,5.69l-9.55-1.7L250.97,471.85z M247.4,484.13c1.04-0.15,2.01,0.57,2.16,1.61
	c0.15,1.04-0.57,2.02-1.61,2.17c-1.04,0.15-2-0.57-2.16-1.61C245.65,485.25,246.36,484.28,247.4,484.13z M252.28,498.29l-0.45,25.38
	l-17.7-26.84L252.28,498.29z M258.31,540.97l-24.46,2.22l4.29-5.41l-8.09-0.34l4.68-6.2l5.6,3.77l6.36-8.01L258.31,540.97z
	 M279.6,425.21l8.13,2.51l-5.26,13.59L279.6,425.21z M266.91,485.68l-5.32,22.42l-3.22-26.64L266.91,485.68z M253.78,572.96
	l3.18-4.43l7.09,5.98L253.78,572.96z M247.5,553.46l8.58-2.14l0.33,7.81L247.5,553.46z M241.31,564.56l2.26-3.05l3.04,2.27
	l-2.26,3.06L241.31,564.56z M240.09,577.6l-16.8,7.06l-11.16-22.78L240.09,577.6z M209.35,592.75l1.73-10.4l-0.52-2.14l0.7,1.04
	l0.65-3.93l4.08,3.77l-2.22,3.89l11.77,17.43l-9.52,0.18l-3.69-15.09L209.35,592.75z M205.18,566.01l5.56,2.56l-3.49,9.02
	L205.18,566.01z M196.26,589.76l8.13,2.51l-5.26,13.59L196.26,589.76z M196.01,580.7l2.99-3.42l1.49,5.99L196.01,580.7z
	 M195.51,540.93l24.97,16.58l-9.79,4.27L195.51,540.93z M192.41,549.72l-5.45-3.87l7.73-0.25L192.41,549.72z M191.64,562.14
	l-7.94,3.29l-2.3-14.53L191.64,562.14z M187.58,585.11l2.17-0.37l0.37,2.19l-2.17,0.37L187.58,585.11z M185.11,578.92l-0.6-5.39
	l3.71,4.81L185.11,578.92z M172.72,592.41l0.69-10.58l11.19,8.95L172.72,592.41z M171.98,561.09l1.79-6.62l3.04,9.48L171.98,561.09z
	 M171.06,577.32l-15.24-1.13l9.51-8.62L171.06,577.32z"/>
<path class="Colour3 fill" d="M288.52,401.47l3.42,1.58c0.22,1.59,0.45,3.17,0.68,4.76l-0.8,2.07l-1.52,1.53L288.52,401.47z"/>
<polygon class="Colour3 fill" points="279.34,416.16 282.33,412.74 283.65,418.07 283.3,418.43 "/>
<polygon class="Colour3 fill" points="81.14,583.22 76.3,585.7 72.72,577.12 "/>
<polygon class="Colour3 fill" points="126.13,573.2 130.77,561.28 136.92,565.56 121.06,581.5 119.67,570.01 "/>
<polygon class="Colour3 fill" points="66.73,614.37 82.12,620.64 70.7,632.12 "/>
<polygon class="Colour3 fill" points="225.88,505.36 229.21,505.13 227.01,507.66 "/>
<polygon class="Colour3 fill" points="72.51,594.31 77.85,603.45 69.25,601.4 "/>
<polygon class="Colour3 fill" points="124.63,475.19 128.05,462.58 133.84,480.65 "/>
<polygon class="Colour3 fill" points="129.27,506.32 150.79,521.29 123.68,520.69 "/>
<polygon class="Colour3 fill" points="140.49,423.23 136.6,439.59 134.25,420.16 "/>
<polygon class="Colour3 fill" points="129.18,370.32 129.01,379.99 122.27,369.77 "/>
<polygon class="Colour3 fill" points="121.35,548.07 125.07,547.34 125.79,551.08 122.07,551.8 "/>
<polygon class="Colour3 fill" points="176.37,396.73 172.97,398.41 171.3,394.99 174.7,393.31 "/>
<polygon class="Colour3 fill" points="172.64,446.64 165.68,441.7 175.55,441.38 "/>
<polygon class="Colour3 fill" points="177.5,495.08 173.26,487.27 180.7,484.97 "/>
<polygon class="Colour3 fill" points="267.85,409 271.56,413.8 268.45,414.38 "/>
<polygon class="Colour3 fill" points="185.64,437.47 193.37,450.31 177.28,443.85 "/>
<polygon class="Colour3 fill" points="152.35,535.1 156.61,550.72 144.73,544.26 "/>
<polygon class="Colour3 fill" points="220.73,463.02 231.44,468.64 217.92,469.56 "/>
<path class="Colour3 fill" d="M229.43,454.34c-0.21,1.3-1.42,2.18-2.71,1.97c-1.29-0.21-2.17-1.43-1.96-2.73
	c0.21-1.3,1.42-2.18,2.71-1.97C228.76,451.82,229.64,453.05,229.43,454.34z"/>
<polygon class="Colour3 fill" points="236.9,359.62 232.06,362.1 228.48,353.52 "/>
<polygon class="Colour3 fill" points="248.75,434.83 260.18,433.85 255.41,443.42 "/>
<polygon class="Colour3 fill" points="256.75,417.29 267.94,426.23 256.06,427.87 "/>
<polygon class="Colour3 fill" points="273.46,422.38 271.29,422.75 270.91,420.57 273.09,420.19 "/>
<polygon class="Colour3 fill" points="230.32,422.33 237.67,432.57 228.09,444.53 "/>
<polygon class="Colour3 fill" points="93.09,549.87 81.92,567.26 68.97,554.53 "/>
<polygon class="Colour3 fill" points="92.32,541.6 89.07,539.64 91.01,536.38 94.26,538.33 "/>
<polygon class="Colour3 fill" points="81.02,531.23 78.3,535.95 70.65,530.71 "/>
<polygon class="Colour3 fill" points="92.78,523.67 91.68,515.93 101.11,520.68 "/>
<polygon class="Colour3 fill" points="154.54,515.24 163.18,499.24 171.25,515.34 175.12,507.23 184.09,510.29 171.62,516.07 
	174.23,521.28 "/>
<polygon class="Colour3 fill" points="105.9,586.63 97.59,598.1 82.54,576.22 "/>
<polygon class="Colour3 fill" points="197.34,516.6 191.74,510.46 195.65,506.53 199.27,509.11 "/>
<polygon class="Colour3 fill" points="85.01,598.1 83.34,594.68 86.75,593.01 88.41,596.42 "/>
<polygon class="Colour3 fill" points="103.55,493.8 118.12,499.74 106.09,505.17 "/>
<polygon class="Colour3 fill" points="108.5,544.18 117.95,561.94 98.56,550.49 "/>
<polygon class="Colour3 fill" points="157.21,409.86 148.6,407.81 151.86,400.72 "/>
<polygon class="Colour3 fill" points="194.57,464.08 194.16,479.27 194.67,484.02 194.04,483.77 193.9,489.18 179.16,474.22 "/>
<polygon class="Colour3 fill" points="152.72,464.82 146.55,461.16 148.84,452.71 "/>
<polygon class="Colour3 fill" points="161.51,466.7 158.57,448.13 171.65,462.5 "/>
<polygon class="Colour3 fill" points="141.4,477.58 153.49,474.16 161.36,487.32 "/>
<polygon class="Colour3 fill" points="208.81,478.67 206.48,463.11 214.24,465.75 "/>
<polygon class="Colour3 fill" points="186.24,496.85 187.66,493.32 191.17,494.74 189.76,498.28 "/>
<polygon class="Colour3 fill" points="217.52,413.12 209.28,445.01 198.3,412.7 "/>
<path class="Colour3 fill" d="M202.54,447.9c0.83,0.64,0.98,1.83,0.35,2.66c-0.63,0.83-1.81,0.99-2.64,0.35
	c-0.83-0.64-0.98-1.82-0.35-2.65C200.53,447.42,201.71,447.26,202.54,447.9z"/>
<polygon class="Colour3 fill" points="199.44,502.72 195.65,506.53 190.67,503 "/>
<polygon class="Colour3 fill" points="70.66,239.51 68.48,239.89 68.85,242.07 71.03,241.7 "/>
<polygon class="Colour3 fill" points="81.77,228.42 93.2,227.44 86.53,218.85 "/>
<polygon class="Colour3 fill" points="70.38,248.46 74.09,253.27 73.49,247.88 "/>
<polygon class="Colour3 fill" points="85.2,244.98 85.88,234.4 74,236.03 "/>
<polygon class="Colour3 fill" points="162.78,188.04 148.05,173.09 147.9,178.49 147.27,178.25 147.78,183 147.38,198.19 "/>
<polygon class="Colour3 fill" points="121.22,199.24 124.03,192.7 110.5,193.63 "/>
<polygon class="Colour3 fill" points="111.62,239.93 113.85,217.74 104.27,229.69 "/>
<polygon class="Colour3 fill" points="105.04,302.64 113.46,308.75 109.88,300.17 "/>
<path class="Colour3 fill" d="M115.22,205.95c-1.29-0.21-2.51,0.67-2.71,1.97c-0.21,1.3,0.67,2.52,1.96,2.73
	c1.29,0.21,2.51-0.68,2.71-1.97C117.39,207.38,116.52,206.16,115.22,205.95z"/>
<polygon class="Colour3 fill" points="59.61,249.53 62.6,246.11 58.64,243.84 58.29,244.19 "/>
<polygon class="Colour3 fill" points="114.93,154.61 112.73,157.14 116.06,156.91 "/>
<path class="Colour3 fill" d="M221.77,64.29l16.67-9.62l2.73,5.71l18.65-18.75l-7.36-3l17.06-7.7c0-0.75,0-1.49,0-2.25
	c-0.01-7.33,0-13.36,0-17.36c-11.96-3.4-26.91-7.47-38.87-10.87l-0.99,0.68c0,18.79-121.5,18.79-121.5,0H104
	c-12.48,3.4-24.97,6.8-37.45,10.19c0.2,6.16,2.96,100.78-9.5,132.82c-2.79,7.17-9,23.13-20.73,25.17c-2.22,0.39-4.09,0.18-5.18,0
	c3.61,8.71,8.48,21.5,12.95,37.33c4.13,14.62,7.04,28.74,8.91,42.88l5.28-5.31l-0.03,0.03l0.38-0.39l21.13-21.24l-0.61-0.15
	l0.36-25.84l6.84,19.36l7.59-7.63l-0.01-12.27l6.25,6l14.79-14.86c-0.99-0.91-1.15-2.45-0.32-3.54c0.88-1.16,2.53-1.38,3.68-0.49
	c0.12,0.1,0.23,0.2,0.33,0.31l10.62-10.67l-7.2-5.22l4.84-2.47l2.96,7.09l0.84-0.84l-8.67-14.57l15.56,7.64l0.24-0.24l-6.65-8.75
	l-0.49,1.06l-5.34-9.14l6.06,1.44l8.86-7.72l-22.38-9.12l6.18-2.79l-3.54-0.42l3.05-9.32l-6.9,3.21l1.34-7.66l12.11,1.4l-4.08,1.9
	l5.61,7.46l5.03-2.27l2.49,11.13l11.74-4.86l2.91,18.38l9.9-9.95l-1.08-7.64l3.93,4.78l5.64-5.67l-15.06-0.66l8.41-12.78l6.63,5.5
	l7.5-13.87l-2.37-3.04l3.03-0.99l-2.19-3.66l4.5,2.2l0.23-0.42l-0.07,0.49l0.71,0.34l4.98-1.63l0.35,4.23l5.06,2.47l2.01-2.02
	l-0.5-2.11l-4.02-1.14l2.25-6.24l-0.3-1.26l0.6,0.42l0.81-2.24c1.01-0.06,1.99-0.18,2.42-0.41c0.87-0.47,8.05-5.38,8.42-5.88
	c0.2-0.26,1.74-2.23,3.23-4.18l6.07,0.13l4.11-17.31l1.83,15.15l10.31-10.36L221.77,64.29z M54.2,234.54l5.26-13.59l2.88,16.11
	L54.2,234.54z M136.76,96.26l-5.56-2.56l3.49-9.02L136.76,96.26z M125.91,59.66l3.69,15.09l2.99-5.24l-1.73,10.4l0.52,2.14
	l-0.7-1.04l-0.65,3.93l-4.08-3.77l2.22-3.89L116.4,59.84L125.91,59.66z M97.59,95.43l3.04,2.27l-2.26,3.05l-3.04-2.27L97.59,95.43z
	 M88.16,89.31l-3.18,4.43l-7.09-5.98L88.16,89.31z M94.44,108.81l-8.58,2.14l-0.33-7.81L94.44,108.81z M75.03,176.59l5.32-22.42
	l3.22,26.64L75.03,176.59z M83.63,121.29l24.46-2.22l-4.29,5.41l8.09,0.34l-4.68,6.2l-5.6-3.77l-6.36,8.01L83.63,121.29z
	 M113.32,132.25c0.61,1.16,0.17,2.6-0.98,3.22c-1.16,0.62-2.59,0.17-3.2-0.99c-0.61-1.16-0.17-2.6,0.99-3.22
	C111.27,130.65,112.7,131.09,113.32,132.25z M90.11,138.59l17.7,26.84l-18.15-1.45L90.11,138.59z M96.14,175.97
	c0.15,1.04-0.57,2.02-1.6,2.17c-1.04,0.15-2.01-0.57-2.16-1.61c-0.15-1.04,0.57-2.02,1.61-2.17
	C95.03,174.2,95.99,174.92,96.14,175.97z M90.98,190.42l0.58-5.69l9.55,1.7L90.98,190.42z M102.56,175.28l6.39-8.3l4.26,13.57
	L102.56,175.28z M120.29,142.99l9.02-4.93l-13.98,16.09l2.9-1.43l1.67,3.42l-1.64,0.81l5.87,19.7l-14.47-19.29l1.8-0.13l-2.3-8.16
	l3.11-1.7l-0.7-2.92L120.29,142.99z M101.85,84.67l16.8-7.06l11.16,22.78L101.85,84.67z M121.46,104.75l9.79-4.27l15.19,20.85
	L121.46,104.75z M147.25,116.66l2.28-4.12l5.45,3.87L147.25,116.66z M150.31,100.13l5.92-2.45l1.45,1.49l0.87-0.45l2.01,12.66
	L150.31,100.13z"/>
<path class="Colour3 fill" d="M269.52,31.88l-9.69,9.74l9.71,3.96C269.53,41.29,269.52,36.73,269.52,31.88z"/>
<polygon class="Colour3 fill" points="205.02,96.71 211.17,100.99 215.81,89.07 222.27,92.25 220.88,80.76 "/>
<polygon class="Colour3 fill" points="151.27,159.26 146.3,155.73 142.5,159.55 "/>
<polygon class="Colour3 fill" points="155.7,165.41 152.18,163.99 150.77,167.52 154.28,168.94 "/>
<polygon class="Colour3 fill" points="156.3,224.8 164.66,218.41 148.57,211.95 "/>
<polygon class="Colour3 fill" points="161.25,177.29 168.68,174.99 164.44,167.19 "/>
<polygon class="Colour3 fill" points="144.6,145.66 142.67,153.16 146.3,155.73 150.2,151.81 "/>
<polygon class="Colour3 fill" points="212.76,291.94 219.67,292.5 212.93,282.28 "/>
<polygon class="Colour3 fill" points="124.42,249.15 143.64,249.57 132.66,217.26 "/>
<polygon class="Colour3 fill" points="165.57,265.54 167.24,268.96 170.64,267.28 168.97,263.86 "/>
<polygon class="Colour3 fill" points="216.15,111.19 216.87,114.93 220.59,114.2 219.87,110.46 "/>
<path class="Colour3 fill" d="M269.43,67.96l0.16-0.36c-0.01-2.37-0.02-4.85-0.03-7.48l-5.48-1.3L269.43,67.96z"/>
<path class="Colour3 fill" d="M142.05,214.01c0.63-0.83,0.48-2.02-0.35-2.66c-0.83-0.64-2.01-0.48-2.64,0.35
	c-0.63,0.83-0.48,2.02,0.35,2.66C140.23,215,141.42,214.84,142.05,214.01z"/>
<path class="Colour3 fill" d="M248.85,112.39l22.35-4.32c-0.1-0.81-0.19-1.59-0.28-2.35l-10.9-10.72L248.85,112.39z"/>
<polygon class="Colour3 fill" points="260.8,79.04 269.22,85.15 265.64,76.57 "/>
<polygon class="Colour3 fill" points="217.31,187.08 208.1,181.61 213.89,199.69 "/>
<polygon class="Colour3 fill" points="263.65,126.32 260.92,131.04 271.3,131.56 "/>
<polygon class="Colour3 fill" points="133.14,183.59 127.71,196.52 135.46,199.16 "/>
<polygon class="Colour3 fill" points="240.83,141.58 250.26,146.33 249.16,138.59 "/>
<polygon class="Colour3 fill" points="166.82,155.04 170.69,146.92 178.76,163.03 187.4,147.03 167.71,140.98 170.33,146.2 
	157.85,151.97 "/>
<polygon class="Colour3 fill" points="223.82,162.52 238.39,168.46 235.85,157.09 "/>
<polygon class="Colour3 fill" points="247.68,123.93 250.93,125.89 252.87,122.62 249.63,120.67 "/>
<polygon class="Colour3 fill" points="244.35,64.17 236.05,75.64 259.4,86.05 "/>
<polygon class="Colour3 fill" points="256.93,64.17 253.53,65.84 255.2,69.26 258.6,67.58 "/>
<polygon class="Colour3 fill" points="233.44,118.09 243.38,111.78 224,100.32 "/>
<polygon class="Colour3 fill" points="170.29,199.76 183.38,214.13 180.43,195.57 "/>
<polygon class="Colour3 fill" points="189.59,127.17 197.21,118.01 185.33,111.55 "/>
<polygon class="Colour3 fill" points="218.26,141.58 191.15,140.98 212.67,155.94 "/>
<polygon class="Colour3 fill" points="166.39,220.88 176.26,220.56 169.3,215.62 "/>
<polygon class="Colour3 fill" points="201.46,239.03 207.69,242.11 205.34,222.68 "/>
<polygon class="Colour3 fill" points="190.08,261.55 193.34,254.45 184.74,252.41 "/>
<polygon class="Colour3 fill" points="193.1,209.56 195.39,201.11 189.22,197.44 "/>
<polygon class="Colour3 fill" points="188.45,188.1 200.54,184.69 180.58,174.95 "/>
<path class="Colour2 fill" d="M301.75,175.04c-1.86-0.03-4.65-0.28-7.74-1.4c-9.89-3.58-15.51-13.38-18.91-22.07l-0.17,0.72
	c-23.95,82.66-27.38,150.77-26.26,196.39c1.43,57.99,10.9,107.74,21.59,163.85c9.22,48.41,26.77,116.6,26.77,116.6
	c13.5-2.62,26.05-5.49,37.57-8.42c-16.37-70.93-29.71-138.78-40.59-203.13c-15.31-90.5-21-145.81-2.59-210.95
	c3.55-12.56,10.62-31.53,10.64-31.58L301.75,175.04z"/>
<path class="Colour2 fill" d="M31.69,175.38c2.64-0.44,6.37-1.36,10.36-3.47c8.09-4.28,13.7-11.58,18.05-22.3l0.18,0.72
	c26.08,99.42,26.14,177.55,21.93,228.37c-3.39,40.89-11.33,85.66-16.41,114.3c-9.89,55.78-29.45,135.77-29.45,135.77
	c-12.85-2.53-24.79-5.28-35.76-8.06c1.82-7.42,42.34-174.52,50.09-289.08c3.36-49.6,0.53-88.71-10.36-128.48
	c-3.02-11.01-6.2-20.42-8.92-27.78L31.69,175.38z"/>
<path class="st0" d="M30.79,477.73c-5.59,29.89-11.72,60.45-18.43,91.66 M36.38,628.71c35.48,7.02,77.66,12.41,125.18,12.83
	c51.79,0.46,97.52-5.09,135.46-12.48 M301.37,176.9c1.91-2.77,3.52-5.3,4.41-7.6c-1.63,0.07-4.12-0.01-6.91-0.87
	c-21.99-6.75-26.69-50.77-28.5-67.71c-0.78-7.34-0.82-29.01-0.86-72.05c-0.01-7.33,0-13.36,0-17.36
	c-13.24-3.76-26.49-7.52-39.73-11.29c-10.22,21.97-118.6,21.97-121.78,0C94.19,3.78,80.37,7.55,66.55,11.31
	c0.2,6.16,2.96,100.78-9.5,132.82c-2.79,7.17-9,23.13-20.73,25.17c-2.22,0.39-4.09,0.18-5.18,0c0.72,1.75,1.5,3.66,2.31,5.73
	 M12.35,569.4c-3.64,16.92-7.45,34.02-11.44,51.31c10.92,2.77,22.76,5.49,35.46,8 M301.37,176.9c-1.86,5.07-7.07,19.52-9.95,29.73
	c-18.41,65.14-12.72,120.45,2.59,210.95c10.89,64.35,24.22,132.2,40.59,203.13c-11.52,2.93-24.07,5.79-37.57,8.42
	c0,0-0.01-0.02-0.02-0.06 M301.37,176.9c0.43-1.17,0.68-1.84,0.68-1.85l-0.3,0c-1.86-0.03-4.65-0.28-7.74-1.4
	c-9.89-3.58-15.51-13.38-18.91-22.07l-0.17,0.72c-23.95,82.66-27.38,150.77-26.26,196.39c1.43,57.99,10.9,107.74,21.59,163.85
	c9.06,47.58,26.18,114.27,26.76,116.53 M12.35,569.4c5.47-25.03,12.14-57.15,18.43-91.66 M12.35,569.4
	C5.95,598.68,1.2,618.28,0.6,620.71c10.97,2.79,22.91,5.53,35.76,8.06c0,0,0.01-0.02,0.02-0.06 M36.38,628.71
	c0.61-2.48,19.7-80.81,29.43-135.71c5.08-28.64,13.02-73.42,16.41-114.3c4.21-50.82,4.15-128.95-21.93-228.37l-0.18-0.72
	c-4.35,10.72-9.96,18.02-18.05,22.3c-3.17,1.68-6.18,2.6-8.6,3.13 M30.79,477.73c8.8-48.26,16.87-101.21,19.91-146.1
	c3.36-49.6,0.53-88.71-10.36-128.48c-3.02-11.01-6.2-20.42-8.92-27.78l0.28,0c0.54-0.09,1.14-0.21,1.76-0.35"/>
<path class="st1" d="M234.41,1.9"/>
<path class="st1" d="M99.11,1.9"/>
<g>
	<rect x="109.58" y="215.05" class="st2" width="31.96" height="12.15"/>
	<rect x="194.21" y="215.05" class="st2" width="31.96" height="12.15"/>
	<rect x="194.3" y="322.61" class="st2" width="31.96" height="12.15"/>
	<rect x="109.66" y="322.61" class="st2" width="31.96" height="12.15"/>
	<rect x="109.66" y="310.46" class="st2" width="31.96" height="12.15"/>
	<rect x="194.3" y="310.46" class="st2" width="31.96" height="12.15"/>
</g>
<path class="NeckAndArmTrim fill" d="M31.57,175.38c2.64-0.44,6.37-1.36,10.36-3.47c11.77-6.22,18.28-18.85,23.32-39.06
	c5.96-23.88,5.7-41.65,6.05-78.13c0.19-20.26,0.47-36.36,0.64-45.31l-6.69,1.9c0,4,0.01,10.03,0,17.36
	c-0.04,43.04-0.08,64.71-0.86,72.05c-1.81,16.94-6.51,60.96-28.5,67.71c-2.79,0.86-5.27,0.93-6.91,0.87L31.57,175.38z"/>
<path class="NeckAndArmTrim fill" d="M302.05,175.05c-1.85-0.01-4.77-0.22-8.05-1.41c-14.32-5.18-19.69-23.42-22.35-32.44
	c-11.54-39.17-8.99-124.16-8.74-131.63l6.05,1.74c-0.2,6.16-2.96,100.78,9.5,132.82c2.79,7.17,9,23.13,20.73,25.17
	c2.22,0.39,4.09,0.18,5.18,0L302.05,175.05z"/>
<path class="NeckAndArmTrim fill" d="M97.67,1.85c9.8,6.22,35.66,20.81,71.52,20.12c32.95-0.64,56.66-13.84,66.55-20.14l-8.28-2.25
	c-10.17,5.47-31.35,15.12-59.77,15.37c-29.68,0.26-51.79-9.87-62.01-15.37L97.67,1.85z"/>
<path class="st1" d="M234.41,1.9"/>
<path class="st1" d="M99.12,1.9"/>
<g id="BBodyLogos"></g>
</svg>
