<?xml version="1.0" encoding="utf-8"?>
<!-- Generator: Adobe Illustrator 19.1.0, SVG Export Plug-In . SVG Version: 6.00 Build 0)  -->
<svg version="1.1" id="Layer_1" xmlns="http://www.w3.org/2000/svg" xmlns:xlink="http://www.w3.org/1999/xlink" x="0px" y="0px"
	 viewBox="0 0 335.2 641.14" style="enable-background:new 0 0 335.2 641.14;" xml:space="preserve">
<style type="text/css">
	<![CDATA[
	@font-face{font-family:'codaheavy';src:url('/fonts/coda-heavy-webfont.woff') format('woff')}
	text{font-family:Impact,codaheavy,sans-serif}
	.Colour1.fill{fill:#CCCBCB;}
	.Colour2.fill{fill:#333333;}
	.Colour3.fill{fill:#959595;}
	.Colour4.fill{fill:#676767;}
	.NeckAndArmTrim.fill{fill:#333333;stroke:#000000;stroke-miterlimit:10;}
	.st0{fill:none;stroke:#000000;stroke-miterlimit:10;}
	.st1{fill:none;stroke:#000000;stroke-linecap:round;stroke-linejoin:round;}
	.st2{fill:#FFFFFF;stroke:#000000;}
	]]>
</style>
<path class="Colour1 fill" d="M291.34,206.32c4.48-15.84,9.37-28.64,12.98-37.35c-1.09,0.18-2.97,0.39-5.19,0
	c-11.75-2.05-17.97-18.02-20.77-25.19c-12.49-32.06-9.72-126.75-9.52-132.91c-13.84-3.76-27.69-7.53-41.53-11.29
	c-2.39,18.33-9.83,53.47-37.21,84.26c-8.08,9.09-16.47,16.19-24.23,21.72c-7.75-5.49-16.15-12.58-24.23-21.72
	c-27.32-30.9-34.24-66.28-36.34-84.26C92.03,3.33,78.76,7.1,65.5,10.86c0,4,0.01,10.04,0,17.37c-0.04,43.07-0.08,64.76-0.87,72.1
	c-1.81,16.96-6.52,61-28.55,67.76c-2.8,0.86-5.28,0.93-6.92,0.87c3.11,7.92,7.32,19.54,11.25,33.88
	c10.91,39.79,13.75,78.93,10.38,128.57C43.02,446.06,2.42,613.27,0.6,620.69c43.67,11.08,102.8,21.48,173.06,20.85
	c64.65-0.58,119.45-10.32,160.94-20.85c-16.41-70.98-29.76-138.88-40.67-203.28C278.6,326.86,272.89,271.5,291.34,206.32z"/>
<path class="st0" d="M98.67,1.45c1.6,14.45,6.57,41.47,24.8,69.35c14.38,22.01,31.28,35.76,42.4,43.44
	c11.12-7.34,27.93-20.47,42.4-41.7C227.72,44,232.69,15.88,234.22,1.45"/>
<path class="st0" d="M72.2,8.96c-0.17,8.95-0.45,25.06-0.65,45.34c-0.34,36.5-0.09,54.28-6.06,78.18
	c-5.05,20.23-11.57,32.87-23.36,39.09c-4,2.11-7.74,3.03-10.38,3.47"/>
<path class="st0" d="M262.78,9.13c-0.25,7.48-2.8,92.53,8.76,131.73c2.66,9.02,8.04,27.27,22.39,32.46
	c3.28,1.18,6.21,1.39,8.06,1.41"/>
<path class="st0" d="M107.61,14.02c8.95,5.27,30.13,16.11,59.12,15.96c28.27-0.15,48.92-10.69,57.87-15.96"/>
<path class="st0" d="M109.45,22c10.2,5.01,29.77,12.96,55.56,13.19c27.06,0.24,47.57-8.13,57.87-13.19"/>
<path class="Colour2 fill" d="M68.71,459.82v-13.09l86.93-41.07v12.57L68.71,459.82z M268.49,459.82v-13.09l-86.93-41.07v12.57
	L268.49,459.82z M285.34,513.58V500.6L167.6,445.31L49.86,501.65v12.98l117.74-56.34L285.34,513.58z M178.64,282.73v11.6
	l80.21-37.89v-12.08L178.64,282.73z M74.52,244.35v12.08l80.21,37.89v-11.6L74.52,244.35z M58.97,194.76v11.98l108.63,51.01
	l108.63-51.98v-11.98L167.6,245.77L58.97,194.76z"/>
<path class="Colour3 fill" d="M285.34,555.07l-117.38-54.65L49.86,555.07v-40.44l117.74-56.34l117.74,55.28V555.07z M58.97,194.76
	l108.63,51.01l108.63-51.98v-37.31L167.27,206.9L58.97,156.48V194.76z"/>
<path class="Colour4 fill" d="M68.71,446.73v-18.95l66.08-30.41v18.14L68.71,446.73z M268.49,446.73v-18.95l-66.08-30.41v18.14
	L268.49,446.73z M285.34,500.6v-18.13L167.6,427.19L49.86,483.53v18.13l117.74-56.34L285.34,500.6z M285.34,540.29v-12.98
	L167.6,472.02L49.86,528.36v12.98L167.6,485L285.34,540.29z M197.87,285.24v16.74l60.97-28.06v-17.49L197.87,285.24z M74.52,256.43
	v17.49l60.97,28.06v-16.74L74.52,256.43z M58.97,206.73v16.72l108.63,51.01l108.63-51.98v-16.72L167.6,257.74L58.97,206.73z
	 M58.97,170.11v11.98L167.6,233.1l108.63-51.98v-11.98L167.6,221.12L58.97,170.11z"/>
<path class="Colour2 fill" d="M301.69,174.71c-1.86-0.03-4.66-0.28-7.76-1.4c-9.9-3.58-15.54-13.39-18.95-22.09l-0.17,0.72
	c-24,82.72-27.43,150.88-26.31,196.53c1.43,58.03,10.92,107.82,21.63,163.97c9.24,48.44,26.82,116.68,26.82,116.68
	c13.53-2.63,26.1-5.5,37.64-8.42c-16.41-70.98-29.76-138.88-40.67-203.28c-15.34-90.56-21.04-145.91-2.6-211.1
	c3.56-12.57,10.64-31.55,10.66-31.6L301.69,174.71z"/>
<path class="Colour2 fill" d="M31.75,175.05c2.64-0.44,6.39-1.36,10.38-3.47c8.11-4.28,13.72-11.59,18.08-22.32l0.18,0.72
	c26.13,99.49,26.19,177.68,21.97,228.53c-3.4,40.92-11.35,85.72-16.44,114.38c-9.91,55.82-29.5,135.87-29.5,135.87
	c-12.88-2.54-24.84-5.28-35.83-8.07c1.82-7.43,42.42-174.64,50.19-289.28c3.36-49.63,0.53-88.77-10.38-128.57
	c-3.02-11.02-6.21-20.43-8.93-27.8L31.75,175.05z"/>
<g>
	<path class="st1" d="M45.76,382.31c0.37-2.93,0.72-5.86,1.06-8.76"/>
	<path class="st1" d="M49.37,247.93c0.64,5.11,1.16,10.27,1.58,15.51"/>
	<path class="st1" d="M52.12,295.98c0.01-2.82-0.01-5.6-0.05-8.36"/>
	<path class="st1" d="M45.02,388.19c0.25-1.97,0.5-3.93,0.75-5.89"/>
	<line class="st1" x1="52.12" y1="295.98" x2="52.12" y2="295.98"/>
	<path class="st1" d="M43.01,403.02c0.7-4.96,1.37-9.91,2-14.83"/>
	<path class="st1" d="M51.69,275.37c0.12,2.68,0.22,5.39,0.29,8.13"/>
	<path class="st1" d="M50.95,263.44c0.21,2.62,0.39,5.26,0.54,7.92"/>
	<path class="st1" d="M38.02,194.59c0.04,0.13,0.08,0.26,0.12,0.39"/>
	<path class="st1" d="M36.57,444.84c0.5-2.98,0.98-5.96,1.47-8.94"/>
	<path class="st1" d="M35.07,453.74c0.34-1.97,0.67-3.95,1.01-5.93"/>
	<path class="st1" d="M31.98,471.37c0.87-4.85,1.73-9.74,2.58-14.67"/>
	<path class="st1" d="M52.12,295.98c-0.04,11.27-0.49,23.02-1.33,35.43c-0.85,12.54-2.09,25.71-3.63,39.22"/>
	<path class="st1" d="M38.04,435.89c0.32-1.99,0.64-3.98,0.95-5.98"/>
	<path class="st1" d="M39.93,423.93c0.77-4.99,1.52-9.97,2.24-14.95"/>
	<path class="st1" d="M42.16,408.99c0.29-1.99,0.57-3.98,0.85-5.96"/>
	<path class="st1" d="M38.99,429.92c0.31-1.99,0.63-3.99,0.93-5.98"/>
	<path class="st1" d="M312.87,625.83c-0.65,0.14-1.31,0.29-1.97,0.43"/>
	<path class="st1" d="M312.2,516.59c3.38,16.95,6.93,34.1,10.65,51.46"/>
	<path class="st1" d="M330.45,621.73c-0.48,0.12-0.97,0.24-1.45,0.35"/>
	<path class="st1" d="M334.6,620.69c-0.06,0.01-0.11,0.03-0.17,0.04"/>
	<path class="st1" d="M307.27,491.32c1.6,8.37,3.25,16.79,4.94,25.27"/>
	<path class="st1" d="M39.14,198.38c0.08,0.28,0.16,0.57,0.25,0.86"/>
	<path class="st1" d="M326.2,622.77c-0.58,0.14-1.17,0.28-1.75,0.42"/>
	<path class="st1" d="M317.42,624.82c-0.64,0.15-1.29,0.29-1.94,0.44"/>
	<path class="st1" d="M321.86,623.8c-0.62,0.15-1.26,0.29-1.88,0.44"/>
	<path class="st1" d="M38.02,194.59c-0.31-1.01-0.61-2.01-0.92-2.99"/>
	<path class="st1" d="M39.14,198.38c-0.33-1.15-0.67-2.29-1-3.4"/>
	<path class="st1" d="M31.54,175.24c0.3,0.8,0.6,1.63,0.91,2.48"/>
	<path class="st1" d="M36.86,190.81c-0.33-1.05-0.66-2.08-0.99-3.09"/>
	<path class="st1" d="M40.39,202.81c-0.33-1.22-0.67-2.4-1.01-3.58"/>
	<path class="st1" d="M49.37,247.93c-1.92-15.33-4.88-30.16-8.97-45.08c0-0.01-0.01-0.02-0.01-0.03"/>
	<path class="st1" d="M33.46,180.57c-0.28-0.79-0.55-1.57-0.82-2.32"/>
	<path class="st1" d="M35.7,187.2c-0.29-0.89-0.58-1.76-0.87-2.61"/>
	<path class="st1" d="M34.61,183.92c-0.32-0.95-0.64-1.89-0.96-2.8"/>
	<path class="st1" d="M302.58,466.36c1.52,8.27,3.08,16.58,4.69,24.95"/>
	<path class="st1" d="M24,513.57c-0.33,1.65-0.65,3.28-0.98,4.91"/>
	<path class="st1" d="M15.72,553.83c-0.49,2.31-0.98,4.58-1.46,6.8"/>
	<path class="st1" d="M11.93,571.35c-0.27,1.22-0.53,2.43-0.8,3.61"/>
	<path class="st1" d="M18.64,539.98c-0.31,1.47-0.61,2.94-0.91,4.38"/>
	<path class="st1" d="M16.72,549.15c-0.33,1.58-0.66,3.14-0.99,4.68"/>
	<path class="st1" d="M4.61,603.78c-0.31,1.31-0.6,2.56-0.87,3.74"/>
	<path class="st1" d="M36.86,190.81c0.08,0.26,0.16,0.53,0.25,0.79"/>
	<path class="st1" d="M5.57,599.64c-0.33,1.45-0.65,2.83-0.96,4.14"/>
	<path class="st1" d="M3.47,608.67c-0.27,1.13-0.51,2.19-0.75,3.17"/>
	<path class="st1" d="M15.67,624.33c0.69,0.16,1.38,0.32,2.07,0.48"/>
	<path class="st1" d="M11.47,623.35c0.62,0.15,1.22,0.29,1.84,0.44"/>
	<path class="st1" d="M19.98,625.31c0.76,0.17,1.51,0.34,2.27,0.51"/>
	<path class="st1" d="M26.57,500.41c-0.29,1.49-0.58,2.98-0.86,4.46"/>
	<path class="st1" d="M7.49,622.4c0.5,0.12,0.99,0.24,1.49,0.36"/>
	<path class="st1" d="M33.87,628.25c0.81,0.16,1.61,0.33,2.43,0.49"/>
	<path class="st1" d="M24.43,626.28c0.81,0.17,1.61,0.35,2.42,0.52"/>
	<path class="st1" d="M29.15,627.28c0.79,0.17,1.58,0.33,2.38,0.49"/>
	<path class="st1" d="M6.26,596.66c-0.23,1.02-0.46,2.02-0.69,2.98"/>
	<path class="st1" d="M29.34,485.78c0.53-2.85,1.06-5.73,1.59-8.62"/>
	<path class="st1" d="M2.5,612.8c-0.15,0.62-0.29,1.21-0.42,1.77"/>
	<path class="st1" d="M32.45,177.73c0.06,0.17,0.12,0.35,0.19,0.52"/>
	<path class="st1" d="M26.57,500.41c0.75-3.88,1.49-7.81,2.24-11.78"/>
	<path class="st1" d="M24,513.57c0.57-2.87,1.14-5.77,1.71-8.7"/>
	<path class="st1" d="M35.7,187.2c0.06,0.17,0.11,0.34,0.17,0.52"/>
	<path class="st1" d="M34.61,183.92c0.07,0.22,0.15,0.45,0.23,0.67"/>
	<path class="st1" d="M33.46,180.57c0.06,0.18,0.13,0.36,0.19,0.55"/>
	<path class="st1" d="M30.92,477.17c0.35-1.93,0.7-3.86,1.05-5.8"/>
	<path class="st1" d="M10.6,577.39c0.18-0.8,0.36-1.61,0.54-2.42"/>
	<path class="st1" d="M9.75,581.23c0.28-1.26,0.57-2.54,0.86-3.85"/>
	<path class="st1" d="M11.93,571.35c0.3-1.38,0.61-2.77,0.92-4.19"/>
	<path class="st1" d="M16.72,549.15c0.33-1.58,0.67-3.18,1.01-4.79"/>
	<path class="st1" d="M21.87,524.19c0.38-1.89,0.76-3.79,1.15-5.71"/>
	<path class="st1" d="M19.78,534.47c0.52-2.52,1.04-5.08,1.57-7.67"/>
	<path class="st1" d="M18.64,539.98c0.38-1.82,0.76-3.65,1.14-5.51"/>
	<path class="st1" d="M1.24,618.08c0.23-0.95,0.51-2.12,0.84-3.51"/>
	<path class="st1" d="M326.2,622.77c0.94-0.23,1.87-0.45,2.8-0.68"/>
	<path class="st1" d="M308.23,626.83c0.9-0.19,1.79-0.38,2.67-0.57"/>
	<path class="st1" d="M301.97,174.78c-3.12,7.94-6.79,18.16-10.25,30.2"/>
	<path class="st1" d="M291.34,206.3c0.13-0.45,0.25-0.88,0.38-1.32"/>
	<path class="st1" d="M290.88,207.98c0.15-0.55,0.3-1.1,0.45-1.66c0-0.01,0-0.01,0.01-0.02"/>
	<path class="st1" d="M330.45,621.73c1.34-0.33,2.67-0.66,3.98-1"/>
	<path class="st1" d="M303.42,627.83c0.95-0.19,1.9-0.39,2.84-0.58"/>
	<path class="st1" d="M286.77,224.43c-0.88,3.98-1.67,7.95-2.37,11.9"/>
	<path class="st1" d="M312.87,625.83c0.87-0.19,1.74-0.38,2.6-0.58"/>
	<path class="st1" d="M284.4,236.33c-6.33,35.56-5.74,70.23-0.8,112.03"/>
	<path class="st1" d="M321.86,623.8c0.87-0.2,1.73-0.41,2.59-0.61"/>
	<path class="st1" d="M288.54,216.92c-0.62,2.51-1.22,5.02-1.77,7.51"/>
	<path class="st1" d="M286.42,369.89c-1.05-7.4-1.99-14.57-2.82-21.53"/>
	<path class="st1" d="M288.85,386.24c-0.86-5.58-1.68-11.03-2.44-16.35"/>
	<path class="st1" d="M302.58,466.36c-0.88-4.76-1.73-9.49-2.58-14.22"/>
	<path class="st1" d="M288.54,216.92c0.73-2.96,1.51-5.94,2.34-8.94"/>
	<path class="st1" d="M317.42,624.82c0.86-0.19,1.71-0.39,2.56-0.58"/>
	<path class="st1" d="M334.6,620.69L334.6,620.69c-1.03-4.44-2.04-8.86-3.04-13.27"/>
	<path class="st1" d="M29.15,627.28c-0.77-0.16-1.54-0.32-2.3-0.48"/>
	<path class="st1" d="M303.42,627.83c-0.62,0.13-1.25,0.26-1.88,0.38"/>
	<path class="st1" d="M15.67,624.33c-0.78-0.18-1.57-0.36-2.35-0.54"/>
	<path class="st1" d="M24.43,626.28c-0.73-0.16-1.46-0.31-2.18-0.47"/>
	<path class="st1" d="M19.98,625.31c-0.75-0.17-1.5-0.33-2.24-0.5"/>
	<path class="st1" d="M308.23,626.83c-0.66,0.14-1.31,0.28-1.97,0.42"/>
	<path class="st1" d="M11.47,623.35c-0.83-0.2-1.67-0.39-2.49-0.59"/>
	<path class="st1" d="M288.85,386.24c1.54,9.94,3.24,20.3,5.08,31.17c1.94,11.46,3.96,23.05,6.07,34.73"/>
	<path class="st1" d="M7.49,622.4c-2.33-0.57-4.64-1.14-6.89-1.71"/>
	<path class="st1" d="M1.24,618.08c-0.32,1.33-0.54,2.21-0.64,2.62l0,0"/>
	<path class="st1" d="M298.31,628.85c1.08-0.21,2.16-0.43,3.23-0.64"/>
	<path class="st1" d="M31.54,175.24c-0.85-2.29-1.65-4.39-2.39-6.28c1.64,0.07,4.12-0.01,6.92-0.87
		c22.03-6.76,26.74-50.8,28.55-67.76c0.79-7.35,0.82-29.03,0.87-72.1c0.01-7.33,0-13.37,0-17.37C78.76,7.1,92.03,3.33,105.3-0.43
		c2.1,17.98,9.02,53.37,36.34,84.26c8.08,9.14,16.48,16.23,24.23,21.72c7.76-5.52,16.14-12.62,24.23-21.72
		c27.38-30.79,34.82-65.93,37.21-84.26c13.84,3.76,27.69,7.53,41.53,11.29c-0.2,6.16-2.97,100.86,9.52,132.91
		c2.79,7.17,9.01,23.15,20.77,25.19c2.22,0.39,4.1,0.18,5.19,0c-0.73,1.77-1.52,3.72-2.35,5.82"/>
	<path class="st1" d="M296.96,629.12c0.45-0.09,0.9-0.18,1.35-0.27"/>
	<path class="st1" d="M296.96,629.12c-35.1,6.82-76.63,12.01-123.3,12.43c-52.58,0.47-98.93-5.24-137.23-12.78"/>
	<path class="st1" d="M36.43,628.76c-0.04-0.01-0.08-0.02-0.12-0.02"/>
	<path class="st1" d="M33.87,628.25c-0.78-0.16-1.57-0.31-2.35-0.47"/>
	<path class="st1" d="M322.86,568.04c-3.73-17.35-7.28-34.51-10.65-51.46"/>
	<path class="st1" d="M334.43,620.74c0.06-0.01,0.11-0.03,0.17-0.04v0"/>
	<path class="st1" d="M310.9,626.26c-0.89,0.19-1.78,0.38-2.67,0.57"/>
	<path class="st1" d="M290.88,207.98c-0.83,3-1.61,5.98-2.34,8.94"/>
	<path class="st1" d="M312.2,516.59c-1.69-8.47-3.33-16.9-4.94-25.27"/>
	<path class="st1" d="M301.97,174.78c-0.44,1.17-6.71,18.08-10.25,30.2"/>
	<path class="st1" d="M290.88,207.98c0.15-0.55,0.3-1.1,0.45-1.66c0-0.01,0-0.01,0.01-0.02"/>
	<path class="st1" d="M286.77,224.43c-0.88,3.98-1.67,7.95-2.37,11.9"/>
	<path class="st1" d="M301.97,174.78c0.02-0.04,0.02-0.07,0.03-0.07l-0.3,0c-1.86-0.03-4.66-0.28-7.76-1.4
		c-9.9-3.58-15.54-13.39-18.95-22.09l-0.17,0.72c-24,82.72-27.43,150.88-26.31,196.53c1.43,58.03,10.92,107.82,21.63,163.97
		c9.23,48.42,26.81,116.62,26.82,116.68"/>
	<path class="st1" d="M288.85,386.24c1.54,9.94,3.24,20.3,5.08,31.17c1.94,11.46,3.96,23.05,6.07,34.73"/>
	<path class="st1" d="M291.72,204.98c-0.13,0.45-0.26,0.89-0.38,1.32"/>
	<path class="st1" d="M283.6,348.36c0.82,6.97,1.76,14.13,2.82,21.53"/>
	<path class="st1" d="M286.77,224.43c0.55-2.49,1.15-5,1.77-7.51"/>
	<path class="st1" d="M284.4,236.33c-6.33,35.56-5.74,70.23-0.8,112.03"/>
	<path class="st1" d="M288.85,386.24c-0.86-5.58-1.68-11.03-2.44-16.35"/>
	<path class="st1" d="M307.27,491.32c-1.6-8.37-3.17-16.69-4.69-24.95"/>
	<path class="st1" d="M331.56,607.42c1,4.41,2.02,8.84,3.04,13.27"/>
	<path class="st1" d="M301.54,628.21c0.63-0.13,1.25-0.26,1.88-0.38"/>
	<path class="st1" d="M300,452.15c0.85,4.72,1.71,9.46,2.58,14.22"/>
	<path class="st1" d="M315.47,625.25c-0.86,0.19-1.73,0.38-2.6,0.58"/>
	<path class="st1" d="M334.43,620.74c-1.31,0.33-2.64,0.67-3.98,1"/>
	<path class="st1" d="M310.9,626.26c0.66-0.14,1.32-0.29,1.97-0.43"/>
	<path class="st1" d="M329,622.09c-0.93,0.23-1.86,0.45-2.8,0.68"/>
	<path class="st1" d="M315.47,625.25c0.65-0.15,1.3-0.29,1.94-0.44"/>
	<path class="st1" d="M301.54,628.21c-1.07,0.22-2.15,0.43-3.23,0.64"/>
	<path class="st1" d="M319.97,624.23c0.63-0.15,1.26-0.29,1.88-0.44"/>
	<path class="st1" d="M296.96,629.12L296.96,629.12c0.45-0.09,0.9-0.18,1.35-0.27"/>
	<path class="st1" d="M324.45,623.19c-0.86,0.2-1.72,0.41-2.59,0.61"/>
	<path class="st1" d="M306.26,627.24c-0.94,0.2-1.89,0.39-2.84,0.58"/>
	<path class="st1" d="M329,622.09c0.48-0.12,0.97-0.24,1.45-0.35"/>
	<path class="st1" d="M324.45,623.19c0.58-0.14,1.17-0.28,1.75-0.42"/>
	<path class="st1" d="M306.26,627.24c0.66-0.14,1.31-0.28,1.97-0.42"/>
	<path class="st1" d="M319.97,624.23c-0.85,0.2-1.7,0.39-2.56,0.58"/>
	<path class="st1" d="M331.56,607.42c-3.01-13.24-5.9-26.36-8.7-39.38"/>
	<path class="st1" d="M22.25,625.81c0.72,0.16,1.45,0.31,2.18,0.47"/>
	<path class="st1" d="M3.74,607.52c0.28-1.18,0.57-2.42,0.87-3.74"/>
	<path class="st1" d="M2.72,611.84c0.23-0.98,0.48-2.04,0.75-3.17"/>
	<path class="st1" d="M11.14,574.97c0.26-1.19,0.53-2.39,0.8-3.61"/>
	<path class="st1" d="M17.74,624.81c0.74,0.17,1.49,0.33,2.24,0.5"/>
	<path class="st1" d="M30.92,477.17c-0.53,2.89-1.06,5.76-1.59,8.62"/>
	<path class="st1" d="M4.61,603.78c0.31-1.31,0.63-2.7,0.96-4.14"/>
	<path class="st1" d="M14.27,560.63c0.48-2.22,0.97-4.49,1.46-6.8"/>
	<path class="st1" d="M5.57,599.64c0.22-0.96,0.45-1.96,0.69-2.98"/>
	<path class="st1" d="M2.08,614.57c0.13-0.56,0.27-1.14,0.42-1.77"/>
	<path class="st1" d="M8.98,622.77c-0.5-0.12-0.99-0.24-1.49-0.36"/>
	<path class="st1" d="M31.53,627.78c-0.8-0.16-1.59-0.33-2.38-0.49"/>
	<path class="st1" d="M23.02,518.48c-0.38,1.92-0.77,3.82-1.15,5.71"/>
	<path class="st1" d="M21.35,526.79c-0.53,2.59-1.05,5.15-1.57,7.67"/>
	<path class="st1" d="M25.7,504.87c-0.57,2.93-1.14,5.83-1.71,8.7"/>
	<path class="st1" d="M22.25,625.81c-0.76-0.17-1.52-0.34-2.27-0.51"/>
	<path class="st1" d="M19.78,534.47c-0.38,1.86-0.76,3.69-1.14,5.51"/>
	<path class="st1" d="M31.53,627.78c0.78,0.16,1.56,0.31,2.35,0.47"/>
	<path class="st1" d="M13.32,623.79c-0.62-0.14-1.23-0.29-1.84-0.44"/>
	<path class="st1" d="M17.74,624.81c-0.7-0.16-1.38-0.32-2.07-0.48"/>
	<path class="st1" d="M28.8,488.63c-0.74,3.97-1.49,7.9-2.24,11.78"/>
	<path class="st1" d="M17.72,544.36c-0.34,1.61-0.67,3.21-1.01,4.79"/>
	<path class="st1" d="M36.3,628.74c-0.82-0.16-1.62-0.33-2.43-0.49"/>
	<path class="st1" d="M15.72,553.83c0.33-1.54,0.66-3.1,0.99-4.68"/>
	<path class="st1" d="M36.43,628.76L36.43,628.76c-0.04-0.01-0.08-0.02-0.12-0.02"/>
	<path class="st1" d="M31.54,175.24c-0.02-0.06-0.05-0.13-0.07-0.2l0.28,0c2.64-0.44,6.39-1.36,10.38-3.47
		c8.11-4.28,13.72-11.59,18.08-22.32l0.18,0.72c26.13,99.49,26.19,177.68,21.97,228.53c-3.4,40.92-11.35,85.72-16.44,114.38
		c-9.91,55.81-29.49,135.83-29.5,135.86"/>
	<path class="st1" d="M12.85,567.16c-0.31,1.42-0.61,2.82-0.92,4.19"/>
	<path class="st1" d="M10.6,577.39c-0.29,1.31-0.57,2.59-0.86,3.85"/>
	<path class="st1" d="M1.24,618.08c0.23-0.95,0.51-2.12,0.84-3.51"/>
	<path class="st1" d="M26.85,626.81c0.76,0.16,1.53,0.32,2.3,0.48"/>
	<path class="st1" d="M11.14,574.97c-0.18,0.81-0.36,1.62-0.54,2.42"/>
	<path class="st1" d="M26.85,626.81c-0.81-0.17-1.61-0.35-2.42-0.52"/>
	<path class="st1" d="M33.65,181.12c0.32,0.91,0.64,1.84,0.96,2.8"/>
	<path class="st1" d="M45.76,382.31c-0.24,1.96-0.49,3.92-0.75,5.89"/>
	<path class="st1" d="M31.98,471.37c0.87-4.85,1.73-9.74,2.58-14.67"/>
	<path class="st1" d="M1.24,618.08c-0.32,1.33-0.54,2.21-0.64,2.62"/>
	<path class="st1" d="M45.02,388.19c-0.64,4.92-1.3,9.86-2,14.83"/>
	<path class="st1" d="M34.83,184.59c0.29,0.85,0.58,1.72,0.87,2.61"/>
	<path class="st1" d="M43.01,403.02c-0.28,1.99-0.56,3.97-0.85,5.96"/>
	<path class="st1" d="M38.04,435.89c-0.48,2.99-0.97,5.97-1.47,8.94"/>
	<path class="st1" d="M35.87,187.72c0.33,1.01,0.66,2.04,0.99,3.09"/>
	<path class="st1" d="M36.07,447.81c-0.33,1.98-0.67,3.96-1.01,5.93"/>
	<path class="st1" d="M31.98,471.37c-0.35,1.94-0.7,3.87-1.05,5.8"/>
	<path class="st1" d="M8.98,622.77c0.82,0.2,1.66,0.39,2.49,0.59"/>
	<path class="st1" d="M51.49,271.36c-0.15-2.66-0.33-5.3-0.54-7.92"/>
	<path class="st1" d="M49.37,247.93c0.64,5.11,1.16,10.27,1.58,15.51"/>
	<path class="st1" d="M0.6,620.69L0.6,620.69c2.25,0.57,4.56,1.14,6.89,1.71"/>
	<path class="st1" d="M51.98,283.5c-0.07-2.73-0.17-5.44-0.29-8.13"/>
	<path class="st1" d="M52.12,295.98c-0.04,11.27-0.49,23.02-1.33,35.43c-0.85,12.54-2.09,25.71-3.63,39.22"/>
	<path class="st1" d="M38.99,429.92c-0.31,1.99-0.63,3.99-0.95,5.98"/>
	<path class="st1" d="M52.07,287.62c0.04,2.76,0.06,5.54,0.05,8.36"/>
	<line class="st1" x1="52.12" y1="295.98" x2="52.12" y2="295.98"/>
	<path class="st1" d="M46.82,373.54c-0.34,2.91-0.69,5.83-1.06,8.76"/>
	<path class="st1" d="M25.7,504.87c0.29-1.48,0.58-2.97,0.86-4.46"/>
	<path class="st1" d="M34.83,184.59c-0.08-0.22-0.15-0.45-0.23-0.67"/>
	<path class="st1" d="M13.32,623.79c0.78,0.18,1.57,0.36,2.35,0.54"/>
	<path class="st1" d="M33.65,181.12c-0.06-0.19-0.13-0.36-0.19-0.55"/>
	<path class="st1" d="M17.72,544.36c0.3-1.45,0.61-2.91,0.91-4.38"/>
	<path class="st1" d="M31.54,175.24c0.3,0.8,0.6,1.63,0.91,2.48"/>
	<path class="st1" d="M35.87,187.72c-0.06-0.18-0.11-0.34-0.17-0.52"/>
	<path class="st1" d="M23.02,518.48c0.32-1.62,0.65-3.26,0.98-4.91"/>
	<path class="st1" d="M32.64,178.25c-0.06-0.17-0.12-0.35-0.19-0.52"/>
	<path class="st1" d="M39.93,423.93c-0.31,1.99-0.62,3.99-0.93,5.98"/>
	<path class="st1" d="M39.39,199.23c0.34,1.18,0.67,2.36,1.01,3.58"/>
	<path class="st1" d="M42.16,408.99c-0.72,4.98-1.47,9.96-2.24,14.95"/>
	<path class="st1" d="M38.14,194.98c0.33,1.11,0.67,2.25,1,3.4"/>
	<path class="st1" d="M49.37,247.93c-1.92-15.33-4.88-30.16-8.97-45.08c0-0.01-0.01-0.02-0.01-0.03"/>
	<path class="st1" d="M37.11,191.6c0.31,0.98,0.61,1.97,0.92,2.99"/>
	<path class="st1" d="M37.11,191.6c-0.08-0.26-0.16-0.53-0.25-0.79"/>
	<path class="st1" d="M32.64,178.25c0.27,0.76,0.55,1.53,0.82,2.32"/>
	<path class="st1" d="M38.14,194.98c-0.04-0.13-0.08-0.26-0.12-0.39"/>
	<path class="st1" d="M39.39,199.23c-0.08-0.29-0.16-0.57-0.25-0.86"/>
	<path class="st1" d="M3.47,608.67c0.09-0.38,0.18-0.76,0.27-1.15"/>
	<path class="st1" d="M2.5,612.8c0.07-0.31,0.15-0.63,0.23-0.96"/>
	<path class="st1" d="M36.07,447.81c0.17-0.99,0.33-1.98,0.5-2.97"/>
	<path class="st1" d="M47.15,370.64c-0.11,0.97-0.22,1.93-0.33,2.9"/>
	<path class="st1" d="M28.8,488.63c0.18-0.95,0.35-1.9,0.53-2.85"/>
	<path class="st1" d="M51.98,283.5c0.03,1.37,0.06,2.74,0.08,4.12"/>
	<path class="st1" d="M34.56,456.7c0.17-0.98,0.34-1.97,0.51-2.96"/>
	<path class="st1" d="M21.35,526.79c0.18-0.86,0.35-1.73,0.53-2.6"/>
	<path class="st1" d="M6.26,596.66c1.05-4.6,2.23-9.76,3.49-15.42"/>
	<path class="st1" d="M51.49,271.36c0.08,1.33,0.14,2.67,0.21,4.01"/>
	<path class="st1" d="M12.85,567.16c0.46-2.13,0.94-4.31,1.42-6.53"/>
</g>
<path class="NeckAndArmTrim fill" d="M234.22,1.45c-1.53,14.43-6.5,42.55-25.95,71.09c-14.47,21.23-31.28,34.36-42.4,41.7
	c-11.12-7.68-28.01-21.43-42.4-43.44c-18.23-27.88-23.2-54.9-24.8-69.35l6.63-1.88c2.1,17.98,9.02,53.37,36.34,84.26
	c8.08,9.14,16.48,16.23,24.23,21.72c7.76-5.52,16.14-12.62,24.23-21.72c27.38-30.79,34.82-65.93,37.21-84.26L234.22,1.45z"/>
<path class="NeckAndArmTrim fill" d="M31.75,175.05c2.64-0.44,6.39-1.36,10.38-3.47c11.79-6.23,18.31-18.86,23.36-39.09
	c5.97-23.9,5.71-41.68,6.06-78.18c0.19-20.28,0.47-36.38,0.65-45.34l-6.7,1.9c0,4,0.01,10.04,0,17.37
	c-0.04,43.07-0.08,64.76-0.87,72.1c-1.81,16.96-6.52,61-28.55,67.76c-2.8,0.86-5.28,0.93-6.92,0.87L31.75,175.05z"/>
<path class="NeckAndArmTrim fill" d="M301.99,174.72c-1.85-0.01-4.78-0.22-8.06-1.41c-14.35-5.19-19.73-23.43-22.39-32.46
	c-11.56-39.2-9.01-124.25-8.76-131.73l6.06,1.74c-0.2,6.16-2.97,100.85,9.52,132.91c2.79,7.17,9.01,23.15,20.77,25.19
	c2.22,0.39,4.1,0.18,5.19,0L301.99,174.72z"/>
<path class="NeckAndArmTrim fill" d="M109.45,22c10.2,5.01,29.77,12.96,55.56,13.19c27.06,0.24,47.57-8.13,57.87-13.19l1.74-7.98
	c-8.95,5.27-29.6,15.8-57.87,15.96c-28.99,0.16-50.17-10.69-59.12-15.96L109.45,22z"/>
<g id="FBodyLogos"></g>
<g>
	<rect x="109.19" y="214.75" class="st2" width="32.02" height="12.16"/>
	<rect x="193.99" y="214.75" class="st2" width="32.02" height="12.16"/>
	<rect x="194.07" y="322.38" class="st2" width="32.02" height="12.16"/>
	<rect x="109.28" y="322.38" class="st2" width="32.02" height="12.16"/>
	<rect x="109.28" y="310.22" class="st2" width="32.02" height="12.16"/>
	<rect x="193.99" y="310.22" class="st2" width="32.02" height="12.16"/>
</g>
</svg>
