<?xml version="1.0" encoding="utf-8"?>
<!-- Generator: Adobe Illustrator 19.1.0, SVG Export Plug-In . SVG Version: 6.00 Build 0)  -->
<svg version="1.1" id="Layer_1" xmlns="http://www.w3.org/2000/svg" xmlns:xlink="http://www.w3.org/1999/xlink" x="0px" y="0px"
	 viewBox="0 0 335.2 641.14" style="enable-background:new 0 0 335.2 641.14;" xml:space="preserve">
<style type="text/css">
	<![CDATA[
	@font-face{font-family:'codaheavy';src:url('/fonts/coda-heavy-webfont.woff') format('woff')}
	text{font-family:Impact,codaheavy,sans-serif}
	.Colour1.fill{fill:#FFFFFF;}
	.Colour2.fill{fill:#CC8BBC;}
	.NeckAndArmTrim.fill{fill:#CC8BBC;stroke:#000000;stroke-miterlimit:10;}
	.Gradient1.stopColor{stop-color:#3953A3;}
	.Gradient2.stopColor{stop-color:#3E53A3;}
	.st0{fill:none;stroke:#000000;stroke-miterlimit:10;}
	.st1{opacity:0.645;}
	.st2{fill:url(#SVGID_1_);}
	.st3{fill:url(#SVGID_2_);}
	.st4{fill:url(#SVGID_3_);}
	.st5{fill:url(#SVGID_4_);}
	.st6{fill:url(#SVGID_5_);}
	.st7{fill:url(#SVGID_6_);}
	.st8{fill:url(#SVGID_7_);}
	.st9{fill:url(#SVGID_8_);}
	.st10{fill:url(#SVGID_9_);}
	.st11{fill:url(#SVGID_10_);}
	.st12{fill:url(#SVGID_11_);}
	.st13{fill:url(#SVGID_12_);}
	.st14{fill:url(#SVGID_13_);}
	.st15{fill:url(#SVGID_14_);}
	.st16{fill:url(#SVGID_15_);}
	.st17{fill:url(#SVGID_16_);}
	.st18{fill:url(#SVGID_17_);}
	.st19{fill:url(#SVGID_18_);}
	.st20{fill:url(#SVGID_19_);}
	.st21{fill:url(#SVGID_20_);}
	.st22{fill:url(#SVGID_21_);}
	.st23{fill:url(#SVGID_22_);}
	.st24{fill:url(#SVGID_23_);}
	.st25{fill:url(#SVGID_24_);}
	.st26{fill:url(#SVGID_25_);}
	.st27{fill:url(#SVGID_26_);}
	.st28{fill:url(#SVGID_27_);}
	.st29{fill:url(#SVGID_28_);}
	.st30{fill:url(#SVGID_29_);}
	.st31{fill:url(#SVGID_30_);}
	.st32{fill:url(#SVGID_31_);}
	.st33{fill:url(#SVGID_32_);}
	.st34{fill:url(#SVGID_33_);}
	.st35{fill:url(#SVGID_34_);}
	.st36{fill:url(#SVGID_35_);}
	.st37{fill:url(#SVGID_36_);}
	.st38{fill:url(#SVGID_37_);}
	.st39{fill:url(#SVGID_38_);}
	.st40{fill:url(#SVGID_39_);}
	.st41{fill:url(#SVGID_40_);}
	.st42{fill:url(#SVGID_41_);}
	.st43{fill:url(#SVGID_42_);}
	.st44{fill:url(#SVGID_43_);}
	.st45{fill:url(#SVGID_44_);}
	.st46{fill:url(#SVGID_45_);}
	.st47{fill:url(#SVGID_46_);}
	.st48{fill:url(#SVGID_47_);}
	.st49{fill:url(#SVGID_48_);}
	.st50{fill:url(#SVGID_49_);}
	.st51{fill:url(#SVGID_50_);}
	.st52{fill:url(#SVGID_51_);}
	.st53{fill:url(#SVGID_52_);}
	.st54{fill:url(#SVGID_53_);}
	.st55{fill:url(#SVGID_54_);}
	.st56{fill:url(#SVGID_55_);}
	.st57{fill:url(#SVGID_56_);}
	.st58{fill:url(#SVGID_57_);}
	.st59{fill:url(#SVGID_58_);}
	.st60{fill:url(#SVGID_59_);}
	.st61{fill:url(#SVGID_60_);}
	.st62{fill:url(#SVGID_61_);}
	.st63{fill:url(#SVGID_62_);}
	.st64{fill:url(#SVGID_63_);}
	.st65{fill:url(#SVGID_64_);}
	.st66{fill:url(#SVGID_65_);}
	.st67{fill:url(#SVGID_66_);}
	.st68{fill:url(#SVGID_67_);}
	.st69{fill:url(#SVGID_68_);}
	.st70{fill:url(#SVGID_69_);}
	.st71{fill:url(#SVGID_70_);}
	.st72{fill:url(#SVGID_71_);}
	.st73{fill:url(#SVGID_72_);}
	.st74{fill:url(#SVGID_73_);}
	.st75{fill:none;stroke:#000000;stroke-linecap:round;stroke-linejoin:round;}
	.st76{fill:#FFFFFF;stroke:#000000;}
	.st77{fill:none;stroke:#D0D2D3;stroke-dasharray:5,2.4;}
	]]>
</style>
<path class="st0" d="M97.38,2.11c1.6,14.43,6.54,41.41,24.68,69.25c14.32,21.98,31.13,35.71,42.2,43.37
	c11.07-7.33,27.8-20.44,42.2-41.64c19.36-28.5,24.31-56.58,25.83-70.99"/>
<path class="st0" d="M71.03,9.61c-0.17,8.94-0.45,25.02-0.64,45.27c-0.34,36.45-0.09,54.2-6.03,78.07
	c-5.03,20.2-11.52,32.82-23.25,39.04c-3.98,2.11-7.7,3.03-10.33,3.47"/>
<path class="st0" d="M260.71,9.78c-0.25,7.47-2.79,92.4,8.72,131.54c2.65,9.01,8.01,27.23,22.28,32.41c3.26,1.18,6.18,1.39,8.02,1.4
	"/>
<path class="st0" d="M106.28,14.66c8.91,5.26,29.99,16.09,58.84,15.93c28.14-0.15,48.69-10.67,57.6-15.93"/>
<path class="st0" d="M108.1,22.63c10.15,5,29.63,12.94,55.29,13.17c26.93,0.24,47.35-8.12,57.6-13.17"/>
<path class="Colour1 fill" d="M227.02,0.5c13.78,3.76,27.56,7.52,41.34,11.28c-0.2,6.15-2.95,100.71,9.47,132.72
	c2.78,7.16,8.97,23.11,20.67,25.16c2.21,0.39,4.08,0.18,5.17,0c-3.6,8.7-8.46,21.48-12.92,37.3
	c-18.36,65.09-12.68,120.36,2.58,210.79c10.85,64.3,24.15,132.1,40.48,202.98c-41.3,10.52-95.83,20.24-160.18,20.82
	c-69.92,0.63-128.78-9.75-172.24-20.82c1.81-7.42,42.22-174.39,49.95-288.86c3.35-49.56,0.53-88.65-10.33-128.38
	c-3.91-14.32-8.11-25.92-11.2-33.83c1.63,0.07,4.1-0.01,6.89-0.87c21.93-6.75,26.62-50.73,28.42-67.66c0.78-7.33,0.82-28.99,0.86-72
	c0.01-7.32,0-13.35,0-17.35C79.18,8.02,92.39,4.26,105.59,0.5c2.09,17.95,8.98,53.29,36.17,84.14c8.04,9.12,16.4,16.21,24.11,21.69
	c7.72-5.52,16.07-12.61,24.11-21.69C217.24,53.89,224.64,18.8,227.02,0.5z"/>
<g class="st1">
	<linearGradient id="SVGID_1_" gradientUnits="userSpaceOnUse" x1="66.0524" y1="42.1701" x2="114.3259" y2="42.1701">
		
		
		<stop class="Gradient1 stopColor" offset="0.3633" style="stop-color:#95529F"/>
		
		<stop class="Gradient2 stopColor" offset="0.8288" style="stop-color:#DFB346"/>
		
	</linearGradient>
	<path class="st2" d="M114.33,37.62c-0.3-0.84-0.59-1.67-0.87-2.5L66.06,46.51c0,0.92,0,1.82,0,2.71L114.33,37.62z"/>
	<linearGradient id="SVGID_2_" gradientUnits="userSpaceOnUse" x1="110.5879" y1="98.8792" x2="151.7498" y2="98.8792">
		
		
		<stop class="Gradient1 stopColor" offset="0.3633" style="stop-color:#95529F"/>
		
		<stop class="Gradient2 stopColor" offset="0.8288" style="stop-color:#DFB346"/>
		
	</linearGradient>
	<path class="st3" d="M110.59,102.72l0.45,1.82l40.71-9.78c-0.54-0.5-1.09-1.02-1.63-1.54L110.59,102.72z"/>
	<linearGradient id="SVGID_3_" gradientUnits="userSpaceOnUse" x1="144.0168" y1="87.1381" x2="144.1525" y2="87.1381">
		
		
		<stop class="Gradient1 stopColor" offset="0.3633" style="stop-color:#95529F"/>
		
		<stop class="Gradient2 stopColor" offset="0.8288" style="stop-color:#DFB346"/>
		
	</linearGradient>
	<path class="st4" d="M144.1,87.09l-0.08,0.02l0.02,0.07l0.12-0.03C144.13,87.13,144.12,87.11,144.1,87.09z"/>
	<linearGradient id="SVGID_4_" gradientUnits="userSpaceOnUse" x1="88.4865" y1="46.4252" x2="116.772" y2="46.4252">
		
		
		<stop class="Gradient1 stopColor" offset="0.3633" style="stop-color:#95529F"/>
		
		<stop class="Gradient2 stopColor" offset="0.8288" style="stop-color:#DFB346"/>
		
	</linearGradient>
	<path class="st5" d="M116.77,43.97c-0.25-0.6-0.48-1.19-0.72-1.79l-27.57,6.63l0.45,1.85L116.77,43.97z"/>
	<linearGradient id="SVGID_5_" gradientUnits="userSpaceOnUse" x1="65.9575" y1="66.8448" x2="124.6918" y2="66.8448">
		
		
		<stop class="Gradient1 stopColor" offset="0.3633" style="stop-color:#95529F"/>
		
		<stop class="Gradient2 stopColor" offset="0.8288" style="stop-color:#DFB346"/>
		
	</linearGradient>
	<path class="st6" d="M124.69,60.38c-0.22-0.4-0.44-0.79-0.65-1.18L65.97,73.15c0,0.45-0.01,0.9-0.01,1.34L124.69,60.38z"/>
	<linearGradient id="SVGID_6_" gradientUnits="userSpaceOnUse" x1="119.0652" y1="52.4679" x2="120.7964" y2="52.4679">
		
		
		<stop class="Gradient1 stopColor" offset="0.3633" style="stop-color:#95529F"/>
		
		<stop class="Gradient2 stopColor" offset="0.8288" style="stop-color:#DFB346"/>
		
	</linearGradient>
	<path class="st7" d="M120.8,52.95c-0.21-0.43-0.42-0.86-0.62-1.29l-1.11,0.27l0.35,1.35L120.8,52.95z"/>
	<linearGradient id="SVGID_7_" gradientUnits="userSpaceOnUse" x1="65.7822" y1="79.4648" x2="132.3257" y2="79.4648">
		
		
		<stop class="Gradient1 stopColor" offset="0.3633" style="stop-color:#95529F"/>
		
		<stop class="Gradient2 stopColor" offset="0.8288" style="stop-color:#DFB346"/>
		
	</linearGradient>
	<path class="st8" d="M130.88,70.42l-40.21,9.66l0.24,0.91l-25.1,6.03c-0.01,0.51-0.02,1.01-0.03,1.5l66.54-15.99
		C131.83,71.82,131.35,71.12,130.88,70.42z"/>
	<linearGradient id="SVGID_8_" gradientUnits="userSpaceOnUse" x1="87.2327" y1="94.9697" x2="145.7043" y2="94.9697">
		
		
		<stop class="Gradient1 stopColor" offset="0.3633" style="stop-color:#95529F"/>
		
		<stop class="Gradient2 stopColor" offset="0.8288" style="stop-color:#DFB346"/>
		
	</linearGradient>
	<path class="st9" d="M87.69,102.76L145.7,88.8c-0.26-0.27-0.51-0.52-0.77-0.79l-0.63,0.15l-0.27-0.98l-56.8,13.66L87.69,102.76z"/>
	<linearGradient id="SVGID_9_" gradientUnits="userSpaceOnUse" x1="61.494" y1="113.6858" x2="161.3049" y2="113.6858">
		
		
		<stop class="Gradient1 stopColor" offset="0.3633" style="stop-color:#95529F"/>
		
		<stop class="Gradient2 stopColor" offset="0.8288" style="stop-color:#DFB346"/>
		
	</linearGradient>
	<path class="st10" d="M161.3,102.85c-0.96-0.74-1.92-1.5-2.88-2.29l-7.72,1.86l0.32,1.18L61.86,125c-0.12,0.6-0.24,1.21-0.36,1.82
		L161.3,102.85z"/>
	<linearGradient id="SVGID_10_" gradientUnits="userSpaceOnUse" x1="66.0685" y1="30.5057" x2="110.8776" y2="30.5057">
		
		
		<stop class="Gradient1 stopColor" offset="0.3633" style="stop-color:#95529F"/>
		
		<stop class="Gradient2 stopColor" offset="0.8288" style="stop-color:#DFB346"/>
		
	</linearGradient>
	<path class="st11" d="M66.07,37.62l44.81-10.78c-0.33-1.17-0.63-2.32-0.93-3.46L66.07,33.94C66.07,35.19,66.07,36.42,66.07,37.62z"
		/>
	<linearGradient id="SVGID_11_" gradientUnits="userSpaceOnUse" x1="249.6411" y1="80.8103" x2="268.8806" y2="80.8103">
		
		
		<stop class="Gradient1 stopColor" offset="0.3633" style="stop-color:#95529F"/>
		
		<stop class="Gradient2 stopColor" offset="0.8288" style="stop-color:#DFB346"/>
		
	</linearGradient>
	<path class="st12" d="M249.64,81.96l0.56,2.3l18.68-4.49c-0.04-0.8-0.07-1.61-0.1-2.41L249.64,81.96z"/>
	<linearGradient id="SVGID_12_" gradientUnits="userSpaceOnUse" x1="225.4469" y1="6.671" x2="246.651" y2="6.671">
		
		
		<stop class="Gradient1 stopColor" offset="0.3633" style="stop-color:#95529F"/>
		
		<stop class="Gradient2 stopColor" offset="0.8288" style="stop-color:#DFB346"/>
		
	</linearGradient>
	<path class="st13" d="M234.18,2.42l-7.58,1.82c-0.31,2.07-0.69,4.31-1.15,6.68l21.2-5.09C242.49,4.69,238.33,3.56,234.18,2.42z"/>
	<linearGradient id="SVGID_13_" gradientUnits="userSpaceOnUse" x1="226.6301" y1="9.6221" x2="251.6894" y2="9.6221">
		
		
		<stop class="Gradient1 stopColor" offset="0.3633" style="stop-color:#95529F"/>
		
		<stop class="Gradient2 stopColor" offset="0.8288" style="stop-color:#DFB346"/>
		
	</linearGradient>
	<path class="st14" d="M226.63,11.24l0.5,1.86l24.56-5.9c-1.29-0.35-2.58-0.7-3.87-1.05L226.63,11.24z"/>
	<linearGradient id="SVGID_14_" gradientUnits="userSpaceOnUse" x1="223.8844" y1="13.3392" x2="260.1314" y2="13.3392">
		
		
		<stop class="Gradient1 stopColor" offset="0.3633" style="stop-color:#95529F"/>
		
		<stop class="Gradient2 stopColor" offset="0.8288" style="stop-color:#DFB346"/>
		
	</linearGradient>
	<path class="st15" d="M256.31,8.46l-31.95,7.68c-0.15,0.68-0.31,1.38-0.48,2.08l36.25-8.72C258.86,9.16,257.58,8.81,256.31,8.46z"
		/>
	<linearGradient id="SVGID_15_" gradientUnits="userSpaceOnUse" x1="174.6109" y1="86.8652" x2="268.7639" y2="86.8652">
		
		
		<stop class="Gradient1 stopColor" offset="0.3633" style="stop-color:#95529F"/>
		
		<stop class="Gradient2 stopColor" offset="0.8288" style="stop-color:#DFB346"/>
		
	</linearGradient>
	<path class="st16" d="M268.65,74.08l-89.33,21.46c-1.58,1.43-3.15,2.81-4.71,4.12l94.15-22.61
		C268.72,76.05,268.68,75.06,268.65,74.08z"/>
	<linearGradient id="SVGID_16_" gradientUnits="userSpaceOnUse" x1="50.0495" y1="220.5476" x2="296.2735" y2="220.5476">
		
		
		<stop class="Gradient1 stopColor" offset="0.3633" style="stop-color:#95529F"/>
		
		<stop class="Gradient2 stopColor" offset="0.8288" style="stop-color:#DFB346"/>
		
	</linearGradient>
	<path class="st17" d="M296.27,189.55L50.05,248.69c0.12,0.95,0.21,1.91,0.32,2.86l244.83-58.81
		C295.56,191.65,295.92,190.59,296.27,189.55z"/>
	<linearGradient id="SVGID_17_" gradientUnits="userSpaceOnUse" x1="50.6664" y1="225.9847" x2="294.2559" y2="225.9847">
		
		
		<stop class="Gradient1 stopColor" offset="0.3633" style="stop-color:#95529F"/>
		
		<stop class="Gradient2 stopColor" offset="0.8288" style="stop-color:#DFB346"/>
		
	</linearGradient>
	<path class="st18" d="M50.67,254.15c0.08,0.73,0.17,1.45,0.24,2.18l242.58-58.27c0.26-0.82,0.51-1.63,0.77-2.43L50.67,254.15z"/>
	<linearGradient id="SVGID_18_" gradientUnits="userSpaceOnUse" x1="107.5289" y1="174.4074" x2="282.3065" y2="174.4074">
		
		
		<stop class="Gradient1 stopColor" offset="0.3633" style="stop-color:#95529F"/>
		
		<stop class="Gradient2 stopColor" offset="0.8288" style="stop-color:#DFB346"/>
		
	</linearGradient>
	<path class="st19" d="M107.53,194.25l0.57,2.06l174.21-41.84c-0.34-0.66-0.67-1.32-0.98-1.96L107.53,194.25z"/>
	<linearGradient id="SVGID_19_" gradientUnits="userSpaceOnUse" x1="51.0452" y1="229.8924" x2="292.9793" y2="229.8924">
		
		
		<stop class="Gradient1 stopColor" offset="0.3633" style="stop-color:#95529F"/>
		
		<stop class="Gradient2 stopColor" offset="0.8288" style="stop-color:#DFB346"/>
		
	</linearGradient>
	<path class="st20" d="M51.05,257.83c0.07,0.74,0.13,1.48,0.2,2.23l240.99-57.88c0.25-0.83,0.49-1.64,0.74-2.45L51.05,257.83z"/>
	<linearGradient id="SVGID_20_" gradientUnits="userSpaceOnUse" x1="45.1411" y1="191.828" x2="288.3537" y2="191.828">
		
		
		<stop class="Gradient1 stopColor" offset="0.3633" style="stop-color:#95529F"/>
		
		<stop class="Gradient2 stopColor" offset="0.8288" style="stop-color:#DFB346"/>
		
	</linearGradient>
	<path class="st21" d="M45.14,219.98c0.13,0.6,0.25,1.2,0.38,1.8l242.83-58.34c-0.46-0.51-0.91-1.03-1.34-1.57L45.14,219.98z"/>
	<linearGradient id="SVGID_21_" gradientUnits="userSpaceOnUse" x1="143.9649" y1="172.3" x2="283.3985" y2="172.3">
		
		
		<stop class="Gradient1 stopColor" offset="0.3633" style="stop-color:#95529F"/>
		
		<stop class="Gradient2 stopColor" offset="0.8288" style="stop-color:#DFB346"/>
		
	</linearGradient>
	<path class="st22" d="M143.96,188.01l0.48,1.84l138.95-33.38c-0.33-0.58-0.65-1.15-0.95-1.73L143.96,188.01z"/>
	<linearGradient id="SVGID_22_" gradientUnits="userSpaceOnUse" x1="40.3164" y1="173.6447" x2="280.3253" y2="173.6447">
		
		
		<stop class="Gradient1 stopColor" offset="0.3633" style="stop-color:#95529F"/>
		
		<stop class="Gradient2 stopColor" offset="0.8288" style="stop-color:#DFB346"/>
		
	</linearGradient>
	<path class="st23" d="M237.99,151.52l0.38,1.52L40.32,200.65c0.26,0.93,0.53,1.87,0.79,2.83c0.15,0.56,0.29,1.12,0.44,1.68
		l11.2-2.69l0.59,2.46l226.99-54.59c-0.98-2.21-1.78-4.25-2.39-5.84c-0.29-0.75-0.57-1.55-0.85-2.37L237.99,151.52z"/>
	<linearGradient id="SVGID_23_" gradientUnits="userSpaceOnUse" x1="47.037" y1="200.228" x2="302.9566" y2="200.228">
		
		
		<stop class="Gradient1 stopColor" offset="0.3633" style="stop-color:#95529F"/>
		
		<stop class="Gradient2 stopColor" offset="0.8288" style="stop-color:#DFB346"/>
		
	</linearGradient>
	<path class="st24" d="M47.37,231.16l255.59-61.4c-1.1,0.13-2.62,0.19-4.36-0.11c-0.48-0.08-0.94-0.23-1.4-0.36l-250.16,60.1
		C47.15,229.98,47.26,230.57,47.37,231.16z"/>
	<linearGradient id="SVGID_24_" gradientUnits="userSpaceOnUse" x1="52.1466" y1="244.9549" x2="288.5957" y2="244.9549">
		
		
		<stop class="Gradient1 stopColor" offset="0.3633" style="stop-color:#95529F"/>
		
		<stop class="Gradient2 stopColor" offset="0.8288" style="stop-color:#DFB346"/>
		
	</linearGradient>
	<path class="st25" d="M52.15,272.22c0.04,0.75,0.07,1.51,0.1,2.26l235.73-56.62c0.2-0.81,0.41-1.62,0.61-2.43L52.15,272.22z"/>
	<linearGradient id="SVGID_25_" gradientUnits="userSpaceOnUse" x1="51.3446" y1="233.356" x2="291.8765" y2="233.356">
		
		
		<stop class="Gradient1 stopColor" offset="0.3633" style="stop-color:#95529F"/>
		
		<stop class="Gradient2 stopColor" offset="0.8288" style="stop-color:#DFB346"/>
		
	</linearGradient>
	<path class="st26" d="M51.34,261.17c0.06,0.72,0.14,1.43,0.19,2.15l239.66-57.56c0.23-0.79,0.45-1.58,0.68-2.36L51.34,261.17z"/>
	<linearGradient id="SVGID_26_" gradientUnits="userSpaceOnUse" x1="51.6301" y1="237.8185" x2="290.8337" y2="237.8185">
		
		
		<stop class="Gradient1 stopColor" offset="0.3633" style="stop-color:#95529F"/>
		
		<stop class="Gradient2 stopColor" offset="0.8288" style="stop-color:#DFB346"/>
		
	</linearGradient>
	<path class="st27" d="M290.83,207.01l-239.2,57.46c0.11,1.38,0.19,2.77,0.28,4.16l237.69-57.09
		C290.01,210.03,290.41,208.53,290.83,207.01z"/>
	<linearGradient id="SVGID_27_" gradientUnits="userSpaceOnUse" x1="227.0421" y1="0.7913" x2="228.2297" y2="0.7913">
		
		
		<stop class="Gradient1 stopColor" offset="0.3633" style="stop-color:#95529F"/>
		
		<stop class="Gradient2 stopColor" offset="0.8288" style="stop-color:#DFB346"/>
		
	</linearGradient>
	<path class="st28" d="M228.23,0.8c-0.37-0.1-0.74-0.2-1.11-0.3c-0.02,0.19-0.05,0.39-0.08,0.59L228.23,0.8z"/>
	<linearGradient id="SVGID_28_" gradientUnits="userSpaceOnUse" x1="66.0795" y1="20.3136" x2="108.3412" y2="20.3136">
		
		
		<stop class="Gradient1 stopColor" offset="0.3633" style="stop-color:#95529F"/>
		
		<stop class="Gradient2 stopColor" offset="0.8288" style="stop-color:#DFB346"/>
		
	</linearGradient>
	<path class="st29" d="M66.08,26.75l42.26-10.16c-0.2-0.92-0.38-1.82-0.56-2.71L66.08,23.9C66.08,24.82,66.08,25.78,66.08,26.75z"/>
	<linearGradient id="SVGID_29_" gradientUnits="userSpaceOnUse" x1="66.0784" y1="8.3343" x2="106.1904" y2="8.3343">
		
		
		<stop class="Gradient1 stopColor" offset="0.3633" style="stop-color:#95529F"/>
		
		<stop class="Gradient2 stopColor" offset="0.8288" style="stop-color:#DFB346"/>
		
	</linearGradient>
	<path class="st30" d="M66.08,14.01l40.11-9.63c-0.08-0.59-0.16-1.16-0.23-1.73L94.18,5.48l0.16,0.61l-28.26,6.79
		C66.08,13.24,66.08,13.62,66.08,14.01z"/>
	<linearGradient id="SVGID_30_" gradientUnits="userSpaceOnUse" x1="66.0575" y1="38.9361" x2="113.3425" y2="38.9361">
		
		
		<stop class="Gradient1 stopColor" offset="0.3633" style="stop-color:#95529F"/>
		
		<stop class="Gradient2 stopColor" offset="0.8288" style="stop-color:#DFB346"/>
		
	</linearGradient>
	<path class="st31" d="M112.33,31.7l-42.9,10.31l0.35,1.4l-3.73,0.9c0,0.63,0,1.24,0,1.86l47.28-11.37
		C112.99,33.76,112.66,32.73,112.33,31.7z"/>
	<linearGradient id="SVGID_31_" gradientUnits="userSpaceOnUse" x1="66.0661" y1="33.5871" x2="111.4638" y2="33.5871">
		
		
		<stop class="Gradient1 stopColor" offset="0.3633" style="stop-color:#95529F"/>
		
		<stop class="Gradient2 stopColor" offset="0.8288" style="stop-color:#DFB346"/>
		
	</linearGradient>
	<path class="st32" d="M66.07,39.77l45.4-10.91c-0.14-0.49-0.29-0.97-0.42-1.45L66.07,38.21C66.07,38.73,66.07,39.25,66.07,39.77z"
		/>
	<linearGradient id="SVGID_32_" gradientUnits="userSpaceOnUse" x1="56.9934" y1="114.5818" x2="269.5779" y2="114.5818">
		
		
		<stop class="Gradient1 stopColor" offset="0.3633" style="stop-color:#95529F"/>
		
		<stop class="Gradient2 stopColor" offset="0.8288" style="stop-color:#DFB346"/>
		
	</linearGradient>
	<path class="st33" d="M269.17,85.57l-57.58,13.84l0.43,1.71l-29.3,7.04l0.3,1.19L58.39,139.31c-0.44,1.45-0.9,2.88-1.39,4.29
		L269.58,92.5C269.43,90.2,269.29,87.89,269.17,85.57z"/>
	<linearGradient id="SVGID_33_" gradientUnits="userSpaceOnUse" x1="46.5921" y1="149.4869" x2="272.7666" y2="149.4869">
		
		
		<stop class="Gradient1 stopColor" offset="0.3633" style="stop-color:#95529F"/>
		
		<stop class="Gradient2 stopColor" offset="0.8288" style="stop-color:#DFB346"/>
		
	</linearGradient>
	<path class="st34" d="M46.59,175.89l0.39,1.47l225.78-54.24c-0.08-0.5-0.15-1-0.23-1.51L46.59,175.89z"/>
	<linearGradient id="SVGID_34_" gradientUnits="userSpaceOnUse" x1="228.3748" y1="119.0514" x2="271.8434" y2="119.0514">
		
		
		<stop class="Gradient1 stopColor" offset="0.3633" style="stop-color:#95529F"/>
		
		<stop class="Gradient2 stopColor" offset="0.8288" style="stop-color:#DFB346"/>
		
	</linearGradient>
	<path class="st35" d="M271.19,111.19l-24.54,5.91l0.59,2.47l-18.86,4.53l0.71,2.81l42.75-10.27
		C271.61,114.85,271.39,113.04,271.19,111.19z"/>
	<linearGradient id="SVGID_35_" gradientUnits="userSpaceOnUse" x1="36.367" y1="160.0407" x2="274.4861" y2="160.0407">
		
		
		<stop class="Gradient1 stopColor" offset="0.3633" style="stop-color:#95529F"/>
		
		<stop class="Gradient2 stopColor" offset="0.8288" style="stop-color:#DFB346"/>
		
	</linearGradient>
	<path class="st36" d="M36.37,187.69c0.2,0.6,0.39,1.21,0.59,1.82l237.53-57.07c-0.13-0.61-0.26-1.24-0.39-1.87L36.37,187.69z"/>
	<linearGradient id="SVGID_36_" gradientUnits="userSpaceOnUse" x1="261.0602" y1="95.2095" x2="269.7698" y2="95.2095">
		
		
		<stop class="Gradient1 stopColor" offset="0.3633" style="stop-color:#95529F"/>
		
		<stop class="Gradient2 stopColor" offset="0.8288" style="stop-color:#DFB346"/>
		
	</linearGradient>
	<path class="st37" d="M261.06,95.19l0.51,2.09l8.2-1.97c-0.05-0.72-0.1-1.45-0.15-2.18L261.06,95.19z"/>
	<linearGradient id="SVGID_37_" gradientUnits="userSpaceOnUse" x1="66.0795" y1="10.1961" x2="106.4273" y2="10.1961">
		
		
		<stop class="Gradient1 stopColor" offset="0.3633" style="stop-color:#95529F"/>
		
		<stop class="Gradient2 stopColor" offset="0.8288" style="stop-color:#DFB346"/>
		
	</linearGradient>
	<path class="st38" d="M106.43,6.03c-0.07-0.47-0.13-0.92-0.2-1.37l-40.15,9.64c0,0.46,0,0.92,0,1.41L106.43,6.03z"/>
	<linearGradient id="SVGID_38_" gradientUnits="userSpaceOnUse" x1="189.0338" y1="75.2961" x2="268.4137" y2="75.2961">
		
		
		<stop class="Gradient1 stopColor" offset="0.3633" style="stop-color:#95529F"/>
		
		<stop class="Gradient2 stopColor" offset="0.8288" style="stop-color:#DFB346"/>
		
	</linearGradient>
	<path class="st39" d="M191.21,83.34c-0.37,0.43-0.74,0.87-1.12,1.3c-0.35,0.4-0.7,0.77-1.06,1.15l79.38-19.08
		c-0.02-0.64-0.03-1.28-0.05-1.92L191.21,83.34z"/>
	<linearGradient id="SVGID_39_" gradientUnits="userSpaceOnUse" x1="220.9906" y1="22.4669" x2="268.3424" y2="22.4669">
		
		
		<stop class="Gradient1 stopColor" offset="0.3633" style="stop-color:#95529F"/>
		
		<stop class="Gradient2 stopColor" offset="0.8288" style="stop-color:#DFB346"/>
		
	</linearGradient>
	<path class="st40" d="M221.46,27.32c-0.15,0.51-0.31,1.03-0.47,1.55l47.32-11.37c0.01-0.51,0.02-0.99,0.03-1.45L221.46,27.32z"/>
	<linearGradient id="SVGID_40_" gradientUnits="userSpaceOnUse" x1="219.9205" y1="25.8958" x2="268.2664" y2="25.8958">
		
		
		<stop class="Gradient1 stopColor" offset="0.3633" style="stop-color:#95529F"/>
		
		<stop class="Gradient2 stopColor" offset="0.8288" style="stop-color:#DFB346"/>
		
	</linearGradient>
	<path class="st41" d="M220.3,31.07c-0.13,0.39-0.25,0.78-0.38,1.17l48.32-11.61c0.01-0.37,0.01-0.73,0.02-1.08L220.3,31.07z"/>
	<linearGradient id="SVGID_41_" gradientUnits="userSpaceOnUse" x1="217.8967" y1="31.2813" x2="268.1801" y2="31.2813">
		
		
		<stop class="Gradient1 stopColor" offset="0.3633" style="stop-color:#95529F"/>
		
		<stop class="Gradient2 stopColor" offset="0.8288" style="stop-color:#DFB346"/>
		
	</linearGradient>
	<path class="st42" d="M218.43,36.52c-0.18,0.49-0.35,0.98-0.53,1.47l50.26-12.07c0.01-0.46,0.01-0.91,0.02-1.35L218.43,36.52z"/>
	<linearGradient id="SVGID_42_" gradientUnits="userSpaceOnUse" x1="198.5881" y1="65.6749" x2="268.2059" y2="65.6749">
		
		
		<stop class="Gradient1 stopColor" offset="0.3633" style="stop-color:#95529F"/>
		
		<stop class="Gradient2 stopColor" offset="0.8288" style="stop-color:#DFB346"/>
		
	</linearGradient>
	<path class="st43" d="M198.64,73.99c-0.02,0.02-0.03,0.04-0.05,0.07l69.62-16.74c0-0.01,0-0.02,0-0.03L198.64,73.99z"/>
	<linearGradient id="SVGID_43_" gradientUnits="userSpaceOnUse" x1="196.754" y1="67.4657" x2="268.2423" y2="67.4657">
		
		
		<stop class="Gradient1 stopColor" offset="0.3633" style="stop-color:#95529F"/>
		
		<stop class="Gradient2 stopColor" offset="0.8288" style="stop-color:#DFB346"/>
		
	</linearGradient>
	<path class="st44" d="M197.64,75.36c-0.29,0.39-0.59,0.78-0.88,1.17l71.49-17.19c-0.01-0.31-0.01-0.62-0.02-0.93L197.64,75.36z"/>
	<linearGradient id="SVGID_44_" gradientUnits="userSpaceOnUse" x1="200.9323" y1="69.0823" x2="268.2973" y2="69.0823">
		
		
		<stop class="Gradient1 stopColor" offset="0.3633" style="stop-color:#95529F"/>
		
		<stop class="Gradient2 stopColor" offset="0.8288" style="stop-color:#DFB346"/>
		
	</linearGradient>
	<path class="st45" d="M200.93,76.25l0.45,1.85l66.92-16.09c-0.01-0.65-0.03-1.3-0.04-1.95L200.93,76.25z"/>
	<linearGradient id="SVGID_45_" gradientUnits="userSpaceOnUse" x1="199.1741" y1="64.1058" x2="268.1955" y2="64.1058">
		
		
		<stop class="Gradient1 stopColor" offset="0.3633" style="stop-color:#95529F"/>
		
		<stop class="Gradient2 stopColor" offset="0.8288" style="stop-color:#DFB346"/>
		
	</linearGradient>
	<path class="st46" d="M200.64,71.18c-0.48,0.69-0.96,1.39-1.46,2.08l69.02-16.59c-0.01-0.58-0.02-1.15-0.03-1.72L200.64,71.18z"/>
	<linearGradient id="SVGID_46_" gradientUnits="userSpaceOnUse" x1="211.0743" y1="45.5316" x2="268.0692" y2="45.5316">
		
		
		<stop class="Gradient1 stopColor" offset="0.3633" style="stop-color:#95529F"/>
		
		<stop class="Gradient2 stopColor" offset="0.8288" style="stop-color:#DFB346"/>
		
	</linearGradient>
	<path class="st47" d="M268.07,37.46l-55.63,13.36c-0.44,0.92-0.9,1.85-1.36,2.78l56.99-13.69
		C268.07,39.08,268.07,38.26,268.07,37.46z"/>
	<linearGradient id="SVGID_47_" gradientUnits="userSpaceOnUse" x1="207.3345" y1="52.4717" x2="268.0803" y2="52.4717">
		
		
		<stop class="Gradient1 stopColor" offset="0.3633" style="stop-color:#95529F"/>
		
		<stop class="Gradient2 stopColor" offset="0.8288" style="stop-color:#DFB346"/>
		
	</linearGradient>
	<path class="st48" d="M208.37,58.72c-0.34,0.61-0.68,1.23-1.04,1.84l60.75-14.6c0-0.54,0-1.06-0.01-1.59L208.37,58.72z"/>
</g>
<g>
	<linearGradient id="SVGID_48_" gradientUnits="userSpaceOnUse" x1="3.2893" y1="572.9716" x2="315.1507" y2="572.9716">
		
		
		<stop class="Gradient2 stopColor" offset="0.4805" style="stop-color:#B8529E"/>
		
		<stop class="Gradient1 stopColor" offset="0.9801" style="stop-color:#3E53A3"/>
		
	</linearGradient>
	<path class="st49" d="M3.29,613.2l37.35-8.98l-0.43-1.71l29.3-7.04l-0.3-1.19l193.29-46.46l-0.23-0.91l52.89-12.71
		c-0.1-0.49-0.2-0.98-0.3-1.47l-55.69,13.38l-0.34-1.36L5.04,605.75C4.37,608.61,3.79,611.1,3.29,613.2z"/>
	<linearGradient id="SVGID_49_" gradientUnits="userSpaceOnUse" x1="4.6229" y1="584.6782" x2="317.9832" y2="584.6782">
		
		
		<stop class="Gradient2 stopColor" offset="0.4805" style="stop-color:#B8529E"/>
		
		<stop class="Gradient1 stopColor" offset="0.9801" style="stop-color:#3E53A3"/>
		
	</linearGradient>
	<path class="st50" d="M10.78,623.02l90.74-21.79l-0.32-1.18l216.78-52.06c-0.11-0.55-0.23-1.1-0.35-1.64L4.62,621.51
		C6.64,622.02,8.7,622.52,10.78,623.02z"/>
	<linearGradient id="SVGID_50_" gradientUnits="userSpaceOnUse" x1="17.4312" y1="512.9145" x2="304.1904" y2="512.9145">
		
		
		<stop class="Gradient2 stopColor" offset="0.4805" style="stop-color:#B8529E"/>
		
		<stop class="Gradient1 stopColor" offset="0.9801" style="stop-color:#3E53A3"/>
		
	</linearGradient>
	<path class="st51" d="M17.43,549.73l199.93-48.07l-0.63-2.56l87.46-21.01c-0.12-0.67-0.25-1.34-0.38-2l-104.34,25.07l-0.59-2.46
		L19.06,541.96C18.51,544.6,17.97,547.18,17.43,549.73z"/>
	<linearGradient id="SVGID_51_" gradientUnits="userSpaceOnUse" x1="137.3977" y1="629.9827" x2="229.3026" y2="629.9827">
		
		
		<stop class="Gradient2 stopColor" offset="0.4805" style="stop-color:#B8529E"/>
		
		<stop class="Gradient1 stopColor" offset="0.9801" style="stop-color:#3E53A3"/>
		
	</linearGradient>
	<path class="st52" d="M228.97,618.88l-91.57,22c1.58,0.07,3.16,0.14,4.75,0.2l87.16-20.94L228.97,618.88z"/>
	<linearGradient id="SVGID_52_" gradientUnits="userSpaceOnUse" x1="14.307" y1="533.8526" x2="260.6471" y2="533.8526">
		
		
		<stop class="Gradient2 stopColor" offset="0.4805" style="stop-color:#B8529E"/>
		
		<stop class="Gradient1 stopColor" offset="0.9801" style="stop-color:#3E53A3"/>
		
	</linearGradient>
	<path class="st53" d="M260.65,505.18l-0.48-1.85L14.75,562.3c-0.15,0.69-0.3,1.39-0.45,2.07L260.65,505.18z"/>
	<linearGradient id="SVGID_53_" gradientUnits="userSpaceOnUse" x1="12.1607" y1="550.2466" x2="205.6283" y2="550.2466">
		
		
		<stop class="Gradient2 stopColor" offset="0.4805" style="stop-color:#B8529E"/>
		
		<stop class="Gradient1 stopColor" offset="0.9801" style="stop-color:#3E53A3"/>
		
	</linearGradient>
	<path class="st54" d="M205.63,527.74l-0.39-1.47L12.52,572.57c-0.12,0.55-0.24,1.1-0.36,1.65L205.63,527.74z"/>
	<linearGradient id="SVGID_54_" gradientUnits="userSpaceOnUse" x1="276.6757" y1="625.8378" x2="333.9099" y2="625.8378">
		
		
		<stop class="Gradient2 stopColor" offset="0.4805" style="stop-color:#B8529E"/>
		
		<stop class="Gradient1 stopColor" offset="0.9801" style="stop-color:#3E53A3"/>
		
	</linearGradient>
	<path class="st55" d="M333.52,619.01l-56.85,13.66c21.13-3.47,40.31-7.63,57.23-11.94C333.78,620.15,333.65,619.58,333.52,619.01z"
		/>
	<linearGradient id="SVGID_55_" gradientUnits="userSpaceOnUse" x1="76.8126" y1="633.5276" x2="95.108" y2="633.5276">
		
		
		<stop class="Gradient2 stopColor" offset="0.4805" style="stop-color:#B8529E"/>
		
		<stop class="Gradient1 stopColor" offset="0.9801" style="stop-color:#3E53A3"/>
		
	</linearGradient>
	<path class="st56" d="M95.11,632.59l-0.38-1.5l-17.91,4.3c1.41,0.19,2.84,0.38,4.27,0.57L95.11,632.59z"/>
	<linearGradient id="SVGID_56_" gradientUnits="userSpaceOnUse" x1="93.4808" y1="617.3338" x2="264.4681" y2="617.3338">
		
		
		<stop class="Gradient2 stopColor" offset="0.4805" style="stop-color:#B8529E"/>
		
		<stop class="Gradient1 stopColor" offset="0.9801" style="stop-color:#3E53A3"/>
		
	</linearGradient>
	<path class="st57" d="M264.11,596.46l-170.63,41c2.34,0.26,4.7,0.51,7.08,0.75l60.99-14.65l-0.24-0.91l103.16-24.79L264.11,596.46z
		"/>
	<linearGradient id="SVGID_57_" gradientUnits="userSpaceOnUse" x1="19.5823" y1="523.3802" x2="144.6919" y2="523.3802">
		
		
		<stop class="Gradient2 stopColor" offset="0.4805" style="stop-color:#B8529E"/>
		
		<stop class="Gradient1 stopColor" offset="0.9801" style="stop-color:#3E53A3"/>
		
	</linearGradient>
	<path class="st58" d="M144.69,509.39l-0.57-2.06l-124.06,29.8c-0.16,0.78-0.32,1.54-0.48,2.32L144.69,509.39z"/>
	<linearGradient id="SVGID_58_" gradientUnits="userSpaceOnUse" x1="26.6562" y1="613.3075" x2="141.6329" y2="613.3075">
		
		
		<stop class="Gradient2 stopColor" offset="0.4805" style="stop-color:#B8529E"/>
		
		<stop class="Gradient1 stopColor" offset="0.9801" style="stop-color:#3E53A3"/>
		
	</linearGradient>
	<path class="st59" d="M141.63,600.91l-0.45-1.82L26.66,626.62c1.41,0.3,2.84,0.6,4.28,0.9L141.63,600.91z"/>
	<linearGradient id="SVGID_59_" gradientUnits="userSpaceOnUse" x1="49.7925" y1="629.4599" x2="67.3056" y2="629.4599">
		
		
		<stop class="Gradient2 stopColor" offset="0.4805" style="stop-color:#B8529E"/>
		
		<stop class="Gradient1 stopColor" offset="0.9801" style="stop-color:#3E53A3"/>
		
	</linearGradient>
	<path class="st60" d="M67.31,628.67l-0.4-1.63l-17.11,4.11c1.38,0.25,2.77,0.49,4.17,0.73L67.31,628.67z"/>
	<linearGradient id="SVGID_60_" gradientUnits="userSpaceOnUse" x1="37.2412" y1="627.6025" x2="51.2885" y2="627.6025">
		
		
		<stop class="Gradient2 stopColor" offset="0.4805" style="stop-color:#B8529E"/>
		
		<stop class="Gradient1 stopColor" offset="0.9801" style="stop-color:#3E53A3"/>
		
	</linearGradient>
	<path class="st61" d="M51.29,627.38l-0.45-1.85l-13.6,3.27c1.49,0.29,2.99,0.59,4.51,0.88L51.29,627.38z"/>
	<linearGradient id="SVGID_61_" gradientUnits="userSpaceOnUse" x1="23.9778" y1="485.2959" x2="287.1327" y2="485.2959">
		
		
		<stop class="Gradient2 stopColor" offset="0.4805" style="stop-color:#B8529E"/>
		
		<stop class="Gradient1 stopColor" offset="0.9801" style="stop-color:#3E53A3"/>
		
	</linearGradient>
	<path class="st62" d="M287.13,454.56l-0.46-1.74L24.36,515.83c-0.13,0.65-0.26,1.29-0.39,1.94L287.13,454.56z"/>
	<linearGradient id="SVGID_62_" gradientUnits="userSpaceOnUse" x1="1.4878" y1="620.1647" x2="2.4043" y2="620.1647">
		
		
		<stop class="Gradient2 stopColor" offset="0.4805" style="stop-color:#B8529E"/>
		
		<stop class="Gradient1 stopColor" offset="0.9801" style="stop-color:#3E53A3"/>
		
	</linearGradient>
	<path class="st63" d="M2.02,619.37l-0.22,0.05c-0.15,0.6-0.25,1.05-0.32,1.3c0.3,0.08,0.61,0.15,0.92,0.23L2.02,619.37z"/>
	<linearGradient id="SVGID_63_" gradientUnits="userSpaceOnUse" x1="32.7134" y1="439.37" x2="292.0248" y2="439.37">
		
		
		<stop class="Gradient2 stopColor" offset="0.4805" style="stop-color:#B8529E"/>
		
		<stop class="Gradient1 stopColor" offset="0.9801" style="stop-color:#3E53A3"/>
		
	</linearGradient>
	<path class="st64" d="M292.02,409.33c-0.12-0.74-0.24-1.46-0.36-2.2l-258.53,62.1c-0.14,0.8-0.28,1.59-0.42,2.39L292.02,409.33z"/>
	<linearGradient id="SVGID_64_" gradientUnits="userSpaceOnUse" x1="20.1288" y1="525.2857" x2="108.2557" y2="525.2857">
		
		
		<stop class="Gradient2 stopColor" offset="0.4805" style="stop-color:#B8529E"/>
		
		<stop class="Gradient1 stopColor" offset="0.9801" style="stop-color:#3E53A3"/>
		
	</linearGradient>
	<path class="st65" d="M108.26,515.62l-0.48-1.84l-87.22,20.95c-0.14,0.69-0.28,1.38-0.42,2.06L108.26,515.62z"/>
	<linearGradient id="SVGID_65_" gradientUnits="userSpaceOnUse" x1="10.2605" y1="579.7611" x2="23.8456" y2="579.7611">
		
		
		<stop class="Gradient2 stopColor" offset="0.4805" style="stop-color:#B8529E"/>
		
		<stop class="Gradient1 stopColor" offset="0.9801" style="stop-color:#3E53A3"/>
		
	</linearGradient>
	<path class="st66" d="M23.13,576.72l-12.17,2.92c-0.24,1.07-0.47,2.12-0.7,3.15l13.59-3.26L23.13,576.72z"/>
	<linearGradient id="SVGID_66_" gradientUnits="userSpaceOnUse" x1="48.2273" y1="623.6733" x2="108.2032" y2="623.6733">
		
		
		<stop class="Gradient2 stopColor" offset="0.4805" style="stop-color:#B8529E"/>
		
		<stop class="Gradient1 stopColor" offset="0.9801" style="stop-color:#3E53A3"/>
		
	</linearGradient>
	<path class="st67" d="M48.35,630.9l59.85-14.37l-0.02-0.07l-59.96,14.42C48.27,630.88,48.31,630.89,48.35,630.9z"/>
	<linearGradient id="SVGID_67_" gradientUnits="userSpaceOnUse" x1="43.4642" y1="615.6447" x2="164.9879" y2="615.6447">
		
		
		<stop class="Gradient2 stopColor" offset="0.4805" style="stop-color:#B8529E"/>
		
		<stop class="Gradient1 stopColor" offset="0.9801" style="stop-color:#3E53A3"/>
		
	</linearGradient>
	<path class="st68" d="M164.53,600.88L43.46,630c0.74,0.14,1.48,0.28,2.23,0.42l62.22-14.94l0.27,0.98l56.8-13.66L164.53,600.88z"/>
	<linearGradient id="SVGID_68_" gradientUnits="userSpaceOnUse" x1="21.8967" y1="501.2245" x2="238.5729" y2="501.2245">
		
		
		<stop class="Gradient2 stopColor" offset="0.4805" style="stop-color:#B8529E"/>
		
		<stop class="Gradient1 stopColor" offset="0.9801" style="stop-color:#3E53A3"/>
		
	</linearGradient>
	<path class="st69" d="M238.57,476.09l-0.47-1.78L22.3,526.15c-0.13,0.67-0.27,1.33-0.4,1.99L238.57,476.09z"/>
	<linearGradient id="SVGID_69_" gradientUnits="userSpaceOnUse" x1="28.0638" y1="463.1809" x2="295.9644" y2="463.1809">
		
		
		<stop class="Gradient2 stopColor" offset="0.4805" style="stop-color:#B8529E"/>
		
		<stop class="Gradient1 stopColor" offset="0.9801" style="stop-color:#3E53A3"/>
		
	</linearGradient>
	<path class="st70" d="M28.06,496.77l267.9-64.35c-0.16-0.94-0.32-1.88-0.49-2.82L28.65,493.69
		C28.45,494.72,28.26,495.74,28.06,496.77z"/>
	<linearGradient id="SVGID_70_" gradientUnits="userSpaceOnUse" x1="29.9134" y1="454.0782" x2="294.4102" y2="454.0782">
		
		
		<stop class="Gradient2 stopColor" offset="0.4805" style="stop-color:#B8529E"/>
		
		<stop class="Gradient1 stopColor" offset="0.9801" style="stop-color:#3E53A3"/>
		
	</linearGradient>
	<path class="st71" d="M294.41,423.41c-0.12-0.73-0.25-1.46-0.38-2.18L30.36,484.55c-0.15,0.8-0.29,1.59-0.44,2.38L294.41,423.41z"
		/>
	<linearGradient id="SVGID_71_" gradientUnits="userSpaceOnUse" x1="30.5753" y1="450.6984" x2="293.8463" y2="450.6984">
		
		
		<stop class="Gradient2 stopColor" offset="0.4805" style="stop-color:#B8529E"/>
		
		<stop class="Gradient1 stopColor" offset="0.9801" style="stop-color:#3E53A3"/>
		
	</linearGradient>
	<path class="st72" d="M293.85,420.13c-0.12-0.7-0.25-1.41-0.36-2.11L31,481.07c-0.14,0.77-0.28,1.53-0.42,2.3L293.85,420.13z"/>
	<linearGradient id="SVGID_72_" gradientUnits="userSpaceOnUse" x1="29.1743" y1="457.8857" x2="295.0356" y2="457.8857">
		
		
		<stop class="Gradient2 stopColor" offset="0.4805" style="stop-color:#B8529E"/>
		
		<stop class="Gradient1 stopColor" offset="0.9801" style="stop-color:#3E53A3"/>
		
	</linearGradient>
	<path class="st73" d="M295.04,427.03c-0.12-0.72-0.25-1.44-0.37-2.15L29.62,488.54c-0.15,0.79-0.29,1.57-0.44,2.35L295.04,427.03z"
		/>
	<linearGradient id="SVGID_73_" gradientUnits="userSpaceOnUse" x1="31.2204" y1="446.3436" x2="293.293" y2="446.3436">
		
		
		<stop class="Gradient2 stopColor" offset="0.4805" style="stop-color:#B8529E"/>
		
		<stop class="Gradient1 stopColor" offset="0.9801" style="stop-color:#3E53A3"/>
		
	</linearGradient>
	<path class="st74" d="M31.22,479.85l262.07-62.95c-0.23-1.37-0.45-2.71-0.68-4.06L32.02,475.43
		C31.76,476.91,31.49,478.38,31.22,479.85z"/>
</g>
<path class="Colour2 fill" d="M301.85,174.64c-1.85-0.03-4.63-0.28-7.72-1.4c-9.86-3.58-15.46-13.37-18.86-22.05l-0.17,0.72
	c-23.88,82.6-27.3,150.66-26.18,196.24c1.42,57.95,10.87,107.66,21.53,163.73c9.19,48.37,26.7,116.51,26.7,116.51
	c13.46-2.62,25.97-5.49,37.46-8.41c-16.33-70.88-29.62-138.68-40.48-202.98c-15.27-90.43-20.94-145.7-2.58-210.79
	c3.54-12.55,10.59-31.51,10.61-31.56L301.85,174.64z"/>
<path class="Colour2 fill" d="M31.6,174.98c2.63-0.44,6.35-1.36,10.33-3.47c8.07-4.27,13.66-11.57,18-22.28l0.18,0.72
	c26.01,99.34,26.07,177.42,21.87,228.2c-3.38,40.86-11.3,85.6-16.36,114.22c-9.87,55.74-29.36,135.67-29.36,135.67
	c-12.81-2.53-24.72-5.27-35.66-8.06c1.81-7.42,42.22-174.39,49.95-288.86c3.35-49.56,0.53-88.65-10.33-128.38
	c-3.01-11-6.18-20.4-8.89-27.76L31.6,174.98z"/>
<path class="st75" d="M333.69,620.21c-16.27-70.69-29.53-138.32-40.36-202.47c-15.27-90.43-20.94-145.7-2.58-210.79
	c3.67-13.03,7.62-23.99,10.9-32.31 M301.66,174.64c0.7-1.78,1.38-3.45,2.01-4.99c-1.09,0.18-2.96,0.39-5.17,0
	c-11.7-2.04-17.89-17.99-20.67-25.16c-12.43-32.01-9.67-126.57-9.47-132.72C254.58,8.02,240.8,4.26,227.02,0.5
	c-2.38,18.3-9.79,53.4-37.03,84.14c-8.05,9.08-16.4,16.17-24.11,21.69c-7.71-5.48-16.07-12.56-24.11-21.69
	c-27.19-30.85-34.08-66.19-36.17-84.14C92.39,4.26,79.18,8.02,65.98,11.77c0,4,0.01,10.03,0,17.35c-0.04,43.01-0.08,64.66-0.86,72
	c-1.8,16.93-6.49,60.91-28.42,67.66c-2.79,0.86-5.26,0.93-6.89,0.87c0.63,1.61,1.3,3.38,2.01,5.29 M1.52,620.21
	c-0.05,0.22-0.1,0.39-0.13,0.52c43.46,11.07,102.32,21.44,172.24,20.82c64.35-0.58,118.88-10.3,160.18-20.82
	c-0.04-0.17-0.08-0.35-0.12-0.52 M1.52,620.21c3.05-12.54,42.22-175.81,49.82-288.34c3.35-49.56,0.53-88.65-10.33-128.38
	c-3.12-11.4-6.41-21.08-9.18-28.54 M301.66,174.64c-1.85-0.05-4.54-0.31-7.53-1.39c-9.86-3.58-15.46-13.37-18.86-22.05l-0.17,0.72
	c-23.88,82.6-27.3,150.66-26.18,196.24c1.42,57.95,10.87,107.66,21.53,163.73c9.19,48.37,26.7,116.51,26.7,116.51
	c13.11-2.55,25.31-5.34,36.55-8.18 M1.52,620.21c10.68,2.7,22.28,5.36,34.74,7.83c0,0,19.5-79.93,29.36-135.67
	c5.07-28.62,12.98-73.36,16.36-114.22c4.2-50.78,4.14-128.86-21.87-228.2l-0.18-0.72c-4.34,10.71-9.93,18.01-18,22.28
	c-3.87,2.05-7.5,2.97-10.12,3.43"/>
<path class="NeckAndArmTrim fill" d="M233.15,1.45c-1.52,14.41-6.47,42.49-25.83,70.99c-14.4,21.2-31.13,34.31-42.2,41.64
	c-11.07-7.67-27.88-21.4-42.2-43.37C104.78,42.86,99.84,15.88,98.24,1.45l6.6-1.88c2.09,17.95,8.98,53.29,36.17,84.14
	c8.04,9.12,16.4,16.21,24.11,21.69c7.72-5.52,16.07-12.61,24.11-21.69c27.25-30.75,34.65-65.84,37.03-84.14L233.15,1.45z"/>
<path class="NeckAndArmTrim fill" d="M31.63,174.8c2.63-0.44,6.35-1.36,10.33-3.47c11.74-6.22,18.22-18.83,23.25-39.04
	c5.94-23.87,5.69-41.62,6.03-78.07c0.19-20.25,0.47-36.33,0.64-45.27l-6.67,1.9c0,4,0.01,10.03,0,17.35
	c-0.04,43.01-0.08,64.66-0.86,72c-1.8,16.93-6.49,60.91-28.42,67.66c-2.79,0.86-5.26,0.93-6.89,0.87L31.63,174.8z"/>
<path class="NeckAndArmTrim fill" d="M301.73,174.46c-1.84-0.01-4.76-0.22-8.02-1.4c-14.28-5.18-19.63-23.4-22.28-32.41
	c-11.51-39.14-8.97-124.07-8.72-131.54l6.03,1.73c-0.2,6.15-2.95,100.71,9.47,132.72c2.78,7.16,8.97,23.11,20.67,25.16
	c2.21,0.39,4.08,0.18,5.17,0L301.73,174.46z"/>
<path class="NeckAndArmTrim fill" d="M108.97,21.97c10.15,5,29.63,12.94,55.29,13.17c26.93,0.24,47.35-8.12,57.6-13.17l1.73-7.97
	c-8.91,5.26-29.46,15.78-57.6,15.93c-28.86,0.16-49.94-10.67-58.84-15.93L108.97,21.97z"/>
<g id="FBodyLogos"></g>
<g>
	<rect x="107.85" y="215.1" class="st76" width="31.86" height="12.14"/>
	<rect x="192.25" y="215.1" class="st76" width="31.86" height="12.14"/>
	<rect x="192.33" y="322.58" class="st76" width="31.86" height="12.14"/>
	<rect x="107.93" y="322.58" class="st76" width="31.86" height="12.14"/>
	<rect x="107.93" y="310.44" class="st76" width="31.86" height="12.14"/>
	<rect x="192.25" y="310.44" class="st76" width="31.86" height="12.14"/>
</g>
<path class="st77" d="M5.11,599.13c39.41,11.06,94.13,22.07,159.85,22.27c67.44,0.2,123.47-11.04,163.46-22.27"/>
<path class="st77" d="M3.72,605.11c39.38,11.01,93.31,21.8,157.8,22.36c69.44,0.6,127.16-10.87,168.26-22.36"/>
</svg>
