<?xml version="1.0" encoding="utf-8"?>
<!-- Generator: Adobe Illustrator 19.1.0, SVG Export Plug-In . SVG Version: 6.00 Build 0)  -->
<svg version="1.1" id="Layer_1" xmlns="http://www.w3.org/2000/svg" xmlns:xlink="http://www.w3.org/1999/xlink" x="0px" y="0px"
	 viewBox="0 0 335.2 641.14" style="enable-background:new 0 0 335.2 641.14;" xml:space="preserve">
<style type="text/css">
	<![CDATA[
	@font-face{font-family:'codaheavy';src:url('/fonts/coda-heavy-webfont.woff') format('woff')}
	text{font-family:Impact,codaheavy,sans-serif}
	.Colour1.fill{fill:#211E1F;}
	.NeckAndArmTrim.fill{fill:#DD1A56;stroke:#040404;stroke-width:0.9921;stroke-miterlimit:10;}
	.SidePanels.fill{fill:#DD1A56;stroke:#000000;stroke-miterlimit:10;}
	.st0{fill:none;stroke:#211E1F;stroke-linecap:round;stroke-linejoin:round;}
	.st1{fill-rule:evenodd;clip-rule:evenodd;fill:url(#SVGID_1_);}
	.st2{fill:none;stroke:#040404;stroke-width:0.9921;stroke-miterlimit:10;}
	.st3{fill:#FFFFFF;stroke:#040404;stroke-width:0.9921;stroke-miterlimit:10;}
	]]>
</style>
<path class="Colour1 fill" d="M291.34,206.31c4.48-15.83,9.37-28.64,12.98-37.35c-1.1,0.19-2.97,0.39-5.2,0
	c-11.75-2.05-17.97-18.02-20.77-25.19c-12.48-32.05-9.72-126.74-9.51-132.9c-13.85-3.77-27.69-7.53-41.53-11.3
	c-2.39,18.33-9.84,53.47-37.21,84.26c-8.08,9.1-16.47,16.2-24.23,21.72c-7.75-5.49-16.15-12.58-24.23-21.72
	C114.32,52.94,107.4,17.55,105.3-0.43C92.03,3.34,78.76,7.1,65.5,10.87c0,4,0.01,10.04,0,17.37c-0.04,43.07-0.08,64.75-0.86,72.09
	c-1.81,16.95-6.52,61-28.56,67.75c-2.8,0.86-5.28,0.93-6.92,0.87c3.1,7.92,7.32,19.55,11.25,33.88
	c10.9,39.8,13.74,78.93,10.38,128.56C43.02,446.03,2.42,613.23,0.6,620.66c43.67,11.09,102.8,21.48,173.05,20.85
	c64.65-0.58,119.45-10.31,160.95-20.85c-16.4-70.97-29.76-138.87-40.67-203.27C278.6,326.84,272.89,271.49,291.34,206.31
	L291.34,206.31z"/>
<path class="st0" d="M0.6,620.66c43.67,11.09,102.8,21.48,173.05,20.85c64.65-0.58,119.45-10.31,160.95-20.85
	c-16.4-70.97-29.76-138.87-40.67-203.27c-15.33-90.55-21.04-145.9-2.59-211.08c4.48-15.83,9.37-28.64,12.98-37.35
	c-1.1,0.19-2.97,0.39-5.2,0c-11.75-2.05-17.97-18.02-20.77-25.19c-12.48-32.05-9.72-126.74-9.51-132.9
	c-13.85-3.77-27.69-7.53-41.53-11.3c-2.39,18.33-9.84,53.47-37.21,84.26c-8.08,9.1-16.47,16.2-24.23,21.72
	c-7.75-5.49-16.15-12.58-24.23-21.72C114.32,52.94,107.4,17.55,105.3-0.43C92.03,3.34,78.76,7.1,65.5,10.87c0,4,0.01,10.04,0,17.37
	c-0.04,43.07-0.08,64.75-0.86,72.09c-1.81,16.95-6.52,61-28.56,67.75c-2.8,0.86-5.28,0.93-6.92,0.87
	c3.1,7.92,7.32,19.55,11.25,33.88c10.9,39.8,13.74,78.93,10.38,128.56C43.02,446.03,2.42,613.23,0.6,620.66z"/>
<path class="st2" d="M98.67,1.45c1.6,14.44,6.57,41.47,24.8,69.35c14.38,22,31.28,35.76,42.4,43.43
	c11.12-7.34,27.93-20.47,42.4-41.7C227.72,44,232.69,15.88,234.22,1.45"/>
<path class="st2" d="M72.2,8.96c-0.17,8.96-0.45,25.06-0.65,45.34c-0.35,36.5-0.09,54.28-6.05,78.18
	c-5.05,20.22-11.58,32.86-23.36,39.09c-4,2.11-7.74,3.03-10.39,3.47"/>
<path class="st2" d="M262.78,9.13c-0.24,7.47-2.8,92.52,8.76,131.72c2.66,9.02,8.04,27.27,22.39,32.46c3.27,1.18,6.21,1.4,8.06,1.4"
	/>
<path class="st2" d="M107.61,14.02c8.95,5.27,30.13,16.11,59.12,15.95c28.27-0.15,48.92-10.69,57.87-15.95"/>
<path class="st2" d="M109.45,22c10.19,5.01,29.77,12.95,55.56,13.19c27.06,0.24,47.57-8.13,57.86-13.19"/>
<rect x="109.19" y="214.74" class="st3" width="32.02" height="12.16"/>
<rect x="193.99" y="214.74" class="st3" width="32.01" height="12.16"/>
<rect x="194.08" y="322.36" class="st3" width="32.01" height="12.16"/>
<rect x="109.28" y="322.36" class="st3" width="32.01" height="12.16"/>
<rect x="109.28" y="310.21" class="st3" width="32.01" height="12.16"/>
<rect x="193.99" y="310.21" class="st3" width="32.01" height="12.16"/>
<path class="SidePanels fill" d="M301.99,174.71c-0.02,0.05-7.1,19.03-10.65,31.6c-18.45,65.18-12.74,120.53,2.59,211.09
	c10.9,64.39,24.27,132.28,40.67,203.26c-11.54,2.93-24.11,5.8-37.64,8.43c0,0-17.59-68.23-26.83-116.67
	c-10.7-56.16-20.2-105.94-21.63-163.97c-1.12-45.65,2.31-113.8,26.31-196.51l0.17-0.72c3.41,8.7,9.05,18.5,18.95,22.09
	c3.1,1.12,5.9,1.36,7.76,1.4H301.99z"/>
<path class="SidePanels fill" d="M31.47,175.04c2.72,7.36,5.91,16.77,8.93,27.79c10.9,39.8,13.74,78.93,10.38,128.56
	C43.02,446.03,2.42,613.23,0.6,620.66c10.99,2.79,22.95,5.53,35.83,8.07c0,0,19.59-80.04,29.5-135.86
	c5.09-28.66,13.05-73.47,16.44-114.37c4.22-50.86,4.16-129.04-21.97-228.52l-0.19-0.72c-4.36,10.72-9.98,18.03-18.08,22.32
	c-4,2.11-7.74,3.03-10.39,3.47H31.47z"/>
<path class="st0" d="M0.6,620.66c10.99,2.79,22.95,5.53,35.83,8.07l0,0c38.3,7.55,84.65,13.25,137.23,12.78
	c46.67-0.42,88.2-5.61,123.31-12.42c0,0,0,0.01,0,0.01c4.32-0.84,8.53-1.71,12.65-2.59c0.15-0.03,0.3-0.06,0.45-0.1
	c1.21-0.26,2.41-0.52,3.6-0.78c0.37-0.08,0.74-0.16,1.11-0.25c1.02-0.23,2.03-0.45,3.04-0.68c0.56-0.13,1.12-0.26,1.68-0.38
	c0.84-0.19,1.69-0.39,2.52-0.58c0.73-0.17,1.46-0.34,2.19-0.52c0.68-0.16,1.36-0.32,2.03-0.48c0.93-0.22,1.85-0.45,2.78-0.68
	c0.47-0.12,0.95-0.23,1.42-0.35c1.4-0.35,2.8-0.7,4.17-1.04c-2.05-8.87-4.05-17.7-6.01-26.47c-13.69-61.42-25.12-120.45-34.66-176.8
	c-8.63-50.93-14.21-90.73-14.15-127.4c0.02-16.3,1.16-31.98,3.63-47.75c1.86-11.83,4.47-23.7,7.92-35.92
	c0.13-0.45,0.26-0.89,0.38-1.33c3.41-11.7,9.39-27.88,10.18-30.03c0.85-2.17,1.66-4.18,2.42-6c-1.1,0.19-2.97,0.39-5.2,0
	c-11.75-2.05-17.97-18.02-20.77-25.19c-12.48-32.05-9.72-126.74-9.51-132.9c-13.85-3.77-27.69-7.53-41.53-11.3
	c-2.39,18.33-9.84,53.47-37.21,84.26c-8.08,9.1-16.47,16.2-24.23,21.72c-7.75-5.49-16.15-12.58-24.23-21.72
	C114.32,52.94,107.4,17.55,105.3-0.43C92.03,3.34,78.76,7.1,65.5,10.87c0,4,0.01,10.04,0,17.37c-0.04,43.07-0.08,64.75-0.86,72.09
	c-1.81,16.95-6.52,61-28.56,67.75c-2.8,0.86-5.28,0.93-6.92,0.87c1.16,2.95,2.46,6.41,3.85,10.33c0.02,0.06,0.04,0.12,0.06,0.17
	c0.67,1.9,1.37,3.92,2.07,6.03c0.05,0.14,0.09,0.27,0.14,0.41c0.41,1.24,0.83,2.53,1.25,3.84c0.06,0.19,0.12,0.37,0.18,0.56
	c0.19,0.61,0.39,1.23,0.58,1.86c0.15,0.48,0.3,0.96,0.44,1.45c0.21,0.7,0.43,1.4,0.64,2.12c0.24,0.8,0.47,1.6,0.71,2.42
	c0.12,0.42,0.24,0.84,0.36,1.26c0.32,1.13,0.65,2.27,0.97,3.44c10.9,39.8,13.74,78.93,10.38,128.56
	C43.02,446.03,2.42,613.23,0.6,620.66z"/>
<path class="NeckAndArmTrim fill" d="M234.22,1.45c-1.53,14.43-6.5,42.55-25.95,71.09c-14.47,21.23-31.28,34.36-42.4,41.7
	c-11.12-7.68-28.02-21.43-42.4-43.43c-18.23-27.88-23.2-54.91-24.8-69.35l6.63-1.88c2.1,17.98,9.02,53.36,36.34,84.26
	c8.08,9.14,16.47,16.23,24.23,21.72c7.75-5.52,16.14-12.62,24.23-21.72c27.37-30.79,34.82-65.93,37.21-84.26L234.22,1.45z"/>
<path class="NeckAndArmTrim fill" d="M31.75,175.04c2.64-0.45,6.39-1.36,10.39-3.47c11.79-6.23,18.31-18.87,23.36-39.09
	c5.97-23.9,5.71-41.68,6.05-78.18c0.19-20.28,0.48-36.38,0.65-45.34l-6.7,1.91c0,4,0.01,10.04,0,17.37
	c-0.04,43.07-0.08,64.75-0.86,72.09c-1.81,16.95-6.52,61-28.56,67.75c-2.8,0.86-5.28,0.93-6.92,0.87L31.75,175.04z"/>
<path class="NeckAndArmTrim fill" d="M301.99,174.71c-1.85-0.01-4.79-0.22-8.06-1.4c-14.35-5.19-19.73-23.44-22.39-32.46
	c-11.56-39.2-9.01-124.24-8.76-131.72l6.06,1.74c-0.2,6.16-2.97,100.85,9.51,132.9c2.8,7.17,9.01,23.14,20.77,25.19
	c2.22,0.39,4.1,0.19,5.2,0L301.99,174.71z"/>
<path class="NeckAndArmTrim fill" d="M109.45,22c10.19,5.01,29.77,12.95,55.56,13.19c27.06,0.24,47.57-8.13,57.86-13.19l1.74-7.98
	c-8.95,5.27-29.6,15.8-57.87,15.95c-29,0.15-50.18-10.69-59.12-15.95L109.45,22z"/>
<g id="FBodyLogos"></g>
</svg>
