<?xml version="1.0" encoding="utf-8"?>
<!-- Generator: Adobe Illustrator 19.1.0, SVG Export Plug-In . SVG Version: 6.00 Build 0)  -->
<svg version="1.1" id="Layer_1" xmlns="http://www.w3.org/2000/svg" xmlns:xlink="http://www.w3.org/1999/xlink" x="0px" y="0px"
	 viewBox="0 0 335.2 641.14" style="enable-background:new 0 0 335.2 641.14;" xml:space="preserve">
<style type="text/css">
	<![CDATA[
	@font-face{font-family:'codaheavy';src:url('/fonts/coda-heavy-webfont.woff') format('woff')}
	text{font-family:Impact,codaheavy,sans-serif}
	.Number.fill{fill:#000}
	.NumberOutline.stroke{fill:none;stroke:#777;stroke-width:2.5}
	.Colour1.fill{fill:#CA4B28;}
	.Colour2.fill{fill:#FBAF2D;}
	.NeckAndArmTrim.fill{fill:#FBAF2D;stroke:#000000;stroke-miterlimit:10;}
	.st0{fill:none;stroke:#000000;stroke-miterlimit:10;}
	.st1{fill:#FFFFFF;stroke:#000000;}
	.st2{fill:none;stroke:#000000;stroke-linecap:round;stroke-linejoin:round;}
	]]>
</style>
<path class="Colour1 fill" d="M229.3,0.02c13.79,3.73,24.77,7.46,38.57,11.19c-0.2,6.11-2.96,99.97,9.48,131.74
	c2.78,7.11,8.98,22.94,20.69,24.97c2.21,0.38,4.09,0.18,5.17,0c-3.6,8.63-8.47,21.33-12.93,37.03
	c-18.38,64.61-12.7,119.47,2.59,209.24c10.87,63.83,24.18,131.13,40.52,201.49c-41.35,10.44-95.94,20.09-160.36,20.67
	c-70,0.62-128.92-9.68-172.43-20.67c1.82-7.36,42.27-173.1,50.01-286.73c3.35-49.2,0.53-87.99-10.35-127.44
	c-3.92-14.21-8.11-25.73-11.21-33.58c1.63,0.06,4.11-0.01,6.9-0.86c21.95-6.7,26.65-50.36,28.45-67.16
	c0.78-7.28,0.82-28.78,0.86-71.47c0.01-7.27,0-13.25,0-17.22C78.48,7.48,91.7,3.75,104.92,0.02C104.92,22.77,229.3,22.77,229.3,0.02
	z"/>
<path class="Colour2 fill" d="M236.5,632.78c-4.73,0.49-9.52,0.93-14.39,1.33V6.98c3.91-4.82,3.66-1.06,4.43-6.96
	c3.32,0.9,6.64,1.8,9.96,2.69V632.78z M197.19,15.02v620.67c4.87-0.22,9.65-0.5,14.39-0.81V9.33
	C207.78,17.11,203.06,7.19,197.19,15.02z M186.65,636.07V15.59c-4.79,5.06-9.65-1.93-14.39,1.87v618.89c0.28,0,0.55,0,0.82,0
	C177.66,636.3,182.18,636.2,186.65,636.07z M261.43,9.45c-4.8-1.3-9.59-2.6-14.39-3.89v626.06c4.87-0.58,9.69-1.19,14.39-1.85V9.45z
	 M86.96,5.1c-4.8,1.35-9.59,2.71-14.39,4.06v620.59c4.71,0.66,9.51,1.28,14.39,1.87V5.1z M122.41,634.9
	c4.73,0.31,9.53,0.57,14.39,0.79V15.96c-5.77-7.17-10.5,1.97-14.39-5.27V634.9z M147.34,636.08c4.74,0.14,9.54,0.22,14.39,0.26
	V20.07c-4.69-3.53-9.55,0.3-14.39-4.49V636.08z M111.88,6.98c-3.4-6.16-5.98,0.9-6.91-6.96c-2.5,0.7-4.99,1.41-7.49,2.11v630.66
	c4.72,0.49,9.52,0.93,14.39,1.33V6.98z M234.09,641.57h2.41v-0.25C235.7,641.4,234.9,641.49,234.09,641.57z M97.49,641.3v0.27h2.66
	C99.27,641.48,98.38,641.39,97.49,641.3z"/>
<path class="st0" d="M234.58,1.88"/>
<path class="st0" d="M99.53,1.88"/>
<g>
	<rect x="109.97" y="213.3" class="st1" width="31.9" height="12.05"/>
	<rect x="194.46" y="213.3" class="st1" width="31.9" height="12.05"/>
	<rect x="194.54" y="319.99" class="st1" width="31.9" height="12.05"/>
	<rect x="110.05" y="319.99" class="st1" width="31.9" height="12.05"/>
	<rect x="110.05" y="307.94" class="st1" width="31.9" height="12.05"/>
	<rect x="194.54" y="307.94" class="st1" width="31.9" height="12.05"/>
</g>
<path class="Colour2 fill" d="M301.81,173.62c-1.85-0.03-4.64-0.28-7.73-1.39c-9.87-3.55-15.48-13.27-18.88-21.89l-0.17,0.71
	c-23.91,81.99-27.33,149.55-26.21,194.8c1.42,57.52,10.88,106.87,21.55,162.53c9.2,48.02,26.73,115.65,26.73,115.65
	c13.48-2.6,26-5.45,37.5-8.35c-16.35-70.36-29.65-137.66-40.52-201.49c-15.28-89.76-20.96-144.63-2.59-209.24
	c3.54-12.46,10.6-31.28,10.62-31.33L301.81,173.62z"/>
<path class="Colour2 fill" d="M32.22,173.95c2.63-0.44,6.36-1.35,10.35-3.44c8.08-4.24,13.67-11.49,18.02-22.12l0.18,0.72
	c26.04,98.61,26.1,176.11,21.89,226.52C79.28,416.18,71.35,460.59,66.28,489c-9.88,55.33-29.4,134.67-29.4,134.67
	c-12.83-2.51-24.75-5.23-35.7-8c1.82-7.36,42.27-173.1,50.01-286.73c3.35-49.2,0.53-87.99-10.35-127.44
	c-3.01-10.92-6.19-20.25-8.9-27.55L32.22,173.95z"/>
<path class="st2" d="M297.25,623.8c13.04-2.54,25.18-5.3,36.35-8.12c-16.35-70.36-29.65-137.66-40.52-201.49
	c-15.28-89.76-20.96-144.63-2.59-209.24c3.57-12.56,7.4-23.19,10.63-31.36 M301.13,173.59c0.81-2.04,1.58-3.94,2.3-5.66
	c-1.09,0.18-2.96,0.38-5.17,0c-11.71-2.03-17.91-17.86-20.69-24.97c-12.44-31.77-9.68-125.64-9.48-131.74
	c-13.79-3.73-24.77-7.46-38.57-11.19c0,22.75-124.38,22.75-124.38,0C91.91,3.75,78.69,7.48,65.47,11.21c0,3.97,0.01,9.95,0,17.22
	c-0.04,42.69-0.08,64.19-0.86,71.47c-1.81,16.81-6.5,60.46-28.45,67.16c-2.79,0.85-5.27,0.93-6.9,0.86
	c3.09,7.85,7.29,19.37,11.21,33.58c10.87,39.44,13.7,78.24,10.35,127.44C43.07,442.57,2.62,608.31,0.81,615.67
	c43.51,10.98,102.43,21.29,172.43,20.67c47.02-0.42,88.79-5.67,124.01-12.54 M301.13,173.59c-1.8-0.09-4.21-0.41-6.84-1.36
	c-9.87-3.55-15.48-13.27-18.88-21.89l-0.17,0.71c-23.91,81.99-27.33,149.55-26.21,194.8c1.42,57.52,10.88,106.87,21.55,162.53
	c8.9,46.42,25.57,111.17,26.67,115.42 M59.97,149.11l-0.18-0.72c-4.34,10.63-9.94,17.88-18.02,22.12c-3.98,2.09-7.71,3-10.35,3.44
	l-0.28,0c2.71,7.3,5.89,16.63,8.9,27.55c10.87,39.44,13.7,78.24,10.35,127.44C42.66,442.57,2.21,608.31,0.39,615.67
	c10.95,2.76,22.87,5.48,35.7,8c0,0,19.52-79.34,29.4-134.67c5.07-28.41,13-72.82,16.38-113.38
	C86.07,325.22,86.01,247.72,59.97,149.11z"/>
<path class="NeckAndArmTrim fill" d="M32.1,173.95c2.63-0.44,6.36-1.35,10.35-3.44c11.75-6.17,18.24-18.7,23.28-38.75
	c5.95-23.69,5.69-41.32,6.04-77.5c0.19-20.1,0.47-36.06,0.64-44.94l-6.68,1.89c0,3.97,0.01,9.95,0,17.22
	c-0.04,42.69-0.08,64.19-0.86,71.47c-1.81,16.81-6.5,60.46-28.45,67.16c-2.79,0.85-5.27,0.93-6.9,0.86L32.1,173.95z"/>
<path class="NeckAndArmTrim fill" d="M302.11,173.62c-1.84-0.01-4.77-0.22-8.03-1.39c-14.29-5.14-19.66-23.23-22.31-32.17
	C260.25,101.2,262.8,16.9,263.04,9.49l6.04,1.72c-0.2,6.11-2.96,99.97,9.48,131.74c2.78,7.11,8.98,22.94,20.69,24.97
	c2.21,0.38,4.09,0.18,5.17,0L302.11,173.62z"/>
<path class="NeckAndArmTrim fill" d="M98.08,1.83c9.78,6.17,35.6,20.64,71.39,19.95c32.89-0.63,56.56-13.73,66.44-19.98l-8.27-2.24
	c-10.15,5.43-31.3,15-59.67,15.24c-29.63,0.26-51.7-9.79-61.9-15.24L98.08,1.83z"/>
<g id="BBodyLogos"></g>
</svg>
