<?xml version="1.0" encoding="utf-8"?>
<!-- Generator: Adobe Illustrator 19.1.0, SVG Export Plug-In . SVG Version: 6.00 Build 0)  -->
<svg version="1.1" id="Layer_1" xmlns="http://www.w3.org/2000/svg" xmlns:xlink="http://www.w3.org/1999/xlink" x="0px" y="0px"
	 viewBox="0 0 335.2 641.14" style="enable-background:new 0 0 335.2 641.14;" xml:space="preserve">
<style type="text/css">
	<![CDATA[
	@font-face{font-family:'codaheavy';src:url('/fonts/coda-heavy-webfont.woff') format('woff')}
	text{font-family:Impact,codaheavy,sans-serif}
	.Colour1.fill{fill:#214083;}
	.Colour2.fill{fill:#2B5FAB;}
	.Colour3.fill{fill:#0092CD;}
	.Colour4.fill{fill:#FFFFFF;}
	.NeckAndArmTrim.fill{fill:#23356C;stroke:#000000;stroke-miterlimit:10;}
	.st0{fill:none;stroke:#000000;stroke-linecap:round;stroke-linejoin:round;}
	.st1{fill:none;stroke:#000000;stroke-miterlimit:10;}
	.st2{fill:#FFFFFF;stroke:#000000;}
	.st3{fill:none;stroke:#D0D2D3;stroke-dasharray:5,2.4;}
	]]>
</style>
<path class="Colour1 fill" d="M227.31-0.43c13.84,3.76,27.69,7.53,41.53,11.29c-0.2,6.16-2.97,100.85,9.52,132.91
	c2.79,7.17,9.01,23.15,20.77,25.19c2.22,0.39,4.1,0.18,5.19,0c-3.61,8.71-8.5,21.51-12.98,37.35
	c-18.44,65.18-12.74,120.54,2.6,211.1c10.91,64.39,24.26,132.3,40.67,203.28c-41.5,10.53-96.29,20.27-160.94,20.85
	c-70.25,0.63-129.39-9.77-173.06-20.85c1.82-7.43,42.42-174.64,50.19-289.28c3.36-49.63,0.53-88.77-10.38-128.57
	c-3.93-14.34-8.14-25.96-11.25-33.88c1.64,0.07,4.12-0.01,6.92-0.87c22.03-6.76,26.74-50.8,28.55-67.76
	c0.79-7.35,0.82-29.03,0.87-72.1c0.01-7.33,0-13.37,0-17.37C78.77,7.1,92.03,3.33,105.3-0.43c2.1,17.98,9.02,53.37,36.34,84.26
	c8.08,9.14,16.48,16.23,24.23,21.72c7.76-5.52,16.14-12.62,24.23-21.72C217.47,53.05,224.91,17.9,227.31-0.43z"/>
<path class="st0" d="M0.62,620.69c43.67,11.08,102.8,21.48,173.06,20.85c64.65-0.58,119.45-10.32,160.94-20.85
	c-16.41-70.98-29.76-138.88-40.67-203.28c-15.34-90.56-21.04-145.91-2.6-211.1c4.48-15.84,9.37-28.64,12.98-37.35
	c-1.09,0.18-2.97,0.39-5.19,0c-11.75-2.05-17.97-18.02-20.77-25.19c-12.49-32.06-9.72-126.75-9.52-132.91
	c-13.84-3.76-27.69-7.53-41.53-11.29c-2.39,18.33-9.83,53.47-37.21,84.26c-8.08,9.09-16.47,16.19-24.23,21.72
	c-7.75-5.49-16.15-12.58-24.23-21.72c-27.32-30.9-34.24-66.28-36.34-84.26C92.05,3.33,78.78,7.1,65.52,10.86c0,4,0.01,10.04,0,17.37
	c-0.04,43.07-0.08,64.76-0.87,72.1c-1.81,16.96-6.52,61-28.55,67.76c-2.8,0.86-5.28,0.93-6.92,0.87
	c3.11,7.92,7.32,19.54,11.25,33.88c10.91,39.79,13.75,78.93,10.38,128.57C43.04,446.06,2.44,613.27,0.62,620.69z"/>
<path class="st1" d="M98.67,1.45c1.6,14.45,6.57,41.47,24.8,69.35c14.38,22.01,31.28,35.76,42.4,43.44
	c11.12-7.34,27.93-20.47,42.4-41.7C227.72,44,232.69,15.88,234.22,1.45"/>
<path class="st1" d="M72.2,8.96c-0.17,8.95-0.45,25.06-0.65,45.34c-0.34,36.5-0.09,54.28-6.06,78.18
	c-5.05,20.23-11.57,32.87-23.36,39.09c-4,2.11-7.74,3.03-10.38,3.47"/>
<path class="st1" d="M262.78,9.13c-0.25,7.48-2.8,92.53,8.76,131.73c2.66,9.02,8.04,27.27,22.39,32.46
	c3.28,1.18,6.21,1.39,8.06,1.41"/>
<path class="st1" d="M107.61,14.02c8.95,5.27,30.13,16.11,59.12,15.96c28.27-0.15,48.92-10.69,57.87-15.96"/>
<path class="st1" d="M109.45,22c10.2,5.01,29.77,12.96,55.56,13.19c27.06,0.24,47.57-8.13,57.87-13.19"/>
<path class="Colour2 fill" d="M133.65,552.56c0,0-8.47,57.6,26.13,88.97l-32.84-1.18c-17.05-22.22-14.38-58.13-14.38-58.13
	C118,570.97,133.65,552.56,133.65,552.56z M246.12,268.39c0.35-5.18,0.74-10.2,1.18-15.05c0-0.02,0-0.04,0.01-0.06
	c0.21-2.37,0.44-4.69,0.67-6.98c0.01-0.11,0.02-0.23,0.04-0.34c0.22-2.19,0.46-4.35,0.7-6.46c0.01-0.09,0.02-0.18,0.03-0.27l0,0
	c0.72-6.36,1.51-12.41,2.35-18.13l-5.4,5.19c-86.23,82.52-137.23,168.82-164.82,226.68c-0.24,0.51-0.47,1.01-0.71,1.51
	c-4.56,33.93-10.95,70.83-19.64,110.84l9.8,2.13c0.09-0.42,9.39-42.33,38.16-102.41C132.72,414.44,175.74,341.04,246.12,268.39
	L246.12,268.39z M244.48,320.79L118.79,488.87l28.51-12.97l97.58-130.3C244.62,337.04,244.5,328.78,244.48,320.79z M89.84,324.82
	c-0.06,8.81-0.28,17.97-0.64,27.46l0.9-1.73c0.71-1.08,68.94-104,167-162.34c1.71-7.71,3.43-14.45,5.07-20.22
	C178.47,213.32,115.36,290.36,89.84,324.82z"/>
<path class="Colour3 fill" d="M89.86,637.09c0,0,23.88-125.41,172.9-161.24l-8.44-58.15C104.88,440.69,49.71,576.63,49.71,576.63
	L42,629.81C42,629.81,67.67,634.9,89.86,637.09z"/>
<path class="Colour4 fill" d="M253.04,428.61c-58.01,14.17-106.68,40.81-148.82,88.13c-31.28,35.12-47.68,68.48-51.96,77.84
	c0,0-7.54,16.36-12.27,34.85l7,1.46c3.26,0.52,6.7,1.05,10.24,1.57c5.97-17.17,16.61-41.87,34.67-68.19
	c27.65-40.28,76.45-87.66,164.17-114.71L253.04,428.61z"/>
<path class="Colour3 fill" d="M31.19,627.71c89.78-288.07,26.08-472.09,26.08-472.09c3.19-5.23,5.69-14.03,5.69-14.03
	s71.15,144.97-17.93,488.8L31.19,627.71z M303.16,627.71c-89.78-288.07-26.08-472.09-26.08-472.09c-3.19-5.23-5.69-14.03-5.69-14.03
	s-71.15,144.97,17.93,488.8L303.16,627.71z"/>
<path class="NeckAndArmTrim fill" d="M234.22,1.45c-1.53,14.43-6.5,42.55-25.95,71.09c-14.47,21.23-31.28,34.36-42.4,41.7
	c-11.12-7.68-28.01-21.43-42.4-43.44c-18.23-27.88-23.2-54.9-24.8-69.35l6.63-1.88c2.1,17.98,9.02,53.37,36.34,84.26
	c8.08,9.14,16.48,16.23,24.23,21.72c7.76-5.52,16.14-12.62,24.23-21.72c27.38-30.79,34.82-65.93,37.21-84.26L234.22,1.45z"/>
<path class="NeckAndArmTrim fill" d="M31.75,175.05c2.64-0.44,6.39-1.36,10.38-3.47c11.79-6.23,18.31-18.86,23.36-39.09
	c5.97-23.9,5.71-41.68,6.06-78.18c0.19-20.28,0.47-36.38,0.65-45.34l-6.7,1.9c0,4,0.01,10.04,0,17.37
	c-0.04,43.07-0.08,64.76-0.87,72.1c-1.81,16.96-6.52,61-28.55,67.76c-2.8,0.86-5.28,0.93-6.92,0.87L31.75,175.05z"/>
<path class="NeckAndArmTrim fill" d="M301.99,174.72c-1.85-0.01-4.78-0.22-8.06-1.41c-14.35-5.19-19.73-23.43-22.39-32.46
	c-11.56-39.2-9.01-124.25-8.76-131.73l6.06,1.74c-0.2,6.16-2.97,100.85,9.52,132.91c2.79,7.17,9.01,23.15,20.77,25.19
	c2.22,0.39,4.1,0.18,5.19,0L301.99,174.72z"/>
<path class="NeckAndArmTrim fill" d="M109.45,22c10.2,5.01,29.77,12.96,55.56,13.19c27.06,0.24,47.57-8.13,57.87-13.19l1.74-7.98
	c-8.95,5.27-29.6,15.8-57.87,15.96c-28.99,0.16-50.17-10.69-59.12-15.96L109.45,22z"/>
<g>
	<rect x="109.19" y="214.75" class="st2" width="32.02" height="12.16"/>
	<rect x="193.99" y="214.75" class="st2" width="32.02" height="12.16"/>
	<rect x="194.07" y="322.38" class="st2" width="32.02" height="12.16"/>
	<rect x="109.28" y="322.38" class="st2" width="32.02" height="12.16"/>
	<rect x="109.28" y="310.22" class="st2" width="32.02" height="12.16"/>
	<rect x="193.99" y="310.22" class="st2" width="32.02" height="12.16"/>
</g>
<g>
	<path class="st3" d="M5.19,601c39.59,11.08,94.58,22.1,160.61,22.3c67.76,0.2,124.06-11.06,164.24-22.3"/>
	<path class="st3" d="M3.8,606.99c39.57,11.03,93.75,21.83,158.54,22.39c69.77,0.6,127.76-10.88,169.05-22.39"/>
</g>
<g id="FBodyLogos"></g>
</svg>
