<?xml version="1.0" encoding="utf-8"?>
<!-- Generator: Adobe Illustrator 19.1.0, SVG Export Plug-In . SVG Version: 6.00 Build 0)  -->
<svg version="1.1" id="Layer_1" xmlns="http://www.w3.org/2000/svg" xmlns:xlink="http://www.w3.org/1999/xlink" x="0px" y="0px"
	 viewBox="0 0 335.2 641.14" style="enable-background:new 0 0 335.2 641.14;" xml:space="preserve">
<style type="text/css">
	<![CDATA[
	@font-face{font-family:'codaheavy';src:url('/fonts/coda-heavy-webfont.woff') format('woff')}
	text{font-family:Impact,codaheavy,sans-serif}
	.Colour1.fill{fill:#FFFFFF;}
	.Colour2.fill{fill:#7FC142;}
	.Colour3.fill{fill:#C2D72E;}
	.Colour4.fill{fill:#97C93C;}
	.Colour5.fill{fill:#D0DE54; fill-opacity:0.8;}
	.Colour6.fill{fill:#52B6C7;}
	.Colour7.fill{fill:#0E5969;}
	.Colour8.fill{fill:#1F9346;}
	.Colour9.fill{fill:#98D2B8; fill-opacity:0.7;}
	.Colour10.fill{fill:#E6F4F3; fill-opacity:0.12;}
	.NeckAndArmTrim.fill{fill:#7FC142;stroke:#000000;stroke-miterlimit:10;}
	.st0{fill:none;stroke:#000000;stroke-miterlimit:10;}
	.st1{fill:#7FC142;}
	.st2{fill:url(#SVGID_1_);}
	.st3{fill:#98D2B8;}
	.st4{fill:#DBEFEF;}
	.st5{fill:url(#SVGID_2_);}
	.st6{fill:#D0DE54;}
	.st7{fill:#0E5969;}
	.st8{fill:#97C93C;}
	.st9{fill:#FFFFFF;stroke:#000000;}
	.st10{fill:none;stroke:#000000;stroke-linecap:round;stroke-linejoin:round;}
	]]>
</style>
<path class="Colour1 fill" d="M227.31-0.43c13.84,3.76,27.69,7.53,41.53,11.29c-0.2,6.16-2.97,100.85,9.52,132.91
	c2.79,7.17,9.01,23.15,20.77,25.19c2.22,0.39,4.1,0.18,5.19,0c-3.61,8.71-8.5,21.51-12.98,37.35
	c-18.44,65.18-12.74,120.54,2.6,211.1c10.91,64.39,24.26,132.3,40.67,203.28c-41.5,10.53-96.29,20.27-160.94,20.85
	c-70.25,0.63-129.39-9.77-173.06-20.85c1.82-7.43,42.42-174.64,50.19-289.28c3.36-49.63,0.53-88.77-10.38-128.57
	c-3.93-14.34-8.14-25.96-11.25-33.88c1.64,0.07,4.12-0.01,6.92-0.87c22.03-6.76,26.74-50.8,28.55-67.76
	c0.79-7.35,0.82-29.03,0.87-72.1c0.01-7.33,0-13.37,0-17.37C78.77,7.1,92.03,3.33,105.3-0.43c2.1,17.98,9.02,53.37,36.34,84.26
	c8.08,9.14,16.48,16.23,24.23,21.72c7.76-5.52,16.14-12.62,24.23-21.72C217.47,53.05,224.91,17.9,227.31-0.43z"/>
<path class="Colour4 fill" d="M125.7,452.26l27.21,47.32H98.48L125.7,452.26z M125.69,452.25h54.43l-27.21-47.32L125.69,452.25z"/>
<path class="Colour4 fill" d="M152.92,404.93L152.92,404.93L125.7,357.6h54.43l0,0L152.92,404.93z M98.48,310.28L98.48,310.28
	L71.26,357.6h54.43l0,0L98.48,310.28z"/>
<path class="Colour8 fill" d="M71.26,452.25l27.21,47.33H44.04L71.26,452.25L71.26,452.25z M152.92,404.93H98.48l27.22,47.32h0.01
	L152.92,404.93L152.92,404.93z M207.35,594.24L207.35,594.24h-54.43v0l27.22,47.33L207.35,594.24z M207.35,499.58L207.35,499.58
	l-27.22,47.33h54.44l0,0L207.35,499.58z"/>
<path class="Colour9 fill" d="M152.91,499.58h54.43l-27.22,47.33l0,0L152.91,499.58L152.91,499.58z M125.7,546.91L125.7,546.91
	l27.21,47.33l27.22-47.33l0,0H125.7z"/>
<path class="Colour6 fill" d="M289,546.91L289,546.91l-27.22,47.33l-27.22-47.33H289z M179.28,357.61h54.42l-26.36-47.33L179.28,357.61z"
	/>
<path class="Colour10 fill" d="M180.13,357.6L180.13,357.6l-27.22-47.32h54.43l0,0L180.13,357.6z M261.78,499.58L261.78,499.58
	l-27.22,47.33l0,0H289L261.78,499.58z M125.7,546.91h54.43l-27.22-47.33L125.7,546.91z M71.26,168.29l27.22,47.33l27.21-47.32v-0.01
	H71.26z"/>
<path class="Colour5 fill" d="M152.92,310.28l27.21,47.32H125.7v0l27.21-47.32H152.92z M47.54,221.68l23.73,41.26l27.21-47.32H46.2
	C46.67,217.64,47.11,219.66,47.54,221.68z M98.48,404.93H45.33c-0.08,0.6-0.17,1.19-0.25,1.79l26.19,45.54L98.48,404.93z"/>
<path class="Colour5 fill" d="M261.78,594.24L261.78,594.24h-54.44l0,0l27.22-47.33l0,0L261.78,594.24z M44.05,594.24l-18.28,31.77
	c12.66,2.76,26.33,5.35,40.92,7.6L44.05,594.24z"/>
<path class="Colour7 fill" d="M207.34,404.93l-27.22,47.32h-0.01l-27.22-47.32H207.34L207.34,404.93z M234.56,546.91l27.21-47.33h-54.43
	L234.56,546.91z M53.64,326.97l17.61,30.63h0l27.21-47.32H54.43C54.25,315.71,53.99,321.27,53.64,326.97z M71.26,546.92l-51.49-0.01
	c-0.27,1.26-0.53,2.51-0.79,3.75l25.07,43.58L71.26,546.92z M75.11,634.87c15.6,2.21,32.2,4,49.7,5.18l-26.34-45.8L75.11,634.87z"/>
<path class="Colour2 fill" d="M125.7,546.91l-27.22,47.33l0,0l-27.21-47.32l0-0.01L125.7,546.91L125.7,546.91z M152.91,499.58
	L152.91,499.58H98.48v0l27.21,47.32h0L152.91,499.58z M152.91,310.27l27.21-47.32H125.7L152.91,310.27z M180.07,641.47l-27.16-47.23
	h0l-26.4,45.92c13.62,0.88,27.77,1.38,42.44,1.41h1.76c1.84,0,3.68-0.01,5.54-0.02C177.53,641.53,178.79,641.49,180.07,641.47z"/>
<path class="Colour3 fill" d="M125.7,357.6l27.22,47.33H98.48v0L125.7,357.6L125.7,357.6z M180.13,546.91l-27.22,47.33v0h54.43l0,0
	L180.13,546.91z M98.48,499.59l27.21,47.32H71.27L98.48,499.59z M45.57,212.97l25.69-44.68l27.22,47.33h0H46.2
	C45.99,214.73,45.78,213.85,45.57,212.97z M44.05,594.24l27.21-47.32l27.21,47.32H44.05L44.05,594.24z"/>
<path class="Colour2 fill" d="M54.43,310.28h44.05l0-0.01l-27.22-47.32h-0.01l-16.58,28.83C54.72,297.8,54.63,303.96,54.43,310.28z
	 M261.78,594.24h-54.44l25.54,44.42c1.19-0.11,2.37-0.23,3.55-0.35L261.78,594.24z"/>
<path class="Colour6 fill" d="M232.89,638.66c-16.69,1.55-34.3,2.54-52.71,2.82l27.16-47.23L232.89,638.66z M98.48,310.27l27.22-47.32
	H71.27L98.48,310.27z M98.48,594.25l-23.36,40.62c-2.84-0.4-5.65-0.82-8.42-1.25l-22.64-39.38L98.48,594.25L98.48,594.25z
	 M283.51,632.02c-14.73,2.5-30.45,4.65-47.07,6.28l25.34-44.07L283.51,632.02z"/>
<path class="Colour7 fill" d="M152.91,310.27l0,0.01H98.48l0-0.01l27.22-47.32h0L152.91,310.27z M71.26,357.6l27.21,47.32l27.22-47.33
	L71.26,357.6L71.26,357.6z M180.13,546.91h54.44l-27.22,47.33L180.13,546.91L180.13,546.91z M98.48,499.59l-27.22,47.32h-0.01
	l-27.22-47.33l0,0L98.48,499.59L98.48,499.59z M295.75,629.84c-4,0.75-8.08,1.48-12.24,2.19l-21.73-37.78h54.44L295.75,629.84z"/>
<path class="Colour5 fill" d="M31.7,169.3c3.09,7.91,7.29,19.53,11.21,33.86c0.92,3.37,1.77,6.74,2.57,10.11l25.6-44.64H37.83
	C35.36,169.27,33.17,169.36,31.7,169.3z"/>
<path class="st0" d="M227.31-0.43c13.84,3.76,27.69,7.53,41.53,11.29c-0.2,6.16-2.97,100.85,9.52,132.91
	c2.79,7.17,9.01,23.15,20.77,25.19c2.22,0.39,4.1,0.18,5.19,0c-3.61,8.71-8.5,21.51-12.98,37.35
	c-18.44,65.18-12.74,120.54,2.6,211.1c10.91,64.39,24.26,132.3,40.67,203.28c-41.5,10.53-96.29,20.27-160.94,20.85
	c-70.25,0.63-129.39-9.77-173.06-20.85c1.82-7.43,42.42-174.64,50.19-289.28c3.36-49.63,0.53-88.77-10.38-128.57
	c-3.93-14.34-8.14-25.96-11.25-33.88c1.64,0.07,4.12-0.01,6.92-0.87c22.03-6.76,26.74-50.8,28.55-67.76
	c0.79-7.35,0.82-29.03,0.87-72.1c0.01-7.33,0-13.37,0-17.37C78.77,7.1,92.03,3.33,105.3-0.43c2.1,17.98,9.02,53.37,36.34,84.26
	c8.08,9.14,16.48,16.23,24.23,21.72c7.76-5.52,16.14-12.62,24.23-21.72C217.47,53.05,224.91,17.9,227.31-0.43z"/>
<polygon class="st1" points="95.89,404.93 95.89,404.93 95.89,404.93 "/>
<polygon class="st1" points="41.46,404.93 41.46,404.93 41.46,404.93 "/>
<polygon class="st1" points="150.33,404.93 150.33,404.93 150.33,404.93 "/>
<polygon class="st1" points="41.45,499.58 41.45,499.58 41.45,499.58 "/>
<polygon class="st1" points="204.76,499.58 204.77,499.58 204.76,499.58 "/>
<polygon class="st1" points="150.33,499.58 150.33,499.58 150.33,499.58 "/>
<polygon class="st1" points="259.19,499.58 259.2,499.58 259.19,499.58 "/>
<polygon class="st1" points="68.67,452.25 68.68,452.25 68.67,452.25 "/>
<polygon class="st1" points="150.32,310.28 150.33,310.28 150.33,310.27 "/>
<polygon class="st1" points="41.46,310.28 41.46,310.28 41.46,310.28 "/>
<polygon class="st1" points="95.89,310.28 95.9,310.28 95.9,310.27 "/>
<polygon class="st1" points="68.67,357.6 68.68,357.6 68.68,357.6 "/>
<polygon class="st1" points="177.54,357.6 177.54,357.6 177.55,357.6 "/>
<polygon class="st1" points="123.11,357.6 123.11,357.6 123.11,357.6 "/>
<polygon class="st1" points="150.32,594.24 150.33,594.24 150.33,594.24 "/>
<polygon class="st1" points="204.76,594.24 204.76,594.24 204.76,594.24 "/>
<polygon class="st1" points="95.89,594.25 95.89,594.24 95.89,594.24 "/>
<polygon class="st1" points="259.2,594.24 259.2,594.24 259.2,594.24 "/>
<polygon class="st1" points="123.11,641.57 123.11,641.57 123.1,641.57 "/>
<polygon class="st1" points="286.41,641.57 286.41,641.57 286.41,641.56 "/>
<polygon class="st1" points="286.41,546.91 286.41,546.91 286.42,546.91 "/>
<polygon class="st1" points="231.98,546.91 231.98,546.91 231.98,546.91 "/>
<polygon class="st1" points="68.68,546.92 68.68,546.91 68.67,546.91 "/>
<polygon class="st1" points="14.24,546.91 14.24,546.91 14.24,546.91 "/>
<polygon class="st1" points="123.11,546.91 123.11,546.91 123.11,546.91 "/>
<polygon class="st1" points="177.54,546.91 177.54,546.91 177.54,546.91 "/>
<polygon class="st1" points="231.98,641.57 231.98,641.57 231.98,641.57 "/>
<polygon class="st1" points="68.68,641.57 68.68,641.57 68.68,641.57 "/>
<polygon class="st1" points="14.25,641.57 14.25,641.57 14.25,641.56 "/>
<polygon class="st1" points="177.54,641.57 177.54,641.57 177.54,641.57 "/>
<polygon class="st1" points="41.46,594.24 41.46,594.24 41.46,594.24 "/>
<polygon class="st1" points="204.76,310.28 204.76,310.28 204.76,310.28 "/>
<polygon class="st1" points="95.9,499.59 95.9,499.58 95.89,499.58 "/>
<polygon class="st1" points="123.11,452.26 123.12,452.25 123.11,452.25 "/>
<polygon class="st1" points="95.89,215.62 95.9,215.62 95.9,215.62 "/>
<polygon class="st1" points="41.46,215.62 41.46,215.62 41.46,215.61 "/>
<polygon class="st1" points="123.11,262.95 123.12,262.95 123.11,262.94 "/>
<polygon class="st1" points="177.54,262.95 177.54,262.95 177.54,262.95 "/>
<polygon class="st1" points="68.67,262.95 68.68,262.95 68.68,262.94 "/>
<polygon class="st1" points="14.24,168.29 14.25,168.29 14.24,168.29 "/>
<polygon class="st1" points="123.11,168.29 123.11,168.3 123.11,168.29 "/>
<polygon class="st1" points="68.68,168.29 68.68,168.29 68.68,168.29 "/>
<g>
	<path class="st1" d="M68.68,262.94l-23.73-41.26c2.84,13.49,4.82,27.1,5.95,41.27L68.68,262.94L68.68,262.94z"/>
</g>
<g>
	<linearGradient id="SVGID_1_" gradientUnits="userSpaceOnUse" x1="50.9049" y1="277.3676" x2="68.6725" y2="277.3676">
		<stop  offset="0" style="stop-color:#0E5969"/>
		<stop  offset="7.460415e-003" style="stop-color:#0E5A69"/>
		<stop  offset="0.2704" style="stop-color:#127866"/>
		<stop  offset="0.5278" style="stop-color:#158E64"/>
		<stop  offset="0.7747" style="stop-color:#169C62"/>
		<stop  offset="1" style="stop-color:#17A062"/>
	</linearGradient>
	<path class="st2" d="M52.09,291.78l16.58-28.83H50.9C51.65,272.27,52.03,281.86,52.09,291.78z"/>
</g>
<g>
	<path class="st3" d="M51.06,326.97c-0.09,1.48-0.17,2.95-0.27,4.45c-0.57,8.47-1.33,17.23-2.23,26.19h20.12L51.06,326.97z"/>
</g>
<g>
	<path class="st4" d="M68.67,357.6H48.55c-1.45,14.4-3.29,29.31-5.4,44.39L68.67,357.6L68.67,357.6z"/>
</g>
<g>
	<linearGradient id="SVGID_2_" gradientUnits="userSpaceOnUse" x1="35.3192" y1="429.4871" x2="68.6725" y2="429.4871">
		<stop  offset="0" style="stop-color:#83C672"/>
		<stop  offset="0.0499" style="stop-color:#8AC86F"/>
		<stop  offset="0.3016" style="stop-color:#A8D263"/>
		<stop  offset="0.5479" style="stop-color:#BED85B"/>
		<stop  offset="0.7844" style="stop-color:#CCDD56"/>
		<stop  offset="1" style="stop-color:#D0DE54"/>
	</linearGradient>
	<path class="st5" d="M68.67,452.25l-26.19-45.54c-2.17,15.17-4.6,30.47-7.17,45.54H68.67z"/>
</g>
<g>
	<path class="st1" d="M41.45,499.58l27.22-47.33H35.32c-1.61,9.46-3.28,18.83-4.97,28.02L41.45,499.58z"/>
</g>
<g>
	<path class="st6" d="M41.45,499.58l-11.1-19.31c-1.2,6.54-2.41,12.98-3.63,19.31H41.45z"/>
</g>
<g>
	<path class="st3" d="M41.46,594.24L16.4,550.65c-3.62,17.1-6.93,31.97-9.59,43.59H41.46z"/>
</g>
<g>
	<path class="st7" d="M41.46,594.24H6.81c-2.75,12.07-4.79,20.61-5.72,24.44l1.43,2.49c6.55,1.64,13.44,3.27,20.66,4.84
		L41.46,594.24z"/>
</g>
<polygon class="st1" points="2.77,499.58 2.78,499.58 2.77,499.58 "/>
<polygon class="st1" points="57.21,499.58 57.21,499.58 57.21,499.58 "/>
<polygon class="st1" points="2.77,594.24 2.77,594.24 2.77,594.24 "/>
<polygon class="st1" points="57.21,594.24 57.21,594.24 57.21,594.24 "/>
<polygon class="st1" points="84.42,641.57 84.43,641.57 84.42,641.56 "/>
<polygon class="st1" points="84.43,546.91 84.43,546.91 84.43,546.91 "/>
<polygon class="st1" points="29.99,546.91 29.99,546.91 29.99,546.91 "/>
<polygon class="st1" points="29.99,641.57 30,641.57 29.99,641.57 "/>
<polygon class="st1" points="2.77,310.28 2.77,310.28 2.77,310.28 "/>
<polygon class="st1" points="-187.74,168.29 -187.74,168.29 -187.74,168.29 "/>
<polygon class="st1" points="-78.88,168.29 -78.88,168.3 -78.87,168.29 "/>
<polygon class="st1" points="-133.31,168.29 -133.31,168.29 -133.31,168.29 "/>
<g>
	<path class="st8" d="M1.09,618.68c-0.24,0.99-0.41,1.67-0.49,2.01c0.63,0.16,1.28,0.32,1.92,0.48L1.09,618.68z"/>
</g>
<path class="st0" d="M98.67,1.45c1.6,14.45,6.57,41.47,24.8,69.35c14.38,22.01,31.28,35.76,42.4,43.44
	c11.12-7.34,27.93-20.47,42.4-41.7C227.72,44,232.69,15.88,234.22,1.45"/>
<path class="st0" d="M72.2,8.96c-0.17,8.95-0.45,25.06-0.65,45.34c-0.34,36.5-0.09,54.28-6.06,78.18
	c-5.05,20.23-11.57,32.87-23.36,39.09c-4,2.11-7.74,3.03-10.38,3.47"/>
<path class="st0" d="M262.78,9.13c-0.25,7.48-2.8,92.53,8.76,131.73c2.66,9.02,8.04,27.27,22.39,32.46
	c3.28,1.18,6.21,1.39,8.06,1.41"/>
<path class="st0" d="M107.61,14.02c8.95,5.27,30.13,16.11,59.12,15.96c28.27-0.15,48.92-10.69,57.87-15.96"/>
<path class="st0" d="M109.45,22c10.2,5.01,29.77,12.96,55.56,13.19c27.06,0.24,47.57-8.13,57.87-13.19"/>
<g>
	<rect x="109.19" y="214.75" class="st9" width="32.02" height="12.16"/>
	<rect x="193.99" y="214.75" class="st9" width="32.02" height="12.16"/>
	<rect x="194.07" y="322.38" class="st9" width="32.02" height="12.16"/>
	<rect x="109.28" y="322.38" class="st9" width="32.02" height="12.16"/>
	<rect x="109.28" y="310.22" class="st9" width="32.02" height="12.16"/>
	<rect x="193.99" y="310.22" class="st9" width="32.02" height="12.16"/>
</g>
<path class="Colour2 fill" d="M301.99,174.72c-0.02,0.05-7.1,19.03-10.66,31.6c-18.44,65.18-12.74,120.54,2.6,211.1
	c10.91,64.39,24.26,132.3,40.67,203.28c-11.54,2.93-24.11,5.8-37.64,8.42c0,0-17.59-68.23-26.82-116.68
	c-10.71-56.15-20.2-105.94-21.63-163.97c-1.12-45.65,2.31-113.81,26.31-196.53l0.17-0.72c3.41,8.7,9.05,18.51,18.95,22.09
	c3.1,1.12,5.9,1.37,7.76,1.4L301.99,174.72z M31.47,175.05c2.72,7.36,5.91,16.78,8.93,27.8c10.91,39.79,13.75,78.93,10.38,128.57
	C43.02,446.06,2.42,613.27,0.6,620.69c10.99,2.79,22.95,5.53,35.83,8.07c0,0,19.59-80.04,29.5-135.87
	c5.09-28.66,13.05-73.47,16.44-114.38c4.22-50.85,4.16-129.04-21.97-228.53l-0.18-0.72c-4.36,10.72-9.97,18.03-18.08,22.32
	c-4,2.11-7.74,3.03-10.38,3.47L31.47,175.05z"/>
<g>
	<path class="st10" d="M312.87,625.83c-0.65,0.14-1.3,0.28-1.95,0.43"/>
	<path class="st10" d="M34.61,183.93c-0.33-0.96-0.65-1.9-0.97-2.82"/>
	<path class="st10" d="M52.12,295.98c0.01-4.23-0.03-8.39-0.14-12.49"/>
	<path class="st10" d="M308.2,626.83c-0.64,0.14-1.28,0.27-1.93,0.41"/>
	<path class="st10" d="M303.39,627.83c-0.62,0.13-1.23,0.25-1.85,0.38"/>
	<path class="st10" d="M51.69,275.37c-0.12-2.68-0.28-5.35-0.45-7.99"/>
	<path class="st10" d="M321.85,623.8c-0.61,0.14-1.23,0.29-1.85,0.43"/>
	<path class="st10" d="M51.98,283.5c-0.07-2.73-0.17-5.44-0.29-8.13"/>
	<path class="st10" d="M33.46,180.59c0.06,0.18,0.12,0.35,0.18,0.53"/>
	<path class="st10" d="M317.41,624.82c-0.64,0.14-1.28,0.29-1.93,0.43"/>
	<path class="st10" d="M36.86,190.82c0.08,0.25,0.16,0.5,0.23,0.75"/>
	<path class="st10" d="M308.2,626.83c0.91-0.19,1.81-0.39,2.71-0.58"/>
	<path class="st10" d="M39.15,198.4c0.08,0.27,0.16,0.54,0.23,0.81"/>
	<path class="st10" d="M303.39,627.83c0.96-0.2,1.92-0.39,2.88-0.59"/>
	<path class="st10" d="M36.86,190.82c-0.33-1.06-0.67-2.1-1-3.12"/>
	<path class="st10" d="M326.18,622.77c-0.56,0.14-1.14,0.27-1.7,0.41"/>
	<path class="st10" d="M312.87,625.83c0.88-0.19,1.75-0.38,2.61-0.58"/>
	<path class="st10" d="M296.96,629.12c0.45-0.09,0.89-0.18,1.34-0.26"/>
	<path class="st10" d="M50.62,259.52c0.23,2.6,0.44,5.22,0.62,7.86"/>
	<path class="st10" d="M35.71,187.23c-0.3-0.91-0.59-1.8-0.89-2.67"/>
	<path class="st10" d="M298.3,628.85c1.09-0.21,2.17-0.43,3.25-0.64"/>
	<path class="st10" d="M17.72,544.36c0.34-1.61,0.68-3.25,1.02-4.9"/>
	<path class="st10" d="M40.84,417.95c0.3-1.99,0.6-3.99,0.89-5.98"/>
	<path class="st10" d="M14.75,558.4c0.32-1.5,0.65-3.02,0.98-4.57"/>
	<path class="st10" d="M38.04,194.66c0.03,0.1,0.06,0.2,0.09,0.3"/>
	<path class="st10" d="M41.73,411.97c0.29-1.99,0.58-3.98,0.86-5.97"/>
	<path class="st10" d="M42.59,406c0.71-4.97,1.39-9.93,2.04-14.85"/>
	<path class="st10" d="M15.72,553.83c0.33-1.54,0.66-3.1,0.99-4.68"/>
	<path class="st10" d="M4.61,603.78c0.61-2.63,1.28-5.53,2-8.68"/>
	<path class="st10" d="M46.12,379.38c0.95-7.8,1.81-15.51,2.56-23.07"/>
	<path class="st10" d="M45.39,385.25c0.25-1.96,0.49-3.92,0.73-5.87"/>
	<path class="st10" d="M44.63,391.15c0.26-1.97,0.51-3.94,0.76-5.9"/>
	<path class="st10" d="M33.53,462.59c0.34-1.96,0.69-3.92,1.03-5.89"/>
	<path class="st10" d="M34.56,456.7c0.51-2.95,1.01-5.92,1.51-8.89"/>
	<path class="st10" d="M298.14,441.73c2.16,12.24,4.41,24.6,6.75,37.07"/>
	<path class="st10" d="M22.93,518.92c0.35-1.77,0.71-3.55,1.06-5.35"/>
	<path class="st10" d="M36.07,447.81c0.33-1.98,0.66-3.96,0.99-5.95"/>
	<path class="st10" d="M330.44,621.74c-0.46,0.11-0.92,0.23-1.38,0.34"/>
	<path class="st10" d="M291.34,206.32c0.13-0.45,0.26-0.9,0.39-1.34"/>
	<path class="st10" d="M25.6,505.41c0.36-1.83,0.71-3.68,1.07-5.53"/>
	<path class="st10" d="M39.46,426.93c0.47-2.99,0.93-5.98,1.38-8.97"/>
	<path class="st10" d="M37.06,441.86c0.33-1.99,0.65-3.98,0.97-5.97"/>
	<path class="st10" d="M24.31,626.26c0.85,0.18,1.69,0.37,2.55,0.55"/>
	<path class="st10" d="M33.72,628.22c-0.73-0.15-1.47-0.29-2.19-0.44"/>
	<path class="st10" d="M317.41,624.82c0.87-0.2,1.73-0.39,2.59-0.59"/>
	<path class="st10" d="M50.62,259.52c-1.76-19.51-5.1-38.02-10.21-56.68c-0.34-1.24-0.68-2.44-1.02-3.64"/>
	<path class="st10" d="M29.04,627.26c-0.73-0.15-1.47-0.3-2.19-0.46"/>
	<path class="st10" d="M19.65,625.23c0.87,0.19,1.73,0.39,2.61,0.58"/>
	<path class="st10" d="M31.54,175.23c-0.84-2.29-1.65-4.38-2.38-6.27c1.64,0.07,4.12-0.01,6.92-0.87
		c22.03-6.76,26.74-50.8,28.55-67.76c0.79-7.35,0.82-29.03,0.87-72.1c0.01-7.33,0-13.37,0-17.37C78.77,7.1,92.03,3.33,105.3-0.43
		c2.1,17.98,9.02,53.37,36.34,84.26c8.08,9.14,16.48,16.23,24.23,21.72c7.76-5.52,16.14-12.62,24.23-21.72
		c27.38-30.79,34.82-65.93,37.21-84.26c13.84,3.76,27.69,7.53,41.53,11.29c-0.2,6.16-2.97,100.85,9.52,132.91
		c2.79,7.17,9.01,23.15,20.77,25.19c2.22,0.39,4.1,0.18,5.19,0c-0.73,1.77-1.52,3.72-2.35,5.82"/>
	<path class="st10" d="M296.96,629.12c-35.1,6.82-76.63,12.01-123.3,12.43c-52.58,0.47-98.93-5.24-137.23-12.78"/>
	<path class="st10" d="M36.43,628.76c-0.04-0.01-0.08-0.02-0.12-0.02"/>
	<path class="st10" d="M1.7,620.97c1.01,0.25,2.02,0.51,3.04,0.76"/>
	<path class="st10" d="M52.12,295.98c0,0.01,0,0.02,0,0.03"/>
	<path class="st10" d="M10.99,623.24c-0.67-0.16-1.34-0.31-2-0.47"/>
	<path class="st10" d="M6.8,622.23c-0.68-0.17-1.38-0.33-2.05-0.5"/>
	<path class="st10" d="M6.8,622.23c0.73,0.18,1.45,0.36,2.19,0.53"/>
	<path class="st10" d="M4.61,603.78c-2.24,9.64-3.7,15.64-4.01,16.91c0.36,0.09,0.74,0.18,1.1,0.28"/>
	<path class="st10" d="M10.99,623.24c0.78,0.18,1.55,0.37,2.34,0.55"/>
	<path class="st10" d="M15.25,624.24c-0.64-0.15-1.29-0.29-1.92-0.44"/>
	<path class="st10" d="M19.65,625.23c-0.63-0.14-1.27-0.28-1.9-0.42"/>
	<path class="st10" d="M52.12,296.02c-0.04,11.26-0.49,23-1.33,35.4c-0.55,8.06-1.25,16.38-2.1,24.89"/>
	<path class="st10" d="M24.31,626.26c-0.68-0.15-1.37-0.29-2.04-0.44"/>
	<path class="st10" d="M15.25,624.24c0.83,0.19,1.66,0.38,2.5,0.58"/>
	<path class="st10" d="M32.45,177.74c0.06,0.16,0.12,0.33,0.18,0.49"/>
	<path class="st10" d="M38.04,194.66c-0.32-1.05-0.63-2.07-0.95-3.08"/>
	<path class="st10" d="M330.44,621.74c1.4-0.35,2.79-0.69,4.16-1.04"/>
	<path class="st10" d="M301.97,174.78c-3.12,7.94-6.78,18.16-10.24,30.19"/>
	<path class="st10" d="M35.71,187.23c0.05,0.16,0.1,0.31,0.15,0.47"/>
	<path class="st10" d="M31.54,175.23c0.3,0.81,0.6,1.65,0.91,2.51"/>
	<path class="st10" d="M321.85,623.8c0.88-0.21,1.76-0.41,2.64-0.62"/>
	<path class="st10" d="M326.18,622.77c0.96-0.23,1.92-0.46,2.87-0.7"/>
	<path class="st10" d="M34.61,183.93c0.07,0.21,0.14,0.42,0.21,0.63"/>
	<path class="st10" d="M39.15,198.4c-0.34-1.17-0.68-2.32-1.01-3.44"/>
	<path class="st10" d="M289.88,392.84c1.26,7.91,2.61,16.09,4.05,24.58c0.68,4.02,1.37,8.06,2.07,12.11"/>
	<path class="st10" d="M33.72,628.22c0.86,0.17,1.72,0.35,2.59,0.52"/>
	<path class="st10" d="M33.46,180.59c-0.28-0.8-0.56-1.59-0.83-2.36"/>
	<path class="st10" d="M289.88,392.84c-0.84-5.27-1.63-10.42-2.38-15.46"/>
	<path class="st10" d="M288.16,218.44c-0.97,4.01-1.84,7.99-2.63,11.95"/>
	<path class="st10" d="M29.04,627.26c0.83,0.17,1.65,0.35,2.49,0.52"/>
	<path class="st10" d="M51.69,275.37c0.12,2.68,0.22,5.39,0.29,8.13"/>
	<path class="st10" d="M48.69,356.3c-0.75,7.56-1.61,15.27-2.56,23.07"/>
	<path class="st10" d="M51.98,283.5c0.1,4.1,0.15,8.26,0.14,12.49"/>
	<path class="st10" d="M51.24,267.39c0.18,2.64,0.33,5.3,0.45,7.99"/>
	<path class="st10" d="M50.62,259.52c0.23,2.6,0.44,5.22,0.62,7.86"/>
	<path class="st10" d="M52.12,296.02c-0.04,11.26-0.49,23-1.33,35.4c-0.55,8.06-1.25,16.38-2.1,24.89"/>
	<path class="st10" d="M37.1,191.58c0.31,1.01,0.63,2.03,0.95,3.08"/>
	<path class="st10" d="M31.53,627.78c0.72,0.15,1.46,0.29,2.19,0.44"/>
	<path class="st10" d="M26.85,626.81c0.72,0.15,1.46,0.3,2.19,0.46"/>
	<path class="st10" d="M32.63,178.23c0.27,0.77,0.55,1.55,0.83,2.36"/>
	<path class="st10" d="M52.12,296.02c0-0.01,0-0.02,0-0.03"/>
	<path class="st10" d="M31.54,175.23c0.3,0.81,0.6,1.65,0.91,2.51"/>
	<path class="st10" d="M32.63,178.23c-0.06-0.16-0.12-0.33-0.18-0.49"/>
	<path class="st10" d="M4.75,621.73c0.68,0.17,1.37,0.33,2.05,0.5"/>
	<path class="st10" d="M8.99,622.77c0.66,0.16,1.33,0.32,2,0.47"/>
	<path class="st10" d="M17.75,624.81c0.63,0.14,1.27,0.28,1.9,0.42"/>
	<path class="st10" d="M13.32,623.79c0.63,0.15,1.28,0.29,1.92,0.44"/>
	<path class="st10" d="M22.26,625.82c0.68,0.15,1.36,0.29,2.04,0.44"/>
	<path class="st10" d="M33.65,181.11c0.32,0.92,0.64,1.86,0.97,2.82"/>
	<path class="st10" d="M36.07,447.81c-0.5,2.97-1,5.93-1.51,8.89"/>
	<path class="st10" d="M35.87,187.7c0.33,1.02,0.66,2.06,1,3.12"/>
	<path class="st10" d="M33.53,462.59c0.34-1.96,0.69-3.92,1.03-5.89"/>
	<path class="st10" d="M46.12,379.38c-0.24,1.95-0.48,3.91-0.73,5.87"/>
	<path class="st10" d="M34.83,184.56c0.29,0.87,0.59,1.76,0.89,2.67"/>
	<path class="st10" d="M38.14,194.96c0.34,1.13,0.68,2.28,1.01,3.44"/>
	<path class="st10" d="M37.06,441.86c-0.33,1.99-0.66,3.97-0.99,5.95"/>
	<path class="st10" d="M38.04,435.89c-0.32,1.99-0.65,3.98-0.97,5.97"/>
	<path class="st10" d="M33.46,180.59c0.06,0.18,0.12,0.35,0.18,0.53"/>
	<path class="st10" d="M315.48,625.25c0.65-0.14,1.29-0.29,1.93-0.43"/>
	<path class="st10" d="M329.05,622.07c0.46-0.11,0.93-0.22,1.38-0.34"/>
	<path class="st10" d="M320,624.23c0.62-0.14,1.24-0.28,1.85-0.43"/>
	<path class="st10" d="M324.48,623.18c0.57-0.14,1.14-0.27,1.7-0.41"/>
	<path class="st10" d="M304.89,478.8c-2.34-12.48-4.59-24.84-6.75-37.07"/>
	<path class="st10" d="M291.72,204.98c-0.13,0.45-0.26,0.9-0.39,1.34"/>
	<path class="st10" d="M301.97,174.78c-0.44,1.18-6.71,18.08-10.24,30.19"/>
	<path class="st10" d="M306.27,627.24c0.65-0.14,1.29-0.27,1.93-0.41"/>
	<path class="st10" d="M296.96,629.12L296.96,629.12c0.45-0.09,0.89-0.18,1.34-0.26"/>
	<path class="st10" d="M301.55,628.21c-1.07,0.22-2.16,0.43-3.25,0.64"/>
	<path class="st10" d="M306.27,627.24c-0.95,0.2-1.91,0.4-2.88,0.59"/>
	<path class="st10" d="M288.16,218.44c-0.97,4.01-1.84,7.99-2.63,11.95"/>
	<path class="st10" d="M310.91,626.26c0.65-0.14,1.3-0.28,1.95-0.43"/>
	<path class="st10" d="M301.55,628.21c0.62-0.12,1.23-0.25,1.85-0.38"/>
	<path class="st10" d="M36.31,628.74c-0.87-0.17-1.73-0.35-2.59-0.52"/>
	<path class="st10" d="M17.75,624.81c-0.84-0.19-1.67-0.38-2.5-0.58"/>
	<path class="st10" d="M22.26,625.82c-0.88-0.19-1.74-0.39-2.61-0.58"/>
	<path class="st10" d="M13.32,623.79c-0.79-0.18-1.56-0.37-2.34-0.55"/>
	<path class="st10" d="M26.85,626.81c-0.86-0.18-1.7-0.37-2.55-0.55"/>
	<path class="st10" d="M289.88,392.84c-0.84-5.27-1.63-10.42-2.38-15.46"/>
	<path class="st10" d="M4.75,621.73c-1.03-0.25-2.03-0.51-3.04-0.76"/>
	<path class="st10" d="M8.99,622.77c-0.74-0.18-1.46-0.36-2.19-0.53"/>
	<path class="st10" d="M4.61,603.78c-2.24,9.64-3.7,15.64-4.01,16.91c0.36,0.09,0.74,0.18,1.1,0.28"/>
	<path class="st10" d="M301.97,174.78c0.02-0.04,0.02-0.07,0.03-0.07l-0.3,0c-1.86-0.03-4.66-0.28-7.76-1.4
		c-9.9-3.58-15.54-13.39-18.95-22.09l-0.17,0.72c-24,82.72-27.43,150.88-26.31,196.53c1.43,58.03,10.92,107.82,21.63,163.97
		c9.23,48.42,26.81,116.62,26.82,116.68"/>
	<path class="st10" d="M31.53,627.78c-0.84-0.17-1.66-0.35-2.49-0.52"/>
	<path class="st10" d="M31.54,175.23c-0.02-0.06-0.05-0.13-0.07-0.18l0.28,0c2.64-0.44,6.39-1.36,10.38-3.47
		c8.11-4.28,13.72-11.59,18.08-22.32l0.18,0.72c26.13,99.49,26.19,177.68,21.97,228.53c-3.4,40.92-11.35,85.72-16.44,114.38
		c-9.91,55.81-29.49,135.83-29.5,135.86"/>
	<path class="st10" d="M289.88,392.84c1.26,7.91,2.61,16.09,4.05,24.58c0.68,4.02,1.37,8.06,2.07,12.11"/>
	<path class="st10" d="M36.43,628.76L36.43,628.76c-0.04-0.01-0.08-0.02-0.12-0.02"/>
	<path class="st10" d="M310.91,626.26c-0.9,0.19-1.8,0.39-2.71,0.58"/>
	<path class="st10" d="M324.48,623.18c-0.87,0.21-1.75,0.42-2.64,0.62"/>
	<path class="st10" d="M315.48,625.25c-0.87,0.19-1.74,0.39-2.61,0.58"/>
	<path class="st10" d="M16.72,549.15c-0.33,1.58-0.66,3.14-0.99,4.68"/>
	<path class="st10" d="M37.1,191.58c-0.08-0.25-0.16-0.5-0.23-0.75"/>
	<path class="st10" d="M26.67,499.88c-0.36,1.85-0.71,3.7-1.07,5.53"/>
	<path class="st10" d="M38.14,194.96c-0.03-0.1-0.06-0.2-0.09-0.3"/>
	<path class="st10" d="M18.75,539.46c-0.34,1.65-0.68,3.28-1.02,4.9"/>
	<path class="st10" d="M24,513.57c-0.36,1.8-0.71,3.58-1.06,5.35"/>
	<path class="st10" d="M35.87,187.7c-0.05-0.16-0.1-0.31-0.15-0.47"/>
	<path class="st10" d="M42.59,406c-0.28,1.99-0.57,3.98-0.86,5.97"/>
	<path class="st10" d="M44.63,391.15c-0.65,4.93-1.33,9.88-2.04,14.85"/>
	<path class="st10" d="M41.73,411.97c-0.29,1.99-0.59,3.99-0.89,5.98"/>
	<path class="st10" d="M50.62,259.52c-1.76-19.51-5.1-38.02-10.21-56.68c-0.34-1.24-0.68-2.44-1.02-3.64"/>
	<path class="st10" d="M40.84,417.95c-0.45,2.99-0.91,5.98-1.38,8.97"/>
	<path class="st10" d="M39.38,199.21c-0.08-0.27-0.16-0.54-0.23-0.81"/>
	<path class="st10" d="M34.83,184.56c-0.07-0.21-0.14-0.42-0.21-0.63"/>
	<path class="st10" d="M329.05,622.07c-0.95,0.23-1.9,0.47-2.87,0.7"/>
	<path class="st10" d="M45.39,385.25c-0.25,1.96-0.5,3.93-0.76,5.9"/>
	<path class="st10" d="M320,624.23c-0.86,0.2-1.72,0.4-2.59,0.59"/>
	<path class="st10" d="M334.6,620.69c-1.37,0.35-2.76,0.7-4.16,1.04"/>
	<path class="st10" d="M15.72,553.83c-0.33,1.54-0.65,3.06-0.98,4.57"/>
	<path class="st10" d="M4.61,603.78c0.61-2.63,1.28-5.53,2-8.68"/>
	<path class="st10" d="M296.01,429.53c0.7,4.05,1.41,8.12,2.13,12.2"/>
	<path class="st10" d="M285.52,230.39c-9.08,45.59-6.62,89.01,1.98,146.98"/>
	<path class="st10" d="M288.16,218.44c0.97-4.01,2.03-8.04,3.18-12.12"/>
	<path class="st10" d="M33.53,462.59c-2.23,12.73-4.55,25.24-6.87,37.29"/>
	<path class="st10" d="M18.75,539.46c1.37-6.6,2.77-13.46,4.19-20.54"/>
	<path class="st10" d="M16.72,549.15c0.33-1.58,0.67-3.18,1.01-4.79"/>
	<path class="st10" d="M38.04,435.89c0.48-2.99,0.96-5.98,1.42-8.97"/>
	<path class="st10" d="M334.6,620.69c-11.28-48.8-21.12-96.14-29.71-141.89"/>
	<path class="st10" d="M6.61,595.1c2.28-9.97,5.07-22.44,8.13-36.71"/>
	<path class="st10" d="M24,513.57c0.53-2.69,1.07-5.42,1.6-8.17"/>
</g>
<path class="NeckAndArmTrim fill" d="M234.22,1.45c-1.53,14.43-6.5,42.55-25.95,71.09c-14.47,21.23-31.28,34.36-42.4,41.7
	c-11.12-7.68-28.01-21.43-42.4-43.44c-18.23-27.88-23.2-54.9-24.8-69.35l6.63-1.88c2.1,17.98,9.02,53.37,36.34,84.26
	c8.08,9.14,16.48,16.23,24.23,21.72c7.76-5.52,16.14-12.62,24.23-21.72c27.38-30.79,34.82-65.93,37.21-84.26L234.22,1.45z
	 M31.75,175.05c2.64-0.44,6.39-1.36,10.38-3.47c11.79-6.23,18.31-18.86,23.36-39.09c5.97-23.9,5.71-41.68,6.06-78.18
	c0.19-20.28,0.47-36.38,0.65-45.34l-6.7,1.9c0,4,0.01,10.04,0,17.37c-0.04,43.07-0.08,64.76-0.87,72.1
	c-1.81,16.96-6.52,61-28.55,67.76c-2.8,0.86-5.28,0.93-6.92,0.87L31.75,175.05z M304.32,168.97c-1.09,0.18-2.97,0.39-5.19,0
	c-11.75-2.05-17.97-18.02-20.77-25.19c-12.49-32.06-9.72-126.75-9.52-132.91l-6.06-1.74c-0.25,7.48-2.8,92.53,8.76,131.73
	c2.66,9.02,8.04,27.27,22.39,32.46c3.28,1.18,6.21,1.39,8.06,1.41L304.32,168.97z M109.45,22c10.2,5.01,29.77,12.96,55.56,13.19
	c27.06,0.24,47.57-8.13,57.87-13.19l1.74-7.98c-8.95,5.27-29.6,15.8-57.87,15.96c-28.99,0.16-50.17-10.69-59.12-15.96L109.45,22z"/>
<g id="FBodyLogos"></g>
</svg>
