<?xml version="1.0" encoding="utf-8"?>
<!-- Generator: Adobe Illustrator 19.1.0, SVG Export Plug-In . SVG Version: 6.00 Build 0)  -->
<svg version="1.1" id="Layer_1" xmlns="http://www.w3.org/2000/svg" xmlns:xlink="http://www.w3.org/1999/xlink" x="0px" y="0px"
	 viewBox="0 0 335.2 641.14" style="enable-background:new 0 0 335.2 641.14;" xml:space="preserve">
<style type="text/css">
	<![CDATA[
	@font-face{font-family:'codaheavy';src:url('/fonts/coda-heavy-webfont.woff') format('woff')}
	text{font-family:Impact,codaheavy,sans-serif}
	.Colour1.fill{fill:#214083;}
	.Colour2.fill{fill:#151219;}
	.Colour3.fill{fill:#FFF100;}
	.Colour4.fill{fill:#E0F2F9;}
	.Colour5.fill{fill:#151219;}
	.NeckAndArmTrim.fill{fill:#151219;stroke:#151219;stroke-miterlimit:10;}
	.SidePanels.fill{fill:#373435;stroke:#000000;stroke-miterlimit:10;}
	.st0{fill:none;stroke:#000000;stroke-miterlimit:10;}
	.st1{fill:none;stroke:#000000;stroke-linecap:round;stroke-linejoin:round;}
	.st2{fill:url(#SVGID_1_);}
	.st3{fill:url(#SVGID_2_);}
	.st4{fill:none;stroke:#D0D2D3;stroke-dasharray:5,2.4;}
	.st5{fill:#FFFFFF;stroke:#000000;}
	]]>
</style>
<path class="Colour1 fill" d="M227.31-0.43c13.84,3.76,27.69,7.53,41.53,11.29c-0.2,6.16-2.97,100.85,9.52,132.91
	c2.79,7.17,9.01,23.15,20.77,25.19c2.22,0.39,4.1,0.18,5.19,0c-3.61,8.71-8.5,21.51-12.98,37.35
	c-18.44,65.18-12.74,120.54,2.6,211.1c10.91,64.39,24.26,132.3,40.67,203.28c-41.5,10.53-96.29,20.27-160.94,20.85
	c-70.25,0.63-129.39-9.77-173.06-20.85c1.82-7.43,42.42-174.64,50.19-289.28c3.36-49.63,0.53-88.77-10.38-128.57
	c-3.93-14.34-8.14-25.96-11.25-33.88c1.64,0.07,4.12-0.01,6.92-0.87c22.03-6.76,26.74-50.8,28.55-67.76
	c0.79-7.35,0.82-29.03,0.87-72.1c0.01-7.33,0-13.37,0-17.37C78.77,7.1,92.03,3.33,105.3-0.43c2.1,17.98,9.02,53.37,36.34,84.26
	c8.08,9.14,16.48,16.23,24.23,21.72c7.76-5.52,16.14-12.62,24.23-21.72C217.47,53.05,224.91,17.9,227.31-0.43z"/>
<path class="st0" d="M98.67,1.45c1.6,14.45,6.57,41.47,24.8,69.35c14.38,22.01,31.28,35.76,42.4,43.44
	c11.12-7.34,27.93-20.47,42.4-41.7C227.72,44,232.69,15.88,234.22,1.45"/>
<path class="st0" d="M72.2,8.96c-0.17,8.95-0.45,25.06-0.65,45.34c-0.34,36.5-0.09,54.28-6.06,78.18
	c-5.05,20.23-11.57,32.87-23.36,39.09c-4,2.11-7.74,3.03-10.38,3.47"/>
<path class="st0" d="M262.78,9.13c-0.25,7.48-2.8,92.53,8.76,131.73c2.66,9.02,8.04,27.27,22.39,32.46
	c3.28,1.18,6.21,1.39,8.06,1.41"/>
<path class="st0" d="M107.61,14.02c8.95,5.27,30.13,16.11,59.12,15.96c28.27-0.15,48.92-10.69,57.87-15.96"/>
<path class="st0" d="M109.45,22c10.2,5.01,29.77,12.96,55.56,13.19c27.06,0.24,47.57-8.13,57.87-13.19"/>
<g>
	<path class="Colour2 fill" d="M227.31-0.43c-1.75,13.4-6.21,35.79-19.16,58.88c20.65,0.61,40.87,1.69,60.55,3.2
		c-0.59-25.93,0.06-47.92,0.15-50.79C254.99,7.1,241.15,3.33,227.31-0.43z"/>
	<path class="Colour2 fill" d="M65.44,61.73c18.99-1.47,38.49-2.54,58.4-3.18c-12.86-23.27-17-45.8-18.54-58.99
		C92.03,3.33,78.76,7.1,65.5,10.86c0,4,0.01,10.04,0,17.37C65.48,41.31,65.47,52.4,65.44,61.73z"/>
</g>
<path class="Colour4 fill" d="M65.44,61.73l50.47-19.92c0,0,5.28,12.07,7.93,16.75L65.44,61.73z"/>
<path class="Colour4 fill" d="M268.69,61.65l-52.61-19.84c0,0-5.28,12.07-7.93,16.75L268.69,61.65z"/>
<path class="SidePanels fill" d="M31.75,175.05c2.64-0.44,6.39-1.36,10.38-3.47c8.11-4.28,13.72-11.59,18.08-22.32l0.18,0.72
	c26.13,99.49,26.19,177.68,21.97,228.53c-3.4,40.92-11.35,85.72-16.44,114.38c-9.91,55.82-29.5,135.87-29.5,135.87
	c-12.88-2.54-24.84-5.28-35.83-8.07c1.82-7.43,42.42-174.64,50.19-289.28c3.36-49.63,0.53-88.77-10.38-128.57
	c-3.02-11.02-6.21-20.43-8.93-27.8L31.75,175.05z"/>
<path class="SidePanels fill" d="M301.69,174.71c-1.86-0.03-4.66-0.28-7.76-1.4c-9.9-3.58-15.54-13.39-18.95-22.09l-0.17,0.72
	c-24,82.72-27.43,150.88-26.31,196.53c1.43,58.03,10.92,107.82,21.63,163.97c9.24,48.44,26.82,116.68,26.82,116.68
	c13.53-2.63,26.1-5.5,37.64-8.42c-16.41-70.98-29.76-138.88-40.67-203.28c-15.34-90.56-21.04-145.91-2.6-211.1
	c3.56-12.57,10.64-31.55,10.66-31.6L301.69,174.71z"/>
<path class="st1" d="M0.68,620.69c1.37,0.35,2.75,0.69,4.15,1.04c0.6,0.15,1.22,0.3,1.83,0.45c0.8,0.2,1.6,0.39,2.42,0.59
	c0.63,0.15,1.28,0.3,1.92,0.46c0.8,0.19,1.6,0.38,2.41,0.57c0.65,0.15,1.31,0.3,1.96,0.45c0.82,0.19,1.63,0.38,2.46,0.57
	c0.64,0.14,1.29,0.29,1.94,0.43c0.86,0.19,1.71,0.38,2.57,0.57c0.68,0.15,1.36,0.29,2.04,0.44c0.85,0.18,1.69,0.37,2.55,0.55
	c0.72,0.15,1.46,0.3,2.19,0.46c0.83,0.17,1.65,0.35,2.49,0.52c0.72,0.15,1.45,0.29,2.17,0.44c0.87,0.17,1.73,0.35,2.6,0.52
	c0.04,0.01,0.08,0.02,0.12,0.02l0,0c38.3,7.55,84.65,13.25,137.23,12.78c46.67-0.42,88.2-5.61,123.3-12.43l0,0
	c0.45-0.09,0.89-0.18,1.33-0.26c1.09-0.21,2.17-0.43,3.25-0.64c0.62-0.12,1.23-0.25,1.85-0.38c0.96-0.2,1.92-0.39,2.88-0.59
	c0.65-0.14,1.29-0.27,1.93-0.41c0.91-0.19,1.81-0.39,2.71-0.58c0.65-0.14,1.3-0.28,1.95-0.43c0.88-0.19,1.75-0.38,2.61-0.58
	c0.65-0.14,1.29-0.29,1.93-0.43c0.87-0.2,1.73-0.39,2.59-0.59c0.62-0.14,1.24-0.28,1.85-0.43c0.88-0.21,1.76-0.41,2.64-0.62
	c0.57-0.14,1.14-0.27,1.7-0.41c0.96-0.23,1.92-0.46,2.87-0.7c0.46-0.11,0.93-0.22,1.38-0.34c1.4-0.35,2.79-0.69,4.16-1.04
	c-11.28-48.8-21.12-96.14-29.71-141.89c-2.34-12.48-4.59-24.84-6.75-37.07c-0.72-4.08-1.43-8.14-2.13-12.2s-1.39-8.09-2.07-12.11
	c-2.4-14.15-4.56-27.44-6.43-40.04c-8.61-57.97-11.06-101.39-1.98-146.98c0.79-3.96,1.67-7.95,2.63-11.95
	c0.97-4.01,2.03-8.04,3.18-12.12c0.13-0.45,0.26-0.9,0.39-1.34c3.53-12.11,9.81-29.01,10.24-30.19c0.83-2.1,1.61-4.05,2.35-5.82
	c-1.09,0.18-2.97,0.39-5.19,0c-11.75-2.05-17.97-18.02-20.77-25.19c-12.49-32.06-9.72-126.75-9.52-132.91
	c-13.84-3.76-27.69-7.53-41.53-11.29c-2.39,18.33-9.83,53.47-37.21,84.26c-8.08,9.09-16.47,16.19-24.23,21.72
	c-7.75-5.49-16.15-12.58-24.23-21.72c-27.32-30.9-34.24-66.28-36.34-84.26C92.12,3.33,78.85,7.1,65.58,10.86c0,4,0.01,10.04,0,17.37
	c-0.04,43.07-0.08,64.76-0.87,72.1c-1.81,16.96-6.52,61-28.55,67.76c-2.8,0.86-5.28,0.93-6.92,0.87c0.74,1.88,1.54,3.98,2.38,6.27
	c0.3,0.81,0.6,1.64,0.91,2.49c0.06,0.17,0.12,0.34,0.18,0.52c0.27,0.76,0.55,1.53,0.82,2.32c0.06,0.18,0.13,0.37,0.19,0.55
	c0.32,0.91,0.64,1.85,0.96,2.81c0.07,0.21,0.14,0.42,0.21,0.63c0.29,0.87,0.59,1.76,0.89,2.67c0.05,0.16,0.1,0.31,0.15,0.47
	c0.33,1.02,0.66,2.06,1,3.12c0.08,0.25,0.16,0.5,0.23,0.75c0.31,1,0.63,2.02,0.94,3.06c0.03,0.11,0.07,0.21,0.1,0.32
	c0.34,1.12,0.67,2.27,1.01,3.43c0.08,0.27,0.16,0.55,0.24,0.83c0.34,1.19,0.68,2.4,1.02,3.63c1.02,3.73,1.98,7.46,2.86,11.18
	s1.7,7.46,2.44,11.2c0.5,2.5,0.96,5,1.4,7.51c1.53,8.79,2.69,17.67,3.52,26.78c0.23,2.6,0.44,5.22,0.62,7.86
	c0.36,5.28,0.6,10.64,0.74,16.11c0.07,2.73,0.11,5.49,0.13,8.28c0.01,1.39,0.01,2.8,0.01,4.2c-0.01,4.23-0.09,8.52-0.22,12.89
	c-0.22,7.29-0.59,14.78-1.12,22.54C43.1,446.06,2.51,613.27,0.68,620.69z"/>
<path class="NeckAndArmTrim fill" d="M109.45,22c10.2,5.01,29.77,12.96,55.56,13.19c27.06,0.24,47.57-8.13,57.87-13.19l1.74-7.98
	c-8.95,5.27-29.6,15.8-57.87,15.96c-28.99,0.16-50.17-10.69-59.12-15.96L109.45,22z"/>
<path class="Colour3 fill" d="M270.98,149.26c0,0-63.38,81.07-25.92,216.26c0,0,41.18,176.33-3.93,271.69l-1.34,0.15l-1.37,0.51
	l-3.36,0.35l0.1-0.35c25.29-123.92,5.15-231.76-1.96-263.15c-3.54-15.64-6.31-31.44-7.93-47.4
	c-12.83-126.42,43.02-186.46,43.02-186.46l3.33-3.86l2.01,5.1l-3.12,5.66L270.98,149.26z M62.42,149.08
	c0,0,63.38,81.07,25.92,216.26c0,0-41.18,176.33,3.93,271.69l1.34,0.15l1.37,0.51l3.36,0.35l-0.1-0.35
	c-25.29-123.92-5.15-231.76,1.96-263.15c3.54-15.64,6.31-31.44,7.93-47.4c12.83-126.42-43.02-186.46-43.02-186.46l-3.33-3.86
	l-2.01,5.1l3.12,5.66L62.42,149.08z"/>
<linearGradient id="SVGID_1_" gradientUnits="userSpaceOnUse" x1="167.7516" y1="395.1623" x2="167.7516" y2="1049.6794">
	<stop  offset="0" style="stop-color:#45ADCD"/>
	<stop  offset="1" style="stop-color:#36489D"/>
</linearGradient>
<path class="Colour5 fill fill" d="M72.6,581.44l-71,35.1c0.56-2.33,1.32-5.54,2.26-9.53l67.57-33.4C71.79,576.23,72.18,578.85,72.6,581.44z
	 M265.5,519.71l52.59,25.74c-0.65-3.12-1.29-6.23-1.92-9.34l-50.7-24.81C265.5,514.09,265.51,516.9,265.5,519.71z M265.07,494.98
	c0.11,2.83,0.2,5.68,0.27,8.54l49.09,24.02c-0.63-3.11-1.28-6.24-1.89-9.33L265.07,494.98z M75.35,595.81
	c-0.55-2.53-1.08-5.08-1.56-7.65L5.94,622.02c3.72,0.91,7.54,1.82,11.47,2.71L75.35,595.81z M67.86,519.71
	c-0.01-2.81,0-5.62,0.02-8.41l-48.2,23.59c-0.65,3.18-1.3,6.3-1.94,9.35L67.86,519.71z M68.02,503.52c0.07-2.86,0.16-5.7,0.27-8.54
	l-44.98,22.01c-0.63,3.15-1.25,6.26-1.87,9.32L68.02,503.52z M262.81,566.73l66.98,32.78c-0.71-3.15-1.41-6.3-2.11-9.43
	l-64.03-31.34C263.4,561.41,263.12,564.07,262.81,566.73z M69.09,551.33c-0.2-2.71-0.39-5.42-0.54-8.14l-56.51,27.66
	c-0.72,3.27-1.41,6.41-2.08,9.42L69.09,551.33z M260.76,581.44l73.14,36.16c-0.73-3.17-1.43-6.32-2.15-9.48l-69.81-34.51
	C261.57,576.23,261.19,578.85,260.76,581.44z M328.02,622.32l-68.44-34.16c-0.48,2.57-1.01,5.12-1.56,7.65l58.5,29.2
	C320.45,624.13,324.29,623.23,328.02,622.32z M264.28,551.33l61.52,30.11c-0.69-3.14-1.38-6.29-2.06-9.41l-58.92-28.84
	C264.66,545.91,264.48,548.62,264.28,551.33z M265.15,535.65l56.73,27.76c-0.67-3.13-1.32-6.25-1.98-9.37l-54.51-26.68
	C265.34,530.13,265.26,532.89,265.15,535.65z M68.21,535.65c-0.1-2.76-0.19-5.52-0.24-8.28l-52.03,25.46
	c-0.68,3.21-1.35,6.34-2.01,9.39L68.21,535.65z M83.47,624.02c-0.87-2.36-1.7-4.76-2.48-7.19l-29.52,14.72
	c4.16,0.72,8.41,1.42,12.73,2.08L83.47,624.02z M77.11,603.35l-48.54,23.81c3.97,0.83,8.02,1.64,12.17,2.43l38.39-18.83
	C78.42,608.32,77.74,605.86,77.11,603.35z M256.26,603.35c-0.63,2.5-1.31,4.97-2.02,7.41l38.89,19.08c4.16-0.78,8.22-1.59,12.2-2.42
	L256.26,603.35z M70.55,566.73c-0.31-2.65-0.59-5.32-0.84-7.99L8.02,588.93c-0.77,3.38-1.49,6.55-2.16,9.46L70.55,566.73z
	 M252.38,616.83c-0.79,2.43-1.61,4.83-2.48,7.19l19.69,9.82c4.33-0.66,8.62-1.34,12.79-2.05L252.38,616.83z"/>
<path class="Colour2 fill" d="M94.99,637.68c-25.29-123.92-5.15-231.76,1.96-263.15c3.54-15.64,6.31-31.44,7.93-47.4
	c12.83-126.42-43.02-186.46-43.02-186.46l-2.7,8.41c0,0,63.38,81.07,25.92,216.26c0,0-41.18,176.33,3.93,271.69L94.99,637.68z"/>
<path class="Colour2 fill" d="M238.41,637.86c25.29-123.92,5.15-231.76-1.96-263.15c-3.54-15.64-6.31-31.44-7.93-47.4
	c-12.83-126.42,43.02-186.46,43.02-186.46l2.7,8.41c0,0-63.38,81.07-25.92,216.26c0,0,41.18,176.33-3.93,271.69L238.41,637.86z"/>
<linearGradient id="SVGID_2_" gradientUnits="userSpaceOnUse" x1="167.4691" y1="-406.0407" x2="167.4691" y2="5196.3203">
	<stop  offset="0" style="stop-color:#45ADCD"/>
	<stop  offset="1" style="stop-color:#36489D"/>
</linearGradient>
<path class="Colour5 fill fill" d="M148.35,100.21h-80.4v-6.82h73.47C143.76,95.83,146.08,98.11,148.35,100.21z M127.23,76.26h-58.4v6.82h63.57
	C130.66,80.92,128.93,78.64,127.23,76.26z M109.51,271.39H223.9c0.13-2.31,0.29-4.58,0.47-6.82H109.05
	C109.23,266.81,109.38,269.08,109.51,271.39z M269.5,110.5h-98.23c-1.91,1.38-3.73,2.63-5.4,3.74c-1.61-1.11-3.35-2.37-5.18-3.74
	H65.44v6.82H269.5V110.5z M266.99,93.38h-75.82c-2.41,2.46-4.8,4.72-7.14,6.82h82.95V93.38z M200.38,83.09h65.73v-6.82h-60.47
	C203.91,78.65,202.15,80.92,200.38,83.09z M83.33,168.68h166.83c1.26-2.44,2.49-4.71,3.69-6.82H79.65
	C80.85,163.97,82.08,166.24,83.33,168.68z M108.07,254.27h117.29c0.26-2.31,0.55-4.58,0.86-6.82h-119
	C107.52,249.69,107.81,251.96,108.07,254.27z M73.33,151.56h186.86c1.91-2.84,3.57-5.12,4.89-6.82H68.46
	C69.78,146.46,71.44,148.73,73.33,151.56z M62.52,127.62v6.82h209.89v-6.82H62.52z M91.15,185.8h151.17
	c0.96-2.37,1.93-4.64,2.9-6.82H88.25C89.22,181.16,90.19,183.43,91.15,185.8z M105.62,237.15h122.2c0.41-2.32,0.83-4.59,1.28-6.82
	H104.34C104.79,232.56,105.21,234.84,105.62,237.15z M97.31,202.92h138.84c0.74-2.34,1.5-4.62,2.28-6.82H95.03
	C95.81,198.3,96.57,200.58,97.31,202.92z M102.08,220.04h129.29c0.56-2.33,1.15-4.6,1.75-6.82H100.33
	C100.93,215.44,101.52,217.71,102.08,220.04z"/>
<path class="NeckAndArmTrim fill" d="M234.22,1.45c-1.53,14.43-6.5,42.55-25.95,71.09c-14.47,21.23-31.28,34.36-42.4,41.7
	c-11.12-7.68-28.01-21.43-42.4-43.44c-18.23-27.88-23.2-54.9-24.8-69.35l6.63-1.88c2.1,17.98,9.02,53.37,36.34,84.26
	c8.08,9.14,16.48,16.23,24.23,21.72c7.76-5.52,16.14-12.62,24.23-21.72c27.38-30.79,34.82-65.93,37.21-84.26L234.22,1.45z"/>
<path class="NeckAndArmTrim fill" d="M31.75,175.05c2.64-0.44,6.39-1.36,10.38-3.47c11.79-6.23,18.31-18.86,23.36-39.09
	c5.97-23.9,5.71-41.68,6.06-78.18c0.19-20.28,0.47-36.38,0.65-45.34l-6.7,1.9c0,4,0.01,10.04,0,17.37
	c-0.04,43.07-0.08,64.76-0.87,72.1c-1.81,16.96-6.52,61-28.55,67.76c-2.8,0.86-5.28,0.93-6.92,0.87L31.75,175.05z"/>
<path class="NeckAndArmTrim fill" d="M301.99,174.72c-1.85-0.01-4.78-0.22-8.06-1.41c-14.35-5.19-19.73-23.43-22.39-32.46
	c-11.56-39.2-9.01-124.25-8.76-131.73l6.06,1.74c-0.2,6.16-2.97,100.85,9.52,132.91c2.79,7.17,9.01,23.15,20.77,25.19
	c2.22,0.39,4.1,0.18,5.19,0L301.99,174.72z"/>
<g>
	<path class="st4" d="M5.26,601c39.59,11.08,94.58,22.1,160.61,22.3c67.76,0.2,124.06-11.06,164.24-22.3"/>
	<path class="st4" d="M3.86,606.99c39.57,11.03,93.75,21.83,158.54,22.39c69.77,0.6,127.76-10.88,169.05-22.39"/>
</g>
<g>
	<rect x="109.19" y="214.75" class="st5" width="32.02" height="12.16"/>
	<rect x="193.99" y="214.75" class="st5" width="32.02" height="12.16"/>
	<rect x="194.07" y="322.38" class="st5" width="32.02" height="12.16"/>
	<rect x="109.28" y="322.38" class="st5" width="32.02" height="12.16"/>
	<rect x="109.28" y="310.22" class="st5" width="32.02" height="12.16"/>
	<rect x="193.99" y="310.22" class="st5" width="32.02" height="12.16"/>
</g>
<g id="FBodyLogos"></g>
</svg>
