<?xml version="1.0" encoding="utf-8"?>
<!-- Generator: Adobe Illustrator 19.1.0, SVG Export Plug-In . SVG Version: 6.00 Build 0)  -->
<svg version="1.1" id="Layer_1" xmlns="http://www.w3.org/2000/svg" xmlns:xlink="http://www.w3.org/1999/xlink" x="0px" y="0px"
	 viewBox="0 0 335.2 641.14" style="enable-background:new 0 0 335.2 641.14;" xml:space="preserve">
<style type="text/css">
	<![CDATA[
	@font-face{font-family:'codaheavy';src:url('/fonts/coda-heavy-webfont.woff') format('woff')}
	text{font-family:Impact,codaheavy,sans-serif}
	.Colour1.fill{fill:#189DD6;}
	.Colour2.fill{fill:#3B4C9F;}
	.NeckAndArmTrim.fill{fill:#3B4C9F;stroke:#000000;stroke-miterlimit:10;}
	.SidePanels.fill{fill:#189DD6;stroke:#000000;stroke-miterlimit:10;}
	.st0{fill:none;stroke:#000000;stroke-miterlimit:10;}
	.st1{fill:none;stroke:#000000;stroke-linecap:round;stroke-linejoin:round;}
	.st2{fill:#FFFFFF;stroke:#000000;}
	]]>
</style>
<path class="Colour1 fill" d="M227.31-0.43c13.84,3.76,27.69,7.53,41.53,11.29c-0.2,6.16-2.97,100.85,9.52,132.91
	c2.79,7.17,9.01,23.15,20.77,25.19c2.22,0.39,4.1,0.18,5.19,0c-3.61,8.71-8.5,21.51-12.98,37.35
	c-18.44,65.18-12.74,120.54,2.6,211.1c10.91,64.39,24.26,132.3,40.67,203.28c-41.5,10.53-96.29,20.27-160.94,20.85
	c-70.25,0.63-129.39-9.77-173.06-20.85c1.82-7.43,42.42-174.64,50.19-289.28c3.36-49.63,0.53-88.77-10.38-128.57
	c-3.93-14.34-8.14-25.96-11.25-33.88c1.64,0.07,4.12-0.01,6.92-0.87c22.03-6.76,26.74-50.8,28.55-67.76
	c0.79-7.35,0.82-29.03,0.87-72.1c0.01-7.33,0-13.37,0-17.37C78.77,7.1,92.03,3.33,105.3-0.43c2.1,17.98,9.02,53.37,36.34,84.26
	c8.08,9.14,16.48,16.23,24.23,21.72c7.76-5.52,16.14-12.62,24.23-21.72C217.47,53.05,224.91,17.9,227.31-0.43z"/>
<path class="st0" d="M98.67,1.45c1.6,14.45,6.57,41.47,24.8,69.35c14.38,22.01,31.28,35.76,42.4,43.44
	c11.12-7.34,27.93-20.47,42.4-41.7C227.72,44,232.69,15.88,234.22,1.45"/>
<path class="st0" d="M72.2,8.96c-0.17,8.95-0.45,25.06-0.65,45.34c-0.34,36.5-0.09,54.28-6.06,78.18
	c-5.05,20.23-11.57,32.87-23.36,39.09c-4,2.11-7.74,3.03-10.38,3.47"/>
<path class="st0" d="M262.78,9.13c-0.25,7.48-2.8,92.53,8.76,131.73c2.66,9.02,8.04,27.27,22.39,32.46
	c3.28,1.18,6.21,1.39,8.06,1.41"/>
<path class="st0" d="M107.61,14.02c8.95,5.27,30.13,16.11,59.12,15.96c28.27-0.15,48.92-10.69,57.87-15.96"/>
<path class="st0" d="M109.45,22c10.2,5.01,29.77,12.96,55.56,13.19c27.06,0.24,47.57-8.13,57.87-13.19"/>
<path class="NeckAndArmTrim fill" d="M234.22,1.45c-1.53,14.43-6.5,42.55-25.95,71.09c-14.47,21.23-31.28,34.36-42.4,41.7
	c-11.12-7.68-28.01-21.43-42.4-43.44c-18.23-27.88-23.2-54.9-24.8-69.35l6.63-1.88c2.1,17.98,9.02,53.37,36.34,84.26
	c8.08,9.14,16.48,16.23,24.23,21.72c7.76-5.52,16.14-12.62,24.23-21.72c27.38-30.79,34.82-65.93,37.21-84.26L234.22,1.45z"/>
<path class="NeckAndArmTrim fill" d="M31.75,175.05c2.64-0.44,6.39-1.36,10.38-3.47c11.79-6.23,18.31-18.86,23.36-39.09
	c5.97-23.9,5.71-41.68,6.06-78.18c0.19-20.28,0.47-36.38,0.65-45.34l-6.7,1.9c0,4,0.01,10.04,0,17.37
	c-0.04,43.07-0.08,64.76-0.87,72.1c-1.81,16.96-6.52,61-28.55,67.76c-2.8,0.86-5.28,0.93-6.92,0.87L31.75,175.05z"/>
<path class="NeckAndArmTrim fill" d="M301.99,174.72c-1.85-0.01-4.78-0.22-8.06-1.41c-14.35-5.19-19.73-23.43-22.39-32.46
	c-11.56-39.2-9.01-124.25-8.76-131.73l6.06,1.74c-0.2,6.16-2.97,100.85,9.52,132.91c2.79,7.17,9.01,23.15,20.77,25.19
	c2.22,0.39,4.1,0.18,5.19,0L301.99,174.72z"/>
<path class="NeckAndArmTrim fill" d="M109.45,22c10.2,5.01,29.77,12.96,55.56,13.19c27.06,0.24,47.57-8.13,57.87-13.19l1.74-7.98
	c-8.95,5.27-29.6,15.8-57.87,15.96c-28.99,0.16-50.17-10.69-59.12-15.96L109.45,22z"/>
<g>
	<path class="st1" d="M317.4,624.82c-0.64,0.14-1.28,0.29-1.92,0.43"/>
	<path class="st1" d="M19.68,625.24c0.86,0.19,1.71,0.38,2.57,0.57"/>
	<path class="st1" d="M0.59,620.69c1.37,0.35,2.75,0.69,4.15,1.04"/>
	<path class="st1" d="M15.28,624.24c0.82,0.19,1.63,0.38,2.46,0.57"/>
	<path class="st1" d="M10.91,623.22c0.8,0.19,1.6,0.38,2.41,0.57"/>
	<path class="st1" d="M6.57,622.18c0.8,0.2,1.6,0.39,2.42,0.59"/>
	<path class="st1" d="M10.91,623.22c-0.64-0.15-1.29-0.3-1.92-0.46"/>
	<path class="st1" d="M24.3,626.26c-0.68-0.15-1.37-0.29-2.04-0.44"/>
	<path class="st1" d="M29.04,627.26c-0.73-0.15-1.47-0.3-2.19-0.46"/>
	<path class="st1" d="M19.68,625.24c-0.65-0.14-1.3-0.29-1.94-0.43"/>
	<path class="st1" d="M15.28,624.24c-0.65-0.15-1.31-0.3-1.96-0.45"/>
	<path class="st1" d="M321.84,623.8c-0.61,0.14-1.23,0.29-1.85,0.43"/>
	<path class="st1" d="M330.43,621.74c-0.46,0.11-0.92,0.23-1.38,0.34"/>
	<path class="st1" d="M312.2,516.59c2.53,12.71,5.16,25.54,7.89,38.48"/>
	<path class="st1" d="M320.09,555.06c1.82,8.63,3.68,17.3,5.59,26.03"/>
	<path class="st1" d="M326.18,622.77c-0.56,0.14-1.14,0.27-1.7,0.41"/>
	<path class="st1" d="M33.7,628.22c-0.72-0.15-1.45-0.29-2.17-0.44"/>
	<path class="st1" d="M293.92,417.42c2.04,12.07,4.18,24.27,6.4,36.59"/>
	<path class="st1" d="M302.57,466.36c2.28,12.4,4.65,24.91,7.12,37.55"/>
	<path class="st1" d="M33.7,628.22c0.87,0.17,1.73,0.35,2.6,0.52"/>
	<path class="st1" d="M291.33,206.32c0.13-0.45,0.26-0.9,0.39-1.34"/>
	<path class="st1" d="M29.04,627.26c0.83,0.17,1.65,0.35,2.49,0.52"/>
	<path class="st1" d="M6.57,622.18c-0.61-0.15-1.22-0.3-1.83-0.45"/>
	<path class="st1" d="M39.14,198.39c0.08,0.27,0.16,0.55,0.24,0.83"/>
	<path class="st1" d="M38.03,194.64c0.03,0.11,0.07,0.21,0.1,0.32"/>
	<path class="st1" d="M49.87,252.19c0.42,3.72,0.78,7.47,1.07,11.26"/>
	<path class="st1" d="M50.94,263.44c0.2,2.54,0.37,5.11,0.52,7.69"/>
	<path class="st1" d="M51.85,279.54c0-0.09-0.01-0.19-0.01-0.28"/>
	<path class="st1" d="M51.49,271.56c0.14,2.55,0.26,5.11,0.36,7.7"/>
	<path class="st1" d="M32.45,177.74c0.06,0.16,0.12,0.33,0.18,0.49"/>
	<path class="st1" d="M33.46,180.59c0.06,0.18,0.12,0.35,0.19,0.53"/>
	<path class="st1" d="M35.7,187.23c0.05,0.16,0.1,0.31,0.16,0.47"/>
	<path class="st1" d="M34.61,183.93c0.07,0.21,0.14,0.42,0.21,0.64"/>
	<path class="st1" d="M36.86,190.82c0.08,0.25,0.16,0.5,0.23,0.75"/>
	<path class="st1" d="M35.7,187.23c-0.3-0.9-0.59-1.79-0.88-2.66"/>
	<path class="st1" d="M36.42,628.76c-0.04-0.01-0.08-0.01-0.12-0.02"/>
	<path class="st1" d="M34.61,183.93c-0.33-0.96-0.65-1.9-0.97-2.82"/>
	<path class="st1" d="M33.46,180.59c-0.28-0.8-0.56-1.59-0.83-2.36"/>
	<path class="st1" d="M36.86,190.82c-0.33-1.06-0.67-2.1-1-3.12"/>
	<path class="st1" d="M32.45,177.74c-0.31-0.86-0.61-1.69-0.91-2.5"/>
	<path class="st1" d="M49.87,252.19c-0.16-1.42-0.33-2.84-0.5-4.26"/>
	<path class="st1" d="M51.49,271.56c-0.01-0.14-0.02-0.29-0.02-0.43"/>
	<path class="st1" d="M48.32,240.3c-0.38-2.53-0.79-5.05-1.22-7.56"/>
	<path class="st1" d="M38.03,194.64c-0.31-1.04-0.63-2.06-0.94-3.06"/>
	<path class="st1" d="M40.4,202.85c-0.34-1.23-0.68-2.44-1.02-3.63"/>
	<path class="st1" d="M39.14,198.39c-0.34-1.16-0.67-2.31-1.01-3.43"/>
	<path class="st1" d="M24.3,626.26c0.85,0.18,1.69,0.37,2.55,0.55"/>
	<path class="st1" d="M296.95,629.12c0.45-0.09,0.9-0.18,1.35-0.27"/>
	<path class="st1" d="M51.9,308.88c0.09-2.91,0.15-5.79,0.18-8.64"/>
	<path class="st1" d="M301.96,174.79c0.83-2.1,1.61-4.05,2.35-5.82c-1.09,0.18-2.97,0.39-5.19,0
		c-11.75-2.05-17.97-18.02-20.77-25.19c-12.49-32.06-9.72-126.75-9.52-132.91C254.99,7.1,241.14,3.33,227.3-0.43
		c-2.39,18.33-9.83,53.47-37.21,84.26c-8.08,9.09-16.47,16.19-24.23,21.72c-7.75-5.49-16.15-12.58-24.23-21.72
		c-27.32-30.9-34.24-66.28-36.34-84.26C92.03,3.33,78.76,7.1,65.49,10.86c0,4,0.01,10.04,0,17.37c-0.04,43.07-0.08,64.76-0.87,72.1
		c-1.81,16.96-6.52,61-28.55,67.76c-2.8,0.86-5.28,0.93-6.92,0.87c0.74,1.88,1.54,3.98,2.39,6.28"/>
	<path class="st1" d="M303.39,627.83c-0.62,0.13-1.23,0.25-1.85,0.38"/>
	<path class="st1" d="M326.18,622.77c0.96-0.23,1.92-0.46,2.87-0.7"/>
	<path class="st1" d="M298.3,628.85c1.08-0.21,2.16-0.43,3.24-0.64"/>
	<path class="st1" d="M321.84,623.8c0.88-0.21,1.76-0.41,2.64-0.62"/>
	<path class="st1" d="M317.4,624.82c0.87-0.2,1.73-0.39,2.59-0.59"/>
	<path class="st1" d="M301.96,174.79c-3.12,7.94-6.78,18.16-10.24,30.19"/>
	<path class="st1" d="M312.85,625.83c0.88-0.19,1.75-0.39,2.62-0.58"/>
	<path class="st1" d="M312.85,625.83c-0.65,0.14-1.3,0.28-1.95,0.42"/>
	<path class="st1" d="M52.08,300.23c0.04-2.85,0.04-5.67,0.03-8.45"/>
	<path class="st1" d="M330.43,621.74c1.4-0.35,2.79-0.69,4.16-1.04"/>
	<path class="st1" d="M296.95,629.12c-35.1,6.82-76.63,12.01-123.3,12.43c-52.58,0.47-98.93-5.24-137.23-12.78"/>
	<path class="st1" d="M308.19,626.83c0.91-0.19,1.81-0.39,2.71-0.58"/>
	<path class="st1" d="M308.19,626.83c-0.64,0.14-1.28,0.27-1.93,0.41"/>
	<path class="st1" d="M51.85,279.54c0.09,2.67,0.16,5.36,0.21,8.08"/>
	<path class="st1" d="M303.39,627.83c0.96-0.2,1.92-0.39,2.87-0.59"/>
	<path class="st1" d="M315.48,625.25c0.64-0.14,1.28-0.29,1.92-0.43"/>
	<path class="st1" d="M325.68,581.09c-1.91-8.73-3.77-17.4-5.59-26.03"/>
	<path class="st1" d="M329.05,622.07c0.46-0.11,0.93-0.22,1.38-0.34"/>
	<path class="st1" d="M324.47,623.18c0.57-0.14,1.14-0.27,1.7-0.41"/>
	<path class="st1" d="M291.72,204.98c-0.13,0.45-0.26,0.9-0.39,1.34"/>
	<path class="st1" d="M320.09,555.06c-2.73-12.94-5.36-25.77-7.89-38.48"/>
	<path class="st1" d="M309.7,503.91c-2.47-12.63-4.84-25.15-7.12-37.55"/>
	<path class="st1" d="M319.99,624.23c0.62-0.14,1.24-0.28,1.85-0.43"/>
	<path class="st1" d="M301.96,174.79c0.02-0.04,0.03-0.07,0.03-0.07l-0.3,0c-1.86-0.03-4.66-0.28-7.76-1.4
		c-9.9-3.58-15.54-13.39-18.95-22.09l-0.17,0.72c-24,82.72-27.43,150.88-26.31,196.53c1.43,58.03,10.92,107.82,21.63,163.97
		c9.23,48.42,26.81,116.62,26.82,116.68"/>
	<path class="st1" d="M310.91,626.26c0.65-0.14,1.3-0.28,1.95-0.42"/>
	<path class="st1" d="M296.95,629.12L296.95,629.12c0.45-0.09,0.9-0.18,1.35-0.27"/>
	<path class="st1" d="M319.99,624.23c-0.86,0.2-1.72,0.4-2.59,0.59"/>
	<path class="st1" d="M310.91,626.26c-0.9,0.19-1.8,0.39-2.71,0.58"/>
	<path class="st1" d="M306.26,627.24c-0.95,0.2-1.91,0.4-2.87,0.59"/>
	<path class="st1" d="M334.59,620.69c-1.37,0.35-2.76,0.7-4.16,1.04"/>
	<path class="st1" d="M293.92,417.42c2.04,12.07,4.18,24.27,6.4,36.59"/>
	<path class="st1" d="M301.54,628.21c-1.07,0.22-2.15,0.43-3.24,0.64"/>
	<path class="st1" d="M324.47,623.18c-0.87,0.21-1.75,0.42-2.64,0.62"/>
	<path class="st1" d="M306.26,627.24c0.65-0.14,1.29-0.27,1.93-0.41"/>
	<path class="st1" d="M315.48,625.25c-0.87,0.19-1.74,0.39-2.62,0.58"/>
	<path class="st1" d="M329.05,622.07c-0.95,0.23-1.9,0.47-2.87,0.7"/>
	<path class="st1" d="M301.96,174.79c-0.45,1.2-6.71,18.09-10.24,30.19"/>
	<path class="st1" d="M301.54,628.21c0.62-0.13,1.24-0.25,1.85-0.38"/>
	<path class="st1" d="M334.59,620.69c-3.08-13.31-6.04-26.51-8.91-39.6"/>
	<path class="st1" d="M312.2,516.59c-0.84-4.24-1.68-8.46-2.5-12.67"/>
	<path class="st1" d="M291.33,206.32c-18.44,65.18-12.74,120.54,2.6,211.1"/>
	<path class="st1" d="M302.57,466.36c-0.76-4.13-1.51-8.25-2.25-12.36"/>
	<path class="st1" d="M51.85,279.54c0-0.09-0.01-0.19-0.01-0.28"/>
	<path class="st1" d="M50.94,263.44c-0.3-3.79-0.66-7.54-1.07-11.26"/>
	<path class="st1" d="M51.46,271.13c-0.15-2.58-0.32-5.15-0.52-7.69"/>
	<path class="st1" d="M51.84,279.26c-0.09-2.59-0.21-5.15-0.36-7.7"/>
	<path class="st1" d="M32.62,178.23c0.27,0.77,0.55,1.55,0.83,2.36"/>
	<path class="st1" d="M52.08,300.23c0.04-2.85,0.04-5.67,0.03-8.45"/>
	<path class="st1" d="M31.53,175.24c-0.02-0.06-0.05-0.13-0.07-0.19l0.28,0c2.64-0.44,6.39-1.36,10.38-3.47
		c8.11-4.28,13.72-11.59,18.08-22.32l0.18,0.72c26.13,99.49,26.19,177.68,21.97,228.53c-3.4,40.92-11.35,85.72-16.44,114.38
		c-9.91,55.81-29.49,135.83-29.5,135.86"/>
	<path class="st1" d="M35.86,187.7c0.33,1.02,0.66,2.06,1,3.12"/>
	<path class="st1" d="M34.82,184.57c0.29,0.87,0.59,1.76,0.88,2.66"/>
	<path class="st1" d="M33.64,181.12c0.32,0.92,0.64,1.86,0.97,2.82"/>
	<path class="st1" d="M51.85,279.54c0.09,2.67,0.16,5.36,0.21,8.08"/>
	<path class="st1" d="M49.36,247.93c0.18,1.41,0.34,2.83,0.5,4.26"/>
	<path class="st1" d="M39.38,199.22c0.34,1.19,0.68,2.4,1.02,3.63"/>
	<path class="st1" d="M47.1,232.74c0.44,2.51,0.84,5.03,1.22,7.56"/>
	<path class="st1" d="M37.09,191.58c0.31,1,0.63,2.02,0.94,3.06"/>
	<path class="st1" d="M51.46,271.13c0.01,0.14,0.02,0.29,0.02,0.43"/>
	<path class="st1" d="M51.9,308.88c0.09-2.91,0.15-5.79,0.18-8.64"/>
	<path class="st1" d="M38.13,194.96c0.34,1.12,0.67,2.27,1.01,3.43"/>
	<path class="st1" d="M31.53,627.78c-0.84-0.17-1.66-0.35-2.49-0.52"/>
	<path class="st1" d="M4.74,621.73c0.6,0.15,1.22,0.3,1.83,0.45"/>
	<path class="st1" d="M8.98,622.77c0.63,0.15,1.28,0.3,1.92,0.46"/>
	<path class="st1" d="M13.32,623.79c0.65,0.15,1.31,0.3,1.96,0.45"/>
	<path class="st1" d="M8.98,622.77c-0.81-0.2-1.61-0.39-2.42-0.59"/>
	<path class="st1" d="M31.53,175.24c0.3,0.81,0.6,1.64,0.91,2.5"/>
	<path class="st1" d="M22.25,625.82c0.68,0.15,1.36,0.29,2.04,0.44"/>
	<path class="st1" d="M17.74,624.81c0.64,0.14,1.29,0.29,1.94,0.43"/>
	<path class="st1" d="M36.3,628.74c0.04,0.01,0.08,0.02,0.12,0.02l0,0"/>
	<path class="st1" d="M31.53,627.78c0.72,0.15,1.45,0.29,2.17,0.44"/>
	<path class="st1" d="M26.84,626.81c0.72,0.15,1.46,0.3,2.19,0.46"/>
	<path class="st1" d="M13.32,623.79c-0.81-0.19-1.61-0.38-2.41-0.57"/>
	<path class="st1" d="M0.59,620.69c1.37,0.35,2.75,0.69,4.15,1.04"/>
	<path class="st1" d="M37.09,191.58c-0.08-0.25-0.16-0.5-0.23-0.75"/>
	<path class="st1" d="M34.82,184.57c-0.07-0.21-0.14-0.43-0.21-0.64"/>
	<path class="st1" d="M35.86,187.7c-0.05-0.16-0.1-0.32-0.16-0.47"/>
	<path class="st1" d="M39.38,199.22c-0.08-0.28-0.16-0.55-0.24-0.83"/>
	<path class="st1" d="M38.13,194.96c-0.03-0.11-0.07-0.22-0.1-0.32"/>
	<path class="st1" d="M17.74,624.81c-0.83-0.19-1.64-0.38-2.46-0.57"/>
	<path class="st1" d="M26.84,626.81c-0.86-0.18-1.7-0.37-2.55-0.55"/>
	<path class="st1" d="M22.25,625.82c-0.87-0.19-1.72-0.38-2.57-0.57"/>
	<path class="st1" d="M32.62,178.23c-0.06-0.16-0.12-0.33-0.18-0.49"/>
	<path class="st1" d="M36.3,628.74c-0.88-0.17-1.74-0.35-2.6-0.52"/>
	<path class="st1" d="M33.64,181.12c-0.06-0.18-0.12-0.35-0.19-0.53"/>
	<path class="st1" d="M51.9,308.88c-0.22,7.29-0.59,14.78-1.12,22.54C43.01,446.06,2.42,613.27,0.59,620.69"/>
	<path class="st1" d="M47.1,232.74c-1.75-10.04-3.97-19.95-6.7-29.9"/>
	<path class="st1" d="M52.06,287.62c0.02,1.38,0.04,2.77,0.05,4.16"/>
	<path class="st1" d="M49.36,247.93c-0.32-2.55-0.67-5.1-1.05-7.62"/>
</g>
<path class="Colour2 fill" d="M57.85,291.91l173.98-121.08L57.78,298.95C57.82,296.59,57.85,294.23,57.85,291.91z M231.83,131.42
	L56.09,253.72c0.22,2.2,0.42,4.4,0.6,6.63L231.83,131.42z M231.83,111.71L53.8,235.61c0.33,2.15,0.64,4.31,0.93,6.48L231.83,111.71z
	 M231.83,190.54L57.42,311.92c-0.1,2.4-0.2,4.81-0.33,7.26L231.83,190.54z M231.83,151.12L57.42,272.5c0.1,2.26,0.19,4.53,0.25,6.83
	L231.83,151.12z M231.83,92.01L50.59,218.14c0.45,2.11,0.88,4.22,1.28,6.34L231.83,92.01z M274.24,457.43L125.72,354.06
	L274.3,463.44C274.27,461.42,274.25,459.41,274.24,457.43z M275.24,430.49c0.15-1.9,0.33-3.78,0.51-5.66L125.72,320.41
	L275.24,430.49z M276.91,414.89c0.25-1.85,0.51-3.69,0.79-5.53L125.72,303.59L276.91,414.89z M274.9,480.71
	c-0.11-2.09-0.2-4.15-0.28-6.2l-148.9-103.63L274.9,480.71z M274.4,446.69c0.06-1.96,0.13-3.9,0.22-5.83l-148.9-103.62L274.4,446.69
	z M279.35,399.86c0.35-1.81,0.71-3.61,1.1-5.41L125.72,286.77L279.35,399.86z"/>
<path class="Colour2 fill" d="M32.06,627.89c1.75,0.36,3.52,0.71,5.31,1.06L6.06,597.51c-0.27,1.19-0.54,2.36-0.8,3.47L32.06,627.89z"/>
<path class="Colour2 fill" d="M167.6,639.19l-2.36,2.37c1.57,0.01,3.14,0,4.71,0L167.6,639.19z"/>
<path class="Colour2 fill" d="M332.07,609.53l-15.39,15.45c1.87-0.42,3.7-0.84,5.52-1.27l10.65-10.7
	C332.59,611.85,332.33,610.69,332.07,609.53z"/>
<path class="Colour2 fill" d="M329.3,597.35l-31.46,31.58c1.78-0.35,3.56-0.7,5.31-1.06l26.94-27.04
	C329.83,599.68,329.56,598.51,329.3,597.35z"/>
<path class="Colour2 fill" d="M3.24,609.64c-0.29,1.24-0.57,2.4-0.82,3.45l10.59,10.63c1.81,0.42,3.65,0.85,5.51,1.26L3.24,609.64z"/>
<g>
	<rect x="109.19" y="214.75" class="st2" width="32.02" height="12.16"/>
	<rect x="193.99" y="214.75" class="st2" width="32.02" height="12.16"/>
	<rect x="194.07" y="322.38" class="st2" width="32.02" height="12.16"/>
	<rect x="109.28" y="322.38" class="st2" width="32.02" height="12.16"/>
	<rect x="109.28" y="310.22" class="st2" width="32.02" height="12.16"/>
	<rect x="193.99" y="310.22" class="st2" width="32.02" height="12.16"/>
</g>
<path class="Colour2 fill" d="M84.96,570.99l-31.21-31.33l-31.21,31.33l31.21,31.33L84.96,570.99z M53.75,543.93l26.95,27.06
	l-26.95,27.06L26.8,570.99L53.75,543.93z M51.71,631.59L8.24,587.95c0.26-1.14,0.52-2.3,0.78-3.48l44.73,44.91l58.16-58.39
	L53.75,512.6l-37.21,37.35c0.38-1.78,0.76-3.59,1.14-5.42l36.07-36.21l62.41,62.66l-60.96,61.2
	C54.03,631.99,52.87,631.79,51.71,631.59z M132.12,570.99L69,634.36c-1.24-0.18-2.48-0.37-3.7-0.55l62.57-62.82l-74.11-74.41
	l-33,33.13c0.36-1.77,0.73-3.56,1.09-5.37l31.91-32.04L132.12,570.99z M167.6,592.91l46.83,47.02c-1.33,0.09-2.64,0.19-3.98,0.28
	l-42.85-43.02l-42.86,43.03c-1.34-0.08-2.67-0.17-3.99-0.27L167.6,592.91z M167.6,623.88l17.39,17.46
	c-1.38,0.04-2.79,0.05-4.18,0.07l-13.21-13.26l-13.23,13.28c-1.39-0.03-2.77-0.06-4.16-0.1L167.6,623.88z M53.75,618.34
	l-42.72-42.89c0.25-1.15,0.51-2.31,0.77-3.5l41.95,42.12l42.91-43.08l-42.91-43.08l-41.41,41.57c0.39-1.78,0.79-3.61,1.19-5.47
	l40.22-40.38l47.16,47.35L53.75,618.34z M200.37,640.76c-1.35,0.07-2.7,0.14-4.06,0.19l-28.71-28.82l-28.71,28.82
	c-1.36-0.06-2.72-0.11-4.07-0.18l32.78-32.91L200.37,640.76z M228.56,638.81c-1.3,0.12-2.61,0.23-3.92,0.34l-57.05-57.27
	l-57.06,57.29c-1.31-0.11-2.61-0.23-3.91-0.34l60.97-61.22L228.56,638.81z M95.77,637.75c-1.28-0.14-2.56-0.28-3.84-0.42
	l66.08-66.34L53.75,466.32L28.17,492c0.33-1.75,0.66-3.5,0.99-5.26l24.6-24.69l108.51,108.94L95.77,637.75z M243.27,637.33
	c-1.27,0.14-2.56,0.28-3.84,0.41l-66.49-66.75l108.51-108.94l25.04,25.14c0.33,1.76,0.66,3.51,1,5.27l-26.04-26.14L177.19,570.99
	L243.27,637.33z M256.85,635.65c-1.25,0.17-2.49,0.34-3.75,0.5l-64.91-65.17l93.26-93.63l28.72,28.84c0.35,1.77,0.69,3.54,1.04,5.31
	l-29.76-29.88l-89.01,89.36L256.85,635.65z M147.02,570.99L82.1,636.15c-1.26-0.16-2.52-0.32-3.77-0.49l64.42-64.68l-89.01-89.36
	l-29.25,29.36c0.35-1.76,0.69-3.53,1.04-5.32l28.21-28.32L147.02,570.99z M281.45,508.33l36.55,36.7c0.37,1.8,0.77,3.62,1.14,5.42
	l-37.7-37.85l-58.16,58.39l58.16,58.39l44.96-45.13c0.26,1.17,0.51,2.33,0.77,3.5l-43.67,43.85c-1.16,0.2-2.34,0.39-3.51,0.59
	l-60.95-61.19L281.45,508.33z M313.89,524.87c0.36,1.78,0.73,3.58,1.09,5.37l-33.53-33.66l-74.11,74.41l62.56,62.81
	c-1.23,0.19-2.46,0.37-3.7,0.55l-63.11-63.36l78.37-78.68L313.89,524.87z M250.24,570.99l31.21,31.33l31.21-31.33l-31.21-31.33
	L250.24,570.99z M281.45,598.04l-26.95-27.06l26.95-27.06l26.95,27.06L281.45,598.04z M281.45,523.64l40.65,40.81
	c0.39,1.81,0.77,3.62,1.16,5.44l-41.81-41.98l-42.91,43.08l42.91,43.08l42.21-42.37c0.25,1.16,0.51,2.34,0.77,3.5l-42.98,43.14
	l-47.16-47.35L281.45,523.64z"/>
<path class="SidePanels fill" d="M301.69,174.71c-1.86-0.03-4.66-0.28-7.76-1.4c-9.9-3.58-15.54-13.39-18.95-22.09l-0.17,0.72
	c-24,82.72-27.43,150.88-26.31,196.53c1.43,58.03,10.92,107.82,21.63,163.97c9.24,48.44,26.82,116.68,26.82,116.68
	c13.53-2.63,26.1-5.5,37.64-8.42c-16.41-70.98-29.76-138.88-40.67-203.28c-15.34-90.56-21.04-145.91-2.6-211.1
	c3.56-12.57,10.64-31.55,10.66-31.6L301.69,174.71z"/>
<path class="SidePanels fill" d="M31.75,175.05c2.64-0.44,6.39-1.36,10.38-3.47c8.11-4.28,13.72-11.59,18.08-22.32l0.18,0.72
	c26.13,99.49,26.19,177.68,21.97,228.53c-3.4,40.92-11.35,85.72-16.44,114.38c-9.91,55.82-29.5,135.87-29.5,135.87
	c-12.88-2.54-24.84-5.28-35.83-8.07c1.82-7.43,42.42-174.64,50.19-289.28c3.36-49.63,0.53-88.77-10.38-128.57
	c-3.02-11.02-6.21-20.43-8.93-27.8L31.75,175.05z"/>
<g id="FBodyLogos"></g>
</svg>
