<?xml version="1.0" encoding="utf-8"?>
<!-- Generator: Adobe Illustrator 19.1.0, SVG Export Plug-In . SVG Version: 6.00 Build 0)  -->
<svg version="1.1" id="Layer_1" xmlns="http://www.w3.org/2000/svg" xmlns:xlink="http://www.w3.org/1999/xlink" x="0px" y="0px"
	 viewBox="0 0 335.2 641.14" style="enable-background:new 0 0 335.2 641.14;" xml:space="preserve">
<style type="text/css">
	<![CDATA[
	@font-face{font-family:'codaheavy';src:url('/fonts/coda-heavy-webfont.woff') format('woff')}
	text{font-family:Impact,codaheavy,sans-serif}
	.Colour1.fill{fill:#030505;}
	.Colour2.fill{fill:#D1D1D1;}
	.Colour3.fill{fill:#FFFFFF;}
	.NeckAndArmTrim.fill{fill:#030505;stroke:#000000;stroke-miterlimit:10;}
	.SidePanels.fill{fill:#373435;stroke:#000000;stroke-miterlimit:10;}
	.st0{fill:none;stroke:#000000;stroke-miterlimit:10;}
	.st1{fill:none;stroke:#030505;stroke-linecap:round;stroke-linejoin:round;}
	.st2{fill:#FFFFFF;stroke:#000000;}
	.st3{fill:#FFFFFF;stroke:#000000;stroke-width:0.5;}
	]]>
</style>
<path class="Colour1 fill" d="M227.31-0.43c13.84,3.76,27.69,7.53,41.53,11.29c-0.2,6.16-2.97,100.85,9.52,132.91
	c2.79,7.17,9.01,23.15,20.77,25.19c2.22,0.39,4.1,0.18,5.19,0c-3.61,8.71-8.5,21.51-12.98,37.35
	c-18.44,65.18-12.74,120.54,2.6,211.1c10.91,64.39,24.26,132.3,40.67,203.28c-41.5,10.53-96.29,20.27-160.94,20.85
	c-70.25,0.63-129.39-9.77-173.06-20.85c1.82-7.43,42.42-174.64,50.19-289.28c3.36-49.63,0.53-88.77-10.38-128.57
	c-3.93-14.34-8.14-25.96-11.25-33.88c1.64,0.07,4.12-0.01,6.92-0.87c22.03-6.76,26.74-50.8,28.55-67.76
	c0.79-7.35,0.82-29.03,0.87-72.1c0.01-7.33,0-13.37,0-17.37C78.77,7.1,92.03,3.33,105.3-0.43c2.1,17.98,9.02,53.37,36.34,84.26
	c8.08,9.14,16.48,16.23,24.23,21.72c7.76-5.52,16.14-12.62,24.23-21.72C217.47,53.05,224.91,17.9,227.31-0.43z"/>
<path class="Colour2 fill" d="M242.68,260.42c-2.47,3.93-4.94,7.87-8.27,13.16c3.83-3.14,6.4-5.25,8.97-7.36
	c0.84,7.81-6.32,10.77-9.12,17.02c4.2-1.92,7.78-3.55,11.37-5.19c0.34,0.5,0.67,0.99,1.01,1.49c-3.55,6.03-10.58,8.47-14.83,14.43
	c4.95-1.85,9.89-3.7,15.06-5.63c-0.05,4.94-0.75,5.71-8.22,9.71c-3.71,1.99-7.42,3.99-11.14,5.98c0.27,0.65,0.53,1.31,0.8,1.96
	c6.27-1.92,12.54-3.84,18.81-5.75c0.4,0.65,0.8,1.31,1.19,1.96c-1.27,1.4-2.29,3.36-3.86,4.1c-4.09,1.9-8.49,3.13-12.66,4.87
	c-2.99,1.25-5.82,2.88-8.72,4.35c0.24,0.64,0.47,1.28,0.71,1.93c7.27-1.13,14.54-2.25,21.8-3.38c0.32,0.65,0.65,1.31,0.97,1.96
	c-2.21,1.76-4.18,4.25-6.7,5.13c-4.77,1.66-9.9,2.24-14.79,3.58c-2.23,0.61-4.25,1.97-6.37,2.98c0.17,0.53,0.34,1.06,0.51,1.6
	c8.21-0.86,16.43-1.73,25.13-2.64c-0.47,5.61-3.71,6.99-7.01,7.69c-4.96,1.05-10.08,1.34-15.05,2.34c-2.81,0.57-5.46,1.91-8.19,2.91
	c0.14,0.52,0.28,1.04,0.42,1.56c8.84-0.13,17.68-0.26,27.37-0.4c-2.4,6.35-7.1,7.18-11.28,7.97c-4.96,0.95-10.16,0.65-15.16,1.46
	c-2.92,0.47-5.67,2.05-8,4.29c9.59,0.33,19.19,0.67,28.78,1c0.25,0.92,0.49,1.84,0.74,2.77c-2.22,1.41-4.32,3.74-6.69,4.05
	c-6.79,0.89-13.68,1.07-20.54,1.32c-4.28,0.16-8.2,0.78-11.16,5.21c11.27,0.7,21.98,1.37,32.69,2.03
	c-3.74,6.19-9.14,8.05-14.93,8.32c-6.71,0.31-13.45-0.32-20.17-0.18c-2.48,0.05-4.94,1.16-7.41,2.88
	c11.77,1.81,23.64,2.18,35.77,8.13c-7.77,4.12-14.58,5.9-21.9,5.12c-5.24-0.56-10.39-2.03-15.63-2.42
	c-2.97-0.22-6.05,0.92-8.44,0.65c12.68,3.08,25.37,6.16,38.05,9.25c-0.13,0.98-0.26,1.96-0.39,2.94
	c-5.42,3.19-11.39,4.98-17.71,4.29c-7.22-0.79-14.46-1.91-21.48-3.71c-5.36-1.37-8.34,0.02-9.77,4.8
	c14.21,1.53,28.5,3.08,44.16,4.77c-5.2,5.44-10.16,8.46-15.77,8.45c-9.19-0.01-18.44-0.84-27.56-2.04
	c-7.26-0.95-7.2-1.43-10.98,4.47c16.68,1.18,33.55,2.38,50.42,3.58c-6.85,7.69-15.23,10.99-24.42,11.23
	c-8.32,0.22-16.69-0.62-24.99-1.47c-8.37-0.86-8.42-1.08-10.89,8.36c18.49-4.06,36.6-2.22,54.66,0.8c0.27,0.83,0.54,1.66,0.81,2.49
	c-2.73,1.73-5.26,4.35-8.24,5.03c-8.59,1.98-17.31,3.67-26.08,4.53c-7.2,0.7-14.53-0.1-21.81,0.03c-6.73,0.12-8.43,1.81-9.78,9.55
	c20.66-9.1,41.74-2.86,63.13-3.12c-1.08,1.25-1.99,2.72-3.27,3.7c-10.11,7.77-21.46,12.37-34.31,12.23
	c-8.17-0.09-16.4-0.41-24.47-1.54c-4.87-0.68-7.07,0.58-7.92,5.22c-0.42,2.28-1.25,4.49-2.21,7.8c23.31-8.89,46.16-8.7,69.08-7.57
	c0.23,0.48,0.46,0.97,0.69,1.45c-1.09,1.21-2.05,2.56-3.27,3.62c-14.46,12.5-31.94,15.9-50.26,16.69
	c-4.91,0.21-9.83,0.52-14.72,0.33c-3.62-0.14-5.27,1.14-5.73,4.75c-1.39,10.87-2.99,21.72-4.46,32.58c-1,7.38-1.92,14.76-2.88,22.14
	c-3.54,2.25-7.33,4.19-10.55,6.83c-2.71,2.21-3.13,0.1-4.14-1.41c3.77-18.99,7.44-38,11.39-56.96c0.82-3.91,0.4-6.56-2.48-9.74
	c-13.05-14.39-24.73-29.77-31-48.55c-2.32-6.96-3.9-14.05-1.27-22.62c16.17,17.29,30.51,34.77,39.86,56.09
	c5.12-7.35,4.87-10.3-0.01-16.64c-9.13-11.88-17.76-24.11-22.59-38.53c-2.41-7.2-2.04-14.35,1.42-22.7
	c10.97,17.44,21.45,34.11,31.98,50.85c2.64-3.08,2.67-5.94,0.27-9.59c-7.81-11.9-15.9-23.85-18.55-38.16
	c-1.15-6.21-0.33-12.78-0.4-19.19c0.87-0.2,1.74-0.4,2.6-0.6c8.6,15.68,17.2,31.37,25.77,47c3.78-2.36,4.48-5.29,1.85-9.8
	c-5.04-8.65-10.46-17.14-14.71-26.17c-3.2-6.8-3.31-14.42-1.14-23.54c11.52,12.62,17.92,26.71,24.37,41.13
	c3.88-3.27,4.02-6.27,1.76-10.53c-4.27-8.03-8.22-16.3-11.53-24.77c-2.46-6.28-2.95-12.99,0.28-19.28c0.6-0.21,1.21-0.41,1.81-0.62
	c6.42,12.46,12.85,24.93,19.18,37.21c4.06-3.76,3.92-3.69,1.27-9.26c-3.83-8.05-8.22-15.97-10.83-24.42
	c-1.66-5.37-0.53-11.6-0.66-17.45c0.71-0.1,1.42-0.2,2.13-0.3c6.13,12.61,12.27,25.23,18.52,38.08c4.3-3.69,1.54-7.01,0.2-10.12
	c-2.45-5.69-5.51-11.14-7.74-16.91c-2.48-6.44-3.81-13.15-1.1-21.44c9.2,11.1,12.8,23.83,18.74,35.33c4.08-2.6,2.24-5.62,1.12-8.36
	c-2.77-6.75-5.97-13.33-8.52-20.16c-1.76-4.73-2.58-9.76,0.49-16.19c8.3,9.76,11.9,20.73,16.32,31.23c0.54-0.01,1.07-0.02,1.61-0.02
	c0.07-1.95,0.72-4.12,0.1-5.81c-2.28-6.15-4.98-12.15-7.52-18.2c-2.5-5.95-2.46-11.94,0.94-18.57c4.72,9.63,9.45,19.25,14.24,29.02
	c2.43-4.41,0.33-8.48-1.16-12.44c-1.8-4.78-4.5-9.25-5.89-14.12c-1.14-3.98-0.92-8.34-1.31-12.53c0.83-0.25,1.67-0.51,2.5-0.76
	c4.35,8.33,8.71,16.66,13.06,24.99c0.4-0.11,0.79-0.21,1.18-0.32c-0.72-2.83-1.18-5.77-2.22-8.47c-1.77-4.6-4.35-8.92-5.71-13.61
	c-0.83-2.86,0.01-6.21,0.1-9.34c0.91-0.15,1.81-0.3,2.72-0.45c3.14,6.39,6.27,12.77,10.08,20.54c-0.29-11.11-9.6-18.67-6.84-29.09
	c4.14,1.33,4.14,1.33,12.86,16.35c-1.69-4.19-3.4-8.39-5.08-12.58c-1.71-4.26-4.25-8.48-0.3-14.68c3.09,5.99,5.64,10.95,8.2,15.91
	c0.31-0.12,0.61-0.24,0.92-0.37c-1.39-3.85-2.89-7.66-4.15-11.55c-1.25-3.86-2.26-7.81-3.38-11.71c0.74-0.32,1.47-0.64,2.21-0.96
	c2.35,4.2,4.7,8.4,7.32,13.08c0.47-6.97-7.32-12.21-3.04-20.26c1.81,2.87,3.18,5.06,4.55,7.24c0.22-0.1,0.45-0.2,0.67-0.31
	c-1.34-4.52-2.67-9.03-4.01-13.55c0.56-0.29,1.12-0.59,1.69-0.88c1.24,1.53,2.48,3.06,3.9,4.81c-1-3.15-1.95-6.13-3.1-9.75
	c1.77,0.21,2.73,0.33,4.42,0.53c0.23-4.39,0.47-8.96,0.71-13.53c2.02-1.93,3.53-1.58,4.52,1.03c0.48,4.82,0.96,9.63,1.39,13.95
	c1.44-1.07,3.23-2.41,5.03-3.74C241.9,259.18,242.29,259.8,242.68,260.42z"/>
<path class="st0" d="M98.67,1.45c1.6,14.45,6.57,41.47,24.8,69.35c14.38,22.01,31.28,35.76,42.4,43.44
	c11.12-7.34,27.93-20.47,42.4-41.7C227.72,44,232.69,15.88,234.22,1.45"/>
<path class="st0" d="M72.2,8.96c-0.17,8.95-0.45,25.06-0.65,45.34c-0.34,36.5-0.09,54.28-6.06,78.18
	c-5.05,20.23-11.57,32.87-23.36,39.09c-4,2.11-7.74,3.03-10.38,3.47"/>
<path class="st0" d="M262.78,9.13c-0.25,7.48-2.8,92.53,8.76,131.73c2.66,9.02,8.04,27.27,22.39,32.46
	c3.28,1.18,6.21,1.39,8.06,1.41"/>
<path class="st0" d="M107.61,14.02c8.95,5.27,30.13,16.11,59.12,15.96c28.27-0.15,48.92-10.69,57.87-15.96"/>
<path class="st0" d="M109.45,22c10.2,5.01,29.77,12.96,55.56,13.19c27.06,0.24,47.57-8.13,57.87-13.19"/>
<path class="SidePanels fill" d="M301.69,174.71c-1.86-0.03-4.66-0.28-7.76-1.4c-9.9-3.58-15.54-13.39-18.95-22.09l-0.17,0.72
	c-24,82.72-27.43,150.88-26.31,196.53c1.43,58.03,10.92,107.82,21.63,163.97c9.24,48.44,26.82,116.68,26.82,116.68
	c13.53-2.63,26.1-5.5,37.64-8.42c-16.41-70.98-29.76-138.88-40.67-203.28c-15.34-90.56-21.04-145.91-2.6-211.1
	c3.56-12.57,10.64-31.55,10.66-31.6L301.69,174.71z"/>
<path class="SidePanels fill" d="M31.75,175.05c2.64-0.44,6.39-1.36,10.38-3.47c8.11-4.28,13.72-11.59,18.08-22.32l0.18,0.72
	c26.13,99.49,26.19,177.68,21.97,228.53c-3.4,40.92-11.35,85.72-16.44,114.38c-9.91,55.82-29.5,135.87-29.5,135.87
	c-12.88-2.54-24.84-5.28-35.83-8.07c1.82-7.43,42.42-174.64,50.19-289.28c3.36-49.63,0.53-88.77-10.38-128.57
	c-3.02-11.02-6.21-20.43-8.93-27.8L31.75,175.05z"/>
<g>
	<path class="st1" d="M248.51,348.47c1.43,58.03,10.92,107.82,21.63,163.97c9.24,48.44,26.82,116.68,26.82,116.68
		c13.53-2.63,26.1-5.5,37.64-8.42c-16.41-70.98-29.76-138.88-40.67-203.28c-15.34-90.56-21.04-145.91-2.6-211.1
		c3.56-12.57,10.64-31.55,10.66-31.6l-0.3,0c-1.86-0.03-4.66-0.28-7.76-1.4c-9.9-3.58-15.54-13.39-18.95-22.09l-0.17,0.72
		C250.82,234.67,247.38,302.83,248.51,348.47z"/>
	<path class="st1" d="M0.6,620.69c10.99,2.79,22.95,5.53,35.83,8.07c0,0,19.59-80.04,29.5-135.87
		c5.09-28.66,13.05-73.47,16.44-114.38c4.22-50.85,4.16-129.04-21.97-228.53l-0.18-0.72c-4.36,10.72-9.97,18.03-18.08,22.32
		c-4,2.11-7.74,3.03-10.38,3.47l-0.28,0c2.72,7.36,5.91,16.78,8.93,27.8c10.91,39.79,13.75,78.93,10.38,128.57
		C43.02,446.06,2.42,613.27,0.6,620.69z"/>
</g>
<path class="Colour1 fill" d="M234.22,1.45c-1.53,14.43-6.5,42.55-25.95,71.09c-14.47,21.23-31.28,34.36-42.4,41.7
	c-11.12-7.68-28.01-21.43-42.4-43.44c-18.23-27.88-23.2-54.9-24.8-69.35l6.63-1.88c2.1,17.98,9.02,53.37,36.34,84.26
	c8.08,9.14,16.48,16.23,24.23,21.72c7.76-5.52,16.14-12.62,24.23-21.72c27.38-30.79,34.82-65.93,37.21-84.26L234.22,1.45z"/>
<path class="NeckAndArmTrim fill" d="M109.45,22c10.2,5.01,29.77,12.96,55.56,13.19c27.06,0.24,47.57-8.13,57.87-13.19l1.74-7.98
	c-8.95,5.27-29.6,15.8-57.87,15.96c-28.99,0.16-50.17-10.69-59.12-15.96L109.45,22z"/>
<path class="Colour3 fill" d="M64.63,100.34c-0.87,8.16-2.42,22.59-6.24,36.12L167.6,246.1l108.59-109.02
	c-9.99-36.83-7.54-120.44-7.36-126.22c-13.84-3.76-27.69-7.53-41.53-11.29c-2.39,18.33-9.83,53.47-37.21,84.26
	c-8.08,9.09-16.47,16.19-24.23,21.72c-7.75-5.49-16.15-12.58-24.23-21.72c-27.32-30.9-34.24-66.28-36.34-84.26
	C92.03,3.33,78.77,7.1,65.5,10.86c0,4,0.01,10.04,0,17.37C65.45,71.31,65.42,92.99,64.63,100.34z"/>
<path class="Colour1 fill" d="M65.28,82.83L167.6,185.55L269.47,83.28c-1.76-34.26-0.75-68.78-0.63-72.42
	c-13.84-3.76-27.69-7.53-41.53-11.29c-2.39,18.33-9.83,53.47-37.21,84.26c-8.08,9.09-16.47,16.19-24.23,21.72
	c-7.75-5.49-16.15-12.58-24.23-21.72c-27.32-30.9-34.24-66.28-36.34-84.26C92.03,3.33,78.77,7.1,65.5,10.86c0,4,0.01,10.04,0,17.37
	C65.47,53.13,65.45,70.86,65.28,82.83z"/>
<g>
	<rect x="109.19" y="214.75" class="st2" width="32.02" height="12.16"/>
	<rect x="193.99" y="214.75" class="st2" width="32.02" height="12.16"/>
	<rect x="194.07" y="322.38" class="st2" width="32.02" height="12.16"/>
	<rect x="109.28" y="322.38" class="st2" width="32.02" height="12.16"/>
	<rect x="109.28" y="310.22" class="st2" width="32.02" height="12.16"/>
	<rect x="193.99" y="310.22" class="st2" width="32.02" height="12.16"/>
</g>
<g>
	<rect x="109.19" y="214.75" class="st3" width="32.02" height="12.16"/>
	<rect x="193.99" y="214.75" class="st3" width="32.02" height="12.16"/>
	<rect x="194.07" y="322.38" class="st3" width="32.02" height="12.16"/>
	<rect x="109.28" y="322.38" class="st3" width="32.02" height="12.16"/>
	<rect x="109.28" y="310.22" class="st3" width="32.02" height="12.16"/>
	<rect x="193.99" y="310.22" class="st3" width="32.02" height="12.16"/>
</g>
<g id="FBodyLogos"></g>
<path class="NeckAndArmTrim fill" d="M31.75,175.05c2.64-0.44,6.39-1.36,10.38-3.47c11.79-6.23,18.31-18.86,23.36-39.09
	c5.97-23.9,5.71-41.68,6.06-78.18c0.19-20.28,0.47-36.38,0.65-45.34l-6.7,1.9c0,4,0.01,10.04,0,17.37
	c-0.04,43.07-0.08,64.76-0.87,72.1c-1.81,16.96-6.52,61-28.55,67.76c-2.8,0.86-5.28,0.93-6.92,0.87L31.75,175.05z"/>
<path class="NeckAndArmTrim fill" d="M301.99,174.72c-1.85-0.01-4.78-0.22-8.06-1.41c-14.35-5.19-19.73-23.43-22.39-32.46
	c-11.56-39.2-9.01-124.25-8.76-131.73l6.06,1.74c-0.2,6.16-2.97,100.85,9.52,132.91c2.79,7.17,9.01,23.15,20.77,25.19
	c2.22,0.39,4.1,0.18,5.19,0L301.99,174.72z"/>
<path class="NeckAndArmTrim fill" d="M233.89,1.62c-1.53,14.38-6.5,42.42-25.95,70.87c-14.47,21.16-31.28,34.25-42.4,41.57
	c-11.12-7.65-28.01-21.36-42.4-43.3c-18.23-27.8-23.2-54.73-24.8-69.14l6.63-1.87c2.1,17.92,9.02,53.2,36.34,84
	c8.08,9.11,16.48,16.18,24.23,21.65c7.76-5.51,16.14-12.59,24.23-21.65c27.38-30.69,34.82-65.73,37.21-84L233.89,1.62z"/>
</svg>
