<?xml version="1.0" encoding="utf-8"?>
<!-- Generator: Adobe Illustrator 19.1.0, SVG Export Plug-In . SVG Version: 6.00 Build 0)  -->
<svg version="1.1" id="Layer_1" xmlns="http://www.w3.org/2000/svg" xmlns:xlink="http://www.w3.org/1999/xlink" x="0px" y="0px"
	 viewBox="0 0 335.2 641.14" style="enable-background:new 0 0 335.2 641.14;" xml:space="preserve">
<style type="text/css">
	<![CDATA[
	@font-face{font-family:'codaheavy';src:url('/fonts/coda-heavy-webfont.woff') format('woff')}
	text{font-family:Impact,codaheavy,sans-serif}
	.Number.fill{fill:#000}
	.NumberOutline.stroke{fill:none;stroke:#777;stroke-width:2.5}
	.Colour1.fill{fill:#FFFFFF;}
	.Colour2.fill{fill:#CC8BBC;}
	.NeckAndArmTrim.fill{fill:#CC8BBC;stroke:#000000;stroke-miterlimit:10;}
	.Gradient1.stopColor{stop-color:#3953A3;}
	.Gradient2.stopColor{stop-color:#3E53A3;}
	.st0{opacity:0.645;}
	.st1{fill:url(#SVGID_1_);}
	.st2{fill:url(#SVGID_2_);}
	.st3{fill:url(#SVGID_3_);}
	.st4{fill:url(#SVGID_4_);}
	.st5{fill:url(#SVGID_5_);}
	.st6{fill:url(#SVGID_6_);}
	.st7{fill:url(#SVGID_7_);}
	.st8{fill:url(#SVGID_8_);}
	.st9{fill:url(#SVGID_9_);}
	.st10{fill:url(#SVGID_10_);}
	.st11{fill:url(#SVGID_11_);}
	.st12{fill:url(#SVGID_12_);}
	.st13{fill:url(#SVGID_13_);}
	.st14{fill:url(#SVGID_14_);}
	.st15{fill:url(#SVGID_15_);}
	.st16{fill:url(#SVGID_16_);}
	.st17{fill:url(#SVGID_17_);}
	.st18{fill:url(#SVGID_18_);}
	.st19{fill:url(#SVGID_19_);}
	.st20{fill:url(#SVGID_20_);}
	.st21{fill:url(#SVGID_21_);}
	.st22{fill:url(#SVGID_22_);}
	.st23{fill:url(#SVGID_23_);}
	.st24{fill:url(#SVGID_24_);}
	.st25{fill:url(#SVGID_25_);}
	.st26{fill:url(#SVGID_26_);}
	.st27{fill:url(#SVGID_27_);}
	.st28{fill:url(#SVGID_28_);}
	.st29{fill:url(#SVGID_29_);}
	.st30{fill:url(#SVGID_30_);}
	.st31{fill:url(#SVGID_31_);}
	.st32{fill:url(#SVGID_32_);}
	.st33{fill:url(#SVGID_33_);}
	.st34{fill:url(#SVGID_34_);}
	.st35{fill:url(#SVGID_35_);}
	.st36{fill:url(#SVGID_36_);}
	.st37{fill:url(#SVGID_37_);}
	.st38{fill:url(#SVGID_38_);}
	.st39{fill:url(#SVGID_39_);}
	.st40{fill:url(#SVGID_40_);}
	.st41{fill:url(#SVGID_41_);}
	.st42{fill:url(#SVGID_42_);}
	.st43{fill:url(#SVGID_43_);}
	.st44{fill:url(#SVGID_44_);}
	.st45{fill:url(#SVGID_45_);}
	.st46{fill:url(#SVGID_46_);}
	.st47{fill:url(#SVGID_47_);}
	.st48{fill:url(#SVGID_48_);}
	.st49{fill:url(#SVGID_49_);}
	.st50{fill:url(#SVGID_50_);}
	.st51{fill:url(#SVGID_51_);}
	.st52{fill:url(#SVGID_52_);}
	.st53{fill:url(#SVGID_53_);}
	.st54{fill:url(#SVGID_54_);}
	.st55{fill:url(#SVGID_55_);}
	.st56{fill:url(#SVGID_56_);}
	.st57{fill:url(#SVGID_57_);}
	.st58{fill:url(#SVGID_58_);}
	.st59{fill:url(#SVGID_59_);}
	.st60{fill:url(#SVGID_60_);}
	.st61{fill:url(#SVGID_61_);}
	.st62{fill:url(#SVGID_62_);}
	.st63{fill:url(#SVGID_63_);}
	.st64{fill:none;stroke:#000000;stroke-linecap:round;stroke-linejoin:round;stroke-miterlimit:10;}
	.st65{fill:none;stroke:#000000;stroke-miterlimit:10;}
	.st66{fill:#FFFFFF;stroke:#000000;}
	.st67{fill:none;stroke:#000000;stroke-linecap:round;stroke-linejoin:round;}
	.st68{fill:url(#SVGID_64_);}
	.st69{fill:url(#SVGID_65_);}
	.st70{fill:none;stroke:#D0D2D3;stroke-dasharray:5,2.4;}
	]]>
</style>
<path class="Colour1 fill" d="M0.6,620.29c0.01,0,0.03,0.01,0.04,0.01c-0.01,0.06-0.03,0.11-0.04,0.17
	c41.17,10.53,95.52,20.26,159.68,20.83c52.51,0.48,98.75-5.3,136.9-12.92c0.05,0.21,0.08,0.33,0.08,0.33
	c13.42-2.64,25.89-5.52,37.34-8.46c-16.27-71.22-29.53-139.35-40.35-203.95c-5.88-35.13-10.33-64.96-12.52-92.14
	c-2.59-46.2,0.45-83.41,10.74-121.22c1.71-6.26,3.46-12,5.16-17.14c2.49-7.25,4.6-12.99,4.61-13.01h-0.03
	c0.49-1.31,0.97-2.55,1.42-3.71c-1.63,0.06-4.09-0.01-6.87-0.87c-21.85-6.75-26.53-50.76-28.33-67.7
	c-0.78-7.34-0.82-29.01-0.86-72.04c-0.01-7.33-0.01-13.36,0-17.36c-13.16-3.76-26.33-7.53-39.49-11.29
	c-10.39,5.44-31.49,14.72-59.61,14.91c-29.14,0.2-50.99-9.45-61.43-14.91C93.31,3.58,79.58,7.34,65.84,11.1
	c0.19,6.15,2.94,100.77-9.45,132.81c-2.77,7.17-8.94,23.13-20.6,25.17c-2.2,0.39-4.07,0.19-5.15,0c0.88,2.13,1.83,4.5,2.83,7.1
	c1.81,6.45,4.22,15.58,6.62,26.58c8.74,40,13.55,80.12,10.3,128.47c-2.31,34.32-7.54,73.35-13.79,111.39
	c-9.79,55.76-21.43,114.04-35.26,174.57C0.97,618.78,0.71,619.83,0.6,620.29z"/>
<g class="st0">
	<linearGradient id="SVGID_1_" gradientUnits="userSpaceOnUse" x1="65.5513" y1="33.9313" x2="176.2921" y2="33.9313">
		
		
		<stop class="Gradient1 stopColor" offset="0.3636" style="stop-color:#95529F"/>
		
		<stop class="Gradient2 stopColor" offset="0.8289" style="stop-color:#DFB346"/>
		
	</linearGradient>
	<path class="st1" d="M176.29,22c-0.3-0.84-0.6-1.67-0.88-2.5L65.56,45.65c0,0.92,0,1.82,0,2.71L176.29,22z"/>
	<linearGradient id="SVGID_2_" gradientUnits="userSpaceOnUse" x1="65.5674" y1="25.0439" x2="147.6762" y2="25.0439">
		
		
		<stop class="Gradient1 stopColor" offset="0.3636" style="stop-color:#95529F"/>
		
		<stop class="Gradient2 stopColor" offset="0.8289" style="stop-color:#DFB346"/>
		
	</linearGradient>
	<path class="st2" d="M65.57,36.75l82.11-19.95c-0.33-1.17-0.64-2.32-0.93-3.46L65.57,33.07C65.57,34.31,65.57,35.54,65.57,36.75z"
		/>
	<linearGradient id="SVGID_3_" gradientUnits="userSpaceOnUse" x1="249.9571" y1="79.9993" x2="269.2823" y2="79.9993">
		
		
		<stop class="Gradient1 stopColor" offset="0.3636" style="stop-color:#95529F"/>
		
		<stop class="Gradient2 stopColor" offset="0.8289" style="stop-color:#DFB346"/>
		
	</linearGradient>
	<path class="st3" d="M249.96,81.15l0.56,2.3l18.76-4.5c-0.04-0.8-0.07-1.61-0.1-2.41L249.96,81.15z"/>
	<linearGradient id="SVGID_4_" gradientUnits="userSpaceOnUse" x1="209.5085" y1="7.7045" x2="246.9538" y2="7.7045">
		
		
		<stop class="Gradient1 stopColor" offset="0.3636" style="stop-color:#95529F"/>
		
		<stop class="Gradient2 stopColor" offset="0.8289" style="stop-color:#DFB346"/>
		
	</linearGradient>
	<path class="st4" d="M234.42,1.5l-7.62,1.82c-0.32,2.07-16.84,8.22-17.3,10.59l37.45-9.01C242.78,3.77,238.6,2.63,234.42,1.5z"/>
	<linearGradient id="SVGID_5_" gradientUnits="userSpaceOnUse" x1="197.7738" y1="12.1648" x2="252.0145" y2="12.1648">
		
		
		<stop class="Gradient1 stopColor" offset="0.3636" style="stop-color:#95529F"/>
		
		<stop class="Gradient2 stopColor" offset="0.8289" style="stop-color:#DFB346"/>
		
	</linearGradient>
	<path class="st5" d="M197.77,17.24l0.5,1.87l53.74-12.82c-1.29-0.35-2.59-0.7-3.88-1.06L197.77,17.24z"/>
	<linearGradient id="SVGID_6_" gradientUnits="userSpaceOnUse" x1="88.0853" y1="28.6779" x2="260.4942" y2="28.6779">
		
		
		<stop class="Gradient1 stopColor" offset="0.3636" style="stop-color:#95529F"/>
		
		<stop class="Gradient2 stopColor" offset="0.8289" style="stop-color:#DFB346"/>
		
	</linearGradient>
	<path class="st6" d="M260.49,8.59c-1.28-0.35-2.56-0.7-3.84-1.04L115.78,41.34c0-0.01-0.01-0.01-0.01-0.02l-27.69,6.64l0.45,1.85
		l25.02-6c0,0.01,0,0.02-0.01,0.03L260.49,8.59z"/>
	<linearGradient id="SVGID_7_" gradientUnits="userSpaceOnUse" x1="60.9725" y1="99.6659" x2="269.165" y2="99.6659">
		
		
		<stop class="Gradient1 stopColor" offset="0.3636" style="stop-color:#95529F"/>
		
		<stop class="Gradient2 stopColor" offset="0.8289" style="stop-color:#DFB346"/>
		
	</linearGradient>
	<path class="st7" d="M269.16,76.22c-0.04-0.99-0.08-1.98-0.12-2.96l-113.12,27.06c-0.01,0.01-0.02,0.02-0.04,0.03l-5.32,1.27
		l0.32,1.18l-89.56,21.44c-0.12,0.6-0.24,1.21-0.36,1.82l100.26-24.01c-0.01-0.01-0.01-0.01-0.02-0.02L269.16,76.22z"/>
	<linearGradient id="SVGID_8_" gradientUnits="userSpaceOnUse" x1="49.4771" y1="219.9388" x2="296.7971" y2="219.9388">
		
		
		<stop class="Gradient1 stopColor" offset="0.3636" style="stop-color:#95529F"/>
		
		<stop class="Gradient2 stopColor" offset="0.8289" style="stop-color:#DFB346"/>
		
	</linearGradient>
	<path class="st8" d="M296.8,188.89L49.48,248.12c0.12,0.95,0.21,1.91,0.32,2.87l245.92-58.89
		C296.08,191,296.44,189.94,296.8,188.89z"/>
	<linearGradient id="SVGID_9_" gradientUnits="userSpaceOnUse" x1="50.0968" y1="225.3837" x2="294.7705" y2="225.3837">
		
		
		<stop class="Gradient1 stopColor" offset="0.3636" style="stop-color:#95529F"/>
		
		<stop class="Gradient2 stopColor" offset="0.8289" style="stop-color:#DFB346"/>
		
	</linearGradient>
	<path class="st9" d="M50.1,253.59c0.08,0.73,0.17,1.45,0.24,2.19L294,197.42c0.26-0.82,0.51-1.63,0.77-2.43L50.1,253.59z"/>
	<linearGradient id="SVGID_10_" gradientUnits="userSpaceOnUse" x1="107.2124" y1="173.7318" x2="282.7679" y2="173.7318">
		
		
		<stop class="Gradient1 stopColor" offset="0.3636" style="stop-color:#95529F"/>
		
		<stop class="Gradient2 stopColor" offset="0.8289" style="stop-color:#DFB346"/>
		
	</linearGradient>
	<path class="st10" d="M107.21,193.6l0.57,2.07l174.98-41.9c-0.34-0.66-0.67-1.32-0.99-1.97L107.21,193.6z"/>
	<linearGradient id="SVGID_11_" gradientUnits="userSpaceOnUse" x1="50.4772" y1="229.297" x2="293.4883" y2="229.297">
		
		
		<stop class="Gradient1 stopColor" offset="0.3636" style="stop-color:#95529F"/>
		
		<stop class="Gradient2 stopColor" offset="0.8289" style="stop-color:#DFB346"/>
		
	</linearGradient>
	<path class="st11" d="M50.48,257.28c0.07,0.74,0.13,1.49,0.2,2.23l242.07-57.97c0.25-0.83,0.5-1.65,0.74-2.46L50.48,257.28z"/>
	<linearGradient id="SVGID_12_" gradientUnits="userSpaceOnUse" x1="44.5469" y1="191.1776" x2="288.842" y2="191.1776">
		
		
		<stop class="Gradient1 stopColor" offset="0.3636" style="stop-color:#95529F"/>
		
		<stop class="Gradient2 stopColor" offset="0.8289" style="stop-color:#DFB346"/>
		
	</linearGradient>
	<path class="st12" d="M44.55,219.37c0.13,0.6,0.25,1.2,0.38,1.8l243.91-58.42c-0.46-0.51-0.91-1.03-1.34-1.57L44.55,219.37z"/>
	<linearGradient id="SVGID_13_" gradientUnits="userSpaceOnUse" x1="143.8106" y1="171.6213" x2="283.8648" y2="171.6213">
		
		
		<stop class="Gradient1 stopColor" offset="0.3636" style="stop-color:#95529F"/>
		
		<stop class="Gradient2 stopColor" offset="0.8289" style="stop-color:#DFB346"/>
		
	</linearGradient>
	<path class="st13" d="M143.81,187.36l0.48,1.85l139.57-33.43c-0.33-0.58-0.65-1.15-0.96-1.73L143.81,187.36z"/>
	<linearGradient id="SVGID_14_" gradientUnits="userSpaceOnUse" x1="39.7007" y1="172.968" x2="280.7779" y2="172.968">
		
		
		<stop class="Gradient1 stopColor" offset="0.3636" style="stop-color:#95529F"/>
		
		<stop class="Gradient2 stopColor" offset="0.8289" style="stop-color:#DFB346"/>
		
	</linearGradient>
	<path class="st14" d="M238.26,150.82l0.38,1.52L39.7,200.02c0.26,0.93,0.53,1.87,0.79,2.83c0.15,0.56,0.29,1.12,0.44,1.68
		l11.25-2.7l0.6,2.46l228-54.67c-0.98-2.21-1.78-4.25-2.4-5.85c-0.29-0.75-0.57-1.55-0.85-2.37L238.26,150.82z"/>
	<linearGradient id="SVGID_15_" gradientUnits="userSpaceOnUse" x1="46.4512" y1="199.5897" x2="303.5099" y2="199.5897">
		
		
		<stop class="Gradient1 stopColor" offset="0.3636" style="stop-color:#95529F"/>
		
		<stop class="Gradient2 stopColor" offset="0.8289" style="stop-color:#DFB346"/>
		
	</linearGradient>
	<path class="st15" d="M46.78,230.57l256.73-61.49c-1.11,0.13-2.63,0.19-4.38-0.11c-0.48-0.08-0.94-0.23-1.41-0.36L46.45,228.79
		C46.56,229.39,46.67,229.98,46.78,230.57z"/>
	<linearGradient id="SVGID_16_" gradientUnits="userSpaceOnUse" x1="51.5836" y1="244.3813" x2="289.0851" y2="244.3813">
		
		
		<stop class="Gradient1 stopColor" offset="0.3636" style="stop-color:#95529F"/>
		
		<stop class="Gradient2 stopColor" offset="0.8289" style="stop-color:#DFB346"/>
		
	</linearGradient>
	<path class="st16" d="M51.58,271.69c0.04,0.75,0.07,1.51,0.1,2.26l236.78-56.7c0.2-0.81,0.41-1.62,0.61-2.44L51.58,271.69z"/>
	<linearGradient id="SVGID_17_" gradientUnits="userSpaceOnUse" x1="50.778" y1="232.7657" x2="292.3806" y2="232.7657">
		
		
		<stop class="Gradient1 stopColor" offset="0.3636" style="stop-color:#95529F"/>
		
		<stop class="Gradient2 stopColor" offset="0.8289" style="stop-color:#DFB346"/>
		
	</linearGradient>
	<path class="st17" d="M50.78,260.62c0.06,0.72,0.14,1.43,0.19,2.15l240.72-57.65c0.23-0.79,0.46-1.58,0.69-2.36L50.78,260.62z"/>
	<linearGradient id="SVGID_18_" gradientUnits="userSpaceOnUse" x1="51.0648" y1="237.2346" x2="291.3331" y2="237.2346">
		
		
		<stop class="Gradient1 stopColor" offset="0.3636" style="stop-color:#95529F"/>
		
		<stop class="Gradient2 stopColor" offset="0.8289" style="stop-color:#DFB346"/>
		
	</linearGradient>
	<path class="st18" d="M291.33,206.38L51.06,263.92c0.11,1.38,0.19,2.78,0.28,4.17l238.75-57.18
		C290.5,209.41,290.9,207.9,291.33,206.38z"/>
	<linearGradient id="SVGID_19_" gradientUnits="userSpaceOnUse" x1="227.2576" y1="-0.1353" x2="228.4504" y2="-0.1353">
		
		
		<stop class="Gradient1 stopColor" offset="0.3636" style="stop-color:#95529F"/>
		
		<stop class="Gradient2 stopColor" offset="0.8289" style="stop-color:#DFB346"/>
		
	</linearGradient>
	<path class="st19" d="M228.45-0.13c-0.37-0.1-0.74-0.2-1.11-0.3c-0.02,0.19-0.05,0.39-0.08,0.59L228.45-0.13z"/>
	<linearGradient id="SVGID_20_" gradientUnits="userSpaceOnUse" x1="65.5784" y1="17.3261" x2="124.576" y2="17.3261">
		
		
		<stop class="Gradient1 stopColor" offset="0.3636" style="stop-color:#95529F"/>
		
		<stop class="Gradient2 stopColor" offset="0.8289" style="stop-color:#DFB346"/>
		
	</linearGradient>
	<path class="st20" d="M65.58,25.86l59-14.36c-0.2-0.92-0.38-1.82-0.56-2.71L65.58,23.01C65.58,23.93,65.58,24.89,65.58,25.86z"/>
	<linearGradient id="SVGID_21_" gradientUnits="userSpaceOnUse" x1="65.5773" y1="7.4185" x2="105.8679" y2="7.4185">
		
		
		<stop class="Gradient1 stopColor" offset="0.3636" style="stop-color:#95529F"/>
		
		<stop class="Gradient2 stopColor" offset="0.8289" style="stop-color:#DFB346"/>
		
	</linearGradient>
	<path class="st21" d="M65.58,13.11l40.29-9.65c-0.08-0.59-0.16-1.17-0.23-1.73L93.8,4.56l0.16,0.61l-28.39,6.8
		C65.58,12.34,65.58,12.71,65.58,13.11z"/>
	<linearGradient id="SVGID_22_" gradientUnits="userSpaceOnUse" x1="65.5564" y1="30.6926" x2="175.3043" y2="30.6926">
		
		
		<stop class="Gradient1 stopColor" offset="0.3636" style="stop-color:#95529F"/>
		
		<stop class="Gradient2 stopColor" offset="0.8289" style="stop-color:#DFB346"/>
		
	</linearGradient>
	<path class="st22" d="M174.29,16.08L68.95,41.15l0.36,1.4l-3.75,0.9c0,0.63,0,1.24,0,1.86L175.3,19.18
		C174.95,18.13,174.61,17.1,174.29,16.08z"/>
	<linearGradient id="SVGID_23_" gradientUnits="userSpaceOnUse" x1="65.565" y1="28.1297" x2="148.265" y2="28.1297">
		
		
		<stop class="Gradient1 stopColor" offset="0.3636" style="stop-color:#95529F"/>
		
		<stop class="Gradient2 stopColor" offset="0.8289" style="stop-color:#DFB346"/>
		
	</linearGradient>
	<path class="st23" d="M65.57,38.9l82.7-20.08c-0.14-0.49-0.29-0.97-0.43-1.46L65.57,37.34C65.57,37.86,65.57,38.38,65.57,38.9z"/>
	<linearGradient id="SVGID_24_" gradientUnits="userSpaceOnUse" x1="56.452" y1="113.8196" x2="269.9827" y2="113.8196">
		
		
		<stop class="Gradient1 stopColor" offset="0.3636" style="stop-color:#95529F"/>
		
		<stop class="Gradient2 stopColor" offset="0.8289" style="stop-color:#DFB346"/>
		
	</linearGradient>
	<path class="st24" d="M269.57,84.77l-57.84,13.86l0.43,1.71l-29.43,7.05l0.3,1.19l-125.19,30c-0.44,1.45-0.9,2.88-1.4,4.29
		l213.53-51.16C269.83,89.4,269.69,87.09,269.57,84.77z"/>
	<linearGradient id="SVGID_25_" gradientUnits="userSpaceOnUse" x1="46.0043" y1="148.7753" x2="273.1856" y2="148.7753">
		
		
		<stop class="Gradient1 stopColor" offset="0.3636" style="stop-color:#95529F"/>
		
		<stop class="Gradient2 stopColor" offset="0.8289" style="stop-color:#DFB346"/>
		
	</linearGradient>
	<path class="st25" d="M46,175.22l0.39,1.47l226.79-54.31c-0.08-0.5-0.15-1-0.23-1.51L46,175.22z"/>
	<linearGradient id="SVGID_26_" gradientUnits="userSpaceOnUse" x1="228.5962" y1="118.2958" x2="272.2582" y2="118.2958">
		
		
		<stop class="Gradient1 stopColor" offset="0.3636" style="stop-color:#95529F"/>
		
		<stop class="Gradient2 stopColor" offset="0.8289" style="stop-color:#DFB346"/>
		
	</linearGradient>
	<path class="st26" d="M271.6,110.42l-24.65,5.91l0.59,2.47l-18.95,4.54l0.72,2.82l42.94-10.29
		C272.03,114.09,271.81,112.27,271.6,110.42z"/>
	<linearGradient id="SVGID_27_" gradientUnits="userSpaceOnUse" x1="35.7337" y1="159.3443" x2="274.9128" y2="159.3443">
		
		
		<stop class="Gradient1 stopColor" offset="0.3636" style="stop-color:#95529F"/>
		
		<stop class="Gradient2 stopColor" offset="0.8289" style="stop-color:#DFB346"/>
		
	</linearGradient>
	<path class="st27" d="M35.73,187.03c0.2,0.6,0.39,1.21,0.59,1.82l238.59-57.15c-0.13-0.61-0.26-1.24-0.39-1.87L35.73,187.03z"/>
	<linearGradient id="SVGID_28_" gradientUnits="userSpaceOnUse" x1="261.4271" y1="94.4194" x2="270.1755" y2="94.4194">
		
		
		<stop class="Gradient1 stopColor" offset="0.3636" style="stop-color:#95529F"/>
		
		<stop class="Gradient2 stopColor" offset="0.8289" style="stop-color:#DFB346"/>
		
	</linearGradient>
	<path class="st28" d="M261.43,94.4l0.51,2.1l8.24-1.98c-0.05-0.73-0.1-1.45-0.15-2.18L261.43,94.4z"/>
	<linearGradient id="SVGID_29_" gradientUnits="userSpaceOnUse" x1="65.5784" y1="9.283" x2="106.1059" y2="9.283">
		
		
		<stop class="Gradient1 stopColor" offset="0.3636" style="stop-color:#95529F"/>
		
		<stop class="Gradient2 stopColor" offset="0.8289" style="stop-color:#DFB346"/>
		
	</linearGradient>
	<path class="st29" d="M106.11,5.11c-0.07-0.47-0.13-0.92-0.2-1.37L65.58,13.4c0,0.46,0,0.93,0,1.42L106.11,5.11z"/>
	<linearGradient id="SVGID_30_" gradientUnits="userSpaceOnUse" x1="139.344" y1="31.3047" x2="268.7417" y2="31.3047">
		
		
		<stop class="Gradient1 stopColor" offset="0.3636" style="stop-color:#95529F"/>
		
		<stop class="Gradient2 stopColor" offset="0.8289" style="stop-color:#DFB346"/>
		
	</linearGradient>
	<path class="st30" d="M139.82,45.9c-0.15,0.51-0.31,1.03-0.47,1.55L268.71,16.6c0.01-0.51,0.02-1,0.03-1.45L139.82,45.9z"/>
	<linearGradient id="SVGID_31_" gradientUnits="userSpaceOnUse" x1="138.2692" y1="34.7385" x2="268.6653" y2="34.7385">
		
		
		<stop class="Gradient1 stopColor" offset="0.3636" style="stop-color:#95529F"/>
		
		<stop class="Gradient2 stopColor" offset="0.8289" style="stop-color:#DFB346"/>
		
	</linearGradient>
	<path class="st31" d="M138.65,49.65c-0.13,0.39-0.25,0.78-0.38,1.17l130.37-31.09c0.01-0.37,0.01-0.73,0.02-1.09L138.65,49.65z"/>
	<linearGradient id="SVGID_32_" gradientUnits="userSpaceOnUse" x1="65.456" y1="48.6751" x2="268.5786" y2="48.6751">
		
		
		<stop class="Gradient1 stopColor" offset="0.3636" style="stop-color:#95529F"/>
		
		<stop class="Gradient2 stopColor" offset="0.8289" style="stop-color:#DFB346"/>
		
	</linearGradient>
	<path class="st32" d="M268.58,23.68l-49.97,11.97c0,0,0,0.01,0,0.01L65.47,72.33c0,0.45-0.01,0.9-0.01,1.35l154.86-37.08
		c0,0,0,0,0-0.01l48.24-11.55C268.57,24.57,268.57,24.12,268.58,23.68z"/>
	<linearGradient id="SVGID_33_" gradientUnits="userSpaceOnUse" x1="198.6769" y1="64.8421" x2="268.6046" y2="64.8421">
		
		
		<stop class="Gradient1 stopColor" offset="0.3636" style="stop-color:#95529F"/>
		
		<stop class="Gradient2 stopColor" offset="0.8289" style="stop-color:#DFB346"/>
		
	</linearGradient>
	<path class="st33" d="M198.73,73.17c-0.02,0.02-0.03,0.04-0.05,0.07l69.93-16.77c0-0.01,0-0.02,0-0.03L198.73,73.17z"/>
	<linearGradient id="SVGID_34_" gradientUnits="userSpaceOnUse" x1="196.8346" y1="66.6355" x2="268.6411" y2="66.6355">
		
		
		<stop class="Gradient1 stopColor" offset="0.3636" style="stop-color:#95529F"/>
		
		<stop class="Gradient2 stopColor" offset="0.8289" style="stop-color:#DFB346"/>
		
	</linearGradient>
	<path class="st34" d="M197.72,74.54c-0.29,0.39-0.59,0.78-0.89,1.17l71.81-17.22c-0.01-0.31-0.01-0.62-0.02-0.93L197.72,74.54z"/>
	<linearGradient id="SVGID_35_" gradientUnits="userSpaceOnUse" x1="199.2655" y1="63.2707" x2="268.5941" y2="63.2707">
		
		
		<stop class="Gradient1 stopColor" offset="0.3636" style="stop-color:#95529F"/>
		
		<stop class="Gradient2 stopColor" offset="0.8289" style="stop-color:#DFB346"/>
		
	</linearGradient>
	<path class="st35" d="M200.73,70.36c-0.48,0.7-0.97,1.39-1.47,2.08l69.33-16.62c-0.01-0.58-0.02-1.15-0.03-1.73L200.73,70.36z"/>
	<linearGradient id="SVGID_36_" gradientUnits="userSpaceOnUse" x1="65.2798" y1="62.1503" x2="268.4673" y2="62.1503">
		
		
		<stop class="Gradient1 stopColor" offset="0.3636" style="stop-color:#95529F"/>
		
		<stop class="Gradient2 stopColor" offset="0.8289" style="stop-color:#DFB346"/>
		
	</linearGradient>
	<path class="st36" d="M268.47,36.59l-55.88,13.38c-0.02,0.05-0.05,0.09-0.07,0.14L90.28,79.26l0.24,0.91l-25.21,6.04
		c-0.01,0.51-0.02,1.01-0.03,1.5l150.2-35.85c-0.03-0.04-0.05-0.07-0.08-0.11l53.06-12.71C268.46,38.21,268.47,37.39,268.47,36.59z"
		/>
	<linearGradient id="SVGID_37_" gradientUnits="userSpaceOnUse" x1="129.5582" y1="60.9512" x2="268.4785" y2="60.9512">
		
		
		<stop class="Gradient1 stopColor" offset="0.3636" style="stop-color:#95529F"/>
		
		<stop class="Gradient2 stopColor" offset="0.8289" style="stop-color:#DFB346"/>
		
	</linearGradient>
	<path class="st37" d="M130.6,76.54c-0.34,0.61-0.69,1.23-1.04,1.84l138.92-33.28c0-0.54,0-1.06-0.01-1.59L130.6,76.54z"/>
</g>
<g>
	<linearGradient id="SVGID_38_" gradientUnits="userSpaceOnUse" x1="2.5088" y1="572.8724" x2="315.7584" y2="572.8724">
		
		
		<stop class="Gradient2 stopColor" offset="0.4805" style="stop-color:#B8529E"/>
		
		<stop class="Gradient1 stopColor" offset="0.9801" style="stop-color:#3E53A3"/>
		
	</linearGradient>
	<path class="st38" d="M2.51,613.16l37.51-8.99l-0.43-1.71l29.43-7.05l-0.3-1.19l194.15-46.53l-0.23-0.91l53.12-12.72
		c-0.1-0.49-0.2-0.98-0.3-1.47l-55.93,13.4l-0.34-1.37L4.26,605.7C3.6,608.56,3.01,611.06,2.51,613.16z"/>
	<linearGradient id="SVGID_39_" gradientUnits="userSpaceOnUse" x1="3.8484" y1="584.5959" x2="318.6034" y2="584.5959">
		
		
		<stop class="Gradient2 stopColor" offset="0.4805" style="stop-color:#B8529E"/>
		
		<stop class="Gradient1 stopColor" offset="0.9801" style="stop-color:#3E53A3"/>
		
	</linearGradient>
	<path class="st39" d="M10.04,622.99l91.14-21.83l-0.32-1.18l217.75-52.14c-0.11-0.55-0.23-1.1-0.35-1.65L3.85,621.48
		C5.88,621.99,7.94,622.49,10.04,622.99z"/>
	<linearGradient id="SVGID_40_" gradientUnits="userSpaceOnUse" x1="16.7137" y1="512.7285" x2="304.7492" y2="512.7285">
		
		
		<stop class="Gradient2 stopColor" offset="0.4805" style="stop-color:#B8529E"/>
		
		<stop class="Gradient1 stopColor" offset="0.9801" style="stop-color:#3E53A3"/>
		
	</linearGradient>
	<path class="st40" d="M16.71,549.6l200.82-48.13l-0.63-2.56l87.85-21.04c-0.13-0.67-0.25-1.34-0.38-2.01l-104.8,25.1l-0.6-2.46
		L18.35,541.81C17.8,544.46,17.25,547.05,16.71,549.6z"/>
	<linearGradient id="SVGID_41_" gradientUnits="userSpaceOnUse" x1="137.2142" y1="629.9659" x2="229.5282" y2="629.9659">
		
		
		<stop class="Gradient2 stopColor" offset="0.4805" style="stop-color:#B8529E"/>
		
		<stop class="Gradient1 stopColor" offset="0.9801" style="stop-color:#3E53A3"/>
		
	</linearGradient>
	<path class="st41" d="M229.19,618.85l-91.98,22.03c1.58,0.07,3.17,0.14,4.77,0.2l87.54-20.97L229.19,618.85z"/>
	<linearGradient id="SVGID_42_" gradientUnits="userSpaceOnUse" x1="13.5756" y1="533.6968" x2="261.0121" y2="533.6968">
		
		
		<stop class="Gradient2 stopColor" offset="0.4805" style="stop-color:#B8529E"/>
		
		<stop class="Gradient1 stopColor" offset="0.9801" style="stop-color:#3E53A3"/>
		
	</linearGradient>
	<path class="st42" d="M261.01,504.99l-0.48-1.85L14.02,562.18c-0.15,0.69-0.3,1.39-0.45,2.07L261.01,504.99z"/>
	<linearGradient id="SVGID_43_" gradientUnits="userSpaceOnUse" x1="11.4197" y1="550.1145" x2="205.7485" y2="550.1145">
		
		
		<stop class="Gradient2 stopColor" offset="0.4805" style="stop-color:#B8529E"/>
		
		<stop class="Gradient1 stopColor" offset="0.9801" style="stop-color:#3E53A3"/>
		
	</linearGradient>
	<path class="st43" d="M205.75,527.58l-0.39-1.47L11.78,572.47c-0.12,0.55-0.24,1.11-0.36,1.65L205.75,527.58z"/>
	<linearGradient id="SVGID_44_" gradientUnits="userSpaceOnUse" x1="277.1121" y1="625.8151" x2="334.601" y2="625.8151">
		
		
		<stop class="Gradient2 stopColor" offset="0.4805" style="stop-color:#B8529E"/>
		
		<stop class="Gradient1 stopColor" offset="0.9801" style="stop-color:#3E53A3"/>
		
	</linearGradient>
	<path class="st44" d="M334.21,618.98l-57.1,13.68c21.23-3.47,40.49-7.64,57.49-11.96C334.47,620.12,334.34,619.55,334.21,618.98z"
		/>
	<linearGradient id="SVGID_45_" gradientUnits="userSpaceOnUse" x1="76.3593" y1="633.5161" x2="94.7362" y2="633.5161">
		
		
		<stop class="Gradient2 stopColor" offset="0.4805" style="stop-color:#B8529E"/>
		
		<stop class="Gradient1 stopColor" offset="0.9801" style="stop-color:#3E53A3"/>
		
	</linearGradient>
	<path class="st45" d="M94.74,632.58l-0.38-1.5l-17.99,4.31c1.42,0.19,2.85,0.38,4.29,0.57L94.74,632.58z"/>
	<linearGradient id="SVGID_46_" gradientUnits="userSpaceOnUse" x1="93.1017" y1="617.2987" x2="264.8501" y2="617.2987">
		
		
		<stop class="Gradient2 stopColor" offset="0.4805" style="stop-color:#B8529E"/>
		
		<stop class="Gradient1 stopColor" offset="0.9801" style="stop-color:#3E53A3"/>
		
	</linearGradient>
	<path class="st46" d="M264.49,596.39L93.1,637.45c2.35,0.26,4.72,0.51,7.12,0.75l61.26-14.67l-0.24-0.91l103.62-24.82
		L264.49,596.39z"/>
	<linearGradient id="SVGID_47_" gradientUnits="userSpaceOnUse" x1="18.8743" y1="523.2093" x2="144.5408" y2="523.2093">
		
		
		<stop class="Gradient2 stopColor" offset="0.4805" style="stop-color:#B8529E"/>
		
		<stop class="Gradient1 stopColor" offset="0.9801" style="stop-color:#3E53A3"/>
		
	</linearGradient>
	<path class="st47" d="M144.54,509.2l-0.57-2.07L19.36,536.97c-0.16,0.78-0.32,1.55-0.48,2.32L144.54,509.2z"/>
	<linearGradient id="SVGID_48_" gradientUnits="userSpaceOnUse" x1="25.9797" y1="613.2667" x2="141.4682" y2="613.2667">
		
		
		<stop class="Gradient2 stopColor" offset="0.4805" style="stop-color:#B8529E"/>
		
		<stop class="Gradient1 stopColor" offset="0.9801" style="stop-color:#3E53A3"/>
		
	</linearGradient>
	<path class="st48" d="M141.47,600.86l-0.46-1.82L25.98,626.6c1.42,0.3,2.85,0.6,4.3,0.9L141.47,600.86z"/>
	<linearGradient id="SVGID_49_" gradientUnits="userSpaceOnUse" x1="49.219" y1="629.4424" x2="66.81" y2="629.4424">
		
		
		<stop class="Gradient2 stopColor" offset="0.4805" style="stop-color:#B8529E"/>
		
		<stop class="Gradient1 stopColor" offset="0.9801" style="stop-color:#3E53A3"/>
		
	</linearGradient>
	<path class="st49" d="M66.81,628.65l-0.41-1.64l-17.19,4.12c1.39,0.25,2.78,0.49,4.19,0.73L66.81,628.65z"/>
	<linearGradient id="SVGID_50_" gradientUnits="userSpaceOnUse" x1="36.6118" y1="627.5823" x2="50.7216" y2="627.5823">
		
		
		<stop class="Gradient2 stopColor" offset="0.4805" style="stop-color:#B8529E"/>
		
		<stop class="Gradient1 stopColor" offset="0.9801" style="stop-color:#3E53A3"/>
		
	</linearGradient>
	<path class="st50" d="M50.72,627.36l-0.45-1.86l-13.66,3.28c1.5,0.3,3.01,0.59,4.53,0.88L50.72,627.36z"/>
	<linearGradient id="SVGID_51_" gradientUnits="userSpaceOnUse" x1="23.2894" y1="485.0699" x2="287.6156" y2="485.0699">
		
		
		<stop class="Gradient2 stopColor" offset="0.4805" style="stop-color:#B8529E"/>
		
		<stop class="Gradient1 stopColor" offset="0.9801" style="stop-color:#3E53A3"/>
		
	</linearGradient>
	<path class="st51" d="M287.62,454.29l-0.46-1.74l-263.48,63.1c-0.13,0.65-0.26,1.3-0.39,1.94L287.62,454.29z"/>
	<linearGradient id="SVGID_52_" gradientUnits="userSpaceOnUse" x1="0.6992" y1="620.1337" x2="1.6198" y2="620.1337">
		
		
		<stop class="Gradient2 stopColor" offset="0.4805" style="stop-color:#B8529E"/>
		
		<stop class="Gradient1 stopColor" offset="0.9801" style="stop-color:#3E53A3"/>
		
	</linearGradient>
	<path class="st52" d="M1.23,619.34l-0.22,0.05c-0.15,0.6-0.26,1.05-0.32,1.3c0.3,0.08,0.62,0.15,0.92,0.23L1.23,619.34z"/>
	<linearGradient id="SVGID_53_" gradientUnits="userSpaceOnUse" x1="32.0639" y1="439.0775" x2="292.5295" y2="439.0775">
		
		
		<stop class="Gradient2 stopColor" offset="0.4805" style="stop-color:#B8529E"/>
		
		<stop class="Gradient1 stopColor" offset="0.9801" style="stop-color:#3E53A3"/>
		
	</linearGradient>
	<path class="st53" d="M292.53,408.99c-0.12-0.74-0.24-1.46-0.36-2.2L32.49,468.98c-0.14,0.8-0.28,1.6-0.43,2.39L292.53,408.99z"/>
	<linearGradient id="SVGID_54_" gradientUnits="userSpaceOnUse" x1="19.4233" y1="525.1176" x2="107.9424" y2="525.1176">
		
		
		<stop class="Gradient2 stopColor" offset="0.4805" style="stop-color:#B8529E"/>
		
		<stop class="Gradient1 stopColor" offset="0.9801" style="stop-color:#3E53A3"/>
		
	</linearGradient>
	<path class="st54" d="M107.94,515.44l-0.48-1.85l-87.61,20.98c-0.14,0.69-0.28,1.38-0.42,2.06L107.94,515.44z"/>
	<linearGradient id="SVGID_55_" gradientUnits="userSpaceOnUse" x1="9.511" y1="579.6718" x2="23.1566" y2="579.6718">
		
		
		<stop class="Gradient2 stopColor" offset="0.4805" style="stop-color:#B8529E"/>
		
		<stop class="Gradient1 stopColor" offset="0.9801" style="stop-color:#3E53A3"/>
		
	</linearGradient>
	<path class="st55" d="M22.44,576.63l-12.22,2.93c-0.24,1.07-0.47,2.12-0.7,3.16l13.65-3.27L22.44,576.63z"/>
	<linearGradient id="SVGID_56_" gradientUnits="userSpaceOnUse" x1="47.6468" y1="623.6475" x2="107.8897" y2="623.6475">
		
		
		<stop class="Gradient2 stopColor" offset="0.4805" style="stop-color:#B8529E"/>
		
		<stop class="Gradient1 stopColor" offset="0.9801" style="stop-color:#3E53A3"/>
		
	</linearGradient>
	<path class="st56" d="M47.77,630.88l60.12-14.39l-0.02-0.07l-60.22,14.44C47.69,630.86,47.73,630.87,47.77,630.88z"/>
	<linearGradient id="SVGID_57_" gradientUnits="userSpaceOnUse" x1="42.8625" y1="615.6072" x2="164.9271" y2="615.6072">
		
		
		<stop class="Gradient2 stopColor" offset="0.4805" style="stop-color:#B8529E"/>
		
		<stop class="Gradient1 stopColor" offset="0.9801" style="stop-color:#3E53A3"/>
		
	</linearGradient>
	<path class="st57" d="M164.46,600.82l-121.6,29.16c0.74,0.14,1.49,0.28,2.24,0.42l62.49-14.96l0.28,0.98l57.06-13.68L164.46,600.82
		z"/>
	<linearGradient id="SVGID_58_" gradientUnits="userSpaceOnUse" x1="21.1991" y1="501.0215" x2="238.8397" y2="501.0215">
		
		
		<stop class="Gradient2 stopColor" offset="0.4805" style="stop-color:#B8529E"/>
		
		<stop class="Gradient1 stopColor" offset="0.9801" style="stop-color:#3E53A3"/>
		
	</linearGradient>
	<path class="st58" d="M238.84,475.85l-0.47-1.78L21.6,525.98c-0.14,0.67-0.27,1.33-0.4,1.99L238.84,475.85z"/>
	<linearGradient id="SVGID_59_" gradientUnits="userSpaceOnUse" x1="27.3936" y1="462.9229" x2="296.4866" y2="462.9229">
		
		
		<stop class="Gradient2 stopColor" offset="0.4805" style="stop-color:#B8529E"/>
		
		<stop class="Gradient1 stopColor" offset="0.9801" style="stop-color:#3E53A3"/>
		
	</linearGradient>
	<path class="st59" d="M27.39,496.56l269.09-64.44c-0.16-0.94-0.33-1.89-0.49-2.83L27.98,493.47
		C27.79,494.5,27.59,495.53,27.39,496.56z"/>
	<linearGradient id="SVGID_60_" gradientUnits="userSpaceOnUse" x1="29.2514" y1="453.807" x2="294.9255" y2="453.807">
		
		
		<stop class="Gradient2 stopColor" offset="0.4805" style="stop-color:#B8529E"/>
		
		<stop class="Gradient1 stopColor" offset="0.9801" style="stop-color:#3E53A3"/>
		
	</linearGradient>
	<path class="st60" d="M294.93,423.09c-0.12-0.73-0.25-1.46-0.38-2.19L29.7,484.33c-0.15,0.8-0.3,1.59-0.44,2.39L294.93,423.09z"/>
	<linearGradient id="SVGID_61_" gradientUnits="userSpaceOnUse" x1="29.9163" y1="450.4224" x2="294.3591" y2="450.4224">
		
		
		<stop class="Gradient2 stopColor" offset="0.4805" style="stop-color:#B8529E"/>
		
		<stop class="Gradient1 stopColor" offset="0.9801" style="stop-color:#3E53A3"/>
		
	</linearGradient>
	<path class="st61" d="M294.36,419.81c-0.12-0.7-0.25-1.41-0.37-2.11L30.34,480.84c-0.14,0.77-0.28,1.54-0.42,2.3L294.36,419.81z"/>
	<linearGradient id="SVGID_62_" gradientUnits="userSpaceOnUse" x1="28.509" y1="457.6201" x2="295.5538" y2="457.6201">
		
		
		<stop class="Gradient2 stopColor" offset="0.4805" style="stop-color:#B8529E"/>
		
		<stop class="Gradient1 stopColor" offset="0.9801" style="stop-color:#3E53A3"/>
		
	</linearGradient>
	<path class="st62" d="M295.55,426.72c-0.12-0.72-0.25-1.44-0.37-2.16L28.95,488.32c-0.15,0.79-0.3,1.57-0.44,2.35L295.55,426.72z"
		/>
	<linearGradient id="SVGID_63_" gradientUnits="userSpaceOnUse" x1="30.5642" y1="446.0613" x2="293.8033" y2="446.0613">
		
		
		<stop class="Gradient2 stopColor" offset="0.4805" style="stop-color:#B8529E"/>
		
		<stop class="Gradient1 stopColor" offset="0.9801" style="stop-color:#3E53A3"/>
		
	</linearGradient>
	<path class="st63" d="M30.56,479.62l263.24-63.04c-0.23-1.37-0.46-2.72-0.68-4.07L31.37,475.19
		C31.1,476.67,30.83,478.14,30.56,479.62z"/>
</g>
<path class="st64" d="M230.7,0.51c13.84,3.76,24.22,6.59,38.06,10.35c-0.2,6.16-2.97,100.85,9.52,132.91
	c2.79,7.17,9.01,23.15,20.76,25.19c2.22,0.39,4.1,0.18,5.19,0c-3.61,8.71-8.49,21.51-12.98,37.35
	c-18.44,65.18-12.74,120.54,2.6,211.1c10.9,64.39,24.26,132.3,40.66,203.28c-41.48,10.53-96.26,20.27-160.9,20.85
	c-70.23,0.63-129.35-9.77-173.01-20.85c1.82-7.43,42.41-174.64,50.17-289.28c3.36-49.63,0.53-88.77-10.38-128.57
	c-3.93-14.34-8.14-25.96-11.25-33.88c1.64,0.07,4.12-0.01,6.92-0.87c22.03-6.76,26.73-50.8,28.55-67.76
	c0.79-7.35,0.82-29.03,0.87-72.1c0.01-7.33,0-13.37,0-17.37C78.74,7.1,92.01,3.33,105.27-0.43"/>
<path class="st65" d="M235.36,1.45"/>
<path class="st65" d="M99.86,1.45"/>
<path class="st65" d="M98.46,1.85c9.82,6.23,35.72,20.83,71.63,20.13c33-0.64,56.75-13.85,66.66-20.15"/>
<g>
	<rect x="110.33" y="214.75" class="st66" width="32.01" height="12.16"/>
	<rect x="195.11" y="214.75" class="st66" width="32.01" height="12.16"/>
	<rect x="195.19" y="322.38" class="st66" width="32.01" height="12.16"/>
	<rect x="110.42" y="322.38" class="st66" width="32.01" height="12.16"/>
	<rect x="110.42" y="310.22" class="st66" width="32.01" height="12.16"/>
	<rect x="195.19" y="310.22" class="st66" width="32.01" height="12.16"/>
</g>
<path class="Colour2 fill" d="M301.6,174.54c-1.86-0.03-4.65-0.28-7.76-1.4c-9.9-3.58-15.53-13.39-18.94-22.09l-0.17,0.72
	c-23.99,82.72-27.43,150.88-26.3,196.53c1.43,58.03,10.92,107.82,21.63,163.97c9.24,48.44,26.82,116.68,26.82,116.68
	c13.52-2.63,26.09-5.5,37.63-8.42c-16.4-70.98-29.75-138.88-40.66-203.28c-15.33-90.56-21.03-145.91-2.6-211.1
	c3.56-12.57,10.63-31.55,10.65-31.6L301.6,174.54z"/>
<path class="Colour2 fill" d="M31.74,174.87c2.64-0.44,6.38-1.36,10.38-3.47c8.1-4.28,13.72-11.59,18.08-22.32l0.18,0.72
	c26.12,99.49,26.18,177.68,21.96,228.53C78.95,419.25,71,464.06,65.91,492.72C56,548.54,36.42,628.59,36.42,628.59
	c-12.87-2.54-24.83-5.28-35.82-8.07c1.82-7.43,42.41-174.64,50.17-289.28c3.36-49.63,0.53-88.77-10.38-128.57
	c-3.02-11.02-6.21-20.43-8.93-27.8L31.74,174.87z"/>
<path class="st67" d="M0.55,620.29c0.01,0,0.03,0.01,0.04,0.01c-0.01,0.06-0.03,0.11-0.04,0.17c0,0,0.01,0,0.01,0
	c0,0.02-0.01,0.04-0.01,0.05c10.98,2.79,22.94,5.53,35.82,8.07c0,0,0-0.01,0-0.01c35.14,6.96,76.87,12.3,123.86,12.72
	c52.31,0.47,98.41-5.26,136.47-12.84c0.08,0.31,0.12,0.48,0.12,0.48c13.52-2.63,26.09-5.5,37.63-8.42
	c-0.02-0.08-0.03-0.15-0.05-0.23c0.05-0.01,0.1-0.03,0.15-0.04c-16.27-71.22-29.53-139.35-40.35-203.95
	c-5.88-35.13-10.33-64.96-12.52-92.14c-2.59-46.2,0.45-83.41,10.74-121.22c0.85-3.11,1.71-6.09,2.57-8.94
	c3.32-9.98,6.84-19.42,6.86-19.46l-0.29,0c0.4-1.1,0.63-1.74,0.64-1.75h-0.03c0.49-1.31,0.97-2.55,1.42-3.71
	c-1.63,0.06-4.09-0.01-6.87-0.87c-21.85-6.75-26.53-50.76-28.33-67.7c-0.78-7.34-0.82-29.01-0.86-72.04
	c-0.01-7.33-0.01-13.36,0-17.36c-13.16-3.76-26.33-7.53-39.49-11.29c-10.39,5.44-31.49,14.72-59.61,14.91
	C139.3,14.93,117.44,5.28,107-0.18C93.26,3.58,79.53,7.34,65.79,11.1c0.19,6.15,2.94,100.77-9.45,132.81
	c-2.77,7.17-8.94,23.13-20.6,25.17c-2.2,0.39-4.07,0.19-5.15,0c0.7,1.7,1.45,3.57,2.24,5.58c-0.4,0.08-0.78,0.15-1.14,0.21l-0.28,0
	c2.26,6.12,4.85,13.68,7.39,22.38c0.41,1.78,0.83,3.62,1.24,5.51c8.74,40,13.55,80.12,10.3,128.47
	c-2.31,34.32-7.54,73.35-13.79,111.39C26.76,498.37,15.12,556.65,1.3,617.18C0.92,618.78,0.66,619.83,0.55,620.29z"/>
<linearGradient id="SVGID_64_" gradientUnits="userSpaceOnUse" x1="110.2849" y1="83.8635" x2="268.8132" y2="83.8635">
	
	
	<stop class="Gradient2 stopColor" offset="0.3636" style="stop-color:#95529F"/>
	
	<stop class="Gradient1 stopColor" offset="0.8289" style="stop-color:#DFB346"/>
	
</linearGradient>
<path class="st68" d="M268.81,65.88c-0.02-0.64-0.03-1.28-0.05-1.92l-77.5,18.57v0v0l-41.27,9.89l-39.71,9.51l0.46,1.82l40.89-9.8
	l37.45-8.97l0,0l0,0L268.81,65.88z"/>
<g>
	<linearGradient id="SVGID_65_" gradientUnits="userSpaceOnUse" x1="86.8257" y1="80.5979" x2="268.6964" y2="80.5979">
		
		
		<stop class="Gradient1 stopColor" offset="0.3636" style="stop-color:#95529F"/>
		
		<stop class="Gradient1 stopColor" offset="0.8289" style="stop-color:#DFB346"/>
		
	</linearGradient>
	<path class="st69" d="M268.65,59.22l-67.62,16.22L86.83,100.06l0.46,1.91l114.19-24.69l67.21-16.12
		C268.68,60.52,268.67,59.87,268.65,59.22z"/>
</g>
<path class="NeckAndArmTrim fill" d="M32.14,174.97c2.64-0.44,6.38-1.36,10.38-3.47c11.79-6.23,18.31-18.86,23.36-39.09
	c5.97-23.9,5.71-41.68,6.06-78.18c0.19-20.28,0.47-36.38,0.65-45.34l-6.7,1.9c0,4,0.01,10.04,0,17.37
	c-0.04,43.07-0.08,64.76-0.87,72.1c-1.81,16.96-6.52,61-28.55,67.76c-2.8,0.86-5.28,0.93-6.92,0.87L32.14,174.97z"/>
<path class="NeckAndArmTrim fill" d="M98.41,1.85c9.82,6.23,35.72,20.83,71.63,20.13c33-0.64,56.75-13.85,66.66-20.15l-8.29-2.26
	C218.22,5.05,197,14.7,168.54,14.95c-29.73,0.26-51.87-9.88-62.1-15.38L98.41,1.85z"/>
<path class="NeckAndArmTrim fill" d="M302.51,174.72c-1.85-0.01-4.78-0.22-8.06-1.41c-14.34-5.19-19.72-23.43-22.38-32.46
	c-11.56-39.2-9.01-124.25-8.76-131.73l6.06,1.74c-0.2,6.16-2.97,100.85,9.52,132.91c2.79,7.17,9.01,23.15,20.76,25.19
	c2.22,0.39,4.1,0.18,5.19,0L302.51,174.72z"/>
<g id="BBodyLogos"></g>
<path class="st70" d="M6.47,601c39.58,11.08,94.55,22.1,160.57,22.3c67.74,0.2,124.02-11.06,164.19-22.3"/>
<path class="st70" d="M5.08,606.99c39.56,11.03,93.72,21.83,158.5,22.39c69.75,0.6,127.72-10.88,169-22.39"/>
</svg>
