<?xml version="1.0" encoding="utf-8"?>
<!-- Generator: Adobe Illustrator 19.1.0, SVG Export Plug-In . SVG Version: 6.00 Build 0)  -->
<svg version="1.1" id="Layer_1" xmlns="http://www.w3.org/2000/svg" xmlns:xlink="http://www.w3.org/1999/xlink" x="0px" y="0px"
	 viewBox="0 0 335.2 641.14" style="enable-background:new 0 0 335.2 641.14;" xml:space="preserve">
<style type="text/css">
	<![CDATA[
	@font-face{font-family:'codaheavy';src:url('/fonts/coda-heavy-webfont.woff') format('woff')}
	text{font-family:Impact,codaheavy,sans-serif}
	.Number.fill{fill:#000}
	.NumberOutline.stroke{fill:none;stroke:#777;stroke-width:2.5}
	.Colour1.fill{fill:#CCCBCB;}
	.Colour2.fill{fill:#333333;}
	.Colour3.fill{fill:#959595;}
	.Colour4.fill{fill:#676767;}
	.NeckAndArmTrim.fill{fill:#333333;stroke:#000000;stroke-miterlimit:10;}
	.st0{fill:none;stroke:#000000;stroke-miterlimit:10;}
	.st1{fill:none;stroke:#000000;stroke-linecap:round;stroke-linejoin:round;}
	.st2{fill:#FFFFFF;stroke:#000000;}
	]]>
</style>
<g>
	<g>
		<path class="Colour1 fill" d="M291.1,206.63c4.47-15.83,9.35-28.62,12.95-37.33c-1.09,0.18-2.97,0.39-5.18,0
			c-11.73-2.04-17.94-18.01-20.73-25.17c-12.46-32.03-9.7-126.66-9.5-132.82c-13.82-3.76-26.38-7.7-40.2-11.47
			c0,21.5-123.03,21.68-123.03,0.18C92.17,3.78,78.93,7.55,65.69,11.31c0,4,0.01,10.03,0,17.36c-0.04,43.04-0.08,64.71-0.86,72.05
			c-1.81,16.94-6.51,60.96-28.5,67.71c-2.79,0.86-5.27,0.93-6.91,0.87c3.1,7.91,7.3,19.53,11.23,33.86
			c10.89,39.77,13.72,78.88,10.36,128.48C43.25,446.19,2.73,613.29,0.91,620.71c43.59,11.07,102.61,21.46,172.73,20.83
			c64.53-0.58,119.22-10.31,160.64-20.83c-16.37-70.93-29.71-138.78-40.59-203.13C278.39,327.08,272.7,271.76,291.1,206.63z"/>
	</g>
	<g>
		<path class="Colour1 fill" d="M291.1,206.63c4.47-15.83,9.35-28.62,12.95-37.33c-1.09,0.18-2.97,0.39-5.18,0
			c-11.73-2.04-17.94-18.01-20.73-25.17c-12.46-32.03-9.7-126.66-9.5-132.82c-13.82-3.76-26.38-7.7-40.2-11.47
			c0,21.5-123.03,21.68-123.03,0.18C92.17,3.78,78.93,7.55,65.69,11.31c0,4,0.01,10.03,0,17.36c-0.04,43.04-0.08,64.71-0.86,72.05
			c-1.81,16.94-6.51,60.96-28.5,67.71c-2.79,0.86-5.27,0.93-6.91,0.87c3.1,7.91,7.3,19.53,11.23,33.86
			c10.89,39.77,13.72,78.88,10.36,128.48C43.25,446.19,2.73,613.29,0.91,620.71c43.59,11.07,102.61,21.46,172.73,20.83
			c64.53-0.58,119.22-10.31,160.64-20.83c-16.37-70.93-29.71-138.78-40.59-203.13C278.39,327.08,272.7,271.76,291.1,206.63z"/>
	</g>
</g>
<path class="st0" d="M234.41,1.9"/>
<path class="st0" d="M99.11,1.9"/>
<path class="st0" d="M234.41,1.9"/>
<path class="st0" d="M99.12,1.9"/>
<path class="Colour2 fill" d="M68.9,459.95v-13.08l86.76-41.04v12.56L68.9,459.95z M268.3,459.95v-13.08l-86.76-41.04v12.56L268.3,459.95
	z M285.12,513.67V500.7L167.6,445.45l-117.52,56.3v12.97l117.52-56.3L285.12,513.67z M178.62,282.98v11.59l80.05-37.87v-12.07
	L178.62,282.98z M74.69,244.63v12.07l80.05,37.87v-11.59L74.69,244.63z M59.17,195.07v11.97l108.43,50.97l108.43-51.94V194.1
	L167.6,246.04L59.17,195.07z"/>
<path class="Colour3 fill" d="M285.12,555.13l-117.16-54.61L50.08,555.13v-40.41l117.52-56.3l117.52,55.25V555.13z M59.17,195.07
	l108.43,50.97l108.43-51.94v-37.28l-108.76,50.39l-108.1-50.39V195.07z"/>
<path class="Colour4 fill" d="M68.9,446.87v-18.94l65.96-30.39v18.13L68.9,446.87z M268.3,446.87v-18.94l-65.96-30.39v18.13L268.3,446.87
	z M285.12,500.7v-18.11L167.6,427.34l-117.52,56.3v18.11l117.52-56.3L285.12,500.7z M285.12,540.36v-12.97L167.6,472.14
	l-117.52,56.3v12.97l117.52-56.3L285.12,540.36z M197.81,285.49v16.73l60.86-28.04v-17.48L197.81,285.49z M74.69,256.71v17.48
	l60.86,28.04v-16.73L74.69,256.71z M59.17,207.04v16.71l108.43,50.97l108.43-51.94v-16.71L167.6,258.01L59.17,207.04z M59.17,170.44
	v11.97l108.43,50.97l108.43-51.94v-11.97L167.6,221.42L59.17,170.44z"/>
<path class="Colour2 fill" d="M301.75,175.04c-1.86-0.03-4.65-0.28-7.74-1.4c-9.89-3.58-15.51-13.38-18.91-22.07l-0.17,0.72
	c-23.95,82.66-27.38,150.77-26.26,196.39c1.43,57.99,10.9,107.74,21.59,163.85c9.22,48.41,26.77,116.6,26.77,116.6
	c13.5-2.62,26.05-5.49,37.57-8.42c-16.37-70.93-29.71-138.78-40.59-203.13c-15.31-90.5-21-145.81-2.59-210.95
	c3.55-12.56,10.62-31.53,10.64-31.58L301.75,175.04z"/>
<path class="Colour2 fill" d="M31.69,175.38c2.64-0.44,6.37-1.36,10.36-3.47c8.09-4.28,13.7-11.58,18.05-22.3l0.18,0.72
	c26.08,99.42,26.14,177.55,21.93,228.37c-3.39,40.89-11.33,85.66-16.41,114.3c-9.89,55.78-29.45,135.77-29.45,135.77
	c-12.85-2.53-24.79-5.28-35.76-8.06c1.82-7.42,42.34-174.52,50.09-289.08c3.36-49.6,0.53-88.71-10.36-128.48
	c-3.02-11.01-6.2-20.42-8.92-27.78L31.69,175.38z"/>
<g>
	<path class="st1" d="M301.74,175.04c0.81-2.07,1.59-3.99,2.32-5.74c-1.09,0.18-2.97,0.39-5.18,0
		c-11.73-2.04-17.94-18.01-20.73-25.17c-12.46-32.03-9.7-126.66-9.5-132.82c-13.82-3.76-26.38-7.7-40.2-11.47
		c0,21.5-123.03,21.68-123.03,0.18C92.17,3.78,78.93,7.55,65.69,11.31c0,4,0.01,10.03,0,17.36c-0.04,43.04-0.08,64.71-0.86,72.05
		c-1.81,16.94-6.51,60.96-28.5,67.71c-2.79,0.86-5.27,0.93-6.91,0.87c0.72,1.83,1.49,3.86,2.31,6.07"/>
	<path class="st1" d="M297.02,629.07c-35.1,6.84-76.65,12.06-123.37,12.48c-52.62,0.47-98.99-5.26-137.27-12.83"/>
	<path class="st1" d="M301.74,175.04c-3.24,8.24-7.06,18.94-10.64,31.59c-18.41,65.14-12.72,120.45,2.59,210.95
		c10.89,64.35,24.22,132.2,40.59,203.13c-11.43,2.91-23.89,5.75-37.27,8.36"/>
	<path class="st1" d="M31.72,175.37c2.72,7.36,5.9,16.77,8.92,27.78c10.89,39.77,13.72,78.88,10.36,128.48
		C43.25,446.19,2.73,613.29,0.91,620.71c10.88,2.76,22.72,5.49,35.46,8"/>
	<path class="st1" d="M301.74,175.04c-1.86-0.03-4.64-0.28-7.74-1.4c-9.89-3.58-15.51-13.38-18.91-22.07l-0.17,0.72
		c-23.95,82.66-27.38,150.77-26.26,196.39c1.43,57.99,10.9,107.74,21.59,163.85c9.07,47.6,26.19,114.31,26.76,116.54"/>
	<path class="st1" d="M301.74,175.04C301.75,175.04,301.75,175.04,301.74,175.04l0.31,0c-0.02,0.05-7.09,19.02-10.64,31.58
		c-18.41,65.14-12.72,120.45,2.59,210.95c10.89,64.35,24.22,132.2,40.59,203.13c-11.52,2.93-24.07,5.79-37.57,8.42
		c0,0-0.01-0.02-0.02-0.06"/>
	<path class="st1" d="M31.72,175.37c2.64-0.45,6.36-1.36,10.33-3.47c8.09-4.28,13.7-11.58,18.05-22.3l0.18,0.72
		c26.08,99.42,26.14,177.55,21.93,228.37c-3.39,40.89-11.33,85.66-16.41,114.3c-9.74,54.91-28.83,133.26-29.43,135.71"/>
	<path class="st1" d="M31.72,175.37c-0.01,0-0.02,0-0.03,0.01l-0.28,0c2.72,7.36,5.9,16.77,8.92,27.78
		c10.89,39.77,13.72,78.88,10.36,128.48C42.94,446.19,2.42,613.29,0.6,620.71c10.97,2.79,22.91,5.53,35.76,8.06
		c0,0,0-0.02,0.01-0.06"/>
</g>
<path class="NeckAndArmTrim fill" d="M31.57,175.38c2.64-0.44,6.37-1.36,10.36-3.47c11.77-6.22,18.28-18.85,23.32-39.06
	c5.96-23.88,5.7-41.65,6.05-78.13c0.19-20.26,0.47-36.36,0.64-45.31l-6.69,1.9c0,4,0.01,10.03,0,17.36
	c-0.04,43.04-0.08,64.71-0.86,72.05c-1.81,16.94-6.51,60.96-28.5,67.71c-2.79,0.86-5.27,0.93-6.91,0.87L31.57,175.38z"/>
<path class="NeckAndArmTrim fill" d="M302.05,175.05c-1.85-0.01-4.77-0.22-8.05-1.41c-14.32-5.18-19.69-23.42-22.35-32.44
	c-11.54-39.17-8.99-124.16-8.74-131.63l6.05,1.74c-0.2,6.16-2.96,100.78,9.5,132.82c2.79,7.17,9,23.13,20.73,25.17
	c2.22,0.39,4.09,0.18,5.18,0L302.05,175.05z"/>
<path class="NeckAndArmTrim fill" d="M97.67,1.85c9.8,6.22,35.66,20.81,71.52,20.12c32.95-0.64,56.66-13.84,66.55-20.14l-8.28-2.25
	c-10.17,5.47-31.35,15.12-59.77,15.37c-29.68,0.26-51.79-9.87-62.01-15.37L97.67,1.85z"/>
<g id="BBodyLogos"></g>
<g>
	<rect x="109.58" y="215.05" class="st2" width="31.96" height="12.15"/>
	<rect x="194.21" y="215.05" class="st2" width="31.96" height="12.15"/>
	<rect x="194.3" y="322.61" class="st2" width="31.96" height="12.15"/>
	<rect x="109.66" y="322.61" class="st2" width="31.96" height="12.15"/>
	<rect x="109.66" y="310.46" class="st2" width="31.96" height="12.15"/>
	<rect x="194.3" y="310.46" class="st2" width="31.96" height="12.15"/>
</g>
</svg>
