<?xml version="1.0" encoding="utf-8"?>
<!-- Generator: Adobe Illustrator 19.1.0, SVG Export Plug-In . SVG Version: 6.00 Build 0)  -->
<svg version="1.1" id="Layer_1" xmlns="http://www.w3.org/2000/svg" xmlns:xlink="http://www.w3.org/1999/xlink" x="0px" y="0px"
	 viewBox="0 0 335.2 641.14" style="enable-background:new 0 0 335.2 641.14;" xml:space="preserve">
<style type="text/css">
	<![CDATA[
	@font-face{font-family:'codaheavy';src:url('/fonts/coda-heavy-webfont.woff') format('woff')}
	text{font-family:Impact,codaheavy,sans-serif}
	.Number.fill{fill:#000}
	.NumberOutline.stroke{fill:none;stroke:#777;stroke-width:2.5}
	.Colour1.fill{fill:#214083;}
	.Colour2.fill{fill:#2B5FAB;}
	.Colour3.fill{fill:#0092CD;}
	.Colour4.fill{fill:#FFFFFF;}
	.NeckAndArmTrim.fill{fill:#23356C;stroke:#000000;stroke-miterlimit:10;}
	.st0{fill:none;stroke:#000000;stroke-linecap:round;stroke-linejoin:round;}
	.st1{fill:none;stroke:#000000;stroke-miterlimit:10;}
	.st2{fill:#FFFFFF;stroke:#000000;}
	.st3{fill:none;stroke:#D0D2D3;stroke-dasharray:5,2.4;}
	]]>
</style>
<path class="Colour1 fill" d="M228.52-0.43c13.84,3.76,26.48,7.53,40.32,11.29c-0.2,6.16-2.97,100.85,9.52,132.91
	c2.79,7.17,9.01,23.15,20.77,25.19c2.22,0.39,4.1,0.18,5.19,0c-3.61,8.71-8.5,21.51-12.98,37.35
	c-18.44,65.18-12.74,120.54,2.6,211.1c10.91,64.39,24.26,132.3,40.67,203.28c-41.5,10.53-96.29,20.27-160.94,20.85
	c-70.25,0.63-129.39-9.77-173.06-20.85c1.82-7.43,42.42-174.64,50.19-289.28c3.36-49.63,0.53-88.77-10.38-128.57
	c-3.93-14.34-8.14-25.96-11.25-33.88c1.64,0.07,4.12-0.01,6.92-0.87c22.03-6.76,26.74-50.8,28.55-67.76
	c0.79-7.35,0.82-29.03,0.87-72.1c0.01-7.33,0-13.37,0-17.37C78.77,7.1,93.25,3.33,106.51-0.43l7.36,7.21l9.03,5.13l11.03,2.92
	l12.04,2.77l11.28,1.51l12.29,0.5l17.8-1.51l12.54-3.52l19.31-6.8L228.52-0.43z"/>
<path class="st0" d="M0.6,620.69c43.67,11.08,102.8,21.48,173.06,20.85c64.65-0.58,119.45-10.32,160.94-20.85
	c-16.41-70.98-29.76-138.88-40.67-203.28c-15.34-90.56-21.04-145.91-2.6-211.1c4.48-15.84,9.37-28.64,12.98-37.35
	c-1.09,0.18-2.97,0.39-5.19,0c-11.75-2.05-17.97-18.02-20.77-25.19c-12.49-32.06-9.72-126.75-9.52-132.91
	c-13.84-3.76-26.48-7.53-40.32-11.29l-9.33,8.22l-19.31,6.8l-12.54,3.52l-17.8,1.51l-12.29-0.5l-11.28-1.51l-12.04-2.77l-11.03-2.92
	l-9.03-5.13l-7.36-7.21C93.25,3.33,78.77,7.1,65.5,10.86c0,4,0.01,10.04,0,17.37c-0.04,43.07-0.08,64.76-0.87,72.1
	c-1.81,16.96-6.52,61-28.55,67.76c-2.8,0.86-5.28,0.93-6.92,0.87c3.1,7.92,7.32,19.54,11.25,33.88
	c10.91,39.79,13.75,78.93,10.38,128.57C43.02,446.06,2.42,613.27,0.6,620.69z"/>
<path class="st1" d="M235.43,1.45"/>
<path class="st1" d="M99.89,1.45"/>
<path class="st1" d="M98.49,1.85c9.82,6.23,35.73,20.83,71.65,20.13c33.01-0.64,56.77-13.85,66.68-20.15"/>
<path class="Colour2 fill" d="M90.93,320.79l125.69,168.08l-28.51-12.97L90.53,345.6C90.79,337.04,90.92,328.78,90.93,320.79z
	 M201.76,552.56c0,0,8.47,57.6-26.13,88.97l32.84-1.18c17.05-22.22,14.38-58.13,14.38-58.13
	C217.41,570.97,201.76,552.56,201.76,552.56z M89.29,268.4c70.38,72.64,113.41,146.04,137.64,196.66
	c28.77,60.08,38.07,102,38.16,102.41l9.8-2.13c-8.69-40-15.08-76.91-19.64-110.84c-0.24-0.51-0.47-1-0.71-1.51
	c-27.59-57.86-78.59-144.16-164.82-226.68l-5.4-5.19c0.84,5.72,1.63,11.76,2.35,18.13l0,0c0.01,0.09,0.02,0.18,0.03,0.27
	c0.24,2.12,0.47,4.27,0.7,6.46c0.01,0.11,0.02,0.23,0.04,0.34c0.23,2.29,0.46,4.61,0.67,6.98c0,0.02,0,0.04,0.01,0.06
	C88.54,258.19,88.94,263.21,89.29,268.4L89.29,268.4z M73.24,167.98c1.64,5.78,3.36,12.51,5.07,20.22
	c98.07,58.33,166.29,161.26,167,162.34l0.9,1.73c-0.36-9.49-0.57-18.65-0.64-27.46C220.05,290.36,156.94,213.32,73.24,167.98z"/>
<path class="Colour3 fill" d="M245.55,637.09c0,0-23.88-125.41-172.9-161.24l8.44-58.15C230.54,440.69,285.7,576.63,285.7,576.63
	l7.71,53.18C293.42,629.81,267.74,634.9,245.55,637.09z"/>
<path class="Colour4 fill" d="M82.37,428.61c58.01,14.17,106.68,40.81,148.82,88.13c31.28,35.12,47.68,68.48,51.96,77.84
	c0,0,7.54,16.36,12.27,34.85l-7,1.46c-3.26,0.52-6.7,1.05-10.24,1.57c-5.97-17.17-16.61-41.87-34.67-68.19
	c-27.65-40.28-76.45-87.66-164.17-114.71L82.37,428.61z"/>
<path class="NeckAndArmTrim fill" d="M98.49,1.85c9.82,6.23,35.73,20.83,71.65,20.13c33.01-0.64,56.77-13.85,66.68-20.15l-8.3-2.26
	c-10.19,5.48-31.41,15.13-59.88,15.38c-29.74,0.26-51.89-9.88-62.12-15.38L98.49,1.85z"/>
<path class="NeckAndArmTrim fill" d="M32.96,175.05c2.64-0.44,6.39-1.36,10.38-3.47c11.79-6.23,18.31-18.86,23.36-39.09
	c5.97-23.9,5.71-41.68,6.06-78.18c0.19-20.28,0.47-36.38,0.65-45.34l-6.7,1.9c0,4,0.01,10.04,0,17.37
	c-0.04,43.07-0.08,64.76-0.87,72.1c-1.81,16.96-6.52,61-28.55,67.76c-2.8,0.86-5.28,0.93-6.92,0.87L32.96,175.05z"/>
<path class="NeckAndArmTrim fill" d="M303.21,174.72c-1.85-0.01-4.78-0.22-8.06-1.41c-14.35-5.19-19.73-23.43-22.39-32.46
	c-11.56-39.2-9.02-123.85-8.77-131.32l6.07,1.33c-0.2,6.16-2.97,100.85,9.52,132.91c2.79,7.17,9.01,23.15,20.77,25.19
	c2.22,0.39,4.1,0.18,5.19,0L303.21,174.72z"/>
<g>
	<rect x="110.37" y="214.75" class="st2" width="32.02" height="12.16"/>
	<rect x="195.16" y="214.75" class="st2" width="32.02" height="12.16"/>
	<rect x="195.25" y="322.38" class="st2" width="32.02" height="12.16"/>
	<rect x="110.45" y="322.38" class="st2" width="32.02" height="12.16"/>
	<rect x="110.45" y="310.22" class="st2" width="32.02" height="12.16"/>
	<rect x="195.25" y="310.22" class="st2" width="32.02" height="12.16"/>
</g>
<path class="st3" d="M6.47,601c39.59,11.08,94.58,22.1,160.61,22.3c67.76,0.2,124.06-11.06,164.24-22.3"/>
<path class="st3" d="M5.08,606.99c39.57,11.03,93.75,21.83,158.54,22.39c69.77,0.6,127.76-10.88,169.05-22.39"/>
<path class="Colour3 fill" d="M32.91,627.71c89.78-288.07,26.08-472.09,26.08-472.09c3.19-5.23,5.69-14.03,5.69-14.03
	s71.15,144.97-17.93,488.8L32.91,627.71z M304.88,627.71c-89.78-288.07-26.08-472.09-26.08-472.09c-3.19-5.23-5.69-14.03-5.69-14.03
	s-71.15,144.97,17.93,488.8L304.88,627.71z"/>
<g id="BBodyLogos"></g>
</svg>
