<?xml version="1.0" encoding="utf-8"?>
<!-- Generator: Adobe Illustrator 19.1.0, SVG Export Plug-In . SVG Version: 6.00 Build 0)  -->
<svg version="1.1" id="Layer_1" xmlns="http://www.w3.org/2000/svg" xmlns:xlink="http://www.w3.org/1999/xlink" x="0px" y="0px"
	 viewBox="0 0 335.2 641.14" style="enable-background:new 0 0 335.2 641.14;" xml:space="preserve">
<style type="text/css">
	<![CDATA[
	@font-face{font-family:'codaheavy';src:url('/fonts/coda-heavy-webfont.woff') format('woff')}
	text{font-family:Impact,codaheavy,sans-serif}
	.Number.fill{fill:#000}
	.NumberOutline.stroke{fill:none;stroke:#777;stroke-width:2.5}
	.Colour1.fill{fill:#002D1D;}
	.Colour2.fill{fill:#2B6432;}
	.Colour3.fill{fill:#D2CB28;}
	.SidePanels.fill{fill:#030505;stroke:#000000;stroke-miterlimit:10;}
	.NeckAndArmTrim.fill{fill:#030505;stroke:#000000;stroke-miterlimit:10;}
	.st0{fill:none;stroke:#000000;stroke-miterlimit:10;}
	.st1{fill:#FFFFFF;stroke:#000000;}
	]]>
</style>
<path class="Colour1 fill" d="M227.8-0.07c13.79,3.76,26.28,7.17,40.07,10.94c-0.2,6.16-2.96,100.85,9.48,132.91
	c2.78,7.17,8.98,23.15,20.69,25.19c2.21,0.39,4.09,0.18,5.17,0c-3.6,8.71-8.47,21.51-12.93,37.35
	c-18.38,65.18-12.7,120.54,2.59,211.1c10.87,64.39,24.18,132.3,40.52,203.28c-41.35,10.53-95.94,20.27-160.36,20.85
	c-70,0.63-128.92-9.77-172.43-20.85c1.82-7.43,42.27-174.64,50.01-289.28c3.35-49.63,0.53-88.77-10.35-128.57
	c-3.92-14.34-8.11-25.96-11.21-33.88c1.63,0.07,4.11-0.01,6.9-0.87c21.95-6.76,26.65-50.8,28.45-67.76
	c0.78-7.35,0.82-29.03,0.86-72.1c0.01-7.33,0-13.37,0-17.37C78.48,7.1,90.69,3.97,103.91,0.2l5.61,3.09l2.53,2.27l4.87,2.36
	l5.15,1.98l4.22,1.42c0,0,5.25,2.17,5.81,2.17s5.43,1.04,5.43,1.04l7.12,1.42l11.9,1.13l8.24,0.66c0,0,7.21-0.19,7.5-0.28
	c0.28-0.09,6.56,0,6.84-0.09c0.28-0.09,8.62-0.94,8.62-0.94l6.37-1.32l4.4-1.23l11.15-3.87l9.56-3.87l5.81-3.02L227.8-0.07z"/>
<path class="st0" d="M234.58,1.45"/>
<path class="st0" d="M99.53,1.45"/>
<path class="st0" d="M98.13,1.85c9.78,6.23,35.6,20.83,71.39,20.13c32.89-0.64,56.56-13.85,66.44-20.15"/>
<path class="Colour2 fill" d="M245.12,297.17l6.83-8.03c-40.03-34.56-84.02-47.06-113.87-51.46c-32.37-4.77-55.09-1.4-56.04-1.25
	l1.58,10.45C84.48,246.75,172.29,234.29,245.12,297.17z"/>
<path class="Colour2 fill" d="M64.98,18.73c-0.06-3.18-0.13-5.55-0.16-6.9l206.01,108.03c0.42,2.47,0.89,5,1.44,7.56L64.98,18.73z"/>
<path class="Colour2 fill" d="M63.89,88.21l227.32,119.21c-0.52,2.01-1.02,4.02-1.49,6.03L63.46,94.79
	C63.61,95.61,73.76,90.41,63.89,88.21z"/>
<path class="Colour2 fill" d="M41.58,406.66c0.48-2.89,0.94-5.75,1.4-8.57l276.83,225.6c-3.04,0.71-6.15,1.42-9.32,2.12L41.58,406.66z"/>
<path class="Colour2 fill" d="M37.04,452.44l180.04,146.72l-11.14,13.87L33.42,472.44C34.66,465.73,35.86,459.08,37.04,452.44z"/>
<path class="Colour2 fill" d="M28.43,498.9c0.53-2.76,1.07-5.52,1.59-8.27l183.18,149.28c-3.59,0.25-7.23,0.48-10.9,0.68L28.43,498.9z"/>
<path class="Colour3 fill" d="M245.97,386.4l5.12-5.52c-0.65-0.61-16.11-15.04-44.41-28.51c-26.05-12.4-68.33-26.21-121.76-21.59
	l0.64,7.53C184.43,329.73,245.37,385.83,245.97,386.4z"/>
<path class="Colour3 fill" d="M243.21,316.3l2.97-7.81c-31.89-32.96-74.79-46.26-105.16-51.62c-32.78-5.78-57.73-3.86-58.77-3.77
	l0.6,7.53C83.84,260.56,184.79,255.92,243.21,316.3z"/>
<path class="Colour3 fill" d="M245.48,269l6.09-4.4c-35.07-49.3-82.29-70.37-115.72-79.36c-36.19-9.73-63.74-7.85-64.9-7.76l0.54,7.53
	c0.27-0.02,27.66-1.86,62.69,7.6C166.35,201.3,211.77,221.6,245.48,269z"/>
<path class="Colour3 fill" d="M142.35,641.1c-6.78-0.25-13.44-0.59-19.98-1.02L17.33,554.1c0.92-4.37,1.84-8.75,2.73-13.09L142.35,641.1z
	"/>
<path class="Colour3 fill" d="M294.45,433.98c1.05,6.59,2.14,13.16,3.25,19.69L199.8,640.7c-4.56,0.23-9.18,0.42-13.85,0.56
	L294.45,433.98z"/>
<path class="Colour3 fill" d="M253.2,635.85c-4.74,0.62-9.56,1.21-14.47,1.74l68.63-131.11c1.25,6.42,2.49,12.69,3.72,18.79L253.2,635.85
	z"/>
<path class="Colour3 fill" d="M136.93,533.05L271.7,633.17c-3.3,0.53-6.65,1.03-10.05,1.52L136.93,533.05z"/>
<path class="Colour3 fill" d="M312.11,625.82c-1.62,0.36-3.26,0.71-4.91,1.06C308.85,626.54,310.49,626.18,312.11,625.82z"/>
<path class="Colour3 fill" d="M303.08,627.74c-1.59,0.33-3.19,0.65-4.81,0.97C299.89,628.4,301.49,628.07,303.08,627.74z"/>
<path class="Colour3 fill" d="M320.92,623.82c-1.71,0.4-3.43,0.8-5.17,1.19C317.5,624.62,319.21,624.22,320.92,623.82z"/>
<path class="Colour3 fill" d="M269.55,512.44C258.88,456.29,249.42,406.5,248,348.47c-1.12-45.65,2.3-113.81,26.21-196.53l0.17-0.72
	c3.34,8.55,8.84,18.17,18.4,21.89c0.6-1.82,1.21-3.63,1.81-5.4c-9.25-4.39-14.39-17.6-16.85-23.94c-1.22-3.14-2.29-6.88-3.23-11.07
	c-1.48-2.7-2.73-5.48-3.78-8.17l-0.19,0.8c-26.58,91.96-30.39,167.73-29.14,218.47c1.58,64.51,12.1,119.86,23.96,182.28
	c6.52,34.32,16.8,77.57,23.39,104.43c2.54-0.47,5.04-0.94,7.51-1.42C296.11,628.45,278.72,560.65,269.55,512.44z"/>
<path class="Colour3 fill" d="M329.39,621.79c-1.78,0.44-3.57,0.88-5.39,1.31C325.82,622.66,327.61,622.23,329.39,621.79z"/>
<path class="Colour3 fill" d="M21.04,625.82c1.62,0.36,3.26,0.71,4.91,1.06C24.3,626.54,22.67,626.18,21.04,625.82z"/>
<path class="Colour3 fill" d="M30.07,627.74c1.59,0.33,3.19,0.65,4.81,0.97C33.26,628.4,31.66,628.07,30.07,627.74z"/>
<path class="Colour3 fill" d="M12.23,623.82c1.71,0.4,3.43,0.8,5.17,1.19C15.66,624.62,13.94,624.22,12.23,623.82z"/>
<path class="Colour3 fill" d="M63.6,512.44c10.67-56.15,20.13-105.94,21.55-163.97c1.12-45.65-2.3-113.81-26.21-196.53l-0.17-0.72
	c-3.34,8.55-8.84,18.17-18.4,21.89c-0.6-1.82-1.21-3.63-1.81-5.4c9.25-4.39,15.98-15.89,18.44-22.23c1.22-3.14,2.29-6.88,3.23-11.07
	c1.48-2.7,1.14-7.19,2.19-9.88l0.19,0.8c26.58,91.96,30.39,167.73,29.14,218.47c-1.58,64.51-12.1,119.86-23.96,182.28
	c-6.52,34.32-16.8,77.57-23.39,104.43c-2.54-0.47-5.04-0.94-7.51-1.42C37.04,628.45,54.44,560.65,63.6,512.44z"/>
<path class="Colour3 fill" d="M3.77,621.79c1.78,0.44,3.57,0.88,5.39,1.31C7.33,622.66,5.54,622.23,3.77,621.79z"/>
<path class="SidePanels fill" d="M301.81,174.71c-1.85-0.03-4.64-0.28-7.73-1.4c-9.87-3.58-15.48-13.39-18.88-22.09l-0.17,0.72
	c-23.91,82.72-27.33,150.88-26.21,196.53c1.42,58.03,10.88,107.82,21.55,163.97c9.2,48.44,26.73,116.68,26.73,116.68
	c13.48-2.63,26-5.5,37.5-8.42c-16.35-70.98-29.65-138.88-40.52-203.28c-15.28-90.56-20.96-145.91-2.59-211.1
	c3.54-12.57,10.6-31.55,10.62-31.6L301.81,174.71z"/>
<path class="SidePanels fill" d="M32.85,175.05c2.63-0.44,6.36-1.36,10.35-3.47c8.08-4.28,13.67-11.59,18.02-22.32l0.18,0.72
	c26.04,99.49,26.1,177.68,21.89,228.53C79.9,419.43,71.97,464.23,66.9,492.9c-9.88,55.82-29.4,135.87-29.4,135.87
	c-12.83-2.54-24.75-5.28-35.7-8.07c1.82-7.43,42.27-174.64,50.01-289.28c3.35-49.63,0.53-88.77-10.35-128.57
	c-3.01-11.02-6.19-20.43-8.9-27.8L32.85,175.05z"/>
<path class="NeckAndArmTrim fill" d="M98.13,1.85c9.78,6.23,35.6,20.83,71.39,20.13c32.89-0.64,56.56-13.85,66.44-20.15l-8.27-2.26
	c-10.15,5.48-31.3,15.13-59.67,15.38c-29.63,0.26-51.7-9.88-61.9-15.38L98.13,1.85z"/>
<path class="NeckAndArmTrim fill" d="M32.1,175.05c2.63-0.44,6.36-1.36,10.35-3.47c11.75-6.23,18.24-18.86,23.28-39.09
	c5.95-23.9,5.69-41.68,6.04-78.18c0.19-20.28,0.47-36.38,0.64-45.34l-6.68,1.9c0,4,0.01,10.04,0,17.37
	c-0.04,43.07-0.08,64.76-0.86,72.1c-1.81,16.96-6.5,61-28.45,67.76c-2.79,0.86-5.27,0.93-6.9,0.87L32.1,175.05z"/>
<path class="NeckAndArmTrim fill" d="M302.11,174.72c-1.84-0.01-4.77-0.22-8.03-1.41c-14.29-5.19-19.66-23.43-22.31-32.46
	c-11.52-39.2-8.98-124.25-8.73-131.73l6.04,1.74c-0.2,6.16-2.96,100.85,9.48,132.91c2.78,7.17,8.98,23.15,20.69,25.19
	c2.21,0.39,4.09,0.18,5.17,0L302.11,174.72z"/>
<g id="BBodyLogos"></g>
<g>
	<rect x="109.97" y="214.75" class="st1" width="31.9" height="12.16"/>
	<rect x="194.46" y="214.75" class="st1" width="31.9" height="12.16"/>
	<rect x="194.54" y="322.38" class="st1" width="31.9" height="12.16"/>
	<rect x="110.05" y="322.38" class="st1" width="31.9" height="12.16"/>
	<rect x="110.05" y="310.22" class="st1" width="31.9" height="12.16"/>
	<rect x="194.54" y="310.22" class="st1" width="31.9" height="12.16"/>
</g>
</svg>
