<?xml version="1.0" encoding="utf-8"?>
<!-- Generator: Adobe Illustrator 19.1.0, SVG Export Plug-In . SVG Version: 6.00 Build 0)  -->
<svg version="1.1" id="Layer_1" xmlns="http://www.w3.org/2000/svg" xmlns:xlink="http://www.w3.org/1999/xlink" x="0px" y="0px"
	 viewBox="0 0 335.2 641.14" style="enable-background:new 0 0 335.2 641.14;" xml:space="preserve">
<style type="text/css">
	<![CDATA[
	@font-face{font-family:'codaheavy';src:url('/fonts/coda-heavy-webfont.woff') format('woff')}
	text{font-family:Impact,codaheavy,sans-serif}
	.Colour1.fill{fill:#000000;}
	.Colour2.fill{fill:#0A8CCC;}
	.Colour3.fill{fill:#46B8EA;}
	.Colour4.fill{fill:#0A81C4;}
	.Colour5.fill{fill:#0982AD;}
	.NeckAndArmTrim.fill{fill:#000000;}
	.st0{fill:none;stroke:#000000;stroke-miterlimit:10;}
	.st1{fill:#037BC0;}
	.st2{fill:none;stroke:#000000;stroke-linecap:round;stroke-linejoin:round;}
	.st3{fill:#FFFFFF;stroke:#000000;}
	]]>
</style>
<path class="Colour1 fill" d="M293.93,417.42c10.91,64.39,24.26,132.3,40.67,203.28c-41.5,10.53-96.29,20.27-160.94,20.85
	c-70.25,0.63-129.39-9.77-173.06-20.85c1.82-7.43,42.42-174.64,50.19-289.28c3.36-49.63,0.53-88.77-10.38-128.57
	c-3.93-14.34-8.14-25.96-11.25-33.88c1.64,0.07,4.12-0.01,6.92-0.87c22.03-6.76,26.74-50.8,28.55-67.76
	c0.79-7.35,0.82-29.03,0.87-72.1c0.01-7.33,0-13.37,0-17.37C78.76,7.1,92.03,3.33,105.3-0.43c2.1,17.98,9.02,53.37,36.34,84.26
	c8.08,9.14,16.48,16.23,24.23,21.72c7.76-5.52,16.14-12.62,24.23-21.72c27.38-30.79,34.82-65.93,37.21-84.26
	c13.84,3.76,27.69,7.53,41.53,11.29c-0.2,6.16-2.97,100.86,9.52,132.91c2.79,7.17,9.01,23.15,20.77,25.19c2.22,0.39,4.1,0.18,5.19,0
	c-3.61,8.71-8.5,21.52-12.98,37.35C272.89,271.5,278.6,326.86,293.93,417.42z"/>
<path class="st0" d="M98.67,1.45c1.6,14.45,6.57,41.47,24.8,69.35c14.38,22.01,31.28,35.76,42.4,43.44
	c11.12-7.34,27.93-20.47,42.4-41.7C227.72,44,232.69,15.88,234.22,1.45"/>
<path class="st0" d="M72.2,8.96c-0.17,8.95-0.45,25.06-0.65,45.34c-0.34,36.5-0.09,54.28-6.06,78.18
	c-5.05,20.23-11.57,32.87-23.36,39.09c-4,2.11-7.74,3.03-10.38,3.47"/>
<path class="st0" d="M262.78,9.13c-0.25,7.48-2.8,92.53,8.76,131.73c2.66,9.02,8.04,27.27,22.39,32.46
	c3.28,1.18,6.21,1.39,8.06,1.41"/>
<path class="st0" d="M107.61,14.02c8.95,5.27,30.13,16.11,59.12,15.96c28.27-0.15,48.92-10.69,57.87-15.96"/>
<path class="st0" d="M109.45,22c10.2,5.01,29.77,12.96,55.56,13.19c27.06,0.24,47.57-8.13,57.87-13.19"/>
<path class="st1" d="M96.43,616.56c12.12-50.8,30.66-100.05,55.04-146.2c14.26-26.99,30.74-53.21,52.63-74.44
	c21.89-21.23,49.71-37.28,79.93-40.88c-1.71-7.35-9.94-11.27-17.43-11.93c-7.49-0.65-14.85,2-21.74,5.03
	c-46.02,20.26-81.86,58.61-110.59,100c-13.8,19.89-26.4,40.94-33.75,64.03c-6.34,19.92-8.64,40.93-9.27,61.83
	C90.82,588.74,95.24,601.86,96.43,616.56z"/>
<path class="Colour3 fill" d="M306.77,488.52L176.73,641.53c-0.28,0-0.55,0.01-0.83,0.01c-16.76,0.15-32.87-0.35-48.28-1.35
	c7.19-26.15,13.23-52.68,20.84-78.72c11.69-40.01,27.65-79.76,55.03-110.77c23.09-26.15,54.03-44.69,87.38-53.52
	c1.04,6.55,2.13,13.27,3.29,20.22C298.05,440.66,302.25,464.38,306.77,488.52z M306.77,488.52L176.73,641.53
	c-0.28,0-0.55,0.01-0.83,0.01c-11.24,0.1-22.19-0.09-32.84-0.53c4.15-15.09,9.28-29.76,17.13-43.21
	c16.15-27.67,42.32-47.64,69.2-64.5c25.74-16.14,52.92-30.25,76.51-49.46C306.2,485.41,306.48,486.95,306.77,488.52z"/>
<path class="Colour3 fill" d="M115.43,531.25c12.45-52.4,29.29-106.12,66.25-145.17c15.47-16.35,33.99-29.56,49.42-45.95
	c15.42-16.39,27.4-38.1,26.75-60.64c-47.56,21.14-85.85,60.13-112.39,105.03c-26.54,44.9-42.05,95.6-52.31,146.79
	c-6.91,34.46-11.53,69.32-16.08,104.18c4.49,0.61,9.07,1.17,13.72,1.7C101.48,602.81,107.1,566.3,115.43,531.25z"/>
<path class="Colour2 fill" d="M167.24,335.81c-6.25,7.45-12.8,14.73-18.35,22.61c-5.99,7.57-10.88,15.72-16.01,23.39
	c-2.33,3.97-4.55,7.92-6.76,11.78c-1.1,1.93-2.19,3.84-3.27,5.73c-0.96,1.95-1.91,3.87-2.85,5.77c-1.88,3.81-3.7,7.51-5.47,11.09
	c-1.65,3.64-3.07,7.23-4.53,10.64c-1.4,3.43-2.9,6.69-4.05,9.86c-1.12,3.19-2.18,6.22-3.18,9.07c-1,2.86-1.94,5.53-2.81,8
	c-0.79,2.5-1.4,4.84-2.01,6.94c-2.38,8.39-3.74,13.18-3.74,13.18s0.95-4.89,2.61-13.46c0.43-2.14,0.84-4.52,1.41-7.08
	c0.66-2.55,1.37-5.31,2.13-8.27c0.76-2.96,1.58-6.11,2.43-9.43c0.9-3.31,2.11-6.69,3.24-10.29c1.18-3.57,2.31-7.33,3.67-11.16
	c1.48-3.78,3.01-7.69,4.59-11.71c0.79-2.01,1.59-4.06,2.4-6.12c0.93-2.01,1.87-4.05,2.83-6.11c1.92-4.12,3.84-8.36,5.89-12.62
	c4.56-8.27,8.9-17.1,14.39-25.42c5.05-8.62,11.15-16.73,17.02-25.05c6.41-7.87,12.58-16.02,19.58-23.24
	c6.62-7.6,13.98-14.22,20.89-20.91c3.59-3.18,7.26-6.17,10.79-9.17c1.77-1.49,3.53-2.97,5.26-4.43c1.82-1.35,3.61-2.68,5.39-4
	c3.56-2.62,7.03-5.18,10.38-7.64c3.42-2.37,6.86-4.46,10.1-6.57c3.28-2.05,6.35-4.16,9.41-5.92c3.09-1.71,6.03-3.32,8.78-4.84
	c2.77-1.52,5.35-2.94,7.75-4.26c2.43-1.24,4.73-2.24,6.77-3.22c8.23-3.84,12.93-6.03,12.93-6.03l0.93,2.47
	c-1.88,9.28-3.28,18.47-4.25,27.69c-1.79,0.66-3.76,1.33-5.84,2.18c-2.29,1.02-4.77,2.12-7.42,3.3c-2.66,1.18-5.49,2.43-8.47,3.76
	c-2.96,1.37-5.94,3.08-9.13,4.72c-3.16,1.7-6.53,3.35-9.88,5.27c-3.31,2.03-6.72,4.12-10.24,6.28c-1.76,1.08-3.54,2.18-5.35,3.29
	c-1.73,1.22-3.48,2.46-5.25,3.71c-3.53,2.52-7.21,5.02-10.84,7.72c-6.99,5.72-14.5,11.37-21.35,18.02
	C180.51,321.58,174.02,328.81,167.24,335.81z M177.08,401.41c27.61-36.12,63.9-63.14,103.55-85.64c-0.43-6.88-0.69-13.61-0.78-20.23
	c-62.64,30.21-114.52,81.36-147.06,145.52c-30.59,60.3-41.56,128.3-58.2,194.09c6.09,0.84,12.33,1.63,18.71,2.33
	C113.26,554.4,125.93,468.33,177.08,401.41z M276.83,329.75c-1.81,1.17-3.63,2.36-5.46,3.55c-3.66,2.39-7.36,4.81-11.11,7.26
	c-3.6,2.67-7.24,5.37-10.91,8.11c-1.83,1.38-3.7,2.72-5.52,4.14c-1.77,1.49-3.55,2.99-5.33,4.5c-3.55,3.04-7.22,5.99-10.74,9.18
	c-6.84,6.6-14.03,13.05-20.49,20.39c-1.66,1.79-3.32,3.58-4.99,5.38c-0.82,0.91-1.69,1.78-2.48,2.72l-2.34,2.86
	c-3.12,3.81-6.26,7.64-9.41,11.49c-3.04,3.93-5.88,8.04-8.83,12.07c-1.45,2.04-2.95,4.03-4.37,6.11c-1.36,2.14-2.72,4.28-4.08,6.42
	l-4.08,6.43c-1.35,2.15-2.78,4.29-3.9,6.45c-2.38,4.31-4.76,8.63-7.15,12.95l-0.89,1.62l-0.45,0.81c0.05-0.09-0.2,0.35-0.21,0.38
	l-0.1,0.21l-0.2,0.43l-1.63,3.4l-3.25,6.8l-3.24,6.79l-2.89,6.92c-0.96,2.3-1.91,4.61-2.86,6.91c-0.94,2.3-1.95,4.58-2.75,6.92
	c-1.69,4.65-3.37,9.29-5.04,13.91c-6.29,18.6-11.7,37.09-16.25,55.09c-4.62,17.99-8.7,35.43-12.63,51.91
	c-1.31,5.54-2.61,10.96-3.91,16.26c1.87,0.19,3.75,0.37,5.64,0.55c1.45-4.97,2.9-10.04,4.35-15.21c4.64-16.33,9.46-33.54,14.8-51.18
	c5.29-17.67,11.4-35.66,18.33-53.58c1.83-4.44,3.66-8.89,5.5-13.36c0.87-2.25,1.95-4.41,2.96-6.61c1.02-2.19,2.04-4.38,3.06-6.57
	l3.08-6.57l3.41-6.4l3.41-6.4l1.7-3.2l0.21-0.4l0.08-0.14c0,0,0.01-0.01,0.05-0.08l0.48-0.79l0.96-1.58
	c2.57-4.21,5.13-8.42,7.7-12.63c1.24-2.17,2.65-4.05,4.01-6.01l4.08-5.85c1.36-1.95,2.71-3.89,4.06-5.83
	c1.42-1.91,2.95-3.76,4.42-5.64c2.99-3.72,5.85-7.52,8.9-11.13c3.15-3.52,6.29-7.04,9.42-10.53l2.34-2.62
	c0.79-0.86,1.65-1.65,2.47-2.48c1.65-1.64,3.31-3.27,4.95-4.9c6.4-6.69,13.48-12.48,20.18-18.44c3.45-2.86,7.04-5.49,10.5-8.2
	c1.74-1.34,3.47-2.68,5.19-4.01c1.77-1.27,3.59-2.45,5.36-3.67c3.56-2.42,7.08-4.8,10.56-7.16c3.61-2.14,7.18-4.25,10.7-6.34
	c0.57-0.34,1.13-0.67,1.69-1c-0.95-7.93-1.76-15.61-2.39-23.08C279.92,327.95,278.35,328.8,276.83,329.75z"/>
<path class="Colour5 fill" d="M304.68,477.36c-19.16,12.86-39.66,23.85-59.33,35.98c-27.34,16.86-53.95,36.83-70.37,64.5
	c-11.54,19.44-17.33,41.41-22.62,63.55c6.99,0.16,14.1,0.22,21.34,0.15c0.28,0,0.56-0.01,0.84-0.01l132.24-153.01
	C306.06,484.78,305.37,481.08,304.68,477.36z"/>
<path class="Colour4 fill" d="M129.74,640.51c-0.5-0.03-1-0.06-1.49-0.09c5.56-38.67,11.71-77.35,23.25-114.63
	c12.87-41.58,32.85-81.71,63.36-112.66c18.94-19.21,42.25-34.6,67.59-43.44l4.55,3.96c1.99,13.71,4.33,28.21,6.97,43.77
	c1.18,6.96,2.4,13.98,3.64,21.02c-4.15,0.77-8.29,1.61-12.41,2.57c-28.37,6.67-56.09,18.64-77.45,38.55
	c-20.72,19.31-34.39,44.97-45.85,70.92C149.15,579.35,138.01,609.84,129.74,640.51z M134.99,489.76
	c29.09-61.16,74.13-117.01,135.06-146.19c-0.97-9.38-14.13-14.29-23.34-12.44c-9.21,1.85-16.58,8.58-23.39,15.07
	c-15.98,15.2-31.81,30.63-45.79,47.7c-32.78,40.03-54.53,88.21-69.39,137.83C97.87,566,90.73,601.14,84.58,636.46
	c0.88,0.11,1.76,0.22,2.65,0.32C98.95,586.34,112.81,536.4,134.99,489.76z"/>
<path class="Colour1 fill" d="M301.69,174.71c-1.86-0.03-4.66-0.28-7.76-1.4c-9.9-3.58-15.54-13.39-18.95-22.09l-0.17,0.72
	c-24,82.72-27.43,150.88-26.31,196.53c1.43,58.03,10.92,107.82,21.63,163.97c9.24,48.44,26.82,116.68,26.82,116.68
	c13.53-2.63,26.1-5.5,37.64-8.42c-16.41-70.98-29.76-138.88-40.67-203.28c-15.34-90.56-21.04-145.91-2.6-211.1
	c3.56-12.57,10.64-31.55,10.66-31.6L301.69,174.71z"/>
<path class="Colour1 fill" d="M31.75,175.05c2.64-0.44,6.39-1.36,10.38-3.47c8.11-4.28,13.72-11.59,18.08-22.32l0.18,0.72
	c26.13,99.49,26.19,177.68,21.97,228.53c-3.4,40.92-11.35,85.72-16.44,114.38c-9.91,55.82-29.5,135.87-29.5,135.87
	c-12.88-2.54-24.84-5.28-35.83-8.07c1.82-7.43,42.42-174.64,50.19-289.28c3.36-49.63,0.53-88.77-10.38-128.57
	c-3.02-11.02-6.21-20.43-8.93-27.8L31.75,175.05z"/>
<path class="st2" d="M0.6,620.69L0.6,620.69c2.25,0.57,4.56,1.14,6.89,1.71c0.5,0.12,0.99,0.24,1.49,0.36
	c0.82,0.2,1.66,0.39,2.49,0.59c0.62,0.15,1.22,0.29,1.84,0.44c0.78,0.18,1.57,0.36,2.35,0.54c0.69,0.16,1.38,0.32,2.07,0.48
	c0.74,0.17,1.49,0.33,2.24,0.5c0.76,0.17,1.51,0.34,2.27,0.51c0.72,0.16,1.45,0.31,2.18,0.47c0.81,0.17,1.61,0.35,2.42,0.52
	c0.76,0.16,1.53,0.32,2.3,0.48c0.79,0.17,1.58,0.33,2.38,0.49c0.78,0.16,1.56,0.31,2.35,0.47c0.81,0.16,1.61,0.33,2.43,0.49
	c0.04,0.01,0.08,0.02,0.12,0.02l0,0c38.3,7.55,84.65,13.25,137.23,12.78c46.67-0.42,88.2-5.61,123.3-12.43l0,0
	c0.45-0.09,0.9-0.18,1.35-0.27c1.08-0.21,2.16-0.43,3.23-0.64c0.63-0.13,1.25-0.26,1.88-0.38c0.95-0.19,1.9-0.39,2.84-0.58
	c0.66-0.14,1.31-0.28,1.97-0.42c0.9-0.19,1.79-0.38,2.67-0.57c0.66-0.14,1.32-0.29,1.97-0.43c0.87-0.19,1.74-0.38,2.6-0.58
	c0.65-0.15,1.3-0.29,1.94-0.44c0.86-0.19,1.71-0.39,2.56-0.58c0.63-0.15,1.26-0.29,1.88-0.44c0.87-0.2,1.73-0.41,2.59-0.61
	c0.58-0.14,1.17-0.28,1.75-0.42c0.94-0.23,1.87-0.45,2.8-0.68c0.48-0.12,0.97-0.24,1.45-0.35c1.34-0.33,2.67-0.66,3.98-1
	c0.06-0.01,0.11-0.03,0.17-0.04v0c-1.03-4.44-2.04-8.86-3.04-13.27c-3.01-13.24-5.9-26.36-8.7-39.38
	c-7.46-34.71-14.19-68.62-20.28-101.68c-0.88-4.76-1.73-9.49-2.58-14.22c-2.1-11.68-4.12-23.27-6.07-34.73
	c-1.84-10.88-3.54-21.23-5.08-31.17c-10.07-65.05-13.12-111.71-2.08-161.81c0.55-2.49,1.15-5,1.77-7.51
	c0.73-2.96,1.51-5.94,2.34-8.94c0.15-0.55,0.3-1.1,0.45-1.66c0-0.01,0-0.01,0.01-0.02c0.13-0.45,0.25-0.88,0.38-1.32
	c3.53-12.11,9.81-29.02,10.25-30.2c0.83-2.1,1.61-4.05,2.35-5.82c-1.09,0.18-2.97,0.39-5.19,0c-11.75-2.05-17.97-18.02-20.77-25.19
	c-12.49-32.06-9.72-126.75-9.52-132.91c-13.84-3.76-27.69-7.53-41.53-11.29c-2.39,18.33-9.83,53.47-37.21,84.26
	c-8.08,9.09-16.47,16.19-24.23,21.72c-7.75-5.49-16.15-12.58-24.23-21.72c-27.32-30.9-34.24-66.28-36.34-84.26
	C92.03,3.33,78.76,7.1,65.5,10.86c0,4,0.01,10.04,0,17.37c-0.04,43.07-0.08,64.76-0.87,72.1c-1.81,16.96-6.52,61-28.55,67.76
	c-2.8,0.86-5.28,0.93-6.92,0.87c0.74,1.88,1.54,3.98,2.39,6.28c0.3,0.8,0.6,1.63,0.91,2.49c0.06,0.17,0.12,0.35,0.19,0.52
	c0.27,0.76,0.55,1.53,0.82,2.32c0.06,0.18,0.13,0.36,0.19,0.55c0.32,0.91,0.64,1.85,0.96,2.8c0.07,0.22,0.15,0.44,0.22,0.66
	c0.29,0.86,0.58,1.74,0.87,2.63c0.05,0.17,0.11,0.33,0.16,0.5c0.33,1.01,0.66,2.05,0.99,3.1c0.08,0.26,0.16,0.52,0.24,0.78
	c0.31,0.99,0.62,1.99,0.92,3.01c0.04,0.12,0.07,0.24,0.11,0.36c0.33,1.11,0.67,2.25,1,3.41c0.08,0.28,0.16,0.57,0.25,0.86
	c0.34,1.18,0.67,2.36,1.01,3.58c0,0.01,0.01,0.02,0.01,0.03c6.14,22.38,9.72,44.56,11.08,68.52c0.08,1.33,0.14,2.67,0.21,4.01
	c0.12,2.68,0.22,5.39,0.29,8.13c0.03,1.37,0.06,2.74,0.08,4.12c0.04,2.76,0.06,5.54,0.05,8.36c0,0,0,0,0,0.01
	c-0.04,11.27-0.49,23.02-1.33,35.43c-0.85,12.54-2.09,25.71-3.63,39.22c-0.11,0.97-0.22,1.93-0.33,2.9
	c-1.13,9.69-2.41,19.55-3.81,29.48c-0.28,1.99-0.56,3.97-0.85,5.96c-1.01,6.97-2.07,13.95-3.17,20.93
	c-0.31,1.99-0.63,3.99-0.95,5.98s-0.65,3.98-0.97,5.97c-0.33,1.99-0.66,3.97-0.99,5.95s-0.67,3.96-1.01,5.93
	c-0.17,0.99-0.34,1.97-0.51,2.96c-0.37,2.14-0.74,4.28-1.12,6.41c-0.28,1.61-0.57,3.22-0.85,4.82c-0.06,0.32-0.11,0.64-0.17,0.96
	c-1.19,6.66-2.4,13.25-3.61,19.74c-0.21,1.13-0.42,2.25-0.63,3.37c-0.29,1.53-0.58,3.04-0.87,4.56c-0.25,1.29-0.49,2.58-0.74,3.86
	c-0.64,3.34-1.29,6.65-1.93,9.92c-0.21,1.08-0.43,2.16-0.64,3.24c-0.33,1.65-0.65,3.28-0.98,4.91c-0.06,0.32-0.13,0.65-0.19,0.97
	c-1.03,5.12-2.04,10.14-3.05,15.01c-0.38,1.86-0.76,3.69-1.14,5.51c-0.31,1.47-0.61,2.94-0.91,4.38c-0.34,1.61-0.67,3.21-1.01,4.79
	c-0.83,3.95-1.65,7.78-2.45,11.48c-0.48,2.22-0.95,4.4-1.42,6.53c-0.31,1.42-0.61,2.82-0.92,4.19c-0.27,1.22-0.53,2.43-0.8,3.61
	c-0.18,0.81-0.36,1.62-0.54,2.42c-0.58,2.61-1.14,5.13-1.68,7.55c-0.95,4.23-1.84,8.15-2.66,11.72c-0.94,4.09-1.78,7.72-2.52,10.86
	c-0.09,0.39-0.18,0.78-0.27,1.15c-0.27,1.13-0.51,2.19-0.75,3.17c-0.08,0.33-0.15,0.65-0.23,0.96C1.46,617.16,0.8,619.88,0.6,620.69
	z"/>
<path class="NeckAndArmTrim fill" d="M234.22,1.45c-1.53,14.43-6.5,42.55-25.95,71.09c-14.47,21.23-31.28,34.36-42.4,41.7
	c-11.12-7.68-28.01-21.43-42.4-43.44c-18.23-27.88-23.2-54.9-24.8-69.35l6.63-1.88c2.1,17.98,9.02,53.37,36.34,84.26
	c8.08,9.14,16.48,16.23,24.23,21.72c7.76-5.52,16.14-12.62,24.23-21.72c27.38-30.79,34.82-65.93,37.21-84.26L234.22,1.45z"/>
<path class="NeckAndArmTrim fill" d="M31.75,175.05c2.64-0.44,6.39-1.36,10.38-3.47c11.79-6.23,18.31-18.86,23.36-39.09
	c5.97-23.9,5.71-41.68,6.06-78.18c0.19-20.28,0.47-36.38,0.65-45.34l-6.7,1.9c0,4,0.01,10.04,0,17.37
	c-0.04,43.07-0.08,64.76-0.87,72.1c-1.81,16.96-6.52,61-28.55,67.76c-2.8,0.86-5.28,0.93-6.92,0.87L31.75,175.05z"/>
<path class="NeckAndArmTrim fill" d="M301.99,174.72c-1.85-0.01-4.78-0.22-8.06-1.41c-14.35-5.19-19.73-23.43-22.39-32.46
	c-11.56-39.2-9.01-124.25-8.76-131.73l6.06,1.74c-0.2,6.16-2.97,100.85,9.52,132.91c2.79,7.17,9.01,23.15,20.77,25.19
	c2.22,0.39,4.1,0.18,5.19,0L301.99,174.72z"/>
<path class="NeckAndArmTrim fill" d="M109.45,22c10.2,5.01,29.77,12.96,55.56,13.19c27.06,0.24,47.57-8.13,57.87-13.19l1.74-7.98
	c-8.95,5.27-29.6,15.8-57.87,15.96c-28.99,0.16-50.17-10.69-59.12-15.96L109.45,22z"/>
<g>
	<rect x="109.19" y="214.75" class="st3" width="32.02" height="12.16"/>
	<rect x="193.99" y="214.75" class="st3" width="32.02" height="12.16"/>
	<rect x="194.07" y="322.38" class="st3" width="32.02" height="12.16"/>
	<rect x="109.28" y="322.38" class="st3" width="32.02" height="12.16"/>
	<rect x="109.28" y="310.22" class="st3" width="32.02" height="12.16"/>
	<rect x="193.99" y="310.22" class="st3" width="32.02" height="12.16"/>
</g>
<g>
	<path class="st2" d="M248.45,348.47c1.43,58.03,10.92,107.82,21.63,163.97c9.24,48.44,26.82,116.68,26.82,116.68
		c13.53-2.63,26.1-5.5,37.64-8.42c-16.41-70.98-29.76-138.88-40.67-203.28c-15.34-90.56-21.04-145.91-2.6-211.1
		c3.56-12.57,10.64-31.55,10.66-31.6l-0.3,0c-1.86-0.03-4.66-0.28-7.76-1.4c-9.9-3.58-15.54-13.39-18.95-22.09l-0.17,0.72
		C250.76,234.67,247.32,302.83,248.45,348.47z"/>
	<path class="st2" d="M0.54,620.69c10.99,2.79,22.95,5.53,35.83,8.07c0,0,19.59-80.04,29.5-135.87
		c5.09-28.66,13.05-73.47,16.44-114.38c4.22-50.85,4.16-129.04-21.97-228.53l-0.18-0.72c-4.36,10.72-9.97,18.03-18.08,22.32
		c-4,2.11-7.74,3.03-10.38,3.47l-0.28,0c2.72,7.36,5.91,16.78,8.93,27.8c10.91,39.79,13.75,78.93,10.38,128.57
		C42.96,446.06,2.36,613.27,0.54,620.69z"/>
</g>
<g id="FBodyLogos"></g>
</svg>
