<?xml version="1.0" encoding="utf-8"?>
<!-- Generator: Adobe Illustrator 19.1.0, SVG Export Plug-In . SVG Version: 6.00 Build 0)  -->
<svg version="1.1" id="Layer_1" xmlns="http://www.w3.org/2000/svg" xmlns:xlink="http://www.w3.org/1999/xlink" x="0px" y="0px"
	 viewBox="0 0 335.2 641.14" style="enable-background:new 0 0 335.2 641.14;" xml:space="preserve">
<style type="text/css">
	<![CDATA[
	@font-face{font-family:'codaheavy';src:url('/fonts/coda-heavy-webfont.woff') format('woff')}
	text{font-family:Impact,codaheavy,sans-serif}
	.Number.fill{fill:#000}
	.NumberOutline.stroke{fill:none;stroke:#777;stroke-width:2.5}
	.Colour1.fill{fill:#10102A;}
	.Colour2.fill{fill:#75A441;}
	.Colour3.fill{fill:#527D39;}
	.NeckAndArmTrim.fill{fill:#527D39;stroke:#000000;stroke-miterlimit:10;}
	.st0{fill:none;stroke:#000000;stroke-linecap:round;stroke-linejoin:round;}
	.st1{fill:none;stroke:#000000;stroke-miterlimit:10;}
	.st2{fill:#FFFFFF;stroke:#000000;}
	]]>
</style>
<path class="Colour1 fill" d="M228.37-0.18c13.82,3.76,26.46,7.73,40.28,11.49c-0.2,6.16-2.96,100.78,9.5,132.82
	c2.79,7.17,9,23.13,20.73,25.17c2.22,0.39,4.09,0.18,5.18,0c-3.61,8.71-8.48,21.5-12.95,37.33
	c-18.41,65.14-12.72,120.45,2.59,210.95c10.89,64.35,24.22,132.2,40.59,203.13c-41.42,10.53-96.11,20.26-160.64,20.83
	c-70.12,0.63-129.15-9.76-172.73-20.83c1.82-7.42,42.34-174.52,50.09-289.08c3.36-49.6,0.53-88.71-10.36-128.48
	c-3.92-14.33-8.13-25.94-11.23-33.86c1.64,0.07,4.12-0.01,6.91-0.87c21.99-6.75,26.69-50.77,28.5-67.71
	c0.78-7.34,0.82-29.01,0.86-72.05c0.01-7.33,0-13.36,0-17.36c13.24-3.76,26.49-7.52,39.73-11.29C105.42,22.21,228.37,22,228.37-0.18
	z"/>
<polygon class="Colour2 fill" points="52.19,191.38 180.57,132.66 181.17,133.99 52.79,192.71 "/>
<path class="Colour2 fill" d="M52.49,203.89v11.16l92-41.98c1.81-0.82,2.97-2.63,2.97-4.63l0,0c0-3.69-3.8-6.15-7.15-4.63L52.49,203.89z"
	/>
<path class="Colour2 fill" d="M52.49,182.23v5.64l46.49-21.21c0.91-0.42,1.5-1.33,1.5-2.34l0,0c0-1.87-1.92-3.11-3.61-2.34L52.49,182.23z
	"/>
<path class="Colour2 fill" d="M173.6,641.54c53.26-0.48,99.79-7.19,137.71-15.44V513.72c-6.5-32.84-12.38-64.91-17.66-96.14
	c-6.89-40.75-11.83-74.35-13.5-104.95L40.39,422.3c-4.94,32.28-10.86,64.59-16.59,93.49v110.32
	C64.33,634.92,115.1,642.07,173.6,641.54z"/>
<path class="Colour2 fill" d="M155.79,354.14L155.79,354.14c0-1.87-1.92-3.11-3.61-2.34l-42.88,19.57c-0.91,0.42-1.5,1.33-1.5,2.34l0,0
	c0,1.87,1.92,3.11,3.61,2.34l42.88-19.57C155.2,356.06,155.79,355.15,155.79,354.14z"/>
<path class="Colour2 fill" d="M201.72,318.87c-2.15,0.98-3.53,3.14-3.53,5.51v0c0,4.4,4.52,7.33,8.51,5.51l72.87-33.25
	c-0.07-4.49-0.06-8.92,0.04-13.31L201.72,318.87z"/>
<g>
	<path class="Colour2 fill" d="M279.59,283.73L132.6,350.8c-0.49,0.23-0.81,0.72-0.81,1.27c0,1.01,1.04,1.69,1.96,1.27l145.81-66.53
		C279.57,285.78,279.57,284.76,279.59,283.73z"/>
</g>
<path class="Colour2 fill" d="M279.85,306.36c-0.02-0.53-0.04-1.05-0.06-1.57L41.68,413.7c-0.08,0.57-0.17,1.15-0.26,1.72L279.85,306.36z
	"/>
<g>
	<path class="Colour1 fill" d="M266.93,339.07l14.7-6.71c-0.17-1.82-0.33-3.63-0.48-5.42l-16.33,7.45c-0.91,0.42-1.5,1.33-1.5,2.34
		C263.31,338.6,265.23,339.85,266.93,339.07z"/>
</g>
<g>
	<path class="Colour1 fill" d="M280.9,323.92L85.6,413.03c-0.63,0.29-1.03,0.91-1.03,1.6c0,1.28,1.32,2.13,2.47,1.6l194.15-88.59
		C281.09,326.39,281,325.16,280.9,323.92z"/>
</g>
<g>
	<path class="Colour1 fill" d="M70.29,449.02c0.91-0.42,1.5-1.33,1.5-2.34c0-1.87-1.92-3.11-3.61-2.34l-33.94,15.49
		c-0.36,2.05-0.71,4.09-1.08,6.13L70.29,449.02z"/>
</g>
<g>
	<path class="Colour2 fill" d="M70.29,398.4c0.91-0.42,1.5-1.33,1.5-2.34c0-1.87-1.92-3.11-3.61-2.34L42.9,405.26
		c-0.28,2.01-0.57,4.02-0.87,6.04L70.29,398.4z"/>
</g>
<g>
	<path class="Colour1 fill" d="M117.08,416.64c1.83-0.84,3.01-2.67,3.01-4.69c0-3.75-3.85-6.24-7.25-4.69l-75.54,34.47
		c-0.67,4.1-1.36,8.19-2.06,12.26L117.08,416.64z"/>
</g>
<g>
	<path class="Colour1 fill" d="M70.29,542.75c0.91-0.42,1.5-1.33,1.5-2.34c0-1.87-1.92-3.11-3.61-2.34l-54.15,24.82
		c-0.46,2.13-0.92,4.23-1.36,6.27L70.29,542.75z"/>
	<path class="Colour1 fill" d="M61.81,558.1L61.81,558.1c0-1.48-1.52-2.46-2.86-1.85L10.63,578.4c-0.38,1.7-0.75,3.36-1.11,4.98
		l51.09-23.43C61.34,559.62,61.81,558.9,61.81,558.1z"/>
	<path class="Colour1 fill" d="M152.48,510.09l-0.6-1.33L11.84,572.92c-0.13,0.6-0.26,1.19-0.39,1.78L152.48,510.09z"/>
	<path class="Colour1 fill" d="M115.79,549.18c1.81-0.82,2.97-2.63,2.97-4.63c0-3.7-3.8-6.15-7.15-4.63L8.71,587.01
		c-1.03,4.55-1.98,8.72-2.84,12.46L115.79,549.18z"/>
</g>
<path class="Colour3 fill" d="M301.75,175.04c-1.86-0.03-4.65-0.28-7.74-1.4c-9.89-3.58-15.51-13.38-18.91-22.07l-0.17,0.72
	c-23.95,82.66-27.38,150.77-26.26,196.39c1.43,57.99,10.9,107.74,21.59,163.85c9.22,48.41,26.77,116.6,26.77,116.6
	c13.5-2.62,26.05-5.49,37.57-8.42c-16.37-70.93-29.71-138.78-40.59-203.13c-15.31-90.5-21-145.81-2.59-210.95
	c3.55-12.56,10.62-31.53,10.64-31.58L301.75,175.04z"/>
<path class="Colour3 fill" d="M31.69,175.38c2.64-0.44,6.37-1.36,10.36-3.47c8.09-4.28,13.7-11.58,18.05-22.3l0.18,0.72
	c26.08,99.42,26.14,177.55,21.93,228.37c-3.39,40.89-11.33,85.66-16.41,114.3c-9.89,55.78-29.45,135.77-29.45,135.77
	c-12.85-2.53-24.79-5.28-35.76-8.06c1.82-7.42,42.34-174.52,50.09-289.08c3.36-49.6,0.53-88.71-10.36-128.48
	c-3.02-11.01-6.2-20.42-8.92-27.78L31.69,175.38z"/>
<g>
	<path class="st0" d="M300.85,175.04c-3.24,8.24-7.06,18.94-10.64,31.59c-18.41,65.14-12.72,120.45,2.59,210.95
		c10.89,64.35,24.22,132.2,40.59,203.13c-11.43,2.91-23.89,5.75-37.27,8.36"/>
	<path class="st0" d="M296.12,629.07c-35.1,6.84-76.65,12.06-123.37,12.48c-52.62,0.47-98.99-5.26-137.27-12.83"/>
	<path class="st0" d="M300.85,175.04c0.81-2.07,1.59-3.99,2.32-5.74c-1.09,0.18-2.97,0.39-5.18,0
		c-11.73-2.04-17.94-18.01-20.73-25.17c-12.46-32.03-9.7-126.66-9.5-132.82c-13.82-3.76-26.46-7.73-40.28-11.49
		c0,22.18-122.95,22.39-122.95,0.2C91.28,3.78,78.03,7.55,64.79,11.31c0,4,0.01,10.03,0,17.36c-0.04,43.04-0.08,64.71-0.86,72.05
		c-1.81,16.94-6.51,60.96-28.5,67.71c-2.79,0.86-5.27,0.93-6.91,0.87c0.72,1.83,1.49,3.86,2.31,6.07"/>
	<path class="st0" d="M30.83,175.37c2.72,7.36,5.9,16.77,8.92,27.78c10.89,39.77,13.72,78.88,10.36,128.48
		C42.36,446.19,1.84,613.29,0.02,620.71c10.88,2.76,22.72,5.49,35.46,8"/>
	<path class="st0" d="M300.85,175.04C300.85,175.04,300.85,175.04,300.85,175.04l0.31,0c-0.02,0.05-7.09,19.02-10.64,31.58
		c-18.41,65.14-12.72,120.45,2.59,210.95c10.89,64.35,24.22,132.2,40.59,203.13c-11.52,2.93-24.07,5.79-37.57,8.42
		c0,0-0.01-0.02-0.02-0.06"/>
	<path class="st0" d="M300.85,175.04c-1.86-0.03-4.64-0.28-7.74-1.4c-9.89-3.58-15.51-13.38-18.91-22.07l-0.17,0.72
		c-23.95,82.66-27.38,150.77-26.26,196.39c1.43,57.99,10.9,107.74,21.59,163.85c9.07,47.6,26.19,114.32,26.76,116.54"/>
	<path class="st0" d="M30.83,175.37c2.64-0.45,6.36-1.36,10.33-3.47c8.09-4.28,13.7-11.58,18.05-22.3l0.18,0.72
		c26.08,99.42,26.14,177.55,21.93,228.37c-3.39,40.89-11.33,85.66-16.41,114.3c-9.74,54.91-28.83,133.26-29.43,135.71"/>
	<path class="st0" d="M30.83,175.37c-0.01,0-0.02,0-0.03,0.01l-0.28,0c2.72,7.36,5.9,16.77,8.92,27.78
		c10.89,39.77,13.72,78.88,10.36,128.48C42.04,446.19,1.52,613.29-0.3,620.71c10.97,2.79,22.91,5.53,35.76,8.06
		c0,0,0-0.02,0.01-0.06"/>
</g>
<path class="st1" d="M234.41,1.9"/>
<path class="st1" d="M99.11,1.9"/>
<g>
	<rect x="109.58" y="215.05" class="st2" width="31.96" height="12.15"/>
	<rect x="194.21" y="215.05" class="st2" width="31.96" height="12.15"/>
	<rect x="194.3" y="322.61" class="st2" width="31.96" height="12.15"/>
	<rect x="109.66" y="322.61" class="st2" width="31.96" height="12.15"/>
	<rect x="109.66" y="310.46" class="st2" width="31.96" height="12.15"/>
	<rect x="194.3" y="310.46" class="st2" width="31.96" height="12.15"/>
</g>
<path class="NeckAndArmTrim fill" d="M31.57,175.38c2.64-0.44,6.37-1.36,10.36-3.47c11.77-6.22,18.28-18.85,23.32-39.06
	c5.96-23.88,5.7-41.65,6.05-78.13c0.19-20.26,0.47-36.36,0.64-45.31l-6.69,1.9c0,4,0.01,10.03,0,17.36
	c-0.04,43.04-0.08,64.71-0.86,72.05c-1.81,16.94-6.51,60.96-28.5,67.71c-2.79,0.86-5.27,0.93-6.91,0.87L31.57,175.38z"/>
<path class="NeckAndArmTrim fill" d="M302.05,175.05c-1.85-0.01-4.77-0.22-8.05-1.41c-14.32-5.18-19.69-23.42-22.35-32.44
	c-11.54-39.17-8.99-124.16-8.74-131.63l6.05,1.74c-0.2,6.16-2.96,100.78,9.5,132.82c2.79,7.17,9,23.13,20.73,25.17
	c2.22,0.39,4.09,0.18,5.18,0L302.05,175.05z"/>
<path class="NeckAndArmTrim fill" d="M97.67,1.85c9.8,6.22,35.66,20.81,71.52,20.12c32.95-0.64,56.66-13.84,66.55-20.14l-8.28-2.25
	c-10.17,5.47-31.35,15.12-59.77,15.37c-29.68,0.26-51.79-9.87-62.01-15.37L97.67,1.85z"/>
<path class="st1" d="M234.41,1.9"/>
<path class="st1" d="M99.12,1.9"/>
<g id="BBodyLogos"></g>
</svg>
