<?xml version="1.0" encoding="utf-8"?>
<!-- Generator: Adobe Illustrator 19.1.0, SVG Export Plug-In . SVG Version: 6.00 Build 0)  -->
<svg version="1.1" id="Layer_1" xmlns="http://www.w3.org/2000/svg" xmlns:xlink="http://www.w3.org/1999/xlink" x="0px" y="0px"
	 viewBox="0 0 335.2 641.14" style="enable-background:new 0 0 335.2 641.14;" xml:space="preserve">
<style type="text/css">
	<![CDATA[
	@font-face{font-family:'codaheavy';src:url('/fonts/coda-heavy-webfont.woff') format('woff')}
	text{font-family:Impact,codaheavy,sans-serif}
	.Number.fill{fill:#000}
	.NumberOutline.stroke{fill:none;stroke:#777;stroke-width:2.5}
	.Colour1.fill{fill:#189DD6;}
	.Colour2.fill{fill:#3B4C9F;}
	.NeckAndArmTrim.fill{fill:#3B4C9F;stroke:#000000;stroke-miterlimit:10;}
	.SidePanels.fill{fill:#189DD6;stroke:#000000;stroke-miterlimit:10;}
	.st0{fill:none;stroke:#000000;stroke-linecap:round;stroke-linejoin:round;}
	.st1{fill:none;stroke:#000000;stroke-miterlimit:10;}
	.st2{fill:#FFFFFF;stroke:#000000;}
	]]>
</style>
<path class="Colour1 fill" d="M228.19-0.23c13.82,3.76,26.65,7.78,40.46,11.54c-0.2,6.16-2.96,100.78,9.5,132.82
	c2.79,7.17,9,23.13,20.73,25.17c2.22,0.39,4.09,0.18,5.18,0c-3.61,8.71-8.48,21.5-12.95,37.33
	c-18.41,65.14-12.72,120.45,2.59,210.95c10.89,64.35,24.22,132.2,40.59,203.13c-41.42,10.53-96.11,20.26-160.64,20.83
	c-70.12,0.63-129.15-9.76-172.73-20.83c1.82-7.42,42.34-174.52,50.09-289.08c3.36-49.6,0.53-88.71-10.36-128.48
	c-3.92-14.33-8.13-25.94-11.23-33.86c1.64,0.07,4.12-0.01,6.91-0.87c21.99-6.75,26.69-50.77,28.5-67.71
	c0.78-7.34,0.82-29.01,0.86-72.05c0.01-7.33,0-13.36,0-17.36c13.24-3.76,26.49-7.52,39.73-11.29
	C105.42,21.2,228.18,20.95,228.19-0.23z"/>
<path class="Colour2 fill" d="M32.31,627.9c1.75,0.36,3.52,0.71,5.3,1.06L6.36,597.54c-0.27,1.19-0.54,2.36-0.8,3.47L32.31,627.9z"/>
<path class="Colour2 fill" d="M167.6,639.19l-2.35,2.37c1.56,0.01,3.13,0,4.71,0L167.6,639.19z"/>
<path class="Colour2 fill" d="M331.76,609.55l-15.36,15.44c1.86-0.42,3.69-0.84,5.51-1.27l10.64-10.69
	C332.28,611.87,332.02,610.71,331.76,609.55z"/>
<path class="Colour2 fill" d="M329,597.38l-31.4,31.56c1.78-0.35,3.55-0.7,5.3-1.06l26.89-27.03C329.53,599.7,329.26,598.54,329,597.38z"
	/>
<path class="Colour2 fill" d="M3.55,609.66c-0.29,1.24-0.57,2.4-0.81,3.45l10.57,10.62c1.81,0.42,3.65,0.84,5.5,1.26L3.55,609.66z"/>
<g>
	<path class="st0" d="M301.74,175.04c-3.24,8.24-7.06,18.94-10.64,31.59c-18.41,65.14-12.72,120.45,2.59,210.95
		c10.89,64.35,24.22,132.2,40.59,203.13c-11.43,2.91-23.89,5.75-37.27,8.36"/>
	<path class="st0" d="M297.02,629.07c-35.1,6.84-76.65,12.06-123.37,12.48c-52.62,0.47-98.99-5.26-137.27-12.83"/>
	<path class="st0" d="M301.74,175.04c0.81-2.07,1.59-3.99,2.32-5.74c-1.09,0.18-2.97,0.39-5.18,0
		c-11.73-2.04-17.94-18.01-20.73-25.17c-12.46-32.03-9.7-126.66-9.5-132.82C254.83,7.55,242,3.53,228.19-0.23
		c0,21.18-122.77,21.43-122.77,0.25C92.17,3.78,78.93,7.55,65.69,11.31c0,4,0.01,10.03,0,17.36c-0.04,43.04-0.08,64.71-0.86,72.05
		c-1.81,16.94-6.51,60.96-28.5,67.71c-2.79,0.86-5.27,0.93-6.91,0.87c0.72,1.83,1.49,3.86,2.31,6.07"/>
	<path class="st0" d="M31.72,175.37c2.72,7.36,5.9,16.77,8.92,27.78c10.89,39.77,13.72,78.88,10.36,128.48
		C43.25,446.19,2.73,613.29,0.91,620.71c10.88,2.76,22.72,5.49,35.46,8"/>
	<path class="st0" d="M301.74,175.04C301.75,175.04,301.75,175.04,301.74,175.04l0.31,0c-0.02,0.05-7.09,19.02-10.64,31.58
		c-18.41,65.14-12.72,120.45,2.59,210.95c10.89,64.35,24.22,132.2,40.59,203.13c-11.52,2.93-24.07,5.79-37.57,8.42
		c0,0-0.01-0.02-0.02-0.06"/>
	<path class="st0" d="M301.74,175.04c-1.86-0.03-4.64-0.28-7.74-1.4c-9.89-3.58-15.51-13.38-18.91-22.07l-0.17,0.72
		c-23.95,82.66-27.38,150.77-26.26,196.39c1.43,57.99,10.9,107.74,21.59,163.85c9.07,47.6,26.19,114.32,26.76,116.54"/>
	<path class="st0" d="M31.72,175.37c-0.01,0-0.02,0-0.03,0.01l-0.28,0c2.72,7.36,5.9,16.77,8.92,27.78
		c10.89,39.77,13.72,78.88,10.36,128.48C42.94,446.19,2.42,613.29,0.6,620.71c10.97,2.79,22.91,5.53,35.76,8.06
		c0,0,0-0.02,0.01-0.06"/>
	<path class="st0" d="M31.72,175.37c2.64-0.45,6.36-1.36,10.33-3.47c8.09-4.28,13.7-11.58,18.05-22.3l0.18,0.72
		c26.08,99.42,26.14,177.55,21.93,228.37c-3.39,40.89-11.33,85.66-16.41,114.3c-9.74,54.91-28.83,133.26-29.43,135.71"/>
</g>
<path class="st1" d="M234.41,1.9"/>
<path class="st1" d="M99.11,1.9"/>
<g>
	<rect x="109.58" y="215.05" class="st2" width="31.96" height="12.15"/>
	<rect x="194.21" y="215.05" class="st2" width="31.96" height="12.15"/>
	<rect x="194.3" y="322.61" class="st2" width="31.96" height="12.15"/>
	<rect x="109.66" y="322.61" class="st2" width="31.96" height="12.15"/>
	<rect x="109.66" y="310.46" class="st2" width="31.96" height="12.15"/>
	<rect x="194.3" y="310.46" class="st2" width="31.96" height="12.15"/>
</g>
<path class="NeckAndArmTrim fill" d="M31.57,175.38c2.64-0.44,6.37-1.36,10.36-3.47c11.77-6.22,18.28-18.85,23.32-39.06
	c5.96-23.88,5.7-41.65,6.05-78.13c0.19-20.26,0.47-36.36,0.64-45.31l-6.69,1.9c0,4,0.01,10.03,0,17.36
	c-0.04,43.04-0.08,64.71-0.86,72.05c-1.81,16.94-6.51,60.96-28.5,67.71c-2.79,0.86-5.27,0.93-6.91,0.87L31.57,175.38z"/>
<path class="NeckAndArmTrim fill" d="M302.05,175.05c-1.85-0.01-4.77-0.22-8.05-1.41c-14.32-5.18-19.69-23.42-22.35-32.44
	c-11.54-39.17-8.99-124.16-8.74-131.63l6.05,1.74c-0.2,6.16-2.96,100.78,9.5,132.82c2.79,7.17,9,23.13,20.73,25.17
	c2.22,0.39,4.09,0.18,5.18,0L302.05,175.05z"/>
<path class="NeckAndArmTrim fill" d="M97.67,1.85c9.8,6.22,35.66,20.81,71.52,20.12c32.95-0.64,56.66-13.84,66.55-20.14l-8.28-2.25
	c-10.17,5.47-31.35,15.12-59.77,15.37c-29.68,0.26-51.79-9.87-62.01-15.37L97.67,1.85z"/>
<path class="st1" d="M234.41,1.9"/>
<path class="st1" d="M99.12,1.9"/>
<path class="Colour2 fill" d="M52.33,295.22l173.65-120.99L52.26,302.26C52.3,299.9,52.33,297.55,52.33,295.22z M225.98,134.84
	L50.57,257.06c0.22,2.2,0.42,4.4,0.6,6.62L225.98,134.84z M225.98,115.15L48.29,238.96c0.33,2.15,0.64,4.31,0.93,6.47L225.98,115.15
	z M225.98,193.92L51.89,315.22c-0.1,2.4-0.2,4.8-0.33,7.25L225.98,193.92z M225.98,154.54L51.9,275.83c0.1,2.26,0.19,4.53,0.25,6.82
	L225.98,154.54z M225.98,95.46L45.08,221.5c0.45,2.11,0.88,4.22,1.28,6.34L225.98,95.46z M274.04,457.56l-148.25-103.3L274.1,463.57
	C274.07,461.55,274.05,459.54,274.04,457.56z M275.04,430.63c0.15-1.9,0.32-3.78,0.51-5.65L125.79,320.64L275.04,430.63z
	 M276.7,415.05c0.25-1.85,0.51-3.69,0.79-5.52l-151.7-105.7L276.7,415.05z M274.7,480.82c-0.11-2.09-0.2-4.14-0.28-6.19
	L125.79,371.07L274.7,480.82z M274.2,446.83c0.06-1.96,0.13-3.9,0.22-5.82L125.79,337.45L274.2,446.83z M279.14,400.03
	c0.34-1.81,0.71-3.61,1.09-5.41L125.79,287.02L279.14,400.03z"/>
<path class="Colour2 fill" d="M85.11,571.04l-31.15-31.31l-31.15,31.31l31.15,31.31L85.11,571.04z M53.97,544l26.9,27.04l-26.9,27.04
	l-26.9-27.04L53.97,544z M51.92,631.6L8.54,587.99c0.26-1.14,0.52-2.3,0.78-3.48l44.65,44.88l58.05-58.35l-58.05-58.35l-37.14,37.33
	c0.38-1.78,0.76-3.59,1.14-5.41l36-36.18l62.3,62.61l-60.85,61.16C54.24,632,53.08,631.8,51.92,631.6z M132.19,571.04l-63,63.33
	c-1.24-0.18-2.47-0.37-3.7-0.55l62.45-62.77l-73.98-74.36l-32.94,33.11c0.36-1.77,0.72-3.56,1.09-5.36l31.85-32.01L132.19,571.04z
	 M167.6,592.94l46.75,46.98c-1.32,0.09-2.64,0.19-3.97,0.28l-42.77-42.99l-42.78,43c-1.33-0.08-2.66-0.17-3.98-0.27L167.6,592.94z
	 M167.6,623.9l17.36,17.45c-1.38,0.04-2.78,0.05-4.17,0.07l-13.18-13.25l-13.21,13.27c-1.39-0.03-2.77-0.06-4.15-0.1L167.6,623.9z
	 M53.97,618.35l-42.64-42.86c0.25-1.15,0.51-2.31,0.77-3.5l41.87,42.09l42.83-43.05l-42.83-43.05l-41.33,41.54
	c0.39-1.78,0.79-3.61,1.19-5.46l40.14-40.35l47.07,47.32L53.97,618.35z M200.31,640.76c-1.35,0.07-2.69,0.14-4.05,0.19l-28.65-28.8
	l-28.65,28.8c-1.36-0.06-2.72-0.11-4.07-0.18l32.72-32.89L200.31,640.76z M228.45,638.81c-1.3,0.12-2.6,0.23-3.91,0.34l-56.94-57.23
	l-56.95,57.25c-1.31-0.11-2.61-0.23-3.91-0.34l60.86-61.17L228.45,638.81z M95.9,637.75c-1.28-0.14-2.56-0.28-3.83-0.42l65.96-66.29
	L53.97,466.44l-25.54,25.67c0.33-1.75,0.66-3.5,0.99-5.26l24.55-24.68l108.31,108.86L95.9,637.75z M243.13,637.33
	c-1.27,0.14-2.56,0.28-3.84,0.41l-66.37-66.71l108.31-108.86l25,25.12c0.33,1.76,0.66,3.51,1,5.27l-25.99-26.13l-104.06,104.6
	L243.13,637.33z M256.68,635.66c-1.25,0.17-2.48,0.34-3.75,0.5l-64.79-65.12l93.09-93.57l28.67,28.82c0.35,1.77,0.69,3.53,1.04,5.31
	l-29.71-29.86l-88.84,89.3L256.68,635.66z M147.05,571.04l-64.79,65.12c-1.26-0.16-2.51-0.32-3.76-0.49l64.3-64.63l-88.84-89.3
	l-29.19,29.34c0.35-1.76,0.69-3.53,1.04-5.31l28.15-28.3L147.05,571.04z M281.24,508.42l36.49,36.67c0.37,1.8,0.76,3.61,1.14,5.42
	l-37.63-37.82l-58.05,58.35l58.05,58.35l44.87-45.1c0.26,1.17,0.51,2.33,0.77,3.5l-43.59,43.82c-1.16,0.2-2.33,0.39-3.5,0.59
	l-60.84-61.15L281.24,508.42z M313.61,524.95c0.36,1.78,0.72,3.57,1.09,5.36l-33.47-33.64l-73.98,74.36l62.44,62.76
	c-1.23,0.19-2.46,0.37-3.7,0.55l-62.99-63.32l78.22-78.63L313.61,524.95z M250.09,571.04l31.15,31.31l31.15-31.31l-31.15-31.31
	L250.09,571.04z M281.24,598.07l-26.9-27.04l26.9-27.04l26.9,27.04L281.24,598.07z M281.24,523.72l40.58,40.78
	c0.39,1.81,0.77,3.62,1.16,5.43l-41.74-41.95l-42.83,43.05l42.83,43.05l42.13-42.34c0.25,1.16,0.51,2.34,0.77,3.5l-42.89,43.11
	l-47.07-47.32L281.24,523.72z"/>
<path class="SidePanels fill" d="M301.75,175.04c-1.86-0.03-4.65-0.28-7.74-1.4c-9.89-3.58-15.51-13.38-18.91-22.07l-0.17,0.72
	c-23.95,82.66-27.38,150.77-26.26,196.39c1.43,57.99,10.9,107.74,21.59,163.85c9.22,48.41,26.77,116.6,26.77,116.6
	c13.5-2.62,26.05-5.49,37.57-8.42c-16.37-70.93-29.71-138.78-40.59-203.13c-15.31-90.5-21-145.81-2.59-210.95
	c3.55-12.56,10.62-31.53,10.64-31.58L301.75,175.04z"/>
<path class="SidePanels fill" d="M31.69,175.38c2.64-0.44,6.37-1.36,10.36-3.47c8.09-4.28,13.7-11.58,18.05-22.3l0.18,0.72
	c26.08,99.42,26.14,177.55,21.93,228.37c-3.39,40.89-11.33,85.66-16.41,114.3c-9.89,55.78-29.45,135.77-29.45,135.77
	c-12.85-2.53-24.79-5.28-35.76-8.06c1.82-7.42,42.34-174.52,50.09-289.08c3.36-49.6,0.53-88.71-10.36-128.48
	c-3.02-11.01-6.2-20.42-8.92-27.78L31.69,175.38z"/>
<g id="BBodyLogos"></g>
</svg>
