<?xml version="1.0" encoding="utf-8"?>
<!-- Generator: Adobe Illustrator 19.1.0, SVG Export Plug-In . SVG Version: 6.00 Build 0)  -->
<svg version="1.1" id="Layer_1" xmlns="http://www.w3.org/2000/svg" xmlns:xlink="http://www.w3.org/1999/xlink" x="0px" y="0px"
	 viewBox="0 0 335.2 641.14" style="enable-background:new 0 0 335.2 641.14;" xml:space="preserve">
<style type="text/css">
	<![CDATA[
	@font-face{font-family:'codaheavy';src:url('/fonts/coda-heavy-webfont.woff') format('woff')}
	text{font-family:Impact,codaheavy,sans-serif}
	.Colour1.fill{fill:#52C4D4;}
	.Colour2.fill{fill:#1D1A44;}
	.Colour3.fill{fill:#171542;}
	.Colour4.fill{fill:#831537;}
	.Colour5.fill{fill:#54C5D4;}
	.NeckAndArmTrim.fill{fill:#BE1E2D;}
	.st0{fill:url(#SVGID_1_);stroke:#000000;stroke-miterlimit:10;}
	.st1{fill:none;stroke:#000000;stroke-miterlimit:10;}
	.st3{fill:#FFFFFF;stroke:#000000;}
	]]>
</style>
<path class="Colour5 fill" d="M227.31-0.43c13.84,3.76,27.69,7.53,41.53,11.29c-0.2,6.16-2.97,100.85,9.52,132.91
	c2.79,7.17,9.01,23.15,20.77,25.19c2.22,0.39,4.1,0.18,5.19,0c-3.61,8.71-8.5,21.51-12.98,37.35
	c-18.44,65.18-12.74,120.54,2.6,211.1c10.91,64.39,24.26,132.3,40.67,203.28c-41.5,10.53-96.29,20.27-160.94,20.85
	c-70.25,0.63-129.39-9.77-173.06-20.85c1.82-7.43,42.42-174.64,50.19-289.28c3.36-49.63,0.53-88.77-10.38-128.57
	c-3.93-14.34-8.14-25.96-11.25-33.88c1.64,0.07,4.12-0.01,6.92-0.87c22.03-6.76,26.74-50.8,28.55-67.76
	c0.79-7.35,0.82-29.03,0.87-72.1c0.01-7.33,0-13.37,0-17.37C78.77,7.1,92.03,3.33,105.3-0.43c2.1,17.98,9.02,53.37,36.34,84.26
	c8.08,9.14,16.48,16.23,24.23,21.72c7.76-5.52,16.14-12.62,24.23-21.72C217.47,53.05,224.91,17.9,227.31-0.43z"/>
<path class="Colour2 fill" d="M167.56,639.2l-2.36,2.37c1.57,0.01,3.14,0,4.71,0L167.56,639.2z"/>
<path class="Colour2 fill" d="M332.02,609.54l-15.39,15.45c1.87-0.42,3.7-0.84,5.52-1.27l10.65-10.7
	C332.55,611.85,332.29,610.7,332.02,609.54z"/>
<path class="Colour2 fill" d="M329.26,597.36l-31.46,31.58c1.78-0.35,3.56-0.7,5.31-1.06l26.94-27.04
	C329.79,599.68,329.52,598.51,329.26,597.36z"/>
<path class="Colour2 fill" d="M3.2,609.64c-0.29,1.24-0.57,2.4-0.82,3.45l10.59,10.63c1.81,0.42,3.65,0.85,5.51,1.26L3.2,609.64z"/>
<path class="Colour2 fill" d="M84.92,570.99l-31.21-31.33l-31.21,31.33l31.21,31.33L84.92,570.99z M53.71,543.93l26.95,27.06
	l-26.95,27.06l-26.95-27.06L53.71,543.93z M51.67,631.6L8.2,587.96c0.26-1.14,0.52-2.3,0.78-3.48l44.73,44.91l58.16-58.39
	l-58.16-58.39L16.5,549.96c0.38-1.78,0.76-3.59,1.14-5.42l36.07-36.21l62.41,62.66l-60.96,61.2C53.99,632,52.83,631.8,51.67,631.6z
	 M132.08,570.99l-63.12,63.37c-1.24-0.18-2.48-0.37-3.7-0.55l62.57-62.82l-74.11-74.41l-33,33.13c0.36-1.77,0.73-3.56,1.09-5.37
	l31.91-32.04L132.08,570.99z M167.56,592.92l46.83,47.02c-1.33,0.09-2.64,0.19-3.98,0.28l-42.85-43.02l-42.86,43.03
	c-1.34-0.08-2.67-0.17-3.99-0.27L167.56,592.92z M167.56,623.89l17.39,17.46c-1.38,0.04-2.79,0.05-4.18,0.07l-13.21-13.26
	l-13.23,13.28c-1.39-0.03-2.77-0.06-4.16-0.1L167.56,623.89z M53.71,618.34l-42.72-42.89c0.25-1.15,0.51-2.31,0.77-3.5l41.95,42.12
	l42.91-43.08l-42.91-43.08L12.3,569.49c0.39-1.78,0.79-3.61,1.19-5.47l40.22-40.38l47.16,47.35L53.71,618.34z M200.33,640.77
	c-1.35,0.07-2.7,0.14-4.06,0.19l-28.71-28.82l-28.71,28.82c-1.36-0.06-2.72-0.11-4.07-0.18l32.78-32.91L200.33,640.77z
	 M228.52,638.81c-1.3,0.12-2.61,0.23-3.92,0.34l-57.05-57.27l-57.06,57.29c-1.31-0.11-2.61-0.23-3.91-0.34l60.97-61.22
	L228.52,638.81z M95.72,637.75c-1.28-0.14-2.56-0.28-3.84-0.42l66.08-66.34L53.71,466.32l-25.58,25.69c0.33-1.75,0.66-3.5,0.99-5.26
	l24.6-24.69l108.51,108.94L95.72,637.75z M243.23,637.33c-1.27,0.14-2.56,0.28-3.84,0.41l-66.49-66.75l108.51-108.94l25.04,25.14
	c0.33,1.76,0.66,3.51,1,5.27l-26.04-26.14L177.15,570.99L243.23,637.33z M256.81,635.66c-1.25,0.17-2.49,0.34-3.75,0.5l-64.91-65.17
	l93.26-93.63l28.72,28.84c0.35,1.77,0.69,3.54,1.04,5.31l-29.76-29.88l-89.01,89.36L256.81,635.66z M146.97,570.99l-64.91,65.17
	c-1.26-0.16-2.52-0.32-3.77-0.49l64.42-64.68l-89.01-89.36l-29.25,29.36c0.35-1.76,0.69-3.53,1.04-5.32l28.21-28.32L146.97,570.99z
	 M281.41,508.33l36.55,36.7c0.37,1.8,0.77,3.62,1.14,5.42l-37.7-37.85l-58.16,58.39l58.16,58.39l44.96-45.13
	c0.26,1.17,0.51,2.33,0.77,3.5l-43.67,43.85c-1.16,0.2-2.34,0.39-3.51,0.59L219,570.99L281.41,508.33z M313.85,524.88
	c0.36,1.78,0.73,3.58,1.09,5.37l-33.53-33.66l-74.11,74.41l62.56,62.81c-1.23,0.19-2.46,0.37-3.7,0.55l-63.11-63.36l78.37-78.68
	L313.85,524.88z M250.2,570.99l31.21,31.33l31.21-31.33l-31.21-31.33L250.2,570.99z M281.41,598.05l-26.95-27.06l26.95-27.06
	l26.95,27.06L281.41,598.05z M281.41,523.64l40.65,40.81c0.39,1.81,0.77,3.62,1.16,5.44l-41.81-41.98l-42.91,43.08l42.91,43.08
	l42.21-42.37c0.25,1.16,0.51,2.34,0.77,3.5l-42.98,43.14l-47.16-47.35L281.41,523.64z"/>
<path class="Colour2 fill" d="M276.75,179.02H58.45v-5.83h218.3V179.02z M276.75,180.62H58.45v3.44h218.3V180.62z M276.75,187.79H58.45
	v3.44h218.3V187.79z M276.75,207.17H58.45V213h218.3V207.17z M276.75,214.6H58.45v3.44h218.3V214.6z M276.75,221.77H58.45v3.44
	h218.3V221.77z M276.75,241.15H58.45v5.83h218.3V241.15z M276.75,248.58H58.45v3.44h218.3V248.58z M276.75,255.75H58.45v3.44h218.3
	V255.75z M276.75,275.13H58.45v5.83h218.3V275.13z M276.75,282.56H58.45V286h218.3V282.56z M276.75,289.73H58.45v3.44h218.3V289.73z
	 M276.75,309.11H58.45v5.83h218.3V309.11z M276.75,316.54H58.45v3.44h218.3V316.54z M276.75,323.71H58.45v3.44h218.3V323.71z
	 M276.75,343.09H58.45v5.83h218.3V343.09z M276.75,350.52H58.45v3.44h218.3V350.52z M276.75,357.69H58.45v3.44h218.3V357.69z
	 M276.75,377.07H58.45v5.83h218.3V377.07z M276.75,384.5H58.45v3.44h218.3V384.5z M276.75,391.67H58.45v3.44h218.3V391.67z"/>
<path class="st1" d="M98.67,1.45c1.6,14.45,6.57,41.47,24.8,69.35c14.38,22.01,31.28,35.76,42.4,43.44
	c11.12-7.34,27.93-20.47,42.4-41.7C227.72,44,232.69,15.88,234.22,1.45"/>
<path class="st1" d="M72.2,8.96c-0.17,8.95-0.45,25.06-0.65,45.34c-0.34,36.5-0.09,54.28-6.06,78.18
	c-5.05,20.23-11.57,32.87-23.36,39.09c-4,2.11-7.74,3.03-10.38,3.47"/>
<path class="st1" d="M262.78,9.13c-0.25,7.48-2.8,92.53,8.76,131.73c2.66,9.02,8.04,27.27,22.39,32.46
	c3.28,1.18,6.21,1.39,8.06,1.41"/>
<path class="st1" d="M107.61,14.02c8.95,5.27,30.13,16.11,59.12,15.96c28.27-0.15,48.92-10.69,57.87-15.96"/>
<path class="st1" d="M109.45,22c10.2,5.01,29.77,12.96,55.56,13.19c27.06,0.24,47.57-8.13,57.87-13.19"/>
<path class="Colour3 fill" d="M301.69,174.71c-1.86-0.03-4.66-0.28-7.76-1.4c-9.9-3.58-15.54-13.39-18.95-22.09l-0.17,0.72
	c-24,82.72-27.43,150.88-26.31,196.53c1.43,58.03,10.92,107.82,21.63,163.97c9.24,48.44,26.82,116.68,26.82,116.68
	c13.53-2.63,26.1-5.5,37.64-8.42c-16.41-70.98-29.76-138.88-40.67-203.28c-15.34-90.56-21.04-145.91-2.6-211.1
	c3.56-12.57,10.64-31.55,10.66-31.6L301.69,174.71z"/>
<path class="Colour3 fill" d="M31.75,175.05c2.64-0.44,6.39-1.36,10.38-3.47c8.11-4.28,13.72-11.59,18.08-22.32l0.18,0.72
	c26.13,99.49,26.19,177.68,21.97,228.53c-3.4,40.92-11.35,85.72-16.44,114.38c-9.91,55.82-29.5,135.87-29.5,135.87
	c-12.88-2.54-24.84-5.28-35.83-8.07c1.82-7.43,42.42-174.64,50.19-289.28c3.36-49.63,0.53-88.77-10.38-128.57
	c-3.02-11.02-6.21-20.43-8.93-27.8L31.75,175.05z"/>
<path class="Colour4 fill" d="M318.51,547.43c-0.2-0.95-0.41-1.91-0.6-2.86c-9.64-9.88-23.07-16.02-37.9-16.02
	c-2.23,0-4.41,0.15-6.57,0.42c0.1,0.49,0.21,0.99,0.31,1.48c2.05-0.25,4.14-0.39,6.26-0.39
	C295.3,530.06,309.06,536.78,318.51,547.43z"/>
<path class="Colour4 fill" d="M296.57,581.85c0-8.68-6.67-15.82-15.13-16.55c0.12,0.52,0.24,1.04,0.36,1.55
	c7.46,0.89,13.27,7.27,13.27,15c0,5.25-2.68,9.87-6.73,12.59c0.13,0.52,0.25,1.03,0.37,1.54
	C293.42,593.03,296.57,587.81,296.57,581.85z"/>
<path class="Colour4 fill" d="M322.54,566.52c-0.5-2.34-0.98-4.65-1.47-6.99c-7.92-14.62-23.35-24.56-41.05-24.56
	c-1.77,0-3.52,0.11-5.24,0.3c0.11,0.49,0.21,0.99,0.32,1.48c1.62-0.18,3.26-0.27,4.93-0.27
	C299.57,536.48,316.26,549.02,322.54,566.52z"/>
<path class="Colour4 fill" d="M292.43,581.85c0-6.03-4.3-11.08-9.98-12.22c0.1,0.41,0.19,0.82,0.29,1.24c4.91,1.23,8.56,5.68,8.56,10.98
	c0,3.43-1.53,6.5-3.93,8.58c0.1,0.41,0.2,0.82,0.29,1.22C290.56,589.36,292.43,585.82,292.43,581.85z"/>
<path class="Colour4 fill" d="M283.44,573.88c0.08,0.34,0.16,0.69,0.24,1.03c2.48,1.33,4.19,3.92,4.19,6.94c0,1.7-0.55,3.27-1.47,4.56
	c0.08,0.34,0.16,0.67,0.24,1c1.25-1.51,2.01-3.44,2.01-5.56C288.66,578.28,286.51,575.22,283.44,573.88z"/>
<path class="Colour4 fill" d="M288.21,517.21l-2.9-1.83c-1.75-0.14-3.51-0.23-5.3-0.23c-3.13,0-6.21,0.23-9.22,0.66
	c0.1,0.49,0.19,0.99,0.29,1.49c2.92-0.41,5.9-0.63,8.93-0.63C282.79,516.66,285.52,516.87,288.21,517.21z"/>
<path class="Colour4 fill" d="M316.28,536.66c-0.14-0.68-0.27-1.35-0.41-2.02l-10.62-6.7c-7.66-3.63-16.21-5.68-25.24-5.68
	c-2.66,0-5.27,0.19-7.83,0.54c0.1,0.49,0.2,0.99,0.3,1.48c2.47-0.32,4.98-0.51,7.53-0.51C293.74,523.78,306.35,528.61,316.28,536.66
	z"/>
<path class="Colour4 fill" d="M331.69,607.88c-3.12,6.22-7.32,11.81-12.36,16.5c0.97-0.22,1.9-0.45,2.85-0.67
	c3.94-4,7.33-8.56,10.02-13.54C332.04,609.4,331.86,608.64,331.69,607.88z"/>
<path class="Colour4 fill" d="M326.58,585.05c-0.53-2.39-1.05-4.77-1.57-7.15c0.11,1.3,0.18,2.62,0.18,3.95
	c0,19.46-12.27,36.09-29.45,42.52c0.13,0.53,0.26,1.02,0.37,1.46C312.99,619.58,325.31,603.82,326.58,585.05z"/>
<path class="Colour4 fill" d="M300.84,581.85c0-11.39-9.11-20.66-20.4-20.89c0.12,0.51,0.23,1.02,0.35,1.53
	c10.29,0.42,18.54,8.93,18.54,19.37c0,7.28-4.02,13.63-9.94,16.95c0.12,0.51,0.25,1.02,0.37,1.52
	C296.35,596.8,300.84,589.84,300.84,581.85z"/>
<path class="Colour4 fill" d="M331.53,621.45c0.76-0.19,1.54-0.38,2.29-0.57c0.21-0.29,0.42-0.58,0.62-0.88
	c-0.15-0.67-0.3-1.32-0.45-1.99C333.21,619.19,332.39,620.34,331.53,621.45z"/>
<path class="Colour4 fill" d="M320.59,581.85c0-22.46-18.2-40.73-40.58-40.73c-1.33,0-2.65,0.07-3.94,0.2c0.11,0.5,0.22,0.99,0.32,1.49
	c1.19-0.11,2.4-0.17,3.62-0.17c21.54,0,39.07,17.6,39.07,39.22c0,16.59-10.32,30.8-24.85,36.52c0.13,0.51,0.25,1,0.37,1.48
	C309.79,613.95,320.59,599.14,320.59,581.85z"/>
<path class="Colour4 fill" d="M329.27,597.22c-4.1,13.21-13.34,24.16-25.36,30.49c1.55-0.32,3.11-0.64,4.63-0.96
	c9.75-6.27,17.35-15.63,21.37-26.72C329.7,599.1,329.48,598.16,329.27,597.22z"/>
<path class="Colour4 fill" d="M304.73,581.85c0-13.68-11.09-24.82-24.72-24.82c-0.15,0-0.3,0.02-0.45,0.02c0.11,0.5,0.23,1,0.34,1.49
	c0.04,0,0.07-0.01,0.11-0.01c12.8,0,23.22,10.46,23.22,23.31c0,9.12-5.26,17.01-12.88,20.84c0.12,0.51,0.25,1,0.37,1.5
	C298.99,600.17,304.73,591.68,304.73,581.85z"/>
<path class="Colour4 fill" d="M314.75,581.85c0-19.23-15.58-34.87-34.74-34.87c-0.9,0-1.79,0.05-2.68,0.11c0.11,0.5,0.22,0.99,0.33,1.49
	c0.78-0.05,1.56-0.09,2.35-0.09c18.32,0,33.23,14.97,33.23,33.36c0,13.85-8.45,25.75-20.44,30.79c0.12,0.5,0.25,0.99,0.37,1.48
	C305.82,608.9,314.75,596.4,314.75,581.85z"/>
<path class="Colour4 fill" d="M309.46,581.85c0-16.3-13.21-29.57-29.45-29.57c-0.51,0-1,0.05-1.51,0.08c0.11,0.5,0.22,1,0.33,1.49
	c0.39-0.02,0.78-0.06,1.17-0.06c15.41,0,27.95,12.59,27.95,28.06c0,11.36-6.77,21.14-16.45,25.55c0.12,0.51,0.25,1,0.37,1.5
	C302.22,604.3,309.46,593.91,309.46,581.85z"/>
<path class="Colour4 fill" d="M270.37,167.96c0.15-0.58,0.31-1.17,0.47-1.76l10.14-3.46c0.3,0.43,0.61,0.86,0.93,1.28L270.37,167.96z
	 M284.46,166.99c-0.38-0.39-0.75-0.8-1.11-1.22l-13.62,4.65c-0.15,0.58-0.3,1.17-0.45,1.75L284.46,166.99z M287.58,169.78
	c-0.47-0.36-0.93-0.74-1.37-1.13l-17.57,6.01c-0.15,0.58-0.29,1.16-0.43,1.74L287.58,169.78z M279.76,160.91
	c-0.27-0.44-0.54-0.88-0.79-1.32l-6.97,2.38c-0.16,0.59-0.32,1.17-0.48,1.76L279.76,160.91z M283.35,154.87
	c-0.03-0.06-0.07-0.12-0.1-0.18C283.28,154.75,283.31,154.81,283.35,154.87z M291.55,172.27c-0.61-0.3-1.2-0.64-1.78-0.99
	l-22.17,7.58c-0.14,0.58-0.29,1.16-0.43,1.74L291.55,172.27z M294.02,171.42l6.64-2.27c-0.49-0.03-1-0.09-1.54-0.18
	c-0.51-0.09-1-0.24-1.49-0.38l-3,1.03C294.43,170.22,294.23,170.82,294.02,171.42z M266.15,184.79L303,172.2
	c0.26-0.64,0.51-1.25,0.75-1.85l-37.19,12.71C266.42,183.64,266.29,184.21,266.15,184.79z M285.58,158.56
	c-0.17-0.26-0.34-0.51-0.5-0.77C285.24,158.05,285.41,158.31,285.58,158.56z M301.96,174.8l-36.39,12.44
	c-0.13,0.58-0.28,1.16-0.41,1.74l36.08-12.33C301.49,176.02,301.72,175.41,301.96,174.8z M299.57,181.06
	c0.23-0.62,0.46-1.23,0.68-1.83l-35.65,12.18c-0.13,0.58-0.26,1.15-0.39,1.73L299.57,181.06z M277.92,157.69
	c-0.24-0.45-0.46-0.91-0.69-1.36l-4.05,1.39c-0.16,0.59-0.34,1.18-0.5,1.77L277.92,157.69z M287.76,161.53
	c-0.05-0.06-0.09-0.12-0.14-0.18C287.67,161.42,287.72,161.48,287.76,161.53z M290.66,164.57c-0.13-0.12-0.26-0.24-0.39-0.36
	C290.4,164.34,290.53,164.46,290.66,164.57z M293.3,166.6c0.26,0.17,0.53,0.32,0.8,0.48C293.83,166.92,293.56,166.77,293.3,166.6z
	 M262.4,201.46l34.06-11.64c0.21-0.61,0.41-1.21,0.62-1.81l-34.32,11.73C262.65,200.31,262.53,200.88,262.4,201.46z M261.54,205.6
	l33.49-11.45c0.2-0.6,0.39-1.21,0.58-1.79l-33.73,11.53C261.77,204.46,261.66,205.03,261.54,205.6z M294.22,196.68l-33.17,11.34
	c-0.11,0.57-0.23,1.14-0.35,1.71l32.96-11.26C293.85,197.86,294.04,197.27,294.22,196.68z M263.29,197.31l34.69-11.86
	c0.22-0.62,0.43-1.22,0.65-1.82l-34.96,11.95C263.54,196.16,263.41,196.74,263.29,197.31z"/>
<path class="Colour4 fill" d="M275.49,240.86l-9.4-27.73l1.42-0.49l9.24,27.26L275.49,240.86z M286.95,206l2.49,7.34
	c0.23-0.87,0.46-1.75,0.7-2.63l-1.76-5.2L286.95,206z M284.68,233.84l-8.23-24.26l-1.42,0.49l8.39,24.73l-2.14,1.63l0.76-0.58
	l-8.56-25.26l-1.42,0.49l8.73,25.73l-1.38,1.05l-8.9-26.26l-1.43,0.49l9.06,26.73l0.06-0.05l-6.76,5.17l0.03-0.03l-9.92-29.26
	l-1.42,0.49l10.08,29.73l-2.37,1.81l0.99-0.76l-9.63-28.4c-0.19,1.02-0.37,2.04-0.56,3.05l8.92,26.32l-1.38,1.05l-8.15-24.02
	c-0.18,1.04-0.36,2.07-0.54,3.11l7.42,21.88l-4.69,3.59l0.67-0.51l-5.04-14.88c-0.17,1.08-0.33,2.16-0.49,3.24l4.27,12.61
	l-1.38,1.05l-3.42-10.1c-0.16,1.11-0.31,2.21-0.47,3.31l2.63,7.75l-1.38,1.05l-1.75-5.16c-0.15,1.14-0.29,2.27-0.44,3.4l0.93,2.73
	l0.45-0.35l-1.86,1.42c-0.26,2.1-0.5,4.19-0.73,6.25l31.53-24.09c0.36-2.19,0.75-4.38,1.16-6.58l-1,0.76L284.68,233.84z
	 M280.99,208.03l5.7,16.8c0.2-0.93,0.42-1.87,0.64-2.8l-4.91-14.49L280.99,208.03z M278.01,209.05l7.41,21.86
	c0.19-0.97,0.4-1.94,0.6-2.92l-6.59-19.43L278.01,209.05z M283.97,207.02l4.06,11.97c0.22-0.9,0.45-1.81,0.67-2.71l-3.31-9.75
	L283.97,207.02z M263.54,249.99l-6.62-19.52c-0.18,1.06-0.35,2.12-0.52,3.17l5.87,17.31L263.54,249.99z M272.85,242.88l1.26-0.97
	l-9.58-28.26l-1.43,0.49L272.85,242.88z M291.92,204.3c0.35-1.2,0.7-2.39,1.05-3.55l-32.7,11.17c-0.22,1.14-0.44,2.28-0.65,3.41
	L291.92,204.3z"/>
<g>
	<path class="Colour4 fill" d="M315.87,534.64l-47.17-29.72c-0.39-2.03-0.77-4.06-1.15-6.08l47.09,29.67L315.87,534.64z"/>
</g>
<path class="Colour4 fill" d="M3.88,621.89c-0.71-0.18-1.43-0.35-2.14-0.53c-0.19-0.27-0.39-0.54-0.58-0.82
	c0.14-0.62,0.28-1.23,0.42-1.85C2.32,619.78,3.09,620.85,3.88,621.89z"/>
<path class="Colour2 fill" d="M32.02,627.89c1.75,0.36,3.52,0.71,5.31,1.06L6.02,597.52c-0.27,1.19-0.54,2.36-0.8,3.47L32.02,627.89z"/>
<path class="Colour4 fill" d="M16,552.98c0.18-0.88,0.38-1.78,0.56-2.66c8.97-9.2,21.47-14.92,35.28-14.92c2.07,0,4.11,0.14,6.11,0.39
	c-0.1,0.46-0.19,0.92-0.29,1.38c-1.91-0.23-3.85-0.37-5.83-0.37C37.6,536.82,24.8,543.07,16,552.98z"/>
<path class="Colour4 fill" d="M36.42,585.02c0-8.08,6.21-14.73,14.08-15.41c-0.11,0.48-0.22,0.97-0.33,1.45
	c-6.94,0.83-12.35,6.77-12.35,13.96c0,4.88,2.49,9.19,6.27,11.71c-0.12,0.48-0.23,0.96-0.35,1.43
	C39.36,595.43,36.42,590.57,36.42,585.02z"/>
<path class="Colour4 fill" d="M12.25,570.75c0.47-2.18,0.91-4.33,1.37-6.51c7.37-13.6,21.73-22.86,38.21-22.86c1.65,0,3.28,0.1,4.88,0.28
	c-0.1,0.46-0.2,0.92-0.29,1.38c-1.51-0.16-3.04-0.26-4.58-0.26C33.63,542.79,18.1,554.47,12.25,570.75z"/>
<path class="Colour4 fill" d="M40.28,585.02c0-5.62,4-10.31,9.29-11.37c-0.09,0.38-0.18,0.77-0.27,1.15c-4.57,1.14-7.97,5.29-7.97,10.22
	c0,3.19,1.42,6.05,3.66,7.98c-0.09,0.38-0.18,0.76-0.27,1.14C42.02,592.01,40.28,588.72,40.28,585.02z"/>
<path class="Colour4 fill" d="M48.65,577.61c-0.07,0.32-0.15,0.64-0.22,0.96c-2.31,1.24-3.9,3.65-3.9,6.46c0,1.58,0.51,3.04,1.37,4.24
	c-0.07,0.31-0.15,0.62-0.22,0.93c-1.17-1.4-1.87-3.21-1.87-5.17C43.79,581.7,45.79,578.85,48.65,577.61z"/>
<path class="Colour4 fill" d="M44.21,524.85l2.7-1.7c1.63-0.13,3.27-0.22,4.93-0.22c2.91,0,5.78,0.22,8.59,0.61
	c-0.09,0.46-0.18,0.92-0.27,1.38c-2.72-0.38-5.49-0.59-8.32-0.59C49.25,524.34,46.71,524.53,44.21,524.85z"/>
<path class="Colour4 fill" d="M18.08,542.96c0.13-0.63,0.25-1.25,0.38-1.88l9.89-6.23c7.13-3.38,15.09-5.28,23.49-5.28
	c2.47,0,4.9,0.18,7.29,0.5c-0.09,0.46-0.19,0.92-0.28,1.38c-2.3-0.3-4.63-0.47-7.01-0.47C39.06,530.97,27.32,535.47,18.08,542.96z"
	/>
<path class="Colour4 fill" d="M3.73,609.25c2.91,5.79,6.81,10.99,11.5,15.36c-0.9-0.21-1.77-0.42-2.66-0.62
	c-3.67-3.73-6.82-7.96-9.33-12.61C3.41,610.67,3.57,609.96,3.73,609.25z"/>
<path class="Colour4 fill" d="M8.49,588c0.49-2.22,0.97-4.44,1.46-6.66c-0.1,1.21-0.17,2.44-0.17,3.68c0,18.11,11.42,33.6,27.41,39.58
	c-0.12,0.49-0.24,0.95-0.35,1.36C21.14,620.15,9.67,605.47,8.49,588z"/>
<path class="Colour4 fill" d="M32.45,585.02c0-10.6,8.48-19.23,18.99-19.45c-0.11,0.48-0.22,0.95-0.33,1.42
	c-9.58,0.39-17.26,8.31-17.26,18.03c0,6.78,3.74,12.69,9.26,15.78c-0.12,0.48-0.23,0.95-0.34,1.41
	C36.63,598.93,32.45,592.46,32.45,585.02z"/>
<path class="Colour4 fill" d="M14.07,585.02c0-20.91,16.94-37.92,37.77-37.92c1.24,0,2.46,0.06,3.67,0.18c-0.1,0.46-0.2,0.92-0.3,1.39
	c-1.11-0.1-2.23-0.16-3.37-0.16c-20.05,0-36.37,16.38-36.37,36.51c0,15.44,9.6,28.67,23.13,34c-0.12,0.47-0.23,0.93-0.35,1.37
	C24.12,614.9,14.07,601.12,14.07,585.02z"/>
<path class="Colour4 fill" d="M5.98,599.33c3.82,12.3,12.42,22.49,23.61,28.39c-1.45-0.3-2.89-0.59-4.31-0.89
	c-9.08-5.83-16.15-14.55-19.89-24.87C5.59,601.08,5.79,600.2,5.98,599.33z"/>
<path class="Colour4 fill" d="M28.83,585.02c0-12.74,10.32-23.1,23.01-23.1c0.14,0,0.28,0.02,0.42,0.02c-0.11,0.46-0.21,0.93-0.32,1.39
	c-0.03,0-0.07-0.01-0.1-0.01c-11.92,0-21.61,9.73-21.61,21.7c0,8.49,4.89,15.84,11.99,19.4c-0.12,0.47-0.23,0.93-0.34,1.39
	C34.17,602.07,28.83,594.17,28.83,585.02z"/>
<path class="Colour4 fill" d="M19.51,585.02c0-17.9,14.5-32.46,32.33-32.46c0.84,0,1.67,0.04,2.49,0.11c-0.1,0.46-0.2,0.92-0.31,1.39
	c-0.72-0.05-1.45-0.09-2.19-0.09c-17.06,0-30.93,13.93-30.93,31.06c0,12.89,7.86,23.97,19.02,28.66c-0.12,0.47-0.23,0.93-0.34,1.38
	C27.82,610.2,19.51,598.57,19.51,585.02z"/>
<path class="Colour4 fill" d="M24.42,585.02c0-15.18,12.3-27.52,27.42-27.52c0.47,0,0.93,0.05,1.4,0.07c-0.1,0.46-0.21,0.93-0.31,1.39
	c-0.36-0.02-0.72-0.06-1.09-0.06c-14.34,0-26.02,11.72-26.02,26.12c0,10.57,6.3,19.67,15.32,23.78c-0.12,0.47-0.23,0.93-0.34,1.39
	C31.17,605.92,24.42,596.25,24.42,585.02z"/>
<path class="Colour4 fill" d="M18.46,541.08l43.9-27.67c0.36-1.89,0.72-3.78,1.07-5.66l-43.83,27.62L18.46,541.08z"/>
<path class="Colour4 fill" d="M51.6,160.41c0.33-0.42,0.64-0.86,0.96-1.29l10.3,3.62c0.15,0.6,0.31,1.2,0.46,1.79L51.6,160.41z
	 M64.4,168.83c-0.15-0.59-0.3-1.19-0.45-1.79l-13.84-4.86c-0.37,0.42-0.75,0.83-1.14,1.23L64.4,168.83z M65.46,173.14
	c-0.14-0.59-0.28-1.18-0.43-1.78l-17.86-6.27c-0.46,0.39-0.93,0.77-1.41,1.14L65.46,173.14z M62.19,160.2
	c-0.16-0.6-0.31-1.2-0.47-1.8l-7.08-2.49c-0.27,0.45-0.54,0.9-0.82,1.34L62.19,160.2z M66.49,177.43c-0.14-0.59-0.28-1.19-0.43-1.78
	l-22.53-7.91c-0.59,0.35-1.2,0.69-1.82,0.99L66.49,177.43z M67.08,179.94l-33.86-11.86c0.25,0.61,0.5,1.24,0.75,1.89l33.51,11.74
	C67.34,181.12,67.21,180.53,67.08,179.94z M31.79,173.11l36.66,12.87c-0.13-0.59-0.27-1.18-0.4-1.77l-36.98-12.98
	C31.31,171.84,31.55,172.47,31.79,173.11z M69.38,190.24c-0.13-0.59-0.25-1.17-0.38-1.76l-36.23-12.71
	c0.23,0.61,0.45,1.23,0.68,1.87L69.38,190.24z M61.05,155.87c-0.16-0.6-0.33-1.2-0.5-1.8l-4.12-1.45c-0.23,0.46-0.47,0.92-0.71,1.38
	L61.05,155.87z M70.8,196.97l-34.87-12.24c0.21,0.61,0.41,1.22,0.62,1.85l34.62,12.15C71.04,198.14,70.92,197.55,70.8,196.97z
	 M71.67,201.2l-34.28-12.03c0.19,0.6,0.39,1.22,0.58,1.83l34.04,11.95C71.89,202.37,71.78,201.79,71.67,201.2z M39.33,195.41
	l33.5,11.76c-0.11-0.58-0.23-1.17-0.34-1.75l-33.71-11.83C38.96,194.19,39.14,194.8,39.33,195.41z M69.92,192.73l-35.53-12.47
	c0.22,0.61,0.43,1.23,0.65,1.86l35.26,12.37C70.17,193.9,70.04,193.31,69.92,192.73z"/>
<path class="Colour4 fill" d="M56.22,237.78l9.64-27.7l1.45,0.51l-9.81,28.18L56.22,237.78z M44.66,202.63l-1.84,5.28
	c0.23,0.9,0.47,1.79,0.69,2.69l2.6-7.46L44.66,202.63z M48.97,232.15l-1.01-0.79c0.4,2.24,0.78,4.48,1.13,6.71l31.93,24.82
	c-0.22-2.11-0.45-4.23-0.69-6.38l-1.89-1.47l0.46,0.36l0.97-2.77c-0.14-1.15-0.27-2.3-0.42-3.46l-1.83,5.24l-1.4-1.09l2.74-7.87
	c-0.15-1.12-0.29-2.25-0.45-3.38l-3.57,10.26l-1.4-1.09l4.46-12.81c-0.16-1.1-0.31-2.2-0.48-3.3l-5.26,15.12l0.68,0.53l-4.75-3.69
	l7.74-22.24c-0.17-1.05-0.34-2.11-0.52-3.17l-8.5,24.41l-1.4-1.09l9.31-26.74c-0.18-1.04-0.35-2.07-0.54-3.12l-10.05,28.86l1,0.78
	l-2.4-1.86l10.52-30.22l-1.45-0.51l-10.35,29.73l0.03,0.03l-6.85-5.32l0.07,0.05l9.46-27.17l-1.45-0.51l-9.29,26.68l-1.4-1.09
	l9.11-26.15l-1.45-0.51l-8.94,25.67l0.77,0.6l-2.17-1.68l8.75-25.14l-1.45-0.51l-8.58,24.65L48.97,232.15z M50.72,204.76
	l-5.13,14.72c0.21,0.95,0.43,1.91,0.63,2.86l5.95-17.08L50.72,204.76z M53.74,205.82l-6.88,19.75c0.2,0.99,0.4,1.99,0.59,2.98
	l7.74-22.22L53.74,205.82z M47.69,203.7l-3.45,9.91c0.22,0.92,0.45,1.85,0.66,2.77l4.24-12.17L47.69,203.7z M70.87,249.17l6.13-17.6
	c-0.16-1.07-0.33-2.15-0.5-3.23l-6.91,19.83L70.87,249.17z M70.34,211.65l-1.45-0.51l-10,28.71l1.28,0.99L70.34,211.65z
	 M73.88,212.89c-0.21-1.16-0.42-2.32-0.64-3.48l-33.23-11.66c0.35,1.19,0.69,2.4,1.04,3.63L73.88,212.89z"/>
<path class="st1" d="M301.69,174.71c-1.86-0.03-4.66-0.28-7.76-1.4c-9.9-3.58-15.54-13.39-18.95-22.09l-0.17,0.72
	c-24,82.72-27.43,150.88-26.31,196.53c1.43,58.03,10.92,107.82,21.63,163.97c9.24,48.44,26.82,116.68,26.82,116.68
	c13.53-2.63,26.1-5.5,37.64-8.42c-16.41-70.98-29.76-138.88-40.67-203.28c-15.34-90.56-21.04-145.91-2.6-211.1
	c3.56-12.57,10.64-31.55,10.66-31.6L301.69,174.71z"/>
<path class="st1" d="M31.75,175.05c2.64-0.44,6.39-1.36,10.38-3.47c8.11-4.28,13.72-11.59,18.08-22.32l0.18,0.72
	c26.13,99.49,26.19,177.68,21.97,228.53c-3.4,40.92-11.35,85.72-16.44,114.38c-9.91,55.82-29.5,135.87-29.5,135.87
	c-12.88-2.54-24.84-5.28-35.83-8.07c1.82-7.43,42.42-174.64,50.19-289.28c3.36-49.63,0.53-88.77-10.38-128.57
	c-3.02-11.02-6.21-20.43-8.93-27.8L31.75,175.05z"/>
<path class="Colour1 fill" d="M80.87,187.95c9.46-3.78,17.86-9.72,25.27-16.73c13.83-13.07,36.59-21.6,62.33-21.6l0.19,0
	c25.66,0.04,48.34,8.56,62.14,21.6c7.42,7.01,15.81,12.94,25.27,16.73c10.08,4.03,23.54,7.35,39.71,6.57
	c3.38-10.46,6.74-19.12,9.4-25.55c-1.09,0.18-2.97,0.39-5.19,0c-11.75-2.05-17.97-18.02-20.77-25.19
	c-12.49-32.06-9.72-126.75-9.52-132.91c-13.84-3.76-27.69-7.53-41.53-11.29c-2.39,18.33-9.83,53.47-37.21,84.26
	c-8.08,9.09-16.47,16.19-24.23,21.72c-7.75-5.49-16.15-12.58-24.23-21.72c-27.32-30.9-34.24-66.28-36.34-84.26
	C92.9,3.33,79.63,7.1,66.36,10.86c0,4,0.01,10.04,0,17.37c-0.04,43.07-0.08,64.76-0.87,72.1c-1.81,16.96-6.52,61-28.55,67.76
	c-2.8,0.86-5.28,0.93-6.92,0.87c2.47,6.29,5.63,14.93,8.8,25.41C56.03,195.6,70.31,192.17,80.87,187.95z"/>
<g id="FBodyLogos"></g>
<path class="NeckAndArmTrim fill" d="M109.45,22c10.2,5.01,29.77,12.96,55.56,13.19c27.06,0.24,47.57-8.13,57.87-13.19l1.74-7.98
	c-8.95,5.27-29.6,15.8-57.87,15.96c-28.99,0.16-50.17-10.69-59.12-15.96L109.45,22z"/>
<path class="NeckAndArmTrim fill" d="M234.22,1.45c-1.53,14.43-6.5,42.55-25.95,71.09c-14.47,21.23-31.28,34.36-42.4,41.7
	c-11.12-7.68-28.01-21.43-42.4-43.44c-18.23-27.88-23.2-54.9-24.8-69.35l6.63-1.88c2.1,17.98,9.02,53.37,36.34,84.26
	c8.08,9.14,16.48,16.23,24.23,21.72c7.76-5.52,16.14-12.62,24.23-21.72c27.38-30.79,34.82-65.93,37.21-84.26L234.22,1.45z"/>
<path class="NeckAndArmTrim fill" d="M31.75,175.05c2.64-0.44,6.39-1.36,10.38-3.47c11.79-6.23,18.31-18.86,23.36-39.09
	c5.97-23.9,5.71-41.68,6.06-78.18c0.19-20.28,0.47-36.38,0.65-45.34l-6.7,1.9c0,4,0.01,10.04,0,17.37
	c-0.04,43.07-0.08,64.76-0.87,72.1c-1.81,16.96-6.52,61-28.55,67.76c-2.8,0.86-5.28,0.93-6.92,0.87L31.75,175.05z"/>
<path class="NeckAndArmTrim fill" d="M301.99,174.72c-1.85-0.01-4.78-0.22-8.06-1.41c-14.35-5.19-19.73-23.43-22.39-32.46
	c-11.56-39.2-9.01-124.25-8.76-131.73l6.06,1.74c-0.2,6.16-2.97,100.85,9.52,132.91c2.79,7.17,9.01,23.15,20.77,25.19
	c2.22,0.39,4.1,0.18,5.19,0L301.99,174.72z"/>
<g>
	<rect x="109.19" y="214.75" class="st3" width="32.02" height="12.16"/>
	<rect x="193.99" y="214.75" class="st3" width="32.02" height="12.16"/>
	<rect x="194.07" y="322.38" class="st3" width="32.02" height="12.16"/>
	<rect x="109.28" y="322.38" class="st3" width="32.02" height="12.16"/>
	<rect x="109.28" y="310.22" class="st3" width="32.02" height="12.16"/>
	<rect x="193.99" y="310.22" class="st3" width="32.02" height="12.16"/>
</g>
</svg>
