<?xml version="1.0" encoding="utf-8"?>
<!-- Generator: Adobe Illustrator 19.1.0, SVG Export Plug-In . SVG Version: 6.00 Build 0)  -->
<svg version="1.1" id="Layer_1" xmlns="http://www.w3.org/2000/svg" xmlns:xlink="http://www.w3.org/1999/xlink" x="0px" y="0px"
	 viewBox="0 0 335.2 641.14" style="enable-background:new 0 0 335.2 641.14;" xml:space="preserve">
<style type="text/css">
	<![CDATA[
	@font-face{font-family:'codaheavy';src:url('/fonts/coda-heavy-webfont.woff') format('woff')}
	text{font-family:Impact,codaheavy,sans-serif}
	.Number.fill{fill:#000}
	.NumberOutline.stroke{fill:none;stroke:#777;stroke-width:2.5}
	.Colour1.fill{fill:#214083;}
	.Colour2.fill{fill:#151219;}
	.Colour3.fill{fill:#FFF100;}
	.Colour4.fill{fill:#E0F2F9;}
	.Colour5.fill{fill:#151219;}
	.NeckAndArmTrim.fill{fill:#151219;stroke:#151219;stroke-miterlimit:10;}
	.st0{fill:none;stroke:#000000;stroke-miterlimit:10;}
	.st1{fill:#151219;stroke:#151219;stroke-miterlimit:10;}
	.st2{fill:none;stroke:#000000;stroke-linecap:round;stroke-linejoin:round;}
	.st3{fill:url(#SVGID_1_);}
	.st4{fill:url(#SVGID_2_);}
	.st5{fill:none;stroke:#D0D2D3;stroke-dasharray:5,2.4;}
	.st6{fill:#FFFFFF;stroke:#000000;}
	]]>
</style>
<path class="Colour1 fill" d="M227.31-0.43c13.84,3.76,27.69,7.53,41.53,11.29c-0.2,6.16-2.97,100.85,9.52,132.91
	c2.79,7.17,9.01,23.15,20.77,25.19c2.22,0.39,4.1,0.18,5.19,0c-3.61,8.71-8.5,21.51-12.98,37.35
	c-18.44,65.18-12.74,120.54,2.6,211.1c10.91,64.39,24.26,132.3,40.67,203.28c-41.5,10.53-96.29,20.27-160.94,20.85
	c-70.25,0.63-129.39-9.77-173.06-20.85c1.82-7.43,42.42-174.64,50.19-289.28c3.36-49.63,0.53-88.77-10.38-128.57
	c-3.93-14.34-8.14-25.96-11.25-33.88c1.64,0.07,4.12-0.01,6.92-0.87c22.03-6.76,26.74-50.8,28.55-67.76
	c0.79-7.35,0.82-29.03,0.87-72.1c0.01-7.33,0-13.37,0-17.37C78.77,7.1,92.03,3.33,105.3-0.43c10.23,5.5,32.39,15.64,62.12,15.38
	C195.89,14.7,217.12,5.05,227.31-0.43z"/>
<path class="st0" d="M234.22,1.45"/>
<path class="st0" d="M98.67,1.45"/>
<path class="st0" d="M97.27,1.85c9.82,6.23,35.73,20.83,71.65,20.13c33.01-0.64,56.77-13.85,66.68-20.15"/>
<path class="st1" d="M97.27,1.85c9.82,6.23,35.73,20.83,71.65,20.13c33.01-0.64,56.77-13.85,66.68-20.15l-8.3-2.26
	c-10.19,5.48-31.41,15.13-59.88,15.38c-29.74,0.26-51.89-9.88-62.12-15.38L97.27,1.85z"/>
<path class="Colour1 fill" d="M301.69,174.71c-1.86-0.03-4.66-0.28-7.76-1.4c-9.9-3.58-15.54-13.39-18.95-22.09l-0.17,0.72
	c-24,82.72-27.43,150.88-26.31,196.53c1.43,58.03,10.92,107.82,21.63,163.97c9.24,48.44,26.82,116.68,26.82,116.68
	c13.53-2.63,26.1-5.5,37.64-8.42c-16.41-70.98-29.76-138.88-40.67-203.28c-15.34-90.56-21.04-145.91-2.6-211.1
	c3.56-12.57,10.64-31.55,10.66-31.6L301.69,174.71z"/>
<path class="Colour1 fill" d="M31.75,175.05c2.64-0.44,6.39-1.36,10.38-3.47c8.11-4.28,13.72-11.59,18.08-22.32l0.18,0.72
	c26.13,99.49,26.19,177.68,21.97,228.53c-3.4,40.92-11.35,85.72-16.44,114.38c-9.91,55.82-29.5,135.87-29.5,135.87
	c-12.88-2.54-24.84-5.28-35.83-8.07c1.82-7.43,42.42-174.64,50.19-289.28c3.36-49.63,0.53-88.77-10.38-128.57
	c-3.02-11.02-6.21-20.43-8.93-27.8L31.75,175.05z"/>
<path class="st2" d="M0.14,620.69c1.37,0.35,2.75,0.69,4.15,1.04c0.6,0.15,1.22,0.3,1.83,0.45c0.8,0.2,1.6,0.39,2.42,0.59
	c0.56,0.14,1.14,0.27,1.71,0.4c0.88,0.21,1.75,0.42,2.63,0.62c0.57,0.13,1.15,0.26,1.72,0.39c0.9,0.21,1.79,0.41,2.7,0.62
	c0.69,0.16,1.39,0.31,2.08,0.46c0.81,0.18,1.61,0.36,2.43,0.54c0.72,0.16,1.45,0.31,2.18,0.47c0.81,0.17,1.61,0.35,2.42,0.52
	c0.7,0.15,1.4,0.29,2.11,0.44c0.86,0.18,1.72,0.36,2.58,0.54c0.71,0.15,1.43,0.29,2.15,0.43c0.87,0.18,1.73,0.35,2.61,0.52
	c0.04,0.01,0.08,0.02,0.12,0.02l0,0c38.3,7.55,84.65,13.25,137.23,12.78c46.67-0.42,88.2-5.61,123.3-12.43l0,0
	c0.43-0.08,0.85-0.17,1.28-0.25c1.11-0.22,2.22-0.44,3.31-0.66c0.61-0.12,1.22-0.25,1.82-0.37c0.97-0.2,1.94-0.4,2.89-0.6
	c0.65-0.13,1.29-0.27,1.93-0.41c0.91-0.19,1.82-0.39,2.72-0.58c0.65-0.14,1.29-0.28,1.93-0.42c0.89-0.19,1.77-0.39,2.65-0.59
	c0.63-0.14,1.26-0.28,1.89-0.42c0.88-0.2,1.76-0.4,2.63-0.6c0.61-0.14,1.21-0.28,1.81-0.42c0.9-0.21,1.79-0.42,2.68-0.63
	c0.55-0.13,1.11-0.26,1.66-0.39c0.97-0.23,1.93-0.47,2.89-0.7c0.46-0.11,0.92-0.22,1.37-0.33c1.4-0.35,2.79-0.69,4.16-1.04
	c-16.41-70.98-29.76-138.88-40.67-203.28c-15.34-90.56-21.04-145.91-2.6-211.1c0.13-0.45,0.26-0.9,0.39-1.34
	c3.53-12.1,9.8-28.99,10.24-30.19c0.83-2.1,1.61-4.05,2.35-5.82c-1.09,0.18-2.97,0.39-5.19,0c-11.75-2.05-17.97-18.02-20.77-25.19
	c-12.49-32.06-9.72-126.75-9.52-132.91c-13.84-3.76-27.69-7.53-41.53-11.29c-10.19,5.48-31.41,15.13-59.88,15.38
	c-29.74,0.26-51.89-9.88-62.12-15.38C91.57,3.33,78.3,7.1,65.04,10.86c0,4,0.01,10.04,0,17.37c-0.04,43.07-0.08,64.76-0.87,72.1
	c-1.81,16.96-6.52,61-28.55,67.76c-2.8,0.86-5.28,0.93-6.92,0.87c0.74,1.88,1.54,3.98,2.39,6.28c0.3,0.81,0.6,1.64,0.91,2.5
	c0.06,0.16,0.12,0.33,0.18,0.49c0.27,0.77,0.55,1.55,0.83,2.36c0.06,0.18,0.12,0.35,0.19,0.53c0.32,0.92,0.64,1.86,0.97,2.82
	c0.07,0.21,0.14,0.42,0.21,0.64c0.29,0.87,0.59,1.76,0.88,2.66c0.05,0.16,0.1,0.31,0.16,0.47c0.33,1.02,0.66,2.06,1,3.12
	c0.08,0.25,0.16,0.5,0.23,0.75c0.31,1,0.63,2.02,0.94,3.06c0.03,0.11,0.07,0.21,0.1,0.32c0.34,1.12,0.67,2.27,1.01,3.43
	c0.08,0.27,0.16,0.55,0.24,0.83c0.34,1.19,0.68,2.4,1.02,3.63c10.91,39.79,13.75,78.93,10.38,128.57
	C42.56,446.06,1.96,613.27,0.14,620.69z"/>
<g>
	<path class="Colour2 fill" d="M65.44,61.73c32.71-2.53,66.93-3.89,102.16-3.89c34.85,0,68.7,1.33,101.09,3.81
		c-0.59-25.93,0.06-47.92,0.15-50.79c-13.84-3.76-27.69-7.53-41.53-11.29c-10.19,5.48-31.41,15.13-59.88,15.38
		c-29.74,0.26-51.89-9.88-62.12-15.38C92.03,3.33,78.77,7.1,65.5,10.86c0,4,0.01,10.04,0,17.37C65.48,41.31,65.47,52.4,65.44,61.73z
		"/>
</g>
<path class="Colour3 fill" d="M270.83,149.26c0,0-63.38,81.07-25.92,216.26c0,0,41.18,176.33-3.93,271.69l-1.34,0.15l-1.37,0.51
	l-3.36,0.35l0.1-0.35c25.29-123.92,5.15-231.76-1.96-263.15c-3.54-15.64-6.31-31.44-7.93-47.4
	c-12.83-126.42,43.02-186.46,43.02-186.46l3.33-3.86l2.01,5.1l-3.12,5.66L270.83,149.26z M62.27,149.08
	c0,0,63.38,81.07,25.92,216.26c0,0-41.18,176.33,3.93,271.69l1.34,0.15l1.37,0.51l3.36,0.35l-0.1-0.35
	c-25.29-123.92-5.15-231.76,1.96-263.15c3.54-15.64,6.31-31.44,7.93-47.4c12.83-126.42-43.02-186.46-43.02-186.46l-3.33-3.86
	l-2.01,5.1l3.12,5.66L62.27,149.08z"/>
<linearGradient id="SVGID_1_" gradientUnits="userSpaceOnUse" x1="167.3185" y1="-3774.9326" x2="167.3185" y2="1754.717">
	<stop  offset="0" style="stop-color:#45ADCD"/>
	<stop  offset="1" style="stop-color:#36489D"/>
</linearGradient>
<path class="Colour5 fill fill" d="M232.97,213.21c-0.6,2.22-1.19,4.5-1.75,6.82H101.93c-0.56-2.33-1.15-4.6-1.75-6.82H232.97z M79.5,161.86
	c1.2,2.12,2.43,4.39,3.68,6.82h166.83c1.26-2.44,2.49-4.71,3.69-6.82H79.5z M94.88,196.09c0.77,2.21,1.53,4.48,2.27,6.82H236
	c0.74-2.34,1.5-4.62,2.28-6.82H94.88z M265.96,76.26H68.67v6.82h197.29V76.26z M68.31,144.74c1.32,1.72,2.98,3.99,4.87,6.82h186.86
	c1.91-2.84,3.57-5.12,4.89-6.82H68.31z M88.1,178.98c0.97,2.18,1.94,4.45,2.9,6.82h151.17c0.96-2.37,1.93-4.64,2.9-6.82H88.1z
	 M223.75,271.39c0.13-2.31,0.29-4.58,0.47-6.82H108.9c0.18,2.24,0.33,4.52,0.46,6.82H223.75z M107.06,247.45
	c0.31,2.24,0.59,4.51,0.86,6.82H225.2c0.26-2.31,0.55-4.58,0.86-6.82H107.06z M104.19,230.33c0.45,2.23,0.87,4.51,1.28,6.82h122.2
	c0.41-2.32,0.83-4.59,1.28-6.82H104.19z M272.26,127.62H62.37v6.82h209.89V127.62z M269.35,110.5H65.29v6.82h204.06V110.5z
	 M266.84,93.38H67.8v6.82h199.05V93.38z"/>
<path class="Colour2 fill" d="M88.87,637.03c-45.11-95.35-3.93-271.69-3.93-271.69c37.46-135.19-25.92-216.26-25.92-216.26l2.7-8.41
	c0,0,55.84,60.04,43.02,186.46c-1.62,15.95-4.39,31.76-7.93,47.4c-7.1,31.38-27.24,139.23-1.96,263.15L88.87,637.03z M244.24,637.2
	c45.11-95.35,3.93-271.69,3.93-271.69c-37.46-135.19,25.92-216.26,25.92-216.26l-2.7-8.41c0,0-55.84,60.04-43.02,186.46
	c1.62,15.95,4.39,31.76,7.93,47.4c7.1,31.38,27.24,139.23,1.96,263.15L244.24,637.2z"/>
<path class="Colour4 fill" d="M216.15,41.81c-48.31-18.22-100.16,0-100.16,0L65.51,61.73l58.4-3.18h84.3l60.55,3.1L216.15,41.81z"/>
<path class="NeckAndArmTrim fill" d="M301.99,174.72c-1.85-0.01-4.78-0.22-8.06-1.41c-14.35-5.19-19.73-23.43-22.39-32.46
	c-11.56-39.2-9.01-124.25-8.76-131.73l6.06,1.74c-0.2,6.16-2.97,100.85,9.52,132.91c2.79,7.17,9.01,23.15,20.77,25.19
	c2.22,0.39,4.1,0.18,5.19,0L301.99,174.72z"/>
<path class="NeckAndArmTrim fill" d="M31.75,175.05c2.64-0.44,6.39-1.36,10.38-3.47c11.79-6.23,18.31-18.86,23.36-39.09
	c5.97-23.9,5.71-41.68,6.06-78.18c0.19-20.28,0.47-36.38,0.65-45.34l-6.7,1.9c0,4,0.01,10.04,0,17.37
	c-0.04,43.07-0.08,64.76-0.87,72.1c-1.81,16.96-6.52,61-28.55,67.76c-2.8,0.86-5.28,0.93-6.92,0.87L31.75,175.05z"/>
<linearGradient id="SVGID_2_" gradientUnits="userSpaceOnUse" x1="167.601" y1="395.1623" x2="167.601" y2="1049.6794">
	<stop  offset="0" style="stop-color:#45ADCD"/>
	<stop  offset="1" style="stop-color:#36489D"/>
</linearGradient>
<path class="Colour5 fill fill" d="M7.87,588.93l61.69-30.19c0.25,2.67,0.53,5.34,0.84,7.99L5.71,598.39C6.38,595.48,7.1,592.31,7.87,588.93z
	 M67.81,527.37l-36.05,17.64l-3.24,9.99l39.53-19.35C67.95,532.89,67.87,530.13,67.81,527.37z M327.53,590.07l-64.03-31.34
	c-0.25,2.67-0.53,5.34-0.84,7.99l66.98,32.78C328.93,596.36,328.23,593.21,327.53,590.07z M34.74,535.85l32.98-16.14
	c-0.01-2.81,0-5.62,0.02-8.41l-29.76,14.57L34.74,535.85z M265.35,519.71l35.99,17.62l-3.24-9.99l-32.77-16.04
	C265.35,514.09,265.36,516.9,265.35,519.71z M265,535.65l42.55,20.83l-3.24-9.99l-39.07-19.12
	C265.19,530.13,265.11,532.89,265,535.65z M310.53,565.64l-45.87-22.45c-0.15,2.72-0.33,5.43-0.54,8.14l49.65,24.3L310.53,565.64z
	 M295.12,518.17l-3.24-9.99l-26.96-13.19c0.11,2.83,0.2,5.68,0.27,8.54L295.12,518.17z M22.32,574.14l46.62-22.81
	c-0.2-2.71-0.39-5.42-0.54-8.14l-42.84,20.97L22.32,574.14z M257.87,595.81l58.5,29.2c3.93-0.88,7.77-1.78,11.51-2.69l-68.44-34.16
	C258.95,590.73,258.42,593.28,257.87,595.81z M254.08,610.77l38.89,19.08c4.16-0.78,8.22-1.59,12.2-2.42l-49.07-24.07
	C255.47,605.86,254.79,608.32,254.08,610.77z M261.78,573.61c-0.36,2.63-0.75,5.24-1.17,7.84l73.14,36.16
	c-0.73-3.17-1.43-6.32-2.15-9.48L261.78,573.61z M249.74,624.02l19.69,9.82c4.33-0.66,8.62-1.34,12.79-2.05l-29.99-14.96
	C251.44,619.26,250.61,621.66,249.74,624.02z M40.95,516.7l26.92-13.18c0.07-2.86,0.16-5.7,0.27-8.54l-23.96,11.73L40.95,516.7z
	 M73.63,588.16L5.79,622.02c3.72,0.91,7.54,1.82,11.47,2.71l57.94-28.92C74.64,593.28,74.12,590.73,73.63,588.16z M71.28,573.61
	L3.71,607.01c-0.94,4-1.7,7.21-2.26,9.53l71-35.1C72.03,578.85,71.64,576.23,71.28,573.61z M51.32,631.55
	c4.16,0.72,8.41,1.42,12.73,2.08l19.27-9.61c-0.87-2.36-1.7-4.76-2.48-7.19L51.32,631.55z M76.96,603.35l-48.54,23.81
	c3.97,0.83,8.02,1.64,12.17,2.43l38.39-18.83C78.27,608.32,77.59,605.86,76.96,603.35z"/>
<path class="st5" d="M5.26,601c39.59,11.08,94.58,22.1,160.61,22.3c67.76,0.2,124.06-11.06,164.24-22.3"/>
<path class="st5" d="M3.86,606.99c39.57,11.03,93.75,21.83,158.54,22.39c69.77,0.6,127.76-10.88,169.05-22.39"/>
<g>
	<rect x="109.15" y="214.75" class="st6" width="32.02" height="12.16"/>
	<rect x="193.95" y="214.75" class="st6" width="32.02" height="12.16"/>
	<rect x="194.03" y="322.38" class="st6" width="32.02" height="12.16"/>
	<rect x="109.24" y="322.38" class="st6" width="32.02" height="12.16"/>
	<rect x="109.24" y="310.22" class="st6" width="32.02" height="12.16"/>
	<rect x="194.03" y="310.22" class="st6" width="32.02" height="12.16"/>
</g>
<g id="BBodyLogos"></g>
</svg>
