<?xml version="1.0" encoding="utf-8"?>
<!-- Generator: Adobe Illustrator 19.1.0, SVG Export Plug-In . SVG Version: 6.00 Build 0)  -->
<svg version="1.1" id="Layer_1" xmlns="http://www.w3.org/2000/svg" xmlns:xlink="http://www.w3.org/1999/xlink" x="0px" y="0px"
	 viewBox="0 0 335.2 641.14" style="enable-background:new 0 0 335.2 641.14;" xml:space="preserve">
<style type="text/css">
	<![CDATA[
	@font-face{font-family:'codaheavy';src:url('/fonts/coda-heavy-webfont.woff') format('woff')}
	text{font-family:Impact,codaheavy,sans-serif}
	.Number.fill{fill:#000}
	.NumberOutline.stroke{fill:none;stroke:#777;stroke-width:2.5}
	.Colour1.fill{fill:#000000;}
	.Colour2.fill{fill:#0A8CCC;}
	.Colour3.fill{fill:#46B8EA;}
	.Colour4.fill{fill:#0A81C4;}
	.Colour5.fill{fill:#0982AD;}
	.NeckAndArmTrim.fill{fill:#000000;}
	.st0{fill:#037BC0;}
	.st1{fill:none;stroke:#000000;stroke-miterlimit:10;}
	.st2{fill:none;stroke:#000000;stroke-linecap:round;stroke-linejoin:round;}
	.st3{fill:#FFFFFF;stroke:#000000;}
	]]>
</style>
<path class="Colour1 fill" d="M43.55,206.63c-4.45-15.83-9.3-28.62-12.88-37.33c1.08,0.18,2.95,0.39,5.15,0
	c11.67-2.04,17.84-18.01,20.62-25.17c12.39-32.03,9.65-126.66,9.45-132.82c13.74-3.76,27.49-7.52,41.23-11.29
	c10.45,5.47,32.31,15.12,61.47,14.91c28.14-0.2,49.25-9.47,59.65-14.91c13.17,3.76,26.34,7.52,39.51,11.29c0,4-0.01,10.03,0,17.36
	c0.04,43.04,0.08,64.71,0.86,72.05c1.8,16.94,6.47,60.96,28.35,67.71c2.78,0.86,5.25,0.93,6.87,0.87
	c-3.08,7.91-7.26,19.53-11.17,33.86c-10.83,39.77-13.65,78.88-10.31,128.48c7.71,114.56,48.01,281.65,49.82,289.08
	c-43.35,11.07-102.06,21.46-171.8,20.83C96.19,640.97,41.8,631.23,0.6,620.71c16.29-70.93,29.55-138.78,40.37-203.13
	C56.2,327.08,61.86,271.76,43.55,206.63z"/>
<path class="st0" d="M237.04,616.57c-12.03-50.76-30.44-99.98-54.64-146.09c-14.16-26.98-30.52-53.17-52.25-74.38
	c-21.73-21.21-49.34-37.25-79.35-40.86c1.7-7.34,9.87-11.26,17.3-11.92c7.43-0.65,14.75,2,21.58,5.02
	c45.69,20.24,81.26,58.57,109.78,99.93c13.7,19.87,26.21,40.91,33.51,63.99c6.3,19.9,8.58,40.9,9.2,61.78
	C242.61,588.78,238.22,601.89,237.04,616.57z"/>
<path class="Colour3 fill" d="M40.61,417.58c1.14-6.94,2.21-13.66,3.24-20.21c32.8,8.82,63.23,27.34,85.93,53.48
	c26.92,30.99,42.62,70.71,54.12,110.69c7.48,26.02,13.43,52.53,20.5,78.66c-15.15,1-31,1.5-47.48,1.35c-0.27,0-0.54-0.01-0.81-0.01
	L28.23,488.63C32.68,464.51,36.81,440.8,40.61,417.58z M29.08,483.95c23.2,19.2,49.92,33.3,75.24,49.43
	c26.44,16.84,52.17,36.8,68.05,64.45c7.72,13.44,12.77,28.1,16.85,43.18c-10.47,0.44-21.24,0.63-32.3,0.53
	c-0.27,0-0.54-0.01-0.81-0.01L28.23,488.63C28.52,487.06,28.79,485.51,29.08,483.95z"/>
<path class="Colour3 fill" d="M218.18,531.32c-12.36-52.36-29.07-106.05-65.77-145.07c-15.36-16.33-33.74-29.53-49.06-45.91
	c-15.31-16.38-27.2-38.07-26.56-60.59c47.21,21.12,85.22,60.09,111.57,104.96c26.35,44.87,41.74,95.53,51.93,146.68
	c6.86,34.44,11.45,69.27,15.97,104.11c-4.46,0.6-9.01,1.17-13.62,1.7C232.03,602.84,226.45,566.35,218.18,531.32z"/>
<path class="Colour2 fill" d="M146.4,315.54c-6.8-6.64-14.26-12.29-21.19-18c-3.6-2.7-7.26-5.19-10.76-7.71
	c-1.76-1.25-3.5-2.49-5.22-3.71c-1.79-1.11-3.56-2.21-5.31-3.29c-3.49-2.15-6.88-4.25-10.16-6.27c-3.33-1.93-6.68-3.57-9.81-5.27
	c-3.17-1.64-6.13-3.34-9.07-4.71c-2.96-1.32-5.77-2.58-8.41-3.75c-2.63-1.18-5.09-2.28-7.37-3.3c-2.07-0.84-4.02-1.52-5.8-2.18
	c-0.96-9.22-2.35-18.4-4.22-27.68L50,227.2c0,0,4.67,2.19,12.84,6.02c2.03,0.98,4.31,1.98,6.72,3.22c2.38,1.31,4.94,2.74,7.69,4.26
	c2.74,1.52,5.65,3.14,8.72,4.84c3.04,1.75,6.09,3.86,9.34,5.91c3.22,2.11,6.64,4.19,10.03,6.57c3.33,2.47,6.77,5.02,10.3,7.64
	c1.76,1.31,3.54,2.65,5.35,4c1.72,1.46,3.46,2.93,5.23,4.42c3.5,3,7.14,5.98,10.71,9.16c6.86,6.68,14.17,13.31,20.74,20.9
	c6.94,7.21,13.07,15.36,19.44,23.22c5.83,8.31,11.88,16.41,16.9,25.03c5.45,8.32,9.77,17.13,14.29,25.4
	c2.03,4.26,3.94,8.5,5.85,12.62c0.95,2.06,1.88,4.1,2.81,6.11c0.8,2.07,1.6,4.11,2.38,6.12c1.56,4.02,3.08,7.93,4.55,11.71
	c1.35,3.82,2.47,7.58,3.64,11.15c1.11,3.59,2.32,6.97,3.21,10.28c0.85,3.32,1.66,6.47,2.41,9.43c0.75,2.95,1.46,5.71,2.11,8.26
	c0.57,2.56,0.97,4.94,1.4,7.08c1.65,8.56,2.59,13.45,2.59,13.45s-1.35-4.79-3.71-13.18c-0.61-2.09-1.21-4.43-1.99-6.93
	c-0.86-2.47-1.79-5.14-2.79-8c-0.99-2.84-2.04-5.87-3.16-9.06c-1.15-3.17-2.63-6.42-4.02-9.85c-1.45-3.41-2.86-7-4.5-10.63
	c-1.75-3.58-3.57-7.28-5.43-11.08c-0.93-1.9-1.87-3.82-2.83-5.77c-1.07-1.89-2.15-3.8-3.25-5.73c-2.2-3.85-4.4-7.8-6.71-11.77
	c-5.09-7.66-9.95-15.8-15.89-23.37c-5.51-7.87-12.01-15.15-18.22-22.59C160.01,329.03,153.57,321.8,146.4,315.54z M240.15,637.48
	c6.34-0.7,12.53-1.49,18.58-2.33c-16.52-65.75-27.42-133.69-57.78-193.95c-32.3-64.11-83.81-115.22-145.99-145.41
	c-0.09,6.61-0.35,13.33-0.78,20.21c39.36,22.48,75.39,49.49,102.8,85.58C207.75,468.45,220.33,554.46,240.15,637.48z M53.35,327.3
	c-0.63,7.46-1.42,15.14-2.37,23.06c0.56,0.33,1.12,0.66,1.68,1c3.5,2.08,7.04,4.2,10.63,6.33c3.45,2.36,6.95,4.75,10.48,7.16
	c1.76,1.22,3.57,2.4,5.32,3.66c1.71,1.33,3.43,2.67,5.15,4.01c3.43,2.71,7,5.34,10.42,8.2c6.65,5.95,13.68,11.74,20.04,18.42
	c1.63,1.63,3.27,3.26,4.91,4.89c0.81,0.83,1.67,1.62,2.45,2.48l2.32,2.61c3.1,3.49,6.22,7,9.35,10.52
	c3.03,3.61,5.87,7.41,8.84,11.13c1.45,1.88,2.98,3.73,4.39,5.63c1.34,1.94,2.69,3.88,4.03,5.83l4.05,5.84
	c1.35,1.96,2.75,3.84,3.98,6.01c2.55,4.2,5.09,8.41,7.64,12.62l0.96,1.58l0.48,0.79c0.04,0.07,0.05,0.08,0.05,0.08l0.08,0.14
	l0.21,0.4l1.69,3.2l3.38,6.4l3.38,6.4l3.05,6.57c1.01,2.19,2.03,4.38,3.04,6.57c1,2.19,2.07,4.35,2.94,6.6
	c1.83,4.46,3.65,8.91,5.46,13.35c6.88,17.91,12.95,35.89,18.2,53.54c5.31,17.63,10.09,34.83,14.7,51.15
	c1.45,5.17,2.89,10.23,4.32,15.2c1.88-0.18,3.74-0.36,5.59-0.55c-1.29-5.3-2.59-10.72-3.89-16.25c-3.9-16.48-7.96-33.9-12.54-51.88
	c-4.52-17.99-9.89-36.47-16.13-55.05c-1.66-4.62-3.33-9.25-5.01-13.91c-0.79-2.34-1.8-4.61-2.73-6.92c-0.95-2.3-1.89-4.6-2.84-6.9
	l-2.86-6.91l-3.22-6.78l-3.23-6.79l-1.62-3.4l-0.2-0.43l-0.1-0.21c-0.01-0.03-0.26-0.47-0.21-0.38l-0.44-0.81l-0.89-1.62
	c-2.37-4.31-4.73-8.63-7.1-12.94c-1.11-2.16-2.53-4.3-3.87-6.44l-4.05-6.43c-1.35-2.14-2.7-4.28-4.05-6.42
	c-1.4-2.08-2.9-4.07-4.34-6.11c-2.94-4.03-5.75-8.14-8.77-12.06c-3.13-3.84-6.25-7.67-9.35-11.48l-2.33-2.85
	c-0.78-0.94-1.64-1.81-2.46-2.72c-1.65-1.8-3.31-3.59-4.95-5.38c-6.41-7.33-13.54-13.78-20.34-20.37c-3.5-3.18-7.14-6.13-10.67-9.17
	c-1.77-1.5-3.54-3-5.29-4.49c-1.8-1.43-3.66-2.77-5.48-4.14c-3.65-2.73-7.27-5.43-10.84-8.1c-3.72-2.45-7.4-4.87-11.03-7.25
	c-1.82-1.19-3.63-2.37-5.42-3.55C56.44,329.02,54.89,328.17,53.35,327.3z"/>
<path class="Colour5 fill" d="M29.04,483.95c18.68,12.29,38.66,22.78,57.84,34.37c26.65,16.1,52.59,35.18,68.6,61.62
	c11.25,18.57,16.89,39.56,22.05,60.71c-6.82,0.15-13.75,0.21-20.8,0.14c-0.28,0-0.54-0.01-0.82-0.01L27,494.62
	C27.69,491.04,28.36,487.5,29.04,483.95z"/>
<path class="Colour4 fill" d="M198.76,489.87c-28.87-61.12-73.59-116.93-134.08-146.09c0.96-9.38,14.02-14.28,23.17-12.43
	c9.15,1.85,16.46,8.57,23.22,15.06c15.86,15.19,31.58,30.61,45.46,47.67c32.54,40,54.13,88.15,68.89,137.74
	c10.19,34.24,17.28,69.36,23.39,104.65c-0.88,0.11-1.75,0.22-2.63,0.32C234.54,586.37,220.78,536.47,198.76,489.87z"/>
<path class="st1" d="M234.95,1.9"/>
<path class="st1" d="M100.39,1.9"/>
<path class="st1" d="M234.95,1.9"/>
<path class="st1" d="M100.39,1.9"/>
<path class="NeckAndArmTrim fill" d="M33.21,175.38c2.62-0.44,6.34-1.36,10.31-3.47c11.71-6.22,18.18-18.85,23.19-39.06
	c5.93-23.88,5.67-41.65,6.01-78.13c0.19-20.26,0.47-36.36,0.64-45.31l-6.65,1.9c0,4,0.01,10.03,0,17.36
	c-0.04,43.04-0.08,64.71-0.86,72.05c-1.8,16.94-6.47,60.96-28.35,67.71c-2.78,0.86-5.25,0.93-6.87,0.87L33.21,175.38z"/>
<path class="NeckAndArmTrim fill" d="M302.23,175.05c-1.84-0.01-4.75-0.22-8-1.41c-14.24-5.18-19.58-23.42-22.23-32.44
	c-11.48-39.17-8.94-124.16-8.7-131.63l6.01,1.74c-0.2,6.16-2.95,100.78,9.45,132.82c2.77,7.17,8.95,23.13,20.62,25.17
	c2.2,0.39,4.07,0.18,5.15,0L302.23,175.05z"/>
<path class="NeckAndArmTrim fill" d="M98.95,1.85c9.75,6.22,35.47,20.81,71.13,20.12c32.77-0.64,56.35-13.84,66.19-20.14l-8.24-2.25
	c-10.11,5.47-31.18,15.12-59.45,15.37c-29.52,0.26-51.51-9.87-61.67-15.37L98.95,1.85z"/>
<path class="Colour1 fill" d="M302.23,175.05c-0.02,0.05-7.05,19.02-10.58,31.58c-18.31,65.14-12.65,120.45,2.58,210.95
	c10.83,64.35,24.09,132.2,40.37,203.13c-11.46,2.93-23.94,5.79-37.37,8.42c0,0-17.46-68.18-26.63-116.6
	c-10.63-56.11-20.06-105.87-21.47-163.85c-1.12-45.61,2.3-113.73,26.12-196.39l0.17-0.72c3.39,8.69,8.98,18.49,18.81,22.07
	c3.08,1.12,5.86,1.37,7.7,1.4L302.23,175.05z"/>
<path class="st2" d="M0.61,620.71c41.19,10.53,95.59,20.26,159.77,20.83c52.43,0.47,98.62-5.28,136.74-12.87
	c0.08,0.3,0.12,0.46,0.12,0.46c13.43-2.63,25.91-5.49,37.37-8.42c-16.29-70.93-29.55-138.78-40.37-203.13
	c-5.04-29.96-9.02-56.05-11.44-79.93c-0.15-2.02-0.3-4.02-0.43-6.01c-3.33-49.53-0.53-88.61,10.27-128.32
	c3.71-12.33,9.59-28.22,9.61-28.27l-0.3,0c-0.09,0-0.18-0.01-0.28-0.01c0.77-2.08,1.5-4,2.17-5.73c-1.63,0.07-4.09-0.01-6.87-0.87
	c-21.87-6.75-26.55-50.77-28.35-67.71c-0.78-7.34-0.82-29.01-0.86-72.05c-0.01-7.33,0-13.36,0-17.36
	c-13.17-3.76-26.34-7.52-39.51-11.29c-10.4,5.44-31.51,14.72-59.65,14.91c-29.16,0.2-51.02-9.45-61.47-14.91
	C93.38,3.78,79.64,7.55,65.89,11.31c0.2,6.16,2.95,100.78-9.45,132.82c-2.77,7.17-8.95,23.13-20.62,25.17
	c-2.2,0.39-4.07,0.18-5.15,0c1.5,3.63,3.22,7.99,5.03,12.97c1.91,5.74,4.08,12.8,6.22,20.89c12.65,47.79,12.78,89.09,10.31,128.48
	c-0.55,8.8-1.21,17.16-2.09,25.81c-2.36,18.42-5.48,38.24-9.16,60.14C30.16,481.92,16.9,549.78,0.61,620.71z"/>
<g>
	<rect x="109.59" y="215.05" class="st3" width="31.78" height="12.15"/>
	<rect x="193.77" y="215.05" class="st3" width="31.78" height="12.15"/>
	<rect x="193.85" y="322.61" class="st3" width="31.78" height="12.15"/>
	<rect x="109.67" y="322.61" class="st3" width="31.78" height="12.15"/>
	<rect x="109.67" y="310.46" class="st3" width="31.78" height="12.15"/>
	<rect x="193.77" y="310.46" class="st3" width="31.78" height="12.15"/>
</g>
<path class="Colour4 fill" d="M172.05,550.54c-11.37-25.93-24.94-51.57-45.51-70.87c-21.2-19.89-48.72-31.85-76.88-38.52
	c-4.09-0.97-8.2-1.8-12.32-2.57c1.23-7.04,2.44-14.05,3.61-21.01c2.62-15.55,4.94-30.04,6.92-43.74l4.52-3.96
	c25.15,8.83,48.3,24.21,67.1,43.41c30.29,30.93,50.13,71.03,62.9,112.58c11.45,37.26,17.56,75.91,23.08,114.55
	c-0.5,0.03-0.99,0.06-1.48,0.09C195.76,609.86,184.71,579.4,172.05,550.54z"/>
<path class="Colour1 fill" d="M33.33,175.38c2.62-0.44,6.34-1.36,10.31-3.47c8.05-4.28,13.62-11.58,17.95-22.3l0.18,0.72
	c25.94,99.42,26,177.55,21.81,228.37c-3.37,40.89-11.27,85.66-16.32,114.3c-9.84,55.78-29.29,135.77-29.29,135.77
	c-12.78-2.53-24.66-5.28-35.57-8.06c5.81-28.85,13.46-67.28,22.24-112.65c19.85-102.54,24.95-134.38,27.58-176.43
	c2.47-39.39,2.34-80.69-10.31-128.48C38.82,191.45,35.65,181.9,33.33,175.38z"/>
<g>
	<path class="st2" d="M249.13,348.68c1.42,57.99,10.84,107.74,21.47,163.85c9.17,48.41,26.63,116.6,26.63,116.6
		c13.43-2.63,25.91-5.49,37.37-8.42c-16.29-70.93-29.55-138.78-40.37-203.13c-15.23-90.5-20.89-145.81-2.58-210.95
		c3.53-12.56,10.56-31.53,10.58-31.58l-0.3,0c-1.85-0.03-4.62-0.28-7.7-1.4c-9.83-3.58-15.42-13.38-18.81-22.07l-0.17,0.72
		C251.43,234.95,248.01,303.06,249.13,348.68z"/>
	<path class="st2" d="M2.41,620.71c10.91,2.79,22.78,5.53,35.57,8.06c0,0,19.45-79.99,29.29-135.77
		c5.05-28.64,12.95-73.42,16.32-114.3c4.19-50.82,4.13-128.95-21.81-228.37l-0.18-0.72c-4.33,10.72-9.9,18.02-17.95,22.3
		c-3.97,2.11-7.68,3.03-10.31,3.47c2.32,6.52,5.49,16.07,8.59,27.78c12.65,47.79,12.78,89.09,10.31,128.48
		c-2.64,42.05-7.73,73.89-27.58,176.43C15.86,553.43,8.21,591.86,2.41,620.71z"/>
</g>
<g id="BBodyLogos"></g>
</svg>
