<?xml version="1.0" encoding="utf-8"?>
<!-- Generator: Adobe Illustrator 19.1.0, SVG Export Plug-In . SVG Version: 6.00 Build 0)  -->
<svg version="1.1" id="Layer_1" xmlns="http://www.w3.org/2000/svg" xmlns:xlink="http://www.w3.org/1999/xlink" x="0px" y="0px"
	 viewBox="0 0 335.2 641.14" style="enable-background:new 0 0 335.2 641.14;" xml:space="preserve">
<style type="text/css">
	<![CDATA[
	@font-face{font-family:'codaheavy';src:url('/fonts/coda-heavy-webfont.woff') format('woff')}
	text{font-family:Impact,codaheavy,sans-serif}
	.Number.fill{fill:#000}
	.NumberOutline.stroke{fill:none;stroke:#777;stroke-width:2.5}
	.Colour1.fill{fill:#231F20;}
	.NeckAndArmTrim.fill{fill:#404041;stroke:#000000;stroke-miterlimit:10;}
	.Gradient1.stopColor{stop-color:#FAAB1B;}
	.Gradient2.stopColor{stop-color:#F06022;}
	.Gradient3.stopColor{stop-color:#DE1E63;}
	.st0{fill:url(#SVGID_1_);}
	.st1{fill:url(#SVGID_2_);}
	.st2{fill:url(#SVGID_3_);}
	.st3{fill:url(#SVGID_4_);}
	.st4{fill:url(#SVGID_5_); opacity: 0.8}
	.st5{fill:url(#SVGID_6_); opacity: 0.8}
	.st6{fill:url(#SVGID_7_); opacity: 0.8}
	.st7{fill:url(#SVGID_8_); opacity: 0.8}
	.st8{fill:url(#SVGID_9_);}
	.st9{fill:url(#SVGID_10_);}
	.st10{fill:url(#SVGID_11_);}
	.st11{fill:url(#SVGID_12_);}
	.st12{fill:url(#SVGID_13_);}
	.st13{fill:url(#SVGID_14_);}
	.st14{fill:none;stroke:#000000;stroke-miterlimit:10;}
	.st15{fill:#FFFFFF;stroke:#000000;}
	.st16{fill:none;stroke:#000000;stroke-linecap:round;stroke-linejoin:round;}
	]]>
</style>
<path class="Colour1 fill" d="M229.7-0.2c13.82,3.76,24.82,7.53,38.64,11.29c-0.2,6.16-2.96,100.82,9.5,132.87
	c2.79,7.17,9,23.14,20.73,25.18c2.22,0.39,4.09,0.18,5.18,0c-3.61,8.71-8.48,21.51-12.95,37.34
	c-18.41,65.16-12.72,120.49,2.59,211.02c10.89,64.37,24.22,132.25,40.59,203.21c-41.42,10.53-96.11,20.26-160.64,20.84
	c-70.12,0.63-129.15-9.76-172.73-20.84c1.82-7.43,42.34-174.58,50.09-289.18c3.36-49.62,0.53-88.74-10.36-128.52
	c-3.92-14.33-8.13-25.95-11.23-33.87c1.63,0.07,4.12-0.01,6.91-0.87c21.99-6.76,26.69-50.79,28.5-67.74
	c0.78-7.34,0.82-29.02,0.86-72.08c0.01-7.33,0-13.37,0-17.37C78.62,7.32,91.86,3.56,105.1-0.2c10.77,5.56,32.98,15.21,62.58,15.15
	C196.97,14.88,218.95,5.35,229.7-0.2z"/>
<g>
	<g>
		<linearGradient id="SVGID_1_" gradientUnits="userSpaceOnUse" x1="211.03" y1="246.3809" x2="180.046" y2="257.3326">
			<stop class="Gradient1 stopColor" offset="0" style="stop-color:#FAAB1B"/>
			<stop class="Gradient1 stopColor" offset="1" style="stop-color:#F26F21"/>
		</linearGradient>
		<path class="st0" d="M266.63,499.22L90.68,4.5c5.48-1.49,8.36-2.98,13.84-4.47c8.14,5.89,18.73,8.68,23.12,12.5l172.76,486.7
			H266.63z"/>
	</g>
	<g>
		
			<linearGradient id="SVGID_2_" gradientUnits="userSpaceOnUse" x1="8934.3203" y1="460.0883" x2="8973.335" y2="460.0883" gradientTransform="matrix(-1 0 0 1 9239.1299 0)">
			<stop  offset="0" style="stop-color:#F48020"/>
			<stop class="Gradient2 stopColor" offset="1" style="stop-color:#F06022"/>
		</linearGradient>
		<path class="st1" d="M300.4,499.22h-34.6l27.85-78.26c3.38,22.21,7.23,44.46,11.17,65.63L300.4,499.22z"/>
	</g>
	<g>
		
			<linearGradient id="SVGID_3_" gradientUnits="userSpaceOnUse" x1="9082.5781" y1="255.829" x2="9105.4521" y2="263.9144" gradientTransform="matrix(-1 0 0 1 9239.1299 0)">
			<stop class="Gradient2 stopColor" offset="0.2513" style="stop-color:#F06022"/>
			<stop class="Gradient2 stopColor" offset="0.5741" style="stop-color:#EE4823"/>
		</linearGradient>
		<path class="st2" d="M76.11,8.46l174.54,490.75h-33.77L65.47,73.51c1.12-30.61,0.29-58.92,0.18-62.2
			C69.14,10.36,72.62,9.41,76.11,8.46z"/>
	</g>
	<g>
		
			<linearGradient id="SVGID_4_" gradientUnits="userSpaceOnUse" x1="8933.6953" y1="419.0914" x2="8946.5596" y2="424.1528" gradientTransform="matrix(-1 0 0 1 9239.1299 0)">
			<stop class="Gradient2 stopColor" offset="0.2513" style="stop-color:#F06022"/>
			<stop class="Gradient2 stopColor" offset="0.5741" style="stop-color:#EE4823"/>
		</linearGradient>
		<path class="st3" d="M262.77,368.25h23.85c4.31,38.71,11.13,80.46,18.25,118.69L262.77,368.25z"/>
	</g>
	
		<linearGradient id="SVGID_5_" gradientUnits="userSpaceOnUse" x1="8949.9941" y1="433.7341" x2="9023.0859" y2="433.7341" gradientTransform="matrix(-1 0 0 1 9239.1299 0)">
		<stop class="Gradient2 stopColor" offset="0" style="stop-color:#EE4823"/>
		<stop class="Gradient2 stopColor" offset="1" style="stop-color:#EE4823"/>
	</linearGradient>
	<path class="st4" d="M216.04,499.22l46.6-130.96h23.98c0.76,6.86,1.6,13.82,2.51,20.83l-38.49,110.13H216.04z"/>
	
		<linearGradient id="SVGID_6_" gradientUnits="userSpaceOnUse" x1="5348.334" y1="-3245.3564" x2="5479.2983" y2="-3245.3564" gradientTransform="matrix(-8.979300e-011 1 1 8.979300e-011 3451.8352 -4980.082)">
		<stop class="Gradient3 stopColor" offset="0" style="stop-color:#981B38"/>
		<stop class="Gradient3 stopColor" offset="0.9947" style="stop-color:#981B38"/>
	</linearGradient>
	<polygon class="st5" points="246.67,368.25 200.9,499.22 166.29,499.22 212.89,368.25 	"/>
	
		<linearGradient id="SVGID_7_" gradientUnits="userSpaceOnUse" x1="5348.334" y1="-3294.6919" x2="5479.2983" y2="-3294.6919" gradientTransform="matrix(-8.979300e-011 1 1 8.979300e-011 3451.8352 -4980.082)">
		<stop class="Gradient1 stopColor" offset="0" style="stop-color:#711240"/>
		<stop class="Gradient1 stopColor" offset="1" style="stop-color:#711240"/>
	</linearGradient>
	<polygon class="st6" points="196.91,368.25 151.14,499.22 117.37,499.22 163.14,368.25 	"/>
	
		<linearGradient id="SVGID_8_" gradientUnits="userSpaceOnUse" x1="5348.334" y1="-3344.4814" x2="5479.2983" y2="-3344.4814" gradientTransform="matrix(-8.979300e-011 1 1 8.979300e-011 3451.8352 -4980.082)">
		<stop class="Gradient2 stopColor" offset="0" style="stop-color:#4B1B55"/>
		<stop class="Gradient2 stopColor" offset="1" style="stop-color:#80388D"/>
	</linearGradient>
	<polygon class="st7" points="147.16,368.25 101.32,499.22 67.55,499.22 113.39,368.25 	"/>
	<g>
		
			<linearGradient id="SVGID_9_" gradientUnits="userSpaceOnUse" x1="9170.2373" y1="429.588" x2="9192.6094" y2="437.4956" gradientTransform="matrix(-1 0 0 1 9239.1299 0)">
			<stop class="Gradient2 stopColor" offset="0" style="stop-color:#80388D"/>
			<stop class="Gradient2 stopColor" offset="1" style="stop-color:#582A79"/>
		</linearGradient>
		<path class="st8" d="M67.62,499.22l-27.66-77.76c0.21-1.24,0.44-2.5,0.64-3.73c3.87-22.88,7.12-43.51,9.53-62.62l51.26,144.11
			H67.62z"/>
	</g>
	<g>
		
			<linearGradient id="SVGID_10_" gradientUnits="userSpaceOnUse" x1="9153.5801" y1="336.1064" x2="9176.0986" y2="344.0658" gradientTransform="matrix(-1 0 0 1 9239.1299 0)">
			<stop class="Gradient1 stopColor" offset="0" style="stop-color:#B41E85"/>
			<stop class="Gradient1 stopColor" offset="1" style="stop-color:#922477"/>
		</linearGradient>
		<path class="st9" d="M117.37,499.22L53.65,320.05c2.83-40.43,0.32-75.21-10.45-113.35c-4.47-15.83-9.35-28.63-12.95-37.34
			c0.83,0.14,2.11,0.29,3.65,0.18l117.25,329.67H117.37z"/>
	</g>
	<g>
		
			<linearGradient id="SVGID_11_" gradientUnits="userSpaceOnUse" x1="9114.1279" y1="307.6197" x2="9136.875" y2="315.66" gradientTransform="matrix(-1 0 0 1 9239.1299 0)">
			<stop class="Gradient3 stopColor" offset="0.1243" style="stop-color:#DE1E63"/>
			<stop class="Gradient3 stopColor" offset="1" style="stop-color:#D41B63"/>
		</linearGradient>
		<path class="st10" d="M167.12,499.22L47.04,161.58c4.55-5.72,7.45-13.12,9.11-17.4c3.08-7.93,5.24-19.71,6.72-33.02L200.9,499.22
			H167.12z"/>
	</g>
	
		<linearGradient id="SVGID_12_" gradientUnits="userSpaceOnUse" x1="9043.5596" y1="495.995" x2="9063.5391" y2="503.8559" gradientTransform="matrix(-1 0 0 1 9239.1299 0)">
		<stop class="Gradient2 stopColor" offset="0" style="stop-color:#80388D"/>
		<stop class="Gradient2 stopColor" offset="1" style="stop-color:#662A78"/>
	</linearGradient>
	<path class="st11" d="M147.16,368.25l95.63,269.24c-10.52,1.19-21.44,2.18-32.74,2.91l-96.67-272.15H147.16z"/>
	<g>
		
			<linearGradient id="SVGID_13_" gradientUnits="userSpaceOnUse" x1="8995.1699" y1="492.514" x2="9015.0664" y2="500.3422" gradientTransform="matrix(-1 0 0 1 9239.1299 0)">
			<stop class="Gradient1 stopColor" offset="0" style="stop-color:#CC1484"/>
			<stop class="Gradient1 stopColor" offset="1" style="stop-color:#922477"/>
		</linearGradient>
		<path class="st12" d="M163.14,368.25h33.77l93.13,262.19c-10.13,1.88-20.79,3.62-31.95,5.14L163.14,368.25z"/>
	</g>
	<g>
		
			<linearGradient id="SVGID_14_" gradientUnits="userSpaceOnUse" x1="8948.1826" y1="487.8732" x2="8968.4033" y2="495.5014" gradientTransform="matrix(-1 0 0 1 9239.1299 0)">
			<stop class="Gradient3 stopColor" offset="0.1243" style="stop-color:#DE1E63"/>
			<stop class="Gradient3 stopColor" offset="1" style="stop-color:#D41B63"/>
		</linearGradient>
		<path class="st13" d="M212.89,368.25h33.77l80.84,227.59c3.29,14.4,5.5,23.48,5.89,25.09c-8.84,2.25-18.33,4.47-28.41,6.57
			L212.89,368.25z"/>
	</g>
</g>
<path class="st14" d="M234.41,1.9"/>
<path class="st14" d="M99.11,1.9"/>
<g>
	<rect x="109.58" y="215.13" class="st15" width="31.96" height="12.16"/>
	<rect x="194.21" y="215.13" class="st15" width="31.96" height="12.16"/>
	<rect x="194.3" y="322.72" class="st15" width="31.96" height="12.16"/>
	<rect x="109.66" y="322.72" class="st15" width="31.96" height="12.16"/>
	<rect x="109.66" y="310.56" class="st15" width="31.96" height="12.16"/>
	<rect x="194.3" y="310.56" class="st15" width="31.96" height="12.16"/>
</g>
<g>
	<path class="Colour1 fill" d="M301.75,175.1c-1.86-0.03-4.65-0.28-7.74-1.4c-9.89-3.58-15.51-13.38-18.91-22.08l-0.17,0.72
		c-23.95,82.69-27.38,150.83-26.26,196.46c1.43,58.01,10.9,107.78,21.59,163.91c9.22,48.43,26.77,116.64,26.77,116.64
		c13.5-2.63,26.05-5.49,37.57-8.42c-16.37-70.96-29.71-138.83-40.59-203.21c-15.31-90.53-21-145.86-2.59-211.02
		c3.55-12.57,10.62-31.54,10.64-31.59L301.75,175.1z"/>
	<path class="Colour1 fill" d="M31.69,175.44c2.64-0.44,6.37-1.36,10.36-3.47c8.09-4.28,13.7-11.59,18.05-22.31l0.18,0.72
		C86.37,249.83,86.43,328,82.22,378.83c-3.39,40.9-11.33,85.69-16.41,114.34c-9.89,55.8-29.45,135.82-29.45,135.82
		c-12.85-2.54-24.79-5.28-35.76-8.07c1.82-7.43,42.34-174.58,50.09-289.18c3.36-49.62,0.53-88.74-10.36-128.52
		c-3.02-11.01-6.2-20.43-8.92-27.79L31.69,175.44z"/>
</g>
<g>
	<path class="st16" d="M296.95,629.02c-35.15,6.87-76.79,12.11-123.61,12.53c-52.46,0.47-98.7-5.23-136.92-12.77"/>
	<path class="st16" d="M301.35,175.09c0.84-2.15,1.65-4.15,2.4-5.96c-1.09,0.18-2.97,0.39-5.18,0
		c-11.73-2.05-17.94-18.01-20.73-25.18c-12.46-32.05-9.7-126.71-9.5-132.87C254.52,7.32,243.52,3.56,229.7-0.2
		c-10.75,5.55-32.73,15.08-62.01,15.15C138.08,15,115.87,5.35,105.1-0.2C91.86,3.56,78.62,7.32,65.38,11.09c0,4,0.01,10.04,0,17.37
		c-0.04,43.06-0.08,64.73-0.86,72.08c-1.81,16.95-6.51,60.98-28.5,67.74c-2.79,0.86-5.27,0.93-6.91,0.87c0.74,1.89,1.55,4,2.39,6.31
		"/>
	<path class="st16" d="M301.35,175.09c-3.22,8.21-7.01,18.84-10.56,31.38c-18.41,65.16-12.72,120.49,2.59,211.02
		c10.89,64.37,24.22,132.25,40.59,203.21c-11.37,2.89-23.74,5.72-37.03,8.31"/>
	<path class="st16" d="M0.65,620.71c10.97,2.79,22.91,5.53,35.76,8.06"/>
	<path class="st16" d="M52.02,296.14c-0.04,11.26-0.49,22.99-1.33,35.39C42.94,446.12,2.42,613.28,0.6,620.7
		c0.02,0,0.03,0.01,0.05,0.01"/>
	<path class="st16" d="M52.02,296.14c0.11-33.82-3.52-63.29-11.69-93.14c-2.99-10.9-6.13-20.23-8.83-27.56"/>
	<path class="st16" d="M301.35,175.09c0.14,0,0.28,0.01,0.41,0.01l0.3,0c-0.02,0.05-7.09,19.03-10.64,31.59
		c-18.41,65.16-12.72,120.49,2.59,211.02c10.89,64.37,24.22,132.25,40.59,203.21c-11.52,2.93-24.07,5.8-37.57,8.42
		c0,0-0.03-0.12-0.09-0.33"/>
	<path class="st16" d="M301.35,175.09c-1.84-0.06-4.45-0.34-7.34-1.39c-9.89-3.58-15.51-13.38-18.91-22.08l-0.17,0.72
		c-23.95,82.69-27.38,150.83-26.26,196.46c1.43,58.01,10.9,107.78,21.59,163.91c8.85,46.49,25.38,111.2,26.69,116.3"/>
	<path class="st16" d="M0.65,620.71c-0.02,0.08-0.04,0.15-0.05,0.21c10.97,2.79,22.91,5.53,35.76,8.07c0,0,0.02-0.08,0.05-0.22"/>
	<path class="st16" d="M52.02,296.14c-0.03,11.33-0.48,23.14-1.33,35.61C43,445.42,3.07,610.8,0.65,620.71"/>
	<path class="st16" d="M31.5,175.44l0.2,0c2.64-0.44,6.37-1.36,10.36-3.47c8.09-4.28,13.7-11.59,18.05-22.31l0.18,0.72
		C86.37,249.83,86.43,328,82.22,378.83c-3.39,40.9-11.33,85.69-16.41,114.34c-9.6,54.13-28.28,131.05-29.39,135.6"/>
	<path class="st16" d="M31.5,175.44l-0.08,0c2.72,7.36,5.9,16.77,8.92,27.79c8.15,29.78,11.79,59.19,11.69,92.91"/>
</g>
<path class="NeckAndArmTrim fill" d="M31.57,175.44c2.64-0.44,6.37-1.36,10.36-3.47c11.77-6.22,18.28-18.86,23.32-39.08
	c5.96-23.89,5.7-41.67,6.05-78.16c0.19-20.27,0.47-36.37,0.64-45.32l-6.69,1.9c0,4,0.01,10.04,0,17.37
	c-0.04,43.06-0.08,64.73-0.86,72.08c-1.81,16.95-6.51,60.98-28.5,67.74c-2.79,0.86-5.27,0.93-6.91,0.87L31.57,175.44z"/>
<path class="NeckAndArmTrim fill" d="M302.05,175.11c-1.85-0.01-4.77-0.22-8.05-1.41c-14.32-5.18-19.69-23.43-22.35-32.45
	c-11.54-39.18-8.99-124.21-8.74-131.68l6.05,1.74c-0.2,6.16-2.96,100.82,9.5,132.87c2.79,7.17,9,23.14,20.73,25.18
	c2.22,0.39,4.09,0.18,5.18,0L302.05,175.11z"/>
<path class="NeckAndArmTrim fill" d="M97.67,1.85c9.8,6.23,35.66,20.82,71.52,20.12c32.95-0.64,56.66-13.85,66.55-20.15l-8.28-2.26
	c-10.17,5.47-31.35,15.12-59.77,15.37c-29.68,0.26-51.79-9.87-62.01-15.37L97.67,1.85z"/>
</svg>
