<?xml version="1.0" encoding="utf-8"?>
<!-- Generator: Adobe Illustrator 19.1.0, SVG Export Plug-In . SVG Version: 6.00 Build 0)  -->
<svg version="1.1" id="Layer_1" xmlns="http://www.w3.org/2000/svg" xmlns:xlink="http://www.w3.org/1999/xlink" x="0px" y="0px"
	 viewBox="0 0 335.2 641.14" style="enable-background:new 0 0 335.2 641.14;" xml:space="preserve">
<style type="text/css">
	<![CDATA[
	@font-face{font-family:'codaheavy';src:url('/fonts/coda-heavy-webfont.woff') format('woff')}
	text{font-family:Impact,codaheavy,sans-serif}
	.Number.fill{fill:#000}
	.NumberOutline.stroke{fill:none;stroke:#777;stroke-width:2.5}
	.Colour1.fill{fill:#FFFFFF;}
	.Colour2.fill{fill:#1F9346;}
	.Colour3.fill{fill:#0E5969;}
	.Colour4.fill{fill:#52B6C7;}
	.NeckAndArmTrim.fill{fill:#7FC142;stroke:#000000;stroke-miterlimit:10;}
	.SidePanels.fill{fill:#7FC142;stroke:#000000;stroke-miterlimit:10;}
	.st0{fill:#7FC142;}
	.st1{fill:url(#SVGID_1_);}
	.st2{fill:#98D2B8;}
	.st3{fill:#DBEFEF;}
	.st4{fill:url(#SVGID_2_);}
	.st5{fill:#D0DE54;}
	.st6{fill:#0E5969;}
	.st7{fill:#97C93C;}
	.st8{fill:none;stroke:#000000;stroke-miterlimit:10;}
	.st9{fill:#FFFFFF;stroke:#000000;}
	.st10{fill:none;stroke:#000000;stroke-linecap:round;stroke-linejoin:round;}
	]]>
</style>
<path class="Colour1 fill" d="M291.1,206.55c4.47-15.83,9.35-28.62,12.95-37.33c-1.09,0.18-2.97,0.39-5.18,0
	c-11.73-2.04-17.94-18.01-20.73-25.17c-12.46-32.03-9.7-126.66-9.5-132.82c-13.82-3.76-26.78-7.81-40.6-11.57
	c0,21.92-122.64,22.21-122.64,0.29C92.17,3.7,78.93,7.46,65.69,11.23c0,4,0.01,10.03,0,17.36c-0.04,43.04-0.08,64.71-0.86,72.05
	c-1.81,16.94-6.51,60.96-28.5,67.71c-2.79,0.86-5.27,0.93-6.91,0.87c3.1,7.91,7.3,19.53,11.23,33.86
	c10.89,39.77,13.72,78.88,10.36,128.48C43.25,446.11,2.73,613.2,0.91,620.63c43.59,11.07,102.61,21.46,172.73,20.83
	c64.53-0.58,119.22-10.31,160.64-20.83c-16.37-70.93-29.71-138.78-40.59-203.13C278.39,327,272.7,271.68,291.1,206.55z"/>
<polygon class="st0" points="-187.74,168.29 -187.74,168.29 -187.74,168.29 "/>
<polygon class="st0" points="-78.88,168.29 -78.88,168.3 -78.87,168.29 "/>
<polygon class="st0" points="-133.31,168.29 -133.31,168.29 -133.31,168.29 "/>
<path class="SidePanels fill" d="M236.72,499.58h-54.43l27.21-47.32L236.72,499.58z M182.3,404.93l-27.21,47.32h54.43L182.3,404.93z"/>
<path class="SidePanels fill" d="M155.07,357.6L155.07,357.6h54.43l-27.22,47.33l0,0L155.07,357.6z M209.51,357.6L209.51,357.6l54.43,0
	l-27.21-47.32h-0.01L209.51,357.6z"/>
<path class="Colour2 fill" style="fill-opacity: 0.8" d="M263.94,452.25l27.22,47.33h-54.44L263.94,452.25L263.94,452.25z M182.29,404.93l27.22,47.32h0.01
	l27.22-47.32H182.29L182.29,404.93z M155.08,641.57l27.22-47.33v0h-54.43l0,0L155.08,641.57z M100.64,546.91L100.64,546.91h54.44
	l-27.22-47.33h-0.01L100.64,546.91z"/>
<path class="Colour4 fill" d="M182.29,499.58l-27.22,47.33l0,0l-27.22-47.33H182.29L182.29,499.58z M155.08,546.91L155.08,546.91
	l27.22,47.33l27.21-47.33v0H155.08z"/>
<path class="Colour4 fill" d="M100.64,546.91l-27.22,47.33L46.2,546.91v0H100.64z M127.86,310.28l-26.36,47.33h54.42L127.86,310.28z"/>
<path class="Colour3 fill" style="fill-opacity: 0.2" d="M127.86,310.28L127.86,310.28h54.43l-27.21,47.32h-0.01L127.86,310.28z M46.2,546.91h54.44l0,0
	l-27.21-47.33h0L46.2,546.91z M182.29,499.58l-27.22,47.33h54.43L182.29,499.58z M209.51,168.29L209.51,168.29l27.21,47.33
	l27.22-47.33H209.51z"/>
<path class="Colour2 fill" style="fill-opacity: 0.5" d="M182.29,310.28l27.21,47.32v0h-54.43l27.21-47.32H182.29z M289,215.62h-52.28l27.21,47.32l23.73-41.26
	C288.09,219.66,288.54,217.64,289,215.62z M263.94,452.25l26.19-45.54c-0.09-0.6-0.17-1.19-0.25-1.79h-53.15L263.94,452.25z"/>
<path class="Colour2 fill" style="fill-opacity: 0.5" d="M100.64,546.91L100.64,546.91l27.22,47.33l0,0H73.42l0,0L100.64,546.91z M268.51,633.62
	c14.59-2.25,28.26-4.85,40.92-7.6l-18.28-31.77L268.51,633.62z"/>
<path class="Colour3 fill" d="M127.86,404.93h54.44l-27.22,47.32h-0.01L127.86,404.93L127.86,404.93z M127.85,499.58H73.42l27.21,47.33
	L127.85,499.58z M280.77,310.28h-44.05l27.21,47.32h0l17.61-30.63C281.21,321.28,280.95,315.72,280.77,310.28z M291.15,594.24
	l25.07-43.58c-0.26-1.24-0.53-2.49-0.79-3.75l-51.49,0.01L291.15,594.24z M236.72,594.25l-26.34,45.8c17.5-1.17,34.1-2.97,49.7-5.18
	L236.72,594.25z"/>
<path class="SidePanels fill" style="fill-opacity: 0.8;" d="M209.51,546.91h54.43l0,0.01l-27.21,47.32l0,0L209.51,546.91L209.51,546.91z M209.51,546.91L209.51,546.91
	l27.22-47.32v0h-54.43l0,0L209.51,546.91z M209.5,262.95h-54.42l27.21,47.32L209.5,262.95z M158.96,641.54
	c1.86,0.02,3.7,0.02,5.54,0.02h1.76c14.66-0.03,28.82-0.53,42.44-1.41l-26.4-45.92h0l-27.16,47.23
	C156.41,641.49,157.67,641.53,158.96,641.54z"/>
<path class="Colour2 fill" d="M209.51,357.6l27.22,47.33v0h-54.44L209.51,357.6L209.51,357.6z M127.86,594.24L127.86,594.24h54.43v0
	l-27.22-47.33L127.86,594.24z M263.94,546.91h-54.43l27.21-47.32L263.94,546.91z M289,215.62h-52.28h0l27.22-47.33l25.69,44.68
	C289.42,213.85,289.21,214.74,289,215.62z M291.15,594.24h-54.43l27.21-47.32L291.15,594.24L291.15,594.24z"/>
<path class="SidePanels fill" d="M280.52,291.78l-16.58-28.83h-0.01l-27.22,47.32l0,0.01h44.05C280.57,303.96,280.49,297.81,280.52,291.78z
	 M98.76,638.31c1.18,0.12,2.36,0.24,3.55,0.35l25.54-44.42H73.42L98.76,638.31z"/>
<path class="Colour4 fill" d="M127.86,594.24l27.16,47.23c-18.41-0.27-36.01-1.27-52.71-2.82L127.86,594.24z M263.94,262.95h-54.43
	l27.22,47.32L263.94,262.95z M236.72,594.24h54.43l-22.64,39.38c-2.78,0.43-5.58,0.85-8.42,1.25L236.72,594.24L236.72,594.24z
	 M73.42,594.24l25.34,44.07c-16.62-1.63-32.34-3.79-47.07-6.28L73.42,594.24z"/>
<path class="Colour3 fill" d="M209.5,262.95L209.5,262.95l27.22,47.32l0,0.01h-54.42l0-0.01L209.5,262.95z M263.94,357.6h-54.43
	l27.22,47.33L263.94,357.6L263.94,357.6z M155.08,546.91l-27.22,47.33l-27.22-47.33H155.08L155.08,546.91z M236.72,499.58h54.44l0,0
	l-27.22,47.33h-0.01L236.72,499.58L236.72,499.58z M18.98,594.24h54.44l-21.73,37.78c-4.16-0.7-8.24-1.43-12.24-2.19L18.98,594.24z"
	/>
<polygon class="st0" points="237.01,405.1 237.01,405.1 237.01,405.09 "/>
<polygon class="st0" points="291.25,405.1 291.25,405.1 291.24,405.1 "/>
<polygon class="st0" points="182.77,405.1 182.77,405.1 182.77,405.1 "/>
<polygon class="st0" points="291.25,499.68 291.25,499.68 291.25,499.68 "/>
<polygon class="st0" points="128.54,499.68 128.53,499.68 128.54,499.68 "/>
<polygon class="st0" points="182.77,499.68 182.77,499.68 182.77,499.68 "/>
<polygon class="st0" points="74.3,499.68 74.29,499.68 74.3,499.68 "/>
<polygon class="st0" points="264.13,452.39 264.13,452.39 264.13,452.39 "/>
<polygon class="st0" points="182.78,310.51 182.76,310.51 182.77,310.5 "/>
<polygon class="st0" points="237.01,310.51 237,310.51 237.01,310.51 "/>
<polygon class="st0" points="264.13,357.8 264.13,357.8 264.13,357.8 "/>
<polygon class="st0" points="155.65,357.8 155.65,357.8 155.65,357.8 "/>
<polygon class="st0" points="209.89,357.8 209.89,357.8 209.89,357.8 "/>
<polygon class="st0" points="182.78,594.27 182.77,594.27 182.77,594.27 "/>
<polygon class="st0" points="128.54,594.27 128.54,594.27 128.54,594.27 "/>
<polygon class="st0" points="237.01,594.28 237.01,594.27 237.01,594.27 "/>
<polygon class="st0" points="74.29,594.27 74.29,594.27 74.29,594.27 "/>
<polygon class="st0" points="209.89,641.57 209.89,641.57 209.9,641.57 "/>
<polygon class="st0" points="47.18,641.57 47.18,641.57 47.18,641.56 "/>
<polygon class="st0" points="47.18,546.98 47.18,546.98 47.17,546.98 "/>
<polygon class="st0" points="101.41,546.98 101.41,546.98 101.41,546.98 "/>
<polygon class="st0" points="264.13,546.99 264.12,546.98 264.13,546.98 "/>
<polygon class="st0" points="318.37,546.98 318.36,546.98 318.36,546.98 "/>
<polygon class="st0" points="209.89,546.98 209.89,546.98 209.89,546.98 "/>
<polygon class="st0" points="155.66,546.98 155.66,546.98 155.66,546.98 "/>
<polygon class="st0" points="101.41,641.57 101.41,641.57 101.42,641.57 "/>
<polygon class="st0" points="264.13,641.57 264.13,641.57 264.13,641.57 "/>
<polygon class="st0" points="318.36,641.57 318.36,641.57 318.36,641.56 "/>
<polygon class="st0" points="155.65,641.57 155.65,641.57 155.66,641.57 "/>
<polygon class="st0" points="291.24,594.27 291.24,594.27 291.24,594.27 "/>
<polygon class="st0" points="128.54,310.51 128.54,310.51 128.54,310.51 "/>
<polygon class="st0" points="237.01,499.69 237.01,499.68 237.01,499.68 "/>
<polygon class="st0" points="209.89,452.4 209.88,452.39 209.89,452.39 "/>
<polygon class="st0" points="237.01,215.92 237.01,215.92 237.01,215.92 "/>
<polygon class="st0" points="209.89,263.22 209.88,263.22 209.89,263.21 "/>
<polygon class="st0" points="155.66,263.22 155.66,263.22 155.66,263.21 "/>
<polygon class="st0" points="264.13,263.22 264.12,263.22 264.13,263.21 "/>
<polygon class="st0" points="209.89,168.62 209.89,168.63 209.89,168.62 "/>
<polygon class="st0" points="264.13,168.62 264.13,168.62 264.13,168.62 "/>
<path class="Colour2 fill" style="fill-opacity: 0.5" d="M303.51,169.3c-3.09,7.91-7.29,19.53-11.21,33.86c-0.92,3.37-1.77,6.74-2.57,10.11l-25.6-44.64h33.24
	C299.84,169.27,302.03,169.36,303.51,169.3z"/>
<g>
	<path class="st0" d="M264.13,263.21l23.64-41.23c-2.83,13.48-4.8,27.08-5.93,41.24L264.13,263.21L264.13,263.21z"/>
</g>
<g>
	
		<linearGradient id="SVGID_1_" gradientUnits="userSpaceOnUse" x1="11077.832" y1="277.6239" x2="11095.5352" y2="277.6239" gradientTransform="matrix(-1 0 0 1 11359.666 0)">
		<stop  offset="0" style="stop-color:#0E5969"/>
		<stop  offset="7.460415e-003" style="stop-color:#0E5A69"/>
		<stop  offset="0.2704" style="stop-color:#127866"/>
		<stop  offset="0.5278" style="stop-color:#158E64"/>
		<stop  offset="0.7747" style="stop-color:#169C62"/>
		<stop  offset="1" style="stop-color:#17A062"/>
	</linearGradient>
	<path class="st1" d="M280.65,292.03l-16.52-28.81h17.7C281.09,272.53,280.71,282.11,280.65,292.03z"/>
</g>
<g>
	<path class="st2" d="M281.68,327.19c0.09,1.48,0.17,2.94,0.27,4.45c0.57,8.46,1.33,17.22,2.23,26.17h-20.05L281.68,327.19z"/>
</g>
<g>
	<path class="st3" d="M264.13,357.8h20.05c1.45,14.39,3.28,29.29,5.38,44.36L264.13,357.8L264.13,357.8z"/>
</g>
<g>
	
		<linearGradient id="SVGID_2_" gradientUnits="userSpaceOnUse" x1="11062.3027" y1="429.6364" x2="11095.5352" y2="429.6364" gradientTransform="matrix(-1 0 0 1 11359.666 0)">
		<stop  offset="0" style="stop-color:#83C672"/>
		<stop  offset="0.0499" style="stop-color:#8AC86F"/>
		<stop  offset="0.3016" style="stop-color:#A8D263"/>
		<stop  offset="0.5479" style="stop-color:#BED85B"/>
		<stop  offset="0.7844" style="stop-color:#CCDD56"/>
		<stop  offset="1" style="stop-color:#D0DE54"/>
	</linearGradient>
	<path class="st4" d="M264.13,452.39l26.09-45.5c2.16,15.16,4.58,30.45,7.14,45.5H264.13z"/>
</g>
<g>
	<path class="st0" d="M291.25,499.68l-27.12-47.3h33.23c1.61,9.46,3.26,18.82,4.95,28L291.25,499.68z"/>
</g>
<g>
	<path class="st5" d="M291.25,499.68l11.06-19.29c1.2,6.53,2.41,12.97,3.62,19.29H291.25z"/>
</g>
<g>
	<path class="st2" d="M291.24,594.27l24.98-43.56c3.61,17.09,6.91,31.95,9.55,43.56H291.24z"/>
</g>
<g>
	<path class="st6" d="M291.24,594.27h34.53c2.74,12.06,4.78,20.6,5.7,24.42l-1.43,2.49c-6.53,1.64-13.39,3.26-20.59,4.84
		L291.24,594.27z"/>
</g>
<g>
	<path class="st7" d="M331.47,618.7c0.24,0.99,0.4,1.67,0.49,2.01c-0.63,0.16-1.28,0.32-1.92,0.48L331.47,618.7z"/>
</g>
<path class="st8" d="M229.57,0.1c13.79,3.76,24.5,7.45,38.3,11.21c-0.2,6.16-2.96,100.78,9.48,132.82
	c2.78,7.17,8.98,23.13,20.69,25.17c2.21,0.39,4.09,0.18,5.17,0c-3.6,8.71-8.47,21.5-12.93,37.33
	c-18.38,65.14-12.7,120.45,2.59,210.95c10.87,64.35,24.18,132.2,40.52,203.13c-41.35,10.53-95.94,20.26-160.36,20.83
	c-70,0.63-128.92-9.76-172.43-20.83c1.82-7.42,42.27-174.52,50.01-289.08c3.35-49.6,0.53-88.71-10.35-128.48
	c-3.92-14.33-8.11-25.94-11.21-33.86c1.63,0.07,4.11-0.01,6.9-0.87c21.95-6.75,26.65-50.77,28.45-67.71
	c0.78-7.34,0.82-29.01,0.86-72.05c0.01-7.33,0-13.36,0-17.36C78.48,7.55,91.7,3.78,104.92,0.02"/>
<path class="st8" d="M234.58,1.9"/>
<path class="st8" d="M99.53,1.9"/>
<g>
	<rect x="109.97" y="215.05" class="st9" width="31.9" height="12.15"/>
	<rect x="194.46" y="215.05" class="st9" width="31.9" height="12.15"/>
	<rect x="194.54" y="322.61" class="st9" width="31.9" height="12.15"/>
	<rect x="110.05" y="322.61" class="st9" width="31.9" height="12.15"/>
	<rect x="110.05" y="310.46" class="st9" width="31.9" height="12.15"/>
	<rect x="194.54" y="310.46" class="st9" width="31.9" height="12.15"/>
</g>
<path class="SidePanels fill" d="M301.81,175.04c-1.85-0.03-4.64-0.28-7.73-1.4c-9.87-3.58-15.48-13.38-18.88-22.07l-0.17,0.72
	c-23.91,82.66-27.33,150.77-26.21,196.39c1.42,57.99,10.88,107.74,21.55,163.85c9.2,48.41,26.73,116.6,26.73,116.6
	c13.48-2.62,26-5.49,37.5-8.42c-16.35-70.93-29.65-138.78-40.52-203.13c-15.28-90.5-20.96-145.81-2.59-210.95
	c3.54-12.56,10.6-31.53,10.62-31.58L301.81,175.04z"/>
<path class="SidePanels fill" d="M32.22,175.38c2.63-0.44,6.36-1.36,10.35-3.47c8.08-4.28,13.67-11.58,18.02-22.3l0.18,0.72
	c26.04,99.42,26.1,177.55,21.89,228.37c-3.38,40.89-11.31,85.66-16.38,114.3c-9.88,55.78-29.4,135.77-29.4,135.77
	c-12.83-2.53-24.75-5.28-35.7-8.06C3,613.29,43.45,446.19,51.19,331.63c3.35-49.6,0.53-88.71-10.35-128.48
	c-3.01-11.01-6.19-20.42-8.9-27.78L32.22,175.38z"/>
<g>
	<path class="st10" d="M296.9,628.98c-35.11,6.85-76.68,12.07-123.41,12.48c-52.38,0.47-98.57-5.21-136.76-12.73"/>
	<path class="st10" d="M301.56,175.04c-3.23,8.22-7.05,18.9-10.61,31.51c-18.41,65.14-12.72,120.45,2.59,210.95
		c10.89,64.35,24.22,132.2,40.59,203.13c-11.42,2.9-23.86,5.74-37.23,8.35"/>
	<path class="st10" d="M301.56,175.04c0.82-2.1,1.61-4.05,2.35-5.82c-1.09,0.18-2.97,0.39-5.18,0
		c-11.73-2.04-17.94-18.01-20.73-25.17c-12.46-32.03-9.7-126.66-9.5-132.82c-13.82-3.76-26.78-7.81-40.6-11.57
		c0,21.92-122.64,22.21-122.64,0.29C92.02,3.7,78.77,7.46,65.53,11.23c0,4,0.01,10.03,0,17.36c-0.04,43.04-0.08,64.71-0.86,72.05
		c-1.81,16.94-6.51,60.96-28.5,67.71c-2.79,0.86-5.27,0.93-6.91,0.87c3.1,7.91,7.3,19.53,11.23,33.86
		c10.89,39.77,13.72,78.88,10.36,128.48C43.1,446.11,2.58,613.2,0.76,620.63c0.09,0.02,0.18,0.05,0.27,0.07"/>
	<path class="st10" d="M1.03,620.7c10.95,2.78,22.88,5.51,35.7,8.04"/>
	<path class="st10" d="M301.56,175.04c0.03,0,0.07,0,0.1,0l0.3,0c-0.02,0.05-7.07,19.02-10.62,31.58
		c-18.38,65.14-12.7,120.45,2.59,210.95c10.87,64.35,24.18,132.2,40.52,203.13c-11.5,2.93-24.03,5.79-37.5,8.42
		c0,0-0.01-0.06-0.04-0.15"/>
	<path class="st10" d="M301.56,175.04c-1.85-0.04-4.59-0.3-7.63-1.4c-9.87-3.58-15.48-13.38-18.88-22.07l-0.17,0.72
		c-23.91,82.66-27.33,150.77-26.21,196.39c1.42,57.99,10.88,107.74,21.55,163.85c8.96,47.14,25.81,113.02,26.69,116.45"/>
	<path class="st10" d="M1.03,620.7c0,0,0,0.01,0,0.01c10.95,2.79,22.87,5.53,35.7,8.06c0,0,0.01-0.02,0.01-0.04"/>
	<path class="st10" d="M1.03,620.7c1.85-7.57,42.27-174.56,50-289.06c3.35-49.6,0.53-88.71-10.35-128.48
		c-3.01-11.01-6.19-20.42-8.9-27.78l0.28,0c2.63-0.44,6.36-1.36,10.35-3.47c8.08-4.28,13.67-11.58,18.02-22.3l0.18,0.72
		c26.04,99.42,26.1,177.55,21.89,228.37c-3.38,40.89-11.31,85.66-16.38,114.3c-9.77,55.19-28.98,134.06-29.39,135.73"/>
</g>
<path class="NeckAndArmTrim fill" d="M32.1,175.38c2.63-0.44,6.36-1.36,10.35-3.47c11.75-6.22,18.24-18.85,23.28-39.06
	c5.95-23.88,5.69-41.65,6.04-78.13c0.19-20.26,0.47-36.36,0.64-45.31l-6.68,1.9c0,4,0.01,10.03,0,17.36
	c-0.04,43.04-0.08,64.71-0.86,72.05c-1.81,16.94-6.5,60.96-28.45,67.71c-2.79,0.86-5.27,0.93-6.9,0.87L32.1,175.38z"/>
<path class="NeckAndArmTrim fill" d="M302.11,175.05c-1.84-0.01-4.77-0.22-8.03-1.41c-14.29-5.18-19.66-23.42-22.31-32.44
	c-11.52-39.17-8.98-124.16-8.73-131.63l6.04,1.74c-0.2,6.16-2.96,100.78,9.48,132.82c2.78,7.17,8.98,23.13,20.69,25.17
	c2.21,0.39,4.09,0.18,5.17,0L302.11,175.05z"/>
<path class="NeckAndArmTrim fill" d="M98.08,1.85c9.78,6.22,35.6,20.81,71.39,20.12c32.89-0.64,56.56-13.84,66.44-20.14l-8.27-2.25
	c-10.15,5.47-31.3,15.12-59.67,15.37c-29.63,0.26-51.7-9.87-61.9-15.37L98.08,1.85z"/>
<g id="BBodyLogos"></g>
</svg>
