<?xml version="1.0" encoding="utf-8"?>
<!-- Generator: Adobe Illustrator 19.1.0, SVG Export Plug-In . SVG Version: 6.00 Build 0)  -->
<svg version="1.1" id="Layer_1" xmlns="http://www.w3.org/2000/svg" xmlns:xlink="http://www.w3.org/1999/xlink" x="0px" y="0px"
	 viewBox="0 0 335.2 641.14" style="enable-background:new 0 0 335.2 641.14;" xml:space="preserve">
<style type="text/css">
	<![CDATA[
	@font-face{font-family:'codaheavy';src:url('/fonts/coda-heavy-webfont.woff') format('woff')}
	text{font-family:Impact,codaheavy,sans-serif}
	.Number.fill{fill:#000}
	.NumberOutline.stroke{fill:none;stroke:#777;stroke-width:2.5}
	.Colour1.fill{fill:#030505;}
	.NeckAndArmTrim.fill{fill:#030505;stroke:#000000;stroke-miterlimit:10;}
	.st0{fill:none;stroke:#000000;stroke-miterlimit:10;}
	.st1{fill:none;stroke:#030505;stroke-linecap:round;stroke-linejoin:round;}
	.st2{fill:#FFFFFF;stroke:#000000;stroke-width:0.5;}
	]]>
</style>
<path class="Colour1 fill" d="M228.42,0.1c13.79,3.76,25.66,7,39.45,10.77c-0.2,6.16-2.96,100.85,9.48,132.91
	c2.78,7.17,8.98,23.15,20.69,25.19c2.21,0.39,4.09,0.18,5.17,0c-3.6,8.71-8.47,21.51-12.93,37.35
	c-18.38,65.18-12.7,120.54,2.59,211.1c10.87,64.39,24.18,132.3,40.52,203.28c-41.35,10.53-95.94,20.27-160.36,20.85
	c-70,0.63-128.92-9.77-172.43-20.85c1.82-7.43,42.27-174.64,50.01-289.28c3.35-49.63,0.53-88.77-10.35-128.57
	c-3.92-14.34-8.11-25.96-11.21-33.88c1.63,0.07,4.11-0.01,6.9-0.87c21.95-6.76,26.65-50.8,28.45-67.76
	c0.78-7.35,0.82-29.03,0.86-72.1c0.01-7.33,0-13.37,0-17.37C78.48,7.1,90.88,3.91,104.1,0.15l6.66,5.13l5.81,5.51l7.31,1.13
	l8.62,2.04l6.18,0.76l7.12,1.32l6,0.94l8.43,1.13l6.9-0.76h7.91l9.18-0.76c0,0,4.12-0.94,4.68-1.13s8.62-1.51,9.18-1.89
	c0.56-0.38,7.31-1.67,7.31-1.67l7.87-4.19c0,0,8.24-3.59,8.81-3.4C222.63,4.52,228.42,0.1,228.42,0.1z"/>
<path class="Colour1 fill" d="M32.85,175.05c2.63-0.44,6.36-1.36,10.35-3.47c8.08-4.28,13.67-11.59,18.02-22.32l0.18,0.72
	c26.04,99.49,26.1,177.68,21.89,228.53C79.9,419.43,71.97,464.23,66.9,492.9c-9.88,55.82-29.4,135.87-29.4,135.87
	c-12.83-2.54-24.75-5.28-35.7-8.07c1.82-7.43,42.27-174.64,50.01-289.28c3.35-49.63,0.53-88.77-10.35-128.57
	c-3.01-11.02-6.19-20.43-8.9-27.8L32.85,175.05z"/>
<path class="Colour1 fill" d="M301.81,174.71c-1.85-0.03-4.64-0.28-7.73-1.4c-9.87-3.58-15.48-13.39-18.88-22.09l-0.17,0.72
	c-23.91,82.72-27.33,150.88-26.21,196.53c1.42,58.03,10.88,107.82,21.55,163.97c9.2,48.44,26.73,116.68,26.73,116.68
	c13.48-2.63,26-5.5,37.5-8.42c-16.35-70.98-29.65-138.88-40.52-203.28c-15.28-90.56-20.96-145.91-2.59-211.1
	c3.54-12.57,10.6-31.55,10.62-31.6L301.81,174.71z"/>
<path class="Colour1 fill" d="M64.76,100.34c-0.87,8.16-2.41,22.59-6.22,36.12L167.35,246.1l108.2-109.02
	c-9.95-36.83-7.51-120.44-7.33-126.22c-13.79-3.76-27.59-7.53-41.38-11.29c-2.38,18.33-9.8,53.47-37.07,84.26
	c-8.06,9.09-16.41,16.19-24.14,21.72c-7.72-5.49-16.09-12.58-24.14-21.72c-27.22-30.9-34.12-66.28-36.21-84.26
	C92.06,3.33,78.84,7.1,65.62,10.86c0,4,0.01,10.04,0,17.37C65.58,71.31,65.54,92.99,64.76,100.34z"/>
<path class="st0" d="M234.58,1.45"/>
<path class="st0" d="M99.53,1.45"/>
<path class="st0" d="M98.13,1.85c9.78,6.23,35.6,20.83,71.39,20.13c32.89-0.64,56.56-13.85,66.44-20.15"/>
<g>
	<path class="st1" d="M248.21,348.47c1.42,58.03,10.88,107.82,21.55,163.97c9.2,48.44,26.73,116.68,26.73,116.68
		c13.48-2.63,26-5.5,37.5-8.42c-16.35-70.98-29.65-138.88-40.52-203.28c-15.28-90.56-20.96-145.91-2.59-211.1
		c3.54-12.57,10.6-31.55,10.62-31.6l-0.3,0c-1.85-0.03-4.64-0.28-7.73-1.4c-9.87-3.58-15.48-13.39-18.88-22.09l-0.17,0.72
		C250.52,234.67,247.09,302.83,248.21,348.47z"/>
	<path class="st1" d="M1.2,620.69c10.95,2.79,22.87,5.53,35.7,8.07c0,0,19.52-80.04,29.4-135.87c5.07-28.66,13-73.47,16.38-114.38
		c4.2-50.85,4.15-129.04-21.89-228.53l-0.18-0.72c-4.34,10.72-9.94,18.03-18.02,22.32c-3.98,2.11-7.71,3.03-10.35,3.47l-0.28,0
		c2.71,7.36,5.89,16.78,8.9,27.8c10.87,39.79,13.7,78.93,10.35,128.57C43.47,446.06,3.02,613.27,1.2,620.69z"/>
</g>
<g id="BBodyLogos"></g>
<path class="NeckAndArmTrim fill" d="M98.13,1.85c9.78,6.23,35.6,20.83,71.39,20.13c32.89-0.64,56.56-13.85,66.44-20.15l-8.27-2.26
	c-10.15,5.48-31.3,15.13-59.67,15.38c-29.63,0.26-51.7-9.88-61.9-15.38L98.13,1.85z"/>
<path class="NeckAndArmTrim fill" d="M32.1,175.05c2.63-0.44,6.36-1.36,10.35-3.47c11.75-6.23,18.24-18.86,23.28-39.09
	c5.95-23.9,5.69-41.68,6.04-78.18c0.19-20.28,0.47-36.38,0.64-45.34l-6.68,1.9c0,4,0.01,10.04,0,17.37
	c-0.04,43.07-0.08,64.76-0.86,72.1c-1.81,16.96-6.5,61-28.45,67.76c-2.79,0.86-5.27,0.93-6.9,0.87L32.1,175.05z"/>
<path class="NeckAndArmTrim fill" d="M302.11,174.72c-1.84-0.01-4.77-0.22-8.03-1.41c-14.29-5.19-19.66-23.43-22.31-32.46
	c-11.52-39.2-8.98-124.25-8.73-131.73l6.04,1.74c-0.2,6.16-2.96,100.85,9.48,132.91c2.78,7.17,8.98,23.15,20.69,25.19
	c2.21,0.39,4.09,0.18,5.17,0L302.11,174.72z"/>
<g>
	<rect x="109.97" y="214.75" class="st2" width="31.9" height="12.16"/>
	<rect x="194.46" y="214.75" class="st2" width="31.9" height="12.16"/>
	<rect x="194.54" y="322.38" class="st2" width="31.9" height="12.16"/>
	<rect x="110.05" y="322.38" class="st2" width="31.9" height="12.16"/>
	<rect x="110.05" y="310.22" class="st2" width="31.9" height="12.16"/>
	<rect x="194.54" y="310.22" class="st2" width="31.9" height="12.16"/>
</g>
</svg>
