<?xml version="1.0" encoding="utf-8"?>
<!-- Generator: Adobe Illustrator 19.1.0, SVG Export Plug-In . SVG Version: 6.00 Build 0)  -->
<svg version="1.1" id="Layer_1" xmlns="http://www.w3.org/2000/svg" xmlns:xlink="http://www.w3.org/1999/xlink" x="0px" y="0px"
	 viewBox="0 0 335.2 641.14" style="enable-background:new 0 0 335.2 641.14;" xml:space="preserve">
<style type="text/css">
	<![CDATA[
	@font-face{font-family:'codaheavy';src:url('/fonts/coda-heavy-webfont.woff') format('woff')}
	text{font-family:Impact,codaheavy,sans-serif}
	.Colour1.fill{fill:#002D1D;}
	.Colour2.fill{fill:#2B6432;}
	.Colour3.fill{fill:#D2CB28;}
	.SidePanels.fill{fill:#030505;stroke:#000000;stroke-miterlimit:10;}
	.NeckAndArmTrim.fill{fill:#030505;stroke:#000000;stroke-miterlimit:10;}
	.st0{fill:none;stroke:#000000;stroke-miterlimit:10;}
	.st1{fill:#FFFFFF;stroke:#000000;}
	]]>
</style>
<path class="Colour1 fill" d="M227.31,0.64C241.15,4.39,255,8.15,268.84,11.9c-0.2,6.14-2.97,100.54,9.52,132.5
	c2.79,7.15,9.01,23.07,20.77,25.11c2.22,0.39,4.1,0.18,5.19,0c-3.61,8.68-8.5,21.45-12.98,37.24
	c-18.44,64.98-12.74,120.16,2.6,210.44c10.91,64.19,24.26,131.88,40.67,202.64c-41.5,10.5-96.29,20.21-160.94,20.78
	c-70.25,0.63-129.39-9.74-173.06-20.78c1.82-7.41,42.42-174.1,50.19-288.38c3.36-49.48,0.53-88.5-10.38-128.17
	c-3.93-14.29-8.14-25.88-11.25-33.77c1.64,0.06,4.12-0.01,6.92-0.87c22.03-6.74,26.74-50.65,28.55-67.55
	c0.79-7.32,0.82-28.94,0.87-71.88c0.01-7.31,0-13.33,0-17.32c13.27-3.75,26.54-7.51,39.8-11.26c2.1,17.92,9.02,53.2,36.34,84
	c8.08,9.11,16.48,16.18,24.23,21.65c7.76-5.51,16.14-12.59,24.23-21.65C217.48,53.95,224.92,18.92,227.31,0.64z"/>
<path class="st0" d="M98.68,2.52c1.6,14.4,6.57,41.34,24.8,69.14c14.38,21.94,31.28,35.65,42.4,43.3
	c11.12-7.31,27.93-20.4,42.4-41.57c19.45-28.45,24.43-56.49,25.95-70.87"/>
<path class="st0" d="M72.2,10c-0.17,8.92-0.45,24.98-0.65,45.2c-0.34,36.39-0.09,54.11-6.06,77.94
	c-5.05,20.17-11.57,32.76-23.36,38.97c-4,2.1-7.74,3.02-10.38,3.46"/>
<path class="st0" d="M262.79,10.17c-0.25,7.45-2.8,92.24,8.76,131.32c2.66,9,8.04,27.19,22.39,32.36c3.28,1.18,6.21,1.39,8.06,1.4"
	/>
<path class="st0" d="M107.62,15.04c8.95,5.25,30.13,16.06,59.12,15.91c28.27-0.15,48.92-10.65,57.87-15.91"/>
<path class="st0" d="M109.45,23c10.2,4.99,29.77,12.92,55.56,13.15c27.06,0.24,47.57-8.11,57.87-13.15"/>
<path class="Colour2 fill" d="M87.86,297.31l-6.85-8c40.17-34.45,84.32-46.91,114.29-51.3c32.49-4.75,55.29-1.39,56.24-1.25l-1.58,10.42
	C249.08,247.05,160.95,234.63,87.86,297.31z M269.75,89L41.6,207.84c0.52,2,1.02,4.01,1.5,6.01L270.18,95.57
	C270.02,93.39,269.88,91.2,269.75,89z M292.14,406.46c-0.48-2.88-0.95-5.73-1.4-8.55L12.9,622.82c3.05,0.71,6.17,1.42,9.35,2.11
	L292.14,406.46z M299.54,449.14L116,597.7l11.35,14.05l175.87-142.36C301.97,462.6,300.74,455.86,299.54,449.14z M308.31,496.18
	c-0.54-2.79-1.09-5.59-1.62-8.37L119.96,638.96c3.66,0.26,7.37,0.49,11.11,0.69L308.31,496.18z M61.46,123.88
	c-0.05,0.25-0.1,0.51-0.15,0.76c-0.22,1.15-0.45,2.3-0.7,3.46l81.81-42.61c-0.26-0.29-0.52-0.56-0.78-0.85
	c-1.13-1.27-2.21-2.55-3.26-3.83l-76.32,39.76C61.87,121.66,61.67,122.77,61.46,123.88z M268.65,19.74
	c0.04-2.13,0.08-3.88,0.12-5.22c0-0.16,0.01-0.32,0.01-0.47c0-0.02,0-0.03,0-0.05c0.01-0.44,0.02-0.82,0.03-1.14l-51.37,26.76
	c-1.11,2.86-2.33,5.76-3.68,8.71L268.65,19.74z"/>
<path class="Colour3 fill" d="M87,386.27l-5.14-5.5c0.65-0.61,16.17-14.99,44.57-28.42c26.15-12.37,68.57-26.13,122.21-21.52l-0.64,7.5
	C148.77,329.77,87.61,385.7,87,386.27z"/>
<path class="Colour3 fill" d="M92.18,313.86l-5.39-5.26c32.01-32.86,75.06-46.12,105.54-51.46c32.9-5.76,57.94-3.84,58.99-3.76l-0.6,7.5
	C249.73,260.81,150.82,253.67,92.18,313.86z"/>
<path class="Colour3 fill" d="M87.49,269.23l-6.11-4.39c35.2-49.15,82.59-70.15,116.14-79.11c36.32-9.7,63.97-7.83,65.13-7.74l-0.55,7.51
	c-0.27-0.02-27.76-1.86-62.91,7.58C166.91,201.74,121.33,221.98,87.49,269.23z"/>
<path class="Colour3 fill" d="M192.19,640.17c6.91-0.25,13.71-0.6,20.37-1.04l107.08-87.06c-0.93-4.42-1.87-8.86-2.78-13.26
	L192.19,640.17z"/>
<path class="Colour3 fill" d="M38.34,433.7c-1.06,6.57-2.15,13.12-3.26,19.63l98.26,186.44c4.58,0.23,9.21,0.42,13.9,0.56L38.34,433.7z"
	/>
<path class="Colour3 fill" d="M79.75,634.94c4.76,0.62,9.59,1.2,14.52,1.74l-68.88-130.7c-1.25,6.4-2.5,12.65-3.73,18.73L79.75,634.94z"
	/>
<path class="Colour3 fill" d="M196.44,532.46L61.18,632.26c3.31,0.52,6.68,1.03,10.09,1.52L196.44,532.46z"/>
<path class="Colour3 fill" d="M312.85,624.94c-1.63,0.36-3.27,0.71-4.93,1.06C309.58,625.65,311.22,625.3,312.85,624.94z"/>
<path class="Colour3 fill" d="M303.79,626.86c-1.59,0.33-3.2,0.65-4.82,0.97C300.59,627.51,302.19,627.18,303.79,626.86z"/>
<path class="Colour3 fill" d="M321.7,622.95c-1.71,0.4-3.44,0.8-5.19,1.19C318.26,623.74,319.98,623.35,321.7,622.95z"/>
<path class="Colour3 fill" d="M270.14,511.91c-10.71-55.98-20.2-105.61-21.63-163.46c-1.12-45.5,2.31-113.45,26.31-195.91l0.17-0.72
	c3.36,8.53,8.87,18.11,18.47,21.82c0.6-1.82,1.22-3.62,1.82-5.38c-9.29-4.38-14.44-17.54-16.91-23.87
	c-1.22-3.13-2.29-6.85-3.24-11.03c-1.48-2.69-2.74-5.46-3.79-8.14l-0.19,0.8c-26.68,91.67-30.5,167.21-29.25,217.79
	c1.59,64.31,12.14,119.48,24.05,181.71c6.54,34.21,16.86,77.33,23.48,104.11c2.55-0.46,5.06-0.94,7.54-1.42
	C296.79,627.57,279.33,559.98,270.14,511.91z"/>
<path class="Colour3 fill" d="M330.19,620.92c-1.78,0.44-3.58,0.88-5.41,1.31C326.61,621.79,328.41,621.36,330.19,620.92z"/>
<path class="Colour3 fill" d="M20.23,624.94c1.63,0.36,3.27,0.71,4.93,1.06C23.49,625.65,21.86,625.3,20.23,624.94z"/>
<path class="Colour3 fill" d="M29.29,626.86c1.59,0.33,3.2,0.65,4.82,0.97C32.49,627.51,30.89,627.18,29.29,626.86z"/>
<path class="Colour3 fill" d="M11.38,622.95c1.71,0.4,3.44,0.8,5.19,1.19C14.82,623.74,13.1,623.35,11.38,622.95z"/>
<path class="Colour3 fill" d="M62.94,511.91c10.71-55.98,20.2-105.61,21.63-163.46c1.12-45.5-2.31-113.45-26.31-195.91l-0.17-0.72
	c-3.36,8.53-8.87,18.11-18.47,21.82c-0.6-1.82-1.22-3.62-1.82-5.38c9.29-4.38,16.03-15.84,18.5-22.16
	c1.22-3.13,2.29-6.85,3.24-11.03c1.48-2.69,1.15-7.17,2.2-9.85l0.19,0.8c26.68,91.67,30.5,167.21,29.25,217.79
	C89.6,408.12,79.04,463.3,67.14,525.53c-6.54,34.21-16.86,77.33-23.48,104.11c-2.55-0.46-5.06-0.94-7.54-1.42
	C36.29,627.57,53.74,559.98,62.94,511.91z"/>
<path class="Colour3 fill" d="M2.89,620.92c1.78,0.44,3.58,0.88,5.41,1.31C6.46,621.79,4.67,621.36,2.89,620.92z"/>
<path class="SidePanels fill" d="M301.69,175.24c-1.86-0.03-4.66-0.28-7.76-1.4c-9.9-3.57-15.54-13.35-18.95-22.02l-0.17,0.72
	c-24,82.46-27.43,150.41-26.31,195.91c1.43,57.85,10.92,107.48,21.63,163.46c9.24,48.29,26.82,116.31,26.82,116.31
	c13.53-2.62,26.1-5.48,37.64-8.4c-16.41-70.76-29.76-138.45-40.67-202.64c-15.34-90.28-21.04-145.46-2.6-210.44
	c3.56-12.53,10.64-31.46,10.66-31.51L301.69,175.24z"/>
<path class="SidePanels fill" d="M31.75,175.57c2.64-0.44,6.39-1.36,10.38-3.46c8.11-4.27,13.72-11.55,18.08-22.25l0.18,0.72
	c26.13,99.18,26.19,177.12,21.97,227.82c-3.4,40.79-11.35,85.45-16.44,114.03c-9.91,55.65-29.5,135.44-29.5,135.44
	c-12.88-2.53-24.84-5.26-35.83-8.04c1.82-7.41,42.42-174.1,50.19-288.38c3.36-49.48,0.53-88.5-10.38-128.17
	c-3.02-10.98-6.21-20.37-8.93-27.71L31.75,175.57z"/>
<path class="NeckAndArmTrim fill" d="M107.62,15.04c8.95,5.25,30.13,16.06,59.12,15.91c28.27-0.15,48.92-10.65,57.87-15.91L222.88,23
	c-10.3,5.04-30.81,13.39-57.87,13.15c-25.78-0.23-45.36-8.16-55.56-13.15L107.62,15.04z M31.75,175.57
	c2.64-0.44,6.39-1.36,10.38-3.46c11.79-6.21,18.31-18.8,23.36-38.97c5.97-23.83,5.71-41.55,6.06-77.94
	c0.19-20.21,0.47-36.27,0.65-45.2l-6.7,1.9c0,3.99,0.01,10.01,0,17.32c-0.04,42.94-0.08,64.56-0.87,71.88
	c-1.81,16.9-6.52,60.81-28.55,67.55c-2.8,0.86-5.28,0.93-6.92,0.87L31.75,175.57z M304.32,169.51c-1.09,0.18-2.97,0.39-5.19,0
	c-11.75-2.04-17.97-17.96-20.77-25.11c-12.49-31.96-9.72-126.36-9.52-132.5l-6.06-1.73c-0.25,7.45-2.8,92.24,8.76,131.32
	c2.66,9,8.04,27.19,22.39,32.36c3.28,1.18,6.21,1.39,8.06,1.4L304.32,169.51z M227.31,0.64c-2.39,18.27-9.83,53.31-37.21,84
	c-8.08,9.06-16.47,16.14-24.23,21.65c-7.75-5.47-16.15-12.54-24.23-21.65c-27.32-30.8-34.24-66.08-36.34-84l-6.63,1.87
	c1.6,14.4,6.57,41.34,24.8,69.14c14.38,21.94,31.28,35.65,42.4,43.3c11.12-7.31,27.93-20.4,42.4-41.57
	c19.45-28.45,24.43-56.49,25.95-70.87L227.31,0.64z"/>
<g id="FBodyLogos"></g>
<g>
	<rect x="109.2" y="215.15" class="st1" width="32.02" height="12.12"/>
	<rect x="194" y="215.15" class="st1" width="32.02" height="12.12"/>
	<rect x="194.08" y="322.45" class="st1" width="32.02" height="12.12"/>
	<rect x="109.28" y="322.45" class="st1" width="32.02" height="12.12"/>
	<rect x="109.28" y="310.32" class="st1" width="32.02" height="12.12"/>
	<rect x="194" y="310.32" class="st1" width="32.02" height="12.12"/>
</g>
</svg>
