<?xml version="1.0" encoding="utf-8"?>
<!-- Generator: Adobe Illustrator 19.1.0, SVG Export Plug-In . SVG Version: 6.00 Build 0)  -->
<svg version="1.1" id="Layer_1" xmlns="http://www.w3.org/2000/svg" xmlns:xlink="http://www.w3.org/1999/xlink" x="0px" y="0px"
	 viewBox="0 0 335.2 641.14" style="enable-background:new 0 0 335.2 641.14;" xml:space="preserve">
<style type="text/css">
	<![CDATA[
	@font-face{font-family:'codaheavy';src:url('/fonts/coda-heavy-webfont.woff') format('woff')}
	text{font-family:Impact,codaheavy,sans-serif}
	.Colour1.fill{fill:#E27225;}
	.Colour2.fill{fill:#154A93;}
	.NeckAndArmTrim.fill{fill:#154A93;stroke:#000000;stroke-miterlimit:10;}
	.SidePanels.fill{fill:#E27225;stroke:#000000;stroke-miterlimit:10;}
	.st0{fill:none;stroke:#000000;stroke-miterlimit:10;}
	.st1{fill:#FFFFFF;stroke:#000000;}
	.st2{fill:none;stroke:#000000;stroke-linecap:round;stroke-linejoin:round;}
	]]>
</style>
<path class="Colour1 fill" d="M0.6,620.69c43.67,11.08,102.8,21.48,173.06,20.85c64.65-0.58,119.45-10.32,160.94-20.85
	c-16.41-70.98-29.76-138.88-40.67-203.28c-15.34-90.56-21.04-145.91-2.6-211.1c4.48-15.84,9.37-28.64,12.98-37.35
	c-1.09,0.18-2.97,0.39-5.19,0c-11.75-2.05-17.97-18.02-20.77-25.19c-12.48-32.06-9.72-126.75-9.52-132.91
	c-13.84-3.76-27.69-7.53-41.53-11.29c-2.39,18.33-9.83,53.47-37.21,84.26c-8.08,9.09-16.47,16.19-24.23,21.72
	c-7.75-5.49-16.15-12.58-24.23-21.72c-27.32-30.9-34.24-66.28-36.34-84.26C92.03,3.33,78.77,7.1,65.5,10.86c0,4,0.01,10.04,0,17.37
	c-0.04,43.07-0.08,64.76-0.87,72.1c-1.81,16.96-6.52,61-28.55,67.76c-2.8,0.86-5.28,0.93-6.92,0.87c3.1,7.92,7.32,19.54,11.25,33.88
	c10.91,39.79,13.75,78.93,10.38,128.57C43.02,446.06,2.42,613.27,0.6,620.69z"/>
<rect x="84.2" y="198.96" transform="matrix(-0.7059 -0.7083 0.7083 -0.7059 2.8549 399.3964)" class="Colour2 fill" width="0.29" height="0.29"/>
<polygon class="Colour2 fill" points="84.35,173.77 83.64,174.49 84.35,175.21 85.06,174.49 "/>
<polygon class="Colour2 fill" points="59.83,148.95 58.91,149.87 59.83,150.8 60.75,149.87 "/>
<rect x="59.61" y="174.27" transform="matrix(-0.7054 -0.7088 0.7088 -0.7054 -21.6463 339.9825)" class="Colour2 fill" width="0.43" height="0.43"/>
<polygon class="Colour2 fill" points="84.35,148.34 82.82,149.87 84.35,151.41 85.88,149.87 "/>
<polygon class="Colour2 fill" points="84.35,71.01 79.35,76.03 84.35,81.04 89.35,76.03 "/>
<polygon class="Colour2 fill" points="84.35,44.86 77.82,51.41 84.35,57.96 90.88,51.41 "/>
<polygon class="Colour2 fill" points="84.35,122.8 81.9,125.26 84.35,127.72 86.8,125.26 "/>
<polygon class="Colour2 fill" points="84.35,96.96 80.68,100.64 84.35,104.33 88.02,100.64 "/>
<rect x="35.24" y="174.42" transform="matrix(-0.7063 -0.7079 0.7079 -0.7063 -63.2608 322.7362)" class="Colour2 fill" width="0.14" height="0.14"/>
<polygon class="Colour2 fill" points="133.39,95.11 127.88,100.64 133.39,106.17 138.89,100.64 "/>
<polygon class="Colour2 fill" points="133.39,121.06 129.21,125.26 133.39,129.46 137.57,125.26 "/>
<polygon class="Colour2 fill" points="133.39,147.01 130.53,149.87 133.39,152.74 136.24,149.87 "/>
<rect x="133.17" y="223.5" transform="matrix(-0.7054 -0.7088 0.7088 -0.7054 68.9008 476.0802)" class="Colour2 fill" width="0.43" height="0.43"/>
<polygon class="Colour2 fill" points="133.39,172.65 131.55,174.49 133.39,176.33 135.22,174.49 "/>
<polygon class="Colour2 fill" points="84.35,18.5 76.09,26.79 84.35,35.09 92.61,26.79 "/>
<polygon class="Colour2 fill" points="231.46,143.22 224.83,149.87 231.46,156.53 238.09,149.87 "/>
<polygon class="Colour2 fill" points="231.46,221.16 228.91,223.72 231.46,226.28 234.01,223.72 "/>
<polygon class="Colour2 fill" points="231.46,246.8 229.93,248.34 231.46,249.87 232.99,248.34 "/>
<polygon class="Colour2 fill" points="231.46,90.61 221.47,100.64 231.46,110.68 241.46,100.64 "/>
<polygon class="Colour2 fill" points="231.46,272.24 230.75,272.95 231.46,273.67 232.18,272.95 "/>
<rect x="231.32" y="297.42" transform="matrix(-0.7062 -0.708 0.708 -0.7062 184.2345 671.5905)" class="Colour2 fill" width="0.29" height="0.29"/>
<polygon class="Colour2 fill" points="231.46,116.96 223.2,125.26 231.46,133.55 239.72,125.26 "/>
<polygon class="Colour2 fill" points="133.39,198.18 132.47,199.11 133.39,200.03 134.31,199.11 "/>
<polygon class="Colour2 fill" points="231.46,195.42 227.79,199.11 231.46,202.79 235.14,199.11 "/>
<polygon class="Colour2 fill" points="231.46,169.37 226.36,174.49 231.46,179.61 236.56,174.49 "/>
<path class="Colour2 fill" d="M61.16,124.75c-0.08,0.42-0.17,0.85-0.26,1.27l0.76-0.77L61.16,124.75z"/>
<path class="Colour2 fill" d="M65.5,25.32c0,0.95,0,1.92,0,2.92c0,0.01,0,0.02,0,0.03l1.47-1.48L65.5,25.32z"/>
<path class="Colour2 fill" d="M84.35,12.21l9.3-9.34c-4.83,1.37-9.67,2.74-14.5,4.11L84.35,12.21z"/>
<polygon class="Colour2 fill" points="108.87,147.72 106.73,149.87 108.87,152.02 111.01,149.87 "/>
<polygon class="Colour2 fill" points="108.87,121.98 105.6,125.26 108.87,128.53 112.13,125.26 "/>
<polygon class="Colour2 fill" points="108.87,173.26 107.64,174.49 108.87,175.72 110.09,174.49 "/>
<rect x="108.8" y="223.65" transform="matrix(-0.706 -0.7082 0.7082 -0.706 27.2977 458.7742)" class="Colour2 fill" width="0.14" height="0.14"/>
<polygon class="Colour2 fill" points="206.94,247.42 206.03,248.34 206.94,249.26 207.86,248.34 "/>
<polygon class="Colour2 fill" points="108.87,43.73 101.22,51.41 108.87,59.09 116.52,51.41 "/>
<path class="Colour2 fill" d="M107.19,11.86c-0.89-4.64-1.48-8.79-1.89-12.28c-2.39,0.68-4.79,1.36-7.19,2.04l-0.57,0.57L107.19,11.86z"
	/>
<path class="Colour2 fill" d="M217.65,76.03l-10.71-10.75l-9.36,9.4c-0.38,0.51-0.78,1.02-1.17,1.52l10.53,10.57L217.65,76.03z"/>
<polygon class="Colour2 fill" points="108.87,96.03 104.28,100.64 108.87,105.25 113.46,100.64 "/>
<polygon class="Colour2 fill" points="108.87,69.99 102.85,76.03 108.87,82.07 114.89,76.03 "/>
<rect x="108.51" y="198.74" transform="matrix(0.7058 -0.7084 0.7084 0.7058 -109.0217 135.7085)" class="Colour2 fill" width="0.72" height="0.72"/>
<path class="Colour2 fill" d="M227.31-0.43c-0.54,4.11-1.33,9.06-2.54,14.62l1.47,1.47l-2.35,2.36c-1.03,4.28-2.31,8.85-3.91,13.62
	l8.55,8.58l-10.04,10.08l-4.16-4.17c-2.44,5.46-5.32,11.05-8.71,16.65l1.32,1.33l11.55-11.59l12.23,12.28l-11.19,11.23l11.93,11.98
	l11.55-11.59l12.89,12.94l-11.24,11.28l11.32,11.37l11.32-11.37l-11.24-11.28l11.47-11.51l1.77,1.77c-0.11-2.31-0.2-4.61-0.28-6.9
	l-1.48,1.49l-9.32-9.36l9.27-9.31l1.11,1.12c-0.06-3.57-0.1-7.03-0.12-10.36l-0.99,0.99l-7.03-7.06l6.98-7.01l1.03,1.03
	c0.03-5.99,0.1-11.14,0.18-15.11l-1.21,1.21l-4.63-4.65l4.63-4.65l1.37,1.37c0.02-0.73,0.04-1.27,0.05-1.57
	C254.99,7.1,241.15,3.33,227.31-0.43z M242.96,54l10.8,10.84l-10.75,10.79l-10.8-10.84L242.96,54z M242.96,48.82l-8.56-8.59
	l8.56-8.59l8.56,8.59L242.96,48.82z M242.96,21.95l-6.26-6.29l6.21-6.24l6.26,6.29L242.96,21.95z"/>
<rect x="255.62" y="297.21" transform="matrix(0.7058 -0.7084 0.7084 0.7058 -135.4923 268.8998)" class="Colour2 fill" width="0.72" height="0.72"/>
<polygon class="Colour2 fill" points="206.94,91.73 198.07,100.64 206.94,109.55 215.82,100.64 "/>
<rect x="157.76" y="248.19" transform="matrix(-0.7063 -0.7079 0.7079 -0.7063 93.6543 535.5265)" class="Colour2 fill" width="0.29" height="0.29"/>
<polygon class="Colour2 fill" points="182.43,92.96 174.78,100.64 182.43,108.32 190.07,100.64 "/>
<polygon class="Colour2 fill" points="182.43,171.21 179.16,174.49 182.43,177.77 185.69,174.49 "/>
<polygon class="Colour2 fill" points="182.43,119.22 176.41,125.26 182.43,131.3 188.44,125.26 "/>
<polygon class="Colour2 fill" points="182.43,145.27 177.84,149.87 182.43,154.48 187.02,149.87 "/>
<polygon class="Colour2 fill" points="157.91,223 157.19,223.72 157.91,224.44 158.62,223.72 "/>
<polygon class="Colour2 fill" points="157.91,197.57 156.38,199.11 157.91,200.64 159.44,199.11 "/>
<polygon class="Colour2 fill" points="157.91,146.19 154.24,149.87 157.91,153.56 161.58,149.87 "/>
<polygon class="Colour2 fill" points="157.91,120.14 152.81,125.26 157.91,130.38 163.01,125.26 "/>
<polygon class="Colour2 fill" points="157.91,172.03 155.46,174.49 157.91,176.95 160.35,174.49 "/>
<rect x="182.35" y="272.88" transform="matrix(-0.7054 -0.7088 0.7088 -0.7054 117.6334 594.7985)" class="Colour2 fill" width="0.14" height="0.14"/>
<polygon class="Colour2 fill" points="206.94,144.24 201.34,149.87 206.94,155.51 212.55,149.87 "/>
<polygon class="Colour2 fill" points="206.94,170.29 202.76,174.49 206.94,178.69 211.13,174.49 "/>
<polygon class="Colour2 fill" points="206.94,196.24 204.09,199.11 206.94,201.97 209.8,199.11 "/>
<polygon class="Colour2 fill" points="182.43,196.96 180.28,199.11 182.43,201.26 184.57,199.11 "/>
<polygon class="Colour2 fill" points="206.94,118.09 199.81,125.26 206.94,132.43 214.08,125.26 "/>
<polygon class="Colour2 fill" points="206.94,221.88 205.11,223.72 206.94,225.56 208.78,223.72 "/>
<polygon class="Colour2 fill" points="182.43,222.49 181.2,223.72 182.43,224.95 183.65,223.72 "/>
<path class="Colour2 fill" d="M157.91,107.19l4.31-4.33c-2.37-1.8-4.79-3.75-7.23-5.85l-3.61,3.63L157.91,107.19z"/>
<rect x="206.73" y="272.74" transform="matrix(-0.7052 -0.709 0.709 -0.7052 159.3459 612.1638)" class="Colour2 fill" width="0.43" height="0.43"/>
<rect x="182.06" y="247.98" transform="matrix(0.7056 -0.7086 0.7086 0.7056 -122.2693 202.3864)" class="Colour2 fill" width="0.72" height="0.72"/>
<polygon class="Colour2 fill" points="255.98,168.35 249.86,174.49 255.98,180.63 262.1,174.49 "/>
<path class="Colour2 fill" d="M279.85,297.3l-0.27,0.27l0.28,0.28C279.86,297.67,279.85,297.48,279.85,297.3z"/>
<path class="Colour2 fill" d="M280.33,271.29l-1.66,1.67l1.5,1.51C280.22,273.4,280.26,272.34,280.33,271.29z"/>
<path class="Colour2 fill" d="M282.4,249.29c0.07-0.56,0.15-1.13,0.22-1.69l-2.13-2.14l-2.86,2.87l2.86,2.87L282.4,249.29z"/>
<polygon class="Colour2 fill" points="284.68,223.72 280.5,219.52 276.32,223.72 280.5,227.92 "/>
<polygon class="Colour2 fill" points="287.64,174.49 280.5,167.32 273.36,174.49 280.5,181.66 "/>
<polygon class="Colour2 fill" points="255.98,115.84 246.6,125.26 255.98,134.68 265.37,125.26 "/>
<polygon class="Colour2 fill" points="255.98,142.19 248.33,149.87 255.98,157.55 263.63,149.87 "/>
<polygon class="Colour2 fill" points="286.11,199.11 280.5,193.47 274.89,199.11 280.5,204.74 "/>
<polygon class="Colour2 fill" points="255.98,194.5 251.39,199.11 255.98,203.71 260.57,199.11 "/>
<polygon class="Colour2 fill" points="255.98,246.19 253.84,248.34 255.98,250.49 258.12,248.34 "/>
<polygon class="Colour2 fill" points="255.98,271.72 254.76,272.95 255.98,274.18 257.21,272.95 "/>
<polygon class="Colour2 fill" points="255.98,220.45 252.72,223.72 255.98,227 259.25,223.72 "/>
<path class="Colour2 fill" d="M302.05,169.18l-5.29,5.31l3.83,3.85c1.33-3.5,2.59-6.64,3.72-9.37
	C303.75,169.06,302.97,169.16,302.05,169.18z"/>
<rect x="280.29" y="321.97" transform="matrix(-0.7054 0.7088 -0.7088 -0.7054 706.7362 350.6267)" class="Colour2 fill" width="0.43" height="0.43"/>
<rect x="255.91" y="322.11" transform="matrix(-0.7063 -0.7079 0.7079 -0.7063 208.732 730.9608)" class="Colour2 fill" width="0.14" height="0.14"/>
<path class="Colour2 fill" d="M99.49,26.79l9.38,9.42l3.66-3.68c-1.71-5.19-3.05-10.14-4.09-14.73L99.49,26.79z"/>
<path class="Colour2 fill" d="M133.39,83.19l4.18-4.2c-2.18-2.71-4.22-5.44-6.12-8.19l-5.2,5.22L133.39,83.19z"/>
<path class="Colour2 fill" d="M274.54,130.03c-0.52-2.56-1-5.26-1.44-8.09l-3.31,3.32L274.54,130.03z"/>
<path class="Colour2 fill" d="M267.86,100.64l3.05,3.06c-0.17-1.86-0.33-3.74-0.48-5.64L267.86,100.64z"/>
<path class="Colour2 fill" d="M278.18,143.3l-6.55,6.58l8.87,8.91l3.22-3.23c-2.47-4.36-4.21-8.81-5.37-11.77
	C278.3,143.62,278.24,143.45,278.18,143.3z"/>
<rect x="200.37" y="500.61" transform="matrix(-0.7061 0.7081 -0.7081 -0.7061 697.212 712.56)" class="Colour2 fill" width="0.72" height="0.72"/>
<polygon class="Colour2 fill" points="200.73,526.81 201.95,525.59 200.73,524.36 199.51,525.59 "/>
<polygon class="Colour2 fill" points="200.73,552.35 202.87,550.2 200.73,548.05 198.59,550.2 "/>
<rect x="200.66" y="476.28" transform="matrix(0.7054 0.7088 -0.7088 0.7054 396.7849 -1.9442)" class="Colour2 fill" width="0.14" height="0.14"/>
<polygon class="Colour2 fill" points="225.25,551.74 226.78,550.2 225.25,548.67 223.72,550.2 "/>
<polygon class="Colour2 fill" points="200.73,604.04 205.32,599.43 200.73,594.83 196.14,599.43 "/>
<polygon class="Colour2 fill" points="200.73,630.09 206.75,624.05 200.73,618.01 194.71,624.05 "/>
<polygon class="Colour2 fill" points="200.73,578.09 203.99,574.82 200.73,571.54 197.47,574.82 "/>
<polygon class="Colour2 fill" points="225.25,577.27 227.7,574.82 225.25,572.36 222.8,574.82 "/>
<polygon class="Colour2 fill" points="225.25,526.3 225.96,525.59 225.25,524.87 224.54,525.59 "/>
<path class="Colour2 fill" d="M34.71,500.97l-5.61-5.63l-1.93,1.94c-0.4,2.08-0.79,4.14-1.19,6.19l3.12,3.14L34.71,500.97z"/>
<path class="Colour2 fill" d="M151.69,638.63l-2.67,2.68c1.82,0.05,3.64,0.1,5.47,0.13L151.69,638.63z"/>
<polygon class="Colour2 fill" points="176.21,501.89 177.13,500.97 176.21,500.05 175.29,500.97 "/>
<polygon class="Colour2 fill" points="159.95,624.05 151.69,615.76 143.43,624.05 151.69,632.34 "/>
<polygon class="Colour2 fill" points="145.17,599.43 151.69,605.99 158.22,599.43 151.69,592.88 "/>
<polygon class="Colour2 fill" points="176.21,553.07 179.07,550.2 176.21,547.33 173.36,550.2 "/>
<polygon class="Colour2 fill" points="176.21,604.96 181.72,599.43 176.21,593.9 170.7,599.43 "/>
<polygon class="Colour2 fill" points="176.21,631.22 183.35,624.05 176.21,616.88 169.07,624.05 "/>
<path class="Colour2 fill" d="M176.21,639.86l-1.66,1.67c1.1-0.01,2.17-0.04,3.26-0.06L176.21,639.86z"/>
<polygon class="Colour2 fill" points="176.21,527.43 178.05,525.59 176.21,523.74 174.38,525.59 "/>
<polygon class="Colour2 fill" points="176.21,579.02 180.39,574.82 176.21,570.62 172.03,574.82 "/>
<rect x="225.11" y="500.83" transform="matrix(0.7049 0.7093 -0.7093 0.7049 421.8039 -11.9385)" class="Colour2 fill" width="0.29" height="0.29"/>
<polygon class="Colour2 fill" points="225.25,629.07 230.25,624.05 225.25,619.03 220.25,624.05 "/>
<polygon class="Colour2 fill" points="249.77,628.14 253.85,624.05 249.77,619.95 245.69,624.05 "/>
<polygon class="Colour2 fill" points="225.25,603.12 228.92,599.43 225.25,595.75 221.58,599.43 "/>
<rect x="298.66" y="550.06" transform="matrix(0.7046 0.7096 -0.7096 0.7046 478.6995 -49.5033)" class="Colour2 fill" width="0.29" height="0.29"/>
<polygon class="Colour2 fill" points="298.81,575.53 299.52,574.82 298.81,574.1 298.09,574.82 "/>
<polygon class="Colour2 fill" points="249.77,551.12 250.69,550.2 249.77,549.28 248.85,550.2 "/>
<polygon class="Colour2 fill" points="249.77,602.3 252.62,599.43 249.77,596.57 246.91,599.43 "/>
<rect x="249.55" y="525.37" transform="matrix(0.7063 0.7079 -0.7079 0.7063 445.3887 -22.4635)" class="Colour2 fill" width="0.43" height="0.43"/>
<polygon class="Colour2 fill" points="298.81,600.97 300.34,599.43 298.81,597.9 297.28,599.43 "/>
<polygon class="Colour2 fill" points="249.77,576.66 251.6,574.82 249.77,572.97 247.93,574.82 "/>
<polygon class="Colour2 fill" points="274.29,576.05 275.51,574.82 274.29,573.59 273.06,574.82 "/>
<polygon class="Colour2 fill" points="151.69,579.94 156.79,574.82 151.69,569.7 146.59,574.82 "/>
<polygon class="Colour2 fill" points="274.29,627.33 277.55,624.05 274.29,620.77 271.02,624.05 "/>
<polygon class="Colour2 fill" points="298.81,626.51 301.26,624.05 298.81,621.59 296.36,624.05 "/>
<rect x="274.22" y="525.51" transform="matrix(0.7063 0.7079 -0.7079 0.7063 452.5887 -39.8197)" class="Colour2 fill" width="0.14" height="0.14"/>
<rect x="273.93" y="549.84" transform="matrix(-0.7063 0.7079 -0.7079 -0.7063 857.5163 744.6243)" class="Colour2 fill" width="0.72" height="0.72"/>
<polygon class="Colour2 fill" points="274.29,601.58 276.43,599.43 274.29,597.28 272.15,599.43 "/>
<path class="Colour2 fill" d="M321.72,623.82c0.87-0.2,1.74-0.41,2.6-0.61l-1-1L321.72,623.82z"/>
<polygon class="Colour2 fill" points="322.41,599.43 323.33,600.35 324.24,599.43 323.33,598.51 "/>
<path class="Colour2 fill" d="M16.61,574.82l-4.46-4.48c-0.88,4.03-1.73,7.87-2.55,11.51L16.61,574.82z"/>
<rect x="323.11" y="574.6" transform="matrix(0.7062 0.708 -0.708 0.7062 501.9336 -60.0483)" class="Colour2 fill" width="0.43" height="0.43"/>
<rect x="176" y="476.14" transform="matrix(0.7059 0.7083 -0.7083 0.7059 389.2161 15.2754)" class="Colour2 fill" width="0.43" height="0.43"/>
<polygon class="Colour2 fill" points="78.14,453.27 79.67,451.74 78.14,450.2 76.61,451.74 "/>
<polygon class="Colour2 fill" points="78.14,504.66 81.81,500.97 78.14,497.28 74.46,500.97 "/>
<polygon class="Colour2 fill" points="78.14,478.91 80.69,476.35 78.14,473.79 75.59,476.35 "/>
<path class="Colour2 fill" d="M78.88,635.28l11.19-11.23l-11.93-11.98l-11.55,11.59L53.7,610.72l11.24-11.28l-11.32-11.36L42.3,599.43
	l11.24,11.28l-11.46,11.51l-11.52-11.56l11.19-11.23l-12.65-12.7l-11.55,11.59l-9.5-9.54c-4.14,18.33-7,30.06-7.45,31.91
	c11.64,2.95,24.39,5.86,38.14,8.52l3.33-3.34l4.85,4.87c3.74,0.68,7.55,1.33,11.43,1.96l8.24-8.27l10.8,10.84l-0.23,0.23
	c0.74,0.1,1.49,0.19,2.23,0.29L78.88,635.28z M7.52,610.62l10.04-10.08l10.09,10.13L17.6,620.74L7.52,610.62z"/>
<rect x="77.99" y="402.36" transform="matrix(0.7063 0.7079 -0.7079 0.7063 307.8647 62.8868)" class="Colour2 fill" width="0.29" height="0.29"/>
<polygon class="Colour2 fill" points="78.14,427.84 78.85,427.12 78.14,426.41 77.42,427.12 "/>
<polygon class="Colour2 fill" points="78.14,583.11 86.4,574.82 78.14,566.52 69.88,574.82 "/>
<polygon class="Colour2 fill" points="95.52,574.82 102.66,581.98 109.79,574.82 102.66,567.65 "/>
<polygon class="Colour2 fill" points="78.14,609.47 88.13,599.43 78.14,589.4 68.14,599.43 "/>
<polygon class="Colour2 fill" points="78.14,556.86 84.77,550.2 78.14,543.55 71.51,550.2 "/>
<polygon class="Colour2 fill" points="78.14,530.71 83.24,525.59 78.14,520.47 73.04,525.59 "/>
<polygon class="Colour2 fill" points="100.82,476.35 102.66,478.2 104.49,476.35 102.66,474.51 "/>
<polygon class="Colour2 fill" points="127.17,580.86 133.19,574.82 127.17,568.78 121.16,574.82 "/>
<polygon class="Colour2 fill" points="127.17,633.47 136.56,624.05 127.17,614.63 117.79,624.05 "/>
<polygon class="Colour2 fill" points="127.17,607.11 134.82,599.43 127.17,591.75 119.53,599.43 "/>
<polygon class="Colour2 fill" points="127.17,554.81 131.76,550.2 127.17,545.59 122.58,550.2 "/>
<polygon class="Colour2 fill" points="127.17,528.86 130.44,525.59 127.17,522.31 123.91,525.59 "/>
<polygon class="Colour2 fill" points="127.17,503.12 129.32,500.97 127.17,498.82 125.03,500.97 "/>
<polygon class="Colour2 fill" points="151.69,477.07 152.41,476.35 151.69,475.64 150.98,476.35 "/>
<polygon class="Colour2 fill" points="151.69,528.04 154.14,525.59 151.69,523.13 149.25,525.59 "/>
<polygon class="Colour2 fill" points="151.69,502.51 153.22,500.97 151.69,499.43 150.16,500.97 "/>
<rect x="151.55" y="451.59" transform="matrix(0.7051 0.7091 -0.7091 0.7051 365.0824 25.6593)" class="Colour2 fill" width="0.29" height="0.29"/>
<polygon class="Colour2 fill" points="99.8,500.97 102.66,503.84 105.51,500.97 102.66,498.1 "/>
<polygon class="Colour2 fill" points="93.78,599.43 102.66,608.34 111.53,599.43 102.66,590.53 "/>
<polygon class="Colour2 fill" points="102.66,452.66 103.57,451.74 102.66,450.82 101.74,451.74 "/>
<polygon class="Colour2 fill" points="127.17,477.58 128.4,476.35 127.17,475.13 125.95,476.35 "/>
<polygon class="Colour2 fill" points="97.05,550.2 102.66,555.83 108.26,550.2 102.66,544.57 "/>
<polygon class="Colour2 fill" points="98.47,525.59 102.66,529.78 106.84,525.59 102.66,521.39 "/>
<polygon class="Colour2 fill" points="151.69,553.89 155.36,550.2 151.69,546.52 148.02,550.2 "/>
<rect x="126.81" y="451.38" transform="matrix(-0.7062 0.708 -0.708 -0.7062 536.8138 680.7265)" class="Colour2 fill" width="0.72" height="0.72"/>
<rect x="102.44" y="426.91" transform="matrix(0.7062 0.708 -0.708 0.7062 332.5459 52.7934)" class="Colour2 fill" width="0.43" height="0.43"/>
<rect x="127.1" y="427.05" transform="matrix(0.7063 0.7079 -0.7079 0.7063 339.6896 35.403)" class="Colour2 fill" width="0.14" height="0.14"/>
<polygon class="Colour2 fill" points="113.36,624.05 102.66,613.3 91.95,624.05 102.66,634.8 "/>
<polygon class="Colour2 fill" points="53.62,453.89 55.76,451.74 53.62,449.59 51.48,451.74 "/>
<path class="Colour2 fill" d="M102.66,635.97l-2.25,2.26c1.65,0.16,3.31,0.33,4.98,0.48L102.66,635.97z"/>
<polygon class="Colour2 fill" points="50.35,476.35 53.62,479.63 56.88,476.35 53.62,473.08 "/>
<polygon class="Colour2 fill" points="63,574.82 53.62,565.4 44.23,574.82 53.62,584.24 "/>
<path class="Colour2 fill" d="M127.17,637.3l-2.87,2.88c2.02,0.13,4.06,0.25,6.1,0.36L127.17,637.3z"/>
<rect x="53.26" y="402.15" transform="matrix(-0.7056 0.7086 -0.7086 -0.7056 376.6754 648.5134)" class="Colour2 fill" width="0.72" height="0.72"/>
<path class="Colour2 fill" d="M33.28,476.35l-1.87-1.88c-0.28,1.53-0.56,3.07-0.84,4.59L33.28,476.35z"/>
<polygon class="Colour2 fill" points="20.23,550.2 29.1,559.11 37.97,550.2 29.1,541.29 "/>
<polygon class="Colour2 fill" points="39.81,574.82 29.1,564.07 18.39,574.82 29.1,585.57 "/>
<rect x="53.55" y="377.82" transform="matrix(0.7051 0.7091 -0.7091 0.7051 283.7882 73.4278)" class="Colour2 fill" width="0.14" height="0.14"/>
<polygon class="Colour2 fill" points="47.5,525.59 53.62,531.73 59.74,525.59 53.62,519.44 "/>
<polygon class="Colour2 fill" points="49.03,500.97 53.62,505.58 58.21,500.97 53.62,496.36 "/>
<polygon class="Colour2 fill" points="45.97,550.2 53.62,557.88 61.27,550.2 53.62,542.52 "/>
<polygon class="Colour2 fill" points="53.62,428.35 54.84,427.12 53.62,425.89 52.39,427.12 "/>
<polygon class="Colour2 fill" points="21.96,525.59 29.1,532.75 36.24,525.59 29.1,518.42 "/>
<path class="st0" d="M227.31-0.43c13.84,3.76,27.69,7.53,41.53,11.29c-0.2,6.16-2.97,100.85,9.52,132.91
	c2.79,7.17,9.01,23.15,20.77,25.19c2.22,0.39,4.1,0.18,5.19,0c-3.61,8.71-8.5,21.51-12.98,37.35
	c-18.44,65.18-12.74,120.54,2.6,211.1c10.91,64.39,24.26,132.3,40.67,203.28c-41.5,10.53-96.29,20.27-160.94,20.85
	c-70.25,0.63-129.39-9.77-173.06-20.85c1.82-7.43,42.42-174.64,50.19-289.28c3.36-49.63,0.53-88.77-10.38-128.57
	c-3.93-14.34-8.14-25.96-11.25-33.88c1.64,0.07,4.12-0.01,6.92-0.87c22.03-6.76,26.74-50.8,28.55-67.76
	c0.79-7.35,0.82-29.03,0.87-72.1c0.01-7.33,0-13.37,0-17.37C78.77,7.1,92.03,3.33,105.3-0.43c2.1,17.98,9.02,53.37,36.34,84.26
	c8.08,9.14,16.48,16.23,24.23,21.72c7.76-5.52,16.14-12.62,24.23-21.72C217.47,53.05,224.91,17.9,227.31-0.43z"/>
<path class="st0" d="M98.67,1.45c1.6,14.45,6.57,41.47,24.8,69.35c14.38,22.01,31.28,35.76,42.4,43.44
	c11.12-7.34,27.93-20.47,42.4-41.7C227.72,44,232.69,15.88,234.22,1.45"/>
<path class="st0" d="M72.2,8.96c-0.17,8.95-0.45,25.06-0.65,45.34c-0.34,36.5-0.09,54.28-6.06,78.18
	c-5.05,20.23-11.57,32.87-23.36,39.09c-4,2.11-7.74,3.03-10.38,3.47"/>
<path class="st0" d="M262.78,9.13c-0.25,7.48-2.8,92.53,8.76,131.73c2.66,9.02,8.04,27.27,22.39,32.46
	c3.28,1.18,6.21,1.39,8.06,1.41"/>
<path class="st0" d="M107.61,14.02c8.95,5.27,30.13,16.11,59.12,15.96c28.27-0.15,48.92-10.69,57.87-15.96"/>
<path class="st0" d="M109.45,22c10.2,5.01,29.77,12.96,55.56,13.19c27.06,0.24,47.57-8.13,57.87-13.19"/>
<g>
	<rect x="109.19" y="214.75" class="st1" width="32.02" height="12.16"/>
	<rect x="193.99" y="214.75" class="st1" width="32.02" height="12.16"/>
	<rect x="194.07" y="322.38" class="st1" width="32.02" height="12.16"/>
	<rect x="109.28" y="322.38" class="st1" width="32.02" height="12.16"/>
	<rect x="109.28" y="310.22" class="st1" width="32.02" height="12.16"/>
	<rect x="193.99" y="310.22" class="st1" width="32.02" height="12.16"/>
</g>
<path class="SidePanels fill" d="M301.69,174.71c-1.86-0.03-4.66-0.28-7.76-1.4c-9.9-3.58-15.54-13.39-18.95-22.09l-0.17,0.72
	c-24,82.72-27.43,150.88-26.31,196.53c1.43,58.03,10.92,107.82,21.63,163.97c9.24,48.44,26.82,116.68,26.82,116.68
	c13.53-2.63,26.1-5.5,37.64-8.42c-16.41-70.98-29.76-138.88-40.67-203.28c-15.34-90.56-21.04-145.91-2.6-211.1
	c3.56-12.57,10.64-31.55,10.66-31.6L301.69,174.71z"/>
<path class="SidePanels fill" d="M31.75,175.05c2.64-0.44,6.39-1.36,10.38-3.47c8.11-4.28,13.72-11.59,18.08-22.32l0.18,0.72
	c26.13,99.49,26.19,177.68,21.97,228.53c-3.4,40.92-11.35,85.72-16.44,114.38c-9.91,55.82-29.5,135.87-29.5,135.87
	c-12.88-2.54-24.84-5.28-35.83-8.07c1.82-7.43,42.42-174.64,50.19-289.28c3.36-49.63,0.53-88.77-10.38-128.57
	c-3.02-11.02-6.21-20.43-8.93-27.8L31.75,175.05z"/>
<path class="st2" d="M11.05,623.25c-0.69-0.16-1.38-0.32-2.06-0.49 M13.32,623.79c0.68,0.16,1.37,0.31,2.05,0.47 M6.68,622.2
	c0.77,0.19,1.53,0.38,2.31,0.56 M4.75,621.73c0.64,0.16,1.29,0.31,1.93,0.47 M17.75,624.81c0.67,0.15,1.36,0.3,2.04,0.45
	 M0.6,620.69c1.37,0.35,2.75,0.69,4.15,1.04 M36.43,628.76c-0.04-0.01-0.09-0.02-0.13-0.03 M32.45,177.73
	c-0.31-0.85-0.61-1.68-0.91-2.49 M22.26,625.81c0.71,0.16,1.44,0.31,2.16,0.47 M33.45,180.55c-0.27-0.78-0.55-1.55-0.81-2.3
	 M26.85,626.8c0.75,0.16,1.52,0.32,2.28,0.48 M31.53,627.78c0.78,0.16,1.56,0.31,2.35,0.47 M315.49,625.25
	c0.64-0.14,1.27-0.29,1.91-0.43 M11.05,623.25c0.76,0.18,1.51,0.36,2.28,0.54 M324.49,623.18c0.56-0.13,1.13-0.27,1.69-0.4
	 M320.01,624.22c0.61-0.14,1.23-0.28,1.84-0.42 M310.92,626.25c0.65-0.14,1.29-0.28,1.93-0.42 M306.27,627.24
	c0.65-0.14,1.29-0.27,1.93-0.41 M301.55,628.21c0.62-0.12,1.23-0.25,1.85-0.38 M34.61,183.9c-0.32-0.95-0.64-1.87-0.95-2.77
	 M19.78,625.26c0.82,0.18,1.64,0.37,2.47,0.55 M24.41,626.28c0.81,0.18,1.62,0.35,2.44,0.52 M15.37,624.26
	c0.79,0.18,1.57,0.36,2.37,0.55 M29.13,627.28c0.8,0.17,1.59,0.33,2.4,0.5 M33.88,628.25c0.81,0.16,1.61,0.33,2.42,0.49
	 M329.07,622.07c0.45-0.11,0.92-0.22,1.37-0.33 M12.31,569.65c0.05-0.25,0.11-0.5,0.16-0.75 M42.16,408.99
	c0.58-3.98,1.13-7.95,1.67-11.91 M43.84,397.07c0.4-2.97,0.8-5.93,1.18-8.88 M26.13,502.65c5.7-29.5,11.42-61.82,16.03-93.67
	 M23.46,516.26c0.89-4.46,1.78-9,2.67-13.61 M45.02,388.19c0.25-1.97,0.5-3.93,0.75-5.89 M45.76,382.31
	c0.24-1.96,0.48-3.91,0.71-5.85 M15.72,553.83c0.33-1.54,0.66-3.1,0.99-4.68 M20.3,531.93c1.04-5.09,2.1-10.32,3.16-15.67
	 M296.96,629.12c0.44-0.09,0.87-0.17,1.31-0.26 M10.6,577.39c0.17-0.77,0.34-1.55,0.52-2.34 M50.95,263.44
	c-0.2-2.49-0.42-4.97-0.67-7.43 M16.72,549.15c0.33-1.58,0.67-3.18,1.01-4.79 M35.87,187.72c-0.06-0.19-0.12-0.37-0.18-0.55
	 M51.47,271.12c-0.15-2.58-0.32-5.14-0.52-7.67 M39.38,199.22c-0.08-0.28-0.16-0.55-0.24-0.83 M37.11,191.6
	c-0.08-0.27-0.17-0.54-0.25-0.8 M38.14,194.97c-0.04-0.12-0.07-0.24-0.11-0.36 M36.86,190.8c-0.33-1.04-0.66-2.07-0.98-3.08
	 M38.03,194.61c-0.31-1.02-0.62-2.02-0.92-3.01 M39.15,198.39c-0.34-1.16-0.67-2.31-1.01-3.42 M51.5,271.56
	c-0.01-0.15-0.02-0.3-0.03-0.44 M35.69,187.17c-0.29-0.87-0.57-1.73-0.85-2.57 M50.28,256.01c-1.83-18.23-5.07-35.63-9.88-53.16
	c-0.34-1.23-0.68-2.44-1.02-3.63 M32.45,177.73c0.06,0.17,0.13,0.35,0.19,0.53 M33.65,181.13c-0.07-0.2-0.14-0.39-0.2-0.58
	 M34.84,184.6c-0.08-0.23-0.16-0.47-0.24-0.7 M330.43,621.74c1.4-0.35,2.79-0.69,4.17-1.04 M9.33,583.1
	c0.28-1.23,0.56-2.49,0.84-3.77 M11.12,575.05c0.39-1.76,0.78-3.56,1.19-5.4 M47.15,370.64c0.22-1.93,0.43-3.86,0.64-5.77
	 M301.97,174.79c-3.12,7.93-6.78,18.14-10.24,30.16 M317.4,624.82c0.87-0.2,1.74-0.4,2.61-0.6 M326.18,622.77
	c0.97-0.23,1.93-0.47,2.88-0.7 M0.88,619.54c1.01-4.17,4.17-17.32,8.45-36.43 M321.84,623.8c0.89-0.21,1.77-0.42,2.65-0.62
	 M12.47,568.9c0.28-1.28,0.56-2.57,0.85-3.88 M48.69,356.3c0.85-8.51,1.55-16.83,2.1-24.89c1.47-21.64,1.75-41.28,0.71-59.86
	 M36.43,628.76c38.3,7.55,84.65,13.25,137.23,12.78c46.67-0.42,88.2-5.61,123.3-12.43 M48.1,362c0.2-1.91,0.4-3.81,0.58-5.7
	 M281.51,328.02c2.28,26.43,6.67,55.44,12.42,89.4c10.91,64.39,24.26,132.3,40.67,203.28 M301.97,174.79
	c0.83-2.1,1.62-4.05,2.35-5.82c-1.09,0.18-2.97,0.39-5.19,0c-11.75-2.05-17.97-18.02-20.77-25.19
	c-12.48-32.06-9.72-126.75-9.52-132.91c-13.84-3.76-27.69-7.53-41.53-11.29c-2.39,18.33-9.83,53.47-37.21,84.26
	c-8.08,9.09-16.47,16.19-24.23,21.72c-7.75-5.49-16.15-12.58-24.23-21.72c-27.32-30.9-34.24-66.28-36.34-84.26
	C92.03,3.33,78.77,7.1,65.5,10.86c0,4,0.01,10.04,0,17.37c-0.04,43.07-0.08,64.76-0.87,72.1c-1.81,16.96-6.52,61-28.55,67.76
	c-2.8,0.86-5.28,0.93-6.92,0.87c0.74,1.88,1.54,3.98,2.39,6.27 M291.73,204.95c-0.13,0.46-0.26,0.91-0.39,1.37
	c-10.95,38.7-13.39,73.94-10.35,115.14 M14.75,558.4c0.32-1.5,0.65-3.02,0.98-4.57 M298.27,628.86c1.1-0.22,2.19-0.43,3.27-0.65
	 M303.4,627.83c0.96-0.2,1.92-0.39,2.87-0.59 M312.85,625.83c0.88-0.19,1.76-0.39,2.64-0.58 M308.2,626.84
	c0.91-0.19,1.82-0.39,2.72-0.58 M317.4,624.82c0.87-0.2,1.74-0.4,2.61-0.6 M303.4,627.83c0.96-0.2,1.92-0.39,2.87-0.59
	 M301.97,174.79c0.02-0.04,0.03-0.07,0.03-0.07l-0.3,0c-1.86-0.03-4.66-0.28-7.76-1.4c-9.9-3.58-15.54-13.39-18.95-22.09l-0.17,0.72
	c-24,82.72-27.43,150.88-26.31,196.53c1.43,58.03,10.92,107.82,21.63,163.97c9.23,48.42,26.81,116.62,26.82,116.68 M308.2,626.84
	c0.91-0.19,1.82-0.39,2.72-0.58 M301.55,628.21c0.62-0.12,1.23-0.25,1.85-0.38 M296.96,629.12L296.96,629.12
	c0.44-0.08,0.87-0.17,1.31-0.26 M306.27,627.24c0.65-0.14,1.29-0.27,1.93-0.41 M312.85,625.83c0.88-0.19,1.76-0.39,2.64-0.58
	 M298.27,628.86c1.1-0.22,2.19-0.43,3.27-0.65 M330.43,621.74c1.4-0.35,2.79-0.69,4.17-1.04 M324.49,623.18
	c0.56-0.13,1.13-0.27,1.69-0.4 M320.01,624.22c0.61-0.14,1.23-0.28,1.84-0.42 M315.49,625.25c0.64-0.14,1.27-0.29,1.91-0.43
	 M329.07,622.07c0.45-0.11,0.92-0.22,1.37-0.33 M321.84,623.8c0.89-0.21,1.77-0.42,2.65-0.62 M310.92,626.25
	c0.65-0.14,1.29-0.28,1.93-0.42 M326.18,622.77c0.97-0.23,1.93-0.47,2.88-0.7 M280.98,321.46c0.16,2.17,0.33,4.35,0.52,6.56
	 M20.3,531.93c1.04-5.09,2.1-10.32,3.16-15.67 M51.47,271.12c-0.15-2.58-0.32-5.14-0.52-7.67 M23.46,516.26
	c0.89-4.46,1.78-9,2.67-13.61 M51.5,271.56c-0.01-0.15-0.02-0.3-0.03-0.44 M33.45,180.55c-0.27-0.78-0.55-1.55-0.81-2.3
	 M34.61,183.9c-0.32-0.95-0.64-1.87-0.95-2.77 M35.69,187.17c-0.29-0.87-0.57-1.73-0.85-2.57 M43.84,397.07
	c0.4-2.97,0.8-5.93,1.18-8.88 M45.02,388.19c0.25-1.97,0.5-3.93,0.75-5.89 M32.45,177.73c-0.31-0.85-0.61-1.68-0.91-2.49
	 M26.13,502.65c5.7-29.5,11.42-61.82,16.03-93.67 M50.28,256.01c-1.83-18.23-5.07-35.63-9.88-53.16c-0.34-1.23-0.68-2.44-1.02-3.63
	 M12.47,568.9c0.28-1.28,0.56-2.57,0.85-3.88 M11.12,575.05c0.39-1.76,0.78-3.56,1.19-5.4 M10.6,577.39
	c0.17-0.77,0.34-1.55,0.52-2.34 M14.75,558.4c0.32-1.5,0.65-3.02,0.98-4.57 M9.33,583.1c0.28-1.23,0.56-2.49,0.84-3.77
	 M16.72,549.15c0.33-1.58,0.67-3.18,1.01-4.79 M0.88,619.54c1.01-4.17,4.17-17.32,8.45-36.43 M12.31,569.65
	c0.05-0.25,0.11-0.5,0.16-0.75 M47.15,370.64c0.22-1.93,0.43-3.86,0.64-5.77 M50.95,263.44c-0.2-2.49-0.42-4.97-0.67-7.43 M48.1,362
	c0.2-1.91,0.4-3.81,0.58-5.7 M42.16,408.99c0.58-3.98,1.13-7.95,1.67-11.91 M15.72,553.83c0.33-1.54,0.66-3.1,0.99-4.68
	 M31.53,627.78c0.78,0.16,1.56,0.31,2.35,0.47 M11.05,623.25c0.76,0.18,1.51,0.36,2.28,0.54 M15.37,624.26
	c0.79,0.18,1.57,0.36,2.37,0.55 M0.6,620.69c1.37,0.35,2.75,0.69,4.15,1.04 M6.68,622.2c0.77,0.19,1.53,0.38,2.31,0.56
	 M29.13,627.28c0.8,0.17,1.59,0.33,2.4,0.5 M24.41,626.28c0.81,0.18,1.62,0.35,2.44,0.52 M19.78,625.26
	c0.82,0.18,1.64,0.37,2.47,0.55 M17.75,624.81c0.67,0.15,1.36,0.3,2.04,0.45 M22.26,625.81c0.71,0.16,1.44,0.31,2.16,0.47
	 M36.86,190.8c-0.33-1.04-0.66-2.07-0.98-3.08 M36.3,628.74c0.04,0.01,0.09,0.02,0.13,0.03l0,0 M13.32,623.79
	c0.68,0.16,1.37,0.31,2.05,0.47 M8.99,622.77c0.68,0.16,1.37,0.32,2.06,0.49 M33.88,628.25c0.81,0.16,1.61,0.33,2.42,0.49
	 M4.75,621.73c0.64,0.16,1.29,0.31,1.93,0.47 M26.85,626.8c0.75,0.16,1.52,0.32,2.28,0.48 M38.14,194.97
	c-0.04-0.12-0.07-0.24-0.11-0.36 M32.45,177.73c0.06,0.17,0.13,0.35,0.19,0.53 M37.11,191.6c-0.08-0.27-0.17-0.54-0.25-0.8
	 M35.87,187.72c-0.06-0.19-0.12-0.37-0.18-0.55 M39.38,199.22c-0.08-0.28-0.16-0.55-0.24-0.83 M39.15,198.39
	c-0.34-1.16-0.67-2.31-1.01-3.42 M48.69,356.3c0.85-8.51,1.55-16.83,2.1-24.89c1.47-21.64,1.75-41.28,0.71-59.86 M33.65,181.13
	c-0.07-0.2-0.14-0.39-0.2-0.58 M45.76,382.31c0.24-1.96,0.48-3.91,0.71-5.85 M36.43,628.76c0.01-0.04,19.59-80.05,29.5-135.86
	c5.09-28.66,13.05-73.47,16.44-114.38c4.22-50.85,4.16-129.04-21.97-228.53l-0.18-0.72c-4.36,10.72-9.97,18.03-18.08,22.32
	c-4,2.11-7.74,3.03-10.38,3.47l-0.28,0c0.02,0.06,0.05,0.13,0.07,0.19 M34.84,184.6c-0.08-0.23-0.16-0.47-0.24-0.7 M38.03,194.61
	c-0.31-1.02-0.62-2.02-0.92-3.01 M46.48,376.45c0.23-1.94,0.46-3.88,0.68-5.81 M0.6,620.69c0.06-0.23,0.15-0.62,0.28-1.16
	 M10.6,577.39c-0.14,0.65-0.29,1.3-0.43,1.94 M47.8,364.87c0.1-0.96,0.21-1.91,0.31-2.87 M13.32,565.02
	c0.47-2.16,0.95-4.37,1.43-6.62 M17.72,544.36c0.85-4.04,1.71-8.18,2.58-12.43"/>
<path class="NeckAndArmTrim fill" d="M234.22,1.45c-1.53,14.43-6.5,42.55-25.95,71.09c-14.47,21.23-31.28,34.36-42.4,41.7
	c-11.12-7.68-28.01-21.43-42.4-43.44c-18.23-27.88-23.2-54.9-24.8-69.35l6.63-1.88c2.1,17.98,9.02,53.37,36.34,84.26
	c8.08,9.14,16.48,16.23,24.23,21.72c7.76-5.52,16.14-12.62,24.23-21.72c27.38-30.79,34.82-65.93,37.21-84.26L234.22,1.45z"/>
<path class="NeckAndArmTrim fill" d="M31.75,175.05c2.64-0.44,6.39-1.36,10.38-3.47c11.79-6.23,18.31-18.86,23.36-39.09
	c5.97-23.9,5.71-41.68,6.06-78.18c0.19-20.28,0.47-36.38,0.65-45.34l-6.7,1.9c0,4,0.01,10.04,0,17.37
	c-0.04,43.07-0.08,64.76-0.87,72.1c-1.81,16.96-6.52,61-28.55,67.76c-2.8,0.86-5.28,0.93-6.92,0.87L31.75,175.05z"/>
<path class="NeckAndArmTrim fill" d="M301.99,174.72c-1.85-0.01-4.78-0.22-8.06-1.41c-14.35-5.19-19.73-23.43-22.39-32.46
	c-11.56-39.2-9.01-124.25-8.76-131.73l6.06,1.74c-0.2,6.16-2.97,100.85,9.52,132.91c2.79,7.17,9.01,23.15,20.77,25.19
	c2.22,0.39,4.1,0.18,5.19,0L301.99,174.72z"/>
<path class="NeckAndArmTrim fill" d="M109.45,22c10.2,5.01,29.77,12.96,55.56,13.19c27.06,0.24,47.57-8.13,57.87-13.19l1.74-7.98
	c-8.95,5.27-29.6,15.8-57.87,15.96c-28.99,0.16-50.17-10.69-59.12-15.96L109.45,22z"/>
<g id="FBodyLogos"></g>
</svg>
