<?xml version="1.0" encoding="utf-8"?>
<!-- Generator: Adobe Illustrator 19.1.0, SVG Export Plug-In . SVG Version: 6.00 Build 0)  -->
<svg version="1.1" id="Layer_1" xmlns="http://www.w3.org/2000/svg" xmlns:xlink="http://www.w3.org/1999/xlink" x="0px" y="0px"
	 viewBox="0 0 335.2 641.14" style="enable-background:new 0 0 335.2 641.14;" xml:space="preserve">
<style type="text/css">
	<![CDATA[
	@font-face{font-family:'codaheavy';src:url('/fonts/coda-heavy-webfont.woff') format('woff')}
	text{font-family:Impact,codaheavy,sans-serif}
	.Number.fill{fill:#000}
	.NumberOutline.stroke{fill:none;stroke:#777;stroke-width:2.5}
	.Colour1.fill{fill:#000000;}
	.Colour2.fill{fill:#B2B2B2;}
	.NeckAndArmTrim.fill{fill:#BE1E2D;stroke:#000000;stroke-miterlimit:10;}
	.SidePanels.fill{fill:#000000;stroke:#000000;stroke-miterlimit:10;}
	.Gradient1.stopColor{stop-color:#EB1D25;}
	.Gradient2.stopColor{stop-color:#810000;}
	.st0{fill:none;stroke:#000000;stroke-linecap:round;stroke-linejoin:round;}
	.st1{fill:none;stroke:#000000;stroke-miterlimit:10;}
	.st2{fill:#FFFFFF;stroke:#000000;}
	.st3{fill:url(#SVGID_1_);}
	.st4{fill:url(#SVGID_2_);}
	.st5{fill:url(#SVGID_3_);}
	.st6{fill:url(#SVGID_4_);}
	.st7{fill:url(#SVGID_5_);}
	.st8{fill:url(#SVGID_6_);}
	.st9{fill:url(#SVGID_7_);}
	.st10{fill:url(#SVGID_8_);}
	.st11{fill:url(#SVGID_9_);}
	.st12{fill:url(#SVGID_10_);}
	.st13{fill:url(#SVGID_11_);}
	.st14{fill:url(#SVGID_12_);}
	.st15{fill:url(#SVGID_13_);}
	.st16{fill:url(#SVGID_14_);}
	.st17{fill:url(#SVGID_15_);}
	.st18{fill:url(#SVGID_16_);}
	.st19{fill:url(#SVGID_17_);}
	.st20{fill:url(#SVGID_18_);}
	.st21{fill:url(#SVGID_19_);}
	.st22{fill:url(#SVGID_20_);}
	.st23{fill:url(#SVGID_21_);}
	.st24{fill:url(#SVGID_22_);}
	.st25{fill:url(#SVGID_23_);}
	.st26{fill:url(#SVGID_24_);}
	.st27{fill:url(#SVGID_25_);}
	.st28{fill:url(#SVGID_26_);}
	.st29{fill:url(#SVGID_27_);}
	.st30{fill:url(#SVGID_28_);}
	.st31{fill:url(#SVGID_29_);}
	.st32{fill:url(#SVGID_30_);}
	.st33{fill:url(#SVGID_31_);}
	.st34{fill:url(#SVGID_32_);}
	.st35{fill:url(#SVGID_33_);}
	.st36{fill:url(#SVGID_34_);}
	.st37{fill:url(#SVGID_35_);}
	.st38{fill:url(#SVGID_36_);}
	.st39{fill:url(#SVGID_37_);}
	.st40{fill:url(#SVGID_38_);}
	.st41{fill:url(#SVGID_39_);}
	.st42{fill:url(#SVGID_40_);}
	]]>
</style>
<path class="Colour1 fill" d="M230.13,0.02c13.84,3.76,24.86,7.52,38.71,11.29c-0.2,6.16-2.97,100.78,9.52,132.82
	c2.79,7.17,9.01,23.13,20.77,25.17c2.22,0.39,4.1,0.18,5.19,0c-3.61,8.71-8.5,21.5-12.98,37.33
	c-18.44,65.14-12.74,120.45,2.6,210.95c10.91,64.35,24.26,132.2,40.67,203.13c-41.5,10.53-96.29,20.26-160.94,20.83
	c-70.25,0.63-129.39-9.76-173.06-20.83c1.82-7.42,42.42-174.52,50.19-289.08c3.36-49.6,0.53-88.71-10.38-128.48
	c-3.93-14.33-8.14-25.94-11.25-33.86c1.64,0.07,4.12-0.01,6.92-0.87c22.03-6.75,26.74-50.77,28.55-67.71
	c0.79-7.34,0.82-29.01,0.87-72.05c0.01-7.33,0-13.36,0-17.36c13.27-3.76,26.54-7.52,39.8-11.29
	C105.3,22.04,230.13,22.04,230.13,0.02z"/>
<path class="st0" d="M0.6,620.71c43.67,11.07,102.8,21.46,173.06,20.83c64.65-0.58,119.45-10.31,160.94-20.83
	c-16.41-70.93-29.76-138.78-40.67-203.13c-15.34-90.5-21.04-145.81-2.6-210.95c4.48-15.83,9.37-28.62,12.98-37.33
	c-1.09,0.18-2.97,0.39-5.19,0c-11.75-2.04-17.97-18.01-20.77-25.17c-12.49-32.03-9.72-126.66-9.52-132.82
	c-13.84-3.76-24.86-7.52-38.71-11.29c0,22.02-124.83,22.02-124.83,0C92.03,3.78,78.76,7.55,65.5,11.31c0,4,0.01,10.03,0,17.36
	c-0.04,43.04-0.08,64.71-0.87,72.05c-1.81,16.94-6.52,60.96-28.55,67.71c-2.8,0.86-5.28,0.93-6.92,0.87
	c3.11,7.91,7.32,19.53,11.25,33.86c10.91,39.77,13.75,78.88,10.38,128.48C43.02,446.19,2.42,613.29,0.6,620.71z"/>
<path class="st1" d="M235.43,1.9"/>
<path class="st1" d="M99.89,1.9"/>
<g>
	<rect x="110.37" y="215.05" class="st2" width="32.02" height="12.15"/>
	<rect x="195.16" y="215.05" class="st2" width="32.02" height="12.15"/>
	<rect x="195.25" y="322.61" class="st2" width="32.02" height="12.15"/>
	<rect x="110.45" y="322.61" class="st2" width="32.02" height="12.15"/>
	<rect x="110.45" y="310.46" class="st2" width="32.02" height="12.15"/>
	<rect x="195.25" y="310.46" class="st2" width="32.02" height="12.15"/>
</g>
<path class="NeckAndArmTrim fill" d="M32.21,175.38c2.64-0.44,6.39-1.36,10.38-3.47c11.79-6.22,18.31-18.85,23.36-39.06
	c5.97-23.88,5.71-41.65,6.06-78.13c0.19-20.26,0.47-36.36,0.65-45.31l-6.7,1.9c0,4,0.01,10.03,0,17.36
	c-0.04,43.04-0.08,64.71-0.87,72.05c-1.81,16.94-6.52,60.96-28.55,67.71c-2.8,0.86-5.28,0.93-6.92,0.87L32.21,175.38z"/>
<path class="NeckAndArmTrim fill" d="M303.21,175.05c-1.85-0.01-4.78-0.22-8.06-1.41c-14.35-5.18-19.73-23.42-22.39-32.44
	c-11.56-39.17-9.01-124.16-8.76-131.63l6.06,1.74c-0.2,6.16-2.97,100.78,9.52,132.82c2.79,7.17,9.01,23.13,20.77,25.17
	c2.22,0.39,4.1,0.18,5.19,0L303.21,175.05z"/>
<path class="NeckAndArmTrim fill" d="M98.44,1.85c9.82,6.22,35.73,20.81,71.65,20.12c33.01-0.64,56.77-13.84,66.68-20.14l-8.3-2.25
	c-10.19,5.47-31.41,15.12-59.88,15.37c-29.74,0.26-51.89-9.87-62.12-15.37L98.44,1.85z"/>
<path class="Colour2 fill" d="M254.26,120.78l-2.23,4.15l-0.56,1.04c-0.19,0.34-0.41,0.67-0.61,1.01l-1.24,2
	c-1.58,2.71-3.46,5.23-5.22,7.82c-3.76,5.01-7.88,9.74-12.33,14.13c-8.99,8.69-19.21,16.03-30.22,21.9
	c-5.5,2.94-11.17,5.56-16.98,7.8c-1.44,0.58-2.92,1.08-4.38,1.63c-1.47,0.5-2.94,1.02-4.42,1.48c-0.74,0.24-1.48,0.47-2.23,0.68
	c-0.74,0.22-1.49,0.44-2.24,0.64c-1.33,0.37-2.71,0.73-4.01,1.02c-1.3-0.29-2.68-0.65-4.01-1.02c-0.75-0.2-1.49-0.41-2.24-0.64
	c-0.75-0.22-1.49-0.44-2.23-0.68c-1.48-0.46-2.95-0.98-4.42-1.48c-1.46-0.55-2.93-1.04-4.38-1.63c-5.81-2.24-11.48-4.86-16.98-7.8
	c-11-5.87-21.23-13.21-30.22-21.9c-4.45-4.38-8.57-9.11-12.33-14.13c-1.76-2.59-3.64-5.11-5.22-7.82l-1.24-2
	c-0.2-0.34-0.42-0.67-0.61-1.01l-0.56-1.04l-2.23-4.15c-5.65-11.24-9.45-23.43-11.61-35.93c1.47,12.59,4.72,25.06,10.01,36.7
	l2.09,4.31l0.52,1.08c0.18,0.35,0.39,0.7,0.58,1.05l1.17,2.09c1.49,2.84,3.32,5.47,5.04,8.17c3.67,5.25,7.72,10.24,12.15,14.89
	c8.89,9.27,19.28,17.04,30.44,23.35c5.59,3.15,11.41,5.88,17.37,8.27c1.48,0.62,3,1.15,4.5,1.72c1.52,0.52,3.03,1.06,4.57,1.53
	c0.76,0.25,1.53,0.49,2.31,0.71c0.77,0.23,1.54,0.46,2.32,0.67c1.57,0.43,3.52,0.81,5.19,1.16c1.67-0.35,3.63-0.73,5.19-1.16
	c0.78-0.21,1.55-0.43,2.32-0.67c0.77-0.22,1.54-0.46,2.31-0.71c1.54-0.48,3.05-1.01,4.57-1.53c1.5-0.56,3.02-1.1,4.5-1.72
	c5.95-2.39,11.77-5.13,17.37-8.27c11.17-6.31,21.55-14.08,30.44-23.35c4.42-4.65,8.48-9.64,12.15-14.89
	c1.72-2.7,3.55-5.34,5.04-8.17l1.17-2.09c0.19-0.35,0.4-0.69,0.58-1.05l0.52-1.08l2.09-4.31c5.29-11.64,8.54-24.11,10.01-36.7
	C263.71,97.35,259.91,109.54,254.26,120.78z"/>
<g>
	<path class="SidePanels fill" d="M301.69,175.04c-1.86-0.03-4.66-0.28-7.76-1.4c-9.9-3.58-15.54-13.38-18.95-22.07l-0.17,0.72
		c-24,82.66-27.43,150.77-26.31,196.39c1.43,57.99,10.92,107.74,21.63,163.85c9.24,48.41,26.82,116.6,26.82,116.6
		c13.53-2.62,26.1-5.49,37.64-8.42c-16.41-70.93-29.76-138.78-40.67-203.13c-15.34-90.5-21.04-145.81-2.6-210.95
		c3.56-12.56,10.64-31.53,10.66-31.58L301.69,175.04z"/>
	<path class="SidePanels fill" d="M31.75,175.38c2.64-0.44,6.39-1.36,10.38-3.47c8.11-4.28,13.72-11.58,18.08-22.3l0.18,0.72
		c26.13,99.42,26.19,177.55,21.97,228.37c-3.4,40.89-11.35,85.66-16.44,114.3c-9.91,55.78-29.5,135.77-29.5,135.77
		c-12.88-2.53-24.84-5.28-35.83-8.06c1.82-7.42,42.42-174.52,50.19-289.08c3.36-49.6,0.53-88.71-10.38-128.48
		c-3.02-11.01-6.21-20.42-8.93-27.78L31.75,175.38z"/>
</g>
<linearGradient id="SVGID_1_" gradientUnits="userSpaceOnUse" x1="248.327" y1="318.9648" x2="280.9919" y2="318.9648">
	<stop class="Gradient1 stopColor" offset="5.347594e-003" style="stop-color:#EB1D25"/>
	<stop class="Gradient2 stopColor" offset="1" style="stop-color:#810000"/>
</linearGradient>
<path class="st3" d="M248.58,315.79c-0.16,5.49-0.24,10.77-0.26,15.84l32.66-9.84c-0.39-5.26-0.68-10.41-0.88-15.49L248.58,315.79z"
	/>
<linearGradient id="SVGID_2_" gradientUnits="userSpaceOnUse" x1="259.6912" y1="201.7171" x2="297.2832" y2="201.7171">
	<stop class="Gradient1 stopColor" offset="5.347594e-003" style="stop-color:#EB1D25"/>
	<stop class="Gradient2 stopColor" offset="1" style="stop-color:#810000"/>
</linearGradient>
<path class="st4" d="M263.11,198.47c-1.23,5.69-2.37,11.28-3.42,16.79l31.93-9.62c1.58-5.43,3.73-11.89,5.66-17.47L263.11,198.47z"
	/>
<linearGradient id="SVGID_3_" gradientUnits="userSpaceOnUse" x1="248.8302" y1="296.3381" x2="279.8951" y2="296.3381">
	<stop class="Gradient1 stopColor" offset="5.347594e-003" style="stop-color:#EB1D25"/>
	<stop class="Gradient2 stopColor" offset="1" style="stop-color:#810000"/>
</linearGradient>
<path class="st5" d="M279.85,283.79l-30.16,9.08c-0.37,5.51-0.65,10.85-0.86,16.02l31.06-9.36
	C279.77,294.22,279.75,288.97,279.85,283.79z"/>
<linearGradient id="SVGID_4_" gradientUnits="userSpaceOnUse" x1="252.4456" y1="249.9444" x2="284.2948" y2="249.9444">
	<stop class="Gradient1 stopColor" offset="5.347594e-003" style="stop-color:#EB1D25"/>
	<stop class="Gradient2 stopColor" offset="1" style="stop-color:#810000"/>
</linearGradient>
<path class="st6" d="M254.55,246.23c-0.79,5.58-1.49,11.05-2.1,16.39l29.43-8.87c0.65-5.5,1.45-10.98,2.42-16.49L254.55,246.23z"/>
<linearGradient id="SVGID_5_" gradientUnits="userSpaceOnUse" x1="255.5953" y1="226.0836" x2="289.5829" y2="226.0836">
	<stop class="Gradient1 stopColor" offset="5.347594e-003" style="stop-color:#EB1D25"/>
	<stop class="Gradient2 stopColor" offset="1" style="stop-color:#810000"/>
</linearGradient>
<path class="st7" d="M258.35,222.49c-1.01,5.63-1.93,11.17-2.76,16.59l30.07-9.06c1.13-5.6,2.43-11.24,3.92-16.94L258.35,222.49z"/>
<linearGradient id="SVGID_6_" gradientUnits="userSpaceOnUse" x1="279.1054" y1="556.6547" x2="320.79" y2="556.6547">
	<stop class="Gradient1 stopColor" offset="5.347594e-003" style="stop-color:#EB1D25"/>
	<stop class="Gradient2 stopColor" offset="1" style="stop-color:#810000"/>
</linearGradient>
<path class="st8" d="M279.11,555.09c1.12,4.98,2.26,9.92,3.38,14.74l38.31-11.54c-1.05-4.95-2.11-9.9-3.13-14.82L279.11,555.09z"/>
<linearGradient id="SVGID_7_" gradientUnits="userSpaceOnUse" x1="283.9763" y1="577.817" x2="325.3597" y2="577.817">
	<stop class="Gradient1 stopColor" offset="5.347594e-003" style="stop-color:#EB1D25"/>
	<stop class="Gradient2 stopColor" offset="1" style="stop-color:#810000"/>
</linearGradient>
<path class="st9" d="M283.98,576.21c1.2,5.11,2.38,10.04,3.5,14.7l37.88-11.41c-1.08-4.94-2.16-9.88-3.21-14.79L283.98,576.21z"/>
<linearGradient id="SVGID_8_" gradientUnits="userSpaceOnUse" x1="274.4611" y1="535.4421" x2="316.3448" y2="535.4421">
	<stop class="Gradient1 stopColor" offset="5.347594e-003" style="stop-color:#EB1D25"/>
	<stop class="Gradient2 stopColor" offset="1" style="stop-color:#810000"/>
</linearGradient>
<path class="st10" d="M274.46,533.9c1.04,4.89,2.11,9.84,3.21,14.79l38.67-11.65c-1.02-4.97-2.03-9.92-3.02-14.85L274.46,533.9z"/>
<linearGradient id="SVGID_9_" gradientUnits="userSpaceOnUse" x1="289.0213" y1="598.9357" x2="330.0514" y2="598.9357">
	<stop class="Gradient1 stopColor" offset="5.347594e-003" style="stop-color:#EB1D25"/>
	<stop class="Gradient2 stopColor" offset="1" style="stop-color:#810000"/>
</linearGradient>
<path class="st11" d="M289.02,597.28c1.32,5.43,2.54,10.38,3.61,14.67l37.42-11.27c-1.11-4.94-2.21-9.86-3.29-14.77L289.02,597.28z"
	/>
<linearGradient id="SVGID_10_" gradientUnits="userSpaceOnUse" x1="270.1515" y1="514.173" x2="312.0245" y2="514.173">
	<stop class="Gradient1 stopColor" offset="5.347594e-003" style="stop-color:#EB1D25"/>
	<stop class="Gradient2 stopColor" offset="1" style="stop-color:#810000"/>
</linearGradient>
<path class="st12" d="M270.15,512.61c0.91,4.79,1.91,9.78,2.96,14.87l38.91-11.72c-0.99-4.99-1.95-9.93-2.91-14.88L270.15,512.61z"
	/>
<linearGradient id="SVGID_11_" gradientUnits="userSpaceOnUse" x1="255.2038" y1="428.5209" x2="296.1159" y2="428.5209">
	<stop class="Gradient1 stopColor" offset="5.347594e-003" style="stop-color:#EB1D25"/>
	<stop class="Gradient2 stopColor" offset="1" style="stop-color:#810000"/>
</linearGradient>
<path class="st13" d="M257.44,441.84l38.68-11.65c-0.73-4.2-1.48-8.44-2.18-12.61c-0.14-0.8-0.26-1.58-0.4-2.37l-38.33,11.55
	C255.91,431.79,256.65,436.81,257.44,441.84z"/>
<linearGradient id="SVGID_12_" gradientUnits="userSpaceOnUse" x1="248.9375" y1="363.3593" x2="285.7853" y2="363.3593">
	<stop class="Gradient1 stopColor" offset="5.347594e-003" style="stop-color:#EB1D25"/>
	<stop class="Gradient2 stopColor" offset="1" style="stop-color:#810000"/>
</linearGradient>
<path class="st14" d="M248.94,360.87c0.23,5.22,0.54,10.38,0.89,15.49l35.95-10.83c-0.71-5.16-1.37-10.22-1.96-15.17L248.94,360.87z
	"/>
<linearGradient id="SVGID_13_" gradientUnits="userSpaceOnUse" x1="252.4453" y1="406.9369" x2="292.4424" y2="406.9369">
	<stop class="Gradient1 stopColor" offset="5.347594e-003" style="stop-color:#EB1D25"/>
	<stop class="Gradient2 stopColor" offset="1" style="stop-color:#810000"/>
</linearGradient>
<path class="st15" d="M252.45,404.99c0.57,5.09,1.19,10.16,1.85,15.2l38.14-11.49c-0.85-5.12-1.67-10.12-2.45-15.02L252.45,404.99z"
	/>
<linearGradient id="SVGID_14_" gradientUnits="userSpaceOnUse" x1="250.3259" y1="385.2287" x2="288.9677" y2="385.2287">
	<stop class="Gradient1 stopColor" offset="5.347594e-003" style="stop-color:#EB1D25"/>
	<stop class="Gradient2 stopColor" offset="1" style="stop-color:#810000"/>
</linearGradient>
<path class="st16" d="M250.33,383.04c0.41,5.15,0.88,10.26,1.4,15.34l37.24-11.22c-0.8-5.14-1.55-10.16-2.26-15.08L250.33,383.04z"
	/>
<linearGradient id="SVGID_15_" gradientUnits="userSpaceOnUse" x1="248.3428" y1="341.287" x2="283.0562" y2="341.287">
	<stop class="Gradient1 stopColor" offset="5.347594e-003" style="stop-color:#EB1D25"/>
	<stop class="Gradient2 stopColor" offset="1" style="stop-color:#810000"/>
</linearGradient>
<path class="st17" d="M248.34,338.46c0.03,3.52,0.08,6.93,0.16,10.22c0.05,1.83,0.12,3.62,0.18,5.44l34.37-10.35
	c-0.58-5.2-1.09-10.3-1.53-15.3L248.34,338.46z"/>
<linearGradient id="SVGID_16_" gradientUnits="userSpaceOnUse" x1="266.0949" y1="492.8303" x2="307.8533" y2="492.8303">
	<stop class="Gradient1 stopColor" offset="5.347594e-003" style="stop-color:#EB1D25"/>
	<stop class="Gradient2 stopColor" offset="1" style="stop-color:#810000"/>
</linearGradient>
<path class="st18" d="M266.09,491.24c0.93,4.93,1.87,9.9,2.83,14.91l38.93-11.73c-0.96-5-1.89-9.95-2.82-14.91L266.09,491.24z"/>
<linearGradient id="SVGID_17_" gradientUnits="userSpaceOnUse" x1="258.4861" y1="450.0137" x2="299.9011" y2="450.0137">
	<stop class="Gradient1 stopColor" offset="5.347594e-003" style="stop-color:#EB1D25"/>
	<stop class="Gradient2 stopColor" offset="1" style="stop-color:#810000"/>
</linearGradient>
<path class="st19" d="M258.49,448.35c0.81,4.99,1.66,9.99,2.53,15l38.88-11.71c-0.9-5-1.79-10-2.66-14.96L258.49,448.35z"/>
<linearGradient id="SVGID_18_" gradientUnits="userSpaceOnUse" x1="262.1621" y1="471.4436" x2="303.8137" y2="471.4436">
	<stop class="Gradient1 stopColor" offset="5.347594e-003" style="stop-color:#EB1D25"/>
	<stop class="Gradient2 stopColor" offset="1" style="stop-color:#810000"/>
</linearGradient>
<path class="st20" d="M262.16,469.83c0.88,4.95,1.8,9.93,2.73,14.94l38.92-11.72c-0.93-5-1.84-9.97-2.74-14.93L262.16,469.83z"/>
<linearGradient id="SVGID_19_" gradientUnits="userSpaceOnUse" x1="250.1973" y1="273.3489" x2="281.1344" y2="273.3489">
	<stop class="Gradient1 stopColor" offset="5.347594e-003" style="stop-color:#EB1D25"/>
	<stop class="Gradient2 stopColor" offset="1" style="stop-color:#810000"/>
</linearGradient>
<path class="st21" d="M251.67,269.69c-0.58,5.54-1.06,10.94-1.47,16.2l29.87-9c0.22-5.4,0.57-10.75,1.07-16.08L251.67,269.69z"/>
<g>
	<linearGradient id="SVGID_20_" gradientUnits="userSpaceOnUse" x1="52.6489" y1="200.5737" x2="88.8821" y2="200.5737">
		<stop class="Gradient2 stopColor" offset="0" style="stop-color:#810000"/>
		<stop class="Gradient1 stopColor" offset="0.9947" style="stop-color:#EB1D25"/>
	</linearGradient>
	<path class="st22" d="M35.47,186.84c1.63,4.93,3.3,10.38,4.93,16.32c0.09,0.34,0.17,0.67,0.26,1.01l33.68,10.14
		c-0.95-5.48-1.98-11.04-3.09-16.69L35.47,186.84z"/>
	<linearGradient id="SVGID_21_" gradientUnits="userSpaceOnUse" x1="52.6489" y1="224.7911" x2="88.8821" y2="224.7911">
		<stop class="Gradient2 stopColor" offset="0" style="stop-color:#810000"/>
		<stop class="Gradient1 stopColor" offset="0.9947" style="stop-color:#EB1D25"/>
	</linearGradient>
	<path class="st23" d="M42.58,211.57c1.38,5.61,2.59,11.22,3.66,16.86l31.8,9.58c-0.75-5.41-1.58-10.91-2.49-16.51L42.58,211.57z"/>
	<linearGradient id="SVGID_22_" gradientUnits="userSpaceOnUse" x1="52.6489" y1="294.8745" x2="88.8821" y2="294.8745">
		<stop class="Gradient2 stopColor" offset="0" style="stop-color:#810000"/>
		<stop class="Gradient1 stopColor" offset="0.9947" style="stop-color:#EB1D25"/>
	</linearGradient>
	<path class="st24" d="M51.92,282.15c0.15,5.17,0.21,10.44,0.18,15.81l31.97,9.63c-0.17-5.2-0.41-10.52-0.73-15.98L51.92,282.15z"/>
	<linearGradient id="SVGID_23_" gradientUnits="userSpaceOnUse" x1="52.6489" y1="248.5539" x2="88.8821" y2="248.5539">
		<stop class="Gradient2 stopColor" offset="0" style="stop-color:#810000"/>
		<stop class="Gradient1 stopColor" offset="0.9947" style="stop-color:#EB1D25"/>
	</linearGradient>
	<path class="st25" d="M47.53,235.65c0.9,5.43,1.66,10.91,2.29,16.45l31.08,9.36c-0.56-5.34-1.18-10.78-1.89-16.33L47.53,235.65z"/>
	<linearGradient id="SVGID_24_" gradientUnits="userSpaceOnUse" x1="52.6489" y1="271.8991" x2="88.8821" y2="271.8991">
		<stop class="Gradient2 stopColor" offset="0" style="stop-color:#810000"/>
		<stop class="Gradient1 stopColor" offset="0.9947" style="stop-color:#EB1D25"/>
	</linearGradient>
	<path class="st26" d="M50.54,259.15c0.49,5.28,0.86,10.64,1.12,16.1l31.24,9.41c-0.36-5.27-0.79-10.65-1.31-16.15L50.54,259.15z"/>
	<linearGradient id="SVGID_25_" gradientUnits="userSpaceOnUse" x1="52.6489" y1="534.5518" x2="88.8821" y2="534.5518">
		<stop class="Gradient2 stopColor" offset="0" style="stop-color:#810000"/>
		<stop class="Gradient1 stopColor" offset="0.9947" style="stop-color:#EB1D25"/>
	</linearGradient>
	<path class="st27" d="M22.38,521.75c-1.02,5.07-2.03,10.03-3.03,14.85l35.74,10.76c1.06-4.91,2.11-9.87,3.13-14.82L22.38,521.75z"
		/>
	<linearGradient id="SVGID_26_" gradientUnits="userSpaceOnUse" x1="52.6489" y1="513.266" x2="88.8821" y2="513.266">
		<stop class="Gradient2 stopColor" offset="0" style="stop-color:#810000"/>
		<stop class="Gradient1 stopColor" offset="0.9947" style="stop-color:#EB1D25"/>
	</linearGradient>
	<path class="st28" d="M26.58,500.42c-0.97,5.05-1.94,10.01-2.91,14.88l35.88,10.81c1.02-5.01,2.02-9.98,2.97-14.87L26.58,500.42z"
		/>
	<linearGradient id="SVGID_27_" gradientUnits="userSpaceOnUse" x1="52.6489" y1="555.7848" x2="88.8821" y2="555.7848">
		<stop class="Gradient2 stopColor" offset="0" style="stop-color:#810000"/>
		<stop class="Gradient1 stopColor" offset="0.9947" style="stop-color:#EB1D25"/>
	</linearGradient>
	<path class="st29" d="M18.02,543.02c-1.07,5.12-2.12,10.06-3.14,14.81l35.57,10.71c1.07-4.81,2.16-9.76,3.26-14.78L18.02,543.02z"
		/>
	<linearGradient id="SVGID_28_" gradientUnits="userSpaceOnUse" x1="52.6489" y1="491.915" x2="88.8821" y2="491.915">
		<stop class="Gradient2 stopColor" offset="0" style="stop-color:#810000"/>
		<stop class="Gradient1 stopColor" offset="0.9947" style="stop-color:#EB1D25"/>
	</linearGradient>
	<path class="st30" d="M66.49,489.85L30.6,479.04c-0.92,5.03-1.85,10.01-2.78,14.92l35.94,10.83c0.76-4.02,1.49-7.96,2.17-11.79
		C66.11,491.97,66.3,490.92,66.49,489.85z"/>
	<linearGradient id="SVGID_29_" gradientUnits="userSpaceOnUse" x1="52.6489" y1="317.5319" x2="88.8821" y2="317.5319">
		<stop class="Gradient2 stopColor" offset="0" style="stop-color:#810000"/>
		<stop class="Gradient1 stopColor" offset="0.9947" style="stop-color:#EB1D25"/>
	</linearGradient>
	<path class="st31" d="M51.44,320.36l32.98,9.94c0.01-5.11-0.04-10.39-0.16-15.81l-32.25-9.71
		C51.91,309.85,51.7,315.06,51.44,320.36z"/>
	<linearGradient id="SVGID_30_" gradientUnits="userSpaceOnUse" x1="52.6489" y1="339.9085" x2="88.8821" y2="339.9085">
		<stop class="Gradient2 stopColor" offset="0" style="stop-color:#810000"/>
		<stop class="Gradient1 stopColor" offset="0.9947" style="stop-color:#EB1D25"/>
	</linearGradient>
	<path class="st32" d="M51.06,327.07c-0.09,1.52-0.17,3.02-0.28,4.56c-0.24,3.57-0.52,7.2-0.82,10.87l33.99,10.24
		c0.2-5.02,0.34-10.24,0.41-15.64L51.06,327.07z"/>
	<linearGradient id="SVGID_31_" gradientUnits="userSpaceOnUse" x1="52.6489" y1="576.9718" x2="88.8821" y2="576.9718">
		<stop class="Gradient2 stopColor" offset="0" style="stop-color:#810000"/>
		<stop class="Gradient1 stopColor" offset="0.9947" style="stop-color:#EB1D25"/>
	</linearGradient>
	<path class="st33" d="M13.5,564.25c-1.13,5.22-2.22,10.15-3.25,14.78l35.41,10.67c1.07-4.66,2.2-9.61,3.36-14.75L13.5,564.25z"/>
	<linearGradient id="SVGID_32_" gradientUnits="userSpaceOnUse" x1="52.6489" y1="598.1156" x2="88.8821" y2="598.1156">
		<stop class="Gradient2 stopColor" offset="0" style="stop-color:#810000"/>
		<stop class="Gradient1 stopColor" offset="0.9947" style="stop-color:#EB1D25"/>
	</linearGradient>
	<path class="st34" d="M8.82,585.43c-1.23,5.47-2.36,10.4-3.36,14.75l35.28,10.63c1.02-4.32,2.18-9.27,3.45-14.72L8.82,585.43z"/>
	<linearGradient id="SVGID_33_" gradientUnits="userSpaceOnUse" x1="52.6489" y1="383.9898" x2="88.8821" y2="383.9898">
		<stop class="Gradient2 stopColor" offset="0" style="stop-color:#810000"/>
		<stop class="Gradient1 stopColor" offset="0.9947" style="stop-color:#EB1D25"/>
	</linearGradient>
	<path class="st35" d="M47.13,371.07c-0.57,5.02-1.19,10.1-1.85,15.2l35.32,10.64c0.56-5.13,1.08-10.24,1.52-15.3L47.13,371.07z"/>
	<linearGradient id="SVGID_34_" gradientUnits="userSpaceOnUse" x1="52.6489" y1="362.0512" x2="88.8821" y2="362.0512">
		<stop class="Gradient2 stopColor" offset="0" style="stop-color:#810000"/>
		<stop class="Gradient1 stopColor" offset="0.9947" style="stop-color:#EB1D25"/>
	</linearGradient>
	<path class="st36" d="M49.38,349.16c-0.46,5.03-0.97,10.14-1.52,15.3l34.81,10.48c0.38-4.92,0.71-10.07,0.98-15.46L49.38,349.16z"
		/>
	<linearGradient id="SVGID_35_" gradientUnits="userSpaceOnUse" x1="52.6489" y1="405.77" x2="88.8821" y2="405.77">
		<stop class="Gradient2 stopColor" offset="0" style="stop-color:#810000"/>
		<stop class="Gradient1 stopColor" offset="0.9947" style="stop-color:#EB1D25"/>
	</linearGradient>
	<path class="st37" d="M44.43,392.84c-0.67,5.02-1.37,10.07-2.1,15.13l35.6,10.72c0.68-5.04,1.32-10.11,1.92-15.18L44.43,392.84z"/>
	<linearGradient id="SVGID_36_" gradientUnits="userSpaceOnUse" x1="52.6489" y1="427.4297" x2="88.8821" y2="427.4297">
		<stop class="Gradient2 stopColor" offset="0" style="stop-color:#810000"/>
		<stop class="Gradient1 stopColor" offset="0.9947" style="stop-color:#EB1D25"/>
	</linearGradient>
	<path class="st38" d="M41.37,414.52c-0.74,5.02-1.51,10.04-2.31,15.07l35.73,10.76c0.76-4.95,1.5-9.99,2.22-15.09L41.37,414.52z"/>
	<linearGradient id="SVGID_37_" gradientUnits="userSpaceOnUse" x1="52.6489" y1="470.4843" x2="88.8821" y2="470.4843">
		<stop class="Gradient2 stopColor" offset="0" style="stop-color:#810000"/>
		<stop class="Gradient1 stopColor" offset="0.9947" style="stop-color:#EB1D25"/>
	</linearGradient>
	<path class="st39" d="M34.42,457.6c-0.87,5.02-1.75,10.02-2.64,14.96l35.86,10.8c0.83-4.71,1.71-9.72,2.6-14.98L34.42,457.6z"/>
	<linearGradient id="SVGID_38_" gradientUnits="userSpaceOnUse" x1="52.6489" y1="448.9944" x2="88.8821" y2="448.9944">
		<stop class="Gradient2 stopColor" offset="0" style="stop-color:#810000"/>
		<stop class="Gradient1 stopColor" offset="0.9947" style="stop-color:#EB1D25"/>
	</linearGradient>
	<path class="st40" d="M38.03,436.1c-0.81,5.02-1.64,10.03-2.49,15.01l35.8,10.78c0.81-4.85,1.63-9.88,2.45-15.02L38.03,436.1z"/>
</g>
<ellipse class="Colour2 fill" cx="167.6" cy="453.97" rx="16.7" ry="16.75"/>
<ellipse class="Colour2 fill" cx="167.6" cy="493.2" rx="13.53" ry="13.58"/>
<ellipse class="Colour2 fill" cx="167.6" cy="527.46" rx="11" ry="11.04"/>
<ellipse class="Colour2 fill" cx="167.6" cy="556.82" rx="7.52" ry="7.55"/>
<g>
	<linearGradient id="SVGID_39_" gradientUnits="userSpaceOnUse" x1="105.3033" y1="378.2984" x2="105.3033" y2="633.9224">
		<stop class="Gradient1 stopColor" offset="5.347594e-003" style="stop-color:#EB1D25"/>
		<stop class="Gradient2 stopColor" offset="1" style="stop-color:#810000"/>
	</linearGradient>
	<path class="st41" d="M111.49,639.95c-2.57-38.97-7.99-154.52,8.47-266.26c0,0-34.66,123.81-28.58,264.45
		C97.79,638.82,104.49,639.43,111.49,639.95z"/>
	<linearGradient id="SVGID_40_" gradientUnits="userSpaceOnUse" x1="229.8974" y1="378.2832" x2="229.8974" y2="633.0664">
		<stop class="Gradient1 stopColor" offset="5.347594e-003" style="stop-color:#EB1D25"/>
		<stop class="Gradient2 stopColor" offset="1" style="stop-color:#810000"/>
	</linearGradient>
	<path class="st42" d="M223.77,639.08c6.59-0.58,13.3-1.27,20.11-2.06c5.85-140.17-28.63-263.32-28.63-263.32
		C231.59,484.62,226.37,599.28,223.77,639.08z"/>
</g>
<g id="BBodyLogos"></g>
</svg>
