<?xml version="1.0" encoding="utf-8"?>
<!-- Generator: Adobe Illustrator 19.1.0, SVG Export Plug-In . SVG Version: 6.00 Build 0)  -->
<svg version="1.1" id="Layer_1" xmlns="http://www.w3.org/2000/svg" xmlns:xlink="http://www.w3.org/1999/xlink" x="0px" y="0px"
	 viewBox="0 0 335.2 641.14" style="enable-background:new 0 0 335.2 641.14;" xml:space="preserve">
<style type="text/css">
	<![CDATA[
	@font-face{font-family:'codaheavy';src:url('/fonts/coda-heavy-webfont.woff') format('woff')}
	text{font-family:Impact,codaheavy,sans-serif}
	.Colour1.fill{fill-rule:evenodd;clip-rule:evenodd;fill:#373435;}
	.Colour2.fill{fill-rule:evenodd;clip-rule:evenodd;fill:#029347;}
	.Colour3.fill{fill-rule:evenodd;clip-rule:evenodd;fill:#009247;}
	.Colour4.fill{fill-rule:evenodd;clip-rule:evenodd;fill:#E11270;}
	.Colour5.fill{fill-rule:evenodd;clip-rule:evenodd;fill:#D7D684;}
	.Colour6.fill{fill-rule:evenodd;clip-rule:evenodd;fill:#C2CC76;}
	.Colour7.fill{fill-rule:evenodd;clip-rule:evenodd;fill:#EC0D6D;}
	.NeckAndArmTrim.fill{fill-rule:evenodd;clip-rule:evenodd;fill:#DC1A56;stroke:#000000;stroke-width:1.0001;stroke-miterlimit:2.6131;}
	.st0{fill-rule:evenodd;clip-rule:evenodd;fill:none;stroke:#292929;stroke-width:1.0001;stroke-miterlimit:10;}
	.st1{fill-rule:evenodd;clip-rule:evenodd;fill:#FFFFFF;stroke:#292929;stroke-width:1.0001;stroke-miterlimit:2.6131;}
	.st2{fill:none;stroke:#000000;stroke-linecap:round;stroke-linejoin:round;}
	]]>
</style>
<path class="Colour1 fill" d="M291.34,206.68c4.48-15.79,9.37-28.55,12.98-37.24c-1.09,0.18-2.97,0.39-5.19,0
	c-11.75-2.04-17.97-17.96-20.77-25.11c-12.49-31.96-9.72-126.36-9.52-132.5c-13.84-3.75-27.69-7.5-41.53-11.26
	c-2.39,18.27-9.83,53.31-37.21,84c-8.08,9.06-16.47,16.14-24.23,21.65c-7.75-5.47-16.15-12.54-24.23-21.65
	c-27.32-30.8-34.24-66.08-36.34-84C92.03,4.32,78.76,8.08,65.5,11.83c0,3.99,0.01,10.01,0,17.32c-0.04,42.94-0.08,64.56-0.87,71.88
	c-1.81,16.9-6.52,60.81-28.55,67.55c-2.8,0.86-5.28,0.93-6.92,0.87c3.11,7.89,7.32,19.48,11.25,33.77
	c10.91,39.67,13.75,78.69,10.38,128.17C43.02,445.66,2.42,612.35,0.6,619.76c43.67,11.05,102.8,21.41,173.06,20.78
	c64.65-0.57,119.45-10.28,160.94-20.78C318.2,549,304.84,481.31,293.93,417.12C278.6,326.84,272.89,271.66,291.34,206.68z"/>
<path class="st0" d="M98.67,2.44c1.6,14.4,6.57,41.34,24.8,69.14c14.38,21.94,31.28,35.65,42.4,43.3
	c11.12-7.31,27.93-20.4,42.4-41.57c19.45-28.45,24.43-56.49,25.95-70.87"/>
<path class="st0" d="M72.2,9.93c-0.17,8.92-0.45,24.98-0.65,45.2c-0.34,36.39-0.09,54.11-6.06,77.94
	c-5.05,20.17-11.57,32.76-23.36,38.97c-4,2.1-7.74,3.02-10.38,3.46"/>
<path class="st0" d="M262.78,10.1c-0.25,7.45-2.8,92.24,8.76,131.32c2.66,9,8.04,27.19,22.39,32.36c3.28,1.18,6.21,1.39,8.06,1.4"/>
<path class="st0" d="M107.61,14.97c8.95,5.25,30.13,16.06,59.12,15.91c28.27-0.15,48.92-10.65,57.87-15.91"/>
<path class="st0" d="M109.45,22.93c10.2,4.99,29.77,12.92,55.56,13.15c27.06,0.24,47.57-8.11,57.87-13.15"/>
<g>
	<rect x="109.19" y="215.08" class="st1" width="32.02" height="12.12"/>
	<rect x="193.99" y="215.08" class="st1" width="32.02" height="12.12"/>
	<rect x="194.07" y="322.38" class="st1" width="32.02" height="12.12"/>
	<rect x="109.28" y="322.38" class="st1" width="32.02" height="12.12"/>
	<rect x="109.28" y="310.25" class="st1" width="32.02" height="12.12"/>
	<rect x="193.99" y="310.25" class="st1" width="32.02" height="12.12"/>
</g>
<path class="Colour2 fill" d="M236.88,439.89l2.67-0.1l1.73,3.21L236.88,439.89z M230.36,435.39l7.16-0.12l-2.52-4.82l-10.47,0.05
	L230.36,435.39z M230.86,420.96l-15.45-0.15l0.44,5.24l17.23-0.05L230.86,420.96z M214.37,412.72l0.1,6.14l14.12,0.24l-2.32-6.2
	L214.37,412.72z M213.48,402.04l-0.05,5.34l11.06-0.15l-2.37-5.14L213.48,402.04z M220.07,398.19l-2.49-5.24l-5.33-0.05l0.35,5.24
	L220.07,398.19z M211.08,383.34l0.69,5.19h3.9l-2.44-5.19L211.08,383.34z M209.78,433.27l-27.45-42.69l24.88,88.54l11.45,7.51
	L209.78,433.27z M214.67,509.68l-15.6-27.47l-125.4-51.58L214.67,509.68z"/>
<path class="Colour3 fill" d="M219.43,633.27l2.27-5.73l9.28,0.2l-4.2,5.53H219.43z M235.77,622.65l4.2-5.53l-14.22-0.2l-2.27,5.73
	H235.77z M244.85,612.18l4.2-5.53l-19.35-0.2l-2.27,5.73H244.85z M253.93,601.5l4.2-5.53l-24.24-0.2l-2.27,5.73H253.93z
	 M260.35,590.88l-1.73-5.53l-20.93-0.2l-2.27,5.73H260.35z M256.75,580.26l-1.73-5.53l-13.08-0.2l-2.27,5.73H256.75z M253.14,569.44
	l-1.73-5.53l-5.38-0.1l-2.22,5.63H253.14z M250.02,558.57l-1.4-2.72l-0.99,2.74L250.02,558.57z M178.92,556.38l52.43-3.56
	l-27.94-8.3L178.92,556.38z M212.55,578.12l12.54-19.96l-36.83,28.36L212.55,578.12z M182.78,575.74l-3.16,11.51l3.31-0.54
	l2.91-11.07L182.78,575.74z M177.3,576.39l-3.26,12.06l3.36-0.94l2.96-11.22L177.3,576.39z M171.77,576.98l-3.6,12.9l3.51-0.94
	l3.16-12.06L171.77,576.98z M166.24,577.57l-3.9,13.59l3.51-0.94l3.46-12.75L166.24,577.57z M160.57,578.26l-4,14.13l3.51-0.94
	l3.6-13.59L160.57,578.26z M154.99,578.81l-4.39,15.07l3.51-0.94l4-14.43L154.99,578.81z M149.56,579.4l-4.39,15.27l3.31-0.59
	l4.3-15.02L149.56,579.4z M144.03,579.9l-4.74,16.4l3.31-0.59l4.64-16.16L144.03,579.9z M138.3,580.88l-4.74,16.4l3.31-0.59
	l4.64-16.16L138.3,580.88z M132.57,581.28l-5.04,17.54l3.31-0.59l4.94-17.29L132.57,581.28z M127.05,581.87l-4.49,15.86l2.62,1.53
	l5.08-17.74L127.05,581.87z M121.71,582.32l-3.65,13.04l2.62,1.53l4.25-14.92L121.71,582.32z M116.09,582.91l-2.62,9.44l2.62,1.53
	l3.21-11.31L116.09,582.91z M110.56,583.65l-1.88,6.13l2.62,1.53l2.47-8L110.56,583.65z M105.22,584.29l-0.89,2.92l2.62,1.53
	l1.48-4.79L105.22,584.29z M100.63,584.51l-0.22,0.72l2.62,1.53l0.64-2.3L100.63,584.51z M190.61,639.78l-1.68-3.26l-8.64,0.1
	l-0.54,3.56L190.61,639.78z M187.79,633.55l-0.98-3.26l-5.07,0.1l-0.32,3.56L187.79,633.55z M185.13,627.47l-0.98-3.26l-0.92-0.1
	l-0.32,3.56L185.13,627.47z"/>
<path class="Colour4 fill" d="M180.34,594.12l-53.91,36.17l-53.91-9.59L180.34,594.12z M205.34,639.39l3.44-0.11l34.61-85.23l-17.38,6.92
	L205.34,639.39z"/>
<path class="Colour7 fill" d="M209.23,485.96l53.81,38.54l-24.98,15.51L209.23,485.96z M259.04,498.26l3.55-26.13l-8.35-51.08
	l-12.47-10.93L259.04,498.26z M195.16,456.89l-15.21-51.73l-33.18-8.84L195.16,456.89z M177.17,400.66l-2.49-2.27l0.05,4.4l2.52,0.7
	L177.17,400.66z M171.89,395.66l-2.54-2.69l0.05,8.23l2.52,0.8L171.89,395.66z M167.03,390.39l-2.94-3.22l-0.17,12.48l3.16,0.89
	L167.03,390.39z M162.14,385.3l-2.94-3.96l-0.17,17.09l2.91,0.97L162.14,385.3z M157.25,379.47l-2.94-4.41l-0.17,22.13l2.91,0.67
	L157.25,379.47z M152.26,374.09l-2.94-4.41l-0.52,25.83l2.91,0.67L152.26,374.09z M147.43,369.15l-2.94-4.41l-0.57,29.59l2.91,0.67
	L147.43,369.15z M74.66,452.57l104.66,66.8l32.19-5.14L74.66,452.57z M212.65,527.32l-153.44,0.2l-0.75,3.72l117.06,11.69
	L212.65,527.32z M174.93,554.01l-3.36-6.72l-68.23-5.63l-15.21,18.18L174.93,554.01z M82.22,598.67l11.06-13.04l-39.2,9.88
	L82.22,598.67z M84.08,357.74h1.38v-2.27h-1.38V357.74z M88.13,358.68h3.65v-3.8h-3.65V358.68z M94.64,359.37h3.92v-4.99h-3.92
	V359.37z M100.96,359.72h3.92v-4.99h-3.92V359.72z M107.92,360.46h3.92l-0.15-0.89l-3.78-2.12V360.46z M83.53,365.94l2.3,0.27v-2.27
	l-2.3-0.27V365.94z M88.62,367.77l3.73,0.82l-0.1-3.21l-3.73-0.82L88.62,367.77z M95.14,370.34l3.73,0.82l-0.2-4.25l-3.73-0.82
	L95.14,370.34z M101.8,372.96l3.73,0.82l0-5.43l-3.73-0.82L101.8,372.96z M108.47,375.18l3.97,1.46l0.2-1.78l-3.88-4.27
	L108.47,375.18z M83.04,372.57l2.39,2.25l0.35-3.06l-2.74-1.46V372.57z M88.57,378.07l3.95,2.8l0.15-4.42l-3.95-2.1L88.57,378.07z
	 M95.38,384.19l3.8,2.7l0.3-5.16l-3.8-2.7L95.38,384.19z M101.7,390.07l4.49,3.59l-0.04-7.14l-4.15-3.68L101.7,390.07z
	 M82.74,385.03l3.41,5.22l0.2-5.01l-3.46-3.93L82.74,385.03z M89.06,397.58l3.8,5.22l0.1-9.06l-3.46-3.93L89.06,397.58z
	 M95.78,409.15l1.53,1.07l0.3-10.84l-1.48-1.26L95.78,409.15z"/>
<path class="Colour5 fill" d="M255,511.83l-30.41-20.55l-10.47-62.85l28.04,18.87L255,511.83z M198.32,475.34l-62.8-72.53l20.14,42.49
	l-47.39-7.51L198.32,475.34z M150.93,440.61l-3.31-5.88l-0.39,5.19l3.55,2.32L150.93,440.61z M145.55,429.05l-3.75-5.83l0.39,13.24
	l3.55,2.32L145.55,429.05z M139.77,420.74l-3.46-1.19l0.2,12.75l3.55,2.32L139.77,420.74z M134.44,418.97l-3.46-1.19l0.2,10.38
	l3.55,2.32L134.44,418.97z M129.16,417.14l-3.46-1.19l0.2,8.35l3.55,2.32L129.16,417.14z M123.83,415.36l-3.46-1.19l0.2,6.32
	l3.55,2.32L123.83,415.36z M118.74,413.78l-3.46-1.19l0,4.25l3.55,2.32L118.74,413.78z M113.41,411.95l-3.46-1.19l-0.15,2.27
	l3.55,2.32L113.41,411.95z M140.27,438.61l-2.93-2.61l-0.03,3.19l2.88,0.37L140.27,438.61z M134.98,434.81l-2.78-2.36l-0.03,5.86
	l2.88,0.37L134.98,434.81z M129.69,430.78l-3.54-3.01l-0.04,9.35l3.66,0.48L129.69,430.78z M124.5,426.88l-3.54-3.01l-0.04,12.46
	l3.66,0.48L124.5,426.88z M118.95,422.67l-3.56-2.99l0.09,15.77l3.67,0.46L118.95,422.67z M113.62,418.67l-3.56-2.99l-0.16,10.09
	l3.67,4.07L113.62,418.67z M108.34,414.76l-3.56-2.99l-0.41,6.34l3.67,4.07L108.34,414.76z M102.71,410.46l-3.06-2.2l-0.66,1.79
	l3.67,4.07L102.71,410.46z M168.41,519.66l-0.59,2.47l2.67-0.59L168.41,519.66z M162.48,521.99l2.96-0.3l0.79-3.21l-2.27-1.33
	L162.48,521.99z M157.55,521.39l2.96,0.05l1.48-5.53l-2.47-1.48L157.55,521.39z M152.36,521.34l2.96,0.05l2.27-8.4l-2.47-1.48
	L152.36,521.34z M147.63,521.15l2.96,0.05l2.76-10.77l-2.47-1.48L147.63,521.15z M142.59,520.85l2.96,0.05l3.26-13.44l-2.47-1.48
	L142.59,520.85z M137.26,520.55l2.96,0.05l3.95-16.01l-2.47-1.48L137.26,520.55z M132.02,520.16l2.96,0.05l4.44-18.38l-2.47-1.48
	L132.02,520.16z M126.94,519.91l2.96,0.05l5.08-20.7l-2.47-1.48L126.94,519.91z M121.95,519.56l2.96,0.05l5.63-23.12l-2.47-1.48
	L121.95,519.56z M116.82,519.47l2.96,0.05l6.42-25.89l-2.47-1.48L116.82,519.47z M111.59,519.37l2.96,0.05l3.12-13.58l-2.94,0
	L111.59,519.37z M106.25,519.07l2.96,0.05l3.22-12.69l-2.94,0L106.25,519.07z M101.02,518.97l2.96,0.05l3.02-11.9l-2.94,0
	L101.02,518.97z M95.69,518.97l2.96,0.05l2.92-11.3l-2.94,0L95.69,518.97z M90.36,518.87l2.96,0.05l2.82-10.81l-2.94,0L90.36,518.87
	z M85.32,518.58l2.96,0.05l2.59-9.92l-2.94,0L85.32,518.58z M80.39,518.58l2.96,0.05l2.29-8.83l-2.94,0L80.39,518.58z M75.45,518.18
	l2.96,0.05l1.9-7.82l-2.94,0L75.45,518.18z M70.22,517.79l2.96,0.05l1.6-6.73l-2.94,0L70.22,517.79z M65.08,517.29l2.96,0.05
	l1.31-5.94l-2.94,0L65.08,517.29z M60.14,517.09l2.96,0.05l1.15-5.34l-2.94,0L60.14,517.09z M121.77,490.83l-2.52-1.78l-2.63,9.67
	l2.64,1.87L121.77,490.83z M117.32,487.57l-2.52-1.78l-2.43,8.88l2.64,1.87L117.32,487.57z M112.98,485.05l-2.52-1.78l-2.03,7.35
	l2.64,1.87L112.98,485.05z M108.34,482.19l-2.52-1.78l-1.54,5.97l2.64,1.88L108.34,482.19z M103.6,479.32l-2.52-1.78l-1.15,4.48
	l2.64,1.87L103.6,479.32z M99.16,476.41l-2.52-1.78l-0.95,2.9l2.64,1.87L99.16,476.41z M94.91,473.64l-2.52-1.78l-0.65,1.82
	l2.64,1.88L94.91,473.64z M109.77,497.84l0.44,4.45l4.59,1.48L109.77,497.84z M103.75,499.91l4.54,1.83l-2.67-8.5l-4.84-5.34
	L103.75,499.91z M97.53,497.64l4.49,1.68l-4-12.9l-3.8-0.35L97.53,497.64z M92.05,495.27l3.95,1.28l-3.51-10.62l-3.8-0.35
	L92.05,495.27z M86.42,493.59l3.55,0.94l-2.96-8.7l-3.46-0.35L86.42,493.59z M79.8,491.46l3.9,0.89l-2.37-7.11l-3.46-0.35
	L79.8,491.46z M73.78,489.34l3.9,0.89L76,485.04l-3.46-0.35L73.78,489.34z M67.66,487.07l3.9,0.89l-0.59-3.16l-3.46-0.35
	L67.66,487.07z M71.71,498.53l4.05,3.06l-3.36-10.72l-3.7-1.09L71.71,498.53z M79.51,505.84l3.36,0.4l-4.15-12.99l-3.7-1.09
	L79.51,505.84z M85.04,505.74l3.36,0.4l-3.51-10.43l-3.7-1.09L85.04,505.74z M90.27,505.2l3.36,0.4l-2.62-7.56l-3.7-1.09
	L90.27,505.2z M95.65,505l2.86-0.4l-1.23-4.25l-3.26-1.09L95.65,505z M100.49,504.56l3.51,0l-0.44-1.63l-3.26-1.09L100.49,504.56z"
	/>
<path class="Colour6 fill" d="M236.19,546.66l33.35-22.57l2.95-0.25l1.03,4.91l-37.06,18.7L236.19,546.66z M276.18,541.32l-1.05-5.02
	l-32.6,11.67L276.18,541.32z M247.32,549.82l32.13,6.1l-1.08-4.74L247.32,549.82z M283.29,572.34l-1.25-5.47l-32.2-12.56
	L283.29,572.34z M51.73,561.91l-1.58,6.92l50.04,9.09l-27.25-13.64l23.01-18.87L51.73,561.91z M104.63,579.1l52.03-8.1l-13.43-9.39
	l-53.42,2.87L104.63,579.1z M161.7,564.97l31.89,5.43l20.04-11.76L161.7,564.97z M279.48,631.31l-11.93,1.79l8.99-34.49
	L279.48,631.31z M270.46,589.86l-34.11,40.96l0.3,6.25l18.25-2.16L270.46,589.86z M123.83,639.15l26.13,1.13l27.52-37.85
	L123.83,639.15z M193.52,609.59l7.9-21.15l-25.67,23.02L193.52,609.59z M200.07,628.2l12.95-31.97l-17.2,14.6L200.07,628.2z
	 M173.6,640.36l3.75-10.28l-13.92,10.34L173.6,640.36z"/>
<path class="Colour1 fill" d="M301.69,175.17c-1.86-0.03-4.65-0.28-7.76-1.4c-9.9-3.57-15.54-13.35-18.95-22.02l-0.17,0.72
	c-24,82.46-27.43,150.41-26.31,195.91c1.43,57.85,10.92,107.48,21.63,163.46c9.24,48.29,26.82,116.31,26.82,116.31
	c13.53-2.62,26.1-5.48,37.64-8.4C318.2,549,304.84,481.31,293.93,417.12c-15.34-90.28-21.04-145.46-2.6-210.44
	c3.56-12.53,10.64-31.46,10.66-31.51L301.69,175.17z"/>
<path class="Colour1 fill" d="M31.75,175.5c2.64-0.44,6.39-1.36,10.38-3.46c8.11-4.27,13.72-11.55,18.08-22.25l0.18,0.72
	c26.13,99.18,26.19,177.12,21.97,227.82c-3.4,40.79-11.35,85.45-16.44,114.03c-9.91,55.65-29.5,135.44-29.5,135.44
	c-12.88-2.53-24.84-5.26-35.83-8.04c1.82-7.41,42.42-174.1,50.19-288.38c3.36-49.48,0.53-88.5-10.38-128.17
	c-3.02-10.98-6.21-20.37-8.93-27.71L31.75,175.5z"/>
<g>
	<path class="st2" d="M248.06,348.38c1.43,57.85,10.92,107.48,21.63,163.46c9.24,48.29,26.82,116.31,26.82,116.31
		c13.53-2.62,26.1-5.48,37.64-8.4C317.75,549,304.4,481.31,293.49,417.12c-15.34-90.28-21.04-145.46-2.6-210.44
		c3.56-12.53,10.64-31.46,10.66-31.51l-0.3,0c-1.86-0.03-4.65-0.28-7.76-1.4c-9.9-3.57-15.54-13.35-18.95-22.02l-0.17,0.72
		C250.37,234.93,246.94,302.88,248.06,348.38z"/>
	<path class="st2" d="M0.16,619.76c10.99,2.78,22.95,5.52,35.83,8.04c0,0,19.59-79.79,29.5-135.44
		c5.09-28.57,13.05-73.24,16.44-114.03c4.22-50.7,4.16-128.64-21.97-227.82l-0.18-0.72c-4.36,10.69-9.97,17.98-18.08,22.25
		c-4,2.1-7.74,3.02-10.38,3.46l-0.28,0c2.72,7.34,5.91,16.73,8.93,27.71c10.91,39.67,13.75,78.69,10.38,128.17
		C42.58,445.66,1.98,612.35,0.16,619.76z"/>
</g>
<path class="NeckAndArmTrim fill" d="M109.45,22.93c10.2,4.99,29.77,12.92,55.56,13.15c27.06,0.24,47.57-8.11,57.87-13.15l1.74-7.95
	c-8.95,5.25-29.6,15.75-57.87,15.91c-28.99,0.16-50.17-10.65-59.12-15.91L109.45,22.93z"/>
<path class="NeckAndArmTrim fill" d="M31.75,175.5c2.64-0.44,6.39-1.36,10.38-3.46c11.79-6.21,18.31-18.8,23.36-38.97
	c5.97-23.83,5.71-41.55,6.06-77.94c0.19-20.21,0.47-36.27,0.65-45.2l-6.7,1.9c0,3.99,0.01,10.01,0,17.32
	c-0.04,42.94-0.08,64.56-0.87,71.88c-1.81,16.9-6.52,60.81-28.55,67.55c-2.8,0.86-5.28,0.93-6.92,0.87L31.75,175.5z"/>
<path class="NeckAndArmTrim fill" d="M301.99,175.17c-1.85-0.01-4.78-0.22-8.06-1.4c-14.35-5.17-19.73-23.36-22.39-32.36
	c-11.56-39.08-9.01-123.86-8.76-131.32l6.06,1.73c-0.2,6.14-2.97,100.54,9.52,132.5c2.79,7.15,9.01,23.07,20.77,25.11
	c2.22,0.39,4.1,0.18,5.19,0L301.99,175.17z"/>
<path class="NeckAndArmTrim fill" d="M234.22,2.44c-1.53,14.38-6.5,42.42-25.95,70.87c-14.47,21.16-31.28,34.25-42.4,41.57
	c-11.12-7.65-28.01-21.36-42.4-43.3c-18.23-27.8-23.2-54.73-24.8-69.14l6.63-1.87c2.1,17.92,9.02,53.2,36.34,84
	c8.08,9.11,16.48,16.18,24.23,21.65c7.76-5.51,16.14-12.59,24.23-21.65c27.38-30.69,34.82-65.73,37.21-84L234.22,2.44z"/>
<g id="FBodyLogos"></g>
</svg>
