<?xml version="1.0" encoding="utf-8"?>
<!-- Generator: Adobe Illustrator 19.1.0, SVG Export Plug-In . SVG Version: 6.00 Build 0)  -->
<svg version="1.1" id="Layer_1" xmlns="http://www.w3.org/2000/svg" xmlns:xlink="http://www.w3.org/1999/xlink" x="0px" y="0px"
	 viewBox="0 0 335.2 641.14" style="enable-background:new 0 0 335.2 641.14;" xml:space="preserve">
<style type="text/css">
	<![CDATA[
	@font-face{font-family:'codaheavy';src:url('/fonts/coda-heavy-webfont.woff') format('woff')}
	text{font-family:Impact,codaheavy,sans-serif}
	.Colour1.fill{fill:#000000;}
	.Colour2.fill{fill:#B2B2B2;}
	.NeckAndArmTrim.fill{fill:#BE1E2D;stroke:#000000;stroke-miterlimit:10;}
	.SidePanels.fill{fill:#000000;stroke:#000000;stroke-miterlimit:10;}
	.Gradient1.stopColor{stop-color:#EB1D25;}
	.Gradient2.stopColor{stop-color:#810000;}
	.st0{fill:none;stroke:#000000;stroke-linecap:round;stroke-linejoin:round;}
	.st1{fill:none;stroke:#000000;stroke-miterlimit:10;}
	.st2{fill:#FFFFFF;stroke:#000000;}
	.st3{fill:url(#SVGID_1_);}
	.st4{fill:url(#SVGID_2_);}
	.st5{fill:url(#SVGID_3_);}
	.st6{fill:url(#SVGID_4_);}
	.st7{fill:url(#SVGID_5_);}
	.st8{fill:url(#SVGID_6_);}
	.st9{fill:url(#SVGID_7_);}
	.st10{fill:url(#SVGID_8_);}
	.st11{fill:url(#SVGID_9_);}
	.st12{fill:url(#SVGID_10_);}
	.st13{fill:url(#SVGID_11_);}
	.st14{fill:url(#SVGID_12_);}
	.st15{fill:url(#SVGID_13_);}
	.st16{fill:url(#SVGID_14_);}
	.st17{fill:url(#SVGID_15_);}
	.st18{fill:url(#SVGID_16_);}
	.st19{fill:url(#SVGID_17_);}
	.st20{fill:url(#SVGID_18_);}
	.st21{fill:url(#SVGID_19_);}
	.st22{fill:url(#SVGID_20_);}
	.st23{fill:url(#SVGID_21_);}
	.st24{fill:url(#SVGID_22_);}
	.st25{fill:url(#SVGID_23_);}
	.st26{fill:url(#SVGID_24_);}
	.st27{fill:url(#SVGID_25_);}
	.st28{fill:url(#SVGID_26_);}
	.st29{fill:url(#SVGID_27_);}
	.st30{fill:url(#SVGID_28_);}
	.st31{fill:url(#SVGID_29_);}
	.st32{fill:url(#SVGID_30_);}
	.st33{fill:url(#SVGID_31_);}
	.st34{fill:url(#SVGID_32_);}
	.st35{fill:url(#SVGID_33_);}
	.st36{fill:url(#SVGID_34_);}
	.st37{fill:url(#SVGID_35_);}
	.st38{fill:url(#SVGID_36_);}
	.st39{fill:url(#SVGID_37_);}
	.st40{fill:url(#SVGID_38_);}
	.st41{fill:url(#SVGID_39_);}
	.st42{fill:url(#SVGID_40_);}
	]]>
</style>
<path class="Colour1 fill" d="M227.31-0.43c13.84,3.76,27.69,7.53,41.53,11.29c-0.2,6.16-2.97,100.85,9.52,132.91
	c2.79,7.17,9.01,23.15,20.77,25.19c2.22,0.39,4.1,0.18,5.19,0c-3.61,8.71-8.5,21.51-12.98,37.35
	c-18.44,65.18-12.74,120.54,2.6,211.1c10.91,64.39,24.26,132.3,40.67,203.28c-41.5,10.53-96.29,20.27-160.94,20.85
	c-70.25,0.63-129.39-9.77-173.06-20.85c1.82-7.43,42.42-174.64,50.19-289.28c3.36-49.63,0.53-88.77-10.38-128.57
	c-3.93-14.34-8.14-25.96-11.25-33.88c1.64,0.07,4.12-0.01,6.92-0.87c22.03-6.76,26.74-50.8,28.55-67.76
	c0.79-7.35,0.82-29.03,0.87-72.1c0.01-7.33,0-13.37,0-17.37C78.77,7.1,92.03,3.33,105.3-0.43c2.1,17.98,9.02,53.37,36.34,84.26
	c8.08,9.14,16.48,16.23,24.23,21.72c7.76-5.52,16.14-12.62,24.23-21.72C217.47,53.05,224.91,17.9,227.31-0.43z"/>
<path class="st0" d="M0.6,620.69c43.67,11.08,102.8,21.48,173.06,20.85c64.65-0.58,119.45-10.32,160.94-20.85
	c-16.41-70.98-29.76-138.88-40.67-203.28c-15.34-90.56-21.04-145.91-2.6-211.1c4.48-15.84,9.37-28.64,12.98-37.35
	c-1.09,0.18-2.97,0.39-5.19,0c-11.75-2.05-17.97-18.02-20.77-25.19c-12.49-32.06-9.72-126.75-9.52-132.91
	c-13.84-3.76-27.69-7.53-41.53-11.29c-2.39,18.33-9.83,53.47-37.21,84.26c-8.08,9.09-16.47,16.19-24.23,21.72
	c-7.75-5.49-16.15-12.58-24.23-21.72c-27.32-30.9-34.24-66.28-36.34-84.26C92.03,3.33,78.76,7.1,65.5,10.86c0,4,0.01,10.04,0,17.37
	c-0.04,43.07-0.08,64.76-0.87,72.1c-1.81,16.96-6.52,61-28.55,67.76c-2.8,0.86-5.28,0.93-6.92,0.87c3.1,7.92,7.32,19.54,11.25,33.88
	c10.91,39.79,13.75,78.93,10.38,128.57C43.02,446.06,2.42,613.27,0.6,620.69z"/>
<path class="st1" d="M98.67,1.45c1.6,14.45,6.57,41.47,24.8,69.35c14.38,22.01,31.28,35.76,42.4,43.44
	c11.12-7.34,27.93-20.47,42.4-41.7C227.72,44,232.69,15.88,234.22,1.45"/>
<path class="st1" d="M72.2,8.96c-0.17,8.95-0.45,25.06-0.65,45.34c-0.34,36.5-0.09,54.28-6.06,78.18
	c-5.05,20.23-11.57,32.87-23.36,39.09c-4,2.11-7.74,3.03-10.38,3.47"/>
<path class="st1" d="M262.78,9.13c-0.25,7.48-2.8,92.53,8.76,131.73c2.66,9.02,8.04,27.27,22.39,32.46
	c3.28,1.18,6.21,1.39,8.06,1.41"/>
<path class="st1" d="M107.61,14.02c8.95,5.27,30.13,16.11,59.12,15.96c28.27-0.15,48.92-10.69,57.87-15.96"/>
<path class="st1" d="M109.45,22c10.2,5.01,29.77,12.96,55.56,13.19c27.06,0.24,47.57-8.13,57.87-13.19"/>
<g>
	<rect x="109.19" y="214.75" class="st2" width="32.02" height="12.16"/>
	<rect x="193.99" y="214.75" class="st2" width="32.02" height="12.16"/>
	<rect x="194.07" y="322.38" class="st2" width="32.02" height="12.16"/>
	<rect x="109.28" y="322.38" class="st2" width="32.02" height="12.16"/>
	<rect x="109.28" y="310.22" class="st2" width="32.02" height="12.16"/>
	<rect x="193.99" y="310.22" class="st2" width="32.02" height="12.16"/>
</g>
<path class="NeckAndArmTrim fill" d="M234.22,1.45c-1.53,14.43-6.5,42.55-25.95,71.09c-14.47,21.23-31.28,34.36-42.4,41.7
	c-11.12-7.68-28.01-21.43-42.4-43.44c-18.23-27.88-23.2-54.9-24.8-69.35l6.63-1.88c2.1,17.98,9.02,53.37,36.34,84.26
	c8.08,9.14,16.48,16.23,24.23,21.72c7.76-5.52,16.14-12.62,24.23-21.72c27.38-30.79,34.82-65.93,37.21-84.26L234.22,1.45z"/>
<path class="NeckAndArmTrim fill" d="M31.75,175.05c2.64-0.44,6.39-1.36,10.38-3.47c11.79-6.23,18.31-18.86,23.36-39.09
	c5.97-23.9,5.71-41.68,6.06-78.18c0.19-20.28,0.47-36.38,0.65-45.34l-6.7,1.9c0,4,0.01,10.04,0,17.37
	c-0.04,43.07-0.08,64.76-0.87,72.1c-1.81,16.96-6.52,61-28.55,67.76c-2.8,0.86-5.28,0.93-6.92,0.87L31.75,175.05z"/>
<path class="NeckAndArmTrim fill" d="M301.99,174.72c-1.85-0.01-4.78-0.22-8.06-1.41c-14.35-5.19-19.73-23.43-22.39-32.46
	c-11.56-39.2-9.01-124.25-8.76-131.73l6.06,1.74c-0.2,6.16-2.97,100.85,9.52,132.91c2.79,7.17,9.01,23.15,20.77,25.19
	c2.22,0.39,4.1,0.18,5.19,0L301.99,174.72z"/>
<path class="NeckAndArmTrim fill" d="M109.45,22c10.2,5.01,29.77,12.96,55.56,13.19c27.06,0.24,47.57-8.13,57.87-13.19l1.74-7.98
	c-8.95,5.27-29.6,15.8-57.87,15.96c-28.99,0.16-50.17-10.69-59.12-15.96L109.45,22z"/>
<g>
	<path class="SidePanels fill" d="M301.69,174.71c-1.86-0.03-4.66-0.28-7.76-1.4c-9.9-3.58-15.54-13.39-18.95-22.09l-0.17,0.72
		c-24,82.72-27.43,150.88-26.31,196.53c1.43,58.03,10.92,107.82,21.63,163.97c9.24,48.44,26.82,116.68,26.82,116.68
		c13.53-2.63,26.1-5.5,37.64-8.42c-16.41-70.98-29.76-138.88-40.67-203.28c-15.34-90.56-21.04-145.91-2.6-211.1
		c3.56-12.57,10.64-31.55,10.66-31.6L301.69,174.71z"/>
	<path class="SidePanels fill" d="M31.75,175.05c2.64-0.44,6.39-1.36,10.38-3.47c8.11-4.28,13.72-11.59,18.08-22.32l0.18,0.72
		c26.13,99.49,26.19,177.68,21.97,228.53c-3.4,40.92-11.35,85.72-16.44,114.38c-9.91,55.82-29.5,135.87-29.5,135.87
		c-12.88-2.54-24.84-5.28-35.83-8.07c1.82-7.43,42.42-174.64,50.19-289.28c3.36-49.63,0.53-88.77-10.38-128.57
		c-3.02-11.02-6.21-20.43-8.93-27.8L31.75,175.05z"/>
</g>
<linearGradient id="SVGID_1_" gradientUnits="userSpaceOnUse" x1="248.327" y1="318.7377" x2="280.9919" y2="318.7377">
	<stop class="Gradient1 stopColor" offset="5.347594e-003" style="stop-color:#EB1D25"/>
	<stop class="Gradient2 stopColor" offset="1" style="stop-color:#810000"/>
</linearGradient>
<path class="st3" d="M248.58,315.56c-0.16,5.5-0.24,10.78-0.26,15.85l32.66-9.85c-0.39-5.26-0.68-10.42-0.88-15.51L248.58,315.56z"
	/>
<linearGradient id="SVGID_2_" gradientUnits="userSpaceOnUse" x1="259.6913" y1="201.4074" x2="297.2833" y2="201.4074">
	<stop class="Gradient1 stopColor" offset="5.347594e-003" style="stop-color:#EB1D25"/>
	<stop class="Gradient2 stopColor" offset="1" style="stop-color:#810000"/>
</linearGradient>
<path class="st4" d="M263.11,198.16c-1.23,5.69-2.37,11.29-3.42,16.8l31.93-9.62c1.58-5.44,3.73-11.89,5.66-17.48L263.11,198.16z"/>
<linearGradient id="SVGID_3_" gradientUnits="userSpaceOnUse" x1="248.8302" y1="296.0951" x2="279.8952" y2="296.0951">
	<stop class="Gradient1 stopColor" offset="5.347594e-003" style="stop-color:#EB1D25"/>
	<stop class="Gradient2 stopColor" offset="1" style="stop-color:#810000"/>
</linearGradient>
<path class="st5" d="M279.85,283.53l-30.16,9.09c-0.37,5.51-0.65,10.85-0.86,16.03l31.06-9.36
	C279.77,293.97,279.75,288.72,279.85,283.53z"/>
<linearGradient id="SVGID_4_" gradientUnits="userSpaceOnUse" x1="252.4457" y1="249.6687" x2="284.2948" y2="249.6687">
	<stop class="Gradient1 stopColor" offset="5.347594e-003" style="stop-color:#EB1D25"/>
	<stop class="Gradient2 stopColor" offset="1" style="stop-color:#810000"/>
</linearGradient>
<path class="st6" d="M254.55,245.95c-0.79,5.59-1.49,11.05-2.1,16.4l29.43-8.87c0.65-5.5,1.45-10.99,2.42-16.5L254.55,245.95z"/>
<linearGradient id="SVGID_5_" gradientUnits="userSpaceOnUse" x1="255.5954" y1="225.7911" x2="289.583" y2="225.7911">
	<stop class="Gradient1 stopColor" offset="5.347594e-003" style="stop-color:#EB1D25"/>
	<stop class="Gradient2 stopColor" offset="1" style="stop-color:#810000"/>
</linearGradient>
<path class="st7" d="M258.35,222.2c-1.01,5.63-1.93,11.17-2.76,16.6l30.07-9.06c1.13-5.61,2.43-11.25,3.92-16.95L258.35,222.2z"/>
<linearGradient id="SVGID_6_" gradientUnits="userSpaceOnUse" x1="279.1054" y1="556.595" x2="320.7901" y2="556.595">
	<stop class="Gradient1 stopColor" offset="5.347594e-003" style="stop-color:#EB1D25"/>
	<stop class="Gradient2 stopColor" offset="1" style="stop-color:#810000"/>
</linearGradient>
<path class="st8" d="M279.11,555.03c1.12,4.98,2.26,9.92,3.38,14.75l38.31-11.55c-1.05-4.95-2.11-9.91-3.13-14.83L279.11,555.03z"/>
<linearGradient id="SVGID_7_" gradientUnits="userSpaceOnUse" x1="283.9763" y1="577.7721" x2="325.3598" y2="577.7721">
	<stop class="Gradient1 stopColor" offset="5.347594e-003" style="stop-color:#EB1D25"/>
	<stop class="Gradient2 stopColor" offset="1" style="stop-color:#810000"/>
</linearGradient>
<path class="st9" d="M283.98,576.17c1.2,5.11,2.38,10.05,3.5,14.72l37.88-11.42c-1.08-4.94-2.16-9.89-3.21-14.8L283.98,576.17z"/>
<linearGradient id="SVGID_8_" gradientUnits="userSpaceOnUse" x1="274.4612" y1="535.3674" x2="316.3449" y2="535.3674">
	<stop class="Gradient1 stopColor" offset="5.347594e-003" style="stop-color:#EB1D25"/>
	<stop class="Gradient2 stopColor" offset="1" style="stop-color:#810000"/>
</linearGradient>
<path class="st10" d="M274.46,533.82c1.04,4.89,2.11,9.85,3.21,14.8l38.67-11.66c-1.02-4.97-2.03-9.92-3.02-14.86L274.46,533.82z"/>
<linearGradient id="SVGID_9_" gradientUnits="userSpaceOnUse" x1="289.0214" y1="598.9056" x2="330.0515" y2="598.9056">
	<stop class="Gradient1 stopColor" offset="5.347594e-003" style="stop-color:#EB1D25"/>
	<stop class="Gradient2 stopColor" offset="1" style="stop-color:#810000"/>
</linearGradient>
<path class="st11" d="M289.02,597.25c1.32,5.43,2.54,10.38,3.61,14.68l37.42-11.28c-1.11-4.94-2.21-9.87-3.29-14.78L289.02,597.25z"
	/>
<linearGradient id="SVGID_10_" gradientUnits="userSpaceOnUse" x1="270.1515" y1="514.0833" x2="312.0246" y2="514.0833">
	<stop class="Gradient1 stopColor" offset="5.347594e-003" style="stop-color:#EB1D25"/>
	<stop class="Gradient2 stopColor" offset="1" style="stop-color:#810000"/>
</linearGradient>
<path class="st12" d="M270.15,512.52c0.91,4.79,1.91,9.78,2.96,14.88l38.91-11.73c-0.99-4.99-1.95-9.94-2.91-14.89L270.15,512.52z"
	/>
<linearGradient id="SVGID_11_" gradientUnits="userSpaceOnUse" x1="255.2038" y1="428.3709" x2="296.116" y2="428.3709">
	<stop class="Gradient1 stopColor" offset="5.347594e-003" style="stop-color:#EB1D25"/>
	<stop class="Gradient2 stopColor" offset="1" style="stop-color:#810000"/>
</linearGradient>
<path class="st13" d="M257.44,441.7l38.68-11.66c-0.73-4.21-1.48-8.44-2.18-12.62c-0.14-0.8-0.26-1.58-0.4-2.37L255.2,426.6
	C255.91,431.64,256.65,436.67,257.44,441.7z"/>
<linearGradient id="SVGID_12_" gradientUnits="userSpaceOnUse" x1="248.9375" y1="363.1634" x2="285.7854" y2="363.1634">
	<stop class="Gradient1 stopColor" offset="5.347594e-003" style="stop-color:#EB1D25"/>
	<stop class="Gradient2 stopColor" offset="1" style="stop-color:#810000"/>
</linearGradient>
<path class="st14" d="M248.94,360.67c0.23,5.23,0.54,10.39,0.89,15.5l35.95-10.84c-0.71-5.17-1.37-10.23-1.96-15.18L248.94,360.67z"
	/>
<linearGradient id="SVGID_13_" gradientUnits="userSpaceOnUse" x1="252.4453" y1="406.7717" x2="292.4425" y2="406.7717">
	<stop class="Gradient1 stopColor" offset="5.347594e-003" style="stop-color:#EB1D25"/>
	<stop class="Gradient2 stopColor" offset="1" style="stop-color:#810000"/>
</linearGradient>
<path class="st15" d="M252.45,404.82c0.57,5.09,1.19,10.16,1.85,15.21l38.14-11.5c-0.85-5.12-1.67-10.13-2.45-15.03L252.45,404.82z"
	/>
<linearGradient id="SVGID_14_" gradientUnits="userSpaceOnUse" x1="250.3259" y1="385.0482" x2="288.9677" y2="385.0482">
	<stop class="Gradient1 stopColor" offset="5.347594e-003" style="stop-color:#EB1D25"/>
	<stop class="Gradient2 stopColor" offset="1" style="stop-color:#810000"/>
</linearGradient>
<path class="st16" d="M250.33,382.86c0.41,5.16,0.88,10.27,1.4,15.35l37.24-11.22c-0.8-5.14-1.55-10.17-2.26-15.09L250.33,382.86z"
	/>
<linearGradient id="SVGID_15_" gradientUnits="userSpaceOnUse" x1="248.3428" y1="341.0756" x2="283.0562" y2="341.0756">
	<stop class="Gradient1 stopColor" offset="5.347594e-003" style="stop-color:#EB1D25"/>
	<stop class="Gradient2 stopColor" offset="1" style="stop-color:#810000"/>
</linearGradient>
<path class="st17" d="M248.34,338.24c0.03,3.52,0.08,6.94,0.16,10.23c0.05,1.83,0.12,3.63,0.18,5.44l34.37-10.36
	c-0.58-5.2-1.09-10.31-1.53-15.31L248.34,338.24z"/>
<linearGradient id="SVGID_16_" gradientUnits="userSpaceOnUse" x1="266.0949" y1="492.7256" x2="307.8534" y2="492.7256">
	<stop class="Gradient1 stopColor" offset="5.347594e-003" style="stop-color:#EB1D25"/>
	<stop class="Gradient2 stopColor" offset="1" style="stop-color:#810000"/>
</linearGradient>
<path class="st18" d="M266.09,491.13c0.93,4.93,1.87,9.91,2.83,14.92l38.93-11.74c-0.96-5-1.89-9.96-2.82-14.92L266.09,491.13z"/>
<linearGradient id="SVGID_17_" gradientUnits="userSpaceOnUse" x1="258.4861" y1="449.8789" x2="299.9011" y2="449.8789">
	<stop class="Gradient1 stopColor" offset="5.347594e-003" style="stop-color:#EB1D25"/>
	<stop class="Gradient2 stopColor" offset="1" style="stop-color:#810000"/>
</linearGradient>
<path class="st19" d="M258.49,448.22c0.81,4.99,1.66,9.99,2.53,15.01l38.88-11.72c-0.9-5.01-1.79-10-2.66-14.97L258.49,448.22z"/>
<linearGradient id="SVGID_18_" gradientUnits="userSpaceOnUse" x1="262.1621" y1="471.3238" x2="303.8137" y2="471.3238">
	<stop class="Gradient1 stopColor" offset="5.347594e-003" style="stop-color:#EB1D25"/>
	<stop class="Gradient2 stopColor" offset="1" style="stop-color:#810000"/>
</linearGradient>
<path class="st20" d="M262.16,469.71c0.88,4.96,1.8,9.94,2.73,14.95l38.92-11.73c-0.93-5-1.84-9.98-2.74-14.94L262.16,469.71z"/>
<linearGradient id="SVGID_19_" gradientUnits="userSpaceOnUse" x1="250.1974" y1="273.0897" x2="281.1345" y2="273.0897">
	<stop class="Gradient1 stopColor" offset="5.347594e-003" style="stop-color:#EB1D25"/>
	<stop class="Gradient2 stopColor" offset="1" style="stop-color:#810000"/>
</linearGradient>
<path class="st21" d="M251.67,269.42c-0.58,5.54-1.06,10.95-1.47,16.21l29.87-9c0.22-5.4,0.57-10.76,1.07-16.09L251.67,269.42z"/>
<linearGradient id="SVGID_20_" gradientUnits="userSpaceOnUse" x1="52.6489" y1="200.2632" x2="88.8821" y2="200.2632">
	<stop class="Gradient2 stopColor" offset="0" style="stop-color:#810000"/>
	<stop class="Gradient1 stopColor" offset="0.9947" style="stop-color:#EB1D25"/>
</linearGradient>
<path class="st22" d="M35.47,186.52c1.63,4.94,3.3,10.39,4.93,16.33c0.09,0.34,0.17,0.67,0.26,1.01l33.68,10.15
	c-0.95-5.48-1.98-11.05-3.09-16.7L35.47,186.52z"/>
<linearGradient id="SVGID_21_" gradientUnits="userSpaceOnUse" x1="52.6489" y1="224.4977" x2="88.8821" y2="224.4977">
	<stop class="Gradient2 stopColor" offset="0" style="stop-color:#810000"/>
	<stop class="Gradient1 stopColor" offset="0.9947" style="stop-color:#EB1D25"/>
</linearGradient>
<path class="st23" d="M42.58,211.27c1.38,5.61,2.59,11.23,3.66,16.87l31.8,9.59c-0.75-5.41-1.58-10.92-2.49-16.52L42.58,211.27z"/>
<linearGradient id="SVGID_22_" gradientUnits="userSpaceOnUse" x1="52.6489" y1="294.6304" x2="88.8821" y2="294.6304">
	<stop class="Gradient2 stopColor" offset="0" style="stop-color:#810000"/>
	<stop class="Gradient1 stopColor" offset="0.9947" style="stop-color:#EB1D25"/>
</linearGradient>
<path class="st24" d="M51.92,281.9c0.15,5.18,0.21,10.44,0.18,15.82l31.97,9.64c-0.17-5.2-0.41-10.53-0.73-15.99L51.92,281.9z"/>
<linearGradient id="SVGID_23_" gradientUnits="userSpaceOnUse" x1="52.6489" y1="248.2772" x2="88.8821" y2="248.2772">
	<stop class="Gradient2 stopColor" offset="0" style="stop-color:#810000"/>
	<stop class="Gradient1 stopColor" offset="0.9947" style="stop-color:#EB1D25"/>
</linearGradient>
<path class="st25" d="M47.53,235.36c0.9,5.43,1.66,10.91,2.29,16.46l31.08,9.37c-0.56-5.35-1.18-10.79-1.89-16.34L47.53,235.36z"/>
<linearGradient id="SVGID_24_" gradientUnits="userSpaceOnUse" x1="52.6489" y1="271.6389" x2="88.8821" y2="271.6389">
	<stop class="Gradient2 stopColor" offset="0" style="stop-color:#810000"/>
	<stop class="Gradient1 stopColor" offset="0.9947" style="stop-color:#EB1D25"/>
</linearGradient>
<path class="st26" d="M50.54,258.88c0.49,5.29,0.86,10.65,1.12,16.11l31.24,9.42c-0.36-5.28-0.79-10.66-1.31-16.16L50.54,258.88z"/>
<linearGradient id="SVGID_25_" gradientUnits="userSpaceOnUse" x1="52.6489" y1="534.4765" x2="88.8821" y2="534.4765">
	<stop class="Gradient2 stopColor" offset="0" style="stop-color:#810000"/>
	<stop class="Gradient1 stopColor" offset="0.9947" style="stop-color:#EB1D25"/>
</linearGradient>
<path class="st27" d="M22.38,521.66c-1.02,5.08-2.03,10.03-3.03,14.86l35.74,10.77c1.06-4.91,2.11-9.87,3.13-14.83L22.38,521.66z"/>
<linearGradient id="SVGID_26_" gradientUnits="userSpaceOnUse" x1="52.6489" y1="513.1757" x2="88.8821" y2="513.1757">
	<stop class="Gradient2 stopColor" offset="0" style="stop-color:#810000"/>
	<stop class="Gradient1 stopColor" offset="0.9947" style="stop-color:#EB1D25"/>
</linearGradient>
<path class="st28" d="M26.58,500.32c-0.97,5.05-1.94,10.02-2.91,14.89l35.88,10.82c1.02-5.01,2.02-9.99,2.97-14.88L26.58,500.32z"/>
<linearGradient id="SVGID_27_" gradientUnits="userSpaceOnUse" x1="52.6489" y1="555.7244" x2="88.8821" y2="555.7244">
	<stop class="Gradient2 stopColor" offset="0" style="stop-color:#810000"/>
	<stop class="Gradient1 stopColor" offset="0.9947" style="stop-color:#EB1D25"/>
</linearGradient>
<path class="st29" d="M18.02,542.95c-1.07,5.12-2.12,10.07-3.14,14.82l35.57,10.72c1.07-4.81,2.16-9.76,3.26-14.79L18.02,542.95z"/>
<linearGradient id="SVGID_28_" gradientUnits="userSpaceOnUse" x1="52.6489" y1="491.8097" x2="88.8821" y2="491.8097">
	<stop class="Gradient2 stopColor" offset="0" style="stop-color:#810000"/>
	<stop class="Gradient1 stopColor" offset="0.9947" style="stop-color:#EB1D25"/>
</linearGradient>
<path class="st30" d="M66.49,489.74L30.6,478.93c-0.92,5.03-1.85,10.02-2.78,14.93l35.94,10.83c0.76-4.02,1.49-7.97,2.17-11.79
	C66.11,491.87,66.3,490.81,66.49,489.74z"/>
<linearGradient id="SVGID_29_" gradientUnits="userSpaceOnUse" x1="52.6489" y1="317.3038" x2="88.8821" y2="317.3038">
	<stop class="Gradient2 stopColor" offset="0" style="stop-color:#810000"/>
	<stop class="Gradient1 stopColor" offset="0.9947" style="stop-color:#EB1D25"/>
</linearGradient>
<path class="st31" d="M51.44,320.13l32.98,9.94c0.01-5.12-0.04-10.39-0.16-15.82l-32.25-9.72C51.91,309.62,51.7,314.83,51.44,320.13
	z"/>
<linearGradient id="SVGID_30_" gradientUnits="userSpaceOnUse" x1="52.6489" y1="339.6962" x2="88.8821" y2="339.6962">
	<stop class="Gradient2 stopColor" offset="0" style="stop-color:#810000"/>
	<stop class="Gradient1 stopColor" offset="0.9947" style="stop-color:#EB1D25"/>
</linearGradient>
<path class="st32" d="M51.06,326.85c-0.09,1.52-0.17,3.02-0.28,4.56c-0.24,3.58-0.52,7.2-0.82,10.88l33.99,10.25
	c0.2-5.02,0.34-10.25,0.41-15.65L51.06,326.85z"/>
<linearGradient id="SVGID_31_" gradientUnits="userSpaceOnUse" x1="52.6489" y1="576.9263" x2="88.8821" y2="576.9263">
	<stop class="Gradient2 stopColor" offset="0" style="stop-color:#810000"/>
	<stop class="Gradient1 stopColor" offset="0.9947" style="stop-color:#EB1D25"/>
</linearGradient>
<path class="st33" d="M13.5,564.19c-1.13,5.22-2.22,10.16-3.25,14.79l35.41,10.67c1.07-4.67,2.2-9.61,3.36-14.76L13.5,564.19z"/>
<linearGradient id="SVGID_32_" gradientUnits="userSpaceOnUse" x1="52.6489" y1="598.085" x2="88.8821" y2="598.085">
	<stop class="Gradient2 stopColor" offset="0" style="stop-color:#810000"/>
	<stop class="Gradient1 stopColor" offset="0.9947" style="stop-color:#EB1D25"/>
</linearGradient>
<path class="st34" d="M8.82,585.39c-1.23,5.47-2.36,10.41-3.36,14.76l35.28,10.63c1.02-4.32,2.18-9.28,3.45-14.73L8.82,585.39z"/>
<linearGradient id="SVGID_33_" gradientUnits="userSpaceOnUse" x1="52.6489" y1="383.8084" x2="88.8821" y2="383.8084">
	<stop class="Gradient2 stopColor" offset="0" style="stop-color:#810000"/>
	<stop class="Gradient1 stopColor" offset="0.9947" style="stop-color:#EB1D25"/>
</linearGradient>
<path class="st35" d="M47.13,370.88c-0.57,5.03-1.19,10.11-1.85,15.21l35.32,10.65c0.56-5.13,1.08-10.25,1.52-15.31L47.13,370.88z"
	/>
<linearGradient id="SVGID_34_" gradientUnits="userSpaceOnUse" x1="52.6489" y1="361.8544" x2="88.8821" y2="361.8544">
	<stop class="Gradient2 stopColor" offset="0" style="stop-color:#810000"/>
	<stop class="Gradient1 stopColor" offset="0.9947" style="stop-color:#EB1D25"/>
</linearGradient>
<path class="st36" d="M49.38,348.95c-0.46,5.04-0.97,10.14-1.52,15.31l34.81,10.49c0.38-4.92,0.71-10.08,0.98-15.47L49.38,348.95z"
	/>
<linearGradient id="SVGID_35_" gradientUnits="userSpaceOnUse" x1="52.6489" y1="405.604" x2="88.8821" y2="405.604">
	<stop class="Gradient2 stopColor" offset="0" style="stop-color:#810000"/>
	<stop class="Gradient1 stopColor" offset="0.9947" style="stop-color:#EB1D25"/>
</linearGradient>
<path class="st37" d="M44.43,392.67c-0.67,5.02-1.37,10.07-2.1,15.14l35.6,10.73c0.68-5.04,1.32-10.11,1.92-15.19L44.43,392.67z"/>
<linearGradient id="SVGID_36_" gradientUnits="userSpaceOnUse" x1="52.6489" y1="427.279" x2="88.8821" y2="427.279">
	<stop class="Gradient2 stopColor" offset="0" style="stop-color:#810000"/>
	<stop class="Gradient1 stopColor" offset="0.9947" style="stop-color:#EB1D25"/>
</linearGradient>
<path class="st38" d="M41.37,414.36c-0.74,5.02-1.51,10.05-2.31,15.08L74.8,440.2c0.76-4.95,1.5-10,2.22-15.1L41.37,414.36z"/>
<linearGradient id="SVGID_37_" gradientUnits="userSpaceOnUse" x1="52.6489" y1="470.3638" x2="88.8821" y2="470.3638">
	<stop class="Gradient2 stopColor" offset="0" style="stop-color:#810000"/>
	<stop class="Gradient1 stopColor" offset="0.9947" style="stop-color:#EB1D25"/>
</linearGradient>
<path class="st39" d="M34.42,457.47c-0.87,5.03-1.75,10.02-2.64,14.97l35.86,10.81c0.83-4.71,1.71-9.73,2.6-14.99L34.42,457.47z"/>
<linearGradient id="SVGID_38_" gradientUnits="userSpaceOnUse" x1="52.6489" y1="448.8588" x2="88.8821" y2="448.8588">
	<stop class="Gradient2 stopColor" offset="0" style="stop-color:#810000"/>
	<stop class="Gradient1 stopColor" offset="0.9947" style="stop-color:#EB1D25"/>
</linearGradient>
<path class="st40" d="M38.03,435.95c-0.81,5.02-1.64,10.03-2.49,15.02l35.8,10.79c0.81-4.85,1.63-9.88,2.45-15.03L38.03,435.95z"/>
<ellipse class="Colour2 fill" cx="167.6" cy="453.84" rx="16.7" ry="16.76"/>
<ellipse class="Colour2 fill" cx="167.6" cy="493.09" rx="13.53" ry="13.59"/>
<ellipse class="Colour2 fill" cx="167.6" cy="527.38" rx="11" ry="11.05"/>
<ellipse class="Colour2 fill" cx="167.6" cy="556.76" rx="7.52" ry="7.55"/>
<linearGradient id="SVGID_39_" gradientUnits="userSpaceOnUse" x1="105.3034" y1="378.113" x2="105.3034" y2="633.917">
	<stop class="Gradient1 stopColor" offset="5.347594e-003" style="stop-color:#EB1D25"/>
	<stop class="Gradient2 stopColor" offset="1" style="stop-color:#810000"/>
</linearGradient>
<path class="st41" d="M111.49,639.95c-2.57-39-7.99-154.62,8.47-266.44c0,0-34.66,123.89-28.58,264.63
	C97.79,638.82,104.49,639.43,111.49,639.95z"/>
<linearGradient id="SVGID_40_" gradientUnits="userSpaceOnUse" x1="229.8975" y1="378.0979" x2="229.8975" y2="633.0604">
	<stop class="Gradient1 stopColor" offset="5.347594e-003" style="stop-color:#EB1D25"/>
	<stop class="Gradient2 stopColor" offset="1" style="stop-color:#810000"/>
</linearGradient>
<path class="st42" d="M223.77,639.08c6.59-0.58,13.3-1.27,20.11-2.06c5.85-140.27-28.63-263.51-28.63-263.51
	C231.59,484.51,226.37,599.25,223.77,639.08z"/>
<path class="Colour2 fill" d="M254.26,120.41l-2.23,4.16l-0.56,1.04c-0.19,0.34-0.41,0.67-0.61,1.01l-1.24,2.01
	c-1.58,2.71-3.46,5.24-5.22,7.82c-3.76,5.02-7.88,9.75-12.33,14.13c-8.99,8.7-19.21,16.04-30.22,21.92
	c-5.5,2.94-11.17,5.57-16.98,7.81c-1.44,0.58-2.92,1.08-4.38,1.63c-1.47,0.5-2.94,1.02-4.42,1.48c-0.74,0.24-1.48,0.47-2.23,0.68
	c-0.74,0.22-1.49,0.44-2.24,0.64c-1.33,0.37-2.71,0.73-4.01,1.02c-1.3-0.29-2.68-0.65-4.01-1.02c-0.75-0.2-1.49-0.41-2.24-0.64
	c-0.75-0.22-1.49-0.44-2.23-0.68c-1.48-0.46-2.95-0.98-4.42-1.48c-1.46-0.55-2.93-1.05-4.38-1.63c-5.81-2.24-11.48-4.87-16.98-7.81
	c-11-5.88-21.23-13.22-30.22-21.92c-4.45-4.39-8.57-9.12-12.33-14.13c-1.76-2.59-3.64-5.11-5.22-7.82l-1.24-2.01
	c-0.2-0.34-0.42-0.67-0.61-1.01l-0.56-1.04l-2.23-4.16c-5.65-11.25-9.45-23.45-11.61-35.95c1.47,12.6,4.72,25.08,10.01,36.73
	l2.09,4.31l0.52,1.08c0.18,0.36,0.39,0.7,0.58,1.05l1.17,2.09c1.49,2.84,3.32,5.47,5.04,8.18c3.67,5.25,7.72,10.24,12.15,14.9
	c8.89,9.27,19.28,17.05,30.44,23.37c5.59,3.15,11.41,5.88,17.37,8.28c1.48,0.62,3,1.15,4.5,1.72c1.52,0.52,3.03,1.06,4.57,1.54
	c0.76,0.25,1.53,0.49,2.31,0.71c0.77,0.23,1.54,0.46,2.32,0.67c1.57,0.43,3.52,0.81,5.19,1.16c1.67-0.35,3.63-0.73,5.19-1.16
	c0.78-0.21,1.55-0.43,2.32-0.67c0.77-0.22,1.54-0.46,2.31-0.71c1.54-0.48,3.05-1.01,4.57-1.54c1.5-0.56,3.02-1.1,4.5-1.72
	c5.95-2.4,11.77-5.13,17.37-8.28c11.17-6.32,21.55-14.09,30.44-23.37c4.42-4.65,8.48-9.64,12.15-14.9c1.72-2.71,3.55-5.34,5.04-8.18
	l1.17-2.09c0.19-0.35,0.4-0.69,0.58-1.05l0.52-1.08l2.09-4.31c5.29-11.65,8.54-24.12,10.01-36.73
	C263.71,96.96,259.91,109.16,254.26,120.41z"/>
<g id="FBodyLogos"></g>
</svg>
