<?xml version="1.0" encoding="utf-8"?>
<!-- Generator: Adobe Illustrator 19.1.0, SVG Export Plug-In . SVG Version: 6.00 Build 0)  -->
<svg version="1.1" id="Layer_1" xmlns="http://www.w3.org/2000/svg" xmlns:xlink="http://www.w3.org/1999/xlink" x="0px" y="0px"
	 viewBox="0 0 335.2 641.14" style="enable-background:new 0 0 335.2 641.14;" xml:space="preserve">
<style type="text/css">
	<![CDATA[
	@font-face{font-family:'codaheavy';src:url('/fonts/coda-heavy-webfont.woff') format('woff')}
	text{font-family:Impact,codaheavy,sans-serif}
	.Number.fill{fill:#000}
	.NumberOutline.stroke{fill:none;stroke:#777;stroke-width:2.5}
	.Colour1.fill{fill:#52C4D4;}
	.Colour2.fill{fill:#1D1A44;}
	.Colour3.fill{fill:#171542;}
	.Colour4.fill{fill:#831537;}
	.Colour5.fill{fill:#54C5D4;}
	.NeckAndArmTrim.fill{fill:#BE1E2D;}
	.st0{fill:url(#SVGID_1_);stroke:#000000;stroke-miterlimit:10;}
	.st1{fill:#1D1A44;}
	.st2{fill:none;stroke:#000000;stroke-miterlimit:10;}
	.st3{fill:#FFFFFF;stroke:#000000;}
	]]>
</style>
<path class="Colour5 fill" d="M227.8-0.07c13.79,3.76,26.28,7.17,40.07,10.94c-0.2,6.16-2.96,100.85,9.48,132.91
	c2.78,7.17,8.98,23.15,20.69,25.19c2.21,0.39,4.09,0.18,5.17,0c-3.6,8.71-8.47,21.51-12.93,37.35
	c-18.38,65.18-12.7,120.54,2.59,211.1c10.87,64.39,24.18,132.3,40.52,203.28c-41.35,10.53-95.94,20.27-160.36,20.85
	c-70,0.63-128.92-9.77-172.43-20.85c1.82-7.43,42.27-174.64,50.01-289.28c3.35-49.63,0.53-88.77-10.35-128.57
	c-3.92-14.34-8.11-25.96-11.21-33.88c1.63,0.07,4.11-0.01,6.9-0.87c21.95-6.76,26.65-50.8,28.45-67.76
	c0.78-7.35,0.82-29.03,0.86-72.1c0.01-7.33,0-13.37,0-17.37C78.48,7.1,90.69,3.97,103.91,0.2l5.61,3.09l2.53,2.27l4.87,2.36
	l5.15,1.98l4.22,1.42c0,0,5.25,2.17,5.81,2.17s5.43,1.04,5.43,1.04l7.12,1.42l11.9,1.13l8.24,0.66c0,0,7.21-0.19,7.5-0.28
	c0.28-0.09,6.56,0,6.84-0.09c0.28-0.09,8.62-0.94,8.62-0.94l6.37-1.32l4.4-1.23l11.15-3.87l9.56-3.87l5.81-3.02L227.8-0.07z"/>
<path class="st1" d="M31.9,627.89c1.75,0.36,3.51,0.71,5.29,1.06L6,597.52c-0.27,1.19-0.54,2.36-0.8,3.47L31.9,627.89z"/>
<path class="st1" d="M166.96,639.2l-2.35,2.37c1.56,0.01,3.13,0,4.7,0L166.96,639.2z"/>
<path class="st1" d="M330.83,609.54l-15.33,15.45c1.86-0.42,3.69-0.84,5.5-1.27l10.62-10.7
	C331.35,611.85,331.09,610.7,330.83,609.54z"/>
<path class="st1" d="M328.07,597.36l-31.34,31.58c1.78-0.35,3.54-0.7,5.29-1.06l26.84-27.04
	C328.6,599.68,328.33,598.51,328.07,597.36z"/>
<path class="st1" d="M3.19,609.64c-0.29,1.24-0.56,2.4-0.81,3.45l10.55,10.63c1.81,0.42,3.64,0.85,5.49,1.26L3.19,609.64z"/>
<path class="Colour2 fill" d="M84.61,570.99l-31.09-31.33l-31.09,31.33l31.09,31.33L84.61,570.99z M53.52,543.93l26.85,27.06
	l-26.85,27.06l-26.85-27.06L53.52,543.93z M51.48,631.6L8.17,587.96c0.26-1.14,0.52-2.3,0.78-3.48l44.57,44.91l57.95-58.39
	l-57.95-58.39l-37.07,37.35c0.38-1.78,0.76-3.59,1.14-5.42l35.94-36.21l62.19,62.66l-60.74,61.2C53.8,632,52.64,631.8,51.48,631.6z
	 M131.61,570.99l-62.89,63.37c-1.24-0.18-2.47-0.37-3.69-0.55l62.34-62.82l-73.85-74.41l-32.88,33.13c0.36-1.77,0.72-3.56,1.09-5.37
	l31.79-32.04L131.61,570.99z M166.96,592.92l46.66,47.02c-1.32,0.09-2.63,0.19-3.97,0.28l-42.7-43.02l-42.7,43.03
	c-1.33-0.08-2.66-0.17-3.98-0.27L166.96,592.92z M166.96,623.89l17.33,17.46c-1.38,0.04-2.78,0.05-4.17,0.07l-13.16-13.26
	l-13.18,13.28c-1.39-0.03-2.76-0.06-4.14-0.1L166.96,623.89z M53.52,618.34l-42.57-42.89c0.25-1.15,0.51-2.31,0.77-3.5l41.8,42.12
	l42.75-43.08l-42.75-43.08l-41.26,41.57c0.39-1.78,0.79-3.61,1.19-5.47l40.07-40.38l46.99,47.35L53.52,618.34z M199.6,640.77
	c-1.35,0.07-2.69,0.14-4.05,0.19l-28.6-28.82l-28.6,28.82c-1.36-0.06-2.71-0.11-4.06-0.18l32.66-32.91L199.6,640.77z M227.7,638.81
	c-1.29,0.12-2.6,0.23-3.91,0.34l-56.84-57.27l-56.85,57.29c-1.31-0.11-2.6-0.23-3.9-0.34l60.75-61.22L227.7,638.81z M95.38,637.75
	c-1.28-0.14-2.55-0.28-3.82-0.42l65.84-66.34L53.52,466.32l-25.49,25.69c0.33-1.75,0.66-3.5,0.99-5.26l24.51-24.69l108.12,108.94
	L95.38,637.75z M242.35,637.33c-1.27,0.14-2.55,0.28-3.83,0.41l-66.25-66.75l108.12-108.94l24.95,25.14c0.33,1.76,0.66,3.51,1,5.27
	l-25.95-26.14L176.51,570.99L242.35,637.33z M255.88,635.66c-1.25,0.17-2.48,0.34-3.74,0.5l-64.68-65.17l92.93-93.63l28.62,28.84
	c0.35,1.77,0.68,3.54,1.03,5.31l-29.65-29.88l-88.69,89.36L255.88,635.66z M146.45,570.99l-64.68,65.17
	c-1.26-0.16-2.51-0.32-3.75-0.49l64.19-64.68l-88.69-89.36l-29.14,29.36c0.35-1.76,0.69-3.53,1.04-5.32l28.1-28.32L146.45,570.99z
	 M280.39,508.33l36.42,36.7c0.37,1.8,0.76,3.62,1.14,5.42l-37.56-37.85l-57.95,58.39l57.95,58.39l44.79-45.13
	c0.26,1.17,0.51,2.33,0.76,3.5l-43.52,43.85c-1.16,0.2-2.33,0.39-3.5,0.59l-60.73-61.19L280.39,508.33z M312.71,524.88
	c0.36,1.78,0.72,3.58,1.09,5.37l-33.41-33.66l-73.85,74.41l62.33,62.81c-1.22,0.19-2.45,0.37-3.69,0.55l-62.88-63.36l78.09-78.68
	L312.71,524.88z M249.3,570.99l31.09,31.33l31.09-31.33l-31.09-31.33L249.3,570.99z M280.39,598.05l-26.85-27.06l26.85-27.06
	l26.85,27.06L280.39,598.05z M280.39,523.64l40.5,40.81c0.39,1.81,0.77,3.62,1.16,5.44l-41.66-41.98l-42.75,43.08l42.75,43.08
	l42.06-42.37c0.25,1.16,0.51,2.34,0.76,3.5l-42.82,43.14l-46.99-47.35L280.39,523.64z"/>
<path class="Colour2 fill" d="M275.75,179.02H58.24v-5.83h217.51V179.02z M275.75,180.62H58.24v3.44h217.51V180.62z M275.75,187.79H58.24
	v3.44h217.51V187.79z M275.75,207.17H58.24V213h217.51V207.17z M275.75,214.6H58.24v3.44h217.51V214.6z M275.75,221.77H58.24v3.44
	h217.51V221.77z M275.75,241.15H58.24v5.83h217.51V241.15z M275.75,248.58H58.24v3.44h217.51V248.58z M275.75,255.75H58.24v3.44
	h217.51V255.75z M275.75,275.13H58.24v5.83h217.51V275.13z M275.75,282.56H58.24V286h217.51V282.56z M275.75,289.73H58.24v3.44
	h217.51V289.73z M275.75,309.11H58.24v5.83h217.51V309.11z M275.75,316.54H58.24v3.44h217.51V316.54z M275.75,323.71H58.24v3.44
	h217.51V323.71z M275.75,343.09H58.24v5.83h217.51V343.09z M275.75,350.52H58.24v3.44h217.51V350.52z M275.75,357.69H58.24v3.44
	h217.51V357.69z M275.75,377.07H58.24v5.83h217.51V377.07z M275.75,384.5H58.24v3.44h217.51V384.5z M275.75,391.67H58.24v3.44
	h217.51V391.67z"/>
<path class="Colour3 fill" d="M301.81,174.71c-1.85-0.03-4.64-0.28-7.73-1.4c-9.87-3.58-15.48-13.39-18.88-22.09l-0.17,0.72
	c-23.91,82.72-27.33,150.88-26.21,196.53c1.42,58.03,10.88,107.82,21.55,163.97c9.2,48.44,26.73,116.68,26.73,116.68
	c13.48-2.63,26-5.5,37.5-8.42c-16.35-70.98-29.65-138.88-40.52-203.28c-15.28-90.56-20.96-145.91-2.59-211.1
	c3.54-12.57,10.6-31.55,10.62-31.6L301.81,174.71z"/>
<path class="Colour3 fill" d="M32.85,175.05c2.63-0.44,6.36-1.36,10.35-3.47c8.08-4.28,13.67-11.59,18.02-22.32l0.18,0.72
	c26.04,99.49,26.1,177.68,21.89,228.53C79.9,419.43,71.97,464.23,66.9,492.9c-9.88,55.82-29.4,135.87-29.4,135.87
	c-12.83-2.54-24.75-5.28-35.7-8.07c1.82-7.43,42.27-174.64,50.01-289.28c3.35-49.63,0.53-88.77-10.35-128.57
	c-3.01-11.02-6.19-20.43-8.9-27.8L32.85,175.05z"/>
<path class="Colour4 fill" d="M318.53,547.43c-0.2-0.95-0.4-1.91-0.6-2.86c-9.61-9.88-22.98-16.02-37.76-16.02
	c-2.22,0-4.4,0.15-6.54,0.42c0.1,0.49,0.21,0.99,0.31,1.48c2.05-0.25,4.12-0.39,6.24-0.39C295.4,530.06,309.11,536.78,318.53,547.43
	z"/>
<path class="Colour4 fill" d="M296.67,581.85c0-8.68-6.64-15.82-15.07-16.55c0.12,0.52,0.24,1.04,0.36,1.55
	c7.43,0.89,13.22,7.27,13.22,15c0,5.25-2.67,9.87-6.71,12.59c0.12,0.52,0.25,1.03,0.37,1.54
	C293.53,593.03,296.67,587.81,296.67,581.85z"/>
<path class="Colour4 fill" d="M322.54,566.52c-0.5-2.34-0.98-4.65-1.47-6.99c-7.89-14.62-23.26-24.56-40.9-24.56
	c-1.77,0-3.51,0.11-5.22,0.3c0.1,0.49,0.21,0.99,0.32,1.48c1.61-0.18,3.25-0.27,4.91-0.27
	C299.65,536.48,316.28,549.02,322.54,566.52z"/>
<path class="Colour4 fill" d="M292.54,581.85c0-6.03-4.28-11.08-9.94-12.22c0.1,0.41,0.19,0.82,0.29,1.24c4.89,1.23,8.53,5.68,8.53,10.98
	c0,3.43-1.52,6.5-3.92,8.58c0.1,0.41,0.2,0.82,0.29,1.22C290.67,589.36,292.54,585.82,292.54,581.85z"/>
<path class="Colour4 fill" d="M283.58,573.88c0.08,0.34,0.16,0.69,0.24,1.03c2.47,1.33,4.18,3.92,4.18,6.94c0,1.7-0.55,3.27-1.46,4.56
	c0.08,0.34,0.16,0.67,0.24,1c1.25-1.51,2.01-3.44,2.01-5.56C288.78,578.28,286.64,575.22,283.58,573.88z"/>
<path class="Colour4 fill" d="M288.33,517.21l-2.89-1.83c-1.74-0.14-3.5-0.23-5.28-0.23c-3.12,0-6.18,0.23-9.19,0.66
	c0.1,0.49,0.19,0.99,0.29,1.49c2.91-0.41,5.88-0.63,8.9-0.63C282.93,516.66,285.66,516.87,288.33,517.21z"/>
<path class="Colour4 fill" d="M316.31,536.66c-0.14-0.68-0.27-1.35-0.41-2.02l-10.59-6.7c-7.64-3.63-16.16-5.68-25.15-5.68
	c-2.65,0-5.25,0.19-7.8,0.54c0.1,0.49,0.2,0.99,0.3,1.48c2.46-0.32,4.96-0.51,7.51-0.51C293.84,523.78,306.41,528.61,316.31,536.66z
	"/>
<path class="Colour4 fill" d="M331.66,607.88c-3.11,6.22-7.29,11.81-12.31,16.5c0.96-0.22,1.89-0.45,2.84-0.67
	c3.93-4,7.3-8.56,9.98-13.54C332,609.4,331.83,608.64,331.66,607.88z"/>
<path class="Colour4 fill" d="M326.57,585.05c-0.52-2.39-1.04-4.77-1.56-7.15c0.11,1.3,0.18,2.62,0.18,3.95
	c0,19.46-12.23,36.09-29.34,42.52c0.13,0.53,0.26,1.02,0.37,1.46C313.03,619.58,325.3,603.82,326.57,585.05z"/>
<path class="Colour4 fill" d="M300.92,581.85c0-11.39-9.08-20.66-20.32-20.89c0.12,0.51,0.23,1.02,0.35,1.53
	c10.25,0.42,18.47,8.93,18.47,19.37c0,7.28-4,13.63-9.91,16.95c0.12,0.51,0.25,1.02,0.37,1.52
	C296.44,596.8,300.92,589.84,300.92,581.85z"/>
<path class="Colour4 fill" d="M331.5,621.45c0.76-0.19,1.54-0.38,2.29-0.57c0.21-0.29,0.41-0.58,0.62-0.88c-0.15-0.67-0.3-1.32-0.45-1.99
	C333.17,619.19,332.35,620.34,331.5,621.45z"/>
<path class="Colour4 fill" d="M320.59,581.85c0-22.46-18.14-40.73-40.43-40.73c-1.33,0-2.64,0.07-3.93,0.2c0.11,0.5,0.22,0.99,0.32,1.49
	c1.19-0.11,2.39-0.17,3.61-0.17c21.47,0,38.93,17.6,38.93,39.22c0,16.59-10.28,30.8-24.76,36.52c0.13,0.51,0.25,1,0.37,1.48
	C309.83,613.95,320.59,599.14,320.59,581.85z"/>
<path class="Colour4 fill" d="M329.25,597.22c-4.09,13.21-13.3,24.16-25.27,30.49c1.55-0.32,3.1-0.64,4.62-0.96
	c9.72-6.27,17.28-15.63,21.29-26.72C329.68,599.1,329.46,598.16,329.25,597.22z"/>
<path class="Colour4 fill" d="M304.8,581.85c0-13.68-11.05-24.82-24.63-24.82c-0.15,0-0.3,0.02-0.45,0.02c0.11,0.5,0.22,1,0.34,1.49
	c0.04,0,0.07-0.01,0.11-0.01c12.76,0,23.13,10.46,23.13,23.31c0,9.12-5.24,17.01-12.83,20.84c0.12,0.51,0.25,1,0.37,1.5
	C299.08,600.17,304.8,591.68,304.8,581.85z"/>
<path class="Colour4 fill" d="M314.77,581.85c0-19.23-15.53-34.87-34.61-34.87c-0.9,0-1.79,0.05-2.67,0.11c0.11,0.5,0.22,0.99,0.33,1.49
	c0.77-0.05,1.55-0.09,2.34-0.09c18.26,0,33.11,14.97,33.11,33.36c0,13.85-8.42,25.75-20.36,30.79c0.12,0.5,0.25,0.99,0.37,1.48
	C305.88,608.9,314.77,596.4,314.77,581.85z"/>
<path class="Colour4 fill" d="M309.51,581.85c0-16.3-13.17-29.57-29.35-29.57c-0.51,0-1,0.05-1.5,0.08c0.11,0.5,0.22,1,0.33,1.49
	c0.39-0.02,0.77-0.06,1.17-0.06c15.36,0,27.85,12.59,27.85,28.06c0,11.36-6.74,21.14-16.39,25.55c0.12,0.51,0.25,1,0.37,1.5
	C302.29,604.3,309.51,593.91,309.51,581.85z"/>
<path class="Colour4 fill" d="M270.56,167.96c0.15-0.58,0.31-1.17,0.47-1.76l10.1-3.46c0.3,0.43,0.61,0.86,0.92,1.28L270.56,167.96z
	 M284.6,166.99c-0.38-0.39-0.75-0.8-1.11-1.22l-13.57,4.65c-0.15,0.58-0.3,1.17-0.45,1.75L284.6,166.99z M287.71,169.78
	c-0.47-0.36-0.92-0.74-1.37-1.13l-17.51,6.01c-0.15,0.58-0.29,1.16-0.43,1.74L287.71,169.78z M279.91,160.91
	c-0.27-0.44-0.53-0.88-0.79-1.32l-6.94,2.38c-0.16,0.59-0.32,1.17-0.48,1.76L279.91,160.91z M283.49,154.87
	c-0.03-0.06-0.07-0.12-0.1-0.18C283.42,154.75,283.45,154.81,283.49,154.87z M291.66,172.27c-0.61-0.3-1.2-0.64-1.77-0.99
	l-22.09,7.58c-0.14,0.58-0.29,1.16-0.43,1.74L291.66,172.27z M294.13,171.42l6.62-2.27c-0.49-0.03-1-0.09-1.54-0.18
	c-0.51-0.09-1-0.24-1.48-0.38l-2.99,1.03C294.53,170.22,294.33,170.82,294.13,171.42z M266.36,184.79l36.71-12.59
	c0.26-0.64,0.5-1.25,0.75-1.85l-37.05,12.71C266.62,183.64,266.49,184.21,266.36,184.79z M285.71,158.56
	c-0.17-0.26-0.34-0.51-0.5-0.77C285.38,158.05,285.54,158.31,285.71,158.56z M302.03,174.8l-36.26,12.44
	c-0.13,0.58-0.28,1.16-0.41,1.74l35.95-12.33C301.56,176.02,301.8,175.41,302.03,174.8z M299.66,181.06
	c0.23-0.62,0.46-1.23,0.68-1.83l-35.52,12.18c-0.13,0.58-0.26,1.15-0.39,1.73L299.66,181.06z M278.08,157.69
	c-0.24-0.45-0.46-0.91-0.69-1.36l-4.04,1.39c-0.16,0.59-0.34,1.18-0.5,1.77L278.08,157.69z M287.89,161.53
	c-0.05-0.06-0.09-0.12-0.14-0.18C287.8,161.42,287.84,161.48,287.89,161.53z M290.77,164.57c-0.13-0.12-0.26-0.24-0.39-0.36
	C290.52,164.34,290.64,164.46,290.77,164.57z M293.4,166.6c0.26,0.17,0.53,0.32,0.79,0.48C293.93,166.92,293.66,166.77,293.4,166.6z
	 M262.62,201.46l33.94-11.64c0.21-0.61,0.41-1.21,0.62-1.81l-34.19,11.73C262.86,200.31,262.74,200.88,262.62,201.46z M261.76,205.6
	l33.37-11.45c0.19-0.6,0.39-1.21,0.58-1.79l-33.61,11.53C261.99,204.46,261.88,205.03,261.76,205.6z M294.33,196.68l-33.05,11.34
	c-0.11,0.57-0.23,1.14-0.34,1.71l32.84-11.26C293.96,197.86,294.14,197.27,294.33,196.68z M263.5,197.31l34.57-11.86
	c0.22-0.62,0.43-1.22,0.65-1.82l-34.84,11.95C263.76,196.16,263.63,196.74,263.5,197.31z"/>
<path class="Colour4 fill" d="M275.66,240.86l-9.37-27.73l1.42-0.49l9.21,27.26L275.66,240.86z M287.08,206l2.48,7.34
	c0.23-0.87,0.46-1.75,0.7-2.63l-1.76-5.2L287.08,206z M284.82,233.84l-8.2-24.26l-1.42,0.49l8.36,24.73l-2.13,1.63l0.76-0.58
	l-8.53-25.26l-1.42,0.49l8.69,25.73l-1.37,1.05l-8.87-26.26l-1.42,0.49l9.03,26.73l0.06-0.05l-6.74,5.17l0.03-0.03l-9.88-29.26
	l-1.42,0.49l10.05,29.73l-2.36,1.81l0.99-0.76l-9.6-28.4c-0.19,1.02-0.37,2.04-0.55,3.05l8.89,26.32l-1.37,1.05l-8.12-24.02
	c-0.18,1.04-0.36,2.07-0.54,3.11l7.39,21.88l-4.68,3.59l0.67-0.51l-5.03-14.88c-0.17,1.08-0.33,2.16-0.49,3.24l4.26,12.61
	l-1.37,1.05l-3.41-10.1c-0.16,1.11-0.31,2.21-0.47,3.31l2.62,7.75l-1.37,1.05l-1.74-5.16c-0.15,1.14-0.29,2.27-0.44,3.4l0.92,2.73
	l0.45-0.35l-1.86,1.42c-0.26,2.1-0.5,4.19-0.73,6.25l31.42-24.09c0.36-2.19,0.74-4.38,1.15-6.58l-1,0.76L284.82,233.84z
	 M281.14,208.03l5.68,16.8c0.2-0.93,0.42-1.87,0.64-2.8l-4.89-14.49L281.14,208.03z M278.17,209.05l7.39,21.86
	c0.19-0.97,0.4-1.94,0.6-2.92l-6.57-19.43L278.17,209.05z M284.11,207.02l4.04,11.97c0.22-0.9,0.45-1.81,0.67-2.71l-3.29-9.75
	L284.11,207.02z M263.76,249.99l-6.59-19.52c-0.18,1.06-0.35,2.12-0.51,3.17l5.85,17.31L263.76,249.99z M273.03,242.88l1.26-0.97
	l-9.55-28.26l-1.42,0.49L273.03,242.88z M292.03,204.3c0.35-1.2,0.69-2.39,1.04-3.55l-32.58,11.17c-0.22,1.14-0.43,2.28-0.65,3.41
	L292.03,204.3z"/>
<g>
	<path class="Colour4 fill" d="M315.9,534.64l-47-29.72c-0.39-2.03-0.77-4.06-1.15-6.08l46.92,29.67L315.9,534.64z"/>
</g>
<g>
	<path class="Colour4 fill" d="M16.22,552.98c0.18-0.88,0.38-1.78,0.56-2.66c8.94-9.2,21.39-14.92,35.15-14.92
		c2.06,0,4.09,0.14,6.09,0.39c-0.1,0.46-0.19,0.92-0.29,1.38c-1.9-0.23-3.84-0.37-5.8-0.37C37.75,536.82,24.99,543.07,16.22,552.98z
		"/>
	<path class="Colour4 fill" d="M36.57,585.02c0-8.08,6.18-14.73,14.03-15.41c-0.11,0.48-0.22,0.97-0.33,1.45
		c-6.92,0.83-12.3,6.77-12.3,13.96c0,4.88,2.48,9.19,6.24,11.71c-0.12,0.48-0.23,0.96-0.35,1.43
		C39.49,595.43,36.57,590.57,36.57,585.02z"/>
	<path class="Colour4 fill" d="M12.49,570.75c0.47-2.18,0.91-4.33,1.37-6.51c7.34-13.6,21.65-22.86,38.07-22.86
		c1.64,0,3.26,0.1,4.86,0.28c-0.1,0.46-0.2,0.92-0.29,1.38c-1.5-0.16-3.02-0.26-4.57-0.26C33.79,542.79,18.31,554.47,12.49,570.75z"
		/>
	<path class="Colour4 fill" d="M40.41,585.02c0-5.62,3.98-10.31,9.26-11.37c-0.09,0.38-0.18,0.77-0.27,1.15
		c-4.55,1.14-7.94,5.29-7.94,10.22c0,3.19,1.42,6.05,3.65,7.98c-0.09,0.38-0.18,0.76-0.27,1.14
		C42.15,592.01,40.41,588.72,40.41,585.02z"/>
	<path class="Colour4 fill" d="M48.75,577.61c-0.07,0.32-0.15,0.64-0.22,0.96c-2.3,1.24-3.89,3.65-3.89,6.46c0,1.58,0.51,3.04,1.36,4.24
		c-0.07,0.31-0.15,0.62-0.22,0.93c-1.16-1.4-1.87-3.21-1.87-5.17C43.91,581.7,45.91,578.85,48.75,577.61z"/>
	<path class="Colour4 fill" d="M44.32,524.85l2.69-1.7c1.62-0.13,3.26-0.22,4.92-0.22c2.9,0,5.76,0.22,8.55,0.61
		c-0.09,0.46-0.18,0.92-0.27,1.38c-2.71-0.38-5.47-0.59-8.29-0.59C49.35,524.34,46.82,524.53,44.32,524.85z"/>
	<path class="Colour4 fill" d="M18.29,542.96c0.13-0.63,0.25-1.25,0.38-1.88l9.85-6.23c7.11-3.38,15.04-5.28,23.41-5.28
		c2.46,0,4.89,0.18,7.27,0.5c-0.09,0.46-0.18,0.92-0.28,1.38c-2.29-0.3-4.62-0.47-6.99-0.47C39.2,530.97,27.5,535.47,18.29,542.96z"
		/>
	<path class="Colour4 fill" d="M4,609.25c2.89,5.79,6.79,10.99,11.46,15.36c-0.9-0.21-1.76-0.42-2.65-0.62
		c-3.66-3.73-6.8-7.96-9.29-12.61C3.68,610.67,3.84,609.96,4,609.25z"/>
	<path class="Colour4 fill" d="M8.74,588c0.49-2.22,0.97-4.44,1.45-6.66c-0.1,1.21-0.17,2.44-0.17,3.68c0,18.11,11.38,33.6,27.31,39.58
		c-0.12,0.49-0.24,0.95-0.35,1.36C21.34,620.15,9.91,605.47,8.74,588z"/>
	<path class="Colour4 fill" d="M32.61,585.02c0-10.6,8.45-19.23,18.92-19.45c-0.11,0.48-0.22,0.95-0.32,1.42
		c-9.54,0.39-17.2,8.31-17.2,18.03c0,6.78,3.73,12.69,9.22,15.78c-0.12,0.48-0.23,0.95-0.34,1.41
		C36.78,598.93,32.61,592.46,32.61,585.02z"/>
	<path class="Colour4 fill" d="M4.15,621.89c-0.71-0.18-1.43-0.35-2.13-0.53c-0.19-0.27-0.39-0.54-0.58-0.82
		c0.14-0.62,0.28-1.23,0.42-1.85C2.59,619.78,3.35,620.85,4.15,621.89z"/>
	<path class="Colour4 fill" d="M14.3,585.02c0-20.91,16.88-37.92,37.63-37.92c1.23,0,2.45,0.06,3.66,0.18c-0.1,0.46-0.2,0.92-0.3,1.39
		c-1.11-0.1-2.22-0.16-3.36-0.16c-19.98,0-36.24,16.38-36.24,36.51c0,15.44,9.57,28.67,23.04,34c-0.12,0.47-0.23,0.93-0.34,1.37
		C24.31,614.9,14.3,601.12,14.3,585.02z"/>
	<path class="Colour4 fill" d="M6.24,599.33c3.8,12.3,12.38,22.49,23.52,28.39c-1.44-0.3-2.88-0.59-4.3-0.89
		c-9.05-5.83-16.09-14.55-19.82-24.87C5.84,601.08,6.05,600.2,6.24,599.33z"/>
	<path class="Colour4 fill" d="M29,585.02c0-12.74,10.29-23.1,22.93-23.1c0.14,0,0.28,0.02,0.42,0.02c-0.1,0.46-0.21,0.93-0.31,1.39
		c-0.03,0-0.07-0.01-0.1-0.01c-11.87,0-21.53,9.73-21.53,21.7c0,8.49,4.88,15.84,11.95,19.4c-0.12,0.47-0.23,0.93-0.34,1.39
		C34.32,602.07,29,594.17,29,585.02z"/>
	<path class="Colour4 fill" d="M19.71,585.02c0-17.9,14.45-32.46,32.22-32.46c0.84,0,1.66,0.04,2.48,0.11c-0.1,0.46-0.2,0.92-0.31,1.39
		c-0.72-0.05-1.44-0.09-2.18-0.09c-17,0-30.82,13.93-30.82,31.06c0,12.89,7.83,23.97,18.95,28.66c-0.12,0.47-0.23,0.93-0.34,1.38
		C27.99,610.2,19.71,598.57,19.71,585.02z"/>
	<path class="Colour4 fill" d="M24.61,585.02c0-15.18,12.25-27.52,27.32-27.52c0.47,0,0.93,0.05,1.4,0.07c-0.1,0.46-0.21,0.93-0.31,1.39
		c-0.36-0.02-0.72-0.06-1.09-0.06c-14.29,0-25.92,11.72-25.92,26.12c0,10.57,6.28,19.67,15.26,23.78c-0.12,0.47-0.23,0.93-0.34,1.39
		C31.33,605.92,24.61,596.25,24.61,585.02z"/>
</g>
<g>
	<path class="Colour4 fill" d="M18.67,541.08l43.75-27.67c0.36-1.89,0.72-3.78,1.07-5.66l-43.67,27.62L18.67,541.08z"/>
</g>
<path class="Colour4 fill" d="M52.1,160.57c0.33-0.43,0.66-0.88,0.97-1.32l10.47,3.69c0.16,0.61,0.32,1.22,0.47,1.83L52.1,160.57z
	 M65.12,169.17c-0.15-0.61-0.3-1.22-0.46-1.82l-14.07-4.96c-0.38,0.43-0.76,0.85-1.16,1.25L65.12,169.17z M66.2,173.56
	c-0.15-0.61-0.29-1.21-0.43-1.82l-18.16-6.4c-0.46,0.4-0.94,0.79-1.43,1.16L66.2,173.56z M62.87,160.36
	c-0.16-0.61-0.32-1.22-0.48-1.83l-7.2-2.54c-0.27,0.46-0.55,0.92-0.83,1.37L62.87,160.36z M67.24,177.94
	c-0.14-0.6-0.29-1.21-0.43-1.82l-22.91-8.07c-0.6,0.36-1.22,0.7-1.85,1.01L67.24,177.94z M67.85,180.5L33.41,168.4
	c0.25,0.63,0.5,1.27,0.76,1.93l34.08,11.98C68.12,181.71,67.98,181.11,67.85,180.5z M31.96,173.54l37.28,13.13
	c-0.13-0.6-0.27-1.21-0.41-1.81l-37.6-13.24C31.47,172.24,31.72,172.88,31.96,173.54z M70.19,191.01c-0.13-0.6-0.26-1.2-0.39-1.8
	l-36.84-12.98c0.23,0.63,0.46,1.26,0.69,1.91L70.19,191.01z M61.71,155.94c-0.16-0.61-0.34-1.23-0.5-1.84l-4.19-1.48
	c-0.24,0.47-0.47,0.94-0.72,1.41L61.71,155.94z M71.63,197.88l-35.46-12.49c0.21,0.62,0.42,1.25,0.63,1.88l35.2,12.4
	C71.88,199.08,71.75,198.48,71.63,197.88z M72.51,202.2l-34.85-12.28c0.2,0.61,0.39,1.24,0.59,1.87l34.61,12.19
	C72.74,203.39,72.63,202.8,72.51,202.2z M39.63,196.29l34.06,12c-0.11-0.59-0.23-1.19-0.34-1.78l-34.28-12.08
	C39.25,195.05,39.44,195.67,39.63,196.29z M70.73,193.55l-36.13-12.73c0.22,0.62,0.44,1.25,0.66,1.9l35.85,12.63
	C70.99,194.75,70.86,194.15,70.73,193.55z"/>
<path class="Colour4 fill" d="M56.8,239.53l9.81-28.27l1.47,0.52l-9.98,28.76L56.8,239.53z M45.05,203.67l-1.87,5.39
	c0.24,0.91,0.47,1.83,0.7,2.74l2.64-7.61L45.05,203.67z M49.44,233.78l-1.03-0.8c0.41,2.29,0.79,4.57,1.14,6.85l32.47,25.32
	c-0.22-2.15-0.46-4.32-0.71-6.51l-1.92-1.5l0.47,0.36l0.98-2.83c-0.14-1.18-0.28-2.35-0.43-3.54l-1.86,5.35l-1.42-1.11l2.79-8.04
	c-0.15-1.15-0.3-2.29-0.46-3.45l-3.63,10.47l-1.42-1.11l4.54-13.07c-0.16-1.12-0.32-2.24-0.48-3.37l-5.35,15.43l0.69,0.54
	l-4.83-3.77l7.87-22.69c-0.17-1.08-0.35-2.15-0.53-3.24l-8.64,24.91l-1.42-1.11l9.47-27.29c-0.18-1.06-0.36-2.11-0.55-3.18
	l-10.22,29.46l1.02,0.8l-2.44-1.9l10.7-30.84l-1.47-0.52l-10.53,30.34l0.04,0.03l-6.96-5.43l0.07,0.05L65,210.69l-1.47-0.52
	l-9.45,27.23l-1.42-1.11l9.26-26.69l-1.47-0.52l-9.09,26.19l0.78,0.61l-2.2-1.72l8.9-25.65l-1.47-0.52l-8.73,25.16L49.44,233.78z
	 M51.21,205.84L46,220.86c0.21,0.97,0.43,1.95,0.64,2.92l6.05-17.43L51.21,205.84z M54.29,206.92l-6.99,20.15
	c0.2,1.01,0.41,2.03,0.6,3.04l7.87-22.68L54.29,206.92z M48.13,204.75l-3.51,10.11c0.23,0.94,0.46,1.89,0.67,2.82l4.31-12.41
	L48.13,204.75z M71.71,251.15l6.23-17.96c-0.17-1.1-0.33-2.19-0.51-3.3l-7.02,20.24L71.71,251.15z M71.16,212.86l-1.47-0.52
	l-10.17,29.3l1.3,1.01L71.16,212.86z M74.77,214.13c-0.21-1.18-0.42-2.36-0.65-3.56l-33.79-11.9c0.35,1.21,0.71,2.45,1.06,3.7
	L74.77,214.13z"/>
<path class="st2" d="M301.81,174.71c-1.85-0.03-4.64-0.28-7.73-1.4c-9.87-3.58-15.48-13.39-18.88-22.09l-0.17,0.72
	c-23.91,82.72-27.33,150.88-26.21,196.53c1.42,58.03,10.88,107.82,21.55,163.97c9.2,48.44,26.73,116.68,26.73,116.68
	c13.48-2.63,26-5.5,37.5-8.42c-16.35-70.98-29.65-138.88-40.52-203.28c-15.28-90.56-20.96-145.91-2.59-211.1
	c3.54-12.57,10.6-31.55,10.62-31.6L301.81,174.71z"/>
<path class="st2" d="M32.85,175.05c2.63-0.44,6.36-1.36,10.35-3.47c8.08-4.28,13.67-11.59,18.02-22.32l0.18,0.72
	c26.04,99.49,26.1,177.68,21.89,228.53C79.9,419.43,71.97,464.23,66.9,492.9c-9.88,55.82-29.4,135.87-29.4,135.87
	c-12.83-2.54-24.75-5.28-35.7-8.07c1.82-7.43,42.27-174.64,50.01-289.28c3.35-49.63,0.53-88.77-10.35-128.57
	c-3.01-11.02-6.19-20.43-8.9-27.8L32.85,175.05z"/>
<path class="st2" d="M234.58,1.45"/>
<path class="st2" d="M99.53,1.45"/>
<path class="st2" d="M98.13,1.85c9.78,6.23,35.6,20.83,71.39,20.13c32.89-0.64,56.56-13.85,66.44-20.15"/>
<path class="Colour1 fill" d="M227.35-0.43c0.17,0.05,27.76,7.57,41.38,11.29c-0.2,6.16-2.96,100.85,9.48,132.91
	c2.78,7.17,8.98,23.15,20.69,25.19c2.21,0.39,4.09,0.18,5.17,0c-2.66,6.43-6,15.09-9.37,25.55c-16.11,0.78-29.52-2.54-39.57-6.57
	c-9.43-3.78-17.79-9.72-25.18-16.73c-13.75-13.03-36.35-21.56-61.92-21.6l-0.19,0c-25.65,0-48.32,8.53-62.1,21.6
	c-7.39,7.01-15.75,12.94-25.18,16.73c-10.52,4.22-24.75,7.66-41.89,6.43c-3.16-10.47-6.31-19.11-8.77-25.41
	c1.63,0.07,4.11-0.01,6.9-0.87c21.95-6.76,26.65-50.8,28.45-67.76c0.78-7.35,0.82-29.03,0.86-72.1c0.01-7.33,0-13.37,0-17.37
	C79.34,7.1,92.56,3.33,105.78-0.43l14.28,11.22l15.55,4.12l20.94,2.17l16.54,0.09l17.43-0.38l18.18-4.88l15.18-6.83L227.35-0.43z"/>
<g id="BBodyLogos"></g>
<path class="NeckAndArmTrim fill" d="M98.13,1.85c9.78,6.23,35.6,20.83,71.39,20.13c32.89-0.64,56.56-13.85,66.44-20.15l-8.27-2.26
	c-10.15,5.48-31.3,15.13-59.67,15.38c-29.63,0.26-51.7-9.88-61.9-15.38L98.13,1.85z"/>
<path class="NeckAndArmTrim fill" d="M32.1,175.05c2.63-0.44,6.36-1.36,10.35-3.47c11.75-6.23,18.24-18.86,23.28-39.09
	c5.95-23.9,5.69-41.68,6.04-78.18c0.19-20.28,0.47-36.38,0.64-45.34l-6.68,1.9c0,4,0.01,10.04,0,17.37
	c-0.04,43.07-0.08,64.76-0.86,72.1c-1.81,16.96-6.5,61-28.45,67.76c-2.79,0.86-5.27,0.93-6.9,0.87L32.1,175.05z"/>
<path class="NeckAndArmTrim fill" d="M302.11,174.72c-1.84-0.01-4.77-0.22-8.03-1.41c-14.29-5.19-19.66-23.43-22.31-32.46
	c-11.52-39.2-8.98-124.25-8.73-131.73l6.04,1.74c-0.2,6.16-2.96,100.85,9.48,132.91c2.78,7.17,8.98,23.15,20.69,25.19
	c2.21,0.39,4.09,0.18,5.17,0L302.11,174.72z"/>
<g>
	<rect x="109.97" y="214.75" class="st3" width="31.9" height="12.16"/>
	<rect x="194.46" y="214.75" class="st3" width="31.9" height="12.16"/>
	<rect x="194.54" y="322.38" class="st3" width="31.9" height="12.16"/>
	<rect x="110.05" y="322.38" class="st3" width="31.9" height="12.16"/>
	<rect x="110.05" y="310.22" class="st3" width="31.9" height="12.16"/>
	<rect x="194.54" y="310.22" class="st3" width="31.9" height="12.16"/>
</g>
</svg>
