<?xml version="1.0" encoding="utf-8"?>
<!-- Generator: Adobe Illustrator 19.1.0, SVG Export Plug-In . SVG Version: 6.00 Build 0)  -->
<svg version="1.1" id="Layer_1" xmlns="http://www.w3.org/2000/svg" xmlns:xlink="http://www.w3.org/1999/xlink" x="0px" y="0px"
	 viewBox="0 0 335.2 641.14" style="enable-background:new 0 0 335.2 641.14;" xml:space="preserve">
<style type="text/css">
	<![CDATA[
	@font-face{font-family:'codaheavy';src:url('/fonts/coda-heavy-webfont.woff') format('woff')}
	text{font-family:Impact,codaheavy,sans-serif}
	.Number.fill{fill:#000}
	.NumberOutline.stroke{fill:none;stroke:#777;stroke-width:2.5}
	.Colour1.fill{fill:#1C1E2C;}
	.Colour2.fill{fill:#FFCF2C;}
	.Colour3.fill{fill:#00A28C;}
	.Colour4.fill{opacity:0.4;fill:#1C1E2C;}
	.Colour5.fill{fill:#FFFFFF;}
	.NeckAndArmTrim.fill{fill:#1C1E2C;}
	.st0{opacity:0.4;fill:none;}
	.st1{fill:#FFFFFF;}
	.st2{fill:none;stroke:#000000;stroke-miterlimit:10;}
	.st4{fill:#FFFFFF;stroke:#000000;}
	]]>
</style>
<path class="Colour5 fill" d="M229.7-0.2c13.82,3.76,24.82,7.53,38.64,11.29c-0.2,6.16-2.96,100.82,9.5,132.87
	c2.79,7.17,9,23.14,20.73,25.18c2.22,0.39,4.09,0.18,5.18,0c-3.61,8.71-8.48,21.51-12.95,37.34
	c-18.41,65.16-12.72,120.49,2.59,211.02c10.89,64.37,24.22,132.25,40.59,203.21c-41.42,10.53-96.11,20.26-160.64,20.84
	c-70.12,0.63-129.15-9.76-172.73-20.84c1.82-7.43,42.34-174.58,50.09-289.18c3.36-49.62,0.53-88.74-10.36-128.52
	c-3.92-14.33-8.13-25.95-11.23-33.87c1.63,0.07,4.12-0.01,6.91-0.87c21.99-6.76,26.69-50.79,28.5-67.74
	c0.78-7.34,0.82-29.02,0.86-72.08c0.01-7.33,0-13.37,0-17.37C78.62,7.32,91.86,3.56,105.1-0.2c10.77,5.56,32.98,15.21,62.58,15.15
	C196.97,14.88,218.95,5.35,229.7-0.2z"/>
<path class="Colour2 fill" d="M43.56,397.93C29.42,501.61,2.09,614.62,0.6,620.69c9.71,2.47,20.18,4.91,31.38,7.2l130.38-166.63
	l131.62,168.21c14.2-2.73,27.39-5.72,39.42-8.78c-16.35-70.98-29.65-138.88-40.52-203.28c-0.33-1.93-0.64-3.83-0.96-5.73
	L162.35,246.1L43.56,397.93z"/>
<g>
	<path class="st0" d="M41.41,413.13c-1.54,10.51-3.2,21.05-4.94,31.51h52.3l73.59-94.05l73.59,94.05h61.64
		c-1.01-5.71-1.99-11.38-2.96-17.04L162.35,258.55L41.41,413.13z"/>
</g>
<path class="Colour1 fill" d="M173.03,641.54c54.98-0.49,102.78-7.66,141.31-16.3L162.35,430.99L11.77,623.44
	C53.99,633.43,108.85,642.12,173.03,641.54z"/>

<polygon class="Colour3 fill" points="73.18,435.13 123.54,435.13 175.01,369.35 226.48,435.13 276.85,435.13 175.01,304.98 "/>
<path class="Colour1 fill" d="M176.11,268.32l-51.47,65.78l-51.47-65.78H51.1c0.77,11.85,1,24.12,0.71,37.06l72.84,93.09l101.84-130.15
	H176.11z"/>
<path class="Colour4 fill" d="M41.29,461.07l71.75-91.7l71.75,91.7H255L113.03,279.63l-65.21,83.34c-3.36,31.67-8.49,65.59-14.15,98.1H41.29z
	"/>
<path class="st2" d="M228.42,0.1c13.79,3.76,25.66,7,39.45,10.77c-0.2,6.16-2.96,100.85,9.48,132.91
	c2.78,7.17,8.98,23.15,20.69,25.19c2.21,0.39,4.09,0.18,5.17,0c-3.6,8.71-8.47,21.51-12.93,37.35
	c-18.38,65.18-12.7,120.54,2.59,211.1c10.87,64.39,24.18,132.3,40.52,203.28c-41.35,10.53-95.94,20.27-160.36,20.85
	c-70,0.63-128.92-9.77-172.43-20.85c1.82-7.43,42.27-174.64,50.01-289.28c3.35-49.63,0.53-88.77-10.35-128.57
	c-3.92-14.34-8.11-25.96-11.21-33.88c1.63,0.07,4.11-0.01,6.9-0.87c21.95-6.76,26.65-50.8,28.45-67.76
	c0.78-7.35,0.82-29.03,0.86-72.1c0.01-7.33,0-13.37,0-17.37C78.48,7.1,90.88,3.91,104.1,0.15"/>
<path class="st2" d="M234.58,1.45"/>
<path class="st2" d="M99.53,1.45"/>
<path class="st2" d="M98.13,1.85c9.78,6.23,35.6,20.83,71.39,20.13c32.89-0.64,56.56-13.85,66.44-20.15"/>
<path class="NeckAndArmTrim fill" d="M32.1,175.05c2.63-0.44,6.36-1.36,10.35-3.47c11.75-6.23,18.24-18.86,23.28-39.09
	c5.95-23.9,5.69-41.68,6.04-78.18c0.19-20.28,0.47-36.38,0.64-45.34l-6.68,1.9c0,4,0.01,10.04,0,17.37
	c-0.04,43.07-0.08,64.76-0.86,72.1c-1.81,16.96-6.5,61-28.45,67.76c-2.79,0.86-5.27,0.93-6.9,0.87L32.1,175.05z"/>
<path class="NeckAndArmTrim fill" d="M302.11,174.72c-1.84-0.01-4.77-0.22-8.03-1.41c-14.29-5.19-19.66-23.43-22.31-32.46
	c-11.52-39.2-8.98-124.25-8.73-131.73l6.04,1.74c-0.2,6.16-2.96,100.85,9.48,132.91c2.78,7.17,8.98,23.15,20.69,25.19
	c2.21,0.39,4.09,0.18,5.17,0L302.11,174.72z"/>
<path class="NeckAndArmTrim fill" d="M98.13,1.85c9.78,6.23,35.6,20.83,71.39,20.13c32.89-0.64,56.56-13.85,66.44-20.15l-8.27-2.26
	c-10.15,5.48-31.3,15.13-59.67,15.38c-29.63,0.26-51.7-9.88-61.9-15.38L98.13,1.85z"/>
<g>
	<rect x="109.97" y="214.75" class="st4" width="31.9" height="12.16"/>
	<rect x="194.46" y="214.75" class="st4" width="31.9" height="12.16"/>
	<rect x="194.54" y="322.38" class="st4" width="31.9" height="12.16"/>
	<rect x="110.05" y="322.38" class="st4" width="31.9" height="12.16"/>
	<rect x="110.05" y="310.22" class="st4" width="31.9" height="12.16"/>
	<rect x="194.54" y="310.22" class="st4" width="31.9" height="12.16"/>
</g>
<path class="Colour1 fill" d="M301.81,174.71c-1.85-0.03-4.64-0.28-7.73-1.4c-9.87-3.58-15.48-13.39-18.88-22.09l-0.17,0.72
	c-23.91,82.72-27.33,150.88-26.21,196.53c1.42,58.03,10.88,107.82,21.55,163.97c9.2,48.44,26.73,116.68,26.73,116.68
	c13.48-2.63,26-5.5,37.5-8.42c-16.35-70.98-29.65-138.88-40.52-203.28c-15.28-90.56-20.96-145.91-2.59-211.1
	c3.54-12.57,10.6-31.55,10.62-31.6L301.81,174.71z"/>
<path class="Colour1 fill" d="M32.44,175.05c2.63-0.44,6.36-1.36,10.35-3.47c8.08-4.28,13.67-11.59,18.02-22.32l0.18,0.72
	c26.04,99.49,26.1,177.68,21.89,228.53C79.5,419.43,71.57,464.23,66.5,492.9c-9.88,55.82-29.4,135.87-29.4,135.87
	c-12.83-2.54-24.75-5.28-35.7-8.07c1.82-7.43,42.27-174.64,50.01-289.28c3.35-49.63,0.53-88.77-10.35-128.57
	c-3.01-11.02-6.19-20.43-8.9-27.8L32.44,175.05z"/>
<g id="BBodyLogos"></g>
</svg>
