<?xml version="1.0" encoding="utf-8"?>
<!-- Generator: Adobe Illustrator 19.1.0, SVG Export Plug-In . SVG Version: 6.00 Build 0)  -->
<svg version="1.1" id="Layer_1" xmlns="http://www.w3.org/2000/svg" xmlns:xlink="http://www.w3.org/1999/xlink" x="0px" y="0px"
	 viewBox="0 0 335.2 641.14" style="enable-background:new 0 0 335.2 641.14;" xml:space="preserve">
<style type="text/css">
	<![CDATA[
	@font-face{font-family:'codaheavy';src:url('/fonts/coda-heavy-webfont.woff') format('woff')}
	text{font-family:Impact,codaheavy,sans-serif}
	.Number.fill{fill:#000}
	.NumberOutline.stroke{fill:none;stroke:#777;stroke-width:2.5}
	.Colour1.fill{fill:#064246;}
	.Colour2.fill{fill:#16A185;}
	.Colour3.fill{fill:#0A4849;}
	.NeckAndArmTrim.fill{fill:#16A185;stroke:#000000;stroke-miterlimit:10;}
	.st0{fill:url(#SVGID_1_);}
	.st1{fill:#118D76;}
	.st2{fill:#78B243;}
	.st3{fill:none;stroke:#000000;stroke-miterlimit:10;}
	.st4{fill:#FFFFFF;stroke:#000000;}
	.st5{fill:none;stroke:#000000;stroke-linecap:round;stroke-linejoin:round;}
	]]>
</style>
<g>
	<g>
		<path class="Colour1 fill" d="M44.1,206.63c-4.47-15.83-9.35-28.62-12.95-37.33c1.09,0.18,2.97,0.39,5.18,0
			c11.73-2.04,17.94-18.01,20.73-25.17c12.46-32.03,9.38-126.66,9.19-132.82c13.84-3.9,26.58-7.74,40.4-11.5
			c0,21.75,123.67,21.75,123.67-0.01c13.24,3.76,25.96,7.75,39.2,11.51c0,4-0.01,10.03,0,17.36c0.04,43.04,0.08,64.71,0.86,72.05
			c1.81,16.94,6.51,60.96,28.5,67.71c2.79,0.86,5.27,0.93,6.91,0.87c-3.1,7.91-7.3,19.53-11.23,33.86
			c-10.89,39.77-13.72,78.88-10.36,128.48c7.75,114.56,48.27,281.65,50.09,289.08c-43.59,11.07-102.61,21.46-172.73,20.83
			c-64.53-0.58-119.22-10.31-160.64-20.83c16.37-70.93,29.71-138.78,40.59-203.13C56.81,327.08,62.51,271.76,44.1,206.63z"/>
	</g>
	<g>
		<path class="Colour1 fill" d="M44.1,206.63c-4.47-15.83-9.35-28.62-12.95-37.33c1.09,0.18,2.97,0.39,5.18,0
			c11.73-2.04,17.94-18.01,20.73-25.17c12.46-32.03,9.38-126.66,9.19-132.82c13.84-3.9,26.58-7.74,40.4-11.5
			c0,21.75,123.67,21.75,123.67-0.01c13.24,3.76,25.96,7.75,39.2,11.51c0,4-0.01,10.03,0,17.36c0.04,43.04,0.08,64.71,0.86,72.05
			c1.81,16.94,6.51,60.96,28.5,67.71c2.79,0.86,5.27,0.93,6.91,0.87c-3.1,7.91-7.3,19.53-11.23,33.86
			c-10.89,39.77-13.72,78.88-10.36,128.48c7.75,114.56,48.27,281.65,50.09,289.08c-43.59,11.07-102.61,21.46-172.73,20.83
			c-64.53-0.58-119.22-10.31-160.64-20.83c16.37-70.93,29.71-138.78,40.59-203.13C56.81,327.08,62.51,271.76,44.1,206.63z"/>
	</g>
</g>
<path class="Colour3 fill" d="M117.63,5.63c0.66,2.94,5.18,1.13,6.1,4.36L65.32,86.2c0.24-4.37,0.44-8.75,0.6-13.09L117.63,5.63z
	 M131.39,10.26L64.6,97.18c-0.36,4.79-0.79,9.49-1.3,14.01l73.88-96.11C136.06,12.24,132.29,12.99,131.39,10.26z M66.41,27.73
	c0.04,3.65,0.07,7.76,0.07,12.23L94.49,3.57c-4,1.09-8,2.18-12,3.27L66.41,27.73z M66.43,50.07c-0.04,4.04-0.11,8.26-0.21,12.59
	l44.23-57.32c-0.47-2.72-2.62-3.06-2.92-5.32c-1.09,0.3-2.17,0.59-3.26,0.89L66.43,50.07z M72.71,9.5c-2.21,0.6-4.42,1.2-6.62,1.8
	c0.03,0.8,0.1,3.11,0.17,6.58L72.71,9.5z M49.1,229.13c0.68,3.32,1.29,6.62,1.85,9.92L232.88,3.15c-1.87-1.58-6.77,0.53-8.65-1.24
	L49.1,229.13z M248.09,5.36c-2.59-0.74-5.19-1.47-7.78-2.21l-14.62,18.99c-0.01-0.01-0.01-0.01-0.02-0.02L52.25,247.41
	c0.49,3.55,0.92,7.1,1.28,10.65l164.11-213.2c-0.01,0.03-0.02,0.06-0.03,0.08L248.09,5.36z M233.96,1.34
	c-1.55-0.44-3.1-0.88-4.65-1.32c-0.31,2.66-0.73,5.7-1.3,9.05L233.96,1.34z M40.36,195.76c0.9,2.82,1.8,5.77,2.69,8.83L187.87,16.83
	c-1.65-2.06-7.66,1.63-9.15-0.45L40.36,195.76z M45.09,211.99c0.83,3.13,1.59,6.23,2.31,9.32L207.07,13.97
	c-1.51-1.55-7.11,2.06-8.61,0.37c-0.22-0.25-0.43-0.5-0.65-0.75L45.09,211.99z M61.66,123.36c-1.06,6.59-2.34,12.51-3.89,17.37
	L152,18.36c-1.31-2.55-4.69-2.26-5.81-4.77L61.66,123.36z M35.01,180.34c0.98,2.61,1.99,5.42,3.01,8.41l132.1-171.61
	c-1.49-2.29-7.66,1.62-8.97-0.66L35.01,180.34z M197.01,640.9c3.32-0.15,6.61-0.32,9.88-0.51l102.36-132.96
	c-0.63-3.25-1.27-6.53-1.9-9.85L197.01,640.9z M179.36,641.46c3.25-0.06,6.47-0.14,9.67-0.25l116.78-151.68
	c-0.62-3.28-1.23-6.6-1.84-9.93L179.36,641.46z M215.03,639.86c3.4-0.24,6.77-0.51,10.09-0.79l87.65-113.85
	c-0.65-3.21-1.3-6.47-1.96-9.78L215.03,639.86z M145.13,641.19c3.08,0.1,6.18,0.18,9.3,0.24l144.88-188.18
	c-0.57-3.36-1.14-6.73-1.7-10.11L145.13,641.19z M96.08,637.81c2.91,0.31,5.84,0.61,8.81,0.88l185.8-241.33
	c-0.48-3.52-0.94-7.02-1.39-10.51L96.08,637.81z M80.28,635.96c2.86,0.37,5.75,0.72,8.67,1.06l199.27-258.82
	c-0.43-3.59-0.85-7.16-1.24-10.71L80.28,635.96z M128.48,640.45c3.02,0.17,6.05,0.34,9.12,0.48l158.66-206.08
	c-0.55-3.41-1.09-6.81-1.61-10.23L128.48,640.45z M233.45,638.3c3.49-0.34,6.93-0.71,10.33-1.1l72.62-94.33
	c-0.66-3.17-1.33-6.41-2.01-9.71L233.45,638.3z M112.14,639.31c2.96,0.24,5.96,0.46,8.97,0.67l172.27-223.76
	c-0.52-3.46-1.02-6.91-1.51-10.36L112.14,639.31z M162.07,641.55c3.19,0.02,6.34,0.02,9.48,0L302.5,471.47
	c-0.6-3.32-1.19-6.66-1.77-10.02L162.07,641.55z M332.92,620.94c0.3-0.08,0.6-0.15,0.9-0.23c-0.04-0.16-0.1-0.42-0.18-0.72
	L332.92,620.94z M30.67,169.3c0.56,1.35,1.15,2.8,1.76,4.34l3.34-4.33C33.59,169.68,31.75,169.48,30.67,169.3z M64.75,633.76
	c2.81,0.43,5.64,0.85,8.52,1.26l212.77-276.36c-0.38-3.69-0.73-7.34-1.05-10.96L64.75,633.76z M271.63,633.44
	c3.68-0.58,7.3-1.17,10.86-1.79l41.43-53.82c-0.68-3.06-1.38-6.27-2.11-9.58L271.63,633.44z M311.88,625.9
	c3.94-0.86,7.77-1.74,11.51-2.63l8.42-10.94c-0.62-2.61-1.36-5.78-2.21-9.45L311.88,625.9z M252.3,636.18
	c3.58-0.45,7.11-0.93,10.58-1.43l57.23-74.34c-0.67-3.13-1.36-6.35-2.06-9.65L252.3,636.18z M291.47,630.03
	c3.79-0.71,7.52-1.44,11.16-2.18l25.18-32.71c-0.68-2.96-1.4-6.14-2.16-9.52L291.47,630.03z M49.47,631.24
	c2.76,0.49,5.56,0.96,8.39,1.42l226.38-294.04c-0.18-2.35-0.36-4.69-0.51-6.99c-0.1-1.46-0.17-2.88-0.26-4.32L49.47,631.24z
	 M52.68,336.32c-0.47,4.7-1,9.5-1.59,14.39L269.12,67.5c-0.02-3.75-0.03-7.84-0.04-12.26L52.68,336.32z M49.55,362.75
	c-0.66,4.93-1.38,9.96-2.14,15.1l221.96-288.3c-0.08-3.36-0.14-7.37-0.18-12.09L49.55,362.75z M35.78,447.73
	c-0.95,5.34-1.91,10.69-2.9,16.08l245.77-319.22c-1.04-2.82-1.97-5.74-2.78-8.71L35.78,447.73z M40.82,418.82
	c-0.89,5.26-1.82,10.58-2.75,15.88l235.94-306.46c-0.73-3.38-1.34-6.72-1.85-9.91L40.82,418.82z M45.48,390.4
	c-0.8,5.08-1.64,10.27-2.51,15.58l227.98-296.12c-0.44-3.5-0.78-6.62-1.05-9.14c-0.05-0.48-0.1-1.03-0.14-1.64L45.48,390.4z
	 M54.33,267.08c0.27,3.82,0.48,7.65,0.62,11.51L262.22,9.37c-2.59-0.74-5.19-1.47-7.78-2.21L54.33,267.08z M55.02,300.87
	L269.04,22.88c0-4.73,0-8.69,0-11.57c-0.16-0.04-0.32-0.09-0.48-0.13L55.14,288.39C55.17,292.51,55.13,296.66,55.02,300.87z
	 M54.59,311.47c-0.23,4.43-0.53,8.92-0.89,13.48L269.06,45.22c-0.01-3.88-0.01-7.97-0.01-12.3L54.59,311.47z M5.05,621.85
	c2.62,0.65,5.29,1.29,8,1.92l269.91-350.58c0.24-4.59,0.57-9.12,0.98-13.59L5.05,621.85z M5.34,599.09
	c-1.3,5.8-2.62,11.62-3.96,17.46l283.79-368.61c0.65-5.15,1.42-10.25,2.3-15.31L5.34,599.09z M30.42,477.06
	c-1.01,5.42-2.03,10.84-3.07,16.31l258.11-335.25c-1.5-2.14-2.85-4.5-4.07-7.03L30.42,477.06z M34.43,628.42
	c2.71,0.54,5.46,1.08,8.25,1.6l240.28-312.1c-0.18-3.98-0.33-7.92-0.42-11.77L34.43,628.42z M19.63,625.28
	c2.67,0.6,5.37,1.18,8.13,1.76L282.4,296.29c-0.01-4.25,0.05-8.4,0.16-12.52L19.63,625.28z M12.23,567.79
	c-1.22,5.7-2.5,11.46-3.76,17.2l281.69-365.88c1.17-5.32,2.47-10.63,3.93-15.95c0.21-0.78,0.43-1.55,0.64-2.31L12.23,567.79z
	 M24.72,506.83c-1.08,5.51-2.17,11.04-3.29,16.59L295.61,167.3c-2.23-1.08-4.27-2.55-6.13-4.36L24.72,506.83z M18.66,537.07
	c-1.15,5.6-2.33,11.24-3.52,16.89l284.8-369.92c1.95-5.77,3.81-10.73,5.38-14.73c-0.9,0.04-2.08,0.01-3.41-0.14L18.66,537.07z"/>
<path class="Colour2 fill" d="M149.92,16.71c0,0-25.24-7.55-25.2-7.67c0.04-0.13-13.47-3.52-13.47-3.52l-2.67-1.49
	c-0.22-1.41-0.41-2.76-0.57-4.01C94.19,3.78,80.37,7.55,66.55,11.31c0.09,2.76,0.69,23.31,0.21,48.02l1.13,0.8l44.67-37.25
	l44.74-2.01L149.92,16.71z"/>
<path class="Colour3 fill" d="M108.02,0.12l-0.08-0.08c0.02-0.01,0.05-0.01,0.07-0.02C108.01,0.05,108.02,0.09,108.02,0.12z"/>
<path class="Colour2 fill" d="M229.79,0.02c-0.1,0.88-0.22,1.81-0.35,2.77c-0.93,0.14-1.88,0.29-2.06,0.36
	c-0.38,0.14-23.4,9.67-23.78,9.67s-27.03,7.17-27.03,7.17l50.15-2.02l42.79-5.16c0-0.53,0-1.03,0-1.5
	C256.27,7.55,243.03,3.78,229.79,0.02z"/>
<path class="st3" d="M100.79,1.9"/>
<path class="st3" d="M236.09,1.9"/>
<g>
	<rect x="193.67" y="215.05" class="st4" width="31.96" height="12.15"/>
	<rect x="109.03" y="215.05" class="st4" width="31.96" height="12.15"/>
	<rect x="108.95" y="322.61" class="st4" width="31.96" height="12.15"/>
	<rect x="193.59" y="322.61" class="st4" width="31.96" height="12.15"/>
	<rect x="193.59" y="310.46" class="st4" width="31.96" height="12.15"/>
	<rect x="108.95" y="310.46" class="st4" width="31.96" height="12.15"/>
</g>
<path class="st3" d="M100.79,1.9"/>
<path class="st3" d="M236.09,1.9"/>
<path class="Colour2 fill" d="M33.45,175.04c1.86-0.03,4.65-0.28,7.74-1.4c9.89-3.58,15.51-13.38,18.91-22.07l0.17,0.72
	c23.95,82.66,27.38,150.77,26.26,196.39c-1.43,57.99-10.9,107.74-21.59,163.85c-9.22,48.41-26.77,116.6-26.77,116.6
	c-13.5-2.62-26.05-5.49-37.57-8.42c16.37-70.93,29.71-138.78,40.59-203.13c15.31-90.5,21-145.81,2.59-210.95
	c-3.55-12.56-10.62-31.53-10.64-31.58L33.45,175.04z"/>
<path class="Colour2 fill" d="M303.51,175.38c-2.64-0.44-6.37-1.36-10.36-3.47c-8.09-4.28-13.7-11.58-18.05-22.3l-0.18,0.72
	c-26.08,99.42-26.14,177.55-21.93,228.37c3.39,40.89,11.33,85.66,16.41,114.3c9.89,55.78,29.45,135.77,29.45,135.77
	c12.85-2.53,24.79-5.28,35.76-8.06c-1.82-7.42-42.34-174.52-50.09-289.08c-3.36-49.6-0.53-88.71,10.36-128.48
	c3.02-11.01,6.2-20.42,8.92-27.78L303.51,175.38z"/>
<g>
	<path class="st5" d="M302.88,175.37c-2.72,7.36-5.9,16.77-8.92,27.78c-10.89,39.77-13.72,78.88-10.36,128.48
		c7.75,114.56,48.27,281.65,50.09,289.08c-10.88,2.76-22.72,5.49-35.46,8"/>
	<path class="st5" d="M298.23,628.71c-38.29,7.57-84.65,13.3-137.27,12.83c-46.72-0.42-88.27-5.63-123.37-12.48"/>
	<path class="st5" d="M32.86,175.04c3.23,8.24,7.06,18.94,10.64,31.59c18.41,65.14,12.72,120.45-2.59,210.95
		c-10.89,64.35-24.22,132.2-40.59,203.13c11.43,2.91,23.89,5.75,37.27,8.36"/>
	<path class="st5" d="M302.88,175.37c0.82-2.21,1.59-4.24,2.31-6.07c-1.64,0.07-4.12-0.01-6.91-0.87
		c-21.99-6.75-26.69-50.77-28.5-67.71c-0.78-7.34-0.82-29.01-0.86-72.05c-0.01-7.33,0-13.36,0-17.36
		c-13.24-3.76-25.96-7.75-39.2-11.51c0,21.75-123.67,21.76-123.67,0.01c-13.82,3.76-26.57,7.6-40.4,11.5
		c0.2,6.16,3.27,100.78-9.19,132.82c-2.79,7.17-9,23.13-20.73,25.17c-2.22,0.39-4.09,0.18-5.18,0c0.72,1.75,1.5,3.67,2.32,5.74"/>
	<path class="st5" d="M32.86,175.04c1.86-0.03,4.64-0.28,7.74-1.4c9.89-3.58,15.51-13.38,18.91-22.07l0.17,0.72
		c23.95,82.66,27.38,150.77,26.26,196.39c-1.43,57.99-10.9,107.74-21.59,163.85c-9.07,47.6-26.19,114.31-26.76,116.53"/>
	<path class="st5" d="M32.86,175.04C32.85,175.04,32.85,175.04,32.86,175.04l-0.31,0c0.02,0.05,7.09,19.02,10.64,31.58
		c18.41,65.14,12.72,120.45-2.59,210.95C29.71,481.92,16.37,549.78,0,620.71c11.52,2.93,24.07,5.79,37.57,8.42
		c0,0,0.01-0.02,0.02-0.06"/>
	<path class="st5" d="M302.88,175.37c-2.64-0.45-6.36-1.36-10.33-3.47c-8.09-4.28-13.7-11.58-18.05-22.3l-0.18,0.72
		c-26.08,99.42-26.14,177.55-21.93,228.37c3.39,40.89,11.33,85.66,16.41,114.3c9.74,54.91,28.83,133.26,29.43,135.71"/>
	<path class="st5" d="M302.88,175.37c0.01,0,0.02,0,0.03,0.01l0.28,0c-2.72,7.36-5.9,16.77-8.92,27.78
		c-10.89,39.77-13.72,78.88-10.36,128.48c7.75,114.56,48.27,281.65,50.09,289.08c-10.97,2.79-22.91,5.53-35.76,8.06
		c0,0,0-0.02-0.01-0.06"/>
</g>
<path class="NeckAndArmTrim fill" d="M303.63,175.38c-2.64-0.44-6.37-1.36-10.36-3.47c-11.77-6.22-18.28-18.85-23.32-39.06
	c-5.96-23.88-5.7-41.65-6.05-78.13c-0.19-20.26-0.47-36.36-0.65-45.31l6.69,1.9c0,4-0.01,10.03,0,17.36
	c0.04,43.04,0.08,64.71,0.86,72.05c1.81,16.94,6.51,60.96,28.5,67.71c2.79,0.86,5.27,0.93,6.91,0.87L303.63,175.38z"/>
<path class="NeckAndArmTrim fill" d="M33.15,175.05c1.85-0.01,4.77-0.22,8.05-1.41c14.32-5.18,19.69-23.42,22.35-32.44
	c11.54-39.17,8.99-124.16,8.74-131.63l-6.05,1.74c0.2,6.16,2.96,100.78-9.5,132.82c-2.79,7.17-9,23.13-20.73,25.17
	c-2.22,0.39-4.09,0.18-5.18,0L33.15,175.05z"/>
<path class="NeckAndArmTrim fill" d="M237.53,1.85c-9.8,6.22-35.66,20.81-71.52,20.12c-32.95-0.64-56.66-13.84-66.55-20.14l8.28-2.25
	c10.17,5.47,31.35,15.12,59.77,15.37c29.68,0.26,51.79-9.87,62.01-15.37L237.53,1.85z"/>
<g id="BBodyLogos"></g>
</svg>
