<?xml version="1.0" encoding="utf-8"?>
<!-- Generator: Adobe Illustrator 19.1.0, SVG Export Plug-In . SVG Version: 6.00 Build 0)  -->
<svg version="1.1" id="Layer_1" xmlns="http://www.w3.org/2000/svg" xmlns:xlink="http://www.w3.org/1999/xlink" x="0px" y="0px"
	 viewBox="0 0 335.2 641.14" style="enable-background:new 0 0 335.2 641.14;" xml:space="preserve">
<style type="text/css">
	<![CDATA[
	@font-face{font-family:'codaheavy';src:url('/fonts/coda-heavy-webfont.woff') format('woff')}
	text{font-family:Impact,codaheavy,sans-serif}
	.Number.fill{fill:#000}
	.NumberOutline.stroke{fill:none;stroke:#777;stroke-width:2.5}
	.NeckAndArmTrim.fill{fill:#45ADCD;stroke:#000000;stroke-miterlimit:10;}
	.SidePanels.fill{fill:#45ADCD;stroke:#000000;stroke-miterlimit:10;}
	.Gradient1.stopColor{stop-color:#63CAE4;}
	.Gradient2.stopColor{stop-color:#4C57A5;}
	.st0{fill:url(#SVGID_1_);}
	.st1{fill:none;stroke:#000000;stroke-miterlimit:10;}
	.st2{fill:none;stroke:#D0D2D3;stroke-dasharray:5,2.4;}
	.st3{fill:url(#SVGID_2_);}
	.st4{fill:url(#SVGID_3_);}
	.st5{fill:url(#SVGID_4_);}
	.st6{fill:url(#SVGID_5_);}
	.st7{fill:#FFFFFF;stroke:#000000;}
	.st8{fill:none;stroke:#000000;stroke-linecap:round;stroke-linejoin:round;}
	]]>
</style>
<linearGradient id="SVGID_1_" gradientUnits="userSpaceOnUse" x1="167.601" y1="15.0913" x2="167.601" y2="633.2277">
	<stop class="Gradient1 stopColor" offset="0" style="stop-color:#63CAE4"/>
	<stop class="Gradient2 stopColor" offset="1" style="stop-color:#4C57A5"/>
</linearGradient>
<path class="st0" d="M227.31-0.43c13.84,3.76,27.69,7.53,41.53,11.29c-0.2,6.16-2.97,100.85,9.52,132.91
	c2.79,7.17,9.01,23.15,20.77,25.19c2.22,0.39,4.1,0.18,5.19,0c-3.61,8.71-8.5,21.51-12.98,37.35
	c-18.44,65.18-12.74,120.54,2.6,211.1c10.91,64.39,24.26,132.3,40.67,203.28c-41.5,10.53-96.29,20.27-160.94,20.85
	c-70.25,0.63-129.39-9.77-173.06-20.85c1.82-7.43,42.42-174.64,50.19-289.28c3.36-49.63,0.53-88.77-10.38-128.57
	c-3.93-14.34-8.14-25.96-11.25-33.88c1.64,0.07,4.12-0.01,6.92-0.87c22.03-6.76,26.74-50.8,28.55-67.76
	c0.79-7.35,0.82-29.03,0.87-72.1c0.01-7.33,0-13.37,0-17.37C78.77,7.1,92.03,3.33,105.3-0.43c10.23,5.5,32.39,15.64,62.12,15.38
	C195.89,14.7,217.12,5.05,227.31-0.43z"/>
<path class="st1" d="M234.22,1.45"/>
<path class="st1" d="M98.67,1.45"/>
<path class="st2" d="M5.26,601c39.59,11.08,94.58,22.1,160.61,22.3c67.76,0.2,124.06-11.06,164.24-22.3"/>
<path class="st2" d="M3.86,606.99c39.57,11.03,93.75,21.83,158.54,22.39c69.77,0.6,127.76-10.88,169.05-22.39"/>
<path class="st1" d="M97.27,1.85c9.82,6.23,35.73,20.83,71.65,20.13c33.01-0.64,56.77-13.85,66.68-20.15"/>
<path class="NeckAndArmTrim fill" d="M31.75,175.05c2.64-0.44,6.39-1.36,10.38-3.47c11.79-6.23,18.31-18.86,23.36-39.09
	c5.97-23.9,5.71-41.68,6.06-78.18c0.19-20.28,0.47-36.38,0.65-45.34l-6.7,1.9c0,4,0.01,10.04,0,17.37
	c-0.04,43.07-0.08,64.76-0.87,72.1c-1.81,16.96-6.52,61-28.55,67.76c-2.8,0.86-5.28,0.93-6.92,0.87L31.75,175.05z"/>
<path class="NeckAndArmTrim fill" d="M301.99,174.72c-1.85-0.01-4.78-0.22-8.06-1.41c-14.35-5.19-19.73-23.43-22.39-32.46
	c-11.56-39.2-9.01-124.25-8.76-131.73l6.06,1.74c-0.2,6.16-2.97,100.85,9.52,132.91c2.79,7.17,9.01,23.15,20.77,25.19
	c2.22,0.39,4.1,0.18,5.19,0L301.99,174.72z"/>
<path class="NeckAndArmTrim fill" d="M97.27,1.85c9.82,6.23,35.73,20.83,71.65,20.13c33.01-0.64,56.77-13.85,66.68-20.15l-8.3-2.26
	c-10.19,5.48-31.41,15.13-59.88,15.38c-29.74,0.26-51.89-9.88-62.12-15.38L97.27,1.85z"/>
<g>
	<linearGradient id="SVGID_2_" gradientUnits="userSpaceOnUse" x1="255.1277" y1="238.194" x2="267.6726" y2="302.1134">
		<stop class="Gradient2 stopColor" offset="0" style="stop-color:#4C57A5"/>
		<stop class="Gradient1 stopColor" offset="1" style="stop-color:#63CAE4"/>
	</linearGradient>
	<path class="st3" d="M251.71,257.22c-0.54,1.83-8.43-7.35-7.85-3.02c13.06,14.2,25.23,28.59,35.96,41.74
		c-0.03-1.87-0.04-3.72-0.04-5.57c-8.28-8-16.95-15.83-23.46-24.16C252,259.38,265.4,271.75,251.71,257.22z"/>
	<linearGradient id="SVGID_3_" gradientUnits="userSpaceOnUse" x1="167.601" y1="234.1067" x2="167.601" y2="631.3582">
		<stop class="Gradient2 stopColor" offset="0" style="stop-color:#4C57A5"/>
		<stop class="Gradient1 stopColor" offset="1" style="stop-color:#63CAE4"/>
	</linearGradient>
	<path class="st4" d="M173.66,641.54c64.65-0.58,119.45-10.32,160.94-20.85c-16.41-70.98-29.76-138.88-40.67-203.28
		c-7.61-44.93-12.84-81.2-13.94-114.3c-5.77-7.03-13.27-15.42-20.15-22.26c17.8,20.24-17.59-12.94,8.5,13.52
		c-3.38-0.27-5.48,3.02-27.72-19.93c-6.71-10.08,8.16,2.57,4.74-3.67c-0.84-0.18-6.8-5.68-11.79-11.31l4.32,0.62
		c-12.28-9.87-19.15-17.62-18.57-13.31c1.93,1.77,5.71,5.25,6.69,6.64c0.18,1.1-1.6,0.44-1.38,1.57l-20.38-21.22
		c8.14,11.33-20.18-12.94-7.77,5.18l-3.96-4.62c-6.2-2.39,33.72,39.68,36.34,46.86c-8.94-10.62-17.62-19.14-27.31-29.03
		c9.1,11.75-8.23-5.21-14.64-9.74c13.14,11.18,20.6,23.32,28.07,29.24c20.45,21.29,18.17,23.5,14.65,22.12
		c-26.94-26.82-10.79-18.54-39.37-44.92c-3.53-1.37,11.07,14.48,16.68,18.7c-4.45-1.71-9.57-2.66-26.76-18.54
		c18.04,22.37,6.56,11.75,31.18,39.72c-0.22-2.1-18.75-21.58-7.45-12.08l17.84,21.25c-0.43,2.91-18.47-13.33-22-14.65l-7.21-9.98
		l3.02,3.23c-7.98-9.25-1.6-5.75-16.12-20.58c16.81,19.8-1.38,2.52,9.74,17.08l-2.96-3.21c12.43,18.14-33.65-26.35,1.85,14.06
		c-0.12-1.1,15.11,13.02,21.95,20.75c-9.47-8.73-8.01-4.09-18.77-15.43l-3.07-4.27c-4.38-1.69-7.05-2.73-4,1.54
		c12.75,14.14,23.38,24.39,29.54,32.95c-10.92-6.27-29.54-32.95-42.6-43.15l11.43,16.74l-12.48-12.02
		c-15.46-9.04,21.35,34.93,17.66,38.66c-20.44-21.26-26.07-32.66-26.42-34.89c-16.83-15.51-1.11,3.79-6.87,0.61
		c-1.49-1.28-2.74-2.26-3.54-2.66c0.06,0.02,0.28,0.31,0.38,0.36c-0.16-0.13-0.18-0.12-0.34-0.25c-1.85-0.72,0.54,2.83,4.32,7.61
		c-2.31-2.34-4.64-4.66-7.1-7.43c3.02,4.18,9.39,13,12.98,18.01c-1.33-1.36-2.5-2.57-3.15-3.16c1.9,2.08,3.26,3.67,4.69,5.33
		c0.1,0.13,0.3,0.42,0.38,0.53c-11.71-11.61-4.35-5.48-9.47-11.34l4.62,8.94l11.74,10.96c0.21,0.32,0.46,0.66,0.63,0.93
		c-0.41-0.23-0.88-0.53-1.05-0.54c-6.85-7.18-13.21-13.36-15.84-14.44c1.6,0.67,9.87,11.37,18.54,19.1l0.03,0.04
		c0,0.52-0.07,0.98-0.16,1.42c-1.29-1.62-2.5-3.18-4.18-5.18c-16.36-15.71-6.15-5.14,1.52,3.4c-2.4-1.82-5.28-4.24-8.77-7.58
		l-0.39-0.4l0.1,0.15c-3.08-2.96-6.42-6.41-9.8-10.28c3.44,5.13,11.73,17.56,14.27,21.33c-11.74-11.61-4.22-5.62-9.28-11.54
		l4.1,9.43l4.44,4.06c-1.26,0.21-5.09-2.44-12.61-9.38c23.89,28.7-13.41-6.23,15.35,27.45c-4.56-2.79-12.94-15.25-14.59-14.87
		c-1.03-0.15-1.7,0.12-2,0.74c-9.37-10.56-18.72-21.47-18.93-22.18c0.65,2.37,8.79,11.59,18.91,22.64c-0.45,1.8,1.41,6.04,5.5,12.66
		c-0.76-0.44-0.01,0.68,1.85,2.93c0.28,0.44,0.45,0.76,0.77,1.21c-9.55-9.51-20.12-18.76-28.12-28.3c-4.67-6.51,8.65,5.91-5.2-8.45
		c-0.26,1.58-8.37-7.42-7.29-3.53c7.58,7.96,14.71,15.85,21.68,23.63c-3.34-1.27-3.85,0.14-2.53,3.29c-0.54-0.52-1.1-1.13-1.62-1.65
		c0.83,0.9,1.03,1.18,1.64,1.87c0.44,1.03,1.3,2.45,2.02,3.73c-1.63-1.21-3.64-2.81-4.22-3.11c-2.94-3.6-5.22-6.49-5.28-6.83
		c0.37,2.06,5.73,8.62,13.04,16.92c-2.65-0.45-7.35-2.71-24.87-20.42c-7.15-9.61,7.55,3.19,3.69-2.69
		c-0.77-0.25-6.67-5.77-11.79-11.29l3.81,1.04c-11.96-10.06-19.02-17.67-17.92-13.84c1.89,1.77,5.67,5.29,6.71,6.6
		c0.26,0.99-1.32,0.23-1.02,1.22l-20.59-20.99c8.6,10.88-19.36-13.67-6.08,3.68l-4.07-4.51c-5.74-2.83,34.69,38.74,37.96,45.36
		c-9.21-10.37-17.95-18.87-27.69-28.63c9.49,11.34-7.88-5.54-14.09-10.27c12.97,11.36,21.06,22.83,28.4,28.94
		c6.43,6.55,10.53,11.05,13.26,14.34c-7.35-5.97-12.47-10.73-15.27-12.68c-4.15-5.6-5.63-8.78-22.62-24.57
		c-3.24-1.6,11.62,14.02,17.08,18.38c-4.1-2.03-8.68-3.44-25.82-19.36c6.68,7.75,9.49,11.32,11.53,14.04c-2.33-1.29-5-2.8-6.68-3.25
		c-1.38-1.49-2.37-2.62-4.56-4.81c1.81,2.03,3.03,3.44,4.14,4.74c-1.59-0.23-1.77,1.06,2.18,6.55l-4.04-4.54
		c-2.07-0.87,1.47,3.64,6.93,9.99c-4.48-1.9-26.51-22.31,2.04,8.8c-0.08-0.26,1.22,0.8,3.06,2.44
		c-0.63,0.68-12.09-10.08-17.05-13.61c4.2,3.57,7.72,7.14,10.98,10.64c-1.69-0.64-2.2-0.36-0.03,2.38c1.16,1.23,2.28,2.43,3.4,3.61
		c-2.69-2.74-6.17-6.09-10.84-10.36c-0.91-0.37-0.48,0.52,0.64,1.98c-2.03-1.96-4.18-4.22-5.97-5.69l12.19,16.02L57.04,318.2
		c-3.36-2.23-3.74-1.48-2.69,0.72c-0.52-0.48-0.82-0.68-1.36-1.18c0.86,1.03,1.38,1.68,2.1,2.57c5.19,8.79,24.37,31.66,22.53,33.83
		c-0.04-0.02-0.06-0.02-0.09-0.06c-4.03-4.1-7.15-7.52-10.16-10.85l-1.32-1.77l3,3.22c-8.05-9.16-1.79-5.57-16.44-20.28
		c8.07,9.24,8.2,10.22,7.33,10.25c-4.32-5.26-7.12-9.16-8.64-11.57c-0.14,2.61-0.3,5.25-0.48,7.92c3.25,3.57,6.86,7.41,10.32,10.96
		c-0.93-0.2-2.48-1.07-4.57-2.51c-2.21-2.23-4.35-4.42-5.92-5.99c0,0.05-0.01,0.1-0.01,0.15c1.61,1.73,3,3.25,4.26,4.65
		c-1.59-1.13-3.16-2.25-4.37-3.02c-0.06,0.84-0.12,1.67-0.19,2.51c2.06,2.64,5.78,6.98,11.92,13.77c-0.03-0.2,0.9,0.55,1.83,1.31
		c0.13,0.45,0.41,1,0.88,1.75l-12.67-12.84l7.88,9.93c-2.04-0.78-3.19-0.95-2.68,0.31c-0.12-0.13-0.24-0.28-0.37-0.42
		c1.7,2.95,0.7,3.04-2.87,0.32c-1.59-1.62-3.17-3.22-4.69-4.69c-0.05,0.61-0.11,1.22-0.17,1.83c0.03,0.04,0.06,0.08,0.09,0.12
		l4.49,6.24c0.03,0.59-0.73,0.36-1.69-0.08l-3.2-3.03c-0.29,3.02-0.59,6.06-0.91,9.13c1.56,2.69,4.04,6.34,7.71,11.23
		c-0.78,0.09-3.98-2.87-8.16-6.98c-0.33,3.06-0.68,6.13-1.05,9.23c1.27,1.78,2.51,3.52,3.63,5.15c-0.98-0.8-2.32-2.04-3.82-3.49
		c-0.07,0.59-0.14,1.18-0.22,1.77c3.53,4.89,2.36,5.4,2.36,6.95l-2.81-3.22C32.42,489.72,2.17,614.3,0.6,620.69
		C44.27,631.78,103.4,642.17,173.66,641.54z M233.37,390.23c-2.3-2.58-4.17-4.79-5.76-6.81c2.85,2.88,6.01,6.02,9.7,9.8
		C237.37,393.9,236.71,393.68,233.37,390.23z M234.32,381.13c2.05,2.29,3.41,3.6,4.38,4.25c2.57,2.49,5.09,4.95,7.65,7.45
		c8.4,9.19,11.66,13.71,13.14,16.71c-2.11-1.89-4.46-4.04-7.88-7.34c12.14,10.73-3.67-6.57-5.86-9.2c-5.14-3.66-2.46,2.06,3.47,9.18
		c-3.41-3.49-5.8-5.77-7.58-7.41c-4.05-5.34-7.87-10.58-12.72-16.21c1.16,2.52,12.03,14.96,4.5,8.93l-6.24-6.66l0.32-2.85l1.68,1.56
		c-0.71-0.69-1.1-1.11-1.67-1.67l0.06-0.44c-0.14-0.14-0.46-0.5-0.64-0.67c0.03,0.04,0.07,0.04,0.11,0.08
		c-0.35-0.38-0.29-0.23-0.57-0.54c-2.49-2.49-6.53-6.98-10.08-10.68c0.33,0.01-0.54-1.35-4.74-6.38
		C218.94,366.3,226.6,373.68,234.32,381.13z M214.28,356.52c3.97,5.45,10.87,11.15,15.1,16.63c-0.83-0.53-1.87-1.34-3.37-2.66
		c-6.08-6.22-10.32-11.35-14.94-16.9C212.14,354.58,213.04,355.37,214.28,356.52z M211.88,361.71c-0.43-0.24-1.15-0.86-1.16-0.45
		c-1.56-1.72-2.97-3.36-4.39-4.98C208.08,357.96,210,359.86,211.88,361.71z M205.16,357.81c3.21,3.52,6.96,7.76,10.72,11.92
		c0.99,1.22,1.94,2.4,2.89,3.55c1.3,1.67,2.71,3.42,4.13,4.99c1.55,1.88,3.1,3.81,4.55,5.41c-0.18-0.1-0.54-0.43-0.71-0.56
		c-0.32-0.35-0.52-0.56-0.77-0.82c0.19,0.22,0.34,0.41,0.59,0.69c-2.62-1.91-7.65-6.53-12.64-11.12c-2.12-2.64-4.33-5.44-6.81-8.45
		c1.63,0.78-1.37-2.77-4.91-6.83C204.17,358.03,205.03,358.3,205.16,357.81z M173.07,330.32c-0.15-0.09-0.11-0.02-0.24-0.1
		c-0.12-0.16-0.24-0.31-0.37-0.46L173.07,330.32z M137.04,333.62c0.9,0.96,2.56,2.61,4.09,4.16c0.57,0.93,1.22,1.93,1.83,2.89
		C140.75,338.07,138.89,335.84,137.04,333.62z M108.68,330.04c4.31,5.26,4.49,6.78,3.28,6.63c-2.17-2.05-4.75-4.64-7.18-7.32
		L108.68,330.04z M100.26,356.99c-3.98-2.58-9.47-8.21-15.29-14.43c-2.41-3.51-3.88-6.16-8.6-11.3
		C86.51,341.87,94.81,350.14,100.26,356.99z M77.29,334.37c0.75,0.66,1.69,1.6,2.27,2.02c-0.2-0.08-0.44-0.18-0.64-0.26
		C78.37,335.54,77.84,334.98,77.29,334.37z M88.56,386.52c-0.93-0.55-2.23-1.93-3.29-2.78c-7-7.79-13.61-15.45-19.91-22.71
		C75.02,371.17,83.45,379.72,88.56,386.52z"/>
	<linearGradient id="SVGID_4_" gradientUnits="userSpaceOnUse" x1="225.6959" y1="381.6954" x2="225.8255" y2="382.3556">
		<stop class="Gradient2 stopColor" offset="0" style="stop-color:#4C57A5"/>
		<stop class="Gradient1 stopColor" offset="1" style="stop-color:#63CAE4"/>
	</linearGradient>
	<path class="st5" d="M225.97,382.29c-0.11-0.13-0.23-0.26-0.4-0.44C225.73,382.03,225.85,382.16,225.97,382.29z"/>
	<linearGradient id="SVGID_5_" gradientUnits="userSpaceOnUse" x1="265.5525" y1="244.3007" x2="273.088" y2="282.6957">
		<stop class="Gradient2 stopColor" offset="0" style="stop-color:#4C57A5"/>
		<stop class="Gradient1 stopColor" offset="1" style="stop-color:#63CAE4"/>
	</linearGradient>
	<path class="st6" d="M259.59,253.11c0.4,2.85,9.45,13.56,20.39,25.96c0-0.14,0.01-0.29,0.01-0.43
		C270.21,267.04,259.7,253.97,259.59,253.11z"/>
</g>
<g>
	<rect x="109.15" y="214.75" class="st7" width="32.02" height="12.16"/>
	<rect x="193.95" y="214.75" class="st7" width="32.02" height="12.16"/>
	<rect x="194.03" y="322.38" class="st7" width="32.02" height="12.16"/>
	<rect x="109.24" y="322.38" class="st7" width="32.02" height="12.16"/>
	<rect x="109.24" y="310.22" class="st7" width="32.02" height="12.16"/>
	<rect x="194.03" y="310.22" class="st7" width="32.02" height="12.16"/>
</g>
<path class="SidePanels fill" d="M301.69,174.71c-1.86-0.03-4.66-0.28-7.76-1.4c-9.9-3.58-15.54-13.39-18.95-22.09l-0.17,0.72
	c-24,82.72-27.43,150.88-26.31,196.53c1.43,58.03,10.92,107.82,21.63,163.97c9.24,48.44,26.82,116.68,26.82,116.68
	c13.53-2.63,26.1-5.5,37.64-8.42c-16.41-70.98-29.76-138.88-40.67-203.28c-15.34-90.56-21.04-145.91-2.6-211.1
	c3.56-12.57,10.64-31.55,10.66-31.6L301.69,174.71z"/>
<path class="SidePanels fill" d="M31.75,175.05c2.64-0.44,6.39-1.36,10.38-3.47c8.11-4.28,13.72-11.59,18.08-22.32l0.18,0.72
	c26.13,99.49,26.19,177.68,21.97,228.53c-3.4,40.92-11.35,85.72-16.44,114.38c-9.91,55.82-29.5,135.87-29.5,135.87
	c-12.88-2.54-24.84-5.28-35.83-8.07c1.82-7.43,42.42-174.64,50.19-289.28c3.36-49.63,0.53-88.77-10.38-128.57
	c-3.02-11.02-6.21-20.43-8.93-27.8L31.75,175.05z"/>
<g>
	<path class="st8" d="M330.52,621.74c-0.45,0.11-0.91,0.22-1.37,0.33"/>
	<path class="st1" d="M0.68,620.69c1.37,0.35,2.75,0.69,4.15,1.04"/>
	<path class="st8" d="M19.84,625.26c-0.67-0.15-1.34-0.3-2.01-0.45"/>
	<path class="st8" d="M326.26,622.77c-0.55,0.13-1.11,0.26-1.66,0.39"/>
	<path class="st8" d="M6.66,622.18c-0.61-0.15-1.22-0.3-1.83-0.45"/>
	<path class="st1" d="M38.12,194.64c0.03,0.11,0.07,0.21,0.1,0.32"/>
	<path class="st8" d="M10.74,623.16c-0.55-0.13-1.12-0.26-1.66-0.39"/>
	<path class="st8" d="M317.48,624.82c-0.63,0.14-1.26,0.28-1.9,0.43"/>
	<path class="st8" d="M312.94,625.83c-0.64,0.14-1.29,0.28-1.94,0.42"/>
	<path class="st1" d="M39.23,198.38c0.08,0.28,0.16,0.56,0.24,0.84"/>
	<path class="st8" d="M15.04,624.17c-0.54-0.12-1.08-0.25-1.62-0.37"/>
	<path class="st8" d="M321.92,623.8c-0.6,0.14-1.21,0.28-1.81,0.42"/>
	<path class="st1" d="M15.04,624.17c0.93,0.21,1.85,0.43,2.8,0.64"/>
	<path class="st8" d="M302.05,174.78c-3.12,7.94-6.78,18.16-10.24,30.19"/>
	<path class="st1" d="M29.02,627.24c0.87,0.18,1.73,0.36,2.61,0.54"/>
	<path class="st1" d="M10.74,623.16c0.89,0.21,1.78,0.42,2.68,0.63"/>
	<path class="st1" d="M34.69,183.92c0.07,0.21,0.15,0.43,0.22,0.65"/>
	<path class="st1" d="M19.84,625.26c0.83,0.19,1.66,0.37,2.5,0.56"/>
	<path class="st1" d="M35.79,187.21c0.05,0.17,0.11,0.33,0.16,0.49"/>
	<path class="st1" d="M24.49,626.28c0.81,0.18,1.62,0.35,2.45,0.53"/>
	<path class="st1" d="M36.95,190.82c0.08,0.25,0.16,0.5,0.24,0.75"/>
	<path class="st1" d="M291.42,206.32c0.13-0.45,0.26-0.9,0.39-1.34"/>
	<path class="st1" d="M33.54,180.57c0.06,0.19,0.13,0.37,0.19,0.55"/>
	<path class="st1" d="M6.66,622.18c0.8,0.2,1.6,0.39,2.42,0.59"/>
	<path class="st1" d="M33.76,628.21c0.88,0.18,1.75,0.35,2.63,0.53"/>
	<path class="st1" d="M302.05,174.78c0.83-2.1,1.61-4.05,2.35-5.82c-1.09,0.18-2.97,0.39-5.19,0
		c-11.75-2.05-17.97-18.02-20.77-25.19c-12.49-32.06-9.72-126.75-9.52-132.91c-13.84-3.76-27.69-7.53-41.53-11.29
		C217.2,5.05,195.98,14.7,167.5,14.95c-29.74,0.26-51.89-9.88-62.12-15.38C92.12,3.33,78.85,7.1,65.58,10.86c0,4,0.01,10.04,0,17.37
		c-0.04,43.07-0.08,64.76-0.87,72.1c-1.81,16.96-6.52,61-28.55,67.76c-2.8,0.86-5.28,0.93-6.92,0.87c0.74,1.88,1.54,3.98,2.38,6.27"
		/>
	<path class="st1" d="M326.26,622.77c0.97-0.23,1.93-0.47,2.89-0.7"/>
	<path class="st1" d="M317.48,624.82c0.88-0.2,1.76-0.4,2.63-0.6"/>
	<path class="st8" d="M39.23,198.38c-0.34-1.16-0.67-2.3-1.01-3.42"/>
	<path class="st8" d="M308.28,626.83c-0.64,0.14-1.28,0.27-1.93,0.41"/>
	<path class="st8" d="M32.53,177.73c-0.31-0.86-0.61-1.69-0.91-2.49"/>
	<path class="st1" d="M321.92,623.8c0.9-0.21,1.79-0.42,2.68-0.63"/>
	<path class="st1" d="M330.52,621.74c1.4-0.35,2.79-0.69,4.16-1.04"/>
	<path class="st8" d="M35.79,187.21c-0.29-0.9-0.59-1.78-0.88-2.64"/>
	<path class="st8" d="M34.69,183.92c-0.32-0.96-0.64-1.89-0.96-2.8"/>
	<path class="st1" d="M32.53,177.73c0.06,0.17,0.12,0.34,0.18,0.52"/>
	<path class="st1" d="M297.04,629.12c-35.1,6.82-76.63,12.01-123.3,12.43c-52.58,0.47-98.93-5.24-137.23-12.78"/>
	<path class="st8" d="M38.12,194.64c-0.31-1.04-0.63-2.06-0.94-3.06"/>
	<path class="st8" d="M33.54,180.57c-0.28-0.79-0.55-1.57-0.82-2.32"/>
	<path class="st8" d="M297.04,629.12c0.43-0.08,0.85-0.17,1.28-0.25"/>
	<path class="st8" d="M40.49,202.85c-0.34-1.23-0.68-2.43-1.02-3.62"/>
	<path class="st8" d="M29.02,627.24c-0.7-0.15-1.4-0.29-2.09-0.43"/>
	<path class="st8" d="M36.95,190.82c-0.33-1.06-0.67-2.1-1-3.12"/>
	<path class="st8" d="M24.49,626.28c-0.72-0.15-1.44-0.31-2.15-0.46"/>
	<path class="st1" d="M298.32,628.87c1.11-0.22,2.22-0.44,3.31-0.66"/>
	<path class="st8" d="M303.46,627.84c-0.61,0.12-1.21,0.25-1.82,0.37"/>
	<path class="st8" d="M36.51,628.76c-0.04-0.01-0.08-0.02-0.12-0.02"/>
	<path class="st1" d="M312.94,625.83c0.89-0.19,1.77-0.39,2.64-0.58"/>
	<path class="st8" d="M33.76,628.21c-0.71-0.14-1.42-0.28-2.13-0.43"/>
	<path class="st1" d="M308.28,626.83c0.91-0.19,1.82-0.39,2.72-0.58"/>
	<path class="st1" d="M303.46,627.84c0.97-0.2,1.94-0.4,2.89-0.6"/>
	<path class="st8" d="M315.58,625.25c0.63-0.14,1.27-0.28,1.9-0.43"/>
	<path class="st8" d="M297.04,629.12L297.04,629.12c0.43-0.08,0.85-0.17,1.28-0.25"/>
	<path class="st8" d="M301.64,628.21c-1.1,0.22-2.2,0.44-3.31,0.66"/>
	<path class="st8" d="M306.35,627.24c-0.96,0.2-1.92,0.4-2.89,0.6"/>
	<path class="st8" d="M301.64,628.21c0.61-0.12,1.22-0.25,1.82-0.37"/>
	<path class="st8" d="M311,626.25c-0.9,0.19-1.81,0.39-2.72,0.58"/>
	<path class="st8" d="M329.15,622.07c0.46-0.11,0.92-0.22,1.37-0.33"/>
	<path class="st8" d="M315.58,625.25c-0.88,0.2-1.76,0.39-2.64,0.58"/>
	<path class="st8" d="M306.35,627.24c0.65-0.14,1.29-0.27,1.93-0.41"/>
	<path class="st8" d="M324.6,623.17c0.55-0.13,1.11-0.26,1.66-0.39"/>
	<path class="st8" d="M320.1,624.22c0.61-0.14,1.21-0.28,1.81-0.42"/>
	<path class="st8" d="M311,626.25c0.65-0.14,1.29-0.28,1.94-0.42"/>
	<path class="st8" d="M302.05,174.78c0.02-0.04,0.02-0.07,0.03-0.07l-0.3,0c-1.86-0.03-4.66-0.28-7.76-1.4
		c-9.9-3.58-15.54-13.39-18.95-22.09l-0.17,0.72c-24,82.72-27.43,150.88-26.31,196.53c1.43,58.03,10.92,107.82,21.63,163.97
		c9.23,48.42,26.81,116.62,26.82,116.68"/>
	<path class="st8" d="M334.68,620.69c-1.37,0.35-2.76,0.7-4.16,1.04"/>
	<path class="st8" d="M291.81,204.98c-0.13,0.45-0.26,0.9-0.39,1.34"/>
	<path class="st8" d="M320.1,624.22c-0.87,0.2-1.75,0.4-2.63,0.6"/>
	<path class="st8" d="M302.05,174.78c-0.44,1.18-6.71,18.08-10.24,30.19"/>
	<path class="st8" d="M329.15,622.07c-0.96,0.23-1.92,0.47-2.89,0.7"/>
	<path class="st8" d="M324.6,623.17c-0.89,0.21-1.78,0.42-2.68,0.63"/>
	<path class="st8" d="M291.42,206.32c-18.44,65.18-12.74,120.54,2.6,211.1c10.91,64.39,24.26,132.3,40.67,203.28"/>
	<path class="st8" d="M34.91,184.57c0.29,0.86,0.58,1.74,0.88,2.64"/>
	<path class="st8" d="M33.73,181.12c0.32,0.91,0.64,1.85,0.96,2.8"/>
	<path class="st8" d="M37.18,191.58c-0.08-0.25-0.16-0.5-0.24-0.75"/>
	<path class="st8" d="M31.62,175.24c0.3,0.81,0.6,1.64,0.91,2.49"/>
	<path class="st8" d="M38.22,194.96c-0.03-0.11-0.07-0.22-0.1-0.32"/>
	<path class="st8" d="M37.18,191.58c0.31,1,0.63,2.02,0.94,3.06"/>
	<path class="st8" d="M40.49,202.85c-0.34-1.23-0.68-2.43-1.02-3.62"/>
	<path class="st8" d="M39.47,199.23c-0.08-0.28-0.16-0.56-0.24-0.84"/>
	<path class="st8" d="M38.22,194.96c0.34,1.12,0.67,2.26,1.01,3.42"/>
	<path class="st8" d="M32.72,178.25c0.27,0.76,0.55,1.53,0.82,2.32"/>
	<path class="st8" d="M35.95,187.71c0.33,1.02,0.66,2.06,1,3.12"/>
	<path class="st8" d="M36.39,628.74c-0.88-0.17-1.76-0.35-2.63-0.53"/>
	<path class="st8" d="M13.42,623.8c0.53,0.12,1.08,0.25,1.62,0.37"/>
	<path class="st8" d="M17.83,624.81c0.66,0.15,1.34,0.3,2.01,0.45"/>
	<path class="st8" d="M0.68,620.69c1.37,0.35,2.75,0.69,4.15,1.04"/>
	<path class="st8" d="M9.08,622.77c0.55,0.13,1.11,0.26,1.66,0.39"/>
	<path class="st8" d="M4.83,621.73c0.6,0.15,1.22,0.3,1.83,0.45"/>
	<path class="st8" d="M22.34,625.81c0.71,0.16,1.44,0.31,2.15,0.46"/>
	<path class="st8" d="M36.39,628.74c0.04,0.01,0.08,0.02,0.12,0.02l0,0"/>
	<path class="st8" d="M31.62,175.24c-0.02-0.06-0.05-0.13-0.07-0.19l0.28,0c2.64-0.44,6.39-1.36,10.38-3.47
		c8.11-4.28,13.72-11.59,18.08-22.32l0.18,0.72c26.13,99.49,26.19,177.68,21.97,228.53c-3.4,40.92-11.35,85.72-16.44,114.38
		c-9.91,55.81-29.49,135.83-29.5,135.86"/>
	<path class="st8" d="M31.63,627.78c0.7,0.14,1.42,0.29,2.13,0.43"/>
	<path class="st8" d="M26.94,626.81c0.69,0.15,1.39,0.29,2.09,0.43"/>
	<path class="st8" d="M35.95,187.71c-0.05-0.17-0.11-0.33-0.16-0.49"/>
	<path class="st8" d="M33.73,181.12c-0.07-0.19-0.13-0.37-0.19-0.55"/>
	<path class="st8" d="M32.72,178.25c-0.06-0.17-0.12-0.35-0.18-0.52"/>
	<path class="st8" d="M31.63,627.78c-0.88-0.18-1.74-0.36-2.61-0.54"/>
	<path class="st8" d="M9.08,622.77c-0.81-0.2-1.61-0.39-2.42-0.59"/>
	<path class="st8" d="M34.91,184.57c-0.07-0.22-0.15-0.44-0.22-0.65"/>
	<path class="st8" d="M13.42,623.8c-0.9-0.21-1.79-0.42-2.68-0.63"/>
	<path class="st8" d="M17.83,624.81c-0.94-0.21-1.87-0.43-2.8-0.64"/>
	<path class="st8" d="M26.94,626.81c-0.82-0.17-1.63-0.35-2.45-0.53"/>
	<path class="st8" d="M22.34,625.81c-0.84-0.18-1.67-0.37-2.5-0.56"/>
	<path class="st8" d="M40.49,202.85c10.91,39.79,13.75,78.93,10.38,128.57C43.1,446.06,2.51,613.27,0.68,620.69"/>
</g>
<g id="BBodyLogos"></g>
</svg>
