<?xml version="1.0" encoding="utf-8"?>
<!-- Generator: Adobe Illustrator 19.1.0, SVG Export Plug-In . SVG Version: 6.00 Build 0)  -->
<svg version="1.1" id="Layer_1" xmlns="http://www.w3.org/2000/svg" xmlns:xlink="http://www.w3.org/1999/xlink" x="0px" y="0px"
	 viewBox="0 0 335.2 641.14" style="enable-background:new 0 0 335.2 641.14;" xml:space="preserve">
<style type="text/css">
	<![CDATA[
	@font-face{font-family:'codaheavy';src:url('/fonts/coda-heavy-webfont.woff') format('woff')}
	text{font-family:Impact,codaheavy,sans-serif}
	.Colour1.fill{fill:#1C1E2C;}
	.Colour2.fill{fill:#FFCF2C;}
	.Colour3.fill{fill:#00A28C;}
	.Colour4.fill{opacity:0.4;fill:#1C1E2C;}
	.Colour5.fill{fill:#FFFFFF;}
	.NeckAndArmTrim.fill{fill:#1C1E2C;stroke:#000000;stroke-miterlimit:10;}
	.SidePanels.fill{fill:#1C1E2C;stroke:#000000;stroke-miterlimit:10;}
	.st0{fill:#FFFFFF;stroke:#000000;stroke-miterlimit:10;}
	.st1{opacity:0.4;fill:none;}
	.st4{fill:none;stroke:#000000;stroke-miterlimit:10;}
	.st5{fill:#FFFFFF;stroke:#000000;}
	]]>
</style>
<path class="Colour5 fill" d="M227.31-0.43c13.84,3.76,27.69,7.53,41.53,11.29c-0.2,6.16-2.97,100.85,9.52,132.91
	c2.79,7.17,9.01,23.15,20.77,25.19c2.22,0.39,4.1,0.18,5.19,0c-3.61,8.71-8.5,21.51-12.98,37.35
	c-18.44,65.18-12.74,120.54,2.6,211.1c10.91,64.39,24.26,132.3,40.67,203.28c-41.5,10.53-96.29,20.27-160.94,20.85
	c-70.25,0.63-129.39-9.77-173.06-20.85c1.82-7.43,42.42-174.64,50.19-289.28c3.36-49.63,0.53-88.77-10.38-128.57
	c-3.93-14.34-8.14-25.96-11.25-33.88c1.64,0.07,4.12-0.01,6.92-0.87c22.03-6.76,26.74-50.8,28.55-67.76
	c0.79-7.35,0.82-29.03,0.87-72.1c0.01-7.33,0-13.37,0-17.37C78.77,7.1,92.03,3.33,105.3-0.43c2.1,17.98,9.02,53.37,36.34,84.26
	c8.08,9.14,16.48,16.23,24.23,21.72c7.76-5.52,16.14-12.62,24.23-21.72C217.47,53.05,224.91,17.9,227.31-0.43z"/>
<path class="Colour2 fill" d="M43.72,397.93C29.53,501.61,2.09,614.62,0.6,620.69c9.74,2.47,20.26,4.91,31.49,7.2l130.85-166.63
	l132.09,168.21c14.25-2.73,27.49-5.72,39.57-8.78c-16.41-70.98-29.76-138.88-40.67-203.28c-0.33-1.93-0.64-3.83-0.96-5.73
	L162.94,246.1L43.72,397.93z"/>
<g>
	<path class="st1" d="M41.55,413.13c-1.55,10.51-3.21,21.05-4.95,31.51h52.49l73.85-94.05l73.85,94.05h61.87
		c-1.01-5.71-1.99-11.38-2.97-17.04L162.94,258.55L41.55,413.13z"/>
</g>
<path class="Colour1 fill" d="M173.66,641.54c55.18-0.49,103.15-7.66,141.83-16.3L162.94,430.99L11.82,623.44
	C54.18,633.43,109.24,642.12,173.66,641.54z"/>
<polygon class="Colour3 fill" points="73.44,435.13 123.99,435.13 175.64,369.35 227.3,435.13 277.85,435.13 175.64,304.98 "/>
<path class="Colour1 fill" d="M176.75,268.32l-51.65,65.78l-51.65-65.78H51.28c0.77,11.85,1,24.12,0.71,37.06l73.11,93.09l102.2-130.15
	H176.75z"/>
<path class="Colour4 fill" d="M41.43,461.07l72.01-91.7l72.01,91.7h70.47L113.44,279.63L48,362.97c-3.37,31.67-8.52,65.59-14.2,98.1H41.43z"
	/>
<path class="st4" d="M98.67,1.45c1.6,14.45,6.57,41.47,24.8,69.35c14.38,22.01,31.28,35.76,42.4,43.44
	c11.12-7.34,27.93-20.47,42.4-41.7C227.72,44,232.69,15.88,234.22,1.45"/>
<path class="st4" d="M72.2,8.96c-0.17,8.95-0.45,25.06-0.65,45.34c-0.34,36.5-0.09,54.28-6.06,78.18
	c-5.05,20.23-11.57,32.87-23.36,39.09c-4,2.11-7.74,3.03-10.38,3.47"/>
<path class="st4" d="M262.78,9.13c-0.25,7.48-2.8,92.53,8.76,131.73c2.66,9.02,8.04,27.27,22.39,32.46
	c3.28,1.18,6.21,1.39,8.06,1.41"/>
<path class="st4" d="M107.61,14.02c8.95,5.27,30.13,16.11,59.12,15.96c28.27-0.15,48.92-10.69,57.87-15.96"/>
<path class="st4" d="M109.45,22c10.2,5.01,29.77,12.96,55.56,13.19c27.06,0.24,47.57-8.13,57.87-13.19"/>
<g>
	<rect x="109.19" y="214.75" class="st5" width="32.02" height="12.16"/>
	<rect x="193.99" y="214.75" class="st5" width="32.02" height="12.16"/>
	<rect x="194.07" y="322.38" class="st5" width="32.02" height="12.16"/>
	<rect x="109.28" y="322.38" class="st5" width="32.02" height="12.16"/>
	<rect x="109.28" y="310.22" class="st5" width="32.02" height="12.16"/>
	<rect x="193.99" y="310.22" class="st5" width="32.02" height="12.16"/>
</g>
<path class="SidePanels fill" d="M301.69,174.71c-1.86-0.03-4.66-0.28-7.76-1.4c-9.9-3.58-15.54-13.39-18.95-22.09l-0.17,0.72
	c-24,82.72-27.43,150.88-26.31,196.53c1.43,58.03,10.92,107.82,21.63,163.97c9.24,48.44,26.82,116.68,26.82,116.68
	c13.53-2.63,26.1-5.5,37.64-8.42c-16.41-70.98-29.76-138.88-40.67-203.28c-15.34-90.56-21.04-145.91-2.6-211.1
	c3.56-12.57,10.64-31.55,10.66-31.6L301.69,174.71z"/>
<path class="SidePanels fill" d="M31.75,175.05c2.64-0.44,6.39-1.36,10.38-3.47c8.11-4.28,13.72-11.59,18.08-22.32l0.18,0.72
	c26.13,99.49,26.19,177.68,21.97,228.53c-3.4,40.92-11.35,85.72-16.44,114.38c-9.91,55.82-29.5,135.87-29.5,135.87
	c-12.88-2.54-24.84-5.28-35.83-8.07c1.82-7.43,42.42-174.64,50.19-289.28c3.36-49.63,0.53-88.77-10.38-128.57
	c-3.02-11.02-6.21-20.43-8.93-27.8L31.75,175.05z"/>
<path class="NeckAndArmTrim fill" d="M234.22,1.45c-1.53,14.43-6.5,42.55-25.95,71.09c-14.47,21.23-31.28,34.36-42.4,41.7
	c-11.12-7.68-28.01-21.43-42.4-43.44c-18.23-27.88-23.2-54.9-24.8-69.35l6.63-1.88c2.1,17.98,9.02,53.37,36.34,84.26
	c8.08,9.14,16.48,16.23,24.23,21.72c7.76-5.52,16.14-12.62,24.23-21.72c27.38-30.79,34.82-65.93,37.21-84.26L234.22,1.45z
	 M31.75,175.05c2.64-0.44,6.39-1.36,10.38-3.47c11.79-6.23,18.31-18.86,23.36-39.09c5.97-23.9,5.71-41.68,6.06-78.18
	c0.19-20.28,0.47-36.38,0.65-45.34l-6.7,1.9c0,4,0.01,10.04,0,17.37c-0.04,43.07-0.08,64.76-0.87,72.1
	c-1.81,16.96-6.52,61-28.55,67.76c-2.8,0.86-5.28,0.93-6.92,0.87L31.75,175.05z M304.32,168.97c-1.09,0.18-2.97,0.39-5.19,0
	c-11.75-2.05-17.97-18.02-20.77-25.19c-12.49-32.06-9.72-126.75-9.52-132.91l-6.06-1.74c-0.25,7.48-2.8,92.53,8.76,131.73
	c2.66,9.02,8.04,27.27,22.39,32.46c3.28,1.18,6.21,1.39,8.06,1.41L304.32,168.97z M109.45,22c10.2,5.01,29.77,12.96,55.56,13.19
	c27.06,0.24,47.57-8.13,57.87-13.19l1.74-7.98c-8.95,5.27-29.6,15.8-57.87,15.96c-28.99,0.16-50.17-10.69-59.12-15.96L109.45,22z"/>
<g id="FBodyLogos"></g>
</svg>
