<?xml version="1.0" encoding="utf-8"?>
<!-- Generator: Adobe Illustrator 19.1.0, SVG Export Plug-In . SVG Version: 6.00 Build 0)  -->
<svg version="1.1" id="Layer_1" xmlns="http://www.w3.org/2000/svg" xmlns:xlink="http://www.w3.org/1999/xlink" x="0px" y="0px"
	 viewBox="0 0 335.2 641.14" style="enable-background:new 0 0 335.2 641.14;" xml:space="preserve">
<style type="text/css">
	<![CDATA[
	@font-face{font-family:'codaheavy';src:url('/fonts/coda-heavy-webfont.woff') format('woff')}
	text{font-family:Impact,codaheavy,sans-serif}
	.Colour1.fill{fill:#231F20;}
	.NeckAndArmTrim.fill{fill:#404041;stroke:#000000;stroke-miterlimit:10;}
	.Gradient1.stopColor{stop-color:#FAAB1B;}
	.Gradient2.stopColor{stop-color:#F06022;}
	.Gradient3.stopColor{stop-color:#DE1E63;}
	.st0{fill:url(#SVGID_1_);}
	.st1{fill:url(#SVGID_2_);}
	.st2{fill:url(#SVGID_3_);}
	.st3{fill:url(#SVGID_4_);}
	.st4{fill:url(#SVGID_5_); opacity: 0.8}
	.st5{fill:url(#SVGID_6_); opacity: 0.8}
	.st6{fill:url(#SVGID_7_); opacity: 0.8}
	.st7{fill:url(#SVGID_8_); opacity: 0.8}
	.st8{fill:url(#SVGID_9_);}
	.st9{fill:url(#SVGID_10_);}
	.st10{fill:url(#SVGID_11_);}
	.st11{fill:url(#SVGID_12_);}
	.st12{fill:url(#SVGID_13_);}
	.st13{fill:url(#SVGID_14_);}
	.st14{fill:none;stroke:#000000;stroke-miterlimit:10;}
	.st15{fill:#FFFFFF;stroke:#000000;}
	.st16{fill:none;stroke:#000000;stroke-linecap:round;stroke-linejoin:round;}
	]]>
</style>
<path class="Colour1 fill" d="M227.31-0.43c13.84,3.76,27.69,7.53,41.53,11.29c-0.2,6.16-2.97,100.85,9.52,132.91
	c2.79,7.17,9.01,23.15,20.77,25.19c2.22,0.39,4.1,0.18,5.19,0c-3.61,8.71-8.5,21.51-12.98,37.35
	c-18.44,65.18-12.74,120.54,2.6,211.1c10.91,64.39,24.26,132.3,40.67,203.28c-41.5,10.53-96.29,20.27-160.94,20.85
	c-70.25,0.63-129.39-9.77-173.06-20.85c1.82-7.43,42.42-174.64,50.19-289.28c3.36-49.63,0.53-88.77-10.38-128.57
	c-3.93-14.34-8.14-25.96-11.25-33.88c1.64,0.07,4.12-0.01,6.92-0.87c22.03-6.76,26.74-50.8,28.55-67.76
	c0.79-7.35,0.82-29.03,0.87-72.1c0.01-7.33,0-13.37,0-17.37C78.77,7.1,92.03,3.33,105.3-0.43c2.1,17.98,9.02,53.37,36.34,84.26
	c8.08,9.14,16.48,16.23,24.23,21.72c7.76-5.52,16.14-12.62,24.23-21.72C217.47,53.05,224.91,17.9,227.31-0.43z"/>
<g>
	<linearGradient id="SVGID_1_" gradientUnits="userSpaceOnUse" x1="130.3614" y1="248.5352" x2="153.5547" y2="256.7332">
		<stop class="Gradient1 stopColor" offset="0" style="stop-color:#FAAB1B"/>
		<stop class="Gradient1 stopColor" offset="1" style="stop-color:#F26F21"/>
	</linearGradient>
	<path class="st0" d="M67.51,498.94L243.79,4.05c-5.49-1.49-10.98-2.98-16.46-4.48c-2.39,18.33-9.83,53.47-37.21,84.26
		c-4.37,4.92-8.83,9.23-13.23,13.05L33.67,498.94H67.51z"/>
</g>
<g>
	<linearGradient id="SVGID_2_" gradientUnits="userSpaceOnUse" x1="29.254" y1="459.7984" x2="68.3417" y2="459.7984">
		<stop  offset="0" style="stop-color:#F48020"/>
		<stop class="Gradient2 stopColor" offset="1" style="stop-color:#F06022"/>
	</linearGradient>
	<path class="st1" d="M33.67,498.94h34.67l-27.9-78.28c-3.39,22.22-7.24,44.48-11.19,65.66L33.67,498.94z"/>
</g>
<g>
	<linearGradient id="SVGID_3_" gradientUnits="userSpaceOnUse" x1="177.7205" y1="255.4435" x2="200.7895" y2="263.5975">
		<stop class="Gradient2 stopColor" offset="0.2513" style="stop-color:#F06022"/>
		<stop class="Gradient2 stopColor" offset="0.5741" style="stop-color:#EE4823"/>
	</linearGradient>
	<path class="st2" d="M258.38,8.02L83.52,498.94h33.83L269.04,73.08c-1.12-30.62-0.29-58.94-0.18-62.22
		C265.37,9.91,261.88,8.97,258.38,8.02z"/>
</g>
<g>
	<linearGradient id="SVGID_4_" gradientUnits="userSpaceOnUse" x1="28.6566" y1="418.7852" x2="41.513" y2="423.8434">
		<stop class="Gradient2 stopColor" offset="0.2513" style="stop-color:#F06022"/>
		<stop class="Gradient2 stopColor" offset="0.5741" style="stop-color:#EE4823"/>
	</linearGradient>
	<path class="st3" d="M71.37,367.93h-23.9c-4.32,38.72-11.15,80.49-18.28,118.73L71.37,367.93z"/>
</g>
<linearGradient id="SVGID_5_" gradientUnits="userSpaceOnUse" x1="44.9573" y1="433.435" x2="118.1865" y2="433.435">
	<stop class="Gradient2 stopColor" offset="0" style="stop-color:#EE4823"/>
	<stop class="Gradient2 stopColor" offset="1" style="stop-color:#EE4823"/>
</linearGradient>
<path class="st4" d="M118.19,498.94L71.5,367.93H47.47c-0.76,6.86-1.61,13.82-2.52,20.84l38.56,110.17H118.19z"/>
<linearGradient id="SVGID_6_" gradientUnits="userSpaceOnUse" x1="5348.0117" y1="5659.5249" x2="5479.022" y2="5659.5249" gradientTransform="matrix(4.489700e-011 1 -1 4.489700e-011 5787.2944 -4980.082)">
	<stop class="Gradient3 stopColor" offset="0" style="stop-color:#981B38"/>
	<stop class="Gradient3 stopColor" offset="0.9947" style="stop-color:#981B38"/>
</linearGradient>
<polygon class="st5" points="87.51,367.93 133.36,498.94 168.03,498.94 121.34,367.93 "/>
<linearGradient id="SVGID_7_" gradientUnits="userSpaceOnUse" x1="5348.0117" y1="5610.0972" x2="5479.022" y2="5610.0972" gradientTransform="matrix(4.489700e-011 1 -1 4.489700e-011 5787.2944 -4980.082)">
	<stop class="Gradient1 stopColor" offset="0" style="stop-color:#711240"/>
	<stop class="Gradient1 stopColor" offset="1" style="stop-color:#711240"/>
</linearGradient>
<polygon class="st6" points="137.35,367.93 183.21,498.94 217.04,498.94 171.19,367.93 "/>
<linearGradient id="SVGID_8_" gradientUnits="userSpaceOnUse" x1="5348.0117" y1="5560.2139" x2="5479.022" y2="5560.2139" gradientTransform="matrix(4.489700e-011 1 -1 4.489700e-011 5787.2944 -4980.082)">
	<stop class="Gradient2 stopColor" offset="0" style="stop-color:#4B1B55"/>
	<stop class="Gradient2 stopColor" offset="1" style="stop-color:#80388D"/>
</linearGradient>
<polygon class="st7" points="187.2,367.93 233.13,498.94 266.96,498.94 221.03,367.93 "/>
<g>
	<linearGradient id="SVGID_9_" gradientUnits="userSpaceOnUse" x1="265.5883" y1="429.2819" x2="288.03" y2="437.2142">
		<stop class="Gradient2 stopColor" offset="0" style="stop-color:#80388D"/>
		<stop class="Gradient2 stopColor" offset="1" style="stop-color:#582A79"/>
	</linearGradient>
	<path class="st8" d="M266.89,498.94l27.71-77.79c-0.21-1.24-0.44-2.5-0.65-3.73c-3.88-22.89-7.13-43.52-9.55-62.64l-51.35,144.17
		H266.89z"/>
</g>
<g>
	<linearGradient id="SVGID_10_" gradientUnits="userSpaceOnUse" x1="248.8662" y1="335.7548" x2="271.4905" y2="343.7516">
		<stop class="Gradient1 stopColor" offset="0" style="stop-color:#B41E85"/>
		<stop class="Gradient1 stopColor" offset="1" style="stop-color:#922477"/>
	</linearGradient>
	<path class="st9" d="M217.04,498.94l63.84-179.23c-2.84-40.44-0.32-75.24,10.47-113.39c4.48-15.84,9.37-28.64,12.98-37.35
		c-0.83,0.14-2.11,0.29-3.66,0.18L183.21,498.94H217.04z"/>
</g>
<g>
	<linearGradient id="SVGID_11_" gradientUnits="userSpaceOnUse" x1="209.3445" y1="307.2605" x2="232.2547" y2="315.3584">
		<stop class="Gradient3 stopColor" offset="0.1243" style="stop-color:#DE1E63"/>
		<stop class="Gradient3 stopColor" offset="1" style="stop-color:#D41B63"/>
	</linearGradient>
	<path class="st10" d="M167.2,498.94l120.31-337.76c-4.56-5.72-7.46-13.13-9.13-17.41c-3.09-7.94-5.25-19.71-6.74-33.03
		l-138.27,388.2H167.2z"/>
</g>
<linearGradient id="SVGID_12_" gradientUnits="userSpaceOnUse" x1="138.7624" y1="495.7325" x2="158.7058" y2="503.5791">
	<stop class="Gradient2 stopColor" offset="0" style="stop-color:#80388D"/>
	<stop class="Gradient2 stopColor" offset="1" style="stop-color:#662A78"/>
</linearGradient>
<path class="st11" d="M187.2,367.93L91.39,637.26c10.54,1.19,21.48,2.18,32.8,2.91l96.85-272.24H187.2z"/>
<g>
	<linearGradient id="SVGID_13_" gradientUnits="userSpaceOnUse" x1="90.2803" y1="492.2497" x2="110.1418" y2="500.064">
		<stop class="Gradient1 stopColor" offset="0" style="stop-color:#CC1484"/>
		<stop class="Gradient1 stopColor" offset="1" style="stop-color:#922477"/>
	</linearGradient>
	<path class="st12" d="M171.19,367.93h-33.83l-93.3,262.28c10.15,1.88,20.83,3.62,32.01,5.14L171.19,367.93z"/>
</g>
<g>
	<linearGradient id="SVGID_14_" gradientUnits="userSpaceOnUse" x1="43.2035" y1="487.6058" x2="63.3859" y2="495.2195">
		<stop class="Gradient3 stopColor" offset="0.1243" style="stop-color:#DE1E63"/>
		<stop class="Gradient3 stopColor" offset="1" style="stop-color:#D41B63"/>
	</linearGradient>
	<path class="st13" d="M121.34,367.93H87.51L6.52,595.6c-3.3,14.4-5.51,23.49-5.9,25.1c8.86,2.25,18.37,4.47,28.47,6.57
		L121.34,367.93z"/>
</g>
<path class="st14" d="M98.67,1.45c1.6,14.45,6.57,41.47,24.8,69.35c14.38,22.01,31.28,35.76,42.4,43.44
	c11.12-7.34,27.93-20.47,42.4-41.7C227.72,44,232.69,15.88,234.22,1.45"/>
<path class="st14" d="M72.2,8.96c-0.17,8.95-0.45,25.06-0.65,45.34c-0.34,36.5-0.09,54.28-6.06,78.18
	c-5.05,20.23-11.57,32.87-23.36,39.09c-4,2.11-7.74,3.03-10.38,3.47"/>
<path class="st14" d="M262.78,9.13c-0.25,7.48-2.8,92.53,8.76,131.73c2.66,9.02,8.04,27.27,22.39,32.46
	c3.28,1.18,6.21,1.39,8.06,1.41"/>
<path class="st14" d="M107.61,14.02c8.95,5.27,30.13,16.11,59.12,15.96c28.27-0.15,48.92-10.69,57.87-15.96"/>
<path class="st14" d="M109.45,22c10.2,5.01,29.77,12.96,55.56,13.19c27.06,0.24,47.57-8.13,57.87-13.19"/>
<g>
	<rect x="109.19" y="214.75" class="st15" width="32.02" height="12.16"/>
	<rect x="193.99" y="214.75" class="st15" width="32.02" height="12.16"/>
	<rect x="194.07" y="322.38" class="st15" width="32.02" height="12.16"/>
	<rect x="109.28" y="322.38" class="st15" width="32.02" height="12.16"/>
	<rect x="109.28" y="310.22" class="st15" width="32.02" height="12.16"/>
	<rect x="193.99" y="310.22" class="st15" width="32.02" height="12.16"/>
</g>
<g>
	<path class="Colour1 fill" d="M301.69,174.71c-1.86-0.03-4.66-0.28-7.76-1.4c-9.9-3.58-15.54-13.39-18.95-22.09l-0.17,0.72
		c-24,82.72-27.43,150.88-26.31,196.53c1.43,58.03,10.92,107.82,21.63,163.97c9.24,48.44,26.82,116.68,26.82,116.68
		c13.53-2.63,26.1-5.5,37.64-8.42c-16.41-70.98-29.76-138.88-40.67-203.28c-15.34-90.56-21.04-145.91-2.6-211.1
		c3.56-12.57,10.64-31.55,10.66-31.6L301.69,174.71z"/>
	<path class="Colour1 fill" d="M31.75,175.05c2.64-0.44,6.39-1.36,10.38-3.47c8.11-4.28,13.72-11.59,18.08-22.32l0.18,0.72
		c26.13,99.49,26.19,177.68,21.97,228.53c-3.4,40.92-11.35,85.72-16.44,114.38c-9.91,55.82-29.5,135.87-29.5,135.87
		c-12.88-2.54-24.84-5.28-35.83-8.07c1.82-7.43,42.42-174.64,50.19-289.28c3.36-49.63,0.53-88.77-10.38-128.57
		c-3.02-11.02-6.21-20.43-8.93-27.8L31.75,175.05z"/>
</g>
<g>
	<path class="st16" d="M7.01,622.18c0.8,0.2,1.6,0.39,2.42,0.59"/>
	<path class="st16" d="M11.29,623.21c0.82,0.19,1.64,0.39,2.47,0.58"/>
	<path class="st16" d="M24.68,626.24c0.87,0.19,1.73,0.38,2.6,0.56"/>
	<path class="st16" d="M15.63,624.22c0.85,0.2,1.69,0.39,2.55,0.59"/>
	<path class="st16" d="M20.05,625.23c0.88,0.2,1.75,0.39,2.64,0.59"/>
	<path class="st16" d="M1.03,620.69c1.37,0.35,2.75,0.69,4.15,1.04"/>
	<path class="st16" d="M15.63,624.22c-0.62-0.14-1.25-0.29-1.87-0.43"/>
	<path class="st16" d="M7.01,622.18c-0.61-0.15-1.22-0.3-1.83-0.45"/>
	<path class="st16" d="M20.05,625.23c-0.62-0.14-1.25-0.28-1.87-0.42"/>
	<path class="st16" d="M11.29,623.21c-0.62-0.15-1.25-0.29-1.87-0.44"/>
	<path class="st16" d="M291.77,206.32c0.13-0.45,0.26-0.9,0.39-1.34"/>
	<path class="st16" d="M326.62,622.77c-0.56,0.14-1.14,0.27-1.7,0.41"/>
	<path class="st16" d="M322.28,623.8c-0.61,0.14-1.23,0.29-1.85,0.43"/>
	<path class="st16" d="M313.3,625.83c-0.65,0.14-1.3,0.28-1.95,0.43"/>
	<path class="st16" d="M330.87,621.74c-0.46,0.11-0.92,0.23-1.38,0.34"/>
	<path class="st16" d="M317.84,624.82c-0.64,0.14-1.28,0.29-1.93,0.43"/>
	<path class="st16" d="M302.4,174.78c0.83-2.1,1.61-4.05,2.35-5.82c-1.09,0.18-2.97,0.39-5.19,0
		c-11.75-2.05-17.97-18.02-20.77-25.19c-12.49-32.06-9.72-126.75-9.52-132.91c-13.84-3.76-27.69-7.53-41.53-11.29
		c-2.39,18.33-9.83,53.47-37.21,84.26c-8.08,9.09-16.47,16.19-24.23,21.72c-7.75-5.49-16.15-12.58-24.23-21.72
		c-27.32-30.9-34.24-66.28-36.34-84.26C92.46,3.33,79.2,7.1,65.93,10.86c0,4,0.01,10.04,0,17.37c-0.04,43.07-0.08,64.76-0.87,72.1
		c-1.81,16.96-6.52,61-28.55,67.76c-2.8,0.86-5.28,0.93-6.92,0.87c0.74,1.88,1.54,3.98,2.38,6.27"/>
	<path class="st16" d="M24.68,626.24c-0.66-0.14-1.33-0.29-1.99-0.43"/>
	<path class="st16" d="M34.14,628.22c0.87,0.17,1.73,0.35,2.6,0.52"/>
	<path class="st16" d="M298.57,441.73c2.16,12.24,4.41,24.6,6.75,37.07"/>
	<path class="st16" d="M29.45,627.26c0.84,0.17,1.67,0.35,2.51,0.52"/>
	<path class="st16" d="M37.29,190.82c0.08,0.25,0.16,0.5,0.23,0.75"/>
	<path class="st16" d="M52.12,275.37c-0.12-2.68-0.28-5.35-0.45-7.99"/>
	<path class="st16" d="M38.47,194.64c0.03,0.11,0.07,0.21,0.1,0.32"/>
	<path class="st16" d="M39.58,198.39c0.08,0.27,0.16,0.55,0.24,0.83"/>
	<path class="st16" d="M51.05,259.52c-0.47-5.2-1.05-10.34-1.75-15.42"/>
	<path class="st16" d="M49.3,244.11c-0.52-3.81-1.11-7.6-1.77-11.36"/>
	<path class="st16" d="M46.13,225.24c-0.75-3.74-1.56-7.48-2.44-11.2"/>
	<path class="st16" d="M32.88,177.73c0.06,0.17,0.12,0.34,0.18,0.52"/>
	<path class="st16" d="M33.89,180.57c0.06,0.18,0.13,0.37,0.19,0.55"/>
	<path class="st16" d="M35.05,183.93c0.07,0.21,0.14,0.42,0.21,0.63"/>
	<path class="st16" d="M303.82,627.83c-0.62,0.13-1.23,0.25-1.85,0.38"/>
	<path class="st16" d="M36.14,187.23c0.05,0.16,0.1,0.31,0.15,0.47"/>
	<path class="st16" d="M36.86,628.76c-0.04-0.01-0.08-0.01-0.12-0.02"/>
	<path class="st16" d="M35.05,183.93c-0.32-0.96-0.65-1.9-0.96-2.81"/>
	<path class="st16" d="M33.89,180.57c-0.28-0.79-0.55-1.57-0.82-2.32"/>
	<path class="st16" d="M32.88,177.73c-0.31-0.86-0.61-1.69-0.91-2.49"/>
	<path class="st16" d="M34.14,628.22c-0.72-0.15-1.45-0.29-2.17-0.44"/>
	<path class="st16" d="M40.83,202.85c-0.34-1.23-0.68-2.44-1.02-3.63"/>
	<path class="st16" d="M29.45,627.26c-0.72-0.15-1.45-0.3-2.17-0.45"/>
	<path class="st16" d="M38.47,194.64c-0.31-1.04-0.63-2.06-0.94-3.06"/>
	<path class="st16" d="M36.14,187.23c-0.3-0.91-0.59-1.8-0.89-2.67"/>
	<path class="st16" d="M39.58,198.39c-0.34-1.16-0.67-2.31-1.01-3.43"/>
	<path class="st16" d="M37.29,190.82c-0.33-1.06-0.67-2.1-1-3.12"/>
	<path class="st16" d="M308.63,626.83c-0.64,0.14-1.28,0.27-1.93,0.41"/>
	<path class="st16" d="M322.28,623.8c0.88-0.21,1.76-0.41,2.64-0.62"/>
	<path class="st16" d="M326.62,622.77c0.96-0.23,1.92-0.46,2.87-0.7"/>
	<path class="st16" d="M330.87,621.74c1.4-0.35,2.79-0.69,4.16-1.04"/>
	<path class="st16" d="M52.55,295.98c0-1.41,0-2.81-0.01-4.2"/>
	<path class="st16" d="M313.3,625.83c0.88-0.19,1.75-0.38,2.61-0.58"/>
	<path class="st16" d="M297.39,629.12c-35.1,6.82-76.63,12.01-123.3,12.43c-52.58,0.47-98.93-5.24-137.23-12.78"/>
	<path class="st16" d="M52.12,275.37c0.12,2.68,0.22,5.39,0.29,8.13"/>
	<path class="st16" d="M288.59,218.44c-0.97,4.01-1.84,7.99-2.63,11.95"/>
	<path class="st16" d="M52.55,295.98c0,1.41-0.02,2.83-0.03,4.25"/>
	<path class="st16" d="M302.4,174.78c-3.12,7.94-6.78,18.16-10.24,30.19"/>
	<path class="st16" d="M52.33,308.88c0.09-2.91,0.15-5.79,0.18-8.64"/>
	<path class="st16" d="M290.32,392.84c1.26,7.91,2.61,16.09,4.05,24.58c0.68,4.02,1.37,8.06,2.07,12.11"/>
	<path class="st16" d="M308.63,626.83c0.91-0.19,1.81-0.39,2.71-0.58"/>
	<path class="st16" d="M290.32,392.84c-0.84-5.27-1.63-10.42-2.38-15.46"/>
	<path class="st16" d="M317.84,624.82c0.87-0.2,1.73-0.39,2.59-0.59"/>
	<path class="st16" d="M297.39,629.12c0.45-0.09,0.89-0.18,1.34-0.26"/>
	<path class="st16" d="M298.73,628.85c1.09-0.21,2.17-0.43,3.25-0.64"/>
	<path class="st16" d="M303.82,627.83c0.96-0.2,1.92-0.39,2.88-0.59"/>
	<path class="st16" d="M288.59,218.44c-0.97,4.01-1.84,7.99-2.63,11.95"/>
	<path class="st16" d="M324.91,623.18c-0.87,0.21-1.75,0.42-2.64,0.62"/>
	<path class="st16" d="M329.48,622.07c0.46-0.11,0.93-0.22,1.38-0.34"/>
	<path class="st16" d="M301.98,628.21c0.62-0.12,1.23-0.25,1.85-0.38"/>
	<path class="st16" d="M315.91,625.25c-0.87,0.19-1.74,0.39-2.61,0.58"/>
	<path class="st16" d="M292.15,204.98c-0.13,0.45-0.26,0.9-0.39,1.34"/>
	<path class="st16" d="M320.43,624.23c-0.86,0.2-1.72,0.4-2.59,0.59"/>
	<path class="st16" d="M302.4,174.78c-0.44,1.18-6.71,18.08-10.24,30.19"/>
	<path class="st16" d="M306.7,627.24c-0.95,0.2-1.91,0.4-2.88,0.59"/>
	<path class="st16" d="M290.32,392.84c-0.84-5.27-1.63-10.42-2.38-15.46"/>
	<path class="st16" d="M305.32,478.8c-2.34-12.48-4.59-24.84-6.75-37.07"/>
	<path class="st16" d="M297.39,629.12L297.39,629.12c0.45-0.09,0.89-0.18,1.34-0.26"/>
	<path class="st16" d="M335.03,620.69c-1.37,0.35-2.76,0.7-4.16,1.04"/>
	<path class="st16" d="M311.34,626.26c-0.9,0.19-1.8,0.39-2.71,0.58"/>
	<path class="st16" d="M301.98,628.21c-1.07,0.22-2.16,0.43-3.25,0.64"/>
	<path class="st16" d="M315.91,625.25c0.65-0.14,1.29-0.29,1.93-0.43"/>
	<path class="st16" d="M324.91,623.18c0.57-0.14,1.14-0.27,1.7-0.41"/>
	<path class="st16" d="M306.7,627.24c0.65-0.14,1.29-0.27,1.93-0.41"/>
	<path class="st16" d="M302.4,174.78c0.02-0.04,0.02-0.07,0.03-0.07l-0.3,0c-1.86-0.03-4.66-0.28-7.76-1.4
		c-9.9-3.58-15.54-13.39-18.95-22.09l-0.17,0.72c-24,82.72-27.43,150.88-26.31,196.53c1.43,58.03,10.92,107.82,21.63,163.97
		c9.23,48.42,26.81,116.62,26.82,116.68"/>
	<path class="st16" d="M290.32,392.84c1.26,7.91,2.61,16.09,4.05,24.58c0.68,4.02,1.37,8.06,2.07,12.11"/>
	<path class="st16" d="M329.48,622.07c-0.95,0.23-1.9,0.47-2.87,0.7"/>
	<path class="st16" d="M320.43,624.23c0.62-0.14,1.24-0.28,1.85-0.43"/>
	<path class="st16" d="M311.34,626.26c0.65-0.14,1.3-0.28,1.95-0.43"/>
	<path class="st16" d="M285.95,230.39c-9.08,45.59-6.62,89.01,1.98,146.98"/>
	<path class="st16" d="M335.03,620.69c-11.28-48.8-21.12-96.14-29.71-141.89"/>
	<path class="st16" d="M288.59,218.44c0.97-4.01,2.03-8.04,3.18-12.12"/>
	<path class="st16" d="M296.44,429.53c0.7,4.05,1.41,8.12,2.13,12.2"/>
	<path class="st16" d="M49.3,244.11c0.7,5.08,1.28,10.22,1.75,15.42"/>
	<path class="st16" d="M47.53,232.74c0.66,3.77,1.24,7.55,1.77,11.36"/>
	<path class="st16" d="M52.54,291.78c0.01,1.39,0.01,2.8,0.01,4.2"/>
	<path class="st16" d="M52.12,275.37c-0.12-2.68-0.28-5.35-0.45-7.99"/>
	<path class="st16" d="M38.57,194.96c0.34,1.12,0.67,2.27,1.01,3.43"/>
	<path class="st16" d="M31.97,175.24c-0.02-0.06-0.05-0.13-0.07-0.19l0.28,0c2.64-0.44,6.39-1.36,10.38-3.47
		c8.11-4.28,13.72-11.59,18.08-22.32l0.18,0.72c26.13,99.49,26.19,177.68,21.97,228.53c-3.4,40.92-11.35,85.72-16.44,114.38
		c-9.91,55.81-29.49,135.83-29.5,135.86"/>
	<path class="st16" d="M35.26,184.56c0.29,0.87,0.59,1.76,0.89,2.67"/>
	<path class="st16" d="M52.12,275.37c0.12,2.68,0.22,5.39,0.29,8.13"/>
	<path class="st16" d="M34.08,181.12c0.32,0.91,0.64,1.85,0.96,2.81"/>
	<path class="st16" d="M33.07,178.25c0.27,0.76,0.55,1.53,0.82,2.32"/>
	<path class="st16" d="M31.97,175.24c0.3,0.81,0.6,1.64,0.91,2.49"/>
	<path class="st16" d="M39.82,199.22c0.34,1.19,0.68,2.4,1.02,3.63"/>
	<path class="st16" d="M52.33,308.88c0.09-2.91,0.15-5.79,0.18-8.64"/>
	<path class="st16" d="M36.3,187.7c0.33,1.02,0.66,2.06,1,3.12"/>
	<path class="st16" d="M43.69,214.03c0.88,3.73,1.7,7.46,2.44,11.2"/>
	<path class="st16" d="M37.53,191.58c0.31,1,0.63,2.02,0.94,3.06"/>
	<path class="st16" d="M52.52,300.23c0.02-1.42,0.03-2.84,0.03-4.25"/>
	<path class="st16" d="M13.76,623.79c-0.83-0.19-1.65-0.39-2.47-0.58"/>
	<path class="st16" d="M1.03,620.69c1.37,0.35,2.75,0.69,4.15,1.04"/>
	<path class="st16" d="M9.42,622.77c0.62,0.15,1.25,0.29,1.87,0.44"/>
	<path class="st16" d="M9.42,622.77c-0.81-0.2-1.61-0.39-2.42-0.59"/>
	<path class="st16" d="M5.18,621.73c0.6,0.15,1.22,0.3,1.83,0.45"/>
	<path class="st16" d="M27.29,626.81c-0.88-0.19-1.74-0.37-2.6-0.56"/>
	<path class="st16" d="M39.82,199.22c-0.08-0.28-0.16-0.55-0.24-0.83"/>
	<path class="st16" d="M18.18,624.81c-0.86-0.19-1.7-0.39-2.55-0.59"/>
	<path class="st16" d="M27.29,626.81c0.72,0.15,1.44,0.3,2.17,0.45"/>
	<path class="st16" d="M31.97,627.78c0.72,0.15,1.45,0.29,2.17,0.44"/>
	<path class="st16" d="M13.76,623.79c0.62,0.14,1.25,0.29,1.87,0.43"/>
	<path class="st16" d="M36.74,628.74c0.04,0.01,0.08,0.02,0.12,0.02l0,0"/>
	<path class="st16" d="M18.18,624.81c0.62,0.14,1.25,0.28,1.87,0.42"/>
	<path class="st16" d="M22.69,625.82c0.66,0.14,1.33,0.29,1.99,0.43"/>
	<path class="st16" d="M22.69,625.82c-0.89-0.19-1.76-0.39-2.64-0.59"/>
	<path class="st16" d="M37.53,191.58c-0.08-0.25-0.16-0.5-0.23-0.75"/>
	<path class="st16" d="M36.3,187.7c-0.05-0.16-0.1-0.31-0.15-0.47"/>
	<path class="st16" d="M35.26,184.56c-0.07-0.21-0.14-0.42-0.21-0.63"/>
	<path class="st16" d="M31.97,627.78c-0.85-0.17-1.68-0.35-2.51-0.52"/>
	<path class="st16" d="M36.74,628.74c-0.88-0.17-1.74-0.35-2.6-0.52"/>
	<path class="st16" d="M33.07,178.25c-0.06-0.17-0.12-0.35-0.18-0.52"/>
	<path class="st16" d="M34.08,181.12c-0.07-0.19-0.13-0.37-0.19-0.55"/>
	<path class="st16" d="M38.57,194.96c-0.03-0.11-0.07-0.22-0.1-0.32"/>
	<path class="st16" d="M52.33,308.88c-0.22,7.29-0.59,14.78-1.12,22.54C43.45,446.06,2.85,613.27,1.03,620.69"/>
	<path class="st16" d="M43.69,214.03c-0.88-3.73-1.83-7.45-2.86-11.18"/>
	<path class="st16" d="M47.53,232.74c-0.44-2.51-0.9-5.01-1.4-7.51"/>
	<path class="st16" d="M51.67,267.39c-0.18-2.64-0.39-5.26-0.62-7.86"/>
	<path class="st16" d="M52.41,283.5c0.07,2.73,0.11,5.49,0.13,8.28"/>
</g>
<path class="NeckAndArmTrim fill" d="M234.22,1.45c-1.53,14.43-6.5,42.55-25.95,71.09c-14.47,21.23-31.28,34.36-42.4,41.7
	c-11.12-7.68-28.01-21.43-42.4-43.44c-18.23-27.88-23.2-54.9-24.8-69.35l6.63-1.88c2.1,17.98,9.02,53.37,36.34,84.26
	c8.08,9.14,16.48,16.23,24.23,21.72c7.76-5.52,16.14-12.62,24.23-21.72c27.38-30.79,34.82-65.93,37.21-84.26L234.22,1.45z"/>
<path class="NeckAndArmTrim fill" d="M31.75,175.05c2.64-0.44,6.39-1.36,10.38-3.47c11.79-6.23,18.31-18.86,23.36-39.09
	c5.97-23.9,5.71-41.68,6.06-78.18c0.19-20.28,0.47-36.38,0.65-45.34l-6.7,1.9c0,4,0.01,10.04,0,17.37
	c-0.04,43.07-0.08,64.76-0.87,72.1c-1.81,16.96-6.52,61-28.55,67.76c-2.8,0.86-5.28,0.93-6.92,0.87L31.75,175.05z"/>
<path class="NeckAndArmTrim fill" d="M301.99,174.72c-1.85-0.01-4.78-0.22-8.06-1.41c-14.35-5.19-19.73-23.43-22.39-32.46
	c-11.56-39.2-9.01-124.25-8.76-131.73l6.06,1.74c-0.2,6.16-2.97,100.85,9.52,132.91c2.79,7.17,9.01,23.15,20.77,25.19
	c2.22,0.39,4.1,0.18,5.19,0L301.99,174.72z"/>
<path class="NeckAndArmTrim fill" d="M109.45,22c10.2,5.01,29.77,12.96,55.56,13.19c27.06,0.24,47.57-8.13,57.87-13.19l1.74-7.98
	c-8.95,5.27-29.6,15.8-57.87,15.96c-28.99,0.16-50.17-10.69-59.12-15.96L109.45,22z"/>
</svg>
