<?xml version="1.0" encoding="utf-8"?>
<!-- Generator: Adobe Illustrator 19.1.0, SVG Export Plug-In . SVG Version: 6.00 Build 0)  -->
<svg version="1.1" id="Layer_1" xmlns="http://www.w3.org/2000/svg" xmlns:xlink="http://www.w3.org/1999/xlink" x="0px" y="0px"
	 viewBox="0 0 500.79 706.1" style="enable-background:new 0 0 500.79 706.1;" xml:space="preserve">
<style type="text/css">
	<![CDATA[
	@font-face{font-family:'codaheavy';src:url('/fonts/coda-heavy-webfont.woff') format('woff')}
	text{font-family:Impact,codaheavy,sans-serif}
	.Colour1.fill{fill:#231F20;}
	.Colour2.fill{fill:#FFFFFF;}
	.Colour3.fill{fill:#C1B49A;}
	.NeckAndArmTrim.fill{fill:#231F20;}
	.st0{fill:none;stroke:#000000;stroke-miterlimit:10;}
	.st1{fill:none;}
	.st2{fill:#FFFFFF;}
	.st3{fill:none;stroke:#000000;stroke-width:0.75;stroke-miterlimit:10;}
	.st4{fill:none;stroke:#000000;stroke-width:0.5;stroke-miterlimit:10;stroke-dasharray:4,2.4;}
	]]>
</style>
<path class="Colour1 fill" d="M316.63,19.57c-22.45,20.41-52.54,21.1-65.35,21.39c-12.23,0.28-28.86,0.66-47.18-8.35
	c-20.21-9.94-30.31-25.31-34.18-32.07c-26.1,7.66-52.2,15.33-78.3,22.99c16.22,88.66,7.01,161.64-12.99,201.12
	c-7.87,15.53-22.06,43.56-54.58,63.14c-8.89,5.36-16.95,8.75-22.54,10.82v14.64v392.29h498.62c0-135.56,0-271.11,0-406.67
	c-9.73-3.85-18.33-8.45-25.94-13.53c-97.67-65.19-68.86-233.97-63.81-261.38c-26.33-7.81-52.66-15.61-79-23.42
	C328.86,5.31,324.33,12.57,316.63,19.57z"/>

<g>
	<path class="st0" d="M24.31,287.79c-8.89,5.36-16.95,8.75-22.54,10.82v14.64v392.29h498.62c0-135.56,0-271.11,0-406.67
		c-9.73-3.85-18.33-8.45-25.94-13.53c-97.67-65.19-68.86-233.97-63.81-261.38c-26.33-7.81-52.66-15.61-79-23.42
		c-2.53,4.76-7.05,12.02-14.75,19.02c-22.45,20.41-52.54,21.1-65.35,21.39c-12.23,0.28-28.86,0.66-47.18-8.35
		c-20.21-9.94-30.31-25.31-34.18-32.07c-26.1,7.66-52.2,15.33-78.3,22.99c16.22,88.66,7.01,161.64-12.99,201.12
		C71.02,240.18,56.82,268.21,24.31,287.79z"/>
</g>
<g>
	<path class="st1" d="M1.77,313.25c13.51-4.02,25.03-9.39,34.9-15.47c108.85-67.08,76.59-258.14,72.72-279.39"/>
	<path class="st1" d="M391.84,18.39c-3.95,21.14-36.52,208.91,72.25,278.17c10.18,6.48,22.15,12.28,36.31,16.69"/>
	<path class="st1" d="M170.18,0.55c-0.04,7.29,0.55,17.88,3.63,30.23c3.72,14.94,12.13,48.63,43.01,64.45
		c14.73,7.54,28.96,8.14,34.43,8.15c4.12,0.01,22.39-0.3,40.1-11.15c28.12-17.22,34.48-48.55,37.82-65
		c2.24-11.02,2.57-20.35,2.48-26.68"/>
	<path class="st1" d="M154.1,5.27c-0.51,49.18,21.89,90.68,59.13,106.74c18.45,7.95,38.37,6.68,38.37,6.68s21.59-0.61,42.31-11
		c30.54-15.31,51.97-54.91,53.65-102.42"/>
	<path class="st1" d="M173.8,30.78c7.61,5.76,36.45,26.15,79.09,25.58c40.44-0.54,67.64-19.6,75.54-25.58"/>
	<line class="st1" x1="386.99" y1="152.01" x2="385.88" y2="152.44"/>
	<line class="st1" x1="1.77" y1="688.56" x2="500.39" y2="688.56"/>
	<line class="st1" x1="1.77" y1="695.03" x2="500.39" y2="695.03"/>
	<path class="st1" d="M105.49,19.54c4.02,20,38.67,204.39-67.51,273.65c-10.08,6.58-22.01,12.49-36.21,17.01"/>
	<path class="st1" d="M395.71,19.54c-4.15,23.35-34.65,208.67,71.98,275.54c9.35,5.86,20.16,11.07,32.71,15.12"/>
	<path class="st1" d="M166.97,1.49c0.05,4.64,1.78,72.83,48.41,96.48c15.95,8.09,32.82,8.77,33.6,8.79
		c30.06,0.93,50.9-16.18,54.95-19.65c20.83-17.86,25.23-41.76,29.11-62.78c1.74-9.42,2.25-17.36,2.4-22.84"/>
	<path class="st1" d="M170.32,7.08c5.07,6.73,15.9,19.15,34.44,27.68c18.99,8.73,35.98,8.75,47.02,8.64
		c11.49-0.11,30.52-0.52,50.64-11.28c15.17-8.11,24.41-18.61,29.24-25.04"/>
	<path class="st1" d="M1.77,705.55V313.25v-14.64c5.59-2.07,13.65-5.47,22.54-10.82c32.51-19.58,46.71-47.61,54.58-63.14
		c20-39.48,29.21-112.46,12.99-201.12c26.1-7.66,52.2-15.33,78.3-22.99c3.87,6.76,13.97,22.13,34.18,32.07
		c18.33,9.01,34.96,8.63,47.18,8.35c12.81-0.29,42.9-0.98,65.35-21.39c7.7-7,12.23-14.26,14.75-19.03
		c26.33,7.81,52.66,15.61,79,23.42c-5.04,27.42-33.85,196.19,63.81,261.38c7.61,5.08,16.21,9.68,25.94,13.53
		c0,135.56,0,271.11,0,406.67H1.77z"/>
</g>
<rect x="232.26" y="114.05" class="Colour3 fill" width="12.28" height="130.5"/>
<rect x="252.5" y="114.22" class="Colour3 fill" width="12.28" height="130.33"/>
<rect x="271.97" y="114.05" class="Colour2 fill" width="12.11" height="130.5"/>
<rect x="212.57" y="114.22" class="Colour2 fill" width="12.28" height="130.33"/>
<rect x="232.84" y="374.95" class="Colour3 fill" width="12.33" height="328.96"/>
<rect x="253.35" y="374.95" class="Colour3 fill" width="12.54" height="328.96"/>
<rect x="273.24" y="374.98" class="Colour2 fill" width="12.54" height="328.96"/>
<rect x="212.57" y="375.42" class="Colour2 fill" width="12.54" height="328.96"/>
<path class="st2" d="M291.43,92.9c-17.71,10.84-35.98,11.15-40.1,11.15c-5.48-0.01-19.71-0.61-34.43-8.15
	c-30.89-15.82-39.29-49.51-43.01-64.45c7.61,5.76,36.45,26.15,79.09,25.58c40.44-0.54,67.64-19.6,75.54-25.58
	C324.94,48.54,317.64,76.85,291.43,92.9z"/>
<g>
	<path class="st1" d="M170.55,0.55c-0.04,7.29,0.55,17.88,3.63,30.23c3.72,14.94,12.13,48.63,43.01,64.45
		c14.73,7.54,28.96,8.14,34.43,8.15c4.12,0.01,22.39-0.3,40.1-11.15c28.12-17.22,34.48-48.55,37.82-65
		c2.24-11.02,2.57-20.35,2.48-26.68l15.92,4.72c-1.68,47.51-23.11,87.11-53.65,102.42c-20.73,10.39-42.31,11-42.31,11
		s-19.93,1.27-38.37-6.68c-37.24-16.06-59.64-57.56-59.13-106.74L170.55,0.55z"/>
</g>
<g id="FBodyLogos"></g>
<path class="NeckAndArmTrim fill" d="M0.4,313.25v-7.91v-6.73c5.59-2.07,13.65-5.47,22.54-10.82c32.51-19.58,46.71-47.61,54.58-63.14
	c20-39.48,29.21-112.46,12.99-201.12l17.52-5.14c3.86,21.26,36.12,212.31-72.72,279.39C25.42,303.87,13.91,309.23,0.4,313.25
	 M500.39,313.26c0-4.79,0-9.59,0-14.38c-9.73-3.85-18.33-8.45-25.94-13.53c-97.67-65.19-68.86-233.97-63.81-261.38l-18.8-5.57
	c-3.95,21.14-36.52,208.91,72.25,278.17C474.27,303.04,486.24,308.84,500.39,313.26"/>
<path class="st0" d="M500.39,313.25c-14.15-4.41-26.13-10.21-36.31-16.69C355.32,227.31,387.9,39.54,391.84,18.39l18.8,5.57
	c-5.04,27.42-33.85,196.19,63.81,261.38c7.61,5.08,16.21,9.68,25.94,13.53C500.39,303.67,500.39,308.46,500.39,313.25"/>
<path class="st0" d="M1.77,313.25v-7.91v-6.73c5.59-2.07,13.65-5.47,22.54-10.82c32.51-19.58,46.71-47.61,54.58-63.14
	c20-39.48,29.21-112.46,12.99-201.12l17.52-5.14c3.86,21.26,36.12,212.31-72.72,279.39C26.8,303.87,15.28,309.23,1.77,313.25"/>
<g>
	<path class="st0" d="M170.18,0.55c-0.04,7.29,0.55,17.88,3.63,30.23c3.72,14.94,12.13,48.63,43.01,64.45
		c14.73,7.54,28.96,8.14,34.43,8.15c4.12,0.01,22.39-0.3,40.1-11.15c28.12-17.22,34.48-48.55,37.82-65
		c2.24-11.02,2.57-20.35,2.48-26.68l15.92,4.72c-1.68,47.51-23.11,87.11-53.65,102.42c-20.73,10.39-42.31,11-42.31,11
		s-19.93,1.27-38.37-6.68C175.98,95.95,153.59,54.45,154.1,5.27L170.18,0.55z"/>
</g>
<path class="st1" d="M347.57,5.27l-15.92-4.72c0,0.02,0,0.05,0,0.08c5.31,1.57,10.61,3.15,15.92,4.72
	C347.57,5.32,347.57,5.29,347.57,5.27z"/>
<path class="st1" d="M170.18,0.99c0-0.15,0-0.3,0-0.44l-0.22,0.06C170.03,0.73,170.1,0.86,170.18,0.99z"/>
<path class="NeckAndArmTrim fill" d="M328.38,30.78c-7.9,5.98-35.1,25.03-75.54,25.58c-42.64,0.57-71.48-19.82-79.09-25.58
	c0,0-4.4-16.83-3.63-30.23c3.87,6.76,13.97,22.13,34.18,32.07c18.33,9.01,34.96,8.63,47.18,8.35c12.81-0.29,42.9-0.98,65.35-21.39
	c7.7-7,12.23-14.26,14.75-19.03C332.08,15.52,328.38,30.78,328.38,30.78z M154.1,5.27c-0.51,49.18,21.89,90.68,59.13,106.74
	c18.45,7.95,38.37,6.68,38.37,6.68s21.59-0.61,42.31-11c30.53-15.3,51.95-54.87,53.65-102.35c-5.31-1.57-10.61-3.15-15.92-4.72
	c0.09,6.33-0.25,15.63-2.48,26.61c-3.34,16.46-9.7,47.79-37.82,65c-17.71,10.84-35.98,11.15-40.1,11.15
	c-5.48-0.01-19.71-0.61-34.43-8.15c-30.89-15.82-39.29-49.51-43.01-64.45c-3.02-12.11-3.64-22.52-3.63-29.79
	c-0.07-0.13-0.15-0.25-0.22-0.38L154.1,5.27z"/>
<g>
	<path class="st3" d="M1.08,705.55V313.25v-14.64c5.59-2.07,13.65-5.47,22.54-10.82c32.51-19.58,46.71-47.61,54.58-63.14
		c20-39.48,29.21-112.46,12.99-201.12c26.1-7.66,52.2-15.33,78.3-22.99c3.87,6.76,13.97,22.13,34.18,32.07
		c18.33,9.01,34.96,8.63,47.18,8.35c12.81-0.29,42.9-0.98,65.35-21.39c7.7-7,12.23-14.26,14.75-19.03
		c26.33,7.81,52.66,15.61,79,23.42c-5.04,27.42-33.85,196.19,63.81,261.38c7.61,5.08,16.21,9.68,25.94,13.53
		c0,135.56,0,271.11,0,406.67H1.08z"/>
	<line class="st4" x1="1.08" y1="688.56" x2="499.71" y2="688.56"/>
	<line class="st4" x1="1.08" y1="695.03" x2="499.71" y2="695.03"/>
	<path class="st4" d="M169.63,9.39c5.07,6.73,15.9,19.15,34.44,27.68c18.99,8.73,35.98,8.75,47.02,8.64
		c11.49-0.11,30.52-0.52,50.64-11.28c15.17-8.11,24.41-18.61,29.24-25.04"/>
	<path class="st4" d="M1.08,304.05c9.92-3.58,18.66-7.91,26.39-12.67C133.56,226,103.42,50.02,98.25,21.46"/>
	<path class="st4" d="M104.8,19.54c4.02,20,38.67,204.39-67.51,273.65c-10.08,6.58-22.01,12.49-36.21,17.01"/>
	<path class="st4" d="M401.85,21.56c-5.68,32.08-31.74,205.36,72.82,271.94c7.36,4.69,15.66,7.94,25.04,11.04"/>
	<path class="st4" d="M395.02,19.54c-4.15,23.35-34.65,208.67,71.98,275.54c9.35,5.86,20.16,11.07,32.71,15.12"/>
	<path class="st4" d="M158.05,3.91c0.5,47.7,21.93,87.69,57.04,103.38c17.8,7.95,37.02,6.68,37.02,6.68s20.82-0.61,40.82-11
		c28.63-14.88,46.74-52.69,49.36-98.41"/>
	<path class="st4" d="M163.9,2.19c0.54,13.13,5.48,74.6,49.75,97.06c16.41,8.32,33.77,9.02,34.58,9.05
		c30.93,0.96,52.74-16.27,56.54-20.22c21.29-22.09,24.76-40.96,29.96-64.61c1.83-8.33,2.15-15.64,2.38-21.09"/>
	<path class="st4" d="M171.12,21.15c6.27,6.8,16.34,15.62,31.11,22.16c19.74,8.73,37.41,8.75,48.89,8.64
		c11.94-0.11,31.73-0.52,52.65-11.28c11.83-6.09,20.19-13.51,25.75-19.56"/>
</g>
</svg>
