<?xml version="1.0" encoding="utf-8"?>
<!-- Generator: Adobe Illustrator 19.1.0, SVG Export Plug-In . SVG Version: 6.00 Build 0)  -->
<svg version="1.1" id="Layer_1" xmlns="http://www.w3.org/2000/svg" xmlns:xlink="http://www.w3.org/1999/xlink" x="0px" y="0px"
	 viewBox="0 0 500.79 706.1" style="enable-background:new 0 0 500.79 706.1;" xml:space="preserve">
<style type="text/css">
	<![CDATA[
	@font-face{font-family:'codaheavy';src:url('/fonts/coda-heavy-webfont.woff') format('woff')}
	text{font-family:Impact,codaheavy,sans-serif}
	.Number.fill{fill:#000}
	.NumberOutline.stroke{fill:none;stroke:#777;stroke-width:2.5}
	.Colour1.fill{fill:#231F20;}
	.Colour2.fill{fill:#FFFFFF;}
	.Colour3.fill{fill:#C1B49A;}
	.NeckAndArmTrim.fill{fill:#231F20;}
	.st0{fill:none;stroke:#000000;stroke-miterlimit:10;}
	.st1{fill:none;}
	.st2{fill:none;stroke:#000000;stroke-width:0.5;stroke-miterlimit:10;stroke-dasharray:4,2.4;}
	]]>
</style>
<path class="Colour1 fill" d="M0.29,298.93c0,135.56,0,271.11,0,406.67h499.79V313.3v-14.64c-5.6-2.07-13.68-5.47-22.59-10.82
	c-32.59-19.58-46.82-47.61-54.7-63.14c-20.04-39.48-29.27-112.46-13.02-201.12C383.6,15.92,357.44,8.26,331.28,0.6
	c-3.88,6.76-14,22.13-34.26,32.07c-18.37,9.01-35.04,8.63-47.29,8.35c-12.84-0.29-43-0.98-65.5-21.39
	c-7.72-7-12.26-14.26-14.79-19.02c-26.39,7.81-52.79,15.61-79.18,23.42c5.06,27.42,33.93,196.19-63.96,261.38
	C18.66,290.48,10.05,295.07,0.29,298.93z"/>

<g>
	<path class="st0" d="M26.5,285.4c-7.63,5.08-16.25,9.68-26,13.53c0,135.56,0,271.11,0,406.67h499.79V313.3v-14.64
		c-5.6-2.07-13.68-5.47-22.59-10.82c-32.59-19.58-46.82-47.61-54.7-63.14c-20.04-39.48-29.27-112.46-13.02-201.12
		c-26.16-7.66-52.32-15.33-78.48-22.99c-3.88,6.76-14,22.13-34.26,32.07c-18.37,9.01-35.04,8.63-47.29,8.35
		c-12.84-0.29-43-0.98-65.5-21.39c-7.72-7-12.26-14.26-14.79-19.02c-26.39,7.81-52.79,15.61-79.18,23.42
		C95.52,51.43,124.4,220.21,26.5,285.4z"/>
</g>
<g>
	<path class="st1" d="M1.02,298.97c15.61-6.97,40.43-20.57,60.76-45.63c23.24-28.64,28.61-57.47,33.7-84.83
		c6.29-33.78,4.37-61.59,2.04-95.42c-1.43-20.75-3.71-37.84-5.51-49.53c25.74-7.66,51.48-15.31,77.22-22.97
		c6.33,9.04,21.87,28.17,48.94,36.31c14.19,4.27,26.4,3.97,35.73,3.74c14.34-0.35,32.23-0.78,49.88-11.23
		C317.84,21.1,326.23,9.7,331.12,0.6c26.07,7.7,52.14,15.39,78.21,23.09c-15.67,102.16-1.74,181.92,18.48,214.06
		c21.61,34.34,50.56,51.15,50.56,51.15c8.77,5.09,16.52,8.27,21.4,10.08c0,135.54,0,271.09,0,406.63H1.02V298.97z"/>
	<path class="st1" d="M107.97,18.82c4.74,21.78,7.92,45.74,8.33,71.59c0.64,40.88,2.34,148.4-72.72,203.19
		c-16.21,11.83-32.09,18.35-42.55,21.92"/>
	<path class="st1" d="M393.38,18.98c-4.56,23.7-37.16,206.11,70.8,278.74c10.02,6.74,21.76,12.88,35.59,17.8"/>
	<path class="st1" d="M152.32,5.63c4.39,7.16,11.93,17.52,24.13,27.22c30.96,24.63,67.11,25.25,76.15,25.16
		c11.85-0.12,47.07-2.14,75.7-26.84C339,21.93,345.56,12.31,349.4,5.63"/>
	<line class="st1" x1="0.5" y1="688.6" x2="500.29" y2="688.6"/>
	<line class="st1" x1="0.5" y1="695.07" x2="500.29" y2="695.07"/>
	<path class="st1" d="M105.04,20.54c4.03,20,38.76,204.39-67.66,273.65c-10.1,6.58-22.06,12.49-36.3,17.01"/>
	<path class="st1" d="M396.45,20.54c-3.99,23.18-33.35,207.16,69.27,273.55c9,5.82,19.4,10.99,31.48,15.01"/>
	<path class="st1" d="M166.09,1.53c4.76,7.22,16.07,22.11,36.98,32.2c20.73,10,39.59,9.82,51.02,9.58
		c12.92-0.27,33.69-0.7,53.87-13.66c14.57-9.36,22.46-21.17,26.32-28.12"/>
</g>
<path class="NeckAndArmTrim fill" d="M0.34,315.51c10.47-3.58,26.34-10.09,42.55-21.92c75.06-54.79,73.36-162.31,72.72-203.19
	c-0.41-25.85-3.58-49.81-8.33-71.59l-16.98,5.2c1.8,11.69,5.11,28.33,6.54,49.07c2.33,33.83,1.91,61.88-4.39,95.66
	c-5.1,27.36-10.26,54.06-32.16,84.01C41.25,278.81,15.95,292,0.34,298.97V315.51z"/>
<path class="NeckAndArmTrim fill" d="M499.77,315.51c-13.83-4.92-25.57-11.06-35.59-17.8c-107.96-72.63-75.36-255.04-70.8-278.74l15.95,4.71
	c-15.67,102.16-0.4,181.48,19.82,213.61c21.61,34.34,49.22,51.59,49.22,51.59c8.77,5.09,16.52,8.27,21.4,10.08V315.51z"/>
<path class="NeckAndArmTrim fill" d="M349.25,5.63c-3.84,6.68-10.4,16.31-21.11,25.55c-28.63,24.7-63.85,26.73-75.7,26.84
	c-9.04,0.09-45.19-0.53-76.15-25.16c-12.2-9.7-19.73-20.06-24.13-27.22l16.91-5.03c6.33,9.04,21.87,28.17,48.94,36.31
	c14.19,4.27,26.4,3.97,35.73,3.74c14.34-0.35,32.23-0.78,49.88-11.23C317.68,21.1,326.08,9.7,330.96,0.6L349.25,5.63z"/>
<g>
	<line class="st2" x1="0.81" y1="688.6" x2="500.6" y2="688.6"/>
	<line class="st2" x1="0.81" y1="695.07" x2="500.6" y2="695.07"/>
	<path class="st2" d="M103.57,20.22c4.58,21.4,7.63,44.89,8.03,70.19c0.64,40.88,2.34,148.4-72.72,203.19
		c-13.81,10.08-27.36,14.83-37.55,18.66"/>
	<path class="st2" d="M156.74,4.4c4.38,7.03,11.43,16.49,22.28,25.39c30.02,24.63,65.07,25.25,73.83,25.16
		c11.49-0.12,45.64-2.14,73.4-26.84c9.3-8.28,15.38-16.87,19.22-23.37"/>
	<path class="st2" d="M162.76,2.57c5.49,8.27,17.27,23.27,38.06,33.63c21.86,10.89,41.75,10.69,53.8,10.44
		c13.62-0.29,35.52-0.76,56.8-14.87c14.39-9.55,22.6-21.43,26.93-29.12"/>
	<path class="st2" d="M1.33,303.5c9.28-3.46,17.4-7.76,24.84-12.08c108.97-63.29,76.53-239,71.06-269.32"/>
	<path class="st2" d="M404.98,22.31c-5.58,32.42-35.97,213.19,72.62,272.82c6.93,3.81,14.2,7.98,22.47,11.38"/>
	<path class="st2" d="M399.56,20.54c-3.99,23.18-36.89,207.87,69.27,277.13c7.3,4.76,20.2,10.88,31.26,15.17"/>
</g>
<g>
	<path class="st0" d="M0.5,315.51c10.47-3.58,26.34-10.09,42.55-21.92c75.06-54.79,73.36-162.31,72.72-203.19
		c-0.41-25.85-3.58-49.81-8.33-71.59l-15.95,4.75c1.8,11.69,4.08,28.78,5.51,49.53c2.33,33.83,2.83,61.96-3.47,95.74
		c-5.1,27.36-11.68,52.37-32.52,83.15C42.92,278.7,16.11,292,0.5,298.97V315.51z"/>
	<path class="st0" d="M500.29,315.51c-13.83-4.92-25.57-11.06-35.59-17.8c-107.96-72.63-75.36-255.04-70.8-278.74l15.95,4.71
		c-19.15,102.08-1.15,176.19,18.25,210.8c17.45,31.12,46.21,50.96,46.21,50.96c8.77,5.09,21.09,11.71,25.97,13.52V315.51z"/>
	<path class="st0" d="M349.4,5.63c-3.84,6.68-10.4,16.31-21.11,25.55c-28.63,24.7-63.85,26.73-75.7,26.84
		c-9.04,0.09-45.19-0.53-76.15-25.16c-12.2-9.7-19.73-20.06-24.13-27.22l16.91-5.03c11.43,16.51,21.06,28.71,48.94,36.31
		c14.29,3.89,26.4,3.97,35.73,3.74c14.34-0.35,32.23-0.78,49.88-11.23C317.84,21.1,326.23,9.7,331.12,0.6L349.4,5.63z"/>
</g>
<g>
	<g>
		<path class="Colour3 fill" d="M267.1,57.66c-4.09,0.14-8.19,0.23-12.28,0.27c0,42.11,0,84.22,0,126.33c4.09,0.03,8.19,0.12,12.28,0.27
			C267.1,142.24,267.1,99.95,267.1,57.66z"/>
		<path class="Colour3 fill" d="M246.86,58.24c-4.17-0.04-8.34-0.13-12.51-0.28c0,42.19,0,84.38,0,126.58c4.17-0.15,8.34-0.24,12.51-0.27
			C246.86,142.26,246.86,100.25,246.86,58.24z"/>
		<path class="Colour2 fill" d="M227.33,57.35c-4.17-0.21-8.33-0.48-12.49-0.81c0,43.04,0,86.07,0,129.11c4.16-0.33,8.33-0.6,12.49-0.81
			C227.33,142.35,227.33,99.85,227.33,57.35z"/>
		<path class="Colour2 fill" d="M286.88,56.15c-4.16,0.33-8.33,0.6-12.49,0.81c0,42.63,0,85.26,0,127.88c4.17,0.21,8.33,0.48,12.49,0.81
			C286.88,142.48,286.88,99.31,286.88,56.15z"/>
	</g>
</g>
<g>
	<g>
		<path class="Colour3 fill" d="M234.45,705.2c4.12,0.29,8.25,0.47,12.38,0.54c0-99.59,0.01-199.18,0.01-298.77c-4.12,0-8.24,0-12.35,0
			C234.48,506.38,234.46,605.79,234.45,705.2z"/>
		<path class="Colour3 fill" d="M255.06,705.74c4.2-0.08,8.4-0.26,12.59-0.56c-0.01-99.4-0.03-198.8-0.04-298.2c-4.19,0-8.38,0-12.57,0
			C255.05,506.56,255.05,606.15,255.06,705.74z"/>
		<path class="Colour2 fill" d="M275.02,704.55c4.18-0.43,8.36-0.98,12.52-1.64c0-98.64,0-197.28,0-295.92c-4.19,0-8.38,0-12.57,0
			C275,506.18,275.01,605.37,275.02,704.55z"/>
		<path class="Colour2 fill" d="M214.17,703.31c4.16,0.66,8.34,1.21,12.52,1.64c0.01-99.19,0.03-198.37,0.04-297.56
			c-4.19,0-8.38,0-12.57,0C214.17,506.03,214.17,604.67,214.17,703.31z"/>
	</g>
</g>
<g id="BBodyLogos"></g>
</svg>
