<?xml version="1.0" encoding="utf-8"?>
<!-- Generator: Adobe Illustrator 19.1.0, SVG Export Plug-In . SVG Version: 6.00 Build 0)  -->
<svg version="1.1" id="Layer_1" xmlns="http://www.w3.org/2000/svg" xmlns:xlink="http://www.w3.org/1999/xlink" x="0px" y="0px"
	 viewBox="0 0 500.79 706.1" style="enable-background:new 0 0 500.79 706.1;" xml:space="preserve">
<style type="text/css">
	<![CDATA[
	@font-face{font-family:'codaheavy';src:url('/fonts/coda-heavy-webfont.woff') format('woff')}
	text{font-family:Impact,codaheavy,sans-serif}
	.Colour1.fill{fill:#111D35;}
	.Colour2.fill{fill:#ED2935;}
	.Colour3.fill{fill:#595D80;}
	.Colour4.fill{fill:#00898D;}
	.NeckAndArmTrim.fill{fill:#ED2935;}
	.st0{fill:#FFFFFF;}
	.st1{fill:none;stroke:#FFFFFF;stroke-width:0.5;stroke-miterlimit:10;stroke-dasharray:4,2.4;}
	]]>
</style>
<path class="Colour1 fill" d="M316.3,19.57c-22.48,20.41-52.62,21.1-65.45,21.39c-12.24,0.28-28.9,0.66-47.25-8.35
	c-20.24-9.94-30.36-25.31-34.23-32.07c-26.14,7.66-52.28,15.33-78.42,22.99c16.24,88.66,7.02,161.64-13.01,201.12
	c-7.88,15.53-22.1,43.56-54.66,63.14c-8.91,5.36-16.98,8.75-22.57,10.82v14.64v392.29h499.38c0-135.56,0-271.11,0-406.67
	c-9.75-3.85-18.36-8.45-25.98-13.53c-97.81-65.19-68.96-233.97-63.91-261.38c-26.37-7.81-52.74-15.61-79.12-23.42
	C328.55,5.31,324.01,12.57,316.3,19.57z"/>
<path class="Colour4 fill" d="M393.98,194.86c-3.44-3.27-6.63-6.88-9.47-10.71l-0.12-0.16l-0.17-0.09c-7.88-4.11-14.59-5.13-19.8-3.02
	c-1.54,0.63-2.68,1.41-3.79,2.18l-0.37,0.25l-0.11,0.3c-3.23,5.23-7.13,9.88-11.59,13.82c-4.77,4.21-12.74,9.81-23.63,12.6
	c-2.96,0.76-6.05,1.27-9.19,1.52l-1.46,0.12l0.83,1.21c1.96,2.84,3.68,5.68,5.09,8.43c0.57,1.1,1.1,2.23,1.6,3.36l0.17,0.39
	c1.27,2.91,3.91,8.97,9.86,14.16c4.85,4.23,10.92,6.96,18.02,8.12l0.28,0.05l9.92-5.36l0.11-0.31c2.2-6.23,2.5-11.89,0.89-16.82
	c-1.28-3.93-3.54-6.82-5.36-9.14c-1.46-1.86-2.61-3.34-2.17-4.2c0.35-0.69,1.59-0.84,2.57-0.84c1.34,0,3.18,0.26,5.36,0.75
	c7.48,4.25,12.28,5.22,14.75,3.04c1.08-0.95,1.32-2.19,1.56-3.4c0.25-1.26,0.51-2.56,1.62-3.85c1.53-1.76,4.13-2.78,7.13-2.78
	c1.83,0,3.7,0.38,5.25,1.08c4.69,2.1,7.82,7.44,7.97,13.61l0.03,1.37l9.05-4.89l9.23-4.8l-1.56-0.72
	C408.13,206.24,400.54,201.1,393.98,194.86z"/>
<path class="Colour4 fill" d="M217.52,210.29c0.31,0,0.62,0,0.96-0.01l0.19-0.03c3.32-0.89,6.81-1.6,10.38-2.12
	c2.29-0.33,4.2-0.52,5.78-0.68c3.75-0.37,5.82-0.58,7.72-2.24c2.61-2.29,3.79-6.5,3.51-12.53l-0.02-0.48l-11.56-6.13l-0.41,0.26
	c-22.97,14.63-24.54,19.3-23.72,21.54C210.95,209.5,213.29,210.29,217.52,210.29z"/>
<path class="Colour4 fill" d="M294.59,239.55c-6.37,0-15.96,1.52-28.52,4.52l-1.98,0.47l1.74,1.07c3.03,1.86,5.12,3.89,5.86,4.65
	c-2.7,3.43-5.8,5.75-9.24,6.89c-1.57,0.52-3.15,0.78-4.81,0.78c-1.27,0-2.45-0.14-3.59-0.28c-1-0.12-1.95-0.24-2.88-0.24
	c-1.63,0-2.9,0.37-4.12,1.2c-2.74,1.89-3.21,4.98-3.66,7.98c-0.38,2.51-0.77,5.11-2.41,7.29c-3.5,4.65-11.53,5.73-24.59,2.86
	l-5.77-1.27l43.56,23.78l4.52-2.44l-0.13-0.62c-4.03-18.94-2.48-24.19-0.46-25.25c1.63-0.87,4.19,0.76,7.01,2.62
	c2.82,1.86,6.03,3.96,9.2,3.96c0.95,0,1.86-0.19,2.71-0.57c1.65-0.74,2.27-1.83,2.99-3.1c0.62-1.1,1.4-2.46,3.09-4.03
	c4.34-4.02,9.61-4.72,13.1-5.18c2.47-0.32,4.1-0.54,4.3-1.76c0.27-1.68-2.37-3.06-8.04-5.61c-3.77-1.69-8.04-3.61-7.91-5.01
	c0.08-0.78,1.98-2.69,17.99-3.51l0.47-0.02l0.23-0.42c1.18-2.19,1.48-4.02,0.89-5.42C303.19,240.64,300.07,239.55,294.59,239.55z"/>
<path class="Colour4 fill" d="M57.24,584.13l-2.14-0.44c-1.62-0.33-3.09-0.67-4.47-1.03c-7.85-2.07-15.33-5.33-22.21-9.66l-0.69-0.44
	l-0.47,0.67c-2.1,3.03-4,5.47-7.66,7.01c-4.86,2.05-11.08,1.68-18.59-1.2l-0.31-0.45v1.25h0v14.11h0v0.86l9.93-0.06
	c6.14-0.17,10.07-0.08,13.59,0c2.48,0.06,4.44,0.1,6.37,0c8.08-0.43,16.33-3.57,24.46-9.29L57.24,584.13z"/>
<path class="Colour4 fill" d="M58.34,688.08c-4.49,0-12.92,0.93-18.93,7.14c-2.23,2.3-3.89,5.22-4.81,8.45l-0.31,1.09H60.7v-16.6
	l-0.81-0.05C59.51,688.1,58.98,688.08,58.34,688.08z"/>
<path class="Colour4 fill" d="M59.85,510.83v-17.86c-2.45-0.73-8.24-1.91-14.58,0.56c-5.95,2.32-8.96,6.58-10.07,8.53
	c1.68,2.11,5.24,5.73,11.14,7.76C51.99,511.76,57.11,511.32,59.85,510.83z"/>
<path class="Colour4 fill" d="M44.71,380.15c-2.09,0.92-3.42,2.24-4.71,3.53c-1.42,1.41-2.9,2.88-5.51,4.06c-3,1.36-6.5,1.9-10.36,1.59
	c-2.26-0.71-4.11-2.19-5.09-4.08l-1.28-2.48l-0.32,2.77c-0.08,0.7-0.2,1.3-0.35,1.84c-1,3.53-3.4,5.66-4.68,6.57
	c-0.63,0.38-2.35,1.25-4.58,1.25c-0.86,0-1.71-0.13-2.53-0.39c-1.53-0.48-2.85-1.37-3.93-2.62l-0.65-1.75v2.31l0,0v29.78l0,0v3.51
	l0,0v32.5h0v0.69l-0.18,0.15c2.35,0.51,4.79,0.78,7.24,0.78c3.94,0,7.76-0.68,11.34-2.03c9.85-3.7,14.37-11.05,15.9-14.17l25.7,2.21
	l0-6.12c-0.6-8.97-3.13-14.51-7.51-16.48c-1.42-0.64-2.73-0.78-4.58-0.96c-1.56-0.16-3.5-0.36-6.32-0.94
	c-3.18-0.67-6.32-1.59-9.32-2.75c1.38-1.73,4.1-4.38,8.53-5.71c2.91-0.88,6.07-1.02,9.09-0.43l0.75,0.15l0.23-0.73
	c0.33-1.05,1.18-4.71-1.54-7.97c-2.55-3.04-6.25-3.45-7.68-3.49c0.4-1.9,1.59-5.24,5.1-7.81c3.25-2.37,6.87-2.87,9.34-2.87
	c1.26,0,2.28,0.13,2.91,0.23l1,0.17v-9.08l-0.55-0.21C53.87,378.74,48.64,378.41,44.71,380.15z"/>
<path class="Colour4 fill" d="M47.66,307.08c-9.05,0.61-15.56,3.16-19.36,7.6c-1.15,1.34-2,2.82-2.6,4.51l-0.44,1.24l1.31-0.1
	c4.21-0.31,7.67,0.39,10.24,2.08c2.37,1.56,3.32,3.47,4.33,5.48c0.94,1.87,1.91,3.81,4.08,5.35c2.13,1.51,4.99,2.28,8.48,2.28
	c1.9,0,4.02-0.23,6.31-0.68l0.69-0.14v-14.89l-12.65-12.77L47.66,307.08z"/>
<path class="Colour4 fill" d="M447.08,334.22c3.49,0,6.35-0.77,8.48-2.29c2.17-1.54,3.14-3.48,4.08-5.37c1.01-2.02,1.96-3.93,4.33-5.49
	c2.56-1.7,6.03-2.39,10.25-2.09l1.31,0.1l-0.44-1.24c-0.6-1.7-1.45-3.18-2.6-4.53c-3.8-4.44-10.31-7-19.36-7.61l-0.39-0.03
	l-12.65,12.8v14.93l0.69,0.14C443.06,333.99,445.18,334.22,447.08,334.22z"/>
<path class="Colour4 fill" d="M440.94,492.03v17.9c2.73,0.49,7.85,0.94,13.52-1.02c5.89-2.03,9.46-5.66,11.14-7.77
	c-1.11-1.95-4.11-6.22-10.07-8.55C449.17,490.12,443.38,491.31,440.94,492.03z"/>
<path class="Colour4 fill" d="M461.37,694.78c-6.01-6.23-14.47-7.16-18.97-7.16c-0.62,0-1.14,0.02-1.51,0.04l-0.81,0.04v17.07h26.51
	l-0.28-1.07C465.43,700.3,463.72,697.22,461.37,694.78z"/>
<path class="Colour4 fill" d="M481.18,579.53c-3.66-1.54-5.56-3.99-7.67-7.03l-0.47-0.67l-0.69,0.44c-6.88,4.35-14.35,7.6-22.21,9.68
	c-1.39,0.37-2.85,0.71-4.47,1.04l-2.13,0.44l2.12,1.29c8.2,5.77,16.45,8.92,24.53,9.36c1.9,0.1,3.75,0.06,6.37,0
	c3.27-0.08,7.31-0.18,13.61,0l9.91,0.06v-0.86v-14.15v-1.25l-0.31,0.45C492.28,581.2,486.04,581.57,481.18,579.53z"/>
<path class="Colour4 fill" d="M481.68,457.1c3.59,1.35,7.4,2.03,11.34,2.03c2.46,0,4.89-0.26,7.25-0.78l-0.18-0.15l0-0.69h0v-30.6v-1.94
	v-3.54v-29.89v-2.31l-0.65,1.75c-1.09,1.27-2.42,2.16-3.94,2.65c-0.82,0.26-1.67,0.39-2.53,0.39c-2.22,0-3.93-0.86-4.49-1.19
	c-1.35-0.96-3.77-3.11-4.77-6.65c-0.15-0.54-0.26-1.12-0.35-1.84l-0.33-2.78l-1.28,2.49c-0.97,1.88-2.79,3.36-5.01,4.06
	c-3.93,0.31-7.44-0.22-10.44-1.58c-2.62-1.19-4.09-2.66-5.53-4.09c-1.28-1.28-2.61-2.6-4.7-3.52c-3.94-1.75-9.17-1.41-15.44,0.99
	l-0.55,0.21v9.1l1-0.17c0.63-0.11,1.65-0.23,2.91-0.23c2.47,0,6.1,0.5,9.34,2.88c3.52,2.58,4.7,5.92,5.1,7.83
	c-1.42,0.04-5.13,0.45-7.68,3.51c-2.7,3.24-1.86,6.93-1.54,7.98l0.23,0.74l0.75-0.15c3.04-0.59,6.18-0.44,9.09,0.43
	c4.43,1.34,7.15,3.99,8.53,5.73c-3,1.16-6.13,2.09-9.32,2.76c-2.82,0.59-4.76,0.78-6.32,0.94c-1.83,0.19-3.15,0.32-4.57,0.96
	c-4.38,1.97-6.91,7.53-7.51,16.58v6.08l25.7-2.22C467.31,446.03,471.83,453.4,481.68,457.1z"/>
<path class="Colour4 fill" d="M141.17,152.8c-0.04-1.26-0.08-2.57-0.52-4.14c-0.76-2.67-2.5-5.14-5.19-7.34
	c-4.17-3.13-12.85-8.38-24.18-8.38c-1,0-2.02,0.04-3.03,0.12c-2.42,0.2-4.92,0.68-7.43,1.43l-0.56,0.17l-0.04,0.58
	c-0.68,9.49-1.73,18.74-3.12,27.51l-0.13,0.81l0.8,0.15c1.21,0.23,2.4,0.35,3.55,0.35c1.35,0,2.67-0.16,3.93-0.48
	c4.1-1.05,6.52-3.45,8.86-5.78c1.95-1.94,3.97-3.95,6.97-5.01c5.08-1.81,11.6-0.28,19.28,4.5l1.83,1.14l-0.57-2.08
	C141.26,155.13,141.2,154.07,141.17,152.8z"/>
<path class="Colour3 fill" d="M166.72,151.41L166.72,151.41c-1.24,2.44-2.81,4.04-4.66,4.76c-1.49,0.58-3.17,0.39-4.73,0.09
	c-1.5-0.28-3.24-0.51-4.86-0.11c-2.65,0.66-5.05,2.7-7.14,6.06l-0.13,0.21l0,0.25c0.03,2.53,0.67,4.56,1.89,6.04
	c1.21,1.48,2.6,1.95,4.35,2.56c0.87,0.3,1.85,0.64,2.95,1.15c2.4,1.14,4.65,2.83,6.69,5.02c-0.56,1.32-1.29,2.52-2.17,3.54
	c-1.46,1.72-2.87,2.44-4.23,3.14c-0.93,0.48-1.89,0.97-2.73,1.77c-2.13,2.04-3,5.63-2.62,10.68c-1.74-0.43-3.49-1.06-5.21-1.86
	l-0.7-0.33l-0.38,0.68c-2.33,4.12-5.22,6.95-8.58,8.41c-1.72,0.75-3.38,1.08-5.38,1.08c-0.94,0-1.86-0.07-2.87-0.14
	c-1.96-0.14-4.1-0.21-5.95,0.09c-5.69,0.93-11.1,4.88-16.08,11.76l-0.56,0.78l13.57,7.41l0.43-0.31c4.2-3.03,9.06-5.04,14.06-5.79
	c4.9-0.74,10.09-0.25,14.63,1.23c2.26,2.06,3.33,4,3.2,5.76c-0.09,1.23-0.76,2.08-1.69,3.27c-0.68,0.87-1.45,1.85-2.25,3.27
	c-1.04,1.84-1.81,3.9-2.29,6.11l-0.13,0.62l9,4.92l0.36-0.13c3.41-1.23,6.42-3.04,8.96-5.38c2.7-2.48,4.03-4.75,5.44-7.15
	c0.99-1.68,2.01-3.42,3.56-5.24c3.2-3.76,7.62-6.57,13-8.33c16.78-0.12,19.07-2.27,19.33-3.87c0.32-1.97-2.12-5.59-26.97-14.14
	l-0.4-0.14l-0.35,0.24c-12.17,8.35-17.05,10.11-19,10.11c-0.31,0-0.71-0.05-0.9-0.27c-0.51-0.62-1.04-4.02,13.51-21.56l0.21-0.26
	l-0.02-0.33c-0.24-4.22,1.29-7.99,3.8-9.39c1.56-0.87,3.74-0.92,5.83-0.11c3.06,1.17,5.61,3.87,7,7.4l0.45,1.16l0.91-0.85
	c3.06-2.88,6.28-4.47,9.58-4.72c3.23-0.26,5.69,0.91,8.32,2.17c2.43,1.17,4.95,2.37,8.51,2.77c4.04,0.44,8.33-0.38,12.71-2.43
	l1.53-0.72l-60.32-31.99L166.72,151.41z"/>
<path class="Colour3 fill" d="M356.65,184.47c-2.93-0.54-4.52-4.1-5.93-7.25c-1.27-2.84-2.46-5.52-4.52-5.63l-0.19-0.01
	c-1.91,0-2.9,2.24-4.16,5.12c-1.36,3.11-3.04,6.98-6.55,8.83c-1.29,0.68-2.67,1.02-4.21,1.02c-3.04,0-6.11-1.29-9.08-2.53
	c-2.76-1.16-5.37-2.25-7.8-2.25c-1.3,0-2.42,0.31-3.41,0.96c-3.72,2.41-4.97,8.85-3.82,19.7l0.03,0.27l0.18,0.2
	c2.75,3.1,5.21,6.18,7.32,9.15l0.27,0.39l0.47-0.03c3.34-0.23,6.66-0.77,9.88-1.59c11.04-2.83,19.12-8.51,23.95-12.77
	c4.06-3.58,7.71-7.84,10.85-12.67l1.63-2.5l-2.69,1.27C358.08,184.51,357.43,184.61,356.65,184.47z"/>
<path class="Colour3 fill" d="M279.66,228.02c-1.17-5.03-0.18-9.25,0.61-12.66c0.76-3.24,1.41-6.04,0.08-8.55
	c-2.37-4.45-10.06-5.76-22.95-3.94l-0.55,0.08l-0.15,0.54c-1.03,3.77-2.65,7.03-4.82,9.69c-3.35,4.1-7.22,5.85-10.33,7.26
	c-3.21,1.45-5.98,2.7-6.96,5.9c-1.3,4.22,1.49,8.29,4.19,12.23c1.63,2.38,3.18,4.64,3.79,6.82l0.33,1.17l0.98-0.72
	c2.3-1.69,4.75-2.81,7.27-3.34c4.37-0.91,8.97-0.06,13.56,2.48l0.29,0.16l0.32-0.08c8.02-1.94,14.91-3.3,20.47-4.04l1.68-0.22
	l-1.19-1.21C282.87,236.11,280.64,232.22,279.66,228.02z"/>
<path class="Colour3 fill" d="M47.62,596.76c-6.06,0-11.69,1.32-16.73,3.93c-6.84,3.54-10.84,8.57-12.99,12.17l-0.84,1.4l1.63-0.11
	c6.3-0.41,11.69,0.57,15.97,2.91c2.74,1.5,4.52,3.24,6.41,5.08c2.24,2.19,4.56,4.46,8.7,6.59c3.01,1.55,6.35,2.68,9.92,3.35
	l1.01,0.19v-33.47l-0.6-0.19C57.88,597.93,53.31,596.76,47.62,596.76z"/>
<path class="Colour3 fill" d="M55.83,541.97c-3.77,0-7.53-0.38-11.16-1.13c-5.18-1.07-10.16-2.9-14.8-5.44l-0.34-0.18l-0.36,0.13
	c-3.2,1.15-6.61,1.53-9.88,1.11c-2.32-0.3-4.57-0.98-6.69-2.04l-0.51-0.25l-0.43,0.38c-2.99,2.64-5.54,5.73-7.58,9.18
	c-1.9,3.23-2.46,6.77-3.36,10.52l0,0.11c-0.01,0.03-0.02,0.06-0.02,0.08v24.57l0,0l0,0.59l-0.31,0.21
	c4.52,1.77,8.67,2.66,12.34,2.66c2.63,0,5.06-0.46,7.22-1.37c4.23-1.78,6.25-4.71,8.4-7.81c1.85-2.68,3.77-5.46,7.31-7.78
	c5.71-3.75,13.87-4.89,24.05-3.39l0.98,0.15v-20.51l-0.92,0.06C58.32,541.92,57.03,541.97,55.83,541.97z"/>
<path class="Colour3 fill" d="M53.34,451.52c-1.6,0-3.15,0.29-4.61,0.86c-4.34,1.7-7.24,5.64-7.41,10.04l-0.01,0.22l0.1,0.2
	c1.22,2.44,2.92,4.59,5.03,6.38c4.76,4.04,10.39,5.12,13.32,5.41l0.94,0.09v-21.21l-0.45-0.24
	C59.5,452.85,56.78,451.52,53.34,451.52z"/>
<path class="Colour3 fill" d="M56.8,389.1c-2.6,0-6.43,0.53-9.88,3.05c-3.84,2.8-5.09,6.5-5.5,8.46l-0.21,1.01l1.03,0.02
	c1.36,0.03,4.77,0.4,7.08,3.17c2.35,2.81,1.72,5.92,1.38,7.02c-3.14-0.6-6.43-0.45-9.47,0.47c-4.6,1.39-7.46,4.09-9.05,6.11
	l-0.72,0.91l1.08,0.42c3.09,1.2,6.31,2.15,9.56,2.83c2.87,0.6,4.92,0.81,6.42,0.96c1.81,0.18,3,0.3,4.29,0.88
	c3.02,1.36,5.11,4.69,6.2,9.92l1.69,8.09v-52.92L60,389.37C59.3,389.25,58.19,389.1,56.8,389.1z"/>
<path class="Colour3 fill" d="M46.11,332.69l-0.53-0.34l-0.07-0.05c-1.81-1.39-2.69-3.13-3.53-4.81c-1.02-2.04-2.07-4.15-4.65-5.84
	c-2.82-1.86-6.57-2.61-11.16-2.22l-0.58,0.05l-0.17,0.56c-0.43,1.45-0.66,2.91-0.91,4.53c-0.44,2.91-0.89,5.92-2.87,9.14
	c-0.51,0.82-1.15,1.65-2.08,2.7c-0.12,0.18-0.22,0.36-0.34,0.54l-1.88,1.55c-3.97,3.27-9.63,5.78-16.83,7.44l0.19,0.15v0.68h0v17.2
	h0v1.06l12.4-2.82l-0.01,0.15l0.67-0.3l0.29-0.07l0.01-0.07l0.36-0.16c2.64-1.18,5.14-2.54,7.58-4l0.35,0.21
	c3.1,1.87,8.11,4.11,14.39,4.11c0.31,0,0.63-0.01,0.95-0.02c14.49-0.49,22.07-12.34,22.88-13.69l0.12-0.21v-14.41l-1.02,0.2
	C53.7,335.13,49.2,334.69,46.11,332.69z"/>
<path class="Colour3 fill" d="M463.09,360.82c0.3,0.01,0.6,0.02,0.9,0.02c6.32,0,11.34-2.24,14.45-4.12l0.35-0.21
	c2.43,1.46,4.94,2.83,7.58,4l0.35,0.16l0.01,0.07l0.3,0.07l0.67,0.3l-0.01-0.15l12.41,2.83v-1.06v-17.24v-0.68l0.19-0.15
	c-7.2-1.66-12.87-4.17-16.84-7.46l-1.9-1.57c-0.14-0.2-0.24-0.4-0.38-0.6c-0.87-0.97-1.52-1.8-2.02-2.63
	c-1.98-3.22-2.44-6.24-2.87-9.16c-0.24-1.62-0.48-3.08-0.91-4.55l-0.16-0.56l-0.58-0.05c-4.58-0.4-8.34,0.36-11.16,2.22
	c-2.57,1.7-3.63,3.81-4.65,5.86c-0.84,1.68-1.71,3.42-3.53,4.82l-0.06,0.05l-0.53,0.35c-3.09,2.01-7.56,2.45-13.58,1.29l-1.02-0.2
	v14.44l0.12,0.21C441.02,348.46,448.61,360.33,463.09,360.82z"/>
<path class="Colour3 fill" d="M447.97,423.31c1.29-0.58,2.48-0.7,4.29-0.89c1.49-0.15,3.54-0.36,6.41-0.96c3.26-0.68,6.48-1.63,9.56-2.83
	l1.08-0.42l-0.71-0.91c-1.59-2.03-4.45-4.74-9.05-6.12c-3.05-0.92-6.47-1.06-9.46-0.46c-0.31-1.07-0.96-4.25,1.38-7.05
	c2.31-2.77,5.72-3.14,7.08-3.17l1.03-0.03l-0.21-1.01c-0.41-1.96-1.66-5.67-5.49-8.48c-3.45-2.53-7.28-3.06-9.89-3.06
	c-1.39,0-2.51,0.15-3.2,0.27l-0.71,0.13v53.05l1.69-8.11C442.87,428.01,444.95,424.67,447.97,423.31z"/>
<path class="Colour3 fill" d="M454.34,468.22c2.11-1.8,3.8-3.95,5.03-6.39l0.1-0.2l-0.01-0.22c-0.16-4.41-3.07-8.36-7.4-10.06
	c-1.46-0.57-3.02-0.86-4.62-0.86c-3.44,0-6.16,1.34-6.91,1.75l-0.45,0.24v21.26l0.94-0.09
	C443.95,473.36,449.58,472.27,454.34,468.22z"/>
<path class="Colour3 fill" d="M469.89,600.01c-5.04-2.61-10.67-3.94-16.73-3.94c-5.68,0-10.26,1.18-12.49,1.88l-0.6,0.19v33.55l1.01-0.19
	c3.58-0.68,6.92-1.81,9.93-3.36c4.13-2.13,6.45-4.4,8.7-6.61c1.88-1.85,3.66-3.59,6.41-5.1c4.3-2.35,9.69-3.34,15.97-2.92l1.63,0.11
	l-0.83-1.4C480.74,608.61,476.74,603.56,469.89,600.01z"/>
<path class="Colour3 fill" d="M500.08,578.88v-0.59v-24.6v0v0l-0.02-0.2c-0.89-3.77-1.45-7.33-3.36-10.58c-2.03-3.46-4.58-6.55-7.58-9.2
	l-0.43-0.38l-0.51,0.26c-2.12,1.06-4.37,1.74-6.69,2.04c-3.27,0.42-6.68,0.04-9.88-1.11l-0.36-0.13l-0.34,0.19
	c-4.64,2.54-9.62,4.38-14.8,5.45c-3.63,0.75-7.39,1.13-11.16,1.13c-1.18,0-2.48-0.05-3.95-0.15l-0.92-0.06v20.56l0.98-0.15
	c10.18-1.5,18.34-0.36,24.05,3.4c3.54,2.33,5.46,5.11,7.32,7.81c2.14,3.11,4.17,6.04,8.39,7.82c2.16,0.91,4.59,1.37,7.22,1.37
	c3.68,0,7.83-0.9,12.35-2.67L500.08,578.88z"/>
<path class="Colour3 fill" d="M403.95,159.7l-0.08-0.61l-0.6-0.11c-5.69-1.01-8.97-0.67-9.9,1.13c-0.95,1.84,0.78,4.95,5.12,9.26
	l1.42,11.74l10.03,9.15l-0.67-2.7C407.08,178.75,405.29,169.38,403.95,159.7z"/>
<path class="Colour1 fill" d="M392.12,204.84c-1.67-0.75-3.66-1.16-5.6-1.16c-3.25,0-5.99,1.09-7.7,3.06c-1.25,1.44-1.54,2.91-1.8,4.21
	c-0.24,1.22-0.43,2.19-1.31,2.96c-2.17,1.91-6.8,0.85-13.78-3.1l-0.23-0.09c-5.23-1.18-8.08-1.05-8.86,0.48
	c-0.66,1.32,0.56,2.88,2.27,5.06c1.68,2.15,3.98,5.09,5.22,8.89c1.47,4.51,1.27,9.69-0.6,15.41l-0.66,2.01l41.51-22.44v-0.5
	C400.58,213.04,397.18,207.1,392.12,204.84z"/>
<path class="Colour1 fill" d="M210.85,259.94c-3.32-2.76-6.82-4.29-10.41-4.57c-3.3-0.26-5.7,0.67-8.05,1.57
	c-1.79,0.69-3.65,1.4-5.97,1.61c-1.17,0.11-2.36,0.08-3.57-0.09l-4.54-0.62l30.38,16.58l0.29-0.05c3.7-0.62,6.54-3.99,6.46-7.68
	C215.37,263.76,213.54,261.08,210.85,259.94z"/>
<path class="Colour1 fill" d="M258.64,194.46l-4.2,2.2l-9.2-4.88l0.05,1.45c0.18,5.5-0.92,9.33-3.25,11.39c-1.71,1.5-3.57,1.68-7.4,2.06
	c-1.52,0.15-3.42,0.34-5.69,0.67c-3.54,0.51-7.07,1.23-10.48,2.13c-4.33,0.11-6.88-0.54-7.37-1.87c-0.77-2.09,2.6-7.31,22.97-20.33
	l1.22-0.78l-8.63-4.58l-0.39,0.19c-4.46,2.2-8.81,3.09-12.89,2.64c-3.41-0.38-5.98-1.61-8.25-2.7c-2.7-1.29-5.21-2.51-8.73-2.25
	c-3.5,0.27-6.9,1.94-10.11,4.98c-1.47-3.79-4.17-6.65-7.48-7.92c-2.32-0.89-4.73-0.83-6.5,0.16c-2.79,1.55-4.46,5.61-4.2,10.15
	c-7.38,8.89-15.67,19.97-13.53,22.58c0.33,0.41,0.85,0.61,1.55,0.61c2.84,0,9.74-3.66,19.42-10.31
	c23.58,8.11,26.71,11.79,26.47,13.27c-0.18,1.14-2.81,3.07-18.31,3.2l-0.46,0l-0.24,0.39c-4.44,7.11-5.75,12.75-3.89,16.76
	c1.1,2.36,2.83,3.16,6.28,4.74c1.38,0.63,3.1,1.42,5.2,2.5c5.55,2.87,8.46,5.06,11.04,7c2.75,2.07,4.92,3.7,9.28,5.38
	c4.87,1.88,10.16,2.87,15.73,2.95l0.04,0l0.04,0c9.67-0.71,15.26-3.09,16.62-7.07c1.22-3.6-1.26-7.22-3.89-11.06
	c-2.59-3.79-5.28-7.7-4.09-11.55c0.88-2.86,3.37-3.98,6.53-5.42c3.35-1.52,7.15-3.23,10.61-7.48c3.47-4.25,5.53-9.82,6.14-16.62
	L258.64,194.46z"/>
<path class="Colour1 fill" d="M310.67,258.1c-0.34-1.04-0.55-2-0.75-2.89c-0.39-1.77-0.73-3.3-2-4.72c-1.2-1.34-2.9-2.19-5.04-2.54
	l-0.09-0.01l-0.09,0c-18.61,0.94-18.84,3.34-18.93,4.24c-0.18,1.83,3.04,3.41,8.37,5.81c3.47,1.56,7.79,3.5,7.58,4.76
	c-0.1,0.64-1.73,0.85-3.62,1.1c-3.59,0.47-9.01,1.18-13.54,5.38c-1.78,1.65-2.59,3.07-3.25,4.22c-0.71,1.24-1.22,2.14-2.63,2.77
	c-0.76,0.34-1.55,0.51-2.4,0.51c-2.92,0-6.02-2.04-8.78-3.85c-2.33-1.53-4.54-2.98-6.38-2.98c-0.52,0-0.99,0.11-1.41,0.34
	c-3.3,1.75-3.3,10.21,0.01,25.86l0.23,1.1l57.68-31.18l-0.72-0.8C312.93,263.01,311.5,260.61,310.67,258.1z"/>
<path class="Colour1 fill" d="M0.71,347.05l0.19-0.25c8.84-2.06,15.37-5.37,19.46-9.89c0.69-0.97,1.35-1.83,2.09-2.72
	c2.08-3.37,2.55-6.48,3-9.48c0.51-3.42,0.96-6.37,3.57-9.42c3.52-4.12,9.57-6.55,17.97-7.22l2.02-0.16l-1.53-1.34
	c-7.18-6.29-14.15-9.27-20.65-8.85c-2.81,0.18-5.12,0.92-7.35,1.65c-2.21,0.72-4.3,1.4-6.61,1.4c-0.92,0-1.82-0.11-2.71-0.31
	l-7.93-2.4l-1.52,0.67h0v47.26h0V347.05z"/>
<path class="Colour1 fill" d="M48.75,641.5c-4.89,1.69-7.92,3.67-10.14,5.12c-2.27,1.49-3.81,2.48-5.81,2.16
	c-2.89-0.48-4.12-3.2-5.68-6.64c-1.68-3.71-3.59-7.92-8.17-10.8c-4.54-2.86-10.77-3.67-18.38-2.41l0.14,0.12v0.73h0v51.3h0v0.64
	l-0.24,0.18c0.08,0.02,0.16,0.04,0.24,0.06v21.95h0v0.86h34.53l0.17-0.63c0.84-3.12,2.46-5.98,4.67-8.26
	c5.77-5.97,13.92-6.86,18.27-6.86c0.59,0,1.09,0.02,1.45,0.04l0.9,0.05v-35.14v-0.98V639l-0.94,0.1
	C55.93,639.49,52.22,640.29,48.75,641.5z"/>
<path class="Colour1 fill" d="M35.16,564.73c-3.69,2.42-5.69,5.31-7.45,7.86l-0.51,0.74l0.76,0.48c6.96,4.38,14.51,7.66,22.44,9.75
	c2.98,0.79,6.12,1.42,9.33,1.88l0.98,0.14v-24.26l-0.73-0.11C49.51,559.65,41.1,560.84,35.16,564.73z"/>
<path class="Colour1 fill" d="M34.11,482.55c-3.17,1.81-4.58,4.33-6.08,7.01c-1.33,2.38-2.84,5.07-5.85,7.63
	c-5.03,4.27-12.26,6.52-21.48,6.68l0.01,0.01v0.84h0v46.8l0,0v5.51l0.82-5.25c0.86-2.69,1.99-5.24,3.37-7.58
	c1.97-3.35,4.44-6.35,7.35-8.92c2.2,1.09,4.53,1.79,6.94,2.1c3.14,0.4,6.44,0.08,9.61-0.94l1.85-0.59l-1.69-0.97
	c-3.51-2.01-6.78-4.4-9.74-7.12c5.32,0.33,10.09-0.38,14.23-2.08c2.87-1.18,4.74-2.52,6.56-3.81c2.01-1.44,3.91-2.79,6.85-3.46
	c3.82-0.86,8.11-0.29,12.66,1.69l1.2,0.52V510.6l-1,0.18c-4.53,0.79-9.11,0.43-13.34-1.03c-5.83-2.01-9.38-5.58-11.07-7.69
	c1.13-1.96,4.12-6.15,10.01-8.45c2.53-0.98,5.22-1.48,8.01-1.48c2.7,0,4.92,0.47,6.31,0.86l1.09,0.31v-8.21l-0.53-0.22
	C48.65,480.05,39.84,479.28,34.11,482.55z"/>
<path class="Colour1 fill" d="M29.72,373.63c-2.47,0.79-5.05,1.4-7.67,1.8l-0.3,0.11c-0.43,0.25-4.24,2.58-4.36,6.8
	c0.07,0.44,0.11,0.89,0.15,1.46c0.61,2.96,3.03,5.43,6.33,6.45l0.18,0.03c0.72,0.06,1.42,0.09,2.12,0.09c3.19,0,6.12-0.59,8.7-1.77
	c2.78-1.26,4.38-2.85,5.79-4.25c1.28-1.27,2.49-2.48,4.43-3.34c3.63-1.61,8.54-1.3,14.46,0.91l1.15,0.43v-35.99l-1.59,2.71
	C54.1,357.58,44.93,368.75,29.72,373.63z"/>
<path class="Colour1 fill" d="M455.7,379.8c1.93,0.86,3.08,2,4.43,3.34c1.48,1.48,3.01,3,5.79,4.26c2.57,1.17,5.49,1.77,8.68,1.77
	c0.73,0,1.47-0.03,2.23-0.09l0.18-0.04c3.2-1,5.65-3.52,6.26-6.58c0.02-0.44,0.06-0.88,0.14-1.49c-0.14-3.97-3.67-6.24-4.37-6.66
	l-0.3-0.11c-2.63-0.4-5.21-1.01-7.67-1.8c-15.2-4.89-24.38-16.09-29.39-24.63l-1.59-2.71v36.07l1.15-0.43
	C447.15,378.5,452.06,378.19,455.7,379.8z"/>
<path class="Colour1 fill" d="M450.39,582.84c7.93-2.1,15.48-5.39,22.44-9.78l0.76-0.48l-0.51-0.74c-1.76-2.56-3.76-5.46-7.45-7.88
	c-5.94-3.9-14.33-5.1-24.81-3.53l-0.73,0.11v24.31l0.98-0.14C444.28,584.26,447.42,583.63,450.39,582.84z"/>
<path class="Colour1 fill" d="M500.08,681.24v-0.64v-0.34v-51.08v-0.73l0.14-0.12c-7.62-1.27-13.85-0.45-18.39,2.41
	c-4.58,2.89-6.48,7.1-8.17,10.83c-1.56,3.45-2.79,6.17-5.68,6.65c-2,0.33-3.52-0.67-5.81-2.16c-2.21-1.45-5.25-3.43-10.14-5.13
	c-3.48-1.21-7.19-2.02-11.02-2.41l-0.94-0.1v14.02v0.98v35.22l0.9-0.05c0.36-0.02,0.85-0.04,1.43-0.04c4.35,0,12.52,0.89,18.3,6.87
	c2.31,2.4,3.96,5.4,4.77,8.69l0.16,0.65h34.44v-0.86v-22.44c0.08-0.02,0.16-0.04,0.24-0.06L500.08,681.24z"/>
<path class="Colour1 fill" d="M453.94,517.54c2.94,0.67,4.84,2.03,6.85,3.47c1.81,1.29,3.68,2.63,6.55,3.82c4.15,1.71,9,2.41,14.23,2.08
	c-2.97,2.74-6.25,5.14-9.79,7.16l-1.68,0.96l1.84,0.6c3.13,1.02,6.43,1.33,9.65,0.92c2.41-0.31,4.74-1.02,6.94-2.11
	c2.9,2.57,5.38,5.58,7.35,8.94c1.38,2.35,2.52,4.91,3.37,7.62l0.82,5.28v-5.54v-46.93v-0.84l0.01-0.01
	c-9.23-0.15-16.46-2.41-21.49-6.69c-3.01-2.57-4.52-5.27-5.86-7.66c-1.5-2.67-2.91-5.2-6.08-7.02c-5.73-3.28-14.54-2.5-26.07,2.32
	l-0.53,0.22v8.23l1.09-0.31c1.39-0.4,3.61-0.87,6.32-0.87c2.78,0,5.48,0.5,8,1.49c5.89,2.3,8.88,6.5,10.01,8.47
	c-1.69,2.11-5.23,5.69-11.07,7.71c-4.19,1.45-8.88,1.81-13.35,1.04l-1-0.18v10.05l1.2-0.52
	C445.84,517.25,450.13,516.68,453.94,517.54z"/>
<path class="Colour1 fill" d="M155.04,184.84c1.36-0.7,2.9-1.5,4.47-3.33c0.92-1.08,1.69-2.33,2.28-3.72l0.21-0.5l-0.37-0.4
	c-2.1-2.26-4.42-4-6.9-5.17c-1.13-0.54-2.14-0.88-3.03-1.19c-1.64-0.56-2.93-1.01-4-2.31c-1.08-1.32-1.65-3.16-1.7-5.47l-0.01-0.41
	l-0.33-0.25c-1.68-1.27-2.9-2.79-3.63-4.5l-0.1-0.24l-0.22-0.14c-8.28-5.38-15.37-7.12-20.91-5.15c-3.16,1.12-5.16,3.11-7.26,5.2
	c-2.26,2.25-4.59,4.57-8.49,5.57c-1.22,0.31-2.5,0.47-3.81,0.47c-0.97,0-2.05-0.12-3.3-0.36l-0.85-0.16l-0.14,0.86
	c-1.96,12.12-4.64,23.7-7.97,34.42l-0.42,1.35l1.39-0.27c2.05-0.41,3.89-0.83,5.63-1.29c8.68-2.31,17.05-5.86,24.78-10.5
	c4.01-1.76,7.55-2.14,10.46-1.12c2.02,0.71,3.21,1.88,4.72,3.37c1.24,1.22,2.64,2.6,4.83,4.01c2.65,1.71,5.58,2.97,8.7,3.75
	l1.13,0.28l-0.09-1.16c-0.36-4.76,0.44-8.12,2.38-9.97C153.25,185.77,154.12,185.32,155.04,184.84z"/>
<path class="Colour1 fill" d="M409.66,189.14l-0.06-0.25l-8.95-8.16l-1.42-11.72l-0.21-0.21c-5.33-5.28-5.39-7.48-4.96-8.32
	c0.67-1.31,3.86-1.61,8.79-0.77l1.13,0.19l-0.15-1.14c-0.2-1.45-0.38-2.9-0.56-4.35l-0.11-0.88l-0.87,0.15
	c-5.9,0.99-11.78,0.7-17.34-0.87c-4.28-1.2-8.34-3.14-12.05-5.76l-0.3-0.13c-3.09-0.7-5.72-0.43-7.74,0.79
	c-2.07,1.25-2.88,3.09-3.74,5.04c-0.63,1.43-1.34,3.05-2.65,4.56c-0.65,0.75-1.45,1.45-2.38,2.07l-0.56,0.38l-0.25,0.14
	c-2.03,1.17-4.55,1.93-7.56,2.26c-3.23,0.74-6.72,0.62-9.93-0.34c-2.7-0.81-5.31-2.26-7.53-4.2l-0.43-0.38l-4.95,2.59l-0.12,0.29
	c-2.4,5.87-2.72,9.75-0.96,11.87c1.31,1.58,3.49,1.79,5.24,1.96c1.38,0.13,2.3,0.26,2.44,0.73c0.15,0.49-0.29,1.76-4.85,4.77
	c-5.89,0.73-11.29-2.08-12.81-6.55c-0.58-1.71-0.6-3.61-0.04-5.66l0.5-1.86l-23.52,12.3l-0.01,0.51c-0.03,2.68-0.13,5.4-0.31,8.1
	l-0.08,1.11c-0.21,2.78-0.48,5.46-0.81,7.97c-0.77,5.86-1.93,11.78-3.45,17.61l-0.11,0.43l0.3,0.34c3.2,3.66,6.63,5.68,10.17,6.01
	c2.22,0.21,3.81-0.3,5.52-0.85c1.08-0.34,2.3-0.73,3.78-0.96c4.1-0.61,8.58,0.34,13.28,2.8l2.45,1.29l-1.32-2.44
	c-3.05-5.62-7.21-11.38-12.39-17.22l-0.11-1.24c-0.89-9.66,0.32-15.64,3.58-17.75c0.88-0.57,1.85-0.84,2.99-0.84
	c2.25,0,4.79,1.07,7.5,2.21c3.05,1.28,6.21,2.6,9.36,2.6c1.67,0,3.18-0.37,4.6-1.12c3.75-1.99,5.5-5.99,6.9-9.21
	c1.19-2.72,2.13-4.64,3.55-4.64h0c1.6,0.08,2.7,2.55,3.87,5.16c1.48,3.32,3.16,7.09,6.5,7.7c1.84,0.34,3.14-0.55,4.67-1.6
	c0.95-0.66,1.91-1.29,3.13-1.84l0.2-0.09l0.59-0.22c4.95-1.85,11.32-0.79,18.78,3.11c2.88,3.88,6.1,7.52,9.57,10.82
	c6.17,5.86,13.27,10.78,21.12,14.62l1.86,0.91l-0.7-1.95C413.45,202.69,411.41,196,409.66,189.14z"/>
<path class="Colour1 fill" d="M471.77,313.92c2.61,3.06,3.06,6.02,3.57,9.45c0.45,3.01,0.91,6.12,3.07,9.6c0.67,0.79,1.33,1.65,2.08,2.7
	c4.03,4.46,10.56,7.77,19.4,9.84l0.19,0.25v-1.08v-45.8l-3.58-1.47l-5.83,1.62c-0.92,0.22-1.82,0.32-2.74,0.32
	c-2.32,0-4.41-0.68-6.63-1.4c-2.23-0.72-4.55-1.47-7.35-1.65c-6.55-0.39-13.5,2.6-20.65,8.88l-1.52,1.34l2.02,0.16
	C462.19,307.36,468.24,309.79,471.77,313.92z"/>
<path class="Colour2 fill" d="M209.75,273.37l-1.89,0.59l5.04,2.75l0.2,0.08c6.12,1.55,11.4,2.33,15.69,2.33
	c6.14,0,10.45-1.61,12.84-4.77c1.76-2.34,2.17-5.04,2.56-7.66c0.47-3.08,0.87-5.75,3.33-7.44c1.07-0.74,2.2-1.07,3.66-1.07
	c0.87,0,1.8,0.11,2.79,0.23c1.1,0.13,2.34,0.29,3.67,0.29c1.76,0,3.42-0.27,5.07-0.81c3.57-1.19,6.8-3.58,9.58-7.11l0.46-0.58
	l-0.51-0.53c-1.89-1.95-8.74-8.33-17.55-8.33c-1.23,0-2.46,0.13-3.66,0.38c-2.79,0.58-5.46,1.84-7.93,3.72l-0.4,0.31l0.08,0.5
	c0.16,0.98,0.1,1.86-0.18,2.67c-1.26,3.7-6.48,5.84-15.89,6.53c-5.5-0.07-10.72-1.05-15.5-2.89c-4.25-1.64-6.49-3.33-9.08-5.28
	c-2.59-1.95-5.53-4.16-11.15-7.06c-2.12-1.1-3.85-1.89-5.23-2.52c-3.38-1.55-4.92-2.26-5.89-4.35c-1.66-3.57-0.54-8.67,3.34-15.15
	l1.21-2.03l-2.22,0.8c-5.11,1.84-9.25,4.59-12.3,8.17c-1.6,1.87-2.64,3.64-3.65,5.37c-1.32,2.24-2.68,4.56-5.29,6.96
	c-2.26,2.08-4.95,3.74-8.01,4.94l-1.68,0.66l28.27,15.41c2.42,0.77,4.75,1.06,6.99,0.86c2.45-0.23,4.36-0.96,6.25-1.69
	c2.23-0.85,4.53-1.74,7.65-1.49c3.4,0.26,6.73,1.73,9.91,4.35l0.2,0.12c2.46,1.09,4.09,3.48,4.15,6.09
	C214.71,269.66,212.65,272.46,209.75,273.37z"/>
<path class="Colour2 fill" d="M146.91,219.08l-0.3-0.18c-4.83-1.61-10.05-2.07-15.05-1.32c-4.96,0.75-9.82,2.71-14.04,5.68l-1.11,0.78
	l27.45,14.99l0.25-1.08c0.47-2.06,1.19-3.96,2.15-5.65c0.78-1.39,1.56-2.39,2.2-3.2c0.96-1.23,1.72-2.2,1.83-3.67
	C150.45,223.43,149.31,221.29,146.91,219.08z"/>
<path class="Colour2 fill" d="M302.18,248.63l1.08,0.22c1.68,0.35,3.01,1.05,3.97,2.07l0.17,0.18l0.11,0.03l0.46,0.77
	c0.64,1.05,0.9,2.23,1.18,3.48c0.2,0.92,0.41,1.88,0.77,2.96c0.89,2.69,2.43,5.24,4.58,7.58l0.44,0.48l36.3-19.62l-2.34-0.44
	c-6.48-1.22-12.03-3.81-16.49-7.68l-0.17-0.12c-0.08-0.04-0.14-0.07-0.22-0.1l-1.69-1.75c-4.42-4.58-6.51-9.38-7.63-11.96l-0.17-0.4
	c-0.48-1.1-1.01-2.2-1.56-3.28l-0.11-0.22l-0.22-0.12c-5.28-3.05-10.36-4.25-15.01-3.56c-1.55,0.23-2.8,0.63-3.91,0.99
	c-1.63,0.52-3.15,1-5.21,0.81c-3.19-0.3-6.31-2.08-9.26-5.31l-0.41-0.45l0.13-0.5c1.48-5.73,2.61-11.53,3.36-17.23
	c0.72-5.48,1.12-11.13,1.2-16.8l0.02-1.41l-33.7,17.62l0,2.16c-0.17,1.87-0.47,3.74-0.91,5.55l-0.29,1.2l1.22-0.17
	c12.32-1.7,19.62-0.51,21.78,3.57c1.19,2.24,0.57,4.91-0.16,8c-0.85,3.65-1.82,7.79-0.61,13.01c0.16,0.69,0.37,1.4,0.66,2.25
	l0.74,2.13l0.07-0.17c1.22,2.7,2.96,5.25,5.22,7.58l-0.45,1.11l1.43-0.18c9.96-1.26,15.71-0.45,16.87,2.28
	c0.46,1.09,0.21,2.58-0.74,4.45L302.18,248.63z"/>
<path class="Colour2 fill" d="M325.92,159.28l-12.53,6.55l-0.11,0.32c-0.6,1.72-1.11,4.34-0.21,6.99c1.47,4.31,6.15,7.21,11.66,7.21
	c0.66,0,1.33-0.04,1.99-0.13l0.19-0.02l0.16-0.11c5.07-3.34,5.42-4.77,5.17-5.65c-0.3-1.02-1.61-1.14-3.12-1.29
	c-1.69-0.16-3.6-0.35-4.71-1.68c-1.43-1.73-1.19-5.13,0.72-10.11L325.92,159.28z"/>
<path class="Colour2 fill" d="M0.71,391.77l0.16,0.22c0.72,1.03,1.47,2.87,4.14,3.72c0.91,0.29,1.86,0.44,2.82,0.44
	c2.45,0,4.33-0.95,5.08-1.4c1.43-1.02,3.99-3.29,5.07-7.1c0.36-1.28,0.52-2.62,0.45-4.11c-0.09-0.45-0.13-0.86-0.12-1.32
	c0.12-3.66,3.58-5.7,3.81-5.86c2.68-0.41,5.34-1.03,7.89-1.84c10.81-3.47,19.91-10.37,27.04-20.52l-1.3-1.1
	c-3.59,3.6-9.64,7.95-18.08,8.24c-6.67,0.25-11.96-2.16-15.16-4.16l-0.44-0.28l-0.45,0.27c-2.63,1.58-5.38,2.99-8.09,4.17
	l-12.81,2.93v0.69h0v26.72l0,0V391.77z"/>
<path class="Colour2 fill" d="M56.24,583.91l-0.32-0.06l-1.38,0.84c-8.02,5.64-16.1,8.71-24,9.14c-1.9,0.1-3.77,0.06-6.31,0
	c-3.29-0.08-7.4-0.17-13.62,0l-9.91,0.06v0.85h0v34.24h0v1.01l0.14-0.16c7.32-1.2,13.3-0.42,17.61,2.29
	c4.34,2.73,6.18,6.8,7.81,10.39c1.61,3.55,3,6.61,6.37,7.17c0.33,0.06,0.64,0.08,0.95,0.08c1.88,0,3.41-1,5.52-2.38
	c2.17-1.42,5.15-3.36,9.94-5.02c3.45-1.19,7.11-1.99,10.88-2.36l0.77-0.08v-8.61L60,631.2c-3.53-0.65-6.83-1.76-9.81-3.29
	c-4.02-2.07-6.28-4.29-8.49-6.44c-1.93-1.89-3.75-3.67-6.6-5.22c-4.4-2.4-9.97-3.43-16.33-3.03c2.18-3.62,6.06-8.34,12.55-11.7
	c4.9-2.54,10.39-3.82,16.3-3.82c5.43,0,9.84,1.1,11.98,1.76l1.1,0.34v-15.14l-0.74-0.11C58.72,584.36,57.48,584.14,56.24,583.91z"/>
<path class="Colour2 fill" d="M46.64,517.51c-3.12,0.7-5.09,2.11-7.19,3.61c-1.69,1.2-3.6,2.57-6.37,3.71c-4.07,1.67-8.81,2.35-14.03,2
	l-2.42-0.16l1.78,1.65c3.25,3.01,6.89,5.64,10.95,7.87c4.76,2.61,9.85,4.49,15.12,5.58c3.65,0.76,7.45,1.14,11.29,1.14
	c1.36,0,2.75-0.05,4.12-0.14l0.8-0.06v-23.09l-0.51-0.23C55.34,517.21,50.74,516.58,46.64,517.51z"/>
<path class="Colour2 fill" d="M34.19,443.49c-1.43,2.93-5.79,10.14-15.41,13.76c-5.57,2.09-11.86,2.53-17.89,1.24l-0.18-0.22v1.06h0v44.6
	h0v0.87l0.01-0.02c9.44-0.16,16.86-2.48,22.06-6.89c3.14-2.66,4.62-5.31,6.07-7.89c1.49-2.66,2.79-4.96,5.73-6.65
	c5.4-3.09,13.9-2.32,24.95,2.24l1.18,0.49v-12.31l-0.77-0.08c-2.84-0.27-8.3-1.31-12.89-5.2c-2.01-1.71-3.62-3.75-4.79-6.07
	c0.16-4.02,2.82-7.62,6.81-9.18c1.34-0.53,2.77-0.79,4.25-0.79c2.77,0,5.04,0.91,6.15,1.45l1.23,0.6v-9.29l-26.26-2.26L34.19,443.49
	z"/>
<polygon class="Colour2 fill" points="76.02,703.92 99.65,703.92 99.65,588.48 76.02,555.23 "/>
<path class="Colour2 fill" d="M75.95,346.3c-0.1-0.14-0.27-0.2-0.44-0.15c-0.16,0.05-0.28,0.2-0.28,0.37v164.76
	c0,0.08,0.03,0.16,0.07,0.23l24.41,33.51c0.07,0.1,0.19,0.16,0.32,0.16c0.04,0,0.08-0.01,0.12-0.02c0.16-0.05,0.27-0.2,0.27-0.37
	V382.6c0-0.08-0.02-0.15-0.07-0.22L75.95,346.3z"/>
<polygon class="Colour2 fill" points="401.14,703.92 424.77,703.92 424.77,554.44 401.14,587.77 "/>
<path class="Colour2 fill" d="M444.99,542.08c3.84,0,7.64-0.38,11.3-1.14c5.23-1.08,10.28-2.94,15.11-5.59l0.13-0.06
	c3.94-2.18,7.58-4.81,10.83-7.83l1.77-1.65l-2.41,0.16c-5.24,0.34-9.97-0.33-14.03-2c-2.77-1.14-4.68-2.51-6.37-3.72
	c-2.09-1.49-4.06-2.91-7.18-3.61c-4.09-0.93-8.7-0.3-13.56,1.88l-0.51,0.23v23.14l0.8,0.06
	C442.25,542.03,443.63,542.08,444.99,542.08z"/>
<path class="Colour2 fill" d="M476.48,593.14c-2.42,0.06-4.34,0.1-6.23,0c-7.9-0.43-15.99-3.52-24.07-9.21l-1.31-0.8l-0.32,0.06
	c-1.24,0.24-2.48,0.45-3.73,0.63l-0.73,0.11v15.18l1.11-0.34c2.15-0.66,6.55-1.76,11.98-1.76c5.91,0,11.39,1.29,16.3,3.84
	c6.49,3.36,10.36,8.1,12.55,11.73c-6.44-0.39-11.93,0.63-16.33,3.04c-2.86,1.57-4.68,3.36-6.61,5.25c-2.19,2.15-4.46,4.37-8.48,6.44
	c-2.97,1.53-6.27,2.64-9.81,3.3l-0.7,0.13v8.63l0.77,0.08c3.78,0.38,7.45,1.18,10.88,2.37c4.78,1.66,7.76,3.61,9.95,5.04
	c2.1,1.38,3.62,2.37,5.53,2.37c0.3,0,0.62-0.03,0.93-0.08c3.38-0.56,4.77-3.64,6.38-7.2c1.63-3.6,3.47-7.67,7.81-10.41
	c4.31-2.72,10.29-3.5,17.61-2.3l0.14,0.16v-1.01v-34.33v-0.85l-9.89-0.06C483.91,592.96,479.87,593.06,476.48,593.14z"/>
<path class="Colour2 fill" d="M482,456.23c-9.61-3.62-13.98-10.85-15.41-13.79l-0.26-0.53l-26.26,2.26v9.31l1.23-0.61
	c1.1-0.54,3.36-1.46,6.14-1.46c1.48,0,2.92,0.27,4.27,0.8c3.99,1.57,6.66,5.17,6.81,9.21c-1.17,2.33-2.78,4.37-4.79,6.09
	c-4.59,3.91-10.04,4.94-12.89,5.21l-0.77,0.07v12.34l1.18-0.49c11.05-4.57,19.55-5.34,24.95-2.24c2.94,1.68,4.23,3.99,5.73,6.67
	c1.44,2.57,2.93,5.23,6.06,7.9c5.2,4.43,12.62,6.75,22.06,6.91l0.01,0.02v-0.87v-44.71v-1.06l-0.18,0.22
	C493.94,458.77,487.59,458.33,482,456.23z"/>
<path class="Colour2 fill" d="M487.3,359.91c-2.77-1.21-5.5-2.62-8.12-4.19l-0.45-0.27l-0.44,0.28c-2.6,1.63-8.16,4.43-15.17,4.17
	c-8.44-0.29-14.49-4.65-18.08-8.26l-1.31,1.1c7.14,10.17,16.24,17.09,27.04,20.57c2.5,0.81,5.13,1.42,7.8,1.83
	c0.63,0.37,3.79,2.39,3.9,5.95c0.01,0.4-0.03,0.81-0.13,1.39c-0.05,1.37,0.1,2.71,0.46,3.99c1.08,3.81,3.66,6.11,5.16,7.17
	c0.69,0.4,2.54,1.34,4.99,1.34c0.96,0,1.9-0.15,2.82-0.44c2.68-0.86,3.43-2.71,4.15-3.75l0.15-0.22v-0.27v-26.78v-0.69L487.3,359.91
	z"/>
<path class="Colour2 fill" d="M425.27,344.86c-0.17-0.05-0.34,0.01-0.44,0.16l-24.41,36.17c-0.04,0.06-0.07,0.14-0.07,0.22v162.58
	c0,0.17,0.11,0.32,0.27,0.37c0.04,0.01,0.08,0.02,0.12,0.02c0.12,0,0.24-0.06,0.32-0.16l24.41-33.59c0.05-0.07,0.07-0.15,0.07-0.23
	V345.23C425.55,345.06,425.44,344.91,425.27,344.86z"/>
<path class="Colour2 fill" d="M104.75,216.84c4.87-6.76,10.13-10.64,15.63-11.54c1.84-0.3,3.92-0.22,5.84-0.08
	c0.95,0.07,1.88,0.14,2.82,0.14c2.14,0,3.91-0.35,5.73-1.14c3.51-1.52,6.51-4.44,8.92-8.69l0.44-0.77l-0.79-0.4
	c-0.98-0.49-1.8-0.96-2.53-1.43c-2.13-1.37-3.5-2.72-4.71-3.92c-1.51-1.48-2.81-2.76-5-3.54c-3.09-1.09-6.77-0.75-11.09,1.16
	c-7.73,4.64-16.01,8.15-24.62,10.44c-1.82,0.49-3.81,0.93-6.06,1.37l-0.49,0.1l-0.15,0.48c-0.78,2.49-1.65,5.04-2.56,7.6l-0.24,0.68
	l18.44,10.16L104.75,216.84z"/>
<path class="Colour2 fill" d="M108.31,133.86c0.99-0.08,1.99-0.12,2.98-0.12c11.09,0,19.62,5.16,23.68,8.21c2.55,2.08,4.2,4.42,4.92,6.94
	c0.42,1.47,0.46,2.72,0.5,3.95c0.04,1.49,0.09,3.03,0.85,4.92c0.74,1.83,1.99,3.45,3.72,4.81l0.73,0.57l0.5-0.78
	c1.93-3.01,4.12-4.83,6.49-5.43c1.5-0.38,3.08-0.16,4.52,0.12c1.65,0.31,3.51,0.51,5.16-0.13c2.07-0.8,3.8-2.57,5.13-5.23l0.59-0.83
	l-66.96-35.47l-0.03,1.36c-0.13,5.96-0.4,11.87-0.79,17.57l-0.08,1.2l1.16-0.34C103.72,134.49,106.06,134.05,108.31,133.86z"/>
<path class="Colour2 fill" d="M134.88,123.54l119.56,63.26l116.84-61.02l28.62-15.15c0-4.27,0.06-8.47,0.18-12.57l-29.4,14.25
	l-116.17,60.88c-0.07,0.03-0.14,0.05-0.21,0.05c-0.07,0-0.14-0.02-0.21-0.05l-119.64-63.82l-32.74-17.49
	c0.17,4.73,0.27,9.57,0.29,14.5L134.88,123.54z"/>
<path class="Colour2 fill" d="M329.07,157.64l0.96,0.81c2.26,1.9,4.86,3.33,7.53,4.13c1.89,0.57,3.85,0.85,5.83,0.86c0,0,0,0,0,0
	c1.54,0,3.07-0.17,4.46-0.49c4.96-0.54,8.73-2.26,11.21-5.11c1.39-1.59,2.1-3.2,2.78-4.76c0.84-1.91,1.57-3.56,3.42-4.68
	c1.17-0.7,2.57-1.06,4.16-1.06c0.96,0,1.99,0.13,2.95,0.32c3.8,2.69,7.95,4.69,12.36,5.93c5.69,1.6,11.71,1.89,17.73,0.88l0.79-0.13
	l-0.09-0.8c-1.2-10.15-1.96-20.77-2.26-31.57l-0.04-1.33l-28.37,14.33L329.07,157.64z"/>
<path class="Colour2 fill" d="M415.91,222.27l-161.39,86.57c-0.07,0.04-0.14,0.05-0.21,0.05c-0.07,0-0.14-0.02-0.21-0.05l-0.01-0.01
	l-0.01,0L88.63,219.7l-4.53-2.5c-1.08,2.5-2.19,4.89-3.35,7.17c-0.65,1.28-1.34,2.64-2.08,4.08l175.76,94.33l170.4-90.68
	c-1.99-3.82-3.85-7.71-5.55-11.68L415.91,222.27z"/>
<path class="Colour2 fill" d="M473.95,296.38c2.79,0.18,5.1,0.92,7.33,1.65c3.03,0.98,5.88,1.91,9.39,1.08l5.94-1.65
	c-8.34-3.54-15.8-7.63-22.51-12.1c-0.02-0.01-0.03-0.02-0.05-0.03l-16.21,16.41C463.41,297.85,468.82,296.04,473.95,296.38z"/>
<path class="Colour2 fill" d="M19.5,299.43c2.23-0.72,4.54-1.47,7.33-1.64c5.14-0.34,10.53,1.47,16.09,5.32l-16.87-17.03
	c-0.91,0.58-1.84,1.16-2.78,1.72c-8.35,5.02-15.94,8.3-21.47,10.4l8.31,2.31C13.62,301.33,16.48,300.41,19.5,299.43z"/>
<path class="NeckAndArmTrim fill" d="M500.08,313.25c-14.18-4.41-26.17-10.21-36.36-16.69c-108.93-69.26-76.31-257.02-72.35-278.17l18.83,5.57
	c-5.05,27.42-33.9,196.19,63.91,261.38c7.63,5.08,16.23,9.68,25.98,13.53C500.08,303.67,500.08,308.46,500.08,313.25"/>
<path class="NeckAndArmTrim fill" d="M0.71,313.25v-7.91v-6.73c5.6-2.07,13.67-5.47,22.57-10.82c32.56-19.58,46.78-47.61,54.66-63.14
	c20.03-39.48,29.25-112.46,13.01-201.12l17.54-5.14c3.87,21.26,36.18,212.31-72.83,279.39C25.77,303.87,14.24,309.23,0.71,313.25"/>
<path class="NeckAndArmTrim fill" d="M169.37,0.55c-0.04,7.29,0.55,17.88,3.63,30.23c3.73,14.94,12.14,48.63,43.08,64.45
	c14.75,7.54,29,8.14,34.48,8.15c4.12,0.01,22.43-0.3,40.16-11.15c28.16-17.22,34.53-48.55,37.87-65
	c2.24-11.02,2.58-20.35,2.48-26.68l15.95,4.72c-1.68,47.51-23.15,87.11-53.74,102.42c-20.76,10.39-42.38,11-42.38,11
	s-19.96,1.27-38.43-6.68c-37.3-16.06-59.73-57.56-59.22-106.74L169.37,0.55z M331.08,0.55c-2.53,4.76-7.06,12.02-14.78,19.03
	c-22.48,20.41-52.62,21.1-65.45,21.39c-12.24,0.28-28.9,0.66-47.26-8.35c-20.24-9.94-30.36-25.31-34.23-32.07
	c-0.77,13.4,3.63,30.23,3.63,30.23c7.63,5.76,36.5,26.15,79.21,25.58c40.5-0.54,67.74-19.6,75.66-25.58
	C327.87,30.78,331.57,15.52,331.08,0.55z"/>
<path class="st0" d="M290.49,92.23c-17.74,10.84-36.04,11.15-40.16,11.15c-5.48-0.01-19.73-0.61-34.48-8.15
	c-30.93-15.82-39.35-49.51-43.08-64.45c7.63,5.76,36.5,26.15,79.21,25.58c40.5-0.54,67.74-19.6,75.66-25.58
	C324.05,47.87,316.74,76.18,290.49,92.23z"/>
<g id="FBodyLogos"></g>
<g>
	<line class="st1" x1="0.71" y1="686.92" x2="500.08" y2="686.92"/>
	<line class="st1" x1="0.71" y1="693.38" x2="500.08" y2="693.38"/>
	<path class="st1" d="M169.51,7.75c5.07,7.06,15.92,20.1,34.49,29.05c19.02,9.17,36.04,9.18,47.09,9.07
		c11.51-0.12,30.57-0.54,50.72-11.83c15.2-8.51,24.45-19.53,29.29-26.28"/>
	<path class="st1" d="M0.71,302.4c9.93-3.58,18.68-7.91,26.42-12.67c106.25-65.38,74.96-241.1,69.78-269.65"/>
	<path class="st1" d="M103.48,18.16c4.03,20,35.48,202.46-66.5,273.39c-9.89,6.88-22.05,12.49-36.27,17.01"/>
	<path class="st1" d="M404.8,19.41c-5.69,32.08-34.51,205.88,70.21,272.46c7.37,4.69,15.68,7.94,25.08,11.04"/>
	<path class="st1" d="M397.96,17.38c-4.16,23.35-37.43,209.19,69.36,276.06c9.36,5.86,20.19,11.07,32.76,15.12"/>
	<path class="st1" d="M157.91,4.84c0.5,47.7,21.97,87.69,57.12,103.38c17.82,7.95,37.07,6.68,37.07,6.68s20.86-0.61,40.88-11
		c28.67-14.88,46.81-52.69,49.43-98.41"/>
	<path class="st1" d="M163.77,3.12c0.54,13.13,5.49,74.6,49.83,97.06c16.44,8.32,33.82,9.02,34.63,9.05
		c30.98,0.96,52.82-16.27,56.63-20.22c21.32-22.09,24.8-40.96,30-64.61c1.83-8.33,2.15-15.64,2.39-21.09"/>
	<path class="st1" d="M171,19.51c6.28,7.09,16.36,16.3,31.16,23.13c19.77,9.12,37.47,9.13,48.96,9.02
		c11.96-0.12,31.78-0.54,52.73-11.77c11.85-6.35,20.22-14.1,25.79-20.41"/>
</g>
</svg>
