<?xml version="1.0" encoding="utf-8"?>
<!-- Generator: Adobe Illustrator 19.1.0, SVG Export Plug-In . SVG Version: 6.00 Build 0)  -->
<svg version="1.1" id="Layer_1" xmlns="http://www.w3.org/2000/svg" xmlns:xlink="http://www.w3.org/1999/xlink" x="0px" y="0px"
	 viewBox="0 0 500 706" style="enable-background:new 0 0 500 706;" xml:space="preserve">
<style type="text/css">
	<![CDATA[
	@font-face{font-family:'codaheavy';src:url('/fonts/coda-heavy-webfont.woff') format('woff')}
	text{font-family:Impact,codaheavy,sans-serif}
	.Colour1.fill{fill:#0E1D3C;}
	.Colour2.fill{fill:#21428B;}
	.Colour3.fill{fill:#FFFFFF;}
	.Colour4.fill{fill:#143151;}
	.NeckAndArmTrim.fill{fill:#143151;}
	.st0{fill:#FFFFFF;}
	.st1{fill:none;stroke:#FFFFFF;stroke-width:0.5;stroke-miterlimit:10;stroke-dasharray:4,2.4;}
	]]>
</style>
<path class="Colour1 fill" d="M1.86,706.14h498.29V299.51c-7.76-2.92-15.22-6.52-22.18-10.72c-32.81-19.76-47.28-48.32-55.05-63.67
	c-17.74-35.04-30.51-106.33-13.24-201.47L332.53,1c-5.71,9.78-16.23,23.03-34.3,31.92c-15.44,7.59-29.78,8.57-40.55,8.57
	c-2.52,0-4.91-0.05-7.16-0.11c-12.97-0.3-43.34-0.99-66.09-21.68c-5.9-5.36-10.82-11.65-14.64-18.69L91.99,24.08
	c8.53,46.9,37.61,203.84-64.5,262.24c-8.22,4.7-16.5,9.78-25.63,13.44V706.14z"/>
<path class="Colour1 fill" d="M477.38,705.9c0,0-37.39-41-54.04-88.63c0,0,2.51,54.25,26.31,88.55L477.38,705.9z"/>
<path class="Colour1 fill" d="M21.94,705.9c0,0,37.39-41,54.04-88.63c0,0-2.51,54.25-26.31,88.55L21.94,705.9z"/>

<g>
	<path class="Colour4 fill" d="M394.21,368.51c-2.61,4.62-5.07,9.33-7.35,14.14c-4.13,8.72-7.52,17.74-10.3,26.96l-126.9,48.37
		l-126.91-48.37c-2.78-9.22-6.17-18.24-10.3-26.96c-2.28-4.81-4.73-9.52-7.35-14.14l144.56,59.51L394.21,368.51z"/>
	<path class="Colour4 fill" d="M369.72,439.7c-1.79,11.02-2.87,22.17-3.41,33.31c-0.03,0.56-0.06,1.1-0.07,1.66l-116.57,44.43
		l-116.57-44.43c-0.02-0.56-0.05-1.1-0.07-1.66c-0.54-11.14-1.62-22.29-3.41-33.31l120.06,49.43L369.72,439.7z"/>
	<path class="Colour4 fill" d="M367.33,535.35L249.66,580.2l-117.67-44.85c0.83-10.97,1.36-21.96,1.5-32.95l116.17,47.84l116.16-47.84
		C365.97,513.39,366.5,524.38,367.33,535.35z"/>
	<path class="Colour4 fill" d="M374.56,593.7l-124.9,47.61L124.75,593.7c1.77-10.6,3.33-21.24,4.61-31.89l120.3,49.53l120.29-49.53
		C371.23,572.47,372.79,583.1,374.56,593.7z"/>
	<path class="Colour4 fill" d="M386.03,650.44l-136.37,51.98l-136.38-51.98c2.43-10.4,4.71-20.84,6.8-31.34l129.58,53.35l129.57-53.35
		C381.33,629.6,383.61,640.04,386.03,650.44z"/>
	<path class="Colour4 fill" d="M399.94,704.52L314.18,707l6.03-2.48l71.81-29.57c0.35,1.36,0.7,2.71,1.05,4.08
		C395.28,687.55,397.57,696.05,399.94,704.52z"/>
	<path class="Colour4 fill" d="M99.38,704.52l85.76,2.48l-6.03-2.48l-71.81-29.57c-0.35,1.36-0.7,2.71-1.05,4.08
		C104.04,687.55,101.75,696.05,99.38,704.52z"/>
</g>
<path class="Colour2 fill" d="M332.53,1c-5.71,9.78-16.23,23.03-34.3,31.92c-15.44,7.59-29.78,8.57-40.55,8.57
	c-2.52,0-4.91-0.05-7.16-0.11c-12.97-0.3-43.34-0.99-66.09-21.68c-5.9-5.36-10.82-11.65-14.64-18.69L91.99,24.08
	c2.32,12.72,5.44,33.3,6.93,57.76c45.3-6.49,179.82-22.14,303.57-0.64c1.19-18.02,3.5-37.23,7.19-57.54L332.53,1z"/>
<path class="Colour3 fill" d="M99.72,114.9c17.58-4.78,49.17-12.24,88.99-16.74c53.43-6.04,132.32-7.78,212.79,16.14
	c-0.03-2.94-0.03-5.92,0.01-8.94c-81.08-23.6-160.24-21.82-213.99-15.72c-38.53,4.37-69.5,11.48-87.77,16.36
	C99.77,108.93,99.76,111.9,99.72,114.9z"/>
<path class="Colour2 fill" d="M398.52,508.77c0.38,5.01,0.31,10.85,0.71,17.28c2.93,47.16,14.43,127.63,33.29,179.52l19.4,0.09
	l11.64,0.06l35.5,0.18c-0.04-0.07-0.07-0.16-0.11-0.23c-65.17-138.01-62.88-207.75-43.63-253.13
	c17.41-41.08,40.07-45.01,44.83-45.38V299.51c-5.89-2.22-11.61-4.83-17.07-7.8C456.83,320.53,390.6,404.34,398.52,508.77z"/>
<path class="Colour3 fill" d="M490.68,705.57l-27.12,0.15l-31.04-0.15c-18.86-51.89-30.36-132.36-33.29-179.52
	c1.83-21.13,4.72-37.31,4.72-37.31S396.89,595.25,490.68,705.57z"/>
<g>
	<path class="Colour1 fill" d="M403.94,475.73c0,0,11.97-71.4,96.2-120.82v-55.4c-3.15-1.18-6.23-2.51-9.27-3.91
		C467.83,316.78,412.93,376.94,403.94,475.73z"/>
</g>
<path class="Colour3 fill" d="M428.23,312.75c-12.91,17.22-26.27,35.03-37,54.06c-2.7,4.77-5.2,9.6-7.46,14.36
	c-4.05,8.56-7.58,17.79-10.49,27.45c-2.91,9.68-5.24,19.96-6.95,30.52c-1.72,10.57-2.88,21.9-3.46,33.69
	c-0.03,0.58-0.06,1.14-0.08,1.68c-0.41,9.19-0.55,18.59-0.41,27.94c0.14,10.61,0.65,21.76,1.51,33.17
	c0.68,8.84,1.57,17.79,2.65,26.61c1.23,10.31,2.74,20.79,4.63,32.05c1.41,8.42,2.99,17,4.69,25.5c2.02,10.12,4.32,20.7,6.83,31.45
	c1.84,7.88,3.86,16.15,6.01,24.59l1.05,4.08c1.8,6.96,4.07,15.32,7.13,26.25h1.96l4.78-1.35c-3.12-11.14-5.42-19.6-7.24-26.62
	l-1.05-4.07c-2.13-8.39-4.14-16.62-5.97-24.45c-2.49-10.67-4.77-21.18-6.78-31.23c-1.69-8.43-3.25-16.94-4.65-25.29
	c-1.86-11.15-3.36-21.53-4.58-31.74c-1.06-8.72-1.94-17.58-2.62-26.31c-0.85-11.26-1.35-22.27-1.49-32.74
	c-0.14-9.22,0-18.48,0.4-27.57c0.02-0.54,0.04-1.06,0.07-1.6c0.56-11.53,1.7-22.61,3.38-32.93c1.65-10.27,3.93-20.25,6.74-29.64
	c2.81-9.32,6.21-18.23,10.11-26.48c2.19-4.61,4.62-9.29,7.23-13.92c10.52-18.65,23.73-36.27,36.52-53.32
	c9.57-12.76,19.39-25.89,28.19-39.55c-1.81-1.51-3.54-3.04-5.2-4.59C447.88,286.52,437.93,299.82,428.23,312.75z"/>
<path class="Colour2 fill" d="M1.86,407.16c4.76,0.37,27.41,4.3,44.83,45.38c19.25,45.38,21.54,115.12-43.63,253.13
	c-0.04,0.07-0.07,0.16-0.11,0.23l35.5-0.18l11.64-0.06l19.4-0.09c18.86-51.89,30.36-132.36,33.29-179.52
	c0.4-6.43,0.33-12.27,0.71-17.28c7.93-104.58-58.5-188.48-84.66-217.18c-5.41,3.05-11.07,5.81-16.96,8.17V407.16z"/>
<path class="Colour3 fill" d="M8.64,705.57l27.12,0.15l31.04-0.15c18.86-51.89,30.36-132.36,33.29-179.52
	c-1.83-21.13-4.72-37.31-4.72-37.31S102.44,595.25,8.64,705.57z"/>
<path class="Colour3 fill" d="M65.62,316.9c12.78,17.04,26,34.66,36.51,53.31c2.62,4.65,5.06,9.33,7.23,13.92
	c3.9,8.25,7.31,17.16,10.11,26.48c2.82,9.38,5.09,19.36,6.75,29.65c1.67,10.29,2.81,21.37,3.37,32.92l0.02,0.29
	c0.02,0.44,0.04,0.88,0.06,1.36c0.4,9.02,0.54,18.29,0.4,27.54c-0.14,10.49-0.64,21.5-1.49,32.73c-0.68,8.78-1.56,17.63-2.62,26.32
	c-1.22,10.2-2.72,20.58-4.58,31.73c-1.4,8.35-2.96,16.86-4.65,25.29c-2.01,10.05-4.29,20.56-6.78,31.22
	c-1.83,7.83-3.84,16.06-5.97,24.44l-1.05,4.07c-1.81,6.98-4.18,15.69-7.24,26.63l4.78,1.35h1.96c3.04-10.87,5.31-19.23,7.13-26.25
	l1.05-4.09c2.14-8.43,4.16-16.7,6.01-24.58c2.51-10.74,4.81-21.32,6.83-31.44c1.7-8.5,3.28-17.08,4.69-25.5
	c1.88-11.26,3.4-21.74,4.63-32.04c1.07-8.78,1.96-17.74,2.65-26.62c0.86-11.37,1.37-22.53,1.51-33.16c0.14-9.38,0-18.79-0.41-27.91
	c-0.02-0.48-0.04-0.95-0.06-1.43l-0.01-0.29c-0.58-11.81-1.74-23.14-3.46-33.69c-1.71-10.59-4.05-20.86-6.95-30.53
	c-2.91-9.65-6.43-18.88-10.49-27.45c-2.25-4.74-4.76-9.57-7.46-14.36c-10.73-19.04-24.09-36.84-37-54.06
	c-9.43-12.57-19.1-25.5-27.73-38.87c-1.7,1.55-3.46,3.05-5.25,4.52C46.74,291.69,56.3,304.46,65.62,316.9z"/>
<g>
	<path class="Colour1 fill" d="M1.86,354.9c84.23,49.42,96.2,120.82,96.2,120.82C89.07,376.95,34.19,316.8,11.14,295.6
		c-3.04,1.47-6.12,2.88-9.28,4.15V354.9z"/>
</g>
<path class="st0" d="M290.95,92.02c-16.31,9.99-33.22,11.08-39.8,11.08c-0.02,0-0.05,0-0.07,0c-6.89-0.01-20.51-1.08-34.24-8.1
	c-29.5-15.11-38.48-47.04-42.35-62.4c11.41,8.29,38.7,24.64,76.39,24.64c0.58,0,1.17,0,1.76-0.01
	c36.07-0.48,61.97-15.36,74.87-24.85C323.8,49.69,316.24,76.54,290.95,92.02z"/>
<g id="FBodyLogos"></g>
<path class="NeckAndArmTrim fill" d="M500.14,313.53c-14.14-4.41-26.11-10.21-36.28-16.68c-108.69-69.22-76.14-256.88-72.2-278.01l18.78,5.57
	c-5.04,27.4-33.83,196.08,63.77,261.23c7.61,5.08,16.2,9.67,25.92,13.52C500.14,303.95,500.14,308.74,500.14,313.53"/>
<path class="NeckAndArmTrim fill" d="M1.86,313.53v-7.9v-6.73c5.58-2.07,13.64-5.46,22.52-10.82c32.49-19.57,46.68-47.59,54.54-63.11
	c19.98-39.46,29.19-112.39,12.98-201l17.5-5.14c3.86,21.24,36.1,212.19-72.68,279.23C26.87,304.14,15.36,309.51,1.86,313.53"/>
<g>
	<path class="NeckAndArmTrim fill" d="M170.15,1c-0.04,7.28,0.55,17.87,3.62,30.21c3.72,14.93,12.12,48.61,42.98,64.41
		c14.72,7.54,28.94,8.14,34.41,8.15c4.11,0.01,22.38-0.3,40.07-11.14c28.1-17.21,34.45-48.52,37.79-64.96
		c2.24-11.01,2.57-20.33,2.48-26.67l15.91,4.72c-1.68,47.48-23.1,87.06-53.62,102.36c-20.71,10.39-42.29,10.99-42.29,10.99
		s-19.91,1.27-38.35-6.68c-37.22-16.05-59.6-57.53-59.09-106.68L170.15,1z"/>
</g>
<path class="NeckAndArmTrim fill" d="M331.51,1c-2.52,4.76-7.05,12.01-14.74,19.01c-22.43,20.4-52.5,21.09-65.3,21.38
	c-12.22,0.28-28.84,0.66-47.15-8.34c-20.2-9.93-30.29-25.3-34.16-32.05c-0.77,13.39,3.62,30.21,3.62,30.21
	c7.61,5.75,36.42,26.13,79.04,25.56c40.41-0.54,67.6-19.59,75.49-25.56C328.3,31.21,332,15.96,331.51,1z"/>
<path class="st0" d="M291.01,92.63c-17.7,10.84-35.96,11.15-40.07,11.14c-5.47-0.01-19.69-0.61-34.41-8.15
	c-30.87-15.81-39.26-49.48-42.98-64.41c7.61,5.75,36.42,26.13,79.04,25.56c40.41-0.54,67.6-19.59,75.49-25.56
	C324.5,48.3,317.2,76.59,291.01,92.63z"/>
<g>
	<line class="st1" x1="1" y1="689.33" x2="501" y2="689.33"/>
	<line class="st1" x1="1" y1="695.82" x2="501" y2="695.82"/>
	<path class="st1" d="M170.01,8.22c5.08,6.75,15.94,19.21,34.53,27.76c19.04,8.76,36.08,8.77,47.15,8.66
		c11.52-0.11,30.6-0.52,50.78-11.31c15.21-8.14,24.48-18.66,29.32-25.11"/>
	<path class="st1" d="M1,303.72c9.94-3.59,18.71-7.93,26.46-12.71c106.38-65.57,76.16-242.05,70.98-270.68"/>
	<path class="st1" d="M105,18.4c4.04,20.06,38.77,204.97-67.69,274.43C27.2,299.42,15.24,305.36,1,309.89"/>
	<path class="st1" d="M402.87,20.43c-5.69,32.18-31.82,205.95,73.02,272.72c7.38,4.7,15.7,7.96,25.11,11.08"/>
	<path class="st1" d="M396.02,18.4c-4.16,23.42-34.75,209.27,72.17,276.33c9.38,5.88,20.21,11.1,32.8,15.16"/>
	<path class="st1" d="M158.4,2.72c0.5,47.84,22,87.94,57.2,103.68c17.84,7.98,37.12,6.7,37.12,6.7s20.88-0.61,40.93-11.03
		c28.71-14.92,46.87-52.84,49.5-98.69"/>
	<path class="st1" d="M164.26,1c0.54,13.17,5.5,74.82,49.89,97.33c16.46,8.35,33.86,9.05,34.67,9.07
		c31.02,0.96,52.88-16.32,56.7-20.28c21.35-22.15,24.83-41.08,30.04-64.79c1.83-8.35,2.16-15.68,2.39-21.15"/>
	<path class="st1" d="M171.51,20.01c6.29,6.82,16.38,15.67,31.2,22.22c19.8,8.76,37.52,8.77,49.02,8.66
		c11.98-0.11,31.82-0.52,52.8-11.31c11.86-6.1,20.25-13.55,25.82-19.61"/>
</g>
</svg>
