<?xml version="1.0" encoding="utf-8"?>
<!-- Generator: Adobe Illustrator 19.1.0, SVG Export Plug-In . SVG Version: 6.00 Build 0)  -->
<svg version="1.1" id="Layer_1" xmlns="http://www.w3.org/2000/svg" xmlns:xlink="http://www.w3.org/1999/xlink" x="0px" y="0px"
	 viewBox="0 0 500 706" style="enable-background:new 0 0 500 706;" xml:space="preserve">
<style type="text/css">
	<![CDATA[
	@font-face{font-family:'codaheavy';src:url('/fonts/coda-heavy-webfont.woff') format('woff')}
	text{font-family:Impact,codaheavy,sans-serif}
	.Number.fill{fill:#000}
	.NumberOutline.stroke{fill:none;stroke:#777;stroke-width:2.5}
	.Colour1.fill{fill:#0E1D3C;}
	.Colour2.fill{fill:#21428B;}
	.Colour3.fill{fill:#FFFFFF;}
	.Colour4.fill{fill:#143151;}
	.NeckAndArmTrim.fill{fill:#143151;}
	.st0{fill:none;stroke:#FFFFFF;stroke-width:0.5;stroke-miterlimit:10;stroke-dasharray:4,2.4;}
	]]>
</style>
<path class="Colour1 fill" d="M1.86,705.64h498.29V299.58c-7.76-2.91-15.22-6.51-22.18-10.7c-32.81-19.74-51.9-44.61-59.67-59.93
	c-17.74-34.99-25.89-109.82-8.62-204.84L332.53,1.5c-5.71,9.76-16.23,23-34.3,31.88c-15.44,7.58-29.78,8.55-40.55,8.55
	c-2.52,0-4.91-0.05-7.16-0.11c-12.97-0.3-43.34-0.99-66.09-21.65c-5.9-5.36-10.82-11.63-14.64-18.67L91.99,24.54
	c8.53,46.83,45,205.27-64.5,261.87c-8.41,4.35-16.5,9.77-25.63,13.42V705.64z"/>

<path class="Colour2 fill" d="M1.86,407.08c4.76,0.37,27.41,4.29,44.83,45.32c19.25,45.32,21.54,114.96-43.63,252.77
	c-0.04,0.07-0.07,0.16-0.11,0.23l35.5-0.18l11.64-0.06l19.4-0.09c18.86-51.82,30.36-132.18,33.29-179.27
	c0.4-6.42,0.33-12.25,0.71-17.26c7.93-104.43-58.5-188.21-84.66-216.88c-5.41,3.04-11.07,5.8-16.96,8.16V407.08z"/>
<path class="Colour2 fill" d="M398.52,508.55c0.38,5.01,0.31,10.83,0.71,17.26c2.93,47.09,14.43,127.45,33.29,179.27l19.4,0.09
	l11.64,0.06l35.5,0.18c-0.04-0.07-0.07-0.16-0.11-0.23c-65.17-137.81-62.88-207.45-43.63-252.77
	c17.41-41.02,40.07-44.95,44.83-45.32v-107.5c-5.89-2.21-11.61-4.82-17.07-7.79C456.83,320.58,390.6,404.27,398.52,508.55z"/>
<path class="Colour3 fill" d="M490.68,705.08l-27.12,0.15l-31.04-0.15c-18.86-51.82-30.36-132.18-33.29-179.27
	c1.83-21.1,4.72-37.26,4.72-37.26S396.89,594.91,490.68,705.08z"/>
<path class="Colour1 fill" d="M477.39,705.4c0,0-37.39-40.95-54.04-88.51c0,0,2.51,54.17,26.31,88.43L477.39,705.4z"/>
<path class="Colour3 fill" d="M8.64,705.08l27.12,0.15l31.04-0.15c18.86-51.82,30.36-132.18,33.29-179.27
	c-1.83-21.1-4.72-37.26-4.72-37.26S102.44,594.91,8.64,705.08z"/>
<path class="Colour1 fill" d="M21.94,705.4c0,0,37.39-40.95,54.04-88.51c0,0-2.51,54.17-26.31,88.43L21.94,705.4z"/>
<g>
	<path class="Colour4 fill" d="M394.21,368.49c-2.61,4.62-5.07,9.32-7.35,14.12c-4.13,8.71-7.52,17.72-10.3,26.92l-126.9,48.31
		l-126.91-48.31c-2.78-9.21-6.17-18.22-10.3-26.92c-2.28-4.8-4.73-9.5-7.35-14.12l144.56,59.43L394.21,368.49z"/>
	<path class="Colour4 fill" d="M369.72,439.57c-1.79,11-2.87,22.14-3.41,33.26c-0.03,0.56-0.06,1.1-0.07,1.66l-116.57,44.36
		l-116.57-44.36c-0.02-0.56-0.05-1.1-0.07-1.66c-0.54-11.12-1.62-22.26-3.41-33.26l120.06,49.36L369.72,439.57z"/>
	<path class="Colour4 fill" d="M367.33,535.09l-117.66,44.79l-117.67-44.79c0.83-10.95,1.36-21.93,1.5-32.9l116.17,47.77l116.16-47.77
		C365.97,513.17,366.5,524.14,367.33,535.09z"/>
	<path class="Colour4 fill" d="M374.56,593.36l-124.9,47.54l-124.91-47.54c1.77-10.58,3.33-21.21,4.61-31.85l120.3,49.46l120.29-49.46
		C371.23,572.16,372.79,582.78,374.56,593.36z"/>
	<path class="Colour4 fill" d="M386.03,650.02l-136.37,51.9l-136.38-51.9c2.43-10.38,4.71-20.81,6.8-31.29L249.66,672l129.57-53.27
		C381.33,629.21,383.61,639.63,386.03,650.02z"/>
	<path class="Colour4 fill" d="M399.94,704.02l-85.76,2.48l6.03-2.48l71.81-29.52c0.35,1.36,0.7,2.71,1.05,4.07
		C395.28,687.08,397.57,695.56,399.94,704.02z"/>
	<path class="Colour4 fill" d="M99.38,704.02l85.76,2.48l-6.03-2.48L107.3,674.5c-0.35,1.36-0.7,2.71-1.05,4.07
		C104.04,687.08,101.75,695.56,99.38,704.02z"/>
</g>
<path class="Colour2 fill" d="M332.53,1.5c-5.71,9.76-16.23,23-34.3,31.88c-15.44,7.58-29.78,8.55-40.55,8.55
	c-2.52,0-4.91-0.05-7.16-0.11c-12.97-0.3-43.34-0.99-66.09-21.65c-5.9-5.36-10.82-11.63-14.64-18.67L91.99,24.54
	c2.32,12.7,5.44,33.25,6.93,57.67c45.3-6.48,179.82-22.1,303.57-0.64c1.19-17.99,3.5-37.18,7.19-57.46L332.53,1.5z"/>
<path class="Colour3 fill" d="M99.72,115.23c17.58-4.78,49.17-12.22,88.99-16.72c53.43-6.03,132.32-7.77,212.79,16.12
	c-0.03-2.94-0.03-5.91,0.01-8.93c-81.08-23.57-160.24-21.79-213.99-15.7c-38.53,4.37-69.5,11.47-87.77,16.33
	C99.77,109.27,99.76,112.24,99.72,115.23z"/>
<g>
	<path class="Colour1 fill" d="M403.94,475.55c0,0,11.97-71.3,96.2-120.65v-55.32c-3.15-1.18-6.23-2.51-9.27-3.91
		C467.83,316.84,412.93,376.9,403.94,475.55z"/>
</g>
<path class="Colour3 fill" d="M428.23,312.81c-12.91,17.2-26.27,34.98-37,53.99c-2.7,4.76-5.2,9.59-7.46,14.34
	c-4.05,8.55-7.58,17.77-10.49,27.41c-2.91,9.67-5.24,19.93-6.95,30.48c-1.72,10.55-2.88,21.87-3.46,33.64
	c-0.03,0.58-0.06,1.14-0.08,1.68c-0.41,9.18-0.55,18.57-0.41,27.9c0.14,10.59,0.65,21.73,1.51,33.12
	c0.68,8.83,1.57,17.77,2.65,26.57c1.23,10.29,2.74,20.76,4.63,32.01c1.41,8.41,2.99,16.97,4.69,25.46
	c2.02,10.11,4.32,20.67,6.83,31.4c1.84,7.86,3.86,16.12,6.01,24.56l1.05,4.07c1.8,6.95,4.07,15.3,7.13,26.21h1.96l4.78-1.35
	c-3.12-11.12-5.42-19.57-7.24-26.59l-1.05-4.06c-2.13-8.38-4.14-16.59-5.97-24.42c-2.49-10.65-4.77-21.15-6.78-31.18
	c-1.69-8.42-3.25-16.92-4.65-25.25c-1.86-11.14-3.36-21.5-4.58-31.69c-1.06-8.71-1.94-17.55-2.62-26.27
	c-0.85-11.24-1.35-22.24-1.49-32.69c-0.14-9.2,0-18.45,0.4-27.54c0.02-0.54,0.04-1.06,0.07-1.6c0.56-11.52,1.7-22.58,3.38-32.88
	c1.65-10.26,3.93-20.22,6.74-29.6c2.81-9.31,6.21-18.21,10.11-26.44c2.19-4.6,4.62-9.28,7.23-13.9
	c10.52-18.62,23.73-36.22,36.52-53.24c9.57-12.75,19.39-25.85,28.19-39.5c-1.81-1.51-3.54-3.04-5.2-4.59
	C447.88,286.61,437.93,299.9,428.23,312.81z"/>
<path class="Colour3 fill" d="M65.62,316.95c12.78,17.02,26,34.62,36.51,53.24c2.62,4.64,5.06,9.32,7.23,13.9
	c3.9,8.24,7.31,17.13,10.11,26.44c2.82,9.37,5.09,19.33,6.75,29.6c1.67,10.28,2.81,21.34,3.37,32.87l0.02,0.29
	c0.02,0.44,0.04,0.88,0.06,1.36c0.4,9.01,0.54,18.26,0.4,27.5c-0.14,10.47-0.64,21.47-1.49,32.68c-0.68,8.76-1.56,17.6-2.62,26.28
	c-1.22,10.19-2.72,20.55-4.58,31.69c-1.4,8.34-2.96,16.83-4.65,25.26c-2.01,10.04-4.29,20.53-6.78,31.18
	c-1.83,7.82-3.84,16.04-5.97,24.41l-1.05,4.07c-1.81,6.97-4.18,15.67-7.24,26.59l4.78,1.35h1.96c3.04-10.86,5.31-19.21,7.13-26.21
	l1.05-4.08c2.14-8.42,4.16-16.68,6.01-24.54c2.51-10.73,4.81-21.29,6.83-31.4c1.7-8.49,3.28-17.06,4.69-25.47
	c1.88-11.24,3.4-21.71,4.63-32c1.07-8.77,1.96-17.71,2.65-26.58c0.86-11.36,1.37-22.5,1.51-33.11c0.14-9.37,0-18.76-0.41-27.87
	c-0.02-0.48-0.04-0.95-0.06-1.43l-0.01-0.29c-0.58-11.79-1.74-23.11-3.46-33.64c-1.71-10.57-4.05-20.83-6.95-30.49
	c-2.91-9.64-6.43-18.86-10.49-27.41c-2.25-4.73-4.76-9.56-7.46-14.33c-10.73-19.01-24.09-36.79-37-53.98
	C61.67,300.26,52,287.35,43.36,274c-1.7,1.55-3.46,3.04-5.25,4.52C46.74,291.78,56.3,304.53,65.62,316.95z"/>
<g>
	<path class="Colour1 fill" d="M1.86,354.9c84.23,49.35,96.2,120.65,96.2,120.65c-8.99-98.63-63.87-158.7-86.92-179.87
		c-3.04,1.47-6.12,2.88-9.28,4.14V354.9z"/>
</g>
<g id="BBodyLogos"></g>
<path class="NeckAndArmTrim fill" d="M1.86,315.79c10.43-3.57,26.26-10.07,42.42-21.88c74.83-54.68,73.14-161.99,72.5-202.78
	c-0.41-25.8-3.57-49.71-8.3-71.44l-15.91,4.74c1.8,11.66,4.07,28.72,5.5,49.43c2.33,33.77,4.24,61.52-2.04,95.23
	c-5.08,27.31-10.43,56.07-33.6,84.66c-20.27,25.01-45.02,38.58-60.58,45.54V315.79z"/>
<path class="NeckAndArmTrim fill" d="M500.14,315.79c-13.79-4.91-25.49-11.03-35.48-17.76C357.03,225.54,389.53,43.5,394.08,19.84l15.9,4.7
	c-15.63,101.95-1.74,181.56,18.43,213.63c21.54,34.27,50.4,51.04,50.4,51.04c8.74,5.08,16.47,8.25,21.33,10.06V315.79z"/>
<path class="NeckAndArmTrim fill" d="M349.71,6.52c-3.83,6.67-10.37,16.28-21.05,25.49c-28.54,24.65-63.66,26.67-75.47,26.79
	c-9.02,0.09-45.05-0.53-75.92-25.11c-12.16-9.68-19.67-20.02-24.06-27.17l16.86-5.02c6.32,9.02,21.8,28.11,48.8,36.23
	c14.14,4.26,26.32,3.96,35.62,3.73c14.3-0.35,32.13-0.78,49.73-11.2c14.01-8.3,22.39-19.68,27.26-28.77L349.71,6.52z"/>
<g>
	<line class="st0" x1="1" y1="688.52" x2="501" y2="688.52"/>
	<line class="st0" x1="1" y1="695" x2="501" y2="695"/>
	<path class="st0" d="M103.81,19.17c4.58,21.43,7.63,44.96,8.03,70.29c0.64,40.94,2.34,148.62-72.75,203.48
		c-13.81,10.09-27.38,14.85-37.56,18.69"/>
	<path class="st0" d="M157,3.34c4.38,7.04,11.43,16.51,22.29,25.42c30.03,24.67,65.09,25.29,73.87,25.2
		c11.49-0.12,45.66-2.15,73.43-26.88c9.31-8.29,15.38-16.89,19.23-23.41"/>
	<path class="st0" d="M163.01,1.5c5.49,8.28,17.28,23.31,38.08,33.68c21.87,10.9,41.77,10.71,53.82,10.45
		c13.63-0.29,35.54-0.76,56.82-14.89c14.4-9.56,22.61-21.46,26.94-29.16"/>
	<path class="st0" d="M1.52,302.87c9.28-3.47,17.41-7.77,24.85-12.1c109.02-63.38,76.56-239.35,71.08-269.71"/>
	<path class="st0" d="M405.34,21.27c-5.58,32.47-35.99,213.49,72.65,273.21c6.93,3.81,14.21,7.99,22.48,11.4"/>
	<path class="st0" d="M399.92,19.5c-3.99,23.22-36.91,208.17,69.3,277.53c7.3,4.77,20.21,10.9,31.27,15.19"/>
</g>
</svg>
