<?xml version="1.0" encoding="utf-8"?>
<!-- Generator: Adobe Illustrator 19.1.0, SVG Export Plug-In . SVG Version: 6.00 Build 0)  -->
<svg version="1.1" id="Layer_1" xmlns="http://www.w3.org/2000/svg" xmlns:xlink="http://www.w3.org/1999/xlink" x="0px" y="0px"
	 viewBox="0 0 500 706" style="enable-background:new 0 0 500 706;" xml:space="preserve">
<style type="text/css">
	<![CDATA[
	@font-face{font-family:'codaheavy';src:url('/fonts/coda-heavy-webfont.woff') format('woff')}
	text{font-family:Impact,codaheavy,sans-serif}
	.Number.fill{fill:#000}
	.NumberOutline.stroke{fill:none;stroke:#777;stroke-width:2.5}
	.Colour1.fill{fill:#0E9DD5;}
	.Colour2.fill{fill:#FDDC0D;}
	.Colour3.fill{fill:#154370;}
	.Colour4.fill{fill:#FFFFFF;}
	.Colour5.fill{fill:#0E9DD5;}
	.NeckAndArmTrim.fill{fill:#FDDC0D;}
	]]>
</style>
<path class="Colour1 fill" d="M0,705.5h500V298.95c-7.79-2.92-15.27-6.52-22.26-10.71c-32.93-19.76-50.64-39.79-58.44-55.13
	c-17.81-35.03-27.41-114.83-10.09-209.96L331.81,0.5c-5.73,9.77-16.28,23.03-34.42,31.91c-15.5,7.59-29.88,8.56-40.69,8.56
	c-2.53,0-4.93-0.05-7.18-0.11c-13.02-0.3-43.49-0.99-66.31-21.67c-5.92-5.36-10.86-11.65-14.69-18.69L90.44,23.57
	c8.56,46.89,35.4,205.52-64.72,262.19c-8.27,4.68-16.56,9.78-25.72,13.43V705.5z"/>
<g>
	<g>
		<polygon class="Colour4 fill" points="348.73,415.89 402.55,279.05 329.84,411.17 327.95,607.63 		"/>
		<polygon class="Colour4 fill" points="176.04,611.59 174.15,415.12 101.44,283 155.26,419.85 		"/>
	</g>
	<g>
		<polygon class="Colour4 fill" points="348.73,415.89 402.55,279.05 329.84,411.17 327.95,607.63 		"/>
		<polygon class="Colour4 fill" points="176.04,611.59 174.15,415.12 101.44,283 155.26,419.85 		"/>
	</g>
</g>
<g id="BBodyLogos"></g>
<g>
	<g>
		<path class="Colour2 fill" d="M401.63,86.99c0.25-4.77,0.58-9.62,0.99-14.57C262.16,16.89,129.05,60.41,96.79,72.68
			c0.36,4.6,0.67,9.36,0.91,14.27C130.63,72.99,264.22,24.33,401.63,86.99z"/>
	</g>
	<g>
		<path class="Colour2 fill" d="M401.63,86.99c0.25-4.77,0.58-9.62,0.99-14.57C262.16,16.89,129.05,60.41,96.79,72.68
			c0.36,4.6,0.67,9.36,0.91,14.27C130.63,72.99,264.22,24.33,401.63,86.99z"/>
	</g>
</g>
<polygon class="Colour4 fill" points="378.45,500.28 500,384.1 500,361.83 "/>
<path class="Colour5 fill" d="M390.01,486.56l-0.11-0.09l-11.96,13.62c-0.11,8.98-0.14,19.39-0.2,31.81c-0.17,38-0.61,96.92-1.86,173.6
	h16.65V548.92L500,451.96v-68.6L390.01,486.56z"/>
<path class="Colour3 fill" d="M331.81,0.5l77.4,22.64c-3.14,17.23-5.27,33.66-6.58,49.25c-140.44-55.53-273.54-12-305.84,0.29
	c-1.63-20.64-4.3-37.92-6.35-49.11l78.07-23.06c3.84,7.04,8.78,13.33,14.69,18.69c22.82,20.68,53.3,21.38,66.31,21.67
	c2.25,0.05,4.65,0.11,7.18,0.11c10.8,0,25.19-0.97,40.69-8.56C315.53,23.53,326.09,10.27,331.81,0.5z M384.55,436.72
	c-5.24,19.14-6.3,33.19-6.61,63.37l11.96-13.62L500,361.05v-62.1c-7.79-2.92-15.27-6.52-22.26-10.71
	c-9.33-5.6-17.18-11.9-23.81-18.41c-4.45,15.6-11.01,36.04-20.39,58.93C411.47,382.48,395.46,396.84,384.55,436.72z M0,299.19v62.64
	l109.57,124.82l11.98,13.62c-0.33-30.17-1.39-44.23-6.63-63.37C104.01,397.03,88,382.67,65.93,328.94
	c-9.45-23.01-16.02-43.58-20.47-59.21c-5.94,5.84-12.5,11.22-19.74,16.04C17.81,291.02,9.16,295.54,0,299.19z"/>
<path class="Colour5 fill" d="M121.55,500.28l-11.98-13.62l-0.11,0.09L0,384.04v68.58l106.95,96.49V705.5h16.64
	c-1.22-76.59-1.68-135.44-1.85-173.41C121.67,519.67,121.64,509.26,121.55,500.28z"/>
<polygon class="Colour4 fill" points="0,361.83 0,384.1 121.55,500.28 "/>
<path class="Colour2 fill" d="M442.15,256.63c3.44,4.39,7.34,8.84,11.78,13.19c-4.45,15.6-11.01,36.04-20.39,58.93
	c-22.06,53.74-38.07,68.09-48.99,107.97c-5.24,19.14-6.3,33.19-6.61,63.37c-0.11,8.98-0.14,19.39-0.2,31.81
	c-0.17,38-0.61,96.92-1.86,173.6H361.5c1.29-78.62,1.74-139.04,1.91-177.96c0.27-55.22,0.02-71.82,6.96-97.18
	c11.15-40.74,27.5-55.39,50.02-110.27C430.65,295.08,437.6,272.92,442.15,256.63z M45.46,269.73c4.45,15.63,11.02,36.2,20.47,59.21
	c22.06,53.74,38.07,68.09,48.99,107.97c5.24,19.14,6.3,33.2,6.63,63.37c0.09,8.98,0.13,19.39,0.19,31.81
	c0.17,37.97,0.62,96.82,1.85,173.41h14.39c-1.29-78.53-1.72-138.88-1.91-177.77c-0.27-55.21-0.02-71.82-6.96-97.18
	c-11.15-40.72-27.5-55.39-50.02-110.27c-10.33-25.15-17.3-47.44-21.84-63.75C53.61,261.13,49.71,265.55,45.46,269.73z
	 M392.52,548.92V705.5h0.03l7.54-152.53l99.91-71v-30.02L392.52,548.92z M0,452.62v29.93l99.38,70.63l7.53,152.33h0.04V549.11
	L0,452.62z"/>
<polygon class="Colour5 fill" points="0,482.55 0,705.5 106.91,705.5 99.38,553.17 "/>
<polygon class="Colour5 fill" points="500,482.55 500,705.5 393.09,705.5 400.62,553.17 "/>
<path class="NeckAndArmTrim fill" d="M0,315.17c10.47-3.57,26.35-10.08,42.57-21.9c75.09-54.74,73.4-162.18,72.75-203.03
	c-0.41-25.83-3.59-49.77-8.33-71.53l-15.96,4.74c1.81,11.68,4.09,28.76,5.52,49.49c2.33,33.81,4.25,61.6-2.04,95.35
	c-5.1,27.34-10.47,56.14-33.72,84.76C40.44,278.09,15.61,291.67,0,298.64V315.17z"/>
<path class="NeckAndArmTrim fill" d="M500,315.17c-13.83-4.91-25.58-11.05-35.6-17.78c-108-72.57-75.39-254.84-70.83-278.52l15.96,4.71
	c-15.68,102.08-1.74,181.78,18.49,213.89c21.61,34.31,50.58,51.11,50.58,51.11c8.77,5.08,16.53,8.26,21.41,10.07V315.17z"/>
<path class="NeckAndArmTrim fill" d="M349.05,5.53c-3.84,6.68-10.41,16.3-21.12,25.53c-28.64,24.68-63.88,26.7-75.73,26.82
	c-9.05,0.09-45.21-0.53-76.18-25.15c-12.2-9.7-19.74-20.05-24.14-27.2L168.8,0.5c6.34,9.03,21.88,28.14,48.96,36.28
	c14.19,4.26,26.41,3.97,35.74,3.74c14.35-0.35,32.24-0.78,49.9-11.22c14.06-8.31,22.46-19.7,27.35-28.8L349.05,5.53z"/>
</svg>
