<?xml version="1.0" encoding="utf-8"?>
<!-- Generator: Adobe Illustrator 19.1.0, SVG Export Plug-In . SVG Version: 6.00 Build 0)  -->
<svg version="1.1" id="Layer_1" xmlns="http://www.w3.org/2000/svg" xmlns:xlink="http://www.w3.org/1999/xlink" x="0px" y="0px"
	 viewBox="0 0 500 706" style="enable-background:new 0 0 500 706;" xml:space="preserve">
<style type="text/css">
	<![CDATA[
	@font-face{font-family:'codaheavy';src:url('/fonts/coda-heavy-webfont.woff') format('woff')}
	text{font-family:Impact,codaheavy,sans-serif}
	.Colour1.fill{fill:#0E9DD5;}
	.Colour2.fill{fill:#FDDC0D;}
	.Colour3.fill{fill:#154370;}
	.Colour4.fill{fill:#FFFFFF;}
	.Colour5.fill{fill:#0E9DD5;}
	.NeckAndArmTrim.fill{fill:#FDDC0D;}
	.st0{fill:#FFFFFF;}
	]]>
</style>
<path class="Colour1 fill" d="M2.4,705.5H500V299.31c-7.75-2.91-15.2-6.51-22.15-10.7c-32.77-19.74-47.21-48.27-54.98-63.6
	c-17.72-35-30.47-106.21-13.22-201.25L332.62,1.13c-5.7,9.76-16.21,23.01-34.26,31.89c-15.42,7.58-29.74,8.56-40.49,8.56
	c-2.52,0-4.91-0.05-7.15-0.11c-12.95-0.3-43.28-0.99-66-21.65c-5.89-5.36-10.81-11.64-14.62-18.67l-77.7,23.04
	c8.52,46.84,28.12,200.17-64.41,261.95c-7.87,5.25-16.48,9.77-25.6,13.42V705.5z"/>
<path class="Colour5 fill" d="M390.01,486.76l-0.11-0.09l-11.96,13.61c-0.11,8.97-0.14,19.38-0.2,31.78
	c-0.17,37.97-0.61,96.83-1.86,173.44h16.65V549.06L500,452.18v-68.54L390.01,486.76z"/>
<path class="Colour3 fill" d="M331.81,1.13l77.4,22.62c-3.14,17.21-5.27,33.63-6.58,49.21C262.18,17.49,129.09,60.98,96.79,73.25
	c-1.63-20.63-4.3-37.89-6.35-49.07l78.07-23.04c3.84,7.04,8.78,13.31,14.69,18.67c22.82,20.66,53.3,21.36,66.31,21.65
	c2.25,0.05,4.65,0.11,7.18,0.11c10.8,0,25.19-0.97,40.69-8.56C315.53,24.14,326.09,10.9,331.81,1.13z M384.55,436.96
	c-5.24,19.13-6.3,33.16-6.61,63.31l11.96-13.61L500,361.36v-62.04c-7.79-2.91-15.27-6.51-22.26-10.7
	c-9.33-5.59-17.18-11.89-23.81-18.4c-4.45,15.58-11.01,36.01-20.39,58.87C411.47,382.77,395.46,397.12,384.55,436.96z M0,299.56
	v62.58l109.57,124.71l11.98,13.61c-0.33-30.14-1.39-44.19-6.63-63.31C104.01,397.31,88,382.96,65.93,329.27
	c-9.45-22.99-16.02-43.54-20.47-59.16c-5.94,5.83-12.5,11.21-19.74,16.02C17.81,291.39,9.16,295.91,0,299.56z"/>
<path class="Colour5 fill" d="M121.55,500.46l-11.98-13.61l-0.11,0.09L0,384.33v68.51l106.95,96.4V705.5h16.64
	c-1.22-76.52-1.68-135.32-1.85-173.25C121.67,519.84,121.64,509.43,121.55,500.46z"/>
<g>
	<path class="Colour4 fill" d="M327.95,607.72l1.89-196.29l72.7-132l-53.82,136.72L327.95,607.72z M176.04,611.67l-1.89-196.29l-72.7-132
		l53.82,136.72L176.04,611.67z"/>
	<polygon class="Colour4 fill" points="378.45,500.46 500,384.39 500,362.14 	"/>
	<polygon class="Colour4 fill" points="0,362.14 0,384.39 121.55,500.46 	"/>
</g>
<g id="FBodyLogos"></g>
<polygon class="Colour5 fill" points="0,482.75 0,705.5 106.91,705.5 99.38,553.31 "/>
<polygon class="Colour5 fill" points="500,482.75 500,705.5 393.09,705.5 400.62,553.31 "/>
<path class="Colour2 fill" d="M401.63,87.54c0.25-4.77,0.58-9.61,0.99-14.56c-140.46-55.48-273.57-12-305.84,0.26
	c0.36,4.59,0.67,9.35,0.91,14.25C130.63,73.55,264.22,24.94,401.63,87.54z"/>
<path class="Colour2 fill" d="M420.39,320.43c-22.51,54.83-38.87,69.47-50.02,110.17c-6.94,25.34-6.69,41.92-6.96,97.1
	c-0.17,38.89-0.62,99.25-1.91,177.8h14.37c1.26-76.61,1.69-135.47,1.86-173.44c0.06-12.41,0.09-22.81,0.2-31.78
	c0.31-30.16,1.38-44.19,6.61-63.31c10.91-39.84,26.92-54.19,48.99-107.88c9.38-22.86,15.94-43.29,20.39-58.87
	c-4.44-4.35-8.34-8.8-11.78-13.18C437.6,273.31,430.65,295.45,420.39,320.43z"/>
<path class="Colour2 fill" d="M45.46,270.12c4.45,15.62,11.02,36.17,20.47,59.16c22.06,53.69,38.07,68.03,48.99,107.88
	c5.24,19.13,6.3,33.17,6.63,63.31c0.09,8.97,0.13,19.38,0.19,31.78c0.17,37.94,0.62,96.74,1.85,173.25h14.39
	c-1.29-78.46-1.72-138.76-1.91-177.61c-0.27-55.16-0.02-71.75-6.96-97.1c-11.15-40.69-27.5-55.34-50.02-110.17
	c-10.33-25.13-17.3-47.39-21.84-63.69C53.61,261.53,49.71,265.95,45.46,270.12z"/>
<polygon class="Colour2 fill" points="392.52,549.06 392.52,705.5 392.55,705.5 400.09,553.11 500,482.17 500,452.18 "/>
<polygon class="Colour2 fill" points="0,452.85 0,482.75 99.38,553.31 106.91,705.5 106.95,705.5 106.95,549.25 "/>
<path class="NeckAndArmTrim fill" d="M500,313.32c-14.19-4.41-26.2-10.21-36.41-16.7c-109.06-69.28-76.4-257.11-72.44-278.27L410,23.93
	c-5.06,27.43-33.95,196.26,63.99,261.47c7.63,5.08,16.25,9.68,26.01,13.53C500,303.73,500,308.52,500,313.32"/>
<path class="NeckAndArmTrim fill" d="M0,313.32v-7.91v-6.73c5.6-2.07,13.68-5.47,22.6-10.83c32.6-19.59,46.84-47.63,54.73-63.16
	c20.05-39.49,29.29-112.5,13.02-201.19l17.57-5.14c3.87,21.26,36.22,212.39-72.93,279.49C25.1,303.93,13.55,309.29,0,313.32"/>
<path class="NeckAndArmTrim fill" d="M168.87,0.5c-0.04,7.29,0.55,17.89,3.64,30.24c3.73,14.94,12.16,48.65,43.13,64.47
	c14.77,7.54,29.04,8.15,34.53,8.15c4.13,0.01,22.45-0.3,40.21-11.15c28.19-17.22,34.57-48.56,37.92-65.03
	c2.24-11.02,2.58-20.35,2.48-26.69l15.97,4.72c-1.69,47.53-23.18,87.14-53.8,102.46c-20.78,10.4-42.43,11-42.43,11
	s-19.98,1.27-38.48-6.68c-37.34-16.06-59.8-57.58-59.29-106.78L168.87,0.5z"/>
<path class="NeckAndArmTrim fill" d="M330.78,0.5c-2.57,4.72-7.18,12.04-14.8,19.03c-23.76,21.81-55.73,21.14-69.81,20.84
	c-9.75-0.21-20.99-0.54-34.59-5.73c-23.6-8.99-37.09-26.03-42.71-34.15c-0.77,13.4,3.64,30.24,3.64,30.24
	c7.63,5.76,36.55,26.16,79.31,25.59c40.55-0.54,67.83-19.61,75.75-25.59C327.57,30.74,331.28,15.47,330.78,0.5z"/>
<path class="st0" d="M290.14,92.22c-17.76,10.85-36.08,11.16-40.21,11.15c-5.49-0.01-19.76-0.61-34.53-8.15
	c-30.97-15.82-39.4-49.53-43.13-64.47c7.63,5.76,36.55,26.16,79.31,25.59c40.55-0.54,67.83-19.61,75.75-25.58
	C323.75,47.84,316.43,76.16,290.14,92.22z"/>
</svg>
