<?xml version="1.0" encoding="utf-8"?>
<!-- Generator: Adobe Illustrator 19.1.0, SVG Export Plug-In . SVG Version: 6.00 Build 0)  -->
<svg version="1.1" id="Layer_1" xmlns="http://www.w3.org/2000/svg" xmlns:xlink="http://www.w3.org/1999/xlink" x="0px" y="0px"
	 viewBox="0 0 500.79 706.1" style="enable-background:new 0 0 500.79 706.1;" xml:space="preserve">
<style type="text/css">
	<![CDATA[
	@font-face{font-family:'codaheavy';src:url('/fonts/coda-heavy-webfont.woff') format('woff')}
	text{font-family:Impact,codaheavy,sans-serif}
	.Colour1.fill{fill-rule:evenodd;clip-rule:evenodd;fill:#FF0080;}
	.Colour2.fill{fill-rule:evenodd;clip-rule:evenodd;fill:#00E5E5;}
	.InnerTrim.fill{fill-rule:evenodd;clip-rule:evenodd;fill:#00E5E5;}
	.NeckAndArmTrim.fill{fill:#231F20;}
	.st0{fill:none;}
	.st1{fill:none;stroke:#231F20;stroke-width:0.5;stroke-miterlimit:2.613;}
	.st2{fill:#FFFFFF;}
	.st3{fill:#231F20;}
	.st4{fill-rule:evenodd;clip-rule:evenodd;fill:#FFFFFF;}
	.st5{fill:none;stroke:#231F20;stroke-linecap:round;stroke-linejoin:round;stroke-miterlimit:10;}
	.st6{fill:none;stroke:#231F20;stroke-width:0.5;stroke-miterlimit:10;stroke-dasharray:4.8,2.4;}
	]]>
</style>
<path class="Colour1 fill" d="M0.4,705.55h500V245.21c-77.84-12.62-113.96-88.64-88.64-212.11L330.92,0.55
	c-31.7,155.85-131.43,149.53-160.88,0L88.03,33.82c23.5,120.77-7.07,201.82-87.63,211.34V705.55z"/>
<rect x="0.4" y="490.14" class="Colour2 fill" width="499.53" height="215.4"/>
<rect x="0.4" y="346.43" class="Colour2 fill" width="497.03" height="3.75"/>
<rect x="0.47" y="369.78" class="Colour2 fill" width="497.51" height="4.69"/>
<rect x="0.5" y="390.78" class="Colour2 fill" width="497.99" height="5.63"/>
<rect x="0.52" y="409.87" class="Colour2 fill" width="498.47" height="6.56"/>
<rect x="0.51" y="427.34" class="Colour2 fill" width="499.4" height="7.51"/>
<rect x="0.49" y="443.46" class="Colour2 fill" width="499.43" height="8.44"/>
<rect x="0.45" y="458.41" class="Colour2 fill" width="499.47" height="9.39"/>
<rect x="0.4" y="472.35" class="Colour2 fill" width="499.95" height="10.33"/>
<path class="st0" d="M170.04,0.55L88.03,33.82c23.5,120.77-7.07,201.82-87.63,211.34v460.39h500V245.21
	c-77.84-12.62-113.97-88.64-88.64-212.11L330.92,0.55C299.22,156.4,199.48,150.08,170.04,0.55"/>
<path class="st1" d="M0.4,705.55h500V245.21c-77.84-12.62-113.96-88.64-88.64-212.11L330.92,0.55
	c-31.7,155.85-131.43,149.53-160.88,0L88.03,33.82c23.5,120.77-7.07,201.82-87.63,211.34V705.55z"/>
<path class="InnerTrim fill" d="M170.04,0.55c-0.04,7.29,0.54,17.88,3.61,30.24c3.71,14.94,12.08,48.65,42.86,64.47
	c14.67,7.54,28.85,8.15,34.3,8.16c4.1,0.01,22.31-0.3,39.96-11.15c28.01-17.22,34.35-48.56,37.68-65.02
	c2.23-11.02,2.56-20.35,2.47-26.69l15.8,6.36c-1.68,47.52-22.96,85.49-53.39,100.81c-20.65,10.4-42.16,11-42.16,11
	s-19.85,1.27-38.23-6.68c-37.1-16.06-59.43-55.79-58.92-104.99L170.04,0.55z"/>
<path class="InnerTrim fill" d="M500.39,263.81v-9.64l-8.96-1.25c-98.32-21.57-105.99-129.69-90.28-213.94l1.77-9.05l-8.49-3.15l-0.53,2.61
	c-14.02,68.38-16.28,159.06,42.92,207.46c17.64,14.42,38.49,22.9,60.74,26.5L500.39,263.81z"/>
<path class="InnerTrim fill" d="M105.22,27.5l-8.66,3.19l1.7,9.07c14.47,81.58,10.05,195.43-88.89,213.28L0.4,254v9.66l2.09-0.24
	c23.07-2.73,44.64-10.89,62.68-25.98c57.18-47.84,53.54-140.63,40.59-207.18L105.22,27.5z"/>
<path class="st1" d="M170.04,0.55c-0.04,7.29,0.54,17.88,3.61,30.24c3.71,14.94,12.08,48.65,42.86,64.47
	c14.67,7.54,28.85,8.15,34.3,8.16c4.1,0.01,22.31-0.3,39.96-11.15c28.01-17.22,34.35-48.56,37.68-65.02
	c2.23-11.02,2.56-20.35,2.47-26.69l15.8,6.36c-1.68,47.52-22.96,85.49-53.39,100.81c-20.65,10.4-42.16,11-42.16,11
	s-19.85,1.27-38.23-6.68c-37.1-16.06-59.43-55.79-58.92-104.99L170.04,0.55z"/>
<path class="st1" d="M500.39,263.81v-9.64l-8.96-1.25c-98.32-21.57-105.99-129.69-90.28-213.94l1.77-9.05l-8.49-3.15l-0.53,2.61
	c-14.02,68.38-16.28,159.06,42.92,207.46c17.64,14.42,38.49,22.9,60.74,26.5L500.39,263.81z"/>
<path class="st1" d="M105.22,27.5l-8.66,3.19l1.7,9.07c14.47,81.58,10.05,195.43-88.89,213.28L0.4,254v9.66l2.09-0.24
	c23.07-2.73,44.64-10.89,62.68-25.98c57.18-47.84,53.54-140.63,40.59-207.18L105.22,27.5z"/>
<path class="st2" d="M290.85,92.93c-17.64,10.85-35.85,11.15-39.95,11.15c-5.46-0.01-19.63-0.61-34.31-8.15
	c-30.78-15.82-39.15-49.53-42.86-64.47c7.59,5.76,36.32,26.16,78.8,25.58c40.3-0.54,67.39-19.6,75.27-25.58
	C324.24,48.56,316.96,76.87,290.85,92.93"/>
<path class="st1" d="M290.85,92.93c-17.64,10.85-35.85,11.15-39.95,11.15c-5.46-0.01-19.63-0.61-34.31-8.15
	c-30.78-15.82-39.15-49.53-42.86-64.47c7.59,5.76,36.32,26.16,78.8,25.58c40.3-0.54,67.39-19.6,75.27-25.58
	C324.24,48.56,316.96,76.87,290.85,92.93z"/>
<path class="NeckAndArmTrim fill" d="M96.55,30.69l-1.11,0.41l-7.42,2.73c0.64,3.3,1.24,6.56,1.8,9.79C109.82,158.96,78.76,235.9,0.4,245.16v1.12
	v7.71l8.97-0.96c98.95-17.85,103.37-131.7,88.89-213.28L96.55,30.69z"/>
<path class="NeckAndArmTrim fill" d="M500.39,254.17v-8.96c-75.97-12.32-112.35-84.98-90.53-203.23c0.54-2.92,1.1-5.87,1.71-8.84l-6.91-2.56
	l-1.75-0.65l-1.77,9.05c-15.72,84.24-8.04,192.37,90.28,213.94L500.39,254.17z"/>
<path class="NeckAndArmTrim fill" d="M170.04,0.55c-0.04,7.29,0.54,17.88,3.61,30.24c3.71,14.94,12.08,48.65,42.86,64.47
	c14.67,7.54,28.85,8.15,34.3,8.15c4.1,0.01,22.31-0.3,39.96-11.15c28.01-17.22,34.35-48.56,37.68-65.02
	c2.23-11.02,2.56-20.35,2.47-26.69l9.12,3.67c-4.07,62.94-32.24,105.72-88.91,106.07c-58.81,3.55-86.9-48.77-90.34-105.98
	L170.04,0.55z"/>
<path class="st1" d="M96.55,30.69l-1.11,0.41l-7.42,2.73c0.64,3.3,1.24,6.56,1.8,9.79C109.82,158.96,78.76,235.9,0.4,245.16v1.12
	v7.71l8.97-0.96c98.95-17.85,103.37-131.7,88.89-213.28L96.55,30.69z"/>
<path class="st1" d="M500.39,254.17v-8.96c-75.97-12.32-112.35-84.98-90.53-203.23c0.54-2.92,1.1-5.87,1.71-8.84l-6.91-2.56
	l-1.75-0.65l-1.77,9.05c-15.72,84.24-8.04,192.37,90.28,213.94L500.39,254.17z"/>
<path class="st1" d="M170.04,0.55c-0.04,7.29,0.54,17.88,3.61,30.24c3.71,14.94,12.08,48.65,42.86,64.47
	c14.67,7.54,28.85,8.15,34.3,8.15c4.1,0.01,22.31-0.3,39.96-11.15c28.01-17.22,34.35-48.56,37.68-65.02
	c2.23-11.02,2.56-20.35,2.47-26.69l9.12,3.67c-4.07,62.94-32.24,105.72-88.91,106.07c-58.81,3.55-86.9-48.77-90.34-105.98
	L170.04,0.55z"/>
<path class="st4" d="M173.65,30.79c14.23,93.62,135.64,99.51,154.15,0.67c-21.37,15.58-46.2,24.94-75.27,25.58
	C224.93,57.64,198.51,48.97,173.65,30.79"/>
<path class="st1" d="M173.65,30.79c14.23,93.62,135.64,99.51,154.15,0.67c-21.37,15.58-46.2,24.94-75.27,25.58
	C224.93,57.64,198.51,48.97,173.65,30.79z"/>
<path class="Colour2 fill" d="M171.25,18.79c1.07,6.86,2.4,12,2.4,12c7.59,5.76,36.4,26.83,78.88,26.25
	c40.3-0.54,67.32-20.28,75.19-26.25c0,0,1.17-4.85,2.11-11.77c-11.57,9.73-39.25,30.15-77.75,30.76
	C211.19,50.41,182.59,28.5,171.25,18.79"/>
<path class="st5" d="M171.25,18.79c1.07,6.86,2.4,12,2.4,12c7.59,5.76,36.4,26.83,78.88,26.25c40.3-0.54,67.32-20.28,75.19-26.25
	c0,0,1.17-4.85,2.11-11.77c-11.57,9.73-39.25,30.15-77.75,30.76C211.19,50.41,182.59,28.5,171.25,18.79z"/>
<path class="NeckAndArmTrim fill" d="M330.92,0.55c-2.08,3.94-5.53,9.59-11.01,15.4c-1.14,1.21-2.37,2.43-3.7,3.64
	c-22.36,20.42-52.35,21.11-65.11,21.4c-12.18,0.28-28.75,0.66-47.01-8.35c-9.9-4.88-17.36-11.08-22.85-16.93
	C175.57,9.65,172,3.99,170.04,0.55c-0.28,4.92,0.13,10.29,0.76,15.13c0.14,1.06,0.29,2.1,0.44,3.11
	c11.34,9.71,39.94,31.62,80.83,30.98c38.5-0.6,66.18-21.03,77.75-30.76c0.13-0.98,0.26-2,0.38-3.05
	C330.74,11.26,331.09,5.89,330.92,0.55"/>
<path class="st5" d="M330.92,0.55c-2.08,3.94-5.53,9.59-11.01,15.4c-1.14,1.21-2.37,2.43-3.7,3.64
	c-22.36,20.42-52.35,21.11-65.11,21.4c-12.18,0.28-28.75,0.66-47.01-8.35c-9.9-4.88-17.36-11.08-22.85-16.93
	C175.57,9.65,172,3.99,170.04,0.55c-0.28,4.92,0.13,10.29,0.76,15.13c0.14,1.06,0.29,2.1,0.44,3.11
	c11.34,9.71,39.94,31.62,80.83,30.98c38.5-0.6,66.18-21.03,77.75-30.76c0.13-0.98,0.26-2,0.38-3.05
	C330.74,11.26,331.09,5.89,330.92,0.55z"/>
<line class="st6" x1="0.4" y1="683.77" x2="500.39" y2="683.77"/>
<line class="st6" x1="0.4" y1="690.34" x2="500.39" y2="690.34"/>
<g id="FBodyLogos"></g>
</svg>
