<?xml version="1.0" encoding="utf-8"?>
<!-- Generator: Adobe Illustrator 19.1.0, SVG Export Plug-In . SVG Version: 6.00 Build 0)  -->
<svg version="1.1" id="Layer_1" xmlns="http://www.w3.org/2000/svg" xmlns:xlink="http://www.w3.org/1999/xlink" x="0px" y="0px"
	 viewBox="0 0 500.79 706.1" style="enable-background:new 0 0 500.79 706.1;" xml:space="preserve">
<style type="text/css">
	<![CDATA[
	@font-face{font-family:'codaheavy';src:url('/fonts/coda-heavy-webfont.woff') format('woff')}
	text{font-family:Impact,codaheavy,sans-serif}
	.Number.fill{fill:#000}
	.NumberOutline.stroke{fill:none;stroke:#777;stroke-width:2.5}
	.Colour1.fill{fill-rule:evenodd;clip-rule:evenodd;fill:#FF0080;}
	.Colour2.fill{fill-rule:evenodd;clip-rule:evenodd;fill:#00E5E5;}
	.InnerTrim.fill{fill-rule:evenodd;clip-rule:evenodd;fill:#00E5E5;}
	.NeckAndArmTrim.fill{fill:#231F20;}
	.st0{clip-path:url(#SVGID_2_);fill:none;stroke:#231F20;stroke-width:0.5;stroke-miterlimit:10;stroke-dasharray:4.8,2.4;}
	.st2{fill:none;stroke:#231F20;stroke-width:0.5;stroke-miterlimit:2.613;}
	]]>
</style>
<path class="Colour1 fill" d="M0.4,704.91h500V244.96c-77.84-12.61-114.14-88.51-88.82-211.85L323.65,0.55
	c-31.65,30.11-115.66,33.79-145.14,0c-30.16,11.08-60.32,22.16-90.48,33.24c23.5,120.64-7.07,201.61-87.63,211.12V704.91z"/>
<g>
	<defs>
		<path id="SVGID_1_" d="M178.51,1.18c-30.16,11.08-60.32,22.16-90.48,33.24c23.5,120.64-7.07,201.61-87.63,211.12v460h500V245.59
			c-77.84-12.61-114.14-88.51-88.82-211.85L323.65,1.18C292,31.3,207.99,34.97,178.51,1.18"/>
	</defs>
	<clipPath id="SVGID_2_">
		<use xlink:href="#SVGID_1_"  style="overflow:visible;"/>
	</clipPath>
	<line class="st0" x1="-16.05" y1="690.49" x2="516.85" y2="690.49"/>
	<line class="st0" x1="-16.05" y1="683.49" x2="516.85" y2="683.49"/>
	<rect x="-2.09" y="490.28" class="Colour2 fill" width="502.77" height="215.18"/>
	<rect x="-2.09" y="346.72" class="Colour2 fill" width="501.58" height="3.74"/>
	<rect x="-2.02" y="370.03" class="Colour2 fill" width="502.06" height="4.68"/>
	<rect x="-1.98" y="391.02" class="Colour2 fill" width="502.55" height="5.62"/>
	<rect x="-1.97" y="410.08" class="Colour2 fill" width="503.04" height="6.56"/>
	<rect x="-1.97" y="427.54" class="Colour2 fill" width="503.52" height="7.5"/>
	<rect x="-2" y="443.65" class="Colour2 fill" width="504" height="8.44"/>
	<rect x="-2.04" y="458.58" class="Colour2 fill" width="504.49" height="9.38"/>
	<rect x="-2.09" y="472.5" class="Colour2 fill" width="504.97" height="10.31"/>
</g>
<path class="st2" d="M0.4,705.55h500V245.59c-77.84-12.61-114.14-88.51-88.82-211.85L323.65,1.18C292,31.3,207.99,34.97,178.51,1.18
	c-30.16,11.08-60.32,22.16-90.48,33.24c23.5,120.64-7.07,201.61-87.63,211.12V705.55z"/>
<path class="InnerTrim fill" d="M340.2,7.9l-9.9-3.71l-5.07,5.82c-35.47,30.13-116.19,33.8-150.7,0.48l-6.69-5.22l-7.24,2.69l4.44,5.15
	c36.05,41.8,130.27,38,168.5,1.2L340.2,7.9z"/>
<path class="InnerTrim fill" d="M500.4,264.18v-9.63l-8.96-1.25c-98.32-21.55-106-129.56-90.28-213.72l1.77-9.04l-8.49-3.14l-0.53,2.6
	c-14.02,68.31-16.28,158.89,42.92,207.25c17.64,14.41,38.48,22.87,60.74,26.48L500.4,264.18z"/>
<path class="InnerTrim fill" d="M105.22,28.11l-8.66,3.18l1.7,9.06c14.47,81.49,10.05,195.23-88.89,213.06l-8.96,0.96v9.65l2.08-0.24
	c23.07-2.72,44.64-10.88,62.68-25.95c57.18-47.79,53.54-140.49,40.59-206.97L105.22,28.11z"/>
<path class="st2" d="M340.2,7.9l-9.9-3.71l-5.07,5.82c-35.47,30.13-116.19,33.8-150.7,0.48l-6.69-5.22l-7.24,2.69l4.44,5.15
	c36.05,41.8,130.27,38,168.5,1.2L340.2,7.9z"/>
<path class="st2" d="M500.4,264.18v-9.63l-8.96-1.25c-98.32-21.55-106-129.56-90.28-213.72l1.77-9.04l-8.49-3.14l-0.53,2.6
	c-14.02,68.31-16.28,158.89,42.92,207.25c17.64,14.41,38.48,22.87,60.74,26.48L500.4,264.18z"/>
<path class="st2" d="M105.22,28.11l-8.66,3.18l1.7,9.06c14.47,81.49,10.05,195.23-88.89,213.06l-8.96,0.96v9.65l2.08-0.24
	c23.07-2.72,44.64-10.88,62.68-25.95c57.18-47.79,53.54-140.49,40.59-206.97L105.22,28.11z"/>
<path class="NeckAndArmTrim fill" d="M331.63,4.19l-8.02-3c-31.28,30.11-114.31,33.79-143.46,0l-10.98,4.08l6.69,5.22
	c34.5,33.32,115.23,29.64,150.7-0.48L331.63,4.19z"/>
<path class="NeckAndArmTrim fill" d="M96.55,31.29l-1.11,0.41l-7.42,2.73c0.64,3.29,1.24,6.55,1.8,9.78
	C109.82,159.43,78.76,236.3,0.4,245.55v1.12v7.7l8.97-0.96c98.95-17.83,103.37-131.57,88.89-213.06L96.55,31.29z"/>
<path class="NeckAndArmTrim fill" d="M500.4,254.55v-8.95c-75.97-12.31-112.35-84.89-90.53-203.02c0.54-2.92,1.1-5.86,1.71-8.84
	l-6.91-2.56l-1.75-0.65l-1.77,9.04c-15.72,84.16-8.04,192.17,90.28,213.72L500.4,254.55z"/>
<path class="st2" d="M331.63,4.19l-8.02-3c-31.28,30.11-114.31,33.79-143.46,0l-10.98,4.08l6.69,5.22
	c34.5,33.32,115.23,29.64,150.7-0.48L331.63,4.19z"/>
<path class="st2" d="M96.55,31.29l-1.11,0.41l-7.42,2.73c0.64,3.29,1.24,6.55,1.8,9.78C109.82,159.43,78.76,236.3,0.4,245.55v1.12
	v7.7l8.97-0.96c98.95-17.83,103.37-131.57,88.89-213.06L96.55,31.29z"/>
<path class="st2" d="M500.4,254.55v-8.95c-75.97-12.31-112.35-84.89-90.53-203.02c0.54-2.92,1.1-5.86,1.71-8.84l-6.91-2.56
	l-1.75-0.65l-1.77,9.04c-15.72,84.16-8.04,192.17,90.28,213.72L500.4,254.55z"/>
<g id="BBodyLogos"></g>
</svg>
