<?xml version="1.0" encoding="utf-8"?>
<!-- Generator: Adobe Illustrator 19.1.0, SVG Export Plug-In . SVG Version: 6.00 Build 0)  -->
<svg version="1.1" id="Layer_1" xmlns="http://www.w3.org/2000/svg" xmlns:xlink="http://www.w3.org/1999/xlink" x="0px" y="0px"
	 viewBox="0 0 500.79 706.1" style="enable-background:new 0 0 500.79 706.1;" xml:space="preserve">
<style type="text/css">
	<![CDATA[
	@font-face{font-family:'codaheavy';src:url('/fonts/coda-heavy-webfont.woff') format('woff')}
	text{font-family:Impact,codaheavy,sans-serif}
	.Number.fill{fill:#000}
	.NumberOutline.stroke{fill:none;stroke:#777;stroke-width:2.5}
	.Colour1.fill{fill:#000000;fill-rule:evenodd;clip-rule:evenodd;}
	.Colour2.fill{fill:#295035;}
	.Colour3.fill{fill:#FFFFFF;}
	.Colour4.fill{fill:#194580;}
	.Colour5.stroke{fill:none;stroke:#FFFFFF;stroke-width:7.516;stroke-linecap:round;stroke-linejoin:round;stroke-miterlimit:2.613;}
	.Colour6.fill{fill:#000000;}
	.InnerTrim.fill{fill-rule:evenodd;clip-rule:evenodd;fill:#295035;}
	.NeckAndArmTrim.fill{fill-rule:evenodd;clip-rule:evenodd;fill:#295035;}
	.st0{clip-path:url(#SVGID_2_);fill:none;stroke:#231F20;stroke-width:0.5;stroke-miterlimit:10;stroke-dasharray:4.8,2.4;}
		.st1{clip-path:url(#SVGID_2_);fill:none;stroke:#FFFFFF;stroke-width:7.516;stroke-linecap:round;stroke-linejoin:round;stroke-miterlimit:2.613;}
	.st2{clip-path:url(#SVGID_2_);fill-rule:evenodd;clip-rule:evenodd;}
	.st3{clip-path:url(#SVGID_4_);fill-rule:evenodd;clip-rule:evenodd;fill:#FFFFFF;}
	.st4{clip-path:url(#SVGID_4_);fill-rule:evenodd;clip-rule:evenodd;fill:#295035;}
	.st5{clip-path:url(#SVGID_4_);fill-rule:evenodd;clip-rule:evenodd;fill:#231F20;}
	.st6{clip-path:url(#SVGID_4_);fill-rule:evenodd;clip-rule:evenodd;fill:#194580;}
		.st7{clip-path:url(#SVGID_6_);fill:none;stroke:#FFFFFF;stroke-width:7.516;stroke-linecap:round;stroke-linejoin:round;stroke-miterlimit:2.613;}
	.st8{clip-path:url(#SVGID_6_);fill-rule:evenodd;clip-rule:evenodd;}
	.st9{clip-path:url(#SVGID_8_);fill-rule:evenodd;clip-rule:evenodd;fill:#FFFFFF;}
	.st10{clip-path:url(#SVGID_8_);fill-rule:evenodd;clip-rule:evenodd;fill:#295035;}
	.st11{clip-path:url(#SVGID_8_);fill-rule:evenodd;clip-rule:evenodd;fill:#231F20;}
	.st12{clip-path:url(#SVGID_8_);fill-rule:evenodd;clip-rule:evenodd;fill:#194580;}
	.st13{fill:none;stroke:#231F20;stroke-width:0.5;stroke-miterlimit:2.613;}
	.st14{fill:none;stroke:#295035;stroke-width:0.5;stroke-miterlimit:2.613;}
	]]>
</style>
<path class="Colour1 fill" d="M0.4,705.55h500V245.18c-77.84-12.62-114.14-88.59-88.82-212.04L323.65,0.55
	C292,30.69,208,34.37,178.51,0.55L88.03,33.82c23.5,120.75-7.07,201.8-87.63,211.31V705.55z"/>
<g>
	<defs>
		<path id="SVGID_1_" d="M178.51,0.55L88.03,33.82c23.51,120.75-7.07,201.8-87.63,211.31v460.42h500V245.18
			c-77.85-12.62-114.14-88.59-88.82-212.04L323.65,0.55C292,30.69,207.99,34.37,178.51,0.55"/>
	</defs>
	<clipPath id="SVGID_2_">
		<use xlink:href="#SVGID_1_"  style="overflow:visible;"/>
	</clipPath>
	<line class="st0" x1="-16.06" y1="690.47" x2="516.85" y2="690.47"/>
	<line class="st0" x1="-16.06" y1="683.47" x2="516.85" y2="683.47"/>
	<rect x="448.71" y="231.1" class="Colour5 stroke" style="clip-path: url(#SVGID_2_);fill-rule: evenodd; clip-rule: evenodd;" width="51.68" height="474.37"/>
	<rect x="448.71" y="231.1" class="Colour6 fill" style="clip-path: url(#SVGID_2_);fill-rule: evenodd; clip-rule: evenodd;" width="51.68" height="474.37"/>
</g>
<g>
	<defs>
		<path id="SVGID_3_" d="M448.71,231.1v474.37h51.68V245.18c-14.89-2.41-28.25-7.14-39.96-14.08H448.71z"/>
	</defs>
	<clipPath id="SVGID_4_">
		<use xlink:href="#SVGID_3_"  style="overflow:visible;"/>
	</clipPath>
	<rect x="440.18" y="398.87" class="Colour3 fill" style="clip-path: url(#SVGID_4_);fill-rule: evenodd; clip-rule: evenodd;" width="69.82" height="29.38"/>
	<rect x="440.18" y="369.49" class="Colour2 fill" style="clip-path: url(#SVGID_4_);fill-rule: evenodd; clip-rule: evenodd;" width="69.82" height="29.38"/>
	<rect x="440.18" y="322.33" class="Colour3 fill" style="clip-path: url(#SVGID_4_);fill-rule: evenodd; clip-rule: evenodd;" width="69.82" height="47.16"/>
	<rect x="440.18" y="305.32" class="Colour2 fill" style="clip-path: url(#SVGID_4_);fill-rule: evenodd; clip-rule: evenodd;" width="69.82" height="17.01"/>
	<rect x="440.18" y="245.79" class="Colour4 fill" style="clip-path: url(#SVGID_4_);fill-rule: evenodd; clip-rule: evenodd;" width="69.82" height="42.52"/>
</g>
<g>
	<defs>
		<path id="SVGID_5_" d="M178.51,0.55L88.03,33.82c23.51,120.75-7.07,201.8-87.63,211.31v460.42h500V245.18
			c-77.85-12.62-114.14-88.59-88.82-212.04L323.65,0.55C292,30.69,207.99,34.37,178.51,0.55"/>
	</defs>
	<clipPath id="SVGID_6_">
		<use xlink:href="#SVGID_5_"  style="overflow:visible;"/>
	</clipPath>
	<rect x="0.4" y="231.1" class="Colour5 stroke" style="clip-path: url(#SVGID_6_);fill-rule: evenodd; clip-rule: evenodd;" width="51.68" height="474.37"/>
	<rect x="0.4" y="231.1" class="Colour6 fill" style="clip-path: url(#SVGID_6_);fill-rule: evenodd; clip-rule: evenodd;" width="51.68" height="474.37"/>
</g>
<g>
	<defs>
		<path id="SVGID_7_" d="M42.7,231.1c-12.08,7.37-26.19,12.13-42.3,14.03v460.33h51.68V231.1H42.7z"/>
	</defs>
	<clipPath id="SVGID_8_">
		<use xlink:href="#SVGID_7_"  style="overflow:visible;"/>
	</clipPath>
	<rect x="-8.13" y="398.87" class="Colour3 fill" style="clip-path: url(#SVGID_8_);fill-rule: evenodd; clip-rule: evenodd;" width="69.82" height="29.38"/>
	<rect x="-8.13" y="369.49" class="Colour2 fill" style="clip-path: url(#SVGID_8_);fill-rule: evenodd; clip-rule: evenodd;" width="69.82" height="29.38"/>
	<rect x="-8.13" y="322.33" class="Colour3 fill" style="clip-path: url(#SVGID_8_);fill-rule: evenodd; clip-rule: evenodd;" width="69.82" height="47.16"/>
	<rect x="-8.13" y="305.32" class="Colour2 fill" style="clip-path: url(#SVGID_8_);fill-rule: evenodd; clip-rule: evenodd;" width="69.82" height="17.01"/>
	<rect x="-8.13" y="245.79" class="Colour4 fill" style="clip-path: url(#SVGID_8_);fill-rule: evenodd; clip-rule: evenodd;" width="69.82" height="42.52"/>
</g>
<path class="st13" d="M0.4,705.55h500V245.18c-77.84-12.62-114.14-88.59-88.82-212.04L323.65,0.55
	c-31.65,30.14-115.65,33.82-145.14,0L88.03,33.82c23.5,120.75-7.07,201.8-87.63,211.31V705.55z"/>
<path class="InnerTrim fill" d="M340.2,7.27l-9.9-3.71l-5.07,5.82c-35.47,30.15-116.19,33.83-150.7,0.48l-6.69-5.23l-7.24,2.69
	l4.44,5.16c36.05,41.84,130.27,38.03,168.5,1.2L340.2,7.27z"/>
<path class="InnerTrim fill" d="M500.39,263.78v-9.64l-8.96-1.25c-98.32-21.57-106-129.68-90.28-213.91l1.77-9.05l-8.49-3.15
	l-0.53,2.61c-14.02,68.37-16.28,159.04,42.92,207.44c17.64,14.42,38.48,22.89,60.74,26.5L500.39,263.78z"/>
<path class="InnerTrim fill" d="M105.22,27.5l-8.66,3.18l1.7,9.07c14.47,81.57,10.05,195.41-88.89,213.26l-8.96,0.96v9.66l2.08-0.24
	c23.07-2.73,44.64-10.89,62.68-25.97c57.19-47.84,53.54-140.62,40.59-207.16L105.22,27.5z"/>
<path class="st14" d="M340.2,7.27l-9.9-3.71l-5.07,5.82c-35.47,30.15-116.19,33.83-150.7,0.48l-6.69-5.23l-7.24,2.69l4.44,5.16
	c36.05,41.84,130.27,38.03,168.5,1.2L340.2,7.27z"/>
<path class="st14" d="M500.39,263.78v-9.64l-8.96-1.25c-98.32-21.57-106-129.68-90.28-213.91l1.77-9.05l-8.49-3.15l-0.53,2.61
	c-14.02,68.37-16.28,159.04,42.92,207.44c17.64,14.42,38.48,22.89,60.74,26.5L500.39,263.78z"/>
<path class="st14" d="M105.22,27.5l-8.66,3.18l1.7,9.07c14.47,81.57,10.05,195.41-88.89,213.26l-8.96,0.96v9.66l2.08-0.24
	c23.07-2.73,44.64-10.89,62.68-25.97c57.19-47.84,53.54-140.62,40.59-207.16L105.22,27.5z"/>
<path class="NeckAndArmTrim fill" d="M331.63,3.56l-8.02-3.01c-31.28,30.14-114.31,33.82-143.46,0l-10.98,4.09l6.69,5.23
	c34.5,33.35,115.23,29.67,150.7-0.48L331.63,3.56z"/>
<path class="NeckAndArmTrim fill" d="M96.55,30.69l-1.11,0.41l-7.42,2.73c0.64,3.3,1.24,6.56,1.8,9.79
	C109.82,158.94,78.76,235.87,0.4,245.13v1.12v7.71l8.97-0.96c98.94-17.85,103.37-131.69,88.89-213.26L96.55,30.69z"/>
<path class="NeckAndArmTrim fill" d="M500.4,254.14v-8.96c-75.97-12.32-112.35-84.97-90.53-203.2c0.54-2.92,1.1-5.87,1.71-8.84
	l-6.91-2.56l-1.75-0.65l-1.77,9.05c-15.72,84.23-8.04,192.35,90.28,213.91L500.4,254.14z"/>
<path class="st14" d="M331.63,3.56l-8.02-3.01c-31.28,30.14-114.31,33.82-143.46,0l-10.98,4.09l6.69,5.23
	c34.5,33.35,115.23,29.67,150.7-0.48L331.63,3.56z"/>
<path class="st14" d="M96.55,30.69l-1.11,0.41l-7.42,2.73c0.64,3.3,1.24,6.56,1.8,9.79C109.82,158.94,78.76,235.87,0.4,245.13v1.12
	v7.71l8.97-0.96c98.94-17.85,103.37-131.69,88.89-213.26L96.55,30.69z"/>
<path class="st14" d="M500.4,254.14v-8.96c-75.97-12.32-112.35-84.97-90.53-203.2c0.54-2.92,1.1-5.87,1.71-8.84l-6.91-2.56
	l-1.75-0.65l-1.77,9.05c-15.72,84.23-8.04,192.35,90.28,213.91L500.4,254.14z"/>
<g id="BBodyLogos"></g>
</svg>
