<?xml version="1.0" encoding="utf-8"?>
<!-- Generator: Adobe Illustrator 19.1.0, SVG Export Plug-In . SVG Version: 6.00 Build 0)  -->
<svg version="1.1" id="Layer_1" xmlns="http://www.w3.org/2000/svg" xmlns:xlink="http://www.w3.org/1999/xlink" x="0px" y="0px"
	 viewBox="0 0 500.79 706.1" style="enable-background:new 0 0 500.79 706.1;" xml:space="preserve">
<style type="text/css">
	<![CDATA[
	@font-face{font-family:'codaheavy';src:url('/fonts/coda-heavy-webfont.woff') format('woff')}
	text{font-family:Impact,codaheavy,sans-serif}
	.Number.fill{fill:#000}
	.NumberOutline.stroke{fill:none;stroke:#777;stroke-width:2.5}
	.Colour1.fill{fill-rule:evenodd;clip-rule:evenodd;fill:#FFFFFF;}
	.Colour2.fill{clip-path:url(#SVGID_2_);fill-rule:evenodd;clip-rule:evenodd;fill:#3CB9EF;}
	.Colour3.fill{clip-path:url(#SVGID_2_);fill-rule:evenodd;clip-rule:evenodd;fill:#231F20;}
	.InnerTrim.fill{fill-rule:evenodd;clip-rule:evenodd;fill:#3CB9EF;}
	.NeckAndArmTrim.fill{fill-rule:evenodd;clip-rule:evenodd;fill:#3CB9EF;}
	.st0{clip-path:url(#SVGID_2_);fill:none;stroke:#231F20;stroke-width:0.5;stroke-miterlimit:10;stroke-dasharray:4.8,2.4;}
	.st3{fill:none;stroke:#231F20;stroke-width:0.5;stroke-miterlimit:2.613;}
	.st4{fill:none;stroke:#3CB9EF;stroke-width:0.5;stroke-miterlimit:2.613;}
	]]>
</style>
<path class="Colour1 fill" d="M0.63,705.5l499.7,0.1l0.09-460.34c-77.79-12.64-114.05-88.61-88.72-212.05L323.83,0.6
	C292.19,30.74,208.24,34.4,178.77,0.58L88.34,33.83c23.46,120.75-7.11,201.78-87.62,211.28L0.63,705.5z"/>
<g>
	<defs>
		<path id="SVGID_1_" d="M178.4,0.55L87.97,33.82c23.49,120.75-7.06,201.78-87.58,211.3v460.39h499.7V245.16
			c-77.8-12.62-114.07-88.58-88.76-212.03L323.45,0.55C291.82,30.69,207.87,34.37,178.4,0.55"/>
	</defs>
	<clipPath id="SVGID_2_">
		<use xlink:href="#SVGID_1_"  style="overflow:visible;"/>
	</clipPath>
	<line class="st0" x1="-16.05" y1="690.44" x2="516.53" y2="690.44"/>
	<line class="st0" x1="-16.05" y1="683.43" x2="516.53" y2="683.43"/>
	<rect x="-30.6" y="-25.03" class="Colour2 fill" width="561.68" height="205.72"/>
	<rect x="-30.6" y="202.41" class="Colour3 fill" width="561.68" height="14.06"/>
	<rect x="-30.6" y="224.86" class="Colour2 fill" width="561.68" height="8.18"/>
</g>
<path class="st3" d="M0.7,705.55h499.7V245.2c-77.8-12.62-114.07-88.58-88.76-212.03L323.76,0.59
	c-31.63,30.14-115.59,33.82-145.05,0L88.28,33.86c23.49,120.75-7.07,201.78-87.58,211.3V705.55z"/>
<path class="InnerTrim fill" d="M340.29,7.31l-9.9-3.71l-5.07,5.82C289.88,39.57,209.21,43.25,174.72,9.9l-5.96-5.65l-7.96,3.12
	l4.44,5.16c36.03,41.84,130.19,38.03,168.4,1.2L340.29,7.31z"/>
<path class="InnerTrim fill" d="M500.4,263.81v-9.64l-8.96-1.25c-98.26-21.57-105.93-129.67-90.22-213.9l1.77-9.05l-8.49-3.15
	l-0.53,2.6c-14.02,68.37-16.27,159.03,42.89,207.43c17.63,14.42,38.46,22.89,60.7,26.5L500.4,263.81z"/>
<path class="InnerTrim fill" d="M105.46,27.54l-8.66,3.18l1.7,9.07c14.47,81.56,10.05,195.4-88.84,213.24l-8.96,0.96v9.66l2.08-0.24
	c23.06-2.73,44.61-10.88,62.64-25.97c57.15-47.83,53.51-140.61,40.57-207.14L105.46,27.54z"/>
<path class="st4" d="M340.29,7.31l-9.9-3.71l-5.07,5.82C289.88,39.57,209.21,43.25,174.72,9.9l-5.96-5.65l-7.96,3.12l4.44,5.16
	c36.03,41.84,130.19,38.03,168.4,1.2L340.29,7.31z"/>
<path class="st4" d="M500.4,263.81v-9.64l-8.96-1.25c-98.26-21.57-105.93-129.67-90.22-213.9l1.77-9.05l-8.49-3.15l-0.53,2.6
	c-14.02,68.37-16.27,159.03,42.89,207.43c17.63,14.42,38.46,22.89,60.7,26.5L500.4,263.81z"/>
<path class="st4" d="M105.46,27.54l-8.66,3.18l1.7,9.07c14.47,81.56,10.05,195.4-88.84,213.24l-8.96,0.96v9.66l2.08-0.24
	c23.06-2.73,44.61-10.88,62.64-25.97c57.15-47.83,53.51-140.61,40.57-207.14L105.46,27.54z"/>
<path class="st3" d="M160.8,7.37c39.11,45.41,129.75,47.9,172.84,6.35l6.65-6.41"/>
<path class="st3" d="M394.49,26.82c-14.21,69.34-17.77,160.84,42.36,210.03c17.63,14.42,38.46,22.89,60.7,26.5"/>
<path class="st3" d="M0.7,263.65c24.25-2.87,45.65-10.26,64.72-26.22c58.08-48.61,53.18-142.3,40.03-209.9"/>
<path class="NeckAndArmTrim fill" d="M331.73,3.6l-8.01-3.01c-31.27,30.14-115.88,33.82-145.01,0l-9.94,3.66l5.96,5.65
	c34.48,33.34,116.49,29.67,151.94-0.48L331.73,3.6z"/>
<path class="NeckAndArmTrim fill" d="M96.8,30.72l-1.1,0.41l-7.42,2.73c0.64,3.3,1.23,6.56,1.8,9.79
	C110.06,158.97,79.02,235.9,0.7,245.16v1.12v7.71l8.96-0.96c98.88-17.85,103.3-131.68,88.84-213.24L96.8,30.72z"/>
<path class="NeckAndArmTrim fill" d="M500.4,254.17v-8.96c-75.92-12.32-112.28-84.96-90.47-203.19c0.54-2.92,1.1-5.86,1.71-8.84
	l-6.9-2.56l-1.75-0.65l-1.77,9.05c-15.71,84.23-8.04,192.33,90.22,213.9L500.4,254.17z"/>
<path class="st4" d="M331.73,3.6l-8.01-3.01c-31.27,30.14-115.88,33.82-145.01,0l-9.94,3.66l5.96,5.65
	c34.48,33.34,116.49,29.67,151.94-0.48L331.73,3.6z"/>
<path class="st4" d="M96.8,30.72l-1.1,0.41l-7.42,2.73c0.64,3.3,1.23,6.56,1.8,9.79C110.06,158.97,79.02,235.9,0.7,245.16v1.12v7.71
	l8.96-0.96c98.88-17.85,103.3-131.68,88.84-213.24L96.8,30.72z"/>
<path class="st4" d="M500.4,254.17v-8.96c-75.92-12.32-112.28-84.96-90.47-203.19c0.54-2.92,1.1-5.86,1.71-8.84l-6.9-2.56
	l-1.75-0.65l-1.77,9.05c-15.71,84.23-8.04,192.33,90.22,213.9L500.4,254.17z"/>
<g id="BBodyLogos"></g>
</svg>
