<?xml version="1.0" encoding="utf-8"?>
<!-- Generator: Adobe Illustrator 19.1.0, SVG Export Plug-In . SVG Version: 6.00 Build 0)  -->
<svg version="1.1" id="Layer_1" xmlns="http://www.w3.org/2000/svg" xmlns:xlink="http://www.w3.org/1999/xlink" x="0px" y="0px"
	 viewBox="0 0 500.79 706.1" style="enable-background:new 0 0 500.79 706.1;" xml:space="preserve">
<style type="text/css">
	<![CDATA[
	@font-face{font-family:'codaheavy';src:url('/fonts/coda-heavy-webfont.woff') format('woff')}
	text{font-family:Impact,codaheavy,sans-serif}
	.Number.fill{fill:#000}
	.NumberOutline.stroke{fill:none;stroke:#777;stroke-width:2.5}
	.Colour1.fill{fill-rule:evenodd;clip-rule:evenodd;fill:#B9041A;}
	.Colour2.fill{fill-rule:evenodd;clip-rule:evenodd;fill:#231F20;}
	.InnnerTrim.fill{fill-rule:evenodd;clip-rule:evenodd;fill:#231F20;}
	.NeckAndArmTrim.fill{fill:#B9041A;}
	.Gradient1.stopColor{stop-color:#929497;}
	.Gradient2.stopColor{stop-color:#404041;}
	.st0{clip-path:url(#SVGID_2_);fill:none;stroke:#231F20;stroke-width:0.5;stroke-miterlimit:10;stroke-dasharray:4.8,2.4;}
	.st1{clip-path:url(#SVGID_2_);fill-rule:evenodd;clip-rule:evenodd;fill:#231F20;}
	.st2{clip-path:url(#SVGID_2_);fill:none;stroke:#231F20;stroke-width:0.5;stroke-miterlimit:2.613;}
	.st3{clip-path:url(#SVGID_4_);fill:url(#SVGID_5_);}
	.st4{clip-path:url(#SVGID_7_);fill:none;stroke:#231F20;stroke-width:0.5;stroke-miterlimit:2.613;}
	.st5{fill:none;stroke:#231F20;stroke-width:0.5;stroke-miterlimit:2.613;}
	]]>
</style>
<path class="Colour1 fill" d="M0.4,705.55h500V245.18c-77.84-12.62-114.14-88.59-88.82-212.04L323.65,0.55
	c-31.65,30.14-115.66,33.82-145.14,0L88.03,33.82c23.5,120.75-7.07,201.8-87.63,211.31V705.55z"/>
<g>
	<defs>
		<path id="SVGID_1_" d="M178.51,0.55L88.03,33.82c23.5,120.75-7.07,201.8-87.63,211.31v460.42h500V245.18
			c-77.84-12.62-114.14-88.59-88.81-212.04L323.65,0.55C292,30.69,207.99,34.37,178.51,0.55"/>
	</defs>
	<clipPath id="SVGID_2_">
		<use xlink:href="#SVGID_1_"  style="overflow:visible;"/>
	</clipPath>
	<line class="st0" x1="-16.06" y1="690.47" x2="516.85" y2="690.47"/>
	<line class="st0" x1="-16.06" y1="683.47" x2="516.85" y2="683.47"/>
	<polygon class="Colour2 fill" style="clip-path:url(#SVGID_2_);fill-rule:evenodd;clip-rule:evenodd;" points="477.04,242.65 -58.91,651.48 23.75,763.53 559.7,354.7 	"/>
	<polygon class="st2" points="477.04,242.65 -58.91,651.48 23.75,763.53 559.7,354.7 	"/>
</g>
<g>
	<defs>
		<path id="SVGID_3_" d="M72.74,705.55h13.41l414.25-315.99v-10.23L72.74,705.55z M45.75,705.55h13.41l441.23-336.58v-10.23
			L45.75,705.55z M18.77,705.55h13.41l468.22-357.17v-10.23L18.77,705.55z M0.4,698.97v6.57h4.79l495.21-377.76v-10.23L0.4,698.97z
			 M0.4,678.38v10.22l500-381.41v-10.22L0.4,678.38z M0.4,657.79v10.23l500-381.41v-10.23L0.4,657.79z M0.4,637.21v10.23
			l496.09-378.43l-4.83-6.54L0.4,637.21z M0.4,616.62v10.23l486.37-371.01l-4.83-6.54L0.4,616.62z"/>
	</defs>
	<clipPath id="SVGID_4_">
		<use xlink:href="#SVGID_3_"  style="overflow:visible;"/>
	</clipPath>
	
		<linearGradient id="SVGID_5_" gradientUnits="userSpaceOnUse" x1="-78.155" y1="590.9493" x2="-76.2723" y2="590.9493" gradientTransform="matrix(-219.7377 370.315 370.315 219.7377 -235559.4531 -100773.4531)">
		<stop  offset="0.44" class="Gradient1 stopColor" style="stop-color:#929497"/>
		<stop  offset="0.71" class="Gradient2 stopColor" style="stop-color:#404041"/>
	</linearGradient>
	<polygon class="st3" points="697.31,368.11 370.19,928.67 -196.52,586.73 130.6,26.17 	"/>
</g>
<g>
	<defs>
		<path id="SVGID_6_" d="M178.51,0.55L88.03,33.82c23.5,120.75-7.07,201.8-87.63,211.31v460.42h500V245.18
			c-77.84-12.62-114.14-88.59-88.81-212.04L323.65,0.55C292,30.69,207.99,34.37,178.51,0.55"/>
	</defs>
	<clipPath id="SVGID_7_">
		<use xlink:href="#SVGID_6_"  style="overflow:visible;"/>
	</clipPath>
	<path class="st4" d="M491.66,262.47L-44.29,671.3l4.83,6.54l535.95-408.83L491.66,262.47z M501.38,275.64L-34.57,684.47l4.83,6.54
		L506.2,282.19L501.38,275.64z M511.1,288.82L-24.85,697.65l4.83,6.54l535.95-408.83L511.1,288.82z M520.81,301.99L-15.13,710.82
		l4.83,6.54l535.95-408.83L520.81,301.99z M530.53,315.16L-5.42,723.99l4.83,6.54l535.95-408.83L530.53,315.16z M540.25,328.34
		L4.3,737.17l4.83,6.54l535.95-408.83L540.25,328.34z M549.97,341.51L14.02,750.34l4.83,6.54L554.8,348.05L549.97,341.51z
		 M481.94,249.29L-54.01,658.12l4.83,6.54l535.95-408.83L481.94,249.29z"/>
</g>
<path class="st5" d="M0.4,705.55h500V245.18c-77.84-12.62-114.14-88.59-88.82-212.04L323.65,0.55
	c-31.65,30.14-115.66,33.82-145.14,0L88.03,33.82c23.5,120.75-7.07,201.8-87.63,211.31V705.55z"/>
<path class="InnerTrim fill" d="M340.2,7.27l-9.9-3.71l-5.07,5.82c-35.47,30.15-116.19,33.83-150.7,0.48l-5.97-5.65l-7.96,3.12l4.45,5.16
	c36.05,41.84,130.27,38.03,168.5,1.2L340.2,7.27z"/>
<path class="InnerTrim fill" d="M500.4,263.78v-9.64l-8.96-1.25c-98.32-21.57-106-129.68-90.28-213.91l1.77-9.05l-8.49-3.15l-0.54,2.61
	c-14.02,68.37-16.28,159.04,42.92,207.44c17.64,14.42,38.48,22.89,60.74,26.5L500.4,263.78z"/>
<path class="InnerTrim fill" d="M105.22,27.5l-8.66,3.18l1.7,9.07c14.47,81.57,10.05,195.41-88.89,213.26l-8.96,0.96v9.66l2.08-0.24
	c23.07-2.73,44.64-10.89,62.68-25.97c57.18-47.84,53.54-140.62,40.59-207.16L105.22,27.5z"/>
<path class="st5" d="M340.2,7.27l-9.9-3.71l-5.07,5.82c-35.47,30.15-116.19,33.83-150.7,0.48l-5.97-5.65l-7.96,3.12l4.45,5.16
	c36.05,41.84,130.27,38.03,168.5,1.2L340.2,7.27z"/>
<path class="st5" d="M500.4,263.78v-9.64l-8.96-1.25c-98.32-21.57-106-129.68-90.28-213.91l1.77-9.05l-8.49-3.15l-0.54,2.61
	c-14.02,68.37-16.28,159.04,42.92,207.44c17.64,14.42,38.48,22.89,60.74,26.5L500.4,263.78z"/>
<path class="st5" d="M105.22,27.5l-8.66,3.18l1.7,9.07c14.47,81.57,10.05,195.41-88.89,213.26l-8.96,0.96v9.66l2.08-0.24
	c23.07-2.73,44.64-10.89,62.68-25.97c57.18-47.84,53.54-140.62,40.59-207.16L105.22,27.5z"/>
<path class="st5" d="M160.59,7.33c39.16,44.52,129.87,45.88,172.95,6.35l6.66-6.41"/>
<path class="st5" d="M394.43,26.78c-14.22,69.35-17.78,160.85,42.38,210.04c17.64,14.42,38.48,22.89,60.74,26.5"/>
<path class="st5" d="M0.4,263.63c24.27-2.87,45.68-10.26,64.76-26.22C123.27,188.8,118.37,95.1,105.22,27.5"/>
<path class="NeckAndArmTrim fill" d="M331.63,3.56l-8.02-3.01c-31.28,30.14-115.96,33.82-145.1,0l-9.95,3.66l5.97,5.65
	c34.51,33.35,116.56,29.67,152.03-0.48L331.63,3.56z"/>
<path class="NeckAndArmTrim fill" d="M96.55,30.69l-1.1,0.41l-7.42,2.73c0.64,3.3,1.23,6.56,1.8,9.79
	C109.82,158.94,78.76,235.87,0.4,245.13v1.12v7.71l8.96-0.96c98.95-17.85,103.37-131.69,88.89-213.26L96.55,30.69z"/>
<path class="NeckAndArmTrim fill" d="M500.4,254.14v-8.96c-75.97-12.32-112.35-84.97-90.53-203.2c0.54-2.92,1.11-5.87,1.72-8.84
	l-6.91-2.56l-1.76-0.65l-1.77,9.05c-15.72,84.23-8.04,192.35,90.28,213.91L500.4,254.14z"/>
<path class="st5" d="M331.63,3.56l-8.02-3.01c-31.28,30.14-115.96,33.82-145.1,0l-9.95,3.66l5.97,5.65
	c34.51,33.35,116.56,29.67,152.03-0.48L331.63,3.56z"/>
<path class="st5" d="M96.55,30.69l-1.1,0.41l-7.42,2.73c0.64,3.3,1.23,6.56,1.8,9.79C109.82,158.94,78.76,235.87,0.4,245.13v1.12
	v7.71l8.96-0.96c98.95-17.85,103.37-131.69,88.89-213.26L96.55,30.69z"/>
<path class="st5" d="M500.4,254.14v-8.96c-75.97-12.32-112.35-84.97-90.53-203.2c0.54-2.92,1.11-5.87,1.72-8.84l-6.91-2.56
	l-1.76-0.65l-1.77,9.05c-15.72,84.23-8.04,192.35,90.28,213.91L500.4,254.14z"/>
<g id="BBodyLogos"></g>
</svg>
