<?xml version="1.0" encoding="utf-8"?>
<!-- Generator: Adobe Illustrator 19.1.0, SVG Export Plug-In . SVG Version: 6.00 Build 0)  -->
<svg version="1.1" id="Layer_1" xmlns="http://www.w3.org/2000/svg" xmlns:xlink="http://www.w3.org/1999/xlink" x="0px" y="0px"
	 viewBox="0 0 500.79 706.1" style="enable-background:new 0 0 500.79 706.1;" xml:space="preserve">
<style type="text/css">
	<![CDATA[
	@font-face{font-family:'codaheavy';src:url('/fonts/coda-heavy-webfont.woff') format('woff')}
	text{font-family:Impact,codaheavy,sans-serif}
	.Number.fill{fill:#000}
	.NumberOutline.stroke{fill:none;stroke:#777;stroke-width:2.5}
	.Colour1.fill{fill-rule:evenodd;clip-rule:evenodd;fill:#FFC61E;}
	.Colour2.fill{clip-path:url(#SVGID_2_);fill-rule:evenodd;clip-rule:evenodd;fill:#FB3624;}
	.Colour3.fill{clip-path:url(#SVGID_2_);fill-rule:evenodd;clip-rule:evenodd;fill:#FB5725;}
	.Colour4.fill{clip-path:url(#SVGID_2_);fill-rule:evenodd;clip-rule:evenodd;fill:#FB7826;}
	.Colour5.fill{clip-path:url(#SVGID_2_);fill-rule:evenodd;clip-rule:evenodd;fill:#FB8627;}
	.Colour6.fill{clip-path:url(#SVGID_2_);fill-rule:evenodd;clip-rule:evenodd;fill:#FB9F28;}
	.InnerTrim.fill{fill-rule:evenodd;clip-rule:evenodd;fill:#B9041A;}
	.NeckAndArmTrim.fill{fill-rule:evenodd;clip-rule:evenodd;fill:#B9041A;}
	.st0{clip-path:url(#SVGID_2_);fill:none;stroke:#231F20;stroke-width:0.5;stroke-miterlimit:10;stroke-dasharray:4.8,2.4;}
	.st6{fill:none;stroke:#231F20;stroke-width:0.5;stroke-miterlimit:2.613;}
	.st7{fill:none;stroke:#B9041A;stroke-width:0.5;stroke-miterlimit:2.613;}
	]]>
</style>
<path class="Colour1 fill" d="M0.4,705.55h500V245.18c-77.84-12.62-114.14-88.59-88.81-212.05L323.65,0.55
	C292,30.69,208,34.37,178.51,0.55c-30.16,11.09-60.32,22.18-90.48,33.27c23.5,120.75-7.07,201.79-87.63,211.31V705.55z"/>
<g>
	<defs>
		<path id="SVGID_1_" d="M178.51,0.55c-30.16,11.09-60.32,22.18-90.48,33.27c23.5,120.75-7.07,201.79-87.63,211.31v460.42h500
			V245.17c-77.84-12.62-114.14-88.59-88.82-212.04L323.65,0.55C292,30.69,207.99,34.37,178.51,0.55"/>
	</defs>
	<clipPath id="SVGID_2_">
		<use xlink:href="#SVGID_1_"  style="overflow:visible;"/>
	</clipPath>
	<line class="st0" x1="-16.06" y1="690.47" x2="516.85" y2="690.47"/>
	<line class="st0" x1="-16.06" y1="683.47" x2="516.85" y2="683.47"/>
	<rect x="-1.56" y="494.96" class="Colour2 fill" width="500" height="210.51"/>
	<rect x="-1.56" y="431.93" class="Colour3 fill" width="500" height="63.03"/>
	<rect x="-1.56" y="368.9" class="Colour4 fill" width="500" height="63.03"/>
	<rect x="-1.56" y="305.87" class="Colour5 fill" width="500" height="63.03"/>
	<rect x="-1.56" y="242.84" class="Colour6 fill" width="500" height="63.03"/>
</g>
<path class="st6" d="M0.4,705.55h500V245.18c-77.84-12.62-114.14-88.59-88.81-212.05L323.65,0.55C292,30.69,208,34.37,178.51,0.55
	c-30.16,11.09-60.32,22.18-90.48,33.27c23.5,120.75-7.07,201.79-87.63,211.31V705.55z"/>
<path class="InnerTrim fill" d="M340.2,7.27l-9.9-3.71l-5.07,5.82c-35.47,30.15-116.2,33.83-150.7,0.48l-5.97-5.65l-7.97,3.12
	l4.44,5.16c36.05,41.84,130.27,38.03,168.5,1.2L340.2,7.27z"/>
<path class="InnerTrim fill" d="M500.39,263.78v-9.64l-8.96-1.25c-98.32-21.57-106-129.68-90.28-213.91l1.77-9.05l-8.49-3.15
	l-0.53,2.61c-14.02,68.37-16.28,159.04,42.92,207.44c17.64,14.42,38.49,22.89,60.74,26.5L500.39,263.78z"/>
<path class="InnerTrim fill" d="M105.21,27.5l-8.66,3.19l1.7,9.07c14.47,81.57,10.05,195.41-88.89,213.25l-8.97,0.96v9.66l2.09-0.25
	c23.07-2.72,44.64-10.88,62.68-25.97c57.18-47.83,53.54-140.62,40.59-207.15L105.21,27.5z"/>
<path class="st7" d="M340.2,7.27l-9.9-3.71l-5.07,5.82c-35.47,30.15-116.2,33.83-150.7,0.48l-5.97-5.65l-7.97,3.12l4.44,5.16
	c36.05,41.84,130.27,38.03,168.5,1.2L340.2,7.27z"/>
<path class="st7" d="M500.39,263.78v-9.64l-8.96-1.25c-98.32-21.57-106-129.68-90.28-213.91l1.77-9.05l-8.49-3.15l-0.53,2.61
	c-14.02,68.37-16.28,159.04,42.92,207.44c17.64,14.42,38.49,22.89,60.74,26.5L500.39,263.78z"/>
<path class="st7" d="M105.21,27.5l-8.66,3.19l1.7,9.07c14.47,81.57,10.05,195.41-88.89,213.25l-8.97,0.96v9.66l2.09-0.25
	c23.07-2.72,44.64-10.88,62.68-25.97c57.18-47.83,53.54-140.62,40.59-207.15L105.21,27.5z"/>
<path class="st6" d="M160.59,7.33c39.14,45.42,129.83,47.9,172.95,6.35l6.66-6.41"/>
<path class="st6" d="M394.43,26.78c-14.22,69.34-17.78,160.85,42.39,210.04c17.64,14.42,38.48,22.89,60.74,26.5"/>
<path class="st6" d="M0.4,263.63c24.27-2.87,45.68-10.26,64.77-26.22C123.27,188.8,118.37,95.1,105.22,27.5"/>
<path class="NeckAndArmTrim fill" d="M331.63,3.56l-8.02-3.01c-31.29,30.14-115.95,33.82-145.1,0l-9.95,3.66l5.97,5.65
	c34.5,33.35,116.56,29.67,152.03-0.48L331.63,3.56z"/>
<path class="NeckAndArmTrim fill" d="M96.55,30.68l-1.1,0.41l-7.42,2.73c0.64,3.3,1.24,6.56,1.8,9.79
	C109.82,158.94,78.76,235.87,0.4,245.13v1.12v7.71l8.97-0.96c98.95-17.85,103.37-131.69,88.9-213.25L96.55,30.68z"/>
<path class="NeckAndArmTrim fill" d="M500.39,254.14v-8.96c-75.96-12.32-112.35-84.97-90.53-203.2c0.54-2.92,1.1-5.86,1.72-8.84
	l-6.91-2.56l-1.75-0.65l-1.77,9.05c-15.72,84.24-8.04,192.35,90.28,213.91L500.39,254.14z"/>
<path class="st7" d="M331.63,3.56l-8.02-3.01c-31.29,30.14-115.95,33.82-145.1,0l-9.95,3.66l5.97,5.65
	c34.5,33.35,116.56,29.67,152.03-0.48L331.63,3.56z"/>
<path class="st7" d="M96.55,30.68l-1.1,0.41l-7.42,2.73c0.64,3.3,1.24,6.56,1.8,9.79C109.82,158.94,78.76,235.87,0.4,245.13v1.12
	v7.71l8.97-0.96c98.95-17.85,103.37-131.69,88.9-213.25L96.55,30.68z"/>
<path class="st7" d="M500.39,254.14v-8.96c-75.96-12.32-112.35-84.97-90.53-203.2c0.54-2.92,1.1-5.86,1.72-8.84l-6.91-2.56
	l-1.75-0.65l-1.77,9.05c-15.72,84.24-8.04,192.35,90.28,213.91L500.39,254.14z"/>
<g id="BBodyLogos"></g>
</svg>
