<?xml version="1.0" encoding="utf-8"?>
<!-- Generator: Adobe Illustrator 19.1.0, SVG Export Plug-In . SVG Version: 6.00 Build 0)  -->
<svg version="1.1" id="Layer_1" xmlns="http://www.w3.org/2000/svg" xmlns:xlink="http://www.w3.org/1999/xlink" x="0px" y="0px"
	 viewBox="0 0 500.79 706.1" style="enable-background:new 0 0 500.79 706.1;" xml:space="preserve">
<style type="text/css">
	<![CDATA[
	@font-face{font-family:'codaheavy';src:url('/fonts/coda-heavy-webfont.woff') format('woff')}
	text{font-family:Impact,codaheavy,sans-serif}
	.Number.fill{fill:#000}
	.NumberOutline.stroke{fill:none;stroke:#777;stroke-width:2.5}
	.Colour1.fill{fill:#C1B49A;}
	.Colour2.fill{fill:#10162E;}
	.Colour4.fill{fill:#F1F1F2;}
	.NeckAndArmTrim.fill{fill:#10162E;}
	.st0{fill:none;}
	]]>
</style>
<path class="Colour1 fill" d="M26.41,287.13c-7.63,5.07-16.25,9.65-26.01,13.5c0,134.97,0,269.94,0,404.92h500
	c0-135.06,0-270.12,0-405.18c-5.6-2.07-13.68-5.46-22.6-10.8c-32.6-19.54-46.84-47.5-54.73-63
	c-20.05-39.39-29.29-112.2-13.02-200.65c-26.17-7.65-52.34-15.29-78.52-22.94c-3.88,6.74-14.01,22.08-34.28,32
	c-18.38,8.99-35.05,8.61-47.31,8.33c-4.76-0.11-11.9-0.27-20.15-1.47c-5.56-0.67-11.49-1.92-17.67-4.1
	c-9.42-3.11-19.12-8.01-27.7-15.78c-7.72-6.99-12.26-14.23-14.8-18.98c-26.22,7.74-52.45,15.47-78.67,23.21
	c15.99,87.96,6.76,160.34-13.21,199.57c-5.43,10.67-13.87,27.24-29.24,42.91C41.96,275.46,34.64,281.67,26.41,287.13z"/>
<path class="st0" d="M0.4,703.92V312.53v-14.6c5.6-2.07,13.68-5.46,22.6-10.8c32.6-19.54,46.84-47.5,54.73-63
	c20.05-39.39,29.29-112.2,13.02-200.65c26.17-7.65,52.34-15.29,78.52-22.94c3.88,6.74,14.01,22.08,34.28,32
	c18.38,8.99,35.05,8.61,47.31,8.33c12.84-0.29,43.02-0.98,65.53-21.34c7.72-6.99,12.26-14.23,14.8-18.98
	c26.4,7.79,52.81,15.58,79.21,23.37c-5.06,27.35-33.95,195.74,63.99,260.78c7.63,5.07,16.25,9.65,26.01,13.5
	c0,135.24,0,270.49,0,405.73H0.4z"/>
<g>
	<g>
		<path class="Colour2 fill" d="M410.04,25.92c-26.17-7.65-52.34-15.29-78.52-22.94c-0.71,1.23-1.62,2.74-2.77,4.45l73.63,81.8
			C403.49,69.3,405.96,48.11,410.04,25.92z"/>
		<path class="Colour2 fill" d="M90.94,26.19c4.14,22.79,6.59,44.53,7.59,64.92L172.89,8.5c-1.34-2.04-2.43-3.92-3.28-5.51
			C143.39,10.72,117.16,18.46,90.94,26.19z"/>
	</g>
	<g>
		<path class="Colour2 fill" d="M410.04,25.92c-26.17-7.65-52.34-15.29-78.52-22.94c-0.71,1.23-1.62,2.74-2.77,4.45l73.63,81.8
			C403.49,69.3,405.96,48.11,410.04,25.92z"/>
		<path class="Colour2 fill" d="M90.94,26.19c4.14,22.79,6.59,44.53,7.59,64.92L172.89,8.5c-1.34-2.04-2.43-3.92-3.28-5.51
			C143.39,10.72,117.16,18.46,90.94,26.19z"/>
	</g>
</g>
<g>
	<g>
		<path class="Colour2 fill" d="M281.95,367.28l183.41-86.2c-9.21-7.11-16.59-14.83-22.56-22.4l-160.85,76.57V367.28z"/>
		<path class="Colour2 fill" d="M218.31,367.28l-183.41-86.2c9.21-7.11,16.59-14.83,22.56-22.4l160.85,76.57V367.28z"/>
	</g>
	<g>
		<path class="Colour2 fill" d="M281.95,367.28l183.41-86.2c-9.21-7.11-16.59-14.83-22.56-22.4l-160.85,76.57V367.28z"/>
		<path class="Colour2 fill" d="M218.31,367.28l-183.41-86.2c9.21-7.11,16.59-14.83,22.56-22.4l160.85,76.57V367.28z"/>
	</g>
</g>
<g>
	<g>
		<path class="Colour4 fill" d="M335.37,388.42l165.02-75.54c0-4.17,0-8.34,0-12.51c-5.6-2.07-13.68-5.46-22.6-10.8
			c-4.49-2.69-8.61-5.54-12.44-8.49l-129.99,61.09V388.42z"/>
		<path class="Colour4 fill" d="M0.4,312.88l165.02,75.54v-46.25L35.03,280.89c-1.38,1.09-2.78,2.15-4.22,3.19
			c-1.44,1.04-2.9,2.06-4.4,3.05c-7.63,5.07-16.25,9.65-26.01,13.5C0.4,304.71,0.4,308.8,0.4,312.88z"/>
	</g>
	<g>
		<path class="Colour4 fill" d="M335.37,388.42l165.02-75.54c0-4.17,0-8.34,0-12.51c-5.6-2.07-13.68-5.46-22.6-10.8
			c-4.49-2.69-8.61-5.54-12.44-8.49l-129.99,61.09V388.42z"/>
		<path class="Colour4 fill" d="M0.4,312.88l165.02,75.54v-46.25L35.03,280.89c-1.38,1.09-2.78,2.15-4.22,3.19
			c-1.44,1.04-2.9,2.06-4.4,3.05c-7.63,5.07-16.25,9.65-26.01,13.5C0.4,304.71,0.4,308.8,0.4,312.88z"/>
	</g>
</g>
<path class="NeckAndArmTrim fill" d="M0.4,316.37c10.47-3.56,26.35-10.04,42.57-21.81c75.09-54.52,73.4-161.51,72.75-202.19
	c-0.41-25.72-3.59-49.57-8.33-71.24l-15.96,4.72c1.81,11.63,4.09,28.64,5.52,49.28c2.33,33.67,2.83,61.66-3.47,95.27
	c-5.1,27.23-11.69,52.12-32.54,82.74c-18.1,26.59-44.93,39.82-60.54,46.76V316.37z"/>
<path class="NeckAndArmTrim fill" d="M500.39,316.37c-13.83-4.89-25.58-11-35.6-17.71c-108-72.27-75.39-253.79-70.83-277.38l15.96,4.69
	c-15.68,101.66-1.97,177.79,18.26,209.77c21.61,34.17,50.81,54.14,50.81,54.14c8.77,5.06,16.53,8.23,21.41,10.03V316.37z"/>
<path class="NeckAndArmTrim fill" d="M349.45,7.99c-3.84,6.65-10.41,16.23-21.12,25.42c-28.64,24.58-63.88,26.59-75.73,26.71
	c-9.05,0.09-45.21-0.53-76.18-25.04c-12.2-9.66-19.74-19.97-24.14-27.09l16.92-5.01c6.34,8.99,21.88,28.03,48.96,36.13
	c14.19,4.24,26.41,3.95,35.74,3.72c14.35-0.35,32.24-0.78,49.9-11.17c14.06-8.27,22.46-19.62,27.35-28.68L349.45,7.99z"/>
<g id="BBodyLogos"></g>
</svg>
