<?xml version="1.0" encoding="utf-8"?>
<!-- Generator: Adobe Illustrator 19.1.0, SVG Export Plug-In . SVG Version: 6.00 Build 0)  -->
<svg version="1.1" id="Layer_1" xmlns="http://www.w3.org/2000/svg" xmlns:xlink="http://www.w3.org/1999/xlink" x="0px" y="0px"
	 viewBox="0 0 500.79 706.1" style="enable-background:new 0 0 500.79 706.1;" xml:space="preserve">
<style type="text/css">
	<![CDATA[
	@font-face{font-family:'codaheavy';src:url('/fonts/coda-heavy-webfont.woff') format('woff')}
	text{font-family:Impact,codaheavy,sans-serif}
	.Colour1.fill{fill:#C1B49A;}
	.Colour2.fill{fill:#10162E;}
	.Colour3.fill{fill:#9A8479;}
	.Colour4.fill{fill:#F1F1F2;}
	.NeckAndArmTrim.fill{fill:#10162E;}
	.st0{fill:none;}
	.st1{fill:#FFFFFF;}
	]]>
</style>
<g>
	<g>
		<path class="Colour1 fill" d="M23,288.76c-8.92,5.34-17,8.73-22.6,10.8v14.6v391.39h500c0-135.24,0-270.49,0-405.73
			c-9.76-3.84-18.38-8.43-26.01-13.5c-97.94-65.04-69.05-233.43-63.99-260.78c-26.4-7.79-52.81-15.58-79.21-23.37
			c-2.53,4.75-7.07,11.99-14.8,18.98c-22.51,20.37-52.68,21.05-65.53,21.34c-12.26,0.28-28.94,0.66-47.31-8.33
			c-20.27-9.91-30.4-25.26-34.28-32c-26.17,7.65-52.34,15.29-78.52,22.94c16.26,88.45,7.03,161.26-13.02,200.65
			C69.84,241.26,55.6,269.22,23,288.76z"/>
	</g>
	<g>
		<path class="Colour1 fill" d="M23,288.76c-8.92,5.34-17,8.73-22.6,10.8v14.6v391.39h500c0-135.24,0-270.49,0-405.73
			c-9.76-3.84-18.38-8.43-26.01-13.5c-97.94-65.04-69.05-233.43-63.99-260.78c-26.4-7.79-52.81-15.58-79.21-23.37
			c-2.53,4.75-7.07,11.99-14.8,18.98c-22.51,20.37-52.68,21.05-65.53,21.34c-12.26,0.28-28.94,0.66-47.31-8.33
			c-20.27-9.91-30.4-25.26-34.28-32c-26.17,7.65-52.34,15.29-78.52,22.94c16.26,88.45,7.03,161.26-13.02,200.65
			C69.84,241.26,55.6,269.22,23,288.76z"/>
	</g>
</g>
<path class="st0" d="M0.4,703.92V312.53v-14.6c5.6-2.07,13.68-5.46,22.6-10.8c32.6-19.54,46.84-47.5,54.73-63
	c20.05-39.39,29.29-112.2,13.02-200.65c26.17-7.65,52.34-15.29,78.52-22.94c3.88,6.74,14.01,22.08,34.28,32
	c18.38,8.99,35.05,8.61,47.31,8.33c12.84-0.29,43.02-0.98,65.53-21.34c7.72-6.99,12.26-14.23,14.8-18.98
	c26.4,7.79,52.81,15.58,79.21,23.37c-5.06,27.35-33.95,195.74,63.99,260.78c7.63,5.07,16.25,9.65,26.01,13.5
	c0,135.24,0,270.49,0,405.73H0.4z"/>
<g>
	<path class="st0" d="M0.4,312.53c13.55-4.01,25.1-9.37,34.99-15.43c109.15-66.92,76.8-257.54,72.93-278.75"/>
	<path class="st0" d="M391.54,18.35c-3.96,21.09-36.62,208.43,72.44,277.53c10.21,6.47,22.21,12.25,36.41,16.65"/>
	<path class="st0" d="M169.27,0.55c-0.04,7.27,0.55,17.84,3.64,30.16c3.73,14.9,12.16,48.52,43.13,64.3
		c14.77,7.52,29.04,8.13,34.53,8.13c4.13,0.01,22.45-0.3,40.21-11.12c28.19-17.18,34.57-48.44,37.92-64.85
		c2.24-10.99,2.58-20.3,2.48-26.62"/>
	<path class="st0" d="M153.14,5.26c-0.51,49.06,21.95,90.47,59.29,106.49c18.5,7.94,38.48,6.67,38.48,6.67s21.65-0.61,42.43-10.97
		c30.63-15.28,52.12-54.79,53.8-102.19"/>
	<path class="st0" d="M172.9,30.71c7.63,5.74,36.55,26.09,79.31,25.52c40.55-0.54,67.83-19.55,75.75-25.52"/>
	<line class="st0" x1="386.67" y1="151.66" x2="385.56" y2="152.09"/>
	<line class="st0" x1="0.4" y1="686.97" x2="500.4" y2="686.97"/>
	<line class="st0" x1="0.4" y1="693.42" x2="500.4" y2="693.42"/>
	<path class="st0" d="M104.4,19.5c4.04,19.96,38.77,203.92-67.69,273.01c-10.11,6.56-22.07,12.46-36.31,16.97"/>
	<path class="st0" d="M395.42,19.5c-4.16,23.3-34.75,208.19,72.17,274.91c9.38,5.85,20.21,11.04,32.8,15.08"/>
	<path class="st0" d="M166.05,1.49c0.05,4.63,1.79,72.67,48.54,96.26c15.99,8.07,32.91,8.75,33.69,8.77
		c30.14,0.93,51.04-16.14,55.1-19.6c20.88-17.82,25.3-41.66,29.19-62.64c1.74-9.4,2.26-17.32,2.4-22.79"/>
	<path class="st0" d="M169.41,7.06c5.08,6.72,15.94,19.11,34.53,27.61c19.04,8.71,36.08,8.73,47.15,8.62
		c11.52-0.11,30.6-0.51,50.78-11.25c15.21-8.09,24.48-18.57,29.32-24.98"/>
	<path class="st0" d="M0.4,703.92V312.53v-14.6c5.6-2.07,13.68-5.46,22.6-10.8c32.6-19.54,46.84-47.5,54.73-63
		c20.05-39.39,29.29-112.2,13.02-200.65c26.17-7.65,52.34-15.29,78.52-22.94c3.88,6.74,14.01,22.08,34.28,32
		c18.38,8.99,35.05,8.61,47.31,8.33c12.84-0.29,43.02-0.98,65.53-21.34c7.72-6.99,12.26-14.23,14.8-18.98
		c26.4,7.79,52.81,15.58,79.21,23.37c-5.06,27.35-33.95,195.74,63.99,260.78c7.63,5.07,16.25,9.65,26.01,13.5
		c0,135.24,0,270.49,0,405.73H0.4z"/>
</g>
<g>
	<g>
		<g>
			<path class="Colour4 fill" d="M335.37,388.42l165.02-75.54c0-4.35,0-8.71,0-13.06c-9.76-3.84-18.38-8.43-26.01-13.5
				c-2.76-1.83-5.4-3.75-7.96-5.74l-131.06,61.6V388.42z"/>
		</g>
		<g>
			<path class="Colour4 fill" d="M335.37,388.42l165.02-75.54c0-4.35,0-8.71,0-13.06c-9.76-3.84-18.38-8.43-26.01-13.5
				c-2.76-1.83-5.4-3.75-7.96-5.74l-131.06,61.6V388.42z"/>
		</g>
	</g>
	<g>
		<g>
			<path class="Colour4 fill" d="M165.42,388.42L0.4,312.88c0-4.35,0-8.71,0-13.06c9.76-3.84,18.38-8.43,26.01-13.5
				c2.76-1.83,5.4-3.75,7.96-5.74l131.06,61.6V388.42z"/>
		</g>
		<g>
			<path class="Colour4 fill" d="M165.42,388.42L0.4,312.88c0-4.35,0-8.71,0-13.06c9.76-3.84,18.38-8.43,26.01-13.5
				c2.76-1.83,5.4-3.75,7.96-5.74l131.06,61.6V388.42z"/>
		</g>
	</g>
</g>
<path class="Colour3 fill" d="M250.4,242.46L94.6,170.3c-3.72,22.34-9.58,41.13-16.88,55.46c-4.33,8.5-10.58,20.76-20.71,33.31
	l194.29,90.76l192.52-91.64c-20.05-25.15-30.97-56.46-36.46-88L250.4,242.46z"/>
<g>
	<g>
		<g>
			<path class="Colour2 fill" d="M328.35,6.99l74.66,82.95c1.44-30.97,5.71-55.36,7.38-64.39c-26.4-7.79-52.81-15.58-79.21-23.37
				C330.43,3.58,329.48,5.22,328.35,6.99z"/>
		</g>
		<g>
			<path class="Colour2 fill" d="M169.27,2.17c-26.17,7.65-52.34,15.29-78.52,22.94c4.26,23.19,6.76,45.28,7.78,66l74.6-82.88
				C171.47,5.86,170.18,3.77,169.27,2.17z"/>
		</g>
	</g>
	<g>
		<g>
			<path class="Colour2 fill" d="M328.35,6.99l74.66,82.95c1.44-30.97,5.71-55.36,7.38-64.39c-26.4-7.79-52.81-15.58-79.21-23.37
				C330.43,3.58,329.48,5.22,328.35,6.99z"/>
		</g>
		<g>
			<path class="Colour2 fill" d="M169.27,2.17c-26.17,7.65-52.34,15.29-78.52,22.94c4.26,23.19,6.76,45.28,7.78,66l74.6-82.88
				C171.47,5.86,170.18,3.77,169.27,2.17z"/>
		</g>
	</g>
</g>
<g>
	<g>
		<g>
			<path class="Colour2 fill" d="M439.89,253c1.27,1.76,2.58,3.49,3.93,5.19l-161.87,77.05v32.04l184.48-86.7
				C456.06,272.52,447.29,263.21,439.89,253z"/>
			<path class="Colour2 fill" d="M439.58,252.56c-1.1-1.53-2.18-3.08-3.22-4.65C437.4,249.48,438.47,251.03,439.58,252.56z"/>
			<path class="Colour2 fill" d="M435.77,247c-0.93-1.43-1.85-2.86-2.73-4.31C433.92,244.14,434.84,245.57,435.77,247z"/>
		</g>
		<g>
			<path class="Colour2 fill" d="M60.91,253c-1.27,1.76-2.58,3.49-3.93,5.19l161.87,77.05v32.04l-184.48-86.7
				C44.73,272.52,53.5,263.21,60.91,253z"/>
			<path class="Colour2 fill" d="M61.22,252.56c1.1-1.53,2.18-3.08,3.22-4.65C63.39,249.48,62.32,251.03,61.22,252.56z"/>
			<path class="Colour2 fill" d="M65.02,247c0.93-1.43,1.85-2.86,2.73-4.31C66.87,244.14,65.95,245.57,65.02,247z"/>
		</g>
	</g>
	<g>
		<g>
			<path class="Colour2 fill" d="M439.89,253c1.27,1.76,2.58,3.49,3.93,5.19l-161.87,77.05v32.04l184.48-86.7
				C456.06,272.52,447.29,263.21,439.89,253z"/>
			<path class="Colour2 fill" d="M439.58,252.56c-1.1-1.53-2.18-3.08-3.22-4.65C437.4,249.48,438.47,251.03,439.58,252.56z"/>
			<path class="Colour2 fill" d="M435.77,247c-0.93-1.43-1.85-2.86-2.73-4.31C433.92,244.14,434.84,245.57,435.77,247z"/>
		</g>
		<g>
			<path class="Colour2 fill" d="M60.91,253c-1.27,1.76-2.58,3.49-3.93,5.19l161.87,77.05v32.04l-184.48-86.7
				C44.73,272.52,53.5,263.21,60.91,253z"/>
			<path class="Colour2 fill" d="M61.22,252.56c1.1-1.53,2.18-3.08,3.22-4.65C63.39,249.48,62.32,251.03,61.22,252.56z"/>
			<path class="Colour2 fill" d="M65.02,247c0.93-1.43,1.85-2.86,2.73-4.31C66.87,244.14,65.95,245.57,65.02,247z"/>
		</g>
	</g>
</g>
<path class="NeckAndArmTrim fill" d="M331.18,2.17c-2.53,4.75-7.07,11.99-14.8,18.98c-22.51,20.37-52.68,21.05-65.53,21.34
	c-12.26,0.28-28.94,0.66-47.31-8.33c-20.27-9.91-30.4-25.26-34.28-32c-0.77,13.36,3.64,30.16,3.64,30.16
	c7.63,5.74,36.55,26.09,79.31,25.52c40.55-0.54,67.83-19.55,75.75-25.52C327.96,32.33,331.67,17.11,331.18,2.17z"/>
<path class="NeckAndArmTrim fill" d="M500.39,314.16c-14.19-4.4-26.2-10.19-36.41-16.65c-109.06-69.1-76.4-256.43-72.44-277.53l18.85,5.56
	c-5.06,27.35-33.95,195.74,63.99,260.78c7.63,5.07,16.25,9.65,26.01,13.5C500.39,304.6,500.39,309.38,500.39,314.16 M0.4,314.16
	c13.55-4.01,25.1-9.37,34.99-15.43c109.15-66.92,76.8-257.54,72.93-278.75l-17.57,5.13c16.26,88.45,7.03,161.26-13.02,200.65
	c-7.89,15.49-22.13,43.46-54.73,63c-8.92,5.34-17,8.73-22.6,10.8v6.71V314.16"/>
<path class="NeckAndArmTrim fill" d="M169.27,2.17c-0.04,7.27,0.55,17.84,3.64,30.16c3.73,14.9,12.16,48.52,43.13,64.3
	c14.77,7.52,29.04,8.13,34.53,8.13c4.13,0.01,22.45-0.3,40.21-11.12c28.19-17.18,34.57-48.44,37.92-64.85
	c2.24-10.99,2.58-20.3,2.48-26.62l15.97,4.71c-1.69,47.4-23.18,86.91-53.8,102.19c-20.78,10.37-42.43,10.97-42.43,10.97
	s-19.98,1.27-38.48-6.67c-37.34-16.02-59.8-57.43-59.29-106.49L169.27,2.17z"/>
<g id="FBodyLogos"></g>
<path class="st1" d="M290.54,93.65c-17.76,10.82-36.08,11.13-40.21,11.12c-5.49-0.01-19.76-0.61-34.53-8.13
	c-30.97-15.78-39.4-49.4-43.13-64.3c7.63,5.74,36.55,26.09,79.31,25.52c40.55-0.54,67.83-19.55,75.75-25.52
	C324.14,49.39,316.82,77.63,290.54,93.65z"/>
</svg>
