<?xml version="1.0" encoding="utf-8"?>
<!-- Generator: Adobe Illustrator 19.1.0, SVG Export Plug-In . SVG Version: 6.00 Build 0)  -->
<svg version="1.1" id="Layer_1" xmlns="http://www.w3.org/2000/svg" xmlns:xlink="http://www.w3.org/1999/xlink" x="0px" y="0px"
	 viewBox="0 0 500 706" style="enable-background:new 0 0 500 706;" xml:space="preserve">
<style type="text/css">
	<![CDATA[
	@font-face{font-family:'codaheavy';src:url('/fonts/coda-heavy-webfont.woff') format('woff')}
	text{font-family:Impact,codaheavy,sans-serif}
	.Colour1.fill{fill:#272942;}
	.Colour2.fill{fill:#31A1DB;}
	.Colour3.stopColor{stop-color:#375CAA;}
	.Colour4.stopColor{stop-color:#48587D;}
	.NeckAndArmTrim.fill{fill:#31A1DB;}
	.st0{fill:url(#SVGID_1_);}
	.st1{fill:url(#SVGID_2_);}
	.st2{fill:url(#SVGID_3_);}
	.st3{fill:url(#SVGID_4_);}
	.st4{fill:url(#SVGID_5_);}
	.st5{fill:url(#SVGID_6_);}
	.st6{fill:#31A1DB;}
	.st7{fill:url(#SVGID_7_);}
	.st8{fill:url(#SVGID_8_);}
	.st9{fill:url(#SVGID_9_);}
	.st10{fill:url(#SVGID_10_);}
	.st11{fill:url(#SVGID_11_);}
	.st12{fill:url(#SVGID_12_);}
	.st13{fill:url(#SVGID_13_);}
	.st14{fill:url(#SVGID_14_);}
	.st15{fill:url(#SVGID_15_);}
	.st16{fill:url(#SVGID_16_);}
	.st17{fill:url(#SVGID_17_);}
	.st18{fill:url(#SVGID_18_);}
	.st19{fill:url(#SVGID_19_);}
	.st20{fill:url(#SVGID_20_);}
	.st21{fill:url(#SVGID_21_);}
	.st22{fill:url(#SVGID_22_);}
	.st23{fill:url(#SVGID_23_);}
	.st24{fill:url(#SVGID_24_);}
	.st25{fill:url(#SVGID_25_);}
	.st26{fill:url(#SVGID_26_);}
	.st27{fill:url(#SVGID_27_);}
	.st28{fill:url(#SVGID_28_);}
	]]>
</style>
<path class="Colour1 fill" d="M0,705.5h500V298.95c-7.79-2.92-15.27-6.52-22.26-10.71c-32.93-19.76-50.46-46.17-58.26-61.51
	c-17.81-35.03-27.59-108.45-10.27-203.58L331.81,0.5c-5.72,9.77-16.28,23.03-34.42,31.91c-15.5,7.59-29.88,8.56-40.69,8.56
	c-2.53,0-4.93-0.05-7.18-0.11c-13.02-0.3-43.49-0.99-66.31-21.67c-5.92-5.36-10.86-11.65-14.69-18.69L90.44,23.57
	C99,70.46,131.83,229.66,25.72,285.76c-8.4,4.44-16.56,9.78-25.72,13.43V705.5z"/>
<g>
	<linearGradient id="SVGID_1_" gradientUnits="userSpaceOnUse" x1="49.0886" y1="705.5" x2="49.0886" y2="264.3253">
		<stop class="Colour4 stopColor" offset="0" style="stop-color:#1C305E"/>
		<stop class="Colour4 stopColor" offset="0.2726" style="stop-color:#213562"/>
		<stop class="Colour4 stopColor" offset="0.5983" style="stop-color:#30426C"/>
		<stop class="Colour4 stopColor" offset="0.95" style="stop-color:#48587D"/>
		<stop  offset="1" style="stop-color:#4C5C80"/>
	</linearGradient>
	<path class="st0" d="M25.72,285.76c-7.91,5.26-16.56,9.78-25.72,13.43V705.5h93.16c1.48-16.53,24.56-287.54-42.53-441.17
		C43.39,272.27,35.14,279.49,25.72,285.76z"/>
</g>
<g>
	<linearGradient id="SVGID_2_" gradientUnits="userSpaceOnUse" x1="450.9114" y1="705.5" x2="450.9114" y2="264.8633">
		<stop class="Colour4 stopColor" offset="0" style="stop-color:#1C305E"/>
		<stop class="Colour4 stopColor" offset="0.2726" style="stop-color:#213562"/>
		<stop class="Colour4 stopColor" offset="0.5983" style="stop-color:#30426C"/>
		<stop class="Colour4 stopColor" offset="0.95" style="stop-color:#48587D"/>
		<stop  offset="1" style="stop-color:#4C5C80"/>
	</linearGradient>
	<path class="st1" d="M449.13,264.86c-66.8,153.73-43.78,424.13-42.3,440.64H500V298.95c-7.79-2.92-15.27-6.52-22.26-10.71
		C466.06,281.22,456.7,273.11,449.13,264.86z"/>
</g>
<g>
	<linearGradient id="SVGID_5_" gradientUnits="userSpaceOnUse" x1="101.3283" y1="705.5" x2="101.3283" y2="322.0434">
		<stop class="Gradient4 stopColor" offset="8.204796e-007" style="stop-color:#30A2DC"/>
		<stop class="Gradient5 stopColor" offset="0.7587" style="stop-color:#282561"/>
	</linearGradient>
	<path class="Colour2 fill" d="M84.58,340.37c0,0,42.59,173.53,31.71,365.13H93.09C93.09,705.5,107.67,519.19,84.58,340.37z"/>
	<linearGradient id="SVGID_6_" gradientUnits="userSpaceOnUse" x1="398.6717" y1="705.5" x2="398.6717" y2="340.3673">
		<stop class="Gradient4 stopColor" offset="8.204796e-007" style="stop-color:#30A2DC"/>
		<stop class="Gradient5 stopColor" offset="0.7587" style="stop-color:#282561"/>
	</linearGradient>
	<path class="Colour2 fill" d="M415.42,340.37c0,0-42.59,173.53-31.71,365.13h23.21C406.91,705.5,392.33,519.19,415.42,340.37z"/>
</g>
<g>
	<g>
		<path class="Colour2 fill" d="M406.61,317.85c-2.1,6.47-26.2,73.06-148.89,108.3c0,0,86.52-12.3,132.86-74.25
			c0,0-10.72,24.59-37.51,39.73c0,0-42.24,85.44-49.8,191.07c0,0,18.68-146.46,109.01-255.09c-0.42-0.82-4.96-2.2-1.94-4.35
			C413.33,321.13,408.17,321.77,406.61,317.85z"/>
	</g>
	<g>
		<path class="Colour2 fill" d="M406.61,317.85c-2.1,6.47-26.2,73.06-148.89,108.3c0,0,86.52-12.3,132.86-74.25
			c0,0-10.72,24.59-37.51,39.73c0,0-42.24,85.44-49.8,191.07c0,0,18.68-146.46,109.01-255.09c-0.42-0.82-4.96-2.2-1.94-4.35
			C413.33,321.13,408.17,321.77,406.61,317.85z"/>
	</g>
</g>
<path class="Colour2 fill" d="M147.36,393.34c-26.79-15.13-37.51-39.73-37.51-39.73c46.34,61.95,132.86,74.25,132.86,74.25
	C114.26,390.97,94.17,317,94.17,317l-2.24,3.45c-1.31,3.23-2.72,6.42-4.21,9.57C178.5,438.69,197.16,584.4,197.16,584.4
	C189.59,478.78,147.36,393.34,147.36,393.34z"/>
<path class="st6" d="M25.72,285.76c-1.22,0.81-2.48,1.57-3.73,2.34c10.19,4.61,21.62,9.78,33.07,14.96
	c3.02,1.37,6.04,2.74,9.04,4.09c-5.28-21.99-10.24-35.59-13.36-42.95C43.48,272.2,35.19,279.46,25.72,285.76z"/>
<path class="Colour2 fill" d="M27.42,287.73c8.07-5.4,15.61-11.72,22.45-18.82c2.8,7.15,6.5,18.04,10.45,33.71L27.42,287.73z"/>
<path class="st6" d="M449.03,264.75c-3.13,7.48-7.97,20.94-13.13,42.41c3-1.36,6.02-2.73,9.04-4.09
	c11.34-5.13,22.67-10.26,32.79-14.84C466,281.19,456.62,273.03,449.03,264.75z"/>
<path class="Colour2 fill" d="M439.67,302.62c3.88-15.33,7.49-26.07,10.24-33.17c6.79,6.97,14.29,13.14,22.36,18.41L439.67,302.62z"/>
<path class="NeckAndArmTrim fill" d="M349.05,5.53c-3.84,6.68-10.41,16.3-21.12,25.53c-28.64,24.68-63.88,26.7-75.73,26.82
	c-9.05,0.09-45.21-0.53-76.18-25.15c-12.2-9.7-19.74-20.05-24.14-27.2L168.8,0.5c6.34,9.03,21.88,28.14,48.96,36.28
	c14.19,4.26,26.41,3.97,35.74,3.74c14.35-0.35,32.24-0.78,49.9-11.22c14.06-8.31,22.46-19.7,27.35-28.8L349.05,5.53z"/>
<g>
	<linearGradient id="SVGID_7_" gradientUnits="userSpaceOnUse" x1="42.5335" y1="295.3876" x2="42.5335" y2="524.1976">
		<stop class="Colour3 stopColor" offset="1.331947e-007" style="stop-color:#375CAA"/>
		<stop class="Colour3 stopColor" offset="1" style="stop-color:#375CAA;stop-opacity:0"/>
	</linearGradient>
	<path class="st7" d="M55.01,448.91c9.91,4.48,19.81,8.97,28.87,13.07c-0.33-5.44-0.68-10.74-1.05-15.91
		C58.41,435,26.58,420.6,1.19,409.12v15.44C14.15,430.42,34.56,439.65,55.01,448.91z"/>
	<linearGradient id="SVGID_8_" gradientUnits="userSpaceOnUse" x1="43.0933" y1="295.3876" x2="43.0933" y2="524.1976">
		<stop class="Colour3 stopColor" offset="1.331947e-007" style="stop-color:#375CAA"/>
		<stop class="Colour3 stopColor" offset="1" style="stop-color:#375CAA;stop-opacity:0"/>
	</linearGradient>
	<path class="st8" d="M55.01,469.32c10.32,4.67,20.63,9.34,29.99,13.58c-0.25-5.39-0.53-10.66-0.82-15.81
		c-24.6-11.14-57.13-25.86-82.99-37.55v15.44C14.15,450.83,34.56,460.06,55.01,469.32z"/>
	<linearGradient id="SVGID_9_" gradientUnits="userSpaceOnUse" x1="43.9958" y1="295.3876" x2="43.9958" y2="524.1976">
		<stop class="Colour3 stopColor" offset="1.331947e-007" style="stop-color:#375CAA"/>
		<stop class="Colour3 stopColor" offset="1" style="stop-color:#375CAA;stop-opacity:0"/>
	</linearGradient>
	<path class="st9" d="M86.81,542.66c-0.07-4.49-0.15-8.91-0.24-13.27c-24.85-11.26-58.67-26.56-85.38-38.64v25.18
		C36.82,524.68,86.81,542.66,86.81,542.66z"/>
	<linearGradient id="SVGID_10_" gradientUnits="userSpaceOnUse" x1="41.8219" y1="295.3876" x2="41.8219" y2="524.1976">
		<stop class="Colour3 stopColor" offset="1.331947e-007" style="stop-color:#375CAA"/>
		<stop class="Colour3 stopColor" offset="1" style="stop-color:#375CAA;stop-opacity:0"/>
	</linearGradient>
	<path class="st10" d="M55.01,428.5c9.39,4.25,18.78,8.5,27.44,12.43c-0.41-5.49-0.85-10.84-1.3-16.03
		c-24.19-10.96-55.15-24.96-79.97-36.18v15.44C14.15,410.01,34.56,419.25,55.01,428.5z"/>
	<linearGradient id="SVGID_11_" gradientUnits="userSpaceOnUse" x1="43.8199" y1="295.3876" x2="43.8199" y2="524.1976">
		<stop class="Colour3 stopColor" offset="1.331947e-007" style="stop-color:#375CAA"/>
		<stop class="Colour3 stopColor" offset="1" style="stop-color:#375CAA;stop-opacity:0"/>
	</linearGradient>
	<path class="st11" d="M55.01,510.13c10.85,4.91,21.7,9.82,31.44,14.24c-0.13-5.31-0.27-10.52-0.43-15.64
		c-24.79-11.24-58.32-26.4-84.83-38.39v15.44C14.15,491.64,34.56,500.88,55.01,510.13z"/>
	<linearGradient id="SVGID_12_" gradientUnits="userSpaceOnUse" x1="36.9296" y1="295.3876" x2="36.9296" y2="524.1976">
		<stop class="Colour3 stopColor" offset="1.331947e-007" style="stop-color:#375CAA"/>
		<stop class="Colour3 stopColor" offset="1" style="stop-color:#375CAA;stop-opacity:0"/>
	</linearGradient>
	<path class="st12" d="M1.19,322.52c12.96,5.86,33.38,15.09,53.83,24.35c5.95,2.69,11.89,5.38,17.66,7.99
		c-0.95-5.91-1.92-11.49-2.89-16.75c-22.03-9.97-47.52-21.51-68.59-31.03V322.52z"/>
	<linearGradient id="SVGID_13_" gradientUnits="userSpaceOnUse" x1="35.0548" y1="295.3876" x2="35.0548" y2="524.1976">
		<stop class="Colour3 stopColor" offset="1.331947e-007" style="stop-color:#375CAA"/>
		<stop class="Colour3 stopColor" offset="1" style="stop-color:#375CAA;stop-opacity:0"/>
	</linearGradient>
	<path class="st13" d="M55.01,326.46c4.61,2.08,9.21,4.17,13.73,6.22c-1.2-6.14-2.4-11.83-3.59-17.07
		c-15.23-6.89-31.78-14.38-47.24-21.37c-2.2,1.24-4.45,2.42-6.74,3.54c-0.65,0.32-1.3,0.64-1.95,0.96
		c-0.87,0.41-1.75,0.82-2.63,1.21c-1.73,0.78-3.47,1.53-5.23,2.24C14.33,308.06,34.66,317.25,55.01,326.46z"/>
	<linearGradient id="SVGID_14_" gradientUnits="userSpaceOnUse" x1="40.937" y1="295.3876" x2="40.937" y2="524.1976">
		<stop class="Colour3 stopColor" offset="1.331947e-007" style="stop-color:#375CAA"/>
		<stop class="Colour3 stopColor" offset="1" style="stop-color:#375CAA;stop-opacity:0"/>
	</linearGradient>
	<path class="st14" d="M55.01,408.09c8.76,3.96,17.51,7.92,25.67,11.62c-0.51-5.56-1.05-10.95-1.6-16.16
		c-23.87-10.81-53.78-24.34-77.9-35.25v15.44C14.15,389.6,34.56,398.84,55.01,408.09z"/>
	<linearGradient id="SVGID_15_" gradientUnits="userSpaceOnUse" x1="38.5337" y1="295.3876" x2="38.5337" y2="524.1976">
		<stop class="Colour3 stopColor" offset="1.331947e-007" style="stop-color:#375CAA"/>
		<stop class="Colour3 stopColor" offset="1" style="stop-color:#375CAA;stop-opacity:0"/>
	</linearGradient>
	<path class="st15" d="M55.01,367.28c7.06,3.19,14.11,6.39,20.87,9.45c-0.77-5.76-1.56-11.26-2.37-16.51
		c-22.84-10.34-50.05-22.65-72.33-32.72v15.44C14.15,348.79,34.56,358.02,55.01,367.28z"/>
	<linearGradient id="SVGID_16_" gradientUnits="userSpaceOnUse" x1="39.8529" y1="295.3876" x2="39.8529" y2="524.1976">
		<stop class="Colour3 stopColor" offset="1.331947e-007" style="stop-color:#375CAA"/>
		<stop class="Colour3 stopColor" offset="1" style="stop-color:#375CAA;stop-opacity:0"/>
	</linearGradient>
	<path class="st16" d="M55.01,387.68c7.99,3.61,15.97,7.23,23.51,10.64c-0.63-5.65-1.28-11.09-1.95-16.32
		c-23.43-10.61-52.11-23.58-75.39-34.11v15.44C14.15,369.2,34.56,378.43,55.01,387.68z"/>
	<linearGradient id="SVGID_17_" gradientUnits="userSpaceOnUse" x1="43.5183" y1="295.3876" x2="43.5183" y2="524.1976">
		<stop class="Colour3 stopColor" offset="1.331947e-007" style="stop-color:#375CAA"/>
		<stop class="Colour3 stopColor" offset="1" style="stop-color:#375CAA;stop-opacity:0"/>
	</linearGradient>
	<path class="st17" d="M55.01,489.72c10.63,4.81,21.26,9.62,30.84,13.96c-0.19-5.35-0.39-10.58-0.62-15.72
		c-24.71-11.2-57.81-26.17-84.04-38.03v15.44C14.15,471.24,34.56,480.47,55.01,489.72z"/>
</g>
<g>
	
		<linearGradient id="SVGID_18_" gradientUnits="userSpaceOnUse" x1="455.2302" y1="295.3876" x2="455.2302" y2="524.1976" gradientTransform="matrix(-1 0 0 1 913.629 0)">
		<stop class="Colour3 stopColor" offset="1.331947e-007" style="stop-color:#375CAA"/>
		<stop class="Colour3 stopColor" offset="1" style="stop-color:#375CAA;stop-opacity:0"/>
	</linearGradient>
	<path class="st18" d="M445.92,448.91c-9.91,4.48-19.81,8.97-28.87,13.07c0.33-5.44,0.68-10.74,1.05-15.91
		c24.43-11.07,56.25-25.46,81.65-36.94v15.44C486.79,430.42,466.37,439.65,445.92,448.91z"/>
	
		<linearGradient id="SVGID_19_" gradientUnits="userSpaceOnUse" x1="455.79" y1="295.3876" x2="455.79" y2="524.1976" gradientTransform="matrix(-1 0 0 1 913.629 0)">
		<stop class="Colour3 stopColor" offset="1.331947e-007" style="stop-color:#375CAA"/>
		<stop class="Colour3 stopColor" offset="1" style="stop-color:#375CAA;stop-opacity:0"/>
	</linearGradient>
	<path class="st19" d="M445.92,469.32c-10.32,4.67-20.63,9.34-29.99,13.58c0.25-5.39,0.53-10.66,0.82-15.81
		c24.6-11.14,57.13-25.86,82.99-37.55v15.44C486.79,450.83,466.37,460.06,445.92,469.32z"/>
	
		<linearGradient id="SVGID_20_" gradientUnits="userSpaceOnUse" x1="456.6925" y1="295.3876" x2="456.6925" y2="524.1976" gradientTransform="matrix(-1 0 0 1 913.629 0)">
		<stop class="Colour3 stopColor" offset="1.331947e-007" style="stop-color:#375CAA"/>
		<stop class="Colour3 stopColor" offset="1" style="stop-color:#375CAA;stop-opacity:0"/>
	</linearGradient>
	<path class="st20" d="M414.13,542.66c0.07-4.49,0.15-8.91,0.24-13.27c24.85-11.26,58.67-26.56,85.38-38.64v25.18
		C464.11,524.68,414.13,542.66,414.13,542.66z"/>
	
		<linearGradient id="SVGID_21_" gradientUnits="userSpaceOnUse" x1="454.5185" y1="295.3876" x2="454.5185" y2="524.1976" gradientTransform="matrix(-1 0 0 1 913.629 0)">
		<stop class="Colour3 stopColor" offset="1.331947e-007" style="stop-color:#375CAA"/>
		<stop class="Colour3 stopColor" offset="1" style="stop-color:#375CAA;stop-opacity:0"/>
	</linearGradient>
	<path class="st21" d="M445.92,428.5c-9.39,4.25-18.78,8.5-27.44,12.43c0.41-5.49,0.85-10.84,1.3-16.03
		c24.19-10.96,55.15-24.96,79.97-36.18v15.44C486.79,410.01,466.37,419.25,445.92,428.5z"/>
	
		<linearGradient id="SVGID_22_" gradientUnits="userSpaceOnUse" x1="456.5165" y1="295.3876" x2="456.5165" y2="524.1976" gradientTransform="matrix(-1 0 0 1 913.629 0)">
		<stop class="Colour3 stopColor" offset="1.331947e-007" style="stop-color:#375CAA"/>
		<stop class="Colour3 stopColor" offset="1" style="stop-color:#375CAA;stop-opacity:0"/>
	</linearGradient>
	<path class="st22" d="M445.92,510.13c-10.85,4.91-21.7,9.82-31.44,14.24c0.13-5.31,0.27-10.52,0.43-15.64
		c24.79-11.24,58.32-26.4,84.83-38.39v15.44C486.79,491.64,466.37,500.88,445.92,510.13z"/>
	
		<linearGradient id="SVGID_23_" gradientUnits="userSpaceOnUse" x1="449.6262" y1="295.3876" x2="449.6262" y2="524.1976" gradientTransform="matrix(-1 0 0 1 913.629 0)">
		<stop class="Colour3 stopColor" offset="1.331947e-007" style="stop-color:#375CAA"/>
		<stop class="Colour3 stopColor" offset="1" style="stop-color:#375CAA;stop-opacity:0"/>
	</linearGradient>
	<path class="st23" d="M499.75,322.52c-12.96,5.86-33.38,15.09-53.83,24.35c-5.95,2.69-11.89,5.38-17.66,7.99
		c0.95-5.91,1.92-11.49,2.89-16.75c22.03-9.97,47.52-21.51,68.59-31.03V322.52z"/>
	
		<linearGradient id="SVGID_24_" gradientUnits="userSpaceOnUse" x1="447.7515" y1="295.3876" x2="447.7515" y2="524.1976" gradientTransform="matrix(-1 0 0 1 913.629 0)">
		<stop class="Colour3 stopColor" offset="1.331947e-007" style="stop-color:#375CAA"/>
		<stop class="Colour3 stopColor" offset="1" style="stop-color:#375CAA;stop-opacity:0"/>
	</linearGradient>
	<path class="st24" d="M445.92,326.46c-4.61,2.08-9.21,4.17-13.73,6.22c1.2-6.14,2.4-11.83,3.59-17.07
		c15.23-6.89,31.78-14.38,47.24-21.37c2.2,1.24,4.45,2.42,6.74,3.54c0.65,0.32,1.3,0.64,1.95,0.96c0.87,0.41,1.75,0.82,2.63,1.21
		c1.73,0.78,3.47,1.53,5.23,2.24C486.6,308.06,466.28,317.25,445.92,326.46z"/>
	
		<linearGradient id="SVGID_25_" gradientUnits="userSpaceOnUse" x1="453.6337" y1="295.3876" x2="453.6337" y2="524.1976" gradientTransform="matrix(-1 0 0 1 913.629 0)">
		<stop class="Colour3 stopColor" offset="1.331947e-007" style="stop-color:#375CAA"/>
		<stop class="Colour3 stopColor" offset="1" style="stop-color:#375CAA;stop-opacity:0"/>
	</linearGradient>
	<path class="st25" d="M445.92,408.09c-8.76,3.96-17.51,7.92-25.67,11.62c0.51-5.56,1.05-10.95,1.6-16.16
		c23.87-10.81,53.78-24.34,77.9-35.25v15.44C486.79,389.6,466.37,398.84,445.92,408.09z"/>
	
		<linearGradient id="SVGID_26_" gradientUnits="userSpaceOnUse" x1="451.2303" y1="295.3876" x2="451.2303" y2="524.1976" gradientTransform="matrix(-1 0 0 1 913.629 0)">
		<stop class="Colour3 stopColor" offset="1.331947e-007" style="stop-color:#375CAA"/>
		<stop class="Colour3 stopColor" offset="1" style="stop-color:#375CAA;stop-opacity:0"/>
	</linearGradient>
	<path class="st26" d="M445.92,367.28c-7.06,3.19-14.11,6.39-20.87,9.45c0.77-5.76,1.56-11.26,2.37-16.51
		c22.84-10.34,50.05-22.65,72.33-32.72v15.44C486.79,348.79,466.37,358.02,445.92,367.28z"/>
	
		<linearGradient id="SVGID_27_" gradientUnits="userSpaceOnUse" x1="452.5496" y1="295.3876" x2="452.5496" y2="524.1976" gradientTransform="matrix(-1 0 0 1 913.629 0)">
		<stop class="Colour3 stopColor" offset="1.331947e-007" style="stop-color:#375CAA"/>
		<stop class="Colour3 stopColor" offset="1" style="stop-color:#375CAA;stop-opacity:0"/>
	</linearGradient>
	<path class="st27" d="M445.92,387.68c-7.99,3.61-15.97,7.23-23.51,10.64c0.63-5.65,1.28-11.09,1.95-16.32
		c23.43-10.61,52.11-23.58,75.39-34.11v15.44C486.79,369.2,466.37,378.43,445.92,387.68z"/>
	
		<linearGradient id="SVGID_28_" gradientUnits="userSpaceOnUse" x1="456.2149" y1="295.3876" x2="456.2149" y2="524.1976" gradientTransform="matrix(-1 0 0 1 913.629 0)">
		<stop class="Colour3 stopColor" offset="1.331947e-007" style="stop-color:#375CAA"/>
		<stop class="Colour3 stopColor" offset="1" style="stop-color:#375CAA;stop-opacity:0"/>
	</linearGradient>
	<path class="st28" d="M445.92,489.72c-10.63,4.81-21.26,9.62-30.84,13.96c0.19-5.35,0.39-10.58,0.62-15.72
		c24.71-11.2,57.81-26.17,84.04-38.03v15.44C486.79,471.24,466.37,480.47,445.92,489.72z"/>
</g>
<g id="BBodyLogos"></g>
<path class="NeckAndArmTrim fill" d="M0,315.17c10.47-3.57,26.35-10.08,42.57-21.9c75.09-54.74,73.4-162.18,72.75-203.03
	c-0.41-25.83-3.59-49.77-8.33-71.53l-15.96,4.74c1.81,11.68,4.09,28.76,5.52,49.49c2.33,33.81,4.25,61.6-2.04,95.35
	c-5.1,27.34-10.47,56.14-33.72,84.76C40.44,278.09,15.61,291.67,0,298.64V315.17z"/>
<path class="NeckAndArmTrim fill" d="M500,315.17c-13.83-4.91-25.58-11.05-35.6-17.78c-108-72.57-75.39-254.84-70.83-278.52l15.96,4.71
	c-15.68,102.08-1.74,181.78,18.49,213.89c21.61,34.31,50.58,51.11,50.58,51.11c8.77,5.08,16.53,8.26,21.41,10.07V315.17z"/>
</svg>
