<?xml version="1.0" encoding="utf-8"?>
<!-- Generator: Adobe Illustrator 19.1.0, SVG Export Plug-In . SVG Version: 6.00 Build 0)  -->
<svg version="1.1" id="Layer_1" xmlns="http://www.w3.org/2000/svg" xmlns:xlink="http://www.w3.org/1999/xlink" x="0px" y="0px"
	 viewBox="0 0 500 706" style="enable-background:new 0 0 500 706;" xml:space="preserve">
<style type="text/css">
	<![CDATA[
	@font-face{font-family:'codaheavy';src:url('/fonts/coda-heavy-webfont.woff') format('woff')}
	text{font-family:Impact,codaheavy,sans-serif}
	.Colour1.fill{fill:#272942;}
	.Colour2.fill{fill:#31A1DB;}
	.Colour3.stopColor{stop-color:#375CAA;}
	.Colour4.stopColor{stop-color:#48587D;}
	.NeckAndArmTrim.fill{fill:#31A1DB;}
	.st0{fill:url(#SVGID_3_);}
	.st1{fill:url(#SVGID_4_);}
	.st2{fill:url(#SVGID_5_);}
	.st3{fill:url(#SVGID_6_);}
	.st4{fill:#283983;}
	.st5{fill:#FFFFFF;}
	.st7{fill:url(#SVGID_7_);}
	.st8{fill:url(#SVGID_8_);}
	.st9{fill:url(#SVGID_9_);}
	.st10{fill:url(#SVGID_10_);}
	.st11{fill:url(#SVGID_11_);}
	.st12{fill:url(#SVGID_12_);}
	.st13{fill:url(#SVGID_13_);}
	.st14{fill:url(#SVGID_14_);}
	.st15{fill:url(#SVGID_15_);}
	.st16{fill:url(#SVGID_16_);}
	.st17{fill:url(#SVGID_17_);}
	.st18{fill:url(#SVGID_18_);}
	.st19{fill:url(#SVGID_19_);}
	.st20{fill:url(#SVGID_20_);}
	.st21{fill:url(#SVGID_21_);}
	.st22{fill:url(#SVGID_22_);}
	.st23{fill:url(#SVGID_23_);}
	.st24{fill:url(#SVGID_24_);}
	.st25{fill:url(#SVGID_25_);}
	.st26{fill:url(#SVGID_26_);}
	.st27{fill:url(#SVGID_27_);}
	.st28{fill:url(#SVGID_28_);}
	]]>
</style>
<linearGradient id="SVGID_1_" gradientUnits="userSpaceOnUse" x1="-247.4113" y1="-0.8711" x2="-247.4113" y2="-1.8711">
	<stop  offset="8.204796e-007" style="stop-color:#30A2DC"/>
	<stop  offset="0.7587" style="stop-color:#282561"/>
</linearGradient>
<linearGradient id="SVGID_2_" gradientUnits="userSpaceOnUse" x1="-247.4113" y1="-0.8711" x2="-247.4113" y2="-1.8711">
	<stop  offset="0" style="stop-color:#1C305E"/>
	<stop  offset="0.2726" style="stop-color:#213562"/>
	<stop  offset="0.5983" style="stop-color:#30426C"/>
	<stop  offset="0.95" style="stop-color:#48587D"/>
	<stop  offset="1" style="stop-color:#4C5C80"/>
</linearGradient>
<path class="Colour1 fill" d="M0,705.5h500V298.95c-7.79-2.92-15.27-6.52-22.26-10.71c-32.93-19.76-47.44-48.31-55.24-63.66
	c-17.81-35.03-30.61-106.3-13.29-201.43L331.81,0.5c-5.72,9.77-16.28,23.03-34.42,31.91c-15.5,7.59-29.88,8.56-40.69,8.56
	c-2.53,0-4.93-0.05-7.18-0.11c-13.02-0.3-43.49-0.99-66.31-21.67c-5.92-5.36-10.86-11.65-14.69-18.69L90.44,23.57
	c8.57,46.88,39.23,203.8-64.72,262.19c-8.28,4.65-16.56,9.78-25.72,13.43V705.5z"/>
<linearGradient id="SVGID_3_" gradientUnits="userSpaceOnUse" x1="49.0886" y1="705.5" x2="49.0886" y2="264.3253">
	<stop class="Colour4 stopColor" offset="0" style="stop-color:#1C305E"/>
	<stop class="Colour4 stopColor" offset="0.2726" style="stop-color:#213562"/>
	<stop class="Colour4 stopColor" offset="0.5983" style="stop-color:#30426C"/>
	<stop class="Colour4 stopColor" offset="0.95" style="stop-color:#48587D"/>
	<stop  offset="1" style="stop-color:#4C5C80"/>
</linearGradient>
<path class="st0" d="M25.72,285.76c-7.91,5.26-16.56,9.78-25.72,13.43V705.5h93.16c1.48-16.53,24.56-287.54-42.53-441.17
	C43.39,272.27,35.14,279.49,25.72,285.76z"/>
<linearGradient id="SVGID_4_" gradientUnits="userSpaceOnUse" x1="450.9114" y1="705.5" x2="450.9114" y2="264.8633">
	<stop class="Colour4 stopColor" offset="0" style="stop-color:#1C305E"/>
	<stop class="Colour4 stopColor" offset="0.2726" style="stop-color:#213562"/>
	<stop class="Colour4 stopColor" offset="0.5983" style="stop-color:#30426C"/>
	<stop class="Colour4 stopColor" offset="0.95" style="stop-color:#48587D"/>
	<stop  offset="1" style="stop-color:#4C5C80"/>
</linearGradient>
<path class="st1" d="M449.13,264.86c-66.8,153.73-43.78,424.13-42.3,440.64H500V298.95c-7.79-2.92-15.27-6.52-22.26-10.71
	C466.06,281.22,456.7,273.11,449.13,264.86z"/>
<linearGradient id="SVGID_5_" gradientUnits="userSpaceOnUse" x1="101.3284" y1="705.0723" x2="101.3284" y2="340.3673">
	<stop class="stopColor" offset="8.204796e-007" style="stop-color:#30A2DC"/>
	<stop class="stopColor" offset="0.7587" style="stop-color:#282561"/>
</linearGradient>
<path class="Colour2 fill" d="M84.58,340.37c0,0,42.59,173.32,31.71,364.7H93.09C93.09,705.07,107.67,518.98,84.58,340.37z"/>
<linearGradient id="SVGID_6_" gradientUnits="userSpaceOnUse" x1="398.6717" y1="705.0723" x2="398.6717" y2="340.3673">
	<stop class="stopColor" offset="8.204796e-007" style="stop-color:#30A2DC"/>
	<stop class="stopColor" offset="0.7587" style="stop-color:#282561"/>
</linearGradient>
<path class="Colour2 fill" d="M415.42,340.37c0,0-42.59,173.32-31.71,364.7h23.21C406.91,705.07,392.33,518.98,415.42,340.37z"/>
<path class="st4" d="M27.42,287.78c8.07-5.38,15.61-11.68,22.45-18.77c2.8,7.13,6.5,17.99,10.45,33.61L27.42,287.78z"/>
<path class="st4" d="M439.67,302.62c3.88-15.33,7.49-26.07,10.24-33.17c6.79,6.97,14.29,13.14,22.36,18.41L439.67,302.62z"/>
<path class="st5" d="M290.08,91.51c-16.37,9.99-33.33,11.08-39.94,11.08c-0.02,0-0.05,0-0.07,0c-6.92-0.01-20.58-1.07-34.35-8.1
	c-29.6-15.1-38.61-47.03-42.49-62.38c11.45,8.29,38.83,24.64,76.66,24.64c0.58,0,1.17,0,1.76-0.01
	c36.2-0.48,62.18-15.36,75.13-24.85C323.05,49.18,315.46,76.02,290.08,91.51z"/>
<path class="Colour2 fill" d="M138.01,294.02c-26.79-15.13-37.51-39.73-37.51-39.73c46.34,61.95,132.86,74.25,132.86,74.25
	C104.91,291.65,82.21,213.31,82.21,213.31l-2.24,3.45c-1.31,3.23-2.72,6.42-4.21,9.57C166.54,335,187.81,485.09,187.81,485.09
	C180.24,379.46,138.01,294.02,138.01,294.02z"/>
<path class="Colour2 fill" d="M25.72,285.82c-1.22,0.81-2.48,1.56-3.73,2.33c10.19,4.6,21.62,9.76,33.07,14.92
	c3.02,1.36,6.04,2.73,9.04,4.08c-5.28-21.93-10.24-35.49-13.36-42.83C43.48,272.29,35.19,279.54,25.72,285.82z"/>
<path class="Colour2 fill" d="M449.03,264.75c-3.13,7.48-7.97,20.94-13.13,42.41c3-1.36,6.02-2.73,9.04-4.09
	c11.34-5.13,22.67-10.26,32.79-14.84C466,281.19,456.62,273.03,449.03,264.75z"/>
<path class="Colour2 fill" d="M376.28,227.04l-3.25,6.03l-0.81,1.51c-0.28,0.5-0.6,0.97-0.89,1.46l-1.8,2.91
	c-2.31,3.94-5.04,7.6-7.61,11.36c-5.48,7.28-11.48,14.15-17.97,20.52c-13.09,12.63-28,23.29-44.03,31.82
	c-8.01,4.28-16.27,8.08-24.74,11.34c-2.11,0.85-4.26,1.56-6.38,2.37c-2.15,0.73-4.28,1.48-6.45,2.15c-1.08,0.35-2.16,0.68-3.24,0.99
	c-1.08,0.33-2.17,0.64-3.26,0.93c-1.94,0.54-3.95,1.06-5.85,1.48c-1.89-0.42-3.9-0.94-5.85-1.48c-1.09-0.29-2.17-0.6-3.26-0.93
	c-1.09-0.31-2.17-0.64-3.24-0.99c-2.16-0.66-4.3-1.42-6.45-2.15c-2.12-0.8-4.27-1.52-6.38-2.37c-8.47-3.26-16.73-7.06-24.74-11.34
	c-16.03-8.53-30.94-19.2-44.03-31.82c-6.49-6.37-12.49-13.24-17.97-20.52c-2.57-3.76-5.3-7.42-7.61-11.36l-1.8-2.91
	c-0.3-0.49-0.61-0.97-0.89-1.46l-0.81-1.51l-3.25-6.03c-8.24-16.33-13.77-34.04-16.92-52.2c2.14,18.3,6.88,36.41,14.59,53.32
	l3.05,6.26l0.76,1.57c0.27,0.52,0.56,1.02,0.85,1.52l1.71,3.04c2.17,4.12,4.84,7.94,7.35,11.87c5.35,7.63,11.26,14.87,17.7,21.63
	c12.95,13.46,28.09,24.76,44.36,33.93c8.15,4.57,16.63,8.54,25.31,12.02c2.16,0.9,4.37,1.67,6.56,2.49
	c2.21,0.76,4.42,1.54,6.66,2.23c1.11,0.36,2.23,0.71,3.36,1.03c1.12,0.34,2.25,0.66,3.38,0.97c2.28,0.63,5.13,1.18,7.57,1.69
	c2.44-0.5,5.28-1.06,7.57-1.69c1.14-0.31,2.26-0.63,3.38-0.97c1.13-0.33,2.25-0.67,3.36-1.03c2.24-0.69,4.44-1.47,6.66-2.23
	c2.19-0.82,4.4-1.59,6.56-2.49c8.68-3.48,17.15-7.45,25.31-12.02c16.27-9.17,31.41-20.46,44.36-33.93c6.44-6.76,12.35-14,17.7-21.63
	c2.51-3.93,5.17-7.75,7.34-11.87l1.71-3.04c0.28-0.51,0.58-1.01,0.85-1.52l0.76-1.57l3.05-6.26c7.71-16.91,12.45-35.03,14.59-53.32
	C390.05,193,384.52,210.71,376.28,227.04z"/>
<path class="Colour2 fill" d="M417.64,213.77c-2.1,6.47-28.3,79.53-151,114.77c0,0,86.52-12.3,132.86-74.25c0,0-10.72,24.59-37.51,39.73
	c0,0-42.24,85.44-49.8,191.07c0,0,21.19-149.51,111.52-258.13c-0.42-0.82-0.83-1.62-1.21-2.37
	C420.83,221.29,419.2,217.69,417.64,213.77z"/>
<path class="NeckAndArmTrim fill" d="M168.87,0.5c-0.04,7.28,0.55,17.87,3.64,30.21c3.73,14.93,12.16,48.6,43.13,64.4
	c14.77,7.53,29.04,8.14,34.53,8.15c4.13,0.01,22.45-0.3,40.21-11.14c28.19-17.2,34.57-48.51,37.92-64.95
	c2.24-11.01,2.58-20.33,2.48-26.66l15.97,4.72c-1.69,47.47-23.18,87.04-53.8,102.34c-20.78,10.38-42.43,10.99-42.43,10.99
	s-19.98,1.27-38.48-6.68c-37.34-16.05-59.8-57.52-59.29-106.66L168.87,0.5z"/>
<path class="NeckAndArmTrim fill" d="M330.78,0.5c-2.54,4.67-7.14,12-14.8,19.01c-23.56,21.57-55.25,21-70.28,20.73
	c-10.26-0.18-21.55-0.39-35.26-5.72c-23.05-8.97-36.12-25.9-41.58-34.02c-0.77,13.38,3.64,30.21,3.64,30.21
	c7.63,5.75,36.55,26.13,79.31,25.56c40.55-0.54,67.83-19.58,75.75-25.56C327.57,30.71,331.28,15.46,330.78,0.5z"/>
<path class="st5" d="M290.14,92.11c-17.76,10.84-36.08,11.14-40.21,11.14c-5.49-0.01-19.76-0.61-34.53-8.15
	c-30.97-15.8-39.4-49.47-43.13-64.4c7.63,5.75,36.55,26.13,79.31,25.56c40.55-0.54,67.83-19.58,75.75-25.56
	C323.75,47.79,316.43,76.07,290.14,92.11z"/>
<g id="FBodyLogos"></g>
<g>
	<linearGradient id="SVGID_7_" gradientUnits="userSpaceOnUse" x1="42.4115" y1="294.8528" x2="42.4115" y2="523.6627">
		<stop class="Colour3 stopColor" offset="1.331947e-007" style="stop-color:#375CAA"/>
		<stop class="Colour3 stopColor" offset="1" style="stop-color:#375CAA;stop-opacity:0"/>
	</linearGradient>
	<path class="st7" d="M54.89,448.37c9.91,4.48,19.81,8.97,28.87,13.07c-0.33-5.44-0.68-10.74-1.05-15.91
		c-24.43-11.07-56.25-25.46-81.65-36.94v15.44C14.02,429.89,34.44,439.12,54.89,448.37z"/>
	<linearGradient id="SVGID_8_" gradientUnits="userSpaceOnUse" x1="42.9713" y1="294.8528" x2="42.9713" y2="523.6627">
		<stop class="Colour3 stopColor" offset="1.331947e-007" style="stop-color:#375CAA"/>
		<stop class="Colour3 stopColor" offset="1" style="stop-color:#375CAA;stop-opacity:0"/>
	</linearGradient>
	<path class="st8" d="M54.89,468.78c10.32,4.67,20.63,9.34,29.99,13.58c-0.25-5.39-0.53-10.66-0.82-15.81
		c-24.6-11.14-57.13-25.86-82.99-37.55v15.44C14.02,450.29,34.44,459.53,54.89,468.78z"/>
	<linearGradient id="SVGID_9_" gradientUnits="userSpaceOnUse" x1="43.8738" y1="294.8528" x2="43.8738" y2="523.6627">
		<stop class="Colour3 stopColor" offset="1.331947e-007" style="stop-color:#375CAA"/>
		<stop class="Colour3 stopColor" offset="1" style="stop-color:#375CAA;stop-opacity:0"/>
	</linearGradient>
	<path class="st9" d="M86.68,542.13c-0.07-4.49-0.15-8.91-0.24-13.27c-24.85-11.26-58.67-26.56-85.38-38.64v25.18
		C36.7,524.15,86.68,542.13,86.68,542.13z"/>
	<linearGradient id="SVGID_10_" gradientUnits="userSpaceOnUse" x1="41.6999" y1="294.8528" x2="41.6999" y2="523.6627">
		<stop class="Colour3 stopColor" offset="1.331947e-007" style="stop-color:#375CAA"/>
		<stop class="Colour3 stopColor" offset="1" style="stop-color:#375CAA;stop-opacity:0"/>
	</linearGradient>
	<path class="st10" d="M54.89,427.97c9.39,4.25,18.78,8.5,27.44,12.43c-0.41-5.49-0.85-10.84-1.3-16.03
		C56.84,413.4,25.88,399.4,1.06,388.18v15.44C14.02,409.48,34.44,418.71,54.89,427.97z"/>
	<linearGradient id="SVGID_11_" gradientUnits="userSpaceOnUse" x1="43.6978" y1="294.8528" x2="43.6978" y2="523.6627">
		<stop class="Colour3 stopColor" offset="1.331947e-007" style="stop-color:#375CAA"/>
		<stop class="Colour3 stopColor" offset="1" style="stop-color:#375CAA;stop-opacity:0"/>
	</linearGradient>
	<path class="st11" d="M54.89,509.6c10.85,4.91,21.7,9.82,31.44,14.24c-0.13-5.31-0.27-10.52-0.43-15.64
		c-24.79-11.24-58.32-26.4-84.83-38.39v15.44C14.02,491.11,34.44,500.34,54.89,509.6z"/>
	<linearGradient id="SVGID_12_" gradientUnits="userSpaceOnUse" x1="36.8076" y1="294.8528" x2="36.8076" y2="523.6627">
		<stop class="Colour3 stopColor" offset="1.331947e-007" style="stop-color:#375CAA"/>
		<stop class="Colour3 stopColor" offset="1" style="stop-color:#375CAA;stop-opacity:0"/>
	</linearGradient>
	<path class="st12" d="M1.06,321.99c12.96,5.86,33.38,15.09,53.83,24.35c5.95,2.69,11.89,5.38,17.66,7.99
		c-0.95-5.91-1.92-11.49-2.89-16.75c-22.03-9.97-47.52-21.51-68.59-31.03V321.99z"/>
	<linearGradient id="SVGID_13_" gradientUnits="userSpaceOnUse" x1="34.9328" y1="294.8528" x2="34.9328" y2="523.6627">
		<stop class="Colour3 stopColor" offset="1.331947e-007" style="stop-color:#375CAA"/>
		<stop class="Colour3 stopColor" offset="1" style="stop-color:#375CAA;stop-opacity:0"/>
	</linearGradient>
	<path class="st13" d="M54.89,325.93c4.61,2.08,9.21,4.17,13.73,6.22c-1.2-6.14-2.4-11.83-3.59-17.07
		c-15.23-6.89-31.78-14.38-47.24-21.37c-2.2,1.24-4.45,2.42-6.74,3.54c-0.65,0.32-1.3,0.64-1.95,0.96
		c-0.87,0.41-1.75,0.82-2.63,1.21c-1.73,0.78-3.47,1.53-5.23,2.24C14.21,307.52,34.53,316.71,54.89,325.93z"/>
	<linearGradient id="SVGID_14_" gradientUnits="userSpaceOnUse" x1="40.815" y1="294.8528" x2="40.815" y2="523.6627">
		<stop class="Colour3 stopColor" offset="1.331947e-007" style="stop-color:#375CAA"/>
		<stop class="Colour3 stopColor" offset="1" style="stop-color:#375CAA;stop-opacity:0"/>
	</linearGradient>
	<path class="st14" d="M54.89,407.56c8.76,3.96,17.51,7.92,25.67,11.62c-0.51-5.56-1.05-10.95-1.6-16.16
		c-23.87-10.81-53.78-24.34-77.9-35.25v15.44C14.02,389.07,34.44,398.3,54.89,407.56z"/>
	<linearGradient id="SVGID_15_" gradientUnits="userSpaceOnUse" x1="38.4117" y1="294.8528" x2="38.4117" y2="523.6627">
		<stop class="Colour3 stopColor" offset="1.331947e-007" style="stop-color:#375CAA"/>
		<stop class="Colour3 stopColor" offset="1" style="stop-color:#375CAA;stop-opacity:0"/>
	</linearGradient>
	<path class="st15" d="M54.89,366.74c7.06,3.19,14.11,6.39,20.87,9.45c-0.77-5.76-1.56-11.26-2.37-16.51
		c-22.84-10.34-50.05-22.65-72.33-32.72v15.44C14.02,348.25,34.44,357.49,54.89,366.74z"/>
	<linearGradient id="SVGID_16_" gradientUnits="userSpaceOnUse" x1="39.7309" y1="294.8528" x2="39.7309" y2="523.6627">
		<stop class="Colour3 stopColor" offset="1.331947e-007" style="stop-color:#375CAA"/>
		<stop class="Colour3 stopColor" offset="1" style="stop-color:#375CAA;stop-opacity:0"/>
	</linearGradient>
	<path class="st16" d="M54.89,387.15c7.99,3.61,15.97,7.23,23.51,10.64c-0.63-5.65-1.28-11.09-1.95-16.32
		c-23.43-10.61-52.11-23.58-75.39-34.11v15.44C14.02,368.66,34.44,377.89,54.89,387.15z"/>
	<linearGradient id="SVGID_17_" gradientUnits="userSpaceOnUse" x1="43.3963" y1="294.8528" x2="43.3963" y2="523.6627">
		<stop class="Colour3 stopColor" offset="1.331947e-007" style="stop-color:#375CAA"/>
		<stop class="Colour3 stopColor" offset="1" style="stop-color:#375CAA;stop-opacity:0"/>
	</linearGradient>
	<path class="st17" d="M54.89,489.19c10.63,4.81,21.26,9.62,30.84,13.96c-0.19-5.35-0.39-10.58-0.62-15.72
		c-24.71-11.2-57.81-26.17-84.04-38.03v15.44C14.02,470.7,34.44,479.93,54.89,489.19z"/>
</g>
<g>
	
		<linearGradient id="SVGID_18_" gradientUnits="userSpaceOnUse" x1="455.3522" y1="294.8528" x2="455.3522" y2="523.6627" gradientTransform="matrix(-1 0 0 1 913.629 0)">
		<stop class="Colour3 stopColor" offset="1.331947e-007" style="stop-color:#375CAA"/>
		<stop class="Colour3 stopColor" offset="1" style="stop-color:#375CAA;stop-opacity:0"/>
	</linearGradient>
	<path class="st18" d="M445.8,448.37c-9.91,4.48-19.81,8.97-28.87,13.07c0.33-5.44,0.68-10.74,1.05-15.91
		c24.43-11.07,56.25-25.46,81.65-36.94v15.44C486.66,429.89,466.25,439.12,445.8,448.37z"/>
	
		<linearGradient id="SVGID_19_" gradientUnits="userSpaceOnUse" x1="455.912" y1="294.8528" x2="455.912" y2="523.6627" gradientTransform="matrix(-1 0 0 1 913.629 0)">
		<stop class="Colour3 stopColor" offset="1.331947e-007" style="stop-color:#375CAA"/>
		<stop class="Colour3 stopColor" offset="1" style="stop-color:#375CAA;stop-opacity:0"/>
	</linearGradient>
	<path class="st19" d="M445.8,468.78c-10.32,4.67-20.63,9.34-29.99,13.58c0.25-5.39,0.53-10.66,0.82-15.81
		c24.6-11.14,57.13-25.86,82.99-37.55v15.44C486.66,450.29,466.25,459.53,445.8,468.78z"/>
	
		<linearGradient id="SVGID_20_" gradientUnits="userSpaceOnUse" x1="456.8145" y1="294.8528" x2="456.8145" y2="523.6627" gradientTransform="matrix(-1 0 0 1 913.629 0)">
		<stop class="Colour3 stopColor" offset="1.331947e-007" style="stop-color:#375CAA"/>
		<stop class="Colour3 stopColor" offset="1" style="stop-color:#375CAA;stop-opacity:0"/>
	</linearGradient>
	<path class="st20" d="M414.01,542.13c0.07-4.49,0.15-8.91,0.24-13.27c24.85-11.26,58.67-26.56,85.38-38.64v25.18
		C463.99,524.15,414.01,542.13,414.01,542.13z"/>
	
		<linearGradient id="SVGID_21_" gradientUnits="userSpaceOnUse" x1="454.6405" y1="294.8528" x2="454.6405" y2="523.6627" gradientTransform="matrix(-1 0 0 1 913.629 0)">
		<stop class="Colour3 stopColor" offset="1.331947e-007" style="stop-color:#375CAA"/>
		<stop class="Colour3 stopColor" offset="1" style="stop-color:#375CAA;stop-opacity:0"/>
	</linearGradient>
	<path class="st21" d="M445.8,427.97c-9.39,4.25-18.78,8.5-27.44,12.43c0.41-5.49,0.85-10.84,1.3-16.03
		c24.19-10.96,55.15-24.96,79.97-36.18v15.44C486.66,409.48,466.25,418.71,445.8,427.97z"/>
	
		<linearGradient id="SVGID_22_" gradientUnits="userSpaceOnUse" x1="456.6385" y1="294.8528" x2="456.6385" y2="523.6627" gradientTransform="matrix(-1 0 0 1 913.629 0)">
		<stop class="Colour3 stopColor" offset="1.331947e-007" style="stop-color:#375CAA"/>
		<stop class="Colour3 stopColor" offset="1" style="stop-color:#375CAA;stop-opacity:0"/>
	</linearGradient>
	<path class="st22" d="M445.8,509.6c-10.85,4.91-21.7,9.82-31.44,14.24c0.13-5.31,0.27-10.52,0.43-15.64
		c24.79-11.24,58.32-26.4,84.83-38.39v15.44C486.66,491.11,466.25,500.34,445.8,509.6z"/>
	
		<linearGradient id="SVGID_23_" gradientUnits="userSpaceOnUse" x1="449.7482" y1="294.8528" x2="449.7482" y2="523.6627" gradientTransform="matrix(-1 0 0 1 913.629 0)">
		<stop class="Colour3 stopColor" offset="1.331947e-007" style="stop-color:#375CAA"/>
		<stop class="Colour3 stopColor" offset="1" style="stop-color:#375CAA;stop-opacity:0"/>
	</linearGradient>
	<path class="st23" d="M499.62,321.99c-12.96,5.86-33.38,15.09-53.83,24.35c-5.95,2.69-11.89,5.38-17.66,7.99
		c0.95-5.91,1.92-11.49,2.89-16.75c22.03-9.97,47.52-21.51,68.59-31.03V321.99z"/>
	
		<linearGradient id="SVGID_24_" gradientUnits="userSpaceOnUse" x1="447.8735" y1="294.8528" x2="447.8735" y2="523.6627" gradientTransform="matrix(-1 0 0 1 913.629 0)">
		<stop class="Colour3 stopColor" offset="1.331947e-007" style="stop-color:#375CAA"/>
		<stop class="Colour3 stopColor" offset="1" style="stop-color:#375CAA;stop-opacity:0"/>
	</linearGradient>
	<path class="st24" d="M445.8,325.93c-4.61,2.08-9.21,4.17-13.73,6.22c1.2-6.14,2.4-11.83,3.59-17.07
		c15.23-6.89,31.78-14.38,47.24-21.37c2.2,1.24,4.45,2.42,6.74,3.54c0.65,0.32,1.3,0.64,1.95,0.96c0.87,0.41,1.75,0.82,2.63,1.21
		c1.73,0.78,3.47,1.53,5.23,2.24C486.48,307.52,466.15,316.71,445.8,325.93z"/>
	
		<linearGradient id="SVGID_25_" gradientUnits="userSpaceOnUse" x1="453.7557" y1="294.8528" x2="453.7557" y2="523.6627" gradientTransform="matrix(-1 0 0 1 913.629 0)">
		<stop class="Colour3 stopColor" offset="1.331947e-007" style="stop-color:#375CAA"/>
		<stop class="Colour3 stopColor" offset="1" style="stop-color:#375CAA;stop-opacity:0"/>
	</linearGradient>
	<path class="st25" d="M445.8,407.56c-8.76,3.96-17.51,7.92-25.67,11.62c0.51-5.56,1.05-10.95,1.6-16.16
		c23.87-10.81,53.78-24.34,77.9-35.25v15.44C486.66,389.07,466.25,398.3,445.8,407.56z"/>
	
		<linearGradient id="SVGID_26_" gradientUnits="userSpaceOnUse" x1="451.3523" y1="294.8528" x2="451.3523" y2="523.6627" gradientTransform="matrix(-1 0 0 1 913.629 0)">
		<stop class="Colour3 stopColor" offset="1.331947e-007" style="stop-color:#375CAA"/>
		<stop class="Colour3 stopColor" offset="1" style="stop-color:#375CAA;stop-opacity:0"/>
	</linearGradient>
	<path class="st26" d="M445.8,366.74c-7.06,3.19-14.11,6.39-20.87,9.45c0.77-5.76,1.56-11.26,2.37-16.51
		c22.84-10.34,50.05-22.65,72.33-32.72v15.44C486.66,348.25,466.25,357.49,445.8,366.74z"/>
	
		<linearGradient id="SVGID_27_" gradientUnits="userSpaceOnUse" x1="452.6716" y1="294.8528" x2="452.6716" y2="523.6627" gradientTransform="matrix(-1 0 0 1 913.629 0)">
		<stop class="Colour3 stopColor" offset="1.331947e-007" style="stop-color:#375CAA"/>
		<stop class="Colour3 stopColor" offset="1" style="stop-color:#375CAA;stop-opacity:0"/>
	</linearGradient>
	<path class="st27" d="M445.8,387.15c-7.99,3.61-15.97,7.23-23.51,10.64c0.63-5.65,1.28-11.09,1.95-16.32
		c23.43-10.61,52.11-23.58,75.39-34.11v15.44C486.66,368.66,466.25,377.89,445.8,387.15z"/>
	
		<linearGradient id="SVGID_28_" gradientUnits="userSpaceOnUse" x1="456.337" y1="294.8528" x2="456.337" y2="523.6627" gradientTransform="matrix(-1 0 0 1 913.629 0)">
		<stop class="Colour3 stopColor" offset="1.331947e-007" style="stop-color:#375CAA"/>
		<stop class="Colour3 stopColor" offset="1" style="stop-color:#375CAA;stop-opacity:0"/>
	</linearGradient>
	<path class="st28" d="M445.8,489.19c-10.63,4.81-21.26,9.62-30.84,13.96c0.19-5.35,0.39-10.58,0.62-15.72
		c24.71-11.2,57.81-26.17,84.04-38.03v15.44C486.66,470.7,466.25,479.93,445.8,489.19z"/>
</g>
<path class="NeckAndArmTrim fill" d="M0,312.96v-7.9v-6.72c5.6-2.07,13.68-5.46,22.6-10.82c32.6-19.57,46.84-47.58,54.73-63.09
	c20.05-39.45,29.29-112.37,13.02-200.96l17.57-5.14c3.87,21.24,36.22,212.15-72.93,279.17C25.1,303.58,13.55,308.94,0,312.96"/>
<path class="NeckAndArmTrim fill" d="M500,312.96c-14.19-4.41-26.2-10.2-36.41-16.68c-109.06-69.2-76.4-256.82-72.44-277.95L410,23.9
	c-5.06,27.4-33.95,196.04,63.99,261.18c7.63,5.08,16.25,9.67,26.01,13.52C500,303.39,500,308.18,500,312.96"/>
</svg>
