<?xml version="1.0" encoding="utf-8"?>
<!-- Generator: Adobe Illustrator 19.1.0, SVG Export Plug-In . SVG Version: 6.00 Build 0)  -->
<svg version="1.1" id="Layer_1" xmlns="http://www.w3.org/2000/svg" xmlns:xlink="http://www.w3.org/1999/xlink" x="0px" y="0px"
	 viewBox="0 0 500 706" style="enable-background:new 0 0 500 706;" xml:space="preserve">
<style type="text/css">
	<![CDATA[
	@font-face{font-family:'codaheavy';src:url('/fonts/coda-heavy-webfont.woff') format('woff')}
	text{font-family:Impact,codaheavy,sans-serif}
	.Colour1.fill{fill:#081A38;}
	.Colour2.fill{fill:#EE3859;}
	.Colour3.fill{fill:#D71E3C;}
	.Colour4.fill{fill:#1C2A59;}
	.Colour5.fill{fill:#051838;}
	.NeckAndArmTrim.fill{fill:#1C2A59;}
	.Gradient1_removed{stop-color:#0E9DD5}
	.Gradient2_removed{stop-color:#1C2A59}
	.st0{fill:url(#SVGID_1_removed);}
	.st1{fill:url(#SVGID_2_removed);}
	.st2{fill:#FFFFFF;}
	.st3{fill:none;stroke:#FFFFFF;stroke-width:0.5;stroke-miterlimit:10;stroke-dasharray:4,2.4;}
	]]>
</style>
<path class="Colour1 fill" d="M500,705.5V313.21v-14.64c-5.6-2.07-13.68-5.47-22.6-10.82c-32.6-19.58-46.84-47.61-54.73-63.14
	c-20.05-39.48-36.37-100.32-13.02-201.12C383.47,15.83,357.3,8.16,331.13,0.5c-3.88,6.76-14.01,22.13-34.28,32.07
	c-18.38,9.01-35.05,8.63-47.31,8.35c-12.84-0.29-43.02-0.98-65.53-21.39c-7.72-7-12.26-14.26-14.8-19.03
	C142.81,8.31,116.41,16.11,90,23.92c5.06,27.42,44.97,193.31-63.99,261.38c-7.78,4.86-16.25,9.68-26.01,13.53
	C0,434.39,0,569.94,0,705.5H500z"/>
<path class="Colour3 fill" d="M297.23,33.34c-15.44,7.57-29.78,8.54-40.55,8.54c-2.52,0-4.91-0.05-7.16-0.11
	c-12.97-0.3-43.34-0.99-66.09-21.62c-5.9-5.35-10.82-11.62-14.64-18.64l-77.81,23c3.1,16.99,7.66,48.02,7.78,83.6
	c33.66-14.2,165.75-61.75,301.74-0.01c0.16-25.25,2.59-53.39,8.16-84.02L331.53,1.51C325.83,11.26,315.31,24.48,297.23,33.34z"/>
<linearGradient id="SVGID_1_" gradientUnits="userSpaceOnUse" x1="249.9998" y1="-132.6978" x2="249.9998" y2="301.1898">
	<stop class="Gradient1 stopColor" offset="0" style="stop-color:#0E9DD5;stop-opacity:0"/>
	<stop class="Gradient2 stopColor" offset="1" style="stop-color:#1C2A59"/>
</linearGradient>
<path class="st0" d="M380.91,221.38c-5.8-2.68-11.57-5.38-17.3-8.12l-17.13-8.27l-17.01-8.39c-5.66-2.8-11.27-5.65-16.9-8.48
	c-5.64-2.82-11.25-5.67-16.83-8.55l-16.77-8.6l-33.29-17.42h5.13l-16.21,8.48c-5.41,2.82-10.78,5.68-16.23,8.46l-16.33,8.38
	c-5.43,2.81-10.91,5.56-16.4,8.31c-5.49,2.75-10.94,5.54-16.47,8.25l-16.57,8.16l-16.69,8.05c-5.58,2.67-11.2,5.3-16.85,7.91
	c5.11-3.08,10.26-6.14,15.44-9.17l15.6-9.02l15.73-8.91c5.23-2.98,10.55-5.88,15.82-8.82c5.28-2.94,10.56-5.88,15.9-8.76l15.97-8.7
	c5.31-2.91,10.71-5.74,16.06-8.61l16.09-8.59l2.56-1.37l2.56,1.37l33.04,17.64l16.4,8.93c5.48,2.96,10.92,5.96,16.34,8.99
	c5.42,3.02,10.87,6.01,16.26,9.05l16.16,9.15l16.03,9.26C370.38,215.07,375.66,218.21,380.91,221.38z M365.05,225.9l-16.03-9.26
	l-16.16-9.15c-5.39-3.04-10.84-6.03-16.26-9.05c-5.41-3.02-10.86-6.02-16.34-8.99l-16.4-8.93l-33.04-17.64l-2.56-1.37l-2.56,1.37
	l-16.09,8.59c-5.35,2.87-10.75,5.7-16.06,8.61l-15.97,8.7c-5.34,2.88-10.62,5.82-15.9,8.76c-5.27,2.94-10.59,5.85-15.82,8.82
	l-15.73,8.91l-15.6,9.02c-5.19,3.02-10.33,6.08-15.44,9.17c5.65-2.61,11.27-5.24,16.85-7.91l16.69-8.05l16.57-8.16
	c5.53-2.71,10.98-5.5,16.47-8.25c5.48-2.75,10.97-5.51,16.4-8.31l16.33-8.38c5.46-2.78,10.82-5.64,16.23-8.46l16.21-8.48h-5.13
	l33.29,17.42l16.77,8.6c5.57,2.88,11.19,5.73,16.83,8.55c5.64,2.82,11.24,5.68,16.9,8.48l17.01,8.39l17.13,8.27
	c5.73,2.74,11.5,5.45,17.3,8.12C375.66,232.14,370.38,229,365.05,225.9z M365.05,239.83l-16.03-9.26l-16.16-9.15
	c-5.39-3.04-10.84-6.03-16.26-9.05c-5.41-3.02-10.86-6.02-16.34-8.99l-16.4-8.93l-33.04-17.64l-2.56-1.37l-2.56,1.37l-16.09,8.59
	c-5.35,2.87-10.75,5.7-16.06,8.61l-15.97,8.7c-5.34,2.88-10.62,5.82-15.9,8.76c-5.27,2.94-10.59,5.85-15.82,8.82l-15.73,8.91
	l-15.6,9.02c-5.19,3.02-10.33,6.08-15.44,9.17c5.65-2.61,11.27-5.24,16.85-7.91l16.69-8.05l16.57-8.16
	c5.53-2.71,10.98-5.5,16.47-8.25c5.48-2.75,10.97-5.51,16.4-8.31l16.33-8.38c5.46-2.78,10.82-5.64,16.23-8.46l16.21-8.48h-5.13
	l33.29,17.42l16.77,8.6c5.57,2.88,11.19,5.73,16.83,8.55c5.64,2.82,11.24,5.68,16.9,8.48l17.01,8.39l17.13,8.27
	c5.73,2.74,11.5,5.45,17.3,8.12C375.66,246.07,370.38,242.93,365.05,239.83z M365.05,253.76l-16.03-9.26l-16.16-9.15
	c-5.39-3.04-10.84-6.03-16.26-9.05c-5.41-3.02-10.86-6.02-16.34-8.99l-16.4-8.93l-33.04-17.64l-2.56-1.37l-2.56,1.37l-16.09,8.59
	c-5.35,2.87-10.75,5.7-16.06,8.61l-15.97,8.7c-5.34,2.88-10.62,5.82-15.9,8.76c-5.27,2.94-10.59,5.85-15.82,8.82l-15.73,8.91
	l-15.6,9.02c-5.19,3.02-10.33,6.08-15.44,9.17c5.65-2.61,11.27-5.24,16.85-7.91l16.69-8.05l16.57-8.16
	c5.53-2.71,10.98-5.5,16.47-8.25c5.48-2.75,10.97-5.51,16.4-8.31l16.33-8.38c5.46-2.78,10.82-5.64,16.23-8.46l16.21-8.48h-5.13
	l33.29,17.42l16.77,8.6c5.57,2.88,11.19,5.73,16.83,8.55c5.64,2.82,11.24,5.68,16.9,8.48l17.01,8.39l17.13,8.27
	c5.73,2.74,11.5,5.45,17.3,8.12C375.66,260,370.38,256.86,365.05,253.76z M365.05,267.69l-16.03-9.26l-16.16-9.15
	c-5.39-3.04-10.84-6.03-16.26-9.05c-5.41-3.02-10.86-6.02-16.34-8.99l-16.4-8.93l-33.04-17.64l-2.56-1.37l-2.56,1.37l-16.09,8.59
	c-5.35,2.87-10.75,5.7-16.06,8.61l-15.97,8.7c-5.34,2.88-10.62,5.82-15.9,8.76c-5.27,2.94-10.59,5.85-15.82,8.82l-15.73,8.91
	l-15.6,9.02c-5.19,3.02-10.33,6.08-15.44,9.17c5.65-2.61,11.27-5.24,16.85-7.91l16.69-8.05l16.57-8.16
	c5.53-2.71,10.98-5.5,16.47-8.25c5.48-2.75,10.97-5.51,16.4-8.31l16.33-8.38c5.46-2.78,10.82-5.64,16.23-8.46l16.21-8.48h-5.13
	l33.29,17.42l16.77,8.6c5.57,2.88,11.19,5.73,16.83,8.55c5.64,2.82,11.24,5.68,16.9,8.48l17.01,8.39l17.13,8.27
	c5.73,2.74,11.5,5.45,17.3,8.12C375.66,273.93,370.38,270.79,365.05,267.69z M365.05,281.62l-16.03-9.26l-16.16-9.15
	c-5.39-3.04-10.84-6.03-16.26-9.05c-5.41-3.02-10.86-6.02-16.34-8.99l-16.4-8.93l-33.04-17.64l-2.56-1.37l-2.56,1.37l-16.09,8.59
	c-5.35,2.87-10.75,5.7-16.06,8.61l-15.97,8.7c-5.34,2.88-10.62,5.82-15.9,8.76c-5.27,2.94-10.59,5.85-15.82,8.82l-15.73,8.91
	l-15.6,9.02c-5.19,3.02-10.33,6.08-15.44,9.17c5.65-2.61,11.27-5.24,16.85-7.91l16.69-8.05l16.57-8.16
	c5.53-2.71,10.98-5.5,16.47-8.25c5.48-2.75,10.97-5.51,16.4-8.31l16.33-8.38c5.46-2.78,10.82-5.64,16.23-8.46l16.21-8.48h-5.13
	l33.29,17.42l16.77,8.6c5.57,2.88,11.19,5.73,16.83,8.55c5.64,2.82,11.24,5.68,16.9,8.48l17.01,8.39l17.13,8.27
	c5.73,2.74,11.5,5.45,17.3,8.12C375.66,287.86,370.38,284.72,365.05,281.62z M365.05,295.55l-16.03-9.26l-16.16-9.15
	c-5.39-3.04-10.84-6.03-16.26-9.05c-5.41-3.02-10.86-6.02-16.34-8.99l-16.4-8.93l-33.04-17.64l-2.56-1.37l-2.56,1.37l-16.09,8.59
	c-5.35,2.87-10.75,5.7-16.06,8.61l-15.97,8.7c-5.34,2.88-10.62,5.82-15.9,8.76c-5.27,2.94-10.59,5.85-15.82,8.82l-15.73,8.91
	l-15.6,9.02c-5.19,3.02-10.33,6.08-15.44,9.17c5.65-2.61,11.27-5.24,16.85-7.91l16.69-8.05l16.57-8.16
	c5.53-2.71,10.98-5.5,16.47-8.25c5.48-2.75,10.97-5.51,16.4-8.31l16.33-8.38c5.46-2.78,10.82-5.64,16.23-8.46l16.21-8.48h-5.13
	l33.29,17.42l16.77,8.6c5.57,2.88,11.19,5.73,16.83,8.55c5.64,2.82,11.24,5.68,16.9,8.48l17.01,8.39l17.13,8.27
	c5.73,2.74,11.5,5.45,17.3,8.12C375.66,301.79,370.38,298.66,365.05,295.55z M365.05,309.48l-16.03-9.26l-16.16-9.15
	c-5.39-3.04-10.84-6.03-16.26-9.05c-5.41-3.02-10.86-6.02-16.34-8.99l-16.4-8.93l-33.04-17.64l-2.56-1.37l-2.56,1.37l-16.09,8.59
	c-5.35,2.87-10.75,5.7-16.06,8.61l-15.97,8.7c-5.34,2.88-10.62,5.82-15.9,8.76c-5.27,2.94-10.59,5.85-15.82,8.82l-15.73,8.91
	l-15.6,9.02c-5.19,3.02-10.33,6.08-15.44,9.17c5.65-2.61,11.27-5.24,16.85-7.91l16.69-8.05l16.57-8.16
	c5.53-2.71,10.98-5.5,16.47-8.25c5.48-2.75,10.97-5.51,16.4-8.31l16.33-8.38c5.46-2.78,10.82-5.64,16.23-8.46l16.21-8.48h-5.13
	l33.29,17.42l16.77,8.6c5.57,2.88,11.19,5.73,16.83,8.55c5.64,2.82,11.24,5.68,16.9,8.48l17.01,8.39l17.13,8.27
	c5.73,2.74,11.5,5.45,17.3,8.12C375.66,315.73,370.38,312.59,365.05,309.48z M365.05,323.42l-16.03-9.26l-16.16-9.15
	c-5.39-3.04-10.84-6.03-16.26-9.05c-5.41-3.02-10.86-6.02-16.34-8.99l-16.4-8.93l-33.04-17.64l-2.56-1.37l-2.56,1.37l-16.09,8.59
	c-5.35,2.87-10.75,5.7-16.06,8.61l-15.97,8.7c-5.34,2.88-10.62,5.82-15.9,8.76c-5.27,2.94-10.59,5.85-15.82,8.82l-15.73,8.91
	l-15.6,9.02c-5.19,3.02-10.33,6.08-15.44,9.17c5.65-2.61,11.27-5.24,16.85-7.91l16.69-8.05l16.57-8.16
	c5.53-2.71,10.98-5.5,16.47-8.25c5.48-2.75,10.97-5.51,16.4-8.31l16.33-8.38c5.46-2.78,10.82-5.64,16.23-8.46l16.21-8.48h-5.13
	l33.29,17.42l16.77,8.6c5.57,2.88,11.19,5.73,16.83,8.55c5.64,2.82,11.24,5.68,16.9,8.48l17.01,8.39l17.13,8.27
	c5.73,2.74,11.5,5.45,17.3,8.12C375.66,329.66,370.38,326.52,365.05,323.42z M365.05,337.35l-16.03-9.26l-16.16-9.15
	c-5.39-3.04-10.84-6.03-16.26-9.05c-5.41-3.02-10.86-6.02-16.34-8.99l-16.4-8.93l-33.04-17.64l-2.56-1.37l-2.56,1.37l-16.09,8.59
	c-5.35,2.87-10.75,5.7-16.06,8.61l-15.97,8.7c-5.34,2.88-10.62,5.82-15.9,8.76c-5.27,2.94-10.59,5.85-15.82,8.82l-15.73,8.91
	l-15.6,9.02c-5.19,3.02-10.33,6.08-15.44,9.17c5.65-2.61,11.27-5.24,16.85-7.91l16.69-8.05l16.57-8.16
	c5.53-2.71,10.98-5.5,16.47-8.25c5.48-2.75,10.97-5.51,16.4-8.31l16.33-8.38c5.46-2.78,10.82-5.64,16.23-8.46l16.21-8.48h-5.13
	l33.29,17.42l16.77,8.6c5.57,2.88,11.19,5.73,16.83,8.55c5.64,2.82,11.24,5.68,16.9,8.48l17.01,8.39l17.13,8.27
	c5.73,2.74,11.5,5.45,17.3,8.12C375.66,343.59,370.38,340.45,365.05,337.35z"/>
<g>
	<polygon class="Colour3 fill" points="0.26,317.11 88.86,364.17 88.86,402.14 83.45,399.52 83.45,367.84 0.26,323.72 	"/>
	<polygon class="Colour2 fill" points="0.26,325.05 82.28,368.55 82.28,398.95 0.26,359.24 	"/>
	<polygon class="Colour3 fill" points="0.26,390.55 88.86,437.61 88.86,475.58 83.45,472.96 83.45,441.27 0.26,397.14 	"/>
	<polygon class="Colour2 fill" points="0.26,398.47 82.28,441.97 82.28,472.39 0.26,432.68 	"/>
	<polygon class="Colour3 fill" points="0.26,466.41 88.86,513.46 88.86,551.42 83.45,548.8 83.45,517.08 0.26,472.96 	"/>
	<polygon class="Colour2 fill" points="0.26,474.28 82.28,517.78 82.28,548.23 0.26,508.53 	"/>
	<polygon class="Colour3 fill" points="0.26,542.6 88.86,589.64 88.86,627.61 83.33,624.93 83.45,624.93 83.45,592.89 0.26,548.77 	"/>
	<polygon class="Colour2 fill" points="0.26,550.09 82.28,593.59 82.28,624.42 0.26,584.72 	"/>
	<polygon class="Colour3 fill" points="0.26,615.69 88.86,662.75 88.86,700.72 83.45,698.09 83.45,666.58 0.26,622.46 	"/>
	<polygon class="Colour2 fill" points="0.26,623.78 82.28,667.28 82.28,697.53 0.26,657.82 	"/>
</g>
<polygon class="Colour5 fill" points="103.62,705.5 0.26,705.5 0.26,659.12 90.03,702.58 90.03,662.05 0.26,614.37 0.26,586.02 
	90.03,629.47 90.03,588.94 0.26,541.27 0.26,509.84 82.59,549.68 90.03,553.29 90.03,512.75 0.26,465.08 0.26,433.98 90.03,477.44 
	90.03,436.91 0.26,389.23 0.26,360.54 90.03,404 90.03,363.47 0.26,315.79 0.26,300.48 103.62,341.7 "/>
<linearGradient id="SVGID_2_" gradientUnits="userSpaceOnUse" x1="249.9923" y1="610.0227" x2="249.9923" y2="706.9708">
	<stop class="Gradient2 stopColor" offset="0" style="stop-color:#1C2A59"/>
	<stop class="Gradient1 stopColor" offset="1" style="stop-color:#0E9DD5;stop-opacity:0"/>
</linearGradient>
<path class="st1" d="M395.19,705.5h-290.4v-76.52c46.19-14.23,94.08-21.6,142.35-21.89c0.95-0.01,1.89-0.01,2.83-0.01
	c49.26,0,98.1,7.37,145.22,21.9V705.5z"/>
<path class="Colour2 fill" d="M395.19,627.75c-48.03-14.77-97.86-22.15-148.06-21.84c-48.26,0.29-96.15,7.64-142.34,21.84v-14.19
	c46.29-13.71,94.23-20.8,142.49-21.05c50.05-0.28,99.84,6.82,147.91,21.05V627.75z"/>
<g>
	<polygon class="Colour2 fill" points="499.74,657.82 417.72,697.53 417.72,666.72 499.74,623.22 	"/>
	<polygon class="Colour3 fill" points="499.74,621.89 416.55,666.02 416.55,698.06 416.63,698.06 411.12,700.72 411.12,662.75 
		499.74,615.69 	"/>
	<polygon class="Colour2 fill" points="499.74,584.72 417.72,624.41 417.72,593.97 499.74,550.47 	"/>
	<polygon class="Colour3 fill" points="499.74,549.14 416.55,593.26 416.55,624.98 411.12,627.61 411.12,589.64 499.74,542.6 	"/>
	<polygon class="Colour2 fill" points="499.74,508.53 417.72,548.23 417.72,517.49 499.74,473.98 	"/>
	<polygon class="Colour3 fill" points="499.74,472.66 416.55,516.78 416.55,548.79 411.12,551.42 411.12,513.46 499.74,466.41 	"/>
	<polygon class="Colour2 fill" points="499.74,432.68 417.72,472.37 417.72,442.17 499.74,398.67 	"/>
	<polygon class="Colour3 fill" points="499.74,397.35 416.55,441.47 416.55,472.94 411.12,475.58 411.12,437.61 499.74,390.55 	"/>
	<polygon class="Colour2 fill" points="499.74,359.24 417.72,398.94 417.72,368.55 499.74,325.05 	"/>
	<polygon class="Colour3 fill" points="499.74,323.72 416.55,367.84 416.55,399.52 411.12,402.14 411.12,364.17 499.74,317.11 	"/>
</g>
<polygon class="Colour5 fill" points="499.74,315.79 410.26,363.31 409.95,363.47 409.95,404 417.39,400.41 417.13,399.88 417.14,399.88 
	417.39,400.4 499.74,360.54 499.74,389.23 410.26,436.74 409.95,436.91 409.95,477.45 499.74,433.98 499.74,465.08 409.95,512.75 
	409.95,553.29 499.74,509.84 499.74,541.27 409.95,588.94 409.95,629.47 499.74,586.02 499.74,614.37 410.26,661.88 409.95,662.05 
	409.95,701.65 409.97,702.24 410.69,702.24 499.74,659.12 499.74,705.5 396.36,705.5 396.36,340.89 499.74,300.47 "/>
<path class="Colour4 fill" d="M395.24,619.94l-142.4-69.21l-149.22,70.01v-23.92l149.22-68.92l142.4,68.13
	C395.24,604.97,395.24,613,395.24,619.94z M395.24,403.77c0-10.11,0-20.15,0-30.01l-142.43-73.41l-149.2,74.23v30.11l149.2-72.79
	L395.24,403.77z M395.24,459.81c0-8.94,0-17.95,0-26.96l-142.43-71.7l-149.2,72.48v27.05l149.37-71.62L395.24,459.81z M395.24,566.8
	c0-8.01,0-16.44,0-25.19l-142.4-69.56l-149.22,70.36v25l149.22-67.43L395.24,566.8z M395.24,513.46c0-8.33,0-16.84,0-25.49
	l-142.43-71.67l-149.2,73.75v26.88l149.2-74.59L395.24,513.46z"/>
<g id="FBodyLogos"></g>
<path class="Colour2 fill" d="M297.23,33.34c-15.44,7.57-29.78,8.54-40.55,8.54c-2.52,0-4.91-0.05-7.16-0.11
	c-12.97-0.3-43.34-0.99-66.09-21.62c-5.9-5.35-10.82-11.62-14.64-18.64l-77.81,23c2.28,12.5,5.36,32.61,6.87,56.53
	c33.05-12.5,164.69-55.04,303.68-0.3c1.21-17.76,3.5-36.67,7.13-56.66L331.53,1.51C325.83,11.26,315.31,24.48,297.23,33.34z"/>
<g>
	<path class="Colour3 fill" d="M316.22,87.83c-3.38-0.4-6.56-0.87-9.51-1.15c-2.95-0.31-5.65-0.6-8.05-0.78c-2.4-0.2-4.49-0.39-6.21-0.48
		c-3.45-0.22-5.42-0.34-5.42-0.34s1.96,0.26,5.38,0.71c1.71,0.21,3.78,0.54,6.16,0.9c2.38,0.34,5.05,0.81,7.96,1.32
		c2.92,0.47,6.04,1.15,9.37,1.78c3.3,0.73,6.8,1.42,10.37,2.32c3.59,0.83,7.27,1.8,11,2.8c3.72,1.05,7.5,2.08,11.24,3.28
		c3.75,1.14,7.47,2.39,11.11,3.65c3.63,1.28,7.2,2.57,10.62,3.9c3.42,1.33,6.71,2.63,9.8,3.97c3.11,1.27,5.99,2.6,8.66,3.8
		c2.69,1.18,5.06,2.38,7.2,3.39c1.75,0.83,3.32,1.61,4.68,2.31c-0.06-2.9-0.08-5.86-0.08-8.85c-0.45-0.18-0.91-0.37-1.39-0.56
		c-2.27-0.9-4.82-1.97-7.63-2.98c-2.8-1.04-5.83-2.19-9.08-3.27c-3.23-1.14-6.67-2.24-10.23-3.35c-3.56-1.12-7.27-2.17-11.03-3.22
		c-3.78-1.02-7.62-2.03-11.49-2.92c-3.85-0.95-7.75-1.74-11.57-2.54c-3.83-0.75-7.6-1.47-11.27-2.06
		C323.15,88.79,319.58,88.34,316.22,87.83z"/>
</g>
<g>
	<path class="Colour3 fill" d="M104.1,116.9c2.14-1.01,4.51-2.21,7.2-3.39c2.67-1.21,5.55-2.53,8.66-3.8c3.08-1.34,6.38-2.64,9.8-3.97
		c3.42-1.33,6.98-2.62,10.62-3.9c3.65-1.25,7.36-2.51,11.11-3.65c3.74-1.2,7.52-2.23,11.24-3.28c3.73-1,7.41-1.97,11-2.8
		c3.58-0.9,7.07-1.58,10.37-2.32c3.32-0.63,6.45-1.31,9.37-1.78c2.91-0.51,5.58-0.98,7.95-1.32c2.37-0.36,4.44-0.69,6.16-0.9
		c3.42-0.45,5.38-0.71,5.38-0.71s-1.97,0.12-5.42,0.34c-1.73,0.09-3.81,0.28-6.21,0.48c-2.4,0.18-5.1,0.47-8.05,0.78
		c-2.95,0.28-6.13,0.74-9.51,1.15c-3.36,0.51-6.92,0.96-10.58,1.62c-3.67,0.59-7.44,1.31-11.27,2.06c-3.82,0.8-7.71,1.59-11.56,2.54
		c-3.87,0.89-7.71,1.9-11.49,2.92c-3.77,1.05-7.48,2.11-11.03,3.22c-3.56,1.12-7,2.21-10.23,3.35c-3.25,1.08-6.28,2.23-9.08,3.27
		c-2.81,1.01-5.36,2.09-7.63,2.98c-0.76,0.3-1.46,0.58-2.14,0.86c-0.01,2.96-0.05,5.94-0.12,8.95
		C100.17,118.82,102.01,117.89,104.1,116.9z"/>
</g>
<g>
	<path class="Colour3 fill" d="M403.8,336.72l95.35-37.28v-0.28c-5.21-1.95-10.28-4.24-15.16-6.79L403.8,336.72z"/>
</g>
<g>
	<path class="Colour3 fill" d="M0.86,299.46l94.87,37.83L15.1,292.78c-4.58,2.44-9.33,4.67-14.25,6.63V299.46z"/>
</g>
<path class="st2" d="M289.95,92.48c-16.31,9.96-33.22,11.05-39.8,11.05c-0.02,0-0.05,0-0.07,0c-6.89-0.01-20.51-1.07-34.24-8.08
	c-29.5-15.06-38.48-46.9-42.35-62.22c11.41,8.27,38.7,24.57,76.39,24.57c0.58,0,1.17,0,1.76-0.01
	c36.07-0.48,61.97-15.32,74.87-24.78C322.8,50.27,315.24,77.04,289.95,92.48z"/>
<path class="NeckAndArmTrim fill" d="M500,313.45c-14.19-4.41-26.2-10.21-36.41-16.69c-109.06-69.26-76.4-257.02-72.44-278.17L410,24.16
	c-5.06,27.42-33.95,196.19,63.99,261.38c7.63,5.08,16.25,9.68,26.01,13.53C500,303.86,500,308.66,500,313.45"/>
<path class="NeckAndArmTrim fill" d="M0,313.45v-7.91v-6.73c5.6-2.07,13.68-5.47,22.6-10.82c32.6-19.58,46.84-47.61,54.73-63.14
	c20.05-39.48,29.29-112.46,13.02-201.12l17.57-5.14c3.87,21.26,36.22,212.31-72.93,279.39C25.1,304.06,13.55,309.42,0,313.45"/>
<path class="NeckAndArmTrim fill" d="M168.87,0.74c-0.04,7.29,0.55,17.88,3.64,30.23c3.73,14.94,12.16,48.63,43.13,64.45
	c14.77,7.54,29.04,8.14,34.53,8.15c4.13,0.01,22.45-0.3,40.21-11.15c28.19-17.22,34.57-48.55,37.92-65
	c2.24-11.02,2.58-20.35,2.48-26.68l15.97,4.72c-1.69,47.51-23.18,87.11-53.8,102.42c-20.78,10.39-42.43,11-42.43,11
	s-19.98,1.27-38.48-6.68c-37.34-16.06-59.8-57.56-59.29-106.74L168.87,0.74z M330.78,0.74c-2.53,4.76-7.07,12.02-14.8,19.03
	c-22.51,20.41-52.68,21.1-65.53,21.39c-12.26,0.28-28.94,0.66-47.31-8.35c-20.27-9.94-30.4-25.31-34.28-32.07
	c-0.77,13.4,3.64,30.23,3.64,30.23c7.63,5.76,36.55,26.15,79.31,25.58c40.55-0.54,67.83-19.6,75.75-25.58
	C327.57,30.97,331.28,15.71,330.78,0.74z"/>
<path class="st2" d="M290.14,92.42c-17.76,10.84-36.08,11.15-40.21,11.15c-5.49-0.01-19.76-0.61-34.53-8.15
	c-30.97-15.82-39.4-49.51-43.13-64.45c7.63,5.76,36.55,26.15,79.31,25.58c40.55-0.54,67.83-19.6,75.75-25.58
	C323.75,48.07,316.43,76.37,290.14,92.42z"/>
<g>
	<line class="st3" x1="0" y1="686.87" x2="500" y2="686.87"/>
	<line class="st3" x1="0" y1="693.34" x2="500" y2="693.34"/>
	<path class="st3" d="M169.01,7.7c5.08,6.73,15.94,19.15,34.53,27.68c19.04,8.73,36.08,8.75,47.15,8.64
		c11.52-0.11,30.6-0.52,50.78-11.28c15.21-8.11,24.48-18.61,29.32-25.04"/>
	<path class="st3" d="M0,302.36c9.94-3.58,18.71-7.91,26.46-12.67c106.38-65.38,76.16-241.36,70.98-269.91"/>
	<path class="st3" d="M104,17.85c4.04,20,38.77,204.39-67.69,273.65C26.2,298.07,14.24,303.99,0,308.51"/>
	<path class="st3" d="M401.87,19.87c-5.69,32.08-31.82,205.36,73.02,271.94c7.38,4.69,15.7,7.94,25.11,11.04"/>
	<path class="st3" d="M395.02,17.85c-4.16,23.35-34.75,208.67,72.17,275.54c9.38,5.86,20.21,11.07,32.8,15.12"/>
	<path class="st3" d="M157.4,2.22c0.5,47.7,22,87.69,57.2,103.38c17.84,7.95,37.12,6.68,37.12,6.68s20.88-0.61,40.93-11
		c28.71-14.88,46.87-52.69,49.5-98.41"/>
	<path class="st3" d="M163.26,0.5c0.54,13.13,5.5,74.6,49.89,97.06c16.46,8.32,33.86,9.02,34.67,9.05
		c31.02,0.96,52.88-16.27,56.7-20.22c21.35-22.09,24.83-40.96,30.04-64.61c1.83-8.33,2.16-15.64,2.39-21.09"/>
	<path class="st3" d="M170.51,19.46c6.29,6.8,16.38,15.62,31.2,22.16c19.8,8.73,37.52,8.75,49.02,8.64
		c11.98-0.11,31.82-0.52,52.8-11.28c11.86-6.09,20.25-13.51,25.82-19.56"/>
</g>
</svg>
