<?xml version="1.0" encoding="utf-8"?>
<!-- Generator: Adobe Illustrator 19.1.0, SVG Export Plug-In . SVG Version: 6.00 Build 0)  -->
<svg version="1.1" id="Layer_1" xmlns="http://www.w3.org/2000/svg" xmlns:xlink="http://www.w3.org/1999/xlink" x="0px" y="0px"
	 viewBox="0 0 500 706" style="enable-background:new 0 0 500 706;" xml:space="preserve">
<style type="text/css">
	<![CDATA[
	@font-face{font-family:'codaheavy';src:url('/fonts/coda-heavy-webfont.woff') format('woff')}
	text{font-family:Impact,codaheavy,sans-serif}
	.Number.fill{fill:#000}
	.NumberOutline.stroke{fill:none;stroke:#777;stroke-width:2.5}
	.Colour1.fill{fill:#081A38;}
	.Colour2.fill{fill:#EE3859;}
	.Colour3.fill{fill:#D71E3C;}
	.Colour4.fill{fill:#1C2A59;}
	.Colour5.fill{fill:#051838;}
	.NeckAndArmTrim.fill{fill:#1C2A59;}
	.Gradient1_removed{stop-color:#0E9DD5}
	.Gradient2_removed{stop-color:#1C2A59}
	.st0{fill:url(#SVGID_1_removed);}
	.st1{fill:url(#SVGID_2_removed);}
	.st2{fill:none;stroke:#FFFFFF;stroke-width:0.5;stroke-miterlimit:10;stroke-dasharray:4,2.4;}
	]]>
</style>
<g>
	<path class="Colour1 fill" d="M500,705.5V313.49v-14.63c-5.57-2.07-13.59-5.46-22.46-10.82c-32.39-19.57-51.45-45.92-59.29-61.43
		c-19.92-39.45-24.18-114.04-8.02-202.64c-26-7.66-52.01-15.32-78.01-22.97c-3.85,6.75-13.54,22.89-33.68,32.82
		c-18.26,9-35.2,7.85-47.38,7.57c-12.76-0.29-42.74-0.98-65.11-21.38c-7.67-7-12.6-14.16-15.12-18.92
		c-26.24,7.8-52.05,15.51-78.29,23.31c5.02,27.4,50.79,202.21-63.58,261.2c-8.11,4.18-16.15,9.67-25.85,13.52
		c0,135.46,0,270.92,0,406.38H500z"/>
	<path class="Colour3 fill" d="M295.07,33.32c-15.34,7.56-29.59,8.54-40.29,8.54c-2.51,0-4.88-0.05-7.11-0.11
		c-12.89-0.3-43.06-0.99-65.66-21.6c-5.86-5.34-10.75-11.61-14.55-18.63L90.15,24.51c3.08,16.98,7.62,47.99,7.73,83.54
		c33.44-14.19,164.69-61.7,299.8-0.01c0.16-25.24,2.57-53.35,8.11-83.96L329.15,1.51C323.48,11.25,313.03,24.46,295.07,33.32z"/>
	<linearGradient id="SVGID_1_" gradientUnits="userSpaceOnUse" x1="248.1401" y1="-132.6034" x2="248.1401" y2="300.9767">
		<stop class="Gradient1 stopColor" offset="0" style="stop-color:#0E9DD5;stop-opacity:0"/>
		<stop class="Gradient2 stopColor" offset="1" style="stop-color:#1C2A59"/>
	</linearGradient>
	<path class="st0" d="M378.21,221.22c-5.76-2.67-11.5-5.38-17.19-8.12L344,204.83l-16.9-8.38c-5.63-2.8-11.19-5.65-16.79-8.47
		c-5.6-2.82-11.18-5.66-16.72-8.54l-16.66-8.6l-33.08-17.41h5.09l-16.1,8.48c-5.38,2.81-10.71,5.68-16.13,8.45l-16.22,8.37
		c-5.39,2.8-10.84,5.55-16.29,8.31c-5.46,2.74-10.87,5.53-16.36,8.24l-16.46,8.15l-16.58,8.04c-5.54,2.67-11.13,5.3-16.74,7.9
		c5.08-3.08,10.19-6.14,15.34-9.16l15.5-9.02l15.63-8.91c5.2-2.98,10.48-5.88,15.72-8.82c5.25-2.93,10.49-5.87,15.79-8.75
		l15.86-8.69c5.27-2.91,10.64-5.74,15.96-8.61l15.98-8.58l2.55-1.37l2.55,1.37l32.83,17.63l16.29,8.92
		c5.44,2.96,10.85,5.96,16.23,8.98c5.38,3.02,10.8,6.01,16.16,9.05l16.06,9.14l15.93,9.25
		C367.74,214.92,372.99,218.05,378.21,221.22z M362.45,225.74l-15.93-9.25l-16.06-9.14c-5.36-3.04-10.77-6.03-16.16-9.05
		c-5.38-3.02-10.79-6.02-16.23-8.98l-16.29-8.92l-32.83-17.63l-2.55-1.37l-2.55,1.37l-15.98,8.58c-5.32,2.87-10.68,5.7-15.96,8.61
		l-15.86,8.69c-5.3,2.88-10.55,5.82-15.79,8.75c-5.24,2.94-10.52,5.84-15.72,8.82l-15.63,8.91l-15.5,9.02
		c-5.15,3.02-10.26,6.08-15.34,9.16c5.61-2.6,11.2-5.23,16.74-7.9l16.58-8.04l16.46-8.15c5.5-2.71,10.9-5.5,16.36-8.24
		c5.45-2.75,10.9-5.5,16.29-8.31l16.22-8.37c5.42-2.78,10.75-5.64,16.13-8.45l16.1-8.48h-5.09l33.08,17.41l16.66,8.6
		c5.54,2.88,11.11,5.72,16.72,8.54c5.6,2.82,11.17,5.68,16.79,8.47l16.9,8.38l17.02,8.27c5.69,2.74,11.42,5.44,17.19,8.12
		C372.99,231.97,367.74,228.84,362.45,225.74z M362.45,239.66l-15.93-9.25l-16.06-9.14c-5.36-3.04-10.77-6.03-16.16-9.05
		c-5.38-3.02-10.79-6.02-16.23-8.98l-16.29-8.92l-32.83-17.63l-2.55-1.37l-2.55,1.37l-15.98,8.58c-5.32,2.87-10.68,5.7-15.96,8.61
		l-15.86,8.69c-5.3,2.88-10.55,5.82-15.79,8.75c-5.24,2.94-10.52,5.84-15.72,8.82l-15.63,8.91l-15.5,9.02
		c-5.15,3.02-10.26,6.08-15.34,9.16c5.61-2.6,11.2-5.23,16.74-7.9l16.58-8.04l16.46-8.15c5.5-2.71,10.9-5.5,16.36-8.24
		c5.45-2.75,10.9-5.5,16.29-8.31l16.22-8.37c5.42-2.78,10.75-5.64,16.13-8.45l16.1-8.48h-5.09l33.08,17.41l16.66,8.6
		c5.54,2.88,11.11,5.72,16.72,8.54c5.6,2.82,11.17,5.68,16.79,8.47l16.9,8.38l17.02,8.27c5.69,2.74,11.42,5.44,17.19,8.12
		C372.99,245.9,367.74,242.76,362.45,239.66z M362.45,253.58l-15.93-9.25l-16.06-9.14c-5.36-3.04-10.77-6.03-16.16-9.05
		c-5.38-3.02-10.79-6.02-16.23-8.98l-16.29-8.92l-32.83-17.63l-2.55-1.37l-2.55,1.37l-15.98,8.58c-5.32,2.87-10.68,5.7-15.96,8.61
		l-15.86,8.69c-5.3,2.88-10.55,5.82-15.79,8.75c-5.24,2.94-10.52,5.84-15.72,8.82l-15.63,8.91l-15.5,9.02
		c-5.15,3.02-10.26,6.08-15.34,9.16c5.61-2.6,11.2-5.23,16.74-7.9l16.58-8.04l16.46-8.15c5.5-2.71,10.9-5.5,16.36-8.24
		c5.45-2.75,10.9-5.5,16.29-8.31l16.22-8.37c5.42-2.78,10.75-5.64,16.13-8.45l16.1-8.48h-5.09l33.08,17.41l16.66,8.6
		c5.54,2.88,11.11,5.72,16.72,8.54c5.6,2.82,11.17,5.68,16.79,8.47l16.9,8.38l17.02,8.27c5.69,2.74,11.42,5.44,17.19,8.12
		C372.99,259.82,367.74,256.68,362.45,253.58z M362.45,267.5l-15.93-9.25l-16.06-9.14c-5.36-3.04-10.77-6.03-16.16-9.05
		c-5.38-3.02-10.79-6.02-16.23-8.98l-16.29-8.92l-32.83-17.63l-2.55-1.37l-2.55,1.37l-15.98,8.58c-5.32,2.87-10.68,5.7-15.96,8.61
		l-15.86,8.69c-5.3,2.88-10.55,5.82-15.79,8.75c-5.24,2.94-10.52,5.84-15.72,8.82l-15.63,8.91l-15.5,9.02
		c-5.15,3.02-10.26,6.08-15.34,9.16c5.61-2.6,11.2-5.23,16.74-7.9l16.58-8.04l16.46-8.15c5.5-2.71,10.9-5.5,16.36-8.24
		c5.45-2.75,10.9-5.5,16.29-8.31l16.22-8.37c5.42-2.78,10.75-5.64,16.13-8.45l16.1-8.48h-5.09l33.08,17.41l16.66,8.6
		c5.54,2.88,11.11,5.72,16.72,8.54c5.6,2.82,11.17,5.68,16.79,8.47l16.9,8.38l17.02,8.27c5.69,2.74,11.42,5.44,17.19,8.12
		C372.99,273.74,367.74,270.6,362.45,267.5z M362.45,281.42l-15.93-9.25l-16.06-9.14c-5.36-3.04-10.77-6.03-16.16-9.05
		c-5.38-3.02-10.79-6.02-16.23-8.98l-16.29-8.92l-32.83-17.63l-2.55-1.37l-2.55,1.37l-15.98,8.58c-5.32,2.87-10.68,5.7-15.96,8.61
		l-15.86,8.69c-5.3,2.88-10.55,5.82-15.79,8.75c-5.24,2.94-10.52,5.84-15.72,8.82l-15.63,8.91l-15.5,9.02
		c-5.15,3.02-10.26,6.08-15.34,9.16c5.61-2.6,11.2-5.23,16.74-7.9l16.58-8.04l16.46-8.15c5.5-2.71,10.9-5.5,16.36-8.24
		c5.45-2.75,10.9-5.5,16.29-8.31l16.22-8.37c5.42-2.78,10.75-5.64,16.13-8.45l16.1-8.48h-5.09l33.08,17.41l16.66,8.6
		c5.54,2.88,11.11,5.72,16.72,8.54c5.6,2.82,11.17,5.68,16.79,8.47l16.9,8.38l17.02,8.27c5.69,2.74,11.42,5.44,17.19,8.12
		C372.99,287.66,367.74,284.52,362.45,281.42z M362.45,295.34l-15.93-9.25l-16.06-9.14c-5.36-3.04-10.77-6.03-16.16-9.05
		c-5.38-3.02-10.79-6.02-16.23-8.98L281.78,250l-32.83-17.63L246.4,231l-2.55,1.37l-15.98,8.58c-5.32,2.87-10.68,5.7-15.96,8.61
		l-15.86,8.69c-5.3,2.88-10.55,5.82-15.79,8.75c-5.24,2.94-10.52,5.84-15.72,8.82l-15.63,8.91l-15.5,9.02
		c-5.15,3.02-10.26,6.08-15.34,9.16c5.61-2.6,11.2-5.23,16.74-7.9l16.58-8.04l16.46-8.15c5.5-2.71,10.9-5.5,16.36-8.24
		c5.45-2.75,10.9-5.5,16.29-8.31l16.22-8.37c5.42-2.78,10.75-5.64,16.13-8.45l16.1-8.48h-5.09l33.08,17.41l16.66,8.6
		c5.54,2.88,11.11,5.72,16.72,8.54c5.6,2.82,11.17,5.68,16.79,8.47l16.9,8.38l17.02,8.27c5.69,2.74,11.42,5.44,17.19,8.12
		C372.99,301.58,367.74,298.44,362.45,295.34z M362.45,309.27l-15.93-9.25l-16.06-9.14c-5.36-3.04-10.77-6.03-16.16-9.05
		c-5.38-3.02-10.79-6.02-16.23-8.98l-16.29-8.92l-32.83-17.63l-2.55-1.37l-2.55,1.37l-15.98,8.58c-5.32,2.87-10.68,5.7-15.96,8.61
		l-15.86,8.69c-5.3,2.88-10.55,5.82-15.79,8.75c-5.24,2.94-10.52,5.84-15.72,8.82l-15.63,8.91l-15.5,9.02
		c-5.15,3.02-10.26,6.08-15.34,9.16c5.61-2.6,11.2-5.23,16.74-7.9l16.58-8.04l16.46-8.15c5.5-2.71,10.9-5.5,16.36-8.24
		c5.45-2.75,10.9-5.5,16.29-8.31l16.22-8.37c5.42-2.78,10.75-5.64,16.13-8.45l16.1-8.48h-5.09l33.08,17.41l16.66,8.6
		c5.54,2.88,11.11,5.72,16.72,8.54c5.6,2.82,11.17,5.68,16.79,8.47l16.9,8.38l17.02,8.27c5.69,2.74,11.42,5.44,17.19,8.12
		C372.99,315.5,367.74,312.37,362.45,309.27z M362.45,323.19l-15.93-9.25l-16.06-9.14c-5.36-3.04-10.77-6.03-16.16-9.05
		c-5.38-3.02-10.79-6.02-16.23-8.98l-16.29-8.92l-32.83-17.63l-2.55-1.37l-2.55,1.37l-15.98,8.58c-5.32,2.87-10.68,5.7-15.96,8.61
		l-15.86,8.69c-5.3,2.88-10.55,5.82-15.79,8.75c-5.24,2.94-10.52,5.84-15.72,8.82l-15.63,8.91l-15.5,9.02
		c-5.15,3.02-10.26,6.08-15.34,9.16c5.61-2.6,11.2-5.23,16.74-7.9l16.58-8.04l16.46-8.15c5.5-2.71,10.9-5.5,16.36-8.24
		c5.45-2.75,10.9-5.5,16.29-8.31l16.22-8.37c5.42-2.78,10.75-5.64,16.13-8.45l16.1-8.48h-5.09l33.08,17.41l16.66,8.6
		c5.54,2.88,11.11,5.72,16.72,8.54c5.6,2.82,11.17,5.68,16.79,8.47l16.9,8.38l17.02,8.27c5.69,2.74,11.42,5.44,17.19,8.12
		C372.99,329.42,367.74,326.29,362.45,323.19z M362.45,337.11l-15.93-9.25l-16.06-9.14c-5.36-3.04-10.77-6.03-16.16-9.05
		c-5.38-3.02-10.79-6.02-16.23-8.98l-16.29-8.92l-32.83-17.63l-2.55-1.37l-2.55,1.37l-15.98,8.58c-5.32,2.87-10.68,5.7-15.96,8.61
		l-15.86,8.69c-5.3,2.88-10.55,5.82-15.79,8.75c-5.24,2.94-10.52,5.84-15.72,8.82l-15.63,8.91l-15.5,9.02
		c-5.15,3.02-10.26,6.08-15.34,9.16c5.61-2.6,11.2-5.23,16.74-7.9l16.58-8.04l16.46-8.15c5.5-2.71,10.9-5.5,16.36-8.24
		c5.45-2.75,10.9-5.5,16.29-8.31l16.22-8.37c5.42-2.78,10.75-5.64,16.13-8.45l16.1-8.48h-5.09l33.08,17.41l16.66,8.6
		c5.54,2.88,11.11,5.72,16.72,8.54c5.6,2.82,11.17,5.68,16.79,8.47l16.9,8.38l17.02,8.27c5.69,2.74,11.42,5.44,17.19,8.12
		C372.99,343.34,367.74,340.21,362.45,337.11z"/>
	<g>
		<polygon class="Colour3 fill" points="0,316.89 88.04,363.92 88.04,401.85 82.66,399.23 82.66,367.58 0,323.49 		"/>
		<polygon class="Colour2 fill" points="0,324.82 81.49,368.29 81.49,398.67 0,358.98 		"/>
		<polygon class="Colour3 fill" points="0,390.27 88.04,437.3 88.04,475.24 82.66,472.62 82.66,440.95 0,396.86 		"/>
		<polygon class="Colour2 fill" points="0,398.19 81.49,441.66 81.49,472.05 0,432.37 		"/>
		<polygon class="Colour3 fill" points="0,466.08 88.04,513.09 88.04,551.03 82.66,548.41 82.66,516.71 0,472.62 		"/>
		<polygon class="Colour2 fill" points="0,473.94 81.49,517.42 81.49,547.84 0,508.17 		"/>
		<polygon class="Colour3 fill" points="0,542.21 88.04,589.23 88.04,627.16 82.54,624.49 82.66,624.49 82.66,592.47 0,548.38 		"/>
		<polygon class="Colour2 fill" points="0,549.7 81.49,593.17 81.49,623.98 0,584.31 		"/>
		<polygon class="Colour3 fill" points="0,615.25 88.04,662.28 88.04,700.22 82.66,697.6 82.66,666.11 0,622.02 		"/>
		<polygon class="Colour2 fill" points="0,623.34 81.49,666.81 81.49,697.03 0,657.35 		"/>
	</g>
	<polygon class="Colour5 fill" points="102.7,705 0,705 0,658.65 89.2,702.09 89.2,661.58 0,613.93 0,585.61 89.2,629.03 89.2,588.52 
		0,540.89 0,509.48 81.81,549.29 89.2,552.9 89.2,512.39 0,464.75 0,433.67 89.2,477.11 89.2,436.6 0,388.95 0,360.28 89.2,403.72 
		89.2,363.21 0,315.56 0,300.27 102.7,341.46 	"/>
	<linearGradient id="SVGID_2_" gradientUnits="userSpaceOnUse" x1="248.1326" y1="609.5908" x2="248.1326" y2="706.4701">
		<stop class="Gradient2 stopColor" offset="0" style="stop-color:#1C2A59"/>
		<stop class="Gradient1 stopColor" offset="1" style="stop-color:#0E9DD5;stop-opacity:0"/>
	</linearGradient>
	<path class="st1" d="M392.4,705H103.86v-76.47c45.89-14.22,93.48-21.58,141.43-21.87c0.94-0.01,1.87-0.01,2.81-0.01
		c48.94,0,97.47,7.36,144.29,21.88V705z"/>
	<path class="Colour2 fill" d="M392.4,627.31c-47.72-14.76-97.23-22.13-147.11-21.82c-47.95,0.29-95.53,7.64-141.43,21.82v-14.18
		c46-13.7,93.63-20.78,141.57-21.03c49.73-0.28,99.2,6.82,146.96,21.04V627.31z"/>
	<g>
		<polygon class="Colour2 fill" points="496.28,657.35 414.79,697.04 414.79,666.25 496.28,622.78 		"/>
		<polygon class="Colour3 fill" points="496.28,621.45 413.62,665.54 413.62,697.56 413.7,697.56 408.23,700.23 408.23,662.28 
			496.28,615.25 		"/>
		<polygon class="Colour2 fill" points="496.28,584.31 414.79,623.97 414.79,593.55 496.28,550.08 		"/>
		<polygon class="Colour3 fill" points="496.28,548.75 413.62,592.84 413.62,624.54 408.23,627.16 408.23,589.23 496.28,542.21 		"/>
		<polygon class="Colour2 fill" points="496.28,508.17 414.79,547.84 414.79,517.12 496.28,473.65 		"/>
		<polygon class="Colour3 fill" points="496.28,472.32 413.62,516.42 413.62,548.4 408.23,551.03 408.23,513.09 496.28,466.08 		"/>
		<polygon class="Colour2 fill" points="496.28,432.37 414.79,472.04 414.79,441.86 496.28,398.39 		"/>
		<polygon class="Colour3 fill" points="496.28,397.07 413.62,441.16 413.62,472.6 408.23,475.24 408.23,437.3 496.28,390.27 		"/>
		<polygon class="Colour2 fill" points="496.28,358.98 414.79,398.65 414.79,368.29 496.28,324.82 		"/>
		<polygon class="Colour3 fill" points="496.28,323.49 413.62,367.58 413.62,399.23 408.23,401.85 408.23,363.92 496.28,316.89 		"/>
	</g>
	<polygon class="Colour5 fill" points="496.28,315.56 407.38,363.05 407.07,363.21 407.07,403.72 414.46,400.13 414.2,399.59 
		414.21,399.59 414.46,400.11 496.28,360.28 496.28,388.95 407.38,436.44 407.07,436.6 407.07,477.11 496.28,433.67 496.28,464.75 
		407.07,512.39 407.07,552.89 496.28,509.48 496.28,540.89 407.07,588.52 407.07,629.03 496.28,585.61 496.28,613.93 407.38,661.42 
		407.07,661.58 407.07,701.15 407.08,701.74 407.8,701.74 496.28,658.65 496.28,705 393.56,705 393.56,340.65 496.28,300.26 	"/>
	<path class="Colour4 fill" d="M392.45,619.5l-141.49-69.16L102.7,620.3v-23.9l148.26-68.87l141.49,68.09
		C392.45,604.54,392.45,612.56,392.45,619.5z M392.45,403.48c0-10.11,0-20.13,0-29.99l-141.51-73.36L102.7,374.31v30.09
		l148.24-72.74L392.45,403.48z M392.45,459.49c0-8.94,0-17.94,0-26.95l-141.51-71.65L102.7,433.31v27.03l148.41-71.57L392.45,459.49
		z M392.45,566.4c0-8.01,0-16.43,0-25.17l-141.49-69.51L102.7,542.02V567l148.26-67.38L392.45,566.4z M392.45,513.1
		c0-8.32,0-16.83,0-25.47l-141.51-71.62l-148.24,73.7v26.86l148.24-74.54L392.45,513.1z"/>
	<g id="BBodyLogos"></g>
	<path class="Colour2 fill" d="M295.07,33.32c-15.34,7.56-29.59,8.54-40.29,8.54c-2.51,0-4.88-0.05-7.11-0.11
		c-12.89-0.3-43.06-0.99-65.66-21.6c-5.86-5.34-10.74-12.54-14.54-19.55L89.17,23.9c2.27,12.49,6.3,33.19,7.8,57.09
		C129.8,68.5,260.6,26,398.7,80.69c1.2-17.74,4.45-37.25,8.06-57.22L328.75,0.5C323.08,10.24,313.03,24.46,295.07,33.32z"/>
	<path class="Colour3 fill" d="M313.94,87.77c-3.36-0.4-6.51-0.87-9.45-1.14c-2.93-0.31-5.61-0.6-8-0.78c-2.38-0.2-4.46-0.39-6.17-0.48
		c-3.42-0.22-5.38-0.34-5.38-0.34s1.94,0.26,5.34,0.71c1.7,0.21,3.76,0.54,6.12,0.9c2.36,0.34,5.01,0.81,7.9,1.32
		c2.9,0.47,6.01,1.15,9.31,1.78c3.28,0.73,6.76,1.42,10.31,2.31c3.57,0.83,7.23,1.8,10.93,2.8c3.7,1.05,7.46,2.08,11.17,3.28
		c3.73,1.14,7.42,2.39,11.04,3.64c3.61,1.28,7.16,2.57,10.55,3.9c3.4,1.33,6.67,2.63,9.73,3.97c3.09,1.27,5.95,2.6,8.61,3.8
		c2.67,1.18,5.03,2.38,7.15,3.39c1.74,0.83,3.3,1.61,4.65,2.31c-0.06-2.9-0.08-5.85-0.08-8.84c-0.45-0.18-0.9-0.37-1.38-0.55
		c-2.26-0.9-4.79-1.97-7.59-2.98c-2.78-1.04-5.79-2.19-9.02-3.27c-3.21-1.14-6.62-2.24-10.16-3.35c-3.54-1.12-7.22-2.17-10.96-3.22
		c-3.76-1.02-7.57-2.03-11.42-2.92c-3.83-0.95-7.7-1.74-11.49-2.54c-3.81-0.75-7.55-1.47-11.2-2.06
		C320.82,88.73,317.28,88.28,313.94,87.77z"/>
	<path class="Colour3 fill" d="M103.18,116.82c2.12-1.01,4.48-2.21,7.15-3.39c2.65-1.2,5.52-2.53,8.61-3.8c3.06-1.33,6.34-2.63,9.73-3.97
		c3.39-1.33,6.94-2.62,10.55-3.9c3.62-1.25,7.31-2.5,11.04-3.64c3.71-1.2,7.47-2.23,11.17-3.28c3.71-1,7.37-1.96,10.93-2.8
		c3.55-0.9,7.03-1.58,10.31-2.31c3.3-0.63,6.41-1.31,9.31-1.78c2.89-0.51,5.54-0.98,7.9-1.32c2.36-0.36,4.42-0.69,6.12-0.9
		c3.4-0.45,5.34-0.71,5.34-0.71s-1.96,0.12-5.38,0.34c-1.72,0.09-3.79,0.28-6.17,0.48c-2.39,0.18-5.07,0.47-8,0.78
		c-2.93,0.28-6.09,0.74-9.45,1.14c-3.34,0.51-6.88,0.96-10.51,1.61c-3.64,0.59-7.39,1.31-11.2,2.06c-3.79,0.8-7.66,1.59-11.49,2.54
		c-3.84,0.89-7.66,1.9-11.42,2.92c-3.74,1.05-7.43,2.1-10.96,3.22c-3.54,1.11-6.96,2.21-10.16,3.35c-3.23,1.08-6.24,2.23-9.02,3.27
		c-2.79,1.01-5.33,2.08-7.59,2.98c-0.75,0.3-1.45,0.58-2.12,0.86c-0.01,2.95-0.05,5.94-0.12,8.94
		C99.27,118.74,101.1,117.8,103.18,116.82z"/>
	<g>
		<path class="Colour3 fill" d="M400.95,336.49l94.74-37.25v-0.28c-5.18-1.95-10.21-4.24-15.07-6.78L400.95,336.49z"/>
	</g>
	<g>
		<path class="Colour3 fill" d="M0.6,299.24l94.26,37.8l-80.1-44.48c-4.55,2.44-9.27,4.67-14.16,6.63V299.24z"/>
	</g>
	<path class="NeckAndArmTrim fill" d="M0.23,315.79c10.4-3.57,26.18-10.08,42.3-21.91c74.61-54.75,72.92-162.19,72.28-203.04
		c-0.4-25.83-3.56-49.77-8.28-71.53l-16.88,5.1c1.79,11.68,5.08,28.4,6.5,49.13c2.32,33.81,4.22,61.6-2.03,95.35
		c-5.07,27.34-10.4,56.14-33.5,84.77c-20.21,25.04-44.88,38.63-60.39,45.6V315.79z"/>
	<path class="NeckAndArmTrim fill" d="M500,315.79c-13.74-4.91-25.42-11.05-35.38-17.78c-107.31-72.58-74.9-254.86-70.37-278.54l15.86,4.71
		c-15.58,102.09-1.73,181.79,18.37,213.91c21.48,34.31,50.25,51.11,50.25,51.11c8.71,5.09,16.42,8.26,21.27,10.07V315.79z"/>
	<path class="NeckAndArmTrim fill" d="M350.02,6.12c-3.82,6.68-10.34,16.3-20.98,25.53c-28.46,24.68-63.47,26.71-75.24,26.82
		c-8.99,0.09-44.92-0.53-75.69-25.15c-12.12-9.7-19.61-20.05-23.98-27.2l16.81-5.03c6.3,9.03,21.74,28.15,48.65,36.28
		c14.1,4.26,26.24,3.97,35.51,3.74c14.26-0.35,32.03-0.78,49.58-11.22c13.97-8.31,22.32-19.7,27.18-28.8L350.02,6.12z"/>
	<g>
		<line class="st2" x1="3.21" y1="686.55" x2="500" y2="686.55"/>
		<line class="st2" x1="3.21" y1="693.02" x2="500" y2="693.02"/>
		<path class="st2" d="M105.36,18.64c4.55,21.39,7.58,44.86,7.98,70.14c0.64,40.85,2.32,148.3-72.28,203.04
			c-13.72,10.07-27.2,14.82-37.32,18.65"/>
		<path class="st2" d="M158.21,2.83c4.35,7.02,11.36,16.47,22.14,25.37c29.84,24.61,64.67,25.24,73.39,25.15
			c11.42-0.12,45.36-2.14,72.95-26.82c9.25-8.27,15.29-16.86,19.1-23.36"/>
		<path class="st2" d="M164.19,1c5.46,8.27,17.17,23.26,37.83,33.6c21.73,10.88,41.5,10.69,53.47,10.43
			c13.54-0.29,35.31-0.76,56.46-14.86c14.31-9.54,22.46-21.42,26.77-29.1"/>
		<path class="st2" d="M3.73,301.72c9.22-3.46,17.3-7.75,24.69-12.07C136.74,226.4,104.49,50.82,99.05,20.52"/>
		<path class="st2" d="M404.95,20.73c-5.55,32.4-35.76,213.03,72.18,272.63c6.89,3.8,14.12,7.97,22.34,11.37"/>
		<path class="st2" d="M399.57,18.96c-3.97,23.17-36.67,207.73,68.85,276.94c7.25,4.76,20.08,10.87,31.07,15.16"/>
	</g>
</g>
</svg>
