<?xml version="1.0" encoding="utf-8"?>
<!-- Generator: Adobe Illustrator 19.1.0, SVG Export Plug-In . SVG Version: 6.00 Build 0)  -->
<svg version="1.1" id="Layer_1" xmlns="http://www.w3.org/2000/svg" xmlns:xlink="http://www.w3.org/1999/xlink" x="0px" y="0px"
	 viewBox="0 0 500 706" style="enable-background:new 0 0 500 706;" xml:space="preserve">
<style type="text/css">
	<![CDATA[
	@font-face{font-family:'codaheavy';src:url('/fonts/coda-heavy-webfont.woff') format('woff')}
	text{font-family:Impact,codaheavy,sans-serif}
	.Number.fill{fill:#000}
	.NumberOutline.stroke{fill:none;stroke:#777;stroke-width:2.5}
	.Colour1.fill{fill:#0B0B0B;}
	.Colour2.fill{fill:#F6901E;}
	.NeckAndArmTrim.fill{fill:#F6901E;}
	.st1{opacity:0.5;}
	]]>
</style>
<g>
	<path class="Colour1 fill" d="M500,705.5H0c0-135.56,0-271.11,0-406.67c3.93-1.55,7.67-3.23,11.24-5.01c3.52-1.67,7.35-3.67,11.36-6.08
		c32.6-19.58,46.84-47.61,54.73-63.14c20.03-39.43,29.26-112.29,13.08-200.81c26.17-7.74,52.34-15.47,78.51-23.21
		c1.45,2.52,3.76,6.21,7.12,10.37c2.18,2.78,4.79,5.69,7.97,8.57c0.87,0.79,1.75,1.53,2.64,2.26c4.54,3.84,9.99,7.6,16.5,10.78
		c18.15,8.9,34.64,8.64,46.85,8.36c12.22,0.28,28.7,0.54,46.86-8.36c6.51-3.19,11.95-6.94,16.5-10.79c0.89-0.73,1.77-1.47,2.63-2.26
		c3.17-2.88,5.78-5.79,7.96-8.56c3.37-4.16,5.68-7.85,7.13-10.38c26.17,7.74,52.34,15.47,78.51,23.21
		c-16.18,88.52-6.95,161.37,13.08,200.81c7.89,15.53,22.12,43.56,54.73,63.14c4.01,2.41,7.84,4.4,11.36,6.08
		c3.57,1.78,7.31,3.45,11.24,5.01C500,434.39,500,569.94,500,705.5z"/>
	<g class="st1">
		<g>
			<path class="Colour2 fill" d="M0,402.6l500,146.9c0,51.32,0,102.64,0,153.96l-1.13,2.04H300.08L0,592.04C0,528.89,0,465.75,0,402.6z"/>
		</g>
		<g>
			<path class="Colour2 fill" d="M500,348.09L72.48,233.91c1.86-3.41,3.46-6.56,4.85-9.3c14.66-28.86,23.52-75.64,20.88-133.35h303.58
				c-2.64,57.71,6.22,104.49,20.88,133.35c7.89,15.53,22.12,43.56,54.73,63.14c4.01,2.41,7.84,4.4,11.36,6.08
				c3.57,1.78,7.31,3.45,11.24,5C500,315.25,500,331.67,500,348.09z"/>
		</g>
	</g>
	<g>
		<path class="Colour1 fill" d="M72.48,233.91L500,348.09c0,67.14,0,134.27,0,201.41L0,402.6c0-34.59,0-69.18,0-103.77
			c3.93-1.55,7.67-3.23,11.24-5.01c3.52-1.67,7.35-3.67,11.36-6.08C49.44,271.63,63.82,249.79,72.48,233.91z"/>
	</g>
	<g>
		<path class="Colour1 fill" d="M500,644.98c0-8.83,0-17.65,0-26.48l-1.69,1.57c-1.15-2.39,0.69-4.05,0.91-5.39
			c-7.44-3.39-16.73,0.96-22-4.58c-2.63,1.81-0.93,5.4-3.79,5.5c5.2-5.59-6-5.27-3.63-8.95c-4.41,5.7-9.66-1.2-11.12,8.84
			c-3.33-0.26-1.49-4.94-0.34-5.59c-3.78-0.6-6.76-1.34-8.94-5.28c-2.64,1.79-16.15-6.97-21.43-0.34c3.53-4.27,0.5-2.57-1.08-5.27
			l3.08-3.78L425,594.4c-0.88-0.67-1.2-0.57-1.3-0.18c-0.88-0.01-0.47,2.53-2.84,3.06c-3.37-0.61-2.9-3.01-4.12-5.72l0.67-0.5
			l-2.13-1c-1.68-0.31,4.68,5.83-1.28,6.6c0.24-1.21-1.41-7.72-3.68-5.02c2.8,0.51,1.66,3.41,0.31,4.41l-3.93-0.71l2.72-5.11
			c-11.11-2.65-23.62-1.83-35.3-5.32c-1.11,4.81-8.4-1.98-9.21,5.31l0.63-0.55c2.71,1.46-2.31,5.31-4.46,3.89
			c3.06-1.57-2.54-8.2,3.72-7.64l-3.74-4.55c1.01-14.13-12.64-2.17-18.49-8.37c0.36,0.65,0.29,1.4,0.24,1.84
			c-5.08-5.97-14.94-0.1-15.81-2.63l-1.54,3.54c-3.81-7.09-4.32-7.74-11.28-7.14c-0.08,0.62,0.38,1.88-0.84,2.38
			c-0.8-3.14-1.61-6.28-6.16-6.68l-0.13,1.21l-6.64-2.43c-2.98,11.39-9.8-10.07-15.13,1.72c-0.45-3.68-5.14-6.05-6.93-8.23
			c-0.14,0.48-0.42,0.95-0.93,1.38c-0.98-6.83-8.05-0.1-10.76-1.56c-1.5-1.97-0.16-3.69,1.18-5.41c-5.02,3.84-8.86-8.15-10.77-6.47
			c-2.86-0.26-2.18,4.09-3.6,6.41c-3.77-2.17,3.43-10.11-3.23-7.04c0.5,0.66,1.56,1.38,0.93,1.93c-2.34,0.4-9.54,12.48-10.92,9.3
			l1.91-1.67c-3.01-3.95-11.45,6.88-10.02-0.97l1.31-3.47c-7.8,2.98-2.4-2.14-10.13,0.23l-0.07,0.61c-2.71-1.46-5.46,2.58-5.35-3.54
			l1.2-0.51c-3.47-1.41-3.9-1.07-7.63-1.76c-0.28-0.66-1.82-1.99-2.65-0.92c1.1-4.8-7.9-4.46-9.6-4.61c2.71,1.47,0.8,3.14-0.54,4.86
			c-0.67-4.35-1.74-5.06-4.85-2.88c1.24-6.03,2.46-12.48-2.11-14.07c0.48,1.09,1.48,1.89,0.69,2.99c-0.8,1.1-1.53-0.53-1.77-1.07
			c-0.79,1.09,0.46,2.44-0.61,4.36c-1.64-6.51-5.33-1.85-9.35-5.09c0.97,2.17-0.58,3-1.65,4.91c1.44-6.82-7.8,4.18-3.75-4.04
			c-10.32,2.82-22.77-5.68-27.74-1c-1.59,2.19-3.02-2.43-4.55-2.95l-0.57,3c-2.93-6.51-2.86-2.89-6.54-9.65
			c1.18,4.07-0.13,5.45-3.01,7.66l-1.88-7.07l-1.9,4.38c-0.96-2.15-2.74-1.88-4.53-1.59c-0.1-5.32-5.65-6.36-5.81-9.38
			c-3.22,5.75-3.79-2.69-6.48,2.79c-0.29-1-0.76-1.89-1.33-2.67c1.47-2.5,2.56-5.44,0.79-4.5c-0.11-0.09-0.2-0.11-0.31-0.19
			l-1.57,3.42c-1.22-1.22-2.58-2.03-3.53-2.36c0.52-0.19,1.2-0.73,1.95-1.4c-0.76,0.37-1.51,0.88-2.22,1.31
			c-0.19-0.06-0.39-0.1-0.53-0.1c0.06,0.13,0.15,0.22,0.27,0.26c-1.11,0.6-2.13,0.77-3.06-0.78c-6.52,4.14-9.23-10.53-16.81-4.48
			c1.04-0.55,2.31-0.57,2.29,0.8c-4.57-1.59-10.57,2.29-12.78-1.24l1.1-3.28c-3.01-2.43-5.37-4.21-8.18-4.73l0.86-3.82
			c-4.37,0.31-11.33-8.07-15.86-0.94c-0.17-3.28-5.77-0.59-7.78-2.21l-1.35,2.74c-3.22,0.16-4.77-1.36-6.32-2.68
			c-7.63,4.43-11.61-3.02-16.99-4l-0.27,0.82l-4.78-3.5c0.7,2.99-0.57-2.09-2.37-1.79c-1.32-1.86-4.28-1.85-6.78-0.51l-3.44-0.76
			c3.26,2.97-1.38,4.1-2.49,7.39L0,483.67c0,5.2,0,10.4,0,15.61c5.53,0.99,11.1,3.11,13.25,1.04c-1.55,0.83-3.57-0.79-4.3-2.41
			l3.36-1.13c-2.27-0.78-5.19,2.79-8.2,0.36c1.34-2.73-0.08-7.36,3.59-10.67c7.75-2.79,3.37,8.97,11.55,9.98
			c0.49,1.09-0.39-5.17,3.39-2.49c4.51,4.32,6.62,11.93,4.94,18.21c-1.73-2.43-5.2-7.3-7.09-2.93c1.73,2.44,5.26,4.58,4.67,7.58
			c3.7-4.66-3.77-2.69,0.41-6.27c1.53,0.54,1.73,2.44,2.22,3.53c-0.46-2.46,2.38-3.3,3.17-4.4c5.06,1.31,8.59-0.22,14.13,0.77
			c0.49-0.69,1.54-2.21,1.72-3.54c2.26,2.15,3.94,11.04,2.07,14.06c3.05,1.05,3.88-1.4,6.13,0.76c-5.48,3.59,1.04-0.56,0.13,4.63
			c2.54,1.34,1.6-2.2,3.15-3.03c0.3,0.66,0.93,2.64,0.64,4.02c2.69-3.4-0.54-10.9,2.6-14.86c2.1-2.46,9.26-5.99,9.78-6.26
			c0.14,4.63-4.94,22.2-8.4,27.4c-0.59,3.02,3.4-2.48,4.67-2.48c4.7-3.86,4.24,5.14,7.59,4.02l-1.46-3.26
			c0.8-1.1,4.58,1.59,4.79,3.49c0.55-1.64,0.12-9.17,1.95-10.81c5.36,0.49,7.77,11,6.12,15.91l-6.48-7.29
			c-1.39,4.1,4.47,5.67,2.81,10.6l7.63,0.45c-0.88-0.38-3.35-2.31-1.64-4.32c3.05,1.05,1.8-0.3,4.4-1.68
			c-2.16-6.23-5.07-21.56-5.67-28.63l2.99,3.79l1.59-2.2c3.99,4.6,4.03,22.11,4.17,26.75c3.08-0.31,4.48-9.48,4.27-11.39
			c5.62,1.03,2.08,14.05,7.96,14.27l-2.6,1.38c1.09,1.18,6.32,0.66,5.38,2.16c1.73-2.07,4.23-7.39,3.4-9.23l2.68,9.68
			c-0.49-1.08,1.89-8.1,1.92-9.46c2.05,0.25,1.16,9.15-0.4,9.99c5.23-4.13,3.52-1.57,8.26-6.79c1.01,0.8-2.13,7.56-3.17,8.11
			c2.06,2.61,3.82,2.11,5.24,1.66c-3.44-4.21,3.11-16.34,3.76-21.99l3.47,23.75c0.03-1.36,1.12-8.37,1.39-9.18
			c-0.92,6.54,9.34,10.17,14.71,10.65l-0.76-0.26c-0.46-2.46,4.43-3.04,5.64-0.34c0.03-1.35-0.48-1.08-1.24-1.35
			c4.7-3.85,1.89,10.79,6.88,6.11c-3.33-0.24-3.27-2.96-2.44-5.43c1.98,2.98,8.66,2.09,5.41,9.22c2.08-1.11,3.33,0.23,4.19-3.58
			l5.19,6.15c-0.27-0.89-0.09-3.2,1.91-3.22c-3.84,0.04-5.44-7.84-8.63-3.46c1.14-4.64,3.14-6.74,2.46-11.09
			c6.31,4.03,7.99,12.91,10.92,19.42l6.96-1.7l-0.31,2.18l2.47-5.03c0.44,1.42,0.64,2.6,0.93,2.14c0.27-0.44,0.26-1.19,0.17-2.06
			c0.57,0.44,1.02,1.06,1.18,1.69c0.98-2.72,0.76-6.21,0.39-9.41c-0.81,0.85-1.64,1.7-2.46,2.49c-0.48-2.98-0.61-5.96,1.52-7.27
			c0.14,0.42,0.33,0.89,0.55,1.37c-0.23-2.19-0.26-3.95,0.51-4.58l3.96,3.8c-0.72,0.58-1.91,1.88-3.29,3.36
			c1.98,4.25,4.18,9.37,0.62,12.25l4.37-2.18c2.75,6.37,2.31,5.11,6.33,10.37c0.77-1.77-0.16-3.7,1.11-4.81
			c2.1,6.94,10.85-4.55,10.26,0.91c2.63,2.09,0.02,4.91,1.52,6.89c0.07-0.61,0.2-1.83,0.77-1.77l1.24,4.4
			c1.27-1.12-1.37-3.19,1.61-4.15c3.58,4.01,5.6,6.63,9.71,5.78c4.92,2.28-4.23,6.98,0.33,7.39c1.47-2.94,3.02-6.48,5.86-6.22
			c0.86,2.53,0.03,4.9,2.1,6.93l1.12-4.8c2.2,0.81,3.77,2.17,4.75-1.42c1.31,2.53,2.67,2.51,3.84,2c2.75,3.43-5.1,8.99-6.39,10.64
			c4.32-2.68,6.09,0.02,9.54-5.2l-2.64-2.08c7.93-4.2,4.24,8.35,9.87-0.95c-2.28-0.21-4.22-3.45-2.23-5.73l2.5,3.29
			c0.71-1.16-1.57-1.37,0.27-2.43c0.62,1.28,1.81,4.23,2.2,6.03l0.04-0.31l5.04,2.14c-0.58-0.48-0.29-1.72,0.66-1.64l3.07,3.5
			c-0.82-1.5,0.74-2.66,2.62-2.99c5.2-0.15,1,11.74,6.02,7.9c-0.57-0.04-0.5-0.66-1.08-0.71l2.49-1.61
			c-2.29,10.21,11.04,4.05,8.76,14.27c3.82-3.35,0.84-2.38-1.4-8.1l3.69-2.12c-1.08-0.7-2.28-0.2-3.28-1.52
			c4.96-3.24,7.13,3.09,8.49,6.28c1.85-1.07,0.87-7.9,4.59-5.12c5.35,3.54-3.08,7.08,0.13,9.21l3.95-4.55
			c3.44,5.21,7.77,2.53,11.74,2.88c0.75,0.65,1.03,1.3,1.09,1.92c4.65-1.18,7.12,7.38,10.63,6.48c-0.43-1.27,2.62-2.83,3.33-4
			l4.64,4.71c-2.07-2.03-1.16-5.01-0.83-8.05c1.64,0.77,2.01,2.64,3.08,3.34c-0.43-1.25-0.86-2.53,0.4-3.63l4.45,6.52
			c-0.48,0.42-1.19,0.44-1.78,0.42c1.43,0.42,4.05,3.15,6.77,1.24c0.12-1.21-0.3-2.48-0.16-3.7c-2.62,2.85-2.85-0.24-3.15-2.73
			c3.85,1.58,1.2-0.5,3.69-2.12c2.78,0.86,2.87,5.16,1.46,7.49c3.48-0.3,4.7-0.81,7.13,3.09l0.47-4.25l2.64,2.08l-1.09-5.63
			c6.46-1.26-0.82,7.29,6.15,6.68l0.97-3.59c2.08,2.03,1.3,8.31,4.34,4.51c1.79,2.8-5.41,3.99-0.03,6.21
			c1.48-1.59,3.95-2.38,5.75-2.68c1.22,1.92-1.83,3.56-3.15,3.24c7.63,3.35,8.24-10.93,14.4-4.3c-3.26,1.89,0.3,7.52-5.76,5.78
			c2.34,2.9,7.11-3.67,9.1,1.05l-0.75-5.11c1.11,0.2,1.9,2.2,2.34,2.91l0.69-3.6c2.09,7.2,7.75-1.08,7.82,7.63
			c0.15-6.8,2.69,1.12,4.84-0.97c-1.88-5.32-8.87-2.24-7.71-8.25c1.91-1.4,2.42,1.83,4.27,0.46c-0.74-1.13-1.73-3.07-1.78-4.36
			c5.63-2.08,6.49,5.54,8.95,7.85l-4.71-2.72c-1.16,6,2.01,1.62,2.21,6.62c3.38-2.49,4.15,2.63,6.74,1.23
			c-0.56-0.11-0.44-0.7-1-0.81c5.49,1.62,9.59-7.57,11.84-7.15c2.37-0.19,5.6,4.12,3.45,6.22c1.33,2.11-6.88-3.73-5.75,4.76
			c5.51-7.99,5.61,5.04,14.11,0.84c-2.18-3.94,3.09-4.5,1.04-7.59c3.09,1.59,2.86,2.94,3.65,5.83l1.72-2.5
			c2.64,7.33-0.45,5.74,5.15,10.78c-1.6-2.74,3.67-3.3,2.53-5.69c1.85,0.29,3.38,1.6,4.25,3.6l-0.13-0.46
			c6.19,3.18,6.3-2.05,11.47,2.63l-1.04,1.51c6.64,6.58,17.31,6.33,24.87,10.56l-2.95,0.55c1.34,0.07,4.72,4.01,7.71,2.22
			c-0.46-0.3-1.14-1.27-1.67-1.18C496.22,647.43,497.93,644.94,500,644.98z M8.83,481.84c-0.01-0.08-0.02-0.13-0.04-0.2
			C10.27,481.31,11.09,480.94,8.83,481.84z M124.52,522.59c0.07-0.47,0.08-0.91,0.08-1.33C125.28,521.51,124.78,521.8,124.52,522.59
			z M189.41,555.85c-1.46,1.07-2.58,1.4-2.89,0.04C187.75,555.24,188.69,555.35,189.41,555.85z M253.28,584.02
			c-1.18,1.96-2.24-0.82-2.89-1.8C252.15,581.42,253.42,579.65,253.28,584.02z M422.77,596.4l1.01-0.74
			C423.98,596.82,424.21,597.89,422.77,596.4z"/>
		<path class="Colour1 fill" d="M108.29,506.95c2.53-2.27,5.67-6.01,4.57-2.75l-1.41,3.08C110.35,506.37,109.29,506.47,108.29,506.95z"/>
		<path class="Colour1 fill" d="M277.85,190.67c0.6,0.79,0.74,1.53,0.53,2.24C277.75,192.15,277.48,191.41,277.85,190.67z"/>
		<path class="Colour1 fill" d="M30.08,486.98c1.88-0.85,3.26-1.05,4.38-0.92C32.1,487.42,29.86,489.8,30.08,486.98z"/>
		<path class="Colour1 fill" d="M56.89,528.78c0.94-0.3,1.57-0.84,2.05-1.44C58.74,528.23,58.18,528.87,56.89,528.78z"/>
		<path class="Colour1 fill" d="M192.71,562.81c0.4-0.54,0.64-1.19,0.88-1.86C193.76,561.65,193.58,562.35,192.71,562.81z"/>
		<path class="Colour1 fill" d="M45.08,510.44c0.03,0.01,0.06,0.01,0.1,0.02C44.67,511,44.76,510.9,45.08,510.44z"/>
		<path class="Colour1 fill" d="M132.92,552.04c-0.7-4.49-1.83-4.27-3.4-3.77l3.86-8.95L132.92,552.04z"/>
		<path class="Colour1 fill" d="M129.42,548.52c-0.05-0.05-0.05-0.14-0.09-0.19c0.06-0.02,0.14-0.04,0.2-0.07L129.42,548.52z"/>
		<path class="Colour1 fill" d="M277.85,554.32c0.6,0.79,0.74,1.53,0.53,2.24C277.75,555.8,277.48,555.07,277.85,554.32z"/>
		<path class="Colour1 fill" d="M38.93,487.27c-0.36,0.25-0.67,0.34-1.02,0.54c-0.99-0.84-2.01-1.58-3.45-1.75
			C36.21,485.05,38.01,484.62,38.93,487.27z"/>
		<path class="Colour1 fill" d="M129.42,184.87c-0.05-0.05-0.05-0.14-0.09-0.19c0.06-0.02,0.14-0.04,0.2-0.07L129.42,184.87z"/>
		<path class="Colour1 fill" d="M195.38,562.95c-0.73,0.59-1.67,1.08-2.92,1.45L195.38,562.95z"/>
		<path class="Colour1 fill" d="M320,605.97l0.56,3.67C318.32,609.02,319.75,607.63,320,605.97z"/>
		<path class="Colour1 fill" d="M405,616.54c0.1-0.08,0.21-0.12,0.33-0.24C406.13,617.95,405.68,617.6,405,616.54z"/>
		<path class="Colour1 fill" d="M497.31,650.46c0.17-0.11,0.34-0.14,0.5-0.28C497.74,650.62,497.56,650.6,497.31,650.46z"/>
		<path class="Colour1 fill" d="M194.76,550.7c-0.25,0.27-0.52,0.56-0.79,0.84c-0.14-1.22-0.28-2.36-0.39-3.41
			C193.93,548.93,194.34,549.79,194.76,550.7z"/>
		<path class="Colour1 fill" d="M263.25,587.36l0.17-1.51C263.62,586.76,263.63,587.39,263.25,587.36z"/>
		<path class="Colour1 fill" d="M319.9,605.29c0.05-0.02,0.09,0.01,0.14,0c0.02,0.23,0,0.46-0.04,0.68L319.9,605.29z"/>
		<path class="Colour1 fill" d="M272.22,589.54l1.01,1.17C272.72,590.29,272.42,589.91,272.22,589.54z"/>
		<path class="Colour1 fill" d="M320,242.31l0.56,3.67C318.32,245.37,319.75,243.97,320,242.31z"/>
		<path class="Colour1 fill" d="M9.69,509.61l-0.97-2.17c1.03-0.55,1.31-1.37,2.1-2.48L9.69,509.61z"/>
		<path class="Colour1 fill" d="M17.02,514.44c0.03-1.36-2.75-3.24,0.34-3.54C17.32,512.27,20.82,515.77,17.02,514.44z"/>
		<polygon class="Colour1 fill" points="64.23,517.09 66.36,509.54 64.99,517.36 		"/>
		<path class="Colour1 fill" d="M21.4,502.69c-0.49-1.09-1.5-1.88-0.7-2.99l2.77,1.89C23.44,502.94,22.4,503.5,21.4,502.69z"/>
		<path class="Colour1 fill" d="M296.44,242.77c-0.26-0.01-0.53-0.08-0.78-0.25C295.92,242.55,296.18,242.65,296.44,242.77z"/>
		<path class="Colour1 fill" d="M298.94,244.05c-0.87-0.08-1.66-0.87-2.5-1.28C298.42,242.85,300.47,239.32,298.94,244.05z"/>
		<path class="Colour1 fill" d="M0.04,478.83c-0.02,0.01-0.03,0.01-0.04,0.01c0-1.28,0-2.56,0-3.84C0.86,474.43,3.5,481.62,0.04,478.83z"/>
		<polygon class="Colour1 fill" points="273.9,231.4 273.33,231.35 275.51,227.25 		"/>
		<polygon class="Colour1 fill" points="273.9,595.05 273.33,595 275.51,590.9 		"/>
		<path class="Colour1 fill" d="M132.92,188.38c-0.7-4.49-1.83-4.27-3.4-3.77l3.86-8.95L132.92,188.38z"/>
		<path class="Colour1 fill" d="M298.94,607.71c-0.87-0.08-1.66-0.87-2.5-1.28C298.42,606.5,300.47,602.97,298.94,607.71z"/>
		<path class="Colour1 fill" d="M97.28,542.83c-0.37-2.02,3.17-1.14,2.71-2.92c1.68,2.47,3.12,1.71,0.78,6.43
			C96.66,547.2,101.16,541.44,97.28,542.83z"/>
		<path class="Colour1 fill" d="M99.99,539.91c-0.27-0.39-0.55-0.85-0.81-1.45C99.69,539.11,99.89,539.55,99.99,539.91z"/>
		<path class="Colour1 fill" d="M243.87,588l-2.54,2.23l0.13-1.21C242.16,587.85,242.73,587.91,243.87,588z"/>
		<path class="Colour1 fill" d="M296.44,606.43c-0.26-0.01-0.53-0.08-0.78-0.25C295.92,606.2,296.18,606.3,296.44,606.43z"/>
		<path class="Colour1 fill" d="M272.22,225.88l1.01,1.17C272.72,226.63,272.42,226.25,272.22,225.88z"/>
		<path class="Colour1 fill" d="M263.25,223.7l0.17-1.51C263.62,223.1,263.63,223.74,263.25,223.7z"/>
		<path class="Colour1 fill" d="M319.9,241.63c0.05-0.02,0.09,0.01,0.14,0c0.02,0.23,0,0.46-0.04,0.68L319.9,241.63z"/>
		<path class="Colour1 fill" d="M243.87,224.35l-2.54,2.23l0.13-1.21C242.16,224.2,242.73,224.25,243.87,224.35z"/>
		<path class="Colour1 fill" d="M405,252.89c0.1-0.08,0.21-0.12,0.33-0.24C406.13,254.3,405.68,253.95,405,252.89z"/>
		<path class="Colour1 fill" d="M192.71,199.16c0.4-0.54,0.64-1.19,0.88-1.86C193.76,197.99,193.58,198.69,192.71,199.16z"/>
		<path class="Colour1 fill" d="M195.38,199.3c-0.73,0.59-1.67,1.08-2.92,1.45L195.38,199.3z"/>
		<path class="Colour1 fill" d="M93.25,174.45c0.01,0.04,0.03,0.09,0.04,0.13c-0.03,0.02-0.05,0.03-0.08,0.05
			C93.23,174.57,93.24,174.51,93.25,174.45z"/>
		<path class="Colour1 fill" d="M194.76,187.05c-0.25,0.27-0.52,0.56-0.79,0.84c-0.14-1.22-0.28-2.36-0.39-3.41
			C193.93,185.28,194.34,186.14,194.76,187.05z"/>
		<path class="Colour1 fill" d="M97.28,179.18c-0.37-2.02,3.17-1.14,2.71-2.92c1.68,2.47,3.12,1.71,0.78,6.43
			C96.66,183.54,101.16,177.78,97.28,179.18z"/>
		<path class="Colour1 fill" d="M99.99,176.26c-0.27-0.39-0.55-0.85-0.81-1.45C99.69,175.45,99.89,175.89,99.99,176.26z"/>
		<path class="Colour1 fill" d="M452.52,268.23c-9.91-9.99-16.98-20.38-22.24-29.41c-0.87,0.4-1.66,0.98-2.32,1.81
			c3.53-4.27,0.5-2.57-1.08-5.27l0.86-1.05c-0.64-1.17-1.25-2.31-1.83-3.41l-0.91-0.15c-0.88-0.67-1.2-0.57-1.3-0.18
			c-0.88-0.01-0.47,2.53-2.84,3.06c-3.37-0.61-2.9-3.01-4.12-5.72l0.67-0.5l-2.13-1c-1.68-0.31,4.68,5.83-1.28,6.6
			c0.24-1.21-1.41-7.72-3.68-5.02c2.8,0.51,1.66,3.41,0.31,4.41l-3.93-0.71l2.72-5.11c-11.11-2.65-23.62-1.83-35.3-5.32
			c-1.11,4.81-8.4-1.98-9.21,5.31l0.63-0.55c2.71,1.46-2.31,5.31-4.46,3.89c3.06-1.57-2.54-8.2,3.72-7.64l-3.74-4.55
			c1.01-14.13-12.64-2.17-18.49-8.37c0.36,0.65,0.29,1.4,0.24,1.84c-5.08-5.97-14.94-0.1-15.81-2.63l-1.54,3.54
			c-3.81-7.09-4.32-7.74-11.28-7.14c-0.08,0.62,0.38,1.88-0.84,2.38c-0.8-3.14-1.61-6.28-6.16-6.68l-0.13,1.21l-6.64-2.43
			c-2.98,11.39-9.8-10.07-15.13,1.72c-0.45-3.68-5.14-6.05-6.93-8.23c-0.14,0.48-0.42,0.95-0.93,1.38
			c-0.98-6.83-8.05-0.1-10.76-1.56c-1.5-1.97-0.16-3.69,1.18-5.41c-5.02,3.84-8.86-8.15-10.77-6.47c-2.86-0.26-2.18,4.09-3.6,6.41
			c-3.77-2.17,3.43-10.11-3.23-7.04c0.5,0.66,1.56,1.38,0.93,1.93c-2.34,0.4-9.54,12.48-10.92,9.3l1.91-1.67
			c-3.01-3.95-11.45,6.88-10.02-0.97l1.31-3.47c-7.8,2.98-2.4-2.14-10.13,0.23l-0.07,0.61c-2.71-1.46-5.46,2.58-5.35-3.54l1.2-0.51
			c-3.47-1.41-3.9-1.07-7.63-1.76c-0.28-0.66-1.82-1.99-2.65-0.92c1.1-4.8-7.9-4.46-9.6-4.61c2.71,1.47,0.8,3.14-0.54,4.86
			c-0.67-4.35-1.74-5.06-4.85-2.88c1.24-6.03,2.46-12.48-2.11-14.07c0.48,1.09,1.48,1.89,0.69,2.99c-0.8,1.1-1.53-0.53-1.77-1.07
			c-0.79,1.09,0.46,2.44-0.61,4.36c-1.64-6.51-5.33-1.85-9.35-5.09c0.97,2.17-0.58,3-1.65,4.91c1.44-6.82-7.8,4.18-3.75-4.04
			c-10.32,2.82-22.77-5.68-27.74-1c-1.59,2.19-3.02-2.43-4.55-2.95l-0.57,3c-2.93-6.51-2.86-2.89-6.54-9.65
			c1.18,4.07-0.13,5.45-3.01,7.66l-1.88-7.07l-1.9,4.38c-0.96-2.15-2.74-1.88-4.53-1.59c-0.1-5.32-5.65-6.36-5.81-9.38
			c-3.22,5.75-3.79-2.69-6.48,2.79c-0.29-1-0.76-1.89-1.33-2.67c1.47-2.5,2.56-5.44,0.79-4.5c-0.11-0.09-0.2-0.11-0.31-0.19
			l-1.57,3.42c-1.22-1.22-2.58-2.03-3.53-2.36c0.52-0.19,1.2-0.73,1.95-1.4c-0.76,0.37-1.51,0.88-2.22,1.31
			c-0.19-0.06-0.39-0.1-0.53-0.1c0.06,0.13,0.15,0.22,0.27,0.26c-1.11,0.6-2.13,0.77-3.06-0.78c-2.09,1.33-3.78,0.71-5.37-0.52
			c-0.47,5.6-1.06,11.02-1.77,16.28c0.64,5.9,0.69,12.07,0.77,14.55c3.08-0.31,4.48-9.48,4.27-11.39
			c5.62,1.03,2.08,14.05,7.96,14.27l-2.6,1.38c1.09,1.18,6.32,0.66,5.38,2.16c1.73-2.07,4.23-7.39,3.4-9.23l2.68,9.68
			c-0.49-1.08,1.89-8.1,1.92-9.46c2.05,0.25,1.16,9.15-0.4,9.99c5.23-4.13,3.52-1.57,8.26-6.79c1.01,0.8-2.13,7.56-3.17,8.11
			c2.06,2.61,3.82,2.11,5.24,1.66c-3.44-4.21,3.11-16.34,3.76-21.99l3.47,23.75c0.03-1.36,1.12-8.37,1.39-9.18
			c-0.92,6.54,9.34,10.17,14.71,10.65l-0.76-0.26c-0.46-2.46,4.43-3.04,5.64-0.34c0.03-1.35-0.48-1.08-1.24-1.35
			c4.7-3.85,1.89,10.79,6.88,6.11c-3.33-0.24-3.27-2.96-2.44-5.43c1.98,2.98,8.66,2.09,5.41,9.22c2.08-1.12,3.33,0.23,4.19-3.58
			l5.19,6.15c-0.27-0.89-0.09-3.2,1.91-3.22c-3.84,0.04-5.44-7.84-8.63-3.46c1.14-4.64,3.14-6.74,2.46-11.09
			c6.31,4.03,7.99,12.91,10.92,19.42l6.96-1.7l-0.31,2.18l2.47-5.03c0.44,1.42,0.64,2.6,0.93,2.14c0.27-0.44,0.26-1.19,0.17-2.06
			c0.57,0.44,1.02,1.06,1.18,1.69c0.98-2.72,0.76-6.21,0.39-9.41c-0.81,0.85-1.64,1.7-2.46,2.49c-0.48-2.98-0.61-5.96,1.52-7.27
			c0.14,0.42,0.33,0.89,0.55,1.37c-0.23-2.19-0.26-3.95,0.51-4.58l3.96,3.8c-0.72,0.58-1.91,1.88-3.29,3.36
			c1.98,4.25,4.18,9.37,0.62,12.25l4.37-2.18c2.75,6.37,2.31,5.11,6.33,10.37c0.77-1.77-0.16-3.7,1.11-4.81
			c2.1,6.94,10.85-4.55,10.26,0.91c2.63,2.09,0.02,4.91,1.52,6.89c0.07-0.61,0.2-1.83,0.77-1.77l1.24,4.4
			c1.27-1.12-1.37-3.19,1.61-4.15c3.58,4.01,5.6,6.63,9.71,5.78c4.92,2.28-4.23,6.98,0.33,7.39c1.47-2.94,3.02-6.48,5.86-6.22
			c0.86,2.53,0.03,4.9,2.1,6.93l1.12-4.8c2.2,0.81,3.77,2.17,4.75-1.42c1.31,2.53,2.67,2.51,3.84,2c2.75,3.43-5.1,8.99-6.39,10.64
			c4.32-2.68,6.09,0.02,9.54-5.2l-2.64-2.08c7.93-4.2,4.24,8.35,9.87-0.95c-2.28-0.21-4.22-3.45-2.23-5.73l2.5,3.29
			c0.71-1.16-1.57-1.37,0.27-2.43c0.62,1.28,1.81,4.23,2.2,6.03l0.04-0.31l5.04,2.14c-0.58-0.48-0.29-1.72,0.66-1.64l3.07,3.5
			c-0.82-1.5,0.74-2.66,2.62-2.99c5.2-0.15,1,11.74,6.02,7.9c-0.57-0.04-0.5-0.66-1.08-0.71l2.49-1.61
			c-2.29,10.21,11.04,4.05,8.76,14.27c3.82-3.35,0.84-2.38-1.4-8.1l3.69-2.12c-1.08-0.7-2.28-0.2-3.28-1.52
			c4.96-3.24,7.13,3.09,8.49,6.28c1.85-1.07,0.87-7.9,4.59-5.12c5.35,3.54-3.08,7.08,0.13,9.21l3.95-4.55
			c3.44,5.21,7.77,2.53,11.74,2.88c0.75,0.65,1.03,1.3,1.09,1.92c4.65-1.18,7.12,7.38,10.63,6.48c-0.43-1.27,2.62-2.83,3.33-4
			l4.64,4.71c-2.07-2.03-1.16-5.01-0.83-8.05c1.64,0.77,2.01,2.64,3.08,3.34c-0.43-1.25-0.86-2.53,0.4-3.63l4.45,6.52
			c-0.48,0.42-1.19,0.44-1.78,0.42c1.43,0.42,4.05,3.15,6.77,1.24c0.12-1.21-0.3-2.48-0.16-3.7c-2.62,2.85-2.85-0.24-3.15-2.73
			c3.85,1.58,1.2-0.5,3.69-2.12c2.78,0.86,2.87,5.16,1.46,7.49c3.48-0.3,4.7-0.81,7.13,3.09l0.47-4.25l2.64,2.08l-1.09-5.63
			c6.46-1.26-0.82,7.29,6.15,6.68l0.97-3.59c2.08,2.03,1.3,8.31,4.34,4.51c1.79,2.8-5.41,3.99-0.03,6.21
			c1.48-1.59,3.95-2.38,5.75-2.68c1.22,1.92-1.83,3.56-3.15,3.24c7.63,3.35,8.24-10.93,14.4-4.3c-3.26,1.89,0.3,7.52-5.76,5.78
			c2.34,2.9,7.11-3.67,9.1,1.05l-0.75-5.11c1.11,0.2,1.9,2.2,2.34,2.91l0.69-3.6c2.09,7.2,7.75-1.08,7.82,7.63
			c0.15-6.8,2.69,1.12,4.84-0.97c-1.88-5.32-8.87-2.24-7.71-8.25c1.91-1.4,2.42,1.83,4.27,0.46c-0.74-1.13-1.73-3.07-1.78-4.36
			c5.63-2.08,6.49,5.54,8.95,7.85l-4.71-2.72c-1.16,6,2.01,1.62,2.21,6.62c3.38-2.49,4.15,2.63,6.74,1.23
			c-0.56-0.11-0.44-0.7-1-0.81c5.49,1.62,9.59-7.57,11.84-7.15c2.37-0.19,5.6,4.12,3.45,6.22c1.33,2.11-6.88-3.73-5.75,4.76
			c5.51-7.99,5.61,5.04,14.11,0.84c-2.18-3.94,3.09-4.5,1.04-7.59c3.09,1.59,2.86,2.94,3.65,5.83l1.72-2.5
			c2.64,7.33-0.45,5.74,5.15,10.78C449.58,270.12,451.4,269.26,452.52,268.23z M124.52,158.94c0.07-0.47,0.08-0.91,0.08-1.33
			C125.28,157.86,124.78,158.14,124.52,158.94z M189.41,192.2c-1.46,1.07-2.58,1.4-2.89,0.04
			C187.75,191.59,188.69,191.69,189.41,192.2z M253.28,220.36c-1.18,1.95-2.24-0.82-2.89-1.8
			C252.15,217.76,253.42,215.99,253.28,220.36z M422.77,232.74l1.01-0.74C423.98,233.17,424.21,234.23,422.77,232.74z"/>
		<path class="Colour1 fill" d="M108.29,143.29c2.53-2.27,5.67-6.01,4.57-2.75l-1.41,3.08C110.35,142.71,109.29,142.82,108.29,143.29z"/>
	</g>
	<g>
		<path class="Colour2 fill" d="M197.88,650.92c0.51,0.75,0.6,1.42,0.35,2.02C197.69,652.2,197.48,651.53,197.88,650.92z"/>
		<path class="Colour2 fill" d="M61.97,632.19c-0.35-3.99-1.43-3.93-2.94-3.68l4.22-7.35L61.97,632.19z"/>
		<path class="Colour2 fill" d="M58.91,628.72c-0.04-0.05-0.04-0.13-0.07-0.18c0.06-0.01,0.14-0.02,0.19-0.04L58.91,628.72z"/>
		<path class="Colour2 fill" d="M233.95,700.19c0.05-0.01,0.09,0.02,0.14,0.01c0,0.21-0.03,0.4-0.08,0.59L233.95,700.19z"/>
		<path class="Colour2 fill" d="M117.37,648.48c0.41-0.43,0.69-0.97,0.95-1.52C118.44,647.59,118.22,648.18,117.37,648.48z"/>
		<path class="Colour2 fill" d="M376.56,527.08c-2.74,2.03-6.13,5.42-4.97,2.35l1.5-2.88C374.31,527.5,375.47,527.47,376.56,527.08z"/>
		<path class="Colour2 fill" d="M190.24,680.95l0.87,1.13C190.66,681.66,190.4,681.3,190.24,680.95z"/>
		<path class="Colour2 fill" d="M181.97,678.02l0.26-1.3C182.35,677.54,182.32,678.09,181.97,678.02z"/>
		<path class="Colour2 fill" d="M119.88,648.92c-0.72,0.43-1.64,0.75-2.84,0.93L119.88,648.92z"/>
		<path class="Colour2 fill" d="M281.17,479.21c0.27-0.24,0.56-0.5,0.85-0.76c0.17,1.19,0.34,2.29,0.47,3.32
			C282.1,480.97,281.65,480.11,281.17,479.21z"/>
		<path class="Colour2 fill" d="M385.19,495.81c0.3,0.4,0.61,0.86,0.91,1.45C385.53,496.61,385.3,496.17,385.19,495.81z"/>
		<path class="Colour2 fill" d="M388.12,493.17c0.44,1.97-3.46,0.89-2.93,2.64c-1.88-2.5-3.44-1.86-0.95-6.26
			C388.73,489,383.89,494.27,388.12,493.17z"/>
		<path class="Colour2 fill" d="M298.94,326.39c-0.87-0.08-1.66-0.87-2.5-1.28C298.42,325.18,300.47,321.65,298.94,326.39z"/>
		<path class="Colour2 fill" d="M500,542.26c-7.29-0.48-16.25-4.91-19.18-2.57c1.69-0.7,3.92,1,4.75,2.61l-3.66,0.87
			c2.5,0.9,5.64-2.35,8.98,0.19c-1.44,2.55,0.19,7.1-3.78,10.06c-8.46,2.18-3.82-8.88-12.79-10.38c-0.55-1.08,0.5,5.01-3.68,2.18
			c-5-4.46-7.43-11.94-5.67-17.89c1.93,2.46,5.8,7.39,7.81,3.29c-1.93-2.46-5.83-4.76-5.23-7.62c-3.99,4.25,4.17,2.84-0.36,6.02
			c-1.68-0.62-1.94-2.47-2.49-3.55c0.53,2.41-2.56,3.03-3.41,4.04c-5.57-1.59-9.41-0.35-15.49-1.66c-0.53,0.63-1.65,2.03-1.84,3.31
			c-2.51-2.23-4.47-10.91-2.47-13.7c-3.35-1.21-4.23,1.1-6.73-1.13c5.95-3.11-1.13,0.48-0.21-4.48c-2.8-1.46-1.72,2.02-3.41,2.72
			c-0.34-0.66-1.06-2.61-0.76-3.92c-2.89,3.11,0.75,10.55-2.64,14.17c-2.27,2.24-10.06,5.17-10.62,5.4
			c-0.22-4.48,5.1-21.1,8.81-25.89c0.6-2.87-3.69,2.17-5.08,2.09c-5.1,3.42-4.72-5.24-8.38-4.37l1.65,3.24
			c-0.86,1-5.04-1.84-5.3-3.69c-0.58,1.55,0,8.84-1.98,10.3c-5.88-0.82-8.67-11.12-6.94-15.75l7.2,7.46
			c1.46-3.86-4.98-5.76-3.23-10.41l-8.37-0.93c0.97,0.42,3.71,2.45,1.86,4.27c-3.36-1.21-1.97,0.17-4.8,1.34
			c2.45,6.16,5.86,21.13,6.62,28l-3.33-3.85l-1.71,2.02c-4.44-4.7-4.73-21.6-4.95-26.08c-3.37,0.09-4.77,8.86-4.52,10.71
			c-6.17-1.36-2.48-13.69-8.93-14.29l2.83-1.17c-1.21-1.21-6.94-1.05-5.92-2.44c-1.87,1.89-4.53,6.86-3.6,8.68l-3.08-9.52
			c0.55,1.07-1.96,7.69-1.97,9c-2.25-0.38-1.4-8.91,0.29-9.61c-5.67,3.65-3.84,1.29-8.96,6.01c-1.11-0.84,2.22-7.15,3.35-7.62
			c-2.3-2.65-4.21-2.28-5.77-1.94c3.83,4.29-3.18,15.56-3.8,20.97l-4.15-23.15c-0.01,1.31-1.11,8-1.4,8.76
			c0.92-6.25-10.38-10.42-16.27-11.24l0.83,0.3c0.54,2.4-4.81,2.65-6.17-0.04c-0.02,1.3,0.55,1.07,1.38,1.38
			c-5.09,3.41-2.22-10.53-7.62-6.34c3.65,0.45,3.62,3.07,2.75,5.39c-2.22-3.01-9.52-2.59-6.06-9.25c-2.26,0.94-3.65-0.44-4.54,3.18
			l-5.78-6.27c0.31,0.88,0.15,3.1-2.04,2.98c4.21,0.21,6.08,7.93,9.5,3.91c-1.18,4.4-3.34,6.3-2.54,10.54
			c-6.98-4.31-8.95-12.98-12.24-19.45l-7.6,1.19l0.3-2.08l-2.64,4.69c-0.5-1.4-0.74-2.55-1.05-2.13c-0.28,0.41-0.27,1.13-0.16,1.97
			c-0.63-0.46-1.14-1.09-1.32-1.71c-1.04,2.56-0.75,5.95-0.29,9.06c0.88-0.77,1.77-1.54,2.66-2.24c0.57,2.91,0.75,5.79-1.56,6.92
			c-0.16-0.42-0.38-0.88-0.62-1.36c0.28,2.13,0.34,3.83-0.49,4.39l-4.39-3.92c0.78-0.51,2.07-1.69,3.56-3.03
			c-2.23-4.23-4.71-9.32-0.86-11.86l-4.76,1.82c-3.1-6.33-2.61-5.08-7.08-10.42c-0.82,1.66,0.23,3.58-1.15,4.56
			c-2.4-6.84-11.83,3.68-11.25-1.55c-2.92-2.19-0.09-4.74-1.77-6.75c-0.06,0.59-0.19,1.75-0.82,1.66l-1.42-4.33
			c-1.38,1,1.54,3.17-1.7,3.9c-3.98-4.1-6.23-6.77-10.72-6.21c-5.42-2.52,4.53-6.46-0.47-7.15c-1.57,2.74-3.21,6.05-6.34,5.62
			c-0.98-2.5-0.1-4.73-2.4-6.82l-1.15,4.56c-2.43-0.92-4.16-2.34-5.18,1.06c-1.47-2.53-2.97-2.59-4.24-2.18
			c-3.07-3.49,5.46-8.34,6.85-9.85c-4.7,2.3-6.68-0.42-10.39,4.39l2.92,2.18c-8.63,3.53-4.76-8.34-10.81,0.27
			c2.5,0.35,4.67,3.6,2.53,5.67l-2.79-3.34c-0.76,1.08,1.74,1.42-0.26,2.33c-0.7-1.28-2.05-4.2-2.5-5.96l-0.04,0.3l-5.55-2.39
			c0.64,0.5,0.34,1.68-0.7,1.54l-3.42-3.58c0.92,1.51-0.77,2.52-2.83,2.71c-5.69-0.19-1.26-11.4-6.71-8.01
			c0.63,0.08,0.56,0.67,1.19,0.76l-2.7,1.39c2.36-9.7-12.16-4.63-9.81-14.34c-4.14,2.98-0.89,2.25,1.65,7.91l-4.01,1.81
			c1.19,0.75,2.5,0.34,3.62,1.68c-5.39,2.8-7.85-3.45-9.4-6.62c-2.01,0.91-0.85,7.56-4.96,4.64c-5.92-3.77,3.28-6.63-0.28-8.9
			l-4.27,4.13c-3.85-5.25-8.55-2.94-12.91-3.55c-0.83-0.67-1.14-1.32-1.22-1.93c-5.08,0.84-7.91-7.59-11.74-6.95
			c0.49,1.25-2.83,2.56-3.59,3.64l-5.16-4.85c2.3,2.09,1.34,4.91,1.02,7.82c-1.81-0.85-2.24-2.67-3.42-3.42
			c0.49,1.24,0.98,2.5-0.39,3.48l-4.97-6.58c0.52-0.38,1.3-0.34,1.95-0.29c-1.58-0.5-4.49-3.3-7.44-1.64
			c-0.12,1.15,0.36,2.41,0.23,3.58c2.83-2.57,3.13,0.42,3.49,2.84c-4.24-1.77-1.31,0.41-4.01,1.81c-3.06-1.02-3.22-5.17-1.71-7.33
			c-3.81,0.06-5.14,0.48-7.86-3.44l-0.46,4.07l-2.92-2.18l1.27,5.5c-7.06,0.79,0.79-6.98-6.83-6.84l-1.02,3.4
			c-2.3-2.09-1.54-8.1-4.83-4.64c-2.01-2.82,5.87-3.49-0.05-5.99c-1.6,1.44-4.3,2.04-6.26,2.21c-1.37-1.93,1.96-3.32,3.41-2.92
			c-8.41-3.73-8.87,10.01-15.72,3.2c3.55-1.61-0.43-7.27,6.23-5.2c-2.61-2.96-7.74,3.08-9.99-1.61l0.9,4.98
			c-1.23-0.27-2.11-2.24-2.61-2.96l-0.71,3.43c-2.4-7.09-8.48,0.54-8.67-7.88c-0.07,6.55-2.97-1.26-5.3,0.62
			c2.14,5.26,9.75,2.74,8.56,8.46c-2.08,1.23-2.68-1.93-4.69-0.73c0.82,1.14,1.94,3.08,2.02,4.32c-6.14,1.64-7.19-5.77-9.93-8.16
			l5.2,2.93c1.19-5.72-2.23-1.69-2.51-6.53c-3.67,2.18-4.58-2.81-7.4-1.63c0.61,0.15,0.49,0.71,1.11,0.85
			c-6.04-1.92-10.4,6.68-12.87,6.13c-2.59,0.03-6.2-4.34-3.87-6.22c-1.49-2.12,7.59,4.04,6.24-4.22c-5.93,7.35-6.23-5.23-15.47-1.73
			c2.44,3.94-3.33,4.14-1.03,7.25c-3.41-1.74-3.18-3.02-4.09-5.86l-1.85,2.3c-2.92-7.06,0.22-5.61-5.37-10.37
			c0,9.27,0,18.54,0,27.81c0.46,0.51,0.91,1.07,1.33,1.74c2.86-1.56,17.8,7.78,23.5,1.73c-3.81,3.89-0.51,2.45,1.26,5.15l-3.33,3.45
			l5.46,1.13c0.97,0.71,1.33,0.63,1.43,0.26c0.96,0.07,0.47-2.41,3.07-2.77c3.7,0.81,3.22,3.1,4.6,5.79l-0.73,0.44l2.35,1.11
			c1.85,0.41-5.22-5.93,1.3-6.29c-0.24,1.15,1.66,7.54,4.1,5.08c-3.08-0.67-1.87-3.4-0.41-4.27l4.32,0.95l-2.91,4.75
			c12.21,3.28,25.91,3.31,38.76,7.44c1.15-4.57,9.24,2.46,10.01-4.52l-0.68,0.49c-2.99-1.59,2.46-4.97,4.83-3.46
			c-3.33,1.32,2.9,8.08-3.97,7.13l4.17,4.63c-0.91,13.56,13.88,2.92,20.39,9.29c-0.4-0.65-0.34-1.37-0.29-1.79
			c5.66,6.09,16.37,1.08,17.36,3.57l1.63-3.32c4.28,7.09,4.84,7.75,12.46,7.63c0.07-0.59-0.44-1.83,0.88-2.24
			c0.92,3.08,1.86,6.16,6.84,6.85l0.13-1.16l7.31,2.78c3.11-10.79,10.88,10.36,16.55-0.67c0.54,3.58,5.72,6.18,7.71,8.39
			c0.15-0.45,0.45-0.89,1-1.27c1.17,6.65,8.82,0.62,11.81,2.21c1.67,1.99,0.23,3.57-1.21,5.15c5.45-3.38,9.83,8.44,11.89,6.94
			c3.14,0.44,2.33-3.8,3.86-5.95c4.17,2.34-3.61,9.53,3.64,7c-0.56-0.67-1.73-1.43-1.05-1.92c2.56-0.24,10.28-11.42,11.83-8.26
			l-2.07,1.49c3.36,4.01,12.45-5.88,10.99,1.59l-1.38,3.27c8.51-2.36,2.66,2.22,11.1,0.44l0.07-0.58c2.99,1.59,5.95-2.13,5.91,3.76
			l-1.31,0.42c3.82,1.59,4.29,1.28,8.39,2.19c0.32,0.66,2.02,2.04,2.92,1.06c-1.14,4.56,8.72,4.82,10.59,5.08
			c-2.99-1.6-0.92-3.08,0.53-4.65c0.79,4.24,1.98,5,5.35,3.1c-1.28,5.73-2.52,11.88,2.51,13.71c-0.55-1.08-1.65-1.92-0.8-2.93
			c0.86-1.01,1.68,0.61,1.96,1.15c0.85-1-0.53-2.39,0.61-4.17c1.89,6.39,5.87,2.14,10.32,5.52c-1.1-2.16,0.6-2.86,1.74-4.63
			c-1.48,6.49,8.48-3.52,4.17,4.14c11.27-2.05,25.04,6.97,30.42,2.78c1.71-2.01,3.35,2.54,5.03,3.15l0.59-2.86
			c3.3,6.47,3.17,2.97,7.3,9.74c-1.36-4.01,0.07-5.25,3.18-7.19l2.16,6.94l2.02-4.1c1.08,2.14,3.03,2,4.98,1.83
			c0.18,5.14,6.29,6.5,6.5,9.43c3.44-5.34,4.19,2.84,7.06-2.27c0.33,0.99,0.86,1.87,1.5,2.67c-1.58,2.31-2.72,5.08-0.8,4.29
			c0.12,0.1,0.22,0.12,0.34,0.2l1.67-3.2c1.35,1.26,2.86,2.13,3.91,2.51c-0.57,0.15-1.31,0.62-2.11,1.22
			c0.83-0.31,1.65-0.75,2.42-1.12c0.21,0.07,0.43,0.13,0.58,0.13c-0.07-0.13-0.17-0.22-0.29-0.27c1.2-0.51,2.32-0.61,3.37,0.95
			c7.08-3.57,10.26,10.77,18.48,5.42c-1.13,0.46-2.53,0.39-2.52-0.92c5.03,1.83,11.55-1.52,14.03,2.03l-1.16,3.09
			c3.34,2.54,5.94,4.41,9.03,5.1l-0.88,3.63c4.78-0.02,12.54,8.52,17.4,1.94c0.24,3.17,6.33,0.94,8.56,2.64l1.44-2.55
			c3.52,0.06,5.25,1.63,6.97,3c8.29-3.77,12.77,3.67,18.67,4.97l0.29-0.78l5.29,3.69c-0.81-2.93,0.65,2.05,2.62,1.88
			c1.48,1.88,4.71,2.07,7.44,0.94l3.78,0.96c-3.61-3.08,1.45-3.86,2.62-6.96l1.65,3.24c1.41-1.24-0.81-2.93,1.15-3.09
			c0.44,0.85,1.44,1.57,2.53,2.36C500,552.32,500,547.29,500,542.26z M30.64,420.2l-1.1,0.65C29.31,419.71,29.04,418.67,30.64,420.2
			z M219.75,445.15c-1.91,0.66-3.28,2.28-3.19-1.92C217.82,441.42,219.03,444.17,219.75,445.15z M290.14,474.74
			c-1.35,0.55-2.38,0.39-3.17-0.15C288.55,473.65,289.78,473.41,290.14,474.74z M358.56,510.92c-0.07,0.45-0.08,0.87-0.07,1.28
			C357.73,511.91,358.28,511.67,358.56,510.92z M485.97,558.01c-1.62,0.22-2.51,0.52-0.05-0.19
			C485.93,557.89,485.95,557.94,485.97,558.01z"/>
		<polygon class="Colour2 fill" points="424.7,520.17 422.47,527.32 423.86,519.86 		"/>
		<path class="Colour2 fill" d="M471.85,536.87c0.56,1.08,1.67,1.92,0.81,2.94l-3.07-2C469.61,536.49,470.74,536.02,471.85,536.87z"/>
		<path class="Colour2 fill" d="M484.58,530.95l1.09,2.16c-1.12,0.47-1.42,1.24-2.27,2.25L484.58,530.95z"/>
		<path class="Colour2 fill" d="M476.49,525.81c-0.01,1.31,3.06,3.3-0.32,3.4C476.18,527.9,472.3,524.29,476.49,525.81z"/>
		<path class="Colour2 fill" d="M195.72,436.67l-1.12-1.19C195.17,435.91,195.5,436.3,195.72,436.67z"/>
		<path class="Colour2 fill" d="M352.82,485.58c0.05,0.05,0.06,0.14,0.1,0.19c-0.07,0.01-0.16,0.03-0.22,0.05L352.82,485.58z"/>
		<path class="Colour2 fill" d="M296.44,325.11c-0.26-0.01-0.53-0.08-0.78-0.25C295.92,324.89,296.18,324.98,296.44,325.11z"/>
		<path class="Colour2 fill" d="M348.92,481.96c0.83,4.38,2.07,4.24,3.78,3.86l-4.1,8.38L348.92,481.96z"/>
		<path class="Colour2 fill" d="M234,700.79l0.28,3.27C232.22,703.26,233.65,702.21,234,700.79z"/>
		<path class="Colour2 fill" d="M432.59,509.38c-1.03,0.23-1.7,0.71-2.22,1.26C430.56,509.79,431.17,509.2,432.59,509.38z"/>
		<path class="Colour2 fill" d="M240.79,705.5h4.06c0.81-0.53,1.79-1.04,2.18-1.53l1.33,1.53h1.72c0.07-1.26,0.48-2.61,0.76-4
			c1.49,0.86,1.71,2.53,2.66,3.26c-0.32-1.14-0.64-2.3,0.62-3.12l2.33,3.85h3.41c-0.05-0.52-0.08-1.08-0.11-1.61
			c3.51,1.82,1.16-0.3,3.6-1.42c1.27,0.53,1.86,1.73,1.95,3.03h71.21l1.46-1.36l-4.61-1.3c-0.78-0.69-1.09-0.63-1.21-0.31
			c-0.82-0.11-0.61,2.15-2.87,2.34c-3.12-0.92-2.52-2.96-3.49-5.46l0.67-0.36l-1.93-1.12c-1.56-0.46,4.01,5.62-1.64,5.61
			c0.3-1.02-0.81-6.89-3.12-4.8c2.6,0.77,1.33,3.16,0,3.88l-3.64-1.08l2.9-4.14c-10.25-3.59-22.05-4.33-32.79-8.72
			c-1.36,4.06-7.76-2.7-9,3.56l0.63-0.41c2.44,1.59-2.53,4.36-4.44,2.88c2.97-1.02-1.84-7.44,4-6.23l-3.21-4.39
			c1.9-12.19-11.72-3.35-16.8-9.43c0.29,0.61,0.18,1.26,0.11,1.63c-4.37-5.79-14.02-1.81-14.66-4.12l-1.68,2.91
			c-3.11-6.62-3.54-7.24-10.11-7.53c-0.11,0.53,0.23,1.68-0.94,1.98c-0.54-2.83-1.09-5.65-5.33-6.53l-0.21,1.04l-6.07-2.88
			c-3.56,9.58-8.52-9.91-14.32-0.25c-0.17-3.26-4.42-5.87-5.96-7.97c-0.17,0.4-0.46,0.78-0.96,1.1c-0.46-6.06-7.55-1.01-9.99-2.61
			c-1.27-1.89,0.09-3.23,1.47-4.58c-4.97,2.77-7.77-8.12-9.68-6.88c-2.67-0.56-2.32,3.31-3.81,5.17c-3.4-2.33,3.89-8.42-2.56-6.51
			c0.43,0.64,1.38,1.38,0.75,1.79c-2.22,0.08-9.8,9.77-10.87,6.84l1.91-1.24c-2.56-3.79-11.21,4.67-9.34-2l1.46-2.88
			c-7.52,1.69-2.11-2.14-9.53-0.97l-0.11,0.52c-2.44-1.59-5.3,1.62-4.78-3.7l1.16-0.31c-3.16-1.63-3.59-1.38-7.05-2.41
			c-0.22-0.61-1.58-1.94-2.43-1.11c1.36-4.06-7.12-4.8-8.7-5.13c2.44,1.59,0.54,2.83-0.84,4.17c-0.33-3.87-1.29-4.61-4.36-3.07
			c1.57-5.11,3.14-10.59-1.04-12.5c0.38,1,1.26,1.82,0.45,2.68c-0.83,0.86-1.4-0.64-1.59-1.14c-0.81,0.86,0.26,2.18-0.87,3.73
			c-1.1-5.86-4.88-2.23-8.44-5.51c0.77,2-0.75,2.55-1.88,4.09c1.81-5.78-7.6,2.74-3.25-3.95c-9.88,1.26-21-7.58-25.98-4.08
			c-1.64,1.72-2.67-2.46-4.07-3.1l-0.74,2.55c-2.31-6.01-2.49-2.85-5.49-9.16c0.84,3.69-0.49,4.74-3.33,6.33l-1.29-6.38l-2.07,3.59
			c-0.76-1.99-2.44-1.96-4.14-1.91c0.27-4.65-4.88-6.19-4.83-8.85c-3.4,4.64-3.38-2.78-6.27,1.68c-0.2-0.91-0.59-1.73-1.07-2.48
			c1.55-2,2.77-4.45,1.04-3.83c-0.09-0.09-0.18-0.12-0.28-0.2l-1.7,2.8c-1.06-1.21-2.29-2.07-3.16-2.46
			c0.5-0.11,1.18-0.49,1.92-0.99c-0.74,0.23-1.48,0.6-2.17,0.88c-0.18-0.07-0.36-0.14-0.49-0.15c0.05,0.12,0.13,0.21,0.23,0.26
			c-1.08,0.4-2.05,0.43-2.82-1.03c-6.39,2.86-7.96-10.24-15.48-5.85c1.01-0.36,2.21-0.23,2.1,0.96c-4.19-1.91-10.07,0.78-11.92-2.55
			l1.25-2.73c-2.67-2.47-4.76-4.29-7.36-5.07l1.06-3.23c-1.81-0.1-3.98-1.72-6.25-3.03c0,6.49,0,12.97,0,19.46
			c2.88-1.43,6.81-2.7,7.18-2.83c-0.14,3.19-3.86,12.98-7.18,19.02c0,1.09,0,2.19,0,3.28c0.81-0.57,1.6-1.08,2.02-1.03
			c4.67-2.82,3.64,4.97,6.86,4.38l-1.15-3.01c0.82-0.86,4.19,1.92,4.26,3.6c0.63-1.37,0.72-7.97,2.55-9.19
			c5,1.04,6.56,10.48,4.68,14.57l-5.59-7.1c-1.58,3.41,3.81,5.46,1.93,9.56l7.14,1.27c-0.8-0.43-2.99-2.4-1.25-3.95
			c2.79,1.27,1.71-0.05,4.24-0.96c-1.61-5.68-3.31-19.37-3.41-25.6l2.55,3.65l1.64-1.73c3.44,4.47,2.3,19.73,2.13,23.78
			c2.91,0.09,4.84-7.74,4.77-9.43c5.21,1.55,1.01,12.48,6.52,13.35l-2.53,0.91c0.94,1.15,5.89,1.3,4.9,2.5
			c1.76-1.61,4.47-5.95,3.81-7.65l1.87,8.75c-0.38-1,2.32-6.84,2.44-8.02c1.9,0.46,0.48,8.11-1.04,8.66c5.18-3,3.41-0.96,8.21-4.96
			c0.89,0.82-2.5,6.34-3.52,6.7c1.76,2.51,3.44,2.28,4.81,2.05c-2.94-4.06,4.02-13.87,5-18.73l1.67,21.1
			c0.12-1.18,1.62-7.16,1.92-7.83c-1.3,5.59,8.09,9.94,13.1,10.98l-0.69-0.31c-0.26-2.2,4.36-2.14,5.32,0.36
			c0.12-1.18-0.38-1-1.08-1.32c4.67-2.82,1.05,9.62,6.05,6.12c-3.11-0.6-2.87-2.96-1.93-5.01c1.66,2.83,7.99,2.83,4.47,8.65
			c2.03-0.73,3.11,0.58,4.17-2.64l4.46,5.95c-0.19-0.81,0.13-2.8,2.01-2.58c-3.61-0.41-4.59-7.46-7.87-4.02
			c1.38-3.91,3.4-5.51,3.06-9.38c5.66,4.24,6.64,12.17,8.95,18.18l6.65-0.68l-0.43,1.86l2.66-4.09c0.31,1.29,0.43,2.34,0.73,1.97
			c0.28-0.35,0.32-1.01,0.3-1.77c0.51,0.45,0.89,1.04,0.99,1.61c1.1-2.26,1.13-5.33,0.99-8.16c-0.82,0.65-1.65,1.3-2.47,1.89
			c-0.25-2.65-0.17-5.26,1.91-6.16c0.1,0.38,0.25,0.82,0.42,1.26c-0.07-1.94,0.02-3.47,0.78-3.94l3.46,3.77
			c-0.72,0.42-1.92,1.42-3.32,2.55c1.58,3.93,3.29,8.65-0.23,10.75l4.25-1.4c2.16,5.87,1.83,4.72,5.25,9.76
			c0.84-1.45,0.1-3.24,1.36-4.06c1.51,6.29,10.49-2.71,9.57,1.98c2.33,2.12-0.31,4.28,0.97,6.18c0.1-0.53,0.31-1.57,0.85-1.45
			l0.87,3.98c1.27-0.83-1.07-2.94,1.79-3.43c3.09,3.91,4.81,6.43,8.73,6.16c4.47,2.55-4.43,5.59-0.18,6.47
			c1.58-2.39,3.27-5.29,5.92-4.74c0.64,2.3-0.3,4.27,1.51,6.28l1.37-4.06c2.02,0.96,3.4,2.33,4.55-0.69
			c1.06,2.35,2.34,2.49,3.47,2.19c2.36,3.31-5.39,7.24-6.72,8.54c4.24-1.83,5.72,0.72,9.31-3.43l-2.34-2.12
			c7.73-2.74,3.42,7.77,9.33,0.31c-2.13-0.44-3.73-3.49-1.72-5.25l2.13,3.16c0.74-0.93-1.38-1.37,0.41-2.09
			c0.5,1.19,1.42,3.89,1.66,5.51l0.06-0.27l4.59,2.45c-0.51-0.48-0.16-1.53,0.73-1.35l2.65,3.4c-0.67-1.41,0.87-2.23,2.66-2.3
			c4.89,0.47,0.15,10.35,5.13,7.58c-0.53-0.1-0.43-0.64-0.96-0.74l2.44-1.12c-2.83,8.63,10.1,4.8,7.27,13.45
			c3.81-2.48,0.95-1.98-0.78-7.22l3.6-1.42c-0.97-0.74-2.13-0.43-2.98-1.7c4.87-2.25,6.48,3.52,7.55,6.46
			c1.81-0.72,1.35-6.78,4.65-3.93c4.79,3.71-3.37,5.82-0.49,8.04l4.02-3.51c2.88,4.93,7.12,3.1,10.83,3.87
			c0.66,0.65,0.88,1.25,0.89,1.8C237.12,699.86,238.9,703.36,240.79,705.5z M56.04,605.56c0.09-0.41,0.14-0.78,0.16-1.15
			C56.83,604.71,56.34,604.9,56.04,605.56z M114.74,642.04c-1.44,0.76-2.52,0.92-2.72-0.3C113.23,641.31,114.1,641.51,114.74,642.04
			z M172.83,673.96c-1.24,1.57-2.05-0.97-2.59-1.9C171.94,671.56,173.25,670.16,172.83,673.96z M331.13,704.32l1-0.53
			C332.23,704.84,332.38,705.79,331.13,704.32z"/>
		<path class="Colour2 fill" d="M120.11,638.17c-0.26,0.2-0.53,0.43-0.79,0.64c-0.05-1.08-0.1-2.08-0.14-3.02
			C119.45,636.53,119.78,637.33,120.11,638.17z"/>
		<path class="Colour2 fill" d="M445.79,527.84c-0.04-0.01-0.07-0.01-0.11-0.02C446.23,527.33,446.13,527.42,445.79,527.84z"/>
		<path class="Colour2 fill" d="M283.25,467.65c-0.43,0.5-0.69,1.11-0.94,1.73C282.11,468.71,282.3,468.04,283.25,467.65z"/>
		<path class="Colour2 fill" d="M143.12,417.69l-0.67-3.58C144.92,414.85,143.38,416.1,143.12,417.69z"/>
		<path class="Colour2 fill" d="M190.06,470.28c-0.67-0.8-0.84-1.53-0.61-2.2C190.15,468.85,190.46,469.58,190.06,470.28z"/>
		<path class="Colour2 fill" d="M49.82,401.93c-0.11,0.07-0.23,0.11-0.36,0.21C48.56,400.49,49.06,400.86,49.82,401.93z"/>
		<path class="Colour2 fill" d="M462.56,551.46c-2.05,0.69-3.55,0.8-4.79,0.6C460.34,550.91,462.76,548.75,462.56,551.46z"/>
		<path class="Colour2 fill" d="M452.86,550.6c0.39-0.22,0.73-0.29,1.11-0.46c1.09,0.88,2.23,1.66,3.8,1.91
			C455.87,552.92,453.9,553.22,452.86,550.6z"/>
		<path class="Colour2 fill" d="M280.31,467.34c0.79-0.52,1.82-0.93,3.18-1.21L280.31,467.34z"/>
		<path class="Colour2 fill" d="M205.58,439.36l-0.16,1.45C205.19,439.91,205.17,439.3,205.58,439.36z"/>
		<path class="Colour2 fill" d="M143.25,418.35c-0.06,0.01-0.1-0.01-0.16,0c-0.02-0.23,0-0.45,0.03-0.66L143.25,418.35z"/>
		<path class="Colour2 fill" d="M41.86,590.06c2.52-1.69,5.72-4.58,4.47-1.87l-1.53,2.52C43.83,589.79,42.83,589.76,41.86,590.06z"/>
		<path class="Colour2 fill" d="M211.13,698.16c0.25,0.05,0.49,0.16,0.72,0.3C211.6,698.43,211.36,698.34,211.13,698.16z"/>
		<path class="Colour2 fill" d="M203.15,110.93l2.09-1.91C204.78,109.68,204.11,110.32,203.15,110.93z"/>
		<polygon class="Colour2 fill" points="275.51,309.59 273.9,313.73 273.33,313.69 		"/>
		<path class="Colour2 fill" d="M150.5,114.77c-1.65-3.59-2.54-3.13-3.73-2.34l1.09-8.39L150.5,114.77z"/>
		<path class="Colour2 fill" d="M202.98,109.54c0.2-0.55,0.25-1.15,0.29-1.76C203.58,108.32,203.59,108.95,202.98,109.54z"/>
		<path class="Colour2 fill" d="M275.71,112.93l1.12,0.73C276.3,113.44,275.96,113.19,275.71,112.93z"/>
		<path class="Colour2 fill" d="M267.7,113.24l-0.22-1.3C267.87,112.65,268.03,113.18,267.7,113.24z"/>
		<path class="Colour2 fill" d="M108.29,225.63c2.53-2.27,5.67-6.01,4.57-2.75l-1.41,3.08C110.35,225.05,109.29,225.15,108.29,225.63z"/>
		<path class="Colour2 fill" d="M277.85,273c0.6,0.79,0.74,1.53,0.53,2.24C277.75,274.49,277.48,273.75,277.85,273z"/>
		<path class="Colour2 fill" d="M319.26,114.73c0.04-0.03,0.08-0.02,0.12-0.04c0.07,0.19,0.11,0.39,0.13,0.58L319.26,114.73z"/>
		<path class="Colour2 fill" d="M272.04,82.19c0.69,0.51,0.98,1.1,0.98,1.75C272.32,83.45,271.91,82.9,272.04,82.19z"/>
		<path class="Colour2 fill" d="M497.31,369.14c0.17-0.11,0.34-0.14,0.5-0.28C497.74,369.31,497.56,369.28,497.31,369.14z"/>
		<path class="Colour2 fill" d="M405,335.22c0.1-0.08,0.21-0.12,0.33-0.24C406.13,336.63,405.68,336.28,405,335.22z"/>
		<path class="Colour2 fill" d="M77.33,224.61c-2.67,5.25-6.07,11.94-10.66,19.25c-1.26,3.57-2.6,6.71-3.76,8.45
			c-0.59,3.02,3.4-2.48,4.67-2.48c4.7-3.86,4.24,5.14,7.59,4.02l-1.46-3.26c0.8-1.1,4.58,1.59,4.79,3.49
			c0.55-1.64,0.12-9.17,1.95-10.81c5.36,0.49,7.77,11,6.12,15.91l-6.48-7.29c-1.39,4.1,4.47,5.67,2.81,10.6l7.63,0.45
			c-0.88-0.38-3.35-2.31-1.64-4.32c3.05,1.05,1.8-0.3,4.4-1.68c-2.16-6.23-5.07-21.56-5.67-28.63l2.99,3.79l1.59-2.2
			c3.99,4.6,4.03,22.11,4.17,26.75c3.08-0.31,4.48-9.48,4.27-11.39c5.62,1.03,2.08,14.05,7.96,14.27l-2.6,1.38
			c1.09,1.18,6.32,0.66,5.38,2.16c1.73-2.07,4.23-7.39,3.4-9.23l2.68,9.68c-0.49-1.08,1.89-8.1,1.92-9.46
			c2.05,0.25,1.16,9.15-0.4,9.99c5.23-4.13,3.52-1.57,8.26-6.79c1.01,0.8-2.13,7.56-3.17,8.11c2.06,2.61,3.82,2.11,5.24,1.66
			c-3.44-4.21,3.11-16.34,3.76-21.99l3.47,23.75c0.03-1.36,1.12-8.37,1.39-9.18c-0.92,6.54,9.34,10.17,14.71,10.65L151.9,270
			c-0.46-2.46,4.43-3.04,5.64-0.34c0.03-1.35-0.48-1.08-1.24-1.35c4.7-3.85,1.89,10.79,6.88,6.11c-3.33-0.24-3.27-2.96-2.44-5.43
			c1.98,2.98,8.66,2.09,5.41,9.22c2.08-1.12,3.33,0.23,4.19-3.58l5.19,6.15c-0.27-0.89-0.09-3.2,1.91-3.22
			c-3.84,0.04-5.44-7.84-8.63-3.46c1.14-4.64,3.14-6.74,2.46-11.09c6.31,4.03,7.99,12.91,10.92,19.42l6.96-1.7l-0.31,2.18l2.47-5.03
			c0.44,1.42,0.64,2.6,0.93,2.14c0.27-0.44,0.26-1.19,0.17-2.06c0.57,0.44,1.02,1.06,1.18,1.69c0.98-2.72,0.76-6.21,0.39-9.41
			c-0.81,0.85-1.64,1.7-2.46,2.49c-0.48-2.98-0.61-5.96,1.52-7.27c0.14,0.42,0.33,0.89,0.55,1.37c-0.23-2.19-0.26-3.95,0.51-4.58
			l3.96,3.8c-0.72,0.58-1.91,1.88-3.29,3.36c1.98,4.25,4.18,9.37,0.62,12.25l4.37-2.18c2.75,6.37,2.31,5.11,6.33,10.37
			c0.77-1.77-0.16-3.7,1.11-4.81c2.1,6.94,10.85-4.55,10.26,0.91c2.63,2.09,0.02,4.91,1.52,6.89c0.07-0.61,0.2-1.83,0.77-1.77
			l1.24,4.4c1.27-1.12-1.37-3.19,1.61-4.15c3.58,4.01,5.6,6.63,9.71,5.78c4.92,2.28-4.23,6.98,0.33,7.39
			c1.47-2.94,3.02-6.48,5.86-6.22c0.86,2.53,0.03,4.9,2.1,6.93l1.12-4.8c2.2,0.81,3.77,2.17,4.75-1.42c1.31,2.53,2.67,2.51,3.84,2
			c2.75,3.43-5.1,8.99-6.39,10.64c4.32-2.68,6.09,0.02,9.54-5.2l-2.64-2.08c7.93-4.2,4.24,8.35,9.87-0.95
			c-2.28-0.21-4.22-3.45-2.23-5.73l2.5,3.29c0.71-1.16-1.57-1.37,0.27-2.43c0.62,1.28,1.81,4.23,2.2,6.03l0.04-0.31l5.04,2.14
			c-0.58-0.48-0.29-1.72,0.66-1.64l3.07,3.5c-0.82-1.5,0.74-2.66,2.62-2.99c5.2-0.15,1,11.74,6.02,7.9
			c-0.57-0.04-0.5-0.66-1.08-0.71l2.49-1.61c-2.29,10.21,11.04,4.05,8.76,14.27c3.82-3.35,0.84-2.38-1.4-8.1l3.69-2.12
			c-1.08-0.7-2.28-0.2-3.28-1.52c4.96-3.24,7.13,3.09,8.49,6.28c1.85-1.07,0.87-7.9,4.59-5.12c5.35,3.54-3.08,7.08,0.13,9.21
			l3.95-4.55c3.44,5.21,7.77,2.53,11.74,2.88c0.75,0.65,1.03,1.3,1.09,1.92c4.65-1.18,7.12,7.38,10.63,6.48
			c-0.43-1.27,2.62-2.83,3.33-4l4.64,4.71c-2.07-2.03-1.16-5.01-0.83-8.05c1.64,0.77,2.01,2.64,3.08,3.34
			c-0.43-1.25-0.86-2.53,0.4-3.63l4.45,6.52c-0.48,0.42-1.19,0.44-1.78,0.42c1.43,0.42,4.05,3.15,6.77,1.24
			c0.12-1.21-0.3-2.48-0.16-3.7c-2.62,2.85-2.85-0.24-3.15-2.73c3.85,1.58,1.2-0.5,3.69-2.12c2.78,0.86,2.87,5.16,1.46,7.49
			c3.48-0.3,4.7-0.81,7.13,3.09l0.47-4.25l2.64,2.08l-1.09-5.63c6.46-1.26-0.82,7.29,6.15,6.68l0.97-3.59
			c2.08,2.03,1.3,8.31,4.34,4.51c1.79,2.8-5.41,3.99-0.03,6.21c1.48-1.59,3.95-2.38,5.75-2.68c1.22,1.92-1.83,3.56-3.15,3.24
			c7.63,3.35,8.24-10.93,14.4-4.3c-3.26,1.89,0.3,7.52-5.76,5.78c2.34,2.9,7.11-3.67,9.1,1.05l-0.75-5.11
			c1.11,0.2,1.9,2.2,2.34,2.91l0.69-3.6c2.09,7.2,7.75-1.08,7.82,7.63c0.15-6.8,2.69,1.12,4.84-0.97c-1.88-5.32-8.87-2.24-7.71-8.25
			c1.91-1.4,2.42,1.83,4.27,0.46c-0.74-1.13-1.73-3.07-1.78-4.36c5.63-2.08,6.49,5.54,8.95,7.85l-4.71-2.72
			c-1.16,6,2.01,1.62,2.21,6.62c3.38-2.49,4.15,2.63,6.74,1.23c-0.56-0.11-0.44-0.7-1-0.81c5.49,1.62,9.59-7.57,11.84-7.15
			c2.37-0.19,5.6,4.12,3.45,6.22c1.33,2.11-6.88-3.73-5.75,4.76c5.51-7.99,5.61,5.04,14.11,0.84c-2.18-3.94,3.09-4.5,1.04-7.59
			c3.09,1.59,2.86,2.94,3.65,5.83l1.72-2.5c2.64,7.33-0.45,5.74,5.15,10.78c-1.6-2.74,3.67-3.3,2.53-5.69
			c1.85,0.29,3.38,1.6,4.25,3.61l-0.13-0.46c6.19,3.18,6.3-2.05,11.47,2.63l-1.04,1.51c6.64,6.58,17.31,6.33,24.87,10.56l-2.95,0.55
			c1.34,0.07,4.72,4.01,7.71,2.22c-0.46-0.3-1.14-1.27-1.67-1.18c0.57-1.85,2.28-4.34,4.35-4.29c0-8.83,0-17.65,0-26.48l-1.69,1.57
			c-1.15-2.39,0.69-4.05,0.91-5.39c-7.44-3.39-16.73,0.96-22-4.58c-2.63,1.81-0.93,5.4-3.79,5.5c5.2-5.59-6-5.27-3.63-8.95
			c-4.41,5.7-9.66-1.2-11.12,8.84c-3.33-0.26-1.49-4.94-0.34-5.59c-3.78-0.6-6.76-1.34-8.94-5.28c-2.64,1.79-16.15-6.97-21.43-0.34
			c3.53-4.27,0.5-2.57-1.08-5.27l3.08-3.78l-4.97-0.83c-0.88-0.67-1.2-0.57-1.3-0.18c-0.88-0.01-0.47,2.53-2.84,3.06
			c-3.37-0.61-2.9-3.01-4.12-5.72l0.67-0.5l-2.13-1c-1.68-0.31,4.68,5.83-1.28,6.6c0.24-1.21-1.41-7.72-3.68-5.02
			c2.8,0.51,1.66,3.41,0.31,4.41l-3.93-0.71l2.72-5.11c-11.11-2.65-23.62-1.83-35.3-5.32c-1.11,4.81-8.4-1.98-9.21,5.31l0.63-0.55
			c2.71,1.46-2.31,5.31-4.46,3.89c3.06-1.57-2.54-8.2,3.72-7.64l-3.74-4.55c1.01-14.13-12.64-2.17-18.49-8.37
			c0.36,0.65,0.29,1.4,0.24,1.84c-5.08-5.97-14.94-0.1-15.81-2.63l-1.54,3.54c-3.81-7.09-4.32-7.74-11.28-7.14
			c-0.08,0.62,0.38,1.88-0.84,2.38c-0.8-3.14-1.61-6.28-6.16-6.68l-0.13,1.21l-6.64-2.43c-2.98,11.39-9.8-10.07-15.13,1.72
			c-0.45-3.68-5.14-6.05-6.93-8.23c-0.14,0.48-0.42,0.95-0.93,1.38c-0.98-6.83-8.05-0.1-10.76-1.56c-1.5-1.97-0.16-3.69,1.18-5.41
			c-5.02,3.84-8.86-8.15-10.77-6.47c-2.86-0.26-2.18,4.09-3.6,6.41c-3.77-2.17,3.43-10.11-3.23-7.04c0.5,0.66,1.56,1.38,0.93,1.93
			c-2.34,0.4-9.54,12.48-10.92,9.3l1.91-1.67c-3.01-3.95-11.45,6.88-10.02-0.97l1.31-3.47c-7.8,2.98-2.4-2.14-10.13,0.23l-0.07,0.61
			c-2.71-1.46-5.46,2.58-5.35-3.54l1.2-0.51c-3.47-1.41-3.9-1.07-7.63-1.76c-0.28-0.66-1.82-1.99-2.65-0.92
			c1.1-4.8-7.9-4.46-9.6-4.61c2.71,1.47,0.8,3.14-0.54,4.86c-0.67-4.35-1.74-5.06-4.85-2.88c1.24-6.03,2.46-12.48-2.11-14.07
			c0.48,1.09,1.48,1.89,0.69,2.99c-0.8,1.1-1.53-0.53-1.77-1.07c-0.79,1.09,0.46,2.44-0.61,4.36c-1.64-6.51-5.33-1.85-9.35-5.09
			c0.97,2.17-0.58,3-1.65,4.91c1.44-6.82-7.8,4.18-3.75-4.04c-10.32,2.82-22.77-5.68-27.74-1c-1.59,2.19-3.02-2.43-4.55-2.95
			l-0.57,3c-2.93-6.51-2.86-2.89-6.54-9.65c1.18,4.07-0.13,5.45-3.01,7.66l-1.88-7.07l-1.9,4.38c-0.96-2.15-2.74-1.88-4.53-1.59
			c-0.1-5.32-5.65-6.36-5.81-9.38c-3.22,5.75-3.79-2.69-6.48,2.79c-0.29-1-0.76-1.89-1.33-2.67c1.47-2.5,2.56-5.44,0.79-4.5
			c-0.11-0.09-0.2-0.11-0.31-0.19l-1.57,3.42c-1.22-1.22-2.58-2.03-3.53-2.36c0.52-0.19,1.2-0.73,1.95-1.4
			c-0.76,0.37-1.51,0.88-2.22,1.31c-0.19-0.06-0.39-0.1-0.53-0.1c0.06,0.13,0.15,0.22,0.27,0.26c-1.11,0.6-2.13,0.77-3.06-0.78
			c-6.52,4.14-9.23-10.53-16.81-4.48c1.04-0.55,2.31-0.57,2.29,0.8c-3.27-1.13-7.25,0.5-10.07,0.25
			C77.88,223.46,77.61,224.05,77.33,224.61z M422.77,315.08l1.01-0.74C423.98,315.51,424.21,316.57,422.77,315.08z M250.4,300.9
			c1.75-0.8,3.02-2.57,2.89,1.8C252.1,304.66,251.04,301.88,250.4,300.9z M186.51,274.58c1.24-0.65,2.18-0.55,2.89-0.04
			C187.95,275.6,186.82,275.93,186.51,274.58z M124.52,241.27c0.07-0.47,0.08-0.91,0.08-1.33
			C125.28,240.2,124.78,240.48,124.52,241.27z"/>
		<path class="Colour2 fill" d="M194.76,269.38c-0.25,0.27-0.52,0.56-0.79,0.84c-0.14-1.22-0.28-2.36-0.39-3.41
			C193.93,267.61,194.34,268.48,194.76,269.38z"/>
		<polygon class="Colour2 fill" points="278.42,117.13 277.93,117.23 278.78,113.29 		"/>
		<path class="Colour2 fill" d="M250.08,120.86l-0.18-1.04c0.3-1.14,0.79-1.23,1.77-1.42L250.08,120.86z"/>
		<path class="Colour2 fill" d="M299.23,121.25c0.23-0.04,0.47-0.03,0.71,0.02C299.72,121.32,299.48,121.33,299.23,121.25z"/>
		<path class="Colour2 fill" d="M45.08,229.13c0.03,0.01,0.06,0.01,0.1,0.02C44.67,229.68,44.76,229.58,45.08,229.13z"/>
		<path class="Colour2 fill" d="M119.11,111.47c0.58,0.42,0.85,0.74,1.02,1.02C119.81,112.23,119.47,111.91,119.11,111.47z"/>
		<path class="Colour2 fill" d="M302.33,121.74c-0.74,0.14-1.59-0.33-2.39-0.47C301.61,120.86,302.49,117.42,302.33,121.74z"/>
		<path class="Colour2 fill" d="M392.98,103.87c0.07-0.09,0.15-0.15,0.22-0.28C394.26,104.78,393.8,104.6,392.98,103.87z"/>
		<path class="Colour2 fill" d="M201.82,98.94c-0.15,0.28-0.3,0.59-0.46,0.89c-0.41-0.99-0.79-1.9-1.13-2.76
			C200.7,97.66,201.25,98.28,201.82,98.94z"/>
		<path class="Colour2 fill" d="M319.5,115.27l1.34,2.93C318.83,118.22,319.69,116.72,319.5,115.27z"/>
		<path class="Colour2 fill" d="M122.31,117.68c-3.23,1.69-0.84-4.19-3.75-2.1c-0.79-1.6,2.38-1.7,1.57-3.08
			C122.12,114.16,123.14,113.18,122.31,117.68z"/>
		<path class="Colour2 fill" d="M330.52,82.37c0.45,0.46,0.58,1.1,0.64,1.48c-5.66-3.77-12.49,3.47-13.82,1.56l-0.44,3.32
			c-4.87-5.01-5.44-5.44-11.11-3.28c0.08,0.53,0.76,1.48-0.13,2.19c-1.41-2.43-2.83-4.86-6.73-4.11l0.18,1.04l-6.12-0.45
			c0.21,10.22-10.57-6.08-12.22,5.04c-1.25-2.97-5.73-3.83-7.74-5.22c-0.01,0.43-0.12,0.89-0.45,1.38
			c-2.44-5.47-6.74,1.83-9.35,1.25c-1.72-1.28-1.01-3.04-0.3-4.8c-3.28,4.4-9.33-4.69-10.53-2.84c-2.45,0.46-0.85,3.93-1.49,6.21
			c-3.67-0.92,0.46-9.26-4.37-5.11c0.58,0.43,1.63,0.78,1.24,1.39c-1.86,0.89-5,12.69-6.91,10.36l1.2-1.85
			c-3.45-2.58-7.93,8.47-8.59,1.57l0.27-3.21c-5.81,4.34-2.51-1.22-8.41,2.6l0.08,0.53c-2.61-0.58-3.95,3.45-5.31-1.68l0.88-0.71
			c-3.23-0.35-3.51,0.04-6.79,0.35c-0.39-0.49-1.99-1.23-2.43-0.14c-0.22-4.27-7.65-1.84-9.11-1.57c2.61,0.58,1.41,2.43,0.7,4.19
			c-1.59-3.47-2.65-3.81-4.73-1.25c-0.39-5.33-0.91-11-5.1-11.24c0.66,0.79,1.69,1.23,1.29,2.33c-0.41,1.11-1.4-0.08-1.74-0.47
			c-0.4,1.1,0.96,1.93,0.52,3.79c-2.91-5.05-4.89-0.28-9.02-2.02c1.33,1.58,0.23,2.64-0.21,4.49c-0.42-6.04-5.52,5.34-4.09-2.48
			c-7.95,4.81-20.36,0.68-23.4,5.77c-0.81,2.2-3.1-1.31-4.5-1.38l0.24,2.64c-3.99-4.74-3.07-1.73-7.75-6.5
			c1.96,3.12,1.19,4.58-0.69,7.11l-3.25-5.45l-0.55,4.11c-1.31-1.57-2.73-0.92-4.16-0.25c-1.34-4.42-6.23-3.96-7.08-6.45
			c-1.32,5.57-3.8-1.34-4.75,3.88c-0.48-0.77-1.09-1.4-1.75-1.91c0.64-2.43,0.84-5.15-0.41-3.94c-0.11-0.05-0.2-0.05-0.3-0.09
			l-0.5,3.23c-1.31-0.73-2.64-1.08-3.51-1.13c0.39-0.28,0.83-0.89,1.29-1.63c-0.55,0.49-1.05,1.1-1.54,1.62
			c-0.18,0-0.35,0.01-0.46,0.04c0.08,0.09,0.18,0.15,0.28,0.15c-0.78,0.77-1.59,1.15-2.74,0.08c-4.46,5.01-10.2-6.6-15.1,0.26
			c0.74-0.7,1.8-1.02,2.1,0.12c-1.3-0.07-2.58,0.33-3.81,0.84c0.51,8.88,0.73,17.51,0.72,25.87c1.06,0.39,2.13,1.1,2.44,1.85
			c0.07-1.5-2.08-7.68-0.94-9.49c4.59-0.87,9.1,7.33,8.89,11.82l-7.14-4.54c-0.19,3.75,5.08,3.67,4.86,8.18l6.48-1.44
			c-0.82-0.11-3.35-1.13-2.4-3.21c2.8,0.15,1.44-0.68,3.27-2.45c-3.28-4.69-9.35-16.79-11.54-22.55l3.4,2.45l0.8-2.22
			c4.42,2.89,8.62,17.5,9.83,21.34c2.5-0.99,1.48-8.98,0.86-10.53c4.94-0.48,5.07,11.24,10.03,10.02l-1.84,1.77
			c1.19,0.73,5.44-0.96,5,0.52c0.95-2.14,1.77-7.18,0.65-8.51l4.54,7.45c-0.66-0.79-0.34-7.21-0.64-8.35
			c1.77-0.27,3.14,7.37,2.04,8.43c3.38-4.7,2.57-2.15,5.28-7.64c1.03,0.43,0.02,6.82-0.72,7.53c2.34,1.69,3.69,0.85,4.77,0.14
			c-3.87-2.7-1.28-14.38-2.09-19.25l8.54,19c-0.3-1.15-1.05-7.26-1.02-7.99c0.78,5.68,10.22,6.26,14.81,5.39l-0.69-0.03
			c-0.97-1.94,2.97-3.59,4.63-1.62c-0.29-1.14-0.66-0.79-1.36-0.83c3.01-4.34,4.14,8.56,7.19,3.46c-2.83,0.59-3.43-1.7-3.32-3.95
			c2.36,2.02,7.73-0.31,6.71,6.41c1.47-1.43,2.83-0.6,2.65-3.99l5.79,3.9c-0.44-0.68-0.84-2.65,0.83-3.14
			c-3.2,0.95-6.41-5.25-8.03-0.84c-0.15-4.14,1.02-6.38-0.58-9.85c6.23,1.87,9.74,8.88,13.72,13.61l5.41-3.08l0.26,1.89l0.87-4.78
			c0.7,1.08,1.15,2.02,1.28,1.57c0.12-0.43-0.07-1.06-0.35-1.76c0.58,0.23,1.11,0.64,1.39,1.13c0.17-2.51-0.84-5.37-1.91-7.95
			c-0.48,0.9-0.96,1.81-1.46,2.66c-1.11-2.37-1.92-4.83-0.46-6.43c0.22,0.32,0.49,0.66,0.78,1.01c-0.71-1.78-1.16-3.24-0.67-3.95
			l4.21,2.23c-0.46,0.65-1.15,2.03-1.95,3.59c2.67,3.08,5.71,6.83,3.43,10.08l3.13-2.86c3.81,4.66,3.14,3.71,7.75,7.15
			c0.22-1.66-1.01-3.05-0.22-4.28c3.4,5.3,7.98-6.38,8.78-1.68c2.69,1.12,1.18,4.1,2.91,5.39c-0.09-0.53-0.27-1.57,0.23-1.66
			l2.08,3.38c0.8-1.24-1.9-2.34,0.35-3.85c3.94,2.5,6.25,4.2,9.48,2.51c4.65,0.73-1.87,6.83,2.03,6.09c0.53-2.8,0.98-6.13,3.42-6.59
			c1.32,1.91,1.19,4.09,3.4,5.28l-0.21-4.28c2.03,0.15,3.67,0.92,3.63-2.31c1.69,1.8,2.83,1.46,3.68,0.76
			c3.12,2.21-2.12,8.72-2.81,10.41c2.97-3.26,5.09-1.43,6.73-6.61l-2.7-1.11c5.63-5.39,5.52,5.97,8.02-3.15
			c-1.95,0.37-4.34-1.87-3.23-4.25l2.87,2.15c0.31-1.14-1.63-0.77-0.35-2.09c0.82,0.92,2.52,3.1,3.27,4.51l-0.04-0.27l4.71,0.59
			c-0.6-0.26-0.65-1.36,0.16-1.52l3.4,2.19c-1.05-1.06-0.02-2.4,1.48-3.12c4.3-1.37,3.62,9.57,6.9,5.16
			c-0.49,0.1-0.58-0.43-1.07-0.34l1.69-1.94c0.52,9.07,10.18,0.75,10.7,9.83c2.4-3.71,0.13-2.19-3.1-6.43l2.57-2.65
			c-1.07-0.33-1.95,0.38-3.1-0.49c3.37-3.88,6.68,0.89,8.58,3.23c1.29-1.33-1.15-6.8,2.62-5.37c5.31,1.69-0.89,6.65,2.3,7.66
			l2.22-4.74c4.11,3.53,7.08,0.26,10.49-0.39c0.78,0.36,1.17,0.84,1.36,1.35c3.6-2.1,7.7,4.47,10.41,2.88
			c-0.66-0.96,1.52-2.99,1.83-4.13l4.99,2.83c-2.21-1.2-2.16-3.91-2.6-6.52c1.55,0.25,2.3,1.72,3.36,2.05
			c-0.66-0.94-1.32-1.9-0.53-3.13l5.27,4.38c-0.3,0.47-0.89,0.65-1.39,0.78c1.3,0.01,4.13,1.66,5.95-0.57
			c-0.18-1.04-0.84-2-1.01-3.05c-1.51,3-2.44,0.48-3.28-1.53c3.59,0.4,0.88-0.7,2.57-2.65c2.53,0.06,3.62,3.62,3,5.91
			c2.84-1.08,3.73-1.8,6.69,0.88l-0.61-3.66l2.7,1.11l-2.25-4.44c5.09-2.59,1.05,6.28,6.72,4.11l-0.04-3.23
			c2.22,1.2,3.06,6.63,4.7,2.73c2.16,1.91-3.57,4.62,1.45,5.19c0.85-1.68,2.73-2.93,4.16-3.61c1.48,1.31-0.68,3.41-1.86,3.46
			c7.16,0.98,4.28-11.09,11-7.01c-2.27,2.35,2.03,6.21-3.44,6.2c2.64,1.87,5.06-4.76,7.85-1.29l-1.84-4.09
			c0.98-0.1,2.11,1.38,2.65,1.87l-0.28-3.17c3.46,5.52,6.22-2.75,8.34,4.51c-1.49-5.71,2.52,0.29,3.81-1.97
			c-2.84-3.99-7.94,0.24-8.39-5.05c1.26-1.63,2.46,0.95,3.68-0.63c-0.88-0.77-2.17-2.15-2.52-3.22c4.21-3.08,6.73,3.08,9.34,4.42
			l-4.58-1.15c0.46,5.29,2.07,0.87,3.41,5c0.96-1.24,1.85-1.19,2.7-0.87c0.06-7.92,0.35-16.08,0.88-24.45
			c-0.15,0.15-0.33,0.29-0.56,0.41c-2.96,0.29-3.14-1.83-4.8-3.8l0.44-0.58l-2.02-0.33c-1.48,0.14,5.3,3.75,0.5,5.82
			c-0.09-1.06-3.01-6.11-4.26-3.32c2.46-0.24,2.2,2.45,1.31,3.6l-3.45,0.34l1.06-4.91c-9.9,0.43-20.15,4.09-30.74,3.96
			c0.22,4.28-7.49,0.35-6.43,6.62l0.4-0.61c2.61,0.58-0.67,4.98-2.8,4.31c2.18-2.04-4.07-6.24,1.29-7.27l-4.2-2.91
			C345.44,72.92,336.88,86.15,330.52,82.37z M136.49,92.19c-0.06-0.41-0.15-0.78-0.25-1.13C136.87,91.11,136.52,91.47,136.49,92.19z
			 M198.57,104.52c-0.96,1.24-1.83,1.78-2.41,0.72C197.04,104.4,197.85,104.26,198.57,104.52z M258.59,112.83
			c-0.52,1.91-2.07-0.15-2.84-0.81C257.03,110.93,257.66,109.15,258.59,112.83z"/>
		<path class="Colour2 fill" d="M119.23,82.99c1.57-2.5,3.31-6.36,3.16-3.38l-0.45,2.91C120.81,82.02,119.95,82.36,119.23,82.99z"/>
		<path class="Colour2 fill" d="M146.74,112.67c-0.05-0.03-0.08-0.1-0.12-0.14c0.05-0.03,0.11-0.07,0.15-0.1L146.74,112.67z"/>
		<path class="Colour2 fill" d="M495.96,564.11c-0.05,3.94-4.8-6.2-0.36-2.81C496.73,560.82,495.1,565.12,495.96,564.11z"/>
		<path class="Colour2 fill" d="M500,564.3c0,0.03,0,0.07,0,0.1c-0.16,0.02-0.32,0.06-0.49,0.07C499.63,564.41,499.8,564.35,500,564.3z"/>
		<path class="Colour2 fill" d="M99.99,258.6c-0.27-0.39-0.55-0.85-0.81-1.45C99.69,257.79,99.89,258.23,99.99,258.6z"/>
		<path class="Colour2 fill" d="M499.08,564.87C500.3,565.44,499.19,565.26,499.08,564.87L499.08,564.87z"/>
		<path class="Colour2 fill" d="M499.08,564.87c-0.36-0.16-0.87-0.37-1.72-0.69c0.71,0.26,1.43,0.32,2.15,0.29
			C499.2,564.6,499.05,564.74,499.08,564.87z"/>
		<path class="Colour2 fill" d="M0,593.89c0-0.19,0-0.38,0-0.57l2.32-5.86l-1.81,6.66L0,593.89z"/>
		<path class="Colour2 fill" d="M100.77,265.03c-4.11,0.85,0.39-4.91-3.49-3.52c-0.37-2.02,3.17-1.14,2.71-2.92
			C101.67,261.07,103.1,260.31,100.77,265.03z"/>
		<path class="Colour2 fill" d="M243.87,306.68l-2.54,2.23l0.13-1.21C242.16,306.54,242.73,306.59,243.87,306.68z"/>
		<path class="Colour2 fill" d="M226.81,440l2.76-1.98l-0.13,1.16C228.69,440.26,228.07,440.17,226.81,440z"/>
		<path class="Colour2 fill" d="M166.19,417.39c0.95,0.14,1.83,0.95,2.76,1.4C166.77,418.59,164.57,421.86,166.19,417.39z"/>
		<path class="Colour2 fill" d="M168.94,418.79c0.29,0.03,0.58,0.11,0.86,0.29C169.51,419.03,169.23,418.93,168.94,418.79z"/>
		<polygon class="Colour2 fill" points="193.81,431.24 194.43,431.32 192.1,435.13 		"/>
		<path class="Colour2 fill" d="M263.25,306.04l0.17-1.51C263.62,305.44,263.63,306.07,263.25,306.04z"/>
		<path class="Colour2 fill" d="M31.85,617.82c-0.23-0.37-0.45-0.81-0.66-1.36C31.63,617.08,31.79,617.49,31.85,617.82z"/>
		<path class="Colour2 fill" d="M192.71,281.49c0.4-0.54,0.64-1.19,0.88-1.86C193.76,280.33,193.58,281.03,192.71,281.49z"/>
		<path class="Colour2 fill" d="M320,324.65l0.56,3.67C318.32,327.7,319.75,326.31,320,324.65z"/>
		<path class="Colour2 fill" d="M132.92,270.72c-0.7-4.49-1.83-4.27-3.4-3.77l3.86-8.95L132.92,270.72z"/>
		<path class="Colour2 fill" d="M272.22,308.22l1.01,1.17C272.72,308.97,272.42,308.59,272.22,308.22z"/>
		<path class="Colour2 fill" d="M319.9,323.97c0.05-0.02,0.09,0.01,0.14,0c0.02,0.23,0,0.46-0.04,0.68L319.9,323.97z"/>
		<path class="Colour2 fill" d="M195.38,281.64c-0.73,0.59-1.67,1.08-2.92,1.45L195.38,281.64z"/>
		<path class="Colour2 fill" d="M29.11,620.05c-0.21-1.8,3.05-0.62,2.74-2.23c1.41,2.35,2.81,1.85,0.3,5.69
			C28.24,623.78,32.85,619.28,29.11,620.05z"/>
		<path class="Colour2 fill" d="M163.73,676.34l-2.54,1.65l0.21-1.04C162.13,676.01,162.66,676.13,163.73,676.34z"/>
		<path class="Colour2 fill" d="M214.11,699.87c-0.81-0.17-1.5-0.95-2.26-1.4C213.7,698.76,215.87,695.92,214.11,699.87z"/>
		<path class="Colour2 fill" d="M129.42,267.2c-0.05-0.05-0.05-0.14-0.09-0.19c0.06-0.02,0.14-0.04,0.2-0.07L129.42,267.2z"/>
		<polygon class="Colour2 fill" points="191.45,685.95 190.91,685.84 193.24,682.53 		"/>
	</g>
	<g id="BBodyLogos"></g>
	<g>
		<path class="NeckAndArmTrim fill" d="M0,315.42c10.47-3.58,26.35-10.09,42.57-21.92c75.09-54.79,73.4-162.31,72.75-203.19
			c-0.41-25.85-3.59-49.81-8.33-71.59l-15.96,4.75c1.81,11.69,4.09,28.78,5.52,49.53c2.33,33.83,2.83,61.96-3.47,95.74
			c-5.1,27.36-11.69,52.37-32.54,83.15C42.44,278.61,15.61,291.9,0,298.87V315.42z"/>
		<path class="NeckAndArmTrim fill" d="M500,315.42c-13.83-4.92-25.58-11.06-35.6-17.8c-108-72.63-75.39-255.04-70.83-278.74l15.96,4.71
			c-15.68,102.16-1.97,178.66,18.26,210.8c21.61,34.34,50.81,54.4,50.81,54.4c8.77,5.09,16.53,8.27,21.41,10.08V315.42z"/>
		<path class="NeckAndArmTrim fill" d="M349.05,5.53c-3.84,6.68-10.41,16.31-21.12,25.55c-28.64,24.7-63.88,26.73-75.73,26.84
			c-9.05,0.09-45.21-0.53-76.18-25.16c-12.2-9.7-19.74-20.06-24.14-27.22L168.8,0.5c6.34,9.04,21.88,28.17,48.96,36.31
			c14.19,4.27,26.41,3.97,35.74,3.74c14.35-0.35,32.24-0.78,49.9-11.23c14.06-8.32,22.46-19.72,27.35-28.82L349.05,5.53z"/>
	</g>
</g>
</svg>
