<?xml version="1.0" encoding="utf-8"?>
<!-- Generator: Adobe Illustrator 19.1.0, SVG Export Plug-In . SVG Version: 6.00 Build 0)  -->
<svg version="1.1" id="Layer_1" xmlns="http://www.w3.org/2000/svg" xmlns:xlink="http://www.w3.org/1999/xlink" x="0px" y="0px"
	 viewBox="0 0 500 706" style="enable-background:new 0 0 500 706;" xml:space="preserve">
<style type="text/css">
	<![CDATA[
	@font-face{font-family:'codaheavy';src:url('/fonts/coda-heavy-webfont.woff') format('woff')}
	text{font-family:Impact,codaheavy,sans-serif}
	.Colour1.fill{fill:#0B0B0B;}
	.Colour2.fill{fill:#F6901E;}
	.NeckAndArmTrim.fill{fill:#F6901E;}
	.st1{opacity:0.5;}
	.st3{fill:#FFFFFF;}
	]]>
</style>
<g>
	<path class="Colour1 fill" d="M500,298.83c-9.76-3.85-18.38-8.45-26.01-13.53C376.05,220.11,404.94,51.34,410,23.92
		c-26.4-7.81-52.81-15.61-79.21-23.42c-2.53,4.76-7.07,12.02-14.8,19.02c-22.51,20.41-52.68,21.1-65.53,21.39
		c-12.26,0.28-28.94,0.66-47.31-8.35c-20.27-9.94-30.4-25.31-34.28-32.07c-26.17,7.66-52.34,15.33-78.52,22.99
		c16.26,88.66,7.03,161.64-13.02,201.12c-7.89,15.53-22.12,43.56-54.73,63.14c-8.92,5.36-17,8.75-22.6,10.82V705.5h500
		C500,569.94,500,434.39,500,298.83z"/>
</g>
<g class="st1">
	<g>
		<path class="Colour2 fill" d="M77.33,224.61c-7.89,15.53-22.12,43.56-54.73,63.14c-8.92,5.36-17,8.75-22.6,10.82v14.64v34.89l428.18-114.36
			c-23.54-44.23-27.43-99.32-25.68-142.48H98.21C100.85,148.96,91.99,195.74,77.33,224.61z"/>
	</g>
	<g>
		<path class="Colour2 fill" d="M0,549.5v153.96l1.13,2.04h198.79L500,592.04c0-63.15,0-126.29,0-189.44L0,549.5z"/>
	</g>
</g>
<g>
	<g>
		<path class="Colour1 fill" d="M473.99,285.3c-20.25-13.48-35.07-31.39-45.8-51.57L0,348.09V549.5l500-146.9c0-34.59,0-69.18,0-103.77
			C490.24,294.98,481.62,290.38,473.99,285.3z"/>
	</g>
</g>
<g>
	<path class="Colour1 fill" d="M180.1,605.29c-0.05-0.02-0.09,0.01-0.14,0c-0.02,0.23,0,0.46,0.04,0.68L180.1,605.29z"/>
	<path class="Colour1 fill" d="M95,616.54c-0.1-0.08-0.21-0.12-0.33-0.24C93.87,617.95,94.32,617.6,95,616.54z"/>
	<path class="Colour1 fill" d="M227.78,225.88l-1.01,1.17C227.28,226.63,227.58,226.25,227.78,225.88z"/>
	<path class="Colour1 fill" d="M180,605.97l-0.56,3.67C181.68,609.02,180.25,607.63,180,605.97z"/>
	<path class="Colour1 fill" d="M231.51,224.02l-0.45,0.19C231.25,224.2,231.39,224.12,231.51,224.02z"/>
	<path class="Colour1 fill" d="M124.25,620.93c0.13-0.03,0.25-0.08,0.34-0.15C124.47,620.84,124.36,620.88,124.25,620.93z"/>
	<path class="Colour1 fill" d="M304.62,562.95c0.73,0.59,1.67,1.08,2.92,1.45L304.62,562.95z"/>
	<path class="Colour1 fill" d="M307.29,562.81c-0.4-0.54-0.64-1.19-0.88-1.86C306.24,561.65,306.42,562.35,307.29,562.81z"/>
	<path class="Colour1 fill" d="M370.58,548.52c0.05-0.05,0.05-0.14,0.09-0.19c-0.06-0.02-0.14-0.04-0.2-0.07L370.58,548.52z"/>
	<path class="Colour1 fill" d="M367.08,552.04c0.7-4.49,1.83-4.27,3.4-3.77l-3.86-8.95L367.08,552.04z"/>
	<path class="Colour1 fill" d="M443.11,528.78c-0.94-0.3-1.57-0.84-2.05-1.44C441.26,528.23,441.82,528.87,443.11,528.78z"/>
	<path class="Colour1 fill" d="M236.75,587.35l-0.17-1.51C236.38,586.76,236.37,587.39,236.75,587.35z"/>
	<path class="Colour1 fill" d="M10.4,648.23l0.27,0.05C10.59,648.24,10.5,648.23,10.4,648.23z"/>
	<path class="Colour1 fill" d="M231.51,587.68l-0.45,0.19C231.25,587.85,231.39,587.77,231.51,587.68z"/>
	<path class="Colour1 fill" d="M227.78,589.54l-1.01,1.17C227.28,590.29,227.58,589.91,227.78,589.54z"/>
	<path class="Colour1 fill" d="M222.15,190.67c-0.6,0.79-0.74,1.53-0.53,2.24C222.25,192.15,222.52,191.41,222.15,190.67z"/>
	<path class="Colour1 fill" d="M370.58,184.87c0.05-0.05,0.05-0.14,0.09-0.19c-0.06-0.02-0.14-0.04-0.2-0.07L370.58,184.87z"/>
	<path class="Colour1 fill" d="M367.08,188.38c0.7-4.49,1.83-4.27,3.4-3.77l-3.86-8.95L367.08,188.38z"/>
	<path class="Colour1 fill" d="M305.24,550.7c0.25,0.27,0.52,0.56,0.79,0.84c0.14-1.22,0.28-2.36,0.39-3.41
		C306.07,548.93,305.66,549.79,305.24,550.7z"/>
	<path class="Colour1 fill" d="M454.92,510.44c-0.03,0.01-0.06,0.01-0.1,0.02C455.33,511,455.24,510.9,454.92,510.44z"/>
	<path class="Colour1 fill" d="M2.69,650.46c-0.17-0.11-0.34-0.14-0.5-0.28C2.26,650.62,2.45,650.6,2.69,650.46z"/>
	<polygon class="Colour1 fill" points="435.77,517.09 433.64,509.54 435.01,517.36 	"/>
	<path class="Colour1 fill" d="M499.2,485.45c-1.11-3.29-5.74-4.42-2.49-7.39l-3.44,0.76c-2.5-1.34-5.46-1.35-6.78,0.51
		c-1.8-0.3-3.07,4.78-2.37,1.79l-4.78,3.5l-0.27-0.82c-5.38,0.98-9.36,8.43-16.99,4c-1.55,1.32-3.1,2.84-6.32,2.68l-1.35-2.74
		c-2,1.62-7.6-1.07-7.78,2.21c-4.53-7.13-11.49,1.25-15.86,0.94l0.86,3.82c-2.81,0.52-5.17,2.3-8.18,4.73l1.1,3.28
		c-2.22,3.53-8.21-0.35-12.78,1.24c-0.02-1.36,1.25-1.34,2.29-0.8c-7.58-6.05-10.29,8.62-16.81,4.48c-0.94,1.55-1.96,1.38-3.06,0.78
		c0.12-0.04,0.2-0.13,0.27-0.26c-0.14-0.01-0.33,0.04-0.53,0.1c-0.71-0.43-1.46-0.94-2.22-1.31c0.74,0.67,1.43,1.2,1.95,1.4
		c-0.95,0.33-2.31,1.14-3.53,2.36l-1.57-3.42c-0.1,0.08-0.2,0.1-0.31,0.19c-1.77-0.94-0.69,2,0.79,4.5
		c-0.57,0.78-1.05,1.67-1.33,2.67c-2.69-5.48-3.27,2.96-6.48-2.79c-0.16,3.03-5.71,4.06-5.81,9.38c-1.79-0.29-3.57-0.56-4.53,1.59
		l-1.9-4.38l-1.88,7.07c-2.87-2.21-4.19-3.59-3.01-7.66c-3.68,6.76-3.61,3.14-6.54,9.65l-0.57-3c-1.53,0.53-2.96,5.14-4.55,2.95
		c-4.97-4.67-17.42,3.82-27.74,1c4.05,8.22-5.19-2.78-3.75,4.04c-1.07-1.91-2.62-2.74-1.65-4.91c-4.02,3.23-7.72-1.43-9.35,5.09
		c-1.07-1.92,0.17-3.27-0.61-4.36c-0.25,0.54-0.97,2.17-1.77,1.07c-0.79-1.1,0.21-1.9,0.69-2.99c-4.56,1.59-3.35,8.04-2.11,14.07
		c-3.11-2.18-4.18-1.47-4.85,2.88c-1.34-1.72-3.25-3.39-0.54-4.86c-1.7,0.15-10.7-0.19-9.6,4.61c-0.83-1.07-2.37,0.25-2.65,0.92
		c-3.73,0.69-4.16,0.35-7.63,1.76l1.2,0.51c0.11,6.12-2.64,2.08-5.35,3.54l-0.07-0.61c-7.73-2.37-2.33,2.75-10.13-0.23l1.31,3.47
		c1.44,7.84-7-2.98-10.02,0.97l1.91,1.67c-1.37,3.18-8.58-8.9-10.92-9.3c-0.63-0.55,0.43-1.26,0.93-1.93
		c-6.66-3.07,0.54,4.87-3.23,7.04c-1.42-2.32-0.74-6.67-3.6-6.41c-1.91-1.68-5.75,10.31-10.77,6.47c1.34,1.73,2.67,3.45,1.18,5.41
		c-2.71,1.47-9.78-5.26-10.76,1.56c-0.51-0.43-0.78-0.9-0.93-1.38c-1.79,2.17-6.48,4.55-6.93,8.23
		c-5.33-11.79-12.14,9.67-15.13-1.72l-6.64,2.43l-0.13-1.21c-4.55,0.41-5.36,3.55-6.16,6.68c-1.21-0.51-0.76-1.76-0.84-2.38
		c-6.96-0.6-7.47,0.05-11.28,7.14l-1.54-3.54c-0.87,2.53-10.72-3.33-15.81,2.63c-0.05-0.43-0.11-1.18,0.24-1.84
		c-5.85,6.2-19.51-5.76-18.49,8.37l-3.74,4.55c6.26-0.55,0.66,6.07,3.72,7.64c-2.14,1.42-7.16-2.43-4.46-3.89l0.63,0.55
		c-0.81-7.29-8.1-0.5-9.21-5.31c-11.68,3.49-24.19,2.68-35.3,5.32l2.72,5.11l-3.93,0.71c-1.35-1-2.49-3.9,0.31-4.41
		c-2.27-2.7-3.91,3.81-3.68,5.02c-5.96-0.77,0.41-6.91-1.28-6.6l-2.13,1l0.67,0.5c-1.22,2.71-0.75,5.11-4.12,5.72
		c-2.38-0.53-1.97-3.07-2.84-3.06c-0.1-0.39-0.42-0.49-1.3,0.18l-4.97,0.83l3.08,3.78c-1.58,2.69-4.62,0.99-1.08,5.27
		c-5.28-6.63-18.8,2.13-21.43,0.34c-2.17,3.94-5.16,4.68-8.94,5.28c1.15,0.65,2.99,5.34-0.34,5.59c-1.46-10.04-6.71-3.13-11.12-8.84
		c2.36,3.68-8.83,3.36-3.63,8.95c-2.86-0.1-1.16-3.69-3.79-5.5c-5.27,5.55-14.56,1.2-22,4.58c0.23,1.34,2.07,3,0.91,5.39L0,618.5
		v26.48c2.07-0.04,3.78,2.45,4.35,4.29c-0.53-0.1-1.2,0.88-1.67,1.18c2.99,1.79,6.37-2.16,7.71-2.22l-2.95-0.55
		c7.56-4.23,18.23-3.98,24.87-10.56l-1.04-1.51c5.16-4.68,5.28,0.55,11.47-2.63l-0.13,0.46c0.87-2.01,2.4-3.31,4.25-3.61
		c-1.14,2.39,4.13,2.95,2.53,5.69c5.61-5.04,2.52-3.45,5.15-10.78l1.72,2.5c0.79-2.89,0.57-4.24,3.66-5.83
		c-2.06,3.09,3.21,3.65,1.04,7.59c8.49,4.2,8.6-8.83,14.11-0.84c1.12-8.49-7.09-2.65-5.75-4.76c-2.15-2.1,1.09-6.41,3.45-6.22
		c2.24-0.42,6.34,8.78,11.84,7.15c-0.56,0.11-0.44,0.7-1,0.81c2.59,1.4,3.35-3.72,6.74-1.23c0.19-5,3.37-0.62,2.21-6.62l-4.71,2.72
		c2.47-2.31,3.32-9.93,8.95-7.85c-0.05,1.29-1.05,3.23-1.78,4.36c1.85,1.37,2.36-1.87,4.27-0.46c1.16,6.01-5.82,2.93-7.71,8.25
		c2.15,2.09,4.69-5.83,4.84,0.97c0.06-8.72,5.72-0.43,7.82-7.63l0.69,3.6c0.44-0.71,1.23-2.71,2.34-2.91l-0.75,5.11
		c1.99-4.72,6.76,1.86,9.1-1.05c-6.06,1.74-2.5-3.89-5.76-5.78c6.16-6.64,6.77,7.64,14.4,4.3c-1.32,0.32-4.38-1.32-3.15-3.24
		c1.79,0.3,4.27,1.09,5.75,2.68c5.38-2.22-1.82-3.41-0.03-6.21c3.04,3.8,2.27-2.48,4.34-4.51l0.97,3.59
		c6.96,0.61-0.31-7.94,6.15-6.68l-1.09,5.63l2.64-2.08l0.47,4.25c2.43-3.9,3.65-3.38,7.13-3.09c-1.41-2.33-1.32-6.63,1.46-7.49
		c2.49,1.62-0.16,3.7,3.69,2.12c-0.3,2.49-0.54,5.57-3.15,2.73c0.13,1.22-0.29,2.49-0.16,3.7c2.72,1.9,5.34-0.83,6.77-1.24
		c-0.59,0.01-1.31,0-1.78-0.42l4.45-6.52c1.27,1.11,0.84,2.38,0.4,3.63c1.07-0.7,1.44-2.57,3.08-3.34c0.33,3.04,1.24,6.02-0.83,8.05
		l4.64-4.71c0.71,1.17,3.76,2.73,3.33,4c3.51,0.9,5.98-7.66,10.63-6.48c0.06-0.62,0.34-1.28,1.09-1.92
		c3.98-0.35,8.3,2.33,11.74-2.88l3.95,4.55c3.21-2.13-5.22-5.67,0.13-9.21c3.72-2.78,2.74,4.05,4.59,5.12
		c1.37-3.19,3.53-9.52,8.49-6.28c-1,1.32-2.2,0.81-3.28,1.52l3.69,2.12c-2.24,5.72-5.23,4.75-1.4,8.1
		c-2.28-10.22,11.05-4.06,8.76-14.27l2.49,1.61c-0.58,0.05-0.51,0.67-1.08,0.71c5.03,3.85,0.83-8.05,6.02-7.9
		c1.88,0.33,3.45,1.48,2.62,2.99l3.07-3.5c0.95-0.08,1.23,1.16,0.66,1.64l5.04-2.14l0.04,0.31c0.39-1.81,1.58-4.75,2.2-6.03
		c1.83,1.06-0.44,1.27,0.27,2.43l2.5-3.29c1.98,2.28,0.05,5.52-2.23,5.73c5.64,9.31,1.94-3.24,9.87,0.95l-2.64,2.08
		c3.45,5.22,5.22,2.52,9.54,5.2c-1.3-1.66-9.15-7.21-6.39-10.64c1.17,0.51,2.54,0.53,3.84-2c0.98,3.59,2.54,2.23,4.75,1.42l1.12,4.8
		c2.07-2.03,1.24-4.4,2.1-6.93c2.85-0.26,4.39,3.28,5.86,6.22c4.56-0.41-4.58-5.11,0.33-7.39c4.11,0.85,6.14-1.77,9.71-5.78
		c2.97,0.96,0.33,3.03,1.61,4.15l1.24-4.4c0.57-0.06,0.71,1.16,0.77,1.77c1.5-1.98-1.11-4.8,1.52-6.89
		c-0.6-5.46,8.16,6.03,10.26-0.91c1.27,1.11,0.34,3.04,1.11,4.81c4.02-5.26,3.58-4,6.33-10.37l4.37,2.18
		c-3.55-2.88-1.36-8,0.62-12.25c-1.38-1.48-2.57-2.78-3.29-3.36l3.96-3.8c0.77,0.63,0.74,2.39,0.51,4.58
		c0.21-0.48,0.41-0.95,0.55-1.37c2.13,1.32,2,4.29,1.52,7.27c-0.81-0.79-1.64-1.64-2.46-2.49c-0.37,3.2-0.59,6.69,0.39,9.41
		c0.16-0.63,0.61-1.26,1.18-1.69c-0.09,0.86-0.09,1.62,0.17,2.06c0.29,0.46,0.49-0.72,0.93-2.14l2.47,5.03l-0.31-2.18l6.96,1.7
		c2.92-6.5,4.6-15.38,10.92-19.42c-0.67,4.35,1.33,6.46,2.46,11.09c-3.18-4.38-4.79,3.5-8.63,3.46c2,0.01,2.18,2.32,1.91,3.22
		l5.19-6.15c0.86,3.81,2.11,2.47,4.19,3.58c-3.25-7.12,3.43-6.24,5.41-9.22c0.83,2.46,0.89,5.18-2.44,5.43
		c4.99,4.68,2.18-9.96,6.88-6.11c-0.76,0.27-1.27-0.01-1.24,1.35c1.21-2.71,6.09-2.12,5.64,0.34l-0.76,0.26
		c5.37-0.49,15.63-4.12,14.71-10.65c0.27,0.8,1.36,7.81,1.39,9.18l3.47-23.75c0.64,5.65,7.19,17.78,3.76,21.99
		c1.43,0.45,3.18,0.95,5.24-1.66c-1.04-0.55-4.17-7.31-3.17-8.11c4.74,5.22,3.03,2.66,8.26,6.79c-1.56-0.83-2.45-9.73-0.4-9.99
		c0.03,1.36,2.41,8.38,1.92,9.46l2.68-9.68c-0.82,1.84,1.67,7.15,3.4,9.23c-0.95-1.5,4.29-0.98,5.38-2.16l-2.6-1.38
		c5.88-0.22,2.34-13.24,7.96-14.27c-0.2,1.91,1.19,11.08,4.27,11.39c0.14-4.63,0.18-22.14,4.17-26.75l1.59,2.2l2.99-3.79
		c-0.61,7.07-3.51,22.4-5.67,28.63c2.59,1.39,1.35,2.74,4.4,1.68c1.71,2-0.77,3.94-1.64,4.32l7.63-0.45
		c-1.66-4.92,4.2-6.5,2.81-10.6l-6.48,7.29c-1.65-4.91,0.76-15.42,6.12-15.91c1.83,1.64,1.4,9.17,1.95,10.81
		c0.21-1.9,3.99-4.59,4.79-3.49l-1.46,3.26c3.36,1.12,2.89-7.88,7.59-4.02c1.27,0,5.25,5.5,4.67,2.48c-3.45-5.2-8.54-22.76-8.4-27.4
		c0.52,0.27,7.67,3.8,9.78,6.26c3.14,3.96-0.08,11.46,2.6,14.86c-0.29-1.39,0.33-3.36,0.64-4.02c1.55,0.84,0.61,4.37,3.15,3.03
		c-0.9-5.2,5.61-1.04,0.13-4.63c2.26-2.16,3.09,0.29,6.13-0.76c-1.86-3.02-0.19-11.91,2.07-14.06c0.19,1.33,1.23,2.85,1.72,3.54
		c5.54-0.99,9.06,0.54,14.13-0.77c0.79,1.1,3.63,1.94,3.17,4.4c0.49-1.09,0.7-2.99,2.22-3.53c4.19,3.58-3.29,1.61,0.41,6.27
		c-0.59-3,2.95-5.14,4.67-7.58c-1.9-4.37-5.36,0.5-7.09,2.93c-1.68-6.28,0.43-13.89,4.94-18.21c3.78-2.68,2.9,3.57,3.39,2.49
		c8.18-1.01,3.79-12.77,11.55-9.98c3.66,3.31,2.24,7.93,3.59,10.67c-3.01,2.43-5.93-1.14-8.2-0.36l3.36,1.13
		c-0.73,1.62-2.75,3.24-4.3,2.41c2.15,2.07,7.72-0.05,13.25-1.04c0-5.2,0-10.4,0-15.61L499.2,485.45z M76.22,595.66l1.01,0.74
		C75.79,597.89,76.02,596.82,76.22,595.66z M246.72,584.02c-0.14-4.37,1.13-2.6,2.89-1.8C248.96,583.2,247.9,585.97,246.72,584.02z
		 M310.59,555.85c0.72-0.51,1.65-0.61,2.89,0.04C313.18,557.25,312.05,556.92,310.59,555.85z M375.41,521.26
		c-0.01,0.42,0.01,0.86,0.08,1.33C375.22,521.8,374.72,521.51,375.41,521.26z M491.17,481.84c-2.26-0.9-1.44-0.52,0.04-0.2
		C491.19,481.71,491.18,481.76,491.17,481.84z"/>
	<path class="Colour1 fill" d="M478.6,502.69c0.49-1.09,1.5-1.88,0.7-2.99l-2.77,1.89C476.56,502.94,477.6,503.5,478.6,502.69z"/>
	<path class="Colour1 fill" d="M307.29,199.16c-0.4-0.54-0.64-1.19-0.88-1.86C306.24,197.99,306.42,198.69,307.29,199.16z"/>
	<path class="Colour1 fill" d="M461.07,487.27c0.36,0.25,0.67,0.34,1.02,0.54c0.99-0.84,2.01-1.58,3.45-1.75
		C463.79,485.05,461.99,484.62,461.07,487.27z"/>
	<path class="Colour1 fill" d="M222.15,554.32c-0.6,0.79-0.74,1.53-0.53,2.24C222.25,555.8,222.52,555.07,222.15,554.32z"/>
	<path class="Colour1 fill" d="M30.2,606.65c-0.09-0.14-0.19-0.28-0.32-0.43C29.98,606.38,30.09,606.51,30.2,606.65z"/>
	<path class="Colour1 fill" d="M391.71,506.95c-2.53-2.27-5.67-6.01-4.57-2.75l1.41,3.08C389.65,506.37,390.71,506.47,391.71,506.95z"/>
	<path class="Colour1 fill" d="M236.75,223.7l-0.17-1.51C236.38,223.1,236.37,223.74,236.75,223.7z"/>
	<path class="Colour1 fill" d="M304.62,199.3c0.73,0.59,1.67,1.08,2.92,1.45L304.62,199.3z"/>
	<path class="Colour1 fill" d="M469.92,486.98c-1.88-0.85-3.26-1.05-4.38-0.92C467.9,487.42,470.14,489.8,469.92,486.98z"/>
	<path class="Colour1 fill" d="M180.1,241.63c-0.05-0.02-0.09,0.01-0.14,0c-0.02,0.23,0,0.46,0.04,0.68L180.1,241.63z"/>
	<path class="Colour1 fill" d="M201.07,607.71c0.87-0.08,1.66-0.87,2.5-1.28C201.58,606.5,199.53,602.97,201.07,607.71z"/>
	<path class="Colour1 fill" d="M203.56,606.43c0.26-0.01,0.53-0.08,0.78-0.25C204.08,606.2,203.82,606.3,203.56,606.43z"/>
	<path class="Colour1 fill" d="M256.13,588l2.54,2.23l-0.13-1.21C257.84,587.85,257.27,587.91,256.13,588z"/>
	<path class="Colour1 fill" d="M400.01,539.91c0.27-0.39,0.55-0.85,0.81-1.45C400.31,539.11,400.11,539.55,400.01,539.91z"/>
	<polygon class="Colour1 fill" points="224.49,590.9 226.1,595.05 226.67,595 	"/>
	<path class="Colour1 fill" d="M399.23,546.35c4.11,0.85-0.39-4.91,3.49-3.52c0.37-2.02-3.17-1.14-2.71-2.92
		C398.33,542.39,396.9,541.63,399.23,546.35z"/>
	<path class="Colour1 fill" d="M482.98,514.44c-0.03-1.36,2.75-3.24-0.34-3.54C482.68,512.27,479.19,515.77,482.98,514.44z"/>
	<path class="Colour1 fill" d="M489.17,504.97l1.14,4.65l0.97-2.17C490.24,506.89,489.96,506.07,489.17,504.97z"/>
	<path class="Colour1 fill" d="M180,242.31l-0.56,3.67C181.68,245.37,180.25,243.97,180,242.31z"/>
	<path class="Colour1 fill" d="M201.07,244.05c0.87-0.08,1.66-0.87,2.5-1.28C201.58,242.85,199.53,239.32,201.07,244.05z"/>
	<path class="Colour1 fill" d="M499.96,478.83c0.02,0.01,0.03,0.01,0.04,0.01c0-1.28,0-2.56,0-3.84C499.14,474.43,496.5,481.62,499.96,478.83
		z"/>
	<path class="Colour1 fill" d="M406.71,174.59c0.79,0.42,1.22,0.84,1.53,1.19c-0.25-1.26-0.49-2.53-0.72-3.79
		C407.23,172.96,406.97,173.84,406.71,174.59z"/>
	<path class="Colour1 fill" d="M203.56,242.77c0.26-0.01,0.53-0.08,0.78-0.25C204.08,242.55,203.82,242.65,203.56,242.77z"/>
	<path class="Colour1 fill" d="M47.48,268.23c1.12,1.03,2.95,1.89,1.91,3.66c5.61-5.04,2.52-3.45,5.15-10.78l1.72,2.5
		c0.79-2.89,0.57-4.24,3.66-5.83c-2.06,3.09,3.21,3.65,1.04,7.59c8.49,4.2,8.6-8.83,14.11-0.84c1.12-8.49-7.09-2.65-5.75-4.76
		c-2.15-2.1,1.09-6.41,3.45-6.22c2.24-0.42,6.34,8.78,11.84,7.15c-0.56,0.11-0.44,0.7-1,0.81c2.59,1.4,3.35-3.72,6.74-1.23
		c0.19-5,3.37-0.62,2.21-6.62l-4.71,2.72c2.47-2.31,3.32-9.93,8.95-7.85c-0.05,1.29-1.05,3.23-1.78,4.36
		c1.85,1.37,2.36-1.87,4.27-0.46c1.16,6.01-5.82,2.93-7.71,8.25c2.15,2.09,4.69-5.83,4.84,0.97c0.06-8.72,5.72-0.43,7.82-7.63
		l0.69,3.6c0.44-0.71,1.23-2.71,2.34-2.91l-0.75,5.11c1.99-4.72,6.76,1.86,9.1-1.05c-6.06,1.74-2.5-3.89-5.76-5.78
		c6.16-6.64,6.77,7.64,14.4,4.3c-1.32,0.32-4.38-1.32-3.15-3.24c1.79,0.3,4.27,1.09,5.75,2.68c5.38-2.22-1.82-3.41-0.03-6.21
		c3.04,3.8,2.27-2.48,4.34-4.51l0.97,3.59c6.96,0.61-0.31-7.94,6.15-6.68l-1.09,5.63l2.64-2.08l0.47,4.25
		c2.43-3.9,3.65-3.38,7.13-3.09c-1.41-2.33-1.32-6.63,1.46-7.49c2.49,1.62-0.16,3.7,3.69,2.12c-0.3,2.49-0.54,5.57-3.15,2.73
		c0.13,1.22-0.29,2.49-0.16,3.7c2.72,1.9,5.34-0.83,6.77-1.24c-0.59,0.01-1.31,0-1.78-0.42l4.45-6.52c1.27,1.11,0.84,2.38,0.4,3.63
		c1.07-0.7,1.44-2.57,3.08-3.34c0.33,3.04,1.24,6.02-0.83,8.05l4.64-4.71c0.71,1.17,3.76,2.73,3.33,4c3.51,0.9,5.98-7.66,10.63-6.48
		c0.06-0.62,0.34-1.28,1.09-1.92c3.98-0.35,8.3,2.33,11.74-2.88l3.95,4.55c3.21-2.13-5.22-5.67,0.13-9.21
		c3.72-2.78,2.74,4.05,4.59,5.12c1.37-3.19,3.53-9.52,8.49-6.28c-1,1.32-2.2,0.81-3.28,1.52l3.69,2.12c-2.24,5.72-5.23,4.75-1.4,8.1
		c-2.28-10.22,11.05-4.06,8.76-14.27l2.49,1.61c-0.58,0.05-0.51,0.67-1.08,0.71c5.03,3.85,0.83-8.05,6.02-7.9
		c1.88,0.33,3.45,1.48,2.62,2.99l3.07-3.5c0.95-0.08,1.23,1.16,0.66,1.64l5.04-2.14l0.04,0.31c0.39-1.81,1.58-4.75,2.2-6.03
		c1.83,1.06-0.44,1.27,0.27,2.43l2.5-3.29c1.98,2.28,0.05,5.52-2.23,5.73c5.64,9.31,1.94-3.24,9.87,0.95l-2.64,2.08
		c3.45,5.22,5.22,2.52,9.54,5.2c-1.3-1.66-9.15-7.21-6.39-10.64c1.17,0.51,2.54,0.53,3.84-2c0.98,3.59,2.54,2.23,4.75,1.42l1.12,4.8
		c2.07-2.03,1.24-4.4,2.1-6.93c2.85-0.26,4.39,3.28,5.86,6.22c4.56-0.41-4.58-5.11,0.33-7.39c4.11,0.85,6.14-1.77,9.71-5.78
		c2.97,0.96,0.33,3.03,1.61,4.15l1.24-4.4c0.57-0.06,0.71,1.16,0.77,1.77c1.5-1.98-1.11-4.8,1.52-6.89
		c-0.6-5.46,8.16,6.03,10.26-0.91c1.27,1.11,0.34,3.04,1.11,4.81c4.02-5.26,3.58-4,6.33-10.37l4.37,2.18
		c-3.55-2.88-1.36-8,0.62-12.25c-1.38-1.48-2.57-2.78-3.29-3.36l3.96-3.8c0.77,0.63,0.74,2.39,0.51,4.58
		c0.21-0.48,0.41-0.95,0.55-1.37c2.13,1.32,2,4.29,1.52,7.27c-0.81-0.79-1.64-1.64-2.46-2.49c-0.37,3.2-0.59,6.69,0.39,9.41
		c0.16-0.63,0.61-1.26,1.18-1.69c-0.09,0.86-0.09,1.62,0.17,2.06c0.29,0.46,0.49-0.72,0.93-2.14l2.47,5.03l-0.31-2.18l6.96,1.7
		c2.92-6.5,4.6-15.38,10.92-19.42c-0.67,4.35,1.33,6.46,2.46,11.09c-3.18-4.38-4.79,3.5-8.63,3.46c2,0.01,2.18,2.32,1.91,3.22
		l5.19-6.15c0.86,3.81,2.11,2.47,4.19,3.58c-3.25-7.12,3.43-6.24,5.41-9.22c0.83,2.46,0.89,5.18-2.44,5.43
		c4.99,4.68,2.18-9.96,6.88-6.11c-0.76,0.27-1.27-0.01-1.24,1.35c1.21-2.71,6.09-2.12,5.64,0.34l-0.76,0.26
		c5.37-0.49,15.63-4.12,14.71-10.65c0.27,0.8,1.36,7.81,1.39,9.18l3.47-23.75c0.64,5.65,7.19,17.78,3.76,21.99
		c1.43,0.45,3.18,0.95,5.24-1.66c-1.04-0.55-4.17-7.31-3.17-8.11c4.74,5.22,3.03,2.66,8.26,6.79c-1.56-0.83-2.45-9.73-0.4-9.99
		c0.03,1.36,2.41,8.38,1.92,9.46l2.68-9.68c-0.82,1.84,1.67,7.15,3.4,9.23c-0.95-1.5,4.29-0.98,5.38-2.16l-2.6-1.38
		c5.88-0.22,2.34-13.24,7.96-14.27c-0.2,1.91,1.19,11.08,4.27,11.39c0.09-3.06,0.15-11.76,1.33-18.63
		c-0.56-4.35-1.01-8.68-1.39-12.99c-1.87,1.72-3.81,2.9-6.31,1.31c-0.94,1.55-1.96,1.38-3.06,0.78c0.12-0.04,0.2-0.13,0.27-0.26
		c-0.14-0.01-0.33,0.04-0.53,0.1c-0.71-0.43-1.46-0.94-2.22-1.31c0.74,0.67,1.43,1.2,1.95,1.4c-0.95,0.33-2.31,1.14-3.53,2.36
		l-1.57-3.42c-0.1,0.08-0.2,0.1-0.31,0.19c-1.77-0.94-0.69,2,0.79,4.5c-0.57,0.78-1.05,1.67-1.33,2.67
		c-2.69-5.48-3.27,2.96-6.48-2.79c-0.16,3.03-5.71,4.06-5.81,9.38c-1.79-0.29-3.57-0.56-4.53,1.59l-1.9-4.38l-1.88,7.07
		c-2.87-2.21-4.19-3.59-3.01-7.66c-3.68,6.76-3.61,3.14-6.54,9.65l-0.57-3c-1.53,0.53-2.96,5.14-4.55,2.95
		c-4.97-4.67-17.42,3.82-27.74,1c4.05,8.22-5.19-2.78-3.75,4.04c-1.07-1.91-2.62-2.74-1.65-4.91c-4.02,3.23-7.72-1.43-9.35,5.09
		c-1.07-1.92,0.17-3.27-0.61-4.36c-0.25,0.54-0.97,2.17-1.77,1.07c-0.79-1.1,0.21-1.9,0.69-2.99c-4.56,1.59-3.35,8.04-2.11,14.07
		c-3.11-2.18-4.18-1.47-4.85,2.88c-1.34-1.72-3.25-3.39-0.54-4.86c-1.7,0.15-10.7-0.19-9.6,4.61c-0.83-1.07-2.37,0.25-2.65,0.92
		c-3.73,0.69-4.16,0.35-7.63,1.76l1.2,0.51c0.11,6.12-2.64,2.08-5.35,3.54l-0.07-0.61c-7.73-2.37-2.33,2.75-10.13-0.23l1.31,3.47
		c1.44,7.84-7-2.98-10.02,0.97l1.91,1.67c-1.37,3.18-8.58-8.9-10.92-9.3c-0.63-0.55,0.43-1.26,0.93-1.93
		c-6.66-3.07,0.54,4.87-3.23,7.04c-1.42-2.32-0.74-6.67-3.6-6.41c-1.91-1.68-5.75,10.31-10.77,6.47c1.34,1.73,2.67,3.45,1.18,5.41
		c-2.71,1.47-9.78-5.26-10.76,1.56c-0.51-0.43-0.78-0.9-0.93-1.38c-1.79,2.17-6.48,4.55-6.93,8.23
		c-5.33-11.79-12.14,9.67-15.13-1.72l-6.64,2.43l-0.13-1.21c-4.55,0.41-5.36,3.55-6.16,6.68c-1.21-0.51-0.76-1.76-0.84-2.38
		c-6.96-0.6-7.47,0.05-11.28,7.14l-1.54-3.54c-0.87,2.53-10.72-3.34-15.81,2.63c-0.05-0.43-0.11-1.18,0.24-1.84
		c-5.85,6.2-19.51-5.76-18.49,8.37l-3.74,4.55c6.26-0.55,0.66,6.07,3.72,7.64c-2.14,1.42-7.16-2.43-4.46-3.89l0.63,0.55
		c-0.81-7.29-8.1-0.5-9.21-5.31c-11.68,3.49-24.19,2.68-35.3,5.32l2.72,5.11l-3.93,0.71c-1.35-1-2.49-3.9,0.31-4.41
		c-2.27-2.7-3.91,3.81-3.68,5.02c-5.96-0.77,0.41-6.91-1.28-6.6l-2.13,1l0.67,0.5c-1.22,2.71-0.75,5.11-4.12,5.72
		c-2.38-0.53-1.97-3.07-2.84-3.06c-0.1-0.39-0.42-0.49-1.3,0.18l-0.91,0.15c-0.58,1.1-1.19,2.24-1.83,3.41l0.86,1.05
		c-1.58,2.69-4.62,0.99-1.08,5.27c-0.66-0.82-1.44-1.41-2.32-1.81C64.46,247.85,57.39,258.24,47.48,268.23z M375.41,157.6
		c-0.01,0.42,0.01,0.86,0.08,1.33C375.22,158.14,374.72,157.86,375.41,157.6z M313.49,192.24c-0.31,1.36-1.44,1.03-2.89-0.04
		C311.31,191.69,312.25,191.59,313.49,192.24z M249.6,218.57c-0.64,0.98-1.7,3.75-2.89,1.8
		C246.58,215.99,247.85,217.76,249.6,218.57z M76.22,232l1.01,0.74C75.79,234.23,76.02,233.17,76.22,232z"/>
	<path class="Colour1 fill" d="M391.71,143.29c-2.53-2.27-5.67-6.01-4.57-2.75l1.41,3.08C389.65,142.71,390.71,142.82,391.71,143.29z"/>
	<path class="Colour1 fill" d="M95,252.89c-0.1-0.08-0.21-0.12-0.33-0.24C93.87,254.3,94.32,253.95,95,252.89z"/>
	<path class="Colour1 fill" d="M124.25,257.27c0.13-0.03,0.25-0.08,0.34-0.15C124.47,257.18,124.36,257.22,124.25,257.27z"/>
	<path class="Colour1 fill" d="M305.24,187.05c0.25,0.27,0.52,0.56,0.79,0.84c0.14-1.22,0.28-2.36,0.39-3.41
		C306.07,185.28,305.66,186.14,305.24,187.05z"/>
	<path class="Colour1 fill" d="M400.01,176.26c0.27-0.39,0.55-0.85,0.81-1.45C400.31,175.45,400.11,175.89,400.01,176.26z"/>
	<polygon class="Colour1 fill" points="226.1,231.4 226.67,231.35 224.49,227.25 	"/>
	<path class="Colour1 fill" d="M256.13,224.35l2.54,2.23l-0.13-1.21C257.84,224.2,257.27,224.25,256.13,224.35z"/>
	<path class="Colour1 fill" d="M402.72,179.18c0.37-2.02-3.17-1.14-2.71-2.92c-1.68,2.47-3.12,1.71-0.78,6.43
		C403.34,183.54,398.84,177.78,402.72,179.18z"/>
</g>
<path class="Colour2 fill" d="M294.42,439.36l0.16,1.45C294.81,439.91,294.83,439.3,294.42,439.36z"/>
<path class="Colour2 fill" d="M356.75,418.35c0.06,0.01,0.1-0.01,0.16,0c0.02-0.23,0-0.45-0.03-0.66L356.75,418.35z"/>
<path class="Colour2 fill" d="M300.17,438.71l0.49-0.21C300.45,438.52,300.3,438.6,300.17,438.71z"/>
<path class="Colour2 fill" d="M37.44,551.46c2.05,0.69,3.55,0.8,4.79,0.6C39.66,550.91,37.24,548.75,37.44,551.46z"/>
<path class="Colour2 fill" d="M304.28,436.67l1.12-1.19C304.83,435.91,304.5,436.3,304.28,436.67z"/>
<path class="Colour2 fill" d="M498.67,410.53c0.41-0.67,0.86-1.23,1.33-1.74c0-9.27,0-18.54,0-27.81c-5.58,4.75-2.45,3.31-5.37,10.37
	l-1.85-2.3c-0.91,2.84-0.68,4.12-4.09,5.86c2.3-3.12-3.47-3.31-1.03-7.25c-9.25-3.5-9.55,9.08-15.47,1.73
	c-1.35,8.26,7.73,2.1,6.24,4.22c2.32,1.89-1.28,6.25-3.87,6.22c-2.47,0.55-6.83-8.05-12.87-6.13c0.62-0.14,0.5-0.7,1.11-0.85
	c-2.82-1.18-3.73,3.81-7.4,1.63c-0.28,4.84-3.7,0.81-2.51,6.53l5.2-2.93c-2.74,2.39-3.79,9.8-9.93,8.16
	c0.08-1.25,1.19-3.18,2.02-4.32c-2.01-1.2-2.61,1.95-4.69,0.73c-1.19-5.72,6.42-3.21,8.56-8.46c-2.33-1.88-5.22,5.93-5.3-0.62
	c-0.19,8.41-6.28,0.79-8.67,7.88l-0.71-3.43c-0.5,0.72-1.38,2.7-2.61,2.96l0.9-4.98c-2.25,4.68-7.38-1.35-9.99,1.61
	c6.67-2.07,2.69,3.59,6.23,5.2c-6.84,6.81-7.31-6.93-15.72-3.2c1.45-0.4,4.78,0.99,3.41,2.92c-1.96-0.17-4.66-0.77-6.26-2.21
	c-5.92,2.5,1.95,3.17-0.05,5.99c-3.28-3.47-2.52,2.54-4.83,4.64l-1.02-3.4c-7.62-0.13,0.23,7.64-6.83,6.84l1.27-5.5l-2.92,2.18
	L400.5,407c-2.72,3.92-4.05,3.5-7.86,3.44c1.51,2.16,1.35,6.31-1.71,7.33c-2.7-1.4,0.23-3.58-4.01-1.81
	c0.37-2.42,0.67-5.41,3.49-2.84c-0.13-1.17,0.35-2.42,0.23-3.58c-2.95-1.66-5.86,1.15-7.44,1.64c0.65-0.05,1.43-0.08,1.95,0.29
	l-4.97,6.58c-1.38-0.98-0.88-2.24-0.39-3.48c-1.18,0.75-1.61,2.57-3.42,3.42c-0.32-2.91-1.28-5.73,1.02-7.82l-5.16,4.85
	c-0.76-1.08-4.08-2.39-3.59-3.64c-3.83-0.64-6.66,7.79-11.74,6.95c-0.07,0.6-0.39,1.25-1.22,1.93c-4.37,0.6-9.07-1.7-12.91,3.55
	l-4.27-4.13c-3.55,2.27,5.64,5.13-0.28,8.9c-4.11,2.93-2.95-3.73-4.96-4.64c-1.54,3.17-4.01,9.42-9.4,6.62
	c1.12-1.34,2.42-0.93,3.62-1.68l-4.01-1.81c2.54-5.66,5.8-4.92,1.65-7.91c2.36,9.72-12.17,4.64-9.81,14.34l-2.7-1.39
	c0.63-0.08,0.56-0.68,1.19-0.76c-5.45-3.38-1.02,7.82-6.71,8.01c-2.06-0.19-3.76-1.21-2.83-2.71l-3.42,3.58
	c-1.04,0.14-1.34-1.04-0.7-1.54l-5.55,2.39l-0.04-0.3c-0.45,1.77-1.8,4.68-2.5,5.96c-2-0.91,0.5-1.25-0.26-2.33l-2.79,3.34
	c-2.14-2.07,0.03-5.32,2.53-5.67c-6.05-8.61-2.17,3.26-10.81-0.27l2.92-2.18c-3.71-4.81-5.69-2.09-10.39-4.39
	c1.4,1.51,9.92,6.36,6.85,9.85c-1.27-0.41-2.77-0.34-4.24,2.18c-1.02-3.4-2.76-1.98-5.18-1.06l-1.15-4.56
	c-2.3,2.09-1.42,4.33-2.4,6.82c-3.12,0.43-4.77-2.88-6.34-5.62c-5,0.69,4.95,4.63-0.47,7.15c-4.49-0.55-6.75,2.11-10.72,6.21
	c-3.24-0.73-0.32-2.9-1.7-3.9l-1.42,4.33c-0.63,0.09-0.76-1.07-0.82-1.66c-1.67,2.01,1.15,4.56-1.77,6.75
	c0.57,5.23-8.85-5.29-11.25,1.55c-1.37-0.99-0.33-2.91-1.15-4.56c-4.48,5.34-3.98,4.09-7.08,10.42l-4.76-1.82
	c3.85,2.55,1.38,7.63-0.86,11.86c1.49,1.34,2.78,2.52,3.56,3.03l-4.39,3.92c-0.83-0.56-0.77-2.26-0.49-4.39
	c-0.24,0.47-0.46,0.94-0.62,1.36c-2.31-1.13-2.13-4.01-1.56-6.92c0.88,0.71,1.78,1.48,2.66,2.24c0.46-3.11,0.75-6.49-0.29-9.06
	c-0.18,0.62-0.69,1.25-1.32,1.71c0.11-0.84,0.13-1.57-0.16-1.97c-0.31-0.42-0.55,0.73-1.05,2.13l-2.64-4.69l0.3,2.08l-7.6-1.19
	c-3.29,6.47-5.27,15.14-12.24,19.45c0.8-4.24-1.36-6.14-2.54-10.54c3.43,4.02,5.3-3.69,9.5-3.91c-2.19,0.12-2.35-2.1-2.04-2.98
	l-5.78,6.27c-0.89-3.62-2.27-2.24-4.54-3.18c3.46,6.66-3.85,6.24-6.06,9.25c-0.87-2.32-0.9-4.94,2.75-5.39
	c-5.4-4.19-2.53,9.76-7.62,6.34c0.83-0.31,1.4-0.08,1.38-1.38c-1.37,2.69-6.71,2.45-6.17,0.04l0.83-0.3
	c-5.89,0.82-17.19,4.99-16.27,11.24c-0.28-0.76-1.38-7.45-1.4-8.76l-4.15,23.15c-0.62-5.41-7.63-16.69-3.8-20.97
	c-1.56-0.34-3.47-0.71-5.77,1.94c1.13,0.46,4.47,6.78,3.35,7.62c-5.12-4.73-3.29-2.37-8.96-6.01c1.7,0.7,2.54,9.23,0.29,9.61
	c-0.02-1.31-2.52-7.92-1.97-9l-3.08,9.52c0.93-1.83-1.73-6.79-3.6-8.68c1.02,1.39-4.71,1.23-5.92,2.44l2.83,1.17
	c-6.45,0.59-2.75,12.93-8.93,14.29c0.25-1.86-1.15-10.62-4.52-10.71c-0.22,4.48-0.51,21.38-4.95,26.08l-1.71-2.02l-3.33,3.85
	c0.77-6.87,4.17-21.84,6.62-28c-2.82-1.17-1.44-2.55-4.8-1.34c-1.85-1.82,0.9-3.85,1.86-4.27l-8.37,0.93
	c1.75,4.64-4.69,6.54-3.23,10.41l7.2-7.46c1.74,4.63-1.05,14.93-6.94,15.75c-1.99-1.47-1.4-8.76-1.98-10.3
	c-0.25,1.85-4.44,4.69-5.3,3.69l1.65-3.24c-3.66-0.86-3.28,7.79-8.38,4.37c-1.39,0.08-5.68-4.96-5.08-2.09
	c3.71,4.79,9.03,21.41,8.81,25.89c-0.56-0.23-8.35-3.16-10.62-5.4c-3.39-3.61,0.25-11.06-2.64-14.17c0.3,1.32-0.41,3.26-0.76,3.92
	c-1.69-0.7-0.61-4.18-3.41-2.72c0.91,4.95-6.16,1.37-0.21,4.48c-2.5,2.23-3.38-0.08-6.73,1.13c2,2.79,0.04,11.48-2.47,13.7
	c-0.19-1.27-1.31-2.67-1.84-3.31c-6.09,1.32-9.92,0.07-15.49,1.66c-0.85-1.01-3.95-1.64-3.41-4.04c-0.55,1.09-0.81,2.93-2.49,3.55
	c-4.54-3.18,3.63-1.77-0.36-6.02c0.6,2.86-3.3,5.16-5.23,7.62c2.02,4.1,5.88-0.83,7.81-3.29c1.76,5.95-0.67,13.43-5.67,17.89
	c-4.18,2.83-3.13-3.26-3.68-2.18c-8.97,1.51-4.34,12.56-12.79,10.38c-3.97-2.95-2.34-7.51-3.78-10.06c3.34-2.54,6.48,0.71,8.98-0.19
	l-3.66-0.87c0.83-1.61,3.06-3.31,4.75-2.61c-2.93-2.34-11.89,2.09-19.18,2.57v15.09c1.09-0.78,2.1-1.5,2.53-2.36
	c1.96,0.16-0.26,1.85,1.15,3.09l1.65-3.24c1.17,3.1,6.23,3.89,2.62,6.96l3.78-0.96c2.72,1.13,5.96,0.95,7.44-0.94
	c1.97,0.17,3.43-4.82,2.62-1.88l5.29-3.69l0.29,0.78c5.9-1.3,10.38-8.75,18.67-4.97c1.71-1.37,3.44-2.94,6.97-3l1.44,2.55
	c2.22-1.69,8.32,0.53,8.56-2.64c4.86,6.58,12.62-1.96,17.4-1.94l-0.88-3.63c3.09-0.69,5.69-2.56,9.03-5.1l-1.16-3.09
	c2.48-3.55,8.99-0.2,14.03-2.03c0.01,1.31-1.39,1.38-2.52,0.92c8.22,5.34,11.4-8.99,18.48-5.42c1.05-1.56,2.17-1.46,3.37-0.95
	c-0.13,0.05-0.22,0.14-0.29,0.27c0.15,0,0.37-0.06,0.58-0.13c0.77,0.36,1.59,0.81,2.42,1.12c-0.8-0.6-1.55-1.07-2.11-1.22
	c1.05-0.38,2.55-1.25,3.91-2.51l1.67,3.2c0.12-0.08,0.22-0.11,0.34-0.2c1.93,0.8,0.78-1.98-0.8-4.29c0.64-0.79,1.17-1.68,1.5-2.67
	c2.87,5.11,3.62-3.07,7.06,2.27c0.22-2.93,6.32-4.29,6.5-9.43c1.95,0.16,3.9,0.31,4.98-1.83l2.02,4.1l2.16-6.94
	c3.12,1.94,4.54,3.19,3.18,7.19c4.13-6.77,4-3.27,7.3-9.74l0.59,2.86c1.68-0.61,3.32-5.15,5.03-3.15
	c5.38,4.18,19.15-4.83,30.42-2.78c-4.32-7.66,5.65,2.34,4.17-4.14c1.14,1.77,2.83,2.47,1.74,4.63c4.45-3.38,8.44,0.87,10.32-5.52
	c1.15,1.78-0.24,3.17,0.61,4.17c0.28-0.54,1.1-2.16,1.96-1.15c0.85,1.01-0.26,1.85-0.8,2.93c5.03-1.83,3.79-7.98,2.51-13.71
	c3.38,1.9,4.56,1.14,5.35-3.1c1.44,1.57,3.51,3.06,0.53,4.65c1.87-0.26,11.73-0.52,10.59-5.08c0.9,0.98,2.6-0.4,2.92-1.06
	c4.1-0.91,4.57-0.61,8.39-2.19l-1.31-0.42c-0.04-5.9,2.92-2.18,5.91-3.76l0.07,0.58c8.44,1.78,2.6-2.81,11.1-0.44l-1.38-3.27
	c-1.46-7.47,7.63,2.42,10.99-1.59l-2.07-1.49c1.55-3.16,9.27,8.02,11.83,8.26c0.68,0.49-0.49,1.25-1.05,1.92
	c7.25,2.53-0.52-4.66,3.64-7c1.53,2.15,0.72,6.39,3.86,5.95c2.07,1.5,6.45-10.32,11.89-6.94c-1.44-1.58-2.88-3.15-1.21-5.15
	c2.99-1.59,10.64,4.44,11.81-2.21c0.55,0.38,0.85,0.82,1,1.27c1.99-2.21,7.17-4.81,7.71-8.39c5.67,11.03,13.45-10.12,16.55,0.67
	l7.31-2.78l0.13,1.16c4.99-0.69,5.92-3.77,6.84-6.85c1.32,0.41,0.81,1.65,0.88,2.24c7.62,0.12,8.18-0.54,12.46-7.63l1.63,3.32
	c0.99-2.5,11.71,2.52,17.36-3.57c0.05,0.42,0.11,1.14-0.29,1.79c6.5-6.37,21.3,4.28,20.39-9.29l4.17-4.63
	c-6.87,0.94-0.64-5.81-3.97-7.13c2.37-1.51,7.82,1.88,4.83,3.46l-0.68-0.49c0.78,6.98,8.87-0.05,10.01,4.52
	c12.85-4.13,26.55-4.16,38.76-7.44l-2.91-4.75l4.32-0.95c1.46,0.88,2.67,3.6-0.41,4.27c2.44,2.46,4.34-3.94,4.1-5.08
	c6.52,0.35-0.54,6.7,1.3,6.29l2.35-1.11l-0.73-0.44c1.38-2.69,0.9-4.98,4.6-5.79c2.6,0.36,2.11,2.84,3.07,2.77
	c0.1,0.37,0.46,0.45,1.43-0.26l5.46-1.13l-3.33-3.45c1.77-2.7,5.07-1.26,1.26-5.15C480.87,418.31,495.81,408.97,498.67,410.53z
	 M14.03,558.01c0.02-0.07,0.04-0.12,0.05-0.19C16.54,558.53,15.65,558.22,14.03,558.01z M141.51,512.2c0.01-0.4,0-0.83-0.07-1.28
	C141.72,511.67,142.27,511.91,141.51,512.2z M209.86,474.73c0.36-1.33,1.59-1.08,3.17-0.15
	C212.24,475.12,211.22,475.28,209.86,474.73z M280.25,445.15c0.72-0.99,1.92-3.73,3.19-1.92
	C283.53,447.44,282.17,445.81,280.25,445.15z M470.46,420.85l-1.1-0.65C470.96,418.67,470.7,419.71,470.46,420.85z"/>
<path class="Colour2 fill" d="M0.92,564.87C-0.29,565.44,0.81,565.26,0.92,564.87L0.92,564.87z"/>
<path class="Colour2 fill" d="M15.42,530.95l-1.09,2.16c1.12,0.47,1.42,1.24,2.27,2.25L15.42,530.95z"/>
<path class="Colour2 fill" d="M0,564.4c0.16,0.02,0.32,0.06,0.49,0.07c-0.12-0.06-0.29-0.12-0.49-0.17V564.4z"/>
<path class="Colour2 fill" d="M4.04,564.11c0.05,3.94,4.8-6.2,0.36-2.81C3.27,560.82,4.9,565.12,4.04,564.11z"/>
<path class="Colour2 fill" d="M0.49,564.47c0.31,0.13,0.46,0.28,0.43,0.4c0.36-0.16,0.87-0.37,1.72-0.68C1.93,564.44,1.21,564.5,0.49,564.47z
	"/>
<path class="Colour2 fill" d="M219.69,467.34c-0.79-0.52-1.82-0.93-3.18-1.21L219.69,467.34z"/>
<path class="Colour2 fill" d="M123.44,527.08c2.74,2.03,6.13,5.42,4.97,2.35l-1.5-2.88C125.69,527.5,124.53,527.47,123.44,527.08z"/>
<path class="Colour2 fill" d="M147.19,485.58c-0.05,0.05-0.06,0.14-0.1,0.19c0.07,0.01,0.16,0.03,0.22,0.05L147.19,485.58z"/>
<path class="Colour2 fill" d="M23.52,525.81c0.01,1.31-3.06,3.3,0.32,3.4C23.82,527.9,27.7,524.29,23.52,525.81z"/>
<path class="Colour2 fill" d="M47.14,550.6c-0.39-0.22-0.73-0.29-1.11-0.46c-1.09,0.88-2.23,1.66-3.8,1.91
	C44.13,552.92,46.1,553.22,47.14,550.6z"/>
<path class="Colour2 fill" d="M151.08,481.96c-0.83,4.38-2.07,4.24-3.78,3.86l4.1,8.38L151.08,481.96z"/>
<path class="Colour2 fill" d="M218.83,479.21c-0.27-0.24-0.56-0.5-0.85-0.76c-0.17,1.19-0.34,2.29-0.47,3.32
	C217.9,480.97,218.35,480.11,218.83,479.21z"/>
<path class="Colour2 fill" d="M216.75,467.65c0.43,0.5,0.69,1.11,0.94,1.73C217.89,468.71,217.7,468.04,216.75,467.65z"/>
<path class="Colour2 fill" d="M54.21,527.84c0.04-0.01,0.07-0.01,0.11-0.02C53.77,527.33,53.87,527.42,54.21,527.84z"/>
<path class="Colour2 fill" d="M418.19,399.61c-0.14,0.04-0.28,0.09-0.38,0.17C417.94,399.71,418.06,399.66,418.19,399.61z"/>
<path class="Colour2 fill" d="M450.18,401.93c0.11,0.07,0.23,0.11,0.36,0.21C451.44,400.49,450.94,400.86,450.18,401.93z"/>
<path class="Colour2 fill" d="M356.88,417.69l0.67-3.58C355.08,414.85,356.63,416.1,356.88,417.69z"/>
<path class="Colour2 fill" d="M222.15,273c-0.6,0.79-0.74,1.53-0.53,2.24C222.25,274.49,222.52,273.75,222.15,273z"/>
<path class="Colour2 fill" d="M353.26,112.67c0.05-0.03,0.08-0.1,0.12-0.14c-0.05-0.03-0.11-0.07-0.15-0.1L353.26,112.67z"/>
<path class="Colour2 fill" d="M391.71,225.63c-2.53-2.27-5.67-6.01-4.57-2.75l1.41,3.08C389.65,225.05,390.71,225.15,391.71,225.63z"/>
<path class="Colour2 fill" d="M227.96,82.19c-0.69,0.51-0.98,1.1-0.98,1.75C227.69,83.45,228.09,82.9,227.96,82.19z"/>
<path class="Colour2 fill" d="M180,324.65l-0.56,3.67C181.68,327.7,180.25,326.31,180,324.65z"/>
<path class="Colour2 fill" d="M305.24,269.38c0.25,0.27,0.52,0.56,0.79,0.84c0.14-1.22,0.28-2.36,0.39-3.41
	C306.07,267.61,305.66,268.48,305.24,269.38z"/>
<path class="Colour2 fill" d="M95,335.22c-0.1-0.08-0.21-0.12-0.33-0.24C93.87,336.63,94.32,336.28,95,335.22z"/>
<path class="Colour2 fill" d="M124.25,339.61c0.13-0.03,0.25-0.08,0.34-0.15C124.47,339.52,124.36,339.56,124.25,339.61z"/>
<path class="Colour2 fill" d="M10.4,366.91l0.27,0.05C10.59,366.92,10.5,366.91,10.4,366.91z"/>
<path class="Colour2 fill" d="M2.69,369.14c-0.17-0.11-0.34-0.14-0.5-0.28C2.26,369.31,2.45,369.28,2.69,369.14z"/>
<path class="Colour2 fill" d="M30.2,325.34c-0.09-0.14-0.19-0.28-0.32-0.43C29.98,325.06,30.09,325.2,30.2,325.34z"/>
<path class="Colour2 fill" d="M411.77,222.64c-0.02-1.36,1.25-1.34,2.29-0.8c-7.58-6.05-10.29,8.62-16.81,4.48
	c-0.94,1.55-1.96,1.38-3.06,0.78c0.12-0.04,0.2-0.13,0.27-0.26c-0.14-0.01-0.33,0.04-0.53,0.1c-0.71-0.43-1.46-0.94-2.22-1.31
	c0.74,0.67,1.43,1.2,1.95,1.4c-0.95,0.33-2.31,1.14-3.53,2.36l-1.57-3.42c-0.1,0.08-0.2,0.1-0.31,0.19c-1.77-0.94-0.69,2,0.79,4.5
	c-0.57,0.78-1.05,1.67-1.33,2.67c-2.69-5.48-3.27,2.96-6.48-2.79c-0.16,3.03-5.71,4.06-5.81,9.38c-1.79-0.29-3.57-0.56-4.53,1.59
	l-1.9-4.38l-1.88,7.07c-2.87-2.21-4.19-3.59-3.01-7.66c-3.68,6.76-3.61,3.14-6.54,9.65l-0.57-3c-1.53,0.53-2.96,5.14-4.55,2.95
	c-4.97-4.67-17.42,3.82-27.74,1c4.05,8.22-5.19-2.78-3.75,4.04c-1.07-1.91-2.62-2.74-1.65-4.91c-4.02,3.23-7.72-1.43-9.35,5.09
	c-1.07-1.92,0.17-3.27-0.61-4.36c-0.25,0.54-0.97,2.17-1.77,1.07c-0.79-1.1,0.21-1.9,0.69-2.99c-4.56,1.59-3.35,8.04-2.11,14.07
	c-3.11-2.18-4.18-1.47-4.85,2.88c-1.34-1.72-3.25-3.39-0.54-4.86c-1.7,0.15-10.7-0.19-9.6,4.61c-0.83-1.07-2.37,0.25-2.65,0.92
	c-3.73,0.69-4.16,0.35-7.63,1.76l1.2,0.51c0.11,6.12-2.64,2.08-5.35,3.54l-0.07-0.61c-7.73-2.37-2.33,2.75-10.13-0.23l1.31,3.47
	c1.44,7.84-7-2.98-10.02,0.97l1.91,1.67c-1.37,3.18-8.58-8.9-10.92-9.3c-0.63-0.55,0.43-1.26,0.93-1.93
	c-6.66-3.07,0.54,4.87-3.23,7.04c-1.42-2.32-0.74-6.67-3.6-6.41c-1.91-1.68-5.75,10.31-10.77,6.47c1.34,1.73,2.67,3.45,1.18,5.41
	c-2.71,1.47-9.78-5.26-10.76,1.56c-0.51-0.43-0.78-0.9-0.93-1.38c-1.79,2.17-6.48,4.55-6.93,8.23c-5.33-11.79-12.14,9.67-15.13-1.72
	l-6.64,2.43l-0.13-1.21c-4.55,0.41-5.36,3.55-6.16,6.68c-1.21-0.51-0.76-1.76-0.84-2.38c-6.96-0.6-7.47,0.05-11.28,7.14l-1.54-3.54
	c-0.87,2.53-10.72-3.33-15.81,2.63c-0.05-0.43-0.11-1.18,0.24-1.84c-5.85,6.2-19.51-5.76-18.49,8.37l-3.74,4.55
	c6.26-0.55,0.66,6.07,3.72,7.64c-2.14,1.42-7.16-2.43-4.46-3.89l0.63,0.55c-0.81-7.29-8.1-0.5-9.21-5.31
	c-11.68,3.49-24.19,2.68-35.3,5.32l2.72,5.11l-3.93,0.71c-1.35-1-2.49-3.9,0.31-4.41c-2.27-2.7-3.91,3.81-3.68,5.02
	c-5.96-0.77,0.41-6.91-1.28-6.6l-2.13,1l0.67,0.5c-1.22,2.71-0.75,5.11-4.12,5.72c-2.38-0.53-1.97-3.07-2.84-3.06
	c-0.1-0.39-0.42-0.49-1.3,0.18l-4.97,0.83l3.08,3.78c-1.58,2.69-4.62,0.99-1.08,5.27c-5.28-6.63-18.8,2.13-21.43,0.34
	c-2.17,3.94-5.16,4.68-8.94,5.28c1.15,0.65,2.99,5.34-0.34,5.59c-1.46-10.04-6.71-3.13-11.12-8.84c2.36,3.68-8.83,3.36-3.63,8.95
	c-2.86-0.1-1.16-3.69-3.79-5.5c-5.27,5.55-14.56,1.2-22,4.58c0.23,1.34,2.07,3,0.91,5.39L0,337.19v26.48
	c2.07-0.04,3.78,2.45,4.35,4.29c-0.53-0.1-1.2,0.88-1.67,1.18c2.99,1.79,6.37-2.16,7.71-2.22l-2.95-0.55
	c7.56-4.23,18.23-3.98,24.87-10.56l-1.04-1.51c5.16-4.68,5.28,0.55,11.47-2.63l-0.13,0.46c0.87-2.01,2.4-3.31,4.25-3.61
	c-1.14,2.39,4.13,2.95,2.53,5.69c5.61-5.04,2.52-3.45,5.15-10.78l1.72,2.5c0.79-2.89,0.57-4.24,3.66-5.83
	c-2.06,3.09,3.21,3.65,1.04,7.59c8.49,4.2,8.6-8.83,14.11-0.84c1.12-8.49-7.09-2.65-5.75-4.76c-2.15-2.1,1.09-6.41,3.45-6.22
	c2.24-0.42,6.34,8.78,11.84,7.15c-0.56,0.11-0.44,0.7-1,0.81c2.59,1.4,3.35-3.72,6.74-1.23c0.19-5,3.37-0.62,2.21-6.62l-4.71,2.72
	c2.47-2.31,3.32-9.93,8.95-7.85c-0.05,1.29-1.05,3.23-1.78,4.36c1.85,1.37,2.36-1.87,4.27-0.46c1.16,6.01-5.82,2.93-7.71,8.25
	c2.15,2.09,4.69-5.83,4.84,0.97c0.06-8.72,5.72-0.43,7.82-7.63l0.69,3.6c0.44-0.71,1.23-2.71,2.34-2.91l-0.75,5.11
	c1.99-4.72,6.76,1.86,9.1-1.05c-6.06,1.74-2.5-3.89-5.76-5.78c6.16-6.64,6.77,7.64,14.4,4.3c-1.32,0.32-4.38-1.32-3.15-3.24
	c1.79,0.3,4.27,1.09,5.75,2.68c5.38-2.22-1.82-3.41-0.03-6.21c3.04,3.8,2.27-2.48,4.34-4.51l0.97,3.59
	c6.96,0.61-0.31-7.94,6.15-6.68l-1.09,5.63l2.64-2.08l0.47,4.25c2.43-3.9,3.65-3.38,7.13-3.09c-1.41-2.33-1.32-6.63,1.46-7.49
	c2.49,1.62-0.16,3.7,3.69,2.12c-0.3,2.49-0.54,5.57-3.15,2.73c0.13,1.22-0.29,2.49-0.16,3.7c2.72,1.9,5.34-0.83,6.77-1.24
	c-0.59,0.01-1.31,0-1.78-0.42l4.45-6.52c1.27,1.11,0.84,2.38,0.4,3.63c1.07-0.7,1.44-2.57,3.08-3.34c0.33,3.04,1.24,6.02-0.83,8.05
	l4.64-4.71c0.71,1.17,3.76,2.73,3.33,4c3.51,0.9,5.98-7.66,10.63-6.48c0.06-0.62,0.34-1.28,1.09-1.92c3.98-0.35,8.3,2.33,11.74-2.88
	l3.95,4.55c3.21-2.13-5.22-5.67,0.13-9.21c3.72-2.78,2.74,4.05,4.59,5.12c1.37-3.19,3.53-9.52,8.49-6.28c-1,1.32-2.2,0.81-3.28,1.52
	l3.69,2.12c-2.24,5.72-5.23,4.75-1.4,8.1c-2.28-10.22,11.05-4.06,8.76-14.27l2.49,1.61c-0.58,0.05-0.51,0.67-1.08,0.71
	c5.03,3.85,0.83-8.05,6.02-7.9c1.88,0.33,3.45,1.48,2.62,2.99l3.07-3.5c0.95-0.08,1.23,1.16,0.66,1.64l5.04-2.14l0.04,0.31
	c0.39-1.81,1.58-4.75,2.2-6.03c1.83,1.06-0.44,1.27,0.27,2.43l2.5-3.29c1.98,2.28,0.05,5.52-2.23,5.73
	c5.64,9.31,1.94-3.24,9.87,0.95l-2.64,2.08c3.45,5.22,5.22,2.52,9.54,5.2c-1.3-1.66-9.15-7.21-6.39-10.64
	c1.17,0.51,2.54,0.53,3.84-2c0.98,3.59,2.54,2.23,4.75,1.42l1.12,4.8c2.07-2.03,1.24-4.4,2.1-6.93c2.85-0.26,4.39,3.28,5.86,6.22
	c4.56-0.41-4.58-5.11,0.33-7.39c4.11,0.85,6.14-1.77,9.71-5.78c2.97,0.96,0.33,3.03,1.61,4.15l1.24-4.4
	c0.57-0.06,0.71,1.16,0.77,1.77c1.5-1.98-1.11-4.8,1.52-6.89c-0.6-5.46,8.16,6.03,10.26-0.91c1.27,1.11,0.34,3.04,1.11,4.81
	c4.02-5.26,3.58-4,6.33-10.37l4.37,2.18c-3.55-2.88-1.36-8,0.62-12.25c-1.38-1.48-2.57-2.78-3.29-3.36l3.96-3.8
	c0.77,0.63,0.74,2.39,0.51,4.58c0.21-0.48,0.41-0.95,0.55-1.37c2.13,1.32,2,4.29,1.52,7.27c-0.81-0.79-1.64-1.64-2.46-2.49
	c-0.37,3.2-0.59,6.69,0.39,9.41c0.16-0.63,0.61-1.26,1.18-1.69c-0.09,0.86-0.09,1.62,0.17,2.06c0.29,0.46,0.49-0.72,0.93-2.14
	l2.47,5.03l-0.31-2.18l6.96,1.7c2.92-6.5,4.6-15.38,10.92-19.42c-0.67,4.35,1.33,6.46,2.46,11.09c-3.18-4.38-4.79,3.5-8.63,3.46
	c2,0.01,2.18,2.32,1.91,3.22l5.19-6.15c0.86,3.81,2.11,2.47,4.19,3.58c-3.25-7.12,3.43-6.24,5.41-9.22
	c0.83,2.46,0.89,5.18-2.44,5.43c4.99,4.68,2.18-9.96,6.88-6.11c-0.76,0.27-1.27-0.01-1.24,1.35c1.21-2.71,6.09-2.12,5.64,0.34
	l-0.76,0.26c5.37-0.49,15.63-4.12,14.71-10.65c0.27,0.8,1.36,7.81,1.39,9.18l3.47-23.75c0.64,5.65,7.19,17.78,3.76,21.99
	c1.43,0.45,3.18,0.95,5.24-1.66c-1.04-0.55-4.17-7.31-3.17-8.11c4.74,5.22,3.03,2.66,8.26,6.79c-1.56-0.83-2.45-9.73-0.4-9.99
	c0.03,1.36,2.41,8.38,1.92,9.46l2.68-9.68c-0.82,1.84,1.67,7.15,3.4,9.23c-0.95-1.5,4.29-0.98,5.38-2.16l-2.6-1.38
	c5.88-0.22,2.34-13.24,7.96-14.27c-0.2,1.91,1.19,11.08,4.27,11.39c0.14-4.63,0.18-22.14,4.17-26.75l1.59,2.2l2.99-3.79
	c-0.61,7.07-3.51,22.4-5.67,28.63c2.59,1.39,1.35,2.74,4.4,1.68c1.71,2-0.77,3.94-1.64,4.32l7.63-0.45c-1.66-4.92,4.2-6.5,2.81-10.6
	l-6.48,7.29c-1.65-4.91,0.76-15.42,6.12-15.91c1.83,1.64,1.4,9.17,1.95,10.81c0.21-1.9,3.99-4.59,4.79-3.49l-1.46,3.26
	c3.36,1.12,2.89-7.88,7.59-4.02c1.27,0,5.25,5.5,4.67,2.48c-1.44-2.16-3.15-6.46-4.66-11.08c-3.58-5.95-6.78-12.13-9.61-18.49
	C420,223.6,415.43,221.37,411.77,222.64z M76.22,314.34l1.01,0.74C75.79,316.57,76.02,315.51,76.22,314.34z M246.72,302.7
	c-0.14-4.37,1.13-2.6,2.89-1.8C248.96,301.88,247.9,304.66,246.72,302.7z M310.59,274.53c0.72-0.51,1.65-0.61,2.89,0.04
	C313.18,275.93,312.05,275.6,310.59,274.53z M375.41,239.94c-0.01,0.42,0.01,0.86,0.08,1.33
	C375.22,240.48,374.72,240.2,375.41,239.94z"/>
<path class="Colour2 fill" d="M180.74,114.73c-0.04-0.03-0.08-0.02-0.12-0.04c-0.07,0.19-0.11,0.39-0.13,0.58L180.74,114.73z"/>
<path class="Colour2 fill" d="M224.29,112.93l-1.12,0.73C223.7,113.44,224.04,113.19,224.29,112.93z"/>
<path class="Colour2 fill" d="M349.5,114.77c1.65-3.59,2.54-3.13,3.73-2.34l-1.09-8.39L349.5,114.77z"/>
<path class="Colour2 fill" d="M130.72,114.45c-0.11,0.02-0.21,0.03-0.32,0.04C130.51,114.5,130.62,114.49,130.72,114.45z"/>
<path class="Colour2 fill" d="M107.02,103.87c-0.07-0.09-0.15-0.15-0.22-0.28C105.74,104.78,106.2,104.6,107.02,103.87z"/>
<path class="Colour2 fill" d="M180.5,115.27l-1.34,2.93C181.18,118.22,180.31,116.72,180.5,115.27z"/>
<path class="Colour2 fill" d="M296.85,110.93l-2.09-1.91C295.22,109.68,295.89,110.32,296.85,110.93z"/>
<path class="Colour2 fill" d="M227.84,112.26l-0.42,0.05C227.59,112.35,227.72,112.32,227.84,112.26z"/>
<path class="Colour2 fill" d="M297.02,109.54c-0.2-0.55-0.25-1.15-0.29-1.76C296.42,108.32,296.41,108.95,297.02,109.54z"/>
<path class="Colour2 fill" d="M232.3,113.24l0.22-1.3C232.13,112.65,231.97,113.18,232.3,113.24z"/>
<path class="Colour2 fill" d="M273.19,440l-2.76-1.98l0.13,1.16C271.31,440.26,271.93,440.17,273.19,440z"/>
<path class="Colour2 fill" d="M333.81,417.39c-0.95,0.14-1.83,0.95-2.76,1.4C333.23,418.59,335.43,421.86,333.81,417.39z"/>
<polygon class="Colour2 fill" points="224.49,309.59 226.1,313.73 226.67,313.69 "/>
<path class="Colour2 fill" d="M28.15,536.87c-0.56,1.08-1.67,1.92-0.81,2.94l3.07-2C30.39,536.49,29.26,536.02,28.15,536.87z"/>
<path class="Colour2 fill" d="M331.06,418.79c-0.29,0.03-0.58,0.11-0.86,0.29C330.49,419.03,330.78,418.92,331.06,418.79z"/>
<polygon class="Colour2 fill" points="306.19,431.24 305.57,431.32 307.9,435.13 "/>
<path class="Colour2 fill" d="M256.13,306.68l2.54,2.23l-0.13-1.21C257.84,306.54,257.27,306.59,256.13,306.68z"/>
<path class="Colour2 fill" d="M203.56,325.11c0.26-0.01,0.53-0.08,0.78-0.25C204.08,324.89,203.82,324.98,203.56,325.11z"/>
<path class="Colour2 fill" d="M114.81,495.81c-0.3,0.4-0.61,0.86-0.91,1.45C114.47,496.61,114.7,496.17,114.81,495.81z"/>
<polygon class="Colour2 fill" points="75.3,520.17 77.53,527.32 76.14,519.86 "/>
<path class="Colour2 fill" d="M111.88,493.17c-0.44,1.97,3.46,0.89,2.93,2.64c1.88-2.5,3.44-1.86,0.95-6.26
	C111.27,489,116.11,494.27,111.88,493.17z"/>
<path class="Colour2 fill" d="M201.07,326.39c0.87-0.08,1.66-0.87,2.5-1.28C201.58,325.18,199.53,321.65,201.07,326.39z"/>
<path class="Colour2 fill" d="M307.29,281.49c-0.4-0.54-0.64-1.19-0.88-1.86C306.24,280.33,306.42,281.03,307.29,281.49z"/>
<path class="Colour2 fill" d="M236.75,306.04l-0.17-1.51C236.38,305.44,236.37,306.07,236.75,306.04z"/>
<path class="Colour2 fill" d="M304.62,281.64c0.73,0.59,1.67,1.08,2.92,1.45L304.62,281.64z"/>
<path class="Colour2 fill" d="M227.78,308.22l-1.01,1.17C227.28,308.97,227.58,308.59,227.78,308.22z"/>
<path class="Colour2 fill" d="M180.1,323.97c-0.05-0.02-0.09,0.01-0.14,0c-0.02,0.23,0,0.46,0.04,0.68L180.1,323.97z"/>
<path class="Colour2 fill" d="M231.51,306.36l-0.45,0.19C231.25,306.53,231.39,306.46,231.51,306.36z"/>
<path class="Colour2 fill" d="M399.23,265.03c4.11,0.85-0.39-4.91,3.49-3.52c0.37-2.02-3.17-1.14-2.71-2.92
	C398.33,261.07,396.9,260.31,399.23,265.03z"/>
<path class="Colour2 fill" d="M367.08,270.72c0.7-4.49,1.83-4.27,3.4-3.77l-3.86-8.95L367.08,270.72z"/>
<path class="Colour2 fill" d="M400.01,258.6c0.27-0.39,0.55-0.85,0.81-1.45C400.31,257.79,400.11,258.23,400.01,258.6z"/>
<path class="Colour2 fill" d="M370.58,267.2c0.05-0.05,0.05-0.14,0.09-0.19c-0.06-0.02-0.14-0.04-0.2-0.07L370.58,267.2z"/>
<path class="Colour2 fill" d="M309.94,470.28c0.67-0.8,0.84-1.53,0.61-2.2C309.85,468.85,309.54,469.58,309.94,470.28z"/>
<path class="Colour2 fill" d="M441.09,628.72c0.04-0.05,0.04-0.13,0.07-0.18c-0.06-0.01-0.14-0.02-0.19-0.04L441.09,628.72z"/>
<path class="Colour2 fill" d="M438.03,632.19c0.35-3.99,1.43-3.93,2.94-3.68l-4.22-7.35L438.03,632.19z"/>
<path class="Colour2 fill" d="M382.63,648.48c-0.41-0.43-0.69-0.97-0.95-1.52C381.56,647.59,381.78,648.18,382.63,648.48z"/>
<path class="Colour2 fill" d="M380.12,648.92c0.72,0.43,1.64,0.75,2.84,0.93L380.12,648.92z"/>
<path class="Colour2 fill" d="M302.12,650.92c-0.51,0.75-0.6,1.42-0.35,2.02C302.31,652.2,302.52,651.53,302.12,650.92z"/>
<path class="Colour2 fill" d="M458.14,590.06c-2.52-1.69-5.72-4.58-4.47-1.87l1.53,2.52C456.17,589.79,457.17,589.76,458.14,590.06z"/>
<path class="Colour2 fill" d="M236.65,702.47c2.44,1.13,0.09,3.24,3.6,1.42c-0.03,0.53-0.05,1.09-0.11,1.61h3.41l2.33-3.85
	c1.27,0.82,0.94,1.98,0.62,3.12c0.95-0.73,1.18-2.4,2.66-3.26c0.27,1.38,0.69,2.73,0.76,4h1.72l1.33-1.53
	c0.38,0.49,1.36,0.99,2.18,1.53h4.06c1.89-2.14,3.67-5.64,6.7-5.3c0.01-0.55,0.23-1.15,0.89-1.8c3.71-0.77,7.95,1.07,10.83-3.87
	l4.02,3.51c2.87-2.23-5.28-4.34-0.49-8.04c3.3-2.85,2.85,3.21,4.65,3.93c1.07-2.94,2.68-8.71,7.55-6.46
	c-0.85,1.27-2.01,0.96-2.98,1.7l3.6,1.42c-1.72,5.24-4.59,4.74-0.78,7.22c-2.83-8.64,10.1-4.82,7.27-13.45l2.44,1.12
	c-0.54,0.11-0.43,0.64-0.96,0.74c4.98,2.77,0.24-7.11,5.13-7.58c1.79,0.07,3.33,0.89,2.66,2.3l2.65-3.4
	c0.88-0.18,1.24,0.87,0.73,1.35l4.59-2.45l0.06,0.27c0.25-1.62,1.17-4.32,1.66-5.51c1.79,0.71-0.33,1.15,0.41,2.09l2.13-3.16
	c2.02,1.76,0.41,4.8-1.72,5.25c5.92,7.46,1.6-3.05,9.33-0.31l-2.34,2.12c3.59,4.15,5.07,1.59,9.31,3.43
	c-1.33-1.29-9.07-5.23-6.72-8.54c1.13,0.31,2.42,0.17,3.47-2.19c1.16,3.02,2.54,1.65,4.55,0.69l1.37,4.06
	c1.81-2.01,0.87-3.98,1.51-6.28c2.65-0.55,4.34,2.35,5.92,4.74c4.25-0.88-4.65-3.92-0.18-6.47c3.91,0.27,5.64-2.25,8.73-6.16
	c2.86,0.5,0.52,2.6,1.79,3.43l0.87-3.98c0.54-0.12,0.74,0.93,0.85,1.45c1.28-1.9-1.37-4.05,0.97-6.18
	c-0.92-4.69,8.06,4.31,9.57-1.98c1.27,0.82,0.52,2.61,1.36,4.06c3.42-5.05,3.09-3.9,5.25-9.76l4.25,1.4
	c-3.53-2.1-1.81-6.81-0.23-10.75c-1.4-1.13-2.6-2.13-3.32-2.55l3.46-3.76c0.76,0.46,0.85,2,0.78,3.94c0.17-0.44,0.32-0.87,0.42-1.26
	c2.09,0.9,2.17,3.51,1.91,6.16c-0.82-0.59-1.65-1.24-2.47-1.89c-0.14,2.83-0.11,5.9,0.99,8.16c0.1-0.57,0.49-1.17,0.99-1.61
	c-0.03,0.76,0.02,1.42,0.3,1.77c0.3,0.37,0.42-0.69,0.73-1.97l2.66,4.09l-0.43-1.86l6.65,0.68c2.31-6.01,3.29-13.93,8.95-18.18
	c-0.34,3.87,1.68,5.47,3.06,9.38c-3.28-3.45-4.26,3.6-7.87,4.02c1.88-0.22,2.2,1.77,2.01,2.58l4.46-5.95
	c1.06,3.22,2.14,1.91,4.17,2.64c-3.52-5.83,2.8-5.83,4.47-8.65c0.94,2.05,1.18,4.41-1.93,5.01c5,3.5,1.38-8.93,6.05-6.12
	c-0.69,0.32-1.2,0.14-1.08,1.32c0.96-2.5,5.58-2.55,5.32-0.36l-0.69,0.31c5-1.04,14.4-5.39,13.1-10.98c0.31,0.67,1.8,6.65,1.92,7.83
	l1.67-21.1c0.98,4.85,7.94,14.66,5,18.73c1.37,0.23,3.05,0.46,4.81-2.05c-1.01-0.36-4.41-5.89-3.52-6.7c4.8,4,3.03,1.97,8.21,4.96
	c-1.52-0.55-2.95-8.2-1.04-8.66c0.12,1.18,2.82,7.02,2.44,8.02l1.87-8.75c-0.65,1.69,2.05,6.04,3.81,7.65
	c-0.99-1.2,3.96-1.35,4.9-2.5l-2.53-0.91c5.51-0.87,1.31-11.8,6.52-13.35c-0.06,1.69,1.86,9.52,4.77,9.43
	c-0.18-4.05-1.31-19.32,2.13-23.78l1.64,1.73l2.55-3.65c-0.1,6.23-1.8,19.92-3.41,25.6c2.53,0.91,1.45,2.23,4.24,0.96
	c1.74,1.55-0.45,3.52-1.25,3.95l7.14-1.27c-1.89-4.1,3.51-6.15,1.93-9.56l-5.59,7.1c-1.88-4.09-0.32-13.52,4.68-14.57
	c1.83,1.22,1.93,7.83,2.55,9.19c0.07-1.68,3.44-4.46,4.26-3.6l-1.15,3.01c3.23,0.59,2.19-7.2,6.86-4.38
	c0.42-0.05,1.21,0.46,2.02,1.03c0-1.09,0-2.19,0-3.28c-3.33-6.04-7.05-15.83-7.18-19.02c0.37,0.13,4.31,1.41,7.18,2.83
	c0-6.49,0-12.97,0-19.46c-2.27,1.3-4.44,2.93-6.25,3.03l1.06,3.23c-2.6,0.78-4.7,2.6-7.36,5.07l1.25,2.73
	c-1.84,3.33-7.73,0.64-11.92,2.55c-0.11-1.18,1.08-1.31,2.1-0.96c-7.52-4.4-9.08,8.7-15.48,5.85c-0.77,1.46-1.75,1.43-2.82,1.03
	c0.11-0.05,0.18-0.14,0.23-0.26c-0.13,0.01-0.31,0.07-0.49,0.15c-0.69-0.29-1.43-0.65-2.17-0.88c0.74,0.5,1.42,0.88,1.92,0.99
	c-0.87,0.4-2.1,1.26-3.16,2.46l-1.7-2.8c-0.09,0.08-0.18,0.11-0.28,0.2c-1.72-0.62-0.51,1.82,1.04,3.83
	c-0.48,0.75-0.87,1.58-1.07,2.48c-2.89-4.46-2.87,2.96-6.27-1.68c0.05,2.66-5.09,4.2-4.83,8.85c-1.7-0.05-3.38-0.08-4.14,1.91
	l-2.07-3.59l-1.29,6.38c-2.85-1.59-4.17-2.64-3.33-6.33c-3,6.32-3.18,3.15-5.49,9.16l-0.74-2.55c-1.4,0.64-2.43,4.82-4.07,3.1
	c-4.98-3.5-16.1,5.35-25.98,4.08c4.35,6.69-5.06-1.82-3.25,3.95c-1.13-1.54-2.64-2.08-1.88-4.09c-3.56,3.28-7.34-0.35-8.44,5.51
	c-1.13-1.55-0.06-2.87-0.87-3.73c-0.2,0.5-0.77,2-1.59,1.14c-0.82-0.87,0.07-1.68,0.45-2.68c-4.18,1.91-2.61,7.39-1.04,12.5
	c-3.07-1.54-4.02-0.8-4.36,3.07c-1.37-1.35-3.28-2.58-0.84-4.17c-1.59,0.33-10.06,1.07-8.7,5.13c-0.85-0.84-2.21,0.5-2.43,1.11
	c-3.45,1.03-3.89,0.78-7.05,2.41l1.16,0.31c0.52,5.32-2.34,2.11-4.78,3.7l-0.11-0.52c-7.42-1.17-2.01,2.67-9.53,0.97l1.46,2.88
	c1.87,6.67-6.77-1.79-9.34,2l1.91,1.24c-1.08,2.93-8.65-6.76-10.87-6.84c-0.63-0.4,0.32-1.15,0.75-1.79
	c-6.46-1.91,0.83,4.18-2.56,6.51c-1.49-1.86-1.15-5.73-3.81-5.17c-1.9-1.24-4.71,9.65-9.68,6.88c1.37,1.35,2.74,2.7,1.47,4.58
	c-2.44,1.59-9.53-3.46-9.99,2.61c-0.51-0.32-0.8-0.7-0.96-1.1c-1.53,2.1-5.78,4.71-5.96,7.97c-5.79-9.66-10.76,9.83-14.32,0.25
	l-6.07,2.88l-0.21-1.04c-4.24,0.88-4.79,3.71-5.33,6.53c-1.17-0.3-0.83-1.45-0.94-1.98c-6.58,0.28-7,0.91-10.11,7.53l-1.68-2.91
	c-0.65,2.31-10.29-1.67-14.66,4.12c-0.08-0.37-0.18-1.02,0.11-1.63c-5.08,6.08-18.7-2.76-16.8,9.43l-3.21,4.39
	c5.84-1.21,1.03,5.21,4,6.23c-1.92,1.48-6.89-1.29-4.44-2.88l0.63,0.41c-1.24-6.26-7.64,0.5-9-3.56
	c-10.73,4.39-22.53,5.13-32.79,8.72l2.9,4.14l-3.64,1.08c-1.33-0.71-2.6-3.11,0-3.88c-2.31-2.09-3.42,3.77-3.12,4.8
	c-5.65,0.02-0.08-6.07-1.64-5.61l-1.93,1.12l0.67,0.36c-0.97,2.5-0.36,4.54-3.49,5.46c-2.27-0.19-2.05-2.45-2.87-2.34
	c-0.12-0.33-0.43-0.38-1.21,0.31l-4.61,1.3l1.46,1.36h71.21C234.79,704.2,235.38,703,236.65,702.47z M443.8,604.41
	c0.02,0.37,0.07,0.74,0.16,1.15C443.66,604.9,443.17,604.71,443.8,604.41z M387.98,641.74c-0.2,1.22-1.28,1.06-2.72,0.3
	C385.9,641.51,386.77,641.31,387.98,641.74z M329.76,672.06c-0.54,0.93-1.35,3.47-2.59,1.9
	C326.75,670.16,328.06,671.56,329.76,672.06z M167.88,703.8l1,0.53C167.62,705.79,167.77,704.84,167.88,703.8z"/>
<path class="Colour2 fill" d="M499.49,594.12l0.51-0.23c0-0.19,0-0.38,0-0.57l-2.32-5.86L499.49,594.12z"/>
<path class="Colour2 fill" d="M379.89,638.17c0.26,0.2,0.53,0.43,0.79,0.64c0.05-1.08,0.1-2.08,0.14-3.02
	C380.55,636.53,380.22,637.33,379.89,638.17z"/>
<path class="Colour2 fill" d="M266,700.79l-0.28,3.27C267.78,703.26,266.35,702.21,266,700.79z"/>
<path class="Colour2 fill" d="M318.03,678.02l-0.26-1.3C317.65,677.54,317.68,678.09,318.03,678.02z"/>
<path class="Colour2 fill" d="M309.76,680.95l-0.87,1.13C309.35,681.66,309.6,681.3,309.76,680.95z"/>
<path class="Colour2 fill" d="M313.13,678.9l-0.41,0.22C312.9,679.08,313.03,679,313.13,678.9z"/>
<path class="Colour2 fill" d="M266.05,700.19c-0.05-0.01-0.09,0.02-0.14,0.01c0,0.21,0.03,0.4,0.08,0.59L266.05,700.19z"/>
<path class="Colour2 fill" d="M67.42,509.38c1.03,0.23,1.7,0.71,2.22,1.26C69.44,509.79,68.83,509.2,67.42,509.38z"/>
<path class="Colour2 fill" d="M298.19,98.94c0.15,0.28,0.3,0.59,0.46,0.89c0.41-0.99,0.79-1.9,1.13-2.76
	C299.3,97.66,298.76,98.28,298.19,98.94z"/>
<path class="Colour2 fill" d="M200.77,121.25c-0.23-0.04-0.47-0.03-0.71,0.02C200.28,121.32,200.52,121.33,200.77,121.25z"/>
<path class="Colour2 fill" d="M197.67,121.74c0.74,0.14,1.59-0.33,2.39-0.47C198.39,120.86,197.51,117.42,197.67,121.74z"/>
<path class="Colour2 fill" d="M401.72,114.42c0.15,0.11,0.31,0.17,0.45,0.21c0-0.25,0-0.5-0.01-0.75L401.72,114.42z"/>
<polygon class="Colour2 fill" points="221.58,117.13 222.07,117.23 221.22,113.29 "/>
<path class="Colour2 fill" d="M152.05,84.95l-4.2,2.91c5.36,1.03-0.89,5.23,1.29,7.27c-2.13,0.67-5.4-3.73-2.8-4.31l0.4,0.61
	c1.06-6.28-6.64-2.34-6.43-6.62c-10.58,0.13-20.83-3.52-30.74-3.96l1.06,4.91l-3.45-0.34c-0.89-1.16-1.15-3.85,1.31-3.6
	c-1.25-2.79-4.17,2.25-4.26,3.32c-4.79-2.06,1.98-5.67,0.5-5.82l-2.02,0.33l0.44,0.58c-1.66,1.97-1.84,4.09-4.8,3.8
	c-0.23-0.12-0.41-0.26-0.56-0.41c0.52,8.37,0.82,16.53,0.88,24.45c0.85-0.32,1.74-0.37,2.7,0.87c1.35-4.13,2.96,0.29,3.41-5
	l-4.58,1.15c2.61-1.34,5.13-7.5,9.34-4.42c-0.35,1.06-1.64,2.45-2.52,3.22c1.22,1.58,2.41-1,3.68,0.63
	c-0.46,5.29-5.56,1.06-8.39,5.05c1.3,2.26,5.3-3.75,3.81,1.97c2.12-7.26,4.88,1,8.34-4.51l-0.28,3.17c0.54-0.49,1.67-1.97,2.65-1.87
	l-1.84,4.09c2.78-3.47,5.2,3.16,7.85,1.29c-5.47,0.01-1.16-3.85-3.44-6.2c6.72-4.07,3.84,7.99,11,7.01
	c-1.18-0.05-3.34-2.14-1.86-3.46c1.43,0.68,3.31,1.93,4.16,3.61c5.02-0.58-0.71-3.28,1.45-5.19c1.64,3.9,2.48-1.53,4.7-2.73
	l-0.04,3.23c5.67,2.17,1.62-6.7,6.72-4.11l-2.25,4.44l2.7-1.11l-0.61,3.66c2.96-2.67,3.85-1.95,6.69-0.88
	c-0.63-2.28,0.47-5.85,3-5.91c1.69,1.95-1.02,3.05,2.57,2.65c-0.84,2.01-1.77,4.52-3.28,1.53c-0.18,1.05-0.83,2.01-1.01,3.05
	c1.82,2.24,4.66,0.58,5.95,0.57c-0.5-0.13-1.09-0.31-1.39-0.78l5.27-4.38c0.8,1.23,0.13,2.19-0.53,3.13
	c1.06-0.33,1.81-1.8,3.36-2.05c-0.44,2.62-0.39,5.32-2.6,6.52l4.99-2.83c0.31,1.15,2.49,3.17,1.83,4.13
	c2.72,1.59,6.81-4.98,10.41-2.88c0.2-0.51,0.58-0.99,1.36-1.35c3.41,0.65,6.38,3.92,10.49,0.39l2.22,4.74
	c3.19-1.01-3.01-5.98,2.3-7.66c3.76-1.44,1.33,4.03,2.62,5.37c1.9-2.34,5.21-7.11,8.58-3.23c-1.15,0.87-2.03,0.16-3.1,0.49
	l2.57,2.65c-3.23,4.24-5.49,2.72-3.1,6.43c0.52-9.08,10.19-0.76,10.7-9.83l1.69,1.94c-0.49-0.1-0.58,0.44-1.07,0.34
	c3.28,4.41,2.6-6.53,6.9-5.16c1.49,0.72,2.52,2.06,1.48,3.12l3.4-2.19c0.81,0.16,0.75,1.26,0.16,1.52l4.71-0.59l-0.04,0.27
	c0.75-1.41,2.45-3.59,3.27-4.51c1.28,1.32-0.67,0.95-0.35,2.09l2.87-2.15c1.12,2.37-1.27,4.62-3.23,4.25
	c2.5,9.11,2.39-2.25,8.02,3.15l-2.7,1.11c1.64,5.18,3.76,3.35,6.73,6.61c-0.69-1.69-5.93-8.2-2.81-10.41
	c0.86,0.7,1.99,1.05,3.68-0.76c-0.04,3.23,1.6,2.46,3.63,2.31l-0.21,4.28c2.21-1.2,2.08-3.38,3.4-5.28
	c2.44,0.46,2.89,3.79,3.42,6.59c3.9,0.75-2.61-5.36,2.03-6.09c3.23,1.69,5.54-0.02,9.48-2.51c2.25,1.51-0.44,2.61,0.35,3.85
	l2.08-3.38c0.49,0.09,0.32,1.14,0.23,1.66c1.72-1.29,0.21-4.27,2.91-5.39c0.8-4.7,5.38,6.98,8.78,1.68c0.8,1.23-0.44,2.62-0.22,4.28
	c4.6-3.43,3.94-2.49,7.75-7.15l3.13,2.86c-2.28-3.25,0.77-7,3.43-10.08c-0.8-1.57-1.49-2.94-1.95-3.59l4.21-2.23
	c0.49,0.71,0.05,2.17-0.67,3.95c0.29-0.35,0.57-0.69,0.78-1.01c1.46,1.61,0.65,4.06-0.46,6.43c-0.49-0.85-0.98-1.76-1.46-2.66
	c-1.07,2.58-2.08,5.44-1.91,7.95c0.28-0.49,0.81-0.9,1.39-1.13c-0.28,0.7-0.46,1.33-0.35,1.76c0.13,0.45,0.58-0.49,1.28-1.57
	l0.87,4.78l0.26-1.89l5.41,3.08c3.98-4.74,7.5-11.75,13.72-13.61c-1.6,3.47-0.43,5.71-0.58,9.85c-1.62-4.41-4.83,1.78-8.03,0.84
	c1.67,0.49,1.27,2.46,0.83,3.14l5.79-3.9c-0.19,3.39,1.17,2.56,2.65,3.99c-1.02-6.72,4.34-4.39,6.71-6.41
	c0.11,2.25-0.49,4.54-3.32,3.95c3.05,5.09,4.18-7.8,7.19-3.46c-0.7,0.04-1.06-0.31-1.36,0.83c1.65-1.97,5.59-0.32,4.63,1.62
	l-0.69,0.03c4.6,0.87,14.03,0.28,14.81-5.39c0.03,0.74-0.72,6.85-1.02,7.99l8.54-19c-0.81,4.87,1.78,16.56-2.09,19.25
	c1.09,0.71,2.43,1.55,4.77-0.14c-0.74-0.71-1.75-7.1-0.72-7.53c2.72,5.49,1.9,2.94,5.28,7.64c-1.1-1.07,0.27-8.71,2.04-8.43
	c-0.3,1.14,0.02,7.57-0.64,8.35l4.54-7.45c-1.12,1.34-0.3,6.37,0.65,8.51c-0.43-1.48,3.81,0.2,5-0.52l-1.84-1.77
	c4.96,1.22,5.1-10.5,10.03-10.02c-0.62,1.55-1.64,9.54,0.86,10.53c1.22-3.83,5.41-18.45,9.83-21.34l0.8,2.22l3.4-2.45
	c-2.19,5.76-8.25,17.86-11.54,22.55c1.84,1.77,0.48,2.6,3.27,2.45c0.95,2.08-1.57,3.11-2.4,3.21l6.48,1.44
	c-0.21-4.5,5.05-4.43,4.86-8.18l-7.14,4.54c-0.21-4.49,4.3-12.69,8.89-11.82c1.14,1.81-1.01,7.99-0.94,9.49
	c0.39-0.95,1.99-1.83,3.26-2.1c-0.06-8.81,0.17-17.3,0.58-25.34c-1.44-0.64-2.96-1.21-4.49-1.12c0.3-1.14,1.36-0.82,2.1-0.12
	c-4.89-6.86-10.64,4.75-15.1-0.26c-1.15,1.07-1.96,0.69-2.74-0.08c0.11,0,0.2-0.06,0.28-0.15c-0.12-0.04-0.29-0.05-0.46-0.04
	c-0.49-0.52-0.99-1.13-1.54-1.62c0.46,0.74,0.9,1.34,1.29,1.63c-0.87,0.05-2.2,0.4-3.51,1.13l-0.5-3.23
	c-0.11,0.04-0.19,0.03-0.3,0.09c-1.25-1.21-1.05,1.51-0.41,3.94c-0.66,0.52-1.27,1.14-1.75,1.91c-0.95-5.22-3.43,1.69-4.75-3.88
	c-0.85,2.49-5.74,2.03-7.08,6.45c-1.42-0.67-2.84-1.32-4.16,0.25l-0.55-4.11l-3.25,5.45c-1.88-2.53-2.65-3.99-0.69-7.11
	c-4.68,4.77-3.76,1.76-7.75,6.5l0.24-2.64c-1.4,0.08-3.69,3.59-4.5,1.38c-3.04-5.08-15.46-0.95-23.4-5.77
	c1.43,7.82-3.67-3.56-4.09,2.48c-0.44-1.85-1.54-2.91-0.21-4.49c-4.13,1.74-6.1-3.03-9.02,2.02c-0.44-1.86,0.92-2.69,0.52-3.79
	c-0.34,0.39-1.33,1.58-1.74,0.47c-0.4-1.1,0.63-1.54,1.29-2.33c-4.19,0.24-4.71,5.92-5.1,11.24c-2.08-2.56-3.14-2.22-4.73,1.25
	c-0.71-1.76-1.91-3.6,0.7-4.19c-1.46-0.28-8.89-2.71-9.11,1.57c-0.44-1.09-2.04-0.35-2.43,0.14c-3.28-0.31-3.56-0.7-6.79-0.35
	l0.88,0.71c-1.36,5.14-2.7,1.1-5.31,1.68l0.08-0.53c-5.89-3.82-2.6,1.74-8.41-2.6l0.27,3.21c-0.66,6.89-5.14-4.16-8.59-1.57
	l1.2,1.85c-1.9,2.33-5.05-9.47-6.91-10.36c-0.4-0.61,0.66-0.95,1.24-1.39c-4.83-4.15-0.7,4.19-4.37,5.11
	c-0.64-2.28,0.96-5.75-1.49-6.21c-1.19-1.86-7.25,7.24-10.53,2.84c0.71,1.76,1.41,3.52-0.3,4.8c-2.61,0.58-6.91-6.72-9.35-1.25
	c-0.32-0.48-0.44-0.94-0.45-1.38c-2.01,1.39-6.49,2.25-7.74,5.22c-1.65-11.11-12.44,5.18-12.22-5.04l-6.12,0.45l0.18-1.04
	c-3.89-0.74-5.32,1.68-6.73,4.11c-0.89-0.71-0.22-1.65-0.13-2.19c-5.67-2.16-6.25-1.73-11.11,3.28l-0.44-3.32
	c-1.33,1.91-8.16-5.34-13.82-1.56c0.06-0.37,0.19-1.02,0.64-1.48C163.12,86.15,154.56,72.92,152.05,84.95z M363.76,91.06
	c-0.1,0.35-0.19,0.72-0.25,1.13C363.48,91.47,363.13,91.11,363.76,91.06z M303.84,105.24c-0.58,1.06-1.44,0.51-2.41-0.72
	C302.15,104.26,302.96,104.4,303.84,105.24z M244.25,112.01c-0.77,0.66-2.32,2.73-2.84,0.81
	C242.34,109.15,242.97,110.93,244.25,112.01z"/>
<path class="Colour2 fill" d="M285.89,699.87c0.81-0.17,1.5-0.95,2.26-1.4C286.3,698.76,284.13,695.92,285.89,699.87z"/>
<path class="Colour2 fill" d="M380.77,82.99c-1.57-2.5-3.31-6.36-3.16-3.38l0.45,2.91C379.19,82.02,380.05,82.36,380.77,82.99z"/>
<path class="Colour2 fill" d="M380.89,111.47c-0.58,0.42-0.85,0.74-1.02,1.02C380.19,112.23,380.53,111.91,380.89,111.47z"/>
<path class="Colour2 fill" d="M377.69,117.68c3.23,1.69,0.84-4.19,3.75-2.1c0.79-1.6-2.38-1.7-1.57-3.08
	C377.88,114.16,376.86,113.18,377.69,117.68z"/>
<path class="Colour2 fill" d="M249.92,120.86l0.18-1.04c-0.3-1.14-0.79-1.23-1.77-1.42L249.92,120.86z"/>
<path class="Colour2 fill" d="M288.15,698.47c0.25-0.04,0.49-0.13,0.72-0.3C288.62,698.21,288.39,698.33,288.15,698.47z"/>
<path class="Colour2 fill" d="M454.92,229.13c-0.03,0.01-0.06,0.01-0.1,0.02C455.33,229.68,455.24,229.58,454.92,229.13z"/>
<path class="Colour2 fill" d="M467.84,623.51c3.91,0.27-0.69-4.23,3.04-3.47c0.21-1.8-3.05-0.62-2.74-2.23
	C466.73,620.17,465.33,619.67,467.84,623.51z"/>
<polygon class="Colour2 fill" points="306.77,682.53 308.56,685.95 309.09,685.84 "/>
<path class="Colour2 fill" d="M336.27,676.34l2.54,1.65l-0.21-1.04C337.87,676.01,337.34,676.13,336.27,676.34z"/>
<path class="Colour2 fill" d="M468.15,617.82c0.23-0.37,0.45-0.81,0.66-1.36C468.38,617.08,468.22,617.49,468.15,617.82z"/>
<g id="FBodyLogos"></g>
<path class="NeckAndArmTrim fill" d="M500,313.21c-14.19-4.41-26.2-10.21-36.41-16.69c-109.06-69.26-76.4-257.02-72.44-278.17L410,23.92
	c-5.06,27.42-33.95,196.19,63.99,261.38c7.63,5.08,16.25,9.68,26.01,13.53C500,303.62,500,308.42,500,313.21"/>
<path class="NeckAndArmTrim fill" d="M0,313.21v-7.91v-6.73c5.6-2.07,13.68-5.47,22.6-10.82c32.6-19.58,46.84-47.61,54.73-63.14
	c20.05-39.48,29.29-112.46,13.02-201.12l17.57-5.14c3.87,21.26,36.22,212.31-72.93,279.39C25.1,303.82,13.55,309.18,0,313.21"/>
<g>
	<path class="NeckAndArmTrim fill" d="M168.87,0.5c-0.04,7.29,0.55,17.88,3.64,30.23c3.73,14.94,12.16,48.63,43.13,64.45
		c14.77,7.54,29.04,8.14,34.53,8.15c4.13,0.01,22.45-0.3,40.21-11.15c28.19-17.22,34.57-48.55,37.92-65
		c2.24-11.02,2.58-20.35,2.48-26.68l15.97,4.72c-1.69,47.51-23.18,87.11-53.8,102.42c-20.78,10.39-42.43,11-42.43,11
		s-19.98,1.27-38.48-6.68C174.69,95.9,152.23,54.4,152.75,5.22L168.87,0.5z"/>
</g>
<path class="NeckAndArmTrim fill" d="M330.78,0.5c-2.53,4.76-7.07,12.02-14.8,19.03c-22.51,20.41-52.68,21.1-65.53,21.39
	c-12.26,0.28-28.94,0.66-47.31-8.35c-20.27-9.94-30.4-25.31-34.28-32.07c-0.77,13.4,3.64,30.23,3.64,30.23
	c7.63,5.76,36.55,26.15,79.31,25.58c40.55-0.54,67.83-19.6,75.75-25.58C327.57,30.73,331.28,15.47,330.78,0.5z"/>
<path class="st3" d="M290.14,92.18c-17.76,10.84-36.08,11.15-40.21,11.15c-5.49-0.01-19.76-0.61-34.53-8.15
	c-30.97-15.82-39.4-49.51-43.13-64.45c7.63,5.76,36.55,26.15,79.31,25.58c40.55-0.54,67.83-19.6,75.75-25.58
	C323.75,47.82,316.43,76.13,290.14,92.18z"/>
</svg>
