<?xml version="1.0" encoding="utf-8"?>
<!-- Generator: Adobe Illustrator 19.1.0, SVG Export Plug-In . SVG Version: 6.00 Build 0)  -->
<svg version="1.1" id="Layer_1" xmlns="http://www.w3.org/2000/svg" xmlns:xlink="http://www.w3.org/1999/xlink" x="0px" y="0px"
	 viewBox="0 0 500 706" style="enable-background:new 0 0 500 706;" xml:space="preserve">
<style type="text/css">
	<![CDATA[
	@font-face{font-family:'codaheavy';src:url('/fonts/coda-heavy-webfont.woff') format('woff')}
	text{font-family:Impact,codaheavy,sans-serif}
	.Colour1.fill{fill:#F6A82D;}
	.NeckAndArmTrim.fill{fill:#D15E29;}
	.st0{fill:url(#SVGID_1_);}
	.st1{fill:url(#SVGID_2_);}
	.st2{fill:url(#SVGID_3_);}
	.st3{fill:url(#SVGID_4_);}
	.st4{fill:url(#SVGID_5_);}
	.st5{fill:url(#SVGID_6_);}
	.st6{fill:url(#SVGID_7_);}
	.st7{fill:url(#SVGID_8_);}
	.st8{fill:#FFFFFF;}
	]]>
</style>
<linearGradient id="SVGID_1_" gradientUnits="userSpaceOnUse" x1="250" y1="0.5" x2="250" y2="704.0844">
	<stop class="Colour1 fill stopColor" offset="8.204796e-007" style="stop-color:#30A2DC"/>
	<stop class="Colour1 fill stopColor" offset="1" style="stop-color:#282561"/>
</linearGradient>
<path class="st0" d="M500,298.23c-9.76-3.85-18.38-8.43-26.01-13.5C376.05,219.67,404.94,51.23,410,23.87
	c-26.4-7.79-52.81-15.58-79.21-23.37c-2.53,4.75-7.07,12-14.8,18.99c-22.51,20.37-52.68,21.06-65.53,21.35
	c-12.26,0.28-28.94,0.66-47.31-8.33c-20.27-9.92-30.4-25.26-34.28-32.01c-26.17,7.65-52.34,15.3-78.52,22.94
	c16.26,88.48,7.03,161.31-13.02,200.71c-7.89,15.5-22.12,43.47-54.73,63.01c-8.92,5.35-17,8.73-22.6,10.8v14.61v391.51h500
	C500,568.8,500,433.52,500,298.23z"/>
<linearGradient id="SVGID_2_" gradientUnits="userSpaceOnUse" x1="50.2428" y1="299.2476" x2="50.2428" y2="701.3137">
	<stop class="Colour1 fill stopColor" offset="0" style="stop-color:#C54428"/>
	<stop class="Colour1 fill stopColor" offset="0.4153" style="stop-color:#DA6F2A"/>
	<stop class="Colour1 fill stopColor" offset="1" style="stop-color:#FBB12E"/>
</linearGradient>
<path class="st1" d="M0,312.58V415.5c9.92,3.58,26.13,13.88,39.46,43.46C59.21,502.75,62.13,569.25,0,697.93v6.16h66.52
	c18.34-51.84,29.56-126.81,32.52-171.66c0.42-6.43,0.35-12.26,0.75-17.27c8.74-108.38-67.47-194.53-92.82-219.98
	c-2.59,1.12-4.95,2.05-6.97,2.79V312.58z"/>
<linearGradient id="SVGID_3_" gradientUnits="userSpaceOnUse" x1="449.7739" y1="299.3444" x2="449.7739" y2="701.3143">
	<stop class="Colour1 fill stopColor" offset="0" style="stop-color:#C54428"/>
	<stop class="Colour1 fill stopColor" offset="0.4153" style="stop-color:#DA6F2A"/>
	<stop class="Colour1 fill stopColor" offset="1" style="stop-color:#FBB12E"/>
</linearGradient>
<path class="st2" d="M400.24,515.15c0.4,5.01,0.33,10.83,0.75,17.26c2.96,44.86,14.19,119.87,32.55,171.68H500c0-2.07,0-4.15,0-6.22
	c-62.13-128.63-59.21-195.1-39.47-238.87c13.34-29.6,29.56-39.87,39.47-43.45c0-39.11,0-78.21,0-117.32
	c-2.39-0.94-4.71-1.93-6.96-2.95C467.74,320.67,391.51,406.79,400.24,515.15z"/>
<path class="Colour1 fill" d="M397.34,382.31c-2.69,4.48-5.21,9.03-7.56,13.69c-4.24,8.44-7.74,17.17-10.6,26.1l-130.56,46.82
	l-130.57-46.82c-2.86-8.92-6.35-17.66-10.6-26.1c-2.35-4.65-4.87-9.21-7.56-13.69l148.73,57.6L397.34,382.31z"/>
<path class="Colour1 fill" d="M372.14,451.21c-1.84,10.66-2.95,21.46-3.51,32.24c-0.03,0.54-0.06,1.07-0.08,1.61l-119.93,43l-119.94-43
	c-0.02-0.54-0.05-1.07-0.08-1.61c-0.55-10.78-1.67-21.58-3.51-32.24l123.53,47.84L372.14,451.21z"/>
<path class="Colour1 fill" d="M369.68,543.8l-121.06,43.41L127.56,543.8c0.85-10.62,1.4-21.25,1.55-31.89l119.52,46.3l119.51-46.3
	C368.28,522.54,368.83,533.18,369.68,543.8z"/>
<path class="Colour1 fill" d="M377.13,600.28l-128.5,46.08l-128.51-46.08c1.82-10.26,3.43-20.55,4.74-30.87l123.77,47.94l123.76-47.94
	C373.7,579.72,375.3,590.02,377.13,600.28z"/>
<path class="Colour1 fill" d="M388.93,655.19l-140.3,50.31l-140.31-50.31c2.5-10.06,4.84-20.17,7-30.33l133.32,51.64l133.31-51.64
	C384.09,635.02,386.43,645.13,388.93,655.19z"/>
<g>
	<path class="Colour1 fill" d="M396.17,682.86c-0.36-1.32-0.72-2.63-1.08-3.95l-67.2,26.03h74.59
		C400.31,697.61,398.2,690.25,396.17,682.86z"/>
</g>
<g>
	<path class="Colour1 fill" d="M102.16,678.92c-0.36,1.32-0.72,2.63-1.08,3.95c-2.03,7.38-4.14,14.74-6.31,22.08h74.59L102.16,678.92z"/>
</g>
<path class="Colour1 fill" d="M55.21,259.2l194.81,86.05l194.36-87.49c-14.45-17.74-24.27-38.63-30.77-60.56l-164.28,71.52L87.58,197.87
	c-2.95,9.91-6.4,18.72-10.25,26.28C72.8,233.05,66.18,246.04,55.21,259.2z"/>
<path class="Colour1 fill" d="M396.44,378.62c-2.82,4.7-5.45,9.46-7.82,14.15c-4.24,8.43-7.94,17.53-10.99,27.05
	c-3.04,9.53-5.49,19.65-7.28,30.08c-1.8,10.41-3.02,21.58-3.62,33.18c-0.03,0.57-0.06,1.13-0.08,1.66
	c-0.43,9.03-0.58,18.29-0.43,27.52c0.15,10.46,0.68,21.44,1.59,32.66c0.71,8.67,1.64,17.48,2.77,26.2
	c1.28,10.04,2.91,20.66,4.84,31.56c1.48,8.32,3.13,16.77,4.91,25.11c2.11,9.94,4.51,20.36,7.14,30.96
	c1.92,7.73,4.04,15.88,6.29,24.21l1.1,4.01c1.55,5.63,3.29,11.66,4.88,17.1h8.1c-1.73-5.89-3.7-12.69-5.43-18.96l-1.1-4
	c-2.23-8.28-4.34-16.37-6.25-24.06c-2.61-10.52-5-20.86-7.09-30.72c-1.76-8.26-3.39-16.64-4.86-24.88
	c-1.92-10.79-3.53-21.29-4.79-31.23c-1.11-8.62-2.03-17.32-2.73-25.88c-0.89-11.06-1.42-21.89-1.56-32.2
	c-0.15-9.08,0-18.19,0.42-27.13c0.02-0.52,0.05-1.04,0.08-1.57c0.59-11.34,1.77-22.23,3.53-32.37c1.74-10.11,4.11-19.92,7.05-29.13
	c2.94-9.17,6.49-17.92,10.56-26.02c2.28-4.53,4.82-9.13,7.56-13.68c10.99-18.34,24.81-35.68,38.18-52.44
	c11.42-14.32,23.15-29.11,33.28-44.62c-0.24-0.15-0.48-0.31-0.71-0.46c-1.91-1.27-3.76-2.6-5.58-3.94
	c-10.02,15.42-21.79,30.24-33.23,44.59C421.66,342.33,407.68,359.86,396.44,378.62z"/>
<linearGradient id="SVGID_4_" gradientUnits="userSpaceOnUse" x1="452.9988" y1="297.856" x2="452.9988" y2="480.2955">
	<stop class="Colour1 fill stopColor" offset="8.204796e-007" style="stop-color:#30A2DC"/>
	<stop class="Colour1 fill stopColor" offset="1" style="stop-color:#282561"/>
</linearGradient>
<path class="st3" d="M406,482.15c0,0,11.93-66.94,94-116c0-21.79,0-43.58,0-65.36C476.7,320.5,415.77,381.06,406,482.15z"/>
<linearGradient id="SVGID_5_" gradientUnits="userSpaceOnUse" x1="446.1955" y1="495.1436" x2="446.1955" y2="700.7618">
	<stop class="Colour1 fill stopColor" offset="8.204796e-007" style="stop-color:#30A2DC"/>
	<stop class="Colour1 fill stopColor" offset="1" style="stop-color:#282561"/>
</linearGradient>
<path class="st4" d="M406,495.14c0,0-3.07,16.15-5.01,37.26c2.96,44.86,14.19,119.87,32.55,171.68h57.85
	C398.88,596.67,406,495.14,406,495.14z"/>
<linearGradient id="SVGID_6_" gradientUnits="userSpaceOnUse" x1="51.0209" y1="495.1391" x2="51.0209" y2="700.7617">
	<stop class="Colour1 fill stopColor" offset="8.204796e-007" style="stop-color:#30A2DC"/>
	<stop class="Colour1 fill stopColor" offset="1" style="stop-color:#282561"/>
</linearGradient>
<path class="st5" d="M91.19,495.14c0,0,7.12,101.51-85.34,208.95h57.83c18.34-51.84,29.56-126.81,32.52-171.66
	C94.25,511.3,91.19,495.14,91.19,495.14z"/>
<linearGradient id="SVGID_7_" gradientUnits="userSpaceOnUse" x1="47.016" y1="297.753" x2="47.016" y2="480.2819">
	<stop class="Colour1 fill stopColor" offset="8.204796e-007" style="stop-color:#30A2DC"/>
	<stop class="Colour1 fill stopColor" offset="1" style="stop-color:#282561"/>
</linearGradient>
<path class="st6" d="M94.03,482.14C84.25,381.03,23.34,320.44,0,300.69v11.89v53.51C82.09,415.17,94.03,482.14,94.03,482.14z"/>
<path class="Colour1 fill" d="M55.82,329.81c13.37,16.77,27.19,34.1,38.18,52.45c2.73,4.55,5.27,9.15,7.55,13.68
	c4.07,8.09,7.63,16.85,10.57,26.02c2.95,9.24,5.32,19.04,7.05,29.14c1.75,10.14,2.94,21.03,3.53,32.38c0.03,0.52,0.06,1.04,0.08,1.6
	c0.43,8.89,0.57,18,0.42,27.09c-0.15,10.3-0.67,21.14-1.56,32.19c-0.71,8.6-1.62,17.31-2.73,25.89c-1.26,9.93-2.88,20.43-4.79,31.22
	c-1.46,8.19-3.09,16.56-4.86,24.88c-2.09,9.86-4.48,20.2-7.09,30.72c-1.91,7.69-4.01,15.78-6.28,24.19l-1.06,3.87
	c-1.46,5.29-3.22,11.45-5.43,18.96h8.11c1.95-6.66,3.54-12.24,4.88-17.11l1.1-4.02c2.25-8.32,4.36-16.46,6.28-24.2
	c2.63-10.6,5.04-21.02,7.14-30.96c1.79-8.39,3.44-16.84,4.91-25.11c1.94-10.9,3.57-21.52,4.84-31.55c1.12-8.68,2.05-17.5,2.77-26.21
	c0.9-11.21,1.44-22.2,1.59-32.65c0.15-9.23,0-18.49-0.43-27.48c-0.02-0.57-0.05-1.13-0.08-1.69c-0.6-11.61-1.82-22.78-3.62-33.19
	c-1.79-10.42-4.24-20.54-7.28-30.09c-3.05-9.52-6.75-18.63-10.99-27.05c-2.36-4.69-4.99-9.45-7.81-14.15
	c-11.24-18.76-25.22-36.29-38.74-53.25c-11.03-13.84-22.36-28.11-32.14-42.95c-2.06,1.43-4.2,2.83-6.43,4.2
	C33.4,301.61,44.76,315.93,55.82,329.81z"/>
<linearGradient id="SVGID_8_" gradientUnits="userSpaceOnUse" x1="250.1752" y1="1.9714" x2="250.1752" y2="79.8902">
	<stop class="Colour1 fill stopColor" offset="0" style="stop-color:#C54428"/>
	<stop class="Colour1 fill stopColor" offset="0.4153" style="stop-color:#DA6F2A"/>
	<stop class="Colour1 fill stopColor" offset="1" style="stop-color:#FBB12E"/>
</linearGradient>
<path class="st7" d="M167.62,0.86c-25.76,7.53-51.51,15.05-77.27,22.58c3.68,20.01,6.04,39.21,7.28,57.42
	c50.06-6.9,182.5-21.2,305.43-0.56c1.73-27.15,5.41-48.19,6.93-56.43c-25.82-7.62-51.64-15.24-77.46-22.86
	c-6.16,9.71-16.7,21.9-33.85,30.3c-10.27,5.02-20.06,7.21-28.7,8.14c-7.98,1.12-14.88,1.28-19.52,1.38
	c-12.26,0.28-28.94,0.66-47.31-8.33c-4.86-2.38-9.12-5.07-12.87-7.88c-3.04-2.01-6.01-4.29-8.87-6.87
	C175.98,12.84,171.36,7.17,167.62,0.86z"/>
<path class="Colour1 fill" d="M186.22,96.43c54.27-6.11,134.21-7.88,215.93,15.88c-0.03-3.07-0.02-6.11,0.02-9.1
	C319.83,79.76,239.61,81.58,185,87.75c-37.11,4.19-67.35,10.85-86.39,15.76c0.05,3.05,0.07,6.06,0.06,9.04
	C117.22,107.67,148.02,100.73,186.22,96.43z"/>
<g id="FBodyLogos"></g>
<path class="NeckAndArmTrim fill" d="M500,312.58c-14.19-4.4-26.2-10.19-36.41-16.66c-109.06-69.12-76.4-256.51-72.44-277.61L410,23.87
	c-5.06,27.36-33.95,195.8,63.99,260.86c7.63,5.07,16.25,9.66,26.01,13.5C500,303.01,500,307.8,500,312.58"/>
<path class="NeckAndArmTrim fill" d="M0,312.58v-7.89v-6.72c5.6-2.07,13.68-5.46,22.6-10.8c32.6-19.54,46.84-47.52,54.73-63.01
	c20.05-39.4,29.29-112.23,13.02-200.71l17.57-5.13c3.87,21.21,36.22,211.89-72.93,278.83C25.1,303.21,13.55,308.56,0,312.58"/>
<path class="NeckAndArmTrim fill" d="M168.87,0.5c-0.04,7.27,0.55,17.84,3.64,30.17c3.73,14.91,12.16,48.54,43.13,64.32
	c14.77,7.53,29.04,8.13,34.53,8.14c4.13,0.01,22.45-0.3,40.21-11.12c28.19-17.18,34.57-48.45,37.92-64.87
	c2.24-10.99,2.58-20.31,2.48-26.63l15.97,4.71c-1.69,47.41-23.18,86.94-53.8,102.22c-20.78,10.37-42.43,10.98-42.43,10.98
	s-19.98,1.27-38.48-6.67c-37.34-16.03-59.8-57.45-59.29-106.53L168.87,0.5z"/>
<path class="NeckAndArmTrim fill" d="M330.78,0.5c-2.53,4.75-7.07,12-14.8,18.99c-22.51,20.37-52.68,21.06-65.53,21.35
	c-12.26,0.28-28.94,0.66-47.31-8.33c-20.27-9.92-30.4-25.26-34.28-32.01c-0.77,13.37,3.64,30.17,3.64,30.17
	c7.63,5.74,36.55,26.1,79.31,25.52c40.55-0.54,67.83-19.56,75.75-25.52C327.57,30.67,331.28,15.44,330.78,0.5z"/>
<path class="st8" d="M290.14,92c-17.76,10.82-36.08,11.13-40.21,11.12c-5.49-0.01-19.76-0.61-34.53-8.14
	c-30.97-15.78-39.4-49.41-43.13-64.32c7.63,5.74,36.55,26.1,79.31,25.52c40.55-0.54,67.83-19.56,75.75-25.52
	C323.75,47.73,316.43,75.98,290.14,92z"/>
</svg>
