<?xml version="1.0" encoding="utf-8"?>
<!-- Generator: Adobe Illustrator 19.1.0, SVG Export Plug-In . SVG Version: 6.00 Build 0)  -->
<svg version="1.1" id="Layer_1" xmlns="http://www.w3.org/2000/svg" xmlns:xlink="http://www.w3.org/1999/xlink" x="0px" y="0px"
	 viewBox="0 0 500 706" style="enable-background:new 0 0 500 706;" xml:space="preserve">
<style type="text/css">
	<![CDATA[
	@font-face{font-family:'codaheavy';src:url('/fonts/coda-heavy-webfont.woff') format('woff')}
	text{font-family:Impact,codaheavy,sans-serif}
	.Number.fill{fill:#000}
	.NumberOutline.stroke{fill:none;stroke:#777;stroke-width:2.5}
	.Colour1.fill{fill:#F6A82D;}
	.NeckAndArmTrim.fill{fill:#D15E29;}
	.st0{fill:url(#SVGID_1_);}
	.st1{fill:url(#SVGID_2_);}
	.st2{fill:url(#SVGID_3_);}
	.st3{fill:url(#SVGID_4_);}
	.st4{fill:url(#SVGID_5_);}
	.st5{fill:url(#SVGID_6_);}
	.st6{fill:url(#SVGID_7_);}
	.st7{fill:url(#SVGID_8_);}
	]]>
</style>
<linearGradient id="SVGID_1_" gradientUnits="userSpaceOnUse" x1="250.0001" y1="0.5" x2="250.0001" y2="702.1274">
	<stop class="Colour1 fill stopColor" offset="8.204796e-007" style="stop-color:#30A2DC"/>
	<stop class="Colour1 fill stopColor" offset="1" style="stop-color:#282561"/>
</linearGradient>
<path class="st0" d="M0,297.4c0,134.91,0,269.82,0,404.72h500V311.71v-14.57c-5.6-2.06-13.68-5.44-22.6-10.77
	c-32.6-19.49-46.84-47.38-54.73-62.84c-20.05-39.29-29.29-111.92-13.02-200.15C383.47,15.75,357.3,8.13,331.13,0.5
	c-3.88,6.72-14.01,22.03-34.28,31.92c-18.38,8.97-35.05,8.59-47.31,8.31c-12.84-0.29-43.02-0.98-65.53-21.29
	c-7.72-6.97-12.26-14.19-14.8-18.93C142.81,8.27,116.41,16.04,90,23.81c5.06,27.29,33.95,195.26-63.99,260.13
	C18.38,289,9.76,293.57,0,297.4z"/>
<linearGradient id="SVGID_2_" gradientUnits="userSpaceOnUse" x1="50.2429" y1="298.4441" x2="50.2429" y2="699.3646">
	<stop class="Colour1 fill stopColor" offset="0" style="stop-color:#C54428"/>
	<stop class="Colour1 fill stopColor" offset="0.4153" style="stop-color:#DA6F2A"/>
	<stop class="Colour1 fill stopColor" offset="1" style="stop-color:#FBB12E"/>
</linearGradient>
<path class="st1" d="M0,414.84c9.92,3.59,26.13,13.91,39.46,43.56C59.21,502.29,62.13,568.94,0,697.91c0,1.41,0,2.81,0,4.22h67.19
	c17.94-51.87,28.93-125.71,31.85-170.1c0.42-6.44,0.35-12.29,0.75-17.31c8.72-108.42-67.17-194.64-92.67-220.33
	c-2.3,1.05-4.68,2.06-7.12,3.02C0,336.55,0,375.69,0,414.84z"/>
<linearGradient id="SVGID_3_" gradientUnits="userSpaceOnUse" x1="449.7738" y1="298.4109" x2="449.7738" y2="699.3644">
	<stop class="Colour1 fill stopColor" offset="0" style="stop-color:#C54428"/>
	<stop class="Colour1 fill stopColor" offset="0.4153" style="stop-color:#DA6F2A"/>
	<stop class="Colour1 fill stopColor" offset="1" style="stop-color:#FBB12E"/>
</linearGradient>
<path class="st2" d="M400.24,514.71c0.4,5.02,0.33,10.86,0.75,17.3c2.92,44.41,13.92,118.28,31.87,170.12H500c0-1.43,0-2.85,0-4.28
	c-62.13-128.93-59.21-195.55-39.47-239.42c13.34-29.67,29.56-39.97,39.47-43.55c0-39.2,0-78.39,0-117.59
	c-1.84-0.73-3.62-1.49-5.38-2.26c-0.53-0.22-1.05-0.44-1.6-0.68C467.69,319.83,391.51,406.13,400.24,514.71z"/>
<path class="Colour1 fill" d="M397.34,381.57c-2.69,4.49-5.21,9.05-7.56,13.72c-4.24,8.46-7.74,17.21-10.6,26.16l-130.56,46.93
	l-130.57-46.93c-2.86-8.94-6.35-17.7-10.6-26.16c-2.35-4.67-4.87-9.23-7.56-13.72l148.73,57.73L397.34,381.57z"/>
<path class="Colour1 fill" d="M372.14,450.63c-1.84,10.69-2.95,21.51-3.51,32.31c-0.03,0.54-0.06,1.07-0.08,1.61l-119.93,43.1
	l-119.94-43.1c-0.02-0.54-0.05-1.07-0.08-1.61c-0.55-10.8-1.67-21.63-3.51-32.31l123.53,47.95L372.14,450.63z"/>
<path class="Colour1 fill" d="M369.68,543.43l-121.06,43.51l-121.07-43.51c0.85-10.64,1.4-21.3,1.55-31.96l119.52,46.41l119.51-46.41
	C368.28,522.12,368.83,532.78,369.68,543.43z"/>
<path class="Colour1 fill" d="M377.13,600.04l-128.5,46.18l-128.51-46.18c1.82-10.28,3.43-20.6,4.74-30.94l123.77,48.05l123.76-48.05
	C373.7,579.43,375.3,589.75,377.13,600.04z"/>
<path class="Colour1 fill" d="M388.93,655.07l-140.3,50.43l-140.31-50.43c2.5-10.09,4.84-20.22,7-30.4l133.32,51.76l133.31-51.76
	C384.09,634.86,386.43,644.99,388.93,655.07z"/>
<g>
	<path class="Colour1 fill" d="M396.17,682.81c-0.36-1.32-0.72-2.63-1.08-3.95l-67.2,26.09h74.59
		C400.31,697.59,398.2,690.21,396.17,682.81z"/>
</g>
<g>
	<path class="Colour1 fill" d="M102.16,678.86c-0.36,1.32-0.72,2.63-1.08,3.95c-2.03,7.4-4.14,14.78-6.31,22.13h74.59L102.16,678.86z"/>
</g>
<linearGradient id="SVGID_4_" gradientUnits="userSpaceOnUse" x1="47.0159" y1="296.8142" x2="47.0159" y2="479.7634">
	<stop class="Colour1 fill stopColor" offset="8.204796e-007" style="stop-color:#30A2DC"/>
	<stop class="Colour1 fill stopColor" offset="1" style="stop-color:#282561"/>
</linearGradient>
<path class="st3" d="M94.03,481.62C84.25,380.28,23.34,319.56,0,299.76v11.92v53.63C82.09,414.5,94.03,481.62,94.03,481.62z"/>
<path class="Colour1 fill" d="M55.82,328.95c13.37,16.8,27.19,34.18,38.18,52.57c2.73,4.56,5.27,9.17,7.55,13.71
	c4.07,8.11,7.63,16.89,10.57,26.08c2.95,9.26,5.32,19.08,7.05,29.21c1.75,10.16,2.94,21.08,3.53,32.46
	c0.03,0.52,0.06,1.04,0.08,1.61c0.43,8.91,0.57,18.04,0.42,27.15c-0.15,10.33-0.67,21.19-1.56,32.27
	c-0.71,8.62-1.62,17.35-2.73,25.95c-1.26,9.95-2.88,20.48-4.79,31.29c-1.46,8.21-3.09,16.6-4.86,24.94
	c-2.09,9.88-4.48,20.24-7.09,30.79c-1.91,7.71-4.01,15.82-6.28,24.24l-1.06,3.88c-1.46,5.31-3.22,11.48-5.43,19h8.11
	c1.95-6.68,3.54-12.27,4.88-17.15l1.1-4.03c2.25-8.34,4.36-16.5,6.28-24.25c2.63-10.63,5.04-21.07,7.14-31.03
	c1.79-8.41,3.44-16.88,4.91-25.17c1.94-10.93,3.57-21.57,4.84-31.63c1.12-8.7,2.05-17.54,2.77-26.27
	c0.9-11.24,1.44-22.25,1.59-32.72c0.15-9.25,0-18.53-0.43-27.54c-0.02-0.57-0.05-1.14-0.08-1.7c-0.6-11.64-1.82-22.84-3.62-33.27
	c-1.79-10.44-4.24-20.59-7.28-30.16c-3.05-9.55-6.75-18.67-10.99-27.11c-2.36-4.7-4.99-9.47-7.81-14.18
	c-11.24-18.8-25.22-36.37-38.74-53.37c-11.03-13.87-22.36-28.18-32.14-43.04c-2.06,1.44-4.2,2.84-6.43,4.21
	C33.4,300.68,44.76,315.04,55.82,328.95z"/>
<linearGradient id="SVGID_5_" gradientUnits="userSpaceOnUse" x1="250.0276" y1="1.5946" x2="250.0276" y2="78.6653">
	<stop class="Colour1 fill stopColor" offset="0" style="stop-color:#C54428"/>
	<stop class="Colour1 fill stopColor" offset="0.4153" style="stop-color:#DA6F2A"/>
	<stop class="Colour1 fill stopColor" offset="1" style="stop-color:#FBB12E"/>
</linearGradient>
<path class="st4" d="M296.85,32.42c-18.38,8.97-35.05,8.59-47.31,8.31c-12.84-0.29-43.02-0.98-65.53-21.29
	c-7.72-6.97-12.26-14.19-14.8-18.93c-26.27,7.73-52.54,15.46-78.81,23.19c1.63,10.02,2.97,19.83,4.05,29.44
	c0.94,7.83,1.82,16.76,2.45,26.5c50.22-7.37,182.46-22.57,305.58-0.83c1.27-17.61,3.61-36.14,7.16-55.42
	C383.47,15.75,357.3,8.13,331.13,0.5C327.25,7.22,317.12,22.53,296.85,32.42z"/>
<path class="Colour1 fill" d="M184.67,94.99c54.59-6.16,134.53-8.01,216.65,15.03c0.01-3.06,0.03-6.15,0.11-9.29
	c-82.78-22.77-163.06-20.88-218.01-14.66c-36.21,4.1-66.01,10.49-85.61,15.44c0.05,3.05,0.07,6.14,0.05,9.27
	C117.08,105.85,147.43,99.19,184.67,94.99z"/>
<path class="Colour1 fill" d="M396.44,377.86c-2.82,4.71-5.45,9.49-7.82,14.19c-4.24,8.45-7.94,17.57-10.99,27.12
	c-3.04,9.55-5.49,19.7-7.28,30.15c-1.8,10.44-3.02,21.63-3.62,33.26c-0.03,0.57-0.06,1.14-0.08,1.67
	c-0.43,9.05-0.58,18.34-0.43,27.58c0.15,10.48,0.68,21.49,1.59,32.74c0.71,8.69,1.64,17.52,2.77,26.26
	c1.28,10.06,2.91,20.71,4.84,31.63c1.48,8.34,3.13,16.81,4.91,25.17c2.11,9.96,4.51,20.4,7.14,31.03
	c1.92,7.75,4.04,15.91,6.29,24.27l1.1,4.02c1.37,4.98,2.88,10.26,4.31,15.19h8.1c-1.59-5.44-3.32-11.44-4.86-17.05l-1.1-4.01
	c-2.23-8.3-4.34-16.41-6.25-24.12c-2.61-10.55-5-20.91-7.09-30.79c-1.76-8.28-3.39-16.67-4.86-24.94
	c-1.92-10.81-3.53-21.34-4.79-31.3c-1.11-8.64-2.03-17.36-2.73-25.94c-0.89-11.09-1.42-21.94-1.56-32.28
	c-0.15-9.1,0-18.24,0.42-27.19c0.02-0.52,0.05-1.04,0.08-1.58c0.59-11.36,1.77-22.28,3.53-32.45c1.74-10.14,4.11-19.96,7.05-29.2
	c2.94-9.19,6.49-17.97,10.56-26.08c2.28-4.54,4.82-9.15,7.56-13.71c10.99-18.38,24.81-35.76,38.18-52.56
	c11.33-14.25,22.97-28.96,33.05-44.38c-2.21-1.4-4.32-2.84-6.36-4.32c-9.96,15.3-21.6,30-32.93,44.25
	C421.66,341.49,407.68,359.07,396.44,377.86z"/>
<linearGradient id="SVGID_6_" gradientUnits="userSpaceOnUse" x1="452.9987" y1="296.9174" x2="452.9987" y2="479.777">
	<stop class="Colour1 fill stopColor" offset="8.204796e-007" style="stop-color:#30A2DC"/>
	<stop class="Colour1 fill stopColor" offset="1" style="stop-color:#282561"/>
</linearGradient>
<path class="st5" d="M500,299.86c-23.3,19.76-84.23,80.46-94,181.78c0,0,11.93-67.09,94-116.26C500,343.53,500,321.7,500,299.86z"/>
<linearGradient id="SVGID_7_" gradientUnits="userSpaceOnUse" x1="445.3692" y1="494.6593" x2="445.3692" y2="698.8283">
	<stop class="Colour1 fill stopColor" offset="8.204796e-007" style="stop-color:#30A2DC"/>
	<stop class="Colour1 fill stopColor" offset="1" style="stop-color:#282561"/>
</linearGradient>
<path class="st6" d="M406,494.66c0,0-3.07,16.19-5.01,37.35c2.92,44.41,13.92,118.28,31.87,170.12h56.87
	C398.98,595.2,406,494.66,406,494.66z"/>
<linearGradient id="SVGID_8_" gradientUnits="userSpaceOnUse" x1="51.8464" y1="494.6547" x2="51.8464" y2="698.8282">
	<stop class="Colour1 fill stopColor" offset="8.204796e-007" style="stop-color:#30A2DC"/>
	<stop class="Colour1 fill stopColor" offset="1" style="stop-color:#282561"/>
</linearGradient>
<path class="st7" d="M91.18,494.65c0,0,7.02,100.52-83.69,207.47h56.85c17.94-51.87,28.93-125.71,31.85-170.1
	C94.25,510.86,91.18,494.65,91.18,494.65z"/>
<g id="BBodyLogos"></g>
<path class="NeckAndArmTrim fill" d="M500,313.91c-10.47-3.56-26.35-10.04-42.57-21.82c-75.09-54.52-73.4-161.53-72.75-202.22
	c0.41-25.72,3.59-49.57,8.33-71.24l15.96,4.72c-1.81,11.63-4.09,28.64-5.52,49.29c-2.33,33.67-4.25,61.35,2.04,94.97
	c5.1,27.23,10.47,55.92,33.72,84.42c20.34,24.94,45.17,38.47,60.78,45.41V313.91z"/>
<path class="NeckAndArmTrim fill" d="M0,313.91c13.83-4.89,25.58-11,35.6-17.71c108-72.28,75.39-253.82,70.83-277.41l-15.96,4.69
	c15.68,101.67,1.74,181.05-18.49,213.04c-21.61,34.17-50.58,50.9-50.58,50.9c-8.77,5.06-16.53,8.23-21.41,10.03L0,313.91z"/>
<path class="NeckAndArmTrim fill" d="M150.95,5.51c3.84,6.65,10.41,16.23,21.12,25.42c28.64,24.58,63.88,26.6,75.73,26.71
	c9.05,0.09,45.21-0.53,76.18-25.04c12.2-9.66,19.74-19.97,24.14-27.09L331.2,0.5c-6.34,8.99-21.88,28.03-48.96,36.13
	c-14.19,4.24-26.41,3.95-35.74,3.72c-14.35-0.35-32.24-0.78-49.9-11.17c-14.06-8.28-22.46-19.62-27.35-28.68L150.95,5.51z"/>
</svg>
