<?xml version="1.0" encoding="utf-8"?>
<!-- Generator: Adobe Illustrator 19.1.0, SVG Export Plug-In . SVG Version: 6.00 Build 0)  -->
<svg version="1.1" id="Layer_1" xmlns="http://www.w3.org/2000/svg" xmlns:xlink="http://www.w3.org/1999/xlink" x="0px" y="0px"
	 viewBox="0 0 500 706" style="enable-background:new 0 0 500 706;" xml:space="preserve">
<style type="text/css">
	<![CDATA[
	@font-face{font-family:'codaheavy';src:url('../../fonts/coda-heavy-webfont.woff') format('woff')}
	text{font-family:Impact,codaheavy,sans-serif}
	.Number.fill{fill:#000}
	.NumberOutline.stroke{fill:none;stroke:#777;stroke-width:2.5}
	.Colour1.fill{fill:#000000;}
	.NeckAndArmTrim.fill{fill:#36499E;}
	.Gradient1.stopColor{stop-color:#3953A3;}
	.Gradient2.stopColor{stop-color:#000000;}
	.st0{fill:none;}
	.st1{fill:url(#SVGID_1_);}
	.st2{fill:url(#SVGID_2_);}
	.st3{fill:url(#SVGID_3_);}
	.st4{fill:url(#SVGID_4_);}
	.st5{fill:url(#SVGID_5_);}
	.st6{fill:#FFFFFF;}
	]]>
</style>
<g>
	<path class="st0" d="M0.52,298.18c15.61-6.96,40.44-20.52,60.78-45.52c23.25-28.58,28.62-57.33,33.72-84.63
		c6.29-33.7,4.38-61.45,2.04-95.2c-1.43-20.7-3.71-37.75-5.52-49.41c25.75-7.64,51.5-15.28,77.25-22.91
		c6.34,9.02,21.88,28.1,48.96,36.22c14.19,4.26,26.41,3.96,35.74,3.73c14.35-0.35,32.24-0.78,49.9-11.2
		c14.06-8.3,22.46-19.67,27.35-28.76c26.08,7.68,52.16,15.36,78.25,23.04c-15.68,101.92-1.74,181.5,18.49,213.56
		c21.61,34.26,50.58,51.03,50.58,51.03c8.77,5.08,16.53,8.25,21.41,10.05c0,135.23,0,270.46,0,405.69H0.52V298.18z"/>
	<path class="st0" d="M107.51,18.68c4.75,21.73,7.92,45.63,8.33,71.42c0.64,40.79,2.34,148.06-72.75,202.72
		c-16.22,11.81-32.1,18.3-42.57,21.87"/>
	<path class="st0" d="M393.05,18.84c-4.56,23.65-37.18,205.64,70.83,278.1c10.02,6.73,21.77,12.85,35.6,17.76"/>
	<path class="st0" d="M151.88,5.52c4.4,7.14,11.94,17.48,24.14,27.16c30.97,24.58,67.14,25.2,76.18,25.11
		c11.85-0.12,47.09-2.14,75.73-26.78c10.71-9.22,17.28-18.82,21.12-25.49"/>
	<line class="st0" x1="0" y1="686.92" x2="500" y2="686.92"/>
	<line class="st0" x1="0" y1="693.38" x2="500" y2="693.38"/>
	<path class="st0" d="M104.58,20.4c4.04,19.96,38.77,203.92-67.69,273.01c-10.11,6.56-22.07,12.46-36.31,16.97"/>
	<path class="st0" d="M396.11,20.4c-3.99,23.13-33.36,206.69,69.3,272.92c9,5.81,19.41,10.96,31.49,14.97"/>
	<path class="st0" d="M165.66,1.43c4.76,7.2,16.07,22.06,37,32.12c20.74,9.97,39.61,9.8,51.04,9.56
		c12.92-0.27,33.7-0.69,53.89-13.63c14.58-9.34,22.47-21.12,26.33-28.06"/>
</g>
<path class="Colour1 fill" d="M26.01,286.27c-7.63,5.07-16.25,9.65-26.01,13.5C0,435.01,0,570.26,0,705.5h500V314.11v-14.6
	c-5.6-2.07-13.68-5.46-22.6-10.8c-32.6-19.54-46.84-47.5-54.73-63c-20.05-39.39-29.29-112.2-13.02-200.65
	c-26.17-7.65-52.34-15.29-78.52-22.94c-3.88,6.74-14.01,22.08-34.28,32c-18.38,8.99-35.05,8.61-47.31,8.33
	c-12.84-0.29-43.02-0.98-65.53-21.34c-7.72-6.99-12.26-14.23-14.8-18.98C142.81,9.92,116.41,17.7,90,25.49
	C95.06,52.85,123.95,221.23,26.01,286.27z"/>
<g>
	<linearGradient id="SVGID_1_" gradientUnits="userSpaceOnUse" x1="249.896" y1="114.9193" x2="249.896" y2="481.2207">
		<stop class="Gradient1 stopColor" offset="0" style="stop-color:#3953A3"/>
		<stop class="Gradient2 stopColor" offset="1" style="stop-color:#000000;stop-opacity:0"/>
	</linearGradient>
	<path class="st1" d="M53.56,261.81c-7.82,9.16-16.94,17.42-27.55,24.46c-1.46,0.97-2.97,1.92-4.5,2.85L250,402.16l228.28-112.94
		c-0.3-0.17-0.59-0.33-0.88-0.51c-13.27-7.95-23.5-17.3-31.49-26.64L250,358.99L53.56,261.81z"/>
	<linearGradient id="SVGID_2_" gradientUnits="userSpaceOnUse" x1="249.5021" y1="114.9193" x2="249.5021" y2="481.2207">
		<stop class="Gradient1 stopColor" offset="0" style="stop-color:#3953A3"/>
		<stop class="Gradient2 stopColor" offset="1" style="stop-color:#000000;stop-opacity:0"/>
	</linearGradient>
	<path class="st2" d="M401.34,108.8L250,183.67L97.86,108.4c0.07,13.44-0.51,27.68-2.07,42.14L250,226.84l153.22-75.8
		C401.86,137.9,401.2,123.77,401.34,108.8z"/>
	<linearGradient id="SVGID_3_" gradientUnits="userSpaceOnUse" x1="249.641" y1="114.9193" x2="249.641" y2="481.2207">
		<stop class="Gradient1 stopColor" offset="0" style="stop-color:#3953A3"/>
		<stop class="Gradient2 stopColor" offset="1" style="stop-color:#000000;stop-opacity:0"/>
	</linearGradient>
	<path class="st3" d="M88.45,191.41c-3.29,12.6-7.62,24.94-13.21,36.64L250,314.5l174.04-86.1c-0.48-0.93-0.94-1.83-1.37-2.68
		c-4.79-9.41-8.95-20.74-12.31-33.72L250,271.33L88.45,191.41z"/>
	<linearGradient id="SVGID_4_" gradientUnits="userSpaceOnUse" x1="250.0001" y1="114.9193" x2="250.0001" y2="481.2207">
		<stop class="Gradient1 stopColor" offset="0" style="stop-color:#3953A3"/>
		<stop class="Gradient2 stopColor" offset="1" style="stop-color:#000000;stop-opacity:0"/>
	</linearGradient>
	<path class="st4" d="M250,446.65L0,322.97c0,14.39,0,28.78,0,43.17l250,123.68l250-123.68v-43.17L250,446.65z"/>
</g>
<linearGradient id="SVGID_5_" gradientUnits="userSpaceOnUse" x1="249.9998" y1="517.1377" x2="249.9998" y2="670.8075">
	<stop class="Gradient1 stopColor" offset="0" style="stop-color:#3953A3"/>
	<stop class="Gradient2 stopColor" offset="1" style="stop-color:#000000;stop-opacity:0"/>
</linearGradient>
<polygon class="st5" points="417.89,661.02 82.11,661.02 250,524.92 "/>
<g>
	<path class="st6" d="M82.11,661.02c6.83-5.87,13.68-11.73,20.55-17.55l20.65-17.43l20.73-17.33l20.79-17.26l20.83-17.2l20.88-17.15
		l41.89-34.13l1.57-1.28l1.57,1.28l41.89,34.13l20.87,17.15c6.97,5.71,13.91,11.45,20.84,17.2l20.79,17.26l20.73,17.33l20.65,17.43
		c6.87,5.82,13.72,11.67,20.55,17.55c-7.16-5.47-14.31-10.95-21.42-16.47l-21.32-16.6l-21.24-16.69l-21.18-16.77
		c-7.06-5.59-14.11-11.19-21.14-16.83l-21.1-16.88l-42.05-33.92h3.15l-42.06,33.92l-21.1,16.88l-21.14,16.83l-21.18,16.77
		l-21.24,16.69l-21.32,16.6C96.41,650.07,89.27,655.56,82.11,661.02z"/>
</g>
<g id="BBodyLogos"></g>
<path class="NeckAndArmTrim fill" d="M0,316.32c10.47-3.57,26.35-10.06,42.57-21.87c75.09-54.66,73.4-161.93,72.75-202.72
	c-0.41-25.79-3.59-49.69-8.33-71.42l-15.96,4.73c1.81,11.66,4.09,28.71,5.52,49.41c2.33,33.76,2.83,61.82-3.47,95.52
	c-5.1,27.3-11.69,52.25-32.54,82.96C42.44,279.59,15.61,292.85,0,299.81V316.32z"/>
<path class="NeckAndArmTrim fill" d="M500,316.32c-13.83-4.9-25.58-11.03-35.6-17.76c-108-72.46-75.39-254.45-70.83-278.1l15.96,4.7
	c-15.68,101.92-1.97,178.25,18.26,210.32c21.61,34.26,50.81,54.28,50.81,54.28c8.77,5.08,16.53,8.25,21.41,10.05V316.32z"/>
<path class="NeckAndArmTrim fill" d="M349.05,7.15c-3.84,6.67-10.41,16.27-21.12,25.49c-28.64,24.64-63.88,26.66-75.73,26.78
	c-9.05,0.09-45.21-0.53-76.18-25.11c-12.2-9.68-19.74-20.02-24.14-27.16l16.92-5.02c6.34,9.02,21.88,28.1,48.96,36.22
	c14.19,4.26,26.41,3.96,35.74,3.73c14.35-0.35,32.24-0.78,49.9-11.2c14.06-8.3,22.46-19.67,27.35-28.76L349.05,7.15z"/>
</svg>
