<?xml version="1.0" encoding="utf-8"?>
<!-- Generator: Adobe Illustrator 19.1.0, SVG Export Plug-In . SVG Version: 6.00 Build 0)  -->
<svg version="1.1" id="Layer_1" xmlns="http://www.w3.org/2000/svg" xmlns:xlink="http://www.w3.org/1999/xlink" x="0px" y="0px"
	 viewBox="0 0 500 706" style="enable-background:new 0 0 500 706;" xml:space="preserve">
<style type="text/css">
	<![CDATA[
	@font-face{font-family:'codaheavy';src:url('/fonts/coda-heavy-webfont.woff') format('woff')}
	text{font-family:Impact,codaheavy,sans-serif}
	.Colour1.fill{fill:#F9AF2E;}
	.NeckAndArmTrim.fill{fill:#F9AF2E;}
	.Gradient1.stopColor{stop-color: #C54428;}
	.Gradient2.stopColor{stop-color: #DA6F2A;}
	.Gradient3.stopColor{stop-color: #FBB12E;}
	.st0{fill:url(#SVGID_1_);}
	.st1{fill:url(#SVGID_2_);}
	.st2{fill:url(#SVGID_3_);}
	.st3{fill:url(#SVGID_4_);}
	.st4{fill:url(#SVGID_5_);}
	.st5{fill:url(#SVGID_6_);}
	.st6{fill:url(#SVGID_7_);}
	.st7{fill:url(#SVGID_8_);}
	.st8{fill:url(#SVGID_9_);}
	.st9{fill:url(#SVGID_10_);}
	.st10{fill:url(#SVGID_11_);}
	.st11{fill:url(#SVGID_12_);}
	.st12{fill:url(#SVGID_13_);}
	.st13{fill:url(#SVGID_14_);}
	.st14{fill:url(#SVGID_15_);}
	.st15{fill:url(#SVGID_16_);}
	.st16{fill:url(#SVGID_17_);}
	.st17{fill:url(#SVGID_18_);}
	.st18{fill:url(#SVGID_19_);}
	.st19{fill:url(#SVGID_20_);}
	.st20{fill:url(#SVGID_21_);}
	.st21{fill:url(#SVGID_22_);}
	.st22{fill:url(#SVGID_23_);}
	.st23{fill:url(#SVGID_24_);}
	.st24{fill:url(#SVGID_25_);}
	.st25{fill:url(#SVGID_26_);}
	.st26{fill:url(#SVGID_27_);}
	.st27{fill:url(#SVGID_28_);}
	.st28{fill:url(#SVGID_29_);}
	.st29{fill:url(#SVGID_30_);}
	.st30{fill:url(#SVGID_31_);}
	.st31{fill:url(#SVGID_32_);}
	.st32{fill:url(#SVGID_33_);}
	.st33{fill:url(#SVGID_34_);}
	.st34{fill:url(#SVGID_35_);}
	.st35{fill:url(#SVGID_36_);}
	.st36{fill:url(#SVGID_37_);}
	.st37{fill:url(#SVGID_38_);}
	.st38{fill:url(#SVGID_39_);}
	.st39{fill:url(#SVGID_40_);}
	.st40{fill:url(#SVGID_41_);}
	.st41{fill:url(#SVGID_42_);}
	.st42{fill:url(#SVGID_43_);}
	.st43{fill:#FFFFFF;}
	]]>
</style>
<linearGradient id="SVGID_1_" gradientUnits="userSpaceOnUse" x1="249.9998" y1="-0.2525" x2="249.9998" y2="702.0043">
	<stop class="Gradient1 stopColor" offset="0" style="stop-color:#C54428"/>
	<stop class="Gradient2 stopColor" offset="0.4153" style="stop-color:#DA6F2A"/>
	<stop class="Gradient3 stopColor" offset="1" style="stop-color:#FBB12E"/>
</linearGradient>
<path class="st0" d="M315.99,19.52c-22.51,20.41-52.68,21.1-65.53,21.39c-12.26,0.28-28.94,0.66-47.31-8.35
	c-20.27-9.94-30.4-25.31-34.28-32.07c-26.17,7.66-52.34,15.33-78.52,22.99c16.26,88.66,7.03,161.64-13.02,201.12
	c-7.89,15.53-22.12,43.56-54.73,63.14c-8.92,5.36-17,8.75-22.6,10.82v14.64V705.5h500c0-135.56,0-271.11,0-406.67
	c-9.76-3.85-18.38-8.45-26.01-13.53C376.05,220.11,404.94,51.34,410,23.92c-26.4-7.81-52.81-15.61-79.21-23.42
	C328.25,5.26,323.71,12.52,315.99,19.52z"/>
<linearGradient id="SVGID_2_" gradientUnits="userSpaceOnUse" x1="64.8475" y1="3.1532" x2="64.8475" y2="702.5129">
	<stop class="Gradient3 stopColor" offset="0" style="stop-color:#FBB12E"/>
	<stop class="Gradient2 stopColor" offset="0.5847" style="stop-color:#DA6F2A"/>
	<stop class="Gradient1 stopColor" offset="1" style="stop-color:#C54428"/>
</linearGradient>
<rect x="49.57" y="704.73" class="st1" width="30.55" height="0.29"/>
<linearGradient id="SVGID_3_" gradientUnits="userSpaceOnUse" x1="64.8475" y1="3.1532" x2="64.8475" y2="702.5129">
	<stop class="Gradient3 stopColor" offset="0" style="stop-color:#FBB12E"/>
	<stop class="Gradient2 stopColor" offset="0.5847" style="stop-color:#DA6F2A"/>
	<stop class="Gradient1 stopColor" offset="1" style="stop-color:#C54428"/>
</linearGradient>
<path class="st2" d="M80.12,218.69c-0.91,2.04-1.83,4.03-2.79,5.91c-5.25,10.34-13.33,26.22-27.75,41.46v436.95h30.55V218.69z"/>
<linearGradient id="SVGID_4_" gradientUnits="userSpaceOnUse" x1="223.5497" y1="3.1532" x2="223.5497" y2="702.5129">
	<stop class="Gradient3 stopColor" offset="0" style="stop-color:#FBB12E"/>
	<stop class="Gradient2 stopColor" offset="0.5847" style="stop-color:#DA6F2A"/>
	<stop class="Gradient1 stopColor" offset="1" style="stop-color:#C54428"/>
</linearGradient>
<path class="st3" d="M238.82,40.95c-9.01-0.28-19.4-1.58-30.55-6.11v668.16h30.55V40.95z"/>
<linearGradient id="SVGID_5_" gradientUnits="userSpaceOnUse" x1="170.6489" y1="3.1532" x2="170.6489" y2="702.5129">
	<stop class="Gradient3 stopColor" offset="0" style="stop-color:#FBB12E"/>
	<stop class="Gradient2 stopColor" offset="0.5847" style="stop-color:#DA6F2A"/>
	<stop class="Gradient1 stopColor" offset="1" style="stop-color:#C54428"/>
</linearGradient>
<rect x="155.38" y="704.73" class="st4" width="30.55" height="0.29"/>
<linearGradient id="SVGID_6_" gradientUnits="userSpaceOnUse" x1="223.5497" y1="3.1532" x2="223.5497" y2="702.5129">
	<stop class="Gradient3 stopColor" offset="0" style="stop-color:#FBB12E"/>
	<stop class="Gradient2 stopColor" offset="0.5847" style="stop-color:#DA6F2A"/>
	<stop class="Gradient1 stopColor" offset="1" style="stop-color:#C54428"/>
</linearGradient>
<rect x="208.28" y="704.73" class="st5" width="30.55" height="0.29"/>
<linearGradient id="SVGID_7_" gradientUnits="userSpaceOnUse" x1="117.7482" y1="3.1532" x2="117.7482" y2="702.5129">
	<stop class="Gradient3 stopColor" offset="0" style="stop-color:#FBB12E"/>
	<stop class="Gradient2 stopColor" offset="0.5847" style="stop-color:#DA6F2A"/>
	<stop class="Gradient1 stopColor" offset="1" style="stop-color:#C54428"/>
</linearGradient>
<path class="st6" d="M133.02,703.01V11c-10.18,2.98-20.36,5.96-30.55,8.94v683.07H133.02z"/>
<linearGradient id="SVGID_8_" gradientUnits="userSpaceOnUse" x1="117.7482" y1="3.1532" x2="117.7482" y2="702.5129">
	<stop class="Gradient3 stopColor" offset="0" style="stop-color:#FBB12E"/>
	<stop class="Gradient2 stopColor" offset="0.5847" style="stop-color:#DA6F2A"/>
	<stop class="Gradient1 stopColor" offset="1" style="stop-color:#C54428"/>
</linearGradient>
<rect x="102.48" y="704.73" class="st7" width="30.55" height="0.29"/>
<linearGradient id="SVGID_9_" gradientUnits="userSpaceOnUse" x1="329.3511" y1="3.1532" x2="329.3511" y2="702.5129">
	<stop class="Gradient3 stopColor" offset="0" style="stop-color:#FBB12E"/>
	<stop class="Gradient2 stopColor" offset="0.5847" style="stop-color:#DA6F2A"/>
	<stop class="Gradient1 stopColor" offset="1" style="stop-color:#C54428"/>
</linearGradient>
<path class="st8" d="M344.62,703.01V4.59c-4.51-1.33-9.02-2.67-13.53-4c-1.1,1.84-2.38,3.79-3.84,5.8
	c-2.65,3.99-6.29,8.61-11.28,13.13c-0.63,0.57-1.27,1.12-1.91,1.66v681.82H344.62z"/>
<linearGradient id="SVGID_10_" gradientUnits="userSpaceOnUse" x1="276.4503" y1="3.1532" x2="276.4503" y2="702.5129">
	<stop class="Gradient3 stopColor" offset="0" style="stop-color:#FBB12E"/>
	<stop class="Gradient2 stopColor" offset="0.5847" style="stop-color:#DA6F2A"/>
	<stop class="Gradient1 stopColor" offset="1" style="stop-color:#C54428"/>
</linearGradient>
<rect x="261.18" y="704.73" class="st9" width="30.55" height="0.29"/>
<linearGradient id="SVGID_11_" gradientUnits="userSpaceOnUse" x1="382.2517" y1="3.1532" x2="382.2517" y2="702.5129">
	<stop class="Gradient3 stopColor" offset="0" style="stop-color:#FBB12E"/>
	<stop class="Gradient2 stopColor" offset="0.5847" style="stop-color:#DA6F2A"/>
	<stop class="Gradient1 stopColor" offset="1" style="stop-color:#C54428"/>
</linearGradient>
<path class="st10" d="M397.52,703.01V20.23c-10.18-3.01-20.36-6.02-30.55-9.03v691.81H397.52z"/>
<linearGradient id="SVGID_12_" gradientUnits="userSpaceOnUse" x1="276.4503" y1="3.1532" x2="276.4503" y2="702.5129">
	<stop class="Gradient3 stopColor" offset="0" style="stop-color:#FBB12E"/>
	<stop class="Gradient2 stopColor" offset="0.5847" style="stop-color:#DA6F2A"/>
	<stop class="Gradient1 stopColor" offset="1" style="stop-color:#C54428"/>
</linearGradient>
<path class="st11" d="M261.18,703.01h30.55V34.16c-7.94,3.18-15.48,4.72-22.29,5.45c-2.92,0.4-5.69,0.67-8.25,0.85V703.01z"/>
<linearGradient id="SVGID_13_" gradientUnits="userSpaceOnUse" x1="170.6489" y1="3.1532" x2="170.6489" y2="702.5129">
	<stop class="Gradient3 stopColor" offset="0" style="stop-color:#FBB12E"/>
	<stop class="Gradient2 stopColor" offset="0.5847" style="stop-color:#DA6F2A"/>
	<stop class="Gradient1 stopColor" offset="1" style="stop-color:#C54428"/>
</linearGradient>
<path class="st12" d="M168.87,0.5c-4.5,1.32-9,2.63-13.49,3.95v698.56h30.55V21.15C176.76,13.21,171.44,4.97,168.87,0.5z"/>
<linearGradient id="SVGID_14_" gradientUnits="userSpaceOnUse" x1="382.2517" y1="3.1532" x2="382.2517" y2="702.5129">
	<stop class="Gradient3 stopColor" offset="0" style="stop-color:#FBB12E"/>
	<stop class="Gradient2 stopColor" offset="0.5847" style="stop-color:#DA6F2A"/>
	<stop class="Gradient1 stopColor" offset="1" style="stop-color:#C54428"/>
</linearGradient>
<rect x="366.98" y="704.73" class="st13" width="30.55" height="0.29"/>
<linearGradient id="SVGID_15_" gradientUnits="userSpaceOnUse" x1="329.3511" y1="3.1532" x2="329.3511" y2="702.5129">
	<stop class="Gradient3 stopColor" offset="0" style="stop-color:#FBB12E"/>
	<stop class="Gradient2 stopColor" offset="0.5847" style="stop-color:#DA6F2A"/>
	<stop class="Gradient1 stopColor" offset="1" style="stop-color:#C54428"/>
</linearGradient>
<rect x="314.08" y="704.73" class="st14" width="30.55" height="0.29"/>
<linearGradient id="SVGID_16_" gradientUnits="userSpaceOnUse" x1="435.1524" y1="3.1532" x2="435.1524" y2="702.5129">
	<stop class="Gradient3 stopColor" offset="0" style="stop-color:#FBB12E"/>
	<stop class="Gradient2 stopColor" offset="0.5847" style="stop-color:#DA6F2A"/>
	<stop class="Gradient1 stopColor" offset="1" style="stop-color:#C54428"/>
</linearGradient>
<path class="st15" d="M450.43,265.65c-14.95-15.6-23.27-31.95-28.52-42.28c-0.68-1.35-1.36-2.77-2.03-4.22v483.87h30.55V265.65z"/>
<linearGradient id="SVGID_17_" gradientUnits="userSpaceOnUse" x1="435.1524" y1="3.1532" x2="435.1524" y2="702.5129">
	<stop class="Gradient3 stopColor" offset="0" style="stop-color:#FBB12E"/>
	<stop class="Gradient2 stopColor" offset="0.5847" style="stop-color:#DA6F2A"/>
	<stop class="Gradient1 stopColor" offset="1" style="stop-color:#C54428"/>
</linearGradient>
<rect x="419.88" y="704.73" class="st16" width="30.55" height="0.29"/>
<path class="Colour1 fill" d="M375.85,260.06l-3.24,5.59l-0.81,1.4c-0.28,0.46-0.59,0.9-0.89,1.35l-1.79,2.7
	c-2.3,3.65-5.02,7.04-7.58,10.52c-5.46,6.75-11.44,13.11-17.91,19c-13.05,11.69-27.9,21.57-43.88,29.47
	c-7.98,3.96-16.22,7.48-24.66,10.5c-2.1,0.78-4.24,1.45-6.36,2.19c-2.14,0.67-4.27,1.37-6.43,1.99c-1.07,0.32-2.15,0.63-3.23,0.92
	c-1.08,0.3-2.16,0.59-3.25,0.86c-1.94,0.5-3.94,0.98-5.83,1.37c-1.89-0.39-3.89-0.87-5.83-1.37c-1.09-0.27-2.17-0.56-3.25-0.86
	c-1.08-0.29-2.16-0.6-3.23-0.92c-2.16-0.61-4.29-1.32-6.43-1.99c-2.11-0.74-4.26-1.41-6.36-2.19c-8.44-3.02-16.68-6.54-24.66-10.5
	c-15.98-7.9-30.83-17.78-43.88-29.47c-6.47-5.9-12.44-12.26-17.91-19c-2.56-3.48-5.28-6.87-7.58-10.52l-1.79-2.7
	c-0.3-0.45-0.61-0.89-0.89-1.35l-0.81-1.4l-3.24-5.59c-8.21-15.12-13.72-31.52-16.86-48.34c2.13,16.94,6.86,33.72,14.54,49.38
	l3.04,5.8l0.76,1.45c0.27,0.48,0.56,0.94,0.84,1.41l1.7,2.81c2.17,3.82,4.82,7.36,7.32,11c5.33,7.06,11.22,13.77,17.64,20.03
	c12.91,12.47,27.99,22.93,44.21,31.42c8.12,4.23,16.57,7.91,25.22,11.13c2.15,0.83,4.35,1.55,6.53,2.31c2.21,0.7,4.4,1.42,6.63,2.06
	c1.11,0.34,2.23,0.65,3.35,0.96c1.12,0.31,2.24,0.62,3.37,0.9c2.28,0.58,5.11,1.09,7.54,1.56c2.43-0.47,5.27-0.98,7.54-1.56
	c1.13-0.28,2.26-0.58,3.37-0.9c1.12-0.3,2.24-0.62,3.35-0.96c2.23-0.64,4.43-1.36,6.63-2.06c2.18-0.76,4.38-1.48,6.53-2.31
	c8.65-3.22,17.1-6.9,25.22-11.13c16.22-8.49,31.3-18.95,44.21-31.42c6.42-6.26,12.31-12.96,17.64-20.03c2.5-3.64,5.15-7.18,7.32-11
	l1.7-2.81c0.28-0.47,0.58-0.93,0.84-1.41l0.76-1.45l3.04-5.8c7.68-15.66,12.4-32.44,14.54-49.38
	C389.57,228.54,384.06,244.94,375.85,260.06z"/>
<g id="FBodyLogos"></g>
<path class="NeckAndArmTrim fill" d="M500,313.21c-14.19-4.41-26.2-10.21-36.41-16.69c-109.06-69.26-76.4-257.02-72.44-278.17L410,23.92
	c-5.06,27.42-33.95,196.19,63.99,261.38c7.63,5.08,16.25,9.68,26.01,13.53C500,303.62,500,308.42,500,313.21"/>
<path class="NeckAndArmTrim fill" d="M0,313.21v-7.91v-6.73c5.6-2.07,13.68-5.47,22.6-10.82c32.6-19.58,46.84-47.61,54.73-63.14
	c20.05-39.48,29.29-112.46,13.02-201.12l17.57-5.14c3.87,21.26,36.22,212.31-72.93,279.39C25.1,303.82,13.55,309.18,0,313.21"/>
<path class="NeckAndArmTrim fill" d="M168.87,0.5c-0.04,7.29,0.55,17.88,3.64,30.23c3.73,14.94,12.16,48.63,43.13,64.45
	c14.77,7.54,29.04,8.14,34.53,8.15c4.13,0.01,22.45-0.3,40.21-11.15c28.19-17.22,34.57-48.55,37.92-65
	c2.24-11.02,2.58-20.35,2.48-26.68l15.97,4.72c-1.69,47.51-23.18,87.11-53.8,102.42c-20.78,10.39-42.43,11-42.43,11
	s-19.98,1.27-38.48-6.68C174.69,95.9,152.23,54.4,152.75,5.22L168.87,0.5z"/>
<path class="NeckAndArmTrim fill" d="M330.78,0.5c-2.53,4.76-7.07,12.02-14.8,19.03c-22.51,20.41-52.68,21.1-65.53,21.39
	c-12.26,0.28-28.94,0.66-47.31-8.35c-20.27-9.94-30.4-25.31-34.28-32.07c-0.77,13.4,3.64,30.23,3.64,30.23
	c7.63,5.76,36.55,26.15,79.31,25.58c40.55-0.54,67.83-19.6,75.75-25.58C327.57,30.73,331.28,15.47,330.78,0.5z"/>
<path class="st43" d="M290.14,92.18c-17.76,10.84-36.08,11.15-40.21,11.15c-5.49-0.01-19.76-0.61-34.53-8.15
	c-30.97-15.82-39.4-49.51-43.13-64.45c7.63,5.76,36.55,26.15,79.31,25.58c40.55-0.54,67.83-19.6,75.75-25.58
	C323.75,47.82,316.43,76.13,290.14,92.18z"/>
</svg>
