<?xml version="1.0" encoding="utf-8"?>
<!-- Generator: Adobe Illustrator 19.1.0, SVG Export Plug-In . SVG Version: 6.00 Build 0)  -->
<svg version="1.1" id="Layer_1" xmlns="http://www.w3.org/2000/svg" xmlns:xlink="http://www.w3.org/1999/xlink" x="0px" y="0px"
	 viewBox="0 0 500 706" style="enable-background:new 0 0 500 706;" xml:space="preserve">
<style type="text/css">
	<![CDATA[
	@font-face{font-family:'codaheavy';src:url('/fonts/coda-heavy-webfont.woff') format('woff')}
	text{font-family:Impact,codaheavy,sans-serif}
	.Number.fill{fill:#000}
	.NumberOutline.stroke{fill:none;stroke:#777;stroke-width:2.5}
	.Colour1.fill{fill:#F9AF2E;}
	.NeckAndArmTrim.fill{fill:#F9AF2E;}
	.Gradient1.stopColor{stop-color: #C54428;}
	.Gradient2.stopColor{stop-color: #DA6F2A;}
	.Gradient3.stopColor{stop-color: #FBB12E;}
	.st0{fill:url(#SVGID_1_);}
	.st1{fill:url(#SVGID_2_);}
	.st2{fill:url(#SVGID_3_);}
	.st3{fill:url(#SVGID_4_);}
	.st4{fill:url(#SVGID_5_);}
	.st5{fill:url(#SVGID_6_);}
	.st6{fill:url(#SVGID_7_);}
	.st7{fill:url(#SVGID_8_);}
	.st8{fill:url(#SVGID_9_);}
	.st9{fill:url(#SVGID_10_);}
	.st10{fill:url(#SVGID_11_);}
	.st11{fill:url(#SVGID_12_);}
	.st12{fill:url(#SVGID_13_);}
	.st13{fill:url(#SVGID_14_);}
	.st14{fill:url(#SVGID_15_);}
	.st15{fill:url(#SVGID_16_);}
	.st16{fill:url(#SVGID_17_);}
	.st17{fill:url(#SVGID_18_);}
	.st18{fill:url(#SVGID_19_);}
	.st19{fill:url(#SVGID_20_);}
	.st20{fill:url(#SVGID_21_);}
	.st21{fill:url(#SVGID_22_);}
	.st22{fill:url(#SVGID_23_);}
	.st23{fill:url(#SVGID_24_);}
	.st24{fill:url(#SVGID_25_);}
	.st25{fill:url(#SVGID_26_);}
	.st26{fill:url(#SVGID_27_);}
	.st27{fill:url(#SVGID_28_);}
	.st28{fill:url(#SVGID_29_);}
	.st29{fill:url(#SVGID_30_);}
	.st30{fill:url(#SVGID_31_);}
	.st31{fill:url(#SVGID_32_);}
	.st32{fill:url(#SVGID_33_);}
	.st33{fill:url(#SVGID_34_);}
	.st34{fill:url(#SVGID_35_);}
	.st35{fill:url(#SVGID_36_);}
	.st36{fill:url(#SVGID_37_);}
	.st37{fill:url(#SVGID_38_);}
	.st38{fill:url(#SVGID_39_);}
	.st39{fill:url(#SVGID_40_);}
	.st40{fill:url(#SVGID_41_);}
	.st41{fill:url(#SVGID_42_);}
	.st42{fill:url(#SVGID_43_);}
	]]>
</style>
<linearGradient id="SVGID_1_" gradientUnits="userSpaceOnUse" x1="250.0001" y1="-0.2525" x2="250.0001" y2="702.0043">
	<stop class="Gradient1 stopColor" offset="0" style="stop-color:#C54428"/>
	<stop class="Gradient2 stopColor" offset="0.4153" style="stop-color:#DA6F2A"/>
	<stop class="Gradient3 stopColor" offset="1" style="stop-color:#FBB12E"/>
</linearGradient>
<path class="st0" d="M0,298.83C0,434.39,0,569.94,0,705.5h500V313.21v-14.64c-5.6-2.07-13.68-5.47-22.6-10.82
	c-32.6-19.58-46.84-47.61-54.73-63.14c-20.05-39.48-29.29-112.46-13.02-201.12C383.47,15.83,357.3,8.16,331.13,0.5
	c-3.88,6.76-14.01,22.13-34.28,32.07c-18.38,9.01-35.05,8.63-47.31,8.35c-12.84-0.29-43.02-0.98-65.53-21.39
	c-7.72-7-12.26-14.26-14.8-19.02C142.81,8.31,116.41,16.11,90,23.92c5.06,27.42,33.95,196.19-63.99,261.38
	C18.38,290.38,9.76,294.98,0,298.83z"/>
<g>
	<linearGradient id="SVGID_28_" gradientUnits="userSpaceOnUse" x1="64.8474" y1="704.7161" x2="64.8474" y2="705.0239">
		<stop class="Gradient3 stopColor" offset="0" style="stop-color:#FBB12E"/>
		<stop class="Gradient2 stopColor" offset="0.5847" style="stop-color:#DA6F2A"/>
		<stop class="Gradient1 stopColor" offset="1" style="stop-color:#C54428"/>
	</linearGradient>
	<rect x="49.57" y="704.73" class="st27" width="30.55" height="0.29"/>
	<linearGradient id="SVGID_29_" gradientUnits="userSpaceOnUse" x1="117.748" y1="704.7161" x2="117.748" y2="705.0239">
		<stop class="Gradient3 stopColor" offset="0" style="stop-color:#FBB12E"/>
		<stop class="Gradient2 stopColor" offset="0.5847" style="stop-color:#DA6F2A"/>
		<stop class="Gradient1 stopColor" offset="1" style="stop-color:#C54428"/>
	</linearGradient>
	<rect x="102.47" y="704.73" class="st28" width="30.55" height="0.29"/>
	<linearGradient id="SVGID_30_" gradientUnits="userSpaceOnUse" x1="223.5496" y1="704.7161" x2="223.5496" y2="705.0239">
		<stop class="Gradient3 stopColor" offset="0" style="stop-color:#FBB12E"/>
		<stop class="Gradient2 stopColor" offset="0.5847" style="stop-color:#DA6F2A"/>
		<stop class="Gradient1 stopColor" offset="1" style="stop-color:#C54428"/>
	</linearGradient>
	<rect x="208.28" y="704.73" class="st29" width="30.55" height="0.29"/>
	<linearGradient id="SVGID_31_" gradientUnits="userSpaceOnUse" x1="170.6488" y1="704.7161" x2="170.6488" y2="705.0239">
		<stop class="Gradient3 stopColor" offset="0" style="stop-color:#FBB12E"/>
		<stop class="Gradient2 stopColor" offset="0.5847" style="stop-color:#DA6F2A"/>
		<stop class="Gradient1 stopColor" offset="1" style="stop-color:#C54428"/>
	</linearGradient>
	<rect x="155.38" y="704.73" class="st30" width="30.55" height="0.29"/>
	<linearGradient id="SVGID_32_" gradientUnits="userSpaceOnUse" x1="329.351" y1="-23.5766" x2="329.351" y2="730.8769">
		<stop class="Gradient3 stopColor" offset="0" style="stop-color:#FBB12E"/>
		<stop class="Gradient2 stopColor" offset="0.5847" style="stop-color:#DA6F2A"/>
		<stop class="Gradient1 stopColor" offset="1" style="stop-color:#C54428"/>
	</linearGradient>
	<path class="st31" d="M344.62,703.01V4.45c-4.49-1.31-8.98-2.63-13.47-3.94c-0.23,0.39-0.48,0.79-0.73,1.19
		c-2.78,4.65-7.95,12.17-16.35,19.46v681.86H344.62z"/>
	<linearGradient id="SVGID_33_" gradientUnits="userSpaceOnUse" x1="117.748" y1="-12.5154" x2="117.748" y2="730.4527">
		<stop class="Gradient3 stopColor" offset="0" style="stop-color:#FBB12E"/>
		<stop class="Gradient2 stopColor" offset="0.5847" style="stop-color:#DA6F2A"/>
		<stop class="Gradient1 stopColor" offset="1" style="stop-color:#C54428"/>
	</linearGradient>
	<path class="st32" d="M133.02,703.01V11.2c-10.18,3.01-20.36,6.02-30.55,9.03v682.78H133.02z"/>
	<linearGradient id="SVGID_34_" gradientUnits="userSpaceOnUse" x1="64.8474" y1="199.9322" x2="64.8474" y2="722.3048">
		<stop class="Gradient3 stopColor" offset="0" style="stop-color:#FBB12E"/>
		<stop class="Gradient2 stopColor" offset="0.5847" style="stop-color:#DA6F2A"/>
		<stop class="Gradient1 stopColor" offset="1" style="stop-color:#C54428"/>
	</linearGradient>
	<path class="st33" d="M80.12,703.01v-486.4c-3.87,9.37-8.49,18.38-13.92,26.88c-4.83,7.71-10.35,15.01-16.62,21.75v437.77H80.12z"
		/>
	<linearGradient id="SVGID_35_" gradientUnits="userSpaceOnUse" x1="276.4503" y1="11.9398" x2="276.4503" y2="729.5148">
		<stop class="Gradient3 stopColor" offset="0" style="stop-color:#FBB12E"/>
		<stop class="Gradient2 stopColor" offset="0.5847" style="stop-color:#DA6F2A"/>
		<stop class="Gradient1 stopColor" offset="1" style="stop-color:#C54428"/>
	</linearGradient>
	<path class="st34" d="M291.72,34.85c-11.14,4.53-21.54,5.83-30.55,6.11v662.06h30.55V34.85z"/>
	<linearGradient id="SVGID_36_" gradientUnits="userSpaceOnUse" x1="435.1524" y1="202.5528" x2="435.1524" y2="722.2043">
		<stop class="Gradient3 stopColor" offset="0" style="stop-color:#FBB12E"/>
		<stop class="Gradient2 stopColor" offset="0.5847" style="stop-color:#DA6F2A"/>
		<stop class="Gradient1 stopColor" offset="1" style="stop-color:#C54428"/>
	</linearGradient>
	<path class="st35" d="M419.88,219.14v483.87h30.55V266.06c-8.28-8.75-14.47-17.7-19.23-25.7c-3.93-6.47-6.92-12.34-9.28-16.99
		C421.22,222.02,420.55,220.6,419.88,219.14z"/>
	<linearGradient id="SVGID_37_" gradientUnits="userSpaceOnUse" x1="223.5496" y1="11.1881" x2="223.5496" y2="729.5436">
		<stop class="Gradient3 stopColor" offset="0" style="stop-color:#FBB12E"/>
		<stop class="Gradient2 stopColor" offset="0.5847" style="stop-color:#DA6F2A"/>
		<stop class="Gradient1 stopColor" offset="1" style="stop-color:#C54428"/>
	</linearGradient>
	<path class="st36" d="M238.82,703.01V40.46c-8.57-0.62-19.49-2.17-30.55-6.34v668.89H238.82z"/>
	<linearGradient id="SVGID_38_" gradientUnits="userSpaceOnUse" x1="170.6488" y1="-23.5635" x2="170.6488" y2="730.8764">
		<stop class="Gradient3 stopColor" offset="0" style="stop-color:#FBB12E"/>
		<stop class="Gradient2 stopColor" offset="0.5847" style="stop-color:#DA6F2A"/>
		<stop class="Gradient1 stopColor" offset="1" style="stop-color:#C54428"/>
	</linearGradient>
	<path class="st37" d="M155.38,4.59v698.42h30.55V21.19c-0.64-0.54-1.28-1.09-1.91-1.66c-6.18-5.61-10.3-11.36-13.01-15.88
		c-0.64-1.03-1.26-2.07-1.85-3.13C164.56,1.88,159.97,3.23,155.38,4.59z"/>
	<linearGradient id="SVGID_39_" gradientUnits="userSpaceOnUse" x1="382.2517" y1="704.7161" x2="382.2517" y2="705.0239">
		<stop class="Gradient3 stopColor" offset="0" style="stop-color:#FBB12E"/>
		<stop class="Gradient2 stopColor" offset="0.5847" style="stop-color:#DA6F2A"/>
		<stop class="Gradient1 stopColor" offset="1" style="stop-color:#C54428"/>
	</linearGradient>
	<rect x="366.98" y="704.73" class="st38" width="30.55" height="0.29"/>
	<linearGradient id="SVGID_40_" gradientUnits="userSpaceOnUse" x1="276.4503" y1="704.7161" x2="276.4503" y2="705.0239">
		<stop class="Gradient3 stopColor" offset="0" style="stop-color:#FBB12E"/>
		<stop class="Gradient2 stopColor" offset="0.5847" style="stop-color:#DA6F2A"/>
		<stop class="Gradient1 stopColor" offset="1" style="stop-color:#C54428"/>
	</linearGradient>
	<rect x="261.18" y="704.73" class="st39" width="30.55" height="0.29"/>
	<linearGradient id="SVGID_41_" gradientUnits="userSpaceOnUse" x1="329.351" y1="704.7161" x2="329.351" y2="705.0239">
		<stop class="Gradient3 stopColor" offset="0" style="stop-color:#FBB12E"/>
		<stop class="Gradient2 stopColor" offset="0.5847" style="stop-color:#DA6F2A"/>
		<stop class="Gradient1 stopColor" offset="1" style="stop-color:#C54428"/>
	</linearGradient>
	<rect x="314.08" y="704.73" class="st40" width="30.55" height="0.29"/>
	<linearGradient id="SVGID_42_" gradientUnits="userSpaceOnUse" x1="435.1524" y1="704.7161" x2="435.1524" y2="705.0239">
		<stop class="Gradient3 stopColor" offset="0" style="stop-color:#FBB12E"/>
		<stop class="Gradient2 stopColor" offset="0.5847" style="stop-color:#DA6F2A"/>
		<stop class="Gradient1 stopColor" offset="1" style="stop-color:#C54428"/>
	</linearGradient>
	<rect x="419.88" y="704.73" class="st41" width="30.55" height="0.29"/>
	<linearGradient id="SVGID_43_" gradientUnits="userSpaceOnUse" x1="382.2517" y1="-12.7271" x2="382.2517" y2="730.4608">
		<stop class="Gradient3 stopColor" offset="0" style="stop-color:#FBB12E"/>
		<stop class="Gradient2 stopColor" offset="0.5847" style="stop-color:#DA6F2A"/>
		<stop class="Gradient1 stopColor" offset="1" style="stop-color:#C54428"/>
	</linearGradient>
	<path class="st42" d="M397.52,703.01V19.94c-10.18-2.98-20.36-5.96-30.55-8.94v692.01H397.52z"/>
</g>
<path class="Colour1 fill" d="M375.85,260.06l-3.24,5.59l-0.81,1.4c-0.28,0.46-0.59,0.9-0.89,1.35l-1.79,2.7
	c-2.3,3.65-5.02,7.04-7.58,10.52c-5.46,6.75-11.44,13.11-17.91,19c-13.05,11.69-27.9,21.57-43.88,29.47
	c-7.98,3.96-16.22,7.48-24.66,10.5c-2.1,0.78-4.24,1.45-6.36,2.19c-2.14,0.67-4.27,1.37-6.43,1.99c-1.07,0.32-2.15,0.63-3.23,0.92
	c-1.08,0.3-2.16,0.59-3.25,0.86c-1.94,0.5-3.94,0.98-5.82,1.37c-1.89-0.39-3.89-0.87-5.83-1.37c-1.09-0.27-2.17-0.56-3.25-0.86
	c-1.08-0.29-2.16-0.6-3.23-0.92c-2.16-0.61-4.29-1.32-6.43-1.99c-2.11-0.74-4.26-1.41-6.36-2.19c-8.44-3.02-16.68-6.54-24.66-10.5
	c-15.98-7.9-30.83-17.78-43.88-29.47c-6.47-5.9-12.44-12.26-17.91-19c-2.56-3.48-5.28-6.87-7.58-10.52l-1.79-2.7
	c-0.3-0.45-0.61-0.89-0.89-1.35l-0.81-1.4l-3.24-5.59c-8.21-15.12-13.72-31.52-16.86-48.34c2.13,16.94,6.86,33.72,14.54,49.38
	l3.04,5.8l0.76,1.45c0.27,0.48,0.56,0.94,0.84,1.41l1.7,2.81c2.17,3.82,4.82,7.36,7.32,11c5.33,7.06,11.22,13.77,17.64,20.03
	c12.91,12.47,27.99,22.93,44.21,31.42c8.12,4.23,16.57,7.91,25.22,11.13c2.15,0.83,4.35,1.55,6.53,2.31c2.21,0.7,4.4,1.42,6.63,2.06
	c1.11,0.34,2.23,0.65,3.35,0.96c1.12,0.31,2.24,0.62,3.37,0.9c2.28,0.58,5.11,1.09,7.54,1.56c2.43-0.47,5.27-0.98,7.54-1.56
	c1.13-0.28,2.26-0.58,3.37-0.9c1.12-0.3,2.24-0.62,3.35-0.96c2.23-0.64,4.43-1.36,6.63-2.06c2.18-0.76,4.38-1.48,6.53-2.31
	c8.65-3.22,17.1-6.9,25.22-11.13c16.22-8.49,31.3-18.95,44.21-31.42c6.42-6.26,12.31-12.96,17.64-20.03c2.5-3.64,5.15-7.18,7.32-11
	l1.7-2.81c0.28-0.47,0.58-0.93,0.84-1.41l0.76-1.45l3.04-5.8c7.68-15.66,12.4-32.44,14.54-49.38
	C389.57,228.54,384.06,244.94,375.85,260.06z"/>
<g id="BBodyLogos"></g>
<path class="NeckAndArmTrim fill" d="M500,315.42c-10.47-3.58-26.35-10.09-42.57-21.92c-75.09-54.79-73.4-162.31-72.75-203.19
	c0.41-25.85,3.59-49.81,8.33-71.59l16.64,4.77c-1.81,11.69-4.76,28.76-6.19,49.5c-2.33,33.83-4.25,61.64,2.04,95.42
	c5.1,27.36,12.49,54.3,33.72,84.83c18.43,26.5,45.17,38.66,60.78,45.63V315.42z"/>
<path class="NeckAndArmTrim fill" d="M0,315.42c13.83-4.92,25.58-11.06,35.6-17.8c108-72.63,75.39-255.04,70.83-278.74L90,23.92
	c15.68,102.16,1.07,179.69-19.16,211.82c-21.61,34.34-49.44,53.05-49.44,53.05c-8.77,5.09-16.53,8.27-21.41,10.08L0,315.42z"/>
<path class="NeckAndArmTrim fill" d="M150.95,5.53c3.84,6.68,10.41,16.31,21.12,25.55c28.64,24.7,63.88,26.73,75.73,26.84
	c9.05,0.09,45.21-0.53,76.18-25.16c12.2-9.7,19.74-20.06,24.14-27.22L331.2,0.5c-6.34,9.04-21.88,28.17-48.96,36.31
	c-14.19,4.27-26.41,3.97-35.74,3.74c-14.35-0.35-31.57-2.02-48.89-11.34c-14.39-7.74-23.47-19.61-28.36-28.71L150.95,5.53z"/>
</svg>
