<?xml version="1.0" encoding="utf-8"?>
<!-- Generator: Adobe Illustrator 19.1.0, SVG Export Plug-In . SVG Version: 6.00 Build 0)  -->
<svg version="1.1" id="Layer_1" xmlns="http://www.w3.org/2000/svg" xmlns:xlink="http://www.w3.org/1999/xlink" x="0px" y="0px"
	 viewBox="0 0 500 706" style="enable-background:new 0 0 500 706;" xml:space="preserve">
<style type="text/css">
	<![CDATA[
	@font-face{font-family:'codaheavy';src:url('/fonts/coda-heavy-webfont.woff') format('woff')}
	text{font-family:Impact,codaheavy,sans-serif}
	.Colour1.fill{fill:#0E9DD5;}
	.Colour2.fill{fill:#FDDC0D;}
	.Colour3.fill{fill:#221F1F;}
	.NeckAndArmTrim.fill{fill:#FDDC0D;}
	.Gradient1.stopColor{stop-color:#0E9DD5;}
	.Gradient2.stopColor{stop-color:#FDDC0D;}
	.st0{fill:url(#SVGID_1_);}
	.st1{fill:url(#SVGID_2_);}
	.st2{fill:url(#SVGID_3_);}
	.st3{fill:url(#SVGID_4_);}
	.st4{fill:url(#SVGID_5_);}
	.st5{fill:url(#SVGID_6_);}
	.st6{fill:url(#SVGID_7_);}
	.st7{fill:url(#SVGID_8_);}
	.st8{fill:url(#SVGID_9_);}
	.st9{fill:url(#SVGID_10_);}
	.st10{fill:#FDDC0D;}
	.st11{fill:#FFFFFF;}
	.st12{fill:none;stroke:#221F1F;stroke-width:0.5;stroke-miterlimit:10;stroke-dasharray:4,2.4;}
	]]>
</style>
<path class="Colour1 fill" d="M316.54,19.57c-22.36,20.46-52.32,21.15-65.08,21.44c-12.18,0.28-28.74,0.66-46.99-8.37
	c-20.13-9.96-30.19-25.37-34.04-32.15c-25.99,7.68-51.99,15.36-77.98,23.04c16.15,88.86,6.98,162.01-12.93,201.58
	c-7.83,15.57-21.97,43.66-54.36,63.29c-8.86,5.37-16.88,8.77-22.45,10.85v14.67V705.5h496.6c0-135.87,0-270.11,0-405.98
	c-9.69-3.86-18.25-8.47-25.84-13.56c-97.27-65.34-68.58-234.51-63.55-261.99c-26.22-7.82-52.45-15.65-78.67-23.47
	C328.72,5.28,324.21,12.55,316.54,19.57z"/>
<path class="Colour1 fill" d="M400.36,551.57l-7.52,153.69v0.24H499.3c0-74.98,0-149.95,0-224.93L400.36,551.57z"/>
<polygon class="Colour1 fill" points="109.1,705.45 101.58,551.78 2.7,480.8 2.7,705.5 109.1,705.5 "/>
<g>
	<path class="Colour3 fill" d="M137.88,498.79c0.04,5.57,0.07,11.66,0.1,18.36l110.92,54.68l115.05-54.75c0.03-6.65,0.06-12.7,0.1-18.24
		l-115.16,52.52L137.88,498.79z"/>
	<path class="Colour3 fill" d="M363.76,555.4c0.05-7.04,0.08-13.64,0.12-19.8l-114.95,58l-110.84-55.85c0.03,5.84,0.07,12.09,0.12,18.71
		l110.72,56.23L363.76,555.4z"/>
	<path class="Colour3 fill" d="M363.42,596.98c0.07-6.9,0.13-13.52,0.18-19.87l-114.8,55.55l-110.44-55.45
		c0.05,6.33,0.11,12.93,0.18,19.81l110.39,56.09L363.42,596.98z"/>
	<path class="Colour3 fill" d="M363.2,618.28l-114.28,56.27l-110.17-56.11c0.08,7.1,0.16,14.46,0.26,22.05l109.92,57.17l114.02-57.25
		C363.03,632.8,363.12,625.42,363.2,618.28z"/>
	<path class="Colour3 fill" d="M137.52,477.12l111.39,53.78l115.51-53.85c0.2-6.75,0.51-12.63,0.98-18.05l-116.49,55.16l-112.37-55.12
		C137.01,464.48,137.32,470.36,137.52,477.12z"/>
</g>
<g>
	<linearGradient id="SVGID_1_" gradientUnits="userSpaceOnUse" x1="251.1275" y1="188.6927" x2="251.1275" y2="426.3836">
		<stop class="Gradient1 stopColor" offset="0" style="stop-color:#0E9DD5;stop-opacity:0"/>
		<stop class="Gradient2 stopColor" offset="1" style="stop-color:#FDDC0D"/>
	</linearGradient>
	<path class="st0" d="M99.57,342.23c6.72,3.96,13.4,7.96,20.03,12.01l19.84,12.23l19.69,12.4c6.56,4.14,13.04,8.36,19.57,12.54
		c6.53,4.17,13.03,8.38,19.48,12.64l19.41,12.72l38.54,25.76h-5.94l18.76-12.54c6.27-4.16,12.48-8.4,18.79-12.51l18.9-12.38
		c6.28-4.15,12.63-8.22,18.98-12.29c6.36-4.06,12.66-8.18,19.06-12.19l19.18-12.06l19.32-11.9c6.46-3.95,12.97-7.84,19.51-11.69
		c-5.92,4.56-11.87,9.09-17.88,13.55l-18.06,13.34l-18.21,13.18c-6.06,4.4-12.22,8.69-18.32,13.05c-6.11,4.34-12.22,8.69-18.4,12.95
		l-18.48,12.86c-6.14,4.3-12.4,8.49-18.59,12.74l-18.62,12.7l-2.97,2.02l-2.97-2.02l-38.25-26.09l-18.99-13.2
		c-6.34-4.38-12.65-8.81-18.91-13.29c-6.27-4.46-12.59-8.88-18.83-13.39l-18.71-13.52l-18.56-13.69
		C111.78,351.56,105.66,346.91,99.57,342.23z"/>
	<linearGradient id="SVGID_2_" gradientUnits="userSpaceOnUse" x1="251.1275" y1="188.6927" x2="251.1275" y2="426.3836">
		<stop class="Gradient1 stopColor" offset="0" style="stop-color:#0E9DD5;stop-opacity:0"/>
		<stop class="Gradient2 stopColor" offset="1" style="stop-color:#FDDC0D"/>
	</linearGradient>
	<path class="st1" d="M99.57,321.63c6.72,3.96,13.4,7.96,20.03,12.01l19.84,12.23l19.69,12.4c6.56,4.14,13.04,8.36,19.57,12.54
		c6.53,4.17,13.03,8.38,19.48,12.64l19.41,12.72l38.54,25.76h-5.94l18.76-12.54c6.27-4.16,12.48-8.4,18.79-12.51l18.9-12.38
		c6.28-4.15,12.63-8.22,18.98-12.29c6.36-4.06,12.66-8.18,19.06-12.19l19.18-12.06l19.32-11.9c6.46-3.95,12.97-7.84,19.51-11.69
		c-5.92,4.56-11.87,9.09-17.88,13.55l-18.06,13.34l-18.21,13.18c-6.06,4.4-12.22,8.69-18.32,13.05c-6.11,4.34-12.22,8.69-18.4,12.95
		l-18.48,12.86c-6.14,4.3-12.4,8.49-18.59,12.74l-18.62,12.7l-2.97,2.02l-2.97-2.02l-38.25-26.09l-18.99-13.2
		c-6.34-4.38-12.65-8.81-18.91-13.29c-6.27-4.46-12.59-8.88-18.83-13.39l-18.71-13.52l-18.56-13.69
		C111.78,330.96,105.66,326.32,99.57,321.63z"/>
	<linearGradient id="SVGID_3_" gradientUnits="userSpaceOnUse" x1="251.1275" y1="188.6927" x2="251.1275" y2="426.3836">
		<stop class="Gradient1 stopColor" offset="0" style="stop-color:#0E9DD5;stop-opacity:0"/>
		<stop class="Gradient2 stopColor" offset="1" style="stop-color:#FDDC0D"/>
	</linearGradient>
	<path class="st2" d="M99.57,301.04c6.72,3.96,13.4,7.96,20.03,12.01l19.84,12.23l19.69,12.4c6.56,4.14,13.04,8.36,19.57,12.54
		c6.53,4.17,13.03,8.38,19.48,12.64l19.41,12.72l38.54,25.76h-5.94l18.76-12.54c6.27-4.16,12.48-8.4,18.79-12.51l18.9-12.38
		c6.28-4.15,12.63-8.22,18.98-12.29c6.36-4.06,12.66-8.18,19.06-12.19l19.18-12.06l19.32-11.9c6.46-3.95,12.97-7.84,19.51-11.69
		c-5.92,4.56-11.87,9.09-17.88,13.55l-18.06,13.34l-18.21,13.18c-6.06,4.4-12.22,8.69-18.32,13.05c-6.11,4.34-12.22,8.69-18.4,12.95
		l-18.48,12.86c-6.14,4.3-12.4,8.49-18.59,12.74l-18.62,12.7l-2.97,2.02l-2.97-2.02l-38.25-26.09l-18.99-13.2
		c-6.34-4.38-12.65-8.81-18.91-13.29c-6.27-4.46-12.59-8.88-18.83-13.39l-18.71-13.52l-18.56-13.69
		C111.78,310.36,105.66,305.72,99.57,301.04z"/>
	<linearGradient id="SVGID_4_" gradientUnits="userSpaceOnUse" x1="251.1275" y1="188.6927" x2="251.1275" y2="426.3836">
		<stop class="Gradient1 stopColor" offset="0" style="stop-color:#0E9DD5;stop-opacity:0"/>
		<stop class="Gradient2 stopColor" offset="1" style="stop-color:#FDDC0D"/>
	</linearGradient>
	<path class="st3" d="M99.57,280.44c6.72,3.96,13.4,7.96,20.03,12.01l19.84,12.23l19.69,12.4c6.56,4.14,13.04,8.36,19.57,12.54
		c6.53,4.17,13.03,8.38,19.48,12.64l19.41,12.72l38.54,25.76h-5.94l18.76-12.54c6.27-4.16,12.48-8.4,18.79-12.51l18.9-12.38
		c6.28-4.15,12.63-8.22,18.98-12.29c6.36-4.06,12.66-8.18,19.06-12.19l19.18-12.06l19.32-11.9c6.46-3.95,12.97-7.84,19.51-11.69
		c-5.92,4.56-11.87,9.09-17.88,13.55l-18.06,13.34l-18.21,13.18c-6.06,4.4-12.22,8.69-18.32,13.05c-6.11,4.34-12.22,8.69-18.4,12.95
		l-18.48,12.86c-6.14,4.3-12.4,8.49-18.59,12.74l-18.62,12.7l-2.97,2.02l-2.97-2.02l-38.25-26.09l-18.99-13.2
		c-6.34-4.38-12.65-8.81-18.91-13.29c-6.27-4.46-12.59-8.88-18.83-13.39l-18.71-13.52l-18.56-13.69
		C111.78,289.76,105.66,285.12,99.57,280.44z"/>
	<linearGradient id="SVGID_5_" gradientUnits="userSpaceOnUse" x1="251.1275" y1="188.6927" x2="251.1275" y2="426.3836">
		<stop class="Gradient1 stopColor" offset="0" style="stop-color:#0E9DD5;stop-opacity:0"/>
		<stop class="Gradient2 stopColor" offset="1" style="stop-color:#FDDC0D"/>
	</linearGradient>
	<path class="st4" d="M99.57,259.84c6.72,3.96,13.4,7.96,20.03,12.01l19.84,12.23l19.69,12.4c6.56,4.14,13.04,8.36,19.57,12.54
		c6.53,4.17,13.03,8.38,19.48,12.64l19.41,12.72l38.54,25.76h-5.94l18.76-12.54c6.27-4.16,12.48-8.4,18.79-12.51l18.9-12.38
		c6.28-4.15,12.63-8.22,18.98-12.29c6.36-4.06,12.66-8.18,19.06-12.19l19.18-12.06l19.32-11.9c6.46-3.95,12.97-7.84,19.51-11.69
		c-5.92,4.56-11.87,9.09-17.88,13.55l-18.06,13.34l-18.21,13.18c-6.06,4.4-12.22,8.69-18.32,13.05c-6.11,4.34-12.22,8.69-18.4,12.95
		l-18.48,12.86c-6.14,4.3-12.4,8.49-18.59,12.74l-18.62,12.7l-2.97,2.02l-2.97-2.02l-38.25-26.09l-18.99-13.2
		c-6.34-4.38-12.65-8.81-18.91-13.29c-6.27-4.46-12.59-8.88-18.83-13.39l-18.71-13.52l-18.56-13.69
		C111.78,269.17,105.66,264.53,99.57,259.84z"/>
	<linearGradient id="SVGID_6_" gradientUnits="userSpaceOnUse" x1="251.1275" y1="188.6927" x2="251.1275" y2="426.3836">
		<stop class="Gradient1 stopColor" offset="0" style="stop-color:#0E9DD5;stop-opacity:0"/>
		<stop class="Gradient2 stopColor" offset="1" style="stop-color:#FDDC0D"/>
	</linearGradient>
	<path class="st5" d="M99.57,239.24c6.72,3.96,13.4,7.96,20.03,12.01l19.84,12.23l19.69,12.4c6.56,4.14,13.04,8.36,19.57,12.54
		c6.53,4.17,13.03,8.38,19.48,12.64l19.41,12.72l38.54,25.76h-5.94L268.94,327c6.27-4.16,12.48-8.4,18.79-12.51l18.9-12.38
		c6.28-4.15,12.63-8.22,18.98-12.29c6.36-4.06,12.66-8.18,19.06-12.19l19.18-12.06l19.32-11.9c6.46-3.95,12.97-7.84,19.51-11.69
		c-5.92,4.56-11.87,9.09-17.88,13.55l-18.06,13.34l-18.21,13.18c-6.06,4.4-12.22,8.69-18.32,13.05c-6.11,4.34-12.22,8.69-18.4,12.95
		l-18.48,12.86c-6.14,4.3-12.4,8.49-18.59,12.74l-18.62,12.7l-2.97,2.02l-2.97-2.02l-38.25-26.09l-18.99-13.2
		c-6.34-4.38-12.65-8.81-18.91-13.29c-6.27-4.46-12.59-8.88-18.83-13.39l-18.71-13.52l-18.56-13.69
		C111.78,248.57,105.66,243.93,99.57,239.24z"/>
	<linearGradient id="SVGID_7_" gradientUnits="userSpaceOnUse" x1="251.1275" y1="188.6927" x2="251.1275" y2="426.3836">
		<stop class="Gradient1 stopColor" offset="0" style="stop-color:#0E9DD5;stop-opacity:0"/>
		<stop class="Gradient2 stopColor" offset="1" style="stop-color:#FDDC0D"/>
	</linearGradient>
	<path class="st6" d="M99.57,218.65c6.72,3.96,13.4,7.96,20.03,12.01l19.84,12.23l19.69,12.4c6.56,4.14,13.04,8.36,19.57,12.54
		c6.53,4.17,13.03,8.38,19.48,12.64l19.41,12.72l38.54,25.76h-5.94l18.76-12.54c6.27-4.16,12.48-8.4,18.79-12.51l18.9-12.38
		c6.28-4.15,12.63-8.22,18.98-12.29c6.36-4.06,12.66-8.18,19.06-12.19l19.18-12.06l19.32-11.9c6.46-3.95,12.97-7.84,19.51-11.69
		c-5.92,4.56-11.87,9.09-17.88,13.55l-18.06,13.34l-18.21,13.18c-6.06,4.4-12.22,8.69-18.32,13.05c-6.11,4.34-12.22,8.69-18.4,12.95
		l-18.48,12.86c-6.14,4.3-12.4,8.49-18.59,12.74l-18.62,12.7l-2.97,2.02l-2.97-2.02l-38.25-26.09l-18.99-13.2
		c-6.34-4.38-12.65-8.81-18.91-13.29c-6.27-4.46-12.59-8.88-18.83-13.39l-18.71-13.52l-18.56-13.69
		C111.78,227.97,105.66,223.33,99.57,218.65z"/>
	<linearGradient id="SVGID_8_" gradientUnits="userSpaceOnUse" x1="251.1275" y1="188.6927" x2="251.1275" y2="426.3836">
		<stop class="Gradient1 stopColor" offset="0" style="stop-color:#0E9DD5;stop-opacity:0"/>
		<stop class="Gradient2 stopColor" offset="1" style="stop-color:#FDDC0D"/>
	</linearGradient>
	<path class="st7" d="M99.57,198.05c6.72,3.96,13.4,7.96,20.03,12.01l19.84,12.23l19.69,12.4c6.56,4.14,13.04,8.36,19.57,12.54
		c6.53,4.17,13.03,8.38,19.48,12.64l19.41,12.72l38.54,25.76h-5.94l18.76-12.54c6.27-4.16,12.48-8.4,18.79-12.51l18.9-12.38
		c6.28-4.15,12.63-8.22,18.98-12.29c6.36-4.06,12.66-8.18,19.06-12.19l19.18-12.06l19.32-11.9c6.46-3.95,12.97-7.84,19.51-11.69
		c-5.92,4.56-11.87,9.09-17.88,13.55l-18.06,13.34l-18.21,13.18c-6.06,4.4-12.22,8.69-18.32,13.05c-6.11,4.34-12.22,8.69-18.4,12.95
		l-18.48,12.86c-6.14,4.3-12.4,8.49-18.59,12.74l-18.62,12.7l-2.97,2.02l-2.97-2.02l-38.25-26.09l-18.99-13.2
		c-6.34-4.38-12.65-8.81-18.91-13.29c-6.27-4.46-12.59-8.88-18.83-13.39l-18.71-13.52l-18.56-13.69
		C111.78,207.37,105.66,202.73,99.57,198.05z"/>
	<linearGradient id="SVGID_9_" gradientUnits="userSpaceOnUse" x1="251.1275" y1="188.6927" x2="251.1275" y2="426.3836">
		<stop class="Gradient1 stopColor" offset="0" style="stop-color:#0E9DD5;stop-opacity:0"/>
		<stop class="Gradient2 stopColor" offset="1" style="stop-color:#FDDC0D"/>
	</linearGradient>
	<path class="st8" d="M99.57,177.45c6.72,3.96,13.4,7.96,20.03,12.01l19.84,12.23l19.69,12.4c6.56,4.14,13.04,8.36,19.57,12.54
		c6.53,4.17,13.03,8.38,19.48,12.64l19.41,12.72l38.54,25.76h-5.94l18.76-12.54c6.27-4.16,12.48-8.4,18.79-12.51l18.9-12.38
		c6.28-4.15,12.63-8.22,18.98-12.29c6.36-4.06,12.66-8.18,19.06-12.19l19.18-12.06l19.32-11.9c6.46-3.95,12.97-7.84,19.51-11.69
		c-5.92,4.56-11.87,9.09-17.88,13.55l-18.06,13.34l-18.21,13.18c-6.06,4.4-12.22,8.69-18.32,13.05c-6.11,4.34-12.22,8.69-18.4,12.95
		l-18.48,12.86c-6.14,4.3-12.4,8.49-18.59,12.74l-18.62,12.7l-2.97,2.02l-2.97-2.02l-38.25-26.09l-18.99-13.2
		c-6.34-4.38-12.65-8.81-18.91-13.29c-6.27-4.46-12.59-8.88-18.83-13.39l-18.71-13.52l-18.56-13.69
		C111.78,186.78,105.66,182.14,99.57,177.45z"/>
	<linearGradient id="SVGID_10_" gradientUnits="userSpaceOnUse" x1="251.1275" y1="188.6927" x2="251.1275" y2="426.3836">
		<stop class="Gradient1 stopColor" offset="0" style="stop-color:#0E9DD5;stop-opacity:0"/>
		<stop class="Gradient2 stopColor" offset="1" style="stop-color:#FDDC0D"/>
	</linearGradient>
	<path class="st9" d="M99.57,156.85c6.72,3.96,13.4,7.96,20.03,12.01l19.84,12.23l19.69,12.4c6.56,4.14,13.04,8.36,19.57,12.54
		c6.53,4.17,13.03,8.38,19.48,12.64l19.41,12.72l38.54,25.76h-5.94l18.76-12.54c6.27-4.16,12.48-8.4,18.79-12.51l18.9-12.38
		c6.28-4.15,12.63-8.22,18.98-12.29c6.36-4.06,12.66-8.18,19.06-12.19l19.18-12.06l19.32-11.9c6.46-3.95,12.97-7.84,19.51-11.69
		c-5.92,4.56-11.87,9.09-17.88,13.55l-18.06,13.34l-18.21,13.18c-6.06,4.4-12.22,8.69-18.32,13.05c-6.11,4.34-12.22,8.69-18.4,12.95
		l-18.48,12.86c-6.14,4.3-12.4,8.49-18.59,12.74l-18.62,12.7l-2.97,2.02l-2.97-2.02l-38.25-26.09l-18.99-13.2
		c-6.34-4.38-12.65-8.81-18.91-13.29c-6.27-4.46-12.59-8.88-18.83-13.39l-18.71-13.52l-18.56-13.69
		C111.78,166.18,105.66,161.54,99.57,156.85z"/>
<g id="FBodyLogos"></g>
</g>
<path class="Colour2 fill" d="M441.59,256.22c-4.52,16.14-11.28,37.59-21.06,61.65c-22.37,55.07-38.62,69.78-49.7,110.66
	c-6.9,25.46-6.65,42.11-6.91,97.52c-0.17,39.06-0.62,99.69-1.9,178.59h14.28c1.25-76.95,1.68-136.07,1.85-174.21
	c0.06-12.46,0.09-22.91,0.2-31.92c0.31-30.29,1.37-44.38,6.57-63.59c10.84-40.02,26.75-54.43,48.67-108.35
	c8.94-22.01,15.3-41.79,19.71-57.17C448.89,265.05,445.01,260.61,441.59,256.22z"/>
<path class="st10" d="M95.85,62.84c-0.08-0.93-0.16-1.86-0.24-2.78C95.69,60.98,95.77,61.91,95.85,62.84z"/>
<path class="st10" d="M93.52,40.73c-0.11-0.83-0.21-1.65-0.32-2.46C93.31,39.08,93.42,39.9,93.52,40.73z"/>
<path class="st10" d="M94.76,51.32c-0.09-0.87-0.19-1.74-0.28-2.59C94.57,49.58,94.66,50.45,94.76,51.32z"/>
<path class="st10" d="M95.32,56.97c-0.09-0.9-0.17-1.79-0.26-2.68C95.15,55.18,95.24,56.07,95.32,56.97z"/>
<path class="st10" d="M92.87,35.8c-0.11-0.82-0.22-1.61-0.34-2.4C92.65,34.2,92.76,34.99,92.87,35.8z"/>
<path class="st10" d="M94.15,45.91c-0.1-0.86-0.2-1.7-0.3-2.53C93.95,44.21,94.05,45.05,94.15,45.91z"/>
<path class="st10" d="M90.27,18.92c-0.21-1.21-0.41-2.36-0.61-3.46C89.86,16.56,90.06,17.72,90.27,18.92z"/>
<path class="st10" d="M92.22,31.16c-0.12-0.81-0.23-1.58-0.35-2.36C91.98,29.58,92.1,30.35,92.22,31.16z"/>
<path class="st10" d="M91.55,26.77c-0.12-0.79-0.24-1.55-0.37-2.31C91.31,25.22,91.43,25.98,91.55,26.77z"/>
<path class="st10" d="M90.9,22.69c-0.14-0.85-0.28-1.66-0.41-2.46C90.63,21.03,90.76,21.83,90.9,22.69z"/>
<path class="st10" d="M405.24,71.13c0.14-2,0.3-4.02,0.47-6.05C405.55,67.11,405.39,69.13,405.24,71.13z"/>
<path class="st10" d="M96.32,68.9c-0.07-0.96-0.14-1.92-0.21-2.86C96.18,66.98,96.25,67.94,96.32,68.9z"/>
<path class="st10" d="M406.13,60.4c0.19-2.08,0.41-4.19,0.63-6.3C406.54,56.21,406.32,58.32,406.13,60.4z"/>
<path class="st10" d="M404.22,91.94c0.05-1.94,0.11-3.89,0.19-5.87C404.33,88.05,404.27,90,404.22,91.94z"/>
<path class="st10" d="M404.61,81.64c0.1-1.95,0.2-3.92,0.33-5.9C404.82,77.72,404.71,79.68,404.61,81.64z"/>
<path class="st10" d="M407.27,49.42c0.26-2.22,0.54-4.47,0.83-6.73C407.81,44.95,407.52,47.2,407.27,49.42z"/>
<path class="st10" d="M97.06,81.6c-0.05-1.02-0.09-2.04-0.14-3.05C96.97,79.56,97.02,80.58,97.06,81.6z"/>
<path class="st10" d="M408.67,38.2c0.34-2.52,0.73-5.08,1.12-7.63C409.4,33.13,409.02,35.68,408.67,38.2z"/>
<path class="st10" d="M96.72,75.12c-0.06-0.97-0.11-1.95-0.17-2.9C96.61,73.17,96.67,74.15,96.72,75.12z"/>
<path class="st10" d="M410.36,26.74c0.61-3.86,1.27-7.77,1.98-11.71C411.63,18.98,410.97,22.88,410.36,26.74z"/>
<path class="st10" d="M97.32,88.36c-0.03-1.11-0.06-2.23-0.11-3.33C97.26,86.13,97.29,87.25,97.32,88.36z"/>
<path class="Colour3 fill" d="M316.54,19.57c-22.36,20.46-52.32,21.15-65.08,21.44c-12.18,0.28-28.74,0.66-46.99-8.37
	c-20.13-9.96-30.19-25.37-34.04-32.15c-25.99,7.68-51.99,15.36-77.98,23.04c4.75,26.15,7.3,50.92,8.04,73.89
	c56.77-14.87,174.53-35.88,301.79-0.32c0.97-35.08,5.84-63.26,7.64-73.14c-26.22-7.82-52.45-15.65-78.67-23.47
	C328.72,5.28,324.21,12.55,316.54,19.57z"/>
<path class="Colour3 fill" d="M433.59,326.56c-21.92,53.93-37.83,68.33-48.67,108.35c-5.2,19.21-6.26,33.3-6.57,63.59l11.88-13.67
	L499.3,361.25c0-20.57,0-41.15,0-61.72c-9.69-3.86-18.25-8.47-25.84-13.56c-5.25-3.53-10.11-7.37-14.65-11.47
	c-1.92-1.68-3.76-3.38-5.51-5.1C448.89,284.78,442.53,304.55,433.59,326.56z"/>
<path class="Colour3 fill" d="M48.76,269.96c-6.56,6.52-14.33,12.83-23.61,18.45c-8.86,5.37-16.88,8.77-22.45,10.85v14.67v49.18
	l109.01,121.91l11.9,13.67c-0.33-30.27-1.38-44.38-6.59-63.59c-10.84-40.02-26.75-54.43-48.67-108.35
	C59.48,304.93,53.15,285.29,48.76,269.96z"/>
<path class="Colour2 fill" d="M117.02,435.11c5.2,19.21,6.26,33.32,6.59,63.59c0.09,9.01,0.12,19.46,0.19,31.92
	c0.17,38.1,0.62,97.16,1.84,174.02h14.29c-1.28-78.81-1.71-139.37-1.9-178.4c-0.26-55.4-0.02-72.07-6.91-97.52
	c-11.08-40.87-27.33-55.59-49.7-110.66c-9.73-23.93-16.46-45.27-20.98-61.38c-3.4,4.42-7.26,8.89-11.68,13.28
	c4.4,15.34,10.73,34.97,19.59,56.79C90.27,380.68,106.18,395.09,117.02,435.11z"/>
<path class="Colour1 fill" d="M109.1,705.45v0.05h16.54c-1.23-77.28-1.68-136.63-1.85-174.88c-0.06-12.46-0.09-22.91-0.19-31.92
	l-11.9-13.67l-0.11,0.09L2.7,381.93v68.82l106.4,96.95V705.45z"/>
<polygon class="Colour3 fill" points="109.1,705.45 109.1,547.7 2.7,450.75 2.7,480.8 101.58,551.78 "/>
<polygon class="Colour2 fill" points="90.81,571.83 2.7,508.2 2.7,705.45 90.81,705.45 "/>
<path class="Colour1 fill" d="M390.34,484.93l-0.11-0.09l-11.88,13.67c-0.11,9.01-0.14,19.46-0.2,31.92
	c-0.17,38.28-0.61,97.7-1.86,175.07h16.56v-0.24V547.51l106.45-97c0-22.94,0-45.88,0-68.83L390.34,484.93z"/>
<path class="Colour3 fill" d="M392.85,547.51v157.76l7.52-153.69l98.93-71c0-10.02,0-20.04,0-30.06L392.85,547.51z"/>
<path class="Colour2 fill" d="M411.53,571.83v133.62h87.76c0-65.67,0-131.33,0-197L411.53,571.83z"/>
<path class="Colour2 fill" d="M100.45,97.44c0.08,2.48,0.15,4.95,0.19,7.39c56.81-14.86,174.41-35.79,301.5-0.31
	c0.03-2.5,0.08-4.96,0.15-7.4C275.01,61.55,157.22,82.57,100.45,97.44z"/>
<path class="NeckAndArmTrim fill" d="M499.3,313.93c-14.1-4.42-26.02-10.23-36.16-16.73c-108.32-69.42-75.88-257.62-71.95-278.81l18.72,5.59
	c-5.02,27.48-33.71,196.65,63.55,261.99c7.58,5.09,16.14,9.7,25.84,13.56C499.3,304.33,499.3,309.13,499.3,313.93"/>
<path class="NeckAndArmTrim fill" d="M2.7,313.93v-7.92v-6.75c5.56-2.08,13.59-5.48,22.45-10.85c32.38-19.63,46.52-47.72,54.36-63.29
	c19.92-39.57,29.09-112.72,12.93-201.58l17.45-5.15c3.85,21.31,35.98,212.81-72.43,280.04C27.63,304.52,16.16,309.9,2.7,313.93"/>
<path class="NeckAndArmTrim fill" d="M170.42,0.5c-0.04,7.3,0.54,17.92,3.61,30.3c3.71,14.97,12.08,48.75,42.84,64.6
	c14.67,7.56,28.84,8.16,34.29,8.17c4.1,0.01,22.3-0.3,39.94-11.17c28-17.26,34.34-48.66,37.66-65.15
	c2.23-11.04,2.56-20.39,2.47-26.74l15.86,4.73c-1.68,47.62-23.02,87.31-53.44,102.66c-20.64,10.42-42.14,11.03-42.14,11.03
	s-19.85,1.28-38.22-6.7c-37.09-16.1-59.4-57.7-58.89-106.99L170.42,0.5z"/>
<path class="NeckAndArmTrim fill" d="M331.23,0.5c-2.52,4.78-7.03,12.05-14.69,19.07c-22.36,20.46-52.32,21.15-65.08,21.44
	c-12.18,0.28-28.74,0.66-46.99-8.37c-20.13-9.96-30.19-25.37-34.04-32.15c-0.77,13.43,3.61,30.3,3.61,30.3
	c7.58,5.77,36.3,26.21,78.77,25.64c40.28-0.54,67.37-19.65,75.24-25.64C328.04,30.8,331.72,15.5,331.23,0.5z"/>
<path class="st11" d="M290.87,92.4c-17.64,10.87-35.84,11.18-39.94,11.17c-5.45-0.01-19.62-0.61-34.29-8.17
	c-30.76-15.85-39.13-49.63-42.84-64.6c7.58,5.77,36.3,26.21,78.77,25.64c40.28-0.54,67.37-19.64,75.24-25.64
	C324.25,47.93,316.97,76.31,290.87,92.4z"/>
<g>
	<line class="st12" x1="2.7" y1="688.46" x2="499.3" y2="688.46"/>
	<line class="st12" x1="2.7" y1="694.94" x2="499.3" y2="694.94"/>
	<path class="st12" d="M170.56,9.43c5.05,6.75,15.84,19.2,34.3,27.74c18.91,8.75,35.84,8.77,46.83,8.66
		c11.44-0.11,30.4-0.52,50.44-11.3c15.11-8.13,24.31-18.65,29.12-25.1"/>
	<path class="st12" d="M1,304.78c9.88-3.59,18.58-7.92,26.28-12.7c105.66-65.53,75.65-241.92,70.49-270.54"/>
	<path class="st12" d="M104.3,19.61c4.01,20.05,38.51,204.86-67.23,274.28C27.02,300.48,15.14,306.41,1,310.94"/>
	<path class="st12" d="M403.54,21.64c-5.66,32.16-31.61,205.84,72.53,272.57c7.33,4.7,15.59,7.95,24.94,11.07"/>
	<path class="st12" d="M396.74,19.61c-4.13,23.41-34.51,209.16,71.68,276.18c9.31,5.88,20.08,11.1,32.58,15.15"/>
	<path class="st12" d="M159.03,3.94c0.5,47.81,21.85,87.89,56.81,103.62c17.72,7.97,36.87,6.7,36.87,6.7s20.74-0.61,40.65-11.03
		c28.51-14.91,46.55-52.81,49.16-98.63"/>
	<path class="st12" d="M164.85,2.22c0.54,13.16,5.46,74.78,49.55,97.28c16.34,8.34,33.63,9.04,34.44,9.07
		c30.81,0.96,52.52-16.31,56.31-20.27c21.2-22.14,24.66-41.05,29.83-64.76c1.82-8.35,2.14-15.67,2.37-21.14"/>
	<path class="st12" d="M172.05,21.22c6.24,6.81,16.27,15.66,30.99,22.21c19.66,8.75,37.26,8.77,48.69,8.66
		c11.9-0.11,31.6-0.52,52.44-11.3c11.78-6.1,20.11-13.54,25.65-19.6"/>
</g>
</svg>
