<?xml version="1.0" encoding="utf-8"?>
<!-- Generator: Adobe Illustrator 19.1.0, SVG Export Plug-In . SVG Version: 6.00 Build 0)  -->
<svg version="1.1" id="Layer_1" xmlns="http://www.w3.org/2000/svg" xmlns:xlink="http://www.w3.org/1999/xlink" x="0px" y="0px"
	 viewBox="0 0 500 706" style="enable-background:new 0 0 500 706;" xml:space="preserve">
<style type="text/css">
	<![CDATA[
	@font-face{font-family:'codaheavy';src:url('/fonts/coda-heavy-webfont.woff') format('woff')}
	text{font-family:Impact,codaheavy,sans-serif}
	.Number.fill{fill:#000}
	.NumberOutline.stroke{fill:none;stroke:#777;stroke-width:2.5}
	.Colour1.fill{fill:#0E9DD5;}
	.Colour2.fill{fill:#FDDC0D;}
	.Colour3.fill{fill:#221F1F;}
	.NeckAndArmTrim.fill{fill:#FDDC0D;}
	.Gradient1.stopColor{stop-color:#0E9DD5;}
	.Gradient2.stopColor{stop-color:#FDDC0D;}
	.st0{fill:url(#SVGID_1_);}
	.st1{fill:url(#SVGID_2_);}
	.st2{fill:url(#SVGID_3_);}
	.st3{fill:url(#SVGID_4_);}
	.st4{fill:url(#SVGID_5_);}
	.st5{fill:url(#SVGID_6_);}
	.st6{fill:url(#SVGID_7_);}
	.st7{fill:url(#SVGID_8_);}
	.st8{fill:url(#SVGID_9_);}
	.st9{fill:url(#SVGID_10_);}
	.st10{fill:#FDDC0D;}
	.st11{fill:none;stroke:#221F1F;stroke-width:0.5;stroke-miterlimit:10;stroke-dasharray:4,2.4;}
	]]>
</style>
<path class="Colour1 fill" d="M316.42,19.57c-22.45,20.46-52.56,21.15-65.37,21.44c-12.23,0.28-28.87,0.66-47.2-8.37
	c-20.22-9.96-30.32-25.37-34.2-32.15C143.55,8.18,118.11,15.84,92,23.52c33.87,106.85,11.03,164.73-8.97,204.3
	c-7.87,15.57-25.6,46.36-58.12,65.98c-8.9,5.37-18.13,3.38-23.72,5.46v14.67V705.5H500c0-135.87,0-270.11,0-405.98
	c-12.25-2.14-19.45-7.94-26.35-12.78c-107.27-75.33-68.95-235.62-63.9-263.1C383.4,15.82,357.53,8.32,331.19,0.5
	C328.66,5.28,324.13,12.55,316.42,19.57z"/>
<path class="Colour1 fill" d="M400.63,551.57l-7.55,153.69v0.24H500c0-74.98,0-149.95,0-224.93L400.63,551.57z"/>
<polygon class="Colour1 fill" points="108.06,705.45 100.51,551.78 1.19,480.8 1.19,705.5 108.06,705.5 "/>
<g>
	<path class="Colour3 fill" d="M136.97,498.79c0.04,5.57,0.07,11.66,0.1,18.36l111.42,54.68l115.57-54.75c0.03-6.65,0.06-12.7,0.1-18.24
		l-115.67,52.52L136.97,498.79z"/>
	<path class="Colour3 fill" d="M363.85,555.4c0.05-7.04,0.09-13.64,0.12-19.8l-115.47,58l-111.33-55.85c0.03,5.84,0.07,12.09,0.12,18.71
		l111.22,56.23L363.85,555.4z"/>
	<path class="Colour3 fill" d="M363.51,596.98c0.07-6.9,0.13-13.52,0.18-19.87l-115.31,55.55l-110.93-55.45
		c0.05,6.33,0.11,12.93,0.18,19.81l110.88,56.09L363.51,596.98z"/>
	<path class="Colour3 fill" d="M363.29,618.28l-114.79,56.27l-110.66-56.11c0.08,7.1,0.16,14.46,0.26,22.05l110.41,57.17l114.53-57.25
		C363.13,632.8,363.22,625.42,363.29,618.28z"/>
	<path class="Colour3 fill" d="M136.61,477.12l111.88,53.78l116.03-53.85c0.2-6.75,0.51-12.63,0.98-18.05l-117.01,55.16l-112.87-55.12
		C136.09,464.48,136.4,470.36,136.61,477.12z"/>
</g>
<g>
	<linearGradient id="SVGID_1_" gradientUnits="userSpaceOnUse" x1="250.7221" y1="188.6927" x2="250.7221" y2="426.3836">
		<stop class="Gradient1 stopColor" offset="0" style="stop-color:#0E9DD5;stop-opacity:0"/>
		<stop class="Gradient2 stopColor" offset="1" style="stop-color:#FDDC0D"/>
	</linearGradient>
	<path class="st0" d="M98.49,342.23c6.75,3.96,13.46,7.96,20.12,12.01l19.92,12.23l19.78,12.4c6.59,4.14,13.1,8.36,19.66,12.54
		c6.56,4.17,13.08,8.38,19.57,12.64l19.5,12.72l38.71,25.76h-5.96l18.84-12.54c6.3-4.16,12.53-8.4,18.88-12.51l18.98-12.38
		c6.31-4.15,12.69-8.22,19.07-12.29c6.39-4.06,12.72-8.18,19.15-12.19l19.26-12.06l19.41-11.9c6.49-3.95,13.02-7.84,19.59-11.69
		c-5.95,4.56-11.93,9.09-17.96,13.55l-18.14,13.34l-18.29,13.18c-6.09,4.4-12.27,8.69-18.4,13.05c-6.14,4.34-12.28,8.69-18.48,12.95
		l-18.57,12.86c-6.17,4.3-12.45,8.49-18.67,12.74l-18.71,12.7l-2.98,2.02l-2.98-2.02l-38.42-26.09l-19.07-13.2
		c-6.37-4.38-12.7-8.81-19-13.29c-6.3-4.46-12.64-8.88-18.91-13.39l-18.79-13.52l-18.64-13.69
		C110.75,351.56,104.6,346.91,98.49,342.23z"/>
	<linearGradient id="SVGID_2_" gradientUnits="userSpaceOnUse" x1="250.7221" y1="188.6927" x2="250.7221" y2="426.3836">
		<stop class="Gradient1 stopColor" offset="0" style="stop-color:#0E9DD5;stop-opacity:0"/>
		<stop class="Gradient2 stopColor" offset="1" style="stop-color:#FDDC0D"/>
	</linearGradient>
	<path class="st1" d="M98.49,321.63c6.75,3.96,13.46,7.96,20.12,12.01l19.92,12.23l19.78,12.4c6.59,4.14,13.1,8.36,19.66,12.54
		c6.56,4.17,13.08,8.38,19.57,12.64l19.5,12.72l38.71,25.76h-5.96l18.84-12.54c6.3-4.16,12.53-8.4,18.88-12.51l18.98-12.38
		c6.31-4.15,12.69-8.22,19.07-12.29c6.39-4.06,12.72-8.18,19.15-12.19l19.26-12.06l19.41-11.9c6.49-3.95,13.02-7.84,19.59-11.69
		c-5.95,4.56-11.93,9.09-17.96,13.55l-18.14,13.34l-18.29,13.18c-6.09,4.4-12.27,8.69-18.4,13.05c-6.14,4.34-12.28,8.69-18.48,12.95
		l-18.57,12.86c-6.17,4.3-12.45,8.49-18.67,12.74l-18.71,12.7l-2.98,2.02l-2.98-2.02l-38.42-26.09l-19.07-13.2
		c-6.37-4.38-12.7-8.81-19-13.29c-6.3-4.46-12.64-8.88-18.91-13.39l-18.79-13.52l-18.64-13.69
		C110.75,330.96,104.6,326.32,98.49,321.63z"/>
	<linearGradient id="SVGID_3_" gradientUnits="userSpaceOnUse" x1="250.7221" y1="188.6927" x2="250.7221" y2="426.3836">
		<stop class="Gradient1 stopColor" offset="0" style="stop-color:#0E9DD5;stop-opacity:0"/>
		<stop class="Gradient2 stopColor" offset="1" style="stop-color:#FDDC0D"/>
	</linearGradient>
	<path class="st2" d="M98.49,301.04c6.75,3.96,13.46,7.96,20.12,12.01l19.92,12.23l19.78,12.4c6.59,4.14,13.1,8.36,19.66,12.54
		c6.56,4.17,13.08,8.38,19.57,12.64l19.5,12.72l38.71,25.76h-5.96l18.84-12.54c6.3-4.16,12.53-8.4,18.88-12.51l18.98-12.38
		c6.31-4.15,12.69-8.22,19.07-12.29c6.39-4.06,12.72-8.18,19.15-12.19l19.26-12.06l19.41-11.9c6.49-3.95,13.02-7.84,19.59-11.69
		c-5.95,4.56-11.93,9.09-17.96,13.55l-18.14,13.34l-18.29,13.18c-6.09,4.4-12.27,8.69-18.4,13.05c-6.14,4.34-12.28,8.69-18.48,12.95
		l-18.57,12.86c-6.17,4.3-12.45,8.49-18.67,12.74l-18.71,12.7l-2.98,2.02l-2.98-2.02l-38.42-26.09l-19.07-13.2
		c-6.37-4.38-12.7-8.81-19-13.29c-6.3-4.46-12.64-8.88-18.91-13.39l-18.79-13.52l-18.64-13.69
		C110.75,310.36,104.6,305.72,98.49,301.04z"/>
	<linearGradient id="SVGID_4_" gradientUnits="userSpaceOnUse" x1="250.7221" y1="188.6927" x2="250.7221" y2="426.3836">
		<stop class="Gradient1 stopColor" offset="0" style="stop-color:#0E9DD5;stop-opacity:0"/>
		<stop class="Gradient2 stopColor" offset="1" style="stop-color:#FDDC0D"/>
	</linearGradient>
	<path class="st3" d="M98.49,280.44c6.75,3.96,13.46,7.96,20.12,12.01l19.92,12.23l19.78,12.4c6.59,4.14,13.1,8.36,19.66,12.54
		c6.56,4.17,13.08,8.38,19.57,12.64l19.5,12.72l38.71,25.76h-5.96l18.84-12.54c6.3-4.16,12.53-8.4,18.88-12.51l18.98-12.38
		c6.31-4.15,12.69-8.22,19.07-12.29c6.39-4.06,12.72-8.18,19.15-12.19l19.26-12.06l19.41-11.9c6.49-3.95,13.02-7.84,19.59-11.69
		c-5.95,4.56-11.93,9.09-17.96,13.55l-18.14,13.34l-18.29,13.18c-6.09,4.4-12.27,8.69-18.4,13.05c-6.14,4.34-12.28,8.69-18.48,12.95
		l-18.57,12.86c-6.17,4.3-12.45,8.49-18.67,12.74l-18.71,12.7l-2.98,2.02l-2.98-2.02l-38.42-26.09l-19.07-13.2
		c-6.37-4.38-12.7-8.81-19-13.29c-6.3-4.46-12.64-8.88-18.91-13.39l-18.79-13.52l-18.64-13.69
		C110.75,289.76,104.6,285.12,98.49,280.44z"/>
	<linearGradient id="SVGID_5_" gradientUnits="userSpaceOnUse" x1="250.7221" y1="188.6927" x2="250.7221" y2="426.3836">
		<stop class="Gradient1 stopColor" offset="0" style="stop-color:#0E9DD5;stop-opacity:0"/>
		<stop class="Gradient2 stopColor" offset="1" style="stop-color:#FDDC0D"/>
	</linearGradient>
	<path class="st4" d="M98.49,259.84c6.75,3.96,13.46,7.96,20.12,12.01l19.92,12.23l19.78,12.4c6.59,4.14,13.1,8.36,19.66,12.54
		c6.56,4.17,13.08,8.38,19.57,12.64l19.5,12.72l38.71,25.76h-5.96l18.84-12.54c6.3-4.16,12.53-8.4,18.88-12.51l18.98-12.38
		c6.31-4.15,12.69-8.22,19.07-12.29c6.39-4.06,12.72-8.18,19.15-12.19l19.26-12.06l19.41-11.9c6.49-3.95,13.02-7.84,19.59-11.69
		c-5.95,4.56-11.93,9.09-17.96,13.55l-18.14,13.34l-18.29,13.18c-6.09,4.4-12.27,8.69-18.4,13.05c-6.14,4.34-12.28,8.69-18.48,12.95
		l-18.57,12.86c-6.17,4.3-12.45,8.49-18.67,12.74l-18.71,12.7l-2.98,2.02l-2.98-2.02l-38.42-26.09l-19.07-13.2
		c-6.37-4.38-12.7-8.81-19-13.29c-6.3-4.46-12.64-8.88-18.91-13.39l-18.79-13.52l-18.64-13.69
		C110.75,269.17,104.6,264.53,98.49,259.84z"/>
	<linearGradient id="SVGID_6_" gradientUnits="userSpaceOnUse" x1="250.7221" y1="188.6927" x2="250.7221" y2="426.3836">
		<stop class="Gradient1 stopColor" offset="0" style="stop-color:#0E9DD5;stop-opacity:0"/>
		<stop class="Gradient2 stopColor" offset="1" style="stop-color:#FDDC0D"/>
	</linearGradient>
	<path class="st5" d="M98.49,239.24c6.75,3.96,13.46,7.96,20.12,12.01l19.92,12.23l19.78,12.4c6.59,4.14,13.1,8.36,19.66,12.54
		c6.56,4.17,13.08,8.38,19.57,12.64l19.5,12.72l38.71,25.76h-5.96L268.62,327c6.3-4.16,12.53-8.4,18.88-12.51l18.98-12.38
		c6.31-4.15,12.69-8.22,19.07-12.29c6.39-4.06,12.72-8.18,19.15-12.19l19.26-12.06l19.41-11.9c6.49-3.95,13.02-7.84,19.59-11.69
		c-5.95,4.56-11.93,9.09-17.96,13.55l-18.14,13.34l-18.29,13.18c-6.09,4.4-12.27,8.69-18.4,13.05c-6.14,4.34-12.28,8.69-18.48,12.95
		l-18.57,12.86c-6.17,4.3-12.45,8.49-18.67,12.74l-18.71,12.7l-2.98,2.02l-2.98-2.02l-38.42-26.09l-19.07-13.2
		c-6.37-4.38-12.7-8.81-19-13.29c-6.3-4.46-12.64-8.88-18.91-13.39l-18.79-13.52l-18.64-13.69
		C110.75,248.57,104.6,243.93,98.49,239.24z"/>
	<linearGradient id="SVGID_7_" gradientUnits="userSpaceOnUse" x1="250.7221" y1="188.6927" x2="250.7221" y2="426.3836">
		<stop class="Gradient1 stopColor" offset="0" style="stop-color:#0E9DD5;stop-opacity:0"/>
		<stop class="Gradient2 stopColor" offset="1" style="stop-color:#FDDC0D"/>
	</linearGradient>
	<path class="st6" d="M98.49,218.65c6.75,3.96,13.46,7.96,20.12,12.01l19.92,12.23l19.78,12.4c6.59,4.14,13.1,8.36,19.66,12.54
		c6.56,4.17,13.08,8.38,19.57,12.64l19.5,12.72l38.71,25.76h-5.96l18.84-12.54c6.3-4.16,12.53-8.4,18.88-12.51l18.98-12.38
		c6.31-4.15,12.69-8.22,19.07-12.29c6.39-4.06,12.72-8.18,19.15-12.19l19.26-12.06l19.41-11.9c6.49-3.95,13.02-7.84,19.59-11.69
		c-5.95,4.56-11.93,9.09-17.96,13.55l-18.14,13.34l-18.29,13.18c-6.09,4.4-12.27,8.69-18.4,13.05c-6.14,4.34-12.28,8.69-18.48,12.95
		l-18.57,12.86c-6.17,4.3-12.45,8.49-18.67,12.74l-18.71,12.7l-2.98,2.02l-2.98-2.02l-38.42-26.09l-19.07-13.2
		c-6.37-4.38-12.7-8.81-19-13.29c-6.3-4.46-12.64-8.88-18.91-13.39l-18.79-13.52l-18.64-13.69
		C110.75,227.97,104.6,223.33,98.49,218.65z"/>
	<linearGradient id="SVGID_8_" gradientUnits="userSpaceOnUse" x1="250.7221" y1="188.6927" x2="250.7221" y2="426.3836">
		<stop class="Gradient1 stopColor" offset="0" style="stop-color:#0E9DD5;stop-opacity:0"/>
		<stop class="Gradient2 stopColor" offset="1" style="stop-color:#FDDC0D"/>
	</linearGradient>
	<path class="st7" d="M98.49,198.05c6.75,3.96,13.46,7.96,20.12,12.01l19.92,12.23l19.78,12.4c6.59,4.14,13.1,8.36,19.66,12.54
		c6.56,4.17,13.08,8.38,19.57,12.64l19.5,12.72l38.71,25.76h-5.96l18.84-12.54c6.3-4.16,12.53-8.4,18.88-12.51l18.98-12.38
		c6.31-4.15,12.69-8.22,19.07-12.29c6.39-4.06,12.72-8.18,19.15-12.19l19.26-12.06l19.41-11.9c6.49-3.95,13.02-7.84,19.59-11.69
		c-5.95,4.56-11.93,9.09-17.96,13.55l-18.14,13.34l-18.29,13.18c-6.09,4.4-12.27,8.69-18.4,13.05c-6.14,4.34-12.28,8.69-18.48,12.95
		l-18.57,12.86c-6.17,4.3-12.45,8.49-18.67,12.74l-18.71,12.7l-2.98,2.02l-2.98-2.02l-38.42-26.09l-19.07-13.2
		c-6.37-4.38-12.7-8.81-19-13.29c-6.3-4.46-12.64-8.88-18.91-13.39l-18.79-13.52l-18.64-13.69
		C110.75,207.37,104.6,202.73,98.49,198.05z"/>
	<linearGradient id="SVGID_9_" gradientUnits="userSpaceOnUse" x1="250.7221" y1="188.6927" x2="250.7221" y2="426.3836">
		<stop class="Gradient1 stopColor" offset="0" style="stop-color:#0E9DD5;stop-opacity:0"/>
		<stop class="Gradient2 stopColor" offset="1" style="stop-color:#FDDC0D"/>
	</linearGradient>
	<path class="st8" d="M98.49,177.45c6.75,3.96,13.46,7.96,20.12,12.01l19.92,12.23l19.78,12.4c6.59,4.14,13.1,8.36,19.66,12.54
		c6.56,4.17,13.08,8.38,19.57,12.64l19.5,12.72l38.71,25.76h-5.96l18.84-12.54c6.3-4.16,12.53-8.4,18.88-12.51l18.98-12.38
		c6.31-4.15,12.69-8.22,19.07-12.29c6.39-4.06,12.72-8.18,19.15-12.19l19.26-12.06l19.41-11.9c6.49-3.95,13.02-7.84,19.59-11.69
		c-5.95,4.56-11.93,9.09-17.96,13.55l-18.14,13.34l-18.29,13.18c-6.09,4.4-12.27,8.69-18.4,13.05c-6.14,4.34-12.28,8.69-18.48,12.95
		l-18.57,12.86c-6.17,4.3-12.45,8.49-18.67,12.74l-18.71,12.7l-2.98,2.02l-2.98-2.02l-38.42-26.09l-19.07-13.2
		c-6.37-4.38-12.7-8.81-19-13.29c-6.3-4.46-12.64-8.88-18.91-13.39l-18.79-13.52l-18.64-13.69
		C110.75,186.78,104.6,182.14,98.49,177.45z"/>
	<linearGradient id="SVGID_10_" gradientUnits="userSpaceOnUse" x1="250.7221" y1="188.6927" x2="250.7221" y2="426.3836">
		<stop class="Gradient1 stopColor" offset="0" style="stop-color:#0E9DD5;stop-opacity:0"/>
		<stop class="Gradient2 stopColor" offset="1" style="stop-color:#FDDC0D"/>
	</linearGradient>
	<path class="st9" d="M98.49,156.85c6.75,3.96,13.46,7.96,20.12,12.01l19.92,12.23l19.78,12.4c6.59,4.14,13.1,8.36,19.66,12.54
		c6.56,4.17,13.08,8.38,19.57,12.64l19.5,12.72l38.71,25.76h-5.96l18.84-12.54c6.3-4.16,12.53-8.4,18.88-12.51l18.98-12.38
		c6.31-4.15,12.69-8.22,19.07-12.29c6.39-4.06,12.72-8.18,19.15-12.19l19.26-12.06l19.41-11.9c6.49-3.95,13.02-7.84,19.59-11.69
		c-5.95,4.56-11.93,9.09-17.96,13.55l-18.14,13.34l-18.29,13.18c-6.09,4.4-12.27,8.69-18.4,13.05c-6.14,4.34-12.28,8.69-18.48,12.95
		l-18.57,12.86c-6.17,4.3-12.45,8.49-18.67,12.74l-18.71,12.7l-2.98,2.02l-2.98-2.02l-38.42-26.09l-19.07-13.2
		c-6.37-4.38-12.7-8.81-19-13.29c-6.3-4.46-12.64-8.88-18.91-13.39l-18.79-13.52l-18.64-13.69
		C110.75,166.18,104.6,161.54,98.49,156.85z"/>
<g id="BBodyLogos"></g>
</g>
<path class="Colour2 fill" d="M442.03,256.22c-4.54,16.14-11.33,37.59-21.15,61.65c-22.47,55.07-38.79,69.78-49.92,110.66
	c-6.93,25.46-6.68,42.11-6.94,97.52c-0.17,39.06-0.62,99.69-1.91,178.59h14.34c1.25-76.95,1.69-136.07,1.86-174.21
	c0.06-12.46,0.09-22.91,0.2-31.92c0.31-30.29,1.37-44.38,6.6-63.59c10.89-40.02,26.87-54.43,48.89-108.35
	c8.98-22.01,15.37-41.79,19.79-57.17C449.36,265.05,445.47,260.61,442.03,256.22z"/>
<path class="st10" d="M94.75,62.84c-0.08-0.93-0.16-1.86-0.24-2.78C94.59,60.98,94.67,61.91,94.75,62.84z"/>
<path class="st10" d="M92.41,40.73c-0.11-0.83-0.21-1.65-0.32-2.46C92.2,39.08,92.31,39.9,92.41,40.73z"/>
<path class="st10" d="M93.65,51.32c-0.09-0.87-0.19-1.74-0.28-2.59C93.47,49.58,93.56,50.45,93.65,51.32z"/>
<path class="st10" d="M94.22,56.97c-0.09-0.9-0.17-1.79-0.26-2.68C94.05,55.18,94.14,56.07,94.22,56.97z"/>
<path class="st10" d="M91.76,35.8c-0.11-0.82-0.22-1.61-0.34-2.4C91.54,34.2,91.65,34.99,91.76,35.8z"/>
<path class="st10" d="M93.05,45.91c-0.1-0.86-0.2-1.7-0.3-2.53C92.85,44.21,92.95,45.05,93.05,45.91z"/>
<path class="st10" d="M89.15,18.92c-0.21-1.21-0.41-2.36-0.61-3.46C88.73,16.56,88.94,17.72,89.15,18.92z"/>
<path class="st10" d="M91.1,31.16c-0.12-0.81-0.24-1.58-0.35-2.36C90.86,29.58,90.98,30.35,91.1,31.16z"/>
<path class="st10" d="M90.44,26.77c-0.12-0.79-0.25-1.55-0.37-2.31C90.19,25.22,90.31,25.98,90.44,26.77z"/>
<path class="st10" d="M89.78,22.69c-0.14-0.85-0.28-1.66-0.42-2.46C89.5,21.03,89.64,21.83,89.78,22.69z"/>
<path class="st10" d="M405.53,71.13c0.14-2,0.3-4.02,0.47-6.05C405.83,67.11,405.67,69.13,405.53,71.13z"/>
<path class="st10" d="M95.22,68.9c-0.07-0.96-0.14-1.92-0.21-2.86C95.09,66.98,95.15,67.94,95.22,68.9z"/>
<path class="st10" d="M406.41,60.4c0.19-2.08,0.41-4.19,0.64-6.3C406.83,56.21,406.61,58.32,406.41,60.4z"/>
<path class="st10" d="M404.5,91.94c0.05-1.94,0.11-3.89,0.19-5.87C404.61,88.05,404.55,90,404.5,91.94z"/>
<path class="st10" d="M404.89,81.64c0.1-1.95,0.2-3.92,0.33-5.9C405.1,77.72,404.99,79.68,404.89,81.64z"/>
<path class="st10" d="M407.56,49.42c0.26-2.22,0.54-4.47,0.83-6.73C408.1,44.95,407.81,47.2,407.56,49.42z"/>
<path class="st10" d="M95.97,81.6c-0.05-1.02-0.09-2.04-0.14-3.05C95.88,79.56,95.92,80.58,95.97,81.6z"/>
<path class="st10" d="M408.97,38.2c0.35-2.52,0.73-5.08,1.12-7.63C409.7,33.13,409.32,35.68,408.97,38.2z"/>
<path class="st10" d="M95.63,75.12c-0.06-0.97-0.11-1.95-0.17-2.9C95.52,73.17,95.57,74.15,95.63,75.12z"/>
<path class="st10" d="M410.67,26.74c0.62-3.86,1.27-7.77,1.99-11.71C411.94,18.98,411.28,22.88,410.67,26.74z"/>
<path class="st10" d="M96.23,88.36c-0.04-1.11-0.06-2.23-0.11-3.33C96.17,86.13,96.19,87.25,96.23,88.36z"/>
<path class="Colour3 fill" d="M316.42,19.57c-22.45,20.46-52.56,21.15-65.37,21.44c-12.23,0.28-28.87,0.66-47.2-8.37
	c-20.22-9.96-30.32-25.37-34.2-32.15C143.55,8.18,118.11,15.84,92,23.52c4.77,26.15,6.66,50.94,7.4,73.91
	c57.02-14.87,175.31-35.88,303.14-0.32c0.98-35.08,5.39-63.59,7.21-73.47C383.4,15.82,357.53,8.32,331.19,0.5
	C328.66,5.28,324.13,12.55,316.42,19.57z"/>
<path class="Colour3 fill" d="M434,326.56c-22.02,53.93-38,68.33-48.89,108.35c-5.23,19.21-6.29,33.3-6.6,63.59l11.94-13.67L500,361.25
	c0-20.57,0-41.15,0-61.72c-9.74-3.86-18.31-7.15-25.93-12.24c-5.27-3.53-10.18-8.69-14.75-12.78c-1.93-1.68-3.78-3.38-5.53-5.1
	C449.37,284.78,442.98,304.55,434,326.56z"/>
<path class="Colour3 fill" d="M47.82,271.26c-6.59,6.52-14.77,11.54-24.09,17.16c-8.9,5.37-16.96,8.77-22.55,10.85v14.67v49.18
	l109.49,121.91l11.95,13.67c-0.33-30.27-1.39-44.38-6.62-63.59c-10.89-40.02-26.87-54.43-48.89-108.35
	C58.22,304.93,52.24,286.59,47.82,271.26z"/>
<path class="Colour2 fill" d="M116.02,435.11c5.23,19.21,6.29,33.32,6.62,63.59c0.09,9.01,0.12,19.46,0.19,31.92
	c0.17,38.1,0.62,97.16,1.84,174.02h14.36c-1.29-78.81-1.72-139.37-1.91-178.4c-0.27-55.4-0.02-72.07-6.94-97.52
	c-11.13-40.87-27.45-55.59-49.92-110.66c-9.77-23.93-16.45-44.95-20.99-61.06c-3.41,4.42-7.14,9.42-11.57,13.81
	c4.42,15.34,10.53,34.12,19.44,55.94C89.15,380.68,105.13,395.09,116.02,435.11z"/>
<path class="Colour1 fill" d="M108.06,705.45v0.05h16.62c-1.23-77.28-1.69-136.63-1.86-174.88c-0.06-12.46-0.09-22.91-0.19-31.92
	l-11.95-13.67l-0.11,0.09L1.19,381.93v68.82l106.87,96.95V705.45z"/>
<polygon class="Colour3 fill" points="108.06,705.45 108.06,547.7 1.19,450.75 1.19,480.8 100.51,551.78 "/>
<polygon class="Colour2 fill" points="89.69,571.83 1.19,508.2 1.19,705.45 89.69,705.45 "/>
<path class="Colour1 fill" d="M390.56,484.93l-0.11-0.09l-11.94,13.67c-0.11,9.01-0.14,19.46-0.2,31.92
	c-0.17,38.28-0.61,97.7-1.87,175.07h16.63v-0.24V547.51l106.93-97c0-22.94,0-45.88,0-68.83L390.56,484.93z"/>
<path class="Colour3 fill" d="M393.07,547.51v157.76l7.55-153.69l99.37-71c0-10.02,0-20.04,0-30.06L393.07,547.51z"/>
<path class="Colour2 fill" d="M411.84,571.83v133.62H500c0-65.67,0-131.33,0-197L411.84,571.83z"/>
<path class="Colour2 fill" d="M99.37,97.44c0.08,2.48,0.15,4.95,0.19,7.39c57.07-14.86,175.19-35.79,302.84-0.31
	c0.03-2.5,0.08-4.96,0.16-7.4C274.71,61.55,156.39,82.57,99.37,97.44z"/>
<path class="NeckAndArmTrim fill" d="M1.19,316.15c10.44-3.58,26.29-10.11,42.47-21.97c74.91-54.91,73.22-162.69,72.58-203.66
	c-0.41-25.91-3.58-49.92-8.31-71.75L92,23.52c1.8,11.71,4.54,28.82,5.5,49.64c1.87,40.47,3.69,58.95-2.04,95.64
	c-5.07,32.51-9.87,46.26-34.01,84.86c-17.42,27.86-44.69,38.91-60.27,45.9V316.15z"/>
<path class="NeckAndArmTrim fill" d="M500,316.15c-13.8-4.93-25.52-11.08-35.52-17.84c-107.75-72.8-75.21-255.63-70.66-279.39l15.92,4.72
	c-15.64,102.39-0.77,179.94,19.41,212.16c21.56,34.42,49.49,53.66,49.49,53.66c8.75,5.1,16.49,8.29,21.36,10.1V316.15z"/>
<path class="NeckAndArmTrim fill" d="M349.41,5.54c-3.83,6.7-10.38,16.35-21.07,25.61c-28.57,24.76-63.73,26.79-75.55,26.9
	c-9.03,0.09-45.1-0.53-76-25.22c-12.17-9.73-19.69-20.11-24.08-27.29l16.88-5.04c6.32,9.06,21.83,28.23,48.85,36.39
	c14.16,4.28,26.35,3.98,35.66,3.75c14.31-0.35,32.17-0.78,49.79-11.25c14.03-8.33,22.41-19.76,27.29-28.89L349.41,5.54z"/>
<g>
	<line class="st11" x1="1.19" y1="688.13" x2="500" y2="688.13"/>
	<line class="st11" x1="1.19" y1="694.61" x2="500" y2="694.61"/>
	<path class="st11" d="M102.04,19.91c4.57,21.45,7.61,44.99,8.01,70.35c0.64,40.97,6.33,146.16-72.58,203.66
		C23.67,303.98,10.16,308.78,0,312.62"/>
	<path class="st11" d="M156.82,4.06c4.37,7.05,11.4,16.52,22.23,25.45c29.96,24.69,64.94,25.31,73.69,25.22
		c11.46-0.12,45.55-2.15,73.25-26.9c9.28-8.3,15.35-16.91,19.18-23.43"/>
	<path class="st11" d="M162.82,2.22c5.48,8.29,17.24,23.33,37.99,33.71c21.82,10.91,41.67,11.96,53.69,11.7
		c13.6-0.29,35.45-2,56.69-16.15c14.37-9.57,22.56-21.48,26.88-29.19"/>
	<path class="st11" d="M0,303.85c9.26-3.47,17.32-7.85,24.79-12.11C136.02,228.39,101.17,52.19,95.71,21.8"/>
	<path class="st11" d="M404.57,22.01c-5.57,32.49-35.04,203.7,72.48,273.45c6.63,4.3,14.18,7.99,22.43,11.41"/>
	<path class="st11" d="M399.16,20.24c-3.98,23.24-42.35,194.08,69.13,277.78c7.05,5.29,20.16,10.91,31.2,15.2"/>
</g>
</svg>
