<?xml version="1.0" encoding="utf-8"?>
<!-- Generator: Adobe Illustrator 19.1.0, SVG Export Plug-In . SVG Version: 6.00 Build 0)  -->
<svg version="1.1" id="Layer_1" xmlns="http://www.w3.org/2000/svg" xmlns:xlink="http://www.w3.org/1999/xlink" x="0px" y="0px"
	 viewBox="0 0 500 706" style="enable-background:new 0 0 500 706;" xml:space="preserve">
<style type="text/css">
	<![CDATA[
	@font-face{font-family:'codaheavy';src:url('/fonts/coda-heavy-webfont.woff') format('woff')}
	text{font-family:Impact,codaheavy,sans-serif}
	.Number.fill{fill:#000}
	.NumberOutline.stroke{fill:none;stroke:#777;stroke-width:2.5}
	.Colour1.fill{fill:#1F2837;}
	.Colour2.fill{fill:#E82237;}
	.Colour3.fill{fill:#941B1F;}
	.Colour4.fill{fill:#FFFFFF;}
	.NeckAndArmTrim.fill{fill:#941B1F;}
	.Gradient1.stopColor{stop-color:#E82237;}
	.Gradient2.stopColor{stop-color:#1F2837;}
	.st0{fill:url(#SVGID_1_);}
	.st1{fill:url(#SVGID_2_);}
	]]>
</style>
<path class="Colour1 fill" d="M500,298.86c-5.6-2.07-13.68-5.47-22.6-10.84c-32.6-19.6-46.84-47.66-54.73-63.2
	c-20.05-39.52-29.29-112.57-13.02-201.31C383.47,15.84,357.3,8.17,331.13,0.5c-3.88,6.76-14.01,22.16-34.28,32.1
	c-18.38,9.02-35.05,8.64-47.31,8.36c-12.84-0.29-43.02-0.98-65.53-21.42c-7.72-7.01-12.26-14.27-14.8-19.04
	C142.81,8.31,116.41,16.13,90,23.94c5.06,27.44,33.95,196.39-63.99,261.64c-7.63,5.09-16.25,9.69-26.01,13.54
	C0,434.58,0,570.04,0,705.5h500V313.51V298.86z"/>
<polygon class="Colour4 fill" points="57.94,433.3 270.08,647.54 305.21,612.06 58.12,362.53 "/>
<polygon class="Colour4 fill" points="442.06,433.3 229.92,647.54 194.79,612.06 441.88,362.53 "/>
<g>
	<g>
		<polygon class="Colour3 fill" points="484.84,643.12 425.37,583.06 391.28,625.87 474.27,703.78 484.84,703.78 		"/>
	</g>
	<g>
		<polygon class="Colour3 fill" points="108.72,625.87 74.63,583.06 15.16,643.12 15.16,703.78 25.73,703.78 		"/>
	</g>
	<polygon class="Colour3 fill" points="117.41,302.65 57.94,362.71 57.94,433.3 151.5,345.46 	"/>
	<polygon class="Colour3 fill" points="63.9,349.67 4.42,409.73 4.42,480.32 97.98,392.48 	"/>
	<polygon class="Colour3 fill" points="382.59,302.65 442.06,362.71 442.06,433.3 348.5,345.46 	"/>
	<polygon class="Colour3 fill" points="436.1,349.67 495.58,409.73 495.58,480.32 402.02,392.48 	"/>
</g>
<g>
	<linearGradient id="SVGID_1_" gradientUnits="userSpaceOnUse" x1="494.8838" y1="662.7426" x2="255.8823" y2="906.3182">
		<stop class="Gradient1 stopColor" offset="0" style="stop-color:#E82237"/>
		<stop class="Gradient2 stopColor" offset="1" style="stop-color:#1F2837;stop-opacity:0"/>
	</linearGradient>
	<polygon class="st0" points="484.66,642.94 424.41,703.78 484.82,703.78 	"/>
</g>
<g>
	<linearGradient id="SVGID_2_" gradientUnits="userSpaceOnUse" x1="-0.8068" y1="657.1097" x2="246.1984" y2="906.6879">
		<stop class="Gradient1 stopColor" offset="0" style="stop-color:#E82237"/>
		<stop class="Gradient2 stopColor" offset="1" style="stop-color:#1F2837;stop-opacity:0"/>
	</linearGradient>
	<polygon class="st1" points="15.34,642.94 15.18,703.78 75.59,703.78 	"/>
</g>
<path class="Colour2 fill" d="M499.14,418.41v89.95L391.28,625.87v-98.53L499.14,418.41z M151.5,246.94L91.26,186.1
	c-3.64,15.17-8.21,27.78-13.17,37.56c-3.38,6.65-8.02,15.8-14.87,25.62l88.28,96.17V246.94z M108.72,527.34L0.86,418.41v89.95
	l107.86,117.51V527.34z M402.02,392.48l89.23-97.21c-4.17-1.88-8.87-4.24-13.85-7.24c-16.33-9.82-28.05-21.75-36.67-33.17
	l-38.71,39.1V392.48z M409.08,185.76l-60.58,61.18v98.53l88.25-96.14c-6.38-9.33-10.79-18-14.08-24.49
	C417.25,214.14,412.63,200.99,409.08,185.76z M8.78,295.3l89.2,97.18v-98.53l-38.79-39.17c-6.76,8.79-15.37,17.86-26.46,25.98
	c-2.18,1.66-4.4,3.28-6.72,4.82C20.76,289.08,15.02,292.35,8.78,295.3z"/>
<g id="BBodyLogos"></g>
<path class="NeckAndArmTrim fill" d="M0,315.73c10.47-3.58,26.35-10.1,42.57-21.94c75.09-54.84,73.4-162.47,72.75-203.39
	c-0.41-25.87-3.59-49.86-8.33-71.66c-5.66,1.73-11.32,3.47-16.99,5.2c2.39,12.77,4.97,29.45,6.54,49.12
	c0.88,11,2.12,27.14,1.32,47.74c-0.46,11.92-1.33,32-6.65,55.39c-5.35,23.51-12.45,54.74-37.04,83.36
	C45.27,269.93,28.26,286.72,0,299.16V315.73z"/>
<path class="NeckAndArmTrim fill" d="M500,315.73c-13.83-4.92-25.58-11.07-35.6-17.81c-108-72.7-75.39-255.29-70.83-279.01l15.96,4.71
	c-7.97,46.73-26.34,186.57,53.23,253.89c8.61,7.28,15.83,11.57,15.83,11.57c0.39,0.12,0.7,0.22,0.87,0.26c3.57,2,7.5,4,11.79,5.93
	c3.02,1.35,5.95,2.55,8.75,3.6C500,304.49,500,310.11,500,315.73z"/>
<path class="NeckAndArmTrim fill" d="M349.05,5.53c-3.84,6.69-10.41,16.33-21.12,25.57c-28.64,24.72-63.88,26.75-75.73,26.87
	c-9.05,0.09-45.21-0.53-76.18-25.19c-12.2-9.71-19.74-20.08-24.14-27.25L168.8,0.5c6.34,9.05,21.88,28.19,48.96,36.34
	c14.19,4.27,26.41,3.97,35.74,3.75c14.35-0.35,32.24-0.78,49.9-11.24c14.06-8.32,22.46-19.74,27.35-28.85L349.05,5.53z"/>
</svg>
