<?xml version="1.0" encoding="utf-8"?>
<!-- Generator: Adobe Illustrator 19.1.0, SVG Export Plug-In . SVG Version: 6.00 Build 0)  -->
<svg version="1.1" id="Layer_1" xmlns="http://www.w3.org/2000/svg" xmlns:xlink="http://www.w3.org/1999/xlink" x="0px" y="0px"
	 viewBox="0 0 500 706" style="enable-background:new 0 0 500 706;" xml:space="preserve">
<style type="text/css">
	<![CDATA[
	@font-face{font-family:'codaheavy';src:url('/fonts/coda-heavy-webfont.woff') format('woff')}
	text{font-family:Impact,codaheavy,sans-serif}
	.Colour1.fill{fill:#1F2837;}
	.Colour2.fill{fill:#E82237;}
	.Colour3.fill{fill:#941B1F;}
	.Colour4.fill{fill:#FFFFFF;}
	.NeckAndArmTrim.fill{fill:#941B1F;}
	.Gradient1.stopColor{stop-color:#E82237;}
	.Gradient2.stopColor{stop-color:#1F2837;}
	.st0{fill:none;stroke:#221F1F;stroke-width:0.75;stroke-miterlimit:10;}
	.st1{fill:#FFFFFF;}
	.st2{fill:url(#SVGID_1_);}
	.st3{fill:url(#SVGID_2_);}
	]]>
</style>
<path class="Colour1 fill" d="M473.99,285.58C376.05,220.33,404.94,51.39,410,23.94c-26.4-7.81-52.81-15.63-79.21-23.44
	c-2.53,4.77-7.07,12.03-14.8,19.04c-22.51,20.43-52.68,21.12-65.53,21.42c-12.26,0.28-28.94,0.66-47.31-8.36
	c-20.27-9.95-30.4-25.34-34.28-32.1c-26.17,7.67-52.34,15.34-78.52,23.01c16.26,88.74,7.03,161.8-13.02,201.31
	c-7.89,15.54-22.12,43.6-54.73,63.2c-8.92,5.36-17,8.76-22.6,10.84v14.65V705.5h500c0-135.46,0-270.92,0-406.38
	C490.24,295.27,481.62,290.67,473.99,285.58z"/>
<line class="st0" x1="386.28" y1="150.56" x2="385.17" y2="151"/>
<path class="st1" d="M290.14,92.27c-17.76,10.86-36.08,11.16-40.21,11.16c-5.49-0.01-19.76-0.61-34.53-8.16
	c-30.97-15.83-39.4-49.56-43.13-64.51c7.63,5.76,36.55,26.17,79.31,25.6c40.55-0.54,67.83-19.62,75.75-25.6
	C323.75,47.87,316.43,76.21,290.14,92.27z"/>
<g>
	<polygon class="Colour4 fill" points="57.94,433.65 270.08,647.89 305.21,612.41 58.12,362.88 	"/>
	<polygon class="Colour4 fill" points="442.06,433.65 229.92,647.89 194.79,612.41 441.88,362.88 	"/>
</g>
<g>
	<g>
		<polygon class="Colour3 fill" points="484.84,643.47 425.37,583.4 391.28,626.21 474.27,704.13 484.84,704.13 		"/>
	</g>
	<g>
		<polygon class="Colour3 fill" points="108.72,626.21 74.63,583.4 15.16,643.47 15.16,704.13 25.73,704.13 		"/>
	</g>
	<polygon class="Colour3 fill" points="117.41,303 57.94,363.06 57.94,433.65 151.5,345.81 	"/>
	<polygon class="Colour3 fill" points="63.9,350.01 4.42,410.07 4.42,480.66 97.98,392.82 	"/>
	<polygon class="Colour3 fill" points="382.59,303 442.06,363.06 442.06,433.65 348.5,345.81 	"/>
	<polygon class="Colour3 fill" points="436.1,350.01 495.58,410.07 495.58,480.66 402.02,392.82 	"/>
</g>
<path class="Colour2 fill" d="M499.14,418.76v89.95L391.28,626.21v-98.53L499.14,418.76z M151.5,247.28l-60.24-60.83
	c-3.64,15.17-8.21,27.78-13.17,37.56c-3.38,6.65-8.02,15.8-14.87,25.62l88.28,96.17V247.28z M108.72,527.69L0.86,418.76v89.95
	l107.86,117.51V527.69z M402.02,392.82l89.23-97.21c-4.17-1.88-8.87-4.24-13.85-7.24c-16.33-9.82-28.05-21.75-36.67-33.17
	l-38.71,39.1V392.82z M409.08,186.1l-60.58,61.18v98.53l88.25-96.14c-6.38-9.33-10.79-18-14.08-24.49
	C417.25,214.49,412.63,201.33,409.08,186.1z M8.78,295.65l89.2,97.18V294.3l-38.79-39.17c-6.76,8.79-15.37,17.86-26.46,25.98
	c-2.18,1.66-4.4,3.28-6.72,4.82C20.76,289.43,15.02,292.69,8.78,295.65z"/>
<g id="FBodyLogos"></g>
<path class="NeckAndArmTrim fill" d="M500,313.51c-14.19-4.42-26.2-10.22-36.41-16.71c-109.06-69.32-76.4-257.28-72.44-278.44L410,23.94
	c-5.06,27.44-33.95,196.39,63.99,261.64c7.63,5.09,16.25,9.69,26.01,13.54C500,303.92,500,308.72,500,313.51"/>
<path class="NeckAndArmTrim fill" d="M0,313.51v-7.91v-6.74c5.6-2.07,13.68-5.47,22.6-10.84c32.6-19.6,46.84-47.66,54.73-63.2
	c20.05-39.52,29.29-112.57,13.02-201.31l17.57-5.15c3.87,21.28,36.22,212.52-72.93,279.67C25.1,304.12,13.55,309.49,0,313.51"/>
<path class="NeckAndArmTrim fill" d="M168.87,0.5c-0.04,7.29,0.55,17.9,3.64,30.26c3.73,14.95,12.16,48.68,43.13,64.51
	c14.77,7.55,29.04,8.15,34.53,8.16c4.13,0.01,22.45-0.3,40.21-11.16c28.19-17.23,34.57-48.59,37.92-65.07
	c2.24-11.03,2.58-20.37,2.48-26.71l15.97,4.73c-1.69,47.56-23.18,87.2-53.8,102.52c-20.78,10.4-42.43,11.01-42.43,11.01
	s-19.98,1.27-38.48-6.69C174.69,96,152.24,54.45,152.75,5.23L168.87,0.5z"/>
<path class="NeckAndArmTrim fill" d="M330.78,0.5c-2.53,4.77-7.07,12.03-14.8,19.04c-22.51,20.43-52.68,21.12-65.53,21.42
	c-12.26,0.28-28.94,0.66-47.31-8.36c-20.27-9.95-30.4-25.34-34.28-32.1c-0.77,13.41,3.64,30.26,3.64,30.26
	c7.63,5.76,36.55,26.17,79.31,25.6c40.55-0.54,67.83-19.62,75.75-25.6C327.57,30.76,331.28,15.48,330.78,0.5z"/>
<linearGradient id="SVGID_1_" gradientUnits="userSpaceOnUse" x1="494.6288" y1="662.7426" x2="255.6273" y2="906.3182">
	<stop class="Gradient1 stopColor" offset="0" style="stop-color:#E82237"/>
	<stop class="Gradient2 stopColor" offset="1" style="stop-color:#1F2837;stop-opacity:0"/>
</linearGradient>
<polygon class="st2" points="484.41,642.94 424.16,703.78 484.56,703.78 "/>
<linearGradient id="SVGID_2_" gradientUnits="userSpaceOnUse" x1="-1.0617" y1="657.1097" x2="245.9435" y2="906.6879">
	<stop class="Gradient1 stopColor" offset="0" style="stop-color:#E82237"/>
	<stop class="Gradient2 stopColor" offset="1" style="stop-color:#1F2837;stop-opacity:0"/>
</linearGradient>
<polygon class="st3" points="15.08,642.94 14.93,703.78 75.33,703.78 "/>
</svg>
