<?xml version="1.0" encoding="utf-8"?>
<!-- Generator: Adobe Illustrator 19.1.0, SVG Export Plug-In . SVG Version: 6.00 Build 0)  -->
<svg version="1.1" id="Layer_1" xmlns="http://www.w3.org/2000/svg" xmlns:xlink="http://www.w3.org/1999/xlink" x="0px" y="0px"
	 viewBox="0 0 500 706" style="enable-background:new 0 0 500 706;" xml:space="preserve">
<style type="text/css">
	<![CDATA[
	@font-face{font-family:'codaheavy';src:url('/fonts/coda-heavy-webfont.woff') format('woff')}
	text{font-family:Impact,codaheavy,sans-serif}
	.Colour1.fill{fill:#0A0A0A;}
	.Colour2.fill{fill:#0D0D0D;}
	.Colour3.fill{fill:#1A5F30;}
	.Colour4.fill{fill:#FFFFFF;}
	.Colour5.fill{fill:#21B14B;}
	.NeckAndArmTrim.fill{fill:#0DB04B;}
	.st0{fill:url(#SVGID_1_);}
	.st1{fill:url(#SVGID_2_);}
	.st2{fill:url(#SVGID_3_);}
	.st3{fill:url(#SVGID_4_);}
	.st4{fill:url(#SVGID_5_);}
	.st5{fill:url(#SVGID_6_);}
	.st6{fill:url(#SVGID_7_);}
	.st7{fill:url(#SVGID_8_);}
	.st8{fill:url(#SVGID_9_);}
	.st9{fill:url(#SVGID_10_);}
	.st10{fill:url(#SVGID_11_);}
	.st11{fill:url(#SVGID_12_);}
	.st12{fill:url(#SVGID_13_);}
	.st13{fill:none;}
	.st14{fill:url(#SVGID_14_);}
	.st15{fill:url(#SVGID_15_);}
	.st16{fill:url(#SVGID_16_);}
	.st17{fill:url(#SVGID_17_);}
	.st18{fill:url(#SVGID_18_);}
	.st19{fill:url(#SVGID_19_);}
	.st20{fill:url(#SVGID_20_);}
	.st21{fill:url(#SVGID_21_);}
	.st22{fill:#FFFFFF;}
	.st23{fill:none;stroke:#FFFFFF;stroke-width:0.5;stroke-miterlimit:10;stroke-dasharray:4,2.4;}
	]]>
</style>
<path class="Colour3 fill" d="M65.73,245.28h368.89c-49.88-77.42-29.14-198.47-24.92-221.32c-26.39-7.81-52.77-15.61-79.16-23.42
	c-2.53,4.76-7.07,12.02-14.79,19.02c-22.49,20.41-52.64,21.1-65.48,21.39c-12.25,0.28-28.92,0.66-47.28-8.35
	c-20.26-9.94-30.37-25.31-34.25-32.07c-26.15,7.66-52.31,15.33-78.46,22.99c16.25,88.65,7.02,161.63-13.01,201.1
	C74.44,230.22,70.77,237.43,65.73,245.28z"/>
<g>
	<linearGradient id="SVGID_1_" gradientUnits="userSpaceOnUse" x1="249.9538" y1="66.0357" x2="249.9538" y2="102.4624">
		<stop class="Gradient2 stopColor" offset="0" style="stop-color:#21B14B"/>
		<stop class="Gradient1 stopColor" offset="1" style="stop-color:#1D592C"/>
	</linearGradient>
	<path class="Colour4 fill" d="M401.87,104.89c0.06-6.21,0.25-12.23,0.54-18.02C272.39,56.31,169.02,64.15,97.5,80.05
		c0.43,6.2,0.73,12.28,0.91,18.24C168.75,82.62,271.72,74.51,401.87,104.89z"/>
</g>
<path class="Colour2 fill" d="M22.59,287.77C13.67,293.13,5.6,296.52,0,298.59v14.63V705.5h499.64c0-135.55,0-271.1,0-406.65
	c-9.75-3.85-18.37-8.45-25.99-13.53c-30.14-20.08-48.25-49.99-58.75-82.56H86.13c-2.62,8.12-5.59,15.45-8.85,21.87
	C69.39,240.16,55.16,268.19,22.59,287.77z"/>
<path class="Colour1 fill" d="M77.27,224.63c-7.81,15.38-21.86,43.04-53.8,62.59l229.78,230.17L480.6,289.64
	c-2.4-1.4-4.73-2.83-6.96-4.32c-61.88-41.22-73.09-123.84-71.69-185.96c-130.48-35.34-233.68-25.6-303.78-7.35
	C100.71,149.38,91.86,195.89,77.27,224.63z"/>
<linearGradient id="SVGID_2_" gradientUnits="userSpaceOnUse" x1="249.8196" y1="470.4178" x2="249.8196" y2="310.0848">
	<stop class="Gradient1 stopColor" offset="0" style="stop-color:#1D592C"/>
	<stop class="Gradient2 stopColor" offset="1" style="stop-color:#21B14B"/>
</linearGradient>
<path class="Colour4 fill" d="M116.55,330.88c3.1,2.53,6.12,5.14,9.18,7.71l9.06,7.84c3.03,2.6,5.99,5.27,8.98,7.92l8.95,7.95
	c5.93,5.34,11.83,10.7,17.69,16.1l8.77,8.12l8.73,8.16c5.81,5.45,11.59,10.93,17.34,16.45c5.78,5.48,11.47,11.06,17.2,16.59
	l17.07,16.72l16.93,16.86h-9.7l16.51-16.39c5.55-5.42,11.05-10.89,16.63-16.27l8.36-8.09l8.4-8.05c5.6-5.37,11.25-10.68,16.9-16
	l8.51-7.94l8.55-7.9c5.71-5.26,11.46-10.47,17.24-15.66c5.83-5.14,11.58-10.35,17.46-15.43l8.82-7.63c2.98-2.5,5.93-5.04,8.94-7.51
	c-2.46,3.02-5,5.97-7.49,8.96l-7.61,8.84c-5.08,5.89-10.28,11.66-15.41,17.49c-5.18,5.79-10.39,11.55-15.63,17.27l-7.89,8.57
	l-7.92,8.53c-5.31,5.66-10.61,11.32-15.97,16.93l-8.03,8.42l-8.08,8.37c-5.37,5.6-10.83,11.11-16.24,16.66l-16.37,16.54l-4.85,4.9
	l-4.86-4.9l-16.83-16.96l-16.7-17.09c-5.52-5.74-11.08-11.44-16.56-17.23c-5.5-5.76-10.98-11.55-16.42-17.37l-8.15-8.75l-8.11-8.79
	c-5.39-5.87-10.75-11.78-16.07-17.72l-7.93-8.96c-2.64-2.99-5.31-5.95-7.9-8.99l-7.83-9.07
	C121.69,337.01,119.08,333.98,116.55,330.88z"/>
<g>
	<linearGradient id="SVGID_3_" gradientUnits="userSpaceOnUse" x1="249.8196" y1="489.291" x2="249.8196" y2="679.8484">
		<stop class="Gradient3 stopColor" offset="0" style="stop-color:#000000;stop-opacity:0"/>
		<stop class="Gradient4 stopColor" offset="1" style="stop-color:#0F9A48"/>
	</linearGradient>
	<path class="Colour5 fill" d="M143.2,612.38c4.73,3.17,9.42,6.38,14.09,9.63l13.96,9.81l13.85,9.94c4.61,3.32,9.18,6.7,13.77,10.05
		c4.59,3.34,9.16,6.72,13.7,10.13l13.65,10.2l27.11,20.65h-4.18l13.2-10.05c4.41-3.34,8.78-6.73,13.22-10.03l13.3-9.93
		c4.42-3.33,8.89-6.59,13.35-9.85c4.47-3.26,8.91-6.56,13.41-9.78l13.49-9.67l13.59-9.54c4.54-3.16,9.12-6.28,13.72-9.37
		c-4.17,3.66-8.35,7.28-12.58,10.86l-12.71,10.7l-12.81,10.56c-4.26,3.53-8.59,6.97-12.89,10.46c-4.3,3.48-8.6,6.96-12.95,10.38
		l-13,10.31c-4.32,3.45-8.72,6.8-13.08,10.21l-13.1,10.18l-2.09,1.62l-2.09-1.62l-26.91-20.91l-13.36-10.59
		c-4.46-3.51-8.9-7.07-13.31-10.65c-4.41-3.58-8.85-7.12-13.24-10.73l-13.16-10.84l-13.06-10.98
		C151.78,619.86,147.48,616.14,143.2,612.38z"/>
	<linearGradient id="SVGID_4_" gradientUnits="userSpaceOnUse" x1="249.8196" y1="489.291" x2="249.8196" y2="679.8484">
		<stop class="Gradient3 stopColor" offset="0" style="stop-color:#000000;stop-opacity:0"/>
		<stop class="Gradient4 stopColor" offset="1" style="stop-color:#0F9A48"/>
	</linearGradient>
	<path class="Colour5 fill" d="M143.2,595.87c4.73,3.17,9.42,6.38,14.09,9.63l13.96,9.81l13.85,9.94c4.61,3.32,9.18,6.7,13.77,10.05
		c4.59,3.34,9.16,6.72,13.7,10.13l13.65,10.2l27.11,20.65h-4.18l13.2-10.05c4.41-3.34,8.78-6.73,13.22-10.03l13.3-9.93
		c4.42-3.33,8.89-6.59,13.35-9.85c4.47-3.26,8.91-6.56,13.41-9.78l13.49-9.67l13.59-9.54c4.54-3.16,9.12-6.28,13.72-9.37
		c-4.17,3.66-8.35,7.28-12.58,10.86l-12.71,10.7l-12.81,10.56c-4.26,3.53-8.59,6.97-12.89,10.46c-4.3,3.48-8.6,6.96-12.95,10.38
		l-13,10.31c-4.32,3.45-8.72,6.8-13.08,10.21l-13.1,10.18l-2.09,1.62l-2.09-1.62l-26.91-20.91l-13.36-10.59
		c-4.46-3.51-8.9-7.07-13.31-10.65c-4.41-3.58-8.85-7.12-13.24-10.73L169.17,618l-13.06-10.98
		C151.78,603.35,147.48,599.63,143.2,595.87z"/>
	<linearGradient id="SVGID_5_" gradientUnits="userSpaceOnUse" x1="249.8196" y1="489.291" x2="249.8196" y2="679.8484">
		<stop class="Gradient3 stopColor" offset="0" style="stop-color:#000000;stop-opacity:0"/>
		<stop class="Gradient4 stopColor" offset="1" style="stop-color:#0F9A48"/>
	</linearGradient>
	<path class="Colour5 fill" d="M143.2,579.36c4.73,3.17,9.42,6.38,14.09,9.63l13.96,9.81l13.85,9.94c4.61,3.32,9.18,6.7,13.77,10.05
		c4.59,3.34,9.16,6.72,13.7,10.13l13.65,10.2l27.11,20.65h-4.18l13.2-10.05c4.41-3.34,8.78-6.73,13.22-10.03l13.3-9.93
		c4.42-3.33,8.89-6.59,13.35-9.85c4.47-3.26,8.91-6.56,13.41-9.78l13.49-9.67l13.59-9.54c4.54-3.16,9.12-6.28,13.72-9.37
		c-4.17,3.66-8.35,7.28-12.58,10.86l-12.71,10.7l-12.81,10.56c-4.26,3.53-8.59,6.97-12.89,10.46c-4.3,3.48-8.6,6.96-12.95,10.38
		l-13,10.31c-4.32,3.45-8.72,6.8-13.08,10.21l-13.1,10.18l-2.09,1.62l-2.09-1.62l-26.91-20.91l-13.36-10.59
		c-4.46-3.51-8.9-7.07-13.31-10.65c-4.41-3.58-8.85-7.12-13.24-10.73l-13.16-10.84l-13.06-10.98
		C151.78,586.83,147.48,583.11,143.2,579.36z"/>
	<linearGradient id="SVGID_6_" gradientUnits="userSpaceOnUse" x1="249.8196" y1="489.291" x2="249.8196" y2="679.8484">
		<stop class="Gradient3 stopColor" offset="0" style="stop-color:#000000;stop-opacity:0"/>
		<stop class="Gradient4 stopColor" offset="1" style="stop-color:#0F9A48"/>
	</linearGradient>
	<path class="Colour5 fill" d="M143.2,562.84c4.73,3.17,9.42,6.38,14.09,9.63l13.96,9.81l13.85,9.94c4.61,3.32,9.18,6.7,13.77,10.05
		c4.59,3.34,9.16,6.72,13.7,10.13l13.65,10.2l27.11,20.65h-4.18l13.2-10.05c4.41-3.34,8.78-6.73,13.22-10.03l13.3-9.93
		c4.42-3.33,8.89-6.59,13.35-9.85c4.47-3.26,8.91-6.56,13.41-9.78l13.49-9.67l13.59-9.54c4.54-3.16,9.12-6.28,13.72-9.37
		c-4.17,3.66-8.35,7.28-12.58,10.86l-12.71,10.7l-12.81,10.56c-4.26,3.53-8.59,6.97-12.89,10.46c-4.3,3.48-8.6,6.96-12.95,10.38
		l-13,10.31c-4.32,3.45-8.72,6.8-13.08,10.21l-13.1,10.18l-2.09,1.62l-2.09-1.62l-26.91-20.91l-13.36-10.59
		c-4.46-3.51-8.9-7.07-13.31-10.65c-4.41-3.58-8.85-7.12-13.24-10.73l-13.16-10.84L156.12,574
		C151.78,570.32,147.48,566.6,143.2,562.84z"/>
	<linearGradient id="SVGID_7_" gradientUnits="userSpaceOnUse" x1="249.8196" y1="489.291" x2="249.8196" y2="679.8484">
		<stop class="Gradient3 stopColor" offset="0" style="stop-color:#000000;stop-opacity:0"/>
		<stop class="Gradient4 stopColor" offset="1" style="stop-color:#0F9A48"/>
	</linearGradient>
	<path class="Colour5 fill" d="M143.2,546.33c4.73,3.17,9.42,6.38,14.09,9.63l13.96,9.81l13.85,9.94c4.61,3.32,9.18,6.7,13.77,10.05
		c4.59,3.34,9.16,6.72,13.7,10.13l13.65,10.2l27.11,20.65h-4.18l13.2-10.05c4.41-3.34,8.78-6.73,13.22-10.03l13.3-9.93
		c4.42-3.33,8.89-6.59,13.35-9.85c4.47-3.26,8.91-6.56,13.41-9.78l13.49-9.67l13.59-9.54c4.54-3.16,9.12-6.28,13.72-9.37
		c-4.17,3.66-8.35,7.28-12.58,10.86l-12.71,10.7l-12.81,10.56c-4.26,3.53-8.59,6.97-12.89,10.46c-4.3,3.48-8.6,6.96-12.95,10.38
		l-13,10.31c-4.32,3.45-8.72,6.8-13.08,10.21l-13.1,10.18l-2.09,1.62l-2.09-1.62l-26.91-20.91l-13.36-10.59
		c-4.46-3.51-8.9-7.07-13.31-10.65c-4.41-3.58-8.85-7.12-13.24-10.73l-13.16-10.84l-13.06-10.98
		C151.78,553.81,147.48,550.09,143.2,546.33z"/>
	<linearGradient id="SVGID_8_" gradientUnits="userSpaceOnUse" x1="249.8196" y1="489.291" x2="249.8196" y2="679.8484">
		<stop class="Gradient3 stopColor" offset="0" style="stop-color:#000000;stop-opacity:0"/>
		<stop class="Gradient4 stopColor" offset="1" style="stop-color:#0F9A48"/>
	</linearGradient>
	<path class="Colour5 fill" d="M143.2,529.82c4.73,3.17,9.42,6.38,14.09,9.63l13.96,9.8l13.85,9.94c4.61,3.32,9.18,6.7,13.77,10.05
		c4.59,3.34,9.16,6.72,13.7,10.13l13.65,10.2l27.11,20.65h-4.18l13.2-10.05c4.41-3.34,8.78-6.73,13.22-10.03l13.3-9.93
		c4.42-3.33,8.89-6.59,13.35-9.85c4.47-3.26,8.91-6.56,13.41-9.78l13.49-9.67l13.59-9.54c4.54-3.16,9.12-6.28,13.72-9.37
		c-4.17,3.66-8.35,7.28-12.58,10.86l-12.71,10.7l-12.81,10.56c-4.26,3.53-8.59,6.97-12.89,10.46c-4.3,3.48-8.6,6.96-12.95,10.38
		l-13,10.31c-4.32,3.45-8.72,6.8-13.08,10.21l-13.1,10.18l-2.09,1.62l-2.09-1.62l-26.91-20.91l-13.36-10.59
		c-4.46-3.51-8.9-7.07-13.31-10.65c-4.41-3.58-8.85-7.12-13.24-10.73l-13.16-10.84l-13.06-10.98
		C151.78,537.29,147.48,533.57,143.2,529.82z"/>
	<linearGradient id="SVGID_9_" gradientUnits="userSpaceOnUse" x1="249.8196" y1="489.291" x2="249.8196" y2="679.8484">
		<stop class="Gradient3 stopColor" offset="0" style="stop-color:#000000;stop-opacity:0"/>
		<stop class="Gradient4 stopColor" offset="1" style="stop-color:#0F9A48"/>
	</linearGradient>
	<path class="Colour5 fill" d="M143.2,513.31c4.73,3.17,9.42,6.38,14.09,9.63l13.96,9.81l13.85,9.94c4.61,3.32,9.18,6.7,13.77,10.05
		c4.59,3.34,9.16,6.72,13.7,10.13l13.65,10.2l27.11,20.65h-4.18l13.2-10.05c4.41-3.34,8.78-6.73,13.22-10.03l13.3-9.93
		c4.42-3.33,8.89-6.59,13.35-9.85c4.47-3.26,8.91-6.56,13.41-9.78l13.49-9.67l13.59-9.54c4.54-3.16,9.12-6.28,13.72-9.37
		c-4.17,3.66-8.35,7.28-12.58,10.86l-12.71,10.7l-12.81,10.56c-4.26,3.53-8.59,6.97-12.89,10.46c-4.3,3.48-8.6,6.96-12.95,10.38
		l-13,10.31c-4.32,3.45-8.72,6.8-13.08,10.21l-13.1,10.18l-2.09,1.62l-2.09-1.62l-26.91-20.91l-13.36-10.59
		c-4.46-3.51-8.9-7.07-13.31-10.65c-4.41-3.58-8.85-7.12-13.24-10.73l-13.16-10.84l-13.06-10.98
		C151.78,520.78,147.48,517.06,143.2,513.31z"/>
	<linearGradient id="SVGID_10_" gradientUnits="userSpaceOnUse" x1="249.8196" y1="489.291" x2="249.8196" y2="679.8484">
		<stop class="Gradient3 stopColor" offset="0" style="stop-color:#000000;stop-opacity:0"/>
		<stop class="Gradient4 stopColor" offset="1" style="stop-color:#0F9A48"/>
	</linearGradient>
	<path class="Colour5 fill" d="M143.2,496.79c4.73,3.17,9.42,6.38,14.09,9.63l13.96,9.81l13.85,9.94c4.61,3.32,9.18,6.7,13.77,10.05
		c4.59,3.34,9.16,6.72,13.7,10.13l13.65,10.2l27.11,20.65h-4.18l13.2-10.05c4.41-3.34,8.78-6.73,13.22-10.03l13.3-9.93
		c4.42-3.33,8.89-6.59,13.35-9.85c4.47-3.26,8.91-6.56,13.41-9.78l13.49-9.67l13.59-9.54c4.54-3.16,9.12-6.28,13.72-9.37
		c-4.17,3.66-8.35,7.28-12.58,10.86l-12.71,10.7l-12.81,10.56c-4.26,3.53-8.59,6.97-12.89,10.46c-4.3,3.48-8.6,6.96-12.95,10.38
		l-13,10.31c-4.32,3.45-8.72,6.8-13.08,10.21l-13.1,10.18l-2.09,1.62l-2.09-1.62l-26.91-20.91l-13.36-10.59
		c-4.46-3.51-8.9-7.07-13.31-10.65c-4.41-3.58-8.85-7.12-13.24-10.73l-13.16-10.84l-13.06-10.98
		C151.78,504.27,147.48,500.55,143.2,496.79z"/>
	<linearGradient id="SVGID_11_" gradientUnits="userSpaceOnUse" x1="249.8196" y1="489.291" x2="249.8196" y2="679.8484">
		<stop class="Gradient3 stopColor" offset="0" style="stop-color:#000000;stop-opacity:0"/>
		<stop class="Gradient4 stopColor" offset="1" style="stop-color:#0F9A48"/>
	</linearGradient>
	<path class="Colour5 fill" d="M143.2,480.28c4.73,3.17,9.42,6.38,14.09,9.63l13.96,9.81l13.85,9.94c4.61,3.32,9.18,6.7,13.77,10.05
		c4.59,3.34,9.16,6.72,13.7,10.13l13.65,10.2l27.11,20.65h-4.18l13.2-10.05c4.41-3.34,8.78-6.73,13.22-10.03l13.3-9.93
		c4.42-3.33,8.89-6.59,13.35-9.85c4.47-3.26,8.91-6.56,13.41-9.78l13.49-9.67l13.59-9.54c4.54-3.16,9.12-6.28,13.72-9.37
		c-4.17,3.66-8.35,7.28-12.58,10.86l-12.71,10.7l-12.81,10.56c-4.26,3.53-8.59,6.97-12.89,10.46c-4.3,3.48-8.6,6.96-12.95,10.38
		l-13,10.31c-4.32,3.45-8.72,6.8-13.08,10.21l-13.1,10.18l-2.09,1.62l-2.09-1.62l-26.91-20.91l-13.36-10.59
		c-4.46-3.51-8.9-7.07-13.31-10.65c-4.41-3.58-8.85-7.12-13.24-10.73l-13.16-10.84l-13.06-10.98
		C151.78,487.76,147.48,484.03,143.2,480.28z"/>
	<linearGradient id="SVGID_12_" gradientUnits="userSpaceOnUse" x1="249.8196" y1="489.291" x2="249.8196" y2="679.8484">
		<stop class="Gradient3 stopColor" offset="0" style="stop-color:#000000;stop-opacity:0"/>
		<stop class="Gradient4 stopColor" offset="1" style="stop-color:#0F9A48"/>
	</linearGradient>
	<path class="Colour5 fill" d="M143.2,463.77c4.73,3.17,9.42,6.38,14.09,9.63l13.96,9.81l13.85,9.94c4.61,3.32,9.18,6.7,13.77,10.05
		c4.59,3.34,9.16,6.72,13.7,10.13l13.65,10.2l27.11,20.65h-4.18l13.2-10.05c4.41-3.34,8.78-6.73,13.22-10.03l13.3-9.93
		c4.42-3.33,8.89-6.59,13.35-9.85c4.47-3.26,8.91-6.56,13.41-9.78l13.49-9.67l13.59-9.54c4.54-3.16,9.12-6.28,13.72-9.37
		c-4.17,3.66-8.35,7.28-12.58,10.86l-12.71,10.7l-12.81,10.56c-4.26,3.53-8.59,6.97-12.89,10.46c-4.3,3.48-8.6,6.96-12.95,10.38
		l-13,10.31c-4.32,3.45-8.72,6.8-13.08,10.21l-13.1,10.18l-2.09,1.62l-2.09-1.62l-26.91-20.91l-13.36-10.59
		c-4.46-3.51-8.9-7.07-13.31-10.65c-4.41-3.58-8.85-7.12-13.24-10.73l-13.16-10.84l-13.06-10.98
		C151.78,471.24,147.48,467.52,143.2,463.77z"/>
</g>
<linearGradient id="SVGID_13_" gradientUnits="userSpaceOnUse" x1="249.8196" y1="470.4178" x2="249.8196" y2="310.0848">
	<stop class="Gradient1 stopColor" offset="0" style="stop-color:#1D592C"/>
	<stop class="Gradient2 stopColor" offset="1" style="stop-color:#21B14B"/>
</linearGradient>
<path class="Colour4 fill" d="M139.9,308.34c2.6,2.04,5.13,4.16,7.7,6.23l7.58,6.36c5.05,4.24,10.01,8.57,14.97,12.9
	c4.94,4.35,9.85,8.72,14.73,13.14l7.29,6.64l7.25,6.68c4.83,4.46,9.62,8.96,14.39,13.48c4.79,4.5,9.5,9.08,14.25,13.62l14.11,13.76
	l13.97,13.9h-9.7l6.81-6.76l6.82-6.75c4.59-4.46,9.13-8.96,13.75-13.38l6.92-6.65l6.96-6.6c4.64-4.41,9.33-8.76,14.02-13.11
	l7.07-6.49l7.11-6.46c4.75-4.29,9.54-8.55,14.36-12.78c4.83-4.21,9.66-8.43,14.59-12.55l7.38-6.18c2.5-2.02,4.96-4.08,7.5-6.06
	c-1.98,2.54-4.04,5.01-6.05,7.52l-6.17,7.4c-4.11,4.93-8.32,9.77-12.52,14.61c-4.22,4.82-8.47,9.62-12.75,14.38l-6.45,7.12
	l-6.48,7.09c-4.35,4.7-8.69,9.4-13.09,14.04l-6.59,6.98l-6.64,6.93c-4.41,4.64-8.91,9.18-13.36,13.78l-6.74,6.83l-6.75,6.82
	l-4.85,4.9l-4.86-4.9l-13.87-14l-13.74-14.13c-4.53-4.76-9.11-9.47-13.6-14.27c-4.52-4.77-9-9.58-13.46-14.41l-6.67-7.27l-6.63-7.31
	c-4.41-4.88-8.77-9.81-13.12-14.76c-4.32-4.97-8.65-9.93-12.88-14.99l-6.35-7.59C144.05,313.48,141.94,310.94,139.9,308.34z"/>
<path class="st13" d="M0,705.5V313.23v-14.63c5.6-2.07,13.67-5.47,22.59-10.82c32.58-19.58,46.81-47.61,54.69-63.14
	c20.04-39.48,29.27-112.45,13.01-201.1c26.15-7.66,52.31-15.33,78.46-22.99c3.88,6.76,14,22.13,34.25,32.07
	c18.36,9.01,35.03,8.63,47.28,8.35c12.84-0.29,42.99-0.98,65.48-21.39c7.72-7,12.25-14.26,14.78-19.02
	c26.39,7.81,52.77,15.61,79.16,23.42c-5.05,27.42-33.92,196.18,63.94,261.37c7.63,5.08,16.24,9.68,25.99,13.53
	c0,135.55,0,271.1,0,406.65H0z"/>
<g id="FBodyLogos"></g>
<g>
	<linearGradient id="SVGID_14_" gradientUnits="userSpaceOnUse" x1="0" y1="518.492" x2="111.798" y2="518.492">
		<stop class="Gradient1 stopColor" offset="0" style="stop-color:#1D592C"/>
		<stop class="Gradient2 stopColor" offset="1" style="stop-color:#21B14B"/>
	</linearGradient>
	<path class="Colour4 fill" d="M111.23,567.17L0,460v0.55l111.8,116.43C111.63,573.72,111.45,570.45,111.23,567.17z"/>
	<linearGradient id="SVGID_15_" gradientUnits="userSpaceOnUse" x1="0" y1="388.7043" x2="94.4538" y2="388.7043">
		<stop class="Gradient1 stopColor" offset="0" style="stop-color:#1D592C"/>
		<stop class="Gradient2 stopColor" offset="1" style="stop-color:#21B14B"/>
	</linearGradient>
	<path class="Colour4 fill" d="M92.44,427.45L0,338.91v0.63l94.45,98.95C93.78,434.74,93.11,431.05,92.44,427.45z"/>
	<linearGradient id="SVGID_16_" gradientUnits="userSpaceOnUse" x1="0" y1="635.4919" x2="105.5393" y2="635.4919">
		<stop class="Gradient1 stopColor" offset="0" style="stop-color:#1D592C"/>
		<stop class="Gradient2 stopColor" offset="1" style="stop-color:#21B14B"/>
	</linearGradient>
	<path class="Colour4 fill" d="M103.76,689.86c0.63-2.41,1.22-4.9,1.78-7.43L0,581.03v0.59l103.74,108.34
		C103.74,689.92,103.75,689.89,103.76,689.86z"/>
</g>
<linearGradient id="SVGID_17_" gradientUnits="userSpaceOnUse" x1="100.9204" y1="346.2038" x2="100.9204" y2="704.4787">
	<stop class="Gradient2 stopColor" offset="0" style="stop-color:#21B14B"/>
	<stop class="Gradient1 stopColor" offset="1" style="stop-color:#1D592C"/>
</linearGradient>
<path class="Colour4 fill" d="M109.51,659.68c-1.43,10.82-3.36,20.97-5.75,30.18c-1.44,5.57-3.03,10.79-4.73,15.64h6.99
	c1.88-4.14,3.69-8.58,5.35-13.3c3.31-9.34,6.14-19.72,8.34-30.83c2.21-11.12,3.8-22.96,4.74-35.24c0.49-6.14,0.83-12.39,1-18.72
	c0.23-6.33,0.25-12.73,0.16-19.18c-0.13-12.9-0.89-25.97-1.98-38.98c-1.17-13.01-2.67-25.98-4.55-38.68
	c-0.48-3.17-0.96-6.33-1.44-9.47c-0.53-3.13-1.06-6.25-1.58-9.35c-1.08-6.19-2.19-12.3-3.41-18.28
	c-4.75-23.94-10.33-46.02-15.7-64.75c-2.67-9.37-5.35-17.89-7.79-25.42c-2.4-7.54-4.71-14.04-6.62-19.39
	c-1.89-5.36-3.54-9.51-4.63-12.35c-1.11-2.83-1.75-4.33-1.75-4.33s1.37,6.34,3.76,17.42c1.16,5.54,2.56,12.27,4.17,19.99
	c1.59,7.72,3.29,16.43,5.14,25.94c3.67,19.01,7.74,41.2,11.45,65.03c0.92,5.96,1.83,12.02,2.71,18.16
	c0.87,6.14,1.69,12.36,2.5,18.62c1.55,12.54,2.99,25.29,4.05,38.06c1.15,12.76,1.91,25.54,2.34,38.11c0.09,3.14,0.2,6.27,0.22,9.39
	c0.07,3.11,0.12,6.21,0.1,9.29c0.03,6.16-0.13,12.23-0.32,18.2C111.86,637.36,110.96,648.86,109.51,659.68z"/>
<g>
	<linearGradient id="SVGID_18_" gradientUnits="userSpaceOnUse" x1="387.8412" y1="518.4921" x2="499.6389" y2="518.4921">
		<stop class="Gradient1 stopColor" offset="0" style="stop-color:#1D592C"/>
		<stop class="Gradient2 stopColor" offset="1" style="stop-color:#21B14B"/>
	</linearGradient>
	<path class="Colour4 fill" d="M387.84,576.98l111.8-116.43c0-0.18,0-0.37,0-0.55L388.41,567.17C388.19,570.45,388.01,573.72,387.84,576.98z
		"/>
	<linearGradient id="SVGID_19_" gradientUnits="userSpaceOnUse" x1="394.1" y1="635.4919" x2="499.6389" y2="635.4919">
		<stop class="Gradient1 stopColor" offset="0" style="stop-color:#1D592C"/>
		<stop class="Gradient2 stopColor" offset="1" style="stop-color:#21B14B"/>
	</linearGradient>
	<path class="Colour4 fill" d="M395.88,689.86c0.01,0.03,0.02,0.06,0.03,0.1l103.73-108.34c0-0.2,0-0.39,0-0.59L394.1,682.43
		C394.66,684.96,395.25,687.45,395.88,689.86z"/>
	<linearGradient id="SVGID_20_" gradientUnits="userSpaceOnUse" x1="405.1853" y1="388.7044" x2="499.6389" y2="388.7044">
		<stop class="Gradient1 stopColor" offset="0" style="stop-color:#1D592C"/>
		<stop class="Gradient2 stopColor" offset="1" style="stop-color:#21B14B"/>
	</linearGradient>
	<path class="Colour4 fill" d="M407.2,427.45c-0.67,3.6-1.34,7.28-2.01,11.04l94.45-98.95c0-0.21,0-0.42,0-0.63L407.2,427.45z"/>
</g>
<linearGradient id="SVGID_21_" gradientUnits="userSpaceOnUse" x1="398.7188" y1="346.2038" x2="398.7188" y2="704.4787">
	<stop class="Gradient2 stopColor" offset="0" style="stop-color:#21B14B"/>
	<stop class="Gradient1 stopColor" offset="1" style="stop-color:#1D592C"/>
</linearGradient>
<path class="Colour4 fill" d="M395.88,689.86c-2.39-9.21-4.33-19.35-5.75-30.18c-1.45-10.82-2.35-22.33-2.79-34.26
	c-0.18-5.97-0.35-12.04-0.32-18.2c-0.02-3.08,0.03-6.17,0.1-9.29c0.02-3.11,0.13-6.24,0.22-9.39c0.43-12.57,1.19-25.35,2.34-38.11
	c1.07-12.77,2.5-25.51,4.05-38.06c0.82-6.27,1.64-12.48,2.5-18.62c0.88-6.14,1.79-12.2,2.71-18.16
	c3.71-23.83,7.77-46.02,11.45-65.03c1.85-9.5,3.55-18.22,5.14-25.94c1.61-7.72,3.02-14.45,4.17-19.99
	c2.39-11.09,3.76-17.42,3.76-17.42s-0.64,1.49-1.75,4.33c-1.09,2.84-2.74,6.99-4.63,12.35c-1.91,5.35-4.22,11.85-6.62,19.39
	c-2.44,7.53-5.12,16.05-7.79,25.42c-5.37,18.73-10.95,40.81-15.7,64.75c-1.22,5.98-2.33,12.09-3.41,18.28
	c-0.52,3.1-1.05,6.22-1.58,9.35c-0.48,3.14-0.96,6.3-1.44,9.47c-1.88,12.7-3.39,25.67-4.55,38.68c-1.09,13.02-1.85,26.09-1.98,38.98
	c-0.09,6.45-0.07,12.85,0.16,19.18c0.17,6.33,0.51,12.58,1,18.72c0.94,12.28,2.54,24.13,4.74,35.24
	c2.21,11.11,5.03,21.49,8.34,30.83c1.66,4.71,3.47,9.15,5.35,13.3h6.99C398.91,700.65,397.32,695.43,395.88,689.86z"/>
<path class="st13" d="M0,313.23c13.54-4.02,25.08-9.39,34.97-15.47c109.07-67.07,76.74-258.12,72.87-279.38"/>
<path class="st13" d="M390.87,18.38c-3.96,21.14-36.59,208.9,72.39,278.15c10.2,6.48,22.2,12.28,36.38,16.69"/>
<path class="st13" d="M168.75,0.54c-0.04,7.29,0.55,17.88,3.63,30.23c3.73,14.94,12.15,48.63,43.1,64.45
	c14.76,7.54,29.01,8.14,34.5,8.15c4.13,0.01,22.44-0.3,40.18-11.15c28.17-17.22,34.55-48.54,37.89-65
	c2.24-11.02,2.58-20.35,2.48-26.68"/>
<path class="st13" d="M152.64,5.26c-0.51,49.17,21.93,90.68,59.25,106.73c18.48,7.95,38.45,6.68,38.45,6.68s21.63-0.61,42.4-11
	c30.6-15.31,52.08-54.91,53.76-102.42"/>
<path class="st13" d="M172.38,30.77c7.63,5.76,36.52,26.15,79.25,25.57c40.52-0.54,67.78-19.6,75.7-25.57"/>
<line class="st13" x1="386" y1="151.99" x2="384.89" y2="152.43"/>
<line class="st13" x1="0" y1="688.51" x2="499.64" y2="688.51"/>
<line class="st13" x1="0" y1="694.98" x2="499.64" y2="694.98"/>
<path class="st13" d="M103.93,19.53c4.03,20,38.75,204.38-67.64,273.63c-10.1,6.58-22.06,12.49-36.29,17.01"/>
<path class="st13" d="M394.74,19.53c-4.16,23.35-34.72,208.66,72.12,275.53c9.37,5.86,20.2,11.07,32.78,15.12"/>
<path class="st13" d="M165.54,1.48c0.05,4.64,1.79,72.83,48.51,96.48c15.98,8.09,32.88,8.77,33.67,8.79
	c30.12,0.93,51-16.18,55.06-19.65c20.87-17.86,25.28-41.76,29.17-62.78c1.74-9.42,2.26-17.36,2.4-22.84"/>
<path class="st13" d="M168.89,7.07c5.08,6.73,15.93,19.15,34.51,27.68c19.03,8.73,36.06,8.75,47.11,8.64
	c11.51-0.11,30.58-0.52,50.75-11.28c15.2-8.11,24.46-18.61,29.3-25.04"/>
<path class="st13" d="M0,705.5V313.23v-14.63c5.6-2.07,13.67-5.47,22.59-10.82c32.58-19.58,46.81-47.61,54.69-63.14
	c20.04-39.48,29.27-112.45,13.01-201.1c26.15-7.66,52.31-15.33,78.46-22.99c3.88,6.76,14,22.13,34.25,32.07
	c18.36,9.01,35.03,8.63,47.28,8.35c12.84-0.29,42.99-0.98,65.48-21.39c7.72-7,12.25-14.26,14.78-19.02
	c26.39,7.81,52.77,15.61,79.16,23.42c-5.05,27.42-33.92,196.18,63.94,261.37c7.63,5.08,16.24,9.68,25.99,13.53
	c0,135.55,0,271.1,0,406.65H0z"/>
<path class="Colour3 fill" d="M253.25,529.24L488.3,293.79c-2.66-1.33-5.22-2.71-7.69-4.15L253.25,517.39L23.47,287.22
	c-0.3,0.18-0.59,0.37-0.89,0.55c-2.29,1.37-4.51,2.62-6.66,3.74L253.25,529.24z"/>
<path class="NeckAndArmTrim fill" d="M499.64,313.19c-14.18-4.41-26.18-10.21-36.38-16.69c-108.98-69.25-76.35-257.01-72.39-278.15l18.84,5.57
	c-5.05,27.42-33.92,196.18,63.94,261.37c7.63,5.08,16.24,9.68,25.99,13.53C499.64,303.61,499.64,308.4,499.64,313.19"/>
<path class="NeckAndArmTrim fill" d="M0,313.19v-7.91v-6.73c5.6-2.07,13.67-5.47,22.59-10.82c32.58-19.58,46.81-47.61,54.69-63.14
	c20.04-39.48,29.27-112.45,13.01-201.1l17.55-5.14c3.87,21.26,36.2,212.3-72.87,279.38C25.08,303.8,13.54,309.17,0,313.19"/>
<path class="NeckAndArmTrim fill" d="M168.75,0.5c-0.04,7.29,0.55,17.88,3.63,30.23c3.73,14.94,12.15,48.63,43.1,64.45
	c14.76,7.54,29.01,8.14,34.5,8.15c4.13,0.01,22.44-0.3,40.18-11.15c28.17-17.22,34.55-48.54,37.89-65
	c2.24-11.02,2.58-20.35,2.48-26.68l15.96,4.72c-1.69,47.51-23.16,87.11-53.76,102.42c-20.77,10.39-42.4,11-42.4,11
	s-19.97,1.27-38.45-6.68C174.57,95.9,152.13,54.4,152.64,5.22L168.75,0.5z"/>
<path class="NeckAndArmTrim fill" d="M330.54,0.5c-2.53,4.76-7.07,12.02-14.79,19.02c-22.49,20.41-52.64,21.1-65.48,21.39
	c-12.25,0.28-28.92,0.66-47.28-8.35c-20.26-9.94-30.37-25.31-34.25-32.07c-0.77,13.39,3.63,30.23,3.63,30.23
	c7.63,5.76,36.52,26.15,79.25,25.57c40.52-0.54,67.78-19.6,75.7-25.57C327.33,30.73,331.04,15.47,330.54,0.5z"/>
<path class="st22" d="M289.93,92.18c-17.74,10.84-36.06,11.15-40.18,11.15c-5.49-0.01-19.75-0.61-34.5-8.15
	c-30.95-15.81-39.37-49.51-43.1-64.45c7.63,5.76,36.52,26.15,79.25,25.57c40.52-0.54,67.78-19.6,75.7-25.57
	C323.51,47.82,316.2,76.13,289.93,92.18z"/>
<g>
	<line class="st23" x1="0.36" y1="686.87" x2="500" y2="686.87"/>
	<line class="st23" x1="0.36" y1="693.34" x2="500" y2="693.34"/>
	<path class="st23" d="M169.25,7.74c5.08,6.73,15.93,19.15,34.51,27.68c19.03,8.73,36.06,8.75,47.11,8.64
		c11.51-0.11,30.58-0.52,50.75-11.28c15.2-8.11,24.46-18.61,29.3-25.04"/>
	<path class="st23" d="M0.36,302.38c9.94-3.58,18.69-7.91,26.44-12.67c106.31-65.38,76.11-241.34,70.93-269.9"/>
	<path class="st23" d="M104.29,17.89c4.03,20,38.75,204.38-67.64,273.63c-10.1,6.58-22.06,12.49-36.29,17.01"/>
	<path class="st23" d="M401.94,19.92c-5.69,32.08-31.8,205.35,72.97,271.93c7.37,4.69,15.69,7.93,25.09,11.04"/>
	<path class="st23" d="M395.1,17.89c-4.16,23.35-34.72,208.66,72.12,275.53c9.37,5.86,20.2,11.07,32.78,15.12"/>
	<path class="st23" d="M157.65,2.26c0.5,47.7,21.98,87.68,57.15,103.37c17.83,7.95,37.09,6.68,37.09,6.68s20.87-0.61,40.9-11
		c28.69-14.88,46.84-52.69,49.46-98.4"/>
	<path class="st23" d="M163.51,0.54c0.54,13.13,5.49,74.6,49.85,97.05c16.44,8.32,33.84,9.02,34.65,9.05
		c30.99,0.96,52.84-16.27,56.66-20.22c21.33-22.09,24.81-40.96,30.02-64.6c1.83-8.33,2.16-15.64,2.39-21.09"/>
	<path class="st23" d="M170.74,19.5c6.28,6.8,16.37,15.62,31.18,22.16c19.78,8.73,37.49,8.75,48.99,8.64
		c11.97-0.11,31.8-0.52,52.76-11.28c11.86-6.08,20.23-13.51,25.8-19.56"/>
</g>
</svg>
