<?xml version="1.0" encoding="utf-8"?>
<!-- Generator: Adobe Illustrator 19.1.0, SVG Export Plug-In . SVG Version: 6.00 Build 0)  -->
<svg version="1.1" id="Layer_1" xmlns="http://www.w3.org/2000/svg" xmlns:xlink="http://www.w3.org/1999/xlink" x="0px" y="0px"
	 viewBox="0 0 500 706" style="enable-background:new 0 0 500 706;" xml:space="preserve">
<style type="text/css">
	<![CDATA[
	@font-face{font-family:'codaheavy';src:url('/fonts/coda-heavy-webfont.woff') format('woff')}
	text{font-family:Impact,codaheavy,sans-serif}
	.Number.fill{fill:#000}
	.NumberOutline.stroke{fill:none;stroke:#777;stroke-width:2.5}
	.Colour1.fill{fill:#0A0A0A;}
	.Colour2.fill{fill:#0D0D0D;}
	.Colour3.fill{fill:#1A5F30;}
	.Colour4.fill{fill:#FFFFFF;}
	.Colour5.fill{fill:#21B14B;}
	.NeckAndArmTrim.fill{fill:#0DB04B;}
	.st0{fill:url(#SVGID_1_);}
	.st1{fill:url(#SVGID_2_);}
	.st2{fill:url(#SVGID_3_);}
	.st3{fill:url(#SVGID_4_);}
	.st4{fill:url(#SVGID_5_);}
	.st5{fill:url(#SVGID_6_);}
	.st6{fill:url(#SVGID_7_);}
	.st7{fill:url(#SVGID_8_);}
	.st8{fill:url(#SVGID_9_);}
	.st9{fill:url(#SVGID_10_);}
	.st10{fill:url(#SVGID_11_);}
	.st11{fill:url(#SVGID_12_);}
	.st12{fill:url(#SVGID_13_);}
	.st13{fill:url(#SVGID_14_);}
	.st14{fill:url(#SVGID_15_);}
	.st15{fill:url(#SVGID_16_);}
	.st16{fill:url(#SVGID_17_);}
	.st17{fill:url(#SVGID_18_);}
	.st18{fill:url(#SVGID_19_);}
	.st19{fill:url(#SVGID_20_);}
	.st20{fill:url(#SVGID_21_);}
	.st21{fill:none;}
	.st22{fill:none;stroke:#FFFFFF;stroke-width:0.5;stroke-miterlimit:10;stroke-dasharray:4,2.4;}
	]]>
</style>
<path class="Colour3 fill" d="M164.2,1.87c-24.21,7.2-48.41,14.4-72.62,21.59c1.81,11.69,4.09,28.78,5.52,49.53
	c0.1,1.43,0.19,2.83,0.29,4.24c0.26,3.36,0.48,6.69,0.66,9.98c1.76,27.71,2.4,52.28-2.99,81.21c-4.62,24.82-9.47,50.84-27.68,76.84
	H432.6c-1.73-2.43-3.44-4.96-5.11-7.6c-12.04-19.13-21.85-55.12-24.51-102.66c-1.27-19.15-0.97-37.56,0.04-53.82
	c0.97-18.19,2.89-37.42,5.98-57.54c-21.64-6.4-43.28-12.8-64.92-19.19c-4.43-1.31-8.86-2.62-13.3-3.92
	c-1.02,1.92-2.38,4.25-4.13,6.79c-5.09,7.54-12.52,15.68-23.24,22.02c-12.92,7.64-25.95,9.92-37.64,10.73
	c-6.18,0.66-11.5,0.78-15.3,0.87c-12.26,0.28-28.94,0.66-47.31-8.35c-19.76-9.69-29.86-24.52-33.95-31.52
	c-0.12-0.17-0.27-0.37-0.38-0.53C167.29,0.97,165.74,1.42,164.2,1.87z"/>
<linearGradient id="SVGID_1_" gradientUnits="userSpaceOnUse" x1="250.1498" y1="66.0011" x2="250.1498" y2="102.4298">
	<stop class="Gradient2 stopColor" offset="0" style="stop-color:#21B14B"/>
	<stop class="Gradient1 stopColor" offset="1" style="stop-color:#1D592C"/>
</linearGradient>
<path class="Colour4 fill" d="M402.16,104.86c0.06-6.21,0.25-12.23,0.54-18.02C272.6,56.28,169.17,64.12,97.59,80.02
	c0.43,6.2,0.73,12.28,0.91,18.24C168.89,82.58,271.93,74.47,402.16,104.86z"/>
<path class="Colour2 fill" d="M0.55,705.5h498.92c0-135.54,0-271.09,0-406.63c-4.88-1.81-12.64-4.99-21.41-10.08
	c0,0-28.96-16.81-50.58-51.15c-5.33-8.47-10.22-20.29-14.25-34.92H87.41c-4.89,16.67-12.38,33.62-26.08,50.51
	c-3.81,4.7-7.78,8.99-11.82,12.91c-7.23,7.62-16.03,15.07-26.88,21.59c-5.23,3.14-10.16,5.59-14.48,7.52
	c-2.7,1.35-5.26,2.57-7.6,3.61V705.5z"/>
<path class="Colour1 fill" d="M23.52,287.2l229.93,230.18l227-227.25c-0.79-0.43-1.57-0.87-2.37-1.33c0,0-28.96-16.81-50.58-51.15
	c-11.95-18.98-21.7-54.59-24.45-101.6c0-0.03,0-0.06-0.01-0.08c-0.02-0.31-0.04-0.62-0.06-0.93c-0.82-12.33-0.99-24.37-0.73-35.71
	C271.73,64,168.48,73.72,98.34,91.96c1.52,25.8,1.79,49.19-3.29,76.46c-5.1,27.36-10.47,56.18-33.72,84.83
	c-3.85,4.74-7.86,9.07-11.93,13.02C42.39,273.63,33.91,280.84,23.52,287.2z"/>
<linearGradient id="SVGID_2_" gradientUnits="userSpaceOnUse" x1="250.0154" y1="470.405" x2="250.0154" y2="310.0634">
	<stop class="Gradient1 stopColor" offset="0" style="stop-color:#1D592C"/>
	<stop class="Gradient2 stopColor" offset="1" style="stop-color:#21B14B"/>
</linearGradient>
<path class="Colour4 fill" d="M116.66,330.86c3.1,2.53,6.12,5.14,9.19,7.71l9.06,7.84c3.04,2.6,5.99,5.27,8.98,7.92l8.95,7.95
	c5.93,5.34,11.84,10.7,17.7,16.1l8.78,8.12l8.74,8.16c5.82,5.45,11.6,10.93,17.36,16.45c5.78,5.48,11.48,11.06,17.21,16.59
	l17.08,16.73l16.94,16.86h-9.71l16.52-16.39c5.55-5.42,11.05-10.89,16.64-16.27l8.37-8.09l8.41-8.05c5.6-5.37,11.26-10.68,16.91-16
	l8.52-7.94l8.56-7.9c5.72-5.26,11.47-10.47,17.25-15.66c5.83-5.14,11.59-10.35,17.48-15.44l8.83-7.63c2.98-2.5,5.93-5.04,8.95-7.51
	c-2.46,3.02-5,5.97-7.5,8.96l-7.62,8.84c-5.08,5.89-10.28,11.66-15.42,17.49c-5.18,5.79-10.39,11.55-15.64,17.27l-7.89,8.57
	l-7.93,8.53c-5.31,5.66-10.62,11.32-15.98,16.93l-8.04,8.42l-8.08,8.38c-5.37,5.6-10.84,11.11-16.25,16.66l-16.38,16.54l-4.85,4.9
	l-4.86-4.9l-16.84-16.96l-16.71-17.1c-5.52-5.74-11.09-11.44-16.57-17.23c-5.51-5.76-10.98-11.55-16.43-17.37l-8.15-8.75l-8.11-8.79
	c-5.39-5.87-10.75-11.78-16.08-17.72l-7.94-8.96c-2.64-2.99-5.31-5.95-7.91-8.99l-7.83-9.07
	C121.8,336.99,119.19,333.96,116.66,330.86z"/>
<g>
	<linearGradient id="SVGID_3_" gradientUnits="userSpaceOnUse" x1="250.0154" y1="489.2793" x2="250.0154" y2="679.847">
		<stop class="Gradient3 stopColor" offset="0" style="stop-color:#000000;stop-opacity:0"/>
		<stop class="Gradient4 stopColor" offset="1" style="stop-color:#0F9A48"/>
	</linearGradient>
	<path class="Colour5" d="M143.32,612.38c4.73,3.17,9.43,6.38,14.1,9.63l13.96,9.81l13.86,9.94c4.62,3.32,9.18,6.7,13.78,10.05
		c4.6,3.34,9.17,6.72,13.71,10.13l13.66,10.2l27.13,20.65h-4.18l13.21-10.06c4.41-3.34,8.78-6.73,13.23-10.03l13.3-9.93
		c4.42-3.33,8.89-6.59,13.36-9.85c4.48-3.26,8.91-6.56,13.42-9.78l13.5-9.67l13.6-9.54c4.55-3.16,9.13-6.28,13.73-9.37
		c-4.17,3.66-8.36,7.28-12.59,10.87l-12.72,10.7l-12.82,10.56c-4.26,3.53-8.6,6.97-12.9,10.46c-4.3,3.48-8.6,6.96-12.96,10.38
		l-13.01,10.31c-4.33,3.45-8.73,6.8-13.09,10.21l-13.11,10.18l-2.09,1.62l-2.09-1.62l-26.93-20.92l-13.37-10.59
		c-4.47-3.51-8.9-7.07-13.32-10.65c-4.42-3.58-8.86-7.12-13.25-10.73l-13.17-10.84l-13.06-10.98
		C151.91,619.85,147.6,616.13,143.32,612.38z"/>
	<linearGradient id="SVGID_4_" gradientUnits="userSpaceOnUse" x1="250.0154" y1="489.2793" x2="250.0154" y2="679.847">
		<stop class="Gradient3 stopColor" offset="0" style="stop-color:#000000;stop-opacity:0"/>
		<stop class="Gradient4 stopColor" offset="1" style="stop-color:#0F9A48"/>
	</linearGradient>
	<path class="Colour5" d="M143.32,595.86c4.73,3.17,9.43,6.38,14.1,9.63l13.96,9.81l13.86,9.94c4.62,3.32,9.18,6.7,13.78,10.05
		c4.6,3.34,9.17,6.72,13.71,10.13l13.66,10.2l27.13,20.65h-4.18l13.21-10.06c4.41-3.34,8.78-6.73,13.23-10.03l13.3-9.93
		c4.42-3.33,8.89-6.59,13.36-9.85c4.48-3.26,8.91-6.56,13.42-9.78l13.5-9.67l13.6-9.54c4.55-3.16,9.13-6.28,13.73-9.37
		c-4.17,3.66-8.36,7.28-12.59,10.87l-12.72,10.7l-12.82,10.56c-4.26,3.53-8.6,6.97-12.9,10.46c-4.3,3.48-8.6,6.96-12.96,10.38
		l-13.01,10.31c-4.33,3.45-8.73,6.8-13.09,10.21l-13.11,10.18l-2.09,1.62l-2.09-1.62l-26.93-20.92l-13.37-10.59
		c-4.47-3.51-8.9-7.07-13.32-10.65c-4.42-3.58-8.86-7.12-13.25-10.73L169.32,618l-13.06-10.98
		C151.91,603.34,147.6,599.62,143.32,595.86z"/>
	<linearGradient id="SVGID_5_" gradientUnits="userSpaceOnUse" x1="250.0154" y1="489.2793" x2="250.0154" y2="679.847">
		<stop class="Gradient3 stopColor" offset="0" style="stop-color:#000000;stop-opacity:0"/>
		<stop class="Gradient4 stopColor" offset="1" style="stop-color:#0F9A48"/>
	</linearGradient>
	<path class="Colour5" d="M143.32,579.35c4.73,3.17,9.43,6.38,14.1,9.63l13.96,9.81l13.86,9.94c4.62,3.32,9.18,6.7,13.78,10.05
		c4.6,3.34,9.17,6.72,13.71,10.13l13.66,10.2l27.13,20.65h-4.18l13.21-10.06c4.41-3.34,8.78-6.73,13.23-10.03l13.3-9.93
		c4.42-3.33,8.89-6.59,13.36-9.85c4.48-3.26,8.91-6.56,13.42-9.78l13.5-9.67l13.6-9.54c4.55-3.16,9.13-6.28,13.73-9.37
		c-4.17,3.66-8.36,7.28-12.59,10.87l-12.72,10.7l-12.82,10.56c-4.26,3.53-8.6,6.97-12.9,10.46c-4.3,3.48-8.6,6.96-12.96,10.38
		l-13.01,10.31c-4.33,3.45-8.73,6.8-13.09,10.21l-13.11,10.18l-2.09,1.62l-2.09-1.62l-26.93-20.92l-13.37-10.59
		c-4.47-3.51-8.9-7.07-13.32-10.65c-4.42-3.58-8.86-7.12-13.25-10.73l-13.17-10.84l-13.06-10.98
		C151.91,586.83,147.6,583.11,143.32,579.35z"/>
	<linearGradient id="SVGID_6_" gradientUnits="userSpaceOnUse" x1="250.0154" y1="489.2793" x2="250.0154" y2="679.847">
		<stop class="Gradient3 stopColor" offset="0" style="stop-color:#000000;stop-opacity:0"/>
		<stop class="Gradient4 stopColor" offset="1" style="stop-color:#0F9A48"/>
	</linearGradient>
	<path class="Colour5" d="M143.32,562.84c4.73,3.17,9.43,6.38,14.1,9.63l13.96,9.81l13.86,9.94c4.62,3.32,9.18,6.7,13.78,10.05
		c4.6,3.34,9.17,6.72,13.71,10.13l13.66,10.2l27.13,20.65h-4.18l13.21-10.06c4.41-3.34,8.78-6.73,13.23-10.03l13.3-9.93
		c4.42-3.33,8.89-6.59,13.36-9.85c4.48-3.26,8.91-6.56,13.42-9.78l13.5-9.67l13.6-9.54c4.55-3.16,9.13-6.28,13.73-9.37
		c-4.17,3.66-8.36,7.28-12.59,10.87l-12.72,10.7l-12.82,10.56c-4.26,3.53-8.6,6.97-12.9,10.46c-4.3,3.48-8.6,6.96-12.96,10.38
		l-13.01,10.31c-4.33,3.45-8.73,6.8-13.09,10.21l-13.11,10.18l-2.09,1.62l-2.09-1.62l-26.93-20.92l-13.37-10.59
		c-4.47-3.51-8.9-7.07-13.32-10.65c-4.42-3.58-8.86-7.12-13.25-10.73l-13.17-10.84l-13.06-10.98
		C151.91,570.31,147.6,566.59,143.32,562.84z"/>
	<linearGradient id="SVGID_7_" gradientUnits="userSpaceOnUse" x1="250.0154" y1="489.2793" x2="250.0154" y2="679.847">
		<stop class="Gradient3 stopColor" offset="0" style="stop-color:#000000;stop-opacity:0"/>
		<stop class="Gradient4 stopColor" offset="1" style="stop-color:#0F9A48"/>
	</linearGradient>
	<path class="Colour5" d="M143.32,546.32c4.73,3.17,9.43,6.38,14.1,9.63l13.96,9.81l13.86,9.94c4.62,3.32,9.18,6.7,13.78,10.05
		c4.6,3.34,9.17,6.72,13.71,10.13l13.66,10.2l27.13,20.65h-4.18l13.21-10.06c4.41-3.34,8.78-6.73,13.23-10.03l13.3-9.93
		c4.42-3.33,8.89-6.59,13.36-9.85c4.48-3.26,8.91-6.56,13.42-9.78l13.5-9.67l13.6-9.54c4.55-3.16,9.13-6.28,13.73-9.37
		c-4.17,3.66-8.36,7.28-12.59,10.87l-12.72,10.7l-12.82,10.56c-4.26,3.53-8.6,6.97-12.9,10.46c-4.3,3.48-8.6,6.96-12.96,10.38
		l-13.01,10.31c-4.33,3.45-8.73,6.8-13.09,10.21l-13.11,10.18l-2.09,1.62l-2.09-1.62l-26.93-20.92l-13.37-10.59
		c-4.47-3.51-8.9-7.07-13.32-10.65c-4.42-3.58-8.86-7.12-13.25-10.73l-13.17-10.84l-13.06-10.98
		C151.91,553.8,147.6,550.08,143.32,546.32z"/>
	<linearGradient id="SVGID_8_" gradientUnits="userSpaceOnUse" x1="250.0154" y1="489.2793" x2="250.0154" y2="679.847">
		<stop class="Gradient3 stopColor" offset="0" style="stop-color:#000000;stop-opacity:0"/>
		<stop class="Gradient4 stopColor" offset="1" style="stop-color:#0F9A48"/>
	</linearGradient>
	<path class="Colour5" d="M143.32,529.81c4.73,3.17,9.43,6.38,14.1,9.63l13.96,9.81l13.86,9.94c4.62,3.32,9.18,6.7,13.78,10.05
		c4.6,3.34,9.17,6.72,13.71,10.13l13.66,10.2l27.13,20.65h-4.18l13.21-10.06c4.41-3.34,8.78-6.73,13.23-10.03l13.3-9.93
		c4.42-3.33,8.89-6.59,13.36-9.85c4.48-3.26,8.91-6.56,13.42-9.78l13.5-9.67l13.6-9.54c4.55-3.16,9.13-6.28,13.73-9.37
		c-4.17,3.66-8.36,7.28-12.59,10.87l-12.72,10.7l-12.82,10.56c-4.26,3.53-8.6,6.97-12.9,10.46c-4.3,3.48-8.6,6.96-12.96,10.38
		l-13.01,10.31c-4.33,3.45-8.73,6.8-13.09,10.21l-13.11,10.18l-2.09,1.62l-2.09-1.62l-26.93-20.92l-13.37-10.59
		c-4.47-3.51-8.9-7.07-13.32-10.65c-4.42-3.58-8.86-7.12-13.25-10.73l-13.17-10.84l-13.06-10.98
		C151.91,537.28,147.6,533.56,143.32,529.81z"/>
	<linearGradient id="SVGID_9_" gradientUnits="userSpaceOnUse" x1="250.0154" y1="489.2793" x2="250.0154" y2="679.847">
		<stop class="Gradient3 stopColor" offset="0" style="stop-color:#000000;stop-opacity:0"/>
		<stop class="Gradient4 stopColor" offset="1" style="stop-color:#0F9A48"/>
	</linearGradient>
	<path class="Colour5" d="M143.32,513.3c4.73,3.17,9.43,6.38,14.1,9.63l13.96,9.81l13.86,9.94c4.62,3.32,9.18,6.7,13.78,10.05
		c4.6,3.34,9.17,6.72,13.71,10.13l13.66,10.2l27.13,20.65h-4.18l13.21-10.06c4.41-3.34,8.78-6.73,13.23-10.03l13.3-9.93
		c4.42-3.33,8.89-6.59,13.36-9.85c4.48-3.26,8.91-6.56,13.42-9.78l13.5-9.67l13.6-9.54c4.55-3.16,9.13-6.28,13.73-9.37
		c-4.17,3.66-8.36,7.28-12.59,10.87l-12.72,10.7l-12.82,10.56c-4.26,3.53-8.6,6.97-12.9,10.46c-4.3,3.48-8.6,6.96-12.96,10.38
		l-13.01,10.31c-4.33,3.45-8.73,6.8-13.09,10.21l-13.11,10.18l-2.09,1.62l-2.09-1.62l-26.93-20.92l-13.37-10.59
		c-4.47-3.51-8.9-7.07-13.32-10.65c-4.42-3.58-8.86-7.12-13.25-10.73l-13.17-10.84l-13.06-10.98
		C151.91,520.77,147.6,517.05,143.32,513.3z"/>
	<linearGradient id="SVGID_10_" gradientUnits="userSpaceOnUse" x1="250.0154" y1="489.2793" x2="250.0154" y2="679.847">
		<stop class="Gradient3 stopColor" offset="0" style="stop-color:#000000;stop-opacity:0"/>
		<stop class="Gradient4 stopColor" offset="1" style="stop-color:#0F9A48"/>
	</linearGradient>
	<path class="Colour5" d="M143.32,496.78c4.73,3.17,9.43,6.38,14.1,9.63l13.96,9.81l13.86,9.94c4.62,3.32,9.18,6.7,13.78,10.05
		c4.6,3.34,9.17,6.72,13.71,10.13l13.66,10.2l27.13,20.65h-4.18l13.21-10.06c4.41-3.34,8.78-6.73,13.23-10.03l13.3-9.93
		c4.42-3.33,8.89-6.59,13.36-9.85c4.48-3.26,8.91-6.56,13.42-9.78l13.5-9.67l13.6-9.54c4.55-3.16,9.13-6.28,13.73-9.37
		c-4.17,3.66-8.36,7.28-12.59,10.87l-12.72,10.7l-12.82,10.56c-4.26,3.53-8.6,6.97-12.9,10.46c-4.3,3.48-8.6,6.96-12.96,10.38
		l-13.01,10.31c-4.33,3.45-8.73,6.8-13.09,10.21l-13.11,10.18l-2.09,1.62l-2.09-1.62l-26.93-20.92l-13.37-10.59
		c-4.47-3.51-8.9-7.07-13.32-10.65c-4.42-3.58-8.86-7.12-13.25-10.73l-13.17-10.84l-13.06-10.98
		C151.91,504.26,147.6,500.54,143.32,496.78z"/>
	<linearGradient id="SVGID_11_" gradientUnits="userSpaceOnUse" x1="250.0154" y1="489.2793" x2="250.0154" y2="679.847">
		<stop class="Gradient3 stopColor" offset="0" style="stop-color:#000000;stop-opacity:0"/>
		<stop class="Gradient4 stopColor" offset="1" style="stop-color:#0F9A48"/>
	</linearGradient>
	<path class="Colour5" d="M143.32,480.27c4.73,3.17,9.43,6.38,14.1,9.63l13.96,9.81l13.86,9.94c4.62,3.32,9.18,6.7,13.78,10.05
		c4.6,3.34,9.17,6.72,13.71,10.13l13.66,10.2l27.13,20.65h-4.18l13.21-10.06c4.41-3.34,8.78-6.73,13.23-10.03l13.3-9.93
		c4.42-3.33,8.89-6.59,13.36-9.85c4.48-3.26,8.91-6.56,13.42-9.78l13.5-9.67l13.6-9.54c4.55-3.16,9.13-6.28,13.73-9.37
		c-4.17,3.66-8.36,7.28-12.59,10.87l-12.72,10.7l-12.82,10.56c-4.26,3.53-8.6,6.97-12.9,10.46c-4.3,3.48-8.6,6.96-12.96,10.38
		l-13.01,10.31c-4.33,3.45-8.73,6.8-13.09,10.21l-13.11,10.18l-2.09,1.62l-2.09-1.62l-26.93-20.92l-13.37-10.59
		c-4.47-3.51-8.9-7.07-13.32-10.65c-4.42-3.58-8.86-7.12-13.25-10.73l-13.17-10.84l-13.06-10.98
		C151.91,487.74,147.6,484.02,143.32,480.27z"/>
	<linearGradient id="SVGID_12_" gradientUnits="userSpaceOnUse" x1="250.0154" y1="489.2793" x2="250.0154" y2="679.847">
		<stop class="Gradient3 stopColor" offset="0" style="stop-color:#000000;stop-opacity:0"/>
		<stop class="Gradient4 stopColor" offset="1" style="stop-color:#0F9A48"/>
	</linearGradient>
	<path class="Colour5" d="M143.32,463.75c4.73,3.17,9.43,6.38,14.1,9.63l13.96,9.81l13.86,9.94c4.62,3.32,9.18,6.7,13.78,10.05
		c4.6,3.34,9.17,6.72,13.71,10.13l13.66,10.2l27.13,20.65h-4.18l13.21-10.06c4.41-3.34,8.78-6.73,13.23-10.03l13.3-9.93
		c4.42-3.33,8.89-6.59,13.36-9.85c4.48-3.26,8.91-6.56,13.42-9.78l13.5-9.67l13.6-9.54c4.55-3.16,9.13-6.28,13.73-9.37
		c-4.17,3.66-8.36,7.28-12.59,10.87l-12.72,10.7l-12.82,10.56c-4.26,3.53-8.6,6.97-12.9,10.46c-4.3,3.48-8.6,6.96-12.96,10.38
		l-13.01,10.31c-4.33,3.45-8.73,6.8-13.09,10.21l-13.11,10.18l-2.09,1.62l-2.09-1.62l-26.93-20.92l-13.37-10.59
		c-4.47-3.51-8.9-7.07-13.32-10.65c-4.42-3.58-8.86-7.12-13.25-10.73l-13.17-10.84l-13.06-10.98
		C151.91,471.23,147.6,467.51,143.32,463.75z"/>
</g>
<linearGradient id="SVGID_13_" gradientUnits="userSpaceOnUse" x1="250.0154" y1="470.405" x2="250.0154" y2="310.0634">
	<stop class="Gradient1 stopColor" offset="0" style="stop-color:#1D592C"/>
	<stop class="Gradient2 stopColor" offset="1" style="stop-color:#21B14B"/>
</linearGradient>
<path class="Colour4 fill" d="M140.03,308.31c2.61,2.04,5.14,4.16,7.71,6.23l7.58,6.36c5.05,4.24,10.02,8.57,14.98,12.9
	c4.94,4.35,9.86,8.72,14.74,13.14l7.3,6.64l7.26,6.68c4.83,4.46,9.63,8.96,14.4,13.48c4.8,4.5,9.5,9.08,14.25,13.62l14.12,13.76
	l13.98,13.9h-9.71l6.81-6.76l6.83-6.75c4.59-4.46,9.13-8.96,13.76-13.38l6.93-6.65l6.97-6.6c4.64-4.41,9.34-8.76,14.03-13.12
	l7.08-6.49l7.12-6.46c4.75-4.3,9.55-8.55,14.37-12.78c4.83-4.21,9.67-8.43,14.6-12.55l7.39-6.18c2.5-2.02,4.97-4.08,7.51-6.06
	c-1.98,2.54-4.04,5.01-6.06,7.52l-6.18,7.4c-4.12,4.93-8.32,9.77-12.53,14.61c-4.23,4.82-8.47,9.62-12.76,14.38l-6.45,7.12
	l-6.49,7.09c-4.35,4.7-8.7,9.4-13.1,14.04l-6.6,6.98l-6.64,6.93c-4.41,4.64-8.91,9.18-13.37,13.78l-6.74,6.83l-6.75,6.82l-4.85,4.9
	l-4.86-4.9l-13.88-14L219,396.62c-4.54-4.76-9.12-9.47-13.61-14.27c-4.52-4.77-9.01-9.58-13.47-14.41l-6.67-7.27l-6.63-7.31
	c-4.41-4.88-8.78-9.81-13.12-14.76c-4.33-4.97-8.65-9.94-12.89-14.99l-6.35-7.59C144.18,313.45,142.06,310.92,140.03,308.31z"/>
<g id="BBodyLogos"></g>
<g>
	<linearGradient id="SVGID_14_" gradientUnits="userSpaceOnUse" x1="0.5532" y1="518.4819" x2="112.4251" y2="518.4819">
		<stop class="Gradient1 stopColor" offset="0" style="stop-color:#1D592C"/>
		<stop class="Gradient2 stopColor" offset="1" style="stop-color:#21B14B"/>
	</linearGradient>
	<path class="Colour4 fill" d="M111.86,567.16L0.55,459.99v0.55l111.87,116.44C112.26,573.71,112.07,570.44,111.86,567.16z"/>
	<linearGradient id="SVGID_15_" gradientUnits="userSpaceOnUse" x1="0.5532" y1="388.6872" x2="95.0695" y2="388.6872">
		<stop class="Gradient1 stopColor" offset="0" style="stop-color:#1D592C"/>
		<stop class="Gradient2 stopColor" offset="1" style="stop-color:#21B14B"/>
	</linearGradient>
	<path class="Colour4 fill" d="M93.05,427.44l-92.5-88.55v0.63l94.52,98.96C94.39,434.72,93.72,431.04,93.05,427.44z"/>
	<linearGradient id="SVGID_16_" gradientUnits="userSpaceOnUse" x1="0.5532" y1="635.4882" x2="106.1623" y2="635.4882">
		<stop class="Gradient1 stopColor" offset="0" style="stop-color:#1D592C"/>
		<stop class="Gradient2 stopColor" offset="1" style="stop-color:#21B14B"/>
	</linearGradient>
	<path class="Colour4 fill" d="M104.38,689.86c0.63-2.41,1.22-4.9,1.78-7.43L0.55,581.02v0.59l103.8,108.34
		C104.37,689.92,104.37,689.89,104.38,689.86z"/>
</g>
<linearGradient id="SVGID_17_" gradientUnits="userSpaceOnUse" x1="101.0178" y1="346.1843" x2="101.0178" y2="704.4786">
	<stop class="Gradient2 stopColor" offset="0" style="stop-color:#21B14B"/>
	<stop class="Gradient1 stopColor" offset="1" style="stop-color:#1D592C"/>
</linearGradient>
<path class="Colour4 fill" d="M109.61,659.68c-1.43,10.82-3.37,20.97-5.75,30.18c-1.44,5.57-3.04,10.79-4.73,15.64h6.99
	c1.88-4.14,3.69-8.58,5.36-13.3c3.32-9.34,6.14-19.72,8.35-30.83c2.21-11.12,3.8-22.96,4.75-35.24c0.49-6.14,0.83-12.39,1-18.72
	c0.23-6.33,0.25-12.73,0.16-19.18c-0.13-12.9-0.89-25.97-1.98-38.99c-1.17-13.01-2.67-25.98-4.55-38.68
	c-0.48-3.17-0.97-6.33-1.44-9.47c-0.53-3.13-1.06-6.25-1.58-9.35c-1.08-6.19-2.19-12.3-3.41-18.28
	c-4.76-23.95-10.34-46.02-15.71-64.76c-2.67-9.37-5.35-17.9-7.79-25.42c-2.4-7.54-4.71-14.04-6.62-19.39
	c-1.89-5.36-3.54-9.51-4.63-12.35c-1.11-2.83-1.75-4.33-1.75-4.33s1.37,6.34,3.76,17.42c1.16,5.54,2.56,12.27,4.18,19.99
	c1.59,7.72,3.29,16.44,5.14,25.94c3.68,19.01,7.74,41.2,11.46,65.03c0.92,5.96,1.83,12.02,2.71,18.16
	c0.87,6.14,1.69,12.36,2.5,18.62c1.55,12.54,2.99,25.29,4.05,38.06c1.15,12.76,1.91,25.54,2.34,38.11c0.09,3.14,0.2,6.27,0.22,9.39
	c0.07,3.11,0.12,6.21,0.1,9.29c0.03,6.16-0.13,12.23-0.32,18.2C111.97,637.35,111.07,648.86,109.61,659.68z"/>
<g>
	<linearGradient id="SVGID_18_" gradientUnits="userSpaceOnUse" x1="387.6058" y1="518.4819" x2="499.4775" y2="518.4819">
		<stop class="Gradient1 stopColor" offset="0" style="stop-color:#1D592C"/>
		<stop class="Gradient2 stopColor" offset="1" style="stop-color:#21B14B"/>
	</linearGradient>
	<path class="Colour4 fill" d="M387.61,576.98l111.87-116.44c0-0.18,0-0.37,0-0.55L388.17,567.16C387.96,570.44,387.77,573.71,387.61,576.98
		z"/>
	<linearGradient id="SVGID_19_" gradientUnits="userSpaceOnUse" x1="393.8688" y1="635.4882" x2="499.4775" y2="635.4882">
		<stop class="Gradient1 stopColor" offset="0" style="stop-color:#1D592C"/>
		<stop class="Gradient2 stopColor" offset="1" style="stop-color:#21B14B"/>
	</linearGradient>
	<path class="Colour4 fill" d="M395.65,689.86c0.01,0.03,0.02,0.06,0.03,0.1l103.8-108.34c0-0.2,0-0.39,0-0.59L393.87,682.43
		C394.43,684.96,395.02,687.45,395.65,689.86z"/>
	<linearGradient id="SVGID_20_" gradientUnits="userSpaceOnUse" x1="404.9615" y1="388.6873" x2="499.4775" y2="388.6873">
		<stop class="Gradient1 stopColor" offset="0" style="stop-color:#1D592C"/>
		<stop class="Gradient2 stopColor" offset="1" style="stop-color:#21B14B"/>
	</linearGradient>
	<path class="Colour4 fill" d="M406.98,427.44c-0.67,3.6-1.34,7.28-2.02,11.04l94.52-98.95c0-0.21,0-0.42,0-0.63L406.98,427.44z"/>
</g>
<linearGradient id="SVGID_21_" gradientUnits="userSpaceOnUse" x1="399.0132" y1="346.1843" x2="399.0132" y2="704.4786">
	<stop class="Gradient2 stopColor" offset="0" style="stop-color:#21B14B"/>
	<stop class="Gradient1 stopColor" offset="1" style="stop-color:#1D592C"/>
</linearGradient>
<path class="Colour4 fill" d="M396.17,689.86c-2.39-9.21-4.33-19.35-5.75-30.18c-1.45-10.82-2.35-22.33-2.79-34.27
	c-0.18-5.97-0.35-12.04-0.32-18.2c-0.02-3.08,0.03-6.17,0.1-9.29c0.02-3.11,0.13-6.24,0.22-9.39c0.43-12.57,1.19-25.35,2.34-38.11
	c1.07-12.77,2.5-25.52,4.05-38.06c0.82-6.27,1.64-12.49,2.5-18.62c0.88-6.14,1.79-12.2,2.71-18.16
	c3.71-23.83,7.78-46.02,11.46-65.03c1.85-9.5,3.55-18.22,5.14-25.94c1.61-7.72,3.02-14.45,4.18-19.99
	c2.39-11.09,3.76-17.42,3.76-17.42s-0.64,1.49-1.75,4.33c-1.09,2.84-2.74,6.99-4.63,12.35c-1.91,5.35-4.22,11.86-6.62,19.39
	c-2.44,7.53-5.12,16.05-7.79,25.42c-5.37,18.73-10.96,40.81-15.71,64.76c-1.22,5.98-2.33,12.09-3.41,18.28
	c-0.53,3.1-1.05,6.22-1.58,9.35c-0.48,3.14-0.96,6.3-1.44,9.47c-1.88,12.7-3.39,25.67-4.55,38.68c-1.09,13.02-1.85,26.09-1.98,38.99
	c-0.09,6.45-0.07,12.85,0.16,19.18c0.17,6.33,0.51,12.58,1,18.72c0.94,12.28,2.54,24.13,4.75,35.24
	c2.21,11.11,5.03,21.49,8.35,30.83c1.67,4.71,3.47,9.15,5.36,13.3h6.99C399.21,700.65,397.61,695.43,396.17,689.86z"/>
<g>
	<path class="st21" d="M0.55,298.87C16.17,291.9,41,278.3,61.33,253.24c23.25-28.64,28.62-57.47,33.72-84.83
		c6.29-33.78,4.38-61.59,2.04-95.42c-1.43-20.75-3.71-37.84-5.52-49.53c25.75-7.66,51.5-15.31,77.24-22.97
		c6.34,9.04,21.88,28.17,48.96,36.31c14.19,4.27,26.41,3.97,35.74,3.74c14.35-0.35,32.24-0.78,49.9-11.23
		c14.06-8.32,22.46-19.72,27.35-28.82c26.08,7.7,52.16,15.39,78.24,23.09c-15.68,102.16-1.74,181.92,18.49,214.06
		c21.61,34.34,50.58,51.15,50.58,51.15c8.77,5.09,16.53,8.27,21.41,10.08c0,135.54,0,271.09,0,406.63H0.55V298.87z"/>
	<path class="st21" d="M107.54,18.72c4.75,21.78,7.92,45.74,8.33,71.59c0.64,40.88,2.34,148.4-72.75,203.19
		c-16.22,11.83-32.1,18.35-42.57,21.92"/>
	<path class="st21" d="M393.05,18.88c-4.56,23.7-37.18,206.11,70.82,278.74c10.02,6.74,21.77,12.88,35.6,17.8"/>
	<path class="st21" d="M151.9,5.53c4.4,7.16,11.94,17.52,24.14,27.22c30.97,24.63,67.13,25.25,76.18,25.16
		c11.85-0.12,47.09-2.14,75.72-26.84c10.71-9.24,17.28-18.87,21.12-25.55"/>
	<line class="st21" x1="0.03" y1="688.51" x2="500" y2="688.51"/>
	<line class="st21" x1="0.03" y1="694.98" x2="500" y2="694.98"/>
	<path class="st21" d="M104.61,20.45c4.04,20,38.77,204.39-67.69,273.65c-10.11,6.58-22.07,12.49-36.31,17.01"/>
	<path class="st21" d="M396.12,20.45c-3.99,23.18-33.36,207.16,69.29,273.55c9,5.82,19.41,10.99,31.49,15.01"/>
	<path class="st21" d="M165.68,1.43c4.76,7.22,16.07,22.11,36.99,32.2c20.74,10,39.61,9.82,51.03,9.58
		c12.92-0.27,33.7-0.7,53.88-13.66c14.58-9.36,22.47-21.17,26.33-28.12"/>
</g>
<path class="Colour3 fill" d="M253.45,529.23l234.42-234.72c-2.66-1.33-5.23-2.71-7.7-4.15L253.45,517.38L23.52,287.2
	c-0.3,0.18-0.59,0.37-0.89,0.55c-2.29,1.37-4.52,2.62-6.67,3.74L253.45,529.23z"/>
<path class="NeckAndArmTrim fill" d="M0.55,314.76c10.45-3.57,26.29-10.07,42.48-21.88c74.93-54.67,73.24-161.97,72.59-202.76
	c-0.41-25.79-3.58-49.7-8.31-71.44l-15.93,4.74c1.8,11.66,4.08,28.72,5.5,49.42c2.33,33.76,4.24,61.52-2.04,95.22
	c-5.09,27.3-10.45,56.07-33.65,84.65c-20.3,25.01-45.07,38.58-60.65,45.53V314.76z"/>
<path class="NeckAndArmTrim fill" d="M499.48,314.76c-13.8-4.91-25.53-11.03-35.53-17.76c-107.77-72.48-75.23-254.51-70.67-278.16l15.92,4.7
	c-15.65,101.94-1.74,181.54,18.45,213.61c21.57,34.27,50.47,51.04,50.47,51.04c8.75,5.08,16.49,8.25,21.36,10.06V314.76z"/>
<path class="NeckAndArmTrim fill" d="M348.85,5.52c-3.83,6.67-10.39,16.27-21.07,25.49c-28.58,24.65-63.74,26.67-75.57,26.79
	c-9.03,0.09-45.11-0.53-76.02-25.11C164.02,23,156.5,12.66,152.11,5.52l16.88-5.02c6.32,9.02,21.83,28.11,48.86,36.23
	c14.16,4.26,26.36,3.96,35.67,3.73c14.32-0.35,32.17-0.78,49.8-11.2c14.03-8.3,22.41-19.67,27.29-28.76L348.85,5.52z"/>
<g>
	<line class="st22" x1="0" y1="686.54" x2="499.97" y2="686.54"/>
	<line class="st22" x1="0" y1="693.01" x2="499.97" y2="693.01"/>
	<path class="st22" d="M102.8,18.16c4.58,21.4,7.63,44.89,8.03,70.19c0.64,40.88,2.34,148.4-72.75,203.19
		c-13.81,10.08-27.37,14.83-37.56,18.66"/>
	<path class="st22" d="M155.99,2.34c4.38,7.03,11.43,16.49,22.28,25.39c30.03,24.63,65.09,25.25,73.86,25.16
		c11.49-0.12,45.65-2.14,73.42-26.84c9.31-8.28,15.38-16.87,19.23-23.37"/>
	<path class="st22" d="M162,0.51c5.49,8.27,17.28,23.27,38.08,33.63c21.87,10.89,41.77,10.69,53.82,10.44
		c13.63-0.29,35.54-0.76,56.82-14.87c14.4-9.55,22.61-21.43,26.94-29.12"/>
	<path class="st22" d="M0.52,301.44c9.28-3.46,17.41-7.76,24.85-12.08c109.01-63.29,76.56-239,71.08-269.32"/>
	<path class="st22" d="M404.31,20.25c-5.58,32.42-35.99,213.19,72.64,272.82c6.93,3.81,14.21,7.98,22.48,11.38"/>
	<path class="st22" d="M398.89,18.48c-3.99,23.18-36.91,207.87,69.29,277.13c7.3,4.76,20.21,10.88,31.27,15.17"/>
</g>
</svg>
