<?xml version="1.0" encoding="utf-8"?>
<!-- Generator: Adobe Illustrator 19.1.0, SVG Export Plug-In . SVG Version: 6.00 Build 0)  -->
<svg version="1.1" id="Layer_1" xmlns="http://www.w3.org/2000/svg" xmlns:xlink="http://www.w3.org/1999/xlink" x="0px" y="0px"
	 viewBox="0 0 500 706" style="enable-background:new 0 0 500 706;" xml:space="preserve">
<style type="text/css">
	<![CDATA[
	@font-face{font-family:'codaheavy';src:url('/fonts/coda-heavy-webfont.woff') format('woff')}
	text{font-family:Impact,codaheavy,sans-serif}
	.Number.fill{fill:#000}
	.NumberOutline.stroke{fill:none;stroke:#777;stroke-width:2.5}
	.Colour1.fill{fill:#E6283C;}
	.Colour2.fill{fill:#151516;}
	.NeckAndArmTrim.fill{fill:#ED2935;}
	.st0{opacity:0.15;}
	.st1{fill:none;}
	]]>
</style>
<path class="Colour1 fill" d="M0,298.83C0,434.39,0,569.94,0,705.5h500V313.21v-14.64c-5.6-2.07-13.68-5.47-22.6-10.82
	c-32.6-19.58-46.84-47.61-54.73-63.14c-20.05-39.48-29.29-112.46-13.02-201.12C383.47,15.83,357.3,8.16,331.13,0.5
	c-3.88,6.76-14.01,22.13-34.28,32.07c-18.38,9.01-35.05,8.63-47.31,8.35c-12.84-0.29-43.02-0.98-65.53-21.39
	c-7.72-7-12.26-14.26-14.8-19.02C142.81,8.31,116.41,16.11,90,23.92c5.06,27.42,33.95,196.19-63.99,261.38
	C18.38,290.38,9.76,294.98,0,298.83z"/>
<g class="st0">
	<path d="M169.03,0.5c-2.87,0.84-5.73,1.68-8.6,2.52h10.12C169.96,2.1,169.45,1.24,169.03,0.5z"/>
	<path d="M330.63,0.5c-0.41,0.77-0.89,1.63-1.42,2.52h9.93C336.31,2.18,333.47,1.34,330.63,0.5z"/>
	<path d="M377.23,14.3h-56.2c-0.75,0.84-1.53,1.68-2.36,2.52h67.08C382.91,15.99,380.07,15.14,377.23,14.3z"/>
	<path d="M179.06,14.3h-57.09c-2.87,0.84-5.73,1.68-8.6,2.52h68.06C180.6,15.98,179.81,15.14,179.06,14.3z"/>
	<path d="M408.94,28.11H304.21c-1.52,0.9-3.06,1.74-4.61,2.52h108.91C408.66,29.73,408.8,28.9,408.94,28.11z"/>
	<path d="M195.34,28.11H91.47c0.15,0.84,0.3,1.69,0.44,2.52h107.62C198.07,29.82,196.69,28.97,195.34,28.11z"/>
	<path d="M406.75,41.91H93.69c0.12,0.84,0.24,1.68,0.36,2.52H406.4C406.51,43.57,406.63,42.73,406.75,41.91z"/>
	<path d="M404.97,55.71H95.55c0.1,0.85,0.19,1.68,0.29,2.52h308.85C404.78,57.39,404.88,56.54,404.97,55.71z"/>
	<path d="M403.59,69.52H97.01c0.08,0.84,0.16,1.69,0.23,2.52h306.14C403.44,71.19,403.52,70.35,403.59,69.52z"/>
	<path d="M402.59,83.32H98.07c0.05,0.84,0.11,1.69,0.16,2.52h304.22C402.5,85,402.54,84.15,402.59,83.32z"/>
	<path d="M402,97.12H98.73c0.03,0.84,0.06,1.69,0.08,2.52h303.13C401.97,98.8,401.98,97.96,402,97.12z"/>
	<path d="M401.84,110.92H98.97c0,0.84,0,1.69-0.01,2.52h302.9C401.86,112.61,401.85,111.76,401.84,110.92z"/>
	<path d="M402.14,124.73H98.75c-0.03,0.84-0.06,1.69-0.09,2.52h303.59C402.21,126.41,402.17,125.57,402.14,124.73z"/>
	<path d="M402.93,138.53H98.04c-0.06,0.84-0.12,1.69-0.18,2.52h305.27C403.06,140.21,403,139.37,402.93,138.53z"/>
	<path d="M404.26,152.33H96.8c-0.09,0.84-0.18,1.69-0.28,2.52h308.04C404.46,154.02,404.36,153.18,404.26,152.33z"/>
	<path d="M406.18,166.14H94.98c-0.13,0.85-0.27,1.68-0.41,2.52h312.05C406.47,167.82,406.32,166.98,406.18,166.14z"/>
	<path d="M408.8,179.94H92.47c-0.18,0.85-0.35,1.69-0.54,2.52h317.43C409.17,181.62,408.98,180.78,408.8,179.94z"/>
	<path d="M412.19,193.74H89.18c-0.23,0.85-0.48,1.68-0.72,2.52h324.43C412.65,195.43,412.43,194.58,412.19,193.74z"/>
	<path d="M416.49,207.55H84.88c-0.3,0.85-0.61,1.69-0.92,2.52h333.43C417.08,209.23,416.78,208.39,416.49,207.55z"/>
	<path d="M421.87,221.35H79.24c-0.4,0.86-0.81,1.7-1.23,2.52H423C422.62,223.03,422.24,222.2,421.87,221.35z"/>
	<path d="M428.59,235.15H72.14c-0.46,0.83-0.93,1.67-1.42,2.52h359.29C429.53,236.84,429.05,236,428.59,235.15z"/>
	<path d="M437.04,248.96H63.69c-0.57,0.84-1.16,1.68-1.76,2.52h376.88C438.21,250.64,437.62,249.8,437.04,248.96z"/>
	<path d="M447.8,262.76H52.98c-0.74,0.84-1.5,1.68-2.28,2.52h399.38C449.31,264.45,448.55,263.61,447.8,262.76z"/>
	<path d="M461.94,276.56H38.78c-1.02,0.85-2.07,1.69-3.14,2.52h429.37C463.96,278.26,462.95,277.41,461.94,276.56z"/>
	<path d="M481.8,290.37H18.46c-1.65,0.9-3.26,1.75-4.82,2.52h472.81C484.87,292.07,483.31,291.23,481.8,290.37z"/>
	<path d="M499.52,304.17H0.48v2.52h499.04C499.52,305.85,499.52,305.01,499.52,304.17z"/>
	<path d="M499.52,317.97H0.48v2.52h499.04C499.52,319.65,499.52,318.81,499.52,317.97z"/>
	<path d="M499.52,331.77H0.48v2.52h499.04C499.52,333.46,499.52,332.62,499.52,331.77z"/>
	<path d="M499.52,345.58H0.48v2.52h499.04C499.52,347.26,499.52,346.42,499.52,345.58z"/>
	<path d="M499.52,359.38H0.48v2.52h499.04C499.52,361.06,499.52,360.22,499.52,359.38z"/>
	<path d="M499.52,373.18H0.48v2.52h499.04C499.52,374.87,499.52,374.03,499.52,373.18z"/>
	<path d="M499.52,386.99H0.48v2.52h499.04C499.52,388.67,499.52,387.83,499.52,386.99z"/>
	<path d="M499.52,399.62H0.48v2.52h499.04C499.52,401.3,499.52,400.46,499.52,399.62z"/>
	<path d="M499.52,412.25H0.48v2.52h499.04C499.52,413.93,499.52,413.09,499.52,412.25z"/>
	<path d="M499.52,424.88H0.48v2.52h499.04C499.52,426.56,499.52,425.72,499.52,424.88z"/>
	<path d="M499.52,437.51H0.48v2.52h499.04C499.52,439.19,499.52,438.35,499.52,437.51z"/>
</g>
<g>
	<g>
		<rect x="0.5" y="448.67" width="498.74" height="2.34"/>
	</g>
	<g>
		<rect x="0.5" y="458.69" width="498.74" height="2.34"/>
	</g>
	<g>
		<rect x="0.5" y="468.7" width="498.74" height="2.34"/>
	</g>
	<g>
		<rect x="0.5" y="478.71" width="498.74" height="2.34"/>
	</g>
	<g>
		<rect x="0.5" y="488.72" width="498.74" height="2.34"/>
	</g>
	<g>
		<rect x="0.5" y="498.74" width="498.74" height="2.34"/>
	</g>
	<g>
		<rect x="0.5" y="508.75" width="498.74" height="2.34"/>
	</g>
	<g>
		<rect x="0.5" y="518.76" width="498.74" height="2.34"/>
	</g>
	<g>
		<rect x="0.5" y="528.77" width="498.74" height="2.34"/>
	</g>
	<g>
		<rect x="0.5" y="538.78" width="498.74" height="2.34"/>
	</g>
	<g>
		<rect x="0.5" y="548.8" width="498.74" height="2.34"/>
	</g>
	<g>
		<rect x="0.5" y="558.81" width="498.74" height="2.34"/>
	</g>
	<g>
		<rect x="0.5" y="568.82" width="498.74" height="2.34"/>
	</g>
	<g>
		<rect x="0.5" y="578.83" width="498.74" height="2.34"/>
	</g>
	<g>
		<rect x="0.5" y="588.85" width="498.74" height="2.34"/>
	</g>
</g>
<g id="BBodyLogos"></g>
<path class="Colour2 fill" d="M0.68,594.91V705.5h500c0-36.86,0-73.73,0-110.59H0.68z"/>
<path class="NeckAndArmTrim fill" d="M0,315.42c10.47-3.58,26.35-10.09,42.57-21.92c75.09-54.79,73.4-162.31,72.75-203.19
	c-0.41-25.85-3.59-49.81-8.33-71.59l-15.96,4.75c1.94,11.45,4.38,28.6,5.52,49.53c2.88,52.9,6.83,125.27-36.56,179.67
	C50.02,265.16,31.8,283.93,0,298.87V315.42z"/>
<path class="NeckAndArmTrim fill" d="M500,315.42c-13.83-4.92-25.58-11.06-35.6-17.8c-108-72.63-75.39-255.04-70.83-278.74l15.96,4.71
	c-15.68,102.16-0.4,181.48,19.83,213.61c21.61,34.34,49.24,51.59,49.24,51.59c8.77,5.09,16.53,8.27,21.41,10.08V315.42z"/>
<path class="NeckAndArmTrim fill" d="M349.05,5.53c-3.84,6.68-10.41,16.31-21.12,25.55c-28.64,24.7-63.88,26.73-75.73,26.84
	c-9.05,0.09-45.21-0.53-76.18-25.16c-12.2-9.7-19.74-20.06-24.14-27.22L168.8,0.5c6.34,9.04,21.88,28.17,48.96,36.31
	c14.19,4.27,26.41,3.97,35.74,3.74c14.35-0.35,32.24-0.78,49.9-11.23c14.06-8.32,22.46-19.72,27.35-28.82L349.05,5.53z"/>
<g>
	<path class="st1" d="M0.52,298.87c11.65-4.85,28.73-13.62,45.03-29.38c30.83-29.82,39.15-65.66,46.16-95.83
		c9.76-42.01,7.27-76.71,5.36-100.66C95.45,52.61,92.49,35.76,90,23.92c26.27-7.81,52.53-15.61,78.8-23.42
		c6.34,9.04,21.88,28.17,48.96,36.31c14.19,4.27,26.41,3.97,35.74,3.74c14.35-0.35,32.24-0.78,49.9-11.23
		c14.06-8.32,22.46-19.72,27.35-28.82c26.08,7.7,52.16,15.39,78.25,23.09c-3.93,22.57-31.58,193.3,61.07,259.59
		c8.35,5.97,18.06,11.37,29.4,15.69c0,135.54,0,271.09,0,406.63H0.52V298.87z"/>
	<path class="st1" d="M107.51,18.72c4.75,21.78,7.92,45.74,8.33,71.59c0.64,40.88,2.34,148.4-72.75,203.19
		c-16.22,11.83-32.1,18.35-42.57,21.92"/>
	<path class="st1" d="M393.05,18.88c-4.56,23.7-37.18,206.11,70.83,278.74c10.02,6.74,21.77,12.88,35.6,17.8"/>
	<path class="st1" d="M151.88,5.53c4.4,7.16,11.94,17.52,24.14,27.22c30.97,24.63,67.14,25.25,76.18,25.16
		c11.85-0.12,47.09-2.14,75.73-26.84c10.71-9.24,17.28-18.87,21.12-25.55"/>
	<line class="st1" x1="0" y1="688.51" x2="500" y2="688.51"/>
	<line class="st1" x1="0" y1="694.98" x2="500" y2="694.98"/>
	<path class="st1" d="M104.58,20.45c4.04,20,38.77,204.39-67.69,273.65c-10.11,6.58-22.07,12.49-36.31,17.01"/>
	<path class="st1" d="M396.11,20.45c-3.99,23.18-33.36,207.16,69.3,273.55c9,5.82,19.41,10.99,31.49,15.01"/>
	<path class="st1" d="M165.66,1.43c4.76,7.22,16.07,22.11,37,32.2c20.74,10,39.61,9.82,51.04,9.58c12.92-0.27,33.7-0.7,53.89-13.66
		c14.58-9.36,22.47-21.17,26.33-28.12"/>
</g>
</svg>
