<?xml version="1.0" encoding="utf-8"?>
<!-- Generator: Adobe Illustrator 19.1.0, SVG Export Plug-In . SVG Version: 6.00 Build 0)  -->
<svg version="1.1" id="Layer_1" xmlns="http://www.w3.org/2000/svg" xmlns:xlink="http://www.w3.org/1999/xlink" x="0px" y="0px"
	 viewBox="0 0 500 706" style="enable-background:new 0 0 500 706;" xml:space="preserve">
<style type="text/css">
	<![CDATA[
	@font-face{font-family:'codaheavy';src:url('/fonts/coda-heavy-webfont.woff') format('woff')}
	text{font-family:Impact,codaheavy,sans-serif}
	.Colour1.fill{fill:#E6283C;}
	.Colour2.fill{fill:#151516;}
	.Colour3.fill{fill:#151516;}
	.NeckAndArmTrim.fill{fill:#ED2935;}
	.st0{fill:none;stroke:#FFFFFF;stroke-width:0.75;stroke-miterlimit:10;}
	.st1{opacity:0.15;}
	.st2{fill:#FFFFFF;}
	.st3{fill:none;}
	]]>
</style>
<path class="Colour1 fill" d="M315.99,19.52c-22.51,20.41-52.68,21.1-65.53,21.39c-12.26,0.28-28.94,0.66-47.31-8.35
	c-20.27-9.94-30.4-25.31-34.28-32.07c-26.17,7.66-52.34,15.33-78.52,22.99c16.26,88.66,7.03,161.64-13.02,201.12
	c-7.89,15.53-22.12,43.56-54.73,63.14c-8.92,5.36-17,8.75-22.6,10.82v14.64V705.5h500c0-135.56,0-271.11,0-406.67
	c-9.76-3.85-18.38-8.45-26.01-13.53C376.05,220.11,404.94,51.34,410,23.92c-26.4-7.81-52.81-15.61-79.21-23.42
	C328.25,5.26,323.71,12.52,315.99,19.52z"/>
<path class="Colour2 fill" d="M0,594.91V705.5h500c0-36.86,0-73.73,0-110.59H0z"/>
<path class="st0" d="M330.78,0.5c-2.53,4.76-7.07,12.02-14.8,19.03c-22.51,20.41-52.68,21.1-65.53,21.39
	c-12.26,0.28-28.94,0.66-47.31-8.35c-20.27-9.94-30.4-25.31-34.28-32.07c-0.77,13.4,3.64,30.23,3.64,30.23
	c7.63,5.76,36.55,26.15,79.31,25.58c40.55-0.54,67.83-19.6,75.75-25.58C327.57,30.73,331.28,15.47,330.78,0.5z"/>
<g class="st1">
	<path d="M169.13,0.5c-2.87,0.84-5.73,1.68-8.6,2.52h10.12C170.07,2.1,169.55,1.24,169.13,0.5z"/>
	<path d="M330.73,0.5c-0.41,0.77-0.89,1.63-1.42,2.52h9.93C336.41,2.18,333.57,1.34,330.73,0.5z"/>
	<path d="M377.33,14.3h-56.2c-0.75,0.84-1.53,1.68-2.36,2.52h67.08C383.01,15.99,380.17,15.14,377.33,14.3z"/>
	<path d="M179.16,14.3h-57.09c-2.87,0.84-5.73,1.68-8.6,2.52h68.07C180.71,15.98,179.92,15.14,179.16,14.3z"/>
	<path d="M409.04,28.11H304.31c-1.52,0.9-3.06,1.74-4.61,2.52h108.91C408.76,29.73,408.9,28.9,409.04,28.11z"/>
	<path d="M195.44,28.11H91.57c0.15,0.84,0.3,1.69,0.44,2.52h107.62C198.17,29.82,196.79,28.97,195.44,28.11z"/>
	<path d="M406.85,41.91H93.8c0.12,0.84,0.24,1.68,0.36,2.52H406.5C406.62,43.57,406.73,42.73,406.85,41.91z"/>
	<path d="M405.07,55.71H95.65c0.1,0.85,0.19,1.68,0.29,2.52h308.85C404.89,57.39,404.98,56.54,405.07,55.71z"/>
	<path d="M403.69,69.52H97.11c0.08,0.84,0.16,1.69,0.23,2.52h306.14C403.55,71.19,403.62,70.35,403.69,69.52z"/>
	<path d="M402.69,83.32H98.18c0.05,0.84,0.11,1.69,0.16,2.52h304.22C402.6,85,402.65,84.15,402.69,83.32z"/>
	<path d="M402.11,97.12H98.84c0.03,0.84,0.06,1.69,0.08,2.52h303.13C402.07,98.8,402.08,97.96,402.11,97.12z"/>
	<path d="M401.94,110.92H99.07c0,0.84,0,1.69-0.01,2.52h302.9C401.96,112.61,401.95,111.76,401.94,110.92z"/>
	<path d="M402.24,124.73H98.85c-0.03,0.84-0.06,1.69-0.09,2.52h303.59C402.31,126.41,402.27,125.57,402.24,124.73z"/>
	<path d="M403.03,138.53H98.14c-0.06,0.84-0.12,1.69-0.18,2.52h305.27C403.16,140.21,403.1,139.37,403.03,138.53z"/>
	<path d="M404.36,152.33H96.9c-0.09,0.84-0.18,1.69-0.28,2.52h308.04C404.56,154.02,404.46,153.18,404.36,152.33z"/>
	<path d="M406.29,166.14H95.08c-0.13,0.85-0.27,1.68-0.41,2.52h312.05C406.57,167.82,406.42,166.98,406.29,166.14z"/>
	<path d="M408.9,179.94H92.57c-0.18,0.85-0.35,1.69-0.54,2.52h317.43C409.27,181.62,409.08,180.78,408.9,179.94z"/>
	<path d="M412.3,193.74H89.28c-0.23,0.85-0.48,1.68-0.72,2.52h324.43C412.75,195.43,412.53,194.58,412.3,193.74z"/>
	<path d="M416.59,207.55H84.98c-0.3,0.85-0.61,1.69-0.92,2.52h333.43C417.18,209.23,416.88,208.39,416.59,207.55z"/>
	<path d="M421.97,221.35H79.35c-0.4,0.86-0.81,1.7-1.23,2.52H423.1C422.72,223.03,422.34,222.2,421.97,221.35z"/>
	<path d="M428.69,235.15H72.24c-0.46,0.83-0.93,1.67-1.42,2.52h359.29C429.63,236.84,429.15,236,428.69,235.15z"/>
	<path d="M437.14,248.96H63.79c-0.57,0.84-1.16,1.68-1.76,2.52h376.88C438.31,250.64,437.72,249.8,437.14,248.96z"/>
	<path d="M447.9,262.76H53.08c-0.74,0.84-1.5,1.68-2.28,2.52h399.38C449.41,264.45,448.65,263.61,447.9,262.76z"/>
	<path d="M462.04,276.56H38.88c-1.02,0.85-2.07,1.69-3.14,2.52h429.37C464.07,278.26,463.05,277.41,462.04,276.56z"/>
	<path d="M481.9,290.37H18.56c-1.65,0.9-3.26,1.75-4.82,2.52h472.81C484.97,292.07,483.42,291.23,481.9,290.37z"/>
	<path d="M499.62,304.17H0.58v2.52h499.04C499.62,305.85,499.62,305.01,499.62,304.17z"/>
	<path d="M499.62,317.97H0.58v2.52h499.04C499.62,319.65,499.62,318.81,499.62,317.97z"/>
	<path d="M499.62,331.77H0.58v2.52h499.04C499.62,333.46,499.62,332.62,499.62,331.77z"/>
	<path d="M499.62,345.58H0.58v2.52h499.04C499.62,347.26,499.62,346.42,499.62,345.58z"/>
	<path d="M499.62,359.38H0.58v2.52h499.04C499.62,361.06,499.62,360.22,499.62,359.38z"/>
	<path d="M499.62,373.18H0.58v2.52h499.04C499.62,374.87,499.62,374.03,499.62,373.18z"/>
	<path d="M499.62,386.99H0.58v2.52h499.04C499.62,388.67,499.62,387.83,499.62,386.99z"/>
	<path d="M499.62,399.62H0.58v2.52h499.04C499.62,401.3,499.62,400.46,499.62,399.62z"/>
	<path d="M499.62,412.25H0.58v2.52h499.04C499.62,413.93,499.62,413.09,499.62,412.25z"/>
	<path d="M499.62,424.88H0.58v2.52h499.04C499.62,426.56,499.62,425.72,499.62,424.88z"/>
	<path d="M499.62,437.51H0.58v2.52h499.04C499.62,439.19,499.62,438.35,499.62,437.51z"/>
</g>
<g id="FBodyLogos"></g>
<path class="NeckAndArmTrim fill" d="M168.87,0.5c-0.04,7.29,0.55,17.88,3.64,30.23c3.73,14.94,12.16,48.63,43.13,64.45
	c14.77,7.54,29.04,8.14,34.53,8.15c4.13,0.01,22.45-0.3,40.21-11.15c28.19-17.22,34.57-48.55,37.92-65
	c2.24-11.02,2.58-20.35,2.48-26.68l15.97,4.72c-1.69,47.51-23.18,87.11-53.8,102.42c-20.78,10.39-42.43,11-42.43,11
	s-19.98,1.27-38.48-6.68C174.7,95.9,152.24,54.4,152.75,5.22L168.87,0.5z"/>
<path class="NeckAndArmTrim fill" d="M500,313.21c-14.19-4.41-26.2-10.21-36.41-16.69c-109.06-69.26-76.4-257.02-72.44-278.17L410,23.92
	c-5.06,27.42-33.95,196.19,63.99,261.38c7.63,5.08,16.25,9.68,26.01,13.53C500,303.62,500,308.42,500,313.21"/>
<path class="NeckAndArmTrim fill" d="M0,313.21v-7.91v-6.73c5.6-2.07,13.68-5.47,22.6-10.82c32.6-19.58,46.84-47.61,54.73-63.14
	c20.05-39.48,29.29-112.46,13.02-201.12l17.57-5.14c3.87,21.26,36.22,212.31-72.93,279.39C25.1,303.82,13.55,309.18,0,313.21"/>
<path class="st2" d="M290.14,92.18c-17.76,10.84-36.08,11.15-40.21,11.15c-5.49-0.01-19.76-0.61-34.53-8.15
	c-30.97-15.82-39.4-49.51-43.13-64.45c7.63,5.76,36.55,26.15,79.31,25.58c40.55-0.54,67.83-19.6,75.75-25.58
	C323.75,47.82,316.43,76.13,290.14,92.18z"/>
<rect class="Colour3 fill" x="0.6" y="448.67" width="498.74" height="2.34"/>
<rect class="Colour3 fill" x="0.6" y="458.69" width="498.74" height="2.34"/>
<rect class="Colour3 fill" x="0.6" y="468.7" width="498.74" height="2.34"/>
<rect class="Colour3 fill" x="0.6" y="478.71" width="498.74" height="2.34"/>
<rect class="Colour3 fill" x="0.6" y="488.72" width="498.74" height="2.34"/>
<rect class="Colour3 fill" x="0.6" y="498.74" width="498.74" height="2.34"/>
<rect class="Colour3 fill" x="0.6" y="508.75" width="498.74" height="2.34"/>
<rect class="Colour3 fill" x="0.6" y="518.76" width="498.74" height="2.34"/>
<rect class="Colour3 fill" x="0.6" y="528.77" width="498.74" height="2.34"/>
<rect class="Colour3 fill" x="0.6" y="538.78" width="498.74" height="2.34"/>
<rect class="Colour3 fill" x="0.6" y="548.8" width="498.74" height="2.34"/>
<rect class="Colour3 fill" x="0.6" y="558.81" width="498.74" height="2.34"/>
<rect class="Colour3 fill" x="0.6" y="568.82" width="498.74" height="2.34"/>
<rect class="Colour3 fill" x="0.6" y="578.83" width="498.74" height="2.34"/>
<rect class="Colour3 fill" x="0.6" y="588.85" width="498.74" height="2.34"/>
<path class="NeckAndArmTrim fill" d="M330.42,1.3c-2.53,4.76-7.07,12.02-14.8,19.03c-22.51,20.41-52.68,21.1-65.53,21.39
	c-12.26,0.28-28.94,0.66-47.31-8.35c-20.27-9.94-30.4-25.31-34.28-32.07c-0.77,13.4,3.64,30.23,3.64,30.23
	c7.63,5.76,36.55,26.15,79.31,25.58c40.55-0.54,67.83-19.6,75.75-25.58C327.21,31.53,330.92,16.27,330.42,1.3z"/>
<path class="st3" d="M0,705.5V313.21v-14.64c5.6-2.07,13.68-5.47,22.6-10.82c32.6-19.58,46.84-47.61,54.73-63.14
	c20.05-39.48,29.29-112.46,13.02-201.12c26.17-7.66,52.34-15.33,78.52-22.99c3.88,6.76,14.01,22.13,34.28,32.07
	c18.38,9.01,35.05,8.63,47.31,8.35c12.84-0.29,43.02-0.98,65.53-21.39c7.72-7,12.26-14.26,14.8-19.03
	c26.4,7.81,52.81,15.61,79.21,23.42c-5.06,27.42-33.95,196.19,63.99,261.38c7.63,5.08,16.25,9.68,26.01,13.53
	c0,135.56,0,271.11,0,406.67H0z"/>
<path class="st3" d="M0,313.21c13.55-4.02,25.1-9.39,34.99-15.47c109.15-67.08,76.8-258.14,72.93-279.39"/>
<path class="st3" d="M391.15,18.35c-3.96,21.14-36.62,208.91,72.44,278.17c10.21,6.48,22.21,12.28,36.41,16.69"/>
<path class="st3" d="M168.87,0.5c-0.04,7.29,0.55,17.88,3.64,30.23c3.73,14.94,12.16,48.63,43.13,64.45
	c14.77,7.54,29.04,8.14,34.53,8.15c4.13,0.01,22.45-0.3,40.21-11.15c28.19-17.22,34.57-48.55,37.92-65
	c2.24-11.02,2.58-20.35,2.48-26.68"/>
<path class="st3" d="M152.75,5.22c-0.51,49.18,21.95,90.68,59.29,106.74c18.5,7.95,38.48,6.68,38.48,6.68s21.65-0.61,42.43-11
	c30.63-15.31,52.12-54.91,53.8-102.42"/>
<path class="st3" d="M172.51,30.73c7.63,5.76,36.55,26.15,79.31,25.58c40.55-0.54,67.83-19.6,75.75-25.58"/>
<line class="st3" x1="386.28" y1="151.96" x2="385.17" y2="152.4"/>
<line class="st3" x1="0" y1="688.51" x2="500" y2="688.51"/>
<line class="st3" x1="0" y1="694.98" x2="500" y2="694.98"/>
<path class="st3" d="M104,19.49c4.04,20,38.77,204.39-67.69,273.65C26.2,299.71,14.24,305.63,0,310.15"/>
<path class="st3" d="M395.02,19.49c-4.16,23.35-34.75,208.67,72.17,275.54c9.38,5.86,20.21,11.07,32.8,15.12"/>
<path class="st3" d="M165.66,1.44c0.05,4.64,1.79,72.83,48.54,96.48c15.99,8.09,32.91,8.77,33.69,8.79
	c30.14,0.93,51.04-16.18,55.1-19.65c20.88-17.86,25.3-41.76,29.19-62.78c1.74-9.42,2.26-17.36,2.4-22.84"/>
<path class="st3" d="M169.01,7.03c5.08,6.73,15.94,19.15,34.53,27.68c19.04,8.73,36.08,8.75,47.15,8.64
	c11.52-0.11,30.6-0.52,50.78-11.28c15.21-8.11,24.48-18.61,29.32-25.04"/>
</svg>
