<?xml version="1.0" encoding="utf-8"?>
<!-- Generator: Adobe Illustrator 19.1.0, SVG Export Plug-In . SVG Version: 6.00 Build 0)  -->
<svg version="1.1" id="Layer_1" xmlns="http://www.w3.org/2000/svg" xmlns:xlink="http://www.w3.org/1999/xlink" x="0px" y="0px"
	 viewBox="0 0 500 706" style="enable-background:new 0 0 500 706;" xml:space="preserve">
<style type="text/css">
	<![CDATA[
	@font-face{font-family:'codaheavy';src:url('/fonts/coda-heavy-webfont.woff') format('woff')}
	text{font-family:Impact,codaheavy,sans-serif}
	.Colour1.fill{fill-rule:evenodd;clip-rule:evenodd;fill:#051838;}
	.Colour2.fill{fill:#EE3859;}
	.Colour3.fill{fill:#FFFFFF;}
	.NeckAndArmTrim.fill{fill:#EE3859;}
	.st0{fill:#FFFFFF;}
	]]>
</style>
<path class="Colour1 fill" d="M22.6,289.76c-8.92,5.36-17,8.75-22.6,10.82v14.64v392.29h500c0-135.56,0-271.11,0-406.67
	c-9.76-3.85-18.38-8.45-26.01-13.53C376.05,222.12,404.94,53.35,410,25.93c-26.4-7.81-52.81-15.61-79.21-23.42
	c-2.53,4.76-7.07,12.02-14.8,19.02c-22.51,20.41-52.68,21.1-65.53,21.39c-12.26,0.28-28.94,0.66-47.31-8.35
	c-20.27-9.94-30.4-25.31-34.28-32.07c-26.17,7.66-52.34,15.33-78.52,22.99c16.26,88.66,7.03,161.64-13.02,201.12
	C69.44,242.14,55.2,270.17,22.6,289.76z"/>
<path class="Colour2 fill" d="M336.72,196.1c-2.49,0-4.51-2.02-4.51-4.51s2.02-4.51,4.51-4.51c2.49,0,4.51,2.02,4.51,4.51
	S339.21,196.1,336.72,196.1z M348.93,166.46c0-2.77-2.24-5.01-5.01-5.01c-2.77,0-5.01,2.24-5.01,5.01c0,2.77,2.24,5.01,5.01,5.01
	C346.69,171.47,348.93,169.22,348.93,166.46z M357.95,249.04c0-2.18-1.77-3.95-3.94-3.95c-2.18,0-3.94,1.77-3.94,3.95
	c0,2.18,1.77,3.95,3.94,3.95C356.19,252.99,357.95,251.22,357.95,249.04z M350.12,211.3c2.49,0,4.51-2.02,4.51-4.51
	s-2.02-4.51-4.51-4.51s-4.51,2.02-4.51,4.51S347.63,211.3,350.12,211.3z M333.42,262.51c1.94,0,3.5-1.57,3.5-3.51
	c0-1.94-1.57-3.51-3.5-3.51c-1.94,0-3.5,1.57-3.5,3.51C329.92,260.94,331.49,262.51,333.42,262.51z M329.18,221.03
	c2.21,0,4.01-1.79,4.01-4.01c0-2.21-1.79-4.01-4.01-4.01c-2.21,0-4.01,1.8-4.01,4.01C325.18,219.23,326.97,221.03,329.18,221.03z
	 M336.33,103.66c0,3.29,2.66,5.95,5.95,5.95c3.28,0,5.95-2.66,5.95-5.95c0-3.29-2.66-5.95-5.95-5.95
	C338.99,97.71,336.33,100.38,336.33,103.66z M348.49,73.08c-3.59,0-6.51,2.92-6.51,6.52c0,3.6,2.91,6.52,6.51,6.52
	S355,83.19,355,79.6C355,76,352.09,73.08,348.49,73.08z M324.34,152.37c0,2.77,2.24,5.01,5.01,5.01c2.76,0,5.01-2.24,5.01-5.01
	c0-2.77-2.24-5.01-5.01-5.01C326.58,147.36,324.34,149.61,324.34,152.37z M352.17,342.42c1.52,0,2.75-1.23,2.75-2.76
	c0-1.52-1.23-2.76-2.75-2.76c-1.52,0-2.75,1.23-2.75,2.76C349.41,341.19,350.65,342.42,352.17,342.42z M330.46,127.92
	c0,3.01,2.44,5.45,5.44,5.45c3.01,0,5.44-2.44,5.44-5.45c0-3.01-2.44-5.45-5.44-5.45C332.89,122.47,330.46,124.91,330.46,127.92z
	 M372.53,332.92c1.69,0,3.07-1.37,3.07-3.07s-1.37-3.07-3.07-3.07s-3.07,1.37-3.07,3.07S370.84,332.92,372.53,332.92z
	 M385.56,260.39c2.35,0,4.26-1.91,4.26-4.26c0-2.35-1.91-4.26-4.26-4.26c-2.35,0-4.26,1.91-4.26,4.26
	C381.3,258.49,383.21,260.39,385.56,260.39z M379.02,283.51c0-2.04-1.65-3.7-3.69-3.7c-2.04,0-3.69,1.65-3.69,3.7
	c0,2.04,1.65,3.7,3.69,3.7C377.37,287.21,379.02,285.55,379.02,283.51z M383.44,217.49c2.7,0,4.88-2.19,4.88-4.89
	c0-2.7-2.19-4.89-4.88-4.89s-4.88,2.19-4.88,4.89C378.55,215.3,380.74,217.49,383.44,217.49z M362.76,181.21
	c0-2.73-2.21-4.95-4.94-4.95c-2.73,0-4.94,2.22-4.94,4.95c0,2.73,2.21,4.95,4.94,4.95C360.54,186.16,362.76,183.94,362.76,181.21z
	 M399.88,273.69c0-2.32-1.88-4.2-4.19-4.2c-2.32,0-4.19,1.88-4.19,4.2c0,2.32,1.88,4.2,4.19,4.2
	C398,277.89,399.88,276.01,399.88,273.69z M392.9,323.48c1.9,0,3.44-1.54,3.44-3.45c0-1.9-1.54-3.45-3.44-3.45
	c-1.9,0-3.44,1.54-3.44,3.45C389.46,321.93,391,323.48,392.9,323.48z M362.75,227.09c2.45,0,4.44-1.99,4.44-4.45
	c0-2.46-1.99-4.45-4.44-4.45s-4.44,1.99-4.44,4.45C358.3,225.1,360.29,227.09,362.75,227.09z M371,201.55
	c2.73,0,4.94-2.22,4.94-4.95c0-2.73-2.21-4.95-4.94-4.95c-2.73,0-4.94,2.22-4.94,4.95C366.05,199.34,368.26,201.55,371,201.55z
	 M370.19,239.1c0,2.42,1.96,4.39,4.38,4.39c2.42,0,4.38-1.96,4.38-4.39c0-2.42-1.96-4.39-4.38-4.39
	C372.15,234.72,370.19,236.68,370.19,239.1z M345.41,141.6c0,3.01,2.44,5.45,5.44,5.45s5.44-2.44,5.44-5.45
	c0-3.01-2.44-5.45-5.44-5.45S345.41,138.59,345.41,141.6z M426.4,241.63c2.01,0,3.73-1.15,4.59-2.82c-1.43-2.47-2.79-4.99-4.09-7.53
	c-0.17-0.02-0.33-0.05-0.5-0.05c-2.87,0-5.19,2.33-5.19,5.2C421.21,239.3,423.53,241.63,426.4,241.63z M436.4,259.14
	c2.65,0,4.8-2.04,5.02-4.63c-1.34-1.77-2.65-3.56-3.9-5.39c-0.36-0.08-0.74-0.13-1.12-0.13c-2.8,0-5.07,2.27-5.07,5.07
	C431.33,256.87,433.6,259.14,436.4,259.14z M395.11,224.35c-2.66,0-4.82,2.16-4.82,4.82c0,2.66,2.16,4.82,4.82,4.82
	c2.66,0,4.82-2.16,4.82-4.82C399.93,226.51,397.77,224.35,395.11,224.35z M409.41,181.37c-0.62-2.78-1.18-5.58-1.71-8.37
	c-0.66,0.96-1.05,2.12-1.05,3.37C406.66,178.47,407.76,180.31,409.41,181.37z M366.25,130.92c0,3.32,2.69,6.01,6.01,6.01
	s6.01-2.69,6.01-6.01c0-3.32-2.69-6.01-6.01-6.01S366.25,127.6,366.25,130.92z M351.55,116.97c0,3.32,2.69,6.01,6.01,6.01
	s6.01-2.69,6.01-6.01s-2.69-6.01-6.01-6.01S351.55,113.65,351.55,116.97z M379.1,99.57c-3.63,0-6.57,2.94-6.57,6.58
	c0,3.63,2.94,6.58,6.57,6.58c3.63,0,6.57-2.94,6.57-6.58C385.67,102.51,382.73,99.57,379.1,99.57z M359.73,155.93
	c0,3.01,2.44,5.45,5.44,5.45c3.01,0,5.44-2.44,5.44-5.45c0-3.01-2.44-5.45-5.44-5.45C362.17,150.48,359.73,152.92,359.73,155.93z
	 M364.07,85.98c-3.63,0-6.57,2.95-6.57,6.58c0,3.63,2.94,6.58,6.57,6.58c3.63,0,6.57-2.95,6.57-6.58
	C370.64,88.93,367.7,85.98,364.07,85.98z M373.39,170.9c0,3.01,2.44,5.45,5.44,5.45c3.01,0,5.44-2.44,5.44-5.45
	c0-3.01-2.44-5.45-5.44-5.45C375.83,165.45,373.39,167.89,373.39,170.9z M399.58,70.72c0,2.79,1.49,5.22,3.7,6.59
	c0.34-4.81,0.73-9.43,1.16-13.79C401.59,64.67,399.58,67.46,399.58,70.72z M380.34,145.49c0,3.32,2.69,6.01,6.01,6.01
	s6.01-2.69,6.01-6.01c0-3.32-2.69-6.01-6.01-6.01S380.34,142.17,380.34,145.49z M393.36,95.42c0,3.98,3.22,7.2,7.2,7.2
	c0.56,0,1.11-0.08,1.63-0.2c0.07-4.74,0.22-9.38,0.43-13.87c-0.66-0.2-1.34-0.34-2.06-0.34C396.58,88.22,393.36,91.44,393.36,95.42z
	 M387,120.34c0,3.63,2.94,6.58,6.57,6.58c3.63,0,6.57-2.94,6.57-6.58c0-3.63-2.94-6.58-6.57-6.58
	C389.94,113.76,387,116.7,387,120.34z M326.44,96.91c3.25,0,5.88-2.64,5.88-5.89s-2.63-5.89-5.88-5.89c-3.25,0-5.88,2.64-5.88,5.89
	S323.19,96.91,326.44,96.91z M314.97,114.92c0,2.98,2.41,5.39,5.38,5.39c2.97,0,5.38-2.41,5.38-5.39c0-2.98-2.41-5.39-5.38-5.39
	C317.38,109.53,314.97,111.95,314.97,114.92z M309.18,139c0,2.73,2.21,4.95,4.94,4.95c2.73,0,4.94-2.22,4.94-4.95
	c0-2.73-2.21-4.95-4.94-4.95C311.39,134.05,309.18,136.26,309.18,139z M293.41,126.36c0,2.7,2.19,4.89,4.88,4.89
	c2.7,0,4.88-2.19,4.88-4.89c0-2.7-2.19-4.89-4.88-4.89C295.59,121.47,293.41,123.66,293.41,126.36z M304.24,97.31
	c-2.94,0-5.32,2.38-5.32,5.32c0,2.94,2.38,5.32,5.32,5.32c2.94,0,5.32-2.38,5.32-5.32C309.56,99.7,307.17,97.31,304.24,97.31z
	 M321.49,25.42c-3.8,0-6.88,3.09-6.88,6.89c0,3.81,3.08,6.89,6.88,6.89c3.8,0,6.88-3.09,6.88-6.89
	C328.38,28.5,325.3,25.42,321.49,25.42z M344.05,12.68c-4.15,0-7.51,3.37-7.51,7.52s3.36,7.52,7.51,7.52c4.15,0,7.51-3.37,7.51-7.52
	S348.19,12.68,344.05,12.68z M347.51,55.69c0,3.91,3.17,7.08,7.07,7.08c3.91,0,7.07-3.17,7.07-7.08c0-3.91-3.17-7.08-7.07-7.08
	C350.68,48.61,347.51,51.78,347.51,55.69z M287.77,150.25c0,2.46,1.99,4.45,4.44,4.45c2.45,0,4.44-1.99,4.44-4.45
	c0-2.46-1.99-4.45-4.44-4.45C289.76,145.8,287.77,147.79,287.77,150.25z M331.26,43.68c0,3.87,3.14,7.02,7.01,7.02
	c3.87,0,7.01-3.14,7.01-7.02c0-3.88-3.14-7.02-7.01-7.02C334.4,36.66,331.26,39.8,331.26,43.68z M325.96,67.28
	c0,3.56,2.89,6.45,6.45,6.45c3.56,0,6.45-2.89,6.45-6.45c0-3.56-2.89-6.45-6.45-6.45C328.84,60.83,325.96,63.72,325.96,67.28z
	 M290.28,237.68c0-1.76-1.43-3.19-3.19-3.19c-1.76,0-3.19,1.43-3.19,3.19s1.43,3.19,3.19,3.19
	C288.85,240.88,290.28,239.45,290.28,237.68z M297.72,389.96c0.93,0,1.69-0.76,1.69-1.69c0-0.93-0.76-1.69-1.69-1.69
	c-0.93,0-1.69,0.76-1.69,1.69C296.03,389.2,296.79,389.96,297.72,389.96z M281.97,174.33c0,2.21,1.79,4.01,4.01,4.01
	c2.21,0,4.01-1.8,4.01-4.01c0-2.21-1.79-4.01-4.01-4.01C283.76,170.32,281.97,172.12,281.97,174.33z M311.74,227.31
	c0-1.97-1.6-3.57-3.57-3.57c-1.97,0-3.57,1.6-3.57,3.57c0,1.97,1.6,3.57,3.57,3.57C310.15,230.88,311.74,229.29,311.74,227.31z
	 M311.42,361.37c1.14,0,2.06-0.93,2.06-2.07c0-1.14-0.92-2.07-2.06-2.07c-1.14,0-2.07,0.93-2.07,2.07
	C309.35,360.45,310.28,361.37,311.42,361.37z M316.86,312.97c0-1.45-1.18-2.63-2.63-2.63c-1.45,0-2.63,1.18-2.63,2.63
	c0,1.45,1.18,2.63,2.63,2.63C315.68,315.6,316.86,314.42,316.86,312.97z M303.54,252.95c0-1.73-1.4-3.13-3.13-3.13
	c-1.73,0-3.13,1.4-3.13,3.13c0,1.73,1.4,3.13,3.13,3.13C302.14,256.08,303.54,254.68,303.54,252.95z M360.57,24.28
	c-4.22,0-7.63,3.42-7.63,7.64c0,4.22,3.42,7.64,7.63,7.64c4.22,0,7.63-3.42,7.63-7.64C368.2,27.71,364.78,24.28,360.57,24.28z
	 M279.51,265.91c1.52,0,2.75-1.23,2.75-2.76c0-1.52-1.23-2.76-2.75-2.76c-1.52,0-2.75,1.23-2.75,2.76
	C276.76,264.67,277.99,265.91,279.51,265.91z M296.1,322.79c0-1.25-1.01-2.26-2.25-2.26c-1.24,0-2.25,1.01-2.25,2.26
	c0,1.25,1.01,2.26,2.25,2.26C295.1,325.05,296.1,324.04,296.1,322.79z M318.27,380.32c1.07,0,1.94-0.87,1.94-1.94
	c0-1.07-0.87-1.94-1.94-1.94c-1.07,0-1.94,0.87-1.94,1.94C316.33,379.46,317.2,380.32,318.27,380.32z M378.62,81.58
	c0,3.94,3.19,7.14,7.13,7.14c3.94,0,7.13-3.2,7.13-7.14c0-3.94-3.19-7.14-7.13-7.14C381.81,74.44,378.62,77.64,378.62,81.58z
	 M450.54,272.13c0-2.73-2.21-4.95-4.94-4.95c-2.73,0-4.94,2.22-4.94,4.95c0,2.73,2.21,4.95,4.94,4.95
	C448.32,277.08,450.54,274.87,450.54,272.13z M441.09,323.45c2.32,0,4.19-1.88,4.19-4.2s-1.88-4.2-4.19-4.2s-4.19,1.88-4.19,4.2
	S438.77,323.45,441.09,323.45z M453.97,295.35c2.63,0,4.76-2.13,4.76-4.76c0-2.63-2.13-4.76-4.76-4.76c-2.63,0-4.76,2.13-4.76,4.76
	C449.21,293.22,451.34,295.35,453.97,295.35z M433.62,304.73c2.38,0,4.32-1.94,4.32-4.32c0-2.39-1.93-4.32-4.32-4.32
	c-2.38,0-4.32,1.94-4.32,4.32C429.3,302.79,431.23,304.73,433.62,304.73z M461.51,314.05c2.56,0,4.63-2.08,4.63-4.64
	c0-2.56-2.07-4.64-4.63-4.64c-2.56,0-4.63,2.08-4.63,4.64C456.88,311.97,458.95,314.05,461.51,314.05z M400.86,291.74
	c0,2.25,1.82,4.07,4.07,4.07c2.25,0,4.07-1.82,4.07-4.07c0-2.25-1.82-4.07-4.07-4.07C402.68,287.66,400.86,289.49,400.86,291.74z
	 M363.29,68.33c0,3.94,3.19,7.14,7.13,7.14c3.94,0,7.13-3.2,7.13-7.14c0-3.94-3.19-7.14-7.13-7.14
	C366.48,61.19,363.29,64.39,363.29,68.33z M410.68,246.28c0-2.59-2.1-4.7-4.69-4.7s-4.69,2.1-4.69,4.7c0,2.59,2.1,4.7,4.69,4.7
	S410.68,248.87,410.68,246.28z M413.26,314.1c2.14,0,3.88-1.74,3.88-3.88c0-2.15-1.74-3.88-3.88-3.88c-2.14,0-3.88,1.74-3.88,3.88
	C409.38,312.36,411.12,314.1,413.26,314.1z M429.77,281.93c0-2.49-2.02-4.51-4.51-4.51c-2.49,0-4.51,2.02-4.51,4.51
	c0,2.49,2.02,4.51,4.51,4.51C427.75,286.44,429.77,284.43,429.77,281.93z M384.47,57.21c0,4.29,3.47,7.77,7.76,7.77
	c4.29,0,7.76-3.48,7.76-7.77c0-4.29-3.47-7.77-7.76-7.77C387.95,49.44,384.47,52.92,384.47,57.21z M398.57,24.61
	c-4.63,0-8.39,3.76-8.39,8.39c0,4.64,3.75,8.39,8.39,8.39s8.39-3.76,8.39-8.39C406.95,28.36,403.2,24.61,398.57,24.61z
	 M404.09,207.92c2.94,0,5.32-2.38,5.32-5.32c0-2.94-2.38-5.32-5.32-5.32c-2.94,0-5.32,2.38-5.32,5.32
	C398.77,205.54,401.15,207.92,404.09,207.92z M406.06,49.19c0.36-2.84,0.73-5.5,1.09-7.98c-1.03,1.4-1.66,3.12-1.66,4.99
	C405.49,47.26,405.71,48.26,406.06,49.19z M376.64,36.57c-4.25,0-7.7,3.45-7.7,7.71s3.45,7.71,7.7,7.71c4.25,0,7.7-3.45,7.7-7.71
	S380.89,36.57,376.64,36.57z M403.35,140.21c-0.26-3.23-0.48-6.44-0.65-9.63c-1.12,1.18-1.82,2.77-1.82,4.53
	C400.88,137.18,401.86,139.01,403.35,140.21z M291.03,370.95c1,0,1.81-0.81,1.81-1.82c0-1-0.81-1.82-1.81-1.82
	c-1,0-1.81,0.81-1.81,1.82C289.21,370.13,290.03,370.95,291.03,370.95z M249.78,149.9c0,2.15,1.74,3.88,3.88,3.88
	c2.14,0,3.88-1.74,3.88-3.88c0-2.14-1.74-3.88-3.88-3.88C251.52,146.02,249.78,147.76,249.78,149.9z M270.44,75.1
	c-2.87,0-5.19,2.33-5.19,5.2c0,2.87,2.33,5.2,5.19,5.2c2.87,0,5.19-2.33,5.19-5.2C275.63,77.43,273.31,75.1,270.44,75.1z
	 M271.68,138c0,2.42,1.96,4.39,4.38,4.39s4.38-1.96,4.38-4.39c0-2.42-1.96-4.39-4.38-4.39S271.68,135.58,271.68,138z M263.65,126.58
	c0-2.39-1.93-4.32-4.32-4.32c-2.38,0-4.32,1.94-4.32,4.32s1.93,4.32,4.32,4.32C261.71,130.9,263.65,128.97,263.65,126.58z
	 M260.16,103.39c0,2.63,2.13,4.76,4.76,4.76c2.63,0,4.76-2.13,4.76-4.76s-2.13-4.76-4.76-4.76
	C262.29,98.63,260.16,100.76,260.16,103.39z M216.33,47.95c-2.63,0-4.76,2.13-4.76,4.76s2.13,4.76,4.76,4.76
	c2.63,0,4.76-2.13,4.76-4.76S218.96,47.95,216.33,47.95z M199.48,220.86c0-1.28-1.04-2.32-2.32-2.32c-1.28,0-2.32,1.04-2.32,2.32
	c0,1.28,1.04,2.32,2.32,2.32C198.44,223.18,199.48,222.14,199.48,220.86z M194.89,306.39c0.83,0,1.5-0.67,1.5-1.5
	c0-0.83-0.67-1.5-1.5-1.5c-0.83,0-1.5,0.67-1.5,1.5C193.39,305.71,194.06,306.39,194.89,306.39z M205.35,197.71
	c0-1.45-1.18-2.63-2.63-2.63c-1.45,0-2.63,1.18-2.63,2.63c0,1.45,1.18,2.63,2.63,2.63C204.17,200.34,205.35,199.16,205.35,197.71z
	 M191.49,246.19c1.11,0,2-0.9,2-2c0-1.11-0.9-2-2-2c-1.11,0-2,0.9-2,2C189.49,245.29,190.39,246.19,191.49,246.19z M199.75,280.37
	c0,0.97,0.78,1.75,1.75,1.75c0.97,0,1.75-0.79,1.75-1.75c0-0.97-0.78-1.75-1.75-1.75C200.54,278.61,199.75,279.4,199.75,280.37z
	 M204.39,119.98c0-1.97-1.6-3.57-3.57-3.57c-1.97,0-3.57,1.6-3.57,3.57c0,1.97,1.6,3.57,3.57,3.57
	C202.79,123.56,204.39,121.96,204.39,119.98z M231.05,158.67c-1.9,0-3.44,1.54-3.44,3.45c0,1.9,1.54,3.45,3.44,3.45
	c1.9,0,3.44-1.54,3.44-3.45C234.49,160.21,232.95,158.67,231.05,158.67z M234.77,56.14c-2.73,0-4.94,2.22-4.94,4.95
	c0,2.73,2.21,4.95,4.94,4.95c2.73,0,4.94-2.22,4.94-4.95C239.72,58.36,237.5,56.14,234.77,56.14z M225.02,83.67
	c0,2.49,2.02,4.51,4.51,4.51c2.49,0,4.51-2.02,4.51-4.51s-2.02-4.51-4.51-4.51C227.04,79.16,225.02,81.18,225.02,83.67z
	 M220.13,106.31c0,2.28,1.85,4.13,4.13,4.13c2.28,0,4.13-1.85,4.13-4.13s-1.85-4.13-4.13-4.13
	C221.98,102.18,220.13,104.03,220.13,106.31z M215.26,129.02c0,2.04,1.65,3.7,3.69,3.7c2.04,0,3.69-1.65,3.69-3.7
	c0-2.04-1.65-3.7-3.69-3.7C216.91,125.33,215.26,126.98,215.26,129.02z M240.4,139c0-2.11-1.71-3.82-3.82-3.82
	c-2.11,0-3.82,1.71-3.82,3.82c0,2.11,1.71,3.82,3.82,3.82C238.69,142.83,240.4,141.12,240.4,139z M258.14,42.04
	c-3.04,0-5.51,2.47-5.51,5.51s2.47,5.51,5.51,5.51c3.04,0,5.51-2.47,5.51-5.51S261.19,42.04,258.14,42.04z M264.07,189.14
	c1.97,0,3.57-1.6,3.57-3.57c0-1.97-1.6-3.57-3.57-3.57c-1.97,0-3.57,1.6-3.57,3.57C260.5,187.54,262.1,189.14,264.07,189.14z
	 M242.83,93.11c0,2.56,2.07,4.64,4.63,4.64c2.56,0,4.63-2.08,4.63-4.64s-2.07-4.64-4.63-4.64C244.9,88.48,242.83,90.55,242.83,93.11
	z M237.85,116.01c0,2.32,1.88,4.2,4.19,4.2s4.19-1.88,4.19-4.2c0-2.32-1.88-4.2-4.19-4.2S237.85,113.69,237.85,116.01z
	 M213.6,155.13c1.83,0,3.32-1.49,3.32-3.32c0-1.83-1.49-3.32-3.32-3.32c-1.83,0-3.32,1.49-3.32,3.32
	C210.28,153.65,211.77,155.13,213.6,155.13z M323.79,396.07c-1,0-1.81,0.81-1.81,1.82c0,1,0.81,1.82,1.81,1.82
	c1,0,1.81-0.81,1.81-1.82C325.61,396.88,324.79,396.07,323.79,396.07z M323.6,328.44c-1.38,0-2.5,1.12-2.5,2.51
	c0,1.38,1.12,2.51,2.5,2.51c1.38,0,2.5-1.12,2.5-2.51C326.1,329.56,324.98,328.44,323.6,328.44z M305.45,340.75
	c0-1.21-0.98-2.19-2.19-2.19c-1.21,0-2.19,0.98-2.19,2.19c0,1.21,0.98,2.19,2.19,2.19C304.47,342.94,305.45,341.96,305.45,340.75z
	 M342.42,387.95c0,1.18,0.95,2.13,2.13,2.13c1.18,0,2.13-0.95,2.13-2.13c0-1.18-0.95-2.13-2.13-2.13
	C343.38,385.82,342.42,386.77,342.42,387.95z M301.4,407.85c0,0.87,0.7,1.57,1.56,1.57c0.86,0,1.56-0.7,1.56-1.57
	c0-0.86-0.7-1.57-1.56-1.57C302.1,406.28,301.4,406.98,301.4,407.85z M99.52,24.01c1.97,0,3.57-1.6,3.57-3.57
	c0-0.23-0.03-0.44-0.07-0.66c-2.27,0.66-4.54,1.33-6.8,1.99C96.75,23.08,98.03,24.01,99.52,24.01z M374.41,20.36
	c0,4.6,3.73,8.33,8.32,8.33c4.6,0,8.32-3.73,8.32-8.33c0-0.74-0.13-1.45-0.31-2.13c-4.53-1.34-9.06-2.68-13.59-4.02
	C375.48,15.73,374.41,17.91,374.41,20.36z M343.93,318.26c-1.59,0-2.88,1.29-2.88,2.88s1.29,2.88,2.88,2.88
	c1.59,0,2.88-1.29,2.88-2.88S345.52,318.26,343.93,318.26z M306.42,295.63c0-1.49-1.2-2.69-2.69-2.69c-1.49,0-2.69,1.21-2.69,2.69
	c0,1.49,1.2,2.69,2.69,2.69C305.22,298.33,306.42,297.12,306.42,295.63z M285.54,305.54c0-1.28-1.04-2.32-2.32-2.32
	c-1.28,0-2.32,1.04-2.32,2.32c0,1.28,1.04,2.32,2.32,2.32C284.5,307.85,285.54,306.82,285.54,305.54z M209.85,256.22
	c0-1.14-0.92-2.07-2.06-2.07c-1.14,0-2.07,0.93-2.07,2.07c0,1.14,0.92,2.07,2.07,2.07C208.93,258.29,209.85,257.36,209.85,256.22z
	 M208.2,171.7c-1.66,0-3,1.35-3,3.01s1.34,3.01,3,3.01c1.66,0,3-1.35,3-3.01S209.85,171.7,208.2,171.7z M185.08,185.19
	c-1.42,0-2.57,1.15-2.57,2.57c0,1.42,1.15,2.57,2.57,2.57s2.57-1.15,2.57-2.57C187.64,186.34,186.49,185.19,185.08,185.19z
	 M386.44,186.46c0,2.98,2.41,5.39,5.38,5.39c2.97,0,5.38-2.41,5.38-5.39c0-2.98-2.41-5.39-5.38-5.39
	C388.85,181.08,386.44,183.49,386.44,186.46z M183.92,267.73c0,0.97,0.78,1.75,1.75,1.75c0.97,0,1.75-0.79,1.75-1.75
	c0-0.97-0.78-1.75-1.75-1.75C184.7,265.97,183.92,266.76,183.92,267.73z M262.6,358.72c-0.9,0-1.63,0.73-1.63,1.63
	c0,0.9,0.73,1.63,1.63,1.63c0.9,0,1.63-0.73,1.63-1.63C264.23,359.45,263.5,358.72,262.6,358.72z M281.05,350.55
	c0,1.04,0.84,1.88,1.88,1.88c1.04,0,1.88-0.84,1.88-1.88c0-1.04-0.84-1.88-1.88-1.88C281.89,348.67,281.05,349.51,281.05,350.55z
	 M208.89,321.04c0.83,0,1.5-0.67,1.5-1.5s-0.67-1.5-1.5-1.5s-1.5,0.67-1.5,1.5S208.06,321.04,208.89,321.04z M262.69,313.45
	c-1.11,0-2,0.9-2,2c0,1.11,0.9,2,2,2c1.11,0,2-0.9,2-2C264.7,314.35,263.8,313.45,262.69,313.45z M195.61,145.7
	c1.76,0,3.19-1.43,3.19-3.19c0-1.76-1.43-3.19-3.19-3.19c-1.76,0-3.19,1.43-3.19,3.19C192.41,144.27,193.84,145.7,195.61,145.7z
	 M190.36,167.98c1.59,0,2.88-1.29,2.88-2.88s-1.29-2.88-2.88-2.88c-1.59,0-2.88,1.29-2.88,2.88S188.77,167.98,190.36,167.98z
	 M472.64,328.55c0-2.46-1.99-4.45-4.44-4.45c-2.45,0-4.44,1.99-4.44,4.45c0,2.46,1.99,4.45,4.44,4.45
	C470.65,333,472.64,331.01,472.64,328.55z M466.65,440.72c1.62,0,2.94-1.32,2.94-2.94c0-1.63-1.32-2.94-2.94-2.94
	c-1.62,0-2.94,1.32-2.94,2.94C463.71,439.41,465.02,440.72,466.65,440.72z M467.87,417.59c0-1.73-1.4-3.13-3.13-3.13
	c-1.73,0-3.13,1.4-3.13,3.13c0,1.73,1.4,3.13,3.13,3.13C466.46,420.73,467.87,419.32,467.87,417.59z M420.66,325.4
	c-2.04,0-3.69,1.65-3.69,3.7c0,2.04,1.65,3.7,3.69,3.7c2.04,0,3.69-1.65,3.69-3.7C424.35,327.05,422.7,325.4,420.66,325.4z
	 M418.95,437.79c0,1.35,1.09,2.44,2.44,2.44c1.35,0,2.44-1.09,2.44-2.44c0-1.35-1.09-2.44-2.44-2.44
	C420.04,435.34,418.95,436.44,418.95,437.79z M272.87,220.04c-1.76,0-3.19,1.43-3.19,3.19c0,1.76,1.43,3.19,3.19,3.19
	s3.19-1.43,3.19-3.19C276.06,221.47,274.64,220.04,272.87,220.04z M279.54,202.22c1.97,0,3.57-1.6,3.57-3.57
	c0-1.97-1.6-3.57-3.57-3.57s-3.57,1.6-3.57,3.57C275.98,200.62,277.57,202.22,279.54,202.22z M271.43,291.43
	c1.31,0,2.38-1.07,2.38-2.38c0-1.31-1.06-2.38-2.38-2.38c-1.31,0-2.38,1.07-2.38,2.38C269.06,290.37,270.12,291.43,271.43,291.43z
	 M270.63,380.52c0.86,0,1.56-0.7,1.56-1.57s-0.7-1.57-1.56-1.57c-0.86,0-1.56,0.7-1.56,1.57S269.77,380.52,270.63,380.52z
	 M275.41,332.62c0-1.07-0.87-1.94-1.94-1.94c-1.07,0-1.94,0.87-1.94,1.94c0,1.07,0.87,1.94,1.94,1.94
	C274.54,334.57,275.41,333.7,275.41,332.62z M319.61,202.04c0-2.25-1.82-4.07-4.07-4.07c-2.25,0-4.07,1.82-4.07,4.07
	c0,2.25,1.82,4.07,4.07,4.07C317.78,206.11,319.61,204.29,319.61,202.04z M292.14,276.25c-1.52,0-2.75,1.23-2.75,2.76
	c0,1.52,1.23,2.76,2.75,2.76c1.52,0,2.75-1.23,2.75-2.76C294.9,277.48,293.66,276.25,292.14,276.25z M327.08,177.07
	c0-2.49-2.02-4.51-4.51-4.51c-2.49,0-4.51,2.02-4.51,4.51c0,2.49,2.02,4.51,4.51,4.51C325.06,181.58,327.08,179.56,327.08,177.07z
	 M312.8,265.86c-1.73,0-3.13,1.4-3.13,3.13c0,1.73,1.4,3.13,3.13,3.13c1.73,0,3.13-1.4,3.13-3.13
	C315.93,267.26,314.53,265.86,312.8,265.86z M416.04,259.24c-2.56,0-4.63,2.08-4.63,4.64c0,2.56,2.07,4.64,4.63,4.64
	c2.56,0,4.63-2.08,4.63-4.64C420.67,261.32,418.6,259.24,416.04,259.24z M405.7,161.09c-0.12-0.84-0.23-1.69-0.35-2.53
	c-0.85-2.25-3-3.87-5.55-3.87c-3.28,0-5.95,2.66-5.95,5.95c0,3.29,2.66,5.95,5.95,5.95C402.93,166.59,405.47,164.16,405.7,161.09z
	 M415.63,214c-2.9,0-5.26,2.36-5.26,5.26c0,2.91,2.35,5.26,5.26,5.26c2.9,0,5.26-2.36,5.26-5.26c0-0.71-0.14-1.38-0.4-1.99
	c-0.01-0.04-0.03-0.07-0.04-0.11C419.63,215.3,417.78,214,415.63,214z M312.23,163.28c0-2.49-2.02-4.51-4.51-4.51
	c-2.49,0-4.51,2.02-4.51,4.51s2.02,4.51,4.51,4.51C310.21,167.79,312.23,165.77,312.23,163.28z M297.83,212.58
	c0-1.97-1.6-3.57-3.57-3.57s-3.57,1.6-3.57,3.57c0,1.97,1.6,3.57,3.57,3.57S297.83,214.55,297.83,212.58z M274.08,161.69
	c0-2.18-1.77-3.95-3.94-3.95c-2.18,0-3.94,1.77-3.94,3.95c0,2.18,1.77,3.95,3.94,3.95C272.32,165.64,274.08,163.87,274.08,161.69z
	 M301.12,191.87c2.25,0,4.07-1.82,4.07-4.07c0-2.25-1.82-4.07-4.07-4.07c-2.25,0-4.07,1.82-4.07,4.07
	C297.05,190.04,298.87,191.87,301.12,191.87z M216.25,296.07c1,0,1.81-0.81,1.81-1.82c0-1-0.81-1.82-1.81-1.82
	c-1,0-1.81,0.81-1.81,1.82C214.44,295.26,215.25,296.07,216.25,296.07z M225.2,269.45c0-1.14-0.92-2.07-2.07-2.07
	c-1.14,0-2.06,0.93-2.06,2.07c0,1.14,0.92,2.07,2.06,2.07C224.28,271.51,225.2,270.59,225.2,269.45z M228.49,185.36
	c0-1.7-1.37-3.07-3.07-3.07c-1.69,0-3.07,1.37-3.07,3.07s1.37,3.07,3.07,3.07C227.12,188.43,228.49,187.06,228.49,185.36z
	 M229.66,247.46c1.35,0,2.44-1.09,2.44-2.44c0-1.35-1.09-2.44-2.44-2.44c-1.35,0-2.44,1.09-2.44,2.44
	C227.22,246.37,228.32,247.46,229.66,247.46z M232.67,353.74c0.79,0,1.44-0.65,1.44-1.44c0-0.8-0.64-1.44-1.44-1.44
	c-0.8,0-1.44,0.65-1.44,1.44C231.23,353.1,231.87,353.74,232.67,353.74z M229.83,311.06c0.97,0,1.75-0.79,1.75-1.75
	c0-0.97-0.78-1.75-1.75-1.75c-0.97,0-1.75,0.79-1.75,1.75C228.07,310.27,228.86,311.06,229.83,311.06z M222.39,208.77
	c0-1.49-1.2-2.69-2.69-2.69s-2.69,1.21-2.69,2.69c0,1.49,1.2,2.69,2.69,2.69S222.39,210.26,222.39,208.77z M213.83,234.76
	c1.31,0,2.38-1.07,2.38-2.38c0-1.31-1.06-2.38-2.38-2.38c-1.31,0-2.38,1.07-2.38,2.38C211.45,233.69,212.52,234.76,213.83,234.76z
	 M206.8,75.09c0,2.42,1.96,4.39,4.38,4.39c2.42,0,4.38-1.96,4.38-4.39c0-2.42-1.96-4.39-4.38-4.39
	C208.76,70.71,206.8,72.67,206.8,75.09z M238.68,220.9c0-1.52-1.23-2.76-2.75-2.76c-1.52,0-2.75,1.23-2.75,2.76
	c0,1.52,1.23,2.76,2.75,2.76C237.45,223.65,238.68,222.42,238.68,220.9z M221.51,336.89c0.83,0,1.5-0.67,1.5-1.5s-0.67-1.5-1.5-1.5
	c-0.83,0-1.5,0.67-1.5,1.5S220.68,336.89,221.51,336.89z M253.07,344.15c0.93,0,1.69-0.76,1.69-1.69c0-0.93-0.76-1.69-1.69-1.69
	c-0.93,0-1.69,0.76-1.69,1.69C251.39,343.39,252.14,344.15,253.07,344.15z M250.67,301.21c1.14,0,2.07-0.93,2.07-2.07
	c0-1.14-0.92-2.07-2.07-2.07c-1.14,0-2.06,0.93-2.06,2.07C248.6,300.29,249.53,301.21,250.67,301.21z M251.35,236.86
	c1.56,0,2.82-1.26,2.82-2.82c0-1.56-1.26-2.82-2.82-2.82c-1.56,0-2.82,1.26-2.82,2.82C248.53,235.6,249.79,236.86,251.35,236.86z
	 M268.71,248.14c0-1.56-1.26-2.82-2.82-2.82c-1.56,0-2.82,1.26-2.82,2.82c0,1.56,1.26,2.82,2.82,2.82
	C267.45,250.96,268.71,249.7,268.71,248.14z M257.82,212.8c1.73,0,3.13-1.4,3.13-3.13c0-1.73-1.4-3.13-3.13-3.13
	c-1.73,0-3.13,1.4-3.13,3.13C254.69,211.4,256.09,212.8,257.82,212.8z M258.54,275.86c1.35,0,2.44-1.09,2.44-2.44
	c0-1.35-1.09-2.44-2.44-2.44s-2.44,1.09-2.44,2.44C256.1,274.77,257.19,275.86,258.54,275.86z M237.46,285.85
	c1.14,0,2.07-0.93,2.07-2.07c0-1.14-0.92-2.07-2.07-2.07c-1.14,0-2.06,0.93-2.06,2.07C235.39,284.92,236.32,285.85,237.46,285.85z
	 M242.13,327.16c0.97,0,1.75-0.79,1.75-1.75c0-0.97-0.78-1.75-1.75-1.75c-0.97,0-1.75,0.79-1.75,1.75
	C240.37,326.37,241.16,327.16,242.13,327.16z M251.39,173.38c0-1.94-1.57-3.51-3.5-3.51c-1.94,0-3.5,1.57-3.5,3.51
	c0,1.94,1.57,3.51,3.5,3.51C249.82,176.89,251.39,175.32,251.39,173.38z M241.99,200.16c1.73,0,3.13-1.4,3.13-3.13
	c0-1.73-1.4-3.13-3.13-3.13s-3.13,1.4-3.13,3.13C238.86,198.76,240.26,200.16,241.99,200.16z M247.03,258.72
	c0-1.35-1.09-2.44-2.44-2.44c-1.35,0-2.44,1.09-2.44,2.44c0,1.35,1.09,2.44,2.44,2.44C245.94,261.16,247.03,260.07,247.03,258.72z
	 M247.75,70.3c0,2.8,2.27,5.07,5.07,5.07c2.8,0,5.07-2.27,5.07-5.07c0-2.8-2.27-5.07-5.07-5.07
	C250.02,65.22,247.75,67.49,247.75,70.3z M159.01,28.37c-2.35,0-4.26,1.91-4.26,4.26c0,2.35,1.91,4.26,4.26,4.26
	c2.35,0,4.26-1.91,4.26-4.26C163.27,30.28,161.36,28.37,159.01,28.37z M112.54,67.71c0-1.7-1.37-3.07-3.07-3.07
	s-3.07,1.37-3.07,3.07c0,1.7,1.37,3.07,3.07,3.07S112.54,69.4,112.54,67.71z M132.58,71.72c0-1.8-1.46-3.26-3.25-3.26
	c-1.8,0-3.25,1.46-3.25,3.26c0,1.8,1.46,3.26,3.25,3.26C131.13,74.98,132.58,73.52,132.58,71.72z M145.52,76.73
	c0,1.9,1.54,3.45,3.44,3.45c1.9,0,3.44-1.54,3.44-3.45c0-1.9-1.54-3.45-3.44-3.45C147.06,73.28,145.52,74.83,145.52,76.73z
	 M150.17,54.68c0,2.11,1.71,3.82,3.82,3.82c2.11,0,3.82-1.71,3.82-3.82c0-2.11-1.71-3.82-3.82-3.82
	C151.88,50.86,150.17,52.57,150.17,54.68z M140.8,98.78c0,1.73,1.4,3.13,3.13,3.13c1.73,0,3.13-1.4,3.13-3.13
	c0-1.73-1.4-3.13-3.13-3.13C142.2,95.65,140.8,97.05,140.8,98.78z M117.95,45.66c0-1.9-1.54-3.45-3.44-3.45
	c-1.9,0-3.44,1.54-3.44,3.45c0,1.9,1.54,3.45,3.44,3.45C116.4,49.1,117.95,47.56,117.95,45.66z M128.83,167.16
	c1.21,0,2.19-0.98,2.19-2.19c0-1.21-0.98-2.19-2.19-2.19c-1.21,0-2.19,0.98-2.19,2.19C126.64,166.18,127.62,167.16,128.83,167.16z
	 M123.28,23.61c0-2.08-1.68-3.76-3.75-3.76c-2.07,0-3.75,1.68-3.75,3.76c0,2.08,1.68,3.76,3.75,3.76
	C121.6,27.37,123.28,25.68,123.28,23.61z M127.25,93.75c0-1.63-1.32-2.94-2.94-2.94c-1.62,0-2.94,1.32-2.94,2.94
	c0,1.63,1.32,2.94,2.94,2.94C125.93,96.69,127.25,95.38,127.25,93.75z M123.8,188.98c1.07,0,1.94-0.87,1.94-1.94
	c0-1.07-0.87-1.94-1.94-1.94c-1.07,0-1.94,0.87-1.94,1.94C121.86,188.11,122.73,188.98,123.8,188.98z M160,104.84
	c0,1.8,1.46,3.26,3.25,3.26c1.8,0,3.25-1.46,3.25-3.26c0-1.8-1.46-3.26-3.25-3.26C161.46,101.59,160,103.04,160,104.84z
	 M145.88,270.61c0.76,0,1.38-0.62,1.38-1.38c0-0.76-0.62-1.38-1.38-1.38c-0.76,0-1.38,0.62-1.38,1.38
	C144.5,270,145.12,270.61,145.88,270.61z M142.97,195.64c1.14,0,2.06-0.93,2.06-2.07c0-1.14-0.92-2.07-2.06-2.07
	s-2.07,0.93-2.07,2.07C140.91,194.71,141.83,195.64,142.97,195.64z M141.71,120.84c0-1.56-1.26-2.82-2.82-2.82
	c-1.56,0-2.82,1.26-2.82,2.82c0,1.56,1.26,2.82,2.82,2.82C140.45,123.66,141.71,122.4,141.71,120.84z M151.19,248.15
	c0.9,0,1.63-0.73,1.63-1.63s-0.73-1.63-1.63-1.63c-0.9,0-1.63,0.73-1.63,1.63S150.29,248.15,151.19,248.15z M155.76,149.17
	c0-1.45-1.18-2.63-2.63-2.63c-1.45,0-2.63,1.18-2.63,2.63c0,1.45,1.18,2.63,2.63,2.63C154.58,151.8,155.76,150.62,155.76,149.17z
	 M150.37,171.36c0-1.28-1.04-2.32-2.32-2.32c-1.28,0-2.32,1.04-2.32,2.32c0,1.28,1.04,2.32,2.32,2.32
	C149.33,173.67,150.37,172.64,150.37,171.36z M130.72,49.7c0,2.01,1.63,3.63,3.63,3.63c2,0,3.63-1.63,3.63-3.63
	c0-2.01-1.62-3.63-3.63-3.63C132.35,46.07,130.72,47.69,130.72,49.7z M136.37,142.9c0-1.38-1.12-2.51-2.5-2.51
	c-1.38,0-2.5,1.12-2.5,2.51s1.12,2.51,2.5,2.51C135.25,145.41,136.37,144.28,136.37,142.9z M131.2,238.1c0,0.86,0.7,1.57,1.56,1.57
	c0.86,0,1.56-0.7,1.56-1.57c0-0.86-0.7-1.57-1.56-1.57C131.9,236.54,131.2,237.24,131.2,238.1z M137.88,217.63
	c1,0,1.81-0.81,1.81-1.82c0-1-0.81-1.82-1.81-1.82c-1,0-1.81,0.81-1.81,1.82C136.06,216.82,136.87,217.63,137.88,217.63z
	 M139.37,23.67c-2.21,0-4.01,1.8-4.01,4.01c0,2.21,1.79,4.01,4.01,4.01c2.21,0,4.01-1.79,4.01-4.01
	C143.38,25.46,141.58,23.67,139.37,23.67z M275.9,51.68c-3.11,0-5.63,2.52-5.63,5.64c0,3.11,2.52,5.64,5.63,5.64
	c3.11,0,5.63-2.52,5.63-5.64C281.53,54.2,279.01,51.68,275.9,51.68z M239.99,43.89c2.05,0,3.81-1.17,4.69-2.87
	c-2.99,0.02-6.16-0.02-9.51-0.23C236.01,42.61,237.85,43.89,239.99,43.89z M197.53,40.52c-2.56,0-4.63,2.08-4.63,4.64
	c0,2.56,2.07,4.64,4.63,4.64s4.63-2.08,4.63-4.64C202.16,42.6,200.09,40.52,197.53,40.52z M206.01,101.46
	c2.18,0,3.94-1.77,3.94-3.95c0-2.18-1.77-3.95-3.94-3.95c-2.18,0-3.94,1.77-3.94,3.95C202.07,99.69,203.83,101.46,206.01,101.46z
	 M277.06,114.48c0,2.66,2.16,4.82,4.82,4.82c2.66,0,4.82-2.16,4.82-4.82c0-2.66-2.16-4.82-4.82-4.82
	C279.21,109.65,277.06,111.81,277.06,114.48z M109.24,161.89c1.14,0,2.06-0.93,2.06-2.07c0-1.14-0.92-2.07-2.06-2.07
	c-1.14,0-2.07,0.93-2.07,2.07C107.18,160.97,108.1,161.89,109.24,161.89z M304.26,79.07c0,3.22,2.61,5.83,5.82,5.83
	c3.21,0,5.82-2.61,5.82-5.83c0-3.22-2.61-5.83-5.82-5.83C306.86,73.24,304.26,75.85,304.26,79.07z M315.82,61.96
	c3.49,0,6.32-2.83,6.32-6.33c0-3.49-2.83-6.33-6.32-6.33c-3.49,0-6.32,2.83-6.32,6.33C309.5,59.13,312.33,61.96,315.82,61.96z
	 M298.78,38.4c-3.46,0-6.26,2.8-6.26,6.26c0,3.46,2.8,6.26,6.26,6.26c3.46,0,6.26-2.8,6.26-6.26
	C305.04,41.21,302.24,38.4,298.78,38.4z M282.33,91.09c0,2.91,2.35,5.26,5.26,5.26c2.9,0,5.26-2.36,5.26-5.26
	c0-2.91-2.35-5.26-5.26-5.26C284.68,85.83,282.33,88.18,282.33,91.09z M287.46,67.83c0,3.18,2.58,5.76,5.76,5.76
	c3.18,0,5.76-2.58,5.76-5.76c0-3.18-2.58-5.76-5.76-5.76C290.04,62.06,287.46,64.64,287.46,67.83z M188.25,67.39
	c0,2.32,1.88,4.2,4.19,4.2s4.19-1.88,4.19-4.2c0-2.32-1.88-4.2-4.19-4.2S188.25,65.07,188.25,67.39z M112.28,231.21
	c0,0.8,0.64,1.44,1.44,1.44c0.8,0,1.44-0.65,1.44-1.44c0-0.8-0.64-1.44-1.44-1.44C112.93,229.77,112.28,230.42,112.28,231.21z
	 M324.81,242.81c0-1.97-1.6-3.57-3.57-3.57c-1.97,0-3.57,1.6-3.57,3.57c0,1.97,1.6,3.57,3.57,3.57
	C323.21,246.38,324.81,244.78,324.81,242.81z M117.07,209.12c0,0.93,0.76,1.69,1.69,1.69c0.93,0,1.69-0.76,1.69-1.69
	c0-0.93-0.76-1.69-1.69-1.69C117.83,207.43,117.07,208.19,117.07,209.12z M183.53,89.64c0,2.11,1.71,3.82,3.82,3.82
	c2.11,0,3.82-1.71,3.82-3.82c0-2.11-1.71-3.82-3.82-3.82C185.24,85.82,183.53,87.53,183.53,89.64z M102.41,181.85
	c0,1,0.81,1.82,1.81,1.82c1,0,1.82-0.81,1.82-1.82s-0.81-1.82-1.82-1.82C103.22,180.03,102.41,180.85,102.41,181.85z M107.2,89.76
	c0-1.52-1.23-2.76-2.75-2.76c-1.52,0-2.75,1.23-2.75,2.76c0,1.52,1.23,2.76,2.75,2.76C105.97,92.52,107.2,91.28,107.2,89.76z
	 M178.8,111.92c0,1.9,1.54,3.45,3.44,3.45c1.9,0,3.44-1.54,3.44-3.45c0-1.9-1.54-3.45-3.44-3.45
	C180.34,108.47,178.8,110.01,178.8,111.92z M121.91,115.77c0-1.45-1.18-2.63-2.63-2.63c-1.45,0-2.63,1.18-2.63,2.63
	c0,1.45,1.18,2.63,2.63,2.63C120.74,118.41,121.91,117.23,121.91,115.77z M181.99,210.52c0-1.25-1.01-2.26-2.25-2.26
	c-1.24,0-2.25,1.01-2.25,2.26c0,1.25,1.01,2.26,2.25,2.26C180.99,212.78,181.99,211.77,181.99,210.52z M178.14,291.55
	c0,0.83,0.67,1.5,1.5,1.5s1.5-0.67,1.5-1.5s-0.67-1.5-1.5-1.5S178.14,290.72,178.14,291.55z M180.18,134.23
	c0-1.7-1.37-3.07-3.07-3.07c-1.69,0-3.07,1.37-3.07,3.07c0,1.7,1.37,3.07,3.07,3.07C178.81,137.3,180.18,135.92,180.18,134.23z
	 M183.46,21.18c0.71,0,1.38-0.16,1.99-0.44c-2.4-2.11-4.53-4.23-6.4-6.3c-0.26,0.59-0.4,1.24-0.4,1.92
	C178.64,19.02,180.8,21.18,183.46,21.18z M281.31,40.55c2.96,0,5.44-2.1,6.01-4.9c-3.62,1.15-7.19,2.05-10.64,2.74
	C277.8,39.7,279.45,40.55,281.31,40.55z M156.44,225.8c1.04,0,1.88-0.84,1.88-1.88s-0.84-1.88-1.88-1.88
	c-1.04,0-1.88,0.84-1.88,1.88S155.4,225.8,156.44,225.8z M310.62,23.91c-2.19,1.62-4.43,3.09-6.7,4.42
	c0.12,0.01,0.24,0.04,0.37,0.04C307.21,28.37,309.67,26.51,310.62,23.91z M174.34,235.34c1.07,0,1.94-0.87,1.94-1.94
	c0-1.07-0.87-1.94-1.94-1.94c-1.07,0-1.94,0.87-1.94,1.94C172.4,234.47,173.27,235.34,174.34,235.34z M327.1,16.54
	c4.11,0,7.45-3.34,7.45-7.45c0-3.14-1.94-5.81-4.69-6.91c-1.86,3.29-4.56,7.43-8.38,11.76C322.85,15.52,324.85,16.54,327.1,16.54z
	 M169.36,60.58c0,2.21,1.79,4.01,4,4.01c2.21,0,4.01-1.8,4.01-4.01s-1.79-4.01-4.01-4.01C171.15,56.57,169.36,58.36,169.36,60.58z
	 M174.74,156.57c0-1.52-1.23-2.76-2.75-2.76c-1.52,0-2.75,1.23-2.75,2.76c0,1.52,1.23,2.76,2.75,2.76
	C173.5,159.33,174.74,158.09,174.74,156.57z M178.41,34.01c-2.45,0-4.44,1.99-4.44,4.45c0,2.46,1.99,4.45,4.44,4.45
	s4.44-1.99,4.44-4.45C182.86,36,180.87,34.01,178.41,34.01z M164.68,82.7c0,2.01,1.63,3.63,3.63,3.63c2,0,3.63-1.63,3.63-3.63
	c0-2.01-1.63-3.63-3.63-3.63C166.31,79.07,164.68,80.7,164.68,82.7z M161.65,203.6c1.21,0,2.19-0.98,2.19-2.19
	c0-1.21-0.98-2.19-2.19-2.19c-1.21,0-2.19,0.98-2.19,2.19C159.46,202.62,160.44,203.6,161.65,203.6z M161.14,127
	c0-1.63-1.32-2.94-2.94-2.94s-2.94,1.32-2.94,2.94s1.32,2.94,2.94,2.94S161.14,128.62,161.14,127z M166.83,181.41
	c1.35,0,2.44-1.09,2.44-2.44c0-1.35-1.09-2.44-2.44-2.44c-1.35,0-2.44,1.09-2.44,2.44C164.39,180.31,165.48,181.41,166.83,181.41z
	 M168.86,258.11c0.93,0,1.69-0.76,1.69-1.69c0-0.93-0.76-1.69-1.69-1.69c-0.93,0-1.69,0.76-1.69,1.69
	C167.17,257.35,167.93,258.11,168.86,258.11z M163.26,281.07c0.8,0,1.44-0.65,1.44-1.44c0-0.8-0.64-1.44-1.44-1.44
	c-0.79,0-1.44,0.65-1.44,1.44C161.82,280.43,162.47,281.07,163.26,281.07z M144.39,10.04c2.16,0,3.95-1.57,4.3-3.63
	c-2.51,0.73-5.01,1.47-7.52,2.2C141.98,9.48,143.12,10.04,144.39,10.04z M97.63,203.87c0,0.87,0.7,1.57,1.56,1.57
	c0.86,0,1.56-0.7,1.56-1.57c0-0.87-0.7-1.57-1.56-1.57C98.33,202.31,97.63,203.01,97.63,203.87z M79.67,487.78
	c0-0.03-0.03-0.06-0.06-0.06c-0.03,0-0.06,0.03-0.06,0.06c0,0.03,0.03,0.06,0.06,0.06C79.64,487.84,79.67,487.81,79.67,487.78z
	 M101.86,111.82c0-1.35-1.09-2.44-2.44-2.44c-0.26,0-0.51,0.05-0.74,0.13c0.01,1.55,0,3.09-0.01,4.63c0.24,0.08,0.49,0.13,0.75,0.13
	C100.77,114.26,101.86,113.17,101.86,111.82z M164.04,5.95c-2.56,0-4.63,2.08-4.63,4.64c0,2.56,2.07,4.64,4.63,4.64
	c2.56,0,4.63-2.08,4.63-4.64C168.67,8.02,166.6,5.95,164.04,5.95z M116.58,137.8c0-1.28-1.04-2.32-2.32-2.32
	c-1.28,0-2.32,1.04-2.32,2.32c0,1.28,1.04,2.32,2.32,2.32C115.54,140.12,116.58,139.08,116.58,137.8z M397.75,510.15
	c0.83,0,1.5-0.67,1.5-1.5s-0.67-1.5-1.5-1.5s-1.5,0.67-1.5,1.5S396.92,510.15,397.75,510.15z M403.53,338.94
	c0-1.83-1.48-3.32-3.32-3.32c-1.83,0-3.32,1.49-3.32,3.32s1.48,3.32,3.32,3.32C402.05,342.26,403.53,340.77,403.53,338.94z
	 M397.39,447.9c0,1.14,0.92,2.07,2.06,2.07c1.14,0,2.07-0.93,2.07-2.07c0-1.14-0.92-2.07-2.07-2.07
	C398.31,445.84,397.39,446.76,397.39,447.9z M401.9,468.17c0-1.04-0.84-1.88-1.88-1.88c-1.04,0-1.88,0.84-1.88,1.88
	c0,1.04,0.84,1.88,1.88,1.88C401.06,470.05,401.9,469.21,401.9,468.17z M401.14,488.44c0-0.93-0.76-1.69-1.69-1.69
	c-0.93,0-1.69,0.76-1.69,1.69c0,0.93,0.76,1.69,1.69,1.69C400.39,490.13,401.14,489.37,401.14,488.44z M397.75,429.96
	c1.24,0,2.25-1.01,2.25-2.26c0-1.25-1.01-2.25-2.25-2.25c-1.24,0-2.25,1.01-2.25,2.25C395.5,428.95,396.51,429.96,397.75,429.96z
	 M382.7,348.79c0-1.63-1.32-2.94-2.94-2.94c-1.62,0-2.94,1.32-2.94,2.94c0,1.63,1.32,2.94,2.94,2.94
	C381.38,351.73,382.7,350.42,382.7,348.79z M388.16,301.54c0-1.97-1.6-3.57-3.57-3.57c-1.97,0-3.57,1.6-3.57,3.57
	c0,1.97,1.6,3.57,3.57,3.57C386.56,305.11,388.16,303.51,388.16,301.54z M377.3,456.28c-0.97,0-1.75,0.79-1.75,1.75
	c0,0.97,0.78,1.75,1.75,1.75c0.97,0,1.75-0.79,1.75-1.75C379.05,457.07,378.27,456.28,377.3,456.28z M385.91,370.93
	c1.56,0,2.82-1.26,2.82-2.82s-1.26-2.82-2.82-2.82c-1.56,0-2.82,1.26-2.82,2.82S384.35,370.93,385.91,370.93z M390.97,390.37
	c1.45,0,2.63-1.18,2.63-2.63s-1.18-2.63-2.63-2.63c-1.45,0-2.63,1.18-2.63,2.63S389.52,390.37,390.97,390.37z M394.92,410.07
	c1.35,0,2.44-1.09,2.44-2.44c0-1.35-1.09-2.44-2.44-2.44c-1.35,0-2.44,1.09-2.44,2.44C392.48,408.97,393.57,410.07,394.92,410.07z
	 M423.2,498.56c0-1-0.81-1.82-1.81-1.82s-1.81,0.81-1.81,1.82c0,1,0.81,1.82,1.81,1.82S423.2,499.56,423.2,498.56z M419.25,520.35
	c0.9,0,1.63-0.73,1.63-1.63c0-0.9-0.73-1.63-1.63-1.63c-0.9,0-1.63,0.73-1.63,1.63C417.62,519.62,418.35,520.35,419.25,520.35z
	 M424.46,478.31c0-1.11-0.9-2-2-2c-1.11,0-2,0.9-2,2c0,1.11,0.9,2,2,2C423.56,480.31,424.46,479.42,424.46,478.31z M422.45,455.84
	c-1.21,0-2.19,0.98-2.19,2.19c0,1.21,0.98,2.19,2.19,2.19c1.21,0,2.19-0.98,2.19-2.19C424.64,456.82,423.66,455.84,422.45,455.84z
	 M430.68,348.31c0-1.97-1.6-3.57-3.57-3.57c-1.97,0-3.57,1.6-3.57,3.57c0,1.97,1.6,3.57,3.57,3.57
	C429.08,351.88,430.68,350.28,430.68,348.31z M406.52,361.4c1.76,0,3.19-1.43,3.19-3.19c0-1.76-1.43-3.19-3.19-3.19
	s-3.19,1.43-3.19,3.19C403.33,359.97,404.76,361.4,406.52,361.4z M416.06,400.42c1.56,0,2.82-1.26,2.82-2.82s-1.26-2.82-2.82-2.82
	s-2.82,1.26-2.82,2.82S414.5,400.42,416.06,400.42z M411.81,380.78c1.66,0,3-1.35,3-3.01c0-1.66-1.35-3.01-3-3.01s-3,1.35-3,3.01
	C408.81,379.44,410.15,380.78,411.81,380.78z M421.88,417.62c0-1.45-1.18-2.63-2.63-2.63c-1.45,0-2.63,1.18-2.63,2.63
	s1.18,2.63,2.63,2.63C420.7,420.26,421.88,419.08,421.88,417.62z M416.06,540.12c0.76,0,1.38-0.62,1.38-1.38
	c0-0.76-0.62-1.38-1.38-1.38s-1.38,0.62-1.38,1.38C414.68,539.5,415.3,540.12,416.06,540.12z M327.96,419.42
	c0.93,0,1.69-0.76,1.69-1.69s-0.76-1.69-1.69-1.69c-0.93,0-1.69,0.76-1.69,1.69S327.02,419.42,327.96,419.42z M348.12,275.86
	c0-1.9-1.54-3.45-3.44-3.45c-1.9,0-3.44,1.54-3.44,3.45c0,1.9,1.54,3.45,3.44,3.45C346.58,279.31,348.12,277.77,348.12,275.86z
	 M346.02,232.7c0-2.21-1.79-4.01-4-4.01c-2.21,0-4.01,1.8-4.01,4.01c0,2.21,1.79,4.01,4.01,4.01
	C344.23,236.71,346.02,234.92,346.02,232.7z M349.06,409.72c1.11,0,2-0.9,2-2s-0.9-2-2-2c-1.11,0-2,0.9-2,2
	S347.95,409.72,349.06,409.72z M378.93,478.31c0-0.9-0.73-1.63-1.63-1.63c-0.9,0-1.63,0.73-1.63,1.63c0,0.9,0.73,1.63,1.63,1.63
	C378.2,479.94,378.93,479.21,378.93,478.31z M338.79,370.77c1.24,0,2.25-1.01,2.25-2.26c0-1.25-1.01-2.26-2.25-2.26
	c-1.24,0-2.25,1.01-2.25,2.26C336.54,369.76,337.55,370.77,338.79,370.77z M327.28,285.74c0-1.7-1.37-3.07-3.07-3.07
	s-3.07,1.37-3.07,3.07s1.37,3.07,3.07,3.07S327.28,287.44,327.28,285.74z M366.45,16.5c2.76,0,5.2-1.38,6.68-3.48
	c-4.95-1.46-9.9-2.93-14.85-4.39C358.47,13,362.04,16.5,366.45,16.5z M337.54,303.15c0-1.63-1.32-2.94-2.94-2.94
	c-1.62,0-2.94,1.32-2.94,2.94c0,1.63,1.32,2.94,2.94,2.94C336.22,306.09,337.54,304.77,337.54,303.15z M354.24,449.54
	c0.9,0,1.63-0.73,1.63-1.63c0-0.9-0.73-1.63-1.63-1.63s-1.63,0.73-1.63,1.63C352.61,448.81,353.34,449.54,354.24,449.54z
	 M334.17,349.48c0-1.31-1.06-2.38-2.38-2.38c-1.31,0-2.38,1.07-2.38,2.38c0,1.31,1.06,2.38,2.38,2.38
	C333.11,351.86,334.17,350.8,334.17,349.48z M330.75,439.38c0.86,0,1.56-0.7,1.56-1.57c0-0.87-0.7-1.57-1.56-1.57
	c-0.86,0-1.56,0.7-1.56,1.57C329.18,438.67,329.88,439.38,330.75,439.38z M352.29,429.54c1,0,1.81-0.81,1.81-1.82
	c0-1-0.81-1.82-1.81-1.82s-1.81,0.81-1.81,1.82C350.48,428.73,351.29,429.54,352.29,429.54z M354.89,469.68c0.83,0,1.5-0.67,1.5-1.5
	s-0.67-1.5-1.5-1.5c-0.83,0-1.5,0.67-1.5,1.5S354.06,469.68,354.89,469.68z M370.06,400.03c1.28,0,2.32-1.04,2.32-2.32
	c0-1.28-1.04-2.32-2.32-2.32c-1.28,0-2.32,1.04-2.32,2.32C367.74,399,368.78,400.03,370.06,400.03z M376.09,499.99
	c0.79,0,1.44-0.65,1.44-1.44c0-0.8-0.64-1.44-1.44-1.44c-0.79,0-1.44,0.65-1.44,1.44C374.65,499.34,375.3,499.99,376.09,499.99z
	 M376.09,439.74c1.07,0,1.94-0.87,1.94-1.94c0-1.07-0.87-1.94-1.94-1.94c-1.07,0-1.94,0.87-1.94,1.94
	C374.15,438.87,375.02,439.74,376.09,439.74z M368.94,265.99c0-2.11-1.71-3.82-3.82-3.82c-2.11,0-3.82,1.71-3.82,3.82
	c0,2.11,1.71,3.82,3.82,3.82C367.23,269.82,368.94,268.11,368.94,265.99z M373.67,419.8c1.18,0,2.13-0.95,2.13-2.13
	c0-1.18-0.95-2.13-2.13-2.13c-1.18,0-2.13,0.95-2.13,2.13C371.54,418.84,372.5,419.8,373.67,419.8z M359.28,361.28
	c1.45,0,2.63-1.18,2.63-2.63c0-1.45-1.18-2.63-2.63-2.63c-1.45,0-2.63,1.18-2.63,2.63C356.66,360.1,357.83,361.28,359.28,361.28z
	 M365.25,380.46c1.35,0,2.44-1.09,2.44-2.44c0-1.35-1.09-2.44-2.44-2.44c-1.35,0-2.44,1.09-2.44,2.44
	C362.81,379.37,363.91,380.46,365.25,380.46z M358.28,293.33c0-1.83-1.48-3.32-3.32-3.32c-1.83,0-3.32,1.49-3.32,3.32
	c0,1.83,1.48,3.32,3.32,3.32C356.8,296.65,358.28,295.16,358.28,293.33z M364.26,314.54c1.76,0,3.19-1.43,3.19-3.19
	c0-1.76-1.43-3.19-3.19-3.19s-3.19,1.43-3.19,3.19C361.07,313.1,362.5,314.54,364.26,314.54z M432.59,371.21
	c1.87,0,3.38-1.51,3.38-3.38c0-1.87-1.51-3.38-3.38-3.38c-1.87,0-3.38,1.51-3.38,3.38C429.22,369.7,430.73,371.21,432.59,371.21z
	 M490.85,508.67c0-1.31-1.06-2.38-2.38-2.38c-1.31,0-2.38,1.07-2.38,2.38c0,1.31,1.06,2.38,2.38,2.38
	C489.79,511.05,490.85,509.99,490.85,508.67z M483.04,550.73c1.04,0,1.88-0.84,1.88-1.88c0-1.04-0.84-1.88-1.88-1.88
	c-1.04,0-1.88,0.84-1.88,1.88C481.16,549.89,482,550.73,483.04,550.73z M488.33,528.82c0-1.18-0.95-2.13-2.13-2.13
	c-1.17,0-2.13,0.95-2.13,2.13c0,1.18,0.95,2.13,2.13,2.13C487.38,530.95,488.33,530,488.33,528.82z M492.47,488.44
	c0-1.45-1.18-2.63-2.63-2.63c-1.45,0-2.63,1.18-2.63,2.63c0,1.45,1.18,2.63,2.63,2.63C491.29,491.07,492.47,489.9,492.47,488.44z
	 M490.29,465.35c-1.56,0-2.82,1.26-2.82,2.82s1.26,2.82,2.82,2.82c1.56,0,2.82-1.26,2.82-2.82S491.85,465.35,490.29,465.35z
	 M493.6,318.68c0-2.7-2.19-4.89-4.88-4.89s-4.88,2.19-4.88,4.89c0,2.7,2.19,4.89,4.88,4.89S493.6,321.38,493.6,318.68z
	 M481.92,294.5c-2.8,0-5.07,2.27-5.07,5.07c0,2.8,2.27,5.07,5.07,5.07c2.8,0,5.07-2.27,5.07-5.07
	C486.99,296.77,484.72,294.5,481.92,294.5z M499.38,338.05c0-2.59-2.1-4.7-4.69-4.7s-4.69,2.1-4.69,4.7c0,2.59,2.1,4.7,4.69,4.7
	S499.38,340.65,499.38,338.05z M486.79,387.5c0-2.08-1.68-3.76-3.75-3.76c-2.07,0-3.76,1.68-3.76,3.76c0,2.08,1.68,3.76,3.76,3.76
	C485.11,391.25,486.79,389.57,486.79,387.5z M437.1,390.79c1.76,0,3.19-1.43,3.19-3.19c0-1.76-1.43-3.19-3.19-3.19
	c-1.76,0-3.19,1.43-3.19,3.19C433.91,389.36,435.34,390.79,437.1,390.79z M478.98,371.64c2.21,0,4.01-1.8,4.01-4.01
	c0-2.21-1.79-4.01-4.01-4.01c-2.21,0-4,1.8-4,4.01C474.97,369.85,476.76,371.64,478.98,371.64z M478.98,570.4
	c0.93,0,1.69-0.76,1.69-1.69c0-0.93-0.76-1.69-1.69-1.69c-0.93,0-1.69,0.76-1.69,1.69C477.29,569.65,478.04,570.4,478.98,570.4z
	 M469.29,282.02c0.56,2.27,2.59,3.96,5.03,3.96c0.21,0,0.41-0.04,0.62-0.06c-0.32-0.21-0.64-0.41-0.96-0.62
	C472.39,284.24,470.83,283.14,469.29,282.02z M486.21,403.95c-1.97,0-3.57,1.6-3.57,3.57c0,1.97,1.6,3.57,3.57,3.57
	c1.97,0,3.57-1.6,3.57-3.57C489.77,405.55,488.18,403.95,486.21,403.95z M446.78,488.44c0-1.18-0.95-2.13-2.13-2.13
	c-1.18,0-2.13,0.95-2.13,2.13c0,1.18,0.95,2.13,2.13,2.13C445.83,490.57,446.78,489.62,446.78,488.44z M445.01,508.66
	c0-1.04-0.84-1.88-1.88-1.88c-1.04,0-1.88,0.84-1.88,1.88c0,1.04,0.84,1.88,1.88,1.88C444.17,510.54,445.01,509.7,445.01,508.66z
	 M447.47,468.17c0-1.28-1.04-2.32-2.32-2.32c-1.28,0-2.32,1.04-2.32,2.32c0,1.28,1.04,2.32,2.32,2.32
	C446.43,470.49,447.47,469.45,447.47,468.17z M451.67,338.43c0-2.21-1.79-4.01-4-4.01c-2.21,0-4.01,1.8-4.01,4.01
	c0,2.21,1.79,4.01,4.01,4.01C449.88,342.44,451.67,340.64,451.67,338.43z M440.62,530.47c0.93,0,1.69-0.76,1.69-1.69
	c0-0.93-0.76-1.69-1.69-1.69c-0.93,0-1.69,0.76-1.69,1.69C438.93,529.71,439.69,530.47,440.62,530.47z M437.1,550.25
	c0.83,0,1.5-0.67,1.5-1.5c0-0.83-0.67-1.5-1.5-1.5c-0.83,0-1.5,0.67-1.5,1.5C435.6,549.58,436.27,550.25,437.1,550.25z
	 M453.33,361.65c2.07,0,3.75-1.68,3.75-3.76c0-2.08-1.68-3.76-3.75-3.76c-2.07,0-3.75,1.68-3.75,3.76
	C449.58,359.97,451.26,361.65,453.33,361.65z M442.09,447.9c0,1.42,1.15,2.57,2.57,2.57c1.42,0,2.57-1.15,2.57-2.57
	c0-1.42-1.15-2.57-2.57-2.57C443.23,445.33,442.09,446.48,442.09,447.9z M443.62,407.56c0-1.66-1.34-3.01-3-3.01
	c-1.66,0-3,1.35-3,3.01s1.34,3.01,3,3.01C442.28,410.57,443.62,409.23,443.62,407.56z M486.77,447.9c0,1.7,1.37,3.07,3.07,3.07
	c1.69,0,3.07-1.37,3.07-3.07c0-1.7-1.37-3.07-3.07-3.07C488.14,444.83,486.77,446.21,486.77,447.9z M443.14,424.93
	c-1.52,0-2.75,1.23-2.75,2.76c0,1.52,1.23,2.76,2.75,2.76c1.52,0,2.75-1.23,2.75-2.76C445.89,426.16,444.66,424.93,443.14,424.93z
	 M470.04,478.31c0-1.35-1.09-2.44-2.44-2.44c-1.35,0-2.44,1.09-2.44,2.44c0,1.35,1.09,2.44,2.44,2.44
	C468.95,480.75,470.04,479.66,470.04,478.31z M467.6,455.34c-1.49,0-2.69,1.21-2.69,2.69c0,1.49,1.2,2.69,2.69,2.69
	c1.49,0,2.69-1.21,2.69-2.69C470.3,456.55,469.09,455.34,467.6,455.34z M458.07,381.18c1.97,0,3.57-1.6,3.57-3.57
	c0-1.97-1.6-3.57-3.57-3.57c-1.97,0-3.57,1.6-3.57,3.57C454.5,379.58,456.1,381.18,458.07,381.18z M488.47,424.35
	c-1.83,0-3.32,1.49-3.32,3.32c0,1.83,1.48,3.32,3.32,3.32c1.83,0,3.32-1.49,3.32-3.32C491.79,425.84,490.31,424.35,488.47,424.35z
	 M468.9,498.56c0-1.25-1.01-2.26-2.25-2.26c-1.24,0-2.25,1.01-2.25,2.26c0,1.25,1.01,2.26,2.25,2.26
	C467.89,500.82,468.9,499.81,468.9,498.56z M474.03,352.23c2.35,0,4.26-1.91,4.26-4.26c0-2.35-1.91-4.26-4.26-4.26
	c-2.35,0-4.26,1.91-4.26,4.26C469.77,350.32,471.68,352.23,474.03,352.23z M458.07,560.37c0.9,0,1.63-0.73,1.63-1.63
	c0-0.9-0.73-1.63-1.63-1.63s-1.63,0.73-1.63,1.63C456.44,559.64,457.17,560.37,458.07,560.37z M465.25,397.52
	c0-1.87-1.51-3.38-3.38-3.38s-3.38,1.51-3.38,3.38c0,1.87,1.51,3.38,3.38,3.38S465.25,399.39,465.25,397.52z M466.74,518.75
	c0-1.11-0.9-2-2-2c-1.11,0-2,0.9-2,2c0,1.11,0.9,2,2,2C465.84,520.75,466.74,519.86,466.74,518.75z M461.88,540.64
	c1,0,1.81-0.81,1.81-1.82c0-1-0.81-1.82-1.81-1.82s-1.81,0.81-1.81,1.82C460.06,539.82,460.87,540.64,461.88,540.64z"/>
<path class="Colour3 fill" d="M39.41,275.7c-2.76,2.34-5.69,4.62-8.83,6.83L464.82,705.5H466L39.41,275.7z"/>
<path class="Colour3 fill" d="M56.77,257.81c-2.23,2.78-4.65,5.57-7.28,8.35L500,704.98c0-0.2,0-0.4,0-0.6L56.77,257.81z"/>
<path class="Colour3 fill" d="M18.56,290.07c-3.78,2.09-7.34,3.82-10.56,5.25L429.11,705.5h1.78L18.56,290.07z"/>
<polygon class="Colour3 fill" points="0,306.74 0,313.21 0,322.32 393.39,705.5 395.78,705.5 "/>
<polygon class="Colour3 fill" points="0,370.33 0,370.65 333.86,705.5 342.55,705.5 "/>
<path class="Colour3 fill" d="M70.93,236.7c-1.75,3.1-3.71,6.38-5.94,9.77L500,670.19c0-0.4,0-0.79,0-1.19L70.93,236.7z"/>
<path class="Colour3 fill" d="M82.52,213c-1.54,3.9-3.18,7.57-4.89,10.99L500,635.4c0-0.59,0-1.19,0-1.78L82.52,213z"/>
<polygon class="Colour3 fill" points="0,424.76 0,425.76 278.91,705.5 286.92,705.5 "/>
<polygon class="Colour3 fill" points="0,588.07 0,591.08 114.08,705.5 120.02,705.5 "/>
<polygon class="Colour3 fill" points="0,560.85 0,563.53 141.55,705.5 147.84,705.5 "/>
<polygon class="Colour3 fill" points="0,615.28 0,618.64 86.61,705.5 92.2,705.5 "/>
<polygon class="Colour3 fill" points="0,642.5 0,646.19 59.13,705.5 64.39,705.5 "/>
<polygon class="Colour3 fill" points="0,533.63 0,535.97 169.02,705.5 175.65,705.5 "/>
<polygon class="Colour3 fill" points="0,669.72 0,673.75 31.66,705.5 36.57,705.5 "/>
<polygon class="Colour3 fill" points="0,506.41 0,508.42 196.5,705.5 203.47,705.5 "/>
<polygon class="Colour3 fill" points="0,397.54 0,398.2 306.39,705.5 314.73,705.5 "/>
<polygon class="Colour3 fill" points="0,451.98 0,453.31 251.44,705.5 259.1,705.5 "/>
<polygon class="Colour3 fill" points="0,479.2 0,480.86 223.97,705.5 231.28,705.5 "/>
<g id="FBodyLogos"></g>
<path class="NeckAndArmTrim fill" d="M500,313.21c-14.19-4.41-26.2-10.21-36.41-16.69c-109.06-69.26-76.4-257.02-72.44-278.17L410,23.92
	c-5.06,27.42-33.95,196.19,63.99,261.38c7.63,5.08,16.25,9.68,26.01,13.53C500,303.62,500,308.42,500,313.21"/>
<path class="NeckAndArmTrim fill" d="M0,315.21v-7.91v-6.73c5.6-2.07,13.68-5.47,22.6-10.82c32.6-19.58,46.84-47.61,54.73-63.14
	c20.05-39.48,29.29-112.46,13.02-201.12l17.57-5.14c3.87,21.26,36.22,212.31-72.93,279.39C25.1,305.82,13.55,311.18,0,315.21"/>
<path class="NeckAndArmTrim fill" d="M170.65,1c-0.04,7.04,0.54,17.28,3.59,29.22c3.68,14.44,11.99,47.01,42.53,62.29
	c14.56,7.29,28.63,7.87,34.04,7.88c4.07,0.01,22.14-0.29,39.65-10.77c27.8-16.64,34.09-46.92,37.39-62.83
	c2.21-10.65,2.54-19.67,2.45-25.79l15.75,4.56c-1.66,45.92-22.85,84.2-53.05,99c-20.49,10.04-41.84,10.63-41.84,10.63
	s-19.7,1.23-37.94-6.46C176.39,93.21,154.24,53.1,154.75,5.56L170.65,1z"/>
<path class="NeckAndArmTrim fill" d="M330.78,0.5c-2.53,4.76-7.07,12.02-14.8,19.03c-22.51,20.41-52.68,21.1-65.53,21.39
	c-12.26,0.28-28.94,0.66-47.31-8.35c-20.27-9.94-30.4-25.31-34.28-32.07c-0.77,13.4,3.64,30.23,3.64,30.23
	c7.63,5.76,36.55,26.15,79.31,25.58c40.55-0.54,67.83-19.6,75.75-25.58C327.57,30.73,331.28,15.47,330.78,0.5z"/>
<path class="st0" d="M290.14,88.68c-17.76,10.84-36.08,11.15-40.21,11.15c-5.49-0.01-19.76-0.61-34.53-8.15
	c-30.97-15.82-39.4-49.51-43.13-64.45c7.63,5.76,36.55,26.15,79.31,25.58c40.55-0.54,67.83-19.6,75.75-25.58
	C323.75,44.32,316.43,72.63,290.14,88.68z"/>
</svg>
