<?xml version="1.0" encoding="utf-8"?>
<!-- Generator: Adobe Illustrator 19.1.0, SVG Export Plug-In . SVG Version: 6.00 Build 0)  -->
<svg version="1.1" id="Layer_1" xmlns="http://www.w3.org/2000/svg" xmlns:xlink="http://www.w3.org/1999/xlink" x="0px" y="0px"
	 viewBox="0 0 500 706" style="enable-background:new 0 0 500 706;" xml:space="preserve">
<style type="text/css">
	<![CDATA[
	@font-face{font-family:'codaheavy';src:url('/fonts/coda-heavy-webfont.woff') format('woff')}
	text{font-family:Impact,codaheavy,sans-serif}
	.Number.fill{fill:#000}
	.NumberOutline.stroke{fill:none;stroke:#777;stroke-width:2.5}
	.Colour1.fill{fill-rule:evenodd;clip-rule:evenodd;fill:#051838;}
	.Colour2.fill{fill:#EE3859;}
	.Colour3.fill{fill:#FFFFFF;}
	.NeckAndArmTrim.fill{fill:#EE3859;}
	]]>
</style>
<path class="Colour1 fill" d="M500,705.5H0c0-135.56,0-271.11,0-406.67c3.93-1.55,7.67-3.23,11.24-5c3.52-1.67,7.35-3.67,11.36-6.08
	c32.6-19.58,46.84-47.61,54.73-63.14c20.03-39.43,29.26-112.29,13.08-200.81c26.17-7.74,52.34-15.47,78.51-23.21
	c1.45,2.52,3.76,6.21,7.11,10.36c2.18,2.78,4.8,5.7,7.98,8.58c0.87,0.79,1.75,1.53,2.64,2.26c4.54,3.84,9.99,7.59,16.5,10.78
	c18.15,8.9,34.64,8.64,46.85,8.36c12.22,0.28,28.7,0.54,46.85-8.36c6.5-3.19,11.95-6.94,16.5-10.78c0.89-0.73,1.77-1.48,2.64-2.26
	c3.18-2.88,5.8-5.8,7.98-8.58c3.36-4.15,5.66-7.83,7.11-10.36c26.17,7.74,52.34,15.47,78.51,23.21
	c-16.18,88.52-6.95,161.37,13.08,200.81c7.89,15.53,22.12,43.56,54.73,63.14c4.01,2.41,7.84,4.4,11.36,6.08
	c3.57,1.78,7.31,3.45,11.24,5.01C500,434.39,500,569.94,500,705.5z"/>
<path class="Colour2 fill" d="M151.07,166.46c0-2.77,2.24-5.01,5.01-5.01c2.77,0,5.01,2.24,5.01,5.01c0,2.77-2.24,5.01-5.01,5.01
	C153.31,171.47,151.07,169.22,151.07,166.46z M113.65,151.5c3.32,0,6.01-2.69,6.01-6.01c0-3.32-2.69-6.01-6.01-6.01
	c-3.32,0-6.01,2.69-6.01,6.01C107.65,148.81,110.34,151.5,113.65,151.5z M127.74,136.94c3.32,0,6.01-2.69,6.01-6.01
	c0-3.32-2.69-6.01-6.01-6.01s-6.01,2.69-6.01,6.01C121.74,134.24,124.43,136.94,127.74,136.94z M126.61,170.9
	c0-3.01-2.44-5.45-5.44-5.45c-3.01,0-5.44,2.44-5.44,5.45c0,3.01,2.44,5.45,5.44,5.45C124.17,176.35,126.61,173.91,126.61,170.9z
	 M134.83,150.48c-3.01,0-5.44,2.44-5.44,5.45c0,3.01,2.44,5.45,5.44,5.45c3.01,0,5.44-2.44,5.44-5.45
	C140.27,152.92,137.83,150.48,134.83,150.48z M175.66,152.37c0-2.77-2.24-5.01-5.01-5.01c-2.76,0-5.01,2.24-5.01,5.01
	c0,2.77,2.24,5.01,5.01,5.01C173.42,157.39,175.66,155.14,175.66,152.37z M122.45,68.33c0,3.94,3.19,7.14,7.13,7.14
	c3.94,0,7.13-3.2,7.13-7.14c0-3.94-3.19-7.14-7.13-7.14C125.64,61.19,122.45,64.39,122.45,68.33z M163.28,196.1
	c2.49,0,4.51-2.02,4.51-4.51s-2.02-4.51-4.51-4.51c-2.49,0-4.51,2.02-4.51,4.51S160.79,196.1,163.28,196.1z M170.08,259.01
	c0-1.94-1.57-3.51-3.5-3.51c-1.94,0-3.5,1.57-3.5,3.51c0,1.94,1.57,3.51,3.5,3.51C168.51,262.51,170.08,260.94,170.08,259.01z
	 M174.82,217.02c0-2.21-1.79-4.01-4.01-4.01s-4.01,1.8-4.01,4.01c0,2.21,1.79,4.01,4.01,4.01S174.82,219.23,174.82,217.02z
	 M113.56,186.46c0-2.98-2.41-5.39-5.38-5.39c-2.97,0-5.38,2.41-5.38,5.39c0,2.98,2.41,5.39,5.38,5.39
	C111.15,191.85,113.56,189.44,113.56,186.46z M100.01,57.21c0,4.29,3.47,7.77,7.76,7.77c4.29,0,7.76-3.48,7.76-7.77
	c0-4.29-3.47-7.77-7.76-7.77C103.48,49.44,100.01,52.92,100.01,57.21z M135.93,85.98c-3.63,0-6.57,2.95-6.57,6.58
	c0,3.63,2.94,6.58,6.57,6.58c3.63,0,6.57-2.95,6.57-6.58C142.5,88.93,139.56,85.98,135.93,85.98z M177.43,181.58
	c2.49,0,4.51-2.02,4.51-4.51c0-2.49-2.02-4.51-4.51-4.51s-4.51,2.02-4.51,4.51C172.92,179.56,174.94,181.58,177.43,181.58z
	 M120.9,99.57c-3.63,0-6.57,2.94-6.57,6.58c0,3.63,2.94,6.58,6.57,6.58c3.63,0,6.57-2.94,6.57-6.58
	C127.47,102.51,124.53,99.57,120.9,99.57z M106.43,126.91c3.63,0,6.57-2.94,6.57-6.58c0-3.63-2.94-6.58-6.57-6.58
	c-3.63,0-6.57,2.94-6.57,6.58C99.86,123.97,102.8,126.91,106.43,126.91z M99.44,102.63c3.97,0,7.2-3.23,7.2-7.2
	c0-3.98-3.22-7.2-7.2-7.2c-0.47,0-0.92,0.07-1.37,0.17c0.25,4.8,0.42,9.53,0.52,14.18C98.87,102.6,99.16,102.63,99.44,102.63z
	 M97.7,139.14c0.88-1.11,1.42-2.5,1.42-4.04c0-1.24-0.36-2.39-0.96-3.38C98.03,134.23,97.88,136.7,97.7,139.14z M96.16,63.82
	c0.46,4.41,0.84,8.76,1.17,13.06c1.87-1.42,3.09-3.64,3.09-6.16C100.42,67.69,98.68,65.1,96.16,63.82z M114.25,74.44
	c-3.94,0-7.13,3.2-7.13,7.14c0,3.94,3.19,7.14,7.13,7.14c3.94,0,7.13-3.2,7.13-7.14C121.38,77.64,118.19,74.44,114.25,74.44z
	 M79.34,325.4c-2.04,0-3.69,1.65-3.69,3.7c0,2.04,1.65,3.7,3.69,3.7c2.04,0,3.69-1.65,3.69-3.7
	C83.03,327.05,81.38,325.4,79.34,325.4z M78.61,435.34c-1.35,0-2.44,1.09-2.44,2.44c0,1.35,1.09,2.44,2.44,2.44
	c1.35,0,2.44-1.09,2.44-2.44C81.05,436.44,79.96,435.34,78.61,435.34z M70.23,281.93c0,2.49,2.02,4.51,4.51,4.51
	c2.49,0,4.51-2.02,4.51-4.51c0-2.49-2.02-4.51-4.51-4.51C72.25,277.42,70.23,279.44,70.23,281.93z M79.33,263.88
	c0,2.56,2.07,4.64,4.63,4.64c2.56,0,4.63-2.08,4.63-4.64c0-2.56-2.07-4.64-4.63-4.64C81.4,259.24,79.33,261.32,79.33,263.88z
	 M58.91,315.05c-2.32,0-4.19,1.88-4.19,4.2s1.88,4.2,4.19,4.2s4.19-1.88,4.19-4.2S61.23,315.05,58.91,315.05z M223.94,223.24
	c0,1.76,1.43,3.19,3.19,3.19s3.19-1.43,3.19-3.19c0-1.76-1.43-3.19-3.19-3.19S223.94,221.47,223.94,223.24z M62.07,300.41
	c0,2.39,1.93,4.32,4.32,4.32s4.32-1.94,4.32-4.32c0-2.39-1.93-4.32-4.32-4.32S62.07,298.02,62.07,300.41z M86.74,306.33
	c-2.14,0-3.88,1.74-3.88,3.88c0,2.14,1.74,3.88,3.88,3.88c2.14,0,3.88-1.74,3.88-3.88C90.62,308.07,88.88,306.33,86.74,306.33z
	 M59.35,272.13c0-2.73-2.21-4.95-4.94-4.95c-2.73,0-4.94,2.22-4.94,4.95c0,2.73,2.21,4.95,4.94,4.95
	C57.14,277.08,59.35,274.87,59.35,272.13z M90.59,202.6c0,2.94,2.38,5.32,5.32,5.32c2.94,0,5.32-2.38,5.32-5.32
	c0-2.94-2.38-5.32-5.32-5.32C92.97,197.27,90.59,199.65,90.59,202.6z M205.74,216.15c1.97,0,3.57-1.6,3.57-3.57
	c0-1.97-1.6-3.57-3.57-3.57s-3.57,1.6-3.57,3.57C202.17,214.55,203.77,216.15,205.74,216.15z M205.1,279c0,1.52,1.23,2.76,2.75,2.76
	c1.52,0,2.75-1.23,2.75-2.76c0-1.52-1.23-2.76-2.75-2.76C206.34,276.25,205.1,277.48,205.1,279z M202.95,187.79
	c0-2.25-1.82-4.07-4.07-4.07c-2.25,0-4.07,1.82-4.07,4.07c0,2.25,1.82,4.07,4.07,4.07C201.13,191.87,202.95,190.04,202.95,187.79z
	 M184.07,268.99c0,1.73,1.4,3.13,3.13,3.13c1.73,0,3.13-1.4,3.13-3.13c0-1.73-1.4-3.13-3.13-3.13
	C185.47,265.86,184.07,267.26,184.07,268.99z M184.46,206.11c2.25,0,4.07-1.82,4.07-4.07c0-2.25-1.82-4.07-4.07-4.07
	c-2.25,0-4.07,1.82-4.07,4.07C180.39,204.29,182.22,206.11,184.46,206.11z M95.07,287.66c-2.25,0-4.07,1.82-4.07,4.07
	c0,2.25,1.82,4.07,4.07,4.07c2.25,0,4.07-1.82,4.07-4.07C99.14,289.49,97.32,287.66,95.07,287.66z M89.32,246.28
	c0,2.59,2.1,4.7,4.69,4.7c2.59,0,4.69-2.1,4.69-4.7c0-2.59-2.1-4.7-4.69-4.7C91.42,241.58,89.32,243.69,89.32,246.28z
	 M192.27,167.79c2.49,0,4.51-2.02,4.51-4.51s-2.02-4.51-4.51-4.51c-2.49,0-4.51,2.02-4.51,4.51S189.79,167.79,192.27,167.79z
	 M224.02,198.65c0-1.97-1.6-3.57-3.57-3.57c-1.97,0-3.57,1.6-3.57,3.57c0,1.97,1.6,3.57,3.57,3.57
	C222.43,202.22,224.02,200.62,224.02,198.65z M164.1,122.47c-3.01,0-5.44,2.44-5.44,5.45c0,3.01,2.44,5.45,5.44,5.45
	c3.01,0,5.44-2.44,5.44-5.45C169.54,124.91,167.11,122.47,164.1,122.47z M167.68,91.02c0,3.25,2.63,5.89,5.88,5.89
	s5.88-2.64,5.88-5.89s-2.63-5.89-5.88-5.89S167.68,87.77,167.68,91.02z M157.73,97.71c-3.28,0-5.95,2.66-5.95,5.95
	c0,3.29,2.66,5.95,5.95,5.95c3.28,0,5.95-2.66,5.95-5.95C163.67,100.38,161.01,97.71,157.73,97.71z M185.88,134.05
	c-2.73,0-4.94,2.22-4.94,4.95c0,2.73,2.21,4.95,4.94,4.95c2.73,0,4.94-2.22,4.94-4.95C190.82,136.26,188.61,134.05,185.88,134.05z
	 M179.65,109.53c-2.97,0-5.38,2.41-5.38,5.39c0,2.98,2.41,5.39,5.38,5.39c2.97,0,5.38-2.41,5.38-5.39
	C185.03,111.95,182.62,109.53,179.65,109.53z M141.71,8.63c-4.95,1.46-9.9,2.93-14.85,4.39c1.48,2.1,3.92,3.48,6.68,3.48
	C137.96,16.5,141.53,13,141.71,8.63z M139.43,24.28c-4.22,0-7.63,3.42-7.63,7.64c0,4.22,3.42,7.64,7.63,7.64
	c4.22,0,7.63-3.42,7.63-7.64C147.07,27.71,143.65,24.28,139.43,24.28z M145.42,48.61c-3.91,0-7.07,3.17-7.07,7.08
	c0,3.91,3.17,7.08,7.07,7.08c3.91,0,7.07-3.17,7.07-7.08C152.49,51.78,149.32,48.61,145.42,48.61z M151.51,73.08
	c-3.59,0-6.51,2.92-6.51,6.52c0,3.6,2.91,6.52,6.51,6.52s6.51-2.92,6.51-6.52C158.01,76,155.1,73.08,151.51,73.08z M203.97,388.27
	c0-0.93-0.76-1.69-1.69-1.69s-1.69,0.76-1.69,1.69c0,0.93,0.76,1.69,1.69,1.69S203.97,389.2,203.97,388.27z M199.59,256.08
	c1.73,0,3.13-1.4,3.13-3.13c0-1.73-1.4-3.13-3.13-3.13c-1.73,0-3.13,1.4-3.13,3.13C196.46,254.68,197.86,256.08,199.59,256.08z
	 M212.91,240.88c1.76,0,3.19-1.43,3.19-3.19s-1.43-3.19-3.19-3.19c-1.76,0-3.19,1.43-3.19,3.19S211.15,240.88,212.91,240.88z
	 M210.79,369.13c0-1-0.81-1.82-1.81-1.82c-1,0-1.81,0.81-1.81,1.82c0,1,0.81,1.82,1.81,1.82
	C209.97,370.95,210.79,370.13,210.79,369.13z M123.36,36.57c-4.25,0-7.7,3.45-7.7,7.71s3.45,7.71,7.7,7.71c4.25,0,7.7-3.45,7.7-7.71
	S127.62,36.57,123.36,36.57z M190.44,102.64c0,2.94,2.38,5.32,5.32,5.32c2.94,0,5.32-2.38,5.32-5.32c0-2.94-2.38-5.32-5.32-5.32
	C192.83,97.31,190.44,99.7,190.44,102.64z M223.24,263.15c0-1.52-1.23-2.76-2.75-2.76c-1.52,0-2.75,1.23-2.75,2.76
	c0,1.52,1.23,2.76,2.75,2.76C222.01,265.91,223.24,264.67,223.24,263.15z M207.79,145.8c-2.45,0-4.44,1.99-4.44,4.45
	c0,2.46,1.99,4.45,4.44,4.45c2.45,0,4.44-1.99,4.44-4.45C212.23,147.79,210.24,145.8,207.79,145.8z M201.71,121.47
	c-2.7,0-4.88,2.19-4.88,4.89c0,2.7,2.19,4.89,4.88,4.89c2.7,0,4.88-2.19,4.88-4.89C206.59,123.66,204.41,121.47,201.71,121.47z
	 M214.03,170.32c-2.21,0-4.01,1.8-4.01,4.01c0,2.21,1.79,4.01,4.01,4.01c2.21,0,4.01-1.8,4.01-4.01
	C218.03,172.12,216.24,170.32,214.03,170.32z M141.7,222.64c0-2.46-1.99-4.45-4.44-4.45s-4.44,1.99-4.44,4.45
	c0,2.46,1.99,4.45,4.44,4.45S141.7,225.1,141.7,222.64z M133.95,196.6c0-2.73-2.21-4.95-4.94-4.95c-2.73,0-4.94,2.22-4.94,4.95
	c0,2.73,2.21,4.95,4.94,4.95C131.74,201.55,133.95,199.34,133.95,196.6z M142.44,110.96c-3.32,0-6.01,2.69-6.01,6.01
	s2.69,6.01,6.01,6.01s6.01-2.69,6.01-6.01S145.76,110.96,142.44,110.96z M142.19,186.16c2.73,0,4.94-2.22,4.94-4.95
	c0-2.73-2.21-4.95-4.94-4.95c-2.73,0-4.94,2.22-4.94,4.95C137.24,183.94,139.46,186.16,142.19,186.16z M125.43,234.72
	c-2.42,0-4.38,1.96-4.38,4.39s1.96,4.39,4.38,4.39c2.42,0,4.38-1.96,4.38-4.39S127.85,234.72,125.43,234.72z M154.39,206.79
	c0-2.49-2.02-4.51-4.51-4.51s-4.51,2.02-4.51,4.51s2.02,4.51,4.51,4.51S154.39,209.28,154.39,206.79z M149.15,136.15
	c-3.01,0-5.44,2.44-5.44,5.45c0,3.01,2.44,5.45,5.44,5.45c3.01,0,5.44-2.44,5.44-5.45C154.59,138.59,152.16,136.15,149.15,136.15z
	 M109.26,18.23c-0.18,0.68-0.31,1.39-0.31,2.13c0,4.6,3.73,8.33,8.32,8.33c4.6,0,8.32-3.73,8.32-8.33c0-2.45-1.07-4.62-2.75-6.15
	C118.31,15.55,113.78,16.89,109.26,18.23z M150.59,339.66c0-1.52-1.23-2.76-2.75-2.76c-1.52,0-2.75,1.23-2.75,2.76
	c0,1.52,1.23,2.76,2.75,2.76C149.35,342.42,150.59,341.19,150.59,339.66z M145.99,252.99c2.18,0,3.94-1.77,3.94-3.95
	c0-2.18-1.77-3.95-3.94-3.95c-2.18,0-3.94,1.77-3.94,3.95C142.05,251.22,143.81,252.99,145.99,252.99z M130.53,329.85
	c0-1.7-1.37-3.07-3.07-3.07c-1.69,0-3.07,1.37-3.07,3.07s1.37,3.07,3.07,3.07C129.16,332.92,130.53,331.54,130.53,329.85z
	 M100.07,229.18c0,2.66,2.16,4.82,4.82,4.82c2.66,0,4.82-2.16,4.82-4.82c0-2.66-2.16-4.82-4.82-4.82
	C102.23,224.35,100.07,226.51,100.07,229.18z M95.06,163.55c1.01,1.81,2.92,3.04,5.13,3.04c3.28,0,5.95-2.66,5.95-5.95
	c0-3.29-2.66-5.95-5.95-5.95c-1.63,0-3.1,0.67-4.17,1.74C95.73,158.84,95.41,161.21,95.06,163.55z M124.67,287.21
	c2.04,0,3.69-1.65,3.69-3.7c0-2.04-1.65-3.7-3.69-3.7c-2.04,0-3.69,1.65-3.69,3.7C120.98,285.55,122.63,287.21,124.67,287.21z
	 M93.05,33c0,4.64,3.75,8.39,8.39,8.39c4.63,0,8.39-3.76,8.39-8.39c0-4.64-3.75-8.39-8.39-8.39C96.8,24.61,93.05,28.36,93.05,33z
	 M94.51,46.2c0-1.49-0.41-2.86-1.08-4.07c0.29,1.97,0.58,3.95,0.85,5.9C94.41,47.44,94.51,46.84,94.51,46.2z M118.7,256.13
	c0-2.35-1.91-4.26-4.26-4.26c-2.35,0-4.26,1.91-4.26,4.26c0,2.35,1.91,4.26,4.26,4.26C116.79,260.39,118.7,258.49,118.7,256.13z
	 M121.45,212.6c0-2.7-2.19-4.89-4.88-4.89c-2.7,0-4.88,2.19-4.88,4.89c0,2.7,2.19,4.89,4.88,4.89
	C119.26,217.49,121.45,215.3,121.45,212.6z M110.54,320.03c0-1.9-1.54-3.45-3.44-3.45c-1.9,0-3.44,1.54-3.44,3.45
	c0,1.9,1.54,3.45,3.44,3.45C109,323.48,110.54,321.93,110.54,320.03z M104.31,277.89c2.32,0,4.19-1.88,4.19-4.2
	c0-2.32-1.88-4.2-4.19-4.2c-2.32,0-4.19,1.88-4.19,4.2C100.12,276.01,102,277.89,104.31,277.89z M206.15,325.05
	c1.24,0,2.25-1.01,2.25-2.26c0-1.25-1.01-2.26-2.25-2.26c-1.24,0-2.25,1.01-2.25,2.26C203.9,324.04,204.9,325.05,206.15,325.05z
	 M217.07,348.67c-1.04,0-1.88,0.84-1.88,1.88c0,1.04,0.84,1.88,1.88,1.88c1.04,0,1.88-0.84,1.88-1.88
	C218.95,349.51,218.11,348.67,217.07,348.67z M196.27,298.33c1.49,0,2.69-1.21,2.69-2.69c0-1.49-1.2-2.69-2.69-2.69
	s-2.69,1.21-2.69,2.69C193.58,297.12,194.78,298.33,196.27,298.33z M216.78,307.85c1.28,0,2.32-1.04,2.32-2.32
	c0-1.28-1.04-2.32-2.32-2.32c-1.28,0-2.32,1.04-2.32,2.32C214.46,306.82,215.5,307.85,216.78,307.85z M155.45,385.82
	c-1.18,0-2.13,0.95-2.13,2.13c0,1.18,0.95,2.13,2.13,2.13c1.18,0,2.13-0.95,2.13-2.13C157.58,386.77,156.62,385.82,155.45,385.82z
	 M174.39,397.89c0,1,0.81,1.82,1.81,1.82c1,0,1.81-0.81,1.81-1.82c0-1-0.81-1.82-1.81-1.82
	C175.21,396.07,174.39,396.88,174.39,397.89z M226.53,334.57c1.07,0,1.94-0.87,1.94-1.94c0-1.07-0.87-1.94-1.94-1.94
	c-1.07,0-1.94,0.87-1.94,1.94C224.59,333.7,225.46,334.57,226.53,334.57z M173.9,330.94c0,1.38,1.12,2.51,2.5,2.51
	c1.38,0,2.5-1.12,2.5-2.51c0-1.38-1.12-2.51-2.5-2.51C175.02,328.44,173.9,329.56,173.9,330.94z M197.04,406.28
	c-0.86,0-1.56,0.7-1.56,1.57c0,0.87,0.7,1.57,1.56,1.57s1.56-0.7,1.56-1.57C198.6,406.98,197.9,406.28,197.04,406.28z
	 M196.74,342.94c1.21,0,2.19-0.98,2.19-2.19c0-1.21-0.98-2.19-2.19-2.19c-1.21,0-2.19,0.98-2.19,2.19
	C194.55,341.96,195.53,342.94,196.74,342.94z M235.3,315.46c0,1.11,0.9,2,2,2c1.11,0,2-0.9,2-2c0-1.11-0.9-2-2-2
	C236.2,313.45,235.3,314.35,235.3,315.46z M307.59,142.51c0-1.76-1.43-3.19-3.19-3.19c-1.76,0-3.19,1.43-3.19,3.19
	c0,1.76,1.43,3.19,3.19,3.19C306.16,145.7,307.59,144.27,307.59,142.51z M310.51,244.18c0-1.11-0.9-2-2-2c-1.11,0-2,0.9-2,2
	c0,1.11,0.9,2,2,2C309.61,246.19,310.51,245.29,310.51,244.18z M312.52,165.1c0-1.59-1.29-2.88-2.88-2.88s-2.88,1.29-2.88,2.88
	s1.29,2.88,2.88,2.88S312.52,166.69,312.52,165.1z M306.61,304.88c0-0.83-0.67-1.5-1.5-1.5s-1.5,0.67-1.5,1.5
	c0,0.83,0.67,1.5,1.5,1.5S306.61,305.71,306.61,304.88z M312.36,187.76c0,1.42,1.15,2.57,2.57,2.57s2.57-1.15,2.57-2.57
	c0-1.42-1.15-2.57-2.57-2.57S312.36,186.34,312.36,187.76z M288.8,174.7c0,1.66,1.34,3.01,3,3.01c1.66,0,3-1.35,3-3.01
	s-1.35-3.01-3-3.01C290.15,171.7,288.8,173.04,288.8,174.7z M292.21,258.29c1.14,0,2.07-0.93,2.07-2.07c0-1.14-0.92-2.07-2.07-2.07
	c-1.14,0-2.06,0.93-2.06,2.07C290.15,257.36,291.07,258.29,292.21,258.29z M292.61,319.54c0-0.83-0.67-1.5-1.5-1.5
	s-1.5,0.67-1.5,1.5s0.67,1.5,1.5,1.5S292.61,320.37,292.61,319.54z M314.33,265.97c-0.97,0-1.75,0.79-1.75,1.75
	c0,0.97,0.78,1.75,1.75,1.75c0.97,0,1.75-0.79,1.75-1.75C316.08,266.76,315.3,265.97,314.33,265.97z M10.23,407.52
	c0,1.97,1.6,3.57,3.57,3.57c1.97,0,3.57-1.6,3.57-3.57c0-1.97-1.6-3.57-3.57-3.57C11.82,403.95,10.23,405.55,10.23,407.52z
	 M8.21,427.67c0,1.83,1.48,3.32,3.32,3.32c1.83,0,3.32-1.49,3.32-3.32c0-1.83-1.48-3.32-3.32-3.32
	C9.69,424.35,8.21,425.84,8.21,427.67z M16.96,391.25c2.07,0,3.76-1.68,3.76-3.76c0-2.08-1.68-3.76-3.76-3.76
	c-2.07,0-3.75,1.68-3.75,3.76C13.21,389.57,14.89,391.25,16.96,391.25z M10.16,444.83c-1.69,0-3.07,1.37-3.07,3.07
	c0,1.7,1.37,3.07,3.07,3.07c1.69,0,3.07-1.37,3.07-3.07C13.23,446.21,11.86,444.83,10.16,444.83z M302.84,223.18
	c1.28,0,2.32-1.04,2.32-2.32c0-1.28-1.04-2.32-2.32-2.32s-2.32,1.04-2.32,2.32C300.52,222.14,301.56,223.18,302.84,223.18z
	 M21.03,371.64c2.21,0,4-1.8,4-4.01c0-2.21-1.79-4.01-4-4.01c-2.21,0-4.01,1.8-4.01,4.01C17.02,369.85,18.81,371.64,21.03,371.64z
	 M403.63,22.04c-2.23-0.66-4.45-1.32-6.68-1.97c-0.01,0.12-0.04,0.25-0.04,0.38c0,1.97,1.6,3.57,3.57,3.57
	C401.86,24.01,403.04,23.19,403.63,22.04z M201.22,38.4c-3.46,0-6.26,2.8-6.26,6.26c0,3.46,2.8,6.26,6.26,6.26
	c3.46,0,6.26-2.8,6.26-6.26C207.47,41.21,204.67,38.4,201.22,38.4z M22.71,568.71c0-0.93-0.76-1.69-1.69-1.69
	c-0.93,0-1.69,0.76-1.69,1.69c0,0.93,0.76,1.69,1.69,1.69C21.96,570.4,22.71,569.65,22.71,568.71z M153.19,321.14
	c0,1.59,1.29,2.88,2.88,2.88c1.59,0,2.88-1.29,2.88-2.88s-1.29-2.88-2.88-2.88C154.48,318.26,153.19,319.55,153.19,321.14z
	 M18.84,548.85c0-1.04-0.84-1.88-1.88-1.88c-1.04,0-1.88,0.84-1.88,1.88c0,1.04,0.84,1.88,1.88,1.88
	C18,550.73,18.84,549.89,18.84,548.85z M6.4,318.68c0,2.7,2.19,4.89,4.88,4.89s4.88-2.19,4.88-4.89c0-2.7-2.19-4.89-4.88-4.89
	S6.4,315.98,6.4,318.68z M5.31,342.75c2.59,0,4.69-2.1,4.69-4.7c0-2.59-2.1-4.7-4.69-4.7s-4.69,2.1-4.69,4.7
	C0.62,340.65,2.72,342.75,5.31,342.75z M13.01,299.58c0,2.8,2.27,5.07,5.07,5.07s5.07-2.27,5.07-5.07c0-2.8-2.27-5.07-5.07-5.07
	S13.01,296.77,13.01,299.58z M25.97,343.71c-2.35,0-4.26,1.91-4.26,4.26c0,2.35,1.91,4.26,4.26,4.26c2.35,0,4.26-1.91,4.26-4.26
	C30.23,345.62,28.32,343.71,25.97,343.71z M6.89,468.17c0,1.56,1.26,2.82,2.82,2.82c1.56,0,2.82-1.26,2.82-2.82
	s-1.26-2.82-2.82-2.82C8.15,465.35,6.89,466.61,6.89,468.17z M11.53,511.05c1.31,0,2.38-1.07,2.38-2.38c0-1.31-1.06-2.38-2.38-2.38
	c-1.31,0-2.38,1.07-2.38,2.38C9.15,509.99,10.21,511.05,11.53,511.05z M10.16,491.07c1.45,0,2.63-1.18,2.63-2.63
	c0-1.45-1.18-2.63-2.63-2.63c-1.45,0-2.63,1.18-2.63,2.63C7.53,489.9,8.71,491.07,10.16,491.07z M13.79,530.95
	c1.17,0,2.13-0.95,2.13-2.13c0-1.18-0.95-2.13-2.13-2.13c-1.18,0-2.13,0.95-2.13,2.13C11.67,530,12.62,530.95,13.79,530.95z
	 M235.77,360.35c0,0.9,0.73,1.63,1.63,1.63c0.9,0,1.63-0.73,1.63-1.63c0-0.9-0.73-1.63-1.63-1.63
	C236.5,358.72,235.77,359.45,235.77,360.35z M223.94,133.62c-2.42,0-4.38,1.96-4.38,4.39c0,2.42,1.96,4.39,4.38,4.39
	c2.42,0,4.38-1.96,4.38-4.39C228.32,135.58,226.35,133.62,223.94,133.62z M235.93,182c-1.97,0-3.57,1.6-3.57,3.57
	c0,1.97,1.6,3.57,3.57,3.57c1.97,0,3.57-1.6,3.57-3.57C239.5,183.6,237.9,182,235.93,182z M235.08,98.63
	c-2.63,0-4.76,2.13-4.76,4.76s2.13,4.76,4.76,4.76c2.63,0,4.76-2.13,4.76-4.76S237.71,98.63,235.08,98.63z M240.67,122.26
	c-2.38,0-4.32,1.94-4.32,4.32s1.93,4.32,4.32,4.32c2.38,0,4.32-1.94,4.32-4.32S243.06,122.26,240.67,122.26z M252.11,176.89
	c1.94,0,3.5-1.57,3.5-3.51c0-1.94-1.57-3.51-3.5-3.51c-1.94,0-3.5,1.57-3.5,3.51C248.61,175.32,250.18,176.89,252.11,176.89z
	 M259.63,325.41c0-0.97-0.78-1.75-1.75-1.75c-0.97,0-1.75,0.79-1.75,1.75c0,0.97,0.78,1.75,1.75,1.75
	C258.84,327.16,259.63,326.37,259.63,325.41z M255.41,261.16c1.35,0,2.44-1.09,2.44-2.44c0-1.35-1.09-2.44-2.44-2.44
	c-1.35,0-2.44,1.09-2.44,2.44C252.97,260.07,254.06,261.16,255.41,261.16z M246.34,146.02c-2.14,0-3.88,1.74-3.88,3.88
	c0,2.15,1.74,3.88,3.88,3.88c2.14,0,3.88-1.74,3.88-3.88C250.22,147.76,248.48,146.02,246.34,146.02z M224.37,80.3
	c0,2.87,2.33,5.2,5.19,5.2c2.87,0,5.19-2.33,5.19-5.2c0-2.87-2.33-5.2-5.19-5.2C226.69,75.1,224.37,77.43,224.37,80.3z
	 M234.1,250.96c1.56,0,2.82-1.26,2.82-2.82c0-1.56-1.26-2.82-2.82-2.82c-1.56,0-2.82,1.26-2.82,2.82
	C231.29,249.7,232.55,250.96,234.1,250.96z M299.18,123.56c1.97,0,3.57-1.6,3.57-3.57c0-1.97-1.6-3.57-3.57-3.57
	c-1.97,0-3.57,1.6-3.57,3.57C295.61,121.96,297.21,123.56,299.18,123.56z M229.86,165.64c2.18,0,3.94-1.77,3.94-3.95
	c0-2.18-1.77-3.95-3.94-3.95c-2.18,0-3.94,1.77-3.94,3.95C225.92,163.87,227.68,165.64,229.86,165.64z M230.93,378.96
	c0-0.86-0.7-1.57-1.56-1.57c-0.86,0-1.56,0.7-1.56,1.57s0.7,1.57,1.56,1.57C230.23,380.52,230.93,379.82,230.93,378.96z
	 M251.47,234.04c0-1.56-1.26-2.82-2.82-2.82c-1.56,0-2.82,1.26-2.82,2.82c0,1.56,1.26,2.82,2.82,2.82
	C250.21,236.86,251.47,235.6,251.47,234.04z M230.94,289.05c0-1.31-1.06-2.38-2.38-2.38c-1.31,0-2.38,1.07-2.38,2.38
	c0,1.31,1.06,2.38,2.38,2.38C229.88,291.43,230.94,290.37,230.94,289.05z M248.61,342.46c0-0.93-0.76-1.69-1.69-1.69
	c-0.93,0-1.69,0.76-1.69,1.69c0,0.93,0.76,1.69,1.69,1.69C247.86,344.15,248.61,343.39,248.61,342.46z M251.4,299.15
	c0-1.14-0.92-2.07-2.06-2.07c-1.14,0-2.07,0.93-2.07,2.07c0,1.14,0.92,2.07,2.07,2.07C250.47,301.21,251.4,300.29,251.4,299.15z
	 M245.31,209.67c0-1.73-1.4-3.13-3.13-3.13c-1.73,0-3.13,1.4-3.13,3.13c0,1.73,1.4,3.13,3.13,3.13
	C243.91,212.8,245.31,211.4,245.31,209.67z M243.91,273.42c0-1.35-1.09-2.44-2.44-2.44c-1.35,0-2.44,1.09-2.44,2.44
	c0,1.35,1.09,2.44,2.44,2.44C242.81,275.86,243.91,274.77,243.91,273.42z M261.14,197.03c0-1.73-1.4-3.13-3.13-3.13
	s-3.13,1.4-3.13,3.13c0,1.73,1.4,3.13,3.13,3.13S261.14,198.76,261.14,197.03z M288.55,232.38c0-1.31-1.06-2.38-2.38-2.38
	c-1.31,0-2.38,1.07-2.38,2.38c0,1.31,1.06,2.38,2.38,2.38C287.48,234.76,288.55,233.69,288.55,232.38z M280.3,211.46
	c1.49,0,2.69-1.21,2.69-2.69c0-1.49-1.2-2.69-2.69-2.69c-1.49,0-2.69,1.21-2.69,2.69C277.61,210.26,278.82,211.46,280.3,211.46z
	 M276.86,271.51c1.14,0,2.06-0.93,2.06-2.07c0-1.14-0.92-2.07-2.06-2.07c-1.14,0-2.07,0.93-2.07,2.07
	C274.8,270.59,275.72,271.51,276.86,271.51z M279.99,335.38c0-0.83-0.67-1.5-1.5-1.5c-0.83,0-1.5,0.67-1.5,1.5s0.67,1.5,1.5,1.5
	C279.32,336.89,279.99,336.21,279.99,335.38z M285.56,294.25c0-1-0.81-1.82-1.81-1.82c-1,0-1.81,0.81-1.81,1.82
	c0,1,0.81,1.82,1.81,1.82C284.75,296.07,285.56,295.26,285.56,294.25z M297.28,200.34c1.45,0,2.63-1.18,2.63-2.63
	c0-1.45-1.18-2.63-2.63-2.63c-1.45,0-2.63,1.18-2.63,2.63C294.65,199.16,295.83,200.34,297.28,200.34z M298.5,278.61
	c-0.97,0-1.75,0.79-1.75,1.75c0,0.97,0.78,1.75,1.75,1.75s1.75-0.79,1.75-1.75C300.25,279.4,299.46,278.61,298.5,278.61z
	 M284.74,129.02c0-2.04-1.65-3.7-3.69-3.7c-2.04,0-3.69,1.65-3.69,3.7c0,2.04,1.65,3.7,3.69,3.7
	C283.09,132.72,284.74,131.06,284.74,129.02z M289.72,151.81c0-1.83-1.48-3.32-3.32-3.32c-1.83,0-3.32,1.49-3.32,3.32
	c0,1.83,1.49,3.32,3.32,3.32C288.23,155.13,289.72,153.65,289.72,151.81z M268.77,352.3c0-0.8-0.64-1.44-1.44-1.44
	c-0.79,0-1.44,0.65-1.44,1.44c0,0.8,0.64,1.44,1.44,1.44C268.13,353.74,268.77,353.1,268.77,352.3z M274.58,188.43
	c1.69,0,3.07-1.37,3.07-3.07s-1.37-3.07-3.07-3.07c-1.69,0-3.07,1.37-3.07,3.07S272.88,188.43,274.58,188.43z M271.93,309.3
	c0-0.97-0.78-1.75-1.75-1.75c-0.97,0-1.75,0.79-1.75,1.75c0,0.97,0.78,1.75,1.75,1.75C271.14,311.06,271.93,310.27,271.93,309.3z
	 M264.07,223.65c1.52,0,2.75-1.23,2.75-2.76c0-1.52-1.23-2.76-2.75-2.76c-1.52,0-2.75,1.23-2.75,2.76
	C261.32,222.42,262.55,223.65,264.07,223.65z M272.78,245.02c0-1.35-1.09-2.44-2.44-2.44c-1.35,0-2.44,1.09-2.44,2.44
	c0,1.35,1.09,2.44,2.44,2.44C271.68,247.46,272.78,246.37,272.78,245.02z M264.61,283.78c0-1.14-0.92-2.07-2.06-2.07
	c-1.14,0-2.07,0.93-2.07,2.07c0,1.14,0.92,2.07,2.07,2.07C263.68,285.85,264.61,284.92,264.61,283.78z M263.42,135.18
	c-2.11,0-3.82,1.71-3.82,3.82c0,2.11,1.71,3.82,3.82,3.82c2.11,0,3.82-1.71,3.82-3.82C267.24,136.89,265.53,135.18,263.42,135.18z
	 M268.95,158.67c-1.9,0-3.44,1.54-3.44,3.45c0,1.9,1.54,3.45,3.44,3.45c1.9,0,3.44-1.54,3.44-3.45
	C272.4,160.21,270.86,158.67,268.95,158.67z M257.95,120.21c2.32,0,4.19-1.88,4.19-4.2c0-2.32-1.88-4.2-4.19-4.2
	c-2.32,0-4.19,1.88-4.19,4.2C253.76,118.33,255.64,120.21,257.95,120.21z M161.73,36.66c-3.87,0-7.01,3.14-7.01,7.02
	c0,3.87,3.14,7.02,7.01,7.02c3.87,0,7.01-3.14,7.01-7.02C168.74,39.8,165.6,36.66,161.73,36.66z M320.36,290.04
	c-0.83,0-1.5,0.67-1.5,1.5s0.67,1.5,1.5,1.5s1.5-0.67,1.5-1.5S321.18,290.04,320.36,290.04z M381.24,207.43
	c-0.93,0-1.69,0.76-1.69,1.69c0,0.93,0.76,1.69,1.69,1.69c0.93,0,1.69-0.76,1.69-1.69C382.93,208.19,382.17,207.43,381.24,207.43z
	 M163.46,20.19c0-4.15-3.36-7.52-7.51-7.52c-4.15,0-7.51,3.37-7.51,7.52s3.36,7.52,7.51,7.52C160.1,27.71,163.46,24.35,163.46,20.19
	z M375.69,96.69c1.62,0,2.94-1.32,2.94-2.94c0-1.63-1.32-2.94-2.94-2.94c-1.62,0-2.94,1.32-2.94,2.94
	C372.75,95.38,374.07,96.69,375.69,96.69z M386.28,229.77c-0.8,0-1.44,0.65-1.44,1.44c0,0.8,0.64,1.44,1.44,1.44
	c0.79,0,1.44-0.65,1.44-1.44C387.72,230.42,387.07,229.77,386.28,229.77z M312.65,85.82c-2.11,0-3.82,1.71-3.82,3.82
	c0,2.11,1.71,3.82,3.82,3.82c2.11,0,3.82-1.71,3.82-3.82C316.47,87.53,314.76,85.82,312.65,85.82z M307.56,63.19
	c-2.32,0-4.19,1.88-4.19,4.2c0,2.32,1.88,4.2,4.19,4.2c2.32,0,4.19-1.88,4.19-4.2C311.75,65.07,309.87,63.19,307.56,63.19z
	 M317.76,108.47c-1.9,0-3.44,1.54-3.44,3.45c0,1.9,1.54,3.45,3.44,3.45c1.9,0,3.44-1.54,3.44-3.45
	C321.2,110.01,319.66,108.47,317.76,108.47z M320.26,212.78c1.24,0,2.25-1.01,2.25-2.26c0-1.25-1.01-2.26-2.25-2.26
	c-1.24,0-2.25,1.01-2.25,2.26C318.01,211.77,319.01,212.78,320.26,212.78z M297.84,45.16c0,2.56,2.07,4.64,4.63,4.64
	c2.56,0,4.63-2.08,4.63-4.64c0-2.56-2.07-4.64-4.63-4.64C299.91,40.52,297.84,42.6,297.84,45.16z M385.5,49.1
	c1.9,0,3.44-1.54,3.44-3.45c0-1.9-1.54-3.45-3.44-3.45c-1.9,0-3.44,1.54-3.44,3.45C382.05,47.56,383.6,49.1,385.5,49.1z
	 M380.47,27.37c2.07,0,3.75-1.68,3.75-3.76c0-2.08-1.68-3.76-3.75-3.76c-2.07,0-3.75,1.68-3.75,3.76
	C376.72,25.68,378.4,27.37,380.47,27.37z M395.55,92.52c1.52,0,2.75-1.23,2.75-2.76c0-1.52-1.23-2.76-2.75-2.76
	c-1.52,0-2.75,1.23-2.75,2.76C392.8,91.28,394.03,92.52,395.55,92.52z M378.14,187.04c0-1.07-0.87-1.94-1.94-1.94
	c-1.07,0-1.94,0.87-1.94,1.94c0,1.07,0.87,1.94,1.94,1.94C377.27,188.98,378.14,188.11,378.14,187.04z M390.52,70.78
	c1.69,0,3.07-1.37,3.07-3.07c0-1.7-1.37-3.07-3.07-3.07s-3.07,1.37-3.07,3.07C387.46,69.4,388.83,70.78,390.52,70.78z
	 M400.58,114.26c0.26,0,0.51-0.05,0.75-0.13c-0.01-1.54-0.02-3.08-0.01-4.63c-0.24-0.08-0.48-0.13-0.74-0.13
	c-1.35,0-2.44,1.09-2.44,2.44C398.14,113.17,399.23,114.26,400.58,114.26z M395.78,180.03c-1,0-1.82,0.81-1.82,1.82
	s0.81,1.82,1.82,1.82c1,0,1.81-0.81,1.81-1.82S396.78,180.03,395.78,180.03z M392.82,159.82c0-1.14-0.92-2.07-2.07-2.07
	c-1.14,0-2.06,0.93-2.06,2.07c0,1.14,0.92,2.07,2.06,2.07C391.9,161.89,392.82,160.97,392.82,159.82z M400.8,202.31
	c-0.86,0-1.56,0.7-1.56,1.57c0,0.87,0.7,1.57,1.56,1.57s1.56-0.7,1.56-1.57C402.37,203.01,401.67,202.31,400.8,202.31z
	 M385.74,140.12c1.28,0,2.32-1.04,2.32-2.32c0-1.28-1.04-2.32-2.32-2.32c-1.28,0-2.32,1.04-2.32,2.32
	C383.42,139.08,384.46,140.12,385.74,140.12z M212.41,85.83c-2.9,0-5.26,2.36-5.26,5.26c0,2.91,2.35,5.26,5.26,5.26
	c2.9,0,5.26-2.36,5.26-5.26C217.67,88.18,215.32,85.83,212.41,85.83z M218.13,109.65c-2.66,0-4.82,2.16-4.82,4.82
	c0,2.66,2.16,4.82,4.82,4.82c2.66,0,4.82-2.16,4.82-4.82C222.94,111.81,220.79,109.65,218.13,109.65z M206.78,62.06
	c-3.18,0-5.76,2.58-5.76,5.76c0,3.18,2.58,5.76,5.76,5.76c3.18,0,5.76-2.58,5.76-5.76C212.54,64.64,209.96,62.06,206.78,62.06z
	 M218.47,57.32c0,3.11,2.52,5.64,5.63,5.64c3.11,0,5.63-2.52,5.63-5.64c0-3.11-2.52-5.64-5.63-5.64
	C220.99,51.68,218.47,54.2,218.47,57.32z M171.62,32.31c0,3.81,3.08,6.89,6.88,6.89c3.8,0,6.88-3.09,6.88-6.89
	c0-3.81-3.08-6.89-6.88-6.89C174.7,25.42,171.62,28.5,171.62,32.31z M241.86,42.04c-3.04,0-5.51,2.47-5.51,5.51s2.47,5.51,5.51,5.51
	c3.04,0,5.51-2.47,5.51-5.51S244.9,42.04,241.86,42.04z M167.6,60.83c-3.56,0-6.45,2.89-6.45,6.45c0,3.56,2.89,6.45,6.45,6.45
	c3.56,0,6.45-2.89,6.45-6.45C174.04,63.72,171.16,60.83,167.6,60.83z M184.18,49.3c-3.49,0-6.32,2.83-6.32,6.33
	c0,3.49,2.83,6.33,6.32,6.33c3.49,0,6.32-2.83,6.32-6.33C190.5,52.14,187.67,49.3,184.18,49.3z M189.92,73.24
	c-3.21,0-5.82,2.61-5.82,5.83c0,3.22,2.61,5.83,5.82,5.83c3.21,0,5.82-2.61,5.82-5.83C195.74,75.85,193.14,73.24,189.92,73.24z
	 M247.18,65.22c-2.8,0-5.07,2.27-5.07,5.07c0,2.8,2.27,5.07,5.07,5.07c2.8,0,5.07-2.27,5.07-5.07
	C252.25,67.49,249.98,65.22,247.18,65.22z M278.91,52.71c0,2.63,2.13,4.76,4.76,4.76c2.63,0,4.76-2.13,4.76-4.76
	s-2.13-4.76-4.76-4.76C281.04,47.95,278.91,50.08,278.91,52.71z M293.99,93.57c-2.18,0-3.94,1.77-3.94,3.95
	c0,2.18,1.77,3.95,3.94,3.95c2.18,0,3.94-1.77,3.94-3.95C297.93,95.34,296.17,93.57,293.99,93.57z M275.74,102.18
	c-2.28,0-4.13,1.85-4.13,4.13s1.85,4.13,4.13,4.13c2.28,0,4.13-1.85,4.13-4.13S278.02,102.18,275.74,102.18z M288.82,70.71
	c-2.42,0-4.38,1.96-4.38,4.39c0,2.42,1.96,4.39,4.38,4.39c2.42,0,4.38-1.96,4.38-4.39C293.2,72.67,291.24,70.71,288.82,70.71z
	 M270.47,79.16c-2.49,0-4.51,2.02-4.51,4.51s2.02,4.51,4.51,4.51s4.51-2.02,4.51-4.51S272.96,79.16,270.47,79.16z M252.54,88.48
	c-2.56,0-4.63,2.08-4.63,4.64s2.07,4.64,4.63,4.64c2.56,0,4.63-2.08,4.63-4.64S255.1,88.48,252.54,88.48z M265.23,56.14
	c-2.73,0-4.94,2.22-4.94,4.95c0,2.73,2.21,4.95,4.94,4.95c2.73,0,4.94-2.22,4.94-4.95C270.17,58.36,267.96,56.14,265.23,56.14z
	 M264.83,40.79c-3.35,0.21-6.53,0.25-9.51,0.23c0.89,1.7,2.65,2.87,4.69,2.87C262.15,43.89,263.99,42.61,264.83,40.79z
	 M380.71,118.41c1.45,0,2.63-1.18,2.63-2.63c0-1.45-1.18-2.63-2.63-2.63c-1.45,0-2.63,1.18-2.63,2.63
	C378.09,117.23,379.26,118.41,380.71,118.41z M373.36,164.97c0-1.21-0.98-2.19-2.19-2.19s-2.19,0.98-2.19,2.19
	c0,1.21,0.98,2.19,2.19,2.19S373.36,166.18,373.36,164.97z M322.88,137.3c1.69,0,3.07-1.37,3.07-3.07c0-1.7-1.37-3.07-3.07-3.07
	c-1.69,0-3.07,1.37-3.07,3.07C319.82,135.92,321.19,137.3,322.88,137.3z M328.02,159.33c1.52,0,2.75-1.23,2.75-2.76
	c0-1.52-1.23-2.76-2.75-2.76c-1.52,0-2.75,1.23-2.75,2.76C325.26,158.09,326.5,159.33,328.02,159.33z M317.14,38.46
	c0,2.46,1.99,4.45,4.44,4.45s4.44-1.99,4.44-4.45c0-2.46-1.99-4.45-4.44-4.45S317.14,36,317.14,38.46z M327.6,233.4
	c0-1.07-0.87-1.94-1.94-1.94c-1.07,0-1.94,0.87-1.94,1.94c0,1.07,0.87,1.94,1.94,1.94C326.73,235.34,327.6,234.47,327.6,233.4z
	 M340.54,201.41c0-1.21-0.98-2.19-2.19-2.19c-1.21,0-2.19,0.98-2.19,2.19c0,1.21,0.98,2.19,2.19,2.19
	C339.56,203.6,340.54,202.62,340.54,201.41z M338.18,279.63c0-0.8-0.64-1.44-1.44-1.44c-0.8,0-1.44,0.65-1.44,1.44
	c0,0.8,0.64,1.44,1.44,1.44C337.53,281.07,338.18,280.43,338.18,279.63z M332.83,256.42c0-0.93-0.76-1.69-1.69-1.69
	c-0.93,0-1.69,0.76-1.69,1.69c0,0.93,0.76,1.69,1.69,1.69C332.07,258.11,332.83,257.35,332.83,256.42z M335.61,178.96
	c0-1.35-1.09-2.44-2.44-2.44c-1.35,0-2.44,1.09-2.44,2.44c0,1.35,1.09,2.44,2.44,2.44C334.52,181.41,335.61,180.31,335.61,178.96z
	 M222.52,39.15c-3.1-0.63-6.29-1.46-9.56-2.56c0.88,2.31,3.11,3.96,5.73,3.96C220.15,40.55,221.47,40.01,222.52,39.15z
	 M331.69,79.07c-2,0-3.63,1.63-3.63,3.63c0,2.01,1.63,3.63,3.63,3.63c2,0,3.63-1.63,3.63-3.63
	C335.32,80.7,333.69,79.07,331.69,79.07z M178.52,13.93c-1.05-1.19-2.01-2.36-2.89-3.51c-2.46-3.1-4.33-5.91-5.7-8.14
	c-2.63,1.15-4.47,3.75-4.47,6.81c0,4.12,3.33,7.45,7.45,7.45C175.15,16.54,177.15,15.52,178.52,13.93z M195.63,28.36
	c-2.21-1.39-4.27-2.84-6.19-4.32C190.41,26.54,192.79,28.33,195.63,28.36z M321.36,16.35c0-0.66-0.14-1.28-0.38-1.85
	c-1.5,1.66-3.15,3.35-4.99,5.02c-0.46,0.42-0.93,0.82-1.4,1.22c0.6,0.27,1.26,0.43,1.96,0.43C319.2,21.18,321.36,19.02,321.36,16.35
	z M341.8,129.94c1.62,0,2.94-1.32,2.94-2.94s-1.32-2.94-2.94-2.94c-1.62,0-2.94,1.32-2.94,2.94S340.18,129.94,341.8,129.94z
	 M355.61,10.04c1.2,0,2.27-0.5,3.06-1.29c-2.44-0.72-4.88-1.44-7.32-2.16C351.78,8.55,353.51,10.04,355.61,10.04z M331.33,10.58
	c0,2.56,2.07,4.64,4.63,4.64s4.63-2.08,4.63-4.64c0-2.56-2.07-4.64-4.63-4.64S331.33,8.02,331.33,10.58z M420.4,487.84
	c0.03,0,0.06-0.03,0.06-0.06c0-0.03-0.03-0.06-0.06-0.06c-0.03,0-0.06,0.03-0.06,0.06C420.33,487.81,420.36,487.84,420.4,487.84z
	 M30.52,282.57c-1.63,1.15-3.3,2.28-5.04,3.39c0.06,0.01,0.13,0.02,0.19,0.02C27.91,285.98,29.79,284.56,30.52,282.57z
	 M326.64,56.57c-2.21,0-4.01,1.79-4.01,4.01s1.79,4.01,4.01,4.01c2.21,0,4-1.8,4-4.01S328.85,56.57,326.64,56.57z M351.04,73.28
	c-1.9,0-3.44,1.54-3.44,3.45c0,1.9,1.54,3.45,3.44,3.45c1.9,0,3.44-1.54,3.44-3.45C354.48,74.83,352.94,73.28,351.04,73.28z
	 M356.07,95.65c-1.73,0-3.13,1.4-3.13,3.13c0,1.73,1.4,3.13,3.13,3.13c1.73,0,3.13-1.4,3.13-3.13
	C359.2,97.05,357.8,95.65,356.07,95.65z M366.13,145.41c1.38,0,2.5-1.12,2.5-2.51s-1.12-2.51-2.5-2.51c-1.38,0-2.5,1.12-2.5,2.51
	S364.75,145.41,366.13,145.41z M345.44,223.92c0-1.04-0.84-1.88-1.88-1.88c-1.04,0-1.88,0.84-1.88,1.88s0.84,1.88,1.88,1.88
	C344.6,225.8,345.44,224.96,345.44,223.92z M356.62,27.68c0,2.21,1.79,4.01,4.01,4.01c2.21,0,4.01-1.79,4.01-4.01
	c0-2.21-1.79-4.01-4.01-4.01C358.42,23.67,356.62,25.46,356.62,27.68z M336.73,32.63c0,2.35,1.91,4.26,4.26,4.26
	c2.35,0,4.26-1.91,4.26-4.26c0-2.35-1.91-4.26-4.26-4.26C338.64,28.37,336.73,30.28,336.73,32.63z M346.01,50.86
	c-2.11,0-3.82,1.71-3.82,3.82c0,2.11,1.71,3.82,3.82,3.82c2.11,0,3.82-1.71,3.82-3.82C349.83,52.57,348.12,50.86,346.01,50.86z
	 M370.67,74.98c1.8,0,3.25-1.46,3.25-3.26c0-1.8-1.46-3.26-3.25-3.26s-3.25,1.46-3.25,3.26C367.42,73.52,368.87,74.98,370.67,74.98z
	 M336.74,101.59c-1.8,0-3.25,1.46-3.25,3.26c0,1.8,1.46,3.26,3.25,3.26c1.8,0,3.25-1.46,3.25-3.26
	C340,103.04,338.54,101.59,336.74,101.59z M365.65,46.07c-2,0-3.63,1.63-3.63,3.63c0,2.01,1.62,3.63,3.63,3.63
	c2,0,3.63-1.63,3.63-3.63C369.28,47.69,367.65,46.07,365.65,46.07z M355.5,269.23c0-0.76-0.62-1.38-1.38-1.38
	c-0.76,0-1.38,0.62-1.38,1.38c0,0.76,0.62,1.38,1.38,1.38C354.88,270.61,355.5,270,355.5,269.23z M351.95,173.67
	c1.28,0,2.32-1.04,2.32-2.32c0-1.28-1.04-2.32-2.32-2.32c-1.28,0-2.32,1.04-2.32,2.32C349.63,172.64,350.67,173.67,351.95,173.67z
	 M367.23,236.54c-0.86,0-1.56,0.7-1.56,1.57c0,0.86,0.7,1.57,1.56,1.57c0.86,0,1.56-0.7,1.56-1.57
	C368.8,237.24,368.1,236.54,367.23,236.54z M346.87,151.8c1.45,0,2.63-1.18,2.63-2.63c0-1.45-1.18-2.63-2.63-2.63
	c-1.45,0-2.63,1.18-2.63,2.63C344.24,150.62,345.42,151.8,346.87,151.8z M350.44,246.52c0-0.9-0.73-1.63-1.63-1.63
	c-0.9,0-1.63,0.73-1.63,1.63s0.73,1.63,1.63,1.63C349.71,248.15,350.44,247.42,350.44,246.52z M363.94,215.82
	c0-1-0.81-1.82-1.81-1.82c-1,0-1.81,0.81-1.81,1.82c0,1,0.81,1.82,1.81,1.82C363.13,217.63,363.94,216.82,363.94,215.82z
	 M359.09,193.57c0-1.14-0.92-2.07-2.07-2.07c-1.14,0-2.07,0.93-2.07,2.07c0,1.14,0.92,2.07,2.07,2.07
	C358.17,195.64,359.09,194.71,359.09,193.57z M361.1,123.66c1.56,0,2.82-1.26,2.82-2.82c0-1.56-1.26-2.82-2.82-2.82
	c-1.56,0-2.82,1.26-2.82,2.82C358.29,122.4,359.55,123.66,361.1,123.66z M120.24,351.73c1.62,0,2.94-1.32,2.94-2.94
	c0-1.63-1.32-2.94-2.94-2.94c-1.62,0-2.94,1.32-2.94,2.94C117.3,350.42,118.62,351.73,120.24,351.73z M125.35,498.55
	c0-0.8-0.64-1.44-1.44-1.44c-0.79,0-1.44,0.65-1.44,1.44c0,0.8,0.64,1.44,1.44,1.44C124.7,499.99,125.35,499.34,125.35,498.55z
	 M125.85,437.8c0-1.07-0.87-1.94-1.94-1.94c-1.07,0-1.94,0.87-1.94,1.94c0,1.07,0.87,1.94,1.94,1.94
	C124.98,439.74,125.85,438.87,125.85,437.8z M122.7,479.94c0.9,0,1.63-0.73,1.63-1.63c0-0.9-0.73-1.63-1.63-1.63
	c-0.9,0-1.63,0.73-1.63,1.63C121.07,479.21,121.8,479.94,122.7,479.94z M99.79,342.26c1.83,0,3.32-1.49,3.32-3.32
	s-1.48-3.32-3.32-3.32c-1.83,0-3.32,1.49-3.32,3.32S97.95,342.26,99.79,342.26z M137.19,378.02c0-1.35-1.09-2.44-2.44-2.44
	c-1.35,0-2.44,1.09-2.44,2.44c0,1.35,1.09,2.44,2.44,2.44C136.09,380.46,137.19,379.37,137.19,378.02z M93.16,174.94
	c-0.31,1.67-0.64,3.32-0.98,4.94c0.73-0.99,1.17-2.2,1.17-3.53C93.34,175.87,93.27,175.4,93.16,174.94z M134.88,269.82
	c2.11,0,3.82-1.71,3.82-3.82c0-2.11-1.71-3.82-3.82-3.82c-2.11,0-3.82,1.71-3.82,3.82C131.06,268.11,132.77,269.82,134.88,269.82z
	 M138.93,311.34c0-1.76-1.43-3.19-3.19-3.19s-3.19,1.43-3.19,3.19c0,1.76,1.43,3.19,3.19,3.19S138.93,313.1,138.93,311.34z
	 M132.26,397.72c0-1.28-1.04-2.32-2.32-2.32c-1.28,0-2.32,1.04-2.32,2.32c0,1.28,1.04,2.32,2.32,2.32
	C131.22,400.03,132.26,399,132.26,397.72z M128.46,417.67c0-1.18-0.95-2.13-2.13-2.13s-2.13,0.95-2.13,2.13
	c0,1.18,0.95,2.13,2.13,2.13S128.46,418.84,128.46,417.67z M115.41,305.11c1.97,0,3.57-1.6,3.57-3.57c0-1.97-1.6-3.57-3.57-3.57
	c-1.97,0-3.57,1.6-3.57,3.57C111.84,303.51,113.44,305.11,115.41,305.11z M100.55,445.84c-1.14,0-2.07,0.93-2.07,2.07
	c0,1.14,0.92,2.07,2.07,2.07c1.14,0,2.06-0.93,2.06-2.07C102.61,446.76,101.69,445.84,100.55,445.84z M100.55,490.13
	c0.93,0,1.69-0.76,1.69-1.69c0-0.93-0.76-1.69-1.69-1.69c-0.93,0-1.69,0.76-1.69,1.69C98.86,489.37,99.61,490.13,100.55,490.13z
	 M99.98,470.05c1.04,0,1.88-0.84,1.88-1.88c0-1.04-0.84-1.88-1.88-1.88c-1.04,0-1.88,0.84-1.88,1.88
	C98.1,469.21,98.94,470.05,99.98,470.05z M103.75,508.64c0-0.83-0.67-1.5-1.5-1.5s-1.5,0.67-1.5,1.5s0.67,1.5,1.5,1.5
	S103.75,509.47,103.75,508.64z M116.91,368.11c0-1.56-1.26-2.82-2.82-2.82c-1.56,0-2.82,1.26-2.82,2.82s1.26,2.82,2.82,2.82
	C115.65,370.93,116.91,369.66,116.91,368.11z M111.66,387.74c0-1.45-1.18-2.63-2.63-2.63s-2.63,1.18-2.63,2.63s1.18,2.63,2.63,2.63
	S111.66,389.19,111.66,387.74z M104.5,427.7c0-1.25-1.01-2.25-2.25-2.25c-1.24,0-2.25,1.01-2.25,2.25c0,1.25,1.01,2.26,2.25,2.26
	C103.49,429.96,104.5,428.95,104.5,427.7z M107.52,407.62c0-1.35-1.09-2.44-2.44-2.44c-1.35,0-2.44,1.09-2.44,2.44
	c0,1.35,1.09,2.44,2.44,2.44C106.43,410.07,107.52,408.97,107.52,407.62z M120.95,458.03c0,0.97,0.78,1.75,1.75,1.75
	s1.75-0.79,1.75-1.75c0-0.97-0.78-1.75-1.75-1.75S120.95,457.07,120.95,458.03z M173.73,417.73c0-0.93-0.76-1.69-1.69-1.69
	c-0.93,0-1.69,0.76-1.69,1.69s0.76,1.69,1.69,1.69C172.98,419.42,173.73,418.66,173.73,417.73z M175.79,288.81
	c1.69,0,3.07-1.37,3.07-3.07s-1.37-3.07-3.07-3.07s-3.07,1.37-3.07,3.07S174.09,288.81,175.79,288.81z M165.4,306.09
	c1.62,0,2.94-1.32,2.94-2.94c0-1.63-1.32-2.94-2.94-2.94c-1.62,0-2.94,1.32-2.94,2.94C162.46,304.77,163.78,306.09,165.4,306.09z
	 M168.21,351.86c1.31,0,2.38-1.07,2.38-2.38c0-1.31-1.06-2.38-2.38-2.38c-1.31,0-2.38,1.07-2.38,2.38
	C165.83,350.8,166.89,351.86,168.21,351.86z M170.82,437.81c0-0.87-0.7-1.57-1.56-1.57c-0.86,0-1.56,0.7-1.56,1.57
	c0,0.86,0.7,1.57,1.56,1.57C170.12,439.38,170.82,438.67,170.82,437.81z M190.65,359.3c0-1.14-0.92-2.07-2.07-2.07
	c-1.14,0-2.06,0.93-2.06,2.07c0,1.14,0.92,2.07,2.06,2.07C189.72,361.37,190.65,360.45,190.65,359.3z M185.77,315.6
	c1.45,0,2.63-1.18,2.63-2.63c0-1.45-1.18-2.63-2.63-2.63c-1.45,0-2.63,1.18-2.63,2.63C183.14,314.42,184.32,315.6,185.77,315.6z
	 M178.76,246.38c1.97,0,3.57-1.6,3.57-3.57c0-1.97-1.6-3.57-3.57-3.57c-1.97,0-3.57,1.6-3.57,3.57
	C175.19,244.78,176.79,246.38,178.76,246.38z M143.34,358.65c0-1.45-1.18-2.63-2.63-2.63c-1.45,0-2.63,1.18-2.63,2.63
	c0,1.45,1.18,2.63,2.63,2.63C142.17,361.28,143.34,360.1,143.34,358.65z M183.67,378.38c0-1.07-0.87-1.94-1.94-1.94
	c-1.07,0-1.94,0.87-1.94,1.94c0,1.07,0.87,1.94,1.94,1.94C182.8,380.32,183.67,379.46,183.67,378.38z M147.39,447.91
	c0-0.9-0.73-1.63-1.63-1.63s-1.63,0.73-1.63,1.63c0,0.9,0.73,1.63,1.63,1.63S147.39,448.81,147.39,447.91z M146.62,468.17
	c0-0.83-0.67-1.5-1.5-1.5c-0.83,0-1.5,0.67-1.5,1.5s0.67,1.5,1.5,1.5C145.94,469.68,146.62,469,146.62,468.17z M149.52,427.73
	c0-1-0.81-1.82-1.81-1.82c-1,0-1.81,0.81-1.81,1.82c0,1,0.81,1.82,1.81,1.82C148.71,429.54,149.52,428.73,149.52,427.73z
	 M145.03,296.65c1.83,0,3.32-1.49,3.32-3.32c0-1.83-1.48-3.32-3.32-3.32c-1.83,0-3.32,1.49-3.32,3.32
	C141.72,295.16,143.2,296.65,145.03,296.65z M163.46,368.51c0-1.25-1.01-2.26-2.25-2.26c-1.24,0-2.25,1.01-2.25,2.26
	c0,1.25,1.01,2.26,2.25,2.26C162.45,370.77,163.46,369.76,163.46,368.51z M157.98,236.71c2.21,0,4.01-1.8,4.01-4.01
	c0-2.21-1.79-4.01-4.01-4.01c-2.21,0-4,1.8-4,4.01C153.98,234.92,155.77,236.71,157.98,236.71z M155.32,279.31
	c1.9,0,3.44-1.54,3.44-3.45c0-1.9-1.54-3.45-3.44-3.45c-1.9,0-3.44,1.54-3.44,3.45C151.88,277.77,153.42,279.31,155.32,279.31z
	 M152.94,407.71c0-1.11-0.9-2-2-2c-1.11,0-2,0.9-2,2s0.9,2,2,2C152.05,409.72,152.94,408.82,152.94,407.71z M191.82,230.88
	c1.97,0,3.57-1.6,3.57-3.57c0-1.97-1.6-3.57-3.57-3.57c-1.97,0-3.57,1.6-3.57,3.57C188.26,229.29,189.85,230.88,191.82,230.88z
	 M33.35,434.84c-1.62,0-2.94,1.32-2.94,2.94c0,1.63,1.32,2.94,2.94,2.94c1.62,0,2.94-1.32,2.94-2.94
	C36.29,436.15,34.98,434.84,33.35,434.84z M32.13,417.59c0,1.73,1.4,3.13,3.13,3.13c1.73,0,3.13-1.4,3.13-3.13
	c0-1.73-1.4-3.13-3.13-3.13C33.54,414.46,32.13,415.87,32.13,417.59z M39.94,538.82c0-1-0.81-1.82-1.81-1.82s-1.81,0.81-1.81,1.82
	c0,1,0.81,1.82,1.81,1.82S39.94,539.82,39.94,538.82z M38.12,400.9c1.87,0,3.38-1.51,3.38-3.38c0-1.87-1.51-3.38-3.38-3.38
	s-3.38,1.51-3.38,3.38C34.75,399.39,36.26,400.9,38.12,400.9z M35.26,520.75c1.11,0,2-0.9,2-2c0-1.11-0.9-2-2-2c-1.11,0-2,0.9-2,2
	C33.26,519.86,34.16,520.75,35.26,520.75z M50.42,357.89c0-2.08-1.68-3.76-3.75-3.76c-2.07,0-3.75,1.68-3.75,3.76
	c0,2.08,1.68,3.76,3.75,3.76C48.74,361.65,50.42,359.97,50.42,357.89z M52.33,342.44c2.21,0,4.01-1.8,4.01-4.01
	c0-2.21-1.79-4.01-4.01-4.01c-2.21,0-4,1.8-4,4.01C48.33,340.64,50.12,342.44,52.33,342.44z M45.5,377.61c0-1.97-1.6-3.57-3.57-3.57
	c-1.97,0-3.57,1.6-3.57,3.57c0,1.97,1.6,3.57,3.57,3.57C43.9,381.18,45.5,379.58,45.5,377.61z M43.56,558.74
	c0-0.9-0.73-1.63-1.63-1.63c-0.9,0-1.63,0.73-1.63,1.63c0,0.9,0.73,1.63,1.63,1.63C42.83,560.37,43.56,559.64,43.56,558.74z
	 M29.7,458.03c0,1.49,1.2,2.69,2.69,2.69c1.49,0,2.69-1.21,2.69-2.69c0-1.49-1.2-2.69-2.69-2.69
	C30.91,455.34,29.7,456.55,29.7,458.03z M63.27,249.03c-1.42,2.07-2.93,4.17-4.55,6.28c0.56,2.19,2.51,3.83,4.88,3.83
	c2.8,0,5.07-2.27,5.07-5.07c0-2.8-2.27-5.07-5.07-5.07C63.49,248.99,63.39,249.02,63.27,249.03z M73.9,231.26
	c-1.35,2.55-2.85,5.28-4.53,8.15c0.94,1.34,2.47,2.22,4.23,2.22c2.87,0,5.19-2.33,5.19-5.2C78.79,233.66,76.62,231.42,73.9,231.26z
	 M84.37,214c-0.92,0-1.78,0.25-2.54,0.67c-0.83,2.02-1.67,3.99-2.54,5.88c0.57,2.28,2.62,3.98,5.08,3.98c2.9,0,5.26-2.36,5.26-5.26
	C89.63,216.36,87.28,214,84.37,214z M41.27,290.59c0,2.63,2.13,4.76,4.76,4.76c2.63,0,4.76-2.13,4.76-4.76
	c0-2.63-2.13-4.76-4.76-4.76C43.4,285.83,41.27,287.96,41.27,290.59z M96.67,358.2c0-1.76-1.43-3.19-3.19-3.19s-3.19,1.43-3.19,3.19
	c0,1.76,1.43,3.19,3.19,3.19S96.67,359.97,96.67,358.2z M33.35,500.82c1.24,0,2.25-1.01,2.25-2.26c0-1.25-1.01-2.26-2.25-2.26
	c-1.24,0-2.25,1.01-2.25,2.26C31.1,499.81,32.11,500.82,33.35,500.82z M33.86,309.41c0,2.56,2.07,4.64,4.63,4.64
	c2.56,0,4.63-2.08,4.63-4.64c0-2.56-2.07-4.64-4.63-4.64C35.93,304.78,33.86,306.85,33.86,309.41z M32.4,480.75
	c1.35,0,2.44-1.09,2.44-2.44c0-1.35-1.09-2.44-2.44-2.44c-1.35,0-2.44,1.09-2.44,2.44C29.96,479.66,31.05,480.75,32.4,480.75z
	 M27.36,328.55c0,2.46,1.99,4.45,4.44,4.45c2.45,0,4.44-1.99,4.44-4.45c0-2.46-1.99-4.45-4.44-4.45
	C29.35,324.1,27.36,326.09,27.36,328.55z M54.84,470.49c1.28,0,2.32-1.04,2.32-2.32c0-1.28-1.04-2.32-2.32-2.32
	c-1.28,0-2.32,1.04-2.32,2.32C52.53,469.45,53.57,470.49,54.84,470.49z M77.55,480.31c1.11,0,2-0.9,2-2c0-1.11-0.9-2-2-2
	c-1.11,0-2,0.9-2,2C75.54,479.42,76.44,480.31,77.55,480.31z M55.35,490.57c1.18,0,2.13-0.95,2.13-2.13c0-1.18-0.95-2.13-2.13-2.13
	c-1.18,0-2.13,0.95-2.13,2.13C53.22,489.62,54.17,490.57,55.35,490.57z M82.38,518.72c0-0.9-0.73-1.63-1.63-1.63
	s-1.63,0.73-1.63,1.63c0,0.9,0.73,1.63,1.63,1.63S82.38,519.62,82.38,518.72z M75.36,458.03c0,1.21,0.98,2.19,2.19,2.19
	c1.21,0,2.19-0.98,2.19-2.19c0-1.21-0.98-2.19-2.19-2.19C76.34,455.84,75.36,456.82,75.36,458.03z M78.61,500.37
	c1,0,1.81-0.81,1.81-1.82c0-1-0.81-1.82-1.81-1.82c-1,0-1.81,0.81-1.81,1.82C76.8,499.56,77.61,500.37,78.61,500.37z M91.19,377.78
	c0-1.66-1.34-3.01-3-3.01s-3,1.35-3,3.01c0,1.66,1.34,3.01,3,3.01S91.19,379.44,91.19,377.78z M80.75,420.26
	c1.45,0,2.63-1.18,2.63-2.63s-1.18-2.63-2.63-2.63s-2.63,1.18-2.63,2.63S79.3,420.26,80.75,420.26z M86.76,397.6
	c0-1.56-1.26-2.82-2.82-2.82c-1.56,0-2.82,1.26-2.82,2.82s1.26,2.82,2.82,2.82C85.5,400.42,86.76,399.16,86.76,397.6z M85.32,538.74
	c0-0.76-0.62-1.38-1.38-1.38c-0.76,0-1.38,0.62-1.38,1.38c0,0.76,0.62,1.38,1.38,1.38C84.7,540.12,85.32,539.5,85.32,538.74z
	 M72.89,351.88c1.97,0,3.57-1.6,3.57-3.57c0-1.97-1.6-3.57-3.57-3.57c-1.97,0-3.57,1.6-3.57,3.57
	C69.32,350.28,70.92,351.88,72.89,351.88z M61.07,528.78c0-0.93-0.76-1.69-1.69-1.69c-0.93,0-1.69,0.76-1.69,1.69
	c0,0.93,0.76,1.69,1.69,1.69C60.31,530.47,61.07,529.71,61.07,528.78z M70.78,367.83c0-1.87-1.51-3.38-3.38-3.38
	c-1.87,0-3.38,1.51-3.38,3.38c0,1.87,1.51,3.38,3.38,3.38C69.27,371.21,70.78,369.7,70.78,367.83z M56.86,510.54
	c1.04,0,1.88-0.84,1.88-1.88c0-1.04-0.84-1.88-1.88-1.88c-1.04,0-1.88,0.84-1.88,1.88C54.99,509.7,55.83,510.54,56.86,510.54z
	 M54.11,427.68c0,1.52,1.23,2.76,2.75,2.76c1.52,0,2.75-1.23,2.75-2.76c0-1.52-1.23-2.76-2.75-2.76
	C55.34,424.93,54.11,426.16,54.11,427.68z M55.35,445.33c-1.42,0-2.57,1.15-2.57,2.57c0,1.42,1.15,2.57,2.57,2.57
	c1.42,0,2.57-1.15,2.57-2.57C57.91,446.48,56.77,445.33,55.35,445.33z M66.09,387.6c0-1.76-1.43-3.19-3.19-3.19
	c-1.76,0-3.19,1.43-3.19,3.19c0,1.76,1.43,3.19,3.19,3.19C64.66,390.79,66.09,389.36,66.09,387.6z M64.4,548.75
	c0-0.83-0.67-1.5-1.5-1.5c-0.83,0-1.5,0.67-1.5,1.5c0,0.83,0.67,1.5,1.5,1.5C63.73,550.25,64.4,549.58,64.4,548.75z M59.38,410.57
	c1.66,0,3-1.35,3-3.01s-1.34-3.01-3-3.01c-1.66,0-3,1.35-3,3.01S57.72,410.57,59.38,410.57z"/>
<path class="Colour3 fill" d="M500,669.72c0,1.34,0,2.69,0,4.03l-31.66,31.75h-4.91L500,669.72z"/>
<path class="Colour3 fill" d="M70.89,705.5h-1.78l412.33-415.43c2.49,1.38,4.88,2.59,7.15,3.67c1.11,0.55,2.23,1.09,3.37,1.62
	L70.89,705.5z"/>
<path class="Colour3 fill" d="M500,588.07c0,1.01,0,2.01,0,3.02L385.92,705.5h-5.94L500,588.07z"/>
<path class="Colour3 fill" d="M500,642.5c0,1.23,0,2.46,0,3.69l-59.13,59.31h-5.25L500,642.5z"/>
<path class="Colour3 fill" d="M500,615.28c0,1.12,0,2.24,0,3.35l-86.61,86.86h-5.6L500,615.28z"/>
<path class="Colour3 fill" d="M435.01,246.47L0,670.19c0-0.4,0-0.79,0-1.19l429.07-432.3C430.82,239.8,432.78,243.08,435.01,246.47z"/>
<path class="Colour3 fill" d="M0,633.62L417.48,213c1.54,3.9,3.18,7.57,4.89,10.99L0,635.4C0,634.81,0,634.22,0,633.62z"/>
<path class="Colour3 fill" d="M469.42,282.53L35.18,705.5H34l426.59-429.8C463.35,278.03,466.29,280.32,469.42,282.53z"/>
<path class="Colour3 fill" d="M0,704.38l443.23-446.57c2.23,2.78,4.65,5.57,7.28,8.35L0,704.98C0,704.78,0,704.58,0,704.38z"/>
<path class="Colour3 fill" d="M500,397.54c0,0.22,0,0.44,0,0.66L193.61,705.5h-8.35L500,397.54z"/>
<path class="Colour3 fill" d="M500,560.85c0,0.89,0,1.79,0,2.68L358.45,705.5h-6.28L500,560.85z"/>
<path class="Colour3 fill" d="M500,451.98c0,0.44,0,0.89,0,1.33L248.56,705.5h-7.66L500,451.98z"/>
<path class="Colour3 fill" d="M500,370.33c0,0.11,0,0.21,0,0.32L166.14,705.5h-8.69L500,370.33z"/>
<path class="Colour3 fill" d="M500,306.75c0,5.19,0,10.38,0,15.57L106.61,705.5h-2.38L500,306.75z"/>
<path class="Colour3 fill" d="M500,424.76c0,0.33,0,0.66,0,1L221.09,705.5h-8L500,424.76z"/>
<path class="Colour3 fill" d="M500,479.2c0,0.56,0,1.11,0,1.67L276.03,705.5h-7.31L500,479.2z"/>
<path class="Colour3 fill" d="M500,533.63c0,0.78,0,1.56,0,2.34L330.98,705.5h-6.63L500,533.63z"/>
<path class="Colour3 fill" d="M500,506.41c0,0.67,0,1.34,0,2.01L303.5,705.5h-6.97L500,506.41z"/>
<g id="BBodyLogos"></g>
<path class="NeckAndArmTrim fill" d="M0,315.42c10.47-3.58,26.35-10.09,42.57-21.92c75.09-54.79,73.4-162.31,72.75-203.19
	c-0.41-25.85-3.59-49.81-8.33-71.59l-15.96,4.75c1.81,11.69,4.09,28.78,5.52,49.53c2.33,33.83,2.83,61.96-3.47,95.74
	c-5.1,27.36-11.69,52.37-32.54,83.15C42.44,278.61,15.61,291.9,0,298.87V315.42z"/>
<path class="NeckAndArmTrim fill" d="M500,315.42c-13.83-4.92-25.58-11.06-35.6-17.8c-108-72.63-75.39-255.04-70.83-278.74l15.96,4.71
	c-15.68,102.16-1.97,178.66,18.26,210.8c21.61,34.34,50.81,54.4,50.81,54.4c8.77,5.09,16.53,8.27,21.41,10.08V315.42z"/>
<path class="NeckAndArmTrim fill" d="M349.05,5.53c-3.84,6.68-10.41,16.31-21.12,25.55c-28.64,24.7-63.88,26.73-75.73,26.84
	c-9.05,0.09-45.21-0.53-76.18-25.16c-12.2-9.7-19.74-20.06-24.14-27.22L168.8,0.5c6.34,9.04,21.88,28.17,48.96,36.31
	c14.19,4.27,26.41,3.97,35.74,3.74c14.35-0.35,32.24-0.78,49.9-11.23c14.06-8.32,22.46-19.72,27.35-28.82L349.05,5.53z"/>
</svg>
