<?xml version="1.0" encoding="utf-8"?>
<!-- Generator: Adobe Illustrator 19.1.0, SVG Export Plug-In . SVG Version: 6.00 Build 0)  -->
<svg version="1.1" id="Layer_1" xmlns="http://www.w3.org/2000/svg" xmlns:xlink="http://www.w3.org/1999/xlink" x="0px" y="0px"
	 viewBox="0 0 501.01 643" style="enable-background:new 0 0 501.01 643;" xml:space="preserve">
<style type="text/css">
	<![CDATA[
	@font-face{font-family:'codaheavy';src:url('/fonts/coda-heavy-webfont.woff') format('woff')}
	text{font-family:Impact,codaheavy,sans-serif}
	.Number.fill{fill:#000}
	.NumberOutline.stroke{fill:none;stroke:#777;stroke-width:2.5}
	.Colour1.fill{fill:#000000;}
	.Collar.fill{fill:#000000;}
	.ArmTrim.fill{fill:#A30000;}
	.Gradient1.stopColor{stopColor:#A30000;}
	.st0{fill:url(#SVGID_1_);}
	.st1{fill:none;stroke:#5D5D5D;stroke-miterlimit:10;}
	.st2{fill:none;stroke:#5D5D5D;stroke-miterlimit:10;stroke-dasharray:1.0005,1.0005;}
	.st3{fill:none;stroke:#000000;stroke-linecap:round;stroke-linejoin:round;}
	.st4{fill:none;stroke:#5D5D5D;stroke-miterlimit:10;stroke-dasharray:1;}
	]]>
</style>
<linearGradient id="SVGID_1_" gradientUnits="userSpaceOnUse" x1="250.5028" y1="40.6941" x2="250.5028" y2="641.6766">
	<stop class="Colour1 fill stopColor" offset="0" style="stop-color:#000000"/>
	<stop class="Gradient1 stopColor" offset="0.6364" style="stop-color:#A30000"/>
</linearGradient>
<path class="st0" d="M250.5,642.48c-151.65,0.75-157.91-25.84-157.91-25.84c38.04-190.74,1.45-396.2,1.45-396.2
	C67.46,165.77,54.18,90.13,54.18,90.13S70.32,69.9,146.9,50.06c0,0,12.76-2.62,19.14-9.36h168.92c6.38,6.74,19.14,9.36,19.14,9.36
	c76.58,19.85,92.72,40.07,92.72,40.07s-13.28,75.65-39.86,130.32c0,0-36.59,205.47,1.45,396.2
	C408.41,616.65,402.15,643.23,250.5,642.48"/>
<path class="Colour1 fill" d="M140.34,508.49c-0.42,0.42-1.11,0.42-1.53,0c-0.42-0.42-0.42-1.11,0-1.52c0.42-0.42,1.11-0.42,1.53,0
	C140.76,507.38,140.76,508.07,140.34,508.49z M140.58,434.93c-0.55-0.55-1.44-0.55-2,0c-0.55,0.55-0.55,1.44,0,1.99
	c0.55,0.55,1.45,0.55,2,0C141.13,436.38,141.13,435.48,140.58,434.93z M155.96,60.6c-2.42-2.42-6.36-2.42-8.78,0
	c-2.42,2.42-2.42,6.34,0,8.76c2.43,2.42,6.36,2.42,8.78,0C158.39,66.94,158.39,63.02,155.96,60.6z M140.41,482.97
	c-0.46-0.46-1.2-0.46-1.66,0c-0.46,0.45-0.46,1.2,0,1.65c0.46,0.46,1.2,0.46,1.66,0C140.87,484.17,140.87,483.42,140.41,482.97z
	 M140.44,459c-0.48-0.48-1.25-0.48-1.73,0c-0.48,0.48-0.48,1.25,0,1.72c0.48,0.48,1.25,0.48,1.73,0
	C140.92,460.25,140.92,459.47,140.44,459z M138.88,530.96c-0.39,0.38-0.39,1.01,0,1.4c0.38,0.38,1.01,0.38,1.4,0
	c0.38-0.39,0.38-1.01,0-1.4C139.89,530.58,139.26,530.58,138.88,530.96z M154.6,133.76c-1.67-1.67-4.38-1.67-6.05,0
	c-1.67,1.67-1.67,4.37,0,6.04c1.67,1.67,4.38,1.67,6.05,0C156.27,138.13,156.27,135.42,154.6,133.76z M154.33,157.95
	c-1.52-1.52-4-1.52-5.52,0c-1.53,1.52-1.53,3.99,0,5.51c1.52,1.52,3.99,1.52,5.52,0C155.86,161.94,155.86,159.48,154.33,157.95z
	 M155.33,109.09c-2.08-2.07-5.44-2.07-7.52,0c-2.07,2.07-2.07,5.43,0,7.5c2.08,2.07,5.44,2.07,7.52,0
	C157.4,114.52,157.4,111.16,155.33,109.09z M155.63,84.86c-2.24-2.24-5.87-2.24-8.12,0c-2.24,2.24-2.24,5.86,0,8.1
	c2.24,2.24,5.88,2.24,8.12,0C157.87,90.73,157.87,87.1,155.63,84.86z M153.83,182.38c-1.25-1.24-3.27-1.24-4.52,0
	c-1.25,1.25-1.25,3.27,0,4.52c1.25,1.24,3.27,1.24,4.52,0C155.08,185.65,155.08,183.63,153.83,182.38z M141.41,266.58
	c-1.01-1.01-2.65-1.01-3.66,0c-1.01,1.01-1.01,2.64,0,3.65c1.01,1.01,2.65,1.01,3.66,0C142.42,269.22,142.42,267.59,141.41,266.58z
	 M141.51,242.55c-1.06-1.06-2.79-1.06-3.86,0c-1.07,1.07-1.07,2.79,0,3.85c1.07,1.06,2.79,1.06,3.86,0
	C142.57,245.33,142.57,243.61,141.51,242.55z M142.1,170.15c-1.4-1.39-3.66-1.39-5.05,0c-1.4,1.4-1.4,3.65,0,5.05
	c1.4,1.39,3.66,1.39,5.05,0C143.5,173.8,143.5,171.55,142.1,170.15z M140.61,410.97c-0.57-0.57-1.49-0.57-2.06,0
	c-0.57,0.57-0.57,1.49,0,2.06c0.57,0.57,1.49,0.57,2.06,0C141.18,412.46,141.18,411.53,140.61,410.97z M141.84,194.35
	c-1.25-1.25-3.28-1.25-4.52,0c-1.25,1.24-1.25,3.27,0,4.51c1.25,1.25,3.27,1.25,4.52,0C143.09,197.62,143.09,195.59,141.84,194.35z
	 M141.27,290.64c-0.94-0.93-2.46-0.93-3.39,0c-0.94,0.94-0.94,2.45,0,3.39c0.94,0.94,2.46,0.94,3.39,0
	C142.21,293.09,142.21,291.58,141.27,290.64z M140.68,386.97c-0.61-0.61-1.59-0.61-2.2,0c-0.61,0.6-0.61,1.58,0,2.19
	c0.6,0.6,1.59,0.6,2.2,0C141.28,388.55,141.28,387.57,140.68,386.97z M141.14,314.71c-0.86-0.86-2.26-0.86-3.13,0
	c-0.86,0.86-0.86,2.26,0,3.12c0.86,0.86,2.26,0.86,3.13,0C142,316.97,142,315.57,141.14,314.71z M140.97,338.8
	c-0.77-0.77-2.02-0.77-2.79,0c-0.77,0.77-0.77,2.02,0,2.79c0.77,0.77,2.02,0.77,2.79,0C141.74,340.82,141.74,339.58,140.97,338.8z
	 M141.61,218.52c-1.12-1.12-2.94-1.12-4.06,0c-1.12,1.12-1.12,2.93,0,4.05c1.12,1.12,2.94,1.12,4.06,0
	C142.73,221.44,142.73,219.63,141.61,218.52z M152.3,518.96c-0.4-0.4-1.06-0.4-1.46,0c-0.4,0.41-0.4,1.06,0,1.46
	c0.41,0.41,1.06,0.41,1.46,0C152.71,520.02,152.71,519.37,152.3,518.96z M167.58,97.39c-1.93-1.93-5.06-1.93-6.99,0
	c-1.93,1.93-1.93,5.04,0,6.97c1.93,1.93,5.06,1.93,6.99,0C169.51,102.44,169.51,99.32,167.58,97.39z M168.28,72.76
	c-2.31-2.31-6.07-2.31-8.38,0c-2.31,2.31-2.31,6.05,0,8.36c2.31,2.31,6.07,2.31,8.38,0C170.59,78.82,170.59,75.08,168.28,72.76z
	 M150.84,542.89c-0.4,0.4-0.4,1.06,0,1.46c0.41,0.4,1.06,0.4,1.46,0c0.4-0.41,0.4-1.06,0-1.46
	C151.9,542.49,151.25,542.49,150.84,542.89z M152.4,471c-0.46-0.46-1.2-0.46-1.66,0c-0.46,0.46-0.46,1.2,0,1.66
	c0.46,0.45,1.2,0.45,1.66,0C152.86,472.2,152.86,471.46,152.4,471z M152.34,494.99c-0.42-0.42-1.11-0.42-1.53,0
	c-0.42,0.42-0.42,1.11,0,1.53c0.42,0.42,1.11,0.42,1.53,0C152.76,496.1,152.76,495.42,152.34,494.99z M167.05,169.72
	c-1.63-1.63-4.29-1.63-5.92,0c-1.63,1.63-1.63,4.27,0,5.91c1.64,1.63,4.29,1.63,5.92,0C168.68,174,168.68,171.35,167.05,169.72z
	 M166.81,193.89c-1.5-1.5-3.95-1.5-5.46,0c-1.51,1.5-1.51,3.94,0,5.44c1.51,1.5,3.95,1.5,5.46,0
	C168.32,197.82,168.32,195.39,166.81,193.89z M167.41,121.49c-1.84-1.83-4.82-1.83-6.65,0c-1.84,1.83-1.84,4.8,0,6.64
	c1.84,1.83,4.81,1.83,6.65,0C169.25,126.29,169.25,123.32,167.41,121.49z M167.21,145.63c-1.73-1.73-4.53-1.73-6.25,0
	c-1.73,1.72-1.73,4.51,0,6.24c1.73,1.72,4.53,1.72,6.25,0C168.94,150.14,168.94,147.35,167.21,145.63z M153.6,230.48
	c-1.12-1.12-2.94-1.12-4.06,0c-1.12,1.12-1.12,2.93,0,4.05c1.12,1.12,2.94,1.12,4.06,0C154.72,233.41,154.72,231.6,153.6,230.48z
	 M153.37,278.58c-0.99-0.99-2.6-0.99-3.59,0c-0.99,0.99-0.99,2.59,0,3.59c0.99,0.99,2.6,0.99,3.59,0
	C154.36,281.17,154.36,279.57,153.37,278.58z M153.17,302.71c-0.88-0.88-2.31-0.88-3.19,0c-0.88,0.88-0.88,2.31,0,3.18
	c0.88,0.88,2.31,0.88,3.19,0C154.05,305.02,154.05,303.59,153.17,302.71z M152.44,447.03c-0.48-0.48-1.25-0.48-1.73,0
	c-0.48,0.48-0.48,1.25,0,1.73c0.48,0.48,1.25,0.48,1.73,0C152.91,448.28,152.91,447.51,152.44,447.03z M153.4,254.61
	c-1.01-1.01-2.65-1.01-3.66,0c-1.01,1.01-1.01,2.64,0,3.65c1.01,1.01,2.65,1.01,3.66,0C154.41,257.25,154.41,255.62,153.4,254.61z
	 M153.07,326.74c-0.83-0.82-2.17-0.82-2.99,0c-0.83,0.82-0.83,2.16,0,2.99c0.83,0.83,2.17,0.83,2.99,0
	C153.89,328.9,153.89,327.56,153.07,326.74z M153.73,206.42c-1.2-1.19-3.13-1.19-4.33,0c-1.19,1.19-1.19,3.12,0,4.31
	c1.2,1.19,3.13,1.19,4.33,0C154.93,209.54,154.93,207.61,153.73,206.42z M152.64,398.97c-0.59-0.58-1.54-0.58-2.13,0
	c-0.59,0.59-0.59,1.54,0,2.13c0.59,0.59,1.54,0.59,2.13,0C153.22,400.51,153.22,399.56,152.64,398.97z M152.57,422.97
	c-0.55-0.55-1.44-0.55-1.99,0c-0.55,0.55-0.55,1.44,0,1.99c0.55,0.55,1.44,0.55,1.99,0C153.12,424.41,153.12,423.52,152.57,422.97z
	 M152.77,374.9c-0.66-0.66-1.73-0.66-2.4,0c-0.66,0.66-0.66,1.73,0,2.39c0.66,0.66,1.73,0.66,2.4,0
	C153.43,376.63,153.43,375.56,152.77,374.9z M152.9,350.84c-0.73-0.73-1.93-0.73-2.66,0c-0.73,0.74-0.73,1.93,0,2.66
	c0.73,0.74,1.93,0.74,2.66,0C153.64,352.76,153.64,351.57,152.9,350.84z M116.62,410.97c-0.57-0.57-1.49-0.57-2.06,0
	c-0.57,0.57-0.57,1.49,0,2.06c0.57,0.57,1.49,0.57,2.06,0C117.19,412.46,117.19,411.53,116.62,410.97z M166.58,218.05
	c-1.38-1.37-3.61-1.37-4.99,0c-1.38,1.38-1.38,3.6,0,4.98c1.38,1.37,3.61,1.37,4.99,0C167.96,221.65,167.96,219.42,166.58,218.05z
	 M116.49,458.97c-0.5-0.5-1.3-0.5-1.8,0c-0.5,0.49-0.5,1.3,0,1.79c0.5,0.5,1.3,0.5,1.8,0C116.98,460.26,116.98,459.46,116.49,458.97
	z M116.95,338.84c-0.75-0.75-1.97-0.75-2.73,0c-0.75,0.75-0.75,1.97,0,2.72c0.75,0.75,1.97,0.75,2.73,0
	C117.71,340.81,117.71,339.59,116.95,338.84z M116.75,386.9c-0.65-0.64-1.69-0.64-2.33,0c-0.64,0.64-0.64,1.68,0,2.32
	c0.65,0.64,1.69,0.64,2.33,0C117.39,388.58,117.39,387.54,116.75,386.9z M116.92,362.8c-0.73-0.74-1.92-0.74-2.66,0
	c-0.73,0.73-0.73,1.92,0,2.66c0.74,0.73,1.93,0.73,2.66,0C117.65,364.72,117.65,363.53,116.92,362.8z M116.59,434.93
	c-0.55-0.55-1.44-0.55-2,0c-0.55,0.55-0.55,1.44,0,1.99c0.55,0.55,1.44,0.55,2,0C117.14,436.38,117.14,435.48,116.59,434.93z
	 M116.42,482.97c-0.46-0.46-1.2-0.46-1.66,0c-0.46,0.45-0.46,1.2,0,1.65c0.46,0.46,1.2,0.46,1.66,0
	C116.88,484.17,116.88,483.42,116.42,482.97z M132.04,60.53c-2.46-2.45-6.45-2.45-8.92,0c-2.46,2.46-2.46,6.44,0,8.89
	c2.46,2.46,6.46,2.46,8.92,0C134.5,66.97,134.5,62.99,132.04,60.53z M131.54,84.96c-2.18-2.18-5.73-2.18-7.91,0
	c-2.19,2.18-2.19,5.72,0,7.9c2.19,2.18,5.73,2.18,7.91,0C133.73,90.68,133.73,87.15,131.54,84.96z M114.82,530.9
	c-0.42,0.42-0.42,1.1,0,1.53c0.42,0.42,1.11,0.42,1.53,0c0.42-0.42,0.42-1.11,0-1.53C115.93,530.47,115.24,530.47,114.82,530.9z
	 M116.35,506.96c-0.42-0.42-1.11-0.42-1.53,0c-0.42,0.42-0.42,1.11,0,1.52c0.42,0.42,1.11,0.42,1.53,0
	C116.78,508.07,116.78,507.38,116.35,506.96z M118.71,145.63c-1.73-1.73-4.53-1.73-6.25,0c-1.73,1.72-1.73,4.51,0,6.24
	c1.73,1.72,4.53,1.72,6.25,0C120.44,150.14,120.44,147.35,118.71,145.63z M118.05,194.15c-1.36-1.36-3.56-1.36-4.92,0
	c-1.36,1.36-1.36,3.56,0,4.91c1.36,1.36,3.56,1.36,4.92,0C119.41,197.71,119.41,195.51,118.05,194.15z M131.31,109.13
	c-2.06-2.05-5.39-2.05-7.45,0c-2.05,2.05-2.05,5.38,0,7.43c2.06,2.06,5.39,2.06,7.45,0C133.36,114.51,133.36,111.18,131.31,109.13z
	 M118.18,170.09c-1.43-1.43-3.75-1.43-5.19,0c-1.43,1.43-1.43,3.75,0,5.18c1.43,1.43,3.76,1.43,5.19,0
	C119.61,173.83,119.61,171.51,118.18,170.09z M119.05,121.36c-1.91-1.91-5.01-1.91-6.92,0c-1.91,1.91-1.91,4.99,0,6.9
	c1.91,1.9,5.01,1.9,6.92,0C120.96,126.35,120.96,123.26,119.05,121.36z M70.94,128.13c1.84-1.83,1.84-4.8,0-6.64
	c-1.84-1.83-4.82-1.83-6.65,0c-1.04,1.04-1.47,2.45-1.33,3.8c0.11,0.44,0.22,0.89,0.33,1.33c0.23,0.54,0.56,1.05,1,1.5
	C66.12,129.96,69.1,129.96,70.94,128.13z M142.64,145.69c-1.69-1.69-4.43-1.69-6.12,0c-1.69,1.68-1.69,4.42,0,6.1
	c1.69,1.68,4.43,1.68,6.12,0C144.33,150.11,144.33,147.38,142.64,145.69z M117.55,218.58c-1.08-1.08-2.84-1.08-3.92,0
	c-1.08,1.08-1.08,2.84,0,3.92c1.08,1.08,2.84,1.08,3.92,0C118.63,221.42,118.63,219.66,117.55,218.58z M117.22,290.71
	c-0.9-0.9-2.36-0.9-3.26,0c-0.9,0.9-0.9,2.36,0,3.26c0.9,0.9,2.36,0.9,3.26,0C118.12,293.07,118.12,291.61,117.22,290.71z
	 M117.38,266.61c-0.99-0.99-2.6-0.99-3.59,0c-0.99,0.99-0.99,2.6,0,3.59c0.99,0.99,2.6,0.99,3.59,0
	C118.37,269.21,118.37,267.6,117.38,266.61z M117.45,242.61c-1.03-1.03-2.69-1.03-3.72,0c-1.03,1.03-1.03,2.69,0,3.72
	c1.03,1.03,2.7,1.03,3.72,0C118.48,245.3,118.48,243.64,117.45,242.61z M117.12,314.74c-0.85-0.84-2.21-0.84-3.06,0
	c-0.84,0.84-0.84,2.21,0,3.06c0.85,0.84,2.21,0.84,3.06,0C117.96,316.95,117.96,315.58,117.12,314.74z M128.38,494.96
	c-0.44-0.44-1.16-0.44-1.6,0c-0.44,0.44-0.44,1.16,0,1.6c0.44,0.44,1.16,0.44,1.6,0C128.82,496.12,128.82,495.4,128.38,494.96z
	 M128.41,471c-0.46-0.46-1.2-0.46-1.66,0c-0.46,0.46-0.46,1.2,0,1.66c0.46,0.45,1.2,0.45,1.66,0
	C128.87,472.2,128.87,471.46,128.41,471z M126.85,542.89c-0.4,0.4-0.4,1.06,0,1.46c0.4,0.4,1.06,0.4,1.46,0
	c0.4-0.41,0.4-1.06,0-1.46C127.91,542.49,127.25,542.49,126.85,542.89z M130.84,133.52c-1.8-1.8-4.72-1.8-6.52,0
	c-1.8,1.8-1.8,4.71,0,6.51c1.8,1.8,4.72,1.8,6.52,0C132.64,138.23,132.64,135.32,130.84,133.52z M128.58,422.97
	c-0.55-0.55-1.45-0.55-1.99,0c-0.55,0.55-0.55,1.44,0,1.99c0.55,0.55,1.44,0.55,1.99,0C129.13,424.41,129.13,423.52,128.58,422.97z
	 M143.07,121.32c-1.93-1.93-5.05-1.93-6.98,0c-1.93,1.93-1.93,5.05,0,6.97c1.93,1.93,5.06,1.93,6.98,0
	C145,126.37,145,123.25,143.07,121.32z M143.34,97.13c-2.08-2.07-5.44-2.07-7.52,0c-2.08,2.07-2.08,5.43,0,7.5
	c2.08,2.07,5.44,2.07,7.52,0C145.41,102.56,145.41,99.2,143.34,97.13z M128.71,398.9c-0.62-0.62-1.64-0.62-2.26,0
	c-0.63,0.62-0.63,1.63,0,2.26c0.62,0.63,1.64,0.63,2.26,0C129.34,400.53,129.34,399.52,128.71,398.9z M128.35,518.93
	c-0.42-0.42-1.11-0.42-1.53,0c-0.42,0.42-0.42,1.11,0,1.53c0.42,0.42,1.11,0.42,1.53,0C128.77,520.03,128.77,519.35,128.35,518.93z
	 M143.8,72.73c-2.33-2.33-6.11-2.33-8.45,0c-2.33,2.33-2.33,6.1,0,8.43c2.33,2.33,6.11,2.33,8.45,0
	C146.13,78.83,146.13,75.06,143.8,72.73z M128.51,446.97c-0.51-0.51-1.35-0.51-1.86,0c-0.51,0.51-0.51,1.34,0,1.86
	c0.52,0.51,1.35,0.51,1.86,0C129.03,448.31,129.03,447.48,128.51,446.97z M129.58,230.51c-1.11-1.1-2.89-1.1-3.99,0
	c-1.1,1.1-1.1,2.88,0,3.98c1.11,1.1,2.89,1.1,3.99,0C130.68,233.4,130.68,231.62,129.58,230.51z M129.64,206.51
	c-1.14-1.13-2.99-1.13-4.13,0c-1.14,1.14-1.14,2.98,0,4.12c1.14,1.14,2.99,1.14,4.13,0C130.78,209.49,130.78,207.65,129.64,206.51z
	 M129.91,182.32c-1.28-1.28-3.37-1.28-4.66,0c-1.28,1.28-1.28,3.36,0,4.65c1.28,1.28,3.37,1.28,4.66,0
	C131.19,185.68,131.19,183.6,129.91,182.32z M129.38,254.65c-0.99-1-2.6-1-3.59,0c-0.99,0.99-0.99,2.59,0,3.58
	c0.99,0.99,2.6,0.99,3.59,0C130.37,257.24,130.37,255.63,129.38,254.65z M130.41,157.89c-1.56-1.56-4.09-1.56-5.65,0
	c-1.56,1.56-1.56,4.09,0,5.64c1.56,1.56,4.09,1.56,5.65,0C131.97,161.97,131.97,159.45,130.41,157.89z M129.18,302.71
	c-0.88-0.88-2.31-0.88-3.19,0c-0.88,0.88-0.88,2.31,0,3.18c0.88,0.88,2.31,0.88,3.19,0C130.06,305.02,130.06,303.59,129.18,302.71z
	 M129.01,326.81c-0.79-0.79-2.07-0.79-2.86,0c-0.79,0.79-0.79,2.07,0,2.85c0.79,0.79,2.07,0.79,2.86,0
	C129.8,328.87,129.8,327.59,129.01,326.81z M128.95,350.8c-0.75-0.75-1.97-0.75-2.73,0c-0.75,0.75-0.75,1.97,0,2.72
	c0.75,0.75,1.97,0.75,2.73,0C129.7,352.78,129.7,351.56,128.95,350.8z M129.31,278.65c-0.95-0.95-2.5-0.95-3.46,0
	c-0.96,0.95-0.96,2.5,0,3.45c0.96,0.95,2.5,0.95,3.46,0C130.27,281.14,130.27,279.6,129.31,278.65z M128.85,374.84
	c-0.7-0.7-1.83-0.7-2.53,0c-0.7,0.7-0.7,1.83,0,2.53c0.7,0.69,1.83,0.69,2.53,0C129.54,376.66,129.54,375.53,128.85,374.84z
	 M140.84,362.87c-0.7-0.69-1.83-0.69-2.53,0c-0.7,0.7-0.7,1.83,0,2.53c0.7,0.69,1.83,0.69,2.53,0
	C141.54,364.7,141.54,363.57,140.84,362.87z M202.83,181.89c-1.53-1.52-3.99-1.52-5.52,0c-1.52,1.52-1.52,3.99,0,5.51
	c1.53,1.52,4,1.52,5.52,0C204.35,185.87,204.35,183.41,202.83,181.89z M203.1,157.69c-1.67-1.67-4.38-1.67-6.06,0
	c-1.67,1.67-1.67,4.37,0,6.04c1.67,1.67,4.39,1.67,6.06,0C204.77,162.06,204.77,159.36,203.1,157.69z M203.33,133.52
	c-1.8-1.8-4.72-1.8-6.52,0c-1.8,1.8-1.8,4.71,0,6.51c1.8,1.8,4.72,1.8,6.52,0C205.13,138.23,205.13,135.32,203.33,133.52z
	 M203.56,109.36c-1.93-1.93-5.06-1.93-6.99,0c-1.93,1.92-1.93,5.04,0,6.97c1.93,1.93,5.06,1.93,6.99,0
	C205.49,114.4,205.49,111.28,203.56,109.36z M203.73,85.26c-2.02-2.01-5.3-2.01-7.32,0c-2.02,2.02-2.02,5.29,0,7.3
	c2.02,2.01,5.3,2.01,7.32,0C205.75,90.55,205.75,87.28,203.73,85.26z M204.23,60.83c-2.3-2.29-6.02-2.29-8.32,0
	c-2.3,2.29-2.3,6.01,0,8.3c2.3,2.29,6.02,2.29,8.32,0C206.52,66.84,206.52,63.12,204.23,60.83z M201.66,302.71
	c-0.88-0.88-2.31-0.88-3.19,0c-0.88,0.88-0.88,2.31,0,3.18c0.88,0.88,2.31,0.88,3.19,0C202.55,305.02,202.55,303.59,201.66,302.71z
	 M202,278.44c-1.06-1.06-2.79-1.06-3.86,0c-1.07,1.07-1.07,2.79,0,3.85c1.07,1.07,2.79,1.07,3.86,0
	C203.06,281.23,203.06,279.51,202,278.44z M202.16,254.35c-1.15-1.15-3.03-1.15-4.19,0c-1.15,1.15-1.15,3.03,0,4.18
	c1.16,1.16,3.04,1.16,4.19,0C203.32,257.37,203.32,255.5,202.16,254.35z M202.36,230.22c-1.27-1.27-3.32-1.27-4.59,0
	c-1.27,1.27-1.27,3.31,0,4.58c1.27,1.27,3.32,1.27,4.59,0C203.63,233.53,203.63,231.48,202.36,230.22z M202.5,206.15
	c-1.34-1.34-3.52-1.34-4.85,0c-1.34,1.34-1.34,3.51,0,4.85c1.34,1.34,3.51,1.34,4.85,0C203.84,209.66,203.84,207.49,202.5,206.15z
	 M189.31,386.84c-0.68-0.68-1.78-0.68-2.46,0c-0.68,0.68-0.68,1.78,0,2.46c0.68,0.68,1.78,0.68,2.46,0
	C189.98,388.62,189.98,387.52,189.31,386.84z M189.14,434.87c-0.59-0.59-1.54-0.59-2.13,0c-0.59,0.58-0.59,1.54,0,2.12
	c0.59,0.59,1.54,0.59,2.13,0C189.73,436.4,189.73,435.45,189.14,434.87z M189.21,410.87c-0.63-0.62-1.64-0.62-2.26,0
	c-0.62,0.62-0.62,1.64,0,2.26c0.63,0.62,1.64,0.62,2.26,0S189.83,411.49,189.21,410.87z M201.57,326.74c-0.83-0.82-2.17-0.82-2.99,0
	c-0.83,0.82-0.83,2.16,0,2.99c0.83,0.83,2.17,0.83,2.99,0C202.39,328.9,202.39,327.56,201.57,326.74z M189.44,362.77
	c-0.75-0.75-1.98-0.75-2.73,0c-0.75,0.75-0.75,1.97,0,2.72c0.75,0.75,1.98,0.75,2.73,0C190.19,364.74,190.19,363.52,189.44,362.77z
	 M189.57,338.71c-0.83-0.82-2.17-0.82-2.99,0c-0.83,0.82-0.83,2.16,0,2.99c0.83,0.82,2.17,0.82,2.99,0
	C190.4,340.87,190.4,339.53,189.57,338.71z M189.01,482.86c-0.52-0.51-1.35-0.51-1.86,0c-0.51,0.51-0.51,1.35,0,1.86
	c0.52,0.52,1.35,0.52,1.86,0C189.52,484.21,189.52,483.38,189.01,482.86z M187.21,530.79c-0.48,0.48-0.48,1.25,0,1.73
	c0.48,0.48,1.25,0.48,1.73,0c0.48-0.48,0.48-1.25,0-1.73C188.46,530.32,187.69,530.32,187.21,530.79z M189.07,458.87
	c-0.55-0.55-1.44-0.55-1.99,0c-0.55,0.55-0.55,1.44,0,1.99c0.55,0.55,1.44,0.55,1.99,0C189.62,460.31,189.62,459.42,189.07,458.87z
	 M188.97,506.83c-0.5-0.5-1.3-0.5-1.8,0c-0.49,0.49-0.49,1.29,0,1.79c0.5,0.5,1.3,0.5,1.8,0
	C189.47,508.13,189.47,507.32,188.97,506.83z M206.29,40.69h-12.44c-0.1,1.71,0.49,3.46,1.8,4.77c2.44,2.44,6.4,2.44,8.85,0
	C205.8,44.15,206.39,42.41,206.29,40.69z M201.33,374.84c-0.7-0.7-1.83-0.7-2.53,0c-0.7,0.7-0.7,1.83,0,2.53
	c0.7,0.69,1.83,0.69,2.53,0C202.03,376.66,202.03,375.53,201.33,374.84z M214.83,193.85c-1.53-1.52-4-1.52-5.52,0
	c-1.52,1.52-1.52,3.99,0,5.51c1.53,1.52,3.99,1.52,5.52,0C216.35,197.84,216.35,195.37,214.83,193.85z M214.96,169.79
	c-1.6-1.6-4.19-1.6-5.79,0c-1.6,1.6-1.6,4.18,0,5.77c1.6,1.59,4.19,1.59,5.79,0C216.56,173.97,216.56,171.38,214.96,169.79z
	 M215.32,145.49c-1.8-1.8-4.72-1.8-6.52,0c-1.8,1.8-1.8,4.7,0,6.51c1.8,1.8,4.72,1.8,6.52,0
	C217.12,150.2,217.12,147.29,215.32,145.49z M214.36,218.25c-1.27-1.27-3.32-1.27-4.59,0c-1.27,1.26-1.27,3.31,0,4.58
	c1.27,1.27,3.32,1.27,4.59,0S215.63,219.51,214.36,218.25z M215.45,121.43c-1.87-1.87-4.91-1.87-6.78,0c-1.87,1.87-1.87,4.9,0,6.77
	c1.87,1.87,4.91,1.87,6.78,0C217.33,126.33,217.33,123.29,215.45,121.43z M213.66,314.67c-0.88-0.88-2.31-0.88-3.19,0
	c-0.88,0.88-0.88,2.3,0,3.19c0.88,0.88,2.31,0.88,3.19,0C214.54,316.98,214.54,315.56,213.66,314.67z M215.56,97.39
	c-1.93-1.93-5.06-1.93-6.99,0c-1.93,1.93-1.93,5.04,0,6.97c1.93,1.93,5.06,1.93,6.99,0C217.49,102.44,217.49,99.32,215.56,97.39z
	 M213.86,290.55c-0.99-0.99-2.6-0.99-3.59,0c-0.99,0.99-0.99,2.59,0,3.58c0.99,0.99,2.6,0.99,3.59,0
	C214.85,293.14,214.85,291.53,213.86,290.55z M214.16,266.31c-1.16-1.16-3.04-1.16-4.19,0c-1.16,1.15-1.16,3.03,0,4.18
	c1.15,1.16,3.03,1.16,4.19,0C215.32,269.34,215.32,267.47,214.16,266.31z M214.26,242.28c-1.21-1.21-3.18-1.21-4.39,0
	c-1.21,1.21-1.21,3.17,0,4.38c1.21,1.21,3.18,1.21,4.39,0C215.47,245.45,215.47,243.49,214.26,242.28z M201.07,446.9
	c-0.55-0.55-1.45-0.55-2,0c-0.55,0.55-0.55,1.44,0,1.99c0.55,0.55,1.44,0.55,2,0C201.62,448.34,201.62,447.45,201.07,446.9z
	 M201.46,350.77c-0.77-0.77-2.02-0.77-2.79,0c-0.77,0.77-0.77,2.02,0,2.79c0.77,0.77,2.02,0.77,2.79,0
	C202.24,352.79,202.24,351.54,201.46,350.77z M201.13,422.9c-0.59-0.59-1.54-0.59-2.13,0c-0.59,0.58-0.59,1.54,0,2.12
	c0.59,0.59,1.54,0.59,2.13,0C201.72,424.44,201.72,423.49,201.13,422.9z M201,470.9c-0.52-0.51-1.35-0.51-1.86,0
	c-0.52,0.52-0.52,1.35,0,1.86c0.51,0.51,1.35,0.51,1.86,0C201.51,472.24,201.51,471.41,201,470.9z M189.64,314.71
	c-0.86-0.86-2.26-0.86-3.12,0c-0.87,0.86-0.87,2.26,0,3.12c0.86,0.86,2.26,0.86,3.12,0C190.5,316.97,190.5,315.57,189.64,314.71z
	 M201.17,398.93c-0.61-0.61-1.59-0.61-2.2,0c-0.6,0.61-0.6,1.59,0,2.19c0.61,0.61,1.59,0.61,2.2,0
	C201.77,400.52,201.77,399.54,201.17,398.93z M200.97,518.8c-0.5-0.49-1.3-0.49-1.8,0c-0.5,0.49-0.5,1.3,0,1.79
	c0.5,0.49,1.3,0.49,1.8,0C201.46,520.09,201.46,519.29,200.97,518.8z M216.22,48.86c-2.3-2.29-6.02-2.29-8.32,0
	c-2.29,2.29-2.29,6,0,8.3c2.3,2.29,6.02,2.29,8.32,0C218.52,54.87,218.52,51.16,216.22,48.86z M215.89,73.13
	c-2.11-2.11-5.54-2.11-7.65,0c-2.11,2.11-2.11,5.52,0,7.63c2.11,2.11,5.53,2.11,7.65,0C218,78.65,218,75.24,215.89,73.13z
	 M199.27,542.83c-0.44,0.44-0.44,1.15,0,1.6c0.44,0.44,1.15,0.44,1.6,0c0.44-0.44,0.44-1.15,0-1.6
	C200.43,542.39,199.71,542.39,199.27,542.83z M200.97,496.66c0.5-0.49,0.5-1.3,0-1.79c-0.49-0.5-1.3-0.5-1.79,0
	c-0.5,0.49-0.5,1.3,0,1.79C199.67,497.15,200.47,497.15,200.97,496.66z M177.01,494.83c-0.51-0.51-1.35-0.51-1.86,0
	c-0.51,0.51-0.51,1.34,0,1.86c0.52,0.51,1.35,0.51,1.86,0C177.53,496.17,177.53,495.34,177.01,494.83z M179.57,109.36
	c-1.93-1.93-5.06-1.93-6.98,0c-1.93,1.92-1.93,5.04,0,6.97c1.93,1.92,5.06,1.92,6.98,0C181.5,114.4,181.5,111.28,179.57,109.36z
	 M213.46,338.8c-0.77-0.77-2.02-0.77-2.79,0c-0.78,0.77-0.78,2.02,0,2.79c0.77,0.77,2.02,0.77,2.79,0
	C214.23,340.82,214.23,339.58,213.46,338.8z M165.01,506.8c-0.51-0.51-1.35-0.51-1.86,0c-0.52,0.51-0.52,1.34,0,1.86
	c0.51,0.51,1.34,0.51,1.86,0C165.53,508.14,165.53,507.31,165.01,506.8z M179.21,133.66c-1.73-1.72-4.53-1.72-6.26,0
	c-1.72,1.72-1.72,4.51,0,6.24c1.73,1.72,4.53,1.72,6.26,0C180.93,138.17,180.93,135.38,179.21,133.66z M180.64,60.43
	c-2.52-2.51-6.6-2.51-9.12,0c-2.52,2.51-2.52,6.58,0,9.09c2.52,2.51,6.6,2.51,9.12,0C183.15,67.02,183.15,62.95,180.64,60.43z
	 M179.07,157.72c-1.65-1.65-4.33-1.65-5.99,0c-1.65,1.65-1.65,4.32,0,5.97c1.65,1.65,4.33,1.65,5.99,0
	C180.72,162.04,180.72,159.37,179.07,157.72z M178.57,230.02c-1.38-1.37-3.61-1.37-4.99,0c-1.38,1.38-1.38,3.6,0,4.98
	c1.38,1.37,3.61,1.37,4.99,0C179.95,233.62,179.95,231.39,178.57,230.02z M178.18,254.35c-1.16-1.15-3.04-1.15-4.19,0
	c-1.16,1.15-1.16,3.03,0,4.18c1.16,1.16,3.03,1.16,4.19,0C179.33,257.37,179.33,255.5,178.18,254.35z M163.22,530.79
	c-0.48,0.48-0.48,1.25,0,1.73c0.48,0.48,1.25,0.48,1.73,0c0.48-0.48,0.48-1.25,0-1.73C164.47,530.32,163.7,530.32,163.22,530.79z
	 M178.67,205.99c-1.43-1.43-3.75-1.43-5.19,0s-1.43,3.74,0,5.18s3.76,1.43,5.19,0C180.11,209.73,180.11,207.42,178.67,205.99z
	 M178.81,181.92c-1.5-1.5-3.95-1.5-5.45,0c-1.51,1.5-1.51,3.94,0,5.44c1.51,1.5,3.95,1.5,5.45,0
	C180.31,185.86,180.31,183.42,178.81,181.92z M165.58,338.71c-0.83-0.82-2.17-0.82-3,0c-0.82,0.82-0.82,2.16,0,2.99
	c0.83,0.82,2.17,0.82,3,0C166.41,340.87,166.41,339.53,165.58,338.71z M165.78,314.57c-0.93-0.93-2.46-0.93-3.39,0
	c-0.94,0.93-0.94,2.45,0,3.39c0.93,0.93,2.46,0.93,3.39,0C166.72,317.03,166.72,315.51,165.78,314.57z M165.51,362.7
	c-0.79-0.79-2.07-0.79-2.86,0c-0.79,0.79-0.79,2.07,0,2.85c0.79,0.79,2.07,0.79,2.86,0C166.3,364.77,166.3,363.49,165.51,362.7z
	 M178.11,278.35c-1.12-1.12-2.94-1.12-4.06,0c-1.12,1.12-1.12,2.93,0,4.05c1.12,1.12,2.94,1.12,4.06,0
	C179.23,281.28,179.23,279.46,178.11,278.35z M165.05,482.83c-0.53-0.53-1.4-0.53-1.93,0c-0.53,0.53-0.53,1.39,0,1.93
	c0.54,0.53,1.4,0.53,1.93,0C165.58,484.22,165.58,483.36,165.05,482.83z M166.18,266.31c-1.16-1.16-3.03-1.16-4.19,0
	c-1.16,1.15-1.16,3.03,0,4.18c1.16,1.16,3.03,1.16,4.19,0C167.34,269.34,167.34,267.47,166.18,266.31z M165.95,290.48
	c-1.03-1.03-2.7-1.03-3.72,0c-1.03,1.02-1.03,2.69,0,3.72c1.03,1.03,2.69,1.03,3.72,0C166.98,293.17,166.98,291.5,165.95,290.48z
	 M165.22,434.8c-0.62-0.62-1.64-0.62-2.26,0c-0.63,0.63-0.63,1.63,0,2.26c0.62,0.62,1.64,0.62,2.26,0
	C165.84,436.43,165.84,435.43,165.22,434.8z M165.08,458.87c-0.55-0.55-1.44-0.55-2,0c-0.55,0.55-0.55,1.44,0,1.99
	c0.55,0.55,1.45,0.55,2,0C165.63,460.31,165.63,459.42,165.08,458.87z M165.32,410.77c-0.68-0.68-1.78-0.68-2.46,0
	c-0.68,0.68-0.68,1.78,0,2.46c0.68,0.68,1.78,0.68,2.46,0C166,412.55,166,411.45,165.32,410.77z M165.35,386.8
	c-0.7-0.69-1.83-0.69-2.53,0c-0.7,0.7-0.7,1.83,0,2.52c0.7,0.7,1.83,0.7,2.53,0C166.04,388.63,166.04,387.5,165.35,386.8z
	 M192.3,48.8c-2.33-2.33-6.11-2.33-8.45,0c-2.33,2.33-2.33,6.1,0,8.43c2.33,2.33,6.12,2.33,8.45,0
	C194.63,54.9,194.63,51.12,192.3,48.8z M191.4,121.49c-1.83-1.83-4.81-1.83-6.65,0c-1.84,1.83-1.84,4.8,0,6.64
	c1.84,1.83,4.82,1.83,6.65,0C193.24,126.29,193.24,123.32,191.4,121.49z M190.93,169.82c-1.58-1.57-4.14-1.57-5.72,0
	c-1.58,1.57-1.58,4.13,0,5.71c1.58,1.58,4.14,1.58,5.72,0C192.51,173.95,192.51,171.39,190.93,169.82z M191.27,145.56
	c-1.76-1.76-4.62-1.76-6.39,0c-1.76,1.76-1.76,4.61,0,6.37c1.76,1.76,4.62,1.76,6.39,0C193.03,150.17,193.03,147.31,191.27,145.56z
	 M191.5,97.46c-1.89-1.89-4.96-1.89-6.85,0c-1.89,1.89-1.89,4.95,0,6.84c1.89,1.89,4.96,1.89,6.85,0
	C193.39,102.41,193.39,99.35,191.5,97.46z M177.78,302.61c-0.94-0.94-2.46-0.94-3.39,0c-0.94,0.94-0.94,2.45,0,3.38
	c0.94,0.94,2.46,0.94,3.39,0C178.71,305.06,178.71,303.55,177.78,302.61z M190.17,266.31c-1.16-1.16-3.03-1.16-4.19,0
	c-1.15,1.15-1.15,3.03,0,4.18c1.16,1.16,3.04,1.16,4.19,0C191.33,269.34,191.33,267.47,190.17,266.31z M189.9,290.51
	c-1.01-1.01-2.65-1.01-3.66,0c-1.01,1.01-1.01,2.64,0,3.65c1.01,1.01,2.65,1.01,3.66,0C190.92,293.15,190.92,291.52,189.9,290.51z
	 M190.83,193.85c-1.52-1.52-3.99-1.52-5.52,0c-1.52,1.52-1.52,3.99,0,5.51c1.53,1.52,4,1.52,5.52,0
	C192.36,197.84,192.36,195.37,190.83,193.85z M190.3,242.25c-1.23-1.23-3.23-1.23-4.46,0c-1.23,1.23-1.23,3.22,0,4.45
	c1.23,1.23,3.23,1.23,4.46,0C191.53,245.47,191.53,243.48,190.3,242.25z M190.4,218.22c-1.29-1.28-3.37-1.28-4.66,0
	c-1.28,1.28-1.28,3.36,0,4.65c1.29,1.28,3.37,1.28,4.66,0C191.69,221.58,191.69,219.5,190.4,218.22z M191.93,73.1
	c-2.13-2.13-5.59-2.13-7.72,0c-2.13,2.13-2.13,5.57,0,7.7c2.13,2.12,5.59,2.12,7.72,0C194.06,78.67,194.06,75.22,191.93,73.1z
	 M177.38,374.8c-0.72-0.72-1.88-0.72-2.59,0c-0.72,0.71-0.72,1.87,0,2.59c0.72,0.71,1.88,0.71,2.59,0
	C178.1,376.68,178.1,375.52,177.38,374.8z M177.34,398.77c-0.7-0.69-1.83-0.69-2.53,0c-0.7,0.7-0.7,1.82,0,2.52
	c0.7,0.69,1.83,0.69,2.53,0C178.04,400.59,178.04,399.47,177.34,398.77z M177.01,518.76c-0.51-0.51-1.35-0.51-1.86,0
	c-0.51,0.51-0.51,1.35,0,1.86c0.52,0.51,1.35,0.51,1.86,0C177.53,520.11,177.53,519.27,177.01,518.76z M177.68,326.64
	c-0.88-0.88-2.31-0.88-3.19,0c-0.88,0.88-0.88,2.3,0,3.19c0.88,0.88,2.31,0.88,3.19,0C178.56,328.95,178.56,327.52,177.68,326.64z
	 M177.21,422.83c-0.63-0.62-1.64-0.62-2.26,0c-0.63,0.62-0.63,1.63,0,2.26c0.63,0.62,1.64,0.62,2.26,0
	C177.83,424.47,177.83,423.46,177.21,422.83z M177.57,350.67c-0.82-0.83-2.17-0.83-2.99,0c-0.83,0.82-0.83,2.16,0,2.99
	c0.83,0.82,2.17,0.82,2.99,0C178.4,352.83,178.4,351.5,177.57,350.67z M177.14,446.83c-0.59-0.58-1.54-0.58-2.13,0
	c-0.59,0.59-0.59,1.54,0,2.13c0.59,0.59,1.54,0.59,2.13,0C177.73,448.37,177.73,447.42,177.14,446.83z M175.22,542.76
	c-0.48,0.48-0.48,1.25,0,1.73c0.48,0.48,1.25,0.48,1.73,0s0.48-1.25,0-1.73C176.47,542.28,175.69,542.28,175.22,542.76z
	 M166.48,242.08c-1.32-1.32-3.46-1.32-4.79,0c-1.32,1.32-1.32,3.46,0,4.78c1.33,1.32,3.47,1.32,4.79,0
	C167.8,245.54,167.8,243.4,166.48,242.08z M177.04,470.86c-0.53-0.53-1.4-0.53-1.93,0c-0.53,0.53-0.53,1.4,0,1.93
	c0.53,0.53,1.4,0.53,1.93,0C177.58,472.26,177.58,471.4,177.04,470.86z M179.77,85.23c-2.04-2.03-5.35-2.03-7.38,0
	c-2.04,2.04-2.04,5.33,0,7.37c2.04,2.03,5.34,2.03,7.38,0C181.81,90.56,181.81,87.26,179.77,85.23z M436.92,109.29
	c-1.97,1.96-1.97,5.14,0,7.11c1.44,1.44,3.55,1.81,5.34,1.13c0.67-2.9,1.29-5.63,1.84-8.16c-0.02-0.03-0.04-0.06-0.07-0.08
	C442.07,107.33,438.89,107.33,436.92,109.29z M384.07,58.37c-3.04-0.98-6.22-1.97-9.54-2.96c0.31,0.78,0.79,1.52,1.42,2.15
	C378.16,59.76,381.56,60.03,384.07,58.37z M94.43,169.85c-1.56-1.56-4.09-1.56-5.65,0c-1.56,1.56-1.56,4.08,0,5.64
	c1.56,1.56,4.09,1.56,5.65,0C95.99,173.94,95.99,171.41,94.43,169.85z M171.16,45.96c2.72,2.71,7.13,2.71,9.84,0
	c1.45-1.45,2.1-3.37,2.01-5.27h-13.86C169.05,42.59,169.71,44.51,171.16,45.96z M135.25,57.33c2.39,2.38,6.26,2.38,8.65,0
	c1.77-1.77,2.22-4.35,1.37-6.53c-4.08,1.08-7.98,2.16-11.71,3.23C133.76,55.23,134.32,56.39,135.25,57.33z M407.92,97.46
	c-1.89-1.89-4.96-1.89-6.85,0c-1.89,1.89-1.89,4.95,0,6.84c1.89,1.89,4.96,1.89,6.85,0C409.82,102.41,409.82,99.35,407.92,97.46z
	 M99.27,69.29c2.39,2.38,6.26,2.38,8.65,0c2.01-2.01,2.3-5.05,0.93-7.38c-4.04,1.43-7.78,2.84-11.26,4.22
	C97.81,67.29,98.37,68.4,99.27,69.29z M408.36,73.1c-2.13-2.13-5.59-2.13-7.72,0c-2.13,2.13-2.13,5.57,0,7.7
	c2.13,2.12,5.59,2.12,7.72,0C410.49,78.67,410.49,75.22,408.36,73.1z M402.17,218.22c-1.28,1.28-1.28,3.36,0,4.65
	c1.29,1.28,3.37,1.28,4.66,0c1.28-1.28,1.28-3.36,0-4.65C405.54,216.93,403.45,216.93,402.17,218.22z M407.82,121.49
	c-1.83-1.83-4.81-1.83-6.65,0c-1.84,1.83-1.84,4.8,0,6.64c1.84,1.83,4.82,1.83,6.65,0C409.66,126.29,409.66,123.32,407.82,121.49z
	 M407.26,193.85c-1.52-1.52-4-1.52-5.52,0c-1.52,1.52-1.52,3.99,0,5.51c1.53,1.52,4,1.52,5.52,0
	C408.78,197.84,408.78,195.37,407.26,193.85z M407.36,169.82c-1.58-1.57-4.14-1.57-5.72,0c-1.58,1.57-1.58,4.13,0,5.71
	c1.58,1.58,4.14,1.58,5.72,0C408.94,173.95,408.94,171.39,407.36,169.82z M407.69,145.56c-1.76-1.76-4.62-1.76-6.39,0
	c-1.76,1.76-1.76,4.61,0,6.37c1.76,1.76,4.62,1.76,6.39,0C409.46,150.17,409.46,147.31,407.69,145.56z M89.1,194.12
	c-1.38,1.37-1.38,3.6,0,4.97c1.38,1.37,3.61,1.37,4.99,0c1.38-1.37,1.38-3.6,0-4.97C92.71,192.74,90.48,192.74,89.1,194.12z
	 M402.27,242.25c-1.23,1.23-1.23,3.22,0,4.45c0.51,0.51,1.14,0.79,1.8,0.88c0.3-2.2,0.58-4.26,0.86-6.21
	C403.98,241.24,402.99,241.53,402.27,242.25z M95.75,81.09c2.3-2.29,2.3-6.01,0-8.3c-2.29-2.29-6.02-2.29-8.31,0
	c-2.3,2.29-2.3,6.01,0,8.3C89.74,83.38,93.46,83.38,95.75,81.09z M55.37,90.13c0,0,0.26,1.47,0.77,4.13c1.2-0.12,2.38-0.61,3.3-1.53
	c1.87-1.87,2.08-4.76,0.63-6.86C56.62,88.56,55.37,90.13,55.37,90.13z M65.33,82.14c2.08,0.91,4.59,0.52,6.3-1.18
	c0.99-0.99,1.52-2.26,1.62-3.56C70.14,79.11,67.52,80.7,65.33,82.14z M71.33,104.59c2.06-2.05,2.06-5.38,0-7.43
	c-2.06-2.05-5.39-2.05-7.45,0c-2.06,2.05-2.06,5.38,0,7.43C65.94,106.65,69.28,106.65,71.33,104.59z M83.49,85.03
	c-2.15-2.14-5.63-2.14-7.78,0c-2.15,2.14-2.15,5.62,0,7.76c2.15,2.15,5.64,2.15,7.78,0C85.64,90.65,85.64,87.17,83.49,85.03z
	 M76.58,157.69c-1.67,1.67-1.67,4.37,0,6.04c1.67,1.67,4.38,1.67,6.06,0c1.67-1.67,1.67-4.37,0-6.04
	C80.96,156.02,78.25,156.02,76.58,157.69z M82.73,133.66c-1.72-1.72-4.53-1.72-6.25,0c-1.73,1.72-1.73,4.51,0,6.24
	c1.72,1.72,4.53,1.72,6.25,0C84.46,138.17,84.46,135.38,82.73,133.66z M83.33,109.13c-2.06-2.05-5.39-2.05-7.45,0
	c-2.06,2.05-2.06,5.38,0,7.43c2.06,2.06,5.39,2.06,7.45,0C85.38,114.51,85.38,111.18,83.33,109.13z M95.26,104.53
	c2.02-2.02,2.02-5.28,0-7.3c-2.02-2.01-5.3-2.01-7.32,0c-2.02,2.02-2.02,5.28,0,7.3C89.96,106.54,93.24,106.54,95.26,104.53z
	 M431.98,97.39c-1.93-1.93-5.06-1.93-6.99,0c-1.93,1.93-1.93,5.04,0,6.97c1.93,1.93,5.06,1.93,6.99,0
	C433.91,102.44,433.91,99.32,431.98,97.39z M413.73,181.89c-1.52,1.52-1.52,3.99,0,5.51c1.53,1.52,4,1.52,5.52,0
	c1.52-1.52,1.52-3.99,0-5.51C417.73,180.37,415.26,180.37,413.73,181.89z M419.52,157.69c-1.67-1.67-4.38-1.67-6.06,0
	c-1.67,1.67-1.67,4.37,0,6.04c1.67,1.67,4.39,1.67,6.06,0C421.19,162.06,421.19,159.36,419.52,157.69z M419.75,133.52
	c-1.8-1.8-4.72-1.8-6.52,0c-1.8,1.8-1.8,4.71,0,6.51c1.8,1.8,4.72,1.8,6.52,0C421.55,138.23,421.55,135.32,419.75,133.52z
	 M419.99,109.36c-1.93-1.93-5.06-1.93-6.99,0c-1.93,1.92-1.93,5.04,0,6.97c1.93,1.93,5.06,1.93,6.99,0
	C421.91,114.4,421.91,111.28,419.99,109.36z M424.66,80.76c2.11,2.11,5.53,2.11,7.65,0c0.45-0.45,0.79-0.97,1.05-1.52
	c-2.69-1.58-5.83-3.29-9.48-5.1C422.61,76.22,422.86,78.96,424.66,80.76z M425.23,145.49c-1.8,1.8-1.8,4.7,0,6.51
	c1.8,1.8,4.72,1.8,6.52,0c1.8-1.8,1.8-4.71,0-6.51C429.95,143.69,427.03,143.69,425.23,145.49z M431.88,121.43
	c-1.87-1.87-4.91-1.87-6.78,0c-1.87,1.87-1.87,4.9,0,6.77c1.87,1.87,4.91,1.87,6.78,0C433.75,126.33,433.75,123.29,431.88,121.43z
	 M420.15,85.26c-2.02-2.01-5.3-2.01-7.32,0c-2.02,2.02-2.02,5.29,0,7.3c2.02,2.01,5.3,2.01,7.32,0
	C422.17,90.55,422.17,87.28,420.15,85.26z M393.16,377.8c0.04-1.12,0.08-2.23,0.12-3.34c-0.68-0.32-1.51-0.22-2.08,0.34
	c-0.72,0.71-0.72,1.87,0,2.59C391.73,377.92,392.5,378.05,393.16,377.8z M396,116.33c1.93-1.93,1.93-5.05,0-6.97
	c-1.93-1.93-5.05-1.93-6.98,0c-1.93,1.92-1.93,5.04,0,6.97C390.94,118.25,394.07,118.25,396,116.33z M395.1,211.16
	c1.43-1.43,1.43-3.74,0-5.18c-1.43-1.43-3.75-1.43-5.19,0s-1.43,3.74,0,5.18S393.66,212.59,395.1,211.16z M396.19,92.59
	c2.04-2.04,2.04-5.33,0-7.37c-2.04-2.03-5.34-2.03-7.38,0c-2.04,2.04-2.04,5.33,0,7.37C390.85,94.63,394.16,94.63,396.19,92.59z
	 M395.5,163.69c1.65-1.65,1.65-4.32,0-5.97c-1.65-1.65-4.33-1.65-5.99,0c-1.65,1.65-1.65,4.32,0,5.97
	C391.16,165.34,393.84,165.34,395.5,163.69z M395.23,187.36c1.51-1.5,1.51-3.94,0-5.44c-1.5-1.5-3.95-1.5-5.45,0
	c-1.51,1.5-1.51,3.94,0,5.44C391.28,188.86,393.72,188.86,395.23,187.36z M395.63,139.89c1.73-1.73,1.73-4.52,0-6.24
	c-1.73-1.72-4.53-1.72-6.26,0c-1.72,1.72-1.72,4.51,0,6.24C391.1,141.62,393.9,141.62,395.63,139.89z M397.06,69.52
	c1.66-1.65,2.2-3.97,1.67-6.09c-3.17-1.17-6.54-2.36-10.11-3.56c-0.23,0.18-0.47,0.34-0.68,0.55c-2.52,2.51-2.52,6.58,0,9.09
	C390.46,72.04,394.54,72.04,397.06,69.52z M351.41,49.02c-2.1,2.4-2.02,6.02,0.27,8.3c2.38,2.38,6.26,2.38,8.65,0
	c1.49-1.49,2.05-3.56,1.68-5.49c-2.18-0.59-4.42-1.19-6.71-1.78C355.29,50.06,353.71,49.73,351.41,49.02z M168.64,57.56
	c2.52-2.51,2.52-6.58,0-9.09c-2.52-2.51-6.6-2.51-9.11,0c-2.52,2.51-2.52,6.58,0,9.09C162.04,60.07,166.13,60.07,168.64,57.56z
	 M394.53,282.4c1.12-1.12,1.12-2.93,0-4.05c-1.12-1.12-2.94-1.12-4.06,0c-1.12,1.12-1.12,2.93,0,4.05
	C391.59,283.51,393.41,283.51,394.53,282.4z M425.59,175.56c0.12,0.12,0.25,0.21,0.38,0.31c0.81-2.43,1.61-4.85,2.37-7.27
	c-1,0.03-1.99,0.42-2.75,1.18C424,171.38,424,173.97,425.59,175.56z M392.51,401.81c0.02-1.19,0.04-2.37,0.07-3.55
	c-0.48-0.02-0.97,0.14-1.34,0.51c-0.7,0.7-0.7,1.82,0,2.52C391.59,401.64,392.05,401.81,392.51,401.81z M392.56,449.39
	c-0.02-1-0.04-2-0.05-2.99c-0.39,0-0.77,0.15-1.06,0.44c-0.59,0.59-0.59,1.54,0,2.13C391.75,449.26,392.15,449.4,392.56,449.39z
	 M392.31,425.52c0-1.04,0-2.08,0-3.12c-0.34,0.04-0.68,0.17-0.94,0.43c-0.63,0.62-0.63,1.63,0,2.26
	C391.63,425.35,391.97,425.48,392.31,425.52z M394,353.66c0.12-0.12,0.18-0.26,0.26-0.39c0.04-0.68,0.08-1.36,0.11-2.04
	c-0.1-0.2-0.21-0.39-0.37-0.56c-0.82-0.83-2.17-0.83-2.99,0c-0.83,0.82-0.83,2.16,0,2.99C391.83,354.48,393.17,354.48,394,353.66z
	 M119.81,72.73c-2.33-2.33-6.11-2.33-8.45,0c-2.33,2.33-2.33,6.1,0,8.43c2.33,2.33,6.12,2.33,8.45,0
	C122.14,78.83,122.14,75.06,119.81,72.73z M395,235c1.38-1.38,1.38-3.6,0-4.98c-1.38-1.37-3.61-1.37-4.99,0
	c-1.38,1.38-1.38,3.6,0,4.98C391.39,236.37,393.62,236.37,395,235z M394.6,258.53c1.16-1.15,1.16-3.03,0-4.18
	c-1.16-1.15-3.04-1.15-4.19,0c-1.16,1.15-1.16,3.03,0,4.18C391.56,259.68,393.44,259.68,394.6,258.53z M94.99,128.2
	c1.88-1.87,1.88-4.9,0-6.77c-1.87-1.87-4.91-1.87-6.78,0c-1.87,1.87-1.87,4.9,0,6.77C90.08,130.06,93.12,130.06,94.99,128.2z
	 M394.2,305.99c0.94-0.93,0.94-2.45,0-3.38c-0.94-0.94-2.46-0.94-3.39,0c-0.94,0.94-0.94,2.45,0,3.38
	C391.74,306.93,393.26,306.93,394.2,305.99z M394.1,329.83c0.88-0.88,0.88-2.31,0-3.19c-0.88-0.88-2.31-0.88-3.19,0
	c-0.88,0.88-0.88,2.3,0,3.19C391.79,330.7,393.22,330.7,394.1,329.83z M106.72,133.66c-1.73-1.72-4.53-1.72-6.26,0
	c-1.73,1.72-1.73,4.51,0,6.24c1.73,1.72,4.53,1.72,6.26,0C108.45,138.17,108.45,135.38,106.72,133.66z M106.62,157.69
	c-1.67-1.67-4.38-1.67-6.05,0c-1.67,1.67-1.67,4.37,0,6.04c1.67,1.67,4.38,1.67,6.05,0C108.29,162.06,108.29,159.36,106.62,157.69z
	 M107.25,109.19c-2.02-2.02-5.3-2.02-7.32,0c-2.02,2.02-2.02,5.28,0,7.3c2.02,2.02,5.3,2.02,7.32,0
	C109.27,114.48,109.27,111.21,107.25,109.19z M105.29,282.06c0.94-0.94,0.94-2.45,0-3.38c-0.62-0.62-1.49-0.82-2.28-0.62
	c0.17,1.54,0.34,3.11,0.5,4.7C104.15,282.78,104.8,282.55,105.29,282.06z M105.53,303.38c0.04,0.48,0.09,0.96,0.13,1.44
	C105.78,304.34,105.74,303.84,105.53,303.38z M106.05,182.19c-1.36-1.36-3.56-1.36-4.92,0c-1.36,1.35-1.36,3.55,0,4.91
	c1.36,1.35,3.56,1.35,4.92,0C107.41,185.74,107.41,183.54,106.05,182.19z M105.55,230.55c-1.08-1.08-2.84-1.08-3.92,0
	c-1.08,1.08-1.08,2.83,0,3.92c1.08,1.08,2.84,1.08,3.92,0C106.64,233.38,106.64,231.63,105.55,230.55z M94.72,151.86
	c1.73-1.72,1.73-4.52,0-6.24c-1.73-1.73-4.53-1.73-6.25,0c-1.73,1.72-1.73,4.51,0,6.24C90.2,153.58,93,153.58,94.72,151.86z
	 M101.8,254.65c-0.99,0.99-0.99,2.59,0,3.58c0.99,0.99,2.6,0.99,3.59,0c0.99-0.99,0.99-2.59,0-3.58
	C104.4,253.65,102.79,253.65,101.8,254.65z M105.76,206.42c-1.2-1.19-3.13-1.19-4.33,0c-1.19,1.19-1.19,3.12,0,4.31
	c1.2,1.19,3.13,1.19,4.33,0C106.95,209.54,106.95,207.61,105.76,206.42z M59.27,109.19c-0.02-0.02-0.04-0.03-0.06-0.05
	c0.38,1.74,0.79,3.59,1.23,5.52C61.14,112.82,60.76,110.67,59.27,109.19z M119.25,97.23c-2.02-2.01-5.3-2.01-7.32,0
	c-2.02,2.02-2.02,5.28,0,7.3c2.02,2.02,5.3,2.02,7.32,0C121.27,102.51,121.27,99.24,119.25,97.23z M70.73,145.63
	c-0.8-0.8-1.82-1.21-2.86-1.27c0.72,2.62,1.46,5.3,2.24,8.01c0.22-0.15,0.43-0.31,0.62-0.5C72.46,150.14,72.46,147.35,70.73,145.63z
	 M82.26,181.99c-0.86-0.86-2.02-1.2-3.14-1.06c0.8,2.3,1.61,4.6,2.45,6.9c0.24-0.15,0.48-0.32,0.69-0.53
	C83.74,185.83,83.74,183.45,82.26,181.99z M336.33,57.33c2.39-2.39,2.39-6.25,0-8.63c-2.38-2.38-6.26-2.38-8.65,0
	c-2.39,2.38-2.39,6.24,0,8.63C330.08,59.71,333.95,59.71,336.33,57.33z M324.51,45.53c1.33-1.33,1.92-3.1,1.83-4.83H313.7
	c-0.1,1.74,0.5,3.5,1.83,4.83C318,48,322.03,48,324.51,45.53z M99.77,85.1c-2.11,2.1-2.11,5.52,0,7.63c2.11,2.11,5.54,2.11,7.65,0
	c2.11-2.11,2.11-5.53,0-7.63C105.31,82.99,101.88,82.99,99.77,85.1z M345.98,47.04c-2.81-1.2-5.78-2.8-8.21-4.84
	c0.22,1.22,0.8,2.39,1.75,3.33C341.27,47.27,343.78,47.76,345.98,47.04z M412.33,69.13c1.24,1.24,2.9,1.78,4.52,1.68
	c-1.56-0.7-3.19-1.42-4.9-2.15C412.08,68.82,412.19,68.98,412.33,69.13z M344.94,446.97c-0.51-0.51-1.35-0.51-1.86,0
	c-0.51,0.51-0.51,1.34,0,1.86c0.52,0.51,1.35,0.51,1.86,0C345.45,448.31,345.45,447.48,344.94,446.97z M345,422.97
	c-0.55-0.55-1.44-0.55-1.99,0c-0.55,0.55-0.55,1.44,0,1.99c0.55,0.55,1.44,0.55,1.99,0C345.55,424.41,345.55,423.52,345,422.97z
	 M345.14,398.9c-0.62-0.62-1.64-0.62-2.26,0c-0.63,0.62-0.63,1.63,0,2.26c0.62,0.63,1.64,0.63,2.26,0
	C345.76,400.53,345.76,399.52,345.14,398.9z M370.75,157.95c-1.52-1.52-4-1.52-5.52,0c-1.53,1.52-1.53,3.99,0,5.51
	c1.52,1.52,3.99,1.52,5.52,0C372.28,161.94,372.28,159.48,370.75,157.95z M345.27,374.84c-0.7-0.7-1.83-0.7-2.53,0
	c-0.7,0.7-0.7,1.83,0,2.53c0.7,0.69,1.83,0.69,2.53,0C345.97,376.66,345.97,375.53,345.27,374.84z M344.8,494.96
	c-0.44-0.44-1.16-0.44-1.6,0c-0.44,0.44-0.44,1.16,0,1.6c0.44,0.44,1.16,0.44,1.6,0C345.24,496.12,345.24,495.4,344.8,494.96z
	 M345.37,350.8c-0.75-0.75-1.97-0.75-2.73,0c-0.75,0.75-0.75,1.97,0,2.72c0.75,0.75,1.97,0.75,2.73,0
	C346.12,352.78,346.12,351.56,345.37,350.8z M359.76,97.13c-2.08-2.07-5.44-2.07-7.52,0c-2.08,2.07-2.08,5.43,0,7.5
	c2.08,2.07,5.44,2.07,7.52,0C361.83,102.56,361.83,99.2,359.76,97.13z M360.22,72.73c-2.33-2.33-6.11-2.33-8.45,0
	c-2.33,2.33-2.33,6.1,0,8.43c2.33,2.33,6.11,2.33,8.45,0C362.56,78.83,362.56,75.06,360.22,72.73z M343.27,542.89
	c-0.4,0.4-0.4,1.06,0,1.46c0.4,0.4,1.06,0.4,1.46,0c0.4-0.41,0.4-1.06,0-1.46S343.68,542.49,343.27,542.89z M344.77,518.93
	c-0.42-0.42-1.11-0.42-1.53,0c-0.42,0.42-0.42,1.11,0,1.53c0.42,0.42,1.11,0.42,1.53,0C345.19,520.03,345.19,519.35,344.77,518.93z
	 M347.27,133.52c-1.8-1.8-4.72-1.8-6.52,0c-1.8,1.8-1.8,4.71,0,6.51c1.8,1.8,4.72,1.8,6.52,0
	C349.07,138.23,349.07,135.32,347.27,133.52z M346.33,182.32c-1.28-1.28-3.37-1.28-4.66,0c-1.28,1.28-1.28,3.36,0,4.65
	c1.28,1.28,3.37,1.28,4.66,0C347.62,185.68,347.62,183.6,346.33,182.32z M345.43,326.81c-0.79-0.79-2.07-0.79-2.86,0
	c-0.79,0.79-0.79,2.07,0,2.85c0.79,0.79,2.07,0.79,2.86,0C346.23,328.87,346.23,327.59,345.43,326.81z M359.49,121.32
	c-1.93-1.93-5.05-1.93-6.98,0c-1.93,1.93-1.93,5.05,0,6.97c1.93,1.93,5.06,1.93,6.98,0C361.42,126.37,361.42,123.25,359.49,121.32z
	 M347.73,109.13c-2.06-2.05-5.39-2.05-7.45,0c-2.05,2.05-2.05,5.38,0,7.43c2.06,2.06,5.39,2.06,7.45,0
	C349.79,114.51,349.79,111.18,347.73,109.13z M346.07,206.51c-1.14-1.13-2.99-1.13-4.13,0c-1.14,1.14-1.14,2.98,0,4.12
	c1.14,1.14,2.99,1.14,4.13,0C347.21,209.49,347.21,207.65,346.07,206.51z M346.83,157.89c-1.56-1.56-4.09-1.56-5.65,0
	c-1.56,1.56-1.56,4.09,0,5.64c1.56,1.56,4.09,1.56,5.65,0C348.39,161.97,348.39,159.45,346.83,157.89z M345.73,278.65
	c-0.95-0.95-2.5-0.95-3.46,0c-0.96,0.95-0.96,2.5,0,3.45c0.96,0.95,2.5,0.95,3.46,0C346.69,281.14,346.69,279.6,345.73,278.65z
	 M346,230.51c-1.11-1.1-2.89-1.1-4,0c-1.1,1.1-1.1,2.88,0,3.98c1.11,1.1,2.89,1.1,4,0C347.1,233.4,347.1,231.62,346,230.51z
	 M345.6,302.71c-0.88-0.88-2.31-0.88-3.19,0c-0.88,0.88-0.88,2.31,0,3.18c0.88,0.88,2.31,0.88,3.19,0
	C346.48,305.02,346.48,303.59,345.6,302.71z M345.8,254.65c-0.99-1-2.6-1-3.59,0c-0.99,0.99-0.99,2.59,0,3.58
	c0.99,0.99,2.6,0.99,3.59,0C346.79,257.24,346.79,255.63,345.8,254.65z M347.96,84.96c-2.18-2.18-5.73-2.18-7.91,0
	c-2.19,2.18-2.19,5.72,0,7.9c2.19,2.18,5.73,2.18,7.91,0C350.15,90.68,350.15,87.15,347.96,84.96z M356.76,506.96
	c-0.42-0.42-1.11-0.42-1.53,0c-0.42,0.42-0.42,1.11,0,1.52c0.42,0.42,1.11,0.42,1.53,0C357.19,508.07,357.19,507.38,356.76,506.96z
	 M356.83,482.97c-0.46-0.46-1.2-0.46-1.66,0c-0.46,0.45-0.46,1.2,0,1.65c0.46,0.46,1.2,0.46,1.66,0
	C357.29,484.17,357.29,483.42,356.83,482.97z M355.3,530.96c-0.39,0.38-0.39,1.01,0,1.4c0.38,0.38,1.01,0.38,1.4,0
	c0.39-0.39,0.39-1.01,0-1.4C356.31,530.58,355.69,530.58,355.3,530.96z M356.87,459c-0.48-0.48-1.25-0.48-1.73,0
	c-0.48,0.48-0.48,1.25,0,1.72c0.48,0.48,1.25,0.48,1.73,0C357.34,460.25,357.34,459.47,356.87,459z M357,434.93
	c-0.55-0.55-1.44-0.55-2,0c-0.55,0.55-0.55,1.44,0,1.99c0.55,0.55,1.45,0.55,2,0C357.55,436.38,357.55,435.48,357,434.93z
	 M359.06,145.69c-1.69-1.69-4.43-1.69-6.12,0c-1.69,1.68-1.69,4.42,0,6.1c1.69,1.68,4.43,1.68,6.12,0
	C360.75,150.11,360.75,147.38,359.06,145.69z M372.39,60.6c-2.42-2.42-6.36-2.42-8.78,0c-2.42,2.42-2.42,6.34,0,8.76
	c2.43,2.42,6.36,2.42,8.78,0C374.81,66.94,374.81,63.02,372.39,60.6z M357.03,410.97c-0.57-0.57-1.49-0.57-2.06,0
	c-0.57,0.57-0.57,1.49,0,2.06c0.57,0.57,1.49,0.57,2.06,0C357.6,412.46,357.6,411.53,357.03,410.97z M371.02,133.76
	c-1.67-1.67-4.38-1.67-6.05,0c-1.67,1.67-1.67,4.37,0,6.04c1.67,1.67,4.38,1.67,6.05,0C372.69,138.13,372.69,135.42,371.02,133.76z
	 M372.05,84.86c-2.24-2.24-5.87-2.24-8.12,0c-2.24,2.24-2.24,5.86,0,8.1c2.24,2.24,5.88,2.24,8.12,0
	C374.29,90.73,374.29,87.1,372.05,84.86z M371.75,109.09c-2.08-2.07-5.44-2.07-7.52,0c-2.07,2.07-2.07,5.43,0,7.5
	c2.08,2.07,5.44,2.07,7.52,0C373.83,114.52,373.83,111.16,371.75,109.09z M357.93,242.55c-1.06-1.06-2.79-1.06-3.86,0
	c-1.07,1.07-1.07,2.79,0,3.85c1.07,1.06,2.79,1.06,3.86,0C358.99,245.33,358.99,243.61,357.93,242.55z M357.1,386.97
	c-0.61-0.61-1.59-0.61-2.2,0c-0.61,0.6-0.61,1.58,0,2.19c0.6,0.6,1.59,0.6,2.2,0C357.7,388.55,357.7,387.57,357.1,386.97z
	 M358.53,170.15c-1.4-1.39-3.66-1.39-5.06,0c-1.4,1.4-1.4,3.65,0,5.05c1.4,1.39,3.66,1.39,5.06,0
	C359.92,173.8,359.92,171.55,358.53,170.15z M358.26,194.35c-1.25-1.25-3.28-1.25-4.52,0c-1.25,1.24-1.25,3.27,0,4.51
	c1.25,1.25,3.27,1.25,4.52,0C359.51,197.62,359.51,195.59,358.26,194.35z M357.83,266.58c-1.01-1.01-2.65-1.01-3.66,0
	c-1.01,1.01-1.01,2.64,0,3.65c1.01,1.01,2.65,1.01,3.66,0C358.84,269.22,358.84,267.59,357.83,266.58z M358.03,218.52
	c-1.12-1.12-2.94-1.12-4.06,0c-1.12,1.12-1.12,2.93,0,4.05c1.12,1.12,2.94,1.12,4.06,0C359.15,221.44,359.15,219.63,358.03,218.52z
	 M357.26,362.87c-0.7-0.69-1.83-0.69-2.53,0c-0.7,0.7-0.7,1.83,0,2.53c0.7,0.69,1.83,0.69,2.53,0
	C357.96,364.7,357.96,363.57,357.26,362.87z M357.7,290.64c-0.94-0.93-2.46-0.93-3.39,0c-0.93,0.94-0.93,2.45,0,3.39
	c0.94,0.94,2.46,0.94,3.39,0C358.63,293.09,358.63,291.58,357.7,290.64z M357.4,338.8c-0.77-0.77-2.02-0.77-2.79,0
	c-0.77,0.77-0.77,2.02,0,2.79c0.77,0.77,2.02,0.77,2.79,0C358.17,340.82,358.17,339.58,357.4,338.8z M357.56,314.71
	c-0.86-0.86-2.26-0.86-3.13,0c-0.86,0.86-0.86,2.26,0,3.12c0.86,0.86,2.26,0.86,3.13,0C358.43,316.97,358.43,315.57,357.56,314.71z
	 M344.84,471c-0.46-0.46-1.2-0.46-1.66,0c-0.46,0.46-0.46,1.2,0,1.66c0.46,0.45,1.2,0.45,1.66,0
	C345.3,472.2,345.3,471.46,344.84,471z M319.28,542.89c-0.4,0.4-0.4,1.06,0,1.46c0.4,0.4,1.06,0.4,1.46,0c0.4-0.41,0.4-1.06,0-1.46
	C320.34,542.49,319.69,542.49,319.28,542.89z M321.28,374.84c-0.7-0.7-1.83-0.7-2.53,0c-0.7,0.7-0.7,1.83,0,2.53
	c0.7,0.69,1.83,0.69,2.53,0C321.98,376.66,321.98,375.53,321.28,374.84z M321.55,302.78c-0.85-0.84-2.21-0.84-3.06,0
	c-0.85,0.84-0.85,2.21,0,3.05c0.85,0.84,2.21,0.84,3.06,0C322.39,304.98,322.39,303.62,321.55,302.78z M321.18,398.87
	c-0.64-0.64-1.69-0.64-2.33,0c-0.64,0.64-0.64,1.68,0,2.32c0.64,0.64,1.69,0.64,2.33,0C321.82,400.55,321.82,399.51,321.18,398.87z
	 M321.55,326.71c-0.85-0.84-2.21-0.84-3.06,0c-0.85,0.84-0.85,2.21,0,3.05c0.85,0.84,2.21,0.84,3.06,0
	C322.39,328.92,322.39,327.55,321.55,326.71z M320.85,471c-0.46-0.46-1.2-0.46-1.66,0c-0.46,0.46-0.46,1.2,0,1.66
	c0.46,0.45,1.2,0.45,1.66,0C321.31,472.2,321.31,471.46,320.85,471z M321.71,278.68c-0.94-0.94-2.46-0.94-3.39,0
	c-0.94,0.93-0.94,2.45,0,3.38c0.94,0.94,2.46,0.94,3.39,0C322.65,281.12,322.65,279.61,321.71,278.68z M320.82,494.96
	c-0.44-0.44-1.16-0.44-1.6,0c-0.44,0.44-0.44,1.16,0,1.6c0.44,0.44,1.15,0.44,1.6,0C321.26,496.12,321.26,495.4,320.82,494.96z
	 M320.95,446.97c-0.52-0.51-1.35-0.51-1.86,0c-0.52,0.51-0.52,1.34,0,1.86c0.51,0.51,1.35,0.51,1.86,0
	C321.46,448.31,321.46,447.48,320.95,446.97z M321.01,422.97c-0.55-0.55-1.44-0.55-1.99,0c-0.55,0.55-0.55,1.44,0,1.99
	c0.55,0.55,1.44,0.55,1.99,0C321.57,424.41,321.57,423.52,321.01,422.97z M321.38,350.8c-0.75-0.75-1.97-0.75-2.73,0
	c-0.75,0.75-0.75,1.97,0,2.72c0.75,0.75,1.98,0.75,2.73,0C322.14,352.78,322.14,351.56,321.38,350.8z M323.67,109.19
	c-2.02-2.02-5.3-2.02-7.32,0c-2.02,2.02-2.02,5.28,0,7.3c2.02,2.02,5.3,2.02,7.32,0C325.7,114.48,325.7,111.21,323.67,109.19z
	 M323.84,85.1c-2.11-2.11-5.54-2.11-7.65,0c-2.11,2.1-2.11,5.52,0,7.63c2.11,2.11,5.54,2.11,7.65,0
	C325.95,90.62,325.95,87.2,323.84,85.1z M324.34,60.67c-2.39-2.38-6.26-2.38-8.65,0c-2.39,2.38-2.39,6.24,0,8.63
	c2.39,2.38,6.26,2.38,8.65,0C326.73,66.91,326.73,63.05,324.34,60.67z M308.82,506.93c-0.44-0.44-1.16-0.44-1.6,0
	c-0.44,0.44-0.44,1.15,0,1.6c0.44,0.44,1.15,0.44,1.6,0C309.26,508.08,309.26,507.37,308.82,506.93z M213.4,362.8
	c-0.74-0.74-1.93-0.74-2.66,0c-0.73,0.74-0.73,1.92,0,2.66c0.73,0.73,1.92,0.73,2.66,0C214.13,364.72,214.13,363.54,213.4,362.8z
	 M321.98,230.55c-1.08-1.08-2.84-1.08-3.92,0c-1.08,1.08-1.08,2.83,0,3.92c1.08,1.08,2.84,1.08,3.92,0
	C323.06,233.38,323.06,231.63,321.98,230.55z M348.46,60.53c-2.46-2.45-6.45-2.45-8.92,0c-2.46,2.46-2.46,6.44,0,8.89
	c2.46,2.46,6.46,2.46,8.92,0C350.92,66.97,350.92,62.99,348.46,60.53z M321.81,254.65c-0.99-1-2.6-1-3.59,0
	c-0.99,0.99-0.99,2.59,0,3.58c0.99,0.99,2.6,0.99,3.59,0C322.8,257.24,322.8,255.63,321.81,254.65z M323.04,157.69
	c-1.67-1.67-4.38-1.67-6.05,0c-1.67,1.67-1.67,4.37,0,6.04c1.67,1.67,4.38,1.67,6.05,0C324.72,162.06,324.72,159.36,323.04,157.69z
	 M322.48,182.19c-1.36-1.36-3.56-1.36-4.92,0c-1.36,1.35-1.36,3.55,0,4.91c1.36,1.35,3.56,1.35,4.92,0
	C323.84,185.74,323.84,183.54,322.48,182.19z M322.18,206.42c-1.2-1.19-3.13-1.19-4.33,0c-1.19,1.19-1.19,3.12,0,4.31
	c1.2,1.19,3.13,1.19,4.33,0C323.37,209.54,323.37,207.61,322.18,206.42z M333.04,410.97c-0.57-0.57-1.49-0.57-2.06,0
	c-0.57,0.57-0.57,1.49,0,2.06c0.57,0.57,1.49,0.57,2.06,0C333.61,412.46,333.61,411.53,333.04,410.97z M333.18,386.9
	c-0.65-0.64-1.69-0.64-2.33,0c-0.64,0.64-0.64,1.68,0,2.32c0.65,0.64,1.69,0.64,2.33,0C333.82,388.58,333.82,387.54,333.18,386.9z
	 M333.54,314.74c-0.85-0.84-2.21-0.84-3.06,0c-0.84,0.84-0.84,2.21,0,3.06c0.85,0.84,2.21,0.84,3.06,0
	C334.39,316.95,334.39,315.58,333.54,314.74z M333.01,434.93c-0.55-0.55-1.44-0.55-2,0c-0.55,0.55-0.55,1.44,0,1.99
	c0.55,0.55,1.44,0.55,2,0C333.56,436.38,333.56,435.48,333.01,434.93z M333.37,338.84c-0.75-0.75-1.97-0.75-2.73,0
	c-0.75,0.75-0.75,1.97,0,2.72c0.75,0.75,1.97,0.75,2.73,0C334.13,340.81,334.13,339.59,333.37,338.84z M333.34,362.8
	c-0.73-0.74-1.92-0.74-2.66,0c-0.73,0.73-0.73,1.92,0,2.66c0.74,0.73,1.93,0.73,2.66,0C334.08,364.72,334.08,363.53,333.34,362.8z
	 M332.91,458.97c-0.5-0.5-1.3-0.5-1.8,0c-0.5,0.49-0.5,1.3,0,1.79c0.5,0.5,1.3,0.5,1.8,0C333.4,460.26,333.4,459.46,332.91,458.97z
	 M331.25,530.9c-0.42,0.42-0.42,1.1,0,1.53c0.42,0.42,1.11,0.42,1.53,0c0.42-0.42,0.42-1.11,0-1.53
	C332.35,530.47,331.67,530.47,331.25,530.9z M332.78,506.96c-0.42-0.42-1.11-0.42-1.53,0c-0.42,0.42-0.42,1.11,0,1.52
	c0.42,0.42,1.11,0.42,1.53,0C333.2,508.07,333.2,507.38,332.78,506.96z M332.84,482.97c-0.46-0.46-1.2-0.46-1.66,0
	c-0.46,0.45-0.46,1.2,0,1.65c0.46,0.46,1.2,0.46,1.66,0C333.3,484.17,333.3,483.42,332.84,482.97z M335.47,121.36
	c-1.91-1.91-5.01-1.91-6.92,0c-1.91,1.91-1.91,4.99,0,6.9c1.91,1.9,5.01,1.9,6.92,0C337.38,126.35,337.38,123.26,335.47,121.36z
	 M335.14,145.63c-1.73-1.73-4.53-1.73-6.25,0c-1.73,1.72-1.73,4.51,0,6.24c1.73,1.72,4.53,1.72,6.25,0
	C336.86,150.14,336.86,147.35,335.14,145.63z M320.78,518.93c-0.42-0.42-1.11-0.42-1.53,0c-0.42,0.42-0.42,1.11,0,1.53
	c0.42,0.42,1.11,0.42,1.53,0C321.2,520.03,321.2,519.35,320.78,518.93z M335.67,97.23c-2.02-2.01-5.3-2.01-7.32,0
	c-2.02,2.02-2.02,5.28,0,7.3c2.02,2.02,5.3,2.02,7.32,0C337.69,102.51,337.69,99.24,335.67,97.23z M334.6,170.09
	c-1.43-1.43-3.75-1.43-5.19,0c-1.43,1.43-1.43,3.75,0,5.18c1.43,1.43,3.76,1.43,5.19,0C336.04,173.83,336.04,171.51,334.6,170.09z
	 M333.64,290.71c-0.9-0.9-2.36-0.9-3.26,0c-0.9,0.9-0.9,2.36,0,3.26c0.9,0.9,2.36,0.9,3.26,0
	C334.54,293.07,334.54,291.61,333.64,290.71z M336.23,72.73c-2.33-2.33-6.11-2.33-8.45,0c-2.33,2.33-2.33,6.1,0,8.43
	c2.33,2.33,6.12,2.33,8.45,0C338.57,78.83,338.57,75.06,336.23,72.73z M333.87,242.61c-1.03-1.03-2.69-1.03-3.72,0
	c-1.03,1.03-1.03,2.69,0,3.72c1.03,1.03,2.7,1.03,3.72,0C334.9,245.3,334.9,243.64,333.87,242.61z M334.47,194.15
	c-1.36-1.36-3.56-1.36-4.92,0c-1.36,1.36-1.36,3.56,0,4.91c1.36,1.36,3.56,1.36,4.92,0C335.83,197.71,335.83,195.51,334.47,194.15z
	 M333.81,266.61c-0.99-0.99-2.6-0.99-3.59,0c-0.99,0.99-0.99,2.6,0,3.59c0.99,0.99,2.6,0.99,3.59,0
	C334.8,269.21,334.8,267.6,333.81,266.61z M333.97,218.58c-1.08-1.08-2.84-1.08-3.92,0c-1.08,1.08-1.08,2.84,0,3.92
	c1.08,1.08,2.84,1.08,3.92,0C335.06,221.42,335.06,219.66,333.97,218.58z M369.59,302.71c-0.88-0.88-2.31-0.88-3.19,0
	c-0.88,0.88-0.88,2.31,0,3.18c0.88,0.88,2.31,0.88,3.19,0C370.47,305.02,370.47,303.59,369.59,302.71z M370.26,182.38
	c-1.25-1.24-3.27-1.24-4.52,0c-1.25,1.25-1.25,3.27,0,4.52c1.25,1.24,3.27,1.24,4.52,0C371.51,185.65,371.51,183.63,370.26,182.38z
	 M383.24,193.89c-1.5-1.5-3.95-1.5-5.46,0c-1.51,1.5-1.51,3.94,0,5.44c1.51,1.5,3.95,1.5,5.46,0
	C384.74,197.82,384.74,195.39,383.24,193.89z M384.7,72.76c-2.31-2.31-6.07-2.31-8.38,0c-2.31,2.31-2.31,6.05,0,8.36
	c2.31,2.31,6.07,2.31,8.38,0C387.01,78.82,387.01,75.08,384.7,72.76z M367.26,542.89c-0.4,0.4-0.4,1.06,0,1.46
	c0.41,0.4,1.06,0.4,1.46,0c0.4-0.41,0.4-1.06,0-1.46S367.67,542.49,367.26,542.89z M368.82,471c-0.46-0.46-1.2-0.46-1.66,0
	c-0.46,0.46-0.46,1.2,0,1.66c0.46,0.45,1.2,0.45,1.66,0C369.28,472.2,369.28,471.46,368.82,471z M368.76,494.99
	c-0.42-0.42-1.11-0.42-1.53,0c-0.42,0.42-0.42,1.11,0,1.53c0.42,0.42,1.11,0.42,1.53,0C369.18,496.1,369.18,495.42,368.76,494.99z
	 M384,97.39c-1.93-1.93-5.06-1.93-6.99,0c-1.93,1.93-1.93,5.04,0,6.97c1.93,1.93,5.06,1.93,6.99,0
	C385.93,102.44,385.93,99.32,384,97.39z M383.63,145.63c-1.73-1.73-4.53-1.73-6.25,0c-1.73,1.72-1.73,4.51,0,6.24
	c1.73,1.72,4.53,1.72,6.25,0C385.36,150.14,385.36,147.35,383.63,145.63z M383.47,169.72c-1.63-1.63-4.29-1.63-5.92,0
	c-1.63,1.63-1.63,4.27,0,5.91c1.64,1.63,4.29,1.63,5.92,0C385.1,174,385.1,171.35,383.47,169.72z M383.83,121.49
	c-1.84-1.83-4.82-1.83-6.65,0c-1.84,1.83-1.84,4.8,0,6.64c1.84,1.83,4.81,1.83,6.65,0C385.67,126.29,385.67,123.32,383.83,121.49z
	 M368.86,447.03c-0.48-0.48-1.25-0.48-1.73,0c-0.48,0.48-0.48,1.25,0,1.73c0.48,0.48,1.25,0.48,1.73,0
	C369.34,448.28,369.34,447.51,368.86,447.03z M368.73,518.96c-0.4-0.4-1.06-0.4-1.46,0c-0.4,0.41-0.4,1.06,0,1.46
	c0.41,0.41,1.06,0.41,1.46,0C369.13,520.02,369.13,519.37,368.73,518.96z M369.82,254.61c-1.01-1.01-2.65-1.01-3.66,0
	c-1.01,1.01-1.01,2.64,0,3.65c1.01,1.01,2.65,1.01,3.66,0C370.84,257.25,370.84,255.62,369.82,254.61z M307.26,530.9
	c-0.42,0.42-0.42,1.1,0,1.53c0.42,0.42,1.11,0.42,1.53,0c0.43-0.42,0.43-1.11,0-1.53C308.36,530.47,307.68,530.47,307.26,530.9z
	 M369.79,278.58c-0.99-0.99-2.6-0.99-3.59,0c-0.99,0.99-0.99,2.59,0,3.59c0.99,0.99,2.6,0.99,3.59,0
	C370.78,281.17,370.78,279.57,369.79,278.58z M368.99,422.97c-0.55-0.55-1.44-0.55-1.99,0c-0.55,0.55-0.55,1.44,0,1.99
	c0.55,0.55,1.44,0.55,1.99,0C369.55,424.41,369.55,423.52,368.99,422.97z M370.02,230.48c-1.12-1.12-2.94-1.12-4.06,0
	c-1.12,1.12-1.12,2.93,0,4.05c1.12,1.12,2.94,1.12,4.06,0C371.14,233.41,371.14,231.6,370.02,230.48z M369.49,326.74
	c-0.83-0.82-2.17-0.82-2.99,0c-0.83,0.82-0.83,2.16,0,2.99c0.83,0.83,2.17,0.83,2.99,0C370.32,328.9,370.32,327.56,369.49,326.74z
	 M369.19,374.9c-0.66-0.66-1.73-0.66-2.4,0c-0.66,0.66-0.66,1.73,0,2.39c0.66,0.66,1.73,0.66,2.4,0S369.85,375.56,369.19,374.9z
	 M369.06,398.97c-0.59-0.58-1.54-0.58-2.13,0c-0.59,0.59-0.59,1.54,0,2.13c0.59,0.59,1.54,0.59,2.13,0
	C369.65,400.51,369.65,399.56,369.06,398.97z M369.33,350.84c-0.73-0.73-1.93-0.73-2.66,0c-0.73,0.74-0.73,1.93,0,2.66
	c0.73,0.74,1.93,0.74,2.66,0C370.06,352.76,370.06,351.57,369.33,350.84z M370.16,206.42c-1.2-1.19-3.13-1.19-4.33,0
	c-1.19,1.19-1.19,3.12,0,4.31c1.2,1.19,3.13,1.19,4.33,0C371.35,209.54,371.35,207.61,370.16,206.42z M391.54,470.86
	c-0.53,0.53-0.53,1.4,0,1.93c0.48,0.47,1.2,0.5,1.73,0.13c-0.03-0.75-0.06-1.49-0.08-2.24
	C392.66,470.37,391.99,470.42,391.54,470.86z M393.43,494.83c-0.51-0.51-1.35-0.51-1.86,0c-0.51,0.51-0.51,1.34,0,1.86
	c0.52,0.51,1.35,0.51,1.86,0C393.95,496.17,393.95,495.34,393.43,494.83z M379.64,530.79c-0.48,0.48-0.48,1.25,0,1.73
	c0.48,0.48,1.25,0.48,1.73,0c0.48-0.48,0.48-1.25,0-1.73C380.9,530.32,380.12,530.32,379.64,530.79z M391.64,542.76
	c-0.48,0.48-0.48,1.25,0,1.73c0.48,0.48,1.25,0.48,1.73,0c0.48-0.48,0.48-1.25,0-1.73C392.89,542.28,392.12,542.28,391.64,542.76z
	 M381.44,506.8c-0.51-0.51-1.35-0.51-1.86,0c-0.51,0.51-0.51,1.34,0,1.86c0.51,0.51,1.34,0.51,1.86,0
	C381.95,508.14,381.95,507.31,381.44,506.8z M393.43,518.76c-0.51-0.51-1.35-0.51-1.86,0c-0.51,0.51-0.51,1.35,0,1.86
	c0.52,0.51,1.35,0.51,1.86,0C393.95,520.11,393.95,519.27,393.43,518.76z M436.82,85.26c-2.02,2.02-2.02,5.29,0,7.3
	c2.02,2.01,5.3,2.01,7.32,0c1.33-1.33,1.77-3.2,1.34-4.9c-1.18-1.03-2.83-2.34-5.05-3.91C439.12,83.77,437.82,84.26,436.82,85.26z
	 M437.29,133.59c-1.59,1.59-1.73,4.06-0.45,5.82c0.61-2.28,1.19-4.52,1.74-6.7C438.11,132.92,437.67,133.21,437.29,133.59z
	 M413.19,209.47c0.56-1.29,1.12-2.59,1.66-3.89c-0.28,0.15-0.55,0.33-0.79,0.57C413.16,207.05,412.88,208.32,413.19,209.47z
	 M381.47,482.83c-0.53-0.53-1.4-0.53-1.93,0c-0.53,0.53-0.53,1.39,0,1.93c0.54,0.53,1.4,0.53,1.93,0
	C382.01,484.22,382.01,483.36,381.47,482.83z M381.94,362.7c-0.79-0.79-2.07-0.79-2.86,0c-0.79,0.79-0.79,2.07,0,2.85
	c0.79,0.79,2.07,0.79,2.86,0C382.73,364.77,382.73,363.49,381.94,362.7z M382.37,290.48c-1.03-1.03-2.7-1.03-3.72,0
	c-1.03,1.02-1.03,2.69,0,3.72c1.03,1.03,2.69,1.03,3.72,0C383.4,293.17,383.4,291.5,382.37,290.48z M382,338.71
	c-0.83-0.82-2.17-0.82-2.99,0c-0.82,0.82-0.82,2.16,0,2.99c0.83,0.82,2.17,0.82,2.99,0C382.83,340.87,382.83,339.53,382,338.71z
	 M382.2,314.57c-0.94-0.93-2.46-0.93-3.39,0c-0.94,0.93-0.94,2.45,0,3.39c0.94,0.93,2.46,0.93,3.39,0
	C383.14,317.03,383.14,315.51,382.2,314.57z M382.9,242.08c-1.32-1.32-3.46-1.32-4.79,0c-1.32,1.32-1.32,3.46,0,4.78
	c1.33,1.32,3.47,1.32,4.79,0C384.22,245.54,384.22,243.4,382.9,242.08z M382.6,266.31c-1.16-1.16-3.03-1.16-4.19,0
	c-1.16,1.15-1.16,3.03,0,4.18c1.16,1.16,3.03,1.16,4.19,0C383.76,269.34,383.76,267.47,382.6,266.31z M381.51,458.87
	c-0.55-0.55-1.44-0.55-2,0c-0.55,0.55-0.55,1.44,0,1.99c0.55,0.55,1.45,0.55,2,0C382.06,460.31,382.06,459.42,381.51,458.87z
	 M383,218.05c-1.38-1.37-3.61-1.37-4.99,0c-1.38,1.38-1.38,3.6,0,4.98c1.38,1.37,3.61,1.37,4.99,0
	C384.38,221.65,384.38,219.42,383,218.05z M381.74,410.77c-0.68-0.68-1.78-0.68-2.46,0c-0.68,0.68-0.68,1.78,0,2.46
	c0.68,0.68,1.78,0.68,2.46,0C382.42,412.55,382.42,411.45,381.74,410.77z M381.64,434.8c-0.62-0.62-1.64-0.62-2.26,0
	c-0.63,0.63-0.63,1.63,0,2.26c0.62,0.62,1.64,0.62,2.26,0C382.26,436.43,382.26,435.43,381.64,434.8z M381.77,386.8
	c-0.7-0.69-1.83-0.69-2.53,0c-0.7,0.7-0.7,1.83,0,2.52c0.7,0.7,1.83,0.7,2.53,0C382.47,388.63,382.47,387.5,381.77,386.8z
	 M323.14,133.66c-1.73-1.72-4.53-1.72-6.26,0c-1.73,1.72-1.73,4.51,0,6.24c1.73,1.72,4.53,1.72,6.26,0
	C324.87,138.17,324.87,135.38,323.14,133.66z M249.88,254.61c-1.01-1.01-2.65-1.01-3.66,0c-1.01,1.01-1.01,2.64,0,3.65
	c1.01,1.01,2.65,1.01,3.66,0C250.89,257.25,250.89,255.62,249.88,254.61z M250.38,230.18c-1.28-1.28-3.37-1.28-4.66,0
	c-1.28,1.28-1.28,3.36,0,4.64c1.29,1.28,3.37,1.28,4.66,0C251.66,233.55,251.66,231.46,250.38,230.18z M250.78,181.92
	c-1.51-1.5-3.95-1.5-5.46,0c-1.51,1.5-1.51,3.94,0,5.44c1.5,1.5,3.95,1.5,5.46,0C252.28,185.86,252.28,183.42,250.78,181.92z
	 M250.54,206.09c-1.38-1.37-3.61-1.37-4.99,0c-1.38,1.37-1.38,3.6,0,4.98c1.38,1.37,3.61,1.37,4.99,0
	C251.92,209.69,251.92,207.46,250.54,206.09z M249.74,278.68c-0.94-0.94-2.46-0.94-3.39,0c-0.94,0.93-0.94,2.45,0,3.38
	c0.93,0.94,2.46,0.94,3.39,0C250.68,281.12,250.68,279.61,249.74,278.68z M249.08,422.93c-0.57-0.57-1.49-0.57-2.06,0
	c-0.57,0.57-0.57,1.49,0,2.06c0.57,0.57,1.49,0.57,2.06,0C249.65,424.42,249.65,423.5,249.08,422.93z M249.24,374.9
	c-0.66-0.66-1.73-0.66-2.39,0c-0.66,0.66-0.66,1.73,0,2.39c0.66,0.66,1.73,0.66,2.39,0C249.91,376.63,249.91,375.56,249.24,374.9z
	 M249.55,302.81c-0.83-0.83-2.17-0.83-2.99,0c-0.83,0.82-0.83,2.16,0,2.99c0.83,0.83,2.17,0.83,2.99,0
	C250.37,304.97,250.37,303.63,249.55,302.81z M251.04,157.72c-1.65-1.65-4.33-1.65-5.99,0c-1.65,1.65-1.65,4.32,0,5.97
	c1.66,1.65,4.34,1.65,5.99,0C252.7,162.04,252.7,159.37,251.04,157.72z M249.48,326.81c-0.79-0.79-2.07-0.79-2.86,0
	c-0.79,0.79-0.79,2.07,0,2.85c0.79,0.79,2.07,0.79,2.86,0C250.27,328.87,250.27,327.59,249.48,326.81z M249.38,350.84
	c-0.73-0.73-1.92-0.73-2.66,0c-0.73,0.74-0.73,1.93,0,2.66c0.74,0.74,1.93,0.74,2.66,0C250.12,352.76,250.12,351.57,249.38,350.84z
	 M249.14,398.93c-0.61-0.6-1.59-0.6-2.2,0c-0.61,0.61-0.61,1.59,0,2.19c0.61,0.61,1.59,0.61,2.2,0
	C249.75,400.52,249.75,399.54,249.14,398.93z M251.37,133.46c-1.84-1.83-4.81-1.83-6.65,0c-1.84,1.83-1.84,4.8,0,6.64
	c1.84,1.83,4.81,1.83,6.65,0C253.21,138.26,253.21,135.29,251.37,133.46z M236.95,482.9c-0.5-0.49-1.3-0.49-1.8,0
	c-0.49,0.49-0.49,1.3,0,1.79c0.5,0.49,1.3,0.49,1.8,0C237.45,484.19,237.45,483.39,236.95,482.9z M236.98,458.93
	c-0.51-0.52-1.35-0.52-1.86,0c-0.52,0.51-0.52,1.34,0,1.86c0.52,0.51,1.35,0.51,1.86,0C237.5,460.27,237.5,459.44,236.98,458.93z
	 M237.08,434.9c-0.57-0.57-1.49-0.57-2.06,0c-0.57,0.57-0.57,1.49,0,2.05c0.57,0.57,1.49,0.57,2.06,0
	C237.65,436.39,237.65,435.47,237.08,434.9z M237.12,410.93c-0.59-0.58-1.54-0.58-2.13,0c-0.59,0.59-0.59,1.54,0,2.13
	c0.59,0.59,1.54,0.59,2.13,0C237.71,412.47,237.71,411.52,237.12,410.93z M235.25,530.86c-0.44,0.44-0.44,1.15,0,1.59
	c0.44,0.44,1.16,0.44,1.6,0c0.44-0.44,0.44-1.15,0-1.59C236.41,530.42,235.7,530.42,235.25,530.86z M251.64,109.26
	c-1.98-1.98-5.2-1.98-7.18,0c-1.98,1.98-1.98,5.19,0,7.17c1.98,1.98,5.2,1.98,7.18,0C253.62,114.45,253.62,111.24,251.64,109.26z
	 M251.81,85.16c-2.08-2.07-5.44-2.07-7.52,0c-2.08,2.07-2.08,5.43,0,7.5c2.08,2.07,5.44,2.07,7.52,0
	C253.88,90.59,253.88,87.23,251.81,85.16z M236.92,506.86c-0.48-0.48-1.25-0.48-1.73,0c-0.48,0.48-0.48,1.25,0,1.72
	c0.48,0.48,1.25,0.48,1.73,0C237.4,508.11,237.4,507.34,236.92,506.86z M252.07,60.96c-2.22-2.22-5.83-2.22-8.05,0
	c-2.22,2.22-2.22,5.81,0,8.03c2.22,2.22,5.83,2.22,8.05,0C254.29,66.77,254.29,63.18,252.07,60.96z M263.97,73.03
	c-2.17-2.17-5.68-2.17-7.85,0c-2.17,2.16-2.17,5.67,0,7.83c2.17,2.16,5.68,2.16,7.85,0C266.13,78.7,266.13,75.19,263.97,73.03z
	 M262,242.51c-1.08-1.08-2.84-1.08-3.92,0c-1.08,1.08-1.08,2.83,0,3.92c1.08,1.08,2.84,1.08,3.92,0
	C263.09,245.35,263.09,243.59,262,242.51z M262.9,169.82c-1.58-1.57-4.14-1.57-5.72,0c-1.58,1.57-1.58,4.13,0,5.71
	c1.58,1.58,4.14,1.58,5.72,0C264.48,173.95,264.48,171.39,262.9,169.82z M262.37,218.22c-1.28-1.28-3.37-1.28-4.66,0
	c-1.29,1.28-1.29,3.36,0,4.65c1.28,1.28,3.37,1.28,4.66,0C263.66,221.58,263.66,219.5,262.37,218.22z M262.77,193.89
	c-1.51-1.5-3.95-1.5-5.46,0c-1.5,1.5-1.5,3.94,0,5.44c1.51,1.5,3.95,1.5,5.46,0C264.28,197.82,264.28,195.39,262.77,193.89z
	 M261.57,290.81c-0.84-0.84-2.21-0.84-3.06,0c-0.85,0.84-0.85,2.21,0,3.05c0.85,0.84,2.22,0.84,3.06,0
	C262.42,293.02,262.42,291.65,261.57,290.81z M261.87,266.58c-1.01-1.01-2.65-1.01-3.66,0c-1.01,1.01-1.01,2.64,0,3.65
	c1.01,1.01,2.65,1.01,3.66,0C262.88,269.22,262.88,267.59,261.87,266.58z M261.14,386.97c-0.61-0.61-1.59-0.61-2.2,0
	c-0.61,0.6-0.61,1.58,0,2.19c0.61,0.6,1.59,0.6,2.2,0C261.75,388.55,261.75,387.57,261.14,386.97z M261.31,362.87
	c-0.7-0.69-1.83-0.69-2.53,0c-0.7,0.7-0.7,1.83,0,2.53c0.7,0.69,1.83,0.69,2.53,0C262,364.7,262,363.57,261.31,362.87z
	 M261.54,314.77c-0.83-0.82-2.17-0.82-3,0c-0.82,0.83-0.82,2.16,0,2.99c0.83,0.82,2.17,0.82,3,0
	C262.37,316.94,262.37,315.6,261.54,314.77z M261.37,338.87c-0.74-0.74-1.93-0.74-2.66,0c-0.74,0.73-0.74,1.92,0,2.65
	c0.73,0.74,1.92,0.74,2.66,0C262.11,340.79,262.11,339.6,261.37,338.87z M249.05,446.9c-0.55-0.55-1.45-0.55-2,0
	c-0.55,0.55-0.55,1.44,0,1.99c0.55,0.55,1.44,0.55,2,0C249.6,448.34,249.6,447.45,249.05,446.9z M247.28,542.86
	c-0.42,0.42-0.42,1.11,0,1.53c0.43,0.42,1.11,0.42,1.53,0c0.42-0.42,0.42-1.11,0-1.53C248.39,542.44,247.71,542.44,247.28,542.86z
	 M248.88,518.86c-0.46-0.46-1.2-0.46-1.66,0c-0.46,0.46-0.46,1.2,0,1.66c0.46,0.46,1.2,0.46,1.66,0
	C249.34,520.06,249.34,519.32,248.88,518.86z M263.37,145.42c-1.84-1.83-4.81-1.83-6.65,0c-1.84,1.84-1.84,4.8,0,6.64
	c1.84,1.83,4.81,1.83,6.65,0C265.21,150.23,265.21,147.26,263.37,145.42z M243.82,45.26c2.33,2.33,6.11,2.33,8.45,0
	c1.26-1.25,1.81-2.93,1.71-4.57h-11.88C242.01,42.34,242.57,44.01,243.82,45.26z M248.91,470.96c-0.48-0.48-1.25-0.48-1.73,0
	c-0.48,0.48-0.48,1.25,0,1.73c0.48,0.48,1.25,0.48,1.73,0C249.39,472.22,249.39,471.44,248.91,470.96z M248.91,494.9
	c-0.48-0.48-1.25-0.48-1.73,0c-0.48,0.48-0.48,1.25,0,1.73c0.48,0.48,1.25,0.48,1.73,0C249.39,496.15,249.39,495.37,248.91,494.9z
	 M263.63,97.29c-1.98-1.98-5.2-1.98-7.19,0c-1.98,1.98-1.98,5.19,0,7.17c1.99,1.98,5.2,1.98,7.19,0
	C265.62,102.48,265.62,99.28,263.63,97.29z M263.5,121.36c-1.91-1.91-5.01-1.91-6.92,0c-1.91,1.91-1.91,4.99,0,6.9
	c1.91,1.9,5.01,1.9,6.92,0C265.41,126.35,265.41,123.26,263.5,121.36z M237.18,386.94c-0.63-0.62-1.64-0.62-2.26,0
	c-0.62,0.62-0.62,1.63,0,2.26c0.63,0.62,1.64,0.62,2.26,0C237.81,388.57,237.81,387.56,237.18,386.94z M264.07,49
	c-2.22-2.22-5.83-2.22-8.05,0c-2.22,2.22-2.22,5.81,0,8.03c2.22,2.22,5.83,2.22,8.05,0C266.29,54.81,266.29,51.22,264.07,49z
	 M238.22,242.32c-1.2-1.19-3.13-1.19-4.33,0c-1.19,1.19-1.19,3.12,0,4.31c1.2,1.19,3.13,1.19,4.33,0
	C239.41,245.44,239.41,243.51,238.22,242.32z M227.25,133.59c-1.76-1.76-4.62-1.76-6.39,0c-1.76,1.76-1.76,4.61,0,6.37
	c1.76,1.76,4.62,1.76,6.39,0C229.02,138.2,229.02,135.35,227.25,133.59z M226.32,230.25c-1.25-1.24-3.27-1.24-4.52,0
	c-1.25,1.24-1.25,3.27,0,4.51c1.25,1.25,3.27,1.25,4.52,0C227.57,233.51,227.57,231.49,226.32,230.25z M226.62,206.02
	c-1.41-1.41-3.71-1.41-5.12,0c-1.41,1.41-1.41,3.7,0,5.11c1.41,1.41,3.71,1.41,5.12,0C228.03,209.72,228.03,207.43,226.62,206.02z
	 M227.12,157.65c-1.69-1.68-4.43-1.68-6.12,0c-1.69,1.69-1.69,4.42,0,6.11c1.69,1.68,4.43,1.68,6.12,0
	C228.81,162.08,228.81,159.34,227.12,157.65z M226.79,181.92c-1.51-1.5-3.95-1.5-5.46,0c-1.51,1.5-1.51,3.94,0,5.44
	c1.51,1.5,3.95,1.5,5.46,0C228.29,185.86,228.29,183.42,226.79,181.92z M226.05,254.45c-1.1-1.1-2.89-1.1-3.99,0
	c-1.1,1.1-1.1,2.88,0,3.98c1.1,1.1,2.89,1.1,3.99,0C227.16,257.33,227.16,255.55,226.05,254.45z M225.42,350.8
	c-0.75-0.75-1.98-0.75-2.73,0c-0.75,0.75-0.75,1.97,0,2.72c0.75,0.75,1.98,0.75,2.73,0C226.17,352.78,226.17,351.56,225.42,350.8z
	 M225.95,278.47c-1.05-1.04-2.75-1.04-3.79,0c-1.05,1.05-1.05,2.74,0,3.79c1.05,1.04,2.75,1.04,3.79,0
	C227,281.22,227,279.52,225.95,278.47z M225.46,326.84c-0.77-0.77-2.02-0.77-2.79,0c-0.77,0.77-0.77,2.02,0,2.79
	c0.77,0.77,2.02,0.77,2.79,0C226.23,328.86,226.23,327.61,225.46,326.84z M225.59,302.78c-0.84-0.84-2.21-0.84-3.06,0
	c-0.85,0.84-0.85,2.21,0,3.05c0.85,0.84,2.21,0.84,3.06,0C226.43,304.98,226.43,303.62,225.59,302.78z M227.72,85.26
	c-2.02-2.01-5.3-2.01-7.32,0c-2.02,2.02-2.02,5.29,0,7.3c2.02,2.01,5.3,2.01,7.32,0C229.74,90.55,229.74,87.28,227.72,85.26z
	 M213.13,434.87c-0.59-0.59-1.54-0.59-2.13,0c-0.59,0.58-0.59,1.54,0,2.12c0.59,0.59,1.54,0.59,2.13,0
	C213.71,436.4,213.71,435.45,213.13,434.87z M213.03,458.9c-0.53-0.54-1.4-0.54-1.93,0c-0.53,0.53-0.53,1.39,0,1.92
	c0.53,0.53,1.4,0.53,1.93,0C213.56,460.29,213.56,459.43,213.03,458.9z M213.16,410.9c-0.61-0.61-1.59-0.61-2.2,0
	c-0.61,0.61-0.61,1.58,0,2.19c0.61,0.61,1.59,0.61,2.2,0C213.77,412.49,213.77,411.51,213.16,410.9z M213.16,386.97
	c-0.61-0.61-1.59-0.61-2.2,0c-0.61,0.6-0.61,1.58,0,2.19c0.61,0.6,1.59,0.6,2.2,0C213.77,388.55,213.77,387.57,213.16,386.97z
	 M212.99,482.86c-0.52-0.51-1.35-0.51-1.86,0c-0.51,0.51-0.51,1.35,0,1.86c0.51,0.52,1.35,0.52,1.86,0
	C213.51,484.21,213.51,483.38,212.99,482.86z M211.2,530.79c-0.48,0.48-0.48,1.25,0,1.73c0.48,0.48,1.25,0.48,1.73,0
	c0.48-0.48,0.48-1.25,0-1.73C212.45,530.32,211.68,530.32,211.2,530.79z M225.32,374.84c-0.7-0.7-1.83-0.7-2.53,0
	c-0.7,0.7-0.7,1.83,0,2.53c0.7,0.69,1.83,0.69,2.53,0C226.02,376.66,226.02,375.53,225.32,374.84z M227.62,109.29
	c-1.97-1.96-5.16-1.96-7.12,0c-1.97,1.96-1.97,5.14,0,7.11c1.96,1.96,5.15,1.96,7.12,0C229.58,114.43,229.58,111.25,227.62,109.29z
	 M228.08,60.96c-2.22-2.22-5.82-2.22-8.05,0c-2.22,2.22-2.22,5.81,0,8.03c2.23,2.22,5.83,2.22,8.05,0
	C230.31,66.77,230.31,63.18,228.08,60.96z M212.96,506.83c-0.5-0.5-1.3-0.5-1.8,0c-0.5,0.49-0.5,1.29,0,1.79c0.5,0.5,1.3,0.5,1.8,0
	C213.46,508.13,213.46,507.32,212.96,506.83z M238.95,169.79c-1.6-1.6-4.19-1.6-5.79,0c-1.6,1.6-1.6,4.18,0,5.77
	c1.6,1.59,4.19,1.59,5.79,0C240.54,173.97,240.54,171.38,238.95,169.79z M238.28,218.32c-1.23-1.23-3.23-1.23-4.46,0
	c-1.23,1.22-1.23,3.21,0,4.45c1.23,1.23,3.23,1.23,4.46,0C239.51,221.53,239.51,219.54,238.28,218.32z M238.75,193.92
	c-1.49-1.48-3.9-1.48-5.39,0c-1.49,1.49-1.49,3.89,0,5.38c1.49,1.49,3.9,1.49,5.39,0C240.23,197.81,240.23,195.41,238.75,193.92z
	 M261.11,410.93c-0.59-0.58-1.54-0.58-2.13,0c-0.59,0.59-0.59,1.54,0,2.13c0.59,0.59,1.54,0.59,2.13,0
	C261.69,412.47,261.69,411.52,261.11,410.93z M239.28,145.52c-1.78-1.78-4.67-1.78-6.45,0c-1.78,1.78-1.78,4.66,0,6.44
	c1.78,1.78,4.67,1.78,6.45,0C241.06,150.18,241.06,147.3,239.28,145.52z M237.28,362.9c-0.68-0.68-1.78-0.68-2.46,0
	c-0.68,0.68-0.68,1.78,0,2.46c0.68,0.68,1.78,0.68,2.46,0C237.96,364.68,237.96,363.58,237.28,362.9z M237.61,290.77
	c-0.86-0.86-2.26-0.86-3.13,0c-0.86,0.86-0.86,2.26,0,3.12c0.86,0.86,2.26,0.86,3.13,0C238.48,293.03,238.48,291.64,237.61,290.77z
	 M237.58,314.74c-0.85-0.84-2.21-0.84-3.06,0c-0.84,0.84-0.84,2.21,0,3.06c0.85,0.84,2.21,0.84,3.06,0
	C238.43,316.95,238.43,315.58,237.58,314.74z M237.95,266.51c-1.05-1.04-2.75-1.04-3.79,0c-1.05,1.04-1.05,2.74,0,3.78
	c1.05,1.04,2.75,1.04,3.79,0C239,269.25,239,267.56,237.95,266.51z M237.35,338.91c-0.72-0.72-1.88-0.72-2.59,0
	c-0.72,0.71-0.72,1.87,0,2.58c0.72,0.72,1.88,0.72,2.59,0C238.07,340.78,238.07,339.62,237.35,338.91z M239.41,121.46
	c-1.86-1.85-4.87-1.85-6.72,0c-1.85,1.85-1.85,4.85,0,6.7c1.85,1.85,4.86,1.85,6.72,0C241.27,126.31,241.27,123.31,239.41,121.46z
	 M239.91,73.1c-2.13-2.13-5.59-2.13-7.72,0c-2.13,2.13-2.13,5.57,0,7.7c2.13,2.12,5.59,2.12,7.72,0
	C242.04,78.67,242.04,75.22,239.91,73.1z M224.96,470.93c-0.5-0.5-1.3-0.5-1.8,0c-0.5,0.49-0.5,1.29,0,1.79c0.5,0.49,1.3,0.49,1.8,0
	C225.45,472.23,225.45,471.43,224.96,470.93z M223.26,542.83c-0.44,0.44-0.44,1.15,0,1.6c0.44,0.44,1.15,0.44,1.59,0
	c0.44-0.44,0.44-1.15,0-1.6C224.42,542.39,223.7,542.39,223.26,542.83z M224.96,494.86c-0.5-0.5-1.3-0.5-1.8,0
	c-0.5,0.49-0.5,1.3,0,1.79c0.5,0.49,1.3,0.49,1.8,0C225.45,496.16,225.45,495.36,224.96,494.86z M225.09,422.93
	c-0.57-0.57-1.49-0.57-2.06,0c-0.57,0.57-0.57,1.49,0,2.06c0.57,0.57,1.49,0.57,2.06,0C225.66,424.42,225.66,423.5,225.09,422.93z
	 M225.06,446.9c-0.55-0.55-1.44-0.55-1.99,0c-0.55,0.55-0.55,1.44,0,1.99c0.55,0.55,1.44,0.55,1.99,0
	C225.61,448.34,225.61,447.45,225.06,446.9z M225.19,398.9c-0.63-0.62-1.64-0.62-2.26,0c-0.63,0.62-0.63,1.63,0,2.26
	c0.63,0.63,1.63,0.63,2.26,0C225.81,400.53,225.81,399.52,225.19,398.9z M224.92,518.83c-0.48-0.48-1.25-0.48-1.73,0
	c-0.48,0.48-0.48,1.25,0,1.73c0.48,0.48,1.25,0.48,1.73,0C225.4,520.08,225.4,519.31,224.92,518.83z M240.01,49.06
	c-2.18-2.18-5.73-2.18-7.91,0c-2.19,2.18-2.19,5.72,0,7.9c2.18,2.18,5.73,2.18,7.91,0C242.2,54.78,242.2,51.24,240.01,49.06z
	 M239.61,97.33c-1.96-1.96-5.15-1.96-7.12,0c-1.97,1.96-1.97,5.14,0,7.1c1.97,1.96,5.15,1.96,7.12,0
	C241.58,102.47,241.58,99.29,239.61,97.33z M219.7,45.39c2.41,2.4,6.31,2.4,8.72,0c1.29-1.29,1.87-3.01,1.77-4.7h-12.26
	C217.83,42.38,218.41,44.1,219.7,45.39z M309.05,434.9c-0.57-0.57-1.49-0.57-2.06,0c-0.57,0.57-0.57,1.49,0,2.06
	c0.57,0.57,1.49,0.57,2.06,0C309.62,436.39,309.62,435.47,309.05,434.9z M297.66,278.75c-0.9-0.9-2.36-0.9-3.26,0
	c-0.9,0.9-0.9,2.35,0,3.25c0.9,0.9,2.36,0.9,3.26,0C298.55,281.1,298.55,279.64,297.66,278.75z M297.42,326.84
	c-0.77-0.77-2.02-0.77-2.79,0c-0.77,0.77-0.77,2.02,0,2.79c0.77,0.77,2.02,0.77,2.79,0C298.19,328.86,298.19,327.61,297.42,326.84z
	 M298.39,206.22c-1.3-1.3-3.42-1.3-4.72,0c-1.31,1.3-1.31,3.41,0,4.72c1.31,1.3,3.42,1.3,4.72,0
	C299.69,209.63,299.69,207.52,298.39,206.22z M298.06,230.48c-1.12-1.12-2.94-1.12-4.06,0c-1.12,1.12-1.12,2.93,0,4.05
	c1.12,1.12,2.94,1.12,4.06,0C299.18,233.41,299.18,231.6,298.06,230.48z M297.79,254.68c-0.98-0.97-2.55-0.97-3.53,0
	c-0.97,0.97-0.97,2.54,0,3.51c0.98,0.97,2.55,0.97,3.53,0C298.76,257.22,298.76,255.65,297.79,254.68z M297.56,302.78
	c-0.85-0.84-2.22-0.84-3.06,0c-0.84,0.84-0.84,2.21,0,3.05c0.85,0.84,2.22,0.84,3.06,0C298.4,304.98,298.4,303.62,297.56,302.78z
	 M297.06,422.93c-0.57-0.57-1.49-0.57-2.07,0c-0.57,0.57-0.57,1.49,0,2.06c0.57,0.57,1.5,0.57,2.07,0
	C297.63,424.42,297.63,423.5,297.06,422.93z M297.02,446.9c-0.55-0.55-1.44-0.55-1.99,0c-0.55,0.55-0.55,1.44,0,1.99
	c0.55,0.55,1.44,0.55,1.99,0S297.57,447.45,297.02,446.9z M297.19,374.94c-0.64-0.64-1.69-0.64-2.33,0c-0.65,0.64-0.65,1.68,0,2.32
	c0.64,0.64,1.69,0.64,2.33,0C297.83,376.62,297.83,375.58,297.19,374.94z M297.12,398.93c-0.61-0.6-1.59-0.6-2.2,0
	c-0.61,0.61-0.61,1.59,0,2.19c0.61,0.61,1.59,0.61,2.2,0C297.73,400.52,297.73,399.54,297.12,398.93z M297.39,350.8
	c-0.75-0.75-1.97-0.75-2.73,0c-0.75,0.75-0.75,1.97,0,2.72c0.75,0.75,1.97,0.75,2.73,0C298.14,352.78,298.14,351.56,297.39,350.8z
	 M296.92,470.93c-0.49-0.5-1.3-0.5-1.79,0c-0.5,0.49-0.5,1.29,0,1.79c0.49,0.49,1.3,0.49,1.79,0
	C297.42,472.23,297.42,471.43,296.92,470.93z M300.12,60.9c-2.26-2.25-5.92-2.25-8.18,0c-2.26,2.26-2.26,5.91,0,8.16
	c2.26,2.25,5.92,2.25,8.18,0C302.38,66.81,302.38,63.15,300.12,60.9z M302.15,40.69H289.9c-0.1,1.69,0.48,3.41,1.77,4.7
	c2.4,2.4,6.3,2.4,8.71,0C301.68,44.1,302.25,42.38,302.15,40.69z M284.83,506.93c-0.44-0.44-1.15-0.44-1.6,0
	c-0.44,0.44-0.44,1.15,0,1.6c0.44,0.44,1.16,0.44,1.6,0C285.27,508.08,285.27,507.37,284.83,506.93z M284.93,482.9
	c-0.5-0.49-1.3-0.49-1.8,0c-0.49,0.49-0.49,1.3,0,1.79c0.5,0.49,1.3,0.49,1.8,0C285.43,484.19,285.43,483.39,284.93,482.9z
	 M298.69,181.99c-1.47-1.47-3.85-1.47-5.32,0c-1.47,1.47-1.47,3.84,0,5.3c1.47,1.47,3.85,1.47,5.32,0
	C300.16,185.83,300.16,183.45,298.69,181.99z M283.27,530.9c-0.42,0.42-0.42,1.1,0,1.53c0.42,0.42,1.11,0.42,1.53,0
	c0.42-0.42,0.42-1.11,0-1.53C284.37,530.47,283.69,530.47,283.27,530.9z M299.15,133.66c-1.72-1.72-4.53-1.72-6.25,0
	c-1.73,1.72-1.73,4.51,0,6.24c1.72,1.72,4.53,1.72,6.25,0C300.88,138.17,300.88,135.38,299.15,133.66z M299.92,85.03
	c-2.15-2.14-5.63-2.14-7.78,0c-2.15,2.14-2.15,5.62,0,7.76c2.15,2.15,5.63,2.15,7.78,0C302.07,90.65,302.07,87.17,299.92,85.03z
	 M299.05,157.69c-1.67-1.67-4.38-1.67-6.06,0c-1.67,1.67-1.67,4.37,0,6.04c1.67,1.67,4.38,1.67,6.06,0
	C300.72,162.06,300.72,159.36,299.05,157.69z M299.75,109.13c-2.06-2.05-5.39-2.05-7.45,0c-2.06,2.05-2.06,5.38,0,7.43
	c2.06,2.06,5.39,2.06,7.45,0C301.81,114.51,301.81,111.18,299.75,109.13z M309.65,290.71c-0.9-0.9-2.36-0.9-3.26,0
	c-0.9,0.9-0.9,2.36,0,3.26c0.9,0.9,2.36,0.9,3.26,0C310.55,293.07,310.55,291.61,309.65,290.71z M309.55,314.74
	c-0.85-0.84-2.22-0.84-3.06,0c-0.85,0.84-0.85,2.21,0,3.06c0.85,0.84,2.21,0.84,3.06,0C310.4,316.95,310.4,315.58,309.55,314.74z
	 M309.42,338.8c-0.77-0.77-2.02-0.77-2.79,0c-0.77,0.77-0.77,2.02,0,2.79c0.77,0.77,2.02,0.77,2.79,0
	C310.19,340.82,310.19,339.58,309.42,338.8z M309.32,362.84c-0.72-0.71-1.88-0.71-2.59,0c-0.72,0.72-0.72,1.88,0,2.59
	c0.72,0.71,1.88,0.71,2.59,0C310.04,364.71,310.04,363.55,309.32,362.84z M285,458.9c-0.53-0.54-1.4-0.54-1.93,0
	c-0.53,0.53-0.53,1.39,0,1.92c0.53,0.53,1.4,0.53,1.93,0C285.53,460.29,285.53,459.43,285,458.9z M309.75,266.68
	c-0.95-0.95-2.5-0.95-3.46,0c-0.95,0.95-0.95,2.5,0,3.45c0.95,0.95,2.5,0.95,3.46,0C310.71,269.18,310.71,267.63,309.75,266.68z
	 M308.85,482.97c-0.46-0.46-1.2-0.46-1.66,0c-0.46,0.45-0.46,1.2,0,1.65c0.46,0.46,1.2,0.46,1.66,0
	C309.31,484.17,309.31,483.42,308.85,482.97z M309.85,242.65c-1.01-1.01-2.65-1.01-3.66,0c-1.01,1.01-1.01,2.64,0,3.65
	c1.01,1.01,2.65,1.01,3.66,0C310.86,245.29,310.86,243.65,309.85,242.65z M309.19,386.9c-0.64-0.64-1.69-0.64-2.33,0
	c-0.64,0.64-0.64,1.68,0,2.32c0.64,0.64,1.69,0.64,2.33,0C309.83,388.58,309.83,387.54,309.19,386.9z M308.92,458.97
	c-0.5-0.5-1.3-0.5-1.79,0c-0.5,0.49-0.5,1.3,0,1.79c0.49,0.5,1.3,0.5,1.79,0C309.42,460.26,309.42,459.46,308.92,458.97z
	 M309.08,410.93c-0.59-0.58-1.54-0.58-2.13,0c-0.59,0.59-0.59,1.54,0,2.13c0.59,0.59,1.54,0.59,2.13,0
	C309.67,412.47,309.67,411.52,309.08,410.93z M311.15,145.63c-1.73-1.73-4.53-1.73-6.25,0c-1.73,1.72-1.73,4.51,0,6.24
	c1.73,1.72,4.53,1.72,6.25,0C312.87,150.14,312.87,147.35,311.15,145.63z M312.18,72.8c-2.29-2.29-6.02-2.29-8.31,0
	c-2.3,2.29-2.3,6.01,0,8.3c2.3,2.29,6.02,2.29,8.31,0C314.48,78.8,314.48,75.09,312.18,72.8z M312.24,48.8
	c-2.33-2.33-6.12-2.33-8.45,0c-2.33,2.33-2.33,6.1,0,8.43c2.33,2.33,6.11,2.33,8.45,0C314.58,54.9,314.58,51.12,312.24,48.8z
	 M311.68,97.23c-2.02-2.01-5.3-2.01-7.32,0c-2.02,2.02-2.02,5.28,0,7.3c2.02,2.02,5.3,2.02,7.32,0
	C313.7,102.51,313.7,99.24,311.68,97.23z M295.29,542.89c-0.4,0.4-0.4,1.06,0,1.46c0.4,0.4,1.06,0.4,1.46,0
	c0.4-0.41,0.4-1.06,0-1.46C296.35,542.49,295.7,542.49,295.29,542.89z M296.83,518.9c-0.44-0.44-1.16-0.44-1.6,0
	c-0.44,0.44-0.44,1.15,0,1.59c0.44,0.44,1.16,0.44,1.6,0C297.26,520.05,297.26,519.33,296.83,518.9z M296.86,494.93
	c-0.46-0.46-1.2-0.46-1.66,0c-0.46,0.46-0.46,1.2,0,1.66c0.46,0.46,1.2,0.46,1.66,0C297.32,496.13,297.32,495.39,296.86,494.93z
	 M310.52,194.12c-1.38-1.37-3.61-1.37-4.99,0s-1.38,3.6,0,4.97c1.38,1.37,3.61,1.37,4.99,0
	C311.89,197.72,311.89,195.49,310.52,194.12z M310.85,169.85c-1.56-1.56-4.09-1.56-5.65,0c-1.56,1.56-1.56,4.08,0,5.64
	c1.56,1.56,4.09,1.56,5.65,0C312.41,173.94,312.41,171.41,310.85,169.85z M311.41,121.43c-1.87-1.87-4.91-1.87-6.78,0
	c-1.87,1.87-1.87,4.9,0,6.77c1.87,1.87,4.91,1.87,6.78,0C313.29,126.33,313.29,123.29,311.41,121.43z M309.98,218.58
	c-1.08-1.08-2.84-1.08-3.92,0c-1.08,1.08-1.08,2.84,0,3.92c1.08,1.08,2.84,1.08,3.92,0C311.07,221.42,311.07,219.66,309.98,218.58z
	 M275.86,85.1c-2.11-2.11-5.54-2.11-7.65,0c-2.11,2.1-2.11,5.52,0,7.63c2.11,2.11,5.54,2.11,7.65,0
	C277.98,90.62,277.98,87.2,275.86,85.1z M273.67,278.75c-0.9-0.9-2.36-0.9-3.26,0c-0.9,0.9-0.9,2.35,0,3.25c0.9,0.9,2.36,0.9,3.26,0
	C274.57,281.1,274.57,279.64,273.67,278.75z M273.5,302.84c-0.81-0.81-2.12-0.81-2.93,0c-0.81,0.81-0.81,2.11,0,2.92
	c0.81,0.81,2.12,0.81,2.93,0C274.31,304.95,274.31,303.65,273.5,302.84z M273.47,326.81c-0.79-0.79-2.07-0.79-2.86,0
	c-0.79,0.79-0.79,2.07,0,2.85c0.79,0.79,2.07,0.79,2.86,0C274.26,328.87,274.26,327.59,273.47,326.81z M274.13,230.42
	c-1.16-1.16-3.03-1.16-4.19,0c-1.16,1.15-1.16,3.03,0,4.18c1.16,1.15,3.03,1.15,4.19,0C275.29,233.44,275.29,231.57,274.13,230.42z
	 M273.83,254.65c-0.99-1-2.6-1-3.59,0c-0.99,0.99-0.99,2.59,0,3.58c0.99,0.99,2.6,0.99,3.59,0
	C274.82,257.24,274.82,255.63,273.83,254.65z M273.14,398.93c-0.61-0.6-1.59-0.6-2.2,0c-0.6,0.61-0.6,1.59,0,2.19
	c0.61,0.61,1.59,0.61,2.2,0C273.74,400.52,273.74,399.54,273.14,398.93z M273.37,350.84c-0.73-0.73-1.93-0.73-2.66,0
	c-0.74,0.74-0.74,1.93,0,2.66c0.73,0.74,1.92,0.74,2.66,0C274.1,352.76,274.1,351.57,273.37,350.84z M273.03,422.97
	c-0.55-0.55-1.44-0.55-2,0c-0.55,0.55-0.55,1.44,0,1.99c0.55,0.55,1.44,0.55,2,0C273.59,424.41,273.59,423.52,273.03,422.97z
	 M274.53,206.09c-1.38-1.37-3.61-1.37-4.99,0c-1.38,1.37-1.38,3.6,0,4.98c1.38,1.37,3.61,1.37,4.99,0
	C275.91,209.69,275.91,207.46,274.53,206.09z M273.3,374.84c-0.7-0.7-1.83-0.7-2.53,0s-0.7,1.83,0,2.53c0.7,0.69,1.83,0.69,2.53,0
	C274,376.66,274,375.53,273.3,374.84z M259.24,530.86c-0.44,0.44-0.44,1.15,0,1.59c0.44,0.44,1.15,0.44,1.6,0
	c0.44-0.44,0.44-1.15,0-1.59C260.4,530.42,259.69,530.42,259.24,530.86z M260.88,506.9c-0.46-0.46-1.2-0.46-1.66,0
	c-0.46,0.46-0.46,1.2,0,1.66c0.46,0.46,1.2,0.46,1.66,0C261.33,508.1,261.33,507.36,260.88,506.9z M274.7,181.99
	c-1.47-1.47-3.85-1.47-5.32,0c-1.47,1.47-1.47,3.84,0,5.3c1.47,1.47,3.85,1.47,5.32,0C276.17,185.83,276.17,183.45,274.7,181.99z
	 M260.91,482.93c-0.48-0.48-1.25-0.48-1.73,0c-0.48,0.48-0.48,1.25,0,1.72c0.48,0.48,1.25,0.48,1.73,0
	C261.38,484.18,261.38,483.41,260.91,482.93z M260.97,458.93c-0.52-0.52-1.35-0.52-1.86,0c-0.52,0.51-0.52,1.34,0,1.86
	c0.51,0.51,1.35,0.51,1.86,0C261.49,460.27,261.49,459.44,260.97,458.93z M276.19,60.83c-2.3-2.29-6.02-2.29-8.32,0
	c-2.3,2.29-2.3,6.01,0,8.3c2.3,2.29,6.02,2.29,8.32,0C278.49,66.84,278.49,63.12,276.19,60.83z M273.03,446.9
	c-0.55-0.55-1.44-0.55-2,0c-0.55,0.55-0.55,1.44,0,1.99c0.55,0.55,1.44,0.55,2,0C273.59,448.34,273.59,447.45,273.03,446.9z
	 M275.16,133.66c-1.73-1.72-4.53-1.72-6.25,0c-1.73,1.72-1.73,4.51,0,6.24c1.73,1.72,4.53,1.72,6.25,0
	C276.89,138.17,276.89,135.38,275.16,133.66z M275.06,157.69c-1.67-1.67-4.38-1.67-6.05,0c-1.68,1.67-1.68,4.37,0,6.04
	c1.67,1.67,4.38,1.67,6.05,0C276.74,162.06,276.74,159.36,275.06,157.69z M261.08,434.9c-0.57-0.57-1.5-0.57-2.07,0
	c-0.57,0.57-0.57,1.49,0,2.05c0.57,0.57,1.49,0.57,2.07,0C261.64,436.39,261.64,435.47,261.08,434.9z M275.7,109.19
	c-2.02-2.02-5.3-2.02-7.32,0c-2.02,2.02-2.02,5.28,0,7.3c2.02,2.02,5.3,2.02,7.32,0C277.72,114.48,277.72,111.21,275.7,109.19z
	 M285.9,242.61c-1.03-1.03-2.7-1.03-3.73,0c-1.03,1.03-1.03,2.69,0,3.72c1.03,1.03,2.7,1.03,3.73,0
	C286.92,245.3,286.92,243.64,285.9,242.61z M285.56,290.81c-0.85-0.84-2.21-0.84-3.06,0c-0.84,0.84-0.84,2.21,0,3.05
	c0.85,0.84,2.21,0.84,3.06,0C286.41,293.02,286.41,291.65,285.56,290.81z M285.56,314.74c-0.85-0.84-2.21-0.84-3.06,0
	c-0.84,0.84-0.84,2.21,0,3.06c0.85,0.84,2.21,0.84,3.06,0C286.41,316.95,286.41,315.58,285.56,314.74z M285.79,266.64
	c-0.97-0.97-2.55-0.97-3.53,0c-0.97,0.97-0.97,2.55,0,3.52c0.97,0.97,2.55,0.97,3.53,0C286.77,269.19,286.77,267.62,285.79,266.64z
	 M286.06,218.52c-1.12-1.12-2.94-1.12-4.06,0c-1.12,1.12-1.12,2.93,0,4.05c1.12,1.12,2.94,1.12,4.06,0
	C287.18,221.44,287.18,219.63,286.06,218.52z M285.06,434.9c-0.57-0.57-1.49-0.57-2.06,0c-0.57,0.57-0.57,1.49,0,2.06
	c0.57,0.57,1.49,0.57,2.06,0C285.63,436.39,285.63,435.47,285.06,434.9z M285.06,410.97c-0.57-0.57-1.49-0.57-2.06,0
	c-0.57,0.57-0.57,1.49,0,2.06c0.57,0.57,1.49,0.57,2.06,0C285.63,412.46,285.63,411.53,285.06,410.97z M286.69,193.95
	c-1.47-1.47-3.85-1.47-5.32,0c-1.47,1.47-1.47,3.85,0,5.31c1.47,1.47,3.85,1.47,5.32,0C288.16,197.8,288.16,195.42,286.69,193.95z
	 M285.39,338.84c-0.75-0.75-1.97-0.75-2.73,0c-0.75,0.75-0.75,1.97,0,2.72c0.75,0.75,1.98,0.75,2.73,0
	C286.15,340.81,286.15,339.59,285.39,338.84z M285.13,386.97c-0.61-0.61-1.59-0.61-2.2,0c-0.6,0.6-0.6,1.58,0,2.19
	c0.61,0.6,1.59,0.6,2.2,0C285.73,388.55,285.73,387.57,285.13,386.97z M285.36,362.8c-0.73-0.74-1.92-0.74-2.66,0
	c-0.73,0.73-0.73,1.92,0,2.66c0.73,0.73,1.93,0.73,2.66,0C286.1,364.72,286.1,363.53,285.36,362.8z M272.9,494.9
	c-0.48-0.48-1.25-0.48-1.73,0c-0.48,0.48-0.48,1.25,0,1.73c0.48,0.48,1.25,0.48,1.73,0C273.38,496.15,273.38,495.37,272.9,494.9z
	 M272.87,518.86c-0.46-0.46-1.2-0.46-1.66,0c-0.46,0.46-0.46,1.2,0,1.66c0.46,0.46,1.2,0.46,1.66,0
	C273.33,520.06,273.33,519.32,272.87,518.86z M288.12,48.93c-2.26-2.25-5.92-2.25-8.18,0c-2.26,2.26-2.26,5.91,0,8.17
	c2.26,2.25,5.92,2.25,8.18,0C290.38,54.84,290.38,51.19,288.12,48.93z M267.81,45.26c2.33,2.33,6.11,2.33,8.45,0
	c1.26-1.25,1.82-2.93,1.72-4.57H266.1C266,42.34,266.55,44.01,267.81,45.26z M272.9,470.96c-0.48-0.48-1.25-0.48-1.73,0
	c-0.48,0.48-0.48,1.25,0,1.73c0.48,0.48,1.25,0.48,1.73,0C273.38,472.22,273.38,471.44,272.9,470.96z M271.27,542.86
	c-0.42,0.42-0.42,1.11,0,1.53c0.42,0.42,1.11,0.42,1.53,0c0.42-0.42,0.42-1.11,0-1.53C272.38,542.44,271.69,542.44,271.27,542.86z
	 M287.76,97.16c-2.06-2.05-5.39-2.05-7.45,0c-2.06,2.05-2.06,5.38,0,7.43c2.06,2.05,5.39,2.05,7.45,0
	C289.81,102.54,289.81,99.21,287.76,97.16z M288.05,72.93c-2.22-2.22-5.82-2.22-8.05,0c-2.22,2.22-2.22,5.81,0,8.03
	c2.23,2.22,5.83,2.22,8.05,0C290.28,78.74,290.28,75.15,288.05,72.93z M287.36,121.49c-1.84-1.83-4.82-1.83-6.65,0
	c-1.84,1.83-1.84,4.8,0,6.64c1.84,1.83,4.82,1.83,6.65,0C289.2,126.29,289.2,123.32,287.36,121.49z M287.16,145.63
	c-1.73-1.73-4.52-1.73-6.25,0c-1.73,1.72-1.73,4.51,0,6.24c1.73,1.72,4.53,1.72,6.25,0C288.88,150.14,288.88,147.35,287.16,145.63z
	 M286.89,169.82c-1.58-1.57-4.14-1.57-5.72,0c-1.58,1.57-1.58,4.13,0,5.71c1.58,1.58,4.14,1.58,5.72,0
	C288.47,173.95,288.47,171.39,286.89,169.82z"/>
<path class="Colour1 fill" d="M446.82,90.13c0,0,52.18,38.95,53.68,178.25c0,0-43.92,30.71-91.22,17.6c0,0-9.27-30.58-2.32-65.53
	C406.96,220.44,430.18,173.26,446.82,90.13z"/>
<path class="Colour1 fill" d="M54.18,90.13c0,0-52.18,38.95-53.68,178.25c0,0,43.92,30.71,91.22,17.6c0,0,9.27-30.58,2.32-65.53
	C94.04,220.44,70.82,173.26,54.18,90.13z"/>
<path class="ArmTrim fill" d="M407.13,267.38c-0.89,12.24,2.16,18.6,2.16,18.6c47.3,13.11,91.22-17.6,91.22-17.6
	c-0.07-6.45-0.25-12.69-0.52-18.72c0,0-45.27,22.28-91.25,17.6L407.13,267.38z"/>
<path class="ArmTrim fill" d="M93.94,267.38c0.89,12.24-2.16,18.6-2.16,18.6c-47.3,13.11-91.22-17.6-91.22-17.6
	c0.07-6.45,0.25-12.69,0.52-18.72c0,0,45.27,22.28,91.25,17.6L93.94,267.38z"/>
<path class="st1" d="M96.25,597c14.67,8.05,53.26,19.29,154.26,18.79c103.23-0.51,140.87-8.07,154.79-15.72"/>
<g>
	<g>
		<path class="st1" d="M96.25,603.6c0.14,0.08,0.29,0.16,0.44,0.24"/>
		<path class="st2" d="M97.57,604.3c15.61,7.99,54.83,18.57,152.94,18.09c103.77-0.51,141.26-8.15,155.01-15.84"/>
		<path class="st1" d="M405.95,606.3c0.15-0.08,0.29-0.17,0.43-0.25"/>
	</g>
</g>
<path class="Collar fill" d="M314.81,9.99c0,0-31.9-9.45-64.11-9.49l-0.47,0c-31.01,0.05-61.7,8.8-63.92,9.45l-0.13,0.04
	c-9.22,9.6-15.69,20.06-20.15,30.65l168.94,0.05C330.52,30.08,324.04,19.6,314.81,9.99"/>
<path class="st3" d="M164.99,40.64l168.94,0.05C329.48,30.08,323,19.6,313.76,9.99c0,0-31.9-9.45-64.11-9.49l-0.47,0
	c-31.01,0.05-61.7,8.8-63.92,9.45l-0.13,0.04C175.91,19.59,169.44,30.05,164.99,40.64z"/>
<g id="BBodyLogos"></g>
<g>
	<path class="st4" d="M0.82,253.77c0,0,32.62,21.54,93.18,18.54"/>
	<path class="st4" d="M500.18,253.77c0,0-32.62,21.54-93.18,18.54"/>
</g>
</svg>
