<?xml version="1.0" encoding="utf-8"?>
<!-- Generator: Adobe Illustrator 19.1.0, SVG Export Plug-In . SVG Version: 6.00 Build 0)  -->
<svg version="1.1" id="Layer_1" xmlns="http://www.w3.org/2000/svg" xmlns:xlink="http://www.w3.org/1999/xlink" x="0px" y="0px"
	 viewBox="0 0 501.01 643" style="enable-background:new 0 0 501.01 643;" xml:space="preserve">
<style type="text/css">
	<![CDATA[
	@font-face{font-family:'codaheavy';src:url('/fonts/coda-heavy-webfont.woff') format('woff')}
	text{font-family:Impact,codaheavy,sans-serif}
	.Number.fill{fill:#000}
	.NumberOutline.stroke{fill:none;stroke:#777;stroke-width:2.5}
	.Colour1.fill{fill:#000000;}
	.Collar.fill{fill:#000000;}
	.ArmTrim.fill{fill:#BC1D4A;}
	.Gradient1.stopColor{stop-color:#7F0710;}
	.st0{fill:none;stroke:#5D5D5D;stroke-miterlimit:10;}
	.st1{fill:none;stroke:#000000;stroke-linecap:round;stroke-linejoin:round;}
	.st2{fill:none;stroke:#5D5D5D;stroke-miterlimit:10;stroke-dasharray:1;}
	.st3{fill:url(#SVGID_1_);stroke:#000000;stroke-miterlimit:10;}
	.st4{fill:url(#SVGID_2_);stroke:#000000;stroke-miterlimit:10;}
	.st5{fill:none;stroke:#FFFFFF;stroke-miterlimit:10;}
	.st6{fill:url(#SVGID_3_);stroke:#000000;stroke-miterlimit:10;}
	.st7{fill:url(#SVGID_4_);stroke:#000000;stroke-miterlimit:10;}
	.st8{fill:none;stroke:#5D5D5D;stroke-miterlimit:10;stroke-dasharray:1.0005,1.0005;}
	]]>
</style>
<path class="Colour1 fill" d="M250.5,642.48c-151.65,0.75-157.91-25.84-157.91-25.84c38.04-190.74,1.45-396.2,1.45-396.2
	C67.46,165.77,54.18,90.13,54.18,90.13S70.32,69.9,146.9,50.06c0,0,12.76-2.62,19.14-9.36h168.92c6.38,6.74,19.14,9.36,19.14,9.36
	c76.58,19.85,92.72,40.07,92.72,40.07s-13.28,75.65-39.86,130.32c0,0-36.59,205.47,1.45,396.2
	C408.41,616.65,402.15,643.23,250.5,642.48"/>
<g>
	<path class="st0" d="M407.13,267.38c-0.89,12.24,2.16,18.6,2.16,18.6c47.3,13.11,91.22-17.6,91.22-17.6
		c-0.07-6.45-0.25-12.69-0.52-18.72c0,0-45.27,22.28-91.25,17.6L407.13,267.38z"/>
	<path class="st0" d="M93.94,267.38c0.89,12.24-2.16,18.6-2.16,18.6c-47.3,13.11-91.22-17.6-91.22-17.6
		c0.07-6.45,0.25-12.69,0.52-18.72c0,0,45.27,22.28,91.25,17.6L93.94,267.38z"/>
</g>
<path class="Colour1 fill" d="M446.82,90.13c0,0,52.18,38.95,53.68,178.25c0,0-43.92,30.71-91.22,17.6c0,0-9.27-30.58-2.32-65.53
	C406.96,220.44,430.18,173.26,446.82,90.13z"/>
<path class="Colour1 fill" d="M54.18,90.13c0,0-52.18,38.95-53.68,178.25c0,0,43.92,30.71,91.22,17.6c0,0,9.27-30.58,2.32-65.53
	C94.04,220.44,70.82,173.26,54.18,90.13z"/>
<path class="Collar fill" d="M314.81,9.99c0,0-31.9-9.45-64.11-9.49l-0.47,0c-31.01,0.05-61.7,8.8-63.92,9.45l-0.13,0.04
	c-9.22,9.6-15.69,20.06-20.15,30.65l168.94,0.05C330.52,30.08,324.04,19.6,314.81,9.99"/>
<path class="st1" d="M166.03,40.64l168.94,0.05c-4.45-10.61-10.93-21.09-20.17-30.7c0,0-31.9-9.45-64.11-9.49l-0.47,0
	c-31.01,0.05-61.7,8.8-63.92,9.45l-0.13,0.04C176.96,19.59,170.49,30.05,166.03,40.64z"/>
<g>
	<path class="st2" d="M0.82,253.77c0,0,32.62,21.54,93.18,18.54"/>
	<path class="st2" d="M500.18,253.77c0,0-32.62,21.54-93.18,18.54"/>
</g>
<g>
	<g>
		<linearGradient id="SVGID_1_" gradientUnits="userSpaceOnUse" x1="335.0231" y1="134.4299" x2="498.504" y2="134.4299">
			<stop class="Colour1 fill stopColor" offset="0" style="stop-color:#000000"/>
			<stop class="Gradient1 stopColor" offset="1" style="stop-color:#7F0710"/>
		</linearGradient>
		<path class="st3" d="M498.5,227.43c-7.93-104.06-51.62-137.3-51.62-137.3c-21.01-20.92-102.98-43.5-102.98-43.5
			c-4.86-1.9-8.89-5.94-8.89-5.94c5.89,15.03,7.6,27.96,7.6,27.96s110.64,37.73,120.33,134.58c0.67,6.7,3.34,13.13,7.96,18.04
			c0,0,8.98,9.58,27,6.16H498.5z"/>
		<linearGradient id="SVGID_2_" gradientUnits="userSpaceOnUse" x1="7.005" y1="241.44" x2="102.9505" y2="80.5315">
			<stop class="Gradient1 stopColor" offset="0" style="stop-color:#7F0710"/>
			<stop class="Colour1 fill stopColor" offset="1" style="stop-color:#000000"/>
		</linearGradient>
		<path class="st4" d="M2.5,227.43c7.93-104.06,51.62-137.3,51.62-137.3c21.01-20.92,102.98-43.5,102.98-43.5
			c4.86-1.9,8.89-5.94,8.89-5.94c-5.89,15.03-7.6,27.96-7.6,27.96S47.75,106.39,38.05,203.23c-0.67,6.7-3.34,13.13-7.96,18.04
			c0,0-8.98,9.58-27,6.16H2.5z"/>
	</g>
	<g>
		<path class="st5" d="M2.5,227.43h0.58c18.02,3.42,27-6.16,27-6.16c4.62-4.91,7.29-11.34,7.96-18.04
			c9.7-96.84,120.33-134.58,120.33-134.58s69.09-17.78,92.12-17.78s92.12,17.78,92.12,17.78s110.64,37.73,120.33,134.58
			c0.67,6.7,3.34,13.13,7.96,18.04c0,0,8.98,9.58,27,6.16h0.58"/>
	</g>
	<linearGradient id="SVGID_3_" gradientUnits="userSpaceOnUse" x1="382.3767" y1="291.5415" x2="382.3767" y2="625.9843">
		<stop class="Colour1 fill stopColor" offset="0" style="stop-color:#000000"/>
		<stop class="Gradient1 stopColor" offset="1" style="stop-color:#7F0710"/>
	</linearGradient>
	<path class="st6" d="M398.07,289.24L398.07,289.24c0,0-41.79,14.29-41.79,66.22v281.08l0,0c49.29-7.64,52.19-19.89,52.19-19.89
		C384.04,494.13,390.4,365.55,398.07,289.24z"/>
	
		<linearGradient id="SVGID_4_" gradientUnits="userSpaceOnUse" x1="3995.0173" y1="291.5415" x2="3995.0173" y2="625.9843" gradientTransform="matrix(-1 0 0 1 4113.6973 0)">
		<stop class="Colour1 fill stopColor" offset="0" style="stop-color:#000000"/>
		<stop class="Gradient1 stopColor" offset="1" style="stop-color:#7F0710"/>
	</linearGradient>
	<path class="st7" d="M102.99,289.24L102.99,289.24c0,0,41.79,14.29,41.79,66.22v281.08l0,0c-49.29-7.64-52.19-19.89-52.19-19.89
		C117.02,494.13,110.66,365.55,102.99,289.24z"/>
	<g>
		<path class="st5" d="M398.07,289.24L398.07,289.24c0,0-41.79,14.29-41.79,66.22v281.08l0,0c49.29-7.64,52.19-19.89,52.19-19.89"/>
		<path class="st5" d="M102.99,289.24L102.99,289.24c0,0,41.79,14.29,41.79,66.22v281.08l0,0c-49.29-7.64-52.19-19.89-52.19-19.89"
			/>
	</g>
</g>
<path class="st0" d="M96.25,597c14.67,8.05,53.26,19.29,154.26,18.79c103.23-0.51,140.87-8.07,154.79-15.72"/>
<g>
	<g>
		<path class="st0" d="M96.25,603.6c0.14,0.08,0.29,0.16,0.44,0.24"/>
		<path class="st8" d="M97.57,604.3c15.61,7.99,54.83,18.57,152.94,18.09c103.77-0.51,141.26-8.15,155.01-15.84"/>
		<path class="st0" d="M405.95,606.3c0.15-0.08,0.29-0.17,0.43-0.25"/>
	</g>
</g>
<path class="ArmTrim fill" d="M405.09,266.82c1.83,13.67,3.75,18.93,3.75,18.93c47.57,13.11,92.16-17.6,92.16-17.6
	c-0.07-6.45-0.25-12.69-0.53-18.72c0,0-45.53,22.28-91.78,17.6L405.09,266.82z"/>
<path class="ArmTrim fill" d="M95.59,267.16c-1.13,12.25-3.46,18.46-3.46,18.46C48.48,300.3,0,268.16,0,268.16
	c0.07-6.45,0.25-12.69,0.52-18.72c0,0,45.27,22.28,91.25,17.6L95.59,267.16z"/>
<g id="BBodyLogos"></g>
</svg>
