<?xml version="1.0" encoding="utf-8"?>
<!-- Generator: Adobe Illustrator 19.1.0, SVG Export Plug-In . SVG Version: 6.00 Build 0)  -->
<svg version="1.1" id="Layer_1" xmlns="http://www.w3.org/2000/svg" xmlns:xlink="http://www.w3.org/1999/xlink" x="0px" y="0px"
	 viewBox="0 0 501.01 643" style="enable-background:new 0 0 501.01 643;" xml:space="preserve">
<style type="text/css">
	<![CDATA[
	@font-face{font-family:'codaheavy';src:url('/fonts/coda-heavy-webfont.woff') format('woff')}
	text{font-family:Impact,codaheavy,sans-serif}
	.Colour1.fill{fill:#000000;}
	.Collar.fill{fill:#000000;}
	.ArmTrim.fill{fill:#A30000;}
	.Gradient1.stopColor{stopColor:#A30000;}
	.st0{fill:url(#SVGID_1_);}
	.st1{fill:none;stroke:#5D5D5D;stroke-miterlimit:10;stroke-dasharray:1;}
	.st2{fill:none;stroke:#5D5D5D;stroke-miterlimit:10;}
	.st3{fill:none;stroke:#5D5D5D;stroke-miterlimit:10;stroke-dasharray:1.0005,1.0005;}
	.st4{fill:none;stroke:#000000;stroke-linecap:round;stroke-linejoin:round;}
	.st5{fill:#FFFFFF;stroke:#000000;stroke-miterlimit:10;}
	.st6{fill:#383838;}
	.st7{fill:#FFFFFF;}
	]]>
</style>
<linearGradient id="SVGID_1_" gradientUnits="userSpaceOnUse" x1="250.5028" y1="49.2349" x2="250.5028" y2="632.0674">
	<stop class="Colour1 fill stopColor" offset="0" style="stop-color:#000000"/>
	<stop class="Gradient1 stopColor" offset="0.6364" style="stop-color:#A30000"/>
</linearGradient>
<path class="st0" d="M250.5,642.48c-151.65,0.75-157.91-25.84-157.91-25.84c38.04-190.74,1.45-396.2,1.45-396.2
	C67.46,165.77,54.18,90.13,54.18,90.13S70.32,69.9,146.9,50.06c0,0,12.76-2.62,19.14-9.36h168.92c6.38,6.74,19.14,9.36,19.14,9.36
	c76.58,19.85,92.72,40.07,92.72,40.07s-13.28,75.65-39.86,130.32c0,0-36.59,205.46,1.45,396.2
	C408.41,616.65,402.15,643.23,250.5,642.48"/>
<path class="Colour1 fill" d="M139.16,508.49c-0.42,0.42-1.11,0.42-1.53,0c-0.42-0.42-0.42-1.11,0-1.52c0.42-0.42,1.11-0.42,1.53,0
	C139.58,507.38,139.58,508.07,139.16,508.49z M139.39,434.93c-0.55-0.55-1.44-0.55-2,0c-0.55,0.55-0.55,1.44,0,1.99
	c0.55,0.55,1.45,0.55,2,0C139.94,436.38,139.94,435.48,139.39,434.93z M154.78,60.6c-2.42-2.42-6.36-2.42-8.78,0
	c-2.42,2.42-2.42,6.34,0,8.76c2.43,2.42,6.36,2.42,8.78,0C157.2,66.94,157.2,63.02,154.78,60.6z M139.22,482.97
	c-0.46-0.46-1.2-0.46-1.66,0c-0.46,0.45-0.46,1.2,0,1.65c0.46,0.46,1.2,0.46,1.66,0C139.68,484.17,139.68,483.42,139.22,482.97z
	 M139.26,459c-0.48-0.48-1.25-0.48-1.73,0c-0.48,0.48-0.48,1.25,0,1.72c0.48,0.48,1.25,0.48,1.73,0
	C139.74,460.25,139.74,459.47,139.26,459z M137.69,530.96c-0.39,0.38-0.39,1.01,0,1.4c0.38,0.38,1.01,0.38,1.4,0
	c0.38-0.39,0.38-1.01,0-1.4S138.08,530.58,137.69,530.96z M153.41,133.76c-1.67-1.67-4.38-1.67-6.05,0c-1.67,1.67-1.67,4.37,0,6.04
	c1.67,1.67,4.38,1.67,6.05,0C155.09,138.13,155.09,135.42,153.41,133.76z M153.15,157.95c-1.52-1.52-4-1.52-5.52,0
	c-1.53,1.52-1.53,3.99,0,5.51c1.52,1.52,3.99,1.52,5.52,0C154.67,161.94,154.67,159.48,153.15,157.95z M154.15,109.09
	c-2.08-2.07-5.44-2.07-7.52,0c-2.07,2.07-2.07,5.43,0,7.5c2.08,2.07,5.44,2.07,7.52,0C156.22,114.52,156.22,111.16,154.15,109.09z
	 M154.44,84.86c-2.24-2.24-5.87-2.24-8.12,0c-2.24,2.24-2.24,5.86,0,8.1c2.24,2.24,5.88,2.24,8.12,0
	C156.69,90.73,156.69,87.1,154.44,84.86z M152.65,182.38c-1.25-1.24-3.27-1.24-4.52,0c-1.25,1.25-1.25,3.27,0,4.52
	c1.25,1.24,3.27,1.24,4.52,0C153.9,185.65,153.9,183.63,152.65,182.38z M140.22,266.58c-1.01-1.01-2.65-1.01-3.66,0
	c-1.01,1.01-1.01,2.64,0,3.65c1.01,1.01,2.65,1.01,3.66,0C141.23,269.22,141.23,267.59,140.22,266.58z M140.32,242.55
	c-1.06-1.06-2.79-1.06-3.86,0c-1.07,1.07-1.07,2.79,0,3.85c1.07,1.06,2.79,1.06,3.86,0C141.39,245.33,141.39,243.61,140.32,242.55z
	 M140.92,170.15c-1.4-1.39-3.66-1.39-5.05,0c-1.4,1.4-1.4,3.65,0,5.05c1.4,1.39,3.66,1.39,5.05,0
	C142.32,173.8,142.32,171.55,140.92,170.15z M139.42,410.97c-0.57-0.57-1.49-0.57-2.06,0c-0.57,0.57-0.57,1.49,0,2.06
	c0.57,0.57,1.49,0.57,2.06,0C139.99,412.46,139.99,411.53,139.42,410.97z M140.65,194.35c-1.25-1.25-3.28-1.25-4.52,0
	c-1.25,1.24-1.25,3.27,0,4.51c1.25,1.25,3.27,1.25,4.52,0C141.9,197.62,141.9,195.59,140.65,194.35z M140.09,290.64
	c-0.94-0.93-2.46-0.93-3.39,0c-0.94,0.94-0.94,2.45,0,3.39c0.94,0.94,2.46,0.94,3.39,0C141.03,293.09,141.03,291.58,140.09,290.64z
	 M139.49,386.97c-0.61-0.61-1.59-0.61-2.2,0c-0.61,0.6-0.61,1.58,0,2.19c0.6,0.6,1.59,0.6,2.2,0
	C140.1,388.55,140.1,387.57,139.49,386.97z M139.96,314.71c-0.86-0.86-2.26-0.86-3.13,0c-0.86,0.86-0.86,2.26,0,3.12
	c0.86,0.86,2.26,0.86,3.13,0C140.82,316.97,140.82,315.57,139.96,314.71z M139.79,338.8c-0.77-0.77-2.02-0.77-2.79,0
	c-0.77,0.77-0.77,2.02,0,2.79c0.77,0.77,2.02,0.77,2.79,0C140.56,340.82,140.56,339.58,139.79,338.8z M140.42,218.52
	c-1.12-1.12-2.94-1.12-4.06,0c-1.12,1.12-1.12,2.93,0,4.05c1.12,1.12,2.94,1.12,4.06,0C141.54,221.44,141.54,219.63,140.42,218.52z
	 M151.12,518.96c-0.4-0.4-1.06-0.4-1.46,0c-0.4,0.41-0.4,1.06,0,1.46c0.41,0.41,1.06,0.41,1.46,0
	C151.52,520.02,151.52,519.37,151.12,518.96z M166.4,97.39c-1.93-1.93-5.06-1.93-6.99,0c-1.93,1.93-1.93,5.04,0,6.97
	c1.93,1.93,5.06,1.93,6.99,0C168.32,102.44,168.32,99.32,166.4,97.39z M167.09,72.76c-2.31-2.31-6.07-2.31-8.38,0
	c-2.31,2.31-2.31,6.05,0,8.36c2.31,2.31,6.07,2.31,8.38,0C169.41,78.82,169.41,75.08,167.09,72.76z M149.66,542.89
	c-0.4,0.4-0.4,1.06,0,1.46c0.41,0.4,1.06,0.4,1.46,0c0.4-0.41,0.4-1.06,0-1.46C150.72,542.49,150.06,542.49,149.66,542.89z
	 M151.22,471c-0.46-0.46-1.2-0.46-1.66,0c-0.46,0.46-0.46,1.2,0,1.66c0.46,0.45,1.2,0.45,1.66,0
	C151.68,472.2,151.68,471.46,151.22,471z M151.15,494.99c-0.42-0.42-1.11-0.42-1.53,0c-0.42,0.42-0.42,1.11,0,1.53
	c0.42,0.42,1.11,0.42,1.53,0C151.57,496.1,151.57,495.42,151.15,494.99z M165.86,169.72c-1.63-1.63-4.29-1.63-5.92,0
	c-1.63,1.63-1.63,4.27,0,5.91c1.64,1.63,4.29,1.63,5.92,0C167.5,174,167.5,171.35,165.86,169.72z M165.63,193.89
	c-1.5-1.5-3.95-1.5-5.46,0c-1.51,1.5-1.51,3.94,0,5.44c1.51,1.5,3.95,1.5,5.46,0C167.14,197.82,167.14,195.39,165.63,193.89z
	 M166.23,121.49c-1.84-1.83-4.82-1.83-6.65,0c-1.84,1.83-1.84,4.8,0,6.64c1.84,1.83,4.81,1.83,6.65,0
	C168.06,126.29,168.06,123.32,166.23,121.49z M166.03,145.63c-1.73-1.73-4.53-1.73-6.25,0c-1.73,1.72-1.73,4.51,0,6.24
	c1.73,1.72,4.53,1.72,6.25,0C167.76,150.14,167.76,147.35,166.03,145.63z M152.42,230.48c-1.12-1.12-2.94-1.12-4.06,0
	c-1.12,1.12-1.12,2.93,0,4.05c1.12,1.12,2.94,1.12,4.06,0C153.54,233.41,153.54,231.6,152.42,230.48z M152.18,278.58
	c-0.99-0.99-2.6-0.99-3.59,0c-0.99,0.99-0.99,2.59,0,3.59c0.99,0.99,2.6,0.99,3.59,0C153.18,281.17,153.18,279.57,152.18,278.58z
	 M151.98,302.71c-0.88-0.88-2.31-0.88-3.19,0c-0.88,0.88-0.88,2.31,0,3.18c0.88,0.88,2.31,0.88,3.19,0
	C152.86,305.02,152.86,303.59,151.98,302.71z M151.25,447.03c-0.48-0.48-1.25-0.48-1.73,0c-0.48,0.48-0.48,1.25,0,1.73
	c0.48,0.48,1.25,0.48,1.73,0C151.73,448.28,151.73,447.51,151.25,447.03z M152.22,254.61c-1.01-1.01-2.65-1.01-3.66,0
	c-1.01,1.01-1.01,2.64,0,3.65c1.01,1.01,2.65,1.01,3.66,0C153.23,257.25,153.23,255.62,152.22,254.61z M151.88,326.74
	c-0.83-0.82-2.17-0.82-2.99,0c-0.83,0.82-0.83,2.16,0,2.99c0.83,0.83,2.17,0.83,2.99,0C152.71,328.9,152.71,327.56,151.88,326.74z
	 M152.55,206.42c-1.2-1.19-3.13-1.19-4.33,0c-1.19,1.19-1.19,3.12,0,4.31c1.2,1.19,3.13,1.19,4.33,0
	C153.74,209.54,153.74,207.61,152.55,206.42z M151.45,398.97c-0.59-0.58-1.54-0.58-2.13,0c-0.59,0.59-0.59,1.54,0,2.13
	c0.59,0.59,1.54,0.59,2.13,0C152.04,400.51,152.04,399.56,151.45,398.97z M151.39,422.97c-0.55-0.55-1.44-0.55-1.99,0
	c-0.55,0.55-0.55,1.44,0,1.99c0.55,0.55,1.44,0.55,1.99,0C151.94,424.41,151.94,423.52,151.39,422.97z M151.59,374.9
	c-0.66-0.66-1.73-0.66-2.4,0c-0.66,0.66-0.66,1.73,0,2.39c0.66,0.66,1.73,0.66,2.4,0C152.25,376.63,152.25,375.56,151.59,374.9z
	 M151.72,350.84c-0.73-0.73-1.93-0.73-2.66,0c-0.73,0.74-0.73,1.93,0,2.66c0.73,0.74,1.93,0.74,2.66,0
	C152.45,352.76,152.45,351.57,151.72,350.84z M115.43,410.97c-0.57-0.57-1.49-0.57-2.06,0c-0.57,0.57-0.57,1.49,0,2.06
	c0.57,0.57,1.49,0.57,2.06,0C116,412.46,116,411.53,115.43,410.97z M165.39,218.05c-1.38-1.37-3.61-1.37-4.99,0
	c-1.38,1.38-1.38,3.6,0,4.98c1.38,1.37,3.61,1.37,4.99,0C166.77,221.65,166.77,219.42,165.39,218.05z M115.3,458.97
	c-0.5-0.5-1.3-0.5-1.8,0c-0.5,0.49-0.5,1.3,0,1.79c0.5,0.5,1.3,0.5,1.8,0C115.8,460.26,115.8,459.46,115.3,458.97z M115.77,338.84
	c-0.75-0.75-1.97-0.75-2.73,0c-0.75,0.75-0.75,1.97,0,2.72c0.75,0.75,1.97,0.75,2.73,0C116.52,340.81,116.52,339.59,115.77,338.84z
	 M115.57,386.9c-0.65-0.64-1.69-0.64-2.33,0c-0.64,0.64-0.64,1.68,0,2.32c0.65,0.64,1.69,0.64,2.33,0
	C116.21,388.58,116.21,387.54,115.57,386.9z M115.73,362.8c-0.73-0.74-1.92-0.74-2.66,0c-0.73,0.73-0.73,1.92,0,2.66
	c0.74,0.73,1.93,0.73,2.66,0C116.47,364.72,116.47,363.53,115.73,362.8z M115.4,434.93c-0.55-0.55-1.44-0.55-2,0
	c-0.55,0.55-0.55,1.44,0,1.99c0.55,0.55,1.44,0.55,2,0C115.95,436.38,115.95,435.48,115.4,434.93z M115.23,482.97
	c-0.46-0.46-1.2-0.46-1.66,0c-0.46,0.45-0.46,1.2,0,1.65c0.46,0.46,1.2,0.46,1.66,0C115.69,484.17,115.69,483.42,115.23,482.97z
	 M130.86,60.53c-2.46-2.45-6.45-2.45-8.92,0c-2.46,2.46-2.46,6.44,0,8.89c2.46,2.46,6.46,2.46,8.92,0
	C133.32,66.97,133.32,62.99,130.86,60.53z M130.35,84.96c-2.18-2.18-5.73-2.18-7.91,0c-2.19,2.18-2.19,5.72,0,7.9
	c2.19,2.18,5.73,2.18,7.91,0C132.54,90.68,132.54,87.15,130.35,84.96z M113.64,530.9c-0.42,0.42-0.42,1.1,0,1.53
	c0.42,0.42,1.11,0.42,1.53,0c0.42-0.42,0.42-1.11,0-1.53C114.75,530.47,114.06,530.47,113.64,530.9z M115.17,506.96
	c-0.42-0.42-1.11-0.42-1.53,0c-0.42,0.42-0.42,1.11,0,1.52c0.42,0.42,1.11,0.42,1.53,0C115.59,508.07,115.59,507.38,115.17,506.96z
	 M117.53,145.63c-1.73-1.73-4.53-1.73-6.25,0c-1.73,1.72-1.73,4.51,0,6.24c1.73,1.72,4.53,1.72,6.25,0
	C119.26,150.14,119.26,147.35,117.53,145.63z M116.87,194.15c-1.36-1.36-3.56-1.36-4.92,0c-1.36,1.36-1.36,3.56,0,4.91
	c1.36,1.36,3.56,1.36,4.92,0C118.23,197.71,118.23,195.51,116.87,194.15z M130.12,109.13c-2.06-2.05-5.39-2.05-7.45,0
	c-2.05,2.05-2.05,5.38,0,7.43c2.06,2.06,5.39,2.06,7.45,0C132.18,114.51,132.18,111.18,130.12,109.13z M117,170.09
	c-1.43-1.43-3.75-1.43-5.19,0c-1.43,1.43-1.43,3.75,0,5.18c1.43,1.43,3.76,1.43,5.19,0C118.43,173.83,118.43,171.51,117,170.09z
	 M117.86,121.36c-1.91-1.91-5.01-1.91-6.92,0c-1.91,1.91-1.91,4.99,0,6.9c1.91,1.9,5.01,1.9,6.92,0
	C119.77,126.35,119.77,123.26,117.86,121.36z M69.75,128.13c1.84-1.83,1.84-4.8,0-6.64c-1.84-1.83-4.82-1.83-6.65,0
	c-1.04,1.04-1.47,2.45-1.33,3.8c0.11,0.44,0.22,0.89,0.33,1.33c0.23,0.54,0.56,1.05,1,1.5C64.94,129.96,67.91,129.96,69.75,128.13z
	 M141.45,145.69c-1.69-1.69-4.43-1.69-6.12,0c-1.69,1.68-1.69,4.42,0,6.1s4.43,1.68,6.12,0
	C143.14,150.11,143.14,147.38,141.45,145.69z M116.37,218.58c-1.08-1.08-2.84-1.08-3.92,0c-1.08,1.08-1.08,2.84,0,3.92
	c1.08,1.08,2.84,1.08,3.92,0C117.45,221.42,117.45,219.66,116.37,218.58z M116.03,290.71c-0.9-0.9-2.36-0.9-3.26,0
	c-0.9,0.9-0.9,2.36,0,3.26c0.9,0.9,2.36,0.9,3.26,0C116.93,293.07,116.93,291.61,116.03,290.71z M116.2,266.61
	c-0.99-0.99-2.6-0.99-3.59,0c-0.99,0.99-0.99,2.6,0,3.59c0.99,0.99,2.6,0.99,3.59,0C117.19,269.21,117.19,267.6,116.2,266.61z
	 M116.26,242.61c-1.03-1.03-2.69-1.03-3.72,0c-1.03,1.03-1.03,2.69,0,3.72c1.03,1.03,2.7,1.03,3.72,0
	C117.29,245.3,117.29,243.64,116.26,242.61z M115.93,314.74c-0.85-0.84-2.21-0.84-3.06,0c-0.84,0.84-0.84,2.21,0,3.06
	c0.85,0.84,2.21,0.84,3.06,0C116.78,316.95,116.78,315.58,115.93,314.74z M127.2,494.96c-0.44-0.44-1.16-0.44-1.6,0
	c-0.44,0.44-0.44,1.16,0,1.6c0.44,0.44,1.16,0.44,1.6,0C127.64,496.12,127.64,495.4,127.2,494.96z M127.23,471
	c-0.46-0.46-1.2-0.46-1.66,0c-0.46,0.46-0.46,1.2,0,1.66c0.46,0.45,1.2,0.45,1.66,0C127.69,472.2,127.69,471.46,127.23,471z
	 M125.67,542.89c-0.4,0.4-0.4,1.06,0,1.46c0.4,0.4,1.06,0.4,1.46,0c0.4-0.41,0.4-1.06,0-1.46
	C126.73,542.49,126.07,542.49,125.67,542.89z M129.66,133.52c-1.8-1.8-4.72-1.8-6.52,0c-1.8,1.8-1.8,4.71,0,6.51
	c1.8,1.8,4.72,1.8,6.52,0C131.46,138.23,131.46,135.32,129.66,133.52z M127.4,422.97c-0.55-0.55-1.45-0.55-1.99,0
	c-0.55,0.55-0.55,1.44,0,1.99c0.55,0.55,1.44,0.55,1.99,0C127.95,424.41,127.95,423.52,127.4,422.97z M141.88,121.32
	c-1.93-1.93-5.05-1.93-6.98,0c-1.93,1.93-1.93,5.05,0,6.97c1.93,1.93,5.06,1.93,6.98,0C143.81,126.37,143.81,123.25,141.88,121.32z
	 M142.15,97.13c-2.08-2.07-5.44-2.07-7.52,0c-2.08,2.07-2.08,5.43,0,7.5c2.08,2.07,5.44,2.07,7.52,0
	C144.23,102.56,144.23,99.2,142.15,97.13z M127.53,398.9c-0.62-0.62-1.64-0.62-2.26,0c-0.63,0.62-0.63,1.63,0,2.26
	c0.62,0.63,1.64,0.63,2.26,0C128.15,400.53,128.15,399.52,127.53,398.9z M127.16,518.93c-0.42-0.42-1.11-0.42-1.53,0
	c-0.42,0.42-0.42,1.11,0,1.53c0.42,0.42,1.11,0.42,1.53,0C127.59,520.03,127.59,519.35,127.16,518.93z M142.62,72.73
	c-2.33-2.33-6.11-2.33-8.45,0c-2.33,2.33-2.33,6.1,0,8.43c2.33,2.33,6.11,2.33,8.45,0C144.95,78.83,144.95,75.06,142.62,72.73z
	 M127.33,446.97c-0.51-0.51-1.35-0.51-1.86,0c-0.51,0.51-0.51,1.34,0,1.86c0.52,0.51,1.35,0.51,1.86,0
	C127.84,448.31,127.84,447.48,127.33,446.97z M128.4,230.51c-1.11-1.1-2.89-1.1-3.99,0c-1.1,1.1-1.1,2.88,0,3.98
	c1.11,1.1,2.89,1.1,3.99,0C129.5,233.4,129.5,231.62,128.4,230.51z M128.46,206.51c-1.14-1.13-2.99-1.13-4.13,0
	c-1.14,1.14-1.14,2.98,0,4.12c1.14,1.14,2.99,1.14,4.13,0C129.6,209.49,129.6,207.65,128.46,206.51z M128.73,182.32
	c-1.28-1.28-3.37-1.28-4.66,0c-1.28,1.28-1.28,3.36,0,4.65c1.28,1.28,3.37,1.28,4.66,0C130.01,185.68,130.01,183.6,128.73,182.32z
	 M128.2,254.65c-0.99-1-2.6-1-3.59,0c-0.99,0.99-0.99,2.59,0,3.58c0.99,0.99,2.6,0.99,3.59,0
	C129.19,257.24,129.19,255.63,128.2,254.65z M129.22,157.89c-1.56-1.56-4.09-1.56-5.65,0c-1.56,1.56-1.56,4.09,0,5.64
	c1.56,1.56,4.09,1.56,5.65,0C130.79,161.97,130.79,159.45,129.22,157.89z M127.99,302.71c-0.88-0.88-2.31-0.88-3.19,0
	c-0.88,0.88-0.88,2.31,0,3.18c0.88,0.88,2.31,0.88,3.19,0C128.88,305.02,128.88,303.59,127.99,302.71z M127.83,326.81
	c-0.79-0.79-2.07-0.79-2.86,0c-0.79,0.79-0.79,2.07,0,2.85c0.79,0.79,2.07,0.79,2.86,0C128.62,328.87,128.62,327.59,127.83,326.81z
	 M127.76,350.8c-0.75-0.75-1.97-0.75-2.73,0c-0.75,0.75-0.75,1.97,0,2.72c0.75,0.75,1.97,0.75,2.73,0
	C128.52,352.78,128.52,351.56,127.76,350.8z M128.13,278.65c-0.95-0.95-2.5-0.95-3.46,0c-0.96,0.95-0.96,2.5,0,3.45
	c0.96,0.95,2.5,0.95,3.46,0C129.08,281.14,129.08,279.6,128.13,278.65z M127.66,374.84c-0.7-0.7-1.83-0.7-2.53,0
	c-0.7,0.7-0.7,1.83,0,2.53c0.7,0.69,1.83,0.69,2.53,0C128.36,376.66,128.36,375.53,127.66,374.84z M139.66,362.87
	c-0.7-0.69-1.83-0.69-2.53,0c-0.7,0.7-0.7,1.83,0,2.53c0.7,0.69,1.83,0.69,2.53,0C140.35,364.7,140.35,363.57,139.66,362.87z
	 M201.65,181.89c-1.53-1.52-3.99-1.52-5.52,0c-1.52,1.52-1.52,3.99,0,5.51c1.53,1.52,4,1.52,5.52,0
	C203.17,185.87,203.17,183.41,201.65,181.89z M201.91,157.69c-1.67-1.67-4.38-1.67-6.06,0c-1.67,1.67-1.67,4.37,0,6.04
	c1.67,1.67,4.39,1.67,6.06,0C203.58,162.06,203.58,159.36,201.91,157.69z M202.14,133.52c-1.8-1.8-4.72-1.8-6.52,0
	c-1.8,1.8-1.8,4.71,0,6.51c1.8,1.8,4.72,1.8,6.52,0C203.94,138.23,203.94,135.32,202.14,133.52z M202.38,109.36
	c-1.93-1.93-5.06-1.93-6.99,0c-1.93,1.92-1.93,5.04,0,6.97c1.93,1.93,5.06,1.93,6.99,0C204.31,114.4,204.31,111.28,202.38,109.36z
	 M202.54,85.26c-2.02-2.01-5.3-2.01-7.32,0c-2.02,2.02-2.02,5.29,0,7.3c2.02,2.01,5.3,2.01,7.32,0
	C204.56,90.55,204.56,87.28,202.54,85.26z M203.04,60.83c-2.3-2.29-6.02-2.29-8.32,0c-2.3,2.29-2.3,6.01,0,8.3
	c2.3,2.29,6.02,2.29,8.32,0C205.34,66.84,205.34,63.12,203.04,60.83z M200.48,302.71c-0.88-0.88-2.31-0.88-3.19,0
	c-0.88,0.88-0.88,2.31,0,3.18c0.88,0.88,2.31,0.88,3.19,0C201.36,305.02,201.36,303.59,200.48,302.71z M200.81,278.44
	c-1.06-1.06-2.79-1.06-3.86,0c-1.07,1.07-1.07,2.79,0,3.85c1.07,1.07,2.79,1.07,3.86,0C201.88,281.23,201.88,279.51,200.81,278.44z
	 M200.98,254.35c-1.15-1.15-3.03-1.15-4.19,0c-1.15,1.15-1.15,3.03,0,4.18c1.16,1.16,3.04,1.16,4.19,0
	C202.14,257.37,202.14,255.5,200.98,254.35z M201.18,230.22c-1.27-1.27-3.32-1.27-4.59,0c-1.27,1.27-1.27,3.31,0,4.58
	c1.27,1.27,3.32,1.27,4.59,0C202.45,233.53,202.45,231.48,201.18,230.22z M201.31,206.15c-1.34-1.34-3.52-1.34-4.85,0
	c-1.34,1.34-1.34,3.51,0,4.85c1.34,1.34,3.51,1.34,4.85,0C202.65,209.66,202.65,207.49,201.31,206.15z M188.12,386.84
	c-0.68-0.68-1.78-0.68-2.46,0c-0.68,0.68-0.68,1.78,0,2.46c0.68,0.68,1.78,0.68,2.46,0C188.8,388.62,188.8,387.52,188.12,386.84z
	 M187.95,434.87c-0.59-0.59-1.54-0.59-2.13,0c-0.59,0.58-0.59,1.54,0,2.12c0.59,0.59,1.54,0.59,2.13,0
	C188.54,436.4,188.54,435.45,187.95,434.87z M188.02,410.87c-0.63-0.62-1.64-0.62-2.26,0c-0.62,0.62-0.62,1.64,0,2.26
	c0.63,0.62,1.64,0.62,2.26,0C188.65,412.5,188.65,411.49,188.02,410.87z M200.38,326.74c-0.83-0.82-2.17-0.82-2.99,0
	c-0.83,0.82-0.83,2.16,0,2.99c0.83,0.83,2.17,0.83,2.99,0C201.21,328.9,201.21,327.56,200.38,326.74z M188.25,362.77
	c-0.75-0.75-1.98-0.75-2.73,0c-0.75,0.75-0.75,1.97,0,2.72c0.75,0.75,1.98,0.75,2.73,0C189.01,364.74,189.01,363.52,188.25,362.77z
	 M188.39,338.71c-0.83-0.82-2.17-0.82-2.99,0c-0.83,0.82-0.83,2.16,0,2.99c0.83,0.82,2.17,0.82,2.99,0
	C189.21,340.87,189.21,339.53,188.39,338.71z M187.82,482.86c-0.52-0.51-1.35-0.51-1.86,0c-0.51,0.51-0.51,1.35,0,1.86
	c0.52,0.52,1.35,0.52,1.86,0C188.34,484.21,188.34,483.38,187.82,482.86z M186.03,530.79c-0.48,0.48-0.48,1.25,0,1.73
	c0.48,0.48,1.25,0.48,1.73,0c0.48-0.48,0.48-1.25,0-1.73C187.28,530.32,186.5,530.32,186.03,530.79z M187.89,458.87
	c-0.55-0.55-1.44-0.55-1.99,0c-0.55,0.55-0.55,1.44,0,1.99c0.55,0.55,1.44,0.55,1.99,0C188.44,460.31,188.44,459.42,187.89,458.87z
	 M187.79,506.83c-0.5-0.5-1.3-0.5-1.8,0c-0.49,0.49-0.49,1.29,0,1.79c0.5,0.5,1.3,0.5,1.8,0
	C188.28,508.13,188.28,507.32,187.79,506.83z M205.11,40.69h-12.44c-0.1,1.71,0.49,3.46,1.8,4.77c2.44,2.44,6.4,2.44,8.85,0
	C204.62,44.15,205.2,42.41,205.11,40.69z M200.15,374.84c-0.7-0.7-1.83-0.7-2.53,0c-0.7,0.7-0.7,1.83,0,2.53
	c0.7,0.69,1.83,0.69,2.53,0C200.85,376.66,200.85,375.53,200.15,374.84z M213.64,193.85c-1.53-1.52-4-1.52-5.52,0
	c-1.52,1.52-1.52,3.99,0,5.51c1.53,1.52,3.99,1.52,5.52,0C215.17,197.84,215.17,195.37,213.64,193.85z M213.77,169.79
	c-1.6-1.6-4.19-1.6-5.79,0c-1.6,1.6-1.6,4.18,0,5.77c1.6,1.59,4.19,1.59,5.79,0C215.37,173.97,215.37,171.38,213.77,169.79z
	 M214.14,145.49c-1.8-1.8-4.72-1.8-6.52,0c-1.8,1.8-1.8,4.7,0,6.51c1.8,1.8,4.72,1.8,6.52,0
	C215.94,150.2,215.94,147.29,214.14,145.49z M213.18,218.25c-1.27-1.27-3.32-1.27-4.59,0c-1.27,1.26-1.27,3.31,0,4.58
	c1.27,1.27,3.32,1.27,4.59,0S214.44,219.51,213.18,218.25z M214.27,121.43c-1.87-1.87-4.91-1.87-6.78,0c-1.87,1.87-1.87,4.9,0,6.77
	c1.87,1.87,4.91,1.87,6.78,0C216.15,126.33,216.15,123.29,214.27,121.43z M212.48,314.67c-0.88-0.88-2.31-0.88-3.19,0
	c-0.88,0.88-0.88,2.3,0,3.19c0.88,0.88,2.31,0.88,3.19,0C213.36,316.98,213.36,315.56,212.48,314.67z M214.37,97.39
	c-1.93-1.93-5.06-1.93-6.99,0c-1.93,1.93-1.93,5.04,0,6.97c1.93,1.93,5.06,1.93,6.99,0C216.3,102.44,216.3,99.32,214.37,97.39z
	 M212.68,290.55c-0.99-0.99-2.6-0.99-3.59,0c-0.99,0.99-0.99,2.59,0,3.58c0.99,0.99,2.6,0.99,3.59,0
	C213.67,293.14,213.67,291.53,212.68,290.55z M212.98,266.31c-1.16-1.16-3.04-1.16-4.19,0c-1.16,1.15-1.16,3.03,0,4.18
	c1.15,1.16,3.03,1.16,4.19,0C214.13,269.34,214.13,267.47,212.98,266.31z M213.07,242.28c-1.21-1.21-3.18-1.21-4.39,0
	c-1.21,1.21-1.21,3.17,0,4.38c1.21,1.21,3.18,1.21,4.39,0C214.29,245.45,214.29,243.49,213.07,242.28z M199.88,446.9
	c-0.55-0.55-1.45-0.55-2,0c-0.55,0.55-0.55,1.44,0,1.99c0.55,0.55,1.44,0.55,2,0C200.43,448.34,200.43,447.45,199.88,446.9z
	 M200.28,350.77c-0.77-0.77-2.02-0.77-2.79,0c-0.77,0.77-0.77,2.02,0,2.79c0.77,0.77,2.02,0.77,2.79,0
	C201.06,352.79,201.06,351.54,200.28,350.77z M199.95,422.9c-0.59-0.59-1.54-0.59-2.13,0c-0.59,0.58-0.59,1.54,0,2.12
	c0.59,0.59,1.54,0.59,2.13,0C200.54,424.44,200.54,423.49,199.95,422.9z M199.82,470.9c-0.52-0.51-1.35-0.51-1.86,0
	c-0.52,0.52-0.52,1.35,0,1.86c0.51,0.51,1.35,0.51,1.86,0C200.33,472.24,200.33,471.41,199.82,470.9z M188.45,314.71
	c-0.86-0.86-2.26-0.86-3.12,0c-0.87,0.86-0.87,2.26,0,3.12c0.86,0.86,2.26,0.86,3.12,0C189.32,316.97,189.32,315.57,188.45,314.71z
	 M199.98,398.93c-0.61-0.61-1.59-0.61-2.2,0c-0.6,0.61-0.6,1.59,0,2.19c0.61,0.61,1.59,0.61,2.2,0
	C200.59,400.52,200.59,399.54,199.98,398.93z M199.78,518.8c-0.5-0.49-1.3-0.49-1.8,0c-0.5,0.49-0.5,1.3,0,1.79
	c0.5,0.49,1.3,0.49,1.8,0C200.28,520.09,200.28,519.29,199.78,518.8z M215.04,48.86c-2.3-2.29-6.02-2.29-8.32,0
	c-2.29,2.29-2.29,6,0,8.3c2.3,2.29,6.02,2.29,8.32,0C217.33,54.87,217.33,51.16,215.04,48.86z M214.7,73.13
	c-2.11-2.11-5.54-2.11-7.65,0c-2.11,2.11-2.11,5.52,0,7.63c2.11,2.11,5.53,2.11,7.65,0C216.82,78.65,216.82,75.24,214.7,73.13z
	 M198.09,542.83c-0.44,0.44-0.44,1.15,0,1.6c0.44,0.44,1.15,0.44,1.6,0c0.44-0.44,0.44-1.15,0-1.6
	C199.24,542.39,198.53,542.39,198.09,542.83z M199.78,496.66c0.5-0.49,0.5-1.3,0-1.79c-0.49-0.5-1.3-0.5-1.79,0
	c-0.5,0.49-0.5,1.3,0,1.79C198.48,497.15,199.29,497.15,199.78,496.66z M175.83,494.83c-0.51-0.51-1.35-0.51-1.86,0
	c-0.51,0.51-0.51,1.34,0,1.86c0.52,0.51,1.35,0.51,1.86,0C176.34,496.17,176.34,495.34,175.83,494.83z M178.39,109.36
	c-1.93-1.93-5.06-1.93-6.98,0c-1.93,1.92-1.93,5.04,0,6.97c1.93,1.92,5.06,1.92,6.98,0C180.32,114.4,180.32,111.28,178.39,109.36z
	 M212.28,338.8c-0.77-0.77-2.02-0.77-2.79,0c-0.78,0.77-0.78,2.02,0,2.79c0.77,0.77,2.02,0.77,2.79,0
	C213.05,340.82,213.05,339.58,212.28,338.8z M163.83,506.8c-0.51-0.51-1.35-0.51-1.86,0c-0.52,0.51-0.52,1.34,0,1.86
	c0.51,0.51,1.34,0.51,1.86,0C164.35,508.14,164.35,507.31,163.83,506.8z M178.02,133.66c-1.73-1.72-4.53-1.72-6.26,0
	c-1.72,1.72-1.72,4.51,0,6.24c1.73,1.72,4.53,1.72,6.26,0C179.75,138.17,179.75,135.38,178.02,133.66z M179.45,60.43
	c-2.52-2.51-6.6-2.51-9.12,0c-2.52,2.51-2.52,6.58,0,9.09c2.52,2.51,6.6,2.51,9.12,0C181.97,67.02,181.97,62.95,179.45,60.43z
	 M177.89,157.72c-1.65-1.65-4.33-1.65-5.99,0c-1.65,1.65-1.65,4.32,0,5.97c1.65,1.65,4.33,1.65,5.99,0
	C179.54,162.04,179.54,159.37,177.89,157.72z M177.39,230.02c-1.38-1.37-3.61-1.37-4.99,0c-1.38,1.38-1.38,3.6,0,4.98
	c1.38,1.37,3.61,1.37,4.99,0C178.77,233.62,178.77,231.39,177.39,230.02z M176.99,254.35c-1.16-1.15-3.04-1.15-4.19,0
	c-1.16,1.15-1.16,3.03,0,4.18c1.16,1.16,3.03,1.16,4.19,0C178.15,257.37,178.15,255.5,176.99,254.35z M162.04,530.79
	c-0.48,0.48-0.48,1.25,0,1.73c0.48,0.48,1.25,0.48,1.73,0c0.48-0.48,0.48-1.25,0-1.73C163.29,530.32,162.51,530.32,162.04,530.79z
	 M177.49,205.99c-1.43-1.43-3.75-1.43-5.19,0s-1.43,3.74,0,5.18s3.76,1.43,5.19,0C178.92,209.73,178.92,207.42,177.49,205.99z
	 M177.62,181.92c-1.5-1.5-3.95-1.5-5.45,0c-1.51,1.5-1.51,3.94,0,5.44c1.51,1.5,3.95,1.5,5.45,0
	C179.13,185.86,179.13,183.42,177.62,181.92z M164.4,338.71c-0.83-0.82-2.17-0.82-3,0c-0.82,0.82-0.82,2.16,0,2.99
	c0.83,0.82,2.17,0.82,3,0C165.22,340.87,165.22,339.53,164.4,338.71z M164.6,314.57c-0.93-0.93-2.46-0.93-3.39,0
	c-0.94,0.93-0.94,2.45,0,3.39c0.93,0.93,2.46,0.93,3.39,0C165.53,317.03,165.53,315.51,164.6,314.57z M164.33,362.7
	c-0.79-0.79-2.07-0.79-2.86,0c-0.79,0.79-0.79,2.07,0,2.85c0.79,0.79,2.07,0.79,2.86,0C165.12,364.77,165.12,363.49,164.33,362.7z
	 M176.92,278.35c-1.12-1.12-2.94-1.12-4.06,0c-1.12,1.12-1.12,2.93,0,4.05c1.12,1.12,2.94,1.12,4.06,0
	C178.04,281.28,178.04,279.46,176.92,278.35z M163.87,482.83c-0.53-0.53-1.4-0.53-1.93,0c-0.53,0.53-0.53,1.39,0,1.93
	c0.54,0.53,1.4,0.53,1.93,0C164.4,484.22,164.4,483.36,163.87,482.83z M165,266.31c-1.16-1.16-3.03-1.16-4.19,0
	c-1.16,1.15-1.16,3.03,0,4.18c1.16,1.16,3.03,1.16,4.19,0C166.15,269.34,166.15,267.47,165,266.31z M164.76,290.48
	c-1.03-1.03-2.7-1.03-3.72,0c-1.03,1.02-1.03,2.69,0,3.72c1.03,1.03,2.69,1.03,3.72,0C165.79,293.17,165.79,291.5,164.76,290.48z
	 M164.03,434.8c-0.62-0.62-1.64-0.62-2.26,0c-0.63,0.63-0.63,1.63,0,2.26c0.62,0.62,1.64,0.62,2.26,0
	C164.65,436.43,164.65,435.43,164.03,434.8z M163.9,458.87c-0.55-0.55-1.44-0.55-2,0c-0.55,0.55-0.55,1.44,0,1.99
	c0.55,0.55,1.45,0.55,2,0C164.45,460.31,164.45,459.42,163.9,458.87z M164.13,410.77c-0.68-0.68-1.78-0.68-2.46,0
	c-0.68,0.68-0.68,1.78,0,2.46c0.68,0.68,1.78,0.68,2.46,0C164.81,412.55,164.81,411.45,164.13,410.77z M164.16,386.8
	c-0.7-0.69-1.83-0.69-2.53,0c-0.7,0.7-0.7,1.83,0,2.52c0.7,0.7,1.83,0.7,2.53,0C164.86,388.63,164.86,387.5,164.16,386.8z
	 M191.11,48.8c-2.33-2.33-6.11-2.33-8.45,0c-2.33,2.33-2.33,6.1,0,8.43c2.33,2.33,6.12,2.33,8.45,0
	C193.45,54.9,193.45,51.12,191.11,48.8z M190.21,121.49c-1.83-1.83-4.81-1.83-6.65,0c-1.84,1.83-1.84,4.8,0,6.64
	c1.84,1.83,4.82,1.83,6.65,0C192.05,126.29,192.05,123.32,190.21,121.49z M189.75,169.82c-1.58-1.57-4.14-1.57-5.72,0
	c-1.58,1.57-1.58,4.13,0,5.71c1.58,1.58,4.14,1.58,5.72,0C191.33,173.95,191.33,171.39,189.75,169.82z M190.08,145.56
	c-1.76-1.76-4.62-1.76-6.39,0c-1.76,1.76-1.76,4.61,0,6.37c1.76,1.76,4.62,1.76,6.39,0C191.85,150.17,191.85,147.31,190.08,145.56z
	 M190.32,97.46c-1.89-1.89-4.96-1.89-6.85,0c-1.89,1.89-1.89,4.95,0,6.84c1.89,1.89,4.96,1.89,6.85,0
	C192.21,102.41,192.21,99.35,190.32,97.46z M176.59,302.61c-0.94-0.94-2.46-0.94-3.39,0c-0.94,0.94-0.94,2.45,0,3.38
	c0.94,0.94,2.46,0.94,3.39,0C177.53,305.06,177.53,303.55,176.59,302.61z M188.99,266.31c-1.16-1.16-3.03-1.16-4.19,0
	c-1.15,1.15-1.15,3.03,0,4.18c1.16,1.16,3.04,1.16,4.19,0C190.14,269.34,190.14,267.47,188.99,266.31z M188.72,290.51
	c-1.01-1.01-2.65-1.01-3.66,0c-1.01,1.01-1.01,2.64,0,3.65c1.01,1.01,2.65,1.01,3.66,0C189.73,293.15,189.73,291.52,188.72,290.51z
	 M189.65,193.85c-1.52-1.52-3.99-1.52-5.52,0c-1.52,1.52-1.52,3.99,0,5.51c1.53,1.52,4,1.52,5.52,0
	C191.17,197.84,191.17,195.37,189.65,193.85z M189.12,242.25c-1.23-1.23-3.23-1.23-4.46,0c-1.23,1.23-1.23,3.22,0,4.45
	c1.23,1.23,3.23,1.23,4.46,0C190.35,245.47,190.35,243.48,189.12,242.25z M189.22,218.22c-1.29-1.28-3.37-1.28-4.66,0
	c-1.28,1.28-1.28,3.36,0,4.65c1.29,1.28,3.37,1.28,4.66,0C190.5,221.58,190.5,219.5,189.22,218.22z M190.75,73.1
	c-2.13-2.13-5.59-2.13-7.72,0c-2.13,2.13-2.13,5.57,0,7.7c2.13,2.12,5.59,2.12,7.72,0C192.88,78.67,192.88,75.22,190.75,73.1z
	 M176.19,374.8c-0.72-0.72-1.88-0.72-2.59,0c-0.72,0.71-0.72,1.87,0,2.59c0.72,0.71,1.88,0.71,2.59,0
	C176.91,376.68,176.91,375.52,176.19,374.8z M176.16,398.77c-0.7-0.69-1.83-0.69-2.53,0c-0.7,0.7-0.7,1.82,0,2.52
	c0.7,0.69,1.83,0.69,2.53,0C176.86,400.59,176.86,399.47,176.16,398.77z M175.83,518.76c-0.51-0.51-1.35-0.51-1.86,0
	c-0.51,0.51-0.51,1.35,0,1.86c0.52,0.51,1.35,0.51,1.86,0C176.34,520.11,176.34,519.27,175.83,518.76z M176.49,326.64
	c-0.88-0.88-2.31-0.88-3.19,0c-0.88,0.88-0.88,2.3,0,3.19c0.88,0.88,2.31,0.88,3.19,0C177.37,328.95,177.37,327.52,176.49,326.64z
	 M176.03,422.83c-0.63-0.62-1.64-0.62-2.26,0c-0.63,0.62-0.63,1.63,0,2.26c0.63,0.62,1.64,0.62,2.26,0
	C176.65,424.47,176.65,423.46,176.03,422.83z M176.39,350.67c-0.82-0.83-2.17-0.83-2.99,0c-0.83,0.82-0.83,2.16,0,2.99
	c0.83,0.82,2.17,0.82,2.99,0C177.22,352.83,177.22,351.5,176.39,350.67z M175.96,446.83c-0.59-0.58-1.54-0.58-2.13,0
	c-0.59,0.59-0.59,1.54,0,2.13c0.59,0.59,1.54,0.59,2.13,0C176.55,448.37,176.55,447.42,175.96,446.83z M174.03,542.76
	c-0.48,0.48-0.48,1.25,0,1.73c0.48,0.48,1.25,0.48,1.73,0s0.48-1.25,0-1.73C175.29,542.28,174.51,542.28,174.03,542.76z
	 M165.29,242.08c-1.32-1.32-3.46-1.32-4.79,0c-1.32,1.32-1.32,3.46,0,4.78c1.33,1.32,3.47,1.32,4.79,0
	C166.62,245.54,166.62,243.4,165.29,242.08z M175.86,470.86c-0.53-0.53-1.4-0.53-1.93,0c-0.53,0.53-0.53,1.4,0,1.93
	c0.53,0.53,1.4,0.53,1.93,0C176.39,472.26,176.39,471.4,175.86,470.86z M178.59,85.23c-2.04-2.03-5.35-2.03-7.38,0
	c-2.04,2.04-2.04,5.33,0,7.37c2.04,2.03,5.34,2.03,7.38,0C180.63,90.56,180.63,87.26,178.59,85.23z M435.74,109.29
	c-1.97,1.96-1.97,5.14,0,7.11c1.44,1.44,3.55,1.81,5.34,1.13c0.67-2.9,1.29-5.63,1.84-8.16c-0.02-0.03-0.04-0.06-0.07-0.08
	C440.89,107.33,437.7,107.33,435.74,109.29z M382.88,58.37c-3.04-0.98-6.22-1.97-9.54-2.96c0.31,0.78,0.79,1.52,1.42,2.15
	C376.97,59.76,380.38,60.03,382.88,58.37z M93.24,169.85c-1.56-1.56-4.09-1.56-5.65,0c-1.56,1.56-1.56,4.08,0,5.64
	c1.56,1.56,4.09,1.56,5.65,0C94.8,173.94,94.8,171.41,93.24,169.85z M169.97,45.96c2.72,2.71,7.13,2.71,9.84,0
	c1.45-1.45,2.1-3.37,2.01-5.27h-13.86C167.87,42.59,168.52,44.51,169.97,45.96z M134.07,57.33c2.39,2.38,6.26,2.38,8.65,0
	c1.77-1.77,2.22-4.35,1.37-6.53c-4.08,1.08-7.98,2.16-11.71,3.23C132.58,55.23,133.14,56.39,134.07,57.33z M406.74,97.46
	c-1.89-1.89-4.96-1.89-6.85,0c-1.89,1.89-1.89,4.95,0,6.84c1.89,1.89,4.96,1.89,6.85,0C408.63,102.41,408.63,99.35,406.74,97.46z
	 M98.09,69.29c2.39,2.38,6.26,2.38,8.65,0c2.01-2.01,2.3-5.05,0.93-7.38c-4.04,1.43-7.78,2.84-11.26,4.22
	C96.63,67.29,97.19,68.4,98.09,69.29z M407.17,73.1c-2.13-2.13-5.59-2.13-7.72,0c-2.13,2.13-2.13,5.57,0,7.7
	c2.13,2.12,5.59,2.12,7.72,0C409.3,78.67,409.3,75.22,407.17,73.1z M400.98,218.22c-1.28,1.28-1.28,3.36,0,4.65
	c1.29,1.28,3.37,1.28,4.66,0c1.28-1.28,1.28-3.36,0-4.65C404.35,216.93,402.27,216.93,400.98,218.22z M406.64,121.49
	c-1.83-1.83-4.81-1.83-6.65,0c-1.84,1.83-1.84,4.8,0,6.64c1.84,1.83,4.82,1.83,6.65,0C408.47,126.29,408.47,123.32,406.64,121.49z
	 M406.07,193.85c-1.52-1.52-4-1.52-5.52,0c-1.52,1.52-1.52,3.99,0,5.51c1.53,1.52,4,1.52,5.52,0
	C407.6,197.84,407.6,195.37,406.07,193.85z M406.17,169.82c-1.58-1.57-4.14-1.57-5.72,0c-1.58,1.57-1.58,4.13,0,5.71
	c1.58,1.58,4.14,1.58,5.72,0C407.75,173.95,407.75,171.39,406.17,169.82z M406.51,145.56c-1.76-1.76-4.62-1.76-6.39,0
	c-1.76,1.76-1.76,4.61,0,6.37c1.76,1.76,4.62,1.76,6.39,0C408.27,150.17,408.27,147.31,406.51,145.56z M87.92,194.12
	c-1.38,1.37-1.38,3.6,0,4.97c1.38,1.37,3.61,1.37,4.99,0c1.38-1.37,1.38-3.6,0-4.97C91.53,192.74,89.3,192.74,87.92,194.12z
	 M401.09,242.25c-1.23,1.23-1.23,3.22,0,4.45c0.51,0.51,1.14,0.79,1.8,0.88c0.3-2.2,0.58-4.26,0.86-6.21
	C402.8,241.24,401.81,241.53,401.09,242.25z M94.57,81.09c2.3-2.29,2.3-6.01,0-8.3c-2.29-2.29-6.02-2.29-8.31,0
	c-2.3,2.29-2.3,6.01,0,8.3C88.55,83.38,92.28,83.38,94.57,81.09z M54.18,90.13c0,0,0.26,1.47,0.77,4.13c1.2-0.12,2.38-0.61,3.3-1.53
	c1.87-1.87,2.08-4.76,0.63-6.86C55.43,88.56,54.18,90.13,54.18,90.13z M64.15,82.14c2.08,0.91,4.59,0.52,6.3-1.18
	c0.99-0.99,1.52-2.26,1.62-3.56C68.96,79.11,66.34,80.7,64.15,82.14z M70.15,104.59c2.06-2.05,2.06-5.38,0-7.43
	c-2.06-2.05-5.39-2.05-7.45,0c-2.06,2.05-2.06,5.38,0,7.43C64.76,106.65,68.09,106.65,70.15,104.59z M82.31,85.03
	c-2.15-2.14-5.63-2.14-7.78,0c-2.15,2.14-2.15,5.62,0,7.76c2.15,2.15,5.64,2.15,7.78,0C84.46,90.65,84.46,87.17,82.31,85.03z
	 M75.39,157.69c-1.67,1.67-1.67,4.37,0,6.04c1.67,1.67,4.38,1.67,6.06,0c1.67-1.67,1.67-4.37,0-6.04
	C79.77,156.02,77.07,156.02,75.39,157.69z M81.54,133.66c-1.72-1.72-4.53-1.72-6.25,0c-1.73,1.72-1.73,4.51,0,6.24
	c1.72,1.72,4.53,1.72,6.25,0C83.27,138.17,83.27,135.38,81.54,133.66z M82.15,109.13c-2.06-2.05-5.39-2.05-7.45,0
	c-2.06,2.05-2.06,5.38,0,7.43c2.06,2.06,5.39,2.06,7.45,0C84.2,114.51,84.2,111.18,82.15,109.13z M94.07,104.53
	c2.02-2.02,2.02-5.28,0-7.3c-2.02-2.01-5.3-2.01-7.32,0c-2.02,2.02-2.02,5.28,0,7.3C88.78,106.54,92.05,106.54,94.07,104.53z
	 M430.8,97.39c-1.93-1.93-5.06-1.93-6.99,0c-1.93,1.93-1.93,5.04,0,6.97c1.93,1.93,5.06,1.93,6.99,0
	C432.72,102.44,432.72,99.32,430.8,97.39z M412.55,181.89c-1.52,1.52-1.52,3.99,0,5.51c1.53,1.52,4,1.52,5.52,0
	c1.52-1.52,1.52-3.99,0-5.51C416.54,180.37,414.07,180.37,412.55,181.89z M418.34,157.69c-1.67-1.67-4.38-1.67-6.06,0
	c-1.67,1.67-1.67,4.37,0,6.04c1.67,1.67,4.39,1.67,6.06,0C420.01,162.06,420.01,159.36,418.34,157.69z M418.57,133.52
	c-1.8-1.8-4.72-1.8-6.52,0c-1.8,1.8-1.8,4.71,0,6.51c1.8,1.8,4.72,1.8,6.52,0C420.37,138.23,420.37,135.32,418.57,133.52z
	 M418.8,109.36c-1.93-1.93-5.06-1.93-6.99,0c-1.93,1.92-1.93,5.04,0,6.97c1.93,1.93,5.06,1.93,6.99,0
	C420.73,114.4,420.73,111.28,418.8,109.36z M423.48,80.76c2.11,2.11,5.53,2.11,7.65,0c0.45-0.45,0.79-0.97,1.05-1.52
	c-2.69-1.58-5.83-3.29-9.48-5.1C421.42,76.22,421.68,78.96,423.48,80.76z M424.04,145.49c-1.8,1.8-1.8,4.7,0,6.51
	c1.8,1.8,4.72,1.8,6.52,0c1.8-1.8,1.8-4.71,0-6.51C428.76,143.69,425.84,143.69,424.04,145.49z M430.69,121.43
	c-1.87-1.87-4.91-1.87-6.78,0c-1.87,1.87-1.87,4.9,0,6.77c1.87,1.87,4.91,1.87,6.78,0C432.57,126.33,432.57,123.29,430.69,121.43z
	 M418.97,85.26c-2.02-2.01-5.3-2.01-7.32,0c-2.02,2.02-2.02,5.29,0,7.3c2.02,2.01,5.3,2.01,7.32,0
	C420.99,90.55,420.99,87.28,418.97,85.26z M391.97,377.8c0.04-1.12,0.08-2.23,0.12-3.34c-0.68-0.32-1.51-0.22-2.08,0.34
	c-0.72,0.71-0.72,1.87,0,2.59C390.55,377.92,391.32,378.05,391.97,377.8z M394.81,116.33c1.93-1.93,1.93-5.05,0-6.97
	c-1.93-1.93-5.05-1.93-6.98,0c-1.93,1.92-1.93,5.04,0,6.97C389.76,118.25,392.88,118.25,394.81,116.33z M393.91,211.16
	c1.43-1.43,1.43-3.74,0-5.18c-1.43-1.43-3.75-1.43-5.19,0s-1.43,3.74,0,5.18S392.48,212.59,393.91,211.16z M395.01,92.59
	c2.04-2.04,2.04-5.33,0-7.37c-2.04-2.03-5.34-2.03-7.38,0c-2.04,2.04-2.04,5.33,0,7.37C389.66,94.63,392.97,94.63,395.01,92.59z
	 M394.31,163.69c1.65-1.65,1.65-4.32,0-5.97c-1.65-1.65-4.33-1.65-5.99,0c-1.65,1.65-1.65,4.32,0,5.97
	C389.98,165.34,392.66,165.34,394.31,163.69z M394.04,187.36c1.51-1.5,1.51-3.94,0-5.44c-1.5-1.5-3.95-1.5-5.45,0
	c-1.51,1.5-1.51,3.94,0,5.44C390.1,188.86,392.54,188.86,394.04,187.36z M394.45,139.89c1.73-1.73,1.73-4.52,0-6.24
	c-1.73-1.72-4.53-1.72-6.26,0c-1.72,1.72-1.72,4.51,0,6.24C389.92,141.62,392.72,141.62,394.45,139.89z M395.88,69.52
	c1.66-1.65,2.2-3.97,1.67-6.09c-3.17-1.17-6.54-2.36-10.11-3.56c-0.23,0.18-0.47,0.34-0.68,0.55c-2.52,2.51-2.52,6.58,0,9.09
	C389.28,72.04,393.36,72.04,395.88,69.52z M350.23,49.02c-2.1,2.4-2.02,6.02,0.27,8.3c2.38,2.38,6.26,2.38,8.65,0
	c1.49-1.49,2.05-3.56,1.68-5.49c-2.18-0.59-4.42-1.19-6.71-1.78C354.11,50.06,352.53,49.73,350.23,49.02z M167.46,57.56
	c2.52-2.51,2.52-6.58,0-9.09c-2.52-2.51-6.6-2.51-9.11,0c-2.52,2.51-2.52,6.58,0,9.09C160.86,60.07,164.94,60.07,167.46,57.56z
	 M393.35,282.4c1.12-1.12,1.12-2.93,0-4.05c-1.12-1.12-2.94-1.12-4.06,0c-1.12,1.12-1.12,2.93,0,4.05
	C390.41,283.51,392.23,283.51,393.35,282.4z M424.41,175.56c0.12,0.12,0.25,0.21,0.38,0.31c0.81-2.43,1.61-4.85,2.37-7.27
	c-1,0.03-1.99,0.42-2.75,1.18C422.81,171.38,422.81,173.97,424.41,175.56z M391.33,401.81c0.02-1.19,0.04-2.37,0.07-3.55
	c-0.48-0.02-0.97,0.14-1.34,0.51c-0.7,0.7-0.7,1.82,0,2.52C390.41,401.64,390.87,401.81,391.33,401.81z M391.37,449.39
	c-0.02-1-0.04-2-0.05-2.99c-0.39,0-0.77,0.15-1.06,0.44c-0.59,0.59-0.59,1.54,0,2.13C390.56,449.26,390.97,449.4,391.37,449.39z
	 M391.13,425.52c0-1.04,0-2.08,0-3.12c-0.34,0.04-0.68,0.17-0.94,0.43c-0.63,0.62-0.63,1.63,0,2.26
	C390.45,425.35,390.79,425.48,391.13,425.52z M392.81,353.66c0.12-0.12,0.18-0.26,0.26-0.39c0.04-0.68,0.08-1.36,0.11-2.04
	c-0.1-0.2-0.21-0.39-0.37-0.56c-0.82-0.83-2.17-0.83-2.99,0c-0.83,0.82-0.83,2.16,0,2.99C390.65,354.48,391.99,354.48,392.81,353.66
	z M118.63,72.73c-2.33-2.33-6.11-2.33-8.45,0c-2.33,2.33-2.33,6.1,0,8.43c2.33,2.33,6.12,2.33,8.45,0
	C120.96,78.83,120.96,75.06,118.63,72.73z M393.81,235c1.38-1.38,1.38-3.6,0-4.98c-1.38-1.37-3.61-1.37-4.99,0
	c-1.38,1.38-1.38,3.6,0,4.98C390.2,236.37,392.43,236.37,393.81,235z M393.42,258.53c1.16-1.15,1.16-3.03,0-4.18
	c-1.16-1.15-3.04-1.15-4.19,0c-1.16,1.15-1.16,3.03,0,4.18C390.38,259.68,392.26,259.68,393.42,258.53z M93.81,128.2
	c1.88-1.87,1.88-4.9,0-6.77c-1.87-1.87-4.91-1.87-6.78,0c-1.87,1.87-1.87,4.9,0,6.77C88.89,130.06,91.93,130.06,93.81,128.2z
	 M393.01,305.99c0.94-0.93,0.94-2.45,0-3.38c-0.94-0.94-2.46-0.94-3.39,0c-0.94,0.94-0.94,2.45,0,3.38
	C390.56,306.93,392.08,306.93,393.01,305.99z M392.92,329.83c0.88-0.88,0.88-2.31,0-3.19c-0.88-0.88-2.31-0.88-3.19,0
	c-0.88,0.88-0.88,2.3,0,3.19C390.6,330.7,392.03,330.7,392.92,329.83z M105.54,133.66c-1.73-1.72-4.53-1.72-6.26,0
	c-1.73,1.72-1.73,4.51,0,6.24c1.73,1.72,4.53,1.72,6.26,0C107.26,138.17,107.26,135.38,105.54,133.66z M105.44,157.69
	c-1.67-1.67-4.38-1.67-6.05,0c-1.67,1.67-1.67,4.37,0,6.04c1.67,1.67,4.38,1.67,6.05,0C107.11,162.06,107.11,159.36,105.44,157.69z
	 M106.07,109.19c-2.02-2.02-5.3-2.02-7.32,0c-2.02,2.02-2.02,5.28,0,7.3c2.02,2.02,5.3,2.02,7.32,0
	C108.09,114.48,108.09,111.21,106.07,109.19z M104.11,282.06c0.94-0.94,0.94-2.45,0-3.38c-0.62-0.62-1.49-0.82-2.28-0.62
	c0.17,1.54,0.34,3.11,0.5,4.7C102.97,282.78,103.62,282.55,104.11,282.06z M104.34,303.38c0.04,0.48,0.09,0.96,0.13,1.44
	C104.59,304.34,104.56,303.84,104.34,303.38z M104.87,182.19c-1.36-1.36-3.56-1.36-4.92,0c-1.36,1.35-1.36,3.55,0,4.91
	c1.36,1.35,3.56,1.35,4.92,0C106.23,185.74,106.23,183.54,104.87,182.19z M104.37,230.55c-1.08-1.08-2.84-1.08-3.92,0
	c-1.08,1.08-1.08,2.83,0,3.92c1.08,1.08,2.84,1.08,3.92,0C105.46,233.38,105.46,231.63,104.37,230.55z M93.54,151.86
	c1.73-1.72,1.73-4.52,0-6.24c-1.73-1.73-4.53-1.73-6.25,0c-1.73,1.72-1.73,4.51,0,6.24C89.01,153.58,91.81,153.58,93.54,151.86z
	 M100.61,254.65c-0.99,0.99-0.99,2.59,0,3.58c0.99,0.99,2.6,0.99,3.59,0c0.99-0.99,0.99-2.59,0-3.58
	C103.21,253.65,101.61,253.65,100.61,254.65z M104.57,206.42c-1.2-1.19-3.13-1.19-4.33,0c-1.19,1.19-1.19,3.12,0,4.31
	c1.2,1.19,3.13,1.19,4.33,0C105.76,209.54,105.76,207.61,104.57,206.42z M58.09,109.19c-0.02-0.02-0.04-0.03-0.06-0.05
	c0.38,1.74,0.79,3.59,1.23,5.52C59.96,112.82,59.57,110.67,58.09,109.19z M118.06,97.23c-2.02-2.01-5.3-2.01-7.32,0
	c-2.02,2.02-2.02,5.28,0,7.3c2.02,2.02,5.3,2.02,7.32,0C120.08,102.51,120.08,99.24,118.06,97.23z M69.55,145.63
	c-0.8-0.8-1.82-1.21-2.86-1.27c0.72,2.62,1.46,5.3,2.24,8.01c0.22-0.15,0.43-0.31,0.62-0.5C71.28,150.14,71.28,147.35,69.55,145.63z
	 M81.08,181.99c-0.86-0.86-2.02-1.2-3.14-1.06c0.8,2.3,1.61,4.6,2.45,6.9c0.24-0.15,0.48-0.32,0.69-0.53
	C82.55,185.83,82.55,183.45,81.08,181.99z M335.15,57.33c2.39-2.39,2.39-6.25,0-8.63c-2.38-2.38-6.26-2.38-8.65,0
	c-2.39,2.38-2.39,6.24,0,8.63C328.89,59.71,332.76,59.71,335.15,57.33z M323.32,45.53c1.33-1.33,1.92-3.1,1.83-4.83h-12.63
	c-0.1,1.74,0.5,3.5,1.83,4.83C316.82,48,320.84,48,323.32,45.53z M98.58,85.1c-2.11,2.1-2.11,5.52,0,7.63
	c2.11,2.11,5.54,2.11,7.65,0c2.11-2.11,2.11-5.53,0-7.63C104.12,82.99,100.7,82.99,98.58,85.1z M344.8,47.04
	c-2.81-1.2-5.78-2.8-8.21-4.84c0.22,1.22,0.8,2.39,1.75,3.33C340.08,47.27,342.59,47.76,344.8,47.04z M411.15,69.13
	c1.24,1.24,2.9,1.78,4.52,1.68c-1.56-0.7-3.19-1.42-4.9-2.15C410.9,68.82,411.01,68.98,411.15,69.13z M343.75,446.97
	c-0.51-0.51-1.35-0.51-1.86,0c-0.51,0.51-0.51,1.34,0,1.86c0.52,0.51,1.35,0.51,1.86,0C344.27,448.31,344.27,447.48,343.75,446.97z
	 M343.82,422.97c-0.55-0.55-1.44-0.55-1.99,0c-0.55,0.55-0.55,1.44,0,1.99c0.55,0.55,1.44,0.55,1.99,0
	C344.37,424.41,344.37,423.52,343.82,422.97z M343.95,398.9c-0.62-0.62-1.64-0.62-2.26,0c-0.63,0.62-0.63,1.63,0,2.26
	c0.62,0.63,1.64,0.63,2.26,0C344.58,400.53,344.58,399.52,343.95,398.9z M369.57,157.95c-1.52-1.52-4-1.52-5.52,0
	c-1.53,1.52-1.53,3.99,0,5.51c1.52,1.52,3.99,1.52,5.52,0C371.1,161.94,371.1,159.48,369.57,157.95z M344.09,374.84
	c-0.7-0.7-1.83-0.7-2.53,0c-0.7,0.7-0.7,1.83,0,2.53c0.7,0.69,1.83,0.69,2.53,0C344.78,376.66,344.78,375.53,344.09,374.84z
	 M343.62,494.96c-0.44-0.44-1.16-0.44-1.6,0c-0.44,0.44-0.44,1.16,0,1.6c0.44,0.44,1.16,0.44,1.6,0
	C344.06,496.12,344.06,495.4,343.62,494.96z M344.18,350.8c-0.75-0.75-1.97-0.75-2.73,0c-0.75,0.75-0.75,1.97,0,2.72
	c0.75,0.75,1.97,0.75,2.73,0C344.94,352.78,344.94,351.56,344.18,350.8z M358.58,97.13c-2.08-2.07-5.44-2.07-7.52,0
	c-2.08,2.07-2.08,5.43,0,7.5c2.08,2.07,5.44,2.07,7.52,0C360.65,102.56,360.65,99.2,358.58,97.13z M359.04,72.73
	c-2.33-2.33-6.11-2.33-8.45,0c-2.33,2.33-2.33,6.1,0,8.43c2.33,2.33,6.11,2.33,8.45,0C361.37,78.83,361.37,75.06,359.04,72.73z
	 M342.09,542.89c-0.4,0.4-0.4,1.06,0,1.46c0.4,0.4,1.06,0.4,1.46,0c0.4-0.41,0.4-1.06,0-1.46
	C343.15,542.49,342.49,542.49,342.09,542.89z M343.59,518.93c-0.42-0.42-1.11-0.42-1.53,0c-0.42,0.42-0.42,1.11,0,1.53
	c0.42,0.42,1.11,0.42,1.53,0C344.01,520.03,344.01,519.35,343.59,518.93z M346.08,133.52c-1.8-1.8-4.72-1.8-6.52,0
	c-1.8,1.8-1.8,4.71,0,6.51c1.8,1.8,4.72,1.8,6.52,0C347.88,138.23,347.88,135.32,346.08,133.52z M345.15,182.32
	c-1.28-1.28-3.37-1.28-4.66,0c-1.28,1.28-1.28,3.36,0,4.65c1.28,1.28,3.37,1.28,4.66,0C346.43,185.68,346.43,183.6,345.15,182.32z
	 M344.25,326.81c-0.79-0.79-2.07-0.79-2.86,0c-0.79,0.79-0.79,2.07,0,2.85c0.79,0.79,2.07,0.79,2.86,0
	C345.04,328.87,345.04,327.59,344.25,326.81z M358.31,121.32c-1.93-1.93-5.05-1.93-6.98,0c-1.93,1.93-1.93,5.05,0,6.97
	c1.93,1.93,5.06,1.93,6.98,0S360.24,123.25,358.31,121.32z M346.55,109.13c-2.06-2.05-5.39-2.05-7.45,0c-2.05,2.05-2.05,5.38,0,7.43
	c2.06,2.06,5.39,2.06,7.45,0C348.6,114.51,348.6,111.18,346.55,109.13z M344.88,206.51c-1.14-1.13-2.99-1.13-4.13,0
	c-1.14,1.14-1.14,2.98,0,4.12c1.14,1.14,2.99,1.14,4.13,0C346.02,209.49,346.02,207.65,344.88,206.51z M345.65,157.89
	c-1.56-1.56-4.09-1.56-5.65,0c-1.56,1.56-1.56,4.09,0,5.64c1.56,1.56,4.09,1.56,5.65,0C347.21,161.97,347.21,159.45,345.65,157.89z
	 M344.55,278.65c-0.95-0.95-2.5-0.95-3.46,0c-0.96,0.95-0.96,2.5,0,3.45c0.96,0.95,2.5,0.95,3.46,0
	C345.51,281.14,345.51,279.6,344.55,278.65z M344.82,230.51c-1.11-1.1-2.89-1.1-4,0c-1.1,1.1-1.1,2.88,0,3.98c1.11,1.1,2.89,1.1,4,0
	C345.92,233.4,345.92,231.62,344.82,230.51z M344.42,302.71c-0.88-0.88-2.31-0.88-3.19,0c-0.88,0.88-0.88,2.31,0,3.18
	c0.88,0.88,2.31,0.88,3.19,0C345.3,305.02,345.3,303.59,344.42,302.71z M344.62,254.65c-0.99-1-2.6-1-3.59,0
	c-0.99,0.99-0.99,2.59,0,3.58c0.99,0.99,2.6,0.99,3.59,0C345.61,257.24,345.61,255.63,344.62,254.65z M346.78,84.96
	c-2.18-2.18-5.73-2.18-7.91,0c-2.19,2.18-2.19,5.72,0,7.9c2.19,2.18,5.73,2.18,7.91,0C348.97,90.68,348.97,87.15,346.78,84.96z
	 M355.58,506.96c-0.42-0.42-1.11-0.42-1.53,0c-0.42,0.42-0.42,1.11,0,1.52c0.42,0.42,1.11,0.42,1.53,0
	C356,508.07,356,507.38,355.58,506.96z M355.65,482.97c-0.46-0.46-1.2-0.46-1.66,0c-0.46,0.45-0.46,1.2,0,1.65
	c0.46,0.46,1.2,0.46,1.66,0C356.11,484.17,356.11,483.42,355.65,482.97z M354.12,530.96c-0.39,0.38-0.39,1.01,0,1.4
	c0.38,0.38,1.01,0.38,1.4,0c0.39-0.39,0.39-1.01,0-1.4C355.13,530.58,354.5,530.58,354.12,530.96z M355.68,459
	c-0.48-0.48-1.25-0.48-1.73,0c-0.48,0.48-0.48,1.25,0,1.72c0.48,0.48,1.25,0.48,1.73,0C356.16,460.25,356.16,459.47,355.68,459z
	 M355.81,434.93c-0.55-0.55-1.44-0.55-2,0c-0.55,0.55-0.55,1.44,0,1.99c0.55,0.55,1.45,0.55,2,0
	C356.37,436.38,356.37,435.48,355.81,434.93z M357.88,145.69c-1.69-1.69-4.43-1.69-6.12,0c-1.69,1.68-1.69,4.42,0,6.1
	c1.69,1.68,4.43,1.68,6.12,0C359.57,150.11,359.57,147.38,357.88,145.69z M371.2,60.6c-2.42-2.42-6.36-2.42-8.78,0
	c-2.42,2.42-2.42,6.34,0,8.76c2.43,2.42,6.36,2.42,8.78,0C373.62,66.94,373.62,63.02,371.2,60.6z M355.85,410.97
	c-0.57-0.57-1.49-0.57-2.06,0c-0.57,0.57-0.57,1.49,0,2.06c0.57,0.57,1.49,0.57,2.06,0C356.42,412.46,356.42,411.53,355.85,410.97z
	 M369.84,133.76c-1.67-1.67-4.38-1.67-6.05,0c-1.67,1.67-1.67,4.37,0,6.04c1.67,1.67,4.38,1.67,6.05,0
	C371.51,138.13,371.51,135.42,369.84,133.76z M370.87,84.86c-2.24-2.24-5.87-2.24-8.12,0c-2.24,2.24-2.24,5.86,0,8.1
	c2.24,2.24,5.88,2.24,8.12,0C373.11,90.73,373.11,87.1,370.87,84.86z M370.57,109.09c-2.08-2.07-5.44-2.07-7.52,0
	c-2.07,2.07-2.07,5.43,0,7.5c2.08,2.07,5.44,2.07,7.52,0C372.64,114.52,372.64,111.16,370.57,109.09z M356.74,242.55
	c-1.06-1.06-2.79-1.06-3.86,0c-1.07,1.07-1.07,2.79,0,3.85c1.07,1.06,2.79,1.06,3.86,0C357.81,245.33,357.81,243.61,356.74,242.55z
	 M355.91,386.97c-0.61-0.61-1.59-0.61-2.2,0c-0.61,0.6-0.61,1.58,0,2.19c0.6,0.6,1.59,0.6,2.2,0
	C356.52,388.55,356.52,387.57,355.91,386.97z M357.34,170.15c-1.4-1.39-3.66-1.39-5.06,0c-1.4,1.4-1.4,3.65,0,5.05
	c1.4,1.39,3.66,1.39,5.06,0C358.74,173.8,358.74,171.55,357.34,170.15z M357.08,194.35c-1.25-1.25-3.28-1.25-4.52,0
	c-1.25,1.24-1.25,3.27,0,4.51c1.25,1.25,3.27,1.25,4.52,0C358.33,197.62,358.33,195.59,357.08,194.35z M356.65,266.58
	c-1.01-1.01-2.65-1.01-3.66,0c-1.01,1.01-1.01,2.64,0,3.65c1.01,1.01,2.65,1.01,3.66,0C357.66,269.22,357.66,267.59,356.65,266.58z
	 M356.84,218.52c-1.12-1.12-2.94-1.12-4.06,0c-1.12,1.12-1.12,2.93,0,4.05c1.12,1.12,2.94,1.12,4.06,0
	C357.97,221.44,357.97,219.63,356.84,218.52z M356.08,362.87c-0.7-0.69-1.83-0.69-2.53,0c-0.7,0.7-0.7,1.83,0,2.53
	c0.7,0.69,1.83,0.69,2.53,0C356.78,364.7,356.78,363.57,356.08,362.87z M356.51,290.64c-0.94-0.93-2.46-0.93-3.39,0
	c-0.93,0.94-0.93,2.45,0,3.39c0.94,0.94,2.46,0.94,3.39,0C357.45,293.09,357.45,291.58,356.51,290.64z M356.21,338.8
	c-0.77-0.77-2.02-0.77-2.79,0c-0.77,0.77-0.77,2.02,0,2.79c0.77,0.77,2.02,0.77,2.79,0C356.98,340.82,356.98,339.58,356.21,338.8z
	 M356.38,314.71c-0.86-0.86-2.26-0.86-3.13,0c-0.86,0.86-0.86,2.26,0,3.12c0.86,0.86,2.26,0.86,3.13,0
	C357.24,316.97,357.24,315.57,356.38,314.71z M343.65,471c-0.46-0.46-1.2-0.46-1.66,0c-0.46,0.46-0.46,1.2,0,1.66
	c0.46,0.45,1.2,0.45,1.66,0C344.11,472.2,344.11,471.46,343.65,471z M318.1,542.89c-0.4,0.4-0.4,1.06,0,1.46
	c0.4,0.4,1.06,0.4,1.46,0c0.4-0.41,0.4-1.06,0-1.46C319.16,542.49,318.5,542.49,318.1,542.89z M320.1,374.84
	c-0.7-0.7-1.83-0.7-2.53,0c-0.7,0.7-0.7,1.83,0,2.53c0.7,0.69,1.83,0.69,2.53,0C320.79,376.66,320.79,375.53,320.1,374.84z
	 M320.36,302.78c-0.85-0.84-2.21-0.84-3.06,0c-0.85,0.84-0.85,2.21,0,3.05c0.85,0.84,2.21,0.84,3.06,0
	C321.21,304.98,321.21,303.62,320.36,302.78z M320,398.87c-0.64-0.64-1.69-0.64-2.33,0c-0.64,0.64-0.64,1.68,0,2.32
	c0.64,0.64,1.69,0.64,2.33,0C320.64,400.55,320.64,399.51,320,398.87z M320.36,326.71c-0.85-0.84-2.21-0.84-3.06,0
	c-0.85,0.84-0.85,2.21,0,3.05c0.85,0.84,2.21,0.84,3.06,0C321.21,328.92,321.21,327.55,320.36,326.71z M319.66,471
	c-0.46-0.46-1.2-0.46-1.66,0c-0.46,0.46-0.46,1.2,0,1.66c0.46,0.45,1.2,0.45,1.66,0C320.12,472.2,320.12,471.46,319.66,471z
	 M320.53,278.68c-0.94-0.94-2.46-0.94-3.39,0c-0.94,0.93-0.94,2.45,0,3.38c0.94,0.94,2.46,0.94,3.39,0
	C321.47,281.12,321.47,279.61,320.53,278.68z M319.63,494.96c-0.44-0.44-1.16-0.44-1.6,0c-0.44,0.44-0.44,1.16,0,1.6
	c0.44,0.44,1.15,0.44,1.6,0C320.07,496.12,320.07,495.4,319.63,494.96z M319.76,446.97c-0.52-0.51-1.35-0.51-1.86,0
	c-0.52,0.51-0.52,1.34,0,1.86c0.51,0.51,1.35,0.51,1.86,0C320.28,448.31,320.28,447.48,319.76,446.97z M319.83,422.97
	c-0.55-0.55-1.44-0.55-1.99,0c-0.55,0.55-0.55,1.44,0,1.99c0.55,0.55,1.44,0.55,1.99,0C320.38,424.41,320.38,423.52,319.83,422.97z
	 M320.2,350.8c-0.75-0.75-1.97-0.75-2.73,0c-0.75,0.75-0.75,1.97,0,2.72c0.75,0.75,1.98,0.75,2.73,0
	C320.95,352.78,320.95,351.56,320.2,350.8z M322.49,109.19c-2.02-2.02-5.3-2.02-7.32,0c-2.02,2.02-2.02,5.28,0,7.3
	c2.02,2.02,5.3,2.02,7.32,0C324.51,114.48,324.51,111.21,322.49,109.19z M322.66,85.1c-2.11-2.11-5.54-2.11-7.65,0
	c-2.11,2.1-2.11,5.52,0,7.63c2.11,2.11,5.54,2.11,7.65,0C324.77,90.62,324.77,87.2,322.66,85.1z M323.16,60.67
	c-2.39-2.38-6.26-2.38-8.65,0c-2.39,2.38-2.39,6.24,0,8.63c2.39,2.38,6.26,2.38,8.65,0C325.54,66.91,325.54,63.05,323.16,60.67z
	 M307.64,506.93c-0.44-0.44-1.16-0.44-1.6,0c-0.44,0.44-0.44,1.15,0,1.6c0.44,0.44,1.15,0.44,1.6,0
	C308.08,508.08,308.08,507.37,307.64,506.93z M212.21,362.8c-0.74-0.74-1.93-0.74-2.66,0c-0.73,0.74-0.73,1.92,0,2.66
	c0.73,0.73,1.92,0.73,2.66,0C212.95,364.72,212.95,363.54,212.21,362.8z M320.79,230.55c-1.08-1.08-2.84-1.08-3.92,0
	c-1.08,1.08-1.08,2.83,0,3.92c1.08,1.08,2.84,1.08,3.92,0C321.88,233.38,321.88,231.63,320.79,230.55z M347.28,60.53
	c-2.46-2.45-6.45-2.45-8.92,0c-2.46,2.46-2.46,6.44,0,8.89c2.46,2.46,6.46,2.46,8.92,0C349.74,66.97,349.74,62.99,347.28,60.53z
	 M320.63,254.65c-0.99-1-2.6-1-3.59,0c-0.99,0.99-0.99,2.59,0,3.58c0.99,0.99,2.6,0.99,3.59,0
	C321.62,257.24,321.62,255.63,320.63,254.65z M321.86,157.69c-1.67-1.67-4.38-1.67-6.05,0c-1.67,1.67-1.67,4.37,0,6.04
	c1.67,1.67,4.38,1.67,6.05,0C323.53,162.06,323.53,159.36,321.86,157.69z M321.29,182.19c-1.36-1.36-3.56-1.36-4.92,0
	c-1.36,1.35-1.36,3.55,0,4.91c1.36,1.35,3.56,1.35,4.92,0C322.65,185.74,322.65,183.54,321.29,182.19z M320.99,206.42
	c-1.2-1.19-3.13-1.19-4.33,0c-1.19,1.19-1.19,3.12,0,4.31c1.2,1.19,3.13,1.19,4.33,0C322.19,209.54,322.19,207.61,320.99,206.42z
	 M331.86,410.97c-0.57-0.57-1.49-0.57-2.06,0c-0.57,0.57-0.57,1.49,0,2.06c0.57,0.57,1.49,0.57,2.06,0
	C332.43,412.46,332.43,411.53,331.86,410.97z M331.99,386.9c-0.65-0.64-1.69-0.64-2.33,0c-0.64,0.64-0.64,1.68,0,2.32
	c0.65,0.64,1.69,0.64,2.33,0C332.63,388.58,332.63,387.54,331.99,386.9z M332.36,314.74c-0.85-0.84-2.21-0.84-3.06,0
	c-0.84,0.84-0.84,2.21,0,3.06c0.85,0.84,2.21,0.84,3.06,0C333.2,316.95,333.2,315.58,332.36,314.74z M331.83,434.93
	c-0.55-0.55-1.44-0.55-2,0c-0.55,0.55-0.55,1.44,0,1.99c0.55,0.55,1.44,0.55,2,0C332.38,436.38,332.38,435.48,331.83,434.93z
	 M332.19,338.84c-0.75-0.75-1.97-0.75-2.73,0c-0.75,0.75-0.75,1.97,0,2.72c0.75,0.75,1.97,0.75,2.73,0
	C332.94,340.81,332.94,339.59,332.19,338.84z M332.16,362.8c-0.73-0.74-1.92-0.74-2.66,0c-0.73,0.73-0.73,1.92,0,2.66
	c0.74,0.73,1.93,0.73,2.66,0C332.89,364.72,332.89,363.53,332.16,362.8z M331.73,458.97c-0.5-0.5-1.3-0.5-1.8,0
	c-0.5,0.49-0.5,1.3,0,1.79c0.5,0.5,1.3,0.5,1.8,0C332.22,460.26,332.22,459.46,331.73,458.97z M330.06,530.9
	c-0.42,0.42-0.42,1.1,0,1.53c0.42,0.42,1.11,0.42,1.53,0c0.42-0.42,0.42-1.11,0-1.53C331.17,530.47,330.48,530.47,330.06,530.9z
	 M331.59,506.96c-0.42-0.42-1.11-0.42-1.53,0c-0.42,0.42-0.42,1.11,0,1.52c0.42,0.42,1.11,0.42,1.53,0
	C332.02,508.07,332.02,507.38,331.59,506.96z M331.66,482.97c-0.46-0.46-1.2-0.46-1.66,0c-0.46,0.45-0.46,1.2,0,1.65
	c0.46,0.46,1.2,0.46,1.66,0C332.12,484.17,332.12,483.42,331.66,482.97z M334.29,121.36c-1.91-1.91-5.01-1.91-6.92,0
	c-1.91,1.91-1.91,4.99,0,6.9c1.91,1.9,5.01,1.9,6.92,0C336.2,126.35,336.2,123.26,334.29,121.36z M333.95,145.63
	c-1.73-1.73-4.53-1.73-6.25,0c-1.73,1.72-1.73,4.51,0,6.24c1.73,1.72,4.53,1.72,6.25,0C335.68,150.14,335.68,147.35,333.95,145.63z
	 M319.6,518.93c-0.42-0.42-1.11-0.42-1.53,0c-0.42,0.42-0.42,1.11,0,1.53c0.42,0.42,1.11,0.42,1.53,0
	C320.02,520.03,320.02,519.35,319.6,518.93z M334.49,97.23c-2.02-2.01-5.3-2.01-7.32,0c-2.02,2.02-2.02,5.28,0,7.3
	c2.02,2.02,5.3,2.02,7.32,0C336.51,102.51,336.51,99.24,334.49,97.23z M333.42,170.09c-1.43-1.43-3.75-1.43-5.19,0
	c-1.43,1.43-1.43,3.75,0,5.18c1.43,1.43,3.76,1.43,5.19,0C334.85,173.83,334.85,171.51,333.42,170.09z M332.46,290.71
	c-0.9-0.9-2.36-0.9-3.26,0c-0.9,0.9-0.9,2.36,0,3.26c0.9,0.9,2.36,0.9,3.26,0C333.36,293.07,333.36,291.61,332.46,290.71z
	 M335.05,72.73c-2.33-2.33-6.11-2.33-8.45,0c-2.33,2.33-2.33,6.1,0,8.43c2.33,2.33,6.12,2.33,8.45,0
	C337.38,78.83,337.38,75.06,335.05,72.73z M332.69,242.61c-1.03-1.03-2.69-1.03-3.72,0c-1.03,1.03-1.03,2.69,0,3.72
	c1.03,1.03,2.7,1.03,3.72,0C333.72,245.3,333.72,243.64,332.69,242.61z M333.29,194.15c-1.36-1.36-3.56-1.36-4.92,0
	c-1.36,1.36-1.36,3.56,0,4.91c1.36,1.36,3.56,1.36,4.92,0C334.65,197.71,334.65,195.51,333.29,194.15z M332.62,266.61
	c-0.99-0.99-2.6-0.99-3.59,0c-0.99,0.99-0.99,2.6,0,3.59c0.99,0.99,2.6,0.99,3.59,0C333.61,269.21,333.61,267.6,332.62,266.61z
	 M332.79,218.58c-1.08-1.08-2.84-1.08-3.92,0c-1.08,1.08-1.08,2.84,0,3.92c1.08,1.08,2.84,1.08,3.92,0
	C333.87,221.42,333.87,219.66,332.79,218.58z M368.41,302.71c-0.88-0.88-2.31-0.88-3.19,0c-0.88,0.88-0.88,2.31,0,3.18
	c0.88,0.88,2.31,0.88,3.19,0C369.29,305.02,369.29,303.59,368.41,302.71z M369.07,182.38c-1.25-1.24-3.27-1.24-4.52,0
	c-1.25,1.25-1.25,3.27,0,4.52c1.25,1.24,3.27,1.24,4.52,0C370.32,185.65,370.32,183.63,369.07,182.38z M382.05,193.89
	c-1.5-1.5-3.95-1.5-5.46,0c-1.51,1.5-1.51,3.94,0,5.44c1.51,1.5,3.95,1.5,5.46,0C383.56,197.82,383.56,195.39,382.05,193.89z
	 M383.52,72.76c-2.31-2.31-6.07-2.31-8.38,0c-2.31,2.31-2.31,6.05,0,8.36c2.31,2.31,6.07,2.31,8.38,0
	C385.83,78.82,385.83,75.08,383.52,72.76z M366.08,542.89c-0.4,0.4-0.4,1.06,0,1.46c0.41,0.4,1.06,0.4,1.46,0
	c0.4-0.41,0.4-1.06,0-1.46C367.14,542.49,366.49,542.49,366.08,542.89z M367.64,471c-0.46-0.46-1.2-0.46-1.66,0
	c-0.46,0.46-0.46,1.2,0,1.66c0.46,0.45,1.2,0.45,1.66,0C368.1,472.2,368.1,471.46,367.64,471z M367.57,494.99
	c-0.42-0.42-1.11-0.42-1.53,0c-0.42,0.42-0.42,1.11,0,1.53c0.42,0.42,1.11,0.42,1.53,0C368,496.1,368,495.42,367.57,494.99z
	 M382.82,97.39c-1.93-1.93-5.06-1.93-6.99,0c-1.93,1.93-1.93,5.04,0,6.97c1.93,1.93,5.06,1.93,6.99,0
	C384.75,102.44,384.75,99.32,382.82,97.39z M382.45,145.63c-1.73-1.73-4.53-1.73-6.25,0c-1.73,1.72-1.73,4.51,0,6.24
	c1.73,1.72,4.53,1.72,6.25,0C384.18,150.14,384.18,147.35,382.45,145.63z M382.28,169.72c-1.63-1.63-4.29-1.63-5.92,0
	c-1.63,1.63-1.63,4.27,0,5.91c1.64,1.63,4.29,1.63,5.92,0C383.92,174,383.92,171.35,382.28,169.72z M382.65,121.49
	c-1.84-1.83-4.82-1.83-6.65,0c-1.84,1.83-1.84,4.8,0,6.64c1.84,1.83,4.81,1.83,6.65,0C384.49,126.29,384.49,123.32,382.65,121.49z
	 M367.68,447.03c-0.48-0.48-1.25-0.48-1.73,0c-0.48,0.48-0.48,1.25,0,1.73c0.48,0.48,1.25,0.48,1.73,0
	C368.15,448.28,368.15,447.51,367.68,447.03z M367.54,518.96c-0.4-0.4-1.06-0.4-1.46,0c-0.4,0.41-0.4,1.06,0,1.46
	c0.41,0.41,1.06,0.41,1.46,0C367.95,520.02,367.95,519.37,367.54,518.96z M368.64,254.61c-1.01-1.01-2.65-1.01-3.66,0
	c-1.01,1.01-1.01,2.64,0,3.65c1.01,1.01,2.65,1.01,3.66,0C369.65,257.25,369.65,255.62,368.64,254.61z M306.07,530.9
	c-0.42,0.42-0.42,1.1,0,1.53c0.42,0.42,1.11,0.42,1.53,0c0.43-0.42,0.43-1.11,0-1.53C307.18,530.47,306.49,530.47,306.07,530.9z
	 M368.61,278.58c-0.99-0.99-2.6-0.99-3.59,0c-0.99,0.99-0.99,2.59,0,3.59c0.99,0.99,2.6,0.99,3.59,0
	C369.6,281.17,369.6,279.57,368.61,278.58z M367.81,422.97c-0.55-0.55-1.44-0.55-1.99,0c-0.55,0.55-0.55,1.44,0,1.99
	c0.55,0.55,1.44,0.55,1.99,0C368.36,424.41,368.36,423.52,367.81,422.97z M368.84,230.48c-1.12-1.12-2.94-1.12-4.06,0
	c-1.12,1.12-1.12,2.93,0,4.05c1.12,1.12,2.94,1.12,4.06,0C369.96,233.41,369.96,231.6,368.84,230.48z M368.31,326.74
	c-0.83-0.82-2.17-0.82-2.99,0c-0.83,0.82-0.83,2.16,0,2.99c0.83,0.83,2.17,0.83,2.99,0C369.13,328.9,369.13,327.56,368.31,326.74z
	 M368.01,374.9c-0.66-0.66-1.73-0.66-2.4,0c-0.66,0.66-0.66,1.73,0,2.39c0.66,0.66,1.73,0.66,2.4,0S368.67,375.56,368.01,374.9z
	 M367.88,398.97c-0.59-0.58-1.54-0.58-2.13,0c-0.59,0.59-0.59,1.54,0,2.13c0.59,0.59,1.54,0.59,2.13,0
	C368.46,400.51,368.46,399.56,367.88,398.97z M368.14,350.84c-0.73-0.73-1.93-0.73-2.66,0c-0.73,0.74-0.73,1.93,0,2.66
	c0.73,0.74,1.93,0.74,2.66,0C368.88,352.76,368.88,351.57,368.14,350.84z M368.97,206.42c-1.2-1.19-3.13-1.19-4.33,0
	c-1.19,1.19-1.19,3.12,0,4.31c1.2,1.19,3.13,1.19,4.33,0C370.17,209.54,370.17,207.61,368.97,206.42z M390.35,470.86
	c-0.53,0.53-0.53,1.4,0,1.93c0.48,0.47,1.2,0.5,1.73,0.13c-0.03-0.75-0.06-1.49-0.08-2.24C391.48,470.37,390.8,470.42,390.35,470.86
	z M392.25,494.83c-0.51-0.51-1.35-0.51-1.86,0c-0.51,0.51-0.51,1.34,0,1.86c0.52,0.51,1.35,0.51,1.86,0
	C392.77,496.17,392.77,495.34,392.25,494.83z M378.46,530.79c-0.48,0.48-0.48,1.25,0,1.73c0.48,0.48,1.25,0.48,1.73,0
	c0.48-0.48,0.48-1.25,0-1.73C379.71,530.32,378.94,530.32,378.46,530.79z M390.46,542.76c-0.48,0.48-0.48,1.25,0,1.73
	c0.48,0.48,1.25,0.48,1.73,0c0.48-0.48,0.48-1.25,0-1.73C391.71,542.28,390.93,542.28,390.46,542.76z M380.25,506.8
	c-0.51-0.51-1.35-0.51-1.86,0c-0.51,0.51-0.51,1.34,0,1.86c0.51,0.51,1.34,0.51,1.86,0C380.77,508.14,380.77,507.31,380.25,506.8z
	 M392.25,518.76c-0.51-0.51-1.35-0.51-1.86,0c-0.51,0.51-0.51,1.35,0,1.86c0.52,0.51,1.35,0.51,1.86,0
	C392.77,520.11,392.77,519.27,392.25,518.76z M435.64,85.26c-2.02,2.02-2.02,5.29,0,7.3c2.02,2.01,5.3,2.01,7.32,0
	c1.33-1.33,1.77-3.2,1.34-4.9c-1.18-1.03-2.83-2.34-5.05-3.91C437.94,83.77,436.64,84.27,435.64,85.26z M436.1,133.59
	c-1.59,1.59-1.73,4.06-0.45,5.82c0.61-2.28,1.19-4.52,1.74-6.7C436.93,132.92,436.49,133.21,436.1,133.59z M412.01,209.47
	c0.56-1.29,1.12-2.59,1.66-3.89c-0.28,0.15-0.55,0.33-0.79,0.57C411.98,207.05,411.7,208.32,412.01,209.47z M380.29,482.83
	c-0.53-0.53-1.4-0.53-1.93,0c-0.53,0.53-0.53,1.39,0,1.93c0.54,0.53,1.4,0.53,1.93,0C380.82,484.22,380.82,483.36,380.29,482.83z
	 M380.75,362.7c-0.79-0.79-2.07-0.79-2.86,0c-0.79,0.79-0.79,2.07,0,2.85c0.79,0.79,2.07,0.79,2.86,0
	C381.54,364.77,381.54,363.49,380.75,362.7z M381.19,290.48c-1.03-1.03-2.7-1.03-3.72,0c-1.03,1.02-1.03,2.69,0,3.72
	c1.03,1.03,2.69,1.03,3.72,0C382.22,293.17,382.22,291.5,381.19,290.48z M380.82,338.71c-0.83-0.82-2.17-0.82-2.99,0
	c-0.82,0.82-0.82,2.16,0,2.99c0.83,0.82,2.17,0.82,2.99,0C381.65,340.87,381.65,339.53,380.82,338.71z M381.02,314.57
	c-0.94-0.93-2.46-0.93-3.39,0c-0.94,0.93-0.94,2.45,0,3.39c0.94,0.93,2.46,0.93,3.39,0C381.96,317.03,381.96,315.51,381.02,314.57z
	 M381.72,242.08c-1.32-1.32-3.46-1.32-4.79,0c-1.32,1.32-1.32,3.46,0,4.78c1.33,1.32,3.47,1.32,4.79,0
	C383.04,245.54,383.04,243.4,381.72,242.08z M381.42,266.31c-1.16-1.16-3.03-1.16-4.19,0c-1.16,1.15-1.16,3.03,0,4.18
	c1.16,1.16,3.03,1.16,4.19,0C382.58,269.34,382.58,267.47,381.42,266.31z M380.32,458.87c-0.55-0.55-1.44-0.55-2,0
	c-0.55,0.55-0.55,1.44,0,1.99c0.55,0.55,1.45,0.55,2,0C380.87,460.31,380.87,459.42,380.32,458.87z M381.82,218.05
	c-1.38-1.37-3.61-1.37-4.99,0c-1.38,1.38-1.38,3.6,0,4.98c1.38,1.37,3.61,1.37,4.99,0C383.2,221.65,383.2,219.42,381.82,218.05z
	 M380.56,410.77c-0.68-0.68-1.78-0.68-2.46,0c-0.68,0.68-0.68,1.78,0,2.46c0.68,0.68,1.78,0.68,2.46,0
	C381.24,412.55,381.24,411.45,380.56,410.77z M380.46,434.8c-0.62-0.62-1.64-0.62-2.26,0c-0.63,0.63-0.63,1.63,0,2.26
	c0.62,0.62,1.64,0.62,2.26,0C381.08,436.43,381.08,435.43,380.46,434.8z M380.59,386.8c-0.7-0.69-1.83-0.69-2.53,0
	c-0.7,0.7-0.7,1.83,0,2.52c0.7,0.7,1.83,0.7,2.53,0C381.28,388.63,381.28,387.5,380.59,386.8z M321.96,133.66
	c-1.73-1.72-4.53-1.72-6.26,0c-1.73,1.72-1.73,4.51,0,6.24c1.73,1.72,4.53,1.72,6.26,0C323.69,138.17,323.69,135.38,321.96,133.66z
	 M248.69,254.61c-1.01-1.01-2.65-1.01-3.66,0c-1.01,1.01-1.01,2.64,0,3.65c1.01,1.01,2.65,1.01,3.66,0
	C249.7,257.25,249.7,255.62,248.69,254.61z M249.19,230.18c-1.28-1.28-3.37-1.28-4.66,0c-1.28,1.28-1.28,3.36,0,4.64
	c1.29,1.28,3.37,1.28,4.66,0C250.48,233.55,250.48,231.46,249.19,230.18z M249.59,181.92c-1.51-1.5-3.95-1.5-5.46,0
	c-1.51,1.5-1.51,3.94,0,5.44c1.5,1.5,3.95,1.5,5.46,0C251.1,185.86,251.1,183.42,249.59,181.92z M249.36,206.09
	c-1.38-1.37-3.61-1.37-4.99,0c-1.38,1.37-1.38,3.6,0,4.98c1.38,1.37,3.61,1.37,4.99,0C250.74,209.69,250.74,207.46,249.36,206.09z
	 M248.56,278.68c-0.94-0.94-2.46-0.94-3.39,0c-0.94,0.93-0.94,2.45,0,3.38c0.93,0.94,2.46,0.94,3.39,0
	C249.5,281.12,249.5,279.61,248.56,278.68z M247.9,422.93c-0.57-0.57-1.49-0.57-2.06,0c-0.57,0.57-0.57,1.49,0,2.06
	c0.57,0.57,1.49,0.57,2.06,0C248.47,424.42,248.47,423.5,247.9,422.93z M248.06,374.9c-0.66-0.66-1.73-0.66-2.39,0
	c-0.66,0.66-0.66,1.73,0,2.39c0.66,0.66,1.73,0.66,2.39,0C248.72,376.63,248.72,375.56,248.06,374.9z M248.36,302.81
	c-0.83-0.83-2.17-0.83-2.99,0c-0.83,0.82-0.83,2.16,0,2.99c0.83,0.83,2.17,0.83,2.99,0C249.19,304.97,249.19,303.63,248.36,302.81z
	 M249.86,157.72c-1.65-1.65-4.33-1.65-5.99,0c-1.65,1.65-1.65,4.32,0,5.97c1.66,1.65,4.34,1.65,5.99,0
	C251.51,162.04,251.51,159.37,249.86,157.72z M248.29,326.81c-0.79-0.79-2.07-0.79-2.86,0c-0.79,0.79-0.79,2.07,0,2.85
	c0.79,0.79,2.07,0.79,2.86,0C249.08,328.87,249.08,327.59,248.29,326.81z M248.19,350.84c-0.73-0.73-1.92-0.73-2.66,0
	c-0.73,0.74-0.73,1.93,0,2.66c0.74,0.74,1.93,0.74,2.66,0C248.93,352.76,248.93,351.57,248.19,350.84z M247.96,398.93
	c-0.61-0.6-1.59-0.6-2.2,0c-0.61,0.61-0.61,1.59,0,2.19c0.61,0.61,1.59,0.61,2.2,0C248.57,400.52,248.57,399.54,247.96,398.93z
	 M250.19,133.46c-1.84-1.83-4.81-1.83-6.65,0c-1.84,1.83-1.84,4.8,0,6.64c1.84,1.83,4.81,1.83,6.65,0
	C252.03,138.26,252.03,135.29,250.19,133.46z M235.77,482.9c-0.5-0.49-1.3-0.49-1.8,0c-0.49,0.49-0.49,1.3,0,1.79
	c0.5,0.49,1.3,0.49,1.8,0C236.26,484.19,236.26,483.39,235.77,482.9z M235.8,458.93c-0.51-0.52-1.35-0.52-1.86,0
	c-0.52,0.51-0.52,1.34,0,1.86c0.52,0.51,1.35,0.51,1.86,0C236.31,460.28,236.31,459.44,235.8,458.93z M235.9,434.9
	c-0.57-0.57-1.49-0.57-2.06,0c-0.57,0.57-0.57,1.49,0,2.05c0.57,0.57,1.49,0.57,2.06,0C236.47,436.39,236.47,435.47,235.9,434.9z
	 M235.93,410.93c-0.59-0.58-1.54-0.58-2.13,0c-0.59,0.59-0.59,1.54,0,2.13c0.59,0.59,1.54,0.59,2.13,0
	C236.52,412.47,236.52,411.52,235.93,410.93z M234.07,530.86c-0.44,0.44-0.44,1.15,0,1.59c0.44,0.44,1.16,0.44,1.6,0
	c0.44-0.44,0.44-1.15,0-1.59C235.23,530.42,234.51,530.42,234.07,530.86z M250.45,109.26c-1.98-1.98-5.2-1.98-7.18,0
	c-1.98,1.98-1.98,5.19,0,7.17c1.98,1.98,5.2,1.98,7.18,0C252.44,114.45,252.44,111.24,250.45,109.26z M250.62,85.16
	c-2.08-2.07-5.44-2.07-7.52,0c-2.08,2.07-2.08,5.43,0,7.5c2.08,2.07,5.44,2.07,7.52,0C252.7,90.59,252.7,87.23,250.62,85.16z
	 M235.73,506.86c-0.48-0.48-1.25-0.48-1.73,0c-0.48,0.48-0.48,1.25,0,1.72c0.48,0.48,1.25,0.48,1.73,0
	C236.21,508.11,236.21,507.34,235.73,506.86z M250.89,60.96c-2.22-2.22-5.83-2.22-8.05,0c-2.22,2.22-2.22,5.81,0,8.03
	c2.22,2.22,5.83,2.22,8.05,0C253.11,66.77,253.11,63.18,250.89,60.96z M262.78,73.03c-2.17-2.17-5.68-2.17-7.85,0
	c-2.17,2.16-2.17,5.67,0,7.83c2.17,2.16,5.68,2.16,7.85,0C264.95,78.7,264.95,75.19,262.78,73.03z M260.82,242.51
	c-1.08-1.08-2.84-1.08-3.92,0c-1.08,1.08-1.08,2.83,0,3.92c1.08,1.08,2.84,1.08,3.92,0C261.9,245.35,261.9,243.59,260.82,242.51z
	 M261.72,169.82c-1.58-1.57-4.14-1.57-5.72,0c-1.58,1.57-1.58,4.13,0,5.71c1.58,1.58,4.14,1.58,5.72,0
	C263.3,173.95,263.3,171.39,261.72,169.82z M261.19,218.22c-1.28-1.28-3.37-1.28-4.66,0c-1.29,1.28-1.29,3.36,0,4.65
	c1.28,1.28,3.37,1.28,4.66,0C262.47,221.58,262.47,219.5,261.19,218.22z M261.59,193.89c-1.51-1.5-3.95-1.5-5.46,0
	c-1.5,1.5-1.5,3.94,0,5.44c1.51,1.5,3.95,1.5,5.46,0C263.09,197.82,263.09,195.39,261.59,193.89z M260.39,290.81
	c-0.84-0.84-2.21-0.84-3.06,0c-0.85,0.84-0.85,2.21,0,3.05c0.85,0.84,2.22,0.84,3.06,0C261.23,293.02,261.23,291.65,260.39,290.81z
	 M260.69,266.58c-1.01-1.01-2.65-1.01-3.66,0c-1.01,1.01-1.01,2.64,0,3.65c1.01,1.01,2.65,1.01,3.66,0
	C261.7,269.22,261.7,267.59,260.69,266.58z M259.96,386.97c-0.61-0.61-1.59-0.61-2.2,0c-0.61,0.6-0.61,1.58,0,2.19
	c0.61,0.6,1.59,0.6,2.2,0C260.56,388.55,260.56,387.57,259.96,386.97z M260.12,362.87c-0.7-0.69-1.83-0.69-2.53,0
	c-0.7,0.7-0.7,1.83,0,2.53c0.7,0.69,1.83,0.69,2.53,0C260.82,364.7,260.82,363.57,260.12,362.87z M260.36,314.77
	c-0.83-0.82-2.17-0.82-3,0c-0.82,0.83-0.82,2.16,0,2.99c0.83,0.82,2.17,0.82,3,0C261.18,316.94,261.18,315.6,260.36,314.77z
	 M260.19,338.87c-0.74-0.74-1.93-0.74-2.66,0c-0.74,0.73-0.74,1.92,0,2.65c0.73,0.74,1.92,0.74,2.66,0
	C260.92,340.79,260.92,339.6,260.19,338.87z M247.86,446.9c-0.55-0.55-1.45-0.55-2,0c-0.55,0.55-0.55,1.44,0,1.99
	c0.55,0.55,1.44,0.55,2,0C248.41,448.34,248.41,447.45,247.86,446.9z M246.1,542.86c-0.42,0.42-0.42,1.11,0,1.53
	c0.43,0.42,1.11,0.42,1.53,0c0.42-0.42,0.42-1.11,0-1.53C247.21,542.44,246.52,542.44,246.1,542.86z M247.7,518.86
	c-0.46-0.46-1.2-0.46-1.66,0c-0.46,0.46-0.46,1.2,0,1.66c0.46,0.46,1.2,0.46,1.66,0C248.16,520.06,248.16,519.32,247.7,518.86z
	 M262.19,145.42c-1.84-1.83-4.81-1.83-6.65,0c-1.84,1.84-1.84,4.8,0,6.64c1.84,1.83,4.81,1.83,6.65,0
	C264.02,150.23,264.02,147.26,262.19,145.42z M242.64,45.26c2.33,2.33,6.11,2.33,8.45,0c1.26-1.25,1.81-2.93,1.71-4.57h-11.88
	C240.83,42.34,241.38,44.01,242.64,45.26z M247.73,470.96c-0.48-0.48-1.25-0.48-1.73,0c-0.48,0.48-0.48,1.25,0,1.73
	c0.48,0.48,1.25,0.48,1.73,0C248.2,472.22,248.2,471.44,247.73,470.96z M247.73,494.9c-0.48-0.48-1.25-0.48-1.73,0
	c-0.48,0.48-0.48,1.25,0,1.73c0.48,0.48,1.25,0.48,1.73,0C248.2,496.15,248.2,495.37,247.73,494.9z M262.45,97.29
	c-1.98-1.98-5.2-1.98-7.19,0c-1.98,1.98-1.98,5.19,0,7.17c1.99,1.98,5.2,1.98,7.19,0C264.43,102.48,264.43,99.28,262.45,97.29z
	 M262.32,121.36c-1.91-1.91-5.01-1.91-6.92,0c-1.91,1.91-1.91,4.99,0,6.9c1.91,1.9,5.01,1.9,6.92,0
	C264.23,126.35,264.23,123.26,262.32,121.36z M236,386.94c-0.63-0.62-1.64-0.62-2.26,0c-0.62,0.62-0.62,1.63,0,2.26
	c0.63,0.62,1.64,0.62,2.26,0C236.62,388.57,236.62,387.56,236,386.94z M262.88,49c-2.22-2.22-5.83-2.22-8.05,0
	c-2.22,2.22-2.22,5.81,0,8.03c2.22,2.22,5.83,2.22,8.05,0C265.11,54.81,265.11,51.22,262.88,49z M237.03,242.32
	c-1.2-1.19-3.13-1.19-4.33,0c-1.19,1.19-1.19,3.12,0,4.31c1.2,1.19,3.13,1.19,4.33,0C238.23,245.44,238.23,243.51,237.03,242.32z
	 M226.07,133.59c-1.76-1.76-4.62-1.76-6.39,0c-1.76,1.76-1.76,4.61,0,6.37c1.76,1.76,4.62,1.76,6.39,0
	C227.83,138.2,227.83,135.35,226.07,133.59z M225.13,230.25c-1.25-1.24-3.27-1.24-4.52,0c-1.25,1.24-1.25,3.27,0,4.51
	c1.25,1.25,3.27,1.25,4.52,0C226.39,233.51,226.39,231.49,225.13,230.25z M225.43,206.02c-1.41-1.41-3.71-1.41-5.12,0
	c-1.41,1.41-1.41,3.7,0,5.11c1.41,1.41,3.71,1.41,5.12,0C226.85,209.72,226.85,207.43,225.43,206.02z M225.93,157.65
	c-1.69-1.68-4.43-1.68-6.12,0c-1.69,1.69-1.69,4.42,0,6.11c1.69,1.68,4.43,1.68,6.12,0C227.63,162.08,227.63,159.34,225.93,157.65z
	 M225.6,181.92c-1.51-1.5-3.95-1.5-5.46,0c-1.51,1.5-1.51,3.94,0,5.44c1.51,1.5,3.95,1.5,5.46,0
	C227.11,185.86,227.11,183.42,225.6,181.92z M224.87,254.45c-1.1-1.1-2.89-1.1-3.99,0c-1.1,1.1-1.1,2.88,0,3.98
	c1.1,1.1,2.89,1.1,3.99,0C225.97,257.33,225.97,255.55,224.87,254.45z M224.24,350.8c-0.75-0.75-1.98-0.75-2.73,0
	c-0.75,0.75-0.75,1.97,0,2.72c0.75,0.75,1.98,0.75,2.73,0C224.99,352.78,224.99,351.56,224.24,350.8z M224.77,278.48
	c-1.05-1.04-2.75-1.04-3.79,0c-1.05,1.05-1.05,2.74,0,3.79c1.05,1.04,2.75,1.04,3.79,0C225.82,281.22,225.82,279.52,224.77,278.48z
	 M224.27,326.84c-0.77-0.77-2.02-0.77-2.79,0c-0.77,0.77-0.77,2.02,0,2.79c0.77,0.77,2.02,0.77,2.79,0
	C225.04,328.86,225.04,327.61,224.27,326.84z M224.4,302.78c-0.84-0.84-2.21-0.84-3.06,0c-0.85,0.84-0.85,2.21,0,3.05
	c0.85,0.84,2.21,0.84,3.06,0C225.25,304.98,225.25,303.62,224.4,302.78z M226.53,85.26c-2.02-2.01-5.3-2.01-7.32,0
	c-2.02,2.02-2.02,5.29,0,7.3c2.02,2.01,5.3,2.01,7.32,0C228.55,90.55,228.55,87.28,226.53,85.26z M211.95,434.87
	c-0.59-0.59-1.54-0.59-2.13,0c-0.59,0.58-0.59,1.54,0,2.12c0.59,0.59,1.54,0.59,2.13,0C212.53,436.4,212.53,435.45,211.95,434.87z
	 M211.85,458.9c-0.53-0.54-1.4-0.54-1.93,0c-0.53,0.53-0.53,1.39,0,1.92c0.53,0.53,1.4,0.53,1.93,0
	C212.38,460.29,212.38,459.43,211.85,458.9z M211.98,410.9c-0.61-0.61-1.59-0.61-2.2,0c-0.61,0.61-0.61,1.58,0,2.19
	c0.61,0.61,1.59,0.61,2.2,0C212.59,412.49,212.59,411.51,211.98,410.9z M211.98,386.97c-0.61-0.61-1.59-0.61-2.2,0
	c-0.61,0.6-0.61,1.58,0,2.19c0.61,0.6,1.59,0.6,2.2,0C212.59,388.55,212.59,387.57,211.98,386.97z M211.81,482.86
	c-0.52-0.51-1.35-0.51-1.86,0c-0.51,0.51-0.51,1.35,0,1.86c0.51,0.52,1.35,0.52,1.86,0C212.32,484.21,212.32,483.38,211.81,482.86z
	 M210.02,530.79c-0.48,0.48-0.48,1.25,0,1.73c0.48,0.48,1.25,0.48,1.73,0c0.48-0.48,0.48-1.25,0-1.73
	C211.27,530.32,210.49,530.32,210.02,530.79z M224.14,374.84c-0.7-0.7-1.83-0.7-2.53,0c-0.7,0.7-0.7,1.83,0,2.53
	c0.7,0.69,1.83,0.69,2.53,0C224.84,376.66,224.84,375.53,224.14,374.84z M226.44,109.29c-1.97-1.96-5.16-1.96-7.12,0
	c-1.97,1.96-1.97,5.14,0,7.11c1.96,1.96,5.15,1.96,7.12,0C228.4,114.43,228.4,111.25,226.44,109.29z M226.9,60.96
	c-2.22-2.22-5.82-2.22-8.05,0c-2.22,2.22-2.22,5.81,0,8.03c2.23,2.22,5.83,2.22,8.05,0C229.12,66.77,229.12,63.18,226.9,60.96z
	 M211.78,506.83c-0.5-0.5-1.3-0.5-1.8,0c-0.5,0.49-0.5,1.29,0,1.79c0.5,0.5,1.3,0.5,1.8,0
	C212.27,508.13,212.27,507.32,211.78,506.83z M237.76,169.79c-1.6-1.6-4.19-1.6-5.79,0c-1.6,1.6-1.6,4.18,0,5.77
	c1.6,1.59,4.19,1.59,5.79,0C239.36,173.97,239.36,171.38,237.76,169.79z M237.1,218.32c-1.23-1.23-3.23-1.23-4.46,0
	c-1.23,1.22-1.23,3.21,0,4.45c1.23,1.23,3.23,1.23,4.46,0C238.33,221.53,238.33,219.54,237.1,218.32z M237.56,193.92
	c-1.49-1.48-3.9-1.48-5.39,0c-1.49,1.49-1.49,3.89,0,5.38c1.49,1.49,3.9,1.49,5.39,0C239.05,197.81,239.05,195.41,237.56,193.92z
	 M259.92,410.93c-0.59-0.58-1.54-0.58-2.13,0c-0.59,0.59-0.59,1.54,0,2.13c0.59,0.59,1.54,0.59,2.13,0
	C260.51,412.47,260.51,411.52,259.92,410.93z M238.1,145.52c-1.78-1.78-4.67-1.78-6.45,0c-1.78,1.78-1.78,4.66,0,6.44
	c1.78,1.78,4.67,1.78,6.45,0C239.88,150.18,239.88,147.3,238.1,145.52z M236.1,362.9c-0.68-0.68-1.78-0.68-2.46,0
	c-0.68,0.68-0.68,1.78,0,2.46c0.68,0.68,1.78,0.68,2.46,0C236.78,364.68,236.78,363.58,236.1,362.9z M236.43,290.77
	c-0.86-0.86-2.26-0.86-3.13,0c-0.86,0.86-0.86,2.26,0,3.12c0.86,0.86,2.26,0.86,3.13,0C237.3,293.03,237.3,291.64,236.43,290.77z
	 M236.4,314.74c-0.85-0.84-2.21-0.84-3.06,0c-0.84,0.84-0.84,2.21,0,3.06c0.85,0.84,2.21,0.84,3.06,0
	C237.24,316.95,237.24,315.58,236.4,314.74z M236.76,266.51c-1.05-1.04-2.75-1.04-3.79,0c-1.05,1.04-1.05,2.74,0,3.78
	c1.05,1.04,2.75,1.04,3.79,0C237.81,269.25,237.81,267.56,236.76,266.51z M236.17,338.91c-0.72-0.72-1.88-0.72-2.59,0
	c-0.72,0.71-0.72,1.87,0,2.58c0.72,0.72,1.88,0.72,2.59,0C236.88,340.78,236.88,339.62,236.17,338.91z M238.23,121.46
	c-1.86-1.85-4.87-1.85-6.72,0c-1.85,1.85-1.85,4.85,0,6.7c1.85,1.85,4.86,1.85,6.72,0C240.08,126.31,240.08,123.31,238.23,121.46z
	 M238.73,73.1c-2.13-2.13-5.59-2.13-7.72,0c-2.13,2.13-2.13,5.57,0,7.7c2.13,2.12,5.59,2.12,7.72,0
	C240.86,78.67,240.86,75.22,238.73,73.1z M223.77,470.93c-0.5-0.5-1.3-0.5-1.8,0c-0.5,0.49-0.5,1.29,0,1.79c0.5,0.49,1.3,0.49,1.8,0
	C224.27,472.23,224.27,471.43,223.77,470.93z M222.08,542.83c-0.44,0.44-0.44,1.15,0,1.6c0.44,0.44,1.15,0.44,1.59,0
	c0.44-0.44,0.44-1.15,0-1.6C223.23,542.39,222.52,542.39,222.08,542.83z M223.77,494.86c-0.5-0.5-1.3-0.5-1.8,0
	c-0.5,0.49-0.5,1.3,0,1.79c0.5,0.49,1.3,0.49,1.8,0C224.27,496.16,224.27,495.36,223.77,494.86z M223.91,422.93
	c-0.57-0.57-1.49-0.57-2.06,0c-0.57,0.57-0.57,1.49,0,2.06c0.57,0.57,1.49,0.57,2.06,0C224.47,424.42,224.47,423.5,223.91,422.93z
	 M223.87,446.9c-0.55-0.55-1.44-0.55-1.99,0c-0.55,0.55-0.55,1.44,0,1.99c0.55,0.55,1.44,0.55,1.99,0
	C224.42,448.34,224.42,447.45,223.87,446.9z M224.01,398.9c-0.63-0.62-1.64-0.62-2.26,0c-0.63,0.62-0.63,1.63,0,2.26
	c0.63,0.63,1.63,0.63,2.26,0C224.63,400.53,224.63,399.52,224.01,398.9z M223.74,518.83c-0.48-0.48-1.25-0.48-1.73,0
	c-0.48,0.48-0.48,1.25,0,1.73c0.48,0.48,1.25,0.48,1.73,0C224.22,520.08,224.22,519.31,223.74,518.83z M238.83,49.06
	c-2.18-2.18-5.73-2.18-7.91,0c-2.19,2.18-2.19,5.72,0,7.9c2.18,2.18,5.73,2.18,7.91,0C241.01,54.78,241.01,51.24,238.83,49.06z
	 M238.43,97.33c-1.96-1.96-5.15-1.96-7.12,0c-1.97,1.96-1.97,5.14,0,7.1c1.97,1.96,5.15,1.96,7.12,0
	C240.39,102.47,240.39,99.29,238.43,97.33z M218.52,45.39c2.41,2.4,6.31,2.4,8.72,0c1.29-1.29,1.87-3.01,1.77-4.7h-12.26
	C216.65,42.38,217.22,44.1,218.52,45.39z M307.87,434.9c-0.57-0.57-1.49-0.57-2.06,0c-0.57,0.57-0.57,1.49,0,2.06
	c0.57,0.57,1.49,0.57,2.06,0C308.44,436.39,308.44,435.47,307.87,434.9z M296.47,278.75c-0.9-0.9-2.36-0.9-3.26,0
	c-0.9,0.9-0.9,2.35,0,3.25c0.9,0.9,2.36,0.9,3.26,0C297.37,281.1,297.37,279.64,296.47,278.75z M296.24,326.84
	c-0.77-0.77-2.02-0.77-2.79,0c-0.77,0.77-0.77,2.02,0,2.79c0.77,0.77,2.02,0.77,2.79,0C297.01,328.86,297.01,327.61,296.24,326.84z
	 M297.2,206.22c-1.3-1.3-3.42-1.3-4.72,0c-1.31,1.3-1.31,3.41,0,4.72c1.31,1.3,3.42,1.3,4.72,0
	C298.51,209.63,298.51,207.52,297.2,206.22z M296.87,230.48c-1.12-1.12-2.94-1.12-4.06,0c-1.12,1.12-1.12,2.93,0,4.05
	c1.12,1.12,2.94,1.12,4.06,0C297.99,233.41,297.99,231.6,296.87,230.48z M296.61,254.68c-0.98-0.97-2.55-0.97-3.53,0
	c-0.97,0.97-0.97,2.54,0,3.51c0.98,0.97,2.55,0.97,3.53,0C297.58,257.22,297.58,255.65,296.61,254.68z M296.37,302.78
	c-0.85-0.84-2.22-0.84-3.06,0c-0.84,0.84-0.84,2.21,0,3.05c0.85,0.84,2.22,0.84,3.06,0C297.22,304.98,297.22,303.62,296.37,302.78z
	 M295.87,422.93c-0.57-0.57-1.49-0.57-2.07,0c-0.57,0.57-0.57,1.49,0,2.06c0.57,0.57,1.5,0.57,2.07,0
	C296.44,424.42,296.44,423.5,295.87,422.93z M295.84,446.9c-0.55-0.55-1.44-0.55-1.99,0c-0.55,0.55-0.55,1.44,0,1.99
	c0.55,0.55,1.44,0.55,1.99,0C296.39,448.34,296.39,447.45,295.84,446.9z M296.01,374.94c-0.64-0.64-1.69-0.64-2.33,0
	c-0.65,0.64-0.65,1.68,0,2.32c0.64,0.64,1.69,0.64,2.33,0C296.65,376.62,296.65,375.58,296.01,374.94z M295.94,398.93
	c-0.61-0.6-1.59-0.6-2.2,0c-0.61,0.61-0.61,1.59,0,2.19c0.61,0.61,1.59,0.61,2.2,0C296.55,400.52,296.55,399.54,295.94,398.93z
	 M296.21,350.8c-0.75-0.75-1.97-0.75-2.73,0c-0.75,0.75-0.75,1.97,0,2.72c0.75,0.75,1.97,0.75,2.73,0
	C296.96,352.78,296.96,351.56,296.21,350.8z M295.74,470.93c-0.49-0.5-1.3-0.5-1.79,0c-0.5,0.49-0.5,1.29,0,1.79
	c0.49,0.49,1.3,0.49,1.79,0C296.24,472.23,296.24,471.43,295.74,470.93z M298.93,60.9c-2.26-2.25-5.92-2.25-8.18,0
	c-2.26,2.26-2.26,5.91,0,8.16c2.26,2.25,5.92,2.25,8.18,0C301.19,66.81,301.19,63.15,298.93,60.9z M300.97,40.69h-12.25
	c-0.1,1.69,0.48,3.41,1.77,4.7c2.4,2.4,6.3,2.4,8.71,0C300.49,44.1,301.07,42.38,300.97,40.69z M283.65,506.93
	c-0.44-0.44-1.15-0.44-1.6,0c-0.44,0.44-0.44,1.15,0,1.6c0.44,0.44,1.16,0.44,1.6,0C284.09,508.08,284.09,507.37,283.65,506.93z
	 M283.75,482.9c-0.5-0.49-1.3-0.49-1.8,0c-0.49,0.49-0.49,1.3,0,1.79c0.5,0.49,1.3,0.49,1.8,0
	C284.24,484.19,284.24,483.39,283.75,482.9z M297.5,181.99c-1.47-1.47-3.85-1.47-5.32,0c-1.47,1.47-1.47,3.84,0,5.3
	c1.47,1.47,3.85,1.47,5.32,0C298.98,185.83,298.98,183.45,297.5,181.99z M282.08,530.9c-0.42,0.42-0.42,1.1,0,1.53
	c0.42,0.42,1.11,0.42,1.53,0c0.42-0.42,0.42-1.11,0-1.53C283.19,530.47,282.5,530.47,282.08,530.9z M297.97,133.66
	c-1.72-1.72-4.53-1.72-6.25,0c-1.73,1.72-1.73,4.51,0,6.24c1.72,1.72,4.53,1.72,6.25,0C299.7,138.17,299.7,135.38,297.97,133.66z
	 M298.73,85.03c-2.15-2.14-5.63-2.14-7.78,0c-2.15,2.14-2.15,5.62,0,7.76c2.15,2.15,5.63,2.15,7.78,0
	C300.88,90.65,300.88,87.17,298.73,85.03z M297.87,157.69c-1.67-1.67-4.38-1.67-6.06,0c-1.67,1.67-1.67,4.37,0,6.04
	c1.67,1.67,4.38,1.67,6.06,0C299.54,162.06,299.54,159.36,297.87,157.69z M298.57,109.13c-2.06-2.05-5.39-2.05-7.45,0
	c-2.06,2.05-2.06,5.38,0,7.43c2.06,2.06,5.39,2.06,7.45,0C300.62,114.51,300.62,111.18,298.57,109.13z M308.47,290.71
	c-0.9-0.9-2.36-0.9-3.26,0c-0.9,0.9-0.9,2.36,0,3.26c0.9,0.9,2.36,0.9,3.26,0C309.37,293.07,309.37,291.61,308.47,290.71z
	 M308.37,314.74c-0.85-0.84-2.22-0.84-3.06,0c-0.85,0.84-0.85,2.21,0,3.06c0.85,0.84,2.21,0.84,3.06,0
	C309.21,316.95,309.21,315.58,308.37,314.74z M308.23,338.8c-0.77-0.77-2.02-0.77-2.79,0c-0.77,0.77-0.77,2.02,0,2.79
	c0.77,0.77,2.02,0.77,2.79,0C309,340.82,309,339.58,308.23,338.8z M308.13,362.84c-0.72-0.71-1.88-0.71-2.59,0
	c-0.72,0.72-0.72,1.88,0,2.59c0.72,0.71,1.88,0.71,2.59,0C308.85,364.71,308.85,363.55,308.13,362.84z M283.81,458.9
	c-0.53-0.54-1.4-0.54-1.93,0c-0.53,0.53-0.53,1.39,0,1.92c0.53,0.53,1.4,0.53,1.93,0C284.35,460.29,284.35,459.43,283.81,458.9z
	 M308.56,266.68c-0.95-0.95-2.5-0.95-3.46,0c-0.95,0.95-0.95,2.5,0,3.45c0.95,0.95,2.5,0.95,3.46,0
	C309.52,269.18,309.52,267.63,308.56,266.68z M307.67,482.97c-0.46-0.46-1.2-0.46-1.66,0c-0.46,0.45-0.46,1.2,0,1.65
	c0.46,0.46,1.2,0.46,1.66,0C308.13,484.17,308.13,483.42,307.67,482.97z M308.67,242.65c-1.01-1.01-2.65-1.01-3.66,0
	c-1.01,1.01-1.01,2.64,0,3.65c1.01,1.01,2.65,1.01,3.66,0C309.68,245.29,309.68,243.65,308.67,242.65z M308,386.9
	c-0.64-0.64-1.69-0.64-2.33,0c-0.64,0.64-0.64,1.68,0,2.32c0.64,0.64,1.69,0.64,2.33,0C308.64,388.58,308.64,387.54,308,386.9z
	 M307.74,458.97c-0.5-0.5-1.3-0.5-1.79,0c-0.5,0.49-0.5,1.3,0,1.79c0.49,0.5,1.3,0.5,1.79,0
	C308.23,460.26,308.23,459.46,307.74,458.97z M307.9,410.93c-0.59-0.58-1.54-0.58-2.13,0c-0.59,0.59-0.59,1.54,0,2.13
	c0.59,0.59,1.54,0.59,2.13,0C308.49,412.47,308.49,411.52,307.9,410.93z M309.96,145.63c-1.73-1.73-4.53-1.73-6.25,0
	c-1.73,1.72-1.73,4.51,0,6.24c1.73,1.72,4.53,1.72,6.25,0C311.69,150.14,311.69,147.35,309.96,145.63z M310.99,72.8
	c-2.29-2.29-6.02-2.29-8.31,0c-2.3,2.29-2.3,6.01,0,8.3c2.3,2.29,6.02,2.29,8.31,0C313.29,78.8,313.29,75.09,310.99,72.8z
	 M311.06,48.8c-2.33-2.33-6.12-2.33-8.45,0c-2.33,2.33-2.33,6.1,0,8.43c2.33,2.33,6.11,2.33,8.45,0
	C313.39,54.9,313.39,51.12,311.06,48.8z M310.49,97.23c-2.02-2.01-5.3-2.01-7.32,0c-2.02,2.02-2.02,5.28,0,7.3
	c2.02,2.02,5.3,2.02,7.32,0C312.52,102.51,312.52,99.24,310.49,97.23z M294.11,542.89c-0.4,0.4-0.4,1.06,0,1.46
	c0.4,0.4,1.06,0.4,1.46,0c0.4-0.41,0.4-1.06,0-1.46C295.17,542.49,294.51,542.49,294.11,542.89z M295.64,518.9
	c-0.44-0.44-1.16-0.44-1.6,0c-0.44,0.44-0.44,1.15,0,1.59c0.44,0.44,1.16,0.44,1.6,0C296.08,520.05,296.08,519.33,295.64,518.9z
	 M295.67,494.93c-0.46-0.46-1.2-0.46-1.66,0c-0.46,0.46-0.46,1.2,0,1.66c0.46,0.46,1.2,0.46,1.66,0
	C296.13,496.13,296.13,495.39,295.67,494.93z M309.33,194.12c-1.38-1.37-3.61-1.37-4.99,0s-1.38,3.6,0,4.97
	c1.38,1.37,3.61,1.37,4.99,0C310.71,197.72,310.71,195.49,309.33,194.12z M309.67,169.85c-1.56-1.56-4.09-1.56-5.65,0
	s-1.56,4.08,0,5.64c1.56,1.56,4.09,1.56,5.65,0C311.23,173.94,311.23,171.41,309.67,169.85z M310.23,121.43
	c-1.87-1.87-4.91-1.87-6.78,0c-1.87,1.87-1.87,4.9,0,6.77c1.87,1.87,4.91,1.87,6.78,0C312.1,126.33,312.1,123.29,310.23,121.43z
	 M308.8,218.58c-1.08-1.08-2.84-1.08-3.92,0c-1.08,1.08-1.08,2.84,0,3.92c1.08,1.08,2.84,1.08,3.92,0
	C309.88,221.42,309.88,219.66,308.8,218.58z M274.68,85.1c-2.11-2.11-5.54-2.11-7.65,0c-2.11,2.1-2.11,5.52,0,7.63
	c2.11,2.11,5.54,2.11,7.65,0C276.79,90.62,276.79,87.2,274.68,85.1z M272.48,278.75c-0.9-0.9-2.36-0.9-3.26,0
	c-0.9,0.9-0.9,2.35,0,3.25c0.9,0.9,2.36,0.9,3.26,0C273.38,281.1,273.38,279.64,272.48,278.75z M272.32,302.84
	c-0.81-0.81-2.12-0.81-2.93,0c-0.81,0.81-0.81,2.11,0,2.92c0.81,0.81,2.12,0.81,2.93,0C273.12,304.95,273.12,303.65,272.32,302.84z
	 M272.28,326.81c-0.79-0.79-2.07-0.79-2.86,0c-0.79,0.79-0.79,2.07,0,2.85c0.79,0.79,2.07,0.79,2.86,0
	C273.08,328.87,273.08,327.59,272.28,326.81z M272.95,230.42c-1.16-1.16-3.03-1.16-4.19,0c-1.16,1.15-1.16,3.03,0,4.18
	c1.16,1.15,3.03,1.15,4.19,0C274.11,233.44,274.11,231.57,272.95,230.42z M272.65,254.65c-0.99-1-2.6-1-3.59,0
	c-0.99,0.99-0.99,2.59,0,3.58c0.99,0.99,2.6,0.99,3.59,0C273.64,257.24,273.64,255.63,272.65,254.65z M271.95,398.93
	c-0.61-0.6-1.59-0.6-2.2,0c-0.6,0.61-0.6,1.59,0,2.19c0.61,0.61,1.59,0.61,2.2,0C272.56,400.52,272.56,399.54,271.95,398.93z
	 M272.18,350.84c-0.73-0.73-1.93-0.73-2.66,0c-0.74,0.74-0.74,1.93,0,2.66c0.73,0.74,1.92,0.74,2.66,0
	C272.92,352.76,272.92,351.57,272.18,350.84z M271.85,422.97c-0.55-0.55-1.44-0.55-2,0c-0.55,0.55-0.55,1.44,0,1.99
	c0.55,0.55,1.44,0.55,2,0C272.4,424.41,272.4,423.52,271.85,422.97z M273.35,206.09c-1.38-1.37-3.61-1.37-4.99,0
	c-1.38,1.37-1.38,3.6,0,4.98c1.38,1.37,3.61,1.37,4.99,0C274.73,209.69,274.73,207.46,273.35,206.09z M272.12,374.84
	c-0.7-0.7-1.83-0.7-2.53,0c-0.7,0.7-0.7,1.83,0,2.53c0.7,0.69,1.83,0.69,2.53,0C272.82,376.66,272.82,375.53,272.12,374.84z
	 M258.06,530.86c-0.44,0.44-0.44,1.15,0,1.59c0.44,0.44,1.15,0.44,1.6,0c0.44-0.44,0.44-1.15,0-1.59
	C259.21,530.42,258.5,530.42,258.06,530.86z M259.69,506.9c-0.46-0.46-1.2-0.46-1.66,0c-0.46,0.46-0.46,1.2,0,1.66
	c0.46,0.46,1.2,0.46,1.66,0C260.15,508.1,260.15,507.36,259.69,506.9z M273.51,181.99c-1.47-1.47-3.85-1.47-5.32,0
	c-1.47,1.47-1.47,3.84,0,5.3c1.47,1.47,3.85,1.47,5.32,0C274.98,185.83,274.98,183.45,273.51,181.99z M259.72,482.93
	c-0.48-0.48-1.25-0.48-1.73,0c-0.48,0.48-0.48,1.25,0,1.72c0.48,0.48,1.25,0.48,1.73,0C260.2,484.18,260.2,483.41,259.72,482.93z
	 M259.79,458.93c-0.52-0.52-1.35-0.52-1.86,0c-0.52,0.51-0.52,1.34,0,1.86c0.51,0.51,1.35,0.51,1.86,0
	C260.3,460.28,260.3,459.44,259.79,458.93z M275.01,60.83c-2.3-2.29-6.02-2.29-8.32,0c-2.3,2.29-2.3,6.01,0,8.3
	c2.3,2.29,6.02,2.29,8.32,0C277.31,66.84,277.31,63.12,275.01,60.83z M271.85,446.9c-0.55-0.55-1.44-0.55-2,0
	c-0.55,0.55-0.55,1.44,0,1.99c0.55,0.55,1.44,0.55,2,0C272.4,448.34,272.4,447.45,271.85,446.9z M273.98,133.66
	c-1.73-1.72-4.53-1.72-6.25,0c-1.73,1.72-1.73,4.51,0,6.24c1.73,1.72,4.53,1.72,6.25,0C275.7,138.17,275.7,135.38,273.98,133.66z
	 M273.88,157.69c-1.67-1.67-4.38-1.67-6.05,0c-1.68,1.67-1.68,4.37,0,6.04c1.67,1.67,4.38,1.67,6.05,0
	C275.55,162.06,275.55,159.36,273.88,157.69z M259.89,434.9c-0.57-0.57-1.5-0.57-2.07,0c-0.57,0.57-0.57,1.49,0,2.05
	c0.57,0.57,1.49,0.57,2.07,0C260.46,436.39,260.46,435.47,259.89,434.9z M274.51,109.19c-2.02-2.02-5.3-2.02-7.32,0
	c-2.02,2.02-2.02,5.28,0,7.3c2.02,2.02,5.3,2.02,7.32,0C276.53,114.48,276.53,111.21,274.51,109.19z M284.71,242.61
	c-1.03-1.03-2.7-1.03-3.73,0c-1.03,1.03-1.03,2.69,0,3.72c1.03,1.03,2.7,1.03,3.73,0C285.74,245.3,285.74,243.64,284.71,242.61z
	 M284.38,290.81c-0.85-0.84-2.21-0.84-3.06,0c-0.84,0.84-0.84,2.21,0,3.05c0.85,0.84,2.21,0.84,3.06,0
	C285.22,293.02,285.22,291.65,284.38,290.81z M284.38,314.74c-0.85-0.84-2.21-0.84-3.06,0c-0.84,0.84-0.84,2.21,0,3.06
	c0.85,0.84,2.21,0.84,3.06,0C285.22,316.95,285.22,315.58,284.38,314.74z M284.61,266.64c-0.97-0.97-2.55-0.97-3.53,0
	c-0.97,0.97-0.97,2.55,0,3.52c0.97,0.97,2.55,0.97,3.53,0C285.59,269.19,285.59,267.62,284.61,266.64z M284.88,218.52
	c-1.12-1.12-2.94-1.12-4.06,0c-1.12,1.12-1.12,2.93,0,4.05c1.12,1.12,2.94,1.12,4.06,0C286,221.44,286,219.63,284.88,218.52z
	 M283.88,434.9c-0.57-0.57-1.49-0.57-2.06,0c-0.57,0.57-0.57,1.49,0,2.06c0.57,0.57,1.49,0.57,2.06,0
	C284.45,436.39,284.45,435.47,283.88,434.9z M283.88,410.97c-0.57-0.57-1.49-0.57-2.06,0c-0.57,0.57-0.57,1.49,0,2.06
	c0.57,0.57,1.49,0.57,2.06,0C284.45,412.46,284.45,411.53,283.88,410.97z M285.51,193.95c-1.47-1.47-3.85-1.47-5.32,0
	c-1.47,1.47-1.47,3.85,0,5.31c1.47,1.47,3.85,1.47,5.32,0C286.98,197.8,286.98,195.42,285.51,193.95z M284.21,338.84
	c-0.75-0.75-1.97-0.75-2.73,0c-0.75,0.75-0.75,1.97,0,2.72c0.75,0.75,1.98,0.75,2.73,0C284.96,340.81,284.96,339.59,284.21,338.84z
	 M283.95,386.97c-0.61-0.61-1.59-0.61-2.2,0c-0.6,0.6-0.6,1.58,0,2.19c0.61,0.6,1.59,0.6,2.2,0
	C284.55,388.55,284.55,387.57,283.95,386.97z M284.18,362.8c-0.73-0.74-1.92-0.74-2.66,0c-0.73,0.73-0.73,1.92,0,2.66
	c0.73,0.73,1.93,0.73,2.66,0C284.91,364.72,284.91,363.53,284.18,362.8z M271.72,494.9c-0.48-0.48-1.25-0.48-1.73,0
	c-0.48,0.48-0.48,1.25,0,1.73c0.48,0.48,1.25,0.48,1.73,0C272.2,496.15,272.2,495.37,271.72,494.9z M271.68,518.86
	c-0.46-0.46-1.2-0.46-1.66,0c-0.46,0.46-0.46,1.2,0,1.66c0.46,0.46,1.2,0.46,1.66,0C272.14,520.06,272.14,519.32,271.68,518.86z
	 M286.94,48.93c-2.26-2.25-5.92-2.25-8.18,0c-2.26,2.26-2.26,5.91,0,8.17c2.26,2.25,5.92,2.25,8.18,0
	C289.2,54.84,289.2,51.19,286.94,48.93z M266.63,45.26c2.33,2.33,6.11,2.33,8.45,0c1.26-1.25,1.82-2.93,1.72-4.57h-11.88
	C264.81,42.34,265.37,44.01,266.63,45.26z M271.72,470.96c-0.48-0.48-1.25-0.48-1.73,0c-0.48,0.48-0.48,1.25,0,1.73
	c0.48,0.48,1.25,0.48,1.73,0C272.2,472.22,272.2,471.44,271.72,470.96z M270.09,542.86c-0.42,0.42-0.42,1.11,0,1.53
	c0.42,0.42,1.11,0.42,1.53,0c0.42-0.42,0.42-1.11,0-1.53C271.19,542.44,270.51,542.44,270.09,542.86z M286.57,97.16
	c-2.06-2.05-5.39-2.05-7.45,0c-2.06,2.05-2.06,5.38,0,7.43c2.06,2.05,5.39,2.05,7.45,0C288.63,102.54,288.63,99.21,286.57,97.16z
	 M286.87,72.93c-2.22-2.22-5.82-2.22-8.05,0c-2.22,2.22-2.22,5.81,0,8.03c2.23,2.22,5.83,2.22,8.05,0
	C289.09,78.74,289.09,75.15,286.87,72.93z M286.17,121.49c-1.84-1.83-4.82-1.83-6.65,0c-1.84,1.83-1.84,4.8,0,6.64
	c1.84,1.83,4.82,1.83,6.65,0C288.01,126.29,288.01,123.32,286.17,121.49z M285.97,145.63c-1.73-1.73-4.52-1.73-6.25,0
	c-1.73,1.72-1.73,4.51,0,6.24c1.73,1.72,4.53,1.72,6.25,0C287.7,150.14,287.7,147.35,285.97,145.63z M285.71,169.82
	c-1.58-1.57-4.14-1.57-5.72,0c-1.58,1.57-1.58,4.13,0,5.71c1.58,1.58,4.14,1.58,5.72,0C287.29,173.95,287.29,171.39,285.71,169.82z"
	/>
<path class="Colour1 fill" d="M54.18,90.13c0,0-52.18,38.95-53.68,178.25c0,0,43.92,30.71,91.22,17.6c0,0,9.27-30.58,2.32-65.53
	C94.04,220.44,70.82,173.26,54.18,90.13z"/>
<path class="Colour1 fill" d="M446.82,90.13c0,0,52.18,38.95,53.68,178.25c0,0-43.92,30.71-91.22,17.6c0,0-9.27-30.58-2.32-65.53
	C406.96,220.44,430.18,173.26,446.82,90.13z"/>
<g>
	<path class="st1" d="M0.86,253.77c0,0,32.62,21.54,93.18,18.54"/>
	<path class="st1" d="M500.22,253.77c0,0-32.62,21.54-93.18,18.54"/>
</g>
<path class="st2" d="M236.99,109.16v131.51h29.28c8.29-84.73-14.39-118.85-29.25-131.87L236.99,109.16z"/>
<path class="st2" d="M96.25,597c14.67,8.05,53.26,19.29,154.26,18.79c103.23-0.51,140.87-8.07,154.79-15.72"/>
<g>
	<g>
		<path class="st2" d="M96.25,603.6c0.14,0.08,0.29,0.16,0.44,0.24"/>
		<path class="st3" d="M97.57,604.3c15.61,7.99,54.83,18.57,152.94,18.09c103.77-0.51,141.26-8.15,155.01-15.84"/>
		<path class="st2" d="M405.95,606.3c0.15-0.08,0.29-0.17,0.43-0.25"/>
	</g>
</g>
<path class="Collar fill" d="M186.19,9.99c0,0-8.51,71.4,39.04,91.37c0,0-35.54,1.5-62.56,25.96C162.66,127.32,140.14,57.92,186.19,9.99z
	 M250.5,0.5c-32.28,0-64.31,9.49-64.31,9.49s-1.23,13.91,0.52,30.71H314.3c0,0,2.82-17.17,0.52-30.71
	C314.82,9.99,282.79,0.5,250.5,0.5 M314.82,9.99c0,0,8.51,71.4-39.04,91.37c0,0,35.54,1.5,62.56,25.96
	C338.34,127.32,360.86,57.92,314.82,9.99z"/>
<path class="st4" d="M315.33,9.99c2.24,13.19-0.38,29.82-0.52,30.67 M314.81,40.65c2.14-17.03,0.52-30.67,0.52-30.67 M315.33,9.99
	c0,0-32.03-9.49-64.31-9.49S186.7,9.99,186.7,9.99 M186.7,9.99c-46.05,47.93-23.52,117.34-23.52,117.34
	c27.03-24.47,62.56-25.96,62.56-25.96C178.19,81.39,186.7,9.99,186.7,9.99 M314.81,40.65c-2.76,21.93-11.76,49.46-38.52,60.71
	c0,0,35.54,1.5,62.56,25.96c0,0,22.52-69.4-23.52-117.34"/>
<path class="Collar fill" d="M275.78,101.36c0,0-19.87,14.1-20.7,32.76c0,0,9.77,22.26,11.29,42.87c0,0,11.9-49.05,43.44-67.39
	C309.81,109.6,292.61,102.67,275.78,101.36z"/>
<path class="st4" d="M254.21,134.12c0,0,9.77,22.26,11.29,42.87c0,0,11.9-49.05,43.44-67.39c0,0-17.21-6.93-34.04-8.24
	C274.91,101.36,255.04,115.46,254.21,134.12z"/>
<g>
	<ellipse class="st5" cx="275.78" cy="123.7" rx="7.13" ry="7.12"/>
	<g>
		<circle cx="273.48" cy="121.48" r="1.01"/>
		<circle cx="278.07" cy="121.48" r="1.01"/>
		<circle cx="273.48" cy="125.93" r="1.01"/>
		<circle cx="278.07" cy="125.93" r="1.01"/>
	</g>
</g>
<g>
	<ellipse class="st5" cx="259.94" cy="155.63" rx="7.13" ry="7.12"/>
	<g>
		<circle class="st6" cx="257.65" cy="153.41" r="1.01"/>
		<circle cx="262.24" cy="153.41" r="1.01"/>
		<circle class="st6" cx="257.65" cy="157.86" r="1.01"/>
		<circle class="st6" cx="262.24" cy="157.86" r="1.01"/>
	</g>
</g>
<path class="Collar fill" d="M225.23,101.36c0,0,53.05,16.48,41.04,139.31h-29.28V108.79"/>
<path class="st4" d="M227.15,101.36l11.76,7.43v131.88h29.28C280.2,117.84,227.15,101.36,227.15,101.36z"/>
<path class="st7" d="M252.51,151c0,0,0.5,0.98,0.86,2.46c0.4,1.47,0.64,3.44,0.64,5.41c0,1.97-0.24,3.93-0.64,5.41
	c-0.36,1.47-0.86,2.46-0.86,2.46s-0.51-0.98-0.86-2.46c-0.4-1.47-0.64-3.44-0.64-5.41c0-1.97,0.24-3.93,0.64-5.41
	C252.01,151.98,252.51,151,252.51,151z"/>
<path class="st7" d="M252.51,187.69c0,0,0.5,0.98,0.86,2.46c0.4,1.47,0.64,3.44,0.64,5.41c0,1.97-0.24,3.93-0.64,5.41
	c-0.36,1.47-0.86,2.46-0.86,2.46s-0.51-0.98-0.86-2.46c-0.4-1.47-0.64-3.44-0.64-5.41c0-1.97,0.24-3.93,0.64-5.41
	C252.01,188.68,252.51,187.69,252.51,187.69z"/>
<path class="st7" d="M252.51,221.15c0,0,0.5,0.98,0.86,2.46c0.4,1.47,0.64,3.44,0.64,5.41c0,1.97-0.24,3.93-0.64,5.41
	c-0.36,1.47-0.86,2.46-0.86,2.46s-0.51-0.98-0.86-2.46c-0.4-1.47-0.64-3.44-0.64-5.41c0-1.97,0.24-3.93,0.64-5.41
	C252.01,222.13,252.51,221.15,252.51,221.15z"/>
<path class="ArmTrim fill" d="M407.1,267.38c-0.89,12.24,2.16,18.6,2.16,18.6c47.3,13.11,91.22-17.6,91.22-17.6
	c-0.07-6.45-0.25-12.69-0.52-18.72c0,0-45.27,22.28-91.25,17.6L407.1,267.38z"/>
<path class="ArmTrim fill" d="M93.91,267.38c0.89,12.24-2.16,18.6-2.16,18.6c-47.3,13.11-91.22-17.6-91.22-17.6
	c0.07-6.45,0.25-12.69,0.52-18.72c0,0,45.27,22.28,91.25,17.6L93.91,267.38z"/>
<g>
	<path class="st1" d="M94.04,272.31c-60.56,3-93.18-18.54-93.18-18.54"/>
	<path class="st1" d="M500.22,253.77c0,0-32.62,21.54-93.18,18.54"/>
</g>
<g id="FBodyLogos"></g>
<path class="st5" d="M186.66,40.16c0,0,3.29,48.94,40.84,61.65c0,0,20.38,9.05,27.53,31.78c0,0,0.04-17.63,20.7-32.76
	c0,0,30.65-7.7,38.52-60.67H186.66z"/>
</svg>
