<?xml version="1.0" encoding="utf-8"?>
<!-- Generator: Adobe Illustrator 19.1.0, SVG Export Plug-In . SVG Version: 6.00 Build 0)  -->
<svg version="1.1" id="Layer_1" xmlns="http://www.w3.org/2000/svg" xmlns:xlink="http://www.w3.org/1999/xlink" x="0px" y="0px"
	 viewBox="0 0 501.01 643" style="enable-background:new 0 0 501.01 643;" xml:space="preserve">
<style type="text/css">
	<![CDATA[
	@font-face{font-family:'codaheavy';src:url('/fonts/coda-heavy-webfont.woff') format('woff')}
	text{font-family:Impact,codaheavy,sans-serif}
	.Colour1.fill{stroke:#686868;stroke-miterlimit:10;}
	.Colour2.fill{fill:#84A3C0;}
	.Colour3.fill{fill:#FFFFFF;}
	.ArmTrim.fill{fill:#000000;}
	.Collar.fill{fill:#000000;}
	.st0{fill:#FFFFFF;stroke:#000000;stroke-miterlimit:10;}
	.st1{fill:none;stroke:#5D5D5D;stroke-miterlimit:10;}
	.st2{fill:none;stroke:#5D5D5D;stroke-miterlimit:10;stroke-dasharray:1.0005,1.0005;}
	.st3{fill:none;stroke:#5D5D5D;stroke-miterlimit:10;stroke-dasharray:1;}
	.st4{fill:none;stroke:#000000;stroke-linecap:round;stroke-linejoin:round;}
	.st5{fill:#383838;}
	.st6{fill:#FFFFFF;}
	]]>
</style>
<path class="Colour1 fill" d="M250.5,642.48c-151.65,0.75-157.91-25.84-157.91-25.84c38.04-190.74,1.45-396.2,1.45-396.2
	C67.46,165.77,54.18,90.13,54.18,90.13S70.32,69.9,146.9,50.06c0,0,12.76-2.62,19.14-9.36h168.92c6.38,6.74,19.14,9.36,19.14,9.36
	c76.58,19.85,92.72,40.07,92.72,40.07s-13.28,75.65-39.86,130.32c0,0-36.59,205.46,1.45,396.2
	C408.41,616.65,402.15,643.23,250.5,642.48"/>
<path class="st0" d="M186.71,40.69c0,0,3.29,48.94,40.84,61.65c0,0,20.38,9.05,27.53,31.78c0,0,0.04-17.63,20.7-32.76
	c0,0,30.65-7.7,38.52-60.67H186.71z"/>
<path class="Colour2 fill" d="M434.71,142.9H66.29c1.44,5.33,3.02,10.87,4.72,16.54h358.98C431.7,153.77,433.27,148.23,434.71,142.9z"/>
<path class="Colour2 fill" d="M109.8,438.41c-0.06,5.46-0.16,10.98-0.3,16.54h282c-0.14-5.56-0.24-11.08-0.3-16.54H109.8z"/>
<path class="Colour3 fill" d="M74.25,169.87c5.48,17.05,12.07,34.7,19.79,50.57c0,0,2.27,12.76,5.1,34.87h302.73
	c2.82-22.11,5.1-34.87,5.1-34.87c7.72-15.88,14.32-33.53,19.79-50.57H74.25z"/>
<path class="Colour2 fill" d="M105.67,523.75c-0.49,5.5-1.02,11.01-1.61,16.54h292.88c-0.58-5.53-1.12-11.04-1.61-16.54H105.67z"/>
<path class="Colour2 fill" d="M100.65,267.71c0.61,5.16,1.22,10.67,1.83,16.54h296.03c0.61-5.87,1.23-11.38,1.83-16.54H100.65z"/>
<path class="Colour2 fill" d="M107.92,353.06c0.29,5.4,0.56,10.92,0.79,16.54h283.58c0.24-5.62,0.5-11.14,0.79-16.54H107.92z"/>
<path class="st1" d="M236.99,109.16v131.51h29.28c8.29-84.73-14.39-118.85-29.25-131.87L236.99,109.16z"/>
<path class="st1" d="M96.25,597c14.67,8.05,53.26,19.29,154.26,18.79c103.23-0.51,140.87-8.07,154.79-15.72"/>
<g>
	<g>
		<path class="st1" d="M96.25,603.6c0.14,0.08,0.29,0.16,0.44,0.24"/>
		<path class="st2" d="M97.57,604.3c15.61,7.99,54.83,18.57,152.94,18.09c103.77-0.51,141.26-8.15,155.01-15.84"/>
		<path class="st1" d="M405.95,606.3c0.15-0.08,0.29-0.17,0.43-0.25"/>
	</g>
</g>
<path class="Colour1 fill" d="M54.18,90.13c0,0-52.18,38.95-53.68,178.25c0,0,43.92,30.71,91.22,17.6c0,0,9.27-30.58,2.32-65.53
	C94.04,220.44,70.82,173.26,54.18,90.13z"/>
<path class="Colour1 fill" d="M446.82,90.13c0,0,52.18,38.95,53.68,178.25c0,0-43.92,30.71-91.22,17.6c0,0-9.27-30.58-2.32-65.53
	C406.96,220.44,430.18,173.26,446.82,90.13z"/>
<g>
	<path class="st3" d="M0.86,253.77c0,0,32.62,21.54,93.18,18.54"/>
	<path class="st3" d="M500.22,253.77c0,0-32.62,21.54-93.18,18.54"/>
</g>
<path class="Collar fill" d="M186.19,9.99c0,0-8.51,71.4,39.04,91.37c0,0-35.54,1.5-62.56,25.96C162.66,127.32,140.14,57.92,186.19,9.99z
	 M250.5,0.5c-32.28,0-64.31,9.49-64.31,9.49s-1.23,13.91,0.52,30.71H314.3c0,0,2.82-17.17,0.52-30.71
	C314.82,9.99,282.79,0.5,250.5,0.5 M314.82,9.99c0,0,8.51,71.4-39.04,91.37c0,0,35.54,1.5,62.56,25.96
	C338.34,127.32,360.86,57.92,314.82,9.99z"/>
<path class="st4" d="M315.63,9.99c0,0,1.63,13.64-0.52,30.67 M315.11,40.65c0.14-0.84,2.75-17.48,0.52-30.67 M315.63,9.99
	c0,0-32.03-9.49-64.31-9.49S187,9.99,187,9.99 M187,9.99c-46.05,47.93-23.52,117.34-23.52,117.34
	c27.03-24.47,62.56-25.96,62.56-25.96C178.49,81.39,187,9.99,187,9.99 M315.11,40.65c-2.76,21.93-11.76,49.46-38.52,60.71
	c0,0,35.54,1.5,62.56,25.96c0,0,22.52-69.4-23.52-117.34"/>
<path class="Collar fill" d="M275.78,101.36c0,0-19.87,14.1-20.7,32.76c0,0,9.77,22.26,11.29,42.87c0,0,11.9-49.05,43.44-67.39
	C309.81,109.6,292.61,102.67,275.78,101.36z"/>
<path class="st4" d="M255.08,134.12c0,0,9.77,22.26,11.29,42.87c0,0,11.9-49.05,43.44-67.39c0,0-17.21-6.93-34.04-8.24
	C275.78,101.36,255.91,115.46,255.08,134.12z"/>
<g>
	<ellipse class="st0" cx="275.78" cy="123.7" rx="7.13" ry="7.12"/>
	<g>
		<circle cx="273.48" cy="121.48" r="1.01"/>
		<circle cx="278.07" cy="121.48" r="1.01"/>
		<circle cx="273.48" cy="125.93" r="1.01"/>
		<circle cx="278.07" cy="125.93" r="1.01"/>
	</g>
</g>
<g>
	<ellipse class="st0" cx="259.94" cy="155.63" rx="7.13" ry="7.12"/>
	<g>
		<circle class="st5" cx="257.65" cy="153.41" r="1.01"/>
		<circle cx="262.24" cy="153.41" r="1.01"/>
		<circle class="st5" cx="257.65" cy="157.86" r="1.01"/>
		<circle class="st5" cx="262.24" cy="157.86" r="1.01"/>
	</g>
</g>
<path class="ArmTrim fill" d="M407.1,267.38c-0.89,12.24,2.16,18.6,2.16,18.6c47.3,13.11,91.22-17.6,91.22-17.6
	c-0.07-6.45-0.25-12.69-0.52-18.72c0,0-45.27,22.28-91.25,17.6L407.1,267.38z"/>
<path class="ArmTrim fill" d="M93.91,267.38c0.89,12.24-2.16,18.6-2.16,18.6c-47.3,13.11-91.22-17.6-91.22-17.6
	c0.07-6.45,0.25-12.69,0.52-18.72c0,0,45.27,22.28,91.25,17.6L93.91,267.38z"/>
<g>
	<path class="st3" d="M94.04,272.31c-60.56,3-93.18-18.54-93.18-18.54"/>
	<path class="st3" d="M500.22,253.77c0,0-32.62,21.54-93.18,18.54"/>
</g>
<polygon class="Colour2 fill" points="429.99,159.44 482.94,151 477.25,136.13 434.71,142.9 "/>
<path class="Colour3 fill" d="M426.76,169.87l58.91-10.43c0,0,10.26,33.24,13.55,77.43l-94.64,18.44c0,0-1.33-15.04,2.39-34.87
	C406.96,220.44,422.56,186.68,426.76,169.87z"/>
<path class="Colour2 fill" d="M499.48,240.61l-94.66,18.62l1.1,10.22c0,0,59.55-6.85,94.09-18.27L499.48,240.61z"/>
<path class="Collar fill" d="M225.23,101.36c0,0,53.05,16.48,41.04,139.31h-29.28V108.79"/>
<polygon class="Colour2 fill" points="70.75,159.44 17.81,151 23.5,136.13 66.03,142.9 "/>
<path class="Colour3 fill" d="M73.99,169.87l-58.91-10.43c0,0-10.26,33.24-13.55,77.43l94.64,18.44c0,0,1.33-15.04-2.39-34.87
	C93.78,220.44,78.18,186.68,73.99,169.87z"/>
<path class="Colour2 fill" d="M1.27,240.61l94.66,18.62l-1.1,10.22c0,0-59.55-6.85-94.09-18.27L1.27,240.61z"/>
<path class="st6" d="M252.51,221.15c0,0,0.5,0.98,0.86,2.46c0.4,1.47,0.64,3.44,0.64,5.41c0,1.97-0.24,3.93-0.64,5.41
	c-0.36,1.47-0.86,2.46-0.86,2.46s-0.51-0.98-0.86-2.46c-0.4-1.47-0.64-3.44-0.64-5.41c0-1.97,0.24-3.93,0.64-5.41
	C252.01,222.13,252.51,221.15,252.51,221.15z"/>
<path class="st6" d="M252.51,151c0,0,0.5,0.98,0.86,2.46c0.4,1.47,0.64,3.44,0.64,5.41c0,1.97-0.24,3.93-0.64,5.41
	c-0.36,1.47-0.86,2.46-0.86,2.46s-0.51-0.98-0.86-2.46c-0.4-1.47-0.64-3.44-0.64-5.41c0-1.97,0.24-3.93,0.64-5.41
	C252.01,151.98,252.51,151,252.51,151z"/>
<path class="st6" d="M252.51,187.69c0,0,0.5,0.98,0.86,2.46c0.4,1.47,0.64,3.44,0.64,5.41c0,1.97-0.24,3.93-0.64,5.41
	c-0.36,1.47-0.86,2.46-0.86,2.46s-0.51-0.98-0.86-2.46c-0.4-1.47-0.64-3.44-0.64-5.41c0-1.97,0.24-3.93,0.64-5.41
	C252.01,188.68,252.51,187.69,252.51,187.69z"/>
<g id="FBodyLogos"></g>
</svg>
