<?xml version="1.0" encoding="utf-8"?>
<!-- Generator: Adobe Illustrator 19.1.0, SVG Export Plug-In . SVG Version: 6.00 Build 0)  -->
<svg version="1.1" id="Layer_1" xmlns="http://www.w3.org/2000/svg" xmlns:xlink="http://www.w3.org/1999/xlink" x="0px" y="0px" viewBox="0 0 501.01 643"
	 style="enable-background:new 0 0 501.01 643;" xml:space="preserve">
<style type="text/css">
	<![CDATA[
	@font-face{font-family:'codaheavy';src:url('/fonts/coda-heavy-webfont.woff') format('woff')}
	text{font-family:Impact,codaheavy,sans-serif}
	.Number.fill{fill:#000}
	.NumberOutline.stroke{fill:none;stroke:#777;stroke-width:2.5}
	.Colour1.fill{fill:#252E55;}
	.Colour2.fill{fill:#AF7328;}
	.Colour3.fill{fill:#D5D5D5;stroke:#000000;stroke-miterlimit:10;}
	.ArmTrim.fill{fill:#252E55;}
	.Collar.fill{fill:#252E55;}
	.st0{fill:none;stroke:#000000;stroke-miterlimit:10;}
	.st1{fill:none;stroke:#000000;stroke-linecap:round;stroke-linejoin:round;}
	.st2{fill:none;stroke:#5D5D5D;stroke-miterlimit:10;}
	.st3{fill:none;stroke:#5D5D5D;stroke-miterlimit:10;stroke-dasharray:1.0005,1.0005;}
	.st4{fill:none;stroke:#5D5D5D;stroke-miterlimit:10;stroke-dasharray:1;}
	]]>
</style>
<path class="Colour3 fill" d="M250.5,642.48c-151.65,0.75-157.91-25.84-157.91-25.84c38.04-190.74,1.45-396.2,1.45-396.2
	C67.46,165.77,54.18,90.13,54.18,90.13S70.32,69.9,146.9,50.06c0,0,12.76-2.62,19.14-9.36h168.92c6.38,6.74,19.14,9.36,19.14,9.36
	c76.58,19.85,92.72,40.07,92.72,40.07s-13.28,75.65-39.86,130.32c0,0-36.59,205.47,1.45,396.2
	C408.41,616.65,402.15,643.23,250.5,642.48"/>
<path class="Colour2 fill" d="M0.5,268.38c0,0,43.92,30.71,91.22,17.6c0,0,7.81-25.78,3.71-57.04c2.03,13.03,5.92,40.4,9.15,77.1h291.85
	c3.23-36.7,7.12-64.07,9.15-77.1c-4.1,31.27,3.71,57.04,3.71,57.04c47.3,13.11,91.22-17.6,91.22-17.6
	c-0.4-37.25-4.43-67.31-10.11-91.39H10.61C4.93,201.06,0.9,231.13,0.5,268.38z"/>
<path class="st0" d="M446.82,90.13c0,0,52.18,38.95,53.68,178.25c0,0-43.92,30.71-91.22,17.6c0,0-9.27-30.58-2.32-65.53
	C406.96,220.44,430.18,173.26,446.82,90.13z"/>
<path class="st0" d="M54.18,90.13c0,0-52.18,38.95-53.68,178.25c0,0,43.92,30.71,91.22,17.6c0,0,9.27-30.58,2.32-65.53
	C94.04,220.44,70.82,173.26,54.18,90.13z"/>
<path class="Colour1 fill" d="M446.82,90.13c0,0-16.14-20.22-92.72-40.07c0,0-12.76-2.62-19.14-9.36H166.04
	c-6.38,6.74-19.14,9.36-19.14,9.36C70.32,69.9,54.18,90.13,54.18,90.13s-28,20.91-43.57,86.87h479.78
	C474.83,111.04,446.82,90.13,446.82,90.13z"/>
<path class="st1" d="M490.39,176.99c5.68,24.07,9.71,54.14,10.11,91.39c0,0-43.92,30.71-91.22,17.6c0,0-7.81-25.78-3.71-57.04
	c-2.03,13.03-5.92,40.4-9.15,77.1H104.58c-3.23-36.7-7.12-64.07-9.15-77.1c4.1,31.27-3.71,57.04-3.71,57.04
	c-47.3,13.11-91.22-17.6-91.22-17.6c0.4-37.25,4.43-67.31,10.11-91.39h0 M490.39,176.99c-15.57-65.96-43.57-86.87-43.57-86.87
	s-16.14-20.22-92.72-40.07c0,0-12.76-2.62-19.14-9.36H166.04c-6.38,6.74-19.14,9.36-19.14,9.36C70.32,69.9,54.18,90.13,54.18,90.13
	s-28,20.91-43.57,86.87"/>
<path class="ArmTrim fill" d="M407.13,267.38c-0.89,12.24,2.16,18.6,2.16,18.6c47.3,13.11,91.22-17.6,91.22-17.6
	c-0.07-6.45-0.25-12.69-0.52-18.72c0,0-45.27,22.28-91.25,17.6L407.13,267.38z"/>
<path class="ArmTrim fill" d="M93.94,267.38c0.89,12.24-2.16,18.6-2.16,18.6c-47.3,13.11-91.22-17.6-91.22-17.6
	c0.07-6.45,0.25-12.69,0.52-18.72c0,0,45.27,22.28,91.25,17.6L93.94,267.38z"/>
<path class="st2" d="M96.25,597c14.67,8.05,53.26,19.29,154.26,18.79c103.23-0.51,140.87-8.07,154.79-15.72"/>
<g>
	<g>
		<path class="st2" d="M96.25,603.6c0.14,0.08,0.29,0.16,0.44,0.24"/>
		<path class="st3" d="M97.57,604.3c15.61,7.99,54.83,18.57,152.94,18.09c103.77-0.51,141.26-8.15,155.01-15.84"/>
		<path class="st2" d="M405.95,606.3c0.15-0.08,0.29-0.17,0.43-0.25"/>
	</g>
</g>
<path class="Collar fill" d="M314.81,9.99c0,0-31.9-9.45-64.11-9.49l-0.47,0c-31.01,0.05-61.7,8.8-63.92,9.45l-0.13,0.04
	c-9.22,9.6-15.69,20.06-20.15,30.65l168.94,0.05C330.52,30.08,324.04,19.6,314.81,9.99"/>
<path class="st1" d="M166.84,40.64l168.94,0.05c-4.45-10.61-10.93-21.09-20.17-30.7c0,0-31.9-9.45-64.11-9.49l-0.47,0
	c-31.01,0.05-61.7,8.8-63.92,9.45l-0.13,0.04C177.77,19.59,171.29,30.05,166.84,40.64z"/>
<g>
	<path class="st4" d="M0.82,253.77c0,0,32.62,21.54,93.18,18.54"/>
	<path class="st4" d="M500.18,253.77c0,0-32.62,21.54-93.18,18.54"/>
</g>
<g id="BBodyLogos"></g>
</svg>
