<?xml version="1.0" encoding="utf-8"?>
<!-- Generator: Adobe Illustrator 19.1.0, SVG Export Plug-In . SVG Version: 6.00 Build 0)  -->
<svg version="1.1" id="Layer_1" xmlns="http://www.w3.org/2000/svg" xmlns:xlink="http://www.w3.org/1999/xlink" x="0px" y="0px"
	 viewBox="0 0 501.01 643" style="enable-background:new 0 0 501.01 643;" xml:space="preserve">
<style type="text/css">
	<![CDATA[
	@font-face{font-family:'codaheavy';src:url('/fonts/coda-heavy-webfont.woff') format('woff')}
	text{font-family:Impact,codaheavy,sans-serif}
	.Number.fill{fill:#000}
	.NumberOutline.stroke{fill:none;stroke:#777;stroke-width:2.5}
	.Colour1.fill{fill:#151515;}
	.Colour2.fill{fill:#5EA40A;}
	.Colour3.fill{fill:#2B2A36;}
	.ArmTrim.fill{fill:#BC1D4A;}
	.Collar.fill{fill:#74D102;}
	.st0{fill:none;stroke:#5D5D5D;stroke-miterlimit:10;}
	.st1{fill:none;stroke:#000000;stroke-linecap:round;stroke-linejoin:round;}
	.st2{fill:none;stroke:#5D5D5D;stroke-miterlimit:10;stroke-dasharray:1;}
	.st3{fill:none;stroke:#5D5D5D;stroke-miterlimit:10;stroke-dasharray:1.0004,1.0004;}
	]]>
</style>
<path class="Colour3 fill" d="M250.49,641.86c-151.65,0.75-157.9-25.81-157.9-25.81c38.04-190.55,1.45-395.82,1.45-395.82
	C67.46,165.61,54.18,90.04,54.18,90.04s16.14-20.2,92.71-40.03c0,0,12.76-2.62,19.14-9.35h168.91c6.38,6.73,19.14,9.35,19.14,9.35
	c76.57,19.83,92.71,40.03,92.71,40.03s-13.28,75.57-39.86,130.19c0,0-36.59,205.27,1.45,395.82
	C408.39,616.05,402.14,642.61,250.49,641.86"/>
<g>
	<path class="st0" d="M407.11,267.12c-0.89,12.23,2.16,18.58,2.16,18.58c47.3,13.09,91.21-17.58,91.21-17.58
		c-0.07-6.45-0.25-12.68-0.52-18.7c0,0-45.27,22.26-91.25,17.58L407.11,267.12z"/>
	<path class="st0" d="M93.93,267.12c0.89,12.23-2.16,18.58-2.16,18.58c-47.3,13.09-91.21-17.58-91.21-17.58
		c0.07-6.45,0.25-12.68,0.52-18.7c0,0,45.27,22.26,91.25,17.58L93.93,267.12z"/>
</g>
<path class="Colour3 fill" d="M446.8,90.04c0,0,52.17,38.91,53.68,178.08c0,0-43.92,30.68-91.21,17.58c0,0-9.27-30.55-2.32-65.47
	C406.95,220.23,430.16,173.09,446.8,90.04z"/>
<g>
	<path class="Colour1 fill" d="M54.18,90.04c0,0-52.17,38.91-53.68,178.08c0,0,43.92,30.68,91.21,17.58c0,0,9.27-30.55,2.32-65.47
		C94.04,220.23,70.82,173.09,54.18,90.04z"/>
</g>
<path class="st1" d="M94.05,220.23c-0.11-0.24-0.23-0.48-0.34-0.71 M446.82,90.04c0,0-16.14-20.2-92.71-40.03
	c0,0-12.76-2.62-19.14-9.35H166.05c-6.38,6.73-19.14,9.35-19.14,9.35C70.33,69.84,54.19,90.04,54.19,90.04 M95.43,228.69
	c-0.86-5.51-1.38-8.46-1.38-8.46 M54.19,90.04c0,0,13.17,74.92,39.52,129.48 M406.96,220.23c0.11-0.24,0.23-0.48,0.34-0.71
	 M406.96,220.23c0,0-0.53,2.95-1.38,8.46 M95.43,228.69c6.31,40.5,30.65,219.62-2.83,387.35c0,0,6.26,26.56,157.9,25.81
	c151.65,0.75,157.9-25.81,157.9-25.81c-33.48-167.73-9.14-346.85-2.83-387.35 M407.3,219.52c26.35-54.56,39.52-129.48,39.52-129.48
	 M406.96,220.23c0,0,0.12-0.24,0.34-0.71 M405.57,228.69c-4.1,31.25,3.71,57.01,3.71,57.01c47.3,13.09,91.21-17.58,91.21-17.58
	c-1.5-139.17-53.68-178.08-53.68-178.08 M406.96,220.23c-0.57,2.86-1.02,5.68-1.38,8.46 M54.19,90.04c0,0-52.17,38.91-53.68,178.08
	c0,0,43.92,30.68,91.21,17.58c0,0,7.81-25.76,3.71-57.01 M95.43,228.69c-0.37-2.78-0.82-5.61-1.38-8.46 M93.71,219.52
	c0.22,0.47,0.34,0.71,0.34,0.71"/>
<path class="Collar fill" d="M314.79,9.98c0,0-31.9-9.44-64.11-9.48l-0.47,0c-31,0.05-61.7,8.8-63.92,9.44l-0.13,0.04
	c-9.22,9.59-15.69,20.04-20.14,30.62l168.93,0.05C330.51,30.05,324.03,19.58,314.79,9.98"/>
<path class="st1" d="M166.83,40.6l168.93,0.05c-4.45-10.6-10.93-21.07-20.17-30.67c0,0-31.9-9.44-64.11-9.48l-0.47,0
	c-31,0.05-61.7,8.8-63.92,9.44l-0.13,0.04C177.76,19.57,171.29,30.02,166.83,40.6z"/>
<g>
	<path class="st2" d="M0.82,253.53c0,0,32.62,21.52,93.18,18.52"/>
	<path class="st2" d="M500.16,253.53c0,0-32.62,21.52-93.18,18.52"/>
</g>
<g>
	<path class="Colour1 fill" d="M250.49,40.66l-84.47-0.06c-6.53,6.75-19.13,9.41-19.13,9.41C77.87,66.35,54.18,90.04,54.18,90.04
		c1.8,11.98,3.97,18.65,3.97,18.65s78.53-41.13,139.34-40.1v40.1c0,0-74.03,5.46-69.67,53.9l38.2,475.99c0,0,109.18,8.82,168.93,0
		l38.2-475.99c4.36-48.43-69.67-53.9-69.67-53.9v-40.1c60.81-1.03,139.34,40.1,139.34,40.1s2.18-6.68,3.97-18.65
		c0,0-23.69-23.69-92.71-40.03c0,0-12.6-2.66-19.13-9.41L250.49,40.66"/>
</g>
<path class="Colour3 fill" d="M436.28,135.43c0,0,27.44,0.76,49.74,25.07c0,0-12.64-46.76-39.21-70.46
	C446.8,90.04,440.31,117.73,436.28,135.43z"/>
<g>
	<path class="Colour1 fill" d="M469.38,282.93l-15.5-74.43c-5.87-28.2-29.62-49.23-58.41-51.69c-0.41-0.04-0.83-0.07-1.25-0.1
		c0,0-1.59-31.88-51.84-38.18c0,0,137.09,15.58,143.65,41.98c0,0,15.14,48.76,14.46,107.62
		C500.48,268.12,485.73,278.73,469.38,282.93z"/>
</g>
<path class="Colour2 fill" d="M482,148.18c0,0-43.85-33.91-151.4-34.05l-27.11-5.43c0,0,79.34-24.69,172.49,24.59L482,148.18z"/>
<g>
	<path class="Colour1 fill" d="M392.23,370.45c-10.24,28.39-29.75,102.78-34.24,265.19c5.02-0.81,9.53-1.66,13.6-2.54
		c2.85-97.63,11.28-162.76,19.54-204.59C391.05,408.26,391.47,388.8,392.23,370.45z"/>
</g>
<path class="Colour3 fill" d="M64.8,135.43c0,0-27.44,0.76-49.74,25.07c0,0,12.64-46.76,39.21-70.46
	C54.28,90.04,60.77,117.73,64.8,135.43z"/>
<g>
	<path class="Colour1 fill" d="M31.7,282.93l15.5-74.43c5.87-28.2,29.62-49.23,58.41-51.69c0.41-0.04,0.83-0.07,1.25-0.1
		c0,0,1.59-31.88,51.84-38.18c0,0-137.09,15.58-143.65,41.98c0,0-15.14,48.76-14.46,107.62C0.6,268.12,15.35,278.73,31.7,282.93z"/>
</g>
<path class="Colour2 fill" d="M19.08,148.18c0,0,43.85-33.91,151.4-34.05l27.11-5.43c0,0-79.34-24.69-172.49,24.59L19.08,148.18z"/>
<g>
	<path class="Colour1 fill" d="M108.85,370.45c10.24,28.39,29.75,102.78,34.24,265.19c-5.02-0.81-9.53-1.66-13.6-2.54
		c-2.85-97.63-11.28-162.76-19.54-204.59C110.03,408.26,109.61,388.8,108.85,370.45z"/>
</g>
<path class="st0" d="M96.24,596.42c14.67,8.04,53.26,19.27,154.25,18.77c103.23-0.51,140.86-8.07,154.79-15.7"/>
<g>
	<g>
		<path class="st0" d="M96.24,603.02c0.14,0.08,0.29,0.16,0.44,0.24"/>
		<path class="st3" d="M97.56,603.72c15.61,7.98,54.83,18.56,152.93,18.07c103.77-0.51,141.26-8.14,155-15.82"/>
		<path class="st0" d="M405.93,605.71c0.15-0.08,0.29-0.17,0.43-0.25"/>
	</g>
</g>
<path class="ArmTrim fill" d="M405.09,266.82c1.83,13.67,3.75,18.93,3.75,18.93c47.57,13.11,92.16-17.6,92.16-17.6
	c-0.07-6.45-0.25-12.69-0.53-18.72c0,0-45.53,22.28-91.78,17.6L405.09,266.82z"/>
<path class="ArmTrim fill" d="M95.59,267.16c-1.13,12.25-3.46,18.46-3.46,18.46C48.48,300.3,0,268.16,0,268.16
	c0.07-6.45,0.25-12.69,0.52-18.72c0,0,45.27,22.28,91.25,17.6L95.59,267.16z"/>
<g id="BBodyLogos"></g>
</svg>
