<?xml version="1.0" encoding="utf-8"?>
<!-- Generator: Adobe Illustrator 19.1.0, SVG Export Plug-In . SVG Version: 6.00 Build 0)  -->
<svg version="1.1" id="Layer_1" xmlns="http://www.w3.org/2000/svg" xmlns:xlink="http://www.w3.org/1999/xlink" x="0px" y="0px"
	 viewBox="0 0 501.01 643" style="enable-background:new 0 0 501.01 643;" xml:space="preserve">
<style type="text/css">
	<![CDATA[
	@font-face{font-family:'codaheavy';src:url('/fonts/coda-heavy-webfont.woff') format('woff')}
	text{font-family:Impact,codaheavy,sans-serif}
	.Colour1.fill{fill:#151515;}
	.Colour2.fill{fill:#FFC200;}
	.Colour3.fill{fill:#FFFFFF;stroke:#000000;stroke-miterlimit:10;}
	.ArmTrim.fill{fill:#FFFFFF;stroke:#000000;stroke-miterlimit:10;}
	.Collar.fill{fill:#151515;}
	.st0{fill:#FFFFFF;}
	.st1{fill:none;stroke:#5D5D5D;stroke-miterlimit:10;}
	.st2{fill:none;stroke:#5D5D5D;stroke-miterlimit:10;stroke-dasharray:1.0005,1.0005;}
	.st3{fill:none;stroke:#000000;stroke-linecap:round;stroke-linejoin:round;}
	.st4{fill:none;stroke:#000000;stroke-miterlimit:10;}
	.st5{fill:#5D5D5D;}
	.st6{fill:none;stroke:#5D5D5D;stroke-miterlimit:10;stroke-dasharray:1;}
	]]>
</style>
<path class="Colour3 fill" d="M446.82,90.13c0,0,52.18,38.95,53.68,178.25c0,0-43.92,30.71-91.22,17.6c0,0-9.27-30.58-2.32-65.53
	C406.96,220.44,430.18,173.26,446.82,90.13z"/>
<path class="Colour3 fill" d="M250.5,642.48c-151.65,0.75-157.91-25.84-157.91-25.84c38.04-190.74,1.45-396.2,1.45-396.2
	C67.46,165.77,54.18,90.13,54.18,90.13S70.32,69.9,146.9,50.06c0,0,12.76-2.62,19.14-9.36h168.92c6.38,6.74,19.14,9.36,19.14,9.36
	c76.58,19.85,92.72,40.07,92.72,40.07s-13.28,75.65-39.86,130.32c0,0-36.59,205.46,1.45,396.2
	C408.41,616.65,402.15,643.23,250.5,642.48"/>
<path class="Colour2 fill" d="M302.67,40.69l22.64,49.43c0,0,108.7,81.28,83.94,195.74c0.02,0.07,0.03,0.12,0.03,0.12
	c17.66,4.89,34.86,3.68,49.47,0.23C453.48,67.52,302.67,40.69,302.67,40.69z"/>
<path class="Colour1 fill" d="M313.49,64.32l11.82,25.81c0,0,108.7,81.28,83.94,195.74c0.02,0.07,0.03,0.12,0.03,0.12
	c9.55,2.65,18.95,3.49,27.9,3.17C437.41,124.29,345.48,76.09,313.49,64.32z"/>
<path class="Colour3 fill" d="M54.18,90.13c0,0-52.18,38.95-53.68,178.25c0,0,43.92,30.71,91.22,17.6c0,0,9.27-30.58,2.32-65.53
	C94.04,220.44,70.82,173.26,54.18,90.13z"/>
<path class="Colour1 fill" d="M91.72,285.98c0,0,0.01-0.05,0.03-0.12C66.99,171.4,175.69,90.13,175.69,90.13l22.64-49.43h-32.29
	c-6.38,6.74-19.14,9.36-19.14,9.36C70.32,69.9,54.18,90.13,54.18,90.13S2,129.07,0.5,268.38C0.5,268.38,44.42,299.09,91.72,285.98z"
	/>
<path class="st0" d="M186.71,40.69c0,0,3.29,48.94,40.84,61.65c0,0,20.38,9.05,27.53,31.78c0,0,0.04-17.63,20.7-32.76
	c0,0,30.65-7.7,38.52-60.67H186.71z"/>
<path class="ArmTrim fill" d="M407.13,267.38c-0.89,12.24,2.16,18.6,2.16,18.6c47.3,13.11,91.22-17.6,91.22-17.6
	c-0.07-6.45-0.25-12.69-0.52-18.72c0,0-45.27,22.28-91.25,17.6L407.13,267.38z"/>
<path class="ArmTrim fill" d="M93.94,267.38c0.89,12.24-2.16,18.6-2.16,18.6c-47.3,13.11-91.22-17.6-91.22-17.6
	c0.07-6.45,0.25-12.69,0.52-18.72c0,0,45.27,22.28,91.25,17.6L93.94,267.38z"/>
<path class="st1" d="M236.99,109.16v131.51h29.28c8.29-84.73-14.39-118.85-29.25-131.87L236.99,109.16z"/>
<path class="st1" d="M96.25,597c14.67,8.05,53.26,19.29,154.26,18.79c103.23-0.51,140.87-8.07,154.79-15.72"/>
<g>
	<g>
		<path class="st1" d="M96.25,603.6c0.14,0.08,0.29,0.16,0.44,0.24"/>
		<path class="st2" d="M97.57,604.3c15.61,7.99,54.83,18.57,152.94,18.09c103.77-0.51,141.26-8.15,155.01-15.84"/>
		<path class="st1" d="M405.95,606.3c0.15-0.08,0.29-0.17,0.43-0.25"/>
	</g>
</g>
<path class="Collar fill" d="M186.19,9.99c0,0-8.51,71.4,39.04,91.37c0,0-35.54,1.5-62.56,25.96C162.66,127.32,140.14,57.92,186.19,9.99z
	 M250.5,0.5c-32.28,0-64.31,9.49-64.31,9.49s-1.23,13.91,0.52,30.71H314.3c0,0,2.82-17.17,0.52-30.71
	C314.82,9.99,282.79,0.5,250.5,0.5 M314.82,9.99c0,0,8.51,71.4-39.04,91.37c0,0,35.54,1.5,62.56,25.96
	C338.34,127.32,360.86,57.92,314.82,9.99z"/>
<path class="st3" d="M314.52,9.99c2.24,13.19-0.38,29.82-0.52,30.67 M314.01,40.65c2.14-17.03,0.52-30.67,0.52-30.67 M314.52,9.99
	c0,0-32.03-9.49-64.31-9.49s-64.31,9.49-64.31,9.49 M185.89,9.99c-46.05,47.93-23.52,117.34-23.52,117.34
	c27.03-24.47,62.56-25.96,62.56-25.96C177.38,81.39,185.89,9.99,185.89,9.99 M314.01,40.65c-2.76,21.93-11.76,49.46-38.52,60.71
	c0,0,35.54,1.5,62.56,25.96c0,0,22.52-69.4-23.52-117.34"/>
<path class="Collar fill" d="M275.78,101.36c0,0-19.87,14.1-20.7,32.76c0,0,9.77,22.26,11.29,42.87c0,0,11.9-49.05,43.44-67.39
	C309.81,109.6,292.61,102.67,275.78,101.36z"/>
<path class="st3" d="M255.08,134.12c0,0,9.77,22.26,11.29,42.87c0,0,11.9-49.05,43.44-67.39c0,0-17.21-6.93-34.04-8.24
	C275.78,101.36,255.91,115.46,255.08,134.12z"/>
<g>
	<ellipse class="st4" cx="275.78" cy="123.7" rx="7.13" ry="7.12"/>
	<g>
		<circle cx="273.48" cy="121.48" r="1.01"/>
		<circle cx="278.07" cy="121.48" r="1.01"/>
		<circle cx="273.48" cy="125.93" r="1.01"/>
		<circle cx="278.07" cy="125.93" r="1.01"/>
	</g>
</g>
<g>
	<ellipse class="st4" cx="259.94" cy="155.63" rx="7.13" ry="7.12"/>
	<g>
		<circle class="st5" cx="257.65" cy="153.41" r="1.01"/>
		<circle cx="262.24" cy="153.41" r="1.01"/>
		<circle class="st5" cx="257.65" cy="157.86" r="1.01"/>
		<circle class="st5" cx="262.24" cy="157.86" r="1.01"/>
	</g>
</g>
<g>
	<path class="st6" d="M0.86,253.77c0,0,32.62,21.54,93.18,18.54"/>
	<path class="st6" d="M500.22,253.77c0,0-32.62,21.54-93.18,18.54"/>
</g>
<path class="st1" d="M95.68,597c14.67,8.05,53.26,19.29,154.26,18.79c103.23-0.51,140.87-8.07,154.79-15.72"/>
<g>
	<g>
		<path class="st1" d="M95.68,603.6c0.14,0.08,0.29,0.16,0.44,0.24"/>
		<path class="st2" d="M97,604.3c15.61,7.99,54.83,18.57,152.94,18.09c103.77-0.51,141.26-8.15,155.01-15.84"/>
		<path class="st1" d="M405.39,606.3c0.15-0.08,0.29-0.17,0.43-0.25"/>
	</g>
</g>
<path class="Collar fill" d="M225.23,101.36c0,0,53.05,16.48,41.04,139.31h-29.28V108.79"/>
<path d="M252.51,151c0,0,0.5,0.98,0.86,2.46c0.4,1.47,0.64,3.44,0.64,5.41c0,1.97-0.24,3.93-0.64,5.41
	c-0.36,1.47-0.86,2.46-0.86,2.46s-0.51-0.98-0.86-2.46c-0.4-1.47-0.64-3.44-0.64-5.41c0-1.97,0.24-3.93,0.64-5.41
	C252.01,151.98,252.51,151,252.51,151z"/>
<path d="M252.51,187.69c0,0,0.5,0.98,0.86,2.46c0.4,1.47,0.64,3.44,0.64,5.41c0,1.97-0.24,3.93-0.64,5.41
	c-0.36,1.47-0.86,2.46-0.86,2.46s-0.51-0.98-0.86-2.46c-0.4-1.47-0.64-3.44-0.64-5.41c0-1.97,0.24-3.93,0.64-5.41
	C252.01,188.68,252.51,187.69,252.51,187.69z"/>
<path d="M252.51,221.15c0,0,0.5,0.98,0.86,2.46c0.4,1.47,0.64,3.44,0.64,5.41c0,1.97-0.24,3.93-0.64,5.41
	c-0.36,1.47-0.86,2.46-0.86,2.46s-0.51-0.98-0.86-2.46c-0.4-1.47-0.64-3.44-0.64-5.41c0-1.97,0.24-3.93,0.64-5.41
	C252.01,222.13,252.51,221.15,252.51,221.15z"/>
<path class="Colour1 fill" d="M94.04,220.44c0,0,41.31,126.63,169.2,167.07s129.03,89.72,129.03,89.72s4.61,85.93,16.14,139.41
	c0,0-5.99,25.44-162.15,25.85c0,0,38.78-133.71-136.76-249.02C109.5,393.48,108.48,300.53,94.04,220.44z"/>
<g>
	<path class="Colour2 fill" d="M332.82,348.56l58.76,41.76c0.06-2.11,0.11-4.21,0.18-6.3L332.82,348.56z"/>
	<path class="Colour2 fill" d="M449.76,418.93c0,0.8-0.01,1.59-0.01,2.39l1.13-1.72L449.76,418.93z"/>
</g>
<path class="Colour2 fill" d="M391.25,406.92l-99.45-59.85l99.35,70.61C391.17,414.07,391.2,410.48,391.25,406.92z"/>
<path class="Colour2 fill" d="M391.13,427.33L225.5,326.85l165.77,116.94C391.19,438.25,391.14,432.76,391.13,427.33z"/>
<path class="Colour2 fill" d="M400.87,616c-2.06-7.26-4.78-15.28-7.89-23.96c-1.67-4.3-3.28-8.81-5.24-13.37
	c-0.96-2.29-1.89-4.62-2.92-6.96c-1.05-2.33-2.11-4.7-3.19-7.1c-1.05-2.41-2.23-4.8-3.41-7.22c-1.19-2.42-2.34-4.88-3.6-7.33
	c-2.6-4.86-5.09-9.9-8-14.82c-1.42-2.48-2.85-4.97-4.29-7.49c-1.52-2.47-3.06-4.95-4.6-7.45c-0.77-1.25-1.54-2.5-2.32-3.75
	c-0.82-1.23-1.64-2.46-2.47-3.69c-1.65-2.46-3.31-4.93-4.97-7.42c-1.7-2.46-3.5-4.86-5.26-7.3c-1.79-2.41-3.48-4.91-5.39-7.25
	c-3.78-4.72-7.39-9.57-11.41-14.09l-5.9-6.87c-2.01-2.25-4.1-4.42-6.15-6.63c-2.07-2.18-4.06-4.42-6.18-6.52
	c-2.13-2.09-4.26-4.17-6.38-6.25c-4.15-4.22-8.61-8.06-12.92-11.93c-4.24-3.95-8.79-7.43-13.12-11.01
	c-4.28-3.63-8.81-6.81-13.13-10.04c-2.18-1.58-4.28-3.23-6.46-4.7c-2.19-1.46-4.35-2.91-6.49-4.33c-2.13-1.42-4.23-2.83-6.3-4.21
	c-2.04-1.41-4.21-2.58-6.26-3.85c-4.14-2.47-8.09-4.9-11.95-7.13c-3.93-2.11-7.69-4.12-11.27-6.04c-1.79-0.96-3.53-1.89-5.22-2.79
	c-1.73-0.82-3.42-1.63-5.05-2.4c-3.26-1.55-6.31-3-9.13-4.34c-1.41-0.66-2.75-1.32-4.06-1.91c-1.32-0.55-2.58-1.08-3.77-1.57
	c-9.54-3.98-14.99-6.25-14.99-6.25s5.19,2.8,14.27,7.69c1.13,0.61,2.33,1.25,3.58,1.93c1.23,0.71,2.5,1.5,3.83,2.29
	c2.65,1.6,5.52,3.33,8.59,5.18c1.53,0.92,3.11,1.88,4.74,2.86c1.58,1.06,3.2,2.15,4.87,3.26c3.32,2.23,6.82,4.58,10.47,7.03
	c3.57,2.56,7.2,5.34,11,8.14c1.87,1.44,3.86,2.78,5.72,4.36c1.88,1.55,3.79,3.12,5.73,4.71c1.93,1.59,3.89,3.2,5.87,4.83
	c1.97,1.64,3.85,3.45,5.81,5.19c3.87,3.55,7.93,7.03,11.71,10.95c3.82,3.87,7.86,7.63,11.55,11.84c3.76,4.13,7.65,8.21,11.21,12.64
	c1.82,2.18,3.65,4.36,5.48,6.55c1.81,2.2,3.5,4.53,5.25,6.79c1.73,2.29,3.51,4.53,5.2,6.86l4.93,7.06
	c3.38,4.64,6.33,9.58,9.43,14.35c1.58,2.37,2.93,4.89,4.39,7.32c1.42,2.46,2.88,4.87,4.25,7.33c1.32,2.48,2.64,4.95,3.96,7.41
	c0.65,1.23,1.31,2.45,1.96,3.67c0.61,1.24,1.21,2.49,1.82,3.72c1.21,2.47,2.4,4.92,3.59,7.36c1.11,2.47,2.21,4.93,3.3,7.37
	c2.25,4.83,4.09,9.75,6.05,14.48c0.94,2.38,1.78,4.78,2.65,7.12c0.87,2.35,1.74,4.65,2.48,6.97c0.77,2.31,1.53,4.58,2.28,6.82
	c0.73,2.25,1.37,4.48,2.04,6.67c1.38,4.36,2.44,8.64,3.57,12.71c2.04,8.2,3.79,15.73,4.98,22.44c0.69,3.67,1.26,7.08,1.73,10.21
	c18.35-3.79,28.09-8.18,33.24-11.62C402.14,620.44,401.53,618.27,400.87,616z"/>
<path class="Colour2 fill" d="M229.02,642.4c-0.1-4.9-0.35-11.08-0.91-18.2c-0.33-4.5-0.84-9.36-1.43-14.49
	c-0.64-5.12-1.37-10.52-2.34-16.07c-0.91-5.56-2.08-11.26-3.35-17.03c-1.33-5.76-2.79-11.58-4.49-17.33
	c-0.85-2.88-1.7-5.75-2.67-8.58c-0.47-1.42-0.94-2.83-1.41-4.24c-0.51-1.4-1.02-2.79-1.52-4.18c-2.01-5.55-4.25-10.91-6.56-16.03
	c-2.32-5.11-4.76-9.97-7.25-14.47c-1.18-2.29-2.53-4.4-3.75-6.49c-0.63-1.04-1.21-2.07-1.84-3.05c-0.64-0.98-1.27-1.93-1.89-2.87
	c-2.39-3.8-4.9-7.06-7.02-10.02c-2.24-2.87-4.25-5.33-5.91-7.35c-3.49-3.89-5.48-6.11-5.48-6.11s1.9,2.29,5.23,6.31
	c1.57,2.08,3.48,4.61,5.59,7.55c2,3.03,4.36,6.37,6.59,10.23c0.57,0.95,1.16,1.93,1.76,2.92c0.58,1,1.13,2.05,1.71,3.1
	c1.13,2.12,2.38,4.26,3.46,6.58c2.29,4.56,4.51,9.46,6.61,14.6c2.09,5.15,4.09,10.53,5.86,16.09c0.45,1.39,0.89,2.78,1.34,4.18
	c0.41,1.41,0.81,2.82,1.22,4.24c0.85,2.82,1.57,5.7,2.3,8.56c1.45,5.74,2.67,11.53,3.76,17.25c1.03,5.73,1.96,11.39,2.64,16.89
	c0.74,5.49,1.24,10.83,1.68,15.89c0.38,5.06,0.7,9.85,0.84,14.28c0.28,6.94,0.28,12.96,0.19,17.72
	C224.28,642.33,226.63,642.37,229.02,642.4z"/>
<path class="Colour1 fill" d="M201.85,641.66c-0.11-4.77-0.36-10.71-0.9-17.46c-0.33-4.5-0.84-9.36-1.43-14.49
	c-0.64-5.12-1.37-10.52-2.34-16.07c-0.91-5.56-2.08-11.26-3.35-17.03c-1.33-5.76-2.79-11.58-4.49-17.33
	c-0.85-2.88-1.7-5.75-2.67-8.58c-0.47-1.42-0.94-2.83-1.41-4.24c-0.51-1.4-1.02-2.79-1.52-4.18c-2.01-5.55-4.25-10.91-6.56-16.03
	c-2.32-5.11-4.76-9.97-7.25-14.47c-1.18-2.29-2.53-4.4-3.75-6.49c-0.63-1.04-1.21-2.07-1.84-3.05c-0.64-0.98-1.27-1.93-1.89-2.87
	c-2.39-3.8-4.9-7.06-7.02-10.02c-2.24-2.87-4.25-5.33-5.91-7.35c-3.49-3.89-5.48-6.11-5.48-6.11s1.9,2.29,5.23,6.31
	c1.57,2.08,3.48,4.61,5.59,7.55c2,3.03,4.36,6.37,6.59,10.23c0.57,0.95,1.16,1.93,1.76,2.92c0.58,1,1.13,2.05,1.71,3.1
	c1.13,2.12,2.38,4.26,3.46,6.58c2.29,4.56,4.51,9.46,6.61,14.6c2.09,5.15,4.09,10.53,5.86,16.09c0.45,1.39,0.89,2.78,1.34,4.18
	c0.41,1.41,0.81,2.82,1.22,4.24c0.85,2.82,1.57,5.7,2.3,8.56c1.45,5.74,2.67,11.53,3.76,17.25c1.03,5.73,1.96,11.39,2.64,16.89
	c0.74,5.49,1.24,10.83,1.68,15.89c0.38,5.06,0.7,9.85,0.84,14.28c0.26,6.49,0.28,12.17,0.21,16.77
	C197.12,641.45,199.46,641.56,201.85,641.66z"/>
<g id="FBodyLogos"></g>
</svg>
