<?xml version="1.0" encoding="utf-8"?>
<!-- Generator: Adobe Illustrator 19.1.0, SVG Export Plug-In . SVG Version: 6.00 Build 0)  -->
<svg version="1.1" id="Layer_1" xmlns="http://www.w3.org/2000/svg" xmlns:xlink="http://www.w3.org/1999/xlink" x="0px" y="0px"
	 viewBox="0 0 501.01 643" style="enable-background:new 0 0 501.01 643;" xml:space="preserve">
<style type="text/css">
	<![CDATA[
	@font-face{font-family:'codaheavy';src:url('/fonts/coda-heavy-webfont.woff') format('woff')}
	text{font-family:Impact,codaheavy,sans-serif}
	.Colour1.fill{fill:#000000;}
	.Colour2.fill{fill:#000835;}
	.Colour3.fill{fill:#E5E5E5;}
	.Collar.fill{fill:#000000;}
	.ArmTrim.fill{fill:#E5E5E5;stroke:#5D5D5D;stroke-miterlimit:10;}
	.st0{fill:none;stroke:#000000;stroke-linecap:round;stroke-linejoin:round;}
	.st1{fill:none;stroke:#5D5D5D;stroke-miterlimit:10;stroke-dasharray:1;}
	.st2{fill:none;stroke:#5D5D5D;stroke-miterlimit:10;}
	.st3{fill:none;stroke:#5D5D5D;stroke-miterlimit:10;stroke-dasharray:1.0005,1.0005;}
	.st4{fill:#FFFFFF;stroke:#000000;stroke-miterlimit:10;}
	.st5{fill:#383838;}
	.st6{fill:#FFFFFF;}
	]]>
</style>
<path class="Colour1 fill" d="M250.5,642.48c-151.65,0.75-157.91-25.84-157.91-25.84c38.04-190.74,1.45-396.2,1.45-396.2
	C67.46,165.77,54.18,90.13,54.18,90.13S70.32,69.9,146.9,50.06c0,0,12.76-2.62,19.14-9.36h168.92c6.38,6.74,19.14,9.36,19.14,9.36
	c76.58,19.85,92.72,40.07,92.72,40.07s-13.28,75.65-39.86,130.32c0,0-36.59,205.46,1.45,396.2
	C408.41,616.65,402.15,643.23,250.5,642.48"/>
<path class="Colour2 fill" d="M105.28,528.12c-0.71,7.63-1.52,15.29-2.42,22.96h295.29c-0.9-7.68-1.71-15.34-2.42-22.96H105.28z"/>
<path class="Colour3 fill" d="M106.61,512.38c-0.3,3.9-0.63,7.82-0.97,11.74h289.74c-0.35-3.92-0.67-7.84-0.97-11.74H106.61z"/>
<path class="Colour3 fill" d="M70.29,157.01c1.14,3.86,2.34,7.78,3.6,11.74h353.23c1.26-3.96,2.46-7.88,3.6-11.74H70.29z"/>
<path class="Colour3 fill" d="M92.59,616.65c0,0,6.26,26.59,157.91,25.84c151.65,0.75,157.91-25.84,157.91-25.84
	c-4.07-20.4-7.28-40.97-9.77-61.44H102.37C99.87,575.68,96.66,596.24,92.59,616.65z"/>
<path class="Colour3 fill" d="M446.82,90.13c0,0-16.14-20.22-92.72-40.07c0,0-12.76-2.62-19.14-9.36H166.04
	c-6.38,6.74-19.14,9.36-19.14,9.36C70.32,69.9,54.18,90.13,54.18,90.13s2.58,14.69,7.74,35.8h377.17
	C444.24,104.82,446.82,90.13,446.82,90.13z"/>
<path class="Colour2 fill" d="M431.89,153.01c2.33-8.09,4.39-15.84,6.18-22.96H62.94c1.79,7.13,3.85,14.88,6.18,22.96H431.89z"/>
<path class="Colour1 fill" d="M54.18,90.13c0,0-52.18,38.95-53.68,178.25c0,0,43.92,30.71,91.22,17.6c0,0,9.27-30.58,2.32-65.53
	C94.04,220.44,70.82,173.26,54.18,90.13z"/>
<path class="Colour1 fill" d="M446.82,90.13c0,0,52.18,38.95,53.68,178.25c0,0-43.92,30.71-91.22,17.6c0,0-9.27-30.58-2.32-65.53
	C406.96,220.44,430.18,173.26,446.82,90.13z"/>
<path class="st0" d="M94.04,220.44c-0.12-0.24-0.23-0.48-0.34-0.72 M406.96,220.44c0,0-0.53,2.95-1.38,8.47 M446.82,90.13
	c0,0-16.14-20.22-92.72-40.07c0,0-12.76-2.62-19.14-9.36H166.04c-6.38,6.74-19.14,9.36-19.14,9.36
	C70.32,69.9,54.18,90.13,54.18,90.13 M406.96,220.44c0.12-0.24,0.23-0.48,0.34-0.72 M54.18,90.13c0,0,13.17,74.99,39.52,129.6
	 M95.43,228.91c-0.86-5.52-1.38-8.47-1.38-8.47 M95.43,228.91c6.31,40.54,30.65,219.84-2.83,387.73c0,0,6.26,26.59,157.91,25.84
	c151.65,0.75,157.91-25.84,157.91-25.84c-33.48-167.89-9.14-347.19-2.83-387.73 M407.31,219.73c26.35-54.62,39.52-129.6,39.52-129.6
	 M95.43,228.91c-0.37-2.79-0.82-5.61-1.38-8.47 M93.7,219.73c0.22,0.47,0.34,0.72,0.34,0.72 M54.18,90.13
	c0,0-52.18,38.95-53.68,178.25c0,0,43.92,30.71,91.22,17.6c0,0,7.81-25.79,3.71-57.06 M405.58,228.91
	c-4.1,31.28,3.71,57.06,3.71,57.06c47.3,13.11,91.22-17.6,91.22-17.6C499,129.07,446.82,90.13,446.82,90.13 M406.96,220.44
	c-0.57,2.86-1.02,5.68-1.38,8.47 M406.96,220.44c0,0,0.12-0.25,0.34-0.72"/>
<g>
	<path class="st1" d="M0.86,253.77c0,0,32.62,21.54,93.18,18.54"/>
	<path class="st1" d="M500.22,253.77c0,0-32.62,21.54-93.18,18.54"/>
</g>
<path class="st2" d="M236.99,109.16v131.51h29.28c8.29-84.73-14.39-118.85-29.25-131.87L236.99,109.16z"/>
<path class="st2" d="M96.25,597c14.67,8.05,53.26,19.29,154.26,18.79c103.23-0.51,140.87-8.07,154.79-15.72"/>
<g>
	<g>
		<path class="st2" d="M96.25,603.6c0.14,0.08,0.29,0.16,0.44,0.24"/>
		<path class="st3" d="M97.57,604.3c15.61,7.99,54.83,18.57,152.94,18.09c103.77-0.51,141.26-8.15,155.01-15.84"/>
		<path class="st2" d="M405.95,606.3c0.15-0.08,0.29-0.17,0.43-0.25"/>
	</g>
</g>
<path class="Collar fill" d="M186.19,9.99c0,0-8.51,71.4,39.04,91.37c0,0-35.54,1.5-62.56,25.96C162.66,127.32,140.14,57.92,186.19,9.99z
	 M250.5,0.5c-32.28,0-64.31,9.49-64.31,9.49s-1.23,13.91,0.52,30.71H314.3c0,0,2.82-17.17,0.52-30.71
	C314.82,9.99,282.79,0.5,250.5,0.5 M314.82,9.99c0,0,8.51,71.4-39.04,91.37c0,0,35.54,1.5,62.56,25.96
	C338.34,127.32,360.86,57.92,314.82,9.99z"/>
<path class="st0" d="M314.82,9.99c2.24,13.19-0.38,29.82-0.52,30.67 M314.3,40.65c2.14-17.03,0.52-30.67,0.52-30.67 M314.82,9.99
	c0,0-32.03-9.49-64.31-9.49s-64.31,9.49-64.31,9.49 M314.3,40.65c-2.76,21.93-11.76,49.46-38.52,60.71c0,0,35.54,1.5,62.56,25.96
	c0,0,22.52-69.4-23.52-117.34 M186.19,9.99c-46.05,47.93-23.52,117.34-23.52,117.34c27.03-24.47,62.56-25.96,62.56-25.96
	C177.68,81.39,186.19,9.99,186.19,9.99"/>
<path class="Collar fill" d="M275.78,101.36c0,0-19.87,14.1-20.7,32.76c0,0,9.77,22.26,11.29,42.87c0,0,11.9-49.05,43.44-67.39
	C309.81,109.6,292.61,102.67,275.78,101.36z"/>
<path class="st0" d="M255.55,134.12c0,0,9.77,22.26,11.29,42.87c0,0,11.9-49.05,43.44-67.39c0,0-17.21-6.93-34.04-8.24
	C276.24,101.36,256.37,115.46,255.55,134.12z"/>
<g>
	<ellipse class="st4" cx="275.78" cy="123.7" rx="7.13" ry="7.12"/>
	<g>
		<circle cx="273.48" cy="121.48" r="1.01"/>
		<circle cx="278.07" cy="121.48" r="1.01"/>
		<circle cx="273.48" cy="125.93" r="1.01"/>
		<circle cx="278.07" cy="125.93" r="1.01"/>
	</g>
</g>
<g>
	<ellipse class="st4" cx="259.94" cy="155.63" rx="7.13" ry="7.12"/>
	<g>
		<circle class="st5" cx="257.65" cy="153.41" r="1.01"/>
		<circle cx="262.24" cy="153.41" r="1.01"/>
		<circle class="st5" cx="257.65" cy="157.86" r="1.01"/>
		<circle class="st5" cx="262.24" cy="157.86" r="1.01"/>
	</g>
</g>
<path class="Collar fill" d="M225.23,101.36c0,0,53.05,16.48,41.04,139.31h-29.28V108.79"/>
<path class="st0" d="M225.23,101.36l11.76,7.43v131.88h29.28C278.28,117.84,225.23,101.36,225.23,101.36z"/>
<path class="st6" d="M252.51,151c0,0,0.5,0.98,0.86,2.46c0.4,1.47,0.64,3.44,0.64,5.41c0,1.97-0.24,3.93-0.64,5.41
	c-0.36,1.47-0.86,2.46-0.86,2.46s-0.51-0.98-0.86-2.46c-0.4-1.47-0.64-3.44-0.64-5.41c0-1.97,0.24-3.93,0.64-5.41
	C252.01,151.98,252.51,151,252.51,151z"/>
<path class="st6" d="M252.51,187.69c0,0,0.5,0.98,0.86,2.46c0.4,1.47,0.64,3.44,0.64,5.41c0,1.97-0.24,3.93-0.64,5.41
	c-0.36,1.47-0.86,2.46-0.86,2.46s-0.51-0.98-0.86-2.46c-0.4-1.47-0.64-3.44-0.64-5.41c0-1.97,0.24-3.93,0.64-5.41
	C252.01,188.68,252.51,187.69,252.51,187.69z"/>
<path class="st6" d="M252.51,221.15c0,0,0.5,0.98,0.86,2.46c0.4,1.47,0.64,3.44,0.64,5.41c0,1.97-0.24,3.93-0.64,5.41
	c-0.36,1.47-0.86,2.46-0.86,2.46s-0.51-0.98-0.86-2.46c-0.4-1.47-0.64-3.44-0.64-5.41c0-1.97,0.24-3.93,0.64-5.41
	C252.01,222.13,252.51,221.15,252.51,221.15z"/>
<path class="ArmTrim fill" d="M407.1,267.38c-0.89,12.24,2.16,18.6,2.16,18.6c47.3,13.11,91.22-17.6,91.22-17.6
	c-0.07-6.45-0.25-12.69-0.52-18.72c0,0-45.27,22.28-91.25,17.6L407.1,267.38z"/>
<path class="ArmTrim fill" d="M93.91,267.38c0.89,12.24-2.16,18.6-2.16,18.6c-47.3,13.11-91.22-17.6-91.22-17.6
	c0.07-6.45,0.25-12.69,0.52-18.72c0,0,45.27,22.28,91.25,17.6L93.91,267.38z"/>
<g>
	<path class="st1" d="M94.04,272.31c-60.56,3-93.18-18.54-93.18-18.54"/>
	<path class="st1" d="M500.22,253.77c0,0-32.62,21.54-93.18,18.54"/>
</g>
<path class="Colour3 fill" d="M3.25,220.63c-0.21,1.97-0.42,3.96-0.61,5.98l93.93,17.25c-0.05-2.01-0.14-4.06-0.28-6.14L3.25,220.63z"/>
<path class="Colour2 fill" d="M96.62,248.22L2.26,230.89c-0.33,3.91-0.63,7.91-0.87,12.02l94.71,17.39
	C96.4,256.55,96.6,252.5,96.62,248.22z"/>
<path class="Colour3 fill" d="M497.75,220.63c0.21,1.97,0.42,3.96,0.61,5.98l-93.93,17.25c0.05-2.01,0.14-4.06,0.28-6.14L497.75,220.63z"
	/>
<path class="Colour2 fill" d="M404.38,248.22l94.37-17.33c0.33,3.91,0.63,7.91,0.87,12.02l-94.71,17.39
	C404.6,256.55,404.4,252.5,404.38,248.22z"/>
<path class="st4" d="M186.71,40.41c0,0,3.29,48.94,40.84,61.65c0,0,20.38,9.05,27.53,31.78c0,0,0.04-17.63,20.7-32.76
	c0,0,30.65-7.7,38.52-60.67H186.71z"/>
<g id="FBodyLogos"></g>
</svg>
