<?xml version="1.0" encoding="utf-8"?>
<!-- Generator: Adobe Illustrator 19.1.0, SVG Export Plug-In . SVG Version: 6.00 Build 0)  -->
<svg version="1.1" id="Layer_1" xmlns="http://www.w3.org/2000/svg" xmlns:xlink="http://www.w3.org/1999/xlink" x="0px" y="0px"
	 viewBox="0 0 501.01 643" style="enable-background:new 0 0 501.01 643;" xml:space="preserve">
<style type="text/css">
	<![CDATA[
	@font-face{font-family:'codaheavy';src:url('/fonts/coda-heavy-webfont.woff') format('woff')}
	text{font-family:Impact,codaheavy,sans-serif}
	.Colour1.fill{fill:#151515;}
	.Colour2.fill{fill:#74D102;}
	.Colour3.fill{fill:#29292B;}
	.Lines1.stroke{fill:none;stroke:#74D102;stroke-width:2;stroke-miterlimit:10;}
	.ArmTrim.fill{fill:#BC1D4A;}
	.Collar.fill{fill:#151515;}
	.st0{fill:none;stroke:#000000;stroke-linecap:round;stroke-linejoin:round;}
	.st1{fill:#74D102;}
	.st2{fill:#FFFFFF;}
	.st3{fill:none;stroke:#5D5D5D;stroke-miterlimit:10;}
	.st4{fill:none;stroke:#5D5D5D;stroke-miterlimit:10;stroke-dasharray:1.0005,1.0005;}
	.st5{fill:none;stroke:#000000;stroke-miterlimit:10;}
	.st6{fill:#5D5D5D;}
	.st7{fill:none;stroke:#5D5D5D;stroke-miterlimit:10;stroke-dasharray:1;}
	]]>
</style>
<path class="Colour1 fill" d="M250.5,642.48c-151.65,0.75-157.91-25.84-157.91-25.84c38.04-190.74,1.45-396.2,1.45-396.2
	C67.46,165.77,54.18,90.13,54.18,90.13S70.32,69.9,146.9,50.06c0,0,12.76-2.62,19.14-9.36h168.92c6.38,6.74,19.14,9.36,19.14,9.36
	c76.58,19.85,92.72,40.07,92.72,40.07s-13.28,75.65-39.86,130.32c0,0-36.59,205.46,1.45,396.2
	C408.41,616.65,402.15,643.23,250.5,642.48"/>
<path class="Colour3 fill" d="M427.27,166.72c-198.72-69.19-354.02,0-354.02,0s44.51,44.42,63.23,85.92
	c92.34-11.7,174.36-6.53,227.55,0.02C382.74,211.16,427.27,166.72,427.27,166.72z"/>
<path class="Lines1 stroke" d="M427.27,166.72c0,0-60.29,60.17-70.05,105.88v363.78"/>
<path class="Lines1 stroke" d="M73.25,166.72c0,0,60.29,60.17,70.05,105.88v363.78"/>
<path class="Colour1 fill" d="M446.82,90.13c0,0,52.18,38.95,53.68,178.25c0,0-43.92,30.71-91.22,17.6c0,0-9.27-30.58-2.32-65.53
	C406.96,220.44,430.18,173.26,446.82,90.13z"/>
<path class="Colour1 fill" d="M54.18,90.13c0,0-52.18,38.95-53.68,178.25c0,0,43.92,30.71,91.22,17.6c0,0,9.27-30.58,2.32-65.53
	C94.04,220.44,70.82,173.26,54.18,90.13z"/>
<path class="st0" d="M94.85,220.44c-0.12-0.24-0.23-0.48-0.34-0.72 M407.77,220.44c0,0-0.53,2.95-1.38,8.47 M96.24,228.91
	c-0.86-5.52-1.38-8.47-1.38-8.47 M407.77,220.44c0.12-0.24,0.23-0.48,0.34-0.72 M54.99,90.13c0,0,13.17,74.99,39.52,129.6
	 M447.63,90.13c0,0-16.14-20.22-92.72-40.07c0,0-12.76-2.62-19.14-9.36H166.85c-6.38,6.74-19.14,9.36-19.14,9.36
	C71.13,69.9,54.99,90.13,54.99,90.13 M96.24,228.91c6.31,40.54,30.65,219.84-2.83,387.73c0,0,6.26,26.59,157.91,25.84
	c151.65,0.75,157.91-25.84,157.91-25.84c-33.48-167.89-9.14-347.19-2.83-387.73 M408.12,219.73c26.35-54.62,39.52-129.6,39.52-129.6
	 M406.39,228.91c-4.1,31.28,3.71,57.06,3.71,57.06c47.3,13.11,91.22-17.6,91.22-17.6c-1.5-139.31-53.68-178.25-53.68-178.25
	 M407.77,220.44c0,0,0.12-0.25,0.34-0.72 M407.77,220.44c-0.57,2.86-1.02,5.68-1.38,8.47 M54.99,90.13c0,0-52.18,38.95-53.68,178.25
	c0,0,43.92,30.71,91.22,17.6c0,0,7.81-25.79,3.71-57.06 M94.51,219.73c0.22,0.47,0.34,0.72,0.34,0.72 M96.24,228.91
	c-0.37-2.79-0.82-5.61-1.38-8.47"/>
<path class="Lines1 stroke" d="M250.5,81.64h-79.22c-29.79,0-59.35,5.96-86.5,18.18c-0.39,0.18-0.78,0.35-1.17,0.53
	C68.5,107.26,56.86,120,51.27,135.62C38.89,170.25,16.3,237.78,13.8,275.93"/>
<path class="Lines1 stroke" d="M250.5,81.64h79.22c29.79,0,59.35,5.96,86.5,18.18c0.39,0.18,0.78,0.35,1.17,0.53
	c15.11,6.91,26.75,19.66,32.33,35.27c12.38,34.63,34.97,102.16,37.47,140.31"/>
<polygon class="st1" points="33.24,189.68 33.24,189.68 33.24,189.68 "/>
<polygon class="st1" points="467.76,189.68 467.76,189.68 467.76,189.68 "/>
<path class="Colour2 fill" d="M449.73,135.61c-5.57-15.59-17.18-28.33-32.26-35.23c-0.41-0.19-0.82-0.38-1.24-0.56
	c-27.15-12.22-56.72-18.18-86.5-18.18H250.5h-79.22c-29.79,0-59.35,5.96-86.5,18.18c-0.4,0.18-0.8,0.36-1.19,0.54
	c-15.1,6.91-26.72,19.64-32.3,35.25c-3.9,10.91-8.82,25.09-13.8,40.59l-4.24,13.48c26.66-35.65,66.28-59.49,110.37-66.15
	c27.13-4.1,62.32-7.11,106.9-6.95c44.57-0.16,79.77,2.85,106.9,6.95c44.08,6.66,83.7,30.5,110.37,66.15l-3.41-10.89
	C459.09,162.29,453.85,147.13,449.73,135.61z"/>
<path class="st2" d="M186.71,40.69c0,0,3.29,48.94,40.84,61.65c0,0,20.38,9.05,27.53,31.78c0,0,0.04-17.63,20.7-32.76
	c0,0,30.65-7.7,38.52-60.67H186.71z"/>
<g>
	<path class="st3" d="M407.13,267.38c-0.89,12.24,2.16,18.6,2.16,18.6c47.3,13.11,91.22-17.6,91.22-17.6
		c-0.07-6.45-0.25-12.69-0.52-18.72c0,0-45.27,22.28-91.25,17.6L407.13,267.38z"/>
	<path class="st3" d="M93.94,267.38c0.89,12.24-2.16,18.6-2.16,18.6c-47.3,13.11-91.22-17.6-91.22-17.6
		c0.07-6.45,0.25-12.69,0.52-18.72c0,0,45.27,22.28,91.25,17.6L93.94,267.38z"/>
</g>
<path class="st3" d="M236.99,109.16v131.51h29.28c8.29-84.73-14.39-118.85-29.25-131.87L236.99,109.16z"/>
<path class="st3" d="M96.25,597c14.67,8.05,53.26,19.29,154.26,18.79c103.23-0.51,140.87-8.07,154.79-15.72"/>
<g>
	<g>
		<path class="st3" d="M96.25,603.6c0.14,0.08,0.29,0.16,0.44,0.24"/>
		<path class="st4" d="M97.57,604.3c15.61,7.99,54.83,18.57,152.94,18.09c103.77-0.51,141.26-8.15,155.01-15.84"/>
		<path class="st3" d="M405.95,606.3c0.15-0.08,0.29-0.17,0.43-0.25"/>
	</g>
</g>
<path class="Collar fill" d="M186.19,9.99c0,0-8.51,71.4,39.04,91.37c0,0-35.54,1.5-62.56,25.96C162.66,127.32,140.14,57.92,186.19,9.99z
	 M250.5,0.5c-32.28,0-64.31,9.49-64.31,9.49s-1.23,13.91,0.52,30.71H314.3c0,0,2.82-17.17,0.52-30.71
	C314.82,9.99,282.79,0.5,250.5,0.5 M314.82,9.99c0,0,8.51,71.4-39.04,91.37c0,0,35.54,1.5,62.56,25.96
	C338.34,127.32,360.86,57.92,314.82,9.99z"/>
<path class="st0" d="M315.33,9.99c0,0,1.63,13.64-0.52,30.67 M314.81,40.65c0.14-0.87,2.75-17.49,0.52-30.67 M315.33,9.99
	c0,0-32.03-9.49-64.31-9.49S186.7,9.99,186.7,9.99 M314.81,40.65c-2.76,21.93-11.76,49.47-38.52,60.71c0,0,35.54,1.5,62.56,25.96
	c0,0,22.52-69.4-23.52-117.34 M186.7,9.99c-46.05,47.93-23.52,117.34-23.52,117.34c27.03-24.47,62.56-25.96,62.56-25.96
	C178.19,81.39,186.7,9.99,186.7,9.99"/>
<path class="Collar fill" d="M275.78,101.36c0,0-19.87,14.1-20.7,32.76c0,0,9.77,22.26,11.29,42.87c0,0,11.9-49.05,43.44-67.39
	C309.81,109.6,292.61,102.67,275.78,101.36z"/>
<path class="st0" d="M255.55,134.12c0,0,9.77,22.26,11.29,42.87c0,0,11.9-49.05,43.44-67.39c0,0-17.21-6.93-34.04-8.24
	C276.24,101.36,256.37,115.46,255.55,134.12z"/>
<g>
	<ellipse class="st5" cx="275.78" cy="123.7" rx="7.13" ry="7.12"/>
	<g>
		<circle cx="273.48" cy="121.48" r="1.01"/>
		<circle cx="278.07" cy="121.48" r="1.01"/>
		<circle cx="273.48" cy="125.93" r="1.01"/>
		<circle cx="278.07" cy="125.93" r="1.01"/>
	</g>
</g>
<g>
	<ellipse class="st5" cx="259.94" cy="155.63" rx="7.13" ry="7.12"/>
	<g>
		<circle class="st6" cx="257.65" cy="153.41" r="1.01"/>
		<circle cx="262.24" cy="153.41" r="1.01"/>
		<circle class="st6" cx="257.65" cy="157.86" r="1.01"/>
		<circle class="st6" cx="262.24" cy="157.86" r="1.01"/>
	</g>
</g>
<path class="Collar fill" d="M225.23,101.36c0,0,53.05,16.48,41.04,139.31h-29.28V108.79"/>
<path class="st0" d="M225.23,101.36l11.76,7.43v131.88h29.28C278.28,117.84,225.23,101.36,225.23,101.36z"/>
<path d="M252.51,151c0,0,0.5,0.98,0.86,2.46c0.4,1.47,0.64,3.44,0.64,5.41c0,1.97-0.24,3.93-0.64,5.41
	c-0.36,1.47-0.86,2.46-0.86,2.46s-0.51-0.98-0.86-2.46c-0.4-1.47-0.64-3.44-0.64-5.41c0-1.97,0.24-3.93,0.64-5.41
	C252.01,151.98,252.51,151,252.51,151z"/>
<path d="M252.51,187.69c0,0,0.5,0.98,0.86,2.46c0.4,1.47,0.64,3.44,0.64,5.41c0,1.97-0.24,3.93-0.64,5.41
	c-0.36,1.47-0.86,2.46-0.86,2.46s-0.51-0.98-0.86-2.46c-0.4-1.47-0.64-3.44-0.64-5.41c0-1.97,0.24-3.93,0.64-5.41
	C252.01,188.68,252.51,187.69,252.51,187.69z"/>
<path d="M252.51,221.15c0,0,0.5,0.98,0.86,2.46c0.4,1.47,0.64,3.44,0.64,5.41c0,1.97-0.24,3.93-0.64,5.41
	c-0.36,1.47-0.86,2.46-0.86,2.46s-0.51-0.98-0.86-2.46c-0.4-1.47-0.64-3.44-0.64-5.41c0-1.97,0.24-3.93,0.64-5.41
	C252.01,222.13,252.51,221.15,252.51,221.15z"/>
<g>
	<path class="st7" d="M0.86,253.77c0,0,32.62,21.54,93.18,18.54"/>
	<path class="st7" d="M500.22,253.77c0,0-32.62,21.54-93.18,18.54"/>
</g>
<path class="st7" d="M186.71,39.69c0,0,3.29,48.94,40.84,61.65c0,0,20.38,9.05,27.53,31.78c0,0,0.04-17.63,20.7-32.76
	c0,0,30.65-7.7,38.52-60.67H186.71z"/>
<path class="ArmTrim fill" d="M405.09,266.82c1.83,13.67,3.75,18.93,3.75,18.93c47.57,13.11,92.16-17.6,92.16-17.6
	c-0.07-6.45-0.25-12.69-0.53-18.72c0,0-45.53,22.28-91.78,17.6L405.09,266.82z"/>
<path class="ArmTrim fill" d="M95.59,267.16c-1.13,12.25-3.46,18.46-3.46,18.46C48.48,300.3,0,268.16,0,268.16
	c0.07-6.45,0.25-12.69,0.52-18.72c0,0,45.27,22.28,91.25,17.6L95.59,267.16z"/>
<g id="FBodyLogos"></g>
</svg>
