<?xml version="1.0" encoding="utf-8"?>
<!-- Generator: Adobe Illustrator 19.1.0, SVG Export Plug-In . SVG Version: 6.00 Build 0)  -->
<svg version="1.1" id="Layer_1" xmlns="http://www.w3.org/2000/svg" xmlns:xlink="http://www.w3.org/1999/xlink" x="0px" y="0px"
	 viewBox="0 0 501.01 643" style="enable-background:new 0 0 501.01 643;" xml:space="preserve">
<style type="text/css">
	<![CDATA[
	@font-face{font-family:'codaheavy';src:url('/fonts/coda-heavy-webfont.woff') format('woff')}
	text{font-family:Impact,codaheavy,sans-serif}
	.Number.fill{fill:#000}
	.NumberOutline.stroke{fill:none;stroke:#777;stroke-width:2.5}
	.Colour1.fill{fill:#151515;}
	.Colour2.fill{fill:#FFC200;}
	.Colour3.fill{fill:#FFFFFF;stroke:#000000;stroke-miterlimit:10;}
	.ArmTrim.fill{fill:#FFFFFF;stroke:#000000;stroke-miterlimit:10;}
	.Collar.fill{fill:#151515;}
	.st0{fill:none;stroke:#000000;stroke-linecap:round;stroke-linejoin:round;}
	.st1{fill:none;stroke:#5D5D5D;stroke-miterlimit:10;stroke-dasharray:1;}
	.st2{fill:none;stroke:#5D5D5D;stroke-miterlimit:10;}
	.st3{fill:none;stroke:#5D5D5D;stroke-miterlimit:10;stroke-dasharray:1.0003,1.0003;}
	]]>
</style>
<path class="Colour3 fill" d="M250.45,642.48c-151.62,0.75-157.88-25.84-157.88-25.84c38.03-190.74,1.45-396.2,1.45-396.2
	C67.45,165.77,54.17,90.13,54.17,90.13s16.14-20.22,92.7-40.07c0,0,12.76-2.62,19.14-9.36h168.88c6.38,6.74,19.14,9.36,19.14,9.36
	c76.56,19.85,92.7,40.07,92.7,40.07s-13.28,75.65-39.85,130.32c0,0-36.58,205.47,1.45,396.2
	C408.33,616.65,402.07,643.23,250.45,642.48"/>
<path class="Colour3 fill" d="M446.73,90.13c0,0,52.17,38.95,53.67,178.25c0,0-43.91,30.71-91.2,17.6c0,0-9.27-30.58-2.32-65.53
	C406.88,220.44,430.09,173.26,446.73,90.13z"/>
<path class="Colour3 fill" d="M54.17,90.13c0,0-52.17,38.95-53.67,178.25c0,0,43.91,30.71,91.2,17.6c0,0,9.27-30.58,2.32-65.53
	C94.02,220.44,70.81,173.26,54.17,90.13z"/>
<path class="ArmTrim fill" d="M407.04,267.38c-0.89,12.24,2.16,18.6,2.16,18.6c47.29,13.11,91.2-17.6,91.2-17.6
	c-0.07-6.45-0.25-12.69-0.52-18.72c0,0-45.26,22.28-91.24,17.6L407.04,267.38z"/>
<path class="ArmTrim fill" d="M93.92,267.38c0.89,12.24-2.16,18.6-2.16,18.6c-47.29,13.11-91.2-17.6-91.2-17.6
	c0.07-6.45,0.25-12.69,0.52-18.72c0,0,45.26,22.28,91.24,17.6L93.92,267.38z"/>
<path class="Collar fill" d="M314.74,9.99c0,0-31.89-9.45-64.1-9.49l-0.47,0c-31,0.05-61.69,8.8-63.91,9.45l-0.13,0.04
	c-9.22,9.6-15.69,20.06-20.14,30.65l168.91,0.05C330.45,30.08,323.98,19.6,314.74,9.99"/>
<path class="st0" d="M165.38,40.64l168.91,0.05c-4.45-10.61-10.93-21.09-20.16-30.7c0,0-31.89-9.45-64.1-9.49l-0.47,0
	c-31,0.05-61.69,8.8-63.91,9.45l-0.13,0.04C176.3,19.59,169.83,30.05,165.38,40.64z"/>
<g>
	<path class="st1" d="M0.82,253.77c0,0,32.62,21.54,93.16,18.54"/>
	<path class="st1" d="M500.08,253.77c0,0-32.62,21.54-93.16,18.54"/>
</g>
<path class="st2" d="M96.23,597c14.67,8.05,53.25,19.29,154.22,18.79c103.21-0.51,140.84-8.07,154.76-15.72"/>
<g>
	<g>
		<path class="st2" d="M96.23,603.6c0.14,0.08,0.29,0.16,0.44,0.24"/>
		<path class="st3" d="M97.55,604.3c15.61,7.99,54.82,18.57,152.91,18.09c103.75-0.51,141.23-8.15,154.98-15.84"/>
		<path class="st2" d="M405.87,606.3c0.15-0.08,0.29-0.17,0.43-0.25"/>
	</g>
</g>
<path class="Colour1 fill" d="M406.98,220.44c0,0-41.3,126.63-169.16,167.07s-129,89.72-129,89.72s-4.61,85.93-16.14,139.41
	c0,0,5.99,25.44,162.11,25.85c0,0-38.78-133.71,136.74-249.02C391.53,393.48,392.54,300.53,406.98,220.44z"/>
<g>
	<path class="Colour2 fill" d="M168.25,348.56l-58.75,41.76c-0.06-2.11-0.11-4.21-0.18-6.3L168.25,348.56z"/>
	<path class="Colour2 fill" d="M51.34,418.93c0,0.8,0.01,1.59,0.01,2.39l-1.13-1.72L51.34,418.93z"/>
</g>
<path class="Colour2 fill" d="M109.84,406.92l99.43-59.85l-99.33,70.61C109.92,414.07,109.89,410.48,109.84,406.92z"/>
<path class="Colour2 fill" d="M109.96,427.33l165.59-100.47L109.81,443.79C109.9,438.25,109.94,432.76,109.96,427.33z"/>
<path class="Colour2 fill" d="M100.22,616c2.06-7.26,4.78-15.28,7.89-23.96c1.67-4.3,3.28-8.81,5.24-13.37c0.96-2.29,1.89-4.62,2.92-6.96
	c1.05-2.33,2.11-4.7,3.19-7.1c1.05-2.41,2.23-4.8,3.41-7.22c1.19-2.42,2.34-4.88,3.6-7.33c2.6-4.86,5.09-9.9,8-14.82
	c1.42-2.48,2.85-4.97,4.29-7.49c1.52-2.47,3.06-4.95,4.6-7.45c0.77-1.25,1.54-2.5,2.32-3.75c0.82-1.23,1.64-2.46,2.47-3.69
	c1.65-2.46,3.31-4.93,4.97-7.42c1.7-2.46,3.5-4.86,5.26-7.3c1.79-2.41,3.48-4.91,5.39-7.25c3.77-4.72,7.38-9.57,11.41-14.09
	l5.9-6.87c2.01-2.25,4.1-4.42,6.14-6.63c2.07-2.18,4.06-4.42,6.18-6.52c2.13-2.09,4.26-4.17,6.38-6.25
	c4.15-4.22,8.61-8.06,12.92-11.93c4.24-3.95,8.79-7.43,13.12-11.01c4.28-3.63,8.81-6.81,13.13-10.04c2.18-1.58,4.28-3.23,6.46-4.7
	c2.19-1.46,4.35-2.91,6.48-4.33c2.13-1.42,4.23-2.83,6.3-4.21c2.04-1.41,4.21-2.58,6.25-3.85c4.14-2.47,8.09-4.9,11.95-7.13
	c3.93-2.11,7.69-4.12,11.26-6.04c1.79-0.96,3.53-1.89,5.22-2.79c1.73-0.82,3.42-1.63,5.05-2.4c3.26-1.55,6.31-3,9.13-4.34
	c1.41-0.66,2.75-1.32,4.05-1.91c1.32-0.55,2.58-1.08,3.77-1.57c9.53-3.98,14.98-6.25,14.98-6.25s-5.19,2.8-14.27,7.69
	c-1.13,0.61-2.33,1.25-3.58,1.93c-1.23,0.71-2.5,1.5-3.83,2.29c-2.65,1.6-5.52,3.33-8.59,5.18c-1.53,0.92-3.11,1.88-4.74,2.86
	c-1.58,1.06-3.2,2.15-4.87,3.26c-3.32,2.23-6.82,4.58-10.46,7.03c-3.57,2.56-7.2,5.34-11,8.14c-1.87,1.44-3.86,2.78-5.72,4.36
	c-1.88,1.55-3.79,3.12-5.73,4.71c-1.93,1.59-3.89,3.2-5.87,4.83c-1.97,1.64-3.85,3.45-5.81,5.19c-3.87,3.55-7.93,7.03-11.71,10.95
	c-3.82,3.87-7.86,7.63-11.55,11.84c-3.76,4.13-7.65,8.21-11.21,12.64c-1.82,2.18-3.65,4.36-5.48,6.55c-1.81,2.2-3.49,4.53-5.25,6.79
	c-1.73,2.29-3.51,4.53-5.2,6.86l-4.93,7.06c-3.38,4.64-6.32,9.58-9.43,14.35c-1.58,2.37-2.93,4.89-4.39,7.32
	c-1.42,2.46-2.88,4.87-4.25,7.33c-1.32,2.48-2.64,4.95-3.96,7.41c-0.65,1.23-1.31,2.45-1.96,3.67c-0.61,1.24-1.21,2.49-1.82,3.72
	c-1.21,2.47-2.4,4.92-3.59,7.36c-1.11,2.47-2.21,4.93-3.3,7.37c-2.25,4.83-4.08,9.75-6.04,14.48c-0.94,2.38-1.78,4.78-2.65,7.12
	c-0.87,2.35-1.74,4.65-2.48,6.97c-0.77,2.31-1.53,4.58-2.28,6.82c-0.73,2.25-1.37,4.48-2.04,6.67c-1.38,4.36-2.44,8.64-3.57,12.71
	c-2.04,8.2-3.79,15.73-4.98,22.44c-0.69,3.67-1.26,7.08-1.73,10.21c-18.35-3.79-28.09-8.18-33.23-11.62
	C98.95,620.44,99.56,618.27,100.22,616z"/>
<path class="Colour2 fill" d="M272.03,642.4c0.1-4.9,0.35-11.08,0.91-18.2c0.33-4.5,0.84-9.36,1.43-14.49
	c0.64-5.12,1.37-10.52,2.34-16.07c0.91-5.56,2.08-11.26,3.35-17.03c1.33-5.76,2.79-11.58,4.49-17.33c0.85-2.88,1.7-5.75,2.67-8.58
	c0.47-1.42,0.94-2.83,1.41-4.24c0.51-1.4,1.02-2.79,1.52-4.18c2.01-5.55,4.25-10.91,6.56-16.03c2.32-5.11,4.76-9.97,7.25-14.47
	c1.18-2.29,2.53-4.4,3.75-6.49c0.63-1.04,1.21-2.07,1.84-3.05c0.64-0.98,1.27-1.93,1.89-2.87c2.39-3.8,4.9-7.06,7.02-10.02
	c2.24-2.87,4.25-5.33,5.9-7.35c3.49-3.89,5.48-6.11,5.48-6.11s-1.9,2.29-5.23,6.31c-1.57,2.08-3.48,4.61-5.59,7.55
	c-2,3.03-4.36,6.37-6.59,10.23c-0.57,0.95-1.16,1.93-1.76,2.92c-0.58,1-1.13,2.05-1.71,3.1c-1.13,2.12-2.38,4.26-3.46,6.58
	c-2.29,4.56-4.51,9.46-6.61,14.6c-2.09,5.15-4.09,10.53-5.86,16.09c-0.45,1.39-0.89,2.78-1.34,4.18c-0.41,1.41-0.81,2.82-1.22,4.24
	c-0.85,2.82-1.57,5.7-2.3,8.56c-1.45,5.74-2.67,11.53-3.75,17.25c-1.03,5.73-1.96,11.39-2.64,16.89
	c-0.74,5.49-1.24,10.83-1.68,15.89c-0.38,5.06-0.7,9.85-0.84,14.28c-0.28,6.94-0.28,12.96-0.19,17.72
	C276.77,642.33,274.42,642.37,272.03,642.4z"/>
<path class="Colour1 fill" d="M299.2,641.66c0.11-4.77,0.36-10.71,0.9-17.46c0.33-4.5,0.84-9.36,1.43-14.49c0.64-5.12,1.37-10.52,2.34-16.07
	c0.91-5.56,2.08-11.26,3.35-17.03c1.33-5.76,2.79-11.58,4.49-17.33c0.85-2.88,1.7-5.75,2.67-8.58c0.47-1.42,0.94-2.83,1.41-4.24
	c0.51-1.4,1.02-2.79,1.52-4.18c2.01-5.55,4.25-10.91,6.56-16.03c2.32-5.11,4.76-9.97,7.25-14.47c1.18-2.29,2.53-4.4,3.75-6.49
	c0.63-1.04,1.21-2.07,1.84-3.05c0.64-0.98,1.27-1.93,1.89-2.87c2.39-3.8,4.9-7.06,7.02-10.02c2.24-2.87,4.25-5.33,5.9-7.35
	c3.49-3.89,5.48-6.11,5.48-6.11s-1.9,2.29-5.23,6.31c-1.57,2.08-3.48,4.61-5.59,7.55c-2,3.03-4.36,6.37-6.59,10.23
	c-0.57,0.95-1.16,1.93-1.76,2.92c-0.58,1-1.13,2.05-1.71,3.1c-1.13,2.12-2.38,4.26-3.46,6.58c-2.29,4.56-4.51,9.46-6.61,14.6
	c-2.09,5.15-4.09,10.53-5.86,16.09c-0.45,1.39-0.89,2.78-1.34,4.18c-0.41,1.41-0.81,2.82-1.22,4.24c-0.85,2.82-1.57,5.7-2.3,8.56
	c-1.45,5.74-2.67,11.53-3.75,17.25c-1.03,5.73-1.96,11.39-2.64,16.89c-0.74,5.49-1.24,10.83-1.68,15.89
	c-0.38,5.06-0.7,9.85-0.84,14.28c-0.26,6.49-0.28,12.17-0.21,16.77C303.93,641.45,301.58,641.56,299.2,641.66z"/>
<path class="Colour2 fill" d="M313.53,64.32l-10.82-23.62H198.39c0,0-150.77,26.83-156.05,245.52c14.61,3.45,31.79,4.66,49.45-0.23
	c0,0,0.01-0.05,0.03-0.12C67.08,171.4,175.76,90.13,175.76,90.13l0,0c7.2-15.72,22.93-25.81,40.26-25.81H313.53z"/>
<path class="Colour1 fill" d="M446.84,90.13c0,0-16.14-20.22-92.7-40.07c0,0-12.76-2.62-19.14-9.36h-32.28l10.82,23.62H187.58
	C155.6,76.09,63.69,124.29,63.91,289.15c8.94,0.31,18.34-0.53,27.89-3.17c0,0,0.01-0.05,0.03-0.12
	c-6.54-30.24-3.77-58.16,3.86-82.88c20.8-67.45,84.13-112.85,154.86-112.85h0c70.73,0,134.06,45.4,154.86,112.85
	c7.62,24.72,10.4,52.64,3.86,82.88c0.02,0.07,0.03,0.12,0.03,0.12c47.29,13.11,91.2-17.6,91.2-17.6
	C499,129.07,446.84,90.13,446.84,90.13z"/>
<g id="BBodyLogos"></g>
</svg>
