<?xml version="1.0" encoding="utf-8"?>
<!-- Generator: Adobe Illustrator 19.1.0, SVG Export Plug-In . SVG Version: 6.00 Build 0)  -->
<svg version="1.1" id="Layer_1" xmlns="http://www.w3.org/2000/svg" xmlns:xlink="http://www.w3.org/1999/xlink" x="0px" y="0px"
	 viewBox="0 0 501.01 643" style="enable-background:new 0 0 501.01 643;" xml:space="preserve">
<style type="text/css">
	<![CDATA[
	@font-face{font-family:'codaheavy';src:url('/fonts/coda-heavy-webfont.woff') format('woff')}
	text{font-family:Impact,codaheavy,sans-serif}
	.Colour1.fill{fill:#4DADE1;}
	.Colour2.fill{fill:#E2DA5F;}
	.Colour3.fill{fill:#FFFFFF;}
	.ArmTrim.fill{fill:#BC1D4A;}
	.Collar.fill{fill:#FFFFFF;}
	.st0{fill:none;stroke:#5D5D5D;stroke-miterlimit:10;}
	.st1{fill:none;stroke:#000000;stroke-linecap:round;stroke-linejoin:round;}
	.st2{fill:none;stroke:#5D5D5D;stroke-miterlimit:10;stroke-dasharray:1.0005,1.0005;}
	.st3{fill:#FFFFFF;stroke:#000000;stroke-miterlimit:10;}
	.st4{fill:#383838;}
	.st5{fill:#FFFFFF;}
	.st6{fill:none;stroke:#5D5D5D;stroke-miterlimit:10;stroke-dasharray:1;}
	]]>
</style>
<path class="Colour3 fill" d="M250.5,642.48c-151.65,0.75-157.91-25.84-157.91-25.84c38.04-190.74,1.45-396.2,1.45-396.2
	C67.46,165.77,54.18,90.13,54.18,90.13S70.32,69.9,146.9,50.06c0,0,12.76-2.62,19.14-9.36h168.92c6.38,6.74,19.14,9.36,19.14,9.36
	c76.58,19.85,92.72,40.07,92.72,40.07s-13.28,75.65-39.86,130.32c0,0-36.59,205.46,1.45,396.2
	C408.41,616.65,402.15,643.23,250.5,642.48"/>
<path class="Colour1 fill" d="M104.15,301.2c-0.38-4.12-0.76-8.11-1.15-11.97h295.01c-0.39,3.86-0.77,7.85-1.15,11.97H104.15z
	 M393.05,492.56h-285.1c-0.08,1.32-0.16,2.65-0.24,3.98H393.3C393.21,495.21,393.13,493.88,393.05,492.56z M108.85,474.58
	c-0.06,1.32-0.12,2.65-0.18,3.98h283.66c-0.06-1.33-0.13-2.66-0.18-3.98H108.85z M109.47,456.6c-0.03,1.32-0.08,2.65-0.12,3.98
	h282.31c-0.04-1.33-0.08-2.66-0.12-3.98H109.47z M101.19,564.48c-0.18,1.33-0.36,2.65-0.54,3.98h299.71
	c-0.18-1.33-0.37-2.65-0.54-3.98H101.19z M102.93,550.48h295.15c-0.15-1.33-0.31-2.65-0.46-3.98H103.39
	C103.24,547.83,103.08,549.16,102.93,550.48z M106.75,510.54c-0.1,1.33-0.21,2.65-0.31,3.98h288.12c-0.11-1.33-0.21-2.66-0.31-3.98
	H106.75z M105.24,528.52c-0.12,1.33-0.25,2.65-0.38,3.98h291.3c-0.13-1.33-0.26-2.66-0.38-3.98H105.24z M98.61,582.47
	c-0.2,1.33-0.42,2.65-0.63,3.98h305.04c-0.21-1.33-0.42-2.65-0.63-3.98H98.61z M407.39,618.43H93.62c0.78,1.01,2.15,2.39,4.49,3.98
	H402.9C405.24,620.82,406.61,619.44,407.39,618.43z M95.63,600.45c-0.24,1.33-0.48,2.65-0.72,3.98h311.18
	c-0.24-1.33-0.48-2.65-0.72-3.98H95.63z M334.96,40.69H166.04c-6.38,6.74-19.14,9.36-19.14,9.36c-1.05,0.27-2.08,0.54-3.1,0.81
	h213.42c-1.03-0.27-2.06-0.54-3.1-0.81C354.11,50.06,341.34,47.43,334.96,40.69z M421.39,73.49c-7.51-3.67-17.07-7.73-29.16-11.97
	H108.78c-12.08,4.24-21.65,8.3-29.16,11.97H421.39z M435.13,141.35c1.11-4.14,2.15-8.15,3.1-11.97H62.77
	c0.95,3.82,1.99,7.83,3.1,11.97H435.13z M98.4,249.66h304.21c2.47-18.6,4.36-29.21,4.36-29.21c10.63-21.86,19.12-47.06,25.5-69.45
	H68.54c6.38,22.39,14.87,47.59,25.5,69.45C94.04,220.44,95.93,231.06,98.4,249.66z M440.81,118.73c1.03-4.4,1.92-8.42,2.69-11.97
	H57.51c0.76,3.55,1.66,7.57,2.69,11.97H440.81z M399.12,278.58c0.46-4.19,0.91-8.17,1.36-11.97H100.52c0.45,3.8,0.9,7.78,1.36,11.97
	H399.12z M54.18,90.13c0,0,0.38,2.15,1.13,5.99h390.38c0.75-3.83,1.13-5.99,1.13-5.99s-1.8-2.25-7.03-5.99H61.22
	C55.98,87.87,54.18,90.13,54.18,90.13z M108.13,357.09c0.2,3.94,0.39,7.92,0.56,11.97h283.62c0.17-4.05,0.36-8.03,0.56-11.97H108.13
	z M109.8,438.61c-0.02,1.32-0.03,2.65-0.05,3.98h281.51c-0.02-1.33-0.04-2.66-0.05-3.98H109.8z M144.01,636.41
	c9.91,1.56,21.73,2.94,35.82,3.98h141.36c14.09-1.05,25.9-2.42,35.82-3.98H144.01z M106.79,334.47c0.26,3.92,0.52,7.91,0.76,11.97
	h285.91c0.24-4.06,0.49-8.05,0.76-11.97H106.79z M109.26,384.67c0.04,1.32,0.08,2.65,0.11,3.98h282.26
	c0.04-1.33,0.07-2.66,0.11-3.98H109.26z M105.08,311.85c0.33,3.89,0.64,7.89,0.95,11.97h288.95c0.31-4.08,0.62-8.08,0.95-11.97
	H105.08z M391.13,420.63H109.87c0,1.33,0.01,2.65,0.01,3.98h281.24C391.12,423.28,391.13,421.96,391.13,420.63z M109.69,402.65
	c0.02,1.33,0.05,2.65,0.07,3.98h281.5c0.02-1.33,0.04-2.66,0.07-3.98H109.69z"/>
<path class="Colour2 fill" d="M72.8,165.27h355.42c-0.47,1.49-0.94,2.99-1.42,4.49H74.22C73.73,168.26,73.26,166.77,72.8,165.27z
	 M95.73,230.88c0.21,1.37,0.43,2.87,0.67,4.49h308.2c0.24-1.63,0.46-3.12,0.67-4.49H95.73z"/>
<g>
	<path class="st0" d="M407.13,267.38c-0.89,12.24,2.16,18.6,2.16,18.6c47.3,13.11,91.22-17.6,91.22-17.6
		c-0.07-6.45-0.25-12.69-0.52-18.72c0,0-45.27,22.28-91.25,17.6L407.13,267.38z"/>
	<path class="st0" d="M93.94,267.38c0.89,12.24-2.16,18.6-2.16,18.6c-47.3,13.11-91.22-17.6-91.22-17.6
		c0.07-6.45,0.25-12.69,0.52-18.72c0,0,45.27,22.28,91.25,17.6L93.94,267.38z"/>
</g>
<path class="st0" d="M236.99,109.16v131.51h29.28c8.29-84.73-14.39-118.85-29.25-131.87L236.99,109.16z"/>
<path class="Colour3 fill" d="M446.82,90.13c0,0,52.18,38.95,53.68,178.25c0,0-43.92,30.71-91.22,17.6c0,0-9.27-30.58-2.32-65.53
	C406.96,220.44,430.18,173.26,446.82,90.13z"/>
<path class="Colour3 fill" d="M54.18,90.13c0,0-52.18,38.95-53.68,178.25c0,0,43.92,30.71,91.22,17.6c0,0,9.27-30.58,2.32-65.53
	C94.04,220.44,70.82,173.26,54.18,90.13z"/>
<g>
	<path class="st1" d="M405.58,227.55c0.86-5.52,1.38-8.47,1.38-8.47"/>
	<path class="st1" d="M95.43,227.55c-0.86-5.52-1.38-8.47-1.38-8.47"/>
	<path class="st1" d="M54.18,88.76c0,0,13.17,74.99,39.52,129.6"/>
	<path class="st1" d="M94.04,219.08c-0.12-0.24-0.23-0.48-0.34-0.72"/>
	<path class="st1" d="M54.18,88.76c0,0,16.14-20.22,92.72-40.07c0,0,12.76-2.62,19.14-9.36h168.92c6.38,6.74,19.14,9.36,19.14,9.36
		c76.58,19.85,92.72,40.07,92.72,40.07"/>
	<path class="st1" d="M95.43,227.55c6.31,40.54,30.65,219.84-2.83,387.73c0,0,6.26,26.59,157.91,25.84
		c151.65,0.75,157.91-25.84,157.91-25.84c-33.48-167.89-9.14-347.19-2.83-387.73"/>
	<path class="st1" d="M407.31,218.36c26.35-54.62,39.52-129.6,39.52-129.6"/>
	<path class="st1" d="M407.31,218.36c-0.11,0.24-0.23,0.48-0.34,0.72"/>
	<path class="st1" d="M405.58,227.55c-4.1,31.28,3.71,57.06,3.71,57.06c47.3,13.11,91.22-17.6,91.22-17.6
		C499,127.7,446.82,88.76,446.82,88.76"/>
	<path class="st1" d="M406.96,219.08c0,0,0.12-0.25,0.34-0.72"/>
	<path class="st1" d="M405.58,227.55c0.37-2.79,0.82-5.61,1.38-8.47"/>
	<path class="st1" d="M446.82,88.76c-15.46,77.24-36.6,123.44-39.52,129.6"/>
	<path class="st1" d="M93.7,218.36c0.22,0.47,0.34,0.72,0.34,0.72"/>
	<path class="st1" d="M54.18,88.76c0,0-52.18,38.95-53.68,178.25c0,0,43.92,30.71,91.22,17.6c0,0,7.81-25.79,3.71-57.06"/>
	<path class="st1" d="M95.43,227.55c-0.37-2.79-0.82-5.61-1.38-8.47"/>
	<path class="st1" d="M93.7,218.36c-2.92-6.17-24.06-52.36-39.52-129.6"/>
</g>
<path class="st0" d="M96.25,597c14.67,8.05,53.26,19.29,154.26,18.79c103.23-0.51,140.87-8.07,154.79-15.72"/>
<g>
	<g>
		<path class="st0" d="M96.25,603.6c0.14,0.08,0.29,0.16,0.44,0.24"/>
		<path class="st2" d="M97.57,604.3c15.61,7.99,54.83,18.57,152.94,18.09c103.77-0.51,141.26-8.15,155.01-15.84"/>
		<path class="st0" d="M405.95,606.3c0.15-0.08,0.29-0.17,0.43-0.25"/>
	</g>
</g>
<path class="Collar fill" d="M186.19,9.99c0,0-8.51,71.4,39.04,91.37c0,0-35.54,1.5-62.56,25.96C162.66,127.32,140.14,57.92,186.19,9.99z
	 M250.5,0.5c-32.28,0-64.31,9.49-64.31,9.49s-1.23,13.91,0.52,30.71H314.3c0,0,2.82-17.17,0.52-30.71
	C314.82,9.99,282.79,0.5,250.5,0.5 M314.82,9.99c0,0,8.51,71.4-39.04,91.37c0,0,35.54,1.5,62.56,25.96
	C338.34,127.32,360.86,57.92,314.82,9.99z"/>
<g>
	<path class="st1" d="M186.46,9.99c-46.05,47.93-23.52,117.34-23.52,117.34c27.03-24.47,62.56-25.96,62.56-25.96
		C177.95,81.39,186.46,9.99,186.46,9.99"/>
	<path class="st1" d="M314.57,40.65c0.14-0.84,2.75-17.48,0.52-30.67"/>
	<path class="st1" d="M186.46,9.99c0,0,32.03-9.49,64.31-9.49s64.31,9.49,64.31,9.49"/>
	<path class="st1" d="M186.46,9.99c0,0-1.23,13.91,0.52,30.71h127.58c0,0,0-0.02,0.01-0.04"/>
	<path class="st1" d="M314.57,40.65c2.14-17.03,0.52-30.67,0.52-30.67"/>
	<path class="st1" d="M314.57,40.65c-2.76,21.93-11.76,49.46-38.52,60.71c0,0,35.54,1.5,62.56,25.96c0,0,22.52-69.4-23.52-117.34"/>
</g>
<path class="Collar fill" d="M275.78,101.36c0,0-19.87,14.1-20.7,32.76c0,0,9.77,22.26,11.29,42.87c0,0,11.9-49.05,43.44-67.39
	C309.81,109.6,292.61,102.67,275.78,101.36z"/>
<path class="st1" d="M255.08,134.12c0,0,9.77,22.26,11.29,42.87c0,0,11.9-49.05,43.44-67.39c0,0-17.21-6.93-34.04-8.24
	C275.78,101.36,255.91,115.46,255.08,134.12z"/>
<g>
	<ellipse class="st3" cx="275.78" cy="123.7" rx="7.13" ry="7.12"/>
	<g>
		<circle cx="273.48" cy="121.48" r="1.01"/>
		<circle cx="278.07" cy="121.48" r="1.01"/>
		<circle cx="273.48" cy="125.93" r="1.01"/>
		<circle cx="278.07" cy="125.93" r="1.01"/>
	</g>
</g>
<g>
	<ellipse class="st3" cx="259.94" cy="155.63" rx="7.13" ry="7.12"/>
	<g>
		<circle class="st4" cx="257.65" cy="153.41" r="1.01"/>
		<circle cx="262.24" cy="153.41" r="1.01"/>
		<circle class="st4" cx="257.65" cy="157.86" r="1.01"/>
		<circle class="st4" cx="262.24" cy="157.86" r="1.01"/>
	</g>
</g>
<path class="Collar fill" d="M225.23,101.36c0,0,53.05,16.48,41.04,139.31h-29.28V108.79"/>
<path class="st1" d="M225.23,101.36l11.76,7.43v131.88h29.28C278.28,117.84,225.23,101.36,225.23,101.36z"/>
<path class="st5" d="M252.51,151c0,0,0.5,0.98,0.86,2.46c0.4,1.47,0.64,3.44,0.64,5.41c0,1.97-0.24,3.93-0.64,5.41
	c-0.36,1.47-0.86,2.46-0.86,2.46s-0.51-0.98-0.86-2.46c-0.4-1.47-0.64-3.44-0.64-5.41c0-1.97,0.24-3.93,0.64-5.41
	C252.01,151.98,252.51,151,252.51,151z"/>
<path class="st5" d="M252.51,187.69c0,0,0.5,0.98,0.86,2.46c0.4,1.47,0.64,3.44,0.64,5.41c0,1.97-0.24,3.93-0.64,5.41
	c-0.36,1.47-0.86,2.46-0.86,2.46s-0.51-0.98-0.86-2.46c-0.4-1.47-0.64-3.44-0.64-5.41c0-1.97,0.24-3.93,0.64-5.41
	C252.01,188.68,252.51,187.69,252.51,187.69z"/>
<path class="st5" d="M252.51,221.15c0,0,0.5,0.98,0.86,2.46c0.4,1.47,0.64,3.44,0.64,5.41c0,1.97-0.24,3.93-0.64,5.41
	c-0.36,1.47-0.86,2.46-0.86,2.46s-0.51-0.98-0.86-2.46c-0.4-1.47-0.64-3.44-0.64-5.41c0-1.97,0.24-3.93,0.64-5.41
	C252.01,222.13,252.51,221.15,252.51,221.15z"/>
<g>
	<path class="st6" d="M0.86,253.77c0,0,32.62,21.54,93.18,18.54"/>
	<path class="st6" d="M500.22,253.77c0,0-32.62,21.54-93.18,18.54"/>
</g>
<path class="st3" d="M186.71,40.41c0,0,3.29,48.94,40.84,61.65c0,0,20.38,9.05,27.53,31.78c0,0,0.04-17.63,20.7-32.76
	c0,0,30.65-7.7,38.52-60.67H186.71z"/>
<path class="ArmTrim fill" d="M405.09,266.82c1.83,13.67,3.75,18.93,3.75,18.93c47.57,13.11,92.16-17.6,92.16-17.6
	c-0.07-6.45-0.25-12.69-0.53-18.72c0,0-45.53,22.28-91.78,17.6L405.09,266.82z"/>
<path class="ArmTrim fill" d="M95.59,267.16c-1.13,12.25-3.46,18.46-3.46,18.46C48.48,300.3,0,268.16,0,268.16
	c0.07-6.45,0.25-12.69,0.52-18.72c0,0,45.27,22.28,91.25,17.6L95.59,267.16z"/>
<g id="FBodyLogos"></g>
</svg>
