<?xml version="1.0" encoding="utf-8"?>
<!-- Generator: Adobe Illustrator 19.1.0, SVG Export Plug-In . SVG Version: 6.00 Build 0)  -->
<svg version="1.1" id="Layer_1" xmlns="http://www.w3.org/2000/svg" xmlns:xlink="http://www.w3.org/1999/xlink" x="0px" y="0px"
	 viewBox="0 0 501.01 643" style="enable-background:new 0 0 501.01 643;" xml:space="preserve">
<style type="text/css">
	<![CDATA[
	@font-face{font-family:'codaheavy';src:url('/fonts/coda-heavy-webfont.woff') format('woff')}
	text{font-family:Impact,codaheavy,sans-serif}
	.Colour1.fill{fill:#0E2030;}
	.Colour2.fill{fill:#839C86;}
	.Colour3.fill{fill:#FFFFFF;stroke:#000000;stroke-miterlimit:10;}
	.ArmTrim.fill{fill:#949F8F;}
	.Collar.fill{fill:#0E2030;}
	.st0{fill:none;stroke:#000000;stroke-linecap:round;stroke-linejoin:round;}
	.st1{fill:none;stroke:#5D5D5D;stroke-miterlimit:10;}
	.st2{fill:none;stroke:#5D5D5D;stroke-miterlimit:10;stroke-dasharray:1.0005,1.0005;}
	.st3{fill:#FFFFFF;stroke:#000000;stroke-miterlimit:10;}
	.st4{fill:#383838;}
	.st5{fill:#FFFFFF;}
	.st6{fill:none;stroke:#5D5D5D;stroke-miterlimit:10;stroke-dasharray:1;}
	]]>
</style>
<path class="Colour3 fill" d="M250.5,642.48c-151.65,0.75-157.91-25.84-157.91-25.84c38.04-190.74,1.45-396.2,1.45-396.2
	C67.46,165.77,54.18,90.13,54.18,90.13S70.32,69.9,146.9,50.06c0,0,12.76-2.62,19.14-9.36h168.92c6.38,6.74,19.14,9.36,19.14,9.36
	c76.58,19.85,92.72,40.07,92.72,40.07s-13.28,75.65-39.86,130.32c0,0-36.59,205.46,1.45,396.2
	C408.41,616.65,402.15,643.23,250.5,642.48"/>
<path class="Colour1 fill" d="M446.82,90.13c0,0-16.14-20.22-92.72-40.07c0,0-12.76-2.62-19.14-9.36H166.04
	c-6.38,6.74-19.14,9.36-19.14,9.36C70.32,69.9,54.18,90.13,54.18,90.13s6.2,35.33,18.61,75.15h355.42
	C440.62,125.45,446.82,90.13,446.82,90.13z"/>
<path class="Colour2 fill" d="M72.8,165.27c5.75,18.45,12.83,37.86,21.25,55.17c0,0,2.66,14.95,5.8,40.49h301.32
	c3.14-25.55,5.8-40.49,5.8-40.49c8.42-17.31,15.5-36.72,21.25-55.17H72.8z"/>
<g>
	<path class="Colour1 fill" d="M99.84,260.94c0.51,4.12,1.02,8.51,1.55,13.16h298.23c0.52-4.66,1.04-9.04,1.55-13.16H99.84z"/>
</g>
<path class="Colour1 fill" d="M446.82,90.13c0,0,52.18,38.95,53.68,178.25c0,0-43.92,30.71-91.22,17.6c0,0-9.27-30.58-2.32-65.53
	C406.96,220.44,430.18,173.26,446.82,90.13z"/>
<path class="Colour1 fill" d="M54.18,90.13c0,0-52.18,38.95-53.68,178.25c0,0,43.92,30.71,91.22,17.6c0,0,9.27-30.58,2.32-65.53
	C94.04,220.44,70.82,173.26,54.18,90.13z"/>
<path class="st0" d="M405.58,228.91c0.86-5.52,1.38-8.47,1.38-8.47 M446.82,90.13c0,0-16.14-20.22-92.72-40.07
	c0,0-12.76-2.62-19.14-9.36H166.04c-6.38,6.74-19.14,9.36-19.14,9.36C70.32,69.9,54.18,90.13,54.18,90.13 M93.7,219.73
	c0.11,0.24,0.23,0.48,0.34,0.72 M54.18,90.13c0,0,13.17,74.99,39.52,129.6 M95.43,228.91c-0.86-5.52-1.38-8.47-1.38-8.47
	 M407.31,219.73c26.35-54.62,39.52-129.6,39.52-129.6 M95.43,228.91c6.31,40.54,30.65,219.84-2.83,387.73
	c0,0,6.26,26.59,157.91,25.84c151.65,0.75,157.91-25.84,157.91-25.84c-33.48-167.89-9.14-347.19-2.83-387.73 M407.31,219.73
	c-0.11,0.24-0.23,0.48-0.34,0.72 M405.58,228.91c-4.1,31.28,3.71,57.06,3.71,57.06c47.3,13.11,91.22-17.6,91.22-17.6
	C499,129.07,446.82,90.13,446.82,90.13 M406.96,220.44c-0.57,2.86-1.02,5.68-1.38,8.47 M406.96,220.44c0,0,0.12-0.25,0.34-0.72
	 M93.7,219.73c0.22,0.47,0.34,0.72,0.34,0.72 M95.43,228.91c-0.37-2.79-0.82-5.61-1.38-8.47 M54.18,90.13
	c0,0-52.18,38.95-53.68,178.25c0,0,43.92,30.71,91.22,17.6c0,0,7.81-25.79,3.71-57.06"/>
<path class="ArmTrim fill" d="M407.13,267.38c-0.89,12.24,2.16,18.6,2.16,18.6c47.3,13.11,91.22-17.6,91.22-17.6
	c-0.07-6.45-0.25-12.69-0.52-18.72c0,0-45.27,22.28-91.25,17.6L407.13,267.38z"/>
<path class="ArmTrim fill" d="M93.94,267.38c0.89,12.24-2.16,18.6-2.16,18.6c-47.3,13.11-91.22-17.6-91.22-17.6
	c0.07-6.45,0.25-12.69,0.52-18.72c0,0,45.27,22.28,91.25,17.6L93.94,267.38z"/>
<path class="st1" d="M236.99,109.16v131.51h29.28c8.29-84.73-14.39-118.85-29.25-131.87L236.99,109.16z"/>
<path class="st1" d="M96.25,597c14.67,8.05,53.26,19.29,154.26,18.79c103.23-0.51,140.87-8.07,154.79-15.72"/>
<g>
	<g>
		<path class="st1" d="M96.25,603.6c0.14,0.08,0.29,0.16,0.44,0.24"/>
		<path class="st2" d="M97.57,604.3c15.61,7.99,54.83,18.57,152.94,18.09c103.77-0.51,141.26-8.15,155.01-15.84"/>
		<path class="st1" d="M405.95,606.3c0.15-0.08,0.29-0.17,0.43-0.25"/>
	</g>
</g>
<path class="Collar fill" d="M186.19,9.99c0,0-8.51,71.4,39.04,91.37c0,0-35.54,1.5-62.56,25.96C162.66,127.32,140.14,57.92,186.19,9.99z
	 M250.5,0.5c-32.28,0-64.31,9.49-64.31,9.49s-1.23,13.91,0.52,30.71H314.3c0,0,2.82-17.17,0.52-30.71
	C314.82,9.99,282.79,0.5,250.5,0.5 M314.82,9.99c0,0,8.51,71.4-39.04,91.37c0,0,35.54,1.5,62.56,25.96
	C338.34,127.32,360.86,57.92,314.82,9.99z"/>
<path class="st0" d="M314.82,9.99c0,0,1.63,13.64-0.52,30.67 M314.82,9.99c0,0-32.03-9.49-64.31-9.49s-64.31,9.49-64.31,9.49
	 M314.3,40.65c0.14-0.84,2.75-17.48,0.52-30.67 M186.19,9.99c-46.05,47.93-23.52,117.34-23.52,117.34
	c27.03-24.47,62.56-25.96,62.56-25.96C177.68,81.39,186.19,9.99,186.19,9.99 M314.3,40.65c-2.76,21.93-11.76,49.46-38.52,60.71
	c0,0,35.54,1.5,62.56,25.96c0,0,22.52-69.4-23.52-117.34"/>
<path class="Collar fill" d="M275.78,101.36c0,0-19.87,14.1-20.7,32.76c0,0,9.77,22.26,11.29,42.87c0,0,11.9-49.05,43.44-67.39
	C309.81,109.6,292.61,102.67,275.78,101.36z"/>
<path class="st0" d="M255.08,134.12c0,0,9.77,22.26,11.29,42.87c0,0,11.9-49.05,43.44-67.39c0,0-17.21-6.93-34.04-8.24
	C275.78,101.36,255.91,115.46,255.08,134.12z"/>
<g>
	<ellipse class="st3" cx="275.78" cy="123.7" rx="7.13" ry="7.12"/>
	<g>
		<circle cx="273.48" cy="121.48" r="1.01"/>
		<circle cx="278.07" cy="121.48" r="1.01"/>
		<circle cx="273.48" cy="125.93" r="1.01"/>
		<circle cx="278.07" cy="125.93" r="1.01"/>
	</g>
</g>
<g>
	<ellipse class="st3" cx="259.94" cy="155.63" rx="7.13" ry="7.12"/>
	<g>
		<circle class="st4" cx="257.65" cy="153.41" r="1.01"/>
		<circle cx="262.24" cy="153.41" r="1.01"/>
		<circle class="st4" cx="257.65" cy="157.86" r="1.01"/>
		<circle class="st4" cx="262.24" cy="157.86" r="1.01"/>
	</g>
</g>
<path class="Collar fill" d="M225.23,101.36c0,0,53.05,16.48,41.04,139.31h-29.28V108.79"/>
<path class="st0" d="M225.23,101.36l11.76,7.43v131.88h29.28C278.28,117.84,225.23,101.36,225.23,101.36z"/>
<path class="st5" d="M252.51,151c0,0,0.5,0.98,0.86,2.46c0.4,1.47,0.64,3.44,0.64,5.41c0,1.97-0.24,3.93-0.64,5.41
	c-0.36,1.47-0.86,2.46-0.86,2.46s-0.51-0.98-0.86-2.46c-0.4-1.47-0.64-3.44-0.64-5.41c0-1.97,0.24-3.93,0.64-5.41
	C252.01,151.98,252.51,151,252.51,151z"/>
<path class="st5" d="M252.51,187.69c0,0,0.5,0.98,0.86,2.46c0.4,1.47,0.64,3.44,0.64,5.41c0,1.97-0.24,3.93-0.64,5.41
	c-0.36,1.47-0.86,2.46-0.86,2.46s-0.51-0.98-0.86-2.46c-0.4-1.47-0.64-3.44-0.64-5.41c0-1.97,0.24-3.93,0.64-5.41
	C252.01,188.68,252.51,187.69,252.51,187.69z"/>
<path class="st5" d="M252.51,221.15c0,0,0.5,0.98,0.86,2.46c0.4,1.47,0.64,3.44,0.64,5.41c0,1.97-0.24,3.93-0.64,5.41
	c-0.36,1.47-0.86,2.46-0.86,2.46s-0.51-0.98-0.86-2.46c-0.4-1.47-0.64-3.44-0.64-5.41c0-1.97,0.24-3.93,0.64-5.41
	C252.01,222.13,252.51,221.15,252.51,221.15z"/>
<g>
	<path class="st6" d="M0.86,253.77c0,0,32.62,21.54,93.18,18.54"/>
	<path class="st6" d="M500.22,253.77c0,0-32.62,21.54-93.18,18.54"/>
</g>
<path class="st5" d="M186.71,40.69c0,0,3.29,48.94,40.84,61.65c0,0,20.38,9.05,27.53,31.78c0,0,0.04-17.63,20.7-32.76
	c0,0,30.65-7.7,38.52-60.67H186.71z"/>
<path class="Colour2 fill" d="M194.72,108.16l-16.7-39.51l-6.01,12.8l11.35,31.66C183.37,113.11,188.07,110.41,194.72,108.16z"/>
<path class="Colour3 fill" d="M179.81,115l-9.3-24.88l-3.13,8.31l7.14,19.73C174.53,118.16,178.74,115.59,179.81,115z"/>
<path class="Colour2 fill" d="M306.33,108.16l16.7-39.51l6.01,12.8l-11.35,31.66C317.68,113.11,312.97,110.41,306.33,108.16z"/>
<path class="Colour3 fill" d="M321.23,115l9.3-24.88l3.13,8.31l-7.14,19.73C326.52,118.16,322.31,115.59,321.23,115z"/>
<path class="Colour1 fill" d="M399.62,563.01L399.62,563.01c-115.76-147.95,0-288.91,0-288.91v0
	C392.49,337.65,384.74,449.3,399.62,563.01z M101.43,563.01L101.43,563.01c115.76-147.95,0-288.91,0-288.91v0
	C108.56,337.65,116.31,449.3,101.43,563.01z"/>
<g id="FBodyLogos"></g>
</svg>
