<?xml version="1.0" encoding="utf-8"?>
<!-- Generator: Adobe Illustrator 19.1.0, SVG Export Plug-In . SVG Version: 6.00 Build 0)  -->
<svg version="1.1" id="Layer_1" xmlns="http://www.w3.org/2000/svg" xmlns:xlink="http://www.w3.org/1999/xlink" x="0px" y="0px"
	 viewBox="0 0 501.01 643" style="enable-background:new 0 0 501.01 643;" xml:space="preserve">
<style type="text/css">
	<![CDATA[
	@font-face{font-family:'codaheavy';src:url('/fonts/coda-heavy-webfont.woff') format('woff')}
	text{font-family:Impact,codaheavy,sans-serif}
	.Number.fill{fill:#000}
	.NumberOutline.stroke{fill:none;stroke:#777;stroke-width:2.5}
	.Colour1.fill{fill:#3B131F;stroke:#000000;stroke-miterlimit:10;}
	.Colour2.fill{fill:#4A0F25;}
	.ArmTrim.fill{fill:#B4A64B;}
	.Collar.fill{fill:#3B131E;}
	.st0{fill:none;stroke:#000000;stroke-linecap:round;stroke-linejoin:round;}
	.st1{fill:none;stroke:#5D5D5D;stroke-miterlimit:10;stroke-dasharray:1;}
	.st2{fill:none;stroke:#5D5D5D;stroke-miterlimit:10;}
	.st3{fill:none;stroke:#5D5D5D;stroke-miterlimit:10;stroke-dasharray:1.0005,1.0005;}
	]]>
</style>
<path class="Colour1 fill" d="M250.5,642.48c-151.65,0.75-157.91-25.84-157.91-25.84c38.04-190.74,1.45-396.2,1.45-396.2
	C67.46,165.77,54.18,90.13,54.18,90.13S70.32,69.9,146.9,50.06c0,0,12.76-2.62,19.14-9.36h168.92c6.38,6.74,19.14,9.36,19.14,9.36
	c76.58,19.85,92.72,40.07,92.72,40.07s-13.28,75.65-39.86,130.32c0,0-36.59,205.47,1.45,396.2
	C408.41,616.65,402.15,643.23,250.5,642.48"/>
<path class="Colour1 fill" d="M446.82,90.13c0,0,52.18,38.95,53.68,178.25c0,0-43.92,30.71-91.22,17.6c0,0-9.27-30.58-2.32-65.53
	C406.96,220.44,430.18,173.26,446.82,90.13z"/>
<path class="Colour1 fill" d="M54.18,90.13c0,0-52.18,38.95-53.68,178.25c0,0,43.92,30.71,91.22,17.6c0,0,9.27-30.58,2.32-65.53
	C94.04,220.44,70.82,173.26,54.18,90.13z"/>
<path class="Colour2 fill" d="M435.86,81.49c5.02,3.2,7.98,5.69,9.53,7.15L250.5,178.66l-2.21-1.02L55.61,88.65
	c1.55-1.46,4.51-3.95,9.53-7.15L250.5,167.1L435.86,81.49z M250.5,141.51L91.57,68.1c-4.75,1.99-8.95,3.91-12.63,5.72l169.36,78.22
	l2.21,1.02l171.56-79.24c-3.68-1.82-7.88-3.73-12.63-5.72L250.5,141.51z M250.5,192.7L56.76,103.22c0.77,3.67,1.71,8.01,2.83,12.86
	l188.71,87.16l2.21,1.02l190.92-88.18c1.11-4.85,2.06-9.19,2.83-12.86L250.5,192.7z M250.5,269.5L81.77,191.57
	c1.79,4.77,3.66,9.5,5.62,14.15l160.91,74.32l2.21,1.02l163.11-75.34c1.96-4.65,3.83-9.38,5.62-14.15L250.5,269.5z M250.5,218.3
	L63.4,131.89c1.07,4.2,2.22,8.61,3.47,13.16l181.42,83.79l2.21,1.02l183.63-84.81c1.25-4.55,2.41-8.96,3.47-13.16L250.5,218.3z
	 M250.5,295.1L94.48,223.04c0.41,2.47,1.09,6.69,1.94,12.45l151.88,70.15l2.21,1.02l154.08-71.17c0.85-5.76,1.53-9.98,1.94-12.45
	L250.5,295.1z M250.5,243.9L71.56,161.25c1.35,4.46,2.79,8.99,4.3,13.54l172.44,79.64l2.21,1.02l174.64-80.66
	c1.51-4.55,2.95-9.08,4.3-13.54L250.5,243.9z M250.5,115.91l-127.74-59c-5.23,1.63-10.08,3.24-14.57,4.82l140.11,64.71l2.21,1.02
	l142.32-65.73c-4.5-1.59-9.35-3.2-14.57-4.82L250.5,115.91z M250.5,525.49l-141.15-65.19c-0.11,3.77-0.24,7.56-0.39,11.37
	l139.33,64.35l2.21,1.02l141.53-65.37c-0.15-3.81-0.28-7.6-0.39-11.37L250.5,525.49z M250.5,602.28L104.62,534.9
	c-0.37,3.67-0.76,7.34-1.17,11.02l144.84,66.9l2.21,1.02l147.05-67.92c-0.41-3.68-0.8-7.35-1.17-11.02L250.5,602.28z M250.5,627.88
	l-148.64-68.65c-0.46,3.63-0.94,7.26-1.44,10.89l147.87,68.3l2.21,1.02l150.08-69.32c-0.51-3.63-0.98-7.26-1.44-10.89L250.5,627.88z
	 M250.5,320.7L98.51,250.5c0.5,3.78,1.02,7.88,1.55,12.27l148.23,68.46l2.21,1.02l150.44-69.48c0.53-4.4,1.05-8.5,1.55-12.27
	L250.5,320.7z M250.5,576.68L106.77,510.3c-0.28,3.7-0.58,7.42-0.9,11.14l142.43,65.78l2.21,1.02l144.63-66.8
	c-0.32-3.72-0.62-7.44-0.9-11.14L250.5,576.68z M274.58,642.36c9.57-0.15,18.48-0.42,26.73-0.79l102.95-47.55
	c-0.6-3.58-1.19-7.16-1.74-10.75L274.58,642.36z M98.49,583.27c-0.56,3.58-1.14,7.17-1.74,10.75l102.95,47.55
	c8.25,0.37,17.16,0.64,26.73,0.79L98.49,583.27z M250.5,551.08l-142.16-65.66c-0.19,3.74-0.41,7.49-0.64,11.26l140.6,64.94
	l2.21,1.02l142.8-65.96c-0.23-3.77-0.45-7.52-0.64-11.26L250.5,551.08z M250.5,499.89l-140.67-64.97c-0.03,3.8-0.08,7.63-0.15,11.49
	l138.61,64.02l2.21,1.02l140.82-65.04c-0.07-3.85-0.12-7.68-0.15-11.49L250.5,499.89z M250.5,346.29L101.77,277.6
	c0.43,3.89,0.85,7.93,1.27,12.14l145.25,67.09l2.21,1.02l147.45-68.1c0.42-4.22,0.85-8.25,1.27-12.14L250.5,346.29z M250.5,397.49
	l-143.95-66.49c0.27,3.9,0.53,7.87,0.78,11.91l140.96,65.11l2.21,1.02l143.17-66.13c0.25-4.05,0.51-8.02,0.78-11.92L250.5,397.49z
	 M250.5,371.89l-146.07-67.46c0.35,3.9,0.69,7.91,1.02,12.03l142.84,65.97l2.21,1.02l145.05-66.99c0.33-4.11,0.67-8.12,1.02-12.02
	L250.5,371.89z M250.5,474.29L109.79,409.3c0.05,3.83,0.07,7.7,0.09,11.59l138.42,63.93l2.21,1.02l140.63-64.95
	c0.01-3.9,0.04-7.76,0.09-11.59L250.5,474.29z M250.5,423.09l-142.36-65.75c0.2,3.89,0.38,7.81,0.55,11.81l139.6,64.48l2.21,1.02
	l141.81-65.5c0.17-4,0.36-7.92,0.55-11.81L250.5,423.09z M250.5,448.69l-141.28-65.25c0.12,3.85,0.22,7.76,0.31,11.7l138.76,64.09
	l2.21,1.02l140.96-65.11c0.09-3.94,0.19-7.85,0.31-11.7L250.5,448.69z"/>
<path class="ArmTrim fill" d="M407.13,267.38c-0.89,12.24,2.16,18.6,2.16,18.6c47.3,13.11,91.22-17.6,91.22-17.6
	c-0.07-6.45-0.25-12.69-0.52-18.72c0,0-45.27,22.28-91.25,17.6L407.13,267.38z"/>
<path class="ArmTrim fill" d="M93.94,267.38c0.89,12.24-2.16,18.6-2.16,18.6c-47.3,13.11-91.22-17.6-91.22-17.6
	c0.07-6.45,0.25-12.69,0.52-18.72c0,0,45.27,22.28,91.25,17.6L93.94,267.38z"/>
<path class="Collar fill" d="M314.81,9.99c0,0-31.9-9.45-64.11-9.49l-0.47,0c-31.01,0.05-61.7,8.8-63.92,9.45l-0.13,0.04
	c-9.22,9.6-15.69,20.06-20.15,30.65l168.94,0.05C330.52,30.08,324.04,19.6,314.81,9.99"/>
<path class="st0" d="M166.03,40.64l168.94,0.05c-4.45-10.61-10.93-21.09-20.17-30.7c0,0-31.9-9.45-64.11-9.49l-0.47,0
	c-31.01,0.05-61.7,8.8-63.92,9.45l-0.13,0.04C176.96,19.59,170.48,30.05,166.03,40.64z"/>
<g>
	<path class="st1" d="M0.82,253.77c0,0,32.62,21.54,93.18,18.54"/>
	<path class="st1" d="M500.18,253.77c0,0-32.62,21.54-93.18,18.54"/>
</g>
<path class="st2" d="M96.25,597c14.67,8.05,53.26,19.29,154.26,18.79c103.23-0.51,140.87-8.07,154.79-15.72"/>
<g>
	<g>
		<path class="st2" d="M96.25,603.6c0.14,0.08,0.29,0.16,0.44,0.24"/>
		<path class="st3" d="M97.57,604.3c15.61,7.99,54.83,18.57,152.94,18.09c103.77-0.51,141.26-8.15,155.01-15.84"/>
		<path class="st2" d="M405.95,606.3c0.15-0.08,0.29-0.17,0.43-0.25"/>
	</g>
</g>
<g id="BBodyLogos"></g>
</svg>
