<?xml version="1.0" encoding="utf-8"?>
<!-- Generator: Adobe Illustrator 19.1.0, SVG Export Plug-In . SVG Version: 6.00 Build 0)  -->
<svg version="1.1" id="Layer_1" xmlns="http://www.w3.org/2000/svg" xmlns:xlink="http://www.w3.org/1999/xlink" x="0px" y="0px"
	 viewBox="0 0 501.01 643" style="enable-background:new 0 0 501.01 643;" xml:space="preserve">
<style type="text/css">
	<![CDATA[
	@font-face{font-family:'codaheavy';src:url('/fonts/coda-heavy-webfont.woff') format('woff')}
	text{font-family:Impact,codaheavy,sans-serif}
	.Number.fill{fill:#000}
	.NumberOutline.stroke{fill:none;stroke:#777;stroke-width:2.5}
	.Colour1.fill{stroke:#686868;stroke-miterlimit:10;}
	.Colour2.fill{fill:#84A3C0;}
	.Colour3.fill{fill:#FFFFFF;}
	.ArmTrim.fill{fill:#000000;}
	.Collar.fill{fill:#000000;}
	.st0{fill:none;stroke:#5D5D5D;stroke-miterlimit:10;}
	.st1{fill:none;stroke:#5D5D5D;stroke-miterlimit:10;stroke-dasharray:1.0005,1.0005;}
	.st2{fill:none;stroke:#000000;stroke-linecap:round;stroke-linejoin:round;}
	.st3{fill:none;stroke:#5D5D5D;stroke-miterlimit:10;stroke-dasharray:1;}
	]]>
</style>
<path class="Colour1 fill" d="M250.5,642.48c-151.65,0.75-157.91-25.84-157.91-25.84c38.04-190.74,1.45-396.2,1.45-396.2
	C67.46,165.77,54.18,90.13,54.18,90.13S70.32,69.9,146.9,50.06c0,0,12.76-2.62,19.14-9.36h168.92c6.38,6.74,19.14,9.36,19.14,9.36
	c76.58,19.85,92.72,40.07,92.72,40.07s-13.28,75.65-39.86,130.32c0,0-36.59,205.47,1.45,396.2
	C408.41,616.65,402.15,643.23,250.5,642.48"/>
<path class="Colour2 fill" d="M434.71,142.9H66.29c1.44,5.33,3.02,10.87,4.72,16.54h358.98C431.7,153.77,433.27,148.23,434.71,142.9z"/>
<path class="Colour2 fill" d="M109.8,438.41c-0.06,5.46-0.16,10.98-0.3,16.54h282c-0.14-5.56-0.24-11.08-0.3-16.54H109.8z"/>
<path class="Colour3 fill" d="M74.25,169.87c5.48,17.05,12.07,34.7,19.79,50.57c0,0,2.27,12.76,5.1,34.87h302.73
	c2.82-22.11,5.1-34.87,5.1-34.87c7.72-15.88,14.32-33.53,19.79-50.57H74.25z"/>
<path class="Colour2 fill" d="M105.67,523.75c-0.49,5.5-1.02,11.01-1.61,16.54h292.88c-0.58-5.53-1.12-11.04-1.61-16.54H105.67z"/>
<path class="Colour2 fill" d="M100.65,267.71c0.61,5.16,1.22,10.67,1.83,16.54h296.03c0.61-5.87,1.23-11.38,1.83-16.54H100.65z"/>
<path class="Colour2 fill" d="M107.92,353.06c0.29,5.4,0.56,10.92,0.79,16.54h283.58c0.24-5.62,0.5-11.14,0.79-16.54H107.92z"/>
<path class="Colour1 fill" d="M446.82,90.13c0,0,52.18,38.95,53.68,178.25c0,0-43.92,30.71-91.22,17.6c0,0-9.27-30.58-2.32-65.53
	C406.96,220.44,430.18,173.26,446.82,90.13z"/>
<path class="Colour1 fill" d="M54.18,90.13c0,0-52.18,38.95-53.68,178.25c0,0,43.92,30.71,91.22,17.6c0,0,9.27-30.58,2.32-65.53
	C94.04,220.44,70.82,173.26,54.18,90.13z"/>
<path class="ArmTrim fill" d="M407.13,267.38c-0.89,12.24,2.16,18.6,2.16,18.6c47.3,13.11,91.22-17.6,91.22-17.6
	c-0.07-6.45-0.25-12.69-0.52-18.72c0,0-45.27,22.28-91.25,17.6L407.13,267.38z"/>
<path class="ArmTrim fill" d="M93.94,267.38c0.89,12.24-2.16,18.6-2.16,18.6c-47.3,13.11-91.22-17.6-91.22-17.6
	c0.07-6.45,0.25-12.69,0.52-18.72c0,0,45.27,22.28,91.25,17.6L93.94,267.38z"/>
<path class="st0" d="M96.25,597c14.67,8.05,53.26,19.29,154.26,18.79c103.23-0.51,140.87-8.07,154.79-15.72"/>
<g>
	<g>
		<path class="st0" d="M96.25,603.6c0.14,0.08,0.29,0.16,0.44,0.24"/>
		<path class="st1" d="M97.57,604.3c15.61,7.99,54.83,18.57,152.94,18.09c103.77-0.51,141.26-8.15,155.01-15.84"/>
		<path class="st0" d="M405.95,606.3c0.15-0.08,0.29-0.17,0.43-0.25"/>
	</g>
</g>
<path class="Collar fill" d="M314.81,9.99c0,0-31.9-9.45-64.11-9.49l-0.47,0c-31.01,0.05-61.7,8.8-63.92,9.45l-0.13,0.04
	c-9.22,9.6-15.69,20.06-20.15,30.65l168.94,0.05C330.52,30.08,324.04,19.6,314.81,9.99"/>
<path class="st2" d="M166.03,40.64l168.94,0.05c-4.45-10.61-10.93-21.09-20.17-30.7c0,0-31.9-9.45-64.11-9.49l-0.47,0
	c-31.01,0.05-61.7,8.8-63.92,9.45l-0.13,0.04C176.96,19.59,170.49,30.05,166.03,40.64z"/>
<g>
	<path class="st3" d="M0.82,253.77c0,0,32.62,21.54,93.18,18.54"/>
	<path class="st3" d="M500.18,253.77c0,0-32.62,21.54-93.18,18.54"/>
</g>
<polygon class="Colour2 fill" points="430.12,159.44 483.07,151 477.38,136.13 434.84,142.9 "/>
<path class="Colour3 fill" d="M426.89,169.87l58.91-10.43c0,0,10.26,33.24,13.55,77.43l-94.64,18.44c0,0-1.33-15.04,2.39-34.87
	C407.09,220.44,422.69,186.68,426.89,169.87z"/>
<path class="Colour2 fill" d="M499.61,240.61l-94.66,18.62l1.1,10.22c0,0,59.55-6.85,94.09-18.27L499.61,240.61z"/>
<polygon class="Colour2 fill" points="70.88,159.44 17.94,151 23.63,136.13 66.16,142.9 "/>
<path class="Colour3 fill" d="M74.12,169.87l-58.91-10.43c0,0-10.26,33.24-13.55,77.43l94.64,18.44c0,0,1.33-15.04-2.39-34.87
	C93.91,220.44,78.31,186.68,74.12,169.87z"/>
<path class="Colour2 fill" d="M1.4,240.61l94.66,18.62l-1.1,10.22c0,0-59.55-6.85-94.09-18.27L1.4,240.61z"/>
<g id="BBodyLogos"></g>
</svg>
