<?xml version="1.0" encoding="utf-8"?>
<!-- Generator: Adobe Illustrator 19.1.0, SVG Export Plug-In . SVG Version: 6.00 Build 0)  -->
<svg version="1.1" id="Layer_1" xmlns="http://www.w3.org/2000/svg" xmlns:xlink="http://www.w3.org/1999/xlink" x="0px" y="0px"
	 viewBox="0 0 501.01 643" style="enable-background:new 0 0 501.01 643;" xml:space="preserve">
<style type="text/css">
	<![CDATA[
	@font-face{font-family:'codaheavy';src:url('/fonts/coda-heavy-webfont.woff') format('woff')}
	text{font-family:Impact,codaheavy,sans-serif}
	.Number.fill{fill:#000}
	.NumberOutline.stroke{fill:none;stroke:#777;stroke-width:2.5}
	.Colour1.fill{fill:#000000;}
	.Colour2.fill{fill:#F9B425;}
	.Collar.fill{fill:#000000;}
	.ArmTrim.fill{fill:#F9B425;}
	.st0{fill:none;stroke:#000000;stroke-linecap:round;stroke-linejoin:round;}
	.st1{fill:none;stroke:#5D5D5D;stroke-miterlimit:10;}
	.st2{fill:none;stroke:#5D5D5D;stroke-miterlimit:10;stroke-dasharray:1.0005,1.0005;}
	.st3{fill:none;stroke:#5D5D5D;stroke-miterlimit:10;stroke-dasharray:1;}
	]]>
</style>
<path class="Colour1 fill" d="M250.5,642.48c-151.65,0.75-157.91-25.84-157.91-25.84c38.04-190.74,1.45-396.2,1.45-396.2
	C67.46,165.77,54.18,90.13,54.18,90.13S70.32,69.9,146.9,50.06c0,0,12.76-2.62,19.14-9.36h168.92c6.38,6.74,19.14,9.36,19.14,9.36
	c76.58,19.85,92.72,40.07,92.72,40.07s-13.28,75.65-39.86,130.32c0,0-36.59,205.47,1.45,396.2
	C408.41,616.65,402.15,643.23,250.5,642.48"/>
<path class="Colour2 fill" d="M107.34,502.24h286.32c1.13,16.75,2.67,33.72,4.71,50.78H102.64C104.68,535.96,106.22,518.98,107.34,502.24
	z M92.59,616.65c0,0,6.26,26.59,157.91,25.84c151.65,0.75,157.91-25.84,157.91-25.84c-1.23-6.17-2.38-12.35-3.46-18.54H96.05
	C94.97,604.29,93.82,610.48,92.59,616.65z M109.75,406.12c0.24,16.36,0.18,33.35-0.29,50.78h282.09
	c-0.46-17.43-0.52-34.42-0.29-50.78H109.75z M59.98,117.76c3.25,14,7.86,31.98,13.85,50.78h353.36c5.98-18.8,10.6-36.78,13.85-50.78
	H59.98z M104.92,310c1.32,15.48,2.51,32.51,3.39,50.78h284.37c0.88-18.27,2.08-35.3,3.39-50.78H104.92z M410.04,213.88H90.96
	c1.01,2.21,2.03,4.41,3.08,6.56c0,0,2.92,16.4,6.25,44.22h300.42c3.33-27.82,6.25-44.22,6.25-44.22
	C408.01,218.29,409.04,216.1,410.04,213.88z"/>
<path class="Colour1 fill" d="M446.82,90.13c0,0,52.18,38.95,53.68,178.25c0,0-43.92,30.71-91.22,17.6c0,0-9.27-30.58-2.32-65.53
	C406.96,220.44,430.18,173.26,446.82,90.13z"/>
<path class="Colour1 fill" d="M54.18,90.13c0,0-52.18,38.95-53.68,178.25c0,0,43.92,30.71,91.22,17.6c0,0,9.27-30.58,2.32-65.53
	C94.04,220.44,70.82,173.26,54.18,90.13z"/>
<path class="st0" d="M94.04,220.44c-0.12-0.24-0.23-0.48-0.34-0.72 M446.82,90.13c0,0-16.14-20.22-92.72-40.07
	c0,0-12.76-2.62-19.14-9.36H166.04c-6.38,6.74-19.14,9.36-19.14,9.36C70.32,69.9,54.18,90.13,54.18,90.13 M406.96,220.44
	c0,0-0.53,2.95-1.38,8.47 M95.43,228.91c-0.86-5.52-1.38-8.47-1.38-8.47 M54.18,90.13c0,0,13.17,74.99,39.52,129.6 M407.31,219.73
	c-0.11,0.24-0.23,0.48-0.34,0.72 M95.43,228.91c6.31,40.54,30.65,219.84-2.83,387.73c0,0,6.26,26.59,157.91,25.84
	c151.65,0.75,157.91-25.84,157.91-25.84c-33.48-167.89-9.14-347.19-2.83-387.73 M407.31,219.73c26.35-54.62,39.52-129.6,39.52-129.6
	 M405.58,228.91c-4.1,31.28,3.71,57.06,3.71,57.06c47.3,13.11,91.22-17.6,91.22-17.6C499,129.07,446.82,90.13,446.82,90.13
	 M406.96,220.44c0,0,0.12-0.25,0.34-0.72 M406.96,220.44c-0.57,2.86-1.02,5.68-1.38,8.47 M93.7,219.73
	c0.22,0.47,0.34,0.72,0.34,0.72 M95.43,228.91c-0.37-2.79-0.82-5.61-1.38-8.47 M54.18,90.13c0,0-52.18,38.95-53.68,178.25
	c0,0,43.92,30.71,91.22,17.6c0,0,7.81-25.79,3.71-57.06"/>
<path class="ArmTrim fill" d="M407.13,267.38c-0.89,12.24,2.16,18.6,2.16,18.6c47.3,13.11,91.22-17.6,91.22-17.6
	c-0.07-6.45-0.25-12.69-0.52-18.72c0,0-45.27,22.28-91.25,17.6L407.13,267.38z"/>
<path class="ArmTrim fill" d="M93.94,267.38c0.89,12.24-2.16,18.6-2.16,18.6c-47.3,13.11-91.22-17.6-91.22-17.6
	c0.07-6.45,0.25-12.69,0.52-18.72c0,0,45.27,22.28,91.25,17.6L93.94,267.38z"/>
<path class="st1" d="M96.25,597c14.67,8.05,53.26,19.29,154.26,18.79c103.23-0.51,140.87-8.07,154.79-15.72"/>
<g>
	<g>
		<path class="st1" d="M96.25,603.6c0.14,0.08,0.29,0.16,0.44,0.24"/>
		<path class="st2" d="M97.57,604.3c15.61,7.99,54.83,18.57,152.94,18.09c103.77-0.51,141.26-8.15,155.01-15.84"/>
		<path class="st1" d="M405.95,606.3c0.15-0.08,0.29-0.17,0.43-0.25"/>
	</g>
</g>
<path class="Collar fill" d="M314.81,9.99c0,0-31.9-9.45-64.11-9.49l-0.47,0c-31.01,0.05-61.7,8.8-63.92,9.45l-0.13,0.04
	c-9.22,9.6-15.69,20.06-20.15,30.65l168.94,0.05C330.52,30.08,324.04,19.6,314.81,9.99"/>
<path class="st0" d="M166.84,40.64l168.94,0.05c-4.45-10.61-10.93-21.09-20.17-30.7c0,0-31.9-9.45-64.11-9.49l-0.47,0
	c-31.01,0.05-61.7,8.8-63.92,9.45l-0.13,0.04C177.77,19.59,171.29,30.05,166.84,40.64z"/>
<g>
	<path class="st3" d="M0.82,253.77c0,0,32.62,21.54,93.18,18.54"/>
	<path class="st3" d="M500.18,253.77c0,0-32.62,21.54-93.18,18.54"/>
</g>
<path class="Colour2 fill" d="M96.49,253.92L1.65,238.76c0.38-5.61,0.86-11.03,1.4-16.26l93.22,14.9
	C96.68,243.23,96.71,248.79,96.49,253.92z M3.8,215.88l91.84,14.68c-0.39-3.31-0.91-6.69-1.59-10.11c0,0-0.46-0.93-1.27-2.71
	L5.46,203.78C4.86,207.69,4.3,211.72,3.8,215.88z M76.05,173.87c-0.69-2.11-1.4-4.28-2.11-6.52l-58.17-9.3
	c-0.6,1.92-1.18,3.89-1.75,5.9L76.05,173.87z M84.28,197.15L8.82,185.08c-0.8,3.86-1.56,7.86-2.28,12l83.01,13.27
	C88.08,206.84,86.29,202.43,84.28,197.15z M78.44,180.98L12.25,170.4c-0.67,2.57-1.32,5.21-1.95,7.93l71.22,11.38
	C80.53,186.97,79.5,184.06,78.44,180.98z"/>
<path class="Colour2 fill" d="M404.73,237.4l93.22-14.9c0.55,5.23,1.02,10.65,1.4,16.26l-94.84,15.16
	C404.3,248.79,404.33,243.23,404.73,237.4z M495.55,203.78l-87.32,13.96c-0.81,1.77-1.27,2.71-1.27,2.71
	c-0.68,3.42-1.2,6.8-1.59,10.11l91.84-14.68C496.7,211.72,496.15,207.69,495.55,203.78z M487,163.95c-0.57-2.01-1.16-3.99-1.75-5.9
	l-58.17,9.3c-0.71,2.24-1.41,4.41-2.11,6.52L487,163.95z M411.45,210.35l83.01-13.27c-0.71-4.14-1.47-8.14-2.28-12l-75.46,12.06
	C414.71,202.43,412.93,206.84,411.45,210.35z M419.48,189.71l71.22-11.38c-0.63-2.72-1.28-5.36-1.95-7.93l-66.19,10.58
	C421.51,184.06,420.48,186.97,419.48,189.71z"/>
<g id="BBodyLogos"></g>
</svg>
