<?xml version="1.0" encoding="utf-8"?>
<!-- Generator: Adobe Illustrator 19.1.0, SVG Export Plug-In . SVG Version: 6.00 Build 0)  -->
<svg version="1.1" id="Layer_1" xmlns="http://www.w3.org/2000/svg" xmlns:xlink="http://www.w3.org/1999/xlink" x="0px" y="0px"
	 viewBox="0 0 501.01 643" style="enable-background:new 0 0 501.01 643;" xml:space="preserve">
<style type="text/css">
	<![CDATA[
	@font-face{font-family:'codaheavy';src:url('/fonts/coda-heavy-webfont.woff') format('woff')}
	text{font-family:Impact,codaheavy,sans-serif}
	.Colour1.fill{fill:#000000;}
	.Colour2.fill{fill:#F9B425;}
	.Collar.fill{fill:#000000;}
	.ArmTrim.fill{fill:#F9B425;}
	.st0{fill:none;stroke:#5D5D5D;stroke-miterlimit:10;stroke-dasharray:1;}
	.st1{fill:none;stroke:#000000;stroke-linecap:round;stroke-linejoin:round;}
	.st2{fill:none;stroke:#5D5D5D;stroke-miterlimit:10;}
	.st3{fill:none;stroke:#5D5D5D;stroke-miterlimit:10;stroke-dasharray:1.0005,1.0005;}
	.st4{fill:#FFFFFF;stroke:#000000;stroke-miterlimit:10;}
	.st5{fill:#383838;}
	.st6{fill:#FFFFFF;}
	]]>
</style>
<g>
	<path class="st0" d="M0.86,253.77c0,0,32.62,21.54,93.18,18.54"/>
	<path class="st0" d="M500.22,253.77c0,0-32.62,21.54-93.18,18.54"/>
</g>
<path class="Colour1 fill" d="M94.04,220.44c6.95,34.95-2.32,65.53-2.32,65.53c-47.3,13.11-91.22-17.6-91.22-17.6
	C2,129.07,54.18,90.13,54.18,90.13C70.82,173.26,94.04,220.44,94.04,220.44z M406.96,220.44c-6.95,34.95,2.32,65.53,2.32,65.53
	c47.3,13.11,91.22-17.6,91.22-17.6C499,129.07,446.82,90.13,446.82,90.13C430.18,173.26,406.96,220.44,406.96,220.44z M250.5,642.48
	c151.65,0.75,157.91-25.84,157.91-25.84c-38.04-190.74-1.45-396.2-1.45-396.2c26.58-54.67,39.86-130.32,39.86-130.32
	s-16.14-20.22-92.72-40.07c0,0-12.76-2.62-19.14-9.36H166.04c-6.38,6.74-19.14,9.36-19.14,9.36C70.32,69.9,54.18,90.13,54.18,90.13
	s13.28,75.65,39.86,130.32c0,0,36.59,205.46-1.45,396.2C92.59,616.65,98.85,643.23,250.5,642.48"/>
<path class="st1" d="M94.04,220.44c0.57,2.86,1.02,5.68,1.38,8.47 M54.18,90.13c15.46,77.24,36.6,123.44,39.52,129.6 M93.7,219.73
	c0.22,0.47,0.34,0.72,0.34,0.72 M54.18,90.13c0,0-52.18,38.95-53.68,178.25c0,0,43.92,30.71,91.22,17.6c0,0,7.81-25.79,3.71-57.06
	 M406.96,220.44c0,0,0.12-0.25,0.34-0.72 M407.31,219.73c2.92-6.17,24.06-52.36,39.52-129.6 M405.58,228.91
	c-4.1,31.28,3.71,57.06,3.71,57.06c47.3,13.11,91.22-17.6,91.22-17.6C499,129.07,446.82,90.13,446.82,90.13 M406.96,220.44
	c-0.57,2.86-1.02,5.68-1.38,8.47 M95.43,228.91c6.31,40.54,30.65,219.84-2.83,387.73c0,0,6.26,26.59,157.91,25.84
	c151.65,0.75,157.91-25.84,157.91-25.84c-33.48-167.89-9.14-347.19-2.83-387.73 M95.43,228.91c-0.86-5.52-1.38-8.47-1.38-8.47
	 M407.31,219.73c-0.11,0.24-0.23,0.48-0.34,0.72 M93.7,219.73c0.11,0.24,0.23,0.48,0.34,0.72 M406.96,220.44
	c0,0-0.53,2.95-1.38,8.47 M446.82,90.13c0,0-16.14-20.22-92.72-40.07c0,0-12.76-2.62-19.14-9.36H166.04
	c-6.38,6.74-19.14,9.36-19.14,9.36C70.32,69.9,54.18,90.13,54.18,90.13"/>
<path class="Colour2 fill" d="M107.34,502.24h286.32c1.13,16.75,2.67,33.72,4.71,50.78H102.64C104.68,535.96,106.22,518.98,107.34,502.24
	z M92.59,616.65c0,0,6.26,26.59,157.91,25.84c151.65,0.75,157.91-25.84,157.91-25.84c-1.23-6.17-2.38-12.35-3.46-18.54H96.05
	C94.97,604.29,93.82,610.48,92.59,616.65z M109.75,406.12c0.24,16.36,0.18,33.35-0.29,50.78h282.09
	c-0.46-17.43-0.52-34.42-0.29-50.78H109.75z M59.98,117.76c3.25,14,7.86,31.98,13.85,50.78h353.36c5.98-18.8,10.6-36.78,13.85-50.78
	H289.25l-35.23,22.28l-13-22.28H59.98z M104.92,310c1.32,15.48,2.51,32.51,3.39,50.78h284.37c0.88-18.27,2.08-35.3,3.39-50.78
	H104.92z M410.04,213.88H90.96c1.01,2.21,2.03,4.41,3.08,6.56c0,0,2.92,16.4,6.25,44.22h300.42c3.33-27.82,6.25-44.22,6.25-44.22
	C408.01,218.29,409.04,216.1,410.04,213.88z"/>
<path class="st2" d="M236.99,109.16v131.51h29.28c8.29-84.73-14.39-118.85-29.25-131.87L236.99,109.16z"/>
<path class="st2" d="M96.25,597c14.67,8.05,53.26,19.29,154.26,18.79c103.23-0.51,140.87-8.07,154.79-15.72"/>
<g>
	<g>
		<path class="st2" d="M96.25,603.6c0.14,0.08,0.29,0.16,0.44,0.24"/>
		<path class="st3" d="M97.57,604.3c15.61,7.99,54.83,18.57,152.94,18.09c103.77-0.51,141.26-8.15,155.01-15.84"/>
		<path class="st2" d="M405.95,606.3c0.15-0.08,0.29-0.17,0.43-0.25"/>
	</g>
</g>
<path class="Collar fill" d="M186.19,9.99c0,0-8.51,71.4,39.04,91.37c0,0-35.54,1.5-62.56,25.96C162.66,127.32,140.14,57.92,186.19,9.99z
	 M250.5,0.5c-32.28,0-64.31,9.49-64.31,9.49s-1.23,13.91,0.52,30.71H314.3c0,0,2.82-17.17,0.52-30.71
	C314.82,9.99,282.79,0.5,250.5,0.5 M314.82,9.99c0,0,8.51,71.4-39.04,91.37c0,0,35.54,1.5,62.56,25.96
	C338.34,127.32,360.86,57.92,314.82,9.99z"/>
<path class="st1" d="M314.82,9.99c2.24,13.19-0.38,29.82-0.52,30.67 M314.3,40.65c2.14-17.03,0.52-30.67,0.52-30.67 M314.82,9.99
	c0,0-32.03-9.49-64.31-9.49s-64.31,9.49-64.31,9.49 M186.19,9.99c-46.05,47.93-23.52,117.34-23.52,117.34
	c27.03-24.47,62.56-25.96,62.56-25.96C177.68,81.39,186.19,9.99,186.19,9.99 M314.3,40.65c-2.76,21.93-11.76,49.46-38.52,60.71
	c0,0,35.54,1.5,62.56,25.96c0,0,22.52-69.4-23.52-117.34"/>
<path class="Collar fill" d="M275.78,101.36c0,0-19.87,14.1-20.7,32.76c0,0,9.77,22.26,11.29,42.87c0,0,11.9-49.05,43.44-67.39
	C309.81,109.6,292.61,102.67,275.78,101.36z"/>
<path class="st1" d="M255.08,134.12c0,0,9.77,22.26,11.29,42.87c0,0,11.9-49.05,43.44-67.39c0,0-17.21-6.93-34.04-8.24
	C275.78,101.36,255.91,115.46,255.08,134.12z"/>
<g>
	<ellipse class="st4" cx="275.78" cy="123.7" rx="7.13" ry="7.12"/>
	<g>
		<circle cx="273.48" cy="121.48" r="1.01"/>
		<circle cx="278.07" cy="121.48" r="1.01"/>
		<circle cx="273.48" cy="125.93" r="1.01"/>
		<circle cx="278.07" cy="125.93" r="1.01"/>
	</g>
</g>
<g>
	<ellipse class="st4" cx="259.94" cy="155.63" rx="7.13" ry="7.12"/>
	<g>
		<circle class="st5" cx="257.65" cy="153.41" r="1.01"/>
		<circle cx="262.24" cy="153.41" r="1.01"/>
		<circle class="st5" cx="257.65" cy="157.86" r="1.01"/>
		<circle class="st5" cx="262.24" cy="157.86" r="1.01"/>
	</g>
</g>
<path class="Collar fill" d="M225.23,101.36c0,0,53.05,16.48,41.04,139.31h-29.28V108.79"/>
<path class="st1" d="M225.23,101.36l11.76,7.43v131.88h29.28C278.28,117.84,225.23,101.36,225.23,101.36z"/>
<path class="st6" d="M252.51,151c0,0,0.5,0.98,0.86,2.46c0.4,1.47,0.64,3.44,0.64,5.41c0,1.97-0.24,3.93-0.64,5.41
	c-0.36,1.47-0.86,2.46-0.86,2.46s-0.51-0.98-0.86-2.46c-0.4-1.47-0.64-3.44-0.64-5.41c0-1.97,0.24-3.93,0.64-5.41
	C252.01,151.98,252.51,151,252.51,151z"/>
<path class="st6" d="M252.51,187.69c0,0,0.5,0.98,0.86,2.46c0.4,1.47,0.64,3.44,0.64,5.41c0,1.97-0.24,3.93-0.64,5.41
	c-0.36,1.47-0.86,2.46-0.86,2.46s-0.51-0.98-0.86-2.46c-0.4-1.47-0.64-3.44-0.64-5.41c0-1.97,0.24-3.93,0.64-5.41
	C252.01,188.68,252.51,187.69,252.51,187.69z"/>
<path class="st6" d="M252.51,221.15c0,0,0.5,0.98,0.86,2.46c0.4,1.47,0.64,3.44,0.64,5.41c0,1.97-0.24,3.93-0.64,5.41
	c-0.36,1.47-0.86,2.46-0.86,2.46s-0.51-0.98-0.86-2.46c-0.4-1.47-0.64-3.44-0.64-5.41c0-1.97,0.24-3.93,0.64-5.41
	C252.01,222.13,252.51,221.15,252.51,221.15z"/>
<path class="ArmTrim fill" d="M407.1,267.38c-0.89,12.24,2.16,18.6,2.16,18.6c47.3,13.11,91.22-17.6,91.22-17.6
	c-0.07-6.45-0.25-12.69-0.52-18.72c0,0-45.27,22.28-91.25,17.6L407.1,267.38z"/>
<path class="ArmTrim fill" d="M93.91,267.38c0.89,12.24-2.16,18.6-2.16,18.6c-47.3,13.11-91.22-17.6-91.22-17.6
	c0.07-6.45,0.25-12.69,0.52-18.72c0,0,45.27,22.28,91.25,17.6L93.91,267.38z"/>
<path class="Colour2 fill" d="M96.49,253.92L1.65,238.76c0.38-5.61,0.86-11.03,1.4-16.26l93.22,14.9
	C96.68,243.23,96.71,248.79,96.49,253.92z M3.8,215.88l91.84,14.68c-0.39-3.31-0.91-6.69-1.59-10.11c0,0-0.46-0.93-1.27-2.71
	L5.46,203.78C4.86,207.69,4.3,211.72,3.8,215.88z M76.05,173.87c-0.69-2.11-1.4-4.28-2.11-6.52l-58.17-9.3
	c-0.6,1.92-1.18,3.89-1.75,5.9L76.05,173.87z M84.28,197.15L8.82,185.08c-0.8,3.86-1.56,7.86-2.28,12l83.01,13.27
	C88.08,206.84,86.29,202.43,84.28,197.15z M78.44,180.98L12.25,170.4c-0.67,2.57-1.32,5.21-1.95,7.93l71.22,11.38
	C80.53,186.97,79.5,184.06,78.44,180.98z"/>
<path class="Colour2 fill" d="M404.73,237.4l93.22-14.9c0.55,5.23,1.02,10.65,1.4,16.26l-94.84,15.16
	C404.3,248.79,404.33,243.23,404.73,237.4z M495.55,203.78l-87.32,13.96c-0.81,1.77-1.27,2.71-1.27,2.71
	c-0.68,3.42-1.2,6.8-1.59,10.11l91.84-14.68C496.7,211.72,496.15,207.69,495.55,203.78z M487,163.95c-0.57-2.01-1.16-3.99-1.75-5.9
	l-58.17,9.3c-0.71,2.24-1.41,4.41-2.11,6.52L487,163.95z M411.45,210.35l83.01-13.27c-0.71-4.14-1.47-8.14-2.28-12l-75.46,12.06
	C414.71,202.43,412.93,206.84,411.45,210.35z M419.48,189.71l71.22-11.38c-0.63-2.72-1.28-5.36-1.95-7.93l-66.19,10.58
	C421.5,184.06,420.47,186.97,419.48,189.71z"/>
<g>
	<path class="st0" d="M94.04,272.31c-60.56,3-93.18-18.54-93.18-18.54"/>
	<path class="st0" d="M500.22,253.77c0,0-32.62,21.54-93.18,18.54"/>
</g>
<path class="st4" d="M186.71,39.69c0,0,3.29,48.94,40.84,61.65c0,0,20.38,9.05,27.53,31.78c0,0,0.04-17.63,20.7-32.76
	c0,0,30.65-7.7,38.52-60.67H186.71z"/>
<g id="FBodyLogos"></g>
</svg>
