<?xml version="1.0" encoding="utf-8"?>
<!-- Generator: Adobe Illustrator 19.1.0, SVG Export Plug-In . SVG Version: 6.00 Build 0)  -->
<svg version="1.1" id="Layer_1" xmlns="http://www.w3.org/2000/svg" xmlns:xlink="http://www.w3.org/1999/xlink" x="0px" y="0px"
	 viewBox="0 0 501.01 643" style="enable-background:new 0 0 501.01 643;" xml:space="preserve">
<style type="text/css">
	<![CDATA[
	@font-face{font-family:'codaheavy';src:url('/fonts/coda-heavy-webfont.woff') format('woff')}
	text{font-family:Impact,codaheavy,sans-serif}
	.Colour1.fill{fill:#1C1D21;}
	.Colour2.fill{fill:#3B3D45;}
	.Colour3.fill{fill:#D20000;}
	.Colour4.fill{fill:#D8D8D8;}
	.ArmTrim.fill{fill:#3B3D45;}
	.Collar.fill{fill:#1C1D21;}
	.st0{fill:none;stroke:#000000;stroke-linecap:round;stroke-linejoin:round;}
	.st1{fill:#FFFFFF;}
	.st2{fill:none;stroke:#5D5D5D;stroke-miterlimit:10;}
	.st3{fill:none;stroke:#5D5D5D;stroke-miterlimit:10;stroke-dasharray:1.0004,1.0004;}
	.st4{fill:none;stroke:#000000;stroke-miterlimit:10;}
	.st5{fill:#5D5D5D;}
	.st6{fill:none;stroke:#5D5D5D;stroke-miterlimit:10;stroke-dasharray:1;}
	]]>
</style>
<path class="Colour1 fill" d="M250.5,641.54c-151.65,0.75-157.91-25.8-157.91-25.8c38.04-190.45,1.45-395.62,1.45-395.62
	C67.46,165.53,54.18,89.99,54.18,89.99S70.32,69.8,146.9,49.98c0,0,12.76-2.62,19.14-9.35h168.92c6.38,6.73,19.14,9.35,19.14,9.35
	c76.58,19.82,92.72,40.01,92.72,40.01s-13.28,75.53-39.86,130.13c0,0-36.59,205.16,1.45,395.62
	C408.41,615.74,402.15,642.29,250.5,641.54"/>
<path class="Colour4 fill" d="M402.47,249.9c0,0-11.51,94.55-11.28,156.78L373.4,508.73l-41.36,93.99l-47.89,38.51
	c0,0-163.15,9.92-191.6-25.48c0,0,15.03-85.88,16.16-139.54c0,0,39.04-127.35,99.69-185.49
	C208.39,290.71,326.44,174.49,402.47,249.9z"/>
<path class="Colour3 fill" d="M298.66,58.69c0,0-0.06,0.2-0.19,0.58c-0.09,0.3-0.28,0.87-0.55,1.64c-0.54,1.53-1.36,3.83-2.53,6.78
	c-1.15,2.94-2.63,6.53-4.45,10.62c-1.79,4.1-3.97,8.68-6.42,13.65c-2.5,4.95-5.27,10.31-8.42,15.86c-1.54,2.8-3.24,5.61-4.93,8.52
	c-1.77,2.85-3.5,5.83-5.42,8.75c-1.88,2.95-3.81,5.94-5.85,8.92c-1.99,3.01-4.13,5.97-6.26,8.98c-2.13,3.01-4.41,5.95-6.63,8.96
	c-2.32,2.92-4.6,5.92-6.99,8.81c-4.77,5.8-9.67,11.53-14.74,16.95c-1.27,1.36-2.53,2.71-3.78,4.06c-1.26,1.34-2.57,2.62-3.84,3.93
	c-1.28,1.3-2.56,2.59-3.82,3.87c-1.28,1.27-2.59,2.48-3.87,3.71c-2.56,2.46-5.09,4.87-7.67,7.11c-2.56,2.27-5.02,4.55-7.56,6.6
	c-2.52,2.08-4.92,4.16-7.34,6.07c-2.43,1.89-4.78,3.72-7.03,5.47c-2.25,1.76-4.52,3.3-6.62,4.85c-2.12,1.51-4.1,3.02-6.05,4.28
	c-3.88,2.56-7.22,4.92-10.08,6.66c-5.71,3.52-8.98,5.54-8.98,5.54s3.49-1.6,9.6-4.41c3.07-1.39,6.67-3.32,10.88-5.42
	c2.12-1.03,4.27-2.29,6.59-3.55c2.3-1.29,4.77-2.57,7.25-4.07c2.49-1.49,5.08-3.04,7.77-4.65c2.68-1.63,5.36-3.43,8.17-5.23
	c2.83-1.77,5.6-3.77,8.49-5.76c2.91-1.96,5.78-4.1,8.7-6.28c1.46-1.09,2.95-2.17,4.42-3.3c1.45-1.15,2.92-2.31,4.39-3.47
	c1.47-1.17,2.97-2.32,4.43-3.54c1.46-1.22,2.92-2.45,4.39-3.69c5.89-4.93,11.66-10.2,17.33-15.6c2.84-2.69,5.57-5.49,8.36-8.23
	c2.68-2.83,5.42-5.6,8.02-8.45c2.6-2.86,5.21-5.67,7.67-8.55c2.51-2.84,4.92-5.72,7.26-8.57c2.38-2.82,4.58-5.71,6.81-8.48
	c2.14-2.83,4.3-5.58,6.28-8.32c4.04-5.45,7.68-10.75,10.98-15.7c3.26-4.97,6.2-9.59,8.68-13.77c2.5-4.17,4.6-7.88,6.29-11
	c1.7-3.1,2.97-5.63,3.84-7.39c0.45-0.94,0.79-1.66,1.03-2.14c0.22-0.47,0.33-0.72,0.33-0.72L298.66,58.69z"/>
<path class="Colour2 fill" d="M391.19,406.68c0,0-36.38,166.05-107.04,234.54l47.03-2.6c0,0,48.19-75.93,62.6-134.79L391.19,406.68z"/>
<path class="Colour2 fill" d="M406.91,220.12c0,0-69.98-95.64-198.52,70.59c0,0,122.3-118.21,194.08-40.81l1.11-8.17
	C403.58,241.73,405.7,227.67,406.91,220.12z"/>
<path class="Colour3 fill" d="M208.39,290.71c0,0-76.77,54.42-98.9,161.92c0,0-0.52,17.87-0.79,23.56
	C108.7,476.2,140.46,360.36,208.39,290.71z"/>
<path class="Colour2 fill" d="M278.1,89.64c-13.08,17.66-27.25,35.41-42.67,52.51c-15.4,17.11-31.78,33.79-49.1,49.4
	c-17.3,15.63-35.39,30.31-53.89,43.74c-10.9,7.91-21.93,15.38-33.01,22.39c-1.51-12.01-2.88-21.48-3.87-27.9
	c6.5-5.27,12.95-10.71,19.31-16.32c16.38-14.45,32.18-29.98,47.08-46.27c14.92-16.27,28.82-33.41,41.7-50.79
	c12.9-17.37,24.54-35.2,35.14-52.79c4.61-7.69,8.97-15.36,13.12-22.97h59.28C301.22,56.71,290.21,73.19,278.1,89.64z"/>
<path class="Colour2 fill" d="M446.82,89.99c0,0,52.18,38.89,53.68,177.99c0,0-43.92,30.66-91.22,17.57c0,0-9.27-30.54-2.32-65.44
	C406.96,220.12,430.18,173.01,446.82,89.99z"/>
<path class="Colour2 fill" d="M54.18,89.99c0,0-52.18,38.89-53.68,177.99c0,0,43.92,30.66,91.22,17.57c0,0,9.27-30.54,2.32-65.44
	C94.04,220.12,70.82,173.01,54.18,89.99z"/>
<path class="st0" d="M94.04,220.12c0,0,0.53,2.95,1.38,8.46 M446.82,89.99c0,0-16.14-20.19-92.72-40.01c0,0-12.76-2.62-19.14-9.35
	H166.04c-6.38,6.73-19.14,9.35-19.14,9.35C70.32,69.8,54.18,89.99,54.18,89.99 M54.18,89.99c0,0,13.17,74.88,39.52,129.41
	 M406.96,220.12c0,0-0.53,2.95-1.38,8.46 M406.96,220.12c0.12-0.24,0.23-0.48,0.34-0.72 M93.7,219.4c0.12,0.24,0.23,0.48,0.34,0.72
	 M95.43,228.58c6.31,40.48,30.65,219.51-2.83,387.16c0,0,6.26,26.55,157.91,25.8c151.65,0.75,157.91-25.8,157.91-25.8
	c-33.48-167.65-9.14-346.68-2.83-387.16 M407.31,219.4c26.35-54.54,39.52-129.41,39.52-129.41 M406.96,220.12
	c-0.57,2.85-1.02,5.68-1.38,8.46 M405.58,228.58c-4.1,31.23,3.71,56.98,3.71,56.98c47.3,13.09,91.22-17.57,91.22-17.57
	c-1.5-139.1-53.68-177.99-53.68-177.99 M406.96,220.12c0,0,0.12-0.25,0.34-0.72 M54.18,89.99c0,0-52.18,38.89-53.68,177.99
	c0,0,43.92,30.66,91.22,17.57c0,0,7.81-25.75,3.71-56.98 M93.7,219.4c0.22,0.47,0.34,0.72,0.34,0.72 M95.43,228.58
	c-0.37-2.78-0.82-5.6-1.38-8.46"/>
<path class="st1" d="M186.71,40.64c0,0,3.29,48.87,40.84,61.56c0,0,20.38,9.04,27.53,31.74c0,0,0.04-17.6,20.7-32.72
	c0,0,30.65-7.69,38.52-60.58H186.71z"/>
<path class="st2" d="M236.99,109v131.31h29.28c8.29-84.61-14.39-118.68-29.25-131.67L236.99,109z"/>
<path class="st2" d="M96.25,596.12c14.67,8.04,53.26,19.26,154.26,18.76c103.23-0.51,140.87-8.06,154.79-15.7"/>
<g>
	<g>
		<path class="st2" d="M96.25,602.71c0.14,0.08,0.29,0.16,0.44,0.24"/>
		<path class="st3" d="M97.57,603.41c15.61,7.97,54.83,18.55,152.94,18.06c103.77-0.51,141.26-8.14,155.01-15.82"/>
		<path class="st2" d="M405.95,605.41c0.15-0.08,0.29-0.17,0.43-0.25"/>
	</g>
</g>
<path class="Collar fill" d="M186.19,9.97c0,0-8.51,71.3,39.04,91.24c0,0-35.54,1.5-62.56,25.93C162.66,127.14,140.14,57.84,186.19,9.97z
	 M250.5,0.5c-32.28,0-64.31,9.47-64.31,9.47s-1.23,13.89,0.52,30.66H314.3c0,0,2.82-17.15,0.52-30.66
	C314.82,9.97,282.79,0.5,250.5,0.5 M314.82,9.97c0,0,8.51,71.3-39.04,91.24c0,0,35.54,1.5,62.56,25.93
	C338.34,127.14,360.86,57.84,314.82,9.97z"/>
<path class="st0" d="M314.52,9.97c2.24,13.16-0.38,29.75-0.52,30.62 M314.01,40.59c2.14-17,0.52-30.62,0.52-30.62 M314.52,9.97
	c0,0-32.03-9.47-64.31-9.47s-64.31,9.47-64.31,9.47 M314.01,40.59c-2.76,21.89-11.76,49.39-38.52,60.62c0,0,35.54,1.5,62.56,25.93
	c0,0,22.52-69.3-23.52-117.16 M185.89,9.97c-46.05,47.86-23.52,117.16-23.52,117.16c27.03-24.43,62.56-25.93,62.56-25.93
	C177.38,81.27,185.89,9.97,185.89,9.97"/>
<path class="Collar fill" d="M275.78,101.21c0,0-19.87,14.08-20.7,32.72c0,0,9.77,22.23,11.29,42.8c0,0,11.9-48.97,43.44-67.29
	C309.81,109.44,292.61,102.52,275.78,101.21z"/>
<path class="st0" d="M254.34,133.93c0,0,9.77,22.23,11.29,42.8c0,0,11.9-48.97,43.44-67.29c0,0-17.21-6.92-34.04-8.23
	C275.03,101.21,255.16,115.29,254.34,133.93z"/>
<g>
	<ellipse class="st4" cx="275.78" cy="123.52" rx="7.13" ry="7.1"/>
	<g>
		<circle cx="273.48" cy="121.3" r="1.01"/>
		<circle cx="278.07" cy="121.3" r="1.01"/>
		<circle cx="273.48" cy="125.74" r="1.01"/>
		<circle cx="278.07" cy="125.74" r="1.01"/>
	</g>
</g>
<g>
	<ellipse class="st4" cx="259.94" cy="155.4" rx="7.13" ry="7.1"/>
	<g>
		<circle class="st5" cx="257.65" cy="153.18" r="1.01"/>
		<circle cx="262.24" cy="153.18" r="1.01"/>
		<circle class="st5" cx="257.65" cy="157.63" r="1.01"/>
		<circle class="st5" cx="262.24" cy="157.63" r="1.01"/>
	</g>
</g>
<g>
	<path class="st6" d="M0.86,253.4c0,0,32.62,21.51,93.18,18.51"/>
	<path class="st6" d="M500.22,253.4c0,0-32.62,21.51-93.18,18.51"/>
</g>
<path class="st2" d="M95.68,596.12c14.67,8.04,53.26,19.26,154.26,18.76c103.23-0.51,140.87-8.06,154.79-15.7"/>
<g>
	<g>
		<path class="st2" d="M95.68,602.71c0.14,0.08,0.29,0.16,0.44,0.24"/>
		<path class="st3" d="M97,603.41c15.61,7.97,54.83,18.55,152.94,18.06c103.77-0.51,141.26-8.14,155.01-15.82"/>
		<path class="st2" d="M405.39,605.41c0.15-0.08,0.29-0.17,0.43-0.25"/>
	</g>
</g>
<path class="Collar fill" d="M225.23,101.21c0,0,53.05,16.45,41.04,139.1h-29.28V108.63"/>
<path class="st0" d="M225.23,101.21l11.76,7.42v131.68h29.28C278.28,117.66,225.23,101.21,225.23,101.21z"/>
<path d="M252.51,150.77c0,0,0.5,0.98,0.86,2.45c0.4,1.47,0.64,3.44,0.64,5.4c0,1.96-0.24,3.93-0.64,5.4
	c-0.36,1.47-0.86,2.45-0.86,2.45s-0.51-0.98-0.86-2.45c-0.4-1.47-0.64-3.44-0.64-5.4c0-1.96,0.24-3.93,0.64-5.4
	C252.01,151.76,252.51,150.77,252.51,150.77z"/>
<path d="M252.51,187.42c0,0,0.5,0.98,0.86,2.45c0.4,1.47,0.64,3.44,0.64,5.4c0,1.96-0.24,3.93-0.64,5.4
	c-0.36,1.47-0.86,2.45-0.86,2.45s-0.51-0.98-0.86-2.45c-0.4-1.47-0.64-3.44-0.64-5.4c0-1.96,0.24-3.93,0.64-5.4
	C252.01,188.4,252.51,187.42,252.51,187.42z"/>
<path d="M252.51,220.82c0,0,0.5,0.98,0.86,2.45c0.4,1.47,0.64,3.44,0.64,5.4c0,1.96-0.24,3.93-0.64,5.4
	c-0.36,1.47-0.86,2.45-0.86,2.45s-0.51-0.98-0.86-2.45c-0.4-1.47-0.64-3.44-0.64-5.4c0-1.96,0.24-3.93,0.64-5.4
	C252.01,221.8,252.51,220.82,252.51,220.82z"/>
<path class="Colour3 fill" d="M471.28,123.29c0,0-5.13,66.93-68.71,126c0,0,66.17-41.74,83.37-89.05
	C485.94,160.24,480.46,138.86,471.28,123.29z"/>
<path class="Colour1 fill" d="M485.94,160.24c0,0,5.97,16.94,8.97,39.39l-85.66,85.93c0,0-2.09-4.98-6.68-36.27
	C402.56,249.29,467.49,208.3,485.94,160.24z"/>
<path class="Colour3 fill" d="M29.73,123.29c0,0,5.13,66.93,68.71,126c0,0-66.17-41.74-83.37-89.05
	C15.07,160.24,20.54,138.86,29.73,123.29z"/>
<path class="Colour1 fill" d="M15.07,160.24c0,0-5.97,16.94-8.97,39.39l85.66,85.93c0,0,2.09-4.98,6.68-36.27
	C98.44,249.29,33.52,208.3,15.07,160.24z"/>
<path class="ArmTrim fill" d="M407.13,266.98c-0.89,12.23,2.16,18.57,2.16,18.57c47.3,13.09,91.22-17.57,91.22-17.57
	c-0.07-6.44-0.25-12.67-0.52-18.69c0,0-45.27,22.25-91.25,17.57L407.13,266.98z"/>
<path class="ArmTrim fill" d="M93.94,266.98c0.89,12.23-2.16,18.57-2.16,18.57c-47.3,13.09-91.22-17.57-91.22-17.57
	c0.07-6.44,0.25-12.67,0.52-18.69c0,0,45.27,22.25,91.25,17.57L93.94,266.98z"/>
<g id="FBodyLogos"></g>
</svg>
