<?xml version="1.0" encoding="utf-8"?>
<!-- Generator: Adobe Illustrator 19.1.0, SVG Export Plug-In . SVG Version: 6.00 Build 0)  -->
<svg version="1.1" id="Layer_1" xmlns="http://www.w3.org/2000/svg" xmlns:xlink="http://www.w3.org/1999/xlink" x="0px" y="0px"
	 viewBox="0 0 501.01 643" style="enable-background:new 0 0 501.01 643;" xml:space="preserve">
<style type="text/css">
	<![CDATA[
	@font-face{font-family:'codaheavy';src:url('/fonts/coda-heavy-webfont.woff') format('woff')}
	text{font-family:Impact,codaheavy,sans-serif}
	.Number.fill{fill:#000}
	.NumberOutline.stroke{fill:none;stroke:#777;stroke-width:2.5}
	.Colour1.fill{fill:#830000;}
	.Colour2.fill{fill:#E71A22;}
	.Colour3.fill{fill:#E21322;}
	.ArmTrim.fill{fill:#BC1D4A;}
	.Collar.fill{fill:#830000;}
	.st0{fill:none;stroke:#5D5D5D;stroke-miterlimit:10;}
	.st1{fill:none;stroke:#000000;stroke-linecap:round;stroke-linejoin:round;}
	.st2{fill:none;stroke:#5D5D5D;stroke-miterlimit:10;stroke-dasharray:1.0005,1.0005;}
	.st3{fill:none;stroke:#5D5D5D;stroke-miterlimit:10;stroke-dasharray:1;}
	]]>
</style>
<path class="Colour1 fill" d="M250.5,642.48c-151.65,0.75-157.91-25.84-157.91-25.84c38.04-190.74,1.45-396.2,1.45-396.2
	C67.46,165.77,54.18,90.13,54.18,90.13S70.32,69.9,146.9,50.06c0,0,12.76-2.62,19.14-9.36h168.92c6.38,6.74,19.14,9.36,19.14,9.36
	c76.58,19.85,92.72,40.07,92.72,40.07s-13.28,75.65-39.86,130.32c0,0-36.59,205.47,1.45,396.2
	C408.41,616.65,402.15,643.23,250.5,642.48"/>
<path class="Colour3 fill" d="M318.18,408.31l-67.68,15.75l-67.68-15.75v-20.67l67.68,15.75l67.68-15.75V408.31z M318.18,416.57
	l-67.68,15.75l-67.68-15.75v20.67l67.68,15.75l67.68-15.75V416.57z M318.18,329.79l-67.68,15.75l-67.68-15.75v20.67l67.68,15.75
	l67.68-15.75V329.79z M318.18,300.87l-67.68,15.75l-67.68-15.75v20.67l67.68,15.75l67.68-15.75V300.87z M318.18,358.72l-67.68,15.75
	l-67.68-15.75v20.67l67.68,15.75l67.68-15.75V358.72z M318.18,445.49l-67.68,15.75l-67.68-15.75v20.67l67.68,15.75l67.68-15.75
	V445.49z M318.18,532.26l-67.68,15.75l-67.68-15.75v20.67l67.68,15.75l67.68-15.75V532.26z M182.82,561.19v20.67l67.68,15.75
	l67.68-15.75v-20.67l-67.68,15.75L182.82,561.19z M318.18,503.34l-67.68,15.75l-67.68-15.75v20.67l67.68,15.75l67.68-15.75V503.34z
	 M318.18,474.41l-67.68,15.75l-67.68-15.75v20.67l67.68,15.75l67.68-15.75V474.41z M318.18,40.69H182.82V148l67.68,15.75L318.18,148
	V40.69z M250.5,642.48c26.87,0.13,49.16-0.6,67.68-1.88v-50.49l-67.68,15.75l-67.68-15.75v50.49
	C201.34,641.89,223.63,642.62,250.5,642.48z M318.18,243.02l-67.68,15.75l-67.68-15.75v20.67l67.68,15.75l67.68-15.75V243.02z
	 M318.18,214.1l-67.68,15.75l-67.68-15.75v20.67l67.68,15.75l67.68-15.75V214.1z M318.18,271.94l-67.68,15.75l-67.68-15.75v20.67
	l67.68,15.75l67.68-15.75V271.94z M318.18,185.17l-67.68,15.75l-67.68-15.75v20.67l67.68,15.75l67.68-15.75V185.17z M318.18,156.25
	L250.5,172l-67.68-15.75v20.67l67.68,15.75l67.68-15.75V156.25z"/>
<path class="Colour2 fill" d="M391.13,428.49L250.5,461.21l-140.63-32.72c0.01-2.58,0.01-5.14,0-7.69l140.63,32.72l140.63-32.72
	C391.13,423.35,391.13,425.91,391.13,428.49z M250.5,366.28l-143.82-33.46c0.18,2.57,0.35,5.18,0.51,7.81l143.31,33.34l143.31-33.34
	c0.17-2.63,0.34-5.24,0.51-7.81L250.5,366.28z M250.5,395.12l-142.13-33.07c0.12,2.57,0.24,5.16,0.35,7.77l141.78,32.99
	l141.78-32.99c0.11-2.61,0.22-5.2,0.35-7.77L250.5,395.12z M250.5,482.44l-140.88-32.78c-0.05,2.54-0.11,5.09-0.18,7.65
	l141.05,32.82l141.06-32.82c-0.07-2.56-0.13-5.11-0.18-7.65L250.5,482.44z M250.5,424.59l-141.04-32.82
	c0.06,2.56,0.12,5.14,0.17,7.73l140.87,32.78l140.87-32.78c0.05-2.59,0.11-5.17,0.17-7.73L250.5,424.59z M397.21,542.77
	c-0.27-2.5-0.54-5.01-0.79-7.51L250.5,569.21l-145.92-33.95c-0.25,2.5-0.52,5-0.79,7.51l146.7,34.13L397.21,542.77z M250.5,511.37
	l-141.82-33c-0.11,2.53-0.24,5.06-0.37,7.6l142.19,33.08l142.19-33.08c-0.13-2.54-0.26-5.08-0.37-7.6L250.5,511.37z M250.5,540.29
	L107.02,506.9c-0.18,2.51-0.37,5.03-0.57,7.56l144.06,33.52l144.06-33.52c-0.2-2.52-0.39-5.04-0.57-7.56L250.5,540.29z
	 M250.5,598.14l-149.17-34.71c-0.33,2.48-0.66,4.97-1.01,7.45l150.18,34.94l150.19-34.94c-0.35-2.49-0.69-4.97-1.01-7.45
	L250.5,598.14z M250.5,221.79L78.21,181.7c0.98,2.8,1.98,5.6,3.01,8.39l169.28,39.39l169.28-39.39c1.03-2.79,2.04-5.59,3.01-8.39
	L250.5,221.79z M250.5,192.89l-182.1-42.37c0.77,2.71,1.57,5.46,2.4,8.25l179.69,41.81l179.69-41.81c0.83-2.78,1.63-5.54,2.4-8.25
	L250.5,192.89z M60.43,119.7c0.61,2.6,1.26,5.32,1.96,8.15l188.11,43.77l188.11-43.77c0.7-2.83,1.35-5.55,1.96-8.15L250.5,163.93
	L60.43,119.7z M250.5,308.6l-149.14-34.7c0.29,2.55,0.57,5.19,0.86,7.89l148.28,34.5l148.28-34.5c0.29-2.7,0.57-5.34,0.86-7.89
	L250.5,308.6z M250.5,337.82l-146.12-34c0.23,2.57,0.46,5.19,0.68,7.85l145.44,33.84l145.44-33.84c0.22-2.66,0.45-5.28,0.68-7.85
	L250.5,337.82z M410.17,213.6L250.5,250.75L90.83,213.6c1.05,2.31,2.12,4.6,3.21,6.85c0,0,0.1,0.58,0.28,1.65l156.18,36.34
	l156.18-36.34c0.18-1.07,0.28-1.65,0.28-1.65C408.06,218.2,409.13,215.91,410.17,213.6z M250.5,279.71L97.65,244.14
	c0.34,2.47,0.7,5.12,1.06,7.94L250.5,287.4l151.78-35.32c0.37-2.81,0.72-5.47,1.06-7.94L250.5,279.71z"/>
<g>
	<path class="st0" d="M407.13,267.38c-0.89,12.24,2.16,18.6,2.16,18.6c47.3,13.11,91.22-17.6,91.22-17.6
		c-0.07-6.45-0.25-12.69-0.52-18.72c0,0-45.27,22.28-91.25,17.6L407.13,267.38z"/>
	<path class="st0" d="M93.94,267.38c0.89,12.24-2.16,18.6-2.16,18.6c-47.3,13.11-91.22-17.6-91.22-17.6
		c0.07-6.45,0.25-12.69,0.52-18.72c0,0,45.27,22.28,91.25,17.6L93.94,267.38z"/>
</g>
<path class="Colour1 fill" d="M446.82,90.13c0,0,52.18,38.95,53.68,178.25c0,0-43.92,30.71-91.22,17.6c0,0-9.27-30.58-2.32-65.53
	C406.96,220.44,430.18,173.26,446.82,90.13z"/>
<path class="Colour1 fill" d="M54.18,90.13c0,0-52.18,38.95-53.68,178.25c0,0,43.92,30.71,91.22,17.6c0,0,9.27-30.58,2.32-65.53
	C94.04,220.44,70.82,173.26,54.18,90.13z"/>
<path class="st1" d="M405.58,228.91c0.86-5.52,1.38-8.47,1.38-8.47 M446.82,90.13c0,0-16.14-20.22-92.72-40.07
	c0,0-12.76-2.62-19.14-9.36H166.04c-6.38,6.74-19.14,9.36-19.14,9.36C70.32,69.9,54.18,90.13,54.18,90.13 M93.7,219.73
	c0.11,0.24,0.23,0.48,0.34,0.72 M407.31,219.73c-0.11,0.24-0.23,0.48-0.34,0.72 M54.18,90.13c0,0,13.17,74.99,39.52,129.6
	 M95.43,228.91c-0.86-5.52-1.38-8.47-1.38-8.47 M407.31,219.73c26.35-54.62,39.52-129.6,39.52-129.6 M95.43,228.91
	c6.31,40.54,30.65,219.84-2.83,387.73c0,0,6.26,26.59,157.91,25.84c151.65,0.75,157.91-25.84,157.91-25.84
	c-33.48-167.89-9.14-347.19-2.83-387.73 M405.58,228.91c-4.1,31.28,3.71,57.06,3.71,57.06c47.3,13.11,91.22-17.6,91.22-17.6
	C499,129.07,446.82,90.13,446.82,90.13 M406.96,220.44c-0.57,2.86-1.02,5.68-1.38,8.47 M406.96,220.44c0,0,0.12-0.25,0.34-0.72
	 M93.7,219.73c0.22,0.47,0.34,0.72,0.34,0.72 M54.18,90.13c0,0-52.18,38.95-53.68,178.25c0,0,43.92,30.71,91.22,17.6
	c0,0,7.81-25.79,3.71-57.06 M95.43,228.91c-0.37-2.79-0.82-5.61-1.38-8.47"/>
<path class="st0" d="M96.25,597c14.67,8.05,53.26,19.29,154.26,18.79c103.23-0.51,140.87-8.07,154.79-15.72"/>
<g>
	<g>
		<path class="st0" d="M96.25,603.6c0.14,0.08,0.29,0.16,0.44,0.24"/>
		<path class="st2" d="M97.57,604.3c15.61,7.99,54.83,18.57,152.94,18.09c103.77-0.51,141.26-8.15,155.01-15.84"/>
		<path class="st0" d="M405.95,606.3c0.15-0.08,0.29-0.17,0.43-0.25"/>
	</g>
</g>
<path class="Collar fill" d="M314.81,9.99c0,0-31.9-9.45-64.11-9.49l-0.47,0c-31.01,0.05-61.7,8.8-63.92,9.45l-0.13,0.04
	c-9.22,9.6-15.69,20.06-20.15,30.65l168.94,0.05C330.52,30.08,324.04,19.6,314.81,9.99"/>
<path class="st1" d="M166.03,40.64l168.94,0.05c-4.45-10.61-10.93-21.09-20.17-30.7c0,0-31.9-9.45-64.11-9.49l-0.47,0
	c-31.01,0.05-61.7,8.8-63.92,9.45l-0.13,0.04C176.96,19.59,170.49,30.05,166.03,40.64z"/>
<g>
	<path class="st3" d="M0.82,253.77c0,0,32.62,21.54,93.18,18.54"/>
	<path class="st3" d="M500.18,253.77c0,0-32.62,21.54-93.18,18.54"/>
</g>
<path class="Colour2 fill" d="M426.6,169.17l57.99-13.55c0.3,0.94,0.61,1.9,0.91,2.87l-59.97,14.01
	C425.88,171.41,426.24,170.3,426.6,169.17z M414.9,202.14c-0.47,1.19-0.92,2.32-1.35,3.39l79.16-18.49c-0.2-0.99-0.4-1.96-0.61-2.93
	L414.9,202.14z M488.21,167.93c-0.26-0.97-0.52-1.94-0.79-2.89l-64.44,15.06c-0.39,1.14-0.77,2.26-1.15,3.35L488.21,167.93z
	 M493.88,193.17l-83.28,19.46c-0.56,1.3-1.06,2.45-1.5,3.43l85.31-19.93C494.24,195.12,494.06,194.14,493.88,193.17z M482.4,149.13
	c-0.34-0.96-0.68-1.91-1.02-2.84l-51.4,12.01c-0.34,1.12-0.67,2.22-1.01,3.31L482.4,149.13z M490.62,177.45
	c-0.23-0.99-0.47-1.95-0.7-2.91l-70.82,16.55c-0.42,1.15-0.84,2.28-1.24,3.37L490.62,177.45z M499.65,241.71l-94.31,22.03
	c0.34,3.28,0.76,6.29,1.19,8.95l93.6-21.87C500,247.73,499.84,244.69,499.65,241.71z M496.24,207.73c-0.21-1.5-0.43-2.99-0.66-4.46
	l-89.17,20.83c-0.27,1.61-0.5,3.2-0.71,4.78L496.24,207.73z M498.67,228.81l-94.14,22c0.06,2.64,0.18,5.18,0.35,7.61l94.41-22.06
	C499.1,233.79,498.89,231.28,498.67,228.81z M498,221.98c-0.21-2.02-0.44-4.03-0.68-6l-92.5,21.61c-0.14,2.11-0.24,4.19-0.29,6.22
	L498,221.98z M74.41,169.17l-57.99-13.55c-0.3,0.94-0.61,1.9-0.91,2.87l59.97,14.01C75.13,171.41,74.77,170.3,74.41,169.17z
	 M8.91,184.11c-0.21,0.97-0.41,1.94-0.61,2.93l79.16,18.49c-0.43-1.08-0.89-2.2-1.35-3.39L8.91,184.11z M79.18,183.44
	c-0.38-1.09-0.77-2.21-1.15-3.35l-64.44-15.06c-0.27,0.95-0.53,1.92-0.79,2.89L79.18,183.44z M6.6,196.12l85.31,19.93
	c-0.44-0.98-0.94-2.12-1.5-3.43L7.13,193.17C6.95,194.14,6.77,195.12,6.6,196.12z M72.04,161.62c-0.33-1.09-0.67-2.19-1.01-3.31
	l-51.4-12.01c-0.34,0.93-0.68,1.88-1.02,2.84L72.04,161.62z M83.15,194.45c-0.41-1.09-0.82-2.22-1.24-3.37l-70.82-16.55
	c-0.24,0.97-0.47,1.93-0.7,2.91L83.15,194.45z M0.87,250.83l93.6,21.87c0.43-2.66,0.85-5.67,1.19-8.95L1.35,241.71
	C1.17,244.69,1.01,247.73,0.87,250.83z M95.31,228.88c-0.21-1.58-0.44-3.17-0.71-4.78L5.43,203.26c-0.23,1.47-0.45,2.96-0.66,4.46
	L95.31,228.88z M1.71,236.35l94.41,22.06c0.17-2.43,0.29-4.97,0.35-7.61l-94.14-22C2.11,231.28,1.9,233.79,1.71,236.35z
	 M96.46,243.82c-0.05-2.03-0.14-4.11-0.29-6.22l-92.5-21.61c-0.24,1.97-0.46,3.97-0.68,6L96.46,243.82z"/>
<path class="ArmTrim fill" d="M405.09,266.82c1.83,13.67,3.75,18.93,3.75,18.93c47.57,13.11,92.16-17.6,92.16-17.6
	c-0.07-6.45-0.25-12.69-0.53-18.72c0,0-45.53,22.28-91.78,17.6L405.09,266.82z"/>
<path class="ArmTrim fill" d="M95.59,267.16c-1.13,12.25-3.46,18.46-3.46,18.46C48.48,300.3,0,268.16,0,268.16
	c0.07-6.45,0.25-12.69,0.52-18.72c0,0,45.27,22.28,91.25,17.6L95.59,267.16z"/>
<g id="BBodyLogos"></g>
</svg>
