<?xml version="1.0" encoding="utf-8"?>
<!-- Generator: Adobe Illustrator 19.1.0, SVG Export Plug-In . SVG Version: 6.00 Build 0)  -->
<svg version="1.1" id="Layer_1" xmlns="http://www.w3.org/2000/svg" xmlns:xlink="http://www.w3.org/1999/xlink" x="0px" y="0px"
	 viewBox="0 0 501.01 643" style="enable-background:new 0 0 501.01 643;" xml:space="preserve">
<style type="text/css">
	<![CDATA[
	@font-face{font-family:'codaheavy';src:url('/fonts/coda-heavy-webfont.woff') format('woff')}
	text{font-family:Impact,codaheavy,sans-serif}
	.Number.fill{fill:#000}
	.NumberOutline.stroke{fill:none;stroke:#777;stroke-width:2.5}
	.Colour1.fill{fill:#0E2030;}
	.Colour2.fill{fill:#839C86;}
	.Colour3.fill{fill:#FFFFFF;}
	.ArmTrim.fill{fill:#949F8F;}
	.Collar.fill{fill:#0E2030;}
	.st0{fill:none;stroke:#000000;stroke-linecap:round;stroke-linejoin:round;}
	.st1{fill:none;stroke:#5D5D5D;stroke-miterlimit:10;}
	.st2{fill:none;stroke:#5D5D5D;stroke-miterlimit:10;stroke-dasharray:1.0005,1.0005;}
	.st3{fill:none;stroke:#5D5D5D;stroke-miterlimit:10;stroke-dasharray:1;}
	]]>
</style>
<path class="Colour3 fill" d="M447.63,90.13c0,0,52.18,38.95,53.68,178.25c0,0-43.92,30.71-91.22,17.6c0,0-9.27-30.58-2.32-65.53
	C407.77,220.44,430.99,173.26,447.63,90.13z"/>
<path class="Colour3 fill" d="M54.99,90.13c0,0-52.18,38.95-53.68,178.25c0,0,43.92,30.71,91.22,17.6c0,0,9.27-30.58,2.32-65.53
	C94.85,220.44,71.63,173.26,54.99,90.13z"/>
<path class="Colour3 fill" d="M250.5,642.48c-151.65,0.75-157.91-25.84-157.91-25.84c38.04-190.74,1.45-396.2,1.45-396.2
	C67.46,165.77,54.18,90.13,54.18,90.13S70.32,69.9,146.9,50.06c0,0,12.76-2.62,19.14-9.36h168.92c6.38,6.74,19.14,9.36,19.14,9.36
	c76.58,19.85,92.72,40.07,92.72,40.07s-13.28,75.65-39.86,130.32c0,0-36.59,205.46,1.45,396.2
	C408.41,616.65,402.15,643.23,250.5,642.48"/>
<path class="st0" d="M405.58,228.91c0.37-2.79,0.82-5.61,1.38-8.47 M406.96,220.44c0,0,0.12-0.25,0.34-0.72 M407.31,219.73
	c2.92-6.17,24.06-52.36,39.52-129.6 M405.58,228.91c-4.1,31.28,3.71,57.06,3.71,57.06c47.3,13.11,91.22-17.6,91.22-17.6
	C499,129.07,446.82,90.13,446.82,90.13 M54.18,90.13c0,0-52.18,38.95-53.68,178.25c0,0,43.92,30.71,91.22,17.6
	c0,0,7.81-25.79,3.71-57.06 M95.43,228.91c-0.37-2.79-0.82-5.61-1.38-8.47 M93.7,219.73c0.22,0.47,0.34,0.72,0.34,0.72 M54.18,90.13
	c15.46,77.24,36.6,123.44,39.52,129.6 M406.96,220.44c0,0-0.53,2.95-1.38,8.47 M406.96,220.44c0.12-0.24,0.23-0.48,0.34-0.72
	 M95.43,228.91c-0.86-5.52-1.38-8.47-1.38-8.47 M93.7,219.73c0.11,0.24,0.23,0.48,0.34,0.72 M95.43,228.91
	c6.31,40.54,30.65,219.84-2.83,387.73c0,0,6.26,26.59,157.91,25.84c151.65,0.75,157.91-25.84,157.91-25.84
	c-33.48-167.89-9.14-347.19-2.83-387.73 M446.82,90.13c0,0-16.14-20.22-92.72-40.07c0,0-12.76-2.62-19.14-9.36H166.04
	c-6.38,6.74-19.14,9.36-19.14,9.36C70.32,69.9,54.18,90.13,54.18,90.13"/>
<path class="ArmTrim fill" d="M407.13,267.38c-0.89,12.24,2.16,18.6,2.16,18.6c47.3,13.11,91.22-17.6,91.22-17.6
	c-0.07-6.45-0.25-12.69-0.52-18.72c0,0-45.27,22.28-91.25,17.6L407.13,267.38z"/>
<path class="ArmTrim fill" d="M93.94,267.38c0.89,12.24-2.16,18.6-2.16,18.6c-47.3,13.11-91.22-17.6-91.22-17.6
	c0.07-6.45,0.25-12.69,0.52-18.72c0,0,45.27,22.28,91.25,17.6L93.94,267.38z"/>
<path class="st1" d="M96.25,597c14.67,8.05,53.26,19.29,154.26,18.79c103.23-0.51,140.87-8.07,154.79-15.72"/>
<g>
	<g>
		<path class="st1" d="M96.25,603.6c0.14,0.08,0.29,0.16,0.44,0.24"/>
		<path class="st2" d="M97.57,604.3c15.61,7.99,54.83,18.57,152.94,18.09c103.77-0.51,141.26-8.15,155.01-15.84"/>
		<path class="st1" d="M405.95,606.3c0.15-0.08,0.29-0.17,0.43-0.25"/>
	</g>
</g>
<path class="Collar fill" d="M314.81,9.99c0,0-31.9-9.45-64.11-9.49l-0.47,0c-31.01,0.05-61.7,8.8-63.92,9.45l-0.13,0.04
	c-9.22,9.6-15.69,20.06-20.15,30.65l168.94,0.05C330.52,30.08,324.04,19.6,314.81,9.99"/>
<path class="st0" d="M166.03,40.64l168.94,0.05c-4.45-10.61-10.93-21.09-20.17-30.7c0,0-31.9-9.45-64.11-9.49l-0.47,0
	c-31.01,0.05-61.7,8.8-63.92,9.45l-0.13,0.04C176.96,19.59,170.49,30.05,166.03,40.64z"/>
<g>
	<path class="st3" d="M0.82,253.77c0,0,32.62,21.54,93.18,18.54"/>
	<path class="st3" d="M500.18,253.77c0,0-32.62,21.54-93.18,18.54"/>
</g>
<path class="Colour1 fill" d="M446.82,90.13c0,0-16.14-20.22-92.72-40.07c0,0-12.76-2.62-19.14-9.36H166.04
	c-6.38,6.74-19.14,9.36-19.14,9.36C70.32,69.9,54.18,90.13,54.18,90.13s6.2,35.33,18.61,75.15h355.42
	C440.62,125.45,446.82,90.13,446.82,90.13z"/>
<path class="Colour2 fill" d="M72.8,165.27c5.75,18.45,12.83,37.86,21.25,55.17c0,0,2.66,14.95,5.8,40.49h301.32
	c3.14-25.55,5.8-40.49,5.8-40.49c8.42-17.31,15.5-36.72,21.25-55.17H72.8z"/>
<g>
	<path class="Colour1 fill" d="M99.84,260.94c0.51,4.12,1.02,8.51,1.55,13.16h298.23c0.52-4.66,1.04-9.04,1.55-13.16H99.84z"/>
</g>
<path class="Colour1 fill" d="M399.6,274.1L399.6,274.1c0,0-115.76,140.96,0,288.91h0C384.72,449.3,392.47,337.65,399.6,274.1z"/>
<path class="Colour1 fill" d="M101.41,274.1L101.41,274.1c0,0,115.76,140.96,0,288.91h0C116.29,449.3,108.54,337.65,101.41,274.1z"/>
<g id="BBodyLogos"></g>
</svg>
