<?xml version="1.0" encoding="utf-8"?>
<!-- Generator: Adobe Illustrator 19.1.0, SVG Export Plug-In . SVG Version: 6.00 Build 0)  -->
<svg version="1.1" id="Layer_1" xmlns="http://www.w3.org/2000/svg" xmlns:xlink="http://www.w3.org/1999/xlink" x="0px" y="0px"
	 viewBox="0 0 501.01 643" style="enable-background:new 0 0 501.01 643;" xml:space="preserve">
<style type="text/css">
	<![CDATA[
	@font-face{font-family:'codaheavy';src:url('/fonts/coda-heavy-webfont.woff') format('woff')}
	text{font-family:Impact,codaheavy,sans-serif}
	.Colour1.fill{fill:#151515;}
	.Colour2.fill{fill:#5EA40A;}
	.Colour3.fill{fill:#2B2A36;}
	.ArmTrim.fill{fill:#BC1D4A;}
	.Collar.fill{fill:#74D102;}
	.st0{fill:none;stroke:#000000;stroke-linecap:round;stroke-linejoin:round;}
	.st1{fill:#FFFFFF;}
	.st2{fill:none;stroke:#5D5D5D;stroke-miterlimit:10;}
	.st3{fill:none;stroke:#5D5D5D;stroke-miterlimit:10;stroke-dasharray:1.0004,1.0004;}
	.st4{fill:none;stroke:#000000;stroke-miterlimit:10;}
	.st5{fill:#5D5D5D;}
	.st6{fill:none;stroke:#5D5D5D;stroke-miterlimit:10;stroke-dasharray:1;}
	.white{fill:#ffffff;}
	]]>
</style>
<path class="Colour3 fill" d="M446.82,90.04c0,0,52.18,38.91,53.68,178.08c0,0-43.92,30.68-91.22,17.58c0,0-9.27-30.55-2.32-65.47
	C406.96,220.23,430.18,173.09,446.82,90.04z"/>
<path class="Colour3 fill" d="M54.18,90.04c0,0-52.18,38.91-53.68,178.08c0,0,43.92,30.68,91.22,17.58c0,0,9.27-30.55,2.32-65.47
	C94.04,220.23,70.82,173.09,54.18,90.04z"/>
<path class="Colour3 fill" d="M250.5,641.86c-151.65,0.75-157.91-25.81-157.91-25.81c38.04-190.55,1.45-395.82,1.45-395.82
	C67.46,165.61,54.18,90.04,54.18,90.04s16.14-20.2,92.72-40.03c0,0,12.76-2.62,19.14-9.35h168.92c6.38,6.73,19.14,9.35,19.14,9.35
	c76.58,19.83,92.72,40.03,92.72,40.03s-13.28,75.57-39.86,130.19c0,0-36.59,205.27,1.45,395.82
	C408.41,616.05,402.15,642.61,250.5,641.86"/>
<path class="st0" d="M405.85,228.69c0.37-2.78,0.82-5.61,1.38-8.46 M407.23,220.23c0,0,0.12-0.25,0.34-0.72 M407.58,219.52
	c2.92-6.16,24.05-52.31,39.52-129.48 M405.85,228.69c-4.1,31.25,3.71,57.01,3.71,57.01c47.3,13.09,91.22-17.58,91.22-17.58
	c-1.5-139.17-53.68-178.08-53.68-178.08 M54.45,90.04c0,0-52.18,38.91-53.68,178.08c0,0,43.92,30.68,91.22,17.58
	c0,0,7.81-25.76,3.71-57.01 M54.45,90.04c15.46,77.17,36.6,123.32,39.52,129.48 M93.97,219.52c0.22,0.47,0.34,0.72,0.34,0.72
	 M95.69,228.69c-0.37-2.78-0.82-5.61-1.38-8.46 M407.23,220.23c0.12-0.24,0.23-0.48,0.34-0.72 M95.69,228.69
	c-0.86-5.51-1.38-8.46-1.38-8.46 M95.69,228.69c6.31,40.5,30.65,219.62-2.83,387.35c0,0,6.26,26.56,157.91,25.81
	c151.65,0.75,157.91-25.81,157.91-25.81c-33.48-167.73-9.14-346.85-2.83-387.35 M447.09,90.04c0,0-16.14-20.2-92.72-40.03
	c0,0-12.76-2.62-19.14-9.35H166.31c-6.38,6.73-19.14,9.35-19.14,9.35C70.59,69.84,54.45,90.04,54.45,90.04 M407.23,220.23
	c0,0-0.53,2.95-1.38,8.46 M93.97,219.52c0.11,0.24,0.23,0.48,0.34,0.72"/>
<g>
	<path class="Colour1 fill" d="M250.45,40.66l-84.47-0.06c-6.53,6.75-19.13,9.41-19.13,9.41C77.83,66.35,54.13,90.04,54.13,90.04
		c1.8,11.98,3.97,18.65,3.97,18.65s78.54-41.13,139.35-40.1v40.1c0,0-74.03,5.46-69.67,53.9l38.2,475.99c0,0,109.19,8.82,168.94,0
		l38.2-475.99c4.36-48.43-69.67-53.9-69.67-53.9v-40.1c60.81-1.03,139.35,40.1,139.35,40.1s2.18-6.68,3.97-18.65
		c0,0-23.69-23.69-92.72-40.03c0,0-12.6-2.66-19.13-9.41L250.45,40.66"/>
</g>
<path class="Colour3 fill" d="M436.25,135.43c0,0,27.44,0.76,49.74,25.07c0,0-12.64-46.76-39.21-70.46
	C446.78,90.04,440.28,117.73,436.25,135.43z"/>
<g>
	<path class="Colour1 fill" d="M469.35,282.93l-15.5-74.43c-5.87-28.2-29.62-49.23-58.42-51.69c-0.41-0.04-0.83-0.07-1.25-0.1
		c0,0-1.59-31.88-51.85-38.18c0,0,137.09,15.58,143.66,41.98c0,0,15.14,48.76,14.47,107.62
		C500.45,268.12,485.71,278.73,469.35,282.93z"/>
</g>
<path class="Colour2 fill" d="M481.98,148.18c0,0-43.85-33.91-151.41-34.05l-27.11-5.43c0,0,79.35-24.69,172.5,24.59L481.98,148.18z"/>
<path class="Colour2 fill" d="M350.67,442.44c0,0,8.97-260.36-2.04-281.94c0,0-13.27-35.14-45.17-51.81c0,0,69.92,5.8,69.81,51.81
	L350.67,442.44z"/>
<g>
	<path class="Colour1 fill" d="M392.2,370.45c-10.24,28.39-29.75,102.78-34.24,265.19c5.02-0.81,9.53-1.66,13.6-2.54
		c2.85-97.63,11.28-162.76,19.54-204.59C391.02,408.26,391.44,388.8,392.2,370.45z"/>
</g>
<path class="Colour3 fill" d="M64.76,135.43c0,0-27.44,0.76-49.74,25.07c0,0,12.64-46.76,39.21-70.46
	C54.23,90.04,60.72,117.73,64.76,135.43z"/>
<g>
	<path class="Colour1 fill" d="M31.66,282.93l15.5-74.43c5.87-28.2,29.62-49.23,58.42-51.69c0.41-0.04,0.83-0.07,1.25-0.1
		c0,0,1.59-31.88,51.85-38.18c0,0-137.09,15.58-143.66,41.98c0,0-15.14,48.76-14.47,107.62C0.55,268.12,15.3,278.73,31.66,282.93z"
		/>
</g>
<path class="Colour2 fill" d="M19.03,148.18c0,0,43.85-33.91,151.41-34.05l27.11-5.43c0,0-79.35-24.69-172.5,24.59L19.03,148.18z"/>
<path class="Colour2 fill" d="M150.34,442.44c0,0-8.97-260.36,2.04-281.94c0,0,13.27-35.14,45.17-51.81c0,0-69.92,5.8-69.81,51.81
	L150.34,442.44z"/>
<g>
	<path class="Colour1 fill" d="M108.81,370.45c10.24,28.39,29.75,102.78,34.24,265.19c-5.02-0.81-9.53-1.66-13.6-2.54
		c-2.85-97.63-11.28-162.76-19.54-204.59C109.99,408.26,109.56,388.8,108.81,370.45z"/>
</g>
<path class="st1" d="M186.71,40.66c0,0,3.29,48.89,40.84,61.59c0,0,20.38,9.04,27.53,31.75c0,0,0.04-17.61,20.7-32.73
	c0,0,30.65-7.69,38.52-60.61H186.71z"/>
<g>
	<path class="st2" d="M407.13,267.12c-0.89,12.23,2.16,18.58,2.16,18.58c47.3,13.09,91.22-17.58,91.22-17.58
		c-0.07-6.45-0.25-12.68-0.52-18.7c0,0-45.27,22.26-91.25,17.58L407.13,267.12z"/>
	<path class="st2" d="M93.94,267.12c0.89,12.23-2.16,18.58-2.16,18.58c-47.3,13.09-91.22-17.58-91.22-17.58
		c0.07-6.45,0.25-12.68,0.52-18.7c0,0,45.27,22.26,91.25,17.58L93.94,267.12z"/>
</g>
<path class="st2" d="M236.99,109.06v131.38h29.28c8.29-84.65-14.39-118.74-29.25-131.74L236.99,109.06z"/>
<path class="st2" d="M96.25,596.42c14.67,8.04,53.26,19.27,154.26,18.77c103.23-0.51,140.87-8.07,154.79-15.7"/>
<g>
	<g>
		<path class="st2" d="M96.25,603.02c0.14,0.08,0.29,0.16,0.44,0.24"/>
		<path class="st3" d="M97.57,603.72c15.61,7.98,54.83,18.56,152.94,18.07c103.77-0.51,141.26-8.14,155.01-15.82"/>
		<path class="st2" d="M405.95,605.71c0.15-0.08,0.29-0.17,0.43-0.25"/>
	</g>
</g>
<path class="Collar fill" d="M186.19,9.98c0,0-8.51,71.33,39.04,91.28c0,0-35.54,1.5-62.56,25.94C162.66,127.2,140.14,57.86,186.19,9.98z
	 M250.5,0.5c-32.28,0-64.31,9.48-64.31,9.48s-1.23,13.9,0.52,30.68H314.3c0,0,2.82-17.15,0.52-30.68
	C314.82,9.98,282.79,0.5,250.5,0.5 M314.82,9.98c0,0,8.51,71.33-39.04,91.28c0,0,35.54,1.5,62.56,25.94
	C338.34,127.2,360.86,57.86,314.82,9.98z"/>
<path class="st0" d="M314.77,9.98c0,0,1.63,13.63-0.52,30.64 M314.77,9.98c0,0-32.03-9.48-64.31-9.48s-64.31,9.48-64.31,9.48
	 M314.25,40.61c0.14-0.87,2.75-17.47,0.52-30.64 M314.25,40.61c-2.76,21.9-11.76,49.42-38.52,60.65c0,0,35.54,1.5,62.56,25.94
	c0,0,22.52-69.34-23.52-117.22 M186.14,9.98c-46.05,47.89-23.52,117.22-23.52,117.22c27.03-24.44,62.56-25.94,62.56-25.94
	C177.63,81.31,186.14,9.98,186.14,9.98"/>
<path class="Collar fill" d="M275.78,101.26c0,0-19.87,14.09-20.7,32.73c0,0,9.77,22.24,11.29,42.83c0,0,11.9-49,43.44-67.33
	C309.81,109.49,292.61,102.57,275.78,101.26z"/>
<path class="st0" d="M255.08,133.99c0,0,9.77,22.24,11.29,42.83c0,0,11.9-49,43.44-67.33c0,0-17.21-6.92-34.04-8.23
	C275.78,101.26,255.91,115.35,255.08,133.99z"/>
<g>
	<ellipse class="st4" cx="275.78" cy="123.58" rx="7.13" ry="7.11"/>
	<g>
		<circle cx="273.48" cy="121.36" r="1.01"/>
		<circle cx="278.07" cy="121.36" r="1.01"/>
		<circle cx="273.48" cy="125.8" r="1.01"/>
		<circle cx="278.07" cy="125.8" r="1.01"/>
	</g>
</g>
<g>
	<ellipse class="st4" cx="259.94" cy="155.48" rx="7.13" ry="7.11"/>
	<g>
		<circle class="st5" cx="257.65" cy="153.26" r="1.01"/>
		<circle cx="262.24" cy="153.26" r="1.01"/>
		<circle class="st5" cx="257.65" cy="157.7" r="1.01"/>
		<circle class="st5" cx="262.24" cy="157.7" r="1.01"/>
	</g>
</g>
<g>
	<path class="Collar fill" d="M225.23,101.26c0,0,53.05,16.46,41.04,139.17h-29.28V108.69"/>
</g>
<path class="st0" d="M225.23,101.26l11.76,7.42v131.75h29.28C278.28,117.72,225.23,101.26,225.23,101.26z"/>
<path d="M252.51,150.85c0,0,0.5,0.98,0.86,2.46c0.4,1.47,0.64,3.44,0.64,5.4c0,1.96-0.24,3.93-0.64,5.4
	c-0.36,1.47-0.86,2.46-0.86,2.46s-0.51-0.98-0.86-2.46c-0.4-1.47-0.64-3.44-0.64-5.4c0-1.96,0.24-3.93,0.64-5.4
	C252.01,151.83,252.51,150.85,252.51,150.85z"/>
<path d="M252.51,187.51c0,0,0.5,0.98,0.86,2.46c0.4,1.47,0.64,3.44,0.64,5.4c0,1.96-0.24,3.93-0.64,5.4
	c-0.36,1.47-0.86,2.46-0.86,2.46s-0.51-0.98-0.86-2.46c-0.4-1.47-0.64-3.44-0.64-5.4c0-1.96,0.24-3.93,0.64-5.4
	C252.01,188.5,252.51,187.51,252.51,187.51z"/>
<path d="M252.51,220.93c0,0,0.5,0.98,0.86,2.46c0.4,1.47,0.64,3.44,0.64,5.4c0,1.96-0.24,3.93-0.64,5.4
	c-0.36,1.47-0.86,2.46-0.86,2.46s-0.51-0.98-0.86-2.46c-0.4-1.47-0.64-3.44-0.64-5.4c0-1.96,0.24-3.93,0.64-5.4
	C252.01,221.92,252.51,220.93,252.51,220.93z"/>
<g>
	<path class="st6" d="M0.86,253.53c0,0,32.62,21.52,93.18,18.52"/>
	<path class="st6" d="M500.22,253.53c0,0-32.62,21.52-93.18,18.52"/>
</g>
<path class="white" d="M186.71,39.69c0,0,3.29,48.94,40.84,61.65c0,0,20.38,9.05,27.53,31.78c0,0,0.04-17.63,20.7-32.76
	c0,0,30.65-7.7,38.52-60.67H186.71z"/>
<path class="ArmTrim fill" d="M405.09,266.82c1.83,13.67,3.75,18.93,3.75,18.93c47.57,13.11,92.16-17.6,92.16-17.6
	c-0.07-6.45-0.25-12.69-0.53-18.72c0,0-45.53,22.28-91.78,17.6L405.09,266.82z"/>
<path class="ArmTrim fill" d="M95.59,267.16c-1.13,12.25-3.46,18.46-3.46,18.46C48.48,300.3,0,268.16,0,268.16
	c0.07-6.45,0.25-12.69,0.52-18.72c0,0,45.27,22.28,91.25,17.6L95.59,267.16z"/>
<g id="FBodyLogos"></g>
</svg>
