<?xml version="1.0" encoding="utf-8"?>
<!-- Generator: Adobe Illustrator 19.1.0, SVG Export Plug-In . SVG Version: 6.00 Build 0)  -->
<svg version="1.1" id="Layer_1" xmlns="http://www.w3.org/2000/svg" xmlns:xlink="http://www.w3.org/1999/xlink" x="0px" y="0px"
	 viewBox="0 0 501.01 643" style="enable-background:new 0 0 501.01 643;" xml:space="preserve">
<style type="text/css">
	<![CDATA[
	@font-face{font-family:'codaheavy';src:url('/fonts/coda-heavy-webfont.woff') format('woff')}
	text{font-family:Impact,codaheavy,sans-serif}
	.Number.fill{fill:#000}
	.NumberOutline.stroke{fill:none;stroke:#777;stroke-width:2.5}
	.Colour1.fill{fill:#25468E;}
	.Colour2.fill{fill:#BB3C2E;}
	.Colour3.fill{fill:#233358;}
	.Colour4.fill{fill:#FFFFFF;}
	.ArmTrim.fill{fill:#B5B5B5;}
	.Collar.fill{fill:#233358;}
	.st0{fill:none;stroke:#000000;stroke-linecap:round;stroke-linejoin:round;}
	.st1{fill:none;stroke:#5D5D5D;stroke-miterlimit:10;stroke-dasharray:1;}
	.st2{fill:none;stroke:#5D5D5D;stroke-miterlimit:10;}
	.st3{fill:none;stroke:#5D5D5D;stroke-miterlimit:10;stroke-dasharray:1.0005,1.0005;}
	]]>
</style>
<path class="Colour1 fill" d="M250.5,642.48c-151.65,0.75-157.91-25.84-157.91-25.84c38.04-190.74,1.45-396.2,1.45-396.2
	C67.46,165.77,54.18,90.13,54.18,90.13S70.32,69.9,146.9,50.06c0,0,12.76-2.62,19.14-9.36h168.92c6.38,6.74,19.14,9.36,19.14,9.36
	c76.58,19.85,92.72,40.07,92.72,40.07s-13.28,75.65-39.86,130.32c0,0-36.59,205.47,1.45,396.2
	C408.41,616.65,402.15,643.23,250.5,642.48"/>
<path class="Colour2 fill" d="M250.56,241.9L71.79,162.03c5.92,19.4,13.34,40.09,22.25,58.42c0,0,1.17,6.59,2.87,18.46l153.64,68.65
	l153.21-66.39c1.88-13.3,3.2-20.72,3.2-20.72c8.52-17.53,15.68-37.22,21.47-55.88L250.56,241.9z"/>
<path class="Colour4 fill" d="M250.52,250.09L74.78,171.51c5.37,16.54,11.79,33.56,19.26,48.93c0,0,0.6,3.37,1.56,9.61l155,69.3
	l154.61-68.12c1.07-7,1.74-10.8,1.74-10.8c7.28-14.97,13.56-31.51,18.84-47.65L250.52,250.09z"/>
<g>
	<path class="Colour2 fill" d="M248.98,563.75l-141.52-63.23c-0.88,13.46-2.05,27.08-3.51,40.77l146.56,65.48l146.74-63.54
		c-1.49-13.68-2.67-27.28-3.58-40.74l-143.17,61.95L248.98,563.75z"/>
	<path class="Colour2 fill" d="M393.17,494.5c-0.3-4.95-0.56-9.87-0.79-14.76l-141.87,61.38l-141.8-63.36c-0.22,4.9-0.47,9.82-0.75,14.78
		l142.56,63.69L393.17,494.5z"/>
	<path class="Colour2 fill" d="M248.98,422.89l-140.7-62.86c0.67,13.68,1.16,28.06,1.42,42.97l140.82,62.92l140.76-60.88
		c0.23-14.88,0.7-29.25,1.35-42.93l-142.11,61.47L248.98,422.89z"/>
	<path class="Colour2 fill" d="M106.9,336.09c0.34,5.06,0.65,10.24,0.94,15.53l142.67,63.74l142.54-61.66
		c0.28-5.29,0.59-10.46,0.92-15.52l-143.46,62.07L106.9,336.09z"/>
</g>
<polygon class="Colour3 fill" points="250.63,291.17 335.43,253.81 321.58,226.94 250.5,258.28 186.75,229.79 173.63,256.74 "/>
<path class="Colour3 fill" d="M346.25,232.84l68.92-30.88c3.13-7.67,6.02-15.52,8.68-23.33l-85.7,40.76L346.25,232.84z"/>
<path class="Colour2 fill" d="M335.43,220.69l-13.85,6.25l13.85,26.86l71.19-31.36c0.22-1.3,0.34-2,0.34-2
	c2.28-4.68,4.45-9.52,6.53-14.45l-68.45,30.67L335.43,220.69z"/>
<path class="Colour3 fill" d="M162.78,235.65l-68.92-30.88c-3.13-7.67-6.02-15.52-8.68-23.33l85.7,40.76L162.78,235.65z"/>
<path class="Colour2 fill" d="M173.6,223.5l13.15,6.29l-13.15,26.83l-71.19-31.36c-0.22-1.3-0.34-2-0.34-2
	c-2.28-4.68-4.45-9.52-6.53-14.45l68.45,30.67L173.6,223.5z"/>
<path class="Colour1 fill" d="M446.82,90.13c0,0,52.18,38.95,53.68,178.25c0,0-43.92,30.71-91.22,17.6c0,0-9.27-30.58-2.32-65.53
	C406.96,220.44,430.18,173.26,446.82,90.13z"/>
<path class="Colour1 fill" d="M54.18,90.13c0,0-52.18,38.95-53.68,178.25c0,0,43.92,30.71,91.22,17.6c0,0,9.27-30.58,2.32-65.53
	C94.04,220.44,70.82,173.26,54.18,90.13z"/>
<path class="st0" d="M405.19,228.91c0.86-5.52,1.38-8.47,1.38-8.47 M446.43,90.13c0,0-16.14-20.22-92.72-40.07
	c0,0-12.76-2.62-19.14-9.36H165.65c-6.38,6.74-19.14,9.36-19.14,9.36C69.93,69.9,53.79,90.13,53.79,90.13 M95.04,228.91
	c-0.86-5.52-1.38-8.47-1.38-8.47 M93.31,219.73c0.11,0.24,0.23,0.48,0.34,0.72 M53.79,90.13c0,0,13.17,74.99,39.52,129.6
	 M406.92,219.73c26.35-54.62,39.52-129.6,39.52-129.6 M95.04,228.91c6.31,40.54,30.65,219.84-2.83,387.73
	c0,0,6.26,26.59,157.91,25.84c151.65,0.75,157.91-25.84,157.91-25.84c-33.48-167.89-9.14-347.19-2.83-387.73 M406.92,219.73
	c-0.11,0.24-0.23,0.48-0.34,0.72 M406.57,220.44c-0.57,2.86-1.02,5.68-1.38,8.47 M406.57,220.44c0,0,0.12-0.25,0.34-0.72
	 M405.19,228.91c-4.1,31.28,3.71,57.06,3.71,57.06c47.3,13.11,91.22-17.6,91.22-17.6c-1.5-139.31-53.68-178.25-53.68-178.25
	 M93.31,219.73c0.22,0.47,0.34,0.72,0.34,0.72 M53.79,90.13c0,0-52.18,38.95-53.68,178.25c0,0,43.92,30.71,91.22,17.6
	c0,0,7.81-25.79,3.71-57.06 M95.04,228.91c-0.37-2.79-0.82-5.61-1.38-8.47"/>
<path class="ArmTrim fill" d="M407.13,267.38c-0.89,12.24,2.16,18.6,2.16,18.6c47.3,13.11,91.22-17.6,91.22-17.6
	c-0.07-6.45-0.25-12.69-0.52-18.72c0,0-45.27,22.28-91.25,17.6L407.13,267.38z"/>
<path class="ArmTrim fill" d="M93.94,267.38c0.89,12.24-2.16,18.6-2.16,18.6c-47.3,13.11-91.22-17.6-91.22-17.6
	c0.07-6.45,0.25-12.69,0.52-18.72c0,0,45.27,22.28,91.25,17.6L93.94,267.38z"/>
<path class="Collar fill" d="M314.81,9.99c0,0-31.9-9.45-64.11-9.49l-0.47,0c-31.01,0.05-61.7,8.8-63.92,9.45l-0.13,0.04
	c-9.22,9.6-15.69,20.06-20.15,30.65l168.94,0.05C330.52,30.08,324.04,19.6,314.81,9.99"/>
<path class="st0" d="M165.64,40.64l168.94,0.05c-4.45-10.61-10.93-21.09-20.17-30.7c0,0-31.9-9.45-64.11-9.49l-0.47,0
	c-31.01,0.05-61.7,8.8-63.92,9.45l-0.13,0.04C176.57,19.59,170.09,30.05,165.64,40.64z"/>
<g>
	<path class="st1" d="M0.82,253.77c0,0,32.62,21.54,93.18,18.54"/>
	<path class="st1" d="M500.18,253.77c0,0-32.62,21.54-93.18,18.54"/>
</g>
<path class="st2" d="M96.25,597c14.67,8.05,53.26,19.29,154.26,18.79c103.23-0.51,140.87-8.07,154.79-15.72"/>
<g>
	<g>
		<path class="st2" d="M96.25,603.6c0.14,0.08,0.29,0.16,0.44,0.24"/>
		<path class="st3" d="M97.57,604.3c15.61,7.99,54.83,18.57,152.94,18.09c103.77-0.51,141.26-8.15,155.01-15.84"/>
		<path class="st2" d="M405.95,606.3c0.15-0.08,0.29-0.17,0.43-0.25"/>
	</g>
</g>
<g id="BBodyLogos"></g>
</svg>
