<?xml version="1.0" encoding="utf-8"?>
<!-- Generator: Adobe Illustrator 19.1.0, SVG Export Plug-In . SVG Version: 6.00 Build 0)  -->
<svg version="1.1" id="Layer_1" xmlns="http://www.w3.org/2000/svg" xmlns:xlink="http://www.w3.org/1999/xlink" x="0px" y="0px"
	 viewBox="0 0 501.01 643" style="enable-background:new 0 0 501.01 643;" xml:space="preserve">
<style type="text/css">
	<![CDATA[
	@font-face{font-family:'codaheavy';src:url('/fonts/coda-heavy-webfont.woff') format('woff')}
	text{font-family:Impact,codaheavy,sans-serif}
	.Colour1.fill{fill:#15151B;}
	.Collar.fill{fill:#15151B;}
	.ArmTrim.fill{fill:#BC1D4A;}
	.Gradient1.stopColor{stop-color:#444B56;}
	.Gradient2.stopColor{stop-color:#000000;}
	.st0{fill:url(#SVGID_1_);}
	.st1{fill:url(#SVGID_2_);}
	.st2{fill:url(#SVGID_3_);}
	.st3{fill:url(#SVGID_4_);}
	.st4{fill:url(#SVGID_5_);}
	.st5{fill:url(#SVGID_6_);}
	.st6{fill:url(#SVGID_7_);}
	.st7{fill:url(#SVGID_8_);}
	.st8{fill:url(#SVGID_9_);}
	.st9{fill:url(#SVGID_10_);}
	.st10{fill:url(#SVGID_11_);}
	.st11{fill:none;stroke:#5D5D5D;stroke-miterlimit:10;}
	.st12{fill:none;stroke:#5D5D5D;stroke-miterlimit:10;stroke-dasharray:1.0005,1.0005;}
	.st13{fill:none;stroke:#FFFFFF;stroke-linecap:round;stroke-linejoin:round;}
	.st14{fill:#5D5D5D;}
	.st15{fill:#FFFFFF;stroke:#000000;stroke-miterlimit:10;}
	.st16{fill:none;stroke:#5D5D5D;stroke-miterlimit:10;stroke-dasharray:1;}
	]]>
</style>
<path class="Colour1 fill" d="M250.5,642.48c-151.65,0.75-157.91-25.84-157.91-25.84c38.04-190.74,1.45-396.2,1.45-396.2
	C67.46,165.77,54.18,90.13,54.18,90.13S70.32,69.9,146.9,50.06c0,0,12.76-2.62,19.14-9.36h168.92c6.38,6.74,19.14,9.36,19.14,9.36
	c76.58,19.85,92.72,40.07,92.72,40.07s-13.28,75.65-39.86,130.32c0,0-36.59,205.46,1.45,396.2
	C408.41,616.65,402.15,643.23,250.5,642.48"/>
<path class="st0" d="M348.03,290.35L91.08,68.31c-3.09,1.3-5.94,2.57-8.56,3.8l261.55,226.02l1.59,1.37l52.42-10.92
	c0.31-3.03,0.61-5.98,0.92-8.84L348.03,290.35z"/>
<path class="st1" d="M341.01,318.01L66.39,80.71c-4.13,2.56-7,4.7-8.91,6.29l278.58,240.72l1.98,1.71l57.43-11.97
	c0.3-3.75,0.61-7.42,0.92-11L341.01,318.01z"/>
<g>
	<linearGradient id="SVGID_1_" gradientUnits="userSpaceOnUse" x1="252.7489" y1="114.7866" x2="252.7489" y2="1001.5618">
		<stop class="Gradient1 stopColor" offset="0" style="stop-color:#444B56"/>
		<stop class="Gradient2 stopColor" offset="0.8503" style="stop-color:#000000"/>
	</linearGradient>
	<path class="st0" d="M281.66,559.95l114.77-23.92c-0.79-7.82-1.47-15.6-2.07-23.35l-106.18,22.12L109.06,380.46
		c0.34,10.16,0.58,20.63,0.69,31.36L281.66,559.95z"/>
	<linearGradient id="SVGID_2_" gradientUnits="userSpaceOnUse" x1="255.2141" y1="114.7866" x2="255.2141" y2="1001.5618">
		<stop class="Gradient1 stopColor" offset="0" style="stop-color:#444B56"/>
		<stop class="Gradient2 stopColor" offset="0.8503" style="stop-color:#000000"/>
	</linearGradient>
	<path class="st1" d="M274.04,600.48l127.03-26.47c-1.21-8.43-2.29-16.86-3.26-25.26l-116.66,24.31L109.82,425.41
		c-0.01,10.84-0.15,21.91-0.47,33.15L274.04,600.48z"/>
	<linearGradient id="SVGID_3_" gradientUnits="userSpaceOnUse" x1="173.3685" y1="114.7866" x2="173.3685" y2="1001.5618">
		<stop class="Gradient1 stopColor" offset="0" style="stop-color:#444B56"/>
		<stop class="Gradient2 stopColor" offset="0.8503" style="stop-color:#000000"/>
	</linearGradient>
	<path class="st2" d="M198.25,641.5c13.69,0.64,29.14,1.01,46.59,1L105.71,522.61c-1.04,11.89-2.3,23.86-3.81,35.87L198.25,641.5z"
		/>
	<linearGradient id="SVGID_4_" gradientUnits="userSpaceOnUse" x1="257.3065" y1="114.7866" x2="257.3065" y2="1001.5618">
		<stop class="Gradient1 stopColor" offset="0" style="stop-color:#444B56"/>
		<stop class="Gradient2 stopColor" offset="0.8503" style="stop-color:#000000"/>
	</linearGradient>
	<path class="st3" d="M263.54,642.48c1.38-0.01,2.73-0.02,4.08-0.03l140.08-29.19c-1.75-9.01-3.35-18.06-4.78-27.11l-130.91,27.28
		L108.86,472.84c-0.46,11.42-1.1,22.99-1.95,34.68L263.54,642.48z"/>
	<linearGradient id="SVGID_5_" gradientUnits="userSpaceOnUse" x1="139.387" y1="114.7866" x2="139.387" y2="1001.5618">
		<stop class="Gradient1 stopColor" offset="0" style="stop-color:#444B56"/>
		<stop class="Gradient2 stopColor" offset="0.8503" style="stop-color:#000000"/>
	</linearGradient>
	<path class="st4" d="M100.52,568.97c-1.58,11.48-3.4,22.97-5.48,34.43l35.46,30.56c12.89,2.72,30.15,5.15,53.23,6.71L100.52,568.97
		z"/>
	<linearGradient id="SVGID_6_" gradientUnits="userSpaceOnUse" x1="102.8876" y1="114.7866" x2="102.8876" y2="1001.5618">
		<stop class="Gradient1 stopColor" offset="0" style="stop-color:#444B56"/>
		<stop class="Gradient2 stopColor" offset="0.8503" style="stop-color:#000000"/>
	</linearGradient>
	<path class="st5" d="M93.38,612.28c-0.28,1.46-0.55,2.91-0.84,4.37c0,0,1.5,6.34,20.7,12.75L93.38,612.28z"/>
	<linearGradient id="SVGID_7_" gradientUnits="userSpaceOnUse" x1="246.4362" y1="114.7866" x2="246.4362" y2="1001.5618">
		<stop class="Gradient1 stopColor" offset="0" style="stop-color:#444B56"/>
		<stop class="Gradient2 stopColor" offset="0.8503" style="stop-color:#000000"/>
	</linearGradient>
	<path class="st6" d="M101.46,275.28c0.93,8.4,1.88,17.62,2.78,27.56l196.91,169.68l90.27-18.81c-0.16-6.53-0.26-13-0.31-19.39
		l-84.63,17.63L101.46,275.28z"/>
	<linearGradient id="SVGID_8_" gradientUnits="userSpaceOnUse" x1="249.6681" y1="114.7866" x2="249.6681" y2="1001.5618">
		<stop class="Gradient1 stopColor" offset="0" style="stop-color:#444B56"/>
		<stop class="Gradient2 stopColor" offset="0.8503" style="stop-color:#000000"/>
	</linearGradient>
	<path class="st7" d="M287.43,511.76l3.97,3.42l101.68-21.19c-0.43-7.18-0.78-14.32-1.07-21.4l-94.68,19.73L106.26,327.67
		c0.68,9.4,1.3,19.27,1.82,29.53L287.43,511.76z"/>
	<linearGradient id="SVGID_9_" gradientUnits="userSpaceOnUse" x1="232.3853" y1="114.7866" x2="232.3853" y2="1001.5618">
		<stop class="Gradient1 stopColor" offset="0" style="stop-color:#444B56"/>
		<stop class="Gradient2 stopColor" offset="0.8503" style="stop-color:#000000"/>
	</linearGradient>
	<path class="st8" d="M324.78,381.8L72.46,164.38c2.83,9.12,5.98,18.48,9.46,27.73l235.93,203.3l2.78,2.4l71.11-14.82
		c0.17-5.17,0.36-10.25,0.57-15.26L324.78,381.8z"/>
	<linearGradient id="SVGID_10_" gradientUnits="userSpaceOnUse" x1="243.068" y1="114.7866" x2="243.068" y2="1001.5618">
		<stop class="Gradient1 stopColor" offset="0" style="stop-color:#444B56"/>
		<stop class="Gradient2 stopColor" offset="0.8503" style="stop-color:#000000"/>
	</linearGradient>
	<path class="st9" d="M315.63,415.82L94.84,225.56c0.82,5.07,2.15,13.8,3.7,25.56l209.17,180.25l3.17,2.73l80.21-16.71
		c0.03-5.85,0.1-11.64,0.21-17.34L315.63,415.82z"/>
	<linearGradient id="SVGID_11_" gradientUnits="userSpaceOnUse" x1="226.3749" y1="114.7866" x2="226.3749" y2="1001.5618">
		<stop class="Gradient1 stopColor" offset="0" style="stop-color:#444B56"/>
		<stop class="Gradient2 stopColor" offset="0.8503" style="stop-color:#000000"/>
	</linearGradient>
	<path class="st10" d="M333.92,349.91L58.79,112.82c1.39,6.18,3.09,13.35,5.09,21.17l264.1,227.58l2.38,2.05l62.8-13.09
		c0.25-4.46,0.51-8.84,0.8-13.14L333.92,349.91z"/>
</g>
<path class="st11" d="M407.13,267.38c-0.89,12.24,2.16,18.6,2.16,18.6c47.3,13.11,91.22-17.6,91.22-17.6
	c-0.07-6.45-0.25-12.69-0.52-18.72c0,0-45.27,22.28-91.25,17.6L407.13,267.38z"/>
<path class="st11" d="M93.94,267.38c0.89,12.24-2.16,18.6-2.16,18.6c-47.3,13.11-91.22-17.6-91.22-17.6
	c0.07-6.45,0.25-12.69,0.52-18.72c0,0,45.27,22.28,91.25,17.6L93.94,267.38z"/>
<path class="st11" d="M236.99,109.16v131.51h29.28c8.29-84.73-14.39-118.85-29.25-131.87L236.99,109.16z"/>
<path class="Colour1 fill" d="M446.82,90.13c0,0,52.18,38.95,53.68,178.25c0,0-43.92,30.71-91.22,17.6c0,0-9.27-30.58-2.32-65.53
	C406.96,220.44,430.18,173.26,446.82,90.13z"/>
<path class="Colour1 fill" d="M54.18,90.13c0,0-52.18,38.95-53.68,178.25c0,0,43.92,30.71,91.22,17.6c0,0,9.27-30.58,2.32-65.53
	C94.04,220.44,70.82,173.26,54.18,90.13z"/>
<path class="st11" d="M96.25,597c14.67,8.05,53.26,19.29,154.26,18.79c103.23-0.51,140.87-8.07,154.79-15.72"/>
<g>
	<g>
		<path class="st11" d="M96.25,603.6c0.14,0.08,0.29,0.16,0.44,0.24"/>
		<path class="st12" d="M97.57,604.3c15.61,7.99,54.83,18.57,152.94,18.09c103.77-0.51,141.26-8.15,155.01-15.84"/>
		<path class="st11" d="M405.95,606.3c0.15-0.08,0.29-0.17,0.43-0.25"/>
	</g>
</g>
<path class="Collar fill" d="M186.19,9.99c0,0-8.51,71.4,39.04,91.37c0,0-35.54,1.5-62.56,25.96C162.66,127.32,140.14,57.92,186.19,9.99z
	 M250.5,0.5c-32.28,0-64.31,9.49-64.31,9.49s-1.23,13.91,0.52,30.71H314.3c0,0,2.82-17.17,0.52-30.71
	C314.82,9.99,282.79,0.5,250.5,0.5 M314.82,9.99c0,0,8.51,71.4-39.04,91.37c0,0,35.54,1.5,62.56,25.96
	C338.34,127.32,360.86,57.92,314.82,9.99z"/>
<path class="st13" d="M314.04,9.99c0,0,1.63,13.64-0.52,30.67 M313.53,40.65c0.14-0.87,2.75-17.49,0.52-30.67 M314.04,9.99
	c0,0-32.03-9.49-64.31-9.49s-64.31,9.49-64.31,9.49 M185.41,9.99c-46.05,47.93-23.52,117.34-23.52,117.34
	c27.03-24.47,62.56-25.96,62.56-25.96C176.9,81.39,185.41,9.99,185.41,9.99 M313.53,40.65c-2.76,21.93-11.76,49.47-38.52,60.71
	c0,0,35.54,1.5,62.56,25.96c0,0,22.52-69.4-23.52-117.34"/>
<path class="Collar fill" d="M275.78,101.36c0,0-19.87,14.1-20.7,32.76c0,0,9.77,22.26,11.29,42.87c0,0,11.9-49.05,43.44-67.39
	C309.81,109.6,292.61,102.67,275.78,101.36z"/>
<path class="Collar fill" d="M255.08,134.12c0,0,9.77,22.26,11.29,42.87c0,0,11.9-49.05,43.44-67.39c0,0-17.21-6.93-34.04-8.24
	C275.78,101.36,255.91,115.46,255.08,134.12z"/>
<g>
	<ellipse class="st11" cx="275.78" cy="123.7" rx="7.13" ry="7.12"/>
	<g>
		<circle class="st14" cx="273.48" cy="121.48" r="1.01"/>
		<circle class="st14" cx="278.07" cy="121.48" r="1.01"/>
		<circle class="st14" cx="273.48" cy="125.93" r="1.01"/>
		<circle class="st14" cx="278.07" cy="125.93" r="1.01"/>
	</g>
</g>
<g>
	<ellipse class="st11" cx="259.94" cy="155.63" rx="7.13" ry="7.12"/>
	<g>
		<circle class="st14" cx="257.65" cy="153.41" r="1.01"/>
		<circle class="st14" cx="262.24" cy="153.41" r="1.01"/>
		<circle class="st14" cx="257.65" cy="157.86" r="1.01"/>
		<circle class="st14" cx="262.24" cy="157.86" r="1.01"/>
	</g>
</g>
<path class="Collar fill" d="M225.23,101.36c0,0,53.05,16.48,41.04,139.31h-29.28V108.79"/>
<path d="M225.23,101.36c1.51,0.52,2.96,1.24,4.35,2.03c0.71,0.38,1.37,0.83,2.06,1.24c0.66,0.46,1.33,0.89,1.98,1.36
		c2.59,1.89,5.01,4.01,7.23,6.33c2.22,2.32,4.3,4.77,6.15,7.39c0.46,0.65,0.95,1.29,1.39,1.96l1.31,2.02
		c0.91,1.33,1.65,2.75,2.47,4.13c1.57,2.8,2.96,5.7,4.24,8.64c0.68,1.45,1.2,2.98,1.8,4.46c0.61,1.48,1.1,3.01,1.62,4.53l0.77,2.28
		c0.24,0.76,0.45,1.54,0.68,2.31c0.43,1.55,0.93,3.07,1.3,4.63l1.13,4.68c0.38,1.56,0.64,3.14,0.97,4.71
		c0.68,3.14,1.09,6.32,1.6,9.48c0.25,1.58,0.39,3.18,0.59,4.77c0.17,1.59,0.41,3.18,0.52,4.78l0.38,4.79l0.19,2.4l0.11,2.4
		c0.12,3.2,0.34,6.4,0.32,9.61c0.02,3.21,0.12,6.41,0,9.62c-0.1,3.2-0.08,6.41-0.29,9.61c-0.19,3.2-0.29,6.4-0.55,9.6l-0.78,9.58
		l-0.04,0.44l-0.45,0l-29.28-0.04l-0.45,0l0-0.45l0.14-65.94l0.1-32.97l0.21-32.97l0.2,32.97l0.1,32.97l0.14,65.94l-0.45-0.45
		l29.28-0.04l-0.49,0.44l0.82-9.56c0.28-3.19,0.39-6.38,0.59-9.57c0.23-3.19,0.22-6.39,0.33-9.58c0.13-3.2,0.05-6.39,0.04-9.59
		c0.03-3.2-0.18-6.39-0.28-9.58l-0.1-2.39l-0.18-2.39l-0.36-4.78c-0.11-1.59-0.34-3.18-0.5-4.77c-0.19-1.59-0.33-3.18-0.57-4.76
		c-0.5-3.16-0.89-6.33-1.56-9.46c-0.32-1.56-0.57-3.14-0.95-4.7l-1.11-4.66c-0.37-1.56-0.85-3.08-1.27-4.62
		c-0.22-0.77-0.43-1.54-0.66-2.3l-0.76-2.27c-0.51-1.51-0.99-3.04-1.59-4.52c-0.6-1.48-1.1-3-1.78-4.45
		c-0.66-1.45-1.25-2.94-1.98-4.36c-0.74-1.42-1.39-2.88-2.19-4.26c-0.8-1.38-1.52-2.81-2.4-4.14l-1.28-2.03
		c-0.43-0.67-0.91-1.31-1.36-1.97c-1.82-2.63-3.86-5.09-6.04-7.43c-2.17-2.34-4.56-4.48-7.12-6.4c-0.64-0.48-1.31-0.92-1.96-1.39
		c-0.68-0.42-1.34-0.88-2.04-1.26C228.17,102.63,226.73,101.9,225.23,101.36z"/>
<g>
	<path class="st14" d="M252.51,151c0,0,0.33,0.98,0.57,2.46c0.13,0.74,0.24,1.6,0.31,2.52c0.08,0.92,0.12,1.9,0.12,2.89
		c0,0.98-0.04,1.97-0.12,2.89c-0.07,0.92-0.18,1.78-0.31,2.52c-0.24,1.47-0.57,2.46-0.57,2.46s-0.34-0.98-0.57-2.46
		c-0.13-0.74-0.24-1.6-0.31-2.52c-0.08-0.92-0.12-1.9-0.12-2.89c0-0.98,0.05-1.97,0.12-2.89c0.07-0.92,0.18-1.78,0.31-2.52
		C252.18,151.98,252.51,151,252.51,151z"/>
</g>
<g>
	<path class="st14" d="M252.51,187.69c0,0,0.33,0.98,0.57,2.46c0.13,0.74,0.24,1.6,0.31,2.52c0.08,0.92,0.12,1.9,0.12,2.89
		c0,0.98-0.04,1.97-0.12,2.89c-0.07,0.92-0.18,1.78-0.31,2.52c-0.24,1.47-0.57,2.46-0.57,2.46s-0.34-0.98-0.57-2.46
		c-0.13-0.74-0.24-1.6-0.31-2.52c-0.08-0.92-0.12-1.9-0.12-2.89c0-0.98,0.05-1.97,0.12-2.89c0.07-0.92,0.18-1.78,0.31-2.52
		C252.18,188.68,252.51,187.69,252.51,187.69z"/>
</g>
<g>
	<path class="st14" d="M252.51,221.15c0,0,0.33,0.98,0.57,2.46c0.13,0.74,0.24,1.6,0.31,2.52c0.08,0.92,0.12,1.9,0.12,2.89
		c0,0.98-0.04,1.97-0.12,2.89c-0.07,0.92-0.18,1.78-0.31,2.52c-0.24,1.47-0.57,2.46-0.57,2.46s-0.34-0.98-0.57-2.46
		c-0.13-0.74-0.24-1.6-0.31-2.52c-0.08-0.92-0.12-1.9-0.12-2.89c0-0.98,0.05-1.97,0.12-2.89c0.07-0.92,0.18-1.78,0.31-2.52
		C252.18,222.13,252.51,221.15,252.51,221.15z"/>
</g>
<path class="st15" d="M186.71,40.69c0,0,3.29,48.94,40.84,61.65c0,0,20.38,9.05,27.53,31.78c0,0,0.04-17.63,20.7-32.76
	c0,0,30.65-7.7,38.52-60.67H186.71z"/>
<path class="ArmTrim fill" d="M405.09,267.55c1.83,13.67,3.75,18.93,3.75,18.93c47.57,13.11,92.16-17.6,92.16-17.6
	c-0.07-6.45-0.25-12.69-0.53-18.72c0,0-45.53,22.28-91.78,17.6L405.09,267.55z"/>
<path class="st16" d="M500.22,253.77c0,0-32.62,21.54-93.18,18.54"/>
<path class="ArmTrim fill" d="M95.59,267.88c-1.13,12.25-3.46,18.46-3.46,18.46C48.48,301.02,0,268.88,0,268.88
	c0.07-6.45,0.25-12.69,0.52-18.72c0,0,45.27,22.28,91.25,17.6L95.59,267.88z"/>
<path class="st16" d="M0.86,253.77c0,0,32.62,21.54,93.18,18.54"/>
<g id="FBodyLogos"></g>
</svg>
