<?xml version="1.0" encoding="utf-8"?>
<!-- Generator: Adobe Illustrator 19.1.0, SVG Export Plug-In . SVG Version: 6.00 Build 0)  -->
<svg version="1.1" id="Layer_1" xmlns="http://www.w3.org/2000/svg" xmlns:xlink="http://www.w3.org/1999/xlink" x="0px" y="0px"
	 viewBox="0 0 501.01 643" style="enable-background:new 0 0 501.01 643;" xml:space="preserve">
<style type="text/css">
	<![CDATA[
	@font-face{font-family:'codaheavy';src:url('/fonts/coda-heavy-webfont.woff') format('woff')}
	text{font-family:Impact,codaheavy,sans-serif}
	.Number.fill{fill:#000}
	.NumberOutline.stroke{fill:none;stroke:#777;stroke-width:2.5}
	.Colour1.fill{fill:#1C1D21;}
	.Colour2.fill{fill:#3B3D45;}
	.Colour3.fill{fill:#D20000;}
	.Colour4.fill{fill:#D8D8D8;}
	.ArmTrim.fill{fill:#3B3D45;}
	.Collar.fill{fill:#1C1D21;}
	.st0{fill:none;stroke:#000000;stroke-linecap:round;stroke-linejoin:round;}
	.st1{fill:none;stroke:#5D5D5D;stroke-miterlimit:10;stroke-dasharray:1;}
	.st2{fill:none;stroke:#5D5D5D;stroke-miterlimit:10;}
	.st3{fill:none;stroke:#5D5D5D;stroke-miterlimit:10;stroke-dasharray:1.0004,1.0004;}
	]]>
</style>
<path class="Colour1 fill" d="M250.5,641.54c-151.65,0.75-157.91-25.8-157.91-25.8c38.04-190.45,1.45-395.62,1.45-395.62
	C67.46,165.53,54.18,89.99,54.18,89.99S70.32,69.8,146.9,49.98c0,0,12.76-2.62,19.14-9.35h168.92c6.38,6.73,19.14,9.35,19.14,9.35
	c76.58,19.82,92.72,40.01,92.72,40.01s-13.28,75.53-39.86,130.13c0,0-36.59,205.16,1.45,395.62
	C408.41,615.74,402.15,642.29,250.5,641.54"/>
<path class="Colour2 fill" d="M446.82,89.99c0,0,52.18,38.89,53.68,177.99c0,0-43.92,30.66-91.22,17.57c0,0-9.27-30.54-2.32-65.44
	C406.96,220.12,430.18,173.01,446.82,89.99z"/>
<path class="Colour2 fill" d="M54.18,89.99c0,0-52.18,38.89-53.68,177.99c0,0,43.92,30.66,91.22,17.57c0,0,9.27-30.54,2.32-65.44
	C94.04,220.12,70.82,173.01,54.18,89.99z"/>
<path class="st0" d="M54.18,89.99c0,0,16.14-20.19,92.72-40.01c0,0,12.76-2.62,19.14-9.35h168.92c6.38,6.73,19.14,9.35,19.14,9.35
	c76.58,19.82,92.72,40.01,92.72,40.01 M95.43,228.58c-0.86-5.51-1.38-8.46-1.38-8.46 M93.7,219.4c0.12,0.24,0.23,0.48,0.34,0.72
	 M406.96,220.12c0.12-0.24,0.23-0.48,0.34-0.72 M54.18,89.99c0,0,13.17,74.88,39.52,129.41 M406.96,220.12c0,0-0.53,2.95-1.38,8.46
	 M95.43,228.58c6.31,40.48,30.65,219.51-2.83,387.16c0,0,6.26,26.55,157.91,25.8c151.65,0.75,157.91-25.8,157.91-25.8
	c-33.48-167.65-9.14-346.68-2.83-387.16 M407.31,219.4c26.35-54.54,39.52-129.41,39.52-129.41 M405.58,228.58
	c-4.1,31.23,3.71,56.98,3.71,56.98c47.3,13.09,91.22-17.57,91.22-17.57c-1.5-139.1-53.68-177.99-53.68-177.99 M406.96,220.12
	c0,0,0.12-0.25,0.34-0.72 M406.96,220.12c-0.57,2.85-1.02,5.68-1.38,8.46 M54.18,89.99c0,0-52.18,38.89-53.68,177.99
	c0,0,43.92,30.66,91.22,17.57c0,0,7.81-25.75,3.71-56.98 M93.7,219.4c0.22,0.47,0.34,0.72,0.34,0.72 M95.43,228.58
	c-0.37-2.78-0.82-5.6-1.38-8.46"/>
<path class="Collar fill" d="M314.81,9.97c0,0-31.9-9.43-64.11-9.47l-0.47,0c-31.01,0.05-61.7,8.79-63.92,9.44l-0.13,0.04
	c-9.22,9.58-15.69,20.03-20.15,30.61l168.94,0.05C330.52,30.04,324.04,19.57,314.81,9.97"/>
<path class="st0" d="M166.03,40.58l168.94,0.05c-4.45-10.59-10.93-21.06-20.17-30.66c0,0-31.9-9.43-64.11-9.47l-0.47,0
	c-31.01,0.05-61.7,8.79-63.92,9.44l-0.13,0.04C176.96,19.56,170.49,30,166.03,40.58z"/>
<g>
	<path class="st1" d="M0.82,253.4c0,0,32.62,21.51,93.18,18.51"/>
	<path class="st1" d="M500.18,253.4c0,0-32.62,21.51-93.18,18.51"/>
</g>
<path class="Colour4 fill" d="M98.48,249.9c0,0,11.51,94.55,11.28,156.78l17.79,102.05l41.36,93.99l47.89,38.51
	c0,0,163.15,9.92,191.6-25.48c0,0-15.03-85.88-16.16-139.54c0,0-39.04-127.35-99.69-185.49C292.56,290.71,174.51,174.49,98.48,249.9
	z"/>
<path class="Colour3 fill" d="M180.02,47.65c0,0,0.06,0.2,0.19,0.58c0.09,0.3,0.28,0.87,0.55,1.64c0.54,1.53,1.36,3.83,2.53,6.78
	c1.15,2.94,2.63,6.53,4.45,10.62c1.79,4.1,3.97,8.68,6.42,13.65c2.5,4.95,5.27,10.31,8.42,15.86c1.54,2.8,3.24,5.61,4.93,8.52
	c1.77,2.85,3.5,5.83,5.42,8.75c1.88,2.95,3.81,5.94,5.85,8.92c1.99,3.01,4.13,5.97,6.26,8.98c2.13,3.01,4.41,5.95,6.63,8.96
	c2.32,2.92,4.6,5.92,6.99,8.81c4.77,5.8,9.67,11.53,14.74,16.95c1.27,1.36,2.53,2.71,3.78,4.06c1.26,1.34,2.57,2.62,3.84,3.93
	c1.28,1.3,2.56,2.59,3.82,3.87c1.28,1.27,2.59,2.48,3.87,3.71c2.56,2.46,5.09,4.87,7.67,7.11c2.56,2.27,5.02,4.55,7.56,6.6
	c2.52,2.08,4.92,4.16,7.34,6.07c2.43,1.89,4.78,3.72,7.03,5.47c2.25,1.76,4.52,3.3,6.62,4.85c2.12,1.51,4.1,3.02,6.05,4.28
	c3.88,2.56,7.22,4.92,10.08,6.66c5.71,3.52,8.98,5.54,8.98,5.54s-3.49-1.6-9.6-4.41c-3.07-1.39-6.67-3.32-10.88-5.42
	c-2.12-1.03-4.27-2.29-6.59-3.55c-2.3-1.29-4.77-2.57-7.25-4.07c-2.49-1.49-5.08-3.04-7.77-4.65c-2.68-1.63-5.36-3.43-8.17-5.23
	c-2.83-1.77-5.6-3.77-8.49-5.76c-2.91-1.96-5.78-4.1-8.7-6.28c-1.46-1.09-2.95-2.17-4.42-3.3c-1.45-1.15-2.92-2.31-4.39-3.47
	c-1.47-1.17-2.97-2.32-4.43-3.54c-1.46-1.22-2.92-2.45-4.39-3.69c-5.89-4.93-11.66-10.2-17.33-15.6c-2.84-2.69-5.57-5.49-8.36-8.23
	c-2.68-2.83-5.42-5.6-8.02-8.45c-2.6-2.86-5.21-5.67-7.67-8.55c-2.51-2.84-4.92-5.72-7.26-8.57c-2.38-2.82-4.58-5.71-6.81-8.48
	c-2.14-2.83-4.3-5.58-6.28-8.32c-4.04-5.45-7.68-10.75-10.98-15.7c-3.26-4.97-6.2-9.59-8.68-13.77c-2.5-4.17-4.6-7.88-6.29-11
	c-1.7-3.1-2.97-5.63-3.84-7.39c-0.45-0.94-0.79-1.66-1.03-2.14c-0.22-0.47-0.33-0.72-0.33-0.72L180.02,47.65z"/>
<path class="Colour2 fill" d="M109.77,406.68c0,0,36.38,166.05,107.04,234.54l-47.03-2.6c0,0-48.19-75.93-62.6-134.79L109.77,406.68z"/>
<path class="Colour2 fill" d="M94.04,220.12c0,0,69.98-95.64,198.52,70.59c0,0-122.3-118.21-194.08-40.81l-1.11-8.17
	C97.37,241.73,95.25,227.67,94.04,220.12z"/>
<path class="Colour3 fill" d="M292.56,290.71c0,0,76.77,54.42,98.9,161.92c0,0,0.52,17.87,0.79,23.56
	C392.25,476.2,360.49,360.36,292.56,290.71z"/>
<path class="Colour2 fill" d="M222.86,89.64c13.08,17.66,27.25,35.41,42.67,52.51c15.4,17.11,31.78,33.79,49.1,49.4
	c17.3,15.63,35.39,30.31,53.89,43.74c10.9,7.91,21.93,15.38,33.01,22.39c1.51-12.01,2.88-21.48,3.87-27.9
	c-6.5-5.27-12.95-10.71-19.31-16.32c-16.38-14.45-32.18-29.98-47.08-46.27c-14.92-16.27-28.82-33.41-41.7-50.79
	c-12.9-17.37-24.54-35.2-35.14-52.79c-4.61-7.69-8.97-15.36-13.12-22.97h-59.28C199.73,56.71,210.74,73.19,222.86,89.64z"/>
<path class="Colour3 fill" d="M471.32,123.29c0,0-5.13,66.93-68.71,126c0,0,66.17-41.74,83.37-89.05
	C485.98,160.24,480.5,138.86,471.32,123.29z"/>
<path class="Colour1 fill" d="M485.98,160.24c0,0,5.97,16.94,8.97,39.39l-85.66,85.93c0,0-2.09-4.98-6.68-36.27
	C402.61,249.29,467.53,208.3,485.98,160.24z"/>
<path class="Colour3 fill" d="M29.77,123.29c0,0,5.13,66.93,68.71,126c0,0-66.17-41.74-83.37-89.05
	C15.11,160.24,20.59,138.86,29.77,123.29z"/>
<path class="Colour1 fill" d="M15.11,160.24c0,0-5.97,16.94-8.97,39.39l85.66,85.93c0,0,2.09-4.98,6.68-36.27
	C98.48,249.29,33.56,208.3,15.11,160.24z"/>
<path class="st2" d="M96.25,596.12c14.67,8.04,53.26,19.26,154.26,18.76c103.23-0.51,140.87-8.06,154.79-15.7"/>
<g>
	<g>
		<path class="st2" d="M96.25,602.71c0.14,0.08,0.29,0.16,0.44,0.24"/>
		<path class="st3" d="M97.57,603.41c15.61,7.97,54.83,18.55,152.94,18.06c103.77-0.51,141.26-8.14,155.01-15.82"/>
		<path class="st2" d="M405.95,605.41c0.15-0.08,0.29-0.17,0.43-0.25"/>
	</g>
</g>
<path class="ArmTrim fill" d="M407.13,266.98c-0.89,12.23,2.16,18.57,2.16,18.57c47.3,13.09,91.22-17.57,91.22-17.57
	c-0.07-6.44-0.25-12.67-0.52-18.69c0,0-45.27,22.25-91.25,17.57L407.13,266.98z"/>
<path class="ArmTrim fill" d="M93.94,266.98c0.89,12.23-2.16,18.57-2.16,18.57c-47.3,13.09-91.22-17.57-91.22-17.57
	c0.07-6.44,0.25-12.67,0.52-18.69c0,0,45.27,22.25,91.25,17.57L93.94,266.98z"/>
<g id="BBodyLogos"></g>
</svg>
