<?xml version="1.0" encoding="utf-8"?>
<!-- Generator: Adobe Illustrator 19.1.0, SVG Export Plug-In . SVG Version: 6.00 Build 0)  -->
<svg version="1.1" id="Layer_1" xmlns="http://www.w3.org/2000/svg" xmlns:xlink="http://www.w3.org/1999/xlink" x="0px" y="0px"
	 viewBox="0 0 501.01 643" style="enable-background:new 0 0 501.01 643;" xml:space="preserve">
<style type="text/css">
	<![CDATA[
	@font-face{font-family:'codaheavy';src:url('/fonts/coda-heavy-webfont.woff') format('woff')}
	text{font-family:Impact,codaheavy,sans-serif}
	.Number.fill{fill:#000}
	.NumberOutline.stroke{fill:none;stroke:#777;stroke-width:2.5}
	.Colour1.fill{fill:#151515;}
	.Colour2.fill{fill:#74D102;}
	.Colour3.fill{fill:#29292B;}
	.Lines1.stroke{fill:none;stroke:#74D102;stroke-width:2;stroke-miterlimit:10;}
	.ArmTrim.fill{fill:#BC1D4A;}
	.Collar.fill{fill:#151515;}
	.st0{fill:none;stroke:#5D5D5D;stroke-miterlimit:10;}
	.st1{fill:none;stroke:#000000;stroke-linecap:round;stroke-linejoin:round;}
	.st2{fill:none;stroke:#5D5D5D;stroke-miterlimit:10;stroke-dasharray:1.0004,1.0004;}
	.st3{fill:none;stroke:#5D5D5D;stroke-miterlimit:10;stroke-dasharray:1;}
	]]>
</style>
<path class="Colour1 fill" d="M250.5,642.29c-151.65,0.75-157.91-25.83-157.91-25.83c38.04-190.68,1.45-396.08,1.45-396.08
	C67.46,165.72,54.18,90.1,54.18,90.1s16.14-20.22,92.72-40.06c0,0,12.76-2.62,19.14-9.36h168.92c6.38,6.74,19.14,9.36,19.14,9.36
	c76.58,19.84,92.72,40.06,92.72,40.06s-13.28,75.62-39.86,130.28c0,0-36.59,205.4,1.45,396.08
	C408.41,616.46,402.15,643.04,250.5,642.29"/>
<g>
	<path class="st0" d="M407.13,267.3c-0.89,12.24,2.16,18.6,2.16,18.6c47.3,13.1,91.22-17.6,91.22-17.6
		c-0.07-6.45-0.25-12.69-0.52-18.72c0,0-45.27,22.27-91.25,17.59L407.13,267.3z"/>
	<path class="st0" d="M93.94,267.3c0.89,12.24-2.16,18.6-2.16,18.6C44.48,299,0.56,268.3,0.56,268.3
		c0.07-6.45,0.25-12.69,0.52-18.72c0,0,45.27,22.27,91.25,17.59L93.94,267.3z"/>
</g>
<path class="Colour1 fill" d="M446.82,90.1c0,0,52.18,38.93,53.68,178.2c0,0-43.92,30.7-91.22,17.6c0,0-9.27-30.57-2.32-65.51
	C406.96,220.38,430.18,173.21,446.82,90.1z"/>
<path class="Colour1 fill" d="M54.18,90.1c0,0-52.18,38.93-53.68,178.2c0,0,43.92,30.7,91.22,17.6c0,0,9.27-30.57,2.32-65.51
	C94.04,220.38,70.82,173.21,54.18,90.1z"/>
<path class="st1" d="M405.58,228.85c0.86-5.51,1.38-8.47,1.38-8.47 M446.82,90.1c0,0-16.14-20.22-92.72-40.06
	c0,0-12.76-2.62-19.14-9.36H166.04c-6.38,6.74-19.14,9.36-19.14,9.36C70.32,69.88,54.18,90.1,54.18,90.1 M95.43,228.85
	c-0.86-5.51-1.38-8.47-1.38-8.47 M95.43,228.85c6.31,40.53,30.65,219.77-2.83,387.61c0,0,6.26,26.58,157.91,25.83
	c151.65,0.75,157.91-25.83,157.91-25.83c-33.48-167.84-9.14-347.09-2.83-387.61 M93.7,219.66c0.12,0.24,0.23,0.48,0.34,0.72
	 M407.31,219.66c26.35-54.6,39.52-129.56,39.52-129.56 M407.31,219.66c-0.12,0.24-0.23,0.48-0.34,0.72 M54.18,90.1
	c0,0,13.17,74.96,39.52,129.56 M406.96,220.38c0,0,0.12-0.25,0.34-0.72 M406.96,220.38c-0.57,2.86-1.02,5.68-1.38,8.47
	 M405.58,228.85c-4.1,31.27,3.71,57.05,3.71,57.05c47.3,13.1,91.22-17.6,91.22-17.6C499,129.03,446.82,90.1,446.82,90.1
	 M95.43,228.85c-0.37-2.79-0.82-5.61-1.38-8.47 M54.18,90.1c0,0-52.18,38.93-53.68,178.2c0,0,43.92,30.7,91.22,17.6
	c0,0,7.81-25.78,3.71-57.05 M93.7,219.66c0.22,0.47,0.34,0.72,0.34,0.72"/>
<path class="st0" d="M96.25,596.82c14.67,8.05,53.26,19.28,154.26,18.78c103.23-0.51,140.87-8.07,154.79-15.71"/>
<g>
	<g>
		<path class="st0" d="M96.25,603.42c0.14,0.08,0.29,0.16,0.44,0.24"/>
		<path class="st2" d="M97.57,604.12c15.61,7.98,54.83,18.57,152.94,18.08c103.77-0.51,141.26-8.15,155.01-15.84"/>
		<path class="st0" d="M405.95,606.12c0.15-0.08,0.29-0.17,0.43-0.25"/>
	</g>
</g>
<path class="Collar fill" d="M314.81,9.98c0,0-31.9-9.44-64.11-9.48l-0.47,0c-31.01,0.05-61.7,8.8-63.92,9.45l-0.13,0.04
	c-9.22,9.6-15.69,20.05-20.15,30.64l168.94,0.05C330.52,30.07,324.04,19.6,314.81,9.98"/>
<path class="st1" d="M166.03,40.62l168.94,0.05c-4.45-10.61-10.93-21.08-20.17-30.69c0,0-31.9-9.44-64.11-9.48l-0.47,0
	c-31.01,0.05-61.7,8.8-63.92,9.45l-0.13,0.04C176.96,19.58,170.49,30.04,166.03,40.62z"/>
<g>
	<path class="st3" d="M0.82,253.7c0,0,32.62,21.53,93.18,18.53"/>
	<path class="st3" d="M500.18,253.7c0,0-32.62,21.53-93.18,18.53"/>
</g>
<rect x="237.74" y="81.61" class="Colour3 fill" width="25.53" height="560.89"/>
<rect x="237.74" y="40.99" class="Colour2 fill" width="25.53" height="40.62"/>
<path class="Lines1 stroke" d="M250.5,81.61h-79.22c-29.79,0-59.35,5.96-86.5,18.17c-0.39,0.17-0.78,0.35-1.17,0.53
	c-15.11,6.91-26.75,19.65-32.33,35.26C38.89,170.2,16.3,237.71,13.8,275.85"/>
<path class="Lines1 stroke" d="M250.5,81.61h79.22c29.79,0,59.35,5.96,86.5,18.17c0.39,0.17,0.78,0.35,1.17,0.53
	c15.11,6.91,26.75,19.65,32.33,35.26c12.38,34.62,34.97,102.13,37.47,140.27"/>
<path class="st7" d="M186.71,39.69c0,0,3.29,48.94,40.84,61.65c0,0,20.38,9.05,27.53,31.78c0,0,0.04-17.63,20.7-32.76
	c0,0,30.65-7.7,38.52-60.67H186.71z"/>
<path class="ArmTrim fill" d="M405.09,266.82c1.83,13.67,3.75,18.93,3.75,18.93c47.57,13.11,92.16-17.6,92.16-17.6
	c-0.07-6.45-0.25-12.69-0.53-18.72c0,0-45.53,22.28-91.78,17.6L405.09,266.82z"/>
<path class="ArmTrim fill" d="M95.59,267.16c-1.13,12.25-3.46,18.46-3.46,18.46C48.48,300.3,0,268.16,0,268.16
	c0.07-6.45,0.25-12.69,0.52-18.72c0,0,45.27,22.28,91.25,17.6L95.59,267.16z"/>
<g id="BBodyLogos"></g>
</svg>
