<?xml version="1.0" encoding="utf-8"?>
<!-- Generator: Adobe Illustrator 19.1.0, SVG Export Plug-In . SVG Version: 6.00 Build 0)  -->
<svg version="1.1" id="Layer_1" xmlns="http://www.w3.org/2000/svg" xmlns:xlink="http://www.w3.org/1999/xlink" x="0px" y="0px"
	 viewBox="0 0 501.01 643" style="enable-background:new 0 0 501.01 643;" xml:space="preserve">
<style type="text/css">
	<![CDATA[
	@font-face{font-family:'codaheavy';src:url('/fonts/coda-heavy-webfont.woff') format('woff')}
	text{font-family:Impact,codaheavy,sans-serif}
	.Number.fill{fill:#000}
	.NumberOutline.stroke{fill:none;stroke:#777;stroke-width:2.5}
	.Colour1.fill{fill:#15151B;}
	.Collar.fill{fill:#15151B;stroke:#000000;stroke-miterlimit:10;}
	.ArmTrim.fill{fill:#BC1D4A;}
	.Gradient1.stopColor{stop-color:#444B56;}
	.Gradient2.stopColor{stop-color:#000000;}
	.st0{fill:url(#SVGID_1_);}
	.st1{fill:url(#SVGID_2_);}
	.st2{fill:url(#SVGID_3_);}
	.st3{fill:url(#SVGID_4_);}
	.st4{fill:url(#SVGID_5_);}
	.st5{fill:url(#SVGID_6_);}
	.st6{fill:url(#SVGID_7_);}
	.st7{fill:url(#SVGID_8_);}
	.st8{fill:url(#SVGID_9_);}
	.st9{fill:url(#SVGID_10_);}
	.st10{fill:url(#SVGID_11_);}
	.st11{fill:none;stroke:#5D5D5D;stroke-miterlimit:10;}
	.st12{fill:none;stroke:#5D5D5D;stroke-miterlimit:10;stroke-dasharray:1.0005,1.0005;}
	.st13{fill:none;stroke:#5D5D5D;stroke-miterlimit:10;stroke-dasharray:1;}
	]]>
</style>
<path class="Colour1 fill" d="M250.5,642.48c-151.65,0.75-157.91-25.84-157.91-25.84c38.04-190.74,1.45-396.2,1.45-396.2
	C67.46,165.77,54.18,90.13,54.18,90.13S70.32,69.9,146.9,50.06c0,0,12.76-2.62,19.14-9.36h168.92c6.38,6.74,19.14,9.36,19.14,9.36
	c76.58,19.85,92.72,40.07,92.72,40.07s-13.28,75.65-39.86,130.32c0,0-36.59,205.47,1.45,396.2
	C408.41,616.65,402.15,643.23,250.5,642.48"/>
<path class="st1" d="M347.97,290.35L91.02,68.31c-3.09,1.3-5.94,2.57-8.56,3.8l261.55,226.02l1.59,1.37l52.42-10.92
	c0.31-3.03,0.61-5.98,0.92-8.84L347.97,290.35z"/>
<path class="st2" d="M340.95,318.01L66.33,80.71c-4.13,2.56-7,4.7-8.91,6.29L336,327.73l1.98,1.71l57.43-11.97
	c0.3-3.75,0.61-7.42,0.92-11L340.95,318.01z"/>
<g>
	<linearGradient id="SVGID_1_" gradientUnits="userSpaceOnUse" x1="252.7489" y1="114.7866" x2="252.7489" y2="1001.5618">
		<stop class="Gradient1 stopColor" offset="0" style="stop-color:#444B56"/>
		<stop class="Gradient2 stopColor" offset="0.8503" style="stop-color:#000000"/>
	</linearGradient>
	<path class="st0" d="M281.66,559.95l114.77-23.92c-0.79-7.82-1.47-15.6-2.07-23.35l-106.18,22.12L109.06,380.46
		c0.34,10.16,0.58,20.63,0.69,31.36L281.66,559.95z"/>
	<linearGradient id="SVGID_2_" gradientUnits="userSpaceOnUse" x1="255.2141" y1="114.7866" x2="255.2141" y2="1001.5618">
		<stop class="Gradient1 stopColor" offset="0" style="stop-color:#444B56"/>
		<stop class="Gradient2 stopColor" offset="0.8503" style="stop-color:#000000"/>
	</linearGradient>
	<path class="st1" d="M274.04,600.48l127.03-26.47c-1.21-8.43-2.29-16.86-3.26-25.26l-116.66,24.31L109.82,425.41
		c-0.01,10.84-0.15,21.91-0.47,33.15L274.04,600.48z"/>
	<linearGradient id="SVGID_3_" gradientUnits="userSpaceOnUse" x1="173.3685" y1="114.7866" x2="173.3685" y2="1001.5618">
		<stop class="Gradient1 stopColor" offset="0" style="stop-color:#444B56"/>
		<stop class="Gradient2 stopColor" offset="0.8503" style="stop-color:#000000"/>
	</linearGradient>
	<path class="st2" d="M198.25,641.5c13.69,0.64,29.14,1.01,46.59,1L105.71,522.61c-1.04,11.89-2.3,23.86-3.81,35.87L198.25,641.5z"
		/>
	<linearGradient id="SVGID_4_" gradientUnits="userSpaceOnUse" x1="257.3065" y1="114.7866" x2="257.3065" y2="1001.5618">
		<stop class="Gradient1 stopColor" offset="0" style="stop-color:#444B56"/>
		<stop class="Gradient2 stopColor" offset="0.8503" style="stop-color:#000000"/>
	</linearGradient>
	<path class="st3" d="M263.54,642.48c1.38-0.01,2.73-0.02,4.08-0.03l140.08-29.19c-1.75-9.01-3.35-18.06-4.78-27.11l-130.91,27.28
		L108.86,472.84c-0.46,11.42-1.1,22.99-1.95,34.68L263.54,642.48z"/>
	<linearGradient id="SVGID_5_" gradientUnits="userSpaceOnUse" x1="139.387" y1="114.7866" x2="139.387" y2="1001.5618">
		<stop class="Gradient1 stopColor" offset="0" style="stop-color:#444B56"/>
		<stop class="Gradient2 stopColor" offset="0.8503" style="stop-color:#000000"/>
	</linearGradient>
	<path class="st4" d="M100.52,568.97c-1.58,11.48-3.4,22.97-5.48,34.43l35.46,30.56c12.89,2.72,30.15,5.15,53.23,6.71L100.52,568.97
		z"/>
	<linearGradient id="SVGID_6_" gradientUnits="userSpaceOnUse" x1="102.8876" y1="114.7866" x2="102.8876" y2="1001.5618">
		<stop class="Gradient1 stopColor" offset="0" style="stop-color:#444B56"/>
		<stop class="Gradient2 stopColor" offset="0.8503" style="stop-color:#000000"/>
	</linearGradient>
	<path class="st5" d="M93.38,612.28c-0.28,1.46-0.55,2.91-0.84,4.37c0,0,1.5,6.34,20.7,12.75L93.38,612.28z"/>
	<linearGradient id="SVGID_7_" gradientUnits="userSpaceOnUse" x1="246.4362" y1="114.7866" x2="246.4362" y2="1001.5618">
		<stop class="Gradient1 stopColor" offset="0" style="stop-color:#444B56"/>
		<stop class="Gradient2 stopColor" offset="0.8503" style="stop-color:#000000"/>
	</linearGradient>
	<path class="st6" d="M101.46,275.28c0.93,8.4,1.88,17.62,2.78,27.56l196.91,169.68l90.27-18.81c-0.16-6.53-0.26-13-0.31-19.39
		l-84.63,17.63L101.46,275.28z"/>
	<linearGradient id="SVGID_8_" gradientUnits="userSpaceOnUse" x1="249.6681" y1="114.7866" x2="249.6681" y2="1001.5618">
		<stop class="Gradient1 stopColor" offset="0" style="stop-color:#444B56"/>
		<stop class="Gradient2 stopColor" offset="0.8503" style="stop-color:#000000"/>
	</linearGradient>
	<path class="st7" d="M287.43,511.76l3.97,3.42l101.68-21.19c-0.43-7.18-0.78-14.32-1.07-21.4l-94.68,19.73L106.26,327.67
		c0.68,9.4,1.3,19.27,1.82,29.53L287.43,511.76z"/>
	<linearGradient id="SVGID_9_" gradientUnits="userSpaceOnUse" x1="232.3853" y1="114.7866" x2="232.3853" y2="1001.5618">
		<stop class="Gradient1 stopColor" offset="0" style="stop-color:#444B56"/>
		<stop class="Gradient2 stopColor" offset="0.8503" style="stop-color:#000000"/>
	</linearGradient>
	<path class="st8" d="M324.78,381.8L72.46,164.38c2.83,9.12,5.98,18.48,9.46,27.73l235.93,203.3l2.78,2.4l71.11-14.82
		c0.17-5.17,0.36-10.25,0.57-15.26L324.78,381.8z"/>
	<linearGradient id="SVGID_10_" gradientUnits="userSpaceOnUse" x1="243.068" y1="114.7866" x2="243.068" y2="1001.5618">
		<stop class="Gradient1 stopColor" offset="0" style="stop-color:#444B56"/>
		<stop class="Gradient2 stopColor" offset="0.8503" style="stop-color:#000000"/>
	</linearGradient>
	<path class="st9" d="M315.63,415.82L94.84,225.56c0.82,5.07,2.15,13.8,3.7,25.56l209.17,180.25l3.17,2.73l80.21-16.71
		c0.03-5.85,0.1-11.64,0.21-17.34L315.63,415.82z"/>
	<linearGradient id="SVGID_11_" gradientUnits="userSpaceOnUse" x1="226.3749" y1="114.7866" x2="226.3749" y2="1001.5618">
		<stop class="Gradient1 stopColor" offset="0" style="stop-color:#444B56"/>
		<stop class="Gradient2 stopColor" offset="0.8503" style="stop-color:#000000"/>
	</linearGradient>
	<path class="st10" d="M333.92,349.91L58.79,112.82c1.39,6.18,3.09,13.35,5.09,21.17l264.1,227.58l2.38,2.05l62.8-13.09
		c0.25-4.46,0.51-8.84,0.8-13.14L333.92,349.91z"/>
</g>
<g>
	<path class="st11" d="M407.13,267.38c-0.89,12.24,2.16,18.6,2.16,18.6c47.3,13.11,91.22-17.6,91.22-17.6
		c-0.07-6.45-0.25-12.69-0.52-18.72c0,0-45.27,22.28-91.25,17.6L407.13,267.38z"/>
	<path class="st11" d="M93.94,267.38c0.89,12.24-2.16,18.6-2.16,18.6c-47.3,13.11-91.22-17.6-91.22-17.6
		c0.07-6.45,0.25-12.69,0.52-18.72c0,0,45.27,22.28,91.25,17.6L93.94,267.38z"/>
</g>
<path class="Colour1 fill" d="M446.82,90.13c0,0,52.18,38.95,53.68,178.25c0,0-43.92,30.71-91.22,17.6c0,0-9.27-30.58-2.32-65.53
	C406.96,220.44,430.18,173.26,446.82,90.13z"/>
<path class="Colour1 fill" d="M54.18,90.13c0,0-52.18,38.95-53.68,178.25c0,0,43.92,30.71,91.22,17.6c0,0,9.27-30.58,2.32-65.53
	C94.04,220.44,70.82,173.26,54.18,90.13z"/>
<path class="st11" d="M96.25,597c14.67,8.05,53.26,19.29,154.26,18.79c103.23-0.51,140.87-8.07,154.79-15.72"/>
<g>
	<g>
		<path class="st11" d="M96.25,603.6c0.14,0.08,0.29,0.16,0.44,0.24"/>
		<path class="st12" d="M97.57,604.3c15.61,7.99,54.83,18.57,152.94,18.09c103.77-0.51,141.26-8.15,155.01-15.84"/>
		<path class="st11" d="M405.95,606.3c0.15-0.08,0.29-0.17,0.43-0.25"/>
	</g>
</g>
<path class="Collar fill" d="M314.81,9.99c0,0-31.9-9.45-64.11-9.49l-0.47,0c-31.01,0.05-61.7,8.8-63.92,9.45l-0.13,0.04
	c-9.22,9.6-15.69,20.06-20.15,30.65l168.94,0.05C330.52,30.08,324.04,19.6,314.81,9.99"/>
<g id="BBodyLogos"></g>
<path class="ArmTrim fill" d="M405.34,268.4c1.38,12.23,3.38,17.98,3.38,17.98c45.25,13.75,92.28-17.47,92.28-17.47
	c-0.07-6.45-0.35-12.59-0.62-18.62c0,0-45.66,22.67-91.65,17.99L405.34,268.4z"/>
<path class="ArmTrim fill" d="M95.72,267.14c-1.38,14.24-3.75,19.24-3.75,19.24c-47.25,13.13-92.47-17.42-91.88-17.6
	c0.07-6.45,0.1-12.69,0.38-18.72c0,0,46.33,22.28,92.31,17.6L95.72,267.14z"/>
<g>
	<path class="st13" d="M0.82,253.77c0,0,32.62,21.54,93.18,18.54"/>
	<path class="st13" d="M500.18,253.77c0,0-32.62,21.54-93.18,18.54"/>
</g>
</svg>
