<?xml version="1.0" encoding="UTF-8"?>
<svg version="1.1" xmlns="http://www.w3.org/2000/svg" xmlns:xlink="http://www.w3.org/1999/xlink" width="100%" height="100%" viewBox="0 0 81714 77500">
 <defs>
 <style type="text/css">
 <![CDATA[
	@font-face{font-family:'codaheavy';src:url('/fonts/coda-heavy-webfont.woff') format('woff')}
	text{font-family:Impact,codaheavy,sans-serif}
	.outline{fill:none;stroke:#0A1923;stroke-width:2033;stroke-miterlimit:1;}
	.logo{fill:none;stroke:none}
	.loop{fill:#FFF}
	.Collar.fill{fill:#fff}
	.Insert.fill{fill:#fff}
	.Neck{fill:#fff}
	.Number.fill{fill:#000}
	.NumberOutline.stroke{fill:none;stroke:#777;stroke-width:2.5}
	.Colour1.fill{fill:#fff}
	.Colour2.fill{fill:#fff}
	.Colour3.fill{fill:#fff}
 ]]>
 </style>
 <clipPath id="LSC"><path id="LSO" d="M81710 8337l-4498 16225c-3046,-411 -7536,-216 -11910,2616 -608,394 -774,1350 -1083,2202 -288,127 -587,262 -898,419 -3636,-9813 -7725,-21604 -16287,-26055 5,-968 -28,-1811 -110,-2553l0 0 5754 1182c9603,1078 19249,3147 29032,5964z"/></clipPath>
 <clipPath id="RSC"><path id="RSO" d="M5 8337l4497 16225c3047,-411 7537,-216 11910,2616 609,394 774,1350 1084,2202 287,127 587,262 898,419 3636,-9813 7724,-21604 16286,-26055 -5,-968 28,-1811 110,-2553l0 0 -5754 1182c-9603,1078 -19249,3147 -29031,5964z"/></clipPath>
 <clipPath id="BC"><path id="BO" d="M16412 27178c2761,-2093 4078,-5522 5682,-9184 2483,-5666 4473,-10656 12580,-14261 -27,6400 2382,6720 6042,6906l66 132 75 150 75 -150 66 -132c3660,-186 6069,-506 6043,-6906 8106,3605 10097,8595 12579,14261 1605,3662 2921,7091 5682,9184 -828,1291 -1608,3166 -1763,5445 -1010,14866 35,28765 769,42852 -15634,2694 -31268,2696 -46902,0 734,-14087 1780,-27986 769,-42852 -155,-2279 -934,-4154 -1763,-5445z"/></clipPath>
 <linearGradient id="NeckFade" gradientUnits="objectBoundingBox" x1="0%" y1="0%" x2="0%" y2="100%"><stop offset="0" stop-color="#CCC"/><stop offset="1" stop-color="#333"/></linearGradient>
 </defs>
 <g clip-path="url(#LSC)">
	<rect class="Colour1 fill" width="81714" height="77500"/>
 <polygon class="Colour2 fill" points="74460,30747 72088,6984 86225,-12262 102704,-7754 90939,35255 "/>
 <path class="Colour2 fill" d="M69698 6331l3178 38839c198,21 395,43 590,67l-3171 -38743 22449 -31734c-179,-79 -360,-160 -541,-242l-22505 31813z"/>
 <path class="Colour3 fill" d="M70893 6658l3163 38656c199,28 396,58 590,89l-3156 -38582 22356 -31604c-184,-72 -369,-146 -554,-224l-22399 31665z"/>
 <path class="Colour2 fill" d="M72088 6984l3150 38523c779,146 1515,327 2196,553l3529 775 144 -245 -3102 -37987 22006 -31119 0 -284 -3432 -1129c-701,-152 -1426,-371 -2171,-642l-22320 31555z"/>
 <path class="Colour1 fill" d="M75238 45507l-3150 -38523 22320 -31555c-186,-67 -374,-138 -562,-212l-22356 31604 3156 38582c200,33 398,67 592,104z"/>
	<rect class="logo" id="LeftSleeve" x="33357" y="0" width="15000" height="9000" transform="translate(28000,5100)rotate(-75,40857,0)"/>	
 <g id="LSLogos"></g>
 </g>
 <use xlink:href="#LSO" class="outline"/>
 <g clip-path="url(#RSC)">
	<rect class="Colour1 fill" width="81714" height="77500"/>
 <polygon class="Colour3 fill" points="7427,30623 9788,6860 -4358,-12380 -20835,-7865 -9050,35139 "/>
 <path class="Colour3 fill" d="M12178 6205l-3161 38840c-198,21 -394,44 -589,68l3153 -38744 -22464 -31725c180,-78 360,-159 541,-242l22520 31803z"/>
 <path class="Colour2 fill" d="M10983 6532l-3145 38658c-199,28 -396,58 -591,90l3139 -38584 -22370 -31594c183,-71 368,-146 554,-224l22413 31654z"/>
 <path class="Colour3 fill" d="M9788 6860l-3133 38524c-778,146 -1514,327 -2195,553l-3528 777 -145 -244 3085 -37989 -22021 -31109 0 -284 3432 -1130c701,-153 1426,-372 2171,-643l22334 31545z"/>
 <path class="Colour1 fill" d="M6655 45384l3133 -38524 -22334 -31545c186,-68 373,-139 562,-213l22370 31594 -3139 38584c-200,32 -397,67 -592,104z"/>
	<rect class="logo" id="RightSleeve" x="33357" y="0" width="15000" height="9000" transform="translate(-28000,5100)rotate(75,40857,0)"/>	
 <g id="RSLogos"></g>
 </g>
 <use xlink:href="#RSO" class="outline"/>
 <g clip-path="url(#BC)">
	<rect class="Colour1 fill" width="81714" height="77500"/>
 <path class="Colour3 fill" d="M-31451 39551l159221 -12638 83 1044 -159221 12638 -83 -1044zm-332 -4176l159222 -12638 82 1044 -159221 12638 -83 -1044zm-868 -10935l159222 -12637 82 1044 -159221 12637 -83 -1044zm-331 -4176l159221 -12637 83 1044 -159221 12637 -83 -1044z"/>
 <path class="Colour2 fill" d="M-32899 21308l159221 -12637 83 1044 -159221 12637 -83 -1044zm166 2088l159221 -12637 83 1044 -159222 12637 -82 -1044zm165 2088l159221 -12637 786 9890 -159222 12638 -785 -9891zm1034 13023l159221 -12638 83 1044 -159221 12638 -83 -1044zm-166 -2088l159221 -12638 83 1044 -159221 12638 -83 -1044z"/>
 <g id="FBodyLogos"></g>
 </g>
 <use xlink:href="#BO" class="outline"/>
 <path class="Neck" d="m29857 2200c3300 1500 18700 1500 22000 0v500a11000 10000 1 0 1-22000 0v-500z"/>
 <path class="loop outline" d="m29857 2200c3300 1500 18700 1500 22000 0v750c-3300 1500-18700 1500-22000 0z"/>
 <g id="Collars" class="choice">
	<g id="Excel" visibility="hidden" data-option="Collar">
		<path class="Collar fill outline" d="m29857 2200c3300 1500 18700 1500 22000 0c-990-600-2090-1900-2420-1600c-3300 1000-13860 1000-17160 0c-330-300-1430 1000-2420 1600zz"/>
		<path class="Collar fill outline" d="m51857 2200c-990-600-2090-1900-2420-1600c0 11000-8580 9700-11330 11782.5a11000 10000 1 0 0 13750-9682.5v-500z"/>
		<path class="Collar fill outline" d="m29857 2200c990-600 2090-1900 2420-1600c0 11000 8580 9700 11330 11782.5a11000 10000 1 0 1-13750-9682.5v-500z"/>
	</g>
	<g id="Nitro" visibility="hidden" data-option="Collar">
   <path class="Neck" d="M30863.5 2500h20000c0 14000,-20000 14000,-20000 0z"/>
   <path class="Insert fill outline" d="M40857 13114c-770,50 -1565,-10 -2383,-172l310 -770 2073 0 2074 0 310 770c-819,162 -1614,222 -2384,172z"/>
   <path class="Collar fill outline" d="M32114 9c-953,421 -1473,2274 -1011,2883 860,223 5244,1192 9754,1213 4510,-21 8895,-990 9754,-1213 462,-609 -57,-2462 -1010,-2883 -3084,815 -5950,1223 -8744,1250 -2793,-27 -5659,-435 -8743,-1250z"/>
   <path class="Collar fill outline" d="M31445 1912c0,0 173,-2120 1031,-1810l0 -2c-95,-35 -145,-57 -145,-57 -453,-144 -829,137 -1106,379 -1278,1115 -2551,1667 -2864,2023 1053,6833 6482,9603 10219,10521 -202,-34 669,-1408 219,-1675 -2028,-1204 -7328,-3171 -7354,-9379zm18824 0c0,0 -173,-2120 -1030,-1810l0 -2c95,-35 144,-57 144,-57 454,-144 829,137 1106,379 1278,1115 2551,1667 2865,2023 -1054,6833 -6483,9603 -10220,10521 203,-34 -668,-1408 -219,-1675 2028,-1204 7328,-3171 7354,-9379z"/>
 	</g>
	<g id="Performance" visibility="visible" data-option="Collar">
		<path class="Insert fill outline" d="m31331 7700c3300 2500 15752 2500 19052 0a11000 10000 1 0 1-19052 0z"/>
		<path class="Collar fill outline" d="m29857 2200c3300 1500 18700 1500 22000 0c-990-600-2420-2200-2750-1900c-3300 500-13200 500-16500 0c-330-300-1760 1300-2750 1900z"/>
		<path class="Collar fill outline" d="m29857 2200c990-600 2420-2200 2750-1900c0 9000 2200 4000 472 9471a11000 10000 1 0 1-3222-7071v-500zm22000 0c-990-600-2420-2200-2750-1900c0 9000-2200 4000-472 9471a11000 10000 1 0 0 3222-7071v-500z"/>
	</g>
 </g>
</svg>
