<?xml version="1.0" encoding="utf-8"?>
<!-- Generator: Adobe Illustrator 19.1.0, SVG Export Plug-In . SVG Version: 6.00 Build 0)  -->
<svg version="1.1" id="Layer_1" xmlns="http://www.w3.org/2000/svg" xmlns:xlink="http://www.w3.org/1999/xlink" x="0px" y="0px"
	 viewBox="-104 92.02 374.21 377.98" style="enable-background:new -104 92.02 374.21 377.98;" xml:space="preserve">
<style type="text/css">
	.st0{fill:none;stroke:#FF0C00;stroke-width:18;stroke-miterlimit:10;}
</style>
<g>
	<path d="M-57.25,245.27v-41.81l22.21-21.91h84.67l22,21.7v77.26l-22,21.65H-1.55l-7.58,5.95v30.03h32.64v-21.39h48.12v63.71H-57.25
		V281.5l22-21.66h51.18l7.58-5.95v-24.08l-7.47-5.94H-1.73l-7.4,5.94v15.46L-57.25,245.27L-57.25,245.27z M201.25,181.55
		l22.21,21.91v155.1l-22.21,21.91h-84.67l-21.94-21.64l-0.06-155.57l22-21.7L201.25,181.55L201.25,181.55z M175.34,223.87h-32.57
		v114.27h32.57V223.87z"/>
	<path class="st0" d="M261.82,281.01c0,98.7-80.02,178.72-178.72,178.72S-95.61,379.71-95.61,281.01S-15.6,102.29,83.11,102.29
		S261.82,182.31,261.82,281.01z M198.88,417.96L-57.25,161.84"/>
</g>
</svg>
