<?xml version="1.0" encoding="utf-8"?>
<!-- Generator: Adobe Illustrator 19.1.0, SVG Export Plug-In . SVG Version: 6.00 Build 0)  -->
<svg version="1.1" id="Layer_1" xmlns="http://www.w3.org/2000/svg" xmlns:xlink="http://www.w3.org/1999/xlink" x="0px" y="0px"
	 viewBox="0 0 501.01 643" style="enable-background:new 0 0 501.01 643;" xml:space="preserve">
<style type="text/css">
	<![CDATA[
	@font-face{font-family:'codaheavy';src:url('/fonts/coda-heavy-webfont.woff') format('woff')}
	text{font-family:Impact,codaheavy,sans-serif}
	.Colour1.fill{fill:#830000;stroke:#000000;stroke-miterlimit:10;}
	.Colour2.fill{fill:#E71A22;}
	.Placket.fill{fill:#E71A22;stroke:#000000;stroke-miterlimit:10;}
	.Collar.fill{fill:#830000;stroke:#000000;stroke-miterlimit:10;}
	.Gradient1.stopColor{stop-color:#ED1C24;}
	.Gradient2.stopColor{stop-color:#820000;}
	.Gradient3.stopColor{stop-color:#CF1C1F;}
	.st0{fill:url(#SVGID_1_);stroke:#000000;stroke-miterlimit:10;}
	.st1{fill:url(#SVGID_2_);}
	.st2{fill:url(#SVGID_3_);}
	.st3{fill:url(#SVGID_4_);}
	.st4{fill:url(#SVGID_5_);}
	.st5{fill:url(#SVGID_6_);}
	.st6{fill:url(#SVGID_7_);}
	.st7{fill:url(#SVGID_8_);}
	.st8{fill:url(#SVGID_9_);}
	.st9{fill:url(#SVGID_10_);}
	.st10{fill:url(#SVGID_11_);}
	.st11{fill:url(#SVGID_12_);}
	.st12{fill:url(#SVGID_13_);}
	.st13{fill:url(#SVGID_14_);}
	.st14{fill:url(#SVGID_15_);}
	.st15{fill:url(#SVGID_16_);}
	.st16{fill:url(#SVGID_17_);}
	.st17{fill:url(#SVGID_18_);}
	.st18{fill:url(#SVGID_19_);}
	.st19{fill:url(#SVGID_20_);}
	.st20{fill:url(#SVGID_21_);}
	.st21{fill:url(#SVGID_22_);}
	.st22{fill:url(#SVGID_23_);}
	.st23{fill:url(#SVGID_24_);}
	.st24{fill:url(#SVGID_25_);}
	.st25{fill:url(#SVGID_26_);}
	.st26{fill:url(#SVGID_27_);}
	.st27{fill:url(#SVGID_28_);}
	.st28{fill:url(#SVGID_29_);}
	.st29{fill:url(#SVGID_30_);}
	.st30{fill:url(#SVGID_31_);}
	.st31{fill:url(#SVGID_32_);}
	.st32{fill:url(#SVGID_33_);}
	.st33{fill:url(#SVGID_34_);}
	.st34{fill:none;stroke:#5D5D5D;stroke-miterlimit:10;}
	.st35{fill:#830000;}
	.st36{fill:none;stroke:#5D5D5D;stroke-miterlimit:10;stroke-dasharray:1.0005,1.0005;}
	.st37{fill:none;stroke:#000000;stroke-miterlimit:10;}
	.st38{fill:#5D5D5D;}
	.st39{fill:none;stroke:#5D5D5D;stroke-miterlimit:10;stroke-dasharray:1;}
	]]>
</style>
<linearGradient id="SVGID_1_" gradientUnits="userSpaceOnUse" x1="250.5028" y1="40.6942" x2="250.5028" y2="642.5">
	<stop class="Gradient1 stopColor" offset="0" style="stop-color:#ED1C24"/>
	<stop class="Gradient2 stopColor" offset="1" style="stop-color:#820000"/>
</linearGradient>
<path class="st0" d="M250.5,642.48c-151.65,0.75-157.91-25.84-157.91-25.84c38.04-190.74,1.45-396.2,1.45-396.2
	C67.46,165.77,54.18,90.13,54.18,90.13S70.32,69.9,146.9,50.06c0,0,12.76-2.62,19.14-9.36h168.92c6.38,6.74,19.14,9.36,19.14,9.36
	c76.58,19.85,92.72,40.07,92.72,40.07s-13.28,75.65-39.86,130.32c0,0-36.59,205.46,1.45,396.2
	C408.41,616.65,402.15,643.23,250.5,642.48"/>
<g>
	<linearGradient id="SVGID_2_" gradientUnits="userSpaceOnUse" x1="250.5028" y1="41.1878" x2="250.5028" y2="643.5331">
		<stop class="Gradient2 stopColor" offset="0" style="stop-color:#820000"/>
		<stop class="Gradient3 stopColor" offset="1" style="stop-color:#CF1C1F"/>
	</linearGradient>
	<polygon class="st1" points="318.18,387.64 250.5,403.39 182.82,387.64 182.82,408.31 250.5,424.06 318.18,408.31 	"/>
	<linearGradient id="SVGID_3_" gradientUnits="userSpaceOnUse" x1="250.5028" y1="41.1878" x2="250.5028" y2="643.5331">
		<stop class="Gradient2 stopColor" offset="0" style="stop-color:#820000"/>
		<stop class="Gradient3 stopColor" offset="1" style="stop-color:#CF1C1F"/>
	</linearGradient>
	<polygon class="st2" points="318.18,416.57 250.5,432.31 182.82,416.57 182.82,437.24 250.5,452.99 318.18,437.24 	"/>
	<linearGradient id="SVGID_4_" gradientUnits="userSpaceOnUse" x1="250.5028" y1="41.1878" x2="250.5028" y2="643.5331">
		<stop class="Gradient2 stopColor" offset="0" style="stop-color:#820000"/>
		<stop class="Gradient3 stopColor" offset="1" style="stop-color:#CF1C1F"/>
	</linearGradient>
	<polygon class="st3" points="318.18,329.79 250.5,345.54 182.82,329.79 182.82,350.47 250.5,366.21 318.18,350.47 	"/>
	<linearGradient id="SVGID_5_" gradientUnits="userSpaceOnUse" x1="250.5028" y1="41.1878" x2="250.5028" y2="643.5331">
		<stop class="Gradient2 stopColor" offset="0" style="stop-color:#820000"/>
		<stop class="Gradient3 stopColor" offset="1" style="stop-color:#CF1C1F"/>
	</linearGradient>
	<polygon class="st4" points="318.18,300.87 250.5,316.62 182.82,300.87 182.82,321.54 250.5,337.29 318.18,321.54 	"/>
	<linearGradient id="SVGID_6_" gradientUnits="userSpaceOnUse" x1="250.5028" y1="41.1878" x2="250.5028" y2="643.5331">
		<stop class="Gradient2 stopColor" offset="0" style="stop-color:#820000"/>
		<stop class="Gradient3 stopColor" offset="1" style="stop-color:#CF1C1F"/>
	</linearGradient>
	<polygon class="st5" points="318.18,358.72 250.5,374.46 182.82,358.72 182.82,379.39 250.5,395.14 318.18,379.39 	"/>
	<linearGradient id="SVGID_7_" gradientUnits="userSpaceOnUse" x1="250.5028" y1="41.1878" x2="250.5028" y2="643.5331">
		<stop class="Gradient2 stopColor" offset="0" style="stop-color:#820000"/>
		<stop class="Gradient3 stopColor" offset="1" style="stop-color:#CF1C1F"/>
	</linearGradient>
	<polygon class="st6" points="318.18,445.49 250.5,461.24 182.82,445.49 182.82,466.16 250.5,481.91 318.18,466.16 	"/>
	<linearGradient id="SVGID_8_" gradientUnits="userSpaceOnUse" x1="250.5028" y1="41.1878" x2="250.5028" y2="643.5331">
		<stop class="Gradient2 stopColor" offset="0" style="stop-color:#820000"/>
		<stop class="Gradient3 stopColor" offset="1" style="stop-color:#CF1C1F"/>
	</linearGradient>
	<polygon class="st7" points="318.18,532.26 250.5,548.01 182.82,532.26 182.82,552.94 250.5,568.68 318.18,552.94 	"/>
	<linearGradient id="SVGID_9_" gradientUnits="userSpaceOnUse" x1="250.5028" y1="41.1878" x2="250.5028" y2="643.5331">
		<stop class="Gradient2 stopColor" offset="0" style="stop-color:#820000"/>
		<stop class="Gradient3 stopColor" offset="1" style="stop-color:#CF1C1F"/>
	</linearGradient>
	<polygon class="st8" points="182.82,561.19 182.82,581.86 250.5,597.61 318.18,581.86 318.18,561.19 250.5,576.93 	"/>
	<linearGradient id="SVGID_10_" gradientUnits="userSpaceOnUse" x1="250.5028" y1="41.1878" x2="250.5028" y2="643.5331">
		<stop class="Gradient2 stopColor" offset="0" style="stop-color:#820000"/>
		<stop class="Gradient3 stopColor" offset="1" style="stop-color:#CF1C1F"/>
	</linearGradient>
	<polygon class="st9" points="318.18,503.34 250.5,519.09 182.82,503.34 182.82,524.01 250.5,539.76 318.18,524.01 	"/>
	<linearGradient id="SVGID_11_" gradientUnits="userSpaceOnUse" x1="250.5028" y1="41.1878" x2="250.5028" y2="643.5331">
		<stop class="Gradient2 stopColor" offset="0" style="stop-color:#820000"/>
		<stop class="Gradient3 stopColor" offset="1" style="stop-color:#CF1C1F"/>
	</linearGradient>
	<polygon class="st10" points="318.18,474.41 250.5,490.16 182.82,474.41 182.82,495.09 250.5,510.83 318.18,495.09 	"/>
	<linearGradient id="SVGID_12_" gradientUnits="userSpaceOnUse" x1="250.5028" y1="41.1878" x2="250.5028" y2="643.5331">
		<stop class="Gradient2 stopColor" offset="0" style="stop-color:#820000"/>
		<stop class="Gradient3 stopColor" offset="1" style="stop-color:#CF1C1F"/>
	</linearGradient>
	<polygon class="st11" points="318.18,40.69 182.82,40.69 182.82,148 250.5,163.74 318.18,148 	"/>
	<linearGradient id="SVGID_13_" gradientUnits="userSpaceOnUse" x1="250.5028" y1="41.1878" x2="250.5028" y2="643.5331">
		<stop class="Gradient2 stopColor" offset="0" style="stop-color:#820000"/>
		<stop class="Gradient3 stopColor" offset="1" style="stop-color:#CF1C1F"/>
	</linearGradient>
	<path class="st12" d="M250.5,642.48c26.87,0.13,49.16-0.6,67.68-1.88v-50.49l-67.68,15.75l-67.68-15.75v50.49
		C201.34,641.89,223.63,642.62,250.5,642.48z"/>
	<linearGradient id="SVGID_14_" gradientUnits="userSpaceOnUse" x1="250.5028" y1="41.1878" x2="250.5028" y2="643.5331">
		<stop class="Gradient2 stopColor" offset="0" style="stop-color:#820000"/>
		<stop class="Gradient3 stopColor" offset="1" style="stop-color:#CF1C1F"/>
	</linearGradient>
	<polygon class="st13" points="318.18,243.02 250.5,258.77 182.82,243.02 182.82,263.69 250.5,279.44 318.18,263.69 	"/>
	<linearGradient id="SVGID_15_" gradientUnits="userSpaceOnUse" x1="250.5028" y1="41.1878" x2="250.5028" y2="643.5331">
		<stop class="Gradient2 stopColor" offset="0" style="stop-color:#820000"/>
		<stop class="Gradient3 stopColor" offset="1" style="stop-color:#CF1C1F"/>
	</linearGradient>
	<polygon class="st14" points="318.18,214.1 250.5,229.84 182.82,214.1 182.82,234.77 250.5,250.52 318.18,234.77 	"/>
	<linearGradient id="SVGID_16_" gradientUnits="userSpaceOnUse" x1="250.5028" y1="41.1878" x2="250.5028" y2="643.5331">
		<stop class="Gradient2 stopColor"  offset="0" style="stop-color:#820000"/>
		<stop class="Gradient3 stopColor" offset="1" style="stop-color:#CF1C1F"/>
	</linearGradient>
	<polygon class="st15" points="318.18,271.95 250.5,287.69 182.82,271.95 182.82,292.62 250.5,308.36 318.18,292.62 	"/>
	<linearGradient id="SVGID_17_" gradientUnits="userSpaceOnUse" x1="250.5028" y1="41.1878" x2="250.5028" y2="643.5331">
		<stop class="Gradient2 stopColor" offset="0" style="stop-color:#820000"/>
		<stop class="Gradient3 stopColor" offset="1" style="stop-color:#CF1C1F"/>
	</linearGradient>
	<polygon class="st16" points="318.18,185.17 250.5,200.92 182.82,185.17 182.82,205.85 250.5,221.59 318.18,205.85 	"/>
	<linearGradient id="SVGID_18_" gradientUnits="userSpaceOnUse" x1="250.5028" y1="41.1878" x2="250.5028" y2="643.5331">
		<stop class="Gradient2 stopColor" offset="0" style="stop-color:#820000"/>
		<stop class="Gradient3 stopColor" offset="1" style="stop-color:#CF1C1F"/>
	</linearGradient>
	<polygon class="st17" points="318.18,156.25 250.5,172 182.82,156.25 182.82,176.92 250.5,192.67 318.18,176.92 	"/>
</g>
<g>
	<linearGradient id="SVGID_19_" gradientUnits="userSpaceOnUse" x1="250.5028" y1="125.0714" x2="250.5028" y2="569.977">
		<stop class="Gradient1 stopColor" offset="0" style="stop-color:#ED1C24"/>
		<stop class="Gradient2 stopColor" offset="1" style="stop-color:#820000"/>
	</linearGradient>
	<path class="st18" d="M391.13,420.8L250.5,453.52L109.87,420.8c0.01,2.55,0.01,5.11,0,7.69l140.63,32.72l140.63-32.72
		C391.13,425.91,391.13,423.35,391.13,420.8z"/>
	<linearGradient id="SVGID_20_" gradientUnits="userSpaceOnUse" x1="250.5029" y1="125.0714" x2="250.5029" y2="569.977">
		<stop class="Gradient1 stopColor" offset="0" style="stop-color:#ED1C24"/>
		<stop class="Gradient2 stopColor" offset="1" style="stop-color:#820000"/>
	</linearGradient>
	<path class="st19" d="M250.5,366.28l-143.82-33.46c0.18,2.57,0.35,5.18,0.51,7.81l143.31,33.34l143.31-33.34
		c0.17-2.63,0.34-5.24,0.51-7.81L250.5,366.28z"/>
	<linearGradient id="SVGID_21_" gradientUnits="userSpaceOnUse" x1="250.5029" y1="125.0714" x2="250.5029" y2="569.977">
		<stop class="Gradient1 stopColor" offset="0" style="stop-color:#ED1C24"/>
		<stop class="Gradient2 stopColor" offset="1" style="stop-color:#820000"/>
	</linearGradient>
	<path class="st20" d="M250.5,395.12l-142.13-33.07c0.12,2.57,0.24,5.16,0.35,7.77l141.78,32.99l141.78-32.99
		c0.11-2.61,0.22-5.2,0.35-7.77L250.5,395.12z"/>
	<linearGradient id="SVGID_22_" gradientUnits="userSpaceOnUse" x1="250.5027" y1="125.0714" x2="250.5027" y2="569.977">
		<stop class="Gradient1 stopColor" offset="0" style="stop-color:#ED1C24"/>
		<stop class="Gradient2 stopColor" offset="1" style="stop-color:#820000"/>
	</linearGradient>
	<path class="st21" d="M250.5,482.44l-140.88-32.78c-0.05,2.54-0.11,5.09-0.18,7.65l141.05,32.82l141.06-32.82
		c-0.07-2.56-0.13-5.11-0.18-7.65L250.5,482.44z"/>
	<linearGradient id="SVGID_23_" gradientUnits="userSpaceOnUse" x1="250.5029" y1="125.0714" x2="250.5029" y2="569.977">
		<stop class="Gradient1 stopColor" offset="0" style="stop-color:#ED1C24"/>
		<stop class="Gradient2 stopColor" offset="1" style="stop-color:#820000"/>
	</linearGradient>
	<path class="st22" d="M250.5,424.59l-141.04-32.82c0.06,2.56,0.12,5.14,0.17,7.73l140.87,32.78l140.87-32.78
		c0.05-2.59,0.11-5.17,0.17-7.73L250.5,424.59z"/>
	<linearGradient id="SVGID_24_" gradientUnits="userSpaceOnUse" x1="250.5029" y1="125.0714" x2="250.5029" y2="569.977">
		<stop class="Gradient1 stopColor" offset="0" style="stop-color:#ED1C24"/>
		<stop class="Gradient2 stopColor" offset="1" style="stop-color:#820000"/>
	</linearGradient>
	<path class="st23" d="M397.21,542.77c-0.27-2.5-0.54-5.01-0.79-7.51L250.5,569.21l-145.92-33.95c-0.25,2.5-0.52,5-0.79,7.51
		l146.7,34.13L397.21,542.77z"/>
	<linearGradient id="SVGID_25_" gradientUnits="userSpaceOnUse" x1="250.5029" y1="125.0714" x2="250.5029" y2="569.977">
		<stop class="Gradient1 stopColor" offset="0" style="stop-color:#ED1C24"/>
		<stop class="Gradient2 stopColor" offset="1" style="stop-color:#820000"/>
	</linearGradient>
	<path class="st24" d="M250.5,511.37l-141.82-33c-0.11,2.53-0.24,5.06-0.37,7.6l142.19,33.08l142.19-33.08
		c-0.13-2.54-0.26-5.08-0.37-7.6L250.5,511.37z"/>
	<linearGradient id="SVGID_26_" gradientUnits="userSpaceOnUse" x1="250.5029" y1="125.0714" x2="250.5029" y2="569.977">
		<stop class="Gradient1 stopColor" offset="0" style="stop-color:#ED1C24"/>
		<stop class="Gradient2 stopColor" offset="1" style="stop-color:#820000"/>
	</linearGradient>
	<path class="st25" d="M250.5,540.29L107.02,506.9c-0.18,2.51-0.37,5.03-0.57,7.56l144.06,33.52l144.06-33.52
		c-0.2-2.52-0.39-5.04-0.57-7.56L250.5,540.29z"/>
	<linearGradient id="SVGID_27_" gradientUnits="userSpaceOnUse" x1="250.5028" y1="125.0714" x2="250.5028" y2="569.977">
		<stop class="Gradient1 stopColor" offset="0" style="stop-color:#ED1C24"/>
		<stop class="Gradient2 stopColor" offset="1" style="stop-color:#820000"/>
	</linearGradient>
	<path class="st26" d="M250.5,598.14l-149.17-34.71c-0.33,2.48-0.66,4.97-1.01,7.45l150.18,34.94l150.19-34.94
		c-0.35-2.49-0.69-4.97-1.01-7.45L250.5,598.14z"/>
	<linearGradient id="SVGID_28_" gradientUnits="userSpaceOnUse" x1="250.5029" y1="125.0714" x2="250.5029" y2="569.977">
		<stop class="Gradient1 stopColor" offset="0" style="stop-color:#ED1C24"/>
		<stop class="Gradient2 stopColor" offset="1" style="stop-color:#820000"/>
	</linearGradient>
	<path class="st27" d="M250.5,221.79L78.21,181.7c0.98,2.8,1.98,5.6,3.01,8.39l169.28,39.39l169.28-39.39
		c1.03-2.79,2.04-5.59,3.01-8.39L250.5,221.79z"/>
	<linearGradient id="SVGID_29_" gradientUnits="userSpaceOnUse" x1="250.5029" y1="125.0714" x2="250.5029" y2="569.977">
		<stop class="Gradient1 stopColor" offset="0" style="stop-color:#ED1C24"/>
		<stop class="Gradient2 stopColor" offset="1" style="stop-color:#820000"/>
	</linearGradient>
	<path class="st28" d="M250.5,192.89l-182.1-42.37c0.77,2.71,1.57,5.46,2.4,8.25l179.69,41.81l179.69-41.81
		c0.83-2.78,1.63-5.54,2.4-8.25L250.5,192.89z"/>
	<linearGradient id="SVGID_30_" gradientUnits="userSpaceOnUse" x1="250.5028" y1="125.0714" x2="250.5028" y2="569.977">
		<stop class="Gradient1 stopColor" offset="0" style="stop-color:#ED1C24"/>
		<stop class="Gradient2 stopColor" offset="1" style="stop-color:#820000"/>
	</linearGradient>
	<path class="st29" d="M60.43,119.71c0.61,2.6,1.26,5.32,1.96,8.15l188.11,43.77l188.11-43.77c0.7-2.83,1.35-5.55,1.96-8.15
		L250.5,163.93L60.43,119.71z"/>
	<linearGradient id="SVGID_31_" gradientUnits="userSpaceOnUse" x1="250.5028" y1="125.0714" x2="250.5028" y2="569.977">
		<stop class="Gradient1 stopColor" offset="0" style="stop-color:#ED1C24"/>
		<stop class="Gradient2 stopColor" offset="1" style="stop-color:#820000"/>
	</linearGradient>
	<path class="st30" d="M250.5,308.6l-149.14-34.7c0.29,2.55,0.57,5.19,0.86,7.89l148.28,34.5l148.28-34.5
		c0.29-2.7,0.57-5.34,0.86-7.89L250.5,308.6z"/>
	<linearGradient id="SVGID_32_" gradientUnits="userSpaceOnUse" x1="250.5029" y1="125.0714" x2="250.5029" y2="569.977">
		<stop class="Gradient1 stopColor" offset="0" style="stop-color:#ED1C24"/>
		<stop class="Gradient2 stopColor" offset="1" style="stop-color:#820000"/>
	</linearGradient>
	<path class="st31" d="M250.5,337.82l-146.12-34c0.23,2.57,0.46,5.19,0.68,7.85l145.44,33.84l145.44-33.84
		c0.22-2.66,0.45-5.28,0.68-7.85L250.5,337.82z"/>
	<linearGradient id="SVGID_33_" gradientUnits="userSpaceOnUse" x1="250.5029" y1="125.0714" x2="250.5029" y2="569.977">
		<stop class="Gradient1 stopColor" offset="0" style="stop-color:#ED1C24"/>
		<stop class="Gradient2 stopColor" offset="1" style="stop-color:#820000"/>
	</linearGradient>
	<path class="st32" d="M410.17,213.6L250.5,250.75L90.83,213.6c1.05,2.31,2.12,4.6,3.21,6.85c0,0,0.1,0.58,0.28,1.65l156.18,36.34
		l156.18-36.34c0.18-1.07,0.28-1.65,0.28-1.65C408.06,218.2,409.13,215.91,410.17,213.6z"/>
	<linearGradient id="SVGID_34_" gradientUnits="userSpaceOnUse" x1="250.5029" y1="125.0714" x2="250.5029" y2="569.977">
		<stop class="Gradient1 stopColor" offset="0" style="stop-color:#ED1C24"/>
		<stop class="Gradient2 stopColor" offset="1" style="stop-color:#820000"/>
	</linearGradient>
	<path class="st33" d="M250.5,279.71L97.65,244.14c0.34,2.47,0.7,5.12,1.06,7.94L250.5,287.4l151.78-35.32
		c0.37-2.81,0.72-5.47,1.06-7.94L250.5,279.71z"/>
</g>
<g>
	<path class="st34" d="M407.13,267.38c-0.89,12.24,2.16,18.6,2.16,18.6c47.3,13.11,91.22-17.6,91.22-17.6
		c-0.07-6.45-0.25-12.69-0.52-18.72c0,0-45.27,22.28-91.25,17.6L407.13,267.38z"/>
	<path class="st34" d="M93.94,267.38c0.89,12.24-2.16,18.6-2.16,18.6c-47.3,13.11-91.22-17.6-91.22-17.6
		c0.07-6.45,0.25-12.69,0.52-18.72c0,0,45.27,22.28,91.25,17.6L93.94,267.38z"/>
</g>
<path class="st34" d="M236.99,109.16v131.51h29.28c8.29-84.73-14.39-118.85-29.25-131.87L236.99,109.16z"/>
<g>
	<path class="st35" d="M446.82,90.13c0,0,52.18,38.95,53.68,178.25c0,0-43.92,30.71-91.22,17.6c0,0-9.27-30.58-2.32-65.53
		C406.96,220.44,430.18,173.26,446.82,90.13z"/>
	<g>
		<path d="M446.82,90.13c3.13,2.46,5.75,5.48,8.39,8.45l3.72,4.66l3.43,4.88c1.19,1.6,2.17,3.33,3.22,5.02
			c1.02,1.71,2.12,3.37,3.08,5.11l2.79,5.27c0.92,1.76,1.91,3.49,2.68,5.33l2.47,5.43c0.81,1.82,1.7,3.6,2.36,5.48l4.23,11.16
			l3.56,11.39l0.89,2.85l0.73,2.89l1.45,5.79c0.93,3.86,2.04,7.69,2.69,11.62l2.25,11.72l0.56,2.93l0.41,2.95l0.81,5.91l1.61,11.82
			l1,11.89c0.31,3.96,0.73,7.92,0.95,11.89l0.84,23.84l0.01,0.22l-0.19,0.13c-1.67,1.14-3.37,2.17-5.1,3.18
			c-1.73,1.01-3.48,1.97-5.25,2.9c-1.77,0.93-3.56,1.81-5.37,2.66c-1.81,0.85-3.64,1.66-5.48,2.43c-1.84,0.77-3.7,1.51-5.58,2.19
			c-0.93,0.36-1.88,0.68-2.82,1.01c-0.94,0.33-1.89,0.65-2.85,0.95c-1.9,0.62-3.83,1.16-5.75,1.7c-1.94,0.5-3.87,1-5.83,1.41
			c-0.97,0.23-1.95,0.43-2.94,0.6c-0.98,0.18-1.96,0.39-2.95,0.53l-2.97,0.45c-0.99,0.14-1.99,0.23-2.98,0.35
			c-0.99,0.13-1.99,0.21-2.99,0.28c-1,0.07-1.99,0.17-2.99,0.2c-2,0.08-4,0.16-6,0.11c-2,0.03-4-0.14-6-0.22l-2.99-0.28l-1.49-0.15
			l-1.49-0.22l-2.97-0.44l-2.95-0.58l-1.47-0.29l-1.46-0.37l-2.91-0.73l-0.24-0.06l-0.07-0.24c-0.76-2.68-1.36-5.37-1.91-8.08
			c-0.25-1.36-0.52-2.71-0.75-4.08c-0.21-1.37-0.46-2.72-0.63-4.09c-0.17-1.37-0.38-2.74-0.53-4.11l-0.43-4.12l-0.3-4.13
			c-0.12-1.38-0.13-2.76-0.2-4.14c-0.07-1.38-0.11-2.76-0.09-4.14c0-1.38-0.02-2.76,0-4.14l0.15-4.14c0.02-1.38,0.15-2.76,0.26-4.13
			c0.12-1.38,0.19-2.76,0.35-4.13l0.51-4.11c0.14-1.37,0.39-2.73,0.63-4.09l0.71-4.08l0.01-0.04l0.02-0.05
			c1.23-2.55,2.38-5.16,3.51-7.76c1.11-2.61,2.23-5.23,3.27-7.87c1.07-2.63,2.1-5.28,3.11-7.94c1.04-2.65,1.99-5.33,2.97-8
			c1-2.66,1.9-5.36,2.84-8.04c0.95-2.68,1.83-5.38,2.72-8.09c0.89-2.7,1.79-5.4,2.61-8.12l2.52-8.15l2.39-8.19
			c0.82-2.72,1.55-5.47,2.31-8.21c0.74-2.75,1.53-5.48,2.24-8.23l2.11-8.27l1.05-4.14l0.98-4.15l1.95-8.31
			c0.66-2.77,1.21-5.56,1.82-8.34L446.82,90.13z M446.82,90.13l-1.72,8.36c-0.59,2.78-1.12,5.58-1.75,8.35l-1.89,8.33l-0.94,4.16
			l-1.02,4.15l-2.04,8.29c-0.68,2.76-1.45,5.5-2.17,8.26c-0.74,2.75-1.44,5.51-2.24,8.24l-2.36,8.21l-2.49,8.17
			c-0.82,2.73-1.7,5.43-2.59,8.14c-0.88,2.71-1.75,5.42-2.7,8.1c-0.94,2.69-1.83,5.39-2.82,8.06c-0.98,2.67-1.92,5.36-2.95,8.01
			c-1,2.66-2.03,5.32-3.09,7.96c-1.04,2.65-2.15,5.27-3.26,7.9c-1.13,2.62-2.26,5.22-3.5,7.8l0.03-0.09l-0.69,4.06
			c-0.24,1.35-0.48,2.71-0.61,4.07l-0.49,4.09c-0.16,1.36-0.22,2.74-0.33,4.11c-0.1,1.37-0.23,2.74-0.25,4.11l-0.13,4.12
			c-0.02,1.37,0.01,2.75,0.01,4.12c-0.01,1.37,0.04,2.75,0.11,4.12c0.07,1.37,0.09,2.75,0.21,4.12l0.31,4.11l0.44,4.1
			c0.15,1.37,0.36,2.72,0.54,4.09c0.18,1.36,0.43,2.71,0.64,4.07c0.23,1.35,0.5,2.7,0.75,4.05c0.56,2.69,1.16,5.38,1.91,7.99
			l-0.31-0.3l2.89,0.71l1.44,0.36l1.46,0.29l2.92,0.57l2.94,0.42l1.47,0.21l1.48,0.14l2.96,0.27c1.98,0.08,3.96,0.24,5.94,0.21
			c1.98,0.04,3.96-0.05,5.94-0.13c0.99-0.03,1.98-0.14,2.97-0.21c0.99-0.07,1.98-0.15,2.96-0.28c0.98-0.12,1.97-0.22,2.95-0.35
			l2.94-0.45c0.98-0.14,1.95-0.35,2.93-0.52c0.98-0.17,1.95-0.36,2.92-0.59c1.94-0.4,3.87-0.9,5.79-1.38
			c1.91-0.53,3.82-1.06,5.71-1.68c0.95-0.29,1.89-0.61,2.83-0.93c0.94-0.32,1.88-0.64,2.81-0.99c1.87-0.68,3.71-1.41,5.55-2.16
			c1.83-0.76,3.65-1.56,5.45-2.4c1.8-0.84,3.59-1.71,5.34-2.63c1.76-0.91,3.51-1.86,5.22-2.86c1.71-1,3.42-2.03,5.05-3.13
			l-0.18,0.35l-0.78-23.81c-0.21-3.96-0.62-7.91-0.92-11.87l-0.97-11.87l-1.57-11.8l-0.79-5.9l-0.4-2.95l-0.55-2.92l-2.21-11.7
			c-0.64-3.92-1.73-7.74-2.65-11.6l-1.43-5.78l-0.72-2.89l-0.88-2.84l-3.52-11.37l-4.17-11.15c-0.64-1.88-1.52-3.66-2.31-5.48
			l-2.42-5.44c-0.76-1.84-1.72-3.57-2.63-5.34l-2.75-5.28c-0.94-1.75-2.02-3.41-3.03-5.12c-1.04-1.69-2-3.43-3.17-5.04l-3.39-4.9
			l-3.68-4.69C452.53,95.65,449.93,92.61,446.82,90.13z"/>
	</g>
</g>
<g>
	<path class="st35" d="M54.18,90.13c0,0-52.18,38.95-53.68,178.25c0,0,43.92,30.71,91.22,17.6c0,0,9.27-30.58,2.32-65.53
		C94.04,220.44,70.82,173.26,54.18,90.13z"/>
	<g>
		<path d="M54.18,90.13c-3.11,2.49-5.71,5.53-8.31,8.51l-3.68,4.69l-3.39,4.9c-1.17,1.6-2.14,3.34-3.17,5.04
			c-1.01,1.71-2.09,3.38-3.03,5.12l-2.75,5.28c-0.91,1.76-1.87,3.5-2.63,5.34l-2.42,5.44c-0.79,1.82-1.66,3.6-2.31,5.48l-4.17,11.15
			l-3.52,11.37l-0.88,2.84l-0.72,2.89l-1.43,5.78c-0.92,3.86-2.01,7.68-2.65,11.6l-2.21,11.7l-0.55,2.92l-0.4,2.95l-0.79,5.9
			l-1.57,11.8l-0.97,11.87c-0.3,3.96-0.7,7.91-0.92,11.87l-0.78,23.81l-0.18-0.35c1.63,1.1,3.33,2.14,5.05,3.13
			c1.72,1,3.46,1.95,5.22,2.86c1.76,0.92,3.55,1.79,5.34,2.63c1.8,0.84,3.62,1.64,5.45,2.4c1.83,0.76,3.68,1.49,5.55,2.16
			c0.93,0.35,1.87,0.67,2.81,0.99c0.94,0.32,1.88,0.64,2.83,0.93c1.89,0.61,3.8,1.14,5.71,1.68c1.92,0.49,3.85,0.98,5.79,1.38
			c0.97,0.22,1.94,0.42,2.92,0.59c0.98,0.17,1.95,0.38,2.93,0.52l2.94,0.45c0.98,0.14,1.97,0.24,2.95,0.35
			c0.98,0.13,1.97,0.21,2.96,0.28c0.99,0.07,1.98,0.18,2.97,0.21c1.98,0.08,3.96,0.17,5.94,0.13c1.98,0.03,3.96-0.13,5.94-0.21
			l2.96-0.27l1.48-0.14l1.47-0.21l2.94-0.42l2.92-0.57l1.46-0.29l1.44-0.36l2.89-0.71l-0.31,0.3c0.75-2.62,1.36-5.31,1.91-7.99
			c0.25-1.35,0.52-2.7,0.75-4.05c0.21-1.36,0.46-2.71,0.64-4.07c0.18-1.36,0.39-2.72,0.54-4.09l0.44-4.1l0.31-4.11
			c0.12-1.37,0.13-2.74,0.21-4.12c0.07-1.37,0.11-2.75,0.11-4.12c0-1.37,0.03-2.75,0.01-4.12l-0.13-4.12
			c-0.02-1.37-0.15-2.74-0.25-4.11c-0.11-1.37-0.18-2.74-0.33-4.11L95,228.65c-0.14-1.37-0.38-2.72-0.61-4.07l-0.69-4.06l0.03,0.09
			c-1.24-2.58-2.37-5.19-3.5-7.8c-1.11-2.62-2.22-5.25-3.26-7.9c-1.07-2.64-2.09-5.3-3.09-7.96c-1.03-2.65-1.97-5.34-2.95-8.01
			c-0.99-2.67-1.88-5.37-2.82-8.06c-0.95-2.69-1.82-5.39-2.7-8.1c-0.89-2.7-1.77-5.41-2.59-8.14l-2.49-8.17l-2.36-8.21
			c-0.8-2.73-1.5-5.49-2.24-8.24c-0.72-2.75-1.49-5.49-2.17-8.26l-2.04-8.29l-1.02-4.15l-0.94-4.16l-1.89-8.33
			c-0.63-2.77-1.17-5.57-1.75-8.35L54.18,90.13z M54.18,90.13l1.79,8.35c0.61,2.78,1.16,5.57,1.82,8.34l1.95,8.31l0.98,4.15
			l1.05,4.14l2.11,8.27c0.71,2.76,1.49,5.49,2.24,8.23c0.76,2.74,1.48,5.49,2.31,8.21l2.39,8.19l2.52,8.15
			c0.82,2.72,1.72,5.42,2.61,8.12c0.89,2.7,1.77,5.41,2.72,8.09c0.94,2.68,1.84,5.38,2.84,8.04c0.98,2.67,1.93,5.35,2.97,8
			c1.01,2.66,2.04,5.31,3.11,7.94c1.05,2.64,2.16,5.26,3.27,7.87c1.13,2.61,2.28,5.21,3.51,7.76l0.02,0.05l0.01,0.04l0.71,4.08
			c0.24,1.36,0.49,2.72,0.63,4.09l0.51,4.11c0.16,1.37,0.23,2.75,0.35,4.13c0.1,1.38,0.23,2.75,0.26,4.13l0.15,4.14
			c0.02,1.38,0,2.76,0,4.14c0.01,1.38-0.03,2.76-0.09,4.14c-0.07,1.38-0.08,2.76-0.2,4.14l-0.3,4.13l-0.43,4.12
			c-0.15,1.37-0.35,2.74-0.53,4.11c-0.18,1.37-0.43,2.73-0.63,4.09c-0.22,1.36-0.49,2.72-0.75,4.08c-0.56,2.71-1.15,5.4-1.91,8.08
			l-0.07,0.24l-0.24,0.06l-2.91,0.73l-1.46,0.37L86,287.8l-2.95,0.58l-2.97,0.44l-1.49,0.22l-1.49,0.15l-2.99,0.28
			c-2,0.09-4,0.25-6,0.22c-2,0.05-4-0.04-6-0.11c-1-0.03-2-0.14-2.99-0.2c-1-0.07-2-0.15-2.99-0.28c-0.99-0.12-1.99-0.21-2.98-0.35
			l-2.97-0.45c-0.99-0.14-1.97-0.36-2.95-0.53c-0.98-0.18-1.97-0.37-2.94-0.6c-1.96-0.41-3.89-0.91-5.83-1.41
			c-1.92-0.54-3.85-1.08-5.75-1.7c-0.96-0.29-1.9-0.62-2.85-0.95c-0.95-0.32-1.89-0.65-2.82-1.01c-1.88-0.69-3.73-1.43-5.58-2.19
			c-1.84-0.77-3.67-1.58-5.48-2.43c-1.81-0.85-3.6-1.73-5.37-2.66c-1.77-0.92-3.52-1.89-5.25-2.9c-1.73-1.01-3.43-2.05-5.1-3.18
			l-0.19-0.13l0.01-0.22l0.84-23.84c0.22-3.97,0.64-7.93,0.95-11.89l1-11.89l1.61-11.82l0.81-5.91l0.41-2.95l0.56-2.93l2.25-11.72
			c0.65-3.93,1.76-7.75,2.69-11.62l1.45-5.79l0.73-2.89l0.89-2.85l3.56-11.39l4.23-11.16c0.66-1.88,1.55-3.66,2.36-5.48l2.47-5.43
			c0.77-1.83,1.76-3.57,2.68-5.33l2.8-5.27c0.96-1.74,2.05-3.4,3.08-5.11c1.05-1.69,2.03-3.42,3.22-5.02l3.43-4.88l3.72-4.66
			C48.43,95.61,51.05,92.59,54.18,90.13z"/>
	</g>
</g>
<path class="st34" d="M96.25,597c14.67,8.05,53.26,19.29,154.26,18.79c103.23-0.51,140.87-8.07,154.79-15.72"/>
<g>
	<g>
		<path class="st34" d="M96.25,603.6c0.14,0.08,0.29,0.16,0.44,0.24"/>
		<path class="st36" d="M97.57,604.3c15.61,7.99,54.83,18.57,152.94,18.09c103.77-0.51,141.26-8.15,155.01-15.84"/>
		<path class="st34" d="M405.95,606.3c0.15-0.08,0.29-0.17,0.43-0.25"/>
	</g>
</g>
<path class="Collar fill" d="M186.19,9.99c0,0-8.51,71.4,39.04,91.37c0,0-35.54,1.5-62.56,25.96C162.66,127.32,140.14,57.92,186.19,9.99z
	"/>
<path class="Colour2 fill" d="M250.5,0.5c-32.28,0-64.31,9.49-64.31,9.49s-1.23,13.91,0.52,30.71H314.3c0,0,2.82-17.17,0.52-30.71
	C314.82,9.99,282.79,0.5,250.5,0.5"/>
<path class="Collar fill" d="M314.82,9.99c0,0,8.51,71.4-39.04,91.37c0,0,35.54,1.5,62.56,25.96C338.34,127.32,360.86,57.92,314.82,9.99z
	"/>
<path class="Placket fill" d="M275.78,101.36c0,0-19.87,14.1-20.7,32.76c0,0,9.77,22.26,11.29,42.87c0,0,11.9-49.05,43.44-67.39
	C309.81,109.6,292.61,102.67,275.78,101.36z"/>
<g>
	<ellipse class="st37" cx="275.78" cy="123.7" rx="7.13" ry="7.12"/>
	<g>
		<circle cx="273.48" cy="121.48" r="1.01"/>
		<circle cx="278.07" cy="121.48" r="1.01"/>
		<circle cx="273.48" cy="125.93" r="1.01"/>
		<circle cx="278.07" cy="125.93" r="1.01"/>
	</g>
</g>
<g>
	<ellipse class="st37" cx="259.94" cy="155.63" rx="7.13" ry="7.12"/>
	<g>
		<circle class="st38" cx="257.65" cy="153.41" r="1.01"/>
		<circle cx="262.24" cy="153.41" r="1.01"/>
		<circle class="st38" cx="257.65" cy="157.86" r="1.01"/>
		<circle class="st38" cx="262.24" cy="157.86" r="1.01"/>
	</g>
</g>
<g>
	<path class="st35" d="M225.23,101.36c0,0,53.05,16.48,41.04,139.31h-29.28V108.79"/>
	<path d="M225.23,101.36c1.51,0.52,2.96,1.24,4.35,2.03c0.71,0.38,1.37,0.83,2.06,1.24c0.66,0.46,1.33,0.89,1.98,1.36
		c2.59,1.89,5.01,4.01,7.23,6.33c2.22,2.32,4.3,4.77,6.15,7.39c0.46,0.65,0.95,1.29,1.39,1.96l1.31,2.02
		c0.91,1.33,1.65,2.75,2.47,4.13c1.57,2.8,2.96,5.7,4.24,8.64c0.68,1.45,1.2,2.98,1.8,4.46c0.61,1.48,1.1,3.01,1.62,4.53l0.77,2.28
		c0.24,0.76,0.45,1.54,0.68,2.31c0.43,1.55,0.93,3.07,1.3,4.63l1.13,4.68c0.38,1.56,0.64,3.14,0.97,4.71
		c0.68,3.14,1.09,6.32,1.6,9.48c0.25,1.58,0.39,3.18,0.59,4.77c0.17,1.59,0.41,3.18,0.52,4.78l0.38,4.79l0.19,2.4l0.11,2.4
		c0.12,3.2,0.34,6.4,0.32,9.61c0.02,3.21,0.12,6.41,0,9.62c-0.1,3.2-0.08,6.41-0.29,9.61c-0.19,3.2-0.29,6.4-0.55,9.6l-0.78,9.58
		l-0.04,0.44l-0.45,0l-29.28-0.04l-0.45,0l0-0.45l0.14-65.94l0.1-32.97l0.21-32.97l0.2,32.97l0.1,32.97l0.14,65.94l-0.45-0.45
		l29.28-0.04l-0.49,0.44l0.82-9.56c0.28-3.19,0.39-6.38,0.59-9.57c0.23-3.19,0.22-6.39,0.33-9.58c0.13-3.2,0.05-6.39,0.04-9.59
		c0.03-3.2-0.18-6.39-0.28-9.58l-0.1-2.39l-0.18-2.39l-0.36-4.78c-0.11-1.59-0.34-3.18-0.5-4.77c-0.19-1.59-0.33-3.18-0.57-4.76
		c-0.5-3.16-0.89-6.33-1.56-9.46c-0.32-1.56-0.57-3.14-0.95-4.7l-1.11-4.66c-0.37-1.56-0.85-3.08-1.27-4.62
		c-0.22-0.77-0.43-1.54-0.66-2.3l-0.76-2.27c-0.51-1.51-0.99-3.04-1.59-4.52c-0.6-1.48-1.1-3-1.78-4.45
		c-0.66-1.45-1.25-2.94-1.98-4.36c-0.74-1.42-1.39-2.88-2.19-4.26c-0.8-1.38-1.52-2.81-2.4-4.14l-1.28-2.03
		c-0.43-0.67-0.91-1.31-1.36-1.97c-1.82-2.63-3.86-5.09-6.04-7.43c-2.17-2.34-4.56-4.48-7.12-6.4c-0.64-0.48-1.31-0.92-1.96-1.39
		c-0.68-0.42-1.34-0.88-2.04-1.26C228.17,102.63,226.73,101.9,225.23,101.36z"/>
</g>
<path d="M252.51,151c0,0,0.5,0.98,0.86,2.46c0.4,1.47,0.64,3.44,0.64,5.41c0,1.97-0.24,3.93-0.64,5.41
	c-0.36,1.47-0.86,2.46-0.86,2.46s-0.51-0.98-0.86-2.46c-0.4-1.47-0.64-3.44-0.64-5.41c0.01-1.97,0.24-3.93,0.64-5.41
	C252.01,151.98,252.51,151,252.51,151z"/>
<path d="M252.51,187.69c0,0,0.5,0.98,0.86,2.46c0.4,1.47,0.64,3.44,0.64,5.41c0,1.97-0.24,3.93-0.64,5.41
	c-0.36,1.47-0.86,2.46-0.86,2.46s-0.51-0.98-0.86-2.46c-0.4-1.47-0.64-3.44-0.64-5.41c0.01-1.97,0.24-3.93,0.64-5.41
	C252.01,188.68,252.51,187.69,252.51,187.69z"/>
<path d="M252.51,221.15c0,0,0.5,0.98,0.86,2.46c0.4,1.47,0.64,3.44,0.64,5.41c0,1.97-0.24,3.93-0.64,5.41
	c-0.36,1.47-0.86,2.46-0.86,2.46s-0.51-0.98-0.86-2.46c-0.4-1.47-0.64-3.44-0.64-5.41c0.01-1.97,0.24-3.93,0.64-5.41
	C252.01,222.13,252.51,221.15,252.51,221.15z"/>
<g>
	<path class="st39" d="M0.86,253.77c0,0,32.62,21.54,93.18,18.54"/>
	<path class="st39" d="M500.22,253.77c0,0-32.62,21.54-93.18,18.54"/>
</g>
<path class="Colour2 fill" d="M426.49,169.17l57.99-13.55c0.3,0.94,0.61,1.9,0.91,2.87l-59.97,14.01
	C425.77,171.41,426.13,170.3,426.49,169.17z M414.79,202.14c-0.47,1.19-0.92,2.32-1.35,3.39l79.16-18.49
	c-0.2-0.99-0.4-1.96-0.61-2.93L414.79,202.14z M488.1,167.93c-0.26-0.97-0.52-1.94-0.79-2.89l-64.44,15.06
	c-0.39,1.14-0.77,2.26-1.15,3.35L488.1,167.93z M493.77,193.17l-83.28,19.46c-0.56,1.3-1.06,2.45-1.5,3.43l85.31-19.93
	C494.13,195.12,493.95,194.14,493.77,193.17z M482.29,149.14c-0.34-0.96-0.68-1.91-1.02-2.84l-51.4,12.01
	c-0.34,1.12-0.67,2.22-1.01,3.31L482.29,149.14z M490.51,177.45c-0.23-0.99-0.47-1.95-0.7-2.91l-70.82,16.55
	c-0.42,1.15-0.84,2.28-1.24,3.37L490.51,177.45z M499.54,241.71l-94.31,22.03c0.34,3.28,0.76,6.29,1.19,8.95l93.6-21.87
	C499.89,247.73,499.73,244.69,499.54,241.71z M496.13,207.73c-0.21-1.5-0.43-2.99-0.66-4.46L406.3,224.1
	c-0.27,1.61-0.5,3.2-0.71,4.78L496.13,207.73z M498.56,228.81l-94.14,22c0.06,2.64,0.18,5.18,0.35,7.61l94.41-22.06
	C498.99,233.79,498.78,231.28,498.56,228.81z M497.89,221.98c-0.21-2.02-0.44-4.03-0.68-6l-92.5,21.61
	c-0.14,2.11-0.24,4.19-0.29,6.22L497.89,221.98z M75.38,172.5l-59.97-14.01c0.3-0.97,0.6-1.92,0.91-2.87l57.99,13.55
	C74.66,170.3,75.02,171.41,75.38,172.5z M8.8,184.11c-0.21,0.97-0.41,1.94-0.61,2.93l79.16,18.49c-0.43-1.08-0.89-2.2-1.35-3.39
	L8.8,184.11z M79.07,183.44c-0.38-1.09-0.77-2.21-1.15-3.35l-64.44-15.06c-0.27,0.95-0.53,1.92-0.79,2.89L79.07,183.44z
	 M6.49,196.12l85.31,19.93c-0.44-0.98-0.94-2.12-1.5-3.43L7.02,193.17C6.84,194.14,6.66,195.12,6.49,196.12z M71.93,161.62
	c-0.33-1.09-0.67-2.19-1.01-3.31l-51.4-12.01c-0.34,0.93-0.68,1.88-1.02,2.84L71.93,161.62z M83.04,194.45
	c-0.41-1.09-0.82-2.22-1.24-3.37l-70.82-16.55c-0.24,0.97-0.47,1.93-0.7,2.91L83.04,194.45z M0.76,250.83l93.6,21.87
	c0.43-2.66,0.85-5.67,1.19-8.95L1.24,241.71C1.06,244.69,0.9,247.73,0.76,250.83z M95.2,228.88c-0.21-1.58-0.44-3.17-0.71-4.78
	L5.32,203.26c-0.23,1.47-0.45,2.96-0.66,4.46L95.2,228.88z M1.6,236.35l94.41,22.06c0.17-2.43,0.29-4.97,0.35-7.61l-94.14-22
	C2,231.28,1.79,233.79,1.6,236.35z M96.35,243.82c-0.05-2.03-0.14-4.11-0.29-6.22l-92.5-21.61c-0.24,1.97-0.46,3.97-0.68,6
	L96.35,243.82z"/>
<g id="FBodyLogos"></g>
</svg>
