<?xml version="1.0" encoding="utf-8"?>
<!-- Generator: Adobe Illustrator 19.1.0, SVG Export Plug-In . SVG Version: 6.00 Build 0)  -->
<svg version="1.1" id="Layer_1" xmlns="http://www.w3.org/2000/svg" xmlns:xlink="http://www.w3.org/1999/xlink" x="0px" y="0px"
	 viewBox="0 0 483.01 645.44" style="enable-background:new 0 0 483.01 645.44;" xml:space="preserve">
<style type="text/css">
	<![CDATA[
	@font-face{font-family:'codaheavy';src:url('/fonts/coda-heavy-webfont.woff') format('woff')}
	text{font-family:Impact,codaheavy,sans-serif}
	.Colour1.fill{fill:#10122C;}
	.Colour2.fill{fill:#1B5490;}
	.Colour3.fill{fill:#C6C62E;}
	.Insert.fill{fill:#10122C;}
	.ArmTrim.fill{fill:#1B5490;}
	.NeckTrim.fill{fill:#C6C62E;}
	.BottomHem.fill{fill:#C6C62E;stroke:#101010;stroke-width:0.8861;stroke-miterlimit:10;}
	.Gradient1.stopColor{stop-color:#0F1633;}
	.st0{fill:#10122C;stroke:#000000;stroke-width:3;stroke-miterlimit:10;}
	.st1{fill:none;stroke:#10122C;stroke-width:2;stroke-linecap:round;stroke-linejoin:round;}
	.st2{fill:#9C2321;stroke:#000000;stroke-width:2;stroke-miterlimit:10;}
	.st3{fill:none;stroke:#221915;stroke-width:0.216;stroke-linecap:round;stroke-linejoin:round;}
	.st4{fill:none;stroke:#0A0505;stroke-width:0.6559;stroke-miterlimit:10;}
	.st5{fill:none;stroke:#FFFFFF;stroke-width:0.328;}
	.st6{fill:none;stroke:#FFFFFF;stroke-width:0.216;stroke-dasharray:2.4,2.4,2.4,2.4;}
	.st7{fill:none;stroke:#101010;stroke-width:0.216;stroke-dasharray:2.4,2.4,2.4,2.4;}
	.st8{fill:#FFFFFF;}
	.st9{fill:none;stroke:#221915;stroke-width:0.233;stroke-miterlimit:10;}
	.st10{fill:none;stroke:#221915;stroke-width:0.36;stroke-miterlimit:10;}
	.st11{fill:#222457;}
	.st12{fill:none;stroke:#0A0505;stroke-width:0.233;stroke-miterlimit:10;}
	.st13{fill:none;}
	.st14{fill:#9E802E;}
	.st15{fill:none;stroke:#0A0505;stroke-width:0.2801;}
	.st16{fill:none;stroke:#000000;stroke-width:0.4411;}
	.st17{fill:#FFFFFF;stroke:#000000;stroke-width:2;stroke-miterlimit:10;}
	.st18{fill:none;stroke:#000000;stroke-linecap:round;stroke-linejoin:round;}
	.st19{fill:url(#SVGID_1_);}
	.st20{fill:url(#SVGID_2_);}
	.st21{fill:url(#SVGID_3_);}
	.st22{fill:url(#SVGID_4_);}
	.st23{fill:url(#SVGID_5_);}
	.st24{fill:url(#SVGID_6_);}
	.st25{fill:url(#SVGID_7_);}
	.st26{fill:url(#SVGID_8_);}
	.st27{fill:url(#SVGID_9_);}
	.st28{fill:url(#SVGID_10_);}
	.st29{fill:url(#SVGID_11_);}
	.st30{fill:url(#SVGID_12_);}
	.st31{fill:url(#SVGID_13_);}
	.st32{fill:url(#SVGID_14_);}
	.st33{fill:url(#SVGID_15_);}
	.st34{fill:url(#SVGID_16_);}
	.st35{fill:url(#SVGID_17_);}
	.st36{fill:url(#SVGID_18_);}
	.st37{fill:url(#SVGID_19_);}
	.st38{fill:url(#SVGID_20_);}
	.st39{fill:url(#SVGID_21_);}
	.st40{fill:url(#SVGID_22_);}
	.st41{fill:url(#SVGID_23_);}
	.st42{fill:url(#SVGID_24_);}
	.st43{fill:url(#SVGID_25_);}
	.st44{fill:url(#SVGID_26_);}
	.st45{fill:url(#SVGID_27_);}
	.st46{fill:url(#SVGID_28_);}
	.st47{fill:url(#SVGID_29_);}
	.st48{fill:url(#SVGID_30_);}
	.st49{fill:url(#SVGID_31_);}
	.st50{fill:url(#SVGID_32_);}
	.st51{fill:url(#SVGID_33_);}
	.st52{fill:url(#SVGID_34_);}
	.st53{fill:url(#SVGID_35_);}
	.st54{fill:url(#SVGID_36_);}
	.st55{fill:url(#SVGID_37_);}
	.st56{fill:url(#SVGID_38_);}
	.st57{fill:url(#SVGID_39_);}
	.st58{fill:url(#SVGID_40_);}
	.st59{fill:url(#SVGID_41_);}
	.st60{fill:url(#SVGID_42_);}
	.st61{fill:url(#SVGID_43_);}
	.st62{fill:url(#SVGID_44_);}
	.st63{fill:url(#SVGID_45_);}
	.st64{fill:url(#SVGID_46_);}
	.st65{fill:url(#SVGID_47_);}
	.st66{fill:url(#SVGID_48_);}
	.st67{fill:url(#SVGID_49_);}
	.st68{fill:url(#SVGID_50_);}
	.st69{fill:url(#SVGID_51_);}
	.st70{fill:url(#SVGID_52_);}
	.st71{fill:url(#SVGID_53_);}
	.st72{fill:url(#SVGID_54_);}
	.st73{fill:url(#SVGID_55_);}
	.st74{fill:url(#SVGID_56_);}
	.st75{fill:url(#SVGID_57_);}
	.st76{fill:url(#SVGID_58_);}
	.st77{fill:url(#SVGID_59_);}
	.st78{fill:url(#SVGID_60_);}
	.st79{fill:url(#SVGID_61_);}
	.st80{fill:url(#SVGID_62_);}
	.st81{fill:url(#SVGID_63_);}
	.st82{fill:url(#SVGID_64_);}
	.st83{fill:url(#SVGID_65_);}
	.st84{fill:url(#SVGID_66_);}
	.st85{fill:url(#SVGID_67_);}
	.st86{fill:url(#SVGID_68_);}
	.st87{fill:url(#SVGID_69_);}
	.st88{fill:url(#SVGID_70_);}
	.st89{fill:url(#SVGID_71_);}
	.st90{fill:url(#SVGID_72_);}
	.st91{fill:url(#SVGID_73_);}
	.st92{fill:url(#SVGID_74_);}
	.st93{fill:url(#SVGID_75_);}
	.st94{fill:url(#SVGID_76_);}
	.st95{fill:url(#SVGID_77_);}
	.st96{fill:url(#SVGID_78_);}
	.st97{fill:url(#SVGID_79_);}
	.white{fill:#ffffff;}
	]]>
</style>
<path class="Colour1 fill" d="M467.39,168.84c-1.06-12.37-9.61-58.76-27.62-86.6c0,0-13.6-16.49-46.65-24.74
	c-33.06-8.25-82.62-28.87-92.15-36.08l-57.74-7h-3.7l-57.74,7c-9.53,7.22-59.09,27.83-92.15,36.08C56.6,65.75,43,82.24,43,82.24
	c-18.01,27.83-26.55,74.23-27.62,86.6c-1.06,12.37-13.64,82.47-13.64,82.47s21.71,2.06,37.47,17.76
	c15.76,15.7,43.18,18.32,43.18,18.32l11.55-62.89c0,0,21.13,131.96,16.9,197.94c-4.24,65.98-4.24,167-4.24,167h132.94h3.7h132.94
	c0,0,0-101.03-4.24-167c-4.23-65.98,16.9-197.94,16.9-197.94l11.55,62.89c0,0,27.42-2.62,43.18-18.32
	c15.76-15.7,37.47-17.76,37.47-17.76S468.45,181.21,467.39,168.84"/>
<path class="st0" d="M411.86,63.39c0,0-22.42,31.16-22.24,135.34l-0.94,26.74"/>
<path class="st0" d="M93.55,223.81l0.39-25.08C94.11,102.7,75.07,68.71,72.09,63.99"/>
<path class="Colour1 fill" d="M82.39,287.39l11.55-62.89c0,0,6.21-103.15-20.72-158.58l-1.58-2.48C51.58,71.85,43,82.24,43,82.24
	c-18.01,27.83-26.55,74.23-27.62,86.6c-1.06,12.37-13.64,82.47-13.64,82.47s21.71,2.06,37.47,17.76
	C54.97,284.77,82.39,287.39,82.39,287.39z"/>
<path class="Colour1 fill" d="M400.86,287.39L389.3,224.5c0,0-6.21-103.15,20.72-158.58l1.58-2.48c20.06,8.41,28.64,18.8,28.64,18.8
	c18.01,27.83,26.55,74.23,27.62,86.6c1.06,12.37,13.64,82.47,13.64,82.47s-21.71,2.06-37.47,17.76
	C428.27,284.77,400.86,287.39,400.86,287.39z"/>
<g>
	<path class="st1" d="M43.94,80.88c-0.46,0.47-0.79,0.83-1,1.06"/>
	<path class="st1" d="M42.89,82c0.02-0.02,0.04-0.04,0.05-0.06"/>
	<path class="st1" d="M42.75,82.16c0.01-0.02,0.03-0.04,0.05-0.06"/>
	<path class="st1" d="M42.89,82c-0.04,0.04-0.06,0.07-0.09,0.1"/>
	<path class="st1" d="M400.53,287.34c-0.29,0.03-0.46,0.05-0.46,0.05l-11.55-62.89c0,0-21.13,131.96-16.9,197.94
		c4.24,65.98,4.24,167,4.24,167H242.92h-3.7H106.28c0,0,0-101.03,4.24-167c4.23-65.98-16.9-197.94-16.9-197.94l-1.79,9.76"/>
	<path class="st1" d="M42.68,82.24c0,0,0.01-0.02,0.03-0.03"/>
	<path class="st1" d="M71.32,63.44c5.22-2.19,11.19-4.24,18.01-5.94c33.06-8.25,82.62-28.87,92.15-36.08l57.74-7h3.7l57.74,7
		c9.53,7.22,59.09,27.83,92.15,36.08c6.98,1.74,13.08,3.85,18.38,6.1"/>
	<path class="st1" d="M400.53,287.34c3.58-0.42,28.13-3.74,42.72-18.27c15.76-15.7,37.47-17.76,37.47-17.76s-12.58-70.1-13.64-82.47
		c-1.06-12.37-9.61-58.76-27.62-86.6c0,0-8.47-10.26-28.27-18.65"/>
	<path class="st1" d="M43.94,80.88c3.03-3.08,11.69-10.86,27.37-17.43"/>
	<line class="st1" x1="43.94" y1="80.88" x2="43.94" y2="80.88"/>
	<line class="st1" x1="71.32" y1="63.44" x2="71.32" y2="63.44"/>
	<path class="st1" d="M42.75,82.16c-0.02,0.02-0.03,0.03-0.04,0.04"/>
	<path class="st1" d="M5.75,226.84c0.38-2.2,0.78-4.49,1.18-6.82"/>
	<path class="st1" d="M3.87,237.52c0.42-2.36,0.87-4.94,1.35-7.68"/>
	<path class="st1" d="M2.78,243.7c0.32-1.81,0.69-3.89,1.09-6.19"/>
	<path class="st1" d="M5.75,226.84c-0.18,1.02-0.35,2.02-0.52,3"/>
	<path class="st1" d="M1.42,251.31L1.42,251.31c0,0,2.12,0.2,5.52,0.96"/>
	<path class="st1" d="M6.94,252.27c5.09,1.13,13.06,3.52,21.05,8.34"/>
	<path class="st1" d="M13.79,178.57c0.21-1.41,0.4-2.72,0.57-3.92"/>
	<path class="st1" d="M11.43,193.45c0.18-1.12,0.37-2.23,0.54-3.32"/>
	<path class="st1" d="M8.1,213.23c0.04-0.21,0.07-0.41,0.11-0.62"/>
	<path class="st1" d="M8.72,209.63c0.55-3.21,1.09-6.41,1.61-9.55"/>
	<path class="st1" d="M13.16,182.68c0.09-0.55,0.17-1.1,0.25-1.64"/>
	<path class="st1" d="M13.16,182.68c-0.21,1.36-0.44,2.79-0.67,4.27"/>
	<path class="st1" d="M42.68,82.24C42.68,82.24,42.68,82.24,42.68,82.24c-18.01,27.84-26.56,74.23-27.62,86.6
		c-0.11,1.33-0.36,3.32-0.71,5.82"/>
	<path class="st1" d="M13.79,178.57c-0.12,0.79-0.24,1.62-0.37,2.47"/>
	<path class="st1" d="M8.72,209.63c-0.17,1-0.34,1.99-0.51,2.98"/>
	<path class="st1" d="M8.1,213.23c-0.19,1.09-0.38,2.18-0.56,3.27"/>
	<path class="st1" d="M6.93,220.02c0.2-1.17,0.41-2.34,0.61-3.53"/>
	<path class="st1" d="M2.78,243.7c-0.84,4.71-1.36,7.61-1.36,7.61"/>
	<line class="st1" x1="91.83" y1="234.27" x2="82.07" y2="287.39"/>
	<path class="st1" d="M10.87,196.87c-0.18,1.06-0.35,2.13-0.53,3.21"/>
	<path class="st1" d="M82.07,287.39L82.07,287.39c0,0-27.41-2.62-43.18-18.32c-3.45-3.43-7.18-6.22-10.91-8.47"/>
	<path class="st1" d="M13.41,181.04c0.13-0.85,0.26-1.67,0.37-2.47"/>
	<path class="st1" d="M71.32,63.44l1.58,2.48C99.83,121.36,93.62,224.5,93.62,224.5l-1.79,9.76"/>
	<path class="st1" d="M8.21,212.61c0.17-0.99,0.34-1.99,0.51-2.98"/>
	<path class="st1" d="M8.21,212.61c-0.04,0.21-0.07,0.41-0.11,0.62"/>
	<path class="st1" d="M12.49,186.94c0.24-1.48,0.46-2.9,0.67-4.27"/>
	<path class="st1" d="M10.33,200.07c0.18-1.08,0.36-2.15,0.53-3.21"/>
	<path class="st1" d="M7.54,216.49c0.19-1.08,0.37-2.17,0.56-3.27"/>
	<path class="st1" d="M6.93,220.02c-0.4,2.33-0.8,4.61-1.18,6.82"/>
	<path class="st1" d="M5.22,229.84c-0.48,2.73-0.93,5.32-1.35,7.68"/>
	<path class="st1" d="M2.78,243.7c0.32-1.81,0.69-3.9,1.09-6.19"/>
	<path class="st1" d="M2.78,243.7c-0.84,4.71-1.36,7.61-1.36,7.61l0,0"/>
	<path class="st1" d="M6.94,252.27c5.09,1.13,13.06,3.52,21.05,8.34"/>
	<path class="st1" d="M6.94,252.27c-3.4-0.76-5.52-0.96-5.52-0.96"/>
	<path class="st1" d="M6.93,220.02c0.2-1.17,0.41-2.34,0.61-3.53"/>
	<path class="st1" d="M5.22,229.84c0.17-0.98,0.35-1.98,0.52-3"/>
	<path class="st1" d="M10.33,200.07c-0.53,3.14-1.07,6.35-1.61,9.55"/>
	<path class="st1" d="M42.94,81.94c0.21-0.23,0.54-0.59,1-1.06"/>
	<path class="st1" d="M42.68,82.24C42.68,82.24,42.68,82.24,42.68,82.24c-18.01,27.84-26.56,74.23-27.62,86.6
		c-0.11,1.33-0.36,3.32-0.71,5.82"/>
	<path class="st1" d="M43.94,80.88c3.04-3.09,11.7-10.86,27.37-17.43"/>
	<path class="st1" d="M14.36,174.65c-0.17,1.2-0.36,2.51-0.57,3.92"/>
	<path class="st1" d="M82.07,287.39c0,0-27.41-2.62-43.18-18.32c-3.45-3.43-7.18-6.22-10.91-8.47"/>
	<polyline class="st1" points="71.32,63.44 71.32,63.44 71.32,63.44 	"/>
	<polyline class="st1" points="91.83,234.27 82.07,287.39 82.07,287.39 	"/>
	<path class="st1" d="M42.71,82.21c0.01-0.01,0.02-0.03,0.04-0.04"/>
	<path class="st1" d="M42.8,82.1c0.03-0.03,0.06-0.06,0.09-0.1"/>
	<path class="st1" d="M42.8,82.1c-0.02,0.02-0.04,0.04-0.05,0.06"/>
	<path class="st1" d="M42.94,81.94c-0.02,0.02-0.04,0.04-0.05,0.06"/>
	<path class="st1" d="M11.97,190.13c-0.18,1.09-0.36,2.19-0.54,3.32"/>
	<path class="st1" d="M42.68,82.24c0,0,0.01-0.01,0.03-0.03"/>
	<line class="st1" x1="43.94" y1="80.88" x2="43.94" y2="80.88"/>
	<path class="st1" d="M13.41,181.04c-0.08,0.53-0.17,1.08-0.25,1.64"/>
	<path class="st1" d="M11.43,193.45c-0.18,1.12-0.37,2.27-0.56,3.42"/>
	<path class="st1" d="M12.49,186.94c-0.17,1.04-0.34,2.1-0.51,3.19"/>
	<path class="st1" d="M400.53,287.34l0.01,0.05c0,0,27.41-2.62,43.18-18.32c15.76-15.7,37.47-17.76,37.47-17.76
		s-12.58-70.1-13.64-82.47c-1.06-12.37-9.61-58.76-27.61-86.6c0,0-8.58-10.39-28.64-18.8l-0.1,0.15"/>
	<path class="st1" d="M411.19,63.59l-1.48,2.33c-26.93,55.43-20.72,158.58-20.72,158.58l11.55,62.84"/>
</g>
<polygon class="st2" points="3.47,242.89 82.46,279.29 80.45,286.79 1.5,261.45 "/>
<path class="st3" d="M321.18,62.03"/>
<path class="st3" d="M317.06,58.05"/>
<path class="st3" d="M309,62.32"/>
<path class="Colour1 fill" d="M136.17,609.18c14.53,11.95,35.54,31.32,104.42,31.32c68.89,0,89.89-19.37,104.42-31.32
	c11.78-9.69,22.37-13.7,27.97-15.24c1.94-0.53,2.58-2.93,1.2-4.39c-2.2-2.33-5.18-4.93-9.09-7.4c-7-4.44-10.54-8.63-37.84-11.19
	c-5.98-0.56-13.12-1.04-21.66-1.43c-15.54-0.71-38.27-0.88-64.99-0.88c-26.73,0-49.45,0.18-65,0.88
	c-8.54,0.39-15.68,0.86-21.66,1.43c-27.3,2.55-30.84,6.75-37.84,11.19c-3.92,2.48-6.9,5.09-9.11,7.42
	c-1.38,1.46-0.74,3.87,1.21,4.39C113.74,595.46,124.25,599.37,136.17,609.18"/>
<path class="st4" d="M136.17,609.18c14.53,11.95,35.54,31.32,104.42,31.32c68.89,0,89.89-19.37,104.42-31.32
	c11.46-9.43,21.79-13.48,27.5-15.11c2.15-0.61,2.89-3.27,1.33-4.87c-2.17-2.24-5.04-4.7-8.76-7.06c-7-4.44-10.54-8.63-37.84-11.19
	c-5.98-0.56-13.12-1.04-21.66-1.43c-15.54-0.71-38.27-0.88-64.99-0.88c-26.73,0-49.45,0.18-65,0.88
	c-8.54,0.39-15.68,0.86-21.66,1.43c-27.3,2.55-30.84,6.75-37.84,11.19c-3.73,2.36-6.6,4.83-8.78,7.07c-1.55,1.6-0.82,4.27,1.33,4.87
	C114.31,595.68,124.57,599.64,136.17,609.18z"/>
<line class="st5" x1="185.75" y1="57.37" x2="81.81" y2="95.22"/>
<line class="st6" x1="180.37" y1="56.67" x2="81.81" y2="91.73"/>
<line class="st6" x1="181.36" y1="57.95" x2="81.81" y2="93.76"/>
<line class="st5" x1="297.55" y1="57.37" x2="401.5" y2="95.22"/>
<line class="st6" x1="302.93" y1="56.67" x2="401.5" y2="91.73"/>
<line class="st6" x1="302.93" y1="58.42" x2="401.5" y2="93.47"/>
<path class="st6" d="M312.4,567.73l9.73-185.56c0,0,4.05-25.16,13.87-47.33c16.57-40.34,49.66-120.86,55.16-134.26"/>
<path class="st6" d="M314.15,567.73l9.73-185.56c0,0,4.05-25.16,13.87-47.33c16.57-40.34,49.66-120.86,55.16-134.26"/>
<path class="st6" d="M170.97,567.73l-9.73-185.56c0,0-4.05-25.16-13.87-47.33C130.8,294.5,97.71,213.98,92.21,200.57"/>
<path class="st6" d="M169.22,567.73l-9.73-185.56c0,0-4.05-25.16-13.87-47.33c-16.57-40.34-49.66-120.86-55.16-134.26"/>
<path class="st6" d="M377.15,587.83c-2.2-2.95-5.99-7.09-12.07-10.92c-7.01-4.44-10.54-8.63-37.84-11.19
	c-5.98-0.56-13.12-1.04-21.67-1.43c-15.54-0.71-38.28-0.89-64.99-0.89c-26.73,0-49.45,0.18-65,0.89
	c-8.54,0.38-15.68,0.86-21.66,1.43c-27.3,2.56-30.84,6.75-37.85,11.19c-6.07,3.84-9.87,7.98-12.07,10.92"/>
<path class="st6" d="M377.15,584.34c-2.2-2.95-5.99-7.09-12.07-10.92c-7.01-4.44-10.54-8.63-37.84-11.19
	c-5.98-0.56-13.12-1.04-21.67-1.43c-15.54-0.71-38.28-0.89-64.99-0.89c-26.73,0-49.45,0.18-65,0.89
	c-8.54,0.38-15.68,0.86-21.66,1.43c-27.3,2.56-30.84,6.75-37.85,11.19c-6.07,3.84-9.87,7.98-12.07,10.92"/>
<path class="st7" d="M74.97,65.26c0,0,22.42,31.16,22.24,135.34"/>
<path class="st7" d="M408.27,65.26c0,0-22.42,31.16-22.24,135.34"/>
<path class="st3" d="M277.79,56.76"/>
<path class="st3" d="M269.71,61.05"/>
<path class="st8" d="M180.59,38.05c20.48-22.33,96.57-26.13,120.94-1.7l-6.27-13.38c-21.91-7.01-37.53-11.63-53.15-11.66
	c-15.62-0.03-31.23,4.52-53.15,11.53L180.59,38.05z"/>
<path class="st9" d="M180.59,38.05c20.48-22.33,96.57-26.13,120.94-1.7l-6.27-13.38c-21.91-7.01-37.53-11.63-53.15-11.66
	c-15.62-0.03-31.23,4.52-53.15,11.53L180.59,38.05z"/>
<path class="white" d="M192.54,21.39c10.93-3.81,27.89-8.29,48.97-8.29c21.07,0,38.02,4.48,48.95,8.29c0.37,7.1-0.26,17.42-6.41,26.59
	c-3.21,4.78-5.79,7.47-12.6,12.68c-8.34,6.38-17.75,14.74-20.48,22.2c-6.3,0-12.6,0-18.91,0c-2.9-7.21-7.2-11.02-10.03-13.69
	c-3.75-3.53-4.84-4.11-12.02-10.09c-4.66-3.88-7.08-5.92-9.45-9.51c-2.39-3.61-3.38-6.72-4.73-11.1
	C194.58,34.46,193.15,28.66,192.54,21.39z"/>
<path class="st3" d="M265.68,57.16"/>
<path class="st3" d="M257.83,61.33"/>
<path class="NeckTrim fill" d="M284.76,7.64c-31.34-8-56.6-7.65-89,1.13l4.12,10.16c12.18-4.56,26.9-5.55,41.72-5.55
	c14.02,0,28.11,0.75,40.22,4.47L284.76,7.64z"/>
<path class="st10" d="M284.76,7.64c-31.34-8-56.6-7.65-89,1.13l4.12,10.16c12.18-4.56,26.9-5.55,41.72-5.55
	c14.02,0,28.11,0.75,40.22,4.47L284.76,7.64z"/>
<path class="NeckTrim fill" d="M190.83,10.24l16.03-4.49l2.56,10.97l-19.34,5.27C190.08,21.98,188.82,17.23,190.83,10.24"/>
<path class="st10" d="M190.83,10.24l16.03-4.49l2.56,10.97l-19.34,5.27C190.08,21.98,188.82,17.23,190.83,10.24z"/>
<path class="NeckTrim fill" d="M293.49,10.24l-16.03-4.49l-2.56,10.97l19.34,5.27C294.24,21.98,295.49,17.23,293.49,10.24"/>
<path class="st10" d="M293.49,10.24l-16.03-4.49l-2.56,10.97l19.34,5.27C294.24,21.98,295.49,17.23,293.49,10.24z"/>
<path class="Colour2 fill" d="M176.64,27.67l-10.58,5.17c0,0-3.09,13.97,12.45,28.83l8.91-3.39C187.42,58.28,176.87,48.19,176.64,27.67"
	/>
<path class="Colour2 fill" d="M308.26,27.67l8.88,5.17c0,0,2.4,13.97-13.15,28.83l-4.82-3.39C299.17,58.28,308.03,48.19,308.26,27.67"/>
<path class="NeckTrim fill" d="M294.34,11.62l14.61,17.24c0,0,1.19,25.32-15.53,36.94c-4.5,3.12-16.64,11.04-21.51,13.99
	c-13.26,8.01-18.59,9.71-18.59,9.71s0.17-10.37,3.85-12.57c0,0,26.09-22.15,28.18-25.13C287.44,48.81,295.56,26.25,294.34,11.62"/>
<path class="st12" d="M294.34,11.62l14.61,17.24c0,0,1.19,25.32-15.53,36.94c-4.5,3.12-16.64,11.04-21.51,13.99
	c-13.26,8.01-18.59,9.71-18.59,9.71s0.17-10.37,3.85-12.57c0,0,26.09-22.15,28.18-25.13C287.44,48.81,295.56,26.25,294.34,11.62z"/>
<path class="NeckTrim fill" d="M188.78,11.62l-14.61,17.24c0,0-1.19,25.32,15.53,36.94c4.5,3.12,16.64,11.04,21.51,13.99
	c13.26,8.01,18.59,9.71,18.59,9.71s-0.17-10.37-3.85-12.57c0,0-26.09-22.15-28.18-25.13C195.68,48.81,187.55,26.25,188.78,11.62"/>
<path class="st12" d="M188.78,11.62l-14.61,17.24c0,0-1.19,25.32,15.53,36.94c4.5,3.12,16.64,11.04,21.51,13.99
	c13.26,8.01,18.59,9.71,18.59,9.71s-0.17-10.37-3.85-12.57c0,0-26.09-22.15-28.18-25.13C195.68,48.81,187.55,26.25,188.78,11.62z"/>
<path class="Insert fill" d="M229.8,81.83h23l-3.58,8.64c0,0-5.87,2.08-14.73,0L229.8,81.83z"/>
<path class="st13" d="M230.38,81.28h23l-3.58,8.64c0,0-5.87,2.08-14.73,0L230.38,81.28z"/>
<path class="st6" d="M165.45,33.14c1.07,17.69,13.06,30.02,13.06,30.02c21.35,21.07,46.51,31.22,46.51,31.22s8.73,1.78,14.04,1.78
	h4.16c5.31,0,14.04-1.78,14.04-1.78s25.16-10.15,46.51-31.22c0,0,11.99-12.33,13.06-30.02"/>
<path class="st6" d="M169.76,30.94c-1.49,11.32,10.13,28.68,10.13,28.68c21.35,21.07,46.62,31.49,46.62,31.49s8.24,2.28,13.55,2.28
	h2.16c5.31,0,13.55-2.28,13.55-2.28s25.27-10.42,46.62-31.49c0,0,11.63-17.36,10.13-28.68"/>
<path class="st14" d="M253.31,89.49c0.02-0.06,1.78-3.95,3.8-9.14c1.21-3.09,8.38-8.94,15.32-14.6c3.55-2.89,7.22-5.88,10.62-8.91
	c16.24-14.4,14.61-36.71,12.75-44.03c-0.8-3.15-7.02-5.72-18.5-7.64l-0.67,2.98c6.69,1.12,13.39,3.1,14.69,4.32
	c0.52,3.84-1.92,32.37-11.45,40.81c-3.34,2.96-6.96,5.92-10.48,8.78c-9.35,7.63-15.16,12.5-16.75,16.56
	c-2.11,5.41-3.87,11.7-3.95,11.97L253.31,89.49z"/>
<path class="NeckTrim fill" d="M253.31,89.49c0.02-0.06,1.78-3.95,3.8-9.14c1.21-3.09,8.38-8.94,15.32-14.6
	c3.55-2.89,7.22-5.88,10.62-8.91c16.24-14.4,14.61-36.71,12.75-44.03c-0.8-3.15-7.02-5.72-18.5-7.64l-0.67,2.98
	c6.69,1.12,13.39,3.1,14.69,4.32c0.52,3.84-1.92,32.37-11.45,40.81c-3.34,2.96-6.96,5.92-10.48,8.78
	c-9.35,7.63-15.16,12.5-16.75,16.56c-2.11,5.41-3.87,11.7-3.95,11.97L253.31,89.49z"/>
<path class="NeckTrim fill" d="M230.46,89.49c-0.02-0.06-1.78-3.95-3.8-9.14c-1.21-3.09-8.38-8.94-15.32-14.6
	c-3.55-2.89-7.22-5.88-10.63-8.91c-7.52-6.66-12.65-44.44-12.75-44.03c0.8-3.15,7.02-5.72,18.5-7.64l0.67,2.98
	c-6.69,1.12-13.39,3.1-14.69,4.32c-0.52,3.84,1.92,32.37,11.45,40.81c3.34,2.96,6.96,5.92,10.48,8.78
	c9.35,7.63,15.17,12.5,16.75,16.56c2.11,5.41,3.87,11.7,3.95,11.97L230.46,89.49z"/>
<path class="st15" d="M230.46,89.49c-0.02-0.06-1.78-3.95-3.8-9.14c-1.21-3.09-8.38-8.94-15.32-14.6
	c-3.55-2.89-7.22-5.88-10.63-8.91c-7.52-6.66-12.65-44.44-12.75-44.03c0.8-3.15,7.02-5.72,18.5-7.64l0.67,2.98
	c-6.69,1.12-13.39,3.1-14.69,4.32c-0.52,3.84,1.92,32.37,11.45,40.81c3.34,2.96,6.96,5.92,10.48,8.78
	c9.35,7.63,15.17,12.5,16.75,16.56c2.11,5.41,3.87,11.7,3.95,11.97L230.46,89.49z"/>
<path class="st16" d="M411.62,65.26c0,0-22.42,31.16-22.24,135.34l-0.94,26.74"/>
<path class="st16" d="M71.46,65.26c0,0,22.42,31.16,22.24,135.34l-0.39,25.08"/>
<path class="st17" d="M388.6,226.37L388.6,226.37c0,0-0.04,0.23-0.1,0.65C388.56,226.61,388.6,226.37,388.6,226.37z"/>
<polygon class="ArmTrim fill" points="479.27,244.64 400.28,279.28 402.3,286.79 481.24,263.2 "/>
<polygon class="ArmTrim fill" points="3.47,242.89 82.46,279.29 80.45,286.79 1.5,261.45 "/>
<g>
	<polygon class="st18" points="400.28,279.28 402.3,286.79 481.24,263.2 479.27,244.64 	"/>
	<polygon class="st18" points="1.5,261.45 80.45,286.79 82.46,279.29 3.47,242.89 	"/>
</g>
<path class="st6" d="M399.27,284.89c0,0,27.41-2.62,43.18-18.32c15.76-15.7,37.47-17.76,37.47-17.76"/>
<path class="st6" d="M399.27,283.14c0,0,27.41-2.62,43.18-18.32c15.76-15.7,37.47-17.76,37.47-17.76"/>
<path class="st6" d="M82.91,285.47c0,0-27.42-2.62-43.18-18.32c-15.76-15.7-37.47-17.76-37.47-17.76"/>
<path class="st6" d="M82.91,283.72c0,0-27.42-2.62-43.18-18.32c-15.76-15.7-37.47-17.76-37.47-17.76"/>
<g>
	<path class="st17" d="M388.6,226.37L388.6,226.37c0,0-0.04,0.23-0.1,0.65C388.56,226.61,388.6,226.37,388.6,226.37z"/>
</g>
<g>
	<polygon class="Colour3 fill" points="333.26,290.94 333.27,290.82 333.25,290.94 	"/>
	<path class="Colour3 fill" d="M290.78,567.73l38.74-252.51c-0.49,0.23-0.97,0.45-1.46,0.68l-52.36,251.8
		C288.16,567.11,290.78,567.73,290.78,567.73z"/>
</g>
<path class="Colour3 fill" d="M379.52,227.83c-0.65,2.72-1.33,5.44-2.05,8.14c-0.71,2.7-1.43,5.4-2.2,8.09
	c-0.77,2.68-1.48,5.39-2.29,8.06l-2.38,8.02c-0.77,2.68-1.64,5.33-2.46,7.99l-2.5,7.98c-0.83,2.66-1.72,5.3-2.57,7.96l-2.64,7.93
	l-0.44,1.33l-1.37,0.68l-6.35,3.15l-6.37,3.12c-4.26,2.05-8.51,4.12-12.79,6.13c-4.27,2.04-8.56,4.02-12.85,6.01l-6.45,2.94
	l-6.47,2.91c-2.16,0.95-4.31,1.94-6.49,2.87l-6.52,2.81l-6.52,2.8l-6.56,2.71c-2.19,0.89-4.36,1.83-6.57,2.69l-6.61,2.62
	c-2.2,0.87-4.43,1.69-6.65,2.54c-2.22,0.84-4.45,1.65-6.7,2.44c2.02-1.25,4.05-2.48,6.1-3.68c2.05-1.19,4.09-2.41,6.15-3.58
	l6.19-3.5c2.05-1.18,4.15-2.28,6.22-3.43l6.23-3.4l6.28-3.31l6.28-3.31c2.09-1.11,4.2-2.17,6.3-3.25l6.33-3.21l6.34-3.17
	c4.24-2.09,8.48-4.18,12.74-6.23c4.25-2.07,8.53-4.08,12.8-6.1l6.43-2.99l6.44-2.96l-1.81,2l2.97-7.81c1.01-2.6,2-5.2,3.03-7.79
	l3.11-7.77c1.04-2.59,2.05-5.18,3.15-7.75l3.23-7.72c1.06-2.58,2.22-5.13,3.32-7.69c1.1-2.57,2.25-5.11,3.41-7.66
	C377.11,232.89,378.31,230.35,379.52,227.83z"/>
<path class="Colour2 fill" d="M327.1,293.89c2.19-1.07,4.4-2.12,6.62-3.18l6.66-38.14l48.11-128.2l-55.36,125.76l-0.1,0.23l-0.1,0.45
	l-10.56,45.37C323.94,295.42,325.52,294.65,327.1,293.89z"/>
<path class="Colour3 fill" d="M103.38,227.83c0.65,2.72,1.33,5.44,2.05,8.14c0.71,2.7,1.43,5.4,2.2,8.09c0.77,2.68,1.48,5.39,2.29,8.06
	l2.38,8.02c0.77,2.68,1.64,5.33,2.46,7.99l2.5,7.98c0.83,2.66,1.72,5.3,2.57,7.96l2.64,7.93l0.44,1.33l1.37,0.68l6.35,3.15
	l6.37,3.12c4.26,2.05,8.51,4.12,12.79,6.13c4.27,2.04,8.56,4.02,12.85,6.01l6.45,2.94l6.47,2.91c2.16,0.95,4.31,1.94,6.49,2.87
	l6.52,2.81l6.52,2.8l6.56,2.71c2.19,0.89,4.36,1.83,6.57,2.69l6.61,2.62c2.2,0.87,4.43,1.69,6.65,2.54c2.22,0.84,4.45,1.65,6.7,2.44
	c-2.02-1.25-4.05-2.48-6.1-3.68c-2.05-1.19-4.09-2.41-6.15-3.58l-6.19-3.5c-2.05-1.18-4.15-2.28-6.22-3.43l-6.23-3.4l-6.28-3.31
	l-6.28-3.31c-2.09-1.11-4.2-2.17-6.3-3.25l-6.33-3.21l-6.34-3.17c-4.24-2.09-8.48-4.18-12.74-6.23c-4.25-2.07-8.53-4.08-12.8-6.1
	l-6.43-2.99l-6.44-2.96l1.81,2l-2.97-7.81c-1.01-2.6-2-5.2-3.03-7.79l-3.11-7.77c-1.04-2.59-2.05-5.18-3.15-7.75l-3.23-7.72
	c-1.06-2.58-2.22-5.13-3.32-7.69c-1.1-2.57-2.25-5.11-3.41-7.66C105.79,232.89,104.6,230.35,103.38,227.83z"/>
<g>
	<polygon class="Colour3 fill" points="149.65,290.94 149.63,290.82 149.66,290.94 	"/>
	<path class="Colour3 fill" d="M192.25,567.65l-38.86-252.43c0.49,0.23,0.97,0.45,1.46,0.68l52.36,251.8
		C192.09,566.98,192.25,567.65,192.25,567.65z"/>
</g>
<path class="Colour2 fill" d="M155.81,293.89c-2.19-1.07-4.4-2.12-6.62-3.18l-6.66-38.14l-48.11-128.2l55.36,125.76l0.1,0.23l0.1,0.45
	l10.56,45.37C158.97,295.42,157.39,294.65,155.81,293.89z"/>
<g>
	<linearGradient id="SVGID_1_" gradientUnits="userSpaceOnUse" x1="241.4528" y1="328.8355" x2="241.4528" y2="565.8595">
		<stop class="Gradient1 stopColor" offset="0" style="stop-color:#0F1633"/>
		<stop class="Colour2 fill stopColor" offset="1" style="stop-color:#1B5490"/>
	</linearGradient>
	<polygon class="st19" points="215.87,559.71 216.33,561.69 266.57,561.69 267.03,559.71 	"/>
	<linearGradient id="SVGID_2_" gradientUnits="userSpaceOnUse" x1="241.4529" y1="328.8355" x2="241.4529" y2="565.8595">
		<stop class="Gradient1 stopColor" offset="0" style="stop-color:#0F1633"/>
		<stop class="Colour2 fill stopColor" offset="1" style="stop-color:#1B5490"/>
	</linearGradient>
	<polygon class="st20" points="210.21,535.37 210.67,537.35 272.24,537.35 272.7,535.37 	"/>
	<linearGradient id="SVGID_3_" gradientUnits="userSpaceOnUse" x1="241.4528" y1="328.8355" x2="241.4528" y2="565.8595">
		<stop class="Gradient1 stopColor" offset="0" style="stop-color:#0F1633"/>
		<stop class="Colour2 fill stopColor" offset="1" style="stop-color:#1B5490"/>
	</linearGradient>
	<polygon class="st21" points="211.02,538.84 211.48,540.83 271.43,540.83 271.89,538.84 	"/>
	<linearGradient id="SVGID_4_" gradientUnits="userSpaceOnUse" x1="241.4529" y1="328.8355" x2="241.4529" y2="565.8595">
		<stop class="Gradient1 stopColor" offset="0" style="stop-color:#0F1633"/>
		<stop class="Colour2 fill stopColor" offset="1" style="stop-color:#1B5490"/>
	</linearGradient>
	<polygon class="st22" points="208.59,528.41 209.05,530.39 273.86,530.39 274.32,528.41 	"/>
	<linearGradient id="SVGID_5_" gradientUnits="userSpaceOnUse" x1="241.4529" y1="328.8355" x2="241.4529" y2="565.8595">
		<stop class="Gradient1 stopColor" offset="0" style="stop-color:#0F1633"/>
		<stop class="Colour2 fill stopColor" offset="1" style="stop-color:#1B5490"/>
	</linearGradient>
	<polygon class="st23" points="209.4,531.89 209.86,533.87 273.05,533.87 273.51,531.89 	"/>
	<linearGradient id="SVGID_6_" gradientUnits="userSpaceOnUse" x1="241.4528" y1="328.8355" x2="241.4528" y2="565.8595">
		<stop class="Gradient1 stopColor" offset="0" style="stop-color:#0F1633"/>
		<stop class="Colour2 fill stopColor" offset="1" style="stop-color:#1B5490"/>
	</linearGradient>
	<polygon class="st24" points="212.64,545.8 213.1,547.78 269.81,547.78 270.27,545.8 	"/>
	<linearGradient id="SVGID_7_" gradientUnits="userSpaceOnUse" x1="241.4529" y1="328.8355" x2="241.4529" y2="565.8595">
		<stop class="Gradient1 stopColor" offset="0" style="stop-color:#0F1633"/>
		<stop class="Colour2 fill stopColor" offset="1" style="stop-color:#1B5490"/>
	</linearGradient>
	<polygon class="st25" points="211.83,542.32 212.29,544.3 270.62,544.3 271.08,542.32 	"/>
	<linearGradient id="SVGID_8_" gradientUnits="userSpaceOnUse" x1="241.4529" y1="328.8355" x2="241.4529" y2="565.8595">
		<stop class="Gradient1 stopColor" offset="0" style="stop-color:#0F1633"/>
		<stop class="Colour2 fill stopColor" offset="1" style="stop-color:#1B5490"/>
	</linearGradient>
	<polygon class="st26" points="206.16,517.98 206.62,519.96 276.28,519.96 276.75,517.98 	"/>
	<linearGradient id="SVGID_9_" gradientUnits="userSpaceOnUse" x1="241.4528" y1="328.8355" x2="241.4528" y2="565.8595">
		<stop class="Gradient1 stopColor" offset="0" style="stop-color:#0F1633"/>
		<stop class="Colour2 fill stopColor" offset="1" style="stop-color:#1B5490"/>
	</linearGradient>
	<polygon class="st27" points="204.54,511.03 205,513.01 277.9,513.01 278.36,511.03 	"/>
	<linearGradient id="SVGID_10_" gradientUnits="userSpaceOnUse" x1="241.4529" y1="328.8355" x2="241.4529" y2="565.8595">
		<stop class="Gradient1 stopColor" offset="0" style="stop-color:#0F1633"/>
		<stop class="Colour2 fill stopColor" offset="1" style="stop-color:#1B5490"/>
	</linearGradient>
	<polygon class="st28" points="207.78,524.93 208.24,526.92 274.67,526.92 275.13,524.93 	"/>
	<linearGradient id="SVGID_11_" gradientUnits="userSpaceOnUse" x1="241.4529" y1="328.8355" x2="241.4529" y2="565.8595">
		<stop class="Gradient1 stopColor" offset="0" style="stop-color:#0F1633"/>
		<stop class="Colour2 fill stopColor" offset="1" style="stop-color:#1B5490"/>
	</linearGradient>
	<polygon class="st29" points="205.35,514.5 205.81,516.48 277.09,516.48 277.56,514.5 	"/>
	<linearGradient id="SVGID_12_" gradientUnits="userSpaceOnUse" x1="241.4529" y1="328.8355" x2="241.4529" y2="565.8595">
		<stop class="Gradient1 stopColor" offset="0" style="stop-color:#0F1633"/>
		<stop class="Colour2 fill stopColor" offset="1" style="stop-color:#1B5490"/>
	</linearGradient>
	<polygon class="st30" points="213.44,549.28 213.91,551.26 269,551.26 269.46,549.28 	"/>
	<linearGradient id="SVGID_13_" gradientUnits="userSpaceOnUse" x1="241.4529" y1="328.8355" x2="241.4529" y2="565.8595">
		<stop class="Gradient1 stopColor" offset="0" style="stop-color:#0F1633"/>
		<stop class="Colour2 fill stopColor" offset="1" style="stop-color:#1B5490"/>
	</linearGradient>
	<polygon class="st31" points="203.73,507.55 204.19,509.53 278.71,509.53 279.17,507.55 	"/>
	<linearGradient id="SVGID_14_" gradientUnits="userSpaceOnUse" x1="241.4528" y1="328.8355" x2="241.4528" y2="565.8595">
		<stop class="Gradient1 stopColor" offset="0" style="stop-color:#0F1633"/>
		<stop class="Colour2 fill stopColor" offset="1" style="stop-color:#1B5490"/>
	</linearGradient>
	<polygon class="st32" points="214.25,552.75 214.72,554.73 268.19,554.73 268.65,552.75 	"/>
	<linearGradient id="SVGID_15_" gradientUnits="userSpaceOnUse" x1="241.4528" y1="328.8355" x2="241.4528" y2="565.8595">
		<stop class="Gradient1 stopColor" offset="0" style="stop-color:#0F1633"/>
		<stop class="Colour2 fill stopColor" offset="1" style="stop-color:#1B5490"/>
	</linearGradient>
	<polygon class="st33" points="215.06,556.23 215.52,558.21 267.38,558.21 267.84,556.23 	"/>
	<linearGradient id="SVGID_16_" gradientUnits="userSpaceOnUse" x1="241.4529" y1="328.8355" x2="241.4529" y2="565.8595">
		<stop class="Gradient1 stopColor" offset="0" style="stop-color:#0F1633"/>
		<stop class="Colour2 fill stopColor" offset="1" style="stop-color:#1B5490"/>
	</linearGradient>
	<polygon class="st34" points="206.97,521.46 207.43,523.44 275.48,523.44 275.94,521.46 	"/>
	<linearGradient id="SVGID_17_" gradientUnits="userSpaceOnUse" x1="279.5471" y1="328.8355" x2="279.5471" y2="565.8595">
		<stop class="Gradient1 stopColor" offset="0" style="stop-color:#0F1633"/>
		<stop class="Colour2 fill stopColor" offset="1" style="stop-color:#1B5490"/>
	</linearGradient>
	<polygon class="st35" points="248.89,354.55 244.31,356.53 314.33,356.53 314.79,354.55 	"/>
	<linearGradient id="SVGID_18_" gradientUnits="userSpaceOnUse" x1="288.3901" y1="328.8355" x2="288.3901" y2="565.8595">
		<stop class="Gradient1 stopColor" offset="0" style="stop-color:#0F1633"/>
		<stop class="Colour2 fill stopColor" offset="1" style="stop-color:#1B5490"/>
	</linearGradient>
	<polygon class="st36" points="264.95,347.59 260.38,349.57 315.94,349.57 316.41,347.59 	"/>
	<linearGradient id="SVGID_19_" gradientUnits="userSpaceOnUse" x1="283.9685" y1="328.8355" x2="283.9685" y2="565.8595">
		<stop class="Gradient1 stopColor" offset="0" style="stop-color:#0F1633"/>
		<stop class="Colour2 fill stopColor" offset="1" style="stop-color:#1B5490"/>
	</linearGradient>
	<polygon class="st37" points="256.92,351.07 252.34,353.05 315.13,353.05 315.6,351.07 	"/>
	<linearGradient id="SVGID_20_" gradientUnits="userSpaceOnUse" x1="241.4528" y1="328.8355" x2="241.4528" y2="565.8595">
		<stop class="Gradient1 stopColor" offset="0" style="stop-color:#0F1633"/>
		<stop class="Colour2 fill stopColor" offset="1" style="stop-color:#1B5490"/>
	</linearGradient>
	<polygon class="st38" points="313.98,358.02 168.93,358.02 169.39,360 313.52,360 	"/>
	<linearGradient id="SVGID_21_" gradientUnits="userSpaceOnUse" x1="203.333" y1="328.8355" x2="203.333" y2="565.8595">
		<stop class="Gradient1 stopColor" offset="0" style="stop-color:#0F1633"/>
		<stop class="Colour2 fill stopColor" offset="1" style="stop-color:#1B5490"/>
	</linearGradient>
	<polygon class="st39" points="238.55,356.53 233.88,354.55 168.12,354.55 168.58,356.53 	"/>
	<linearGradient id="SVGID_22_" gradientUnits="userSpaceOnUse" x1="198.8327" y1="328.8355" x2="198.8327" y2="565.8595">
		<stop class="Gradient1 stopColor" offset="0" style="stop-color:#0F1633"/>
		<stop class="Colour2 fill stopColor" offset="1" style="stop-color:#1B5490"/>
	</linearGradient>
	<polygon class="st40" points="230.36,353.05 225.69,351.07 167.31,351.07 167.77,353.05 	"/>
	<linearGradient id="SVGID_23_" gradientUnits="userSpaceOnUse" x1="194.3326" y1="328.8355" x2="194.3326" y2="565.8595">
		<stop class="Gradient1 stopColor" offset="0" style="stop-color:#0F1633"/>
		<stop class="Colour2 fill stopColor" offset="1" style="stop-color:#1B5490"/>
	</linearGradient>
	<polygon class="st41" points="222.16,349.57 217.5,347.59 166.5,347.59 166.96,349.57 	"/>
	<linearGradient id="SVGID_24_" gradientUnits="userSpaceOnUse" x1="306.0762" y1="328.8355" x2="306.0762" y2="565.8595">
		<stop class="Gradient1 stopColor" offset="0" style="stop-color:#0F1633"/>
		<stop class="Colour2 fill stopColor" offset="1" style="stop-color:#1B5490"/>
	</linearGradient>
	<polygon class="st42" points="297.09,333.68 292.51,335.66 319.18,335.66 319.64,333.68 	"/>
	<linearGradient id="SVGID_25_" gradientUnits="userSpaceOnUse" x1="314.9192" y1="328.8355" x2="314.9192" y2="565.8595">
		<stop class="Gradient1 stopColor" offset="0" style="stop-color:#0F1633"/>
		<stop class="Colour2 fill stopColor" offset="1" style="stop-color:#1B5490"/>
	</linearGradient>
	<polygon class="st43" points="320.8,328.71 321.26,326.73 313.15,326.73 308.58,328.71 	"/>
	<linearGradient id="SVGID_26_" gradientUnits="userSpaceOnUse" x1="301.6546" y1="328.8355" x2="301.6546" y2="565.8595">
		<stop class="Gradient1 stopColor" offset="0" style="stop-color:#0F1633"/>
		<stop class="Colour2 fill stopColor" offset="1" style="stop-color:#1B5490"/>
	</linearGradient>
	<polygon class="st44" points="289.05,337.16 284.48,339.14 318.37,339.14 318.83,337.16 	"/>
	<linearGradient id="SVGID_27_" gradientUnits="userSpaceOnUse" x1="292.8116" y1="328.8355" x2="292.8116" y2="565.8595">
		<stop class="Gradient1 stopColor" offset="0" style="stop-color:#0F1633"/>
		<stop class="Colour2 fill stopColor" offset="1" style="stop-color:#1B5490"/>
	</linearGradient>
	<polygon class="st45" points="272.99,344.11 268.41,346.09 316.75,346.09 317.21,344.11 	"/>
	<linearGradient id="SVGID_28_" gradientUnits="userSpaceOnUse" x1="310.4979" y1="328.8355" x2="310.4979" y2="565.8595">
		<stop class="Gradient1 stopColor" offset="0" style="stop-color:#0F1633"/>
		<stop class="Colour2 fill stopColor" offset="1" style="stop-color:#1B5490"/>
	</linearGradient>
	<polygon class="st46" points="319.99,332.19 320.45,330.2 305.12,330.2 300.54,332.19 	"/>
	<linearGradient id="SVGID_29_" gradientUnits="userSpaceOnUse" x1="297.2332" y1="328.8355" x2="297.2332" y2="565.8595">
		<stop class="Gradient1 stopColor" offset="0" style="stop-color:#0F1633"/>
		<stop class="Colour2 fill stopColor" offset="1" style="stop-color:#1B5490"/>
	</linearGradient>
	<polygon class="st47" points="281.02,340.64 276.44,342.62 317.56,342.62 318.02,340.64 	"/>
	<linearGradient id="SVGID_30_" gradientUnits="userSpaceOnUse" x1="241.4528" y1="328.8355" x2="241.4528" y2="565.8595">
		<stop class="Gradient1 stopColor" offset="0" style="stop-color:#0F1633"/>
		<stop class="Colour2 fill stopColor" offset="1" style="stop-color:#1B5490"/>
	</linearGradient>
	<polygon class="st48" points="264.95,568.64 265.41,566.66 217.49,566.66 217.95,568.64 	"/>
	<linearGradient id="SVGID_31_" gradientUnits="userSpaceOnUse" x1="241.4528" y1="328.8355" x2="241.4528" y2="565.8595">
		<stop class="Gradient1 stopColor" offset="0" style="stop-color:#0F1633"/>
		<stop class="Colour2 fill stopColor" offset="1" style="stop-color:#1B5490"/>
	</linearGradient>
	<polygon class="st49" points="216.68,563.19 217.14,565.17 265.76,565.17 266.22,563.19 	"/>
	<linearGradient id="SVGID_32_" gradientUnits="userSpaceOnUse" x1="185.3324" y1="328.8355" x2="185.3324" y2="565.8595">
		<stop class="Gradient1 stopColor" offset="0" style="stop-color:#0F1633"/>
		<stop class="Colour2 fill stopColor" offset="1" style="stop-color:#1B5490"/>
	</linearGradient>
	<polygon class="st50" points="205.78,342.62 201.12,340.64 164.88,340.64 165.34,342.62 	"/>
	<linearGradient id="SVGID_33_" gradientUnits="userSpaceOnUse" x1="180.8324" y1="328.8355" x2="180.8324" y2="565.8595">
		<stop class="Gradient1 stopColor" offset="0" style="stop-color:#0F1633"/>
		<stop class="Colour2 fill stopColor" offset="1" style="stop-color:#1B5490"/>
	</linearGradient>
	<polygon class="st51" points="197.59,339.14 192.93,337.16 164.07,337.16 164.53,339.14 	"/>
	<linearGradient id="SVGID_34_" gradientUnits="userSpaceOnUse" x1="189.8325" y1="328.8355" x2="189.8325" y2="565.8595">
		<stop class="Gradient1 stopColor" offset="0" style="stop-color:#0F1633"/>
		<stop class="Colour2 fill stopColor" offset="1" style="stop-color:#1B5490"/>
	</linearGradient>
	<polygon class="st52" points="213.97,346.09 209.31,344.11 165.69,344.11 166.15,346.09 	"/>
	<linearGradient id="SVGID_35_" gradientUnits="userSpaceOnUse" x1="176.3324" y1="328.8355" x2="176.3324" y2="565.8595">
		<stop class="Gradient1 stopColor" offset="0" style="stop-color:#0F1633"/>
		<stop class="Colour2 fill stopColor" offset="1" style="stop-color:#1B5490"/>
	</linearGradient>
	<polygon class="st53" points="163.72,335.66 189.4,335.66 184.73,333.68 163.26,333.68 	"/>
	<linearGradient id="SVGID_36_" gradientUnits="userSpaceOnUse" x1="167.3322" y1="328.8355" x2="167.3322" y2="565.8595">
		<stop class="Gradient1 stopColor" offset="0" style="stop-color:#0F1633"/>
		<stop class="Colour2 fill stopColor" offset="1" style="stop-color:#1B5490"/>
	</linearGradient>
	<polygon class="st54" points="161.64,326.73 162.11,328.71 173.02,328.71 168.35,326.73 	"/>
	<linearGradient id="SVGID_37_" gradientUnits="userSpaceOnUse" x1="171.8322" y1="328.8355" x2="171.8322" y2="565.8595">
		<stop class="Gradient1 stopColor" offset="0" style="stop-color:#0F1633"/>
		<stop class="Colour2 fill stopColor" offset="1" style="stop-color:#1B5490"/>
	</linearGradient>
	<polygon class="st55" points="162.91,332.19 181.21,332.19 176.54,330.2 162.45,330.2 	"/>
	<linearGradient id="SVGID_38_" gradientUnits="userSpaceOnUse" x1="241.4528" y1="328.8355" x2="241.4528" y2="565.8595">
		<stop class="Gradient1 stopColor" offset="0" style="stop-color:#0F1633"/>
		<stop class="Colour2 fill stopColor" offset="1" style="stop-color:#1B5490"/>
	</linearGradient>
	<polygon class="st56" points="202.92,504.07 203.38,506.05 279.52,506.05 279.98,504.07 	"/>
	<linearGradient id="SVGID_39_" gradientUnits="userSpaceOnUse" x1="241.4528" y1="328.8355" x2="241.4528" y2="565.8595">
		<stop class="Gradient1 stopColor" offset="0" style="stop-color:#0F1633"/>
		<stop class="Colour2 fill stopColor" offset="1" style="stop-color:#1B5490"/>
	</linearGradient>
	<polygon class="st57" points="182.69,417.14 183.15,419.12 299.76,419.12 300.22,417.14 	"/>
	<linearGradient id="SVGID_40_" gradientUnits="userSpaceOnUse" x1="241.4529" y1="328.8355" x2="241.4529" y2="565.8595">
		<stop class="Gradient1 stopColor" offset="0" style="stop-color:#0F1633"/>
		<stop class="Colour2 fill stopColor" offset="1" style="stop-color:#1B5490"/>
	</linearGradient>
	<polygon class="st58" points="189.16,444.96 189.62,446.94 293.28,446.94 293.74,444.96 	"/>
	<linearGradient id="SVGID_41_" gradientUnits="userSpaceOnUse" x1="241.4529" y1="328.8355" x2="241.4529" y2="565.8595">
		<stop class="Gradient1 stopColor" offset="0" style="stop-color:#0F1633"/>
		<stop class="Colour2 fill stopColor" offset="1" style="stop-color:#1B5490"/>
	</linearGradient>
	<polygon class="st59" points="188.35,441.48 188.81,443.46 294.09,443.46 294.55,441.48 	"/>
	<linearGradient id="SVGID_42_" gradientUnits="userSpaceOnUse" x1="241.4529" y1="328.8355" x2="241.4529" y2="565.8595">
		<stop class="Gradient1 stopColor" offset="0" style="stop-color:#0F1633"/>
		<stop class="Colour2 fill stopColor" offset="1" style="stop-color:#1B5490"/>
	</linearGradient>
	<polygon class="st60" points="191.59,455.39 192.05,457.37 290.85,457.37 291.31,455.39 	"/>
	<linearGradient id="SVGID_43_" gradientUnits="userSpaceOnUse" x1="241.4529" y1="328.8355" x2="241.4529" y2="565.8595">
		<stop class="Gradient1 stopColor" offset="0" style="stop-color:#0F1633"/>
		<stop class="Colour2 fill stopColor" offset="1" style="stop-color:#1B5490"/>
	</linearGradient>
	<polygon class="st61" points="190.78,451.91 191.24,453.89 291.66,453.89 292.12,451.91 	"/>
	<linearGradient id="SVGID_44_" gradientUnits="userSpaceOnUse" x1="241.4528" y1="328.8355" x2="241.4528" y2="565.8595">
		<stop class="Gradient1 stopColor" offset="0" style="stop-color:#0F1633"/>
		<stop class="Colour2 fill stopColor" offset="1" style="stop-color:#1B5490"/>
	</linearGradient>
	<polygon class="st62" points="187.54,438 188.01,439.98 294.9,439.98 295.36,438 	"/>
	<linearGradient id="SVGID_45_" gradientUnits="userSpaceOnUse" x1="241.4528" y1="328.8355" x2="241.4528" y2="565.8595">
		<stop class="Gradient1 stopColor" offset="0" style="stop-color:#0F1633"/>
		<stop class="Colour2 fill stopColor" offset="1" style="stop-color:#1B5490"/>
	</linearGradient>
	<polygon class="st63" points="183.5,420.61 183.96,422.6 298.95,422.6 299.41,420.61 	"/>
	<linearGradient id="SVGID_46_" gradientUnits="userSpaceOnUse" x1="241.4528" y1="328.8355" x2="241.4528" y2="565.8595">
		<stop class="Gradient1 stopColor" offset="0" style="stop-color:#0F1633"/>
		<stop class="Colour2 fill stopColor" offset="1" style="stop-color:#1B5490"/>
	</linearGradient>
	<polygon class="st64" points="184.31,424.09 184.77,426.07 298.14,426.07 298.6,424.09 	"/>
	<linearGradient id="SVGID_47_" gradientUnits="userSpaceOnUse" x1="241.4529" y1="328.8355" x2="241.4529" y2="565.8595">
		<stop class="Gradient1 stopColor" offset="0" style="stop-color:#0F1633"/>
		<stop class="Colour2 fill stopColor" offset="1" style="stop-color:#1B5490"/>
	</linearGradient>
	<polygon class="st65" points="186.74,434.52 187.2,436.51 295.71,436.51 296.17,434.52 	"/>
	<linearGradient id="SVGID_48_" gradientUnits="userSpaceOnUse" x1="241.4529" y1="328.8355" x2="241.4529" y2="565.8595">
		<stop class="Gradient1 stopColor" offset="0" style="stop-color:#0F1633"/>
		<stop class="Colour2 fill stopColor" offset="1" style="stop-color:#1B5490"/>
	</linearGradient>
	<polygon class="st66" points="192.4,458.87 192.86,460.85 290.04,460.85 290.51,458.87 	"/>
	<linearGradient id="SVGID_49_" gradientUnits="userSpaceOnUse" x1="241.4529" y1="328.8355" x2="241.4529" y2="565.8595">
		<stop class="Gradient1 stopColor" offset="0" style="stop-color:#0F1633"/>
		<stop class="Colour2 fill stopColor" offset="1" style="stop-color:#1B5490"/>
	</linearGradient>
	<polygon class="st67" points="185.12,427.57 185.58,429.55 297.33,429.55 297.79,427.57 	"/>
	<linearGradient id="SVGID_50_" gradientUnits="userSpaceOnUse" x1="241.4528" y1="328.8355" x2="241.4528" y2="565.8595">
		<stop class="Gradient1 stopColor" offset="0" style="stop-color:#0F1633"/>
		<stop class="Colour2 fill stopColor" offset="1" style="stop-color:#1B5490"/>
	</linearGradient>
	<polygon class="st68" points="185.93,431.05 186.39,433.03 296.52,433.03 296.98,431.05 	"/>
	<linearGradient id="SVGID_51_" gradientUnits="userSpaceOnUse" x1="241.4529" y1="328.8355" x2="241.4529" y2="565.8595">
		<stop class="Gradient1 stopColor" offset="0" style="stop-color:#0F1633"/>
		<stop class="Colour2 fill stopColor" offset="1" style="stop-color:#1B5490"/>
	</linearGradient>
	<polygon class="st69" points="189.97,448.43 190.43,450.41 292.47,450.41 292.93,448.43 	"/>
	<linearGradient id="SVGID_52_" gradientUnits="userSpaceOnUse" x1="241.4529" y1="328.8355" x2="241.4529" y2="565.8595">
		<stop class="Gradient1 stopColor" offset="0" style="stop-color:#0F1633"/>
		<stop class="Colour2 fill stopColor" offset="1" style="stop-color:#1B5490"/>
	</linearGradient>
	<polygon class="st70" points="193.21,462.34 193.67,464.32 289.23,464.32 289.7,462.34 	"/>
	<linearGradient id="SVGID_53_" gradientUnits="userSpaceOnUse" x1="241.4528" y1="328.8355" x2="241.4528" y2="565.8595">
		<stop class="Gradient1 stopColor" offset="0" style="stop-color:#0F1633"/>
		<stop class="Colour2 fill stopColor" offset="1" style="stop-color:#1B5490"/>
	</linearGradient>
	<polygon class="st71" points="198.07,483.21 198.53,485.19 284.38,485.19 284.84,483.21 	"/>
	<linearGradient id="SVGID_54_" gradientUnits="userSpaceOnUse" x1="241.4528" y1="328.8355" x2="241.4528" y2="565.8595">
		<stop class="Gradient1 stopColor" offset="0" style="stop-color:#0F1633"/>
		<stop class="Colour2 fill stopColor" offset="1" style="stop-color:#1B5490"/>
	</linearGradient>
	<polygon class="st72" points="200.49,493.64 200.96,495.62 281.95,495.62 282.41,493.64 	"/>
	<linearGradient id="SVGID_55_" gradientUnits="userSpaceOnUse" x1="241.4528" y1="328.8355" x2="241.4528" y2="565.8595">
		<stop class="Gradient1 stopColor" offset="0" style="stop-color:#0F1633"/>
		<stop class="Colour2 fill stopColor" offset="1" style="stop-color:#1B5490"/>
	</linearGradient>
	<polygon class="st73" points="198.88,486.68 199.34,488.67 283.57,488.67 284.03,486.68 	"/>
	<linearGradient id="SVGID_56_" gradientUnits="userSpaceOnUse" x1="241.4529" y1="328.8355" x2="241.4529" y2="565.8595">
		<stop class="Gradient1 stopColor" offset="0" style="stop-color:#0F1633"/>
		<stop class="Colour2 fill stopColor" offset="1" style="stop-color:#1B5490"/>
	</linearGradient>
	<polygon class="st74" points="202.11,500.59 202.57,502.57 280.33,502.57 280.79,500.59 	"/>
	<linearGradient id="SVGID_57_" gradientUnits="userSpaceOnUse" x1="241.4528" y1="328.8355" x2="241.4528" y2="565.8595">
		<stop class="Gradient1 stopColor" offset="0" style="stop-color:#0F1633"/>
		<stop class="Colour2 fill stopColor" offset="1" style="stop-color:#1B5490"/>
	</linearGradient>
	<polygon class="st75" points="201.3,497.12 201.77,499.1 281.14,499.1 281.6,497.12 	"/>
	<linearGradient id="SVGID_58_" gradientUnits="userSpaceOnUse" x1="241.4528" y1="328.8355" x2="241.4528" y2="565.8595">
		<stop class="Gradient1 stopColor" offset="0" style="stop-color:#0F1633"/>
		<stop class="Colour2 fill stopColor" offset="1" style="stop-color:#1B5490"/>
	</linearGradient>
	<polygon class="st76" points="199.69,490.16 200.15,492.14 282.76,492.14 283.22,490.16 	"/>
	<linearGradient id="SVGID_59_" gradientUnits="userSpaceOnUse" x1="241.4528" y1="328.8355" x2="241.4528" y2="565.8595">
		<stop class="Gradient1 stopColor" offset="0" style="stop-color:#0F1633"/>
		<stop class="Colour2 fill stopColor" offset="1" style="stop-color:#1B5490"/>
	</linearGradient>
	<polygon class="st77" points="197.26,479.73 197.72,481.71 285.19,481.71 285.65,479.73 	"/>
	<linearGradient id="SVGID_60_" gradientUnits="userSpaceOnUse" x1="241.4528" y1="328.8355" x2="241.4528" y2="565.8595">
		<stop class="Gradient1 stopColor" offset="0" style="stop-color:#0F1633"/>
		<stop class="Colour2 fill stopColor" offset="1" style="stop-color:#1B5490"/>
	</linearGradient>
	<polygon class="st78" points="194.02,465.82 194.48,467.8 288.43,467.8 288.89,465.82 	"/>
	<linearGradient id="SVGID_61_" gradientUnits="userSpaceOnUse" x1="241.4529" y1="328.8355" x2="241.4529" y2="565.8595">
		<stop class="Gradient1 stopColor" offset="0" style="stop-color:#0F1633"/>
		<stop class="Colour2 fill stopColor" offset="1" style="stop-color:#1B5490"/>
	</linearGradient>
	<polygon class="st79" points="194.83,469.3 195.29,471.28 287.62,471.28 288.08,469.3 	"/>
	<linearGradient id="SVGID_62_" gradientUnits="userSpaceOnUse" x1="241.4528" y1="328.8355" x2="241.4528" y2="565.8595">
		<stop class="Gradient1 stopColor" offset="0" style="stop-color:#0F1633"/>
		<stop class="Colour2 fill stopColor" offset="1" style="stop-color:#1B5490"/>
	</linearGradient>
	<polygon class="st80" points="195.64,472.77 196.1,474.76 286.81,474.76 287.27,472.77 	"/>
	<linearGradient id="SVGID_63_" gradientUnits="userSpaceOnUse" x1="241.4529" y1="328.8355" x2="241.4529" y2="565.8595">
		<stop class="Gradient1 stopColor" offset="0" style="stop-color:#0F1633"/>
		<stop class="Colour2 fill stopColor" offset="1" style="stop-color:#1B5490"/>
	</linearGradient>
	<polygon class="st81" points="196.45,476.25 196.91,478.23 286,478.23 286.46,476.25 	"/>
	<linearGradient id="SVGID_64_" gradientUnits="userSpaceOnUse" x1="241.4529" y1="328.8355" x2="241.4529" y2="565.8595">
		<stop class="Gradient1 stopColor" offset="0" style="stop-color:#0F1633"/>
		<stop class="Colour2 fill stopColor" offset="1" style="stop-color:#1B5490"/>
	</linearGradient>
	<polygon class="st82" points="179.45,403.23 179.91,405.21 302.99,405.21 303.46,403.23 	"/>
	<linearGradient id="SVGID_65_" gradientUnits="userSpaceOnUse" x1="241.4529" y1="328.8355" x2="241.4529" y2="565.8595">
		<stop class="Gradient1 stopColor" offset="0" style="stop-color:#0F1633"/>
		<stop class="Colour2 fill stopColor" offset="1" style="stop-color:#1B5490"/>
	</linearGradient>
	<polygon class="st83" points="169.74,361.5 170.2,363.48 312.71,363.48 313.17,361.5 	"/>
	<linearGradient id="SVGID_66_" gradientUnits="userSpaceOnUse" x1="241.4528" y1="328.8355" x2="241.4528" y2="565.8595">
		<stop class="Gradient1 stopColor" offset="0" style="stop-color:#0F1633"/>
		<stop class="Colour2 fill stopColor" offset="1" style="stop-color:#1B5490"/>
	</linearGradient>
	<polygon class="st84" points="170.55,364.98 171.01,366.96 311.9,366.96 312.36,364.98 	"/>
	<linearGradient id="SVGID_67_" gradientUnits="userSpaceOnUse" x1="241.4529" y1="328.8355" x2="241.4529" y2="565.8595">
		<stop class="Gradient1 stopColor" offset="0" style="stop-color:#0F1633"/>
		<stop class="Colour2 fill stopColor" offset="1" style="stop-color:#1B5490"/>
	</linearGradient>
	<polygon class="st85" points="171.36,368.45 171.82,370.44 311.09,370.44 311.55,368.45 	"/>
	<linearGradient id="SVGID_68_" gradientUnits="userSpaceOnUse" x1="241.4529" y1="328.8355" x2="241.4529" y2="565.8595">
		<stop class="Gradient1 stopColor" offset="0" style="stop-color:#0F1633"/>
		<stop class="Colour2 fill stopColor" offset="1" style="stop-color:#1B5490"/>
	</linearGradient>
	<polygon class="st86" points="177.83,396.27 178.29,398.25 304.61,398.25 305.07,396.27 	"/>
	<linearGradient id="SVGID_69_" gradientUnits="userSpaceOnUse" x1="241.4528" y1="328.8355" x2="241.4528" y2="565.8595">
		<stop class="Gradient1 stopColor" offset="0" style="stop-color:#0F1633"/>
		<stop class="Colour2 fill stopColor" offset="1" style="stop-color:#1B5490"/>
	</linearGradient>
	<polygon class="st87" points="178.64,399.75 179.1,401.73 303.8,401.73 304.26,399.75 	"/>
	<linearGradient id="SVGID_70_" gradientUnits="userSpaceOnUse" x1="241.4529" y1="328.8355" x2="241.4529" y2="565.8595">
		<stop class="Gradient1 stopColor" offset="0" style="stop-color:#0F1633"/>
		<stop class="Colour2 fill stopColor" offset="1" style="stop-color:#1B5490"/>
	</linearGradient>
	<polygon class="st88" points="172.17,371.93 172.63,373.91 310.28,373.91 310.74,371.93 	"/>
	<linearGradient id="SVGID_71_" gradientUnits="userSpaceOnUse" x1="241.4528" y1="328.8355" x2="241.4528" y2="565.8595">
		<stop class="Gradient1 stopColor" offset="0" style="stop-color:#0F1633"/>
		<stop class="Colour2 fill stopColor" offset="1" style="stop-color:#1B5490"/>
	</linearGradient>
	<polygon class="st89" points="181.88,413.66 182.34,415.64 300.57,415.64 301.03,413.66 	"/>
	<linearGradient id="SVGID_72_" gradientUnits="userSpaceOnUse" x1="241.4528" y1="328.8355" x2="241.4528" y2="565.8595">
		<stop class="Gradient1 stopColor" offset="0" style="stop-color:#0F1633"/>
		<stop class="Colour2 fill stopColor" offset="1" style="stop-color:#1B5490"/>
	</linearGradient>
	<polygon class="st90" points="180.26,406.71 180.72,408.69 302.18,408.69 302.65,406.71 	"/>
	<linearGradient id="SVGID_73_" gradientUnits="userSpaceOnUse" x1="241.4528" y1="328.8355" x2="241.4528" y2="565.8595">
		<stop class="Gradient1 stopColor" offset="0" style="stop-color:#0F1633"/>
		<stop class="Colour2 fill stopColor" offset="1" style="stop-color:#1B5490"/>
	</linearGradient>
	<polygon class="st91" points="181.07,410.18 181.53,412.16 301.38,412.16 301.84,410.18 	"/>
	<linearGradient id="SVGID_74_" gradientUnits="userSpaceOnUse" x1="241.4528" y1="328.8355" x2="241.4528" y2="565.8595">
		<stop class="Gradient1 stopColor" offset="0" style="stop-color:#0F1633"/>
		<stop class="Colour2 fill stopColor" offset="1" style="stop-color:#1B5490"/>
	</linearGradient>
	<polygon class="st92" points="177.02,392.8 177.48,394.78 305.42,394.78 305.88,392.8 	"/>
	<linearGradient id="SVGID_75_" gradientUnits="userSpaceOnUse" x1="241.4529" y1="328.8355" x2="241.4529" y2="565.8595">
		<stop class="Gradient1 stopColor" offset="0" style="stop-color:#0F1633"/>
		<stop class="Colour2 fill stopColor" offset="1" style="stop-color:#1B5490"/>
	</linearGradient>
	<polygon class="st93" points="172.98,375.41 173.44,377.39 309.47,377.39 309.93,375.41 	"/>
	<linearGradient id="SVGID_76_" gradientUnits="userSpaceOnUse" x1="241.4529" y1="328.8355" x2="241.4529" y2="565.8595">
		<stop class="Gradient1 stopColor" offset="0" style="stop-color:#0F1633"/>
		<stop class="Colour2 fill stopColor" offset="1" style="stop-color:#1B5490"/>
	</linearGradient>
	<polygon class="st94" points="173.79,378.89 174.25,380.87 308.66,380.87 309.12,378.89 	"/>
	<linearGradient id="SVGID_77_" gradientUnits="userSpaceOnUse" x1="241.4529" y1="328.8355" x2="241.4529" y2="565.8595">
		<stop class="Gradient1 stopColor" offset="0" style="stop-color:#0F1633"/>
		<stop class="Colour2 fill stopColor" offset="1" style="stop-color:#1B5490"/>
	</linearGradient>
	<polygon class="st95" points="174.59,382.36 175.06,384.35 307.85,384.35 308.31,382.36 	"/>
	<linearGradient id="SVGID_78_" gradientUnits="userSpaceOnUse" x1="241.4528" y1="328.8355" x2="241.4528" y2="565.8595">
		<stop class="Gradient1 stopColor" offset="0" style="stop-color:#0F1633"/>
		<stop class="Colour2 fill stopColor" offset="1" style="stop-color:#1B5490"/>
	</linearGradient>
	<polygon class="st96" points="175.4,385.84 175.86,387.82 307.04,387.82 307.5,385.84 	"/>
	<linearGradient id="SVGID_79_" gradientUnits="userSpaceOnUse" x1="241.4529" y1="328.8355" x2="241.4529" y2="565.8595">
		<stop class="Gradient1 stopColor" offset="0" style="stop-color:#0F1633"/>
		<stop class="Colour2 fill stopColor" offset="1" style="stop-color:#1B5490"/>
	</linearGradient>
	<polygon class="st97" points="176.21,389.32 176.67,391.3 306.23,391.3 306.69,389.32 	"/>
</g>
<path class="Colour2 fill" d="M241.44,351.93l-138.6-59c0.15,1.23,0.29,2.46,0.44,3.71l50.73,21.67l43.45,248.66
	c8.14,0.62,16.96,1.19,26.5,1.69L166.97,323.8l74.49,31.62l74.64-32.31l-57.15,245.53c9.54-0.5,18.37-1.07,26.5-1.69l43.58-249.44
	l50.1-21.83c0.15-1.25,0.3-2.5,0.45-3.74L241.44,351.93z"/>
<g id="FBodyLogos"></g>
<path class="BottomHem fill" d="M245.75,643.72c-22.9,0-44.65-2.3-47.29-2.59c-24.67-1.1-61.05-29.53-62.59-30.74l-0.4-0.35
	c-4.32-4.14-19.49-11.73-28.03-15.55l-1.52-2.25l0.94-10.18l5.03,2.25c2.42,1.08,23.61,10.66,30.93,17.44
	c9.94,7.78,38.84,27.59,56.28,28.27l0.39,0.03c0.56,0.06,56.21,6.14,83.07-0.76l0.78-0.14c0.23-0.03,24.34-2.86,47.45-21.29
	c2.47-2.45,21.7-21.1,38.17-23.95l5.41-0.94l1.85,10.97l-5.42,0.93c-11.5,1.98-27.35,15.9-32.49,21.09l-0.47,0.42
	c-24.35,19.53-49.29,23.31-52.95,23.77C274.14,642.86,259.73,643.72,245.75,643.72 M375.08,579.69l-10.34-9.28
	c-10.34-9.28-53.76-10.82-53.76-10.82H170.19c0,0-43.43,1.55-53.76,10.82l-10.34,9.28l-1.38,13.38c0,0,16.37-15.96,22.57-16.99
	c3.08-0.51,14.06-3.72,24.34-4.75c10.43-1.04,20.12-1.95,20.12-1.95h137.68c0,0,9.7,0.91,20.12,1.95
	c10.28,1.03,21.26,4.23,24.33,4.75c6.21,1.03,22.58,16.99,22.58,16.99L375.08,579.69z"/>
</svg>
