<?xml version="1.0" encoding="utf-8"?>
<!-- Generator: Adobe Illustrator 19.1.0, SVG Export Plug-In . SVG Version: 6.00 Build 0)  -->
<svg version="1.1" id="Layer_1" xmlns="http://www.w3.org/2000/svg" xmlns:xlink="http://www.w3.org/1999/xlink" x="0px" y="0px"
	 viewBox="0 0 483.01 645.44" style="enable-background:new 0 0 483.01 645.44;" xml:space="preserve">
<style type="text/css">
	<![CDATA[
	@font-face{font-family:'codaheavy';src:url('/fonts/coda-heavy-webfont.woff') format('woff')}
	text{font-family:Impact,codaheavy,sans-serif}
	.Number.fill{fill:#000}
	.NumberOutline.stroke{fill:none;stroke:#777;stroke-width:2.5}
	.Colour1.fill{fill:#060606;}
	.Colour2.fill{fill:#6D943E;}
	.Colour3.fill{fill:#224922;}
	.NeckTrim.fill{fill:#6D943E;}
	.ArmTrim.fill{fill:#6D943E;}
	.BottomHem.fill{fill:#6D943E;stroke:#221915;stroke-width:0.8861;stroke-miterlimit:10;}
	.st0{fill:none;stroke:#060606;stroke-width:2;stroke-linecap:round;stroke-linejoin:round;}
	.st1{fill:none;stroke:#0A0505;stroke-width:0.328;stroke-miterlimit:10;}
	.st2{stroke:#221915;stroke-width:0.8861;stroke-miterlimit:10;}
	.st3{fill:#9C2321;stroke:#221915;stroke-width:0.934;stroke-miterlimit:10;}
	.st4{fill:none;stroke:#060606;stroke-linecap:round;stroke-linejoin:round;}
	.st5{fill:none;stroke:#221915;stroke-width:0.6559;stroke-miterlimit:10;}
	.st6{fill:none;stroke:#000000;stroke-width:0.4411;}
	.st7{fill:#C0773C;stroke:#000000;stroke-width:2;stroke-miterlimit:10;}
	.st8{fill:none;stroke:#FFFFFF;stroke-width:0.216;stroke-dasharray:2.4,2.4,2.4,2.4;}
	.st9{fill:none;stroke:#060606;stroke-width:0.328;}
	.st10{fill:none;stroke:#060606;stroke-width:0.216;stroke-dasharray:2.4,2.4,2.4,2.4;}
	.st11{fill:none;stroke:#221915;stroke-width:0.506;stroke-miterlimit:10;}
	.st12{fill:none;}
	.white{fill:#ffffff;}
	.neckline{fill:none;stroke:#000000;stroke-width:0.6559;}
	]]>
</style>
<g>
	<g>
		<path class="Colour1 fill" d="M386.79,197.13c-0.17-95.12,18.68-129.22,21.88-134.32c-4.61-1.79-9.75-3.46-15.5-4.89
			c-33.2-8.23-83-28.8-92.57-36l-58-6.79h-3.71l-58,6.79c-9.58,7.2-59.36,27.77-92.57,36c-5.11,1.27-9.75,2.73-13.95,4.29
			c1.4,2.05,22.44,34.45,22.27,134.91l-4,27.41c0,0,21.23,131.65,16.97,197.47c-4,61.88-4.24,154.65-4.26,165.55
			c-0.92,1.01,0.82,1.97,0.18,2.82c0,0,12.07,1.62,29.76,16.07c14.6,11.92,35.7,31.25,104.9,31.25c69.2,0,90.31-19.33,104.9-31.25
			c17.69-14.46,32.72-16.24,32.29-16.07c-0.41-0.54-0.89-1.14-1.41-1.75h0.19c0,0,0-100.79-4.26-166.61
			c-4.26-65.83,16.97-197.47,16.97-197.47L386.79,197.13z"/>
		<path class="Colour1 fill" d="M468.55,169c-1.06-12.34-9.65-58.62-27.74-86.39c0,0-9.58-11.53-32.17-20.11
			c0.02,0.2,0.03,0.31,0.03,0.31c-3.2,5.1-22.05,39.2-21.88,134.32l2.07,27.41c0,0,0.12,0.98,0.34,2.76
			c0.28-1.78,0.44-2.76,0.44-2.76l11.61,62.74c0,0,27.54-2.62,43.37-18.28c15.83-15.66,37.64-17.72,37.64-17.72
			S469.62,181.34,468.55,169z"/>
		<path class="Colour1 fill" d="M81.79,287.28l11.02-59.55c-0.11-2.05-0.18-3.19-0.18-3.19l4-27.41C96.79,99.34,76.87,66.05,74.51,62.45
			c-22.68,8.59-32.3,20.16-32.3,20.16C24.13,110.38,15.54,156.66,14.48,169c-1.07,12.34-13.7,82.28-13.7,82.28
			s21.81,2.06,37.64,17.72C54.24,284.66,81.79,287.28,81.79,287.28z"/>
	</g>
	<g>
		<path class="Colour1 fill" d="M386.79,197.13c-0.17-95.12,18.68-129.22,21.88-134.32c-4.61-1.79-9.75-3.46-15.5-4.89
			c-33.2-8.23-83-28.8-92.57-36l-58-6.79h-3.71l-58,6.79c-9.58,7.2-59.36,27.77-92.57,36c-5.11,1.27-9.75,2.73-13.95,4.29
			c1.4,2.05,22.44,34.45,22.27,134.91l-4,27.41c0,0,21.23,131.65,16.97,197.47c-4,61.88-4.24,154.65-4.26,165.55
			c-0.92,1.01,0.82,1.97,0.18,2.82c0,0,12.07,1.62,29.76,16.07c14.6,11.92,35.7,31.25,104.9,31.25c69.2,0,90.31-19.33,104.9-31.25
			c17.69-14.46,32.72-16.24,32.29-16.07c-0.41-0.54-0.89-1.14-1.41-1.75h0.19c0,0,0-100.79-4.26-166.61
			c-4.26-65.83,16.97-197.47,16.97-197.47L386.79,197.13z"/>
		<path class="Colour1 fill" d="M468.55,169c-1.06-12.34-9.65-58.62-27.74-86.39c0,0-9.58-11.53-32.17-20.11
			c0.02,0.2,0.03,0.31,0.03,0.31c-3.2,5.1-22.05,39.2-21.88,134.32l2.07,27.41c0,0,0.12,0.98,0.34,2.76
			c0.28-1.78,0.44-2.76,0.44-2.76l11.61,62.74c0,0,27.54-2.62,43.37-18.28c15.83-15.66,37.64-17.72,37.64-17.72
			S469.62,181.34,468.55,169z"/>
		<path class="Colour1 fill" d="M81.79,287.28l11.02-59.55c-0.11-2.05-0.18-3.19-0.18-3.19l4-27.41C96.79,99.34,76.87,66.05,74.51,62.45
			c-22.68,8.59-32.3,20.16-32.3,20.16C24.13,110.38,15.54,156.66,14.48,169c-1.07,12.34-13.7,82.28-13.7,82.28
			s21.81,2.06,37.64,17.72C54.24,284.66,81.79,287.28,81.79,287.28z"/>
	</g>
</g>
<g>
	<path class="st0" d="M75.57,63.37c-0.03-0.05-0.06-0.11-0.1-0.16"/>
	<path class="st0" d="M76.83,65.63c-0.03-0.06-0.07-0.12-0.1-0.18"/>
	<path class="st0" d="M76.53,65.08c-0.03-0.06-0.07-0.12-0.1-0.18"/>
	<path class="st0" d="M77.47,66.9c-0.03-0.06-0.06-0.13-0.1-0.19"/>
	<path class="st0" d="M77.14,66.24c-0.03-0.06-0.06-0.12-0.1-0.19"/>
	<path class="st0" d="M75.39,63.07c-0.03-0.06-0.07-0.11-0.1-0.16"/>
	<path class="st0" d="M77.82,67.62c-0.03-0.07-0.07-0.13-0.1-0.2"/>
	<path class="st0" d="M76,64.12c-0.03-0.06-0.06-0.11-0.1-0.17"/>
	<path class="st0" d="M76.26,64.58c-0.03-0.06-0.07-0.12-0.1-0.18"/>
	<path class="st0" d="M75.77,63.72c-0.03-0.06-0.07-0.11-0.1-0.17"/>
	<path class="st0" d="M80.67,74.22c-0.02-0.05-0.04-0.11-0.06-0.16"/>
	<path class="st0" d="M80.23,73.1c-0.03-0.06-0.05-0.12-0.08-0.18"/>
	<path class="st0" d="M81.13,75.39c-0.02-0.04-0.03-0.08-0.05-0.12"/>
	<path class="st0" d="M78.19,68.39c-0.03-0.07-0.06-0.14-0.1-0.2"/>
	<path class="st0" d="M79.8,72.04c-0.03-0.07-0.05-0.13-0.08-0.2"/>
	<path class="st0" d="M79.37,71.04c-0.03-0.07-0.06-0.14-0.09-0.2"/>
	<path class="st0" d="M78.57,69.21c-0.03-0.07-0.06-0.13-0.09-0.2"/>
	<path class="st0" d="M78.96,70.1c-0.03-0.07-0.06-0.14-0.09-0.21"/>
	<path class="st0" d="M76.26,64.58c0.06,0.1,0.11,0.21,0.17,0.32"/>
	<path class="st0" d="M76.83,65.63c0.07,0.14,0.14,0.28,0.22,0.42"/>
	<path class="st0" d="M75.23,62.82c-0.03-0.05-0.07-0.11-0.1-0.16"/>
	<path class="st0" d="M77.47,66.9c0.08,0.17,0.17,0.34,0.25,0.52"/>
	<path class="st0" d="M77.14,66.24c0.08,0.15,0.16,0.31,0.24,0.47"/>
	<path class="st0" d="M78.19,68.39c0.1,0.2,0.19,0.41,0.29,0.63"/>
	<path class="st0" d="M78.57,69.21c0.1,0.22,0.2,0.45,0.31,0.68"/>
	<path class="st0" d="M79.8,72.04c0.12,0.28,0.24,0.58,0.36,0.87"/>
	<path class="st0" d="M78.96,70.1c0.11,0.24,0.21,0.49,0.32,0.74"/>
	<path class="st0" d="M77.82,67.62c0.09,0.18,0.18,0.37,0.27,0.57"/>
	<path class="st0" d="M75.23,62.82c0.02,0.03,0.04,0.06,0.06,0.09"/>
	<path class="st0" d="M75.57,63.37c0.04,0.06,0.07,0.12,0.11,0.19"/>
	<path class="st0" d="M75.39,63.07c0.03,0.05,0.06,0.09,0.08,0.14"/>
	<path class="st0" d="M75.09,62.6c0.01,0.02,0.02,0.04,0.04,0.06"/>
	<path class="st0" d="M75.77,63.72c0.04,0.07,0.09,0.15,0.13,0.23"/>
	<path class="st0" d="M80.23,73.1c0.13,0.31,0.25,0.63,0.38,0.96"/>
	<path class="st0" d="M76.53,65.08c0.06,0.12,0.13,0.24,0.2,0.37"/>
	<path class="st0" d="M76,64.12c0.05,0.09,0.1,0.18,0.16,0.28"/>
	<path class="st0" d="M81.59,76.63c-0.01-0.02-0.01-0.03-0.02-0.05"/>
	<path class="st0" d="M95.28,148.07c-0.04-0.52-0.09-1.03-0.13-1.54"/>
	<path class="st0" d="M96.06,159.11c-0.03-0.56-0.07-1.12-0.1-1.68"/>
	<path class="st0" d="M95.82,155.34c-0.04-0.55-0.08-1.09-0.11-1.64"/>
	<path class="st0" d="M94.98,144.56c-0.04-0.5-0.09-0.99-0.14-1.48"/>
	<path class="st0" d="M95.56,151.66c-0.04-0.53-0.08-1.06-0.12-1.59"/>
	<path class="st0" d="M94.66,141.13c-0.05-0.48-0.09-0.95-0.14-1.43"/>
	<path class="st0" d="M93.59,131.37c-0.05-0.43-0.1-0.85-0.16-1.27"/>
	<path class="st0" d="M93.96,134.54c-0.05-0.44-0.1-0.88-0.15-1.32"/>
	<path class="st0" d="M94.32,137.8c-0.05-0.47-0.1-0.93-0.15-1.39"/>
	<path class="st0" d="M93.21,128.29c-0.05-0.41-0.11-0.82-0.16-1.23"/>
	<path class="st0" d="M97,183.62c-0.01-0.61-0.03-1.21-0.04-1.81"/>
	<path class="st0" d="M97.06,188.03c-0.01-0.59-0.02-1.16-0.03-1.75"/>
	<path class="st0" d="M96.91,179.3c-0.02-0.62-0.03-1.22-0.05-1.83"/>
	<path class="st0" d="M97.1,192.53c0-0.49-0.01-0.96-0.01-1.45"/>
	<path class="st0" d="M96.64,170.95c-0.02-0.61-0.05-1.2-0.07-1.8"/>
	<path class="st0" d="M96.47,166.91c-0.03-0.59-0.06-1.18-0.09-1.77"/>
	<path class="st0" d="M96.28,162.97c-0.03-0.58-0.06-1.15-0.1-1.73"/>
	<path class="st0" d="M96.79,175.08c-0.02-0.62-0.04-1.22-0.06-1.84"/>
	<path class="st0" d="M377.85,590.37C377.85,590.37,377.85,590.37,377.85,590.37C377.87,590.37,377.87,590.37,377.85,590.37"/>
	<path class="st0" d="M75.09,62.6c-0.11-0.17-0.2-0.31-0.26-0.39c4.2-1.57,8.85-3.03,13.95-4.29c33.21-8.23,82.99-28.8,92.57-36
		l58-6.79h3.71l58,6.79c9.58,7.2,59.37,27.77,92.57,36c5.75,1.42,10.9,3.1,15.5,4.89"/>
	<path class="st0" d="M377.85,590.37c-0.53-0.03-15.16,2.09-32.28,16.08c-14.59,11.92-35.7,31.25-104.9,31.25
		c-69.21,0-90.31-19.33-104.9-31.25C118.07,591.99,106,590.38,106,590.38c0.64-0.85-1.11-1.8-0.18-2.82
		c0.02-10.9,0.25-103.67,4.26-165.55c4.25-65.82-16.97-197.45-16.97-197.47"/>
	<path class="st0" d="M389.34,224.54c0,0-21.23,131.65-16.97,197.47c4.26,65.82,4.26,166.61,4.26,166.61h-0.19
		c0.52,0.61,1,1.2,1.4,1.74"/>
	<path class="st0" d="M86.59,92.87c-0.01-0.04-0.02-0.08-0.03-0.12"/>
	<path class="st0" d="M88.67,101.66c-0.04-0.2-0.09-0.41-0.13-0.61"/>
	<path class="st0" d="M87.12,94.99c-0.02-0.09-0.04-0.18-0.06-0.26"/>
	<path class="st0" d="M87.66,97.18c-0.03-0.14-0.07-0.28-0.1-0.42"/>
	<path class="st0" d="M88.17,99.38c-0.04-0.17-0.08-0.34-0.12-0.51"/>
	<path class="st0" d="M90.14,108.86c-0.05-0.27-0.1-0.54-0.15-0.81"/>
	<path class="st0" d="M91.96,119.51c-0.06-0.36-0.11-0.72-0.17-1.08"/>
	<path class="st0" d="M91.07,114.03c-0.05-0.31-0.11-0.62-0.16-0.93"/>
	<path class="st0" d="M91.52,116.73c-0.05-0.34-0.11-0.67-0.17-1.01"/>
	<path class="st0" d="M89.17,104c-0.05-0.23-0.09-0.46-0.14-0.69"/>
	<path class="st0" d="M92.39,122.35c-0.05-0.38-0.11-0.75-0.17-1.12"/>
	<path class="st0" d="M89.66,106.4c-0.05-0.25-0.1-0.51-0.15-0.76"/>
	<path class="st0" d="M92.8,125.28c-0.05-0.39-0.11-0.78-0.16-1.17"/>
	<path class="st0" d="M90.61,111.41c-0.05-0.29-0.11-0.58-0.16-0.87"/>
	<path class="st0" d="M79.37,71.04c0.11,0.26,0.23,0.53,0.34,0.8"/>
	<path class="st0" d="M96.91,179.3c0.02,0.83,0.04,1.66,0.05,2.5"/>
	<path class="st0" d="M90.61,111.41c0.1,0.56,0.2,1.12,0.3,1.69"/>
	<path class="st0" d="M96.47,166.91c0.03,0.74,0.06,1.49,0.1,2.24"/>
	<path class="st0" d="M89.66,106.4c0.11,0.55,0.22,1.1,0.32,1.66"/>
	<path class="st0" d="M96.28,162.97c0.04,0.72,0.07,1.45,0.11,2.18"/>
	<path class="st0" d="M91.07,114.03c0.1,0.56,0.19,1.13,0.29,1.7"/>
	<path class="st0" d="M96.64,170.95c0.03,0.76,0.06,1.53,0.08,2.29"/>
	<path class="st0" d="M96.06,159.11c0.04,0.7,0.08,1.42,0.12,2.13"/>
	<path class="st0" d="M88.17,99.38c0.13,0.55,0.25,1.11,0.38,1.67"/>
	<path class="st0" d="M88.67,101.66c0.12,0.54,0.24,1.09,0.35,1.65"/>
	<path class="st0" d="M89.17,104c0.11,0.54,0.23,1.09,0.34,1.64"/>
	<path class="st0" d="M96.79,175.08c0.02,0.79,0.05,1.59,0.07,2.39"/>
	<path class="st0" d="M90.14,108.86c0.1,0.55,0.21,1.11,0.31,1.67"/>
	<path class="st0" d="M94.98,144.56c0.06,0.65,0.11,1.31,0.17,1.97"/>
	<path class="st0" d="M91.52,116.73c0.09,0.56,0.18,1.13,0.27,1.7"/>
	<path class="st0" d="M93.21,128.29c0.08,0.6,0.15,1.2,0.23,1.81"/>
	<path class="st0" d="M94.66,141.13c0.06,0.64,0.12,1.29,0.18,1.94"/>
	<path class="st0" d="M93.96,134.54c0.07,0.62,0.14,1.24,0.21,1.87"/>
	<path class="st0" d="M95.28,148.07c0.05,0.66,0.11,1.33,0.16,2"/>
	<path class="st0" d="M93.59,131.37c0.07,0.61,0.15,1.23,0.22,1.85"/>
	<path class="st0" d="M91.96,119.51c0.09,0.57,0.17,1.14,0.26,1.72"/>
	<path class="st0" d="M92.8,125.28c0.08,0.59,0.16,1.18,0.24,1.78"/>
	<path class="st0" d="M95.82,155.34c0.05,0.69,0.09,1.39,0.13,2.09"/>
	<path class="st0" d="M92.39,122.35c0.08,0.58,0.17,1.16,0.25,1.75"/>
	<path class="st0" d="M95.56,151.66c0.05,0.68,0.1,1.36,0.15,2.05"/>
	<path class="st0" d="M87.12,94.99c0.14,0.58,0.29,1.17,0.43,1.77"/>
	<path class="st0" d="M97.1,192.53c0.01,1.52,0.01,3.05,0.01,4.6"/>
	<path class="st0" d="M86.59,92.87c0.16,0.61,0.31,1.23,0.47,1.86"/>
	<path class="st0" d="M81.59,76.63c1.57,4.27,3.28,9.6,4.97,16.12"/>
	<path class="st0" d="M97.06,188.03c0.01,1.01,0.02,2.03,0.03,3.05"/>
	<path class="st0" d="M81.13,75.39c0.15,0.39,0.29,0.78,0.44,1.18"/>
	<path class="st0" d="M94.32,137.8c0.07,0.63,0.13,1.26,0.2,1.9"/>
	<path class="st0" d="M80.67,74.22c0.13,0.34,0.27,0.7,0.41,1.06"/>
	<polyline class="st0" points="97.11,197.13 93.11,224.54 93.11,224.54 	"/>
	<path class="st0" d="M97,183.62c0.02,0.88,0.03,1.77,0.04,2.66"/>
	<path class="st0" d="M87.66,97.18c0.13,0.56,0.27,1.12,0.4,1.7"/>
	<path class="st0" d="M409.16,62.81c0,0-0.01-0.11-0.03-0.31c22.59,8.58,32.17,20.11,32.17,20.11
		c18.08,27.77,26.68,74.05,27.74,86.39c1.07,12.34,13.71,82.28,13.71,82.28s-21.81,2.06-37.64,17.72
		c-15.83,15.66-43.37,18.28-43.37,18.28l-11.61-62.74c0,0-0.16,0.97-0.44,2.76c-0.22-1.78-0.34-2.76-0.34-2.76"/>
	<path class="st0" d="M409.16,62.81c-3.2,5.1-22.05,39.2-21.88,134.32l2.07,27.41"/>
	<path class="st0" d="M95.44,150.07c0.04,0.53,0.08,1.06,0.12,1.59"/>
	<path class="st0" d="M90.45,110.53c-0.1-0.56-0.21-1.12-0.31-1.67"/>
	<path class="st0" d="M89.98,108.05c-0.11-0.56-0.22-1.11-0.32-1.66"/>
	<path class="st0" d="M96.85,177.47c0.02,0.61,0.04,1.22,0.05,1.83"/>
	<path class="st0" d="M91.36,115.73c-0.1-0.57-0.19-1.14-0.29-1.7"/>
	<path class="st0" d="M95.44,150.07c-0.05-0.67-0.1-1.34-0.16-2"/>
	<path class="st0" d="M95.71,153.7c0.04,0.54,0.08,1.09,0.11,1.64"/>
	<path class="st0" d="M90.91,113.09c-0.1-0.57-0.2-1.13-0.3-1.69"/>
	<path class="st0" d="M96.96,181.8c-0.02-0.84-0.03-1.68-0.05-2.5"/>
	<polyline class="st0" points="97.11,197.13 93.11,224.54 93.11,224.54 	"/>
	<path class="st0" d="M97.04,186.28c-0.01-0.89-0.02-1.78-0.04-2.66"/>
	<path class="st0" d="M95.95,157.43c-0.04-0.7-0.09-1.4-0.13-2.09"/>
	<path class="st0" d="M75.09,62.6c-0.03-0.05-0.07-0.11-0.1-0.15c-22.68,8.59-32.3,20.16-32.3,20.16
		C24.61,110.38,16.03,156.66,14.96,169c-1.07,12.34-13.7,82.28-13.7,82.28S23.07,253.34,38.9,269
		c15.83,15.66,43.37,18.28,43.37,18.28l11.02-59.55c-0.11-2.04-0.18-3.19-0.18-3.19"/>
	<path class="st0" d="M94.51,139.7c0.05,0.47,0.1,0.95,0.14,1.43"/>
	<path class="st0" d="M89.03,103.31c-0.12-0.56-0.24-1.1-0.35-1.65"/>
	<path class="st0" d="M89.51,105.64c-0.11-0.56-0.22-1.1-0.34-1.64"/>
	<path class="st0" d="M94.84,143.07c0.05,0.49,0.09,0.99,0.14,1.48"/>
	<path class="st0" d="M95.71,153.7c-0.05-0.68-0.1-1.37-0.15-2.05"/>
	<path class="st0" d="M96.96,181.8c0.01,0.61,0.03,1.2,0.04,1.81"/>
	<path class="st0" d="M95.15,146.53c0.04,0.51,0.09,1.02,0.13,1.54"/>
	<path class="st0" d="M97.09,191.08c-0.01-1.02-0.01-2.04-0.03-3.05"/>
	<path class="st0" d="M97.11,197.13c0-1.55,0-3.08-0.01-4.6"/>
	<path class="st0" d="M96.57,169.15c-0.03-0.75-0.06-1.5-0.1-2.24"/>
	<path class="st0" d="M97.04,186.28c0.01,0.58,0.02,1.16,0.03,1.75"/>
	<path class="st0" d="M93.81,133.22c-0.07-0.62-0.15-1.24-0.22-1.85"/>
	<path class="st0" d="M96.39,165.15c0.03,0.59,0.06,1.17,0.09,1.77"/>
	<path class="st0" d="M94.17,136.41c-0.07-0.63-0.14-1.25-0.21-1.87"/>
	<path class="st0" d="M93.43,130.1c-0.08-0.61-0.15-1.21-0.23-1.81"/>
	<path class="st0" d="M94.84,143.07c-0.06-0.65-0.12-1.3-0.18-1.94"/>
	<path class="st0" d="M96.39,165.15c-0.04-0.73-0.07-1.46-0.11-2.18"/>
	<path class="st0" d="M94.51,139.7c-0.06-0.64-0.13-1.27-0.2-1.9"/>
	<path class="st0" d="M96.57,169.15c0.03,0.6,0.05,1.2,0.07,1.8"/>
	<path class="st0" d="M96.72,173.25c0.02,0.61,0.04,1.22,0.06,1.84"/>
	<path class="st0" d="M95.95,157.43c0.04,0.56,0.07,1.11,0.1,1.68"/>
	<path class="st0" d="M92.22,121.23c-0.09-0.58-0.17-1.15-0.26-1.72"/>
	<path class="st0" d="M97.09,191.08c0,0.48,0.01,0.96,0.01,1.45"/>
	<path class="st0" d="M92.64,124.11c-0.08-0.59-0.17-1.17-0.25-1.75"/>
	<path class="st0" d="M91.8,118.43c-0.09-0.57-0.18-1.14-0.27-1.7"/>
	<path class="st0" d="M96.85,177.47c-0.02-0.8-0.04-1.6-0.07-2.39"/>
	<path class="st0" d="M95.15,146.53c-0.06-0.66-0.11-1.32-0.17-1.97"/>
	<path class="st0" d="M96.18,161.24c-0.04-0.71-0.08-1.43-0.12-2.13"/>
	<path class="st0" d="M96.72,173.25c-0.03-0.77-0.05-1.54-0.08-2.29"/>
	<path class="st0" d="M93.04,127.06c-0.08-0.6-0.16-1.19-0.24-1.78"/>
	<path class="st0" d="M96.18,161.24c0.03,0.58,0.07,1.15,0.1,1.73"/>
	<path class="st0" d="M78.09,68.19c0.03,0.07,0.06,0.13,0.1,0.2"/>
	<path class="st0" d="M88.54,101.05c-0.12-0.57-0.25-1.12-0.38-1.67"/>
	<path class="st0" d="M75.47,63.21c0.03,0.05,0.06,0.1,0.1,0.16"/>
	<path class="st0" d="M88.54,101.05c0.04,0.2,0.09,0.41,0.13,0.61"/>
	<path class="st0" d="M76.16,64.4c0.03,0.06,0.07,0.12,0.1,0.18"/>
	<path class="st0" d="M75.29,62.91c0.03,0.05,0.07,0.11,0.1,0.16"/>
	<path class="st0" d="M88.05,98.87c0.04,0.17,0.08,0.34,0.12,0.51"/>
	<path class="st0" d="M75.91,63.95c0.03,0.05,0.06,0.11,0.1,0.17"/>
	<path class="st0" d="M75.09,62.6c0.01,0.02,0.02,0.04,0.04,0.06"/>
	<path class="st0" d="M89.51,105.64c0.05,0.25,0.1,0.5,0.15,0.76"/>
	<path class="st0" d="M75.47,63.21c-0.03-0.05-0.06-0.09-0.08-0.14"/>
	<path class="st0" d="M75.68,63.56c-0.04-0.06-0.07-0.13-0.11-0.19"/>
	<path class="st0" d="M75.29,62.91c-0.02-0.03-0.04-0.06-0.06-0.09"/>
	<path class="st0" d="M89.03,103.31c0.05,0.23,0.09,0.46,0.14,0.69"/>
	<path class="st0" d="M75.13,62.66c0.03,0.05,0.06,0.1,0.1,0.16"/>
	<path class="st0" d="M87.56,96.76c0.03,0.14,0.07,0.28,0.1,0.42"/>
	<path class="st0" d="M77.38,66.71c0.03,0.06,0.06,0.13,0.1,0.19"/>
	<path class="st0" d="M78.87,69.9c0.03,0.07,0.06,0.14,0.09,0.21"/>
	<path class="st0" d="M81.08,75.27c0.02,0.04,0.03,0.08,0.05,0.12"/>
	<path class="st0" d="M78.48,69.02c0.03,0.07,0.06,0.13,0.09,0.2"/>
	<path class="st0" d="M80.61,74.05c0.02,0.05,0.04,0.11,0.06,0.16"/>
	<path class="st0" d="M81.57,76.58c0.01,0.02,0.01,0.03,0.02,0.05"/>
	<path class="st0" d="M79.71,71.84c0.03,0.07,0.05,0.13,0.08,0.2"/>
	<path class="st0" d="M79.29,70.84c0.03,0.07,0.06,0.13,0.09,0.2"/>
	<path class="st0" d="M76.73,65.45c0.03,0.06,0.06,0.12,0.1,0.18"/>
	<path class="st0" d="M87.06,94.72c0.02,0.09,0.04,0.17,0.06,0.26"/>
	<path class="st0" d="M77.04,66.05c0.03,0.06,0.06,0.12,0.1,0.19"/>
	<path class="st0" d="M76.43,64.9c0.03,0.06,0.07,0.12,0.1,0.18"/>
	<path class="st0" d="M77.72,67.42c0.03,0.07,0.06,0.13,0.1,0.2"/>
	<path class="st0" d="M80.15,72.91c0.03,0.06,0.05,0.12,0.08,0.18"/>
	<path class="st0" d="M86.56,92.75c0.01,0.04,0.02,0.08,0.03,0.12"/>
	<path class="st0" d="M89.98,108.05c0.05,0.27,0.1,0.54,0.15,0.81"/>
	<path class="st0" d="M75.68,63.56c0.03,0.05,0.06,0.11,0.1,0.17"/>
	<path class="st0" d="M80.61,74.05c-0.13-0.33-0.26-0.65-0.38-0.96"/>
	<path class="st0" d="M93.04,127.06c0.05,0.41,0.11,0.82,0.16,1.23"/>
	<path class="st0" d="M81.08,75.27c-0.14-0.36-0.27-0.71-0.41-1.06"/>
	<path class="st0" d="M92.64,124.11c0.05,0.39,0.11,0.78,0.16,1.17"/>
	<path class="st0" d="M80.15,72.91c-0.12-0.3-0.24-0.59-0.36-0.87"/>
	<path class="st0" d="M79.71,71.84c-0.11-0.27-0.23-0.54-0.34-0.8"/>
	<path class="st0" d="M79.29,70.84c-0.11-0.25-0.22-0.5-0.32-0.74"/>
	<path class="st0" d="M81.57,76.58c-0.15-0.4-0.3-0.8-0.44-1.18"/>
	<path class="st0" d="M88.05,98.87c-0.13-0.57-0.26-1.14-0.4-1.7"/>
	<path class="st0" d="M94.17,136.41c0.05,0.46,0.1,0.92,0.15,1.39"/>
	<path class="st0" d="M93.43,130.1c0.05,0.42,0.1,0.84,0.16,1.27"/>
	<path class="st0" d="M87.56,96.76c-0.14-0.6-0.29-1.19-0.43-1.77"/>
	<path class="st0" d="M86.56,92.75c-1.69-6.53-3.4-11.85-4.97-16.12"/>
	<path class="st0" d="M75.91,63.95c-0.05-0.08-0.09-0.16-0.13-0.23"/>
	<path class="st0" d="M93.81,133.22c0.05,0.44,0.1,0.88,0.15,1.32"/>
	<path class="st0" d="M87.06,94.72c-0.16-0.63-0.31-1.25-0.47-1.86"/>
	<path class="st0" d="M90.91,113.09c0.05,0.31,0.11,0.62,0.16,0.93"/>
	<path class="st0" d="M77.04,66.05c-0.07-0.14-0.15-0.28-0.22-0.42"/>
	<path class="st0" d="M76.73,65.45c-0.07-0.13-0.13-0.25-0.2-0.37"/>
	<path class="st0" d="M76.16,64.4c-0.05-0.1-0.11-0.19-0.16-0.28"/>
	<path class="st0" d="M77.38,66.71c-0.08-0.16-0.16-0.32-0.24-0.47"/>
	<path class="st0" d="M90.45,110.53c0.05,0.29,0.11,0.58,0.16,0.87"/>
	<path class="st0" d="M92.22,121.23c0.06,0.37,0.11,0.75,0.17,1.12"/>
	<path class="st0" d="M76.43,64.9c-0.06-0.11-0.12-0.22-0.17-0.32"/>
	<path class="st0" d="M91.8,118.43c0.06,0.36,0.11,0.72,0.17,1.08"/>
	<path class="st0" d="M78.48,69.02c-0.1-0.21-0.19-0.42-0.29-0.63"/>
	<path class="st0" d="M78.87,69.9c-0.1-0.23-0.21-0.46-0.31-0.68"/>
	<path class="st0" d="M91.36,115.73c0.06,0.33,0.11,0.67,0.17,1.01"/>
	<path class="st0" d="M78.09,68.19c-0.09-0.19-0.18-0.38-0.27-0.57"/>
	<path class="st0" d="M77.72,67.42c-0.09-0.18-0.17-0.35-0.25-0.52"/>
</g>
<path class="st1" d="M468.31,169c-1.06-12.34-9.65-58.62-27.74-86.39c0,0-13.66-16.46-46.87-24.69c-33.2-8.23-83-28.8-92.57-36
	l-58-6.79h-3.71l-58,6.79c-9.58,7.2-59.36,27.77-92.57,36c-33.21,8.23-46.87,24.69-46.87,24.69C23.88,110.38,15.3,156.66,14.23,169
	c-1.07,12.34-13.71,82.28-13.71,82.28s21.81,2.06,37.64,17.72c15.83,15.66,43.37,18.28,43.37,18.28l11.61-62.74
	c0,0,21.23,131.65,16.97,197.47c-4,61.88-4.24,154.65-4.26,165.55c-0.92,1.01,0.82,1.97,0.18,2.82c0,0,12.07,1.62,29.76,16.07
	c14.6,11.92,35.7,31.25,104.9,31.25c69.2,0,90.31-19.33,104.9-31.25c17.69-14.46,32.72-16.24,32.29-16.07
	c-0.41-0.54-0.89-1.14-1.41-1.75h0.19c0,0,0-100.79-4.26-166.61c-4.26-65.83,16.97-197.47,16.97-197.47L401,287.28
	c0,0,27.54-2.62,43.37-18.28c15.83-15.66,37.64-17.72,37.64-17.72S469.37,181.34,468.31,169z"/>
<polygon class="st2" points="2.48,242.86 83.35,280.8 81.33,288.26 0.5,261.32 "/>
<polygon class="st3" points="480.53,242.82 399.54,280.82 401.57,288.3 482.5,261.31 "/>
<path class="ArmTrim fill" d="M2.48,242.86l80.88,37.94l-2.02,7.46L0.5,261.32L2.48,242.86z M480.53,242.82l-80.99,37.99l2.03,7.48
	l80.94-26.99L480.53,242.82z"/>
<g>
	<polygon class="st4" points="399.54,280.82 401.57,288.3 482.5,261.31 480.53,242.82 	"/>
	<polygon class="st4" points="0.5,261.32 81.33,288.26 83.35,280.8 2.48,242.86 	"/>
</g>
<path class="NeckTrim fill" d="M178.21,13.95l19.04-5.3l1.02,12.94l-26.1,6.21C172.17,27.79,175.84,22.2,178.21,13.95"/>
<path class="st5" d="M178.21,13.95l19.04-5.3l1.02,12.94l-26.1,6.21C172.17,27.79,175.84,22.2,178.21,13.95z"/>
<path class="NeckTrim fill" d="M301.88,13.95l-20.76-5.3l-1.01,12.94l29.52,6.21C309.63,27.79,304.25,22.2,301.88,13.95"/>
<path class="st5" d="M301.88,13.95l-20.76-5.3l-1.01,12.94l29.52,6.21C309.63,27.79,304.25,22.2,301.88,13.95z"/>
<path class="st7" d="M246.81,643.72c-23.14,0-45.11-2.33-47.78-2.63c-24.92-1.12-61.67-29.97-63.23-31.2l-0.4-0.35
	c-4.37-4.2-19.69-11.91-28.32-15.79l-0.07-2.28l-0.52-10.33l5.08,2.28c2.44,1.09,23.86,10.82,31.25,17.7
	c10.04,7.9,39.24,28.01,56.85,28.69l0.4,0.03c0.57,0.06,56.79,6.23,83.93-0.77l0.79-0.14c0.23-0.03,24.58-2.9,47.93-21.61
	c2.49-2.48,21.92-21.42,38.56-24.31l5.47-0.95l0.62,11.13l-4.22,0.95c-11.61,2.01-27.63,16.14-32.82,21.41l-0.47,0.43
	c-24.61,19.83-49.8,23.66-53.49,24.13C275.5,642.85,260.94,643.72,246.81,643.72"/>
<path class="st8" d="M83.9,284.81c0,0-28.02-2.66-44.13-18.6c-16.1-15.94-38.3-18.03-38.3-18.03"/>
<path class="st8" d="M83.9,283.03c0,0-28.02-2.66-44.13-18.6c-16.1-15.94-38.3-18.03-38.3-18.03"/>
<path class="st8" d="M399.6,282.32c0,0,28.02-2.66,44.13-18.6c16.1-15.94,38.3-18.03,38.3-18.03"/>
<path class="st8" d="M399.6,280.55c0,0,28.02-2.66,44.13-18.6c16.1-15.94,38.3-18.03,38.3-18.03"/>
<path class="st9" d="M88.65,95.02c0,0,124.74-32.47,306.7,0"/>
<path class="st10" d="M88.65,98.57c0,0,124.74-32.47,306.7,0"/>
<path class="st10" d="M88.65,100.35c0,0,124.74-32.47,306.7,0"/>
<path class="NeckTrim fill" d="M289.79,10.88c-37.23-9.43-67.23-9.03-105.71,1.33l4.89,11.98c14.47-5.38,31.96-6.54,49.56-6.55
	c16.64,0,33.39,0.88,47.77,5.27L289.79,10.88z"/>
<path class="st11" d="M289.79,10.88c-37.23-9.43-67.23-9.03-105.71,1.33l4.89,11.98c14.47-5.38,31.96-6.54,49.56-6.55
	c16.64,0,33.39,0.88,47.77,5.27L289.79,10.88z"/>
<path class="NeckTrim fill" d="M177.22,16.34l0.75-4.66c3.35-1.24,65.6-21.76,124.3,0l0.75,4.66C243.39-5.77,177.82,16.11,177.22,16.34"
	/>
<path class="neckline" d="M177.22,16.34c0.6-0.22,66.17-22.11,125.81,0l-0.75-4.66c-58.71-21.76-120.95-1.24-124.3,0L177.22,16.34z"/>
<path class="Colour2 fill" d="M108.15,443.67c0.13-2.66,0.26-5.29,0.4-7.88h263.9c0.14,2.6,0.27,5.22,0.4,7.88H108.15z M105.9,514.42
	h269.19c-0.02-0.78-0.03-1.55-0.05-2.34H105.95C105.93,512.87,105.92,513.64,105.9,514.42z M105.65,528.46h269.69
	c-0.01-0.77-0.03-1.55-0.04-2.34H105.69C105.67,526.91,105.66,527.69,105.65,528.46z M373.56,460.39c-0.03-0.78-0.06-1.56-0.09-2.34
	H107.52c-0.03,0.78-0.06,1.56-0.09,2.34H373.56z M109.83,394.12h261.33c0.05-2.59,0.12-5.22,0.2-7.88H109.62
	C109.71,388.9,109.78,391.53,109.83,394.12z M373.77,466.13H107.22c-0.03,0.78-0.06,1.56-0.08,2.34h266.72
	C373.83,467.68,373.8,466.9,373.77,466.13z M105.43,543.7h270.14c-0.01-0.77-0.02-1.55-0.03-2.34H105.46
	C105.45,542.15,105.44,542.93,105.43,543.7z M371.73,423.4H109.26c-0.16,2.58-0.32,5.21-0.47,7.88H372.2
	C372.05,428.61,371.89,425.98,371.73,423.4z M109.89,398.62c0.02,2.69,0.02,5.31,0,7.88H371.1c-0.03-2.57-0.03-5.2,0-7.88H109.89z
	 M371.18,411.01H109.81c-0.06,2.71-0.15,5.34-0.28,7.88h261.93C371.33,416.35,371.24,413.72,371.18,411.01z M105.13,576.9
	c0,0.82-0.01,1.59-0.01,2.34h270.76c0-0.74-0.01-1.52-0.01-2.34H105.13z M114.02,593.21c1.45,0.63,3.07,1.41,4.83,2.34h242.9
	c1.91-0.93,3.69-1.7,5.31-2.34H114.02z M105.24,560.59c-0.01,0.79-0.01,1.57-0.02,2.34h270.54c-0.01-0.77-0.01-1.54-0.02-2.34
	H105.24z M108.26,359.97h264.46c0.29-4.28,0.61-8.58,0.96-12.9H107.3C107.65,351.39,107.97,355.69,108.26,359.97z M165.31,625.84
	c1.9,0.8,3.91,1.58,6.03,2.34h137.18c2.12-0.75,4.13-1.53,6.03-2.34H165.31z M109.46,381.73h262.07c0.1-2.6,0.23-5.23,0.36-7.88
	H109.1C109.23,376.5,109.35,379.13,109.46,381.73z M106.8,478.54h267.39c-0.02-0.78-0.05-1.56-0.07-2.34H106.87
	C106.85,476.99,106.82,477.77,106.8,478.54z M106.48,489.58h268.03c-0.02-0.78-0.04-1.56-0.06-2.34h-267.9
	C106.52,488.03,106.5,488.81,106.48,489.58z M106.19,501.05H374.8c-0.02-0.78-0.04-1.56-0.06-2.34h-268.5
	C106.23,499.49,106.21,500.27,106.19,501.05z M341.08,609.53H138.79c0.94,0.76,1.91,1.54,2.93,2.34h196.43
	C339.16,611.07,340.14,610.29,341.08,609.53z"/>
<path class="Colour3 fill" d="M109.81,411.01c0.03-1.48,0.06-2.98,0.08-4.51H371.1c0.02,1.52,0.04,3.03,0.08,4.51H109.81z M108.54,435.79
	h263.9c-0.08-1.51-0.16-3.02-0.25-4.51H108.79C108.7,432.77,108.62,434.28,108.54,435.79z M109.26,423.4h262.47
	c-0.03-0.46-0.06-0.93-0.09-1.39c-0.07-1.02-0.13-2.06-0.18-3.12H109.53c-0.05,1.05-0.11,2.09-0.18,3.12
	C109.32,422.47,109.29,422.94,109.26,423.4z M109.62,386.23h261.74c0.05-1.49,0.11-2.99,0.17-4.51H109.46
	C109.52,383.24,109.57,384.74,109.62,386.23z M372.84,443.67h-264.7c-0.07,1.49-0.14,3-0.21,4.51h265.11
	C372.98,446.67,372.91,445.17,372.84,443.67z M109.89,398.62h261.2c0.01-1.49,0.04-2.99,0.06-4.51H109.83
	C109.86,395.63,109.88,397.14,109.89,398.62z"/>
<path class="st12" d="M107.3,347.07h266.39c0.18-2.25,0.37-4.5,0.57-6.76H106.73C106.93,342.56,107.12,344.82,107.3,347.07z"/>
<path class="st12" d="M108.71,366.93h263.57c0.09-1.5,0.19-3,0.28-4.51H108.43C108.53,363.93,108.62,365.44,108.71,366.93z"/>
<g id="BBodyLogos"></g>
<path class="BottomHem fill" d="M246.81,643.72c-23.14,0-45.11-2.33-47.78-2.63c-24.92-1.12-61.67-29.97-63.23-31.2l-0.4-0.35
	c-4.37-4.2-19.69-11.91-28.32-15.79l-0.07-2.28l-0.52-10.33l5.08,2.28c2.44,1.09,23.86,10.82,31.25,17.7
	c10.04,7.9,39.24,28.01,56.85,28.69l0.4,0.03c0.57,0.06,56.79,6.23,83.93-0.77l0.79-0.14c0.23-0.03,24.58-2.9,47.93-21.61
	c2.49-2.48,21.92-21.42,38.56-24.31l5.47-0.95l0.62,11.13l-4.22,0.95c-11.61,2.01-27.63,16.14-32.82,21.41l-0.47,0.43
	c-24.61,19.83-49.8,23.66-53.49,24.13C275.5,642.85,260.94,643.72,246.81,643.72z"/>
</svg>
