<?xml version="1.0" encoding="utf-8"?>
<!-- Generator: Adobe Illustrator 19.1.0, SVG Export Plug-In . SVG Version: 6.00 Build 0)  -->
<svg version="1.1" id="Layer_1" xmlns="http://www.w3.org/2000/svg" xmlns:xlink="http://www.w3.org/1999/xlink" x="0px" y="0px"
	 viewBox="0 0 483.01 645.44" style="enable-background:new 0 0 483.01 645.44;" xml:space="preserve">
<style type="text/css">
	<![CDATA[
	@font-face{font-family:'codaheavy';src:url('/fonts/coda-heavy-webfont.woff') format('woff')}
	text{font-family:Impact,codaheavy,sans-serif}
	.Number.fill{fill:#000}
	.NumberOutline.stroke{fill:none;stroke:#777;stroke-width:2.5}
	.Colour1.fill{fill:#000000;}
	.Colour2.fill{fill:#F9B425;}
	.NeckTrim.fill{fill:#F9B425;}
	.ArmTrim.fill{fill:#F9B425;}
	.BottomHem.fill{fill:#F9B425;stroke:#101010;stroke-width:0.8861;stroke-miterlimit:10;}
	.st0{fill:#1A2651;}
	.st1{fill:none;stroke:#0A0505;stroke-width:0.328;stroke-miterlimit:10;}
	.st2{fill:none;stroke:#221915;stroke-width:0.6559;stroke-miterlimit:10;}
	.st3{fill:none;stroke:#000000;stroke-width:0.4411;}
	.st4{fill:#C0773C;stroke:#000000;stroke-width:2;stroke-miterlimit:10;}
	.st5{fill:none;stroke:#FFFFFF;stroke-width:0.216;stroke-dasharray:2.4,2.4,2.4,2.4;}
	.st6{fill:#101010;stroke:#FFFFFF;stroke-width:0.216;stroke-dasharray:2.4,2.4,2.4,2.4;}
	.st7{fill:#FFFFFF;}
	.st8{fill:none;stroke:#221915;stroke-width:0.506;stroke-miterlimit:10;}
	.st9{fill:none;stroke:#000000;stroke-width:2;stroke-linecap:round;stroke-linejoin:round;}
	.st10{fill:none;stroke:#FFFFFF;stroke-width:0.328;}
	.neckline{fill:none;stroke:#000000;stroke-width:0.6559;}
	]]>
</style>
<path class="st0" d="M54.21,225.06L54.21,225.06c0,0-0.04,0.24-0.11,0.66C54.17,225.3,54.21,225.06,54.21,225.06z"/>
<path class="Colour1 fill" d="M468.77,169c-1.06-12.34-9.66-58.62-27.77-86.39c0,0-13.68-16.46-46.92-24.69
	c-33.24-8.23-83.08-28.8-92.67-36l-58.06-6.79h-3.72l-58.06,6.79c-9.59,7.2-59.42,27.77-92.67,36
	c-33.24,8.23-46.92,24.69-46.92,24.69c-18.11,27.77-26.7,74.05-27.77,86.39C13.16,181.34,0.5,251.28,0.5,251.28
	s21.84,2.06,37.68,17.72c15.84,15.66,43.42,18.28,43.42,18.28l11.62-62.74c0,0,21.25,131.65,16.99,197.47
	c-4.01,61.88-4.24,154.65-4.26,165.55c-0.92,1.01,0.82,1.97,0.18,2.82c0,0,12.08,1.62,29.79,16.07
	c14.61,11.92,35.74,31.25,105.01,31.25c69.27,0,90.4-19.33,105.01-31.25c17.71-14.46,32.76-16.24,32.33-16.07
	c-0.41-0.54-0.89-1.14-1.41-1.75h0.19c0,0,0-100.79-4.26-166.61c-4.26-65.83,16.99-197.47,16.99-197.47l11.62,62.74
	c0,0,27.57-2.62,43.42-18.28c15.85-15.66,37.68-17.72,37.68-17.72S469.83,181.34,468.77,169"/>
<path class="Colour1 fill" d="M388.38,231.3l-1.11-12.37l0.43-21.8c-0.17-95.12,18.7-129.22,21.9-134.32c-4.61-1.79-9.77-3.46-15.52-4.89
	c-33.24-8.23-83.08-28.8-92.67-36l-58.06-6.79h-3.72l-58.06,6.79c-9.59,7.2-59.42,27.77-92.67,36c-5.11,1.27-9.76,2.73-13.97,4.29
	c1.4,2.05,22.46,34.45,22.29,134.91l-2.9,34.48v0c4.3,28.18,19.55,133.7,15.89,190.4c-4.01,61.88-4.24,154.65-4.26,165.55
	c-0.92,1.01,0.82,1.97,0.18,2.82c0,0,12.08,1.62,29.79,16.07c14.61,11.92,35.74,31.25,105.01,31.25c69.27,0,90.4-19.33,105.01-31.25
	c17.71-14.46,32.76-16.24,32.33-16.07c-0.41-0.54-0.89-1.14-1.41-1.75h0.19c0,0,0-100.79-4.26-166.61
	c-3.61-55.78,11.1-158.81,15.67-188.96L388.38,231.3z"/>
<path class="st1" d="M468.77,169c-1.06-12.34-9.66-58.62-27.77-86.39c0,0-13.68-16.46-46.92-24.69c-33.24-8.23-83.08-28.8-92.67-36
	l-58.06-6.79h-3.72l-58.06,6.79c-9.59,7.2-59.42,27.77-92.67,36c-33.24,8.23-46.92,24.69-46.92,24.69
	c-18.11,27.77-26.7,74.05-27.77,86.39C13.16,181.34,0.5,251.28,0.5,251.28s21.84,2.06,37.68,17.72
	c15.84,15.66,43.42,18.28,43.42,18.28l11.62-62.74c0,0,21.25,131.65,16.99,197.47c-4.01,61.88-4.24,154.65-4.26,165.55
	c-0.92,1.01,0.82,1.97,0.18,2.82c0,0,12.08,1.62,29.79,16.07c14.61,11.92,35.74,31.25,105.01,31.25c69.27,0,90.4-19.33,105.01-31.25
	c17.71-14.46,32.76-16.24,32.33-16.07c-0.41-0.54-0.89-1.14-1.41-1.75h0.19c0,0,0-100.79-4.26-166.61
	c-4.26-65.83,16.99-197.47,16.99-197.47l11.62,62.74c0,0,27.57-2.62,43.42-18.28c15.85-15.66,37.68-17.72,37.68-17.72
	S469.83,181.34,468.77,169z"/>
<path class="NeckTrim fill" d="M178.38,13.95l19.06-5.3l1.02,12.94l-26.13,6.21C172.33,27.79,175.99,22.2,178.38,13.95"/>
<path class="st2" d="M178.38,13.95l19.06-5.3l1.02,12.94l-26.13,6.21C172.33,27.79,175.99,22.2,178.38,13.95z"/>
<path class="NeckTrim fill" d="M302.17,13.95l-20.78-5.3l-1.01,12.94l29.55,6.21C309.93,27.79,304.55,22.2,302.17,13.95"/>
<path class="st2" d="M302.17,13.95l-20.78-5.3l-1.01,12.94l29.55,6.21C309.93,27.79,304.55,22.2,302.17,13.95z"/>
<path class="st3" d="M74.86,62.11c0,0,22.54,31.09,22.37,135.02"/>
<path class="st3" d="M410.06,62.11c0,0-22.55,31.09-22.37,135.02"/>
<path class="st4" d="M247.04,643.72c-23.16,0-45.16-2.33-47.83-2.63c-24.95-1.12-61.74-29.97-63.3-31.2l-0.4-0.35
	c-4.38-4.2-19.71-11.91-28.35-15.79l-0.07-2.28l-0.52-10.33l5.08,2.28c2.44,1.09,23.88,10.82,31.28,17.7
	c10.05,7.9,39.28,28.01,56.91,28.69l0.4,0.03c0.57,0.06,56.85,6.23,84.01-0.77l0.79-0.14c0.23-0.03,24.61-2.9,47.98-21.61
	c2.49-2.48,21.94-21.42,38.6-24.31l5.48-0.95l0.62,11.13l-4.22,0.95c-11.63,2.01-27.66,16.14-32.86,21.41l-0.47,0.43
	c-24.63,19.83-49.85,23.66-53.55,24.13C275.77,642.85,261.19,643.72,247.04,643.72"/>
<path class="st5" d="M83.96,284.81c0,0-28.05-2.66-44.18-18.6c-16.12-15.94-38.34-18.03-38.34-18.03"/>
<path class="st5" d="M83.96,283.03c0,0-28.05-2.66-44.18-18.6C23.67,248.5,1.45,246.41,1.45,246.41"/>
<path class="st5" d="M399.99,282.32c0,0,28.05-2.66,44.17-18.6c16.12-15.94,38.34-18.03,38.34-18.03"/>
<path class="st6" d="M399.99,280.55c0,0,28.05-2.66,44.17-18.6c16.12-15.94,38.34-18.03,38.34-18.03"/>
<path class="st5" d="M88.72,100.35c0,0,124.87-32.47,307.02,0"/>
<path class="NeckTrim fill" d="M290.06,10.88c-37.26-9.43-67.3-9.03-105.82,1.33l4.9,11.98c14.48-5.38,31.99-6.54,49.61-6.55
	c16.66,0,33.42,0.88,47.82,5.27L290.06,10.88z"/>
<path class="st8" d="M290.06,10.88c-37.26-9.43-67.3-9.03-105.82,1.33l4.9,11.98c14.48-5.38,31.99-6.54,49.61-6.55
	c16.66,0,33.42,0.88,47.82,5.27L290.06,10.88z"/>
<path class="NeckTrim fill" d="M177.38,16.34l0.75-4.66c3.36-1.24,65.66-21.76,124.43,0l0.75,4.66C243.62-5.77,177.98,16.11,177.38,16.34
	"/>
<path class="neckline" d="M177.38,16.34c0.6-0.22,66.24-22.11,125.94,0l-0.75-4.66c-58.77-21.76-121.08-1.24-124.43,0L177.38,16.34z"/>
<path class="Colour1 fill" d="M468,169.15c-1.08-12.56-9.83-59.65-28.25-87.9c0,0-8.62-10.36-28.75-18.85
	c-2.17,3.27-22.74,36.93-22.57,137.1l-0.96,27.14c0.1-0.64,0.16-0.98,0.16-0.98l11.82,63.83c0,0,28.05-2.66,44.18-18.6
	c16.12-15.94,38.34-18.03,38.34-18.03S469.08,181.71,468,169.15z"/>
<path class="ArmTrim fill" d="M481.95,252.86c0,0-0.39-2.18-1.05-5.84l-83.77,29.99l2.31,12.48c0,0,0.24-0.02,0.69-0.08
	c0,0,20.97-1.79,37.18-13.31c2.21-1.57,4.35-3.28,6.3-5.21C459.74,254.96,481.95,252.86,481.95,252.86z"/>
<path class="Colour2 fill" d="M397.13,277.01l83.77-29.99c-0.58-3.23-1.36-7.61-2.26-12.67l-83.86,30.02L397.13,277.01z"/>
<path class="Colour1 fill" d="M14.97,169.15c1.08-12.56,9.83-59.65,28.25-87.9c0,0,8.62-10.36,28.75-18.85
	c2.17,3.27,22.74,36.93,22.57,137.1l0.96,27.14c-0.1-0.64-0.16-0.98-0.16-0.98l-11.82,63.83c0,0-28.05-2.66-44.18-18.6
	c-16.12-15.94-38.34-18.03-38.34-18.03S13.89,181.71,14.97,169.15z"/>
<path class="ArmTrim fill" d="M1.01,252.86c0,0,0.39-2.18,1.05-5.84l83.77,29.99l-2.31,12.48c0,0-0.24-0.02-0.69-0.08
	c0,0-23.17-2.77-37.18-13.31c-2.17-1.63-4.35-3.28-6.3-5.21C23.23,254.96,1.01,252.86,1.01,252.86z"/>
<path class="Colour2 fill" d="M85.83,277.01L2.06,247.03c0.58-3.23,1.36-7.61,2.26-12.67l83.86,30.02L85.83,277.01z"/>
<path class="BottomHem fill" d="M247.04,643.72c-23.16,0-45.16-2.33-47.83-2.63c-24.95-1.12-61.74-29.97-63.3-31.2l-0.4-0.35
	c-4.38-4.2-19.71-11.91-28.35-15.79l-0.07-2.28l-0.52-10.33l5.08,2.28c2.44,1.09,23.88,10.82,31.28,17.7
	c10.05,7.9,39.28,28.01,56.91,28.69l0.4,0.03c0.57,0.06,56.85,6.23,84.01-0.77l0.79-0.14c0.23-0.03,24.61-2.9,47.98-21.61
	c2.49-2.48,21.94-21.42,38.6-24.31l5.48-0.95l0.62,11.13l-4.22,0.95c-11.63,2.01-27.66,16.14-32.86,21.41l-0.47,0.43
	c-24.63,19.83-49.85,23.66-53.55,24.13C275.77,642.85,261.19,643.72,247.04,643.72z"/>
<path class="Colour2 fill" d="M389.64,211.82l81.88-29.83c0.46,2.93,0.98,6.16,1.54,9.57l-83.78,30.53L389.64,211.82z M391.51,237.02
	l84.05-30.62c-0.55-3.23-1.09-6.43-1.61-9.54l-84.19,30.67L391.51,237.02z M392.47,242.2l2.34,12.65l83.84-30.55
	c-0.72-4.09-1.46-8.38-2.21-12.7L392.47,242.2z M469.25,164.82c-0.19-1.42-0.42-3.02-0.71-4.8l-78.38,28.56
	c-0.02,1.67-0.04,3.37-0.05,5.08L469.25,164.82z M470.7,176.56c-0.38-2.6-0.68-4.78-0.87-6.44l-79.74,29.05l-0.24,6.84L470.7,176.56
	z"/>
<path class="Colour2 fill" d="M94.33,222.08l-83.78-30.53c0.56-3.41,1.08-6.64,1.54-9.57l81.88,29.83L94.33,222.08z M93.85,227.53
	L9.66,196.86c-0.52,3.11-1.06,6.31-1.61,9.54l84.05,30.62L93.85,227.53z M7.16,211.6c-0.75,4.32-1.49,8.61-2.21,12.7l83.84,30.55
	l2.34-12.65L7.16,211.6z M93.5,193.66c-0.01-1.71-0.03-3.41-0.05-5.08l-78.38-28.56c-0.29,1.78-0.52,3.38-0.71,4.8L93.5,193.66z
	 M93.76,206.02l-0.24-6.84l-79.74-29.05c-0.19,1.65-0.49,3.84-0.87,6.44L93.76,206.02z"/>
<path class="Colour2 fill" d="M400.16,85.92c-3.62,12.13-7.41,29.57-9.85,53.7H94.62c-2.44-24.13-6.24-41.56-9.85-53.7H400.16z
	 M110.62,390.83c0.28,11.33,0.19,21.91-0.41,31.18c-0.46,7.15-0.87,14.72-1.24,22.52h265.05c-0.37-7.8-0.78-15.37-1.24-22.52
	c-0.6-9.27-0.69-19.85-0.41-31.18H110.62z M107.27,492.47c-0.51,19.31-0.82,38-1.01,53.7h270.48c-0.19-15.69-0.5-34.38-1.01-53.7
	H107.27z M107.81,342.89h267.36c1.57-18.47,3.58-36.98,5.62-53.7H102.2C104.23,305.91,106.25,324.42,107.81,342.89z M388.38,231.3
	l-1.11-12.37l0.43-21.8c-0.01-3.27,0.02-6.45,0.05-9.57H97.18c0.04,3.12,0.06,6.31,0.05,9.57l-2.9,34.48v0
	c0.4,2.59,0.88,5.84,1.44,9.64h291.46c0.46-3.13,0.87-5.88,1.22-8.2L388.38,231.3z"/>
<g id="BBodyLogos"></g>
<path class="st10" d="M88.72,95.02c0,0,124.87-32.47,307.02,0"/>
<path class="st5" d="M88.72,98.57c0,0,124.87-32.47,307.02,0"/>
</svg>
