<?xml version="1.0" encoding="utf-8"?>
<!-- Generator: Adobe Illustrator 19.1.0, SVG Export Plug-In . SVG Version: 6.00 Build 0)  -->
<svg version="1.1" id="Layer_1" xmlns="http://www.w3.org/2000/svg" xmlns:xlink="http://www.w3.org/1999/xlink" x="0px" y="0px"
	 viewBox="0 0 483.01 645.44" style="enable-background:new 0 0 483.01 645.44;" xml:space="preserve">
<style type="text/css">
	<![CDATA[
	@font-face{font-family:'codaheavy';src:url('/fonts/coda-heavy-webfont.woff') format('woff')}
	text{font-family:Impact,codaheavy,sans-serif}
	.Number.fill{fill:#000}
	.NumberOutline.stroke{fill:none;stroke:#777;stroke-width:2.5}
	.Colour1.fill{fill:#060606;}
	.Colour2.fill{fill:#FFFFFF;}
	.ArmTrim.fill{fill:#060606;}
	.NeckTrim.fill{fill:#060606;}
	.st0{fill:none;stroke:#000000;stroke-linecap:round;stroke-linejoin:round;}
	.st1{fill:none;stroke:#000000;stroke-width:0.4411;}
	.st2{fill:none;stroke:#221915;stroke-width:0.6559;stroke-miterlimit:10;}
	.st3{fill:none;stroke:#FFFFFF;stroke-width:0.216;stroke-dasharray:2.4,2.4,2.4,2.4;}
	.st4{fill:none;stroke:#FFFFFF;stroke-width:0.328;}
	.st5{fill:none;stroke:#221915;stroke-width:0.506;stroke-miterlimit:10;}
	]]>
</style>
<path class="Colour1 fill" d="M373.57,558.6c0,0-5.26-104.15-9.28-158.04c5-51.92,21.05-187.31,21.05-187.31l15.97,59.51
	c0,0,27.43-2.48,43.19-17.34c15.77-14.86,37.48-16.81,37.48-16.81s-12.59-66.34-13.65-78.05c-1.06-11.71-9.61-55.61-27.62-81.94
	c0,0-13.61-15.61-46.67-23.42c-33.07-7.8-82.65-27.31-92.19-34.14l-57.76-6.44h-3.7l-57.76,6.44c-9.54,6.83-59.12,26.34-92.19,34.14
	c-33.07,7.81-46.67,23.42-46.67,23.42c-18.01,26.34-26.56,70.24-27.62,81.94C15.09,172.28,2.5,238.62,2.5,238.62
	s21.72,1.95,37.49,16.81c15.76,14.85,43.19,17.34,43.19,17.34l12.98-59.51c0,0,19.72,124.87,15.48,187.31
	c-3.99,58.69-4.22,146.69-4.24,157.03c-0.92,0.96,0.82,1.87,0.18,2.67c0,0,12.02,1.53,29.63,15.25
	c14.54,11.31,35.55,29.64,104.47,29.64c68.91,0,89.93-18.33,104.46-29.64c17.62-13.71,27.18-15.25,27.18-15.25"/>
<path class="Colour1 fill" d="M384.46,226.01c-0.17-90.22,18.6-122.57,21.79-127.41c-4.59-1.7-9.71-3.28-15.44-4.64
	c-33.07-7.8-82.65-27.31-92.19-34.14l-57.76-6.44h-3.7l-57.76,6.44c-9.54,6.83-59.12,26.34-92.19,34.14
	c-5.09,1.2-9.71,2.59-13.9,4.07c1.4,1.94,22.35,32.68,22.17,127.97l-3.98,26c0,0,21.14,124.87,16.9,187.31
	c-3.99,58.69-4.22,146.69-4.24,157.03c-0.92,0.96,0.82,1.87,0.18,2.67c0,0,12.02,1.53,29.63,15.25
	c14.54,11.31,35.55,29.64,104.47,29.64c68.91,0,89.93-18.33,104.46-29.64c17.62-13.71,32.59-15.4,32.16-15.25
	c-0.41-0.51-0.89-1.08-1.41-1.66h0.19c0,0,0-95.6-4.24-158.04c-4.24-62.44,16.9-187.31,16.9-187.31L384.46,226.01z"/>
<g>
	<path class="st0" d="M375.09,599.01c-0.4-0.51-0.88-1.07-1.4-1.65h0.19c0,0,0-15.8-0.29-38.75l0-0.01c0,0,0-0.02,0-0.03
		c-0.42-33.5-1.44-82.21-3.96-119.25c-4.24-62.44,16.9-187.31,16.9-187.31l-0.88-11.11c-1.22-17.5-1.27-16.68,0.2-27.64l15.47,59.51
		c0,0,27.43-2.48,43.19-17.34c15.77-14.86,37.48-16.81,37.48-16.81s-12.59-66.34-13.65-78.05c-1.06-11.71-9.61-55.61-27.62-81.94
		c0,0-13.61-15.61-46.67-23.42c-33.07-7.8-82.65-27.31-92.19-34.14l-57.76-6.44h-3.7l-57.76,6.44
		c-9.54,6.83-59.12,26.34-92.19,34.14C57.4,63.02,43.79,78.63,43.79,78.63c-18.01,26.34-26.56,70.24-27.62,81.94
		c-1.06,11.71-13.65,78.05-13.65,78.05s21.72,1.95,37.49,16.81c15.76,14.85,43.19,17.34,43.19,17.34l13.48-59.51
		c0,0-1.66,1.53-1.21,4.32c0.03,2.76,0.05,5.57,0.04,8.44l-3.98,26c0,0,21.14,124.87,16.9,187.31
		c-3.99,58.69-4.22,146.69-4.24,157.03c-0.92,0.96,0.82,1.87,0.18,2.67c0,0,12.02,1.53,29.63,15.25
		c14.54,11.31,35.55,29.64,104.47,29.64c68.91,0,89.93-18.33,104.46-29.64C359.99,600.99,374.56,598.98,375.09,599.01"/>
	<line class="st0" x1="375.1" y1="599.01" x2="375.09" y2="599.01"/>
</g>
<path class="Colour2 fill" d="M76.1,103.24c1.3,2.57,2.9,6.16,4.63,10.93h318.03c1.73-4.77,3.34-8.36,4.63-10.93H76.1z"/>
<path class="Colour2 fill" d="M167.08,66.18c-19.3,8.91-56,22.45-82.37,28.68c-3.03,0.71-5.87,1.5-8.58,2.33h325.82
	c-0.68-0.23-1.39-0.45-2.09-0.67c-2.01-0.58-4.07-1.15-6.26-1.66c-5.83-1.38-12.17-3.11-18.71-5.08c-31-9.07-67.73-23.88-76.27-29.8
	l-42.9-4.92l-15.09-1.68h-3.36l-58.48,6.7C176.52,61.62,172.44,63.73,167.08,66.18z"/>
<path class="st1" d="M55.1,69.34c0,0,27.49,24.84,45.54,121.75"/>
<polygon class="ArmTrim fill" points="480.31,227 399.48,267.51 402.01,278.28 483.01,241.39 "/>
<polygon class="ArmTrim fill" points="4.21,227 85.04,267.51 82.51,278.28 1.52,241.39 "/>
<path class="NeckTrim fill" d="M177.72,13.5l18.96-5.03l1.01,12.27l-25.99,5.89C171.71,26.63,175.36,21.32,177.72,13.5"/>
<path class="st2" d="M177.72,13.5l18.96-5.03l1.01,12.27l-25.99,5.89C171.71,26.63,175.36,21.32,177.72,13.5z"/>
<path class="NeckTrim fill" d="M300.87,13.5L280.2,8.47l-1.01,12.27l29.4,5.89C308.59,26.63,303.24,21.32,300.87,13.5"/>
<path class="NeckTrim fill" d="M300.87,13.5L280.2,8.47l-1.01,12.27l29.4,5.89C308.59,26.63,303.24,21.32,300.87,13.5z"/>
<path class="st1" d="M425.34,67.52c0,0-27.69,24.62-46.5,121.39"/>
<path class="st3" d="M83.8,270.42c0,0-27.9-2.53-43.95-17.64c-16.04-15.12-38.14-17.1-38.14-17.1"/>
<path class="st3" d="M83.8,268.74c0,0-27.9-2.53-43.95-17.64C23.82,235.98,1.72,234,1.72,234"/>
<path class="st3" d="M400.17,270.06c0,0,27.23-2.53,42.89-17.64c15.65-15.12,37.22-17.1,37.22-17.1"/>
<path class="st4" d="M88.53,90.4c0,0,124.22-30.8,305.43,0"/>
<path class="st3" d="M88.53,93.77c0,0,124.22-30.8,305.43,0"/>
<path class="st3" d="M88.53,95.45c0,0,124.22-30.8,305.43,0"/>
<path class="NeckTrim fill" d="M288.84,10.59c-37.07-8.95-66.95-8.56-105.27,1.26l4.87,11.37c14.41-5.1,31.83-6.21,49.35-6.21
	c16.58,0,33.25,0.84,47.57,5L288.84,10.59z"/>
<path class="st5" d="M288.84,10.59c-37.07-8.95-66.95-8.56-105.27,1.26l4.87,11.37c14.41-5.1,31.83-6.21,49.35-6.21
	c16.58,0,33.25,0.84,47.57,5L288.84,10.59z"/>
<path class="Colour1 fill" d="M176.73,15.76l0.75-4.42c3.34-1.18,65.32-20.64,123.79,0l0.75,4.42C242.63-5.2,177.33,15.55,176.73,15.76"
	/>
<path class="NeckTrim fill" d="M176.73,15.4c0.6-0.21,65.9-20.97,125.29,0l-0.75-4.42c-58.46-20.64-120.45-1.18-123.79,0L176.73,15.4z"/>
<path class="st0" d="M171.71,26.24l16.58-3.76l0.15,0.35c1.34-0.48,2.72-0.9,4.11-1.31l5.16-1.17l-0.01-0.18
	c12.33-2.84,26.18-3.55,40.1-3.56c14.26,0,28.58,0.63,41.43,3.45l-0.02,0.28l5.75,1.15c0.14,0.04,0.28,0.07,0.41,0.11l0.01-0.03
	l23.23,4.66c0,0-4.58-4.55-7.14-11.42c0.19,0.07,0.38,0.13,0.57,0.19l-0.75-4.42c-58.46-20.64-120.45-1.18-123.79,0l-0.75,4.42
	c0.03-0.01,0.17-0.06,0.42-0.13C174.81,21.72,171.71,26.24,171.71,26.24z"/>
<polygon class="Colour2 fill" points="384.29,226.73 95.16,226.73 93.48,237.65 385.15,237.65 "/>
<path class="Colour2 fill" d="M372.01,495.61H105.56c-0.11,3.65-0.22,7.3-0.32,10.93h267.09C372.23,502.91,372.12,499.27,372.01,495.61z"
	/>
<path class="Colour2 fill" d="M98.86,302.98c2.12,15.85,4.33,34.03,6.12,52.5h267.61c1.79-18.47,4-36.65,6.12-52.5H98.86z"/>
<path class="Colour2 fill" d="M241.03,607.03h112.48c12.49-7.09,21.67-8.13,21.33-8.01c-0.41-0.51-0.89-1.08-1.41-1.66h0.19
	c0,0,0-12.8-0.21-32.09H104.15c-0.17,16.12-0.2,27.72-0.21,31.08c-0.92,0.96,0.82,1.87,0.18,2.67c0,0,7.43,0.97,19.13,8.01h114.02
	H241.03z"/>
<path class="Colour2 fill" d="M108.18,439.31c-1.04,15.38-1.83,32.76-2.42,50.24h266.05c-0.59-17.48-1.38-34.86-2.43-50.24
	c-0.05-0.74-0.09-1.5-0.14-2.26H108.32C108.27,437.81,108.23,438.57,108.18,439.31z"/>
<path class="Colour2 fill" d="M106.49,372.46h264.58c0.29-3.63,0.61-7.28,0.94-10.92H105.55C105.88,365.18,106.2,368.83,106.49,372.46z"
	/>
<path class="Colour2 fill" d="M92.31,168.17c1.68,14.65,2.8,32.02,2.94,52.5h289c0.14-20.47,1.25-37.86,2.93-52.5H92.31z"/>
<path class="st3" d="M400.17,268.38c0,0,27.23-2.53,42.89-17.64c15.65-15.12,37.22-17.1,37.22-17.1"/>
<g id="BBodyLogos"></g>
</svg>
