<?xml version="1.0" encoding="utf-8"?>
<!-- Generator: Adobe Illustrator 19.1.0, SVG Export Plug-In . SVG Version: 6.00 Build 0)  -->
<svg version="1.1" id="Layer_1" xmlns="http://www.w3.org/2000/svg" xmlns:xlink="http://www.w3.org/1999/xlink" x="0px" y="0px"
	 viewBox="0 0 483.01 645.44" style="enable-background:new 0 0 483.01 645.44;" xml:space="preserve">
<style type="text/css">
	<![CDATA[
	@font-face{font-family:'codaheavy';src:url('/fonts/coda-heavy-webfont.woff') format('woff')}
	text{font-family:Impact,codaheavy,sans-serif}
	.Colour1.fill{fill:#31734C;}
	.Colour2.fill{fill:#FCC731;}
	.Colour3.fill{fill:#FFFFFF;}
	.Colour4.fill{fill:#DCE294;}
	.Insert.fill{fill:#000000}
	.ArmTrim.fill{fill:#4F9F6D;}
	.NeckTrim.fill{fill:#FCC731;}
	.BottomHem.fill{fill:#FCC731;stroke:#101010;stroke-width:0.8861;stroke-miterlimit:10;}
	.st0{fill:none;stroke:#000000;stroke-width:2;stroke-linecap:round;stroke-linejoin:round;}
	.st1{fill:none;stroke:#0A0505;stroke-width:0.6559;stroke-miterlimit:10;}
	.st2{fill:none;stroke:#FFFFFF;stroke-width:0.216;stroke-dasharray:2.4,2.4,2.4,2.4;}
	.st3{fill:#9C2321;stroke:#000000;stroke-width:2;stroke-miterlimit:10;}
	.st4{fill:none;stroke:#221915;stroke-width:0.216;stroke-linecap:round;stroke-linejoin:round;}
	.st5{fill:none;stroke:#FFFFFF;stroke-width:0.328;}
	.st6{fill:none;stroke:#060606;stroke-width:0.216;stroke-dasharray:2.4,2.4,2.4,2.4;}
	.st7{fill:none;stroke:#101010;stroke-width:0.216;stroke-dasharray:2.4,2.4,2.4,2.4;}
	.st8{fill:#FFFFFF;}
	.st9{fill:none;stroke:#221915;stroke-width:0.233;stroke-miterlimit:10;}
	.st10{fill:none;stroke:#221915;stroke-width:0.36;stroke-miterlimit:10;}
	.st11{fill:#222457;}
	.st12{fill:#101010;}
	.st13{fill:none;stroke:#0A0505;stroke-width:0.233;stroke-miterlimit:10;}
	.st14{fill:none;}
	.st15{fill:#9E802E;}
	.st16{fill:none;stroke:#000000;stroke-width:0.4411;}
	.st17{fill:#1751A0;stroke:#000000;stroke-width:3;stroke-miterlimit:10;}
	.st18{fill:url(#SVGID_1_);}
	.st19{fill:#31734C;}
	.white{fill:#ffffff;}
	]]>
</style>
<path class="Colour1 fill" d="M468.34,170.71c-1.06-12.37-9.65-58.76-27.73-86.6c0,0-13.66-16.49-46.85-24.74
	c-33.19-8.25-82.96-28.87-92.53-36.08l-57.98-7h-3.71l-57.98,7c-9.57,7.22-59.34,27.83-92.53,36.08
	c-33.19,8.25-46.85,24.74-46.85,24.74c-18.08,27.83-26.66,74.23-27.73,86.6c-1.06,12.37-13.7,82.47-13.7,82.47
	s21.8,2.06,37.62,17.76c15.83,15.7,43.36,18.32,43.36,18.32l11.6-62.89c0,0,21.22,131.96,16.97,197.94
	c-4.26,65.98-4.26,167-4.26,167h133.49h3.71h133.49c0,0,0-101.03-4.25-167c-4.25-65.98,16.97-197.94,16.97-197.94l11.6,62.89
	c0,0,27.53-2.62,43.36-18.32c15.82-15.7,37.62-17.76,37.62-17.76S469.4,183.08,468.34,170.71"/>
<path class="st0" d="M-0.07,253.18c0,0,21.8,2.06,37.62,17.76c15.83,15.7,43.36,18.32,43.36,18.32l11.6-62.89
	c0,0,21.22,131.96,16.97,197.94c-4.26,65.98-4.26,167-4.26,167h133.49h3.71h133.49c0,0,0-101.03-4.25-167
	c-4.25-65.98,16.97-197.94,16.97-197.94l11.6,62.89c0,0,27.53-2.62,43.36-18.32c15.82-15.7,37.62-17.76,37.62-17.76
	s-12.64-70.1-13.7-82.47c-1.06-12.37-9.65-58.76-27.73-86.6c0,0-13.66-16.49-46.85-24.74c-33.19-8.25-82.96-28.87-92.53-36.08
	l-57.98-7h-3.71l-57.98,7c-9.57,7.22-59.34,27.83-92.53,36.08c-33.19,8.25-46.85,24.74-46.85,24.74
	c-18.08,27.83-26.66,74.23-27.73,86.6C12.57,183.08-0.07,253.18-0.07,253.18z"/>
<path class="Colour1 fill" d="M412.57,65.26c0,0-22.52,31.16-22.33,135.34l-0.94,26.74"/>
<path class="Colour1 fill" d="M92.93,225.68l0.4-25.08C93.5,104.56,74.38,70.58,71.39,65.85"/>
<path class="Colour1 fill" d="M81.73,289.26l11.6-62.89c0,0,6.24-103.15-20.81-158.58l-1.59-2.48c-20.15,8.41-28.76,18.8-28.76,18.8
	c-18.08,27.83-26.66,74.23-27.73,86.6c-1.06,12.37-13.7,82.47-13.7,82.47s21.8,2.06,37.62,17.76
	C54.2,286.63,81.73,289.26,81.73,289.26z"/>
<path class="Colour1 fill" d="M401.52,289.26l-11.6-62.89c0,0-6.24-103.15,20.81-158.58l1.59-2.48c20.15,8.41,28.76,18.8,28.76,18.8
	c18.08,27.83,26.66,74.23,27.73,86.6c1.06,12.37,13.7,82.47,13.7,82.47s-21.8,2.06-37.62,17.76
	C429.05,286.63,401.52,289.26,401.52,289.26z"/>
<path class="Colour1 fill" d="M135.73,609.18c14.59,11.95,35.68,31.32,104.86,31.32c69.18,0,90.27-19.37,104.86-31.32
	c11.83-9.69,22.47-13.7,28.09-15.24c1.95-0.53,2.59-2.93,1.2-4.39c-2.21-2.33-5.2-4.93-9.13-7.4c-7.03-4.44-10.59-8.63-38-11.19
	c-6-0.56-13.18-1.04-21.75-1.43c-15.61-0.71-38.43-0.88-65.26-0.88c-26.84,0-49.66,0.18-65.27,0.88
	c-8.58,0.39-15.75,0.86-21.75,1.43c-27.41,2.55-30.97,6.75-38,11.19c-3.94,2.48-6.93,5.09-9.15,7.42c-1.39,1.46-0.74,3.87,1.21,4.39
	C113.21,595.46,123.76,599.37,135.73,609.18"/>
<path class="st1" d="M135.73,609.18c14.59,11.95,35.68,31.32,104.86,31.32c69.18,0,90.27-19.37,104.86-31.32
	c11.51-9.43,21.89-13.48,27.62-15.11c2.15-0.61,2.9-3.27,1.34-4.87c-2.18-2.24-5.06-4.7-8.8-7.06c-7.03-4.44-10.59-8.63-38-11.19
	c-6-0.56-13.18-1.04-21.75-1.43c-15.61-0.71-38.43-0.88-65.26-0.88c-26.84,0-49.66,0.18-65.27,0.88
	c-8.58,0.39-15.75,0.86-21.75,1.43c-27.41,2.55-30.97,6.75-38,11.19c-3.74,2.36-6.63,4.83-8.81,7.07c-1.56,1.6-0.82,4.27,1.34,4.87
	C113.78,595.68,124.08,599.64,135.73,609.18z"/>
<path class="st2" d="M377.71,587.83c-2.21-2.95-6.02-7.09-12.12-10.92c-7.04-4.44-10.59-8.63-38-11.19
	c-6.01-0.56-13.18-1.04-21.76-1.43c-15.61-0.71-38.44-0.89-65.26-0.89c-26.84,0-49.66,0.18-65.27,0.89
	c-8.58,0.38-15.75,0.86-21.75,1.43c-27.41,2.56-30.97,6.75-38,11.19c-6.09,3.84-9.91,7.98-12.12,10.92"/>
<path class="st2" d="M377.71,584.34c-2.21-2.95-6.02-7.09-12.12-10.92c-7.04-4.44-10.59-8.63-38-11.19
	c-6.01-0.56-13.18-1.04-21.76-1.43c-15.61-0.71-38.44-0.89-65.26-0.89c-26.84,0-49.66,0.18-65.27,0.89
	c-8.58,0.38-15.75,0.86-21.75,1.43c-27.41,2.56-30.97,6.75-38,11.19c-6.09,3.84-9.91,7.98-12.12,10.92"/>
<path class="BottomHem fill" d="M245.76,643.72c-23,0-44.84-2.3-47.48-2.59c-24.78-1.1-61.3-29.53-62.85-30.74l-0.4-0.35
	c-4.34-4.14-19.57-11.73-28.15-15.55l-1.53-2.25l0.94-10.18l5.05,2.25c2.43,1.08,23.71,10.66,31.06,17.44
	c9.98,7.78,39,27.59,56.51,28.27l0.39,0.03c0.56,0.06,56.45,6.14,83.42-0.76l0.78-0.14c0.24-0.03,24.44-2.86,47.65-21.29
	c2.48-2.45,21.79-21.1,38.33-23.95l5.44-0.94l1.86,10.97l-5.44,0.93c-11.54,1.98-27.46,15.9-32.62,21.09l-0.47,0.42
	c-24.45,19.53-49.49,23.31-53.17,23.77C274.28,642.86,259.81,643.72,245.76,643.72 M375.64,579.69l-10.38-9.28
	c-10.38-9.28-53.99-10.82-53.99-10.82H169.9c0,0-43.61,1.55-53.99,10.82l-10.38,9.28l-1.38,13.38c0,0,16.44-15.96,22.67-16.99
	c3.09-0.51,14.12-3.72,24.44-4.75c10.47-1.04,20.21-1.95,20.21-1.95h138.26c0,0,9.74,0.91,20.21,1.95
	c10.32,1.03,21.35,4.23,24.44,4.75c6.23,1.03,22.67,16.99,22.67,16.99L375.64,579.69z"/>
<path class="Colour1 fill" d="M468.1,170.71c-1.06-12.37-9.65-58.76-27.73-86.6c0,0-8.46-10.2-28.22-18.57
	c-2.13,3.23-22.32,36.39-22.15,135.07l-0.94,26.74c0.1-0.63,0.15-0.96,0.15-0.96l11.6,62.89c0,0,27.53-2.62,43.36-18.32
	c15.82-15.7,37.62-17.76,37.62-17.76S469.16,183.08,468.1,170.71z"/>
<path class="Colour1 fill" d="M70.77,65.28c0.49,0.7,22.5,32.31,22.32,135.32l-0.4,25.08l0.01,2.76l0.38-2.08l-11.6,62.89
	c0,0-27.53-2.62-43.36-18.32C22.3,255.24,0.5,253.18,0.5,253.18s12.64-70.1,13.7-82.47c1.07-12.37,9.65-58.76,27.73-86.6
	c0,0,8.58-10.35,28.66-18.75L70.77,65.28z"/>
<polygon class="st3" points="2.48,242.89 81.8,279.29 79.77,286.79 0.5,261.45 "/>
<path class="st4" d="M321.51,62.03"/>
<path class="st4" d="M317.37,58.05"/>
<path class="st4" d="M309.28,62.32"/>
<line class="st5" x1="185.51" y1="57.37" x2="81.14" y2="95.22"/>
<line class="st2" x1="180.12" y1="56.67" x2="81.14" y2="91.73"/>
<line class="st2" x1="181.11" y1="57.95" x2="81.14" y2="93.76"/>
<line class="st5" x1="297.79" y1="57.37" x2="402.16" y2="95.22"/>
<line class="st2" x1="303.18" y1="56.67" x2="402.16" y2="91.73"/>
<line class="st2" x1="303.18" y1="58.42" x2="402.16" y2="93.47"/>
<path class="st6" d="M312.69,567.73l9.77-185.56c0,0,4.06-25.16,13.93-47.33c16.64-40.34,49.87-120.86,55.39-134.26"/>
<path class="st6" d="M314.45,567.73l9.77-185.56c0,0,4.06-25.16,13.93-47.33c16.64-40.34,49.87-120.86,55.39-134.26"/>
<path class="st6" d="M91.59,200.57c5.52,13.4,38.75,93.93,55.39,134.26c9.86,22.17,13.93,47.33,13.93,47.33l9.77,185.56"/>
<path class="st6" d="M168.92,567.73l-9.77-185.56c0,0-4.06-25.16-13.93-47.33c-16.64-40.34-49.87-120.86-55.39-134.26"/>
<path class="st7" d="M74.28,65.26c0,0,22.51,31.16,22.33,135.34"/>
<path class="st4" d="M277.94,56.76"/>
<path class="st4" d="M269.83,61.05"/>
<path class="st8" d="M180.34,38.05c20.56-22.33,96.98-26.13,121.45-1.7l-6.29-13.38c-22-7.01-37.69-11.63-53.37-11.66
	c-15.68-0.03-31.36,4.52-53.37,11.53L180.34,38.05z"/>
<path class="st9" d="M180.34,38.05c20.56-22.33,96.98-26.13,121.45-1.7l-6.29-13.38c-22-7.01-37.69-11.63-53.37-11.66
	c-15.68-0.03-31.36,4.52-53.37,11.53L180.34,38.05z"/>
<path class="white" d="M192.54,21.39c10.93-3.81,27.89-8.29,48.97-8.29c21.07,0,38.02,4.48,48.95,8.29c0.37,7.1-0.26,17.42-6.41,26.59
	c-3.21,4.78-5.79,7.47-12.6,12.68c-8.34,6.38-17.75,14.74-20.48,22.2c-6.3,0-12.6,0-18.91,0c-2.9-7.21-7.2-11.02-10.03-13.69
	c-3.75-3.53-4.84-4.11-12.02-10.09c-4.66-3.88-7.08-5.92-9.45-9.51c-2.39-3.61-3.38-6.72-4.73-11.1
	C194.58,34.46,193.15,28.66,192.54,21.39z"/>
<path class="st4" d="M265.78,57.16"/>
<path class="st4" d="M257.89,61.33"/>
<path class="NeckTrim fill" d="M284.94,7.64c-31.47-8-56.84-7.65-89.37,1.13l4.14,10.16c12.23-4.56,27.01-5.55,41.89-5.55
	c14.08,0,28.23,0.75,40.38,4.47L284.94,7.64z"/>
<path class="st10" d="M284.94,7.64c-31.47-8-56.84-7.65-89.37,1.13l4.14,10.16c12.23-4.56,27.01-5.55,41.89-5.55
	c14.08,0,28.23,0.75,40.38,4.47L284.94,7.64z"/>
<path class="NeckTrim fill" d="M190.62,10.24l16.1-4.49l2.57,10.97l-19.42,5.27C189.86,21.98,188.61,17.23,190.62,10.24"/>
<path class="st10" d="M190.62,10.24l16.1-4.49l2.57,10.97l-19.42,5.27C189.86,21.98,188.61,17.23,190.62,10.24z"/>
<path class="NeckTrim fill" d="M293.7,10.24l-16.1-4.49l-2.57,10.97l19.42,5.27C294.46,21.98,295.72,17.23,293.7,10.24"/>
<path class="st10" d="M293.7,10.24l-16.1-4.49l-2.57,10.97l19.42,5.27C294.46,21.98,295.72,17.23,293.7,10.24z"/>
<path class="st12" d="M176.37,27.67l-10.62,5.17c0,0-3.1,13.97,12.5,28.83l8.94-3.39C187.2,58.28,176.6,48.19,176.37,27.67"/>
<path class="st12" d="M308.53,27.67l8.92,5.17c0,0,2.41,13.97-13.2,28.83l-4.84-3.39C299.41,58.28,308.31,48.19,308.53,27.67"/>
<path class="NeckTrim fill" d="M294.56,11.62l14.67,17.24c0,0,1.2,25.32-15.6,36.94c-4.52,3.12-16.71,11.04-21.6,13.99
	c-13.31,8.01-18.66,9.71-18.66,9.71s0.17-10.37,3.87-12.57c0,0,26.2-22.15,28.3-25.13C287.63,48.81,295.79,26.25,294.56,11.62"/>
<path class="st13" d="M294.56,11.62l14.67,17.24c0,0,1.2,25.32-15.6,36.94c-4.52,3.12-16.71,11.04-21.6,13.99
	c-13.31,8.01-18.66,9.71-18.66,9.71s0.17-10.37,3.87-12.57c0,0,26.2-22.15,28.3-25.13C287.63,48.81,295.79,26.25,294.56,11.62z"/>
<path class="NeckTrim fill" d="M188.56,11.62l-14.67,17.24c0,0-1.2,25.32,15.6,36.94c4.52,3.12,16.71,11.04,21.6,13.99
	c13.31,8.01,18.66,9.71,18.66,9.71s-0.17-10.37-3.87-12.57c0,0-26.2-22.15-28.3-25.13C195.49,48.81,187.33,26.25,188.56,11.62"/>
<path class="st13" d="M188.56,11.62l-14.67,17.24c0,0-1.2,25.32,15.6,36.94c4.52,3.12,16.71,11.04,21.6,13.99
	c13.31,8.01,18.66,9.71,18.66,9.71s-0.17-10.37-3.87-12.57c0,0-26.2-22.15-28.3-25.13C195.49,48.81,187.33,26.25,188.56,11.62z"/>
<path class="Insert fill" d="M229.75,81.83h23.1l-3.6,8.64c0,0-5.9,2.08-14.8,0L229.75,81.83z"/>
<path class="st14" d="M230.34,81.28h23.1l-3.6,8.64c0,0-5.9,2.08-14.8,0L230.34,81.28z"/>
<path class="st2" d="M165.14,33.14c1.08,17.69,13.11,30.02,13.11,30.02c21.43,21.07,46.7,31.22,46.7,31.22s8.76,1.78,14.1,1.78h4.18
	c5.33,0,14.1-1.78,14.1-1.78s25.27-10.15,46.7-31.22c0,0,12.04-12.33,13.11-30.02"/>
<path class="st2" d="M169.46,30.94c-1.5,11.32,10.18,28.68,10.18,28.68c21.44,21.07,46.82,31.49,46.82,31.49s8.27,2.28,13.6,2.28
	h2.17c5.33,0,13.61-2.28,13.61-2.28s25.38-10.42,46.82-31.49c0,0,11.68-17.36,10.18-28.68"/>
<path class="st15" d="M253.36,89.49c0.02-0.06,1.78-3.95,3.81-9.14c1.21-3.09,8.42-8.94,15.39-14.6c3.56-2.89,7.25-5.88,10.67-8.91
	c16.31-14.4,14.67-36.71,12.81-44.03c-0.8-3.15-7.05-5.72-18.58-7.64l-0.68,2.98c6.71,1.12,13.45,3.1,14.75,4.32
	c0.52,3.84-1.93,32.37-11.5,40.81c-3.35,2.96-6.99,5.92-10.52,8.78c-9.39,7.63-15.23,12.5-16.82,16.56
	c-2.12,5.41-3.89,11.7-3.96,11.97L253.36,89.49z"/>
<path class="NeckTrim fill" d="M253.36,89.49c0.02-0.06,1.78-3.95,3.81-9.14c1.21-3.09,8.42-8.94,15.39-14.6
	c3.56-2.89,7.25-5.88,10.67-8.91c16.31-14.4,14.67-36.71,12.81-44.03c-0.8-3.15-7.05-5.72-18.58-7.64l-0.68,2.98
	c6.71,1.12,13.45,3.1,14.75,4.32c0.52,3.84-1.93,32.37-11.5,40.81c-3.35,2.96-6.99,5.92-10.52,8.78
	c-9.39,7.63-15.23,12.5-16.82,16.56c-2.12,5.41-3.89,11.7-3.96,11.97L253.36,89.49z"/>
<path class="st8" d="M230.41,89.49c-0.02-0.06-1.78-3.95-3.81-9.14c-1.21-3.09-8.42-8.94-15.39-14.6
	c-3.56-2.89-7.25-5.88-10.67-8.91c-7.55-6.66-12.7-44.44-12.81-44.03c0.8-3.15,7.05-5.72,18.58-7.64l0.68,2.98
	c-6.71,1.12-13.45,3.1-14.75,4.32c-0.52,3.84,1.93,32.37,11.5,40.81c3.35,2.96,6.99,5.92,10.52,8.78
	c9.39,7.63,15.23,12.5,16.82,16.56c2.12,5.41,3.89,11.7,3.96,11.97L230.41,89.49z"/>
<path class="NeckTrim fill" d="M230.41,89.49c-0.02-0.06-1.78-3.95-3.81-9.14c-1.21-3.09-8.42-8.94-15.39-14.6
	c-3.56-2.89-7.25-5.88-10.67-8.91c-7.55-6.66-12.7-44.44-12.81-44.03c0.8-3.15,7.05-5.72,18.58-7.64l0.68,2.98
	c-6.71,1.12-13.45,3.1-14.75,4.32c-0.52,3.84,1.93,32.37,11.5,40.81c3.35,2.96,6.99,5.92,10.52,8.78
	c9.39,7.63,15.23,12.5,16.82,16.56c2.12,5.41,3.89,11.7,3.96,11.97L230.41,89.49z"/>
<path class="st16" d="M412.33,65.26c0,0-22.52,31.16-22.33,135.34l-0.94,26.74"/>
<path class="st8" d="M389.21,226.37L389.21,226.37c0,0-0.04,0.23-0.1,0.65C389.17,226.61,389.21,226.37,389.21,226.37z"/>
<polygon class="st17" points="480.26,244.64 400.94,279.28 402.97,286.79 482.24,263.2 "/>
<polygon class="st17" points="2.48,242.89 81.8,279.29 79.77,286.79 0.5,261.45 "/>
<path class="st2" d="M399.93,284.89c0,0,27.53-2.62,43.36-18.32c15.82-15.7,37.62-17.76,37.62-17.76"/>
<path class="st2" d="M399.93,283.14c0,0,27.53-2.62,43.36-18.32c15.82-15.7,37.62-17.76,37.62-17.76"/>
<path class="st2" d="M82.25,285.47c0,0-27.53-2.62-43.36-18.32c-15.82-15.7-37.62-17.76-37.62-17.76"/>
<path class="st2" d="M82.25,283.72c0,0-27.53-2.62-43.36-18.32c-15.82-15.7-37.62-17.76-37.62-17.76"/>
<g>
	<path class="st8" d="M389.21,226.37L389.21,226.37c0,0-0.04,0.23-0.1,0.65C389.17,226.61,389.21,226.37,389.21,226.37z"/>
</g>
<linearGradient id="SVGID_1_" gradientUnits="userSpaceOnUse" x1="242.0839" y1="207.5366" x2="242.0839" y2="44.1274">
	<stop class="Gradient1 stopColor" offset="0" style="stop-color:#DCE294"/>
	<stop class="Gradient2 stopColor" offset="0.6417" style="stop-color:#6CA274;stop-opacity:0.5"/>
	<stop class="Gradient1 stopColor" offset="1" style="stop-color:#DCE294"/>
</linearGradient>
<path class="Colour4 fill" d="M179.1,228.37h123.5l87.87-53.89l1.05-18.98l-10.67-60.28l-62.64-5.73c0,0-22.18-18.69-27.7-21.58
	c0,0-32.29,23.77-48.16,23.49c-15.88-0.29-29.59-11.36-50.83-23.49l-51.1,14.53l-29.07,43.96l-18.67,48.97L179.1,228.37z"/>
<path class="Colour2 fill" d="M395.52,120.4c5.9-36.59,14.66-51.78,16.48-54.62l0.15-0.24c-3.21-1.36-6.75-2.66-10.56-3.87l-160.73,98.57
	L80.32,61.79c-3.42,1.1-6.62,2.27-9.55,3.49c0.33,0.47,10.46,15.02,16.96,56.07l153.12,93.91L395.52,120.4z"/>
<path class="Colour3 fill" d="M83.97,63.78l156.88,96.21l157.06-96.32c-1.43-0.41-2.88-0.81-4.39-1.18c-5.07-1.26-10.52-2.81-16.16-4.55
	l-136.51,83.72L104.54,58.06c-5.49,1.69-10.81,3.2-15.75,4.43C87.13,62.9,85.52,63.33,83.97,63.78z"/>
<path class="Colour3 fill" d="M209,228.37L91.64,156.4c0.43,5.96,0.77,12.28,1.02,18.96l86.44,53.01H209z"/>
<path class="Colour3 fill" d="M272.69,228.37h29.91l87.87-53.89c0.26-6.69,0.61-13.02,1.05-18.98L272.69,228.37z"/>
<path class="Colour1 fill" d="M290.49,67.91c0,0,101.88,61.63,127.02,204.14l62.75-27.41l-12.17-73.94c0,0-6.97-59.18-27.73-86.6
	c0,0-12.67-14.94-36.28-21.64c0,0-70.73-18.8-94.85-33.61C309.23,28.86,311.37,54.61,290.49,67.91z"/>
<path class="Colour1 fill" d="M191.5,67.91c0,0-101.88,61.63-127.02,204.14L1.73,244.64l12.17-73.94c0,0,6.97-59.18,27.73-86.6
	c0,0,12.67-14.94,36.28-21.64c0,0,70.73-18.8,94.85-33.61C172.76,28.86,170.62,54.61,191.5,67.91z"/>
<polygon class="Colour2 fill" points="93.07,195.05 15.48,159.99 10.63,190.54 92.69,225.68 "/>
<polygon class="Colour3 fill" points="10.63,190.54 8.13,205.72 90.04,242.89 92.69,225.68 "/>
<polygon class="ArmTrim fill" points="8.13,205.72 0.5,261.45 79.77,286.79 90.04,242.89 "/>
<polygon class="Colour2 fill" points="389.14,195.05 466.74,159.99 471.58,190.54 389.52,225.68 "/>
<polygon class="Colour3 fill" points="471.58,190.54 474.08,205.72 392.17,242.89 389.52,225.68 "/>
<polygon class="ArmTrim fill" points="474.08,205.72 481.71,261.45 402.44,286.79 392.17,242.89 "/>
<g id="FBodyLogos"></g>
</svg>
