<?xml version="1.0" encoding="utf-8"?>
<!-- Generator: Adobe Illustrator 19.1.0, SVG Export Plug-In . SVG Version: 6.00 Build 0)  -->
<svg version="1.1" id="Layer_1" xmlns="http://www.w3.org/2000/svg" xmlns:xlink="http://www.w3.org/1999/xlink" x="0px" y="0px"
	 viewBox="0 0 483.01 645.44" style="enable-background:new 0 0 483.01 645.44;" xml:space="preserve">
<style type="text/css">
	<![CDATA[
	@font-face{font-family:'codaheavy';src:url('/fonts/coda-heavy-webfont.woff') format('woff')}
	text{font-family:Impact,codaheavy,sans-serif}
	.Colour1.fill{fill:#101010;}
	.Colour2.fill{fill:#9E802E;}
	.Colour3.fill{fill:#FFFFFF;}
	.NeckTrim.fill{fill:#9E802E;}
	.Insert.fill{fill:#101010;}
	.ArmTrim.fill{fill:#101010;}
	.BottomHem.fill{fill:#101010;stroke:#221915;stroke-width:0.8861;stroke-miterlimit:10;}
	.st0{fill:#FFFFFF;}
	.st1{fill:none;stroke:#000000;stroke-width:2;stroke-linecap:round;stroke-linejoin:round;}
	.st2{fill:#9C2321;stroke:#000000;stroke-width:2;stroke-miterlimit:10;}
	.st3{fill:none;stroke:#221915;stroke-width:0.216;stroke-linecap:round;stroke-linejoin:round;}
	.st4{fill:none;stroke:#0A0505;stroke-width:0.6559;stroke-miterlimit:10;}
	.st5{fill:none;stroke:#101010;stroke-width:0.328;}
	.st6{fill:none;stroke:#101010;stroke-width:0.216;stroke-dasharray:2.4,2.4,2.4,2.4;}
	.st7{fill:none;stroke:#FFFFFF;stroke-width:0.216;stroke-dasharray:2.4,2.4,2.4,2.4;}
	.st8{fill:none;stroke:#221915;stroke-width:0.233;stroke-miterlimit:10;}
	.st9{fill:none;stroke:#221915;stroke-width:0.36;stroke-miterlimit:10;}
	.st10{fill:none;stroke:#0A0505;stroke-width:0.233;stroke-miterlimit:10;}
	.st11{fill:none;}
	.st12{fill:none;stroke:#0A0505;stroke-width:0.2801;}
	.st13{fill:none;stroke:#000000;stroke-width:0.4411;}
	.st14{fill:#FFFFFF;stroke:#000000;stroke-width:2;stroke-miterlimit:10;}
	.st15{fill:none;stroke:#101010;stroke-width:0.886;stroke-linecap:round;stroke-linejoin:round;}
	.st16{fill:url(#SVGID_1_);}
	.st17{fill:url(#SVGID_2_);}
	.st18{fill:url(#SVGID_3_);}
	.st19{fill:url(#SVGID_4_);}
	.white{fill:#ffffff;}
	]]>
</style>
<path class="st0" d="M467.39,169.85c-1.06-12.31-9.61-58.47-27.62-86.16c0,0-13.6-16.41-46.65-24.62
	c-33.06-8.21-82.62-28.72-92.15-35.9l-57.74-6.96h-3.7l-57.74,6.96c-9.53,7.18-59.09,27.69-92.15,35.9C56.6,67.28,43,83.69,43,83.69
	C25,111.38,16.45,157.54,15.39,169.85C14.33,182.16,1.74,251.9,1.74,251.9s21.71,2.05,37.47,17.67
	c15.76,15.62,43.18,18.23,43.18,18.23l11.55-62.57c0,0,21.13,131.29,16.9,196.93c-4.24,65.64-4.24,166.16-4.24,166.16h132.94h3.7
	h132.94c0,0,0-100.51-4.24-166.16c-4.23-65.65,16.9-196.93,16.9-196.93l11.55,62.57c0,0,27.42-2.61,43.18-18.23
	c15.76-15.62,37.47-17.67,37.47-17.67S468.45,182.16,467.39,169.85"/>
<path class="st0" d="M411.86,64.94c0,0-22.42,31-22.24,134.65l-0.94,26.6"/>
<path class="st0" d="M93.55,224.55l0.39-24.95c0.17-95.55-18.87-129.36-21.85-134.06"/>
<path class="Colour3 fill" d="M82.39,287.8l11.55-62.57c0,0,6.21-102.62-20.72-157.77l-1.58-2.47C51.58,73.36,43,83.69,43,83.69
	C25,111.38,16.45,157.54,15.39,169.85C14.33,182.16,1.74,251.9,1.74,251.9s21.71,2.05,37.47,17.67
	C54.97,285.19,82.39,287.8,82.39,287.8z"/>
<path class="Colour3 fill" d="M400.86,287.8l-11.55-62.57c0,0-6.21-102.62,20.72-157.77l1.58-2.47c20.06,8.37,28.64,18.7,28.64,18.7
	c18.01,27.69,26.55,73.85,27.62,86.16c1.06,12.31,13.64,82.05,13.64,82.05s-21.71,2.05-37.47,17.67
	C428.27,285.19,400.86,287.8,400.86,287.8z"/>
<path class="Colour3 fill" d="M411.28,65.45c-2.8,4.37-22.07,38.01-21.9,134.14l-0.94,26.6c0-0.02,0-0.03,0.01-0.04
	c-1.85,11.71-20.78,133.56-16.75,196.02c4.24,65.64,4.24,166.16,4.24,166.16H243h-3.7H106.36c0,0,0-100.51,4.24-166.16
	c4.23-65.65-16.9-196.93-16.9-196.93l-0.38,2.06l-0.01-2.75l0.39-24.95C93.88,97.11,71.97,65.65,71.48,64.96
	c5.2-2.16,11.15-4.2,17.94-5.88c33.06-8.21,82.62-28.72,92.15-35.9l57.74-6.96h3.7l57.74,6.96c9.53,7.18,59.09,27.69,92.15,35.9
	c7.05,1.75,13.21,3.88,18.54,6.13L411.28,65.45z"/>
<path class="st0" d="M388.6,225.23L388.6,225.23c0,0-0.04,0.23-0.1,0.65C388.56,225.47,388.6,225.23,388.6,225.23z"/>
<g>
	<path class="st1" d="M71.21,65.04c0.04-0.02,0.07-0.03,0.11-0.05l1.58,2.47c26.93,55.15,20.72,157.77,20.72,157.77l-0.13,0.7"/>
	<path class="st1" d="M71.21,65.04C51.23,73.4,42.68,83.69,42.68,83.69c-18.01,27.69-26.55,73.85-27.62,86.16
		C14.01,182.16,1.42,251.9,1.42,251.9s21.71,2.05,37.47,17.67c15.76,15.62,43.18,18.23,43.18,18.23l11.43-61.87"/>
	<path class="st1" d="M399.75,94.76c-11.67,42.92-11.79,96.47-11.2,119.31"/>
	<path class="st1" d="M399.75,94.76c2.52-9.27,5.58-18.03,9.28-25.89"/>
	<path class="st1" d="M410.43,66.32l0.85-1.33c20.06,8.37,28.64,18.7,28.64,18.7c18.01,27.69,26.55,73.85,27.62,86.16
		c1.06,12.31,13.64,82.05,13.64,82.05s-21.71,2.05-37.47,17.67c-15.76,15.62-43.18,18.23-43.18,18.23l-11.55-62.57
		c0,0-0.25-4.13-0.43-11.17"/>
	<path class="st1" d="M410.43,66.32l-0.73,1.14c-0.23,0.46-0.44,0.94-0.67,1.41"/>
	<path class="st1" d="M410.43,66.32c0.21-0.36,0.39-0.65,0.53-0.87l0.14-0.24c-5.33-2.26-11.49-4.38-18.54-6.13
		c-33.06-8.21-82.62-28.72-92.15-35.9l-57.74-6.96h-3.7l-57.74,6.96c-9.53,7.18-59.09,27.69-92.15,35.9
		c-6.79,1.69-12.74,3.72-17.94,5.88c0.01,0.01,0.03,0.04,0.05,0.08"/>
	<path class="st1" d="M410.43,66.32c-0.37,0.62-0.84,1.47-1.39,2.55"/>
	<path class="st1" d="M399.75,94.76c3.5-13.35,7.06-21.55,9.28-25.89"/>
	<path class="st1" d="M399.75,94.76c-5.46,20.81-10.78,54.12-10.69,104.84l-0.51,14.48"/>
	<path class="st1" d="M71.21,65.04c1.27,1.85,22.35,34.04,22.17,134.56l-0.39,24.95L93,227.3l0.38-2.06c0,0,0.04,0.25,0.11,0.7"/>
	<path class="st1" d="M388.55,214.07l-0.43,12.13c0-0.02,0-0.03,0.01-0.04c-1.85,11.71-20.78,133.56-16.75,196.02
		c4.24,65.64,4.24,166.16,4.24,166.16H242.68h-3.7H106.04c0,0,0-100.51,4.24-166.16c4.06-62.89-15.17-186.02-16.79-196.24"/>
	<path class="st1" d="M388.23,225.53c0.03-0.18,0.05-0.29,0.05-0.29v0C388.28,225.23,388.26,225.34,388.23,225.53"/>
	<path class="st1" d="M388.23,225.53c-0.02,0.1-0.03,0.21-0.06,0.35C388.2,225.74,388.21,225.62,388.23,225.53"/>
</g>
<path class="Colour1 fill" d="M388.74,95.89l-41.07,26.12l50.1-49.94l-27.44,14.16c0,0-32.37-20.12-67.98-35.28
	c-2.92,2.01-1.75,6.2-5.34,7.97c-10.55,10.76-27.65,19.81-55.35,19.86l-0.21,0c-27.82,0-44.99-9.07-55.56-19.86
	c-3.59-1.76-3.26-5.2-6.18-7.2c-35.61,15.16-67.14,34.52-67.14,34.52L85.14,72.07l50.1,49.94L94.17,95.89l79.31,129.25l-83.33-91.61
	c1.29,10.59,2.33,22.63,2.94,36.28c0.05,0.25,0.11,0.5,0.16,0.75l84.95,88.34l-84.52-66.31c0.02,2.3,0.03,4.63,0.03,7l-0.14,8.92
	l43.8,34.19l46.18,319.5c16.2,1.44,35.34,2.69,57.91,3.58c22.58-0.88,41.71-2.13,57.92-3.58l46.18-319.5l43.51-33.64l0.33-9.46
	c0-2.32,0.01-4.58,0.02-6.83l-84.7,66.14l84.95-88.34c0.12-0.63,0.26-1.23,0.39-1.86c0.62-13.29,1.64-25.05,2.92-35.4l-83.54,91.84
	L388.74,95.89z"/>
<polygon class="Colour3 fill" points="324.97,312.05 312.44,319.52 295.98,394.97 277.92,400.74 259.75,464.7 282.26,403.71 
	300.05,398.26 316.42,322.35 323.81,318.51 "/>
<polygon class="Colour3 fill" points="157.94,312.05 170.47,319.52 186.93,394.97 204.99,400.74 223.16,464.7 200.65,403.71 
	182.86,398.26 166.48,322.35 159.09,318.51 "/>
<path class="Colour2 fill" d="M336.61,239.75l-28.59,28.63l-56.65,185.63l51.22-189.45L336.61,239.75z M146.3,239.75l28.59,28.63
	l56.65,185.63l-51.22-189.45L146.3,239.75z M365.9,89.14c0,0-20.8-17.59-63.43-33.16c-2.07,1.22-4.27,2.39-6.62,3.5
	c39.67,13.01,60.31,29.66,60.31,29.66l-28.5,36.02L365.9,89.14z M117,89.14l38.24,36.02l-28.5-36.02c0,0,20.64-16.65,60.31-29.66
	c-2.35-1.11-4.55-2.28-6.62-3.5C137.8,71.55,117,89.14,117,89.14z M341.77,251.76l-6.85,4.47L291.96,560.8l-0.44,2.06
	c2.07-0.17,4.09-0.34,6.07-0.51L341.77,251.76z M147.98,256.23l-6.84-4.47l44.17,310.58c1.98,0.17,4,0.34,6.07,0.51l-0.44-2.06
	L147.98,256.23z M390.51,160.3c0.34-5.43,0.74-10.59,1.21-15.47L283.76,265.34L390.51,160.3z M91.39,145.05
	c0.46,4.88,0.87,10.02,1.2,15.44l106.55,104.85L91.39,145.05z"/>
<polygon class="st2" points="3.47,241.67 82.46,277.88 80.45,285.35 1.5,260.13 "/>
<path class="st3" d="M321.18,61.72"/>
<path class="st3" d="M317.06,57.76"/>
<path class="st3" d="M309,62.01"/>
<path class="Colour3 fill" d="M136.17,606.1c14.53,11.89,35.54,31.16,104.42,31.16c68.89,0,89.89-19.27,104.42-31.16
	c11.78-9.64,22.37-13.63,27.97-15.17c1.94-0.53,2.58-2.92,1.2-4.37c-2.2-2.31-5.18-4.9-9.09-7.37c-7-4.42-10.54-8.59-37.84-11.13
	c-5.98-0.56-13.12-1.04-21.66-1.42c-15.54-0.7-38.27-0.88-64.99-0.88c-26.73,0-49.45,0.17-65,0.88c-8.54,0.38-15.68,0.86-21.66,1.42
	c-27.3,2.54-30.84,6.71-37.84,11.13c-3.92,2.47-6.9,5.06-9.11,7.38c-1.38,1.45-0.74,3.85,1.21,4.37
	C113.74,592.45,124.25,596.34,136.17,606.1"/>
<path class="st4" d="M136.17,606.1c14.53,11.89,35.54,31.16,104.42,31.16c68.89,0,89.89-19.27,104.42-31.16
	c11.46-9.38,21.79-13.41,27.5-15.03c2.15-0.61,2.89-3.25,1.33-4.85c-2.17-2.22-5.04-4.68-8.76-7.02c-7-4.42-10.54-8.59-37.84-11.13
	c-5.98-0.56-13.12-1.04-21.66-1.42c-15.54-0.7-38.27-0.88-64.99-0.88c-26.73,0-49.45,0.17-65,0.88c-8.54,0.38-15.68,0.86-21.66,1.42
	c-27.3,2.54-30.84,6.71-37.84,11.13c-3.73,2.35-6.6,4.81-8.78,7.03c-1.55,1.59-0.82,4.24,1.33,4.85
	C114.31,592.67,124.57,596.61,136.17,606.1z"/>
<line class="st5" x1="185.75" y1="57.09" x2="81.81" y2="94.75"/>
<line class="st6" x1="180.37" y1="56.39" x2="81.81" y2="91.27"/>
<line class="st6" x1="181.36" y1="57.67" x2="81.81" y2="93.3"/>
<line class="st5" x1="297.56" y1="57.09" x2="401.5" y2="94.75"/>
<line class="st6" x1="302.93" y1="56.39" x2="401.5" y2="91.27"/>
<line class="st6" x1="302.93" y1="58.13" x2="401.5" y2="93.01"/>
<path class="st7" d="M312.4,564.86l9.73-184.62c0,0,4.05-25.03,13.87-47.09c16.57-40.13,49.66-120.25,55.16-133.58"/>
<path class="st7" d="M314.15,564.86l9.73-184.62c0,0,4.05-25.03,13.87-47.09c16.57-40.13,49.66-120.25,55.16-133.58"/>
<path class="st7" d="M170.97,564.86l-9.73-184.62c0,0-4.05-25.03-13.87-47.09C130.8,293.02,97.71,212.9,92.21,199.56"/>
<path class="st7" d="M169.22,564.86l-9.73-184.62c0,0-4.05-25.03-13.87-47.09c-16.57-40.13-49.66-120.25-55.16-133.58"/>
<path class="st7" d="M377.15,584.86c-2.2-2.93-5.99-7.05-12.07-10.87c-7.01-4.42-10.54-8.59-37.84-11.13
	c-5.98-0.56-13.12-1.04-21.67-1.42c-15.54-0.7-38.28-0.88-64.99-0.88c-26.73,0-49.45,0.18-65,0.88c-8.54,0.38-15.68,0.86-21.66,1.42
	c-27.3,2.54-30.84,6.72-37.85,11.13c-6.07,3.82-9.87,7.93-12.07,10.87"/>
<path class="st7" d="M377.15,581.38c-2.2-2.93-5.99-7.05-12.07-10.87c-7.01-4.42-10.54-8.59-37.84-11.13
	c-5.98-0.56-13.12-1.04-21.67-1.42c-15.54-0.7-38.28-0.88-64.99-0.88c-26.73,0-49.45,0.18-65,0.88c-8.54,0.38-15.68,0.86-21.66,1.42
	c-27.3,2.55-30.84,6.72-37.85,11.13c-6.07,3.82-9.87,7.93-12.07,10.87"/>
<path class="st6" d="M74.97,64.94c0,0,22.42,31,22.24,134.65"/>
<path class="st6" d="M408.27,64.94c0,0-22.42,31-22.24,134.65"/>
<path class="st3" d="M277.79,56.48"/>
<path class="st3" d="M269.71,60.74"/>
<path class="st0" d="M180.59,37.87c20.48-22.21,96.57-26,120.94-1.69l-6.27-13.32c-21.91-6.97-37.53-11.57-53.15-11.6
	c-15.62-0.03-31.23,4.5-53.15,11.47L180.59,37.87z"/>
<path class="st8" d="M180.59,37.87c20.48-22.21,96.57-26,120.94-1.69l-6.27-13.32c-21.91-6.97-37.53-11.57-53.15-11.6
	c-15.62-0.03-31.23,4.5-53.15,11.47L180.59,37.87z"/>
<path class="white" d="M192.54,21.39c10.93-3.81,27.89-8.29,48.97-8.29c21.07,0,38.02,4.48,48.95,8.29c0.37,7.1-0.26,17.42-6.41,26.59
	c-3.21,4.78-5.79,7.47-12.6,12.68c-8.34,6.38-17.75,14.74-20.48,22.2c-6.3,0-12.6,0-18.91,0c-2.9-7.21-7.2-11.02-10.03-13.69
	c-3.75-3.53-4.84-4.11-12.02-10.09c-4.66-3.88-7.08-5.92-9.45-9.51c-2.39-3.61-3.38-6.72-4.73-11.1
	C194.58,34.46,193.15,28.66,192.54,21.39z"/>
<path class="st3" d="M265.68,56.88"/>
<path class="st3" d="M257.83,61.03"/>
<path class="NeckTrim fill" d="M284.76,7.61c-31.34-7.96-56.6-7.61-89,1.12l4.12,10.11c12.18-4.54,26.9-5.52,41.72-5.52
	c14.02,0,28.11,0.75,40.22,4.44L284.76,7.61z"/>
<path class="st9" d="M284.76,7.61c-31.34-7.96-56.6-7.61-89,1.12l4.12,10.11c12.18-4.54,26.9-5.52,41.72-5.52
	c14.02,0,28.11,0.75,40.22,4.44L284.76,7.61z"/>
<path class="NeckTrim fill" d="M190.83,10.2l16.03-4.47l2.56,10.91l-19.34,5.24C190.08,21.88,188.83,17.16,190.83,10.2"/>
<path class="st9" d="M190.83,10.2l16.03-4.47l2.56,10.91l-19.34,5.24C190.08,21.88,188.83,17.16,190.83,10.2z"/>
<path class="NeckTrim fill" d="M293.49,10.2l-16.03-4.47l-2.56,10.91l19.34,5.24C294.24,21.88,295.49,17.16,293.49,10.2"/>
<path class="st9" d="M293.49,10.2l-16.03-4.47l-2.56,10.91l19.34,5.24C294.24,21.88,295.49,17.16,293.49,10.2z"/>
<path class="Colour1 fill" d="M176.64,27.54l-10.58,5.15c0,0-3.09,13.9,12.45,28.68l8.91-3.38C187.42,58,176.87,47.96,176.64,27.54"/>
<path class="Colour1 fill" d="M308.26,27.54l8.88,5.15c0,0,2.4,13.9-13.15,28.68L299.17,58C299.17,58,308.03,47.96,308.26,27.54"/>
<path class="NeckTrim fill" d="M294.34,11.57l14.61,17.15c0,0,1.19,25.19-15.53,36.75c-4.5,3.1-16.64,10.99-21.51,13.92
	c-13.26,7.97-18.59,9.66-18.59,9.66s0.17-10.32,3.85-12.5c0,0,26.09-22.04,28.18-25C287.44,48.57,295.56,26.13,294.34,11.57"/>
<path class="st10" d="M294.34,11.57l14.61,17.15c0,0,1.19,25.19-15.53,36.75c-4.5,3.1-16.64,10.99-21.51,13.92
	c-13.26,7.97-18.59,9.66-18.59,9.66s0.17-10.32,3.85-12.5c0,0,26.09-22.04,28.18-25C287.44,48.57,295.56,26.13,294.34,11.57z"/>
<path class="NeckTrim fill" d="M188.78,11.57l-14.61,17.15c0,0-1.19,25.19,15.53,36.75c4.5,3.1,16.64,10.99,21.51,13.92
	c13.26,7.97,18.59,9.66,18.59,9.66s-0.17-10.32-3.85-12.5c0,0-26.09-22.04-28.18-25C195.68,48.57,187.55,26.13,188.78,11.57"/>
<path class="st10" d="M188.78,11.57l-14.61,17.15c0,0-1.19,25.19,15.53,36.75c4.5,3.1,16.64,10.99,21.51,13.92
	c13.26,7.97,18.59,9.66,18.59,9.66s-0.17-10.32-3.85-12.5c0,0-26.09-22.04-28.18-25C195.68,48.57,187.55,26.13,188.78,11.57z"/>
<path class="Insert fill" d="M229.8,81.43h23l-3.58,8.59c0,0-5.87,2.07-14.73,0L229.8,81.43z"/>
<path class="st11" d="M230.38,80.88h23l-3.58,8.59c0,0-5.87,2.07-14.73,0L230.38,80.88z"/>
<path class="st7" d="M165.45,32.98c1.07,17.6,13.06,29.87,13.06,29.87c21.35,20.96,46.51,31.06,46.51,31.06s8.73,1.78,14.04,1.78
	h4.16c5.31,0,14.04-1.78,14.04-1.78s25.16-10.1,46.51-31.06c0,0,11.99-12.27,13.06-29.87"/>
<path class="st7" d="M169.76,30.79c-1.49,11.26,10.13,28.53,10.13,28.53c21.35,20.96,46.62,31.33,46.62,31.33s8.24,2.27,13.55,2.27
	h2.16c5.31,0,13.55-2.27,13.55-2.27s25.27-10.37,46.62-31.33c0,0,11.63-17.27,10.13-28.53"/>
<path class="NeckTrim fill" d="M253.31,89.05c0.02-0.06,1.78-3.93,3.8-9.09c1.21-3.08,8.38-8.9,15.32-14.53
	c3.55-2.88,7.22-5.85,10.62-8.86c16.24-14.32,14.61-36.52,12.75-43.8c-0.8-3.13-7.02-5.69-18.5-7.6l-0.67,2.96
	c6.69,1.11,13.39,3.08,14.69,4.29c0.52,3.82-1.92,32.2-11.45,40.6c-3.34,2.94-6.96,5.89-10.48,8.74
	c-9.35,7.59-15.16,12.44-16.75,16.48c-2.11,5.38-3.87,11.64-3.95,11.91L253.31,89.05z"/>
<path class="st12" d="M253.31,89.05c0.02-0.06,1.78-3.93,3.8-9.09c1.21-3.08,8.38-8.9,15.32-14.53c3.55-2.88,7.22-5.85,10.62-8.86
	c16.24-14.32,14.61-36.52,12.75-43.8c-0.8-3.13-7.02-5.69-18.5-7.6l-0.67,2.96c6.69,1.11,13.39,3.08,14.69,4.29
	c0.52,3.82-1.92,32.2-11.45,40.6c-3.34,2.94-6.96,5.89-10.48,8.74c-9.35,7.59-15.16,12.44-16.75,16.48
	c-2.11,5.38-3.87,11.64-3.95,11.91L253.31,89.05z"/>
<path class="NeckTrim fill" d="M230.46,89.05c-0.02-0.06-1.78-3.93-3.8-9.09c-1.21-3.08-8.38-8.9-15.32-14.53
	c-3.55-2.88-7.22-5.85-10.63-8.86c-7.52-6.63-12.65-44.22-12.75-43.8c0.8-3.13,7.02-5.69,18.5-7.6l0.67,2.96
	c-6.69,1.11-13.39,3.08-14.69,4.29c-0.52,3.82,1.92,32.2,11.45,40.6c3.34,2.94,6.96,5.89,10.48,8.74
	c9.35,7.59,15.17,12.44,16.75,16.48c2.11,5.38,3.87,11.64,3.95,11.91L230.46,89.05z"/>
<path class="st12" d="M230.46,89.05c-0.02-0.06-1.78-3.93-3.8-9.09c-1.21-3.08-8.38-8.9-15.32-14.53
	c-3.55-2.88-7.22-5.85-10.63-8.86c-7.52-6.63-12.65-44.22-12.75-43.8c0.8-3.13,7.02-5.69,18.5-7.6l0.67,2.96
	c-6.69,1.11-13.39,3.08-14.69,4.29c-0.52,3.82,1.92,32.2,11.45,40.6c3.34,2.94,6.96,5.89,10.48,8.74
	c9.35,7.59,15.17,12.44,16.75,16.48c2.11,5.38,3.87,11.64,3.95,11.91L230.46,89.05z"/>
<path class="st13" d="M411.62,64.94c0,0-22.42,31-22.24,134.65l-0.94,26.6"/>
<path class="st13" d="M71.46,64.94c0,0,22.42,31,22.24,134.65l-0.39,24.95"/>
<path class="st14" d="M388.6,225.23L388.6,225.23c0,0-0.04,0.23-0.1,0.65C388.56,225.47,388.6,225.23,388.6,225.23z"/>
<polygon class="ArmTrim fill" points="479.27,243.41 400.28,277.88 402.3,285.34 481.24,261.87 "/>
<polygon class="ArmTrim fill" points="3.47,241.67 82.46,277.88 80.45,285.35 1.5,260.13 "/>
<g>
	<polygon class="st15" points="400.28,277.88 402.3,285.34 481.24,261.87 479.27,243.41 	"/>
	<polygon class="st15" points="1.5,260.13 80.45,285.35 82.46,277.88 3.47,241.67 	"/>
</g>
<path class="st7" d="M399.27,283.45c0,0,27.41-2.61,43.18-18.23c15.76-15.62,37.47-17.67,37.47-17.67"/>
<path class="st7" d="M399.27,281.71c0,0,27.41-2.61,43.18-18.23c15.76-15.62,37.47-17.67,37.47-17.67"/>
<path class="st7" d="M82.91,284.03c0,0-27.42-2.61-43.18-18.23c-15.76-15.62-37.47-17.67-37.47-17.67"/>
<path class="st7" d="M82.91,282.29c0,0-27.42-2.61-43.18-18.23c-15.76-15.62-37.47-17.67-37.47-17.67"/>
<path class="BottomHem fill" d="M245.75,640.47c-22.9,0-44.65-2.29-47.29-2.58c-24.67-1.1-61.05-29.38-62.59-30.58l-0.4-0.35
	c-4.32-4.11-19.49-11.67-28.03-15.47l-1.52-2.23l0.94-10.13l5.03,2.24c2.42,1.07,23.61,10.6,30.93,17.35
	c9.94,7.74,38.84,27.45,56.28,28.12l0.39,0.03c0.56,0.06,56.21,6.11,83.07-0.76l0.78-0.14c0.23-0.03,24.34-2.84,47.45-21.18
	c2.47-2.43,21.7-21,38.17-23.82l5.41-0.93l1.85,10.91l-5.42,0.93c-11.5,1.97-27.35,15.82-32.49,20.98l-0.47,0.42
	c-24.35,19.43-49.29,23.19-52.95,23.65C274.14,639.61,259.73,640.47,245.75,640.47 M375.08,576.76l-10.34-9.23
	c-10.34-9.23-53.76-10.77-53.76-10.77H170.19c0,0-43.43,1.54-53.76,10.77l-10.34,9.23l-1.38,13.32c0,0,16.37-15.88,22.57-16.91
	c3.08-0.51,14.06-3.7,24.34-4.72c10.43-1.04,20.12-1.94,20.12-1.94h137.68c0,0,9.7,0.91,20.12,1.94
	c10.28,1.02,21.26,4.21,24.33,4.72c6.21,1.03,22.58,16.91,22.58,16.91L375.08,576.76z"/>
<g>
	<g>
		<linearGradient id="SVGID_1_" gradientUnits="userSpaceOnUse" x1="138.0836" y1="216.0536" x2="138.0836" y2="557.9945">
			<stop class="Gradient1 stopColor" offset="0" style="stop-color:#ECECEC;stop-opacity:0"/>
			<stop class="Colour1 fill stopColor" offset="1" style="stop-color:#101010"/>
		</linearGradient>
		<path class="Colour1 fill" d="M99.4,222.14l2.94,5.04l-2.94,5.04h-4.62l0.19,1.32h4.43l2.93,5.04l-2.93,5.04h-2.94l0.19,1.32h2.74
			l2.93,5.04l-2.93,5.04h-1.38l0.17,1.32h1.21l2.93,5.04l-2.85,4.9l0.27,2.06l2.59,4.44l-1.64,2.83l0.24,1.82l2.32-3.99h6.34
			l2.93,5.04l-2.93,5.04h-6.34l-1.97-3.39l0.37,2.87l0.69,1.18l-0.44,0.75l0.24,1.82l1.11-1.92h6.34l2.93,5.04l-2.93,5.04h-6.34
			l-0.07-0.13l0.19,1.44h6.22l2.94,5.04l-2.94,5.04h-5.09l0.14,1.32h4.95l2.93,5.04l-2.93,5.04h-3.9l0.14,1.32h3.76l2.93,5.04
			l-2.93,5.04h-2.71l0.14,1.32h2.57l2.93,5.04l-2.93,5.04h-1.74l0.09,1.32h1.65l2.93,5.04l-2.93,5.04h-0.97l0.09,1.32h0.88
			l2.94,5.04l-2.94,5.04h-0.2l0.09,1.32h0.11l2.93,5.04l-2.42,4.16l0.24,3.48l2.19,3.76l-1.73,2.98l-0.03,2.28l2.68-4.6h6.34
			l2.93,5.04l-2.93,5.04h-6.34l-2.69-4.62l-0.03,2.18l1.8,3.09l-1.88,3.23l-0.03,2.28l2.82-4.85h6.34l2.93,5.04l-2.93,5.04h-6.34
			l-2.83-4.86l-0.03,2.18l1.94,3.34l-2.03,3.48l-0.06,4.34l2.08,3.58l-2.17,3.74l-0.05,3.84l2.22,3.82l-2.33,4.01l-0.05,3.29
			l2.39,4.1l-2.53,4.34l-0.04,2.64l2.57,4.42l-2.72,4.68l-0.03,1.99l2.75,4.73l-2.92,5.01l-0.02,1.35h0l2.93,5.04l-2.93,5.04h-0.17
			l-0.02,1.32h0.19l2.93,5.04l-2.93,5.04h-0.36l-0.02,1.32h0.38l2.93,5.04l-2.93,5.04h-0.55l-0.02,1.32h0.57l2.94,5.04l-2.94,5.04
			h-0.74l-0.02,1.32h0.76l2.93,5.04l-2.93,5.04h-0.92l-0.02,1.32h0.95l2.93,5.04l-2.93,5.04h-1.11l-0.02,1.32h1.14l2.93,5.04
			l-2.93,5.04h-1.3l-0.02,1.32h1.32l2.93,5.04l-2.93,5.04h-1.49l-0.02,1.32h1.51l2.93,5.04l-2.93,5.04h-1.68l-0.02,1.32h1.7
			l2.86,4.92l0.95-0.6l-2.9-4.97l2.93-5.04h6.34l2.93,5.04l-0.15,0.26l1.96-0.92h-0.89l-2.93-5.04l2.93-5.04h6.34l2.93,5.04
			l-0.87,1.5l1.79-0.84l7.31-0.57l-0.05-0.09l2.93-5.04h6.34l2.46,4.23l1.24-0.1l-2.79-4.79l2.93-5.04h6.34l2.93,5.04l-2.48,4.26
			l1.36-0.11l2.03-3.49h6.34l0.9,1.54l1.08-0.38l-1.06-1.82l2.93-5.04h6.34l1.7,2.91l-0.43-2.97l-0.35-0.61l0.21-0.36l-0.26-1.79
			l-0.87,1.49h-6.34l-2.93-5.04l2.93-5.04h5.97l-0.19-1.32h-5.78l-2.93-5.04l2.93-5.04h4.32l-0.19-1.32h-4.13l-2.93-5.04l2.93-5.04
			h2.67l-0.19-1.32h-2.48l-2.93-5.04l2.94-5.04h1.02l-0.19-1.31h-0.83l-2.93-5.04l2.43-4.18l-0.59-4.04l-1.85-3.18l1.11-1.91
			l-0.26-1.79l-1.77,3.04h-6.34l-2.93-5.04l2.93-5.04h6.34l1,1.72l-0.55-3.8l-0.45,0.77h-6.34l-2.93-5.04l2.93-5.04h5.44l-0.19-1.32
			h-5.25l-2.93-5.04l2.93-5.04h3.79l-0.19-1.32h-3.6l-2.93-5.04l2.93-5.04h2.14l-0.19-1.32h-1.95l-2.93-5.04l2.93-5.04h0.5
			l-0.19-1.31h-0.31l-2.93-5.04l2.01-3.46l-0.26-1.79l-2.67,4.59h-6.34l-2.93-5.04l2.93-5.04h6.34l2.49,4.29l-0.43-2.97l-1.15-1.98
			l0.69-1.19l-0.26-1.79l-1.35,2.32h-6.34l-2.93-5.04l2.93-5.04h6.34l0.3,0.52l-0.27-1.88l-0.03,0.05h-6.34l-2.93-5.04l2.93-5.04
			h4.92l-0.19-1.32h-4.73l-2.93-5.04l2.93-5.04h3.27l-0.19-1.32h-3.08l-2.93-5.04l2.93-5.04h1.62l-0.19-1.32h-1.43l-2.93-5.04
			l2.91-5.01l-0.27-1.85l-2.65-4.55l1.59-2.74l-0.26-1.79l-2.25,3.87h-6.34l-2.93-5.04l2.93-5.04h6.34l1.8,3.09l-0.43-2.97
			l-0.45-0.78l0.27-0.47l-0.26-1.79l-0.93,1.6h-6.34l-2.93-5.04l2.93-5.04h6.04l-0.19-1.32h-5.85l-2.93-5.04l2.93-5.04h4.39
			l-0.19-1.32h-4.2l-2.93-5.04l2.93-5.04h2.75l-0.19-1.32h-2.55l-2.93-5.04l2.93-5.04h1.1l-0.19-1.32h-0.91l-2.93-5.04l2.49-4.29
			l-0.54-3.77l-1.95-3.35l1.17-2.02l-0.26-1.79l-1.83,3.14h-6.34l-2.93-5.04l2.93-5.04h6.34l1.1,1.89l-0.59-4.08l-0.51,0.88h-6.34
			l-2.93-5.04l2.93-5.04h5.52l-0.02-0.11l-1.33-1.2h-4.17l-2.93-5.04l0.52-0.9l-0.85-0.77l-0.59,1.01h-6.34l-2.93-5.04l1.86-3.2
			l-0.85-0.77l-1.92,3.31h-6.34l-2.93-5.04l2.93-5.04h0.76l-2.72-2.46l1.05,1.8l-2.93,5.04h-6.34l-2.93-5.04l2.93-5.04h4.64
			l-1.46-1.31h-3.18l-2.94-5.04l0.18-0.31l-0.85-0.77l-0.25,0.42h-5.84v1.32H99.4z M100.32,255.69l2.93-5.04h6.34l2.93,5.04
			l-2.93,5.04h-6.34L100.32,255.69z M113.44,256.35h6.34l2.93,5.04l-2.93,5.04h-6.34l-2.93-5.04L113.44,256.35z M103.25,272.14
			l-2.93-5.04l2.93-5.04h6.34l2.93,5.04l-2.93,5.04H103.25z M110.51,272.8l2.93-5.04h6.34l2.93,5.04l-2.93,5.04h-6.34L110.51,272.8z
			 M110.51,284.2l2.93-5.04h6.34l2.93,5.04l-2.93,5.04h-6.34L110.51,284.2z M129.97,421.69l2.93,5.04l-2.93,5.04h-6.34l-2.93-5.04
			l2.93-5.04H129.97z M120.69,415.33l2.93-5.04h6.34l2.93,5.04l-2.93,5.04h-6.34L120.69,415.33z M123.63,433.09h6.34l2.94,5.04
			l-2.93,5.04h-6.34l-2.93-5.04L123.63,433.09z M140.16,518.61l2.93,5.04l-2.93,5.04h-6.34l-2.93-5.04l2.93-5.04H140.16z
			 M130.88,512.25l2.94-5.04h6.34l2.94,5.04l-2.93,5.04h-6.34L130.88,512.25z M140.16,530.01l2.93,5.04l-2.93,5.04h-6.34l-2.93-5.04
			l2.93-5.04H140.16z M141.07,529.36l2.93-5.04h6.34l2.93,5.04l-2.93,5.04h-6.34L141.07,529.36z M144.01,523l-2.93-5.04l2.93-5.04
			h6.34l2.93,5.04l-2.93,5.04H144.01z M144.01,511.59l-2.93-5.04l2.93-5.04h6.34l2.94,5.04l-2.94,5.04H144.01z M140.16,505.89h-6.34
			l-2.93-5.04l2.93-5.04h6.34l2.93,5.04L140.16,505.89z M133.82,494.49l-2.93-5.04l2.93-5.04h6.34l2.93,5.04l-2.93,5.04H133.82z
			 M133.82,483.09l-2.93-5.04l2.93-5.04h6.34l2.93,5.04l-2.93,5.04H133.82z M133.82,471.68l-2.93-5.04l2.93-5.04h6.34l2.93,5.04
			l-2.93,5.04H133.82z M133.82,460.28l-2.93-5.04l2.93-5.04h6.34l2.93,5.04l-2.93,5.04H133.82z M133.82,448.88l-2.93-5.04l2.93-5.04
			h6.34l2.93,5.04l-2.93,5.04H133.82z M129.97,444.49l2.93,5.04l-2.93,5.04h-6.34l-2.93-5.04l2.93-5.04H129.97z M129.97,455.9
			l2.93,5.04l-2.93,5.04h-6.34l-2.93-5.04l2.93-5.04H129.97z M129.97,467.3l2.93,5.04l-2.93,5.04h-6.34l-2.93-5.04l2.93-5.04H129.97
			z M129.97,478.7l2.93,5.04l-2.93,5.04h-6.34l-2.93-5.04l2.93-5.04H129.97z M129.97,490.11l2.93,5.04l-2.93,5.04h-6.34l-2.93-5.04
			l2.93-5.04H129.97z M129.97,501.51l2.94,5.04l-2.94,5.04h-6.34l-2.93-5.04l2.93-5.04H129.97z M129.97,512.91l2.93,5.04l-2.93,5.04
			h-6.34l-2.93-5.04l2.93-5.04H129.97z M129.97,524.31l2.93,5.04l-2.93,5.04h-6.34l-2.93-5.04l2.93-5.04H129.97z M129.97,535.72
			l2.93,5.04l-2.93,5.04h-6.34l-2.93-5.04l2.93-5.04H129.97z M133.82,541.42h6.34l2.93,5.04l-2.93,5.04h-6.34l-2.93-5.04
			L133.82,541.42z M141.07,540.76l2.93-5.04h6.34l2.93,5.04l-2.93,5.04h-6.34L141.07,540.76z M151.26,535.06l2.93-5.04h6.34
			l2.93,5.04l-2.93,5.04h-6.34L151.26,535.06z M154.19,528.7l-2.93-5.04l2.93-5.04h6.34l2.93,5.04l-2.93,5.04H154.19z
			 M154.19,517.29l-2.93-5.04l2.94-5.04h6.34l2.93,5.04l-2.93,5.04H154.19z M154.19,505.89l-2.93-5.04l2.93-5.04h6.34l2.93,5.04
			l-2.93,5.04H154.19z M150.34,500.19h-6.34l-2.93-5.04l2.93-5.04h6.34l2.93,5.04L150.34,500.19z M144.01,488.79l-2.93-5.04
			l2.93-5.04h6.34l2.93,5.04l-2.93,5.04H144.01z M144.01,477.39l-2.93-5.04l2.93-5.04h6.34l2.93,5.04l-2.93,5.04H144.01z
			 M144.01,465.98l-2.93-5.04l2.93-5.04h6.34l2.93,5.04l-2.93,5.04H144.01z M144.01,454.58l-2.93-5.04l2.93-5.04h6.34l2.93,5.04
			l-2.93,5.04H144.01z M144.01,443.18l-2.93-5.04l2.94-5.04h6.34l2.94,5.04l-2.93,5.04H144.01z M140.16,437.48h-6.34l-2.93-5.04
			l2.93-5.04h6.34l2.93,5.04L140.16,437.48z M133.82,426.07l-2.93-5.04l2.93-5.04h6.34l2.93,5.04l-2.93,5.04H133.82z M133.82,414.67
			l-2.93-5.04l2.93-5.04h6.34l2.93,5.04l-2.93,5.04H133.82z M133.82,403.27l-2.93-5.04l2.93-5.04h6.34l2.93,5.04l-2.93,5.04H133.82z
			 M133.82,391.86l-2.93-5.04l2.93-5.04h6.34l2.93,5.04l-2.93,5.04H133.82z M133.82,380.46l-2.93-5.04l2.93-5.04h6.34l2.93,5.04
			l-2.93,5.04H133.82z M129.97,374.76h-6.34l-2.94-5.04l2.93-5.04h6.34l2.93,5.04L129.97,374.76z M133.82,369.06l-2.93-5.04
			l2.94-5.04h6.34l2.94,5.04l-2.93,5.04H133.82z M129.97,363.36h-6.34l-2.93-5.04l2.93-5.04h6.34l2.94,5.04L129.97,363.36z
			 M123.63,351.96l-2.93-5.04l2.93-5.04h6.34l2.93,5.04l-2.93,5.04H123.63z M123.63,340.55l-2.93-5.04l2.93-5.04h6.34l2.93,5.04
			l-2.93,5.04H123.63z M123.63,329.15l-2.93-5.04l2.93-5.04h6.34l2.93,5.04l-2.93,5.04H123.63z M123.63,317.75l-2.93-5.04l2.93-5.04
			h6.34l2.93,5.04l-2.93,5.04H123.63z M123.63,306.35l-2.93-5.04l2.93-5.04h6.34l2.94,5.04l-2.94,5.04H123.63z M123.63,294.94
			l-2.93-5.04l2.93-5.04h6.34l2.93,5.04l-2.93,5.04H123.63z M110.51,295.6l2.93-5.04h6.34l2.93,5.04l-2.94,5.04h-6.34L110.51,295.6z
			 M110.51,307l2.93-5.04h6.34l2.93,5.04l-2.93,5.04h-6.34L110.51,307z M110.51,318.41l2.93-5.04h6.34l2.93,5.04l-2.93,5.04h-6.34
			L110.51,318.41z M110.51,329.81l2.93-5.04h6.34l2.93,5.04l-2.93,5.04h-6.34L110.51,329.81z M110.51,341.21l2.93-5.04h6.34
			l2.93,5.04l-2.93,5.04h-6.34L110.51,341.21z M110.51,352.61l2.93-5.04h6.34l2.93,5.04l-2.93,5.04h-6.34L110.51,352.61z
			 M110.51,364.02l2.94-5.04h6.34l2.94,5.04l-2.93,5.04h-6.34L110.51,364.02z M113.44,380.46l-2.93-5.04l2.93-5.04h6.34l2.94,5.04
			l-2.94,5.04H113.44z M120.69,381.12l2.93-5.04h6.34l2.93,5.04l-2.93,5.04h-6.34L120.69,381.12z M120.69,392.52l2.93-5.04h6.34
			l2.93,5.04l-2.93,5.04h-6.34L120.69,392.52z M123.63,398.88h6.34l2.93,5.04l-2.93,5.04h-6.34l-2.93-5.04L123.63,398.88z
			 M110.51,409.63l2.93-5.04h6.34l2.93,5.04l-2.93,5.04h-6.34L110.51,409.63z M110.51,421.03l2.93-5.04h6.34l2.93,5.04l-2.93,5.04
			h-6.34L110.51,421.03z M110.51,432.43l2.93-5.04h6.34l2.94,5.04l-2.94,5.04h-6.34L110.51,432.43z M110.51,443.84l2.93-5.04h6.34
			l2.93,5.04l-2.93,5.04h-6.34L110.51,443.84z M110.51,455.24l2.93-5.04h6.34l2.93,5.04l-2.93,5.04h-6.34L110.51,455.24z
			 M110.51,466.64l2.93-5.04h6.34l2.93,5.04l-2.93,5.04h-6.34L110.51,466.64z M110.51,478.04l2.93-5.04h6.34l2.93,5.04l-2.93,5.04
			h-6.34L110.51,478.04z M110.51,489.45l2.93-5.04h6.34l2.93,5.04l-2.93,5.04h-6.34L110.51,489.45z M110.51,500.85l2.93-5.04h6.34
			l2.93,5.04l-2.93,5.04h-6.34L110.51,500.85z M110.51,512.25l2.94-5.04h6.34l2.94,5.04l-2.93,5.04h-6.34L110.51,512.25z
			 M110.51,523.65l2.93-5.04h6.34l2.93,5.04l-2.93,5.04h-6.34L110.51,523.65z M110.51,535.06l2.93-5.04h6.34l2.93,5.04l-2.93,5.04
			h-6.34L110.51,535.06z M110.51,546.46l2.93-5.04h6.34l2.93,5.04l-2.93,5.04h-6.34L110.51,546.46z M119.78,562.91h-6.34l-2.93-5.04
			l2.93-5.04h6.34l2.93,5.04L119.78,562.91z M123.63,557.2l-2.93-5.04l2.93-5.04h6.34l2.93,5.04l-2.93,5.04H123.63z M140.16,562.91
			h-6.34l-2.93-5.04l2.93-5.04h6.34l2.93,5.04L140.16,562.91z M150.34,557.2h-6.34l-2.93-5.04l2.93-5.04h6.34l2.93,5.04
			L150.34,557.2z M154.19,551.5l-2.93-5.04l2.93-5.04h6.34l2.93,5.04l-2.93,5.04H154.19z M173.65,552.16l-2.93,5.04h-6.34
			l-2.93-5.04l2.93-5.04h6.34L173.65,552.16z M173.65,540.76l-2.93,5.04h-6.34l-2.93-5.04l2.93-5.04h6.34L173.65,540.76z
			 M173.65,529.36l-2.93,5.04h-6.34l-2.93-5.04l2.93-5.04h6.34L173.65,529.36z M173.65,517.95l-2.93,5.04h-6.34l-2.93-5.04
			l2.93-5.04h6.34L173.65,517.95z M173.66,506.55l-2.94,5.04h-6.34l-2.93-5.04l2.93-5.04h6.34L173.66,506.55z M170.72,490.11
			l2.93,5.04l-2.93,5.04h-6.34l-2.93-5.04l2.93-5.04H170.72z M163.47,489.45l-2.93,5.04h-6.34l-2.93-5.04l2.93-5.04h6.34
			L163.47,489.45z M163.47,478.04l-2.93,5.04h-6.34l-2.93-5.04l2.93-5.04h6.34L163.47,478.04z M163.47,466.64l-2.93,5.04h-6.34
			l-2.93-5.04l2.93-5.04h6.34L163.47,466.64z M163.47,455.24l-2.93,5.04h-6.34l-2.93-5.04l2.93-5.04h6.34L163.47,455.24z
			 M163.47,443.84l-2.93,5.04h-6.34l-2.93-5.04l2.93-5.04h6.34L163.47,443.84z M160.53,427.39l2.93,5.04l-2.93,5.04h-6.34
			l-2.93-5.04l2.93-5.04H160.53z M153.28,426.73l-2.93,5.04h-6.34l-2.93-5.04l2.93-5.04h6.34L153.28,426.73z M153.28,415.33
			l-2.93,5.04h-6.34l-2.93-5.04l2.93-5.04h6.34L153.28,415.33z M153.28,403.93l-2.93,5.04h-6.34l-2.93-5.04l2.93-5.04h6.34
			L153.28,403.93z M153.28,392.52l-2.93,5.04h-6.34l-2.93-5.04l2.93-5.04h6.34L153.28,392.52z M153.28,381.12l-2.93,5.04h-6.34
			l-2.93-5.04l2.93-5.04h6.34L153.28,381.12z M153.28,369.72l-2.94,5.04h-6.34l-2.94-5.04l2.93-5.04h6.34L153.28,369.72z
			 M150.34,353.27l2.94,5.04l-2.94,5.04h-6.34l-2.93-5.04l2.93-5.04H150.34z M143.09,352.61l-2.93,5.04h-6.34l-2.93-5.04l2.93-5.04
			h6.34L143.09,352.61z M143.09,341.21l-2.93,5.04h-6.34l-2.93-5.04l2.93-5.04h6.34L143.09,341.21z M143.09,329.81l-2.93,5.04h-6.34
			l-2.93-5.04l2.93-5.04h6.34L143.09,329.81z M143.09,318.41l-2.93,5.04h-6.34l-2.93-5.04l2.93-5.04h6.34L143.09,318.41z
			 M143.09,307l-2.93,5.04h-6.34l-2.93-5.04l2.93-5.04h6.34L143.09,307z M143.09,295.6l-2.94,5.04h-6.34l-2.94-5.04l2.93-5.04h6.34
			L143.09,295.6z M140.16,279.15l2.93,5.04l-2.93,5.04h-6.34l-2.93-5.04l2.93-5.04H140.16z M132.9,278.5l-2.93,5.04h-6.34
			l-2.93-5.04l2.93-5.04h6.34L132.9,278.5z M132.9,267.09l-2.93,5.04h-6.34l-2.93-5.04l2.93-5.04h6.34L132.9,267.09z M129.97,250.65
			l2.93,5.04l-2.93,5.04h-6.34l-2.93-5.04l2.93-5.04H129.97z M119.78,244.95l2.93,5.04l-2.93,5.04h-6.34l-2.93-5.04l2.93-5.04
			H119.78z M109.59,239.24l2.93,5.04l-2.93,5.04h-6.34l-2.93-5.04l2.93-5.04H109.59z"/>
		<linearGradient id="SVGID_2_" gradientUnits="userSpaceOnUse" x1="201.2688" y1="642.5046" x2="201.2688" y2="643.6629">
			<stop class="Gradient1 stopColor" offset="0" style="stop-color:#ECECEC;stop-opacity:0"/>
			<stop class="Colour1 fill stopColor" offset="1" style="stop-color:#101010"/>
		</linearGradient>
		<path class="st17" d="M202.7,642.52l-2.86,1c0.85,0.07,1.69,0.14,2.56,0.2l-0.2-0.34L202.7,642.52z"/>
	</g>
	<g>
		
			<linearGradient id="SVGID_3_" gradientUnits="userSpaceOnUse" x1="8674.0029" y1="216.0536" x2="8674.0029" y2="557.9945" gradientTransform="matrix(-1 0 0 1 9018.8096 0)">
			<stop class="Gradient1 stopColor" offset="0" style="stop-color:#ECECEC;stop-opacity:0"/>
			<stop class="Colour1 fill stopColor" offset="1" style="stop-color:#101010"/>
		</linearGradient>
		<path class="Colour1 fill" d="M389.33,222.14v-1.32h-5.84l-0.25-0.42l-0.85,0.77l0.18,0.31l-2.94,5.04h-3.18l-1.46,1.31h4.64l2.93,5.04
			l-2.93,5.04h-6.34l-2.93-5.04l1.05-1.8l-2.72,2.46h0.76l2.93,5.04l-2.93,5.04h-6.34l-1.92-3.31l-0.85,0.77l1.86,3.2l-2.93,5.04
			h-6.34l-0.59-1.01l-0.85,0.77l0.52,0.9l-2.93,5.04h-4.17l-1.33,1.2l-0.02,0.11h5.52l2.93,5.04l-2.93,5.04h-6.34l-0.51-0.88
			l-0.59,4.08l1.1-1.89h6.34l2.93,5.04l-2.93,5.04h-6.34l-1.83-3.14l-0.26,1.79l1.17,2.02l-1.95,3.35l-0.54,3.77l2.49,4.29
			l-2.93,5.04h-0.91l-0.19,1.32h1.1l2.93,5.04l-2.93,5.04h-2.55l-0.19,1.32h2.75l2.93,5.04l-2.93,5.04h-4.2l-0.19,1.32h4.39
			l2.93,5.04l-2.93,5.04h-5.85l-0.19,1.32h6.04l2.93,5.04l-2.93,5.04h-6.34l-0.93-1.6l-0.26,1.79l0.27,0.47l-0.45,0.78l-0.43,2.97
			l1.8-3.09h6.34l2.93,5.04l-2.93,5.04h-6.34l-2.25-3.87l-0.26,1.79l1.59,2.74l-2.65,4.55l-0.27,1.85l2.91,5.01l-2.93,5.04h-1.43
			l-0.19,1.32h1.62l2.93,5.04l-2.93,5.04h-3.08l-0.19,1.32h3.27l2.93,5.04l-2.93,5.04h-4.73l-0.19,1.32h4.92l2.93,5.04l-2.93,5.04
			h-6.34l-0.03-0.05l-0.27,1.88l0.3-0.52h6.34l2.93,5.04l-2.93,5.04h-6.34l-1.35-2.32l-0.26,1.79l0.69,1.19l-1.15,1.98l-0.43,2.97
			l2.49-4.29h6.34l2.93,5.04l-2.93,5.04h-6.34l-2.67-4.59l-0.26,1.79l2.01,3.46l-2.93,5.04h-0.31l-0.19,1.31h0.5l2.93,5.04
			l-2.93,5.04h-1.95l-0.19,1.32h2.14l2.93,5.04l-2.93,5.04h-3.6l-0.19,1.32h3.79l2.93,5.04l-2.93,5.04h-5.25l-0.19,1.32h5.44
			l2.93,5.04l-2.93,5.04h-6.34l-0.45-0.77l-0.55,3.8l1-1.72h6.34l2.93,5.04l-2.93,5.04h-6.34l-1.77-3.04l-0.26,1.79l1.11,1.91
			l-1.85,3.18l-0.59,4.04l2.43,4.18l-2.93,5.04h-0.83l-0.19,1.31h1.02l2.94,5.04l-2.93,5.04h-2.48l-0.19,1.32h2.67l2.93,5.04
			l-2.93,5.04h-4.13l-0.19,1.32h4.32l2.93,5.04l-2.93,5.04h-5.78l-0.19,1.32h5.97l2.93,5.04l-2.93,5.04h-6.34l-0.87-1.49l-0.26,1.79
			l0.21,0.36l-0.35,0.61l-0.43,2.97l1.7-2.91h6.34l2.93,5.04l-1.06,1.82l1.08,0.38l0.9-1.54h6.34l2.03,3.49l1.36,0.11l-2.48-4.26
			l2.93-5.04h6.34l2.93,5.04l-2.79,4.79l1.24,0.1l2.46-4.23h6.34l2.93,5.04l-0.05,0.09l7.31,0.57l1.79,0.84l-0.87-1.5l2.93-5.04
			h6.34l2.93,5.04l-2.93,5.04h-0.89l1.96,0.92l-0.15-0.26l2.93-5.04h6.34l2.93,5.04l-2.9,4.97l0.95,0.6l2.86-4.92h1.7l-0.02-1.32
			h-1.68l-2.93-5.04l2.93-5.04h1.51l-0.02-1.32h-1.49l-2.93-5.04l2.93-5.04h1.32l-0.02-1.32h-1.3l-2.93-5.04l2.93-5.04h1.14
			l-0.02-1.32h-1.11l-2.93-5.04l2.93-5.04h0.95l-0.02-1.32h-0.92l-2.93-5.04l2.93-5.04h0.76l-0.02-1.32h-0.74l-2.94-5.04l2.94-5.04
			h0.57l-0.02-1.32h-0.55l-2.93-5.04l2.93-5.04h0.38l-0.02-1.32h-0.36l-2.93-5.04l2.93-5.04h0.19l-0.02-1.32h-0.17l-2.93-5.04
			l2.93-5.04h0l-0.02-1.35l-2.92-5.01l2.75-4.73l-0.03-1.99l-2.72-4.68l2.57-4.42l-0.04-2.64l-2.53-4.34l2.39-4.1l-0.05-3.29
			l-2.33-4.01l2.22-3.82l-0.05-3.84l-2.17-3.74l2.08-3.58l-0.06-4.34l-2.03-3.48l1.94-3.34l-0.03-2.18l-2.83,4.86h-6.34l-2.93-5.04
			l2.93-5.04h6.34l2.82,4.85l-0.03-2.28l-1.88-3.23l1.8-3.09l-0.03-2.18l-2.69,4.62h-6.34l-2.93-5.04l2.93-5.04h6.34l2.68,4.6
			l-0.03-2.28l-1.73-2.98l2.19-3.76l0.24-3.48l-2.42-4.16l2.93-5.04h0.11l0.09-1.32h-0.2l-2.94-5.04l2.94-5.04h0.88l0.09-1.32h-0.97
			l-2.93-5.04l2.93-5.04h1.65l0.09-1.32h-1.74l-2.93-5.04l2.93-5.04h2.57l0.14-1.32h-2.71l-2.93-5.04l2.93-5.04h3.76l0.14-1.32h-3.9
			l-2.93-5.04l2.93-5.04h4.95l0.14-1.32h-5.09l-2.94-5.04l2.94-5.04h6.22l0.19-1.44l-0.07,0.13h-6.34l-2.93-5.04l2.93-5.04h6.34
			l1.11,1.92l0.24-1.82l-0.44-0.75l0.69-1.18l0.37-2.87l-1.97,3.39h-6.34l-2.93-5.04l2.93-5.04h6.34l2.32,3.99l0.24-1.82l-1.64-2.83
			l2.59-4.44l0.27-2.06l-2.85-4.9l2.93-5.04h1.21l0.17-1.32h-1.38l-2.93-5.04l2.93-5.04h2.74l0.19-1.32h-2.94l-2.93-5.04l2.93-5.04
			h4.43l0.19-1.32h-4.62l-2.94-5.04l2.94-5.04H389.33z M379.64,260.73h-6.34l-2.93-5.04l2.93-5.04h6.34l2.93,5.04L379.64,260.73z
			 M372.38,261.39l-2.93,5.04h-6.34l-2.93-5.04l2.93-5.04h6.34L372.38,261.39z M373.3,272.14l-2.93-5.04l2.93-5.04h6.34l2.93,5.04
			l-2.93,5.04H373.3z M369.45,277.84h-6.34l-2.93-5.04l2.93-5.04h6.34l2.93,5.04L369.45,277.84z M369.45,289.24h-6.34l-2.93-5.04
			l2.93-5.04h6.34l2.93,5.04L369.45,289.24z M359.26,421.69l2.93,5.04l-2.93,5.04h-6.34l-2.93-5.04l2.93-5.04H359.26z
			 M359.26,420.37h-6.34l-2.93-5.04l2.93-5.04h6.34l2.93,5.04L359.26,420.37z M362.2,438.13l-2.93,5.04h-6.34l-2.93-5.04l2.94-5.04
			h6.34L362.2,438.13z M349.07,518.61l2.93,5.04l-2.93,5.04h-6.34l-2.93-5.04l2.93-5.04H349.07z M349.07,517.29h-6.34l-2.93-5.04
			l2.94-5.04h6.34l2.94,5.04L349.07,517.29z M349.07,530.01l2.93,5.04l-2.93,5.04h-6.34l-2.93-5.04l2.93-5.04H349.07z M338.89,534.4
			h-6.34l-2.93-5.04l2.93-5.04h6.34l2.93,5.04L338.89,534.4z M332.55,523l-2.93-5.04l2.93-5.04h6.34l2.93,5.04l-2.93,5.04H332.55z
			 M332.55,511.59l-2.94-5.04l2.94-5.04h6.34l2.93,5.04l-2.93,5.04H332.55z M339.8,500.85l2.93-5.04h6.34l2.93,5.04l-2.93,5.04
			h-6.34L339.8,500.85z M342.73,494.49l-2.93-5.04l2.93-5.04h6.34l2.93,5.04l-2.93,5.04H342.73z M342.73,483.09l-2.93-5.04
			l2.93-5.04h6.34l2.93,5.04l-2.93,5.04H342.73z M342.73,471.68l-2.93-5.04l2.93-5.04h6.34l2.93,5.04l-2.93,5.04H342.73z
			 M342.73,460.28l-2.93-5.04l2.93-5.04h6.34l2.93,5.04l-2.93,5.04H342.73z M342.73,448.88l-2.93-5.04l2.93-5.04h6.34l2.93,5.04
			l-2.93,5.04H342.73z M359.26,444.49l2.93,5.04l-2.93,5.04h-6.34l-2.93-5.04l2.93-5.04H359.26z M359.26,455.9l2.93,5.04l-2.93,5.04
			h-6.34l-2.93-5.04l2.93-5.04H359.26z M359.26,467.3l2.93,5.04l-2.93,5.04h-6.34l-2.93-5.04l2.93-5.04H359.26z M359.26,478.7
			l2.93,5.04l-2.93,5.04h-6.34l-2.93-5.04l2.93-5.04H359.26z M359.26,490.11l2.93,5.04l-2.93,5.04h-6.34l-2.93-5.04l2.93-5.04
			H359.26z M359.26,501.51l2.93,5.04l-2.93,5.04h-6.34l-2.94-5.04l2.94-5.04H359.26z M359.26,512.91l2.93,5.04l-2.93,5.04h-6.34
			l-2.93-5.04l2.93-5.04H359.26z M359.26,524.31l2.93,5.04l-2.93,5.04h-6.34l-2.93-5.04l2.93-5.04H359.26z M359.26,535.72l2.93,5.04
			l-2.93,5.04h-6.34l-2.93-5.04l2.93-5.04H359.26z M352.01,546.46l-2.93,5.04h-6.34l-2.93-5.04l2.93-5.04h6.34L352.01,546.46z
			 M338.89,545.8h-6.34l-2.93-5.04l2.93-5.04h6.34l2.93,5.04L338.89,545.8z M328.7,540.1h-6.34l-2.93-5.04l2.93-5.04h6.34l2.93,5.04
			L328.7,540.1z M322.36,528.7l-2.93-5.04l2.93-5.04h6.34l2.93,5.04l-2.93,5.04H322.36z M322.36,517.29l-2.93-5.04l2.93-5.04h6.34
			l2.94,5.04l-2.93,5.04H322.36z M322.36,505.89l-2.93-5.04l2.93-5.04h6.34l2.93,5.04l-2.93,5.04H322.36z M329.61,495.15l2.93-5.04
			h6.34l2.93,5.04l-2.93,5.04h-6.34L329.61,495.15z M332.55,488.79l-2.93-5.04l2.93-5.04h6.34l2.93,5.04l-2.93,5.04H332.55z
			 M332.55,477.39l-2.93-5.04l2.93-5.04h6.34l2.93,5.04l-2.93,5.04H332.55z M332.55,465.98l-2.93-5.04l2.93-5.04h6.34l2.93,5.04
			l-2.93,5.04H332.55z M332.55,454.58l-2.93-5.04l2.93-5.04h6.34l2.93,5.04l-2.93,5.04H332.55z M332.55,443.18l-2.93-5.04l2.94-5.04
			h6.34l2.94,5.04l-2.93,5.04H332.55z M339.8,432.43l2.93-5.04h6.34l2.93,5.04l-2.93,5.04h-6.34L339.8,432.43z M342.73,426.07
			l-2.93-5.04l2.93-5.04h6.34l2.93,5.04l-2.93,5.04H342.73z M342.73,414.67l-2.93-5.04l2.93-5.04h6.34l2.93,5.04l-2.93,5.04H342.73z
			 M342.73,403.27l-2.93-5.04l2.93-5.04h6.34l2.93,5.04l-2.93,5.04H342.73z M342.73,391.86l-2.93-5.04l2.93-5.04h6.34l2.93,5.04
			l-2.93,5.04H342.73z M342.73,380.46l-2.93-5.04l2.93-5.04h6.34l2.93,5.04l-2.93,5.04H342.73z M349.99,369.72l2.93-5.04h6.34
			l2.93,5.04l-2.94,5.04h-6.34L349.99,369.72z M342.73,369.06l-2.93-5.04l2.94-5.04h6.34l2.94,5.04l-2.93,5.04H342.73z
			 M349.99,358.32l2.94-5.04h6.34l2.93,5.04l-2.93,5.04h-6.34L349.99,358.32z M352.92,351.96l-2.93-5.04l2.93-5.04h6.34l2.93,5.04
			l-2.93,5.04H352.92z M352.92,340.55l-2.93-5.04l2.93-5.04h6.34l2.93,5.04l-2.93,5.04H352.92z M352.92,329.15l-2.93-5.04l2.93-5.04
			h6.34l2.93,5.04l-2.93,5.04H352.92z M352.92,317.75l-2.93-5.04l2.93-5.04h6.34l2.93,5.04l-2.93,5.04H352.92z M352.92,306.35
			l-2.94-5.04l2.94-5.04h6.34l2.93,5.04l-2.93,5.04H352.92z M352.92,294.94l-2.93-5.04l2.93-5.04h6.34l2.93,5.04l-2.93,5.04H352.92z
			 M369.45,300.64h-6.34l-2.94-5.04l2.93-5.04h6.34l2.93,5.04L369.45,300.64z M369.45,312.05h-6.34l-2.93-5.04l2.93-5.04h6.34
			l2.93,5.04L369.45,312.05z M369.45,323.45h-6.34l-2.93-5.04l2.93-5.04h6.34l2.93,5.04L369.45,323.45z M369.45,334.85h-6.34
			l-2.93-5.04l2.93-5.04h6.34l2.93,5.04L369.45,334.85z M369.45,346.25h-6.34l-2.93-5.04l2.93-5.04h6.34l2.93,5.04L369.45,346.25z
			 M369.45,357.66h-6.34l-2.93-5.04l2.93-5.04h6.34l2.93,5.04L369.45,357.66z M369.45,369.06h-6.34l-2.93-5.04l2.94-5.04h6.34
			l2.94,5.04L369.45,369.06z M363.11,380.46l-2.94-5.04l2.94-5.04h6.34l2.93,5.04l-2.93,5.04H363.11z M359.26,386.16h-6.34
			l-2.93-5.04l2.93-5.04h6.34l2.93,5.04L359.26,386.16z M359.26,397.57h-6.34l-2.93-5.04l2.93-5.04h6.34l2.93,5.04L359.26,397.57z
			 M362.2,403.93l-2.93,5.04h-6.34l-2.93-5.04l2.93-5.04h6.34L362.2,403.93z M369.45,414.67h-6.34l-2.93-5.04l2.93-5.04h6.34
			l2.93,5.04L369.45,414.67z M369.45,426.07h-6.34l-2.93-5.04l2.93-5.04h6.34l2.93,5.04L369.45,426.07z M369.45,437.48h-6.34
			l-2.94-5.04l2.94-5.04h6.34l2.93,5.04L369.45,437.48z M369.45,448.88h-6.34l-2.93-5.04l2.93-5.04h6.34l2.93,5.04L369.45,448.88z
			 M369.45,460.28h-6.34l-2.93-5.04l2.93-5.04h6.34l2.93,5.04L369.45,460.28z M369.45,471.68h-6.34l-2.93-5.04l2.93-5.04h6.34
			l2.93,5.04L369.45,471.68z M369.45,483.09h-6.34l-2.93-5.04l2.93-5.04h6.34l2.93,5.04L369.45,483.09z M369.45,494.49h-6.34
			l-2.93-5.04l2.93-5.04h6.34l2.93,5.04L369.45,494.49z M369.45,505.89h-6.34l-2.93-5.04l2.93-5.04h6.34l2.93,5.04L369.45,505.89z
			 M369.45,517.29h-6.34l-2.93-5.04l2.94-5.04h6.34l2.94,5.04L369.45,517.29z M369.45,528.7h-6.34l-2.93-5.04l2.93-5.04h6.34
			l2.93,5.04L369.45,528.7z M369.45,540.1h-6.34l-2.93-5.04l2.93-5.04h6.34l2.93,5.04L369.45,540.1z M369.45,551.5h-6.34l-2.93-5.04
			l2.93-5.04h6.34l2.93,5.04L369.45,551.5z M360.18,557.86l2.93-5.04h6.34l2.93,5.04l-2.93,5.04h-6.34L360.18,557.86z M352.92,557.2
			l-2.93-5.04l2.93-5.04h6.34l2.93,5.04l-2.93,5.04H352.92z M339.8,557.86l2.93-5.04h6.34l2.93,5.04l-2.93,5.04h-6.34L339.8,557.86z
			 M329.61,552.16l2.93-5.04h6.34l2.93,5.04l-2.93,5.04h-6.34L329.61,552.16z M322.36,551.5l-2.93-5.04l2.93-5.04h6.34l2.93,5.04
			l-2.93,5.04H322.36z M312.17,547.12h6.34l2.93,5.04l-2.93,5.04h-6.34l-2.93-5.04L312.17,547.12z M312.17,535.72h6.34l2.93,5.04
			l-2.93,5.04h-6.34l-2.93-5.04L312.17,535.72z M312.17,524.31h6.34l2.93,5.04l-2.93,5.04h-6.34l-2.93-5.04L312.17,524.31z
			 M312.17,512.91h6.34l2.93,5.04l-2.93,5.04h-6.34l-2.93-5.04L312.17,512.91z M312.17,501.51h6.34l2.93,5.04l-2.93,5.04h-6.34
			l-2.94-5.04L312.17,501.51z M318.51,490.11l2.93,5.04l-2.93,5.04h-6.34l-2.93-5.04l2.93-5.04H318.51z M322.36,484.4h6.34
			l2.93,5.04l-2.93,5.04h-6.34l-2.93-5.04L322.36,484.4z M322.36,473h6.34l2.93,5.04l-2.93,5.04h-6.34l-2.93-5.04L322.36,473z
			 M322.36,461.6h6.34l2.93,5.04l-2.93,5.04h-6.34l-2.93-5.04L322.36,461.6z M322.36,450.19h6.34l2.93,5.04l-2.93,5.04h-6.34
			l-2.93-5.04L322.36,450.19z M322.36,438.79h6.34l2.93,5.04l-2.93,5.04h-6.34l-2.93-5.04L322.36,438.79z M328.7,427.39l2.93,5.04
			l-2.93,5.04h-6.34l-2.93-5.04l2.93-5.04H328.7z M332.55,421.69h6.34l2.93,5.04l-2.93,5.04h-6.34l-2.93-5.04L332.55,421.69z
			 M332.55,410.29h6.34l2.93,5.04l-2.93,5.04h-6.34l-2.93-5.04L332.55,410.29z M332.55,398.88h6.34l2.93,5.04l-2.93,5.04h-6.34
			l-2.93-5.04L332.55,398.88z M332.55,387.48h6.34l2.93,5.04l-2.93,5.04h-6.34l-2.93-5.04L332.55,387.48z M332.55,376.08h6.34
			l2.93,5.04l-2.93,5.04h-6.34l-2.93-5.04L332.55,376.08z M332.55,364.68h6.34l2.93,5.04l-2.94,5.04h-6.34l-2.94-5.04L332.55,364.68
			z M338.89,353.27l2.93,5.04l-2.93,5.04h-6.34l-2.94-5.04l2.94-5.04H338.89z M342.73,347.57h6.34l2.93,5.04l-2.93,5.04h-6.34
			l-2.93-5.04L342.73,347.57z M342.73,336.17h6.34l2.93,5.04l-2.93,5.04h-6.34l-2.93-5.04L342.73,336.17z M342.73,324.77h6.34
			l2.93,5.04l-2.93,5.04h-6.34l-2.93-5.04L342.73,324.77z M342.73,313.36h6.34l2.93,5.04l-2.93,5.04h-6.34l-2.93-5.04L342.73,313.36
			z M342.73,301.96h6.34l2.93,5.04l-2.93,5.04h-6.34L339.8,307L342.73,301.96z M342.73,290.56h6.34l2.93,5.04l-2.94,5.04h-6.34
			l-2.94-5.04L342.73,290.56z M349.07,279.15l2.93,5.04l-2.93,5.04h-6.34l-2.93-5.04l2.93-5.04H349.07z M352.92,273.45h6.34
			l2.93,5.04l-2.93,5.04h-6.34l-2.93-5.04L352.92,273.45z M352.92,262.05h6.34l2.93,5.04l-2.93,5.04h-6.34l-2.93-5.04L352.92,262.05
			z M359.26,250.65l2.93,5.04l-2.93,5.04h-6.34l-2.93-5.04l2.93-5.04H359.26z M369.45,244.95l2.93,5.04l-2.93,5.04h-6.34l-2.93-5.04
			l2.93-5.04H369.45z M379.64,239.24l2.93,5.04l-2.93,5.04h-6.34l-2.93-5.04l2.93-5.04H379.64z"/>
		
			<linearGradient id="SVGID_4_" gradientUnits="userSpaceOnUse" x1="8737.1875" y1="642.5046" x2="8737.1875" y2="643.6629" gradientTransform="matrix(-1 0 0 1 9018.8096 0)">
			<stop class="Gradient1 stopColor" offset="0" style="stop-color:#ECECEC;stop-opacity:0"/>
			<stop class="Colour1 fill stopColor" offset="1" style="stop-color:#101010"/>
		</linearGradient>
		<path class="st19" d="M280.19,642.52l2.86,1c-0.85,0.07-1.69,0.14-2.56,0.2l0.2-0.34L280.19,642.52z"/>
	</g>
</g>
<g id="FBodyLogos"></g>
</svg>
