<?xml version="1.0" encoding="utf-8"?>
<!-- Generator: Adobe Illustrator 19.1.0, SVG Export Plug-In . SVG Version: 6.00 Build 0)  -->
<svg version="1.1" id="Layer_1" xmlns="http://www.w3.org/2000/svg" xmlns:xlink="http://www.w3.org/1999/xlink" x="0px" y="0px"
	 viewBox="0 0 483.01 645.44" style="enable-background:new 0 0 483.01 645.44;" xml:space="preserve">
<style type="text/css">
	<![CDATA[
	@font-face{font-family:'codaheavy';src:url('/fonts/coda-heavy-webfont.woff') format('woff')}
	text{font-family:Impact,codaheavy,sans-serif}
	.Number.fill{fill:#000}
	.NumberOutline.stroke{fill:none;stroke:#777;stroke-width:2.5}
	.Colour1.fill{fill:#101010;}
	.Colour2.fill{fill:#9E802E;}
	.Colour3.fill{fill:#FFFFFF;}
	.NeckTrim.fill{fill:#9E802E;}
	.ArmTrim.fill{fill:#101010;}
	.BottomHem.fill{fill:#101010;stroke:#221915;stroke-width:0.8861;stroke-miterlimit:10;}
	.st0{fill:none;stroke:#000000;stroke-width:2;stroke-linecap:round;stroke-linejoin:round;}
	.st1{stroke:#221915;stroke-width:0.8861;stroke-miterlimit:10;}
	.st2{fill:#9C2321;stroke:#221915;stroke-width:0.934;stroke-miterlimit:10;}
	.st3{fill:#1B2941;stroke:#000000;stroke-width:2;stroke-miterlimit:10;}
	.st4{fill:none;stroke:#000000;stroke-width:0.4411;}
	.st5{fill:#C0773C;stroke:#000000;stroke-width:2;stroke-miterlimit:10;}
	.st6{fill:none;stroke:#FFFFFF;stroke-width:0.216;stroke-dasharray:2.4,2.4,2.4,2.4;}
	.st7{fill:#101010;stroke:#FFFFFF;stroke-width:0.216;stroke-dasharray:2.4,2.4,2.4,2.4;}
	.st8{fill:none;stroke:#101010;stroke-width:0.328;}
	.st9{fill:none;stroke:#101010;stroke-width:0.216;stroke-dasharray:2.4,2.4,2.4,2.4;}
	.st10{fill:#FFFFFF;}
	.st11{fill:none;stroke:#221915;stroke-width:0.506;stroke-miterlimit:10;}
	.st12{fill:none;stroke:#0A0505;stroke-width:0.328;stroke-miterlimit:10;}
	.st13{fill:url(#SVGID_1_);}
	.st14{fill:url(#SVGID_2_);}
	.neckline{fill:none;stroke:#000000;stroke-width:0.6559;}
	]]>
</style>
<path class="Colour3 fill" d="M386.19,197.13c-0.17-95.12,18.6-129.22,21.79-134.32c-4.59-1.79-9.71-3.46-15.44-4.89
	c-33.07-8.23-82.65-28.8-92.19-36l-57.76-6.79h-3.7l-57.76,6.79c-9.54,7.2-59.12,27.77-92.19,36c-5.09,1.27-9.71,2.73-13.9,4.29
	c1.4,2.05,22.35,34.45,22.17,134.91l-3.98,27.41c0,0,21.14,131.65,16.9,197.47c-3.99,61.88-4.22,154.65-4.24,165.55
	c-0.92,1.01,0.82,1.97,0.18,2.82c0,0,12.02,1.62,29.63,16.07c14.54,11.92,35.55,31.25,104.47,31.25
	c68.91,0,89.93-19.33,104.46-31.25c17.62-14.46,32.59-16.24,32.16-16.07c-0.41-0.54-0.89-1.14-1.41-1.75h0.19
	c0,0,0-100.79-4.24-166.61c-4.24-65.83,16.9-197.47,16.9-197.47L386.19,197.13z"/>
<path class="Colour3 fill" d="M467.61,169c-1.06-12.34-9.61-58.62-27.62-86.39c0,0-9.54-11.53-32.03-20.11c0.02,0.2,0.03,0.31,0.03,0.31
	c-3.19,5.1-21.96,39.2-21.79,134.32l2.06,27.41c0,0,0.12,0.98,0.34,2.76c0.28-1.78,0.43-2.76,0.43-2.76l11.56,62.74
	c0,0,27.43-2.62,43.19-18.28c15.76-15.66,37.48-17.72,37.48-17.72S468.67,181.34,467.61,169z"/>
<path class="Colour3 fill" d="M82.45,287.28l10.98-59.55c-0.11-2.05-0.18-3.19-0.18-3.19l3.98-27.41C97.39,99.34,77.55,66.05,75.21,62.45
	c-22.59,8.59-32.16,20.16-32.16,20.16C25.03,110.38,16.48,156.66,15.42,169c-1.06,12.34-13.65,82.28-13.65,82.28
	s21.72,2.06,37.49,17.72C55.02,284.66,82.45,287.28,82.45,287.28z"/>
<g>
	<path class="st0" d="M77.33,65.63c-0.03-0.06-0.07-0.13-0.1-0.19"/>
	<path class="st0" d="M80.29,72.04c-0.03-0.06-0.05-0.12-0.08-0.19"/>
	<path class="st0" d="M79.46,70.1c-0.03-0.07-0.06-0.15-0.1-0.22"/>
	<path class="st0" d="M80.72,73.1c-0.03-0.06-0.05-0.12-0.07-0.18"/>
	<path class="st0" d="M79.87,71.04c-0.03-0.07-0.06-0.14-0.09-0.22"/>
	<path class="st0" d="M77.98,66.91c-0.03-0.07-0.07-0.14-0.1-0.21"/>
	<path class="st0" d="M77.65,66.25c-0.03-0.07-0.07-0.13-0.1-0.2"/>
	<path class="st0" d="M78.69,68.39c-0.03-0.07-0.07-0.14-0.1-0.21"/>
	<path class="st0" d="M78.33,67.62c-0.03-0.07-0.07-0.14-0.1-0.21"/>
	<path class="st0" d="M79.07,69.22c-0.03-0.07-0.06-0.14-0.1-0.21"/>
	<path class="st0" d="M88.63,99.37c-0.04-0.16-0.07-0.33-0.11-0.5"/>
	<path class="st0" d="M81.17,74.22c-0.02-0.06-0.05-0.12-0.07-0.18"/>
	<path class="st0" d="M88.12,97.17c-0.03-0.14-0.06-0.27-0.1-0.41"/>
	<path class="st0" d="M377.11,590.37c-0.53-0.03-15.1,2.09-32.15,16.08c-14.53,11.92-35.55,31.25-104.46,31.25
		c-68.92,0-89.93-19.33-104.47-31.25c-17.61-14.46-29.63-16.07-29.63-16.07c0.64-0.85-1.1-1.8-0.18-2.82
		c0.02-10.9,0.25-103.67,4.24-165.55c4.24-65.82-16.9-197.45-16.9-197.47"/>
	<path class="st0" d="M75.61,62.61c-0.11-0.18-0.2-0.31-0.26-0.4c4.19-1.57,8.81-3.03,13.9-4.29c33.07-8.23,82.65-28.8,92.19-36
		l57.76-6.79h3.7l57.76,6.79c9.54,7.2,59.12,27.77,92.19,36c5.72,1.42,10.85,3.1,15.44,4.89"/>
	<path class="st0" d="M87.6,95.01c-0.02-0.1-0.05-0.2-0.07-0.3"/>
	<path class="st0" d="M81.62,75.4c-0.02-0.05-0.03-0.09-0.05-0.14"/>
	<path class="st0" d="M82.08,76.64c-0.01-0.03-0.02-0.06-0.03-0.09"/>
	<path class="st0" d="M87.07,92.92c-0.01-0.06-0.03-0.12-0.04-0.17"/>
	<path class="st0" d="M75.9,63.07c-0.03-0.06-0.07-0.11-0.1-0.17"/>
	<path class="st0" d="M77.04,65.08c0.06,0.12,0.13,0.24,0.19,0.37"/>
	<path class="st0" d="M76.77,64.58c0.06,0.1,0.11,0.21,0.17,0.32"/>
	<path class="st0" d="M77.04,65.08c-0.03-0.06-0.07-0.12-0.1-0.19"/>
	<path class="st0" d="M77.33,65.63c0.07,0.13,0.14,0.27,0.21,0.41"/>
	<path class="st0" d="M76.52,64.13c0.05,0.09,0.1,0.18,0.15,0.27"/>
	<path class="st0" d="M77.98,66.91c0.08,0.16,0.16,0.33,0.25,0.5"/>
	<path class="st0" d="M77.65,66.25c0.07,0.15,0.15,0.3,0.23,0.46"/>
	<path class="st0" d="M78.69,68.39c0.09,0.2,0.19,0.4,0.28,0.61"/>
	<path class="st0" d="M78.33,67.62c0.09,0.18,0.17,0.37,0.26,0.56"/>
	<path class="st0" d="M76.08,63.37c0.04,0.06,0.07,0.12,0.11,0.18"/>
	<path class="st0" d="M76.29,63.72c0.04,0.07,0.09,0.15,0.13,0.23"/>
	<path class="st0" d="M75.9,63.07c0.03,0.04,0.05,0.09,0.08,0.13"/>
	<path class="st0" d="M79.07,69.22c0.1,0.22,0.2,0.44,0.3,0.67"/>
	<path class="st0" d="M76.52,64.13c-0.03-0.06-0.07-0.12-0.1-0.18"/>
	<path class="st0" d="M76.77,64.58c-0.03-0.06-0.07-0.12-0.1-0.18"/>
	<path class="st0" d="M76.29,63.72c-0.03-0.06-0.07-0.11-0.1-0.17"/>
	<path class="st0" d="M75.74,62.82c0.02,0.03,0.04,0.06,0.06,0.09"/>
	<path class="st0" d="M386.49,197.13l2.06,27.41c0,0-21.14,131.65-16.9,197.47c4.24,65.82,4.24,166.61,4.24,166.61h-0.19
		c0.51,0.61,0.99,1.2,1.4,1.74"/>
	<path class="st0" d="M75.61,62.61c0.01,0.01,0.02,0.03,0.03,0.04"/>
	<path class="st0" d="M75.74,62.82c-0.04-0.06-0.07-0.11-0.1-0.16"/>
	<path class="st0" d="M76.08,63.37c-0.03-0.06-0.07-0.11-0.1-0.17"/>
	<path class="st0" d="M95.41,144.55c-0.04-0.5-0.09-0.99-0.14-1.48"/>
	<path class="st0" d="M95.09,141.13c-0.05-0.48-0.09-0.95-0.14-1.43"/>
	<path class="st0" d="M96.25,155.34c-0.04-0.55-0.08-1.09-0.11-1.63"/>
	<path class="st0" d="M94.75,137.8c-0.05-0.46-0.1-0.92-0.15-1.38"/>
	<path class="st0" d="M95.99,151.65c-0.04-0.53-0.08-1.05-0.12-1.57"/>
	<path class="st0" d="M95.71,148.06c-0.04-0.51-0.09-1.02-0.13-1.52"/>
	<path class="st0" d="M93.64,128.29c-0.05-0.41-0.11-0.83-0.16-1.23"/>
	<path class="st0" d="M93.25,125.29c-0.05-0.4-0.11-0.79-0.16-1.18"/>
	<path class="st0" d="M94.03,131.37c-0.05-0.43-0.1-0.85-0.16-1.27"/>
	<path class="st0" d="M94.4,134.55c-0.05-0.45-0.1-0.89-0.15-1.34"/>
	<path class="st0" d="M96.7,162.97c-0.03-0.58-0.06-1.15-0.1-1.72"/>
	<path class="st0" d="M97.33,179.3c-0.01-0.6-0.03-1.2-0.05-1.79"/>
	<path class="st0" d="M97.42,183.62c-0.01-0.61-0.03-1.21-0.04-1.82"/>
	<path class="st0" d="M97.49,188.03c-0.01-0.59-0.02-1.17-0.03-1.76"/>
	<path class="st0" d="M97.52,192.54c0-0.53-0.01-1.06-0.01-1.59"/>
	<path class="st0" d="M97.21,175.08c-0.02-0.61-0.04-1.2-0.06-1.81"/>
	<path class="st0" d="M92.83,122.35c-0.05-0.37-0.11-0.75-0.16-1.11"/>
	<path class="st0" d="M96.9,166.91c-0.03-0.59-0.06-1.17-0.08-1.75"/>
	<path class="st0" d="M97.07,170.95c-0.02-0.59-0.05-1.18-0.07-1.77"/>
	<path class="st0" d="M96.49,159.11c-0.03-0.56-0.07-1.12-0.1-1.68"/>
	<path class="st0" d="M392.05,116.74c-0.42,2.6-0.83,5.3-1.22,8.12"/>
	<path class="st0" d="M377.11,590.37C377.11,590.37,377.11,590.37,377.11,590.37C377.13,590.37,377.12,590.37,377.11,590.37"/>
	<path class="st0" d="M402.23,75.86c-0.29,0.79-0.59,1.61-0.9,2.47"/>
	<path class="st0" d="M395.19,100.29c-0.78,3.51-1.55,7.3-2.28,11.39"/>
	<path class="st0" d="M400.41,81.03c-0.31,0.94-0.62,1.92-0.94,2.94"/>
	<path class="st0" d="M396.61,94.27c-0.32,1.27-0.64,2.59-0.95,3.95"/>
	<path class="st0" d="M388.17,149.85c-0.27,3.44-0.51,7-0.72,10.68"/>
	<path class="st0" d="M386.92,171.96c-0.1,2.62-0.18,5.3-0.24,8.04"/>
	<path class="st0" d="M389.38,136.73c0.33-3.12,0.69-6.13,1.07-9.02"/>
	<path class="st0" d="M389.05,139.89c-0.21,2.13-0.42,4.32-0.61,6.56"/>
	<path class="st0" d="M91.06,111.41c-0.05-0.29-0.11-0.59-0.16-0.88"/>
	<path class="st0" d="M92.41,119.5c-0.05-0.36-0.11-0.71-0.16-1.06"/>
	<path class="st0" d="M91.52,114.05c-0.06-0.32-0.11-0.65-0.17-0.96"/>
	<path class="st0" d="M90.59,108.87c-0.05-0.28-0.1-0.56-0.16-0.83"/>
	<path class="st0" d="M91.97,116.74c-0.06-0.34-0.11-0.68-0.17-1.02"/>
	<path class="st0" d="M404.7,69.78c-0.25,0.57-0.51,1.17-0.78,1.81"/>
	<path class="st0" d="M90.11,106.4c-0.05-0.25-0.1-0.51-0.15-0.76"/>
	<path class="st0" d="M406.11,66.77c-0.22,0.43-0.44,0.9-0.68,1.4"/>
	<path class="st0" d="M403.09,73.61c-0.28,0.71-0.57,1.46-0.86,2.25"/>
	<path class="st0" d="M89.63,104c-0.05-0.23-0.1-0.46-0.14-0.69"/>
	<path class="st0" d="M89.13,101.66c-0.04-0.2-0.09-0.4-0.13-0.6"/>
	<path class="st0" d="M92.83,122.35c0.08,0.58,0.17,1.16,0.25,1.75"/>
	<path class="st0" d="M92.41,119.5c0.09,0.57,0.18,1.15,0.26,1.73"/>
	<path class="st0" d="M91.52,114.05c0.09,0.55,0.19,1.11,0.28,1.67"/>
	<path class="st0" d="M91.97,116.74c0.09,0.56,0.18,1.13,0.27,1.7"/>
	<path class="st0" d="M93.25,125.29c0.08,0.58,0.16,1.17,0.24,1.77"/>
	<path class="st0" d="M94.03,131.37c0.07,0.61,0.15,1.22,0.22,1.84"/>
	<path class="st0" d="M93.64,128.29c0.08,0.6,0.15,1.2,0.23,1.81"/>
	<path class="st0" d="M90.59,108.87c0.1,0.55,0.21,1.1,0.31,1.66"/>
	<path class="st0" d="M89.13,101.66c0.12,0.54,0.24,1.09,0.35,1.65"/>
	<path class="st0" d="M88.63,99.37c0.13,0.56,0.25,1.11,0.38,1.68"/>
	<path class="st0" d="M88.12,97.17c0.13,0.56,0.27,1.13,0.4,1.71"/>
	<path class="st0" d="M94.4,134.55c0.07,0.62,0.14,1.24,0.21,1.87"/>
	<path class="st0" d="M91.06,111.41c0.1,0.55,0.2,1.11,0.3,1.67"/>
	<path class="st0" d="M90.11,106.4c0.11,0.54,0.21,1.09,0.32,1.64"/>
	<path class="st0" d="M89.63,104c0.11,0.54,0.22,1.08,0.34,1.64"/>
	<path class="st0" d="M97.33,179.3c0.02,0.83,0.04,1.67,0.05,2.51"/>
	<path class="st0" d="M97.07,170.95c0.03,0.77,0.06,1.55,0.08,2.33"/>
	<path class="st0" d="M87.6,95.01c0.14,0.57,0.28,1.15,0.42,1.74"/>
	<path class="st0" d="M97.21,175.08c0.03,0.8,0.05,1.61,0.07,2.42"/>
	<path class="st0" d="M97.42,183.62c0.02,0.87,0.03,1.76,0.04,2.64"/>
	<path class="st0" d="M97.49,188.03c0.01,0.96,0.02,1.95,0.02,2.92"/>
	<polyline class="st0" points="97.53,197.13 93.55,224.54 93.55,224.54 	"/>
	<path class="st0" d="M97.52,192.54c0.01,1.52,0.01,3.05,0.01,4.59"/>
	<path class="st0" d="M95.09,141.13c0.06,0.64,0.12,1.29,0.18,1.94"/>
	<path class="st0" d="M95.41,144.55c0.06,0.66,0.12,1.32,0.17,1.98"/>
	<path class="st0" d="M94.75,137.8c0.07,0.63,0.13,1.27,0.19,1.91"/>
	<path class="st0" d="M95.71,148.06c0.05,0.67,0.11,1.34,0.16,2.02"/>
	<path class="st0" d="M96.49,159.11c0.04,0.71,0.08,1.42,0.12,2.14"/>
	<path class="st0" d="M96.7,162.97c0.04,0.72,0.07,1.46,0.11,2.19"/>
	<path class="st0" d="M95.99,151.65c0.05,0.68,0.1,1.37,0.15,2.06"/>
	<path class="st0" d="M96.9,166.91c0.03,0.75,0.06,1.51,0.1,2.27"/>
	<path class="st0" d="M96.25,155.34c0.05,0.69,0.09,1.39,0.13,2.09"/>
	<path class="st0" d="M79.87,71.04c0.11,0.26,0.22,0.53,0.34,0.81"/>
	<path class="st0" d="M80.72,73.1c0.12,0.31,0.25,0.62,0.37,0.94"/>
	<path class="st0" d="M79.46,70.1c0.1,0.23,0.21,0.48,0.31,0.72"/>
	<path class="st0" d="M81.17,74.22c0.13,0.34,0.27,0.69,0.4,1.04"/>
	<path class="st0" d="M80.29,72.04c0.12,0.29,0.24,0.58,0.36,0.88"/>
	<path class="st0" d="M87.07,92.92c0.15,0.59,0.3,1.19,0.45,1.8"/>
	<path class="st0" d="M81.62,75.4c0.14,0.37,0.28,0.76,0.43,1.15"/>
	<path class="st0" d="M82.08,76.64c1.56,4.27,3.26,9.59,4.94,16.11"/>
	<path class="st0" d="M399.47,83.97c0.32-1.02,0.63-2,0.94-2.94"/>
	<path class="st0" d="M395.66,98.22c0.32-1.36,0.63-2.68,0.95-3.95"/>
	<path class="st0" d="M403.92,71.59c0.27-0.64,0.53-1.24,0.78-1.81"/>
	<path class="st0" d="M388.45,146.45c0.19-2.24,0.39-4.42,0.61-6.56"/>
	<path class="st0" d="M408.28,62.81c0,0-0.01-0.11-0.03-0.31c22.49,8.58,32.03,20.11,32.03,20.11
		c18.01,27.77,26.57,74.05,27.62,86.39c1.06,12.34,13.65,82.28,13.65,82.28s-21.72,2.06-37.48,17.72
		c-15.77,15.66-43.19,18.28-43.19,18.28l-11.56-62.74c0,0-0.16,0.97-0.43,2.76c-0.22-1.78-0.34-2.76-0.34-2.76l-2.06-27.41"/>
	<path class="st0" d="M402.23,75.86c0.29-0.79,0.58-1.53,0.86-2.25"/>
	<path class="st0" d="M405.44,68.17c0.24-0.5,0.46-0.97,0.68-1.4"/>
	<path class="st0" d="M392.91,111.69c0.73-4.09,1.5-7.88,2.28-11.39"/>
	<path class="st0" d="M401.33,78.33c0.3-0.86,0.6-1.69,0.9-2.47"/>
	<path class="st0" d="M386.68,180c0.06-2.74,0.15-5.42,0.24-8.04"/>
	<path class="st0" d="M387.45,160.53c0.21-3.68,0.45-7.24,0.72-10.68"/>
	<path class="st0" d="M390.83,124.86c0.39-2.82,0.8-5.52,1.22-8.12"/>
	<path class="st0" d="M389.38,136.73c0.33-3.12,0.69-6.13,1.07-9.02"/>
	<path class="st0" d="M386.68,180c-0.13,5.48-0.19,11.18-0.18,17.13"/>
	<path class="st0" d="M404.7,69.78c0.25-0.57,0.5-1.1,0.73-1.6"/>
	<path class="st0" d="M389.38,136.73c-0.11,1.04-0.22,2.09-0.33,3.16"/>
	<path class="st0" d="M403.09,73.61c0.28-0.71,0.56-1.39,0.83-2.03"/>
	<path class="st0" d="M408.28,62.81c-0.45,0.72-1.2,2.01-2.17,3.96"/>
	<path class="st0" d="M400.41,81.03c0.31-0.94,0.62-1.84,0.92-2.7"/>
	<path class="st0" d="M396.61,94.27c0.95-3.82,1.92-7.24,2.87-10.3"/>
	<path class="st0" d="M395.19,100.29c0.16-0.7,0.31-1.39,0.47-2.07"/>
	<path class="st0" d="M390.45,127.71c0.13-0.96,0.25-1.92,0.38-2.86"/>
	<path class="st0" d="M392.05,116.74c0.28-1.73,0.57-3.41,0.86-5.05"/>
	<path class="st0" d="M387.45,160.53c-0.21,3.68-0.39,7.49-0.53,11.43"/>
	<path class="st0" d="M388.45,146.45c-0.1,1.12-0.19,2.25-0.28,3.4"/>
	<path class="st0" d="M96.14,153.71c0.04,0.54,0.08,1.08,0.11,1.63"/>
	<path class="st0" d="M76.19,63.56c-0.04-0.06-0.07-0.12-0.11-0.18"/>
	<path class="st0" d="M92.24,118.44c-0.09-0.57-0.18-1.14-0.27-1.7"/>
	<path class="st0" d="M78.97,69.01c0.03,0.07,0.06,0.14,0.1,0.21"/>
	<path class="st0" d="M95.87,150.08c0.04,0.52,0.08,1.04,0.12,1.57"/>
	<path class="st0" d="M89.96,105.64c-0.11-0.55-0.22-1.1-0.34-1.64"/>
	<path class="st0" d="M76.94,64.9c0.03,0.06,0.07,0.12,0.1,0.19"/>
	<path class="st0" d="M95.58,146.54c0.04,0.51,0.09,1.01,0.13,1.52"/>
	<path class="st0" d="M90.9,110.53c-0.1-0.56-0.21-1.11-0.31-1.66"/>
	<path class="st0" d="M91.36,113.08c-0.1-0.56-0.2-1.12-0.3-1.67"/>
	<path class="st0" d="M96.38,157.43c0.04,0.56,0.07,1.11,0.1,1.68"/>
	<path class="st0" d="M90.44,108.04c-0.11-0.55-0.21-1.1-0.32-1.64"/>
	<path class="st0" d="M79.37,69.89c0.03,0.07,0.06,0.14,0.1,0.22"/>
	<path class="st0" d="M96.14,153.71c-0.05-0.69-0.1-1.38-0.15-2.06"/>
	<path class="st0" d="M97.46,186.27c0.01,0.59,0.02,1.17,0.03,1.76"/>
	<path class="st0" d="M96.81,165.16c-0.04-0.73-0.07-1.47-0.11-2.19"/>
	<path class="st0" d="M96.99,169.18c-0.03-0.76-0.06-1.52-0.1-2.27"/>
	<path class="st0" d="M97.38,181.81c0.01,0.61,0.03,1.21,0.04,1.82"/>
	<path class="st0" d="M79.78,70.83c0.03,0.07,0.06,0.14,0.09,0.22"/>
	<path class="st0" d="M96.38,157.43c-0.04-0.7-0.09-1.4-0.13-2.09"/>
	<path class="st0" d="M96.61,161.24c-0.04-0.71-0.08-1.43-0.12-2.14"/>
	<path class="st0" d="M97.15,173.28c-0.03-0.78-0.05-1.56-0.08-2.33"/>
	<path class="st0" d="M78.22,67.41c0.03,0.07,0.07,0.14,0.1,0.21"/>
	<path class="st0" d="M97.46,186.27c-0.01-0.88-0.02-1.77-0.04-2.64"/>
	<path class="st0" d="M92.67,121.23c-0.09-0.58-0.17-1.16-0.26-1.73"/>
	<path class="st0" d="M97.51,190.95c-0.01-0.98-0.01-1.96-0.02-2.92"/>
	<path class="st0" d="M97.53,197.13c0-1.55,0-3.08-0.01-4.59"/>
	<path class="st0" d="M97.51,190.95c0,0.53,0.01,1.05,0.01,1.59"/>
	<polyline class="st0" points="97.53,197.13 93.55,224.54 93.55,224.54 	"/>
	<path class="st0" d="M78.59,68.18c0.03,0.07,0.07,0.14,0.1,0.21"/>
	<path class="st0" d="M97.28,177.5c-0.02-0.81-0.04-1.62-0.07-2.42"/>
	<path class="st0" d="M97.38,181.81c-0.02-0.84-0.03-1.68-0.05-2.51"/>
	<path class="st0" d="M75.61,62.61c-0.04-0.06-0.07-0.11-0.1-0.16c-22.59,8.59-32.16,20.16-32.16,20.16
		C25.33,110.38,16.79,156.66,15.72,169c-1.06,12.34-13.65,82.28-13.65,82.28S23.8,253.34,39.56,269
		c15.76,15.66,43.19,18.28,43.19,18.28l10.98-59.55c-0.11-2.04-0.18-3.19-0.18-3.19"/>
	<path class="st0" d="M77.55,66.05c0.03,0.07,0.07,0.13,0.1,0.2"/>
	<path class="st0" d="M93.87,130.1c-0.08-0.61-0.15-1.21-0.23-1.81"/>
	<path class="st0" d="M96.81,165.16c0.03,0.58,0.06,1.16,0.08,1.75"/>
	<path class="st0" d="M94.25,133.21c-0.07-0.62-0.14-1.23-0.22-1.84"/>
	<path class="st0" d="M97.28,177.5c0.02,0.6,0.03,1.19,0.05,1.79"/>
	<path class="st0" d="M77.24,65.45c0.03,0.06,0.06,0.12,0.1,0.19"/>
	<path class="st0" d="M93.08,124.1c-0.08-0.59-0.17-1.17-0.25-1.75"/>
	<path class="st0" d="M96.61,161.24c0.03,0.57,0.06,1.14,0.1,1.72"/>
	<path class="st0" d="M93.48,127.05c-0.08-0.59-0.16-1.18-0.24-1.77"/>
	<path class="st0" d="M80.21,71.85c0.03,0.06,0.05,0.12,0.08,0.19"/>
	<path class="st0" d="M97.15,173.28c0.02,0.6,0.04,1.2,0.06,1.81"/>
	<path class="st0" d="M77.88,66.7c0.03,0.07,0.07,0.14,0.1,0.21"/>
	<path class="st0" d="M95.58,146.54c-0.06-0.66-0.11-1.33-0.17-1.98"/>
	<path class="st0" d="M95.87,150.08c-0.05-0.68-0.11-1.35-0.16-2.02"/>
	<path class="st0" d="M94.95,139.7c-0.06-0.64-0.13-1.28-0.19-1.91"/>
	<path class="st0" d="M95.27,143.08c-0.06-0.65-0.12-1.3-0.18-1.94"/>
	<path class="st0" d="M96.99,169.18c0.02,0.59,0.05,1.17,0.07,1.77"/>
	<path class="st0" d="M94.61,136.42c-0.07-0.63-0.14-1.25-0.21-1.87"/>
	<path class="st0" d="M91.8,115.72c-0.09-0.56-0.19-1.12-0.28-1.67"/>
	<path class="st0" d="M79.37,69.89c-0.1-0.23-0.2-0.45-0.3-0.67"/>
	<path class="st0" d="M75.8,62.91c-0.02-0.03-0.04-0.06-0.06-0.09"/>
	<path class="st0" d="M89.96,105.64c0.05,0.25,0.1,0.51,0.15,0.76"/>
	<path class="st0" d="M80.65,72.92c0.02,0.06,0.05,0.12,0.07,0.18"/>
	<path class="st0" d="M89.48,103.31c0.05,0.23,0.1,0.46,0.14,0.69"/>
	<path class="st0" d="M78.59,68.18c-0.09-0.19-0.18-0.38-0.26-0.56"/>
	<path class="st0" d="M79.78,70.83c-0.11-0.25-0.21-0.49-0.31-0.72"/>
	<path class="st0" d="M75.61,62.61c0.01,0.01,0.02,0.03,0.03,0.04"/>
	<path class="st0" d="M82.05,76.55c0.01,0.03,0.02,0.06,0.03,0.09"/>
	<path class="st0" d="M81.1,74.04c-0.13-0.32-0.25-0.64-0.37-0.94"/>
	<path class="st0" d="M80.65,72.92c-0.12-0.3-0.24-0.59-0.36-0.88"/>
	<path class="st0" d="M90.44,108.04c0.05,0.27,0.1,0.55,0.16,0.83"/>
	<path class="st0" d="M80.21,71.85c-0.11-0.27-0.23-0.54-0.34-0.81"/>
	<path class="st0" d="M77.24,65.45c-0.07-0.13-0.13-0.25-0.19-0.37"/>
	<path class="st0" d="M88.02,96.76c0.03,0.13,0.06,0.27,0.1,0.41"/>
	<path class="st0" d="M76.94,64.9c-0.06-0.11-0.12-0.21-0.17-0.32"/>
	<path class="st0" d="M76.67,64.4c-0.05-0.09-0.1-0.18-0.15-0.27"/>
	<path class="st0" d="M87.52,94.72c0.02,0.1,0.05,0.2,0.07,0.3"/>
	<path class="st0" d="M78.22,67.41c-0.08-0.17-0.16-0.34-0.25-0.5"/>
	<path class="st0" d="M75.98,63.21c-0.03-0.05-0.05-0.09-0.08-0.13"/>
	<path class="st0" d="M76.42,63.95c-0.05-0.08-0.09-0.15-0.13-0.23"/>
	<path class="st0" d="M77.88,66.7c-0.08-0.16-0.15-0.31-0.23-0.46"/>
	<path class="st0" d="M87.02,92.74c0.01,0.06,0.03,0.12,0.04,0.17"/>
	<path class="st0" d="M89,101.06c0.04,0.2,0.09,0.4,0.13,0.6"/>
	<path class="st0" d="M77.55,66.05c-0.07-0.14-0.14-0.28-0.21-0.41"/>
	<path class="st0" d="M88.51,98.87c0.04,0.16,0.07,0.33,0.11,0.5"/>
	<path class="st0" d="M90.9,110.53c0.05,0.29,0.11,0.58,0.16,0.88"/>
	<path class="st0" d="M78.97,69.01c-0.1-0.21-0.19-0.41-0.28-0.61"/>
	<path class="st0" d="M76.19,63.56c0.03,0.05,0.06,0.11,0.1,0.17"/>
	<path class="st0" d="M93.87,130.1c0.05,0.42,0.1,0.85,0.16,1.27"/>
	<path class="st0" d="M81.1,74.04c0.02,0.06,0.05,0.12,0.07,0.18"/>
	<path class="st0" d="M93.48,127.05c0.05,0.41,0.11,0.82,0.16,1.23"/>
	<path class="st0" d="M75.98,63.21c0.03,0.05,0.07,0.11,0.1,0.17"/>
	<path class="st0" d="M93.08,124.1c0.05,0.39,0.11,0.79,0.16,1.18"/>
	<path class="st0" d="M92.67,121.23c0.05,0.37,0.11,0.74,0.16,1.11"/>
	<path class="st0" d="M94.95,139.7c0.05,0.47,0.1,0.95,0.14,1.43"/>
	<path class="st0" d="M76.67,64.4c0.03,0.06,0.07,0.12,0.1,0.18"/>
	<path class="st0" d="M94.25,133.21c0.05,0.44,0.1,0.89,0.15,1.34"/>
	<path class="st0" d="M95.27,143.08c0.05,0.49,0.09,0.98,0.14,1.48"/>
	<path class="st0" d="M81.57,75.26c-0.13-0.35-0.27-0.7-0.4-1.04"/>
	<path class="st0" d="M94.61,136.42c0.05,0.46,0.1,0.92,0.15,1.38"/>
	<path class="st0" d="M76.42,63.95c0.03,0.06,0.07,0.12,0.1,0.18"/>
	<path class="st0" d="M87.02,92.74c-1.68-6.52-3.38-11.84-4.94-16.11"/>
	<path class="st0" d="M91.36,113.08c0.06,0.32,0.11,0.64,0.17,0.96"/>
	<path class="st0" d="M87.52,94.72c-0.15-0.61-0.3-1.21-0.45-1.8"/>
	<path class="st0" d="M91.8,115.72c0.06,0.34,0.11,0.68,0.17,1.02"/>
	<path class="st0" d="M82.05,76.55c-0.14-0.39-0.29-0.78-0.43-1.15"/>
	<path class="st0" d="M89.48,103.31c-0.12-0.56-0.24-1.11-0.35-1.65"/>
	<path class="st0" d="M75.64,62.66c0.03,0.05,0.07,0.11,0.1,0.16"/>
	<path class="st0" d="M89,101.06c-0.13-0.57-0.25-1.13-0.38-1.68"/>
	<path class="st0" d="M88.02,96.76c-0.14-0.59-0.28-1.17-0.42-1.74"/>
	<path class="st0" d="M92.24,118.44c0.06,0.35,0.11,0.71,0.16,1.06"/>
	<path class="st0" d="M81.57,75.26c0.02,0.05,0.03,0.09,0.05,0.14"/>
	<path class="st0" d="M88.51,98.87c-0.13-0.58-0.26-1.14-0.4-1.71"/>
	<path class="st0" d="M75.8,62.91c0.03,0.05,0.07,0.11,0.1,0.17"/>
</g>
<polygon class="st1" points="3.47,242.86 84.01,280.8 81.99,288.26 1.5,261.32 "/>
<polygon class="ArmTrim fill" points="3.47,241.31 84.01,279.25 81.99,286.72 1.5,259.77 "/>
<polygon class="st2" points="479.54,242.82 398.88,280.82 400.9,288.3 481.5,261.31 "/>
<polygon class="ArmTrim fill" points="479.54,242.82 398.88,280.82 400.9,288.3 481.5,261.31 "/>
<path class="st3" d="M178.48,13.95l18.96-5.3l1.01,12.94l-25.99,6.21C172.46,27.79,176.11,22.2,178.48,13.95"/>
<path class="NeckTrim fill" d="M178.48,13.95l18.96-5.3l1.01,12.94l-25.99,6.21C172.46,27.79,176.11,22.2,178.48,13.95z"/>
<path class="st3" d="M301.62,13.95l-20.67-5.3l-1.01,12.94l29.4,6.21C309.34,27.79,303.99,22.2,301.62,13.95"/>
<path class="NeckTrim fill" d="M301.62,13.95l-20.67-5.3l-1.01,12.94l29.4,6.21C309.34,27.79,303.99,22.2,301.62,13.95z"/>
<path class="st4" d="M75.5,62.11c0,0,22.43,31.09,22.25,135.02"/>
<path class="st4" d="M408.97,62.11c0,0-22.43,31.09-22.25,135.02"/>
<path class="st5" d="M246.79,643.72c-23.04,0-44.92-2.33-47.58-2.63c-24.82-1.12-61.42-29.97-62.97-31.2l-0.4-0.35
	c-4.35-4.2-19.61-11.91-28.2-15.79l-0.07-2.28l-0.52-10.33l5.06,2.28c2.43,1.09,23.76,10.82,31.12,17.7
	c10,7.9,39.08,28.01,56.62,28.69l0.4,0.03c0.56,0.06,56.55,6.23,83.58-0.77l0.79-0.14c0.23-0.03,24.48-2.9,47.74-21.61
	c2.48-2.48,21.83-21.42,38.4-24.31l5.45-0.95l0.61,11.13l-4.2,0.95c-11.56,2.01-27.51,16.14-32.69,21.41l-0.47,0.43
	c-24.51,19.83-49.59,23.66-53.27,24.13C275.36,642.85,260.86,643.72,246.79,643.72"/>
<path class="st6" d="M84.56,284.81c0,0-27.9-2.66-43.95-18.6c-16.04-15.94-38.14-18.03-38.14-18.03"/>
<path class="st6" d="M84.56,283.03c0,0-27.9-2.66-43.95-18.6C24.57,248.5,2.47,246.41,2.47,246.41"/>
<path class="st6" d="M398.94,282.32c0,0,27.9-2.66,43.95-18.6c16.04-15.94,38.14-18.03,38.14-18.03"/>
<path class="st7" d="M398.94,280.55c0,0,27.9-2.66,43.95-18.6c16.04-15.94,38.14-18.03,38.14-18.03"/>
<path class="st8" d="M89.28,95.02c0,0,124.22-32.47,305.43,0"/>
<path class="st9" d="M89.28,98.57c0,0,124.22-32.47,305.43,0"/>
<path class="st9" d="M89.28,100.35c0,0,124.22-32.47,305.43,0"/>
<path class="NeckTrim fill" d="M289.59,10.88c-37.07-9.43-66.95-9.03-105.27,1.33l4.87,11.98c14.41-5.38,31.83-6.54,49.35-6.55
	c16.58,0,33.25,0.88,47.57,5.27L289.59,10.88z"/>
<path class="st11" d="M289.59,10.88c-37.07-9.43-66.95-9.03-105.27,1.33l4.87,11.98c14.41-5.38,31.83-6.54,49.35-6.55
	c16.58,0,33.25,0.88,47.57,5.27L289.59,10.88z"/>
<path class="NeckTrim fill" d="M177.49,16.34l0.75-4.66c3.34-1.24,65.32-21.76,123.79,0l0.75,4.66C243.39-5.77,178.09,16.11,177.49,16.34
	"/>
<path class="neckline" d="M177.49,15.95c0.6-0.22,65.9-22.11,125.29,0l-0.75-4.66c-58.46-21.76-120.45-1.24-123.79,0L177.49,15.95z"/>
<path class="Colour1 fill" d="M388.6,139.01l-79.4,87.5l79.25-129.46l-41.04,26.16l50.06-50.02l-27.4,14.17
	c-13.96-21.4-66.33-37.31-128.8-37.31c-62.47,0-114.83,15.91-128.8,37.31L85.07,73.2l50.06,50.02L94.09,97.06l79.25,129.46
	L94.38,139.5c1.07,10.65,1.88,22.61,2.3,36l81.39,84.83l-81.08-63.76c0,0.19,0,0.37,0,0.56l-2.02,13.88l42.29,33.09l42.51,386.66
	c14.64,4.13,33.93,6.94,60.18,6.94c27.92,0,47.97-3.17,62.92-7.74l42.42-385.86l41.76-32.36l-1.1-14.6c0-0.19,0-0.37,0-0.56
	l-81.47,63.76l81.79-85.25C386.7,161.66,387.52,149.67,388.6,139.01z"/>
<polygon class="Colour2 fill" points="336.35,241.15 307.78,269.83 251.18,455.75 302.36,265.99 "/>
<polygon class="Colour2 fill" points="146.19,241.15 174.76,269.83 231.36,455.75 180.18,265.99 "/>
<path class="Colour2 fill" d="M386.67,165.07c0.25-5.13,0.56-10.03,0.92-14.7L283.55,266.78L386.67,165.07z"/>
<path class="Colour2 fill" d="M198.99,266.78L95.38,150.84c0.35,4.65,0.66,9.53,0.9,14.63L198.99,266.78z"/>
<path class="Colour2 fill" d="M334.67,257.66l-39.71,374.45c2.09-0.51,4.09-1.04,6.01-1.6l40.54-377.33L334.67,257.66z"/>
<path class="Colour2 fill" d="M141.03,253.18l40.63,378.1c1.92,0.51,3.91,1.01,5.99,1.47l-39.78-375.09L141.03,253.18z"/>
<path class="BottomHem fill" d="M246.79,643.72c-23.04,0-44.92-2.33-47.58-2.63c-24.82-1.12-61.42-29.97-62.97-31.2l-0.4-0.35
	c-4.35-4.2-19.61-11.91-28.2-15.79l-0.07-2.28l-0.52-10.33l5.06,2.28c2.43,1.09,23.76,10.82,31.12,17.7
	c10,7.9,39.08,28.01,56.62,28.69l0.4,0.03c0.56,0.06,56.55,6.23,83.58-0.77l0.79-0.14c0.23-0.03,24.48-2.9,47.74-21.61
	c2.48-2.48,21.83-21.42,38.4-24.31l5.45-0.95l0.61,11.13l-4.2,0.95c-11.56,2.01-27.51,16.14-32.69,21.41l-0.47,0.43
	c-24.51,19.83-49.59,23.66-53.27,24.13C275.36,642.85,260.86,643.72,246.79,643.72z"/>
<g>
	<linearGradient id="SVGID_1_" gradientUnits="userSpaceOnUse" x1="346.2428" y1="206.8528" x2="346.2428" y2="609.3105">
		<stop class="Gradient1 stopColor" offset="0" style="stop-color:#ECECEC;stop-opacity:0"/>
		<stop class="Colour1 fill stopColor" offset="1" style="stop-color:#101010"/>
	</linearGradient>
	<path class="Colour1 fill" d="M315.98,617.71l3.34-5.75h7.21l2.21,3.81l1.09-0.67l-2.26-3.9l3.34-5.75h7.21l1.96,3.38l1.09-0.67l-2.01-3.46
		l3.34-5.75h7.21l1.21,2.09l1.03-0.76l-1.2-2.07l3.34-5.75h7.21l0.36,0.63l1.03-0.76l-0.36-0.61l3.34-5.75h5.61l3.86-2.86l1.36-2.34
		l-0.12-4.3l-2.47-4.25l2.25-3.87l-0.07-2.43l-3.22,5.55h-7.21l-3.34-5.75l3.34-5.75h7.21l3.21,5.53l-0.07-2.67l-2.1-3.62l1.91-3.3
		l-0.07-2.43l-2.89,4.98h-7.21l-3.34-5.75l3.34-5.75h7.21l2.84,4.9l-0.07-2.67l-1.73-2.98l1.58-2.72l-0.07-2.43l-2.55,4.4h-7.21
		l-3.34-5.75l3.34-5.75h7.21l2.48,4.27l-0.07-2.67l-1.36-2.35l1.24-2.14l-0.07-2.43l-2.22,3.82h-7.21l-3.34-5.75l3.34-5.75h7.21
		l2.11,3.63l-0.07-2.67l-1-1.72l0.91-1.56l-0.07-2.43l-1.88,3.24h-7.21l-3.34-5.75l3.34-5.75h7.21l1.74,3l-0.07-2.67l-0.63-1.08
		l0.57-0.99l-0.07-2.43l-1.55,2.67h-7.21l-3.34-5.75l3.34-5.75h7.21l1.37,2.37l-0.07-2.67l-0.26-0.45l0.24-0.41l-0.07-2.43
		l-1.21,2.09h-7.21l-3.34-5.75l3.34-5.75h7.21l1.01,1.73l-0.13-4.74l-0.88,1.51h-7.21l-3.34-5.75l3.34-5.75h7.21l0.64,1.1l-0.1-3.53
		l-0.54,0.93h-7.21l-3.34-5.75l3.34-5.75h7.21l0.27,0.46l-0.06-2.32l-0.21,0.36h-7.21l-3.34-5.75l3.34-5.75h7.12l-0.04-1.5h-7.08
		l-3.34-5.75l3.34-5.75h6.77l-0.04-1.5h-6.73l-3.34-5.75l3.34-5.75h5.73c-0.05-0.48-0.1-0.99-0.15-1.5h-5.58l-3.34-5.75l3.34-5.75
		h5.09c0-0.49,0-1,0-1.5h-5.08l-3.34-5.75l3.34-5.75h5.3c0.02-0.49,0.04-1,0.06-1.5h-5.36l-3.34-5.75l3.34-5.75h5.93
		c0.03-0.5,0.06-1,0.09-1.5h-6.02l-3.34-5.75l3.34-5.75h6.83c0.04-0.5,0.08-1,0.12-1.5h-6.95l-3.34-5.75l3.34-5.75h7.21l0.61,1.05
		c0.13-1.41,0.25-2.83,0.38-4.26l-0.99,1.71h-7.21l-3.34-5.75l3.34-5.75h7.21l1.65,2.84c0.07-0.72,0.14-1.45,0.21-2.18l-0.82-1.42
		l1.16-2c0.1-1.03,0.21-2.05,0.31-3.08l-2.52,4.33h-7.21l-3.34-5.75l3.34-5.75h7.21l2.77,4.76c0.07-0.72,0.15-1.44,0.23-2.15
		l-1.95-3.36l2.84-4.89c0.1-0.9,0.2-1.8,0.3-2.7l-3.14-5.41l3.34-5.75h1.07c0.06-0.5,0.12-1,0.18-1.5h-1.25l-3.34-5.75l3.34-5.75
		h2.62c0.06-0.5,0.12-1,0.18-1.5h-2.8l-3.34-5.75l3.34-5.75h4.24c0.06-0.5,0.13-1,0.19-1.5h-4.43l-3.34-5.75l3.34-5.75h5.92
		c0.07-0.51,0.13-1,0.2-1.5h-6.11l-3.34-5.75l3.34-5.75h7.21l0.36,0.62c0.16-1.22,0.33-2.41,0.49-3.57l-0.84,1.45h-7.21l-3.34-5.75
		l3.34-5.75h7.21l1.8,3.1c0.1-0.7,0.19-1.39,0.29-2.05l-1.04-1.8l1.71-2.95c0.17-1.2,0.33-2.31,0.48-3.37l-3.23,5.56h-7.21
		l-3.34-5.75l3.34-5.75h7.21l3.27,5.64c0.1-0.72,0.2-1.4,0.29-2.04l-2.52-4.35l3.28-5.65l-0.3-2.23l-2.98-5.13l1.58-2.72l-4.48,3.47
		h1.86l3.34,5.75l-3.34,5.75h-7.21l-2.94-5.07l-1.02,0.79l2.92,5.03l-3.34,5.75h-7.21l-1.95-3.36l-1.02,0.79l1.93,3.32l-3.34,5.75
		h-7.21l-0.96-1.65l-1.02,0.79l0.93,1.61l-3.34,5.75h-4.33l-0.17,1.5h4.49l3.34,5.75l-3.34,5.75h-5.76l-0.16,1.5h5.92l3.34,5.75
		l-3.34,5.75h-7.18l-0.2,1.8l0.17-0.3h7.21l3.34,5.75l-3.34,5.75h-7.21l-1.18-2.03l-0.23,2.14l0.37,0.65l-0.55,0.95l-0.34,3.14
		l1.94-3.33h7.21l3.34,5.75l-3.34,5.75h-7.21l-2.38-4.1l-0.23,2.14l1.58,2.72l-2.31,3.99l-0.46,4.23l2.78,4.79l-3.34,5.75h-0.6
		l-0.16,1.5h0.76l3.34,5.75l-3.34,5.75h-2.03l-0.16,1.5h2.19l3.34,5.75l-3.34,5.75h-3.46l-0.16,1.5h3.62l3.34,5.75l-3.34,5.75h-4.89
		l-0.16,1.5h5.05l3.34,5.75l-3.34,5.75h-6.32l-0.16,1.5h6.48l3.34,5.75l-3.34,5.75h-7.21l-0.45-0.77l-0.41,3.76l0.86-1.48h7.21
		l3.34,5.75l-3.34,5.75h-7.21l-1.65-2.84l-0.23,2.14l0.84,1.46l-1.24,2.14l-0.34,3.14l2.63-4.52h7.21l3.34,5.75l-3.34,5.75h-7.21
		l-2.85-4.91l-0.23,2.14l2.05,3.53l-3,5.17l-0.24,2.23l3.25,5.6l-3.34,5.75h-1.16l-0.17,1.5h1.32l3.34,5.75l-3.34,5.75h-2.59
		l-0.16,1.5h2.75l3.34,5.75l-3.34,5.75h-4.02l-0.16,1.5h4.18l3.34,5.75l-3.34,5.75h-5.45l-0.16,1.5h5.61l3.34,5.75l-3.34,5.75h-6.87
		l-0.16,1.5h7.04l3.34,5.75l-3.34,5.75h-7.21l-0.92-1.58l-0.23,2.14l0.11,0.2l-0.17,0.29l-0.35,3.14l1.55-2.67h7.21l3.34,5.75
		l-3.34,5.75h-7.21l-2.12-3.65l-0.23,2.14l1.32,2.27l-1.93,3.32l-0.34,3.14l3.32-5.71h7.21l3.34,5.75l-3.34,5.75h-7.21l-3.32-5.72
		l-0.23,2.14l2.52,4.34l-3.34,5.75h-0.29l-0.17,1.5h0.45l3.34,5.75l-3.34,5.75h-1.72l-0.16,1.5h1.88l3.34,5.75l-3.34,5.75h-3.15
		l-0.16,1.5h3.31l3.34,5.75l-3.34,5.75h-4.58l-0.16,1.5h4.74l3.34,5.75l-3.34,5.75h-6l-0.16,1.5h6.17l3.34,5.75l-3.34,5.75h-7.21
		l-0.19-0.32l-0.29,2.65l0.48-0.82h7.21l3.34,5.75l-3.34,5.75h-7.21l-1.39-2.39l-0.23,2.14l0.58,1.01l-0.86,1.48l-0.34,3.14
		l2.24-3.86h7.21l3.34,5.75l-3.34,5.75h-7.21l-2.59-4.46l-0.23,2.14l1.79,3.08l-2.62,4.51l-0.37,3.34l2.08,3.58
		c0.43-0.04,0.87-0.08,1.3-0.13l0.07-0.04l-2.76-4.76l3.34-5.75h7.21l2.46,4.24l1.09-0.67L315.98,617.71z M338.11,603.96h-7.21
		l-3.34-5.75l3.34-5.75h7.21l3.34,5.75L338.11,603.96z M349.7,429.95l3.34,5.75l-3.34,5.75h-7.21l-3.34-5.75l3.34-5.75H349.7z
		 M339.16,422.7l3.34-5.75h7.21l3.34,5.75l-3.34,5.75h-7.21L339.16,422.7z M349.7,442.95l3.34,5.75l-3.34,5.75h-7.21l-3.34-5.75
		l3.34-5.75H349.7z M349.7,455.95l3.34,5.75l-3.34,5.75h-7.21l-3.34-5.75l3.34-5.75H349.7z M349.7,468.95l3.34,5.75l-3.34,5.75
		h-7.21l-3.34-5.75l3.34-5.75H349.7z M349.7,481.95l3.34,5.75l-3.34,5.75h-7.21l-3.34-5.75l3.34-5.75H349.7z M349.7,494.95
		l3.34,5.75l-3.34,5.75h-7.21l-3.34-5.75l3.34-5.75H349.7z M349.7,507.95l3.34,5.75l-3.34,5.75h-7.21l-3.34-5.75l3.34-5.75H349.7z
		 M349.7,520.96l3.34,5.75l-3.34,5.75h-7.21l-3.34-5.75l3.34-5.75H349.7z M342.49,571.46l-3.34-5.75l3.34-5.75h7.21l3.34,5.75
		l-3.34,5.75H342.49z M353.04,578.71l-3.34,5.75h-7.21l-3.34-5.75l3.34-5.75h7.21L353.04,578.71z M349.7,558.46h-7.21l-3.34-5.75
		l3.34-5.75h7.21l3.34,5.75L349.7,558.46z M342.49,545.46l-3.34-5.75l3.34-5.75h7.21l3.34,5.75l-3.34,5.75H342.49z M341.45,533.21
		l-3.34,5.75h-7.21l-3.34-5.75l3.34-5.75h7.21L341.45,533.21z M338.11,540.46l3.34,5.75l-3.34,5.75h-7.21l-3.34-5.75l3.34-5.75
		H338.11z M338.11,553.46l3.34,5.75l-3.34,5.75h-7.21l-3.34-5.75l3.34-5.75H338.11z M338.11,566.46l3.34,5.75l-3.34,5.75h-7.21
		l-3.34-5.75l3.34-5.75H338.11z M338.11,579.46l3.34,5.75l-3.34,5.75h-7.21l-3.34-5.75l3.34-5.75H338.11z M349.7,597.46h-7.21
		l-3.34-5.75l3.34-5.75h7.21l3.34,5.75L349.7,597.46z M361.29,590.96h-7.21l-3.34-5.75l3.34-5.75h7.21l3.34,5.75L361.29,590.96z
		 M372.88,572.96l3.34,5.75l-3.34,5.75h-7.21l-3.34-5.75l3.34-5.75H372.88z M364.63,572.21l-3.34,5.75h-7.21l-3.34-5.75l3.34-5.75
		h7.21L364.63,572.21z M364.63,559.21l-3.34,5.75h-7.21l-3.34-5.75l3.34-5.75h7.21L364.63,559.21z M364.63,546.21l-3.34,5.75h-7.21
		l-3.34-5.75l3.34-5.75h7.21L364.63,546.21z M364.63,533.21l-3.34,5.75h-7.21l-3.34-5.75l3.34-5.75h7.21L364.63,533.21z
		 M364.63,520.21l-3.34,5.75h-7.21l-3.34-5.75l3.34-5.75h7.21L364.63,520.21z M364.63,507.2l-3.34,5.75h-7.21l-3.34-5.75l3.34-5.75
		h7.21L364.63,507.2z M364.63,494.2l-3.34,5.75h-7.21l-3.34-5.75l3.34-5.75h7.21L364.63,494.2z M364.63,481.2l-3.34,5.75h-7.21
		l-3.34-5.75l3.34-5.75h7.21L364.63,481.2z M364.63,468.2l-3.34,5.75h-7.21l-3.34-5.75l3.34-5.75h7.21L364.63,468.2z M364.63,455.2
		l-3.34,5.75h-7.21l-3.34-5.75l3.34-5.75h7.21L364.63,455.2z M364.63,442.2l-3.34,5.75h-7.21l-3.34-5.75l3.34-5.75h7.21
		L364.63,442.2z M364.63,429.2l-3.34,5.75h-7.21l-3.34-5.75l3.34-5.75h7.21L364.63,429.2z M364.63,416.2l-3.34,5.75h-7.21
		l-3.34-5.75l3.34-5.75h7.21L364.63,416.2z M364.63,403.2l-3.34,5.75h-7.21l-3.34-5.75l3.34-5.75h7.21L364.63,403.2z M364.63,390.2
		l-3.34,5.75h-7.21l-3.34-5.75l3.34-5.75h7.21L364.63,390.2z M364.63,377.2l-3.34,5.75h-7.21l-3.34-5.75l3.34-5.75h7.21
		L364.63,377.2z M364.63,364.2l-3.34,5.75h-7.21l-3.34-5.75l3.34-5.75h7.21L364.63,364.2z M364.63,351.2l-3.34,5.75h-7.21
		l-3.34-5.75l3.34-5.75h7.21L364.63,351.2z M364.63,338.2l-3.34,5.75h-7.21l-3.34-5.75l3.34-5.75h7.21L364.63,338.2z M361.29,330.95
		h-7.21l-3.34-5.75l3.34-5.75h7.21l3.34,5.75L361.29,330.95z M350.74,312.2l3.34-5.75h7.21l3.34,5.75l-3.34,5.75h-7.21L350.74,312.2
		z M376.22,318.7l-3.34,5.75h-7.21l-3.34-5.75l3.34-5.75h7.21L376.22,318.7z M376.22,305.7l-3.34,5.75h-7.21l-3.34-5.75l3.34-5.75
		h7.21L376.22,305.7z M376.22,292.7l-3.34,5.75h-7.21l-3.34-5.75l3.34-5.75h7.21L376.22,292.7z M376.22,279.69l-3.34,5.75h-7.21
		l-3.34-5.75l3.34-5.75h7.21L376.22,279.69z M376.22,266.7l-3.34,5.75h-7.21l-3.34-5.75l3.34-5.75h7.21L376.22,266.7z
		 M376.22,253.69l-3.34,5.75h-7.21l-3.34-5.75l3.34-5.75h7.21L376.22,253.69z M365.67,234.94h7.21l3.34,5.75l-3.34,5.75h-7.21
		l-3.34-5.75L365.67,234.94z M350.74,247.19l3.34-5.75h7.21l3.34,5.75l-3.34,5.75h-7.21L350.74,247.19z M350.74,260.19l3.34-5.75
		h7.21l3.34,5.75l-3.34,5.75h-7.21L350.74,260.19z M350.74,273.2l3.34-5.75h7.21l3.34,5.75l-3.34,5.75h-7.21L350.74,273.2z
		 M350.74,286.2l3.34-5.75h7.21l3.34,5.75l-3.34,5.75h-7.21L350.74,286.2z M354.08,293.45h7.21l3.34,5.75l-3.34,5.75h-7.21
		l-3.34-5.75L354.08,293.45z M339.15,305.7l3.34-5.75h7.21l3.34,5.75l-3.34,5.75h-7.21L339.15,305.7z M339.16,318.7l3.34-5.75h7.21
		l3.34,5.75l-3.34,5.75h-7.21L339.16,318.7z M339.16,331.7l3.34-5.75h7.21l3.34,5.75l-3.34,5.75h-7.21L339.16,331.7z M339.16,344.7
		l3.34-5.75h7.21l3.34,5.75l-3.34,5.75h-7.21L339.16,344.7z M339.16,357.7l3.34-5.75h7.21l3.34,5.75l-3.34,5.75h-7.21L339.16,357.7z
		 M339.16,370.7l3.34-5.75h7.21l3.34,5.75l-3.34,5.75h-7.21L339.16,370.7z M339.16,383.7l3.34-5.75h7.21l3.34,5.75l-3.34,5.75h-7.21
		L339.16,383.7z M339.16,396.7l3.34-5.75h7.21l3.34,5.75l-3.34,5.75h-7.21L339.16,396.7z M342.49,403.95h7.21l3.34,5.75l-3.34,5.75
		h-7.21l-3.34-5.75L342.49,403.95z M327.57,416.2l3.34-5.75h7.21l3.34,5.75l-3.34,5.75h-7.21L327.57,416.2z M327.57,429.2l3.34-5.75
		h7.21l3.34,5.75l-3.34,5.75h-7.21L327.57,429.2z M327.57,442.2l3.34-5.75h7.21l3.34,5.75l-3.34,5.75h-7.21L327.57,442.2z
		 M327.57,455.2l3.34-5.75h7.21l3.34,5.75l-3.34,5.75h-7.21L327.57,455.2z M327.57,468.2l3.34-5.75h7.21l3.34,5.75l-3.34,5.75h-7.21
		L327.57,468.2z M327.57,481.2l3.34-5.75h7.21l3.34,5.75l-3.34,5.75h-7.21L327.57,481.2z M327.57,494.2l3.34-5.75h7.21l3.34,5.75
		l-3.34,5.75h-7.21L327.57,494.2z M327.57,507.2l3.34-5.75h7.21l3.34,5.75l-3.34,5.75h-7.21L327.57,507.2z M330.9,514.45h7.21
		l3.34,5.75l-3.34,5.75h-7.21l-3.34-5.75L330.9,514.45z M315.98,526.71l3.34-5.75h7.21l3.34,5.75l-3.34,5.75h-7.21L315.98,526.71z
		 M315.98,539.71l3.34-5.75h7.21l3.34,5.75l-3.34,5.75h-7.21L315.98,539.71z M315.98,552.71l3.34-5.75h7.21l3.34,5.75l-3.34,5.75
		h-7.21L315.98,552.71z M315.98,565.71l3.34-5.75h7.21l3.34,5.75l-3.34,5.75h-7.21L315.98,565.71z M315.98,578.71l3.34-5.75h7.21
		l3.34,5.75l-3.34,5.75h-7.21L315.98,578.71z M315.98,591.71l3.34-5.75h7.21l3.34,5.75l-3.34,5.75h-7.21L315.98,591.71z
		 M315.98,604.71l3.34-5.75h7.21l3.34,5.75l-3.34,5.75h-7.21L315.98,604.71z"/>
	
		<linearGradient id="SVGID_2_" gradientUnits="userSpaceOnUse" x1="9221.4502" y1="206.8528" x2="9221.4502" y2="609.3105" gradientTransform="matrix(-1 0 0 1 9357.7471 0)">
		<stop class="Gradient1 stopColor" offset="0" style="stop-color:#ECECEC;stop-opacity:0"/>
		<stop class="Colour1 fill stopColor" offset="1" style="stop-color:#101010"/>
	</linearGradient>
	<path class="Colour1 fill" d="M164.05,622.04l1.09,0.67l2.46-4.24h7.21l3.34,5.75l-2.76,4.76l0.07,0.04c0.43,0.04,0.87,0.08,1.3,0.13
		l2.08-3.58l-0.37-3.34l-2.62-4.51l1.79-3.08l-0.23-2.14l-2.59,4.46h-7.21l-3.34-5.75l3.34-5.75h7.21l2.24,3.86l-0.34-3.14
		l-0.86-1.48l0.58-1.01l-0.23-2.14l-1.39,2.39h-7.21l-3.34-5.75l3.34-5.75h7.21l0.48,0.82l-0.29-2.65l-0.19,0.32h-7.21l-3.34-5.75
		l3.34-5.75h6.17l-0.16-1.5h-6l-3.34-5.75l3.34-5.75h4.74l-0.16-1.5h-4.58l-3.34-5.75l3.34-5.75h3.31l-0.16-1.5h-3.15l-3.34-5.75
		l3.34-5.75h1.88l-0.16-1.5h-1.72l-3.34-5.75l3.34-5.75h0.45l-0.17-1.5h-0.29l-3.34-5.75l2.52-4.34l-0.23-2.14l-3.32,5.72h-7.21
		l-3.34-5.75l3.34-5.75h7.21l3.32,5.71l-0.34-3.14l-1.93-3.32l1.32-2.27l-0.23-2.14l-2.12,3.65h-7.21l-3.34-5.75l3.34-5.75h7.21
		l1.55,2.67l-0.35-3.14l-0.17-0.29l0.11-0.2l-0.23-2.14l-0.92,1.58h-7.21l-3.34-5.75l3.34-5.75h7.04l-0.16-1.5h-6.87l-3.34-5.75
		l3.34-5.75h5.61l-0.16-1.5h-5.45l-3.34-5.75l3.34-5.75h4.18l-0.16-1.5h-4.02l-3.34-5.75l3.34-5.75h2.75l-0.16-1.5h-2.59l-3.34-5.75
		l3.34-5.75h1.32l-0.17-1.5h-1.16l-3.34-5.75l3.25-5.6l-0.25-2.23l-3-5.17l2.05-3.53l-0.23-2.14l-2.85,4.91h-7.21l-3.34-5.75
		l3.34-5.75h7.21l2.63,4.52l-0.34-3.14l-1.24-2.14l0.84-1.46l-0.23-2.14l-1.65,2.84h-7.21l-3.34-5.75l3.34-5.75h7.21l0.86,1.48
		l-0.41-3.76l-0.45,0.77h-7.21l-3.34-5.75l3.34-5.75h6.48l-0.16-1.5h-6.32l-3.34-5.75l3.34-5.75h5.05l-0.16-1.5h-4.89l-3.34-5.75
		l3.34-5.75h3.62l-0.16-1.5h-3.46l-3.34-5.75l3.34-5.75h2.19l-0.16-1.5h-2.03l-3.34-5.75l3.34-5.75h0.76l-0.16-1.5h-0.6l-3.34-5.75
		l2.78-4.79l-0.46-4.23l-2.31-3.99l1.58-2.72l-0.23-2.14l-2.38,4.1h-7.21l-3.34-5.75l3.34-5.75h7.21l1.94,3.33l-0.34-3.14
		l-0.55-0.95l0.37-0.65l-0.23-2.14l-1.18,2.03h-7.21l-3.34-5.75l3.34-5.75h7.21l0.17,0.3l-0.2-1.8h-7.18l-3.34-5.75l3.34-5.75h5.92
		l-0.16-1.5h-5.76l-3.34-5.75l3.34-5.75h4.49l-0.17-1.5h-4.33l-3.34-5.75l0.93-1.61l-1.02-0.79l-0.96,1.65h-7.21l-3.34-5.75
		l1.93-3.32l-1.02-0.79l-1.95,3.36h-7.21l-3.34-5.75l2.92-5.03l-1.02-0.79l-2.94,5.07h-7.21l-3.34-5.75l3.34-5.75h1.86l-4.48-3.47
		l1.58,2.72l-2.98,5.13l-0.3,2.23l3.28,5.65l-2.52,4.35c0.09,0.64,0.19,1.32,0.29,2.04l3.27-5.64h7.21l3.34,5.75l-3.34,5.75h-7.21
		l-3.23-5.56c0.15,1.05,0.31,2.17,0.48,3.37l1.71,2.95l-1.04,1.8c0.09,0.66,0.19,1.36,0.29,2.05l1.8-3.1h7.21l3.34,5.75l-3.34,5.75
		h-7.21l-0.84-1.45c0.16,1.16,0.32,2.35,0.49,3.57l0.36-0.62h7.21l3.34,5.75l-3.34,5.75h-6.11c0.07,0.5,0.13,0.99,0.2,1.5h5.92
		l3.34,5.75l-3.34,5.75h-4.43c0.06,0.5,0.13,1,0.19,1.5h4.24l3.34,5.75l-3.34,5.75h-2.8c0.06,0.5,0.12,1,0.18,1.5h2.62l3.34,5.75
		l-3.34,5.75h-1.25c0.06,0.5,0.12,1,0.18,1.5h1.07l3.34,5.75l-3.14,5.41c0.1,0.9,0.2,1.8,0.3,2.7l2.84,4.89l-1.95,3.36
		c0.08,0.72,0.15,1.44,0.23,2.15l2.77-4.76h7.21l3.34,5.75l-3.34,5.75h-7.21l-2.52-4.33c0.11,1.03,0.21,2.06,0.31,3.08l1.16,2
		l-0.82,1.42c0.07,0.73,0.14,1.45,0.21,2.18l1.65-2.84h7.21l3.34,5.75l-3.34,5.75h-7.21l-0.99-1.71c0.13,1.43,0.26,2.85,0.38,4.26
		l0.61-1.05h7.21l3.34,5.75l-3.34,5.75h-6.95c0.04,0.5,0.08,1,0.12,1.5h6.83l3.34,5.75l-3.34,5.75h-6.02c0.03,0.5,0.06,1,0.09,1.5
		h5.93l3.34,5.75l-3.34,5.75h-5.36c0.02,0.5,0.04,1,0.06,1.5h5.3l3.34,5.75l-3.34,5.75h-5.08c0,0.5,0,1.01,0,1.5h5.09l3.34,5.75
		l-3.34,5.75h-5.58c-0.05,0.51-0.1,1.02-0.15,1.5h5.73l3.34,5.75l-3.34,5.75h-6.73l-0.04,1.5h6.77l3.34,5.75l-3.34,5.75h-7.08
		l-0.04,1.5h7.12l3.34,5.75l-3.34,5.75h-7.21l-0.21-0.36l-0.06,2.32l0.27-0.46h7.21l3.34,5.75l-3.34,5.75h-7.21l-0.54-0.93
		l-0.1,3.53l0.64-1.1h7.21l3.34,5.75l-3.34,5.75h-7.21l-0.88-1.51l-0.13,4.74l1.01-1.73h7.21l3.34,5.75l-3.34,5.75h-7.21l-1.21-2.09
		l-0.07,2.43l0.24,0.41l-0.26,0.45l-0.07,2.67l1.37-2.37h7.21l3.34,5.75l-3.34,5.75h-7.21l-1.55-2.67l-0.07,2.43l0.57,0.99
		l-0.63,1.08l-0.07,2.67l1.74-3h7.21l3.34,5.75l-3.34,5.75h-7.21l-1.88-3.24l-0.07,2.43l0.91,1.56l-1,1.72l-0.07,2.67l2.11-3.63
		h7.21l3.34,5.75l-3.34,5.75h-7.21l-2.22-3.82l-0.07,2.43l1.24,2.14l-1.36,2.35l-0.07,2.67l2.48-4.27h7.21l3.34,5.75l-3.34,5.75
		h-7.21l-2.55-4.4l-0.07,2.43l1.58,2.72l-1.73,2.98l-0.07,2.67l2.84-4.9h7.21l3.34,5.75l-3.34,5.75h-7.21l-2.89-4.98l-0.07,2.43
		l1.91,3.3l-2.1,3.62l-0.07,2.67l3.21-5.53h7.21l3.34,5.75l-3.34,5.75h-7.21l-3.22-5.55l-0.07,2.43l2.25,3.87l-2.47,4.25l-0.12,4.3
		l1.36,2.34l3.86,2.86h5.61l3.34,5.75l-0.36,0.61l1.03,0.76l0.36-0.63h7.21l3.34,5.75l-1.2,2.07l1.03,0.76l1.21-2.09h7.21l3.34,5.75
		l-2.01,3.46l1.09,0.67l1.96-3.38h7.21l3.34,5.75l-2.26,3.9l1.09,0.67l2.21-3.81h7.21l3.34,5.75L164.05,622.04z M141.09,598.21
		l3.34-5.75h7.21l3.34,5.75l-3.34,5.75h-7.21L141.09,598.21z M140.05,429.95l3.34,5.75l-3.34,5.75h-7.21l-3.34-5.75l3.34-5.75
		H140.05z M140.05,428.45h-7.21l-3.34-5.75l3.34-5.75h7.21l3.34,5.75L140.05,428.45z M140.05,442.95l3.34,5.75l-3.34,5.75h-7.21
		l-3.34-5.75l3.34-5.75H140.05z M140.05,455.95l3.34,5.75l-3.34,5.75h-7.21l-3.34-5.75l3.34-5.75H140.05z M140.05,468.95l3.34,5.75
		l-3.34,5.75h-7.21l-3.34-5.75l3.34-5.75H140.05z M140.05,481.95l3.34,5.75l-3.34,5.75h-7.21l-3.34-5.75l3.34-5.75H140.05z
		 M140.05,494.95l3.34,5.75l-3.34,5.75h-7.21l-3.34-5.75l3.34-5.75H140.05z M140.05,507.95l3.34,5.75l-3.34,5.75h-7.21l-3.34-5.75
		l3.34-5.75H140.05z M140.05,520.96l3.34,5.75l-3.34,5.75h-7.21l-3.34-5.75l3.34-5.75H140.05z M132.84,571.46l-3.34-5.75l3.34-5.75
		h7.21l3.34,5.75l-3.34,5.75H132.84z M132.84,572.96h7.21l3.34,5.75l-3.34,5.75h-7.21l-3.34-5.75L132.84,572.96z M129.5,552.71
		l3.34-5.75h7.21l3.34,5.75l-3.34,5.75h-7.21L129.5,552.71z M132.84,545.46l-3.34-5.75l3.34-5.75h7.21l3.34,5.75l-3.34,5.75H132.84z
		 M144.43,527.46h7.21l3.34,5.75l-3.34,5.75h-7.21l-3.34-5.75L144.43,527.46z M151.64,540.46l3.34,5.75l-3.34,5.75h-7.21l-3.34-5.75
		l3.34-5.75H151.64z M151.64,553.46l3.34,5.75l-3.34,5.75h-7.21l-3.34-5.75l3.34-5.75H151.64z M151.64,566.46l3.34,5.75l-3.34,5.75
		h-7.21l-3.34-5.75l3.34-5.75H151.64z M151.64,579.46l3.34,5.75l-3.34,5.75h-7.21l-3.34-5.75l3.34-5.75H151.64z M129.5,591.71
		l3.34-5.75h7.21l3.34,5.75l-3.34,5.75h-7.21L129.5,591.71z M117.91,585.21l3.34-5.75h7.21l3.34,5.75l-3.34,5.75h-7.21
		L117.91,585.21z M116.87,572.96l3.34,5.75l-3.34,5.75h-7.21l-3.34-5.75l3.34-5.75H116.87z M121.25,566.46h7.21l3.34,5.75
		l-3.34,5.75h-7.21l-3.34-5.75L121.25,566.46z M121.25,553.46h7.21l3.34,5.75l-3.34,5.75h-7.21l-3.34-5.75L121.25,553.46z
		 M121.25,540.46h7.21l3.34,5.75l-3.34,5.75h-7.21l-3.34-5.75L121.25,540.46z M121.25,527.46h7.21l3.34,5.75l-3.34,5.75h-7.21
		l-3.34-5.75L121.25,527.46z M121.25,514.45h7.21l3.34,5.75l-3.34,5.75h-7.21l-3.34-5.75L121.25,514.45z M121.25,501.45h7.21
		l3.34,5.75l-3.34,5.75h-7.21l-3.34-5.75L121.25,501.45z M121.25,488.45h7.21l3.34,5.75l-3.34,5.75h-7.21l-3.34-5.75L121.25,488.45z
		 M121.25,475.45h7.21l3.34,5.75l-3.34,5.75h-7.21l-3.34-5.75L121.25,475.45z M121.25,462.45h7.21l3.34,5.75l-3.34,5.75h-7.21
		l-3.34-5.75L121.25,462.45z M121.25,449.45h7.21l3.34,5.75l-3.34,5.75h-7.21l-3.34-5.75L121.25,449.45z M121.25,436.45h7.21
		l3.34,5.75l-3.34,5.75h-7.21l-3.34-5.75L121.25,436.45z M121.25,423.45h7.21l3.34,5.75l-3.34,5.75h-7.21l-3.34-5.75L121.25,423.45z
		 M121.25,410.45h7.21l3.34,5.75l-3.34,5.75h-7.21l-3.34-5.75L121.25,410.45z M121.25,397.45h7.21l3.34,5.75l-3.34,5.75h-7.21
		l-3.34-5.75L121.25,397.45z M121.25,384.45h7.21l3.34,5.75l-3.34,5.75h-7.21l-3.34-5.75L121.25,384.45z M121.25,371.45h7.21
		l3.34,5.75l-3.34,5.75h-7.21l-3.34-5.75L121.25,371.45z M121.25,358.45h7.21l3.34,5.75l-3.34,5.75h-7.21l-3.34-5.75L121.25,358.45z
		 M121.25,345.45h7.21l3.34,5.75l-3.34,5.75h-7.21l-3.34-5.75L121.25,345.45z M121.25,332.45h7.21l3.34,5.75l-3.34,5.75h-7.21
		l-3.34-5.75L121.25,332.45z M117.91,325.2l3.34-5.75h7.21l3.34,5.75l-3.34,5.75h-7.21L117.91,325.2z M128.46,317.95h-7.21
		l-3.34-5.75l3.34-5.75h7.21l3.34,5.75L128.46,317.95z M109.66,312.95h7.21l3.34,5.75l-3.34,5.75h-7.21l-3.34-5.75L109.66,312.95z
		 M109.66,299.95h7.21l3.34,5.75l-3.34,5.75h-7.21l-3.34-5.75L109.66,299.95z M109.66,286.95h7.21l3.34,5.75l-3.34,5.75h-7.21
		l-3.34-5.75L109.66,286.95z M109.66,273.95h7.21l3.34,5.75l-3.34,5.75h-7.21l-3.34-5.75L109.66,273.95z M109.66,260.94h7.21
		l3.34,5.75l-3.34,5.75h-7.21l-3.34-5.75L109.66,260.94z M109.66,247.94h7.21l3.34,5.75l-3.34,5.75h-7.21l-3.34-5.75L109.66,247.94z
		 M120.21,240.69l-3.34,5.75h-7.21l-3.34-5.75l3.34-5.75h7.21L120.21,240.69z M128.46,252.94h-7.21l-3.34-5.75l3.34-5.75h7.21
		l3.34,5.75L128.46,252.94z M128.46,265.94h-7.21l-3.34-5.75l3.34-5.75h7.21l3.34,5.75L128.46,265.94z M128.46,278.94h-7.21
		l-3.34-5.75l3.34-5.75h7.21l3.34,5.75L128.46,278.94z M128.46,291.95h-7.21l-3.34-5.75l3.34-5.75h7.21l3.34,5.75L128.46,291.95z
		 M131.8,299.2l-3.34,5.75h-7.21l-3.34-5.75l3.34-5.75h7.21L131.8,299.2z M140.05,311.45h-7.21l-3.34-5.75l3.34-5.75h7.21l3.34,5.75
		L140.05,311.45z M140.05,324.45h-7.21l-3.34-5.75l3.34-5.75h7.21l3.34,5.75L140.05,324.45z M140.05,337.45h-7.21l-3.34-5.75
		l3.34-5.75h7.21l3.34,5.75L140.05,337.45z M140.05,350.45h-7.21l-3.34-5.75l3.34-5.75h7.21l3.34,5.75L140.05,350.45z
		 M140.05,363.45h-7.21l-3.34-5.75l3.34-5.75h7.21l3.34,5.75L140.05,363.45z M140.05,376.45h-7.21l-3.34-5.75l3.34-5.75h7.21
		l3.34,5.75L140.05,376.45z M140.05,389.45h-7.21l-3.34-5.75l3.34-5.75h7.21l3.34,5.75L140.05,389.45z M140.05,402.45h-7.21
		l-3.34-5.75l3.34-5.75h7.21l3.34,5.75L140.05,402.45z M143.38,409.7l-3.34,5.75h-7.21l-3.34-5.75l3.34-5.75h7.21L143.38,409.7z
		 M151.64,421.95h-7.21l-3.34-5.75l3.34-5.75h7.21l3.34,5.75L151.64,421.95z M151.64,434.95h-7.21l-3.34-5.75l3.34-5.75h7.21
		l3.34,5.75L151.64,434.95z M151.64,447.95h-7.21l-3.34-5.75l3.34-5.75h7.21l3.34,5.75L151.64,447.95z M151.64,460.95h-7.21
		l-3.34-5.75l3.34-5.75h7.21l3.34,5.75L151.64,460.95z M151.64,473.95h-7.21l-3.34-5.75l3.34-5.75h7.21l3.34,5.75L151.64,473.95z
		 M151.64,486.95h-7.21l-3.34-5.75l3.34-5.75h7.21l3.34,5.75L151.64,486.95z M151.64,499.95h-7.21l-3.34-5.75l3.34-5.75h7.21
		l3.34,5.75L151.64,499.95z M151.64,512.95h-7.21l-3.34-5.75l3.34-5.75h7.21l3.34,5.75L151.64,512.95z M154.97,520.21l-3.34,5.75
		h-7.21l-3.34-5.75l3.34-5.75h7.21L154.97,520.21z M163.22,532.45h-7.21l-3.34-5.75l3.34-5.75h7.21l3.34,5.75L163.22,532.45z
		 M163.22,545.46h-7.21l-3.34-5.75l3.34-5.75h7.21l3.34,5.75L163.22,545.46z M163.22,558.46h-7.21l-3.34-5.75l3.34-5.75h7.21
		l3.34,5.75L163.22,558.46z M163.22,571.46h-7.21l-3.34-5.75l3.34-5.75h7.21l3.34,5.75L163.22,571.46z M163.22,584.46h-7.21
		l-3.34-5.75l3.34-5.75h7.21l3.34,5.75L163.22,584.46z M163.22,597.46h-7.21l-3.34-5.75l3.34-5.75h7.21l3.34,5.75L163.22,597.46z
		 M163.22,610.46h-7.21l-3.34-5.75l3.34-5.75h7.21l3.34,5.75L163.22,610.46z"/>
</g>
<g id="BBodyLogos"></g>
</svg>
