<?xml version="1.0" encoding="utf-8"?>
<!-- Generator: Adobe Illustrator 19.1.0, SVG Export Plug-In . SVG Version: 6.00 Build 0)  -->
<svg version="1.1" id="Layer_1" xmlns="http://www.w3.org/2000/svg" xmlns:xlink="http://www.w3.org/1999/xlink" x="0px" y="0px"
	 viewBox="0 0 483.01 645.44" style="enable-background:new 0 0 483.01 645.44;" xml:space="preserve">
<style type="text/css">
	<![CDATA[
	@font-face{font-family:'codaheavy';src:url('/fonts/coda-heavy-webfont.woff') format('woff')}
	text{font-family:Impact,codaheavy,sans-serif}
	.Number.fill{fill:#000}
	.NumberOutline.stroke{fill:none;stroke:#777;stroke-width:2.5}
	.Colour1.fill{fill:#7EB5B1;}
	.Colour2.fill{fill:#FFFFFF;}
	.ArmTrim.fill{fill:#7EB5B1;}
	.NeckTrim.fill{fill:#7EB5B1;}
	.BottomHem.fill{fill:#7EB5B1;stroke:#221915;stroke-width:0.8861;stroke-miterlimit:10;}
	.st0{fill:none;stroke:#000000;stroke-width:1;stroke-linecap:round;stroke-linejoin:round;}
	.st1{fill:none;stroke:#0A0505;stroke-width:0.328;stroke-miterlimit:10;}
	.st2{stroke:#221915;stroke-width:0.8861;stroke-miterlimit:10;}
	.st3{fill:none;stroke:#221915;stroke-width:0.934;stroke-miterlimit:10;}
	.st4{fill:none;stroke:#221915;stroke-width:0.6559;stroke-miterlimit:10;}
	.st5{fill:none;stroke:#000000;stroke-width:0.4411;}
	.st6{fill:#ffffff;stroke:#000000;stroke-width:2;stroke-miterlimit:10;}
	.st7{fill:none;stroke:#FFFFFF;stroke-width:0.216;stroke-dasharray:2.4,2.4,2.4,2.4;}
	.st8{fill:none;stroke:#FFFFFF;stroke-width:0.328;}
	.st9{fill:none;stroke:#221915;stroke-width:0.506;stroke-miterlimit:10;}
	]]>
</style>
<path class="Colour1 fill" d="M388,224.54c0,0-21.14,131.65-16.9,197.47c4.24,65.82,4.24,166.61,4.24,166.61h-0.19
	c0.52,0.62,1,1.21,1.41,1.75c0.43-0.16-14.54,1.62-32.16,16.07c-14.53,11.92-35.55,31.25-104.46,31.25
	c-68.92,0-89.93-19.33-104.47-31.25c-17.61-14.46-29.63-16.07-29.63-16.07c0.64-0.85-1.1-1.8-0.18-2.82
	c0.02-10.9,0.25-103.67,4.24-165.55C114.13,356.19,93,224.54,93,224.54l3.98-27.41C97.15,96.67,76.2,64.27,74.81,62.22
	c4.19-1.57,8.81-3.03,13.9-4.29c33.07-8.23,82.65-28.8,92.19-36l57.76-6.79h3.7l57.76,6.79c9.54,7.2,59.12,27.77,92.19,36
	c5.72,1.42,10.85,3.1,15.44,4.89c-3.19,5.1-21.96,39.2-21.79,134.32L388,224.54z M467.61,169c-1.06-12.34-9.61-58.62-27.62-86.39
	c0,0-9.54-11.53-32.03-20.11c0.02,0.2,0.03,0.31,0.03,0.31c-3.19,5.1-21.96,39.2-21.79,134.32l2.06,27.41c0,0,0.12,0.98,0.34,2.76
	c0.28-1.78,0.43-2.76,0.43-2.76l11.56,62.74c0,0,27.43-2.62,43.19-18.28c15.76-15.66,37.48-17.72,37.48-17.72
	S468.67,181.34,467.61,169z M82.45,287.28l10.98-59.55c-0.11-2.05-0.18-3.19-0.18-3.19l3.98-27.41
	C97.39,99.34,77.55,66.05,75.21,62.45c-22.59,8.59-32.16,20.16-32.16,20.16C25.03,110.38,16.48,156.66,15.42,169
	c-1.06,12.34-13.65,82.28-13.65,82.28s21.72,2.06,37.49,17.72C55.02,284.66,82.45,287.28,82.45,287.28z"/>
<g>
	<path class="st0" d="M377.04,590.37C377.04,590.37,377.04,590.37,377.04,590.37C377.06,590.37,377.06,590.37,377.04,590.37"/>
	<path class="st0" d="M388.73,224.54c0,0,0.12,0.98,0.34,2.76c0.28-1.78,0.43-2.76,0.43-2.76l11.56,62.74
		c0,0,27.43-2.62,43.19-18.28c15.76-15.66,37.48-17.72,37.48-17.72s-12.59-69.94-13.65-82.28c-1.06-12.34-9.61-58.62-27.62-86.39
		c0,0-9.54-11.53-32.03-20.11c0.02,0.2,0.03,0.31,0.03,0.31c-3.19,5.1-21.96,39.2-21.79,134.32L388.73,224.54z"/>
	<path class="st0" d="M75.49,62.53c-0.09-0.14-0.16-0.24-0.21-0.31c4.19-1.57,8.81-3.03,13.9-4.29c33.07-8.23,82.65-28.8,92.19-36
		l57.76-6.79h3.7l57.76,6.79c9.54,7.2,59.12,27.77,92.19,36c5.72,1.42,10.85,3.1,15.44,4.89c-3.19,5.1-21.96,39.2-21.79,134.32
		l2.06,27.41c0,0-21.14,131.65-16.9,197.47c4.24,65.82,4.24,166.61,4.24,166.61h-0.19c0.51,0.61,0.99,1.2,1.4,1.74"/>
	<path class="st0" d="M377.04,590.37c-0.53-0.03-15.1,2.09-32.15,16.08c-14.53,11.92-35.55,31.25-104.46,31.25
		c-68.92,0-89.93-19.33-104.47-31.25c-17.61-14.46-29.63-16.07-29.63-16.07c0.64-0.85-1.1-1.8-0.18-2.82
		c0.02-10.9,0.25-103.67,4.24-165.55c3.9-60.54-13.66-176.73-16.51-195.01"/>
	<path class="st0" d="M75.49,62.53c-22.45,8.58-31.97,20.08-31.97,20.08C25.51,110.38,16.96,156.66,15.9,169
		c-1.06,12.34-13.65,82.28-13.65,82.28s21.72,2.06,37.49,17.72c15.76,15.66,43.19,18.28,43.19,18.28l10.98-59.55
		c-0.01-0.26-0.03-0.5-0.04-0.73"/>
	<path class="st0" d="M75.49,62.53c2.57,3.98,22.14,37.49,21.97,134.6l-3.98,27.41c0,0,0.14,0.86,0.39,2.46"/>
	<path class="st0" d="M75.49,62.53c0.07-0.03,0.13-0.05,0.19-0.08c2.35,3.6,22.19,36.89,22.02,134.68l-3.98,27.41
		c0,0,0.05,0.87,0.14,2.46"/>
</g>
<path class="st1" d="M467.36,169c-1.06-12.34-9.61-58.62-27.62-86.39c0,0-13.61-16.46-46.67-24.69c-33.07-8.23-82.65-28.8-92.19-36
	l-57.76-6.79h-3.7l-57.76,6.79c-9.54,7.2-59.12,27.77-92.19,36C56.4,66.15,42.8,82.61,42.8,82.61
	C24.78,110.38,16.24,156.66,15.17,169c-1.06,12.34-13.65,82.28-13.65,82.28s21.72,2.06,37.49,17.72
	c15.76,15.66,43.19,18.28,43.19,18.28l11.56-62.74c0,0,21.14,131.65,16.9,197.47c-3.99,61.88-4.22,154.65-4.24,165.55
	c-0.92,1.01,0.82,1.97,0.18,2.82c0,0,12.02,1.62,29.63,16.07c14.54,11.92,35.55,31.25,104.47,31.25
	c68.91,0,89.93-19.33,104.46-31.25c17.62-14.46,32.59-16.24,32.16-16.07c-0.41-0.54-0.89-1.14-1.41-1.75h0.19
	c0,0,0-100.79-4.24-166.61c-4.24-65.83,16.9-197.47,16.9-197.47l11.56,62.74c0,0,27.43-2.62,43.19-18.28
	c15.76-15.66,37.48-17.72,37.48-17.72S468.43,181.34,467.36,169z"/>
<path class="Colour2 fill" d="M344.41,606.45c0.99-0.81,1.97-1.57,2.94-2.3c0.29-0.22,0.58-0.43,0.87-0.65c0.71-0.52,1.41-1.02,2.1-1.51
	c0.28-0.2,0.57-0.4,0.85-0.59c0.9-0.61,1.78-1.19,2.65-1.73c0.26-0.16,0.51-0.31,0.76-0.46c0.62-0.38,1.24-0.75,1.85-1.1
	c0.38-0.22,0.76-0.43,1.13-0.64c0.47-0.26,0.93-0.51,1.38-0.75c0.39-0.21,0.78-0.42,1.15-0.61c0.67-0.34,1.33-0.66,1.97-0.97
	c0.01-0.01,0.03-0.01,0.04-0.02V48.75l0,0c-27.35-9.46-55.11-21.63-62-26.83l-57.76-6.79h-3.7l-57.76,6.79
	c-6.82,5.15-34.15,17.15-61.26,26.57v547.2l0,0c1.49,0.8,3.07,1.71,4.76,2.76c0.35,0.22,0.71,0.45,1.08,0.68
	c0.4,0.26,0.79,0.51,1.2,0.78c0.77,0.51,1.54,1.04,2.34,1.6c0.19,0.14,0.39,0.29,0.59,0.43c0.72,0.52,1.46,1.06,2.21,1.62
	c0.27,0.2,0.53,0.4,0.8,0.61c0.94,0.72,1.89,1.47,2.87,2.27c14.54,11.92,35.55,31.25,104.47,31.25
	C308.86,637.7,329.87,618.37,344.41,606.45z"/>
<polygon class="st2" points="3.47,242.86 84.01,280.8 81.99,288.26 1.5,261.32 "/>
<polygon class="ArmTrim fill" points="3.47,242.86 84.01,280.8 81.99,288.26 1.5,261.32 "/>
<polygon class="st0" points="2.26,261.32 82.75,288.26 84.77,280.8 4.22,242.86 "/>
<polygon class="ArmTrim fill" points="479.54,242.82 398.88,280.82 400.9,288.3 481.5,261.31 "/>
<polygon class="st0" points="398.68,280.82 400.69,288.3 481.3,261.31 479.33,242.82 "/>
<polygon class="st3" points="479.54,242.82 398.88,280.82 400.9,288.3 481.5,261.31 "/>

<path class="NeckTrim fill" d="M178.48,13.95l18.96-5.3l1.01,12.94l-25.99,6.21C172.46,27.79,176.11,22.2,178.48,13.95"/>
<path class="st4" d="M178.48,13.95l18.96-5.3l1.01,12.94l-25.99,6.21C172.46,27.79,176.11,22.2,178.48,13.95z"/>
<path class="NeckTrim fill" d="M301.62,13.95l-20.67-5.3l-1.01,12.94l29.4,6.21C309.34,27.79,303.99,22.2,301.62,13.95"/>
<path class="st4" d="M301.62,13.95l-20.67-5.3l-1.01,12.94l29.4,6.21C309.34,27.79,303.99,22.2,301.62,13.95z"/>
<path class="st5" d="M75.5,62.11c0,0,22.43,31.09,22.25,135.02"/>
<path class="st5" d="M408.97,62.11c0,0-22.43,31.09-22.25,135.02"/>
<path class="st6" d="M246.79,643.72c-23.04,0-44.92-2.33-47.58-2.63c-24.82-1.12-61.42-29.97-62.97-31.2l-0.4-0.35
	c-4.35-4.2-19.61-11.91-28.2-15.79l-0.07-2.28l-0.52-10.33l5.06,2.28c2.43,1.09,23.76,10.82,31.12,17.7
	c10,7.9,39.08,28.01,56.62,28.69l0.4,0.03c0.56,0.06,56.55,6.23,83.58-0.77l0.79-0.14c0.23-0.03,24.48-2.9,47.74-21.61
	c2.48-2.48,21.83-21.42,38.4-24.31l5.45-0.95l0.61,11.13l-4.2,0.95c-11.56,2.01-27.51,16.14-32.69,21.41l-0.47,0.43
	c-24.51,19.83-49.59,23.66-53.27,24.13C275.36,642.85,260.86,643.72,246.79,643.72"/>
<path class="st7" d="M84.56,284.81c0,0-27.9-2.66-43.95-18.6c-16.04-15.94-38.14-18.03-38.14-18.03"/>
<path class="st7" d="M84.56,283.03c0,0-27.9-2.66-43.95-18.6C24.57,248.5,2.47,246.41,2.47,246.41"/>
<path class="st7" d="M398.94,282.32c0,0,27.9-2.66,43.95-18.6c16.04-15.94,38.14-18.03,38.14-18.03"/>
<path class="st7" d="M398.94,280.55c0,0,27.9-2.66,43.95-18.6c16.04-15.94,38.14-18.03,38.14-18.03"/>
<path class="st8" d="M89.28,95.02c0,0,124.22-32.47,305.43,0"/>
<path class="st7" d="M89.28,98.57c0,0,124.22-32.47,305.43,0"/>
<path class="st7" d="M89.28,100.35c0,0,124.22-32.47,305.43,0"/>
<path class="Colour1 fill" d="M247.68,637.6c1.61-0.04,3.2-0.07,4.75-0.13c0.42-0.02,0.81-0.04,1.22-0.06c1.57-0.06,3.13-0.13,4.64-0.22
	c0.29-0.02,0.56-0.04,0.85-0.06c1.61-0.1,3.21-0.2,4.75-0.32c0.17-0.01,0.34-0.03,0.51-0.04c1.64-0.13,3.26-0.27,4.84-0.43
	c0.09-0.01,0.17-0.02,0.26-0.03c1.65-0.17,3.27-0.34,4.84-0.54c0.01,0,0.03,0,0.04-0.01c3.29-0.4,6.43-0.86,9.42-1.38c0,0,0,0,0,0
	V20.01l-41.46-4.88h-3.7l-40.72,4.79V634.7c1.45,0.23,2.93,0.45,4.45,0.66c0.01,0,0.02,0,0.03,0c1.5,0.21,3.04,0.4,4.61,0.58
	c0.07,0.01,0.14,0.01,0.21,0.02c1.51,0.17,3.06,0.34,4.63,0.49c0.19,0.02,0.39,0.03,0.58,0.05c1.47,0.14,2.97,0.26,4.5,0.38
	c0.36,0.03,0.74,0.05,1.11,0.07c1.39,0.1,2.78,0.19,4.22,0.27c0.61,0.03,1.25,0.06,1.87,0.09c1.23,0.06,2.46,0.12,3.73,0.17
	c1,0.04,2.04,0.06,3.06,0.08c0.94,0.02,1.86,0.06,2.83,0.07c2.02,0.04,4.08,0.05,6.19,0.05c2.17,0,4.3-0.02,6.38-0.06
	C246.78,637.63,247.22,637.62,247.68,637.6z"/>
<path class="Colour2 fill" d="M93,224.54c0,0,0.16,1,0.44,2.82h294.12c0.28-1.83,0.44-2.82,0.44-2.82l-2.06-27.41
	c-0.04-23.04,1.04-42.47,2.73-58.8H94.26c1.69,16.33,2.76,35.77,2.72,58.8L93,224.54z"/>
<path class="NeckTrim fill" d="M289.59,10.88c-37.07-9.43-66.95-9.03-105.27,1.33l4.87,11.98c14.41-5.38,31.83-6.54,49.35-6.55
	c16.58,0,33.25,0.88,47.57,5.27L289.59,10.88z"/>
<path class="st9" d="M289.59,10.88c-37.07-9.43-66.95-9.03-105.27,1.33l4.87,11.98c14.41-5.38,31.83-6.54,49.35-6.55
	c16.58,0,33.25,0.88,47.57,5.27L289.59,10.88z"/>
<path class="NeckTrim fill" d="M178.86,16.34l0.75-4.66c3.34-1.24,65.32-21.76,123.79,0l0.75,4.66C244.76-5.77,179.46,16.11,178.86,16.34
	"/>
<g id="BBodyLogos"></g>
<path class="BottomHem fill" d="M246.79,643.72c-23.04,0-44.92-2.33-47.58-2.63c-24.82-1.12-61.42-29.97-62.97-31.2l-0.4-0.35
	c-4.35-4.2-19.61-11.91-28.2-15.79l-0.07-2.28l-0.52-10.33l5.06,2.28c2.43,1.09,23.76,10.82,31.12,17.7
	c10,7.9,39.08,28.01,56.62,28.69l0.4,0.03c0.56,0.06,56.55,6.23,83.58-0.77l0.79-0.14c0.23-0.03,24.48-2.9,47.74-21.61
	c2.48-2.48,21.83-21.42,38.4-24.31l5.45-0.95l0.61,11.13l-4.2,0.95c-11.56,2.01-27.51,16.14-32.69,21.41l-0.47,0.43
	c-24.51,19.83-49.59,23.66-53.27,24.13C275.36,642.85,260.86,643.72,246.79,643.72z"/>
<path class="st0" d="M178.86,15.95c0.6-0.22,65.9-22.11,125.29,0l-0.75-4.66c-58.46-21.76-120.45-1.24-123.79,0L178.86,15.95z"/>
</svg>
