<?xml version="1.0" encoding="utf-8"?>
<!-- Generator: Adobe Illustrator 19.1.0, SVG Export Plug-In . SVG Version: 6.00 Build 0)  -->
<svg version="1.1" id="Layer_1" xmlns="http://www.w3.org/2000/svg" xmlns:xlink="http://www.w3.org/1999/xlink" x="0px" y="0px"
	 viewBox="0 0 483.01 645.44" style="enable-background:new 0 0 483.01 645.44;" xml:space="preserve">
<style type="text/css">
	<![CDATA[
	@font-face{font-family:'codaheavy';src:url('/fonts/coda-heavy-webfont.woff') format('woff')}
	text{font-family:Impact,codaheavy,sans-serif}
	.Colour1.fill{fill:#0E1B34;}
	.Colour2.fill{fill:#F0B759;}
	.Colour3.fill{fill:#3D93D0;}
	.Colour4.fill{fill:#5EBCEA;}
	.Insert.fill{fill:#5EBCEA;}
	.ArmTrim.fill{fill:#F8B952;}
	.NeckTrim.fill{fill:#F0B759;}
	.BottomHem.fill{fill:#F0B759;stroke:#101010;stroke-width:0.8861;stroke-miterlimit:10;}
	.st0{fill:none;stroke:#000000;stroke-width:3;stroke-linecap:round;stroke-linejoin:round;}
	.st1{fill:none;stroke:#221915;stroke-width:0.216;stroke-linecap:round;stroke-linejoin:round;}
	.st2{fill:none;stroke:#0A0505;stroke-width:0.6559;stroke-miterlimit:10;}
	.st3{fill:none;stroke:#FFFFFF;stroke-width:0.328;}
	.st4{fill:none;stroke:#FFFFFF;stroke-width:0.216;stroke-dasharray:2.4,2.4,2.4,2.4;}
	.st5{fill:none;stroke:#101010;stroke-width:0.216;stroke-dasharray:2.4,2.4,2.4,2.4;}
	.st6{fill:#FFFFFF;}
	.st7{fill:none;stroke:#221915;stroke-width:0.233;stroke-miterlimit:10;}
	.st8{fill:none;stroke:#221915;stroke-width:0.36;stroke-miterlimit:10;}
	.st9{fill:#222457;}
	.st10{fill:#101010;}
	.st11{fill:none;stroke:#0A0505;stroke-width:0.233;stroke-miterlimit:10;}
	.st12{fill:none;}
	.st13{fill:#9E802E;}
	.st14{fill:none;stroke:#0A0505;stroke-width:0.2801;}
	.st15{fill:none;stroke:#000000;stroke-width:0.4411;}
	.st16{fill:#FFFFFF;stroke:#000000;stroke-width:2;stroke-miterlimit:10;}
	.white{fill:#ffffff;}
	]]>
</style>
<path class="Colour1 fill" d="M467.4,173.98c-1.06-12.37-9.6-58.76-27.61-86.6c0,0-13.6-16.49-46.64-24.74
	c-33.05-8.25-82.59-28.87-92.12-36.08l-57.72-7h-3.69l-57.72,7c-9.53,7.22-59.07,27.83-92.12,36.08
	c-33.05,8.25-46.64,24.74-46.64,24.74c-18,27.83-26.55,74.23-27.61,86.6c-1.06,12.37-13.64,82.47-13.64,82.47s21.7,2.06,37.46,17.76
	c15.76,15.7,43.16,18.32,43.16,18.32l11.55-62.89c0,0,21.13,131.96,16.89,197.94c-4.24,65.98-4.24,167-4.24,167h132.9h3.69h132.9
	c0,0,0-101.03-4.23-167c-4.23-65.98,16.89-197.94,16.89-197.94l11.55,62.89c0,0,27.41-2.62,43.16-18.32
	c15.75-15.7,37.46-17.76,37.46-17.76S468.46,186.35,467.4,173.98"/>
<path class="Colour1 fill" d="M411.89,68.54c0,0-22.42,31.16-22.23,135.34l-0.94,26.74"/>
<path class="Colour1 fill" d="M93.67,228.96l0.39-25.08C94.23,107.84,75.2,73.85,72.22,69.13"/>
<path class="Colour1 fill" d="M82.51,292.53l11.55-62.89c0,0,6.21-103.15-20.71-158.58l-1.58-2.48C51.72,77,43.14,87.38,43.14,87.38
	c-18,27.83-26.55,74.23-27.61,86.6c-1.06,12.37-13.64,82.47-13.64,82.47s21.7,2.06,37.46,17.76
	C55.11,289.91,82.51,292.53,82.51,292.53z"/>
<path class="Colour1 fill" d="M400.88,292.53l-11.55-62.89c0,0-6.21-103.15,20.71-158.58l1.58-2.48c20.06,8.41,28.63,18.8,28.63,18.8
	c18,27.83,26.55,74.23,27.61,86.6c1.06,12.37,13.64,82.47,13.64,82.47s-21.7,2.06-37.46,17.76
	C428.29,289.91,400.88,292.53,400.88,292.53z"/>
<path class="st0" d="M16.32,169.42c-0.02,0.15-0.04,0.29-0.06,0.43 M16.8,166.15c0.03-0.2,0.06-0.4,0.1-0.61 M18.11,158.66
	c-0.05,0.29-0.11,0.57-0.16,0.86 M16.8,166.15c-0.18,1.17-0.35,2.26-0.48,3.27 M20.11,149.11c-0.38,1.68-0.74,3.33-1.07,4.91
	 M72.02,68.59c-15.67,6.57-24.33,14.35-27.36,17.43 M17.95,159.51c-0.41,2.17-0.76,4.19-1.05,6.03 M19.04,154.02
	c-0.33,1.61-0.64,3.15-0.92,4.64 M43.67,87.08c-0.02,0.03-0.05,0.05-0.07,0.07 M44.65,86.03c0,0,0.01-0.01,0.01-0.01 M43.52,87.24
	c-0.02,0.02-0.04,0.04-0.05,0.06 M43.42,87.35c-0.01,0.01-0.02,0.02-0.02,0.03 M32.01,110.01c-0.7,1.75-1.38,3.5-2.03,5.27
	 M25.04,130.17c-0.7,2.35-1.35,4.67-1.97,6.96 M43.4,87.38C43.4,87.38,43.4,87.38,43.4,87.38c-4.34,6.71-8.13,14.5-11.39,22.63
	 M21.65,142.61c-0.55,2.23-1.07,4.4-1.54,6.5 M14.51,183.72c0.02-0.13,0.04-0.26,0.06-0.38 M13.46,190.55
	c0.09-0.59,0.18-1.16,0.27-1.73 M8.27,221.64c0.12-0.69,0.24-1.39,0.36-2.09 M9.14,216.57c0.84-4.9,1.67-9.84,2.46-14.56
	 M7.67,257.41c-3.4-0.76-5.51-0.96-5.51-0.96v0 M4.6,242.66c0.48-2.75,1.02-5.8,1.59-9.04 M6.47,231.98
	c0.38-2.2,0.78-4.49,1.18-6.82 M44.65,86.03c-0.46,0.46-0.78,0.82-0.99,1.05 M43.42,87.35c0.01-0.01,0.02-0.03,0.04-0.05
	 M29.98,115.28c-1.04,2.81-2.02,5.65-2.95,8.47 M27.03,123.75c-0.7,2.15-1.36,4.29-2,6.42 M23.07,137.13
	c-0.5,1.85-0.98,3.69-1.42,5.48 M15.23,178.74c-0.01,0.09-0.03,0.19-0.04,0.28 M43.52,87.24c0.02-0.03,0.05-0.06,0.08-0.09
	 M3.51,248.85c0.32-1.81,0.69-3.89,1.09-6.19 M92.53,239.41l1.79-9.76c0,0,21.13,131.96,16.89,197.94c-4.24,65.98-4.24,167-4.24,167
	h132.9h3.69h132.9c0,0,0-101.03-4.23-167c-4.23-65.98,16.89-197.94,16.89-197.94l11.55,62.89c0,0,0.17-0.02,0.46-0.05 M15.23,178.74
	c0.27-2.01,0.47-3.63,0.56-4.76c0.1-1.11,0.25-2.5,0.47-4.12 M12.96,193.66c0.17-1.06,0.34-2.1,0.5-3.12 M7.66,225.16
	c0.2-1.17,0.4-2.34,0.61-3.53 M14.57,183.33c0.23-1.57,0.44-3.02,0.62-4.31 M7.67,257.41c7.47,1.66,21.11,6.01,31.94,16.8
	c15.76,15.7,43.16,18.32,43.16,18.32l0,0 M11.88,200.29c0.28-1.71,0.56-3.39,0.82-5.01 M13.73,188.82c0.14-0.9,0.28-1.79,0.41-2.64
	 M92.53,239.41l-9.76,53.13 M8.63,219.55c0.17-0.99,0.34-1.98,0.51-2.97 M401.13,292.48c3.58-0.42,28.12-3.74,42.71-18.27
	c15.75-15.7,37.46-17.76,37.46-17.76s-12.58-70.1-13.64-82.47c-1.06-12.37-9.6-58.76-27.61-86.6c0,0-8.47-10.26-28.26-18.65
	 M14.14,186.18c0.13-0.85,0.26-1.67,0.37-2.47 M72.03,68.58C72.03,68.59,72.03,68.59,72.03,68.58 M2.15,256.45
	c0,0,0.52-2.89,1.36-7.61 M411.79,68.74c-5.3-2.24-11.4-4.35-18.37-6.1c-33.05-8.25-82.59-28.87-92.12-36.08l-57.72-7h-3.69
	l-57.72,7c-9.53,7.22-59.07,27.83-92.12,36.08c-6.82,1.7-12.79,3.76-18.01,5.94 M9.14,216.57c0.84-4.9,1.67-9.84,2.46-14.56
	 M44.65,86.03c0,0,0.01-0.01,0.01-0.01 M13.46,190.55c0.09-0.59,0.18-1.16,0.27-1.73 M32.01,110.01c-0.7,1.75-1.38,3.5-2.03,5.27
	 M43.42,87.35c-0.01,0.02-0.02,0.02-0.02,0.03 M43.67,87.08c-0.02,0.03-0.05,0.05-0.07,0.07 M43.52,87.24
	c-0.02,0.03-0.04,0.04-0.05,0.06 M14.57,183.33c0.23-1.57,0.44-3.02,0.62-4.31 M7.66,225.16c0.2-1.17,0.4-2.34,0.61-3.53
	 M3.51,248.85c0.32-1.81,0.69-3.9,1.09-6.19 M7.67,257.41c-3.39-0.76-5.51-0.96-5.51-0.96 M4.6,242.66c0.48-2.75,1.02-5.8,1.59-9.04
	 M14.14,186.18c0.13-0.85,0.26-1.67,0.37-2.47 M6.47,231.98c0.38-2.2,0.78-4.49,1.18-6.82 M2.15,256.45L2.15,256.45
	c0,0,0.52-2.89,1.36-7.61 M13.73,188.82c0.14-0.9,0.28-1.79,0.41-2.64 M12.96,193.66c0.17-1.06,0.34-2.1,0.5-3.12 M11.88,200.29
	c0.28-1.71,0.56-3.39,0.82-5.01 M8.63,219.55c0.17-0.99,0.34-1.98,0.51-2.97 M72.02,68.59C72.03,68.59,72.03,68.59,72.02,68.59
	L72.02,68.59 M8.27,221.64c0.12-0.69,0.24-1.39,0.36-2.09 M27.03,123.75c-0.7,2.15-1.36,4.29-2,6.42 M92.53,239.41l-9.76,53.13h0
	 M29.98,115.28c-1.04,2.81-2.02,5.65-2.95,8.47 M20.11,149.11c-0.38,1.68-0.74,3.33-1.07,4.91 M23.07,137.13
	c-0.5,1.85-0.98,3.69-1.42,5.48 M43.52,87.24c0.02-0.03,0.05-0.06,0.08-0.09 M44.65,86.03c-0.46,0.46-0.78,0.82-0.99,1.05
	 M72.02,68.59c-15.66,6.57-24.32,14.34-27.36,17.43 M19.04,154.02c-0.33,1.61-0.64,3.15-0.92,4.64 M43.42,87.35
	c0.01-0.01,0.03-0.03,0.04-0.05 M43.4,87.38C43.4,87.38,43.4,87.38,43.4,87.38c-4.34,6.71-8.13,14.5-11.39,22.63 M14.51,183.72
	c0.02-0.13,0.04-0.26,0.06-0.38 M18.11,158.66c-0.05,0.29-0.11,0.57-0.16,0.86 M15.23,178.74c-0.01,0.09-0.03,0.19-0.04,0.28
	 M17.95,159.51c-0.41,2.17-0.76,4.19-1.05,6.03 M25.04,130.17c-0.7,2.35-1.35,4.67-1.97,6.96 M21.65,142.61
	c-0.55,2.23-1.07,4.4-1.54,6.5 M16.8,166.15c0.03-0.2,0.06-0.4,0.1-0.61 M15.23,178.74c0.27-2.01,0.47-3.63,0.56-4.76
	c0.1-1.11,0.25-2.5,0.47-4.12 M16.8,166.15c-0.18,1.17-0.35,2.26-0.48,3.27 M16.26,169.86c0.02-0.14,0.04-0.29,0.06-0.43
	 M7.67,257.41c7.47,1.66,21.11,6.01,31.94,16.8c15.76,15.7,43.16,18.32,43.16,18.32 M12.7,195.27c0.09-0.54,0.17-1.08,0.26-1.61
	 M6.47,231.98c-0.1,0.55-0.19,1.1-0.29,1.64 M11.59,202.01c0.1-0.58,0.19-1.15,0.28-1.72 M401.13,292.48l0.01,0.05
	c0,0,27.41-2.62,43.16-18.32c15.75-15.7,37.46-17.76,37.46-17.76s-12.58-70.1-13.64-82.47c-1.06-12.37-9.61-58.76-27.61-86.6
	c0,0-8.58-10.39-28.63-18.8l-0.1,0.15"/>
<polygon class="Colour3 fill" points="360.08,187.11 243.65,221.14 127.22,186.28 243.65,222.03 "/>
<path class="Colour3 fill" d="M243.65,231.7L93.42,202.77c0,0.02,0,0.03,0,0.05l150.22,35.43l145.38-34.29c0-0.09,0-0.17,0-0.26
	L243.65,231.7z"/>
<polygon class="Colour3 fill" points="243.65,258.86 93.18,223.44 93.13,226.75 243.65,274.88 388.27,228.57 388.41,224.71 "/>
<path class="Colour2 fill" d="M98.89,179.47l146.59,34.58l144.04-33.98c0-0.04,0-0.07,0-0.11l-144.04,27.74L98.89,179.47z"/>
<polygon class="Colour3 fill" points="245.48,201.05 349.8,181.32 245.48,192.25 141.17,181.37 "/>
<path class="Colour3 fill" d="M300.35,164.04l90.35-4.12c0.19-2.46,0.4-4.86,0.61-7.2L300.35,164.04z"/>
<path class="Colour2 fill" d="M392.73,139.67l-93.47,15.57l92.99-11.57C392.41,142.32,392.57,140.98,392.73,139.67z"/>
<path class="Colour3 fill" d="M91.13,152.74c0.22,2.33,0.42,4.73,0.61,7.18l90.17,4.11L91.13,152.74z"/>
<polygon class="Colour2 fill" points="243.65,250.64 93.25,221.67 93.23,223.38 243.65,258.86 388.52,224.69 388.59,222.72 "/>
<path class="Colour2 fill" d="M89.72,139.7c0.16,1.31,0.32,2.65,0.48,4l92.8,11.54L89.72,139.7z"/>
<path class="st1" d="M321.23,62.03"/>
<path class="st1" d="M317.11,58.05"/>
<path class="st1" d="M309.05,62.32"/>
<path class="Colour1 fill" d="M136.28,609.18c14.53,11.95,35.52,31.32,104.39,31.32c68.87,0,89.86-19.37,104.39-31.32
	c11.77-9.69,22.37-13.7,27.96-15.24c1.94-0.53,2.58-2.93,1.2-4.39c-2.2-2.33-5.17-4.93-9.09-7.4c-7-4.44-10.54-8.63-37.83-11.19
	c-5.98-0.56-13.12-1.04-21.66-1.43c-15.54-0.71-38.26-0.88-64.97-0.88c-26.72,0-49.43,0.18-64.98,0.88
	c-8.54,0.39-15.68,0.86-21.65,1.43c-27.29,2.55-30.83,6.75-37.83,11.19c-3.92,2.48-6.9,5.09-9.11,7.42
	c-1.38,1.46-0.74,3.87,1.21,4.39C113.85,595.46,124.36,599.37,136.28,609.18"/>
<path class="st2" d="M136.28,609.18c14.53,11.95,35.52,31.32,104.39,31.32c68.87,0,89.86-19.37,104.39-31.32
	c11.45-9.43,21.79-13.48,27.49-15.11c2.14-0.61,2.88-3.27,1.33-4.87c-2.17-2.24-5.03-4.7-8.76-7.06c-7-4.44-10.54-8.63-37.83-11.19
	c-5.98-0.56-13.12-1.04-21.66-1.43c-15.54-0.71-38.26-0.88-64.97-0.88c-26.72,0-49.43,0.18-64.98,0.88
	c-8.54,0.39-15.68,0.86-21.65,1.43c-27.29,2.55-30.83,6.75-37.83,11.19c-3.73,2.36-6.6,4.83-8.77,7.07
	c-1.55,1.6-0.82,4.27,1.33,4.87C114.42,595.68,124.68,599.64,136.28,609.18z"/>
<line class="st3" x1="185.84" y1="57.37" x2="81.93" y2="95.22"/>
<line class="st4" x1="180.47" y1="56.67" x2="81.93" y2="91.73"/>
<line class="st4" x1="181.46" y1="57.95" x2="81.93" y2="93.76"/>
<line class="st3" x1="297.61" y1="57.37" x2="401.52" y2="95.22"/>
<line class="st4" x1="302.98" y1="56.67" x2="401.52" y2="91.73"/>
<line class="st4" x1="302.98" y1="58.42" x2="401.52" y2="93.47"/>
<path class="st4" d="M314.2,567.73l9.73-185.56c0,0,4.04-25.16,13.87-47.33c16.56-40.34,49.65-120.86,55.14-134.26"/>
<path class="st4" d="M169.32,567.73l-9.73-185.56c0,0-4.05-25.16-13.86-47.33c-16.57-40.34-49.65-120.86-55.14-134.26"/>
<path class="st4" d="M377.18,587.83c-2.2-2.95-5.99-7.09-12.06-10.92c-7.01-4.44-10.54-8.63-37.83-11.19
	c-5.98-0.56-13.12-1.04-21.66-1.43c-15.54-0.71-38.26-0.89-64.97-0.89c-26.72,0-49.44,0.18-64.98,0.89
	c-8.54,0.38-15.68,0.86-21.65,1.43c-27.29,2.56-30.83,6.75-37.83,11.19c-6.07,3.84-9.87,7.98-12.06,10.92"/>
<path class="st4" d="M377.18,584.34c-2.2-2.95-5.99-7.09-12.06-10.92c-7.01-4.44-10.54-8.63-37.83-11.19
	c-5.98-0.56-13.12-1.04-21.66-1.43c-15.54-0.71-38.26-0.89-64.97-0.89c-26.72,0-49.44,0.18-64.98,0.89
	c-8.54,0.38-15.68,0.86-21.65,1.43c-27.29,2.56-30.83,6.75-37.83,11.19c-6.07,3.84-9.87,7.98-12.06,10.92"/>
<path class="st5" d="M75.1,65.26c0,0,22.41,31.16,22.23,135.34"/>
<path class="st5" d="M408.29,65.26c0,0-22.41,31.16-22.23,135.34"/>
<path class="st1" d="M277.85,56.76"/>
<path class="st1" d="M269.77,61.05"/>
<path class="st6" d="M180.69,38.05c20.47-22.33,96.54-26.13,120.91-1.7l-6.26-13.38c-21.91-7.01-37.52-11.63-53.13-11.66
	c-15.61-0.03-31.22,4.52-53.13,11.53L180.69,38.05z"/>
<path class="st7" d="M180.69,38.05c20.47-22.33,96.54-26.13,120.91-1.7l-6.26-13.38c-21.91-7.01-37.52-11.63-53.13-11.66
	c-15.61-0.03-31.22,4.52-53.13,11.53L180.69,38.05z"/>
<path class="white" d="M192.54,21.39c10.93-3.81,27.89-8.29,48.97-8.29c21.07,0,38.02,4.48,48.95,8.29c0.37,7.1-0.26,17.42-6.41,26.59
	c-3.21,4.78-5.79,7.47-12.6,12.68c-8.34,6.38-17.75,14.74-20.48,22.2c-6.3,0-12.6,0-18.91,0c-2.9-7.21-7.2-11.02-10.03-13.69
	c-3.75-3.53-4.84-4.11-12.02-10.09c-4.66-3.88-7.08-5.92-9.45-9.51c-2.39-3.61-3.38-6.72-4.73-11.1
	C194.58,34.46,193.15,28.66,192.54,21.39z"/>
<path class="st1" d="M265.75,57.16"/>
<path class="st1" d="M257.9,61.33"/>
<path class="NeckTrim fill" d="M284.82,7.64c-31.33-8-56.59-7.65-88.97,1.13l4.12,10.16c12.18-4.56,26.89-5.55,41.71-5.55
	c14.01,0,28.1,0.75,40.2,4.47L284.82,7.64z"/>
<path class="st8" d="M284.82,7.64c-31.33-8-56.59-7.65-88.97,1.13l4.12,10.16c12.18-4.56,26.89-5.55,41.71-5.55
	c14.01,0,28.1,0.75,40.2,4.47L284.82,7.64z"/>
<path class="NeckTrim fill" d="M190.92,10.24l16.03-4.49l2.56,10.97l-19.33,5.27C190.17,21.98,188.92,17.23,190.92,10.24"/>
<path class="st8" d="M190.92,10.24l16.03-4.49l2.56,10.97l-19.33,5.27C190.17,21.98,188.92,17.23,190.92,10.24z"/>
<path class="NeckTrim fill" d="M293.55,10.24l-16.02-4.49l-2.56,10.97l19.33,5.27C294.3,21.98,295.55,17.23,293.55,10.24"/>
<path class="st8" d="M293.55,10.24l-16.02-4.49l-2.56,10.97l19.33,5.27C294.3,21.98,295.55,17.23,293.55,10.24z"/>
<path class="st10" d="M176.74,27.67l-10.57,5.17c0,0-3.09,13.97,12.45,28.83l8.9-3.39C187.52,58.28,176.96,48.19,176.74,27.67"/>
<path class="st10" d="M308.31,27.67l8.88,5.17c0,0,2.4,13.97-13.14,28.83l-4.81-3.39C299.23,58.28,308.09,48.19,308.31,27.67"/>
<path class="NeckTrim fill" d="M294.4,11.62L309,28.86c0,0,1.19,25.32-15.53,36.94c-4.5,3.12-16.63,11.04-21.51,13.99
	c-13.25,8.01-18.58,9.71-18.58,9.71s0.17-10.37,3.85-12.57c0,0,26.08-22.15,28.17-25.13C287.5,48.81,295.62,26.25,294.4,11.62"/>
<path class="st11" d="M294.4,11.62L309,28.86c0,0,1.19,25.32-15.53,36.94c-4.5,3.12-16.63,11.04-21.51,13.99
	c-13.25,8.01-18.58,9.71-18.58,9.71s0.17-10.37,3.85-12.57c0,0,26.08-22.15,28.17-25.13C287.5,48.81,295.62,26.25,294.4,11.62z"/>
<path class="NeckTrim fill" d="M188.87,11.62l-14.6,17.24c0,0-1.19,25.32,15.53,36.94c4.5,3.12,16.63,11.04,21.51,13.99
	c13.25,8.01,18.58,9.71,18.58,9.71s-0.17-10.37-3.85-12.57c0,0-26.08-22.15-28.17-25.13C195.77,48.81,187.65,26.25,188.87,11.62"/>
<path class="st11" d="M188.87,11.62l-14.6,17.24c0,0-1.19,25.32,15.53,36.94c4.5,3.12,16.63,11.04,21.51,13.99
	c13.25,8.01,18.58,9.71,18.58,9.71s-0.17-10.37-3.85-12.57c0,0-26.08-22.15-28.17-25.13C195.77,48.81,187.65,26.25,188.87,11.62z"/>
<path class="Insert fill" d="M229.88,81.83h22.99l-3.58,8.64c0,0-5.87,2.08-14.73,0L229.88,81.83z"/>
<path class="st12" d="M230.46,81.28h22.99l-3.58,8.64c0,0-5.87,2.08-14.73,0L230.46,81.28z"/>
<path class="st4" d="M165.55,33.14c1.07,17.69,13.06,30.02,13.06,30.02c21.34,21.07,46.5,31.22,46.5,31.22s8.73,1.78,14.04,1.78
	h4.16c5.31,0,14.04-1.78,14.04-1.78s25.15-10.15,46.5-31.22c0,0,11.98-12.33,13.05-30.02"/>
<path class="st4" d="M169.86,30.94c-1.49,11.32,10.13,28.68,10.13,28.68c21.34,21.07,46.61,31.49,46.61,31.49s8.24,2.28,13.54,2.28
	h2.16c5.31,0,13.54-2.28,13.54-2.28s25.27-10.42,46.61-31.49c0,0,11.62-17.36,10.13-28.68"/>
<path class="st13" d="M253.38,89.49c0.02-0.06,1.78-3.95,3.8-9.14c1.21-3.09,8.38-8.94,15.32-14.6c3.54-2.89,7.21-5.88,10.62-8.91
	c16.24-14.4,14.61-36.71,12.75-44.03c-0.8-3.15-7.02-5.72-18.49-7.64l-0.67,2.98c6.68,1.12,13.39,3.1,14.69,4.32
	c0.52,3.84-1.92,32.37-11.44,40.81c-3.33,2.96-6.96,5.92-10.47,8.78c-9.35,7.63-15.16,12.5-16.74,16.56
	c-2.11,5.41-3.87,11.7-3.95,11.97L253.38,89.49z"/>
<path class="NeckTrim fill" d="M253.38,89.49c0.02-0.06,1.78-3.95,3.8-9.14c1.21-3.09,8.38-8.94,15.32-14.6
	c3.54-2.89,7.21-5.88,10.62-8.91c16.24-14.4,14.61-36.71,12.75-44.03c-0.8-3.15-7.02-5.72-18.49-7.64l-0.67,2.98
	c6.68,1.12,13.39,3.1,14.69,4.32c0.52,3.84-1.92,32.37-11.44,40.81c-3.33,2.96-6.96,5.92-10.47,8.78
	c-9.35,7.63-15.16,12.5-16.74,16.56c-2.11,5.41-3.87,11.7-3.95,11.97L253.38,89.49z"/>
<path class="NeckTrim fill" d="M230.54,89.49c-0.02-0.06-1.78-3.95-3.8-9.14c-1.21-3.09-8.38-8.94-15.32-14.6
	c-3.55-2.89-7.21-5.88-10.62-8.91c-7.51-6.66-12.64-44.44-12.75-44.03c0.8-3.15,7.02-5.72,18.49-7.64l0.67,2.98
	c-6.68,1.12-13.39,3.1-14.69,4.32c-0.52,3.84,1.92,32.37,11.44,40.81c3.33,2.96,6.96,5.92,10.47,8.78
	c9.35,7.63,15.16,12.5,16.74,16.56c2.11,5.41,3.87,11.7,3.95,11.97L230.54,89.49z"/>
<path class="st14" d="M230.54,89.49c-0.02-0.06-1.78-3.95-3.8-9.14c-1.21-3.09-8.38-8.94-15.32-14.6
	c-3.55-2.89-7.21-5.88-10.62-8.91c-7.51-6.66-12.64-44.44-12.75-44.03c0.8-3.15,7.02-5.72,18.49-7.64l0.67,2.98
	c-6.68,1.12-13.39,3.1-14.69,4.32c-0.52,3.84,1.92,32.37,11.44,40.81c3.33,2.96,6.96,5.92,10.47,8.78
	c9.35,7.63,15.16,12.5,16.74,16.56c2.11,5.41,3.87,11.7,3.95,11.97L230.54,89.49z"/>
<path class="st15" d="M411.65,65.26c0,0-22.42,31.16-22.23,135.34l-0.94,26.74"/>
<path class="st15" d="M71.59,65.26c0,0,22.41,31.16,22.23,135.34l-0.39,25.08"/>
<path class="st16" d="M388.63,226.37L388.63,226.37c0,0-0.04,0.23-0.1,0.65C388.59,226.61,388.63,226.37,388.63,226.37z"/>
<path class="ArmTrim fill" d="M480.8,253.18c0,0-0.39-2.15-1.03-5.75l-81.85,29.54l2.26,12.29c0,0,0.24-0.02,0.68-0.08l36.33-13.11
	c2.18-1.53,4.25-3.24,6.16-5.13C459.09,255.24,480.8,253.18,480.8,253.18z"/>
<path class="Colour4 fill" d="M397.92,276.97l81.85-29.54c-0.57-3.18-1.33-7.49-2.2-12.48l-81.93,29.57L397.92,276.97z"/>
<path class="ArmTrim fill" d="M1.5,253.18c0,0,0.39-2.15,1.03-5.75l81.85,29.54l-2.26,12.29c0,0-0.24-0.02-0.68-0.08l-36.33-13.11
	c-2.18-1.53-4.25-3.24-6.16-5.13C23.21,255.24,1.5,253.18,1.5,253.18z"/>
<path class="Colour4 fill" d="M84.38,276.97L2.53,247.42c0.57-3.18,1.33-7.49,2.2-12.48l81.93,29.57L84.38,276.97z"/>
<path class="st4" d="M399.3,284.89c0,0,27.41-2.62,43.16-18.32c15.75-15.7,37.46-17.76,37.46-17.76"/>
<path class="st4" d="M399.3,283.14c0,0,27.41-2.62,43.16-18.32c15.75-15.7,37.46-17.76,37.46-17.76"/>
<path class="st4" d="M83.04,285.47c0,0-27.41-2.62-43.16-18.32c-15.75-15.7-37.46-17.76-37.46-17.76"/>
<path class="st4" d="M83.04,283.72c0,0-27.41-2.62-43.16-18.32c-15.75-15.7-37.46-17.76-37.46-17.76"/>
<g>
	<path class="st16" d="M388.63,226.37L388.63,226.37c0,0-0.04,0.23-0.1,0.65C388.59,226.61,388.63,226.37,388.63,226.37z"/>
</g>
<path class="BottomHem fill" d="M245.82,643.72c-22.89,0-44.64-2.3-47.27-2.59c-24.67-1.1-61.03-29.53-62.57-30.74l-0.4-0.35
	c-4.32-4.14-19.48-11.73-28.03-15.55l-1.52-2.25l0.94-10.18l5.03,2.25c2.41,1.08,23.61,10.66,30.92,17.44
	c9.94,7.78,38.83,27.59,56.26,28.27l0.39,0.03c0.56,0.06,56.19,6.14,83.05-0.76l0.78-0.14c0.23-0.03,24.33-2.86,47.43-21.29
	c2.47-2.45,21.7-21.1,38.16-23.95l5.41-0.94l1.85,10.97l-5.42,0.93c-11.49,1.98-27.34,15.9-32.48,21.09l-0.47,0.42
	c-24.35,19.53-49.27,23.31-52.93,23.77C274.21,642.86,259.8,643.72,245.82,643.72 M375.11,579.69l-10.34-9.28
	c-10.33-9.28-53.75-10.82-53.75-10.82H170.29c0,0-43.41,1.55-53.75,10.82l-10.34,9.28l-1.38,13.38c0,0,16.37-15.96,22.57-16.99
	c3.08-0.51,14.05-3.72,24.33-4.75c10.42-1.04,20.12-1.95,20.12-1.95h137.64c0,0,9.69,0.91,20.12,1.95
	c10.27,1.03,21.25,4.23,24.33,4.75c6.2,1.03,22.57,16.99,22.57,16.99L375.11,579.69z"/>
<path class="st4" d="M171.07,567.73l-9.73-185.56c0,0-4.05-25.16-13.87-47.33c-16.56-40.34-49.65-120.86-55.14-134.26"/>
<path class="st4" d="M312.45,567.73l9.73-185.56c0,0,4.04-25.16,13.86-47.33c16.57-40.34,49.65-120.86,55.14-134.26"/>
<g id="FBodyLogos"></g>
</svg>
