<?xml version="1.0" encoding="utf-8"?>
<!-- Generator: Adobe Illustrator 19.1.0, SVG Export Plug-In . SVG Version: 6.00 Build 0)  -->
<svg version="1.1" id="Layer_1" xmlns="http://www.w3.org/2000/svg" xmlns:xlink="http://www.w3.org/1999/xlink" x="0px" y="0px"
	 viewBox="0 0 483.01 645.44" style="enable-background:new 0 0 483.01 645.44;" xml:space="preserve">
<style type="text/css">
	<![CDATA[
	@font-face{font-family:'codaheavy';src:url('/fonts/coda-heavy-webfont.woff') format('woff')}
	text{font-family:Impact,codaheavy,sans-serif}
	.Number.fill{fill:#000}
	.NumberOutline.stroke{fill:none;stroke:#777;stroke-width:2.5}
	.Colour1.fill{fill:#8BC0E6;}
	.Colour2.fill{fill:#1B2941;}
	.ArmTrim.fill{fill:#1B2941;}
	.NeckTrim.fill{fill:#1B2941;}
	.BottomHem.fill{fill:#1B2941;stroke:#221915;stroke-width:0.8861;stroke-miterlimit:10;}
	.st0{fill:none;stroke:#000000;stroke-width:2;stroke-linecap:round;stroke-linejoin:round;}
	.st1{fill:none;stroke:#0A0505;stroke-width:0.328;stroke-miterlimit:10;}
	.st2{stroke:#221915;stroke-width:0.8861;stroke-miterlimit:10;}
	.st3{fill:#9C2321;stroke:#221915;stroke-width:0.934;stroke-miterlimit:10;}
	.st4{fill:none;stroke:#000000;stroke-linecap:round;stroke-linejoin:round;}
	.st5{fill:none;stroke:#221915;stroke-width:0.6559;stroke-miterlimit:10;}
	.st6{fill:none;stroke:#000000;stroke-width:0.4411;}
	.st7{fill:#C0773C;stroke:#000000;stroke-width:2;stroke-miterlimit:10;}
	.st8{fill:none;stroke:#FFFFFF;stroke-width:0.216;stroke-dasharray:2.4,2.4,2.4,2.4;}
	.st9{fill:none;stroke:#FFFFFF;stroke-width:0.328;}
	.st10{fill:none;stroke:#060606;stroke-width:0.216;stroke-dasharray:2.4,2.4,2.4,2.4;}
	.st11{fill:#FFFFFF;}
	.st12{fill:none;stroke:#221915;stroke-width:0.506;stroke-miterlimit:10;}
	.neckline{fill:none;stroke:#000000;stroke-width:0.6559;}
	]]>
</style>
<path class="Colour1 fill" d="M388.86,224.54c0,0-21.23,131.65-16.97,197.47c4.26,65.82,4.26,166.61,4.26,166.61h-0.19
	c0.52,0.62,1,1.21,1.41,1.75c0.43-0.16-14.6,1.62-32.29,16.07c-14.59,11.92-35.7,31.25-104.9,31.25
	c-69.21,0-90.31-19.33-104.9-31.25c-17.69-14.46-29.76-16.07-29.76-16.07c0.64-0.85-1.11-1.8-0.18-2.82
	c0.02-10.9,0.25-103.67,4.26-165.55c4.25-65.83-16.97-197.47-16.97-197.47l4-27.41C96.8,96.67,75.76,64.27,74.36,62.22
	c4.2-1.57,8.85-3.03,13.95-4.29c33.21-8.23,82.99-28.8,92.57-36l58-6.79h3.71l58,6.79c9.58,7.2,59.37,27.77,92.57,36
	c5.75,1.42,10.9,3.1,15.5,4.89c-3.2,5.1-22.05,39.2-21.88,134.32L388.86,224.54z M468.55,169c-1.06-12.34-9.65-58.62-27.74-86.39
	c0,0-9.58-11.53-32.17-20.11c0.02,0.2,0.03,0.31,0.03,0.31c-3.2,5.1-22.05,39.2-21.88,134.32l2.07,27.41c0,0,0.12,0.98,0.34,2.76
	c0.28-1.78,0.44-2.76,0.44-2.76l11.61,62.74c0,0,27.54-2.62,43.37-18.28c15.83-15.66,37.64-17.72,37.64-17.72
	S469.62,181.34,468.55,169z M81.79,287.28l11.02-59.55c-0.11-2.05-0.18-3.19-0.18-3.19l4-27.41C96.79,99.34,76.87,66.05,74.51,62.45
	c-22.68,8.59-32.3,20.16-32.3,20.16C24.13,110.38,15.54,156.66,14.48,169c-1.07,12.34-13.7,82.28-13.7,82.28s21.81,2.06,37.64,17.72
	C54.24,284.66,81.79,287.28,81.79,287.28z"/>
<g>
	<path class="st0" d="M80.67,74.22c-0.02-0.05-0.04-0.11-0.06-0.16"/>
	<path class="st0" d="M80.61,74.05c-0.13-0.32-0.25-0.64-0.38-0.95"/>
	<path class="st0" d="M80.23,73.1c-0.03-0.07-0.05-0.13-0.08-0.19"/>
	<path class="st0" d="M81.08,75.27c-0.14-0.36-0.27-0.71-0.41-1.06"/>
	<path class="st0" d="M81.13,75.39c-0.02-0.04-0.03-0.08-0.05-0.12"/>
	<path class="st0" d="M81.59,76.63c-0.01-0.03-0.02-0.06-0.03-0.08"/>
	<path class="st0" d="M81.56,76.55c-0.15-0.4-0.29-0.78-0.43-1.16"/>
	<path class="st0" d="M78.47,69c-0.1-0.21-0.19-0.41-0.28-0.61"/>
	<path class="st0" d="M78.97,70.1c-0.03-0.07-0.06-0.14-0.1-0.21"/>
	<path class="st0" d="M79.28,70.83c-0.11-0.25-0.21-0.49-0.32-0.73"/>
	<path class="st0" d="M78.57,69.22c-0.03-0.07-0.07-0.15-0.1-0.22"/>
	<path class="st0" d="M79.8,72.05c-0.03-0.07-0.06-0.15-0.09-0.22"/>
	<path class="st0" d="M80.15,72.91c-0.12-0.29-0.24-0.58-0.35-0.86"/>
	<path class="st0" d="M79.38,71.05c-0.03-0.07-0.06-0.14-0.09-0.22"/>
	<path class="st0" d="M79.71,71.83c-0.11-0.27-0.22-0.53-0.33-0.78"/>
	<path class="st0" d="M78.87,69.89c-0.1-0.23-0.2-0.45-0.3-0.67"/>
	<path class="st0" d="M89.17,104c-0.05-0.23-0.09-0.46-0.14-0.68"/>
	<path class="st0" d="M89.51,105.64c-0.11-0.56-0.22-1.1-0.34-1.64"/>
	<path class="st0" d="M88.67,101.64c-0.04-0.19-0.08-0.39-0.13-0.58"/>
	<path class="st0" d="M88.54,101.06c-0.13-0.57-0.25-1.13-0.38-1.69"/>
	<path class="st0" d="M86.56,92.75c-1.69-6.52-3.4-11.85-4.97-16.12"/>
	<path class="st0" d="M89.66,106.4c-0.05-0.25-0.1-0.51-0.15-0.76"/>
	<path class="st0" d="M89.98,108.05c-0.11-0.56-0.22-1.11-0.32-1.66"/>
	<path class="st0" d="M90.14,108.86c-0.05-0.27-0.1-0.54-0.15-0.81"/>
	<path class="st0" d="M87.06,94.72c-0.16-0.63-0.31-1.25-0.47-1.86"/>
	<path class="st0" d="M87.12,94.98c-0.02-0.09-0.04-0.17-0.06-0.26"/>
	<path class="st0" d="M88.17,99.37c-0.04-0.17-0.08-0.34-0.11-0.5"/>
	<path class="st0" d="M86.59,92.87c-0.01-0.04-0.02-0.08-0.03-0.12"/>
	<path class="st0" d="M88.05,98.87c-0.13-0.58-0.27-1.16-0.4-1.73"/>
	<path class="st0" d="M87.56,96.77c-0.14-0.6-0.29-1.2-0.43-1.78"/>
	<path class="st0" d="M87.65,97.15c-0.03-0.13-0.06-0.26-0.09-0.38"/>
	<path class="st0" d="M75.13,62.65c0.03,0.05,0.07,0.11,0.1,0.16"/>
	<path class="st0" d="M75.28,62.91c-0.02-0.03-0.04-0.06-0.05-0.09"/>
	<path class="st0" d="M75.23,62.82c-0.04-0.06-0.07-0.11-0.1-0.16"/>
	<path class="st0" d="M75.39,63.08c-0.04-0.06-0.07-0.12-0.11-0.17"/>
	<path class="st0" d="M75.47,63.2c-0.03-0.04-0.05-0.08-0.08-0.13"/>
	<path class="st0" d="M75.67,63.55c-0.03-0.06-0.07-0.11-0.1-0.17"/>
	<path class="st0" d="M75.57,63.38c-0.04-0.06-0.07-0.12-0.11-0.18"/>
	<path class="st0" d="M75.1,62.62c0.01,0.01,0.02,0.03,0.03,0.04"/>
	<path class="st0" d="M75.47,63.2c0.03,0.06,0.07,0.12,0.11,0.18"/>
	<path class="st0" d="M75.78,63.73c-0.04-0.06-0.07-0.12-0.11-0.18"/>
	<path class="st0" d="M75.39,63.08c0.03,0.04,0.05,0.08,0.08,0.13"/>
	<path class="st0" d="M78.19,68.39c-0.03-0.07-0.07-0.14-0.1-0.21"/>
	<path class="st0" d="M75.57,63.38c0.03,0.06,0.07,0.11,0.1,0.17"/>
	<path class="st0" d="M90.45,110.53c-0.1-0.56-0.21-1.12-0.31-1.67"/>
	<path class="st0" d="M75.28,62.91c0.03,0.05,0.07,0.11,0.11,0.17"/>
	<path class="st0" d="M75.23,62.82c0.02,0.03,0.04,0.06,0.05,0.09"/>
	<path class="st0" d="M75.1,62.62c0.01,0.01,0.02,0.03,0.03,0.04"/>
	<path class="st0" d="M77.47,66.91c-0.03-0.07-0.07-0.13-0.1-0.2"/>
	<path class="st0" d="M77.37,66.71c-0.08-0.16-0.16-0.31-0.23-0.46"/>
	<path class="st0" d="M75.9,63.95c-0.04-0.07-0.08-0.15-0.12-0.22"/>
	<path class="st0" d="M78.09,68.18c-0.09-0.19-0.18-0.38-0.27-0.56"/>
	<path class="st0" d="M77.04,66.05c-0.07-0.14-0.14-0.28-0.21-0.41"/>
	<path class="st0" d="M77.72,67.41c-0.08-0.17-0.17-0.34-0.25-0.51"/>
	<path class="st0" d="M77.82,67.62c-0.03-0.07-0.07-0.14-0.1-0.21"/>
	<path class="st0" d="M77.14,66.24c-0.03-0.07-0.07-0.13-0.1-0.2"/>
	<path class="st0" d="M76.16,64.39c-0.05-0.09-0.1-0.18-0.15-0.26"/>
	<path class="st0" d="M76.26,64.58c-0.03-0.06-0.07-0.13-0.1-0.19"/>
	<path class="st0" d="M76.01,64.13c-0.04-0.06-0.07-0.12-0.1-0.18"/>
	<path class="st0" d="M76.53,65.08c-0.03-0.06-0.07-0.12-0.1-0.18"/>
	<path class="st0" d="M76.43,64.9c-0.06-0.11-0.12-0.21-0.17-0.32"/>
	<path class="st0" d="M76.73,65.45c-0.07-0.13-0.13-0.25-0.19-0.36"/>
	<path class="st0" d="M76.83,65.64c-0.03-0.07-0.07-0.13-0.1-0.19"/>
	<path class="st0" d="M96.64,170.94c0.03,0.78,0.06,1.57,0.08,2.36"/>
	<path class="st0" d="M97.04,186.42c0.01,0.54,0.02,1.06,0.02,1.6"/>
	<path class="st0" d="M96.39,165.19c0.03,0.57,0.06,1.14,0.08,1.71"/>
	<path class="st0" d="M96.47,166.9c0.03,0.76,0.07,1.53,0.1,2.3"/>
	<path class="st0" d="M96.28,162.96c0.04,0.74,0.07,1.48,0.11,2.23"/>
	<path class="st0" d="M95.95,157.44c0.03,0.55,0.07,1.11,0.1,1.67"/>
	<path class="st0" d="M96.06,159.11c0.04,0.71,0.08,1.44,0.12,2.16"/>
	<path class="st0" d="M96.18,161.26c0.03,0.56,0.06,1.12,0.09,1.69"/>
	<path class="st0" d="M96.72,173.31c0.02,0.59,0.04,1.17,0.06,1.77"/>
	<path class="st0" d="M96.9,179.29c0.02,0.86,0.04,1.73,0.06,2.61"/>
	<path class="st0" d="M96.96,181.9c0.01,0.57,0.03,1.13,0.04,1.71"/>
	<path class="st0" d="M97,183.61c0.02,0.93,0.03,1.87,0.04,2.81"/>
	<path class="st0" d="M75.67,63.55c0.03,0.06,0.07,0.12,0.11,0.18"/>
	<path class="st0" d="M95.82,155.33c0.05,0.7,0.09,1.4,0.14,2.11"/>
	<path class="st0" d="M96.79,175.07c0.03,0.82,0.05,1.64,0.07,2.47"/>
	<path class="st0" d="M96.86,177.54c0.02,0.58,0.03,1.16,0.05,1.75"/>
	<path class="st0" d="M96.57,169.2c0.02,0.58,0.05,1.16,0.07,1.74"/>
	<path class="st0" d="M93.96,134.54c0.07,0.62,0.14,1.26,0.21,1.89"/>
	<path class="st0" d="M94.17,136.43c0.05,0.45,0.1,0.91,0.15,1.36"/>
	<path class="st0" d="M94.32,137.79c0.07,0.63,0.13,1.28,0.2,1.92"/>
	<path class="st0" d="M93.81,133.22c0.05,0.44,0.1,0.88,0.15,1.32"/>
	<path class="st0" d="M93.59,131.37c0.07,0.61,0.15,1.23,0.22,1.85"/>
	<path class="st0" d="M93.2,128.27c0.08,0.6,0.16,1.21,0.23,1.83"/>
	<path class="st0" d="M93.44,130.1c0.05,0.42,0.1,0.84,0.16,1.27"/>
	<path class="st0" d="M95.15,146.55c0.04,0.5,0.09,1,0.13,1.51"/>
	<path class="st0" d="M95.56,151.65c0.05,0.69,0.1,1.39,0.15,2.09"/>
	<path class="st0" d="M95.28,148.06c0.06,0.67,0.11,1.36,0.16,2.04"/>
	<path class="st0" d="M95.44,150.09c0.04,0.52,0.08,1.03,0.12,1.55"/>
	<path class="st0" d="M94.97,144.55c0.06,0.66,0.12,1.33,0.17,2"/>
	<path class="st0" d="M94.65,141.13c0.06,0.65,0.12,1.3,0.19,1.96"/>
	<path class="st0" d="M94.84,143.09c0.04,0.48,0.09,0.97,0.13,1.46"/>
	<path class="st0" d="M94.51,139.71c0.05,0.47,0.09,0.94,0.14,1.42"/>
	<path class="st0" d="M93.05,127.07c-0.08-0.6-0.16-1.2-0.24-1.8"/>
	<path class="st0" d="M92.8,125.27c-0.05-0.39-0.11-0.78-0.16-1.17"/>
	<path class="st0" d="M92.64,124.11c-0.08-0.59-0.17-1.17-0.25-1.75"/>
	<path class="st0" d="M93.05,127.07c-0.08-0.6-0.16-1.2-0.24-1.8"/>
	<path class="st0" d="M92.39,122.35c0.08,0.58,0.17,1.16,0.25,1.75"/>
	<path class="st0" d="M92.39,122.35c-0.05-0.38-0.11-0.75-0.16-1.12"/>
	<path class="st0" d="M92.22,121.23c0.06,0.37,0.11,0.74,0.16,1.12"/>
	<path class="st0" d="M97.06,188.02c0.01,1.09,0.02,2.19,0.03,3.29"/>
	<path class="st0" d="M90.61,111.42c-0.05-0.3-0.11-0.59-0.16-0.89"/>
	<path class="st0" d="M91.36,115.73c-0.09-0.57-0.19-1.13-0.29-1.69"/>
	<path class="st0" d="M91.07,114.03c-0.05-0.32-0.11-0.64-0.16-0.95"/>
	<path class="st0" d="M90.91,113.09c-0.1-0.56-0.2-1.12-0.3-1.67"/>
	<path class="st0" d="M91.52,116.73c-0.05-0.34-0.11-0.67-0.16-1"/>
	<path class="st0" d="M91.96,119.5c-0.05-0.35-0.11-0.71-0.16-1.05"/>
	<path class="st0" d="M92.22,121.23c-0.09-0.58-0.17-1.16-0.26-1.73"/>
	<path class="st0" d="M91.8,118.44c-0.09-0.58-0.18-1.15-0.27-1.71"/>
	<path class="st0" d="M92.64,124.11c0.05,0.39,0.11,0.78,0.16,1.17"/>
	<path class="st0" d="M89.66,106.4c0.11,0.55,0.22,1.1,0.32,1.66"/>
	<path class="st0" d="M90.14,108.86c0.1,0.55,0.21,1.1,0.31,1.67"/>
	<path class="st0" d="M89.51,105.64c0.05,0.25,0.1,0.5,0.15,0.76"/>
	<path class="st0" d="M89.98,108.05c0.05,0.27,0.1,0.54,0.15,0.81"/>
	<path class="st0" d="M97.09,191.31c0,0.4,0.01,0.8,0.01,1.21"/>
	<path class="st0" d="M89.17,104c0.11,0.54,0.23,1.09,0.34,1.64"/>
	<path class="st0" d="M89.03,103.31c0.05,0.23,0.09,0.46,0.14,0.68"/>
	<path class="st0" d="M91.96,119.5c0.09,0.57,0.18,1.15,0.26,1.73"/>
	<path class="st0" d="M91.52,116.73c0.09,0.57,0.18,1.14,0.27,1.71"/>
	<path class="st0" d="M91.36,115.73c0.06,0.33,0.11,0.67,0.16,1"/>
	<path class="st0" d="M91.8,118.44c0.06,0.35,0.11,0.7,0.16,1.05"/>
	<path class="st0" d="M90.61,111.42c0.1,0.55,0.2,1.11,0.3,1.67"/>
	<path class="st0" d="M90.45,110.53c0.05,0.29,0.11,0.59,0.16,0.89"/>
	<path class="st0" d="M91.07,114.03c0.1,0.56,0.19,1.12,0.29,1.69"/>
	<path class="st0" d="M90.91,113.09c0.05,0.31,0.11,0.63,0.16,0.95"/>
	<path class="st0" d="M95.71,153.73c0.04,0.53,0.08,1.06,0.11,1.6"/>
	<path class="st0" d="M387.7,171.96c-0.29,7.87-0.44,16.25-0.43,25.17l2.07,27.41"/>
	<path class="st0" d="M389.34,224.54c0,0-21.23,131.65-16.97,197.47c4.26,65.82,4.26,166.61,4.26,166.61h-0.19
		c0.52,0.61,1,1.2,1.4,1.74"/>
	<path class="st0" d="M377.85,590.37C377.85,590.37,377.85,590.37,377.85,590.37C377.87,590.37,377.87,590.37,377.85,590.37"/>
	<path class="st0" d="M377.85,590.37c-0.53-0.03-15.16,2.09-32.28,16.08c-14.59,11.92-35.7,31.25-104.9,31.25
		c-69.21,0-90.31-19.33-104.9-31.25C118.07,591.99,106,590.38,106,590.38c0.64-0.85-1.11-1.8-0.18-2.82
		c0.02-10.9,0.25-103.67,4.26-165.55c4.26-65.83-16.97-197.47-16.97-197.47"/>
	<path class="st0" d="M75.1,62.62c-0.12-0.18-0.21-0.32-0.26-0.4c4.2-1.57,8.85-3.03,13.95-4.29c33.21-8.23,82.99-28.8,92.57-36
		l58-6.79h3.71l58,6.79c9.58,7.2,59.37,27.77,92.57,36c5.75,1.42,10.9,3.1,15.5,4.89c-0.3,0.48-0.74,1.21-1.28,2.23"/>
	<path class="st0" d="M389.84,139.89c-0.11,1.07-0.21,2.15-0.31,3.24"/>
	<path class="st0" d="M389.53,143.13c-0.81,8.74-1.44,18.33-1.83,28.83"/>
	<path class="st0" d="M387.7,171.96c-0.29,7.87-0.44,16.25-0.43,25.17l2.07,27.41"/>
	<path class="st0" d="M97.04,186.42c-0.01-0.94-0.03-1.88-0.04-2.81"/>
	<path class="st0" d="M97.06,188.02c-0.01-0.54-0.02-1.07-0.02-1.6"/>
	<path class="st0" d="M407.87,65.04c0.55-1.01,0.98-1.75,1.28-2.23c0,0-0.01-0.11-0.03-0.31c22.59,8.58,32.17,20.11,32.17,20.11
		c18.08,27.77,26.68,74.05,27.74,86.39c1.07,12.34,13.71,82.28,13.71,82.28s-21.81,2.06-37.64,17.72
		c-15.83,15.66-43.37,18.28-43.37,18.28l-11.61-62.74c0,0-0.16,0.97-0.44,2.76c-0.22-1.78-0.34-2.76-0.34-2.76"/>
	<path class="st0" d="M97,183.61c-0.01-0.58-0.02-1.14-0.04-1.71"/>
	<path class="st0" d="M93.11,224.54l4-27.41c0-1.55,0-3.09-0.01-4.61"/>
	<path class="st0" d="M93.11,224.54l4-27.41c0-1.55,0-3.09-0.01-4.61"/>
	<path class="st0" d="M97.1,192.52c0-0.41-0.01-0.8-0.01-1.21"/>
	<path class="st0" d="M96.96,181.9c-0.02-0.87-0.04-1.75-0.06-2.61"/>
	<path class="st0" d="M97.09,191.31c-0.01-1.1-0.01-2.21-0.03-3.29"/>
	<path class="st0" d="M396,100.29c0.63-2.81,1.27-5.44,1.91-7.9"/>
	<path class="st0" d="M395.54,102.44c0.16-0.72,0.31-1.44,0.47-2.14"/>
	<path class="st0" d="M398.39,90.59c0.32-1.19,0.64-2.33,0.96-3.43"/>
	<path class="st0" d="M397.91,92.4c0.16-0.61,0.32-1.22,0.48-1.81"/>
	<path class="st0" d="M393.28,114.18c0.14-0.84,0.29-1.67,0.44-2.49"/>
	<path class="st0" d="M405.93,68.95c0.25-0.53,0.48-1.03,0.71-1.5"/>
	<path class="st0" d="M394.61,106.92c0.3-1.54,0.61-3.04,0.92-4.49"/>
	<path class="st0" d="M393.72,111.69c0.29-1.64,0.59-3.22,0.9-4.77"/>
	<path class="st0" d="M404.36,72.57c0.28-0.68,0.55-1.31,0.81-1.92"/>
	<path class="st0" d="M403.94,73.61c0.14-0.36,0.28-0.7,0.42-1.04"/>
	<path class="st0" d="M405.17,70.66c0.26-0.6,0.52-1.17,0.76-1.71"/>
	<path class="st0" d="M399.35,87.15c0.32-1.1,0.64-2.16,0.96-3.18"/>
	<path class="st0" d="M75.78,63.73c0.04,0.07,0.08,0.14,0.12,0.22"/>
	<path class="st0" d="M400.31,83.97c0.63-2.04,1.26-3.92,1.87-5.64"/>
	<path class="st0" d="M402.18,78.33c0.3-0.86,0.6-1.69,0.9-2.47"/>
	<path class="st0" d="M93.05,127.07c0.05,0.4,0.11,0.8,0.16,1.2"/>
	<path class="st0" d="M94.51,139.71c-0.06-0.64-0.13-1.28-0.2-1.92"/>
	<path class="st0" d="M94.17,136.43c-0.07-0.63-0.14-1.26-0.21-1.89"/>
	<path class="st0" d="M94.65,141.13c-0.05-0.48-0.09-0.95-0.14-1.42"/>
	<path class="st0" d="M94.32,137.79c-0.05-0.46-0.1-0.91-0.15-1.36"/>
	<path class="st0" d="M95.15,146.55c-0.06-0.67-0.11-1.34-0.17-2"/>
	<path class="st0" d="M94.84,143.09c-0.06-0.66-0.12-1.31-0.19-1.96"/>
	<path class="st0" d="M95.28,148.06c-0.04-0.51-0.08-1.01-0.13-1.51"/>
	<path class="st0" d="M94.97,144.55c-0.04-0.49-0.09-0.97-0.13-1.46"/>
	<path class="st0" d="M93.96,134.54c-0.05-0.44-0.1-0.88-0.15-1.32"/>
	<path class="st0" d="M75.1,62.62c-0.04-0.06-0.07-0.12-0.11-0.16c-22.68,8.59-32.3,20.16-32.3,20.16
		C24.61,110.38,16.03,156.66,14.96,169c-1.07,12.34-13.7,82.28-13.7,82.28S23.07,253.34,38.9,269
		c15.83,15.66,43.37,18.28,43.37,18.28l11.02-59.55c-0.11-2.05-0.18-3.19-0.18-3.19"/>
	<path class="st0" d="M392.44,119.37c0.28-1.78,0.56-3.51,0.85-5.19"/>
	<path class="st0" d="M93.05,127.07c0.05,0.4,0.11,0.8,0.16,1.2"/>
	<path class="st0" d="M93.44,130.1c-0.08-0.61-0.15-1.22-0.23-1.83"/>
	<path class="st0" d="M93.81,133.22c-0.07-0.62-0.15-1.24-0.22-1.85"/>
	<path class="st0" d="M96.9,179.29c-0.01-0.59-0.03-1.17-0.05-1.75"/>
	<path class="st0" d="M93.59,131.37c-0.05-0.42-0.1-0.85-0.16-1.27"/>
	<path class="st0" d="M96.57,169.2c-0.03-0.77-0.06-1.54-0.1-2.3"/>
	<path class="st0" d="M96.39,165.19c-0.04-0.75-0.07-1.49-0.11-2.23"/>
	<path class="st0" d="M96.64,170.94c-0.02-0.59-0.05-1.16-0.07-1.74"/>
	<path class="st0" d="M96.47,166.9c-0.03-0.58-0.06-1.14-0.08-1.71"/>
	<path class="st0" d="M96.72,173.31c-0.03-0.79-0.05-1.58-0.08-2.36"/>
	<path class="st0" d="M96.86,177.54c-0.02-0.83-0.04-1.65-0.07-2.47"/>
	<path class="st0" d="M96.79,175.07c-0.02-0.59-0.04-1.18-0.06-1.77"/>
	<path class="st0" d="M96.18,161.26c-0.04-0.72-0.08-1.45-0.12-2.16"/>
	<path class="st0" d="M96.28,162.96c-0.03-0.57-0.06-1.13-0.09-1.69"/>
	<path class="st0" d="M95.71,153.73c-0.05-0.7-0.1-1.4-0.15-2.09"/>
	<path class="st0" d="M95.56,151.65c-0.04-0.52-0.08-1.04-0.12-1.55"/>
	<path class="st0" d="M95.82,155.33c-0.04-0.54-0.07-1.07-0.11-1.6"/>
	<path class="st0" d="M95.44,150.09c-0.05-0.68-0.11-1.37-0.16-2.04"/>
	<path class="st0" d="M96.06,159.11c-0.03-0.56-0.07-1.11-0.1-1.67"/>
	<path class="st0" d="M95.95,157.44c-0.04-0.71-0.09-1.41-0.14-2.11"/>
	<path class="st0" d="M403.08,75.86c0.29-0.79,0.58-1.53,0.87-2.25"/>
	<path class="st0" d="M79.28,70.83c0.03,0.07,0.06,0.14,0.09,0.22"/>
	<path class="st0" d="M79.38,71.05c0.11,0.25,0.22,0.52,0.33,0.78"/>
	<path class="st0" d="M81.56,76.55c0.01,0.03,0.02,0.05,0.03,0.08"/>
	<path class="st0" d="M78.87,69.89c0.03,0.07,0.06,0.14,0.1,0.21"/>
	<path class="st0" d="M391.63,124.86c0.26-1.88,0.53-3.71,0.8-5.49"/>
	<path class="st0" d="M79.71,71.83c0.03,0.07,0.06,0.15,0.09,0.22"/>
	<path class="st0" d="M78.57,69.22c0.1,0.22,0.2,0.44,0.3,0.67"/>
	<path class="st0" d="M80.15,72.91c0.03,0.07,0.05,0.13,0.08,0.19"/>
	<path class="st0" d="M80.67,74.22c0.13,0.34,0.27,0.7,0.41,1.06"/>
	<path class="st0" d="M81.08,75.27c0.02,0.04,0.03,0.08,0.05,0.12"/>
	<path class="st0" d="M81.13,75.39c0.14,0.38,0.29,0.76,0.43,1.16"/>
	<path class="st0" d="M79.8,72.05c0.12,0.28,0.23,0.57,0.35,0.86"/>
	<path class="st0" d="M78.19,68.39c0.09,0.2,0.19,0.4,0.28,0.61"/>
	<path class="st0" d="M80.23,73.1c0.13,0.31,0.25,0.63,0.38,0.95"/>
	<path class="st0" d="M80.61,74.05c0.02,0.05,0.04,0.11,0.06,0.16"/>
	<path class="st0" d="M78.97,70.1c0.1,0.24,0.21,0.48,0.32,0.73"/>
	<path class="st0" d="M76.43,64.9c0.03,0.06,0.07,0.12,0.1,0.18"/>
	<path class="st0" d="M78.09,68.18c0.03,0.07,0.07,0.14,0.1,0.21"/>
	<path class="st0" d="M76.53,65.08c0.06,0.12,0.13,0.24,0.19,0.36"/>
	<path class="st0" d="M76.01,64.13c0.05,0.09,0.1,0.17,0.15,0.26"/>
	<path class="st0" d="M75.9,63.95c0.03,0.06,0.07,0.12,0.1,0.18"/>
	<path class="st0" d="M76.73,65.45c0.03,0.06,0.07,0.13,0.1,0.19"/>
	<path class="st0" d="M76.16,64.39c0.03,0.06,0.07,0.12,0.1,0.19"/>
	<path class="st0" d="M76.26,64.58c0.06,0.1,0.11,0.21,0.17,0.32"/>
	<path class="st0" d="M77.47,66.91c0.08,0.16,0.16,0.33,0.25,0.51"/>
	<path class="st0" d="M76.83,65.64c0.07,0.13,0.14,0.27,0.21,0.41"/>
	<path class="st0" d="M77.82,67.62c0.09,0.18,0.18,0.37,0.27,0.56"/>
	<path class="st0" d="M77.72,67.41c0.03,0.07,0.07,0.14,0.1,0.21"/>
	<path class="st0" d="M77.37,66.71c0.03,0.07,0.07,0.13,0.1,0.2"/>
	<path class="st0" d="M77.04,66.05c0.03,0.06,0.07,0.13,0.1,0.2"/>
	<path class="st0" d="M77.14,66.24c0.08,0.15,0.15,0.3,0.23,0.46"/>
	<path class="st0" d="M78.47,69c0.03,0.07,0.07,0.14,0.1,0.22"/>
	<path class="st0" d="M405.17,70.66c-0.26,0.6-0.53,1.24-0.81,1.92"/>
	<path class="st0" d="M397.91,92.4c-0.64,2.46-1.28,5.09-1.91,7.9"/>
	<path class="st0" d="M394.61,106.92c-0.3,1.54-0.6,3.13-0.9,4.77"/>
	<path class="st0" d="M395.54,102.44c-0.31,1.45-0.62,2.95-0.92,4.49"/>
	<path class="st0" d="M400.31,83.97c-0.32,1.02-0.64,2.08-0.96,3.18"/>
	<path class="st0" d="M403.94,73.61c-0.28,0.71-0.57,1.46-0.87,2.25"/>
	<path class="st0" d="M403.08,75.86c-0.29,0.79-0.59,1.61-0.9,2.47"/>
	<path class="st0" d="M399.35,87.15c-0.32,1.1-0.64,2.25-0.96,3.43"/>
	<path class="st0" d="M390.52,133.65c0.23-2.03,0.48-4.01,0.73-5.94"/>
	<path class="st0" d="M389.84,139.89c0.21-2.13,0.44-4.21,0.67-6.24"/>
	<path class="st0" d="M391.25,127.71c0.13-0.96,0.25-1.92,0.38-2.86"/>
	<path class="st0" d="M393.28,114.18c-0.29,1.68-0.57,3.41-0.85,5.19"/>
	<path class="st0" d="M81.59,76.63c1.57,4.27,3.28,9.6,4.97,16.12"/>
	<path class="st0" d="M389.84,139.89c0.21-2.13,0.44-4.21,0.67-6.24"/>
	<path class="st0" d="M391.25,127.71c-0.25,1.93-0.5,3.91-0.73,5.94"/>
	<path class="st0" d="M392.44,119.37c-0.28,1.78-0.54,3.61-0.8,5.49"/>
	<path class="st0" d="M405.93,68.95c-0.25,0.53-0.5,1.1-0.76,1.71"/>
	<path class="st0" d="M87.65,97.15c0.13,0.57,0.27,1.14,0.4,1.73"/>
	<path class="st0" d="M88.05,98.87c0.04,0.17,0.08,0.34,0.11,0.5"/>
	<path class="st0" d="M87.12,94.98c0.15,0.59,0.29,1.18,0.43,1.78"/>
	<path class="st0" d="M87.06,94.72c0.02,0.08,0.04,0.17,0.06,0.26"/>
	<path class="st0" d="M86.56,92.75c0.01,0.04,0.02,0.08,0.03,0.12"/>
	<path class="st0" d="M86.59,92.87c0.16,0.61,0.31,1.23,0.47,1.86"/>
	<path class="st0" d="M87.56,96.77c0.03,0.13,0.06,0.26,0.09,0.38"/>
	<path class="st0" d="M88.17,99.37c0.13,0.56,0.25,1.12,0.38,1.69"/>
	<path class="st0" d="M387.7,171.96c0.39-10.49,1.02-20.08,1.83-28.83"/>
	<path class="st0" d="M407.87,65.04c-0.36,0.68-0.78,1.48-1.23,2.41"/>
	<path class="st0" d="M407.87,65.04c-0.36,0.68-0.78,1.48-1.23,2.41"/>
	<path class="st0" d="M89.03,103.31c-0.12-0.56-0.24-1.12-0.36-1.67"/>
	<path class="st0" d="M88.54,101.06c0.04,0.19,0.08,0.39,0.13,0.58"/>
	<path class="st0" d="M89.03,103.31c-0.12-0.56-0.24-1.12-0.36-1.67"/>
</g>
<path class="st1" d="M468.31,169c-1.06-12.34-9.65-58.62-27.74-86.39c0,0-13.66-16.46-46.87-24.69c-33.2-8.23-83-28.8-92.57-36
	l-58-6.79h-3.71l-58,6.79c-9.58,7.2-59.36,27.77-92.57,36c-33.21,8.23-46.87,24.69-46.87,24.69C23.88,110.38,15.3,156.66,14.23,169
	c-1.07,12.34-13.71,82.28-13.71,82.28s21.81,2.06,37.64,17.72c15.83,15.66,43.37,18.28,43.37,18.28l11.61-62.74
	c0,0,21.23,131.65,16.97,197.47c-4,61.88-4.24,154.65-4.26,165.55c-0.92,1.01,0.82,1.97,0.18,2.82c0,0,12.07,1.62,29.76,16.07
	c14.6,11.92,35.7,31.25,104.9,31.25c69.2,0,90.31-19.33,104.9-31.25c17.69-14.46,32.72-16.24,32.29-16.07
	c-0.41-0.54-0.89-1.14-1.41-1.75h0.19c0,0,0-100.79-4.26-166.61c-4.26-65.83,16.97-197.47,16.97-197.47L401,287.28
	c0,0,27.54-2.62,43.37-18.28c15.83-15.66,37.64-17.72,37.64-17.72S469.37,181.34,468.31,169z"/>
<polygon class="st2" points="2.48,242.86 83.35,280.8 81.33,288.26 0.5,261.32 "/>
<polygon class="st3" points="480.53,242.82 399.54,280.82 401.57,288.3 482.5,261.31 "/>
<path class="ArmTrim fill" d="M2.48,242.86l80.88,37.94l-2.02,7.46L0.5,261.32L2.48,242.86z M480.53,242.82l-80.99,37.99l2.03,7.48
	l80.94-26.99L480.53,242.82z"/>
<g>
	<polygon class="st4" points="399.54,279.98 401.57,287.46 482.5,260.47 480.53,241.98 	"/>
	<polygon class="st4" points="0.5,260.48 81.33,287.42 83.35,279.96 2.48,242.02 	"/>
</g>
<path class="NeckTrim fill" d="M178.21,13.95l19.04-5.3l1.02,12.94l-26.1,6.21C172.17,27.79,175.84,22.2,178.21,13.95"/>
<path class="st5" d="M178.21,13.95l19.04-5.3l1.02,12.94l-26.1,6.21C172.17,27.79,175.84,22.2,178.21,13.95z"/>
<path class="NeckTrim fill" d="M301.88,13.95l-20.76-5.3l-1.01,12.94l29.52,6.21C309.63,27.79,304.25,22.2,301.88,13.95"/>
<path class="st5" d="M301.88,13.95l-20.76-5.3l-1.01,12.94l29.52,6.21C309.63,27.79,304.25,22.2,301.88,13.95z"/>
<path class="st6" d="M74.81,62.11c0,0,22.52,31.09,22.34,135.02"/>
<path class="st6" d="M409.66,62.11c0,0-22.53,31.09-22.34,135.02"/>
<path class="st7" d="M246.81,643.72c-23.14,0-45.11-2.33-47.78-2.63c-24.92-1.12-61.67-29.97-63.23-31.2l-0.4-0.35
	c-4.37-4.2-19.69-11.91-28.32-15.79l-0.07-2.28l-0.52-10.33l5.08,2.28c2.44,1.09,23.86,10.82,31.25,17.7
	c10.04,7.9,39.24,28.01,56.85,28.69l0.4,0.03c0.57,0.06,56.79,6.23,83.93-0.77l0.79-0.14c0.23-0.03,24.58-2.9,47.93-21.61
	c2.49-2.48,21.92-21.42,38.56-24.31l5.47-0.95l0.62,11.13l-4.22,0.95c-11.61,2.01-27.63,16.14-32.82,21.41l-0.47,0.43
	c-24.61,19.83-49.8,23.66-53.49,24.13C275.5,642.85,260.94,643.72,246.81,643.72"/>
<path class="st8" d="M83.9,284.81c0,0-28.02-2.66-44.13-18.6c-16.1-15.94-38.3-18.03-38.3-18.03"/>
<path class="st8" d="M83.9,283.03c0,0-28.02-2.66-44.13-18.6c-16.1-15.94-38.3-18.03-38.3-18.03"/>
<path class="st8" d="M399.6,282.32c0,0,28.02-2.66,44.13-18.6c16.1-15.94,38.3-18.03,38.3-18.03"/>
<path class="st8" d="M399.6,280.55c0,0,28.02-2.66,44.13-18.6c16.1-15.94,38.3-18.03,38.3-18.03"/>
<path class="st9" d="M88.65,95.02c0,0,124.74-32.47,306.7,0"/>
<path class="st10" d="M88.65,98.57c0,0,124.74-32.47,306.7,0"/>
<path class="st8" d="M88.65,100.35c0,0,124.74-32.47,306.7,0"/>
<path class="NeckTrim fill" d="M289.79,10.88c-37.23-9.43-67.23-9.03-105.71,1.33l4.89,11.98c14.47-5.38,31.96-6.54,49.56-6.55
	c16.64,0,33.39,0.88,47.77,5.27L289.79,10.88z"/>
<path class="st12" d="M289.79,10.88c-37.23-9.43-67.23-9.03-105.71,1.33l4.89,11.98c14.47-5.38,31.96-6.54,49.56-6.55
	c16.64,0,33.39,0.88,47.77,5.27L289.79,10.88z"/>
<path class="NeckTrim fill" d="M177.22,16.34l0.75-4.66c3.35-1.24,65.6-21.76,124.3,0l0.75,4.66C243.39-5.77,177.82,16.11,177.22,16.34"/>
<path class="neckline" d="M177.22,16.34c0.6-0.22,66.17-22.11,125.81,0l-0.75-4.66c-58.71-21.76-120.95-1.24-124.3,0L177.22,16.34z"/>
<path class="BottomHem fill" d="M246.81,643.72c-23.14,0-45.11-2.33-47.78-2.63c-24.92-1.12-61.67-29.97-63.23-31.2l-0.4-0.35
	c-4.37-4.2-19.69-11.91-28.32-15.79l-0.07-2.28l-0.52-10.33l5.08,2.28c2.44,1.09,23.86,10.82,31.25,17.7
	c10.04,7.9,39.24,28.01,56.85,28.69l0.4,0.03c0.57,0.06,56.79,6.23,83.93-0.77l0.79-0.14c0.23-0.03,24.58-2.9,47.93-21.61
	c2.49-2.48,21.92-21.42,38.56-24.31l5.47-0.95l0.62,11.13l-4.22,0.95c-11.61,2.01-27.63,16.14-32.82,21.41l-0.47,0.43
	c-24.61,19.83-49.8,23.66-53.49,24.13C275.5,642.85,260.94,643.72,246.81,643.72z"/>
<g id="BBodyLogos"></g>
</svg>
