<?xml version="1.0" encoding="utf-8"?>
<!-- Generator: Adobe Illustrator 19.1.0, SVG Export Plug-In . SVG Version: 6.00 Build 0)  -->
<svg version="1.1" id="Layer_1" xmlns="http://www.w3.org/2000/svg" xmlns:xlink="http://www.w3.org/1999/xlink" x="0px" y="0px"
	 viewBox="0 0 483.01 645.44" style="enable-background:new 0 0 483.01 645.44;" xml:space="preserve">
<style type="text/css">
	<![CDATA[
	@font-face{font-family:'codaheavy';src:url('/fonts/coda-heavy-webfont.woff') format('woff')}
	text{font-family:Impact,codaheavy,sans-serif}
	.Colour1.fill{fill:#C0773C;stroke:#000000;stroke-width:2;stroke-miterlimit:10;}
	.Colour2.fill{fill:#353F1C;stroke:#000000;stroke-width:0.25;stroke-miterlimit:10;}
	.ArmTrim.fill{fill:#C0773C;}
	.NeckTrim.fill{fill:#353F1C;}
	.BottomHem.fill{fill:#353F1C;stroke:#221915;stroke-width:0.8861;stroke-miterlimit:10;}
	.Insert.fill{fill:#353F1C;stroke:#000000;stroke-width:0.25;stroke-miterlimit:10;}
	.st0{fill:none;stroke:#000000;stroke-width:0.4411;}
	.st1{fill:none;stroke:#221915;stroke-width:0.216;stroke-linecap:round;stroke-linejoin:round;}
	.st2{stroke:#221915;stroke-width:0.8861;stroke-miterlimit:10;}
	.st3{fill:none;stroke:#221915;stroke-width:0.934;stroke-miterlimit:10;}
	.st4{fill:none;stroke:#0A0505;stroke-width:0.6559;stroke-miterlimit:10;}
	.st5{fill:none;stroke:#FFFFFF;stroke-width:0.328;}
	.st6{fill:none;stroke:#FFFFFF;stroke-width:0.216;stroke-dasharray:2.4,2.4,2.4,2.4;}
	.st7{fill:#C0773C;}
	.st8{fill:#FFFFFF;}
	.st9{fill:none;stroke:#221915;stroke-width:0.36;stroke-miterlimit:10;}
	.st10{fill:#4D4E4E;stroke:#000000;stroke-width:0.5;}
	.st11{fill:none;stroke:#0A0505;stroke-width:0.233;stroke-miterlimit:10;}
	.st12{fill:none;}
	.st13{fill:none;stroke:#0A0505;stroke-width:0.2801;}
	.st14{fill:none;stroke:#000000;stroke-width:0.28;stroke-linecap:round;stroke-linejoin:round;}
	]]>
</style>
<path class="Colour1 fill" d="M467.39,170.71c-1.06-12.37-9.61-58.76-27.62-86.6c0,0-13.6-16.49-46.65-24.74
	c-33.06-8.25-82.62-28.87-92.15-36.08l-57.74-7h-3.7l-57.74,7c-9.53,7.22-59.09,27.83-92.15,36.08C56.6,67.62,43,84.11,43,84.11
	c-18.01,27.83-26.55,74.23-27.62,86.6c-1.06,12.37-13.64,82.47-13.64,82.47s21.71,2.06,37.47,17.76
	c15.76,15.7,43.18,18.32,43.18,18.32l11.55-62.89c0,0,21.13,131.96,16.9,197.94c-4.24,65.98-4.24,167-4.24,167h132.94h3.7h132.94
	c0,0,0-101.03-4.24-167c-4.23-65.98,16.9-197.94,16.9-197.94l11.55,62.89c0,0,27.42-2.62,43.18-18.32
	c15.76-15.7,37.47-17.76,37.47-17.76S468.45,183.08,467.39,170.71"/>
<path class="st0" d="M411.86,65.26c0,0-22.42,31.16-22.24,135.34l-0.94,26.74"/>
<path class="st0" d="M93.55,225.68l0.39-25.08c0.17-96.04-18.87-130.02-21.85-134.75"/>
<path class="Colour1 fill" d="M82.39,289.26l11.55-62.89c0,0,6.21-103.15-20.72-158.58l-1.58-2.48C51.58,73.72,43,84.11,43,84.11
	c-18.01,27.83-26.55,74.23-27.62,86.6c-1.06,12.37-13.64,82.47-13.64,82.47s21.71,2.06,37.47,17.76
	C54.97,286.63,82.39,289.26,82.39,289.26z"/>
<path class="Colour1 fill" d="M400.86,289.26l-11.55-62.89c0,0-6.21-103.15,20.72-158.58l1.58-2.48c20.06,8.41,28.64,18.8,28.64,18.8
	c18.01,27.83,26.55,74.23,27.62,86.6c1.06,12.37,13.64,82.47,13.64,82.47s-21.71,2.06-37.47,17.76
	C428.27,286.63,400.86,289.26,400.86,289.26z"/>
<path class="Colour2 fill" d="M375.5,579.15c0.04,7.25,0.04,11.64,0.04,12.11H105.97c0-0.47,0-4.86,0.04-12.11H375.5z M110.21,424.31
	c-0.05,0.77-0.1,1.54-0.15,2.32h261.39c-0.05-0.78-0.1-1.55-0.15-2.32c-0.15-2.37-0.27-4.84-0.36-7.37H110.56
	C110.48,419.48,110.36,421.94,110.21,424.31z M374.75,517.42c-0.06-3.19-0.13-6.42-0.2-9.68H106.97c-0.07,3.27-0.14,6.5-0.2,9.68
	H374.75z M100.87,280.16h279.77c0.31-2.48,0.62-4.9,0.93-7.26H99.94C100.25,275.26,100.56,277.68,100.87,280.16z M110.71,411.35
	H370.8c-0.51-29.63,2.64-68.02,6.4-102.14H104.32C108.08,343.33,111.23,381.72,110.71,411.35z M109.07,444.79h263.37
	c-0.16-3.28-0.32-6.51-0.5-9.68H109.57C109.39,438.28,109.23,441.51,109.07,444.79z M103.08,298.31h275.35
	c0.29-2.45,0.57-4.88,0.86-7.26H102.22C102.51,293.44,102.79,295.86,103.08,298.31z M375.37,560.99H106.14
	c-0.04,4.44-0.07,8.49-0.1,12.11h269.42C375.44,569.49,375.41,565.43,375.37,560.99z M375.3,553.73c-0.03-3.1-0.07-6.33-0.12-9.68
	H106.33c-0.04,3.35-0.08,6.59-0.12,9.68H375.3z M106.45,535.57h268.61c-0.05-3.15-0.1-6.39-0.16-9.68H106.61
	C106.55,529.19,106.5,532.42,106.45,535.57z M374.09,489.57H107.42c-0.09,3.24-0.17,6.47-0.25,9.68h267.18
	C374.27,496.05,374.18,492.82,374.09,489.57z M373.53,471.42H107.98c-0.11,3.22-0.22,6.45-0.32,9.68h266.18
	C373.75,477.87,373.64,474.64,373.53,471.42z M108.29,462.94h264.93c-0.12-3.25-0.25-6.48-0.39-9.68H108.69
	C108.55,456.46,108.42,459.69,108.29,462.94z M98.49,262h284.53c0.34-2.53,0.68-4.95,1-7.26H97.49
	C97.82,257.05,98.15,259.47,98.49,262z M296.95,42.9h45.62c-4.16-1.62-8.2-3.24-12.03-4.84h-33.89L296.95,42.9z M238.12,38.05h-3.36
	l1.58,0.63L238.12,38.05z M392.49,59.37c-3.65-0.91-7.5-1.98-11.48-3.15H244.9l-8.97,3.15l-7.94-3.15H100.5
	c-3.97,1.18-7.83,2.24-11.48,3.15c-2.11,0.53-4.12,1.1-6.07,1.69h315.62C396.62,60.46,394.61,59.89,392.49,59.37z M194.4,42.9
	l-12.21-4.84h-31.21c-3.83,1.6-7.87,3.22-12.03,4.84H194.4z M399.13,97.37c0.42-1.69,0.85-3.3,1.27-4.84H81.9
	c0.42,1.54,0.85,3.15,1.27,4.84H399.13z M404.66,79.21c0.67-1.81,1.31-3.42,1.92-4.84H75.72c0.6,1.43,1.25,3.04,1.92,4.84H404.66z
	 M86.1,110.68c0.3,1.57,0.6,3.18,0.9,4.84H395.3c0.29-1.66,0.59-3.28,0.9-4.84H86.1z M93.31,218.42v7.26h294.91
	c0.04-1.23,0.12-4,0.22-7.26H93.31z M93.1,182.1c0.06,2.37,0.11,4.8,0.14,7.26h295.83c0.04-2.46,0.08-4.89,0.14-7.26H93.1z
	 M89.06,128.84c0.21,1.58,0.42,3.19,0.63,4.84h302.92c0.2-1.65,0.41-3.27,0.62-4.84H89.06z M94.87,236.58
	c0.32,2.13,0.68,4.56,1.07,7.26h289.63c0.39-2.7,0.75-5.13,1.07-7.26H94.87z M388.99,200.6c0-0.11,0-0.22,0-0.34H93.31
	c0,0.11,0,0.22,0,0.34v6.92h295.47c0.12-3.92,0.21-6.88,0.2-6.87L388.99,200.6z M91.11,147c0.14,1.58,0.28,3.2,0.41,4.84h299.25
	c0.13-1.64,0.27-3.25,0.42-4.84H91.11z M92.35,163.95c0.13,2.37,0.26,4.79,0.36,7.26h296.87c0.11-2.47,0.23-4.89,0.37-7.26H92.35z"
	/>
<path class="st1" d="M321.18,62.03"/>
<path class="st1" d="M317.06,58.05"/>
<path class="st1" d="M309,62.32"/>
<polygon class="st2" points="3.47,242.89 82.46,279.29 80.45,286.79 1.5,261.45 "/>
<polygon class="ArmTrim fill" points="3.47,242.89 82.46,279.29 80.45,286.79 1.5,261.45 "/>
<polygon class="ArmTrim fill" points="479.27,244.64 400.28,279.28 402.3,286.79 481.24,263.2 "/>
<polygon class="st3" points="479.27,244.64 400.28,279.28 402.3,286.79 481.24,263.2 "/>
<path class="Colour1 fill" d="M136.17,609.18c14.53,11.95,35.54,31.32,104.42,31.32c68.89,0,89.89-19.37,104.42-31.32
	c11.78-9.69,22.37-13.7,27.97-15.24c1.94-0.53,2.58-2.93,1.2-4.39c-2.21-2.33-5.18-4.93-9.09-7.4c-7-4.44-10.54-8.63-37.84-11.19
	c-5.98-0.56-13.12-1.04-21.66-1.43c-15.54-0.71-38.27-0.88-64.99-0.88c-26.73,0-49.45,0.18-65,0.88
	c-8.54,0.39-15.68,0.86-21.66,1.43c-27.3,2.55-30.84,6.75-37.84,11.19c-3.92,2.48-6.9,5.09-9.11,7.42
	c-1.38,1.46-0.74,3.87,1.21,4.39C113.74,595.46,124.25,599.37,136.17,609.18"/>
<path class="st4" d="M136.17,609.18c14.53,11.95,35.54,31.32,104.42,31.32c68.89,0,89.89-19.37,104.42-31.32
	c11.46-9.43,21.79-13.48,27.5-15.11c2.15-0.61,2.89-3.27,1.33-4.87c-2.17-2.24-5.04-4.7-8.76-7.06c-7-4.44-10.54-8.63-37.84-11.19
	c-5.98-0.56-13.12-1.04-21.66-1.43c-15.54-0.71-38.27-0.88-64.99-0.88c-26.73,0-49.45,0.18-65,0.88
	c-8.54,0.39-15.68,0.86-21.66,1.43c-27.3,2.55-30.84,6.75-37.84,11.19c-3.73,2.36-6.6,4.83-8.78,7.07c-1.55,1.6-0.82,4.27,1.33,4.87
	C114.31,595.68,124.57,599.64,136.17,609.18z"/>
<line class="st5" x1="185.75" y1="57.37" x2="81.81" y2="95.22"/>
<line class="st6" x1="180.37" y1="56.67" x2="81.81" y2="91.73"/>
<line class="st6" x1="181.36" y1="57.95" x2="81.81" y2="93.76"/>
<line class="st5" x1="297.56" y1="57.37" x2="401.5" y2="95.22"/>
<line class="st6" x1="302.93" y1="56.67" x2="401.5" y2="91.73"/>
<line class="st6" x1="302.93" y1="58.42" x2="401.5" y2="93.47"/>
<path class="st6" d="M399.27,284.89c0,0,27.41-2.62,43.18-18.32c15.76-15.7,37.47-17.76,37.47-17.76"/>
<path class="st6" d="M399.27,283.14c0,0,27.41-2.62,43.18-18.32c15.76-15.7,37.47-17.76,37.47-17.76"/>
<path class="st6" d="M82.91,285.47c0,0-27.42-2.62-43.18-18.32c-15.76-15.7-37.47-17.76-37.47-17.76"/>
<path class="st6" d="M82.91,283.72c0,0-27.42-2.62-43.18-18.32c-15.76-15.7-37.47-17.76-37.47-17.76"/>
<path class="st6" d="M312.4,567.73l9.73-185.56c0,0,4.05-25.16,13.87-47.33c16.57-40.34,49.66-120.86,55.16-134.26"/>
<path class="st6" d="M314.15,567.73l9.73-185.56c0,0,4.05-25.16,13.87-47.33c16.57-40.34,49.66-120.86,55.16-134.26"/>
<path class="st6" d="M170.97,567.73l-9.73-185.56c0,0-4.05-25.16-13.87-47.33C130.8,294.5,97.71,213.98,92.21,200.57"/>
<path class="st6" d="M169.22,567.73l-9.73-185.56c0,0-4.05-25.16-13.87-47.33c-16.57-40.34-49.66-120.86-55.16-134.26"/>
<path class="st6" d="M377.15,587.83c-2.2-2.95-5.99-7.09-12.07-10.92c-7.01-4.44-10.54-8.63-37.84-11.19
	c-5.98-0.56-13.12-1.04-21.67-1.43c-15.54-0.71-38.28-0.89-64.99-0.89c-26.73,0-49.45,0.18-65,0.89
	c-8.54,0.38-15.68,0.86-21.66,1.43c-27.3,2.56-30.84,6.75-37.85,11.19c-6.07,3.84-9.87,7.98-12.07,10.92"/>
<path class="st6" d="M377.15,584.34c-2.2-2.95-5.99-7.09-12.07-10.92c-7.01-4.44-10.54-8.63-37.84-11.19
	c-5.98-0.56-13.12-1.04-21.67-1.43c-15.54-0.71-38.28-0.89-64.99-0.89c-26.73,0-49.45,0.18-65,0.89
	c-8.54,0.38-15.68,0.86-21.66,1.43c-27.3,2.56-30.84,6.75-37.85,11.19c-6.07,3.84-9.87,7.98-12.07,10.92"/>
<path class="st6" d="M74.97,65.26c0,0,22.42,31.16,22.24,135.34"/>
<path class="st6" d="M408.27,65.26c0,0-22.42,31.16-22.24,135.34"/>
<path class="st1" d="M277.79,56.76"/>
<path class="st1" d="M269.71,61.05"/>
<path class="st7" d="M180.59,38.05c20.48-22.33,96.57-26.13,120.94-1.7l-6.27-13.38c-21.91-7.01-37.53-11.63-53.15-11.66
	c-15.62-0.03-31.23,4.52-53.15,11.53L180.59,38.05z"/>
<path class="Colour1 fill" d="M180.59,38.05c20.48-22.33,96.57-26.13,120.94-1.7l-6.27-13.38c-21.91-7.01-37.53-11.63-53.15-11.66
	c-15.62-0.03-31.23,4.52-53.15,11.53L180.59,38.05z"/>
<path class="st8" d="M192.54,21.39c10.93-3.81,27.89-8.29,48.97-8.29c21.07,0,38.02,4.48,48.95,8.29c0.37,7.1-0.26,17.42-6.41,26.59
	c-3.21,4.78-5.79,7.47-12.6,12.68c-8.34,6.38-17.75,14.74-20.48,22.2c-6.3,0-12.6,0-18.91,0c-2.9-7.21-7.2-11.02-10.03-13.69
	c-3.75-3.53-4.84-4.11-12.02-10.09c-4.66-3.88-7.08-5.92-9.45-9.51c-2.39-3.61-3.38-6.72-4.73-11.1
	C194.58,34.46,193.15,28.66,192.54,21.39z"/>
<path class="st1" d="M265.68,57.16"/>
<path class="st1" d="M257.83,61.33"/>
<path class="NeckTrim fill" d="M284.76,7.64c-31.34-8-56.6-7.65-89,1.13l4.12,10.16c12.18-4.56,26.9-5.55,41.72-5.55
	c14.02,0,28.11,0.75,40.22,4.47L284.76,7.64z"/>
<path class="st9" d="M284.76,7.64c-31.34-8-56.6-7.65-89,1.13l4.12,10.16c12.18-4.56,26.9-5.55,41.72-5.55
	c14.02,0,28.11,0.75,40.22,4.47L284.76,7.64z"/>
<path class="st10" d="M190.83,10.24l16.03-4.49l2.56,10.97l-19.34,5.27C190.08,21.98,188.83,17.23,190.83,10.24"/>
<path class="st10" d="M293.49,10.24l-16.03-4.49l-2.56,10.97l19.34,5.27C294.24,21.98,295.49,17.23,293.49,10.24"/>
<path class="Colour2 fill" d="M176.64,27.67l-10.58,5.17c0,0-3.09,13.97,12.45,28.83l8.91-3.39C187.42,58.28,176.87,48.19,176.64,27.67"
	/>
<path class="Colour2 fill" d="M308.26,27.67l8.88,5.17c0,0,2.4,13.97-13.15,28.83l-4.82-3.39C299.17,58.28,308.03,48.19,308.26,27.67"/>
<path class="st11" d="M294.34,11.62l14.61,17.24c0,0,1.19,25.32-15.53,36.94c-4.5,3.12-16.64,11.04-21.51,13.99
	c-13.26,8.01-18.59,9.71-18.59,9.71s0.17-10.37,3.85-12.57c0,0,26.09-22.15,28.18-25.13C287.44,48.81,295.56,26.25,294.34,11.62z"/>
<path class="st11" d="M188.78,11.62l-14.61,17.24c0,0-1.19,25.32,15.53,36.94c4.5,3.12,16.64,11.04,21.51,13.99
	c13.26,8.01,18.59,9.71,18.59,9.71s-0.17-10.37-3.85-12.57c0,0-26.09-22.15-28.18-25.13C195.68,48.81,187.55,26.25,188.78,11.62z"/>
<path class="Insert fill" d="M229.8,81.83h23l-3.58,8.64c0,0-5.87,2.08-14.73,0L229.8,81.83z"/>
<path class="st12" d="M230.38,81.28h23l-3.58,8.64c0,0-5.87,2.08-14.73,0L230.38,81.28z"/>
<path class="st6" d="M165.45,33.14c1.07,17.69,13.06,30.02,13.06,30.02c21.35,21.07,46.51,31.22,46.51,31.22s8.73,1.78,14.04,1.78
	h4.16c5.31,0,14.04-1.78,14.04-1.78s25.16-10.15,46.51-31.22c0,0,11.99-12.33,13.06-30.02"/>
<path class="st6" d="M169.76,30.94c-1.49,11.32,10.13,28.68,10.13,28.68c21.35,21.07,46.62,31.49,46.62,31.49s8.24,2.28,13.55,2.28
	h2.16c5.31,0,13.55-2.28,13.55-2.28s25.27-10.42,46.62-31.49c0,0,11.63-17.36,10.13-28.68"/>
<path class="st13" d="M253.31,89.49c0.02-0.06,1.78-3.95,3.8-9.14c1.21-3.09,8.38-8.94,15.32-14.6c3.55-2.89,7.22-5.88,10.62-8.91
	c16.24-14.4,14.61-36.71,12.75-44.03c-0.8-3.15-7.02-5.72-18.5-7.64l-0.67,2.98c6.69,1.12,13.39,3.1,14.69,4.32
	c0.52,3.84-1.92,32.37-11.45,40.81c-3.34,2.96-6.96,5.92-10.48,8.78c-9.35,7.63-15.16,12.5-16.75,16.56
	c-2.11,5.41-3.87,11.7-3.95,11.97L253.31,89.49z"/>
<path class="NeckTrim fill" d="M190.83,10.24l16.03-4.49l2.56,10.97l-19.34,5.27C190.08,21.98,188.83,17.23,190.83,10.24z"/>
<path class="NeckTrim fill" d="M293.49,10.24l-16.03-4.49l-2.56,10.97l19.34,5.27C294.24,21.98,295.49,17.23,293.49,10.24z"/>
<path class="NeckTrim fill" d="M294.34,11.62c1.22,14.63-6.9,37.19-8.99,40.17c-2.09,2.98-28.18,25.13-28.18,25.13
	c-3.69,2.2-3.85,12.57-3.85,12.57s5.33-1.69,18.59-9.71c4.87-2.95,17.02-10.87,21.51-13.99c16.73-11.62,15.53-36.94,15.53-36.94
	L294.34,11.62"/>
<path class="NeckTrim fill" d="M188.78,11.62c0.6,15.24,8.05,37.58,8.99,40.17c1.24,3.42,28.18,25.13,28.18,25.13
	c3.69,2.2,3.85,12.57,3.85,12.57s-5.33-1.69-18.59-9.71c-4.87-2.95-17.02-10.87-21.51-13.99c-16.73-11.62-15.53-36.94-15.53-36.94
	L188.78,11.62"/>
<path class="NeckTrim fill" d="M248.71,90.6c0.08-0.27,1.84-6.56,3.95-11.97c1.58-4.06,7.4-8.94,16.75-16.56
	c3.51-2.86,7.14-5.82,10.48-8.78c9.52-8.44,11.97-36.97,11.45-40.81c-1.3-1.22-8.01-3.2-14.69-4.32l0.67-2.98
	c11.48,1.92,17.7,4.49,18.5,7.64c1.86,7.32,3.49,29.63-12.75,44.03c-3.41,3.02-7.08,6.01-10.62,8.91
	c-6.94,5.66-14.12,11.51-15.32,14.6c-2.02,5.18-3.78,9.07-3.8,9.14L248.71,90.6z"/>
<path class="st14" d="M248.71,90.6l4.6-1.11c0.02-0.06,1.78-3.95,3.8-9.14c1.21-3.09,8.38-8.94,15.32-14.6
	c3.55-2.89,7.22-5.88,10.62-8.91c16.24-14.4,14.61-36.71,12.75-44.03c-0.8-3.15-7.02-5.72-18.5-7.64l-0.67,2.98
	c6.69,1.12,13.39,3.1,14.69,4.32c0.52,3.84-1.92,32.37-11.45,40.81c-3.34,2.96-6.96,5.92-10.48,8.78
	c-9.35,7.63-15.16,12.5-16.75,16.56C250.55,84.04,248.78,90.33,248.71,90.6z"/>
<path class="NeckTrim fill" d="M230.46,89.49c-0.02-0.06-1.78-3.95-3.8-9.14c-1.21-3.09-8.38-8.94-15.32-14.6
	c-3.55-2.89-7.22-5.88-10.63-8.91c-7.52-6.66-12.65-44.44-12.75-44.03c0.8-3.15,7.02-5.72,18.5-7.64l0.67,2.98
	c-6.69,1.12-13.39,3.1-14.69,4.32c-0.52,3.84,1.92,32.37,11.45,40.81c3.34,2.96,6.96,5.92,10.48,8.78
	c9.35,7.63,15.17,12.5,16.75,16.56c2.11,5.41,3.87,11.7,3.95,11.97L230.46,89.49z"/>
<path class="st13" d="M230.46,89.49c-0.02-0.06-1.78-3.95-3.8-9.14c-1.21-3.09-8.38-8.94-15.32-14.6
	c-3.55-2.89-7.22-5.88-10.63-8.91c-7.52-6.66-12.65-44.44-12.75-44.03c0.8-3.15,7.02-5.72,18.5-7.64l0.67,2.98
	c-6.69,1.12-13.39,3.1-14.69,4.32c-0.52,3.84,1.92,32.37,11.45,40.81c3.34,2.96,6.96,5.92,10.48,8.78
	c9.35,7.63,15.17,12.5,16.75,16.56c2.11,5.41,3.87,11.7,3.95,11.97L230.46,89.49z"/>
<path class="st0" d="M411.62,65.26c0,0-22.42,31.16-22.24,135.34l-0.94,26.74"/>
<path class="st0" d="M71.46,65.26c0,0,22.42,31.16,22.24,135.34l-0.39,25.08"/>
<path class="BottomHem fill" d="M245.75,643.72c-22.9,0-44.65-2.3-47.29-2.59c-24.67-1.1-61.05-29.53-62.59-30.74l-0.4-0.35
	c-4.32-4.14-19.49-11.73-28.03-15.55l-1.52-2.25l0.94-10.18l5.03,2.25c2.42,1.08,23.61,10.66,30.93,17.44
	c9.94,7.78,38.84,27.59,56.28,28.27l0.39,0.03c0.56,0.06,56.21,6.14,83.07-0.76l0.78-0.14c0.23-0.03,24.34-2.86,47.45-21.29
	c2.47-2.45,21.7-21.1,38.17-23.95l5.41-0.94l1.85,10.97l-5.42,0.93c-11.5,1.98-27.35,15.9-32.49,21.09l-0.47,0.42
	c-24.35,19.53-49.29,23.31-52.95,23.77C274.14,642.86,259.73,643.72,245.75,643.72 M375.08,579.69l-10.34-9.28
	c-10.34-9.28-53.76-10.82-53.76-10.82H170.19c0,0-43.43,1.55-53.76,10.82l-10.34,9.28l-1.38,13.38c0,0,16.37-15.96,22.57-16.99
	c3.08-0.51,14.06-3.72,24.34-4.75c10.43-1.04,20.12-1.95,20.12-1.95h137.68c0,0,9.7,0.91,20.12,1.95
	c10.28,1.03,21.26,4.23,24.33,4.75c6.21,1.03,22.58,16.99,22.58,16.99L375.08,579.69z"/>
<g id="FBodyLogos"></g>
</svg>
