<?xml version="1.0" encoding="utf-8"?>
<!-- Generator: Adobe Illustrator 19.1.0, SVG Export Plug-In . SVG Version: 6.00 Build 0)  -->
<svg version="1.1" id="Layer_1" xmlns="http://www.w3.org/2000/svg" xmlns:xlink="http://www.w3.org/1999/xlink" x="0px" y="0px"
	 viewBox="0 0 483.01 645.44" style="enable-background:new 0 0 483.01 645.44;" xml:space="preserve">
<style type="text/css">
	<![CDATA[
	@font-face{font-family:'codaheavy';src:url('/fonts/coda-heavy-webfont.woff') format('woff')}
	text{font-family:Impact,codaheavy,sans-serif}
	.Number.fill{fill:#000}
	.NumberOutline.stroke{fill:none;stroke:#777;stroke-width:2.5}
	.Colour1.fill{fill:#2F2F2F;}
	.Colour2.fill{fill:#6E6C6E;}
	.Colour3.fill{fill:#D6D6D6;}
	.NeckTrim.fill{fill:#FFFFFF;}
	.st0{fill:none;stroke:#000000;stroke-width:2;stroke-linecap:round;stroke-linejoin:round;}
	.st1{stroke:#221915;stroke-width:0.8861;stroke-miterlimit:10;}
	.st2{fill:none;stroke:#0A0505;stroke-width:0.328;stroke-miterlimit:10;}
	.st3{fill:none;stroke:#000000;stroke-width:0.4411;}
	.st4{fill:#2F2F2F;}
	.st5{fill:#9C2321;stroke:#221915;stroke-width:0.934;stroke-miterlimit:10;}
	.st6{fill:none;stroke:#221915;stroke-width:0.6559;stroke-miterlimit:10;}
	.st7{fill:#C0773C;stroke:#000000;stroke-width:2;stroke-miterlimit:10;}
	.st8{fill:none;stroke:#FFFFFF;stroke-width:0.216;stroke-dasharray:2.4,2.4,2.4,2.4;}
	.st9{fill:none;stroke:#FFFFFF;stroke-width:0.328;}
	.st10{fill:#FFFFFF;}
	.st11{fill:none;stroke:#221915;stroke-width:0.506;stroke-miterlimit:10;}
	.st12{fill:#FFCC36;stroke:#101010;stroke-width:0.8861;stroke-miterlimit:10;}
	.st13{fill:#FFFFFF;stroke:#000000;stroke-width:3;stroke-miterlimit:10;}
	.st14{fill:url(#SVGID_1_);}
	.st15{fill:url(#SVGID_2_);}
	.neckline{fill:none;stroke:#000000;stroke-width:0.6559;}
	]]>
</style>
<g>
	<line class="st0" x1="377.13" y1="590.38" x2="377.12" y2="590.37"/>
	<polygon class="st0" points="198.16,19.85 197.72,17.61 197.9,19.88 	"/>
	<path class="st0" d="M377.12,590.37c-0.09,0-0.61,0.06-1.47,0.23c0.01,2.32,0.01,3.57,0.01,3.57h-0.19c0.52,0.62,1,1.22,1.4,1.76"
		/>
	<path class="st0" d="M377.12,590.37c-0.41-0.54-0.89-1.13-1.4-1.74h0.19c0,0,0-100.79-4.26-166.61
		c-1.21-18.79-0.35-42.94,1.5-67.86c4.76-62.05,15.23-127.59,15.23-127.59l-0.02-0.33c0.17-1.1,0.27-1.7,0.27-1.7
		s0.12,0.98,0.34,2.76c0.28-1.78,0.44-2.76,0.44-2.76L401,287.28c0,0,27.54-2.62,43.37-18.28c15.83-15.66,37.64-17.72,37.64-17.72
		s-12.64-69.94-13.71-82.28c-1.06-12.34-9.65-58.62-27.74-86.39c0,0-9.58-11.53-32.17-20.11c0.02,0.2,0.03,0.31,0.03,0.31
		c-4.61-1.79-9.75-3.46-15.5-4.89c-27.62-6.84-66.71-22.22-84.59-31.35c-1.68-2.07-4.98-6.64-6.7-12.63L284.3,9.52l0.37-1.78
		c-30.77-6.58-57.54-6.5-88.83,0.32l0.17,0.86l-18.04,5.02c-1.68,5.81-3.98,10.3-5.2,12.44c-17.71,9.1-57.14,24.64-84.95,31.53
		c-5.11,1.27-9.75,2.73-13.95,4.29c0.05,0.07,0.12,0.17,0.21,0.31c-22.54,8.58-32.1,20.08-32.1,20.08
		C23.88,110.38,15.3,156.66,14.23,169c-1.07,12.34-13.7,82.28-13.7,82.28s21.81,2.06,37.64,17.72
		c15.83,15.66,43.37,18.28,43.37,18.28l10.89-58.83c2.27,14.58,16.95,111.36,17.23,175.93c-0.03,6.25-0.2,12.17-0.56,17.63
		c-4,61.88-4.24,154.65-4.26,165.55c-0.48,0.52-0.24,1.03,0.01,1.52c-0.01,1.8-0.01,3.16-0.01,4.02c-0.92,1.02,0.82,1.99,0.18,2.85
		c0,0,12.07,1.63,29.76,16.23c14.6,12.04,35.7,31.55,104.9,31.55c69.2,0,90.31-19.51,104.9-31.55
		c17.12-14.13,31.75-16.26,32.28-16.24"/>
	<line class="st0" x1="376.87" y1="595.93" x2="376.88" y2="595.94"/>
</g>
<path class="Colour1 fill" d="M386.79,197.13c-0.17-95.12,18.68-129.22,21.88-134.32c-4.61-1.79-9.75-3.46-15.5-4.89
	c-33.2-8.23-83-28.8-92.57-36l-58-6.79h-3.71l-58,6.79c-9.58,7.2-59.36,27.77-92.57,36c-5.11,1.27-9.75,2.73-13.95,4.29
	c1.4,2.05,22.44,34.45,22.27,134.91l-4,27.41c0,0,21.23,131.65,16.97,197.47c-4,61.88-4.24,154.65-4.26,165.55
	c-0.92,1.01,0.82,1.97,0.18,2.82c0,0,12.07,1.62,29.76,16.07c14.6,11.92,35.7,31.25,104.9,31.25c69.2,0,90.31-19.33,104.9-31.25
	c17.69-14.46,32.72-16.24,32.29-16.07c-0.41-0.54-0.89-1.14-1.41-1.75h0.19c0,0,0-100.79-4.26-166.61
	c-4.26-65.83,16.97-197.47,16.97-197.47L386.79,197.13z"/>
<path class="Colour1 fill" d="M468.55,169c-1.06-12.34-9.65-58.62-27.74-86.39c0,0-9.58-11.53-32.17-20.11c0.02,0.2,0.03,0.31,0.03,0.31
	c-3.2,5.1-22.05,39.2-21.88,134.32l2.07,27.41c0,0,0.12,0.98,0.34,2.76c0.28-1.78,0.44-2.76,0.44-2.76l11.61,62.74
	c0,0,27.54-2.62,43.37-18.28c15.83-15.66,37.64-17.72,37.64-17.72S469.62,181.34,468.55,169z"/>
<path class="Colour1 fill" d="M81.79,287.28l11.02-59.55c-0.11-2.05-0.18-3.19-0.18-3.19l4-27.41C96.79,99.34,76.87,66.05,74.51,62.45
	c-22.68,8.59-32.3,20.16-32.3,20.16C24.13,110.38,15.54,156.66,14.48,169c-1.07,12.34-13.7,82.28-13.7,82.28s21.81,2.06,37.64,17.72
	C54.24,284.66,81.79,287.28,81.79,287.28z"/>
<path class="st1" d="M388,231.3l-1.11-12.37l0.43-21.8C387.15,102.01,406,67.91,409.2,62.81c-4.61-1.79-9.75-3.46-15.5-4.89
	c-33.2-8.23-83-28.8-92.57-36l-58-6.79h-3.71l-58,6.79c-9.58,7.2-59.36,27.77-92.57,36c-5.11,1.27-9.75,2.73-13.95,4.29
	c1.4,2.05,22.44,34.45,22.27,134.91l-2.9,34.48v0c4.3,28.18,19.53,133.7,15.87,190.4c-4,61.88-4.24,154.65-4.26,165.55
	c-0.92,1.01,0.82,1.97,0.18,2.82c0,0,12.07,1.62,29.76,16.07c14.6,11.92,35.7,31.25,104.9,31.25c69.2,0,90.31-19.33,104.9-31.25
	c17.69-14.46,32.72-16.24,32.29-16.07c-0.41-0.54-0.89-1.14-1.41-1.75h0.19c0,0,0-100.79-4.26-166.61
	c-3.61-55.78,11.09-158.81,15.65-188.96L388,231.3z"/>
<path class="Colour1 fill" d="M386.55,197.13c-0.17-95.12,18.68-129.22,21.88-134.32c-4.61-1.79-9.75-3.46-15.5-4.89
	c-33.2-8.23-83-28.8-92.57-36l-58-6.79h-3.71l-58,6.79c-9.58,7.2-59.36,27.77-92.57,36c-5.11,1.27-9.75,2.73-13.95,4.29
	c1.4,2.05,22.44,34.45,22.27,134.91l-4,27.41c0,0,21.23,131.65,16.97,197.47c-4,61.88-4.24,154.65-4.26,165.55
	c-0.92,1.01,0.82,1.97,0.18,2.82c0,0,12.07,1.62,29.76,16.07c14.6,11.92,35.7,31.25,104.9,31.25c69.2,0,90.31-19.33,104.9-31.25
	c17.69-14.46,32.72-16.24,32.29-16.07c-0.41-0.54-0.89-1.14-1.41-1.75h0.19c0,0,0-100.79-4.26-166.61
	c-4.26-65.83,16.97-197.47,16.97-197.47L386.55,197.13z"/>
<path class="st2" d="M468.31,169c-1.06-12.34-9.65-58.62-27.74-86.39c0,0-13.66-16.46-46.87-24.69c-33.2-8.23-83-28.8-92.57-36
	l-58-6.79h-3.71l-58,6.79c-9.58,7.2-59.36,27.77-92.57,36c-33.21,8.23-46.87,24.69-46.87,24.69C23.88,110.38,15.3,156.66,14.23,169
	c-1.07,12.34-13.71,82.28-13.71,82.28s21.81,2.06,37.64,17.72c15.83,15.66,43.37,18.28,43.37,18.28l11.61-62.74
	c0,0,21.23,131.65,16.97,197.47c-4,61.88-4.24,154.65-4.26,165.55c-0.92,1.01,0.82,1.97,0.18,2.82c0,0,12.07,1.62,29.76,16.07
	c14.6,11.92,35.7,31.25,104.9,31.25c69.2,0,90.31-19.33,104.9-31.25c17.69-14.46,32.72-16.24,32.29-16.07
	c-0.41-0.54-0.89-1.14-1.41-1.75h0.19c0,0,0-100.79-4.26-166.61c-4.26-65.83,16.97-197.47,16.97-197.47L401,287.28
	c0,0,27.54-2.62,43.37-18.28c15.83-15.66,37.64-17.72,37.64-17.72S469.37,181.34,468.31,169z"/>
<path class="st3" d="M74.81,62.11c0,0,22.52,31.09,22.34,135.02"/>
<polygon class="st1" points="2.48,242.86 83.35,280.8 81.33,288.26 0.5,261.32 "/>
<polygon class="st4" points="2.48,242.86 83.35,280.8 81.33,288.26 0.5,261.32 "/>
<polygon class="st5" points="480.53,242.82 399.54,280.82 401.57,288.3 482.5,261.31 "/>
<polygon class="st4" points="480.53,242.82 399.54,280.82 401.57,288.3 482.5,261.31 "/>
<path class="NeckTrim fill" d="M178.21,13.95l19.04-5.3l1.02,12.94l-26.1,6.21C172.17,27.79,175.84,22.2,178.21,13.95"/>
<path class="st6" d="M178.21,13.95l19.04-5.3l1.02,12.94l-26.1,6.21C172.17,27.79,175.84,22.2,178.21,13.95z"/>
<path class="NeckTrim fill" d="M301.88,13.95l-20.76-5.3l-1.01,12.94l29.52,6.21C309.63,27.79,304.25,22.2,301.88,13.95"/>
<path class="st6" d="M301.88,13.95l-20.76-5.3l-1.01,12.94l29.52,6.21C309.63,27.79,304.25,22.2,301.88,13.95z"/>
<path class="st3" d="M409.66,62.11c0,0-22.53,31.09-22.34,135.02"/>
<path class="st7" d="M246.81,643.72c-23.14,0-45.11-2.33-47.78-2.63c-24.92-1.12-61.67-29.97-63.23-31.2l-0.4-0.35
	c-4.37-4.2-19.69-11.91-28.32-15.79l-0.07-2.28l-0.52-10.33l5.08,2.28c2.44,1.09,23.86,10.82,31.25,17.7
	c10.04,7.9,39.24,28.01,56.85,28.69l0.4,0.03c0.57,0.06,56.79,6.23,83.93-0.77l0.79-0.14c0.23-0.03,24.58-2.9,47.93-21.61
	c2.49-2.48,21.92-21.42,38.56-24.31l5.47-0.95l0.62,11.13l-4.22,0.95c-11.61,2.01-27.63,16.14-32.82,21.41l-0.47,0.43
	c-24.61,19.83-49.8,23.66-53.49,24.13C275.5,642.85,260.94,643.72,246.81,643.72"/>
<path class="st8" d="M83.9,284.81c0,0-28.02-2.66-44.13-18.6c-16.1-15.94-38.3-18.03-38.3-18.03"/>
<path class="st8" d="M83.9,283.03c0,0-28.02-2.66-44.13-18.6c-16.1-15.94-38.3-18.03-38.3-18.03"/>
<path class="st4" d="M399.6,280.55c0,0,28.02-2.66,44.13-18.6c16.1-15.94,38.3-18.03,38.3-18.03"/>
<path class="st9" d="M88.65,95.02c0,0,124.74-32.47,306.7,0"/>
<path class="st8" d="M88.65,98.57c0,0,124.74-32.47,306.7,0"/>
<path class="st8" d="M88.65,100.35c0,0,124.74-32.47,306.7,0"/>
<path class="NeckTrim fill" d="M289.79,10.88c-37.23-9.43-67.23-9.03-105.71,1.33l4.89,11.98c14.47-5.38,31.96-6.54,49.56-6.55
	c16.64,0,33.39,0.88,47.77,5.27L289.79,10.88z"/>
<path class="st11" d="M289.79,10.88c-37.23-9.43-67.23-9.03-105.71,1.33l4.89,11.98c14.47-5.38,31.96-6.54,49.56-6.55
	c16.64,0,33.39,0.88,47.77,5.27L289.79,10.88z"/>
<path class="NeckTrim fill" d="M177.22,16.34l0.75-4.66c3.35-1.24,65.6-21.76,124.3,0l0.75,4.66C243.39-5.77,177.82,16.11,177.22,16.34"
	/>
<path class="neckline" d="M177.22,15.13c0.6-0.22,66.17-22.11,125.81,0l-0.75-4.66c-58.71-21.76-120.95-1.24-124.3,0L177.22,15.13z"/>
<path class="st12" d="M246.81,643.72c-23.14,0-45.11-2.33-47.78-2.63c-24.92-1.12-61.67-29.97-63.23-31.2l-0.4-0.35
	c-4.37-4.2-19.69-11.91-28.32-15.79l-0.07-2.28l-0.52-10.33l5.08,2.28c2.44,1.09,23.86,10.82,31.25,17.7
	c10.04,7.9,39.24,28.01,56.85,28.69l0.4,0.03c0.57,0.06,56.79,6.23,83.93-0.77l0.79-0.14c0.23-0.03,24.58-2.9,47.93-21.61
	c2.49-2.48,21.92-21.42,38.56-24.31l5.47-0.95l0.62,11.13l-4.22,0.95c-11.61,2.01-27.63,16.14-32.82,21.41l-0.47,0.43
	c-24.61,19.83-49.8,23.66-53.49,24.13C275.5,642.85,260.94,643.72,246.81,643.72z"/>
<path class="st13" d="M386.55,197.13c-0.02-13.82,0.36-26.32,1.03-37.66c-2.14-57.42-66.83-103.48-146.31-103.48
	c-77.99,0-141.73,44.35-146.12,100.26c0.8,12.17,1.25,25.75,1.23,40.88l-4,27.41c0,0,21.23,131.65,16.97,197.47
	c-4,61.88-4.24,154.65-4.26,165.55c-0.92,1.01,0.82,1.97,0.18,2.82c0,0,12.07,1.62,29.76,16.07c14.6,11.92,35.7,31.25,104.9,31.25
	c69.2,0,90.31-19.33,104.9-31.25c17.69-14.46,32.72-16.24,32.29-16.07c-0.41-0.54-0.89-1.14-1.41-1.75h0.19
	c0,0,0-100.79-4.26-166.61c-4.26-65.83,16.97-197.47,16.97-197.47L386.55,197.13z"/>
<path class="Colour1 fill" d="M386.55,198.89c-0.17-96.04,18.68-130.47,21.88-135.62c-4.61-1.81-9.75-3.5-15.5-4.93
	c-33.2-8.3-83-29.07-92.57-36.34l-58-6.86h-3.71l-58,6.86c-9.58,7.27-59.36,28.04-92.57,36.34c-5.11,1.28-9.75,2.75-13.95,4.33
	c1.4,2.07,22.44,34.78,22.27,136.22l-4,27.67c0,0,21.23,132.92,16.97,199.38c-4,62.48-4.24,156.14-4.26,167.15
	c-0.92,1.02,0.82,1.99,0.18,2.85c0,0,12.07,1.63,29.76,16.23c14.6,12.04,35.7,31.55,104.9,31.55c69.2,0,90.31-19.51,104.9-31.55
	c17.69-14.6,32.72-16.39,32.29-16.23c-0.41-0.55-0.89-1.15-1.41-1.77h0.19c0,0,0-101.76-4.26-168.22
	c-4.26-66.46,16.97-199.38,16.97-199.38L386.55,198.89z"/>
<path class="Colour2 fill" d="M368.9,408.33H113.82c0.01,4.1-0.04,8.07-0.15,11.88h255.37C368.94,416.41,368.89,412.43,368.9,408.33z"/>
<path class="Colour2 fill" d="M369.2,424.55H113.52c-0.07,1.62-0.15,3.21-0.24,4.76c-0.02,0.39-0.05,0.79-0.07,1.18h256.32
	c-0.02-0.39-0.05-0.79-0.07-1.18C369.35,427.76,369.27,426.16,369.2,424.55z"/>
<path class="Colour2 fill" d="M113.15,382.97h256.41c0.18-3.91,0.39-7.87,0.63-11.88H112.52C112.76,375.1,112.97,379.06,113.15,382.97z"
	/>
<path class="Colour2 fill" d="M113.45,390.2c0.07,2,0.13,3.98,0.18,5.94h255.45c0.05-1.96,0.12-3.94,0.19-5.94H113.45z"/>
<linearGradient id="SVGID_1_" gradientUnits="userSpaceOnUse" x1="241.5637" y1="192.7422" x2="241.5637" y2="236.9418">
	<stop class="Gradient1 stopColor" offset="0" style="stop-color:#A0A0A0"/>
	<stop class="Gradient2 stopColor" offset="0.3704" style="stop-color:#D6D6D6;stop-opacity:0.6296"/>
	<stop class="Gradient3 stopColor" offset="0.598" style="stop-color:#ECECEC;stop-opacity:0.402"/>
	<stop class="Gradient4 stopColor" offset="1" style="stop-color:#FFFFFF;stop-opacity:0"/>
</linearGradient>
<path class="Colour3 fill" d="M386.82,195.28H96.67c0.02,2.28,0.03,4.59,0.02,6.94l-0.39,25.46l0.01,2.81l0.37-2.11c0,0,0.32,2.09,0.88,5.89
	h287.57c0.34-2.31,0.59-3.99,0.74-4.95c0,0.02,0,0.03-0.01,0.04l0.92-27.14C386.79,199.87,386.8,197.56,386.82,195.28z"/>
<polygon class="Colour2 fill" points="288.9,20.87 243.17,15.13 239.55,15.13 193.82,20.87 "/>
<path class="Colour2 fill" d="M112.7,439.15c-0.1,1.8-0.19,3.62-0.28,5.46H370.3c-0.09-1.84-0.19-3.66-0.28-5.46H112.7z"/>
<path class="Colour2 fill" d="M109.12,597.18c0,1.07,0,1.65,0,1.65h130.43h3.63H373.6c0,0,0-0.58,0-1.65H109.12z"/>
<path class="Colour2 fill" d="M370.42,447.07H112.3c-0.52,10.75-0.96,22.04-1.32,33.39h260.76C371.37,469.11,370.94,457.82,370.42,447.07
	z"/>
<path class="Colour2 fill" d="M92.49,58.86c-6.66,1.72-12.5,3.79-17.6,6c0.14,0.2,1.92,2.86,4.41,8.88h324.9
	c1.94-4.69,3.45-7.34,4.09-8.38l0.14-0.25c-5.23-2.3-11.27-4.47-18.19-6.26c-30.18-7.79-74.36-26.45-87.89-34.9H180.38
	C166.85,32.41,122.67,51.07,92.49,58.86z"/>
<path class="Colour2 fill" d="M98.06,237.58c1.03,7.08,2.54,17.86,4.24,30.95h278.12c1.69-13.1,3.21-23.88,4.24-30.95H98.06z"/>
<path class="Colour2 fill" d="M93.12,134.12c0.11,0.96,0.23,1.93,0.34,2.92h296.57c0.11-0.98,0.22-1.96,0.34-2.92H93.12z"/>
<path class="Colour2 fill" d="M109.22,575.87c-0.06,8.49-0.09,15.05-0.1,18.94H373.6c-0.01-3.89-0.03-10.45-0.1-18.94H109.22z"/>
<path class="Colour2 fill" d="M91.72,123.6c0.14,0.96,0.28,1.93,0.42,2.92h299.21c0.14-0.99,0.28-1.96,0.42-2.92H91.72z"/>
<path class="Colour2 fill" d="M95.05,154.09c0.85,11.28,1.42,23.85,1.59,37.81h290.22c0.17-13.96,0.74-26.52,1.59-37.81H95.05z"/>
<linearGradient id="SVGID_2_" gradientUnits="userSpaceOnUse" x1="241.3591" y1="556.4292" x2="241.3591" y2="572.5057">
	<stop class="Gradient1 stopColor" offset="0" style="stop-color:#A0A0A0"/>
	<stop class="Gradient2 stopColor" offset="0.3704" style="stop-color:#D6D6D6;stop-opacity:0.6296"/>
	<stop class="Gradient3 stopColor" offset="0.598" style="stop-color:#ECECEC;stop-opacity:0.402"/>
	<stop class="Gradient4 stopColor" offset="1" style="stop-color:#FFFFFF;stop-opacity:0"/>
</linearGradient>
<path class="Colour3 fill" d="M109.42,554.57c-0.08,6.94-0.14,13.31-0.19,18.94h264.24c-0.04-5.63-0.11-12-0.19-18.94H109.42z"/>
<path class="Colour2 fill" d="M109.8,529.37c-0.12,6.58-0.21,12.93-0.29,18.94h263.71c-0.08-6.01-0.18-12.36-0.29-18.94H109.8z"/>
<path class="Colour2 fill" d="M109.96,520.38c-0.02,0.91-0.04,1.82-0.05,2.73h262.9c-0.02-0.91-0.04-1.82-0.05-2.73H109.96z"/>
<path class="Colour2 fill" d="M110.12,512.83c-0.02,0.91-0.04,1.82-0.06,2.73h262.6c-0.02-0.91-0.04-1.82-0.06-2.73H110.12z"/>
<path class="st8" d="M399.6,282.32c0,0,28.02-2.66,44.13-18.6c16.1-15.94,38.3-18.03,38.3-18.03"/>
<g id="BBodyLogos"></g>
</svg>
