<?xml version="1.0" encoding="utf-8"?>
<!-- Generator: Adobe Illustrator 19.1.0, SVG Export Plug-In . SVG Version: 6.00 Build 0)  -->
<svg version="1.1" id="Layer_1" xmlns="http://www.w3.org/2000/svg" xmlns:xlink="http://www.w3.org/1999/xlink" x="0px" y="0px"
	 viewBox="0 0 483.01 645.44" style="enable-background:new 0 0 483.01 645.44;" xml:space="preserve">
<style type="text/css">
	<![CDATA[
	@font-face{font-family:'codaheavy';src:url('/fonts/coda-heavy-webfont.woff') format('woff')}
	text{font-family:Impact,codaheavy,sans-serif}
	.Colour1.fill{fill:#7EB5B1;}
	.Colour2.fill{fill:#FFFFFF;}
	.Insert.fill{fill:#7EB5B1;}
	.ArmTrim.fill{fill:#7EB5B1;}
	.NeckTrim.fill{fill:#7EB5B1;}
	.BottomHem.fill{fill:#7EB5B1;stroke:#221915;stroke-width:0.8861;stroke-miterlimit:10;}
	.white{fill:#ffffff;}
	.st0{fill:#7EB5B1;stroke:#000000;stroke-width:0.4411;}
	.st1{fill:none;stroke:#000000;stroke-width:2;stroke-linecap:round;stroke-linejoin:round;}
	.st2{fill:#ffffff;}
	.st3{fill:none;stroke:#221915;stroke-width:0.216;stroke-linecap:round;stroke-linejoin:round;}
	.st4{fill:none;stroke:#221915;stroke-width:2;stroke-miterlimit:10;}
	.st5{fill:none;stroke:#0A0505;stroke-width:0.6559;stroke-miterlimit:10;}
	.st6{fill:none;stroke:#FFFFFF;stroke-width:0.328;}
	.st7{fill:none;stroke:#FFFFFF;stroke-width:0.216;stroke-dasharray:2.4,2.4,2.4,2.4;}
	.st8{fill:none;stroke:#221915;stroke-width:0.233;stroke-miterlimit:10;}
	.st9{fill:none;stroke:#221915;stroke-width:0.36;stroke-miterlimit:10;}
	.st10{fill:none;stroke:#0A0505;stroke-width:0.233;stroke-miterlimit:10;}
	.st11{fill:none;}
	.st12{fill:none;stroke:#0A0505;stroke-width:0.2801;}
	.st13{fill:none;stroke:#000000;stroke-width:0.4411;}
	]]>
</style>
<path class="st0" d="M411.86,65.26c0,0-22.42,31.16-22.24,135.34l-0.94,26.74"/>
<path class="st0" d="M93.55,225.68l0.39-25.08c0.17-96.04-18.87-130.02-21.85-134.75"/>
<g>
	<path class="Colour1 fill" d="M467.39,170.71c-1.06-12.37-9.61-58.76-27.62-86.6c0,0-13.6-16.49-46.65-24.74
		c-33.06-8.25-82.62-28.87-92.15-36.08l-57.74-7h-3.7l-57.74,7c-9.53,7.22-59.09,27.83-92.15,36.08C56.6,67.62,43,84.11,43,84.11
		c-18.01,27.83-26.55,74.23-27.62,86.6c-1.06,12.37-13.64,82.47-13.64,82.47s21.71,2.06,37.47,17.76
		c15.76,15.7,43.18,18.32,43.18,18.32l11.55-62.89c0,0,21.13,131.96,16.9,197.94c-4.24,65.98-4.24,167-4.24,167h132.94h3.7h132.94
		c0,0,0-101.03-4.24-167c-4.23-65.98,16.9-197.94,16.9-197.94l11.55,62.89c0,0,27.42-2.62,43.18-18.32
		c15.76-15.7,37.47-17.76,37.47-17.76S468.45,183.08,467.39,170.71"/>
	<path class="Colour1 fill" d="M82.39,289.26l11.55-62.89c0,0,6.21-103.15-20.72-158.58l-1.58-2.48C51.58,73.72,43,84.11,43,84.11
		c-18.01,27.83-26.55,74.23-27.62,86.6c-1.06,12.37-13.64,82.47-13.64,82.47s21.71,2.06,37.47,17.76
		C54.97,286.63,82.39,289.26,82.39,289.26z"/>
	<path class="Colour1 fill" d="M400.86,289.26l-11.55-62.89c0,0-6.21-103.15,20.72-158.58l1.58-2.48c20.06,8.41,28.64,18.8,28.64,18.8
		c18.01,27.83,26.55,74.23,27.62,86.6c1.06,12.37,13.64,82.47,13.64,82.47s-21.71,2.06-37.47,17.76
		C428.27,286.63,400.86,289.26,400.86,289.26z"/>
</g>
<g>
	<path class="st1" d="M22.76,133.21c0.57-2.08,1.16-4.19,1.79-6.31"/>
	<path class="st1" d="M26.55,120.48c0.83-2.54,1.71-5.09,2.63-7.62"/>
	<path class="st1" d="M30.68,108.87c0.57-1.47,1.15-2.94,1.76-4.38"/>
	<path class="st1" d="M21.94,136.3c-0.8,3.07-1.52,6.05-2.17,8.91"/>
	<path class="st1" d="M17.54,155.87c0.31-1.63,0.65-3.34,1.02-5.12"/>
	<path class="st1" d="M19.76,145.21c-0.43,1.91-0.84,3.76-1.21,5.54"/>
	<path class="st1" d="M26.55,120.48c-0.7,2.15-1.36,4.29-2,6.42"/>
	<path class="st1" d="M43.13,83.87c0.02-0.02,0.04-0.04,0.05-0.06"/>
	<path class="st1" d="M42.99,84.03c0.01-0.02,0.03-0.04,0.05-0.06"/>
	<path class="st1" d="M37.34,93.88c1.04-2.04,2.13-4.03,3.25-5.95"/>
	<line class="st1" x1="44.18" y1="82.75" x2="44.18" y2="82.75"/>
	<path class="st1" d="M40.59,87.93c0.76-1.3,1.53-2.58,2.33-3.82c0,0,0,0,0,0"/>
	<path class="st1" d="M42.92,84.1c0,0,0.01-0.02,0.03-0.03"/>
	<path class="st1" d="M3.02,245.57c0.32-1.81,0.69-3.89,1.09-6.19"/>
	<path class="st1" d="M4.11,239.38c0.24-1.37,0.5-2.82,0.76-4.34"/>
	<path class="st1" d="M30.68,108.87c-0.51,1.32-1.01,2.65-1.5,3.99"/>
	<path class="st1" d="M4.88,235.05c0.19-1.08,0.39-2.2,0.59-3.34"/>
	<path class="st1" d="M1.66,253.18L1.66,253.18c0,0,2.12,0.2,5.52,0.96"/>
	<path class="st1" d="M6.28,227.04c0.29-1.68,0.59-3.4,0.89-5.15"/>
	<path class="st1" d="M5.99,228.71c-0.18,1.02-0.35,2.02-0.52,3"/>
	<path class="st1" d="M44.18,82.75c3.03-3.08,11.69-10.86,27.38-17.44"/>
	<path class="st1" d="M43.13,83.87c-0.04,0.04-0.06,0.07-0.09,0.1"/>
	<path class="st1" d="M42.99,84.03c-0.02,0.02-0.03,0.03-0.04,0.04"/>
	<path class="st1" d="M8.96,211.5c0.12-0.7,0.24-1.41,0.36-2.11"/>
	<path class="st1" d="M37.34,93.88c-1.74,3.41-3.38,6.96-4.9,10.61"/>
	<path class="st1" d="M44.18,82.75c-0.46,0.47-0.79,0.83-1,1.06"/>
	<path class="st1" d="M9.32,209.39c0.41-2.4,0.81-4.8,1.21-7.15"/>
	<path class="st1" d="M8.4,214.79c-0.21,1.2-0.41,2.39-0.61,3.57"/>
	<path class="st1" d="M8.96,211.5c-0.19,1.1-0.38,2.2-0.56,3.29"/>
	<line class="st1" x1="91.74" y1="237.93" x2="82.31" y2="289.26"/>
	<path class="st1" d="M7.17,221.89c0.2-1.17,0.41-2.34,0.61-3.53"/>
	<path class="st1" d="M82.31,289.26L82.31,289.26c0,0-27.41-2.62-43.18-18.32c-10.83-10.79-24.48-15.14-31.95-16.8"/>
	<path class="st1" d="M13.44,184.32c-0.22,1.43-0.46,2.93-0.71,4.49"/>
	<path class="st1" d="M400.77,289.21c-0.29,0.03-0.46,0.05-0.46,0.05l-11.55-62.89c0,0-21.13,131.96-16.9,197.94
		c4.24,65.98,4.24,167,4.24,167H243.16h-3.7H106.52c0,0,0-101.03,4.24-167c4.23-65.98-16.9-197.94-16.9-197.94l-2.12,11.55"/>
	<path class="st1" d="M14.06,180.24c-0.13,0.85-0.26,1.74-0.4,2.67"/>
	<path class="st1" d="M11.11,198.73c-0.19,1.15-0.39,2.32-0.58,3.5"/>
	<path class="st1" d="M16.71,160.5c-0.74,4.37-1.2,7.88-1.4,10.2c-0.12,1.35-0.37,3.4-0.73,5.96"/>
	<line class="st1" x1="71.56" y1="65.31" x2="71.56" y2="65.31"/>
	<path class="st1" d="M71.56,65.31c5.22-2.19,11.19-4.24,18.01-5.94c33.06-8.25,82.62-28.87,92.15-36.08l57.74-7h3.7l57.74,7
		c9.53,7.22,59.09,27.83,92.15,36.08c6.98,1.74,13.08,3.85,18.38,6.1"/>
	<path class="st1" d="M3.02,245.57c-0.84,4.71-1.36,7.61-1.36,7.61"/>
	<path class="st1" d="M400.77,289.21c3.58-0.42,28.13-3.74,42.72-18.27c15.76-15.7,37.47-17.76,37.47-17.76s-12.58-70.1-13.64-82.47
		c-1.06-12.37-9.61-58.76-27.62-86.6c0,0-8.47-10.26-28.27-18.65"/>
	<path class="st1" d="M10.53,202.24c0.2-1.18,0.39-2.35,0.58-3.5"/>
	<path class="st1" d="M40.59,87.93c-1.12,1.92-2.2,3.91-3.25,5.95"/>
	<path class="st1" d="M12.73,188.81c0.25-1.56,0.49-3.06,0.71-4.49"/>
	<line class="st1" x1="44.18" y1="82.75" x2="44.18" y2="82.75"/>
	<path class="st1" d="M13.65,182.91c0.14-0.92,0.28-1.81,0.4-2.67"/>
	<path class="st1" d="M3.02,245.57c-0.84,4.71-1.36,7.61-1.36,7.61l0,0"/>
	<path class="st1" d="M43.18,83.81c-0.02,0.02-0.04,0.04-0.05,0.06"/>
	<polyline class="st1" points="71.56,65.31 71.56,65.31 71.56,65.31 	"/>
	<path class="st1" d="M43.04,83.97C43.02,84,43,84.01,42.99,84.03"/>
	<path class="st1" d="M7.17,221.89c0.2-1.17,0.41-2.34,0.61-3.53"/>
	<path class="st1" d="M5.46,231.71c0.17-0.98,0.35-1.98,0.52-3"/>
	<path class="st1" d="M3.02,245.57c0.32-1.81,0.69-3.9,1.09-6.19"/>
	<path class="st1" d="M5.46,231.71c-0.2,1.14-0.4,2.26-0.59,3.34"/>
	<path class="st1" d="M4.88,235.05c-0.27,1.51-0.52,2.96-0.76,4.34"/>
	<path class="st1" d="M7.18,254.13c-3.4-0.76-5.52-0.96-5.52-0.96"/>
	<path class="st1" d="M7.78,218.36c0.2-1.18,0.41-2.38,0.61-3.57"/>
	<path class="st1" d="M8.4,214.79c0.19-1.09,0.38-2.19,0.56-3.29"/>
	<path class="st1" d="M9.32,209.39c-0.12,0.7-0.24,1.41-0.36,2.11"/>
	<path class="st1" d="M10.53,202.24c-0.39,2.36-0.8,4.75-1.21,7.15"/>
	<path class="st1" d="M7.17,221.89c-0.3,1.75-0.6,3.47-0.89,5.15"/>
	<path class="st1" d="M42.95,84.07c-0.02,0.02-0.02,0.03-0.03,0.03"/>
	<path class="st1" d="M40.59,87.93c0.76-1.3,1.53-2.58,2.33-3.82c0,0,0,0,0,0"/>
	<path class="st1" d="M32.44,104.49c1.52-3.65,3.16-7.2,4.9-10.61"/>
	<path class="st1" d="M71.56,65.31l1.58,2.48c26.93,55.43,20.72,158.58,20.72,158.58l-2.12,11.55"/>
	<path class="st1" d="M24.55,126.89c0.63-2.13,1.3-4.27,2-6.42"/>
	<path class="st1" d="M29.18,112.86c0.49-1.33,0.99-2.66,1.5-3.99"/>
	<path class="st1" d="M42.95,84.07c0.01-0.01,0.02-0.03,0.04-0.04"/>
	<path class="st1" d="M19.76,145.21c0.65-2.86,1.38-5.84,2.17-8.91"/>
	<path class="st1" d="M43.18,83.81c0.21-0.23,0.54-0.59,1-1.06"/>
	<path class="st1" d="M44.18,82.75c3.04-3.09,11.71-10.87,27.38-17.44"/>
	<path class="st1" d="M43.04,83.97c0.03-0.03,0.06-0.06,0.09-0.1"/>
	<polyline class="st1" points="91.74,237.93 82.31,289.26 82.31,289.26 	"/>
	<path class="st1" d="M24.55,126.89c-0.63,2.13-1.23,4.23-1.79,6.31"/>
	<path class="st1" d="M18.56,150.74c0.37-1.78,0.77-3.63,1.21-5.54"/>
	<path class="st1" d="M16.71,160.5c-0.74,4.37-1.2,7.88-1.4,10.2c-0.12,1.35-0.37,3.4-0.73,5.96"/>
	<path class="st1" d="M18.56,150.74c-0.37,1.78-0.71,3.49-1.02,5.12"/>
	<path class="st1" d="M32.44,104.49c-0.6,1.45-1.19,2.91-1.76,4.38"/>
	<path class="st1" d="M29.18,112.86c-0.92,2.53-1.81,5.08-2.63,7.62"/>
	<path class="st1" d="M82.31,289.26c0,0-27.41-2.62-43.18-18.32c-10.83-10.79-24.48-15.14-31.95-16.8"/>
	<path class="st1" d="M12.73,188.81c-0.5,3.12-1.04,6.46-1.62,9.92"/>
	<path class="st1" d="M14.58,176.67c-0.15,1.1-0.33,2.3-0.52,3.58"/>
	<path class="st1" d="M21.94,136.3c0.27-1.02,0.54-2.05,0.82-3.09"/>
	<path class="st1" d="M16.71,160.5c0.25-1.46,0.52-3,0.83-4.64"/>
	<path class="st1" d="M13.65,182.91c-0.07,0.46-0.14,0.93-0.22,1.41"/>
	<path class="st1" d="M5.99,228.71c0.1-0.55,0.19-1.11,0.29-1.67"/>
	<path class="st1" d="M411.43,65.46l-1.48,2.33c-26.93,55.43-20.72,158.58-20.72,158.58l11.55,62.84"/>
	<path class="st1" d="M400.77,289.21l0.01,0.05c0,0,27.41-2.62,43.18-18.32c15.76-15.7,37.47-17.76,37.47-17.76
		s-12.58-70.1-13.64-82.47c-1.06-12.37-9.61-58.76-27.62-86.6c0,0-8.58-10.39-28.64-18.8l-0.1,0.15"/>
</g>
<path class="Colour2 fill" d="M122.04,567.8c22.96,4.38,60.1,9.03,119.11,11.35c59.01-2.32,96.15-6.97,119.11-11.35V49.31
	c-21.93-7.73-43.7-17-54.36-22.85c-10.6,14.02-29.8,27.33-64.52,27.39l-0.22,0c-34.86,0-54.12-13.33-64.74-27.39
	c-10.67,5.84-32.44,15.12-54.36,22.85V567.8z"/>
<path class="Colour1 fill" d="M198.96,576.88c12.65,0.89,26.65,1.66,42.19,2.27c15.54-0.61,29.54-1.39,42.19-2.27V45.07
	c-10.56,5.27-24.24,8.76-41.96,8.79l-0.22,0c-17.84,0-31.58-3.5-42.19-8.79V576.88z"/>
<path class="Colour2 fill" d="M93.7,200.6l-0.39,25.08l0.01,2.76l0.38-2.08c0,0,1.96,12.22,4.56,31.06h285.78
	c2.18-15.76,3.9-26.88,4.4-30.1l0.94-26.74c-0.02-11.11,0.22-21.38,0.66-30.88h-297C93.48,179.22,93.72,189.49,93.7,200.6z"/>
<path class="st3" d="M321.18,62.03"/>
<path class="st3" d="M317.06,58.05"/>
<path class="st3" d="M309,62.32"/>
<polygon class="ArmTrim fill" points="4.08,242.89 83.07,279.29 81.05,286.79 2.11,261.45 "/>
<polygon class="st1" points="1,262.45 81.02,287.79 83.07,280.29 3,243.89 "/>
<polygon class="ArmTrim fill" points="479.27,244.64 400.28,279.28 402.3,286.79 481.24,263.2 "/>
<polygon class="st4" points="480.97,245.64 399.27,280.28 401.36,287.79 483.01,264.2 "/>
<path class="Colour1 fill" d="M136.17,609.18c14.53,11.95,35.54,31.32,104.42,31.32c68.89,0,89.89-19.37,104.42-31.32
	c11.78-9.69,22.37-13.7,27.97-15.24c1.94-0.53,2.58-2.93,1.2-4.39c-2.21-2.33-5.18-4.93-9.09-7.4c-7-4.44-10.54-8.63-37.84-11.19
	c-5.98-0.56-13.12-1.04-21.66-1.43c-15.54-0.71-38.27-0.88-64.99-0.88c-26.73,0-49.45,0.18-65,0.88
	c-8.54,0.39-15.68,0.86-21.66,1.43c-27.3,2.55-30.84,6.75-37.84,11.19c-3.92,2.48-6.9,5.09-9.11,7.42
	c-1.38,1.46-0.74,3.87,1.21,4.39C113.74,595.46,124.25,599.37,136.17,609.18"/>
<path class="st5" d="M136.17,609.18c14.53,11.95,35.54,31.32,104.42,31.32c68.89,0,89.89-19.37,104.42-31.32
	c11.46-9.43,21.79-13.48,27.5-15.11c2.15-0.61,2.89-3.27,1.33-4.87c-2.17-2.24-5.04-4.7-8.76-7.06c-7-4.44-10.54-8.63-37.84-11.19
	c-5.98-0.56-13.12-1.04-21.66-1.43c-15.54-0.71-38.27-0.88-64.99-0.88c-26.73,0-49.45,0.18-65,0.88
	c-8.54,0.39-15.68,0.86-21.66,1.43c-27.3,2.55-30.84,6.75-37.84,11.19c-3.73,2.36-6.6,4.83-8.78,7.07c-1.55,1.6-0.82,4.27,1.33,4.87
	C114.31,595.68,124.57,599.64,136.17,609.18z"/>
<path class="BottomHem fill" d="M245.75,643.72c-22.9,0-44.65-2.3-47.29-2.59c-24.67-1.1-61.05-29.53-62.59-30.74l-0.4-0.35
	c-4.32-4.14-19.49-11.73-28.03-15.55l-1.52-2.25l0.94-10.18l5.03,2.25c2.42,1.08,23.61,10.66,30.93,17.44
	c9.94,7.78,38.84,27.59,56.28,28.27l0.39,0.03c0.56,0.06,56.21,6.14,83.07-0.76l0.78-0.14c0.23-0.03,24.34-2.86,47.45-21.29
	c2.47-2.45,21.7-21.1,38.17-23.95l5.41-0.94l1.85,10.97l-5.42,0.93c-11.5,1.98-27.35,15.9-32.49,21.09l-0.47,0.42
	c-24.35,19.53-49.29,23.31-52.95,23.77C274.14,642.86,259.73,643.72,245.75,643.72"/>
<line class="st6" x1="185.75" y1="57.37" x2="81.81" y2="95.22"/>
<line class="st7" x1="180.37" y1="56.67" x2="81.81" y2="91.73"/>
<line class="st7" x1="181.36" y1="57.95" x2="81.81" y2="93.76"/>
<line class="st6" x1="297.56" y1="57.37" x2="401.5" y2="95.22"/>
<line class="st7" x1="302.93" y1="56.67" x2="401.5" y2="91.73"/>
<line class="st7" x1="302.93" y1="58.42" x2="401.5" y2="93.47"/>
<path class="st7" d="M399.27,284.89c0,0,27.41-2.62,43.18-18.32c15.76-15.7,37.47-17.76,37.47-17.76"/>
<path class="st7" d="M399.27,283.14c0,0,27.41-2.62,43.18-18.32c15.76-15.7,37.47-17.76,37.47-17.76"/>
<path class="st7" d="M82.91,285.47c0,0-27.42-2.62-43.18-18.32c-15.76-15.7-37.47-17.76-37.47-17.76"/>
<path class="st7" d="M82.91,283.72c0,0-27.42-2.62-43.18-18.32c-15.76-15.7-37.47-17.76-37.47-17.76"/>
<path class="st7" d="M312.4,567.73l9.73-185.56c0,0,4.05-25.16,13.87-47.33c16.57-40.34,49.66-120.86,55.16-134.26"/>
<path class="st7" d="M314.15,567.73l9.73-185.56c0,0,4.05-25.16,13.87-47.33c16.57-40.34,49.66-120.86,55.16-134.26"/>
<path class="st7" d="M170.97,567.73l-9.73-185.56c0,0-4.05-25.16-13.87-47.33C130.8,294.5,97.71,213.98,92.21,200.57"/>
<path class="st7" d="M169.22,567.73l-9.73-185.56c0,0-4.05-25.16-13.87-47.33c-16.57-40.34-49.66-120.86-55.16-134.26"/>
<path class="st7" d="M377.15,587.83c-2.2-2.95-5.99-7.09-12.07-10.92c-7.01-4.44-10.54-8.63-37.84-11.19
	c-5.98-0.56-13.12-1.04-21.67-1.43c-15.54-0.71-38.28-0.89-64.99-0.89c-26.73,0-49.45,0.18-65,0.89
	c-8.54,0.38-15.68,0.86-21.66,1.43c-27.3,2.56-30.84,6.75-37.85,11.19c-6.07,3.84-9.87,7.98-12.07,10.92"/>
<path class="st7" d="M377.15,584.34c-2.2-2.95-5.99-7.09-12.07-10.92c-7.01-4.44-10.54-8.63-37.84-11.19
	c-5.98-0.56-13.12-1.04-21.67-1.43c-15.54-0.71-38.28-0.89-64.99-0.89c-26.73,0-49.45,0.18-65,0.89
	c-8.54,0.38-15.68,0.86-21.66,1.43c-27.3,2.56-30.84,6.75-37.85,11.19c-6.07,3.84-9.87,7.98-12.07,10.92"/>
<path class="st7" d="M74.97,65.26c0,0,22.42,31.16,22.24,135.34"/>
<path class="st7" d="M408.27,65.26c0,0-22.42,31.16-22.24,135.34"/>
<path class="st3" d="M277.79,56.76"/>
<path class="st3" d="M269.71,61.05"/>
<path class="st8" d="M180.59,38.05c20.48-22.33,96.57-26.13,120.94-1.7l-6.27-13.38c-21.91-7.01-37.53-11.63-53.15-11.66
	c-15.62-0.03-31.23,4.52-53.15,11.53L180.59,38.05z"/>
<path class="st3" d="M265.68,57.16"/>
<path class="st3" d="M257.83,61.33"/>
<path class="NeckTrim fill" d="M284.76,7.64c-31.34-8-56.6-7.65-89,1.13l4.12,10.16c12.18-4.56,26.9-5.55,41.72-5.55
	c14.02,0,28.11,0.75,40.22,4.47L284.76,7.64z"/>

<path class="white" d="M192.54,21.39c10.93-3.81,27.89-8.29,48.97-8.29c21.07,0,38.02,4.48,48.95,8.29c0.37,7.1-0.26,17.42-6.41,26.59
	c-3.21,4.78-5.79,7.47-12.6,12.68c-8.34,6.38-17.75,14.74-20.48,22.2c-6.3,0-12.6,0-18.91,0c-2.9-7.21-7.2-11.02-10.03-13.69
	c-3.75-3.53-4.84-4.11-12.02-10.09c-4.66-3.88-7.08-5.92-9.45-9.51c-2.39-3.61-3.38-6.72-4.73-11.1
	C194.58,34.46,193.15,28.66,192.54,21.39z"/>

<path class="st9" d="M284.76,7.64c-31.34-8-56.6-7.65-89,1.13l4.12,10.16c12.18-4.56,26.9-5.55,41.72-5.55
	c14.02,0,28.11,0.75,40.22,4.47L284.76,7.64z"/>
<path class="NeckTrim fill" d="M190.83,10.24l16.03-4.49l2.56,10.97l-19.34,5.27C190.08,21.98,188.83,17.23,190.83,10.24"/>
<path class="st9" d="M190.83,10.24l16.03-4.49l2.56,10.97l-19.34,5.27C190.08,21.98,188.83,17.23,190.83,10.24z"/>
<path class="NeckTrim fill" d="M293.49,10.24l-16.03-4.49l-2.56,10.97l19.34,5.27C294.24,21.98,295.49,17.23,293.49,10.24"/>
<path class="st9" d="M293.49,10.24l-16.03-4.49l-2.56,10.97l19.34,5.27C294.24,21.98,295.49,17.23,293.49,10.24z"/>
<path class="st2" d="M180.59,38.05c20.48-22.33,96.57-26.13,120.94-1.7l-6.27-13.38c-21.91-7.01-37.53-11.63-53.15-11.66
	c-15.62-0.03-31.23,4.52-53.15,11.53L180.59,38.05z"/>
<path class="Colour1 fill" d="M176.64,27.67c0.22,20.52,10.78,30.61,10.78,30.61l-8.91,3.39c-15.54-14.86-12.45-28.83-12.45-28.83
	L176.64,27.67 M308.26,27.67c-0.22,20.52-9.08,30.61-9.08,30.61l4.82,3.39c15.54-14.86,13.15-28.83,13.15-28.83L308.26,27.67"/>
<path class="NeckTrim fill" d="M294.34,11.62l14.61,17.24c0,0,1.19,25.32-15.53,36.94c-4.5,3.12-16.64,11.04-21.51,13.99
	c-13.26,8.01-18.59,9.71-18.59,9.71s0.17-10.37,3.85-12.57c0,0,26.09-22.15,28.18-25.13C287.44,48.81,295.56,26.25,294.34,11.62"/>
<path class="st10" d="M294.34,11.62l14.61,17.24c0,0,1.19,25.32-15.53,36.94c-4.5,3.12-16.64,11.04-21.51,13.99
	c-13.26,8.01-18.59,9.71-18.59,9.71s0.17-10.37,3.85-12.57c0,0,26.09-22.15,28.18-25.13C287.44,48.81,295.56,26.25,294.34,11.62z"/>
<path class="NeckTrim fill" d="M188.78,11.62l-14.61,17.24c0,0-1.19,25.32,15.53,36.94c4.5,3.12,16.64,11.04,21.51,13.99
	c13.26,8.01,18.59,9.71,18.59,9.71s-0.17-10.37-3.85-12.57c0,0-26.09-22.15-28.18-25.13C195.68,48.81,187.55,26.25,188.78,11.62"/>
<path class="st10" d="M188.78,11.62l-14.61,17.24c0,0-1.19,25.32,15.53,36.94c4.5,3.12,16.64,11.04,21.51,13.99
	c13.26,8.01,18.59,9.71,18.59,9.71s-0.17-10.37-3.85-12.57c0,0-26.09-22.15-28.18-25.13C195.68,48.81,187.55,26.25,188.78,11.62z"/>
<path class="Insert fill" d="M229.8,81.83h23l-3.58,8.64c0,0-5.87,2.08-14.73,0L229.8,81.83z"/>
<g id="FBodyLogos"></g>
<path class="st11" d="M230.38,81.28h23l-3.58,8.64c0,0-5.87,2.08-14.73,0L230.38,81.28z"/>
<path class="st7" d="M165.45,33.14c1.07,17.69,13.06,30.02,13.06,30.02c21.35,21.07,46.51,31.22,46.51,31.22s8.73,1.78,14.04,1.78
	h4.16c5.31,0,14.04-1.78,14.04-1.78s25.16-10.15,46.51-31.22c0,0,11.99-12.33,13.06-30.02"/>
<path class="st7" d="M169.76,30.94c-1.49,11.32,10.13,28.68,10.13,28.68c21.35,21.07,46.62,31.49,46.62,31.49s8.24,2.28,13.55,2.28
	h2.16c5.31,0,13.55-2.28,13.55-2.28s25.27-10.42,46.62-31.49c0,0,11.63-17.36,10.13-28.68"/>
<path class="NeckTrim fill" d="M253.31,89.49c0.02-0.06,1.78-3.95,3.8-9.14c1.21-3.09,8.38-8.94,15.32-14.6
	c3.55-2.89,7.22-5.88,10.62-8.91c16.24-14.4,14.61-36.71,12.75-44.03c-0.8-3.15-7.02-5.72-18.5-7.64l-0.67,2.98
	c6.69,1.12,13.39,3.1,14.69,4.32c0.52,3.84-1.92,32.37-11.45,40.81c-3.34,2.96-6.96,5.92-10.48,8.78
	c-9.35,7.63-15.16,12.5-16.75,16.56c-2.11,5.41-3.87,11.7-3.95,11.97L253.31,89.49z"/>
<path class="st12" d="M253.31,89.49c0.02-0.06,1.78-3.95,3.8-9.14c1.21-3.09,8.38-8.94,15.32-14.6c3.55-2.89,7.22-5.88,10.62-8.91
	c16.24-14.4,14.61-36.71,12.75-44.03c-0.8-3.15-7.02-5.72-18.5-7.64l-0.67,2.98c6.69,1.12,13.39,3.1,14.69,4.32
	c0.52,3.84-1.92,32.37-11.45,40.81c-3.34,2.96-6.96,5.92-10.48,8.78c-9.35,7.63-15.16,12.5-16.75,16.56
	c-2.11,5.41-3.87,11.7-3.95,11.97L253.31,89.49z"/>
<path class="NeckTrim fill" d="M230.46,89.49c-0.02-0.06-1.78-3.95-3.8-9.14c-1.21-3.09-8.38-8.94-15.32-14.6
	c-3.55-2.89-7.22-5.88-10.63-8.91c-7.52-6.66-12.65-44.44-12.75-44.03c0.8-3.15,7.02-5.72,18.5-7.64l0.67,2.98
	c-6.69,1.12-13.39,3.1-14.69,4.32c-0.52,3.84,1.92,32.37,11.45,40.81c3.34,2.96,6.96,5.92,10.48,8.78
	c9.35,7.63,15.17,12.5,16.75,16.56c2.11,5.41,3.87,11.7,3.95,11.97L230.46,89.49z"/>
<path class="st12" d="M230.46,89.49c-0.02-0.06-1.78-3.95-3.8-9.14c-1.21-3.09-8.38-8.94-15.32-14.6
	c-3.55-2.89-7.22-5.88-10.63-8.91c-7.52-6.66-12.65-44.44-12.75-44.03c0.8-3.15,7.02-5.72,18.5-7.64l0.67,2.98
	c-6.69,1.12-13.39,3.1-14.69,4.32c-0.52,3.84,1.92,32.37,11.45,40.81c3.34,2.96,6.96,5.92,10.48,8.78
	c9.35,7.63,15.17,12.5,16.75,16.56c2.11,5.41,3.87,11.7,3.95,11.97L230.46,89.49z"/>
<path class="st13" d="M411.62,65.26c0,0-22.42,31.16-22.24,135.34l-0.94,26.74"/>
<path class="st13" d="M71.46,65.26c0,0,22.42,31.16,22.24,135.34l-0.39,25.08"/>
<path class="BottomHem fill" d="M375.08,579.69l-10.34-9.28c-10.34-9.28-53.76-10.82-53.76-10.82H170.19c0,0-43.43,1.55-53.76,10.82
	l-10.34,9.28l-1.38,13.38c0,0,16.37-15.96,22.57-16.99c3.08-0.51,14.06-3.72,24.34-4.75c10.43-1.04,20.12-1.95,20.12-1.95h137.68
	c0,0,9.7,0.91,20.12,1.95c10.28,1.03,21.26,4.23,24.33,4.75c6.21,1.03,22.58,16.99,22.58,16.99L375.08,579.69z"/>
</svg>
