<?xml version="1.0" encoding="utf-8"?>
<!-- Generator: Adobe Illustrator 19.1.0, SVG Export Plug-In . SVG Version: 6.00 Build 0)  -->
<svg version="1.1" id="Layer_1" xmlns="http://www.w3.org/2000/svg" xmlns:xlink="http://www.w3.org/1999/xlink" x="0px" y="0px"
	 viewBox="0 0 483.01 645.44" style="enable-background:new 0 0 483.01 645.44;" xml:space="preserve">
<style type="text/css">
	<![CDATA[
	@font-face{font-family:'codaheavy';src:url('/fonts/coda-heavy-webfont.woff') format('woff')}
	text{font-family:Impact,codaheavy,sans-serif}
	.Colour1.fill{fill:#10122C;}
	.Colour2.fill{fill:#222457;}
	.Colour3.fill{fill:#C6C62E;}
	.Insert.fill{fill:#222457;}
	.ArmTrim.fill{fill:#C6C62E;}
	.NeckTrim.fill{fill:#C6C62E;}
	.BottomHem.fill{fill:#222457;stroke:#101010;stroke-width:0.8861;stroke-miterlimit:10;}
	.Gradient1.stopColor{stop-color:#203A6F;}
	.st0{fill:none;stroke:#10122C;stroke-width:2;stroke-linecap:round;stroke-linejoin:round;}
	.st1{fill:url(#SVGID_1_);}
	.st2{fill:#9C2321;stroke:#000000;stroke-width:2;stroke-miterlimit:10;}
	.st3{fill:none;stroke:#221915;stroke-width:0.216;stroke-linecap:round;stroke-linejoin:round;}
	.st4{fill:none;stroke:#0A0505;stroke-width:0.6559;stroke-miterlimit:10;}
	.st5{fill:none;stroke:#FFFFFF;stroke-width:0.328;}
	.st6{fill:none;stroke:#FFFFFF;stroke-width:0.216;stroke-dasharray:2.4,2.4,2.4,2.4;}
	.st7{fill:none;stroke:#101010;stroke-width:0.216;stroke-dasharray:2.4,2.4,2.4,2.4;}
	.st8{fill:#FFFFFF;}
	.st9{fill:none;stroke:#221915;stroke-width:0.233;stroke-miterlimit:10;}
	.st10{fill:none;stroke:#221915;stroke-width:0.36;stroke-miterlimit:10;}
	.st11{fill:none;stroke:#0A0505;stroke-width:0.233;stroke-miterlimit:10;}
	.st12{fill:#4D4E4E;stroke:#000000;stroke-width:0.5;}
	.st14{fill:none;}
	.st15{fill:#9E802E;}
	.st16{fill:none;stroke:#0A0505;stroke-width:0.2801;}
	.st17{fill:none;stroke:#000000;stroke-width:0.4411;}
	.st18{fill:#FFFFFF;stroke:#000000;stroke-width:2;stroke-miterlimit:10;}
	.white{fill:#ffffff;}
	]]>
</style>
<path class="Colour1 fill" d="M467.39,170.71c-1.06-12.37-9.61-58.76-27.62-86.6c0,0-13.6-16.49-46.65-24.74
	c-33.06-8.25-82.62-28.87-92.15-36.08l-57.74-7h-3.7l-57.74,7c-9.53,7.22-59.09,27.83-92.15,36.08C56.6,67.62,43,84.11,43,84.11
	c-18.01,27.83-26.55,74.23-27.62,86.6c-1.06,12.37-13.64,82.47-13.64,82.47s21.71,2.06,37.47,17.76
	c15.76,15.7,43.18,18.32,43.18,18.32l11.55-62.89c0,0,21.13,131.96,16.9,197.94c-4.24,65.98-4.24,167-4.24,167h132.94h3.7h132.94
	c0,0,0-101.03-4.24-167c-4.23-65.98,16.9-197.94,16.9-197.94l11.55,62.89c0,0,27.42-2.62,43.18-18.32
	c15.76-15.7,37.47-17.76,37.47-17.76S468.45,183.08,467.39,170.71"/>
<path class="Colour1 fill" d="M411.86,65.26c0,0-22.42,31.16-22.24,135.34l-0.94,26.74"/>
<path class="Colour1 fill" d="M93.55,225.68l0.39-25.08c0.17-96.04-18.87-130.02-21.85-134.75"/>
<path class="Colour1 fill" d="M82.39,289.26l11.55-62.89c0,0,6.21-103.15-20.72-158.58l-1.58-2.48C51.58,73.72,43,84.11,43,84.11
	c-18.01,27.83-26.55,74.23-27.62,86.6c-1.06,12.37-13.64,82.47-13.64,82.47s21.71,2.06,37.47,17.76
	C54.97,286.63,82.39,289.26,82.39,289.26z"/>
<path class="Colour1 fill" d="M400.86,289.26l-11.55-62.89c0,0-6.21-103.15,20.72-158.58l1.58-2.48c20.06,8.41,28.64,18.8,28.64,18.8
	c18.01,27.83,26.55,74.23,27.62,86.6c1.06,12.37,13.64,82.47,13.64,82.47s-21.71,2.06-37.47,17.76
	C428.27,286.63,400.86,289.26,400.86,289.26z"/>
<g>
	<path class="st0" d="M44.97,82.75C49,78.64,63.02,66.19,90.36,59.37c33.06-8.25,82.62-28.87,92.15-36.08l57.74-7h3.7l57.74,7
		c9.53,7.22,59.09,27.83,92.15,36.08c6.98,1.74,13.08,3.85,18.38,6.1"/>
	<path class="st0" d="M41.37,87.93c0.76-1.3,1.53-2.58,2.33-3.82c0,0,0,0,0,0"/>
	<path class="st0" d="M401.55,289.21c-0.29,0.03-0.46,0.05-0.46,0.05l-11.55-62.89c0,0-21.13,131.96-16.9,197.94
		c4.24,65.98,4.24,167,4.24,167H243.94h-3.7H107.3c0,0,0-101.03,4.24-167c4.23-65.98-16.9-197.93-16.9-197.94"/>
	<path class="st0" d="M43.91,83.87c-0.04,0.04-0.06,0.07-0.09,0.1"/>
	<path class="st0" d="M28.14,118.06c0.59-1.74,1.2-3.47,1.83-5.2"/>
	<path class="st0" d="M38.12,93.88c1.04-2.04,2.13-4.03,3.25-5.95"/>
	<path class="st0" d="M10.1,209.39c0.41-2.4,0.81-4.8,1.21-7.15"/>
	<path class="st0" d="M31.47,108.87c0.57-1.47,1.15-2.94,1.76-4.38"/>
	<path class="st0" d="M85.21,277.7l-2.12,11.55c0,0-0.96-0.09-2.63-0.35"/>
	<polyline class="st0" points="94.65,226.37 94.65,226.37 85.21,277.7 	"/>
	<path class="st0" d="M38.12,93.88c-1.74,3.41-3.38,6.96-4.9,10.61"/>
	<path class="st0" d="M412.21,65.46c0.06,0.02,0.12,0.05,0.17,0.07"/>
	<path class="st0" d="M412.38,65.53c0.04,0.02,0.09,0.04,0.14,0.06"/>
	<path class="st0" d="M43.77,84.03c-0.02,0.02-0.03,0.03-0.04,0.04"/>
	<line class="st0" x1="44.97" y1="82.75" x2="44.97" y2="82.75"/>
	<path class="st0" d="M55.11,281.31c10.21,4.87,20.62,6.88,25.35,7.6"/>
	<path class="st0" d="M44.97,82.75c-0.46,0.47-0.79,0.83-1,1.06"/>
	<path class="st0" d="M31.47,108.87c-0.51,1.32-1.01,2.65-1.5,3.99"/>
	<path class="st0" d="M401.55,289.21c3.58-0.42,28.13-3.74,42.72-18.27c15.76-15.7,37.47-17.76,37.47-17.76s-12.58-70.1-13.64-82.47
		c-1.06-12.37-9.61-58.76-27.62-86.6c0,0-8.38-10.16-27.96-18.52"/>
	<path class="st0" d="M43.71,84.1c0,0,0.01-0.02,0.03-0.03"/>
	<path class="st0" d="M43.77,84.03c0.01-0.02,0.03-0.04,0.05-0.06"/>
	<path class="st0" d="M43.91,83.87c0.02-0.02,0.04-0.04,0.05-0.06"/>
	<path class="st0" d="M21.09,142.86c-0.42,1.76-0.81,3.49-1.18,5.17"/>
	<path class="st0" d="M10.1,209.39c-0.19,1.1-0.37,2.2-0.56,3.3"/>
	<path class="st0" d="M9.18,214.79c0.12-0.7,0.24-1.4,0.36-2.11"/>
	<path class="st0" d="M21.09,142.86c0.27-1.16,0.56-2.33,0.85-3.52"/>
	<path class="st0" d="M3.8,245.57c0.32-1.81,0.69-3.89,1.09-6.19"/>
	<path class="st0" d="M18.32,155.87c0.31-1.63,0.65-3.34,1.02-5.12"/>
	<path class="st0" d="M2.45,253.18L2.45,253.18c0,0,2.12,0.2,5.52,0.96"/>
	<path class="st0" d="M16.84,164.57c0.37-2.51,0.86-5.44,1.48-8.7"/>
	<path class="st0" d="M13,192c-0.18,1.09-0.36,2.19-0.54,3.32"/>
	<path class="st0" d="M3.8,245.57c-0.84,4.71-1.36,7.61-1.36,7.61"/>
	<path class="st0" d="M7.96,221.89c0.2-1.17,0.4-2.34,0.61-3.53"/>
	<path class="st0" d="M7.96,221.89c-0.18,1.06-0.37,2.12-0.55,3.16"/>
	<path class="st0" d="M28.14,118.06c-1,2.95-1.93,5.91-2.8,8.83"/>
	<path class="st0" d="M16.84,164.57c-0.37,2.51-0.62,4.58-0.75,6.13c-0.05,0.58-0.12,1.29-0.22,2.11"/>
	<path class="st0" d="M23.54,133.21c0.57-2.08,1.16-4.19,1.79-6.31"/>
	<path class="st0" d="M8.56,218.36c0.2-1.18,0.41-2.38,0.61-3.57"/>
	<path class="st0" d="M4.9,239.38c0.24-1.37,0.5-2.82,0.76-4.34"/>
	<path class="st0" d="M55.11,281.31c-5.41-2.58-10.76-5.96-15.19-10.37c-10.83-10.79-24.48-15.14-31.95-16.8"/>
	<path class="st0" d="M15.87,172.81c-0.16,1.37-0.39,3.05-0.67,4.99"/>
	<path class="st0" d="M7.06,227.04c0.11-0.66,0.23-1.32,0.35-1.99"/>
	<path class="st0" d="M13.99,185.77c-0.23,1.48-0.48,3.02-0.73,4.61"/>
	<path class="st0" d="M5.66,235.05c0.27-1.51,0.54-3.08,0.82-4.71"/>
	<path class="st0" d="M14.84,180.24c-0.13,0.85-0.26,1.74-0.4,2.67"/>
	<polyline class="st0" points="389.68,218.87 389.39,227.34 389.88,223.89 	"/>
	<path class="st0" d="M412.55,65.41l0.02-0.15c0,0-0.03,0.04-0.08,0.12"/>
	<line class="st0" x1="389.88" y1="223.89" x2="412.52" y2="65.59"/>
	<path class="st0" d="M412.38,65.53c-2.12,3.22-22.23,36.39-22.06,135.07l-0.64,18.27"/>
	<line class="st0" x1="412.55" y1="65.41" x2="412.52" y2="65.59"/>
	<path class="st0" d="M412.38,65.53c0.04-0.06,0.07-0.11,0.1-0.15"/>
	<path class="st0" d="M85.83,102.99C80.48,79.11,74.38,68.36,72.8,65.85l0.03,0.21"/>
	<path class="st0" d="M85.83,102.99c4.74,21.13,8.89,52.53,8.81,97.61l-0.39,25.08L72.82,66.06"/>
	<path class="st0" d="M5.66,235.05c-0.27,1.51-0.52,2.96-0.76,4.34"/>
	<path class="st0" d="M29.97,112.86c-0.63,1.73-1.24,3.47-1.83,5.2"/>
	<path class="st0" d="M3.8,245.57c0.32-1.81,0.69-3.9,1.09-6.19"/>
	<path class="st0" d="M15.2,177.8c0.28-1.94,0.5-3.62,0.67-4.99"/>
	<path class="st0" d="M7.41,225.05c-0.12,0.67-0.23,1.33-0.35,1.99"/>
	<path class="st0" d="M43.82,83.97c-0.02,0.02-0.04,0.04-0.05,0.06"/>
	<path class="st0" d="M25.34,126.89c-0.63,2.13-1.23,4.23-1.79,6.31"/>
	<path class="st0" d="M21.95,139.34c-0.3,1.19-0.58,2.36-0.85,3.52"/>
	<path class="st0" d="M6.48,230.34c-0.28,1.62-0.56,3.2-0.82,4.71"/>
	<path class="st0" d="M7.41,225.05c0.18-1.04,0.36-2.09,0.55-3.16"/>
	<path class="st0" d="M14.44,182.91c0.14-0.92,0.28-1.81,0.4-2.67"/>
	<path class="st0" d="M41.37,87.93c-1.12,1.92-2.2,3.91-3.25,5.95"/>
	<line class="st0" x1="44.97" y1="82.75" x2="44.97" y2="82.75"/>
	<path class="st0" d="M43.73,84.07c-0.02,0.02-0.02,0.03-0.03,0.03"/>
	<path class="st0" d="M13.26,190.39c0.26-1.59,0.5-3.14,0.73-4.61"/>
	<path class="st0" d="M9.54,212.68c0.19-1.1,0.38-2.2,0.56-3.3"/>
	<path class="st0" d="M33.22,104.49c-0.6,1.45-1.19,2.91-1.76,4.38"/>
	<path class="st0" d="M43.97,83.81c-0.02,0.02-0.04,0.04-0.05,0.06"/>
	<path class="st0" d="M12.46,195.31c0.18-1.12,0.37-2.23,0.54-3.32"/>
	<path class="st0" d="M43.82,83.97c0.03-0.03,0.06-0.06,0.09-0.1"/>
	<path class="st0" d="M55.11,281.31c-5.41-2.58-10.76-5.96-15.19-10.37c-10.83-10.79-24.48-15.14-31.95-16.8"/>
	<path class="st0" d="M11.31,202.24c-0.39,2.36-0.8,4.75-1.21,7.15"/>
	<path class="st0" d="M16.84,164.57c-0.37,2.51-0.62,4.58-0.75,6.13c-0.05,0.58-0.12,1.29-0.22,2.11"/>
	<path class="st0" d="M44.97,82.75c3.04-3.09,11.71-10.87,27.38-17.44l0.48,0.75"/>
	<path class="st0" d="M85.21,277.7l-2.12,11.55c0,0-0.96-0.09-2.63-0.35"/>
	<path class="st0" d="M85.83,102.99c-2.98-12.75-6.86-24.81-11.91-35.2l-1.1-1.73"/>
	<path class="st0" d="M3.8,245.57c-0.84,4.71-1.36,7.61-1.36,7.61l0,0"/>
	<path class="st0" d="M9.54,212.68c-0.12,0.7-0.24,1.4-0.36,2.11"/>
	<path class="st0" d="M85.83,102.99c12.91,55.27,8.81,123.38,8.81,123.38l0,0"/>
	<path class="st0" d="M7.96,254.13c-3.4-0.76-5.52-0.96-5.52-0.96"/>
	<path class="st0" d="M9.18,214.79c-0.21,1.2-0.41,2.39-0.61,3.57"/>
	<path class="st0" d="M7.96,221.89c0.2-1.17,0.4-2.34,0.61-3.53"/>
	<path class="st0" d="M19.92,148.02c0.36-1.67,0.76-3.4,1.18-5.17"/>
	<line class="st0" x1="85.21" y1="277.7" x2="94.65" y2="226.37"/>
	<path class="st0" d="M43.73,84.07c0.01-0.01,0.02-0.03,0.04-0.04"/>
	<path class="st0" d="M55.11,281.31c10.21,4.87,20.62,6.88,25.35,7.6"/>
	<path class="st0" d="M43.97,83.81c0.21-0.23,0.54-0.59,1-1.06"/>
	<path class="st0" d="M33.22,104.49c1.52-3.65,3.16-7.2,4.9-10.61"/>
	<path class="st0" d="M41.37,87.93c0.76-1.3,1.53-2.58,2.33-3.82c0,0,0,0,0,0"/>
	<path class="st0" d="M29.97,112.86c0.49-1.33,0.99-2.66,1.5-3.99"/>
	<path class="st0" d="M19.34,150.74c-0.37,1.78-0.71,3.49-1.02,5.12"/>
	<path class="st0" d="M25.34,126.89c0.87-2.92,1.81-5.88,2.8-8.83"/>
	<path class="st0" d="M16.84,164.57c0.37-2.51,0.86-5.44,1.48-8.7"/>
	<path class="st0" d="M6.48,230.34c0.19-1.08,0.38-2.18,0.58-3.3"/>
	<path class="st0" d="M13.26,190.39c-0.09,0.53-0.17,1.07-0.26,1.61"/>
	<path class="st0" d="M12.46,195.31c-0.37,2.25-0.75,4.57-1.15,6.92"/>
	<path class="st0" d="M14.44,182.91c-0.14,0.92-0.29,1.88-0.44,2.86"/>
	<path class="st0" d="M19.34,150.74c0.19-0.89,0.38-1.8,0.58-2.72"/>
	<path class="st0" d="M15.2,177.8c-0.11,0.78-0.23,1.59-0.36,2.44"/>
	<path class="st0" d="M21.95,139.34c0.5-2,1.03-4.05,1.6-6.13"/>
	<path class="st0" d="M412.21,65.46l0.1-0.15c0.06,0.03,0.12,0.05,0.18,0.08"/>
	<path class="st0" d="M389.88,223.89c0.07,1.61,0.13,2.48,0.13,2.48l11.55,62.84"/>
	<path class="st0" d="M401.55,289.21l0.01,0.05c0,0,27.41-2.62,43.18-18.32c15.76-15.7,37.47-17.76,37.47-17.76
		s-12.58-70.1-13.64-82.47c-1.06-12.37-9.61-58.76-27.61-86.6c0,0-8.51-10.3-28.4-18.7"/>
	<path class="st0" d="M412.48,65.39c0.02,0.01,0.04,0.02,0.06,0.03"/>
	<path class="st0" d="M412.21,65.46l-1.48,2.33c-22.57,46.44-21.86,126.38-21.04,151.08"/>
	<path class="st0" d="M389.88,223.89c-0.06-1.24-0.13-2.94-0.2-5.02"/>
</g>
<polygon class="Colour3 fill" points="170.52,462.41 135.7,442.46 134.27,441.64 134.17,440.11 124.55,288.24 140.09,439.63 
	138.56,437.28 174.13,455.86 "/>
<path class="Colour3 fill" d="M122.17,83.93l68.32-26.77c-1.01-2.05-1.84-4.03-2.53-5.89l-63.4,24.84L122.17,83.93z"/>
<polygon class="Colour3 fill" points="118.2,78.6 97.36,86.78 94.46,94.8 115.81,86.43 "/>
<path class="Colour3 fill" d="M360.58,83.93l-70.37-27.68c1.01-2.05,1.84-4.03,2.53-5.89l65.45,25.75L360.58,83.93z"/>
<polygon class="Colour3 fill" points="364.55,78.6 385.38,86.78 388.28,94.8 366.94,86.43 "/>
<linearGradient id="SVGID_1_" gradientUnits="userSpaceOnUse" x1="241.4866" y1="253.9222" x2="241.4866" y2="549.2634">
	<stop class="Colour2 fill stopColor" offset="0" style="stop-color:#222457;stop-opacity:0"/>
	<stop class="Gradient1 stopColor" offset="1" style="stop-color:#203A6F"/>
</linearGradient>
<path class="st1" d="M292.08,441.19c-1.28,0.38-2.55,0.78-3.84,1.14l-7.69,2.19l-7.71,2.09c-2.57,0.7-5.16,1.34-7.74,2.01
	c-2.58,0.66-5.16,1.34-7.75,1.95l-7.77,1.88c-2.58,0.64-5.19,1.22-7.78,1.81l-0.5,0.11l-0.47-0.11l-7.73-1.87
	c-2.58-0.61-5.14-1.3-7.72-1.94l-7.71-1.96l-7.69-2.05c-2.57-0.67-5.13-1.37-7.68-2.09c-2.55-0.72-5.12-1.4-7.67-2.16
	c-1.41-0.41-2.82-0.83-4.23-1.24l-0.19-1.52c1.62,0.29,3.24,0.58,4.86,0.88c2.62,0.47,5.21,1,7.82,1.5c2.61,0.5,5.21,1.02,7.81,1.57
	l7.8,1.61l7.78,1.7c2.59,0.57,5.19,1.11,7.77,1.72l7.26,1.67c2.43-0.59,4.86-1.19,7.3-1.73l7.79-1.78c2.59-0.61,5.2-1.15,7.81-1.71
	c2.61-0.55,5.21-1.13,7.82-1.65l7.84-1.57l7.86-1.47c1.31-0.25,2.63-0.46,3.94-0.69l1.1-0.19l-0.22,1.77L292.08,441.19z
	 M291.55,449.29c-1.27,0.22-2.55,0.43-3.82,0.67l-7.86,1.47l-7.84,1.57c-2.61,0.52-5.21,1.1-7.82,1.65c-2.6,0.56-5.21,1.1-7.81,1.71
	l-7.79,1.78c-2.44,0.54-4.87,1.14-7.3,1.73l-7.26-1.67c-2.58-0.61-5.18-1.14-7.77-1.72l-7.78-1.7l-7.8-1.61
	c-2.6-0.55-5.2-1.07-7.81-1.57c-2.61-0.5-5.21-1.04-7.82-1.5c-1.21-0.22-2.42-0.44-3.63-0.66l0.2,1.66
	c0.99,0.29,1.99,0.59,2.98,0.87c2.55,0.75,5.11,1.44,7.67,2.16c2.55,0.72,5.12,1.42,7.68,2.09l7.69,2.05l7.71,1.96
	c2.57,0.65,5.14,1.33,7.72,1.94l7.73,1.87l0.47,0.11l0.5-0.11c2.6-0.6,5.2-1.17,7.78-1.81l7.77-1.88c2.59-0.61,5.17-1.29,7.75-1.95
	c2.58-0.67,5.16-1.31,7.74-2.01l7.71-2.09l7.69-2.19c1.03-0.29,2.05-0.6,3.07-0.91L291.55,449.29z M290.32,459.31
	c-0.87,0.15-1.73,0.3-2.59,0.46l-7.86,1.47l-7.84,1.57c-2.61,0.52-5.21,1.1-7.82,1.65c-2.6,0.56-5.21,1.1-7.81,1.71l-7.79,1.78
	c-2.44,0.54-4.87,1.14-7.3,1.73l-7.26-1.67c-2.58-0.61-5.18-1.14-7.77-1.72l-7.78-1.7l-7.8-1.61c-2.6-0.55-5.2-1.07-7.81-1.57
	c-2.61-0.5-5.21-1.04-7.82-1.5c-0.8-0.15-1.6-0.29-2.4-0.44l0.22,1.81c0.58,0.17,1.16,0.34,1.74,0.51c2.55,0.75,5.11,1.44,7.67,2.16
	c2.55,0.72,5.12,1.42,7.68,2.09l7.69,2.05l7.71,1.96c2.57,0.65,5.14,1.33,7.72,1.94l7.73,1.87l0.47,0.11l0.5-0.11
	c2.6-0.6,5.2-1.17,7.78-1.81l7.77-1.88c2.59-0.61,5.17-1.29,7.75-1.95c2.58-0.67,5.16-1.31,7.74-2.01l7.71-2.09l7.69-2.19
	c0.61-0.17,1.22-0.35,1.82-0.53L290.32,459.31z M293.82,419.49l-2.15,0.37c-1.31,0.23-2.63,0.44-3.94,0.69l-7.86,1.47l-7.84,1.57
	c-2.61,0.52-5.21,1.1-7.82,1.65c-2.6,0.56-5.21,1.1-7.81,1.71l-7.79,1.78c-2.44,0.54-4.87,1.14-7.3,1.73l-7.26-1.67
	c-2.58-0.61-5.18-1.14-7.77-1.72l-7.78-1.7l-7.8-1.61c-2.6-0.55-5.2-1.07-7.81-1.57c-2.61-0.5-5.21-1.04-7.82-1.5
	c-1.97-0.37-3.95-0.72-5.93-1.07l0.03,1.36c1.82,0.54,3.63,1.07,5.45,1.6c2.55,0.75,5.11,1.44,7.67,2.16
	c2.55,0.72,5.12,1.42,7.68,2.09l7.69,2.05l7.71,1.96c2.57,0.65,5.14,1.33,7.72,1.94l7.73,1.87l0.47,0.11l0.5-0.11
	c2.6-0.6,5.2-1.17,7.78-1.81l7.77-1.88c2.59-0.61,5.17-1.29,7.75-1.95c2.58-0.67,5.16-1.31,7.74-2.01l7.71-2.09l7.69-2.19
	c1.28-0.36,2.56-0.76,3.84-1.14l1.71-0.52L293.82,419.49z M294.22,399.82l-2.56,0.44c-1.31,0.23-2.63,0.44-3.94,0.69l-7.86,1.47
	l-7.84,1.57c-2.61,0.52-5.21,1.1-7.82,1.65c-2.6,0.56-5.21,1.1-7.81,1.71l-7.79,1.78c-2.44,0.54-4.87,1.14-7.3,1.73l-7.26-1.67
	c-2.58-0.61-5.18-1.14-7.77-1.72l-7.78-1.7l-7.8-1.61c-2.6-0.55-5.2-1.07-7.81-1.57c-2.61-0.5-5.21-1.04-7.82-1.5
	c-2.11-0.39-4.22-0.77-6.33-1.15l0.03,1.31c1.95,0.58,3.9,1.15,5.85,1.72c2.55,0.75,5.11,1.44,7.67,2.16
	c2.55,0.72,5.12,1.42,7.68,2.09l7.69,2.05l7.71,1.96c2.57,0.65,5.14,1.33,7.72,1.94l7.73,1.87l0.47,0.11l0.5-0.11
	c2.6-0.6,5.2-1.17,7.78-1.81l7.77-1.88c2.59-0.61,5.17-1.29,7.75-1.95c2.58-0.67,5.16-1.31,7.74-2.01l7.71-2.09l7.69-2.19
	c1.28-0.36,2.56-0.76,3.84-1.14l2.12-0.64L294.22,399.82z M293.62,429.33l-1.95,0.33c-1.31,0.23-2.63,0.44-3.94,0.69l-7.86,1.47
	l-7.84,1.57c-2.61,0.52-5.21,1.1-7.82,1.65c-2.6,0.56-5.21,1.1-7.81,1.71l-7.79,1.78c-2.44,0.54-4.87,1.14-7.3,1.73l-7.26-1.67
	c-2.58-0.61-5.18-1.14-7.77-1.72l-7.78-1.7l-7.8-1.61c-2.6-0.55-5.2-1.07-7.81-1.57c-2.61-0.5-5.21-1.04-7.82-1.5
	c-1.91-0.35-3.82-0.69-5.73-1.04l0.03,1.38c1.75,0.52,3.5,1.03,5.25,1.54c2.55,0.75,5.11,1.44,7.67,2.16
	c2.55,0.72,5.12,1.42,7.68,2.09l7.69,2.05l7.71,1.96c2.57,0.65,5.14,1.33,7.72,1.94l7.73,1.87l0.47,0.11l0.5-0.11
	c2.6-0.6,5.2-1.17,7.78-1.81l7.77-1.88c2.59-0.61,5.17-1.29,7.75-1.95c2.58-0.67,5.16-1.31,7.74-2.01l7.71-2.09l7.69-2.19
	c1.28-0.36,2.56-0.76,3.84-1.14l1.51-0.46L293.62,429.33z M288.82,471.57l0.27-2.24c-0.45,0.08-0.91,0.16-1.36,0.24l-7.86,1.47
	l-7.84,1.57c-2.61,0.52-5.21,1.1-7.82,1.65c-2.6,0.56-5.21,1.1-7.81,1.71l-7.79,1.78c-2.44,0.54-4.87,1.14-7.3,1.73l-7.26-1.67
	c-2.58-0.61-5.18-1.14-7.77-1.72l-7.78-1.7l-7.8-1.61c-2.6-0.55-5.2-1.07-7.81-1.57c-2.61-0.5-5.21-1.04-7.82-1.5
	c-0.39-0.07-0.78-0.14-1.18-0.21l0.24,1.95c0.16,0.05,0.33,0.1,0.49,0.14c2.55,0.75,5.11,1.44,7.67,2.16
	c2.55,0.72,5.12,1.42,7.68,2.09l7.69,2.05l7.71,1.96c2.57,0.65,5.14,1.33,7.72,1.94l7.73,1.87l0.47,0.11l0.5-0.11
	c2.6-0.6,5.2-1.17,7.78-1.81l7.77-1.88c2.59-0.61,5.17-1.29,7.75-1.95c2.58-0.67,5.16-1.31,7.74-2.01l7.71-2.09l7.69-2.19
	C288.43,471.68,288.62,471.62,288.82,471.57z M294.02,409.66l-2.36,0.4c-1.31,0.23-2.63,0.44-3.94,0.69l-7.86,1.47l-7.84,1.57
	c-2.61,0.52-5.21,1.1-7.82,1.65c-2.6,0.56-5.21,1.1-7.81,1.71l-7.79,1.78c-2.44,0.54-4.87,1.14-7.3,1.73l-7.26-1.67
	c-2.58-0.61-5.18-1.14-7.77-1.72l-7.78-1.7l-7.8-1.61c-2.6-0.55-5.2-1.07-7.81-1.57c-2.61-0.5-5.21-1.04-7.82-1.5
	c-2.04-0.38-4.08-0.74-6.13-1.11l0.03,1.33c1.88,0.56,3.77,1.11,5.65,1.66c2.55,0.75,5.11,1.44,7.67,2.16
	c2.55,0.72,5.12,1.42,7.68,2.09l7.69,2.05l7.71,1.96c2.57,0.65,5.14,1.33,7.72,1.94l7.73,1.87l0.47,0.11l0.5-0.11
	c2.6-0.6,5.2-1.17,7.78-1.81l7.77-1.88c2.59-0.61,5.17-1.29,7.75-1.95c2.58-0.67,5.16-1.31,7.74-2.01l7.71-2.09l7.69-2.19
	c1.28-0.36,2.56-0.76,3.84-1.14l1.92-0.58L294.02,409.66z M280.48,539.55l-0.62,0.12l-7.84,1.57c-2.61,0.52-5.21,1.1-7.82,1.65
	c-2.6,0.56-5.21,1.1-7.81,1.71l-7.79,1.78c-2.44,0.54-4.87,1.14-7.3,1.73l-7.26-1.67c-2.58-0.61-5.18-1.14-7.77-1.72l-7.78-1.7
	l-7.8-1.61c-2.6-0.55-5.2-1.07-7.81-1.57c-0.13-0.02-0.26-0.05-0.39-0.08l0.34,2.76c2.37,0.67,4.75,1.32,7.13,1.94l7.69,2.05
	l7.71,1.96c2.57,0.65,5.14,1.33,7.72,1.94l7.73,1.87l0.47,0.11l0.5-0.11c2.6-0.6,5.2-1.17,7.78-1.81l7.77-1.88
	c2.59-0.61,5.17-1.29,7.75-1.95c2.58-0.67,5.16-1.31,7.74-2.01l7.27-1.97L280.48,539.55z M281.35,532.52l0.37-3l-1.85,0.35
	l-7.84,1.57c-2.61,0.52-5.21,1.1-7.82,1.65c-2.6,0.56-5.21,1.1-7.81,1.71l-7.79,1.78c-2.44,0.54-4.87,1.14-7.3,1.73l-7.26-1.67
	c-2.58-0.61-5.18-1.14-7.77-1.72l-7.78-1.7l-7.8-1.61c-2.6-0.55-5.2-1.07-7.81-1.57c-0.54-0.1-1.08-0.21-1.62-0.32l0.33,2.66
	c0.23,0.06,0.46,0.13,0.69,0.19c2.55,0.72,5.12,1.42,7.68,2.09l7.69,2.05l7.71,1.96c2.57,0.65,5.14,1.33,7.72,1.94l7.73,1.87
	l0.47,0.11l0.5-0.11c2.6-0.6,5.2-1.17,7.78-1.81l7.77-1.88c2.59-0.61,5.17-1.29,7.75-1.95c2.58-0.67,5.16-1.31,7.74-2.01l7.71-2.09
	L281.35,532.52z M282.94,519.48l-3.08,0.58l-7.84,1.57c-2.61,0.52-5.21,1.1-7.82,1.65c-2.6,0.56-5.21,1.1-7.81,1.71l-7.79,1.78
	c-2.44,0.54-4.87,1.14-7.3,1.73l-7.26-1.67c-2.58-0.61-5.18-1.14-7.77-1.72l-7.78-1.7l-7.8-1.61c-2.6-0.55-5.2-1.07-7.81-1.57
	c-0.95-0.18-1.9-0.37-2.85-0.56l0.31,2.56c0.64,0.18,1.29,0.36,1.93,0.54c2.55,0.72,5.12,1.42,7.68,2.09l7.69,2.05l7.71,1.96
	c2.57,0.65,5.14,1.33,7.72,1.94l7.73,1.87l0.47,0.11l0.5-0.11c2.6-0.6,5.2-1.17,7.78-1.81l7.77-1.88c2.59-0.61,5.17-1.29,7.75-1.95
	c2.58-0.67,5.16-1.31,7.74-2.01l7.71-2.09l2.04-0.58L282.94,519.48z M257.35,558.41c2.59-0.61,5.17-1.29,7.75-1.95
	c2.58-0.67,5.16-1.31,7.74-2.01l6.03-1.64l0.39-3.22l-7.23,1.44c-2.61,0.52-5.21,1.1-7.82,1.65c-2.6,0.56-5.21,1.1-7.81,1.71
	l-7.79,1.78c-2.44,0.54-4.87,1.14-7.3,1.73l-7.26-1.67c-2.58-0.61-5.18-1.14-7.77-1.72l-7.78-1.7l-7.8-1.61
	c-2.32-0.49-4.64-0.95-6.96-1.4l0.35,2.86c1.96,0.54,3.92,1.09,5.88,1.6l7.69,2.05l7.71,1.96c2.57,0.65,5.14,1.33,7.72,1.94
	l7.73,1.87l0.47,0.11l0.5-0.11c2.6-0.6,5.2-1.17,7.78-1.81L257.35,558.41z M287.86,479.35c-0.04,0.01-0.09,0.02-0.13,0.02
	l-7.86,1.47l-7.84,1.57c-2.61,0.52-5.21,1.1-7.82,1.65c-2.6,0.56-5.21,1.1-7.81,1.71l-7.79,1.78c-2.44,0.54-4.87,1.14-7.3,1.73
	l-7.26-1.67c-2.58-0.61-5.18-1.14-7.77-1.72l-7.78-1.7l-7.8-1.61c-2.6-0.55-5.2-1.07-7.81-1.57c-2.59-0.5-5.17-1.03-7.77-1.49
	l0.26,2.09c2.3,0.67,4.61,1.29,6.91,1.94c2.55,0.72,5.12,1.42,7.68,2.09l7.69,2.05l7.71,1.96c2.57,0.65,5.14,1.33,7.72,1.94
	l7.73,1.87l0.47,0.11l0.5-0.11c2.6-0.6,5.2-1.17,7.78-1.81l7.77-1.88c2.59-0.61,5.17-1.29,7.75-1.95c2.58-0.67,5.16-1.31,7.74-2.01
	l7.71-2.09l7.02-2L287.86,479.35z M286.63,489.38l-6.77,1.27l-7.84,1.57c-2.61,0.52-5.21,1.1-7.82,1.65
	c-2.6,0.56-5.21,1.1-7.81,1.71l-7.79,1.78c-2.44,0.54-4.87,1.14-7.3,1.73l-7.26-1.67c-2.58-0.61-5.18-1.14-7.77-1.72l-7.78-1.7
	l-7.8-1.61c-2.6-0.55-5.2-1.07-7.81-1.57c-2.18-0.42-4.36-0.85-6.54-1.26l0.27,2.21c1.89,0.53,3.78,1.05,5.66,1.59
	c2.55,0.72,5.12,1.42,7.68,2.09l7.69,2.05l7.71,1.96c2.57,0.65,5.14,1.33,7.72,1.94l7.73,1.87l0.47,0.11l0.5-0.11
	c2.6-0.6,5.2-1.17,7.78-1.81l7.77-1.88c2.59-0.61,5.17-1.29,7.75-1.95c2.58-0.67,5.16-1.31,7.74-2.01l7.71-2.09l5.78-1.64
	L286.63,489.38z M285.4,499.41l-5.54,1.04l-7.84,1.57c-2.61,0.52-5.21,1.1-7.82,1.65c-2.6,0.56-5.21,1.1-7.81,1.71l-7.79,1.78
	c-2.44,0.54-4.87,1.14-7.3,1.73l-7.26-1.67c-2.58-0.61-5.18-1.14-7.77-1.72l-7.78-1.7l-7.8-1.61c-2.6-0.55-5.2-1.07-7.81-1.57
	c-1.77-0.34-3.54-0.69-5.31-1.03l0.29,2.33c1.47,0.41,2.95,0.82,4.42,1.23c2.55,0.72,5.12,1.42,7.68,2.09l7.69,2.05l7.71,1.96
	c2.57,0.65,5.14,1.33,7.72,1.94l7.73,1.87l0.47,0.11l0.5-0.11c2.6-0.6,5.2-1.17,7.78-1.81l7.77-1.88c2.59-0.61,5.17-1.29,7.75-1.95
	c2.58-0.67,5.16-1.31,7.74-2.01l7.71-2.09l4.53-1.29L285.4,499.41z M284.17,509.45l-4.31,0.81l-7.84,1.57
	c-2.61,0.52-5.21,1.1-7.82,1.65c-2.6,0.56-5.21,1.1-7.81,1.71l-7.79,1.78c-2.44,0.54-4.87,1.14-7.3,1.73l-7.26-1.67
	c-2.58-0.61-5.18-1.14-7.77-1.72l-7.78-1.7l-7.8-1.61c-2.6-0.55-5.2-1.07-7.81-1.57c-1.36-0.26-2.72-0.53-4.08-0.8l0.3,2.45
	c1.06,0.29,2.12,0.58,3.18,0.88c2.55,0.72,5.12,1.42,7.68,2.09l7.69,2.05l7.71,1.96c2.57,0.65,5.14,1.33,7.72,1.94l7.73,1.87
	l0.47,0.11l0.5-0.11c2.6-0.6,5.2-1.17,7.78-1.81l7.77-1.88c2.59-0.61,5.17-1.29,7.75-1.95c2.58-0.67,5.16-1.31,7.74-2.01l7.71-2.09
	l3.29-0.94L284.17,509.45z M295.03,360.47l-3.36,0.58c-1.31,0.23-2.63,0.44-3.94,0.69l-7.86,1.47l-7.84,1.57
	c-2.61,0.52-5.21,1.1-7.82,1.65c-2.6,0.56-5.21,1.1-7.81,1.71l-7.79,1.78c-2.44,0.54-4.87,1.14-7.3,1.73l-7.26-1.67
	c-2.58-0.61-5.18-1.14-7.77-1.72l-7.78-1.7l-7.8-1.61c-2.6-0.55-5.2-1.07-7.81-1.57c-2.61-0.5-5.21-1.04-7.82-1.5
	c-2.38-0.44-4.75-0.87-7.13-1.29l0.02,1.22c2.22,0.66,4.44,1.31,6.66,1.95c2.55,0.75,5.11,1.44,7.67,2.16
	c2.55,0.72,5.12,1.42,7.68,2.09l7.69,2.05l7.71,1.96c2.57,0.65,5.14,1.33,7.72,1.94l7.73,1.87l0.47,0.11l0.5-0.11
	c2.6-0.6,5.2-1.17,7.78-1.81l7.77-1.88c2.59-0.61,5.17-1.29,7.75-1.95c2.58-0.67,5.16-1.31,7.74-2.01l7.71-2.09l7.69-2.19
	c1.28-0.36,2.56-0.76,3.84-1.14l2.92-0.88L295.03,360.47z M297.04,262.12c-0.48,0.08-0.95,0.15-1.43,0.23l-3.95,0.68
	c-1.31,0.23-2.63,0.44-3.94,0.69l-7.86,1.47l-7.84,1.57c-2.61,0.52-5.21,1.1-7.82,1.65c-2.6,0.56-5.21,1.1-7.81,1.71l-7.79,1.78
	c-2.44,0.54-4.87,1.14-7.3,1.73l-7.26-1.67c-2.58-0.61-5.18-1.14-7.77-1.72l-7.78-1.7l-7.8-1.61c-2.6-0.55-5.2-1.07-7.81-1.57
	c-2.61-0.5-5.21-1.04-7.82-1.5c-3.04-0.56-6.09-1.11-9.15-1.63l0.02,0.95c2.89,0.87,5.78,1.73,8.68,2.56
	c2.55,0.75,5.11,1.44,7.67,2.16c2.55,0.72,5.12,1.42,7.68,2.09l7.69,2.05l7.71,1.96c2.57,0.65,5.14,1.33,7.72,1.94l7.73,1.87
	l0.47,0.11l0.5-0.11c2.6-0.6,5.2-1.17,7.78-1.81l7.77-1.88c2.59-0.61,5.17-1.29,7.75-1.95c2.58-0.67,5.16-1.31,7.74-2.01l7.71-2.09
	l7.69-2.19c1.28-0.36,2.56-0.76,3.84-1.14l3.83-1.16c0.37-0.12,0.74-0.23,1.11-0.35L297.04,262.12z M296.64,281.79
	c-0.34,0.05-0.68,0.11-1.02,0.16l-3.95,0.68c-1.31,0.23-2.63,0.44-3.94,0.69l-7.86,1.47l-7.84,1.57c-2.61,0.52-5.21,1.1-7.82,1.65
	c-2.6,0.56-5.21,1.1-7.81,1.71l-7.79,1.78c-2.44,0.54-4.87,1.14-7.3,1.73l-7.26-1.67c-2.58-0.61-5.18-1.14-7.77-1.72l-7.78-1.7
	l-7.8-1.61c-2.6-0.55-5.2-1.07-7.81-1.57c-2.61-0.5-5.21-1.04-7.82-1.5c-2.91-0.54-5.82-1.06-8.74-1.57l0.02,1.01
	c2.75,0.83,5.51,1.64,8.27,2.44c2.55,0.75,5.11,1.44,7.67,2.16c2.55,0.72,5.12,1.42,7.68,2.09l7.69,2.05l7.71,1.96
	c2.57,0.65,5.14,1.33,7.72,1.94l7.73,1.87l0.47,0.11l0.5-0.11c2.6-0.6,5.2-1.17,7.78-1.81l7.77-1.88c2.59-0.61,5.17-1.29,7.75-1.95
	c2.58-0.67,5.16-1.31,7.74-2.01l7.71-2.09l7.69-2.19c1.28-0.36,2.56-0.76,3.84-1.14l3.83-1.16c0.24-0.07,0.47-0.15,0.71-0.22
	L296.64,281.79z M296.84,271.95c-0.41,0.07-0.82,0.13-1.23,0.19l-3.95,0.68c-1.31,0.23-2.63,0.44-3.94,0.69l-7.86,1.47l-7.84,1.57
	c-2.61,0.52-5.21,1.1-7.82,1.65c-2.6,0.56-5.21,1.1-7.81,1.71l-7.79,1.78c-2.44,0.54-4.87,1.14-7.3,1.73l-7.26-1.67
	c-2.58-0.61-5.18-1.14-7.77-1.72l-7.78-1.7l-7.8-1.61c-2.6-0.55-5.2-1.07-7.81-1.57c-2.61-0.5-5.21-1.04-7.82-1.5
	c-2.98-0.55-5.96-1.09-8.94-1.6l0.02,0.98c2.82,0.85,5.65,1.68,8.48,2.5c2.55,0.75,5.11,1.44,7.67,2.16
	c2.55,0.72,5.12,1.42,7.68,2.09l7.69,2.05l7.71,1.96c2.57,0.65,5.14,1.33,7.72,1.94l7.73,1.87l0.47,0.11l0.5-0.11
	c2.6-0.6,5.2-1.17,7.78-1.81l7.77-1.88c2.59-0.61,5.17-1.29,7.75-1.95c2.58-0.67,5.16-1.31,7.74-2.01l7.71-2.09l7.69-2.19
	c1.28-0.36,2.56-0.76,3.84-1.14l3.83-1.16c0.3-0.09,0.6-0.19,0.91-0.29L296.84,271.95z M296.44,291.62
	c-0.27,0.04-0.55,0.09-0.82,0.13l-3.95,0.68c-1.31,0.23-2.63,0.44-3.94,0.69l-7.86,1.47l-7.84,1.57c-2.61,0.52-5.21,1.1-7.82,1.65
	c-2.6,0.56-5.21,1.1-7.81,1.71l-7.79,1.78c-2.44,0.54-4.87,1.14-7.3,1.73l-7.26-1.67c-2.58-0.61-5.18-1.14-7.77-1.72l-7.78-1.7
	l-7.8-1.61c-2.6-0.55-5.2-1.07-7.81-1.57c-2.61-0.5-5.21-1.04-7.82-1.5c-2.84-0.53-5.69-1.04-8.54-1.53l0.02,1.04
	c2.69,0.81,5.38,1.6,8.07,2.37c2.55,0.75,5.11,1.44,7.67,2.16c2.55,0.72,5.12,1.42,7.68,2.09l7.69,2.05l7.71,1.96
	c2.57,0.65,5.14,1.33,7.72,1.94l7.73,1.87l0.47,0.11l0.5-0.11c2.6-0.6,5.2-1.17,7.78-1.81l7.77-1.88c2.59-0.61,5.17-1.29,7.75-1.95
	c2.58-0.67,5.16-1.31,7.74-2.01l7.71-2.09l7.69-2.19c1.28-0.36,2.56-0.76,3.84-1.14l3.83-1.16c0.17-0.05,0.34-0.11,0.5-0.16
	L296.44,291.62z M234.05,566.03c-2.58-0.61-5.18-1.14-7.77-1.72l-7.78-1.7l-7.8-1.61c-1.91-0.4-3.82-0.78-5.73-1.15l0.36,2.95
	c1.55,0.42,3.09,0.86,4.64,1.26l5.51,1.47c8.4,0.43,15.28,0.66,19.79,0.77L234.05,566.03z M296.24,301.46
	c-0.21,0.03-0.41,0.07-0.62,0.1l-3.95,0.68c-1.31,0.23-2.63,0.44-3.94,0.69l-7.86,1.47l-7.84,1.57c-2.61,0.52-5.21,1.1-7.82,1.65
	c-2.6,0.56-5.21,1.1-7.81,1.71l-7.79,1.78c-2.44,0.54-4.87,1.14-7.3,1.73l-7.26-1.67c-2.58-0.61-5.18-1.14-7.77-1.72l-7.78-1.7
	l-7.8-1.61c-2.6-0.55-5.2-1.07-7.81-1.57c-2.61-0.5-5.21-1.04-7.82-1.5c-2.78-0.51-5.56-1.02-8.34-1.5l0.02,1.07
	c2.62,0.79,5.24,1.55,7.87,2.31c2.55,0.75,5.11,1.44,7.67,2.16c2.55,0.72,5.12,1.42,7.68,2.09l7.69,2.05l7.71,1.96
	c2.57,0.65,5.14,1.33,7.72,1.94l7.73,1.87l0.47,0.11l0.5-0.11c2.6-0.6,5.2-1.17,7.78-1.81l7.77-1.88c2.59-0.61,5.17-1.29,7.75-1.95
	c2.58-0.67,5.16-1.31,7.74-2.01l7.71-2.09l7.69-2.19c1.28-0.36,2.56-0.76,3.84-1.14l3.83-1.16c0.1-0.03,0.2-0.06,0.3-0.09
	L296.24,301.46z M194.63,255.93c2.55,0.75,5.11,1.44,7.67,2.16c2.55,0.72,5.12,1.42,7.68,2.09l7.69,2.05l7.71,1.96
	c2.57,0.65,5.14,1.33,7.72,1.94l7.73,1.87l0.47,0.11l0.5-0.11c2.6-0.6,5.2-1.17,7.78-1.81l7.77-1.88c2.59-0.61,5.17-1.29,7.75-1.95
	c2.58-0.67,5.16-1.31,7.74-2.01l7.71-2.09l7.69-2.19c1.28-0.36,2.56-0.76,3.84-1.14l3.83-1.16c0.44-0.14,0.87-0.28,1.31-0.41
	l0.02-1.09c-0.54,0.09-1.09,0.17-1.63,0.26l-3.95,0.68c-1.31,0.23-2.63,0.44-3.94,0.69l-7.86,1.47l-7.84,1.57
	c-2.61,0.52-5.21,1.1-7.82,1.65c-2.6,0.56-5.21,1.1-7.81,1.71l-7.79,1.78c-2.44,0.54-4.87,1.14-7.3,1.73l-7.26-1.67
	c-2.58-0.61-5.18-1.14-7.77-1.72l-7.78-1.7l-7.8-1.61c-2.6-0.55-5.2-1.07-7.81-1.57c-2.61-0.5-5.21-1.04-7.82-1.5
	c-3.11-0.58-6.23-1.13-9.35-1.67l0.02,0.92C188.71,254.2,191.67,255.08,194.63,255.93z M277.62,562.95l0.41-3.31l-6,1.2
	c-2.61,0.52-5.21,1.1-7.82,1.65c-2.6,0.56-5.21,1.1-7.81,1.71l-7.79,1.78c-0.4,0.09-0.81,0.19-1.21,0.28
	c7.45-0.24,14.52-0.54,21.22-0.9c1.41-0.36,2.81-0.72,4.21-1.11L277.62,562.95z M294.63,380.15l-2.96,0.51
	c-1.31,0.23-2.63,0.44-3.94,0.69l-7.86,1.47l-7.84,1.57c-2.61,0.52-5.21,1.1-7.82,1.65c-2.6,0.56-5.21,1.1-7.81,1.71l-7.79,1.78
	c-2.44,0.54-4.87,1.14-7.3,1.73l-7.26-1.67c-2.58-0.61-5.18-1.14-7.77-1.72l-7.78-1.7l-7.8-1.61c-2.6-0.55-5.2-1.07-7.81-1.57
	c-2.61-0.5-5.21-1.04-7.82-1.5c-2.24-0.42-4.49-0.82-6.73-1.22l0.03,1.26c2.08,0.62,4.17,1.23,6.26,1.84
	c2.55,0.75,5.11,1.44,7.67,2.16c2.55,0.72,5.12,1.42,7.68,2.09l7.69,2.05l7.71,1.96c2.57,0.65,5.14,1.33,7.72,1.94l7.73,1.87
	l0.47,0.11l0.5-0.11c2.6-0.6,5.2-1.17,7.78-1.81l7.77-1.88c2.59-0.61,5.17-1.29,7.75-1.95c2.58-0.67,5.16-1.31,7.74-2.01l7.71-2.09
	l7.69-2.19c1.28-0.36,2.56-0.76,3.84-1.14l2.52-0.76L294.63,380.15z M295.23,350.63l-3.56,0.61c-1.31,0.23-2.63,0.44-3.94,0.69
	l-7.86,1.47l-7.84,1.57c-2.61,0.52-5.21,1.1-7.82,1.65c-2.6,0.56-5.21,1.1-7.81,1.71l-7.79,1.78c-2.44,0.54-4.87,1.14-7.3,1.73
	l-7.26-1.67c-2.58-0.61-5.18-1.14-7.77-1.72l-7.78-1.7l-7.8-1.61c-2.6-0.55-5.2-1.07-7.81-1.57c-2.61-0.5-5.21-1.04-7.82-1.5
	c-2.44-0.45-4.89-0.9-7.33-1.33l0.02,1.2c2.29,0.68,4.57,1.35,6.86,2.01c2.55,0.75,5.11,1.44,7.67,2.16
	c2.55,0.72,5.12,1.42,7.68,2.09l7.69,2.05l7.71,1.96c2.57,0.65,5.14,1.33,7.72,1.94l7.73,1.87l0.47,0.11l0.5-0.11
	c2.6-0.6,5.2-1.17,7.78-1.81l7.77-1.88c2.59-0.61,5.17-1.29,7.75-1.95c2.58-0.67,5.16-1.31,7.74-2.01l7.71-2.09l7.69-2.19
	c1.28-0.36,2.56-0.76,3.84-1.14l3.13-0.94L295.23,350.63z M294.83,370.31l-3.16,0.54c-1.31,0.23-2.63,0.44-3.94,0.69l-7.86,1.47
	l-7.84,1.57c-2.61,0.52-5.21,1.1-7.82,1.65c-2.6,0.56-5.21,1.1-7.81,1.71l-7.79,1.78c-2.44,0.54-4.87,1.14-7.3,1.73l-7.26-1.67
	c-2.58-0.61-5.18-1.14-7.77-1.72l-7.78-1.7l-7.8-1.61c-2.6-0.55-5.2-1.07-7.81-1.57c-2.61-0.5-5.21-1.04-7.82-1.5
	c-2.31-0.43-4.62-0.85-6.93-1.25l0.03,1.24c2.15,0.64,4.3,1.27,6.46,1.89c2.55,0.75,5.11,1.44,7.67,2.16
	c2.55,0.72,5.12,1.42,7.68,2.09l7.69,2.05l7.71,1.96c2.57,0.65,5.14,1.33,7.72,1.94l7.73,1.87l0.47,0.11l0.5-0.11
	c2.6-0.6,5.2-1.17,7.78-1.81l7.77-1.88c2.59-0.61,5.17-1.29,7.75-1.95c2.58-0.67,5.16-1.31,7.74-2.01l7.71-2.09l7.69-2.19
	c1.28-0.36,2.56-0.76,3.84-1.14l2.72-0.82L294.83,370.31z M294.43,389.98l-2.76,0.47c-1.31,0.23-2.63,0.44-3.94,0.69l-7.86,1.47
	l-7.84,1.57c-2.61,0.52-5.21,1.1-7.82,1.65c-2.6,0.56-5.21,1.1-7.81,1.71l-7.79,1.78c-2.44,0.54-4.87,1.14-7.3,1.73l-7.26-1.67
	c-2.58-0.61-5.18-1.14-7.77-1.72l-7.78-1.7l-7.8-1.61c-2.6-0.55-5.2-1.07-7.81-1.57c-2.61-0.5-5.21-1.04-7.82-1.5
	c-2.17-0.4-4.35-0.8-6.53-1.18l0.03,1.29c2.02,0.6,4.04,1.19,6.06,1.78c2.55,0.75,5.11,1.44,7.67,2.16
	c2.55,0.72,5.12,1.42,7.68,2.09l7.69,2.05l7.71,1.96c2.57,0.65,5.14,1.33,7.72,1.94l7.73,1.87l0.47,0.11l0.5-0.11
	c2.6-0.6,5.2-1.17,7.78-1.81l7.77-1.88c2.59-0.61,5.17-1.29,7.75-1.95c2.58-0.67,5.16-1.31,7.74-2.01l7.71-2.09l7.69-2.19
	c1.28-0.36,2.56-0.76,3.84-1.14l2.32-0.7L294.43,389.98z M295.63,330.96c-0.01,0-0.01,0-0.02,0l-3.95,0.68
	c-1.31,0.23-2.63,0.44-3.94,0.69l-7.86,1.47l-7.84,1.57c-2.61,0.52-5.21,1.1-7.82,1.65c-2.6,0.56-5.21,1.1-7.81,1.71l-7.79,1.78
	c-2.44,0.54-4.87,1.14-7.3,1.73l-7.26-1.67c-2.58-0.61-5.18-1.14-7.77-1.72l-7.78-1.7l-7.8-1.61c-2.6-0.55-5.2-1.07-7.81-1.57
	c-2.61-0.5-5.21-1.04-7.82-1.5c-2.58-0.48-5.15-0.95-7.74-1.4l0.02,1.15c2.42,0.72,4.84,1.43,7.27,2.13
	c2.55,0.75,5.11,1.44,7.67,2.16c2.55,0.72,5.12,1.42,7.68,2.09l7.69,2.05l7.71,1.96c2.57,0.65,5.14,1.33,7.72,1.94l7.73,1.87
	l0.47,0.11l0.5-0.11c2.6-0.6,5.2-1.17,7.78-1.81l7.77-1.88c2.59-0.61,5.17-1.29,7.75-1.95c2.58-0.67,5.16-1.31,7.74-2.01l7.71-2.09
	l7.69-2.19c1.28-0.36,2.56-0.76,3.84-1.14l3.53-1.06L295.63,330.96z M295.83,321.13c-0.07,0.01-0.15,0.02-0.22,0.03l-3.95,0.68
	c-1.31,0.23-2.63,0.44-3.94,0.69l-7.86,1.47l-7.84,1.57c-2.61,0.52-5.21,1.1-7.82,1.65c-2.6,0.56-5.21,1.1-7.81,1.71l-7.79,1.78
	c-2.44,0.54-4.87,1.14-7.3,1.73l-7.26-1.67c-2.58-0.61-5.18-1.14-7.77-1.72l-7.78-1.7l-7.8-1.61c-2.6-0.55-5.2-1.07-7.81-1.57
	c-2.61-0.5-5.21-1.04-7.82-1.5c-2.64-0.49-5.29-0.97-7.94-1.43l0.02,1.13c2.49,0.74,4.98,1.47,7.47,2.19
	c2.55,0.75,5.11,1.44,7.67,2.16c2.55,0.72,5.12,1.42,7.68,2.09l7.69,2.05l7.71,1.96c2.57,0.65,5.14,1.33,7.72,1.94l7.73,1.87
	l0.47,0.11l0.5-0.11c2.6-0.6,5.2-1.17,7.78-1.81l7.77-1.88c2.59-0.61,5.17-1.29,7.75-1.95c2.58-0.67,5.16-1.31,7.74-2.01l7.71-2.09
	l7.69-2.19c1.28-0.36,2.56-0.76,3.84-1.14l3.73-1.12L295.83,321.13z M295.43,340.8l-3.76,0.64c-1.31,0.23-2.63,0.44-3.94,0.69
	l-7.86,1.47l-7.84,1.57c-2.61,0.52-5.21,1.1-7.82,1.65c-2.6,0.56-5.21,1.1-7.81,1.71l-7.79,1.78c-2.44,0.54-4.87,1.14-7.3,1.73
	l-7.26-1.67c-2.58-0.61-5.18-1.14-7.77-1.72l-7.78-1.7l-7.8-1.61c-2.6-0.55-5.2-1.07-7.81-1.57c-2.61-0.5-5.21-1.04-7.82-1.5
	c-2.51-0.47-5.02-0.92-7.54-1.36l0.02,1.17c2.35,0.7,4.71,1.39,7.06,2.07c2.55,0.75,5.11,1.44,7.67,2.16
	c2.55,0.72,5.12,1.42,7.68,2.09l7.69,2.05l7.71,1.96c2.57,0.65,5.14,1.33,7.72,1.94l7.73,1.87l0.47,0.11l0.5-0.11
	c2.6-0.6,5.2-1.17,7.78-1.81l7.77-1.88c2.59-0.61,5.17-1.29,7.75-1.95c2.58-0.67,5.16-1.31,7.74-2.01l7.71-2.09l7.69-2.19
	c1.28-0.36,2.56-0.76,3.84-1.14l3.33-1L295.43,340.8z M296.01,312.57l0.03-1.28c-0.14,0.02-0.28,0.04-0.42,0.07l-3.95,0.68
	c-1.31,0.23-2.63,0.44-3.94,0.69l-7.86,1.47l-7.84,1.57c-2.61,0.52-5.21,1.1-7.82,1.65c-2.6,0.56-5.21,1.1-7.81,1.71l-7.79,1.78
	c-2.44,0.54-4.87,1.14-7.3,1.73l-7.26-1.67c-2.58-0.61-5.18-1.14-7.77-1.72l-7.78-1.7l-7.8-1.61c-2.6-0.55-5.2-1.07-7.81-1.57
	c-2.61-0.5-5.21-1.04-7.82-1.5c-2.71-0.5-5.42-0.99-8.14-1.47l0.02,1.1c2.55,0.77,5.11,1.51,7.67,2.25
	c2.55,0.75,5.11,1.44,7.67,2.16c2.55,0.72,5.12,1.42,7.68,2.09l7.69,2.05l7.71,1.96c2.57,0.65,5.14,1.33,7.72,1.94l7.73,1.87
	l0.47,0.11l0.5-0.11c2.6-0.6,5.2-1.17,7.78-1.81l7.77-1.88c2.59-0.61,5.17-1.29,7.75-1.95c2.58-0.67,5.16-1.31,7.74-2.01l7.71-2.09
	l7.69-2.19c1.28-0.36,2.56-0.76,3.84-1.14l3.83-1.16C295.94,312.59,295.97,312.58,296.01,312.57z"/>
<polygon class="Colour3 fill" points="308.84,455.86 344.41,437.28 342.89,439.63 358.43,288.24 348.8,440.11 348.7,441.64 
	347.27,442.46 312.45,462.41 "/>
<path class="Colour2 fill" d="M291.19,62.32c-8.59,14.14-14.46,18.9-49.54,18.96h-0.2c-35.2,0-37.71-6.06-46.32-20.23L92.09,101.38
	l-6.04,7.05c3.56,17.64,6.6,41.58,7.43,73.38l147.97,67.58l148.15-67.42c0.82-31.78,3.84-55.71,7.4-73.37l-6.18-7.22L291.19,62.32z"
	/>
<path class="Colour2 fill" d="M297.38,245.28l-3.84,187.69l-16.09,131.3c1.93-0.13,3.82-0.27,5.68-0.41l37.72-284.08l64.63-32.59
	c0.61-4.22,1.15-7.91,1.6-10.96l-73.74,35.19L295.1,420.27L304.21,251l84.87-41.84l0.26-7.41L297.38,245.28z"/>
<path class="Colour2 fill" d="M199.83,563.86c1.86,0.14,3.75,0.27,5.68,0.41l-16.09-131.3l-3.84-187.69l-91.89-44.03l-0.12,7.51
	L178.76,251l9.11,169.26l-18.24-148.84l-74.54-36.04c0.47,3.1,1.03,6.93,1.67,11.35l65.36,33.05L199.83,563.86z"/>
<path class="Colour2 fill" d="M381.7,274.93l-18.53,13.32l-9.1,153.23l18.1-9.44c-0.15-2.62-0.3-5.19-0.47-7.72
	C369.12,384.09,375.96,319.34,381.7,274.93z"/>
<path class="Colour2 fill" d="M110.15,431.69l18.75,9.78l-9.1-153.23l-19.39-14.73c5.77,44.45,12.8,110.14,10.19,150.8
	C110.45,426.72,110.3,429.19,110.15,431.69z"/>
<path class="Colour2 fill" d="M318.73,467.63l-5.38,65.89c0,0,34.46-5.82,61.85-13.14c-0.5-26.53-1.33-56.59-2.73-82.93L318.73,467.63z"
	/>
<path class="Colour2 fill" d="M164.25,467.63l-54.39-30.55c-0.22,4.19-0.43,8.47-0.63,12.82c-0.32,13.39-0.79,26.84-1.43,40.24
	c-0.28,10.26-0.51,20.4-0.69,30.07c27.5,7.4,62.52,13.31,62.52,13.31L164.25,467.63z"/>
<path class="Colour3 fill" d="M307.97,541.13l16.56-226.19l-27.71,231.8l-0.72,6.45l7.83-0.66c2.15-0.3,37.97-5.38,71.57-14.19
	c-0.05-3.57-0.11-7.26-0.17-11.03C348.84,534.42,319.84,539.28,307.97,541.13z"/>
<path class="Colour3 fill" d="M186.87,553.19l-0.72-6.45l-27.71-231.8L175,541.13c-11.97-1.87-41.35-6.79-68.02-13.99
	c-0.06,3.77-0.12,7.46-0.17,11.03c33.78,8.91,70.07,14.06,72.24,14.36L186.87,553.19z"/>
<polygon class="Colour3 fill" points="317.26,249.4 316.48,255.7 388.65,221.5 388.86,215.48 "/>
<path class="Colour3 fill" d="M388.45,227.34l0.09-2.67l-72.48,34.34l-0.78,6.3l72.61-34.41c0.25-1.62,0.44-2.84,0.56-3.6
	C388.45,227.31,388.45,227.32,388.45,227.34z"/>
<polygon class="Colour3 fill" points="165.71,249.4 93.48,214.67 93.39,220.54 166.49,255.7 "/>
<path class="Colour3 fill" d="M166.91,259.01l-73.57-35.38l-0.03,2.05l0.01,2.76l0.38-2.08c0,0,0.2,1.28,0.57,3.63l73.42,35.31
	L166.91,259.01z"/>
<polygon class="st2" points="3.47,242.89 82.46,279.29 80.45,286.79 1.5,261.45 "/>
<path class="st3" d="M321.18,62.03"/>
<path class="st3" d="M317.06,58.05"/>
<path class="st3" d="M309,62.32"/>
<path class="Colour1 fill" d="M136.17,609.18c14.53,11.95,35.54,31.32,104.42,31.32c68.89,0,89.89-19.37,104.42-31.32
	c11.78-9.69,22.37-13.7,27.97-15.24c1.94-0.53,2.58-2.93,1.2-4.39c-2.21-2.33-5.18-4.93-9.09-7.4c-7-4.44-10.54-8.63-37.84-11.19
	c-5.98-0.56-13.12-1.04-21.66-1.43c-15.54-0.71-38.27-0.88-64.99-0.88c-26.73,0-49.45,0.18-65,0.88
	c-8.54,0.39-15.68,0.86-21.66,1.43c-27.3,2.55-30.84,6.75-37.84,11.19c-3.92,2.48-6.9,5.09-9.11,7.42
	c-1.38,1.46-0.74,3.87,1.21,4.39C113.74,595.46,124.25,599.37,136.17,609.18"/>
<path class="st4" d="M136.17,609.18c14.53,11.95,35.54,31.32,104.42,31.32c68.89,0,89.89-19.37,104.42-31.32
	c11.46-9.43,21.79-13.48,27.5-15.11c2.15-0.61,2.89-3.27,1.33-4.87c-2.17-2.24-5.04-4.7-8.76-7.06c-7-4.44-10.54-8.63-37.84-11.19
	c-5.98-0.56-13.12-1.04-21.66-1.43c-15.54-0.71-38.27-0.88-64.99-0.88c-26.73,0-49.45,0.18-65,0.88
	c-8.54,0.39-15.68,0.86-21.66,1.43c-27.3,2.55-30.84,6.75-37.84,11.19c-3.73,2.36-6.6,4.83-8.78,7.07c-1.55,1.6-0.82,4.27,1.33,4.87
	C114.31,595.68,124.57,599.64,136.17,609.18z"/>
<line class="st5" x1="185.75" y1="57.37" x2="81.81" y2="95.22"/>
<line class="st6" x1="180.37" y1="56.67" x2="81.81" y2="91.73"/>
<line class="st6" x1="181.36" y1="57.95" x2="81.81" y2="93.76"/>
<line class="st5" x1="297.55" y1="57.37" x2="401.5" y2="95.22"/>
<line class="st6" x1="302.93" y1="56.67" x2="401.5" y2="91.73"/>
<line class="st6" x1="302.93" y1="58.42" x2="401.5" y2="93.47"/>
<path class="st6" d="M312.4,567.73l9.73-185.56c0,0,4.05-25.16,13.87-47.33c16.57-40.34,49.66-120.86,55.16-134.26"/>
<path class="st6" d="M314.15,567.73l9.73-185.56c0,0,4.05-25.16,13.87-47.33c16.57-40.34,49.66-120.86,55.16-134.26"/>
<path class="st6" d="M170.97,567.73l-9.73-185.56c0,0-4.05-25.16-13.87-47.33C130.8,294.5,97.71,213.98,92.21,200.57"/>
<path class="st6" d="M169.22,567.73l-9.73-185.56c0,0-4.05-25.16-13.87-47.33c-16.57-40.34-49.66-120.86-55.16-134.26"/>
<path class="st6" d="M377.15,587.83c-2.2-2.95-5.99-7.09-12.07-10.92c-7.01-4.44-10.54-8.63-37.84-11.19
	c-5.98-0.56-13.12-1.04-21.67-1.43c-15.54-0.71-38.28-0.89-64.99-0.89c-26.73,0-49.45,0.18-65,0.89
	c-8.54,0.38-15.68,0.86-21.66,1.43c-27.3,2.56-30.84,6.75-37.85,11.19c-6.07,3.84-9.87,7.98-12.07,10.92"/>
<path class="st6" d="M377.15,584.34c-2.2-2.95-5.99-7.09-12.07-10.92c-7.01-4.44-10.54-8.63-37.84-11.19
	c-5.98-0.56-13.12-1.04-21.67-1.43c-15.54-0.71-38.28-0.89-64.99-0.89c-26.73,0-49.45,0.18-65,0.89
	c-8.54,0.38-15.68,0.86-21.66,1.43c-27.3,2.56-30.84,6.75-37.85,11.19c-6.07,3.84-9.87,7.98-12.07,10.92"/>
<path class="st7" d="M74.97,65.26c0,0,22.42,31.16,22.24,135.34"/>
<path class="st7" d="M408.27,65.26c0,0-22.42,31.16-22.24,135.34"/>
<path class="st3" d="M277.79,56.76"/>
<path class="st3" d="M269.71,61.05"/>
<path class="st8" d="M180.59,38.05c20.48-22.33,96.57-26.13,120.94-1.7l-6.27-13.38c-21.91-7.01-37.53-11.63-53.15-11.66
	c-15.62-0.03-31.23,4.52-53.15,11.53L180.59,38.05z"/>
<path class="st9" d="M180.59,38.05c20.48-22.33,96.57-26.13,120.94-1.7l-6.27-13.38c-21.91-7.01-37.53-11.63-53.15-11.66
	c-15.62-0.03-31.23,4.52-53.15,11.53L180.59,38.05z"/>
<path class="white" d="M192.54,21.39c10.93-3.81,27.89-8.29,48.97-8.29c21.07,0,38.02,4.48,48.95,8.29c0.37,7.1-0.26,17.42-6.41,26.59
	c-3.21,4.78-5.79,7.47-12.6,12.68c-8.34,6.38-17.75,14.74-20.48,22.2c-6.3,0-12.6,0-18.91,0c-2.9-7.21-7.2-11.02-10.03-13.69
	c-3.75-3.53-4.84-4.11-12.02-10.09c-4.66-3.88-7.08-5.92-9.45-9.51c-2.39-3.61-3.38-6.72-4.73-11.1
	C194.58,34.46,193.15,28.66,192.54,21.39z"/>
<path class="st3" d="M265.68,57.16"/>
<path class="st3" d="M257.83,61.33"/>
<path class="NeckTrim fill" d="M284.76,7.64c-31.34-8-56.6-7.65-89,1.13l4.12,10.16c12.18-4.56,26.9-5.55,41.72-5.55
	c14.02,0,28.11,0.75,40.22,4.47L284.76,7.64z"/>
<path class="st10" d="M284.76,7.64c-31.34-8-56.6-7.65-89,1.13l4.12,10.16c12.18-4.56,26.9-5.55,41.72-5.55
	c14.02,0,28.11,0.75,40.22,4.47L284.76,7.64z"/>
<path class="st12" d="M190.83,10.24l16.03-4.49l2.56,10.97l-19.34,5.27C190.08,21.98,188.82,17.23,190.83,10.24"/>
<path class="NeckTrim fill" d="M190.83,10.24l16.03-4.49l2.56,10.97l-19.34,5.27C190.08,21.98,188.82,17.23,190.83,10.24z"/>
<path class="NeckTrim fill" d="M293.49,10.24l-16.03-4.49l-2.56,10.97l19.34,5.27C294.24,21.98,295.49,17.23,293.49,10.24"/>
<path class="st10" d="M293.49,10.24l-16.03-4.49l-2.56,10.97l19.34,5.27C294.24,21.98,295.49,17.23,293.49,10.24z"/>
<path class="Colour1 fill" d="M176.64,27.67l-10.58,5.17c0,0-3.09,13.97,12.45,28.83l8.91-3.39C187.42,58.28,176.87,48.19,176.64,27.67"/>
<path class="Colour1 fill" d="M308.26,27.67l8.88,5.17c0,0,2.4,13.97-13.15,28.83l-4.82-3.39C299.17,58.28,308.03,48.19,308.26,27.67"/>
<path class="NeckTrim fill" d="M294.34,11.62l14.61,17.24c0,0,1.19,25.32-15.53,36.94c-4.5,3.12-16.64,11.04-21.51,13.99
	c-13.26,8.01-18.59,9.71-18.59,9.71s0.17-10.37,3.85-12.57c0,0,26.09-22.15,28.18-25.13C287.44,48.81,295.56,26.25,294.34,11.62"/>
<path class="st11" d="M294.34,11.62l14.61,17.24c0,0,1.19,25.32-15.53,36.94c-4.5,3.12-16.64,11.04-21.51,13.99
	c-13.26,8.01-18.59,9.71-18.59,9.71s0.17-10.37,3.85-12.57c0,0,26.09-22.15,28.18-25.13C287.44,48.81,295.56,26.25,294.34,11.62z"/>
<path class="NeckTrim fill" d="M188.78,11.62l-14.61,17.24c0,0-1.19,25.32,15.53,36.94c4.5,3.12,16.64,11.04,21.51,13.99
	c13.26,8.01,18.59,9.71,18.59,9.71s-0.17-10.37-3.85-12.57c0,0-26.09-22.15-28.18-25.13C195.68,48.81,187.55,26.25,188.78,11.62"/>
<path class="st11" d="M188.78,11.62l-14.61,17.24c0,0-1.19,25.32,15.53,36.94c4.5,3.12,16.64,11.04,21.51,13.99
	c13.26,8.01,18.59,9.71,18.59,9.71s-0.17-10.37-3.85-12.57c0,0-26.09-22.15-28.18-25.13C195.68,48.81,187.55,26.25,188.78,11.62z"/>
<path class="Insert fill" d="M229.8,81.83h23l-3.58,8.64c0,0-5.87,2.08-14.73,0L229.8,81.83z"/>
<path class="st14" d="M230.38,81.28h23l-3.58,8.64c0,0-5.87,2.08-14.73,0L230.38,81.28z"/>
<path class="st6" d="M165.45,33.14c1.07,17.69,13.06,30.02,13.06,30.02c21.35,21.07,46.51,31.22,46.51,31.22s8.73,1.78,14.04,1.78
	h4.16c5.31,0,14.04-1.78,14.04-1.78s25.16-10.15,46.51-31.22c0,0,11.99-12.33,13.06-30.02"/>
<path class="st6" d="M169.76,30.94c-1.49,11.32,10.13,28.68,10.13,28.68c21.35,21.07,46.62,31.49,46.62,31.49s8.24,2.28,13.55,2.28
	h2.16c5.31,0,13.55-2.28,13.55-2.28s25.27-10.42,46.62-31.49c0,0,11.63-17.36,10.13-28.68"/>
<path class="st15" d="M253.31,89.49c0.02-0.06,1.78-3.95,3.8-9.14c1.21-3.09,8.38-8.94,15.32-14.6c3.55-2.89,7.22-5.88,10.62-8.91
	c16.24-14.4,14.61-36.71,12.75-44.03c-0.8-3.15-7.02-5.72-18.5-7.64l-0.67,2.98c6.69,1.12,13.39,3.1,14.69,4.32
	c0.52,3.84-1.92,32.37-11.45,40.81c-3.34,2.96-6.96,5.92-10.48,8.78c-9.35,7.63-15.16,12.5-16.75,16.56
	c-2.11,5.41-3.87,11.7-3.95,11.97L253.31,89.49z"/>
<path class="NeckTrim fill" d="M253.31,89.49c0.02-0.06,1.78-3.95,3.8-9.14c1.21-3.09,8.38-8.94,15.32-14.6
	c3.55-2.89,7.22-5.88,10.62-8.91c16.24-14.4,14.61-36.71,12.75-44.03c-0.8-3.15-7.02-5.72-18.5-7.64l-0.67,2.98
	c6.69,1.12,13.39,3.1,14.69,4.32c0.52,3.84-1.92,32.37-11.45,40.81c-3.34,2.96-6.96,5.92-10.48,8.78
	c-9.35,7.63-15.16,12.5-16.75,16.56c-2.11,5.41-3.87,11.7-3.95,11.97L253.31,89.49z"/>
<path class="NeckTrim fill" d="M230.46,89.49c-0.02-0.06-1.78-3.95-3.8-9.14c-1.21-3.09-8.38-8.94-15.32-14.6
	c-3.55-2.89-7.22-5.88-10.63-8.91c-7.52-6.66-12.65-44.44-12.75-44.03c0.8-3.15,7.02-5.72,18.5-7.64l0.67,2.98
	c-6.69,1.12-13.39,3.1-14.69,4.32c-0.52,3.84,1.92,32.37,11.45,40.81c3.34,2.96,6.96,5.92,10.48,8.78
	c9.35,7.63,15.17,12.5,16.75,16.56c2.11,5.41,3.87,11.7,3.95,11.97L230.46,89.49z"/>
<path class="st16" d="M230.46,89.49c-0.02-0.06-1.78-3.95-3.8-9.14c-1.21-3.09-8.38-8.94-15.32-14.6
	c-3.55-2.89-7.22-5.88-10.63-8.91c-7.52-6.66-12.65-44.44-12.75-44.03c0.8-3.15,7.02-5.72,18.5-7.64l0.67,2.98
	c-6.69,1.12-13.39,3.1-14.69,4.32c-0.52,3.84,1.92,32.37,11.45,40.81c3.34,2.96,6.96,5.92,10.48,8.78
	c9.35,7.63,15.17,12.5,16.75,16.56c2.11,5.41,3.87,11.7,3.95,11.97L230.46,89.49z"/>
<path class="st17" d="M411.62,65.26c0,0-22.42,31.16-22.24,135.34l-0.94,26.74"/>
<path class="st17" d="M71.46,65.26c0,0,22.42,31.16,22.24,135.34l-0.39,25.08"/>
<path class="st18" d="M388.6,226.37L388.6,226.37c0,0-0.04,0.23-0.1,0.65C388.56,226.61,388.6,226.37,388.6,226.37z"/>
<g id="FBodyLogos"></g>
<polygon class="ArmTrim fill" points="479.27,244.64 400.28,279.28 402.3,286.79 481.24,263.2 "/>
<polygon class="ArmTrim fill" points="3.47,242.89 82.46,279.29 80.45,286.79 1.5,261.45 "/>
<path class="st6" d="M399.27,284.89c0,0,27.41-2.62,43.18-18.32c15.76-15.7,37.47-17.76,37.47-17.76"/>
<path class="st6" d="M399.27,283.14c0,0,27.41-2.62,43.18-18.32c15.76-15.7,37.47-17.76,37.47-17.76"/>
<path class="st6" d="M82.91,285.47c0,0-27.42-2.62-43.18-18.32c-15.76-15.7-37.47-17.76-37.47-17.76"/>
<path class="st6" d="M82.91,283.72c0,0-27.42-2.62-43.18-18.32c-15.76-15.7-37.47-17.76-37.47-17.76"/>
<path class="BottomHem fill" d="M245.75,643.72c-22.9,0-44.65-2.3-47.29-2.59c-24.67-1.1-61.05-29.53-62.59-30.74l-0.4-0.35
	c-4.32-4.14-19.49-11.73-28.03-15.55l-1.52-2.25l0.94-10.18l5.03,2.25c2.42,1.08,23.61,10.66,30.93,17.44
	c9.94,7.78,38.84,27.59,56.28,28.27l0.39,0.03c0.56,0.06,56.21,6.14,83.07-0.76l0.78-0.14c0.23-0.03,24.34-2.86,47.45-21.29
	c2.47-2.45,21.7-21.1,38.17-23.95l5.41-0.94l1.85,10.97l-5.42,0.93c-11.5,1.98-27.35,15.9-32.49,21.09l-0.47,0.42
	c-24.35,19.53-49.29,23.31-52.95,23.77C274.14,642.86,259.73,643.72,245.75,643.72 M375.08,579.69l-10.34-9.28
	c-10.34-9.28-53.76-10.82-53.76-10.82H170.19c0,0-43.43,1.55-53.76,10.82l-10.34,9.28l-1.38,13.38c0,0,16.37-15.96,22.57-16.99
	c3.08-0.51,14.06-3.72,24.34-4.75c10.43-1.04,20.12-1.95,20.12-1.95h137.68c0,0,9.7,0.91,20.12,1.95
	c10.28,1.03,21.26,4.23,24.33,4.75c6.21,1.03,22.58,16.99,22.58,16.99L375.08,579.69z"/>
<path class="Colour3 fill" d="M409.75,203.36l21.01,54.02c0,0,24.11-9.06,46.9-21.88c-0.46-2.61-0.95-5.41-1.46-8.34
	c-20.22,11.73-42.53,20.3-42.53,20.3L409.75,203.36z"/>
<path class="Colour3 fill" d="M53.81,281.14c8.3,4.01,16.75,6.13,22.24,7.18l13.9-41.52l2.84-15.47c-1.12-9.28,1.7-37.75,0.63-51.41
	L53.81,281.14z"/>
<path class="Colour3 fill" d="M73.31,203.36l-23.93,44.1c0,0-22.81-8.76-43.21-20.69c-0.51,2.92-1,5.73-1.46,8.35
	c22.99,13.03,47.58,22.26,47.58,22.26L73.31,203.36z"/>
<path class="Colour3 fill" d="M389.68,179.31c-1.26,14.65,1.37,44.86,0.29,54.51l1.47,8l15.52,46.36c5.64-1.12,14.02-3.31,22.17-7.35
	L389.68,179.31z"/>
<g>
	<path class="st18" d="M388.6,226.37L388.6,226.37c0,0-0.04,0.23-0.1,0.65C388.56,226.61,388.6,226.37,388.6,226.37z"/>
</g>
</svg>
