<?xml version="1.0" encoding="utf-8"?>
<!-- Generator: Adobe Illustrator 19.1.0, SVG Export Plug-In . SVG Version: 6.00 Build 0)  -->
<svg version="1.1" id="Layer_1" xmlns="http://www.w3.org/2000/svg" xmlns:xlink="http://www.w3.org/1999/xlink" x="0px" y="0px"
	 viewBox="0 0 483.01 645.44" style="enable-background:new 0 0 483.01 645.44;" xml:space="preserve">
<style type="text/css">
	<![CDATA[
	@font-face{font-family:'codaheavy';src:url('/fonts/coda-heavy-webfont.woff') format('woff')}
	text{font-family:Impact,codaheavy,sans-serif}
	.Number.fill{fill:#000}
	.NumberOutline.stroke{fill:none;stroke:#777;stroke-width:2.5}
	.Colour1.fill{fill:#10122C;}
	.Colour2.fill{fill:#222457;}
	.Colour3.fill{fill:#C6C62E;}
	.ArmTrim.fill{fill:#C6C62E;}
	.NeckTrim.fill{fill:#C6C62E;}
	.BottomHem.fill{fill:#222457;stroke:#101010;stroke-width:0.8861;stroke-miterlimit:10;}
	.Gradient1.stopColor{stop-color:#203A6F;}
	.st0{stroke:#221915;stroke-width:0.8861;stroke-miterlimit:10;}
	.st1{fill:none;stroke:#10122C;stroke-width:2;stroke-linecap:round;stroke-linejoin:round;}
	.st2{fill:none;stroke:#0A0505;stroke-width:0.328;stroke-miterlimit:10;}
	.st3{fill:url(#SVGID_1_);}
	.st4{fill:#9C2321;stroke:#221915;stroke-width:0.934;stroke-miterlimit:10;}
	.st5{fill:none;stroke:#221915;stroke-width:0.6559;stroke-miterlimit:10;}
	.st6{fill:none;stroke:#000000;stroke-width:0.4411;}
	.st7{fill:#C0773C;stroke:#000000;stroke-width:2;stroke-miterlimit:10;}
	.st8{fill:none;stroke:#FFFFFF;stroke-width:0.216;stroke-dasharray:2.4,2.4,2.4,2.4;}
	.st9{fill:#101010;stroke:#FFFFFF;stroke-width:0.216;stroke-dasharray:2.4,2.4,2.4,2.4;}
	.st10{fill:none;stroke:#FFFFFF;stroke-width:0.328;}
	.st11{fill:#FFFFFF;}
	.st12{fill:none;stroke:#221915;stroke-width:0.506;stroke-miterlimit:10;}
	.st13{fill:none;stroke:#000000;stroke-width:2;stroke-linecap:round;stroke-linejoin:round;}
	.neckline{fill:none;stroke:#000000;stroke-width:0.6559;}
	]]>
</style>
<path class="Colour1 fill" d="M386.19,197.13c-0.17-95.12,18.6-129.22,21.79-134.32c-4.59-1.79-9.71-3.46-15.44-4.89
	c-33.07-8.23-82.65-28.8-92.19-36l-57.76-6.79h-3.7l-57.76,6.79c-9.54,7.2-59.12,27.77-92.19,36c-5.09,1.27-9.71,2.73-13.9,4.29
	c1.4,2.05,22.35,34.45,22.17,134.91l-3.98,27.41c0,0,21.14,131.65,16.9,197.47c-3.99,61.88-4.22,154.65-4.24,165.55
	c-0.92,1.01,0.82,1.97,0.18,2.82c0,0,12.02,1.62,29.63,16.07c14.54,11.92,35.55,31.25,104.47,31.25
	c68.91,0,89.93-19.33,104.46-31.25c17.62-14.46,32.59-16.24,32.16-16.07c-0.41-0.54-0.89-1.14-1.41-1.75h0.19
	c0,0,0-100.79-4.24-166.61c-4.24-65.83,16.9-197.47,16.9-197.47L386.19,197.13z"/>
<path class="Colour1 fill" d="M467.61,169c-1.06-12.34-9.61-58.62-27.62-86.39c0,0-9.54-11.53-32.03-20.11c0.02,0.2,0.03,0.31,0.03,0.31
	c-3.19,5.1-21.96,39.2-21.79,134.32l2.06,27.41c0,0,0.12,0.98,0.34,2.76c0.28-1.78,0.43-2.76,0.43-2.76l11.56,62.74
	c0,0,27.43-2.62,43.19-18.28c15.76-15.66,37.48-17.72,37.48-17.72S468.67,181.34,467.61,169z"/>
<path class="Colour1 fill" d="M82.45,287.28l10.98-59.55c-0.11-2.05-0.18-3.19-0.18-3.19l3.98-27.41C97.39,99.34,77.55,66.05,75.21,62.45
	c-22.59,8.59-32.16,20.16-32.16,20.16C25.03,110.38,16.48,156.66,15.42,169c-1.06,12.34-13.65,82.28-13.65,82.28
	s21.72,2.06,37.49,17.72C55.02,284.66,82.45,287.28,82.45,287.28z"/>
<path class="st0" d="M387.39,231.3l-1.1-12.37l0.43-21.8c-0.17-95.12,18.6-129.22,21.79-134.32c-4.59-1.79-9.71-3.46-15.44-4.89
	c-33.07-8.23-82.65-28.8-92.19-36l-57.76-6.79h-3.7l-57.76,6.79c-9.54,7.2-59.12,27.77-92.19,36c-5.09,1.27-9.71,2.73-13.9,4.29
	c1.4,2.05,22.35,34.45,22.17,134.91l-2.89,34.48v0c4.28,28.18,19.45,133.7,15.8,190.4c-3.99,61.88-4.22,154.65-4.24,165.55
	c-0.92,1.01,0.82,1.97,0.18,2.82c0,0,12.02,1.62,29.63,16.07c14.54,11.92,35.55,31.25,104.47,31.25
	c68.91,0,89.93-19.33,104.46-31.25c17.62-14.46,32.59-16.24,32.16-16.07c-0.41-0.54-0.89-1.14-1.41-1.75h0.19
	c0,0,0-100.79-4.24-166.61c-3.59-55.78,11.04-158.81,15.59-188.96L387.39,231.3z"/>
<path class="Colour1 fill" d="M385.94,197.13c-0.17-95.12,18.6-129.22,21.79-134.32c-4.59-1.79-9.71-3.46-15.44-4.89
	c-33.07-8.23-82.65-28.8-92.19-36l-57.76-6.79h-3.7l-57.76,6.79c-9.54,7.2-59.12,27.77-92.19,36c-5.09,1.27-9.71,2.73-13.9,4.29
	c1.4,2.05,22.35,34.45,22.17,134.91L93,224.54c0,0,21.14,131.65,16.9,197.47c-3.99,61.88-4.22,154.65-4.24,165.55
	c-0.92,1.01,0.82,1.97,0.18,2.82c0,0,12.02,1.62,29.63,16.07c14.54,11.92,35.55,31.25,104.47,31.25
	c68.91,0,89.93-19.33,104.46-31.25c17.62-14.46,32.59-16.24,32.16-16.07c-0.41-0.54-0.89-1.14-1.41-1.75h0.19
	c0,0,0-100.79-4.24-166.61c-4.24-65.83,16.9-197.47,16.9-197.47L385.94,197.13z"/>
<g>
	<path class="st1" d="M388.77,224.54c0,0,0.12,0.98,0.34,2.76c0.28-1.78,0.43-2.76,0.43-2.76l11.56,62.74
		c0,0,27.43-2.62,43.19-18.28c15.77-15.66,37.48-17.72,37.48-17.72S469.2,181.34,468.14,169c-1.06-12.34-9.61-58.62-27.62-86.39
		c0,0-9.54-11.53-32.03-20.11c0.02,0.2,0.03,0.31,0.03,0.31c-3.19,5.1-21.96,39.2-21.79,134.32L388.77,224.54z"/>
	<path class="st1" d="M75.54,62.53c-22.45,8.58-31.97,20.08-31.97,20.08C25.56,110.38,17.01,156.66,15.95,169
		C14.88,181.34,2.3,251.28,2.3,251.28s21.72,2.06,37.49,17.72c15.76,15.66,43.19,18.28,43.19,18.28l10.98-59.55
		c-0.01-0.26-0.03-0.5-0.04-0.73"/>
	<path class="st1" d="M75.54,62.53c0.07-0.03,0.13-0.05,0.2-0.08c2.35,3.6,22.19,36.89,22.02,134.68l-3.98,27.41
		c0,0,0.05,0.88,0.14,2.46"/>
	<path class="st1" d="M377.08,590.37C377.09,590.37,377.09,590.37,377.08,590.37C377.1,590.37,377.1,590.37,377.08,590.37"/>
	<path class="st1" d="M75.54,62.53c2.57,3.98,22.14,37.49,21.97,134.6l-3.98,27.41c0,0,0.14,0.86,0.39,2.46"/>
	<path class="st1" d="M377.08,590.37c-0.53-0.03-15.1,2.09-32.15,16.08c-14.53,11.92-35.55,31.25-104.46,31.25
		c-68.92,0-89.93-19.33-104.47-31.25c-17.61-14.46-29.63-16.07-29.63-16.07c0.64-0.85-1.1-1.8-0.18-2.82
		c0.02-10.9,0.25-103.67,4.24-165.55c3.9-60.53-13.66-176.72-16.51-195.01"/>
	<path class="st1" d="M75.54,62.53c-0.09-0.14-0.16-0.24-0.21-0.31c4.19-1.57,8.81-3.03,13.9-4.29c33.07-8.23,82.65-28.8,92.19-36
		l57.76-6.79h3.7l57.76,6.79c9.54,7.2,59.12,27.77,92.19,36c5.72,1.42,10.85,3.1,15.44,4.89c-3.19,5.1-21.96,39.2-21.79,134.32
		l2.06,27.41c0,0-21.14,131.65-16.9,197.47c4.24,65.82,4.24,166.61,4.24,166.61h-0.19c0.51,0.61,0.99,1.2,1.4,1.74"/>
</g>
<path class="st2" d="M467.36,169c-1.06-12.34-9.61-58.62-27.62-86.39c0,0-13.61-16.46-46.67-24.69c-33.07-8.23-82.65-28.8-92.19-36
	l-57.76-6.79h-3.7l-57.76,6.79c-9.54,7.2-59.12,27.77-92.19,36C56.4,66.15,42.8,82.61,42.8,82.61
	C24.78,110.38,16.24,156.66,15.17,169c-1.06,12.34-13.65,82.28-13.65,82.28s21.72,2.06,37.49,17.72
	c15.76,15.66,43.19,18.28,43.19,18.28l11.56-62.74c0,0,21.14,131.65,16.9,197.47c-3.99,61.88-4.22,154.65-4.24,165.55
	c-0.92,1.01,0.82,1.97,0.18,2.82c0,0,12.02,1.62,29.63,16.07c14.54,11.92,35.55,31.25,104.47,31.25
	c68.91,0,89.93-19.33,104.46-31.25c17.62-14.46,32.59-16.24,32.16-16.07c-0.41-0.54-0.89-1.14-1.41-1.75h0.19
	c0,0,0-100.79-4.24-166.61c-4.24-65.83,16.9-197.47,16.9-197.47l11.56,62.74c0,0,27.43-2.62,43.19-18.28
	c15.76-15.66,37.48-17.72,37.48-17.72S468.43,181.34,467.36,169z"/>
<linearGradient id="SVGID_1_" gradientUnits="userSpaceOnUse" x1="241.2292" y1="267.6579" x2="241.2292" y2="605.9554">
	<stop class="Colour2 fill stopColor" offset="0" style="stop-color:#222457;stop-opacity:0"/>
	<stop class="Gradient1 stopColor" offset="1" style="stop-color:#203A6F"/>
</linearGradient>
<path class="st3" d="M292.72,471.03c-1.3,0.41-2.6,0.85-3.9,1.24l-7.83,2.38l-7.85,2.28c-2.62,0.76-5.25,1.45-7.87,2.18
	c-2.63,0.72-5.25,1.46-7.89,2.12l-7.9,2.05c-2.63,0.7-5.28,1.32-7.92,1.97l-0.51,0.12l-0.48-0.12l-7.87-2.04
	c-2.63-0.67-5.24-1.41-7.85-2.11l-7.85-2.13l-7.83-2.23c-2.61-0.73-5.22-1.49-7.82-2.27c-2.6-0.78-5.21-1.53-7.8-2.34
	c-1.44-0.44-2.87-0.9-4.3-1.35l-0.19-1.65c1.65,0.32,3.3,0.63,4.95,0.96c2.66,0.51,5.31,1.09,7.96,1.63c2.65,0.54,5.3,1.11,7.95,1.7
	l7.94,1.75l7.91,1.84c2.64,0.62,5.28,1.21,7.91,1.87l7.39,1.82c2.48-0.64,4.95-1.29,7.43-1.88l7.93-1.93
	c2.64-0.66,5.3-1.25,7.95-1.86c2.65-0.6,5.3-1.23,7.96-1.79l7.98-1.7l8-1.6c1.33-0.27,2.67-0.5,4.01-0.75l1.12-0.21l-0.22,1.92
	L292.72,471.03z M292.18,479.83c-1.3,0.24-2.6,0.47-3.89,0.73l-8,1.6l-7.98,1.7c-2.66,0.56-5.31,1.2-7.96,1.79
	c-2.65,0.61-5.31,1.19-7.95,1.86l-7.93,1.93c-2.49,0.59-4.96,1.24-7.43,1.88l-7.39-1.82c-2.63-0.66-5.27-1.24-7.91-1.87l-7.91-1.84
	l-7.94-1.75c-2.64-0.59-5.29-1.16-7.95-1.7c-2.65-0.54-5.3-1.13-7.96-1.63c-1.23-0.24-2.47-0.48-3.7-0.71l0.21,1.81
	c1.01,0.32,2.02,0.64,3.04,0.95c2.59,0.82,5.2,1.56,7.8,2.34c2.6,0.78,5.21,1.54,7.82,2.27l7.83,2.23l7.85,2.13
	c2.62,0.7,5.23,1.44,7.85,2.11l7.87,2.04l0.48,0.12l0.51-0.12c2.64-0.65,5.29-1.27,7.92-1.97l7.9-2.05c2.64-0.67,5.26-1.4,7.89-2.12
	c2.62-0.73,5.26-1.42,7.87-2.18l7.85-2.28l7.83-2.38c1.04-0.31,2.08-0.65,3.12-0.99L292.18,479.83z M290.93,490.71
	c-0.88,0.16-1.76,0.32-2.64,0.5l-8,1.6l-7.98,1.7c-2.66,0.56-5.31,1.2-7.96,1.79c-2.65,0.61-5.31,1.19-7.95,1.86l-7.93,1.93
	c-2.49,0.59-4.96,1.24-7.43,1.88l-7.39-1.82c-2.63-0.66-5.27-1.24-7.91-1.87l-7.91-1.84l-7.94-1.75c-2.64-0.59-5.29-1.16-7.95-1.7
	c-2.65-0.54-5.3-1.13-7.96-1.63c-0.81-0.16-1.63-0.31-2.45-0.47l0.23,1.96c0.59,0.18,1.18,0.37,1.77,0.55
	c2.59,0.82,5.2,1.56,7.8,2.34c2.6,0.78,5.21,1.54,7.82,2.27l7.83,2.23l7.85,2.13c2.62,0.7,5.23,1.44,7.85,2.11l7.87,2.04l0.48,0.12
	l0.51-0.12c2.64-0.65,5.29-1.27,7.92-1.97l7.9-2.05c2.64-0.67,5.26-1.4,7.89-2.12c2.62-0.73,5.26-1.42,7.87-2.18l7.85-2.28
	l7.83-2.38c0.62-0.18,1.24-0.38,1.85-0.58L290.93,490.71z M294.5,447.45l-2.19,0.4c-1.34,0.25-2.68,0.48-4.01,0.75l-8,1.6l-7.98,1.7
	c-2.66,0.56-5.31,1.2-7.96,1.79c-2.65,0.61-5.31,1.19-7.95,1.86l-7.93,1.93c-2.49,0.59-4.96,1.24-7.43,1.88l-7.39-1.82
	c-2.63-0.66-5.27-1.24-7.91-1.87l-7.91-1.84l-7.94-1.75c-2.64-0.59-5.29-1.16-7.95-1.7c-2.65-0.54-5.3-1.13-7.96-1.63
	c-2.01-0.4-4.02-0.78-6.03-1.17l0.03,1.47c1.85,0.58,3.7,1.17,5.55,1.74c2.59,0.82,5.2,1.56,7.8,2.34c2.6,0.78,5.21,1.54,7.82,2.27
	l7.83,2.23l7.85,2.13c2.62,0.7,5.23,1.44,7.85,2.11l7.87,2.04l0.48,0.12l0.51-0.12c2.64-0.65,5.29-1.27,7.92-1.97l7.9-2.05
	c2.64-0.67,5.26-1.4,7.89-2.12c2.62-0.73,5.26-1.42,7.87-2.18l7.85-2.28l7.83-2.38c1.31-0.39,2.6-0.83,3.9-1.24l1.74-0.56
	L294.5,447.45z M294.91,426.08l-2.6,0.48c-1.34,0.25-2.68,0.48-4.01,0.75l-8,1.6l-7.98,1.7c-2.66,0.56-5.31,1.2-7.96,1.79
	c-2.65,0.61-5.31,1.19-7.95,1.86l-7.93,1.93c-2.49,0.59-4.96,1.24-7.43,1.88l-7.39-1.82c-2.63-0.66-5.27-1.24-7.91-1.87l-7.91-1.84
	l-7.94-1.75c-2.64-0.59-5.29-1.16-7.95-1.7c-2.65-0.54-5.3-1.13-7.96-1.63c-2.15-0.42-4.29-0.84-6.44-1.24l0.03,1.42
	c1.99,0.63,3.97,1.25,5.96,1.87c2.59,0.82,5.2,1.56,7.8,2.34c2.6,0.78,5.21,1.54,7.82,2.27l7.83,2.23l7.85,2.13
	c2.62,0.7,5.23,1.44,7.85,2.11l7.87,2.04l0.48,0.12l0.51-0.12c2.64-0.65,5.29-1.27,7.92-1.97l7.9-2.05c2.64-0.67,5.26-1.4,7.89-2.12
	c2.62-0.73,5.26-1.42,7.87-2.18l7.85-2.28l7.83-2.38c1.31-0.39,2.6-0.83,3.9-1.24l2.15-0.69L294.91,426.08z M294.29,458.14
	l-1.99,0.36c-1.34,0.25-2.68,0.48-4.01,0.75l-8,1.6l-7.98,1.7c-2.66,0.56-5.31,1.2-7.96,1.79c-2.65,0.61-5.31,1.19-7.95,1.86
	l-7.93,1.93c-2.49,0.59-4.96,1.24-7.43,1.88l-7.39-1.82c-2.63-0.66-5.27-1.24-7.91-1.87l-7.91-1.84l-7.94-1.75
	c-2.64-0.59-5.29-1.16-7.95-1.7c-2.65-0.54-5.3-1.13-7.96-1.63c-1.94-0.38-3.88-0.75-5.83-1.13l0.03,1.5
	c1.78,0.56,3.56,1.12,5.34,1.67c2.59,0.82,5.2,1.56,7.8,2.34c2.6,0.78,5.21,1.54,7.82,2.27l7.83,2.23l7.85,2.13
	c2.62,0.7,5.23,1.44,7.85,2.11l7.87,2.04l0.48,0.12l0.51-0.12c2.64-0.65,5.29-1.27,7.92-1.97l7.9-2.05c2.64-0.67,5.26-1.4,7.89-2.12
	c2.62-0.73,5.26-1.42,7.87-2.18l7.85-2.28l7.83-2.38c1.31-0.39,2.6-0.83,3.9-1.24l1.54-0.5L294.29,458.14z M289.4,504.03l0.28-2.44
	c-0.46,0.09-0.93,0.17-1.39,0.27l-8,1.6l-7.98,1.7c-2.66,0.56-5.31,1.2-7.96,1.79c-2.65,0.61-5.31,1.19-7.95,1.86l-7.93,1.93
	c-2.49,0.59-4.96,1.24-7.43,1.88l-7.39-1.82c-2.63-0.66-5.27-1.24-7.91-1.87l-7.91-1.84l-7.94-1.75c-2.64-0.59-5.29-1.16-7.95-1.7
	c-2.65-0.54-5.3-1.13-7.96-1.63c-0.4-0.08-0.8-0.15-1.2-0.23l0.24,2.12c0.17,0.05,0.33,0.1,0.5,0.16c2.59,0.82,5.2,1.56,7.8,2.34
	c2.6,0.78,5.21,1.54,7.82,2.27l7.83,2.23l7.85,2.13c2.62,0.7,5.23,1.44,7.85,2.11l7.87,2.04l0.48,0.12l0.51-0.12
	c2.64-0.65,5.29-1.27,7.92-1.97l7.9-2.05c2.64-0.67,5.26-1.4,7.89-2.12c2.62-0.73,5.26-1.42,7.87-2.18l7.85-2.28l7.83-2.38
	C289.01,504.16,289.21,504.09,289.4,504.03z M294.7,436.77l-2.4,0.44c-1.34,0.25-2.68,0.48-4.01,0.75l-8,1.6l-7.98,1.7
	c-2.66,0.56-5.31,1.2-7.96,1.79c-2.65,0.61-5.31,1.19-7.95,1.86l-7.93,1.93c-2.49,0.59-4.96,1.24-7.43,1.88l-7.39-1.82
	c-2.63-0.66-5.27-1.24-7.91-1.87l-7.91-1.84l-7.94-1.75c-2.64-0.59-5.29-1.16-7.95-1.7c-2.65-0.54-5.3-1.13-7.96-1.63
	c-2.08-0.41-4.16-0.81-6.24-1.2l0.03,1.45c1.92,0.61,3.83,1.21,5.75,1.8c2.59,0.82,5.2,1.56,7.8,2.34c2.6,0.78,5.21,1.54,7.82,2.27
	l7.83,2.23l7.85,2.13c2.62,0.7,5.23,1.44,7.85,2.11l7.87,2.04l0.48,0.12l0.51-0.12c2.64-0.65,5.29-1.27,7.92-1.97l7.9-2.05
	c2.64-0.67,5.26-1.4,7.89-2.12c2.62-0.73,5.26-1.42,7.87-2.18l7.85-2.28l7.83-2.38c1.31-0.39,2.6-0.83,3.9-1.24l1.95-0.63
	L294.7,436.77z M280.92,577.89l-0.63,0.13l-7.98,1.7c-2.66,0.56-5.31,1.2-7.96,1.79c-2.65,0.61-5.31,1.19-7.95,1.86l-7.93,1.93
	c-2.49,0.59-4.96,1.24-7.43,1.88l-7.39-1.82c-2.63-0.66-5.27-1.24-7.91-1.87l-7.91-1.84l-7.94-1.75c-2.64-0.59-5.29-1.16-7.95-1.7
	c-0.13-0.03-0.26-0.05-0.39-0.08l0.34,3c2.41,0.72,4.83,1.43,7.25,2.11l7.83,2.23l7.85,2.13c2.62,0.7,5.23,1.44,7.85,2.11l7.87,2.04
	l0.48,0.12l0.51-0.12c2.64-0.65,5.29-1.27,7.92-1.97l7.9-2.05c2.64-0.67,5.26-1.4,7.89-2.12c2.62-0.73,5.26-1.42,7.87-2.18l7.4-2.14
	L280.92,577.89z M281.8,570.25l0.37-3.26l-1.88,0.38l-7.98,1.7c-2.66,0.56-5.31,1.2-7.96,1.79c-2.65,0.61-5.31,1.2-7.95,1.86
	l-7.93,1.93c-2.49,0.59-4.96,1.24-7.43,1.88l-7.39-1.82c-2.63-0.66-5.27-1.24-7.91-1.87l-7.91-1.84l-7.94-1.75
	c-2.64-0.59-5.29-1.16-7.95-1.7c-0.55-0.11-1.1-0.23-1.65-0.34l0.33,2.89c0.23,0.07,0.47,0.14,0.7,0.21
	c2.6,0.78,5.21,1.54,7.82,2.27l7.83,2.23l7.85,2.13c2.62,0.7,5.23,1.44,7.85,2.11l7.87,2.04l0.48,0.12l0.51-0.12
	c2.64-0.65,5.29-1.27,7.92-1.97l7.9-2.05c2.64-0.67,5.26-1.4,7.89-2.12c2.62-0.73,5.26-1.42,7.87-2.18l7.85-2.28L281.8,570.25z
	 M283.43,556.09l-3.13,0.63l-7.98,1.7c-2.66,0.56-5.31,1.2-7.96,1.79c-2.65,0.61-5.31,1.19-7.95,1.86l-7.93,1.93
	c-2.49,0.59-4.96,1.24-7.43,1.88l-7.39-1.82c-2.63-0.66-5.27-1.24-7.91-1.87l-7.91-1.84l-7.94-1.75c-2.64-0.59-5.29-1.16-7.95-1.7
	c-0.97-0.2-1.93-0.4-2.9-0.6l0.32,2.78c0.66,0.19,1.31,0.39,1.97,0.58c2.6,0.78,5.21,1.54,7.82,2.27l7.83,2.23l7.85,2.13
	c2.62,0.7,5.23,1.44,7.85,2.11l7.87,2.04l0.48,0.12l0.51-0.12c2.64-0.65,5.29-1.27,7.92-1.97l7.9-2.05c2.64-0.67,5.26-1.4,7.89-2.12
	c2.62-0.73,5.26-1.42,7.87-2.18l7.85-2.28l2.08-0.63L283.43,556.09z M257.37,598.38c2.64-0.67,5.26-1.4,7.89-2.12
	c2.62-0.73,5.26-1.42,7.87-2.18l6.13-1.78l0.4-3.5l-7.36,1.57c-2.66,0.56-5.31,1.2-7.96,1.79c-2.65,0.61-5.31,1.2-7.95,1.86
	l-7.93,1.93c-2.49,0.59-4.96,1.24-7.43,1.88l-7.39-1.82c-2.63-0.66-5.27-1.24-7.91-1.87l-7.91-1.84l-7.94-1.75
	c-2.36-0.53-4.72-1.03-7.09-1.52l0.36,3.1c1.99,0.59,3.99,1.18,5.99,1.74l7.83,2.23l7.85,2.13c2.62,0.7,5.23,1.44,7.85,2.11
	l7.87,2.04l0.48,0.12l0.51-0.12c2.64-0.65,5.29-1.27,7.92-1.97L257.37,598.38z M257.37,609.86c2.64-0.67,5.26-1.4,7.89-2.12
	c2.62-0.73,5.26-1.42,7.87-2.18l6.13-1.78l0.4-3.5l-7.36,1.57c-2.66,0.56-5.31,1.2-7.96,1.79c-2.65,0.61-5.31,1.19-7.95,1.86
	l-7.93,1.93c-2.49,0.59-4.96,1.24-7.43,1.88l-7.39-1.82c-2.63-0.66-5.27-1.24-7.91-1.87l-7.91-1.84l-7.94-1.75
	c-2.36-0.53-4.72-1.03-7.09-1.52l0.36,3.1c1.99,0.59,3.99,1.18,5.99,1.74l7.83,2.23l7.85,2.13c2.62,0.7,5.23,1.44,7.85,2.11
	l7.87,2.04l0.48,0.12l0.51-0.12c2.64-0.65,5.29-1.27,7.92-1.97L257.37,609.86z M256.62,621.35c2.51-0.67,5.01-1.4,7.52-2.12
	c2.5-0.73,5.01-1.42,7.5-2.18l5.85-1.78l0.38-3.5l-7.01,1.57c-2.54,0.56-5.06,1.2-7.59,1.79c-2.53,0.61-5.06,1.2-7.57,1.86
	l-7.56,1.93c-2.37,0.59-4.73,1.24-7.08,1.88l-7.04-1.82c-2.5-0.66-5.03-1.24-7.54-1.87l-7.54-1.84l-7.56-1.75
	c-2.25-0.53-4.5-1.03-6.75-1.52l0.34,3.1c1.9,0.59,3.8,1.18,5.71,1.74l7.46,2.23l7.48,2.13c2.5,0.7,4.98,1.44,7.49,2.11l7.5,2.04
	l0.46,0.12l0.48-0.12c2.52-0.65,5.04-1.27,7.55-1.97L256.62,621.35z M288.43,512.48c-0.05,0.01-0.09,0.02-0.14,0.03l-8,1.6
	l-7.98,1.7c-2.66,0.56-5.31,1.2-7.96,1.79c-2.65,0.61-5.31,1.19-7.95,1.86l-7.93,1.93c-2.49,0.59-4.96,1.24-7.43,1.88l-7.39-1.82
	c-2.63-0.66-5.27-1.24-7.91-1.87l-7.91-1.84L209.9,516c-2.64-0.59-5.29-1.16-7.95-1.7c-2.64-0.54-5.26-1.12-7.91-1.62l0.26,2.27
	c2.34,0.73,4.69,1.4,7.03,2.11c2.6,0.78,5.21,1.54,7.82,2.27l7.83,2.23l7.85,2.13c2.62,0.7,5.23,1.44,7.85,2.11l7.87,2.04l0.48,0.12
	l0.51-0.12c2.64-0.65,5.29-1.27,7.92-1.97l7.9-2.05c2.64-0.67,5.26-1.4,7.89-2.12c2.62-0.73,5.26-1.42,7.87-2.18l7.85-2.28
	l7.15-2.17L288.43,512.48z M287.18,523.38l-6.89,1.38l-7.98,1.7c-2.66,0.56-5.31,1.2-7.96,1.79c-2.65,0.61-5.31,1.2-7.95,1.86
	l-7.93,1.93c-2.49,0.59-4.96,1.24-7.43,1.88l-7.39-1.82c-2.63-0.66-5.27-1.24-7.91-1.87l-7.91-1.84l-7.94-1.75
	c-2.64-0.59-5.29-1.16-7.95-1.7c-2.22-0.45-4.43-0.93-6.66-1.37l0.28,2.4c1.92,0.58,3.84,1.15,5.77,1.73
	c2.6,0.78,5.21,1.54,7.82,2.27l7.83,2.23l7.85,2.13c2.62,0.7,5.23,1.44,7.85,2.11l7.87,2.04l0.48,0.12l0.51-0.12
	c2.64-0.65,5.29-1.27,7.92-1.97l7.9-2.05c2.64-0.67,5.26-1.4,7.89-2.12c2.62-0.73,5.26-1.42,7.87-2.18l7.85-2.28l5.88-1.79
	L287.18,523.38z M285.93,534.28l-5.64,1.13l-7.98,1.7c-2.66,0.56-5.31,1.2-7.96,1.79c-2.65,0.61-5.31,1.19-7.95,1.86l-7.93,1.93
	c-2.49,0.59-4.96,1.24-7.43,1.88l-7.39-1.82c-2.63-0.66-5.27-1.24-7.91-1.87l-7.91-1.84l-7.94-1.75c-2.64-0.59-5.29-1.16-7.95-1.7
	c-1.8-0.37-3.6-0.75-5.4-1.12l0.29,2.53c1.5,0.45,3,0.89,4.5,1.34c2.6,0.78,5.21,1.54,7.82,2.27l7.83,2.23l7.85,2.13
	c2.62,0.7,5.23,1.44,7.85,2.11l7.87,2.04l0.48,0.12l0.51-0.12c2.64-0.65,5.29-1.27,7.92-1.97l7.9-2.05c2.64-0.67,5.26-1.4,7.89-2.12
	c2.62-0.73,5.26-1.42,7.87-2.18l7.85-2.28l4.61-1.4L285.93,534.28z M284.68,545.19l-4.39,0.88l-7.98,1.7
	c-2.66,0.56-5.31,1.2-7.96,1.79c-2.65,0.61-5.31,1.2-7.95,1.86l-7.93,1.93c-2.49,0.59-4.96,1.24-7.43,1.88l-7.39-1.82
	c-2.63-0.66-5.27-1.24-7.91-1.87l-7.91-1.84l-7.94-1.75c-2.64-0.59-5.29-1.16-7.95-1.7c-1.39-0.28-2.77-0.58-4.15-0.86l0.31,2.66
	c1.08,0.32,2.16,0.64,3.23,0.96c2.6,0.78,5.21,1.54,7.82,2.27l7.83,2.23l7.85,2.13c2.62,0.7,5.23,1.44,7.85,2.11l7.87,2.04
	l0.48,0.12l0.51-0.12c2.64-0.65,5.29-1.27,7.92-1.97l7.9-2.05c2.64-0.67,5.26-1.4,7.89-2.12c2.62-0.73,5.26-1.42,7.87-2.18
	l7.85-2.28l3.35-1.02L284.68,545.19z M295.73,383.33l-3.42,0.62c-1.34,0.25-2.68,0.48-4.01,0.75l-8,1.6l-7.98,1.7
	c-2.66,0.56-5.31,1.2-7.96,1.79c-2.65,0.61-5.31,1.19-7.95,1.86l-7.93,1.93c-2.49,0.59-4.96,1.24-7.43,1.88l-7.39-1.82
	c-2.63-0.66-5.27-1.24-7.91-1.87l-7.91-1.84l-7.94-1.75c-2.64-0.59-5.29-1.16-7.95-1.7c-2.65-0.54-5.3-1.13-7.96-1.63
	c-2.42-0.48-4.84-0.95-7.26-1.4l0.03,1.32c2.26,0.72,4.52,1.43,6.78,2.12c2.59,0.82,5.2,1.56,7.8,2.34c2.6,0.78,5.21,1.54,7.82,2.27
	l7.83,2.23l7.85,2.13c2.62,0.7,5.23,1.44,7.85,2.11l7.87,2.04l0.48,0.12l0.51-0.12c2.64-0.65,5.29-1.27,7.92-1.97l7.9-2.05
	c2.64-0.67,5.26-1.4,7.89-2.12c2.62-0.73,5.26-1.42,7.87-2.18l7.85-2.28l7.83-2.38c1.31-0.39,2.6-0.83,3.9-1.24l2.98-0.96
	L295.73,383.33z M297.77,276.47c-0.48,0.08-0.97,0.16-1.45,0.25l-4.02,0.73c-1.34,0.25-2.68,0.48-4.01,0.75l-8,1.6l-7.98,1.7
	c-2.66,0.56-5.31,1.2-7.96,1.79c-2.65,0.61-5.31,1.19-7.95,1.86l-7.93,1.93c-2.49,0.59-4.96,1.24-7.43,1.88l-7.39-1.82
	c-2.63-0.66-5.27-1.24-7.91-1.87l-7.91-1.84l-7.94-1.75c-2.64-0.59-5.29-1.16-7.95-1.7c-2.65-0.54-5.3-1.13-7.96-1.63
	c-3.1-0.61-6.2-1.2-9.31-1.78l0.02,1.04c2.94,0.95,5.88,1.88,8.83,2.78c2.59,0.82,5.2,1.56,7.8,2.34c2.6,0.78,5.21,1.54,7.82,2.27
	l7.83,2.23l7.85,2.13c2.62,0.7,5.23,1.44,7.85,2.11l7.87,2.04l0.48,0.12l0.51-0.12c2.64-0.65,5.29-1.27,7.92-1.97l7.9-2.05
	c2.64-0.67,5.26-1.4,7.89-2.12c2.62-0.73,5.26-1.42,7.87-2.18l7.85-2.28l7.83-2.38c1.31-0.39,2.6-0.83,3.9-1.24l3.9-1.26
	c0.38-0.13,0.75-0.25,1.13-0.38L297.77,276.47z M297.37,297.84c-0.35,0.06-0.69,0.12-1.04,0.18l-4.02,0.73
	c-1.34,0.25-2.68,0.48-4.01,0.75l-8,1.6l-7.98,1.7c-2.66,0.56-5.31,1.2-7.96,1.79c-2.65,0.61-5.31,1.19-7.95,1.86l-7.93,1.93
	c-2.49,0.59-4.96,1.24-7.43,1.88l-7.39-1.82c-2.63-0.66-5.27-1.24-7.91-1.87l-7.91-1.84l-7.94-1.75c-2.64-0.59-5.29-1.16-7.95-1.7
	c-2.65-0.54-5.3-1.13-7.96-1.63c-2.96-0.59-5.93-1.16-8.9-1.7l0.02,1.1c2.8,0.9,5.61,1.78,8.42,2.65c2.59,0.82,5.2,1.56,7.8,2.34
	c2.6,0.78,5.21,1.54,7.82,2.27l7.83,2.23l7.85,2.13c2.62,0.7,5.23,1.44,7.85,2.11l7.87,2.04l0.48,0.12l0.51-0.12
	c2.64-0.65,5.29-1.27,7.92-1.97l7.9-2.05c2.64-0.67,5.26-1.4,7.89-2.12c2.62-0.73,5.26-1.42,7.87-2.18l7.85-2.28l7.83-2.38
	c1.31-0.39,2.6-0.83,3.9-1.24l3.9-1.26c0.24-0.08,0.48-0.16,0.72-0.24L297.37,297.84z M297.57,287.15
	c-0.42,0.07-0.83,0.14-1.25,0.21l-4.02,0.73c-1.34,0.25-2.68,0.48-4.01,0.75l-8,1.6l-7.98,1.7c-2.66,0.56-5.31,1.2-7.96,1.79
	c-2.65,0.61-5.31,1.19-7.95,1.86l-7.93,1.93c-2.49,0.59-4.96,1.24-7.43,1.88l-7.39-1.82c-2.63-0.66-5.27-1.24-7.91-1.87l-7.91-1.84
	l-7.94-1.75c-2.64-0.59-5.29-1.16-7.95-1.7c-2.65-0.54-5.3-1.13-7.96-1.63c-3.03-0.6-6.06-1.18-9.1-1.74l0.02,1.07
	c2.87,0.92,5.75,1.83,8.63,2.72c2.59,0.82,5.2,1.56,7.8,2.34c2.6,0.78,5.21,1.54,7.82,2.27l7.83,2.23l7.85,2.13
	c2.62,0.7,5.23,1.44,7.85,2.11l7.87,2.04l0.48,0.12l0.51-0.12c2.64-0.65,5.29-1.27,7.92-1.97l7.9-2.05c2.64-0.67,5.26-1.4,7.89-2.12
	c2.62-0.73,5.26-1.42,7.87-2.18l7.85-2.28l7.83-2.38c1.31-0.39,2.6-0.83,3.9-1.24l3.9-1.26c0.31-0.1,0.62-0.21,0.92-0.31
	L297.57,287.15z M297.16,308.52c-0.28,0.05-0.56,0.09-0.84,0.14l-4.02,0.73c-1.34,0.25-2.68,0.48-4.01,0.75l-8,1.6l-7.98,1.7
	c-2.66,0.56-5.31,1.2-7.96,1.79c-2.65,0.61-5.31,1.19-7.95,1.86l-7.93,1.93c-2.49,0.59-4.96,1.24-7.43,1.88l-7.39-1.82
	c-2.63-0.66-5.27-1.24-7.91-1.87l-7.91-1.84l-7.94-1.75c-2.64-0.59-5.29-1.16-7.95-1.7c-2.65-0.54-5.3-1.13-7.96-1.63
	c-2.89-0.57-5.79-1.13-8.69-1.67l0.02,1.13c2.74,0.88,5.47,1.73,8.22,2.58c2.59,0.82,5.2,1.56,7.8,2.34
	c2.6,0.78,5.21,1.54,7.82,2.27l7.83,2.23l7.85,2.13c2.62,0.7,5.23,1.44,7.85,2.11l7.87,2.04l0.48,0.12l0.51-0.12
	c2.64-0.65,5.29-1.27,7.92-1.97l7.9-2.05c2.64-0.67,5.26-1.4,7.89-2.12c2.62-0.73,5.26-1.42,7.87-2.18l7.85-2.28l7.83-2.38
	c1.31-0.39,2.6-0.83,3.9-1.24l3.9-1.26c0.17-0.06,0.34-0.11,0.51-0.17L297.16,308.52z M296.96,319.21
	c-0.21,0.04-0.42,0.07-0.63,0.11l-4.02,0.73c-1.34,0.25-2.68,0.48-4.01,0.75l-8,1.6l-7.98,1.7c-2.66,0.56-5.31,1.2-7.96,1.79
	c-2.65,0.61-5.31,1.19-7.95,1.86l-7.93,1.93c-2.49,0.59-4.96,1.24-7.43,1.88l-7.39-1.82c-2.63-0.66-5.27-1.24-7.91-1.87l-7.91-1.84
	l-7.94-1.75c-2.64-0.59-5.29-1.16-7.95-1.7c-2.65-0.54-5.3-1.13-7.96-1.63c-2.83-0.56-5.66-1.11-8.49-1.63l0.02,1.16
	c2.67,0.85,5.34,1.69,8.01,2.51c2.59,0.82,5.2,1.56,7.8,2.34c2.6,0.78,5.21,1.54,7.82,2.27l7.83,2.23l7.85,2.13
	c2.62,0.7,5.23,1.44,7.85,2.11l7.87,2.04l0.48,0.12l0.51-0.12c2.64-0.65,5.29-1.27,7.92-1.97l7.9-2.05c2.64-0.67,5.26-1.4,7.89-2.12
	c2.62-0.73,5.26-1.42,7.87-2.18l7.85-2.28l7.83-2.38c1.31-0.39,2.6-0.83,3.9-1.24l3.9-1.26c0.1-0.03,0.2-0.07,0.31-0.1
	L296.96,319.21z M193.54,269.75c2.59,0.82,5.2,1.56,7.8,2.34c2.6,0.78,5.21,1.54,7.82,2.27l7.83,2.23l7.85,2.13
	c2.62,0.7,5.23,1.44,7.85,2.11l7.87,2.04l0.48,0.12l0.51-0.12c2.64-0.65,5.29-1.27,7.92-1.97l7.9-2.05c2.64-0.67,5.26-1.4,7.89-2.12
	c2.62-0.73,5.26-1.42,7.87-2.18l7.85-2.28l7.83-2.38c1.31-0.39,2.6-0.83,3.9-1.24l3.9-1.26c0.44-0.15,0.89-0.3,1.33-0.45l0.02-1.18
	c-0.55,0.09-1.1,0.19-1.66,0.28l-4.02,0.73c-1.34,0.25-2.68,0.48-4.01,0.75l-8,1.6l-7.98,1.7c-2.66,0.56-5.31,1.2-7.96,1.79
	c-2.65,0.61-5.31,1.19-7.95,1.86l-7.93,1.93c-2.49,0.59-4.96,1.24-7.43,1.88l-7.39-1.82c-2.63-0.66-5.27-1.24-7.91-1.87l-7.91-1.84
	l-7.94-1.75c-2.64-0.59-5.29-1.16-7.95-1.7c-2.65-0.54-5.3-1.13-7.96-1.63c-3.17-0.63-6.34-1.23-9.51-1.81l0.02,1
	C187.51,267.87,190.52,268.82,193.54,269.75z M295.32,404.7l-3.01,0.55c-1.34,0.25-2.68,0.48-4.01,0.75l-8,1.6l-7.98,1.7
	c-2.66,0.56-5.31,1.2-7.96,1.79c-2.65,0.61-5.31,1.19-7.95,1.86l-7.93,1.93c-2.49,0.59-4.96,1.24-7.43,1.88l-7.39-1.82
	c-2.63-0.66-5.27-1.24-7.91-1.87l-7.91-1.84l-7.94-1.75c-2.64-0.59-5.29-1.16-7.95-1.7c-2.65-0.54-5.3-1.13-7.96-1.63
	c-2.28-0.45-4.57-0.89-6.85-1.32l0.03,1.37c2.12,0.67,4.24,1.34,6.37,1.99c2.59,0.82,5.2,1.56,7.8,2.34
	c2.6,0.78,5.21,1.54,7.82,2.27l7.83,2.23l7.85,2.13c2.62,0.7,5.23,1.44,7.85,2.11l7.87,2.04l0.48,0.12l0.51-0.12
	c2.64-0.65,5.29-1.27,7.92-1.97l7.9-2.05c2.64-0.67,5.26-1.4,7.89-2.12c2.62-0.73,5.26-1.42,7.87-2.18l7.85-2.28l7.83-2.38
	c1.31-0.39,2.6-0.83,3.9-1.24l2.57-0.83L295.32,404.7z M295.93,372.64l-3.63,0.66c-1.34,0.25-2.68,0.48-4.01,0.75l-8,1.6l-7.98,1.7
	c-2.66,0.56-5.31,1.2-7.96,1.79c-2.65,0.61-5.31,1.19-7.95,1.86l-7.93,1.93c-2.49,0.59-4.96,1.24-7.43,1.88l-7.39-1.82
	c-2.63-0.66-5.27-1.24-7.91-1.87l-7.91-1.84l-7.94-1.75c-2.64-0.59-5.29-1.16-7.95-1.7c-2.65-0.54-5.3-1.13-7.96-1.63
	c-2.49-0.49-4.97-0.97-7.47-1.44l0.03,1.3c2.33,0.74,4.65,1.47,6.99,2.19c2.59,0.82,5.2,1.56,7.8,2.34c2.6,0.78,5.21,1.54,7.82,2.27
	l7.83,2.23l7.85,2.13c2.62,0.7,5.23,1.44,7.85,2.11l7.87,2.04l0.48,0.12l0.51-0.12c2.64-0.65,5.29-1.27,7.92-1.97l7.9-2.05
	c2.64-0.67,5.26-1.4,7.89-2.12c2.62-0.73,5.26-1.42,7.87-2.18l7.85-2.28l7.83-2.38c1.31-0.39,2.6-0.83,3.9-1.24l3.18-1.02
	L295.93,372.64z M295.52,394.01l-3.22,0.59c-1.34,0.25-2.68,0.48-4.01,0.75l-8,1.6l-7.98,1.7c-2.66,0.56-5.31,1.2-7.96,1.79
	c-2.65,0.61-5.31,1.19-7.95,1.86l-7.93,1.93c-2.49,0.59-4.96,1.24-7.43,1.88l-7.39-1.82c-2.63-0.66-5.27-1.24-7.91-1.87l-7.91-1.84
	l-7.94-1.75c-2.64-0.59-5.29-1.16-7.95-1.7c-2.65-0.54-5.3-1.13-7.96-1.63c-2.35-0.46-4.7-0.92-7.06-1.36l0.03,1.35
	c2.19,0.69,4.38,1.38,6.58,2.06c2.59,0.82,5.2,1.56,7.8,2.34c2.6,0.78,5.21,1.54,7.82,2.27l7.83,2.23l7.85,2.13
	c2.62,0.7,5.23,1.44,7.85,2.11l7.87,2.04l0.48,0.12l0.51-0.12c2.64-0.65,5.29-1.27,7.92-1.97l7.9-2.05c2.64-0.67,5.26-1.4,7.89-2.12
	c2.62-0.73,5.26-1.42,7.87-2.18l7.85-2.28l7.83-2.38c1.31-0.39,2.6-0.83,3.9-1.24l2.77-0.89L295.52,394.01z M295.11,415.39
	l-2.81,0.51c-1.34,0.25-2.68,0.48-4.01,0.75l-8,1.6l-7.98,1.7c-2.66,0.56-5.31,1.2-7.96,1.79c-2.65,0.61-5.31,1.19-7.95,1.86
	l-7.93,1.93c-2.49,0.59-4.96,1.24-7.43,1.88l-7.39-1.82c-2.63-0.66-5.27-1.24-7.91-1.87l-7.91-1.84l-7.94-1.75
	c-2.64-0.59-5.29-1.16-7.95-1.7c-2.65-0.54-5.3-1.13-7.96-1.63c-2.21-0.44-4.43-0.86-6.65-1.28l0.03,1.4
	c2.05,0.65,4.11,1.3,6.16,1.93c2.59,0.82,5.2,1.56,7.8,2.34c2.6,0.78,5.21,1.54,7.82,2.27l7.83,2.23l7.85,2.13
	c2.62,0.7,5.23,1.44,7.85,2.11l7.87,2.04l0.48,0.12l0.51-0.12c2.64-0.65,5.29-1.27,7.92-1.97l7.9-2.05c2.64-0.67,5.26-1.4,7.89-2.12
	c2.62-0.73,5.26-1.42,7.87-2.18l7.85-2.28l7.83-2.38c1.31-0.39,2.6-0.83,3.9-1.24l2.36-0.76L295.11,415.39z M296.34,351.26
	c0,0-0.01,0-0.02,0l-4.02,0.73c-1.34,0.25-2.68,0.48-4.01,0.75l-8,1.6l-7.98,1.7c-2.66,0.56-5.31,1.2-7.96,1.79
	c-2.65,0.61-5.31,1.19-7.95,1.86l-7.93,1.93c-2.49,0.59-4.96,1.24-7.43,1.88l-7.39-1.82c-2.63-0.66-5.27-1.24-7.91-1.87l-7.91-1.84
	l-7.94-1.75c-2.64-0.59-5.29-1.16-7.95-1.7c-2.65-0.54-5.3-1.13-7.96-1.63c-2.62-0.52-5.25-1.03-7.88-1.52l0.02,1.25
	c2.46,0.79,4.93,1.55,7.4,2.32c2.59,0.82,5.2,1.56,7.8,2.34c2.6,0.78,5.21,1.54,7.82,2.27l7.83,2.23l7.85,2.13
	c2.62,0.7,5.23,1.44,7.85,2.11l7.87,2.04l0.48,0.12l0.51-0.12c2.64-0.65,5.29-1.27,7.92-1.97l7.9-2.05c2.64-0.67,5.26-1.4,7.89-2.12
	c2.62-0.73,5.26-1.42,7.87-2.18l7.85-2.28l7.83-2.38c1.31-0.39,2.6-0.83,3.9-1.24l3.59-1.16L296.34,351.26z M296.55,340.58
	c-0.07,0.01-0.15,0.03-0.22,0.04l-4.02,0.73c-1.34,0.25-2.68,0.48-4.01,0.75l-8,1.6l-7.98,1.7c-2.66,0.56-5.31,1.2-7.96,1.79
	c-2.65,0.61-5.31,1.19-7.95,1.86l-7.93,1.93c-2.49,0.59-4.96,1.24-7.43,1.88l-7.39-1.82c-2.63-0.66-5.27-1.24-7.91-1.87l-7.91-1.84
	l-7.94-1.75c-2.64-0.59-5.29-1.16-7.95-1.7c-2.65-0.54-5.3-1.13-7.96-1.63c-2.69-0.53-5.38-1.06-8.08-1.56l0.02,1.22
	c2.53,0.81,5.06,1.6,7.6,2.38c2.59,0.82,5.2,1.56,7.8,2.34c2.6,0.78,5.21,1.54,7.82,2.27l7.83,2.23l7.85,2.13
	c2.62,0.7,5.23,1.44,7.85,2.11l7.87,2.04l0.48,0.12l0.51-0.12c2.64-0.65,5.29-1.27,7.92-1.97l7.9-2.05c2.64-0.67,5.26-1.4,7.89-2.12
	c2.62-0.73,5.26-1.42,7.87-2.18l7.85-2.28l7.83-2.38c1.31-0.39,2.6-0.83,3.9-1.24l3.8-1.22L296.55,340.58z M296.14,361.95l-3.83,0.7
	c-1.34,0.25-2.68,0.48-4.01,0.75l-8,1.6l-7.98,1.7c-2.66,0.56-5.31,1.2-7.96,1.79c-2.65,0.61-5.31,1.19-7.95,1.86l-7.93,1.93
	c-2.49,0.59-4.96,1.24-7.43,1.88l-7.39-1.82c-2.63-0.66-5.27-1.24-7.91-1.87l-7.91-1.84l-7.94-1.75c-2.64-0.59-5.29-1.16-7.95-1.7
	c-2.65-0.54-5.3-1.13-7.96-1.63c-2.55-0.51-5.11-1-7.67-1.48l0.02,1.27c2.39,0.76,4.79,1.51,7.19,2.25c2.59,0.82,5.2,1.56,7.8,2.34
	c2.6,0.78,5.21,1.54,7.82,2.27l7.83,2.23l7.85,2.13c2.62,0.7,5.23,1.44,7.85,2.11l7.87,2.04l0.48,0.12l0.51-0.12
	c2.64-0.65,5.29-1.27,7.92-1.97l7.9-2.05c2.64-0.67,5.26-1.4,7.89-2.12c2.62-0.73,5.26-1.42,7.87-2.18l7.85-2.28l7.83-2.38
	c1.31-0.39,2.6-0.83,3.9-1.24l3.39-1.09L296.14,361.95z M296.72,331.28l0.03-1.39c-0.14,0.02-0.29,0.05-0.43,0.07l-4.02,0.73
	c-1.34,0.25-2.68,0.48-4.01,0.75l-8,1.6l-7.98,1.7c-2.66,0.56-5.31,1.2-7.96,1.79c-2.65,0.61-5.31,1.19-7.95,1.86l-7.93,1.93
	c-2.49,0.59-4.96,1.24-7.43,1.88l-7.39-1.82c-2.63-0.66-5.27-1.24-7.91-1.87l-7.91-1.84l-7.94-1.75c-2.64-0.59-5.29-1.16-7.95-1.7
	c-2.65-0.54-5.3-1.13-7.96-1.63c-2.76-0.55-5.52-1.08-8.28-1.6l0.02,1.2c2.6,0.83,5.2,1.64,7.81,2.44c2.59,0.82,5.2,1.56,7.8,2.34
	c2.6,0.78,5.21,1.54,7.82,2.27l7.83,2.23l7.85,2.13c2.62,0.7,5.23,1.44,7.85,2.11l7.87,2.04l0.48,0.12l0.51-0.12
	c2.64-0.65,5.29-1.27,7.92-1.97l7.9-2.05c2.64-0.67,5.26-1.4,7.89-2.12c2.62-0.73,5.26-1.42,7.87-2.18l7.85-2.28l7.83-2.38
	c1.31-0.39,2.6-0.83,3.9-1.24l3.9-1.26C296.66,331.3,296.69,331.29,296.72,331.28z"/>
<path class="Colour3 fill" d="M166.11,279.93l-0.8-6.84l-70.43-36.15c0.01,0.05,0.01,0.1,0.02,0.14c0.13,0.87,0.26,1.79,0.4,2.73
	c0.04,0.29,0.08,0.57,0.13,0.86c0.15,1,0.3,2.03,0.45,3.1c0.01,0.04,0.01,0.07,0.02,0.11L166.11,279.93z"/>
<path class="Colour3 fill" d="M375.31,577.22c0-0.24,0-0.49,0-0.74c0-0.49-0.01-0.98-0.01-1.49c0-0.24,0-0.48,0-0.72
	c0-0.82-0.01-1.66-0.01-2.54c0-0.07,0-0.15,0-0.23c-0.01-0.82-0.01-1.68-0.02-2.55c0-0.22,0-0.43,0-0.65
	c-0.01-1-0.01-2.02-0.02-3.08c-26.34,7.37-54.57,12.42-66.33,14.37l5.92-86.36l34.08-20.84l1.46-0.89l0.1-1.66l9.8-165
	l-15.65,162.69l-29.14,16.25l10.28-149.94l-28.2,251.84l-0.74,7.01l7.97-0.71C306.93,591.68,341.81,586.39,375.31,577.22z"/>
<path class="Colour3 fill" d="M360.01,74.37L259.92,32.18c-0.7,2.03-1.55,4.18-2.57,6.4l105.1,44.29L360.01,74.37z"/>
<path class="Colour3 fill" d="M317.56,269.49l68.89-34.85c0.03-0.2,0.06-0.37,0.08-0.56c0.06-0.41,0.12-0.82,0.18-1.2
	c0.03-0.21,0.06-0.42,0.09-0.62c0.07-0.45,0.13-0.88,0.2-1.29c0.02-0.12,0.04-0.25,0.06-0.37c0.16-1.06,0.31-2,0.43-2.79
	c0.01-0.04,0.01-0.09,0.02-0.13l-69.16,34.98L317.56,269.49z"/>
<path class="Colour3 fill" d="M317.14,273.09l-0.8,6.84l68.55-34.68c0.34-2.39,0.67-4.6,0.96-6.63c0.01-0.1,0.03-0.22,0.05-0.32
	L317.14,273.09z"/>
<polygon class="Colour3 fill" points="387.7,85.96 366.49,77.08 368.92,85.58 390.65,94.68 "/>
<path class="Colour3 fill" d="M164.1,262.65l-70.83-36.36c0.02,0.11,0.04,0.25,0.06,0.37c0.03,0.17,0.06,0.36,0.09,0.56
	c0.02,0.16,0.05,0.3,0.07,0.47c0.22,1.42,0.51,3.3,0.85,5.59l70.55,36.22L164.1,262.65z"/>
<path class="Colour3 fill" d="M226.1,30.86L122.21,74.37l-2.44,8.5l108.9-45.61C227.65,35.04,226.8,32.88,226.1,30.86z"/>
<path class="Colour3 fill" d="M185.63,592.71l-0.74-7.01l-28.2-251.84l10.29,149.94l5.69,3.17l-3.67,7.12l-1.37-0.84l5.92,86.36
	c-11.97-1.99-41.03-7.19-67.78-14.79c-0.02,2.13-0.03,4.13-0.04,6.02c0,0.27,0,0.54,0,0.8c0,0.27,0,0.52-0.01,0.78
	c-0.01,1.56-0.02,3.04-0.02,4.4c33.94,9.42,69.8,14.85,71.97,15.18L185.63,592.71z"/>
<polygon class="Colour3 fill" points="91.58,94.68 113.3,85.58 115.74,77.08 94.53,85.96 "/>
<polygon class="Colour3 fill" points="137.85,467.55 122.2,304.85 132,469.86 132.1,471.52 133.55,472.41 167.63,493.25 166.98,483.79 
	"/>
<polygon class="st0" points="3.47,242.86 84.01,280.8 81.99,288.26 1.5,261.32 "/>
<polygon class="ArmTrim fill" points="3.47,242.86 84.01,280.8 81.99,288.26 1.5,261.32 "/>
<polygon class="st4" points="479.54,242.82 398.88,280.82 400.9,288.3 481.5,261.31 "/>
<polygon class="ArmTrim fill" points="479.54,242.82 398.88,280.82 400.9,288.3 481.5,261.31 "/>
<path class="NeckTrim fill" d="M178.48,13.95l18.96-5.3l1.01,12.94l-25.99,6.21C172.46,27.79,176.11,22.2,178.48,13.95"/>
<path class="st5" d="M178.48,13.95l18.96-5.3l1.01,12.94l-25.99,6.21C172.46,27.79,176.11,22.2,178.48,13.95z"/>
<path class="NeckTrim fill" d="M301.62,13.95l-20.67-5.3l-1.01,12.94l29.4,6.21C309.34,27.79,303.99,22.2,301.62,13.95"/>
<path class="st5" d="M301.62,13.95l-20.67-5.3l-1.01,12.94l29.4,6.21C309.34,27.79,303.99,22.2,301.62,13.95z"/>
<path class="st6" d="M75.5,62.11c0,0,22.43,31.09,22.25,135.02"/>
<path class="st6" d="M408.97,62.11c0,0-22.43,31.09-22.25,135.02"/>
<path class="st7" d="M246.79,643.72c-23.04,0-44.92-2.33-47.58-2.63c-24.82-1.12-61.42-29.97-62.97-31.2l-0.4-0.35
	c-4.35-4.2-19.61-11.91-28.2-15.79l-0.07-2.28l-0.52-10.33l5.06,2.28c2.43,1.09,23.76,10.82,31.12,17.7
	c10,7.9,39.08,28.01,56.62,28.69l0.4,0.03c0.56,0.06,56.55,6.23,83.58-0.77l0.79-0.14c0.23-0.03,24.48-2.9,47.74-21.61
	c2.48-2.48,21.83-21.42,38.4-24.31l5.45-0.95l0.61,11.13l-4.2,0.95c-11.56,2.01-27.51,16.14-32.69,21.41l-0.47,0.43
	c-24.51,19.83-49.59,23.66-53.27,24.13C275.36,642.85,260.86,643.72,246.79,643.72"/>
<path class="st8" d="M84.56,284.81c0,0-27.9-2.66-43.95-18.6c-16.04-15.94-38.14-18.03-38.14-18.03"/>
<path class="st8" d="M84.56,283.03c0,0-27.9-2.66-43.95-18.6C24.57,248.5,2.47,246.41,2.47,246.41"/>
<path class="st8" d="M398.94,282.32c0,0,27.9-2.66,43.95-18.6c16.04-15.94,38.14-18.03,38.14-18.03"/>
<path class="st9" d="M398.94,280.55c0,0,27.9-2.66,43.95-18.6c16.04-15.94,38.14-18.03,38.14-18.03"/>
<path class="st10" d="M89.28,95.02c0,0,124.22-32.47,305.43,0"/>
<path class="st8" d="M89.28,98.57c0,0,124.22-32.47,305.43,0"/>
<path class="st8" d="M89.28,100.35c0,0,124.22-32.47,305.43,0"/>
<path class="NeckTrim fill" d="M289.59,10.88c-37.07-9.43-66.95-9.03-105.27,1.33l4.87,11.98c14.41-5.38,31.83-6.54,49.35-6.55
	c16.58,0,33.25,0.88,47.57,5.27L289.59,10.88z"/>
<path class="st12" d="M289.59,10.88c-37.07-9.43-66.95-9.03-105.27,1.33l4.87,11.98c14.41-5.38,31.83-6.54,49.35-6.55
	c16.58,0,33.25,0.88,47.57,5.27L289.59,10.88z"/>
<path class="Colour2 fill" d="M298.13,258.17l89.03-44.97l0.17,2.29l0.41,5.41l-82.66,43.49l-9.27,183.9l18.57-161.71l69.69-35.51
	c-0.5,3.54-1.03,7.36-1.57,11.42c-0.03,0.22-0.06,0.44-0.09,0.66l-60.39,32.51l-38.04,338.72c-1.9,0.33-3.86,0.63-5.89,0.92
	l16.14-173.2L298.13,258.17z"/>
<path class="Colour2 fill" d="M105.92,325.53c0.01,0.12,0.02,0.25,0.04,0.37c0.13,1.32,0.26,2.65,0.38,3.98
	c0.01,0.09,0.02,0.19,0.03,0.28c0.54,5.69,1.05,11.42,1.51,17.13c0.02,0.22,0.03,0.45,0.05,0.67c0.09,1.18,0.19,2.35,0.28,3.52
	c0.03,0.41,0.06,0.83,0.09,1.24c0.07,0.98,0.15,1.95,0.22,2.92c0.04,0.51,0.07,1.02,0.11,1.53c0.06,0.89,0.13,1.77,0.19,2.65
	c0.04,0.55,0.07,1.09,0.11,1.64c0.06,0.83,0.11,1.67,0.16,2.5c0.04,0.59,0.07,1.18,0.11,1.77c0.05,0.78,0.1,1.56,0.14,2.34
	c0.04,0.62,0.07,1.23,0.11,1.85c0.04,0.75,0.08,1.5,0.12,2.25c0.03,0.63,0.07,1.25,0.1,1.87c0.04,0.73,0.07,1.46,0.11,2.18
	c0.03,0.63,0.06,1.27,0.09,1.9c0.03,0.71,0.06,1.41,0.09,2.12c0.03,0.64,0.05,1.27,0.08,1.9c0.03,0.69,0.05,1.39,0.08,2.08
	c0.02,0.63,0.04,1.26,0.07,1.89c0.02,0.69,0.04,1.37,0.06,2.05c0.02,0.62,0.04,1.24,0.05,1.85c0.02,0.68,0.03,1.35,0.05,2.02
	c0.01,0.62,0.03,1.24,0.04,1.85c0.01,0.65,0.02,1.3,0.03,1.95c0.01,0.61,0.02,1.23,0.02,1.84c0.01,0.65,0.01,1.29,0.02,1.93
	c0,0.59,0.01,1.19,0.01,1.77c0,0.65,0,1.29,0,1.94c0,0.57,0,1.14,0,1.71c0,0.64-0.01,1.27-0.02,1.91c-0.01,0.55-0.01,1.11-0.02,1.66
	c-0.01,0.65-0.02,1.28-0.04,1.92c-0.01,0.52-0.02,1.05-0.04,1.56c-0.02,0.67-0.04,1.34-0.06,2c-0.02,0.46-0.03,0.94-0.05,1.39
	c-0.03,0.73-0.06,1.44-0.09,2.16c-0.02,0.38-0.03,0.77-0.05,1.15c-0.06,1.09-0.12,2.16-0.18,3.21c-0.09,1.34-0.17,2.69-0.25,4.06
	c-0.02,0.33-0.04,0.65-0.06,0.98c-0.08,1.36-0.16,2.73-0.24,4.12c-0.01,0.14-0.02,0.28-0.02,0.42c-0.07,1.34-0.15,2.69-0.22,4.06
	c-0.01,0.22-0.02,0.44-0.04,0.66c-0.08,1.47-0.15,2.95-0.22,4.43c-0.01,0.16-0.02,0.33-0.02,0.49c-0.07,1.49-0.14,2.99-0.21,4.5
	c0,0.05,0,0.09-0.01,0.14c-0.07,1.61-0.15,3.22-0.22,4.84c0,0.08-0.01,0.16-0.01,0.24c-0.14,3.3-0.28,6.63-0.41,9.97l18.67,10.4
	l-9.27-166.48l-15.03-12.2c0,0.04,0.01,0.08,0.01,0.12c0.15,1.24,0.3,2.5,0.44,3.76c0.01,0.08,0.02,0.15,0.03,0.23
	c0.14,1.24,0.29,2.48,0.43,3.73c0.01,0.12,0.03,0.25,0.04,0.37c0.14,1.21,0.28,2.43,0.41,3.65c0.02,0.15,0.03,0.31,0.05,0.46
	c0.13,1.19,0.27,2.39,0.4,3.59c0.02,0.19,0.04,0.38,0.06,0.58c0.13,1.18,0.26,2.37,0.39,3.57c0.02,0.19,0.04,0.39,0.06,0.58
	c0.13,1.23,0.26,2.46,0.39,3.7c0.02,0.15,0.03,0.31,0.05,0.46c0.13,1.24,0.26,2.48,0.38,3.73c0.02,0.17,0.03,0.34,0.05,0.51
	C105.67,322.96,105.8,324.25,105.92,325.53z"/>
<path class="Colour2 fill" d="M186.65,448.29l-18.57-161.71l-71.34-36.82c0.13,0.9,0.26,1.81,0.39,2.74c0.02,0.14,0.04,0.28,0.06,0.41
	c0.12,0.84,0.24,1.7,0.36,2.57c0.02,0.15,0.04,0.31,0.06,0.46c0.13,0.91,0.25,1.83,0.38,2.76c0.02,0.12,0.03,0.23,0.05,0.35
	c0.12,0.88,0.24,1.78,0.36,2.68c0.02,0.16,0.04,0.31,0.06,0.47l61.97,33.45l38.09,339.14c1.9,0.3,3.85,0.58,5.87,0.84l-16.17-173.54
	l-3.91-203.92l-89.56-45.81l-0.57,3.93l-0.55,3.78l83.74,44.33L186.65,448.29z"/>
<path class="Colour2 fill" d="M162.61,499.75l-54.86-32.89c-0.87,24.51-1.38,49.72-1.67,70.79c0,0.05,0,0.09,0,0.14
	c-0.02,1.64-0.05,3.24-0.07,4.82c0,0.2,0,0.4-0.01,0.6c-0.02,1.48-0.04,2.94-0.05,4.37c0,0.24-0.01,0.49-0.01,0.73
	c-0.02,1.38-0.03,2.74-0.05,4.07c0,0.28-0.01,0.55-0.01,0.83c-0.01,1.28-0.03,2.54-0.04,3.76c0,0.1,0,0.19,0,0.28
	c27.77,7.85,62.24,14.07,62.24,14.07L162.61,499.75z"/>
<path class="Colour2 fill" d="M242,37.26L89.16,101.83l-0.43,0.53l0,0c0.81,3.77,1.59,7.84,2.33,12.24c0.01,0.07,0.02,0.14,0.03,0.2
	c0.49,2.9,0.96,5.95,1.41,9.14c0.01,0.04,0.01,0.07,0.02,0.11c0.22,1.55,0.43,3.14,0.64,4.76c0.02,0.15,0.04,0.29,0.06,0.44
	c0.41,3.25,0.79,6.63,1.15,10.16c0.02,0.15,0.03,0.3,0.05,0.45c0.17,1.71,0.34,3.46,0.49,5.24c0.02,0.23,0.04,0.46,0.06,0.68
	c0.31,3.62,0.6,7.38,0.84,11.29c0.02,0.25,0.03,0.5,0.05,0.75c0.12,1.9,0.23,3.83,0.33,5.8c0.01,0.29,0.03,0.58,0.04,0.87
	c0.2,4.04,0.36,8.23,0.49,12.56c0.01,0.32,0.02,0.64,0.03,0.96c0.06,2.12,0.1,4.27,0.14,6.46c0.01,0.32,0.01,0.65,0.01,0.97
	c0.03,2.26,0.06,4.55,0.07,6.89l144.22,70.31l144.77-70.33c0-0.02,0-0.04,0-0.06c0.1-20.1,1.06-37.39,2.53-52.17
	c0-0.01,0-0.02,0-0.03c1.1-11.07,2.48-20.74,4.01-29.13c0-0.02,0.01-0.05,0.01-0.07c0.25-1.35,0.49-2.66,0.75-3.95
	c0.02-0.08,0.03-0.16,0.05-0.24c0.25-1.29,0.51-2.55,0.77-3.78l-0.85-1.06L242,37.26z"/>
<path class="Colour2 fill" d="M314.37,571.34c0,0,33.29-6,60.79-13.66c-0.23-23.53-0.73-57.31-1.88-89.96l-53.43,32.03L314.37,571.34z"/>
<path class="Colour2 fill" d="M365.08,304.85l-9.27,166.48l17.24-9.6c-0.06-1.53-0.12-3.06-0.18-4.59c-0.02-0.39-0.03-0.77-0.05-1.15
	c-0.06-1.52-0.12-3.04-0.19-4.54c0-0.07-0.01-0.15-0.01-0.22c-0.06-1.46-0.13-2.9-0.19-4.34c-0.02-0.37-0.03-0.73-0.05-1.1
	c-0.07-1.51-0.14-3-0.21-4.49c0-0.02,0-0.03,0-0.05c-0.07-1.48-0.15-2.94-0.22-4.4c-0.02-0.33-0.04-0.66-0.05-0.99
	c-0.15-2.94-0.32-5.84-0.49-8.68c-0.02-0.32-0.04-0.64-0.06-0.96c-0.09-1.41-0.17-2.82-0.26-4.2c-0.07-1.05-0.13-2.11-0.18-3.19
	c-0.02-0.32-0.03-0.66-0.04-0.98c-0.04-0.76-0.07-1.52-0.1-2.3c-0.02-0.42-0.03-0.85-0.04-1.27c-0.02-0.7-0.05-1.4-0.07-2.11
	c-0.01-0.45-0.02-0.92-0.03-1.38c-0.02-0.69-0.03-1.38-0.04-2.08c-0.01-0.49-0.01-0.99-0.02-1.48c-0.01-0.68-0.02-1.37-0.02-2.06
	c0-0.51,0-1.03,0-1.55c0-0.69,0-1.37,0-2.07c0-0.53,0.01-1.06,0.01-1.6c0-0.69,0.01-1.39,0.02-2.09c0.01-0.54,0.01-1.09,0.02-1.64
	c0.01-0.7,0.02-1.41,0.03-2.12c0.01-0.55,0.02-1.11,0.04-1.67c0.02-0.71,0.03-1.43,0.05-2.15c0.01-0.57,0.03-1.14,0.05-1.71
	c0.02-0.72,0.04-1.43,0.07-2.16c0.02-0.58,0.04-1.16,0.06-1.73c0.03-0.73,0.05-1.46,0.08-2.2c0.02-0.58,0.05-1.17,0.07-1.76
	c0.03-0.73,0.06-1.47,0.09-2.21c0.03-0.59,0.05-1.18,0.08-1.77c0.04-0.76,0.07-1.52,0.11-2.28c0.03-0.58,0.06-1.15,0.09-1.73
	c0.04-0.77,0.08-1.55,0.13-2.33c0.03-0.58,0.07-1.16,0.1-1.74c0.05-0.78,0.09-1.56,0.14-2.35c0.04-0.59,0.07-1.18,0.11-1.78
	c0.05-0.78,0.1-1.56,0.15-2.35c0.04-0.59,0.08-1.18,0.12-1.77c0.05-0.79,0.11-1.58,0.16-2.37c0.04-0.6,0.08-1.19,0.13-1.79
	c0.06-0.79,0.12-1.59,0.17-2.38c0.04-0.59,0.09-1.18,0.13-1.77c0.06-0.82,0.13-1.64,0.19-2.47c0.04-0.56,0.09-1.11,0.13-1.67
	c0.07-0.85,0.14-1.71,0.21-2.56c0.04-0.54,0.09-1.08,0.13-1.62c0.07-0.87,0.15-1.74,0.22-2.61c0.05-0.52,0.09-1.04,0.13-1.55
	c0.08-0.89,0.16-1.78,0.24-2.67c0.05-0.51,0.09-1.02,0.14-1.52c0.08-0.89,0.16-1.77,0.24-2.66c0.05-0.51,0.09-1.02,0.14-1.53
	c0.08-0.9,0.17-1.79,0.26-2.69c0.05-0.49,0.09-0.99,0.14-1.48c0.09-0.91,0.18-1.82,0.27-2.73c0.05-0.47,0.09-0.95,0.14-1.42
	c0.09-0.92,0.19-1.83,0.28-2.74c0.05-0.47,0.09-0.94,0.14-1.41c0.1-0.99,0.21-1.98,0.31-2.96c0.04-0.36,0.08-0.73,0.11-1.09
	c0.12-1.15,0.25-2.3,0.37-3.45c0.02-0.2,0.04-0.4,0.06-0.6c0.13-1.2,0.26-2.4,0.39-3.6c0.02-0.16,0.04-0.32,0.05-0.48
	c0.45-4.05,0.91-8.04,1.37-11.94c0-0.01,0-0.02,0-0.04L365.08,304.85z"/>
<path class="NeckTrim fill" d="M177.49,16.34c0.6-0.22,65.9-22.11,125.29,0l-0.75-4.66c-58.46-21.76-120.45-1.24-123.79,0L177.49,16.34"
	/>
<path class="neckline" d="M177.49,16.34c0.6-0.22,65.9-22.11,125.29,0l-0.75-4.66c-58.46-21.76-120.45-1.24-123.79,0L177.49,16.34z"/>
<g>
	<g>
		<path class="Colour3 fill" d="M409.57,198.56l20.98,53.79c0,0,24.07-9.02,46.83-21.79c-0.46-2.6-0.95-5.39-1.46-8.3
			c-20.19,11.68-42.46,20.21-42.46,20.21L409.57,198.56z"/>
		<path class="Colour3 fill" d="M54.19,276c8.28,4,16.73,6.1,22.21,7.15l13.88-41.34l2.84-15.41c-1.12-9.24,2.85-40.65,1.78-54.24
			L54.19,276z"/>
		<path class="Colour3 fill" d="M73.65,198.56l-23.89,43.91c0,0-22.77-8.72-43.14-20.6c-0.51,2.91-1,5.7-1.46,8.31
			c22.96,12.97,47.51,22.17,47.51,22.17L73.65,198.56z"/>
		<path class="Colour3 fill" d="M387.51,169.78c-1.25,14.58,3.39,49.5,2.31,59.11l1.47,7.96l15.49,46.16c5.63-1.12,14-3.3,22.13-7.32
			L387.51,169.78z"/>
	</g>
</g>
<path class="BottomHem fill" d="M246.79,643.72c-23.04,0-44.92-2.33-47.58-2.63c-24.82-1.12-61.42-29.97-62.97-31.2l-0.4-0.35
	c-4.35-4.2-19.61-11.91-28.2-15.79l-0.07-2.28l-0.52-10.33l5.06,2.28c2.43,1.09,23.76,10.82,31.12,17.7
	c10,7.9,39.08,28.01,56.62,28.69l0.4,0.03c0.56,0.06,56.55,6.23,83.58-0.77l0.79-0.14c0.23-0.03,24.48-2.9,47.74-21.61
	c2.48-2.48,21.83-21.42,38.4-24.31l5.45-0.95l0.61,11.13l-4.2,0.95c-11.56,2.01-27.51,16.14-32.69,21.41l-0.47,0.43
	c-24.51,19.83-49.59,23.66-53.27,24.13C275.36,642.85,260.86,643.72,246.79,643.72z"/>
<g id="BBodyLogos"></g>
</svg>
