<?xml version="1.0" encoding="utf-8"?>
<!-- Generator: Adobe Illustrator 19.1.0, SVG Export Plug-In . SVG Version: 6.00 Build 0)  -->
<svg version="1.1" id="Layer_1" xmlns="http://www.w3.org/2000/svg" xmlns:xlink="http://www.w3.org/1999/xlink" x="0px" y="0px"
	 viewBox="0 0 483.01 645.44" style="enable-background:new 0 0 483.01 645.44;" xml:space="preserve">
<style type="text/css">
	<![CDATA[
	@font-face{font-family:'codaheavy';src:url('/fonts/coda-heavy-webfont.woff') format('woff')}
	text{font-family:Impact,codaheavy,sans-serif}
	.Number.fill{fill:#000}
	.NumberOutline.stroke{fill:none;stroke:#777;stroke-width:2.5}
	.Colour1.fill{fill:#0A1A34;}
	.Colour2.fill{fill:#323D56;}
	.Colour3.fill{fill:#144FA1;}
	.Colour4.fill{fill:#F5CD10;}
	.Colour5.fill{fill:#0A1A34;}
	.ArmTrim.fill{fill:#1751A0;}
	.NeckTrim.fill{fill:#1751A0;}
	.BottomHem.fill{fill:#1751A0;stroke:#101010;stroke-width:0.8861;stroke-miterlimit:10;}
	.st0{fill:url(#SVGID_1_);stroke:#000000;stroke-width:2;stroke-miterlimit:10;}
	.st1{fill:url(#SVGID_2_);stroke:#000000;stroke-width:2;stroke-miterlimit:10;}
	.st2{fill:url(#SVGID_3_);stroke:#000000;stroke-width:2;stroke-miterlimit:10;}
	.st3{fill:none;stroke:#0A0505;stroke-width:0.328;stroke-miterlimit:10;}
	.st4{fill:none;stroke:#000000;stroke-width:0.4411;}
	.st5{stroke:#221915;stroke-width:0.8861;stroke-miterlimit:10;}
	.st6{fill:#9C2321;stroke:#221915;stroke-width:0.934;stroke-miterlimit:10;}
	.st7{fill:none;stroke:#000000;stroke-width:2;stroke-linecap:round;stroke-linejoin:round;}
	.st8{fill:none;stroke:#221915;stroke-width:0.6559;stroke-miterlimit:10;}
	.st9{fill:#C0773C;stroke:#000000;stroke-width:2;stroke-miterlimit:10;}
	.st10{fill:none;stroke:#FFFFFF;stroke-width:0.216;stroke-dasharray:2.4,2.4,2.4,2.4;}
	.st11{fill:#101010;stroke:#FFFFFF;stroke-width:0.216;stroke-dasharray:2.4,2.4,2.4,2.4;}
	.st12{fill:none;stroke:#000000;stroke-width:0.328;}
	.st13{fill:none;stroke:#000000;stroke-width:0.216;stroke-dasharray:2.4,2.4,2.4,2.4;}
	.st14{fill:#FFFFFF;}
	.st15{fill:none;stroke:#221915;stroke-width:0.506;stroke-miterlimit:10;}
	.st16{fill:url(#SVGID_4_);}
	.st17{fill:url(#SVGID_5_);}
	.st18{fill:url(#SVGID_6_);}
	.st19{fill:url(#SVGID_7_);}
	.st20{fill:#1751A0;}
	.neckline{fill:none;stroke:#000000;stroke-width:0.6559;}
	]]>
</style>
<linearGradient id="SVGID_1_" gradientUnits="userSpaceOnUse" x1="75.0501" y1="326.4162" x2="407.9784" y2="326.4162">
	<stop class="Gradient1 stopColor" offset="0" style="stop-color:#323D56"/>
	<stop class="Gradient2 stopColor" offset="0.25" style="stop-color:#144FA1"/>
	<stop class="Gradient2 stopColor" offset="0.5" style="stop-color:#144FA1"/>
	<stop class="Gradient2 stopColor" offset="0.75" style="stop-color:#144FA1"/>
	<stop class="Gradient1 stopColor" offset="1" style="stop-color:#323D56"/>
</linearGradient>
<path class="Colour2 fill" d="M386.19,197.13c-0.17-95.12,18.6-129.22,21.79-134.32c-4.59-1.79-9.71-3.46-15.44-4.89
	c-33.07-8.23-82.65-28.8-92.19-36l-57.76-6.79h-3.7l-57.76,6.79c-9.54,7.2-59.12,27.77-92.19,36c-5.09,1.27-9.71,2.73-13.9,4.29
	c1.4,2.05,22.35,34.45,22.17,134.91l-3.98,27.41c0,0,21.14,131.65,16.9,197.47c-3.99,61.88-4.22,154.65-4.24,165.55
	c-0.92,1.01,0.82,1.97,0.18,2.82c0,0,12.02,1.62,29.63,16.07c14.54,11.92,35.55,31.25,104.47,31.25
	c68.91,0,89.93-19.33,104.46-31.25c17.62-14.46,32.59-16.24,32.16-16.07c-0.41-0.54-0.89-1.14-1.41-1.75h0.19
	c0,0,0-100.79-4.24-166.61c-4.24-65.83,16.9-197.47,16.9-197.47L386.19,197.13z"/>
<linearGradient id="SVGID_2_" gradientUnits="userSpaceOnUse" x1="386.1878" y1="174.8898" x2="481.2579" y2="174.8898">
	<stop class="Gradient1 stopColor" offset="0" style="stop-color:#323D56"/>
	<stop class="Gradient2 stopColor" offset="0.25" style="stop-color:#144FA1"/>
	<stop class="Gradient2 stopColor" offset="0.5" style="stop-color:#144FA1"/>
	<stop class="Gradient2 stopColor" offset="0.75" style="stop-color:#144FA1"/>
	<stop class="Gradient1 stopColor" offset="1" style="stop-color:#323D56"/>
</linearGradient>
<path class="Colour1 fill" d="M467.61,169c-1.06-12.34-9.61-58.62-27.62-86.39c0,0-9.54-11.53-32.03-20.11c0.02,0.2,0.03,0.31,0.03,0.31
	c-3.19,5.1-21.96,39.2-21.79,134.32l2.06,27.41c0,0,0.12,0.98,0.34,2.76c0.28-1.78,0.43-2.76,0.43-2.76l11.56,62.74
	c0,0,27.43-2.62,43.19-18.28c15.77-15.66,37.48-17.72,37.48-17.72S468.67,181.34,467.61,169z"/>
<linearGradient id="SVGID_3_" gradientUnits="userSpaceOnUse" x1="1.7708" y1="174.8649" x2="97.2259" y2="174.8649">
	<stop class="Gradient1 stopColor" offset="0" style="stop-color:#323D56"/>
	<stop class="Gradient2 stopColor" offset="0.25" style="stop-color:#144FA1"/>
	<stop class="Gradient2 stopColor" offset="0.5" style="stop-color:#144FA1"/>
	<stop class="Gradient2 stopColor" offset="0.75" style="stop-color:#144FA1"/>
	<stop class="Gradient1 stopColor" offset="1" style="stop-color:#323D56"/>
</linearGradient>
<path class="Colour1 fill" d="M82.45,287.28l10.98-59.55c-0.11-2.05-0.18-3.19-0.18-3.19l3.98-27.41C97.39,99.34,77.55,66.05,75.21,62.45
	c-22.59,8.59-32.16,20.16-32.16,20.16C25.03,110.38,16.48,156.66,15.42,169c-1.06,12.34-13.65,82.28-13.65,82.28
	s21.72,2.06,37.49,17.72C55.02,284.66,82.45,287.28,82.45,287.28z"/>
<path class="st3" d="M467.36,169c-1.06-12.34-9.61-58.62-27.62-86.39c0,0-13.61-16.46-46.67-24.69c-33.07-8.23-82.65-28.8-92.19-36
	l-57.76-6.79h-3.7l-57.76,6.79c-9.54,7.2-59.12,27.77-92.19,36C56.4,66.15,42.8,82.61,42.8,82.61
	C24.78,110.38,16.24,156.66,15.17,169c-1.06,12.34-13.65,82.28-13.65,82.28s21.72,2.06,37.49,17.72
	c15.76,15.66,43.19,18.28,43.19,18.28l11.56-62.74c0,0,21.14,131.65,16.9,197.47c-3.99,61.88-4.22,154.65-4.24,165.55
	c-0.92,1.01,0.82,1.97,0.18,2.82c0,0,12.02,1.62,29.63,16.07c14.54,11.92,35.55,31.25,104.47,31.25
	c68.91,0,89.93-19.33,104.46-31.25c17.62-14.46,32.59-16.24,32.16-16.07c-0.41-0.54-0.89-1.14-1.41-1.75h0.19
	c0,0,0-100.79-4.24-166.61c-4.24-65.83,16.9-197.47,16.9-197.47l11.56,62.74c0,0,27.43-2.62,43.19-18.28
	c15.76-15.66,37.48-17.72,37.48-17.72S468.43,181.34,467.36,169z"/>
<path class="st4" d="M75.5,62.11c0,0,22.43,31.09,22.25,135.02"/>
<polygon class="st5" points="3.47,242.86 84.01,280.8 81.99,288.26 1.5,261.32 "/>
<polygon class="ArmTrim fill" points="3.47,242.86 84.01,280.8 81.99,288.26 1.5,261.32 "/>
<polygon class="st6" points="479.54,242.82 398.88,280.82 400.9,288.3 481.5,261.31 "/>
<polygon class="ArmTrim fill" points="479.54,242.82 398.88,280.82 400.9,288.3 481.5,261.31 "/>
<g>
	<polygon class="st7" points="1.5,262.25 81.99,289.2 84.01,281.74 3.47,243.79 	"/>
	<polygon class="st7" points="398.88,281.75 400.9,289.23 481.5,262.25 479.54,243.76 	"/>
</g>
<path class="NeckTrim fill" d="M178.48,13.95l18.96-5.3l1.01,12.94l-25.99,6.21C172.46,27.79,176.11,22.2,178.48,13.95"/>
<path class="st8" d="M178.48,13.95l18.96-5.3l1.01,12.94l-25.99,6.21C172.46,27.79,176.11,22.2,178.48,13.95z"/>
<path class="NeckTrim fill" d="M301.62,13.95l-20.67-5.3l-1.01,12.94l29.4,6.21C309.34,27.79,303.99,22.2,301.62,13.95"/>
<path class="st8" d="M301.62,13.95l-20.67-5.3l-1.01,12.94l29.4,6.21C309.34,27.79,303.99,22.2,301.62,13.95z"/>
<path class="st4" d="M408.97,62.11c0,0-22.43,31.09-22.25,135.02"/>
<path class="st9" d="M246.79,643.72c-23.04,0-44.92-2.33-47.58-2.63c-24.82-1.12-61.42-29.97-62.97-31.2l-0.4-0.35
	c-4.35-4.2-19.61-11.91-28.2-15.79l-0.07-2.28l-0.52-10.33l5.06,2.28c2.43,1.09,23.76,10.82,31.12,17.7
	c10,7.9,39.08,28.01,56.62,28.69l0.4,0.03c0.56,0.06,56.55,6.23,83.58-0.77l0.79-0.14c0.23-0.03,24.48-2.9,47.74-21.61
	c2.48-2.48,21.83-21.42,38.4-24.31l5.45-0.95l0.61,11.13l-4.2,0.95c-11.56,2.01-27.51,16.14-32.69,21.41l-0.47,0.43
	c-24.51,19.83-49.59,23.66-53.27,24.13C275.36,642.85,260.86,643.72,246.79,643.72"/>
<path class="st10" d="M84.56,284.81c0,0-27.9-2.66-43.95-18.6c-16.04-15.94-38.14-18.03-38.14-18.03"/>
<path class="st10" d="M84.56,283.03c0,0-27.9-2.66-43.95-18.6C24.57,248.5,2.47,246.41,2.47,246.41"/>
<path class="st10" d="M398.94,282.32c0,0,27.9-2.66,43.95-18.6c16.04-15.94,38.14-18.03,38.14-18.03"/>
<path class="st11" d="M398.94,280.55c0,0,27.9-2.66,43.95-18.6c16.04-15.94,38.14-18.03,38.14-18.03"/>
<path class="st12" d="M89.28,95.02c0,0,124.22-32.47,305.43,0"/>
<path class="st10" d="M89.28,98.57c0,0,124.22-32.47,305.43,0"/>
<path class="st13" d="M89.28,100.35c0,0,124.22-32.47,305.43,0"/>
<path class="NeckTrim fill" d="M289.59,10.88c-37.07-9.43-66.95-9.03-105.27,1.33l4.87,11.98c14.41-5.38,31.83-6.54,49.35-6.55
	c16.58,0,33.25,0.88,47.57,5.27L289.59,10.88z"/>
<path class="st15" d="M289.59,10.88c-37.07-9.43-66.95-9.03-105.27,1.33l4.87,11.98c14.41-5.38,31.83-6.54,49.35-6.55
	c16.58,0,33.25,0.88,47.57,5.27L289.59,10.88z"/>
<path class="NeckTrim fill" d="M177.49,16.34l0.75-4.66c3.34-1.24,65.32-21.76,123.79,0l0.75,4.66C243.39-5.77,178.09,16.11,177.49,16.34
	"/>
<path class="neckline" d="M177.49,15.95c0.6-0.22,65.9-22.11,125.29,0l-0.75-4.66c-58.46-21.76-120.45-1.24-123.79,0L177.49,15.95z"/>
<path class="BottomHem fill" d="M246.79,643.72c-23.04,0-44.92-2.33-47.58-2.63c-24.82-1.12-61.42-29.97-62.97-31.2l-0.4-0.35
	c-4.35-4.2-19.61-11.91-28.2-15.79l-0.07-2.28l-0.52-10.33l5.06,2.28c2.43,1.09,23.76,10.82,31.12,17.7
	c10,7.9,39.08,28.01,56.62,28.69l0.4,0.03c0.56,0.06,56.55,6.23,83.58-0.77l0.79-0.14c0.23-0.03,24.48-2.9,47.74-21.61
	c2.48-2.48,21.83-21.42,38.4-24.31l5.45-0.95l0.61,11.13l-4.2,0.95c-11.56,2.01-27.51,16.14-32.69,21.41l-0.47,0.43
	c-24.51,19.83-49.59,23.66-53.27,24.13C275.36,642.85,260.86,643.72,246.79,643.72z"/>
<linearGradient id="SVGID_4_" gradientUnits="userSpaceOnUse" x1="93.6326" y1="227.0883" x2="388.9068" y2="227.0883">
	<stop class="Gradient3 stopColor" offset="0" style="stop-color:#FFFFFF;stop-opacity:0"/>
	<stop class="Gradient3 stopColor" offset="0.5" style="stop-color:#FFFFFF"/>
	<stop class="Gradient3 stopColor" offset="1" style="stop-color:#FFFFFF;stop-opacity:0"/>
</linearGradient>
<path class="Colour3 fill" d="M388.28,226.04l0.63-18.24H93.89l-0.26,16.56l0.01,2.81l0.38-2.11c0,0,1.28,8.11,3.14,21.32h288.13
	c1.49-10.59,2.61-17.9,2.99-20.38C388.28,226.01,388.28,226.02,388.28,226.04z"/>
<linearGradient id="SVGID_5_" gradientUnits="userSpaceOnUse" x1="97.1628" y1="258.8983" x2="385.293" y2="258.8983">
	<stop class="Gradient4 stopColor" offset="0" style="stop-color:#F5CD10;stop-opacity:0"/>
	<stop class="Gradient4 stopColor" offset="0.5" style="stop-color:#F5CD10"/>
	<stop class="Gradient4 stopColor" offset="1" style="stop-color:#F5CD10;stop-opacity:0"/>
</linearGradient>
<path class="Colour4 fill" d="M97.16,246.38c0.99,7.05,2.15,15.54,3.37,25.05h281.38c1.22-9.5,2.38-18,3.37-25.05H97.16z"/>
<linearGradient id="SVGID_6_" gradientUnits="userSpaceOnUse" x1="100.5356" y1="283.9441" x2="381.9203" y2="283.9441">
	<stop class="Gradient5 stopColor" offset="0" style="stop-color:#0A1A34;stop-opacity:0"/>
	<stop class="Gradient5 stopColor" offset="0.5" style="stop-color:#0A1A34"/>
	<stop class="Gradient5 stopColor" offset="1" style="stop-color:#0A1A34;stop-opacity:0"/>
</linearGradient>
<path class="Colour5 fill" d="M100.54,271.42c1,7.76,2.04,16.19,3.06,25.05h275.27c1.02-8.85,2.06-17.28,3.06-25.05H100.54z"/>
<linearGradient id="SVGID_7_" gradientUnits="userSpaceOnUse" x1="103.5951" y1="315.7541" x2="378.8615" y2="315.7541">
	<stop class="Gradient3 stopColor" offset="0" style="stop-color:#FFFFFF;stop-opacity:0"/>
	<stop class="Gradient3 stopColor" offset="0.5" style="stop-color:#FFFFFF"/>
	<stop class="Gradient3 stopColor" offset="1" style="stop-color:#FFFFFF;stop-opacity:0"/>
</linearGradient>
<path class="Colour3 fill" d="M103.6,296.47c1.42,12.27,2.8,25.35,4.01,38.57h267.25c1.2-13.23,2.59-26.3,4.01-38.57H103.6z"/>
<path class="Colour1 fill" d="M468.09,169.35c0,0-6.96-59.19-27.7-86.61c0,0-12.65-14.94-36.24-21.65c0,0-70.65-18.8-94.74-33.62
	c0,0-79.29-18.71-136.3,0c-24.09,14.82-94.74,33.62-94.74,33.62C54.8,67.8,42.14,82.74,42.14,82.74
	c-20.74,27.42-27.7,86.61-27.7,86.61L2.3,243.3l62.67,27.41C90.08,128.17,191.83,66.53,191.83,66.53h98.88
	c0,0,101.75,61.64,126.86,204.17l62.67-27.41L468.09,169.35z"/>
<g id="BBodyLogos"></g>
</svg>
