<?xml version="1.0" encoding="utf-8"?>
<!-- Generator: Adobe Illustrator 19.1.0, SVG Export Plug-In . SVG Version: 6.00 Build 0)  -->
<svg version="1.1" id="Layer_1" xmlns="http://www.w3.org/2000/svg" xmlns:xlink="http://www.w3.org/1999/xlink" x="0px" y="0px"
	 viewBox="0 0 483.01 645.44" style="enable-background:new 0 0 483.01 645.44;" xml:space="preserve">
<style type="text/css">
	<![CDATA[
	@font-face{font-family:'codaheavy';src:url('/fonts/coda-heavy-webfont.woff') format('woff')}
	text{font-family:Impact,codaheavy,sans-serif}
	.Colour1.fill{fill:#FFFFFF;}
	.Colour2.fill{fill:#000000;}
	.Insert.fill{fill:#FFFFFF;}
	.NeckTrim.fill{fill:#FFFFFF;}
	.ArmTrim.fill{fill:#060606;}
	.BottomHem.fill{fill:#060606;stroke:#101010;stroke-width:0.8861;stroke-miterlimit:10;}
	.st0{fill:#FFFFFF;stroke:#000000;stroke-width:3;stroke-miterlimit:10;}
	.st1{fill:none;stroke:#000000;stroke-width:3;stroke-linecap:round;stroke-linejoin:round;}
	.st2{fill:none;stroke:#0A0505;stroke-width:0.6559;stroke-miterlimit:10;}
	.st3{fill:none;stroke:#FFFFFF;stroke-width:0.216;stroke-dasharray:2.4,2.4,2.4,2.4;}
	.st4{fill:#9C2321;stroke:#000000;stroke-width:2;stroke-miterlimit:10;}
	.st5{fill:none;stroke:#221915;stroke-width:0.216;stroke-linecap:round;stroke-linejoin:round;}
	.st6{fill:none;stroke:#FFFFFF;stroke-width:0.328;}
	.st7{fill:none;stroke:#060606;stroke-width:0.216;stroke-dasharray:2.4,2.4,2.4,2.4;}
	.st8{fill:none;stroke:#101010;stroke-width:0.216;stroke-dasharray:2.4,2.4,2.4,2.4;}
	.st9{fill:#FFFFFF;}
	.st10{fill:none;stroke:#221915;stroke-width:0.233;stroke-miterlimit:10;}
	.st11{fill:none;stroke:#221915;stroke-width:0.36;stroke-miterlimit:10;}
	.st12{fill:#222457;}
	.st13{fill:none;stroke:#0A0505;stroke-width:0.233;stroke-miterlimit:10;}
	.st14{fill:#101010;}
	.st15{fill:#9E802E;}
	.st16{fill:#FFFFFF;stroke:#0A0505;stroke-width:0.233;stroke-miterlimit:10;}
	.st17{fill:none;stroke:#0A0505;stroke-width:0.2801;}
	.st18{fill:none;stroke:#000000;stroke-width:0.4411;}
	.st19{fill:#FFFFFF;stroke:#000000;stroke-width:2;stroke-miterlimit:10;}
	.st20{fill:none;stroke:#060606;stroke-width:3;stroke-linecap:round;stroke-linejoin:round;}
	.white{fill:#ffffff;}
	]]>
</style>
<path class="Colour1 fill" d="M467.95,170.71c-1.06-12.37-9.61-58.76-27.62-86.6c0,0-13.6-16.49-46.65-24.74
	c-33.06-8.25-82.62-28.87-92.15-36.08l-57.74-7h-3.7l-57.74,7c-9.53,7.22-59.09,27.83-92.15,36.08
	c-33.06,8.25-46.66,24.74-46.66,24.74c-18.01,27.83-26.55,74.23-27.62,86.6C14.89,183.08,2.3,253.18,2.3,253.18
	s21.71,2.06,37.47,17.76c15.76,15.7,43.18,18.32,43.18,18.32l11.55-62.89c0,0,21.13,131.96,16.9,197.94
	c-4.24,65.98-4.24,167-4.24,167H240.1h3.7h132.94c0,0,0-101.03-4.24-167c-4.23-65.98,16.9-197.94,16.9-197.94l11.55,62.89
	c0,0,27.42-2.62,43.18-18.32c15.76-15.7,37.47-17.76,37.47-17.76S469.01,183.08,467.95,170.71"/>
<path class="st0" d="M412.42,65.26c0,0-22.42,31.16-22.24,135.34l-0.94,26.74"/>
<path class="st0" d="M94.11,225.68l0.39-25.08c0.17-96.04-18.87-130.02-21.85-134.75"/>
<path class="Colour1 fill" d="M82.95,289.26l11.55-62.89c0,0,6.21-103.15-20.72-158.58l-1.58-2.48c-20.06,8.41-28.64,18.8-28.64,18.8
	c-18.01,27.83-26.55,74.23-27.62,86.6C14.89,183.08,2.3,253.18,2.3,253.18s21.71,2.06,37.47,17.76
	C55.53,286.63,82.95,289.26,82.95,289.26z"/>
<path class="Colour1 fill" d="M401.42,289.26l-11.55-62.89c0,0-6.21-103.15,20.72-158.58l1.58-2.48c20.06,8.41,28.64,18.8,28.64,18.8
	c18.01,27.83,26.55,74.23,27.62,86.6c1.06,12.37,13.64,82.47,13.64,82.47s-21.71,2.06-37.47,17.76
	C428.83,286.63,401.42,289.26,401.42,289.26z"/>
<g>
	<path class="st1" d="M12.46,185.98c0.17-1.06,0.33-2.08,0.48-3.07"/>
	<path class="st1" d="M8.29,211.19c0.41-2.4,0.82-4.81,1.22-7.18"/>
	<path class="st1" d="M9.8,202.24c0.2-1.18,0.39-2.35,0.58-3.5"/>
	<path class="st1" d="M6.76,220.13c0.41-2.35,0.82-4.74,1.23-7.14"/>
	<path class="st1" d="M20.44,139.34c4.49-18.04,11.63-39.57,21.76-55.23c0,0,0.03-0.04,0.08-0.09"/>
	<path class="st1" d="M42.28,84.01c0.01-0.01,0.02-0.02,0.03-0.03"/>
	<path class="st1" d="M14.36,172.81c0.1-0.82,0.17-1.53,0.22-2.11c0.13-1.55,0.38-3.62,0.75-6.13"/>
	<path class="st1" d="M17.83,150.74c0.23-1.09,0.47-2.21,0.72-3.35"/>
	<path class="st1" d="M19.56,142.98c0.28-1.2,0.57-2.41,0.88-3.65"/>
	<path class="st1" d="M42.42,83.86c-0.04,0.05-0.08,0.09-0.1,0.12"/>
	<path class="st1" d="M4.98,230.34c0.38-2.16,0.77-4.41,1.17-6.72"/>
	<path class="st1" d="M4.98,230.34c-2.27,12.97-4.04,22.83-4.04,22.83"/>
	<path class="st1" d="M17.83,150.74c-1.11,5.34-1.94,10.07-2.5,13.83"/>
	<path class="st1" d="M19.56,142.98c-0.35,1.5-0.69,2.97-1.01,4.41"/>
	<path class="st1" d="M14.36,172.81c-0.13,1.06-0.29,2.3-0.49,3.71"/>
	<path class="st1" d="M12.46,185.98c-0.14,0.92-0.29,1.87-0.45,2.83"/>
	<path class="st1" d="M13.31,180.44c-0.12,0.79-0.24,1.62-0.37,2.47"/>
	<path class="st1" d="M13.31,180.44c0.21-1.41,0.4-2.72,0.57-3.92"/>
	<path class="st1" d="M70.84,65.31c5.22-2.19,11.19-4.24,18.01-5.94c33.06-8.25,82.62-28.87,92.15-36.08l57.74-7h3.7l57.74,7
		c9.53,7.22,59.09,27.83,92.15,36.08c6.98,1.74,13.08,3.85,18.38,6.1"/>
	<line class="st1" x1="81.59" y1="289.26" x2="93.14" y2="226.37"/>
	<path class="st1" d="M400.05,289.21c3.58-0.42,28.13-3.74,42.72-18.27c15.76-15.7,37.47-17.76,37.47-17.76s-12.58-70.1-13.64-82.47
		c-1.06-12.37-9.61-58.76-27.62-86.6c0,0-8.47-10.26-28.27-18.65"/>
	<line class="st1" x1="70.84" y1="65.31" x2="70.84" y2="65.31"/>
	<path class="st1" d="M400.05,289.21c-0.29,0.03-0.46,0.05-0.46,0.05l-11.55-62.89c0,0-21.13,131.96-16.9,197.94
		c4.24,65.98,4.24,167,4.24,167H242.44h-3.7H105.8c0,0,0-101.03,4.24-167c4.23-65.98-16.9-197.94-16.9-197.94"/>
	<path class="st1" d="M42.42,83.86c0.01-0.01,0.02-0.03,0.04-0.04"/>
	<path class="st1" d="M42.45,83.82c1.51-1.7,10.26-10.91,28.39-18.51"/>
	<path class="st1" d="M0.94,253.18L0.94,253.18c0,0,21.71,2.06,37.47,17.76c15.76,15.7,43.18,18.32,43.18,18.32v0"/>
	<path class="st1" d="M13.88,176.52c-0.17,1.2-0.36,2.51-0.57,3.92"/>
	<path class="st1" d="M7.98,212.99c-0.41,2.4-0.82,4.79-1.23,7.14"/>
	<path class="st1" d="M12.93,182.91c-0.15,0.99-0.31,2.01-0.48,3.07"/>
	<path class="st1" d="M10.39,198.73c-0.19,1.15-0.39,2.32-0.58,3.5"/>
	<path class="st1" d="M9.51,204.01c-0.4,2.37-0.81,4.78-1.22,7.18"/>
	<path class="st1" d="M42.31,83.98c-0.01,0.01-0.02,0.02-0.03,0.03"/>
	<path class="st1" d="M42.45,83.82c-0.01,0.01-0.02,0.03-0.04,0.04"/>
	<path class="st1" d="M4.98,230.34c-2.27,12.97-4.04,22.83-4.04,22.83h0"/>
	<path class="st1" d="M20.44,139.34c4.49-18.04,11.63-39.57,21.76-55.23c0,0,0.03-0.04,0.08-0.09"/>
	<path class="st1" d="M20.44,139.34c-0.31,1.24-0.6,2.45-0.88,3.65"/>
	<path class="st1" d="M18.55,147.39c-0.25,1.14-0.49,2.26-0.72,3.35"/>
	<path class="st1" d="M70.84,65.31l1.58,2.48c26.93,55.43,20.72,158.58,20.72,158.58"/>
	<path class="st1" d="M0.94,253.18c0,0,21.71,2.06,37.47,17.76c15.76,15.7,43.17,18.32,43.18,18.32"/>
	<path class="st1" d="M4.98,230.34c0.38-2.16,0.77-4.41,1.17-6.72"/>
	<path class="st1" d="M13.88,176.52c0.2-1.4,0.36-2.65,0.49-3.71"/>
	<path class="st1" d="M12.93,182.91c0.13-0.85,0.26-1.67,0.37-2.47"/>
	<path class="st1" d="M14.36,172.81c0.1-0.82,0.17-1.53,0.22-2.11c0.13-1.55,0.38-3.62,0.75-6.13"/>
	<polyline class="st1" points="70.84,65.31 70.84,65.31 70.84,65.31 	"/>
	<path class="st1" d="M42.31,83.98c0.03-0.03,0.06-0.07,0.1-0.12"/>
	<path class="st1" d="M15.34,164.57c0.56-3.76,1.38-8.49,2.5-13.83"/>
	<path class="st1" d="M18.55,147.39c0.32-1.44,0.65-2.91,1.01-4.41"/>
	<path class="st1" d="M42.45,83.82c1.53-1.72,10.28-10.92,28.39-18.51"/>
	<polyline class="st1" points="81.59,289.26 81.59,289.26 93.14,226.37 	"/>
	<path class="st1" d="M12.01,188.81c0.15-0.97,0.3-1.91,0.45-2.83"/>
	<path class="st1" d="M7.98,212.99c0.1-0.6,0.21-1.2,0.31-1.8"/>
	<path class="st1" d="M9.51,204.01c0.1-0.59,0.2-1.18,0.3-1.77"/>
	<path class="st1" d="M6.15,223.63c0.2-1.15,0.4-2.32,0.6-3.49"/>
	<path class="st1" d="M10.39,198.73c0.58-3.46,1.12-6.81,1.62-9.92"/>
	<path class="st1" d="M400.05,289.21l0.01,0.05c0,0,27.41-2.62,43.18-18.32c15.76-15.7,37.47-17.76,37.47-17.76
		s-12.58-70.1-13.64-82.47c-1.06-12.37-9.61-58.76-27.61-86.6c0,0-8.58-10.39-28.64-18.8l-0.1,0.15"/>
	<path class="st1" d="M410.71,65.46l-1.48,2.33c-26.93,55.43-20.72,158.58-20.72,158.58l11.55,62.84"/>
</g>
<path class="Colour1 fill" d="M136.73,609.18c14.53,11.95,35.54,31.32,104.42,31.32c68.89,0,89.89-19.37,104.42-31.32
	c11.78-9.69,22.37-13.7,27.97-15.24c1.94-0.53,2.58-2.93,1.2-4.39c-2.21-2.33-5.18-4.93-9.09-7.4c-7-4.44-10.54-8.63-37.84-11.19
	c-5.98-0.56-13.12-1.04-21.66-1.43c-15.54-0.71-38.27-0.88-64.99-0.88c-26.73,0-49.45,0.18-65,0.88
	c-8.54,0.39-15.68,0.86-21.66,1.43c-27.3,2.55-30.84,6.75-37.84,11.19c-3.92,2.48-6.9,5.09-9.11,7.42
	c-1.38,1.46-0.74,3.87,1.21,4.39C114.3,595.46,124.81,599.37,136.73,609.18"/>
<path class="st2" d="M136.73,609.18c14.53,11.95,35.54,31.32,104.42,31.32c68.89,0,89.89-19.37,104.42-31.32
	c11.46-9.43,21.79-13.48,27.5-15.11c2.15-0.61,2.89-3.27,1.33-4.87c-2.17-2.24-5.04-4.7-8.76-7.06c-7-4.44-10.54-8.63-37.84-11.19
	c-5.98-0.56-13.12-1.04-21.66-1.43c-15.54-0.71-38.27-0.88-64.99-0.88c-26.73,0-49.45,0.18-65,0.88
	c-8.54,0.39-15.68,0.86-21.66,1.43c-27.3,2.55-30.84,6.75-37.84,11.19c-3.73,2.36-6.6,4.83-8.78,7.07c-1.55,1.6-0.82,4.27,1.33,4.87
	C114.87,595.68,125.13,599.64,136.73,609.18z"/>
<path class="st3" d="M377.71,587.83c-2.2-2.95-5.99-7.09-12.07-10.92c-7.01-4.44-10.54-8.63-37.84-11.19
	c-5.98-0.56-13.12-1.04-21.67-1.43c-15.54-0.71-38.28-0.89-64.99-0.89c-26.73,0-49.45,0.18-65,0.89
	c-8.54,0.38-15.68,0.86-21.66,1.43c-27.3,2.56-30.84,6.75-37.85,11.19c-6.07,3.84-9.87,7.98-12.07,10.92"/>
<path class="st3" d="M377.71,584.34c-2.2-2.95-5.99-7.09-12.07-10.92c-7.01-4.44-10.54-8.63-37.84-11.19
	c-5.98-0.56-13.12-1.04-21.67-1.43c-15.54-0.71-38.28-0.89-64.99-0.89c-26.73,0-49.45,0.18-65,0.89
	c-8.54,0.38-15.68,0.86-21.66,1.43c-27.3,2.56-30.84,6.75-37.85,11.19c-6.07,3.84-9.87,7.98-12.07,10.92"/>
<path class="BottomHem fill" d="M246.31,643.72c-22.9,0-44.65-2.3-47.29-2.59c-24.67-1.1-61.05-29.53-62.59-30.74l-0.4-0.35
	c-4.32-4.14-19.49-11.73-28.03-15.55l-1.52-2.25l0.94-10.18l5.03,2.25c2.42,1.08,23.61,10.66,30.93,17.44
	c9.94,7.78,38.84,27.59,56.28,28.27l0.39,0.03c0.56,0.06,56.21,6.14,83.07-0.76l0.78-0.14c0.23-0.03,24.34-2.86,47.45-21.29
	c2.47-2.45,21.7-21.1,38.17-23.95l5.41-0.94l1.85,10.97l-5.42,0.93c-11.5,1.98-27.35,15.9-32.49,21.09l-0.47,0.42
	c-24.35,19.53-49.29,23.31-52.95,23.77C274.7,642.86,260.29,643.72,246.31,643.72 M375.64,579.69l-10.34-9.28
	c-10.34-9.28-53.76-10.82-53.76-10.82H170.75c0,0-43.43,1.55-53.76,10.82l-10.34,9.28l-1.38,13.38c0,0,16.37-15.96,22.57-16.99
	c3.08-0.51,14.06-3.72,24.34-4.75c10.43-1.04,20.12-1.95,20.12-1.95h137.68c0,0,9.7,0.91,20.12,1.95
	c10.28,1.03,21.26,4.23,24.33,4.75c6.21,1.03,22.58,16.99,22.58,16.99L375.64,579.69z"/>
<polygon class="st4" points="4.03,242.89 83.02,279.29 81.01,286.79 2.06,261.45 "/>
<path class="st5" d="M321.74,62.03"/>
<path class="st5" d="M317.62,58.05"/>
<path class="st5" d="M309.56,62.32"/>
<line class="st6" x1="186.31" y1="57.37" x2="82.36" y2="95.22"/>
<line class="st3" x1="180.93" y1="56.67" x2="82.36" y2="91.73"/>
<line class="st3" x1="181.92" y1="57.95" x2="82.36" y2="93.76"/>
<line class="st6" x1="298.11" y1="57.37" x2="402.06" y2="95.22"/>
<line class="st3" x1="303.49" y1="56.67" x2="402.06" y2="91.73"/>
<line class="st3" x1="303.49" y1="58.42" x2="402.06" y2="93.47"/>
<path class="st7" d="M312.96,567.73l9.73-185.56c0,0,4.05-25.16,13.87-47.33c16.57-40.34,49.66-120.86,55.16-134.26"/>
<path class="st7" d="M314.71,567.73l9.73-185.56c0,0,4.05-25.16,13.87-47.33c16.57-40.34,49.66-120.86,55.16-134.26"/>
<path class="st7" d="M171.53,567.73l-9.73-185.56c0,0-4.05-25.16-13.87-47.33c-16.57-40.34-49.66-120.86-55.16-134.26"/>
<path class="st7" d="M169.78,567.73l-9.73-185.56c0,0-4.05-25.16-13.87-47.33c-16.57-40.34-49.66-120.86-55.16-134.26"/>
<path class="st8" d="M75.53,65.26c0,0,22.42,31.16,22.24,135.34"/>
<path class="st8" d="M408.83,65.26c0,0-22.42,31.16-22.24,135.34"/>
<path class="st5" d="M278.35,56.76"/>
<path class="st5" d="M270.27,61.05"/>
<path class="st9" d="M181.15,38.05c20.48-22.33,96.57-26.13,120.94-1.7l-6.27-13.38c-21.91-7.01-37.53-11.63-53.15-11.66
	c-15.62-0.03-31.23,4.52-53.15,11.53L181.15,38.05z"/>
<path class="st10" d="M181.15,38.05c20.48-22.33,96.57-26.13,120.94-1.7l-6.27-13.38c-21.91-7.01-37.53-11.63-53.15-11.66
	c-15.62-0.03-31.23,4.52-53.15,11.53L181.15,38.05z"/>
<path class="white" d="M192.54,21.39c10.93-3.81,27.89-8.29,48.97-8.29c21.07,0,38.02,4.48,48.95,8.29c0.37,7.1-0.26,17.42-6.41,26.59
	c-3.21,4.78-5.79,7.47-12.6,12.68c-8.34,6.38-17.75,14.74-20.48,22.2c-6.3,0-12.6,0-18.91,0c-2.9-7.21-7.2-11.02-10.03-13.69
	c-3.75-3.53-4.84-4.11-12.02-10.09c-4.66-3.88-7.08-5.92-9.45-9.51c-2.39-3.61-3.38-6.72-4.73-11.1
	C194.58,34.46,193.15,28.66,192.54,21.39z"/>
<path class="st5" d="M266.24,57.16"/>
<path class="st5" d="M258.39,61.33"/>
<path class="NeckTrim fill" d="M285.32,7.64c-31.34-8-56.6-7.65-89,1.13l4.12,10.16c12.18-4.56,26.9-5.55,41.72-5.55
	c14.02,0,28.11,0.75,40.22,4.47L285.32,7.64z"/>
<path class="st11" d="M285.32,7.64c-31.34-8-56.6-7.65-89,1.13l4.12,10.16c12.18-4.56,26.9-5.55,41.72-5.55
	c14.02,0,28.11,0.75,40.22,4.47L285.32,7.64z"/>
<path class="NeckTrim fill" d="M191.39,10.24l16.03-4.49l2.56,10.97l-19.34,5.27C190.64,21.98,189.38,17.23,191.39,10.24"/>
<path class="st11" d="M191.39,10.24l16.03-4.49l2.56,10.97l-19.34,5.27C190.64,21.98,189.38,17.23,191.39,10.24z"/>
<path class="NeckTrim fill" d="M294.05,10.24l-16.03-4.49l-2.56,10.97l19.34,5.27C294.8,21.98,296.05,17.23,294.05,10.24"/>
<path class="st11" d="M294.05,10.24l-16.03-4.49l-2.56,10.97l19.34,5.27C294.8,21.98,296.05,17.23,294.05,10.24z"/>
<path class="Colour2 fill" d="M177.2,27.67l-10.58,5.17c0,0-3.09,13.97,12.45,28.83l8.91-3.39C187.98,58.28,177.43,48.19,177.2,27.67"/>
<path class="Colour2 fill" d="M308.81,27.67l8.88,5.17c0,0,2.4,13.97-13.15,28.83l-4.82-3.39C299.73,58.28,308.59,48.19,308.81,27.67"/>
<path class="NeckTrim fill" d="M294.9,11.62l14.61,17.24c0,0,1.19,25.32-15.53,36.94c-4.5,3.12-16.64,11.04-21.51,13.99
	c-13.26,8.01-18.59,9.71-18.59,9.71s0.17-10.37,3.85-12.57c0,0,26.09-22.15,28.18-25.13C288,48.81,296.12,26.25,294.9,11.62"/>
<path class="st13" d="M294.9,11.62l14.61,17.24c0,0,1.19,25.32-15.53,36.94c-4.5,3.12-16.64,11.04-21.51,13.99
	c-13.26,8.01-18.59,9.71-18.59,9.71s0.17-10.37,3.85-12.57c0,0,26.09-22.15,28.18-25.13C288,48.81,296.12,26.25,294.9,11.62z"/>
<path class="NeckTrim fill" d="M189.34,11.62l-14.61,17.24c0,0-1.19,25.32,15.53,36.94c4.5,3.12,16.64,11.04,21.51,13.99
	c13.26,8.01,18.59,9.71,18.59,9.71s-0.17-10.37-3.85-12.57c0,0-26.09-22.15-28.18-25.13C196.24,48.81,188.11,26.25,189.34,11.62"/>
<path class="st13" d="M189.34,11.62l-14.61,17.24c0,0-1.19,25.32,15.53,36.94c4.5,3.12,16.64,11.04,21.51,13.99
	c13.26,8.01,18.59,9.71,18.59,9.71s-0.17-10.37-3.85-12.57c0,0-26.09-22.15-28.18-25.13C196.24,48.81,188.11,26.25,189.34,11.62z"/>
<path class="st14" d="M230.36,81.83h23l-3.58,8.64c0,0-5.87,2.08-14.73,0L230.36,81.83z"/>
<path class="Insert fill" d="M230.94,81.28h23l-3.58,8.64c0,0-5.87,2.08-14.73,0L230.94,81.28z"/>
<path class="st3" d="M166.01,33.14c1.07,17.69,13.06,30.02,13.06,30.02c21.35,21.07,46.51,31.22,46.51,31.22s8.73,1.78,14.04,1.78
	h4.16c5.31,0,14.04-1.78,14.04-1.78s25.16-10.15,46.51-31.22c0,0,11.99-12.33,13.06-30.02"/>
<path class="st3" d="M170.32,30.94c-1.49,11.32,10.13,28.68,10.13,28.68c21.35,21.07,46.62,31.49,46.62,31.49s8.24,2.28,13.55,2.28
	h2.16c5.31,0,13.55-2.28,13.55-2.28s25.27-10.42,46.62-31.49c0,0,11.63-17.36,10.13-28.68"/>
<path class="st15" d="M253.87,89.49c0.02-0.06,1.78-3.95,3.8-9.14c1.21-3.09,8.38-8.94,15.32-14.6c3.55-2.89,7.22-5.88,10.62-8.91
	c16.24-14.4,14.61-36.71,12.75-44.03c-0.8-3.15-7.02-5.72-18.5-7.64l-0.67,2.98c6.69,1.12,13.39,3.1,14.69,4.32
	c0.52,3.84-1.92,32.37-11.45,40.81c-3.34,2.96-6.96,5.92-10.48,8.78c-9.35,7.63-15.16,12.5-16.75,16.56
	c-2.11,5.41-3.87,11.7-3.95,11.97L253.87,89.49z"/>
<path class="NeckTrim fill" d="M253.87,89.49c0.02-0.06,1.78-3.95,3.8-9.14c1.21-3.09,8.38-8.94,15.32-14.6
	c3.55-2.89,7.22-5.88,10.62-8.91c16.24-14.4,14.61-36.71,12.75-44.03c-0.8-3.15-7.02-5.72-18.5-7.64l-0.67,2.98
	c6.69,1.12,13.39,3.1,14.69,4.32c0.52,3.84-1.92,32.37-11.45,40.81c-3.34,2.96-6.96,5.92-10.48,8.78
	c-9.35,7.63-15.16,12.5-16.75,16.56c-2.11,5.41-3.87,11.7-3.95,11.97L253.87,89.49z"/>
<path class="NeckTrim fill" d="M253.87,89.49c0.02-0.06,1.78-3.95,3.8-9.14c1.21-3.09,8.38-8.94,15.32-14.6c3.55-2.89,7.22-5.88,10.62-8.91
	c16.24-14.4,14.61-36.71,12.75-44.03c-0.8-3.15-7.02-5.72-18.5-7.64l-0.67,2.98c6.69,1.12,13.39,3.1,14.69,4.32
	c0.52,3.84-1.92,32.37-11.45,40.81c-3.34,2.96-6.96,5.92-10.48,8.78c-9.35,7.63-15.16,12.5-16.75,16.56
	c-2.11,5.41-3.87,11.7-3.95,11.97L253.87,89.49z"/>
<path class="NeckTrim fill" d="M231.02,89.49c-0.02-0.06-1.78-3.95-3.8-9.14c-1.21-3.09-8.38-8.94-15.32-14.6
	c-3.55-2.89-7.22-5.88-10.63-8.91c-7.52-6.66-12.65-44.44-12.75-44.03c0.8-3.15,7.02-5.72,18.5-7.64l0.67,2.98
	c-6.69,1.12-13.39,3.1-14.69,4.32c-0.52,3.84,1.92,32.37,11.45,40.81c3.34,2.96,6.96,5.92,10.48,8.78
	c9.35,7.63,15.17,12.5,16.75,16.56c2.11,5.41,3.87,11.7,3.95,11.97L231.02,89.49z"/>
<path class="st17" d="M231.02,89.49c-0.02-0.06-1.78-3.95-3.8-9.14c-1.21-3.09-8.38-8.94-15.32-14.6
	c-3.55-2.89-7.22-5.88-10.63-8.91c-7.52-6.66-12.65-44.44-12.75-44.03c0.8-3.15,7.02-5.72,18.5-7.64l0.67,2.98
	c-6.69,1.12-13.39,3.1-14.69,4.32c-0.52,3.84,1.92,32.37,11.45,40.81c3.34,2.96,6.96,5.92,10.48,8.78
	c9.35,7.63,15.17,12.5,16.75,16.56c2.11,5.41,3.87,11.7,3.95,11.97L231.02,89.49z"/>
<path class="st18" d="M412.18,65.26c0,0-22.42,31.16-22.24,135.34l-0.94,26.74"/>
<path class="st19" d="M389.16,226.37L389.16,226.37c0,0-0.04,0.23-0.1,0.65C389.12,226.61,389.16,226.37,389.16,226.37z"/>
<g>
	<polygon class="st20" points="400.84,279.28 402.86,286.79 481.8,263.2 479.83,244.64 	"/>
	<polygon class="st20" points="2.06,261.45 81.01,286.79 83.02,279.29 4.03,242.89 	"/>
</g>
<path class="st3" d="M399.83,284.89c0,0,27.41-2.62,43.18-18.32c15.76-15.7,37.47-17.76,37.47-17.76"/>
<path class="st3" d="M399.83,283.14c0,0,27.41-2.62,43.18-18.32c15.76-15.7,37.47-17.76,37.47-17.76"/>
<path class="st3" d="M83.47,285.47c0,0-27.42-2.62-43.18-18.32c-15.76-15.7-37.47-17.76-37.47-17.76"/>
<path class="st3" d="M83.47,283.72c0,0-27.42-2.62-43.18-18.32c-15.76-15.7-37.47-17.76-37.47-17.76"/>
<g>
	<path class="st19" d="M389.16,226.37L389.16,226.37c0,0-0.04,0.23-0.1,0.65C389.12,226.61,389.16,226.37,389.16,226.37z"/>
</g>
<path class="Colour2 fill" d="M242.01,250.36L83.88,96.42c1.58,6.19,3.13,13.44,4.54,21.87L242.01,267.8l153.81-149.72
	c1.42-8.45,2.98-15.71,4.57-21.89L242.01,250.36z"/>
<path class="Colour2 fill" d="M242.01,279.83L90.47,132.31c1.32,10.41,2.38,22.25,3.05,35.68l148.49,144.55l148.68-144.74
	c0.67-13.44,1.74-25.28,3.07-35.7L242.01,279.83z"/>
<g>
	<path class="Colour2 fill" d="M40.13,147.46l-7.47-2.33C50.24,89,76.8,78.08,77.92,77.65l0.66-0.19c53.23-10.5,88.02-32.62,88.37-32.84
		l4.25,6.55c-1.45,0.94-36.13,23.02-90.67,33.86C77.97,86.24,55.56,98.19,40.13,147.46z"/>
</g>
<g>
	<polygon class="Colour2 fill" points="17.57,260.16 9.84,258.94 19.23,199.96 26.96,201.18 	"/>
</g>
<path class="Colour2 fill" d="M443.93,147.46c-15.39-49.17-37.74-61.17-40.4-62.44c-54.54-10.84-89.21-32.92-90.66-33.85l4.25-6.55
	c0.35,0.22,35.14,22.34,88.37,32.84l0.66,0.19c1.12,0.44,27.69,11.35,45.26,67.49L443.93,147.46z"/>
<g>
	<polygon class="Colour2 fill" points="466.5,260.16 457.11,201.18 464.83,199.96 474.22,258.94 	"/>
</g>
<polygon class="ArmTrim fill" points="479.83,244.64 400.84,279.28 402.86,286.79 481.8,263.2 "/>
<polygon class="ArmTrim fill" points="4.03,242.89 83.02,279.29 81.01,286.79 2.06,261.45 "/>
<g id="FBodyLogos"></g>
</svg>
