<?xml version="1.0" encoding="utf-8"?>
<!-- Generator: Adobe Illustrator 19.1.0, SVG Export Plug-In . SVG Version: 6.00 Build 0)  -->
<svg version="1.1" id="Layer_1" xmlns="http://www.w3.org/2000/svg" xmlns:xlink="http://www.w3.org/1999/xlink" x="0px" y="0px"
	 viewBox="0 0 483.01 645.44" style="enable-background:new 0 0 483.01 645.44;" xml:space="preserve">
<style type="text/css">
	<![CDATA[
	@font-face{font-family:'codaheavy';src:url('/fonts/coda-heavy-webfont.woff') format('woff')}
	text{font-family:Impact,codaheavy,sans-serif}
	.Colour1.fill{fill:#464848;}
	.Colour2.fill{fill:#DBDEE3;}
	.Colour3.fill{fill:#2A2B2A;}
	.Insert.fill{fill:#101010;}
	.NeckTrim.fill{fill:#464848;}
	.ArmTrim.fill{fill:#464848;}
	.BottomHem.fill{fill:#DBDEE3;}
	.st0{fill:none;stroke:#000000;stroke-width:3;stroke-linecap:round;stroke-linejoin:round;}
	.st1{fill:none;stroke:#221915;stroke-width:0.216;stroke-linecap:round;stroke-linejoin:round;}
	.st2{fill:none;stroke:#0A0505;stroke-width:0.6559;stroke-miterlimit:10;}
	.st3{fill:none;stroke:#FFFFFF;stroke-width:0.328;}
	.st4{fill:none;stroke:#FFFFFF;stroke-width:0.216;stroke-dasharray:2.4,2.4,2.4,2.4;}
	.st5{fill:none;stroke:#101010;stroke-width:0.216;stroke-dasharray:2.4,2.4,2.4,2.4;}
	.st6{fill:#FFFFFF;}
	.st7{fill:none;stroke:#221915;stroke-width:0.233;stroke-miterlimit:10;}
	.st8{fill:none;stroke:#221915;stroke-width:0.36;stroke-miterlimit:10;}
	.st9{fill:#222457;}
	.st10{fill:none;stroke:#0A0505;stroke-width:0.233;stroke-miterlimit:10;}
	.st12{fill:none;}
	.st13{fill:#9E802E;}
	.st14{fill:#A23236;}
	.st15{fill:none;stroke:#000000;stroke-width:0.4411;}
	.st16{fill:#FFFFFF;stroke:#000000;stroke-width:2;stroke-miterlimit:10;}
	.white{fill:#ffffff;}
	]]>
</style>
<path class="Colour4" d="M467.85,170.71c-1.06-12.37-9.62-58.76-27.65-86.6c0,0-13.62-16.49-46.71-24.74
	c-33.09-8.25-82.71-28.87-92.26-36.08l-57.81-7h-3.7l-57.8,7c-9.54,7.22-59.16,27.83-92.25,36.08
	c-33.1,8.25-46.71,24.74-46.71,24.74c-18.03,27.83-26.58,74.23-27.65,86.6c-1.06,12.37-13.66,82.47-13.66,82.47
	s21.74,2.06,37.51,17.76c15.78,15.7,43.23,18.32,43.23,18.32l11.57-62.89c0,0,21.16,131.96,16.92,197.94
	c-4.24,65.98-4.24,167-4.24,167h133.09h3.7h133.09c0,0,0-101.03-4.24-167c-4.24-65.98,16.92-197.94,16.92-197.94l11.57,62.89
	c0,0,27.45-2.62,43.23-18.32c15.77-15.7,37.51-17.76,37.51-17.76S468.9,183.08,467.85,170.71"/>
<path class="st0" d="M1.33,253.18c0,0,21.74,2.06,37.51,17.76c15.78,15.7,43.23,18.32,43.23,18.32l11.57-62.89
	c0,0,21.16,131.96,16.92,197.94c-4.24,65.98-4.24,167-4.24,167H239.4h3.7H376.2c0,0,0-101.03-4.24-167
	c-4.24-65.98,16.92-197.94,16.92-197.94l11.57,62.89c0,0,27.45-2.62,43.23-18.32c15.77-15.7,37.51-17.76,37.51-17.76
	s-12.6-70.1-13.66-82.47c-1.06-12.37-9.62-58.76-27.65-86.6c0,0-13.62-16.49-46.71-24.74c-33.09-8.25-82.71-28.87-92.26-36.08
	l-57.81-7h-3.7l-57.8,7c-9.54,7.22-59.16,27.83-92.25,36.08c-33.1,8.25-46.71,24.74-46.71,24.74
	c-18.03,27.83-26.58,74.23-27.65,86.6C13.93,183.08,1.33,253.18,1.33,253.18z"/>
<path class="Colour1 fill" d="M411.61,65.78c-2.8,4.39-22.1,38.2-21.93,134.83l-0.94,26.74c0-0.02,0-0.03,0.01-0.04
	c-1.85,11.77-20.8,134.24-16.77,197.01c4.24,65.98,4.24,167,4.24,167H243.13h-3.7H106.33c0,0,0-101.03,4.24-167
	c4.24-65.98-16.92-197.94-16.92-197.94l-0.38,2.08l-0.01-2.76l0.39-25.08C93.84,97.59,71.9,65.98,71.41,65.28
	c5.2-2.18,11.17-4.22,17.96-5.91c33.09-8.25,82.71-28.87,92.25-36.08l57.8-7h3.7l57.81,7c9.54,7.22,59.16,27.83,92.26,36.08
	c7.06,1.76,13.22,3.9,18.56,6.17L411.61,65.78z"/>
<path class="Colour1 fill" d="M388.9,226.37L388.9,226.37c0,0-0.04,0.23-0.1,0.65C388.86,226.61,388.9,226.37,388.9,226.37z"/>
<path class="st1" d="M321.7,62.03"/>
<path class="st1" d="M317.57,58.05"/>
<path class="st1" d="M309.51,62.32"/>
<path class="Colour1 fill" d="M136.48,609.18c14.55,11.95,35.58,31.32,104.55,31.32c68.97,0,90-19.37,104.55-31.32
	c11.79-9.69,22.4-13.7,28-15.24c1.94-0.53,2.59-2.93,1.2-4.39c-2.21-2.33-5.18-4.93-9.1-7.4c-7.01-4.44-10.56-8.63-37.89-11.19
	c-5.99-0.56-13.14-1.04-21.69-1.43c-15.56-0.71-38.32-0.88-65.07-0.88c-26.76,0-49.51,0.18-65.07,0.88
	c-8.55,0.39-15.7,0.86-21.68,1.43c-27.33,2.55-30.88,6.75-37.89,11.19c-3.93,2.48-6.91,5.09-9.12,7.42
	c-1.38,1.46-0.74,3.87,1.21,4.39C114.02,595.46,124.54,599.37,136.48,609.18"/>
<path class="st2" d="M136.48,609.18c14.55,11.95,35.58,31.32,104.55,31.32c68.97,0,90-19.37,104.55-31.32
	c11.47-9.43,21.82-13.48,27.53-15.11c2.15-0.61,2.89-3.27,1.34-4.87c-2.17-2.24-5.04-4.7-8.77-7.06
	c-7.01-4.44-10.56-8.63-37.89-11.19c-5.99-0.56-13.14-1.04-21.69-1.43c-15.56-0.71-38.32-0.88-65.07-0.88
	c-26.76,0-49.51,0.18-65.07,0.88c-8.55,0.39-15.7,0.86-21.68,1.43c-27.33,2.55-30.88,6.75-37.89,11.19
	c-3.73,2.36-6.61,4.83-8.79,7.07c-1.55,1.6-0.82,4.27,1.33,4.87C114.59,595.68,124.86,599.64,136.48,609.18z"/>
<line class="st3" x1="186.11" y1="57.37" x2="82.05" y2="95.22"/>
<line class="st4" x1="180.73" y1="56.67" x2="82.05" y2="91.73"/>
<line class="st4" x1="181.72" y1="57.95" x2="82.05" y2="93.76"/>
<line class="st3" x1="298.05" y1="57.37" x2="402.11" y2="95.22"/>
<line class="st4" x1="303.43" y1="56.67" x2="402.11" y2="91.73"/>
<line class="st4" x1="303.43" y1="58.42" x2="402.11" y2="93.47"/>
<path class="st4" d="M377.74,587.83c-2.2-2.95-6-7.09-12.08-10.92c-7.02-4.44-10.56-8.63-37.89-11.19
	c-5.99-0.56-13.14-1.04-21.69-1.43c-15.56-0.71-38.32-0.89-65.07-0.89c-26.76,0-49.51,0.18-65.07,0.89
	c-8.55,0.38-15.7,0.86-21.69,1.43c-27.33,2.56-30.87,6.75-37.89,11.19c-6.08,3.84-9.89,7.98-12.08,10.92"/>
<path class="st4" d="M377.74,584.34c-2.2-2.95-6-7.09-12.08-10.92c-7.02-4.44-10.56-8.63-37.89-11.19
	c-5.99-0.56-13.14-1.04-21.69-1.43c-15.56-0.71-38.32-0.89-65.07-0.89c-26.76,0-49.51,0.18-65.07,0.89
	c-8.55,0.38-15.7,0.86-21.69,1.43c-27.33,2.56-30.87,6.75-37.89,11.19c-6.08,3.84-9.89,7.98-12.08,10.92"/>
<path class="st5" d="M75.21,65.26c0,0,22.45,31.16,22.26,135.34"/>
<path class="st5" d="M408.89,65.26c0,0-22.45,31.16-22.26,135.34"/>
<path class="st1" d="M278.26,56.76"/>
<path class="st1" d="M270.17,61.05"/>
<path class="st6" d="M180.95,38.05c20.5-22.33,96.69-26.13,121.09-1.7l-6.27-13.38c-21.94-7.01-37.58-11.63-53.21-11.66
	c-15.63-0.03-31.27,4.52-53.21,11.53L180.95,38.05z"/>
<path class="st7" d="M180.95,38.05c20.5-22.33,96.69-26.13,121.09-1.7l-6.27-13.38c-21.94-7.01-37.58-11.63-53.21-11.66
	c-15.63-0.03-31.27,4.52-53.21,11.53L180.95,38.05z"/>
<path class="white" d="M192.54,21.39c10.93-3.81,27.89-8.29,48.97-8.29c21.07,0,38.02,4.48,48.95,8.29c0.37,7.1-0.26,17.42-6.41,26.59
	c-3.21,4.78-5.79,7.47-12.6,12.68c-8.34,6.38-17.75,14.74-20.48,22.2c-6.3,0-12.6,0-18.91,0c-2.9-7.21-7.2-11.02-10.03-13.69
	c-3.75-3.53-4.84-4.11-12.02-10.09c-4.66-3.88-7.08-5.92-9.45-9.51c-2.39-3.61-3.38-6.72-4.73-11.1
	C194.58,34.46,193.15,28.66,192.54,21.39z"/>
<path class="st1" d="M266.14,57.16"/>
<path class="st1" d="M258.27,61.33"/>
<path class="NeckTrim fill" d="M285.24,7.64c-31.38-8-56.67-7.65-89.1,1.13l4.13,10.16c12.19-4.56,26.93-5.55,41.77-5.55
	c14.03,0,28.14,0.75,40.26,4.47L285.24,7.64z"/>
<path class="st8" d="M285.24,7.64c-31.38-8-56.67-7.65-89.1,1.13l4.13,10.16c12.19-4.56,26.93-5.55,41.77-5.55
	c14.03,0,28.14,0.75,40.26,4.47L285.24,7.64z"/>
<path class="NeckTrim fill" d="M191.2,10.24l16.05-4.49l2.56,10.97l-19.36,5.27C190.45,21.98,189.19,17.23,191.2,10.24"/>
<path class="st8" d="M191.2,10.24l16.05-4.49l2.56,10.97l-19.36,5.27C190.45,21.98,189.19,17.23,191.2,10.24z"/>
<path class="NeckTrim fill" d="M293.98,10.24l-16.05-4.49l-2.56,10.97l19.36,5.27C294.73,21.98,295.98,17.23,293.98,10.24"/>
<path class="st8" d="M293.98,10.24l-16.05-4.49l-2.56,10.97l19.36,5.27C294.73,21.98,295.98,17.23,293.98,10.24z"/>
<path class="Colour2 fill" d="M177,27.67l-10.59,5.17c0,0-3.1,13.97,12.47,28.83l8.92-3.39C187.79,58.28,177.22,48.19,177,27.67"/>
<path class="Colour2 fill" d="M308.76,27.67l8.89,5.17c0,0,2.4,13.97-13.16,28.83l-4.82-3.39C299.67,58.28,308.54,48.19,308.76,27.67"/>
<path class="st10" d="M294.83,11.62l14.63,17.24c0,0,1.2,25.32-15.55,36.94c-4.5,3.12-16.66,11.04-21.54,13.99
	c-13.27,8.01-18.61,9.71-18.61,9.71s0.17-10.37,3.86-12.57c0,0,26.12-22.15,28.22-25.13C287.92,48.81,296.05,26.25,294.83,11.62z"/>
<path class="st10" d="M189.15,11.62l-14.63,17.24c0,0-1.2,25.32,15.55,36.94c4.5,3.12,16.66,11.04,21.54,13.99
	c13.27,8.01,18.61,9.71,18.61,9.71s-0.17-10.37-3.86-12.57c0,0-26.12-22.15-28.21-25.13C196.05,48.81,187.92,26.25,189.15,11.62z"/>
<path class="Insert fill" d="M230.22,81.83h23.03l-3.59,8.64c0,0-5.88,2.08-14.75,0L230.22,81.83z"/>
<path class="st12" d="M230.8,81.28h23.03l-3.59,8.64c0,0-5.88,2.08-14.75,0L230.8,81.28z"/>
<path class="st4" d="M165.79,33.14c1.07,17.69,13.07,30.02,13.07,30.02c21.37,21.07,46.56,31.22,46.56,31.22s8.74,1.78,14.06,1.78
	h4.17c5.32,0,14.06-1.78,14.06-1.78s25.19-10.15,46.56-31.22c0,0,12-12.33,13.07-30.02"/>
<path class="st4" d="M170.1,30.94c-1.5,11.32,10.14,28.68,10.14,28.68c21.37,21.07,46.68,31.49,46.68,31.49s8.25,2.28,13.56,2.28
	h2.16c5.32,0,13.56-2.28,13.56-2.28s25.3-10.42,46.68-31.49c0,0,11.64-17.36,10.15-28.68"/>
<path class="st13" d="M253.76,89.49c0.02-0.06,1.78-3.95,3.8-9.14c1.21-3.09,8.39-8.94,15.34-14.6c3.55-2.89,7.22-5.88,10.64-8.91
	c16.26-14.4,14.63-36.71,12.77-44.03c-0.8-3.15-7.03-5.72-18.52-7.64l-0.67,2.98c6.69,1.12,13.41,3.1,14.71,4.32
	c0.52,3.84-1.93,32.37-11.46,40.81c-3.34,2.96-6.97,5.92-10.49,8.78c-9.36,7.63-15.18,12.5-16.77,16.56
	c-2.11,5.41-3.88,11.7-3.95,11.97L253.76,89.49z"/>
<path class="Colour4" d="M253.76,89.49c0.02-0.06,1.78-3.95,3.8-9.14c1.21-3.09,8.39-8.94,15.34-14.6
	c3.55-2.89,7.22-5.88,10.64-8.91c16.26-14.4,14.63-36.71,12.77-44.03c-0.8-3.15-7.03-5.72-18.52-7.64l-0.67,2.98
	c6.69,1.12,13.41,3.1,14.71,4.32c0.52,3.84-1.93,32.37-11.46,40.81c-3.34,2.96-6.97,5.92-10.49,8.78
	c-9.36,7.63-15.18,12.5-16.77,16.56c-2.11,5.41-3.88,11.7-3.95,11.97L253.76,89.49z"/>
<path class="st14" d="M230.87,89.49c-0.02-0.06-1.78-3.95-3.8-9.14c-1.21-3.09-8.39-8.94-15.34-14.6
	c-3.55-2.89-7.22-5.88-10.64-8.91c-7.53-6.66-12.66-44.44-12.77-44.03c0.8-3.15,7.03-5.72,18.52-7.64l0.67,2.98
	c-6.69,1.12-13.41,3.1-14.71,4.32c-0.52,3.84,1.93,32.37,11.46,40.81c3.34,2.96,6.97,5.92,10.49,8.78
	c9.36,7.63,15.18,12.5,16.77,16.56c2.11,5.41,3.88,11.7,3.95,11.97L230.87,89.49z"/>
<path class="Colour4" d="M230.87,89.49c-0.02-0.06-1.78-3.95-3.8-9.14c-1.21-3.09-8.39-8.94-15.34-14.6
	c-3.55-2.89-7.22-5.88-10.64-8.91c-7.53-6.66-12.66-44.44-12.77-44.03c0.8-3.15,7.03-5.72,18.52-7.64l0.67,2.98
	c-6.69,1.12-13.41,3.1-14.71,4.32c-0.52,3.84,1.93,32.37,11.46,40.81c3.34,2.96,6.97,5.92,10.49,8.78
	c9.36,7.63,15.18,12.5,16.77,16.56c2.11,5.41,3.88,11.7,3.95,11.97L230.87,89.49z"/>
<path class="st15" d="M412.25,65.26c0,0-22.45,31.16-22.27,135.34l-0.94,26.74"/>
<path class="st15" d="M71.7,65.26c0,0,22.45,31.16,22.26,135.34l-0.39,25.08"/>
<path class="NeckTrim fill" d="M189.15,11.62l-14.63,17.24c0,0-1.2,25.32,15.55,36.94c4.5,3.12,16.66,11.04,21.54,13.99
	c13.27,8.01,18.61,9.71,18.61,9.71s-0.17-10.37-3.86-12.57c0,0-26.12-22.15-28.21-25.13C196.05,48.81,187.92,26.25,189.15,11.62"/>
<path class="st16" d="M389.2,226.37L389.2,226.37c0,0-0.04,0.23-0.1,0.65C389.16,226.61,389.2,226.37,389.2,226.37z"/>
<path class="Colour1 fill" d="M467.85,170.71c-1.06-12.37-9.62-58.76-27.65-86.6c0,0-8.43-10.2-28.13-18.57
	c-2.13,3.23-22.26,36.39-22.08,135.07l-0.94,26.74c0.1-0.63,0.15-0.96,0.15-0.96l11.57,62.89c0,0,27.45-2.62,43.23-18.32
	c15.77-15.7,37.51-17.76,37.51-17.76S468.9,183.08,467.85,170.71z"/>
<path class="ArmTrim fill" d="M481.5,253.18c0,0-0.39-2.15-1.03-5.75l-81.97,29.54l2.26,12.29c0,0,0.24-0.02,0.68-0.08l36.38-13.11
	c2.18-1.53,4.26-3.24,6.17-5.13C459.77,255.24,481.5,253.18,481.5,253.18z"/>
<path class="st12" d="M398.5,276.97l81.97-29.54c-0.57-3.18-1.33-7.49-2.21-12.48l-82.05,29.57L398.5,276.97z"/>
<path class="Colour1 fill" d="M15.16,170.71c1.06-12.37,9.62-58.76,27.65-86.6c0,0,8.43-10.2,28.13-18.57
	c2.13,3.23,22.26,36.39,22.08,135.07l0.94,26.74c-0.1-0.63-0.15-0.96-0.15-0.96l-11.57,62.89c0,0-27.45-2.62-43.23-18.32
	C23.24,255.24,1.5,253.18,1.5,253.18S14.1,183.08,15.16,170.71z"/>
<path class="ArmTrim fill" d="M1.5,253.18c0,0,0.39-2.15,1.03-5.75l81.97,29.54l-2.26,12.29c0,0-0.24-0.02-0.68-0.08l-36.38-13.11
	c-2.18-1.53-4.26-3.24-6.17-5.13C23.24,255.24,1.5,253.18,1.5,253.18z"/>
<path class="st12" d="M84.5,276.97L2.53,247.42c0.57-3.18,1.33-7.49,2.21-12.48l82.05,29.57L84.5,276.97z"/>
<path class="st4" d="M399.88,284.89c0,0,27.45-2.62,43.23-18.32c15.77-15.7,37.51-17.76,37.51-17.76"/>
<path class="st4" d="M399.88,283.14c0,0,27.45-2.62,43.23-18.32c15.77-15.7,37.51-17.76,37.51-17.76"/>
<path class="st4" d="M83.16,285.47c0,0-27.45-2.62-43.23-18.32c-15.77-15.7-37.51-17.76-37.51-17.76"/>
<path class="st4" d="M83.16,283.72c0,0-27.45-2.62-43.23-18.32c-15.77-15.7-37.51-17.76-37.51-17.76"/>
<g>
	<path class="st16" d="M389.2,226.37L389.2,226.37c0,0-0.04,0.23-0.1,0.65C389.16,226.61,389.2,226.37,389.2,226.37z"/>
</g>
<path class="NeckTrim fill" d="M294.83,11.62l14.63,17.24c0,0,1.2,25.32-15.55,36.94c-4.5,3.12-16.66,11.04-21.54,13.99
	c-13.27,8.01-18.61,9.71-18.61,9.71s0.17-10.37,3.86-12.57c0,0,26.12-22.15,28.22-25.13C287.92,48.81,296.05,26.25,294.83,11.62"/>
<path class="BottomHem fill" d="M246.18,643.72c-22.93,0-44.7-2.3-47.34-2.59c-24.7-1.1-61.12-29.53-62.66-30.74l-0.4-0.35
	c-4.33-4.14-19.51-11.73-28.07-15.55l-1.52-2.25l0.94-10.18l5.03,2.25c2.42,1.08,23.64,10.66,30.96,17.44
	c9.95,7.78,38.89,27.59,56.34,28.27l0.39,0.03c0.56,0.06,56.28,6.14,83.17-0.76l0.78-0.14c0.23-0.03,24.37-2.86,47.5-21.29
	c2.47-2.45,21.73-21.1,38.22-23.95l5.42-0.94l1.85,10.97l-5.43,0.93c-11.51,1.98-27.38,15.9-32.53,21.09l-0.47,0.42
	c-24.38,19.53-49.34,23.31-53.01,23.77C274.61,642.86,260.18,643.72,246.18,643.72 M375.66,579.69l-10.35-9.28
	c-10.35-9.28-53.83-10.82-53.83-10.82H170.54c0,0-43.48,1.55-53.83,10.82l-10.35,9.28l-1.38,13.38c0,0,16.39-15.96,22.6-16.99
	c3.08-0.51,14.08-3.72,24.36-4.75c10.44-1.04,20.15-1.95,20.15-1.95h137.84c0,0,9.71,0.91,20.15,1.95
	c10.29,1.03,21.28,4.23,24.36,4.75c6.21,1.03,22.6,16.99,22.6,16.99L375.66,579.69z"/>
<path class="st4" d="M314.66,567.73l9.74-185.56c0,0,4.05-25.16,13.89-47.33c16.59-40.34,49.72-120.86,55.22-134.26"/>
<path class="st4" d="M169.56,567.73l-9.74-185.56c0,0-4.05-25.16-13.89-47.33c-16.59-40.34-49.72-120.86-55.23-134.26"/>
<path class="st4" d="M171.32,567.73l-9.74-185.56c0,0-4.05-25.16-13.89-47.33C131.1,294.5,97.97,213.98,92.46,200.57"/>
<path class="st4" d="M312.91,567.73l9.74-185.56c0,0,4.05-25.16,13.88-47.33c16.59-40.34,49.72-120.86,55.23-134.26"/>
<path class="Colour2 fill" d="M76.56,75.59c-1.39-3.38-2.6-5.85-3.5-7.52l168.51,99.9L410.37,67.9c-0.9,1.65-2.12,4.12-3.53,7.54
	l-165.26,97.97l-1.2-0.71L76.56,75.59z M240.37,182.82l1.2,0.71l160.78-95.31c0.75-2.47,1.48-4.72,2.2-6.75l-162.97,96.62
	L78.84,81.61c0.71,2.03,1.45,4.28,2.19,6.75L240.37,182.82z M240.78,155.41l0.8,0.48l159.18-94.37c-1.33-0.42-2.68-0.82-4.09-1.21
	l-155.1,91.95L86.29,60.2c-1.41,0.39-2.77,0.79-4.1,1.2L240.78,155.41z M240.78,163.64l0.8,0.48L409.44,64.6
	c-1.21-0.48-2.45-0.95-3.74-1.42l-164.13,97.3L77.22,63.05c-1.29,0.46-2.54,0.93-3.75,1.41L240.78,163.64z M239.17,223.15l2.4,1.42
	l151.61-89.88c0.5-4.17,1.04-8.12,1.62-11.85l-153.22,90.83L88.56,122.96c0.57,3.73,1.11,7.68,1.61,11.85L239.17,223.15z
	 M239.97,194.03l1.6,0.95l157.2-93.19c0.7-3.06,1.42-5.9,2.13-8.53l-159.33,94.46L82.47,93.39c0.71,2.63,1.42,5.47,2.13,8.52
	L239.97,194.03z M241.18,146.97l0.4,0.24l149.21-88.45c-0.7-0.18-1.4-0.37-2.12-0.56l-147.09,87.2L94.3,58.08
	c-0.71,0.19-1.41,0.38-2.11,0.57L241.18,146.97z M239.57,207.9l2,1.19l154.04-91.32c0.61-3.62,1.25-7.02,1.91-10.21l-155.95,92.45
	L85.84,107.68c0.65,3.19,1.29,6.59,1.9,10.21L239.57,207.9z M241.58,228.33L90.64,138.85c0.47,4.26,0.9,8.75,1.27,13.47
	l149.67,88.73l149.86-88.84c0.38-4.72,0.81-9.2,1.28-13.47L241.58,228.33z"/>
<path class="Colour3 fill" d="M381.01,282.66c-0.08,0.65-0.16,1.3-0.25,1.96l-139.19,82.51l-0.4-0.24l-139.43-82.66
	c-0.08-0.66-0.16-1.31-0.24-1.96l140.08,83.04L381.01,282.66z M241.58,345.2L98.64,260.46c0.18,1.29,0.35,2.61,0.54,3.95
	l141.6,83.95l0.8,0.48l141.75-84.03c0.18-1.34,0.36-2.66,0.54-3.95L241.58,345.2z M241.58,309.52L93.33,221.64l-0.06,4.04l0.01,2.76
	l0.38-2.08c0,0,0.17,1.06,0.47,3.01l145.84,86.46l1.6,0.95l146.79-87.02c0.17-1.07,0.3-1.9,0.39-2.47c0,0.02,0,0.03-0.01,0.04
	l0.18-5.16L241.58,309.52z M241.58,355.09l-141.5-83.88c0.17,1.29,0.34,2.61,0.51,3.94l140.19,83.11l0.8,0.48l140.34-83.2
	c0.17-1.33,0.34-2.64,0.51-3.94L241.58,355.09z M241.58,332.66L96.72,246.78c0.27,1.88,0.55,3.86,0.85,5.95l142.81,84.66l1.2,0.71
	l143.36-84.99c0.29-2.08,0.57-4.07,0.84-5.95L241.58,332.66z M241.58,277.04L93.58,189.3c0.05,3.56,0.08,7.2,0.07,10.94
	l145.52,86.27l2.4,1.42l148.11-87.8c0-3.74,0.02-7.38,0.07-10.94L241.58,277.04z M241.58,258.98L93.05,170.93
	c0.18,4.17,0.33,8.49,0.43,12.97l148.09,87.79l148.28-87.9c0.1-4.47,0.25-8.8,0.43-12.97L241.58,258.98z M241.58,293.98
	L93.57,206.24l-0.14,9l146.15,86.64l2,1.19l147.58-87.49l0.33-9.27L241.58,293.98z M241.58,322.11L95.02,235.23
	c0.26,1.76,0.56,3.76,0.89,5.97l144.46,85.64l1.2,0.71l145.01-85.96c0.32-2.21,0.62-4.2,0.89-5.97L241.58,322.11z"/>
<g id="FBodyLogos"></g>
</svg>
