<?xml version="1.0" encoding="utf-8"?>
<!-- Generator: Adobe Illustrator 19.1.0, SVG Export Plug-In . SVG Version: 6.00 Build 0)  -->
<svg version="1.1" id="Layer_1" xmlns="http://www.w3.org/2000/svg" xmlns:xlink="http://www.w3.org/1999/xlink" x="0px" y="0px"
	 viewBox="0 0 483.01 645.44" style="enable-background:new 0 0 483.01 645.44;" xml:space="preserve">
<style type="text/css">
	<![CDATA[
	@font-face{font-family:'codaheavy';src:url('/fonts/coda-heavy-webfont.woff') format('woff')}
	text{font-family:Impact,codaheavy,sans-serif}
	.Number.fill{fill:#000}
	.NumberOutline.stroke{fill:none;stroke:#777;stroke-width:2.5}
	.Colour1.fill{fill:#31734C;}
	.Colour2.fill{fill:#FCC731;}
	.Colour3.fill{fill:#FFFFFF;}
	.Colour4.fill{fill:#DCE294;}
	.ArmTrim.fill{fill:#4F9F6D;}
	.NeckTrim.fill{fill:#FCC731;}
	.BottomHem.fill{fill:#FCC731;stroke:#101010;stroke-width:0.8861;stroke-miterlimit:10;}
	.st0{fill:none;stroke:#000000;stroke-width:2;stroke-miterlimit:10;}
	.st1{fill:none;stroke:#0A0505;stroke-width:0.328;stroke-miterlimit:10;}
	.st2{fill:none;stroke:#000000;stroke-width:0.4411;}
	.st3{stroke:#221915;stroke-width:0.8861;stroke-miterlimit:10;}
	.st4{fill:#1751A0;stroke:#000000;stroke-width:2;stroke-miterlimit:10;}
	.st5{fill:#9C2321;stroke:#221915;stroke-width:0.934;stroke-miterlimit:10;}
	.st6{fill:none;stroke:#221915;stroke-width:0.6559;stroke-miterlimit:10;}
	.st7{fill:#C0773C;stroke:#000000;stroke-width:2;stroke-miterlimit:10;}
	.st8{fill:none;stroke:#FFFFFF;stroke-width:0.216;stroke-dasharray:2.4,2.4,2.4,2.4;}
	.st9{fill:#101010;stroke:#FFFFFF;stroke-width:0.216;stroke-dasharray:2.4,2.4,2.4,2.4;}
	.st10{fill:none;stroke:#000000;stroke-width:0.328;}
	.st11{fill:none;stroke:#000000;stroke-width:0.216;stroke-dasharray:2.4,2.4,2.4,2.4;}
	.st12{fill:#FFFFFF;}
	.st13{fill:none;stroke:#221915;stroke-width:0.506;stroke-miterlimit:10;}
	.st14{fill:none;stroke:#000000;stroke-width:2;stroke-linecap:round;stroke-linejoin:round;}
	.st15{fill:#0A1A34;}
	.st16{fill:url(#SVGID_1_);}
	.neckline{fill:none;stroke:#000000;stroke-width:0.6559;}
	]]>
</style>
<path class="st0" d="M479.23,242.92c0.48-0.32,0.74-0.9,0.64-1.49l-5.02-30.54l-1.1-8.04c0-0.03-0.01-0.07-0.02-0.1l-2.47-15
	c0-0.02-0.01-0.03-0.01-0.05l-4.8-30.31c-0.04-0.28-0.17-0.54-0.35-0.75c-3.38-20-11.16-55.53-26.13-75.33
	c-0.52-0.62-13.13-15.26-36.73-21.97c0,0-1.03-0.27-2.87-0.78c-2.56-0.8-5.01-1.49-7.48-2.1l-0.5-0.13
	c-6.06-1.72-15.43-4.45-25.7-7.69c-29.41-9.9-58.8-22.91-65.44-27.92c-0.21-0.16-0.46-0.26-0.73-0.29l-57.76-6.79
	c-0.06-0.01-0.12-0.01-0.18-0.01h-3.7c-0.06,0-0.12,0-0.18,0.01l-57.76,6.79c-0.26,0.03-0.52,0.13-0.73,0.29
	c-9.17,6.92-58.88,27.59-91.65,35.74c-4.37,1.09-8.71,2.41-12.89,3.93c-21.44,7.09-32.88,20.36-33.4,20.99
	c-16.72,22.11-24.46,64.06-27.01,81.07l-4,25.24c0,0.02-0.01,0.04-0.01,0.06l-2.47,15c0,0.02-0.01,0.04-0.01,0.07l-6.34,38.61
	c-0.11,0.67,0.24,1.32,0.85,1.6l-2.07,15.12c-0.1,0.72,0.34,1.41,1.03,1.63l78.6,25.16c0.4,0.13,0.83,0.08,1.2-0.12
	c0.36-0.21,0.63-0.56,0.72-0.96l10.17-43.56c0.01-0.06,0.02-0.11,0.03-0.17l0.57-3.69c4.88,32.86,18.56,131.74,15.1,185.47
	c-3.92,60.9-4.22,152.71-4.24,165.18c-0.61,1.14-0.03,2.26,0.2,2.73c0.02,0.03,0.03,0.06,0.05,0.09c-0.11,0.33-0.1,0.7,0.04,1.04
	c0.2,0.49,0.65,0.84,1.18,0.91c0.12,0.02,11.89,1.79,28.89,15.75l1.49,1.23c14.65,12.09,36.8,30.36,103.93,30.36
	c67.14,0,89.28-18.27,103.93-30.37l1.49-1.22c16.36-13.42,30-15.58,31.16-15.73c0.18,0.01,0.37-0.02,0.55-0.09
	c0.67-0.24,1.09-0.93,0.99-1.63c-0.04-0.3-0.18-0.58-0.38-0.79c-0.25-0.33-0.54-0.69-0.83-1.06c-0.01-6.31-0.17-103.1-4.25-166.39
	c-3.57-55.46,11.13-159.1,15.62-188.93l1.1,7.15c0.01,0.06,0.02,0.12,0.03,0.17l10.17,43.56c0.09,0.41,0.36,0.76,0.72,0.96
	c0.37,0.21,0.8,0.25,1.2,0.12l78.6-25.16c0.69-0.22,1.13-0.91,1.03-1.63L479.23,242.92z"/>
<path class="Colour1 fill" d="M386.19,197.13c-0.17-95.12,18.6-129.22,21.79-134.32c-4.59-1.79-9.71-3.46-15.44-4.89
	c-33.07-8.23-82.65-28.8-92.19-36l-57.76-6.79h-3.7l-57.76,6.79c-9.54,7.2-59.12,27.77-92.19,36c-5.09,1.27-9.71,2.73-13.9,4.29
	c1.4,2.05,22.35,34.45,22.17,134.91l-3.98,27.41c0,0,21.14,131.65,16.9,197.47c-3.99,61.88-4.22,154.65-4.24,165.55
	c-0.92,1.01,0.82,1.97,0.18,2.82c0,0,12.02,1.62,29.63,16.07c14.54,11.92,35.55,31.25,104.47,31.25
	c68.91,0,89.93-19.33,104.46-31.25c17.62-14.46,32.59-16.24,32.16-16.07c-0.41-0.54-0.89-1.14-1.41-1.75h0.19
	c0,0,0-100.79-4.24-166.61c-4.24-65.83,16.9-197.47,16.9-197.47L386.19,197.13z"/>
<path class="Colour1 fill" d="M467.61,169c-1.06-12.34-9.61-58.62-27.62-86.39c0,0-9.54-11.53-32.03-20.11c0.02,0.2,0.03,0.31,0.03,0.31
	c-3.19,5.1-21.96,39.2-21.79,134.32l2.06,27.41c0,0,0.12,0.98,0.34,2.76c0.28-1.78,0.43-2.76,0.43-2.76l11.56,62.74
	c0,0,27.43-2.62,43.19-18.28c15.77-15.66,37.48-17.72,37.48-17.72S468.67,181.34,467.61,169z"/>
<path class="Colour1 fill" d="M82.45,287.28l10.98-59.55c-0.11-2.05-0.18-3.19-0.18-3.19l3.98-27.41C97.39,99.34,77.55,66.05,75.21,62.45
	c-22.59,8.59-32.16,20.16-32.16,20.16C25.03,110.38,16.48,156.66,15.42,169c-1.06,12.34-13.65,82.28-13.65,82.28
	s21.72,2.06,37.49,17.72C55.02,284.66,82.45,287.28,82.45,287.28z"/>
<path class="st1" d="M467.36,169c-1.06-12.34-9.61-58.62-27.62-86.39c0,0-13.61-16.46-46.67-24.69c-33.07-8.23-82.65-28.8-92.19-36
	l-57.76-6.79h-3.7l-57.76,6.79c-9.54,7.2-59.12,27.77-92.19,36C56.4,66.15,42.8,82.61,42.8,82.61
	C24.78,110.38,16.24,156.66,15.17,169c-1.06,12.34-13.65,82.28-13.65,82.28s21.72,2.06,37.49,17.72
	c15.76,15.66,43.19,18.28,43.19,18.28l11.56-62.74c0,0,21.14,131.65,16.9,197.47c-3.99,61.88-4.22,154.65-4.24,165.55
	c-0.92,1.01,0.82,1.97,0.18,2.82c0,0,12.02,1.62,29.63,16.07c14.54,11.92,35.55,31.25,104.47,31.25
	c68.91,0,89.93-19.33,104.46-31.25c17.62-14.46,32.59-16.24,32.16-16.07c-0.41-0.54-0.89-1.14-1.41-1.75h0.19
	c0,0,0-100.79-4.24-166.61c-4.24-65.83,16.9-197.47,16.9-197.47l11.56,62.74c0,0,27.43-2.62,43.19-18.28
	c15.76-15.66,37.48-17.72,37.48-17.72S468.43,181.34,467.36,169z"/>
<path class="st2" d="M75.5,62.11c0,0,22.43,31.09,22.25,135.02"/>
<polygon class="st3" points="3.47,242.86 84.01,280.8 81.99,288.26 1.5,261.32 "/>
<polygon class="st4" points="3.47,242.86 84.01,280.8 81.99,288.26 1.5,261.32 "/>
<polygon class="st5" points="479.54,242.82 398.88,280.82 400.9,288.3 481.5,261.31 "/>
<polygon class="st4" points="479.54,242.82 398.88,280.82 400.9,288.3 481.5,261.31 "/>
<path class="NeckTrim fill" d="M178.48,13.95l18.96-5.3l1.01,12.94l-25.99,6.21C172.46,27.79,176.11,22.2,178.48,13.95"/>
<path class="st6" d="M178.48,13.95l18.96-5.3l1.01,12.94l-25.99,6.21C172.46,27.79,176.11,22.2,178.48,13.95z"/>
<path class="NeckTrim fill" d="M301.62,13.95l-20.67-5.3l-1.01,12.94l29.4,6.21C309.34,27.79,303.99,22.2,301.62,13.95"/>
<path class="st6" d="M301.62,13.95l-20.67-5.3l-1.01,12.94l29.4,6.21C309.34,27.79,303.99,22.2,301.62,13.95z"/>
<path class="st2" d="M408.97,62.11c0,0-22.43,31.09-22.25,135.02"/>
<path class="st7" d="M246.79,643.72c-23.04,0-44.92-2.33-47.58-2.63c-24.82-1.12-61.42-29.97-62.97-31.2l-0.4-0.35
	c-4.35-4.2-19.61-11.91-28.2-15.79l-0.07-2.28l-0.52-10.33l5.06,2.28c2.43,1.09,23.76,10.82,31.12,17.7
	c10,7.9,39.08,28.01,56.62,28.69l0.4,0.03c0.56,0.06,56.55,6.23,83.58-0.77l0.79-0.14c0.23-0.03,24.48-2.9,47.74-21.61
	c2.48-2.48,21.83-21.42,38.4-24.31l5.45-0.95l0.61,11.13l-4.2,0.95c-11.56,2.01-27.51,16.14-32.69,21.41l-0.47,0.43
	c-24.51,19.83-49.59,23.66-53.27,24.13C275.36,642.85,260.86,643.72,246.79,643.72"/>
<path class="st8" d="M84.56,284.81c0,0-27.9-2.66-43.95-18.6c-16.04-15.94-38.14-18.03-38.14-18.03"/>
<path class="st8" d="M84.56,283.03c0,0-27.9-2.66-43.95-18.6C24.57,248.5,2.47,246.41,2.47,246.41"/>
<path class="st8" d="M398.94,282.32c0,0,27.9-2.66,43.95-18.6c16.04-15.94,38.14-18.03,38.14-18.03"/>
<path class="st9" d="M398.94,280.55c0,0,27.9-2.66,43.95-18.6c16.04-15.94,38.14-18.03,38.14-18.03"/>
<path class="st10" d="M89.28,95.02c0,0,124.22-32.47,305.43,0"/>
<path class="st8" d="M89.28,98.57c0,0,124.22-32.47,305.43,0"/>
<path class="st11" d="M89.28,100.35c0,0,124.22-32.47,305.43,0"/>
<path class="NeckTrim fill" d="M289.59,10.88c-37.07-9.43-66.95-9.03-105.27,1.33l4.87,11.98c14.41-5.38,31.83-6.54,49.35-6.55
	c16.58,0,33.25,0.88,47.57,5.27L289.59,10.88z"/>
<path class="st13" d="M289.59,10.88c-37.07-9.43-66.95-9.03-105.27,1.33l4.87,11.98c14.41-5.38,31.83-6.54,49.35-6.55
	c16.58,0,33.25,0.88,47.57,5.27L289.59,10.88z"/>
<path class="NeckTrim fill" d="M177.49,16.34l0.75-4.66c3.34-1.24,65.32-21.76,123.79,0l0.75,4.66C243.39-5.77,178.09,16.11,177.49,16.34
	"/>
<path class="neckline" d="M177.49,16.34c0.6-0.22,65.9-22.11,125.29,0l-0.75-4.66c-58.46-21.76-120.45-1.24-123.79,0L177.49,16.34z"/>
<path class="BottomHem fill" d="M246.79,643.72c-23.04,0-44.92-2.33-47.58-2.63c-24.82-1.12-61.42-29.97-62.97-31.2l-0.4-0.35
	c-4.35-4.2-19.61-11.91-28.2-15.79l-0.07-2.28l-0.52-10.33l5.06,2.28c2.43,1.09,23.76,10.82,31.12,17.7
	c10,7.9,39.08,28.01,56.62,28.69l0.4,0.03c0.56,0.06,56.55,6.23,83.58-0.77l0.79-0.14c0.23-0.03,24.48-2.9,47.74-21.61
	c2.48-2.48,21.83-21.42,38.4-24.31l5.45-0.95l0.61,11.13l-4.2,0.95c-11.56,2.01-27.51,16.14-32.69,21.41l-0.47,0.43
	c-24.51,19.83-49.59,23.66-53.27,24.13C275.36,642.85,260.86,643.72,246.79,643.72z"/>
<linearGradient id="SVGID_1_" gradientUnits="userSpaceOnUse" x1="242.2382" y1="202.7505" x2="242.2382" y2="24.1436">
	<stop class="Gradient1 stopColor" offset="0" style="stop-color:#DCE294"/>
	<stop class="Gradient2 stopColor" offset="0.6417" style="stop-color:#6CA274;stop-opacity:0.5"/>
	<stop class="Gradient1 stopColor" offset="1" style="stop-color:#DCE294"/>
</linearGradient>
<polygon class="Colour2 fill" points="94.5,192.44 17.56,157.63 12.75,187.96 94.12,222.85 "/>
<polygon class="Colour3 fill" points="12.75,187.96 10.28,203.03 91.49,239.94 94.12,222.85 "/>
<polygon class="ArmTrim fill" points="10.28,203.03 2.71,258.36 81.31,283.53 91.49,239.94 "/>
<polygon class="Colour2 fill" points="388.04,192.44 464.98,157.63 469.79,187.96 388.42,222.85 "/>
<polygon class="Colour3 fill" points="469.79,187.96 472.26,203.03 391.05,239.94 388.42,222.85 "/>
<polygon class="ArmTrim fill" points="472.26,203.03 479.83,258.36 401.23,283.53 391.05,239.94 "/>
<g id="BBodyLogos"></g>
</svg>
