<?xml version="1.0" encoding="utf-8"?>
<!-- Generator: Adobe Illustrator 19.1.0, SVG Export Plug-In . SVG Version: 6.00 Build 0)  -->
<svg version="1.1" id="Layer_1" xmlns="http://www.w3.org/2000/svg" xmlns:xlink="http://www.w3.org/1999/xlink" x="0px" y="0px"
	 viewBox="0 0 483.01 645.44" style="enable-background:new 0 0 483.01 645.44;" xml:space="preserve">
<style type="text/css">
	<![CDATA[
	@font-face{font-family:'codaheavy';src:url('/fonts/coda-heavy-webfont.woff') format('woff')}
	text{font-family:Impact,codaheavy,sans-serif}
	.Colour1.fill{fill:#BE354D;}
	.Colour2.fill{fill:#603452;}
	.Insert.fill{fill:#603452;}
	.ArmTrim.fill{fill:#603452;}
	.NeckTrim.fill{fill:#603452;}
	.BottomHem.fill{fill:#603452;}
	.st0{fill:none;stroke:#000000;stroke-width:2;stroke-linecap:round;stroke-linejoin:round;}
	.st1{fill:#10122C;stroke:#000000;stroke-width:3;stroke-miterlimit:10;}
	.st2{fill:none;stroke:#221915;stroke-width:0.216;stroke-linecap:round;stroke-linejoin:round;}
	.st3{fill:none;stroke:#0A0505;stroke-width:0.6559;stroke-miterlimit:10;}
	.st4{fill:none;stroke:#FFFFFF;stroke-width:0.328;}
	.st5{fill:none;stroke:#FFFFFF;stroke-width:0.216;stroke-dasharray:2.4,2.4,2.4,2.4;}
	.st6{fill:none;stroke:#101010;stroke-width:0.216;stroke-dasharray:2.4,2.4,2.4,2.4;}
	.st7{fill:#FFFFFF;}
	.st8{fill:none;stroke:#221915;stroke-width:0.233;stroke-miterlimit:10;}
	.st9{fill:none;stroke:#221915;stroke-width:0.36;stroke-miterlimit:10;}
	.st10{fill:none;stroke:#0A0505;stroke-width:0.233;stroke-miterlimit:10;}
	.st11{fill:#4D4E4E;stroke:#000000;stroke-width:0.5;}
	.st12{fill:none;}
	.st13{fill:#9E802E;}
	.st14{fill:#C6C62E;}
	.st15{fill:none;stroke:#000000;stroke-width:0.4411;}
	.st16{fill:#FFFFFF;stroke:#000000;stroke-width:2;stroke-miterlimit:10;}
	.white{fill:#ffffff;}
	]]>
</style>
<path class="Colour1 fill" d="M467.39,167.2c-1.06-12.37-9.61-58.76-27.62-86.6c0,0-13.6-16.49-46.65-24.74
	c-33.06-8.25-82.62-28.87-92.15-36.08l-57.74-7h-3.7l-57.74,7c-9.53,7.22-59.09,27.83-92.15,36.08C56.6,64.11,43,80.6,43,80.6
	c-18.01,27.83-26.55,74.23-27.62,86.6c-1.06,12.37-13.64,82.47-13.64,82.47s21.71,2.06,37.47,17.76
	c15.76,15.7,43.18,18.32,43.18,18.32l11.55-62.89c0,0,21.13,131.96,16.9,197.94c-4.24,65.98-4.24,167-4.24,167h132.94h3.7h132.94
	c0,0,0-101.03-4.24-167c-4.23-65.98,16.9-197.94,16.9-197.94l11.55,62.89c0,0,27.42-2.62,43.18-18.32
	c15.76-15.7,37.47-17.76,37.47-17.76S468.45,179.57,467.39,167.2"/>
<path class="Colour1 fill" d="M411.86,61.76c0,0-22.42,31.16-22.24,135.34l-0.94,26.74"/>
<path class="Colour1 fill" d="M93.55,222.18l0.39-25.08c0.17-96.04-18.87-130.02-21.85-134.75"/>
<path class="Colour1 fill" d="M82.39,285.75l11.55-62.89c0,0,6.21-103.15-20.72-158.58l-1.58-2.48C51.58,70.22,43,80.6,43,80.6
	c-18.01,27.83-26.55,74.23-27.62,86.6c-1.06,12.37-13.64,82.47-13.64,82.47s21.71,2.06,37.47,17.76
	C54.97,283.13,82.39,285.75,82.39,285.75z"/>
<path class="Colour1 fill" d="M400.86,285.75l-11.55-62.89c0,0-6.21-103.15,20.72-158.58l1.58-2.48c20.06,8.41,28.64,18.8,28.64,18.8
	c18.01,27.83,26.55,74.23,27.62,86.6c1.06,12.37,13.64,82.47,13.64,82.47s-21.71,2.06-37.47,17.76
	C428.27,283.13,400.86,285.75,400.86,285.75z"/>
<path class="st0" d="M43.82,80.47c0.03-0.03,0.05-0.06,0.09-0.1 M43.73,80.57c0.01-0.01,0.02-0.02,0.04-0.04 M43.73,80.57
	c-0.01,0.02-0.02,0.03-0.03,0.03 M35.19,96.48c-0.35,0.77-0.69,1.54-1.03,2.32 M44.96,79.24c-0.46,0.47-0.79,0.83-1,1.06
	 M31.19,106.09c-0.71,1.85-1.39,3.7-2.05,5.56 M38.15,90.31c-0.49,0.97-0.98,1.95-1.46,2.94 M43.82,80.47
	c-0.02,0.02-0.04,0.04-0.05,0.06 M72.34,61.8C72.34,61.8,72.34,61.81,72.34,61.8 M412.21,61.96c-5.3-2.24-11.4-4.35-18.38-6.1
	c-33.06-8.25-82.62-28.87-92.15-36.08l-57.74-7h-3.7l-57.74,7c-9.53,7.22-59.09,27.83-92.15,36.08c-6.82,1.7-12.8,3.76-18.01,5.94
	 M92.85,232.63l1.79-9.76c0,0,21.13,131.96,16.9,197.94c-4.24,65.98-4.24,167-4.24,167h132.94h3.7h132.94c0,0,0-101.03-4.24-167
	c-4.23-65.98,16.9-197.94,16.9-197.94l11.55,62.89c0,0,0.17-0.02,0.46-0.05 M72.34,61.81c-15.69,6.58-24.35,14.35-27.37,17.43
	 M44.96,79.24C44.96,79.24,44.96,79.24,44.96,79.24 M43.97,80.3c-0.02,0.02-0.04,0.04-0.05,0.06 M14.81,176.94
	c0.15-0.98,0.28-1.92,0.41-2.8 M4.9,235.88c0.48-2.75,1.02-5.8,1.59-9.04 M6.77,225.2c0.21-1.2,0.42-2.42,0.64-3.66 M10.05,206.19
	c0.63-3.7,1.25-7.4,1.84-10.96 M8.56,214.86c0.32-1.88,0.65-3.78,0.97-5.68 M3.8,242.06c0.32-1.81,0.69-3.89,1.09-6.19 M7.96,250.63
	c-3.4-0.76-5.52-0.96-5.52-0.96v0 M7.41,221.54c0.18-1.04,0.36-2.09,0.55-3.16 M20.7,141.03c-0.1,0.44-0.2,0.87-0.3,1.3
	 M17.55,156.67c-0.04,0.23-0.08,0.46-0.11,0.68 M13.96,182.47c0.17-1.06,0.33-2.08,0.48-3.07 M20.4,142.33
	c-1.2,5.33-2.15,10.2-2.86,14.34 M24.62,125.85c-0.67,2.35-1.31,4.67-1.9,6.95 M83.09,285.75l9.76-53.13 M22.72,132.79
	c-0.74,2.83-1.4,5.58-2.02,8.23 M25.82,257.17c-6.87-3.63-13.44-5.55-17.86-6.54 M401.55,285.7c3.58-0.42,28.13-3.74,42.72-18.27
	c15.76-15.7,37.47-17.76,37.47-17.76s-12.58-70.1-13.64-82.47c-1.06-12.37-9.61-58.76-27.62-86.6c0,0-8.47-10.26-28.27-18.65
	 M14.44,179.4c0.13-0.85,0.26-1.67,0.37-2.47 M13.26,186.88c0.25-1.52,0.48-2.99,0.7-4.41 M36.7,93.25
	c-0.51,1.07-1.02,2.14-1.51,3.23 M7.95,218.38c0.2-1.17,0.4-2.34,0.61-3.53 M12.45,191.81c0.18-1.12,0.37-2.23,0.54-3.32
	 M29.14,111.66c-1.67,4.75-3.18,9.52-4.52,14.19 M9.54,209.18c0.17-1,0.34-1.99,0.51-2.99 M17.43,157.35
	c-0.7,4.2-1.15,7.6-1.34,9.85c-0.05,0.58-0.12,1.29-0.22,2.11 M34.16,98.8c-1.04,2.39-2.03,4.83-2.97,7.29 M25.82,257.17
	c4.76,2.52,9.66,5.85,14.09,10.27c15.76,15.7,43.18,18.32,43.18,18.32l0,0 M2.45,249.67c0,0,0.52-2.89,1.36-7.61 M43.71,80.6
	C43.71,80.6,43.7,80.6,43.71,80.6c-1.97,3.04-3.81,6.3-5.55,9.71 M15.22,174.13c0.27-1.87,0.49-3.5,0.64-4.83 M14.44,179.4
	c0.13-0.85,0.26-1.67,0.37-2.47 M20.4,142.33c-1.2,5.33-2.15,10.2-2.86,14.34 M15.22,174.13c0.27-1.87,0.49-3.5,0.64-4.83
	 M17.55,156.67c-0.04,0.23-0.08,0.46-0.11,0.68 M20.7,141.03c-0.1,0.44-0.2,0.87-0.3,1.3 M13.96,182.47
	c0.17-1.06,0.33-2.08,0.48-3.07 M24.62,125.85c-0.67,2.35-1.31,4.67-1.9,6.95 M9.54,209.18c0.17-1,0.34-1.99,0.51-2.99 M3.8,242.06
	c0.32-1.81,0.69-3.9,1.09-6.19 M4.9,235.88c0.48-2.75,1.02-5.8,1.59-9.04 M10.05,206.19c0.63-3.7,1.25-7.4,1.84-10.96 M7.96,250.63
	c-3.4-0.76-5.52-0.96-5.52-0.96 M2.45,249.67L2.45,249.67c0,0,0.52-2.89,1.36-7.61 M6.77,225.2c0.21-1.2,0.42-2.42,0.64-3.66
	 M7.95,218.38c0.2-1.17,0.4-2.34,0.61-3.53 M12.45,191.81c0.18-1.12,0.37-2.23,0.54-3.32 M13.26,186.88
	c0.25-1.52,0.48-2.99,0.7-4.41 M7.41,221.54c0.18-1.04,0.36-2.09,0.55-3.16 M8.56,214.86c0.32-1.88,0.65-3.78,0.97-5.68
	 M43.82,80.47c-0.02,0.02-0.04,0.04-0.05,0.06 M43.73,80.57c-0.02,0.02-0.02,0.03-0.03,0.03 M35.19,96.48
	c-0.35,0.77-0.69,1.54-1.03,2.32 M44.96,79.24c-0.46,0.47-0.79,0.83-1,1.06 M38.15,90.31c-0.49,0.97-0.98,1.95-1.46,2.94
	 M43.73,80.57c0.01-0.01,0.02-0.03,0.04-0.04 M31.19,106.09c-0.71,1.85-1.39,3.7-2.05,5.56 M43.91,80.36
	c-0.03,0.04-0.06,0.07-0.09,0.1 M25.82,257.17c4.76,2.52,9.66,5.85,14.09,10.27c15.76,15.7,43.17,18.32,43.18,18.32 M72.34,61.81
	c-15.67,6.57-24.33,14.35-27.37,17.43 M43.71,80.6C43.71,80.6,43.7,80.6,43.71,80.6c-1.97,3.04-3.81,6.3-5.55,9.71 M72.34,61.8
	L72.34,61.8C72.34,61.8,72.34,61.81,72.34,61.8 M17.43,157.35c-0.7,4.2-1.15,7.6-1.34,9.85c-0.05,0.58-0.12,1.29-0.22,2.11
	 M22.72,132.79c-0.74,2.83-1.4,5.58-2.02,8.23 M44.96,79.24C44.96,79.24,44.96,79.24,44.96,79.24 M36.7,93.25
	c-0.51,1.07-1.02,2.14-1.51,3.23 M14.81,176.94c0.15-0.98,0.28-1.92,0.41-2.8 M34.16,98.8c-1.04,2.39-2.03,4.83-2.97,7.29
	 M83.09,285.75L83.09,285.75l9.76-53.13 M29.14,111.66c-1.67,4.75-3.18,9.52-4.52,14.19 M25.82,257.17
	c-6.87-3.63-13.44-5.55-17.86-6.54 M43.97,80.3c-0.02,0.02-0.04,0.04-0.05,0.06 M6.48,226.84c0.09-0.54,0.19-1.09,0.29-1.64
	 M13.26,186.88c-0.09,0.53-0.17,1.07-0.26,1.61 M11.89,195.23c0.19-1.15,0.38-2.3,0.56-3.42 M401.55,285.7l0.01,0.05
	c0,0,27.41-2.62,43.18-18.32c15.76-15.7,37.47-17.76,37.47-17.76s-12.58-70.1-13.64-82.47c-1.06-12.37-9.61-58.76-27.62-86.6
	c0,0-8.58-10.39-28.64-18.8l-0.1,0.15"/>
<g>
	<path class="st1" d="M388.6,226.37L388.6,226.37c0,0-0.04,0.23-0.1,0.65C388.56,226.61,388.6,226.37,388.6,226.37z"/>
</g>
<path class="st2" d="M321.18,62.03"/>
<path class="st2" d="M317.05,58.05"/>
<path class="st2" d="M309,62.32"/>
<path class="Colour2 fill" d="M110.97,416.49h260.36c0.09,2.69,0.21,5.31,0.37,7.82c0.17,2.7,0.34,5.46,0.5,8.27H110.1
	c0.16-2.81,0.32-5.57,0.5-8.27C110.76,421.8,110.88,419.18,110.97,416.49z M373.17,452.08H109.13c-0.23,5.29-0.44,10.67-0.64,16.1
	h265.32C373.62,462.75,373.4,457.37,373.17,452.08z M108.24,345.31c0.45,5.38,0.87,10.77,1.23,16.1h263.36
	c0.37-5.33,0.78-10.71,1.23-16.1H108.24z M110.58,380.9c0.24,5.51,0.42,10.89,0.51,16.1h260.12c0.09-5.21,0.26-10.59,0.51-16.1
	H110.58z M107.87,487.67c-1.5,52.99-1.51,103.65-1.51,103.65H239.3h3.7h132.94c0,0,0-50.65-1.5-103.65H107.87z"/>
<path class="Colour1 fill" d="M136.17,609.18c14.53,11.95,35.54,31.32,104.42,31.32c68.89,0,89.89-19.37,104.42-31.32
	c11.78-9.69,22.37-13.7,27.97-15.24c1.94-0.53,2.58-2.93,1.2-4.39c-2.21-2.33-5.18-4.93-9.09-7.4c-7-4.44-10.54-8.63-37.84-11.19
	c-5.98-0.56-13.12-1.04-21.66-1.43c-15.54-0.71-38.28-0.88-64.99-0.88c-26.73,0-49.45,0.18-65,0.88
	c-8.54,0.39-15.68,0.86-21.66,1.43c-27.3,2.55-30.84,6.75-37.84,11.19c-3.92,2.48-6.9,5.09-9.11,7.42
	c-1.38,1.46-0.74,3.87,1.21,4.39C113.74,595.46,124.25,599.37,136.17,609.18"/>
<path class="st3" d="M136.17,609.18c14.53,11.95,35.54,31.32,104.42,31.32c68.89,0,89.89-19.37,104.42-31.32
	c11.46-9.43,21.79-13.48,27.5-15.11c2.15-0.61,2.89-3.27,1.33-4.87c-2.17-2.24-5.04-4.7-8.76-7.06c-7-4.44-10.54-8.63-37.84-11.19
	c-5.98-0.56-13.12-1.04-21.66-1.43c-15.54-0.71-38.28-0.88-64.99-0.88c-26.73,0-49.45,0.18-65,0.88
	c-8.54,0.39-15.68,0.86-21.66,1.43c-27.3,2.55-30.84,6.75-37.84,11.19c-3.73,2.36-6.6,4.83-8.78,7.07c-1.55,1.6-0.82,4.27,1.33,4.87
	C114.3,595.68,124.57,599.64,136.17,609.18z"/>
<line class="st4" x1="185.75" y1="57.37" x2="81.8" y2="95.22"/>
<line class="st5" x1="180.37" y1="56.67" x2="81.8" y2="91.73"/>
<line class="st5" x1="181.36" y1="57.95" x2="81.8" y2="93.76"/>
<line class="st4" x1="297.55" y1="57.37" x2="401.5" y2="95.22"/>
<line class="st5" x1="302.93" y1="56.67" x2="401.5" y2="91.73"/>
<line class="st5" x1="302.93" y1="58.42" x2="401.5" y2="93.47"/>
<path class="st5" d="M312.4,567.73l9.73-185.56c0,0,4.05-25.16,13.87-47.33c16.57-40.34,49.66-120.86,55.16-134.26"/>
<path class="st5" d="M314.15,567.73l9.73-185.56c0,0,4.05-25.16,13.87-47.33c16.57-40.34,49.66-120.86,55.16-134.26"/>
<path class="st5" d="M170.97,567.73l-9.73-185.56c0,0-4.05-25.16-13.87-47.33C130.8,294.5,97.71,213.98,92.21,200.57"/>
<path class="st5" d="M169.22,567.73l-9.73-185.56c0,0-4.05-25.16-13.87-47.33c-16.57-40.34-49.66-120.86-55.16-134.26"/>
<path class="st5" d="M377.15,587.83c-2.2-2.95-5.99-7.09-12.07-10.92c-7.01-4.44-10.54-8.63-37.84-11.19
	c-5.98-0.56-13.12-1.04-21.67-1.43c-15.54-0.71-38.28-0.89-64.99-0.89c-26.73,0-49.45,0.18-65,0.89
	c-8.54,0.38-15.68,0.86-21.66,1.43c-27.3,2.56-30.84,6.75-37.85,11.19c-6.07,3.84-9.87,7.98-12.07,10.92"/>
<path class="st5" d="M377.15,584.34c-2.2-2.95-5.99-7.09-12.07-10.92c-7.01-4.44-10.54-8.63-37.84-11.19
	c-5.98-0.56-13.12-1.04-21.67-1.43c-15.54-0.71-38.28-0.89-64.99-0.89c-26.73,0-49.45,0.18-65,0.89
	c-8.54,0.38-15.68,0.86-21.66,1.43c-27.3,2.56-30.84,6.75-37.85,11.19c-6.07,3.84-9.87,7.98-12.07,10.92"/>
<path class="st6" d="M74.97,65.26c0,0,22.42,31.16,22.24,135.34"/>
<path class="st6" d="M408.27,65.26c0,0-22.42,31.16-22.24,135.34"/>
<path class="st2" d="M277.79,56.76"/>
<path class="st2" d="M269.71,61.05"/>
<path class="st7" d="M180.59,38.05c20.48-22.33,96.57-26.13,120.95-1.7l-6.27-13.38c-21.91-7.01-37.53-11.63-53.15-11.66
	c-15.62-0.03-31.23,4.52-53.15,11.53L180.59,38.05z"/>
<path class="st8" d="M180.59,38.05c20.48-22.33,96.57-26.13,120.95-1.7l-6.27-13.38c-21.91-7.01-37.53-11.63-53.15-11.66
	c-15.62-0.03-31.23,4.52-53.15,11.53L180.59,38.05z"/>
<path class="white" d="M192.54,21.39c10.93-3.81,27.89-8.29,48.97-8.29c21.07,0,38.02,4.48,48.95,8.29c0.37,7.1-0.26,17.42-6.41,26.59
	c-3.21,4.78-5.79,7.47-12.6,12.68c-8.34,6.38-17.75,14.74-20.48,22.2c-6.3,0-12.6,0-18.91,0c-2.9-7.21-7.2-11.02-10.03-13.69
	c-3.75-3.53-4.84-4.11-12.02-10.09c-4.66-3.88-7.08-5.92-9.45-9.51c-2.39-3.61-3.38-6.72-4.73-11.1
	C194.58,34.46,193.15,28.66,192.54,21.39z"/>
<path class="st2" d="M265.68,57.16"/>
<path class="st2" d="M257.83,61.33"/>
<path class="NeckTrim fill" d="M284.76,7.64c-31.34-8-56.6-7.65-89,1.13l4.12,10.16c12.18-4.56,26.9-5.55,41.72-5.55
	c14.02,0,28.11,0.75,40.22,4.47L284.76,7.64z"/>
<path class="st9" d="M284.76,7.64c-31.34-8-56.6-7.65-89,1.13l4.12,10.16c12.18-4.56,26.9-5.55,41.72-5.55
	c14.02,0,28.11,0.75,40.22,4.47L284.76,7.64z"/>
<path class="NeckTrim fill" d="M190.83,10.24l16.03-4.49l2.56,10.97l-19.34,5.27C190.08,21.98,188.82,17.23,190.83,10.24"/>
<path class="st9" d="M190.83,10.24l16.03-4.49l2.56,10.97l-19.34,5.27C190.08,21.98,188.82,17.23,190.83,10.24z"/>
<path class="st11" d="M293.49,10.24l-16.03-4.49l-2.56,10.97l19.34,5.27C294.24,21.98,295.49,17.23,293.49,10.24"/>
<path class="NeckTrim fill" d="M293.49,10.24l-16.03-4.49l-2.56,10.97l19.34,5.27C294.24,21.98,295.49,17.23,293.49,10.24z"/>
<path class="Colour1 fill" d="M176.64,27.67l-10.58,5.17c0,0-3.09,13.97,12.45,28.83l8.91-3.39C187.42,58.28,176.87,48.19,176.64,27.67"
	/>
<path class="Colour1 fill" d="M308.25,27.67l8.88,5.17c0,0,2.4,13.97-13.15,28.83l-4.82-3.39C299.17,58.28,308.03,48.19,308.25,27.67"/>
<path class="NeckTrim fill" d="M294.34,11.62l14.61,17.24c0,0,1.19,25.32-15.53,36.94c-4.5,3.12-16.64,11.04-21.51,13.99
	c-13.26,8.01-18.59,9.71-18.59,9.71s0.17-10.37,3.85-12.57c0,0,26.09-22.15,28.18-25.13C287.44,48.81,295.56,26.25,294.34,11.62"/>
<path class="st10" d="M294.34,11.62l14.61,17.24c0,0,1.19,25.32-15.53,36.94c-4.5,3.12-16.64,11.04-21.51,13.99
	c-13.26,8.01-18.59,9.71-18.59,9.71s0.17-10.37,3.85-12.57c0,0,26.09-22.15,28.18-25.13C287.44,48.81,295.56,26.25,294.34,11.62z"/>
<path class="NeckTrim fill" d="M188.78,11.62l-14.61,17.24c0,0-1.19,25.32,15.53,36.94c4.5,3.12,16.64,11.04,21.51,13.99
	c13.26,8.01,18.59,9.71,18.59,9.71s-0.17-10.37-3.85-12.57c0,0-26.09-22.15-28.18-25.13C195.68,48.81,187.55,26.25,188.78,11.62"/>
<path class="st10" d="M188.78,11.62l-14.61,17.24c0,0-1.19,25.32,15.53,36.94c4.5,3.12,16.64,11.04,21.51,13.99
	c13.26,8.01,18.59,9.71,18.59,9.71s-0.17-10.37-3.85-12.57c0,0-26.09-22.15-28.18-25.13C195.68,48.81,187.55,26.25,188.78,11.62z"/>
<path class="Insert fill" d="M229.8,81.83h23l-3.58,8.64c0,0-5.87,2.08-14.73,0L229.8,81.83z"/>
<path class="st12" d="M230.38,81.28h23l-3.58,8.64c0,0-5.87,2.08-14.73,0L230.38,81.28z"/>
<path class="st5" d="M165.45,33.14c1.07,17.69,13.06,30.02,13.06,30.02c21.35,21.07,46.51,31.22,46.51,31.22s8.73,1.78,14.04,1.78
	h4.16c5.31,0,14.04-1.78,14.04-1.78s25.16-10.15,46.51-31.22c0,0,11.99-12.33,13.06-30.02"/>
<path class="st5" d="M169.76,30.94c-1.49,11.32,10.13,28.68,10.13,28.68c21.35,21.07,46.62,31.49,46.62,31.49s8.24,2.28,13.55,2.28
	h2.16c5.31,0,13.55-2.28,13.55-2.28s25.27-10.42,46.62-31.49c0,0,11.63-17.36,10.13-28.68"/>
<path class="st13" d="M253.31,89.49c0.02-0.06,1.78-3.95,3.8-9.14c1.21-3.09,8.38-8.94,15.32-14.6c3.55-2.89,7.22-5.88,10.62-8.91
	c16.24-14.4,14.61-36.71,12.75-44.03c-0.8-3.15-7.02-5.72-18.5-7.64l-0.67,2.98c6.69,1.12,13.39,3.1,14.69,4.32
	c0.52,3.84-1.92,32.37-11.45,40.81c-3.34,2.96-6.96,5.92-10.48,8.78c-9.35,7.63-15.16,12.5-16.75,16.56
	c-2.11,5.41-3.87,11.7-3.95,11.97L253.31,89.49z"/>
<path class="NeckTrim fill" d="M253.31,89.49c0.02-0.06,1.78-3.95,3.8-9.14c1.21-3.09,8.38-8.94,15.32-14.6
	c3.55-2.89,7.22-5.88,10.62-8.91c16.24-14.4,14.61-36.71,12.75-44.03c-0.8-3.15-7.02-5.72-18.5-7.64l-0.67,2.98
	c6.69,1.12,13.39,3.1,14.69,4.32c0.52,3.84-1.92,32.37-11.45,40.81c-3.34,2.96-6.96,5.92-10.48,8.78
	c-9.35,7.63-15.16,12.5-16.75,16.56c-2.11,5.41-3.87,11.7-3.95,11.97L253.31,89.49z"/>
<path class="st14" d="M230.46,89.49c-0.02-0.06-1.78-3.95-3.8-9.14c-1.21-3.09-8.38-8.94-15.32-14.6
	c-3.55-2.89-7.22-5.88-10.63-8.91c-7.52-6.66-12.65-44.44-12.75-44.03c0.8-3.15,7.02-5.72,18.5-7.64l0.67,2.98
	c-6.69,1.12-13.39,3.1-14.69,4.32c-0.52,3.84,1.92,32.37,11.45,40.81c3.34,2.96,6.96,5.92,10.48,8.78
	c9.35,7.63,15.17,12.5,16.75,16.56c2.11,5.41,3.87,11.7,3.95,11.97L230.46,89.49z"/>
<path class="NeckTrim fill" d="M230.46,89.49c-0.02-0.06-1.78-3.95-3.8-9.14c-1.21-3.09-8.38-8.94-15.32-14.6
	c-3.55-2.89-7.22-5.88-10.63-8.91c-7.52-6.66-12.65-44.44-12.75-44.03c0.8-3.15,7.02-5.72,18.5-7.64l0.67,2.98
	c-6.69,1.12-13.39,3.1-14.69,4.32c-0.52,3.84,1.92,32.37,11.45,40.81c3.34,2.96,6.96,5.92,10.48,8.78
	c9.35,7.63,15.17,12.5,16.75,16.56c2.11,5.41,3.87,11.7,3.95,11.97L230.46,89.49z"/>
<path class="st15" d="M411.62,65.26c0,0-22.42,31.16-22.24,135.34l-0.94,26.74"/>
<path class="st15" d="M71.46,65.26c0,0,22.42,31.16,22.24,135.34l-0.39,25.08"/>
<path class="st16" d="M388.6,226.37L388.6,226.37c0,0-0.04,0.23-0.1,0.65C388.56,226.61,388.6,226.37,388.6,226.37z"/>
<path class="st12" d="M467.15,170.71c-1.06-12.37-9.61-58.76-27.62-86.6c0,0-8.42-10.2-28.1-18.57
	c-2.12,3.23-22.23,36.39-22.06,135.07l-0.94,26.74c0.1-0.63,0.15-0.96,0.15-0.96l11.55,62.89c0,0,27.42-2.62,43.18-18.32
	c15.76-15.7,37.47-17.76,37.47-17.76S468.21,183.08,467.15,170.71z"/>
<path class="ArmTrim fill" d="M478.18,253.18c0,0-20.63,2.06-35.6,17.76c-14.98,15.7-41.02,18.32-41.02,18.32l-5.52-31.6l79.14-22.3
	C476.91,245.77,478.18,253.18,478.18,253.18z"/>
<path class="Colour2 fill" d="M469.67,201.67c-0.32-2.03-0.64-4.04-0.94-5.99l-77.97,21.97l-0.21,6.31L469.67,201.67z M471.8,214.9
	c-0.32-1.99-0.65-3.99-0.97-5.98l-79.4,22.37l1.04,5.96L471.8,214.9z M391.22,203.69l-0.21,6.31l76.6-21.58
	c-0.32-2.12-0.62-4.13-0.89-6L391.22,203.69z M473.97,228.12c-0.32-1.94-0.65-3.94-0.99-5.98l-79.25,22.33l1.04,5.96L473.97,228.12z
	"/>
<path class="st12" d="M71.48,65.28c0.49,0.7,22.41,32.31,22.23,135.32l-0.39,25.08l0.01,2.76l0.38-2.08l-11.55,62.89
	c0,0-27.41-2.62-43.18-18.32C23.21,255.24,1.5,253.18,1.5,253.18s12.58-70.1,13.64-82.47c1.06-12.37,9.61-58.76,27.62-86.6
	c0,0,8.55-10.35,28.54-18.75L71.48,65.28z"/>
<path class="ArmTrim fill" d="M7.59,235.33c-1.73,10.43-2.99,17.85-2.99,17.85s20.52,2.06,35.42,17.76c14.9,15.7,40.81,18.32,40.81,18.32
	l5.49-31.63L7.59,235.33z"/>
<path class="Colour2 fill" d="M88.62,244.45l-1.04,5.96L8.79,228.09c0.32-1.94,0.65-3.94,0.98-5.98L88.62,244.45z M16.01,182.39
	c-0.27,1.87-0.57,3.88-0.89,6l76.49,21.66l0.09-6.23L16.01,182.39z M11.92,208.89c-0.32,1.99-0.64,3.99-0.96,5.98l78.92,22.35
	l1.04-5.96L11.92,208.89z M14.01,195.65c-0.3,1.95-0.62,3.96-0.94,5.99l78.34,22.19l0.09-6.23L14.01,195.65z"/>
<path class="st5" d="M399.27,284.89c0,0,27.41-2.62,43.18-18.32c15.76-15.7,37.47-17.76,37.47-17.76"/>
<path class="st5" d="M399.27,283.14c0,0,27.41-2.62,43.18-18.32c15.76-15.7,37.47-17.76,37.47-17.76"/>
<path class="st5" d="M82.91,285.47c0,0-27.42-2.62-43.18-18.32c-15.76-15.7-37.47-17.76-37.47-17.76"/>
<path class="st5" d="M82.91,283.72c0,0-27.42-2.62-43.18-18.32c-15.76-15.7-37.47-17.76-37.47-17.76"/>
<path class="BottomHem fill" d="M245.74,643.72c-22.9,0-44.65-2.3-47.29-2.59c-24.67-1.1-61.05-29.53-62.59-30.74l-0.4-0.35
	c-4.32-4.14-19.49-11.73-28.03-15.55l-1.52-2.25l0.94-10.18l5.03,2.25c2.42,1.08,23.61,10.66,30.93,17.44
	c9.94,7.78,38.84,27.59,56.28,28.27l0.39,0.03c0.56,0.06,56.21,6.14,83.07-0.76l0.78-0.14c0.23-0.03,24.34-2.86,47.45-21.29
	c2.47-2.45,21.7-21.1,38.17-23.95l5.41-0.94l1.85,10.97l-5.42,0.93c-11.5,1.98-27.35,15.9-32.49,21.09l-0.47,0.42
	c-24.35,19.53-49.29,23.31-52.95,23.77C274.14,642.86,259.73,643.72,245.74,643.72 M375.08,579.69l-10.34-9.28
	c-10.34-9.28-53.76-10.82-53.76-10.82H170.19c0,0-43.43,1.55-53.76,10.82l-10.34,9.28l-1.38,13.38c0,0,16.37-15.96,22.57-16.99
	c3.08-0.51,14.06-3.72,24.34-4.75c10.43-1.04,20.12-1.95,20.12-1.95h137.68c0,0,9.7,0.91,20.12,1.95
	c10.28,1.03,21.26,4.23,24.33,4.75c6.21,1.03,22.58,16.99,22.58,16.99L375.08,579.69z"/>
<g>
	<path class="st16" d="M388.6,226.37L388.6,226.37c0,0-0.04,0.23-0.1,0.65C388.56,226.61,388.6,226.37,388.6,226.37z"/>
</g>
<g id="FBodyLogos"></g>
</svg>
