<?xml version="1.0" encoding="utf-8"?>
<!-- Generator: Adobe Illustrator 19.1.0, SVG Export Plug-In . SVG Version: 6.00 Build 0)  -->
<svg version="1.1" id="Layer_1" xmlns="http://www.w3.org/2000/svg" xmlns:xlink="http://www.w3.org/1999/xlink" x="0px" y="0px"
	 viewBox="0 0 483.01 645.44" style="enable-background:new 0 0 483.01 645.44;" xml:space="preserve">
<style type="text/css">
	<![CDATA[
	@font-face{font-family:'codaheavy';src:url('/fonts/coda-heavy-webfont.woff') format('woff')}
	text{font-family:Impact,codaheavy,sans-serif}
	.Colour1.fill{fill:#060606;}
	.Colour2.fill{fill:#FFFFFF;}
	.Insert.fill{fill:#FFFFFF;}
	.ArmTrim.fill{fill:#060606;}
	.NeckTrim.fill{fill:#FFFFFF;}
	.BottomHem.fill{fill:#060606;stroke:#101010;stroke-width:0.8861;stroke-miterlimit:10;}
	.st0{fill:#2F2F2F;}
	.st1{fill:none;stroke:#060606;stroke-width:2;stroke-linecap:round;stroke-linejoin:round;}
	.st2{fill:#9C2321;stroke:#000000;stroke-width:2;stroke-miterlimit:10;}
	.st3{fill:none;stroke:#221915;stroke-width:0.216;stroke-linecap:round;stroke-linejoin:round;}
	.st4{fill:none;stroke:#0A0505;stroke-width:0.6559;stroke-miterlimit:10;}
	.st5{fill:none;stroke:#FFFFFF;stroke-width:0.328;}
	.st6{fill:none;stroke:#FFFFFF;stroke-width:0.216;stroke-dasharray:2.4,2.4,2.4,2.4;}
	.st7{fill:none;stroke:#101010;stroke-width:0.216;stroke-dasharray:2.4,2.4,2.4,2.4;}
	.st8{fill:#FFFFFF;}
	.st9{fill:none;stroke:#221915;stroke-width:0.233;stroke-miterlimit:10;}
	.st10{fill:none;stroke:#221915;stroke-width:0.36;stroke-miterlimit:10;}
	.st11{fill:#222457;}
	.st13{fill:none;stroke:#0A0505;stroke-width:0.233;stroke-miterlimit:10;}
	.st14{fill:none;}
	.st15{fill:#9E802E;}
	.st16{fill:none;stroke:#0A0505;stroke-width:0.2801;}
	.st17{fill:none;stroke:#000000;stroke-width:0.4411;}
	.white{fill:#ffffff;}
	]]>
</style>
<path class="Colour2 fill" d="M467.41,170.71c-1.06-12.37-9.61-58.76-27.63-86.6c0,0-13.61-16.49-46.68-24.74
	c-33.07-8.25-82.66-28.87-92.2-36.08l-57.77-7h-3.7l-57.77,7c-9.54,7.22-59.13,27.83-92.2,36.08
	c-33.08,8.25-46.68,24.74-46.68,24.74c-18.02,27.83-26.57,74.23-27.63,86.6C14.1,183.08,1.5,253.18,1.5,253.18
	s21.72,2.06,37.49,17.76c15.77,15.7,43.2,18.32,43.2,18.32l11.56-62.89c0,0,21.14,131.96,16.91,197.94
	c-4.24,65.98-4.24,167-4.24,167h133.01h3.7h133.01c0,0,0-101.03-4.24-167c-4.24-65.98,16.91-197.94,16.91-197.94l11.56,62.89
	c0,0,27.43-2.62,43.2-18.32c15.76-15.7,37.49-17.76,37.49-17.76S468.47,183.08,467.41,170.71"/>
<path class="Colour1 fill" d="M467.41,170.71c-1.06-12.37-9.61-58.76-27.63-86.6c0,0-8.43-10.2-28.12-18.57
	c-2.12,3.23-22.24,36.39-22.07,135.07l-0.94,26.74c0.1-0.63,0.15-0.96,0.15-0.96l11.56,62.89c0,0,27.43-2.62,43.2-18.32
	c15.76-15.7,37.49-17.76,37.49-17.76S468.47,183.08,467.41,170.71z"/>
<g>
	<path class="Colour1 fill" d="M389.09,177.4h79.08c3.06,21.43,12.82,75.78,12.82,75.78s-21.72,2.06-37.49,17.76
		c-15.77,15.7-43.2,18.32-43.2,18.32l-11.56-62.89l0.38,2.08l0.01-2.76l-0.39-25.08C388.72,192.42,388.85,184.7,389.09,177.4z"/>
	<path class="Colour1 fill" d="M389.53,167.1l47.98,108.85c-15.86,11.26-37.2,13.31-37.2,13.31l-11.56-62.89l0.38,2.08l0.01-2.76
		l-0.39-25.08C388.72,188.46,389,177.32,389.53,167.1z"/>
</g>
<g>
	<path class="Colour2 fill" d="M411.51,65.78c-2.8,4.39-22.08,38.2-21.91,134.83l-0.94,26.74c0-0.02,0-0.03,0.01-0.04
		c-1.85,11.77-20.79,134.24-16.76,197.01c4.24,65.98,4.24,167,4.24,167H243.13h-3.7H106.42c0,0,0-101.03,4.24-167
		c4.24-65.98-16.91-197.94-16.91-197.94l-0.38,2.08l-0.01-2.76l0.39-25.08C93.93,97.59,72.01,65.98,71.52,65.28
		c5.2-2.18,11.16-4.22,17.95-5.91c33.07-8.25,82.66-28.87,92.2-36.08l57.77-7h3.7l57.77,7c9.53,7.22,59.13,27.83,92.2,36.08
		c7.05,1.76,13.22,3.9,18.55,6.17L411.51,65.78z"/>
	<path class="Colour2 fill" d="M388.81,226.37L388.81,226.37c0,0-0.04,0.23-0.1,0.65C388.77,226.61,388.81,226.37,388.81,226.37z"/>
</g>
<path class="Colour1 fill" d="M92.62,161.01c0,0,21.16-86.59,97.18-95.22c0,0-14.81-9.12-15.54-36.94c0,0-81.86,34.31-102.76,36.41
	c0,0,22.43,31.16,22.25,135.34l-0.39,25.08"/>
<path class="Colour1 fill" d="M390,161.01c0,0-21.16-86.59-97.18-95.22c0,0,14.81-9.12,15.54-36.94c0,0,81.86,34.31,102.76,36.41
	c0,0-22.43,31.16-22.25,135.34l0.39,25.08"/>
<path class="Colour1 fill" d="M411.51,65.78c-2.8,4.39-22.08,38.2-21.91,134.83l-0.94,26.74c0-0.02,0-0.03,0.01-0.04
	c-1.85,11.77-20.79,134.24-16.76,197.01c4.24,65.98,4.24,167,4.24,167H243.13h-3.7H106.42c0,0,0-101.03,4.24-167
	c4.24-65.98-16.91-197.94-16.91-197.94l-0.38,2.08l-0.01-2.76l0.39-25.08C93.93,97.59,72.01,65.98,71.52,65.28
	c5.2-2.18,11.16-4.22,17.95-5.91c33.07-8.25,82.66-28.87,92.2-36.08l57.77-7h3.7l57.77,7c9.53,7.22,59.13,27.83,92.2,36.08
	c7.05,1.76,13.22,3.9,18.55,6.17L411.51,65.78z"/>
<path class="Colour2 fill" d="M374.55,484.62H108.02c-0.11,3.8-0.22,7.58-0.31,11.35h267.16C374.77,492.21,374.66,488.42,374.55,484.62z"
	/>
<path class="Colour2 fill" d="M108.21,478.33h266.15c-0.6-18.78-1.39-37.5-2.45-54.02c-0.01-0.17-0.02-0.34-0.03-0.5H110.69
	c-0.01,0.17-0.02,0.34-0.03,0.5C109.6,440.83,108.8,459.55,108.21,478.33z"/>
<path class="Colour2 fill" d="M81.16,88.45h321.03c1.35-4.5,2.67-8.26,3.88-11.35H77.28C78.49,80.19,79.81,83.95,81.16,88.45z"/>
<path class="Colour2 fill" d="M375.93,556.96h-269.3c-0.21,20.62-0.21,34.35-0.21,34.35h133.01h3.7h133.01
	C376.14,591.31,376.14,577.59,375.93,556.96z"/>
<path class="Colour2 fill" d="M109.2,356.72h264.17c0.28-3.77,0.58-7.56,0.89-11.35H108.31C108.62,349.16,108.92,352.95,109.2,356.72z"/>
<path class="Colour2 fill" d="M93.75,199.06H389.6c0.01-21.08,0.95-39.14,2.43-54.53H91.32C92.81,159.93,93.74,177.98,93.75,199.06z"/>
<path class="Colour2 fill" d="M89.47,59.37c-6.79,1.69-12.75,3.74-17.95,5.91c0.11,0.16,1.29,1.85,3.05,5.53h334.23
	c1.27-2.66,2.24-4.28,2.72-5.04l0.14-0.24c-5.34-2.27-11.5-4.41-18.55-6.17c-33.07-8.25-82.66-28.87-92.2-36.08l-57.77-7h-3.7
	l-57.77,7C172.13,30.5,122.54,51.12,89.47,59.37z"/>
<polygon class="Colour2 fill" points="93.68,205.36 93.5,216.7 389.03,216.7 389.43,205.36 "/>
<path class="Colour2 fill" d="M107.76,339.08h267.05c1.7-19,3.81-37.84,5.89-54.52H101.87C103.95,301.24,106.06,320.07,107.76,339.08z"/>
<path class="st0" d="M388.81,226.37L388.81,226.37c0,0-0.04,0.23-0.1,0.65C388.77,226.61,388.81,226.37,388.81,226.37z"/>
<path class="Colour1 fill" d="M71.51,65.28c0.49,0.7,22.42,32.31,22.24,135.32l-0.39,25.08l0.01,2.76l0.38-2.08l-11.56,62.89
	c0,0-27.43-2.62-43.2-18.32C23.23,255.24,1.5,253.18,1.5,253.18s12.59-70.1,13.65-82.47c1.06-12.37,9.61-58.76,27.63-86.6
	c0,0,8.55-10.35,28.56-18.75L71.51,65.28z"/>
<path class="Colour1 fill" d="M93.4,177.4H14.32C11.26,198.83,1.5,253.18,1.5,253.18s21.72,2.06,37.49,17.76
	c15.77,15.7,43.2,18.32,43.2,18.32l11.56-62.89l-0.38,2.08l-0.01-2.76l0.39-25.08C93.77,192.42,93.64,184.7,93.4,177.4z"/>
<path class="Colour1 fill" d="M92.97,167.1L44.99,275.95c15.86,11.26,37.2,13.31,37.2,13.31l11.56-62.89l-0.38,2.08l-0.01-2.76
	l0.39-25.08C93.78,188.46,93.49,177.32,92.97,167.1z"/>
<g>
	<path class="st1" d="M407.69,71.98c0.07-0.15,0.14-0.3,0.2-0.44"/>
	<path class="st1" d="M408.05,71.18c0.06-0.14,0.13-0.27,0.19-0.4"/>
	<path class="st1" d="M408.4,70.45c0.06-0.13,0.12-0.26,0.18-0.38"/>
	<path class="st1" d="M406.89,73.77c0.08-0.19,0.16-0.37,0.24-0.55"/>
	<path class="st1" d="M407.29,72.84c0.07-0.17,0.15-0.34,0.22-0.5"/>
	<path class="st1" d="M405.9,76.14c0.12-0.29,0.23-0.58,0.35-0.86"/>
	<path class="st1" d="M408.74,69.77c0.06-0.12,0.12-0.24,0.18-0.35"/>
	<path class="st1" d="M410.74,66.11c0.03-0.05,0.07-0.11,0.1-0.16"/>
	<path class="st1" d="M409.06,69.13c0.05-0.1,0.11-0.21,0.16-0.31"/>
	<path class="st1" d="M410.15,67.11c0.04-0.07,0.08-0.15,0.12-0.21"/>
	<path class="st1" d="M410.57,66.4c0.04-0.06,0.07-0.12,0.1-0.17"/>
	<path class="st1" d="M410.37,66.73c0.04-0.06,0.07-0.13,0.11-0.19"/>
	<path class="st1" d="M409.9,67.55c0.05-0.08,0.09-0.17,0.14-0.25"/>
	<path class="st1" d="M409.37,68.54c0.05-0.09,0.1-0.19,0.15-0.28"/>
	<path class="st1" d="M409.64,68.03c0.05-0.09,0.1-0.18,0.15-0.27"/>
	<path class="st1" d="M406.38,74.97c0.12-0.28,0.24-0.57,0.35-0.84"/>
	<path class="st1" d="M401.25,89.74c0.08-0.28,0.17-0.56,0.25-0.84"/>
	<path class="st1" d="M398.31,100.99c0.08-0.36,0.17-0.71,0.25-1.06"/>
	<path class="st1" d="M400.76,91.45c0.08-0.3,0.17-0.59,0.25-0.88"/>
	<path class="st1" d="M400.27,93.22c0.08-0.31,0.17-0.61,0.25-0.91"/>
	<path class="st1" d="M405.46,77.23c0.1-0.25,0.19-0.49,0.29-0.73"/>
	<path class="st1" d="M398.8,98.94c0.08-0.35,0.17-0.69,0.25-1.02"/>
	<path class="st1" d="M399.29,96.97c0.08-0.33,0.17-0.66,0.25-0.98"/>
	<path class="st1" d="M402.22,86.53c0.09-0.28,0.17-0.54,0.26-0.81"/>
	<path class="st1" d="M404.12,80.85c0.08-0.22,0.16-0.44,0.24-0.66"/>
	<path class="st1" d="M402.7,85.01c0.08-0.26,0.17-0.51,0.25-0.77"/>
	<path class="st1" d="M405.02,78.37c0.09-0.24,0.18-0.46,0.27-0.69"/>
	<path class="st1" d="M404.57,79.58c0.08-0.22,0.16-0.43,0.24-0.64"/>
	<path class="st1" d="M403.18,83.56c0.08-0.25,0.17-0.49,0.25-0.73"/>
	<path class="st1" d="M403.65,82.17c0.08-0.23,0.16-0.46,0.24-0.69"/>
	<path class="st1" d="M401.73,88.1c0.09-0.28,0.17-0.56,0.26-0.83"/>
	<path class="st1" d="M402.7,85.01c-0.07,0.23-0.15,0.47-0.22,0.7"/>
	<path class="st1" d="M403.65,82.17c-0.07,0.22-0.15,0.44-0.22,0.66"/>
	<path class="st1" d="M403.18,83.56c-0.07,0.22-0.15,0.45-0.22,0.68"/>
	<path class="st1" d="M404.12,80.85c-0.07,0.21-0.15,0.42-0.22,0.64"/>
	<path class="st1" d="M405.46,77.23c-0.06,0.15-0.12,0.3-0.18,0.46"/>
	<path class="st1" d="M405.02,78.37c-0.07,0.18-0.14,0.38-0.21,0.56"/>
	<path class="st1" d="M404.57,79.58c-0.07,0.2-0.15,0.41-0.22,0.61"/>
	<path class="st1" d="M402.22,86.53c-0.08,0.24-0.15,0.49-0.23,0.74"/>
	<path class="st1" d="M405.9,76.14c-0.05,0.12-0.09,0.24-0.14,0.36"/>
	<path class="st1" d="M400.27,93.22c-0.08,0.29-0.16,0.59-0.24,0.89"/>
	<path class="st1" d="M410.89,65.86c0.08-0.13,0.15-0.24,0.21-0.32c19.69,8.37,28.12,18.57,28.12,18.57
		c18.02,27.83,26.57,74.23,27.63,86.6c1.06,12.37,13.65,82.47,13.65,82.47s-21.72,2.06-37.49,17.76
		c-15.77,15.7-43.2,18.32-43.2,18.32l-11.56-62.89c0,0-0.05,0.34-0.15,0.96"/>
	<path class="st1" d="M399.78,95.06c0.08-0.32,0.17-0.63,0.25-0.94"/>
	<path class="st1" d="M401.73,88.1c-0.08,0.26-0.16,0.53-0.24,0.8"/>
	<path class="st1" d="M401.25,89.74c-0.08,0.27-0.16,0.55-0.24,0.83"/>
	<path class="st1" d="M400.76,91.45c-0.08,0.28-0.16,0.57-0.24,0.86"/>
	<path class="st1" d="M407.69,71.98c-0.06,0.12-0.11,0.24-0.17,0.37"/>
	<path class="st1" d="M406.38,74.97c-0.04,0.1-0.09,0.21-0.13,0.31"/>
	<path class="st1" d="M409.64,68.03c-0.04,0.08-0.08,0.15-0.13,0.24"/>
	<path class="st1" d="M410.15,67.11c-0.04,0.06-0.07,0.13-0.11,0.19"/>
	<path class="st1" d="M410.57,66.4c-0.03,0.05-0.06,0.09-0.09,0.15"/>
	<path class="st1" d="M410.74,66.11c-0.02,0.04-0.04,0.07-0.07,0.11"/>
	<path class="st1" d="M410.37,66.73c-0.03,0.06-0.07,0.11-0.1,0.17"/>
	<path class="st1" d="M409.37,68.54c-0.05,0.09-0.1,0.18-0.14,0.28"/>
	<path class="st1" d="M409.9,67.55c-0.04,0.07-0.07,0.13-0.11,0.21"/>
	<path class="st1" d="M407.29,72.84c-0.06,0.12-0.11,0.24-0.17,0.37"/>
	<path class="st1" d="M406.89,73.77c-0.05,0.12-0.11,0.24-0.16,0.37"/>
	<path class="st1" d="M410.89,65.86c-0.02,0.03-0.04,0.06-0.06,0.1"/>
	<path class="st1" d="M408.74,69.77c-0.05,0.1-0.1,0.2-0.15,0.3"/>
	<path class="st1" d="M409.06,69.13c-0.05,0.09-0.1,0.19-0.15,0.28"/>
	<path class="st1" d="M408.4,70.45c-0.05,0.11-0.1,0.21-0.16,0.33"/>
	<path class="st1" d="M408.05,71.18c-0.06,0.12-0.11,0.23-0.17,0.36"/>
	<path class="st1" d="M389.4,177.02c-0.02,0.61-0.04,1.22-0.06,1.84"/>
	<path class="st1" d="M390.93,150.55c-0.05,0.55-0.09,1.09-0.14,1.65"/>
	<path class="st1" d="M390.65,154.07c-0.04,0.56-0.09,1.12-0.13,1.68"/>
	<path class="st1" d="M391.23,147.11c-0.05,0.54-0.1,1.08-0.15,1.63"/>
	<path class="st1" d="M392.23,137.31c-0.06,0.51-0.12,1.02-0.17,1.54"/>
	<path class="st1" d="M390.39,157.66c-0.04,0.58-0.08,1.15-0.12,1.73"/>
	<path class="st1" d="M391.88,140.49c-0.06,0.53-0.11,1.05-0.17,1.58"/>
	<path class="st1" d="M391.54,143.76c-0.05,0.53-0.1,1.06-0.16,1.6"/>
	<path class="st1" d="M389.73,168.99c-0.03,0.61-0.06,1.21-0.09,1.82"/>
	<path class="st1" d="M389.28,181.18c-0.02,0.62-0.04,1.23-0.05,1.85"/>
	<polyline class="st1" points="389.03,200.6 389.03,200.6 388.1,227.34 388.1,227.34 	"/>
	<path class="st1" d="M390.15,161.34c-0.04,0.59-0.07,1.18-0.11,1.77"/>
	<path class="st1" d="M389.18,185.44c-0.01,0.62-0.03,1.23-0.04,1.85"/>
	<path class="st1" d="M389.56,172.95c-0.03,0.62-0.05,1.23-0.07,1.85"/>
	<path class="st1" d="M389.93,165.11c-0.03,0.6-0.07,1.2-0.1,1.8"/>
	<path class="st1" d="M392.59,134.22c-0.06,0.5-0.12,1-0.18,1.5"/>
	<path class="st1" d="M395.94,112.28c-0.07,0.39-0.15,0.79-0.22,1.19"/>
	<path class="st1" d="M397.35,105.28c-0.08,0.36-0.16,0.73-0.23,1.1"/>
	<path class="st1" d="M396.88,107.54c-0.08,0.37-0.15,0.75-0.23,1.13"/>
	<path class="st1" d="M397.83,103.1c-0.08,0.35-0.16,0.71-0.23,1.06"/>
	<path class="st1" d="M398.31,100.99c-0.08,0.33-0.16,0.67-0.23,1.01"/>
	<path class="st1" d="M399.29,96.97c-0.08,0.31-0.16,0.63-0.24,0.95"/>
	<path class="st1" d="M398.8,98.94c-0.08,0.32-0.16,0.65-0.24,0.98"/>
	<path class="st1" d="M396.41,109.87c-0.08,0.38-0.15,0.77-0.22,1.16"/>
	<path class="st1" d="M395.49,114.75c-0.07,0.41-0.15,0.82-0.22,1.23"/>
	<path class="st1" d="M394.18,122.63c-0.07,0.45-0.14,0.89-0.2,1.35"/>
	<path class="st1" d="M393.77,125.41c-0.07,0.46-0.13,0.92-0.2,1.38"/>
	<path class="st1" d="M389.1,189.84c-0.01,0.6-0.02,1.19-0.03,1.8"/>
	<path class="st1" d="M393.36,128.27c-0.06,0.47-0.13,0.94-0.19,1.41"/>
	<path class="st1" d="M392.97,131.21c-0.06,0.48-0.12,0.96-0.18,1.44"/>
	<path class="st1" d="M394.61,119.93c-0.07,0.43-0.14,0.86-0.21,1.3"/>
	<path class="st1" d="M395.05,117.29c-0.07,0.42-0.14,0.85-0.22,1.28"/>
	<path class="st1" d="M389.03,200.6c0-1.53,0-3.03,0.01-4.53"/>
	<path class="st1" d="M392.97,131.21c0.07-0.51,0.13-1.02,0.2-1.53"/>
	<path class="st1" d="M393.36,128.27c0.07-0.5,0.14-0.99,0.21-1.48"/>
	<path class="st1" d="M391.54,143.76c0.06-0.57,0.11-1.13,0.17-1.69"/>
	<path class="st1" d="M392.59,134.22c0.06-0.52,0.13-1.05,0.19-1.56"/>
	<path class="st1" d="M391.88,140.49c0.06-0.55,0.12-1.09,0.18-1.64"/>
	<path class="st1" d="M392.23,137.31c0.06-0.53,0.12-1.06,0.18-1.59"/>
	<path class="st1" d="M394.18,122.63c0.07-0.47,0.14-0.94,0.22-1.4"/>
	<path class="st1" d="M389.05,194.51c0,0.52-0.01,1.04-0.01,1.56"/>
	<path class="st1" d="M396.88,107.54c0.08-0.39,0.16-0.78,0.24-1.16"/>
	<path class="st1" d="M397.35,105.28c0.08-0.38,0.16-0.75,0.24-1.12"/>
	<path class="st1" d="M396.41,109.87c0.08-0.4,0.16-0.81,0.24-1.2"/>
	<path class="st1" d="M395.49,114.75c0.08-0.43,0.16-0.86,0.23-1.29"/>
	<path class="st1" d="M395.94,112.28c0.08-0.42,0.16-0.84,0.24-1.25"/>
	<path class="st1" d="M395.05,117.29c0.07-0.44,0.15-0.87,0.23-1.31"/>
	<path class="st1" d="M394.61,119.93c0.07-0.46,0.15-0.91,0.22-1.36"/>
	<path class="st1" d="M393.77,125.41c0.07-0.48,0.14-0.96,0.21-1.43"/>
	<path class="st1" d="M391.23,147.11c0.05-0.59,0.11-1.17,0.16-1.75"/>
	<path class="st1" d="M389.18,185.44c0.02-0.8,0.03-1.61,0.05-2.4"/>
	<path class="st1" d="M389.4,177.02c0.03-0.74,0.05-1.49,0.08-2.23"/>
	<path class="st1" d="M389.1,189.84c0.01-0.85,0.02-1.71,0.04-2.55"/>
	<path class="st1" d="M399.78,95.06c-0.08,0.31-0.16,0.62-0.24,0.93"/>
	<path class="st1" d="M397.83,103.1c0.08-0.37,0.17-0.74,0.25-1.1"/>
	<path class="st1" d="M389.05,194.51c0.01-0.96,0.01-1.93,0.02-2.87"/>
	<path class="st1" d="M389.28,181.18c0.02-0.77,0.04-1.55,0.06-2.32"/>
	<path class="st1" d="M390.65,154.07c0.05-0.62,0.09-1.25,0.14-1.87"/>
	<path class="st1" d="M389.73,168.99c0.03-0.69,0.07-1.39,0.1-2.07"/>
	<path class="st1" d="M390.39,157.66c0.04-0.64,0.09-1.28,0.13-1.91"/>
	<path class="st1" d="M390.93,150.55c0.05-0.61,0.1-1.21,0.15-1.81"/>
	<path class="st1" d="M389.93,165.11c0.04-0.67,0.07-1.34,0.11-2"/>
	<path class="st1" d="M390.15,161.34c0.04-0.65,0.08-1.31,0.12-1.95"/>
	<path class="st1" d="M389.56,172.95c0.03-0.71,0.06-1.43,0.09-2.14"/>
	<path class="st1" d="M390.79,152.2c-0.05,0.62-0.1,1.24-0.14,1.87"/>
	<path class="st1" d="M401.99,87.27c0.08-0.25,0.15-0.5,0.23-0.74"/>
	<path class="st1" d="M92.99,182.97c0.01,0.35,0.02,0.7,0.02,1.05"/>
	<path class="st1" d="M402.48,85.72c0.07-0.23,0.15-0.47,0.22-0.7"/>
	<path class="st1" d="M401.5,88.9c0.08-0.27,0.16-0.53,0.24-0.8"/>
	<path class="st1" d="M403.43,82.83c0.07-0.22,0.15-0.44,0.22-0.66"/>
	<path class="st1" d="M403.89,81.48c0.07-0.21,0.15-0.43,0.22-0.64"/>
	<path class="st1" d="M93.18,195.98c0.01,1.53,0.01,3.07,0.01,4.62l-0.39,25.08"/>
	<path class="st1" d="M398.08,102c0.08-0.34,0.15-0.68,0.23-1.01"/>
	<path class="st1" d="M391.08,148.74c-0.05,0.6-0.1,1.21-0.15,1.81"/>
	<path class="st1" d="M402.95,84.24c0.07-0.23,0.15-0.46,0.22-0.68"/>
	<path class="st1" d="M390.27,159.39c-0.04,0.64-0.08,1.3-0.12,1.95"/>
	<path class="st1" d="M399.05,97.92c0.08-0.32,0.16-0.64,0.24-0.95"/>
	<path class="st1" d="M92.99,182.95c0,0.01,0,0.01,0,0.02"/>
	<path class="st1" d="M398.56,99.93c0.08-0.33,0.16-0.66,0.24-0.98"/>
	<path class="st1" d="M401.01,90.57c0.08-0.28,0.16-0.56,0.24-0.83"/>
	<path class="st1" d="M390.52,155.75c-0.05,0.63-0.09,1.27-0.13,1.91"/>
	<path class="st1" d="M399.54,95.98c0.08-0.31,0.16-0.62,0.24-0.93"/>
	<path class="st1" d="M400.52,92.3c0.08-0.29,0.16-0.58,0.24-0.86"/>
	<path class="st1" d="M400.03,94.11c0.08-0.3,0.16-0.6,0.24-0.89"/>
	<path class="st1" d="M391.39,145.36c-0.05,0.58-0.11,1.17-0.16,1.75"/>
	<path class="st1" d="M392.78,132.65c-0.06,0.52-0.13,1.04-0.19,1.56"/>
	<path class="st1" d="M407.89,71.54c0.06-0.12,0.11-0.24,0.17-0.36"/>
	<path class="st1" d="M408.25,70.78c0.05-0.11,0.11-0.22,0.16-0.33"/>
	<path class="st1" d="M93.08,187.15c0.01,0.37,0.01,0.74,0.02,1.11"/>
	<path class="st1" d="M409.22,68.82c0.05-0.1,0.1-0.18,0.14-0.28"/>
	<path class="st1" d="M404.35,80.19c0.07-0.2,0.15-0.41,0.22-0.61"/>
	<path class="st1" d="M93.1,188.25c0,0.17,0.01,0.35,0.01,0.52"/>
	<path class="st1" d="M407.13,73.21c0.06-0.13,0.11-0.25,0.17-0.37"/>
	<path class="st1" d="M393.17,129.68c-0.07,0.51-0.13,1.02-0.2,1.53"/>
	<path class="st1" d="M408.59,70.07c0.05-0.1,0.1-0.2,0.15-0.3"/>
	<path class="st1" d="M408.91,69.42c0.05-0.1,0.1-0.19,0.15-0.28"/>
	<path class="st1" d="M404.81,78.94c0.07-0.19,0.14-0.38,0.21-0.56"/>
	<path class="st1" d="M392.05,138.85c-0.06,0.54-0.12,1.09-0.18,1.64"/>
	<path class="st1" d="M405.29,77.69c0.06-0.15,0.12-0.31,0.18-0.46"/>
	<path class="st1" d="M392.41,135.72c-0.06,0.52-0.12,1.06-0.18,1.59"/>
	<path class="st1" d="M391.71,142.07c-0.06,0.56-0.11,1.13-0.17,1.69"/>
	<path class="st1" d="M405.76,76.5c0.05-0.12,0.09-0.24,0.14-0.36"/>
	<path class="st1" d="M93.11,189.16c0-0.13,0-0.26-0.01-0.39"/>
	<path class="st1" d="M406.73,74.13c0.05-0.13,0.11-0.24,0.16-0.37"/>
	<path class="st1" d="M406.25,75.28c0.04-0.11,0.09-0.21,0.13-0.31"/>
	<path class="st1" d="M407.52,72.35c0.06-0.13,0.11-0.25,0.17-0.37"/>
	<path class="st1" d="M392.78,132.65c0.06-0.49,0.12-0.97,0.18-1.44"/>
	<path class="st1" d="M389.04,196.07c0-0.53,0.01-1.04,0.01-1.56"/>
	<path class="st1" d="M391.08,148.74c0.05-0.55,0.1-1.09,0.15-1.63"/>
	<path class="st1" d="M390.79,152.2c0.04-0.55,0.09-1.1,0.14-1.65"/>
	<path class="st1" d="M391.71,142.07c0.05-0.53,0.11-1.06,0.17-1.58"/>
	<path class="st1" d="M389.08,191.64c0.01-0.6,0.02-1.2,0.03-1.8"/>
	<path class="st1" d="M389.08,191.64c-0.01,0.95-0.02,1.91-0.02,2.87"/>
	<path class="st1" d="M392.41,135.72c0.06-0.51,0.12-1.01,0.18-1.5"/>
	<path class="st1" d="M392.05,138.85c0.06-0.52,0.12-1.03,0.17-1.54"/>
	<path class="st1" d="M389.03,200.6c0-1.53,0-3.03,0.01-4.53"/>
	<path class="st1" d="M391.39,145.36c0.05-0.54,0.1-1.07,0.16-1.6"/>
	<path class="st1" d="M389.34,178.87c0.02-0.62,0.04-1.23,0.06-1.84"/>
	<path class="st1" d="M389.64,170.81c0.03-0.61,0.06-1.21,0.09-1.82"/>
	<path class="st1" d="M389.83,166.92c0.03-0.61,0.06-1.2,0.1-1.8"/>
	<path class="st1" d="M389.48,174.8c0.02-0.62,0.05-1.23,0.07-1.85"/>
	<path class="st1" d="M390.04,163.11c0.03-0.6,0.07-1.18,0.11-1.77"/>
	<path class="st1" d="M389.23,183.03c0.02-0.62,0.03-1.23,0.05-1.85"/>
	<path class="st1" d="M390.27,159.39c0.04-0.58,0.08-1.16,0.12-1.73"/>
	<path class="st1" d="M389.14,187.29c0.01-0.62,0.03-1.23,0.04-1.85"/>
	<path class="st1" d="M390.52,155.75c0.04-0.57,0.08-1.12,0.13-1.68"/>
	<path class="st1" d="M389.34,178.87c-0.02,0.76-0.04,1.54-0.06,2.32"/>
	<path class="st1" d="M396.18,111.03c0.07-0.39,0.15-0.77,0.22-1.16"/>
	<path class="st1" d="M389.64,170.81c-0.03,0.71-0.06,1.42-0.09,2.14"/>
	<path class="st1" d="M92.74,174.82c0,0.12,0.01,0.24,0.01,0.37"/>
	<path class="st1" d="M396.65,108.67c0.08-0.38,0.15-0.76,0.23-1.13"/>
	<path class="st1" d="M395.72,113.46c0.07-0.4,0.15-0.8,0.22-1.19"/>
	<path class="st1" d="M389.83,166.92c-0.04,0.68-0.07,1.38-0.1,2.07"/>
	<path class="st1" d="M395.27,115.98c0.07-0.41,0.15-0.82,0.22-1.23"/>
	<path class="st1" d="M397.59,104.16c0.08-0.36,0.16-0.71,0.23-1.06"/>
	<path class="st1" d="M390.04,163.11c-0.04,0.66-0.07,1.33-0.11,2"/>
	<path class="st1" d="M397.12,106.38c0.08-0.37,0.16-0.74,0.23-1.1"/>
	<path class="st1" d="M394.4,121.23c0.07-0.44,0.14-0.87,0.21-1.3"/>
	<path class="st1" d="M393.57,126.79c0.07-0.46,0.13-0.93,0.2-1.38"/>
	<path class="st1" d="M393.98,123.97c0.07-0.45,0.14-0.9,0.2-1.35"/>
	<path class="st1" d="M389.23,183.03c-0.02,0.79-0.03,1.6-0.05,2.4"/>
	<path class="st1" d="M393.17,129.68c0.06-0.47,0.13-0.94,0.19-1.41"/>
	<path class="st1" d="M389.48,174.8c-0.03,0.74-0.05,1.48-0.08,2.23"/>
	<path class="st1" d="M394.83,118.57c0.07-0.43,0.14-0.86,0.22-1.28"/>
	<path class="st1" d="M92.99,182.92c0,0.01,0,0.02,0,0.03"/>
	<path class="st1" d="M92.58,170.91c0,0.06,0.01,0.12,0.01,0.18"/>
	<path class="st1" d="M389.14,187.29c-0.01,0.84-0.03,1.7-0.04,2.55"/>
	<path class="st1" d="M409.79,67.76c0.04-0.07,0.08-0.14,0.11-0.21"/>
	<path class="st1" d="M395.72,113.46c-0.08,0.43-0.16,0.86-0.23,1.29"/>
	<path class="st1" d="M398.56,99.93c-0.08,0.35-0.17,0.71-0.25,1.06"/>
	<path class="st1" d="M408.91,69.42c-0.06,0.11-0.12,0.24-0.18,0.35"/>
	<path class="st1" d="M407.13,73.21c-0.08,0.18-0.16,0.37-0.24,0.55"/>
	<path class="st1" d="M93.17,193.98c0-0.02,0-0.03,0-0.05"/>
	<path class="st1" d="M396.18,111.03c-0.08,0.41-0.16,0.83-0.24,1.25"/>
	<path class="st1" d="M406.25,75.28c-0.12,0.28-0.23,0.56-0.35,0.86"/>
	<path class="st1" d="M405.76,76.5c-0.1,0.24-0.19,0.48-0.29,0.73"/>
	<path class="st1" d="M93.18,195.98c0-0.39-0.01-0.77-0.01-1.15"/>
	<polyline class="st1" points="389.03,200.6 389.03,200.6 388.1,227.34 	"/>
	<line class="st1" x1="92.81" y1="228.44" x2="92.81" y2="228.44"/>
	<path class="st1" d="M408.59,70.07c-0.06,0.12-0.12,0.25-0.18,0.38"/>
	<path class="st1" d="M93.17,193.98c0,0.28,0.01,0.56,0.01,0.84"/>
	<path class="st1" d="M401.01,90.57c-0.08,0.29-0.17,0.58-0.25,0.88"/>
	<path class="st1" d="M408.25,70.78c-0.06,0.13-0.13,0.27-0.19,0.4"/>
	<polyline class="st1" points="92.81,228.45 92.81,228.45 92.81,228.44 	"/>
	<path class="st1" d="M407.52,72.35c-0.07,0.16-0.15,0.33-0.22,0.5"/>
	<path class="st1" d="M407.89,71.54c-0.07,0.14-0.13,0.29-0.2,0.44"/>
	<path class="st1" d="M406.73,74.13c-0.12,0.27-0.23,0.55-0.35,0.84"/>
	<path class="st1" d="M93.15,191.49c-0.01-0.78-0.02-1.56-0.03-2.33"/>
	<path class="st1" d="M402.48,85.72c-0.09,0.27-0.17,0.54-0.26,0.81"/>
	<path class="st1" d="M400.52,92.3c-0.08,0.3-0.17,0.6-0.25,0.91"/>
	<path class="st1" d="M402.95,84.24c-0.08,0.26-0.17,0.51-0.25,0.77"/>
	<path class="st1" d="M92.88,178.82c0.01,0.22,0.01,0.44,0.02,0.67"/>
	<path class="st1" d="M401.99,87.27c-0.09,0.28-0.17,0.55-0.26,0.83"/>
	<path class="st1" d="M401.5,88.9c-0.08,0.28-0.17,0.56-0.25,0.84"/>
	<path class="st1" d="M397.59,104.16c-0.08,0.37-0.16,0.74-0.24,1.12"/>
	<path class="st1" d="M93.08,187.15c-0.02-1.05-0.04-2.09-0.07-3.13"/>
	<path class="st1" d="M92.99,182.92c-0.03-1.16-0.06-2.3-0.09-3.43"/>
	<path class="st1" d="M404.81,78.94c-0.08,0.21-0.16,0.42-0.24,0.64"/>
	<path class="st1" d="M404.35,80.19c-0.08,0.22-0.16,0.43-0.24,0.66"/>
	<path class="st1" d="M396.65,108.67c-0.08,0.4-0.16,0.8-0.24,1.2"/>
	<path class="st1" d="M399.78,95.06c0.08-0.32,0.17-0.63,0.25-0.94"/>
	<path class="st1" d="M398.08,102c-0.08,0.36-0.17,0.73-0.25,1.1"/>
	<path class="st1" d="M403.43,82.83c-0.08,0.24-0.17,0.48-0.25,0.73"/>
	<path class="st1" d="M397.12,106.38c-0.08,0.38-0.16,0.77-0.24,1.16"/>
	<path class="st1" d="M403.89,81.48c-0.08,0.23-0.16,0.46-0.24,0.69"/>
	<path class="st1" d="M405.29,77.69c-0.09,0.23-0.18,0.45-0.27,0.69"/>
	<line class="st1" x1="93.19" y1="226.37" x2="93.19" y2="226.37"/>
	<path class="st1" d="M92.88,178.82c-0.04-1.22-0.08-2.43-0.12-3.64"/>
	<path class="st1" d="M393.98,123.97c-0.07,0.47-0.14,0.95-0.21,1.43"/>
	<path class="st1" d="M410.48,66.54c0.03-0.05,0.06-0.1,0.09-0.15"/>
	<path class="st1" d="M93.15,191.49c0.01,0.81,0.01,1.63,0.02,2.44"/>
	<path class="st1" d="M410.83,65.96c-0.03,0.05-0.06,0.1-0.1,0.16"/>
	<polyline class="st1" points="92.81,228.45 93.19,226.37 93.19,226.37 	"/>
	<path class="st1" d="M410.89,65.86c-0.02,0.03-0.04,0.06-0.06,0.1"/>
	<path class="st1" d="M388.1,227.34L388.1,227.34c0-0.02,0-0.03,0.01-0.04c-1.85,11.77-20.79,134.24-16.76,197.01
		c4.24,65.98,4.24,167,4.24,167H242.57h-3.7H105.86c0,0,0-101.03,4.24-167c4.24-65.98-16.91-197.93-16.91-197.94"/>
	<path class="st1" d="M410.67,66.22c0.02-0.04,0.05-0.07,0.07-0.11"/>
	<path class="st1" d="M410.27,66.9c0.03-0.06,0.07-0.12,0.1-0.17"/>
	<path class="st1" d="M92.4,167.1c0,0.01,0,0.03,0,0.04"/>
	<path class="st1" d="M393.57,126.79c-0.07,0.49-0.14,0.98-0.21,1.48"/>
	<line class="st1" x1="92.8" y1="225.68" x2="92.81" y2="228.44"/>
	<path class="st1" d="M409.51,68.26c0.04-0.08,0.09-0.16,0.13-0.24"/>
	<path class="st1" d="M92.4,167.1C88.5,90.58,71.38,65.89,70.95,65.28c5.2-2.18,11.16-4.22,17.95-5.91
		c33.07-8.25,82.66-28.87,92.2-36.08l57.77-7h3.7l57.77,7c9.53,7.22,59.13,27.83,92.2,36.08c7.05,1.76,13.22,3.9,18.55,6.17
		l-0.14,0.24c-0.02,0.03-0.04,0.06-0.05,0.08"/>
	<path class="st1" d="M399.54,95.98c-0.08,0.33-0.17,0.65-0.25,0.98"/>
	<path class="st1" d="M410.04,67.31c0.04-0.07,0.07-0.13,0.11-0.19"/>
	<path class="st1" d="M410.04,67.31c-0.04,0.08-0.09,0.16-0.14,0.25"/>
	<path class="st1" d="M410.67,66.22c-0.03,0.05-0.07,0.11-0.1,0.17"/>
	<path class="st1" d="M409.51,68.26c-0.05,0.09-0.1,0.19-0.15,0.28"/>
	<line class="st1" x1="92.81" y1="228.44" x2="92.81" y2="228.44"/>
	<path class="st1" d="M394.83,118.57c-0.08,0.45-0.15,0.9-0.22,1.36"/>
	<path class="st1" d="M409.79,67.76c-0.05,0.09-0.1,0.18-0.15,0.27"/>
	<line class="st1" x1="92.81" y1="228.44" x2="92.81" y2="228.44"/>
	<path class="st1" d="M399.05,97.92c-0.08,0.34-0.17,0.68-0.25,1.02"/>
	<path class="st1" d="M395.27,115.98c-0.08,0.43-0.15,0.87-0.23,1.31"/>
	<path class="st1" d="M410.48,66.54c-0.04,0.06-0.07,0.12-0.11,0.19"/>
	<path class="st1" d="M92.58,170.91c-0.06-1.27-0.12-2.53-0.18-3.77"/>
	<path class="st1" d="M409.22,68.82c-0.05,0.1-0.11,0.21-0.16,0.31"/>
	<path class="st1" d="M92.74,174.82c-0.05-1.26-0.1-2.51-0.15-3.74"/>
	<path class="st1" d="M410.27,66.9c-0.04,0.07-0.08,0.14-0.12,0.21"/>
	<path class="st1" d="M394.4,121.23c-0.07,0.46-0.15,0.93-0.22,1.4"/>
	<path class="st1" d="M1.19,251.78c0,0.02-0.01,0.04-0.01,0.05"/>
	<path class="st1" d="M1.13,252.12c-0.01,0.05-0.02,0.1-0.03,0.15"/>
	<path class="st1" d="M6.46,254.13c0.68,0.15,1.41,0.32,2.19,0.52"/>
	<path class="st1" d="M9.84,254.97c1.64,0.45,3.43,1,5.34,1.68"/>
	<path class="st1" d="M0.94,253.18c0,0,0.06-0.32,0.16-0.9"/>
	<path class="st1" d="M3.51,238.69c2.46-13.95,6.14-35.12,8.6-50.51"/>
	<path class="st1" d="M47.5,277.98c0.26,0.16,0.51,0.32,0.77,0.47"/>
	<path class="st1" d="M3.3,239.91c0.07-0.39,0.14-0.79,0.21-1.19"/>
	<path class="st1" d="M3.3,239.91c0,0.01,0,0.02-0.01,0.03"/>
	<path class="st1" d="M13.46,179.46c-0.01,0.03-0.01,0.07-0.02,0.1"/>
	<path class="st1" d="M13.62,178.36c-0.01,0.04-0.01,0.08-0.02,0.12"/>
	<path class="st1" d="M3.11,241c-0.02,0.12-0.04,0.24-0.06,0.37"/>
	<path class="st1" d="M12.12,188.09c-0.01,0.03-0.01,0.06-0.02,0.09"/>
	<path class="st1" d="M1.44,250.37c0.07-0.39,0.15-0.83,0.23-1.3"/>
	<path class="st1" d="M1.76,248.59c0.34-1.92,0.78-4.38,1.28-7.23"/>
	<path class="st1" d="M45.95,276.99c0.48,0.32,0.96,0.63,1.45,0.93"/>
	<path class="st1" d="M13.62,178.36c0.05-0.31,0.09-0.62,0.13-0.92"/>
	<path class="st1" d="M3.11,241c0.06-0.35,0.12-0.7,0.19-1.06"/>
	<path class="st1" d="M92.4,167.1C88.49,90.58,71.38,65.89,70.95,65.28l-0.17,0.07c-20,8.4-28.56,18.75-28.56,18.75
		c-18.02,27.83-26.57,74.23-27.63,86.6c-0.13,1.49-0.42,3.81-0.84,6.74"/>
	<path class="st1" d="M13.46,179.46c0.05-0.33,0.1-0.66,0.14-0.98"/>
	<path class="st1" d="M1.13,252.12c0.02-0.09,0.03-0.19,0.05-0.29"/>
	<path class="st1" d="M12.12,188.09c0.5-3.12,0.94-6,1.32-8.53"/>
	<path class="st1" d="M1.44,250.37c-0.06,0.36-0.12,0.7-0.18,0.99"/>
	<path class="st1" d="M1.19,251.78c0.02-0.13,0.05-0.26,0.07-0.41"/>
	<path class="st1" d="M1.76,248.59c-0.03,0.17-0.06,0.33-0.09,0.49"/>
	<path class="st1" d="M3.51,238.69c0,0.01,0,0.02,0,0.02"/>
	<path class="st1" d="M93.16,193.49c0,0.53,0.01,1.05,0.01,1.58"/>
	<path class="st1" d="M15.18,256.66c1.91,0.68,3.93,1.49,6,2.45"/>
	<path class="st1" d="M93.01,183.61c0.01,0.51,0.02,1.02,0.03,1.53"/>
	<path class="st1" d="M93.08,186.9c-0.01-0.59-0.02-1.18-0.04-1.76"/>
	<path class="st1" d="M80.2,289.09c0.17,0.02,0.32,0.04,0.46,0.06"/>
	<path class="st1" d="M93.19,200.47c0-1.83,0-3.62-0.01-5.41"/>
	<path class="st1" d="M93.19,200.47c0,0.04,0,0.09,0,0.13l-0.39,25.08l0.01,2.76l0,0"/>
	<path class="st1" d="M92.99,182.74c0-0.03,0-0.05,0-0.08"/>
	<line class="st1" x1="92.81" y1="228.45" x2="81.63" y2="289.26"/>
	<path class="st1" d="M81.12,289.2c-0.01,0-0.02,0-0.04,0"/>
	<path class="st1" d="M93.12,189.51c0,0.3,0.01,0.61,0.01,0.91"/>
	<path class="st1" d="M80.72,289.15c-0.02,0-0.04-0.01-0.06-0.01"/>
	<path class="st1" d="M93.14,191.26c0-0.28-0.01-0.56-0.01-0.83"/>
	<path class="st1" d="M80.72,289.15c0.13,0.02,0.26,0.03,0.36,0.04"/>
	<path class="st1" d="M92.99,182.74c0.01,0.29,0.01,0.58,0.02,0.87"/>
	<path class="st1" d="M81.12,289.2c0.32,0.04,0.51,0.06,0.51,0.06l0,0"/>
	<path class="st1" d="M92.73,174.51c0.02,0.45,0.03,0.9,0.05,1.35"/>
	<path class="st1" d="M92.4,167.1c0.01,0.16,0.02,0.33,0.02,0.49"/>
	<path class="st1" d="M92.92,180.35c-0.02-0.61-0.03-1.22-0.05-1.82"/>
	<path class="st1" d="M93.09,187.96c-0.01-0.35-0.01-0.71-0.02-1.06"/>
	<line class="st1" x1="92.81" y1="228.44" x2="92.81" y2="228.44"/>
	<path class="st1" d="M93.09,187.96c0.01,0.51,0.02,1.03,0.02,1.55"/>
	<line class="st1" x1="92.81" y1="228.45" x2="92.81" y2="228.44"/>
	<path class="st1" d="M24.33,260.67c1.06,0.56,2.12,1.16,3.19,1.8"/>
	<polyline class="st1" points="92.81,228.44 93.19,226.37 92.81,228.44 	"/>
	<path class="st1" d="M92.92,180.35c0.02,0.77,0.04,1.53,0.06,2.3"/>
	<path class="st1" d="M47.5,277.98c-0.03-0.02-0.07-0.04-0.1-0.06"/>
	<line class="st1" x1="92.81" y1="228.44" x2="92.81" y2="228.44"/>
	<line class="st1" x1="92.81" y1="228.45" x2="92.81" y2="228.44"/>
	<path class="st1" d="M57.24,282.92c1.2,0.5,2.39,0.96,3.56,1.38"/>
	<path class="st1" d="M92.57,170.57c0.02,0.35,0.03,0.7,0.05,1.05"/>
	<path class="st1" d="M44.81,276.23c0.35,0.25,0.71,0.48,1.07,0.71"/>
	<path class="st1" d="M27.52,262.47c1.07,0.64,2.13,1.33,3.19,2.06"/>
	<path class="st1" d="M45.95,276.99c-0.02-0.02-0.05-0.03-0.07-0.05"/>
	<path class="st1" d="M30.71,264.53c1.06,0.73,2.11,1.51,3.15,2.34"/>
	<line class="st1" x1="92.83" y1="177.41" x2="92.83" y2="177.4"/>
	<path class="st1" d="M92.57,170.57c-0.05-1-0.09-2-0.14-2.99"/>
	<line class="st1" x1="81.63" y1="289.26" x2="81.63" y2="289.26"/>
	<path class="st1" d="M80.13,289.08c-0.55-0.07-1.22-0.17-2.03-0.3"/>
	<path class="st1" d="M64.26,285.47c1.13,0.36,2.24,0.69,3.31,0.98"/>
	<path class="st1" d="M92.73,174.51c-0.04-0.97-0.08-1.93-0.12-2.89"/>
	<path class="st1" d="M80.2,289.09c-0.02,0-0.04-0.01-0.07-0.01"/>
	<path class="st1" d="M92.78,175.87c0.02,0.51,0.04,1.01,0.06,1.53"/>
	<path class="st1" d="M67.57,286.45c4.28,1.19,7.99,1.91,10.53,2.32"/>
	<path class="st1" d="M93.16,193.49c-0.01-0.74-0.01-1.5-0.02-2.23"/>
	<path class="st1" d="M92.87,178.53c-0.01-0.38-0.02-0.75-0.04-1.13"/>
	<line class="st1" x1="93.17" y1="193.98" x2="93.17" y2="193.98"/>
	<line class="st1" x1="92.83" y1="177.4" x2="92.83" y2="177.4"/>
	<polyline class="st1" points="92.83,177.41 92.83,177.4 92.83,177.4 	"/>
	<path class="st1" d="M1.1,252.28c0.01-0.05,0.02-0.1,0.03-0.15"/>
	<path class="st1" d="M93.17,194.83c0-0.28,0-0.56-0.01-0.84"/>
	<path class="st1" d="M93.17,194.91c0-0.03,0-0.06,0-0.08"/>
	<path class="st1" d="M1.18,251.83c0-0.02,0.01-0.04,0.01-0.05"/>
	<path class="st1" d="M93.11,189.16c0-0.28-0.01-0.55-0.01-0.83"/>
	<path class="st1" d="M93.01,183.61c0-0.21-0.01-0.43-0.01-0.64"/>
	<path class="st1" d="M80.72,289.15c0.13,0.02,0.25,0.03,0.36,0.04"/>
	<path class="st1" d="M3.51,238.72c0-0.01,0-0.01,0-0.02"/>
	<path class="st1" d="M13.44,179.57c0.01-0.03,0.01-0.07,0.02-0.1"/>
	<path class="st1" d="M80.2,289.09c0.17,0.02,0.32,0.04,0.45,0.06"/>
	<path class="st1" d="M1.26,251.37c0.05-0.3,0.11-0.63,0.18-0.99"/>
	<path class="st1" d="M13.6,178.48c0.01-0.04,0.01-0.08,0.02-0.12"/>
	<path class="st1" d="M45.95,277c0.48,0.32,0.96,0.62,1.45,0.93"/>
	<path class="st1" d="M44.81,276.23c0.35,0.24,0.71,0.48,1.07,0.71"/>
	<path class="st1" d="M8.64,254.66c-0.77-0.2-1.51-0.37-2.19-0.52"/>
	<path class="st1" d="M15.18,256.66c-1.91-0.68-3.71-1.24-5.34-1.68"/>
	<path class="st1" d="M12.11,188.19c0.01-0.03,0.01-0.06,0.02-0.09"/>
	<path class="st1" d="M1.67,249.08c0.03-0.16,0.06-0.32,0.09-0.49"/>
	<path class="st1" d="M93.09,187.96c0,0.1,0,0.2,0.01,0.3"/>
	<path class="st1" d="M93.1,188.33c0-0.03,0-0.05,0-0.08"/>
	<path class="st1" d="M93.16,193.49c0,0.16,0,0.32,0.01,0.49"/>
	<path class="st1" d="M93.12,189.51c0-0.08,0-0.16,0-0.25"/>
	<path class="st1" d="M3.29,239.94c0-0.01,0-0.02,0.01-0.03"/>
	<path class="st1" d="M93.11,189.16c0,0.03,0,0.07,0,0.1"/>
	<path class="st1" d="M92.99,182.97c0-0.01,0-0.01,0-0.02"/>
	<path class="st1" d="M92.99,182.74c0,0.07,0,0.14,0.01,0.21"/>
	<path class="st1" d="M3.04,241.36c0.02-0.12,0.04-0.24,0.06-0.37"/>
	<path class="st1" d="M92.85,178.01c-0.01-0.2-0.01-0.4-0.02-0.6"/>
	<path class="st1" d="M60.8,284.3c-1.17-0.42-2.37-0.88-3.56-1.38"/>
	<polyline class="st1" points="92.81,228.44 93.19,226.37 92.81,228.44 	"/>
	<path class="st1" d="M67.57,286.45c-1.07-0.3-2.18-0.62-3.31-0.98"/>
	<path class="st1" d="M47.5,277.98c0.26,0.16,0.51,0.32,0.77,0.47"/>
	<path class="st1" d="M78.1,288.77c-2.53-0.41-6.24-1.13-10.53-2.32"/>
	<path class="st1" d="M80.13,289.08c-0.55-0.07-1.22-0.17-2.03-0.3"/>
	<polyline class="st1" points="81.63,289.26 81.63,289.26 81.63,289.26 	"/>
	<path class="st1" d="M47.5,277.98c-0.03-0.02-0.07-0.04-0.1-0.06"/>
	<line class="st1" x1="92.81" y1="228.44" x2="92.81" y2="228.44"/>
	<line class="st1" x1="92.81" y1="228.44" x2="92.81" y2="228.44"/>
	<path class="st1" d="M80.13,289.08c0.02,0,0.05,0.01,0.07,0.01"/>
	<path class="st1" d="M93.19,200.47c0-1.83,0-3.62-0.01-5.41"/>
	<path class="st1" d="M93.17,195.07c0-0.05,0-0.1,0-0.16"/>
	<path class="st1" d="M45.95,277c-0.02-0.02-0.05-0.03-0.07-0.05"/>
	<path class="st1" d="M93.01,183.61c0.03,1.43,0.06,2.89,0.09,4.35"/>
	<path class="st1" d="M93.12,189.51c0.02,1.31,0.03,2.64,0.04,3.98"/>
	<path class="st1" d="M80.72,289.15c-0.02,0-0.04-0.01-0.07-0.01"/>
	<path class="st1" d="M93.19,200.47c0,0.04,0,0.09,0,0.13l-0.39,25.08l0.01,2.76"/>
	<path class="st1" d="M81.12,289.2c-0.01,0-0.03,0-0.04-0.01"/>
	<line class="st1" x1="92.81" y1="228.45" x2="92.81" y2="228.45"/>
	<path class="st1" d="M92.85,178.01c0.05,1.56,0.1,3.13,0.14,4.73"/>
	<line class="st1" x1="92.81" y1="228.44" x2="81.63" y2="289.26"/>
	<path class="st1" d="M3.29,239.94c-0.06,0.36-0.13,0.71-0.19,1.06"/>
	<path class="st1" d="M3.51,238.72c-0.07,0.4-0.14,0.8-0.21,1.19"/>
	<path class="st1" d="M81.12,289.2c0.32,0.04,0.51,0.06,0.51,0.06"/>
	<path class="st1" d="M12.11,188.19c-2.45,15.38-6.14,36.56-8.6,50.51"/>
	<path class="st1" d="M13.44,179.57c-0.37,2.53-0.82,5.41-1.32,8.53"/>
	<polyline class="st1" points="92.81,228.45 92.81,228.45 92.81,228.44 	"/>
	<path class="st1" d="M1.1,252.28c-0.1,0.58-0.16,0.9-0.16,0.9"/>
	<path class="st1" d="M1.18,251.83c-0.02,0.11-0.04,0.2-0.05,0.29"/>
	<path class="st1" d="M1.26,251.37c-0.03,0.15-0.05,0.28-0.07,0.41"/>
	<path class="st1" d="M1.67,249.08c-0.08,0.47-0.16,0.9-0.23,1.3"/>
	<path class="st1" d="M3.04,241.36c-0.5,2.85-0.94,5.3-1.28,7.23"/>
	<path class="st1" d="M13.6,178.48c-0.05,0.32-0.09,0.65-0.14,0.98"/>
	<path class="st1" d="M21.18,259.11c-2.07-0.96-4.09-1.77-6-2.45"/>
	<path class="st1" d="M27.52,262.47c-1.07-0.64-2.13-1.24-3.19-1.8"/>
	<path class="st1" d="M30.71,264.53c-1.06-0.73-2.13-1.42-3.19-2.06"/>
	<path class="st1" d="M13.75,177.45c-0.04,0.3-0.09,0.6-0.13,0.92"/>
	<path class="st1" d="M33.86,266.87c-1.04-0.83-2.09-1.61-3.15-2.34"/>
	<path class="st1" d="M0.94,253.18c0,0,2.12,0.2,5.52,0.96"/>
	<path class="st1" d="M44.81,276.23c-2.26-1.57-4.41-3.33-6.38-5.29c-1.48-1.47-3.01-2.82-4.57-4.07"/>
	<path class="st1" d="M24.33,260.67c-1.06-0.56-2.11-1.08-3.15-1.56"/>
	<path class="st1" d="M64.26,285.47c-1.13-0.36-2.29-0.75-3.46-1.17"/>
	<path class="st1" d="M49.03,278.89c-0.01-0.01-0.02-0.01-0.03-0.02"/>
	<path class="st1" d="M49.03,278.89c2.7,1.55,5.47,2.89,8.21,4.02"/>
	<path class="st1" d="M48.99,278.87c-0.24-0.14-0.48-0.27-0.72-0.41"/>
	<path class="st1" d="M8.64,254.66c0.39,0.1,0.79,0.2,1.19,0.32"/>
	<path class="st1" d="M81.08,289.2c0.01,0,0.02,0,0.04,0"/>
	<path class="st1" d="M47.4,277.92c-0.49-0.3-0.97-0.61-1.45-0.93"/>
	<line class="st1" x1="47.5" y1="277.98" x2="47.5" y2="277.98"/>
	<path class="st1" d="M80.65,289.15c0.02,0,0.04,0.01,0.06,0.01"/>
	<path class="st1" d="M93.17,193.93c-0.01-0.82-0.01-1.64-0.02-2.44"/>
	<path class="st1" d="M93.08,186.9c0,0.08,0,0.16,0.01,0.25"/>
	<line class="st1" x1="80.65" y1="289.15" x2="80.65" y2="289.15"/>
	<line class="st1" x1="45.95" y1="277" x2="45.95" y2="276.99"/>
	<line class="st1" x1="92.81" y1="228.44" x2="92.81" y2="228.44"/>
	<line class="st1" x1="47.4" y1="277.92" x2="47.4" y2="277.92"/>
	<line class="st1" x1="45.88" y1="276.95" x2="45.88" y2="276.95"/>
	<line class="st1" x1="92.4" y1="167.1" x2="92.4" y2="167.1"/>
	<path class="st1" d="M45.88,276.95c0.02,0.02,0.05,0.03,0.07,0.05"/>
	<path class="st1" d="M47.4,277.92c0.03,0.02,0.07,0.04,0.1,0.06"/>
	<path class="st1" d="M48.99,278.87c-0.5-0.29-1-0.58-1.49-0.89"/>
	<path class="st1" d="M92.8,225.68l0.39-25.08c0-1.56,0-3.1-0.01-4.62"/>
	<path class="st1" d="M92.76,175.19c0-0.12-0.01-0.24-0.01-0.37"/>
	<line class="st1" x1="92.81" y1="228.44" x2="92.81" y2="228.44"/>
	<line class="st1" x1="92.8" y1="225.68" x2="92.81" y2="228.44"/>
	<line class="st1" x1="92.81" y1="228.44" x2="92.81" y2="228.44"/>
	<line class="st1" x1="92.81" y1="228.45" x2="92.81" y2="228.44"/>
	<path class="st1" d="M92.59,171.08c0-0.06-0.01-0.12-0.01-0.18"/>
	<path class="st1" d="M93.1,188.33c-0.01-0.39-0.01-0.79-0.02-1.19"/>
	<line class="st1" x1="81.63" y1="289.26" x2="81.63" y2="289.26"/>
	<line class="st1" x1="81.08" y1="289.2" x2="81.08" y2="289.2"/>
	<path class="st1" d="M92.88,178.82c0-0.1-0.01-0.19-0.01-0.29"/>
	<line class="st1" x1="80.72" y1="289.15" x2="80.72" y2="289.15"/>
	<path class="st1" d="M93.02,184.02c-0.01-0.37-0.02-0.74-0.02-1.1"/>
	<path class="st1" d="M92.9,179.49c0.01,0.29,0.02,0.58,0.02,0.86"/>
	<line class="st1" x1="81.12" y1="289.2" x2="81.12" y2="289.2"/>
	<path class="st1" d="M92.88,178.82c0.01,0.22,0.01,0.44,0.02,0.67"/>
	<polyline class="st1" points="93.19,226.37 81.63,289.26 81.63,289.26 	"/>
	<path class="st1" d="M81.63,289.26c0,0-0.18-0.02-0.51-0.06"/>
	<path class="st1" d="M81.08,289.2c-0.1-0.01-0.23-0.03-0.36-0.04"/>
	<path class="st1" d="M92.42,167.59c0.05,0.99,0.1,1.98,0.14,2.99"/>
	<path class="st1" d="M93.11,188.77c0,0.16,0,0.33,0.01,0.49"/>
	<path class="st1" d="M92.99,182.66c0,0.09,0.01,0.17,0.01,0.26"/>
	<path class="st1" d="M92.92,180.35c0.02,0.77,0.04,1.53,0.06,2.3"/>
	<path class="st1" d="M92.85,178.01c0.01,0.18,0.01,0.35,0.02,0.53"/>
	<path class="st1" d="M80.65,289.15c-0.14-0.02-0.29-0.04-0.45-0.06"/>
	<path class="st1" d="M92.4,167.13c0.01,0.15,0.01,0.3,0.02,0.45"/>
	<path class="st1" d="M93.02,184.02c0.01,0.37,0.02,0.75,0.02,1.12"/>
	<path class="st1" d="M92.83,177.4c0.01,0.2,0.01,0.41,0.02,0.61"/>
	<path class="st1" d="M93.04,185.14c0.01,0.59,0.03,1.17,0.04,1.76"/>
	<path class="st1" d="M92.61,171.62c0.04,0.96,0.08,1.92,0.12,2.89"/>
	<path class="st1" d="M92.78,175.87c0.02,0.51,0.04,1.02,0.05,1.53"/>
	<path class="st1" d="M93.17,194.91c0,0.36,0.01,0.71,0.01,1.07"/>
	<path class="st1" d="M93.1,188.33c0,0.15,0,0.29,0.01,0.44"/>
	<path class="st1" d="M93.13,190.42c0,0.28,0.01,0.55,0.01,0.83"/>
	<path class="st1" d="M80.13,289.08c-4.55-0.62-18.65-3.02-31.1-10.18"/>
	<path class="st1" d="M93.14,191.26c0,0.08,0,0.16,0,0.23"/>
	<path class="st1" d="M92.78,175.87c-0.01-0.23-0.01-0.46-0.02-0.68"/>
	<polyline class="st1" points="93.19,226.37 93.19,226.37 93.19,226.37 	"/>
	<polyline class="st1" points="92.81,228.45 92.81,228.45 93.19,226.37 	"/>
	<path class="st1" d="M48.99,278.87c0.01,0.01,0.02,0.01,0.03,0.02"/>
	<path class="st1" d="M93.17,193.93c0,0.01,0,0.03,0,0.04"/>
	<path class="st1" d="M93.17,194.91c0-0.31,0-0.62-0.01-0.93"/>
	<path class="st1" d="M80.13,289.08c0.02,0,0.04,0.01,0.07,0.01"/>
	<path class="st1" d="M92.73,174.51c0,0.1,0.01,0.2,0.01,0.31"/>
	<path class="st1" d="M92.4,167.1L92.4,167.1c0,0.01,0,0.03,0,0.04"/>
	<line class="st1" x1="80.2" y1="289.09" x2="80.2" y2="289.09"/>
	<path class="st1" d="M92.61,171.62c-0.01-0.18-0.01-0.36-0.02-0.54"/>
	<line class="st1" x1="80.13" y1="289.08" x2="80.13" y2="289.08"/>
	<path class="st1" d="M93.11,189.26c0.01,0.39,0.01,0.77,0.02,1.16"/>
	<path class="st1" d="M92.57,170.57c0.01,0.11,0.01,0.22,0.02,0.33"/>
</g>
<polygon class="st2" points="3.47,242.89 82.51,279.29 80.49,286.79 1.5,261.45 "/>
<path class="st3" d="M321.36,62.03"/>
<path class="st3" d="M317.23,58.05"/>
<path class="st3" d="M309.17,62.32"/>
<path class="Colour2 fill" d="M136.24,609.18c14.54,11.95,35.56,31.32,104.48,31.32c68.93,0,89.94-19.37,104.48-31.32
	c11.79-9.69,22.39-13.7,27.98-15.24c1.94-0.53,2.58-2.93,1.2-4.39c-2.21-2.33-5.18-4.93-9.1-7.4c-7.01-4.44-10.55-8.63-37.86-11.19
	c-5.98-0.56-13.13-1.04-21.68-1.43c-15.55-0.71-38.3-0.88-65.03-0.88c-26.74,0-49.48,0.18-65.03,0.88
	c-8.55,0.39-15.69,0.86-21.67,1.43c-27.32,2.55-30.86,6.75-37.87,11.19c-3.93,2.48-6.91,5.09-9.11,7.42
	c-1.38,1.46-0.74,3.87,1.21,4.39C113.8,595.46,124.32,599.37,136.24,609.18"/>
<path class="st4" d="M136.24,609.18c14.54,11.95,35.56,31.32,104.48,31.32c68.93,0,89.94-19.37,104.48-31.32
	c11.46-9.43,21.81-13.48,27.52-15.11c2.15-0.61,2.89-3.27,1.33-4.87c-2.17-2.24-5.04-4.7-8.76-7.06
	c-7.01-4.44-10.55-8.63-37.86-11.19c-5.98-0.56-13.13-1.04-21.68-1.43c-15.55-0.71-38.3-0.88-65.03-0.88
	c-26.74,0-49.48,0.18-65.03,0.88c-8.55,0.39-15.69,0.86-21.67,1.43c-27.32,2.55-30.86,6.75-37.87,11.19
	c-3.73,2.36-6.61,4.83-8.78,7.07c-1.55,1.6-0.82,4.27,1.33,4.87C114.37,595.68,124.64,599.64,136.24,609.18z"/>
<line class="st5" x1="185.85" y1="57.37" x2="81.85" y2="95.22"/>
<line class="st6" x1="180.47" y1="56.67" x2="81.85" y2="91.73"/>
<line class="st6" x1="181.46" y1="57.95" x2="81.85" y2="93.76"/>
<line class="st5" x1="297.72" y1="57.37" x2="401.72" y2="95.22"/>
<line class="st6" x1="303.1" y1="56.67" x2="401.72" y2="91.73"/>
<line class="st6" x1="303.1" y1="58.42" x2="401.72" y2="93.47"/>
<path class="st6" d="M312.57,567.73l9.74-185.56c0,0,4.05-25.16,13.88-47.33c16.58-40.34,49.69-120.86,55.19-134.26"/>
<path class="st6" d="M314.32,567.73l9.74-185.56c0,0,4.05-25.16,13.88-47.33c16.58-40.34,49.69-120.86,55.19-134.26"/>
<path class="st6" d="M171.07,567.73l-9.74-185.56c0,0-4.05-25.16-13.88-47.33c-16.58-40.34-49.69-120.86-55.19-134.26"/>
<path class="st6" d="M169.31,567.73l-9.74-185.56c0,0-4.05-25.16-13.88-47.33C129.12,294.5,96.01,213.98,90.5,200.57"/>
<path class="st6" d="M377.36,587.83c-2.2-2.95-6-7.09-12.07-10.92c-7.01-4.44-10.55-8.63-37.86-11.19
	c-5.98-0.56-13.13-1.04-21.68-1.43c-15.55-0.71-38.3-0.89-65.03-0.89c-26.74,0-49.48,0.18-65.03,0.89
	c-8.55,0.38-15.69,0.86-21.67,1.43c-27.32,2.56-30.86,6.75-37.87,11.19c-6.07,3.84-9.88,7.98-12.07,10.92"/>
<path class="st6" d="M377.36,584.34c-2.2-2.95-6-7.09-12.07-10.92c-7.01-4.44-10.55-8.63-37.86-11.19
	c-5.98-0.56-13.13-1.04-21.68-1.43c-15.55-0.71-38.3-0.89-65.03-0.89c-26.74,0-49.48,0.18-65.03,0.89
	c-8.55,0.38-15.69,0.86-21.67,1.43c-27.32,2.56-30.86,6.75-37.87,11.19c-6.07,3.84-9.88,7.98-12.07,10.92"/>
<path class="st7" d="M75.01,65.26c0,0,22.43,31.16,22.25,135.34"/>
<path class="st7" d="M408.49,65.26c0,0-22.43,31.16-22.25,135.34"/>
<path class="st3" d="M277.94,56.76"/>
<path class="st3" d="M269.86,61.05"/>
<path class="st8" d="M180.69,38.05c20.49-22.33,96.63-26.13,121.01-1.7l-6.27-13.38c-21.93-7.01-37.55-11.63-53.18-11.66
	c-15.63-0.03-31.25,4.52-53.18,11.53L180.69,38.05z"/>
<path class="st9" d="M180.69,38.05c20.49-22.33,96.63-26.13,121.01-1.7l-6.27-13.38c-21.93-7.01-37.55-11.63-53.18-11.66
	c-15.63-0.03-31.25,4.52-53.18,11.53L180.69,38.05z"/>
<path class="white" d="M192.54,21.39c10.93-3.81,27.89-8.29,48.97-8.29c21.07,0,38.02,4.48,48.95,8.29c0.37,7.1-0.26,17.42-6.41,26.59
	c-3.21,4.78-5.79,7.47-12.6,12.68c-8.34,6.38-17.75,14.74-20.48,22.2c-6.3,0-12.6,0-18.91,0c-2.9-7.21-7.2-11.02-10.03-13.69
	c-3.75-3.53-4.84-4.11-12.02-10.09c-4.66-3.88-7.08-5.92-9.45-9.51c-2.39-3.61-3.38-6.72-4.73-11.1
	C194.58,34.46,193.15,28.66,192.54,21.39z"/>
<path class="st3" d="M265.83,57.16"/>
<path class="st3" d="M257.97,61.33"/>
<path class="NeckTrim fill" d="M284.92,7.64c-31.36-8-56.64-7.65-89.05,1.13l4.12,10.16c12.19-4.56,26.92-5.55,41.74-5.55
	c14.02,0,28.13,0.75,40.24,4.47L284.92,7.64z"/>
<path class="st10" d="M284.92,7.64c-31.36-8-56.64-7.65-89.05,1.13l4.12,10.16c12.19-4.56,26.92-5.55,41.74-5.55
	c14.02,0,28.13,0.75,40.24,4.47L284.92,7.64z"/>
<path class="NeckTrim fill" d="M190.93,10.24l16.04-4.49l2.56,10.97l-19.35,5.27C190.18,21.98,188.93,17.23,190.93,10.24"/>
<path class="st10" d="M190.93,10.24l16.04-4.49l2.56,10.97l-19.35,5.27C190.18,21.98,188.93,17.23,190.93,10.24z"/>
<path class="NeckTrim fill" d="M293.65,10.24l-16.04-4.49l-2.56,10.97l19.35,5.27C294.4,21.98,295.65,17.23,293.65,10.24"/>
<path class="st10" d="M293.65,10.24l-16.04-4.49l-2.56,10.97l19.35,5.27C294.4,21.98,295.65,17.23,293.65,10.24z"/>
<path class="Colour1 fill" d="M176.74,27.67l-10.58,5.17c0,0-3.09,13.97,12.46,28.83l8.91-3.39C187.53,58.28,176.96,48.19,176.74,27.67"/>
<path class="Colour1 fill" d="M308.43,27.67l8.89,5.17c0,0,2.4,13.97-13.15,28.83l-4.82-3.39C299.34,58.28,308.2,48.19,308.43,27.67"/>
<g id="FBodyLogos"></g>
<path class="NeckTrim fill" d="M294.5,11.62l14.62,17.24c0,0,1.2,25.32-15.54,36.94c-4.5,3.12-16.65,11.04-21.53,13.99
	c-13.27,8.01-18.6,9.71-18.6,9.71s0.17-10.37,3.86-12.57c0,0,26.1-22.15,28.2-25.13C287.6,48.81,295.72,26.25,294.5,11.62"/>
<path class="st13" d="M294.5,11.62l14.62,17.24c0,0,1.2,25.32-15.54,36.94c-4.5,3.12-16.65,11.04-21.53,13.99
	c-13.27,8.01-18.6,9.71-18.6,9.71s0.17-10.37,3.86-12.57c0,0,26.1-22.15,28.2-25.13C287.6,48.81,295.72,26.25,294.5,11.62z"/>
<path class="NeckTrim fill" d="M188.88,11.62l-14.62,17.24c0,0-1.19,25.32,15.54,36.94c4.5,3.12,16.65,11.04,21.53,13.99
	c13.26,8.01,18.6,9.71,18.6,9.71s-0.17-10.37-3.86-12.57c0,0-26.1-22.15-28.2-25.13C195.79,48.81,187.66,26.25,188.88,11.62"/>
<path class="st13" d="M188.88,11.62l-14.62,17.24c0,0-1.19,25.32,15.54,36.94c4.5,3.12,16.65,11.04,21.53,13.99
	c13.26,8.01,18.6,9.71,18.6,9.71s-0.17-10.37-3.86-12.57c0,0-26.1-22.15-28.2-25.13C195.79,48.81,187.66,26.25,188.88,11.62z"/>
<path class="Insert fill" d="M229.93,81.83h23.01l-3.59,8.64c0,0-5.87,2.08-14.74,0L229.93,81.83z"/>
<path class="st14" d="M230.51,81.28h23.01l-3.59,8.64c0,0-5.87,2.08-14.74,0L230.51,81.28z"/>
<path class="st6" d="M165.54,33.14c1.07,17.69,13.07,30.02,13.07,30.02c21.36,21.07,46.54,31.22,46.54,31.22s8.73,1.78,14.05,1.78
	h4.17c5.31,0,14.05-1.78,14.05-1.78s25.18-10.15,46.54-31.22c0,0,12-12.33,13.06-30.02"/>
<path class="st6" d="M169.85,30.94c-1.49,11.32,10.14,28.68,10.14,28.68c21.36,21.07,46.65,31.49,46.65,31.49s8.24,2.28,13.56,2.28
	h2.16c5.31,0,13.56-2.28,13.56-2.28s25.29-10.42,46.65-31.49c0,0,11.63-17.36,10.14-28.68"/>
<path class="st15" d="M253.45,89.49c0.02-0.06,1.78-3.95,3.8-9.14c1.21-3.09,8.39-8.94,15.33-14.6c3.55-2.89,7.22-5.88,10.63-8.91
	c16.25-14.4,14.62-36.71,12.76-44.03c-0.8-3.15-7.03-5.72-18.51-7.64l-0.67,2.98c6.69,1.12,13.4,3.1,14.7,4.32
	c0.52,3.84-1.93,32.37-11.45,40.81c-3.34,2.96-6.97,5.92-10.48,8.78c-9.36,7.63-15.17,12.5-16.76,16.56
	c-2.11,5.41-3.87,11.7-3.95,11.97L253.45,89.49z"/>
<path class="NeckTrim fill" d="M253.45,89.49c0.02-0.06,1.78-3.95,3.8-9.14c1.21-3.09,8.39-8.94,15.33-14.6
	c3.55-2.89,7.22-5.88,10.63-8.91c16.25-14.4,14.62-36.71,12.76-44.03c-0.8-3.15-7.03-5.72-18.51-7.64l-0.67,2.98
	c6.69,1.12,13.4,3.1,14.7,4.32c0.52,3.84-1.93,32.37-11.45,40.81c-3.34,2.96-6.97,5.92-10.48,8.78
	c-9.36,7.63-15.17,12.5-16.76,16.56c-2.11,5.41-3.87,11.7-3.95,11.97L253.45,89.49z"/>
<path class="NeckTrim fill" d="M230.59,89.49c-0.02-0.06-1.78-3.95-3.8-9.14c-1.21-3.09-8.39-8.94-15.33-14.6
	c-3.55-2.89-7.22-5.88-10.63-8.91c-7.52-6.66-12.65-44.44-12.76-44.03c0.8-3.15,7.03-5.72,18.51-7.64l0.67,2.98
	c-6.69,1.12-13.4,3.1-14.7,4.32c-0.52,3.84,1.92,32.37,11.45,40.81c3.34,2.96,6.97,5.92,10.48,8.78
	c9.36,7.63,15.17,12.5,16.76,16.56c2.11,5.41,3.87,11.7,3.95,11.97L230.59,89.49z"/>
<path class="st16" d="M230.59,89.49c-0.02-0.06-1.78-3.95-3.8-9.14c-1.21-3.09-8.39-8.94-15.33-14.6
	c-3.55-2.89-7.22-5.88-10.63-8.91c-7.52-6.66-12.65-44.44-12.76-44.03c0.8-3.15,7.03-5.72,18.51-7.64l0.67,2.98
	c-6.69,1.12-13.4,3.1-14.7,4.32c-0.52,3.84,1.92,32.37,11.45,40.81c3.34,2.96,6.97,5.92,10.48,8.78
	c9.36,7.63,15.17,12.5,16.76,16.56c2.11,5.41,3.87,11.7,3.95,11.97L230.59,89.49z"/>
<path class="st17" d="M411.85,65.26c0,0-22.44,31.16-22.25,135.34l-0.94,26.74"/>
<path class="Colour2 fill" d="M388.81,226.37L388.81,226.37c0,0-0.04,0.23-0.1,0.65C388.77,226.61,388.81,226.37,388.81,226.37z"/>
<polygon class="ArmTrim fill" points="479.54,244.64 400.5,279.28 402.52,286.79 481.5,263.2 "/>
<polygon class="ArmTrim fill" points="3.47,242.89 82.51,279.29 80.49,286.79 1.5,261.45 "/>
<path class="st6" d="M399.49,284.89c0,0,27.43-2.62,43.2-18.32c15.76-15.7,37.49-17.76,37.49-17.76"/>
<path class="st6" d="M399.49,283.14c0,0,27.43-2.62,43.2-18.32c15.76-15.7,37.49-17.76,37.49-17.76"/>
<path class="st6" d="M82.96,285.47c0,0-27.43-2.62-43.2-18.32c-15.76-15.7-37.49-17.76-37.49-17.76"/>
<path class="st6" d="M82.96,283.72c0,0-27.43-2.62-43.2-18.32c-15.76-15.7-37.49-17.76-37.49-17.76"/>
<g>
	<path class="Colour2 fill" d="M388.81,226.37L388.81,226.37c0,0-0.04,0.23-0.1,0.65C388.77,226.61,388.81,226.37,388.81,226.37z"/>
</g>
<path class="BottomHem fill" d="M245.88,643.72c-22.91,0-44.68-2.3-47.31-2.59c-24.69-1.1-61.08-29.53-62.62-30.74l-0.4-0.35
	c-4.33-4.14-19.5-11.73-28.05-15.55l-1.52-2.25l0.94-10.18l5.03,2.25c2.42,1.08,23.63,10.66,30.95,17.44
	c9.94,7.78,38.86,27.59,56.31,28.27l0.39,0.03c0.56,0.06,56.24,6.14,83.12-0.76l0.78-0.14c0.23-0.03,24.35-2.86,47.47-21.29
	c2.47-2.45,21.71-21.1,38.19-23.95l5.42-0.94l1.85,10.97l-5.42,0.93c-11.5,1.98-27.37,15.9-32.51,21.09l-0.47,0.42
	c-24.37,19.53-49.31,23.31-52.98,23.77C274.29,642.86,259.87,643.72,245.88,643.72 M375.29,579.69l-10.35-9.28
	c-10.34-9.28-53.79-10.82-53.79-10.82H170.29c0,0-43.45,1.55-53.79,10.82l-10.34,9.28l-1.38,13.38c0,0,16.38-15.96,22.59-16.99
	c3.08-0.51,14.07-3.72,24.35-4.75c10.43-1.04,20.13-1.95,20.13-1.95H309.6c0,0,9.7,0.91,20.13,1.95
	c10.28,1.03,21.27,4.23,24.35,4.75c6.21,1.03,22.59,16.99,22.59,16.99L375.29,579.69z"/>
</svg>
