<?xml version="1.0" encoding="utf-8"?>
<!-- Generator: Adobe Illustrator 19.1.0, SVG Export Plug-In . SVG Version: 6.00 Build 0)  -->
<svg version="1.1" id="Layer_1" xmlns="http://www.w3.org/2000/svg" xmlns:xlink="http://www.w3.org/1999/xlink" x="0px" y="0px"
	 viewBox="0 0 483.01 645.44" style="enable-background:new 0 0 483.01 645.44;" xml:space="preserve">
<style type="text/css">
	<![CDATA[
	@font-face{font-family:'codaheavy';src:url('/fonts/coda-heavy-webfont.woff') format('woff')}
	text{font-family:Impact,codaheavy,sans-serif}
	.Number.fill{fill:#000}
	.NumberOutline.stroke{fill:none;stroke:#777;stroke-width:2.5}
	.Colour1.fill{fill:#060606;}
	.Colour2.fill{fill:#FFFFFF;}
	.ArmTrim.fill{fill:#060606;}
	.NeckTrim.fill{fill:#FFFFFF;}
	.BottomHem.fill{fill:#060606;stroke:#101010;stroke-width:0.8861;stroke-miterlimit:10;}
	.st0{stroke:#221915;stroke-width:0.8861;stroke-miterlimit:10;}
	.st1{fill:none;stroke:#000000;stroke-width:3;stroke-linecap:round;stroke-linejoin:round;}
	.st2{fill:none;stroke:#0A0505;stroke-width:0.328;stroke-miterlimit:10;}
	.st3{fill:none;stroke:#000000;stroke-width:0.4411;}
	.st5{fill:#9C2321;stroke:#221915;stroke-width:0.934;stroke-miterlimit:10;}
	.st6{fill:none;stroke:#221915;stroke-width:0.6559;stroke-miterlimit:10;}
	.st7{fill:#060606;stroke:#000000;stroke-width:2;stroke-miterlimit:10;}
	.st8{fill:#C0773C;stroke:#000000;stroke-width:2;stroke-miterlimit:10;}
	.st9{fill:none;stroke:#FFFFFF;stroke-width:0.216;stroke-dasharray:2.4,2.4,2.4,2.4;}
	.st10{fill:#101010;stroke:#FFFFFF;stroke-width:0.216;stroke-dasharray:2.4,2.4,2.4,2.4;}
	.st11{fill:none;stroke:#FFFFFF;stroke-width:0.328;}
	.st12{fill:#FFFFFF;}
	.st13{fill:none;stroke:#221915;stroke-width:0.506;stroke-miterlimit:10;}
	.st14{fill:none;stroke:#000000;stroke-width:2;stroke-linecap:round;stroke-linejoin:round;}
	.neckline{fill:none;stroke:#000000;stroke-width:0.6559;}
	]]>
</style>
<path class="st0" d="M387.39,231.3l-1.1-12.37l0.43-21.8c-0.17-95.12,18.6-129.22,21.79-134.32c-4.59-1.79-9.71-3.46-15.44-4.89
	c-33.07-8.23-82.65-28.8-92.19-36l-57.76-6.79h-3.7l-57.76,6.79c-9.54,7.2-59.12,27.77-92.19,36c-5.09,1.27-9.71,2.73-13.9,4.29
	c1.4,2.05,22.35,34.45,22.17,134.91l-2.89,34.48v0c4.28,28.18,19.45,133.7,15.8,190.4c-3.99,61.88-4.22,154.65-4.24,165.55
	c-0.92,1.01,0.82,1.97,0.18,2.82c0,0,12.02,1.62,29.63,16.07c14.54,11.92,35.55,31.25,104.47,31.25
	c68.91,0,89.93-19.33,104.46-31.25c17.62-14.46,32.59-16.24,32.16-16.07c-0.41-0.54-0.89-1.14-1.41-1.75h0.19
	c0,0,0-100.79-4.24-166.61c-3.59-55.78,11.04-158.81,15.59-188.96L387.39,231.3z"/>
<path class="Colour1 fill" d="M467.36,169c-1.06-12.34-9.61-58.62-27.62-86.39c0,0-13.61-16.46-46.67-24.69
	c-33.07-8.23-82.65-28.8-92.19-36l-57.76-6.79h-3.7l-57.76,6.79c-9.54,7.2-59.12,27.77-92.19,36C56.4,66.15,42.8,82.61,42.8,82.61
	C24.78,110.38,16.24,156.66,15.17,169c-1.06,12.34-13.65,82.28-13.65,82.28s21.72,2.06,37.49,17.72
	c15.76,15.66,43.19,18.28,43.19,18.28l11.56-62.74c0,0,21.14,131.65,16.9,197.47c-3.99,61.88-4.22,154.65-4.24,165.55
	c-0.92,1.01,0.82,1.97,0.18,2.82c0,0,12.02,1.62,29.63,16.07c14.54,11.92,35.55,31.25,104.47,31.25
	c68.91,0,89.93-19.33,104.46-31.25c17.62-14.46,32.59-16.24,32.16-16.07c-0.41-0.54-0.89-1.14-1.41-1.75h0.19
	c0,0,0-100.79-4.24-166.61c-4.24-65.83,16.9-197.47,16.9-197.47l11.56,62.74c0,0,27.43-2.62,43.19-18.28
	c15.76-15.66,37.48-17.72,37.48-17.72S468.43,181.34,467.36,169"/>
<g>
	<path class="st1" d="M376.19,590.37C376.19,590.37,376.19,590.37,376.19,590.37C376.21,590.37,376.21,590.37,376.19,590.37"/>
	<path class="st1" d="M376.19,590.37c-0.4-0.54-0.88-1.13-1.4-1.74h0.19c0,0,0-100.79-4.24-166.61
		c-4.24-65.83,16.9-197.47,16.9-197.47l11.56,62.74c0,0,27.43-2.62,43.19-18.28c15.76-15.66,37.48-17.72,37.48-17.72
		s-12.59-69.94-13.65-82.28c-1.06-12.34-9.61-58.62-27.62-86.39c0,0-13.61-16.46-46.67-24.69c-33.07-8.23-82.65-28.8-92.19-36
		l-57.76-6.79h-3.7l-57.76,6.79c-9.54,7.2-59.12,27.77-92.19,36c-33.07,8.23-46.67,24.69-46.67,24.69
		C23.64,110.38,15.1,156.66,14.03,169c-1.06,12.34-13.65,82.28-13.65,82.28s21.72,2.06,37.49,17.72
		c15.76,15.66,43.19,18.28,43.19,18.28l11.56-62.74c0,0,21.14,131.65,16.9,197.47c-3.99,61.88-4.22,154.65-4.24,165.55
		c-0.92,1.01,0.82,1.97,0.18,2.82c0,0,12.02,1.62,29.63,16.07c14.54,11.92,35.55,31.25,104.47,31.25
		c68.91,0,89.93-19.33,104.46-31.25C361.09,592.46,375.66,590.34,376.19,590.37"/>
</g>
<path class="Colour1 fill" d="M385.94,197.13c-0.17-95.12,18.6-129.22,21.79-134.32c-4.59-1.79-9.71-3.46-15.44-4.89
	c-33.07-8.23-82.65-28.8-92.19-36l-57.76-6.79h-3.7l-57.76,6.79c-9.54,7.2-59.12,27.77-92.19,36c-5.09,1.27-9.71,2.73-13.9,4.29
	c1.4,2.05,22.35,34.45,22.17,134.91L93,224.54c0,0,21.14,131.65,16.9,197.47c-3.99,61.88-4.22,154.65-4.24,165.55
	c-0.92,1.01,0.82,1.97,0.18,2.82c0,0,12.02,1.62,29.63,16.07c14.54,11.92,35.55,31.25,104.47,31.25
	c68.91,0,89.93-19.33,104.46-31.25c17.62-14.46,32.59-16.24,32.16-16.07c-0.41-0.54-0.89-1.14-1.41-1.75h0.19
	c0,0,0-100.79-4.24-166.61c-4.24-65.83,16.9-197.47,16.9-197.47L385.94,197.13z"/>
<path class="st2" d="M467.36,169c-1.06-12.34-9.61-58.62-27.62-86.39c0,0-13.61-16.46-46.67-24.69c-33.07-8.23-82.65-28.8-92.19-36
	l-57.76-6.79h-3.7l-57.76,6.79c-9.54,7.2-59.12,27.77-92.19,36C56.4,66.15,42.8,82.61,42.8,82.61
	C24.78,110.38,16.24,156.66,15.17,169c-1.06,12.34-13.65,82.28-13.65,82.28s21.72,2.06,37.49,17.72
	c15.76,15.66,43.19,18.28,43.19,18.28l11.56-62.74c0,0,21.14,131.65,16.9,197.47c-3.99,61.88-4.22,154.65-4.24,165.55
	c-0.92,1.01,0.82,1.97,0.18,2.82c0,0,12.02,1.62,29.63,16.07c14.54,11.92,35.55,31.25,104.47,31.25
	c68.91,0,89.93-19.33,104.46-31.25c17.62-14.46,32.59-16.24,32.16-16.07c-0.41-0.54-0.89-1.14-1.41-1.75h0.19
	c0,0,0-100.79-4.24-166.61c-4.24-65.83,16.9-197.47,16.9-197.47l11.56,62.74c0,0,27.43-2.62,43.19-18.28
	c15.76-15.66,37.48-17.72,37.48-17.72S468.43,181.34,467.36,169z"/>
<path class="st3" d="M75.5,62.11c0,0,22.43,31.09,22.25,135.02"/>
<path class="Colour2 fill" d="M387.08,174.03h80.45c3.11,21.75,13.04,76.92,13.04,76.92s-22.1,2.09-38.14,18.03
	c-16.04,15.93-43.95,18.6-43.95,18.6l-11.76-63.83l0.39,2.11l0.01-2.81l-0.4-25.46C386.7,189.28,386.83,181.43,387.08,174.03z"/>
<path class="Colour1 fill" d="M387.52,163.57l48.81,110.49c-16.13,11.43-37.85,13.51-37.85,13.51l-11.76-63.83l0.39,2.11l0.01-2.81
	l-0.4-25.46C386.69,185.25,386.99,173.95,387.52,163.57z"/>
<path class="Colour2 fill" d="M94.99,174.03H14.54C11.43,195.78,1.5,250.95,1.5,250.95s22.1,2.09,38.14,18.03
	c16.04,15.93,43.95,18.6,43.95,18.6l11.76-63.83l-0.39,2.11l-0.01-2.81l0.4-25.46C95.36,189.28,95.24,181.43,94.99,174.03z"/>
<path class="Colour1 fill" d="M94.55,163.57L45.74,274.06c16.13,11.43,37.85,13.51,37.85,13.51l11.76-63.83l-0.39,2.11l-0.01-2.81l0.4-25.46
	C95.37,185.25,95.08,173.95,94.55,163.57z"/>
<polygon class="st0" points="3.47,242.86 84.01,280.8 81.99,288.26 1.5,261.32 "/>
<polygon class="ArmTrim fill" points="3.47,242.86 84.01,280.8 81.99,288.26 1.5,261.32 "/>
<polygon class="st5" points="479.54,242.82 398.88,280.82 400.9,288.3 481.5,261.31 "/>
<polygon class="ArmTrim fill" points="479.54,242.82 398.88,280.82 400.9,288.3 481.5,261.31 "/>
<path class="NeckTrim fill" d="M178.48,13.95l18.96-5.3l1.01,12.94l-25.99,6.21C172.46,27.79,176.11,22.2,178.48,13.95"/>
<path class="st6" d="M178.48,13.95l18.96-5.3l1.01,12.94l-25.99,6.21C172.46,27.79,176.11,22.2,178.48,13.95z"/>
<path class="st7" d="M301.62,13.95l-20.67-5.3l-1.01,12.94l29.4,6.21C309.34,27.79,303.99,22.2,301.62,13.95"/>
<path class="NeckTrim fill" d="M301.62,13.95l-20.67-5.3l-1.01,12.94l29.4,6.21C309.34,27.79,303.99,22.2,301.62,13.95z"/>
<path class="st3" d="M408.97,62.11c0,0-22.43,31.09-22.25,135.02"/>
<path class="st8" d="M246.79,643.72c-23.04,0-44.92-2.33-47.58-2.63c-24.82-1.12-61.42-29.97-62.97-31.2l-0.4-0.35
	c-4.35-4.2-19.61-11.91-28.2-15.79l-0.07-2.28l-0.52-10.33l5.06,2.28c2.43,1.09,23.76,10.82,31.12,17.7
	c10,7.9,39.08,28.01,56.62,28.69l0.4,0.03c0.56,0.06,56.55,6.23,83.58-0.77l0.79-0.14c0.23-0.03,24.48-2.9,47.74-21.61
	c2.48-2.48,21.83-21.42,38.4-24.31l5.45-0.95l0.61,11.13l-4.2,0.95c-11.56,2.01-27.51,16.14-32.69,21.41l-0.47,0.43
	c-24.51,19.83-49.59,23.66-53.27,24.13C275.36,642.85,260.86,643.72,246.79,643.72"/>
<path class="st9" d="M84.56,284.81c0,0-27.9-2.66-43.95-18.6c-16.04-15.94-38.14-18.03-38.14-18.03"/>
<path class="st9" d="M84.56,283.03c0,0-27.9-2.66-43.95-18.6C24.57,248.5,2.47,246.41,2.47,246.41"/>
<path class="st9" d="M398.94,282.32c0,0,27.9-2.66,43.95-18.6c16.04-15.94,38.14-18.03,38.14-18.03"/>
<path class="st10" d="M398.94,280.55c0,0,27.9-2.66,43.95-18.6c16.04-15.94,38.14-18.03,38.14-18.03"/>
<path class="st11" d="M89.28,95.02c0,0,124.22-32.47,305.43,0"/>
<path class="st9" d="M89.28,98.57c0,0,124.22-32.47,305.43,0"/>
<path class="st9" d="M89.28,100.35c0,0,124.22-32.47,305.43,0"/>
<path class="NeckTrim fill" d="M289.59,10.88c-37.07-9.43-66.95-9.03-105.27,1.33l4.87,11.98c14.41-5.38,31.83-6.54,49.35-6.55
	c16.58,0,33.25,0.88,47.57,5.27L289.59,10.88z"/>
<path class="st13" d="M289.59,10.88c-37.07-9.43-66.95-9.03-105.27,1.33l4.87,11.98c14.41-5.38,31.83-6.54,49.35-6.55
	c16.58,0,33.25,0.88,47.57,5.27L289.59,10.88z"/>
<path class="NeckTrim fill" d="M177.49,16.34l0.75-4.66c3.34-1.24,65.32-21.76,123.79,0l0.75,4.66C243.39-5.77,178.09,16.11,177.49,16.34
	"/>
<path class="neckline" d="M177.49,16.34c0.61-0.17,67.01-16.9,127.39,0l-0.76-3.56c-59.45-16.63-122.47-0.95-125.87,0L177.49,16.34z"/>
<path class="BottomHem fill" d="M246.79,643.72c-23.04,0-44.92-2.33-47.58-2.63c-24.82-1.12-61.42-29.97-62.97-31.2l-0.4-0.35
	c-4.35-4.2-19.61-11.91-28.2-15.79l-0.07-2.28l-0.52-10.33l5.06,2.28c2.43,1.09,23.76,10.82,31.12,17.7
	c10,7.9,39.08,28.01,56.62,28.69l0.4,0.03c0.56,0.06,56.55,6.23,83.58-0.77l0.79-0.14c0.23-0.03,24.48-2.9,47.74-21.61
	c2.48-2.48,21.83-21.42,38.4-24.31l5.45-0.95l0.61,11.13l-4.2,0.95c-11.56,2.01-27.51,16.14-32.69,21.41l-0.47,0.43
	c-24.51,19.83-49.59,23.66-53.27,24.13C275.36,642.85,260.86,643.72,246.79,643.72z"/>
<path class="Colour2 fill" d="M385.94,195.67c-0.02-13.68,0.36-26.04,1.03-37.27c-2.13-56.82-66.55-102.41-145.7-102.41
	c-77.67,0-141.14,43.89-145.51,99.22c0.79,12.05,1.25,25.48,1.22,40.46L93,222.8c0,0,21.14,130.29,16.9,195.43
	c-3.99,61.24-4.22,153.05-4.24,163.84c-0.92,1,0.82,1.95,0.18,2.79c0,0,12.02,1.6,29.63,15.91c14.54,11.8,35.55,30.93,104.47,30.93
	c68.91,0,89.93-19.13,104.46-30.93c17.62-14.31,32.59-16.07,32.16-15.91c-0.41-0.54-0.89-1.12-1.41-1.73h0.19
	c0,0,0-99.75-4.24-164.89C366.86,353.08,388,222.8,388,222.8L385.94,195.67z"/>
<g>
	<path class="Colour1 fill" d="M94.04,194.51c-0.01-2.96-0.04-5.87-0.09-8.71h-82.3c-0.44,2.74-0.91,5.67-1.42,8.71H94.04z"/>
	<path class="Colour1 fill" d="M93.37,228.71l0.67-3.66l-0.39,2.11l-0.01-2.81l0.07-4.36H5.9c-0.52,3-1.03,5.92-1.52,8.71H93.37z"/>
	<path class="Colour1 fill" d="M388.82,194.51c0.01-2.96,0.04-5.87,0.09-8.71h82.3c0.44,2.74,0.91,5.67,1.42,8.71H388.82z"/>
	<path class="Colour1 fill" d="M389.48,228.71l-0.67-3.66l0.39,2.11l0.01-2.81l-0.07-4.36h87.82c0.52,3,1.03,5.92,1.52,8.71H389.48z"/>
</g>
<g id="BBodyLogos"></g>
</svg>
