<?xml version="1.0" encoding="utf-8"?>
<!-- Generator: Adobe Illustrator 19.1.0, SVG Export Plug-In . SVG Version: 6.00 Build 0)  -->
<svg version="1.1" id="Layer_1" xmlns="http://www.w3.org/2000/svg" xmlns:xlink="http://www.w3.org/1999/xlink" x="0px" y="0px"
	 viewBox="0 0 483.01 645.44" style="enable-background:new 0 0 483.01 645.44;" xml:space="preserve">
<style type="text/css">
	<![CDATA[
	@font-face{font-family:'codaheavy';src:url('/fonts/coda-heavy-webfont.woff') format('woff')}
	text{font-family:Impact,codaheavy,sans-serif}
	.Number.fill{fill:#000}
	.NumberOutline.stroke{fill:none;stroke:#777;stroke-width:2.5}
	.Colour1.fill{fill:#000000;}
	.Colour2.fill{fill:#ACACAC;}
	.Colour3.fill{fill:#E4E4E4;}
	.Lines.stroke{fill:#000000;stroke:#212120;stroke-miterlimit:10;}
	.ArmTrim.fill{fill:#000000;}
	.NeckTrim.fill{fill:#FFFFFF;}
	.BottomHem.fill{fill:#787878;stroke:#101010;stroke-width:0.8861;stroke-miterlimit:10;}
	.st0{fill:#1A2651;}
	.st1{fill:#0E1B34;stroke:#000000;stroke-width:2;stroke-miterlimit:10;}
	.st2{fill:none;stroke:#0A0505;stroke-width:0.328;stroke-miterlimit:10;}
	.st3{fill:none;stroke:#221915;stroke-width:0.6559;stroke-miterlimit:10;}
	.st4{fill:none;stroke:#000000;stroke-width:0.4411;}
	.st5{fill:#C0773C;stroke:#000000;stroke-width:2;stroke-miterlimit:10;}
	.st6{fill:none;stroke:#FFFFFF;stroke-width:0.216;stroke-dasharray:2.4,2.4,2.4,2.4;}
	.st7{fill:#101010;stroke:#FFFFFF;stroke-width:0.216;stroke-dasharray:2.4,2.4,2.4,2.4;}
	.st8{fill:none;stroke:#FFFFFF;stroke-width:0.328;}
	.st9{fill:#FFFFFF;}
	.st10{fill:none;stroke:#221915;stroke-width:0.506;stroke-miterlimit:10;}
	.st11{fill:none;stroke:#000000;stroke-width:2;stroke-linecap:round;stroke-linejoin:round;}
	.st12{fill:none;stroke:#212120;stroke-miterlimit:10;}
	.st13{fill:none;stroke:#21201F;stroke-width:1.308;stroke-miterlimit:10;}
	.neckline{fill:none;stroke:#000000;stroke-width:0.6559;}
	]]>
</style>
<path class="st0" d="M54.98,225.06L54.98,225.06c0,0-0.04,0.24-0.11,0.66C54.94,225.3,54.98,225.06,54.98,225.06z"/>
<path class="st1" d="M467.83,169c-1.06-12.34-9.62-58.62-27.65-86.39c0,0-13.62-16.46-46.72-24.69c-33.1-8.23-82.74-28.8-92.28-36
	l-57.82-6.79h-3.7l-57.82,6.79c-9.55,7.2-59.18,27.77-92.28,36c-33.1,8.23-46.72,24.69-46.72,24.69
	C24.79,110.38,16.23,156.66,15.17,169C14.1,181.34,1.5,251.28,1.5,251.28s21.74,2.06,37.53,17.72
	c15.78,15.66,43.24,18.28,43.24,18.28l11.58-62.74c0,0,21.16,131.65,16.92,197.47c-3.99,61.88-4.23,154.65-4.24,165.55
	c-0.92,1.01,0.82,1.97,0.18,2.82c0,0,12.03,1.62,29.67,16.07c14.55,11.92,35.59,31.25,104.58,31.25
	c68.99,0,90.03-19.33,104.57-31.25c17.64-14.46,32.62-16.24,32.19-16.07c-0.41-0.54-0.89-1.14-1.41-1.75h0.19
	c0,0,0-100.79-4.25-166.61c-4.24-65.83,16.92-197.47,16.92-197.47l11.57,62.74c0,0,27.46-2.62,43.24-18.28
	c15.78-15.66,37.52-17.72,37.52-17.72S468.89,181.34,467.83,169"/>
<path class="Colour1 fill" d="M387.77,231.3l-1.1-12.37l0.43-21.8c-0.17-95.12,18.62-129.22,21.81-134.32
	c-4.59-1.79-9.72-3.46-15.45-4.89c-33.1-8.23-82.74-28.8-92.28-36l-57.82-6.79h-3.7l-57.82,6.79c-9.55,7.2-59.18,27.77-92.28,36
	c-5.09,1.27-9.72,2.73-13.91,4.29c1.4,2.05,22.37,34.45,22.2,134.91l-2.89,34.48v0c4.28,28.18,19.47,133.7,15.82,190.4
	c-3.99,61.88-4.23,154.65-4.24,165.55c-0.92,1.01,0.82,1.97,0.18,2.82c0,0,12.03,1.62,29.67,16.07
	c14.55,11.92,35.59,31.25,104.58,31.25c68.99,0,90.03-19.33,104.57-31.25c17.64-14.46,32.62-16.24,32.19-16.07
	c-0.41-0.54-0.89-1.14-1.41-1.75h0.19c0,0,0-100.79-4.25-166.61c-3.59-55.78,11.05-158.81,15.61-188.96L387.77,231.3z"/>
<path class="st2" d="M467.83,169c-1.06-12.34-9.62-58.62-27.65-86.39c0,0-13.62-16.46-46.72-24.69c-33.1-8.23-82.74-28.8-92.28-36
	l-57.82-6.79h-3.7l-57.82,6.79c-9.55,7.2-59.18,27.77-92.28,36c-33.1,8.23-46.72,24.69-46.72,24.69
	C24.79,110.38,16.23,156.66,15.17,169C14.1,181.34,1.5,251.28,1.5,251.28s21.74,2.06,37.53,17.72
	c15.78,15.66,43.24,18.28,43.24,18.28l11.58-62.74c0,0,21.16,131.65,16.92,197.47c-3.99,61.88-4.23,154.65-4.24,165.55
	c-0.92,1.01,0.82,1.97,0.18,2.82c0,0,12.03,1.62,29.67,16.07c14.55,11.92,35.59,31.25,104.58,31.25
	c68.99,0,90.03-19.33,104.57-31.25c17.64-14.46,32.62-16.24,32.19-16.07c-0.41-0.54-0.89-1.14-1.41-1.75h0.19
	c0,0,0-100.79-4.25-166.61c-4.24-65.83,16.92-197.47,16.92-197.47l11.57,62.74c0,0,27.46-2.62,43.24-18.28
	c15.78-15.66,37.52-17.72,37.52-17.72S468.89,181.34,467.83,169z"/>
<path class="NeckTrim fill" d="M178.64,13.95l18.98-5.3l1.01,12.94l-26.02,6.21C172.62,27.79,176.27,22.2,178.64,13.95"/>
<path class="st3" d="M178.64,13.95l18.98-5.3l1.01,12.94l-26.02,6.21C172.62,27.79,176.27,22.2,178.64,13.95z"/>
<path class="NeckTrim fill" d="M301.91,13.95l-20.69-5.3l-1.01,12.94l29.43,6.21C309.64,27.79,304.28,22.2,301.91,13.95"/>
<path class="st3" d="M301.91,13.95l-20.69-5.3l-1.01,12.94l29.43,6.21C309.64,27.79,304.28,22.2,301.91,13.95z"/>
<path class="st4" d="M75.56,62.11c0,0,22.45,31.09,22.27,135.02"/>
<path class="st4" d="M409.37,62.11c0,0-22.46,31.09-22.27,135.02"/>
<path class="st5" d="M247.02,643.72c-23.06,0-44.97-2.33-47.63-2.63c-24.84-1.12-61.48-29.97-63.04-31.2l-0.4-0.35
	c-4.36-4.2-19.63-11.91-28.23-15.79l-0.07-2.28l-0.52-10.33l5.06,2.28c2.43,1.09,23.79,10.82,31.15,17.7
	c10.01,7.9,39.12,28.01,56.68,28.69l0.4,0.03c0.56,0.06,56.61,6.23,83.66-0.77l0.79-0.14c0.23-0.03,24.51-2.9,47.78-21.61
	c2.48-2.48,21.85-21.42,38.44-24.31l5.46-0.95l0.61,11.13l-4.21,0.95c-11.58,2.01-27.54,16.14-32.72,21.41l-0.47,0.43
	c-24.53,19.83-49.64,23.66-53.33,24.13C275.62,642.85,261.11,643.72,247.02,643.72"/>
<path class="st6" d="M84.62,284.81c0,0-27.93-2.66-43.99-18.6c-16.05-15.94-38.18-18.03-38.18-18.03"/>
<path class="st6" d="M84.62,283.03c0,0-27.93-2.66-43.99-18.6C24.57,248.5,2.45,246.41,2.45,246.41"/>
<path class="st6" d="M399.33,282.32c0,0,27.93-2.66,43.99-18.6c16.05-15.94,38.18-18.03,38.18-18.03"/>
<path class="st7" d="M399.33,280.55c0,0,27.93-2.66,43.99-18.6c16.05-15.94,38.18-18.03,38.18-18.03"/>
<path class="st8" d="M89.35,95.02c0,0,124.35-32.47,305.74,0"/>
<path class="st6" d="M89.35,98.57c0,0,124.35-32.47,305.74,0"/>
<path class="st6" d="M89.35,100.35c0,0,124.35-32.47,305.74,0"/>
<path class="NeckTrim fill" d="M289.86,10.88c-37.11-9.43-67.02-9.03-105.38,1.33l4.88,11.98c14.42-5.38,31.86-6.54,49.4-6.55
	c16.59,0,33.28,0.88,47.62,5.27L289.86,10.88z"/>
<path class="st10" d="M289.86,10.88c-37.11-9.43-67.02-9.03-105.38,1.33l4.88,11.98c14.42-5.38,31.86-6.54,49.4-6.55
	c16.59,0,33.28,0.88,47.62,5.27L289.86,10.88z"/>
<path class="NeckTrim fill" d="M177.65,16.34l0.75-4.66c3.34-1.24,65.39-21.76,123.92,0l0.75,4.66C243.61-5.77,178.25,16.11,177.65,16.34
	"/>
<path class="neckline" d="M177.65,15.95c0.6-0.22,65.97-22.11,125.42,0l-0.75-4.66c-58.53-21.76-120.57-1.24-123.92,0L177.65,15.95z"/>
<path class="Colour1 fill" d="M467.06,169.15c-1.08-12.56-9.79-59.65-28.14-87.9c0,0-8.58-10.36-28.63-18.85
	c-2.16,3.27-22.65,36.93-22.47,137.1l-0.96,27.14c0.1-0.64,0.16-0.98,0.16-0.98l11.77,63.83c0,0,27.93-2.66,43.99-18.6
	c16.05-15.94,38.18-18.03,38.18-18.03S468.13,181.71,467.06,169.15z"/>
<path class="ArmTrim fill" d="M480.96,252.86c0,0-0.39-2.18-1.05-5.84l-83.43,29.99l2.3,12.48c0,0,0.24-0.02,0.69-0.08
	c0,0,20.88-1.79,37.03-13.31c2.21-1.57,4.33-3.28,6.28-5.21C458.83,254.96,480.96,252.86,480.96,252.86z"/>
<path class="Colour1 fill" d="M396.48,277.01l83.43-29.99c-0.58-3.23-1.35-7.61-2.25-12.67l-83.51,30.02L396.48,277.01z"/>
<path class="Colour1 fill" d="M15.91,169.15c1.08-12.56,9.79-59.65,28.14-87.9c0,0,8.58-10.36,28.63-18.85
	c2.16,3.27,22.65,36.93,22.47,137.1l0.96,27.14c-0.1-0.64-0.16-0.98-0.16-0.98l-11.77,63.83c0,0-27.93-2.66-43.99-18.6
	c-16.05-15.94-38.18-18.03-38.18-18.03S14.83,181.71,15.91,169.15z"/>
<path class="ArmTrim fill" d="M2.01,252.86c0,0,0.39-2.18,1.05-5.84l83.43,29.99l-2.3,12.48c0,0-0.24-0.02-0.69-0.08
	c0,0-23.08-2.77-37.03-13.31c-2.16-1.63-4.33-3.28-6.28-5.21C24.13,254.96,2.01,252.86,2.01,252.86z"/>
<path class="Colour1 fill" d="M86.48,277.01L3.05,247.03c0.58-3.23,1.35-7.61,2.25-12.67l83.51,30.02L86.48,277.01z"/>
<path class="Colour1 fill" d="M387.77,231.3l-1.1-12.37l0.43-21.8c-0.17-95.12,18.62-129.22,21.81-134.32
	c-4.59-1.79-9.72-3.46-15.45-4.89c-33.1-8.23-82.74-28.8-92.28-36l-57.82-6.79h-3.7l-57.82,6.79c-9.55,7.2-59.18,27.77-92.28,36
	c-5.09,1.27-9.72,2.73-13.91,4.29c1.4,2.05,22.37,34.45,22.2,134.91l-2.89,34.48v0c4.28,28.18,19.47,133.7,15.82,190.4
	c-3.99,61.88-4.23,154.65-4.24,165.55c-0.92,1.01,0.82,1.97,0.18,2.82c0,0,12.03,1.62,29.67,16.07
	c14.55,11.92,35.59,31.25,104.58,31.25c68.99,0,90.03-19.33,104.57-31.25c17.64-14.46,32.62-16.24,32.19-16.07
	c-0.41-0.54-0.89-1.14-1.41-1.75h0.19c0,0,0-100.79-4.25-166.61c-3.59-55.78,11.05-158.81,15.61-188.96L387.77,231.3z"/>
<g>
	<g>
		<path d="M387.77,231.3l-1.1-12.37l0.43-21.8c-0.17-95.12,18.62-129.22,21.81-134.32c-4.59-1.79-9.72-3.46-15.45-4.89
			c-33.1-8.23-82.74-28.8-92.28-36l-57.82-6.79h-3.7l-57.82,6.79c-9.55,7.2-59.18,27.77-92.28,36c-5.09,1.27-9.72,2.73-13.91,4.29
			c1.4,2.05,22.37,34.45,22.2,134.91l-2.89,34.48v0c4.28,28.18,19.47,133.7,15.82,190.4c-3.99,61.88-4.23,154.65-4.24,165.55
			c-0.92,1.01,0.82,1.97,0.18,2.82c0,0,12.03,1.62,29.67,16.07c14.55,11.92,35.59,31.25,104.58,31.25
			c68.99,0,90.03-19.33,104.57-31.25c17.64-14.46,32.62-16.24,32.19-16.07c-0.41-0.54-0.89-1.14-1.41-1.75h0.19
			c0,0,0-100.79-4.25-166.61c-3.59-55.78,11.05-158.81,15.61-188.96L387.77,231.3z"/>
	</g>
	<g>
		<path class="Colour1 fill" d="M387.77,231.3l-1.1-12.37l0.43-21.8c-0.17-95.12,18.62-129.22,21.81-134.32
			c-4.59-1.79-9.72-3.46-15.45-4.89c-33.1-8.23-82.74-28.8-92.28-36l-57.82-6.79h-3.7l-57.82,6.79c-9.55,7.2-59.18,27.77-92.28,36
			c-5.09,1.27-9.72,2.73-13.91,4.29c1.4,2.05,22.37,34.45,22.2,134.91l-2.89,34.48v0c4.28,28.18,19.47,133.7,15.82,190.4
			c-3.99,61.88-4.23,154.65-4.24,165.55c-0.92,1.01,0.82,1.97,0.18,2.82c0,0,12.03,1.62,29.67,16.07
			c14.55,11.92,35.59,31.25,104.58,31.25c68.99,0,90.03-19.33,104.57-31.25c17.64-14.46,32.62-16.24,32.19-16.07
			c-0.41-0.54-0.89-1.14-1.41-1.75h0.19c0,0,0-100.79-4.25-166.61c-3.59-55.78,11.05-158.81,15.61-188.96L387.77,231.3z"/>
	</g>
	<g>
		<path class="st12" d="M387.77,231.3l-1.1-12.37l0.43-21.8c-0.17-95.12,18.62-129.22,21.81-134.32c-4.59-1.79-9.72-3.46-15.45-4.89
			c-33.1-8.23-82.74-28.8-92.28-36l-57.82-6.79h-3.7l-57.82,6.79c-9.55,7.2-59.18,27.77-92.28,36c-5.09,1.27-9.72,2.73-13.91,4.29
			c1.4,2.05,22.37,34.45,22.2,134.91l-2.89,34.48v0c4.28,28.18,19.47,133.7,15.82,190.4c-3.99,61.88-4.23,154.65-4.24,165.55
			c-0.92,1.01,0.82,1.97,0.18,2.82c0,0,12.03,1.62,29.67,16.07c14.55,11.92,35.59,31.25,104.58,31.25
			c68.99,0,90.03-19.33,104.57-31.25c17.64-14.46,32.62-16.24,32.19-16.07c-0.41-0.54-0.89-1.14-1.41-1.75h0.19
			c0,0,0-100.79-4.25-166.61c-3.59-55.78,11.05-158.81,15.61-188.96L387.77,231.3z"/>
	</g>
</g>
<g>
	<path class="st11" d="M387.67,222.64l-0.14,3.99c0.1-0.64,0.16-0.98,0.16-0.98l0.49,2.67"/>
	<path class="st11" d="M388.17,228.32l11.28,61.17c0,0,27.93-2.66,43.99-18.6c16.05-15.94,38.18-18.03,38.18-18.03
		s-12.82-71.16-13.9-83.71c-1.08-12.56-9.79-59.65-28.14-87.9c0,0-8.58-10.36-28.63-18.85c-2.16,3.27-22.65,36.93-22.47,137.1
		l-0.81,23.15"/>
	<path class="st11" d="M96.55,220.32l-0.73-20.82C96,99.33,75.51,65.67,73.35,62.39c-20.05,8.5-28.63,18.85-28.63,18.85
		c-18.35,28.25-27.06,75.34-28.14,87.9c-1.08,12.56-13.9,83.71-13.9,83.71s22.12,2.09,38.18,18.03
		c16.06,15.93,43.99,18.6,43.99,18.6l10.83-58.72"/>
	<path class="st11" d="M95.68,230.77l0.94-5.12c0,0,0.05,0.34,0.16,0.98l-0.22-6.32"/>
	<line class="st11" x1="96.55" y1="220.32" x2="95.68" y2="230.77"/>
	<line class="st11" x1="388.17" y1="228.32" x2="387.67" y2="222.64"/>
	<path class="st11" d="M378.36,590.37C378.37,590.37,378.37,590.37,378.36,590.37C378.39,590.37,378.38,590.37,378.36,590.37"/>
	<path class="st11" d="M388.17,228.32l0.27,2.98l0.07,1.74c-4.55,30.15-19.2,133.18-15.61,188.96
		c4.25,65.82,4.25,166.61,4.25,166.61h-0.19c0.52,0.61,1,1.2,1.4,1.74"/>
	<path class="st11" d="M95.68,230.77l-0.07,0.84v0c4.28,28.18,19.47,133.7,15.82,190.4c-3.99,61.88-4.23,154.65-4.24,165.55
		c-0.92,1.01,0.82,1.97,0.18,2.82c0,0,12.03,1.62,29.67,16.07c14.55,11.92,35.59,31.25,104.58,31.25
		c68.99,0,90.03-19.33,104.57-31.25c17.07-13.99,31.65-16.11,32.18-16.08"/>
	<path class="st11" d="M96.55,220.32l1.94-23.19C98.67,96.67,77.7,64.27,76.3,62.22c4.19-1.57,8.82-3.03,13.91-4.29
		c33.11-8.23,82.74-28.8,92.28-36l57.82-6.79h3.7l57.82,6.79c9.55,7.2,59.18,27.77,92.28,36c5.73,1.42,10.86,3.1,15.45,4.89
		c-3.19,5.1-21.98,39.2-21.81,134.32l-0.43,21.8l0.33,3.71"/>
</g>
<path class="Lines stroke" d="M286.51,634.1c0.16-0.03,0.31-0.06,0.47-0.08c0.01,0.25,0.01,0.51,0.02,0.76L286.51,634.1z M110.76,422.01
	c-0.92,14.2-1.63,30.02-2.2,46.11l112.9,155.56c0.1,3.72,0.19,7.42,0.28,11.1c0.02,0.8,0.04,1.58,0.05,2.37
	c5.94,0.35,12.3,0.55,19.14,0.55c15,0,27.73-0.92,38.62-2.47L111.32,403.43C111.3,410.03,111.13,416.27,110.76,422.01z
	 M106.52,587.56c-0.92,1.01,0.82,1.97,0.18,2.82c0,0,5.13,0.71,13.56,5.18l-13.7-18.88C106.53,582.06,106.52,585.83,106.52,587.56z
	 M396.73,96.25c5.08-21.08,10.58-30.89,12.17-33.44c-4.59-1.79-9.72-3.46-15.45-4.89c-4.86-1.21-10.07-2.68-15.46-4.34L255.98,221.7
	l116.14,160.02c0.79-19.83,2.56-41.4,4.68-62.04l-71.11-97.98L396.73,96.25z M89.54,57.92c-5.09,1.27-9.72,2.73-13.91,4.29
	c0.52,0.76,3.7,5.66,7.5,16.58l17.3-23.84C96.67,56.06,93.01,57.06,89.54,57.92z M106.72,555.48l45.77,63.07
	c12.5,7.84,31.02,15.45,62.87,18.13L107.92,488.66C107.25,513.32,106.9,537.23,106.72,555.48z M370.94,221.7l16.11-22.19l0.05-2.37
	c-0.05-29.65,1.74-53.37,4.32-72.14l-70.18,96.7l57.59,79.34c2.66-23.25,5.52-44.06,7.55-58.08L370.94,221.7z M386.97,222.36
	l-0.11-1.19l-0.38,0.52L386.97,222.36z M110.85,381.37l175.86,242.31c0.09,3.47,0.18,6.91,0.26,10.34
	c21.42-3.92,34.94-10.45,44.67-16.93L104.52,304.16C107.33,329.11,109.85,356.59,110.85,381.37z M258.55,16.92l-15.2-1.79h-3.7
	l-32.26,3.79L97.35,170.54c0.32,8.28,0.5,17.14,0.48,26.59l-2.89,34.48v0c1.38,9.05,3.88,26.07,6.51,46.89l240.27,331.05
	c1.32-1.08,2.58-2.12,3.79-3.11c16.3-13.36,30.31-15.89,32-16.07L109.93,221.7L258.55,16.92z M314.78,29.35
	c-6.42-3.03-11.25-5.64-13.61-7.42l-28.29-3.32L125.47,221.7l250.91,345.71c-0.13-17.1-0.42-42.71-1.09-69.99L175.18,221.7
	L314.78,29.35z M96.21,150.68l94.18-129.76l-8.56,1.01c-6.81,5.14-34.04,17.08-61.1,26.49L87.63,94.01
	C91.04,107.55,94.33,126.04,96.21,150.68z M365.41,49.5c-13.6-4.63-27.43-9.99-38.89-14.9L190.73,221.7l183.94,253.44
	c-0.59-18.48-1.38-36.86-2.43-53.12c-0.39-6-0.56-12.55-0.56-19.49L240.43,221.7L365.41,49.5z M106.62,566.07l28.73,39.58
	c0.34,0.27,0.67,0.52,1.01,0.8c4.4,3.6,9.4,7.88,16.13,12.1l-45.77-63.07C106.68,559.27,106.65,562.81,106.62,566.07z
	 M106.62,566.07c-0.03,4-0.05,7.57-0.07,10.62l13.7,18.88c4.26,2.26,9.36,5.49,15.1,10.09L106.62,566.07z M221.74,634.77
	c-0.09-3.67-0.18-7.37-0.28-11.1l-112.9-155.56c-0.12,3.41-0.23,6.83-0.34,10.25L221.74,634.77z M108.22,478.37
	c-0.11,3.44-0.21,6.87-0.3,10.3l107.43,148.02c2.09,0.18,4.23,0.33,6.44,0.47c-0.02-0.8-0.04-1.58-0.05-2.37L108.22,478.37z
	 M110.85,381.37c0.15,3.8,0.27,7.54,0.35,11.2l175.3,241.53c0.16-0.03,0.31-0.06,0.47-0.08c-0.08-3.43-0.17-6.87-0.26-10.34
	L110.85,381.37z M85.51,86.23c0.7,2.39,1.42,4.98,2.12,7.79l33.09-45.59c-3.44,1.2-6.88,2.35-10.27,3.45L85.51,86.23z
	 M111.21,392.57c0.08,3.71,0.12,7.34,0.11,10.86l168.24,231.81c2.41-0.34,4.71-0.73,6.95-1.13L111.21,392.57z M110.45,51.87
	c-3.4,1.1-6.75,2.13-10.01,3.09l-17.3,23.84c0.77,2.22,1.57,4.69,2.38,7.43L110.45,51.87z M96.86,160.49
	c0.19,3.25,0.35,6.59,0.49,10.04L207.39,18.92l-8.5,1L96.86,160.49z M103.04,291.41l233.73,322.04c1.77-1.33,3.4-2.64,4.95-3.89
	L101.45,278.51C101.98,282.67,102.51,286.98,103.04,291.41z M96.86,160.49L198.89,19.92l-8.5,1L96.21,150.68
	C96.45,153.85,96.67,157.12,96.86,160.49z M103.04,291.41c0.5,4.16,0.99,8.41,1.48,12.75l227.12,312.93
	c1.83-1.22,3.54-2.44,5.13-3.64L103.04,291.41z M272.87,18.6l-7.16-0.84L117.7,221.7l258.75,356.51c-0.01-3.04-0.04-6.67-0.07-10.8
	L125.47,221.7L272.87,18.6z M377.7,590.38c-0.41-0.54-0.89-1.14-1.41-1.75h0.19c0,0,0-3.81-0.03-10.42L117.7,221.7L265.71,17.76
	l-7.16-0.84L109.93,221.7l267.59,368.69C377.65,590.37,377.74,590.36,377.7,590.38z M326.52,34.6c-2.05-0.88-4.02-1.74-5.9-2.58
	L182.95,221.7L375,486.31c-0.11-3.72-0.22-7.45-0.34-11.18L190.73,221.7L326.52,34.6z M182.95,221.7L320.61,32.02
	c-2.06-0.92-4.01-1.82-5.83-2.67L175.18,221.7L375.3,497.42c-0.09-3.68-0.19-7.39-0.29-11.11L182.95,221.7z M377.99,53.58
	c-2.08-0.64-4.19-1.31-6.32-2L248.21,221.7L371.8,391.98c0.08-3.36,0.19-6.78,0.32-10.26L255.98,221.7L377.99,53.58z M371.8,391.98
	L248.21,221.7L371.67,51.58c-2.08-0.67-4.16-1.37-6.26-2.08L240.43,221.7l131.24,180.82C371.67,399.1,371.72,395.58,371.8,391.98z
	 M391.42,124.99c0.68-4.92,1.41-9.46,2.18-13.72L313.46,221.7l64.33,88.63c0.34-3.13,0.69-6.23,1.03-9.29l-57.59-79.34
	L391.42,124.99z M313.46,221.7l80.14-110.42c1-5.53,2.05-10.55,3.13-15.03L305.69,221.7l71.11,97.98c0.32-3.14,0.65-6.26,0.99-9.35
	L313.46,221.7z M386.83,210.51l-8.12,11.19l8.97,12.36c0.05-0.34,0.1-0.69,0.15-1.01l-0.07-1.74l-0.8-8.94l-0.49-0.67l0.38-0.52
	l-0.2-2.24L386.83,210.51z M386.37,242.96c0.49-3.38,0.93-6.37,1.31-8.9l-8.97-12.36l8.12-11.19l0.21-11.01l-16.11,22.19
	L386.37,242.96z"/>
<path class="Colour2 fill" d="M310.51,632.62c1.32-0.5,2.59-1.01,3.82-1.52l58.14-229.8c0.03-11.98-0.57-16.67,1.57-33.89l-7.09,2.34
	L310.51,632.62z"/>
<path class="Colour2 fill" d="M378.46,597.15c-0.41-0.54-0.89-1.14-1.41-1.75h0.19c0,0,0-19.72-0.37-47.41l-21.41,58.6
	C368.8,598.2,378.81,597.02,378.46,597.15z"/>
<path class="Colour3 fill" d="M375.59,487.04l-36.64,132.11c2.7-2.09,5.09-4.1,7.33-5.93c2.27-1.86,4.49-3.5,6.64-4.96l23.89-65.57
	C376.56,525.85,376.18,506.5,375.59,487.04z"/>
<path class="Colour3 fill" d="M302.4,637.4c2.69-0.77,5.22-1.58,7.61-2.43l56.94-265.22l7.09-2.34c1.32-19.59,3.31-39.9,5.45-58.67
	l-26.54,30.32L302.4,637.4z"/>
<path class="Colour2 fill" d="M117.42,369.75l-6.93-2.29c0.89,13.72,1.69,24.26,1.71,36.39l57.96,227.71c1.22,0.5,2.48,0.99,3.79,1.47
	L117.42,369.75z"/>
<path class="Colour3 fill" d="M108.91,487.54c-0.58,19.45-0.96,38.77-1.2,55.57l24.05,66c1.73,1.25,3.51,2.6,5.36,4.13
	c2.57,2.11,5.35,4.45,8.56,6.87L108.91,487.54z"/>
<path class="Colour3 fill" d="M131.42,339.06l-26.36-30.13c2.13,18.74,4.11,38.99,5.43,58.52l6.93,2.29l57.02,265.59
	c2.39,0.82,4.9,1.61,7.58,2.36L131.42,339.06z"/>
<path class="Colour2 fill" d="M129.14,607.26l-21.5-58.86c-0.31,23.73-0.36,41.53-0.36,45.94c-0.92,1.01,0.82,1.97,0.18,2.82
	C107.46,597.15,115.97,598.33,129.14,607.26z"/>
<path class="BottomHem fill" d="M247.02,643.72c-23.06,0-44.97-2.33-47.63-2.63c-24.84-1.12-61.48-29.97-63.04-31.2l-0.4-0.35
	c-4.36-4.2-19.63-11.91-28.23-15.79l-0.07-2.28l-0.52-10.33l5.06,2.28c2.43,1.09,23.79,10.82,31.15,17.7
	c10.01,7.9,39.12,28.01,56.68,28.69l0.4,0.03c0.56,0.06,56.61,6.23,83.66-0.77l0.79-0.14c0.23-0.03,24.51-2.9,47.78-21.61
	c2.48-2.48,21.85-21.42,38.44-24.31l5.46-0.95l0.61,11.13l-4.21,0.95c-11.58,2.01-27.54,16.14-32.72,21.41l-0.47,0.43
	c-24.53,19.83-49.64,23.66-53.33,24.13C275.62,642.85,261.11,643.72,247.02,643.72z"/>
<polygon class="Colour3 fill" points="177.89,48.99 152.75,64.55 152.75,80.24 89.23,112.43 91.19,125.68 161.63,87 161.63,70.45 
	183.67,57.23 "/>
<polygon class="Colour3 fill" points="306.24,50.31 330.99,65.61 330.99,81.02 393.53,112.66 393.34,113.92 391.6,125.68 322.24,87.67 
	322.24,71.4 300.54,58.4 "/>
<path class="Colour2 fill" d="M393.53,110.63c0,0,5.26-31.71,20.02-48.83c0,0-13.51-6.16-29.93-9.37c0,0-42.2-12.41-75.3-29.62
	c0,0,3.79,12.31-2.08,27.5l24.75,15.3l0,15.42l62.54,31.63V110.63z"/>
<path class="Colour2 fill" d="M89.23,110.72c0,0-4.07-33.3-19.06-50.72c0,0,13.72-6.27,30.4-9.54c0,0,42.86-12.63,76.48-30.13
	c0,0-3.85,12.52,2.11,27.98l-25.14,15.57l0,15.69l-64.79,33.22V110.72z"/>
<g id="BBodyLogos"></g>
</svg>
