<?xml version="1.0" encoding="utf-8"?>
<!-- Generator: Adobe Illustrator 19.1.0, SVG Export Plug-In . SVG Version: 6.00 Build 0)  -->
<svg version="1.1" id="Layer_1" xmlns="http://www.w3.org/2000/svg" xmlns:xlink="http://www.w3.org/1999/xlink" x="0px" y="0px"
	 viewBox="0 0 483.01 645.44" style="enable-background:new 0 0 483.01 645.44;" xml:space="preserve">
<style type="text/css">
	<![CDATA[
	@font-face{font-family:'codaheavy';src:url('/fonts/coda-heavy-webfont.woff') format('woff')}
	text{font-family:Impact,codaheavy,sans-serif}
	.Number.fill{fill:#000}
	.NumberOutline.stroke{fill:none;stroke:#777;stroke-width:2.5}
	.Colour1.fill{fill:#1A2651;}
	.Colour2.fill{fill:#171F3D;}
	.Colour3.fill{fill:#060606;stroke:#221915;stroke-width:0.934;stroke-miterlimit:10;}
	.NeckTrim.fill{fill:#1A2651;}
	.ArmTrim.fill{fill:#060606;}
	.BottomHem.fill{fill:#A03035;stroke:#101010;stroke-width:0.8861;stroke-miterlimit:10;}
	.st0{stroke:#221915;stroke-width:0.8861;stroke-miterlimit:10;}
	.st1{fill:none;stroke:#0A0505;stroke-width:0.328;stroke-miterlimit:10;}
	.st2{fill:none;stroke:#000000;stroke-width:3;stroke-linecap:round;stroke-linejoin:round;}
	.st3{fill:none;stroke:#221915;stroke-width:0.6559;stroke-miterlimit:10;}
	.st4{fill:none;stroke:#000000;stroke-width:2;stroke-linecap:round;stroke-linejoin:round;}
	.st5{fill:none;stroke:#000000;stroke-width:0.4411;}
	.st6{fill:#C0773C;stroke:#000000;stroke-width:2;stroke-miterlimit:10;}
	.st7{fill:none;stroke:#FFFFFF;stroke-width:0.216;stroke-dasharray:2.4,2.4,2.4,2.4;}
	.st8{fill:#101010;stroke:#FFFFFF;stroke-width:0.216;stroke-dasharray:2.4,2.4,2.4,2.4;}
	.st9{fill:none;stroke:#FFFFFF;stroke-width:0.328;}
	.st10{fill:#FFFFFF;}
	.st11{fill:none;stroke:#221915;stroke-width:0.506;stroke-miterlimit:10;}
	.neckline{fill:none;stroke:#000000;stroke-width:0.6559;}
	]]>
</style>
<path class="Colour1 fill" d="M385.55,197.13c-0.17-95.12,18.57-129.22,21.75-134.32c-4.58-1.79-9.7-3.46-15.41-4.89
	c-33.01-8.23-82.52-28.8-92.04-36l-57.67-6.79h-3.69l-57.67,6.79c-9.52,7.2-59.02,27.77-92.04,36c-5.08,1.27-9.69,2.73-13.87,4.29
	c1.4,2.05,22.31,34.45,22.14,134.91l-3.98,27.41c0,0,21.1,131.65,16.87,197.47c-3.98,61.88-4.21,154.65-4.23,165.55
	c-0.92,1.01,0.82,1.97,0.18,2.82c0,0,12,1.62,29.59,16.07c14.51,11.92,35.49,31.25,104.3,31.25c68.8,0,89.79-19.33,104.3-31.25
	c17.59-14.46,32.53-16.24,32.11-16.07c-0.4-0.54-0.89-1.14-1.4-1.75h0.18c0,0,0-100.79-4.24-166.61
	c-4.23-65.83,16.88-197.47,16.88-197.47L385.55,197.13z"/>
<path class="Colour1 fill" d="M466.84,169c-1.05-12.34-9.6-58.62-27.58-86.39c0,0-9.52-11.53-31.98-20.11c0.02,0.2,0.03,0.31,0.03,0.31
	c-3.18,5.1-21.92,39.2-21.75,134.32l2.06,27.41c0,0,0.12,0.98,0.34,2.76c0.28-1.78,0.43-2.76,0.43-2.76l11.54,62.74
	c0,0,27.38-2.62,43.12-18.28c15.74-15.66,37.42-17.72,37.42-17.72S467.9,181.34,466.84,169z"/>
<path class="Colour1 fill" d="M82.3,287.28l10.96-59.55c-0.11-2.05-0.18-3.19-0.18-3.19l3.98-27.41C97.22,99.34,77.41,66.05,75.06,62.45
	c-22.55,8.59-32.11,20.16-32.11,20.16C24.97,110.38,16.43,156.66,15.37,169c-1.06,12.34-13.63,82.28-13.63,82.28
	s21.69,2.06,37.43,17.72C54.91,284.66,82.3,287.28,82.3,287.28z"/>
<path class="ArmTrim fill" d="M481.5,252.27c0,0-0.39-2.18-1.04-5.84l-83.21,29.99l2.3,12.48c0,0,0.24-0.02,0.69-0.08l36.93-13.31
	c2.21-1.56,4.32-3.28,6.26-5.21C459.44,254.36,481.5,252.27,481.5,252.27z"/>
<path class="ArmTrim fill" d="M1.75,252.27c0,0,0.39-2.18,1.04-5.84L86,276.42l-2.3,12.48c0,0-0.24-0.02-0.69-0.08l-36.93-13.31
	c-2.21-1.56-4.32-3.28-6.26-5.21C23.81,254.36,1.75,252.27,1.75,252.27z"/>
<path class="Colour3 fill" d="M397.26,276.42l83.21-29.99c-0.57-3.23-1.35-7.61-2.24-12.67l-83.29,30.02L397.26,276.42z"/>
<path class="Colour3 fill" d="M86,276.42L2.79,246.43c0.57-3.23,1.35-7.61,2.24-12.67l83.29,30.02L86,276.42z"/>
<path class="st0" d="M386.75,231.3l-1.1-12.37l0.42-21.8c-0.17-95.12,18.57-129.22,21.75-134.32c-4.58-1.79-9.7-3.46-15.41-4.89
	c-33.01-8.23-82.52-28.8-92.04-36l-57.67-6.79h-3.69l-57.67,6.79c-9.52,7.2-59.02,27.77-92.04,36c-5.08,1.27-9.69,2.73-13.87,4.29
	c1.4,2.05,22.31,34.45,22.14,134.91l-2.88,34.48v0c4.27,28.18,19.42,133.7,15.78,190.4c-3.98,61.88-4.21,154.65-4.23,165.55
	c-0.92,1.01,0.82,1.97,0.18,2.82c0,0,12,1.62,29.59,16.07c14.51,11.92,35.49,31.25,104.3,31.25c68.8,0,89.79-19.33,104.3-31.25
	c17.59-14.46,32.53-16.24,32.11-16.07c-0.4-0.54-0.89-1.14-1.4-1.75h0.18c0,0,0-100.79-4.24-166.61
	c-3.59-55.78,11.02-158.81,15.56-188.96L386.75,231.3z"/>
<path class="Colour1 fill" d="M385.3,197.13c-0.17-95.12,18.57-129.22,21.75-134.32c-4.58-1.79-9.7-3.46-15.41-4.89
	c-33.01-8.23-82.52-28.8-92.04-36l-57.67-6.79h-3.69l-57.67,6.79c-9.52,7.2-59.02,27.77-92.04,36c-5.08,1.27-9.69,2.73-13.87,4.29
	c1.4,2.05,22.31,34.45,22.14,134.91l-3.98,27.41c0,0,21.1,131.65,16.87,197.47c-3.98,61.88-4.21,154.65-4.23,165.55
	c-0.92,1.01,0.82,1.97,0.18,2.82c0,0,12,1.62,29.59,16.07c14.51,11.92,35.49,31.25,104.3,31.25c68.8,0,89.79-19.33,104.3-31.25
	c17.59-14.46,32.53-16.24,32.11-16.07c-0.4-0.54-0.89-1.14-1.4-1.75h0.18c0,0,0-100.79-4.24-166.61
	c-4.23-65.83,16.88-197.47,16.88-197.47L385.3,197.13z"/>
<path class="st1" d="M466.59,169c-1.05-12.34-9.6-58.62-27.58-86.39c0,0-13.58-16.46-46.6-24.69c-33.01-8.23-82.52-28.8-92.04-36
	l-57.67-6.79h-3.69l-57.67,6.79c-9.52,7.2-59.02,27.77-92.04,36c-33.01,8.23-46.6,24.69-46.6,24.69
	C24.72,110.38,16.19,156.66,15.13,169C14.07,181.34,1.5,251.28,1.5,251.28s21.69,2.06,37.43,17.72
	c15.74,15.66,43.12,18.28,43.12,18.28l11.54-62.74c0,0,21.1,131.65,16.87,197.47c-3.98,61.88-4.21,154.65-4.23,165.55
	c-0.92,1.01,0.82,1.97,0.18,2.82c0,0,12,1.62,29.59,16.07c14.51,11.92,35.49,31.25,104.3,31.25c68.8,0,89.79-19.33,104.3-31.25
	c17.59-14.46,32.53-16.24,32.11-16.07c-0.4-0.54-0.89-1.14-1.4-1.75h0.18c0,0,0-100.79-4.24-166.61
	c-4.23-65.83,16.88-197.47,16.88-197.47l11.54,62.74c0,0,27.38-2.62,43.12-18.28c15.74-15.66,37.42-17.72,37.42-17.72
	S467.65,181.34,466.59,169z"/>
<path class="Colour1 fill" d="M385.3,197.13c-0.17-95.12,18.57-129.22,21.75-134.32c-4.58-1.79-9.7-3.46-15.41-4.89
	c-33.01-8.23-82.52-28.8-92.04-36l-57.67-6.79h-3.69l-57.67,6.79c-9.52,7.2-59.02,27.77-92.04,36c-5.08,1.27-9.69,2.73-13.87,4.29
	c1.4,2.05,22.31,34.45,22.14,134.91l-3.98,27.41c0,0,21.1,131.65,16.87,197.47c-3.98,61.88-4.21,154.65-4.23,165.55
	c-0.92,1.01,0.82,1.97,0.18,2.82c0,0,12,1.62,29.59,16.07c14.51,11.92,35.49,31.25,104.3,31.25c68.8,0,89.79-19.33,104.3-31.25
	c17.59-14.46,32.53-16.24,32.11-16.07c-0.4-0.54-0.89-1.14-1.4-1.75h0.18c0,0,0-100.79-4.24-166.61
	c-4.23-65.83,16.88-197.47,16.88-197.47L385.3,197.13z"/>
<g>
	<path class="st2" d="M74.83,62.62c0.01,0.01,0.02,0.02,0.02,0.04"/>
	<path class="st2" d="M74.96,62.82c0.02,0.03,0.04,0.06,0.06,0.09"/>
	<path class="st2" d="M88.82,103.99c-0.05-0.22-0.09-0.45-0.14-0.67"/>
	<path class="st2" d="M238.16,15.13l-57.67,6.79c-9.52,7.2-59.02,27.77-92.04,36c-5.08,1.27-9.69,2.73-13.87,4.29
		c0.06,0.08,0.15,0.22,0.26,0.4"/>
	<path class="st2" d="M88.33,101.65c-0.04-0.2-0.08-0.4-0.13-0.59"/>
	<path class="st2" d="M75.5,63.72c0.04,0.07,0.09,0.15,0.13,0.23"/>
	<path class="st2" d="M75.3,63.37c0.04,0.06,0.07,0.12,0.11,0.18"/>
	<path class="st2" d="M75.12,63.07c0.03,0.04,0.05,0.09,0.08,0.14"/>
	<path class="st2" d="M89.31,106.39c-0.05-0.25-0.1-0.5-0.15-0.74"/>
	<path class="st2" d="M87.31,97.17c-0.03-0.14-0.06-0.28-0.1-0.42"/>
	<path class="st2" d="M388.79,130.64c-0.24,1.98-0.47,4.01-0.7,6.09"/>
	<path class="st2" d="M385.5,175.94c0.12-4.02,0.28-7.91,0.47-11.68"/>
	<path class="st2" d="M239.32,637.7c-68.71-0.02-89.67-19.33-104.18-31.25c-17.59-14.46-29.59-16.07-29.59-16.07
		c0.64-0.85-1.1-1.8-0.18-2.82c0.02-10.9,0.25-103.67,4.23-165.55c4.23-65.83-16.87-197.47-16.87-197.47"/>
	<path class="st2" d="M388.09,136.73c-0.22,2.08-0.44,4.21-0.64,6.4"/>
	<path class="st2" d="M89.78,108.85c-0.05-0.27-0.1-0.53-0.15-0.8"/>
	<path class="st2" d="M87.83,99.39c-0.04-0.17-0.08-0.35-0.12-0.52"/>
	<path class="st2" d="M387.27,224.54c0,0-21.11,131.65-16.88,197.47c4.24,65.82,4.24,166.61,4.24,166.61h-0.18
		c0.51,0.61,0.99,1.2,1.4,1.74"/>
	<path class="st2" d="M375.84,590.37c-0.53-0.03-15.07,2.09-32.1,16.08c-14.51,11.92-35.49,31.25-104.3,31.25c-0.04,0-0.08,0-0.12,0
		"/>
	<path class="st2" d="M375.84,590.37C375.84,590.37,375.84,590.37,375.84,590.37C375.86,590.37,375.86,590.37,375.84,590.37"/>
	<path class="st2" d="M91.6,119.5c-0.05-0.35-0.11-0.7-0.16-1.05"/>
	<path class="st2" d="M78.28,69.22c0.1,0.22,0.2,0.44,0.3,0.67"/>
	<path class="st2" d="M77.9,68.39c0.09,0.2,0.19,0.41,0.29,0.62"/>
	<path class="st2" d="M78.68,70.11c0.1,0.24,0.21,0.48,0.32,0.73"/>
	<path class="st2" d="M79.08,71.04c0.11,0.26,0.22,0.53,0.34,0.8"/>
	<path class="st2" d="M79.5,72.04c0.12,0.28,0.24,0.58,0.36,0.88"/>
	<path class="st2" d="M77.54,67.62c0.09,0.18,0.18,0.37,0.27,0.56"/>
	<path class="st2" d="M92.02,122.34c-0.05-0.37-0.11-0.74-0.16-1.11"/>
	<path class="st2" d="M77.19,66.9c0.08,0.17,0.17,0.34,0.25,0.51"/>
	<path class="st2" d="M90.25,111.41c-0.05-0.29-0.1-0.59-0.16-0.88"/>
	<path class="st2" d="M76.25,65.08c0.06,0.12,0.13,0.24,0.2,0.37"/>
	<path class="st2" d="M91.16,116.73c-0.05-0.34-0.11-0.67-0.16-1"/>
	<path class="st2" d="M76.55,65.64c0.07,0.13,0.14,0.27,0.21,0.41"/>
	<path class="st2" d="M75.98,64.57c0.06,0.11,0.12,0.21,0.18,0.33"/>
	<path class="st2" d="M75.73,64.12c0.05,0.09,0.1,0.18,0.16,0.28"/>
	<path class="st2" d="M76.86,66.24c0.08,0.15,0.16,0.31,0.23,0.47"/>
	<path class="st2" d="M90.71,114.04c-0.05-0.32-0.11-0.64-0.16-0.95"/>
	<path class="st2" d="M397.22,87.15c-0.48,1.65-0.96,3.4-1.43,5.24"/>
	<path class="st2" d="M76.55,65.64c-0.03-0.07-0.07-0.13-0.1-0.19"/>
	<path class="st2" d="M80.37,74.22c-0.02-0.05-0.04-0.11-0.06-0.16"/>
	<path class="st2" d="M76.25,65.08c-0.03-0.06-0.06-0.12-0.09-0.18"/>
	<path class="st2" d="M75.73,64.12c-0.03-0.06-0.06-0.11-0.1-0.17"/>
	<path class="st2" d="M75.98,64.57c-0.03-0.06-0.06-0.12-0.09-0.17"/>
	<path class="st2" d="M75.3,63.37c-0.03-0.06-0.07-0.11-0.1-0.16"/>
	<path class="st2" d="M81.29,76.64c-0.01-0.03-0.02-0.06-0.03-0.09"/>
	<path class="st2" d="M75.5,63.72c-0.03-0.06-0.07-0.11-0.1-0.17"/>
	<path class="st2" d="M80.83,75.39c-0.02-0.04-0.03-0.09-0.05-0.13"/>
	<path class="st2" d="M79.5,72.04c-0.03-0.07-0.06-0.13-0.08-0.2"/>
	<path class="st2" d="M79.08,71.04c-0.03-0.07-0.06-0.13-0.09-0.2"/>
	<path class="st2" d="M77.54,67.62c-0.03-0.07-0.07-0.14-0.1-0.21"/>
	<path class="st2" d="M77.9,68.39c-0.03-0.07-0.06-0.14-0.1-0.2"/>
	<path class="st2" d="M79.93,73.1c-0.02-0.06-0.05-0.12-0.07-0.18"/>
	<path class="st2" d="M78.28,69.22c-0.03-0.07-0.06-0.13-0.09-0.2"/>
	<path class="st2" d="M75.12,63.07c-0.03-0.06-0.07-0.11-0.1-0.16"/>
	<path class="st2" d="M76.86,66.24c-0.03-0.07-0.07-0.13-0.1-0.19"/>
	<path class="st2" d="M77.19,66.9c-0.03-0.06-0.06-0.13-0.09-0.19"/>
	<path class="st2" d="M390.34,119.37c-0.55,3.56-1.07,7.31-1.55,11.27"/>
	<path class="st2" d="M398.17,83.97c-0.31,1.02-0.63,2.08-0.95,3.18"/>
	<path class="st2" d="M400.03,78.33c-0.61,1.72-1.23,3.6-1.86,5.64"/>
	<path class="st2" d="M402.61,71.59c-0.27,0.64-0.54,1.31-0.83,2.03"/>
	<path class="st2" d="M401.79,73.61c-0.42,1.07-0.86,2.22-1.31,3.45"/>
	<path class="st2" d="M92.43,125.27c-0.05-0.39-0.11-0.77-0.16-1.15"/>
	<path class="st2" d="M395.79,92.4c-0.8,3.07-1.59,6.41-2.36,10.04"/>
	<path class="st2" d="M74.96,62.82c-0.04-0.06-0.07-0.11-0.1-0.16"/>
	<path class="st2" d="M392.51,106.92c-0.3,1.54-0.6,3.13-0.89,4.77"/>
	<path class="st2" d="M391.18,114.18c-0.29,1.68-0.57,3.41-0.84,5.19"/>
	<path class="st2" d="M386.63,153.33c-0.25,3.52-0.47,7.16-0.66,10.93"/>
	<path class="st2" d="M86.8,95.02c-0.02-0.1-0.05-0.2-0.07-0.3"/>
	<path class="st2" d="M386.63,153.33c0.25-3.52,0.53-6.92,0.83-10.2"/>
	<path class="st2" d="M86.26,92.89c-0.01-0.05-0.02-0.1-0.04-0.15"/>
	<path class="st2" d="M241.6,15.13h0.24l57.67,6.79c9.52,7.2,59.03,27.77,92.04,36c5.71,1.42,10.83,3.1,15.41,4.89
		c-0.45,0.72-1.2,2.01-2.17,3.96"/>
	<path class="st2" d="M403.39,69.78c-0.25,0.57-0.51,1.17-0.78,1.81"/>
	<path class="st2" d="M404.12,68.17c-0.23,0.5-0.48,1.03-0.73,1.6"/>
	<path class="st2" d="M404.8,66.77c-0.21,0.43-0.44,0.9-0.67,1.4"/>
	<path class="st2" d="M96.6,183.62c-0.01-0.62-0.03-1.22-0.04-1.83"/>
	<path class="st2" d="M92.43,125.27c0.08,0.59,0.16,1.19,0.24,1.79"/>
	<path class="st2" d="M79.93,73.1c0.13,0.31,0.25,0.63,0.38,0.96"/>
	<path class="st2" d="M92.02,122.34c0.08,0.59,0.17,1.17,0.25,1.77"/>
	<path class="st2" d="M92.83,128.28c0.08,0.6,0.15,1.21,0.23,1.82"/>
	<path class="st2" d="M96.51,179.3c-0.02-0.62-0.03-1.23-0.05-1.85"/>
	<path class="st2" d="M95.17,151.66c-0.04-0.53-0.08-1.06-0.12-1.58"/>
	<path class="st2" d="M95.43,155.34c-0.04-0.55-0.08-1.09-0.11-1.64"/>
	<path class="st2" d="M90.25,111.41c0.1,0.55,0.2,1.11,0.3,1.68"/>
	<path class="st2" d="M91.6,119.5c0.09,0.57,0.18,1.15,0.26,1.74"/>
	<path class="st2" d="M96.39,175.09c0.02,0.78,0.05,1.58,0.07,2.37"/>
	<path class="st2" d="M93.22,131.36c0.07,0.62,0.15,1.24,0.22,1.87"/>
	<path class="st2" d="M90.71,114.04c0.1,0.56,0.19,1.12,0.28,1.69"/>
	<path class="st2" d="M96.25,170.95c0.03,0.76,0.05,1.53,0.08,2.3"/>
	<path class="st2" d="M91.16,116.73c0.09,0.57,0.18,1.14,0.27,1.72"/>
	<path class="st2" d="M94.89,148.06c-0.04-0.51-0.08-1.01-0.13-1.52"/>
	<path class="st2" d="M94.59,144.56c-0.04-0.5-0.09-0.99-0.14-1.48"/>
	<path class="st2" d="M95.67,159.1c-0.03-0.56-0.07-1.11-0.1-1.67"/>
	<path class="st2" d="M95.89,162.97c0.04,0.72,0.07,1.46,0.11,2.19"/>
	<path class="st2" d="M94.89,148.06c0.05,0.67,0.11,1.34,0.16,2.02"/>
	<path class="st2" d="M96.39,175.09c-0.02-0.62-0.04-1.22-0.06-1.83"/>
	<path class="st2" d="M95.67,159.1c0.04,0.71,0.08,1.43,0.12,2.14"/>
	<path class="st2" d="M96.08,166.91c-0.03-0.59-0.06-1.17-0.08-1.75"/>
	<path class="st2" d="M95.43,155.34c0.05,0.69,0.09,1.4,0.13,2.1"/>
	<path class="st2" d="M95.17,151.66c0.05,0.67,0.1,1.36,0.15,2.04"/>
	<path class="st2" d="M96.08,166.91c0.03,0.74,0.06,1.5,0.1,2.25"/>
	<path class="st2" d="M93.58,134.53c0.07,0.63,0.14,1.26,0.21,1.9"/>
	<path class="st2" d="M93.94,137.79c0.07,0.64,0.13,1.28,0.2,1.93"/>
	<path class="st2" d="M94.27,141.13c0.06,0.64,0.12,1.29,0.18,1.94"/>
	<path class="st2" d="M95.89,162.97c-0.03-0.58-0.06-1.15-0.09-1.72"/>
	<path class="st2" d="M94.59,144.56c0.06,0.66,0.12,1.32,0.17,1.98"/>
	<path class="st2" d="M96.25,170.95c-0.02-0.6-0.05-1.19-0.07-1.78"/>
	<path class="st2" d="M93.94,137.79c-0.05-0.46-0.1-0.91-0.14-1.36"/>
	<path class="st2" d="M96.67,188.03c0.01,1.02,0.02,2.05,0.03,3.08"/>
	<path class="st2" d="M86.26,92.89c0.15,0.6,0.31,1.21,0.46,1.82"/>
	<path class="st2" d="M78.68,70.11c-0.03-0.08-0.07-0.15-0.1-0.22"/>
	<path class="st2" d="M87.31,97.17c0.13,0.56,0.26,1.12,0.39,1.7"/>
	<path class="st2" d="M87.83,99.39c0.12,0.55,0.25,1.11,0.37,1.67"/>
	<path class="st2" d="M96.67,188.03c-0.01-0.59-0.02-1.16-0.03-1.74"/>
	<path class="st2" d="M93.58,134.53c-0.05-0.44-0.1-0.87-0.15-1.3"/>
	<path class="st2" d="M93.22,131.36c-0.05-0.42-0.1-0.84-0.15-1.26"/>
	<path class="st2" d="M80.83,75.39c0.14,0.37,0.28,0.76,0.43,1.15"/>
	<path class="st2" d="M80.37,74.22c0.13,0.34,0.27,0.69,0.4,1.05"/>
	<path class="st2" d="M92.83,128.28c-0.05-0.41-0.11-0.82-0.16-1.22"/>
	<path class="st2" d="M81.29,76.64c1.56,4.27,3.26,9.59,4.94,16.11"/>
	<path class="st2" d="M96.7,192.53c0-0.48-0.01-0.95-0.01-1.42"/>
	<path class="st2" d="M96.7,192.53c0.01,1.52,0.01,3.05,0.01,4.6"/>
	<path class="st2" d="M86.8,95.02c0.14,0.57,0.28,1.15,0.42,1.74"/>
	<path class="st2" d="M89.78,108.85c0.1,0.56,0.21,1.11,0.31,1.68"/>
	<path class="st2" d="M88.82,103.99c0.11,0.55,0.23,1.1,0.34,1.66"/>
	<path class="st2" d="M96.51,179.3c0.02,0.82,0.04,1.65,0.05,2.48"/>
	<path class="st2" d="M94.27,141.13c-0.05-0.48-0.09-0.95-0.14-1.42"/>
	<path class="st2" d="M96.6,183.62c0.02,0.88,0.03,1.77,0.04,2.66"/>
	<path class="st2" d="M89.31,106.39c0.11,0.55,0.22,1.11,0.33,1.67"/>
	<path class="st2" d="M88.33,101.65c0.12,0.55,0.24,1.1,0.36,1.67"/>
	<path class="st2" d="M387.27,224.54c0,0,0.12,0.98,0.34,2.76c0.28-1.78,0.43-2.76,0.43-2.76l11.54,62.74
		c0,0,27.38-2.62,43.12-18.28c15.74-15.66,37.42-17.72,37.42-17.72S467.56,181.34,466.5,169c-1.05-12.34-9.6-58.62-27.58-86.39
		c0,0-9.52-11.53-31.98-20.11c0.02,0.2,0.03,0.31,0.03,0.31c-0.45,0.72-1.2,2.01-2.17,3.96"/>
	<path class="st2" d="M390.34,119.37c0.27-1.78,0.55-3.51,0.84-5.19"/>
	<path class="st2" d="M386.63,153.33c0.25-3.52,0.53-6.92,0.83-10.2"/>
	<path class="st2" d="M387.46,143.13c0.2-2.19,0.41-4.32,0.64-6.4"/>
	<path class="st2" d="M398.17,83.97c0.63-2.04,1.25-3.92,1.86-5.64"/>
	<path class="st2" d="M388.79,130.64c0.48-3.96,1-7.71,1.55-11.27"/>
	<path class="st2" d="M403.39,69.78c0.25-0.57,0.5-1.1,0.73-1.6"/>
	<path class="st2" d="M402.61,71.59c0.27-0.64,0.53-1.24,0.78-1.81"/>
	<path class="st2" d="M404.12,68.17c0.23-0.5,0.46-0.97,0.67-1.4"/>
	<path class="st2" d="M385.5,175.94c0.12-4.02,0.28-7.91,0.47-11.68"/>
	<path class="st2" d="M385.97,164.26c0.19-3.77,0.41-7.41,0.66-10.93"/>
	<path class="st2" d="M395.79,92.4c0.48-1.84,0.96-3.59,1.43-5.24"/>
	<path class="st2" d="M393.43,102.44c0.77-3.62,1.57-6.97,2.36-10.04"/>
	<path class="st2" d="M391.62,111.69c0.29-1.64,0.59-3.22,0.89-4.77"/>
	<path class="st2" d="M388.09,136.73c0.22-2.08,0.46-4.11,0.7-6.09"/>
	<path class="st2" d="M401.79,73.61c0.28-0.71,0.56-1.39,0.83-2.03"/>
	<path class="st2" d="M400.48,77.07c0.45-1.24,0.88-2.38,1.31-3.45"/>
	<path class="st2" d="M397.22,87.15c0.32-1.1,0.63-2.16,0.95-3.18"/>
	<path class="st2" d="M385.5,175.94c-0.2,6.7-0.3,13.76-0.29,21.19l2.06,27.41"/>
	<path class="st2" d="M391.62,111.69c-0.15,0.82-0.29,1.65-0.43,2.49"/>
	<path class="st2" d="M400.48,77.07c-0.15,0.41-0.3,0.83-0.45,1.26"/>
	<path class="st2" d="M393.43,102.44c-0.31,1.45-0.61,2.95-0.92,4.49"/>
	<path class="st2" d="M86.22,92.75c-1.68-6.52-3.38-11.84-4.94-16.11"/>
	<path class="st2" d="M92.88,227c-0.09-1.59-0.14-2.46-0.14-2.46"/>
	<path class="st2" d="M80.31,74.06c-0.13-0.33-0.25-0.65-0.38-0.96"/>
	<path class="st2" d="M96.71,197.13c0-1.55,0-3.08-0.01-4.6"/>
	<path class="st2" d="M96.46,177.46c-0.02-0.79-0.04-1.59-0.07-2.37"/>
	<path class="st2" d="M96.69,191.1c-0.01-1.03-0.01-2.06-0.03-3.08"/>
	<path class="st2" d="M96.64,186.28c-0.01-0.89-0.02-1.78-0.04-2.66"/>
	<path class="st2" d="M79.86,72.92c-0.12-0.3-0.24-0.59-0.36-0.88"/>
	<path class="st2" d="M81.25,76.54c-0.14-0.39-0.29-0.78-0.43-1.15"/>
	<path class="st2" d="M79.42,71.84c-0.11-0.27-0.23-0.54-0.34-0.8"/>
	<path class="st2" d="M96.57,181.79c-0.02-0.83-0.03-1.66-0.05-2.48"/>
	<path class="st2" d="M80.78,75.26c-0.14-0.36-0.27-0.71-0.4-1.05"/>
	<path class="st2" d="M95.32,153.7c-0.05-0.68-0.1-1.37-0.15-2.04"/>
	<path class="st2" d="M93.44,133.23c-0.07-0.63-0.15-1.25-0.22-1.87"/>
	<path class="st2" d="M91,115.72c-0.09-0.57-0.19-1.13-0.28-1.69"/>
	<path class="st2" d="M90.55,113.09c-0.1-0.57-0.2-1.12-0.3-1.68"/>
	<path class="st2" d="M93.79,136.43c-0.07-0.64-0.14-1.27-0.21-1.9"/>
	<path class="st2" d="M94.13,139.71c-0.06-0.65-0.13-1.29-0.2-1.93"/>
	<path class="st2" d="M90.09,110.53c-0.1-0.57-0.21-1.13-0.31-1.68"/>
	<path class="st2" d="M93.06,130.1c-0.08-0.61-0.15-1.22-0.23-1.82"/>
	<path class="st2" d="M91.43,118.44c-0.09-0.58-0.18-1.15-0.27-1.72"/>
	<path class="st2" d="M92.27,124.11c-0.08-0.6-0.17-1.18-0.25-1.77"/>
	<path class="st2" d="M92.67,127.06c-0.08-0.6-0.16-1.2-0.24-1.79"/>
	<path class="st2" d="M89.63,108.06c-0.11-0.56-0.22-1.12-0.33-1.67"/>
	<path class="st2" d="M91.86,121.23c-0.09-0.58-0.17-1.16-0.26-1.74"/>
	<path class="st2" d="M95.57,157.44c-0.04-0.7-0.09-1.41-0.13-2.1"/>
	<path class="st2" d="M96,165.16c-0.04-0.73-0.07-1.47-0.11-2.19"/>
	<path class="st2" d="M96.18,169.17c-0.03-0.75-0.06-1.51-0.1-2.25"/>
	<path class="st2" d="M95.79,161.25c-0.04-0.72-0.08-1.44-0.12-2.14"/>
	<path class="st2" d="M86.72,94.72c-0.15-0.62-0.31-1.23-0.46-1.82"/>
	<path class="st2" d="M87.22,96.76c-0.14-0.59-0.28-1.17-0.42-1.74"/>
	<path class="st2" d="M96.33,173.25c-0.03-0.77-0.05-1.54-0.08-2.3"/>
	<path class="st2" d="M95.05,150.08c-0.05-0.68-0.1-1.35-0.16-2.02"/>
	<path class="st2" d="M94.76,146.54c-0.06-0.66-0.11-1.33-0.17-1.98"/>
	<path class="st2" d="M89.16,105.64c-0.11-0.56-0.23-1.11-0.34-1.66"/>
	<path class="st2" d="M87.71,98.87c-0.13-0.57-0.26-1.14-0.39-1.7"/>
	<path class="st2" d="M94.46,143.07c-0.06-0.65-0.12-1.3-0.18-1.94"/>
	<path class="st2" d="M88.2,101.06c-0.12-0.57-0.25-1.12-0.37-1.67"/>
	<path class="st2" d="M78.99,70.84c-0.11-0.25-0.21-0.49-0.32-0.73"/>
	<path class="st2" d="M90.55,113.09c0.05,0.31,0.11,0.63,0.16,0.95"/>
	<path class="st2" d="M79.86,72.92c0.02,0.06,0.05,0.12,0.07,0.18"/>
	<path class="st2" d="M89.63,108.06c0.05,0.26,0.1,0.53,0.15,0.8"/>
	<path class="st2" d="M89.16,105.64c0.05,0.25,0.1,0.5,0.15,0.74"/>
	<path class="st2" d="M88.68,103.31c0.05,0.22,0.09,0.45,0.14,0.67"/>
	<path class="st2" d="M91,115.72c0.05,0.33,0.11,0.67,0.16,1"/>
	<path class="st2" d="M92.27,124.11c0.05,0.38,0.11,0.77,0.16,1.15"/>
	<path class="st2" d="M91.86,121.23c0.05,0.37,0.11,0.74,0.16,1.11"/>
	<path class="st2" d="M91.43,118.44c0.05,0.35,0.11,0.7,0.16,1.05"/>
	<path class="st2" d="M80.31,74.06c0.02,0.05,0.04,0.11,0.06,0.16"/>
	<path class="st2" d="M80.78,75.26c0.02,0.04,0.03,0.09,0.05,0.13"/>
	<path class="st2" d="M86.22,92.75c0.01,0.05,0.02,0.1,0.04,0.15"/>
	<path class="st2" d="M81.25,76.54c0.01,0.03,0.02,0.06,0.03,0.09"/>
	<path class="st2" d="M92.67,127.06c0.05,0.41,0.11,0.81,0.16,1.22"/>
	<path class="st2" d="M88.2,101.06c0.04,0.19,0.08,0.39,0.13,0.59"/>
	<path class="st2" d="M87.71,98.87c0.04,0.17,0.08,0.34,0.12,0.52"/>
	<path class="st2" d="M87.22,96.76c0.03,0.14,0.06,0.28,0.1,0.42"/>
	<path class="st2" d="M86.72,94.72c0.02,0.1,0.05,0.2,0.07,0.3"/>
	<path class="st2" d="M90.09,110.53c0.05,0.29,0.11,0.58,0.16,0.88"/>
	<path class="st2" d="M96.33,173.25c0.02,0.61,0.04,1.22,0.06,1.83"/>
	<path class="st2" d="M96.18,169.17c0.02,0.59,0.05,1.18,0.07,1.78"/>
	<path class="st2" d="M95.79,161.25c0.03,0.57,0.06,1.14,0.09,1.72"/>
	<path class="st2" d="M78.58,69.88c-0.1-0.23-0.2-0.45-0.3-0.67"/>
	<path class="st2" d="M96,165.16c0.03,0.58,0.06,1.16,0.08,1.75"/>
	<path class="st2" d="M74.53,62.53c-22.41,8.58-31.92,20.08-31.92,20.08C24.63,110.38,16.1,156.66,15.04,169
		c-1.06,12.34-13.63,82.28-13.63,82.28S23.1,253.34,38.84,269c15.74,15.66,43.12,18.28,43.12,18.28l10.96-59.55
		c-0.01-0.26-0.03-0.5-0.04-0.73"/>
	<path class="st2" d="M96.69,191.1c0,0.48,0.01,0.94,0.01,1.42"/>
	<path class="st2" d="M96.57,181.79c0.01,0.61,0.03,1.22,0.04,1.83"/>
	<path class="st2" d="M96.64,186.28c0.01,0.58,0.02,1.15,0.03,1.74"/>
	<path class="st2" d="M95.57,157.44c0.03,0.55,0.07,1.11,0.1,1.67"/>
	<path class="st2" d="M93.79,136.43c0.05,0.45,0.1,0.9,0.14,1.36"/>
	<path class="st2" d="M94.13,139.71c0.05,0.47,0.09,0.94,0.14,1.42"/>
	<path class="st2" d="M94.46,143.07c0.05,0.49,0.09,0.98,0.14,1.48"/>
	<path class="st2" d="M93.44,133.23c0.05,0.43,0.1,0.86,0.15,1.3"/>
	<path class="st2" d="M95.32,153.7c0.04,0.55,0.08,1.09,0.11,1.64"/>
	<path class="st2" d="M93.06,130.1c0.05,0.42,0.1,0.84,0.15,1.26"/>
	<path class="st2" d="M95.05,150.08c0.04,0.53,0.08,1.05,0.12,1.58"/>
	<path class="st2" d="M94.76,146.54c0.04,0.5,0.09,1.01,0.13,1.52"/>
	<path class="st2" d="M96.46,177.46c0.02,0.62,0.04,1.23,0.05,1.85"/>
	<path class="st2" d="M75.41,63.56c-0.04-0.06-0.07-0.12-0.11-0.18"/>
	<path class="st2" d="M75.89,64.4c-0.05-0.1-0.11-0.19-0.16-0.28"/>
	<path class="st2" d="M75.2,63.21c-0.03-0.05-0.06-0.09-0.08-0.14"/>
	<path class="st2" d="M75.63,63.95c-0.05-0.08-0.09-0.15-0.13-0.23"/>
	<path class="st2" d="M88.68,103.31c-0.12-0.56-0.24-1.12-0.36-1.67"/>
	<path class="st2" d="M75.02,62.91c-0.02-0.03-0.04-0.06-0.06-0.09"/>
	<path class="st2" d="M74.86,62.65c-0.01-0.01-0.02-0.02-0.02-0.04"/>
	<path class="st2" d="M77.8,68.19c-0.09-0.19-0.18-0.38-0.27-0.56"/>
	<path class="st2" d="M74.53,62.53c0.07-0.03,0.13-0.05,0.19-0.08c0.03,0.05,0.07,0.11,0.11,0.17"/>
	<path class="st2" d="M76.16,64.9c-0.06-0.11-0.12-0.22-0.18-0.33"/>
	<path class="st2" d="M77.44,67.41c-0.08-0.18-0.17-0.35-0.25-0.51"/>
	<path class="st2" d="M78.19,69.01c-0.1-0.21-0.19-0.42-0.29-0.62"/>
	<path class="st2" d="M76.45,65.45c-0.07-0.13-0.13-0.25-0.2-0.37"/>
	<path class="st2" d="M77.09,66.71c-0.08-0.16-0.16-0.32-0.23-0.47"/>
	<path class="st2" d="M76.76,66.05c-0.07-0.14-0.14-0.28-0.21-0.41"/>
	<path class="st2" d="M75.2,63.21c0.03,0.05,0.06,0.11,0.1,0.16"/>
	<path class="st2" d="M76.76,66.05c0.03,0.06,0.07,0.13,0.1,0.19"/>
	<path class="st2" d="M77.09,66.71c0.03,0.06,0.06,0.13,0.09,0.19"/>
	<path class="st2" d="M76.16,64.9c0.03,0.06,0.06,0.12,0.09,0.18"/>
	<path class="st2" d="M76.45,65.45c0.03,0.06,0.07,0.13,0.1,0.19"/>
	<path class="st2" d="M77.44,67.41c0.03,0.07,0.07,0.14,0.1,0.21"/>
	<path class="st2" d="M77.8,68.19c0.03,0.07,0.06,0.13,0.1,0.2"/>
	<path class="st2" d="M78.99,70.84c0.03,0.07,0.06,0.13,0.09,0.2"/>
	<path class="st2" d="M78.58,69.88c0.03,0.07,0.07,0.15,0.1,0.22"/>
	<path class="st2" d="M75.89,64.4c0.03,0.06,0.06,0.11,0.09,0.17"/>
	<path class="st2" d="M78.19,69.01c0.03,0.07,0.06,0.13,0.09,0.2"/>
	<path class="st2" d="M75.02,62.91c0.03,0.05,0.06,0.11,0.1,0.16"/>
	<path class="st2" d="M79.42,71.84c0.03,0.07,0.06,0.13,0.08,0.2"/>
	<path class="st2" d="M75.63,63.95c0.03,0.05,0.06,0.11,0.1,0.17"/>
	<path class="st2" d="M74.86,62.65c0.03,0.05,0.07,0.11,0.1,0.16"/>
	<path class="st2" d="M75.41,63.56c0.03,0.05,0.06,0.11,0.1,0.17"/>
	<line class="st2" x1="96.71" y1="197.13" x2="92.73" y2="224.54"/>
	<path class="st2" d="M74.53,62.53c2.56,3.98,22.1,37.49,21.93,134.6l-3.98,27.41c0,0,0.14,0.86,0.39,2.46"/>
	<path class="st2" d="M74.53,62.53c-0.09-0.14-0.16-0.24-0.2-0.31c4.18-1.57,8.8-3.03,13.87-4.29c33.02-8.23,82.52-28.8,92.04-36
		l57.67-6.79h0.24"/>
	<path class="st2" d="M239.32,637.7c-0.04,0-0.08,0-0.12,0c-68.81,0-89.79-19.33-104.3-31.25c-17.59-14.46-29.59-16.07-29.59-16.07
		c0.64-0.85-1.1-1.8-0.18-2.82c0.02-10.9,0.25-103.67,4.23-165.55C113.25,361.48,95.72,245.3,92.88,227"/>
	<path class="st2" d="M375.6,590.37C375.6,590.37,375.6,590.37,375.6,590.37C375.62,590.37,375.61,590.37,375.6,590.37"/>
	<path class="st2" d="M375.6,590.37c-0.53-0.03-15.07,2.09-32.1,16.08c-14.5,11.92-35.47,31.23-104.17,31.25"/>
	<path class="st2" d="M375.6,590.37c-0.4-0.54-0.88-1.13-1.4-1.74h0.18c0,0,0-100.79-4.24-166.61
		c-4.23-65.83,16.88-197.47,16.88-197.47l-2.06-27.41c-0.17-95.12,18.57-129.22,21.75-134.32c-4.58-1.79-9.7-3.46-15.41-4.89
		c-33.01-8.23-82.52-28.8-92.04-36l-57.67-6.79"/>
	<line class="st2" x1="238.16" y1="15.13" x2="241.6" y2="15.13"/>
</g>
<path class="Colour2 fill" d="M386.4,211.71c-2.49,6.06-5.51,13.4-8.86,21.54H104c-3.5-8.51-6.64-16.15-9.2-22.36l2-13.76
	c0-0.23,0-0.45,0-0.68h288.5c0,0.23,0,0.45,0,0.68L386.4,211.71z M81.17,76.08c5.05,13.62,11.61,38.37,14.35,79.2h291.07
	c2.74-40.84,9.29-65.59,14.34-79.2H81.17z M120.94,274.43c8.78,21.34,17.59,42.77,23.98,58.31c3.47,7.82,6.23,16,8.35,23.36h174.99
	c2.12-7.35,4.88-15.54,8.35-23.36c6.39-15.54,15.21-36.97,23.99-58.31H120.94z M160.07,400.7l4.83,91.96h151.8l4.79-91.96H160.07z
	 M314.55,533.84H167.06l1.73,32.94h144.05L314.55,533.84z"/>
<path class="NeckTrim fill" d="M178.17,13.95l18.93-5.3l1.01,12.94l-25.95,6.21C172.17,27.79,175.8,22.2,178.17,13.95"/>
<path class="st3" d="M178.17,13.95l18.93-5.3l1.01,12.94l-25.95,6.21C172.17,27.79,175.8,22.2,178.17,13.95z"/>
<path class="NeckTrim fill" d="M301.12,13.95l-20.64-5.3l-1.01,12.94l29.35,6.21C308.83,27.79,303.49,22.2,301.12,13.95"/>
<g>
	<path class="st4" d="M172.17,27.79l25.95-6.21L197.1,8.65l-18.93,5.3C175.8,22.2,172.17,27.79,172.17,27.79z"/>
	<path class="st4" d="M279.47,21.58l29.35,6.21c0,0-5.34-5.6-7.71-13.84l-20.64-5.3L279.47,21.58z"/>
</g>
<path class="st3" d="M301.12,13.95l-20.64-5.3l-1.01,12.94l29.35,6.21C308.83,27.79,303.49,22.2,301.12,13.95z"/>
<path class="st5" d="M75.36,62.11c0,0,22.39,31.09,22.21,135.02"/>
<path class="st5" d="M408.29,62.11c0,0-22.4,31.09-22.21,135.02"/>
<path class="st6" d="M246.37,643.72c-23,0-44.85-2.33-47.5-2.63c-24.78-1.12-61.32-29.97-62.87-31.2l-0.4-0.35
	c-4.35-4.2-19.58-11.91-28.16-15.79l-0.07-2.28l-0.52-10.33l5.05,2.28c2.43,1.09,23.72,10.82,31.07,17.7
	c9.98,7.9,39.01,28.01,56.53,28.69l0.39,0.03c0.56,0.06,56.46,6.23,83.44-0.77l0.79-0.14c0.23-0.03,24.44-2.9,47.66-21.61
	c2.48-2.48,21.8-21.42,38.34-24.31l5.44-0.95l0.61,11.13l-4.2,0.95c-11.55,2.01-27.47,16.14-32.63,21.41l-0.47,0.43
	c-24.47,19.83-49.51,23.66-53.19,24.13C274.9,642.85,260.42,643.72,246.37,643.72"/>
<path class="st7" d="M84.4,284.81c0,0-27.86-2.66-43.88-18.6c-16.01-15.94-38.08-18.03-38.08-18.03"/>
<path class="st7" d="M84.4,283.03c0,0-27.86-2.66-43.88-18.6C24.51,248.5,2.45,246.41,2.45,246.41"/>
<path class="st7" d="M398.28,282.32c0,0,27.86-2.66,43.87-18.6c16.01-15.94,38.08-18.03,38.08-18.03"/>
<path class="st8" d="M398.28,280.55c0,0,27.86-2.66,43.87-18.6c16.01-15.94,38.08-18.03,38.08-18.03"/>
<path class="st9" d="M89.12,95.02c0,0,124.02-32.47,304.94,0"/>
<path class="st7" d="M89.12,98.57c0,0,124.02-32.47,304.94,0"/>
<path class="st7" d="M89.12,100.35c0,0,124.02-32.47,304.94,0"/>
<path class="NeckTrim fill" d="M289.1,10.88c-37.01-9.43-66.84-9.03-105.1,1.33l4.86,11.98c14.39-5.38,31.77-6.54,49.27-6.55
	c16.55,0,33.2,0.88,47.49,5.27L289.1,10.88z"/>
<path class="st11" d="M289.1,10.88c-37.01-9.43-66.84-9.03-105.1,1.33l4.86,11.98c14.39-5.38,31.77-6.54,49.27-6.55
	c16.55,0,33.2,0.88,47.49,5.27L289.1,10.88z"/>
<path class="NeckTrim fill" d="M177.18,16.34l0.75-4.66c3.33-1.24,65.22-21.76,123.59,0l0.75,4.66C242.97-5.77,177.78,16.11,177.18,16.34
	"/>
<path class="neckline" d="M177.18,15.95c0.6-0.22,65.79-22.11,125.09,0l-0.75-4.66c-58.37-21.76-120.26-1.24-123.59,0L177.18,15.95z"/>
<g id="BBodyLogos"></g>
<path class="BottomHem fill" d="M246.37,643.72c-23,0-44.85-2.33-47.5-2.63c-24.78-1.12-61.32-29.97-62.87-31.2l-0.4-0.35
	c-4.35-4.2-19.58-11.91-28.16-15.79l-0.07-2.28l-0.52-10.33l5.05,2.28c2.43,1.09,23.72,10.82,31.07,17.7
	c9.98,7.9,39.01,28.01,56.53,28.69l0.39,0.03c0.56,0.06,56.46,6.23,83.44-0.77l0.79-0.14c0.23-0.03,24.44-2.9,47.66-21.61
	c2.48-2.48,21.8-21.42,38.34-24.31l5.44-0.95l0.61,11.13l-4.2,0.95c-11.55,2.01-27.47,16.14-32.63,21.41l-0.47,0.43
	c-24.47,19.83-49.51,23.66-53.19,24.13C274.9,642.85,260.42,643.72,246.37,643.72z"/>
</svg>
