<?xml version="1.0" encoding="utf-8"?>
<!-- Generator: Adobe Illustrator 19.1.0, SVG Export Plug-In . SVG Version: 6.00 Build 0)  -->
<svg version="1.1" id="Layer_1" xmlns="http://www.w3.org/2000/svg" xmlns:xlink="http://www.w3.org/1999/xlink" x="0px" y="0px"
	 viewBox="0 0 483.01 645.44" style="enable-background:new 0 0 483.01 645.44;" xml:space="preserve">
<style type="text/css">
	<![CDATA[
	@font-face{font-family:'codaheavy';src:url('/fonts/coda-heavy-webfont.woff') format('woff')}
	text{font-family:Impact,codaheavy,sans-serif}
	.Number.fill{fill:#000}
	.NumberOutline.stroke{fill:none;stroke:#777;stroke-width:2.5}
	.Colour1.fill{fill:#BE354D;}
	.Colour2.fill{fill:#603452;}
	.ArmTrim.fill{fill:#603452;}
	.NeckTrim.fill{fill:#603452;}
	.BottomHem.fill{fill:#603452;}
	.st0{fill:none;stroke:#000000;stroke-width:2;stroke-linecap:round;stroke-linejoin:round;}
	.st1{fill:none;stroke:#603452;stroke-width:0.6559;stroke-miterlimit:10;}
	.st2{fill:none;stroke:#000000;stroke-width:0.4411;}
	.st3{fill:#C0773C;stroke:#000000;stroke-width:2;stroke-miterlimit:10;}
	.st4{fill:none;stroke:#FFFFFF;stroke-width:0.216;stroke-dasharray:2.4,2.4,2.4,2.4;}
	.st5{fill:none;stroke:#FFFFFF;stroke-width:0.328;}
	.st6{fill:#FFFFFF;}
	.st7{fill:none;stroke:#221915;stroke-width:0.506;stroke-miterlimit:10;}
	.st8{fill:none;stroke:#0A0505;stroke-width:0.328;stroke-miterlimit:10;}
	.neckline{fill:none;stroke:#000000;stroke-width:0.6559;}
	]]>
</style>
<path class="Colour1 fill" d="M386.94,193.57c-0.17-95.12,18.7-129.22,21.9-134.32c-4.61-1.79-9.77-3.46-15.52-4.89
	c-33.24-8.23-83.09-28.8-92.67-36l-58.06-6.79h-3.72l-58.06,6.79c-9.59,7.2-59.43,27.77-92.67,36c-5.11,1.27-9.76,2.73-13.97,4.29
	c1.4,2.05,22.46,34.45,22.29,134.91l-4.01,27.41c0,0,21.25,131.65,16.99,197.47c-4.01,61.88-4.24,154.65-4.26,165.55
	c-0.92,1.01,0.82,1.97,0.18,2.82c0,0,12.08,1.62,29.79,16.07c14.61,11.92,35.74,31.25,105.02,31.25c69.27,0,90.4-19.33,105.01-31.25
	c17.71-14.46,32.76-16.24,32.33-16.07c-0.41-0.54-0.89-1.14-1.41-1.75h0.19c0,0,0-100.79-4.26-166.61
	c-4.26-65.83,16.99-197.47,16.99-197.47L386.94,193.57z"/>
<path class="Colour1 fill" d="M468.78,165.44c-1.06-12.34-9.66-58.62-27.77-86.39c0,0-9.59-11.53-32.2-20.11
	c0.02,0.2,0.03,0.31,0.03,0.31c-3.2,5.1-22.07,39.2-21.9,134.32l2.07,27.41c0,0,0.12,0.98,0.34,2.76c0.28-1.78,0.44-2.76,0.44-2.76
	l11.62,62.74c0,0,27.57-2.62,43.42-18.28c15.85-15.66,37.68-17.72,37.68-17.72S469.85,177.78,468.78,165.44z"/>
<path class="Colour1 fill" d="M81.6,283.72l11.03-59.55c-0.11-2.05-0.18-3.19-0.18-3.19l4.01-27.41C96.63,95.79,76.68,62.49,74.32,58.89
	c-22.71,8.59-32.33,20.16-32.33,20.16c-18.11,27.77-26.7,74.05-27.77,86.39C13.16,177.78,0.5,247.72,0.5,247.72
	s21.84,2.06,37.68,17.72C54.03,281.1,81.6,283.72,81.6,283.72z"/>
<path class="st0" d="M96.93,188.97c0.01,1.52,0.01,3.05,0.01,4.6 M387.42,193.57l2.07,27.41c0,0-21.25,131.65-16.99,197.47
	c4.27,65.82,4.27,166.61,4.27,166.61h-0.19c0.52,0.61,1,1.2,1.41,1.74 M92.94,220.98c0,0,21.25,131.65,16.99,197.47
	c-4.01,61.88-4.24,154.65-4.26,165.55c-0.92,1.01,0.82,1.97,0.18,2.82c0,0,12.08,1.62,29.79,16.07
	c14.61,11.92,35.74,31.25,105.02,31.25c69.27,0,90.4-19.33,105.01-31.25c17.14-13.99,31.79-16.11,32.32-16.08 M409.32,59.25
	c-4.61-1.79-9.77-3.46-15.52-4.89c-33.24-8.23-83.09-28.8-92.67-36l-58.06-6.79h-3.72l-58.06,6.79c-9.59,7.2-59.43,27.77-92.67,36
	c-5.11,1.27-9.76,2.73-13.97,4.29c0.06,0.08,0.14,0.21,0.26,0.39 M377.98,586.81C377.98,586.81,377.99,586.82,377.98,586.81
	C378,586.81,378,586.81,377.98,586.81 M387.42,193.57l2.07,27.41c0,0,0.12,0.98,0.34,2.76c0.28-1.78,0.44-2.76,0.44-2.76
	l11.62,62.74c0,0,27.57-2.62,43.42-18.28c15.85-15.66,37.68-17.72,37.68-17.72s-12.65-69.94-13.72-82.28
	c-1.06-12.34-9.66-58.62-27.77-86.39c0,0-9.59-11.53-32.2-20.11c0.02,0.2,0.03,0.31,0.03,0.31 M74.91,59.05
	c-0.04-0.06-0.07-0.11-0.1-0.16C52.1,67.48,42.48,79.05,42.48,79.05c-18.11,27.77-26.7,74.05-27.77,86.39
	c-1.07,12.34-13.72,82.28-13.72,82.28s21.84,2.06,37.68,17.72c15.84,15.66,43.42,18.28,43.42,18.28l11.03-59.55
	c-0.11-2.05-0.18-3.19-0.18-3.19 M96.94,193.57c0-1.55,0-3.08-0.01-4.6 M92.94,220.98l4.01-27.41"/>
<path class="Colour2 fill" d="M372.67,437.56H108.3c0.28-5.35,0.57-10.55,0.9-15.55c0.02-0.26,0.03-0.53,0.05-0.79h262.48
	c0.02,0.26,0.03,0.53,0.05,0.79C372.09,427.01,372.39,432.22,372.67,437.56z M377.26,590.38c-0.41-0.54-0.89-1.14-1.41-1.75h0.19
	c0,0,0-45.39-1.29-95.15H106.22c-1.17,45.31-1.28,87-1.29,94.08c-0.92,1.01,0.82,1.97,0.18,2.82c0,0,7.37,1.01,19.01,8.31h119.82
	h4.18h107.92C368.49,591.34,377.6,590.25,377.26,590.38z M108.46,365.31h264.05c0.34-5.39,0.73-10.85,1.16-16.34H107.3
	C107.73,354.46,108.12,359.92,108.46,365.31z M373.57,457.35H107.39c-0.22,5.4-0.41,10.86-0.59,16.34h267.36
	C373.98,468.21,373.79,462.75,373.57,457.35z M109.76,401.44h261.45c0.01-5.25,0.13-10.72,0.32-16.34h-262.1
	C109.63,390.72,109.74,396.19,109.76,401.44z"/>
<path class="NeckTrim fill" d="M178.14,13.95l19.06-5.3l1.02,12.94l-26.13,6.21C172.09,27.79,175.75,22.2,178.14,13.95"/>
<path class="st1" d="M178.14,13.95l19.06-5.3l1.02,12.94l-26.13,6.21C172.09,27.79,175.75,22.2,178.14,13.95z"/>
<path class="NeckTrim fill" d="M301.93,13.95l-20.78-5.3l-1.01,12.94l29.56,6.21C309.69,27.79,304.31,22.2,301.93,13.95"/>
<path class="st1" d="M301.93,13.95l-20.78-5.3l-1.01,12.94l29.56,6.21C309.69,27.79,304.31,22.2,301.93,13.95z"/>
<path class="st2" d="M74.62,62.11c0,0,22.54,31.09,22.37,135.02"/>
<path class="st2" d="M409.83,62.11c0,0-22.55,31.09-22.37,135.02"/>
<path class="st3" d="M246.81,643.72c-23.16,0-45.16-2.33-47.83-2.63c-24.95-1.12-61.74-29.97-63.3-31.2l-0.4-0.35
	c-4.38-4.2-19.71-11.91-28.35-15.79l-0.07-2.28l-0.52-10.33l5.08,2.28c2.44,1.09,23.89,10.82,31.28,17.7
	c10.05,7.9,39.28,28.01,56.91,28.69l0.4,0.03c0.57,0.06,56.85,6.23,84.02-0.77l0.79-0.14c0.23-0.03,24.61-2.9,47.99-21.61
	c2.49-2.48,21.95-21.42,38.6-24.31l5.48-0.95l0.62,11.13l-4.22,0.95c-11.63,2.01-27.66,16.14-32.86,21.41l-0.47,0.43
	c-24.63,19.83-49.85,23.66-53.55,24.13C275.53,642.85,260.95,643.72,246.81,643.72"/>
<path class="st4" d="M83.72,283.03c0,0-28.05-2.66-44.18-18.6C23.42,248.5,1.21,246.41,1.21,246.41"/>
<path class="st4" d="M399.76,282.32c0,0,28.05-2.66,44.18-18.6c16.12-15.94,38.34-18.03,38.34-18.03"/>
<path class="st5" d="M88.47,95.02c0,0,124.87-32.47,307.03,0"/>
<path class="st4" d="M88.47,98.57c0,0,124.87-32.47,307.03,0"/>
<path class="st4" d="M88.47,100.35c0,0,124.87-32.47,307.03,0"/>
<path class="NeckTrim fill" d="M289.83,10.88c-37.27-9.43-67.3-9.03-105.82,1.33l4.9,11.98c14.48-5.38,31.99-6.54,49.61-6.55
	c16.66,0,33.42,0.88,47.82,5.27L289.83,10.88z"/>
<path class="st7" d="M289.83,10.88c-37.27-9.43-67.3-9.03-105.82,1.33l4.9,11.98c14.48-5.38,31.99-6.54,49.61-6.55
	c16.66,0,33.42,0.88,47.82,5.27L289.83,10.88z"/>
<path class="NeckTrim fill" d="M177.14,16.34l0.75-4.66c3.36-1.24,65.67-21.76,124.44,0l0.75,4.66C243.38-5.77,177.74,16.11,177.14,16.34
	"/>
<path class="neckline" d="M177.14,16.34c0.6-0.22,66.24-22.11,125.94,0l-0.75-4.66c-58.77-21.76-121.08-1.24-124.44,0L177.14,16.34z"/>
<path class="ArmTrim fill" d="M478.75,234.18l-80.98,22.64l5.65,32.08c0,0,26.65-2.66,41.98-18.6c15.32-15.94,36.43-18.03,36.43-18.03
	S480.53,244.75,478.75,234.18z"/>
<path class="Colour2 fill" d="M392.15,222.62l0.21-6.41l79.78-22.3c0.31,1.98,0.64,4.01,0.97,6.08L392.15,222.62z M475.3,213.42
	c-0.33-2.02-0.66-4.05-0.99-6.07l-81.24,22.71l1.07,6.05L475.3,213.42z M392.84,202.04l-0.22,6.41l78.38-21.91
	c-0.33-2.15-0.64-4.2-0.91-6.09L392.84,202.04z M477.52,226.83c-0.33-1.97-0.67-4-1.01-6.07l-81.09,22.67l1.06,6.05L477.52,226.83z"
	/>
<path class="ArmTrim fill" d="M4.68,234.15c-1.77,10.59-3.06,18.12-3.06,18.12s21,2.09,36.24,18.03c15.24,15.93,41.76,18.6,41.76,18.6
	l5.62-32.11L4.68,234.15z"/>
<path class="Colour2 fill" d="M87.58,243.4l-1.06,6.05L5.9,226.8c0.33-1.97,0.66-4,1.01-6.07L87.58,243.4z M13.29,180.41
	c-0.28,1.9-0.58,3.94-0.91,6.09l78.27,21.99l0.09-6.32L13.29,180.41z M9.1,207.31c-0.33,2.02-0.66,4.05-0.99,6.07l80.75,22.69
	l1.06-6.05L9.1,207.31z M11.24,193.88c-0.31,1.98-0.63,4.01-0.96,6.08l80.16,22.52l0.09-6.32L11.24,193.88z"/>
<path class="BottomHem fill" d="M246.81,643.72c-23.16,0-45.16-2.33-47.83-2.63c-24.95-1.12-61.74-29.97-63.3-31.2l-0.4-0.35
	c-4.38-4.2-19.71-11.91-28.35-15.79l-0.07-2.28l-0.52-10.33l5.08,2.28c2.44,1.09,23.89,10.82,31.28,17.7
	c10.05,7.9,39.28,28.01,56.91,28.69l0.4,0.03c0.57,0.06,56.85,6.23,84.02-0.77l0.79-0.14c0.23-0.03,24.61-2.9,47.99-21.61
	c2.49-2.48,21.95-21.42,38.6-24.31l5.48-0.95l0.62,11.13l-4.22,0.95c-11.63,2.01-27.66,16.14-32.86,21.41l-0.47,0.43
	c-24.63,19.83-49.85,23.66-53.55,24.13C275.53,642.85,260.95,643.72,246.81,643.72z"/>
<g id="BBodyLogos"></g>
</svg>
