<?xml version="1.0" encoding="utf-8"?>
<!-- Generator: Adobe Illustrator 19.1.0, SVG Export Plug-In . SVG Version: 6.00 Build 0)  -->
<svg version="1.1" id="Layer_1" xmlns="http://www.w3.org/2000/svg" xmlns:xlink="http://www.w3.org/1999/xlink" x="0px" y="0px"
	 viewBox="0 0 483.01 645.44" style="enable-background:new 0 0 483.01 645.44;" xml:space="preserve">
<style type="text/css">
	<![CDATA[
	@font-face{font-family:'codaheavy';src:url('/fonts/coda-heavy-webfont.woff') format('woff')}
	text{font-family:Impact,codaheavy,sans-serif}
	.Number.fill{fill:#000}
	.NumberOutline.stroke{fill:none;stroke:#777;stroke-width:2.5}
	.Colour1.fill{fill:#10122C;}
	.Colour2.fill{fill:#1B5490;}
	.Colour3.fill{fill:#C6C62E;}
	.ArmTrim.fill{fill:#1B5490;}
	.NeckTrim.fill{fill:#C6C62E;}
	.BottomHem.fill{fill:#C6C62E;stroke:#101010;stroke-width:0.8861;stroke-miterlimit:10;}
	.Gradient1.stopColor{stop-color:#0F1633;}
	.st0{fill:none;stroke:#10122C;stroke-width:2;stroke-linecap:round;stroke-linejoin:round;}
	.st1{fill:none;stroke:#0A0505;stroke-width:0.328;stroke-miterlimit:10;}
	.st2{stroke:#221915;stroke-width:0.8861;stroke-miterlimit:10;}
	.st3{fill:#9C2321;stroke:#221915;stroke-width:0.934;stroke-miterlimit:10;}
	.st4{fill:none;stroke:#000000;stroke-linecap:round;stroke-linejoin:round;}
	.st5{fill:none;stroke:#221915;stroke-width:0.6559;stroke-miterlimit:10;}
	.st6{fill:none;stroke:#000000;stroke-width:0.4411;}
	.st7{fill:#C0773C;stroke:#000000;stroke-width:2;stroke-miterlimit:10;}
	.st8{fill:none;stroke:#FFFFFF;stroke-width:0.216;stroke-dasharray:2.4,2.4,2.4,2.4;}
	.st9{fill:#101010;stroke:#FFFFFF;stroke-width:0.216;stroke-dasharray:2.4,2.4,2.4,2.4;}
	.st10{fill:none;stroke:#FFFFFF;stroke-width:0.328;}
	.st11{fill:#FFFFFF;}
	.st12{fill:none;stroke:#221915;stroke-width:0.506;stroke-miterlimit:10;}
	.st13{fill:url(#SVGID_1_);}
	.st14{fill:url(#SVGID_2_);}
	.st15{fill:url(#SVGID_3_);}
	.st16{fill:url(#SVGID_4_);}
	.st17{fill:url(#SVGID_5_);}
	.st18{fill:url(#SVGID_6_);}
	.st19{fill:url(#SVGID_7_);}
	.st20{fill:url(#SVGID_8_);}
	.st21{fill:url(#SVGID_9_);}
	.st22{fill:url(#SVGID_10_);}
	.st23{fill:url(#SVGID_11_);}
	.st24{fill:url(#SVGID_12_);}
	.st25{fill:url(#SVGID_13_);}
	.st26{fill:url(#SVGID_14_);}
	.st27{fill:url(#SVGID_15_);}
	.st28{fill:url(#SVGID_16_);}
	.st29{fill:url(#SVGID_17_);}
	.st30{fill:url(#SVGID_18_);}
	.st31{fill:url(#SVGID_19_);}
	.st32{fill:url(#SVGID_20_);}
	.st33{fill:url(#SVGID_21_);}
	.st34{fill:url(#SVGID_22_);}
	.st35{fill:url(#SVGID_23_);}
	.st36{fill:url(#SVGID_24_);}
	.st37{fill:url(#SVGID_25_);}
	.st38{fill:url(#SVGID_26_);}
	.st39{fill:url(#SVGID_27_);}
	.st40{fill:url(#SVGID_28_);}
	.st41{fill:url(#SVGID_29_);}
	.st42{fill:url(#SVGID_30_);}
	.st43{fill:url(#SVGID_31_);}
	.st44{fill:url(#SVGID_32_);}
	.st45{fill:url(#SVGID_33_);}
	.st46{fill:url(#SVGID_34_);}
	.st47{fill:url(#SVGID_35_);}
	.st48{fill:url(#SVGID_36_);}
	.st49{fill:url(#SVGID_37_);}
	.st50{fill:url(#SVGID_38_);}
	.st51{fill:url(#SVGID_39_);}
	.st52{fill:url(#SVGID_40_);}
	.st53{fill:url(#SVGID_41_);}
	.st54{fill:url(#SVGID_42_);}
	.st55{fill:url(#SVGID_43_);}
	.st56{fill:url(#SVGID_44_);}
	.st57{fill:url(#SVGID_45_);}
	.st58{fill:url(#SVGID_46_);}
	.st59{fill:url(#SVGID_47_);}
	.st60{fill:url(#SVGID_48_);}
	.st61{fill:url(#SVGID_49_);}
	.st62{fill:url(#SVGID_50_);}
	.st63{fill:url(#SVGID_51_);}
	.st64{fill:url(#SVGID_52_);}
	.st65{fill:url(#SVGID_53_);}
	.st66{fill:url(#SVGID_54_);}
	.st67{fill:url(#SVGID_55_);}
	.st68{fill:url(#SVGID_56_);}
	.st69{fill:url(#SVGID_57_);}
	.st70{fill:url(#SVGID_58_);}
	.st71{fill:url(#SVGID_59_);}
	.st72{fill:url(#SVGID_60_);}
	.st73{fill:url(#SVGID_61_);}
	.st74{fill:url(#SVGID_62_);}
	.st75{fill:url(#SVGID_63_);}
	.st76{fill:url(#SVGID_64_);}
	.st77{fill:url(#SVGID_65_);}
	.st78{fill:url(#SVGID_66_);}
	.st79{fill:url(#SVGID_67_);}
	.st80{fill:url(#SVGID_68_);}
	.st81{fill:url(#SVGID_69_);}
	.st82{fill:url(#SVGID_70_);}
	.st83{fill:url(#SVGID_71_);}
	.st84{fill:url(#SVGID_72_);}
	.st85{fill:url(#SVGID_73_);}
	.st86{fill:url(#SVGID_74_);}
	.st87{fill:url(#SVGID_75_);}
	.st88{fill:url(#SVGID_76_);}
	.st89{fill:url(#SVGID_77_);}
	.neckline{fill:none;stroke:#000000;stroke-width:0.6559;}
	]]>
</style>
<path class="Colour1 fill" d="M386.19,195.23c-0.17-95.12,18.6-129.22,21.79-134.32c-4.59-1.79-9.71-3.46-15.44-4.89
	c-33.07-8.23-82.65-28.8-92.19-36l-57.76-6.79h-3.7l-57.76,6.79c-9.54,7.2-59.12,27.77-92.19,36c-5.09,1.27-9.71,2.73-13.9,4.29
	c1.4,2.05,22.35,34.45,22.17,134.91l-3.98,27.41c0,0,21.14,131.65,16.9,197.47c-3.99,61.88-4.22,154.65-4.24,165.55
	c-0.92,1.01,0.82,1.97,0.18,2.82c0,0,12.02,1.62,29.63,16.07c14.54,11.92,35.55,31.25,104.47,31.25
	c68.91,0,89.93-19.33,104.46-31.25c17.62-14.46,32.59-16.24,32.16-16.07c-0.41-0.54-0.89-1.14-1.41-1.75h0.19
	c0,0,0-100.79-4.24-166.61c-4.24-65.83,16.9-197.47,16.9-197.47L386.19,195.23z"/>
<path class="Colour1 fill" d="M467.61,167.1c-1.06-12.34-9.61-58.62-27.62-86.39c0,0-9.54-11.53-32.03-20.11
	c0.02,0.2,0.03,0.31,0.03,0.31c-3.19,5.1-21.96,39.2-21.79,134.32l2.06,27.41c0,0,0.12,0.98,0.34,2.76
	c0.28-1.78,0.43-2.76,0.43-2.76l11.56,62.74c0,0,27.43-2.62,43.19-18.28c15.76-15.66,37.48-17.72,37.48-17.72
	S468.67,179.45,467.61,167.1z"/>
<path class="Colour1 fill" d="M82.45,285.38l10.98-59.55c-0.11-2.05-0.18-3.19-0.18-3.19l3.98-27.41C97.39,97.45,77.55,64.15,75.21,60.56
	c-22.59,8.59-32.16,20.16-32.16,20.16c-18.01,27.77-26.56,74.05-27.62,86.39c-1.06,12.34-13.65,82.28-13.65,82.28
	s21.72,2.06,37.49,17.72C55.02,282.76,82.45,285.38,82.45,285.38z"/>
<g>
	<path class="st0" d="M77.51,63.74c-0.03-0.06-0.07-0.12-0.1-0.19"/>
	<path class="st0" d="M79.64,68.21c-0.03-0.07-0.06-0.14-0.09-0.21"/>
	<path class="st0" d="M80.05,69.15c-0.03-0.08-0.06-0.15-0.1-0.22"/>
	<path class="st0" d="M78.86,66.49c-0.03-0.07-0.06-0.13-0.09-0.19"/>
	<path class="st0" d="M79.24,67.31c-0.03-0.06-0.06-0.13-0.09-0.19"/>
	<path class="st0" d="M78.5,65.72c-0.03-0.07-0.06-0.13-0.1-0.2"/>
	<path class="st0" d="M77.82,64.34c-0.03-0.06-0.06-0.13-0.1-0.19"/>
	<path class="st0" d="M78.15,65c-0.03-0.06-0.06-0.12-0.09-0.19"/>
	<path class="st0" d="M88.29,95.27c-0.03-0.14-0.06-0.27-0.1-0.41"/>
	<path class="st0" d="M77.21,63.18c-0.03-0.06-0.06-0.12-0.09-0.17"/>
	<path class="st0" d="M87.77,93.09c-0.02-0.09-0.04-0.18-0.06-0.26"/>
	<path class="st0" d="M87.24,91.01c-0.01-0.05-0.03-0.11-0.04-0.16"/>
	<path class="st0" d="M80.9,71.21c-0.03-0.07-0.05-0.13-0.08-0.19"/>
	<path class="st0" d="M88.8,97.48c-0.04-0.17-0.08-0.34-0.11-0.5"/>
	<path class="st0" d="M78.5,65.72c0.09,0.19,0.18,0.38,0.27,0.57"/>
	<path class="st0" d="M81.34,72.32c-0.02-0.06-0.05-0.12-0.07-0.18"/>
	<path class="st0" d="M81.79,73.5c-0.02-0.05-0.03-0.09-0.05-0.13"/>
	<path class="st0" d="M78.15,65c0.08,0.17,0.17,0.34,0.25,0.52"/>
	<path class="st0" d="M76.94,62.68c0.06,0.11,0.12,0.22,0.18,0.33"/>
	<path class="st0" d="M77.21,63.18c0.06,0.12,0.13,0.24,0.2,0.37"/>
	<path class="st0" d="M76.69,62.23c0.05,0.09,0.1,0.18,0.15,0.28"/>
	<path class="st0" d="M76.46,61.83c0.04,0.07,0.09,0.15,0.13,0.23"/>
	<path class="st0" d="M89.31,99.76c-0.04-0.2-0.09-0.4-0.13-0.6"/>
	<path class="st0" d="M76.26,61.48c0.04,0.06,0.07,0.12,0.11,0.18"/>
	<path class="st0" d="M77.51,63.74c0.07,0.13,0.14,0.27,0.21,0.42"/>
	<path class="st0" d="M77.82,64.34c0.08,0.15,0.16,0.31,0.24,0.47"/>
	<path class="st0" d="M76.69,62.23c-0.03-0.06-0.07-0.12-0.1-0.18"/>
	<path class="st0" d="M76.46,61.83c-0.03-0.06-0.07-0.11-0.1-0.17"/>
	<path class="st0" d="M76.26,61.48c-0.03-0.06-0.07-0.11-0.1-0.17"/>
	<path class="st0" d="M76.94,62.68c-0.03-0.06-0.06-0.11-0.09-0.17"/>
	<path class="st0" d="M76.08,61.18c-0.03-0.06-0.07-0.11-0.1-0.17"/>
	<path class="st0" d="M76.08,61.18c0.03,0.04,0.05,0.09,0.08,0.13"/>
	<path class="st0" d="M75.92,60.92c-0.04-0.06-0.07-0.11-0.1-0.16"/>
	<path class="st0" d="M75.92,60.92c0.02,0.03,0.04,0.06,0.06,0.09"/>
	<path class="st0" d="M75.79,60.72c0.01,0.01,0.02,0.03,0.03,0.04"/>
	<path class="st0" d="M82.26,74.74c-0.01-0.03-0.02-0.06-0.03-0.09"/>
	<path class="st0" d="M89.8,102.1c-0.05-0.23-0.1-0.46-0.14-0.69"/>
	<path class="st0" d="M97.7,190.64c0.01,1.52,0.01,3.05,0.01,4.59"/>
	<path class="st0" d="M96.88,161.07c0.04,0.72,0.07,1.46,0.11,2.19"/>
	<path class="st0" d="M96.66,157.21c0.04,0.7,0.08,1.42,0.12,2.13"/>
	<path class="st0" d="M97.24,169.05c0.03,0.77,0.06,1.55,0.08,2.33"/>
	<path class="st0" d="M97.66,186.13c0.01,0.96,0.02,1.95,0.02,2.92"/>
	<path class="st0" d="M97.6,181.73c0.02,0.87,0.03,1.76,0.04,2.64"/>
	<path class="st0" d="M97.5,177.4c0.02,0.83,0.04,1.67,0.05,2.51"/>
	<path class="st0" d="M97.39,173.19c0.03,0.8,0.05,1.61,0.07,2.42"/>
	<path class="st0" d="M96.42,153.44c0.05,0.69,0.09,1.39,0.13,2.09"/>
	<path class="st0" d="M94.58,132.65c0.07,0.62,0.14,1.24,0.21,1.87"/>
	<path class="st0" d="M94.2,129.48c0.07,0.61,0.15,1.22,0.22,1.84"/>
	<path class="st0" d="M96.16,149.76c0.05,0.68,0.1,1.37,0.15,2.05"/>
	<path class="st0" d="M93.82,126.39c0.08,0.6,0.15,1.2,0.23,1.81"/>
	<path class="st0" d="M94.93,135.9c0.07,0.63,0.13,1.27,0.19,1.91"/>
	<path class="st0" d="M95.26,139.24c0.06,0.64,0.12,1.29,0.18,1.94"/>
	<path class="st0" d="M95.88,146.17c0.05,0.67,0.11,1.34,0.16,2.02"/>
	<path class="st0" d="M95.58,142.66c0.06,0.65,0.12,1.32,0.17,1.98"/>
	<path class="st0" d="M97.07,165.01c0.03,0.75,0.06,1.51,0.1,2.27"/>
	<path class="st0" d="M91.7,112.15c-0.06-0.32-0.11-0.65-0.17-0.96"/>
	<path class="st0" d="M92.58,117.6c-0.05-0.36-0.11-0.71-0.16-1.06"/>
	<path class="st0" d="M92.15,114.84c-0.06-0.34-0.11-0.68-0.17-1.02"/>
	<path class="st0" d="M93.01,120.45c-0.05-0.37-0.11-0.75-0.16-1.11"/>
	<path class="st0" d="M90.77,106.98c-0.05-0.28-0.1-0.56-0.16-0.83"/>
	<path class="st0" d="M90.29,104.51c-0.05-0.25-0.1-0.51-0.15-0.76"/>
	<path class="st0" d="M91.24,109.52c-0.05-0.29-0.11-0.59-0.16-0.88"/>
	<path class="st0" d="M89.8,102.1c0.11,0.54,0.22,1.08,0.34,1.64"/>
	<path class="st0" d="M93.42,123.39c-0.05-0.4-0.11-0.79-0.16-1.18"/>
	<path class="st0" d="M91.24,109.52c0.1,0.55,0.2,1.11,0.3,1.67"/>
	<path class="st0" d="M90.77,106.98c0.1,0.55,0.21,1.1,0.31,1.66"/>
	<path class="st0" d="M93.66,125.16c-0.08-0.59-0.16-1.18-0.24-1.77"/>
	<path class="st0" d="M91.7,112.15c0.09,0.55,0.19,1.11,0.28,1.67"/>
	<path class="st0" d="M90.29,104.51c0.11,0.54,0.21,1.09,0.32,1.64"/>
	<path class="st0" d="M93.01,120.45c0.08,0.58,0.17,1.16,0.25,1.75"/>
	<path class="st0" d="M92.15,114.84c0.09,0.56,0.18,1.13,0.27,1.7"/>
	<path class="st0" d="M92.58,117.6c0.09,0.57,0.18,1.15,0.26,1.73"/>
	<path class="st0" d="M80.47,70.14c-0.03-0.07-0.05-0.13-0.08-0.2"/>
	<path class="st0" d="M377.28,588.47c-0.53-0.03-15.1,2.09-32.15,16.08c-14.53,11.92-35.55,31.25-104.46,31.25
		c-68.92,0-89.93-19.33-104.47-31.25c-17.61-14.46-29.63-16.07-29.63-16.07c0.64-0.85-1.1-1.8-0.18-2.82
		c0.02-10.9,0.25-103.67,4.24-165.55c4.24-65.83-16.9-197.47-16.9-197.47"/>
	<path class="st0" d="M75.79,60.72c-0.11-0.18-0.2-0.31-0.26-0.4c4.19-1.57,8.81-3.03,13.9-4.29c33.07-8.23,82.65-28.8,92.19-36
		l57.76-6.79h3.7l57.76,6.79c9.54,7.2,59.12,27.77,92.19,36c5.72,1.42,10.85,3.1,15.44,4.89"/>
	<path class="st0" d="M81.79,73.5c0.14,0.37,0.28,0.76,0.43,1.15"/>
	<path class="st0" d="M388.73,222.64c0,0-21.14,131.65-16.9,197.47c4.24,65.82,4.24,166.61,4.24,166.61h-0.19
		c0.51,0.61,0.99,1.2,1.4,1.74"/>
	<path class="st0" d="M97.6,181.73c-0.01-0.61-0.03-1.21-0.04-1.82"/>
	<path class="st0" d="M97.5,177.4c-0.01-0.6-0.03-1.2-0.05-1.79"/>
	<path class="st0" d="M97.66,186.13c-0.01-0.59-0.02-1.17-0.03-1.76"/>
	<path class="st0" d="M97.7,190.64c0-0.53-0.01-1.06-0.01-1.59"/>
	<path class="st0" d="M87.24,91.01c0.15,0.6,0.31,1.2,0.46,1.81"/>
	<path class="st0" d="M89.66,101.41c-0.12-0.56-0.24-1.11-0.35-1.65"/>
	<path class="st0" d="M82.26,74.74c1.56,4.27,3.26,9.59,4.94,16.11"/>
	<path class="st0" d="M87.77,93.09c0.14,0.58,0.29,1.17,0.43,1.77"/>
	<path class="st0" d="M88.29,95.27c0.13,0.56,0.27,1.13,0.4,1.7"/>
	<path class="st0" d="M88.8,97.48c0.13,0.55,0.25,1.11,0.38,1.68"/>
	<path class="st0" d="M377.28,588.47C377.28,588.47,377.29,588.48,377.28,588.47C377.3,588.47,377.3,588.47,377.28,588.47"/>
	<path class="st0" d="M95.26,139.24c-0.05-0.48-0.09-0.95-0.14-1.43"/>
	<path class="st0" d="M95.58,142.66c-0.04-0.5-0.09-0.99-0.14-1.48"/>
	<path class="st0" d="M94.93,135.9c-0.05-0.46-0.1-0.92-0.15-1.38"/>
	<path class="st0" d="M97.39,173.19c-0.02-0.61-0.04-1.2-0.06-1.81"/>
	<path class="st0" d="M94.58,132.65c-0.05-0.45-0.1-0.89-0.15-1.34"/>
	<path class="st0" d="M95.88,146.17c-0.04-0.51-0.09-1.02-0.13-1.53"/>
	<path class="st0" d="M94.2,129.48c-0.05-0.43-0.1-0.85-0.16-1.27"/>
	<path class="st0" d="M93.66,125.16c0.05,0.41,0.11,0.82,0.16,1.23"/>
	<path class="st0" d="M97.07,165.01c-0.03-0.59-0.06-1.17-0.08-1.75"/>
	<path class="st0" d="M96.88,161.07c-0.03-0.58-0.06-1.15-0.1-1.72"/>
	<path class="st0" d="M97.24,169.05c-0.02-0.59-0.05-1.18-0.07-1.77"/>
	<path class="st0" d="M96.42,153.44c-0.04-0.55-0.08-1.09-0.11-1.63"/>
	<path class="st0" d="M96.66,157.21c-0.03-0.56-0.07-1.12-0.1-1.68"/>
	<path class="st0" d="M96.16,149.76c-0.04-0.53-0.08-1.05-0.12-1.57"/>
	<path class="st0" d="M79.64,68.21c0.1,0.23,0.21,0.48,0.31,0.72"/>
	<path class="st0" d="M79.24,67.31c0.1,0.22,0.2,0.45,0.31,0.68"/>
	<path class="st0" d="M80.05,69.15c0.11,0.26,0.22,0.52,0.34,0.8"/>
	<path class="st0" d="M78.86,66.49c0.1,0.21,0.19,0.42,0.29,0.64"/>
	<path class="st0" d="M81.34,72.32c0.13,0.34,0.27,0.69,0.4,1.04"/>
	<path class="st0" d="M80.47,70.14c0.12,0.28,0.24,0.57,0.35,0.87"/>
	<path class="st0" d="M80.9,71.21c0.12,0.3,0.25,0.62,0.37,0.94"/>
	<path class="st0" d="M408.46,60.92c0,0-0.01-0.11-0.03-0.31c22.49,8.58,32.03,20.11,32.03,20.11
		c18.01,27.77,26.57,74.05,27.62,86.39c1.06,12.34,13.65,82.28,13.65,82.28s-21.72,2.06-37.48,17.72
		c-15.76,15.66-43.19,18.28-43.19,18.28l-11.56-62.74c0,0-0.16,0.97-0.43,2.76c-0.22-1.78-0.34-2.76-0.34-2.76"/>
	<path class="st0" d="M408.46,60.92c-3.19,5.1-21.96,39.2-21.79,134.32l2.06,27.41"/>
	<path class="st0" d="M77.12,63.01c0.03,0.06,0.06,0.11,0.09,0.17"/>
	<path class="st0" d="M77.41,63.55c0.03,0.06,0.06,0.12,0.1,0.19"/>
	<path class="st0" d="M97.64,184.37c0.01,0.59,0.02,1.17,0.03,1.76"/>
	<path class="st0" d="M97.56,179.91c0.01,0.61,0.03,1.21,0.04,1.82"/>
	<path class="st0" d="M90.14,103.74c0.05,0.25,0.1,0.51,0.15,0.76"/>
	<path class="st0" d="M96.31,151.81c-0.05-0.69-0.1-1.38-0.15-2.05"/>
	<path class="st0" d="M97.69,189.05c0,0.53,0.01,1.05,0.01,1.59"/>
	<path class="st0" d="M93.66,125.16c-0.08-0.59-0.16-1.18-0.24-1.77"/>
	<path class="st0" d="M96.04,148.19c-0.05-0.68-0.1-1.35-0.16-2.02"/>
	<path class="st0" d="M79.55,68c0.03,0.07,0.06,0.14,0.09,0.21"/>
	<path class="st0" d="M89.66,101.41c0.05,0.23,0.1,0.46,0.14,0.69"/>
	<path class="st0" d="M92.84,119.34c0.05,0.37,0.11,0.74,0.16,1.11"/>
	<path class="st0" d="M79.95,68.93c0.03,0.07,0.06,0.15,0.1,0.22"/>
	<path class="st0" d="M92.42,116.54c0.06,0.35,0.11,0.71,0.16,1.06"/>
	<path class="st0" d="M76.59,62.05c0.03,0.06,0.07,0.12,0.1,0.18"/>
	<path class="st0" d="M96.99,163.26c-0.04-0.73-0.07-1.47-0.11-2.19"/>
	<path class="st0" d="M97.17,167.28c-0.03-0.76-0.06-1.52-0.1-2.27"/>
	<path class="st0" d="M93.26,122.21c0.05,0.39,0.11,0.79,0.16,1.18"/>
	<path class="st0" d="M90.61,106.15c0.05,0.27,0.1,0.55,0.16,0.83"/>
	<path class="st0" d="M91.08,108.64c0.05,0.29,0.11,0.58,0.16,0.88"/>
	<path class="st0" d="M78.77,66.3c0.03,0.06,0.06,0.13,0.09,0.19"/>
	<path class="st0" d="M96.78,159.35c-0.04-0.71-0.08-1.43-0.12-2.13"/>
	<path class="st0" d="M91.98,113.82c0.06,0.34,0.11,0.68,0.17,1.02"/>
	<path class="st0" d="M91.53,111.19c0.06,0.32,0.11,0.64,0.17,0.96"/>
	<path class="st0" d="M76.85,62.51c0.03,0.06,0.06,0.11,0.09,0.17"/>
	<path class="st0" d="M96.56,155.53c-0.04-0.7-0.09-1.4-0.13-2.09"/>
	<path class="st0" d="M95.45,141.18c0.05,0.49,0.09,0.98,0.14,1.48"/>
	<path class="st0" d="M94.42,131.31c-0.07-0.62-0.14-1.23-0.22-1.84"/>
	<path class="st0" d="M95.12,137.81c0.05,0.47,0.1,0.95,0.14,1.43"/>
	<path class="st0" d="M94.05,128.2c-0.08-0.61-0.15-1.21-0.23-1.81"/>
	<path class="st0" d="M78.06,64.82c0.03,0.06,0.06,0.12,0.09,0.19"/>
	<path class="st0" d="M95.75,144.64c0.04,0.51,0.09,1.01,0.13,1.53"/>
	<path class="st0" d="M94.42,131.31c0.05,0.44,0.1,0.89,0.15,1.34"/>
	<path class="st0" d="M94.05,128.2c0.05,0.42,0.1,0.85,0.16,1.27"/>
	<path class="st0" d="M94.78,134.52c0.05,0.46,0.1,0.92,0.15,1.38"/>
	<path class="st0" d="M93.66,125.16c0.05,0.41,0.11,0.82,0.16,1.23"/>
	<path class="st0" d="M75.79,60.72c-0.04-0.06-0.07-0.11-0.1-0.16C53.1,69.14,43.52,80.72,43.52,80.72
		c-18.01,27.77-26.56,74.05-27.62,86.39c-1.06,12.34-13.65,82.28-13.65,82.28s21.72,2.06,37.49,17.72
		c15.76,15.66,43.19,18.28,43.19,18.28l10.98-59.55c-0.11-2.05-0.18-3.19-0.18-3.19"/>
	<path class="st0" d="M78.4,65.52c0.03,0.07,0.06,0.13,0.1,0.2"/>
	<path class="st0" d="M96.04,148.19c0.04,0.52,0.08,1.04,0.12,1.57"/>
	<path class="st0" d="M94.78,134.52c-0.07-0.63-0.14-1.25-0.21-1.87"/>
	<path class="st0" d="M97.17,167.28c0.02,0.59,0.05,1.17,0.07,1.77"/>
	<path class="st0" d="M76.37,61.66c-0.04-0.06-0.07-0.12-0.11-0.18"/>
	<path class="st0" d="M96.99,163.26c0.03,0.58,0.06,1.16,0.08,1.75"/>
	<path class="st0" d="M77.72,64.15c0.03,0.06,0.06,0.13,0.1,0.19"/>
	<path class="st0" d="M95.75,144.64c-0.06-0.66-0.11-1.33-0.17-1.98"/>
	<path class="st0" d="M97.46,175.61c0.02,0.6,0.03,1.19,0.05,1.79"/>
	<path class="st0" d="M97.32,171.38c0.02,0.6,0.04,1.2,0.06,1.81"/>
	<path class="st0" d="M79.16,67.13c0.03,0.06,0.06,0.12,0.09,0.19"/>
	<path class="st0" d="M96.31,151.81c0.04,0.54,0.08,1.08,0.11,1.63"/>
	<path class="st0" d="M96.56,155.53c0.04,0.56,0.07,1.11,0.1,1.68"/>
	<path class="st0" d="M96.78,159.35c0.03,0.57,0.06,1.14,0.1,1.72"/>
	<path class="st0" d="M95.12,137.81c-0.06-0.64-0.13-1.28-0.19-1.91"/>
	<path class="st0" d="M95.45,141.18c-0.06-0.65-0.12-1.3-0.18-1.94"/>
	<path class="st0" d="M88.69,96.98c0.04,0.17,0.08,0.34,0.11,0.5"/>
	<path class="st0" d="M79.55,68c-0.1-0.23-0.21-0.46-0.31-0.68"/>
	<path class="st0" d="M78.77,66.3c-0.09-0.2-0.18-0.39-0.27-0.57"/>
	<path class="st0" d="M81.27,72.14c0.02,0.06,0.05,0.12,0.07,0.18"/>
	<path class="st0" d="M79.16,67.13c-0.1-0.22-0.2-0.43-0.29-0.64"/>
	<path class="st0" d="M75.98,61.01c-0.02-0.03-0.04-0.06-0.06-0.09"/>
	<path class="st0" d="M79.95,68.93c-0.11-0.25-0.21-0.49-0.31-0.72"/>
	<path class="st0" d="M89.66,101.41c-0.12-0.56-0.24-1.11-0.35-1.65"/>
	<path class="st0" d="M81.27,72.14c-0.13-0.32-0.25-0.63-0.37-0.94"/>
	<path class="st0" d="M80.82,71.01c-0.12-0.3-0.24-0.59-0.35-0.87"/>
	<path class="st0" d="M89.18,99.16c0.04,0.2,0.09,0.4,0.13,0.6"/>
	<path class="st0" d="M75.79,60.72c0.01,0.01,0.02,0.03,0.03,0.04"/>
	<path class="st0" d="M81.74,73.36c-0.13-0.35-0.27-0.7-0.4-1.04"/>
	<path class="st0" d="M80.38,69.95c-0.11-0.27-0.22-0.54-0.34-0.8"/>
	<path class="st0" d="M76.85,62.51c-0.05-0.1-0.1-0.19-0.15-0.28"/>
	<path class="st0" d="M81.74,73.36c0.02,0.05,0.03,0.09,0.05,0.13"/>
	<path class="st0" d="M77.12,63.01c-0.06-0.11-0.12-0.22-0.18-0.33"/>
	<path class="st0" d="M82.22,74.65c0.01,0.03,0.02,0.06,0.03,0.09"/>
	<path class="st0" d="M87.2,90.85c0.01,0.05,0.03,0.11,0.04,0.16"/>
	<path class="st0" d="M88.2,94.86c0.03,0.14,0.06,0.27,0.1,0.41"/>
	<path class="st0" d="M76.59,62.05c-0.05-0.08-0.09-0.15-0.13-0.23"/>
	<path class="st0" d="M77.41,63.55c-0.07-0.13-0.13-0.25-0.2-0.37"/>
	<path class="st0" d="M87.7,92.83c0.02,0.09,0.04,0.18,0.06,0.26"/>
	<path class="st0" d="M78.4,65.52c-0.09-0.18-0.17-0.35-0.25-0.52"/>
	<path class="st0" d="M78.06,64.82c-0.08-0.16-0.16-0.32-0.24-0.47"/>
	<path class="st0" d="M77.72,64.15c-0.07-0.14-0.14-0.28-0.21-0.42"/>
	<path class="st0" d="M76.16,61.31c-0.03-0.05-0.05-0.09-0.08-0.13"/>
	<path class="st0" d="M82.22,74.65c-0.14-0.39-0.29-0.78-0.43-1.15"/>
	<path class="st0" d="M80.38,69.95c0.03,0.07,0.05,0.13,0.08,0.2"/>
	<path class="st0" d="M91.53,111.19c-0.1-0.56-0.2-1.12-0.3-1.67"/>
	<path class="st0" d="M91.08,108.64c-0.1-0.56-0.21-1.11-0.31-1.66"/>
	<path class="st0" d="M97.64,184.37c-0.01-0.88-0.02-1.77-0.04-2.64"/>
	<path class="st0" d="M97.56,179.91c-0.02-0.84-0.03-1.68-0.05-2.51"/>
	<path class="st0" d="M90.61,106.15c-0.11-0.55-0.21-1.1-0.32-1.64"/>
	<path class="st0" d="M92.42,116.54c-0.09-0.57-0.18-1.14-0.27-1.7"/>
	<path class="st0" d="M97.46,175.61c-0.02-0.81-0.04-1.62-0.07-2.42"/>
	<path class="st0" d="M91.98,113.82c-0.09-0.56-0.19-1.12-0.28-1.67"/>
	<path class="st0" d="M93.26,122.21c-0.08-0.59-0.17-1.17-0.25-1.75"/>
	<path class="st0" d="M92.84,119.34c-0.09-0.58-0.17-1.16-0.26-1.73"/>
	<path class="st0" d="M76.16,61.31c0.03,0.05,0.07,0.11,0.1,0.17"/>
	<path class="st0" d="M76.37,61.66c0.03,0.05,0.06,0.11,0.1,0.17"/>
	<path class="st0" d="M88.69,96.98c-0.13-0.58-0.26-1.14-0.4-1.7"/>
	<path class="st0" d="M80.82,71.01c0.03,0.07,0.05,0.13,0.08,0.19"/>
	<path class="st0" d="M75.98,61.01c0.03,0.05,0.07,0.11,0.1,0.17"/>
	<path class="st0" d="M90.14,103.74c-0.11-0.55-0.22-1.1-0.34-1.64"/>
	<path class="st0" d="M87.7,92.83c-0.15-0.62-0.31-1.22-0.46-1.81"/>
	<path class="st0" d="M75.82,60.76c0.03,0.05,0.07,0.11,0.1,0.16"/>
	<path class="st0" d="M87.2,90.85c-1.68-6.52-3.38-11.84-4.94-16.11"/>
	<path class="st0" d="M88.2,94.86c-0.14-0.6-0.29-1.19-0.43-1.77"/>
	<path class="st0" d="M97.69,189.05c-0.01-0.98-0.01-1.96-0.02-2.92"/>
	<path class="st0" d="M97.32,171.38c-0.03-0.78-0.05-1.56-0.08-2.33"/>
	<path class="st0" d="M89.18,99.16c-0.12-0.57-0.25-1.13-0.38-1.68"/>
	<path class="st0" d="M97.71,195.23c0-1.55,0-3.08-0.01-4.59"/>
	<line class="st0" x1="93.72" y1="222.64" x2="97.71" y2="195.23"/>
</g>
<path class="st1" d="M467.36,169c-1.06-12.34-9.61-58.62-27.62-86.39c0,0-13.61-16.46-46.67-24.69c-33.07-8.23-82.65-28.8-92.19-36
	l-57.76-6.79h-3.7l-57.76,6.79c-9.54,7.2-59.12,27.77-92.19,36C56.4,66.15,42.8,82.61,42.8,82.61
	C24.78,110.38,16.24,156.66,15.17,169c-1.06,12.34-13.65,82.28-13.65,82.28s21.72,2.06,37.49,17.72
	c15.76,15.66,43.19,18.28,43.19,18.28l11.56-62.74c0,0,21.14,131.65,16.9,197.47c-3.99,61.88-4.22,154.65-4.24,165.55
	c-0.92,1.01,0.82,1.97,0.18,2.82c0,0,12.02,1.62,29.63,16.07c14.54,11.92,35.55,31.25,104.47,31.25
	c68.91,0,89.93-19.33,104.46-31.25c17.62-14.46,32.59-16.24,32.16-16.07c-0.41-0.54-0.89-1.14-1.41-1.75h0.19
	c0,0,0-100.79-4.24-166.61c-4.24-65.83,16.9-197.47,16.9-197.47l11.56,62.74c0,0,27.43-2.62,43.19-18.28
	c15.76-15.66,37.48-17.72,37.48-17.72S468.43,181.34,467.36,169z"/>
<polygon class="st2" points="3.47,242.86 84.01,280.8 81.99,288.26 1.5,261.32 "/>
<polygon class="ArmTrim fill" points="3.47,242.86 84.01,280.8 81.99,288.26 1.5,261.32 "/>
<polygon class="st3" points="479.54,242.82 398.88,280.82 400.9,288.3 481.5,261.31 "/>
<polygon class="ArmTrim fill" points="479.54,242.82 398.88,280.82 400.9,288.3 481.5,261.31 "/>
<g>
	<polygon class="st4" points="1.5,262.25 81.99,289.2 84.01,281.74 3.47,243.79 	"/>
	<polygon class="st4" points="398.88,281.75 400.9,289.23 481.5,262.25 479.54,243.76 	"/>
</g>
<path class="NeckTrim fill" d="M178.48,13.95l18.96-5.3l1.01,12.94l-25.99,6.21C172.46,27.79,176.11,22.2,178.48,13.95"/>
<path class="st5" d="M178.48,13.95l18.96-5.3l1.01,12.94l-25.99,6.21C172.46,27.79,176.11,22.2,178.48,13.95z"/>
<path class="NeckTrim fill" d="M301.62,13.95l-20.67-5.3l-1.01,12.94l29.4,6.21C309.34,27.79,303.99,22.2,301.62,13.95"/>
<path class="st5" d="M301.62,13.95l-20.67-5.3l-1.01,12.94l29.4,6.21C309.34,27.79,303.99,22.2,301.62,13.95z"/>
<path class="st6" d="M75.5,62.11c0,0,22.43,31.09,22.25,135.02"/>
<path class="st6" d="M408.97,62.11c0,0-22.43,31.09-22.25,135.02"/>
<path class="st7" d="M246.79,643.72c-23.04,0-44.92-2.33-47.58-2.63c-24.82-1.12-61.42-29.97-62.97-31.2l-0.4-0.35
	c-4.35-4.2-19.61-11.91-28.2-15.79l-0.07-2.28l-0.52-10.33l5.06,2.28c2.43,1.09,23.76,10.82,31.12,17.7
	c10,7.9,39.08,28.01,56.62,28.69l0.4,0.03c0.56,0.06,56.55,6.23,83.58-0.77l0.79-0.14c0.23-0.03,24.48-2.9,47.74-21.61
	c2.48-2.48,21.83-21.42,38.4-24.31l5.45-0.95l0.61,11.13l-4.2,0.95c-11.56,2.01-27.51,16.14-32.69,21.41l-0.47,0.43
	c-24.51,19.83-49.59,23.66-53.27,24.13C275.36,642.85,260.86,643.72,246.79,643.72"/>
<path class="st8" d="M84.56,284.81c0,0-27.9-2.66-43.95-18.6c-16.04-15.94-38.14-18.03-38.14-18.03"/>
<path class="st8" d="M84.56,283.03c0,0-27.9-2.66-43.95-18.6C24.57,248.5,2.47,246.41,2.47,246.41"/>
<path class="st8" d="M398.94,282.32c0,0,27.9-2.66,43.95-18.6c16.04-15.94,38.14-18.03,38.14-18.03"/>
<path class="st9" d="M398.94,280.55c0,0,27.9-2.66,43.95-18.6c16.04-15.94,38.14-18.03,38.14-18.03"/>
<path class="st10" d="M89.28,95.02c0,0,124.22-32.47,305.43,0"/>
<path class="st8" d="M89.28,98.57c0,0,124.22-32.47,305.43,0"/>
<path class="st8" d="M89.28,100.35c0,0,124.22-32.47,305.43,0"/>
<path class="NeckTrim fill" d="M289.59,10.88c-37.07-9.43-66.95-9.03-105.27,1.33l4.87,11.98c14.41-5.38,31.83-6.54,49.35-6.55
	c16.58,0,33.25,0.88,47.57,5.27L289.59,10.88z"/>
<path class="st12" d="M289.59,10.88c-37.07-9.43-66.95-9.03-105.27,1.33l4.87,11.98c14.41-5.38,31.83-6.54,49.35-6.55
	c16.58,0,33.25,0.88,47.57,5.27L289.59,10.88z"/>
<path class="NeckTrim fill" d="M177.49,16.34l0.75-4.66c3.34-1.24,65.32-21.76,123.79,0l0.75,4.66C243.39-5.77,178.09,16.11,177.49,16.34
	"/>
<path class="neckline" d="M177.49,16.34c0.6-0.22,65.9-22.11,125.29,0l-0.75-4.66c-58.46-21.76-120.45-1.24-123.79,0L177.49,16.34z"/>
<path class="Colour3 fill" d="M378.07,229.74c-0.65,2.69-1.32,5.38-2.04,8.04c-0.7,2.67-1.42,5.34-2.18,7.99
	c-0.76,2.65-1.47,5.32-2.27,7.96l-2.36,7.93c-0.77,2.65-1.62,5.27-2.44,7.9l-2.47,7.89c-0.83,2.63-1.7,5.24-2.55,7.86l-2.61,7.84
	l-0.44,1.31l-1.36,0.67l-6.29,3.12l-6.31,3.09c-4.22,2.03-8.43,4.08-12.67,6.06c-4.23,2.01-8.48,3.97-12.73,5.93l-6.39,2.91
	l-6.41,2.87c-2.14,0.94-4.27,1.91-6.43,2.83l-6.46,2.78l-6.46,2.77l-6.5,2.68c-2.17,0.88-4.32,1.81-6.51,2.66l-6.55,2.59
	c-2.18,0.86-4.39,1.67-6.58,2.51c-2.2,0.83-4.41,1.63-6.64,2.41c2-1.24,4.02-2.45,6.04-3.64c2.03-1.18,4.05-2.38,6.09-3.53
	l6.13-3.46c2.04-1.17,4.11-2.25,6.16-3.39l6.17-3.36l6.22-3.27l6.22-3.27c2.07-1.1,4.17-2.14,6.25-3.21l6.27-3.17l6.28-3.14
	c4.2-2.07,8.4-4.13,12.62-6.15c4.21-2.05,8.45-4.03,12.68-6.03l6.37-2.96l6.38-2.93l-1.79,1.98l2.94-7.72c1-2.57,1.98-5.14,3.01-7.7
	l3.08-7.67c1.03-2.55,2.03-5.12,3.12-7.66l3.2-7.63c1.05-2.55,2.19-5.07,3.29-7.6c1.09-2.54,2.23-5.05,3.38-7.57
	C375.68,234.74,376.86,232.24,378.07,229.74z"/>
<path class="Colour2 fill" d="M326.12,295.02c2.17-1.05,4.36-2.1,6.56-3.14l6.6-37.68l47.67-126.67l-54.85,124.25l-0.1,0.23l-0.1,0.44
	l-10.46,44.82C322.99,296.52,324.56,295.76,326.12,295.02z"/>
<path class="Colour3 fill" d="M104.47,229.74c0.65,2.69,1.32,5.38,2.04,8.04c0.7,2.67,1.42,5.34,2.18,7.99c0.76,2.65,1.47,5.32,2.27,7.96
	l2.36,7.93c0.77,2.65,1.62,5.27,2.44,7.9l2.47,7.89c0.83,2.63,1.7,5.24,2.55,7.86l2.61,7.84l0.44,1.31l1.36,0.67l6.29,3.12
	l6.31,3.09c4.22,2.03,8.43,4.08,12.67,6.06c4.23,2.01,8.48,3.97,12.73,5.93l6.39,2.91l6.41,2.87c2.14,0.94,4.27,1.91,6.43,2.83
	l6.46,2.78l6.46,2.77l6.5,2.68c2.17,0.88,4.32,1.81,6.51,2.66l6.55,2.59c2.18,0.86,4.39,1.67,6.58,2.51
	c2.2,0.83,4.41,1.63,6.64,2.41c-2-1.24-4.02-2.45-6.04-3.64c-2.03-1.18-4.05-2.38-6.09-3.53l-6.13-3.46
	c-2.04-1.17-4.11-2.25-6.16-3.39l-6.17-3.36l-6.22-3.27l-6.22-3.27c-2.07-1.1-4.17-2.14-6.25-3.21l-6.27-3.17l-6.28-3.14
	c-4.2-2.07-8.4-4.13-12.62-6.15c-4.21-2.05-8.45-4.03-12.68-6.03l-6.37-2.96l-6.38-2.93l1.79,1.98l-2.94-7.72
	c-1-2.57-1.98-5.14-3.01-7.7l-3.08-7.67c-1.03-2.55-2.03-5.12-3.12-7.66l-3.2-7.63c-1.05-2.55-2.19-5.07-3.29-7.6
	c-1.09-2.54-2.23-5.05-3.38-7.57C106.86,234.74,105.68,232.24,104.47,229.74z"/>
<path class="Colour2 fill" d="M156.42,295.02c-2.17-1.05-4.36-2.1-6.56-3.14l-6.6-37.68L95.58,127.53l54.85,124.25l0.1,0.23l0.1,0.44
	l10.46,44.82C159.55,296.52,157.98,295.76,156.42,295.02z"/>
<g>
	<linearGradient id="SVGID_1_" gradientUnits="userSpaceOnUse" x1="241.2699" y1="330.5435" x2="241.2699" y2="628.0988">
		<stop class="Gradient1 stopColor" offset="0" style="stop-color:#0F1633"/>
		<stop class="Colour2 fill stopColor" offset="1" style="stop-color:#1B5490"/>
	</linearGradient>
	<polygon class="st13" points="202.61,563.2 279.93,563.2 280.42,560.69 202.12,560.69 	"/>
	<linearGradient id="SVGID_2_" gradientUnits="userSpaceOnUse" x1="241.27" y1="330.5435" x2="241.27" y2="628.0988">
		<stop class="Gradient1 stopColor" offset="0" style="stop-color:#0F1633"/>
		<stop class="Colour2 fill stopColor" offset="1" style="stop-color:#1B5490"/>
	</linearGradient>
	<polygon class="st14" points="201.75,558.8 280.78,558.8 281.27,556.29 201.27,556.29 	"/>
	<linearGradient id="SVGID_3_" gradientUnits="userSpaceOnUse" x1="241.27" y1="330.5435" x2="241.27" y2="628.0988">
		<stop class="Gradient1 stopColor" offset="0" style="stop-color:#0F1633"/>
		<stop class="Colour2 fill stopColor" offset="1" style="stop-color:#1B5490"/>
	</linearGradient>
	<polygon class="st15" points="200.04,550 282.5,550 282.99,547.49 199.55,547.49 	"/>
	<linearGradient id="SVGID_4_" gradientUnits="userSpaceOnUse" x1="241.2699" y1="330.5435" x2="241.2699" y2="628.0988">
		<stop class="Gradient1 stopColor" offset="0" style="stop-color:#0F1633"/>
		<stop class="Colour2 fill stopColor" offset="1" style="stop-color:#1B5490"/>
	</linearGradient>
	<polygon class="st16" points="200.9,554.4 281.64,554.4 282.13,551.89 200.41,551.89 	"/>
	<linearGradient id="SVGID_5_" gradientUnits="userSpaceOnUse" x1="241.27" y1="330.5435" x2="241.27" y2="628.0988">
		<stop class="Gradient1 stopColor" offset="0" style="stop-color:#0F1633"/>
		<stop class="Colour2 fill stopColor" offset="1" style="stop-color:#1B5490"/>
	</linearGradient>
	<polygon class="st17" points="203.47,567.6 279.07,567.6 279.56,565.09 202.98,565.09 	"/>
	<linearGradient id="SVGID_6_" gradientUnits="userSpaceOnUse" x1="241.2699" y1="330.5435" x2="241.2699" y2="628.0988">
		<stop class="Gradient1 stopColor" offset="0" style="stop-color:#0F1633"/>
		<stop class="Colour2 fill stopColor" offset="1" style="stop-color:#1B5490"/>
	</linearGradient>
	<polygon class="st18" points="191.45,505.99 291.09,505.99 291.57,503.48 190.97,503.48 	"/>
	<linearGradient id="SVGID_7_" gradientUnits="userSpaceOnUse" x1="241.27" y1="330.5435" x2="241.27" y2="628.0988">
		<stop class="Gradient1 stopColor" offset="0" style="stop-color:#0F1633"/>
		<stop class="Colour2 fill stopColor" offset="1" style="stop-color:#1B5490"/>
	</linearGradient>
	<polygon class="st19" points="206.91,585.2 275.63,585.2 276.12,582.69 206.42,582.69 	"/>
	<linearGradient id="SVGID_8_" gradientUnits="userSpaceOnUse" x1="241.27" y1="330.5435" x2="241.27" y2="628.0988">
		<stop class="Gradient1 stopColor" offset="0" style="stop-color:#0F1633"/>
		<stop class="Colour2 fill stopColor" offset="1" style="stop-color:#1B5490"/>
	</linearGradient>
	<polygon class="st20" points="204.33,572 278.21,572 278.7,569.49 203.84,569.49 	"/>
	<linearGradient id="SVGID_9_" gradientUnits="userSpaceOnUse" x1="241.27" y1="330.5435" x2="241.27" y2="628.0988">
		<stop class="Gradient1 stopColor" offset="0" style="stop-color:#0F1633"/>
		<stop class="Colour2 fill stopColor" offset="1" style="stop-color:#1B5490"/>
	</linearGradient>
	<polygon class="st21" points="207.76,589.6 274.78,589.6 275.27,587.09 207.27,587.09 	"/>
	<linearGradient id="SVGID_10_" gradientUnits="userSpaceOnUse" x1="241.27" y1="330.5435" x2="241.27" y2="628.0988">
		<stop class="Gradient1 stopColor" offset="0" style="stop-color:#0F1633"/>
		<stop class="Colour2 fill stopColor" offset="1" style="stop-color:#1B5490"/>
	</linearGradient>
	<polygon class="st22" points="205.19,576.4 277.35,576.4 277.84,573.89 204.7,573.89 	"/>
	<linearGradient id="SVGID_11_" gradientUnits="userSpaceOnUse" x1="241.27" y1="330.5435" x2="241.27" y2="628.0988">
		<stop class="Gradient1 stopColor" offset="0" style="stop-color:#0F1633"/>
		<stop class="Colour2 fill stopColor" offset="1" style="stop-color:#1B5490"/>
	</linearGradient>
	<polygon class="st23" points="194.03,519.19 288.51,519.19 289,516.68 193.54,516.68 	"/>
	<linearGradient id="SVGID_12_" gradientUnits="userSpaceOnUse" x1="241.2699" y1="330.5435" x2="241.2699" y2="628.0988">
		<stop class="Gradient1 stopColor" offset="0" style="stop-color:#0F1633"/>
		<stop class="Colour2 fill stopColor" offset="1" style="stop-color:#1B5490"/>
	</linearGradient>
	<polygon class="st24" points="194.89,523.59 287.65,523.59 288.14,521.09 194.4,521.09 	"/>
	<linearGradient id="SVGID_13_" gradientUnits="userSpaceOnUse" x1="241.2699" y1="330.5435" x2="241.2699" y2="628.0988">
		<stop class="Gradient1 stopColor" offset="0" style="stop-color:#0F1633"/>
		<stop class="Colour2 fill stopColor" offset="1" style="stop-color:#1B5490"/>
	</linearGradient>
	<polygon class="st25" points="193.17,514.79 289.37,514.79 289.86,512.28 192.68,512.28 	"/>
	<linearGradient id="SVGID_14_" gradientUnits="userSpaceOnUse" x1="241.27" y1="330.5435" x2="241.27" y2="628.0988">
		<stop class="Gradient1 stopColor" offset="0" style="stop-color:#0F1633"/>
		<stop class="Colour2 fill stopColor" offset="1" style="stop-color:#1B5490"/>
	</linearGradient>
	<polygon class="st26" points="192.31,510.39 290.23,510.39 290.72,507.88 191.82,507.88 	"/>
	<linearGradient id="SVGID_15_" gradientUnits="userSpaceOnUse" x1="241.2699" y1="330.5435" x2="241.2699" y2="628.0988">
		<stop class="Gradient1 stopColor" offset="0" style="stop-color:#0F1633"/>
		<stop class="Colour2 fill stopColor" offset="1" style="stop-color:#1B5490"/>
	</linearGradient>
	<polygon class="st27" points="195.75,527.99 286.79,527.99 287.28,525.49 195.26,525.49 	"/>
	<linearGradient id="SVGID_16_" gradientUnits="userSpaceOnUse" x1="241.2699" y1="330.5435" x2="241.2699" y2="628.0988">
		<stop class="Gradient1 stopColor" offset="0" style="stop-color:#0F1633"/>
		<stop class="Colour2 fill stopColor" offset="1" style="stop-color:#1B5490"/>
	</linearGradient>
	<polygon class="st28" points="198.32,541.19 284.22,541.19 284.71,538.69 197.83,538.69 	"/>
	<linearGradient id="SVGID_17_" gradientUnits="userSpaceOnUse" x1="241.2699" y1="330.5435" x2="241.2699" y2="628.0988">
		<stop class="Gradient1 stopColor" offset="0" style="stop-color:#0F1633"/>
		<stop class="Colour2 fill stopColor" offset="1" style="stop-color:#1B5490"/>
	</linearGradient>
	<polygon class="st29" points="199.18,545.6 283.36,545.6 283.85,543.09 198.69,543.09 	"/>
	<linearGradient id="SVGID_18_" gradientUnits="userSpaceOnUse" x1="241.2699" y1="330.5435" x2="241.2699" y2="628.0988">
		<stop class="Gradient1 stopColor" offset="0" style="stop-color:#0F1633"/>
		<stop class="Colour2 fill stopColor" offset="1" style="stop-color:#1B5490"/>
	</linearGradient>
	<polygon class="st30" points="197.46,536.79 285.08,536.79 285.57,534.29 196.97,534.29 	"/>
	<linearGradient id="SVGID_19_" gradientUnits="userSpaceOnUse" x1="241.2699" y1="330.5435" x2="241.2699" y2="628.0988">
		<stop class="Gradient1 stopColor" offset="0" style="stop-color:#0F1633"/>
		<stop class="Colour2 fill stopColor" offset="1" style="stop-color:#1B5490"/>
	</linearGradient>
	<polygon class="st31" points="196.6,532.39 285.94,532.39 286.42,529.89 196.12,529.89 	"/>
	<linearGradient id="SVGID_20_" gradientUnits="userSpaceOnUse" x1="241.27" y1="330.5435" x2="241.27" y2="628.0988">
		<stop class="Gradient1 stopColor" offset="0" style="stop-color:#0F1633"/>
		<stop class="Colour2 fill stopColor" offset="1" style="stop-color:#1B5490"/>
	</linearGradient>
	<polygon class="st32" points="206.05,580.8 276.49,580.8 276.98,578.29 205.56,578.29 	"/>
	<linearGradient id="SVGID_21_" gradientUnits="userSpaceOnUse" x1="184.0547" y1="330.5435" x2="184.0547" y2="628.0988">
		<stop class="Gradient1 stopColor" offset="0" style="stop-color:#0F1633"/>
		<stop class="Colour2 fill stopColor" offset="1" style="stop-color:#1B5490"/>
	</linearGradient>
	<polygon class="st33" points="201.15,349.46 160.92,349.46 161.41,351.97 207.19,351.97 	"/>
	<linearGradient id="SVGID_22_" gradientUnits="userSpaceOnUse" x1="241.2699" y1="330.5435" x2="241.2699" y2="628.0988">
		<stop class="Gradient1 stopColor" offset="0" style="stop-color:#0F1633"/>
		<stop class="Colour2 fill stopColor" offset="1" style="stop-color:#1B5490"/>
	</linearGradient>
	<polygon class="st34" points="216.35,633.61 266.19,633.61 266.68,631.1 215.86,631.1 	"/>
	<linearGradient id="SVGID_23_" gradientUnits="userSpaceOnUse" x1="241.27" y1="330.5435" x2="241.27" y2="628.0988">
		<stop class="Gradient1 stopColor" offset="0" style="stop-color:#0F1633"/>
		<stop class="Colour2 fill stopColor" offset="1" style="stop-color:#1B5490"/>
	</linearGradient>
	<polygon class="st35" points="208.62,594 273.92,594 274.41,591.49 208.13,591.49 	"/>
	<linearGradient id="SVGID_24_" gradientUnits="userSpaceOnUse" x1="200.8426" y1="330.5435" x2="200.8426" y2="628.0988">
		<stop class="Gradient1 stopColor" offset="0" style="stop-color:#0F1633"/>
		<stop class="Colour2 fill stopColor" offset="1" style="stop-color:#1B5490"/>
	</linearGradient>
	<polygon class="st36" points="234.53,363.32 232.95,362.66 163.5,362.66 163.99,365.17 238.19,365.17 	"/>
	<linearGradient id="SVGID_25_" gradientUnits="userSpaceOnUse" x1="189.7847" y1="330.5435" x2="189.7847" y2="628.0988">
		<stop class="Gradient1 stopColor" offset="0" style="stop-color:#0F1633"/>
		<stop class="Colour2 fill stopColor" offset="1" style="stop-color:#1B5490"/>
	</linearGradient>
	<polygon class="st37" points="211.75,353.86 161.78,353.86 162.27,356.37 217.79,356.37 	"/>
	<linearGradient id="SVGID_26_" gradientUnits="userSpaceOnUse" x1="166.8641" y1="330.5435" x2="166.8641" y2="628.0988">
		<stop class="Gradient1 stopColor" offset="0" style="stop-color:#0F1633"/>
		<stop class="Colour2 fill stopColor" offset="1" style="stop-color:#1B5490"/>
	</linearGradient>
	<polygon class="st38" points="169.34,336.26 158.35,336.26 158.84,338.77 175.38,338.77 	"/>
	<linearGradient id="SVGID_27_" gradientUnits="userSpaceOnUse" x1="161.1339" y1="330.5435" x2="161.1339" y2="628.0988">
		<stop class="Gradient1 stopColor" offset="0" style="stop-color:#0F1633"/>
		<stop class="Colour2 fill stopColor" offset="1" style="stop-color:#1B5490"/>
	</linearGradient>
	<polygon class="st39" points="158.74,331.86 157.49,331.86 157.98,334.37 164.78,334.37 	"/>
	<linearGradient id="SVGID_28_" gradientUnits="userSpaceOnUse" x1="172.5943" y1="330.5435" x2="172.5943" y2="628.0988">
		<stop class="Gradient1 stopColor" offset="0" style="stop-color:#0F1633"/>
		<stop class="Colour2 fill stopColor" offset="1" style="stop-color:#1B5490"/>
	</linearGradient>
	<polygon class="st40" points="179.94,340.66 159.21,340.66 159.69,343.17 185.98,343.17 	"/>
	<linearGradient id="SVGID_29_" gradientUnits="userSpaceOnUse" x1="178.3247" y1="330.5435" x2="178.3247" y2="628.0988">
		<stop class="Gradient1 stopColor" offset="0" style="stop-color:#0F1633"/>
		<stop class="Colour2 fill stopColor" offset="1" style="stop-color:#1B5490"/>
	</linearGradient>
	<polygon class="st41" points="190.54,345.06 160.06,345.06 160.55,347.57 196.59,347.57 	"/>
	<linearGradient id="SVGID_30_" gradientUnits="userSpaceOnUse" x1="195.5152" y1="330.5435" x2="195.5152" y2="628.0988">
		<stop class="Gradient1 stopColor" offset="0" style="stop-color:#0F1633"/>
		<stop class="Colour2 fill stopColor" offset="1" style="stop-color:#1B5490"/>
	</linearGradient>
	<polygon class="st42" points="222.35,358.26 162.64,358.26 163.13,360.77 228.39,360.77 	"/>
	<linearGradient id="SVGID_31_" gradientUnits="userSpaceOnUse" x1="241.2699" y1="330.5435" x2="241.2699" y2="628.0988">
		<stop class="Gradient1 stopColor" offset="0" style="stop-color:#0F1633"/>
		<stop class="Colour2 fill stopColor" offset="1" style="stop-color:#1B5490"/>
	</linearGradient>
	<polygon class="st43" points="215.49,629.21 267.05,629.21 267.54,626.7 215,626.7 	"/>
	<linearGradient id="SVGID_32_" gradientUnits="userSpaceOnUse" x1="241.27" y1="330.5435" x2="241.27" y2="628.0988">
		<stop class="Gradient1 stopColor" offset="0" style="stop-color:#0F1633"/>
		<stop class="Colour2 fill stopColor" offset="1" style="stop-color:#1B5490"/>
	</linearGradient>
	<polygon class="st44" points="210.34,602.8 272.2,602.8 272.69,600.3 209.85,600.3 	"/>
	<linearGradient id="SVGID_33_" gradientUnits="userSpaceOnUse" x1="241.27" y1="330.5435" x2="241.27" y2="628.0988">
		<stop class="Gradient1 stopColor" offset="0" style="stop-color:#0F1633"/>
		<stop class="Colour2 fill stopColor" offset="1" style="stop-color:#1B5490"/>
	</linearGradient>
	<polygon class="st45" points="212.06,611.6 270.48,611.6 270.97,609.1 211.57,609.1 	"/>
	<linearGradient id="SVGID_34_" gradientUnits="userSpaceOnUse" x1="241.2699" y1="330.5435" x2="241.2699" y2="628.0988">
		<stop class="Gradient1 stopColor" offset="0" style="stop-color:#0F1633"/>
		<stop class="Colour2 fill stopColor" offset="1" style="stop-color:#1B5490"/>
	</linearGradient>
	<polygon class="st46" points="209.48,598.4 273.06,598.4 273.55,595.9 208.99,595.9 	"/>
	<linearGradient id="SVGID_35_" gradientUnits="userSpaceOnUse" x1="241.2699" y1="330.5435" x2="241.2699" y2="628.0988">
		<stop class="Gradient1 stopColor" offset="0" style="stop-color:#0F1633"/>
		<stop class="Colour2 fill stopColor" offset="1" style="stop-color:#1B5490"/>
	</linearGradient>
	<polygon class="st47" points="211.2,607.2 271.34,607.2 271.83,604.7 210.71,604.7 	"/>
	<linearGradient id="SVGID_36_" gradientUnits="userSpaceOnUse" x1="241.2699" y1="330.5435" x2="241.2699" y2="628.0988">
		<stop class="Gradient1 stopColor" offset="0" style="stop-color:#0F1633"/>
		<stop class="Colour2 fill stopColor" offset="1" style="stop-color:#1B5490"/>
	</linearGradient>
	<polygon class="st48" points="212.91,616 269.63,616 270.12,613.5 212.42,613.5 	"/>
	<linearGradient id="SVGID_37_" gradientUnits="userSpaceOnUse" x1="241.2699" y1="330.5435" x2="241.2699" y2="628.0988">
		<stop class="Gradient1 stopColor" offset="0" style="stop-color:#0F1633"/>
		<stop class="Colour2 fill stopColor" offset="1" style="stop-color:#1B5490"/>
	</linearGradient>
	<polygon class="st49" points="214.63,624.81 267.91,624.81 268.4,622.3 214.14,622.3 	"/>
	<linearGradient id="SVGID_38_" gradientUnits="userSpaceOnUse" x1="241.2699" y1="330.5435" x2="241.2699" y2="628.0988">
		<stop class="Gradient1 stopColor" offset="0" style="stop-color:#0F1633"/>
		<stop class="Colour2 fill stopColor" offset="1" style="stop-color:#1B5490"/>
	</linearGradient>
	<polygon class="st50" points="213.77,620.41 268.77,620.41 269.26,617.9 213.28,617.9 	"/>
	<linearGradient id="SVGID_39_" gradientUnits="userSpaceOnUse" x1="241.2699" y1="330.5435" x2="241.2699" y2="628.0988">
		<stop class="Gradient1 stopColor" offset="0" style="stop-color:#0F1633"/>
		<stop class="Colour2 fill stopColor" offset="1" style="stop-color:#1B5490"/>
	</linearGradient>
	<polygon class="st51" points="164.84,369.57 317.69,369.57 318.18,367.06 164.36,367.06 	"/>
	<linearGradient id="SVGID_40_" gradientUnits="userSpaceOnUse" x1="241.27" y1="330.5435" x2="241.27" y2="628.0988">
		<stop class="Gradient1 stopColor" offset="0" style="stop-color:#0F1633"/>
		<stop class="Colour2 fill stopColor" offset="1" style="stop-color:#1B5490"/>
	</linearGradient>
	<polygon class="st52" points="169.99,395.98 312.54,395.98 313.03,393.47 169.51,393.47 	"/>
	<linearGradient id="SVGID_41_" gradientUnits="userSpaceOnUse" x1="241.27" y1="330.5435" x2="241.27" y2="628.0988">
		<stop class="Gradient1 stopColor" offset="0" style="stop-color:#0F1633"/>
		<stop class="Colour2 fill stopColor" offset="1" style="stop-color:#1B5490"/>
	</linearGradient>
	<polygon class="st53" points="168.28,387.17 314.26,387.17 314.75,384.67 167.79,384.67 	"/>
	<linearGradient id="SVGID_42_" gradientUnits="userSpaceOnUse" x1="241.27" y1="330.5435" x2="241.27" y2="628.0988">
		<stop class="Gradient1 stopColor" offset="0" style="stop-color:#0F1633"/>
		<stop class="Colour2 fill stopColor" offset="1" style="stop-color:#1B5490"/>
	</linearGradient>
	<polygon class="st54" points="169.14,391.58 313.4,391.58 313.89,389.07 168.65,389.07 	"/>
	<linearGradient id="SVGID_43_" gradientUnits="userSpaceOnUse" x1="241.2701" y1="330.5435" x2="241.2701" y2="628.0988">
		<stop class="Gradient1 stopColor" offset="0" style="stop-color:#0F1633"/>
		<stop class="Colour2 fill stopColor" offset="1" style="stop-color:#1B5490"/>
	</linearGradient>
	<polygon class="st55" points="167.42,382.77 315.12,382.77 315.61,380.27 166.93,380.27 	"/>
	<linearGradient id="SVGID_44_" gradientUnits="userSpaceOnUse" x1="241.2699" y1="330.5435" x2="241.2699" y2="628.0988">
		<stop class="Gradient1 stopColor" offset="0" style="stop-color:#0F1633"/>
		<stop class="Colour2 fill stopColor" offset="1" style="stop-color:#1B5490"/>
	</linearGradient>
	<polygon class="st56" points="166.56,378.37 315.98,378.37 316.47,375.87 166.07,375.87 	"/>
	<linearGradient id="SVGID_45_" gradientUnits="userSpaceOnUse" x1="241.27" y1="330.5435" x2="241.27" y2="628.0988">
		<stop class="Gradient1 stopColor" offset="0" style="stop-color:#0F1633"/>
		<stop class="Colour2 fill stopColor" offset="1" style="stop-color:#1B5490"/>
	</linearGradient>
	<polygon class="st57" points="172.57,409.18 309.97,409.18 310.46,406.67 172.08,406.67 	"/>
	<linearGradient id="SVGID_46_" gradientUnits="userSpaceOnUse" x1="241.27" y1="330.5435" x2="241.27" y2="628.0988">
		<stop class="Gradient1 stopColor" offset="0" style="stop-color:#0F1633"/>
		<stop class="Colour2 fill stopColor" offset="1" style="stop-color:#1B5490"/>
	</linearGradient>
	<polygon class="st58" points="170.85,400.38 311.69,400.38 312.18,397.87 170.36,397.87 	"/>
	<linearGradient id="SVGID_47_" gradientUnits="userSpaceOnUse" x1="241.2699" y1="330.5435" x2="241.2699" y2="628.0988">
		<stop class="Gradient1 stopColor" offset="0" style="stop-color:#0F1633"/>
		<stop class="Colour2 fill stopColor" offset="1" style="stop-color:#1B5490"/>
	</linearGradient>
	<polygon class="st59" points="173.43,413.58 309.11,413.58 309.6,411.07 172.94,411.07 	"/>
	<linearGradient id="SVGID_48_" gradientUnits="userSpaceOnUse" x1="241.2699" y1="330.5435" x2="241.2699" y2="628.0988">
		<stop class="Gradient1 stopColor" offset="0" style="stop-color:#0F1633"/>
		<stop class="Colour2 fill stopColor" offset="1" style="stop-color:#1B5490"/>
	</linearGradient>
	<polygon class="st60" points="171.71,404.78 310.83,404.78 311.32,402.27 171.22,402.27 	"/>
	<linearGradient id="SVGID_49_" gradientUnits="userSpaceOnUse" x1="309.9455" y1="330.5435" x2="309.9455" y2="628.0988">
		<stop class="Gradient1 stopColor" offset="0" style="stop-color:#0F1633"/>
		<stop class="Colour2 fill stopColor" offset="1" style="stop-color:#1B5490"/>
	</linearGradient>
	<polygon class="st61" points="296.56,343.17 322.85,343.17 323.33,340.66 302.6,340.66 	"/>
	<linearGradient id="SVGID_50_" gradientUnits="userSpaceOnUse" x1="304.2151" y1="330.5435" x2="304.2151" y2="628.0988">
		<stop class="Gradient1 stopColor" offset="0" style="stop-color:#0F1633"/>
		<stop class="Colour2 fill stopColor" offset="1" style="stop-color:#1B5490"/>
	</linearGradient>
	<polygon class="st62" points="285.95,347.57 321.99,347.57 322.48,345.06 292,345.06 	"/>
	<linearGradient id="SVGID_51_" gradientUnits="userSpaceOnUse" x1="241.27" y1="330.5435" x2="241.27" y2="628.0988">
		<stop class="Gradient1 stopColor" offset="0" style="stop-color:#0F1633"/>
		<stop class="Colour2 fill stopColor" offset="1" style="stop-color:#1B5490"/>
	</linearGradient>
	<polygon class="st63" points="174.29,417.98 308.25,417.98 308.74,415.47 173.8,415.47 	"/>
	<linearGradient id="SVGID_52_" gradientUnits="userSpaceOnUse" x1="315.6758" y1="330.5435" x2="315.6758" y2="628.0988">
		<stop class="Gradient1 stopColor" offset="0" style="stop-color:#0F1633"/>
		<stop class="Colour2 fill stopColor" offset="1" style="stop-color:#1B5490"/>
	</linearGradient>
	<polygon class="st64" points="307.16,338.77 323.7,338.77 324.19,336.26 313.2,336.26 	"/>
	<linearGradient id="SVGID_53_" gradientUnits="userSpaceOnUse" x1="321.406" y1="330.5435" x2="321.406" y2="628.0988">
		<stop class="Gradient1 stopColor" offset="0" style="stop-color:#0F1633"/>
		<stop class="Colour2 fill stopColor" offset="1" style="stop-color:#1B5490"/>
	</linearGradient>
	<polygon class="st65" points="323.8,331.86 317.76,334.37 324.56,334.37 325.05,331.86 	"/>
	<linearGradient id="SVGID_54_" gradientUnits="userSpaceOnUse" x1="241.2701" y1="330.5435" x2="241.2701" y2="628.0988">
		<stop class="Gradient1 stopColor" offset="0" style="stop-color:#0F1633"/>
		<stop class="Colour2 fill stopColor" offset="1" style="stop-color:#1B5490"/>
	</linearGradient>
	<polygon class="st66" points="165.7,373.97 316.84,373.97 317.33,371.47 165.21,371.47 	"/>
	<linearGradient id="SVGID_55_" gradientUnits="userSpaceOnUse" x1="281.6701" y1="330.5435" x2="281.6701" y2="628.0988">
		<stop class="Gradient1 stopColor" offset="0" style="stop-color:#0F1633"/>
		<stop class="Colour2 fill stopColor" offset="1" style="stop-color:#1B5490"/>
	</linearGradient>
	<polygon class="st67" points="247.37,363.58 244.3,365.17 318.55,365.17 319.04,362.66 249.59,362.66 	"/>
	<linearGradient id="SVGID_56_" gradientUnits="userSpaceOnUse" x1="287.0246" y1="330.5435" x2="287.0246" y2="628.0988">
		<stop class="Gradient1 stopColor" offset="0" style="stop-color:#0F1633"/>
		<stop class="Colour2 fill stopColor" offset="1" style="stop-color:#1B5490"/>
	</linearGradient>
	<polygon class="st68" points="254.15,360.77 319.41,360.77 319.9,358.26 260.19,358.26 	"/>
	<linearGradient id="SVGID_57_" gradientUnits="userSpaceOnUse" x1="292.755" y1="330.5435" x2="292.755" y2="628.0988">
		<stop class="Gradient1 stopColor" offset="0" style="stop-color:#0F1633"/>
		<stop class="Colour2 fill stopColor" offset="1" style="stop-color:#1B5490"/>
	</linearGradient>
	<polygon class="st69" points="264.75,356.37 320.27,356.37 320.76,353.86 270.79,353.86 	"/>
	<linearGradient id="SVGID_58_" gradientUnits="userSpaceOnUse" x1="298.485" y1="330.5435" x2="298.485" y2="628.0988">
		<stop class="Gradient1 stopColor" offset="0" style="stop-color:#0F1633"/>
		<stop class="Colour2 fill stopColor" offset="1" style="stop-color:#1B5490"/>
	</linearGradient>
	<polygon class="st70" points="275.35,351.97 321.13,351.97 321.62,349.46 281.39,349.46 	"/>
	<linearGradient id="SVGID_59_" gradientUnits="userSpaceOnUse" x1="241.27" y1="330.5435" x2="241.27" y2="628.0988">
		<stop class="Gradient1 stopColor" offset="0" style="stop-color:#0F1633"/>
		<stop class="Colour2 fill stopColor" offset="1" style="stop-color:#1B5490"/>
	</linearGradient>
	<polygon class="st71" points="185.45,475.19 297.09,475.19 297.58,472.68 184.96,472.68 	"/>
	<linearGradient id="SVGID_60_" gradientUnits="userSpaceOnUse" x1="241.27" y1="330.5435" x2="241.27" y2="628.0988">
		<stop class="Gradient1 stopColor" offset="0" style="stop-color:#0F1633"/>
		<stop class="Colour2 fill stopColor" offset="1" style="stop-color:#1B5490"/>
	</linearGradient>
	<polygon class="st72" points="190.6,501.59 291.94,501.59 292.43,499.08 190.11,499.08 	"/>
	<linearGradient id="SVGID_61_" gradientUnits="userSpaceOnUse" x1="241.2699" y1="330.5435" x2="241.2699" y2="628.0988">
		<stop class="Gradient1 stopColor" offset="0" style="stop-color:#0F1633"/>
		<stop class="Colour2 fill stopColor" offset="1" style="stop-color:#1B5490"/>
	</linearGradient>
	<polygon class="st73" points="184.59,470.79 297.95,470.79 298.44,468.28 184.1,468.28 	"/>
	<linearGradient id="SVGID_62_" gradientUnits="userSpaceOnUse" x1="241.27" y1="330.5435" x2="241.27" y2="628.0988">
		<stop class="Gradient1 stopColor" offset="0" style="stop-color:#0F1633"/>
		<stop class="Colour2 fill stopColor" offset="1" style="stop-color:#1B5490"/>
	</linearGradient>
	<polygon class="st74" points="183.73,466.39 298.81,466.39 299.3,463.88 183.24,463.88 	"/>
	<linearGradient id="SVGID_63_" gradientUnits="userSpaceOnUse" x1="241.27" y1="330.5435" x2="241.27" y2="628.0988">
		<stop class="Gradient1 stopColor" offset="0" style="stop-color:#0F1633"/>
		<stop class="Colour2 fill stopColor" offset="1" style="stop-color:#1B5490"/>
	</linearGradient>
	<polygon class="st75" points="186.3,479.59 296.24,479.59 296.72,477.08 185.82,477.08 	"/>
	<linearGradient id="SVGID_64_" gradientUnits="userSpaceOnUse" x1="241.27" y1="330.5435" x2="241.27" y2="628.0988">
		<stop class="Gradient1 stopColor" offset="0" style="stop-color:#0F1633"/>
		<stop class="Colour2 fill stopColor" offset="1" style="stop-color:#1B5490"/>
	</linearGradient>
	<polygon class="st76" points="187.16,483.99 295.38,483.99 295.87,481.48 186.67,481.48 	"/>
	<linearGradient id="SVGID_65_" gradientUnits="userSpaceOnUse" x1="241.2699" y1="330.5435" x2="241.2699" y2="628.0988">
		<stop class="Gradient1 stopColor" offset="0" style="stop-color:#0F1633"/>
		<stop class="Colour2 fill stopColor" offset="1" style="stop-color:#1B5490"/>
	</linearGradient>
	<polygon class="st77" points="182.87,461.98 299.67,461.98 300.16,459.48 182.38,459.48 	"/>
	<linearGradient id="SVGID_66_" gradientUnits="userSpaceOnUse" x1="241.27" y1="330.5435" x2="241.27" y2="628.0988">
		<stop class="Gradient1 stopColor" offset="0" style="stop-color:#0F1633"/>
		<stop class="Colour2 fill stopColor" offset="1" style="stop-color:#1B5490"/>
	</linearGradient>
	<polygon class="st78" points="188.88,492.79 293.66,492.79 294.15,490.28 188.39,490.28 	"/>
	<linearGradient id="SVGID_67_" gradientUnits="userSpaceOnUse" x1="241.27" y1="330.5435" x2="241.27" y2="628.0988">
		<stop class="Gradient1 stopColor" offset="0" style="stop-color:#0F1633"/>
		<stop class="Colour2 fill stopColor" offset="1" style="stop-color:#1B5490"/>
	</linearGradient>
	<polygon class="st79" points="189.74,497.19 292.8,497.19 293.29,494.68 189.25,494.68 	"/>
	<linearGradient id="SVGID_68_" gradientUnits="userSpaceOnUse" x1="241.27" y1="330.5435" x2="241.27" y2="628.0988">
		<stop class="Gradient1 stopColor" offset="0" style="stop-color:#0F1633"/>
		<stop class="Colour2 fill stopColor" offset="1" style="stop-color:#1B5490"/>
	</linearGradient>
	<polygon class="st80" points="188.02,488.39 294.52,488.39 295.01,485.88 187.53,485.88 	"/>
	<linearGradient id="SVGID_69_" gradientUnits="userSpaceOnUse" x1="241.2699" y1="330.5435" x2="241.2699" y2="628.0988">
		<stop class="Gradient1 stopColor" offset="0" style="stop-color:#0F1633"/>
		<stop class="Colour2 fill stopColor" offset="1" style="stop-color:#1B5490"/>
	</linearGradient>
	<polygon class="st81" points="181.15,453.18 301.39,453.18 301.88,450.68 180.66,450.68 	"/>
	<linearGradient id="SVGID_70_" gradientUnits="userSpaceOnUse" x1="241.2699" y1="330.5435" x2="241.2699" y2="628.0988">
		<stop class="Gradient1 stopColor" offset="0" style="stop-color:#0F1633"/>
		<stop class="Colour2 fill stopColor" offset="1" style="stop-color:#1B5490"/>
	</linearGradient>
	<polygon class="st82" points="176.86,431.18 305.68,431.18 306.17,428.67 176.37,428.67 	"/>
	<linearGradient id="SVGID_71_" gradientUnits="userSpaceOnUse" x1="241.2699" y1="330.5435" x2="241.2699" y2="628.0988">
		<stop class="Gradient1 stopColor" offset="0" style="stop-color:#0F1633"/>
		<stop class="Colour2 fill stopColor" offset="1" style="stop-color:#1B5490"/>
	</linearGradient>
	<polygon class="st83" points="177.72,435.58 304.82,435.58 305.31,433.07 177.23,433.07 	"/>
	<linearGradient id="SVGID_72_" gradientUnits="userSpaceOnUse" x1="241.2699" y1="330.5435" x2="241.2699" y2="628.0988">
		<stop class="Gradient1 stopColor" offset="0" style="stop-color:#0F1633"/>
		<stop class="Colour2 fill stopColor" offset="1" style="stop-color:#1B5490"/>
	</linearGradient>
	<polygon class="st84" points="178.58,439.98 303.96,439.98 304.45,437.47 178.09,437.47 	"/>
	<linearGradient id="SVGID_73_" gradientUnits="userSpaceOnUse" x1="241.27" y1="330.5435" x2="241.27" y2="628.0988">
		<stop class="Gradient1 stopColor" offset="0" style="stop-color:#0F1633"/>
		<stop class="Colour2 fill stopColor" offset="1" style="stop-color:#1B5490"/>
	</linearGradient>
	<polygon class="st85" points="182.01,457.58 300.53,457.58 301.02,455.08 181.52,455.08 	"/>
	<linearGradient id="SVGID_74_" gradientUnits="userSpaceOnUse" x1="241.27" y1="330.5435" x2="241.27" y2="628.0988">
		<stop class="Gradient1 stopColor" offset="0" style="stop-color:#0F1633"/>
		<stop class="Colour2 fill stopColor" offset="1" style="stop-color:#1B5490"/>
	</linearGradient>
	<polygon class="st86" points="176,426.78 306.54,426.78 307.03,424.27 175.51,424.27 	"/>
	<linearGradient id="SVGID_75_" gradientUnits="userSpaceOnUse" x1="241.2699" y1="330.5435" x2="241.2699" y2="628.0988">
		<stop class="Gradient1 stopColor" offset="0" style="stop-color:#0F1633"/>
		<stop class="Colour2 fill stopColor" offset="1" style="stop-color:#1B5490"/>
	</linearGradient>
	<polygon class="st87" points="175.15,422.38 307.39,422.38 307.88,419.87 174.66,419.87 	"/>
	<linearGradient id="SVGID_76_" gradientUnits="userSpaceOnUse" x1="241.2699" y1="330.5435" x2="241.2699" y2="628.0988">
		<stop class="Gradient1 stopColor" offset="0" style="stop-color:#0F1633"/>
		<stop class="Colour2 fill stopColor" offset="1" style="stop-color:#1B5490"/>
	</linearGradient>
	<polygon class="st88" points="180.3,448.78 302.24,448.78 302.73,446.28 179.81,446.28 	"/>
	<linearGradient id="SVGID_77_" gradientUnits="userSpaceOnUse" x1="241.2699" y1="330.5435" x2="241.2699" y2="628.0988">
		<stop class="Gradient1 stopColor" offset="0" style="stop-color:#0F1633"/>
		<stop class="Colour2 fill stopColor" offset="1" style="stop-color:#1B5490"/>
	</linearGradient>
	<polygon class="st89" points="179.44,444.38 303.1,444.38 303.59,441.87 178.95,441.87 	"/>
</g>
<g>
	<g>
		<polygon class="Colour3 fill" points="332.23,292.1 332.25,291.98 332.22,292.1 		"/>
		<path class="Colour3 fill" d="M290.14,636.8l38.38-320.7c-0.49,0.23-0.96,0.44-1.44,0.67L275.2,636.77
			C287.55,636.18,290.14,636.8,290.14,636.8z"/>
	</g>
	<g>
		<polygon class="Colour3 fill" points="150.31,292.1 150.29,291.98 150.32,292.1 		"/>
		<path class="Colour3 fill" d="M192.52,636.72l-38.5-320.63c0.49,0.23,0.96,0.44,1.44,0.67l51.88,320.01
			C192.36,636.05,192.52,636.72,192.52,636.72z"/>
	</g>
	<path class="Colour2 fill" d="M241.26,352.36l-137.33-58.3c0.15,1.21,0.29,2.43,0.44,3.66l50.26,21.41l43.05,316.9
		c8.06,0.61,16.81,1.17,26.26,1.67l-56.46-313.13l73.8,31.25l73.96-31.92l-56.62,313.8c9.45-0.49,18.2-1.05,26.26-1.67l43.18-317.67
		l49.63-21.57c0.15-1.24,0.29-2.47,0.44-3.69L241.26,352.36z"/>
</g>
<g id="BBodyLogos"></g>
<path class="BottomHem fill" d="M246.79,643.72c-23.04,0-44.92-2.33-47.58-2.63c-24.82-1.12-61.42-29.97-62.97-31.2l-0.4-0.35
	c-4.35-4.2-19.61-11.91-28.2-15.79l-0.07-2.28l-0.52-10.33l5.06,2.28c2.43,1.09,23.76,10.82,31.12,17.7
	c10,7.9,39.08,28.01,56.62,28.69l0.4,0.03c0.56,0.06,56.55,6.23,83.58-0.77l0.79-0.14c0.23-0.03,24.48-2.9,47.74-21.61
	c2.48-2.48,21.83-21.42,38.4-24.31l5.45-0.95l0.61,11.13l-4.2,0.95c-11.56,2.01-27.51,16.14-32.69,21.41l-0.47,0.43
	c-24.51,19.83-49.59,23.66-53.27,24.13C275.36,642.85,260.86,643.72,246.79,643.72z"/>
</svg>
