<?xml version="1.0" encoding="utf-8"?>
<!-- Generator: Adobe Illustrator 19.1.0, SVG Export Plug-In . SVG Version: 6.00 Build 0)  -->
<svg version="1.1" id="Layer_1" xmlns="http://www.w3.org/2000/svg" xmlns:xlink="http://www.w3.org/1999/xlink" x="0px" y="0px"
	 viewBox="0 0 483.01 645.44" style="enable-background:new 0 0 483.01 645.44;" xml:space="preserve">
<style type="text/css">
	<![CDATA[
	@font-face{font-family:'codaheavy';src:url('/fonts/coda-heavy-webfont.woff') format('woff')}
	text{font-family:Impact,codaheavy,sans-serif}
	.Number.fill{fill:#000}
	.NumberOutline.stroke{fill:none;stroke:#777;stroke-width:2.5}
	.Colour1.fill{fill:#0E1B34;}
	.Colour2.fill{fill:#F0B759;}
	.Colour3.fill{fill:#3D93D0;}
	.Colour4.fill{fill:#5EBCEA;}
	.ArmTrim.fill{fill:#F8B952;}
	.NeckTrim.fill{fill:#F0B759;}
	.BottomHem.fill{fill:#F0B759;stroke:#101010;stroke-width:0.8861;stroke-miterlimit:10;}
	.st0{fill:none;stroke:#000000;stroke-width:3;stroke-linecap:round;stroke-linejoin:round;}
	.st1{fill:none;stroke:#0A0505;stroke-width:0.328;stroke-miterlimit:10;}
	.st2{fill:none;stroke:#221915;stroke-width:0.6559;stroke-miterlimit:10;}
	.st3{fill:none;stroke:#000000;stroke-width:0.4411;}
	.st4{fill:#C0773C;stroke:#000000;stroke-width:2;stroke-miterlimit:10;}
	.st5{fill:none;stroke:#FFFFFF;stroke-width:0.216;stroke-dasharray:2.4,2.4,2.4,2.4;}
	.st6{fill:#101010;stroke:#FFFFFF;stroke-width:0.216;stroke-dasharray:2.4,2.4,2.4,2.4;}
	.st7{fill:none;stroke:#FFFFFF;stroke-width:0.328;}
	.st8{fill:#FFFFFF;}
	.st9{fill:none;stroke:#221915;stroke-width:0.506;stroke-miterlimit:10;}
	.neckline{fill:none;stroke:#000000;stroke-width:0.6559;}
	]]>
</style>
<path class="Colour1 fill" d="M386.38,200.45c-0.17-95.12,18.61-129.22,21.8-134.32c-4.59-1.79-9.72-3.46-15.45-4.89
	c-33.08-8.23-82.7-28.8-92.24-36l-57.79-6.79h-3.7l-57.79,6.79c-9.54,7.2-59.15,27.77-92.24,36c-5.09,1.27-9.71,2.73-13.9,4.29
	c1.4,2.05,22.36,34.45,22.19,134.91l-3.99,27.41c0,0,21.15,131.65,16.91,197.47c-3.99,61.88-4.22,154.65-4.24,165.55
	c-0.92,1.01,0.82,1.97,0.18,2.82c0,0,12.03,1.62,29.65,16.07c14.54,11.92,35.57,31.25,104.53,31.25
	c68.95,0,89.98-19.33,104.52-31.25c17.63-14.46,32.6-16.24,32.18-16.07c-0.41-0.54-0.89-1.14-1.41-1.75h0.19
	c0,0,0-100.79-4.25-166.61c-4.24-65.83,16.91-197.47,16.91-197.47L386.38,200.45z"/>
<path class="Colour1 fill" d="M467.85,172.33c-1.06-12.34-9.62-58.62-27.64-86.39c0,0-9.55-11.53-32.05-20.11
	c0.02,0.2,0.03,0.31,0.03,0.31c-3.19,5.1-21.97,39.2-21.8,134.32l2.06,27.41c0,0,0.12,0.98,0.34,2.76c0.28-1.78,0.43-2.76,0.43-2.76
	l11.57,62.74c0,0,27.44-2.62,43.22-18.28c15.77-15.66,37.5-17.72,37.5-17.72S468.91,184.67,467.85,172.33z"/>
<path class="Colour1 fill" d="M82.47,290.6l10.98-59.55c-0.11-2.05-0.18-3.19-0.18-3.19l3.99-27.41c0.17-97.79-19.68-131.08-22.03-134.68
	c-22.6,8.59-32.18,20.16-32.18,20.16c-18.02,27.77-26.58,74.05-27.64,86.39c-1.06,12.34-13.66,82.28-13.66,82.28
	s21.73,2.06,37.51,17.72C55.03,287.98,82.47,290.6,82.47,290.6z"/>
<path class="st0" d="M74.74,65.93c-0.11-0.18-0.2-0.31-0.26-0.39c4.19-1.57,8.81-3.03,13.9-4.29c33.09-8.23,82.7-28.8,92.24-36
	l57.79-6.79h3.7l57.79,6.79c9.54,7.2,59.16,27.77,92.24,36c5.73,1.42,10.86,3.1,15.45,4.89c-0.25,0.4-0.59,0.97-1.02,1.74
	 M387.86,227.86c0,0-21.15,131.65-16.91,197.47c4.25,65.82,4.25,166.61,4.25,166.61H375c0.52,0.61,1,1.2,1.4,1.74 M92.68,227.86
	c0,0,21.15,131.65,16.91,197.47c-3.99,61.88-4.22,154.65-4.24,165.55c-0.92,1.01,0.82,1.97,0.18,2.82c0,0,12.03,1.62,29.65,16.07
	c14.54,11.92,35.57,31.25,104.53,31.25c68.95,0,89.98-19.33,104.52-31.25c17.06-13.99,31.64-16.11,32.17-16.08 M376.4,593.69
	C376.4,593.69,376.41,593.7,376.4,593.69C376.42,593.7,376.42,593.69,376.4,593.69 M387.86,227.86c0,0,0.12,0.98,0.34,2.76
	c0.28-1.78,0.43-2.76,0.43-2.76l11.57,62.74c0,0,27.44-2.62,43.22-18.28c15.77-15.66,37.5-17.72,37.5-17.72
	s-12.59-69.94-13.66-82.28c-1.06-12.34-9.62-58.62-27.64-86.39c0,0-9.55-11.53-32.05-20.11c0.02,0.2,0.03,0.31,0.03,0.31
	c-0.25,0.4-0.59,0.97-1.02,1.74 M74.74,65.93c-0.04-0.06-0.07-0.11-0.1-0.16c-22.6,8.59-32.18,20.16-32.18,20.16
	c-18.02,27.77-26.58,74.05-27.64,86.39c-1.06,12.34-13.66,82.28-13.66,82.28s21.73,2.06,37.51,17.72
	c15.77,15.66,43.21,18.28,43.21,18.28l10.98-59.55c-0.11-2.05-0.18-3.19-0.18-3.19"/>
<polygon class="Colour3 fill" points="246.15,199.35 352.42,179.33 246.15,190.42 139.88,179.38 "/>
<path class="Colour2 fill" d="M94.71,138.28c0.13,1.23,0.25,2.48,0.37,3.74l87.41,10.83L94.71,138.28z"/>
<polygon class="Colour2 fill" points="244.28,248.11 94.21,219.31 93.95,221.12 244.28,256.45 388.48,222.56 388.32,220.47 "/>
<path class="Colour3 fill" d="M93.72,222.72l-0.26,1.82c0,0,0.1,0.63,0.28,1.8l150.54,47.96l143.74-45.86c0.39-2.52,0.61-3.9,0.61-3.9
	l-0.03-0.42l-144.32,33.92L93.72,222.72z"/>
<path class="Colour3 fill" d="M181.39,161.78l-85.53-10.6c0.17,2.19,0.32,4.45,0.46,6.74L181.39,161.78z"/>
<path class="Colour2 fill" d="M300.94,152.86l87.99-10.91c0.12-1.27,0.25-2.53,0.38-3.77L300.94,152.86z"/>
<path class="Colour3 fill" d="M302.04,161.78l85.65-3.89c0.14-2.31,0.3-4.57,0.47-6.78L302.04,161.78z"/>
<polygon class="Colour3 fill" points="244.28,230.47 96.71,202.15 96.67,202.42 244.28,237.11 387.05,203.56 387.01,203.08 "/>
<path class="Colour2 fill" d="M246.15,206.11L97.19,177.53c0,0.01,0,0.01,0,0.02l148.96,35.01l140.61-33.05c0-0.13,0.01-0.25,0.01-0.38
	L246.15,206.11z"/>
<polygon class="Colour3 fill" points="362.89,185.2 244.28,219.75 125.66,184.36 244.28,220.65 "/>
<path class="st1" d="M467.6,169c-1.06-12.34-9.62-58.62-27.64-86.39c0,0-13.61-16.46-46.7-24.69c-33.08-8.23-82.7-28.8-92.24-36
	l-57.79-6.79h-3.7l-57.79,6.79c-9.54,7.2-59.15,27.77-92.24,36c-33.09,8.23-46.7,24.69-46.7,24.69
	C24.78,110.38,16.22,156.66,15.16,169C14.1,181.34,1.5,251.28,1.5,251.28s21.73,2.06,37.51,17.72
	c15.77,15.66,43.21,18.28,43.21,18.28l11.57-62.74c0,0,21.15,131.65,16.91,197.47c-3.99,61.88-4.22,154.65-4.24,165.55
	c-0.92,1.01,0.82,1.97,0.18,2.82c0,0,12.03,1.62,29.65,16.07c14.54,11.92,35.57,31.25,104.53,31.25
	c68.95,0,89.98-19.33,104.52-31.25c17.63-14.46,32.6-16.24,32.18-16.07c-0.41-0.54-0.89-1.14-1.41-1.75h0.19
	c0,0,0-100.79-4.25-166.61c-4.24-65.83,16.91-197.47,16.91-197.47l11.57,62.74c0,0,27.44-2.62,43.22-18.28
	c15.77-15.66,37.5-17.72,37.5-17.72S468.66,181.34,467.6,169z"/>
<path class="NeckTrim fill" d="M178.55,13.95l18.97-5.3l1.01,12.94l-26.01,6.21C172.54,27.79,176.18,22.2,178.55,13.95"/>
<path class="st2" d="M178.55,13.95l18.97-5.3l1.01,12.94l-26.01,6.21C172.54,27.79,176.18,22.2,178.55,13.95z"/>
<path class="NeckTrim fill" d="M301.77,13.95l-20.68-5.3l-1.01,12.94l29.42,6.21C309.49,27.79,304.14,22.2,301.77,13.95"/>
<path class="st2" d="M301.77,13.95l-20.68-5.3l-1.01,12.94l29.42,6.21C309.49,27.79,304.14,22.2,301.77,13.95z"/>
<path class="st3" d="M75.52,62.11c0,0,22.44,31.09,22.26,135.02"/>
<path class="st3" d="M409.17,62.11c0,0-22.44,31.09-22.26,135.02"/>
<path class="st4" d="M246.9,643.72c-23.05,0-44.95-2.33-47.6-2.63c-24.83-1.12-61.45-29.97-63.01-31.2l-0.4-0.35
	c-4.36-4.2-19.62-11.91-28.22-15.79l-0.07-2.28l-0.52-10.33l5.06,2.28c2.43,1.09,23.77,10.82,31.14,17.7
	c10,7.9,39.1,28.01,56.65,28.69l0.4,0.03c0.56,0.06,56.58,6.23,83.62-0.77l0.79-0.14c0.23-0.03,24.49-2.9,47.76-21.61
	c2.48-2.48,21.84-21.42,38.42-24.31l5.45-0.95l0.61,11.13l-4.21,0.95c-11.57,2.01-27.53,16.14-32.7,21.41l-0.47,0.43
	c-24.52,19.83-49.62,23.66-53.3,24.13C275.49,642.85,260.98,643.72,246.9,643.72"/>
<path class="st5" d="M84.58,284.81c0,0-27.92-2.66-43.97-18.6c-16.05-15.94-38.16-18.03-38.16-18.03"/>
<path class="st5" d="M84.58,283.03c0,0-27.92-2.66-43.97-18.6C24.56,248.5,2.45,246.41,2.45,246.41"/>
<path class="st5" d="M399.14,282.32c0,0,27.92-2.66,43.97-18.6c16.05-15.94,38.16-18.03,38.16-18.03"/>
<path class="st6" d="M399.14,280.55c0,0,27.92-2.66,43.97-18.6c16.05-15.94,38.16-18.03,38.16-18.03"/>
<path class="st7" d="M89.31,95.02c0,0,124.29-32.47,305.6,0"/>
<path class="st5" d="M89.31,98.57c0,0,124.29-32.47,305.6,0"/>
<path class="st5" d="M89.31,100.35c0,0,124.29-32.47,305.6,0"/>
<path class="NeckTrim fill" d="M289.73,10.88c-37.09-9.43-66.99-9.03-105.33,1.33l4.87,11.98c14.42-5.38,31.84-6.54,49.38-6.55
	c16.58,0,33.27,0.88,47.6,5.27L289.73,10.88z"/>
<path class="st9" d="M289.73,10.88c-37.09-9.43-66.99-9.03-105.33,1.33l4.87,11.98c14.42-5.38,31.84-6.54,49.38-6.55
	c16.58,0,33.27,0.88,47.6,5.27L289.73,10.88z"/>
<path class="NeckTrim fill" d="M177.56,16.34l0.75-4.66c3.34-1.24,65.36-21.76,123.86,0l0.75,4.66C243.5-5.77,178.16,16.11,177.56,16.34"
	/>
<path class="neckline" d="M177.56,16.34c0.6-0.22,65.94-22.11,125.36,0l-0.75-4.66c-58.5-21.76-120.52-1.24-123.86,0L177.56,16.34z"/>
<path class="ArmTrim fill" d="M480.73,252.86c0,0-0.39-2.18-1.05-5.84l-83.39,29.99l2.3,12.48c0,0,0.24-0.02,0.69-0.08l37.01-13.31
	c2.22-1.56,4.33-3.28,6.27-5.21C458.61,254.96,480.73,252.86,480.73,252.86z"/>
<path class="Colour4 fill" d="M396.3,277.01l83.39-29.99c-0.58-3.23-1.35-7.61-2.25-12.67l-83.47,30.02L396.3,277.01z"/>
<path class="ArmTrim fill" d="M2.01,252.86c0,0,0.39-2.18,1.05-5.84l83.39,29.99l-2.3,12.48c0,0-0.24-0.02-0.69-0.08L46.44,276.1
	c-2.22-1.56-4.33-3.28-6.27-5.21C24.12,254.96,2.01,252.86,2.01,252.86z"/>
<path class="Colour4 fill" d="M86.44,277.01L3.05,247.03c0.58-3.23,1.35-7.61,2.25-12.67l83.47,30.02L86.44,277.01z"/>
<path class="BottomHem fill" d="M246.9,643.72c-23.05,0-44.95-2.33-47.6-2.63c-24.83-1.12-61.45-29.97-63.01-31.2l-0.4-0.35
	c-4.36-4.2-19.62-11.91-28.22-15.79l-0.07-2.28l-0.52-10.33l5.06,2.28c2.43,1.09,23.77,10.82,31.14,17.7
	c10,7.9,39.1,28.01,56.65,28.69l0.4,0.03c0.56,0.06,56.58,6.23,83.62-0.77l0.79-0.14c0.23-0.03,24.49-2.9,47.76-21.61
	c2.48-2.48,21.84-21.42,38.42-24.31l5.45-0.95l0.61,11.13l-4.21,0.95c-11.57,2.01-27.53,16.14-32.7,21.41l-0.47,0.43
	c-24.52,19.83-49.62,23.66-53.3,24.13C275.49,642.85,260.98,643.72,246.9,643.72z"/>
<g id="BBodyLogos"></g>
</svg>
