<?xml version="1.0" encoding="utf-8"?>
<!-- Generator: Adobe Illustrator 19.1.0, SVG Export Plug-In . SVG Version: 6.00 Build 0)  -->
<svg version="1.1" id="Layer_1" xmlns="http://www.w3.org/2000/svg" xmlns:xlink="http://www.w3.org/1999/xlink" x="0px" y="0px"
	 viewBox="0 0 483.01 645.44" style="enable-background:new 0 0 483.01 645.44;" xml:space="preserve">
<style type="text/css">
	<![CDATA[
	@font-face{font-family:'codaheavy';src:url('/fonts/coda-heavy-webfont.woff') format('woff')}
	text{font-family:Impact,codaheavy,sans-serif}
	.Colour1.fill{fill:#000000;stroke:#212120;stroke-miterlimit:10;}
	.Colour2.fill{fill:#ACACAC;}
	.Colour3.fill{fill:#E4E4E4;}
	.Insert.fill{fill:#101010;}
	.Lines.stroke{fill:#000000;stroke:#212120;stroke-miterlimit:10;}
	.ArmTrim.fill{fill:#000000;}
	.NeckTrim.fill{fill:#FFFFFF;}
	.BottomHem.fill{fill:#787878;stroke:#101010;stroke-width:0.8861;stroke-miterlimit:10;}
	.st0{fill:none;stroke:#000000;stroke-width:2;stroke-linecap:round;stroke-linejoin:round;}
	.st1{fill:none;stroke:#221915;stroke-width:0.216;stroke-linecap:round;stroke-linejoin:round;}
	.st2{fill:none;stroke:#0A0505;stroke-width:0.6559;stroke-miterlimit:10;}
	.st3{fill:none;stroke:#FFFFFF;stroke-width:0.328;}
	.st4{fill:none;stroke:#FFFFFF;stroke-width:0.216;stroke-dasharray:2.4,2.4,2.4,2.4;}
	.st5{fill:none;stroke:#101010;stroke-width:0.216;stroke-dasharray:2.4,2.4,2.4,2.4;}
	.st6{fill:#FFFFFF;}
	.st7{fill:none;stroke:#221915;stroke-width:0.233;stroke-miterlimit:10;}
	.st8{fill:none;stroke:#221915;stroke-width:0.36;stroke-miterlimit:10;}
	.st9{fill:#222457;}
	.st10{fill:none;stroke:#0A0505;stroke-width:0.233;stroke-miterlimit:10;}
	.st12{fill:none;}
	.st13{fill:#9E802E;}
	.st14{fill:#A23236;}
	.st15{fill:none;stroke:#000000;stroke-width:0.4411;}
	.st16{fill:#FFFFFF;stroke:#000000;stroke-width:2;stroke-miterlimit:10;}
	.white{fill:#ffffff;}
	]]>
</style>
<g>
	<path class="st0" d="M107.89,590.31h-1.57c0,0,0-101.03,4.24-167c4.1-63.79-15.54-189.23-16.85-197.5"/>
	<path class="st0" d="M388.73,226.34L388.73,226.34c0-0.02,0-0.03,0.01-0.04C388.73,226.31,388.73,226.32,388.73,226.34"/>
	<path class="st0" d="M388.73,226.34l0.94-26.74C389.5,102.98,408.8,69.17,411.6,64.78l0.14-0.24c-5.34-2.27-11.51-4.41-18.56-6.17
		c-33.09-8.25-82.71-28.87-92.26-36.08l-57.81-7"/>
	<path class="st0" d="M388.73,226.34c-1.89,11.98-20.79,134.27-16.76,196.97c4.24,65.98,4.24,167,4.24,167"/>
	<path class="st0" d="M93.45,212.1l-0.2,12.58l0.01,2.76l0.38-2.08c0,0,0.02,0.16,0.07,0.44"/>
	<path class="st0" d="M93.45,212.1l0.2-12.5C93.83,96.59,71.88,64.98,71.39,64.28c5.2-2.18,11.17-4.22,17.96-5.91
		c33.09-8.25,82.71-28.87,92.25-36.08l57.8-7h1.57"/>
	<path class="st0" d="M388.78,226.02c0.07-0.41,0.1-0.65,0.1-0.65v0C388.88,225.37,388.85,225.6,388.78,226.02z"/>
	<path class="st0" d="M198.67,227.01c0.07-0.6,0.1-0.93,0.1-0.94v0C198.78,226.07,198.74,226.41,198.67,227.01z"/>
	<path class="st0" d="M389.87,229.09c0.18-1.19,0.33-2.13,0.43-2.75"/>
	<path class="st0" d="M390.3,226.34L390.3,226.34c0-0.02,0-0.03,0.01-0.04C390.3,226.31,390.3,226.32,390.3,226.34"/>
	<path class="st0" d="M413.04,64.97c0.04-0.07,0.08-0.13,0.12-0.19l0.14-0.24c-5.34-2.27-11.51-4.41-18.56-6.17
		c-33.09-8.25-82.71-28.87-92.26-36.08l-57.81-7h-1.57"/>
	<path class="st0" d="M389.87,229.09c-3.36,21.8-20.16,134.77-16.34,194.22c4.24,65.98,4.24,167,4.24,167h-1.57"/>
	<path class="st0" d="M413.04,64.97c-3.18,5.1-21.97,39.27-21.81,134.64l-0.94,26.74"/>
	<path class="st0" d="M240.98,15.29l-57.8,7c-9.54,7.22-59.16,27.83-92.25,36.08c-6.8,1.69-12.76,3.74-17.96,5.91
		c0.49,0.7,22.43,32.31,22.25,135.32l-0.39,25.08l0.01,2.76l0.38-2.08c0,0,21.16,131.96,16.92,197.94c-4.24,65.98-4.24,167-4.24,167
		"/>
	<line class="st0" x1="240.98" y1="15.29" x2="243.11" y2="15.29"/>
	<polyline class="st0" points="376.21,590.31 244.68,590.31 243.11,590.31 240.98,590.31 239.41,590.31 107.89,590.31 	"/>
	<path class="st0" d="M413.04,64.97c-0.33-0.14-0.65-0.29-0.99-0.43c-2.13,3.23-22.26,36.39-22.08,135.07l-0.94,26.74
		c0.1-0.63,0.15-0.96,0.15-0.96l0.68,3.72"/>
	<path class="st0" d="M413.04,64.97c18.99,8.29,27.14,18.14,27.14,18.14c18.03,27.83,26.59,74.23,27.65,86.6
		c1.06,12.37,13.66,82.47,13.66,82.47s-21.74,2.06-37.51,17.76c-15.78,15.7-43.23,18.32-43.23,18.32l-10.88-59.17"/>
	<path class="st0" d="M93.45,212.1l0.5,14.24c-0.1-0.63-0.15-0.96-0.15-0.96l-0.08,0.44"/>
	<path class="st0" d="M93.45,212.1l-0.44-12.5c0.17-98.68-19.96-131.84-22.08-135.07C51.23,72.9,42.8,83.11,42.8,83.11
		c-18.03,27.83-26.59,74.23-27.65,86.6c-1.06,12.37-13.66,82.47-13.66,82.47s21.74,2.06,37.51,17.76
		c15.78,15.7,43.23,18.32,43.23,18.32l11.49-62.45"/>
</g>
<path class="Colour1 fill" d="M467.85,170.71c-1.06-12.37-9.62-58.76-27.65-86.6c0,0-13.62-16.49-46.71-24.74
	c-33.09-8.25-82.71-28.87-92.26-36.08l-57.81-7h-3.7l-57.8,7c-9.54,7.22-59.16,27.83-92.25,36.08
	c-33.1,8.25-46.71,24.74-46.71,24.74c-18.03,27.83-26.58,74.23-27.65,86.6c-1.06,12.37-13.66,82.47-13.66,82.47
	s21.74,2.06,37.51,17.76c15.78,15.7,43.23,18.32,43.23,18.32l11.57-62.89c0,0,21.16,131.96,16.92,197.94
	c-4.24,65.98-4.24,167-4.24,167h133.09h3.7h133.09c0,0,0-101.03-4.24-167c-4.24-65.98,16.92-197.94,16.92-197.94l11.57,62.89
	c0,0,27.45-2.62,43.23-18.32c15.77-15.7,37.51-17.76,37.51-17.76S468.9,183.08,467.85,170.71"/>
<path class="Lines stroke" d="M286.51,634.1c0.16-0.03,0.31-0.06,0.47-0.08c0.01,0.25,0.01,0.51,0.02,0.76L286.51,634.1z M110.76,422.01
	c-0.92,14.2-1.63,30.02-2.2,46.11l112.9,155.56c0.1,3.72,0.19,7.42,0.28,11.1c0.02,0.8,0.04,1.58,0.05,2.37
	c5.94,0.35,12.3,0.55,19.14,0.55c15,0,27.73-0.92,38.62-2.47L111.32,403.43C111.3,410.03,111.13,416.27,110.76,422.01z
	 M106.52,587.56c-0.92,1.01,0.82,1.97,0.18,2.82c0,0,5.13,0.71,13.56,5.18l-13.7-18.88C106.53,582.06,106.52,585.83,106.52,587.56z
	 M396.73,96.25c5.08-21.08,10.58-30.89,12.17-33.44c-4.59-1.79-9.72-3.46-15.45-4.89c-4.86-1.21-10.07-2.68-15.46-4.34L255.98,221.7
	l116.14,160.02c0.79-19.83,2.56-41.4,4.68-62.04l-71.11-97.98L396.73,96.25z M89.54,57.92c-5.09,1.27-9.72,2.73-13.91,4.29
	c0.52,0.76,3.7,5.66,7.5,16.58l17.3-23.84C96.67,56.06,93.01,57.06,89.54,57.92z M106.72,555.48l45.77,63.07
	c12.5,7.84,31.02,15.45,62.87,18.13L107.92,488.66C107.25,513.32,106.9,537.23,106.72,555.48z M370.94,221.7l16.11-22.19l0.05-2.37
	c-0.05-29.65,1.74-53.37,4.32-72.14l-70.18,96.7l57.59,79.34c2.66-23.25,5.52-44.06,7.55-58.08L370.94,221.7z M386.97,222.36
	l-0.11-1.19l-0.38,0.52L386.97,222.36z M110.85,381.37l175.86,242.31c0.09,3.47,0.18,6.91,0.26,10.34
	c21.42-3.92,34.94-10.45,44.67-16.93L104.52,304.16C107.33,329.11,109.85,356.59,110.85,381.37z M258.55,16.92l-15.2-1.79h-3.7
	l-32.26,3.79L97.35,170.54c0.32,8.28,0.5,17.14,0.48,26.59l-2.89,34.48v0c1.38,9.05,3.88,26.07,6.51,46.89l240.27,331.05
	c1.32-1.08,2.58-2.12,3.79-3.11c16.3-13.36,30.31-15.89,32-16.07L109.93,221.7L258.55,16.92z M314.78,29.35
	c-6.42-3.03-11.25-5.64-13.61-7.42l-28.29-3.32L125.47,221.7l250.91,345.71c-0.13-17.1-0.42-42.71-1.09-69.99L175.18,221.7
	L314.78,29.35z M96.21,150.68l94.18-129.76l-8.56,1.01c-6.81,5.14-34.04,17.08-61.1,26.49L87.63,94.01
	C91.04,107.55,94.33,126.04,96.21,150.68z M365.41,49.5c-13.6-4.63-27.43-9.99-38.89-14.9L190.73,221.7l183.94,253.44
	c-0.59-18.48-1.38-36.86-2.43-53.12c-0.39-6-0.56-12.55-0.56-19.49L240.43,221.7L365.41,49.5z M106.62,566.07l28.73,39.58
	c0.34,0.27,0.67,0.52,1.01,0.8c4.4,3.6,9.4,7.88,16.13,12.1l-45.77-63.07C106.68,559.27,106.65,562.81,106.62,566.07z
	 M106.62,566.07c-0.03,4-0.05,7.57-0.07,10.62l13.7,18.88c4.26,2.26,9.36,5.49,15.1,10.09L106.62,566.07z M221.74,634.77
	c-0.09-3.67-0.18-7.37-0.28-11.1l-112.9-155.56c-0.12,3.41-0.23,6.83-0.34,10.25L221.74,634.77z M108.22,478.37
	c-0.11,3.44-0.21,6.87-0.3,10.3l107.43,148.02c2.09,0.18,4.23,0.33,6.44,0.47c-0.02-0.8-0.04-1.58-0.05-2.37L108.22,478.37z
	 M110.85,381.37c0.15,3.8,0.27,7.54,0.35,11.2l175.3,241.53c0.16-0.03,0.31-0.06,0.47-0.08c-0.08-3.43-0.17-6.87-0.26-10.34
	L110.85,381.37z M85.51,86.23c0.7,2.39,1.42,4.98,2.12,7.79l33.09-45.59c-3.44,1.2-6.88,2.35-10.27,3.45L85.51,86.23z
	 M111.21,392.57c0.08,3.71,0.12,7.34,0.11,10.86l168.24,231.81c2.41-0.34,4.71-0.73,6.95-1.13L111.21,392.57z M110.45,51.87
	c-3.4,1.1-6.75,2.13-10.01,3.09l-17.3,23.84c0.77,2.22,1.57,4.69,2.38,7.43L110.45,51.87z M96.86,160.49
	c0.19,3.25,0.35,6.59,0.49,10.04L207.39,18.92l-8.5,1L96.86,160.49z M103.04,291.41l233.73,322.04c1.77-1.33,3.4-2.64,4.95-3.89
	L101.45,278.51C101.98,282.67,102.51,286.98,103.04,291.41z M96.86,160.49L198.89,19.92l-8.5,1L96.21,150.68
	C96.45,153.85,96.67,157.12,96.86,160.49z M103.04,291.41c0.5,4.16,0.99,8.41,1.48,12.75l227.12,312.93
	c1.83-1.22,3.54-2.44,5.13-3.64L103.04,291.41z M272.87,18.6l-7.16-0.84L117.7,221.7l258.75,356.51c-0.01-3.04-0.04-6.67-0.07-10.8
	L125.47,221.7L272.87,18.6z M377.7,590.38c-0.41-0.54-0.89-1.14-1.41-1.75h0.19c0,0,0-3.81-0.03-10.42L117.7,221.7L265.71,17.76
	l-7.16-0.84L109.93,221.7l267.59,368.69C377.65,590.37,377.74,590.36,377.7,590.38z M326.52,34.6c-2.05-0.88-4.02-1.74-5.9-2.58
	L182.95,221.7L375,486.31c-0.11-3.72-0.22-7.45-0.34-11.18L190.73,221.7L326.52,34.6z M182.95,221.7L320.61,32.02
	c-2.06-0.92-4.01-1.82-5.83-2.67L175.18,221.7L375.3,497.42c-0.09-3.68-0.19-7.39-0.29-11.11L182.95,221.7z M377.99,53.58
	c-2.08-0.64-4.19-1.31-6.32-2L248.21,221.7L371.8,391.98c0.08-3.36,0.19-6.78,0.32-10.26L255.98,221.7L377.99,53.58z M371.8,391.98
	L248.21,221.7L371.67,51.58c-2.08-0.67-4.16-1.37-6.26-2.08L240.43,221.7l131.24,180.82C371.67,399.1,371.72,395.58,371.8,391.98z
	 M391.42,124.99c0.68-4.92,1.41-9.46,2.18-13.72L313.46,221.7l64.33,88.63c0.34-3.13,0.69-6.23,1.03-9.29l-57.59-79.34
	L391.42,124.99z M313.46,221.7l80.14-110.42c1-5.53,2.05-10.55,3.13-15.03L305.69,221.7l71.11,97.98c0.32-3.14,0.65-6.26,0.99-9.35
	L313.46,221.7z M386.83,210.51l-8.12,11.19l8.97,12.36c0.05-0.34,0.1-0.69,0.15-1.01l-0.07-1.74l-0.8-8.94l-0.49-0.67l0.38-0.52
	l-0.2-2.24L386.83,210.51z M386.37,242.96c0.49-3.38,0.93-6.37,1.31-8.9l-8.97-12.36l8.12-11.19l0.21-11.01l-16.11,22.19
	L386.37,242.96z"/>

<polygon class="Colour2 fill" points="132.55,591.31 108.54,525.82 108.15,553.13 107.92,591.31 "/>
<polygon class="Colour3 fill" points="143.05,591.31 110.14,465.05 109.15,497.06 108.63,520.81 134.37,591.31 "/>
<polygon class="Colour3 fill" points="107.89,324.88 137.47,357.64 174.72,591.31 168.27,591.31 124.22,386.76 112.21,382.78 
	111.06,362.17 "/>
<polygon class="Colour2 fill" points="112.46,389.57 112.21,382.78 124.22,386.76 168.27,591.31 165.41,591.31 "/>
<polygon class="Colour2 fill" points="353.51,591.31 377.52,525.82 377.91,553.13 378.14,591.31 "/>
<polygon class="Colour3 fill" points="343.01,591.31 375.92,465.05 376.91,497.06 377.43,520.81 351.69,591.31 "/>
<polygon class="Colour3 fill" points="378.16,324.88 348.59,357.64 311.34,591.31 317.79,591.31 361.84,386.76 373.85,382.78 
	374.99,362.17 "/>
<polygon class="Colour2 fill" points="373.6,389.57 373.85,382.78 361.84,386.76 317.79,591.31 320.65,591.31 "/>
<path class="Colour1 fill" d="M136.48,609.18c14.55,11.95,35.58,31.32,104.55,31.32c68.97,0,90-19.37,104.55-31.32
	c11.79-9.69,22.4-13.7,28-15.24c1.94-0.53,2.59-2.93,1.2-4.39c-2.21-2.33-5.18-4.93-9.1-7.4c-7.01-4.44-10.56-8.63-37.89-11.19
	c-5.99-0.56-13.14-1.04-21.69-1.43c-15.56-0.71-38.32-0.88-65.07-0.88c-26.76,0-49.51,0.18-65.07,0.88
	c-8.55,0.39-15.7,0.86-21.68,1.43c-27.33,2.55-30.88,6.75-37.89,11.19c-3.93,2.48-6.91,5.09-9.12,7.42
	c-1.38,1.46-0.74,3.87,1.21,4.39C114.02,595.46,124.54,599.37,136.48,609.18"/>
<path class="st2" d="M136.48,609.18c14.55,11.95,35.58,31.32,104.55,31.32c68.97,0,90-19.37,104.55-31.32
	c11.47-9.43,21.82-13.48,27.53-15.11c2.15-0.61,2.89-3.27,1.34-4.87c-2.17-2.24-5.04-4.7-8.77-7.06
	c-7.01-4.44-10.56-8.63-37.89-11.19c-5.99-0.56-13.14-1.04-21.69-1.43c-15.56-0.71-38.32-0.88-65.07-0.88
	c-26.76,0-49.51,0.18-65.07,0.88c-8.55,0.39-15.7,0.86-21.68,1.43c-27.33,2.55-30.88,6.75-37.89,11.19
	c-3.73,2.36-6.61,4.83-8.79,7.07c-1.55,1.6-0.82,4.27,1.33,4.87C114.59,595.68,124.86,599.64,136.48,609.18z"/>
<line class="st3" x1="186.11" y1="57.37" x2="82.05" y2="95.22"/>
<line class="st4" x1="180.73" y1="56.67" x2="82.05" y2="91.73"/>
<line class="st4" x1="181.72" y1="57.95" x2="82.05" y2="93.76"/>
<line class="st3" x1="298.05" y1="57.37" x2="402.11" y2="95.22"/>
<line class="st4" x1="303.43" y1="56.67" x2="402.11" y2="91.73"/>
<line class="st4" x1="303.43" y1="58.42" x2="402.11" y2="93.47"/>
<path class="st4" d="M314.66,567.73l9.74-185.56c0,0,4.05-25.16,13.89-47.33c16.59-40.34,49.72-120.86,55.22-134.26"/>
<path class="st4" d="M169.56,567.73l-9.74-185.56c0,0-4.05-25.16-13.89-47.33c-16.59-40.34-49.72-120.86-55.23-134.26"/>
<path class="st4" d="M377.74,587.83c-2.2-2.95-6-7.09-12.08-10.92c-7.02-4.44-10.56-8.63-37.89-11.19
	c-5.99-0.56-13.14-1.04-21.69-1.43c-15.56-0.71-38.32-0.89-65.07-0.89c-26.76,0-49.51,0.18-65.07,0.89
	c-8.55,0.38-15.7,0.86-21.69,1.43c-27.33,2.56-30.87,6.75-37.89,11.19c-6.08,3.84-9.89,7.98-12.08,10.92"/>
<path class="st4" d="M377.74,584.34c-2.2-2.95-6-7.09-12.08-10.92c-7.02-4.44-10.56-8.63-37.89-11.19
	c-5.99-0.56-13.14-1.04-21.69-1.43c-15.56-0.71-38.32-0.89-65.07-0.89c-26.76,0-49.51,0.18-65.07,0.89
	c-8.55,0.38-15.7,0.86-21.69,1.43c-27.33,2.56-30.87,6.75-37.89,11.19c-6.08,3.84-9.89,7.98-12.08,10.92"/>
<path class="st5" d="M75.21,65.26c0,0,22.45,31.16,22.26,135.34"/>
<path class="st5" d="M408.89,65.26c0,0-22.45,31.16-22.26,135.34"/>
<path class="st1" d="M278.26,56.76"/>
<path class="st1" d="M270.17,61.05"/>
<path class="st6" d="M180.95,38.05c20.5-22.33,96.69-26.13,121.09-1.7l-6.27-13.38c-21.94-7.01-37.58-11.63-53.21-11.66
	c-15.63-0.03-31.27,4.52-53.21,11.53L180.95,38.05z"/>
<path class="st7" d="M180.95,38.05c20.5-22.33,96.69-26.13,121.09-1.7l-6.27-13.38c-21.94-7.01-37.58-11.63-53.21-11.66
	c-15.63-0.03-31.27,4.52-53.21,11.53L180.95,38.05z"/>
<path class="white" d="M192.54,21.39c10.93-3.81,27.89-8.29,48.97-8.29c21.07,0,38.02,4.48,48.95,8.29c0.37,7.1-0.26,17.42-6.41,26.59
	c-3.21,4.78-5.79,7.47-12.6,12.68c-8.34,6.38-17.75,14.74-20.48,22.2c-6.3,0-12.6,0-18.91,0c-2.9-7.21-7.2-11.02-10.03-13.69
	c-3.75-3.53-4.84-4.11-12.02-10.09c-4.66-3.88-7.08-5.92-9.45-9.51c-2.39-3.61-3.38-6.72-4.73-11.1
	C194.58,34.46,193.15,28.66,192.54,21.39z"/>
<path class="st1" d="M266.14,57.16"/>
<path class="st1" d="M258.27,61.33"/>
<path class="NeckTrim fill" d="M285.24,7.64c-31.38-8-56.67-7.65-89.1,1.13l4.13,10.16c12.19-4.56,26.93-5.55,41.77-5.55
	c14.03,0,28.14,0.75,40.26,4.47L285.24,7.64z"/>
<path class="st8" d="M285.24,7.64c-31.38-8-56.67-7.65-89.1,1.13l4.13,10.16c12.19-4.56,26.93-5.55,41.77-5.55
	c14.03,0,28.14,0.75,40.26,4.47L285.24,7.64z"/>
<path class="NeckTrim fill" d="M191.2,10.24l16.05-4.49l2.56,10.97l-19.36,5.27C190.45,21.98,189.19,17.23,191.2,10.24"/>
<path class="st8" d="M191.2,10.24l16.05-4.49l2.56,10.97l-19.36,5.27C190.45,21.98,189.19,17.23,191.2,10.24z"/>
<path class="NeckTrim fill" d="M293.98,10.24l-16.05-4.49l-2.56,10.97l19.36,5.27C294.73,21.98,295.98,17.23,293.98,10.24"/>
<path class="st8" d="M293.98,10.24l-16.05-4.49l-2.56,10.97l19.36,5.27C294.73,21.98,295.98,17.23,293.98,10.24z"/>
<path class="st6" d="M177,27.67l-10.59,5.17c0,0-3.1,13.97,12.47,28.83l8.92-3.39C187.79,58.28,177.22,48.19,177,27.67"/>
<path class="st6" d="M308.76,27.67l8.89,5.17c0,0,2.4,13.97-13.16,28.83l-4.82-3.39C299.67,58.28,308.54,48.19,308.76,27.67"/>
<path class="st10" d="M294.83,11.62l14.63,17.24c0,0,1.2,25.32-15.55,36.94c-4.5,3.12-16.66,11.04-21.54,13.99
	c-13.27,8.01-18.61,9.71-18.61,9.71s0.17-10.37,3.86-12.57c0,0,26.12-22.15,28.22-25.13C287.92,48.81,296.05,26.25,294.83,11.62z"/>
<path class="st10" d="M189.15,11.62l-14.63,17.24c0,0-1.2,25.32,15.55,36.94c4.5,3.12,16.66,11.04,21.54,13.99
	c13.27,8.01,18.61,9.71,18.61,9.71s-0.17-10.37-3.86-12.57c0,0-26.12-22.15-28.21-25.13C196.05,48.81,187.92,26.25,189.15,11.62z"/>
<path class="Insert fill" d="M230.22,81.83h23.03l-3.59,8.64c0,0-5.88,2.08-14.75,0L230.22,81.83z"/>
<path class="st12" d="M230.8,81.28h23.03l-3.59,8.64c0,0-5.88,2.08-14.75,0L230.8,81.28z"/>
<path class="st4" d="M165.79,33.14c1.07,17.69,13.07,30.02,13.07,30.02c21.37,21.07,46.56,31.22,46.56,31.22s8.74,1.78,14.06,1.78
	h4.17c5.32,0,14.06-1.78,14.06-1.78s25.19-10.15,46.56-31.22c0,0,12-12.33,13.07-30.02"/>
<path class="st4" d="M170.1,30.94c-1.5,11.32,10.14,28.68,10.14,28.68c21.37,21.07,46.68,31.49,46.68,31.49s8.25,2.28,13.56,2.28
	h2.16c5.32,0,13.56-2.28,13.56-2.28s25.3-10.42,46.68-31.49c0,0,11.64-17.36,10.15-28.68"/>
<path class="st13" d="M253.76,89.49c0.02-0.06,1.78-3.95,3.8-9.14c1.21-3.09,8.39-8.94,15.34-14.6c3.55-2.89,7.22-5.88,10.64-8.91
	c16.26-14.4,14.63-36.71,12.77-44.03c-0.8-3.15-7.03-5.72-18.52-7.64l-0.67,2.98c6.69,1.12,13.41,3.1,14.71,4.32
	c0.52,3.84-1.93,32.37-11.46,40.81c-3.34,2.96-6.97,5.92-10.49,8.78c-9.36,7.63-15.18,12.5-16.77,16.56
	c-2.11,5.41-3.88,11.7-3.95,11.97L253.76,89.49z"/>
<path class="NeckTrim fill" d="M253.76,89.49c0.02-0.06,1.78-3.95,3.8-9.14c1.21-3.09,8.39-8.94,15.34-14.6
	c3.55-2.89,7.22-5.88,10.64-8.91c16.26-14.4,14.63-36.71,12.77-44.03c-0.8-3.15-7.03-5.72-18.52-7.64l-0.67,2.98
	c6.69,1.12,13.41,3.1,14.71,4.32c0.52,3.84-1.93,32.37-11.46,40.81c-3.34,2.96-6.97,5.92-10.49,8.78
	c-9.36,7.63-15.18,12.5-16.77,16.56c-2.11,5.41-3.88,11.7-3.95,11.97L253.76,89.49z"/>
<path class="st14" d="M230.87,89.49c-0.02-0.06-1.78-3.95-3.8-9.14c-1.21-3.09-8.39-8.94-15.34-14.6
	c-3.55-2.89-7.22-5.88-10.64-8.91c-7.53-6.66-12.66-44.44-12.77-44.03c0.8-3.15,7.03-5.72,18.52-7.64l0.67,2.98
	c-6.69,1.12-13.41,3.1-14.71,4.32c-0.52,3.84,1.93,32.37,11.46,40.81c3.34,2.96,6.97,5.92,10.49,8.78
	c9.36,7.63,15.18,12.5,16.77,16.56c2.11,5.41,3.88,11.7,3.95,11.97L230.87,89.49z"/>
<path class="NeckTrim fill" d="M230.87,89.49c-0.02-0.06-1.78-3.95-3.8-9.14c-1.21-3.09-8.39-8.94-15.34-14.6
	c-3.55-2.89-7.22-5.88-10.64-8.91c-7.53-6.66-12.66-44.44-12.77-44.03c0.8-3.15,7.03-5.72,18.52-7.64l0.67,2.98
	c-6.69,1.12-13.41,3.1-14.71,4.32c-0.52,3.84,1.93,32.37,11.46,40.81c3.34,2.96,6.97,5.92,10.49,8.78
	c9.36,7.63,15.18,12.5,16.77,16.56c2.11,5.41,3.88,11.7,3.95,11.97L230.87,89.49z"/>
<path class="st15" d="M412.25,65.26c0,0-22.45,31.16-22.27,135.34l-0.94,26.74"/>
<path class="st15" d="M71.7,65.26c0,0,22.45,31.16,22.26,135.34l-0.39,25.08"/>
<path class="NeckTrim fill" d="M189.15,11.62l-14.63,17.24c0,0-1.2,25.32,15.55,36.94c4.5,3.12,16.66,11.04,21.54,13.99
	c13.27,8.01,18.61,9.71,18.61,9.71s-0.17-10.37-3.86-12.57c0,0-26.12-22.15-28.21-25.13C196.05,48.81,187.92,26.25,189.15,11.62"/>
<path class="st16" d="M389.2,226.37L389.2,226.37c0,0-0.04,0.23-0.1,0.65C389.16,226.61,389.2,226.37,389.2,226.37z"/>
<path class="st4" d="M467.85,170.71c-1.06-12.37-9.62-58.76-27.65-86.6c0,0-8.43-10.2-28.13-18.57
	c-2.13,3.23-22.26,36.39-22.08,135.07l-0.94,26.74c0.1-0.63,0.15-0.96,0.15-0.96l11.57,62.89c0,0,27.45-2.62,43.23-18.32
	c15.77-15.7,37.51-17.76,37.51-17.76S468.9,183.08,467.85,170.71z"/>
<path class="ArmTrim fill" d="M481.5,253.18c0,0-0.39-2.15-1.03-5.75l-81.97,29.54l2.26,12.29c0,0,0.24-0.02,0.68-0.08l36.38-13.11
	c2.18-1.53,4.26-3.24,6.17-5.13C459.77,255.24,481.5,253.18,481.5,253.18z"/>
<path class="st4" d="M398.5,276.97l81.97-29.54c-0.57-3.18-1.33-7.49-2.21-12.48l-82.05,29.57L398.5,276.97z"/>
<path class="st4" d="M15.16,170.71c1.06-12.37,9.62-58.76,27.65-86.6c0,0,8.43-10.2,28.13-18.57
	c2.13,3.23,22.26,36.39,22.08,135.07l0.94,26.74c-0.1-0.63-0.15-0.96-0.15-0.96l-11.57,62.89c0,0-27.45-2.62-43.23-18.32
	C23.24,255.24,1.5,253.18,1.5,253.18S14.1,183.08,15.16,170.71z"/>
<path class="ArmTrim fill" d="M1.5,253.18c0,0,0.39-2.15,1.03-5.75l81.97,29.54l-2.26,12.29c0,0-0.24-0.02-0.68-0.08l-36.38-13.11
	c-2.18-1.53-4.26-3.24-6.17-5.13C23.24,255.24,1.5,253.18,1.5,253.18z"/>
<path class="st4" d="M84.5,276.97L2.53,247.42c0.57-3.18,1.33-7.49,2.21-12.48l82.05,29.57L84.5,276.97z"/>
<path class="st4" d="M399.88,284.89c0,0,27.45-2.62,43.23-18.32c15.77-15.7,37.51-17.76,37.51-17.76"/>
<path class="st4" d="M399.88,283.14c0,0,27.45-2.62,43.23-18.32c15.77-15.7,37.51-17.76,37.51-17.76"/>
<path class="st4" d="M83.16,285.47c0,0-27.45-2.62-43.23-18.32c-15.77-15.7-37.51-17.76-37.51-17.76"/>
<path class="st4" d="M83.16,283.72c0,0-27.45-2.62-43.23-18.32c-15.77-15.7-37.51-17.76-37.51-17.76"/>
<g>
	<path class="st16" d="M389.2,226.37L389.2,226.37c0,0-0.04,0.23-0.1,0.65C389.16,226.61,389.2,226.37,389.2,226.37z"/>
</g>
<path class="st4" d="M171.32,567.73l-9.74-185.56c0,0-4.05-25.16-13.89-47.33C131.1,294.5,97.97,213.98,92.46,200.57"/>
<path class="st4" d="M312.91,567.73l9.74-185.56c0,0,4.05-25.16,13.88-47.33c16.59-40.34,49.72-120.86,55.23-134.26"/>
<polygon class="Colour3 fill" points="179.65,53.26 154.05,69.16 154.04,85.18 89.34,118.05 91.34,131.59 163.09,92.08 163.09,75.18 
	185.55,61.68 "/>
<polygon class="Colour3 fill" points="303.98,53.26 329.58,69.16 329.58,85.18 394.29,118.05 394.09,119.37 392.29,131.59 320.54,92.08 
	320.54,75.18 298.08,61.68 "/>
<path class="Colour2 fill" d="M394.29,115.95c0,0,5.44-32.96,20.71-50.75c0,0-13.98-6.4-30.97-9.74c0,0-43.66-12.9-77.9-30.78
	c0,0,3.92,12.79-2.15,28.58l25.61,15.9l0,16.02l64.7,32.87V115.95z"/>
<path class="NeckTrim fill" d="M294.83,11.62l14.63,17.24c0,0,1.2,25.32-15.55,36.94c-4.5,3.12-16.66,11.04-21.54,13.99
	c-13.27,8.01-18.61,9.71-18.61,9.71s0.17-10.37,3.86-12.57c0,0,26.12-22.15,28.22-25.13C287.92,48.81,296.05,26.25,294.83,11.62"/>
<path class="Colour2 fill" d="M89.34,116.31c0,0-4.14-34.01-19.41-51.8c0,0,13.98-6.4,30.97-9.74c0,0,43.66-12.9,77.9-30.78
	c0,0-3.92,12.79,2.15,28.58l-25.61,15.9l0,16.02l-66,33.93V116.31z"/>
<path class="BottomHem fill" d="M246.18,643.72c-22.93,0-44.7-2.3-47.34-2.59c-24.7-1.1-61.12-29.53-62.66-30.74l-0.4-0.35
	c-4.33-4.14-19.51-11.73-28.07-15.55l-1.52-2.25l0.94-10.18l5.03,2.25c2.42,1.08,23.64,10.66,30.96,17.44
	c9.95,7.78,38.89,27.59,56.34,28.27l0.39,0.03c0.56,0.06,56.28,6.14,83.17-0.76l0.78-0.14c0.23-0.03,24.37-2.86,47.5-21.29
	c2.47-2.45,21.73-21.1,38.22-23.95l5.42-0.94l1.85,10.97l-5.43,0.93c-11.51,1.98-27.38,15.9-32.53,21.09l-0.47,0.42
	c-24.38,19.53-49.34,23.31-53.01,23.77C274.61,642.86,260.18,643.72,246.18,643.72 M375.66,579.69l-10.35-9.28
	c-10.35-9.28-53.83-10.82-53.83-10.82H170.54c0,0-43.48,1.55-53.83,10.82l-10.35,9.28l-1.38,13.38c0,0,16.39-15.96,22.6-16.99
	c3.08-0.51,14.08-3.72,24.36-4.75c10.44-1.04,20.15-1.95,20.15-1.95h137.84c0,0,9.71,0.91,20.15,1.95
	c10.29,1.03,21.28,4.23,24.36,4.75c6.21,1.03,22.6,16.99,22.6,16.99L375.66,579.69z"/>
<g id="FBodyLogos"></g>
</svg>
