<?xml version="1.0" encoding="utf-8"?>
<!-- Generator: Adobe Illustrator 19.1.0, SVG Export Plug-In . SVG Version: 6.00 Build 0)  -->
<svg version="1.1" id="Layer_1" xmlns="http://www.w3.org/2000/svg" xmlns:xlink="http://www.w3.org/1999/xlink" x="0px" y="0px"
	 viewBox="0 0 483.01 645.44" style="enable-background:new 0 0 483.01 645.44;" xml:space="preserve">
<style type="text/css">
	<![CDATA[
	@font-face{font-family:'codaheavy';src:url('/fonts/coda-heavy-webfont.woff') format('woff')}
	text{font-family:Impact,codaheavy,sans-serif}
	.Colour1.fill{fill:#060606;}
	.Colour2.fill{fill:#BF2E2E;}
	.Colour3.fill{fill:#FFFFFF;}
	.Insert.fill{fill:#BF2E2E;}
	.NeckTrim.fill{fill:#FFFFFF;}
	.ArmTrim.fill{fill:#BF2E2E;stroke:#221915;stroke-width:0.886;stroke-miterlimit:10;}
	.BottomHem.fill{fill:#BF2E2E;stroke:#221915;stroke-width:0.8861;stroke-miterlimit:10;}
	.white{fill:#ffffff;}
	.st0{fill:none;stroke:#000000;stroke-width:2;stroke-linecap:round;stroke-linejoin:round;}
	.st1{fill:#7EB5B1;stroke:#000000;stroke-width:0.4411;}
	.st2{fill:#7EB5B1;stroke:#000000;stroke-width:2;stroke-miterlimit:10;}
	.st3{fill:#9C2321;stroke:#000000;stroke-width:2;stroke-miterlimit:10;}
	.st4{fill:none;stroke:#221915;stroke-width:0.216;stroke-linecap:round;stroke-linejoin:round;}
	.st5{fill:none;stroke:#0A0505;stroke-width:0.6559;stroke-miterlimit:10;}
	.st6{fill:none;stroke:#060606;stroke-width:0.328;}
	.st7{fill:none;stroke:#060606;stroke-width:0.216;stroke-dasharray:2.4,2.4,2.4,2.4;}
	.st8{fill:none;stroke:#FFFFFF;stroke-width:0.216;stroke-dasharray:2.4,2.4,2.4,2.4;}
	.st9{fill:none;stroke:#221915;stroke-width:0.233;stroke-miterlimit:10;}
	.st10{fill:none;stroke:#0A0505;stroke-width:0.233;stroke-miterlimit:10;}
	.st11{fill:#4D4E4E;stroke:#000000;stroke-width:0.5;}
	.st12{fill:none;stroke:#221915;stroke-width:0.36;stroke-miterlimit:10;}
	.st13{fill:#ffffff;}
	.st14{fill:none;stroke:#0A0505;stroke-width:0.2801;}
	.st15{fill:none;stroke:#000000;stroke-width:0.4411;}
	]]>
</style>
<path class="Colour3 fill" d="M467.39,170.71c-1.06-12.37-9.61-58.76-27.62-86.6c0,0-13.6-16.49-46.65-24.74
	c-33.06-8.25-82.62-28.87-92.15-36.08l-57.74-7h-3.7l-57.74,7c-9.53,7.22-59.09,27.83-92.15,36.08C56.6,67.62,43,84.11,43,84.11
	c-18.01,27.83-26.55,74.23-27.62,86.6c-1.06,12.37-13.64,82.47-13.64,82.47s21.71,2.06,37.47,17.76
	c15.76,15.7,43.18,18.32,43.18,18.32l11.55-62.89c0,0,21.13,131.96,16.9,197.94c-4.24,65.98-4.24,167-4.24,167h132.94h3.7h132.94
	c0,0,0-101.03-4.24-167c-4.23-65.98,16.9-197.94,16.9-197.94l11.55,62.89c0,0,27.42-2.62,43.18-18.32
	c15.76-15.7,37.47-17.76,37.47-17.76S468.45,183.08,467.39,170.71"/>
<path class="st0" d="M2.68,253.18c0,0,21.71,2.06,37.47,17.76c15.76,15.7,43.18,18.32,43.18,18.32l11.55-62.89
	c0,0,21.13,131.96,16.9,197.94c-4.24,65.98-4.24,167-4.24,167h132.94h3.7h132.94c0,0,0-101.03-4.24-167
	c-4.23-65.98,16.9-197.94,16.9-197.94l11.55,62.89c0,0,27.42-2.62,43.18-18.32c15.76-15.7,37.47-17.76,37.47-17.76
	s-12.58-70.1-13.64-82.47c-1.06-12.37-9.61-58.76-27.62-86.6c0,0-13.6-16.49-46.65-24.74c-33.06-8.25-82.62-28.87-92.15-36.08
	l-57.74-7h-3.7l-57.74,7c-9.53,7.22-59.09,27.83-92.15,36.08c-33.06,8.25-46.66,24.74-46.66,24.74
	c-18.01,27.83-26.55,74.23-27.61,86.6C15.26,183.08,2.68,253.18,2.68,253.18z"/>
<path class="st1" d="M411.86,65.26c0,0-22.42,31.16-22.24,135.34l-0.94,26.74"/>
<path class="st1" d="M93.55,225.68l0.39-25.08c0.17-96.04-18.87-130.02-21.85-134.75"/>
<path class="st2" d="M82.39,289.26l11.55-62.89c0,0,6.21-103.15-20.72-158.58l-1.58-2.48C51.58,73.72,43,84.11,43,84.11
	c-18.01,27.83-26.55,74.23-27.62,86.6c-1.06,12.37-13.64,82.47-13.64,82.47s21.71,2.06,37.47,17.76
	C54.97,286.63,82.39,289.26,82.39,289.26z"/>
<path class="st2" d="M400.86,289.26l-11.55-62.89c0,0-6.21-103.15,20.72-158.58l1.58-2.48c20.06,8.41,28.64,18.8,28.64,18.8
	c18.01,27.83,26.55,74.23,27.62,86.6c1.06,12.37,13.64,82.47,13.64,82.47s-21.71,2.06-37.47,17.76
	C428.27,286.63,400.86,289.26,400.86,289.26z"/>
<path class="Colour1 fill" d="M467.16,170.71c-1.06-12.37-9.61-58.76-27.62-86.6c0,0-8.42-10.2-28.1-18.57
	c-2.12,3.23-22.23,36.39-22.06,135.07l-0.94,26.74c0.1-0.63,0.15-0.96,0.15-0.96l11.55,62.89c0,0,27.42-2.62,43.18-18.32
	c15.76-15.7,37.47-17.76,37.47-17.76S468.21,183.08,467.16,170.71z"/>
<path class="Colour1 fill" d="M71.48,65.28c0.49,0.7,22.41,32.31,22.23,135.32l-0.39,25.08l0.01,2.76l0.38-2.08l-11.55,62.89
	c0,0-27.41-2.62-43.18-18.32C23.22,255.24,1.5,253.18,1.5,253.18s12.58-70.1,13.64-82.47c1.06-12.37,9.61-58.76,27.62-86.6
	c0,0,8.55-10.35,28.54-18.75L71.48,65.28z"/>
<polygon class="st3" points="3.47,242.89 82.46,279.29 80.45,286.79 1.5,261.45 "/>
<path class="st4" d="M321.18,62.03"/>
<path class="st4" d="M317.06,58.05"/>
<path class="st4" d="M309,62.32"/>
<path class="ArmTrim fill" d="M481.24,263.2l-78.94,23.59l-2.02-7.5l78.99-34.64L481.24,263.2z M1.5,261.45l78.94,25.34l2.02-7.51
	l-78.99-36.4L1.5,261.45z"/>
<path class="Colour3 fill" d="M136.17,609.18c14.53,11.95,35.54,31.32,104.42,31.32c68.89,0,89.89-19.37,104.42-31.32
	c11.78-9.69,22.37-13.7,27.97-15.24c1.94-0.53,2.58-2.93,1.2-4.39c-2.2-2.33-5.18-4.93-9.09-7.4c-7-4.44-10.54-8.63-37.84-11.19
	c-5.98-0.56-13.12-1.04-21.66-1.43c-15.54-0.71-38.27-0.88-64.99-0.88c-26.73,0-49.45,0.18-65,0.88
	c-8.54,0.39-15.68,0.86-21.66,1.43c-27.3,2.55-30.84,6.75-37.84,11.19c-3.92,2.48-6.9,5.09-9.11,7.42
	c-1.38,1.46-0.74,3.87,1.21,4.39C113.74,595.46,124.25,599.37,136.17,609.18"/>
<path class="st5" d="M136.17,609.18c14.53,11.95,35.54,31.32,104.42,31.32c68.89,0,89.89-19.37,104.42-31.32
	c11.46-9.43,21.79-13.48,27.5-15.11c2.15-0.61,2.89-3.27,1.33-4.87c-2.17-2.24-5.04-4.7-8.76-7.06c-7-4.44-10.54-8.63-37.84-11.19
	c-5.98-0.56-13.12-1.04-21.66-1.43c-15.54-0.71-38.27-0.88-64.99-0.88c-26.73,0-49.45,0.18-65,0.88
	c-8.54,0.39-15.68,0.86-21.66,1.43c-27.3,2.55-30.84,6.75-37.84,11.19c-3.73,2.36-6.6,4.83-8.78,7.07c-1.55,1.6-0.82,4.27,1.33,4.87
	C114.31,595.68,124.57,599.64,136.17,609.18z"/>
<line class="st6" x1="185.75" y1="57.37" x2="81.81" y2="95.22"/>
<line class="st7" x1="180.37" y1="56.67" x2="81.81" y2="91.73"/>
<line class="st7" x1="181.36" y1="57.95" x2="81.81" y2="93.76"/>
<line class="st6" x1="297.56" y1="57.37" x2="401.5" y2="95.22"/>
<line class="st7" x1="302.93" y1="56.67" x2="401.5" y2="91.73"/>
<line class="st7" x1="302.93" y1="58.42" x2="401.5" y2="93.47"/>
<path class="st8" d="M399.27,284.89c0,0,27.41-2.62,43.18-18.32c15.76-15.7,37.47-17.76,37.47-17.76"/>
<path class="st8" d="M399.27,283.14c0,0,27.41-2.62,43.18-18.32c15.76-15.7,37.47-17.76,37.47-17.76"/>
<path class="st8" d="M82.91,285.47c0,0-27.42-2.62-43.18-18.32c-15.76-15.7-37.47-17.76-37.47-17.76"/>
<path class="st8" d="M82.91,283.72c0,0-27.42-2.62-43.18-18.32c-15.76-15.7-37.47-17.76-37.47-17.76"/>
<path class="st7" d="M312.4,567.73l9.73-185.56c0,0,4.05-25.16,13.87-47.33c16.57-40.34,49.66-120.86,55.16-134.26"/>
<path class="st7" d="M314.15,567.73l9.73-185.56c0,0,4.05-25.16,13.87-47.33c16.57-40.34,49.66-120.86,55.16-134.26"/>
<path class="st7" d="M170.97,567.73l-9.73-185.56c0,0-4.05-25.16-13.87-47.33C130.8,294.5,97.71,213.98,92.21,200.57"/>
<path class="st7" d="M169.22,567.73l-9.73-185.56c0,0-4.05-25.16-13.87-47.33c-16.57-40.34-49.66-120.86-55.16-134.26"/>
<path class="st8" d="M377.15,587.83c-2.2-2.95-5.99-7.09-12.07-10.92c-7.01-4.44-10.54-8.63-37.84-11.19
	c-5.98-0.56-13.12-1.04-21.67-1.43c-15.54-0.71-38.28-0.89-64.99-0.89c-26.73,0-49.45,0.18-65,0.89
	c-8.54,0.38-15.68,0.86-21.66,1.43c-27.3,2.56-30.84,6.75-37.85,11.19c-6.07,3.84-9.87,7.98-12.07,10.92"/>
<path class="st8" d="M377.15,584.34c-2.2-2.95-5.99-7.09-12.07-10.92c-7.01-4.44-10.54-8.63-37.84-11.19
	c-5.98-0.56-13.12-1.04-21.67-1.43c-15.54-0.71-38.28-0.89-64.99-0.89c-26.73,0-49.45,0.18-65,0.89
	c-8.54,0.38-15.68,0.86-21.66,1.43c-27.3,2.56-30.84,6.75-37.85,11.19c-6.07,3.84-9.87,7.98-12.07,10.92"/>
<path class="st8" d="M74.97,65.26c0,0,22.42,31.16,22.24,135.34"/>
<path class="st8" d="M408.27,65.26c0,0-22.42,31.16-22.24,135.34"/>
<path class="st4" d="M277.79,56.76"/>
<path class="st4" d="M269.71,61.05"/>
<path class="st13" d="M180.59,38.05c20.48-22.33,96.57-26.13,120.94-1.7l-6.27-13.38c-21.91-7.01-37.53-11.63-53.15-11.66
	c-15.62-0.03-31.23,4.52-53.15,11.53L180.59,38.05z"/>
<path class="st9" d="M180.59,38.05c20.48-22.33,96.57-26.13,120.94-1.7l-6.27-13.38c-21.91-7.01-37.53-11.63-53.15-11.66
	c-15.62-0.03-31.23,4.52-53.15,11.53L180.59,38.05z"/>
<path class="white" d="M192.54,21.39c10.93-3.81,27.89-8.29,48.97-8.29c21.07,0,38.02,4.48,48.95,8.29c0.37,7.1-0.26,17.42-6.41,26.59
	c-3.21,4.78-5.79,7.47-12.6,12.68c-8.34,6.38-17.75,14.74-20.48,22.2c-6.3,0-12.6,0-18.91,0c-2.9-7.21-7.2-11.02-10.03-13.69
	c-3.75-3.53-4.84-4.11-12.02-10.09c-4.66-3.88-7.08-5.92-9.45-9.51c-2.39-3.61-3.38-6.72-4.73-11.1
	C194.58,34.46,193.15,28.66,192.54,21.39z"/>
<path class="st4" d="M265.68,57.16"/>
<path class="st4" d="M257.83,61.33"/>
<path class="NeckTrim fill" d="M284.76,7.64c-31.34-8-56.6-7.65-89,1.13l4.12,10.16c12.18-4.56,26.9-5.55,41.72-5.55
	c14.02,0,28.11,0.75,40.22,4.47L284.76,7.64z"/>
<path class="st9" d="M284.76,7.64c-31.34-8-56.6-7.65-89,1.13l4.12,10.16c12.18-4.56,26.9-5.55,41.72-5.55
	c14.02,0,28.11,0.75,40.22,4.47L284.76,7.64z"/>
<path class="NeckTrim fill" d="M190.83,10.24l16.03-4.49l2.56,10.97l-19.34,5.27C190.08,21.98,188.83,17.23,190.83,10.24"/>
<path class="st12" d="M190.83,10.24l16.03-4.49l2.56,10.97l-19.34,5.27C190.08,21.98,188.83,17.23,190.83,10.24z"/>
<path class="NeckTrim fill" d="M293.49,10.24l-16.03-4.49l-2.56,10.97l19.34,5.27C294.24,21.98,295.49,17.23,293.49,10.24"/>
<path class="st12" d="M293.49,10.24l-16.03-4.49l-2.56,10.97l19.34,5.27C294.24,21.98,295.49,17.23,293.49,10.24z"/>
<path class="Colour2 fill" d="M176.64,27.67l-10.58,5.17c0,0-3.09,13.97,12.45,28.83l8.91-3.39C187.42,58.28,176.87,48.19,176.64,27.67"
	/>
<path class="Colour2 fill" d="M308.26,27.67l8.88,5.17c0,0,2.4,13.97-13.15,28.83l-4.82-3.39C299.17,58.28,308.03,48.19,308.26,27.67"/>
<path class="NeckTrim fill" d="M294.34,11.62l14.61,17.24c0,0,1.19,25.32-15.53,36.94c-4.5,3.12-16.64,11.04-21.51,13.99
	c-13.26,8.01-18.59,9.71-18.59,9.71s0.17-10.37,3.85-12.57c0,0,26.09-22.15,28.18-25.13C287.44,48.81,295.56,26.25,294.34,11.62"/>
<path class="st10" d="M294.34,11.62l14.61,17.24c0,0,1.19,25.32-15.53,36.94c-4.5,3.12-16.64,11.04-21.51,13.99
	c-13.26,8.01-18.59,9.71-18.59,9.71s0.17-10.37,3.85-12.57c0,0,26.09-22.15,28.18-25.13C287.44,48.81,295.56,26.25,294.34,11.62z"/>
<path class="NeckTrim fill" d="M188.78,11.62l-14.61,17.24c0,0-1.19,25.32,15.53,36.94c4.5,3.12,16.64,11.04,21.51,13.99
	c13.26,8.01,18.59,9.71,18.59,9.71s-0.17-10.37-3.85-12.57c0,0-26.09-22.15-28.18-25.13C195.68,48.81,187.55,26.25,188.78,11.62"/>
<path class="st10" d="M188.78,11.62l-14.61,17.24c0,0-1.19,25.32,15.53,36.94c4.5,3.12,16.64,11.04,21.51,13.99
	c13.26,8.01,18.59,9.71,18.59,9.71s-0.17-10.37-3.85-12.57c0,0-26.09-22.15-28.18-25.13C195.68,48.81,187.55,26.25,188.78,11.62z"/>
<path class="" d="M229.8,81.83h23l-3.58,8.64c0,0-5.87,2.08-14.73,0L229.8,81.83z"/>
<path class="Insert fill" d="M230.38,81.28h23l-3.58,8.64c0,0-5.87,2.08-14.73,0L230.38,81.28z"/>
<path class="st7" d="M165.45,33.14c1.07,17.69,13.06,30.02,13.06,30.02c21.35,21.07,46.51,31.22,46.51,31.22s8.73,1.78,14.04,1.78
	h4.16c5.31,0,14.04-1.78,14.04-1.78s25.16-10.15,46.51-31.22c0,0,11.99-12.33,13.06-30.02"/>
<path class="st7" d="M169.76,30.94c-1.49,11.32,10.13,28.68,10.13,28.68c21.35,21.07,46.62,31.49,46.62,31.49s8.24,2.28,13.55,2.28
	h2.16c5.31,0,13.55-2.28,13.55-2.28s25.27-10.42,46.62-31.49c0,0,11.63-17.36,10.13-28.68"/>
<path class="NeckTrim fill" d="M253.31,89.49c0.02-0.06,1.78-3.95,3.8-9.14c1.21-3.09,8.38-8.94,15.32-14.6
	c3.55-2.89,7.22-5.88,10.62-8.91c16.24-14.4,14.61-36.71,12.75-44.03c-0.8-3.15-7.02-5.72-18.5-7.64l-0.67,2.98
	c6.69,1.12,13.39,3.1,14.69,4.32c0.52,3.84-1.92,32.37-11.45,40.81c-3.34,2.96-6.96,5.92-10.48,8.78
	c-9.35,7.63-15.16,12.5-16.75,16.56c-2.11,5.41-3.87,11.7-3.95,11.97L253.31,89.49z"/>
<path class="st14" d="M253.31,89.49c0.02-0.06,1.78-3.95,3.8-9.14c1.21-3.09,8.38-8.94,15.32-14.6c3.55-2.89,7.22-5.88,10.62-8.91
	c16.24-14.4,14.61-36.71,12.75-44.03c-0.8-3.15-7.02-5.72-18.5-7.64l-0.67,2.98c6.69,1.12,13.39,3.1,14.69,4.32
	c0.52,3.84-1.92,32.37-11.45,40.81c-3.34,2.96-6.96,5.92-10.48,8.78c-9.35,7.63-15.16,12.5-16.75,16.56
	c-2.11,5.41-3.87,11.7-3.95,11.97L253.31,89.49z"/>
<path class="NeckTrim fill" d="M230.46,89.49c-0.02-0.06-1.78-3.95-3.8-9.14c-1.21-3.09-8.38-8.94-15.32-14.6
	c-3.55-2.89-7.22-5.88-10.63-8.91c-7.52-6.66-12.65-44.44-12.75-44.03c0.8-3.15,7.02-5.72,18.5-7.64l0.67,2.98
	c-6.69,1.12-13.39,3.1-14.69,4.32c-0.52,3.84,1.92,32.37,11.45,40.81c3.34,2.96,6.96,5.92,10.48,8.78
	c9.35,7.63,15.17,12.5,16.75,16.56c2.11,5.41,3.87,11.7,3.95,11.97L230.46,89.49z"/>
<path class="st14" d="M230.46,89.49c-0.02-0.06-1.78-3.95-3.8-9.14c-1.21-3.09-8.38-8.94-15.32-14.6
	c-3.55-2.89-7.22-5.88-10.63-8.91c-7.52-6.66-12.65-44.44-12.75-44.03c0.8-3.15,7.02-5.72,18.5-7.64l0.67,2.98
	c-6.69,1.12-13.39,3.1-14.69,4.32c-0.52,3.84,1.92,32.37,11.45,40.81c3.34,2.96,6.96,5.92,10.48,8.78
	c9.35,7.63,15.17,12.5,16.75,16.56c2.11,5.41,3.87,11.7,3.95,11.97L230.46,89.49z"/>
<path class="st15" d="M411.62,65.26c0,0-22.42,31.16-22.24,135.34l-0.94,26.74"/>
<path class="st15" d="M71.46,65.26c0,0,22.42,31.16,22.24,135.34l-0.39,25.08"/>
<path class="BottomHem fill" d="M245.75,643.72c-22.9,0-44.65-2.3-47.29-2.59c-24.67-1.1-61.05-29.53-62.59-30.74l-0.4-0.35
	c-4.32-4.14-19.49-11.73-28.03-15.55l-1.52-2.25l0.94-10.18l5.03,2.25c2.42,1.08,23.61,10.66,30.93,17.44
	c9.94,7.78,38.84,27.59,56.28,28.27l0.39,0.03c0.56,0.06,56.21,6.14,83.07-0.76l0.78-0.14c0.23-0.03,24.34-2.86,47.45-21.29
	c2.47-2.45,21.7-21.1,38.17-23.95l5.41-0.94l1.85,10.97l-5.42,0.93c-11.5,1.98-27.35,15.9-32.49,21.09l-0.47,0.42
	c-24.35,19.53-49.29,23.31-52.95,23.77C274.14,642.86,259.73,643.72,245.75,643.72 M375.08,579.69l-10.34-9.28
	c-10.34-9.28-53.76-10.82-53.76-10.82H170.19c0,0-43.43,1.55-53.76,10.82l-10.34,9.28l-1.38,13.38c0,0,16.37-15.96,22.57-16.99
	c3.08-0.51,14.06-3.72,24.34-4.75c10.43-1.04,20.12-1.95,20.12-1.95h137.68c0,0,9.7,0.91,20.12,1.95
	c10.28,1.03,21.26,4.23,24.33,4.75c6.21,1.03,22.58,16.99,22.58,16.99L375.08,579.69z"/>
<path class="Colour2 fill" d="M241.46,172.54L74.98,71.8c5.81,12.61,16.94,45.12,18.53,111.37l147.95,89.53l148.12-89.63
	c1.6-66.43,12.81-98.91,18.6-111.41L241.46,172.54z"/>
<path class="Colour1 fill" d="M241.46,182.89L80.12,85.26c5.24,16.3,11.25,43.87,13.05,87.35l148.29,89.74l148.46-89.84
	c1.81-43.53,7.83-71.11,13.08-87.37L241.46,182.89z"/>
<g id="FBodyLogos"></g>
</svg>
