<?xml version="1.0" encoding="utf-8"?>
<!-- Generator: Adobe Illustrator 19.1.0, SVG Export Plug-In . SVG Version: 6.00 Build 0)  -->
<svg version="1.1" id="Layer_1" xmlns="http://www.w3.org/2000/svg" xmlns:xlink="http://www.w3.org/1999/xlink" x="0px" y="0px"
	 viewBox="0 0 483.01 645.44" style="enable-background:new 0 0 483.01 645.44;" xml:space="preserve">
<style type="text/css">
	<![CDATA[
	@font-face{font-family:'codaheavy';src:url('/fonts/coda-heavy-webfont.woff') format('woff')}
	text{font-family:Impact,codaheavy,sans-serif}
	.Colour1.fill{fill:#000000;}
	.Colour2.fill{fill:#F9B425;}
	.Insert.fill{fill:#101010;}
	.NeckTrim.fill{fill:#4D4E4E;stroke:#000000;stroke-width:0.5;}
	.NeckTrim.fill{fill:#F9B425;}
	.ArmTrim.fill{fill:#F9B425;}
	.BottomHem.fill{fill:#F9B425;stroke:#101010;stroke-width:0.8861;stroke-miterlimit:10;}
	.st0{fill:none;stroke:#221915;stroke-width:0.216;stroke-linecap:round;stroke-linejoin:round;}
	.st1{fill:none;stroke:#0A0505;stroke-width:0.6559;stroke-miterlimit:10;}
	.st2{fill:none;stroke:#FFFFFF;stroke-width:0.328;}
	.st3{fill:none;stroke:#FFFFFF;stroke-width:0.216;stroke-dasharray:2.4,2.4,2.4,2.4;}
	.st4{fill:none;stroke:#101010;stroke-width:0.216;stroke-dasharray:2.4,2.4,2.4,2.4;}
	.st5{fill:#FFFFFF;}
	.st6{fill:none;stroke:#221915;stroke-width:0.233;stroke-miterlimit:10;}
	.st7{fill:none;stroke:#221915;stroke-width:0.36;stroke-miterlimit:10;}
	.st8{fill:#222457;}
	.st9{fill:none;stroke:#0A0505;stroke-width:0.233;stroke-miterlimit:10;}
	.st10{fill:none;}
	.st11{fill:#9E802E;}
	.st12{fill:#A23236;}
	.st13{fill:none;stroke:#000000;stroke-width:0.4411;}
	.st14{fill:#FFFFFF;stroke:#000000;stroke-width:2;stroke-miterlimit:10;}
	.white{fill:#ffffff;}
	]]>
</style>
<path class="Colour1 fill" d="M468.79,170.71c-1.06-12.37-9.66-58.76-27.76-86.6c0,0-13.67-16.49-46.9-24.74
	c-33.23-8.25-83.06-28.87-92.64-36.08l-58.05-7h-3.72l-58.04,7c-9.58,7.22-59.41,27.83-92.64,36.08
	c-33.23,8.25-46.9,24.74-46.9,24.74c-18.1,27.83-26.7,74.23-27.76,86.6c-1.06,12.37-13.71,82.47-13.71,82.47s21.83,2.06,37.67,17.76
	c15.85,15.7,43.41,18.32,43.41,18.32l11.62-62.89c0,0,21.25,131.96,16.99,197.94c-4.26,65.98-4.26,167-4.26,167h133.65h3.72h133.65
	c0,0,0-101.03-4.26-167c-4.26-65.98,16.99-197.94,16.99-197.94l11.62,62.89c0,0,27.56-2.62,43.41-18.32
	c15.84-15.7,37.67-17.76,37.67-17.76S469.85,183.08,468.79,170.71"/>
<g>
	<path class="Colour1 fill" d="M412.32,65.78c-2.81,4.39-22.19,38.2-22.02,134.83l-0.94,26.74c0-0.02,0-0.03,0.01-0.04
		c-1.86,11.77-20.89,134.24-16.84,197.01c4.26,65.98,4.26,167,4.26,167H243.13h-3.72H105.77c0,0,0-101.03,4.26-167
		c4.26-65.98-16.99-197.94-16.99-197.94l-0.38,2.08l-0.01-2.76l0.4-25.08C93.22,97.59,71.19,65.98,70.7,65.28
		c5.23-2.18,11.21-4.22,18.04-5.91c33.23-8.25,83.06-28.87,92.64-36.08l58.04-7h3.72l58.05,7c9.58,7.22,59.41,27.83,92.64,36.08
		c7.09,1.76,13.28,3.9,18.64,6.17L412.32,65.78z"/>
	<path class="Colour1 fill" d="M389.51,226.37L389.51,226.37c0,0-0.04,0.23-0.1,0.65C389.47,226.61,389.51,226.37,389.51,226.37z"/>
</g>
<path class="st0" d="M322.04,62.03"/>
<path class="st0" d="M317.89,58.05"/>
<path class="st0" d="M309.79,62.32"/>
<path class="Colour1 fill" d="M136.04,609.18c14.61,11.95,35.73,31.32,104.98,31.32c69.26,0,90.37-19.37,104.98-31.32
	c11.84-9.69,22.49-13.7,28.12-15.24c1.95-0.53,2.6-2.93,1.21-4.39c-2.22-2.33-5.2-4.93-9.14-7.4c-7.04-4.44-10.6-8.63-38.04-11.19
	c-6.01-0.56-13.19-1.04-21.78-1.43c-15.63-0.71-38.48-0.88-65.34-0.88c-26.87,0-49.71,0.18-65.34,0.88
	c-8.59,0.39-15.77,0.86-21.77,1.43c-27.45,2.55-31.01,6.75-38.05,11.19c-3.94,2.48-6.94,5.09-9.16,7.42
	c-1.39,1.46-0.74,3.87,1.21,4.39C113.49,595.46,124.06,599.37,136.04,609.18"/>
<path class="st1" d="M136.04,609.18c14.61,11.95,35.73,31.32,104.98,31.32c69.26,0,90.37-19.37,104.98-31.32
	c11.52-9.43,21.91-13.48,27.65-15.11c2.16-0.61,2.9-3.27,1.34-4.87c-2.18-2.24-5.06-4.7-8.81-7.06c-7.04-4.44-10.6-8.63-38.04-11.19
	c-6.01-0.56-13.19-1.04-21.78-1.43c-15.63-0.71-38.48-0.88-65.34-0.88c-26.87,0-49.71,0.18-65.34,0.88
	c-8.59,0.39-15.77,0.86-21.77,1.43c-27.45,2.55-31.01,6.75-38.05,11.19c-3.75,2.36-6.64,4.83-8.82,7.07
	c-1.56,1.6-0.82,4.27,1.34,4.87C114.06,595.68,124.38,599.64,136.04,609.18z"/>
<line class="st2" x1="185.88" y1="57.37" x2="81.38" y2="95.22"/>
<line class="st3" x1="180.48" y1="56.67" x2="81.38" y2="91.73"/>
<line class="st3" x1="181.47" y1="57.95" x2="81.38" y2="93.76"/>
<line class="st2" x1="298.28" y1="57.37" x2="402.78" y2="95.22"/>
<line class="st3" x1="303.69" y1="56.67" x2="402.78" y2="91.73"/>
<line class="st3" x1="303.69" y1="58.42" x2="402.78" y2="93.47"/>
<path class="st3" d="M378.3,587.83c-2.21-2.95-6.03-7.09-12.13-10.92c-7.04-4.44-10.6-8.63-38.04-11.19
	c-6.01-0.56-13.19-1.04-21.78-1.43c-15.63-0.71-38.48-0.89-65.34-0.89c-26.87,0-49.71,0.18-65.34,0.89
	c-8.59,0.38-15.77,0.86-21.78,1.43c-27.45,2.56-31,6.75-38.05,11.19c-6.1,3.84-9.93,7.98-12.13,10.92"/>
<path class="st3" d="M378.3,584.34c-2.21-2.95-6.03-7.09-12.13-10.92c-7.04-4.44-10.6-8.63-38.04-11.19
	c-6.01-0.56-13.19-1.04-21.78-1.43c-15.63-0.71-38.48-0.89-65.34-0.89c-26.87,0-49.71,0.18-65.34,0.89
	c-8.59,0.38-15.77,0.86-21.78,1.43c-27.45,2.56-31,6.75-38.05,11.19c-6.1,3.84-9.93,7.98-12.13,10.92"/>
<path class="st4" d="M74.51,65.26c0,0,22.54,31.16,22.36,135.34"/>
<path class="st4" d="M409.59,65.26c0,0-22.54,31.16-22.36,135.34"/>
<path class="st0" d="M278.41,56.76"/>
<path class="st0" d="M270.29,61.05"/>
<path class="st5" d="M180.7,38.05c20.59-22.33,97.09-26.13,121.59-1.7l-6.3-13.38c-22.03-7.01-37.73-11.63-53.43-11.66
	c-15.7-0.03-31.4,4.52-53.43,11.53L180.7,38.05z"/>
<path class="st6" d="M180.7,38.05c20.59-22.33,97.09-26.13,121.59-1.7l-6.3-13.38c-22.03-7.01-37.73-11.63-53.43-11.66
	c-15.7-0.03-31.4,4.52-53.43,11.53L180.7,38.05z"/>
<path class="white" d="M192.54,21.39c10.93-3.81,27.89-8.29,48.97-8.29c21.07,0,38.02,4.48,48.95,8.29c0.37,7.1-0.26,17.42-6.41,26.59
	c-3.21,4.78-5.79,7.47-12.6,12.68c-8.34,6.38-17.75,14.74-20.48,22.2c-6.3,0-12.6,0-18.91,0c-2.9-7.21-7.2-11.02-10.03-13.69
	c-3.75-3.53-4.84-4.11-12.02-10.09c-4.66-3.88-7.08-5.92-9.45-9.51c-2.39-3.61-3.38-6.72-4.73-11.1
	C194.58,34.46,193.15,28.66,192.54,21.39z"/>
<path class="st0" d="M266.24,57.16"/>
<path class="st0" d="M258.34,61.33"/>
<path class="NeckTrim fill" d="M285.42,7.64c-31.51-8-56.91-7.65-89.48,1.13l4.14,10.16c12.24-4.56,27.04-5.55,41.94-5.55
	c14.09,0,28.26,0.75,40.43,4.47L285.42,7.64z"/>
<path class="st7" d="M285.42,7.64c-31.51-8-56.91-7.65-89.48,1.13l4.14,10.16c12.24-4.56,27.04-5.55,41.94-5.55
	c14.09,0,28.26,0.75,40.43,4.47L285.42,7.64z"/>
<path class="NeckTrim fill" d="M190.99,10.24l16.12-4.49l2.57,10.97l-19.44,5.27C190.23,21.98,188.97,17.23,190.99,10.24"/>
<path class="st7" d="M190.99,10.24l16.12-4.49l2.57,10.97l-19.44,5.27C190.23,21.98,188.97,17.23,190.99,10.24z"/>
<path class="NeckTrim fill" d="M294.19,10.24l-16.11-4.49l-2.57,10.97l19.44,5.27C294.95,21.98,296.21,17.23,294.19,10.24"/>
<path class="st7" d="M294.19,10.24l-16.11-4.49l-2.57,10.97l19.44,5.27C294.95,21.98,296.21,17.23,294.19,10.24z"/>
<path class="Colour2 fill" d="M176.73,27.67l-10.63,5.17c0,0-3.11,13.97,12.52,28.83l8.96-3.39C187.57,58.28,176.95,48.19,176.73,27.67"
	/>
<path class="Colour2 fill" d="M309.04,27.67l8.93,5.17c0,0,2.41,13.97-13.22,28.83l-4.84-3.39C299.91,58.28,308.82,48.19,309.04,27.67"/>
<path class="st9" d="M295.05,11.62l14.69,17.24c0,0,1.2,25.32-15.62,36.94c-4.52,3.12-16.73,11.04-21.63,13.99
	c-13.33,8.01-18.69,9.71-18.69,9.71s0.17-10.37,3.87-12.57c0,0,26.23-22.15,28.33-25.13C288.11,48.81,296.28,26.25,295.05,11.62z"/>
<path class="st9" d="M188.93,11.62l-14.69,17.24c0,0-1.2,25.32,15.62,36.94c4.52,3.12,16.73,11.04,21.63,13.99
	c13.33,8.01,18.68,9.71,18.68,9.71S230,79.12,226.3,76.92c0,0-26.23-22.15-28.33-25.13C195.86,48.81,187.7,26.25,188.93,11.62z"/>
<path class="Insert fill" d="M230.17,81.83h23.12l-3.6,8.64c0,0-5.9,2.08-14.81,0L230.17,81.83z"/>
<path class="st10" d="M230.75,81.28h23.12l-3.6,8.64c0,0-5.9,2.08-14.81,0L230.75,81.28z"/>
<path class="st3" d="M165.48,33.14c1.08,17.69,13.13,30.02,13.13,30.02c21.46,21.07,46.76,31.22,46.76,31.22s8.77,1.78,14.12,1.78
	h4.19c5.34,0,14.11-1.78,14.11-1.78s25.3-10.15,46.76-31.22c0,0,12.05-12.33,13.13-30.02"/>
<path class="st3" d="M169.81,30.94c-1.5,11.32,10.19,28.68,10.19,28.68c21.46,21.07,46.87,31.49,46.87,31.49s8.28,2.28,13.62,2.28
	h2.17c5.34,0,13.62-2.28,13.62-2.28s25.41-10.42,46.87-31.49c0,0,11.69-17.36,10.19-28.68"/>
<path class="st11" d="M253.81,89.49c0.02-0.06,1.79-3.95,3.82-9.14c1.21-3.09,8.43-8.94,15.4-14.6c3.56-2.89,7.25-5.88,10.68-8.91
	c16.33-14.4,14.69-36.71,12.82-44.03c-0.8-3.15-7.06-5.72-18.6-7.64l-0.68,2.98c6.72,1.12,13.46,3.1,14.77,4.32
	c0.52,3.84-1.93,32.37-11.51,40.81c-3.35,2.96-7,5.92-10.53,8.78c-9.4,7.63-15.25,12.5-16.84,16.56c-2.12,5.41-3.89,11.7-3.97,11.97
	L253.81,89.49z"/>
<path class="Colour1 fill" d="M253.81,89.49c0.02-0.06,1.79-3.95,3.82-9.14c1.21-3.09,8.43-8.94,15.4-14.6
	c3.56-2.89,7.25-5.88,10.68-8.91c16.33-14.4,14.69-36.71,12.82-44.03c-0.8-3.15-7.06-5.72-18.6-7.64l-0.68,2.98
	c6.72,1.12,13.46,3.1,14.77,4.32c0.52,3.84-1.93,32.37-11.51,40.81c-3.35,2.96-7,5.92-10.53,8.78c-9.4,7.63-15.25,12.5-16.84,16.56
	c-2.12,5.41-3.89,11.7-3.97,11.97L253.81,89.49z"/>
<path class="st12" d="M230.83,89.49c-0.02-0.06-1.79-3.95-3.82-9.14c-1.21-3.09-8.43-8.94-15.4-14.6
	c-3.57-2.89-7.25-5.88-10.68-8.91c-7.56-6.66-12.71-44.44-12.82-44.03c0.8-3.15,7.06-5.72,18.6-7.64l0.68,2.98
	c-6.72,1.12-13.46,3.1-14.77,4.32c-0.52,3.84,1.93,32.37,11.51,40.81c3.35,2.96,7,5.92,10.53,8.78c9.4,7.63,15.25,12.5,16.84,16.56
	c2.12,5.41,3.89,11.7,3.97,11.97L230.83,89.49z"/>
<path class="Colour1 fill" d="M230.83,89.49c-0.02-0.06-1.79-3.95-3.82-9.14c-1.21-3.09-8.43-8.94-15.4-14.6
	c-3.57-2.89-7.25-5.88-10.68-8.91c-7.56-6.66-12.71-44.44-12.82-44.03c0.8-3.15,7.06-5.72,18.6-7.64l0.68,2.98
	c-6.72,1.12-13.46,3.1-14.77,4.32c-0.52,3.84,1.93,32.37,11.51,40.81c3.35,2.96,7,5.92,10.53,8.78c9.4,7.63,15.25,12.5,16.84,16.56
	c2.12,5.41,3.89,11.7,3.97,11.97L230.83,89.49z"/>
<path class="st13" d="M412.96,65.26c0,0-22.54,31.16-22.36,135.34l-0.94,26.74"/>
<path class="st13" d="M70.99,65.26c0,0,22.54,31.16,22.36,135.34l-0.4,25.08"/>
<path class="NeckTrim fill" d="M188.93,11.62l-14.69,17.24c0,0-1.2,25.32,15.62,36.94c4.52,3.12,16.73,11.04,21.63,13.99
	c13.33,8.01,18.68,9.71,18.68,9.71S230,79.12,226.3,76.92c0,0-26.23-22.15-28.33-25.13C195.86,48.81,187.7,26.25,188.93,11.62"/>
<path class="st14" d="M389.81,226.37L389.81,226.37c0,0-0.04,0.23-0.1,0.65C389.77,226.61,389.81,226.37,389.81,226.37z"/>
<path class="Colour1 fill" d="M468.79,170.71c-1.06-12.37-9.66-58.76-27.76-86.6c0,0-8.47-10.2-28.25-18.57
	c-2.13,3.23-22.35,36.39-22.17,135.07l-0.94,26.74c0.1-0.63,0.15-0.96,0.15-0.96l11.62,62.89c0,0,27.56-2.62,43.41-18.32
	c15.84-15.7,37.67-17.76,37.67-17.76S469.85,183.08,468.79,170.71z"/>
<path class="ArmTrim fill" d="M482.5,253.18c0,0-0.39-2.15-1.03-5.75l-82.31,29.54l2.27,12.29c0,0,0.24-0.02,0.68-0.08l36.53-13.11
	c2.19-1.53,4.28-3.24,6.19-5.13C460.68,255.24,482.5,253.18,482.5,253.18z"/>
<path class="Colour2 fill" d="M399.16,276.97l82.31-29.54c-0.57-3.18-1.34-7.49-2.22-12.48l-82.4,29.57L399.16,276.97z"/>
<path class="Colour1 fill" d="M14.22,170.71c1.06-12.37,9.66-58.76,27.76-86.6c0,0,8.47-10.2,28.25-18.57
	c2.13,3.23,22.35,36.39,22.17,135.07l0.94,26.74c-0.1-0.63-0.15-0.96-0.15-0.96l-11.62,62.89c0,0-27.56-2.62-43.41-18.32
	C22.33,255.24,0.5,253.18,0.5,253.18S13.15,183.08,14.22,170.71z"/>
<path class="ArmTrim fill" d="M0.5,253.18c0,0,0.39-2.15,1.03-5.75l82.31,29.54l-2.27,12.29c0,0-0.24-0.02-0.68-0.08l-36.53-13.11
	c-2.19-1.53-4.28-3.24-6.19-5.13C22.33,255.24,0.5,253.18,0.5,253.18z"/>
<path class="Colour2 fill" d="M83.85,276.97L1.54,247.42c0.57-3.18,1.34-7.49,2.22-12.48l82.4,29.57L83.85,276.97z"/>
<path class="st3" d="M400.54,284.89c0,0,27.56-2.62,43.41-18.32c15.84-15.7,37.67-17.76,37.67-17.76"/>
<path class="st3" d="M400.54,283.14c0,0,27.56-2.62,43.41-18.32c15.84-15.7,37.67-17.76,37.67-17.76"/>
<path class="st3" d="M82.5,285.47c0,0-27.56-2.62-43.41-18.32c-15.84-15.7-37.67-17.76-37.67-17.76"/>
<path class="st3" d="M82.5,283.72c0,0-27.56-2.62-43.41-18.32c-15.84-15.7-37.67-17.76-37.67-17.76"/>
<g>
	<path class="st14" d="M389.81,226.37L389.81,226.37c0,0-0.04,0.23-0.1,0.65C389.77,226.61,389.81,226.37,389.81,226.37z"/>
</g>
<path class="NeckTrim fill" d="M295.05,11.62l14.69,17.24c0,0,1.2,25.32-15.62,36.94c-4.52,3.12-16.73,11.04-21.63,13.99
	c-13.33,8.01-18.69,9.71-18.69,9.71s0.17-10.37,3.87-12.57c0,0,26.23-22.15,28.33-25.13C288.11,48.81,296.28,26.25,295.05,11.62"/>
<path class="BottomHem fill" d="M246.2,643.72c-23.02,0-44.89-2.3-47.54-2.59c-24.8-1.1-61.38-29.53-62.92-30.74l-0.4-0.35
	c-4.35-4.14-19.59-11.73-28.18-15.55l-1.53-2.25l0.94-10.18l5.05,2.25c2.43,1.08,23.74,10.66,31.09,17.44
	c9.99,7.78,39.05,27.59,56.58,28.27l0.39,0.03c0.56,0.06,56.51,6.14,83.51-0.76l0.78-0.14c0.24-0.03,24.47-2.86,47.7-21.29
	c2.48-2.45,21.82-21.1,38.38-23.95l5.44-0.94l1.86,10.97l-5.45,0.93c-11.56,1.98-27.5,15.9-32.66,21.09l-0.47,0.42
	c-24.48,19.53-49.55,23.31-53.23,23.77C274.75,642.86,260.26,643.72,246.2,643.72 M376.22,579.69l-10.39-9.28
	c-10.39-9.28-54.05-10.82-54.05-10.82H170.25c0,0-43.66,1.55-54.05,10.82l-10.39,9.28l-1.39,13.38c0,0,16.46-15.96,22.69-16.99
	c3.1-0.51,14.13-3.72,24.47-4.75c10.48-1.04,20.23-1.95,20.23-1.95h138.42c0,0,9.75,0.91,20.23,1.95
	c10.33,1.03,21.37,4.23,24.46,4.75c6.24,1.03,22.7,16.99,22.7,16.99L376.22,579.69z"/>
<path class="Colour2 fill" d="M372.52,424.31c0.38,5.85,0.72,11.97,1.03,18.28H109c0.31-6.3,0.66-12.43,1.03-18.28
	c0.66-10.21,0.71-21.99,0.32-34.62h261.86C371.82,402.32,371.86,414.1,372.52,424.31z M101.82,289.56c2,16.41,4.01,34.64,5.59,52.9
	h267.73c1.59-18.26,3.59-36.48,5.59-52.9H101.82z M107.22,489.82c-0.52,18.72-0.86,37.07-1.07,52.9H376.4
	c-0.21-15.83-0.55-34.18-1.07-52.9H107.22z M392.98,142.2c2.43-23.69,6.16-40.87,9.72-52.9H80.64c3.56,12.03,7.3,29.21,9.72,52.9
	H392.98z M389.51,226.37c0,0-0.04,0.24-0.1,0.65C389.47,226.6,389.51,226.37,389.51,226.37L389.51,226.37z M389.36,227.34
	l0.94-26.74c-0.01-3.83,0.02-7.54,0.07-11.17H92.97c0.05,3.63,0.08,7.35,0.07,11.17l-0.4,25.08l0.01,2.76l0.38-2.08
	c0,0,0.96,5.96,2.43,15.95h291.62c1.13-7.71,1.96-13.01,2.28-15.03C389.36,227.31,389.36,227.32,389.36,227.34z"/>
<g id="FBodyLogos"></g>
<path class="Colour2 fill" d="M390.15,213.33l80.46-29.39c0.45,2.89,0.96,6.06,1.51,9.43l-82.32,30.07L390.15,213.33z M391.99,238.16
	l82.58-30.17c-0.54-3.18-1.08-6.34-1.59-9.4l-82.72,30.22L391.99,238.16z M392.93,243.26l2.3,12.46l82.38-30.1
	c-0.7-4.03-1.44-8.25-2.17-12.51L392.93,243.26z M468.37,167.03c-0.18-1.4-0.41-2.98-0.7-4.73l-77.02,28.14
	c-0.02,1.65-0.04,3.32-0.05,5.01L468.37,167.03z M469.8,178.59c-0.37-2.56-0.67-4.71-0.85-6.34l-78.35,28.62l-0.24,6.74
	L469.8,178.59z"/>
<path class="Colour2 fill" d="M93.35,223.44l-82.32-30.07c0.55-3.36,1.06-6.54,1.51-9.43l80.46,29.39L93.35,223.44z M92.88,228.81
	l-82.72-30.22c-0.51,3.06-1.04,6.22-1.59,9.4l82.58,30.17L92.88,228.81z M7.7,213.11c-0.73,4.26-1.47,8.49-2.17,12.51l82.38,30.1
	l2.3-12.46L7.7,213.11z M92.53,195.44c-0.01-1.69-0.03-3.36-0.05-5.01L15.47,162.3c-0.28,1.75-0.51,3.33-0.7,4.73L92.53,195.44z
	 M92.79,207.61l-0.24-6.74L14.2,172.25c-0.19,1.63-0.48,3.78-0.85,6.34L92.79,207.61z"/>
<path class="st3" d="M314.97,567.73l9.78-185.56c0,0,4.07-25.16,13.94-47.33c16.66-40.34,49.93-120.86,55.45-134.26"/>
<path class="st3" d="M169.26,567.73l-9.78-185.56c0,0-4.07-25.16-13.94-47.33c-16.66-40.34-49.93-120.86-55.46-134.26"/>
<path class="st3" d="M171.03,567.73l-9.78-185.56c0,0-4.07-25.16-13.94-47.33c-16.66-40.34-49.93-120.86-55.45-134.26"/>
<path class="st3" d="M313.21,567.73l9.78-185.56c0,0,4.07-25.16,13.94-47.33c16.66-40.34,49.93-120.86,55.46-134.26"/>
</svg>
