<?xml version="1.0" encoding="utf-8"?>
<!-- Generator: Adobe Illustrator 19.1.0, SVG Export Plug-In . SVG Version: 6.00 Build 0)  -->
<svg version="1.1" id="Layer_1" xmlns="http://www.w3.org/2000/svg" xmlns:xlink="http://www.w3.org/1999/xlink" x="0px" y="0px"
	 viewBox="0 0 483.01 645.44" style="enable-background:new 0 0 483.01 645.44;" xml:space="preserve">
<style type="text/css">
	<![CDATA[
	@font-face{font-family:'codaheavy';src:url('/fonts/coda-heavy-webfont.woff') format('woff')}
	text{font-family:Impact,codaheavy,sans-serif}
	.Colour1.fill{fill:#1A2651;}
	.Colour2.fill{fill:#171F3D;}
	.Colour3.fill{fill:#A03035;}
	.Insert.fill{fill:#1A2651;}
	.NeckTrim.fill{fill:#1A2651;}
	.ArmTrim.fill{fill:#060606;}
	.BottomHem.fill{fill:#A03035;stroke:#101010;stroke-width:0.8861;stroke-miterlimit:10;}
	.st0{fill:#0E1B34;}
	.st1{fill:none;stroke:#000000;stroke-width:3;stroke-linecap:round;stroke-linejoin:round;}
	.st2{fill:none;stroke:#221915;stroke-width:0.216;stroke-linecap:round;stroke-linejoin:round;}
	.st3{fill:none;stroke:#FFFFFF;stroke-width:0.328;}
	.st4{fill:none;stroke:#FFFFFF;stroke-width:0.216;stroke-dasharray:2.4,2.4,2.4,2.4;}
	.st5{fill:none;stroke:#101010;stroke-width:0.216;stroke-dasharray:2.4,2.4,2.4,2.4;}
	.st6{fill:#FFFFFF;}
	.st7{fill:none;stroke:#221915;stroke-width:0.233;stroke-miterlimit:10;}
	.st8{fill:none;stroke:#221915;stroke-width:0.36;stroke-miterlimit:10;}
	.st9{fill:#222457;}
	.st10{fill:none;stroke:#0A0505;stroke-width:0.233;stroke-miterlimit:10;}
	.st11{fill:none;}
	.st12{fill:#9E802E;}
	.st13{fill:#A23236;}
	.st14{fill:none;stroke:#000000;stroke-width:0.4411;}
	.st15{fill:#FFFFFF;stroke:#000000;stroke-width:2;stroke-miterlimit:10;}
	.st16{fill:none;stroke:#0A0505;stroke-width:0.6559;stroke-miterlimit:10;}
	.white{fill:#ffffff;}
	]]>
</style>
<path class="Colour1 fill" d="M467.4,170.71c-1.06-12.37-9.6-58.76-27.61-86.6c0,0-13.6-16.49-46.64-24.74
	c-33.05-8.25-82.59-28.87-92.12-36.08l-57.72-7h-3.69l-57.72,7c-9.53,7.22-59.07,27.83-92.12,36.08
	c-33.05,8.25-46.64,24.74-46.64,24.74c-18,27.83-26.55,74.23-27.61,86.6c-1.06,12.37-13.64,82.47-13.64,82.47s21.7,2.06,37.46,17.76
	c15.76,15.7,43.16,18.32,43.16,18.32l11.55-62.89c0,0,21.13,131.96,16.89,197.94c-4.24,65.98-4.24,167-4.24,167h132.9h3.69h132.9
	c0,0,0-101.03-4.23-167c-4.23-65.98,16.89-197.94,16.89-197.94l11.55,62.89c0,0,27.41-2.62,43.16-18.32
	c15.75-15.7,37.46-17.76,37.46-17.76S468.46,183.08,467.4,170.71"/>
<path class="Colour1 fill" d="M411.89,65.26c0,0-22.42,31.16-22.23,135.34l-0.94,26.74"/>
<path class="Colour1 fill" d="M93.67,225.68l0.39-25.08C94.23,104.56,75.2,70.58,72.22,65.85"/>
<path class="Colour1 fill" d="M82.51,289.26l11.55-62.89c0,0,6.21-103.15-20.71-158.58l-1.58-2.48c-20.06,8.41-28.63,18.8-28.63,18.8
	c-18,27.83-26.55,74.23-27.61,86.6c-1.06,12.37-13.64,82.47-13.64,82.47s21.7,2.06,37.46,17.76
	C55.11,286.63,82.51,289.26,82.51,289.26z"/>
<path class="Colour1 fill" d="M400.88,289.26l-11.55-62.89c0,0-6.21-103.15,20.71-158.58l1.58-2.48c20.06,8.41,28.63,18.8,28.63,18.8
	c18,27.83,26.55,74.23,27.61,86.6c1.06,12.37,13.64,82.47,13.64,82.47s-21.7,2.06-37.46,17.76
	C428.29,286.63,400.88,289.26,400.88,289.26z"/>
<g>
	<path class="st0" d="M411,65.78c-2.79,4.39-22.06,38.2-21.89,134.83l-0.94,26.74c0-0.02,0-0.03,0.01-0.04
		c-1.85,11.77-20.77,134.24-16.75,197.01c4.23,65.98,4.23,167,4.23,167h-132.9h-3.69h-132.9c0,0,0-101.03,4.24-167
		c4.23-65.98-16.89-197.94-16.89-197.94l-0.38,2.08l-0.01-2.76l0.39-25.08C93.7,97.59,71.79,65.98,71.3,65.28
		c5.2-2.18,11.15-4.22,17.94-5.91c33.05-8.25,82.59-28.87,92.12-36.08l57.72-7h3.69l57.72,7c9.53,7.22,59.07,27.83,92.12,36.08
		c7.05,1.76,13.2,3.9,18.54,6.17L411,65.78z"/>
	<path class="st0" d="M388.33,226.37L388.33,226.37c0,0-0.04,0.23-0.1,0.65C388.29,226.61,388.33,226.37,388.33,226.37z"/>
</g>
<g>
	<path class="Colour1 fill" d="M411,65.78c-2.79,4.39-22.06,38.2-21.89,134.83l-0.94,26.74c0-0.02,0-0.03,0.01-0.04
		c-1.85,11.77-20.77,134.24-16.75,197.01c4.23,65.98,4.23,167,4.23,167h-132.9h-3.69h-132.9c0,0,0-101.03,4.24-167
		c4.23-65.98-16.89-197.94-16.89-197.94l-0.38,2.08l-0.01-2.76l0.39-25.08C93.7,97.59,71.79,65.98,71.3,65.28
		c5.2-2.18,11.15-4.22,17.94-5.91c33.05-8.25,82.59-28.87,92.12-36.08l57.72-7h3.69l57.72,7c9.53,7.22,59.07,27.83,92.12,36.08
		c7.05,1.76,13.2,3.9,18.54,6.17L411,65.78z"/>
	<path class="Colour1 fill" d="M388.33,226.37L388.33,226.37c0,0-0.04,0.23-0.1,0.65C388.29,226.61,388.33,226.37,388.33,226.37z"/>
</g>
<g>
	<path class="st1" d="M72.13,65.46c0.12-0.05,0.23-0.1,0.35-0.15l1.58,2.48c26.92,55.43,20.71,158.58,20.71,158.58l-0.29,1.59"/>
	<path class="st1" d="M72.13,65.46c-19.8,8.38-28.29,18.65-28.29,18.65c-18,27.83-26.55,74.23-27.61,86.6
		C15.18,183.08,2.6,253.18,2.6,253.18s21.7,2.06,37.46,17.76c15.76,15.7,43.16,18.32,43.16,18.32l11.26-61.3"/>
	<path class="st1" d="M394.04,128.96c3.15-21.98,8.32-43.89,16.71-61.17l1.58-2.48c20.06,8.41,28.63,18.8,28.63,18.8
		c18,27.83,26.55,74.23,27.61,86.6c1.06,12.37,13.64,82.47,13.64,82.47s-21.7,2.06-37.46,17.76c-15.76,15.7-43.16,18.32-43.16,18.32
		l-11.55-62.89c0,0-0.38-6.31-0.54-16.64"/>
	<path class="st1" d="M394.04,128.96c-4.45,31.11-4.84,62.35-4.55,80.78"/>
	<path class="st1" d="M394.04,128.96c5.8-42.81,15.72-60.13,17.67-63.18l0.14-0.24c-5.33-2.27-11.49-4.41-18.54-6.17
		c-33.05-8.25-82.59-28.87-92.12-36.08l-57.72-7h-3.69l-57.72,7c-9.53,7.22-59.07,27.83-92.12,36.08C83.15,61.06,77.2,63.1,72,65.28
		c0.02,0.02,0.06,0.08,0.12,0.18"/>
	<path class="st1" d="M394.04,128.96c-2.53,18.7-4.28,42.26-4.23,71.64l-0.32,9.14"/>
	<path class="st1" d="M389.49,209.74l-0.62,17.6c0-0.02,0-0.03,0.01-0.04c-1.85,11.77-20.77,134.24-16.75,197.01
		c4.23,65.98,4.23,167,4.23,167h-132.9h-3.69h-132.9c0,0,0-101.03,4.24-167c3.96-61.74-14.28-181.25-16.64-196.35"/>
	<path class="st1" d="M72.13,65.46c1.82,2.73,22.27,35.6,22.1,135.14l-0.39,25.08l0.01,2.76l0.38-2.08c0,0,0.09,0.55,0.25,1.59"/>
</g>
<path class="Colour1 fill" d="M411,65.78c-2.79,4.39-22.06,38.2-21.89,134.83l-0.94,26.74c0-0.02,0-0.03,0.01-0.04
	c-1.85,11.77-20.77,134.24-16.75,197.01c4.23,65.98,4.23,167,4.23,167h-132.9h-3.69h-132.9c0,0,0-101.03,4.24-167
	c4.23-65.98-16.89-197.94-16.89-197.94l-0.38,2.08l-0.01-2.76l0.39-25.08C93.7,97.59,71.79,65.98,71.3,65.28
	c5.2-2.18,11.15-4.22,17.94-5.91c33.05-8.25,82.59-28.87,92.12-36.08l57.72-7h3.69l57.72,7c9.53,7.22,59.07,27.83,92.12,36.08
	c7.05,1.76,13.2,3.9,18.54,6.17L411,65.78z"/>
<path class="Colour1 fill" d="M388.33,226.37L388.33,226.37c0,0-0.04,0.23-0.1,0.65C388.29,226.61,388.33,226.37,388.33,226.37z"/>
<path class="Colour1 fill" d="M170.54,565.35l-9.73-185.56c0,0-4.05-25.16-13.87-47.33C130.38,292.12,97.3,211.59,91.8,198.19h298.86
	c-5.5,13.4-38.58,93.93-55.14,134.26c-9.82,22.17-13.86,47.33-13.86,47.33l-9.73,187.12l-141.38,0.82"/>
<path class="Colour2 fill" d="M91.8,198.19h298.86c-2.01,4.89-7.68,18.71-14.89,36.25H106.69C99.48,216.9,93.8,203.08,91.8,198.19z
	 M123.35,275.01c8.64,21.03,17.31,42.13,23.59,57.44c3.41,7.7,6.12,15.77,8.22,23.01H327.3c2.09-7.24,4.8-15.31,8.21-23.01
	c6.29-15.31,14.96-36.42,23.6-57.44H123.35z M161.84,399.41l4.75,90.59h149.33l4.71-90.59H161.84z M313.81,530.57H168.71l1.7,32.45
	h141.7L313.81,530.57z M404.63,79.61H78.01c5,13.61,11.41,38.04,14.16,78.02h298.29C393.22,117.66,399.63,93.22,404.63,79.61z"/>
<path class="Colour1 fill" d="M136.28,609.18c14.53,11.95,35.52,31.32,104.39,31.32c68.87,0,89.86-19.37,104.39-31.32
	c11.77-9.69,22.37-13.7,27.96-15.24c1.94-0.53,2.58-2.93,1.2-4.39c-2.2-2.33-5.17-4.93-9.09-7.4c-7-4.44-10.54-8.63-37.83-11.19
	c-5.98-0.56-13.12-1.04-21.66-1.43c-15.54-0.71-38.26-0.88-64.97-0.88c-26.72,0-49.43,0.18-64.98,0.88
	c-8.54,0.39-15.68,0.86-21.65,1.43c-27.29,2.55-30.83,6.75-37.83,11.19c-3.92,2.48-6.9,5.09-9.11,7.42
	c-1.38,1.46-0.74,3.87,1.21,4.39C113.85,595.46,124.36,599.37,136.28,609.18"/>
<path class="st2" d="M321.23,62.03"/>
<path class="st2" d="M317.11,58.05"/>
<path class="st2" d="M309.05,62.32"/>
<line class="st3" x1="185.84" y1="57.37" x2="81.93" y2="95.22"/>
<line class="st4" x1="180.47" y1="56.67" x2="81.93" y2="91.73"/>
<line class="st4" x1="181.46" y1="57.95" x2="81.93" y2="93.76"/>
<line class="st3" x1="297.61" y1="57.37" x2="401.52" y2="95.22"/>
<line class="st4" x1="302.98" y1="56.67" x2="401.52" y2="91.73"/>
<line class="st4" x1="302.98" y1="58.42" x2="401.52" y2="93.47"/>
<path class="st4" d="M314.2,567.73l9.73-185.56c0,0,4.04-25.16,13.87-47.33c16.56-40.34,49.65-120.86,55.14-134.26"/>
<path class="st4" d="M169.32,567.73l-9.73-185.56c0,0-4.05-25.16-13.86-47.33c-16.57-40.34-49.65-120.86-55.14-134.26"/>
<path class="st5" d="M75.1,65.26c0,0,22.41,31.16,22.23,135.34"/>
<path class="st5" d="M408.29,65.26c0,0-22.41,31.16-22.23,135.34"/>
<path class="st2" d="M277.85,56.76"/>
<path class="st2" d="M269.77,61.05"/>
<path class="st6" d="M180.69,38.05c20.47-22.33,96.54-26.13,120.91-1.7l-6.26-13.38c-21.91-7.01-37.52-11.63-53.13-11.66
	c-15.61-0.03-31.22,4.52-53.13,11.53L180.69,38.05z"/>
<path class="st7" d="M180.69,38.05c20.47-22.33,96.54-26.13,120.91-1.7l-6.26-13.38c-21.91-7.01-37.52-11.63-53.13-11.66
	c-15.61-0.03-31.22,4.52-53.13,11.53L180.69,38.05z"/>
<path class="white" d="M192.54,21.39c10.93-3.81,27.89-8.29,48.97-8.29c21.07,0,38.02,4.48,48.95,8.29c0.37,7.1-0.26,17.42-6.41,26.59
	c-3.21,4.78-5.79,7.47-12.6,12.68c-8.34,6.38-17.75,14.74-20.48,22.2c-6.3,0-12.6,0-18.91,0c-2.9-7.21-7.2-11.02-10.03-13.69
	c-3.75-3.53-4.84-4.11-12.02-10.09c-4.66-3.88-7.08-5.92-9.45-9.51c-2.39-3.61-3.38-6.72-4.73-11.1
	C194.58,34.46,193.15,28.66,192.54,21.39z"/>
<path class="st2" d="M265.75,57.16"/>
<path class="st2" d="M257.9,61.33"/>
<path class="NeckTrim fill" d="M284.82,7.64c-31.33-8-56.59-7.65-88.97,1.13l4.12,10.16c12.18-4.56,26.89-5.55,41.71-5.55
	c14.01,0,28.1,0.75,40.2,4.47L284.82,7.64z"/>
<path class="st8" d="M284.82,7.64c-31.33-8-56.59-7.65-88.97,1.13l4.12,10.16c12.18-4.56,26.89-5.55,41.71-5.55
	c14.01,0,28.1,0.75,40.2,4.47L284.82,7.64z"/>
<path class="NeckTrim fill" d="M190.92,10.24l16.03-4.49l2.56,10.97l-19.33,5.27C190.17,21.98,188.92,17.23,190.92,10.24"/>
<path class="st8" d="M190.92,10.24l16.03-4.49l2.56,10.97l-19.33,5.27C190.17,21.98,188.92,17.23,190.92,10.24z"/>
<path class="NeckTrim fill" d="M293.55,10.24l-16.02-4.49l-2.56,10.97l19.33,5.27C294.3,21.98,295.55,17.23,293.55,10.24"/>
<path class="st8" d="M293.55,10.24l-16.02-4.49l-2.56,10.97l19.33,5.27C294.3,21.98,295.55,17.23,293.55,10.24z"/>
<path class="Colour2 fill" d="M176.74,27.67l-10.57,5.17c0,0-3.09,13.97,12.45,28.83l8.9-3.39C187.52,58.28,176.96,48.19,176.74,27.67"/>
<path class="Colour2 fill" d="M308.31,27.67l8.88,5.17c0,0,2.4,13.97-13.14,28.83l-4.81-3.39C299.23,58.28,308.09,48.19,308.31,27.67"/>
<path class="NeckTrim fill" d="M294.4,11.62L309,28.86c0,0,1.19,25.32-15.53,36.94c-4.5,3.12-16.63,11.04-21.51,13.99
	c-13.25,8.01-18.58,9.71-18.58,9.71s0.17-10.37,3.85-12.57c0,0,26.08-22.15,28.17-25.13C287.5,48.81,295.62,26.25,294.4,11.62"/>
<path class="st10" d="M294.4,11.62L309,28.86c0,0,1.19,25.32-15.53,36.94c-4.5,3.12-16.63,11.04-21.51,13.99
	c-13.25,8.01-18.58,9.71-18.58,9.71s0.17-10.37,3.85-12.57c0,0,26.08-22.15,28.17-25.13C287.5,48.81,295.62,26.25,294.4,11.62z"/>
<path class="NeckTrim fill" d="M188.87,11.62l-14.6,17.24c0,0-1.19,25.32,15.53,36.94c4.5,3.12,16.63,11.04,21.51,13.99
	c13.25,8.01,18.58,9.71,18.58,9.71s-0.17-10.37-3.85-12.57c0,0-26.08-22.15-28.17-25.13C195.77,48.81,187.65,26.25,188.87,11.62"/>
<path class="st10" d="M188.87,11.62l-14.6,17.24c0,0-1.19,25.32,15.53,36.94c4.5,3.12,16.63,11.04,21.51,13.99
	c13.25,8.01,18.58,9.71,18.58,9.71s-0.17-10.37-3.85-12.57c0,0-26.08-22.15-28.17-25.13C195.77,48.81,187.65,26.25,188.87,11.62z"/>
<path class="Insert fill" d="M229.88,81.83h22.99l-3.58,8.64c0,0-5.87,2.08-14.73,0L229.88,81.83z"/>
<path class="st11" d="M230.46,81.28h22.99l-3.58,8.64c0,0-5.87,2.08-14.73,0L230.46,81.28z"/>
<path class="st4" d="M165.55,33.14c1.07,17.69,13.06,30.02,13.06,30.02c21.34,21.07,46.5,31.22,46.5,31.22s8.73,1.78,14.04,1.78
	h4.16c5.31,0,14.04-1.78,14.04-1.78s25.15-10.15,46.5-31.22c0,0,11.98-12.33,13.05-30.02"/>
<path class="st4" d="M169.86,30.94c-1.49,11.32,10.13,28.68,10.13,28.68c21.34,21.07,46.61,31.49,46.61,31.49s8.24,2.28,13.54,2.28
	h2.16c5.31,0,13.54-2.28,13.54-2.28s25.27-10.42,46.61-31.49c0,0,11.62-17.36,10.13-28.68"/>
<path class="st12" d="M253.38,89.49c0.02-0.06,1.78-3.95,3.8-9.14c1.21-3.09,8.38-8.94,15.32-14.6c3.54-2.89,7.21-5.88,10.62-8.91
	c16.24-14.4,14.61-36.71,12.75-44.03c-0.8-3.15-7.02-5.72-18.49-7.64l-0.67,2.98c6.68,1.12,13.39,3.1,14.69,4.32
	c0.52,3.84-1.92,32.37-11.44,40.81c-3.33,2.96-6.96,5.92-10.47,8.78c-9.35,7.63-15.16,12.5-16.74,16.56
	c-2.11,5.41-3.87,11.7-3.95,11.97L253.38,89.49z"/>
<path class="Colour3 fill" d="M253.38,89.49c0.02-0.06,1.78-3.95,3.8-9.14c1.21-3.09,8.38-8.94,15.32-14.6
	c3.54-2.89,7.21-5.88,10.62-8.91c16.24-14.4,14.61-36.71,12.75-44.03c-0.8-3.15-7.02-5.72-18.49-7.64l-0.67,2.98
	c6.68,1.12,13.39,3.1,14.69,4.32c0.52,3.84-1.92,32.37-11.44,40.81c-3.33,2.96-6.96,5.92-10.47,8.78
	c-9.35,7.63-15.16,12.5-16.74,16.56c-2.11,5.41-3.87,11.7-3.95,11.97L253.38,89.49z"/>
<path class="st13" d="M230.54,89.49c-0.02-0.06-1.78-3.95-3.8-9.14c-1.21-3.09-8.38-8.94-15.32-14.6
	c-3.55-2.89-7.21-5.88-10.62-8.91c-7.51-6.66-12.64-44.44-12.75-44.03c0.8-3.15,7.02-5.72,18.49-7.64l0.67,2.98
	c-6.68,1.12-13.39,3.1-14.69,4.32c-0.52,3.84,1.92,32.37,11.44,40.81c3.33,2.96,6.96,5.92,10.47,8.78
	c9.35,7.63,15.16,12.5,16.74,16.56c2.11,5.41,3.87,11.7,3.95,11.97L230.54,89.49z"/>
<path class="Colour3 fill" d="M230.54,89.49c-0.02-0.06-1.78-3.95-3.8-9.14c-1.21-3.09-8.38-8.94-15.32-14.6
	c-3.55-2.89-7.21-5.88-10.62-8.91c-7.51-6.66-12.64-44.44-12.75-44.03c0.8-3.15,7.02-5.72,18.49-7.64l0.67,2.98
	c-6.68,1.12-13.39,3.1-14.69,4.32c-0.52,3.84,1.92,32.37,11.44,40.81c3.33,2.96,6.96,5.92,10.47,8.78
	c9.35,7.63,15.16,12.5,16.74,16.56c2.11,5.41,3.87,11.7,3.95,11.97L230.54,89.49z"/>
<path class="st14" d="M411.65,65.26c0,0-22.42,31.16-22.23,135.34l-0.94,26.74"/>
<path class="st14" d="M71.59,65.26c0,0,22.41,31.16,22.23,135.34l-0.39,25.08"/>
<path class="st15" d="M388.63,226.37L388.63,226.37c0,0-0.04,0.23-0.1,0.65C388.59,226.61,388.63,226.37,388.63,226.37z"/>
<path class="ArmTrim fill" d="M480.8,253.18c0,0-0.39-2.15-1.03-5.75l-81.85,29.54l2.26,12.29c0,0,0.24-0.02,0.68-0.08l36.33-13.11
	c2.18-1.53,4.25-3.24,6.16-5.13C459.09,255.24,480.8,253.18,480.8,253.18z"/>
<path class="ArmTrim fill" d="M1.5,253.18c0,0,0.39-2.15,1.03-5.75l81.85,29.54l-2.26,12.29c0,0-0.24-0.02-0.68-0.08l-36.33-13.11
	c-2.18-1.53-4.25-3.24-6.16-5.13C23.21,255.24,1.5,253.18,1.5,253.18z"/>
<path class="Colour3 fill" d="M397.92,276.97l81.85-29.54c-0.57-3.18-1.33-7.49-2.2-12.48l-81.93,29.57L397.92,276.97z"/>
<path class="Colour3 fill" d="M84.38,276.97L2.53,247.42c0.57-3.18,1.33-7.49,2.2-12.48l81.93,29.57L84.38,276.97z"/>
<path class="st4" d="M399.3,284.89c0,0,27.41-2.62,43.16-18.32c15.75-15.7,37.46-17.76,37.46-17.76"/>
<path class="st4" d="M399.3,283.14c0,0,27.41-2.62,43.16-18.32c15.75-15.7,37.46-17.76,37.46-17.76"/>
<path class="st4" d="M83.04,285.47c0,0-27.41-2.62-43.16-18.32c-15.75-15.7-37.46-17.76-37.46-17.76"/>
<path class="st4" d="M83.04,283.72c0,0-27.41-2.62-43.16-18.32c-15.75-15.7-37.46-17.76-37.46-17.76"/>
<g>
	<path class="st15" d="M388.63,226.37L388.63,226.37c0,0-0.04,0.23-0.1,0.65C388.59,226.61,388.63,226.37,388.63,226.37z"/>
</g>
<path class="st4" d="M171.07,567.73l-9.73-185.56c0,0-4.05-25.16-13.87-47.33c-16.56-40.34-49.65-120.86-55.14-134.26"/>
<path class="st4" d="M312.45,567.73l9.73-185.56c0,0,4.04-25.16,13.86-47.33c16.57-40.34,49.65-120.86,55.14-134.26"/>
<path class="st16" d="M136.28,609.18c14.53,11.95,35.52,31.32,104.39,31.32c68.87,0,89.86-19.37,104.39-31.32
	c11.45-9.43,21.79-13.48,27.49-15.11c2.14-0.61,2.88-3.27,1.33-4.87c-2.17-2.24-5.03-4.7-8.76-7.06c-7-4.44-10.54-8.63-37.83-11.19
	c-5.98-0.56-13.12-1.04-21.66-1.43c-15.54-0.71-38.26-0.88-64.97-0.88c-26.72,0-49.43,0.18-64.98,0.88
	c-8.54,0.39-15.68,0.86-21.65,1.43c-27.29,2.55-30.83,6.75-37.83,11.19c-3.73,2.36-6.6,4.83-8.77,7.07
	c-1.55,1.6-0.82,4.27,1.33,4.87C114.42,595.68,124.68,599.64,136.28,609.18z"/>
<g id="FBodyLogos"></g>
<path class="BottomHem fill" d="M245.82,643.72c-22.89,0-44.64-2.3-47.27-2.59c-24.67-1.1-61.03-29.53-62.57-30.74l-0.4-0.35
	c-4.32-4.14-19.48-11.73-28.03-15.55l-1.52-2.25l0.94-10.18l5.03,2.25c2.41,1.08,23.61,10.66,30.92,17.44
	c9.94,7.78,38.83,27.59,56.26,28.27l0.39,0.03c0.56,0.06,56.19,6.14,83.05-0.76l0.78-0.14c0.23-0.03,24.33-2.86,47.43-21.29
	c2.47-2.45,21.7-21.1,38.16-23.95l5.41-0.94l1.85,10.97l-5.42,0.93c-11.49,1.98-27.34,15.9-32.48,21.09l-0.47,0.42
	c-24.35,19.53-49.27,23.31-52.93,23.77C274.21,642.86,259.8,643.72,245.82,643.72 M375.11,579.69l-10.34-9.28
	c-10.33-9.28-53.75-10.82-53.75-10.82H170.29c0,0-43.41,1.55-53.75,10.82l-10.34,9.28l-1.38,13.38c0,0,16.37-15.96,22.57-16.99
	c3.08-0.51,14.05-3.72,24.33-4.75c10.42-1.04,20.12-1.95,20.12-1.95h137.64c0,0,9.69,0.91,20.12,1.95
	c10.27,1.03,21.25,4.23,24.33,4.75c6.2,1.03,22.57,16.99,22.57,16.99L375.11,579.69z"/>
<path class="st4" d="M377.18,587.83c-2.2-2.95-5.99-7.09-12.06-10.92c-7-4.44-10.54-8.63-37.83-11.19
	c-5.98-0.56-13.12-1.04-21.66-1.43c-15.54-0.71-38.26-0.89-64.97-0.89c-26.72,0-49.44,0.18-64.98,0.89
	c-8.54,0.38-15.68,0.86-21.65,1.43c-27.29,2.56-30.83,6.75-37.83,11.19c-6.07,3.84-9.87,7.98-12.06,10.92"/>
<path class="st4" d="M377.18,584.34c-2.2-2.95-5.99-7.09-12.06-10.92c-7-4.44-10.54-8.63-37.83-11.19
	c-5.98-0.56-13.12-1.04-21.66-1.43c-15.54-0.71-38.26-0.89-64.97-0.89c-26.72,0-49.44,0.18-64.98,0.89
	c-8.54,0.38-15.68,0.86-21.65,1.43c-27.29,2.56-30.83,6.75-37.83,11.19c-6.07,3.84-9.87,7.98-12.06,10.92"/>
<polygon class="Colour3 fill" points="306.11,60.46 397.17,95.22 295.29,70.9 "/>
<polygon class="Colour3 fill" points="175.02,60.46 83.95,95.22 185.84,70.9 "/>
</svg>
