<?xml version="1.0" encoding="utf-8"?>
<!-- Generator: Adobe Illustrator 19.1.0, SVG Export Plug-In . SVG Version: 6.00 Build 0)  -->
<svg version="1.1" id="Layer_1" xmlns="http://www.w3.org/2000/svg" xmlns:xlink="http://www.w3.org/1999/xlink" x="0px" y="0px"
	 viewBox="0 0 483.01 645.44" style="enable-background:new 0 0 483.01 645.44;" xml:space="preserve">
<style type="text/css">
	<![CDATA[
	@font-face{font-family:'codaheavy';src:url('/fonts/coda-heavy-webfont.woff') format('woff')}
	text{font-family:Impact,codaheavy,sans-serif}
	.Number.fill{fill:#000}
	.NumberOutline.stroke{fill:none;stroke:#777;stroke-width:2.5}
	.Colour1.fill{fill:#C0773C;stroke:#000000;stroke-width:2;stroke-miterlimit:10;}
	.Colour2.fill{fill:#353F1C;stroke:#000000;stroke-width:0.25;stroke-miterlimit:10;}
	.ArmTrim.fill{fill:#353F1C;}
	.NeckTrim.fill{fill:#353F1C;}
	.BottomHem.fill{fill:#353F1C;stroke:#221915;stroke-width:0.8861;stroke-miterlimit:10;}
	.st0{fill:none;stroke:#0A0505;stroke-width:0.328;stroke-miterlimit:10;}
	.st1{stroke:#221915;stroke-width:0.8861;stroke-miterlimit:10;}
	.st2{fill:#FFFFFF;}
	.st3{fill:none;stroke:#221915;stroke-width:0.506;stroke-miterlimit:10;}
	.st4{fill:none;stroke:#221915;stroke-width:0.6559;stroke-miterlimit:10;}
	.st5{fill:none;stroke:#000000;stroke-width:0.4411;}
	.st6{fill:none;stroke:#0A0505;stroke-width:0.2801;}
	.st7{fill:none;stroke:#FFFFFF;stroke-width:0.216;stroke-dasharray:2.4,2.4,2.4,2.4;}
	.st8{fill:none;stroke:#FFFFFF;stroke-width:0.328;}
	]]>
</style>
<path class="Colour1 fill" d="M386.19,197.13c-0.17-95.12,18.6-129.22,21.79-134.32c-4.59-1.79-9.71-3.46-15.44-4.89
	c-33.07-8.23-82.65-28.8-92.19-36l-57.76-6.79h-3.7l-57.76,6.79c-9.54,7.2-59.12,27.77-92.19,36c-5.09,1.27-9.71,2.73-13.9,4.29
	c1.4,2.05,22.35,34.45,22.17,134.91l-3.98,27.41c0,0,21.14,131.65,16.9,197.47c-3.99,61.88-4.22,154.65-4.24,165.55
	c-0.92,1.01,0.82,1.97,0.18,2.82c0,0,12.02,1.62,29.63,16.07c14.54,11.92,35.55,31.25,104.47,31.25
	c68.91,0,89.93-19.33,104.46-31.25c17.62-14.46,32.59-16.24,32.16-16.07c-0.41-0.54-0.89-1.14-1.41-1.75h0.19
	c0,0,0-100.79-4.24-166.61c-4.24-65.83,16.9-197.47,16.9-197.47L386.19,197.13z"/>
<path class="Colour1 fill" d="M467.61,169c-1.06-12.34-9.61-58.62-27.62-86.39c0,0-9.54-11.53-32.03-20.11c0.02,0.2,0.03,0.31,0.03,0.31
	c-3.19,5.1-21.96,39.2-21.79,134.32l2.06,27.41c0,0,0.12,0.98,0.34,2.76c0.28-1.78,0.43-2.76,0.43-2.76l11.56,62.74
	c0,0,27.43-2.62,43.19-18.28c15.76-15.66,37.48-17.72,37.48-17.72S468.67,181.34,467.61,169z"/>
<path class="Colour1 fill" d="M82.45,287.28l10.98-59.55c-0.11-2.05-0.18-3.19-0.18-3.19l3.98-27.41C97.39,99.34,77.55,66.05,75.21,62.45
	c-22.59,8.59-32.16,20.16-32.16,20.16C25.03,110.38,16.48,156.66,15.42,169c-1.06,12.34-13.65,82.28-13.65,82.28
	s21.72,2.06,37.49,17.72C55.02,284.66,82.45,287.28,82.45,287.28z"/>
<path class="st0" d="M467.36,169c-1.06-12.34-9.61-58.62-27.62-86.39c0,0-13.61-16.46-46.67-24.69c-33.07-8.23-82.65-28.8-92.19-36
	l-57.76-6.79h-3.7l-57.76,6.79c-9.54,7.2-59.12,27.77-92.19,36C56.4,66.15,42.8,82.61,42.8,82.61
	C24.78,110.38,16.24,156.66,15.17,169c-1.06,12.34-13.65,82.28-13.65,82.28s21.72,2.06,37.49,17.72
	c15.76,15.66,43.19,18.28,43.19,18.28l11.56-62.74c0,0,21.14,131.65,16.9,197.47c-3.99,61.88-4.22,154.65-4.24,165.55
	c-0.92,1.01,0.82,1.97,0.18,2.82c0,0,12.02,1.62,29.63,16.07c14.54,11.92,35.55,31.25,104.47,31.25
	c68.91,0,89.93-19.33,104.46-31.25c17.62-14.46,32.59-16.24,32.16-16.07c-0.41-0.54-0.89-1.14-1.41-1.75h0.19
	c0,0,0-100.79-4.24-166.61c-4.24-65.83,16.9-197.47,16.9-197.47l11.56,62.74c0,0,27.43-2.62,43.19-18.28
	c15.76-15.66,37.48-17.72,37.48-17.72S468.43,181.34,467.36,169z"/>
<path class="st1" d="M387.39,231.3l-1.1-12.37l0.43-21.8c-0.17-95.12,18.6-129.22,21.79-134.32c-4.59-1.79-9.71-3.46-15.44-4.89
	c-33.07-8.23-82.65-28.8-92.19-36l-57.76-6.79h-3.7l-57.76,6.79c-9.54,7.2-59.12,27.77-92.19,36c-5.09,1.27-9.71,2.73-13.9,4.29
	c1.4,2.05,22.35,34.45,22.17,134.91l-2.89,34.48v0c4.28,28.18,19.45,133.7,15.8,190.4c-3.99,61.88-4.22,154.65-4.24,165.55
	c-0.92,1.01,0.82,1.97,0.18,2.82c0,0,12.02,1.62,29.63,16.07c14.54,11.92,35.55,31.25,104.47,31.25
	c68.91,0,89.93-19.33,104.46-31.25c17.62-14.46,32.59-16.24,32.16-16.07c-0.41-0.54-0.89-1.14-1.41-1.75h0.19
	c0,0,0-100.79-4.24-166.61c-3.59-55.78,11.04-158.81,15.59-188.96L387.39,231.3z"/>
<polygon class="st1" points="3.47,242.86 84.01,280.8 81.99,288.26 1.5,261.32 "/>
<polygon class="ArmTrim fill" points="3.47,242.86 84.01,280.8 81.99,288.26 1.5,261.32 "/>
<polygon class="ArmTrim fill" points="479.54,242.82 398.88,280.82 400.9,288.3 481.5,261.31 "/>
<path class="NeckTrim fill" d="M289.59,10.88c-37.07-9.43-66.95-9.03-105.27,1.33l4.87,11.98c14.41-5.38,31.83-6.54,49.35-6.55
	c16.58,0,33.25,0.88,47.57,5.27L289.59,10.88z"/>
<path class="NeckTrim fill" d="M178.48,13.95l18.96-5.3l1.01,12.94l-25.99,6.21C172.46,27.79,176.11,22.2,178.48,13.95"/>
<path class="st4" d="M178.48,13.95l18.96-5.3l1.01,12.94l-25.99,6.21C172.46,27.79,176.11,22.2,178.48,13.95z"/>
<path class="NeckTrim fill" d="M301.62,13.95l-20.67-5.3l-1.01,12.94l29.4,6.21C309.34,27.79,303.99,22.2,301.62,13.95"/>
<path class="st4" d="M301.62,13.95l-20.67-5.3l-1.01,12.94l29.4,6.21C309.34,27.79,303.99,22.2,301.62,13.95z"/>
<path class="st5" d="M75.5,62.11c0,0,22.43,31.09,22.25,135.02"/>
<path class="st5" d="M408.97,62.11c0,0-22.43,31.09-22.25,135.02"/>
<path class="Colour1 fill" d="M385.94,197.13c-0.17-95.12,18.6-129.22,21.79-134.32c-4.59-1.79-9.71-3.46-15.44-4.89
	c-33.07-8.23-82.65-28.8-92.19-36l-57.76-6.79h-3.7l-57.76,6.79c-9.54,7.2-59.12,27.77-92.19,36c-5.09,1.27-9.71,2.73-13.9,4.29
	c1.4,2.05,22.35,34.45,22.17,134.91L93,224.54c0,0,21.14,131.65,16.9,197.47c-3.99,61.88-4.22,154.65-4.24,165.55
	c-0.92,1.01,0.82,1.97,0.18,2.82c0,0,12.02,1.62,29.63,16.07c14.54,11.92,35.55,31.25,104.47,31.25
	c68.91,0,89.93-19.33,104.46-31.25c17.62-14.46,32.59-16.24,32.16-16.07c-0.41-0.54-0.89-1.14-1.41-1.75h0.19
	c0,0,0-100.79-4.24-166.61c-4.24-65.83,16.9-197.47,16.9-197.47L385.94,197.13z"/>
<path class="Colour1 fill" d="M246.79,643.72c-23.04,0-44.92-2.33-47.58-2.63c-24.82-1.12-61.42-29.97-62.97-31.2l-0.4-0.35
	c-4.35-4.2-19.61-11.91-28.2-15.79l-0.07-2.28l-0.52-10.33l5.06,2.28c2.43,1.09,23.76,10.82,31.12,17.7
	c10,7.9,39.08,28.01,56.62,28.69l0.4,0.03c0.56,0.06,56.55,6.23,83.58-0.77l0.79-0.14c0.23-0.03,24.48-2.9,47.74-21.61
	c2.48-2.48,21.83-21.42,38.4-24.31l5.45-0.95l0.61,11.13l-4.2,0.95c-11.56,2.01-27.51,16.14-32.69,21.41l-0.47,0.43
	c-24.51,19.83-49.59,23.66-53.27,24.13C275.36,642.85,260.86,643.72,246.79,643.72"/>
<path class="NeckTrim fill" d="M177.49,16.34l0.75-4.66c3.34-1.24,65.32-21.76,123.79,0l0.75,4.66C243.39-5.77,178.09,16.11,177.49,16.34
	"/>
<path class="st6" d="M177.49,16.34l0.75-4.66c3.34-1.24,65.32-21.76,123.79,0l0.75,4.66C243.39-5.77,178.09,16.11,177.49,16.34z"/>
<path class="st7" d="M84.56,284.81c0,0-27.9-2.66-43.95-18.6c-16.04-15.94-38.14-18.03-38.14-18.03"/>
<path class="st7" d="M84.56,283.03c0,0-27.9-2.66-43.95-18.6C24.57,248.5,2.47,246.41,2.47,246.41"/>
<path class="st7" d="M398.94,282.32c0,0,27.9-2.66,43.95-18.6c16.04-15.94,38.14-18.03,38.14-18.03"/>
<path class="st7" d="M398.94,280.55c0,0,27.9-2.66,43.95-18.6c16.04-15.94,38.14-18.03,38.14-18.03"/>
<path class="Colour2 fill" d="M108.58,356.61h263.84c-0.23,3.16-0.44,6.31-0.63,9.43H109.21C109.02,362.91,108.81,359.77,108.58,356.61z
	 M374.18,498.09H106.82c-0.08,3.17-0.15,6.32-0.22,9.43h267.79C374.33,504.41,374.25,501.26,374.18,498.09z M374.85,532.28h-268.7
	c-0.06,4.07-0.12,8.01-0.16,11.79h269.03C374.96,540.29,374.91,536.35,374.85,532.28z M107.86,347.17h265.27
	c0.19-2.36,0.39-4.72,0.59-7.07H107.27C107.47,342.46,107.67,344.82,107.86,347.17z M104.51,311.8h271.98
	c0.26-2.38,0.51-4.74,0.78-7.07H103.73C103.99,307.07,104.25,309.42,104.51,311.8z M374.56,515.78H106.44
	c-0.06,3.2-0.12,6.34-0.17,9.43h268.47C374.68,522.12,374.62,518.97,374.56,515.78z M106.3,329.49h268.39
	c0.23-2.37,0.46-4.73,0.69-7.07H105.61C105.85,324.76,106.08,327.12,106.3,329.49z M373.7,480.4H107.3
	c-0.09,3.15-0.18,6.3-0.27,9.43h266.93C373.88,486.7,373.79,483.55,373.7,480.4z M110.33,391.98c0.07,3.21,0.12,6.36,0.12,9.43
	h260.09c0.01-3.07,0.05-6.22,0.12-9.43H110.33z M371.43,427.35H109.57c-0.18,3.08-0.36,6.23-0.52,9.43h262.91
	C371.79,433.58,371.61,430.43,371.43,427.35z M370.93,419.09c-0.16-3.02-0.26-6.18-0.32-9.43H110.39c-0.06,3.26-0.17,6.41-0.32,9.43
	H370.93z M109.67,374.29c0.16,3.18,0.3,6.33,0.42,9.43h260.83c0.11-3.1,0.25-6.25,0.42-9.43H109.67z M372.36,445.03H108.64
	c-0.14,3.11-0.28,6.26-0.41,9.43h264.55C372.64,451.29,372.51,448.14,372.36,445.03z M373.1,462.72H107.9
	c-0.12,3.13-0.23,6.28-0.33,9.43h265.87C373.33,469,373.22,465.85,373.1,462.72z M131.07,603.02c1.43,1.06,2.89,2.18,4.41,3.42
	c3.09,2.54,6.49,5.41,10.57,8.37h187.79c4.08-2.95,7.48-5.83,10.57-8.37c1.52-1.24,3-2.36,4.47-3.42H131.07z M235.11,22.94h-51.34
	h-4.36c-2.02,1.3-4.97,2.91-8.62,4.72h24.91h114.51c-3.66-1.81-6.6-3.41-8.62-4.72H238.4H235.11z M340.11,40.62H140.89
	c-4.04,1.59-8.2,3.17-12.42,4.72h224.07C348.32,43.79,344.15,42.21,340.11,40.62z M86.71,93.68c0.38,1.51,0.76,3.08,1.14,4.72
	h307.22c0.38-1.63,0.76-3.21,1.14-4.72H86.71z M385.94,197.13c-0.07-37.37,2.8-65.29,6.48-85.77H90.5
	c3.69,20.47,6.54,48.41,6.48,85.77l-1.24,8.56h290.85L385.94,197.13z M75.32,63.02H407.6c0.04-0.07,0.09-0.15,0.13-0.21
	c-4.19-1.63-8.86-3.16-13.99-4.5H87.25c-4.51,1.18-8.66,2.5-12.44,3.91C74.9,62.35,75.07,62.62,75.32,63.02z M316.32,624.94
	c3.05-1.37,5.82-2.79,8.36-4.23H155.2c2.33,1.32,4.85,2.62,7.6,3.88c20.86,2.16,46.64,4.05,78.47,5.3
	C271.38,628.71,296.07,626.96,316.32,624.94z M399.98,80.71c0.57-1.7,1.12-3.27,1.66-4.72H81.29c0.54,1.45,1.09,3.01,1.66,4.72
	H399.98z M95.5,241.06h290c0.39-2.64,0.74-5.01,1.05-7.07H94.45C94.76,236.05,95.11,238.41,95.5,241.06z M100.34,276.43h280.33
	c0.31-2.42,0.61-4.77,0.92-7.07H99.42C99.72,271.66,100.03,274.01,100.34,276.43z M375.08,549.97H105.92
	c-0.05,4.19-0.09,8.14-0.12,11.79h269.4C375.17,558.1,375.13,554.16,375.08,549.97z M375.25,567.65h-269.5
	c-0.03,4.6-0.06,8.58-0.07,11.79h269.63C375.3,576.23,375.28,572.26,375.25,567.65z M376.56,590.38c-0.41-0.54-0.89-1.14-1.41-1.75
	h0.19c0,0,0-1.16-0.01-3.28H105.66c0,0.93,0,1.68,0,2.22c-0.92,1.01,0.82,1.97,0.18,2.82c0,0,6.27,0.87,16.35,6.75h236
	C369.14,591.18,376.87,590.26,376.56,590.38z M98,258.74h285c0.34-2.46,0.66-4.83,0.98-7.07H97.02
	C97.33,253.92,97.66,256.29,98,258.74z M102.51,294.12h275.97c0.28-2.39,0.57-4.75,0.85-7.07H101.66
	C101.95,289.36,102.23,291.73,102.51,294.12z M94.19,216.3l-1.03,7.07h294.75l-0.53-7.07H94.19z"/>
<g id="BBodyLogos"></g>
<path class="BottomHem fill" d="M246.79,643.72c-23.04,0-44.92-2.33-47.58-2.63c-24.82-1.12-61.42-29.97-62.97-31.2l-0.4-0.35
	c-4.35-4.2-19.61-11.91-28.2-15.79l-0.07-2.28l-0.52-10.33l5.06,2.28c2.43,1.09,23.76,10.82,31.12,17.7
	c10,7.9,39.08,28.01,56.62,28.69l0.4,0.03c0.56,0.06,56.55,6.23,83.58-0.77l0.79-0.14c0.23-0.03,24.48-2.9,47.74-21.61
	c2.48-2.48,21.83-21.42,38.4-24.31l5.45-0.95l0.61,11.13l-4.2,0.95c-11.56,2.01-27.51,16.14-32.69,21.41l-0.47,0.43
	c-24.51,19.83-49.59,23.66-53.27,24.13C275.36,642.85,260.86,643.72,246.79,643.72z"/>
<path class="st8" d="M89.28,95.02c0,0,124.22-32.47,305.43,0"/>
<path class="st7" d="M89.28,98.57c0,0,124.22-32.47,305.43,0"/>
<path class="st7" d="M89.28,100.35c0,0,124.22-32.47,305.43,0"/>
</svg>
