<?xml version="1.0" encoding="utf-8"?>
<!-- Generator: Adobe Illustrator 19.1.0, SVG Export Plug-In . SVG Version: 6.00 Build 0)  -->
<svg version="1.1" id="Layer_1" xmlns="http://www.w3.org/2000/svg" xmlns:xlink="http://www.w3.org/1999/xlink" x="0px" y="0px"
	 viewBox="0 0 483.01 645.44" style="enable-background:new 0 0 483.01 645.44;" xml:space="preserve">
<style type="text/css">
	<![CDATA[
	@font-face{font-family:'codaheavy';src:url('/fonts/coda-heavy-webfont.woff') format('woff')}
	text{font-family:Impact,codaheavy,sans-serif}
	.Number.fill{fill:#000}
	.NumberOutline.stroke{fill:none;stroke:#777;stroke-width:2.5}
	.Colour1.fill{fill:#FFFFFF;}
	.Colour2.fill{fill:#000000;}
	.NeckTrim.fill{fill:#FFFFFF;}
	.ArmTrim.fill{fill:#060606;}
	.BottomHem.fill{fill:#060606;stroke:#101010;stroke-width:0.8861;stroke-miterlimit:10;}
	.st0{fill:none;stroke:#000000;stroke-width:2;stroke-linecap:round;stroke-linejoin:round;}
	.st1{fill:none;stroke:#0A0505;stroke-width:0.328;stroke-miterlimit:10;}
	.st2{fill:none;stroke:#000000;stroke-width:0.4411;}
	.st3{stroke:#221915;stroke-width:0.8861;stroke-miterlimit:10;}
	.st4{fill:#9C2321;stroke:#221915;stroke-width:0.934;stroke-miterlimit:10;}
	.st5{fill:none;stroke:#060606;stroke-width:2;stroke-linecap:round;stroke-linejoin:round;}
	.st6{fill:none;stroke:#221915;stroke-width:0.6559;stroke-miterlimit:10;}
	.st7{fill:#C0773C;stroke:#000000;stroke-width:2;stroke-miterlimit:10;}
	.st8{fill:none;stroke:#FFFFFF;stroke-width:0.216;stroke-dasharray:2.4,2.4,2.4,2.4;}
	.st9{fill:#101010;stroke:#FFFFFF;stroke-width:0.216;stroke-dasharray:2.4,2.4,2.4,2.4;}
	.st10{fill:none;stroke:#000000;stroke-width:0.328;}
	.st11{fill:none;stroke:#000000;stroke-width:0.216;stroke-dasharray:2.4,2.4,2.4,2.4;}
	.st12{fill:none;stroke:#221915;stroke-width:0.506;stroke-miterlimit:10;}
	.white{fill:#ffffff;}
	.neckline{fill:none;stroke:#000000;stroke-width:0.6559;stroke-miterlimit:10;}
	]]>
</style>
<path class="Colour1 fill" d="M386.19,197.13c-0.17-95.12,18.6-129.22,21.79-134.32c-4.59-1.79-9.71-3.46-15.44-4.89
	c-33.07-8.23-82.65-28.8-92.19-36l-57.76-6.79h-3.7l-57.76,6.79c-9.54,7.2-59.12,27.77-92.19,36c-5.09,1.27-9.71,2.73-13.9,4.29
	c1.4,2.05,22.35,34.45,22.17,134.91l-3.98,27.41c0,0,21.14,131.65,16.9,197.47c-3.99,61.88-4.22,154.65-4.24,165.55
	c-0.92,1.01,0.82,1.97,0.18,2.82c0,0,12.02,1.62,29.63,16.07c14.54,11.92,35.55,31.25,104.47,31.25
	c68.91,0,89.93-19.33,104.46-31.25c17.62-14.46,32.59-16.24,32.16-16.07c-0.41-0.54-0.89-1.14-1.41-1.75h0.19
	c0,0,0-100.79-4.24-166.61c-4.24-65.83,16.9-197.47,16.9-197.47L386.19,197.13z"/>
<path class="Colour1 fill" d="M467.61,169c-1.06-12.34-9.61-58.62-27.62-86.39c0,0-9.54-11.53-32.03-20.11c0.02,0.2,0.03,0.31,0.03,0.31
	c-3.19,5.1-21.96,39.2-21.79,134.32l2.06,27.41c0,0,0.12,0.98,0.34,2.76c0.28-1.78,0.43-2.76,0.43-2.76l11.56,62.74
	c0,0,27.43-2.62,43.19-18.28c15.77-15.66,37.48-17.72,37.48-17.72S468.67,181.34,467.61,169z"/>
<path class="Colour1 fill" d="M82.45,287.28l10.98-59.55c-0.11-2.05-0.18-3.19-0.18-3.19l3.98-27.41C97.39,99.34,77.55,66.05,75.21,62.45
	c-22.59,8.59-32.16,20.16-32.16,20.16C25.03,110.38,16.48,156.66,15.42,169c-1.06,12.34-13.65,82.28-13.65,82.28
	s21.72,2.06,37.49,17.72C55.02,284.66,82.45,287.28,82.45,287.28z"/>
<g>
	<path class="st0" d="M78.02,67.62c-0.03-0.07-0.06-0.13-0.1-0.2"/>
	<path class="st0" d="M77.34,66.24c-0.03-0.07-0.07-0.13-0.1-0.2"/>
	<path class="st0" d="M87.81,97.18c-0.03-0.14-0.07-0.28-0.1-0.42"/>
	<path class="st0" d="M78.38,68.39c-0.03-0.07-0.06-0.13-0.09-0.2"/>
	<path class="st0" d="M76.21,64.13c-0.03-0.06-0.07-0.12-0.1-0.18"/>
	<path class="st0" d="M78.76,69.21c-0.03-0.07-0.06-0.13-0.09-0.2"/>
	<path class="st0" d="M76.46,64.57c-0.03-0.06-0.06-0.11-0.09-0.17"/>
	<path class="st0" d="M75.98,63.72c-0.03-0.06-0.07-0.11-0.1-0.17"/>
	<path class="st0" d="M76.73,65.08c-0.03-0.06-0.06-0.12-0.09-0.17"/>
	<path class="st0" d="M77.03,65.64c-0.03-0.06-0.07-0.13-0.1-0.19"/>
	<path class="st0" d="M81.31,75.4c-0.02-0.05-0.04-0.1-0.06-0.15"/>
	<path class="st0" d="M86.76,92.91c-0.01-0.05-0.03-0.11-0.04-0.16"/>
	<path class="st0" d="M81.78,76.64c-0.01-0.03-0.03-0.07-0.04-0.1"/>
	<path class="st0" d="M87.29,95c-0.02-0.09-0.04-0.18-0.07-0.27"/>
	<path class="st0" d="M80.42,73.1c-0.03-0.07-0.05-0.13-0.08-0.19"/>
	<path class="st0" d="M80.86,74.22c-0.02-0.06-0.05-0.12-0.07-0.18"/>
	<path class="st0" d="M79.99,72.04c-0.03-0.07-0.05-0.13-0.08-0.2"/>
	<path class="st0" d="M79.57,71.05c-0.03-0.08-0.06-0.15-0.1-0.22"/>
	<path class="st0" d="M79.16,70.1c-0.03-0.07-0.06-0.14-0.09-0.21"/>
	<path class="st0" d="M77.67,66.9c-0.03-0.07-0.06-0.13-0.1-0.19"/>
	<path class="st0" d="M76.73,65.08c0.06,0.12,0.13,0.24,0.2,0.37"/>
	<path class="st0" d="M77.67,66.9c0.08,0.17,0.17,0.34,0.25,0.52"/>
	<path class="st0" d="M75.78,63.37c-0.03-0.06-0.07-0.11-0.1-0.17"/>
	<path class="st0" d="M77.03,65.64c0.07,0.13,0.14,0.27,0.21,0.41"/>
	<path class="st0" d="M77.34,66.24c0.08,0.15,0.15,0.3,0.23,0.46"/>
	<path class="st0" d="M79.16,70.1c0.1,0.23,0.21,0.48,0.31,0.72"/>
	<path class="st0" d="M79.57,71.05c0.11,0.26,0.22,0.52,0.34,0.8"/>
	<path class="st0" d="M78.76,69.21c0.1,0.22,0.2,0.45,0.3,0.68"/>
	<path class="st0" d="M78.38,68.39c0.09,0.2,0.19,0.41,0.29,0.63"/>
	<path class="st0" d="M78.02,67.62c0.09,0.18,0.18,0.37,0.27,0.57"/>
	<path class="st0" d="M75.44,62.82c-0.04-0.06-0.07-0.11-0.1-0.16"/>
	<path class="st0" d="M75.31,62.61c0.01,0.01,0.02,0.03,0.03,0.04"/>
	<path class="st0" d="M75.44,62.82c0.02,0.03,0.04,0.06,0.06,0.09"/>
	<path class="st0" d="M76.46,64.57c0.06,0.11,0.12,0.22,0.18,0.33"/>
	<path class="st0" d="M75.6,63.07c-0.03-0.06-0.07-0.11-0.1-0.17"/>
	<path class="st0" d="M75.6,63.07c0.03,0.04,0.05,0.09,0.08,0.13"/>
	<path class="st0" d="M76.21,64.13c0.05,0.09,0.1,0.18,0.15,0.28"/>
	<path class="st0" d="M75.98,63.72c0.04,0.07,0.09,0.15,0.13,0.23"/>
	<path class="st0" d="M75.78,63.37c0.04,0.06,0.07,0.12,0.11,0.18"/>
	<path class="st0" d="M92.1,119.5c-0.05-0.36-0.11-0.71-0.17-1.07"/>
	<path class="st0" d="M96.18,159.11c0.04,0.7,0.08,1.42,0.12,2.13"/>
	<path class="st0" d="M96.76,170.95c0.03,0.77,0.06,1.55,0.08,2.33"/>
	<path class="st0" d="M96.4,162.97c0.04,0.72,0.07,1.46,0.11,2.19"/>
	<path class="st0" d="M96.91,175.08c0.03,0.8,0.05,1.61,0.07,2.42"/>
	<path class="st0" d="M96.59,166.91c0.03,0.75,0.06,1.51,0.1,2.27"/>
	<path class="st0" d="M97.18,188.03c0.01,0.96,0.02,1.95,0.02,2.92"/>
	<path class="st0" d="M97.22,192.54c0.01,1.52,0.01,3.05,0.01,4.59"/>
	<path class="st0" d="M97.12,183.62c0.02,0.87,0.03,1.76,0.04,2.64"/>
	<path class="st0" d="M97.02,179.3c0.02,0.83,0.04,1.67,0.05,2.51"/>
	<path class="st0" d="M94.78,141.13c0.06,0.64,0.12,1.29,0.18,1.94"/>
	<path class="st0" d="M95.94,155.34c0.05,0.69,0.09,1.39,0.13,2.09"/>
	<path class="st0" d="M94.09,134.55c0.07,0.62,0.14,1.24,0.21,1.87"/>
	<path class="st0" d="M94.45,137.8c0.07,0.63,0.13,1.27,0.19,1.91"/>
	<path class="st0" d="M93.34,128.29c0.08,0.6,0.15,1.2,0.23,1.81"/>
	<path class="st0" d="M93.72,131.37c0.07,0.61,0.15,1.22,0.22,1.83"/>
	<path class="st0" d="M95.68,151.66c0.05,0.68,0.1,1.37,0.15,2.05"/>
	<path class="st0" d="M89.32,104c0.11,0.54,0.22,1.08,0.34,1.64"/>
	<path class="st0" d="M95.4,148.06c0.05,0.67,0.11,1.34,0.16,2.02"/>
	<path class="st0" d="M95.1,144.55c0.06,0.65,0.12,1.32,0.17,1.98"/>
	<path class="st0" d="M91.66,116.74c0.09,0.56,0.18,1.13,0.27,1.7"/>
	<path class="st0" d="M90.76,111.42c-0.05-0.3-0.11-0.59-0.16-0.88"/>
	<path class="st0" d="M91.66,116.74c-0.06-0.34-0.11-0.68-0.17-1.02"/>
	<path class="st0" d="M91.22,114.05c-0.06-0.32-0.11-0.65-0.17-0.97"/>
	<path class="st0" d="M79.99,72.04c0.12,0.28,0.24,0.57,0.35,0.87"/>
	<path class="st0" d="M89.32,104c-0.05-0.23-0.1-0.46-0.14-0.69"/>
	<path class="st0" d="M89.81,106.4c0.11,0.54,0.21,1.09,0.32,1.64"/>
	<path class="st0" d="M88.83,101.66c-0.04-0.2-0.09-0.41-0.13-0.61"/>
	<path class="st0" d="M92.53,122.35c-0.05-0.37-0.11-0.75-0.16-1.11"/>
	<path class="st0" d="M89.81,106.4c-0.05-0.25-0.1-0.51-0.15-0.76"/>
	<path class="st0" d="M90.29,108.87c-0.05-0.28-0.1-0.56-0.16-0.83"/>
	<path class="st0" d="M90.76,111.42c0.1,0.55,0.2,1.1,0.3,1.66"/>
	<path class="st0" d="M88.32,99.38c-0.04-0.17-0.08-0.34-0.11-0.5"/>
	<path class="st0" d="M91.22,114.05c0.09,0.55,0.19,1.11,0.28,1.67"/>
	<path class="st0" d="M90.29,108.87c0.1,0.55,0.21,1.1,0.31,1.66"/>
	<path class="st0" d="M92.94,125.29c-0.05-0.4-0.11-0.79-0.16-1.18"/>
	<path class="st0" d="M93.18,127.05c-0.08-0.59-0.16-1.18-0.24-1.77"/>
	<path class="st0" d="M92.53,122.35c0.08,0.58,0.17,1.16,0.25,1.75"/>
	<path class="st0" d="M92.1,119.5c0.09,0.57,0.18,1.15,0.26,1.73"/>
	<path class="st0" d="M94.45,137.8c-0.05-0.46-0.1-0.92-0.15-1.38"/>
	<path class="st0" d="M97.18,188.03c-0.01-0.59-0.02-1.17-0.03-1.76"/>
	<path class="st0" d="M388.25,224.54c0,0-21.14,131.65-16.9,197.47c4.24,65.82,4.24,166.61,4.24,166.61h-0.19
		c0.51,0.61,0.99,1.2,1.4,1.74"/>
	<path class="st0" d="M386.48,175.94c-0.2,6.7-0.3,13.76-0.29,21.19l2.06,27.41"/>
	<path class="st0" d="M75.31,62.61c-0.11-0.18-0.2-0.31-0.26-0.4c4.19-1.57,8.81-3.03,13.9-4.29c33.07-8.23,82.65-28.8,92.19-36
		l57.76-6.79h3.7l57.76,6.79c9.54,7.2,59.12,27.77,92.19,36c5.72,1.42,10.85,3.1,15.44,4.89"/>
	<path class="st0" d="M97.22,192.54c0-0.53-0.01-1.06-0.01-1.59"/>
	<path class="st0" d="M376.8,590.37c-0.53-0.03-15.1,2.09-32.15,16.08c-14.53,11.92-35.55,31.25-104.46,31.25
		c-68.92,0-89.93-19.33-104.47-31.25c-17.61-14.46-29.63-16.07-29.63-16.07c0.64-0.85-1.1-1.8-0.18-2.82
		c0.02-10.9,0.25-103.67,4.24-165.55c4.24-65.83-16.9-197.47-16.9-197.47"/>
	<path class="st0" d="M386.48,175.94c0.16-5.36,0.39-10.49,0.67-15.41"/>
	<path class="st0" d="M376.8,590.37C376.8,590.37,376.81,590.37,376.8,590.37C376.82,590.37,376.82,590.37,376.8,590.37"/>
	<path class="st0" d="M388.44,143.13c-0.2,2.19-0.39,4.42-0.57,6.72"/>
	<path class="st0" d="M89.18,103.31c-0.12-0.56-0.23-1.1-0.35-1.65"/>
	<path class="st0" d="M393.05,109.27c-0.3,1.59-0.59,3.22-0.88,4.91"/>
	<path class="st0" d="M397.74,88.84c-0.32,1.14-0.64,2.33-0.96,3.56"/>
	<path class="st0" d="M389.42,133.65c-0.35,3.05-0.68,6.21-0.98,9.48"/>
	<path class="st0" d="M392.17,114.18c-0.29,1.68-0.57,3.41-0.84,5.19"/>
	<path class="st0" d="M96.59,166.91c-0.03-0.59-0.06-1.17-0.08-1.75"/>
	<path class="st0" d="M95.1,144.55c-0.04-0.5-0.09-0.99-0.14-1.48"/>
	<path class="st0" d="M95.94,155.34c-0.04-0.55-0.08-1.09-0.11-1.63"/>
	<path class="st0" d="M95.68,151.66c-0.04-0.53-0.08-1.05-0.12-1.57"/>
	<path class="st0" d="M94.78,141.13c-0.05-0.48-0.09-0.95-0.14-1.43"/>
	<path class="st0" d="M93.18,127.05c0.05,0.41,0.11,0.82,0.16,1.24"/>
	<path class="st0" d="M97.12,183.62c-0.01-0.61-0.03-1.21-0.04-1.82"/>
	<path class="st0" d="M93.72,131.37c-0.05-0.43-0.1-0.85-0.16-1.28"/>
	<path class="st0" d="M94.09,134.55c-0.05-0.45-0.1-0.89-0.15-1.34"/>
	<path class="st0" d="M96.76,170.95c-0.02-0.59-0.05-1.18-0.07-1.77"/>
	<path class="st0" d="M96.91,175.08c-0.02-0.61-0.04-1.2-0.06-1.81"/>
	<path class="st0" d="M97.02,179.3c-0.01-0.6-0.03-1.2-0.05-1.79"/>
	<path class="st0" d="M96.4,162.97c-0.03-0.58-0.06-1.15-0.1-1.72"/>
	<path class="st0" d="M88.32,99.38c0.13,0.55,0.25,1.11,0.37,1.68"/>
	<path class="st0" d="M96.18,159.11c-0.03-0.56-0.07-1.12-0.1-1.68"/>
	<path class="st0" d="M95.4,148.06c-0.04-0.51-0.09-1.02-0.13-1.53"/>
	<path class="st0" d="M81.31,75.4c0.14,0.37,0.28,0.75,0.42,1.14"/>
	<path class="st0" d="M80.42,73.1c0.12,0.3,0.25,0.62,0.37,0.94"/>
	<path class="st0" d="M87.81,97.18c0.13,0.56,0.26,1.12,0.4,1.7"/>
	<path class="st0" d="M80.86,74.22c0.13,0.34,0.26,0.68,0.4,1.03"/>
	<path class="st0" d="M86.76,92.91c0.15,0.59,0.31,1.2,0.46,1.81"/>
	<path class="st0" d="M87.29,95c0.14,0.58,0.29,1.16,0.43,1.76"/>
	<path class="st0" d="M81.78,76.64c1.56,4.27,3.26,9.59,4.94,16.11"/>
	<path class="st0" d="M386.48,175.94c0.16-5.36,0.39-10.49,0.67-15.41"/>
	<path class="st0" d="M388.44,143.13c0.3-3.28,0.63-6.44,0.98-9.48"/>
	<path class="st0" d="M407.98,62.81c0,0-0.01-0.11-0.03-0.31c22.49,8.58,32.03,20.11,32.03,20.11
		c18.01,27.77,26.57,74.05,27.62,86.39c1.06,12.34,13.65,82.28,13.65,82.28s-21.72,2.06-37.48,17.72
		c-15.77,15.66-43.19,18.28-43.19,18.28l-11.56-62.74c0,0-0.16,0.97-0.43,2.76c-0.22-1.78-0.34-2.76-0.34-2.76"/>
	<path class="st0" d="M396.78,92.4c0.32-1.23,0.64-2.41,0.96-3.56"/>
	<path class="st0" d="M391.33,119.37c0.27-1.78,0.56-3.51,0.84-5.19"/>
	<path class="st0" d="M386.48,175.94c-0.2,6.7-0.3,13.76-0.29,21.19l2.06,27.41"/>
	<path class="st0" d="M387.86,149.85c0.18-2.29,0.37-4.53,0.57-6.72"/>
	<path class="st0" d="M392.17,114.18c0.29-1.68,0.58-3.32,0.88-4.91"/>
	<path class="st0" d="M396.78,92.4c-1.28,4.92-2.54,10.52-3.73,16.87"/>
	<path class="st0" d="M407.98,62.81c-1.39,2.23-5.77,10.01-10.24,26.03"/>
	<path class="st0" d="M387.15,160.53c0.21-3.68,0.45-7.24,0.72-10.68"/>
	<path class="st0" d="M391.33,119.37c-0.69,4.45-1.33,9.2-1.91,14.28"/>
	<path class="st0" d="M92.36,121.23c0.05,0.37,0.11,0.74,0.16,1.11"/>
	<path class="st0" d="M96.84,173.28c-0.03-0.78-0.05-1.56-0.08-2.33"/>
	<path class="st0" d="M92.78,124.1c0.05,0.39,0.11,0.79,0.16,1.18"/>
	<path class="st0" d="M89.18,103.31c0.05,0.23,0.1,0.46,0.14,0.69"/>
	<path class="st0" d="M97.2,190.95c0,0.53,0.01,1.05,0.01,1.59"/>
	<path class="st0" d="M97.08,181.81c0.01,0.61,0.03,1.21,0.04,1.82"/>
	<path class="st0" d="M79.07,69.89c0.03,0.07,0.06,0.14,0.09,0.21"/>
	<path class="st0" d="M97.16,186.27c0.01,0.59,0.02,1.17,0.03,1.76"/>
	<path class="st0" d="M95.83,153.71c-0.05-0.69-0.1-1.38-0.15-2.05"/>
	<path class="st0" d="M81.26,75.25c0.02,0.05,0.04,0.1,0.06,0.15"/>
	<path class="st0" d="M91.05,113.08c0.06,0.32,0.11,0.64,0.17,0.97"/>
	<path class="st0" d="M78.29,68.19c0.03,0.07,0.06,0.13,0.09,0.2"/>
	<path class="st0" d="M96.51,165.16c-0.04-0.73-0.07-1.47-0.11-2.19"/>
	<path class="st0" d="M91.5,115.72c0.06,0.34,0.11,0.68,0.17,1.02"/>
	<path class="st0" d="M96.69,169.18c-0.03-0.76-0.06-1.52-0.1-2.27"/>
	<path class="st0" d="M91.94,118.44c0.06,0.35,0.11,0.71,0.17,1.07"/>
	<path class="st0" d="M90.13,108.04c0.05,0.27,0.1,0.55,0.16,0.83"/>
	<path class="st0" d="M89.66,105.64c0.05,0.25,0.1,0.51,0.15,0.76"/>
	<path class="st0" d="M78.67,69.02c0.03,0.07,0.06,0.13,0.09,0.2"/>
	<path class="st0" d="M93.18,127.05c-0.08-0.59-0.16-1.18-0.24-1.77"/>
	<path class="st0" d="M90.6,110.53c0.05,0.29,0.11,0.59,0.16,0.88"/>
	<path class="st0" d="M96.3,161.24c-0.04-0.71-0.08-1.43-0.12-2.13"/>
	<path class="st0" d="M96.08,157.43c-0.04-0.7-0.09-1.4-0.13-2.09"/>
	<path class="st0" d="M81.74,76.53c0.01,0.03,0.03,0.07,0.04,0.1"/>
	<path class="st0" d="M94.97,143.08c0.05,0.49,0.09,0.98,0.14,1.48"/>
	<path class="st0" d="M93.94,133.21c-0.07-0.62-0.14-1.23-0.22-1.83"/>
	<path class="st0" d="M94.64,139.7c0.05,0.47,0.1,0.95,0.14,1.43"/>
	<path class="st0" d="M79.9,71.84c0.03,0.07,0.05,0.13,0.08,0.2"/>
	<path class="st0" d="M80.79,74.04c0.02,0.06,0.05,0.12,0.07,0.18"/>
	<path class="st0" d="M95.27,146.54c0.04,0.51,0.09,1.01,0.13,1.53"/>
	<path class="st0" d="M93.18,127.05c0.05,0.41,0.11,0.82,0.16,1.24"/>
	<path class="st0" d="M93.57,130.1c0.05,0.42,0.1,0.85,0.16,1.28"/>
	<path class="st0" d="M95.56,150.08c0.04,0.52,0.08,1.04,0.12,1.57"/>
	<path class="st0" d="M75.31,62.61c-0.04-0.06-0.07-0.11-0.1-0.16c-22.59,8.59-32.16,20.16-32.16,20.16
		C25.03,110.38,16.48,156.66,15.42,169c-1.06,12.34-13.65,82.28-13.65,82.28s21.72,2.06,37.49,17.72
		c15.76,15.66,43.19,18.28,43.19,18.28l10.98-59.55c-0.11-2.05-0.18-3.19-0.18-3.19"/>
	<path class="st0" d="M94.3,136.42c0.05,0.46,0.1,0.92,0.15,1.38"/>
	<path class="st0" d="M95.56,150.08c-0.05-0.68-0.1-1.35-0.16-2.02"/>
	<path class="st0" d="M93.57,130.1c-0.08-0.61-0.15-1.21-0.23-1.81"/>
	<path class="st0" d="M93.94,133.21c0.05,0.44,0.1,0.89,0.15,1.34"/>
	<path class="st0" d="M95.27,146.54c-0.06-0.66-0.11-1.33-0.17-1.98"/>
	<path class="st0" d="M96.51,165.16c0.03,0.58,0.06,1.16,0.08,1.75"/>
	<path class="st0" d="M96.84,173.28c0.02,0.6,0.04,1.2,0.06,1.81"/>
	<path class="st0" d="M96.69,169.18c0.02,0.59,0.05,1.17,0.07,1.77"/>
	<path class="st0" d="M80.34,72.91c0.03,0.07,0.05,0.13,0.08,0.19"/>
	<path class="st0" d="M94.3,136.42c-0.07-0.63-0.14-1.25-0.21-1.87"/>
	<path class="st0" d="M96.97,177.5c0.02,0.6,0.03,1.19,0.05,1.79"/>
	<path class="st0" d="M96.08,157.43c0.04,0.56,0.07,1.11,0.1,1.68"/>
	<path class="st0" d="M94.97,143.08c-0.06-0.65-0.12-1.3-0.18-1.94"/>
	<path class="st0" d="M95.83,153.71c0.04,0.54,0.08,1.08,0.11,1.63"/>
	<path class="st0" d="M94.64,139.7c-0.06-0.64-0.13-1.28-0.19-1.91"/>
	<path class="st0" d="M79.47,70.82c0.03,0.07,0.06,0.15,0.1,0.22"/>
	<path class="st0" d="M96.3,161.24c0.03,0.57,0.06,1.14,0.1,1.72"/>
	<path class="st0" d="M79.47,70.82c-0.11-0.25-0.21-0.49-0.31-0.72"/>
	<path class="st0" d="M79.07,69.89c-0.1-0.23-0.2-0.46-0.3-0.68"/>
	<path class="st0" d="M88.21,98.87c0.04,0.17,0.08,0.34,0.11,0.5"/>
	<path class="st0" d="M75.88,63.56c0.03,0.05,0.06,0.11,0.1,0.17"/>
	<path class="st0" d="M78.29,68.19c-0.09-0.19-0.18-0.38-0.27-0.57"/>
	<path class="st0" d="M80.79,74.04c-0.13-0.32-0.25-0.63-0.37-0.94"/>
	<path class="st0" d="M77.92,67.42c-0.09-0.18-0.17-0.35-0.25-0.52"/>
	<path class="st0" d="M78.67,69.02c-0.1-0.21-0.19-0.42-0.29-0.63"/>
	<path class="st0" d="M76.37,64.4c0.03,0.06,0.06,0.11,0.09,0.17"/>
	<path class="st0" d="M79.9,71.84c-0.11-0.27-0.22-0.54-0.34-0.8"/>
	<path class="st0" d="M80.34,72.91c-0.12-0.3-0.24-0.59-0.35-0.87"/>
	<path class="st0" d="M76.11,63.95c0.03,0.06,0.07,0.12,0.1,0.18"/>
	<path class="st0" d="M75.49,62.91c0.03,0.05,0.07,0.11,0.1,0.17"/>
	<path class="st0" d="M87.71,96.76c0.03,0.14,0.07,0.28,0.1,0.42"/>
	<path class="st0" d="M77.57,66.71c-0.08-0.16-0.16-0.31-0.23-0.46"/>
	<path class="st0" d="M75.31,62.61c0.01,0.01,0.02,0.03,0.03,0.04"/>
	<path class="st0" d="M75.68,63.21c0.03,0.05,0.07,0.11,0.1,0.17"/>
	<path class="st0" d="M89.18,103.31c-0.12-0.56-0.23-1.1-0.35-1.65"/>
	<path class="st0" d="M77.24,66.05c-0.07-0.14-0.14-0.28-0.21-0.41"/>
	<path class="st0" d="M88.7,101.05c0.04,0.2,0.09,0.41,0.13,0.61"/>
	<path class="st0" d="M75.49,62.91c-0.02-0.03-0.04-0.06-0.06-0.09"/>
	<path class="st0" d="M75.34,62.66c0.03,0.05,0.07,0.11,0.1,0.16"/>
	<path class="st0" d="M75.68,63.21c-0.03-0.05-0.05-0.09-0.08-0.13"/>
	<path class="st0" d="M76.64,64.9c-0.06-0.11-0.12-0.22-0.18-0.33"/>
	<path class="st0" d="M76.93,65.45c-0.07-0.13-0.13-0.25-0.2-0.37"/>
	<path class="st0" d="M76.37,64.4c-0.05-0.1-0.1-0.19-0.15-0.28"/>
	<path class="st0" d="M76.11,63.95c-0.05-0.08-0.09-0.15-0.13-0.23"/>
	<path class="st0" d="M75.88,63.56c-0.04-0.06-0.07-0.12-0.11-0.18"/>
	<path class="st0" d="M92.36,121.23c-0.09-0.58-0.17-1.16-0.26-1.73"/>
	<path class="st0" d="M97.16,186.27c-0.01-0.88-0.02-1.77-0.04-2.64"/>
	<path class="st0" d="M91.05,113.08c-0.1-0.56-0.2-1.11-0.3-1.66"/>
	<path class="st0" d="M90.6,110.53c-0.1-0.56-0.21-1.11-0.31-1.66"/>
	<path class="st0" d="M90.13,108.04c-0.11-0.55-0.21-1.1-0.32-1.64"/>
	<path class="st0" d="M81.26,75.25c-0.13-0.35-0.27-0.7-0.4-1.03"/>
	<path class="st0" d="M86.72,92.75c0.01,0.05,0.03,0.11,0.04,0.16"/>
	<path class="st0" d="M77.57,66.71c0.03,0.06,0.06,0.13,0.1,0.19"/>
	<path class="st0" d="M96.97,177.5c-0.02-0.81-0.04-1.62-0.07-2.42"/>
	<path class="st0" d="M91.5,115.72c-0.09-0.56-0.19-1.12-0.28-1.67"/>
	<path class="st0" d="M77.92,67.42c0.03,0.07,0.06,0.13,0.1,0.2"/>
	<path class="st0" d="M92.78,124.1c-0.08-0.59-0.17-1.17-0.25-1.75"/>
	<path class="st0" d="M97.08,181.81c-0.02-0.84-0.03-1.68-0.05-2.51"/>
	<path class="st0" d="M91.94,118.44c-0.09-0.57-0.18-1.14-0.27-1.7"/>
	<path class="st0" d="M97.2,190.95c-0.01-0.98-0.01-1.96-0.02-2.92"/>
	<path class="st0" d="M87.71,96.76c-0.14-0.6-0.28-1.18-0.43-1.76"/>
	<path class="st0" d="M87.22,94.72c-0.15-0.61-0.3-1.22-0.46-1.81"/>
	<path class="st0" d="M87.22,94.72c0.02,0.09,0.04,0.18,0.07,0.27"/>
	<path class="st0" d="M76.64,64.9c0.03,0.06,0.06,0.11,0.09,0.17"/>
	<path class="st0" d="M81.74,76.53c-0.14-0.39-0.28-0.77-0.42-1.14"/>
	<path class="st0" d="M89.66,105.64c-0.11-0.55-0.22-1.1-0.34-1.64"/>
	<path class="st0" d="M86.72,92.75c-1.68-6.52-3.38-11.84-4.94-16.11"/>
	<path class="st0" d="M76.93,65.45c0.03,0.06,0.06,0.12,0.1,0.19"/>
	<path class="st0" d="M97.22,197.13c0-1.55,0-3.08-0.01-4.59"/>
	<path class="st0" d="M77.24,66.05c0.03,0.07,0.07,0.13,0.1,0.2"/>
	<path class="st0" d="M88.7,101.05c-0.12-0.57-0.25-1.12-0.37-1.68"/>
	<path class="st0" d="M88.21,98.87c-0.13-0.57-0.26-1.14-0.4-1.7"/>
	<line class="st0" x1="93.24" y1="224.54" x2="97.22" y2="197.13"/>
</g>
<path class="st1" d="M467.36,169c-1.06-12.34-9.61-58.62-27.62-86.39c0,0-13.61-16.46-46.67-24.69c-33.07-8.23-82.65-28.8-92.19-36
	l-57.76-6.79h-3.7l-57.76,6.79c-9.54,7.2-59.12,27.77-92.19,36C56.4,66.15,42.8,82.61,42.8,82.61
	C24.78,110.38,16.24,156.66,15.17,169c-1.06,12.34-13.65,82.28-13.65,82.28s21.72,2.06,37.49,17.72
	c15.76,15.66,43.19,18.28,43.19,18.28l11.56-62.74c0,0,21.14,131.65,16.9,197.47c-3.99,61.88-4.22,154.65-4.24,165.55
	c-0.92,1.01,0.82,1.97,0.18,2.82c0,0,12.02,1.62,29.63,16.07c14.54,11.92,35.55,31.25,104.47,31.25
	c68.91,0,89.93-19.33,104.46-31.25c17.62-14.46,32.59-16.24,32.16-16.07c-0.41-0.54-0.89-1.14-1.41-1.75h0.19
	c0,0,0-100.79-4.24-166.61c-4.24-65.83,16.9-197.47,16.9-197.47l11.56,62.74c0,0,27.43-2.62,43.19-18.28
	c15.76-15.66,37.48-17.72,37.48-17.72S468.43,181.34,467.36,169z"/>
<path class="st2" d="M75.5,62.11c0,0,22.43,31.09,22.25,135.02"/>
<polygon class="st3" points="3.47,242.86 84.01,280.8 81.99,288.26 1.5,261.32 "/>
<polygon class="ArmTrim fill" points="3.47,242.86 84.01,280.8 81.99,288.26 1.5,261.32 "/>
<polygon class="st4" points="479.54,242.82 398.88,280.82 400.9,288.3 481.5,261.31 "/>
<polygon class="ArmTrim fill" points="479.54,242.82 398.88,280.82 400.9,288.3 481.5,261.31 "/>
<g>
	<polygon class="st5" points="1.5,261.31 81.99,288.26 84.01,280.8 3.47,242.85 	"/>
	<polygon class="st5" points="398.88,280.82 400.9,288.3 481.5,261.31 479.54,242.82 	"/>
</g>
<path class="NeckTrim fill" d="M178.48,13.95l18.96-5.3l1.01,12.94l-25.99,6.21C172.46,27.79,176.11,22.2,178.48,13.95"/>
<path class="st6" d="M178.48,13.95l18.96-5.3l1.01,12.94l-25.99,6.21C172.46,27.79,176.11,22.2,178.48,13.95z"/>
<path class="NeckTrim fill" d="M301.62,13.95l-20.67-5.3l-1.01,12.94l29.4,6.21C309.34,27.79,303.99,22.2,301.62,13.95"/>
<path class="st6" d="M301.62,13.95l-20.67-5.3l-1.01,12.94l29.4,6.21C309.34,27.79,303.99,22.2,301.62,13.95z"/>
<path class="st2" d="M408.97,62.11c0,0-22.43,31.09-22.25,135.02"/>
<path class="st7" d="M246.79,643.72c-23.04,0-44.92-2.33-47.58-2.63c-24.82-1.12-61.42-29.97-62.97-31.2l-0.4-0.35
	c-4.35-4.2-19.61-11.91-28.2-15.79l-0.07-2.28l-0.52-10.33l5.06,2.28c2.43,1.09,23.76,10.82,31.12,17.7
	c10,7.9,39.08,28.01,56.62,28.69l0.4,0.03c0.56,0.06,56.55,6.23,83.58-0.77l0.79-0.14c0.23-0.03,24.48-2.9,47.74-21.61
	c2.48-2.48,21.83-21.42,38.4-24.31l5.45-0.95l0.61,11.13l-4.2,0.95c-11.56,2.01-27.52,16.14-32.69,21.41l-0.47,0.43
	c-24.51,19.83-49.59,23.66-53.27,24.13C275.36,642.85,260.86,643.72,246.79,643.72"/>
<path class="st8" d="M84.56,284.81c0,0-27.9-2.66-43.95-18.6c-16.04-15.94-38.14-18.03-38.14-18.03"/>
<path class="st8" d="M84.56,283.03c0,0-27.9-2.66-43.95-18.6C24.57,248.5,2.47,246.41,2.47,246.41"/>
<path class="st8" d="M398.94,282.32c0,0,27.9-2.66,43.95-18.6c16.04-15.94,38.14-18.03,38.14-18.03"/>
<path class="st9" d="M398.94,280.55c0,0,27.9-2.66,43.95-18.6c16.04-15.94,38.14-18.03,38.14-18.03"/>
<path class="st10" d="M89.28,95.02c0,0,124.22-32.47,305.43,0"/>
<path class="st8" d="M89.28,98.57c0,0,124.22-32.47,305.43,0"/>
<path class="st11" d="M89.28,100.35c0,0,124.22-32.47,305.43,0"/>
<path class="NeckTrim fill" d="M289.59,10.88c-37.07-9.43-66.95-9.03-105.27,1.33l4.87,11.98c14.41-5.38,31.83-6.54,49.35-6.55
	c16.58,0,33.25,0.88,47.57,5.27L289.59,10.88z"/>
<path class="st12" d="M289.59,10.88c-37.07-9.43-66.95-9.03-105.27,1.33l4.87,11.98c14.41-5.38,31.83-6.54,49.35-6.55
	c16.58,0,33.25,0.88,47.57,5.27L289.59,10.88z"/>
<path class="NeckTrim fill" d="M177.49,16.34l0.75-4.66c3.34-1.24,65.32-21.76,123.79,0l0.75,4.66C243.39-5.77,178.09,16.11,177.49,16.34
	"/>
<path class="neckline" d="M177.49,15.95c0.6-0.22,65.9-22.11,125.29,0l-0.75-4.66c-58.46-21.76-120.45-1.24-123.79,0L177.49,15.95z"/>
<path class="BottomHem fill" d="M246.79,643.72c-23.04,0-44.92-2.33-47.58-2.63c-24.82-1.12-61.42-29.97-62.97-31.2l-0.4-0.35
	c-4.35-4.2-19.61-11.91-28.2-15.79l-0.07-2.28l-0.52-10.33l5.06,2.28c2.43,1.09,23.76,10.82,31.12,17.7
	c10,7.9,39.08,28.01,56.62,28.69l0.4,0.03c0.56,0.06,56.55,6.23,83.58-0.77l0.79-0.14c0.23-0.03,24.48-2.9,47.74-21.61
	c2.48-2.48,21.83-21.42,38.4-24.31l5.45-0.95l0.61,11.13l-4.2,0.95c-11.56,2.01-27.52,16.14-32.69,21.41l-0.47,0.43
	c-24.51,19.83-49.59,23.66-53.27,24.13C275.36,642.85,260.86,643.72,246.79,643.72z"/>
<g id="BBodyLogos"></g>
</svg>
