<?xml version="1.0" encoding="utf-8"?>
<!-- Generator: Adobe Illustrator 19.1.0, SVG Export Plug-In . SVG Version: 6.00 Build 0)  -->
<svg version="1.1" id="Layer_1" xmlns="http://www.w3.org/2000/svg" xmlns:xlink="http://www.w3.org/1999/xlink" x="0px" y="0px"
	 viewBox="0 0 483.01 645.44" style="enable-background:new 0 0 483.01 645.44;" xml:space="preserve">
<style type="text/css">
	<![CDATA[
	@font-face{font-family:'codaheavy';src:url('/fonts/coda-heavy-webfont.woff') format('woff')}
	text{font-family:Impact,codaheavy,sans-serif}
	.Colour1.fill{fill:#060606;}
	.Colour2.fill{fill:#FFFFFF;}
	.Insert.fill{fill:#FFFFFF;}
	.ArmTrim.fill{fill:#060606;}
	.NeckTrim.fill{fill:#FFFFFF;}
	.BottomHem.fill{fill:#060606;stroke:#101010;stroke-width:0.8861;stroke-miterlimit:10;}
	.st0{fill:none;stroke:#000000;stroke-width:3;stroke-linecap:round;stroke-linejoin:round;}
	.st1{fill:#9C2321;stroke:#000000;stroke-width:2;stroke-miterlimit:10;}
	.st2{fill:none;stroke:#221915;stroke-width:0.216;stroke-linecap:round;stroke-linejoin:round;}
	.st3{fill:none;stroke:#0A0505;stroke-width:0.6559;stroke-miterlimit:10;}
	.st4{fill:none;stroke:#FFFFFF;stroke-width:0.328;}
	.st5{fill:none;stroke:#FFFFFF;stroke-width:0.216;stroke-dasharray:2.4,2.4,2.4,2.4;}
	.st6{fill:none;stroke:#101010;stroke-width:0.216;stroke-dasharray:2.4,2.4,2.4,2.4;}
	.st7{fill:#FFFFFF;}
	.st8{fill:none;stroke:#221915;stroke-width:0.233;stroke-miterlimit:10;}
	.st9{fill:none;stroke:#221915;stroke-width:0.36;stroke-miterlimit:10;}
	.st10{fill:#222457;}
	.st11{fill:#101010;}
	.st12{fill:none;stroke:#0A0505;stroke-width:0.233;stroke-miterlimit:10;}
	.st13{fill:none;}
	.st14{fill:#9E802E;}
	.st15{fill:none;stroke:#000000;stroke-width:0.28;stroke-linecap:round;stroke-linejoin:round;}
	.st16{fill:none;stroke:#000000;stroke-width:0.4411;}
	.st17{fill:none;stroke:#060606;stroke-width:2;stroke-linecap:round;stroke-linejoin:round;}
	.white{fill:#ffffff;}
	]]>
</style>
<path class="Colour2 fill" d="M468.35,170.71c-1.06-12.37-9.65-58.76-27.75-86.6c0,0-13.66-16.49-46.87-24.74
	c-33.21-8.25-83.01-28.87-92.58-36.08l-58.01-7h-3.71l-58.01,7c-9.58,7.22-59.37,27.83-92.58,36.08
	c-33.21,8.25-46.88,24.74-46.88,24.74c-18.09,27.83-26.68,74.23-27.75,86.6C13.15,183.08,0.5,253.18,0.5,253.18
	s21.81,2.06,37.65,17.76c15.84,15.7,43.38,18.32,43.38,18.32l11.61-62.89c0,0,21.23,131.96,16.98,197.94
	c-4.26,65.98-4.26,167-4.26,167h133.57h3.71h133.57c0,0,0-101.03-4.26-167c-4.25-65.98,16.98-197.94,16.98-197.94l11.61,62.89
	c0,0,27.54-2.62,43.38-18.32c15.83-15.7,37.64-17.76,37.64-17.76S469.42,183.08,468.35,170.71"/>
<path class="Colour1 fill" d="M468.35,170.71c-1.06-12.37-9.65-58.76-27.75-86.6c0,0-8.46-10.2-28.23-18.57
	c-2.13,3.23-22.33,36.39-22.16,135.07l-0.94,26.74c0.1-0.63,0.15-0.96,0.15-0.96l11.61,62.89c0,0,27.54-2.62,43.38-18.32
	c15.83-15.7,37.64-17.76,37.64-17.76S469.42,183.08,468.35,170.71z"/>
<path class="Colour2 fill" d="M389.71,177.4h79.41c3.07,21.43,12.87,75.78,12.87,75.78s-21.81,2.06-37.65,17.76
	c-15.84,15.7-43.38,18.32-43.38,18.32l-11.61-62.89l0.38,2.08l0.01-2.76l-0.4-25.08C389.34,192.42,389.46,184.7,389.71,177.4z"/>
<path class="Colour1 fill" d="M390.14,167.1l48.18,108.85c-15.92,11.26-37.36,13.31-37.36,13.31l-11.61-62.89l0.38,2.08l0.01-2.76
	l-0.4-25.08C389.33,188.46,389.62,177.32,390.14,167.1z"/>
<path class="Colour2 fill" d="M412.22,65.78c-2.81,4.39-22.17,38.2-22,134.83l-0.94,26.74c0-0.02,0-0.03,0.01-0.04
	c-1.86,11.77-20.88,134.24-16.83,197.01c4.26,65.98,4.26,167,4.26,167H243.14h-3.71H105.86c0,0,0-101.03,4.26-167
	c4.25-65.98-16.98-197.94-16.98-197.94l-0.38,2.08l-0.01-2.76l0.4-25.08C93.32,97.59,71.3,65.98,70.81,65.28
	c5.22-2.18,11.21-4.22,18.03-5.91c33.21-8.25,83.01-28.87,92.58-36.08l58.01-7h3.71l58.01,7c9.57,7.22,59.37,27.83,92.58,36.08
	c7.08,1.76,13.27,3.9,18.63,6.17L412.22,65.78z"/>
<path class="Colour2 fill" d="M389.43,226.37L389.43,226.37c0,0-0.04,0.23-0.1,0.65C389.39,226.61,389.43,226.37,389.43,226.37z"/>
<path class="Colour1 fill" d="M92,161.01c0,0,21.25-86.59,97.59-95.22c0,0-14.87-9.12-15.61-36.94c0,0-82.21,34.31-103.19,36.41
	c0,0,22.53,31.16,22.34,135.34l-0.4,25.08"/>
<path class="Colour1 fill" d="M390.62,161.01c0,0-21.25-86.59-97.59-95.22c0,0,14.87-9.12,15.61-36.94c0,0,82.21,34.31,103.19,36.41
	c0,0-22.53,31.16-22.34,135.34l0.4,25.08"/>
<path class="Colour1 fill" d="M70.81,65.28c0.49,0.7,22.51,32.31,22.33,135.32l-0.4,25.08l0.01,2.76l0.38-2.08l-11.61,62.89
	c0,0-27.54-2.62-43.38-18.32C22.32,255.24,0.5,253.18,0.5,253.18s12.64-70.1,13.71-82.47c1.07-12.37,9.65-58.76,27.75-86.6
	c0,0,8.59-10.35,28.67-18.75L70.81,65.28z"/>
<g>
	<path class="st0" d="M403.63,85.69c-0.09,0.28-0.18,0.55-0.27,0.84"/>
	<path class="st0" d="M404.11,84.23c-0.09,0.26-0.17,0.52-0.26,0.79"/>
	<path class="st0" d="M405.06,81.43c-0.09,0.25-0.17,0.49-0.26,0.75"/>
	<path class="st0" d="M404.59,82.81c-0.09,0.25-0.17,0.5-0.26,0.76"/>
	<path class="st0" d="M406.46,77.66c-0.09,0.24-0.19,0.48-0.28,0.72"/>
	<path class="st0" d="M406.91,76.51c-0.1,0.24-0.19,0.47-0.29,0.72"/>
	<path class="st0" d="M399.7,99.92c-0.09,0.36-0.17,0.71-0.25,1.07"/>
	<path class="st0" d="M406,78.86c-0.09,0.24-0.18,0.47-0.27,0.72"/>
	<path class="st0" d="M400.19,97.9c-0.09,0.35-0.17,0.69-0.26,1.04"/>
	<path class="st0" d="M400.68,95.96c-0.09,0.33-0.17,0.67-0.26,1.01"/>
	<path class="st0" d="M407.42,75.27c-0.12,0.28-0.24,0.57-0.36,0.87"/>
	<path class="st0" d="M401.17,94.1c-0.09,0.32-0.17,0.64-0.26,0.96"/>
	<path class="st0" d="M403.14,87.25c-0.09,0.28-0.17,0.56-0.26,0.85"/>
	<path class="st0" d="M401.66,92.3c-0.08,0.3-0.17,0.61-0.25,0.92"/>
	<path class="st0" d="M402.65,88.88c-0.09,0.29-0.17,0.57-0.26,0.86"/>
	<path class="st0" d="M402.15,90.56c-0.08,0.29-0.17,0.59-0.25,0.89"/>
	<path class="st0" d="M405.52,80.15c-0.08,0.23-0.17,0.46-0.25,0.7"/>
	<path class="st0" d="M411.45,66.9c-0.04,0.07-0.08,0.14-0.12,0.21"/>
	<path class="st0" d="M411.22,67.31c-0.04,0.07-0.08,0.15-0.13,0.23"/>
	<path class="st0" d="M410.96,67.76c-0.04,0.08-0.09,0.17-0.14,0.25"/>
	<path class="st0" d="M411.66,66.54c-0.04,0.06-0.07,0.13-0.11,0.19"/>
	<path class="st0" d="M412.01,65.96c-0.03,0.04-0.05,0.09-0.08,0.13"/>
	<path class="st0" d="M411.85,66.23c-0.03,0.05-0.06,0.11-0.1,0.16"/>
	<path class="st0" d="M410.69,68.27c-0.05,0.09-0.1,0.19-0.15,0.29"/>
	<path class="st0" d="M410.4,68.82c-0.05,0.1-0.1,0.2-0.16,0.31"/>
	<path class="st0" d="M408.69,72.35c-0.08,0.18-0.17,0.38-0.26,0.57"/>
	<path class="st0" d="M409.06,71.54c-0.07,0.14-0.14,0.3-0.21,0.45"/>
	<path class="st0" d="M408.3,73.21c-0.08,0.19-0.17,0.39-0.25,0.58"/>
	<path class="st0" d="M409.42,70.78c-0.06,0.13-0.13,0.28-0.2,0.42"/>
	<path class="st0" d="M410.09,69.42c-0.05,0.11-0.11,0.22-0.17,0.33"/>
	<path class="st0" d="M407.9,74.14c-0.11,0.26-0.22,0.52-0.34,0.79"/>
	<path class="st0" d="M409.76,70.07c-0.06,0.12-0.12,0.25-0.18,0.38"/>
	<path class="st0" d="M390.58,174.8c-0.03,0.72-0.05,1.45-0.08,2.18"/>
	<path class="st0" d="M391.14,163.11c-0.04,0.67-0.08,1.35-0.11,2.03"/>
	<path class="st0" d="M391.37,159.39c-0.04,0.64-0.08,1.29-0.12,1.94"/>
	<path class="st0" d="M390.93,166.91c-0.04,0.69-0.07,1.38-0.1,2.08"/>
	<path class="st0" d="M392.18,148.74c-0.05,0.59-0.1,1.19-0.15,1.79"/>
	<path class="st0" d="M390.74,170.82c-0.03,0.69-0.06,1.4-0.09,2.1"/>
	<path class="st0" d="M391.62,155.76c-0.05,0.62-0.09,1.24-0.13,1.87"/>
	<path class="st0" d="M391.89,152.21c-0.05,0.6-0.09,1.22-0.14,1.83"/>
	<path class="st0" d="M390.17,191.63c-0.01,0.98-0.02,1.97-0.02,2.96"/>
	<path class="st0" d="M389.32,226.46c0.01-0.05,0.01-0.09,0.01-0.09"/>
	<path class="st0" d="M390.13,196.07c-0.01,1.49-0.01,3-0.01,4.53"/>
	<path class="st0" d="M389.34,226.37l11.61,62.89c0,0,27.54-2.62,43.38-18.32c15.83-15.7,37.64-17.76,37.64-17.76
		s-12.64-70.1-13.71-82.47c-1.06-12.37-9.65-58.76-27.75-86.6c0,0-8.46-10.2-28.23-18.57c-0.06,0.08-0.13,0.19-0.2,0.32
		c0.02-0.02,0.03-0.05,0.05-0.08l0.15-0.24c-5.36-2.27-11.55-4.41-18.63-6.17c-33.21-8.25-83.01-28.87-92.58-36.08l-58.01-7h-3.71
		l-58.01,7c-9.58,7.22-59.37,27.83-92.58,36.08c-6.82,1.69-12.8,3.74-18.03,5.91c0.49,0.7,22.51,32.31,22.33,135.32l-0.4,25.08
		l0.01,2.76l0,0.01l-0.01-2.76l0.4-25.08C93.23,97.59,71.21,65.98,70.72,65.28l-0.18,0.07c-20.09,8.4-28.67,18.75-28.67,18.75
		c-18.09,27.83-26.68,74.23-27.75,86.6c-1.06,12.37-13.71,82.47-13.71,82.47s21.81,2.06,37.65,17.76
		c15.84,15.7,43.38,18.32,43.38,18.32l11.23-60.82l0,0.01l0.38-2.08c0,0,21.23,131.96,16.98,197.94c-4.26,65.98-4.26,167-4.26,167
		h133.57h3.71h133.57c0,0,0-101.03-4.26-167c-4.05-62.76,14.97-185.22,16.83-197.01c0.05-0.32,0.09-0.56,0.11-0.72
		C389.33,226.45,389.34,226.37,389.34,226.37L389.34,226.37"/>
	<path class="st0" d="M390.43,178.88c-0.02,0.74-0.04,1.49-0.06,2.24"/>
	<path class="st0" d="M390.32,183.04c-0.02,0.8-0.03,1.61-0.05,2.42"/>
	<path class="st0" d="M390.23,187.28c-0.02,0.89-0.03,1.79-0.04,2.69"/>
	<path class="st0" d="M392.49,145.36c-0.05,0.58-0.11,1.16-0.16,1.74"/>
	<path class="st0" d="M396.84,113.47c-0.08,0.43-0.16,0.86-0.23,1.29"/>
	<path class="st0" d="M397.3,111.03c-0.08,0.41-0.16,0.83-0.24,1.25"/>
	<path class="st0" d="M399.21,101.99c-0.08,0.37-0.17,0.74-0.25,1.11"/>
	<path class="st0" d="M396.39,115.97c-0.08,0.44-0.15,0.89-0.23,1.33"/>
	<path class="st0" d="M398.25,106.37c-0.08,0.39-0.16,0.78-0.25,1.17"/>
	<path class="st0" d="M398.73,104.14c-0.08,0.38-0.17,0.76-0.25,1.15"/>
	<path class="st0" d="M397.77,108.66c-0.08,0.4-0.16,0.81-0.24,1.22"/>
	<path class="st0" d="M395.95,118.56c-0.08,0.45-0.15,0.91-0.23,1.37"/>
	<path class="st0" d="M394.68,126.79c-0.07,0.49-0.14,0.99-0.21,1.48"/>
	<path class="st0" d="M393.89,132.66c-0.07,0.52-0.13,1.04-0.19,1.56"/>
	<path class="st0" d="M393.52,135.71c-0.06,0.53-0.13,1.08-0.19,1.62"/>
	<path class="st0" d="M395.51,121.23c-0.07,0.47-0.15,0.94-0.22,1.41"/>
	<path class="st0" d="M393.16,138.85c-0.06,0.55-0.12,1.1-0.18,1.65"/>
	<path class="st0" d="M395.09,123.97c-0.07,0.48-0.14,0.96-0.21,1.45"/>
	<path class="st0" d="M392.82,142.06c-0.06,0.56-0.11,1.13-0.17,1.7"/>
	<path class="st0" d="M394.28,129.69c-0.07,0.5-0.13,1-0.2,1.51"/>
</g>
<path class="Colour2 fill" d="M93.14,200.6l-0.4,25.08l0.01,2.76l0.38-2.08l-11.61,62.89c0,0-27.54-2.62-43.38-18.32
	C22.32,255.24,0.5,253.18,0.5,253.18s9.8-54.35,12.87-75.78h79.41C93.03,184.7,93.15,192.42,93.14,200.6z"/>
<path class="Colour1 fill" d="M92.35,167.1L44.17,275.95c15.92,11.26,37.36,13.31,37.36,13.31l11.61-62.89l-0.38,2.08l-0.01-2.76
	l0.4-25.08C93.16,188.46,92.87,177.32,92.35,167.1z"/>
<polygon class="st1" points="2.48,242.89 81.85,279.29 79.82,286.79 0.5,261.45 "/>
<path class="st2" d="M321.69,62.03"/>
<path class="st2" d="M317.55,58.05"/>
<path class="st2" d="M309.45,62.32"/>
<path class="Colour2 fill" d="M135.81,609.18c14.6,11.95,35.7,31.32,104.92,31.32c69.21,0,90.32-19.37,104.92-31.32
	c11.83-9.69,22.48-13.7,28.1-15.24c1.95-0.53,2.59-2.93,1.21-4.39c-2.22-2.33-5.2-4.93-9.14-7.4c-7.04-4.44-10.59-8.63-38.02-11.19
	c-6.01-0.56-13.18-1.04-21.77-1.43c-15.62-0.71-38.46-0.88-65.3-0.88c-26.85,0-49.68,0.18-65.3,0.88
	c-8.58,0.39-15.76,0.86-21.76,1.43c-27.43,2.55-30.99,6.75-38.02,11.19c-3.94,2.48-6.93,5.09-9.15,7.42
	c-1.39,1.46-0.74,3.87,1.21,4.39C113.27,595.46,123.83,599.37,135.81,609.18"/>
<path class="st3" d="M135.81,609.18c14.6,11.95,35.7,31.32,104.92,31.32c69.21,0,90.32-19.37,104.92-31.32
	c11.51-9.43,21.9-13.48,27.63-15.11c2.16-0.61,2.9-3.27,1.34-4.87c-2.18-2.24-5.06-4.7-8.8-7.06c-7.04-4.44-10.59-8.63-38.02-11.19
	c-6.01-0.56-13.18-1.04-21.77-1.43c-15.62-0.71-38.46-0.88-65.3-0.88c-26.85,0-49.68,0.18-65.3,0.88
	c-8.58,0.39-15.76,0.86-21.76,1.43c-27.43,2.55-30.99,6.75-38.02,11.19c-3.75,2.36-6.63,4.83-8.82,7.07
	c-1.56,1.6-0.82,4.27,1.34,4.87C113.84,595.68,124.15,599.64,135.81,609.18z"/>
<line class="st4" x1="185.62" y1="57.37" x2="81.18" y2="95.22"/>
<line class="st5" x1="180.22" y1="56.67" x2="81.18" y2="91.73"/>
<line class="st5" x1="181.21" y1="57.95" x2="81.18" y2="93.76"/>
<line class="st4" x1="297.95" y1="57.37" x2="402.39" y2="95.22"/>
<line class="st5" x1="303.35" y1="56.67" x2="402.39" y2="91.73"/>
<line class="st5" x1="303.35" y1="58.42" x2="402.39" y2="93.47"/>
<path class="st5" d="M312.87,567.73l9.78-185.56c0,0,4.06-25.16,13.93-47.33c16.65-40.34,49.9-120.86,55.42-134.26"/>
<path class="st5" d="M314.63,567.73l9.78-185.56c0,0,4.06-25.16,13.94-47.33c16.65-40.34,49.9-120.86,55.42-134.26"/>
<path class="st5" d="M170.77,567.73l-9.78-185.56c0,0-4.07-25.16-13.94-47.33c-16.65-40.34-49.9-120.86-55.42-134.26"/>
<path class="st5" d="M169.01,567.73l-9.78-185.56c0,0-4.07-25.16-13.93-47.33c-16.65-40.34-49.9-120.86-55.42-134.26"/>
<path class="st5" d="M377.92,587.83c-2.21-2.95-6.02-7.09-12.12-10.92c-7.04-4.44-10.59-8.63-38.02-11.19
	c-6.01-0.56-13.19-1.04-21.77-1.43c-15.62-0.71-38.46-0.89-65.3-0.89c-26.85,0-49.68,0.18-65.3,0.89
	c-8.58,0.38-15.76,0.86-21.76,1.43c-27.43,2.56-30.98,6.75-38.02,11.19c-6.1,3.84-9.92,7.98-12.12,10.92"/>
<path class="st5" d="M377.92,584.34c-2.21-2.95-6.02-7.09-12.12-10.92c-7.04-4.44-10.59-8.63-38.02-11.19
	c-6.01-0.56-13.19-1.04-21.77-1.43c-15.62-0.71-38.46-0.89-65.3-0.89c-26.85,0-49.68,0.18-65.3,0.89
	c-8.58,0.38-15.76,0.86-21.76,1.43c-27.43,2.56-30.98,6.75-38.02,11.19c-6.1,3.84-9.92,7.98-12.12,10.92"/>
<path class="st6" d="M74.32,65.26c0,0,22.53,31.16,22.34,135.34"/>
<path class="st6" d="M409.19,65.26c0,0-22.53,31.16-22.34,135.34"/>
<path class="st2" d="M278.09,56.76"/>
<path class="st2" d="M269.97,61.05"/>
<path class="st7" d="M180.44,38.05c20.57-22.33,97.03-26.13,121.52-1.7l-6.3-13.38c-22.02-7.01-37.71-11.63-53.4-11.66
	c-15.69-0.03-31.38,4.52-53.4,11.53L180.44,38.05z"/>
<path class="st8" d="M180.44,38.05c20.57-22.33,97.03-26.13,121.52-1.7l-6.3-13.38c-22.02-7.01-37.71-11.63-53.4-11.66
	c-15.69-0.03-31.38,4.52-53.4,11.53L180.44,38.05z"/>
<path class="white" d="M192.54,21.39c10.93-3.81,27.89-8.29,48.97-8.29c21.07,0,38.02,4.48,48.95,8.29c0.37,7.1-0.26,17.42-6.41,26.59
	c-3.21,4.78-5.79,7.47-12.6,12.68c-8.34,6.38-17.75,14.74-20.48,22.2c-6.3,0-12.6,0-18.91,0c-2.9-7.21-7.2-11.02-10.03-13.69
	c-3.75-3.53-4.84-4.11-12.02-10.09c-4.66-3.88-7.08-5.92-9.45-9.51c-2.39-3.61-3.38-6.72-4.73-11.1
	C194.58,34.46,193.15,28.66,192.54,21.39z"/>
<path class="st2" d="M265.93,57.16"/>
<path class="st2" d="M258.04,61.33"/>
<path class="NeckTrim fill" d="M285.1,7.64c-31.49-8-56.87-7.65-89.42,1.13l4.14,10.16c12.24-4.56,27.03-5.55,41.92-5.55
	c14.08,0,28.24,0.75,40.41,4.47L285.1,7.64z"/>
<path class="st9" d="M285.1,7.64c-31.49-8-56.87-7.65-89.42,1.13l4.14,10.16c12.24-4.56,27.03-5.55,41.92-5.55
	c14.08,0,28.24,0.75,40.41,4.47L285.1,7.64z"/>
<path class="NeckTrim fill" d="M190.72,10.24l16.11-4.49l2.57,10.97l-19.43,5.27C189.97,21.98,188.71,17.23,190.72,10.24"/>
<path class="st9" d="M190.72,10.24l16.11-4.49l2.57,10.97l-19.43,5.27C189.97,21.98,188.71,17.23,190.72,10.24z"/>
<path class="NeckTrim fill" d="M293.87,10.24l-16.1-4.49l-2.57,10.97l19.43,5.27C294.62,21.98,295.88,17.23,293.87,10.24"/>
<path class="st9" d="M293.87,10.24l-16.1-4.49l-2.57,10.97l19.43,5.27C294.62,21.98,295.88,17.23,293.87,10.24z"/>
<path class="st11" d="M176.47,27.67l-10.63,5.17c0,0-3.11,13.97,12.51,28.83l8.95-3.39C187.3,58.28,176.69,48.19,176.47,27.67"/>
<path class="st11" d="M308.7,27.67l8.92,5.17c0,0,2.41,13.97-13.21,28.83l-4.84-3.39C299.58,58.28,308.48,48.19,308.7,27.67"/>
<path class="NeckTrim fill" d="M294.72,11.62l14.68,17.24c0,0,1.2,25.32-15.61,36.94c-4.52,3.12-16.72,11.04-21.62,13.99
	c-13.32,8.01-18.67,9.71-18.67,9.71s0.17-10.37,3.87-12.57c0,0,26.21-22.15,28.32-25.13C287.79,48.81,295.95,26.25,294.72,11.62"/>
<path class="st12" d="M294.72,11.62l14.68,17.24c0,0,1.2,25.32-15.61,36.94c-4.52,3.12-16.72,11.04-21.62,13.99
	c-13.32,8.01-18.67,9.71-18.67,9.71s0.17-10.37,3.87-12.57c0,0,26.21-22.15,28.32-25.13C287.79,48.81,295.95,26.25,294.72,11.62z"/>
<path class="NeckTrim fill" d="M188.66,11.62l-14.68,17.24c0,0-1.2,25.32,15.61,36.94c4.52,3.12,16.72,11.04,21.62,13.99
	c13.32,8.01,18.67,9.71,18.67,9.71s-0.17-10.37-3.87-12.57c0,0-26.21-22.15-28.32-25.13C195.6,48.81,187.43,26.25,188.66,11.62"/>
<path class="st12" d="M188.66,11.62l-14.68,17.24c0,0-1.2,25.32,15.61,36.94c4.52,3.12,16.72,11.04,21.62,13.99
	c13.32,8.01,18.67,9.71,18.67,9.71s-0.17-10.37-3.87-12.57c0,0-26.21-22.15-28.32-25.13C195.6,48.81,187.43,26.25,188.66,11.62z"/>
<path class="Insert fill" d="M229.88,81.83h23.11l-3.6,8.64c0,0-5.9,2.08-14.8,0L229.88,81.83z"/>
<path class="st13" d="M230.46,81.28h23.11l-3.6,8.64c0,0-5.9,2.08-14.8,0L230.46,81.28z"/>
<path class="st5" d="M165.23,33.14c1.08,17.69,13.12,30.02,13.12,30.02c21.45,21.07,46.73,31.22,46.73,31.22s8.77,1.78,14.11,1.78
	h4.18c5.33,0,14.11-1.78,14.11-1.78s25.28-10.15,46.73-31.22c0,0,12.05-12.33,13.12-30.02"/>
<path class="st5" d="M169.55,30.94c-1.5,11.32,10.18,28.68,10.18,28.68c21.45,21.07,46.84,31.49,46.84,31.49s8.28,2.28,13.61,2.28
	h2.17c5.33,0,13.61-2.28,13.61-2.28s25.39-10.42,46.84-31.49c0,0,11.68-17.36,10.18-28.68"/>
<path class="st14" d="M253.5,89.49c0.02-0.06,1.79-3.95,3.82-9.14c1.21-3.09,8.42-8.94,15.39-14.6c3.56-2.89,7.25-5.88,10.67-8.91
	c16.32-14.4,14.68-36.71,12.81-44.03c-0.8-3.15-7.06-5.72-18.59-7.64l-0.68,2.98c6.72,1.12,13.46,3.1,14.76,4.32
	c0.52,3.84-1.93,32.37-11.5,40.81c-3.35,2.96-7,5.92-10.53,8.78c-9.4,7.63-15.24,12.5-16.83,16.56c-2.12,5.41-3.89,11.7-3.97,11.97
	L253.5,89.49z"/>
<path class="NeckTrim fill" d="M253.5,89.49c0.02-0.06,1.79-3.95,3.82-9.14c1.21-3.09,8.42-8.94,15.39-14.6
	c3.56-2.89,7.25-5.88,10.67-8.91c16.32-14.4,14.68-36.71,12.81-44.03c-0.8-3.15-7.06-5.72-18.59-7.64l-0.68,2.98
	c6.72,1.12,13.46,3.1,14.76,4.32c0.52,3.84-1.93,32.37-11.5,40.81c-3.35,2.96-7,5.92-10.53,8.78c-9.4,7.63-15.24,12.5-16.83,16.56
	c-2.12,5.41-3.89,11.7-3.97,11.97L253.5,89.49z"/>
<path class="NeckTrim fill" d="M230.54,89.49c-0.02-0.06-1.79-3.95-3.82-9.14c-1.21-3.09-8.42-8.94-15.4-14.6
	c-3.56-2.89-7.25-5.88-10.68-8.91c-7.55-6.66-12.71-44.44-12.81-44.03c0.8-3.15,7.06-5.72,18.59-7.64l0.68,2.98
	c-6.72,1.12-13.46,3.1-14.76,4.32c-0.52,3.84,1.93,32.37,11.5,40.81c3.35,2.96,7,5.92,10.53,8.78c9.4,7.63,15.24,12.5,16.83,16.56
	c2.12,5.41,3.89,11.7,3.97,11.97L230.54,89.49z"/>
<g>
	<path class="st15" d="M248.88,90.6l4.63-1.11c0.02-0.06,1.79-3.95,3.82-9.14c1.21-3.09,8.42-8.94,15.39-14.6
		c3.56-2.89,7.25-5.88,10.67-8.91c16.32-14.4,14.68-36.71,12.81-44.03c-0.8-3.15-7.06-5.72-18.59-7.64l-0.68,2.98
		c6.72,1.12,13.46,3.1,14.76,4.32c0.52,3.84-1.93,32.37-11.5,40.81c-3.35,2.96-7,5.92-10.53,8.78c-9.4,7.63-15.24,12.5-16.83,16.56
		C250.72,84.04,248.95,90.33,248.88,90.6z"/>
	<path class="st15" d="M187.84,12.82c0.11-0.42,5.26,37.36,12.81,44.03c3.43,3.02,7.11,6.01,10.68,8.91
		c6.97,5.66,14.18,11.51,15.4,14.6c2.03,5.18,3.8,9.07,3.82,9.14l4.63,1.11c-0.08-0.27-1.85-6.56-3.97-11.97
		c-1.59-4.06-7.43-8.94-16.83-16.56c-3.53-2.86-7.17-5.82-10.53-8.78c-9.57-8.44-12.02-36.97-11.5-40.81
		c1.3-1.22,8.04-3.2,14.76-4.32l-0.68-2.98C194.9,7.1,188.64,9.67,187.84,12.82z"/>
</g>
<path class="st16" d="M412.56,65.26c0,0-22.53,31.16-22.35,135.34l-0.94,26.74"/>
<path class="Colour2 fill" d="M389.43,226.37L389.43,226.37c0,0-0.04,0.23-0.1,0.65C389.39,226.61,389.43,226.37,389.43,226.37z"/>
<polygon class="ArmTrim fill" points="480.53,244.64 401.16,279.28 403.19,286.79 482.5,263.2 "/>
<polygon class="ArmTrim fill" points="2.48,242.89 81.85,279.29 79.82,286.79 0.5,261.45 "/>
<g>
	<polygon class="st17" points="401.16,279.28 403.19,286.79 482.5,263.2 480.53,244.64 	"/>
	<polygon class="st17" points="0.5,261.45 79.82,286.79 81.85,279.29 2.48,242.89 	"/>
</g>
<path class="st5" d="M400.15,284.89c0,0,27.54-2.62,43.38-18.32c15.83-15.7,37.65-17.76,37.65-17.76"/>
<path class="st5" d="M400.15,283.14c0,0,27.54-2.62,43.38-18.32c15.83-15.7,37.65-17.76,37.65-17.76"/>
<path class="st5" d="M82.3,285.47c0,0-27.54-2.62-43.38-18.32c-15.83-15.7-37.65-17.76-37.65-17.76"/>
<path class="st5" d="M82.3,283.72c0,0-27.54-2.62-43.38-18.32c-15.83-15.7-37.65-17.76-37.65-17.76"/>
<g>
	<path class="Colour2 fill" d="M389.43,226.37L389.43,226.37c0,0-0.04,0.23-0.1,0.65C389.39,226.61,389.43,226.37,389.43,226.37z"/>
</g>
<path class="BottomHem fill" d="M245.9,643.72c-23.01,0-44.86-2.3-47.51-2.59c-24.79-1.1-61.34-29.53-62.89-30.74l-0.4-0.35
	c-4.34-4.14-19.58-11.73-28.17-15.55l-1.53-2.25l0.94-10.18l5.05,2.25c2.43,1.08,23.73,10.66,31.07,17.44
	c9.99,7.78,39.02,27.59,56.54,28.27l0.39,0.03c0.56,0.06,56.48,6.14,83.46-0.76l0.78-0.14c0.24-0.03,24.45-2.86,47.67-21.29
	c2.48-2.45,21.8-21.1,38.35-23.95l5.44-0.94l1.86,10.97l-5.44,0.93c-11.55,1.98-27.48,15.9-32.64,21.09l-0.47,0.42
	c-24.47,19.53-49.52,23.31-53.2,23.77C274.43,642.86,259.95,643.72,245.9,643.72 M375.84,579.69l-10.39-9.28
	c-10.39-9.28-54.02-10.82-54.02-10.82H169.99c0,0-43.63,1.55-54.02,10.82l-10.39,9.28l-1.39,13.38c0,0,16.45-15.96,22.68-16.99
	c3.09-0.51,14.13-3.72,24.45-4.75c10.47-1.04,20.22-1.95,20.22-1.95h138.33c0,0,9.74,0.91,20.22,1.95
	c10.33,1.03,21.36,4.23,24.45,4.75c6.23,1.03,22.68,16.99,22.68,16.99L375.84,579.69z"/>
<g>
	<path class="Colour1 fill" d="M93.13,196.28c-0.01-2.92-0.04-5.78-0.09-8.58H11.8c-0.43,2.7-0.9,5.58-1.4,8.58H93.13z"/>
	<path class="Colour1 fill" d="M92.47,229.97l0.66-3.6l-0.38,2.08l-0.01-2.76l0.07-4.29H6.12c-0.51,2.96-1.02,5.84-1.5,8.58H92.47z"/>
	<path class="Colour1 fill" d="M390.82,196.28c0.01-2.92,0.04-5.78,0.09-8.58h81.24c0.43,2.7,0.9,5.58,1.4,8.58H390.82z"/>
	<path class="Colour1 fill" d="M391.47,229.97l-0.66-3.6l0.38,2.08l0.01-2.76l-0.07-4.29h86.69c0.51,2.96,1.02,5.84,1.5,8.58H391.47z"/>
</g>
<path class="Colour1 fill" d="M266.34,279.85l-27.36,22.58H103.43c-0.9-7.87-1.83-15.45-2.73-22.58H266.34z M92.78,177.35h297.79
	c0.15-4.38,0.34-8.62,0.56-12.69H92.22C92.44,168.74,92.63,172.97,92.78,177.35z M108.23,351.26h71.56l47.54-39.22H104.51
	C105.9,324.8,107.19,338.09,108.23,351.26z M96.09,245.96c0.92,6.35,1.99,14,3.13,22.58h180.83l27.36-22.58H96.09z M93.14,200.6
	l-0.07,4.44h263.95l15.39-12.69H93.1C93.13,195.05,93.14,197.79,93.14,200.6z M393.94,132.93c0.03-0.23,0.06-0.45,0.09-0.68v-12.02
	H89.14v10.61c0.09,0.69,0.18,1.38,0.27,2.09H393.94z M92.78,223.21l-0.04,2.47l0.01,2.76l0.38-2.08c0,0,0.56,3.47,1.47,9.53h225
	l15.39-12.69H92.78z M109.13,363.6c0.51,7.69,0.92,15.26,1.18,22.58h27.16l27.36-22.58H109.13z"/>
<g id="FBodyLogos"></g>
</svg>
