<?xml version="1.0" encoding="utf-8"?>
<!-- Generator: Adobe Illustrator 19.1.0, SVG Export Plug-In . SVG Version: 6.00 Build 0)  -->
<svg version="1.1" id="Layer_1" xmlns="http://www.w3.org/2000/svg" xmlns:xlink="http://www.w3.org/1999/xlink" x="0px" y="0px"
	 viewBox="0 0 483.01 645.44" style="enable-background:new 0 0 483.01 645.44;" xml:space="preserve">
<style type="text/css">
	<![CDATA[
	@font-face{font-family:'codaheavy';src:url('/fonts/coda-heavy-webfont.woff') format('woff')}
	text{font-family:Impact,codaheavy,sans-serif}
	.Number.fill{fill:#000}
	.NumberOutline.stroke{fill:none;stroke:#777;stroke-width:2.5}
	.Colour1.fill{fill:#464848;}
	.Colour2.fill{fill:#DBDEE3;}
	.Colour3.fill{fill:#2A2B2A;}
	.NeckTrim.fill{fill:#464848;}
	.ArmTrim.fill{fill:#464848;}
	.BottomHem.fill{fill:#DBDEE3;}
	.st0{fill:#1A2651;}
	.st1{fill:none;stroke:#0A0505;stroke-width:0.328;stroke-miterlimit:10;}
	.st2{fill:none;stroke:#221915;stroke-width:0.6559;stroke-miterlimit:10;}
	.st3{fill:none;stroke:#000000;stroke-width:2;stroke-linecap:round;stroke-linejoin:round;}
	.st4{fill:none;stroke:#000000;stroke-width:0.4411;}
	.st5{fill:#C0773C;stroke:#000000;stroke-width:2;stroke-miterlimit:10;}
	.st6{fill:none;stroke:#FFFFFF;stroke-width:0.216;stroke-dasharray:2.4,2.4,2.4,2.4;}
	.st7{fill:#101010;stroke:#FFFFFF;stroke-width:0.216;stroke-dasharray:2.4,2.4,2.4,2.4;}
	.st8{fill:#FFFFFF;}
	.st9{fill:none;stroke:#221915;stroke-width:0.506;stroke-miterlimit:10;}
	.st10{fill:none;stroke:#FFFFFF;stroke-width:0.328;}
	.neckline{fill:none;stroke:#000000;stroke-width:0.6559;}
	]]>
</style>
<path class="st0" d="M54.98,225.06L54.98,225.06c0,0-0.04,0.24-0.11,0.66C54.94,225.3,54.98,225.06,54.98,225.06z"/>
<path class="Colour1 fill" d="M467.83,169c1.06,12.34,13.66,82.28,13.66,82.28s-21.74,2.06-37.52,17.72
	c-15.78,15.66-43.24,18.28-43.24,18.28l-11.57-62.74c0,0-21.16,131.65-16.92,197.47c4.25,65.82,4.25,166.61,4.25,166.61h-0.19
	c0.52,0.62,1,1.21,1.41,1.75c0.43-0.16-14.55,1.62-32.19,16.07c-14.55,11.92-35.59,31.25-104.57,31.25
	c-68.99,0-90.03-19.33-104.58-31.25c-17.63-14.46-29.67-16.07-29.67-16.07c0.64-0.85-1.1-1.8-0.18-2.82
	c0.02-10.9,0.25-103.67,4.24-165.55c4.24-65.83-16.92-197.47-16.92-197.47l-11.58,62.74c0,0-27.46-2.62-43.24-18.28
	C23.25,253.34,1.5,251.28,1.5,251.28S14.1,181.34,15.17,169c1.06-12.34,9.62-58.62,27.65-86.39c0,0,13.62-16.46,46.72-24.69
	c33.11-8.23,82.74-28.8,92.28-36l57.82-6.79h3.7l57.82,6.79c9.55,7.2,59.18,27.77,92.28,36c33.1,8.23,46.72,24.69,46.72,24.69
	C458.2,110.38,466.77,156.66,467.83,169"/>
<path class="st1" d="M467.83,169c-1.06-12.34-9.62-58.62-27.65-86.39c0,0-13.62-16.46-46.72-24.69c-33.1-8.23-82.74-28.8-92.28-36
	l-57.82-6.79h-3.7l-57.82,6.79c-9.55,7.2-59.18,27.77-92.28,36c-33.1,8.23-46.72,24.69-46.72,24.69
	C24.79,110.38,16.23,156.66,15.17,169C14.1,181.34,1.5,251.28,1.5,251.28s21.74,2.06,37.53,17.72
	c15.78,15.66,43.24,18.28,43.24,18.28l11.58-62.74c0,0,21.16,131.65,16.92,197.47c-3.99,61.88-4.23,154.65-4.24,165.55
	c-0.92,1.01,0.82,1.97,0.18,2.82c0,0,12.03,1.62,29.67,16.07c14.55,11.92,35.59,31.25,104.58,31.25
	c68.99,0,90.03-19.33,104.57-31.25c17.64-14.46,32.62-16.24,32.19-16.07c-0.41-0.54-0.89-1.14-1.41-1.75h0.19
	c0,0,0-100.79-4.25-166.61c-4.24-65.83,16.92-197.47,16.92-197.47l11.57,62.74c0,0,27.46-2.62,43.24-18.28
	c15.78-15.66,37.52-17.72,37.52-17.72S468.89,181.34,467.83,169z"/>
<path class="NeckTrim fill" d="M178.64,13.95l18.98-5.3l1.01,12.94l-26.02,6.21C172.62,27.79,176.27,22.2,178.64,13.95"/>
<path class="st2" d="M178.64,13.95l18.98-5.3l1.01,12.94l-26.02,6.21C172.62,27.79,176.27,22.2,178.64,13.95z"/>
<path class="NeckTrim fill" d="M301.91,13.95l-20.69-5.3l-1.01,12.94l29.43,6.21C309.64,27.79,304.28,22.2,301.91,13.95"/>
<g>
	<path class="st3" d="M172.62,27.79l26.02-6.21l-1.01-12.94l-18.98,5.3C176.27,22.2,172.62,27.79,172.62,27.79z"/>
	<path class="st3" d="M280.21,21.58l29.43,6.21c0,0-5.36-5.6-7.73-13.84l-20.69-5.3L280.21,21.58z"/>
</g>
<path class="st2" d="M301.91,13.95l-20.69-5.3l-1.01,12.94l29.43,6.21C309.64,27.79,304.28,22.2,301.91,13.95z"/>
<path class="st4" d="M75.56,62.11c0,0,22.45,31.09,22.27,135.02"/>
<path class="st4" d="M409.37,62.11c0,0-22.46,31.09-22.27,135.02"/>
<path class="st5" d="M247.02,643.72c-23.06,0-44.97-2.33-47.63-2.63c-24.84-1.12-61.48-29.97-63.04-31.2l-0.4-0.35
	c-4.36-4.2-19.63-11.91-28.23-15.79l-0.07-2.28l-0.52-10.33l5.06,2.28c2.43,1.09,23.79,10.82,31.15,17.7
	c10.01,7.9,39.12,28.01,56.68,28.69l0.4,0.03c0.56,0.06,56.61,6.23,83.66-0.77l0.79-0.14c0.23-0.03,24.51-2.9,47.78-21.61
	c2.48-2.48,21.85-21.42,38.44-24.31l5.46-0.95l0.61,11.13l-4.21,0.95c-11.58,2.01-27.54,16.14-32.72,21.41l-0.47,0.43
	c-24.53,19.83-49.64,23.66-53.33,24.13C275.62,642.85,261.11,643.72,247.02,643.72"/>
<path class="st6" d="M84.62,284.81c0,0-27.93-2.66-43.99-18.6c-16.05-15.94-38.18-18.03-38.18-18.03"/>
<path class="st6" d="M84.62,283.03c0,0-27.93-2.66-43.99-18.6C24.57,248.5,2.45,246.41,2.45,246.41"/>
<path class="st6" d="M399.33,282.32c0,0,27.93-2.66,43.99-18.6c16.05-15.94,38.18-18.03,38.18-18.03"/>
<path class="st7" d="M399.33,280.55c0,0,27.93-2.66,43.99-18.6c16.05-15.94,38.18-18.03,38.18-18.03"/>
<path class="st6" d="M89.35,100.35c0,0,124.35-32.47,305.74,0"/>
<path class="NeckTrim fill" d="M289.86,10.88c-37.11-9.43-67.02-9.03-105.38,1.33l4.88,11.98c14.42-5.38,31.86-6.54,49.4-6.55
	c16.59,0,33.28,0.88,47.62,5.27L289.86,10.88z"/>
<path class="st9" d="M289.86,10.88c-37.11-9.43-67.02-9.03-105.38,1.33l4.88,11.98c14.42-5.38,31.86-6.54,49.4-6.55
	c16.59,0,33.28,0.88,47.62,5.27L289.86,10.88z"/>
<path class="NeckTrim fill" d="M177.65,16.34l0.75-4.66c3.34-1.24,65.39-21.76,123.92,0l0.75,4.66C243.61-5.77,178.25,16.11,177.65,16.34
	"/>
<path class="neckline" d="M177.65,16.34c0.6-0.22,65.97-22.11,125.42,0l-0.75-4.66c-58.53-21.76-120.57-1.24-123.92,0L177.65,16.34z"/>
<path class="Colour1 fill" d="M467.06,169.15c-1.08-12.56-9.79-59.65-28.14-87.9c0,0-8.58-10.36-28.63-18.85
	c-2.16,3.27-22.65,36.93-22.47,137.1l-0.96,27.14c0.1-0.64,0.16-0.98,0.16-0.98l11.77,63.83c0,0,27.93-2.66,43.99-18.6
	c16.05-15.94,38.18-18.03,38.18-18.03S468.13,181.71,467.06,169.15z"/>
<path class="ArmTrim fill" d="M480.96,252.86c0,0-0.39-2.18-1.05-5.84l-83.43,29.99l2.3,12.48c0,0,0.24-0.02,0.69-0.08
	c0,0,20.88-1.79,37.03-13.31c2.21-1.57,4.33-3.28,6.28-5.21C458.83,254.96,480.96,252.86,480.96,252.86z"/>
<path class="Colour1 fill" d="M396.48,277.01l83.43-29.99c-0.58-3.23-1.35-7.61-2.25-12.67l-83.51,30.02L396.48,277.01z"/>
<path class="Colour1 fill" d="M15.91,169.15c1.08-12.56,9.79-59.65,28.14-87.9c0,0,8.58-10.36,28.63-18.85
	c2.16,3.27,22.65,36.93,22.47,137.1l0.96,27.14c-0.1-0.64-0.16-0.98-0.16-0.98l-11.77,63.83c0,0-27.93-2.66-43.99-18.6
	c-16.05-15.94-38.18-18.03-38.18-18.03S14.83,181.71,15.91,169.15z"/>
<path class="ArmTrim fill" d="M2.01,252.86c0,0,0.39-2.18,1.05-5.84l83.43,29.99l-2.3,12.48c0,0-0.24-0.02-0.69-0.08
	c0,0-23.08-2.77-37.03-13.31c-2.16-1.63-4.33-3.28-6.28-5.21C24.13,254.96,2.01,252.86,2.01,252.86z"/>
<path class="Colour1 fill" d="M86.48,277.01L3.05,247.03c0.58-3.23,1.35-7.61,2.25-12.67l83.51,30.02L86.48,277.01z"/>
<path class="BottomHem fill" d="M247.02,643.72c-23.06,0-44.97-2.33-47.63-2.63c-24.84-1.12-61.48-29.97-63.04-31.2l-0.4-0.35
	c-4.36-4.2-19.63-11.91-28.23-15.79l-0.07-2.28l-0.52-10.33l5.06,2.28c2.43,1.09,23.79,10.82,31.15,17.7
	c10.01,7.9,39.12,28.01,56.68,28.69l0.4,0.03c0.56,0.06,56.61,6.23,83.66-0.77l0.79-0.14c0.23-0.03,24.51-2.9,47.78-21.61
	c2.48-2.48,21.85-21.42,38.44-24.31l5.46-0.95l0.61,11.13l-4.21,0.95c-11.58,2.01-27.54,16.14-32.72,21.41l-0.47,0.43
	c-24.53,19.83-49.64,23.66-53.33,24.13C275.62,642.85,261.11,643.72,247.02,643.72z"/>
<path class="st10" d="M89.35,95.02c0,0,124.35-32.47,305.74,0"/>
<path class="st6" d="M89.35,98.57c0,0,124.35-32.47,305.74,0"/>
<g id="BBodyLogos"></g>
</svg>
