<?xml version="1.0" encoding="utf-8"?>
<!-- Generator: Adobe Illustrator 19.1.0, SVG Export Plug-In . SVG Version: 6.00 Build 0)  -->
<svg version="1.1" id="Layer_1" xmlns="http://www.w3.org/2000/svg" xmlns:xlink="http://www.w3.org/1999/xlink" x="0px" y="0px"
	 viewBox="0 0 335.2 641.14" style="enable-background:new 0 0 335.2 641.14;" xml:space="preserve">
<style type="text/css">
	<![CDATA[
	@font-face{font-family:'codaheavy';src:url('/fonts/coda-heavy-webfont.woff') format('woff')}
	text{font-family:Impact,codaheavy,sans-serif}
	.Number.fill{fill:#000}
	.NumberOutline.stroke{fill:none;stroke:#777;stroke-width:2.5}
	.Colour1.fill{fill:#333333;}
	.Colour2.fill{fill:#676767;}
	.Colour3.fill{fill:#C8C8C8;}
	.Colour4.fill{fill:#959595;}
	.Colour5.fill{fill:#FFFFFF;}
	.NeckAndArmTrim.fill{fill:#333333;stroke:#000000;stroke-miterlimit:10;}
	.Gradient1.stopColor{stop-color:#FFFFFF;}
	.Gradient2.stopColor{stop-color:#F1F1F1;}
	.Gradient3.stopColor{stop-color:#000000;}
	.st0{fill:url(#SVGID_1_);}
	.st1{fill:#333333;stroke:#000000;stroke-miterlimit:10;}
	.st2{fill:none;stroke:#000000;stroke-miterlimit:10;}
	.st3{fill:none;stroke:#000000;stroke-linecap:round;stroke-linejoin:round;}
	.st4{fill:#FFFFFF;stroke:#000000;}
	]]>
</style>
<linearGradient id="SVGID_1_" gradientUnits="userSpaceOnUse" x1="167.6009" y1="-96.9539" x2="167.6009" y2="729.6343">
	<stop class="Gradient1 stopColor" offset="0.1171" style="stop-color:#FFFFFF"/>
	<stop class="Gradient2 stopColor" offset="0.3567" style="stop-color:#F1F1F1"/>
	<stop class="Gradient3 stopColor" offset="1" style="stop-color:#000000"/>
</linearGradient>
<path class="st0" d="M291.1,206.63c4.47-15.83,9.35-28.62,12.95-37.33c-1.09,0.18-2.97,0.39-5.18,0
	c-11.73-2.04-17.94-18.01-20.73-25.17c-12.46-32.03-9.7-126.66-9.5-132.82c-13.82-3.76-26.4-7.71-40.21-11.47
	c0,22.26-123.02,22.44-123.02,0.19C92.17,3.78,78.93,7.55,65.69,11.31c0,4,0.01,10.03,0,17.36c-0.04,43.04-0.08,64.71-0.86,72.05
	c-1.81,16.94-6.51,60.96-28.5,67.71c-2.79,0.86-5.27,0.93-6.91,0.87c3.1,7.91,7.3,19.53,11.23,33.86
	c10.89,39.77,13.72,78.88,10.36,128.48C43.25,446.19,2.73,613.29,0.91,620.71c43.59,11.07,102.61,21.46,172.73,20.83
	c64.53-0.58,119.22-10.31,160.64-20.83c-16.37-70.93-29.71-138.78-40.59-203.13C278.39,327.08,272.7,271.76,291.1,206.63z"/>
<g>
	<polygon points="290.33,606.25 290.33,606.25 290.33,606.25 	"/>
	<polygon points="105.95,141.64 105.95,141.64 105.95,141.64 	"/>
	<polygon points="166.93,248.84 166.93,248.84 166.93,248.84 	"/>
	<polygon points="105.38,141.64 105.38,141.64 105.38,141.64 	"/>
	<polygon points="167.22,606.25 167.22,606.25 167.22,606.25 	"/>
	<polygon points="228.77,499.09 228.77,499.09 228.77,499.09 	"/>
	<polygon points="228.49,141.64 228.49,141.64 228.49,141.64 	"/>
	<path d="M166.56,605.96l-57.05,33.11c0.38,0.03,0.76,0.07,1.14,0.1l56.24-32.63v-0.38L166.56,605.96z"/>
	<path d="M228.44,570.81v68c0.22-0.02,0.44-0.04,0.66-0.06v-67.94l-0.33-0.19L228.44,570.81z"/>
	<path d="M44.44,606.53l54.32,31.52c0.53,0.05,1.06,0.11,1.6,0.16l-55.58-32.26l-0.33,0.19V606.53z"/>
	<path d="M233.57,1.76l34.83,20.21c0-0.26,0.01-0.51,0.01-0.76L236.05,2.43C235.22,2.21,234.4,1.98,233.57,1.76z"/>
	<path d="M99.78,1.62L65.69,21.41c0,0.25,0,0.51,0,0.76l36.67-21.28C101.5,1.13,100.64,1.38,99.78,1.62z"/>
	<path d="M105.34,570.81v67.89c0.22,0.02,0.44,0.04,0.66,0.06v-67.94l-0.33-0.19L105.34,570.81z"/>
	<polygon points="44.11,606.25 44.11,606.25 44.11,606.25 	"/>
	<path d="M105.33,355.26L51.47,324c-0.01,0.24-0.03,0.49-0.04,0.74l53.58,31.09l0.33-0.19V355.26z"/>
	<path d="M43.78,606.11v0.42h0v23.6c0.22,0.04,0.44,0.08,0.66,0.12v-23.72h0v-0.42l0.3-0.17l0.03,0.02l60.57-35.15v-0.04l0.33-0.19
		l0.33,0.19v0.04l60.57,35.15l0.03-0.02l0.3,0.17v0.42l0,0v35.04c0.22,0,0.44,0,0.66,0v-35.04l56.31,32.68
		c0.38-0.03,0.76-0.07,1.15-0.1l-57.12-33.15l-0.33,0.19v-0.04l0.3-0.17l0.03,0.02l60.57-35.15v-0.04l0.33-0.19l0.33,0.19v0.04
		l60.57,35.15l0.03-0.02l0.3,0.17v0.04l-0.33-0.19l-55.72,32.33c0.54-0.05,1.06-0.11,1.6-0.16l54.45-31.6v23.86
		c0.22-0.04,0.44-0.08,0.66-0.12v-23.74l30.09,17.46c0.31-0.07,0.62-0.15,0.94-0.22l-30.7-17.81l-0.33,0.19v-0.04l0.3-0.17
		l0.03,0.02l35.37-20.53c-0.05-0.24-0.1-0.47-0.16-0.71l-35.55,20.63v0.04l-0.33,0.19l-0.33-0.19v-0.04l-60.57-35.15l-0.03,0.02
		l-0.3-0.17v-0.04l0.33,0.19L290,535.05v70.3l0.33,0.19l0.33-0.19v-70.3l28.43,16.5c-0.06-0.29-0.12-0.58-0.18-0.87l-27.91-16.2
		l21.97-12.75c-0.05-0.23-0.09-0.46-0.14-0.68l-22.16,12.86v-70.29l-0.33-0.19l-0.33,0.19v70.3l-60.57-35.15l-0.33,0.19v0l0.33-0.19
		l0,0L290,463.61v0l0.33-0.19l0,0v0l0.33,0.19v0l12.49,7.25c-0.05-0.28-0.11-0.57-0.16-0.86l-12-6.97l0,0l-0.33-0.19l0,0l0.33,0.19
		l9.71-5.63c-0.04-0.23-0.08-0.46-0.12-0.69l-9.91,5.75v-63.24c-0.22-1.37-0.44-2.74-0.66-4.09v67.33l-60.57-35.15l60.13-34.9
		c-0.04-0.24-0.07-0.47-0.11-0.7l-60.35,35.02v-70.29l-0.33-0.19l-0.33,0.19v70.3l-60.57-35.15l-0.33,0.19v-0.04l0.3-0.17l0.03,0.02
		l60.57-35.15v-0.04l0.33-0.19l0.33,0.19v0.04l60.31,35c-0.05-0.3-0.09-0.59-0.14-0.88l-59.84-34.73l-0.03,0.02l-0.3-0.17v-0.04
		l0.33,0.19l51.67-29.99c-0.02-0.24-0.04-0.49-0.06-0.73l-51.94,30.14v-70.29l51.21,29.72c-0.02-0.26-0.03-0.52-0.04-0.79
		l-50.84-29.5l-0.33,0.19v0l0.33-0.19l0,0l52.19-30.29c0.03-0.27,0.07-0.55,0.1-0.82l-52.62,30.54l0,0l-0.33,0.19l-0.33-0.19l0,0
		l-60.57-35.15h0l-0.33-0.19v0l0.33,0.19l60.57-35.15v70.3l0.33,0.19l0.33-0.19v-70.3l53.77,31.2c0.04-0.23,0.07-0.47,0.1-0.7
		l-53.55-31.07L290,177.81v32.89c0.22-0.8,0.43-1.61,0.66-2.42v-30.47l8.23,4.78c0.08-0.21,0.15-0.42,0.23-0.63l-8.13-4.72
		l-0.33,0.19v-0.04l0.3-0.17l0.03,0.02l12.89-7.48c0.06-0.15,0.13-0.31,0.19-0.45c-0.29,0.05-0.63,0.1-1.02,0.14l-12.38,7.19v0.04
		l-0.33,0.19l-0.33-0.19v-0.04l-60.57-35.15l-0.03,0.02l-0.3-0.17v-0.04l0.33,0.19l42.67-24.76c-0.03-0.24-0.06-0.47-0.09-0.71
		l-42.91,24.9v-70.3l40.82,23.69c-0.02-0.26-0.04-0.53-0.05-0.8l-40.44-23.47l-0.33,0.19v0l0.33-0.19l0,0l38.85-22.55
		c0-0.26,0-0.51,0-0.76L229.1,69.46v0l-0.33,0.19l-0.33-0.19v0L138.2,17.08c-0.11,0.19-0.22,0.38-0.32,0.58l90.24,52.37l0,0
		l0.33,0.19v0l-0.33-0.19l-60.57,35.15v-0.48c-0.41,0.3-0.83,0.61-1.24,0.9l0.25,0.14l-60.57,35.15v0.38l0.33,0.19l60.57-35.15v70.3
		l0.33,0.19l0.33-0.19v-70.3l60.57,35.15l0.33-0.19v0.04l-0.3,0.17l-0.03-0.02l-60.57,35.15v0.04l-0.33,0.19l-0.33-0.19v-0.04
		l-60.57-35.15l-0.03,0.02l-0.3-0.17v-0.04l0,0v-0.38l0,0V70.61l0,0v-0.38l0,0v0l0.33-0.19l0,0l94.34-54.26
		c-0.11-0.19-0.21-0.39-0.32-0.58l-94.35,54.27l0,0l-0.33,0.19v0h0l-0.33-0.19v0L65.67,46.44c0,0.25,0,0.51,0,0.76l39.34,22.83l0,0
		l0.33,0.19v0l0,0v0.38l0,0v70.29l0,0v0.38l0,0v0.04l-0.29,0.17l-0.03-0.02l-60.57,35.15v0.04l-0.33,0.19l-0.33-0.19v-0.04
		l-12.63-7.33c-0.5,0.02-0.95,0.02-1.36,0.01l13.66,7.93l0.03-0.02l0.3,0.17v0.42h0v37.84c0.22,0.94,0.45,1.89,0.66,2.83v-40.67h0
		v-0.42l0.3-0.17l0.03,0.02l60.57-35.15v-0.04l0.33-0.19l0.33,0.19v0.04l60.57,35.15l0.03-0.02l0.3,0.17v0.42l0,0v70.3l0,0v0.38
		l-0.33,0.19l0,0l-42.37,24.59l-18.2,10.56v0l-0.33,0.19l0,0h0l-0.33-0.19l0,0L49.99,251.7c0.03,0.27,0.06,0.55,0.09,0.82
		l54.92,31.87l0,0l0.33,0.19v0l0,0v0.38l0,0v70.29l0,0v0.38l0,0v0.04l-0.29,0.17l-0.03-0.02l-60.07,34.86
		c-0.04,0.29-0.08,0.58-0.11,0.87l60.51-35.12v-0.04l0.33-0.19l0.33,0.19v0.04l60.57,35.15l0.03-0.02l0.3,0.17v0.42l0,0v70.29l0,0
		v0.38l-0.33,0.19l0,0l-44.46,25.8l-16.1,9.35l0,0l-0.33,0.19v0h0l-0.33-0.19v0l-60.57-35.15l0,0l-0.33-0.19v-0.38l0,0v-67.97
		c-0.22,1.61-0.44,3.23-0.66,4.84v63.13l0,0v0.38l-0.33,0.19l0,0l-10.84,6.29c-0.05,0.28-0.1,0.57-0.15,0.85l11.32-6.57v0l0.33-0.19
		l0.33,0.19l0,0l60.57,35.15l0,0l0.33,0.19v0l0,0v0.38l0,0v70.29l0,0v0.38l0,0v0.04l-0.29,0.17l-0.03-0.02l-60.57,35.15v0.04
		l-0.33,0.19l-0.33-0.19v-0.04l-34.63-20.1c-0.05,0.24-0.11,0.47-0.16,0.71l34.46,20l0.03-0.02L43.78,606.11z M44.27,606.24
		l-0.16,0.1l-0.16-0.1c-0.03-0.02-0.03-0.05-0.05-0.07l0.05,0.03c0.05,0.03,0.11,0.04,0.16,0.04c-0.16,0-0.28-0.13-0.31-0.28
		c0-0.06-0.01-0.12,0.02-0.18c0.03-0.05,0.07-0.09,0.12-0.12c0.05-0.03,0.11-0.04,0.16-0.04c0,0,0,0,0,0c0,0,0,0,0,0
		c0.05,0,0.11,0.01,0.16,0.04c0.05,0.03,0.09,0.07,0.12,0.12c0.03,0.06,0.03,0.12,0.02,0.18c-0.03,0.15-0.15,0.28-0.31,0.28
		c0.06,0,0.11-0.01,0.16-0.04l0.05-0.03C44.31,606.19,44.3,606.23,44.27,606.24z M105.83,570.48c0.09-0.05,0.15-0.15,0.16-0.26
		c0,0.01,0.01,0.01,0.01,0.02v0.15L105.83,570.48z M105.99,570.01v-0.38l0,0v-70.29l0,0v-0.38l0,0v0l0.33-0.19l0,0l60.57-35.15l0,0
		l0.33-0.19l0.33,0.19l0,0l60.57,35.15l0,0l0.33,0.19v0l-0.33-0.19l-60.57,35.15v-70.3l-0.33-0.19l-0.33,0.19v70.3l-60.57-35.15
		l-0.33,0.19v0.38l60.57,35.15l-60.57,35.15L105.99,570.01l0.33,0.19l60.57-35.15v70.3l0.33,0.19l0.33-0.19v-70.3l60.57,35.15
		l0.33-0.19v0.04l-0.3,0.17l-0.03-0.02l-60.57,35.15v0.04l-0.33,0.19l-0.33-0.19v-0.04l-60.57-35.15l-0.03,0.02l-0.3-0.17
		L105.99,570.01L105.99,570.01z M167.55,463.23l-0.16,0.1c0.1-0.06,0.16-0.17,0.16-0.29V463.23z M228.44,498.56l0.16-0.1
		c-0.1,0.06-0.16,0.17-0.16,0.29V498.56z M228.44,499.33v70.3l-60.57-35.15L228.44,499.33z M167.05,605.67
		c-0.09,0.05-0.15,0.15-0.16,0.26c0-0.01-0.01-0.01-0.01-0.02v-0.15L167.05,605.67z M167.06,605.67L167.06,605.67L167.06,605.67z
		 M167.38,606.24l-0.16,0.1l-0.16-0.1c-0.03-0.02-0.03-0.05-0.05-0.07l0.05,0.03c0.05,0.03,0.11,0.04,0.16,0.04
		c-0.16,0-0.28-0.12-0.31-0.28c0-0.06-0.01-0.12,0.02-0.18c0.03-0.05,0.07-0.09,0.12-0.12c0.05-0.03,0.11-0.04,0.16-0.04
		c0.06,0,0.11,0.01,0.16,0.04c0.05,0.03,0.09,0.07,0.12,0.12c0.03,0.06,0.03,0.12,0.02,0.18c-0.03,0.15-0.15,0.28-0.31,0.28
		c0.06,0,0.11-0.01,0.16-0.04l0.05-0.03C167.41,606.19,167.41,606.23,167.38,606.24z M167.38,605.67
		C167.38,605.67,167.38,605.67,167.38,605.67L167.38,605.67z M167.55,605.92c0,0.01-0.01,0.01-0.01,0.01
		c-0.01-0.11-0.06-0.21-0.16-0.26l0.16,0.1V605.92z M228.44,570.39v-0.15c0-0.01,0.01-0.01,0.01-0.02c0.01,0.11,0.06,0.21,0.16,0.26
		L228.44,570.39z M290.49,606.24l-0.16,0.1l-0.16-0.1c-0.03-0.02-0.03-0.05-0.05-0.07l0.05,0.03c0.05,0.03,0.11,0.04,0.16,0.04
		c-0.16,0-0.28-0.13-0.31-0.28c0-0.06-0.01-0.12,0.02-0.18c0.03-0.05,0.07-0.09,0.12-0.12c0.05-0.03,0.11-0.04,0.16-0.04
		s0.11,0.01,0.16,0.04c0.05,0.03,0.09,0.07,0.12,0.12c0.03,0.06,0.03,0.12,0.02,0.18c-0.03,0.15-0.15,0.28-0.31,0.28
		c0.06,0,0.11-0.01,0.16-0.04l0.05-0.03C290.52,606.2,290.52,606.23,290.49,606.24z M290.66,605.77v0.15c0,0.01-0.01,0.01-0.01,0.02
		c-0.01-0.11-0.06-0.21-0.16-0.26L290.66,605.77z M290.49,605.67L290.49,605.67L290.49,605.67z M290.16,605.67
		C290.16,605.67,290.16,605.67,290.16,605.67L290.16,605.67z M290.16,605.67c-0.09,0.05-0.15,0.15-0.16,0.26
		c0-0.01-0.01-0.01-0.01-0.01v-0.15L290.16,605.67z M228.94,570.48c0.09-0.05,0.15-0.15,0.16-0.26c0,0.01,0.01,0.01,0.01,0.02v0.15
		L228.94,570.48z M229.08,570.19c0,0.06,0.01,0.12-0.02,0.18c-0.04,0.07-0.1,0.1-0.17,0.13c-0.04,0.02-0.08,0.02-0.12,0.02
		c-0.04,0-0.08,0-0.12-0.02c-0.06-0.03-0.13-0.06-0.16-0.13c-0.03-0.06-0.03-0.12-0.02-0.18c0.03-0.16,0.15-0.28,0.31-0.28
		c-0.06,0-0.11,0.01-0.16,0.04l-0.05,0.03c0.02-0.02,0.03-0.05,0.05-0.07l0.16-0.1l0.16,0.1c0.03,0.02,0.03,0.05,0.05,0.07
		l-0.05-0.03c-0.05-0.03-0.11-0.04-0.16-0.04C228.93,569.9,229.05,570.03,229.08,570.19z M289.67,534.48l-60.57,35.15v-70.3
		L289.67,534.48z M228.77,499.14l-0.16-0.1c0.05,0.03,0.11,0.04,0.16,0.04c-0.07,0-0.14-0.04-0.19-0.08
		c-0.03-0.03-0.05-0.06-0.07-0.1c-0.02-0.04-0.04-0.07-0.05-0.11c-0.01-0.07-0.01-0.14,0.03-0.21c0.03-0.05,0.07-0.09,0.12-0.12
		c0.05-0.03,0.11-0.04,0.16-0.04c0.06,0,0.11,0.01,0.16,0.04c0.05,0.03,0.09,0.07,0.12,0.12c0.04,0.07,0.04,0.14,0.03,0.21
		c-0.01,0.04-0.03,0.08-0.05,0.11c-0.02,0.04-0.04,0.07-0.07,0.1c-0.05,0.04-0.12,0.08-0.19,0.08c0.06,0,0.11-0.01,0.16-0.04
		L228.77,499.14z M228.61,498.47L228.61,498.47L228.61,498.47z M228.93,498.47L228.93,498.47L228.93,498.47z M229.1,498.76
		c0-0.12-0.06-0.23-0.16-0.29l0.16,0.1V498.76z M290,463.23v-0.19c0,0.12,0.06,0.23,0.16,0.28L290,463.23z M290.66,463.04v0.19
		l-0.16,0.1C290.59,463.26,290.66,463.15,290.66,463.04L290.66,463.04C290.66,463.03,290.66,463.03,290.66,463.04z M290.49,462.75
		c-0.05-0.03-0.11-0.04-0.16-0.04c0.07,0,0.14,0.04,0.19,0.08c0.03,0.03,0.06,0.06,0.08,0.1c0.02,0.03,0.04,0.07,0.05,0.11
		c0.01,0.07,0.01,0.14-0.03,0.21c-0.04,0.07-0.1,0.1-0.16,0.13c-0.04,0.02-0.08,0.02-0.12,0.02c-0.04,0-0.08,0-0.12-0.02
		c-0.06-0.03-0.13-0.06-0.16-0.13c-0.04-0.06-0.04-0.14-0.03-0.21c0.01-0.04,0.03-0.08,0.05-0.12c0.02-0.03,0.04-0.07,0.07-0.1
		c0.06-0.04,0.12-0.08,0.19-0.08c-0.06,0-0.11,0.01-0.16,0.04l0,0l0,0l0.16-0.1L290.49,462.75z M290,462.84l-0.33,0.19l0,0
		l-60.57,35.15v0l-0.33,0.19l-0.33-0.19v0l-60.57-35.15l0,0l-0.33-0.19v0l0.33,0.19l60.57-35.15v70.29l0.33,0.19l0.33-0.19v-70.29
		l60.57,35.15L290,462.84L290,462.84z M228.11,427.31l-60.57,35.15v-70.29L228.11,427.31z M167.55,391.56
		c0,0.01-0.01,0.01-0.01,0.02c-0.01-0.11-0.06-0.21-0.16-0.26l0.16,0.1V391.56z M106.29,355.85l-0.3-0.17v-0.04l0,0v-0.38l0,0
		v-70.29l0,0v-0.38l0,0l0,0l0.33-0.19v0l60.57-35.15v0l0.33-0.19l0.33,0.19v0l60.57,35.15l0,0l0.33,0.19v0l-0.33-0.19l-60.57,35.15
		v-70.3l-0.33-0.19l-0.33,0.19v70.29l-60.57-35.15l-0.33,0.19v0.38l60.57,35.15l-60.57,35.15v0.38l0.33,0.19l60.57-35.15v70.3
		l0.33,0.19l0.33-0.19v-70.3l60.57,35.15l0.33-0.19v0.04l-0.3,0.17l-0.03-0.02l-60.57,35.15v0.04l-0.33,0.19l-0.33-0.19v-0.04
		l-60.57-35.15L106.29,355.85z M105.4,284.55c-0.02-0.04-0.04-0.07-0.05-0.12c-0.01-0.07-0.01-0.14,0.03-0.21
		c0.03-0.05,0.07-0.09,0.12-0.12c0.05-0.03,0.11-0.04,0.16-0.04c0.06,0,0.11,0.01,0.16,0.04c0.05,0.03,0.09,0.07,0.12,0.12
		c0.04,0.07,0.04,0.14,0.03,0.21c-0.01,0.04-0.03,0.08-0.05,0.11c-0.02,0.04-0.04,0.07-0.07,0.1c-0.05,0.04-0.12,0.08-0.19,0.08
		c-0.08,0-0.14-0.04-0.19-0.08C105.44,284.62,105.42,284.58,105.4,284.55z M229.04,284.55c-0.02,0.04-0.04,0.07-0.07,0.1
		c-0.06,0.04-0.12,0.08-0.19,0.08c-0.07,0-0.14-0.04-0.19-0.08c-0.03-0.03-0.05-0.06-0.07-0.1c-0.02-0.04-0.04-0.07-0.05-0.11
		c-0.01-0.07-0.01-0.14,0.03-0.21c0.03-0.05,0.07-0.09,0.12-0.12c0.05-0.03,0.11-0.04,0.16-0.04c0.06,0,0.11,0.01,0.16,0.04
		c0.05,0.03,0.09,0.07,0.12,0.12c0.04,0.07,0.04,0.14,0.03,0.21C229.08,284.48,229.06,284.51,229.04,284.55z M228.44,284.97v70.29
		l-60.57-35.15L228.44,284.97z M167.38,391.31L167.38,391.31L167.38,391.31z M228.44,356.03v-0.15c0-0.01,0.01-0.01,0.01-0.02
		c0.01,0.11,0.06,0.21,0.16,0.26L228.44,356.03z M228.94,356.12c0.09-0.05,0.15-0.15,0.16-0.26c0,0.01,0.01,0.01,0.01,0.02v0.15
		L228.94,356.12z M228.94,355.55c0.03,0.02,0.03,0.05,0.05,0.07l-0.05-0.03c-0.05-0.03-0.11-0.04-0.16-0.04
		c0.16,0,0.28,0.12,0.31,0.28c0,0.06,0.01,0.12-0.02,0.18c-0.04,0.07-0.1,0.1-0.16,0.13c-0.04,0.02-0.08,0.02-0.12,0.02
		c-0.04,0-0.08,0-0.12-0.02c-0.06-0.03-0.13-0.06-0.16-0.13c-0.03-0.06-0.03-0.12-0.02-0.18c0.03-0.16,0.15-0.28,0.31-0.28
		c-0.06,0-0.11,0.01-0.16,0.04l-0.05,0.03c0.02-0.02,0.03-0.05,0.05-0.07l0.16-0.1L228.94,355.55z M228.77,284.78l-0.16-0.1
		c0.1,0.06,0.23,0.06,0.33,0L228.77,284.78z M229.1,284.2v0.19c0-0.12-0.06-0.23-0.16-0.29L229.1,284.2z M228.94,284.11
		L228.94,284.11L228.94,284.11z M228.61,284.11L228.61,284.11L228.61,284.11z M228.61,284.11c-0.1,0.06-0.16,0.17-0.16,0.29v-0.19
		L228.61,284.11z M167.55,248.86l-0.16,0.1c0.1-0.06,0.16-0.17,0.16-0.29V248.86z M167.55,248.1v-70.3l60.57,35.15L167.55,248.1z
		 M229.1,212.38v-70.29l-0.33-0.19l-0.33,0.19v70.29l-60.57-35.15l-0.33,0.19v-0.04l0.3-0.17l0.03,0.02l60.57-35.15v-0.04l0.33-0.19
		l0.33,0.19v0.04l60.57,35.15l0.03-0.02l0.3,0.17v0.04l-0.33-0.19L229.1,212.38z M166.91,177.24c0-0.06-0.01-0.12,0.02-0.18
		c0.03-0.05,0.07-0.09,0.12-0.12c0.05-0.03,0.11-0.04,0.16-0.04c0.06,0,0.11,0.01,0.16,0.04c0.05,0.03,0.09,0.07,0.12,0.12
		c0.03,0.06,0.03,0.12,0.02,0.18c-0.03,0.16-0.15,0.28-0.31,0.28C167.06,177.53,166.94,177.4,166.91,177.24z M290.33,177.53
		c-0.16,0-0.28-0.13-0.31-0.28c0-0.06-0.01-0.12,0.02-0.18c0.03-0.05,0.07-0.09,0.12-0.12c0.05-0.03,0.11-0.04,0.16-0.04
		c0.06,0,0.11,0.01,0.16,0.04c0.05,0.03,0.09,0.07,0.12,0.12c0.03,0.06,0.03,0.12,0.02,0.18
		C290.61,177.4,290.49,177.53,290.33,177.53z M290.49,177.52l-0.16,0.1l-0.16-0.1c-0.03-0.02-0.03-0.05-0.05-0.07l0.05,0.03
		c0.1,0.06,0.23,0.06,0.33,0l0.05-0.03C290.52,177.47,290.52,177.5,290.49,177.52z M290.66,177.04v0.15c0,0.01-0.01,0.01-0.01,0.02
		c-0.01-0.11-0.06-0.21-0.16-0.26L290.66,177.04z M290.49,176.95L290.49,176.95C290.49,176.94,290.49,176.94,290.49,176.95z
		 M290.16,176.94C290.16,176.94,290.16,176.94,290.16,176.94L290.16,176.94z M290.16,176.95c-0.09,0.05-0.15,0.15-0.16,0.26
		c0-0.01-0.01-0.01-0.01-0.01v-0.15L290.16,176.95z M228.94,141.76c0.09-0.05,0.15-0.15,0.16-0.26c0,0.01,0.01,0.01,0.01,0.02v0.15
		L228.94,141.76z M229.1,69.84v0.19c0-0.12-0.06-0.23-0.16-0.29L229.1,69.84z M228.94,69.74L228.94,69.74L228.94,69.74z
		 M228.44,69.84l0.16-0.1c-0.1,0.06-0.16,0.17-0.16,0.29V69.84z M228.61,69.74L228.61,69.74L228.61,69.74z M228.58,70.28
		c-0.03-0.03-0.05-0.06-0.07-0.1c-0.02-0.04-0.04-0.07-0.05-0.11c-0.01-0.07-0.01-0.14,0.03-0.21c0.03-0.05,0.07-0.09,0.12-0.12
		c0.05-0.03,0.11-0.04,0.16-0.04c0.06,0,0.11,0.01,0.16,0.04c0.05,0.03,0.09,0.07,0.12,0.12c0.04,0.07,0.04,0.14,0.03,0.21
		c-0.01,0.04-0.03,0.08-0.05,0.11c-0.02,0.04-0.04,0.07-0.07,0.1c-0.06,0.04-0.12,0.08-0.19,0.08c0.06,0,0.11-0.01,0.16-0.04
		l-0.16,0.1l-0.16-0.1c0.05,0.03,0.11,0.04,0.16,0.04C228.7,70.36,228.64,70.33,228.58,70.28z M167.88,105.75l60.57-35.15v70.3
		L167.88,105.75z M228.44,141.51c0-0.01,0.01-0.01,0.01-0.02c0,0.05,0.01,0.1,0.04,0.14c-0.03-0.06-0.03-0.12-0.02-0.18
		c0.03-0.16,0.15-0.28,0.31-0.28c-0.06,0-0.11,0.01-0.16,0.04l-0.05,0.03c0.02-0.02,0.03-0.05,0.05-0.07l0.16-0.1l0.16,0.1
		c0.03,0.02,0.03,0.05,0.05,0.07l-0.05-0.03c-0.05-0.03-0.11-0.04-0.16-0.04c0.16,0,0.28,0.12,0.31,0.28c0,0.06,0.01,0.12-0.02,0.18
		c-0.04,0.07-0.1,0.1-0.16,0.13c-0.04,0.02-0.08,0.02-0.12,0.02c-0.04,0-0.08,0-0.12-0.02c-0.06-0.03-0.13-0.06-0.16-0.13
		c0.03,0.05,0.07,0.09,0.12,0.12l-0.16-0.1V141.51z M167.55,177.04v0.15c0,0.01-0.01,0.01-0.01,0.01c-0.01-0.11-0.06-0.21-0.16-0.26
		L167.55,177.04z M167.38,176.94L167.38,176.94C167.38,176.94,167.38,176.94,167.38,176.94z M167.06,176.95
		C167.06,176.95,167.06,176.94,167.06,176.95L167.06,176.95z M105.99,70.03c0-0.12-0.06-0.23-0.16-0.29l0.16,0.1V70.03z
		 M105.83,69.74L105.83,69.74L105.83,69.74z M105.5,69.74L105.5,69.74L105.5,69.74z M105.5,69.75c-0.1,0.06-0.16,0.17-0.16,0.28
		v-0.19L105.5,69.75z M105.5,70.32L105.5,70.32L105.5,70.32c0.05,0.03,0.11,0.04,0.16,0.04c-0.08,0-0.14-0.04-0.19-0.08
		c-0.03-0.03-0.05-0.06-0.07-0.1c-0.02-0.04-0.04-0.07-0.05-0.12c-0.01-0.07-0.01-0.14,0.03-0.21c0.03-0.05,0.07-0.09,0.12-0.12
		c0.05-0.03,0.11-0.04,0.16-0.04c0.06,0,0.11,0.01,0.16,0.04c0.05,0.03,0.09,0.07,0.12,0.12c0.04,0.07,0.04,0.14,0.03,0.21
		c-0.01,0.04-0.03,0.08-0.05,0.11c-0.02,0.04-0.04,0.07-0.07,0.1c-0.05,0.04-0.12,0.08-0.19,0.08c0.06,0,0.11-0.01,0.16-0.04
		l-0.16,0.1L105.5,70.32z M44.11,177.53c-0.16,0-0.28-0.13-0.31-0.28c0-0.06-0.01-0.12,0.02-0.18c0.03-0.05,0.07-0.09,0.12-0.12
		c0.05-0.03,0.11-0.04,0.16-0.04c0,0,0,0,0,0c0,0,0,0,0,0c0.05,0,0.11,0.01,0.16,0.04c0.05,0.03,0.09,0.07,0.12,0.12
		c0.03,0.06,0.03,0.12,0.02,0.18C44.39,177.4,44.27,177.53,44.11,177.53z M44.27,176.94C44.27,176.94,44.27,176.94,44.27,176.94
		L44.27,176.94z M43.95,176.95C43.95,176.95,43.95,176.94,43.95,176.95L43.95,176.95z M43.95,176.95L43.95,176.95L43.95,176.95
		c-0.09,0.05-0.15,0.15-0.16,0.26c0-0.01-0.01-0.01-0.01-0.01v-0.15L43.95,176.95z M44.27,177.52l-0.16,0.1l-0.16-0.1
		c-0.03-0.02-0.03-0.05-0.05-0.07l0.05,0.03c0.1,0.06,0.23,0.06,0.33,0l0.05-0.03C44.31,177.47,44.3,177.5,44.27,177.52z
		 M44.44,177.19c0,0.01-0.01,0.01-0.01,0.02c-0.01-0.11-0.06-0.21-0.16-0.26h0h0l0.16,0.1V177.19z M105.83,141.76
		c0.05-0.03,0.09-0.07,0.12-0.12c-0.04,0.07-0.1,0.1-0.16,0.13c-0.04,0.02-0.08,0.02-0.12,0.02s-0.08,0-0.12-0.02
		c-0.06-0.03-0.13-0.06-0.16-0.13c0.03,0.05,0.07,0.09,0.12,0.12l-0.16-0.09v-0.15c0-0.01,0.01-0.01,0.01-0.01
		c0,0.05,0.01,0.1,0.04,0.14c-0.03-0.06-0.03-0.12-0.02-0.18c0.03-0.16,0.15-0.28,0.31-0.28c-0.06,0-0.11,0.01-0.16,0.04l-0.05,0.03
		c0.02-0.02,0.03-0.05,0.05-0.07l0.16-0.1l0.16,0.1c0.03,0.02,0.03,0.05,0.05,0.07l-0.05-0.03c-0.05-0.03-0.11-0.04-0.16-0.04
		c0.16,0,0.28,0.12,0.31,0.28c0,0.06,0.01,0.12-0.02,0.18c0.02-0.04,0.03-0.09,0.04-0.14c0,0.01,0.01,0.01,0.01,0.02v0.15
		L105.83,141.76z M167.05,176.95c-0.09,0.05-0.15,0.15-0.16,0.26c0-0.01-0.01-0.01-0.01-0.01v-0.15L167.05,176.95z M167.05,177.52
		c-0.03-0.02-0.03-0.05-0.05-0.07l0.05,0.03c0.1,0.06,0.23,0.06,0.33,0l0.05-0.03c-0.02,0.02-0.03,0.05-0.05,0.07l-0.16,0.1
		L167.05,177.52z M166.89,248.67c0,0.06,0.02,0.12,0.04,0.17c-0.04-0.07-0.04-0.14-0.03-0.21c0.01-0.04,0.03-0.08,0.05-0.11
		c0.02-0.04,0.04-0.07,0.07-0.1c0.05-0.04,0.12-0.08,0.19-0.08c-0.06,0-0.11,0.01-0.16,0.04l0.16-0.1l0.16,0.1
		c-0.05-0.03-0.11-0.04-0.16-0.04c0.07,0,0.14,0.04,0.19,0.08c0.03,0.03,0.05,0.06,0.07,0.1c0.02,0.04,0.04,0.07,0.05,0.11
		c0.01,0.07,0.01,0.14-0.03,0.21c-0.04,0.07-0.1,0.1-0.16,0.13c-0.04,0.02-0.08,0.02-0.12,0.02c-0.04,0-0.08,0-0.12-0.02
		c-0.06-0.03-0.13-0.06-0.16-0.13c0.03,0.05,0.07,0.09,0.12,0.12l-0.16-0.1V248.67z M105.99,284.39c0-0.12-0.06-0.23-0.16-0.29
		l0.16,0.1V284.39z M105.83,284.11L105.83,284.11L105.83,284.11z M105.5,284.11L105.5,284.11L105.5,284.11z M105.5,284.11
		c-0.1,0.06-0.16,0.17-0.16,0.28v-0.19L105.5,284.11z M105.5,284.68L105.5,284.68L105.5,284.68c0.1,0.06,0.23,0.06,0.33,0l-0.16,0.1
		L105.5,284.68z M105.5,355.55l0.16-0.1l0.16,0.1c0.03,0.02,0.03,0.05,0.05,0.07l-0.05-0.03c-0.05-0.03-0.11-0.04-0.16-0.04
		c0.16,0,0.28,0.13,0.31,0.28c0,0.06,0.01,0.12-0.02,0.18c-0.04,0.07-0.1,0.1-0.16,0.13c-0.04,0.02-0.08,0.02-0.12,0.02
		c-0.04,0-0.08,0-0.12-0.02c-0.06-0.03-0.13-0.06-0.16-0.13c-0.03-0.06-0.03-0.12-0.02-0.18c0.03-0.16,0.15-0.28,0.31-0.28
		c-0.06,0-0.11,0.01-0.16,0.04l-0.05,0.03C105.47,355.6,105.47,355.56,105.5,355.55z M105.34,355.87c0-0.01,0.01-0.01,0.01-0.01
		c0.01,0.11,0.06,0.21,0.16,0.26l-0.16-0.09V355.87z M105.83,356.12c0.09-0.05,0.15-0.15,0.16-0.26c0,0.01,0.01,0.01,0.01,0.02v0.15
		L105.83,356.12z M167.05,391.31c-0.09,0.05-0.15,0.15-0.16,0.26c0-0.01-0.01-0.01-0.01-0.02v-0.15L167.05,391.31z M167.06,391.31
		L167.06,391.31L167.06,391.31z M167.05,391.88c-0.03-0.02-0.03-0.05-0.05-0.07l0.05,0.03c0.05,0.03,0.11,0.04,0.16,0.04
		c-0.16,0-0.28-0.13-0.31-0.28c0-0.06-0.01-0.12,0.02-0.18c0.03-0.05,0.07-0.09,0.12-0.12c0.05-0.03,0.11-0.04,0.16-0.04
		c0.06,0,0.11,0.01,0.16,0.04c0.05,0.03,0.09,0.07,0.12,0.12c0.03,0.06,0.03,0.12,0.02,0.18c-0.03,0.15-0.15,0.28-0.31,0.28
		c0.06,0,0.11-0.01,0.16-0.04l0.05-0.03c-0.02,0.02-0.03,0.05-0.05,0.07l-0.16,0.1L167.05,391.88z M167.22,462.65l0.16,0.1
		c-0.05-0.03-0.11-0.04-0.16-0.04c0.07,0,0.14,0.04,0.19,0.08c0.03,0.03,0.05,0.06,0.07,0.1c0.02,0.04,0.04,0.07,0.05,0.11
		c0.01,0.07,0.01,0.14-0.03,0.21c-0.04,0.07-0.1,0.1-0.16,0.13c-0.04,0.02-0.08,0.02-0.12,0.02c-0.04,0-0.08,0-0.12-0.02
		c-0.06-0.03-0.13-0.06-0.16-0.13c-0.04-0.07-0.04-0.14-0.03-0.21c0.01-0.04,0.03-0.08,0.05-0.11c0.02-0.04,0.04-0.07,0.07-0.1
		c0.05-0.04,0.12-0.08,0.19-0.08c-0.06,0-0.11,0.01-0.16,0.04L167.22,462.65z M166.89,463.04c0,0.12,0.06,0.23,0.16,0.29l-0.16-0.1
		V463.04z M105.99,498.76c0-0.12-0.06-0.23-0.16-0.29l0.16,0.1V498.76z M105.83,498.47L105.83,498.47L105.83,498.47z M105.5,498.47
		L105.5,498.47L105.5,498.47z M44.11,462.65l0.16,0.1c-0.05-0.03-0.11-0.04-0.16-0.04c0.07,0,0.14,0.04,0.19,0.08
		c0.03,0.03,0.05,0.06,0.07,0.1c0.02,0.04,0.04,0.07,0.05,0.11c0.01,0.07,0.01,0.14-0.03,0.21s-0.1,0.1-0.16,0.13
		c-0.04,0.02-0.08,0.02-0.12,0.02c-0.04,0-0.08,0-0.12-0.02c-0.06-0.03-0.13-0.06-0.16-0.13c-0.04-0.07-0.04-0.14-0.03-0.21
		c0.01-0.04,0.03-0.08,0.05-0.11s0.04-0.07,0.07-0.1c0.06-0.04,0.12-0.08,0.19-0.08c-0.06,0-0.11,0.01-0.16,0.04L44.11,462.65z
		 M43.95,463.32l-0.16-0.1v-0.19C43.78,463.15,43.84,463.26,43.95,463.32L43.95,463.32L43.95,463.32z M44.27,463.32L44.27,463.32
		L44.27,463.32c0.1-0.06,0.16-0.17,0.16-0.29v0l0,0v0.19L44.27,463.32z M105.5,498.47c-0.1,0.06-0.16,0.17-0.16,0.28v-0.19
		L105.5,498.47z M105.5,499.04L105.5,499.04L105.5,499.04c0.05,0.03,0.11,0.04,0.16,0.04c-0.07,0-0.14-0.04-0.19-0.08
		c-0.03-0.03-0.05-0.06-0.07-0.1c-0.02-0.04-0.04-0.07-0.05-0.12c-0.01-0.07-0.01-0.14,0.03-0.21c0.03-0.05,0.07-0.09,0.12-0.12
		c0.05-0.03,0.11-0.04,0.16-0.04c0.06,0,0.11,0.01,0.16,0.04c0.05,0.03,0.09,0.07,0.12,0.12c0.04,0.07,0.04,0.14,0.03,0.21
		c-0.01,0.04-0.03,0.08-0.05,0.11c-0.02,0.04-0.04,0.07-0.07,0.1c-0.05,0.04-0.12,0.08-0.19,0.08c0.06,0,0.11-0.01,0.16-0.04
		l-0.16,0.1L105.5,499.04z M105.5,569.91l0.16-0.1l0.16,0.1c0.03,0.02,0.03,0.05,0.05,0.07l-0.05-0.03
		c-0.05-0.03-0.11-0.04-0.16-0.04c0.16,0,0.28,0.13,0.31,0.28c0,0.06,0.01,0.12-0.02,0.18c-0.04,0.07-0.1,0.1-0.17,0.13
		c-0.04,0.02-0.08,0.02-0.12,0.02c-0.04,0-0.08,0-0.12-0.02c-0.06-0.03-0.13-0.06-0.16-0.13c-0.03-0.06-0.03-0.12-0.02-0.18
		c0.03-0.16,0.15-0.28,0.31-0.28c-0.06,0-0.11,0.01-0.16,0.04l-0.05,0.03C105.47,569.96,105.47,569.93,105.5,569.91z M105.34,570.24
		c0-0.01,0.01-0.01,0.01-0.01c0.01,0.11,0.06,0.21,0.16,0.26l-0.16-0.09V570.24z M44.44,605.77v0.15c0,0.01-0.01,0.01-0.01,0.02
		c-0.01-0.11-0.06-0.21-0.16-0.26h0h0L44.44,605.77z M44.27,605.67L44.27,605.67C44.27,605.67,44.27,605.67,44.27,605.67z
		 M43.95,605.67L43.95,605.67L43.95,605.67z M43.95,605.67L43.95,605.67L43.95,605.67c-0.09,0.05-0.15,0.15-0.16,0.26
		c0-0.01-0.01-0.01-0.01-0.01v-0.15L43.95,605.67z"/>
	<path d="M105.99,283.82v-70.29l60.57,35.15l0.33-0.19v-0.38l-60.57-35.15l60.57-35.15v-0.38l-0.33-0.19l-60.57,35.15v-70.29
		l-0.33-0.19l-0.33,0.19v70.29l-60.57-35.15l-0.33,0.19v0.38l60.57,35.15L49.2,245.34c0.03,0.24,0.07,0.47,0.1,0.71l56.04-32.52
		v70.3l0.33,0.19L105.99,283.82z"/>
	<path d="M43.78,606.15l-0.33-0.19l-30.49,17.7c0.31,0.07,0.62,0.15,0.94,0.22l29.88-17.34V606.15z"/>
	<path d="M105.01,284.39l-53.11,30.82c-0.01,0.26-0.02,0.52-0.04,0.78l53.48-31.03v-0.38L105.01,284.39z"/>
	<path d="M44.44,605.34v-70.3l60.57,35.15l0.33-0.19v-0.38l-60.57-35.15l60.57-35.15v-0.38l-0.33-0.19L44.44,533.9v-70.3l-0.33-0.19
		l-0.33,0.19v70.3l-21.11-12.25c-0.05,0.23-0.09,0.45-0.14,0.68l20.92,12.14l-26.6,15.44c-0.06,0.29-0.12,0.58-0.18,0.87
		l27.11-15.73v70.3l0.33,0.19L44.44,605.34z"/>
	<polygon points="105.67,499.09 105.66,499.09 105.66,499.09 	"/>
	<path d="M44.77,463.03l60.57-35.15v70.29l0.33,0.19l0.33-0.19v-70.29l60.57,35.15l0.33-0.19v-0.38l-60.57-35.15l60.57-35.15v-0.38
		l-0.33-0.19l-60.57,35.15v-70.29l-0.33-0.19l-0.33,0.19v70.3l-60.52-35.12c-0.03,0.24-0.06,0.47-0.09,0.71l60.28,34.98
		l-60.57,35.15v0.38L44.77,463.03z"/>
	<path d="M43.78,462.46l-9.04-5.25c-0.04,0.23-0.08,0.46-0.12,0.69l8.83,5.13l0.33-0.19V462.46z"/>
	<path d="M105.99,70.61l63.98,37.1c-1.23-0.93-1.12-1.13-2.37-2.15l-61.28-35.52l-0.33,0.19V70.61z"/>
	<path d="M105.99,69.46V4.45c-0.22-1.57-0.42-3.05-0.58-4.43c-0.03,0.01-0.05,0.02-0.08,0.02v69.41l0.33,0.19L105.99,69.46z"/>
	<path d="M290.66,176.62v-11.5c-0.22-0.2-0.44-0.4-0.66-0.6v12.11l0.33,0.19L290.66,176.62z"/>
	<path d="M229.1,69.46V0.54c-0.22-0.06-0.44-0.12-0.66-0.18v69.1l0.33,0.19L229.1,69.46z"/>
	<path d="M105.33,140.9l-42.45-24.63c-0.04,0.23-0.07,0.47-0.11,0.7l42.23,24.5l0.33-0.19V140.9z"/>
	<path d="M105.01,70.03L65.26,93.1c-0.01,0.26-0.02,0.53-0.03,0.78l40.1-23.27v-0.38L105.01,70.03z"/>
	<path d="M44.44,176.62v-12.94c-0.22,0.2-0.43,0.41-0.66,0.6v12.34l0.33,0.19L44.44,176.62z"/>
	<path d="M43.45,177.23l-9.17,5.32c0.07,0.21,0.15,0.42,0.22,0.64l9.28-5.38v-0.38L43.45,177.23z"/>
</g>
<path class="Colour5 fill" d="M184.87,289.15l8.63-5.01l-8.63-5.01V289.15z M61.47,289.15l8.63-5.01l-8.63-5.01V289.15z M148.58,279.13
	l-8.63,5.01l8.63,5.01V279.13z M215.84,377.34l-24.64,14.32l24.64,14.3V377.34z M93.11,377.34l-24.64,14.32l24.64,14.3V377.34z"/>
<path class="Colour2 fill" d="M279.31,518.34l-33.81-19.62l33.81-19.64V518.34z M177.58,518.34l33.81-19.64l-33.81-19.62L177.58,518.34z
	 M240.82,480.8l30.43-17.66l-30.43-17.68L240.82,480.8z M92.95,445.47l-30.43,17.66l30.43,17.68L92.95,445.47z"/>
<path class="Colour3 fill" d="M122.6,315.16l8.63,5.01l-8.63,5.01V315.16z M117.72,480.8l30.43-17.68l-30.43-17.66V480.8z M151.71,345.86
	l-17.25,10.02l17.25,10.01V345.86z M202.17,320.18l8.63,5.01v-10.02L202.17,320.18z M28.6,534.62l-7.65-4.45
	c-0.7,3.43-1.39,6.79-2.08,10.09L28.6,534.62z M59.97,365.9l17.25-10.01l-17.25-10.02V365.9z M274.31,365.9v-20.03l-17.25,10.02
	L274.31,365.9z M254.72,320.18l-8.63-5.01v10.02L254.72,320.18z M216.06,480.8v-35.33l-30.43,17.68L216.06,480.8z"/>
<path class="Colour4 fill" d="M182.57,345.86l17.25,10.02l-17.25,10.01V345.86z M219.63,512.8l-37.56,21.82l37.56,21.8V512.8z
	 M127.67,427.2l27.38,15.89l0-31.8L127.67,427.2z M118.31,405.96l24.65-14.3l-24.65-14.32V405.96z M114.15,556.42l37.56-21.8
	l-37.56-21.82L114.15,556.42z M54.47,518.39l33.81-19.64l-33.81-19.62V518.39z M56.36,443.09l27.38-15.89l-27.38-15.91V443.09z
	 M156.2,518.34v-39.26l-33.81,19.62L156.2,518.34z M241.04,377.34v28.62l24.65-14.3L241.04,377.34z M277.79,411.29l-27.38,15.91
	l27.38,15.89V411.29z M305.18,481.69l-4.49-2.61v39.26l10.39-6.03C309.05,502.02,307.09,491.83,305.18,481.69z M179.09,443.09
	l27.38-15.89l-27.38-15.91V443.09z"/>
<path class="Colour1 fill" d="M283.27,631.6c-10.41,1.81-21.33,3.44-32.72,4.85l32.72-19.01V631.6z M159.83,546l-41.74,24.25l41.74,24.22
	V546z M212.54,640.05l-38.92-22.61v24.1c0,0,0.02,0,0.03,0C187.05,641.42,200.01,640.89,212.54,640.05z M296.72,546v48.47
	l28.05-16.28c-1.32-6.08-2.63-12.13-3.91-18.16L296.72,546z M296.72,617.44v11.67c5.08-0.99,10.03-2,14.83-3.05L296.72,617.44z
	 M159.83,617.44l-38.76,22.52c12.47,0.86,25.4,1.41,38.76,1.56V617.44z M112.06,630.32l41.74-24.22l-41.74-24.25V630.32z
	 M36.89,594.47l0-48.47l-21.92,12.73c-1.57,7.32-3.07,14.16-4.46,20.43L36.89,594.47z M50.67,617.44v13.94
	c10.29,1.81,21.1,3.46,32.39,4.88L50.67,617.44z M36.89,617.44l-14.41,8.37c4.67,1.02,9.47,2.03,14.41,3V617.44z M330.06,621.76
	c1.41-0.35,2.85-0.7,4.23-1.05c-2.24-9.71-4.41-19.34-6.54-28.93l-24.66,14.33L330.06,621.76z M98.61,581.86L56.87,606.1
	l41.74,24.22V581.86z M235.17,581.86v48.47l41.74-24.22L235.17,581.86z M96.52,556.42V512.8l-37.56,21.82L96.52,556.42z M283.27,546
	l-41.74,24.25l41.74,24.22V546z M50.67,594.47l41.74-24.22L50.67,546V594.47z M173.61,594.47l41.74-24.22L173.61,546V594.47z
	 M314.48,529.22l-9.3,5.41l11.79,6.84C316.12,537.36,315.31,533.3,314.48,529.22z M221.72,581.86l-41.74,24.25l41.74,24.22V581.86z
	 M237.26,556.42l37.56-21.8l-37.56-21.82V556.42z M7.49,592.63C3.82,608.75,1.33,619,0.91,620.71c1.06,0.27,2.14,0.54,3.22,0.81
	l26.56-15.41L7.49,592.63z"/>
<polygon points="167.55,104.7 167.55,20.11 166.89,20.11 166.89,106.33 "/>
<path class="NeckAndArmTrim fill" d="M31.57,175.38c2.64-0.44,6.37-1.36,10.36-3.47c11.77-6.22,18.28-18.85,23.32-39.06
	c5.96-23.88,5.7-41.65,6.05-78.13c0.19-20.26,0.47-36.36,0.64-45.31l-6.69,1.9c0,4,0.01,10.03,0,17.36
	c-0.04,43.04-0.08,64.71-0.86,72.05c-1.81,16.94-6.51,60.96-28.5,67.71c-2.79,0.86-5.27,0.93-6.91,0.87L31.57,175.38z"/>
<path class="NeckAndArmTrim fill" d="M302.05,175.05c-1.85-0.01-4.77-0.22-8.05-1.41c-14.32-5.18-19.69-23.42-22.35-32.44
	c-11.54-39.17-8.99-124.16-8.74-131.63l6.05,1.74c-0.2,6.16-2.96,100.78,9.5,132.82c2.79,7.17,9,23.13,20.73,25.17
	c2.22,0.39,4.09,0.18,5.18,0L302.05,175.05z"/>
<path class="NeckAndArmTrim fill" d="M97.67,1.85c9.8,6.22,35.66,20.81,71.52,20.12c32.95-0.64,56.66-13.84,66.55-20.14l-8.28-2.25
	c-10.17,5.47-31.35,15.12-59.77,15.37c-29.68,0.26-51.79-9.87-62.01-15.37L97.67,1.85z"/>
<g>
	<g>
		<path class="Colour1 fill" d="M301.75,175.04c-1.86-0.03-4.65-0.28-7.74-1.4c-9.89-3.58-15.51-13.38-18.91-22.07l-0.17,0.72
			c-23.95,82.66-27.38,150.77-26.26,196.39c1.43,57.99,10.9,107.74,21.59,163.85c9.22,48.41,26.77,116.6,26.77,116.6
			c13.5-2.62,26.05-5.49,37.57-8.42c-16.37-70.93-29.71-138.78-40.59-203.13c-15.31-90.5-21-145.81-2.59-210.95
			c3.55-12.56,10.62-31.53,10.64-31.58L301.75,175.04z"/>
		<path class="Colour1 fill" d="M31.69,175.38c2.64-0.44,6.37-1.36,10.36-3.47c8.09-4.28,13.7-11.58,18.05-22.3l0.18,0.72
			c26.08,99.42,26.14,177.55,21.93,228.37c-3.39,40.89-11.33,85.66-16.41,114.3c-9.89,55.78-29.45,135.77-29.45,135.77
			c-12.85-2.53-24.79-5.28-35.76-8.06c1.82-7.42,42.34-174.52,50.09-289.08c3.36-49.6,0.53-88.71-10.36-128.48
			c-3.02-11.01-6.2-20.42-8.92-27.78L31.69,175.38z"/>
	</g>
	<g>
		<path class="Colour1 fill" d="M301.75,175.04c-1.86-0.03-4.65-0.28-7.74-1.4c-9.89-3.58-15.51-13.38-18.91-22.07l-0.17,0.72
			c-23.95,82.66-27.38,150.77-26.26,196.39c1.43,57.99,10.9,107.74,21.59,163.85c9.22,48.41,26.77,116.6,26.77,116.6
			c13.5-2.62,26.05-5.49,37.57-8.42c-16.37-70.93-29.71-138.78-40.59-203.13c-15.31-90.5-21-145.81-2.59-210.95
			c3.55-12.56,10.62-31.53,10.64-31.58L301.75,175.04z"/>
		<path class="Colour1 fill" d="M31.69,175.38c2.64-0.44,6.37-1.36,10.36-3.47c8.09-4.28,13.7-11.58,18.05-22.3l0.18,0.72
			c26.08,99.42,26.14,177.55,21.93,228.37c-3.39,40.89-11.33,85.66-16.41,114.3c-9.89,55.78-29.45,135.77-29.45,135.77
			c-12.85-2.53-24.79-5.28-35.76-8.06c1.82-7.42,42.34-174.52,50.09-289.08c3.36-49.6,0.53-88.71-10.36-128.48
			c-3.02-11.01-6.2-20.42-8.92-27.78L31.69,175.38z"/>
	</g>
</g>
<g>
	<path class="st2" d="M297.29,629.07c-35.1,6.84-76.65,12.06-123.37,12.48c-52.62,0.47-98.99-5.26-137.27-12.83"/>
	<path class="st3" d="M302.02,175.04c-3.24,8.24-7.06,18.94-10.64,31.59c-18.41,65.14-12.72,120.45,2.59,210.95
		c10.89,64.35,24.22,132.2,40.59,203.13c-11.43,2.91-23.89,5.75-37.27,8.36"/>
	<path class="st2" d="M302.02,175.04c0.81-2.07,1.59-3.99,2.32-5.74c-1.09,0.18-2.97,0.39-5.18,0
		c-11.73-2.04-17.94-18.01-20.73-25.17c-12.46-32.03-9.7-126.66-9.5-132.82c-13.82-3.76-26.4-7.71-40.21-11.47
		c0,22.26-123.02,22.44-123.02,0.19C92.45,3.78,79.21,7.55,65.96,11.31c0,4,0.01,10.03,0,17.36c-0.04,43.04-0.08,64.71-0.86,72.05
		c-1.81,16.94-6.51,60.96-28.5,67.71c-2.79,0.86-5.27,0.93-6.91,0.87c0.72,1.83,1.49,3.86,2.31,6.07"/>
	<path class="st3" d="M32,175.37c2.72,7.36,5.9,16.77,8.92,27.78c10.89,39.77,13.72,78.88,10.36,128.48
		C43.53,446.19,3.01,613.29,1.19,620.71c10.88,2.76,22.72,5.49,35.46,8"/>
	<path class="st3" d="M302.02,175.04C302.02,175.04,302.03,175.04,302.02,175.04l0.31,0c-0.02,0.05-7.09,19.02-10.64,31.58
		c-18.41,65.14-12.72,120.45,2.59,210.95c10.89,64.35,24.22,132.2,40.59,203.13c-11.52,2.93-24.07,5.79-37.57,8.42
		c0,0-0.01-0.02-0.02-0.06"/>
	<path class="st3" d="M302.02,175.04c-1.86-0.03-4.64-0.28-7.74-1.4c-9.89-3.58-15.51-13.38-18.91-22.07l-0.17,0.72
		c-23.95,82.66-27.38,150.77-26.26,196.39c1.43,57.99,10.9,107.74,21.59,163.85c9.07,47.6,26.19,114.31,26.76,116.54"/>
	<path class="st3" d="M32,175.37c-0.01,0-0.02,0-0.03,0.01l-0.28,0c2.72,7.36,5.9,16.77,8.92,27.78
		c10.89,39.77,13.72,78.88,10.36,128.48C43.22,446.19,2.69,613.29,0.88,620.71c10.97,2.79,22.91,5.53,35.76,8.06
		c0,0,0-0.02,0.01-0.06"/>
	<path class="st3" d="M32,175.37c2.64-0.45,6.36-1.36,10.33-3.47c8.09-4.28,13.7-11.58,18.05-22.3l0.18,0.72
		C86.65,249.74,86.7,327.88,82.49,378.7C79.1,419.59,71.16,464.36,66.08,493c-9.74,54.91-28.83,133.26-29.43,135.71"/>
</g>
<path class="st2" d="M234.41,1.9"/>
<path class="st2" d="M99.11,1.9"/>
<rect x="109.58" y="215.05" class="st4" width="31.96" height="12.15"/>
<rect x="194.21" y="215.05" class="st4" width="31.96" height="12.15"/>
<rect x="194.3" y="322.61" class="st4" width="31.96" height="12.15"/>
<rect x="109.66" y="322.61" class="st4" width="31.96" height="12.15"/>
<rect x="109.66" y="310.46" class="st4" width="31.96" height="12.15"/>
<rect x="194.3" y="310.46" class="st4" width="31.96" height="12.15"/>
<path class="st2" d="M234.41,1.9"/>
<path class="st2" d="M99.12,1.9"/>
<g id="BBodyLogos"></g>
</svg>
