<?xml version="1.0" encoding="utf-8"?>
<!-- Generator: Adobe Illustrator 19.1.0, SVG Export Plug-In . SVG Version: 6.00 Build 0)  -->
<svg version="1.1" id="Layer_1" xmlns="http://www.w3.org/2000/svg" xmlns:xlink="http://www.w3.org/1999/xlink" x="0px" y="0px"
	 viewBox="0 0 335.2 641.14" style="enable-background:new 0 0 335.2 641.14;" xml:space="preserve">
<style type="text/css">
	<![CDATA[
	@font-face{font-family:'codaheavy';src:url('/fonts/coda-heavy-webfont.woff') format('woff')}
	text{font-family:Impact,codaheavy,sans-serif}
	.Number.fill{fill:#000}
	.NumberOutline.stroke{fill:none;stroke:#777;stroke-width:2.5}
	.Colour1.fill{fill:#189DD6;}
	.Colour2.fill{fill:#1C2450;}
	.Colour3.fill{fill:#42434F;}
	.NeckAndArmTrim.fill{fill:#1C2450;stroke:#000000;stroke-miterlimit:10;}
	.Gradient1.stopColor{stop-color:#F9A61A;}
	.Gradient2.stopColor{stop-color:#FFCF2C;}
	.st0{fill:url(#SVGID_1_);}
	.st1{fill:url(#SVGID_2_);}
	.st2{fill:url(#SVGID_3_);}
	.st3{fill:url(#SVGID_4_);}
	.st4{fill:url(#SVGID_5_);}
	.st5{fill:url(#SVGID_6_);}
	.st6{fill:url(#SVGID_7_);}
	.st7{fill:url(#SVGID_8_);}
	.st8{fill:url(#SVGID_9_);}
	.st9{fill:url(#SVGID_10_);}
	.st10{fill:url(#SVGID_11_);}
	.st11{fill:url(#SVGID_12_);}
	.st12{fill:url(#SVGID_13_);}
	.st13{fill:url(#SVGID_14_);}
	.st14{fill:url(#SVGID_15_);}
	.st15{fill:none;stroke:#000000;stroke-miterlimit:10;}
	.st16{fill:#FFFFFF;stroke:#000000;}
	]]>
</style>
<path class="Colour1 fill" d="M229.3,0.02c13.79,3.76,24.77,7.52,38.57,11.29c-0.2,6.16-2.96,100.78,9.48,132.82
	c2.78,7.17,8.98,23.13,20.69,25.17c2.21,0.39,4.09,0.18,5.17,0c-3.6,8.71-8.47,21.5-12.93,37.33
	c-18.38,65.14-12.7,120.45,2.59,210.95c10.87,64.35,24.18,132.2,40.52,203.13c-41.35,10.53-95.94,20.26-160.36,20.83
	c-70,0.63-128.92-9.76-172.43-20.83c1.82-7.42,42.27-174.52,50.01-289.08c3.35-49.6,0.53-88.71-10.35-128.48
	c-3.92-14.33-8.11-25.94-11.21-33.86c1.63,0.07,4.11-0.01,6.9-0.87c21.95-6.75,26.65-50.77,28.45-67.71
	c0.78-7.34,0.82-29.01,0.86-72.05c0.01-7.33,0-13.36,0-17.36C78.48,7.55,91.7,3.78,104.92,0.02C104.92,22.21,229.3,22.21,229.3,0.02
	z"/>
<path class="Colour3 fill" d="M112.1,492.43l43.71-45.29l0.59,10.06l-44.27,45.87C112.11,499.54,112.11,495.99,112.1,492.43z
	 M112.19,531.21l45.75-47.41l-0.59-10.06l-45.2,46.83C112.17,524.14,112.18,527.7,112.19,531.21z M112.27,559.33l47.22-48.93
	l-0.59-10.06l-46.67,48.36C112.25,552.29,112.26,555.84,112.27,559.33z M218.85,546.25l-44.31-45.92l-0.59,10.06l44.87,46.49
	C218.83,553.4,218.84,549.85,218.85,546.25z M218.93,518.13l-42.84-44.39l-0.59,10.06l43.4,44.97
	C218.91,525.25,218.92,521.7,218.93,518.13z M218.99,489.99l-41.36-42.85l-0.59,10.06l41.92,43.43
	C218.98,497.1,218.98,493.55,218.99,489.99z M112.06,474.93l42.79-44.33l-0.59-10.06l-42.22,43.75
	C112.05,467.84,112.05,471.39,112.06,474.93z M111.96,418.63l39.79-41.23l-0.59-10.06l-39.22,40.64
	C111.94,411.51,111.95,415.06,111.96,418.63z M112.01,446.78L153.3,404l-0.59-10.06l-40.72,42.19
	C111.99,439.67,112,443.22,112.01,446.78z M219.1,433.69l-38.37-39.75L180.15,404l38.93,40.34
	C219.09,440.78,219.1,437.23,219.1,433.69z M219.28,321.05l-32.34-33.51l-0.59,10.06l32.91,34.1
	C219.27,328.06,219.27,324.51,219.28,321.05z M219.36,264.72l-29.33-30.39l-0.59,10.06l29.9,30.98
	C219.35,271.07,219.36,267.49,219.36,264.72z M219.32,292.88l-30.84-31.95L187.9,271l31.41,32.54
	C219.31,299.8,219.31,296.24,219.32,292.88z M219.54,236.7l-27.96-28.97l-0.59,10.06l28.44,29.47
	C219.46,243.38,219.49,239.88,219.54,236.7z M219.24,349.21l-33.85-35.08l-0.59,10.06l34.42,35.67
	C219.23,356.26,219.23,352.7,219.24,349.21z M219.15,405.53l-36.86-38.2l-0.59,10.06l37.43,38.79
	C219.14,412.62,219.14,409.07,219.15,405.53z M219.05,461.84l-39.86-41.3l-0.59,10.06l40.43,41.89
	C219.03,468.95,219.04,465.39,219.05,461.84z M111.91,390.47l38.29-39.67l-0.59-10.06l-37.72,39.08
	C111.9,383.33,111.9,386.88,111.91,390.47z M219.19,377.37l-35.36-36.64l-0.59,10.06l35.93,37.23
	C219.18,384.44,219.19,380.89,219.19,377.37z M231.57,249.84l0.33-0.34l-0.32-0.33C231.57,249.4,231.57,249.61,231.57,249.84z
	 M231.31,391.14l0.58-0.61l-0.58-0.6C231.31,390.33,231.31,390.74,231.31,391.14z M231.11,504.18l0.79-0.82l-0.79-0.82
	C231.11,503.09,231.11,503.63,231.11,504.18z M231.27,419.39l0.63-0.65l-0.63-0.65C231.27,418.52,231.27,418.96,231.27,419.39z
	 M231.16,475.91l0.73-0.76l-0.73-0.75C231.17,474.9,231.17,475.41,231.16,475.91z M231.22,447.65l0.68-0.7l-0.68-0.7
	C231.22,446.71,231.22,447.18,231.22,447.65z M231.35,362.89l0.54-0.56l-0.54-0.56C231.36,362.14,231.36,362.51,231.35,362.89z
	 M111.87,362.31l36.78-38.11l-0.59-10.06l-36.21,37.52C111.86,355.15,111.86,358.7,111.87,362.31z M231.43,306.4l0.46-0.48
	l-0.46-0.48C231.43,305.76,231.43,306.08,231.43,306.4z M231.39,334.64l0.5-0.52l-0.5-0.52C231.4,333.95,231.4,334.29,231.39,334.64
	z M231.48,278.15l0.42-0.44l-0.42-0.43C231.48,277.57,231.48,277.85,231.48,278.15z M111.74,277.82L144,244.4l-0.59-10.06
	l-31.69,32.84C111.73,270.08,111.73,273.66,111.74,277.82z M111.66,249.7l30.79-31.91l-0.59-10.06l-30.29,31.39
	C111.61,242.31,111.64,245.82,111.66,249.7z M111.79,305.98L145.55,271l-0.59-10.06l-33.19,34.39
	C111.77,298.7,111.78,302.25,111.79,305.98z M111.81,323.54c0,3.43,0.01,6.98,0.02,10.6l35.27-36.55l-0.59-10.06l-34.7,35.96
	C111.81,323.51,111.81,323.53,111.81,323.54z M230.86,589.05l1.03-1.07l-1.03-1.06C230.87,587.63,230.86,588.34,230.86,589.05z
	 M231.04,532.45l0.86-0.89l-0.85-0.89C231.04,531.27,231.04,531.86,231.04,532.45z M230.96,560.74l0.94-0.97l-0.93-0.97
	C230.96,559.45,230.96,560.1,230.96,560.74z M112.33,576.81c0.01,3.63,0.03,7.18,0.04,10.63L161.04,537l-0.59-10.06L112.33,576.81z
	 M218.76,574.37l-45.78-47.43L172.4,537l46.32,48C218.74,581.54,218.75,578,218.76,574.37z"/>
<g>
	<linearGradient id="SVGID_1_" gradientUnits="userSpaceOnUse" x1="61.4545" y1="372.4098" x2="109.7895" y2="372.4098">
		<stop class="Gradient2 stopColor" offset="0" style="stop-color:#FFCF2C"/>
		<stop class="Gradient1 stopColor" offset="1" style="stop-color:#F9A61A"/>
	</linearGradient>
	<path class="st0" d="M108.82,259.45c-0.15-31.96-0.01-41.57-4-56.26c-6.41-23.57-15.82-32.07-28.76-63.83
		c-5.28-12.94-9.03-24.57-11.64-33.62c-0.63,5.49-1.53,12.41-2.97,19.66c1.96,5.84,4.29,12.22,7.04,18.98
		c12.69,31.11,21.89,39.42,28.17,62.5c3.01,11.08,3.62,19.22,3.81,36.68c0.05,5.2,0.07,11.23,0.11,18.41
		c0.09,20.55,0.32,301.83,0.93,376.34c2.73,0.27,5.49,0.52,8.27,0.76C109.15,565.16,108.92,280.59,108.82,259.45z"/>
	<linearGradient id="SVGID_2_" gradientUnits="userSpaceOnUse" x1="222.9058" y1="369.2111" x2="272.5396" y2="369.2111">
		<stop class="Gradient2 stopColor" offset="0" style="stop-color:#FFCF2C"/>
		<stop class="Gradient1 stopColor" offset="1" style="stop-color:#F9A61A"/>
	</linearGradient>
	<path class="st1" d="M232.11,261.87c0.04-7.19,0.05-13.22,0.12-18.41c0.18-17.47,0.79-25.6,3.8-36.68
		c6.28-23.09,15.48-31.4,28.17-62.5c3.38-8.31,6.13-16.06,8.34-22.92c-1.03-6.87-1.84-14.4-2.47-22.2
		c-2.56,9.61-6.8,23.83-13.43,40.11c-12.95,31.77-22.35,40.25-28.76,63.83c-3.99,14.68-3.85,24.29-4,56.26
		c-0.09,21.16-0.33,306.48-0.97,379.93c2.77-0.23,5.54-0.46,8.27-0.72C231.8,564.39,232.02,282.46,232.11,261.87z"/>
</g>
<g>
	<linearGradient id="SVGID_3_" gradientUnits="userSpaceOnUse" x1="167.566" y1="165.7126" x2="167.566" y2="597.527">
		<stop class="Gradient1 stopColor" offset="0" style="stop-color:#F9A61A"/>
		<stop class="Gradient2 stopColor" offset="1" style="stop-color:#FFCF2C"/>
	</linearGradient>
	<polygon class="st2" points="155.12,391.33 156.48,414.06 178.65,414.06 180.01,391.33 	"/>
	<linearGradient id="SVGID_4_" gradientUnits="userSpaceOnUse" x1="167.566" y1="165.7126" x2="167.566" y2="597.527">
		<stop class="Gradient1 stopColor" offset="0" style="stop-color:#F9A61A"/>
		<stop class="Gradient2 stopColor" offset="1" style="stop-color:#FFCF2C"/>
	</linearGradient>
	<polygon class="st3" points="151.96,338.62 153.32,361.35 181.81,361.35 183.17,338.62 	"/>
	<linearGradient id="SVGID_5_" gradientUnits="userSpaceOnUse" x1="167.566" y1="165.7126" x2="167.566" y2="597.527">
		<stop class="Gradient1 stopColor" offset="0" style="stop-color:#F9A61A"/>
		<stop class="Gradient2 stopColor" offset="1" style="stop-color:#FFCF2C"/>
	</linearGradient>
	<polygon class="st4" points="156.7,417.69 158.06,440.42 177.07,440.42 178.43,417.69 	"/>
	<linearGradient id="SVGID_6_" gradientUnits="userSpaceOnUse" x1="167.566" y1="165.7126" x2="167.566" y2="597.527">
		<stop class="Gradient1 stopColor" offset="0" style="stop-color:#F9A61A"/>
		<stop class="Gradient2 stopColor" offset="1" style="stop-color:#FFCF2C"/>
	</linearGradient>
	<polygon class="st5" points="173.91,493.13 175.27,470.4 159.86,470.4 161.22,493.13 	"/>
	<linearGradient id="SVGID_7_" gradientUnits="userSpaceOnUse" x1="167.566" y1="165.7126" x2="167.566" y2="597.527">
		<stop class="Gradient1 stopColor" offset="0" style="stop-color:#F9A61A"/>
		<stop class="Gradient2 stopColor" offset="1" style="stop-color:#FFCF2C"/>
	</linearGradient>
	<polygon class="st6" points="158.28,444.04 159.64,466.77 175.49,466.77 176.85,444.04 	"/>
	<linearGradient id="SVGID_8_" gradientUnits="userSpaceOnUse" x1="167.566" y1="165.7126" x2="167.566" y2="597.527">
		<stop class="Gradient1 stopColor" offset="0" style="stop-color:#F9A61A"/>
		<stop class="Gradient2 stopColor" offset="1" style="stop-color:#FFCF2C"/>
	</linearGradient>
	<polygon class="st7" points="192.14,188.94 193.8,161.31 141.33,161.31 142.99,188.94 	"/>
	<linearGradient id="SVGID_9_" gradientUnits="userSpaceOnUse" x1="167.566" y1="165.7126" x2="167.566" y2="597.527">
		<stop class="Gradient1 stopColor" offset="0" style="stop-color:#F9A61A"/>
		<stop class="Gradient2 stopColor" offset="1" style="stop-color:#FFCF2C"/>
	</linearGradient>
	<polygon class="st8" points="153.54,364.98 154.9,387.71 180.23,387.71 181.59,364.98 	"/>
	<linearGradient id="SVGID_10_" gradientUnits="userSpaceOnUse" x1="167.566" y1="165.7126" x2="167.566" y2="597.527">
		<stop class="Gradient1 stopColor" offset="0" style="stop-color:#F9A61A"/>
		<stop class="Gradient2 stopColor" offset="1" style="stop-color:#FFCF2C"/>
	</linearGradient>
	<polygon class="st9" points="145.51,231.06 146.81,252.64 188.33,252.64 189.62,231.06 	"/>
	<linearGradient id="SVGID_11_" gradientUnits="userSpaceOnUse" x1="167.566" y1="165.7126" x2="167.566" y2="597.527">
		<stop class="Gradient1 stopColor" offset="0" style="stop-color:#F9A61A"/>
		<stop class="Gradient2 stopColor" offset="1" style="stop-color:#FFCF2C"/>
	</linearGradient>
	<polygon class="st10" points="150.38,312.27 151.74,335 183.39,335 184.75,312.27 	"/>
	<linearGradient id="SVGID_12_" gradientUnits="userSpaceOnUse" x1="167.566" y1="165.7126" x2="167.566" y2="597.527">
		<stop class="Gradient1 stopColor" offset="0" style="stop-color:#F9A61A"/>
		<stop class="Gradient2 stopColor" offset="1" style="stop-color:#FFCF2C"/>
	</linearGradient>
	<polygon class="st11" points="161.44,496.75 167.57,598.99 173.69,496.75 	"/>
	<linearGradient id="SVGID_13_" gradientUnits="userSpaceOnUse" x1="167.566" y1="165.7126" x2="167.566" y2="597.527">
		<stop class="Gradient1 stopColor" offset="0" style="stop-color:#F9A61A"/>
		<stop class="Gradient2 stopColor" offset="1" style="stop-color:#FFCF2C"/>
	</linearGradient>
	<polygon class="st12" points="143.69,200.6 144.92,221.18 190.21,221.18 191.44,200.6 	"/>
	<linearGradient id="SVGID_14_" gradientUnits="userSpaceOnUse" x1="167.566" y1="165.7126" x2="167.566" y2="597.527">
		<stop class="Gradient1 stopColor" offset="0" style="stop-color:#F9A61A"/>
		<stop class="Gradient2 stopColor" offset="1" style="stop-color:#FFCF2C"/>
	</linearGradient>
	<polygon class="st13" points="147.22,259.51 148.58,282.29 186.55,282.29 187.91,259.51 	"/>
	<linearGradient id="SVGID_15_" gradientUnits="userSpaceOnUse" x1="167.566" y1="165.7126" x2="167.566" y2="597.527">
		<stop class="Gradient1 stopColor" offset="0" style="stop-color:#F9A61A"/>
		<stop class="Gradient2 stopColor" offset="1" style="stop-color:#FFCF2C"/>
	</linearGradient>
	<polygon class="st14" points="148.8,285.91 150.16,308.64 184.97,308.64 186.33,285.91 	"/>
</g>
<path class="st15" d="M234.58,1.9"/>
<path class="st15" d="M99.53,1.9"/>
<g>
	<rect x="109.97" y="215.05" class="st16" width="31.9" height="12.15"/>
	<rect x="194.46" y="215.05" class="st16" width="31.9" height="12.15"/>
	<rect x="194.54" y="322.61" class="st16" width="31.9" height="12.15"/>
	<rect x="110.05" y="322.61" class="st16" width="31.9" height="12.15"/>
	<rect x="110.05" y="310.46" class="st16" width="31.9" height="12.15"/>
	<rect x="194.54" y="310.46" class="st16" width="31.9" height="12.15"/>
</g>
<path class="Colour2 fill" d="M301.81,175.04c-1.85-0.03-4.64-0.28-7.73-1.4c-9.87-3.58-15.48-13.38-18.88-22.07l-0.17,0.72
	c-23.91,82.66-27.33,150.77-26.21,196.39c1.42,57.99,10.88,107.74,21.55,163.85c9.2,48.41,26.73,116.6,26.73,116.6
	c13.48-2.62,26-5.49,37.5-8.42c-16.35-70.93-29.65-138.78-40.52-203.13c-15.28-90.5-20.96-145.81-2.59-210.95
	c3.54-12.56,10.6-31.53,10.62-31.58L301.81,175.04z"/>
<path class="Colour2 fill" d="M32.22,175.38c2.63-0.44,6.36-1.36,10.35-3.47c8.08-4.28,13.67-11.58,18.02-22.3l0.18,0.72
	c26.04,99.42,26.1,177.55,21.89,228.37c-3.38,40.89-11.31,85.66-16.38,114.3c-9.88,55.78-29.4,135.77-29.4,135.77
	c-12.83-2.53-24.75-5.28-35.7-8.06C3,613.29,43.45,446.19,51.19,331.63c3.35-49.6,0.53-88.71-10.35-128.48
	c-3.01-11.01-6.19-20.42-8.9-27.78L32.22,175.38z"/>
<path class="NeckAndArmTrim fill" d="M32.1,175.38c2.63-0.44,6.36-1.36,10.35-3.47c11.75-6.22,18.24-18.85,23.28-39.06
	c5.95-23.88,5.69-41.65,6.04-78.13c0.19-20.26,0.47-36.36,0.64-45.31l-6.68,1.9c0,4,0.01,10.03,0,17.36
	c-0.04,43.04-0.08,64.71-0.86,72.05c-1.81,16.94-6.5,60.96-28.45,67.71c-2.79,0.86-5.27,0.93-6.9,0.87L32.1,175.38z"/>
<path class="NeckAndArmTrim fill" d="M302.11,175.05c-1.84-0.01-4.77-0.22-8.03-1.41c-14.29-5.18-19.66-23.42-22.31-32.44
	c-11.52-39.17-8.98-124.16-8.73-131.63l6.04,1.74c-0.2,6.16-2.96,100.78,9.48,132.82c2.78,7.17,8.98,23.13,20.69,25.17
	c2.21,0.39,4.09,0.18,5.17,0L302.11,175.05z"/>
<path class="NeckAndArmTrim fill" d="M98.08,1.85c9.78,6.22,35.6,20.81,71.39,20.12c32.89-0.64,56.56-13.84,66.44-20.14l-8.27-2.25
	c-10.15,5.47-31.3,15.12-59.67,15.37c-29.63,0.26-51.7-9.87-61.9-15.37L98.08,1.85z"/>
<g id="BBodyLogos"></g>
</svg>
