<?xml version="1.0" encoding="utf-8"?>
<!-- Generator: Adobe Illustrator 19.1.0, SVG Export Plug-In . SVG Version: 6.00 Build 0)  -->
<svg version="1.1" id="Layer_1" xmlns="http://www.w3.org/2000/svg" xmlns:xlink="http://www.w3.org/1999/xlink" x="0px" y="0px"
	 viewBox="0 0 335.2 641.14" style="enable-background:new 0 0 335.2 641.14;" xml:space="preserve">
<style type="text/css">
	<![CDATA[
	@font-face{font-family:'codaheavy';src:url('/fonts/coda-heavy-webfont.woff') format('woff')}
	text{font-family:Impact,codaheavy,sans-serif}
	.Colour1.fill{fill:#333333;}
	.Colour2.fill{fill:#676767;}
	.Colour3.fill{fill:#C8C8C8;}
	.Colour4.fill{fill:#959595;}
	.Colour5.fill{fill:#FFFFFF;}
	.NeckAndArmTrim.fill{fill:#333333;stroke:#000000;stroke-miterlimit:10;}
	.Gradient1.stopColor{stop-color:#FFFFFF;}
	.Gradient2.stopColor{stop-color:#F1F1F1;}
	.Gradient3.stopColor{stop-color:#000000;}
	.st0{fill:url(#SVGID_1_);}
	.st1{fill:none;stroke:#000000;stroke-miterlimit:10;}
	.st2{fill:#FFFFFF;stroke:#000000;}
	.st3{fill:none;stroke:#000000;stroke-linecap:round;stroke-linejoin:round;}
	]]>
</style>
<g>
	<g>
		<linearGradient id="SVGID_1_" gradientUnits="userSpaceOnUse" x1="167.601" y1="-97.2599" x2="167.601" y2="729.6708">
			<stop class="Gradient1 stopColor" offset="0.1171" style="stop-color:#FFFFFF"/>
			<stop class="Gradient2 stopColor" offset="0.3567" style="stop-color:#F1F1F1"/>
			<stop class="Gradient3 stopColor" offset="1" style="stop-color:#000000"/>
		</linearGradient>
		<path class="st0" d="M291.34,206.32c4.48-15.84,9.37-28.64,12.98-37.35c-1.09,0.18-2.97,0.39-5.19,0
			c-11.75-2.05-17.97-18.02-20.77-25.19c-12.49-32.06-9.72-126.75-9.52-132.91c-13.84-3.76-27.69-7.53-41.53-11.29
			c-2.39,18.33-9.83,53.47-37.21,84.26c-8.08,9.09-16.47,16.19-24.23,21.72c-7.75-5.49-16.15-12.58-24.23-21.72
			c-27.32-30.9-34.24-66.28-36.34-84.26C92.03,3.33,78.76,7.1,65.5,10.86c0,4,0.01,10.04,0,17.37c-0.04,43.07-0.08,64.76-0.87,72.1
			c-1.81,16.96-6.52,61-28.55,67.76c-2.8,0.86-5.28,0.93-6.92,0.87c3.11,7.92,7.32,19.54,11.25,33.88
			c10.91,39.79,13.75,78.93,10.38,128.57C43.02,446.06,2.42,613.27,0.6,620.69c43.67,11.08,102.8,21.48,173.06,20.85
			c64.65-0.58,119.45-10.32,160.94-20.85c-16.41-70.98-29.76-138.88-40.67-203.28C278.6,326.86,272.89,271.5,291.34,206.32z"/>
	</g>
</g>
<g>
	<polygon points="290.56,606.22 290.56,606.22 290.56,606.22 	"/>
	<polygon points="105.83,141.29 105.83,141.29 105.83,141.29 	"/>
	<polygon points="166.93,248.56 166.93,248.56 166.93,248.56 	"/>
	<polygon points="105.26,141.29 105.26,141.29 105.26,141.29 	"/>
	<polygon points="167.22,606.22 167.22,606.22 167.22,606.22 	"/>
	<polygon points="228.89,498.99 228.89,498.99 228.89,498.99 	"/>
	<polygon points="228.6,141.29 228.6,141.29 228.6,141.29 	"/>
	<path d="M166.56,605.93l-57.16,33.13c0.38,0.03,0.76,0.07,1.14,0.1l56.34-32.66v-0.38L166.56,605.93z"/>
	<path d="M228.56,570.76v68.05c0.22-0.02,0.44-0.04,0.66-0.06v-67.99l-0.33-0.19L228.56,570.76z"/>
	<path d="M44.21,606.5l54.42,31.54c0.53,0.05,1.06,0.11,1.6,0.16l-55.69-32.28l-0.33,0.19V606.5z"/>
	<path d="M233.69,1.31l34.9,20.23c0-0.26,0.01-0.51,0.01-0.76l-32.43-18.8C235.35,1.76,234.52,1.53,233.69,1.31z"/>
	<path d="M99.66,1.17L65.5,20.97c0,0.25,0,0.51,0,0.76l36.74-21.29C101.38,0.68,100.52,0.93,99.66,1.17z"/>
	<path d="M105.22,570.76v67.93c0.22,0.02,0.44,0.04,0.66,0.06v-67.99l-0.33-0.19L105.22,570.76z"/>
	<polygon points="43.88,606.22 43.88,606.22 43.88,606.22 	"/>
	<path d="M105.22,355.06l-53.97-31.28c-0.01,0.24-0.03,0.49-0.04,0.74l53.68,31.12l0.33-0.19V355.06z"/>
	<path d="M43.55,606.08v0.42h0v23.62c0.22,0.04,0.44,0.08,0.66,0.12V606.5h0v-0.42l0.3-0.17l0.03,0.02l60.68-35.17v-0.04l0.33-0.19
		l0.33,0.19v0.04l60.68,35.17l0.03-0.02l0.3,0.17v0.42l0,0v35.06c0.22,0,0.44,0,0.66,0V606.5l56.41,32.7
		c0.38-0.03,0.76-0.07,1.15-0.1l-57.23-33.17l-0.33,0.19v-0.04l0.3-0.17l0.03,0.02l60.68-35.17v-0.04l0.33-0.19l0.33,0.19v0.04
		l60.68,35.17l0.03-0.02l0.3,0.17v0.04l-0.33-0.19l-55.82,32.36c0.54-0.05,1.07-0.11,1.6-0.16l54.55-31.62v23.88
		c0.22-0.04,0.44-0.08,0.66-0.12V606.5l30.15,17.47c0.31-0.07,0.63-0.15,0.94-0.22l-30.76-17.83l-0.33,0.19v-0.04l0.3-0.17
		l0.03,0.02l35.44-20.54c-0.05-0.24-0.1-0.47-0.16-0.71l-35.61,20.64v0.04l-0.33,0.19l-0.33-0.19v-0.04l-60.68-35.17l-0.03,0.02
		l-0.3-0.17v-0.04l0.33,0.19l60.68-35.17v70.34l0.33,0.19l0.33-0.19v-70.34l28.48,16.51c-0.06-0.29-0.12-0.58-0.18-0.87
		l-27.97-16.21l22.02-12.76c-0.05-0.23-0.09-0.46-0.14-0.68l-22.21,12.87v-70.34l-0.33-0.19l-0.33,0.19v70.34l-60.68-35.17
		l-0.33,0.19v0l0.33-0.19l0,0l60.68-35.17v0l0.33-0.19l0,0v0l0.33,0.19v0l12.52,7.25c-0.05-0.28-0.11-0.57-0.16-0.86l-12.03-6.97
		l0,0l-0.33-0.19l0,0l0.33,0.19l9.73-5.64c-0.04-0.23-0.08-0.46-0.12-0.69l-9.93,5.76v-63.28c-0.22-1.37-0.44-2.74-0.66-4.1v67.38
		l-60.68-35.17l60.25-34.92c-0.04-0.24-0.07-0.47-0.11-0.7l-60.47,35.05v-70.34l-0.33-0.19l-0.33,0.19v70.34l-60.68-35.17
		l-0.33,0.19v-0.04l0.3-0.17l0.03,0.02l60.68-35.17v-0.04l0.33-0.19l0.33,0.19v0.04l60.42,35.02c-0.05-0.3-0.09-0.59-0.14-0.88
		l-59.95-34.75l-0.03,0.02l-0.3-0.17v-0.04l0.33,0.19l51.77-30.01c-0.02-0.24-0.04-0.49-0.06-0.73l-52.04,30.16v-70.34l51.3,29.74
		c-0.02-0.26-0.03-0.52-0.04-0.79l-50.93-29.52l-0.33,0.19v0l0.33-0.19l0,0l52.29-30.31c0.03-0.28,0.07-0.55,0.1-0.83l-52.72,30.56
		l0,0l-0.33,0.19l-0.33-0.19l0,0l-60.68-35.17h0l-0.33-0.19v0l0.33,0.19l60.68-35.17v70.35l0.33,0.19l0.33-0.19v-70.34l53.87,31.23
		c0.04-0.23,0.07-0.47,0.1-0.7l-53.65-31.1l60.68-35.17v32.92c0.22-0.81,0.44-1.61,0.66-2.42v-30.5l8.25,4.78
		c0.08-0.21,0.16-0.42,0.23-0.63l-8.15-4.72l-0.33,0.19v-0.04l0.3-0.17l0.03,0.02l12.91-7.49c0.06-0.15,0.13-0.31,0.19-0.45
		c-0.29,0.05-0.64,0.1-1.02,0.14l-12.41,7.19v0.04l-0.33,0.19l-0.33-0.19v-0.04l-60.68-35.17l-0.03,0.02l-0.3-0.17v-0.04l0.33,0.19
		l42.75-24.78c-0.03-0.24-0.06-0.47-0.09-0.71l-42.99,24.92V70.2l40.9,23.71c-0.02-0.27-0.04-0.53-0.06-0.8l-40.51-23.48l-0.33,0.19
		v0l0.33-0.19l0,0l38.92-22.56c0-0.26,0-0.51,0-0.76l-39.25,22.75v0l-0.33,0.19l-0.33-0.19v0l-19.89-11.53
		c-0.11,0.19-0.22,0.38-0.33,0.58l19.89,11.53l0,0l0.33,0.19v0l-0.33-0.19l-60.68,35.17v-0.48c-0.41,0.3-0.83,0.61-1.24,0.9
		l0.25,0.14l-60.68,35.17v0.38l0.33,0.19l60.68-35.17v70.34l0.33,0.19l0.33-0.19v-70.34l60.68,35.17l0.33-0.19v0.04l-0.3,0.17
		l-0.03-0.02l-60.68,35.17v0.04l-0.33,0.19l-0.33-0.19v-0.04l-60.68-35.17l-0.03,0.02l-0.3-0.17v-0.04l0,0v-0.38l0,0V70.2l0,0v-0.38
		l0,0v0l0.33-0.19l0,0L124.2,59.2c-0.11-0.19-0.21-0.39-0.32-0.58l-18,10.43l0,0l-0.33,0.19v0h0l-0.33-0.19v0L65.48,46.02
		c0,0.25,0,0.51,0,0.76l39.41,22.85l0,0l0.33,0.19v0l0,0v0.38l0,0v70.34l0,0v0.38l0,0v0.04l-0.3,0.17l-0.03-0.02l-60.68,35.17v0.04
		l-0.33,0.19l-0.33-0.19v-0.04l-12.66-7.34c-0.5,0.02-0.95,0.02-1.36,0.01l13.69,7.93l0.03-0.02l0.3,0.17v0.42h0v37.86
		c0.22,0.94,0.45,1.89,0.66,2.83v-40.69h0v-0.42l0.3-0.17l0.03,0.02l60.68-35.17v-0.04l0.33-0.19l0.33,0.19v0.04l60.68,35.17
		l0.03-0.02l0.3,0.17v0.42l0,0v70.34l0,0v0.38l-0.33,0.19l0,0L124.11,273l-18.23,10.57v0l-0.33,0.19l0,0h0l-0.33-0.19l0,0
		l-55.45-32.14c0.03,0.27,0.06,0.55,0.09,0.82l55.03,31.9l0,0l0.33,0.19v0l0,0v0.38l0,0v70.34l0,0v0.38l0,0v0.04l-0.3,0.17
		l-0.03-0.02l-60.18,34.88c-0.04,0.29-0.08,0.58-0.11,0.87l60.62-35.14v-0.04l0.33-0.19l0.33,0.19v0.04l60.68,35.17l0.03-0.02
		l0.3,0.17v0.42l0,0v70.34l0,0v0.38l-0.33,0.19l0,0l-44.54,25.82l-16.14,9.35l0,0l-0.33,0.19v0h0l-0.33-0.19v0l-60.68-35.17l0,0
		l-0.33-0.19v-0.38l0,0v-68.02c-0.22,1.61-0.44,3.23-0.66,4.84v63.18l0,0v0.38l-0.33,0.19l0,0l-10.86,6.29
		c-0.05,0.28-0.1,0.57-0.15,0.85l11.34-6.57v0l0.33-0.19l0.33,0.19l0,0l60.68,35.17l0,0l0.33,0.19v0l0,0v0.38l0,0v70.34l0,0v0.38
		l0,0v0.04l-0.3,0.17l-0.03-0.02l-60.68,35.17v0.04l-0.33,0.19l-0.33-0.19v-0.04L8.86,585.21c-0.05,0.24-0.11,0.47-0.16,0.71
		l34.52,20.01l0.03-0.02L43.55,606.08z M44.04,606.22l-0.16,0.1l-0.16-0.1c-0.03-0.02-0.03-0.05-0.05-0.07l0.05,0.03
		c0.05,0.03,0.11,0.04,0.16,0.04c-0.16,0-0.28-0.13-0.31-0.28c0-0.06-0.01-0.12,0.02-0.18c0.03-0.05,0.07-0.09,0.12-0.12
		c0.05-0.03,0.11-0.04,0.16-0.04c0,0,0,0,0,0c0,0,0,0,0,0c0.05,0,0.11,0.01,0.16,0.04c0.05,0.03,0.09,0.07,0.12,0.12
		c0.03,0.06,0.03,0.12,0.02,0.18c-0.03,0.16-0.15,0.28-0.31,0.28c0.06,0,0.11-0.01,0.16-0.04l0.05-0.03
		C44.08,606.17,44.07,606.2,44.04,606.22z M105.71,570.43c0.09-0.05,0.15-0.15,0.16-0.26c0,0.01,0.01,0.01,0.01,0.02v0.15
		L105.71,570.43z M105.88,569.96v-0.38l0,0v-70.34l0,0v-0.38l0,0v0l0.33-0.19l0,0l60.68-35.17l0,0l0.33-0.19l0.33,0.19l0,0
		l60.68,35.17l0,0l0.33,0.19v0l-0.33-0.19l-60.68,35.17v-70.34l-0.33-0.19l-0.33,0.19v70.34l-60.68-35.17l-0.33,0.19v0.38
		l60.68,35.17l-60.68,35.17L105.88,569.96l0.33,0.19l60.68-35.17v70.34l0.33,0.19l0.33-0.19v-70.34l60.68,35.17l0.33-0.19v0.04
		l-0.3,0.17l-0.03-0.02l-60.68,35.17v0.04l-0.33,0.19l-0.33-0.19v-0.04l-60.68-35.17l-0.03,0.02l-0.3-0.17L105.88,569.96
		L105.88,569.96z M167.55,463.1l-0.16,0.1c0.1-0.06,0.16-0.17,0.16-0.29V463.1z M228.56,498.46l0.16-0.1
		c-0.1,0.06-0.16,0.17-0.16,0.29V498.46z M228.56,499.23v70.34l-60.68-35.17L228.56,499.23z M167.05,605.64
		c-0.09,0.05-0.15,0.15-0.16,0.26c0-0.01-0.01-0.01-0.01-0.02v-0.15L167.05,605.64z M167.06,605.64L167.06,605.64
		C167.05,605.64,167.06,605.64,167.06,605.64z M167.38,606.22l-0.16,0.1l-0.16-0.1c-0.03-0.02-0.03-0.05-0.05-0.07l0.05,0.03
		c0.05,0.03,0.11,0.04,0.16,0.04c-0.16,0-0.28-0.13-0.31-0.28c0-0.06-0.01-0.12,0.02-0.18c0.03-0.05,0.07-0.09,0.12-0.12
		c0.05-0.03,0.11-0.04,0.16-0.04c0.06,0,0.11,0.01,0.16,0.04c0.05,0.03,0.09,0.07,0.12,0.12c0.03,0.06,0.03,0.12,0.02,0.18
		c-0.03,0.16-0.15,0.28-0.31,0.28c0.06,0,0.11-0.01,0.16-0.04l0.05-0.03C167.41,606.17,167.41,606.2,167.38,606.22z M167.38,605.64
		C167.38,605.64,167.38,605.64,167.38,605.64L167.38,605.64z M167.55,605.89c0,0.01-0.01,0.01-0.01,0.01
		c-0.01-0.11-0.06-0.21-0.16-0.26l0.16,0.1V605.89z M228.56,570.34v-0.15c0-0.01,0.01-0.01,0.01-0.02c0.01,0.11,0.06,0.21,0.16,0.26
		L228.56,570.34z M290.72,606.22l-0.16,0.1l-0.16-0.1c-0.03-0.02-0.03-0.05-0.05-0.07l0.05,0.03c0.05,0.03,0.11,0.04,0.16,0.04
		c-0.16,0-0.28-0.13-0.31-0.28c0-0.06-0.01-0.12,0.02-0.18c0.03-0.05,0.07-0.09,0.12-0.12c0.05-0.03,0.11-0.04,0.16-0.04
		s0.11,0.01,0.16,0.04c0.05,0.03,0.09,0.07,0.12,0.12c0.03,0.06,0.03,0.12,0.02,0.18c-0.03,0.15-0.15,0.28-0.31,0.28
		c0.06,0,0.11-0.01,0.16-0.04l0.05-0.03C290.75,606.17,290.75,606.2,290.72,606.22z M290.89,605.74v0.15c0,0.01-0.01,0.01-0.01,0.02
		c-0.01-0.11-0.06-0.21-0.16-0.26L290.89,605.74z M290.72,605.64L290.72,605.64L290.72,605.64z M290.39,605.64
		C290.39,605.64,290.39,605.64,290.39,605.64L290.39,605.64z M290.39,605.64c-0.09,0.05-0.15,0.15-0.16,0.26
		c0-0.01-0.01-0.01-0.01-0.01v-0.15L290.39,605.64z M229.05,570.43c0.09-0.05,0.15-0.15,0.16-0.26c0,0.01,0.01,0.01,0.01,0.02v0.15
		L229.05,570.43z M229.2,570.13c0,0.06,0.01,0.12-0.02,0.18c-0.04,0.07-0.1,0.1-0.17,0.13c-0.04,0.02-0.08,0.02-0.12,0.02
		c-0.04,0-0.08,0-0.12-0.02c-0.06-0.03-0.13-0.06-0.16-0.13c-0.03-0.06-0.03-0.12-0.02-0.18c0.03-0.16,0.15-0.28,0.31-0.28
		c-0.06,0-0.11,0.01-0.16,0.04l-0.05,0.03c0.02-0.02,0.03-0.05,0.05-0.07l0.16-0.1l0.16,0.1c0.03,0.02,0.03,0.05,0.05,0.07
		l-0.05-0.03c-0.05-0.03-0.11-0.04-0.16-0.04C229.05,569.85,229.17,569.98,229.2,570.13z M289.9,534.4l-60.68,35.17v-70.34
		L289.9,534.4z M228.89,499.04l-0.16-0.1c0.05,0.03,0.11,0.04,0.16,0.04c-0.07,0-0.14-0.04-0.19-0.08c-0.03-0.03-0.05-0.06-0.07-0.1
		c-0.02-0.04-0.04-0.07-0.05-0.11c-0.01-0.07-0.01-0.14,0.03-0.21c0.03-0.05,0.07-0.09,0.12-0.12c0.05-0.03,0.11-0.04,0.16-0.04
		c0.06,0,0.11,0.01,0.16,0.04c0.05,0.03,0.09,0.07,0.12,0.12c0.04,0.07,0.04,0.14,0.03,0.21c-0.01,0.04-0.03,0.08-0.05,0.11
		c-0.02,0.04-0.04,0.07-0.07,0.1c-0.06,0.04-0.12,0.08-0.19,0.08c0.06,0,0.11-0.01,0.16-0.04L228.89,499.04z M228.72,498.37
		L228.72,498.37L228.72,498.37z M229.05,498.37C229.05,498.37,229.05,498.37,229.05,498.37L229.05,498.37z M229.22,498.66
		c0-0.12-0.06-0.23-0.16-0.29l0.16,0.1V498.66z M290.23,463.1v-0.19c0,0.12,0.06,0.23,0.16,0.28L290.23,463.1z M290.89,462.91v0.19
		l-0.17,0.1C290.82,463.14,290.89,463.03,290.89,462.91L290.89,462.91C290.89,462.91,290.89,462.91,290.89,462.91z M290.72,462.62
		c-0.05-0.03-0.11-0.04-0.16-0.04c0.07,0,0.14,0.04,0.19,0.08c0.03,0.03,0.06,0.06,0.08,0.1c0.02,0.03,0.04,0.07,0.05,0.11
		c0.01,0.07,0.01,0.14-0.03,0.21c-0.04,0.07-0.1,0.1-0.17,0.13c-0.04,0.02-0.08,0.02-0.12,0.02c-0.04,0-0.08,0-0.12-0.02
		c-0.06-0.03-0.13-0.06-0.16-0.13c-0.04-0.06-0.04-0.14-0.03-0.21c0.01-0.04,0.03-0.08,0.05-0.12c0.02-0.03,0.04-0.07,0.07-0.1
		c0.06-0.04,0.12-0.08,0.19-0.08c-0.06,0-0.11,0.01-0.16,0.04l0,0c0,0,0,0,0,0l0.17-0.1L290.72,462.62z M290.23,462.72l-0.33,0.19
		l0,0l-60.68,35.17v0l-0.33,0.19l-0.33-0.19v0l-60.68-35.17l0,0l-0.33-0.19v0l0.33,0.19l60.68-35.17v70.34l0.33,0.19l0.33-0.19
		v-70.34l60.68,35.17L290.23,462.72L290.23,462.72z M228.23,427.16l-60.68,35.17v-70.34L228.23,427.16z M167.55,391.38
		c0,0.01-0.01,0.01-0.01,0.02c-0.01-0.11-0.06-0.21-0.16-0.26l0.16,0.1V391.38z M106.17,355.65l-0.3-0.17v-0.04l0,0v-0.38l0,0
		v-70.34l0,0v-0.38l0,0l0,0l0.33-0.19v0l60.68-35.17v0l0.33-0.19l0.33,0.19v0l60.68,35.17l0,0l0.33,0.19v0l-0.33-0.19l-60.68,35.17
		v-70.34l-0.33-0.19l-0.33,0.19v70.34l-60.68-35.17l-0.33,0.19v0.38l60.68,35.17l-60.68,35.17v0.38l0.33,0.19l60.68-35.17v70.34
		l0.33,0.19l0.33-0.19v-70.34l60.68,35.17l0.33-0.19v0.04l-0.3,0.17l-0.03-0.02l-60.68,35.17v0.04l-0.33,0.19l-0.33-0.19v-0.04
		l-60.68-35.17L106.17,355.65z M105.28,284.3c-0.02-0.04-0.04-0.07-0.05-0.12c-0.01-0.07-0.01-0.14,0.03-0.21
		c0.03-0.05,0.07-0.09,0.12-0.12c0.05-0.03,0.11-0.04,0.16-0.04s0.11,0.01,0.16,0.04c0.05,0.03,0.09,0.07,0.12,0.12
		c0.04,0.07,0.04,0.14,0.03,0.21c-0.01,0.04-0.03,0.08-0.05,0.11c-0.02,0.04-0.04,0.07-0.07,0.1c-0.06,0.04-0.12,0.08-0.19,0.08
		c-0.08,0-0.14-0.04-0.19-0.08C105.32,284.37,105.3,284.33,105.28,284.3z M229.15,284.3c-0.02,0.04-0.04,0.07-0.07,0.1
		c-0.06,0.04-0.12,0.08-0.19,0.08c-0.07,0-0.14-0.04-0.19-0.08c-0.03-0.03-0.05-0.06-0.07-0.1s-0.04-0.07-0.05-0.11
		c-0.01-0.07-0.01-0.14,0.03-0.21c0.03-0.05,0.07-0.09,0.12-0.12c0.05-0.03,0.11-0.04,0.16-0.04c0.06,0,0.11,0.01,0.16,0.04
		c0.05,0.03,0.09,0.07,0.12,0.12c0.04,0.07,0.04,0.14,0.03,0.21C229.19,284.23,229.17,284.26,229.15,284.3z M228.56,284.72v70.34
		l-60.68-35.17L228.56,284.72z M167.38,391.13L167.38,391.13L167.38,391.13z M228.56,355.82v-0.15c0-0.01,0.01-0.01,0.01-0.02
		c0.01,0.11,0.06,0.21,0.16,0.26L228.56,355.82z M229.05,355.92c0.09-0.05,0.15-0.15,0.16-0.26c0,0.01,0.01,0.01,0.01,0.02v0.15
		L229.05,355.92z M229.05,355.35c0.03,0.02,0.03,0.05,0.05,0.07l-0.05-0.03c-0.05-0.03-0.11-0.04-0.16-0.04
		c0.16,0,0.28,0.13,0.31,0.28c0,0.06,0.01,0.12-0.02,0.18c-0.04,0.07-0.1,0.1-0.17,0.13c-0.04,0.02-0.08,0.02-0.12,0.02
		c-0.04,0-0.08,0-0.12-0.02c-0.06-0.03-0.13-0.06-0.16-0.13c-0.03-0.06-0.03-0.12-0.02-0.18c0.03-0.16,0.15-0.28,0.31-0.28
		c-0.06,0-0.11,0.01-0.16,0.04l-0.05,0.03c0.02-0.02,0.03-0.05,0.05-0.07l0.16-0.1L229.05,355.35z M228.89,284.53l-0.16-0.1
		c0.1,0.06,0.23,0.06,0.33,0L228.89,284.53z M229.22,283.95v0.19c0-0.12-0.06-0.23-0.16-0.29L229.22,283.95z M229.05,283.86
		L229.05,283.86L229.05,283.86z M228.72,283.86C228.72,283.86,228.73,283.85,228.72,283.86L228.72,283.86z M228.72,283.86
		c-0.1,0.06-0.16,0.17-0.16,0.29v-0.19L228.72,283.86z M167.55,248.59l-0.16,0.1c0.1-0.06,0.16-0.17,0.16-0.29V248.59z
		 M167.55,247.82v-70.34l60.68,35.17L167.55,247.82z M229.22,212.08v-70.34l-0.33-0.19l-0.33,0.19v70.34l-60.68-35.17l-0.33,0.19
		v-0.04l0.3-0.17l0.03,0.02l60.68-35.17v-0.04l0.33-0.19l0.33,0.19v0.04l60.68,35.17l0.03-0.02l0.3,0.17v0.04l-0.33-0.19
		L229.22,212.08z M166.91,176.92c0-0.06-0.01-0.12,0.02-0.18c0.03-0.05,0.07-0.09,0.12-0.12c0.05-0.03,0.11-0.04,0.16-0.04
		c0.06,0,0.11,0.01,0.16,0.04c0.05,0.03,0.09,0.07,0.12,0.12c0.03,0.06,0.03,0.12,0.02,0.18c-0.03,0.16-0.15,0.28-0.31,0.28
		C167.05,177.2,166.94,177.07,166.91,176.92z M290.56,177.2c-0.16,0-0.28-0.13-0.31-0.28c0-0.06-0.01-0.12,0.02-0.18
		c0.03-0.05,0.07-0.09,0.12-0.12c0.05-0.03,0.11-0.04,0.16-0.04c0.06,0,0.11,0.01,0.16,0.04c0.05,0.03,0.09,0.07,0.12,0.12
		c0.03,0.06,0.03,0.12,0.02,0.18C290.84,177.07,290.72,177.2,290.56,177.2z M290.72,177.19l-0.16,0.1l-0.16-0.1
		c-0.03-0.02-0.03-0.05-0.05-0.07l0.05,0.03c0.1,0.06,0.23,0.06,0.33,0l0.05-0.03C290.75,177.15,290.75,177.18,290.72,177.19z
		 M290.89,176.71v0.15c0,0.01-0.01,0.01-0.01,0.02c-0.01-0.11-0.06-0.21-0.16-0.26L290.89,176.71z M290.72,176.62L290.72,176.62
		C290.72,176.62,290.72,176.62,290.72,176.62z M290.39,176.62C290.39,176.62,290.39,176.62,290.39,176.62L290.39,176.62z
		 M290.39,176.62c-0.09,0.05-0.15,0.15-0.16,0.26c0-0.01-0.01-0.01-0.01-0.01v-0.15L290.39,176.62z M229.05,141.41
		c0.09-0.05,0.15-0.15,0.16-0.26c0,0.01,0.01,0.01,0.01,0.02v0.15L229.05,141.41z M229.22,69.44v0.19c0-0.12-0.06-0.23-0.16-0.29
		L229.22,69.44z M229.05,69.34L229.05,69.34C229.05,69.34,229.05,69.34,229.05,69.34z M228.56,69.44l0.16-0.1
		c-0.1,0.06-0.16,0.17-0.16,0.29V69.44z M228.73,69.34L228.73,69.34L228.73,69.34z M228.7,69.88c-0.03-0.03-0.05-0.06-0.07-0.1
		c-0.02-0.04-0.04-0.07-0.05-0.11c-0.01-0.07-0.01-0.14,0.03-0.21c0.03-0.05,0.07-0.09,0.12-0.12c0.05-0.03,0.11-0.04,0.16-0.04
		c0.06,0,0.11,0.01,0.16,0.04c0.05,0.03,0.09,0.07,0.12,0.12c0.04,0.07,0.04,0.14,0.03,0.21c-0.01,0.04-0.03,0.08-0.05,0.11
		c-0.02,0.04-0.04,0.07-0.07,0.1c-0.06,0.04-0.12,0.08-0.19,0.08c0.06,0,0.11-0.01,0.16-0.04l-0.16,0.1l-0.16-0.1
		c0.05,0.03,0.11,0.04,0.16,0.04C228.81,69.96,228.75,69.92,228.7,69.88z M167.88,105.38l60.68-35.17v70.34L167.88,105.38z
		 M228.56,141.16c0-0.01,0.01-0.01,0.01-0.02c0,0.05,0.01,0.1,0.04,0.14c-0.03-0.06-0.03-0.12-0.02-0.18
		c0.03-0.16,0.15-0.28,0.31-0.28c-0.06,0-0.11,0.01-0.16,0.04l-0.05,0.03c0.02-0.02,0.03-0.05,0.05-0.07l0.16-0.1l0.16,0.1
		c0.03,0.02,0.03,0.05,0.05,0.07l-0.05-0.03c-0.05-0.03-0.11-0.04-0.16-0.04c0.16,0,0.28,0.13,0.31,0.28c0,0.06,0.01,0.12-0.02,0.18
		c-0.04,0.07-0.1,0.1-0.16,0.13c-0.04,0.02-0.08,0.02-0.12,0.02c-0.04,0-0.08,0-0.12-0.02c-0.06-0.03-0.13-0.06-0.16-0.13
		c0.03,0.05,0.07,0.09,0.12,0.12l-0.16-0.1V141.16z M167.55,176.71v0.15c0,0.01-0.01,0.01-0.01,0.01c-0.01-0.11-0.06-0.21-0.16-0.26
		L167.55,176.71z M167.38,176.62L167.38,176.62C167.38,176.62,167.38,176.62,167.38,176.62z M167.05,176.62
		C167.05,176.62,167.06,176.62,167.05,176.62L167.05,176.62z M105.88,69.63c0-0.12-0.06-0.23-0.16-0.29l0.16,0.1V69.63z
		 M105.71,69.34L105.71,69.34L105.71,69.34z M105.39,69.34L105.39,69.34C105.39,69.34,105.39,69.34,105.39,69.34z M105.38,69.34
		c-0.1,0.06-0.16,0.17-0.16,0.28v-0.19L105.38,69.34z M105.38,69.92L105.38,69.92L105.38,69.92c0.05,0.03,0.11,0.04,0.17,0.04
		c-0.08,0-0.14-0.04-0.19-0.08c-0.03-0.03-0.05-0.06-0.07-0.1c-0.02-0.04-0.04-0.07-0.05-0.12c-0.01-0.07-0.01-0.14,0.03-0.21
		c0.03-0.05,0.07-0.09,0.12-0.12c0.05-0.03,0.11-0.04,0.16-0.04s0.11,0.01,0.16,0.04c0.05,0.03,0.09,0.07,0.12,0.12
		c0.04,0.07,0.04,0.14,0.03,0.21c-0.01,0.04-0.03,0.08-0.05,0.11c-0.02,0.04-0.04,0.07-0.07,0.1c-0.06,0.04-0.12,0.08-0.19,0.08
		c0.06,0,0.11-0.01,0.16-0.04l-0.17,0.1L105.38,69.92z M43.88,177.2c-0.16,0-0.28-0.13-0.31-0.28c0-0.06-0.01-0.12,0.02-0.18
		c0.03-0.05,0.07-0.09,0.12-0.12c0.05-0.03,0.11-0.04,0.16-0.04c0,0,0,0,0,0c0,0,0,0,0,0c0.06,0,0.11,0.01,0.16,0.04
		c0.05,0.03,0.09,0.07,0.12,0.12c0.03,0.06,0.03,0.12,0.02,0.18C44.16,177.07,44.04,177.2,43.88,177.2z M44.04,176.62
		C44.04,176.62,44.04,176.62,44.04,176.62L44.04,176.62z M43.72,176.62C43.72,176.62,43.72,176.62,43.72,176.62L43.72,176.62z
		 M43.71,176.62L43.71,176.62L43.71,176.62c-0.09,0.05-0.15,0.15-0.16,0.26c0-0.01-0.01-0.01-0.01-0.01v-0.15L43.71,176.62z
		 M44.04,177.19l-0.16,0.1l-0.16-0.1c-0.03-0.02-0.03-0.05-0.05-0.07l0.05,0.03c0.1,0.06,0.23,0.06,0.33,0l0.05-0.03
		C44.08,177.14,44.07,177.18,44.04,177.19z M44.21,176.87c0,0.01-0.01,0.01-0.01,0.02c-0.01-0.11-0.06-0.21-0.16-0.26h0c0,0,0,0,0,0
		l0.16,0.1V176.87z M105.71,141.41c0.05-0.03,0.09-0.07,0.12-0.12c-0.04,0.07-0.1,0.1-0.16,0.13c-0.04,0.02-0.08,0.02-0.12,0.02
		s-0.08,0-0.12-0.02c-0.06-0.03-0.13-0.06-0.16-0.13c0.03,0.05,0.07,0.09,0.12,0.12l-0.16-0.09v-0.15c0-0.01,0.01-0.01,0.01-0.01
		c0,0.05,0.01,0.1,0.04,0.14c-0.03-0.06-0.03-0.12-0.02-0.18c0.03-0.16,0.15-0.28,0.31-0.28c-0.06,0-0.11,0.01-0.16,0.04l-0.05,0.03
		c0.02-0.02,0.03-0.05,0.05-0.07l0.16-0.1l0.17,0.1c0.03,0.02,0.03,0.05,0.05,0.07l-0.05-0.03c-0.05-0.03-0.11-0.04-0.16-0.04
		c0.16,0,0.28,0.13,0.31,0.28c0,0.06,0.01,0.12-0.02,0.18c0.02-0.04,0.03-0.09,0.04-0.14c0,0.01,0.01,0.01,0.01,0.02v0.15
		L105.71,141.41z M167.05,176.62c-0.09,0.05-0.15,0.15-0.16,0.26c0-0.01-0.01-0.01-0.01-0.01v-0.15L167.05,176.62z M167.05,177.19
		c-0.03-0.02-0.03-0.05-0.05-0.07l0.05,0.03c0.1,0.06,0.23,0.06,0.33,0l0.05-0.03c-0.02,0.02-0.03,0.05-0.05,0.07l-0.16,0.1
		L167.05,177.19z M166.89,248.4c0,0.06,0.02,0.12,0.04,0.17c-0.04-0.07-0.04-0.14-0.03-0.21c0.01-0.04,0.03-0.08,0.05-0.11
		c0.02-0.04,0.04-0.07,0.07-0.1c0.06-0.04,0.12-0.08,0.19-0.08c-0.06,0-0.11,0.01-0.16,0.04l0.16-0.1l0.16,0.1
		c-0.05-0.03-0.11-0.04-0.16-0.04c0.07,0,0.14,0.04,0.19,0.08c0.03,0.03,0.05,0.06,0.07,0.1c0.02,0.04,0.04,0.07,0.05,0.11
		c0.01,0.07,0.01,0.14-0.03,0.21c-0.04,0.07-0.1,0.1-0.17,0.13c-0.04,0.02-0.08,0.02-0.12,0.02c-0.04,0-0.08,0-0.12-0.02
		c-0.06-0.03-0.13-0.06-0.16-0.13c0.03,0.05,0.07,0.09,0.12,0.12l-0.16-0.1V248.4z M105.88,284.14c0-0.12-0.06-0.23-0.16-0.29
		l0.16,0.1V284.14z M105.71,283.86L105.71,283.86C105.71,283.85,105.71,283.86,105.71,283.86z M105.38,283.86
		C105.39,283.86,105.39,283.85,105.38,283.86L105.38,283.86z M105.38,283.86c-0.1,0.06-0.16,0.17-0.16,0.28v-0.19L105.38,283.86z
		 M105.38,284.43L105.38,284.43L105.38,284.43c0.1,0.06,0.23,0.06,0.33,0l-0.17,0.1L105.38,284.43z M105.38,355.35l0.16-0.1
		l0.17,0.1c0.03,0.02,0.03,0.05,0.05,0.07l-0.05-0.03c-0.05-0.03-0.11-0.04-0.16-0.04c0.16,0,0.28,0.13,0.31,0.28
		c0,0.06,0.01,0.12-0.02,0.18c-0.04,0.07-0.1,0.1-0.17,0.13c-0.04,0.02-0.08,0.02-0.12,0.02c-0.04,0-0.08,0-0.12-0.02
		c-0.06-0.03-0.13-0.06-0.16-0.13c-0.03-0.06-0.03-0.12-0.02-0.18c0.03-0.16,0.15-0.28,0.31-0.28c-0.06,0-0.11,0.01-0.16,0.04
		l-0.05,0.03C105.35,355.4,105.36,355.36,105.38,355.35z M105.22,355.67c0-0.01,0.01-0.01,0.01-0.01c0.01,0.11,0.06,0.21,0.16,0.26
		l-0.16-0.09V355.67z M105.71,355.92c0.09-0.05,0.15-0.15,0.16-0.26c0,0.01,0.01,0.01,0.01,0.02v0.15L105.71,355.92z M167.05,391.13
		c-0.09,0.05-0.15,0.15-0.16,0.26c0-0.01-0.01-0.01-0.01-0.02v-0.15L167.05,391.13z M167.06,391.13L167.06,391.13
		C167.05,391.13,167.06,391.13,167.06,391.13z M167.05,391.71c-0.03-0.02-0.03-0.05-0.05-0.07l0.05,0.03
		c0.05,0.03,0.11,0.04,0.16,0.04c-0.16,0-0.28-0.13-0.31-0.28c0-0.06-0.01-0.12,0.02-0.18c0.03-0.05,0.07-0.09,0.12-0.12
		c0.05-0.03,0.11-0.04,0.16-0.04c0.06,0,0.11,0.01,0.16,0.04c0.05,0.03,0.09,0.07,0.12,0.12c0.03,0.06,0.03,0.12,0.02,0.18
		c-0.03,0.16-0.15,0.28-0.31,0.28c0.06,0,0.11-0.01,0.16-0.04l0.05-0.03c-0.02,0.02-0.03,0.05-0.05,0.07l-0.16,0.1L167.05,391.71z
		 M167.22,462.53l0.16,0.1c-0.05-0.03-0.11-0.04-0.16-0.04c0.07,0,0.14,0.04,0.19,0.08c0.03,0.03,0.05,0.06,0.07,0.1
		c0.02,0.04,0.04,0.07,0.05,0.11c0.01,0.07,0.01,0.14-0.03,0.21c-0.04,0.07-0.1,0.1-0.16,0.13c-0.04,0.02-0.08,0.02-0.12,0.02
		c-0.04,0-0.08,0-0.12-0.02c-0.06-0.03-0.13-0.06-0.16-0.13c-0.04-0.07-0.04-0.14-0.03-0.21c0.01-0.04,0.03-0.08,0.05-0.11
		c0.02-0.04,0.04-0.07,0.07-0.1c0.06-0.04,0.12-0.08,0.19-0.08c-0.06,0-0.11,0.01-0.16,0.04L167.22,462.53z M166.89,462.91
		c0,0.12,0.06,0.23,0.16,0.29l-0.16-0.1V462.91z M105.88,498.66c0-0.12-0.06-0.23-0.16-0.29l0.16,0.1V498.66z M105.71,498.37
		L105.71,498.37L105.71,498.37z M105.39,498.37L105.39,498.37C105.39,498.37,105.39,498.37,105.39,498.37z M43.88,462.53l0.16,0.1
		c-0.05-0.03-0.11-0.04-0.16-0.04c0.07,0,0.14,0.04,0.19,0.08c0.03,0.03,0.05,0.06,0.07,0.1c0.02,0.04,0.04,0.07,0.05,0.11
		c0.01,0.07,0.01,0.14-0.03,0.21c-0.04,0.07-0.1,0.1-0.17,0.13c-0.04,0.02-0.08,0.02-0.12,0.02c-0.04,0-0.08,0-0.12-0.02
		c-0.06-0.03-0.13-0.06-0.16-0.13c-0.04-0.07-0.04-0.14-0.03-0.21c0.01-0.04,0.03-0.08,0.05-0.11s0.04-0.07,0.07-0.1
		c0.06-0.04,0.12-0.08,0.19-0.08c-0.06,0-0.11,0.01-0.16,0.04L43.88,462.53z M43.71,463.2l-0.16-0.1v-0.19
		C43.55,463.03,43.61,463.14,43.71,463.2L43.71,463.2L43.71,463.2z M44.04,463.2L44.04,463.2L44.04,463.2
		c0.1-0.06,0.16-0.17,0.16-0.29v0l0,0v0.19L44.04,463.2z M105.38,498.37c-0.1,0.06-0.16,0.17-0.16,0.28v-0.19L105.38,498.37z
		 M105.38,498.94L105.38,498.94L105.38,498.94c0.05,0.03,0.11,0.04,0.16,0.04c-0.07,0-0.14-0.04-0.19-0.08
		c-0.03-0.03-0.05-0.06-0.07-0.1c-0.02-0.04-0.04-0.07-0.05-0.12c-0.01-0.07-0.01-0.14,0.03-0.21c0.03-0.05,0.07-0.09,0.12-0.12
		c0.05-0.03,0.11-0.04,0.16-0.04s0.11,0.01,0.16,0.04c0.05,0.03,0.09,0.07,0.12,0.12c0.04,0.07,0.04,0.14,0.03,0.21
		c-0.01,0.04-0.03,0.08-0.05,0.11c-0.02,0.04-0.04,0.07-0.07,0.1c-0.06,0.04-0.12,0.08-0.19,0.08c0.06,0,0.11-0.01,0.16-0.04
		l-0.17,0.1L105.38,498.94z M105.38,569.86l0.16-0.1l0.17,0.1c0.03,0.02,0.03,0.05,0.05,0.07l-0.05-0.03
		c-0.05-0.03-0.11-0.04-0.16-0.04c0.16,0,0.28,0.13,0.31,0.28c0,0.06,0.01,0.12-0.02,0.18c-0.04,0.07-0.1,0.1-0.17,0.13
		c-0.04,0.02-0.08,0.02-0.12,0.02c-0.04,0-0.08,0-0.12-0.02c-0.06-0.03-0.13-0.06-0.16-0.13c-0.03-0.06-0.03-0.12-0.02-0.18
		c0.03-0.16,0.15-0.28,0.31-0.28c-0.06,0-0.11,0.01-0.16,0.04l-0.05,0.03C105.35,569.91,105.36,569.88,105.38,569.86z
		 M105.22,570.19c0-0.01,0.01-0.01,0.01-0.01c0.01,0.11,0.06,0.21,0.16,0.26l-0.16-0.09V570.19z M44.21,605.74v0.15
		c0,0.01-0.01,0.01-0.01,0.02c-0.01-0.11-0.06-0.21-0.16-0.26h0c0,0,0,0,0,0L44.21,605.74z M44.04,605.64L44.04,605.64L44.04,605.64
		z M43.72,605.64L43.72,605.64L43.72,605.64z M43.71,605.64L43.71,605.64L43.71,605.64c-0.09,0.05-0.15,0.15-0.16,0.26
		c0-0.01-0.01-0.01-0.01-0.01v-0.15L43.71,605.64z"/>
	<path d="M105.88,283.57v-70.34l60.68,35.17l0.33-0.19v-0.38l-60.68-35.17l60.68-35.17v-0.38l-0.33-0.19l-60.68,35.17v-70.34
		l-0.33-0.19l-0.33,0.19v70.34l-60.68-35.17l-0.33,0.19v0.38l60.68,35.17l-55.91,32.41c0.03,0.24,0.07,0.47,0.1,0.71l56.14-32.54
		v70.35l0.33,0.19L105.88,283.57z"/>
	<path d="M43.55,606.12l-0.33-0.19l-30.55,17.71c0.31,0.07,0.62,0.15,0.94,0.22l29.94-17.35V606.12z"/>
	<path d="M104.89,284.14l-53.21,30.84c-0.01,0.26-0.02,0.52-0.04,0.79l53.58-31.05v-0.38L104.89,284.14z"/>
	<path d="M44.21,605.32v-70.34l60.68,35.17l0.33-0.19v-0.38L44.54,534.4l60.68-35.17v-0.38l-0.33-0.19l-60.68,35.17v-70.34
		l-0.33-0.19l-0.33,0.19v70.34L22.4,521.57c-0.05,0.23-0.09,0.46-0.14,0.68l20.95,12.15l-26.65,15.45
		c-0.06,0.29-0.12,0.58-0.18,0.87l27.17-15.75v70.34l0.33,0.19L44.21,605.32z"/>
	<polygon points="105.55,498.99 105.55,498.99 105.55,498.99 	"/>
	<path d="M44.54,462.91l60.68-35.17v70.34l0.33,0.19l0.33-0.19v-70.34l60.68,35.17l0.33-0.19v-0.38l-60.68-35.17l60.68-35.17v-0.38
		l-0.33-0.19l-60.68,35.17v-70.34l-0.33-0.19l-0.33,0.19v70.34l-60.63-35.14c-0.03,0.24-0.06,0.47-0.09,0.71l60.4,35.01
		l-60.68,35.17v0.38L44.54,462.91z"/>
	<path d="M43.55,462.34l-9.06-5.25c-0.04,0.23-0.08,0.46-0.12,0.69l8.85,5.13l0.33-0.19V462.34z"/>
	<path d="M105.88,70.2l56.31,32.64c-1.23-0.93-2.47-1.91-3.72-2.92l-52.25-30.29l-0.33,0.19V70.2z"/>
	<path d="M105.88,69.06V4c-0.22-1.57-0.42-3.05-0.58-4.43c-0.03,0.01-0.06,0.02-0.08,0.02v69.46l0.33,0.19L105.88,69.06z"/>
	<path d="M290.89,176.29v-11.51c-0.22-0.2-0.44-0.4-0.66-0.6v12.11l0.33,0.19L290.89,176.29z"/>
	<path d="M229.22,69.06V0.09c-0.22-0.06-0.44-0.12-0.66-0.18v69.15l0.33,0.19L229.22,69.06z"/>
	<path d="M105.22,140.55L62.69,115.9c-0.04,0.23-0.07,0.47-0.11,0.7l42.3,24.52l0.33-0.19V140.55z"/>
	<path d="M104.89,69.63L65.07,92.71c-0.01,0.26-0.02,0.53-0.03,0.78l40.17-23.29v-0.38L104.89,69.63z"/>
	<path d="M44.21,176.29v-12.95c-0.22,0.2-0.43,0.41-0.66,0.6v12.35l0.33,0.19L44.21,176.29z"/>
	<path d="M43.22,176.91l-9.19,5.32c0.07,0.21,0.15,0.42,0.22,0.64l9.3-5.39v-0.38L43.22,176.91z"/>
</g>
<path class="Colour5 fill" d="M184.9,288.9l8.64-5.01l-8.64-5.01V288.9z M61.27,288.9l8.64-5.01l-8.64-5.01V288.9z M148.54,278.88
	l-8.64,5.01l8.64,5.01V278.88z M215.93,377.16l-24.69,14.33l24.69,14.31V377.16z M92.97,377.16l-24.69,14.33l24.69,14.31V377.16z"/>
<path class="Colour2 fill" d="M279.52,518.25l-33.87-19.63l33.87-19.65V518.25z M177.6,518.25l33.87-19.65l-33.87-19.63L177.6,518.25z
	 M240.96,480.69l30.48-17.67l-30.48-17.69L240.96,480.69z M92.81,445.33L62.33,463l30.48,17.69L92.81,445.33z"/>
<path class="Colour3 fill" d="M122.51,314.93l8.64,5.01l-8.64,5.01V314.93z M117.62,480.69L148.11,463l-30.48-17.67V480.69z
	 M151.68,345.65l-17.28,10.03l17.28,10.02V345.65z M202.23,319.95l8.64,5.01v-10.02L202.23,319.95z M28.34,534.55l-7.67-4.45
	c-0.7,3.43-1.4,6.8-2.08,10.1L28.34,534.55z M59.77,365.7l17.28-10.02l-17.28-10.03V365.7z M274.51,365.7v-20.05l-17.28,10.03
	L274.51,365.7z M254.88,319.95l-8.64-5.01v10.02L254.88,319.95z M216.15,480.69v-35.36l-30.48,17.69L216.15,480.69z"/>
<path class="Colour4 fill" d="M182.6,345.65l17.28,10.03L182.6,365.7V345.65z M219.73,512.71l-37.63,21.84l37.63,21.81V512.71z
	 M127.6,427.05l27.44,15.9l0-31.82L127.6,427.05z M118.22,405.8l24.69-14.31l-24.69-14.33V405.8z M114.05,556.36l37.63-21.81
	l-37.63-21.84L114.05,556.36z M54.26,518.3l33.87-19.65l-33.87-19.63V518.3z M56.15,442.95l27.43-15.9l-27.43-15.92V442.95z
	 M156.18,518.25v-39.29l-33.87,19.63L156.18,518.25z M241.18,377.16v28.64l24.69-14.31L241.18,377.16z M278,411.13l-27.43,15.92
	l27.43,15.9V411.13z M305.44,481.58l-4.5-2.61v39.29l10.41-6.04C309.31,501.92,307.35,491.72,305.44,481.58z M179.12,442.95
	l27.43-15.9l-27.43-15.92V442.95z"/>
<path class="Colour1 fill" d="M283.49,631.59c-10.43,1.81-21.37,3.45-32.78,4.86l32.78-19.02V631.59z M159.82,545.93L118,570.2
	l41.82,24.24V545.93z M212.62,640.05l-38.99-22.63v24.12c0.01,0,0.02,0,0.03,0C187.09,641.42,200.07,640.89,212.62,640.05z
	 M296.96,545.93v48.5l28.11-16.29c-1.33-6.08-2.63-12.14-3.91-18.17L296.96,545.93z M296.96,617.43v11.68
	c5.09-0.99,10.05-2.01,14.86-3.05L296.96,617.43z M159.82,617.43l-38.83,22.53c12.49,0.86,25.44,1.41,38.83,1.56V617.43z
	 M111.96,630.32l41.82-24.24l-41.82-24.26V630.32z M36.65,594.44l0-48.5l-21.96,12.74c-1.57,7.32-3.07,14.17-4.47,20.44
	L36.65,594.44z M50.45,617.43v13.95c10.31,1.81,21.14,3.46,32.45,4.88L50.45,617.43z M36.64,617.43l-14.44,8.38
	c4.67,1.03,9.49,2.03,14.44,3V617.43z M330.36,621.74c1.41-0.35,2.85-0.7,4.24-1.05c-2.24-9.71-4.42-19.35-6.55-28.95l-24.71,14.34
	L330.36,621.74z M98.48,581.82l-41.81,24.26l41.81,24.24V581.82z M235.3,581.82v48.5l41.81-24.24L235.3,581.82z M96.39,556.36
	v-43.65l-37.63,21.84L96.39,556.36z M283.49,545.93l-41.81,24.26l41.81,24.24V545.93z M50.45,594.44l41.81-24.24l-41.81-24.26
	V594.44z M173.63,594.44l41.81-24.24l-41.81-24.26V594.44z M314.75,529.14l-9.32,5.41l11.81,6.85
	C316.39,537.29,315.58,533.22,314.75,529.14z M221.82,581.82L180,606.08l41.82,24.24V581.82z M237.39,556.36l37.63-21.81
	l-37.63-21.84V556.36z M7.19,592.59c-3.67,16.14-6.16,26.39-6.59,28.1c1.06,0.27,2.14,0.54,3.22,0.81l26.61-15.42L7.19,592.59z"/>
<path class="st1" d="M98.67,1.45c1.6,14.45,6.57,41.47,24.8,69.35c14.38,22.01,31.28,35.76,42.4,43.44
	c11.12-7.34,27.93-20.47,42.4-41.7C227.72,44,232.69,15.88,234.22,1.45"/>
<path class="st1" d="M72.2,8.96c-0.17,8.95-0.45,25.06-0.65,45.34c-0.34,36.5-0.09,54.28-6.06,78.18
	c-5.05,20.23-11.57,32.87-23.36,39.09c-4,2.11-7.74,3.03-10.38,3.47"/>
<path class="st1" d="M262.78,9.13c-0.25,7.48-2.8,92.53,8.76,131.73c2.66,9.02,8.04,27.27,22.39,32.46
	c3.28,1.18,6.21,1.39,8.06,1.41"/>
<path class="st1" d="M107.61,14.02c8.95,5.27,30.13,16.11,59.12,15.96c28.27-0.15,48.92-10.69,57.87-15.96"/>
<path class="st1" d="M109.45,22c10.2,5.01,29.77,12.96,55.56,13.19c27.06,0.24,47.57-8.13,57.87-13.19"/>
<g>
	<rect x="109.19" y="214.75" class="st2" width="32.02" height="12.16"/>
	<rect x="193.99" y="214.75" class="st2" width="32.02" height="12.16"/>
	<rect x="194.07" y="322.38" class="st2" width="32.02" height="12.16"/>
	<rect x="109.28" y="322.38" class="st2" width="32.02" height="12.16"/>
	<rect x="109.28" y="310.22" class="st2" width="32.02" height="12.16"/>
	<rect x="193.99" y="310.22" class="st2" width="32.02" height="12.16"/>
</g>
<path class="Colour1 fill" d="M301.69,174.71c-1.86-0.03-4.66-0.28-7.76-1.4c-9.9-3.58-15.54-13.39-18.95-22.09l-0.17,0.72
	c-24,82.72-27.43,150.88-26.31,196.53c1.43,58.03,10.92,107.82,21.63,163.97c9.24,48.44,26.82,116.68,26.82,116.68
	c13.53-2.63,26.1-5.5,37.64-8.42c-16.41-70.98-29.76-138.88-40.67-203.28c-15.34-90.56-21.04-145.91-2.6-211.1
	c3.56-12.57,10.64-31.55,10.66-31.6L301.69,174.71z"/>
<path class="Colour1 fill" d="M31.75,175.05c2.64-0.44,6.39-1.36,10.38-3.47c8.11-4.28,13.72-11.59,18.08-22.32l0.18,0.72
	c26.13,99.49,26.19,177.68,21.97,228.53c-3.4,40.92-11.35,85.72-16.44,114.38c-9.91,55.82-29.5,135.87-29.5,135.87
	c-12.88-2.54-24.84-5.28-35.83-8.07c1.82-7.43,42.42-174.64,50.19-289.28c3.36-49.63,0.53-88.77-10.38-128.57
	c-3.02-11.02-6.21-20.43-8.93-27.8L31.75,175.05z"/>
<g>
	<path class="st3" d="M40.17,202.81c-0.33-1.22-0.67-2.4-1.01-3.58"/>
	<path class="st3" d="M38.92,198.38c-0.33-1.15-0.67-2.29-1-3.41"/>
	<path class="st1" d="M49.15,247.93c-1.92-15.33-4.88-30.16-8.97-45.08c0-0.01-0.01-0.02-0.01-0.03"/>
	<path class="st1" d="M26.34,500.41c-0.29,1.49-0.58,2.98-0.86,4.46"/>
	<path class="st3" d="M36.64,190.81c-0.33-1.05-0.66-2.09-0.99-3.1"/>
	<path class="st3" d="M37.81,194.61c-0.31-1.02-0.62-2.02-0.92-3.01"/>
	<path class="st1" d="M23.78,513.57c-0.33,1.65-0.65,3.28-0.98,4.91"/>
	<path class="st3" d="M21.65,524.19c0.38-1.89,0.76-3.79,1.15-5.71"/>
	<path class="st1" d="M49.15,247.93c0.64,5.11,1.16,10.27,1.58,15.51"/>
	<path class="st1" d="M6.04,596.66c-0.23,1.02-0.46,2.02-0.69,2.98"/>
	<path class="st1" d="M51.47,275.37c0.12,2.68,0.22,5.39,0.29,8.13"/>
	<path class="st1" d="M50.73,263.44c0.21,2.62,0.39,5.26,0.54,7.92"/>
	<line class="st1" x1="51.9" y1="295.98" x2="51.9" y2="295.98"/>
	<path class="st1" d="M11.71,571.35c-0.27,1.22-0.53,2.43-0.8,3.61"/>
	<path class="st1" d="M15.5,553.83c-0.49,2.31-0.98,4.58-1.46,6.8"/>
	<path class="st3" d="M51.9,295.98c-0.04,11.27-0.49,23.02-1.33,35.43c-0.85,12.54-2.09,25.71-3.63,39.22"/>
	<path class="st1" d="M16.49,549.15c-0.33,1.58-0.66,3.14-0.99,4.68"/>
	<path class="st3" d="M35.48,187.21c-0.29-0.89-0.58-1.77-0.87-2.63"/>
	<path class="st3" d="M330.22,621.73c-0.48,0.12-0.97,0.24-1.45,0.35"/>
	<path class="st3" d="M321.64,623.8c-0.62,0.15-1.26,0.29-1.89,0.44"/>
	<path class="st3" d="M317.2,624.82c-0.65,0.15-1.29,0.29-1.95,0.44"/>
	<path class="st3" d="M308,626.83c-0.65,0.14-1.31,0.28-1.96,0.41"/>
	<path class="st3" d="M334.38,620.69c-0.06,0.01-0.11,0.03-0.17,0.04"/>
	<path class="st3" d="M312.65,625.83c-0.65,0.14-1.31,0.29-1.97,0.43"/>
	<path class="st3" d="M325.97,622.77c-0.58,0.14-1.17,0.28-1.75,0.42"/>
	<path class="st1" d="M33.65,628.25c0.81,0.16,1.61,0.33,2.43,0.49"/>
	<path class="st3" d="M34.39,183.92c-0.32-0.96-0.64-1.89-0.96-2.8"/>
	<path class="st3" d="M311.98,516.59c3.38,16.95,6.92,34.1,10.65,51.46"/>
	<path class="st3" d="M33.24,180.57c-0.28-0.79-0.55-1.57-0.82-2.32"/>
	<path class="st3" d="M302.36,466.36c3.04,16.53,6.25,33.27,9.62,50.22"/>
	<path class="st1" d="M28.93,627.28c0.79,0.17,1.58,0.33,2.38,0.49"/>
	<path class="st3" d="M31.32,175.24c0.3,0.81,0.6,1.63,0.91,2.49"/>
	<path class="st3" d="M11.71,571.35c0.3-1.38,0.61-2.77,0.92-4.19"/>
	<path class="st1" d="M36.64,190.81c0.08,0.26,0.16,0.52,0.24,0.78"/>
	<path class="st3" d="M16.49,549.15c0.33-1.58,0.67-3.18,1.01-4.79"/>
	<path class="st1" d="M34.39,183.92c0.07,0.22,0.15,0.44,0.22,0.66"/>
	<path class="st1" d="M33.24,180.57c0.06,0.18,0.13,0.36,0.19,0.55"/>
	<path class="st1" d="M35.48,187.21c0.05,0.17,0.11,0.33,0.16,0.5"/>
	<path class="st1" d="M5.35,599.64c-0.33,1.45-0.65,2.83-0.96,4.14"/>
	<path class="st3" d="M303.19,627.83c-0.62,0.13-1.25,0.26-1.87,0.38"/>
	<path class="st3" d="M9.52,581.23c0.28-1.26,0.57-2.54,0.86-3.85"/>
	<path class="st1" d="M38.92,198.38c0.08,0.28,0.16,0.57,0.25,0.86"/>
	<path class="st3" d="M23.78,513.57c0.57-2.87,1.14-5.77,1.71-8.7"/>
	<path class="st3" d="M19.56,534.47c0.52-2.52,1.04-5.08,1.57-7.67"/>
	<path class="st1" d="M32.23,177.73c0.06,0.17,0.12,0.35,0.19,0.52"/>
	<path class="st3" d="M18.42,539.98c0.38-1.82,0.76-3.65,1.14-5.51"/>
	<path class="st3" d="M26.34,500.41c0.75-3.88,1.49-7.81,2.24-11.78"/>
	<path class="st3" d="M30.7,477.17c0.35-1.93,0.7-3.86,1.05-5.8"/>
	<path class="st3" d="M29.11,485.78c0.53-2.85,1.06-5.73,1.59-8.62"/>
	<path class="st3" d="M10.38,577.39c0.18-0.8,0.36-1.61,0.54-2.42"/>
	<path class="st3" d="M39.7,423.93c0.77-4.99,1.52-9.97,2.24-14.95"/>
	<path class="st3" d="M42.79,403.02c0.7-4.96,1.37-9.91,2-14.83"/>
	<path class="st3" d="M45.54,382.31c0.37-2.93,0.72-5.86,1.06-8.76"/>
	<path class="st3" d="M41.94,408.99c0.29-1.99,0.57-3.98,0.85-5.96"/>
	<path class="st3" d="M44.79,388.19c0.25-1.97,0.5-3.93,0.75-5.89"/>
	<path class="st1" d="M4.39,603.78c-0.31,1.31-0.6,2.56-0.87,3.74"/>
	<path class="st1" d="M3.25,608.67c-0.27,1.13-0.51,2.19-0.75,3.17"/>
	<path class="st3" d="M51.9,295.98c0.01-2.82-0.01-5.6-0.05-8.36"/>
	<path class="st3" d="M38.77,429.92c0.31-1.99,0.63-3.99,0.93-5.98"/>
	<path class="st3" d="M34.85,453.74c0.34-1.97,0.67-3.95,1.01-5.93"/>
	<path class="st1" d="M37.81,194.61c0.04,0.12,0.07,0.24,0.11,0.36"/>
	<path class="st3" d="M31.75,471.37c0.87-4.85,1.73-9.74,2.58-14.67"/>
	<path class="st1" d="M1.01,618.08c0.23-0.95,0.51-2.12,0.84-3.51"/>
	<path class="st3" d="M37.81,435.89c0.32-1.99,0.64-3.98,0.95-5.98"/>
	<path class="st3" d="M36.35,444.84c0.5-2.98,0.98-5.96,1.47-8.94"/>
	<path class="st1" d="M2.27,612.8c-0.15,0.62-0.29,1.21-0.42,1.77"/>
	<path class="st1" d="M18.42,539.98c-0.31,1.47-0.61,2.94-0.91,4.38"/>
	<path class="st1" d="M291.12,206.3c0.13-0.45,0.25-0.88,0.38-1.32"/>
	<path class="st1" d="M288.32,216.92c0.73-2.96,1.51-5.94,2.34-8.94"/>
	<path class="st3" d="M301.75,174.78c-3.12,7.94-6.79,18.16-10.25,30.2"/>
	<path class="st1" d="M330.22,621.73c1.34-0.33,2.67-0.66,3.98-1"/>
	<path class="st3" d="M290.66,207.98c0.15-0.55,0.3-1.1,0.45-1.66c0-0.01,0-0.01,0.01-0.02"/>
	<path class="st1" d="M288.63,386.24c-0.86-5.58-1.68-11.03-2.44-16.35"/>
	<path class="st3" d="M288.63,386.24c1.54,9.94,3.24,20.3,5.08,31.17c1.94,11.46,3.96,23.05,6.07,34.73"/>
	<path class="st1" d="M284.18,236.33c-6.33,35.56-5.74,70.23-0.8,112.03"/>
	<path class="st1" d="M302.36,466.36c-0.88-4.76-1.73-9.49-2.58-14.22"/>
	<path class="st3" d="M288.32,216.92c-0.62,2.51-1.22,5.02-1.77,7.51"/>
	<path class="st1" d="M31.32,175.24c-0.85-2.29-1.65-4.39-2.39-6.28c1.64,0.07,4.12-0.01,6.92-0.87
		c22.03-6.76,26.74-50.8,28.55-67.76c0.79-7.35,0.82-29.03,0.87-72.1c0.01-7.33,0-13.37,0-17.37c13.27-3.76,26.54-7.53,39.8-11.29
		c2.1,17.98,9.02,53.37,36.34,84.26c8.08,9.14,16.48,16.23,24.23,21.72c7.76-5.52,16.14-12.62,24.23-21.72
		c27.38-30.79,34.82-65.93,37.21-84.26c13.84,3.76,27.69,7.53,41.53,11.29c-0.2,6.16-2.97,100.86,9.52,132.91
		c2.79,7.17,9.01,23.15,20.77,25.19c2.22,0.39,4.1,0.18,5.19,0c-0.73,1.77-1.52,3.72-2.35,5.82"/>
	<path class="st1" d="M334.38,620.69L334.38,620.69c-1.03-4.44-2.04-8.86-3.04-13.27"/>
	<path class="st1" d="M286.55,224.43c-0.88,3.98-1.67,7.95-2.37,11.9"/>
	<path class="st1" d="M286.2,369.89c-1.05-7.4-1.99-14.57-2.82-21.53"/>
	<path class="st1" d="M296.74,629.12c-35.1,6.82-76.63,12.01-123.3,12.43c-52.58,0.47-98.93-5.24-137.23-12.78"/>
	<path class="st1" d="M7.27,622.4c0.5,0.12,0.99,0.24,1.49,0.36"/>
	<path class="st1" d="M11.25,623.35c0.62,0.15,1.22,0.29,1.84,0.44"/>
	<path class="st3" d="M15.44,624.33c-0.78-0.18-1.57-0.36-2.35-0.54"/>
	<path class="st3" d="M11.25,623.35c-0.83-0.2-1.67-0.39-2.49-0.59"/>
	<path class="st3" d="M7.27,622.4c-2.33-0.57-4.64-1.14-6.89-1.71"/>
	<path class="st1" d="M24.21,626.28c0.81,0.17,1.61,0.35,2.42,0.52"/>
	<path class="st1" d="M1.01,618.08c-0.32,1.33-0.54,2.21-0.64,2.62l0,0"/>
	<path class="st3" d="M19.76,625.31c-0.75-0.17-1.5-0.33-2.24-0.5"/>
	<path class="st3" d="M33.65,628.25c-0.78-0.16-1.57-0.31-2.35-0.47"/>
	<path class="st1" d="M19.76,625.31c0.76,0.17,1.51,0.34,2.27,0.51"/>
	<path class="st3" d="M28.93,627.28c-0.77-0.16-1.54-0.32-2.3-0.48"/>
	<path class="st3" d="M24.21,626.28c-0.73-0.16-1.46-0.31-2.18-0.47"/>
	<path class="st1" d="M15.44,624.33c0.69,0.16,1.38,0.32,2.07,0.48"/>
	<path class="st3" d="M36.21,628.76c-0.04-0.01-0.08-0.02-0.12-0.02"/>
	<path class="st3" d="M296.74,629.12c0.45-0.09,0.9-0.18,1.35-0.27"/>
	<path class="st1" d="M308,626.83c0.9-0.19,1.79-0.38,2.68-0.57"/>
	<path class="st1" d="M321.64,623.8c0.87-0.2,1.73-0.41,2.59-0.61"/>
	<path class="st1" d="M298.09,628.85c1.08-0.21,2.16-0.42,3.23-0.64"/>
	<path class="st1" d="M312.65,625.83c0.87-0.19,1.74-0.38,2.6-0.58"/>
	<path class="st1" d="M303.19,627.83c0.95-0.19,1.9-0.39,2.84-0.59"/>
	<path class="st1" d="M325.97,622.77c0.94-0.23,1.87-0.45,2.8-0.68"/>
	<path class="st1" d="M317.2,624.82c0.86-0.19,1.71-0.39,2.55-0.58"/>
	<path class="st3" d="M288.63,386.24c1.54,9.94,3.24,20.3,5.08,31.17c1.94,11.46,3.96,23.05,6.07,34.73"/>
	<path class="st3" d="M286.55,224.43c0.55-2.49,1.15-5,1.77-7.51"/>
	<path class="st3" d="M290.66,207.98c0.15-0.55,0.3-1.1,0.45-1.66c0-0.01,0-0.01,0.01-0.02"/>
	<path class="st3" d="M310.68,626.26c0.66-0.14,1.31-0.29,1.97-0.43"/>
	<path class="st3" d="M301.75,174.78c-0.44,1.17-6.71,18.08-10.25,30.2"/>
	<path class="st3" d="M299.78,452.15c0.85,4.72,1.71,9.46,2.58,14.22"/>
	<path class="st3" d="M315.25,625.25c0.65-0.15,1.3-0.29,1.95-0.44"/>
	<path class="st3" d="M306.04,627.24c-0.94,0.2-1.89,0.39-2.84,0.59"/>
	<path class="st3" d="M328.78,622.09c-0.93,0.23-1.86,0.45-2.8,0.68"/>
	<path class="st3" d="M328.78,622.09c0.48-0.12,0.97-0.24,1.45-0.35"/>
	<path class="st3" d="M334.21,620.74c-1.31,0.33-2.64,0.67-3.98,1"/>
	<path class="st3" d="M306.04,627.24c0.66-0.14,1.31-0.28,1.96-0.41"/>
	<path class="st3" d="M331.34,607.42c1,4.41,2.02,8.84,3.04,13.27"/>
	<path class="st3" d="M301.32,628.21c0.63-0.13,1.25-0.25,1.87-0.38"/>
	<path class="st3" d="M301.75,174.78c0.02-0.04,0.02-0.07,0.03-0.07l-0.3,0c-1.86-0.03-4.66-0.28-7.76-1.4
		c-9.9-3.58-15.54-13.39-18.95-22.09l-0.17,0.72c-24,82.72-27.43,150.88-26.31,196.53c1.43,58.03,10.92,107.82,21.63,163.97
		c9.23,48.42,26.81,116.62,26.82,116.68"/>
	<path class="st3" d="M324.23,623.19c-0.86,0.2-1.72,0.41-2.59,0.61"/>
	<path class="st3" d="M291.5,204.98c-0.13,0.45-0.26,0.89-0.38,1.32"/>
	<path class="st3" d="M319.75,624.23c0.63-0.15,1.26-0.29,1.89-0.44"/>
	<path class="st3" d="M315.25,625.25c-0.86,0.19-1.73,0.38-2.6,0.58"/>
	<path class="st3" d="M324.23,623.19c0.58-0.14,1.17-0.28,1.75-0.42"/>
	<path class="st3" d="M290.66,207.98c-0.83,3-1.61,5.98-2.34,8.94"/>
	<path class="st3" d="M288.63,386.24c-0.86-5.58-1.68-11.03-2.44-16.35"/>
	<path class="st3" d="M322.64,568.04c-3.73-17.35-7.28-34.51-10.65-51.46"/>
	<path class="st3" d="M310.68,626.26c-0.89,0.19-1.78,0.38-2.68,0.57"/>
	<path class="st3" d="M311.98,516.59c-3.38-16.95-6.58-33.69-9.62-50.22"/>
	<path class="st3" d="M284.18,236.33c-6.33,35.56-5.74,70.23-0.8,112.03"/>
	<path class="st3" d="M319.75,624.23c-0.85,0.2-1.7,0.39-2.55,0.58"/>
	<path class="st3" d="M301.32,628.21c-1.07,0.21-2.15,0.43-3.23,0.64"/>
	<path class="st3" d="M283.38,348.36c0.82,6.97,1.76,14.13,2.82,21.53"/>
	<path class="st3" d="M286.55,224.43c-0.88,3.98-1.67,7.95-2.37,11.9"/>
	<path class="st3" d="M334.21,620.74c0.06-0.01,0.11-0.03,0.17-0.04v0"/>
	<path class="st3" d="M296.74,629.12L296.74,629.12c0.46-0.09,0.9-0.18,1.35-0.27"/>
	<path class="st3" d="M331.34,607.42c-3.01-13.24-5.9-26.36-8.7-39.38"/>
	<path class="st3" d="M14.04,560.63c0.48-2.22,0.97-4.49,1.46-6.8"/>
	<path class="st3" d="M0.38,620.69L0.38,620.69c2.25,0.57,4.56,1.14,6.89,1.71"/>
	<path class="st3" d="M17.52,624.81c0.74,0.17,1.49,0.33,2.24,0.5"/>
	<path class="st3" d="M10.92,574.97c0.26-1.19,0.53-2.39,0.8-3.61"/>
	<path class="st3" d="M13.09,623.79c0.78,0.18,1.57,0.36,2.35,0.54"/>
	<path class="st3" d="M17.5,544.36c0.3-1.45,0.61-2.91,0.91-4.38"/>
	<path class="st3" d="M8.76,622.77c0.82,0.2,1.66,0.39,2.49,0.59"/>
	<path class="st3" d="M15.5,553.83c0.33-1.54,0.66-3.1,0.99-4.68"/>
	<path class="st3" d="M2.5,611.84c0.23-0.98,0.48-2.04,0.75-3.17"/>
	<path class="st3" d="M19.56,534.47c-0.38,1.86-0.76,3.69-1.14,5.51"/>
	<path class="st3" d="M28.58,488.63c-0.74,3.97-1.49,7.9-2.24,11.78"/>
	<path class="st3" d="M5.35,599.64c0.22-0.96,0.45-1.96,0.69-2.98"/>
	<path class="st3" d="M12.63,567.16c-0.31,1.42-0.61,2.82-0.92,4.19"/>
	<path class="st3" d="M21.13,526.79c-0.53,2.59-1.05,5.15-1.57,7.67"/>
	<path class="st3" d="M25.48,504.87c-0.57,2.93-1.14,5.83-1.71,8.7"/>
	<path class="st3" d="M22.8,518.48c-0.38,1.92-0.77,3.82-1.15,5.71"/>
	<path class="st3" d="M10.92,574.97c-0.18,0.81-0.36,1.62-0.54,2.42"/>
	<path class="st3" d="M17.5,544.36c-0.34,1.61-0.67,3.21-1.01,4.79"/>
	<path class="st3" d="M3.52,607.52c0.28-1.18,0.57-2.42,0.87-3.74"/>
	<path class="st3" d="M1.01,618.08c0.23-0.95,0.51-2.12,0.84-3.51"/>
	<path class="st3" d="M1.85,614.57c0.13-0.56,0.27-1.14,0.42-1.77"/>
	<path class="st3" d="M4.39,603.78c0.31-1.31,0.63-2.7,0.96-4.14"/>
	<path class="st3" d="M26.63,626.81c0.76,0.16,1.53,0.32,2.3,0.48"/>
	<path class="st3" d="M22.03,625.81c0.72,0.16,1.45,0.31,2.18,0.47"/>
	<path class="st3" d="M31.3,627.78c0.78,0.16,1.56,0.31,2.35,0.47"/>
	<path class="st3" d="M10.38,577.39c-0.29,1.31-0.57,2.59-0.86,3.85"/>
	<path class="st3" d="M31.32,175.24c0.3,0.8,0.6,1.63,0.91,2.49"/>
	<path class="st3" d="M33.43,181.12c-0.06-0.19-0.13-0.36-0.19-0.55"/>
	<path class="st3" d="M36.88,191.59c-0.08-0.26-0.16-0.52-0.24-0.78"/>
	<path class="st3" d="M39.17,199.23c-0.08-0.29-0.16-0.57-0.25-0.86"/>
	<path class="st3" d="M34.61,184.58c-0.07-0.22-0.15-0.44-0.22-0.66"/>
	<path class="st3" d="M35.65,187.71c-0.05-0.17-0.11-0.33-0.16-0.5"/>
	<path class="st3" d="M49.15,247.93c-1.92-15.33-4.88-30.16-8.97-45.08c0-0.01-0.01-0.02-0.01-0.03"/>
	<path class="st3" d="M37.92,194.97c-0.04-0.12-0.07-0.24-0.11-0.36"/>
	<path class="st3" d="M51.9,295.98c-0.04,11.27-0.49,23.02-1.33,35.43c-0.85,12.54-2.09,25.71-3.63,39.22"/>
	<path class="st3" d="M46.6,373.54c-0.34,2.91-0.69,5.83-1.06,8.76"/>
	<path class="st3" d="M42.79,403.02c-0.28,1.99-0.56,3.97-0.85,5.96"/>
	<line class="st3" x1="51.9" y1="295.98" x2="51.9" y2="295.98"/>
	<path class="st3" d="M45.54,382.31c-0.24,1.96-0.49,3.92-0.75,5.89"/>
	<path class="st3" d="M44.79,388.19c-0.64,4.92-1.3,9.86-2,14.83"/>
	<path class="st3" d="M36.08,628.74c-0.82-0.16-1.62-0.33-2.43-0.49"/>
	<path class="st3" d="M13.09,623.79c-0.62-0.14-1.23-0.29-1.84-0.44"/>
	<path class="st3" d="M32.41,178.25c-0.06-0.17-0.12-0.35-0.19-0.52"/>
	<path class="st3" d="M22.03,625.81c-0.76-0.17-1.52-0.34-2.27-0.51"/>
	<path class="st3" d="M26.63,626.81c-0.81-0.17-1.61-0.35-2.42-0.52"/>
	<path class="st3" d="M8.76,622.77c-0.5-0.12-0.99-0.24-1.49-0.36"/>
	<path class="st3" d="M1.01,618.08c-0.32,1.33-0.54,2.21-0.64,2.62"/>
	<path class="st3" d="M17.52,624.81c-0.7-0.16-1.38-0.32-2.07-0.48"/>
	<path class="st3" d="M31.3,627.78c-0.8-0.16-1.59-0.33-2.38-0.49"/>
	<path class="st3" d="M31.32,175.24c-0.02-0.06-0.05-0.13-0.07-0.19l0.28,0c2.64-0.44,6.39-1.36,10.38-3.47
		c8.11-4.28,13.72-11.59,18.08-22.32l0.18,0.72c26.13,99.49,26.19,177.68,21.97,228.53c-3.4,40.92-11.35,85.72-16.44,114.38
		c-9.91,55.81-29.49,135.83-29.5,135.86"/>
	<path class="st3" d="M31.75,471.37c-0.35,1.94-0.7,3.87-1.05,5.8"/>
	<path class="st3" d="M30.7,477.17c-0.53,2.89-1.06,5.76-1.59,8.62"/>
	<path class="st3" d="M51.85,287.62c0.04,2.76,0.06,5.54,0.05,8.36"/>
	<path class="st3" d="M36.21,628.76L36.21,628.76c-0.04-0.01-0.08-0.02-0.12-0.02"/>
	<path class="st3" d="M39.7,423.93c-0.31,1.99-0.62,3.99-0.93,5.98"/>
	<path class="st3" d="M39.17,199.23c0.34,1.18,0.67,2.36,1.01,3.58"/>
	<path class="st3" d="M37.92,194.97c0.33,1.11,0.67,2.25,1,3.41"/>
	<path class="st3" d="M38.77,429.92c-0.31,1.99-0.63,3.99-0.95,5.98"/>
	<path class="st3" d="M34.61,184.58c0.29,0.86,0.58,1.74,0.87,2.63"/>
	<path class="st3" d="M35.85,447.81c-0.33,1.98-0.67,3.96-1.01,5.93"/>
	<path class="st3" d="M37.81,435.89c-0.48,2.99-0.97,5.97-1.47,8.94"/>
	<path class="st3" d="M25.48,504.87c0.29-1.48,0.58-2.97,0.86-4.46"/>
	<path class="st3" d="M22.8,518.48c0.32-1.62,0.65-3.26,0.98-4.91"/>
	<path class="st3" d="M36.88,191.59c0.31,0.99,0.62,1.99,0.92,3.01"/>
	<path class="st3" d="M41.94,408.99c-0.72,4.98-1.47,9.96-2.24,14.95"/>
	<path class="st3" d="M32.41,178.25c0.27,0.76,0.55,1.53,0.82,2.32"/>
	<path class="st3" d="M35.65,187.71c0.33,1.01,0.66,2.05,0.99,3.1"/>
	<path class="st3" d="M51.76,283.5c-0.07-2.73-0.17-5.44-0.29-8.13"/>
	<path class="st3" d="M31.75,471.37c0.87-4.85,1.73-9.74,2.58-14.67"/>
	<path class="st3" d="M51.26,271.36c-0.15-2.66-0.33-5.3-0.54-7.92"/>
	<path class="st3" d="M49.15,247.93c0.64,5.11,1.16,10.27,1.58,15.51"/>
	<path class="st3" d="M33.43,181.12c0.32,0.91,0.64,1.85,0.96,2.8"/>
	<path class="st3" d="M28.58,488.63c0.18-0.95,0.35-1.9,0.53-2.85"/>
	<path class="st3" d="M46.93,370.64c-0.11,0.97-0.22,1.93-0.33,2.9"/>
	<path class="st3" d="M51.76,283.5c0.03,1.37,0.06,2.74,0.08,4.12"/>
	<path class="st3" d="M2.27,612.8c0.07-0.31,0.15-0.63,0.23-0.96"/>
	<path class="st3" d="M51.26,271.36c0.08,1.33,0.14,2.67,0.21,4.01"/>
	<path class="st3" d="M12.63,567.16c0.46-2.13,0.94-4.31,1.42-6.53"/>
	<path class="st3" d="M21.13,526.79c0.18-0.86,0.35-1.73,0.53-2.6"/>
	<path class="st3" d="M34.34,456.7c0.17-0.98,0.34-1.97,0.51-2.96"/>
	<path class="st3" d="M35.85,447.81c0.17-0.99,0.33-1.98,0.5-2.97"/>
	<path class="st3" d="M6.04,596.66c1.05-4.6,2.23-9.76,3.49-15.42"/>
	<path class="st3" d="M3.25,608.67c0.09-0.38,0.18-0.76,0.27-1.15"/>
</g>
<path class="NeckAndArmTrim fill" d="M234.22,1.45c-1.53,14.43-6.5,42.55-25.95,71.09c-14.47,21.23-31.28,34.36-42.4,41.7
	c-11.12-7.68-28.01-21.43-42.4-43.44c-18.23-27.88-23.2-54.9-24.8-69.35l6.63-1.88c2.1,17.98,9.02,53.37,36.34,84.26
	c8.08,9.14,16.48,16.23,24.23,21.72c7.76-5.52,16.14-12.62,24.23-21.72c27.38-30.79,34.82-65.93,37.21-84.26L234.22,1.45z"/>
<path class="NeckAndArmTrim fill" d="M31.75,175.05c2.64-0.44,6.39-1.36,10.38-3.47c11.79-6.23,18.31-18.86,23.36-39.09
	c5.97-23.9,5.71-41.68,6.06-78.18c0.19-20.28,0.47-36.38,0.65-45.34l-6.7,1.9c0,4,0.01,10.04,0,17.37
	c-0.04,43.07-0.08,64.76-0.87,72.1c-1.81,16.96-6.52,61-28.55,67.76c-2.8,0.86-5.28,0.93-6.92,0.87L31.75,175.05z"/>
<path class="NeckAndArmTrim fill" d="M301.99,174.72c-1.85-0.01-4.78-0.22-8.06-1.41c-14.35-5.19-19.73-23.43-22.39-32.46
	c-11.56-39.2-9.01-124.25-8.76-131.73l6.06,1.74c-0.2,6.16-2.97,100.85,9.52,132.91c2.79,7.17,9.01,23.15,20.77,25.19
	c2.22,0.39,4.1,0.18,5.19,0L301.99,174.72z"/>
<path class="NeckAndArmTrim fill" d="M109.45,22c10.2,5.01,29.77,12.96,55.56,13.19c27.06,0.24,47.57-8.13,57.87-13.19l1.74-7.98
	c-8.95,5.27-29.6,15.8-57.87,15.96c-28.99,0.16-50.17-10.69-59.12-15.96L109.45,22z"/>
<g id="FBodyLogos"></g>
</svg>
