<?xml version="1.0" encoding="utf-8"?>
<!-- Generator: Adobe Illustrator 19.1.0, SVG Export Plug-In . SVG Version: 6.00 Build 0)  -->
<svg version="1.1" id="Layer_1" xmlns="http://www.w3.org/2000/svg" xmlns:xlink="http://www.w3.org/1999/xlink" x="0px" y="0px"
	 viewBox="0 0 335.2 641.14" style="enable-background:new 0 0 335.2 641.14;" xml:space="preserve">
<style type="text/css">
	<![CDATA[
	@font-face{font-family:'codaheavy';src:url('/fonts/coda-heavy-webfont.woff') format('woff')}
	text{font-family:Impact,codaheavy,sans-serif}
	.Colour1.fill{fill:#189DD6;}
	.Colour2.fill{fill:#1C2450;}
	.Colour3.fill{fill:#42434F;}
	.NeckAndArmTrim.fill{fill:#1C2450;stroke:#000000;stroke-miterlimit:10;}
	.Gradient1.stopColor{stop-color:#F9A61A;}
	.Gradient2.stopColor{stop-color:#FFCF2C;}
	.st0{fill:url(#SVGID_1_);}
	.st1{fill:url(#SVGID_2_);}
	.st2{fill:url(#SVGID_3_);}
	.st3{fill:url(#SVGID_4_);}
	.st4{fill:url(#SVGID_5_);}
	.st5{fill:url(#SVGID_6_);}
	.st6{fill:url(#SVGID_7_);}
	.st7{fill:url(#SVGID_8_);}
	.st8{fill:url(#SVGID_9_);}
	.st9{fill:url(#SVGID_10_);}
	.st10{fill:url(#SVGID_11_);}
	.st11{fill:url(#SVGID_12_);}
	.st12{fill:url(#SVGID_13_);}
	.st13{fill:url(#SVGID_14_);}
	.st14{fill:url(#SVGID_15_);}
	.st15{fill:none;stroke:#000000;stroke-miterlimit:10;}
	.st16{fill:#FFFFFF;stroke:#000000;}
	.st17{fill:none;stroke:#000000;stroke-linecap:round;stroke-linejoin:round;}
	]]>
</style>
<path class="Colour1 fill" d="M227.31-0.43c13.84,3.76,27.69,7.53,41.53,11.29c-0.2,6.16-2.97,100.85,9.52,132.91
	c2.79,7.17,9.01,23.15,20.77,25.19c2.22,0.39,4.1,0.18,5.19,0c-3.61,8.71-8.5,21.51-12.98,37.35
	c-18.44,65.18-12.74,120.54,2.6,211.1c10.91,64.39,24.26,132.3,40.67,203.28c-41.5,10.53-96.29,20.27-160.94,20.85
	c-70.25,0.63-129.39-9.77-173.06-20.85c1.82-7.43,42.42-174.64,50.19-289.28c3.36-49.63,0.53-88.77-10.38-128.57
	c-3.93-14.34-8.14-25.96-11.25-33.88c1.64,0.07,4.12-0.01,6.92-0.87c22.03-6.76,26.74-50.8,28.55-67.76
	c0.79-7.35,0.82-29.03,0.87-72.1c0.01-7.33,0-13.37,0-17.37C78.77,7.1,92.03,3.33,105.3-0.43c2.1,17.98,9.02,53.37,36.34,84.26
	c8.08,9.14,16.48,16.23,24.23,21.72c7.76-5.52,16.14-12.62,24.23-21.72C217.47,53.05,224.91,17.9,227.31-0.43z"/>
<path class="Colour3 fill" d="M113.51,492.32L156.8,447l0.58,10.07l-43.85,45.91C113.52,499.44,113.51,495.89,113.51,492.32z
	 M113.6,531.13l45.32-47.44l-0.58-10.07l-44.76,46.86C113.58,524.06,113.59,527.62,113.6,531.13z M113.68,559.27l46.77-48.96
	l-0.58-10.07l-46.22,48.39C113.66,552.23,113.67,555.78,113.68,559.27z M219.24,546.19l-43.89-45.95l-0.58,10.07l44.44,46.52
	C219.22,553.34,219.23,549.79,219.24,546.19z M219.32,518.04l-42.43-44.42l-0.58,10.07l42.98,45
	C219.3,525.17,219.31,521.62,219.32,518.04z M219.38,489.88L178.42,447l-0.58,10.07l41.52,43.46
	C219.37,497,219.37,493.45,219.38,489.88z M113.47,474.81l42.38-44.36l-0.58-10.07l-41.82,43.78
	C113.46,467.71,113.46,471.27,113.47,474.81z M113.37,418.47l39.41-41.26l-0.58-10.07l-38.85,40.67
	C113.36,411.34,113.36,414.9,113.37,418.47z M113.42,446.64l40.9-42.81l-0.58-10.07l-40.33,42.22
	C113.4,439.53,113.41,443.08,113.42,446.64z M219.49,433.54l-38-39.78l-0.58,10.07l38.56,40.37
	C219.48,440.64,219.48,437.09,219.49,433.54z M219.66,320.82l-32.04-33.54l-0.58,10.07l32.6,34.13
	C219.65,327.84,219.66,324.28,219.66,320.82z M219.75,264.46l-29.05-30.41l-0.58,10.07l29.61,31
	C219.74,270.81,219.74,267.23,219.75,264.46z M219.7,292.64l-30.54-31.97l-0.58,10.07l31.11,32.56
	C219.69,299.55,219.7,295.99,219.7,292.64z M219.92,236.41l-27.69-28.99l-0.58,10.07l28.17,29.49
	C219.84,243.09,219.87,239.6,219.92,236.41z M219.62,349l-33.53-35.1l-0.58,10.07l34.1,35.69C219.61,356.06,219.62,352.5,219.62,349
	z M219.54,405.37l-36.51-38.22l-0.58,10.07l37.08,38.81C219.53,412.45,219.53,408.9,219.54,405.37z M219.44,461.71l-39.48-41.33
	l-0.58,10.07l40.04,41.92C219.42,468.82,219.43,465.27,219.44,461.71z M113.32,390.29l37.92-39.7l-0.58-10.07l-37.36,39.11
	C113.31,383.15,113.32,386.7,113.32,390.29z M219.58,377.19l-35.02-36.66l-0.58,10.07l35.59,37.25
	C219.57,384.26,219.58,380.7,219.58,377.19z M231.84,249.57l0.32-0.34l-0.32-0.33C231.84,249.12,231.84,249.34,231.84,249.57z
	 M231.58,390.96l0.58-0.61l-0.58-0.6C231.59,390.16,231.59,390.56,231.58,390.96z M231.38,504.08l0.78-0.82l-0.78-0.82
	C231.38,502.99,231.38,503.54,231.38,504.08z M231.54,419.24l0.62-0.65l-0.62-0.65C231.54,418.37,231.54,418.8,231.54,419.24z
	 M231.44,475.79l0.72-0.76l-0.72-0.76C231.44,474.78,231.44,475.29,231.44,475.79z M231.49,447.51l0.67-0.7l-0.67-0.7
	C231.49,446.58,231.49,447.04,231.49,447.51z M231.63,362.69l0.54-0.56l-0.53-0.56C231.63,361.95,231.63,362.32,231.63,362.69z
	 M113.28,362.11l36.43-38.14l-0.58-10.07l-35.86,37.54C113.27,354.94,113.27,358.5,113.28,362.11z M231.71,306.16l0.46-0.48
	l-0.46-0.48C231.71,305.52,231.71,305.84,231.71,306.16z M231.67,334.43l0.5-0.52l-0.5-0.52
	C231.67,333.73,231.67,334.08,231.67,334.43z M231.75,277.89l0.42-0.44l-0.42-0.43C231.75,277.31,231.75,277.59,231.75,277.89z
	 M113.16,277.56l31.95-33.45l-0.58-10.07l-31.39,32.86C113.14,269.82,113.15,273.4,113.16,277.56z M113.07,249.43l30.5-31.93
	l-0.58-10.07l-30,31.41C113.03,242.03,113.05,245.54,113.07,249.43z M113.2,305.74l33.44-35.01l-0.58-10.07l-32.88,34.42
	C113.19,298.45,113.19,302.01,113.2,305.74z M113.22,323.32c0,3.44,0.01,6.98,0.02,10.61l34.94-36.57l-0.58-10.07l-34.37,35.98
	C113.22,323.28,113.22,323.3,113.22,323.32z M231.14,589.01l1.02-1.07l-1.02-1.06C231.14,587.59,231.14,588.3,231.14,589.01z
	 M231.31,532.38l0.85-0.89l-0.85-0.89C231.31,531.2,231.31,531.78,231.31,532.38z M231.23,560.68l0.93-0.97l-0.92-0.97
	C231.24,559.39,231.24,560.04,231.23,560.68z M113.73,576.76c0.01,3.63,0.03,7.18,0.04,10.64l48.21-50.47l-0.58-10.07L113.73,576.76
	z M219.16,574.32l-45.34-47.46l-0.58,10.07l45.88,48.03C219.13,581.5,219.14,577.95,219.16,574.32z"/>
<g>
	<linearGradient id="SVGID_1_" gradientUnits="userSpaceOnUse" x1="61.1043" y1="372.2203" x2="109.6147" y2="372.2203">
		<stop class="Gradient2 stopColor" offset="0" style="stop-color:#FFCF2C"/>
		<stop class="Gradient1 stopColor" offset="1" style="stop-color:#F9A61A"/>
	</linearGradient>
	<path class="st0" d="M108.64,259.18c-0.15-31.98-0.01-41.6-4.02-56.3c-6.43-23.59-15.87-32.09-28.87-63.88
		c-5.29-12.94-9.07-24.58-11.68-33.65c-0.63,5.49-1.54,12.42-2.98,19.68c1.97,5.85,4.3,12.23,7.07,18.99
		c12.73,31.13,21.97,39.44,28.27,62.55c3.02,11.09,3.64,19.23,3.83,36.71c0.05,5.2,0.07,11.23,0.11,18.43
		c0.09,20.56,0.33,302.05,0.93,376.61c2.74,0.27,5.51,0.52,8.3,0.76C108.97,565.1,108.74,280.33,108.64,259.18z"/>
	<linearGradient id="SVGID_2_" gradientUnits="userSpaceOnUse" x1="223.1416" y1="369.0194" x2="272.9555" y2="369.0194">
		<stop class="Gradient2 stopColor" offset="0" style="stop-color:#FFCF2C"/>
		<stop class="Gradient1 stopColor" offset="1" style="stop-color:#F9A61A"/>
	</linearGradient>
	<path class="st1" d="M232.38,261.6c0.04-7.19,0.05-13.23,0.12-18.43c0.18-17.48,0.79-25.62,3.82-36.71
		c6.3-23.1,15.54-31.42,28.27-62.55c3.4-8.32,6.15-16.07,8.37-22.94c-1.04-6.87-1.85-14.41-2.48-22.22
		c-2.57,9.62-6.82,23.85-13.48,40.14c-12.99,31.79-22.43,40.28-28.87,63.88c-4.01,14.69-3.86,24.31-4.02,56.3
		c-0.09,21.18-0.33,306.7-0.97,380.2c2.78-0.23,5.56-0.46,8.3-0.72C232.06,564.34,232.29,282.2,232.38,261.6z"/>
</g>
<linearGradient id="SVGID_3_" gradientUnits="userSpaceOnUse" x1="167.6009" y1="165.3776" x2="167.6009" y2="597.496">
	<stop class="Gradient1 stopColor" offset="0" style="stop-color:#F9A61A"/>
	<stop class="Gradient2 stopColor" offset="1" style="stop-color:#FFCF2C"/>
</linearGradient>
<polygon class="st2" points="155.11,391.16 156.48,413.9 178.73,413.9 180.09,391.16 "/>
<linearGradient id="SVGID_4_" gradientUnits="userSpaceOnUse" x1="167.6009" y1="165.3776" x2="167.6009" y2="597.496">
	<stop class="Gradient1 stopColor" offset="0" style="stop-color:#F9A61A"/>
	<stop class="Gradient2 stopColor" offset="1" style="stop-color:#FFCF2C"/>
</linearGradient>
<polygon class="st3" points="151.94,338.41 153.31,361.15 181.9,361.15 183.26,338.41 "/>
<linearGradient id="SVGID_5_" gradientUnits="userSpaceOnUse" x1="167.6009" y1="165.3776" x2="167.6009" y2="597.496">
	<stop class="Gradient1 stopColor" offset="0" style="stop-color:#F9A61A"/>
	<stop class="Gradient2 stopColor" offset="1" style="stop-color:#FFCF2C"/>
</linearGradient>
<polygon class="st4" points="156.69,417.53 158.06,440.27 177.14,440.27 178.51,417.53 "/>
<linearGradient id="SVGID_6_" gradientUnits="userSpaceOnUse" x1="167.6009" y1="165.3776" x2="167.6009" y2="597.496">
	<stop class="Gradient1 stopColor" offset="0" style="stop-color:#F9A61A"/>
	<stop class="Gradient2 stopColor" offset="1" style="stop-color:#FFCF2C"/>
</linearGradient>
<polygon class="st5" points="173.97,493.02 175.34,470.28 159.87,470.28 161.23,493.02 "/>
<linearGradient id="SVGID_7_" gradientUnits="userSpaceOnUse" x1="167.6009" y1="165.3776" x2="167.6009" y2="597.496">
	<stop class="Gradient1 stopColor" offset="0" style="stop-color:#F9A61A"/>
	<stop class="Gradient2 stopColor" offset="1" style="stop-color:#FFCF2C"/>
</linearGradient>
<polygon class="st6" points="158.28,443.9 159.65,466.65 175.55,466.65 176.92,443.9 "/>
<linearGradient id="SVGID_8_" gradientUnits="userSpaceOnUse" x1="167.6009" y1="165.3776" x2="167.6009" y2="597.496">
	<stop class="Gradient1 stopColor" offset="0" style="stop-color:#F9A61A"/>
	<stop class="Gradient2 stopColor" offset="1" style="stop-color:#FFCF2C"/>
</linearGradient>
<polygon class="st7" points="192.27,188.63 193.93,160.97 141.27,160.97 142.93,188.63 "/>
<linearGradient id="SVGID_9_" gradientUnits="userSpaceOnUse" x1="167.6009" y1="165.3776" x2="167.6009" y2="597.496">
	<stop class="Gradient1 stopColor" offset="0" style="stop-color:#F9A61A"/>
	<stop class="Gradient2 stopColor" offset="1" style="stop-color:#FFCF2C"/>
</linearGradient>
<polygon class="st8" points="153.52,364.78 154.89,387.53 180.31,387.53 181.68,364.78 "/>
<linearGradient id="SVGID_10_" gradientUnits="userSpaceOnUse" x1="167.6009" y1="165.3776" x2="167.6009" y2="597.496">
	<stop class="Gradient1 stopColor" offset="0" style="stop-color:#F9A61A"/>
	<stop class="Gradient2 stopColor" offset="1" style="stop-color:#FFCF2C"/>
</linearGradient>
<polygon class="st9" points="145.47,230.77 146.77,252.37 188.44,252.37 189.73,230.77 "/>
<linearGradient id="SVGID_11_" gradientUnits="userSpaceOnUse" x1="167.6009" y1="165.3776" x2="167.6009" y2="597.496">
	<stop class="Gradient1 stopColor" offset="0" style="stop-color:#F9A61A"/>
	<stop class="Gradient2 stopColor" offset="1" style="stop-color:#FFCF2C"/>
</linearGradient>
<polygon class="st10" points="150.35,312.04 151.72,334.78 183.48,334.78 184.85,312.04 "/>
<linearGradient id="SVGID_12_" gradientUnits="userSpaceOnUse" x1="167.6009" y1="165.3776" x2="167.6009" y2="597.496">
	<stop class="Gradient1 stopColor" offset="0" style="stop-color:#F9A61A"/>
	<stop class="Gradient2 stopColor" offset="1" style="stop-color:#FFCF2C"/>
</linearGradient>
<polygon class="st11" points="161.45,496.65 167.6,598.96 173.75,496.65 "/>
<linearGradient id="SVGID_13_" gradientUnits="userSpaceOnUse" x1="167.6009" y1="165.3776" x2="167.6009" y2="597.496">
	<stop class="Gradient1 stopColor" offset="0" style="stop-color:#F9A61A"/>
	<stop class="Gradient2 stopColor" offset="1" style="stop-color:#FFCF2C"/>
</linearGradient>
<polygon class="st12" points="143.64,200.29 144.87,220.88 190.33,220.88 191.57,200.29 "/>
<linearGradient id="SVGID_14_" gradientUnits="userSpaceOnUse" x1="167.6009" y1="165.3776" x2="167.6009" y2="597.496">
	<stop class="Gradient1 stopColor" offset="0" style="stop-color:#F9A61A"/>
	<stop class="Gradient2 stopColor" offset="1" style="stop-color:#FFCF2C"/>
</linearGradient>
<polygon class="st13" points="147.18,259.24 148.55,282.04 186.65,282.04 188.02,259.24 "/>
<linearGradient id="SVGID_15_" gradientUnits="userSpaceOnUse" x1="167.6009" y1="165.3776" x2="167.6009" y2="597.496">
	<stop class="Gradient1 stopColor" offset="0" style="stop-color:#F9A61A"/>
	<stop class="Gradient2 stopColor" offset="1" style="stop-color:#FFCF2C"/>
</linearGradient>
<polygon class="st14" points="148.77,285.66 150.13,308.41 185.07,308.41 186.43,285.66 "/>
<path class="st15" d="M98.67,1.45c1.6,14.45,6.57,41.47,24.8,69.35c14.38,22.01,31.28,35.76,42.4,43.44
	c11.12-7.34,27.93-20.47,42.4-41.7C227.72,44,232.69,15.88,234.22,1.45"/>
<path class="st15" d="M72.2,8.96c-0.17,8.95-0.45,25.06-0.65,45.34c-0.34,36.5-0.09,54.28-6.06,78.18
	c-5.05,20.23-11.57,32.87-23.36,39.09c-4,2.11-7.74,3.03-10.38,3.47"/>
<path class="st15" d="M262.78,9.13c-0.25,7.48-2.8,92.53,8.76,131.73c2.66,9.02,8.04,27.27,22.39,32.46
	c3.28,1.18,6.21,1.39,8.06,1.41"/>
<path class="st15" d="M107.61,14.02c8.95,5.27,30.13,16.11,59.12,15.96c28.27-0.15,48.92-10.69,57.87-15.96"/>
<path class="st15" d="M109.45,22c10.2,5.01,29.77,12.96,55.56,13.19c27.06,0.24,47.57-8.13,57.87-13.19"/>
<g>
	<rect x="109.19" y="214.75" class="st16" width="32.02" height="12.16"/>
	<rect x="193.99" y="214.75" class="st16" width="32.02" height="12.16"/>
	<rect x="194.07" y="322.38" class="st16" width="32.02" height="12.16"/>
	<rect x="109.28" y="322.38" class="st16" width="32.02" height="12.16"/>
	<rect x="109.28" y="310.22" class="st16" width="32.02" height="12.16"/>
	<rect x="193.99" y="310.22" class="st16" width="32.02" height="12.16"/>
</g>
<path class="Colour2 fill" d="M301.69,174.71c-1.86-0.03-4.66-0.28-7.76-1.4c-9.9-3.58-15.54-13.39-18.95-22.09l-0.17,0.72
	c-24,82.72-27.43,150.88-26.31,196.53c1.43,58.03,10.92,107.82,21.63,163.97c9.24,48.44,26.82,116.68,26.82,116.68
	c13.53-2.63,26.1-5.5,37.64-8.42c-16.41-70.98-29.76-138.88-40.67-203.28c-15.34-90.56-21.04-145.91-2.6-211.1
	c3.56-12.57,10.64-31.55,10.66-31.6L301.69,174.71z"/>
<path class="Colour2 fill" d="M31.75,175.05c2.64-0.44,6.39-1.36,10.38-3.47c8.11-4.28,13.72-11.59,18.08-22.32l0.18,0.72
	c26.13,99.49,26.19,177.68,21.97,228.53c-3.4,40.92-11.35,85.72-16.44,114.38c-9.91,55.82-29.5,135.87-29.5,135.87
	c-12.88-2.54-24.84-5.28-35.83-8.07c1.82-7.43,42.42-174.64,50.19-289.28c3.36-49.63,0.53-88.77-10.38-128.57
	c-3.02-11.02-6.21-20.43-8.93-27.8L31.75,175.05z"/>
<g>
	<path class="st17" d="M0.6,620.69c1.37,0.35,2.75,0.69,4.15,1.04"/>
	<path class="st17" d="M19.69,625.24c0.86,0.19,1.71,0.38,2.57,0.57"/>
	<path class="st17" d="M15.29,624.24c0.82,0.19,1.63,0.38,2.46,0.57"/>
	<path class="st17" d="M6.58,622.18c-0.61-0.15-1.22-0.3-1.83-0.45"/>
	<path class="st17" d="M10.92,623.22c0.8,0.19,1.6,0.38,2.41,0.57"/>
	<path class="st17" d="M6.58,622.18c0.8,0.2,1.6,0.39,2.42,0.59"/>
	<path class="st17" d="M24.31,626.26c-0.68-0.15-1.37-0.29-2.04-0.44"/>
	<path class="st17" d="M29.05,627.26c-0.73-0.15-1.47-0.3-2.19-0.46"/>
	<path class="st17" d="M19.69,625.24c-0.65-0.14-1.3-0.29-1.94-0.43"/>
	<path class="st17" d="M33.71,628.22c-0.72-0.15-1.45-0.29-2.17-0.44"/>
	<path class="st17" d="M15.29,624.24c-0.65-0.15-1.31-0.3-1.96-0.45"/>
	<path class="st17" d="M10.92,623.22c-0.64-0.15-1.29-0.3-1.92-0.46"/>
	<path class="st17" d="M312.2,516.59c2.53,12.71,5.16,25.54,7.89,38.48"/>
	<path class="st17" d="M320.1,555.06c1.82,8.63,3.68,17.3,5.59,26.03"/>
	<path class="st17" d="M330.44,621.74c-0.46,0.11-0.92,0.23-1.38,0.34"/>
	<path class="st17" d="M321.85,623.8c-0.61,0.14-1.23,0.29-1.85,0.43"/>
	<path class="st17" d="M326.18,622.77c-0.56,0.14-1.14,0.27-1.7,0.41"/>
	<path class="st17" d="M33.71,628.22c0.87,0.17,1.73,0.35,2.6,0.52"/>
	<path class="st17" d="M24.31,626.26c0.85,0.18,1.69,0.37,2.55,0.55"/>
	<path class="st17" d="M317.4,624.82c-0.64,0.14-1.28,0.29-1.92,0.43"/>
	<path class="st17" d="M293.93,417.42c2.04,12.07,4.18,24.27,6.4,36.59"/>
	<path class="st17" d="M302.58,466.36c2.28,12.4,4.65,24.91,7.12,37.55"/>
	<path class="st17" d="M291.34,206.32c0.13-0.45,0.26-0.9,0.39-1.34"/>
	<path class="st17" d="M29.05,627.26c0.83,0.17,1.65,0.35,2.49,0.52"/>
	<path class="st17" d="M39.15,198.39c0.08,0.27,0.16,0.55,0.24,0.83"/>
	<path class="st17" d="M36.43,628.76c-0.04-0.01-0.08-0.01-0.12-0.02"/>
	<path class="st17" d="M50.95,263.44c0.2,2.54,0.37,5.11,0.52,7.69"/>
	<path class="st17" d="M38.04,194.64c0.03,0.11,0.07,0.21,0.1,0.32"/>
	<path class="st17" d="M51.86,279.54c0-0.09-0.01-0.19-0.01-0.28"/>
	<path class="st17" d="M34.61,183.93c0.07,0.21,0.14,0.42,0.21,0.64"/>
	<path class="st17" d="M36.86,190.82c0.08,0.25,0.16,0.5,0.23,0.75"/>
	<path class="st17" d="M32.45,177.74c0.06,0.16,0.12,0.33,0.18,0.49"/>
	<path class="st17" d="M33.46,180.59c0.06,0.18,0.12,0.35,0.19,0.53"/>
	<path class="st17" d="M35.71,187.23c0.05,0.16,0.1,0.31,0.16,0.47"/>
	<path class="st17" d="M51.5,271.56c-0.01-0.14-0.02-0.29-0.02-0.43"/>
	<path class="st17" d="M49.87,252.19c0.42,3.72,0.78,7.47,1.07,11.26"/>
	<path class="st17" d="M36.86,190.82c-0.33-1.06-0.67-2.1-1-3.12"/>
	<path class="st17" d="M34.61,183.93c-0.33-0.96-0.65-1.9-0.97-2.82"/>
	<path class="st17" d="M35.71,187.23c-0.3-0.9-0.59-1.79-0.88-2.66"/>
	<path class="st17" d="M33.46,180.59c-0.28-0.8-0.56-1.59-0.83-2.36"/>
	<path class="st17" d="M32.45,177.74c-0.31-0.86-0.61-1.69-0.91-2.5"/>
	<path class="st17" d="M40.4,202.85c-0.34-1.23-0.68-2.44-1.02-3.63"/>
	<path class="st17" d="M48.33,240.3c-0.38-2.53-0.79-5.05-1.22-7.56"/>
	<path class="st17" d="M49.87,252.19c-0.16-1.42-0.33-2.84-0.5-4.26"/>
	<path class="st17" d="M39.15,198.39c-0.34-1.16-0.67-2.31-1.01-3.43"/>
	<path class="st17" d="M38.04,194.64c-0.31-1.04-0.63-2.06-0.94-3.06"/>
	<path class="st17" d="M51.5,271.56c0.14,2.55,0.26,5.11,0.36,7.7"/>
	<path class="st17" d="M312.86,625.83c0.88-0.19,1.75-0.39,2.62-0.58"/>
	<path class="st17" d="M317.4,624.82c0.87-0.2,1.73-0.39,2.59-0.59"/>
	<path class="st17" d="M321.85,623.8c0.88-0.21,1.76-0.41,2.64-0.62"/>
	<path class="st17" d="M298.31,628.85c1.08-0.21,2.16-0.43,3.24-0.64"/>
	<path class="st17" d="M326.18,622.77c0.96-0.23,1.92-0.46,2.87-0.7"/>
	<path class="st17" d="M308.2,626.83c0.91-0.19,1.81-0.39,2.71-0.58"/>
	<path class="st17" d="M303.4,627.83c0.96-0.2,1.92-0.39,2.87-0.59"/>
	<path class="st17" d="M52.09,300.23c0.04-2.85,0.04-5.67,0.03-8.45"/>
	<path class="st17" d="M51.9,308.88c0.09-2.91,0.15-5.79,0.18-8.64"/>
	<path class="st17" d="M51.86,279.54c0.09,2.67,0.16,5.36,0.21,8.08"/>
	<path class="st17" d="M296.96,629.12c-35.1,6.82-76.63,12.01-123.3,12.43c-52.58,0.47-98.93-5.24-137.23-12.78"/>
	<path class="st17" d="M301.97,174.79c-3.12,7.94-6.78,18.16-10.24,30.19"/>
	<path class="st17" d="M330.44,621.74c1.4-0.35,2.79-0.69,4.16-1.04"/>
	<path class="st17" d="M301.97,174.79c0.83-2.1,1.61-4.05,2.35-5.82c-1.09,0.18-2.97,0.39-5.19,0
		c-11.75-2.05-17.97-18.02-20.77-25.19c-12.49-32.06-9.72-126.75-9.52-132.91c-13.84-3.76-27.69-7.53-41.53-11.29
		c-2.39,18.33-9.83,53.47-37.21,84.26c-8.08,9.09-16.47,16.19-24.23,21.72c-7.75-5.49-16.15-12.58-24.23-21.72
		c-27.32-30.9-34.24-66.28-36.34-84.26C92.03,3.33,78.77,7.1,65.5,10.86c0,4,0.01,10.04,0,17.37c-0.04,43.07-0.08,64.76-0.87,72.1
		c-1.81,16.96-6.52,61-28.55,67.76c-2.8,0.86-5.28,0.93-6.92,0.87c0.74,1.88,1.54,3.98,2.39,6.28"/>
	<path class="st17" d="M312.86,625.83c-0.65,0.14-1.3,0.28-1.95,0.42"/>
	<path class="st17" d="M308.2,626.83c-0.64,0.14-1.28,0.27-1.93,0.41"/>
	<path class="st17" d="M303.4,627.83c-0.62,0.13-1.23,0.25-1.85,0.38"/>
	<path class="st17" d="M296.96,629.12c0.45-0.09,0.9-0.18,1.35-0.27"/>
	<path class="st17" d="M329.05,622.07c0.46-0.11,0.93-0.22,1.38-0.34"/>
	<path class="st17" d="M324.48,623.18c-0.87,0.21-1.75,0.42-2.64,0.62"/>
	<path class="st17" d="M334.6,620.69c-1.37,0.35-2.76,0.7-4.16,1.04"/>
	<path class="st17" d="M325.69,581.09c-1.91-8.73-3.77-17.4-5.59-26.03"/>
	<path class="st17" d="M315.48,625.25c-0.87,0.19-1.74,0.39-2.62,0.58"/>
	<path class="st17" d="M306.27,627.24c-0.95,0.2-1.91,0.4-2.87,0.59"/>
	<path class="st17" d="M324.48,623.18c0.57-0.14,1.14-0.27,1.7-0.41"/>
	<path class="st17" d="M329.05,622.07c-0.95,0.23-1.9,0.47-2.87,0.7"/>
	<path class="st17" d="M320.1,555.06c-2.73-12.94-5.36-25.77-7.89-38.48"/>
	<path class="st17" d="M320,624.23c0.62-0.14,1.24-0.28,1.85-0.43"/>
	<path class="st17" d="M301.97,174.79c0.02-0.04,0.03-0.07,0.03-0.07l-0.3,0c-1.86-0.03-4.66-0.28-7.76-1.4
		c-9.9-3.58-15.54-13.39-18.95-22.09l-0.17,0.72c-24,82.72-27.43,150.88-26.31,196.53c1.43,58.03,10.92,107.82,21.63,163.97
		c9.23,48.42,26.81,116.62,26.82,116.68"/>
	<path class="st17" d="M309.7,503.91c-2.47-12.63-4.84-25.15-7.12-37.55"/>
	<path class="st17" d="M291.72,204.98c-0.13,0.45-0.26,0.9-0.39,1.34"/>
	<path class="st17" d="M320,624.23c-0.86,0.2-1.72,0.4-2.59,0.59"/>
	<path class="st17" d="M301.97,174.79c-0.45,1.2-6.71,18.09-10.24,30.19"/>
	<path class="st17" d="M310.91,626.26c-0.9,0.19-1.8,0.39-2.71,0.58"/>
	<path class="st17" d="M306.27,627.24c0.65-0.14,1.29-0.27,1.93-0.41"/>
	<path class="st17" d="M293.93,417.42c2.04,12.07,4.18,24.27,6.4,36.59"/>
	<path class="st17" d="M301.54,628.21c-1.07,0.22-2.15,0.43-3.24,0.64"/>
	<path class="st17" d="M315.48,625.25c0.64-0.14,1.28-0.29,1.92-0.43"/>
	<path class="st17" d="M310.91,626.26c0.65-0.14,1.3-0.28,1.95-0.42"/>
	<path class="st17" d="M301.54,628.21c0.62-0.13,1.24-0.25,1.85-0.38"/>
	<path class="st17" d="M296.96,629.12L296.96,629.12c0.45-0.09,0.9-0.18,1.35-0.27"/>
	<path class="st17" d="M334.6,620.69c-3.08-13.31-6.04-26.51-8.91-39.6"/>
	<path class="st17" d="M291.34,206.32c-18.44,65.18-12.74,120.54,2.6,211.1"/>
	<path class="st17" d="M302.58,466.36c-0.76-4.13-1.51-8.25-2.25-12.36"/>
	<path class="st17" d="M312.2,516.59c-0.84-4.24-1.68-8.46-2.5-12.67"/>
	<path class="st17" d="M47.1,232.74c0.44,2.51,0.84,5.03,1.22,7.56"/>
	<path class="st17" d="M39.38,199.22c0.34,1.19,0.68,2.4,1.02,3.63"/>
	<path class="st17" d="M51.9,308.88c0.09-2.91,0.15-5.79,0.18-8.64"/>
	<path class="st17" d="M49.37,247.93c0.18,1.41,0.34,2.83,0.5,4.26"/>
	<path class="st17" d="M51.85,279.26c-0.09-2.59-0.21-5.15-0.36-7.7"/>
	<path class="st17" d="M22.26,625.82c0.68,0.15,1.36,0.29,2.04,0.44"/>
	<path class="st17" d="M51.86,279.54c0-0.09-0.01-0.19-0.01-0.28"/>
	<path class="st17" d="M26.85,626.81c0.72,0.15,1.46,0.3,2.19,0.46"/>
	<path class="st17" d="M36.31,628.74c0.04,0.01,0.08,0.02,0.12,0.02l0,0"/>
	<path class="st17" d="M13.32,623.79c-0.81-0.19-1.61-0.38-2.41-0.57"/>
	<path class="st17" d="M51.47,271.13c0.01,0.14,0.02,0.29,0.02,0.43"/>
	<path class="st17" d="M38.14,194.96c0.34,1.12,0.67,2.27,1.01,3.43"/>
	<path class="st17" d="M33.65,181.12c0.32,0.92,0.64,1.86,0.97,2.82"/>
	<path class="st17" d="M31.53,627.78c0.72,0.15,1.45,0.29,2.17,0.44"/>
	<path class="st17" d="M31.54,175.24c0.3,0.81,0.6,1.64,0.91,2.5"/>
	<path class="st17" d="M51.86,279.54c0.09,2.67,0.16,5.36,0.21,8.08"/>
	<path class="st17" d="M32.63,178.23c0.27,0.77,0.55,1.55,0.83,2.36"/>
	<path class="st17" d="M37.1,191.58c0.31,1,0.63,2.02,0.94,3.06"/>
	<path class="st17" d="M35.87,187.7c0.33,1.02,0.66,2.06,1,3.12"/>
	<path class="st17" d="M52.09,300.23c0.04-2.85,0.04-5.67,0.03-8.45"/>
	<path class="st17" d="M31.54,175.24c-0.02-0.06-0.05-0.13-0.07-0.19l0.28,0c2.64-0.44,6.39-1.36,10.38-3.47
		c8.11-4.28,13.72-11.59,18.08-22.32l0.18,0.72c26.13,99.49,26.19,177.68,21.97,228.53c-3.4,40.92-11.35,85.72-16.44,114.38
		c-9.91,55.81-29.49,135.83-29.5,135.86"/>
	<path class="st17" d="M34.83,184.57c0.29,0.87,0.59,1.76,0.88,2.66"/>
	<path class="st17" d="M17.75,624.81c0.64,0.14,1.29,0.29,1.94,0.43"/>
	<path class="st17" d="M17.75,624.81c-0.83-0.19-1.64-0.38-2.46-0.57"/>
	<path class="st17" d="M8.99,622.77c0.63,0.15,1.28,0.3,1.92,0.46"/>
	<path class="st17" d="M35.87,187.7c-0.05-0.16-0.1-0.32-0.16-0.47"/>
	<path class="st17" d="M37.1,191.58c-0.08-0.25-0.16-0.5-0.23-0.75"/>
	<path class="st17" d="M31.53,627.78c-0.84-0.17-1.66-0.35-2.49-0.52"/>
	<path class="st17" d="M0.6,620.69c1.37,0.35,2.75,0.69,4.15,1.04"/>
	<path class="st17" d="M32.63,178.23c-0.06-0.16-0.12-0.33-0.18-0.49"/>
	<path class="st17" d="M4.75,621.73c0.6,0.15,1.22,0.3,1.83,0.45"/>
	<path class="st17" d="M33.65,181.12c-0.06-0.18-0.12-0.35-0.19-0.53"/>
	<path class="st17" d="M38.14,194.96c-0.03-0.11-0.07-0.22-0.1-0.32"/>
	<path class="st17" d="M34.83,184.57c-0.07-0.21-0.14-0.43-0.21-0.64"/>
	<path class="st17" d="M36.31,628.74c-0.88-0.17-1.74-0.35-2.6-0.52"/>
	<path class="st17" d="M50.95,263.44c-0.3-3.79-0.66-7.54-1.07-11.26"/>
	<path class="st17" d="M22.26,625.82c-0.87-0.19-1.72-0.38-2.57-0.57"/>
	<path class="st17" d="M51.47,271.13c-0.15-2.58-0.32-5.15-0.52-7.69"/>
	<path class="st17" d="M26.85,626.81c-0.86-0.18-1.7-0.37-2.55-0.55"/>
	<path class="st17" d="M8.99,622.77c-0.81-0.2-1.61-0.39-2.42-0.59"/>
	<path class="st17" d="M39.38,199.22c-0.08-0.28-0.16-0.55-0.24-0.83"/>
	<path class="st17" d="M13.32,623.79c0.65,0.15,1.31,0.3,1.96,0.45"/>
	<path class="st17" d="M51.9,308.88c-0.22,7.29-0.59,14.78-1.12,22.54C43.02,446.06,2.42,613.27,0.6,620.69"/>
	<path class="st17" d="M52.07,287.62c0.02,1.38,0.04,2.77,0.05,4.16"/>
	<path class="st17" d="M49.37,247.93c-0.32-2.55-0.67-5.1-1.05-7.62"/>
	<path class="st17" d="M47.1,232.74c-1.75-10.04-3.97-19.95-6.7-29.9"/>
</g>
<path class="NeckAndArmTrim fill" d="M234.22,1.45c-1.53,14.43-6.5,42.55-25.95,71.09c-14.47,21.23-31.28,34.36-42.4,41.7
	c-11.12-7.68-28.01-21.43-42.4-43.44c-18.23-27.88-23.2-54.9-24.8-69.35l6.63-1.88c2.1,17.98,9.02,53.37,36.34,84.26
	c8.08,9.14,16.48,16.23,24.23,21.72c7.76-5.52,16.14-12.62,24.23-21.72c27.38-30.79,34.82-65.93,37.21-84.26L234.22,1.45z"/>
<path class="NeckAndArmTrim fill" d="M31.75,175.05c2.64-0.44,6.39-1.36,10.38-3.47c11.79-6.23,18.31-18.86,23.36-39.09
	c5.97-23.9,5.71-41.68,6.06-78.18c0.19-20.28,0.47-36.38,0.65-45.34l-6.7,1.9c0,4,0.01,10.04,0,17.37
	c-0.04,43.07-0.08,64.76-0.87,72.1c-1.81,16.96-6.52,61-28.55,67.76c-2.8,0.86-5.28,0.93-6.92,0.87L31.75,175.05z"/>
<path class="NeckAndArmTrim fill" d="M301.99,174.72c-1.85-0.01-4.78-0.22-8.06-1.41c-14.35-5.19-19.73-23.43-22.39-32.46
	c-11.56-39.2-9.01-124.25-8.76-131.73l6.06,1.74c-0.2,6.16-2.97,100.85,9.52,132.91c2.79,7.17,9.01,23.15,20.77,25.19
	c2.22,0.39,4.1,0.18,5.19,0L301.99,174.72z"/>
<path class="NeckAndArmTrim fill" d="M109.45,22c10.2,5.01,29.77,12.96,55.56,13.19c27.06,0.24,47.57-8.13,57.87-13.19l1.74-7.98
	c-8.95,5.27-29.6,15.8-57.87,15.96c-28.99,0.16-50.17-10.69-59.12-15.96L109.45,22z"/>
<g id="FBodyLogos"></g>
</svg>
