<?xml version="1.0" encoding="utf-8"?>
<!-- Generator: Adobe Illustrator 19.1.0, SVG Export Plug-In . SVG Version: 6.00 Build 0)  -->
<svg version="1.1" id="Layer_1" xmlns="http://www.w3.org/2000/svg" xmlns:xlink="http://www.w3.org/1999/xlink" x="0px" y="0px"
	 viewBox="0 0 495 576" style="enable-background:new 0 0 495 576;" xml:space="preserve">
<style type="text/css">
	<![CDATA[
	@font-face{font-family:'codaheavy';src:url('/fonts/coda-heavy-webfont.woff') format('woff')}
	text{font-family:Impact,codaheavy,sans-serif}
	.Number.fill{fill:#000}
	.NumberOutline.stroke{fill:none;stroke:#777;stroke-width:2.5}
	.Colour1.fill{fill:#000000;}
	.Colour2.fill{fill:#3DC8F4;}
	.Colour3.fill{fill:#FFFFFF;}
	.NeckAndArmTrim.fill{fill:#000000;}
	.BottomHem.fill{fill:#000000;}
	.st0{fill:none;stroke:#414042;stroke-miterlimit:10;}
	.st1{fill:none;stroke:#414042;stroke-miterlimit:10;stroke-dasharray:2;}
	]]>
</style>
<path class="Colour1 fill" d="M247.5,574c125.7-4.95,148.92-20.8,148.92-20.8c-14.4-153.55,0-347.72,0-347.72
	c2.98-84.21,42.71-139.93,42.71-139.93C427.95,46.97,322.8,7.22,322.8,7.22l-0.12,0.01c0,0-30.18,12.45-75.18,12.24l-0.43,0
	c-44.76,0.14-74.75-12.24-74.75-12.24l-0.12-0.01c0,0-105.15,39.75-116.33,58.33c0,0,39.73,55.72,42.71,139.93
	c0,0,14.4,194.17,0,347.72C98.58,553.2,121.8,569.05,247.5,574"/>
<path class="Colour1 fill" d="M439.12,65.54c0,0,46.18,54.98,54.38,148.6c0,0-64.06,39.01-86.41,25.63c0,0,1.37-13.62-10.68-34.3
	C396.42,205.47,396.29,131.3,439.12,65.54z"/>
<path class="Colour1 fill" d="M55.88,65.54c0,0-46.18,54.98-54.38,148.6c0,0,64.06,39.01,86.41,25.63c0,0-1.37-13.62,10.68-34.3
	C98.58,205.47,98.71,131.3,55.88,65.54z"/>
<path class="NeckAndArmTrim fill" d="M419.26,241.99c-4.7,0-8.59-0.85-11.56-2.53c0.07-1.29,0.13-5.73-1.6-12.55c0.35,0.01,0.69,0.01,1.04,0.01
	c34.14,0,77.58-25.82,83.83-29.65c0.77,5.38,1.41,10.9,1.91,16.56C488.8,216.28,445.19,241.99,419.26,241.99z"/>
<path class="NeckAndArmTrim fill" d="M2.1,213.83c0.5-5.66,1.15-11.18,1.91-16.56c6.25,3.83,49.69,29.65,83.83,29.65c0.35,0,0.7-0.01,1.04-0.01
	c-1.73,6.82-1.67,11.26-1.6,12.55c-2.97,1.68-6.85,2.53-11.56,2.53C49.81,241.99,6.2,216.28,2.1,213.83z"/>
<path class="Colour2 fill" d="M228.86,18.83v554.32c5.02,0.26,10.24,0.5,15.64,0.73V19.45C239.05,19.41,233.83,19.19,228.86,18.83z"/>
<path class="Colour2 fill" d="M266.14,18.83c-4.97,0.36-10.19,0.59-15.64,0.63v554.42c5.4-0.22,10.62-0.47,15.64-0.73V18.83z"/>
<path class="Colour3 fill" d="M222.87,572.82V18.32c-5.61-0.55-10.84-1.26-15.64-2.06v555.58C212.22,572.19,217.43,572.51,222.87,572.82z
	"/>
<path class="Colour3 fill" d="M272.13,572.82c5.44-0.31,10.65-0.64,15.64-0.98V16.26c-4.81,0.8-10.04,1.51-15.64,2.06V572.82z"/>
<path class="Colour2 fill" d="M98.57,203.84c-0.05-2.15-0.22-6.81-0.81-13.37c-32.13-15.83-66.89-27.66-85.94-33.63
	c-1.02,3.65-1.99,7.39-2.9,11.24C28.97,174.41,66.17,187.17,98.57,203.84z"/>
<path class="Colour2 fill" d="M396.43,203.84c0.05-2.15,0.22-6.81,0.81-13.37c32.13-15.83,66.89-27.66,85.94-33.63
	c1.02,3.65,1.99,7.39,2.9,11.24C466.04,174.41,428.83,187.17,396.43,203.84z"/>
<path class="Colour3 fill" d="M7.4,174.77c-0.8,3.73-1.55,7.54-2.24,11.43c17.61,5.45,53.69,17.45,86.53,33.49
	c1.18-3.21,2.72-6.75,4.73-10.58C61.99,192.3,24.83,180.1,7.4,174.77z"/>
<path class="Colour3 fill" d="M487.6,174.77c0.8,3.73,1.55,7.54,2.24,11.43c-17.61,5.45-53.69,17.45-86.53,33.49
	c-1.18-3.21-2.72-6.75-4.73-10.58C433.01,192.3,470.17,180.1,487.6,174.77z"/>
<g id="BBodyLogos"></g>
<path class="NeckAndArmTrim fill" d="M310.75,2.28l-0.1,0.01c0,0-25.35,9.15-63.15,8.97l-0.36,0c-37.6,0.12-62.79-8.97-62.79-8.97l-0.1-0.01
	l-11.93,4.94c0,0,29.99,12.38,74.75,12.24l0.43,0c45,0.21,75.18-12.24,75.18-12.24L310.75,2.28z"/>
<g>
	<path class="BottomHem fill" d="M246.32,559.17c124.55-4.95,147.55-20.8,147.55-20.8l1.37,14.83c0,0-34.6,17.86-149.34,20.8
		c0,0-105.75-1.2-148.49-20.8l1.37-14.83C98.77,538.37,121.78,554.22,246.32,559.17"/>
</g>
<path class="st0" d="M3.57,196.31c0,0,48.93,31.05,86.1,30.01"/>
<path class="st1" d="M3.03,200.77c0,0,48.93,31.05,86.1,30.01"/>
<path class="st0" d="M491.43,196.31c0,0-48.93,31.05-86.1,30.01"/>
<path class="st1" d="M491.97,200.77c0,0-48.93,31.05-86.1,30.01"/>
<g>
	<path class="st0" d="M395.05,538.37c0,0-23,15.85-147.55,20.8"/>
	<path class="st0" d="M247.5,559.17c-124.55-4.95-147.55-20.8-147.55-20.8"/>
</g>
<g>
	<path class="st1" d="M395.05,542.82c0,0-23,15.85-147.55,20.8"/>
	<path class="st1" d="M247.5,563.63c-124.55-4.95-147.55-20.8-147.55-20.8"/>
</g>
<g>
	<path class="st0" d="M439.12,65.26c0,0,46.18,54.98,54.38,148.6c0,0-64.06,39.01-86.41,25.63c0,0,1.37-13.62-10.68-34.3
		C396.42,205.19,396.29,131.02,439.12,65.26z"/>
	<path class="st0" d="M55.88,65.26c0,0-46.18,54.98-54.38,148.6c0,0,64.06,39.01,86.41,25.63c0,0-1.37-13.62,10.68-34.3
		C98.58,205.19,98.71,131.02,55.88,65.26z"/>
	<path class="st0" d="M247.5,573.72c125.7-4.95,148.92-20.8,148.92-20.8c-14.4-153.55,0-347.72,0-347.72
		c2.98-84.21,42.71-139.93,42.71-139.93C427.95,46.69,322.8,6.94,322.8,6.94l-0.12,0.01c0,0-30.18,12.45-75.18,12.24l-0.43,0
		c-44.76,0.14-74.75-12.24-74.75-12.24l-0.12-0.01c0,0-105.15,39.75-116.33,58.33c0,0,39.73,55.72,42.71,139.93
		c0,0,14.4,194.17,0,347.72C98.58,552.91,121.8,568.76,247.5,573.72"/>
	<path class="st0" d="M310.75,2l-0.1,0.01c0,0-25.35,9.15-63.15,8.97l-0.36,0c-37.6,0.12-62.79-8.97-62.79-8.97L184.25,2
		l-11.93,4.94c0,0,29.99,12.38,74.75,12.24l0.43,0c45,0.21,75.18-12.24,75.18-12.24L310.75,2z"/>
</g>
</svg>
