<?xml version="1.0" encoding="utf-8"?>
<!-- Generator: Adobe Illustrator 19.1.0, SVG Export Plug-In . SVG Version: 6.00 Build 0)  -->
<svg version="1.1" id="Layer_1" xmlns="http://www.w3.org/2000/svg" xmlns:xlink="http://www.w3.org/1999/xlink" x="0px" y="0px"
	 viewBox="0 0 495 576" style="enable-background:new 0 0 495 576;" xml:space="preserve">
<style type="text/css">
	<![CDATA[
	@font-face{font-family:'codaheavy';src:url('/fonts/coda-heavy-webfont.woff') format('woff')}
	text{font-family:Impact,codaheavy,sans-serif}
	.Colour1.fill{fill:#000000;}
	.Colour2.fill{fill:#3DC8F4;}
	.Colour3.fill{fill:#FFFFFF;}
	.NeckAndArmTrim.fill{fill:#000000;}
	.BottomHem.fill{fill:#000000;}
	.st0{fill:none;stroke:#000000;stroke-miterlimit:10;}
	.st1{fill:#FFFFFF;stroke:#000000;stroke-miterlimit:10;}
	.st2{fill:#FFFFFF;}
	.st3{fill:none;stroke:#414042;stroke-miterlimit:10;}
	.st4{fill:none;stroke:#414042;stroke-miterlimit:10;stroke-dasharray:2;}
	]]>
</style>
<path class="Colour1 fill" d="M439.11,64.79c0,0,46.18,55.06,54.37,148.82c0,0-64.06,39.07-86.4,25.67c0,0,1.37-13.64-10.68-34.35
	C396.4,204.93,396.28,130.64,439.11,64.79z"/>
<path class="Colour1 fill" d="M55.87,64.79c0,0-46.18,55.06-54.37,148.82c0,0,64.06,39.07,86.4,25.67c0,0-1.37-13.64,10.68-34.35
	C98.58,204.93,98.7,130.64,55.87,64.79z"/>
<path class="NeckAndArmTrim fill" d="M419.23,241.5c-4.7,0-8.59-0.85-11.56-2.54c0.07-1.29,0.13-5.74-1.6-12.57c0.35,0.01,0.69,0.01,1.04,0.01
	c34.14,0,77.58-25.86,83.83-29.7c0.77,5.39,1.41,10.91,1.91,16.58C488.77,215.75,445.16,241.5,419.23,241.5z"/>
<path class="NeckAndArmTrim fill" d="M2.09,213.3c0.5-5.67,1.15-11.2,1.91-16.58c6.25,3.83,49.69,29.7,83.83,29.7c0.35,0,0.7-0.01,1.04-0.01
	c-1.73,6.83-1.67,11.27-1.6,12.57c-2.97,1.68-6.85,2.54-11.56,2.54C49.8,241.5,6.18,215.75,2.09,213.3z"/>
<path class="Colour1 fill" d="M439.13,64.79C427.95,46.19,322.8,6.38,322.8,6.38l-0.31,0.11l0.26,0.14c0,0-3.86,57.71-75.02,57.83
	l-0.22,0c-71.37,0-75.24-57.83-75.24-57.83l0.24-0.13l-0.3-0.12c0,0-105.15,39.81-116.32,58.41c0,0,39.73,55.81,42.71,140.14
	c0,0,14.4,194.46,0,348.24c0,0,23.21,15.87,148.91,20.83c125.7-4.96,148.91-20.83,148.91-20.83c-14.4-153.78,0-348.24,0-348.24
	C399.4,120.6,439.13,64.79,439.13,64.79z"/>
<path class="st0" d="M247.51,6.38"/>
<g>
	<path class="st1" d="M247.51,11.49"/>
</g>
<g>
	<path class="st1" d="M247.51,11.49C287.45,11.68,314.24,2,314.24,2v9.6c0,0-37.4,8.25-66.73,8.25l-0.29,0
		c-29.28-0.05-66.43-8.25-66.43-8.25V2c0,0,26.62,9.62,66.35,9.49L247.51,11.49z"/>
	<path class="st1" d="M247.51,64.45c-71.37,0-75.24-57.83-75.24-57.83L180.78,2c0,0,9.26,48.82,66.73,48.82l0.32,0
		C305.01,50.64,314.24,2,314.24,2l8.51,4.63c0,0-3.86,57.71-75.02,57.83L247.51,64.45z"/>
</g>
<path class="st2" d="M247.83,50.82l-0.32,0c-40.44,0-57.01-24.18-63.28-38.5c9.87,2,39.05,7.48,62.98,7.53l0.29,0
	c23.99,0,53.37-5.52,63.28-7.53C304.53,26.61,288.04,50.69,247.83,50.82z"/>
<path class="Colour3 fill" d="M207.24,56.22v515.62c4.99,0.35,10.2,0.68,15.64,0.99V61.75C217.02,60.35,211.83,58.46,207.24,56.22z"/>
<path class="Colour3 fill" d="M272.13,61.75v511.07c5.44-0.31,10.65-0.64,15.64-0.99V56.22C283.19,58.46,278,60.35,272.13,61.75z"/>
<path class="Colour2 fill" d="M228.87,62.97v510.17c5.02,0.26,10.24,0.51,15.64,0.73V64.42C238.87,64.29,233.67,63.78,228.87,62.97z"/>
<path class="Colour2 fill" d="M266.15,62.97c-4.8,0.81-10,1.31-15.64,1.44v509.46c5.4-0.22,10.62-0.47,15.64-0.73V62.97z"/>
<path class="Colour2 fill" d="M98.56,203.57c-0.05-2.16-0.22-6.82-0.81-13.39c-32.13-15.86-66.89-27.7-85.93-33.68
	c-1.02,3.65-1.99,7.4-2.9,11.25C28.95,174.1,66.15,186.88,98.56,203.57z"/>
<path class="Colour2 fill" d="M396.4,203.57c0.05-2.16,0.22-6.82,0.81-13.39c32.13-15.86,66.89-27.7,85.93-33.68
	c1.02,3.65,1.99,7.4,2.9,11.25C466.01,174.1,428.81,186.88,396.4,203.57z"/>
<path class="Colour3 fill" d="M7.39,174.46c-0.8,3.73-1.55,7.55-2.24,11.45c17.61,5.46,53.69,17.48,86.53,33.54
	c1.18-3.22,2.72-6.76,4.73-10.59C61.98,192.01,24.82,179.8,7.39,174.46z"/>
<path class="Colour3 fill" d="M487.57,174.46c0.8,3.73,1.55,7.55,2.24,11.45c-17.61,5.46-53.69,17.48-86.53,33.54
	c-1.18-3.22-2.72-6.76-4.73-10.59C432.99,192.01,470.15,179.8,487.57,174.46z"/>
<g id="FBodyLogos"></g>
<path class="NeckAndArmTrim fill" d="M247.51,11.49C287.45,11.68,314.24,2,314.24,2v9.6c0,0-37.4,8.25-66.73,8.25l-0.29,0
	c-29.28-0.05-66.43-8.25-66.43-8.25V2c0,0,26.62,9.62,66.35,9.49L247.51,11.49z"/>
<path class="NeckAndArmTrim fill" d="M247.51,64.45c-71.37,0-75.24-57.83-75.24-57.83L180.78,2c0,0,9.26,48.82,66.73,48.82l0.32,0
	C305.01,50.64,314.24,2,314.24,2l8.51,4.63c0,0-3.86,57.71-75.02,57.83L247.51,64.45z"/>
<g>
	<path class="BottomHem fill" d="M247.49,559.15c124.54-4.96,147.54-20.83,147.54-20.83l1.37,14.85c0,0-34.6,17.89-149.34,20.83
		c0,0-105.75-1.2-148.48-20.83l1.37-14.85C99.95,538.31,122.95,554.19,247.49,559.15"/>
</g>
<path class="st3" d="M3.57,195.75c0,0,48.93,31.09,86.1,30.05"/>
<path class="st4" d="M3.03,200.22c0,0,48.93,31.09,86.1,30.05"/>
<path class="st3" d="M405.32,225.81c37.16,1.04,86.1-30.05,86.1-30.05"/>
<path class="st4" d="M491.95,200.22c0,0-48.93,31.09-86.1,30.05"/>
<g>
	<path class="st3" d="M395.03,538.31c0,0-23,15.87-147.54,20.83"/>
	<path class="st3" d="M247.49,559.15c-124.54-4.96-147.54-20.83-147.54-20.83"/>
</g>
<g>
	<path class="st4" d="M395.03,542.78c0,0-23,15.87-147.54,20.83"/>
	<path class="st4" d="M247.49,563.61c-124.54-4.96-147.54-20.83-147.54-20.83"/>
</g>
<g>
	<path class="st3" d="M314.24,2c0,0-26.79,9.68-66.73,9.49l-0.38,0C207.4,11.62,180.78,2,180.78,2l-8.51,4.63
		c0,0,3.87,57.83,75.24,57.83l0.22,0c71.16-0.12,75.02-57.83,75.02-57.83L314.24,2z M247.83,50.82l-0.32,0
		c-40.44,0-57.01-24.18-63.28-38.5c9.86,2,39.04,7.48,62.98,7.53l0.29,0c23.99,0,53.38-5.52,63.28-7.53
		C304.53,26.61,288.04,50.69,247.83,50.82z"/>
	<g>
		<path class="st3" d="M439.13,64.79c0,0,46.18,55.06,54.37,148.82c0,0-64.06,39.07-86.4,25.67c0,0,1.37-13.64-10.68-34.35
			C396.42,204.93,396.3,130.64,439.13,64.79z"/>
		<path class="st3" d="M55.89,64.79c0,0-46.18,55.06-54.37,148.82c0,0,64.06,39.07,86.4,25.67c0,0-1.37-13.64,10.68-34.35
			C98.6,204.93,98.72,130.64,55.89,64.79z"/>
		<g>
			<path class="st3" d="M439.14,64.79C427.97,46.19,322.82,6.38,322.82,6.38l-0.31,0.11l0.26,0.14c0,0-3.86,57.71-75.02,57.83
				l-0.22,0c-71.37,0-75.24-57.83-75.24-57.83l0.24-0.13l-0.3-0.12c0,0-105.15,39.81-116.32,58.41c0,0,39.73,55.81,42.71,140.14
				c0,0,14.4,194.46,0,348.24c0,0,23.21,15.87,148.91,20.83c125.7-4.96,148.91-20.83,148.91-20.83c-14.4-153.78,0-348.24,0-348.24
				C399.42,120.6,439.14,64.79,439.14,64.79z"/>
		</g>
	</g>
</g>
</svg>
