<?xml version="1.0" encoding="utf-8"?>
<!-- Generator: Adobe Illustrator 19.1.0, SVG Export Plug-In . SVG Version: 6.00 Build 0)  -->
<svg version="1.1" id="Layer_1" xmlns="http://www.w3.org/2000/svg" xmlns:xlink="http://www.w3.org/1999/xlink" x="0px" y="0px"
	 viewBox="0 0 495 576" style="enable-background:new 0 0 495 576;" xml:space="preserve">
<style type="text/css">
	<![CDATA[
	@font-face{font-family:'codaheavy';src:url('/fonts/coda-heavy-webfont.woff') format('woff')}
	text{font-family:Impact,codaheavy,sans-serif}
	.Colour1.fill{fill:#0D143A;}
	.Colour2.fill{fill:#00ADEE;}
	.Colour3.fill{fill:#FFFFFF;}
	.NeckAndArmTrim.fill{fill:#0D143A;}
	.BottomHem.fill{fill:#0D143A;}
	.st0{fill:#FFFFFF;stroke:#000000;stroke-miterlimit:10;}
	.st1{fill:none;stroke:#000000;stroke-miterlimit:10;}
	.st2{fill:#004CAA;stroke:#000000;stroke-miterlimit:10;}
	.st3{fill:none;stroke:#6D6E71;stroke-miterlimit:10;}
	.st4{fill:none;stroke:#6D6E71;stroke-miterlimit:10;stroke-dasharray:2;}
	]]>
</style>
<path class="Colour1 fill" d="M439.21,64.69c0,0,46.19,55.05,54.29,148.73c0,0-64.02,38.98-86.36,25.68c0,0,1.39-13.65-10.65-34.35
	C396.6,204.74,396.49,130.49,439.21,64.69z"/>
<path class="Colour1 fill" d="M56.37,64.69c0,0-46.19,55.05-54.29,148.73c0,0,64.02,38.98,86.36,25.68c0,0-1.39-13.65,10.65-34.35
	C99.09,204.74,99.21,130.49,56.37,64.69z"/>
<path class="Colour1 fill" d="M439.21,64.69C428.09,46.06,322.98,6.28,322.98,6.28l-0.35,0.12l0.23,0.12c0,0-3.82,57.71-74.9,57.83h-0.23
	c-71.31,0-75.13-57.83-75.13-57.83l0.23-0.12l-0.35-0.12c0,0-105,39.79-116.23,58.41c0,0,39.71,55.75,42.72,140.06
	c0,0,14.35,194.3,0,347.89c0,0,23.15,15.84,148.76,20.82c125.6-4.97,148.76-20.82,148.76-20.82c-14.35-153.59,0-347.89,0-347.89
	C399.61,120.43,439.21,64.69,439.21,64.69z"/>
<path class="Colour3 fill" d="M247.27,115.34c58.69,0,113.22,9.37,158.37,25.44c12.62-47.3,32.99-75.99,32.99-75.99
	C427.51,46.18,322.4,6.39,322.4,6.39l-0.35,0.12l0.23,0.12c0,0-3.82,57.71-74.9,57.83h-0.23c-71.31,0-75.13-57.83-75.13-57.83
	l0.23-0.12l-0.35-0.12c0,0-105,39.79-116.23,58.41c0,0,20.37,28.68,32.99,75.99C134.05,124.71,188.58,115.34,247.27,115.34z"/>
<g>
	<path class="st0" d="M247.27,11.6c39.94,0.23,66.68-9.48,66.68-9.48v9.6c0,0-37.39,8.21-66.68,8.21h-0.35
		c-29.29,0-66.33-8.21-66.33-8.21v-9.6c0,0,26.63,9.6,66.33,9.48H247.27z"/>
	<path class="st0" d="M247.27,64.45c-71.31,0-75.13-57.83-75.13-57.83L180.59,2c0,0,9.26,48.81,66.68,48.81h0.35
		C304.69,50.58,313.95,2,313.95,2l8.45,4.63c0,0-3.82,57.71-74.9,57.83H247.27z"/>
</g>
<g>
	<path class="st1" d="M394.64,542.69c0,0-22.92,15.84-147.37,20.82"/>
	<path class="st1" d="M247.27,563.51C122.82,558.53,99.9,542.69,99.9,542.69"/>
</g>
<path class="st2" d="M247.27,31.61"/>
<path class="st0" d="M247.62,50.92h-0.35c-40.4,0-56.96-24.17-63.21-38.51c9.84,1.97,39.01,7.52,62.98,7.52h0.35
	c23.96,0,53.37-5.55,63.21-7.52C304.22,26.63,287.79,50.69,247.62,50.92z"/>
<path class="NeckAndArmTrim fill" d="M247.27,11.6c39.94,0.23,66.68-9.48,66.68-9.48v9.6c0,0-37.39,8.21-66.68,8.21h-0.35
	c-29.29,0-66.33-8.21-66.33-8.21v-9.6c0,0,26.63,9.6,66.33,9.48H247.27z"/>
<path class="NeckAndArmTrim fill" d="M247.27,64.45c-71.31,0-75.13-57.83-75.13-57.83L180.59,2c0,0,9.26,48.81,66.68,48.81h0.35
	C304.69,50.58,313.95,2,313.95,2l8.45,4.63c0,0-3.82,57.71-74.9,57.83H247.27z"/>
<path class="Colour2 fill" d="M98.28,198.85c-0.12-3.01-0.46-7.05-0.93-12.03l-82.89-39.55c-1.04,3.24-1.97,6.71-3.01,10.18L98.28,198.85
	z"/>
<path class="Colour2 fill" d="M396.26,198.85c0.12-3.01,0.46-7.05,0.93-12.03l82.89-39.55c1.04,3.24,1.97,6.71,3.01,10.18L396.26,198.85z
	"/>
<path class="Colour2 fill" d="M90.41,222.67L5.78,182.31c-0.69,3.47-1.27,7.05-1.85,10.64l84.16,40.13
	C88.44,230.42,89.13,226.83,90.41,222.67z"/>
<path class="Colour2 fill" d="M404.01,222.67l84.62-40.36c0.69,3.47,1.27,7.05,1.85,10.64l-84.16,40.13
	C405.98,230.42,405.4,226.83,404.01,222.67z"/>
<path class="Colour3 fill" d="M6.59,178.37l85.2,40.59c1.62-4.16,3.7-8.91,6.71-14.11c0,0,0-0.69,0-1.85l-87.98-41.98
	C9.14,166.58,7.75,172.36,6.59,178.37z"/>
<path class="Colour3 fill" d="M487.94,178.37l-85.2,40.59c-1.62-4.16-3.7-8.91-6.71-14.11c0,0,0-0.69,0-1.85l87.87-41.98
	C485.4,166.58,486.67,172.36,487.94,178.37z"/>
<path class="Colour2 fill" d="M247.27,97.99c59.39,0,115.19,9.37,163.46,25.79c12.39-37.01,27.9-58.87,27.9-58.87
	C427.51,46.3,322.4,6.51,322.4,6.51l-0.35,0.12l0.23,0.12c0,0-3.82,57.71-74.9,57.83h-0.23c-71.31,0-75.13-57.83-75.13-57.83
	l0.23-0.12l-0.35-0.12c0,0-105,39.79-116.23,58.41c0,0,15.51,21.86,27.9,58.87C132.08,107.36,187.88,97.99,247.27,97.99z"/>
<g>
	<path class="Colour2 fill" d="M410.73,123.67c0,0,28.02,3.12,69.23,23.59c0,0-13.89-47.19-41.33-82.46
		C438.63,64.8,422.77,88.51,410.73,123.67z"/>
	<path class="Colour2 fill" d="M83.46,123.67c0,0-28.02,3.12-69.23,23.59c0,0,13.89-47.19,41.33-82.46
		C55.56,64.8,71.54,88.51,83.46,123.67z"/>
</g>
<path class="Colour3 fill" d="M389.77,416.28c-0.12-9.6-0.12-19.2-0.12-28.57H104.88c0,9.37,0,18.85-0.12,28.57H389.77z"/>
<path class="Colour2 fill" d="M104.3,341.45c0.23,12.72,0.46,26.02,0.46,39.67h284.78c0.12-13.65,0.23-26.95,0.46-39.67H104.3z"/>
<path class="Colour2 fill" d="M104.76,422.75c-0.12,13.07-0.46,26.37-0.81,39.67H390.7c-0.46-13.3-0.69-26.6-0.81-39.67H104.76z"/>
<path class="BottomHem fill" d="M247.36,559.09c125.01-4.98,148.1-20.91,148.1-20.91l1.37,14.91c0,0-34.73,17.96-149.9,20.91
	c0,0-106.15-1.21-149.04-20.91l1.37-14.91C99.26,538.18,122.35,554.11,247.36,559.09"/>
<g id="FBodyLogos"></g>
<path class="NeckAndArmTrim fill" d="M418.83,241.64c-4.75,0-8.57-0.81-11.58-2.54c0.12-1.27,0.12-5.78-1.62-12.61c0.35,0,0.69,0,1.04,0
	c34.15,0,77.56-25.79,83.7-29.72c0.81,5.44,1.39,10.87,1.97,16.54C488.29,215.96,444.76,241.64,418.83,241.64z"/>
<path class="NeckAndArmTrim fill" d="M2.08,213.53c0.46-5.67,1.16-11.22,1.97-16.54c6.25,3.82,49.66,29.72,83.7,29.72c0.35,0,0.69,0,1.04,0
	c-1.74,6.82-1.62,11.22-1.62,12.61c-3.01,1.73-6.83,2.54-11.58,2.54C49.77,241.64,6.25,215.96,2.08,213.53z"/>
<g>
	<path class="st3" d="M394.64,538.18c0,0-22.92,15.84-147.37,20.82"/>
	<path class="st3" d="M247.27,559C122.82,554.02,99.9,538.18,99.9,538.18"/>
</g>
<g>
	<path class="st4" d="M247.27,563.51c124.45-4.97,147.37-20.82,147.37-20.82"/>
	<path class="st4" d="M247.27,563.51C122.82,558.53,99.9,542.69,99.9,542.69"/>
</g>
<g>
	<path class="st4" d="M3,200.46c0,0,48.85,31.11,86.01,30.07"/>
	<path class="st4" d="M491.53,200.46c0,0-48.85,31.11-86.01,30.07"/>
</g>
<g>
	<path class="st3" d="M313.95,2.12c0,0-26.74,9.72-66.68,9.48h-0.35c-39.71,0.12-66.33-9.48-66.33-9.48l-8.45,4.63
		c0,0,3.82,57.83,75.13,57.83h0.23c71.08-0.12,74.9-57.83,74.9-57.83L313.95,2.12z M247.62,50.92h-0.35
		c-40.4,0-56.96-24.17-63.21-38.51c9.84,1.97,39.01,7.52,62.98,7.52h0.35c23.96,0,53.37-5.55,63.21-7.52
		C304.22,26.63,287.79,50.69,247.62,50.92z"/>
	<g>
		<path class="st3" d="M438.63,64.8c0,0,46.19,55.05,54.29,148.73c0,0-64.02,38.98-86.36,25.68c0,0,1.39-13.65-10.65-34.35
			C396.03,204.86,395.91,130.61,438.63,64.8z"/>
		<path class="st3" d="M55.79,64.8c0,0-46.19,55.05-54.29,148.73c0,0,64.02,38.98,86.36,25.68c0,0-1.39-13.65,10.65-34.35
			C98.51,204.86,98.63,130.61,55.79,64.8z"/>
		<g>
			<path class="st3" d="M438.74,64.8C427.63,46.18,322.52,6.39,322.52,6.39l-0.35,0.12l0.23,0.12c0,0-3.82,57.71-74.9,57.83h-0.23
				c-71.31,0-75.13-57.83-75.13-57.83l0.23-0.12l-0.35-0.12c0,0-105,39.79-116.23,58.41c0,0,39.71,55.75,42.72,140.06
				c0,0,14.35,194.3,0,347.89c0,0,23.15,15.84,148.76,20.82c125.6-4.97,148.76-20.82,148.76-20.82c-14.35-153.59,0-347.89,0-347.89
				C399.04,120.55,438.74,64.8,438.74,64.8z"/>
		</g>
	</g>
</g>
</svg>
