<?xml version="1.0" encoding="utf-8"?>
<!-- Generator: Adobe Illustrator 19.1.0, SVG Export Plug-In . SVG Version: 6.00 Build 0)  -->
<svg version="1.1" id="Layer_1" xmlns="http://www.w3.org/2000/svg" xmlns:xlink="http://www.w3.org/1999/xlink" x="0px" y="0px"
	 viewBox="0 0 495 576" style="enable-background:new 0 0 495 576;" xml:space="preserve">
<style type="text/css">
	<![CDATA[
	@font-face{font-family:'codaheavy';src:url('/fonts/coda-heavy-webfont.woff') format('woff')}
	text{font-family:Impact,codaheavy,sans-serif}
	.Number.fill{fill:#000}
	.NumberOutline.stroke{fill:none;stroke:#777;stroke-width:2.5}
	.Colour1.fill{fill:#0D143A;}
	.Colour2.fill{fill:#00ADEE;}
	.Colour3.fill{fill:#FFFFFF;}
	.NeckAndArmTrim.fill{fill:#0D143A;}
	.BottomHem.fill{fill:#0D143A;}
	.st0{fill:none;stroke:#000000;stroke-miterlimit:10;}
	.st1{fill:none;stroke:#6D6E71;stroke-miterlimit:10;}
	.st2{fill:none;stroke:#6D6E71;stroke-miterlimit:10;stroke-dasharray:2;}
	]]>
</style>
<g>
	<path class="Colour1 fill" d="M439.21,65.44c0,0,46.19,55.01,54.29,148.61c0,0-64.02,38.94-86.36,25.65c0,0,1.39-13.64-10.65-34.32
		C396.49,205.27,396.37,131.2,439.21,65.44z"/>
	<path class="Colour1 fill" d="M56.37,65.44c0,0-46.19,55.01-54.29,148.61c0,0,64.02,38.94,86.36,25.65c0,0-1.39-13.64,10.65-34.32
		C98.97,205.27,99.09,131.2,56.37,65.44z"/>
</g>
<path class="Colour1 fill" d="M248.08,573.68c125.26-4.97,148.41-20.8,148.41-20.8c-14.35-153.47,0-347.61,0-347.61
	c3.01-84.24,42.72-139.95,42.72-139.95C428.09,46.72,322.98,6.97,322.98,6.97h-0.12c0,0-30.1,12.48-75.13,12.25h-0.46
	C202.58,19.33,172.6,6.97,172.6,6.97h-0.12c0,0-105,39.75-116.23,58.36c0,0,39.71,55.7,42.72,139.95c0,0,14.35,194.14,0,347.61
	c0,0,23.15,15.83,148.41,20.8H248.08z"/>
<path class="Colour3 fill" d="M405.66,140.7c1.46-5.41,3.14-10.98,5.07-16.67c7.78-22.93,17.79-42.4,27.9-58.47
	c-17.34-11.88-37.71-25.26-62.28-36.16C348.68,17.14,322.4,7.2,322.4,7.2h-0.12c0,0-30.1,12.48-75.13,12.25h-0.46
	C202,19.57,172.02,7.2,172.02,7.2h-0.12c0,0-105,39.75-116.23,58.36c1.66,2.52,3.31,5.1,4.92,7.76
	c13.89,22.86,22.63,45.9,28.1,67.33c45.86-7.91,101.4-13.95,164.48-13.53C311.16,127.49,362.55,133.25,405.66,140.7z"/>
<g>
	<path class="st0" d="M394.64,542.71c0,0-22.92,15.83-147.37,20.8"/>
	<path class="st0" d="M247.15,563.51c-124.45-4.97-147.37-20.8-147.37-20.8"/>
</g>
<path class="NeckAndArmTrim fill" d="M310.36,2.23L310.36,2.23c-0.12,0-25.47,9.13-63.21,9.01h-0.35c-37.51,0.12-62.74-9.01-62.74-9.01h-0.12
	L172.02,7.2c0,0,29.98,12.37,74.67,12.25h0.46c44.92,0.23,75.13-12.25,75.13-12.25L310.36,2.23z"/>
<path class="Colour2 fill" d="M98.16,199.15c-0.12-3-0.46-7.05-0.93-12.02l-82.89-39.52c-1.04,3.24-1.97,6.7-3.01,10.17L98.16,199.15z"/>
<path class="Colour2 fill" d="M396.14,199.15c0.12-3,0.46-7.05,0.93-12.02l82.89-39.52c1.04,3.24,1.97,6.7,3.01,10.17L396.14,199.15z"/>
<path class="Colour2 fill" d="M90.41,222.95L5.78,182.62c-0.69,3.47-1.27,7.05-1.85,10.63l84.16,40.1
	C88.44,230.7,89.02,227.11,90.41,222.95z"/>
<path class="Colour2 fill" d="M404.01,222.95l84.62-40.33c0.69,3.47,1.27,7.05,1.85,10.63l-84.16,40.1
	C405.98,230.7,405.29,227.11,404.01,222.95z"/>
<path class="Colour3 fill" d="M6.48,178.69l85.2,40.56c1.62-4.16,3.7-8.9,6.71-14.1c0,0,0-0.69,0-1.85l-87.87-41.95
	C9.02,166.91,7.75,172.68,6.48,178.69z"/>
<path class="Colour3 fill" d="M487.83,178.69l-85.2,40.56c-1.62-4.16-3.7-8.9-6.71-14.1c0,0,0-0.69,0-1.85l87.87-41.95
	C485.28,166.91,486.67,172.68,487.83,178.69z"/>
<path class="Colour2 fill" d="M410.73,124.03c2.84-9.59,6.89-20.7,12.75-32.61c4.93-10.02,10.18-18.64,15.15-25.87
	c-3.45-3.09-8.73-7.57-15.56-12.4c-15.6-11.03-28.56-16.31-46.72-23.75c-15.65-6.41-31.04-12.75-53.95-22.2h-0.12
	c0,0-30.1,12.48-75.13,12.25h-0.46C202,19.57,172.02,7.2,172.02,7.2h-0.12c0,0-105,39.75-116.23,58.36
	c3.54,5.38,7.09,11.2,10.55,17.48c8.04,14.62,13.86,28.59,18.11,41.11c46.02-8.33,102.26-14.88,166.43-14.68
	C312.14,109.66,366.14,115.99,410.73,124.03z"/>
<path class="Colour2 fill" d="M410.73,124.03c0,0,28.02,3.12,69.23,23.57c0,0-13.89-47.15-41.33-82.4
	C438.63,65.21,422.77,88.9,410.73,124.03z"/>
<path class="Colour2 fill" d="M83.46,124.03c0,0-28.02,3.12-69.23,23.57c0,0,13.89-47.15,41.33-82.4C55.56,65.21,71.42,88.9,83.46,124.03
	z"/>
<path class="Colour3 fill" d="M389.66,416.4c-0.12-9.59-0.12-19.18-0.12-28.54H104.76c0,9.36,0,18.84-0.12,28.54H389.66z"/>
<path class="Colour2 fill" d="M104.3,341.64c0.23,12.71,0.46,26,0.46,39.64h284.78c0.12-13.64,0.23-26.93,0.46-39.64H104.3z"/>
<path class="Colour2 fill" d="M104.65,422.88c-0.12,13.06-0.46,26.35-0.81,39.64h286.75c-0.46-13.29-0.69-26.58-0.81-39.64H104.65z"/>
<g>
	<path class="BottomHem fill" d="M247.27,559.1c125.01-4.98,148.1-20.9,148.1-20.9l1.37,14.9c0,0-34.73,17.95-149.9,20.9
		c0,0-106.15-1.21-149.04-20.9l1.37-14.9C99.17,538.21,122.26,554.13,247.27,559.1"/>
</g>
<g id="BBodyLogos"></g>
<path class="NeckAndArmTrim fill" d="M418.72,242.02c-4.75,0-8.57-0.81-11.58-2.54c0.12-1.27,0.12-5.78-1.62-12.6c0.35,0,0.69,0,1.04,0
	c34.15,0,77.56-25.77,83.7-29.7c0.81,5.43,1.39,10.86,1.97,16.53C488.29,216.37,444.65,242.02,418.72,242.02z"/>
<path class="NeckAndArmTrim fill" d="M2.08,213.94c0.46-5.66,1.16-11.21,1.97-16.53c6.25,3.81,49.66,29.7,83.7,29.7c0.35,0,0.69,0,1.04,0
	c-1.74,6.82-1.62,11.21-1.62,12.6c-3.01,1.73-6.83,2.54-11.58,2.54C49.66,242.02,6.13,216.37,2.08,213.94z"/>
<g>
	<path class="st1" d="M3.47,196.26c0,0,48.85,31.09,86.01,30.05"/>
	<path class="st1" d="M490.84,196.26c0,0-48.85,31.09-86.01,30.05"/>
	<g>
		<path class="st1" d="M394.64,538.21c0,0-22.92,15.83-147.37,20.8"/>
		<path class="st1" d="M247.15,559.01c-124.45-4.97-147.37-20.8-147.37-20.8"/>
	</g>
	<g>
		<path class="st2" d="M247.15,563.51c124.45-4.97,147.37-20.8,147.37-20.8"/>
		<path class="st2" d="M247.15,563.51c-124.45-4.97-147.37-20.8-147.37-20.8"/>
	</g>
	<g>
		<path class="st2" d="M3,200.77c0,0,48.85,31.09,86.01,30.05"/>
		<path class="st2" d="M491.42,200.77c0,0-48.85,31.09-86.01,30.05"/>
	</g>
	<g>
		<path class="st1" d="M438.63,65.21c0,0,46.19,55.01,54.29,148.61c0,0-64.02,38.94-86.36,25.65c0,0,1.39-13.64-10.65-34.32
			C395.91,205.16,395.79,130.97,438.63,65.21z"/>
		<path class="st1" d="M55.79,65.21c0,0-46.19,55.01-54.29,148.61c0,0,64.02,38.94,86.36,25.65c0,0-1.39-13.64,10.65-34.32
			C98.4,205.16,98.51,130.97,55.79,65.21z"/>
		<path class="st1" d="M247.15,573.57c125.6-4.97,148.76-20.8,148.76-20.8c-14.35-153.47,0-347.61,0-347.61
			c3.01-84.24,42.72-139.95,42.72-139.95C427.51,46.61,322.4,6.85,322.4,6.85h-0.12c0,0-30.1,12.48-75.13,12.25h-0.46
			C202,19.22,172.02,6.85,172.02,6.85h-0.12c0,0-105,39.75-116.23,58.36c0,0,39.71,55.7,42.72,139.95c0,0,14.35,194.14,0,347.61
			C98.4,552.77,121.66,568.6,247.15,573.57"/>
		<path class="st1" d="M310.36,2L310.36,2c-0.12,0-25.47,9.13-63.21,9.01h-0.35C209.3,11.13,184.06,2,184.06,2h-0.12l-11.92,4.97
			c0,0,29.98,12.37,74.67,12.25h0.46c44.92,0.23,75.13-12.25,75.13-12.25L310.36,2z"/>
	</g>
</g>
</svg>
