<?xml version="1.0" encoding="utf-8"?>
<!-- Generator: Adobe Illustrator 19.1.0, SVG Export Plug-In . SVG Version: 6.00 Build 0)  -->
<svg version="1.1" id="Layer_1" xmlns="http://www.w3.org/2000/svg" xmlns:xlink="http://www.w3.org/1999/xlink" x="0px" y="0px"
	 viewBox="0 0 495 576" style="enable-background:new 0 0 495 576;" xml:space="preserve">
<style type="text/css">
	<![CDATA[
	@font-face{font-family:'codaheavy';src:url('/fonts/coda-heavy-webfont.woff') format('woff')}
	text{font-family:Impact,codaheavy,sans-serif}
	.Number.fill{fill:#000}
	.NumberOutline.stroke{fill:none;stroke:#777;stroke-width:2.5}
	.Colour1.fill{fill:#1C181A;}
	.Colour2.fill{fill:#E62E0B;}
	.Colour3.fill{fill:#FFFFFF;}
	.NeckAndArmTrim.fill{fill:#E62E0B;}
	.BottomHem.fill{fill:#E62E0B;}
	.st0{fill:none;stroke:#000000;stroke-miterlimit:10;stroke-dasharray:2;}
	.st1{fill:none;stroke:#000000;stroke-miterlimit:10;}
	.st2{fill:none;stroke:#FFFFFF;stroke-miterlimit:10;}
	.st3{fill:none;stroke:#FFFFFF;stroke-miterlimit:10;stroke-dasharray:2;}
	.st4{fill:#1C181A;}
	]]>
</style>
<path class="Colour1 fill" d="M247.91,573.99c124.91-4.97,147.99-20.79,147.99-20.79c-14.35-153.55,0-347.72,0-347.72
	c2.97-84.21,42.54-139.93,42.54-139.93C427.31,46.97,322.57,7.22,322.57,7.22l-0.12,0.01c0,0-30.06,12.45-74.88,12.24l-0.43,0
	c-44.58,0.14-74.46-12.24-74.46-12.24l-0.12-0.01c0,0-104.74,39.75-115.87,58.33c0,0,39.57,55.72,42.54,139.93
	c0,0,14.35,194.17,0,347.72c0,0,23.08,15.82,148.01,20.79L247.91,573.99z"/>
<path class="Colour1 fill" d="M438.44,65.54c0,0,46,54.98,54.16,148.6c0,0-63.81,39.01-86.07,25.63c0,0,1.36-13.62-10.63-34.3
	C395.9,205.47,395.78,131.3,438.44,65.54z"/>
<path class="Colour1 fill" d="M56.7,65.54c0,0-46,54.98-54.16,148.6c0,0,63.81,39.01,86.07,25.63c0,0-1.36-13.62,10.63-34.3
	C99.24,205.47,99.36,131.3,56.7,65.54z"/>
<g>
	<path class="st0" d="M394.54,542.82c0,0-22.91,15.85-146.97,20.8"/>
	<path class="st0" d="M247.57,563.63c-124.06-4.95-146.97-20.8-146.97-20.8"/>
</g>
<path class="NeckAndArmTrim fill" d="M310.57,2.28l-0.1,0.01c0,0-25.25,9.15-62.9,8.97l-0.36,0c-37.45,0.12-62.54-8.97-62.54-8.97l-0.1-0.01
	l-11.88,4.94c0,0,29.87,12.38,74.46,12.24l0.43,0c44.82,0.21,74.88-12.24,74.88-12.24L310.57,2.28z"/>
<path class="Colour2 fill" d="M99.04,199.17c-0.16-3.01-0.44-7.07-0.95-11.98l-82.6-39.5c-1.02,3.28-2.01,6.66-2.95,10.12L99.04,199.17z"
	/>
<path class="Colour2 fill" d="M91.24,223.01L6.82,182.65c-0.66,3.49-1.26,7.04-1.82,10.66l83.89,40.11
	C89.23,230.73,89.92,227.22,91.24,223.01z"/>
<path class="Colour2 fill" d="M396.1,199.17c0.16-3.01,0.44-7.07,0.95-11.98l82.6-39.5c1.02,3.28,2.01,6.66,2.95,10.12L396.1,199.17z"/>
<path class="Colour2 fill" d="M403.9,223.01l84.42-40.37c0.66,3.49,1.26,7.04,1.82,10.66l-83.89,40.11
	C405.91,230.73,405.22,227.22,403.9,223.01z"/>
<path class="Colour3 fill" d="M7.58,178.73l84.91,40.6c1.56-4.2,3.73-8.95,6.74-14.14c0,0,0-0.64-0.03-1.86l-87.64-41.91
	C10.12,166.98,8.79,172.75,7.58,178.73z"/>
<path class="Colour3 fill" d="M487.56,178.73l-84.91,40.6c-1.56-4.2-3.73-8.95-6.74-14.14c0,0,0-0.64,0.03-1.86l87.64-41.91
	C485.02,166.98,486.35,172.75,487.56,178.73z"/>
<path class="Colour2 fill" d="M410.65,124.09l56.27-10.17c-14.1-31.48-28.46-48.65-28.46-48.65c-12.72,19.6-21.63,39.94-27.88,58.85
	L410.65,124.09z"/>
<path class="Colour2 fill" d="M84.49,124.09l-56.27-10.17c14.1-31.48,28.46-48.65,28.46-48.65c12.72,19.6,21.63,39.94,27.88,58.85
	L84.49,124.09z"/>
<path class="Colour2 fill" d="M410.65,124.09c3.18-10.55,7.72-22.71,14.31-35.67c4.39-8.63,9-16.25,13.48-22.87
	c-1.15-1.24-2.81-2.94-4.91-4.87c0,0-4.75-4.36-10.19-8.07C409.7,43.3,322.57,7.22,322.57,7.22l-0.12,0.01
	c0,0-30.06,12.45-74.88,12.24l-0.43,0c-44.58,0.14-74.46-12.24-74.46-12.24l-0.12-0.01c0,0-104.74,39.75-115.87,58.33
	c0.88,1.32,1.76,2.65,2.62,4c11.51,18,19.58,36.48,25.16,54.54c38.4-12.25,95.69-25.77,165.99-25.39
	C317.92,99.06,373.06,112.09,410.65,124.09z"/>
<g>
	<path class="st1" d="M438.43,65.26c0,0,46,54.98,54.16,148.6c0,0-63.81,39.01-86.07,25.63c0,0,1.36-13.62-10.63-34.3
		C395.89,205.19,395.77,131.02,438.43,65.26z"/>
	<path class="st1" d="M56.69,65.26c0,0-46,54.98-54.16,148.6c0,0,63.81,39.01,86.07,25.63c0,0-1.36-13.62,10.63-34.3
		C99.23,205.19,99.35,131.02,56.69,65.26z"/>
	<path class="st1" d="M247.56,573.72c125.21-4.95,148.33-20.8,148.33-20.8c-14.35-153.55,0-347.72,0-347.72
		c2.97-84.21,42.54-139.93,42.54-139.93C427.3,46.69,322.56,6.94,322.56,6.94l-0.12,0.01c0,0-30.06,12.45-74.88,12.24l-0.43,0
		c-44.58,0.14-74.46-12.24-74.46-12.24l-0.12-0.01c0,0-104.74,39.75-115.87,58.33c0,0,39.57,55.72,42.54,139.93
		c0,0,14.35,194.17,0,347.72C99.23,552.91,122.35,568.77,247.56,573.72"/>
	<path class="st1" d="M310.56,2l-0.1,0.01c0,0-25.25,9.15-62.9,8.97l-0.36,0c-37.45,0.12-62.54-8.97-62.54-8.97L184.56,2
		l-11.88,4.94c0,0,29.87,12.38,74.46,12.24l0.43,0c44.82,0.21,74.88-12.24,74.88-12.24L310.56,2z"/>
</g>
<g id="BBodyLogos"></g>
<path class="BottomHem fill" d="M247.56,559.17c124.06-4.95,146.97-20.8,146.97-20.8l1.36,14.83c0,0-34.46,17.86-148.76,20.8
	c0,0-105.34-1.2-147.9-20.8l1.36-14.83C100.59,538.37,123.5,554.22,247.56,559.17"/>
<g>
	<path class="st2" d="M394.54,538.37c0,0-22.91,15.85-146.97,20.8"/>
	<path class="st2" d="M247.57,559.17c-124.06-4.95-146.97-20.8-146.97-20.8"/>
</g>
<g>
	<path class="st3" d="M247.57,563.63c124.06-4.95,146.97-20.8,146.97-20.8"/>
	<path class="st3" d="M247.57,563.63c-124.06-4.95-146.97-20.8-146.97-20.8"/>
</g>
<path class="NeckAndArmTrim fill" d="M419.01,243.28c-4.81,0-8.68-0.83-11.73-2.6c0.12-1.3,0.12-5.91-1.64-12.88c0.35,0,0.7,0,1.06,0
	c34.61,0,78.6-26.34,84.81-30.36c0.82,5.55,1.41,11.1,1.99,16.89C489.51,217.05,445.29,243.28,419.01,243.28z"/>
<path class="NeckAndArmTrim fill" d="M1.5,214.83c0.48-6.02,1.19-11.91,2.02-17.56c6.42,4.05,51,31.55,85.95,31.55c0.36,0,0.71,0,1.07,0
	c-1.78,7.24-1.66,11.91-1.66,13.38c-3.09,1.84-7.01,2.7-11.89,2.7C50.36,244.66,5.66,217.41,1.5,214.83z"/>
<g>
	<path class="st2" d="M4.6,196.31c0,0,48.74,31.05,85.76,30.01"/>
	<path class="st3" d="M4.06,200.77c0,0,48.74,31.05,85.76,30.01"/>
	<path class="st2" d="M490.54,196.31c0,0-48.74,31.05-85.76,30.01"/>
	<path class="st3" d="M491.08,200.77c0,0-48.74,31.05-85.76,30.01"/>
</g>
</svg>
