<?xml version="1.0" encoding="utf-8"?>
<!-- Generator: Adobe Illustrator 19.1.0, SVG Export Plug-In . SVG Version: 6.00 Build 0)  -->
<svg version="1.1" id="Layer_1" xmlns="http://www.w3.org/2000/svg" xmlns:xlink="http://www.w3.org/1999/xlink" x="0px" y="0px"
	 viewBox="0 0 495 576" style="enable-background:new 0 0 495 576;" xml:space="preserve">
<style type="text/css">
	<![CDATA[
	@font-face{font-family:'codaheavy';src:url('/fonts/coda-heavy-webfont.woff') format('woff')}
	text{font-family:Impact,codaheavy,sans-serif}
	.Colour1.fill{fill:#1C181A;}
	.Colour2.fill{fill:#E62E0B;}
	.Colour3.fill{fill:#FFFFFF;}
	.NeckAndArmTrim.fill{fill:#E62E0B;}
	.BottomHem.fill{fill:#E62E0B;}
	.st0{fill:#FFFFFF;stroke:#000000;stroke-miterlimit:10;}
	.st1{fill:none;stroke:#000000;stroke-miterlimit:10;stroke-dasharray:2;}
	.st2{fill:#004CAA;}
	.st3{fill:#FFFFFF;}
	.st4{fill:none;stroke:#000000;stroke-miterlimit:10;}
	.st5{fill:none;stroke:#FFFFFF;stroke-miterlimit:10;}
	.st6{fill:none;stroke:#FFFFFF;stroke-miterlimit:10;stroke-dasharray:2;}
	.st7{fill:#00ACED;}
	.st8{fill:#1C181A;}
	]]>
</style>
<path class="Colour1 fill" d="M438.22,64.76c0,0,45.96,55.04,54.12,148.75c0,0-63.76,39.05-86,25.66c0,0,1.36-13.64-10.63-34.34
	C395.71,204.83,395.59,130.58,438.22,64.76z"/>
<path class="Colour1 fill" d="M56.79,64.76c0,0-45.96,55.04-54.12,148.75c0,0,63.76,39.05,86,25.66c0,0-1.36-13.64,10.63-34.34
	C99.29,204.83,99.41,130.58,56.79,64.76z"/>
<path class="Colour1 fill" d="M438.24,64.76C427.12,46.17,322.46,6.38,322.46,6.38l-0.31,0.11l0.26,0.14c0,0-3.84,57.68-74.67,57.8
	l-0.21,0c-71.04,0-74.88-57.8-74.88-57.8l0.24-0.13l-0.3-0.12c0,0-104.66,39.79-115.78,58.38c0,0,39.54,55.78,42.5,140.07
	c0,0,14.33,194.36,0,348.06c0,0,23.1,15.87,148.21,20.82c125.1-4.96,148.21-20.82,148.21-20.82c-14.33-153.7,0-348.06,0-348.06
	C398.7,120.54,438.24,64.76,438.24,64.76z"/>
<g>
	<path class="st0" d="M247.52,11.49C287.27,11.67,313.93,2,313.93,2v9.59c0,0-37.23,8.24-66.41,8.24l-0.29,0
		c-29.14-0.05-66.12-8.24-66.12-8.24V2c0,0,26.49,9.61,66.04,9.49L247.52,11.49z"/>
	<path class="st0" d="M247.52,64.42c-71.04,0-74.88-57.8-74.88-57.8L181.11,2c0,0,9.22,48.8,66.41,48.8l0.32,0
		C304.75,50.61,313.93,2,313.93,2l8.47,4.63c0,0-3.84,57.68-74.67,57.8L247.52,64.42z"/>
</g>
<g>
	<path class="st1" d="M394.37,542.79c0,0-22.89,15.87-146.85,20.82"/>
	<path class="st1" d="M247.52,563.62c-123.96-4.96-146.85-20.82-146.85-20.82"/>
</g>
<path class="st2" d="M247.52,31.55"/>
<path class="st3" d="M247.84,50.79l-0.32,0c-40.25,0-56.74-24.16-62.98-38.48c9.82,2,38.87,7.48,62.68,7.52l0.29,0
	c23.87,0,53.12-5.51,62.98-7.52C304.28,26.59,287.86,50.67,247.84,50.79z"/>
<path class="NeckAndArmTrim fill" d="M247.52,11.49C287.27,11.67,313.93,2,313.93,2v9.59c0,0-37.23,8.24-66.41,8.24l-0.29,0
	c-29.14-0.05-66.12-8.24-66.12-8.24V2c0,0,26.49,9.61,66.04,9.49L247.52,11.49z"/>
<path class="NeckAndArmTrim fill" d="M247.52,64.42c-71.04,0-74.88-57.8-74.88-57.8L181.11,2c0,0,9.22,48.8,66.41,48.8l0.32,0
	C304.75,50.61,313.93,2,313.93,2l8.47,4.63c0,0-3.84,57.68-74.67,57.8L247.52,64.42z"/>
<path class="Colour2 fill" d="M99.09,198.8c-0.16-3.01-0.44-7.08-0.95-11.99l-82.53-39.54c-1.02,3.29-2.01,6.66-2.95,10.13L99.09,198.8z"
	/>
<path class="Colour2 fill" d="M91.3,222.67L6.95,182.26c-0.65,3.49-1.26,7.04-1.82,10.67l83.82,40.15
	C89.29,230.39,89.98,226.87,91.3,222.67z"/>
<path class="Colour2 fill" d="M395.91,198.8c0.16-3.01,0.44-7.08,0.95-11.99l82.53-39.54c1.02,3.29,2.01,6.66,2.95,10.13L395.91,198.8z"
	/>
<path class="Colour2 fill" d="M403.71,222.67l84.35-40.41c0.65,3.49,1.26,7.04,1.82,10.67l-83.82,40.15
	C405.71,230.39,405.03,226.87,403.71,222.67z"/>
<path class="Colour3 fill" d="M7.71,178.34l84.84,40.64c1.56-4.2,3.73-8.96,6.74-14.16c0,0,0-0.64-0.03-1.86L11.7,161.02
	C10.25,166.58,8.91,172.36,7.71,178.34z"/>
<path class="Colour3 fill" d="M487.3,178.34l-84.84,40.64c-1.56-4.2-3.73-8.96-6.74-14.16c0,0,0-0.64,0.03-1.86l87.56-41.95
	C484.76,166.58,486.09,172.36,487.3,178.34z"/>
<path class="Colour2 fill" d="M247.52,97.89c59.16,0,114.71,9.36,162.91,25.75c12.32-37.02,27.81-58.88,27.81-58.88
	C427.12,46.17,322.46,6.38,322.46,6.38l-0.31,0.11l0.26,0.14c0,0-3.84,57.68-74.67,57.8l-0.21,0c-71.04,0-74.88-57.8-74.88-57.8
	l0.24-0.13l-0.3-0.12c0,0-104.65,39.79-115.78,58.38c0,0,15.49,21.86,27.81,58.88C132.81,107.25,188.36,97.89,247.52,97.89z"/>
<path class="Colour2 fill" d="M410.43,123.64l56.23-10.18c-14.09-31.51-28.44-48.7-28.44-48.7c-12.71,19.62-21.61,39.98-27.86,58.91
	L410.43,123.64z"/>
<path class="Colour2 fill" d="M84.53,123.64L28.3,113.46c14.09-31.51,28.44-48.7,28.44-48.7c12.71,19.62,21.61,39.98,27.86,58.91
	L84.53,123.64z"/>
<path class="st4" d="M313.92,2c0,0-26.66,9.67-66.41,9.49l-0.38,0C207.59,11.61,181.1,2,181.1,2l-8.47,4.63
	c0,0,3.85,57.8,74.88,57.8l0.21,0c70.83-0.12,74.67-57.8,74.67-57.8L313.92,2z M247.83,50.79l-0.32,0
	c-40.25,0-56.74-24.16-62.98-38.48c9.82,2,38.86,7.48,62.68,7.52l0.29,0c23.88,0,53.12-5.52,62.98-7.52
	C304.27,26.59,287.85,50.67,247.83,50.79z"/>
<g id="FBodyLogos"></g>
<g>
	<path class="st4" d="M438.23,64.76c0,0,45.96,55.04,54.12,148.75c0,0-63.76,39.05-86,25.66c0,0,1.36-13.64-10.63-34.34
		C395.72,204.83,395.6,130.58,438.23,64.76z"/>
	<path class="st4" d="M56.8,64.76c0,0-45.96,55.04-54.12,148.75c0,0,63.76,39.05,86,25.66c0,0-1.36-13.64,10.63-34.34
		C99.3,204.83,99.42,130.58,56.8,64.76z"/>
	<g>
		<path class="st4" d="M438.24,64.76C427.12,46.17,322.47,6.38,322.47,6.38l-0.31,0.11l0.26,0.14c0,0-3.84,57.68-74.67,57.8l-0.21,0
			c-71.04,0-74.88-57.8-74.88-57.8l0.24-0.13l-0.3-0.12c0,0-104.66,39.79-115.78,58.38c0,0,39.54,55.78,42.5,140.07
			c0,0,14.33,194.36,0,348.07c0,0,23.1,15.87,148.21,20.82c125.1-4.96,148.21-20.82,148.21-20.82c-14.33-153.7,0-348.07,0-348.07
			C398.71,120.54,438.24,64.76,438.24,64.76z"/>
	</g>
</g>
<path class="BottomHem fill" d="M247.51,559.16c123.96-4.96,146.85-20.82,146.85-20.82l1.36,14.84c0,0-34.44,17.88-148.64,20.82
	c0,0-105.25-1.2-147.78-20.82l1.36-14.84C100.66,538.33,123.55,554.2,247.51,559.16"/>
<g>
	<path class="st5" d="M394.37,538.33c0,0-22.89,15.87-146.85,20.82"/>
	<path class="st5" d="M247.52,559.16c-123.96-4.96-146.85-20.82-146.85-20.82"/>
</g>
<g>
	<path class="st6" d="M247.52,563.62c123.96-4.96,146.85-20.82,146.85-20.82"/>
	<path class="st6" d="M247.52,563.62c-123.96-4.96-146.85-20.82-146.85-20.82"/>
</g>
<path class="st7" d="M417.87,242.55c-4.81,0-8.67-0.83-11.72-2.6c0.12-1.3,0.12-5.91-1.64-12.89c0.35,0,0.7,0,1.05,0
	c34.58,0,78.53-26.37,84.74-30.39c0.82,5.56,1.41,11.12,1.99,16.91C488.32,216.3,444.13,242.55,417.87,242.55z"/>
<path class="st7" d="M419.07,242.55c-4.81,0-8.67-0.83-11.72-2.6c0.12-1.3,0.12-5.91-1.64-12.89c0.35,0,0.7,0,1.05,0
	c34.58,0,78.53-26.37,84.74-30.39c0.82,5.56,1.41,11.12,1.99,16.91C489.51,216.3,445.33,242.55,419.07,242.55z"/>
<path class="NeckAndArmTrim fill" d="M417.87,242.55c-4.81,0-8.67-0.83-11.72-2.6c0.12-1.3,0.12-5.91-1.64-12.89c0.35,0,0.7,0,1.05,0
	c34.58,0,78.53-26.37,84.74-30.39c0.82,5.56,1.41,11.12,1.99,16.91C488.32,216.3,444.13,242.55,417.87,242.55z"/>
<path class="NeckAndArmTrim fill" d="M1.5,213.27c0.48-6.02,1.19-11.92,2.02-17.57c6.41,4.06,50.96,31.58,85.88,31.58c0.36,0,0.71,0,1.07,0
	c-1.78,7.25-1.66,11.92-1.66,13.4c-3.09,1.84-7.01,2.7-11.88,2.7C50.32,243.14,5.66,215.85,1.5,213.27z"/>
<g>
	<path class="st5" d="M4.74,195.94c0,0,48.7,31.08,85.69,30.04"/>
	<path class="st6" d="M4.21,200.4c0,0,48.7,31.08,85.69,30.04"/>
	<path class="st5" d="M490.3,195.94c0,0-48.7,31.08-85.69,30.04"/>
	<path class="st6" d="M490.83,200.4c0,0-48.7,31.08-85.69,30.04"/>
</g>
</svg>
