<?xml version="1.0" encoding="utf-8"?>
<!-- Generator: Adobe Illustrator 19.1.0, SVG Export Plug-In . SVG Version: 6.00 Build 0)  -->
<svg version="1.1" id="Layer_1" xmlns="http://www.w3.org/2000/svg" xmlns:xlink="http://www.w3.org/1999/xlink" x="0px" y="0px"
	 viewBox="0 0 495 576" style="enable-background:new 0 0 495 576;" xml:space="preserve">
<style type="text/css">
	<![CDATA[
	@font-face{font-family:'codaheavy';src:url('/fonts/coda-heavy-webfont.woff') format('woff')}
	text{font-family:Impact,codaheavy,sans-serif}
	.Number.fill{fill:#000}
	.NumberOutline.stroke{fill:none;stroke:#777;stroke-width:2.5}
	.Colour1.fill{fill:#111D35;}
	.Colour2.fill{fill:#EB2935;}
	.Colour3.fill{fill:#595D80;}
	.Colour4.fill{fill:#00878B;}
	.NeckAndArmTrim.fill{fill:#EB2935;}
	.BottomHem.fill{fill:#EB2935;}
	.st0{fill:none;stroke:#000000;stroke-miterlimit:10;}
	.st1{fill:none;stroke:#000000;stroke-miterlimit:10;stroke-dasharray:2;}
	.st2{fill:none;}
	]]>
</style>
<path class="Colour1 fill" d="M439.12,65.3c0,0,46.18,55.01,54.38,148.67c0,0-64.06,39.03-86.41,25.65c0,0,1.37-13.63-10.68-34.32
	C396.42,205.3,396.29,131.09,439.12,65.3z"/>
<path class="Colour1 fill" d="M55.89,65.3c0,0-46.18,55.01-54.38,148.67c0,0,64.06,39.03,86.41,25.65c0,0-1.37-13.63,10.68-34.32
	C98.59,205.3,98.72,131.09,55.89,65.3z"/>
<path class="NeckAndArmTrim fill" d="M419.26,241.83c-4.7,0-8.59-0.85-11.56-2.53c0.07-1.29,0.13-5.73-1.6-12.55c0.35,0.01,0.69,0.01,1.04,0.01
	c34.14,0,77.58-25.84,83.83-29.67c0.77,5.38,1.41,10.9,1.91,16.57C488.8,216.11,445.19,241.83,419.26,241.83z"/>
<path class="NeckAndArmTrim fill" d="M2.11,213.66c0.5-5.66,1.15-11.19,1.91-16.57c6.25,3.83,49.69,29.67,83.83,29.67c0.35,0,0.7-0.01,1.04-0.01
	c-1.73,6.82-1.67,11.26-1.6,12.55c-2.97,1.68-6.85,2.53-11.56,2.53C49.82,241.83,6.2,216.11,2.11,213.66z"/>
<path class="Colour1 fill" d="M247.85,573.99c125.4-4.97,148.57-20.8,148.57-20.8c-14.4-153.62,0-347.89,0-347.89
	c2.98-84.25,42.71-140,42.71-140C427.95,46.72,322.8,6.95,322.8,6.95l-0.12,0.01c0,0-30.18,12.46-75.17,12.25l-0.43,0
	c-44.76,0.14-74.75-12.25-74.75-12.25l-0.12-0.01c0,0-105.15,39.77-116.32,58.35c0,0,39.73,55.75,42.71,140
	c0,0,14.4,194.26,0,347.89c0,0,23.17,15.83,148.59,20.8L247.85,573.99z"/>
<g>
	<path class="st0" d="M3.58,196.13c0,0,48.93,31.06,86.1,30.02"/>
	<path class="st1" d="M3.04,200.59c0,0,48.93,31.06,86.1,30.02"/>
	<path class="st0" d="M491.43,196.13c0,0-48.93,31.06-86.1,30.02"/>
	<path class="st1" d="M491.97,200.59c0,0-48.93,31.06-86.1,30.02"/>
</g>
<g>
	<path class="st1" d="M395.05,542.81c0,0-23,15.86-147.55,20.81"/>
	<path class="st1" d="M247.5,563.62c-124.55-4.96-147.55-20.81-147.55-20.81"/>
</g>
<path class="NeckAndArmTrim fill" d="M310.75,2.01l-0.1,0.01c0,0-25.35,9.15-63.15,8.97l-0.36,0c-37.6,0.12-62.79-8.97-62.79-8.97l-0.1-0.01
	l-11.93,4.95c0,0,29.99,12.39,74.75,12.25l0.43,0c44.99,0.21,75.17-12.25,75.17-12.25L310.75,2.01z"/>
<polygon class="Colour2 fill" points="156.95,551.68 156.95,468.65 142.85,444.74 142.85,551.68 "/>
<path class="Colour2 fill" d="M157.18,437.51c0.02,0,0.05,0,0.07-0.01c0.1-0.04,0.16-0.14,0.16-0.27V320.58c0-0.06-0.01-0.11-0.04-0.16
	l-14.56-25.95c-0.06-0.1-0.16-0.14-0.26-0.11c-0.1,0.04-0.16,0.15-0.16,0.27v118.5c0,0.06,0.02,0.12,0.04,0.17l14.56,24.1
	C157.03,437.47,157.11,437.51,157.18,437.51z"/>
<polygon class="Colour2 fill" points="337.47,551.68 337.47,468.65 351.57,444.74 351.57,551.68 "/>
<path class="Colour2 fill" d="M337.24,437.51c-0.02,0-0.05,0-0.07-0.01c-0.1-0.04-0.16-0.14-0.16-0.27V320.58c0-0.06,0.01-0.11,0.04-0.16
	l14.56-25.95c0.06-0.1,0.16-0.14,0.26-0.11c0.1,0.04,0.16,0.15,0.16,0.27v118.5c0,0.06-0.02,0.12-0.04,0.17l-14.56,24.1
	C337.38,437.47,337.31,437.51,337.24,437.51z"/>
<path class="Colour2 fill" d="M130.76,299.22l0.78,0.79c-4.25,7.3-9.68,12.26-16.13,14.76c-1.52,0.59-3.1,1.03-4.7,1.32
	c-0.14,0.12-2.2,1.59-2.27,4.22c0,0.33,0.02,0.62,0.07,0.95c0.04,1.07-0.05,2.03-0.27,2.95c-0.64,2.74-2.17,4.37-3.03,5.11
	c-0.29,0.21-0.88,0.56-1.65,0.79c-0.2-8.35-0.42-16.44-0.67-24.21l2.68-0.74c1.62-0.85,3.25-1.86,4.82-3l0.27-0.19l0.26,0.2
	c1.91,1.44,5.06,3.17,9.04,2.99C125.01,304.94,128.62,301.81,130.76,299.22z"/>
<path class="Colour2 fill" d="M116.19,478.03c2.93-1.83,6.2-2.75,9.72-2.75c3.24,0,5.87,0.79,7.15,1.26l0.66,0.24V465.9l-0.44-0.08
	c-0.74-0.13-1.48-0.28-2.22-0.45l-0.19-0.04l-0.82,0.61c-4.78,4.06-9.6,6.27-14.31,6.57c-1.13,0.07-2.25,0.04-3.76,0
	c-1.96-0.06-4.41-0.13-8.12,0l-0.86,0.01c-0.31,8.52-0.68,17.03-1.12,25.51c2.64,0.02,4.89,0.68,6.65,2.03
	c2.59,1.96,3.69,4.89,4.66,7.47c0.96,2.55,1.79,4.76,3.8,5.16c0.2,0.04,0.38,0.06,0.57,0.06c1.12,0,2.03-0.72,3.29-1.71
	c1.3-1.02,3.07-2.42,5.93-3.61c2.06-0.86,4.24-1.43,6.49-1.7l0.46-0.06v-6.19l-0.42-0.09c-2.11-0.47-4.07-1.26-5.85-2.37
	c-2.4-1.49-3.75-3.08-5.06-4.63c-1.15-1.36-2.24-2.64-3.94-3.76c-2.63-1.73-5.94-2.47-9.74-2.18
	C110.01,483.84,112.32,480.44,116.19,478.03z"/>
<path class="Colour2 fill" d="M126.78,371.39c0.8-0.38,1.65-0.57,2.54-0.57c1.65,0,3.01,0.65,3.67,1.04l0.73,0.43v-6.68L118.06,364
	l-0.15,0.38c-0.85,2.11-3.45,7.29-9.19,9.9c-1.42,0.64-2.91,1.05-4.44,1.26c0.08,10.46,0.09,21.14,0.04,31.98
	c2.7-0.82,4.98-2.14,6.79-4c1.87-1.92,2.76-3.82,3.62-5.68c0.89-1.92,1.66-3.57,3.41-4.78c3.22-2.22,8.29-1.67,14.88,1.61l0.7,0.35
	v-8.86l-0.46-0.05c-1.7-0.2-4.95-0.94-7.69-3.74c-1.2-1.23-2.16-2.7-2.86-4.36C122.81,375.1,124.4,372.52,126.78,371.39z"/>
<path class="Colour2 fill" d="M133.72,419.12l-0.3-0.16c-2.89-1.56-5.64-2.02-8.09-1.35c-1.86,0.5-3.03,1.52-4.29,2.59
	c-1.01,0.87-2.15,1.85-3.8,2.67c-2.43,1.2-5.25,1.69-8.37,1.44l-1.44-0.12l1.06,1.19c1.94,2.17,4.11,4.06,6.53,5.66
	c2.84,1.88,5.87,3.23,9.02,4.01c2.18,0.55,4.44,0.82,6.74,0.82c0.81,0,1.64-0.04,2.46-0.1l0.48-0.04V419.12z"/>
<path class="Colour2 fill" d="M109.15,260.76c1.33-0.52,2.71-1.06,4.37-1.18c3.07-0.24,6.28,1.05,9.6,3.82l-10.06-12.25l-13.25-16.33
	c0.42,7.47,0.87,16.16,1.32,25.9l2.42,0.81C105.64,262.12,107.34,261.46,109.15,260.76z"/>
<path class="Colour2 fill" d="M363.66,299.22l-0.78,0.79c4.25,7.3,9.68,12.26,16.13,14.76c1.52,0.59,3.1,1.03,4.7,1.32
	c0.14,0.12,2.2,1.59,2.27,4.22c0,0.33-0.02,0.62-0.07,0.95c-0.04,1.07,0.05,2.03,0.27,2.95c0.64,2.74,2.17,4.37,3.03,5.11
	c0.29,0.21,0.88,0.56,1.65,0.79c0.2-8.35,0.42-16.44,0.67-24.21l-2.68-0.74c-1.62-0.85-3.25-1.86-4.82-3l-0.27-0.19l-0.26,0.2
	c-1.91,1.44-5.06,3.17-9.04,2.99C369.41,304.94,365.8,301.81,363.66,299.22z"/>
<path class="Colour2 fill" d="M385.71,486.45c-3.8-0.29-7.11,0.45-9.74,2.18c-1.7,1.12-2.79,2.4-3.94,3.76
	c-1.32,1.55-2.67,3.14-5.06,4.63c-1.78,1.1-3.75,1.9-5.85,2.37l-0.42,0.09v6.19l0.46,0.06c2.25,0.27,4.43,0.84,6.49,1.7
	c2.85,1.19,4.63,2.59,5.93,3.61c1.26,0.99,2.17,1.71,3.29,1.71c0.18,0,0.37-0.02,0.57-0.06c2.01-0.4,2.84-2.61,3.8-5.16
	c0.97-2.58,2.07-5.51,4.66-7.47c1.77-1.34,4.01-2.01,6.65-2.03c-0.44-8.48-0.81-16.99-1.12-25.51l-0.86-0.01
	c-3.71-0.13-6.16-0.06-8.12,0c-1.51,0.04-2.63,0.07-3.76,0c-4.71-0.31-9.53-2.52-14.31-6.57l-0.82-0.61l-0.19,0.04
	c-0.74,0.17-1.48,0.33-2.22,0.45l-0.44,0.08v10.89l0.66-0.24c1.28-0.47,3.91-1.26,7.15-1.26c3.52,0,6.79,0.93,9.72,2.75
	C382.1,480.44,384.41,483.84,385.71,486.45z"/>
<path class="Colour2 fill" d="M371.7,378c-0.69,1.67-1.66,3.14-2.86,4.36c-2.73,2.8-5.99,3.55-7.68,3.74l-0.46,0.05v8.86l0.7-0.35
	c6.59-3.28,11.66-3.83,14.88-1.61c1.75,1.21,2.52,2.86,3.41,4.78c0.86,1.86,1.75,3.76,3.62,5.68c1.81,1.86,4.09,3.18,6.79,4
	c-0.06-10.83-0.04-21.52,0.04-31.98c-1.53-0.21-3.02-0.62-4.44-1.26c-5.74-2.6-8.34-7.79-9.19-9.9l-0.15-0.38l-15.66,1.62v6.68
	l0.73-0.43c0.66-0.39,2.01-1.04,3.67-1.04c0.88,0,1.74,0.19,2.54,0.57C370.02,372.52,371.61,375.1,371.7,378z"/>
<path class="Colour2 fill" d="M360.7,435.73l0.48,0.04c0.82,0.07,1.65,0.1,2.46,0.1c2.29,0,4.56-0.28,6.74-0.82
	c3.15-0.78,6.18-2.13,9.02-4.01c2.42-1.61,4.59-3.5,6.53-5.66l1.06-1.19l-1.44,0.12c-3.12,0.25-5.94-0.23-8.37-1.44
	c-1.65-0.82-2.79-1.8-3.8-2.67c-1.25-1.08-2.43-2.09-4.29-2.59c-2.44-0.67-5.19-0.21-8.09,1.35l-0.3,0.16V435.73z"/>
<path class="Colour2 fill" d="M390.86,261.53l2.42-0.81c0.45-9.73,0.91-18.43,1.32-25.9l-13.25,16.33L371.3,263.4
	c3.32-2.77,6.53-4.07,9.6-3.82c1.67,0.13,3.04,0.66,4.37,1.18C387.08,261.46,388.78,262.12,390.86,261.53z"/>
<g>
	<path class="Colour1 fill" d="M109.65,287.71c0.41-0.7,0.81-1.32,1.25-1.96c1.24-2.42,1.52-4.66,1.79-6.82
		c0.31-2.46,0.57-4.58,2.13-6.78c2.1-2.96,5.71-4.71,10.72-5.19l1.21-0.12l-0.91-0.96c-4.28-4.52-8.44-6.67-12.32-6.37
		c-1.67,0.13-3.05,0.66-4.38,1.18c-1.32,0.52-2.57,1.01-3.94,1.01c-0.55,0-1.08-0.08-1.62-0.23l-2.45-0.89
		c0.46,9.88,0.92,20.82,1.34,32.63C105.54,291.81,107.96,289.98,109.65,287.71z"/>
	<path class="Colour1 fill" d="M124.53,400.41c1.51-0.71,3.11-1.07,4.78-1.07c1.61,0,2.94,0.34,3.77,0.62l0.65,0.22v-5.9l-0.31-0.16
		c-6.87-3.46-12.13-4.02-15.55-1.66c-1.89,1.3-2.73,3.12-3.63,5.04c-0.79,1.71-1.69,3.65-3.49,5.49c-1.72,1.76-3.88,3.02-6.43,3.82
		c-0.04,8.08-0.12,16.24-0.25,24.45c0.25-0.29,0.49-0.59,0.75-0.87c1.31,0.78,2.7,1.29,4.14,1.51c1.87,0.29,3.84,0.06,5.73-0.68
		l1.1-0.43l-1.01-0.7c-2.09-1.45-4.05-3.17-5.81-5.12c3.17,0.24,6.02-0.27,8.49-1.49c1.71-0.85,2.83-1.81,3.91-2.74
		c1.2-1.03,2.33-2.01,4.08-2.49c2.28-0.62,4.84-0.21,7.55,1.22l0.71,0.37v-7.21l-0.6,0.13c-2.7,0.57-5.43,0.31-7.96-0.74
		c-3.48-1.45-5.59-4.01-6.6-5.53C119.23,405.08,121.02,402.07,124.53,400.41z"/>
	<path class="Colour1 fill" d="M118.63,551.84c0.5-2.24,1.47-4.3,2.79-5.94c3.44-4.29,8.3-4.93,10.9-4.93c0.35,0,0.65,0.01,0.87,0.03
		l0.54,0.04v-25.27v-0.7v-10.06l-0.56,0.07c-2.28,0.28-4.49,0.86-6.57,1.73c-2.91,1.22-4.72,2.64-6.05,3.68
		c-1.36,1.07-2.27,1.79-3.46,1.55c-1.72-0.35-2.46-2.3-3.39-4.78c-1-2.67-2.14-5.69-4.87-7.76c-1.85-1.4-4.18-2.1-6.91-2.13
		c-0.96,18.62-2.24,37.05-3.9,54.95h20.53L118.63,551.84z"/>
	<path class="Colour1 fill" d="M133.72,294.51l-0.95,1.95c-2.99,6.12-8.46,14.16-17.53,17.67c-1.47,0.57-3.01,1-4.58,1.29l-0.18,0.08
		c-0.26,0.18-2.53,1.86-2.6,4.89c0.04,0.32,0.07,0.64,0.09,1.05c0.36,2.13,1.81,3.91,3.78,4.64l0.11,0.02
		c0.43,0.04,0.85,0.06,1.26,0.06c1.9,0,3.65-0.43,5.19-1.27c1.66-0.91,2.61-2.05,3.45-3.06c0.76-0.92,1.49-1.78,2.64-2.4
		c2.16-1.16,5.1-0.94,8.63,0.65l0.69,0.31V294.51z"/>
	<path class="Colour1 fill" d="M133.72,449.13l-0.44-0.08c-6.24-1.13-11.25-0.27-14.8,2.53c-2.2,1.74-3.39,3.82-4.45,5.66l-0.3,0.53
		l0.45,0.34c4.15,3.15,8.65,5.51,13.38,7.01c1.78,0.56,3.65,1.02,5.56,1.35l0.58,0.1V449.13z"/>
	<path class="Colour1 fill" d="M384.76,287.71c-0.41-0.7-0.81-1.32-1.25-1.96c-1.24-2.42-1.52-4.66-1.79-6.82
		c-0.31-2.46-0.57-4.58-2.13-6.78c-2.1-2.96-5.71-4.71-10.72-5.19l-1.21-0.12l0.91-0.96c4.28-4.52,8.44-6.67,12.32-6.37
		c1.67,0.13,3.05,0.66,4.38,1.18c1.32,0.52,2.57,1.01,3.94,1.01c0.55,0,1.08-0.08,1.62-0.23l2.45-0.89
		c-0.46,9.88-0.92,20.82-1.34,32.63C388.87,291.81,386.46,289.98,384.76,287.71z"/>
	<path class="Colour1 fill" d="M369.89,400.41c-1.51-0.71-3.11-1.07-4.78-1.07c-1.61,0-2.94,0.34-3.77,0.62l-0.65,0.22v-5.9l0.31-0.16
		c6.87-3.46,12.13-4.02,15.55-1.66c1.89,1.3,2.73,3.12,3.63,5.04c0.79,1.71,1.69,3.65,3.49,5.49c1.72,1.76,3.88,3.02,6.43,3.82
		c0.04,8.08,0.12,16.24,0.25,24.45c-0.25-0.29-0.49-0.59-0.75-0.87c-1.31,0.78-2.7,1.29-4.14,1.51c-1.87,0.29-3.84,0.06-5.73-0.68
		l-1.1-0.43l1.01-0.7c2.09-1.45,4.05-3.17,5.81-5.12c-3.17,0.24-6.02-0.27-8.49-1.49c-1.71-0.85-2.83-1.81-3.91-2.74
		c-1.2-1.03-2.33-2.01-4.08-2.49c-2.28-0.62-4.84-0.21-7.55,1.22l-0.71,0.37v-7.21l0.6,0.13c2.7,0.57,5.43,0.31,7.96-0.74
		c3.48-1.45,5.59-4.01,6.6-5.53C375.18,405.08,373.4,402.07,369.89,400.41z"/>
	<path class="Colour1 fill" d="M375.79,551.84c-0.5-2.24-1.47-4.3-2.79-5.94c-3.44-4.29-8.3-4.93-10.9-4.93c-0.35,0-0.65,0.01-0.87,0.03
		l-0.54,0.04v-25.27v-0.7v-10.06l0.56,0.07c2.28,0.28,4.49,0.86,6.57,1.73c2.91,1.22,4.72,2.64,6.05,3.68
		c1.36,1.07,2.27,1.79,3.46,1.55c1.72-0.35,2.46-2.3,3.39-4.78c1-2.67,2.14-5.69,4.87-7.76c1.85-1.4,4.18-2.1,6.91-2.13
		c0.96,18.62,2.24,37.05,3.9,54.95h-20.53L375.79,551.84z"/>
	<path class="Colour1 fill" d="M360.7,294.51l0.95,1.95c2.99,6.12,8.46,14.16,17.53,17.67c1.47,0.57,3.01,1,4.58,1.29l0.18,0.08
		c0.26,0.18,2.53,1.86,2.6,4.89c-0.04,0.32-0.07,0.64-0.09,1.05c-0.36,2.13-1.81,3.91-3.78,4.64l-0.11,0.02
		c-0.43,0.04-0.85,0.06-1.26,0.06c-1.9,0-3.65-0.43-5.19-1.27c-1.66-0.91-2.61-2.05-3.45-3.06c-0.76-0.92-1.49-1.78-2.64-2.4
		c-2.16-1.16-5.1-0.94-8.63,0.65l-0.69,0.31V294.51z"/>
	<path class="Colour1 fill" d="M360.7,449.13l0.44-0.08c6.24-1.13,11.25-0.27,14.8,2.53c2.2,1.74,3.39,3.82,4.45,5.66l0.3,0.53
		l-0.45,0.34c-4.15,3.15-8.65,5.51-13.38,7.01c-1.78,0.56-3.65,1.02-5.56,1.35l-0.58,0.1V449.13z"/>
</g>
<path class="Colour3 fill" d="M133.72,449.8l-0.59-0.1c-6.07-1.08-10.93-0.26-14.34,2.44c-2.11,1.67-3.26,3.67-4.36,5.6
	c-1.28,2.23-2.49,4.34-5.01,5.62c-1.29,0.65-2.74,0.98-4.31,0.98c-0.59,0-1.2-0.06-1.83-0.15c0.36-11.33,0.62-22.65,0.8-33.87
	c0.13-0.15,0.26-0.31,0.39-0.45l0.26-0.27l0.31,0.18c1.27,0.76,2.61,1.25,3.99,1.46c1.95,0.3,3.99,0.03,5.89-0.8l0.22-0.09l0.2,0.13
	c2.77,1.82,5.74,3.14,8.83,3.91c2.16,0.54,4.4,0.81,6.65,0.81c0.71,0,1.49-0.04,2.36-0.11l0.55-0.05V449.8z M133.72,325.54
	l-0.42-0.09c-0.41-0.09-1.08-0.19-1.91-0.19c-1.55,0-3.84,0.38-5.9,2.2c-2.29,2.02-3.04,4.68-3.28,6.09l-0.12,0.73l0.61,0.02
	c0.81,0.02,2.85,0.29,4.23,2.28c1.4,2.02,1.02,4.26,0.83,5.05c-1.87-0.43-3.84-0.32-5.65,0.34c-2.74,1-4.45,2.94-5.4,4.39
	l-0.43,0.66l0.64,0.3c1.84,0.86,3.76,1.55,5.7,2.03c1.71,0.43,2.93,0.58,3.83,0.69c1.08,0.13,1.79,0.22,2.56,0.63
	c1.8,0.98,3.05,3.38,3.7,7.13l1.01,5.82V325.54z M133.72,285.46l-0.61,0.14c-3.57,0.83-6.25,0.52-8.1-0.92l-0.32-0.25l-0.04-0.04
	c-1.08-1-1.6-2.25-2.11-3.46c-0.61-1.47-1.24-2.98-2.77-4.2c-1.68-1.34-3.92-1.88-6.65-1.59l-0.35,0.04l-0.1,0.4
	c-0.25,1.04-0.4,2.09-0.54,3.26c-0.26,2.1-0.53,4.26-1.71,6.57c-0.3,0.59-0.68,1.19-1.24,1.94c-0.07,0.13-0.13,0.26-0.2,0.38
	l-1.12,1.12c-1.44,1.43-3.25,2.65-5.42,3.66c0.16,4.56,0.32,9.25,0.47,14.05l2.42-0.66l-0.01,0.11l0.4-0.22l0.18-0.05l0-0.05
	l0.21-0.11c1.57-0.85,3.07-1.83,4.52-2.88l0.21,0.15c1.85,1.35,4.84,2.95,8.58,2.95c0.19,0,0.38,0,0.57-0.01
	c8.64-0.36,13.16-8.87,13.65-9.84l0.07-0.15V285.46z M115.94,477.44c-4.08,2.54-6.47,6.16-7.75,8.75l-0.5,1.01l0.97-0.08
	c3.75-0.29,6.97,0.41,9.52,2.1c1.64,1.08,2.7,2.33,3.82,3.65c1.34,1.58,2.72,3.21,5.19,4.74c1.79,1.12,3.79,1.93,5.92,2.41l0.6,0.14
	v-24.07l-0.36-0.13c-1.32-0.5-4.05-1.35-7.45-1.35C122.3,474.61,118.94,475.56,115.94,477.44z M133.72,371.58l-0.27-0.17
	c-0.45-0.29-2.07-1.25-4.13-1.25c-0.95,0-1.88,0.21-2.75,0.62c-2.59,1.22-4.32,4.06-4.42,7.22l-0.01,0.16l0.06,0.14
	c0.73,1.76,1.74,3.3,3,4.59c2.84,2.9,6.2,3.68,7.95,3.89l0.56,0.07V371.58z M360.7,449.8l0.59-0.1c6.07-1.08,10.93-0.26,14.34,2.44
	c2.11,1.67,3.26,3.67,4.36,5.6c1.28,2.23,2.49,4.34,5.01,5.62c1.29,0.65,2.74,0.98,4.31,0.98c0.59,0,1.2-0.06,1.83-0.15
	c-0.36-11.33-0.62-22.65-0.8-33.87c-0.13-0.15-0.26-0.31-0.39-0.45l-0.26-0.27l-0.31,0.18c-1.27,0.76-2.61,1.25-3.99,1.46
	c-1.95,0.3-3.99,0.03-5.89-0.8l-0.22-0.09l-0.2,0.13c-2.77,1.82-5.74,3.14-8.83,3.91c-2.16,0.54-4.4,0.81-6.65,0.81
	c-0.71,0-1.49-0.04-2.36-0.11l-0.55-0.05V449.8z M360.7,363.6l1.01-5.82c0.65-3.76,1.9-6.16,3.7-7.13c0.77-0.42,1.48-0.5,2.56-0.63
	c0.89-0.11,2.11-0.26,3.83-0.69c1.94-0.49,3.86-1.17,5.7-2.03l0.64-0.3l-0.43-0.66c-0.95-1.45-2.66-3.4-5.4-4.39
	c-1.81-0.66-3.77-0.77-5.65-0.34c-0.2-0.79-0.58-3.03,0.83-5.05c1.38-1.99,3.41-2.25,4.23-2.28l0.61-0.02l-0.12-0.73
	c-0.24-1.41-0.99-4.07-3.28-6.09c-2.06-1.81-4.34-2.2-5.9-2.2c-0.83,0-1.5,0.11-1.91,0.19l-0.42,0.09V363.6z M360.7,295.82
	l0.07,0.15c0.49,0.97,5,9.49,13.65,9.84c0.19,0.01,0.38,0.01,0.57,0.01c3.74,0,6.73-1.61,8.58-2.95l0.21-0.15
	c1.45,1.05,2.95,2.03,4.52,2.88l0.21,0.11l0,0.05l0.18,0.05l0.4,0.22l-0.01-0.11l2.42,0.66c0.15-4.81,0.31-9.49,0.47-14.05
	c-2.16-1.01-3.98-2.23-5.42-3.66l-1.12-1.12c-0.07-0.13-0.13-0.26-0.2-0.38c-0.56-0.75-0.94-1.35-1.24-1.94
	c-1.18-2.31-1.45-4.48-1.71-6.57c-0.15-1.17-0.29-2.22-0.54-3.26l-0.1-0.4l-0.35-0.04c-2.73-0.29-4.97,0.25-6.65,1.59
	c-1.54,1.22-2.16,2.74-2.77,4.2c-0.5,1.21-1.02,2.46-2.11,3.46l-0.04,0.04l-0.32,0.25c-1.85,1.44-4.53,1.75-8.1,0.92l-0.61-0.14
	V295.82z M368.5,474.61c-3.39,0-6.12,0.84-7.45,1.35l-0.36,0.13v24.07l0.6-0.14c2.13-0.48,4.12-1.3,5.92-2.41
	c2.47-1.53,3.85-3.16,5.19-4.74c1.12-1.33,2.19-2.58,3.82-3.65c2.55-1.68,5.77-2.39,9.52-2.1l0.97,0.08l-0.5-1.01
	c-1.28-2.59-3.67-6.21-7.75-8.75C375.47,475.56,372.12,474.61,368.5,474.61z M360.7,386.83l0.56-0.07c1.75-0.21,5.11-0.99,7.95-3.89
	c1.26-1.29,2.27-2.83,3-4.59l0.06-0.14l-0.01-0.16c-0.1-3.16-1.83-6-4.42-7.22c-0.87-0.41-1.79-0.62-2.75-0.62
	c-2.05,0-3.68,0.96-4.13,1.25l-0.27,0.17V386.83z"/>
<path class="Colour4 fill" d="M122.78,333.61c0.85,0.03,3.06,0.32,4.58,2.51c1.62,2.34,1.11,4.98,0.92,5.73l-0.14,0.53l-0.45-0.1
	c-1.8-0.42-3.69-0.32-5.42,0.31c-2.64,0.96-4.26,2.86-5.09,4.11c1.79,0.83,3.66,1.5,5.56,1.98c1.68,0.42,2.84,0.56,3.77,0.68
	c1.1,0.13,1.88,0.23,2.73,0.69c2.61,1.41,4.12,5.4,4.48,11.85l0,4.4l-15.33-1.59c-0.91,2.24-3.61,7.53-9.48,10.19
	c-1.48,0.67-3.04,1.1-4.63,1.31c-0.12-16.24-0.38-31.93-0.73-46.79c0.64-0.21,1.13-0.49,1.36-0.66c0.76-0.66,2.2-2.19,2.79-4.73
	c0.09-0.39,0.16-0.82,0.21-1.32l0.19-1.99l0.77,1.78c0.58,1.35,1.69,2.42,3.04,2.93c2.3,0.22,4.39-0.17,6.18-1.15
	c1.56-0.85,2.44-1.9,3.29-2.92c0.77-0.92,1.56-1.87,2.81-2.54c2.34-1.25,5.47-1.02,9.21,0.71l0.33,0.15v6.53l-0.59-0.12
	c-0.38-0.08-0.99-0.17-1.74-0.17c-1.47,0-3.63,0.36-5.57,2.07C123.72,329.84,123.02,332.24,122.78,333.61z M111.96,473.17
	c1.48,0.04,2.65,0.07,3.8,0c4.82-0.31,9.74-2.57,14.59-6.68l1.31-0.96l-1.27-0.31c-0.97-0.24-1.84-0.48-2.66-0.74
	c-4.68-1.49-9.14-3.83-13.25-6.95l-0.41-0.31l-0.28,0.48c-1.25,2.18-2.39,3.94-4.57,5.04c-1.69,0.86-3.67,1.11-5.9,0.77
	c-0.1,3.22-0.21,6.45-0.33,9.68l0.89-0.01C107.52,473.05,109.86,473.12,111.96,473.17z M133.72,275.43l-7.54-9.19l-0.23,0.02
	c-5.4,0.44-9.28,2.27-11.54,5.46c-0.69,0.97-1.19,2.03-1.55,3.25l-0.26,0.89l0.78-0.07c2.51-0.22,4.58,0.28,6.11,1.5
	c1.41,1.12,1.98,2.49,2.58,3.94c0.56,1.35,1.14,2.74,2.43,3.85c1.27,1.09,2.97,1.64,5.06,1.64c1.13,0,2.4-0.16,3.76-0.49l0.41-0.1
	V275.43z M133.21,412.8v-12.84c-1.46-0.52-4.91-1.38-8.7,0.41c-3.55,1.67-5.34,4.73-6.01,6.13c1,1.52,3.13,4.12,6.64,5.58
	C128.52,413.48,131.58,413.16,133.21,412.8z M371.64,333.61c-0.85,0.03-3.06,0.32-4.58,2.51c-1.62,2.34-1.11,4.98-0.92,5.73
	l0.14,0.53l0.45-0.1c1.8-0.42,3.69-0.32,5.42,0.31c2.64,0.96,4.26,2.86,5.09,4.11c-1.79,0.83-3.66,1.5-5.56,1.98
	c-1.68,0.42-2.84,0.56-3.77,0.68c-1.1,0.13-1.88,0.23-2.73,0.69c-2.61,1.41-4.12,5.4-4.48,11.85l0,4.4l15.33-1.59
	c0.91,2.24,3.61,7.53,9.48,10.19c1.48,0.67,3.04,1.1,4.63,1.31c0.12-16.24,0.38-31.93,0.73-46.79c-0.64-0.21-1.13-0.49-1.36-0.66
	c-0.76-0.66-2.2-2.19-2.79-4.73c-0.09-0.39-0.16-0.82-0.21-1.32l-0.19-1.99l-0.77,1.78c-0.58,1.35-1.69,2.42-3.04,2.93
	c-2.3,0.22-4.39-0.17-6.18-1.15c-1.56-0.85-2.44-1.9-3.29-2.92c-0.77-0.92-1.56-1.87-2.81-2.54c-2.34-1.25-5.47-1.02-9.21,0.71
	l-0.33,0.15v6.53l0.59-0.12c0.38-0.08,0.99-0.17,1.74-0.17c1.47,0,3.63,0.36,5.57,2.07C370.69,329.84,371.4,332.24,371.64,333.61z
	 M390.56,473.17l0.89,0.01c-0.12-3.23-0.23-6.45-0.33-9.68c-2.24,0.34-4.21,0.09-5.9-0.77c-2.18-1.11-3.32-2.86-4.57-5.04
	l-0.28-0.48l-0.41,0.31c-4.11,3.12-8.56,5.46-13.25,6.95c-0.82,0.26-1.7,0.5-2.66,0.74l-1.27,0.31l1.31,0.96
	c4.85,4.12,9.77,6.37,14.59,6.68c1.15,0.07,2.32,0.04,3.8,0C384.55,473.12,386.9,473.05,390.56,473.17z M360.7,286.14l0.41,0.1
	c1.36,0.32,2.63,0.49,3.76,0.49c2.08,0,3.78-0.55,5.06-1.64c1.29-1.11,1.87-2.5,2.43-3.85c0.6-1.45,1.17-2.82,2.58-3.94
	c1.53-1.22,3.6-1.72,6.11-1.5l0.78,0.07l-0.26-0.89c-0.36-1.22-0.86-2.28-1.55-3.25c-2.26-3.19-6.15-5.03-11.54-5.46l-0.23-0.02
	l-7.54,9.19V286.14z M369.27,412.08c3.52-1.46,5.64-4.06,6.64-5.58c-0.67-1.4-2.46-4.46-6.01-6.13c-3.78-1.78-7.24-0.93-8.7-0.41
	v12.84C362.84,413.16,365.89,413.48,369.27,412.08z"/>
<g id="BBodyLogos"></g>
<g>
	<path class="BottomHem fill" d="M247.68,559.16c124.55-4.96,147.55-20.81,147.55-20.81l1.37,14.84c0,0-34.6,17.87-149.34,20.81
		c0,0-105.75-1.2-148.49-20.81l1.37-14.84C100.13,538.35,123.13,554.21,247.68,559.16"/>
</g>
<g>
	<path class="st0" d="M395.05,538.35c0,0-23,15.86-147.55,20.81"/>
	<path class="st0" d="M247.5,559.16c-124.55-4.96-147.55-20.81-147.55-20.81"/>
</g>
<g>
	<path class="st1" d="M247.5,563.62c124.55-4.96,147.55-20.81,147.55-20.81"/>
	<path class="st1" d="M247.5,563.62c-124.55-4.96-147.55-20.81-147.55-20.81"/>
</g>
<g>
	<path class="st2" d="M439.11,65.29c0,0,46.18,55.01,54.38,148.67c0,0-64.06,39.03-86.41,25.65c0,0,1.37-13.63-10.68-34.32
		C396.41,205.29,396.28,131.08,439.11,65.29z"/>
	<path class="st2" d="M55.88,65.29c0,0-46.18,55.01-54.38,148.67c0,0,64.06,39.03,86.41,25.65c0,0-1.37-13.63,10.68-34.32
		C98.58,205.29,98.71,131.08,55.88,65.29z"/>
	<path class="st2" d="M247.5,573.99c125.7-4.96,148.91-20.81,148.91-20.81c-14.4-153.62,0-347.89,0-347.89
		c2.98-84.25,42.71-140,42.71-140C427.94,46.71,322.79,6.94,322.79,6.94l-0.12,0.01c0,0-30.18,12.46-75.17,12.25l-0.43,0
		c-44.76,0.14-74.75-12.25-74.75-12.25l-0.12-0.01c0,0-105.15,39.77-116.32,58.35c0,0,39.73,55.75,42.71,140
		c0,0,14.4,194.26,0,347.89C98.58,553.17,121.8,569.03,247.5,573.99"/>
	<path class="st2" d="M310.74,2l-0.1,0.01c0,0-25.35,9.15-63.15,8.97l-0.36,0c-37.6,0.12-62.79-8.97-62.79-8.97L184.25,2
		l-11.93,4.95c0,0,29.99,12.39,74.75,12.25l0.43,0c44.99,0.21,75.17-12.25,75.17-12.25L310.74,2z"/>
</g>
</svg>
