<?xml version="1.0" encoding="utf-8"?>
<!-- Generator: Adobe Illustrator 19.1.0, SVG Export Plug-In . SVG Version: 6.00 Build 0)  -->
<svg version="1.1" id="Layer_1" xmlns="http://www.w3.org/2000/svg" xmlns:xlink="http://www.w3.org/1999/xlink" x="0px" y="0px"
	 viewBox="0 0 495 576" style="enable-background:new 0 0 495 576;" xml:space="preserve">
<style type="text/css">
	<![CDATA[
	@font-face{font-family:'codaheavy';src:url('/fonts/coda-heavy-webfont.woff') format('woff')}
	text{font-family:Impact,codaheavy,sans-serif}
	.Colour1.fill{fill:#111D35;}
	.Colour2.fill{fill:#EB2935;}
	.Colour3.fill{fill:#595D80;}
	.Colour4.fill{fill:#00878B;}
	.NeckAndArmTrim.fill{fill:#EB2935;}
	.BottomHem.fill{fill:#EB2935;}
	.st0{fill:none;stroke:#000000;stroke-miterlimit:10;stroke-dasharray:2;}
	.st1{fill:none;stroke:#000000;stroke-miterlimit:10;}
	.st2{fill:#FFFFFF;stroke:#000000;stroke-miterlimit:10;}
	.st3{fill:#FFFFFF;}
	.st4{fill:#004CAA;}
	]]>
</style>
<path class="Colour1 fill" d="M439.11,64.76c0,0,46.18,55.04,54.38,148.75c0,0-64.06,39.05-86.41,25.66c0,0,1.37-13.64-10.68-34.34
	C396.41,204.83,396.28,130.58,439.11,64.76z"/>
<path class="Colour1 fill" d="M55.88,64.76c0,0-46.18,55.04-54.38,148.75c0,0,64.06,39.05,86.41,25.66c0,0-1.37-13.64,10.68-34.34
	C98.58,204.83,98.71,130.58,55.88,64.76z"/>
<path class="NeckAndArmTrim fill" d="M419.27,241.66c-4.7,0-8.59-0.85-11.56-2.53c0.07-1.29,0.13-5.73-1.6-12.56c0.35,0.01,0.69,0.01,1.04,0.01
	c34.14,0,77.58-25.85,83.83-29.68c0.77,5.38,1.41,10.91,1.91,16.58C488.81,215.93,445.2,241.66,419.27,241.66z"/>
<path class="NeckAndArmTrim fill" d="M2.12,213.48c0.5-5.67,1.15-11.19,1.91-16.58c6.25,3.83,49.69,29.68,83.83,29.68c0.35,0,0.7-0.01,1.04-0.01
	c-1.73,6.83-1.67,11.27-1.6,12.56c-2.97,1.68-6.85,2.53-11.56,2.53C49.83,241.66,6.21,215.93,2.12,213.48z"/>
<path class="Colour1 fill" d="M439.13,64.76C427.96,46.17,322.81,6.38,322.81,6.38l-0.31,0.11l0.26,0.14c0,0-3.86,57.68-75.02,57.8
	l-0.22,0c-71.37,0-75.24-57.8-75.24-57.8l0.24-0.13l-0.3-0.12c0,0-105.15,39.79-116.32,58.38c0,0,39.73,55.78,42.71,140.07
	c0,0,14.4,194.36,0,348.06c0,0,23.21,15.87,148.91,20.82c125.7-4.96,148.91-20.82,148.91-20.82c-14.4-153.7,0-348.06,0-348.06
	C399.41,120.54,439.13,64.76,439.13,64.76z"/>
<g>
	<path class="st0" d="M395.06,542.79c0,0-23,15.87-147.55,20.82"/>
	<path class="st0" d="M247.51,563.62c-124.55-4.96-147.55-20.82-147.55-20.82"/>
</g>
<g>
	<path class="st1" d="M3.59,195.94c0,0,48.93,31.08,86.1,30.04"/>
	<path class="st0" d="M3.05,200.4c0,0,48.93,31.08,86.1,30.04"/>
	<path class="st1" d="M491.44,195.94c0,0-48.93,31.08-86.1,30.04"/>
	<path class="st0" d="M491.98,200.4c0,0-48.93,31.08-86.1,30.04"/>
</g>
<g>
	<path class="st2" d="M247.51,11.49C287.45,11.67,314.24,2,314.24,2v9.59c0,0-37.4,8.24-66.73,8.24l-0.29,0
		c-29.28-0.05-66.43-8.24-66.43-8.24V2c0,0,26.62,9.61,66.35,9.49L247.51,11.49z"/>
	<path class="st2" d="M247.51,64.42c-71.37,0-75.24-57.8-75.24-57.8L180.79,2c0,0,9.26,48.8,66.73,48.8l0.32,0
		C305.02,50.61,314.24,2,314.24,2l8.51,4.63c0,0-3.86,57.68-75.02,57.8L247.51,64.42z"/>
</g>
<path class="st3" d="M246.84,51.06l-0.32,0c-40.44,0-57.01-24.16-63.28-38.48c9.87,2,39.05,7.48,62.98,7.52l0.29,0
	c23.99,0,53.37-5.51,63.28-7.52C303.55,26.86,287.05,50.94,246.84,51.06z"/>
<path class="NeckAndArmTrim fill" d="M247.51,11.49C287.45,11.67,314.24,2,314.24,2v9.59c0,0-37.4,8.24-66.73,8.24l-0.29,0
	c-29.28-0.05-66.43-8.24-66.43-8.24V2c0,0,26.62,9.61,66.35,9.49L247.51,11.49z"/>
<path class="NeckAndArmTrim fill" d="M247.51,64.42c-71.37,0-75.24-57.8-75.24-57.8L180.79,2c0,0,9.26,48.8,66.73,48.8l0.32,0
	C305.02,50.61,314.24,2,314.24,2l8.51,4.63c0,0-3.86,57.68-75.02,57.8L247.51,64.42z"/>
<path class="st4" d="M247.51,31.55"/>
<path class="Colour2 fill" d="M97.35,186.52c-0.48-4.73-1.06-9.36-1.74-13.87c4.53-1.12,8.45-1.29,11.77-0.55
	c2.56,0.57,4.08,1.51,5.84,2.6c1.42,0.88,3.02,1.87,5.51,2.88c0.85,0.35,1.82,0.69,2.96,1.05l0.92,0.29l-0.51,0.57
	c-2.82,3.12-6.32,5.26-10.42,6.38c-2.13,0.58-4.19,0.84-6.69,0.84c-1.1,0-2.18-0.05-3.29-0.1
	C100.29,186.53,98.8,186.49,97.35,186.52z M376.9,148.3c0.98-1.4,1.83-2.62,4-3.44c1.36-0.52,3-0.78,4.86-0.78
	c1.12,0,2.33,0.09,3.44,0.23c4.43,1.98,9.29,3.44,14.44,4.35c0.13,0.02,0.27,0.04,0.4,0.06c1.69-7.11,3.57-13.85,5.56-20.18
	l-20.27,6.43l-50.71,16.66l1.12,0.6c2.64,1.4,5.68,2.45,8.8,3.03c2.2,0.42,4.5,0.63,6.81,0.63h0c1.79,0,3.58-0.13,5.2-0.36
	c5.79-0.4,10.19-1.66,13.09-3.76C375.27,150.63,376.09,149.45,376.9,148.3z M137.86,151.22c1.93,0.23,4.1,0.38,6.03-0.1
	c2.42-0.59,4.44-1.89,5.99-3.84l0.69-0.61l-66.44-22.12c1.03,3.11,2.03,6.32,3,9.63c11.55,0.5,20.39,3.89,24.78,5.96
	c2.98,1.53,4.91,3.24,5.75,5.09c0.49,1.08,0.54,2,0.58,2.9c0.05,1.09,0.1,2.23,0.99,3.61c0.86,1.35,2.32,2.53,4.34,3.53l0.85,0.42
	l0.58-0.57c2.26-2.21,4.81-3.55,7.58-3.98C134.33,150.86,136.18,151.02,137.86,151.22z M122.6,210.62c0.55-1.51,1.39-2.9,2.51-4.15
	c0.91-1.02,1.83-1.75,2.57-2.35c1.12-0.9,2.01-1.62,2.14-2.7c0.18-1.47-1.15-3.03-3.95-4.66l-0.35-0.13
	c-5.64-1.18-11.74-1.52-17.58-0.97c-3.32,0.31-6.58,0.93-9.7,1.8c0.12,1.91,0.21,3.84,0.29,5.79l23.77,8.16L122.6,210.62z
	 M307.21,218.47l1.26,0.17c1.96,0.26,3.52,0.77,4.64,1.52l0.2,0.13l0.13,0.02l0.54,0.56c0.75,0.77,1.05,1.64,1.37,2.56
	c0.24,0.68,0.48,1.38,0.9,2.18c1.03,1.98,2.83,3.85,5.35,5.56l0.52,0.35l42.4-14.41l-2.73-0.32c-7.57-0.9-14.05-2.8-19.26-5.64
	l-0.2-0.09c-0.09-0.03-0.17-0.05-0.26-0.08l-1.97-1.28c-5.16-3.36-7.6-6.88-8.91-8.78l-0.2-0.29c-0.56-0.8-1.18-1.61-1.83-2.41
	l-0.13-0.16l-0.25-0.09c-6.16-2.24-12.1-3.12-17.53-2.61c-1.81,0.17-3.27,0.47-4.56,0.72c-1.91,0.38-3.67,0.74-6.08,0.6
	c-3.73-0.22-7.37-1.53-10.82-3.9l-0.48-0.33l0.15-0.37c1.73-4.21,3.05-8.47,3.92-12.65c0.84-4.02,1.31-8.17,1.4-12.34l0.02-1.04
	l-39.36,12.93l0,1.58c-0.19,1.37-0.55,2.74-1.06,4.08l-0.34,0.88l1.43-0.12c14.39-1.25,22.91-0.37,25.44,2.62
	c1.39,1.64,0.66,3.6-0.18,5.87c-0.99,2.68-2.12,5.72-0.71,9.55c0.19,0.5,0.43,1.03,0.77,1.65l0.86,1.56l0.08-0.12
	c1.43,1.98,3.45,3.86,6.09,5.57l-0.53,0.82l1.66-0.13c11.64-0.92,18.35-0.33,19.7,1.68c0.53,0.8,0.24,1.9-0.87,3.27L307.21,218.47z
	 M199.26,236.63l-2.21,0.44l5.89,2.02l0.23,0.06c7.15,1.14,13.31,1.71,18.32,1.71c7.17,0,12.21-1.18,14.99-3.5
	c2.05-1.72,2.53-3.7,2.99-5.62c0.54-2.26,1.01-4.22,3.89-5.46c1.25-0.54,2.57-0.78,4.27-0.78c1.02,0,2.1,0.08,3.26,0.17
	c1.28,0.1,2.73,0.21,4.29,0.21c2.06,0,3.99-0.2,5.92-0.6c4.17-0.87,7.94-2.63,11.19-5.22l0.53-0.43l-0.6-0.39
	c-2.21-1.43-10.21-6.12-20.5-6.12c-1.44,0-2.87,0.09-4.28,0.28c-3.26,0.43-6.38,1.35-9.26,2.73l-0.47,0.22l0.09,0.37
	c0.18,0.72,0.12,1.36-0.21,1.96c-1.47,2.72-7.57,4.29-18.56,4.8c-6.43-0.06-12.52-0.77-18.1-2.12c-4.97-1.21-7.58-2.44-10.61-3.87
	c-3.03-1.43-6.46-3.05-13.02-5.19c-2.48-0.81-4.49-1.39-6.11-1.85c-3.94-1.14-5.74-1.66-6.88-3.2c-1.94-2.62-0.63-6.36,3.9-11.12
	l1.42-1.49l-2.59,0.59c-5.97,1.35-10.8,3.37-14.36,6c-1.86,1.37-3.08,2.67-4.26,3.94c-1.54,1.65-3.13,3.35-6.18,5.11
	c-2.64,1.53-5.78,2.75-9.36,3.62l-1.97,0.48l33.01,11.32c2.82,0.57,5.55,0.78,8.16,0.63c2.86-0.17,5.09-0.7,7.3-1.24
	c2.6-0.62,5.29-1.27,8.93-1.1c3.97,0.19,7.86,1.27,11.58,3.19l0.23,0.09c2.88,0.8,4.78,2.55,4.85,4.47
	C205.06,233.9,202.65,235.96,199.26,236.63z M334.95,152.86l-14.64,4.81l-0.13,0.23c-0.7,1.27-1.3,3.18-0.24,5.13
	c1.71,3.17,7.18,5.29,13.61,5.29c0.77,0,1.55-0.03,2.32-0.09l0.23-0.02l0.19-0.08c5.92-2.45,6.33-3.5,6.03-4.15
	c-0.35-0.75-1.88-0.84-3.65-0.95c-1.97-0.12-4.21-0.26-5.5-1.23c-1.68-1.27-1.39-3.77,0.84-7.42L334.95,152.86z"/>
<path class="Colour2 fill" d="M111.33,116.22l139.73,46.85c0.08,0.03,0.16,0.04,0.24,0.04c0.08,0,0.17-0.01,0.24-0.04l135.68-44.7
	l29.1-8.86c-1.33,3.37-2.64,6.91-3.93,10.61l-24.47,8.14l-136.46,44.8l-139.64-46.44l-30.43-9.99c-1.54-4.25-3.11-8.27-4.68-12.05
	L111.33,116.22z M251.55,262.67c-0.08,0.03-0.16,0.04-0.25,0.04c-0.08,0-0.17-0.01-0.25-0.04l-0.01,0l-0.01,0l-152-51.47
	c0.18,2.71,0.41,6.24,0.67,10.52l151.75,51.19l143.67-48.06c0.25-4.23,0.48-7.86,0.67-10.81L251.55,262.67z"/>
<path class="Colour3 fill" d="M281.63,194.04c-0.93,2.5-2.07,5.6-0.71,9.29c1.14,3.08,3.74,5.94,7.74,8.49l1.39,0.89l-1.96,0.16
	c-6.49,0.54-14.53,1.54-23.9,2.97l-0.37,0.06l-0.34-0.12c-5.36-1.86-10.74-2.49-15.84-1.82c-2.95,0.39-5.81,1.21-8.5,2.45
	l-1.14,0.53l-0.39-0.86c-0.72-1.6-2.52-3.26-4.43-5.01c-3.16-2.89-6.42-5.89-4.9-8.98c1.15-2.35,4.39-3.27,8.13-4.33
	c3.63-1.03,8.15-2.32,12.06-5.33c2.54-1.95,4.43-4.35,5.63-7.11l0.17-0.39l0.64-0.06c15.05-1.34,24.04-0.38,26.8,2.89
	C283.28,189.6,282.51,191.66,281.63,194.04z M108.08,196.25c5.72-0.55,11.79-0.18,17.09,0.91c2.64,1.51,3.89,2.94,3.74,4.23
	c-0.11,0.91-0.88,1.53-1.97,2.4c-0.79,0.64-1.69,1.36-2.63,2.4c-1.21,1.35-2.11,2.86-2.68,4.49l-0.16,0.45l10.52,3.61l0.42-0.09
	c3.98-0.9,7.5-2.23,10.47-3.95c3.15-1.82,4.71-3.48,6.36-5.25c1.15-1.23,2.34-2.51,4.16-3.85c3.74-2.76,8.9-4.82,15.18-6.12
	c19.6-0.09,22.27-1.66,22.58-2.84c0.38-1.45-2.48-4.1-31.5-10.38l-0.47-0.1l-0.41,0.18c-14.21,6.13-19.91,7.42-22.19,7.42
	c-0.36,0-0.83-0.03-1.05-0.2c-0.6-0.46-1.22-2.95,15.78-15.83l0.25-0.19l-0.02-0.24c-0.28-3.1,1.5-5.87,4.44-6.89
	c1.83-0.64,4.36-0.67,6.81-0.08c3.57,0.86,6.55,2.84,8.17,5.43l0.53,0.85l1.06-0.63c3.57-2.11,7.33-3.28,11.19-3.46
	c3.78-0.19,6.65,0.67,9.72,1.59c2.84,0.86,5.78,1.74,9.93,2.03c4.72,0.32,9.73-0.28,14.84-1.79l1.79-0.53l-70.45-23.48l-0.58,0.74
	l0,0c-1.45,1.79-3.29,2.96-5.45,3.49c-1.74,0.42-3.7,0.29-5.52,0.07c-1.75-0.21-3.78-0.38-5.68-0.08c-3.09,0.49-5.9,1.98-8.34,4.45
	l-0.15,0.15l0,0.18c0.04,1.86,0.78,3.35,2.2,4.44c1.42,1.08,3.04,1.43,5.08,1.88c1.01,0.22,2.16,0.47,3.45,0.85
	c2.81,0.84,5.43,2.07,7.81,3.69c-0.65,0.97-1.5,1.85-2.53,2.6c-1.71,1.26-3.35,1.79-4.94,2.31c-1.08,0.35-2.21,0.72-3.18,1.3
	c-2.48,1.49-3.51,4.13-3.06,7.84c-2.03-0.32-4.08-0.78-6.09-1.36l-0.82-0.24l-0.45,0.5c-2.72,3.03-6.09,5.1-10.03,6.18
	c-2.01,0.55-3.94,0.79-6.28,0.79c-1.09,0-2.17-0.05-3.35-0.1c-1.43-0.06-2.94-0.1-4.4-0.07c0.41,3.97,0.73,8.03,0.98,12.15
	C101.42,197.2,104.72,196.57,108.08,196.25z M312.86,184.74l0.21,0.15c3.21,2.28,6.09,4.54,8.55,6.72l0.32,0.28l0.55-0.02
	c3.9-0.17,7.78-0.56,11.54-1.17c12.9-2.08,22.33-6.25,27.98-9.38c4.74-2.63,9-5.76,12.68-9.3l1.9-1.83l-3.14,0.93
	c-0.92,0.27-1.69,0.35-2.6,0.25c-3.42-0.39-5.28-3.01-6.92-5.32c-1.48-2.09-2.88-4.06-5.28-4.13l-0.22-0.01
	c-2.23,0-3.38,1.65-4.86,3.76c-1.58,2.28-3.55,5.12-7.65,6.48c-1.51,0.5-3.11,0.75-4.91,0.75c-3.55,0-7.14-0.95-10.61-1.86
	c-3.23-0.85-6.27-1.65-9.11-1.65c-1.52,0-2.82,0.23-3.99,0.7c-4.35,1.77-5.81,6.5-4.47,14.46L312.86,184.74z"/>
<path class="Colour4 fill" d="M286.64,221.13c-0.16,1.03,4.83,2.43,9.23,3.68c6.63,1.87,9.71,2.89,9.39,4.12
	c-0.23,0.89-2.14,1.05-5.02,1.29c-4.08,0.34-10.23,0.85-15.3,3.8c-1.98,1.15-2.88,2.15-3.61,2.96c-0.84,0.93-1.57,1.74-3.5,2.28
	c-0.99,0.28-2.05,0.42-3.16,0.42c-3.71,0-7.45-1.55-10.75-2.91c-3.29-1.36-6.29-2.56-8.18-1.92c-2.35,0.78-4.17,4.63,0.54,18.54
	l0.15,0.45l-5.28,1.79l-50.88-17.46l6.74,0.93c15.25,2.11,24.64,1.31,28.72-2.1c1.92-1.6,2.38-3.51,2.82-5.36
	c0.53-2.2,1.07-4.47,4.28-5.86c1.42-0.61,2.9-0.88,4.81-0.88c1.08,0,2.19,0.09,3.36,0.18c1.33,0.1,2.7,0.21,4.19,0.21
	c1.94,0,3.78-0.19,5.62-0.57c4.01-0.84,7.64-2.54,10.79-5.06c-0.87-0.56-3.31-2.05-6.85-3.42l-2.03-0.78l2.32-0.35
	c14.66-2.2,25.87-3.32,33.31-3.32c6.4,0,10.05,0.8,11.16,2.46c0.69,1.03,0.34,2.37-1.04,3.98l-0.26,0.31l-0.55,0.02
	C288.96,219.16,286.73,220.56,286.64,221.13z M379.92,168.73c-1.8,0.46-3.13,1.04-4.43,1.6l-0.43,0.19l-0.12,0.22
	c-3.77,3.84-8.32,7.25-13.54,10.15c-5.57,3.09-14.88,7.2-27.6,9.25c-3.46,0.56-7.07,0.93-10.73,1.12l-1.7,0.09l0.97,0.88
	c2.29,2.09,4.29,4.17,5.94,6.19c0.66,0.81,1.29,1.64,1.87,2.46l0.2,0.29c1.48,2.14,4.57,6.59,11.52,10.4
	c5.67,3.11,12.75,5.11,21.05,5.96l0.33,0.03l11.59-3.94l0.13-0.22c2.57-4.57,2.92-8.73,1.04-12.35c-1.5-2.89-4.14-5-6.26-6.71
	c-1.7-1.37-3.05-2.45-2.54-3.08c0.41-0.51,1.86-0.61,3.01-0.61c1.57,0,3.71,0.19,6.26,0.55c8.74,3.12,14.34,3.83,17.23,2.23
	c1.26-0.7,1.55-1.61,1.83-2.5c0.29-0.92,0.59-1.88,1.9-2.82c0.03-0.02,0.07-0.04,0.11-0.07c0.59-6.2,1.37-12.22,2.3-18.05
	C392,167.78,385.27,167.36,379.92,168.73z M209.46,190.3l0.23-0.02c3.88-0.65,7.96-1.17,12.12-1.55c2.68-0.24,4.9-0.38,6.75-0.5
	c4.39-0.27,6.8-0.42,9.01-1.64c3.05-1.68,4.43-4.78,4.1-9.2l-0.03-0.35l-13.51-4.5l-0.48,0.19c-26.83,10.74-28.66,14.17-27.7,15.82
	c0.69,1.19,3.43,1.77,8.38,1.77C208.7,190.31,209.07,190.31,209.46,190.3z M95.69,148.11c5.93-1.33,13.55-0.21,22.51,3.3l2.14,0.84
	l-0.67-1.53c-0.4-0.9-0.46-1.68-0.5-2.61c-0.04-0.93-0.09-1.89-0.61-3.04c-0.89-1.96-2.92-3.77-6.06-5.39
	c-4.53-2.14-13.63-5.62-25.53-6.09c1.51,5.13,2.94,10.5,4.25,16.1C92.51,149.05,93.96,148.49,95.69,148.11z"/>
<path class="Colour2 fill" d="M132.73,435.66l-0.47,0.04c-0.81,0.07-1.64,0.1-2.44,0.1c-2.28,0-4.53-0.28-6.69-0.82
	c-3.13-0.78-6.14-2.13-8.96-4.01c-2.4-1.61-4.56-3.5-6.49-5.67l-1.05-1.19l1.43,0.12c3.1,0.25,5.9-0.23,8.32-1.44
	c1.64-0.82,2.77-1.8,3.77-2.67c1.24-1.08,2.41-2.09,4.26-2.6c2.43-0.67,5.16-0.21,8.03,1.35l0.3,0.16V435.66z M119.08,305
	c-3.95,0.18-7.09-1.55-8.98-2.99l-0.26-0.2l-0.27,0.19c-1.56,1.14-3.19,2.15-4.79,3l-2.67,0.74c0.24,7.78,0.47,15.87,0.67,24.23
	c0.76-0.23,1.35-0.58,1.64-0.79c0.85-0.73,2.37-2.37,3.01-5.11c0.21-0.92,0.31-1.89,0.27-2.95c-0.05-0.33-0.07-0.62-0.07-0.95
	c0.07-2.63,2.12-4.1,2.26-4.22c1.59-0.29,3.16-0.74,4.67-1.32c6.41-2.5,11.8-7.46,16.02-14.77l-0.77-0.79
	C127.67,301.67,124.08,304.8,119.08,305z M115.32,477.98c2.91-1.83,6.16-2.75,9.66-2.75c3.22,0,5.83,0.79,7.1,1.26l0.65,0.24v-10.89
	l-0.44-0.08c-0.74-0.13-1.47-0.28-2.21-0.45l-0.19-0.04l-0.82,0.61c-4.75,4.06-9.54,6.27-14.22,6.58c-1.13,0.07-2.23,0.04-3.74,0
	c-1.95-0.06-4.39-0.13-8.07,0l-0.85,0.01c-0.31,8.52-0.68,17.04-1.12,25.53c2.62,0.02,4.85,0.69,6.61,2.03
	c2.57,1.96,3.66,4.89,4.63,7.48c0.95,2.55,1.78,4.76,3.78,5.16c0.19,0.04,0.38,0.06,0.56,0.06c1.12,0,2.02-0.72,3.27-1.71
	c1.29-1.02,3.05-2.42,5.89-3.61c2.04-0.86,4.21-1.43,6.45-1.7l0.46-0.06v-6.2l-0.42-0.09c-2.09-0.47-4.05-1.26-5.81-2.37
	c-2.38-1.49-3.72-3.08-5.03-4.63c-1.14-1.36-2.22-2.64-3.91-3.76c-2.61-1.73-5.91-2.47-9.68-2.18
	C109.18,483.79,111.48,480.4,115.32,477.98z M125.8,371.29c0.8-0.38,1.65-0.57,2.54-0.57c1.65,0,3.01,0.65,3.67,1.05l0.73,0.44
	v-6.69l-15.66-1.62l-0.15,0.38c-0.85,2.11-3.45,7.3-9.19,9.9c-1.42,0.64-2.91,1.05-4.44,1.26c0.08,10.46,0.09,21.16,0.04,31.99
	c2.7-0.82,4.98-2.14,6.79-4c1.87-1.92,2.76-3.82,3.62-5.68c0.89-1.92,1.66-3.57,3.41-4.78c3.22-2.22,8.29-1.67,14.88,1.61l0.7,0.35
	v-8.86l-0.46-0.05c-1.7-0.2-4.95-0.94-7.69-3.74c-1.2-1.23-2.16-2.7-2.86-4.37C121.83,375,123.41,372.41,125.8,371.29z
	 M108.32,260.6c1.32-0.52,2.69-1.06,4.34-1.18c3.05-0.24,6.24,1.06,9.54,3.83l-10-12.25l-13.16-16.33
	c0.41,7.47,0.86,16.17,1.31,25.91l2.41,0.81C104.83,261.96,106.53,261.3,108.32,260.6z M365.28,299.07l-0.78,0.79
	c4.25,7.3,9.68,12.27,16.13,14.77c1.52,0.59,3.1,1.03,4.7,1.32c0.14,0.12,2.2,1.59,2.27,4.22c0,0.33-0.02,0.62-0.07,0.95
	c-0.04,1.07,0.05,2.03,0.27,2.95c0.64,2.74,2.17,4.38,3.03,5.11c0.29,0.21,0.88,0.56,1.65,0.79c0.2-8.35,0.42-16.45,0.67-24.23
	l-2.68-0.74c-1.62-0.85-3.25-1.86-4.82-3l-0.27-0.19l-0.26,0.2c-1.91,1.44-5.06,3.17-9.04,2.99
	C371.03,304.8,367.42,301.67,365.28,299.07z M387.33,486.4c-3.8-0.29-7.11,0.45-9.74,2.18c-1.7,1.12-2.79,2.4-3.94,3.76
	c-1.32,1.55-2.67,3.15-5.06,4.63c-1.78,1.1-3.75,1.9-5.85,2.37l-0.42,0.09v6.2l0.46,0.06c2.25,0.27,4.43,0.84,6.49,1.7
	c2.85,1.19,4.63,2.59,5.93,3.61c1.26,0.99,2.17,1.71,3.29,1.71c0.18,0,0.37-0.02,0.57-0.06c2.01-0.41,2.84-2.61,3.8-5.16
	c0.97-2.59,2.07-5.51,4.66-7.48c1.77-1.34,4.01-2.01,6.65-2.03c-0.44-8.48-0.81-17-1.12-25.53l-0.86-0.01
	c-3.71-0.13-6.16-0.06-8.12,0c-1.51,0.04-2.63,0.07-3.76,0c-4.71-0.31-9.53-2.52-14.31-6.58l-0.82-0.61l-0.19,0.04
	c-0.74,0.17-1.48,0.33-2.22,0.45l-0.44,0.08v10.89l0.66-0.24c1.28-0.47,3.91-1.26,7.15-1.26c3.52,0,6.79,0.93,9.72,2.75
	C383.72,480.4,386.03,483.79,387.33,486.4z M373.32,377.9c-0.69,1.67-1.66,3.14-2.86,4.37c-2.73,2.8-5.99,3.55-7.69,3.74l-0.46,0.05
	v8.86l0.7-0.35c6.59-3.28,11.66-3.83,14.88-1.61c1.75,1.21,2.52,2.87,3.41,4.78c0.86,1.86,1.75,3.76,3.62,5.68
	c1.81,1.86,4.09,3.18,6.79,4c-0.06-10.84-0.04-21.53,0.04-31.99c-1.53-0.21-3.02-0.62-4.44-1.26c-5.74-2.6-8.34-7.79-9.19-9.9
	l-0.15-0.38l-15.66,1.62v6.69l0.73-0.44c0.66-0.39,2.01-1.05,3.67-1.05c0.88,0,1.74,0.19,2.54,0.57
	C371.64,372.41,373.23,375,373.32,377.9z M362.32,435.66l0.48,0.04c0.82,0.07,1.65,0.1,2.46,0.1c2.29,0,4.56-0.28,6.74-0.82
	c3.15-0.78,6.18-2.13,9.02-4.01c2.42-1.61,4.59-3.5,6.53-5.67l1.06-1.19l-1.44,0.12c-3.12,0.25-5.94-0.23-8.37-1.44
	c-1.65-0.82-2.79-1.8-3.8-2.67c-1.25-1.08-2.43-2.09-4.29-2.6c-2.44-0.67-5.19-0.21-8.09,1.35l-0.3,0.16V435.66z M392.49,261.37
	l2.42-0.81c0.45-9.74,0.91-18.44,1.32-25.91l-13.25,16.33l-10.06,12.25c3.32-2.77,6.53-4.07,9.6-3.83c1.67,0.13,3.04,0.66,4.37,1.18
	C388.7,261.3,390.4,261.96,392.49,261.37z"/>
<path class="Colour1 fill" d="M200.55,226.76c3.13,0.84,5.28,2.81,5.35,4.97c0.1,2.71-3.22,5.18-7.54,5.64l-0.34,0.04l-35.48-12.18
	l5.3,0.45c1.42,0.12,2.81,0.14,4.17,0.06c2.72-0.16,4.88-0.68,6.98-1.18c2.74-0.66,5.55-1.34,9.4-1.15
	C192.58,223.61,196.67,224.74,200.55,226.76z"/>
<path class="Colour1 fill" d="M236.81,198.29c3.91-1.11,8.35-2.37,12.4-5.49c4.05-3.12,6.46-7.21,7.17-12.2l0-1.91l-4.91,1.61
	l-10.74-3.58l0.06,1.07c0.21,4.04-1.07,6.85-3.8,8.36c-2,1.1-4.17,1.23-8.65,1.51c-1.78,0.11-3.99,0.25-6.64,0.49
	c-4.14,0.38-8.25,0.9-12.24,1.56c-5.06,0.08-8.04-0.39-8.61-1.37c-0.89-1.53,3.03-5.36,26.83-14.92l1.42-0.57L219,169.48l-0.45,0.14
	c-5.21,1.61-10.29,2.27-15.05,1.94c-3.98-0.28-6.98-1.18-9.64-1.98c-3.16-0.95-6.09-1.84-10.2-1.65c-4.09,0.2-8.06,1.43-11.81,3.66
	c-1.72-2.78-4.87-4.88-8.73-5.81c-2.7-0.65-5.53-0.61-7.59,0.12c-3.25,1.14-5.21,4.12-4.91,7.45c-8.62,6.53-18.3,14.66-15.8,16.58
	c0.39,0.3,1,0.45,1.81,0.45c3.32,0,11.37-2.69,22.68-7.57c27.55,5.95,31.2,8.66,30.92,9.74c-0.22,0.84-3.28,2.25-21.38,2.35l-0.54,0
	l-0.29,0.29c-5.19,5.22-6.72,9.36-4.54,12.3c1.28,1.73,3.3,2.32,7.34,3.48c1.61,0.46,3.62,1.04,6.07,1.84
	c6.49,2.11,9.89,3.71,12.89,5.14c3.21,1.52,5.75,2.72,10.83,3.95c5.69,1.38,11.87,2.1,18.38,2.16l0.04,0l0.04,0
	c11.3-0.52,17.82-2.27,19.41-5.19c1.43-2.65-1.47-5.3-4.54-8.12c-3.03-2.78-6.16-5.65-4.78-8.48
	C230.2,200.17,233.11,199.34,236.81,198.29z"/>
<path class="Colour1 fill" d="M397.61,187.15c-0.32,0.17-0.61,0.36-0.89,0.55c-1.46,1.06-1.8,2.14-2.1,3.09
	c-0.28,0.9-0.51,1.61-1.53,2.17c-2.54,1.4-7.94,0.63-16.1-2.28l-0.27-0.07c-6.1-0.87-9.44-0.77-10.34,0.35
	c-0.77,0.97,0.66,2.12,2.65,3.71c1.96,1.58,4.65,3.74,6.1,6.52c1.72,3.31,1.48,7.12-0.7,11.32l-0.77,1.47l22.66-7.7
	c0.07-0.97,0.11-1.48,0.11-1.48C396.64,198.78,397.05,192.89,397.61,187.15z"/>
<path class="Colour1 fill" d="M403.89,148.11c-5-0.88-9.74-2.31-14.07-4.23l-0.35-0.1c-3.61-0.51-6.68-0.31-9.04,0.58
	c-2.42,0.92-3.37,2.27-4.37,3.7c-0.73,1.05-1.57,2.24-3.1,3.35c-0.76,0.55-1.7,1.06-2.78,1.52l-0.65,0.28l-0.29,0.1
	c-2.38,0.86-5.31,1.42-8.83,1.66c-3.77,0.54-7.85,0.46-11.59-0.25c-3.16-0.59-6.2-1.66-8.79-3.09l-0.51-0.28l-5.78,1.9l-0.14,0.21
	c-2.81,4.31-3.17,7.16-1.12,8.71c1.53,1.16,4.07,1.31,6.12,1.44c1.61,0.1,2.68,0.19,2.85,0.54c0.17,0.36-0.34,1.29-5.67,3.5
	c-6.88,0.54-13.19-1.53-14.96-4.81c-0.68-1.25-0.7-2.65-0.05-4.15l0.59-1.37l-27.47,9.03l-0.01,0.37c-0.03,1.97-0.16,3.97-0.37,5.95
	l-0.1,0.82c-0.24,2.04-0.56,4.01-0.94,5.86c-0.9,4.3-2.25,8.65-4.03,12.93l-0.13,0.32l0.35,0.25c3.74,2.68,7.74,4.17,11.88,4.41
	c2.59,0.15,4.45-0.22,6.45-0.62c1.26-0.25,2.69-0.54,4.42-0.7c4.79-0.45,10.03,0.25,15.51,2.06l2.86,0.95l-1.54-1.79
	c-3.56-4.13-8.42-8.36-14.47-12.64l-0.13-0.91c-1.04-7.1,0.37-11.48,4.18-13.03c1.02-0.42,2.16-0.62,3.49-0.62
	c2.62,0,5.6,0.79,8.76,1.62c3.56,0.94,7.25,1.91,10.93,1.91c1.95,0,3.71-0.27,5.37-0.82c4.38-1.46,6.42-4.4,8.06-6.76
	c1.39-2,2.49-3.41,4.15-3.41h0c1.87,0.06,3.16,1.87,4.52,3.79c1.73,2.44,3.69,5.21,7.6,5.65c2.15,0.25,3.67-0.4,5.45-1.17
	c1.11-0.48,2.23-0.95,3.65-1.35l0.23-0.07l0.68-0.16c5.12-1.2,11.56-0.72,19.03,1.4c1.23-7.83,2.75-15.32,4.45-22.43
	C404.08,148.14,403.98,148.13,403.89,148.11z"/>
<path class="Colour1 fill" d="M255.59,254.13l67.37-22.89l-0.84-0.59c-2.34-1.63-4.02-3.39-4.98-5.23c-0.4-0.76-0.65-1.47-0.88-2.12
	c-0.45-1.3-0.85-2.42-2.33-3.46c-1.4-0.98-3.38-1.61-5.89-1.86l-0.1-0.01l-0.1,0c-21.74,0.69-22.01,2.45-22.11,3.11
	c-0.21,1.34,3.55,2.5,9.78,4.26c4.05,1.14,9.1,2.57,8.86,3.49c-0.12,0.47-2.02,0.63-4.23,0.81c-4.19,0.35-10.52,0.87-15.81,3.95
	c-2.08,1.21-3.03,2.26-3.79,3.1c-0.83,0.91-1.42,1.57-3.07,2.03c-0.89,0.25-1.81,0.37-2.8,0.37c-3.41,0-7.03-1.5-10.25-2.83
	c-2.73-1.13-5.3-2.19-7.45-2.19c-0.6,0-1.16,0.08-1.64,0.25c-3.86,1.28-3.85,7.5,0.01,18.99L255.59,254.13z"/>
<path class="Colour1 fill" d="M140.58,169.19c1.08-0.79,1.97-1.71,2.66-2.73l0.25-0.37l-0.43-0.3c-2.45-1.66-5.16-2.93-8.06-3.8
	c-1.32-0.39-2.5-0.65-3.54-0.87c-1.91-0.41-3.42-0.74-4.67-1.7c-1.27-0.97-1.93-2.32-1.99-4.02l-0.01-0.3l-0.38-0.18
	c-1.97-0.93-3.39-2.05-4.24-3.31l-0.12-0.18l-0.25-0.1c-9.67-3.95-17.95-5.23-24.42-3.78c-1.68,0.37-3.07,0.88-4.32,1.47
	c1.81,7.65,3.39,15.74,4.65,24.22c4.33-1.1,8.18-1.31,11.38-0.61c2.36,0.52,3.75,1.38,5.52,2.47c1.45,0.89,3.09,1.91,5.64,2.94
	c3.1,1.26,6.51,2.18,10.16,2.75l1.32,0.21l-0.1-0.85c-0.42-3.5,0.52-5.96,2.78-7.32c0.88-0.53,1.89-0.86,2.97-1.21
	C136.95,171.12,138.75,170.53,140.58,169.19z"/>
<path class="Colour1 fill" d="M108.83,287.57c0.41-0.7,0.8-1.32,1.24-1.96c1.23-2.43,1.51-4.66,1.78-6.82c0.3-2.46,0.57-4.58,2.11-6.78
	c2.09-2.96,5.67-4.71,10.65-5.2l1.2-0.12l-0.91-0.96c-4.25-4.52-8.39-6.67-12.24-6.37c-1.66,0.13-3.03,0.66-4.35,1.18
	c-1.31,0.52-2.55,1.01-3.92,1.01c-0.55,0-1.08-0.08-1.6-0.23l-2.44-0.9c0.46,9.88,0.92,20.83,1.34,32.65
	C104.74,291.66,107.14,289.83,108.83,287.57z"/>
<path class="Colour1 fill" d="M117.65,551.83c0.5-2.24,1.47-4.3,2.79-5.95c3.44-4.3,8.3-4.94,10.9-4.94c0.35,0,0.65,0.01,0.87,0.03
	l0.54,0.04v-25.28v-0.7v-10.07l-0.56,0.07c-2.28,0.28-4.49,0.86-6.57,1.73c-2.91,1.22-4.72,2.64-6.05,3.68
	c-1.36,1.07-2.27,1.79-3.46,1.55c-1.72-0.35-2.46-2.3-3.39-4.78c-1-2.67-2.14-5.7-4.87-7.77c-1.85-1.4-4.18-2.11-6.91-2.13
	c-0.96,18.63-2.24,37.07-3.9,54.98h20.53L117.65,551.83z"/>
<path class="Colour1 fill" d="M132.73,294.37l-0.95,1.95c-2.99,6.13-8.46,14.17-17.53,17.68c-1.47,0.57-3.01,1-4.58,1.29l-0.18,0.08
	c-0.26,0.18-2.53,1.86-2.6,4.89c0.04,0.32,0.07,0.64,0.09,1.05c0.36,2.13,1.81,3.91,3.78,4.64l0.11,0.02
	c0.43,0.04,0.85,0.06,1.26,0.06c1.9,0,3.65-0.43,5.19-1.27c1.66-0.91,2.61-2.05,3.45-3.06c0.76-0.92,1.49-1.78,2.64-2.4
	c2.16-1.16,5.1-0.94,8.63,0.65l0.69,0.31V294.37z"/>
<path class="Colour1 fill" d="M132.73,449.06l-0.43-0.08c-6.2-1.13-11.18-0.27-14.7,2.53c-2.18,1.74-3.37,3.82-4.42,5.66l-0.3,0.53
	l0.45,0.34c4.12,3.15,8.6,5.51,13.3,7.02c1.76,0.57,3.62,1.02,5.53,1.35l0.58,0.1V449.06z"/>
<path class="Colour1 fill" d="M123.6,400.33c1.5-0.71,3.09-1.07,4.75-1.07c1.6,0,2.92,0.34,3.74,0.62l0.64,0.22v-5.91l-0.31-0.16
	c-6.83-3.46-12.05-4.02-15.45-1.66c-1.88,1.3-2.71,3.12-3.6,5.04c-0.79,1.71-1.68,3.65-3.47,5.49c-1.71,1.76-3.85,3.02-6.39,3.82
	c-0.04,8.08-0.12,16.25-0.25,24.47c0.25-0.29,0.49-0.59,0.75-0.87c1.3,0.78,2.69,1.29,4.11,1.51c1.86,0.29,3.82,0.06,5.69-0.68
	l1.1-0.43l-1-0.7c-2.08-1.45-4.02-3.17-5.77-5.12c3.15,0.24,5.98-0.27,8.43-1.49c1.7-0.85,2.81-1.81,3.89-2.74
	c1.19-1.03,2.32-2.01,4.06-2.49c2.26-0.62,4.81-0.21,7.5,1.22l0.71,0.37v-7.22l-0.59,0.13c-2.68,0.57-5.4,0.31-7.91-0.74
	c-3.46-1.45-5.56-4.01-6.56-5.54C118.34,404.99,120.12,401.98,123.6,400.33z"/>
<path class="Colour1 fill" d="M393.57,293.07c0.42-11.81,0.88-22.76,1.34-32.65l-2.45,0.9c-0.53,0.15-1.07,0.23-1.62,0.23
	c-1.38,0-2.62-0.49-3.94-1.01c-1.33-0.52-2.71-1.06-4.38-1.18c-3.88-0.3-8.04,1.85-12.32,6.37l-0.91,0.96l1.21,0.12
	c5.01,0.48,8.62,2.23,10.72,5.2c1.56,2.2,1.82,4.32,2.13,6.78c0.27,2.16,0.55,4.4,1.79,6.82c0.44,0.64,0.84,1.26,1.25,1.96
	C388.08,289.83,390.5,291.66,393.57,293.07z"/>
<path class="Colour1 fill" d="M377.48,406.41c-1.01,1.52-3.12,4.09-6.6,5.54c-2.53,1.05-5.26,1.31-7.96,0.74l-0.6-0.13v7.22l0.71-0.37
	c2.71-1.42,5.27-1.83,7.55-1.22c1.75,0.48,2.88,1.45,4.08,2.49c1.08,0.93,2.2,1.89,3.91,2.74c2.47,1.22,5.32,1.73,8.49,1.49
	c-1.76,1.96-3.72,3.68-5.81,5.12l-1.01,0.7l1.1,0.43c1.89,0.73,3.86,0.97,5.73,0.68c1.44-0.22,2.83-0.73,4.14-1.51
	c0.26,0.28,0.51,0.58,0.75,0.87c-0.13-8.22-0.21-16.38-0.25-24.47c-2.55-0.8-4.71-2.06-6.43-3.82c-1.8-1.84-2.7-3.78-3.49-5.49
	c-0.89-1.92-1.74-3.74-3.63-5.04c-3.42-2.36-8.68-1.8-15.55,1.66l-0.31,0.16v5.91l0.65-0.22c0.83-0.28,2.15-0.62,3.77-0.62
	c1.66,0,3.27,0.36,4.78,1.07C375.02,401.98,376.81,404.99,377.48,406.41z"/>
<path class="Colour1 fill" d="M377.51,552.29h20.53c-1.67-17.9-2.95-36.35-3.9-54.98c-2.73,0.02-5.06,0.72-6.91,2.13
	c-2.73,2.07-3.87,5.1-4.87,7.77c-0.93,2.48-1.67,4.43-3.39,4.78c-1.19,0.23-2.11-0.48-3.46-1.55c-1.33-1.04-3.13-2.47-6.05-3.68
	c-2.07-0.87-4.28-1.45-6.57-1.73l-0.56-0.07v10.07v0.7v25.28l0.54-0.04c0.22-0.01,0.51-0.03,0.87-0.03c2.59,0,7.45,0.64,10.9,4.94
	c1.32,1.65,2.28,3.7,2.79,5.95L377.51,552.29z"/>
<path class="Colour1 fill" d="M362.32,320.27l0.69-0.31c3.53-1.59,6.46-1.81,8.63-0.65c1.16,0.62,1.88,1.48,2.64,2.4
	c0.84,1.01,1.8,2.15,3.45,3.06c1.54,0.84,3.29,1.27,5.19,1.27c0.41,0,0.84-0.02,1.26-0.06l0.11-0.02c1.97-0.73,3.41-2.51,3.78-4.64
	c0.02-0.41,0.05-0.73,0.09-1.05c-0.08-3.03-2.35-4.71-2.6-4.89l-0.18-0.08c-1.57-0.29-3.1-0.72-4.58-1.29
	c-9.07-3.51-14.54-11.55-17.53-17.68l-0.95-1.95V320.27z"/>
<path class="Colour1 fill" d="M362.32,466.52l0.58-0.1c1.92-0.33,3.79-0.79,5.56-1.35c4.73-1.51,9.23-3.87,13.38-7.02l0.45-0.34
	l-0.3-0.53c-1.05-1.84-2.25-3.92-4.45-5.66c-3.54-2.8-8.55-3.66-14.8-2.53l-0.44,0.08V466.52z"/>
<path class="Colour3 fill" d="M132.73,449.74l-0.58-0.1c-6.03-1.08-10.86-0.26-14.25,2.44c-2.1,1.67-3.24,3.67-4.33,5.6
	c-1.27,2.23-2.47,4.34-4.98,5.62c-1.28,0.65-2.72,0.98-4.28,0.98c-0.59,0-1.2-0.06-1.82-0.15c0.36-11.34,0.62-22.66,0.79-33.89
	c0.13-0.15,0.26-0.31,0.39-0.45l0.26-0.27l0.3,0.18c1.26,0.76,2.59,1.25,3.96,1.47c1.94,0.3,3.96,0.03,5.86-0.8l0.21-0.09l0.2,0.13
	c2.75,1.83,5.7,3.14,8.77,3.91c2.15,0.54,4.37,0.81,6.61,0.81c0.71,0,1.48-0.04,2.34-0.11l0.54-0.05V449.74z M132.73,325.41
	l-0.42-0.09c-0.41-0.09-1.07-0.19-1.9-0.19c-1.54,0-3.81,0.38-5.86,2.2c-2.27,2.02-3.02,4.68-3.26,6.09l-0.12,0.73l0.61,0.02
	c0.81,0.02,2.83,0.29,4.2,2.28c1.39,2.02,1.02,4.26,0.82,5.05c-1.86-0.43-3.81-0.32-5.61,0.34c-2.73,1-4.42,2.94-5.36,4.4
	l-0.42,0.66l0.64,0.3c1.83,0.86,3.74,1.55,5.66,2.03c1.7,0.43,2.92,0.58,3.8,0.69c1.07,0.13,1.78,0.22,2.54,0.64
	c1.79,0.98,3.03,3.38,3.67,7.14l1,5.82V325.41z M132.73,285.31l-0.6,0.14c-3.55,0.83-6.21,0.52-8.04-0.92l-0.31-0.25l-0.04-0.04
	c-1.08-1-1.59-2.25-2.09-3.46c-0.6-1.47-1.23-2.98-2.75-4.21c-1.67-1.34-3.9-1.88-6.61-1.59l-0.34,0.04l-0.1,0.4
	c-0.25,1.04-0.39,2.09-0.54,3.26c-0.26,2.1-0.53,4.26-1.7,6.58c-0.3,0.59-0.68,1.19-1.23,1.94c-0.07,0.13-0.13,0.26-0.2,0.39
	l-1.12,1.12c-1.43,1.43-3.23,2.66-5.38,3.67c0.16,4.56,0.32,9.25,0.47,14.06l2.4-0.66l-0.01,0.11l0.4-0.22l0.17-0.05l0-0.05
	l0.21-0.11c1.56-0.85,3.05-1.83,4.49-2.88l0.21,0.15c1.84,1.35,4.81,2.96,8.53,2.96c0.19,0,0.38,0,0.56-0.01
	c8.59-0.36,13.08-8.88,13.56-9.85l0.07-0.15V285.31z M115.07,477.39c-4.06,2.55-6.43,6.17-7.7,8.76l-0.5,1.01l0.96-0.08
	c3.73-0.29,6.92,0.41,9.46,2.1c1.63,1.08,2.68,2.33,3.8,3.66c1.33,1.58,2.7,3.21,5.16,4.74c1.78,1.12,3.76,1.93,5.88,2.41l0.6,0.14
	v-24.08l-0.36-0.14c-1.32-0.5-4.02-1.35-7.4-1.35C121.39,474.56,118.06,475.51,115.07,477.39z M132.73,371.47l-0.27-0.17
	c-0.45-0.29-2.06-1.25-4.1-1.25c-0.95,0-1.87,0.21-2.73,0.62c-2.57,1.22-4.29,4.06-4.39,7.23l-0.01,0.16l0.06,0.14
	c0.73,1.76,1.73,3.3,2.98,4.59c2.82,2.9,6.16,3.69,7.89,3.89l0.56,0.07V371.47z M362.32,449.74l0.59-0.1
	c6.07-1.08,10.93-0.26,14.34,2.44c2.11,1.67,3.26,3.67,4.36,5.6c1.28,2.23,2.49,4.34,5.01,5.62c1.29,0.65,2.74,0.98,4.31,0.98
	c0.59,0,1.2-0.06,1.83-0.15c-0.36-11.34-0.62-22.66-0.8-33.89c-0.13-0.15-0.26-0.31-0.39-0.45l-0.26-0.27l-0.31,0.18
	c-1.27,0.76-2.61,1.25-3.99,1.47c-1.95,0.3-3.99,0.03-5.89-0.8l-0.22-0.09l-0.2,0.13c-2.77,1.83-5.74,3.14-8.83,3.91
	c-2.16,0.54-4.4,0.81-6.65,0.81c-0.71,0-1.49-0.04-2.36-0.11l-0.55-0.05V449.74z M362.32,363.49l1.01-5.82
	c0.65-3.76,1.9-6.16,3.7-7.14c0.77-0.42,1.48-0.5,2.56-0.64c0.89-0.11,2.11-0.26,3.83-0.69c1.94-0.49,3.86-1.17,5.7-2.03l0.64-0.3
	l-0.43-0.66c-0.95-1.46-2.66-3.4-5.4-4.4c-1.81-0.66-3.77-0.77-5.65-0.34c-0.2-0.79-0.58-3.03,0.83-5.05
	c1.38-1.99,3.41-2.26,4.23-2.28l0.61-0.02l-0.12-0.73c-0.24-1.41-0.99-4.07-3.28-6.09c-2.06-1.82-4.34-2.2-5.9-2.2
	c-0.83,0-1.5,0.11-1.91,0.19l-0.42,0.09V363.49z M362.32,295.68l0.07,0.15c0.49,0.97,5,9.49,13.65,9.85
	c0.19,0.01,0.38,0.01,0.57,0.01c3.74,0,6.73-1.61,8.58-2.96l0.21-0.15c1.45,1.05,2.95,2.03,4.52,2.88l0.21,0.11l0,0.05l0.18,0.05
	l0.4,0.22l-0.01-0.11l2.42,0.66c0.15-4.81,0.31-9.5,0.47-14.06c-2.16-1.01-3.98-2.23-5.42-3.67l-1.12-1.12
	c-0.07-0.13-0.13-0.26-0.2-0.39c-0.56-0.75-0.94-1.35-1.24-1.94c-1.18-2.31-1.45-4.48-1.71-6.58c-0.15-1.17-0.29-2.22-0.54-3.26
	l-0.1-0.4l-0.35-0.04c-2.73-0.29-4.97,0.25-6.65,1.59c-1.54,1.22-2.16,2.74-2.77,4.21c-0.5,1.21-1.02,2.46-2.11,3.46l-0.04,0.04
	l-0.32,0.25c-1.85,1.44-4.53,1.76-8.1,0.92l-0.61-0.14V295.68z M370.12,474.56c-3.39,0-6.12,0.84-7.45,1.35l-0.36,0.14v24.08
	l0.6-0.14c2.13-0.48,4.12-1.3,5.92-2.41c2.47-1.53,3.85-3.16,5.19-4.74c1.12-1.33,2.19-2.58,3.82-3.66c2.55-1.68,5.77-2.39,9.52-2.1
	l0.97,0.08l-0.5-1.01c-1.28-2.59-3.67-6.21-7.75-8.76C377.09,475.51,373.74,474.56,370.12,474.56z M362.32,386.74l0.56-0.07
	c1.75-0.21,5.11-0.99,7.95-3.89c1.26-1.29,2.27-2.84,3-4.59l0.06-0.14l-0.01-0.16c-0.1-3.17-1.83-6-4.42-7.23
	c-0.87-0.41-1.79-0.62-2.75-0.62c-2.05,0-3.68,0.96-4.13,1.25l-0.27,0.17V386.74z"/>
<path class="Colour4 fill" d="M121.79,333.49c0.85,0.03,3.06,0.32,4.58,2.51c1.62,2.35,1.11,4.98,0.92,5.74l-0.14,0.53l-0.45-0.1
	c-1.8-0.42-3.69-0.32-5.42,0.31c-2.64,0.96-4.26,2.86-5.09,4.11c1.79,0.83,3.66,1.5,5.56,1.98c1.68,0.42,2.84,0.56,3.77,0.68
	c1.1,0.14,1.88,0.23,2.73,0.69c2.61,1.42,4.12,5.41,4.48,11.86l0,4.4l-15.33-1.59c-0.91,2.25-3.61,7.54-9.48,10.2
	c-1.48,0.67-3.04,1.1-4.63,1.31c-0.12-16.24-0.38-31.95-0.73-46.82c0.64-0.21,1.13-0.49,1.36-0.66c0.76-0.66,2.2-2.19,2.79-4.73
	c0.09-0.39,0.16-0.82,0.21-1.32l0.19-1.99l0.77,1.78c0.58,1.36,1.69,2.42,3.04,2.93c2.3,0.22,4.39-0.17,6.18-1.15
	c1.56-0.85,2.44-1.91,3.29-2.92c0.77-0.92,1.56-1.87,2.81-2.54c2.34-1.25,5.47-1.02,9.21,0.71l0.33,0.15v6.54l-0.59-0.12
	c-0.38-0.08-0.99-0.17-1.74-0.17c-1.47,0-3.63,0.36-5.57,2.07C122.74,329.71,122.03,332.12,121.79,333.49z M111.12,473.12
	c1.47,0.04,2.63,0.07,3.77,0c4.79-0.31,9.67-2.57,14.49-6.69l1.3-0.96l-1.27-0.31c-0.96-0.24-1.83-0.48-2.65-0.74
	c-4.65-1.49-9.08-3.83-13.16-6.95l-0.41-0.31l-0.28,0.48c-1.25,2.18-2.37,3.94-4.54,5.05c-1.68,0.86-3.64,1.11-5.87,0.77
	c-0.1,3.23-0.21,6.45-0.33,9.68l0.89-0.01C106.7,473,109.03,473.06,111.12,473.12z M132.73,275.28l-7.5-9.19l-0.23,0.02
	c-5.36,0.44-9.22,2.28-11.47,5.47c-0.68,0.97-1.18,2.03-1.54,3.25l-0.26,0.89l0.78-0.07c2.5-0.22,4.55,0.28,6.07,1.5
	c1.4,1.12,1.97,2.5,2.57,3.95c0.56,1.35,1.13,2.74,2.42,3.85c1.26,1.09,2.95,1.64,5.02,1.64c1.12,0,2.38-0.16,3.74-0.49l0.41-0.1
	V275.28z M132.23,412.72v-12.85c-1.45-0.52-4.88-1.38-8.64,0.41c-3.53,1.67-5.31,4.73-5.97,6.14c0.99,1.52,3.11,4.12,6.6,5.58
	C127.57,413.39,130.61,413.07,132.23,412.72z M373.26,333.49c-0.85,0.03-3.06,0.32-4.58,2.51c-1.62,2.35-1.11,4.98-0.92,5.74
	l0.14,0.53l0.45-0.1c1.8-0.42,3.69-0.32,5.42,0.31c2.64,0.96,4.26,2.86,5.09,4.11c-1.79,0.83-3.66,1.5-5.56,1.98
	c-1.68,0.42-2.84,0.56-3.77,0.68c-1.1,0.14-1.88,0.23-2.73,0.69c-2.61,1.42-4.12,5.41-4.48,11.86l0,4.4l15.33-1.59
	c0.91,2.25,3.61,7.54,9.48,10.2c1.48,0.67,3.04,1.1,4.63,1.31c0.12-16.24,0.38-31.95,0.73-46.82c-0.64-0.21-1.13-0.49-1.36-0.66
	c-0.76-0.66-2.2-2.19-2.79-4.73c-0.09-0.39-0.16-0.82-0.21-1.32l-0.19-1.99l-0.77,1.78c-0.58,1.36-1.69,2.42-3.04,2.93
	c-2.3,0.22-4.39-0.17-6.18-1.15c-1.56-0.85-2.44-1.91-3.29-2.92c-0.77-0.92-1.56-1.87-2.81-2.54c-2.34-1.25-5.47-1.02-9.21,0.71
	l-0.33,0.15v6.54l0.59-0.12c0.38-0.08,0.99-0.17,1.74-0.17c1.47,0,3.63,0.36,5.57,2.07C372.32,329.71,373.02,332.12,373.26,333.49z
	 M392.18,473.12l0.89,0.01c-0.12-3.23-0.23-6.45-0.33-9.68c-2.24,0.34-4.21,0.09-5.9-0.77c-2.18-1.11-3.32-2.86-4.57-5.05
	l-0.28-0.48l-0.41,0.31c-4.11,3.12-8.56,5.46-13.25,6.95c-0.82,0.26-1.7,0.51-2.66,0.74l-1.27,0.31l1.31,0.96
	c4.85,4.12,9.77,6.37,14.59,6.69c1.15,0.07,2.32,0.04,3.8,0C386.17,473.06,388.52,473,392.18,473.12z M362.32,285.99l0.41,0.1
	c1.36,0.32,2.63,0.49,3.76,0.49c2.08,0,3.78-0.55,5.06-1.64c1.29-1.11,1.87-2.5,2.43-3.85c0.6-1.45,1.17-2.82,2.58-3.95
	c1.53-1.22,3.6-1.72,6.11-1.5l0.78,0.07l-0.26-0.89c-0.36-1.22-0.86-2.28-1.55-3.25c-2.26-3.19-6.15-5.03-11.54-5.47l-0.23-0.02
	l-7.54,9.19V285.99z M370.89,411.99c3.52-1.46,5.64-4.06,6.64-5.58c-0.67-1.4-2.46-4.47-6.01-6.14c-3.78-1.78-7.24-0.93-8.7-0.41
	v12.85C364.46,413.07,367.52,413.39,370.89,411.99z"/>
<path class="Colour2 fill" d="M141.87,551.67v-107l14.09,23.93v83.07H141.87z M156.19,437.44c0.02,0,0.05,0,0.07-0.01
	c0.1-0.04,0.16-0.14,0.16-0.27V320.45c0-0.06-0.01-0.11-0.04-0.16l-14.56-25.96c-0.06-0.1-0.16-0.14-0.26-0.11
	c-0.1,0.04-0.16,0.15-0.16,0.27v118.56c0,0.06,0.02,0.12,0.04,0.17l14.56,24.11C156.05,437.4,156.12,437.44,156.19,437.44z
	 M353.19,551.67v-107l-14.09,23.93v83.07H353.19z M339.05,437.33l14.56-24.11c0.03-0.05,0.04-0.11,0.04-0.17V294.48
	c0-0.12-0.07-0.23-0.16-0.27c-0.1-0.03-0.2,0.01-0.26,0.11l-14.56,25.96c-0.03,0.05-0.04,0.1-0.04,0.16v116.71
	c0,0.12,0.06,0.23,0.16,0.27c0.02,0.01,0.05,0.01,0.07,0.01C338.93,437.44,339,437.4,339.05,437.33z"/>
<g>
	<path class="st1" d="M395.06,538.33c0,0-23,15.87-147.55,20.82"/>
	<path class="st1" d="M247.51,559.16c-124.55-4.96-147.55-20.82-147.55-20.82"/>
</g>
<g>
	<path class="BottomHem fill" d="M247.69,559.16c124.55-4.96,147.55-20.82,147.55-20.82l1.37,14.84c0,0-34.6,17.88-149.34,20.82
		c0,0-105.75-1.2-148.49-20.82l1.37-14.84C100.14,538.33,123.14,554.2,247.69,559.16"/>
</g>
<g id="FBodyLogos"></g>
<path class="st1" d="M314.23,2.27c0,0-26.79,9.67-66.73,9.49l-0.38,0c-39.73,0.13-66.35-9.49-66.35-9.49l-8.51,4.63
	c0,0,3.87,57.8,75.24,57.8l0.22,0c71.16-0.12,75.02-57.8,75.02-57.8L314.23,2.27z M247.83,51.06l-0.32,0
	c-40.44,0-57.01-24.16-63.28-38.48c9.86,2,39.05,7.48,62.98,7.52l0.29,0c23.99,0,53.38-5.52,63.28-7.52
	C304.53,26.86,288.03,50.94,247.83,51.06z"/>
<path class="st1" d="M439.12,65.03c0,0,46.18,55.04,54.38,148.75c0,0-64.06,39.05-86.41,25.66c0,0,1.37-13.64-10.68-34.34
	C396.42,205.1,396.29,130.85,439.12,65.03z"/>
<path class="st1" d="M55.89,65.03c0,0-46.18,55.04-54.38,148.75c0,0,64.06,39.05,86.41,25.66c0,0-1.37-13.64,10.68-34.34
	C98.59,205.1,98.72,130.85,55.89,65.03z"/>
<g>
	<path class="st1" d="M439.14,65.03C427.97,46.44,322.82,6.65,322.82,6.65l-0.31,0.11l0.26,0.14c0,0-3.86,57.68-75.02,57.8l-0.22,0
		c-71.37,0-75.24-57.8-75.24-57.8l0.24-0.13l-0.3-0.12c0,0-105.15,39.79-116.32,58.38c0,0,39.73,55.78,42.71,140.07
		c2.11,40.46,3.54,82.11,4.16,124.88c1.14,77.97-0.49,152.48-4.16,223.19c0,0,23.21,15.87,148.91,20.82
		c125.7-4.96,148.91-20.82,148.91-20.82c-4.27-70.75-4.92-128.43-4.72-168.18c0.4-79.82,4.72-179.88,4.72-179.88l0,0
		c0.67-21.61,4.07-51.52,15.96-84.98C420.37,97.7,430.16,79.29,439.14,65.03z"/>
</g>
<g>
	<path class="st0" d="M247.51,563.62c124.55-4.96,147.55-20.82,147.55-20.82"/>
	<path class="st0" d="M247.51,563.62c-124.55-4.96-147.55-20.82-147.55-20.82"/>
</g>
</svg>
