<?xml version="1.0" encoding="utf-8"?>
<!-- Generator: Adobe Illustrator 19.1.0, SVG Export Plug-In . SVG Version: 6.00 Build 0)  -->
<svg version="1.1" id="Layer_1" xmlns="http://www.w3.org/2000/svg" xmlns:xlink="http://www.w3.org/1999/xlink" x="0px" y="0px"
	 viewBox="0 0 495 576" style="enable-background:new 0 0 495 576;" xml:space="preserve">
<style type="text/css">
	<![CDATA[
	@font-face{font-family:'codaheavy';src:url('/fonts/coda-heavy-webfont.woff') format('woff')}
	text{font-family:Impact,codaheavy,sans-serif}
	.Colour1.fill{fill:#7EB6B1;}
	.Colour2.fill{fill:#FFFFFF;}
	.NeckAndArmTrim.fill{fill:#7EB6B1;}
	.BottomHem.fill{fill:#EDEDED;}
	.st0{fill:none;stroke:#000000;stroke-miterlimit:10;}
	.st1{fill:#FFFFFF;stroke:#000000;stroke-miterlimit:10;}
	.st2{fill:none;stroke:#808083;stroke-miterlimit:10;}
	.st3{fill:none;stroke:#808083;stroke-miterlimit:10;stroke-dasharray:2;}
	]]>
</style>
<path class="Colour1 fill" d="M439.11,64.76c0,0,46.18,55.04,54.37,148.75c0,0-64.06,39.05-86.4,25.66c0,0,1.37-13.64-10.68-34.34
	C396.4,204.83,396.28,130.58,439.11,64.76z"/>
<path class="Colour1 fill" d="M55.87,64.76c0,0-46.18,55.04-54.37,148.75c0,0,64.06,39.05,86.4,25.66c0,0-1.37-13.64,10.68-34.34
	C98.58,204.83,98.7,130.58,55.87,64.76z"/>
<path class="NeckAndArmTrim fill" d="M419.23,241.38c-4.7,0-8.59-0.85-11.56-2.53c0.07-1.29,0.13-5.73-1.6-12.56c0.35,0.01,0.69,0.01,1.04,0.01
	c34.14,0,77.58-25.85,83.83-29.68c0.77,5.38,1.41,10.91,1.91,16.58C488.77,215.65,445.16,241.38,419.23,241.38z"/>
<path class="NeckAndArmTrim fill" d="M2.09,213.2C2.59,207.53,3.24,202,4,196.62c6.25,3.83,49.69,29.68,83.83,29.68c0.35,0,0.7-0.01,1.04-0.01
	c-1.73,6.83-1.67,11.27-1.6,12.56c-2.97,1.68-6.85,2.53-11.56,2.53C49.8,241.38,6.18,215.65,2.09,213.2z"/>
<path class="Colour1 fill" d="M439.13,64.76C427.95,46.17,322.8,6.38,322.8,6.38l-0.31,0.11l0.26,0.14c0,0-3.86,57.68-75.02,57.8l-0.22,0
	c-71.37,0-75.24-57.8-75.24-57.8l0.24-0.13l-0.3-0.12c0,0-105.15,39.79-116.32,58.38c0,0,39.73,55.78,42.71,140.07
	c0,0,14.4,194.36,0,348.06c0,0,23.21,15.87,148.91,20.82c125.7-4.96,148.91-20.82,148.91-20.82c-14.4-153.7,0-348.06,0-348.06
	C399.4,120.54,439.13,64.76,439.13,64.76z"/>
<path class="st0" d="M247.51,6.38"/>
<g>
	<path class="st1" d="M247.51,11.49"/>
</g>
<g>
	<path class="st1" d="M247.51,11.49C287.45,11.67,314.24,2,314.24,2v9.59c0,0-37.4,8.24-66.73,8.24l-0.29,0
		c-29.28-0.05-66.43-8.24-66.43-8.24V2c0,0,26.62,9.61,66.35,9.49L247.51,11.49z"/>
	<path class="st1" d="M247.51,64.42c-71.37,0-75.24-57.8-75.24-57.8L180.78,2c0,0,9.26,48.8,66.73,48.8l0.32,0
		C305.01,50.61,314.24,2,314.24,2l8.51,4.63c0,0-3.86,57.68-75.02,57.8L247.51,64.42z"/>
</g>
<path class="st1" d="M247.83,50.79l-0.32,0c-40.44,0-57.01-24.16-63.28-38.48c9.87,2,39.05,7.48,62.98,7.52l0.29,0
	c23.99,0,53.37-5.51,63.28-7.52C304.53,26.59,288.04,50.67,247.83,50.79z"/>
<path class="Colour2 fill" d="M362.83,562.71V47.74c-15.8-8.78-31.31-15.31-46.37-20.04c-8.14,16.49-26.69,36.66-68.74,36.73l-0.22,0
	c-42.26,0-60.85-20.26-68.99-36.79c-28.92,8.86-46.33,20.1-46.33,20.1v514.98c22.23,4.25,58.19,8.75,115.32,11.01
	C304.64,571.46,340.6,566.96,362.83,562.71z"/>
<path class="Colour1 fill" d="M288.35,571.51V55.9c-10.22,5.11-23.46,8.49-40.63,8.52l-0.22,0c-17.27,0-30.58-3.39-40.85-8.52v515.61
	c12.24,0.86,25.8,1.61,40.85,2.2C262.55,573.12,276.11,572.37,288.35,571.51z"/>
<path class="Colour2 fill" d="M96.2,176.76c1.21,8.95,2.05,18.31,2.4,28.06c0,0,1.63,21.97,3.24,56.97h291.34
	c1.61-35,3.24-56.97,3.24-56.97c0.34-9.75,1.19-19.12,2.4-28.06H96.2z"/>
<path class="NeckAndArmTrim fill" d="M247.51,11.49C287.45,11.67,314.24,2,314.24,2v9.59c0,0-37.4,8.24-66.73,8.24l-0.29,0
	c-29.28-0.05-66.43-8.24-66.43-8.24V2c0,0,26.62,9.61,66.35,9.49L247.51,11.49z"/>
<path class="NeckAndArmTrim fill" d="M247.51,64.42c-71.37,0-75.24-57.8-75.24-57.8L180.78,2c0,0,9.26,48.8,66.73,48.8l0.32,0
	C305.01,50.61,314.24,2,314.24,2l8.51,4.63c0,0-3.86,57.68-75.02,57.8L247.51,64.42z"/>
<g id="FBodyLogos"></g>
<path class="BottomHem fill" d="M247.78,559.16c124.54-4.96,147.54-20.82,147.54-20.82l1.37,14.84c0,0-34.6,17.88-149.34,20.82
	c0,0-105.75-1.2-148.48-20.82l1.37-14.84C100.24,538.33,123.24,554.2,247.78,559.16"/>
<path class="st2" d="M405.32,225.7c37.16,1.04,86.1-30.04,86.1-30.04"/>
<path class="st3" d="M491.95,200.12c0,0-48.93,31.08-86.1,30.04"/>
<path class="st2" d="M3.57,195.66c0,0,48.93,31.08,86.1,30.04"/>
<path class="st3" d="M3.03,200.12c0,0,48.93,31.08,86.1,30.04"/>
<g>
	<path class="st2" d="M395.03,538.05c0,0-23,15.87-147.54,20.82"/>
	<path class="st2" d="M247.49,558.87c-124.54-4.96-147.54-20.82-147.54-20.82"/>
</g>
<g>
	<path class="st3" d="M395.03,542.51c0,0-23,15.87-147.54,20.82"/>
	<path class="st3" d="M247.49,563.34c-124.54-4.96-147.54-20.82-147.54-20.82"/>
</g>
<g>
	<path class="st2" d="M439.13,64.76c0,0,46.18,55.04,54.37,148.75c0,0-64.06,39.05-86.4,25.66c0,0,1.37-13.64-10.68-34.34
		C396.42,204.83,396.3,130.58,439.13,64.76z"/>
	<path class="st2" d="M55.89,64.76c0,0-46.18,55.04-54.37,148.75c0,0,64.06,39.05,86.4,25.66c0,0-1.37-13.64,10.68-34.34
		C98.6,204.83,98.72,130.58,55.89,64.76z"/>
	<g>
		<path class="st2" d="M439.14,64.76C427.97,46.17,322.82,6.38,322.82,6.38l-0.31,0.11l0.26,0.14c0,0-3.86,57.68-75.02,57.8l-0.22,0
			c-71.37,0-75.24-57.8-75.24-57.8l0.24-0.13l-0.3-0.12c0,0-105.15,39.79-116.32,58.38c0,0,39.73,55.78,42.71,140.07
			c0,0,14.4,194.36,0,348.07c0,0,23.21,15.87,148.91,20.82c125.7-4.96,148.91-20.82,148.91-20.82c-14.4-153.7,0-348.07,0-348.07
			C399.42,120.54,439.14,64.76,439.14,64.76z"/>
	</g>
</g>
<path class="st2" d="M314.24,2c0,0-26.79,9.67-66.73,9.49l-0.38,0C207.4,11.61,180.78,2,180.78,2l-8.51,4.63
	c0,0,3.87,57.8,75.24,57.8l0.22,0c71.16-0.12,75.02-57.8,75.02-57.8L314.24,2z M247.83,50.79l-0.32,0
	c-40.44,0-57.01-24.16-63.28-38.48c9.86,2,39.04,7.48,62.98,7.52l0.29,0c23.99,0,53.38-5.52,63.28-7.52
	C304.53,26.59,288.04,50.67,247.83,50.79z"/>
</svg>
