<?xml version="1.0" encoding="utf-8"?>
<!-- Generator: Adobe Illustrator 19.1.0, SVG Export Plug-In . SVG Version: 6.00 Build 0)  -->
<svg version="1.1" id="Layer_1" xmlns="http://www.w3.org/2000/svg" xmlns:xlink="http://www.w3.org/1999/xlink" x="0px" y="0px"
	 viewBox="0 0 495 576" style="enable-background:new 0 0 495 576;" xml:space="preserve">
<style type="text/css">
	<![CDATA[
	@font-face{font-family:'codaheavy';src:url('/fonts/coda-heavy-webfont.woff') format('woff')}
	text{font-family:Impact,codaheavy,sans-serif}
	.Colour1.fill{fill:#EDEDED;}
	.Colour2.fill{fill:#0F0F0F;}
	.Colour3.fill{fill:#A08011;}
	.NeckAndArmTrim.fill{fill:#EDEDED;}
	.BottomHem.fill{fill:#EDEDED;}
	.Gradient1.stopColor{stop-color:#EDEDED;}
	.Gradient2.stopColor{stop-color:#0F0F0F;}
	.st0{fill:url(#SVGID_1_);}
	.st1{fill:url(#SVGID_2_);}
	.st2{fill:none;stroke:#000000;stroke-miterlimit:10;}
	.st3{fill:#FFFFFF;stroke:#000000;stroke-miterlimit:10;}
	.st4{fill:#004CAA;stroke:#000000;stroke-miterlimit:10;}
	.st5{fill:#FFFFFF;}
	.st6{fill:none;stroke:#000000;stroke-miterlimit:10;stroke-dasharray:2;}
	]]>
</style>
<path class="Colour1 fill" d="M439.13,64.76C427.96,46.17,322.81,6.38,322.81,6.38l-0.31,0.11l0.26,0.14c0,0-3.86,57.68-75.02,57.8
	l-0.22,0c-71.37,0-75.24-57.8-75.24-57.8l0.24-0.13l-0.3-0.12c0,0-105.15,39.79-116.32,58.38c0,0,39.73,55.78,42.71,140.07
	c0,0,14.4,194.37,0,348.07c0,0,23.21,15.87,148.91,20.82c125.7-4.96,148.91-20.82,148.91-20.82c-14.4-153.71,0-348.07,0-348.07
	C399.41,120.54,439.13,64.76,439.13,64.76z"/>
<g>
	<g>
		<linearGradient id="SVGID_1_" gradientUnits="userSpaceOnUse" x1="345.4436" y1="175.3746" x2="345.4436" y2="552.6002">
			<stop class="Gradient1 stopColor" offset="0" style="stop-color:#EDEDED;stop-opacity:0"/>
			<stop class="Gradient2 stopColor" offset="1" style="stop-color:#0F0F0F"/>
		</linearGradient>
		<path class="st0" d="M303.37,570.55l2.46-4.25h5.71l1.92,3.32c0.37-0.04,0.74-0.07,1.11-0.11l-2.2-3.81l2.64-4.57h5.71l2.64,4.57
			l-1.79,3.09c0.42-0.05,0.83-0.09,1.25-0.14l1.36-2.36h5.71l0.84,1.44c0.37-0.04,0.73-0.09,1.09-0.13l-1.1-1.91l2.64-4.57h5.71
			l2.64,4.57l-0.38,0.66c2.82-0.39,5.5-0.79,8.05-1.19l2.33-4.04h5.71l1.41,2.45c0.36-0.06,0.71-0.13,1.06-0.19l-1.65-2.85
			l2.64-4.57h5.71l2.64,4.57l-0.65,1.12c0.45-0.1,0.9-0.19,1.34-0.29l0.14-0.24h0.93c2.21-0.5,4.24-0.98,6.1-1.45l2.15-3.71h5.71
			l0.74,1.28c0.34-0.11,0.67-0.21,0.98-0.32l-0.9-1.55l2.64-4.57h5.71l1.42,2.45c0.11-0.07,0.16-0.1,0.16-0.1
			c-0.06-0.65-0.12-1.3-0.18-1.96l-0.57-0.99l0.42-0.72c-0.05-0.58-0.1-1.17-0.16-1.75l-1.09,1.88h-5.71l-2.64-4.57l2.64-4.57h5.71
			l0.54,0.93c-0.07-0.89-0.15-1.78-0.22-2.68l-0.32,0.55h-5.71l-2.64-4.57l2.64-4.57h5.36c-0.03-0.4-0.06-0.8-0.09-1.19h-5.27
			l-2.64-4.57l2.64-4.57h4.63c-0.03-0.4-0.05-0.8-0.08-1.19h-4.56l-2.64-4.57l2.64-4.57h3.99c-0.02-0.4-0.05-0.8-0.07-1.19h-3.92
			l-2.64-4.57l2.64-4.57h3.41c-0.02-0.4-0.04-0.8-0.06-1.19h-3.35l-2.64-4.57l2.64-4.57h2.9c-0.02-0.4-0.04-0.8-0.05-1.19h-2.85
			l-2.64-4.57l2.64-4.57h2.46c-0.02-0.4-0.03-0.8-0.05-1.19h-2.41l-2.64-4.57l2.64-4.57h2.08c-0.01-0.4-0.03-0.8-0.04-1.19h-2.04
			l-2.64-4.57l2.64-4.57h1.75c-0.01-0.4-0.02-0.8-0.03-1.19h-1.72l-2.64-4.57l2.64-4.57h1.49c-0.01-0.4-0.02-0.79-0.03-1.19h-1.46
			l-2.64-4.57l2.64-4.57h1.27c-0.01-0.4-0.01-0.8-0.02-1.19h-1.25l-2.64-4.57l2.64-4.57h1.1c-0.01-0.4-0.01-0.8-0.02-1.19h-1.09
			l-2.64-4.57l2.64-4.57h0.99c0-0.4-0.01-0.8-0.01-1.19h-0.97l-2.64-4.57l2.64-4.57h0.92c0-0.4,0-0.8-0.01-1.19h-0.91l-2.64-4.57
			l2.64-4.57h0.89c0-0.4,0-0.8,0-1.19h-0.89l-2.64-4.57l2.64-4.57h0.9c0-0.4,0-0.8,0.01-1.19h-0.91l-2.64-4.57l2.64-4.57h0.96
			c0-0.4,0.01-0.8,0.01-1.19h-0.97l-2.64-4.57l2.64-4.57h1.06c0-0.4,0.01-0.8,0.01-1.19h-1.08l-2.64-4.57l2.64-4.57h1.2
			c0.01-0.4,0.01-0.8,0.02-1.19h-1.22l-2.64-4.57l2.64-4.57h1.37c0.01-0.4,0.02-0.8,0.02-1.19h-1.4l-2.64-4.57l2.64-4.57H390
			c0.01-0.4,0.02-0.8,0.03-1.19h-1.62l-2.64-4.57l2.64-4.57h1.84c0.01-0.4,0.02-0.8,0.03-1.19h-1.87l-2.64-4.57l2.64-4.57h2.12
			c0.01-0.4,0.02-0.8,0.04-1.19h-2.16l-2.64-4.57l2.64-4.57h2.44c0.01-0.4,0.03-0.8,0.04-1.19h-2.48l-2.64-4.57l2.64-4.57h2.8
			c0.01-0.4,0.03-0.8,0.04-1.19h-2.84l-2.64-4.57l2.64-4.57h3.19c0.02-0.4,0.03-0.8,0.05-1.19h-3.24l-2.64-4.57l2.64-4.57h3.62
			c0.02-0.4,0.03-0.8,0.05-1.19h-3.67l-2.64-4.57l2.64-4.57h4.08c0.02-0.4,0.04-0.8,0.06-1.19h-4.13l-2.64-4.57l2.64-4.57h4.58
			c0.02-0.4,0.04-0.8,0.06-1.19h-4.64l-2.64-4.57l2.64-4.57h5.11c0.02-0.4,0.04-0.8,0.06-1.19h-5.18l-2.64-4.57l2.64-4.57h5.68
			c0.02-0.43,0.05-0.86,0.07-1.28l-0.05,0.08h-5.71l-2.64-4.57l2.64-4.57h5.71l0.53,0.92c0.07-1.2,0.14-2.33,0.21-3.41l-0.75,1.29
			h-5.71l-2.64-4.57l2.64-4.57h5.71l1.13,1.95c0.04-0.65,0.08-1.25,0.12-1.81l-0.42-0.74l0.54-0.93c0.07-1.02,0.12-1.79,0.16-2.3
			l-1.52,2.64h-5.71l-2.64-4.57l2.64-4.57h5.71l1.71,2.96c0.03-0.62,0.06-1.25,0.09-1.87l-0.98-1.69l1.19-2.06
			c0.05-0.77,0.11-1.54,0.16-2.3l-2.18,3.77h-5.71l-2.64-4.57l2.64-4.57h5.71l2.28,3.95c0.05-0.59,0.09-1.19,0.14-1.78l-1.6-2.76
			l2.24-3.87c0.08-0.72,0.17-1.44,0.25-2.16l-1.27-2.2l-0.77,0.7l1.37,2.37l-2.64,4.57h-5.71l-0.22-0.39l-0.77,0.7l0.17,0.29
			l-2.64,4.57h-2.86l-1.31,1.19h4.18l2.64,4.57l-2.64,4.57h-5.71l-2.64-4.57l0.94-1.63l-2.45,2.23h0.68l2.64,4.57l-2.64,4.57h-5.71
			l-1.73-3l-0.77,0.7l1.68,2.9l-2.64,4.57h-5.71l-0.53-0.92l-0.77,0.7l0.47,0.82l-2.64,4.57h-3.76l-1.31,1.19h5.07l2.64,4.57
			l-2.64,4.57h-5.71l-2.64-4.57l1.93-3.34l-2.46,2.24l-0.29,0.5h-0.26l-1.31,1.19h1.58l2.64,4.57l-2.64,4.57h-5.71l-2.04-3.53
			l-0.77,0.7l1.98,3.43l-2.64,4.57h-5.71l-0.84-1.45l-0.56,0.5l-0.05,0.46l0.62,1.08l-0.94,1.63l-0.3,2.54l2.06-3.57h5.71l2.64,4.57
			l-2.64,4.57h-5.71l-2.26-3.91l-0.2,1.68l1.63,2.82l-2.46,4.26l-0.18,1.51l2.64,4.57l-2.64,4.57h-1.07l-0.14,1.19h1.21l2.64,4.57
			l-2.64,4.57h-2.28l-0.14,1.19h2.42l2.64,4.57l-2.64,4.57h-3.49l-0.14,1.19h3.63l2.64,4.57l-2.64,4.57h-4.71l-0.14,1.19h4.85
			l2.64,4.57l-2.64,4.57h-5.71l-0.18-0.3l-0.27,2.26l0.44-0.76h5.71l2.64,4.57l-2.64,4.57h-5.71l-1.18-2.05l-0.2,1.68l0.56,0.96
			l-0.84,1.45l-0.3,2.54l1.96-3.39h5.71l2.64,4.57l-2.64,4.57h-5.71l-2.19-3.79l-0.2,1.68l1.57,2.71l-2.36,4.09l-0.21,1.8l2.57,4.45
			l-2.64,4.57h-0.99l-0.14,1.19h1.13l2.64,4.57l-2.64,4.57h-2.2l-0.14,1.19h2.34l2.64,4.57l-2.64,4.57h-3.42l-0.14,1.19h3.56
			l2.64,4.57l-2.64,4.57h-4.63l-0.14,1.19h4.77l2.64,4.57l-2.64,4.57H315l-0.11-0.19l-0.23,1.97l0.34-0.59h5.71l2.64,4.57
			l-2.64,4.57H315l-1.12-1.93l-0.2,1.68l0.49,0.85l-0.74,1.28l-0.3,2.54l1.86-3.22h5.71l2.64,4.57l-2.64,4.57H315l-2.13-3.68
			l-0.2,1.68l1.5,2.59l-2.26,3.91l-0.24,2.08l2.51,4.34l-2.64,4.57h-0.91l-0.14,1.19h1.05l2.64,4.57l-2.64,4.57h-2.12l-0.14,1.19
			h2.26l2.64,4.57l-2.64,4.57h-3.34l-0.14,1.19h3.48l2.64,4.57l-2.64,4.57h-4.55l-0.14,1.19h4.69l2.64,4.57l-2.64,4.57h-5.71
			l-0.04-0.08l-0.2,1.69l0.24-0.42h5.71l2.64,4.57l-2.64,4.57h-5.71l-1.05-1.82l-0.2,1.68l0.43,0.74l-0.64,1.11l-0.3,2.54l1.76-3.05
			h5.71l2.64,4.57l-2.64,4.57h-5.71l-2.06-3.56l-0.2,1.68l1.43,2.48l-2.16,3.74l-0.28,2.37l2.44,4.22l-2.64,4.57h-0.83l-0.14,1.19
			h0.97l2.64,4.57l-2.64,4.57h-2.04l-0.14,1.19h2.18l2.64,4.57l-2.64,4.57h-3.26l-0.14,1.19h3.4l2.64,4.57l-2.64,4.57h-4.47
			l-0.14,1.19h4.61l2.64,4.57l-2.64,4.57h-5.68l-0.17,1.44l0.14-0.25h5.71l2.64,4.57l-2.64,4.57h-5.71l-0.99-1.71l-0.2,1.68
			l0.36,0.62l-0.54,0.94l-0.3,2.54l1.66-2.88h5.71l2.64,4.57l-2.64,4.57h-5.71l-1.99-3.45l-0.2,1.68l1.37,2.37l-2.07,3.57
			l-0.31,2.65l2.38,4.11l-0.18,0.31C298.29,570.98,300.86,570.77,303.37,570.55z M315,559.95l-2.64-4.57l2.64-4.57h5.71l2.64,4.57
			l-2.64,4.57H315z M375.77,230.35l2.64,4.57l-2.64,4.57h-5.71l-2.64-4.57l2.64-4.57H375.77z M367.42,224.58l2.64-4.57h5.71
			l2.64,4.57l-2.64,4.57h-5.71L367.42,224.58z M366.59,256.19l2.64,4.57l-2.64,4.57h-5.71l-2.64-4.57l2.64-4.57H366.59z
			 M358.24,250.42l2.64-4.57h5.71l2.64,4.57l-2.64,4.57h-5.71L358.24,250.42z M357.42,354.39l2.64,4.57l-2.64,4.57h-5.71l-2.64-4.57
			l2.64-4.57H357.42z M349.06,348.63l2.64-4.57h5.71l2.64,4.57l-2.64,4.57h-5.71L349.06,348.63z M357.42,364.73l2.64,4.57
			l-2.64,4.57h-5.71l-2.64-4.57l2.64-4.57H357.42z M357.42,375.07l2.64,4.57l-2.64,4.57h-5.71l-2.64-4.57l2.64-4.57H357.42z
			 M357.42,385.41l2.64,4.57l-2.64,4.57h-5.71l-2.64-4.57l2.64-4.57H357.42z M357.42,395.74l2.64,4.57l-2.64,4.57h-5.71l-2.64-4.57
			l2.64-4.57H357.42z M357.42,406.08l2.64,4.57l-2.64,4.57h-5.71l-2.64-4.57l2.64-4.57H357.42z M357.42,416.42l2.64,4.57l-2.64,4.57
			h-5.71l-2.64-4.57l2.64-4.57H357.42z M348.24,514.62l2.64,4.57l-2.64,4.57h-5.71l-2.64-4.57l2.64-4.57H348.24z M339.89,508.86
			l2.64-4.57h5.71l2.64,4.57l-2.64,4.57h-5.71L339.89,508.86z M348.24,524.96l2.64,4.57l-2.64,4.57h-5.71l-2.64-4.57l2.64-4.57
			H348.24z M349.06,524.36l2.64-4.57h5.71l2.64,4.57l-2.64,4.57h-5.71L349.06,524.36z M351.71,518.6l-2.64-4.57l2.64-4.57h5.71
			l2.64,4.57l-2.64,4.57H351.71z M351.71,508.26l-2.64-4.57l2.64-4.57h5.71l2.64,4.57l-2.64,4.57H351.71z M351.71,497.92l-2.64-4.57
			l2.64-4.57h5.71l2.64,4.57l-2.64,4.57H351.71z M351.71,487.59l-2.64-4.57l2.64-4.57h5.71l2.64,4.57l-2.64,4.57H351.71z
			 M351.71,477.25l-2.64-4.57l2.64-4.57h5.71l2.64,4.57l-2.64,4.57H351.71z M351.71,466.91l-2.64-4.57l2.64-4.57h5.71l2.64,4.57
			l-2.64,4.57H351.71z M351.71,456.57l-2.64-4.57l2.64-4.57h5.71l2.64,4.57l-2.64,4.57H351.71z M351.71,446.24l-2.64-4.57l2.64-4.57
			h5.71l2.64,4.57l-2.64,4.57H351.71z M351.71,435.9l-2.64-4.57l2.64-4.57h5.71l2.64,4.57l-2.64,4.57H351.71z M350.88,426.16
			l-2.64,4.57h-5.71l-2.64-4.57l2.64-4.57h5.71L350.88,426.16z M348.24,431.92l2.64,4.57l-2.64,4.57h-5.71l-2.64-4.57l2.64-4.57
			H348.24z M348.24,442.26l2.64,4.57l-2.64,4.57h-5.71l-2.64-4.57l2.64-4.57H348.24z M348.24,452.6l2.64,4.57l-2.64,4.57h-5.71
			l-2.64-4.57l2.64-4.57H348.24z M348.24,462.93l2.64,4.57l-2.64,4.57h-5.71l-2.64-4.57l2.64-4.57H348.24z M348.24,473.27l2.64,4.57
			l-2.64,4.57h-5.71l-2.64-4.57l2.64-4.57H348.24z M348.24,483.61l2.64,4.57l-2.64,4.57h-5.71l-2.64-4.57l2.64-4.57H348.24z
			 M348.24,493.95l2.64,4.57l-2.64,4.57h-5.71l-2.64-4.57l2.64-4.57H348.24z M341.71,503.69l-2.64,4.57h-5.71l-2.64-4.57l2.64-4.57
			h5.71L341.71,503.69z M339.06,509.45l2.64,4.57l-2.64,4.57h-5.71l-2.64-4.57l2.64-4.57H339.06z M339.06,519.79l2.64,4.57
			l-2.64,4.57h-5.71l-2.64-4.57l2.64-4.57H339.06z M339.06,530.13l2.64,4.57l-2.64,4.57h-5.71l-2.64-4.57l2.64-4.57H339.06z
			 M342.53,535.3h5.71l2.64,4.57l-2.64,4.57h-5.71l-2.64-4.57L342.53,535.3z M349.06,534.7l2.64-4.57h5.71l2.64,4.57l-2.64,4.57
			h-5.71L349.06,534.7z M358.24,529.53l2.64-4.57h5.71l2.64,4.57l-2.64,4.57h-5.71L358.24,529.53z M360.88,523.77l-2.64-4.57
			l2.64-4.57h5.71l2.64,4.57l-2.64,4.57H360.88z M366.59,513.43h-5.71l-2.64-4.57l2.64-4.57h5.71l2.64,4.57L366.59,513.43z
			 M360.88,503.09l-2.64-4.57l2.64-4.57h5.71l2.64,4.57l-2.64,4.57H360.88z M360.88,492.75l-2.64-4.57l2.64-4.57h5.71l2.64,4.57
			l-2.64,4.57H360.88z M360.88,482.42l-2.64-4.57l2.64-4.57h5.71l2.64,4.57l-2.64,4.57H360.88z M360.88,472.08l-2.64-4.57l2.64-4.57
			h5.71l2.64,4.57l-2.64,4.57H360.88z M360.88,461.74l-2.64-4.57l2.64-4.57h5.71l2.64,4.57l-2.64,4.57H360.88z M360.88,451.41
			l-2.64-4.57l2.64-4.57h5.71l2.64,4.57l-2.64,4.57H360.88z M360.88,441.07l-2.64-4.57l2.64-4.57h5.71l2.64,4.57l-2.64,4.57H360.88z
			 M360.88,430.73l-2.64-4.57l2.64-4.57h5.71l2.64,4.57l-2.64,4.57H360.88z M360.88,420.39l-2.64-4.57l2.64-4.57h5.71l2.64,4.57
			l-2.64,4.57H360.88z M360.88,410.06l-2.64-4.57l2.64-4.57h5.71l2.64,4.57l-2.64,4.57H360.88z M360.88,399.72l-2.64-4.57l2.64-4.57
			h5.71l2.64,4.57l-2.64,4.57H360.88z M360.88,389.38l-2.64-4.57l2.64-4.57h5.71l2.64,4.57l-2.64,4.57H360.88z M360.88,379.04
			l-2.64-4.57l2.64-4.57h5.71l2.64,4.57l-2.64,4.57H360.88z M360.88,368.71l-2.64-4.57l2.64-4.57h5.71l2.64,4.57l-2.64,4.57H360.88z
			 M360.88,358.37l-2.64-4.57l2.64-4.57h5.71l2.64,4.57l-2.64,4.57H360.88z M360.88,348.03l-2.64-4.57l2.64-4.57h5.71l2.64,4.57
			l-2.64,4.57H360.88z M360.88,337.69l-2.64-4.57l2.64-4.57h5.71l2.64,4.57l-2.64,4.57H360.88z M366.59,327.36h-5.71l-2.64-4.57
			l2.64-4.57h5.71l2.64,4.57L366.59,327.36z M360.88,317.02l-2.64-4.57l2.64-4.57h5.71l2.64,4.57l-2.64,4.57H360.88z M360.88,306.68
			l-2.64-4.57l2.64-4.57h5.71l2.64,4.57l-2.64,4.57H360.88z M360.88,296.35l-2.64-4.57l2.64-4.57h5.71l2.64,4.57l-2.64,4.57H360.88z
			 M360.88,286.01l-2.64-4.57l2.64-4.57h5.71l2.64,4.57l-2.64,4.57H360.88z M360.88,275.67l-2.64-4.57l2.64-4.57h5.71l2.64,4.57
			l-2.64,4.57H360.88z M360.06,265.93l-2.64,4.57h-5.71l-2.64-4.57l2.64-4.57h5.71L360.06,265.93z M357.42,271.7l2.64,4.57
			l-2.64,4.57h-5.71l-2.64-4.57l2.64-4.57H357.42z M357.42,282.03l2.64,4.57l-2.64,4.57h-5.71l-2.64-4.57l2.64-4.57H357.42z
			 M357.42,292.37l2.64,4.57l-2.64,4.57h-5.71l-2.64-4.57l2.64-4.57H357.42z M357.42,302.71l2.64,4.57l-2.64,4.57h-5.71l-2.64-4.57
			l2.64-4.57H357.42z M351.71,313.04h5.71l2.64,4.57l-2.64,4.57h-5.71l-2.64-4.57L351.71,313.04z M357.42,323.38l2.64,4.57
			l-2.64,4.57h-5.71l-2.64-4.57l2.64-4.57H357.42z M357.42,333.72l2.64,4.57l-2.64,4.57h-5.71l-2.64-4.57l2.64-4.57H357.42z
			 M350.88,343.46l-2.64,4.57h-5.71l-2.64-4.57l2.64-4.57h5.71L350.88,343.46z M348.24,349.23l2.64,4.57l-2.64,4.57h-5.71
			l-2.64-4.57l2.64-4.57H348.24z M348.24,359.56l2.64,4.57l-2.64,4.57h-5.71l-2.64-4.57l2.64-4.57H348.24z M348.24,369.9l2.64,4.57
			l-2.64,4.57h-5.71l-2.64-4.57l2.64-4.57H348.24z M342.53,380.24h5.71l2.64,4.57l-2.64,4.57h-5.71l-2.64-4.57L342.53,380.24z
			 M348.24,390.57l2.64,4.57l-2.64,4.57h-5.71l-2.64-4.57l2.64-4.57H348.24z M348.24,400.91l2.64,4.57l-2.64,4.57h-5.71l-2.64-4.57
			l2.64-4.57H348.24z M348.24,411.25l2.64,4.57l-2.64,4.57h-5.71l-2.64-4.57l2.64-4.57H348.24z M341.71,420.99l-2.64,4.57h-5.71
			l-2.64-4.57l2.64-4.57h5.71L341.71,420.99z M339.06,426.75l2.64,4.57l-2.64,4.57h-5.71l-2.64-4.57l2.64-4.57H339.06z
			 M339.06,437.09l2.64,4.57l-2.64,4.57h-5.71l-2.64-4.57l2.64-4.57H339.06z M333.36,447.43h5.71l2.64,4.57l-2.64,4.57h-5.71
			l-2.64-4.57L333.36,447.43z M339.06,457.77l2.64,4.57l-2.64,4.57h-5.71l-2.64-4.57l2.64-4.57H339.06z M339.06,468.1l2.64,4.57
			l-2.64,4.57h-5.71l-2.64-4.57l2.64-4.57H339.06z M339.06,478.44l2.64,4.57l-2.64,4.57h-5.71l-2.64-4.57l2.64-4.57H339.06z
			 M339.06,488.78l2.64,4.57l-2.64,4.57h-5.71l-2.64-4.57l2.64-4.57H339.06z M332.53,498.52l-2.64,4.57h-5.71l-2.64-4.57l2.64-4.57
			h5.71L332.53,498.52z M329.89,504.28l2.64,4.57l-2.64,4.57h-5.71l-2.64-4.57l2.64-4.57H329.89z M329.89,514.62l2.64,4.57
			l-2.64,4.57h-5.71l-2.64-4.57l2.64-4.57H329.89z M329.89,524.96l2.64,4.57l-2.64,4.57h-5.71l-2.64-4.57l2.64-4.57H329.89z
			 M329.89,535.3l2.64,4.57l-2.64,4.57h-5.71l-2.64-4.57l2.64-4.57H329.89z M329.89,545.63l2.64,4.57l-2.64,4.57h-5.71l-2.64-4.57
			l2.64-4.57H329.89z M330.71,545.04l2.64-4.57h5.71l2.64,4.57l-2.64,4.57h-5.71L330.71,545.04z M342.53,545.63h5.71l2.64,4.57
			l-2.64,4.57h-5.71l-2.64-4.57L342.53,545.63z M349.06,545.04l2.64-4.57h5.71l2.64,4.57l-2.64,4.57h-5.71L349.06,545.04z
			 M358.24,539.87l2.64-4.57h5.71l2.64,4.57l-2.64,4.57h-5.71L358.24,539.87z M370.06,540.46h5.71l2.64,4.57l-2.64,4.57h-5.71
			l-2.64-4.57L370.06,540.46z M370.06,539.27l-2.64-4.57l2.64-4.57h5.71l2.64,4.57l-2.64,4.57H370.06z M370.06,528.93l-2.64-4.57
			l2.64-4.57h5.71l2.64,4.57l-2.64,4.57H370.06z M370.06,518.6l-2.64-4.57l2.64-4.57h5.71l2.64,4.57l-2.64,4.57H370.06z
			 M370.06,508.26l-2.64-4.57l2.64-4.57h5.71l2.64,4.57l-2.64,4.57H370.06z M370.06,497.92l-2.64-4.57l2.64-4.57h5.71l2.64,4.57
			l-2.64,4.57H370.06z M370.06,487.59l-2.64-4.57l2.64-4.57h5.71l2.64,4.57l-2.64,4.57H370.06z M370.06,477.25l-2.64-4.57l2.64-4.57
			h5.71l2.64,4.57l-2.64,4.57H370.06z M370.06,466.91l-2.64-4.57l2.64-4.57h5.71l2.64,4.57l-2.64,4.57H370.06z M370.06,456.57
			l-2.64-4.57l2.64-4.57h5.71l2.64,4.57l-2.64,4.57H370.06z M370.06,446.24l-2.64-4.57l2.64-4.57h5.71l2.64,4.57l-2.64,4.57H370.06z
			 M370.06,435.9l-2.64-4.57l2.64-4.57h5.71l2.64,4.57l-2.64,4.57H370.06z M370.06,425.56l-2.64-4.57l2.64-4.57h5.71l2.64,4.57
			l-2.64,4.57H370.06z M370.06,415.22l-2.64-4.57l2.64-4.57h5.71l2.64,4.57l-2.64,4.57H370.06z M370.06,404.89l-2.64-4.57l2.64-4.57
			h5.71l2.64,4.57l-2.64,4.57H370.06z M370.06,394.55l-2.64-4.57l2.64-4.57h5.71l2.64,4.57l-2.64,4.57H370.06z M370.06,384.21
			l-2.64-4.57l2.64-4.57h5.71l2.64,4.57l-2.64,4.57H370.06z M370.06,373.88l-2.64-4.57l2.64-4.57h5.71l2.64,4.57l-2.64,4.57H370.06z
			 M370.06,363.54l-2.64-4.57l2.64-4.57h5.71l2.64,4.57l-2.64,4.57H370.06z M370.06,353.2l-2.64-4.57l2.64-4.57h5.71l2.64,4.57
			l-2.64,4.57H370.06z M370.06,342.86l-2.64-4.57l2.64-4.57h5.71l2.64,4.57l-2.64,4.57H370.06z M370.06,332.53l-2.64-4.57l2.64-4.57
			h5.71l2.64,4.57l-2.64,4.57H370.06z M370.06,322.19l-2.64-4.57l2.64-4.57h5.71l2.64,4.57l-2.64,4.57H370.06z M370.06,311.85
			l-2.64-4.57l2.64-4.57h5.71l2.64,4.57l-2.64,4.57H370.06z M370.06,301.51l-2.64-4.57l2.64-4.57h5.71l2.64,4.57l-2.64,4.57H370.06z
			 M370.06,291.18l-2.64-4.57l2.64-4.57h5.71l2.64,4.57l-2.64,4.57H370.06z M370.06,280.84l-2.64-4.57l2.64-4.57h5.71l2.64,4.57
			l-2.64,4.57H370.06z M370.06,270.5l-2.64-4.57l2.64-4.57h5.71l2.64,4.57l-2.64,4.57H370.06z M375.77,260.17h-5.71l-2.64-4.57
			l2.64-4.57h5.71l2.64,4.57L375.77,260.17z M370.06,249.83l-2.64-4.57l2.64-4.57h5.71l2.64,4.57l-2.64,4.57H370.06z M369.24,240.09
			l-2.64,4.57h-5.71l-2.64-4.57l2.64-4.57h5.71L369.24,240.09z M360.06,245.26l-2.64,4.57h-5.71l-2.64-4.57l2.64-4.57h5.71
			L360.06,245.26z M357.42,251.02l2.64,4.57l-2.64,4.57h-5.71l-2.64-4.57l2.64-4.57H357.42z M350.88,260.76l-2.64,4.57h-5.71
			l-2.64-4.57l2.64-4.57h5.71L350.88,260.76z M348.24,266.53l2.64,4.57l-2.64,4.57h-5.71l-2.64-4.57l2.64-4.57H348.24z
			 M348.24,276.86l2.64,4.57l-2.64,4.57h-5.71l-2.64-4.57l2.64-4.57H348.24z M348.24,287.2l2.64,4.57l-2.64,4.57h-5.71l-2.64-4.57
			l2.64-4.57H348.24z M348.24,297.54l2.64,4.57l-2.64,4.57h-5.71l-2.64-4.57l2.64-4.57H348.24z M348.24,307.88l2.64,4.57l-2.64,4.57
			h-5.71l-2.64-4.57l2.64-4.57H348.24z M348.24,318.21l2.64,4.57l-2.64,4.57h-5.71l-2.64-4.57l2.64-4.57H348.24z M348.24,328.55
			l2.64,4.57l-2.64,4.57h-5.71l-2.64-4.57l2.64-4.57H348.24z M341.71,338.29l-2.64,4.57h-5.71l-2.64-4.57l2.64-4.57h5.71
			L341.71,338.29z M339.06,344.06l2.64,4.57l-2.64,4.57h-5.71l-2.64-4.57l2.64-4.57H339.06z M339.06,354.39l2.64,4.57l-2.64,4.57
			h-5.71l-2.64-4.57l2.64-4.57H339.06z M339.06,364.73l2.64,4.57l-2.64,4.57h-5.71l-2.64-4.57l2.64-4.57H339.06z M339.06,375.07
			l2.64,4.57l-2.64,4.57h-5.71l-2.64-4.57l2.64-4.57H339.06z M339.06,385.41l2.64,4.57l-2.64,4.57h-5.71l-2.64-4.57l2.64-4.57
			H339.06z M339.06,395.74l2.64,4.57l-2.64,4.57h-5.71l-2.64-4.57l2.64-4.57H339.06z M339.06,406.08l2.64,4.57l-2.64,4.57h-5.71
			l-2.64-4.57l2.64-4.57H339.06z M332.53,415.82l-2.64,4.57h-5.71l-2.64-4.57l2.64-4.57h5.71L332.53,415.82z M329.89,421.59
			l2.64,4.57l-2.64,4.57h-5.71l-2.64-4.57l2.64-4.57H329.89z M329.89,431.92l2.64,4.57l-2.64,4.57h-5.71l-2.64-4.57l2.64-4.57
			H329.89z M329.89,442.26l2.64,4.57l-2.64,4.57h-5.71l-2.64-4.57l2.64-4.57H329.89z M329.89,452.6l2.64,4.57l-2.64,4.57h-5.71
			l-2.64-4.57l2.64-4.57H329.89z M329.89,462.93l2.64,4.57l-2.64,4.57h-5.71l-2.64-4.57l2.64-4.57H329.89z M329.89,473.27l2.64,4.57
			l-2.64,4.57h-5.71l-2.64-4.57l2.64-4.57H329.89z M329.89,483.61l2.64,4.57l-2.64,4.57h-5.71l-2.64-4.57l2.64-4.57H329.89z
			 M323.35,493.35l-2.64,4.57H315l-2.64-4.57l2.64-4.57h5.71L323.35,493.35z M320.71,499.12l2.64,4.57l-2.64,4.57H315l-2.64-4.57
			l2.64-4.57H320.71z M320.71,509.45l2.64,4.57l-2.64,4.57H315l-2.64-4.57l2.64-4.57H320.71z M320.71,519.79l2.64,4.57l-2.64,4.57
			H315l-2.64-4.57l2.64-4.57H320.71z M320.71,530.13l2.64,4.57l-2.64,4.57H315l-2.64-4.57l2.64-4.57H320.71z M320.71,540.46
			l2.64,4.57l-2.64,4.57H315l-2.64-4.57l2.64-4.57H320.71z M329.89,565.12h-5.71l-2.64-4.57l2.64-4.57h5.71l2.64,4.57L329.89,565.12
			z M333.35,559.95l-2.64-4.57l2.64-4.57h5.71l2.64,4.57l-2.64,4.57H333.35z M348.24,565.12h-5.71l-2.64-4.57l2.64-4.57h5.71
			l2.64,4.57L348.24,565.12z M357.42,559.95h-5.71l-2.64-4.57l2.64-4.57h5.71l2.64,4.57L357.42,559.95z M360.88,554.78l-2.64-4.57
			l2.64-4.57h5.71l2.64,4.57l-2.64,4.57H360.88z M375.77,559.95h-5.71l-2.64-4.57l2.64-4.57h5.71l2.64,4.57L375.77,559.95z
			 M387.59,550.21l-2.64,4.57h-5.71l-2.64-4.57l2.64-4.57h5.71L387.59,550.21z M387.59,539.87l-2.64,4.57h-5.71l-2.64-4.57
			l2.64-4.57h5.71L387.59,539.87z M387.59,529.53l-2.64,4.57h-5.71l-2.64-4.57l2.64-4.57h5.71L387.59,529.53z M387.59,519.19
			l-2.64,4.57h-5.71l-2.64-4.57l2.64-4.57h5.71L387.59,519.19z M387.59,508.86l-2.64,4.57h-5.71l-2.64-4.57l2.64-4.57h5.71
			L387.59,508.86z M387.59,498.52l-2.64,4.57h-5.71l-2.64-4.57l2.64-4.57h5.71L387.59,498.52z M387.59,488.18l-2.64,4.57h-5.71
			l-2.64-4.57l2.64-4.57h5.71L387.59,488.18z M387.59,477.84l-2.64,4.57h-5.71l-2.64-4.57l2.64-4.57h5.71L387.59,477.84z
			 M387.59,467.51l-2.64,4.57h-5.71l-2.64-4.57l2.64-4.57h5.71L387.59,467.51z M387.59,457.17l-2.64,4.57h-5.71l-2.64-4.57
			l2.64-4.57h5.71L387.59,457.17z M387.59,446.83l-2.64,4.57h-5.71l-2.64-4.57l2.64-4.57h5.71L387.59,446.83z M387.59,436.5
			l-2.64,4.57h-5.71l-2.64-4.57l2.64-4.57h5.71L387.59,436.5z M387.59,426.16l-2.64,4.57h-5.71l-2.64-4.57l2.64-4.57h5.71
			L387.59,426.16z M387.59,415.82l-2.64,4.57h-5.71l-2.64-4.57l2.64-4.57h5.71L387.59,415.82z M387.59,405.48l-2.64,4.57h-5.71
			l-2.64-4.57l2.64-4.57h5.71L387.59,405.48z M387.59,395.15l-2.64,4.57h-5.71l-2.64-4.57l2.64-4.57h5.71L387.59,395.15z
			 M387.59,384.81l-2.64,4.57h-5.71l-2.64-4.57l2.64-4.57h5.71L387.59,384.81z M387.59,374.47l-2.64,4.57h-5.71l-2.64-4.57
			l2.64-4.57h5.71L387.59,374.47z M387.59,364.14l-2.64,4.57h-5.71l-2.64-4.57l2.64-4.57h5.71L387.59,364.14z M387.59,353.8
			l-2.64,4.57h-5.71l-2.64-4.57l2.64-4.57h5.71L387.59,353.8z M387.59,343.46l-2.64,4.57h-5.71l-2.64-4.57l2.64-4.57h5.71
			L387.59,343.46z M387.59,333.12l-2.64,4.57h-5.71l-2.64-4.57l2.64-4.57h5.71L387.59,333.12z M387.59,322.79l-2.64,4.57h-5.71
			l-2.64-4.57l2.64-4.57h5.71L387.59,322.79z M387.59,312.45l-2.64,4.57h-5.71l-2.64-4.57l2.64-4.57h5.71L387.59,312.45z
			 M387.59,302.11l-2.64,4.57h-5.71l-2.64-4.57l2.64-4.57h5.71L387.59,302.11z M387.59,291.77l-2.64,4.57h-5.71l-2.64-4.57
			l2.64-4.57h5.71L387.59,291.77z M387.59,281.44l-2.64,4.57h-5.71l-2.64-4.57l2.64-4.57h5.71L387.59,281.44z M387.59,271.1
			l-2.64,4.57h-5.71l-2.64-4.57l2.64-4.57h5.71L387.59,271.1z M387.59,260.76l-2.64,4.57h-5.71l-2.64-4.57l2.64-4.57h5.71
			L387.59,260.76z M387.59,250.42l-2.64,4.57h-5.71l-2.64-4.57l2.64-4.57h5.71L387.59,250.42z M387.59,240.09l-2.64,4.57h-5.71
			l-2.64-4.57l2.64-4.57h5.71L387.59,240.09z M387.59,229.75l-2.64,4.57h-5.71l-2.64-4.57l2.64-4.57h5.71L387.59,229.75z
			 M387.59,219.41l-2.64,4.57h-5.71l-2.64-4.57l2.64-4.57h5.71L387.59,219.41z M379.24,204.5h5.71l2.64,4.57l-2.64,4.57h-5.71
			l-2.64-4.57L379.24,204.5z M370.06,209.67h5.71l2.64,4.57l-2.64,4.57h-5.71l-2.64-4.57L370.06,209.67z M358.24,219.41l2.64-4.57
			h5.71l2.64,4.57l-2.64,4.57h-5.71L358.24,219.41z M360.88,225.18h5.71l2.64,4.57l-2.64,4.57h-5.71l-2.64-4.57L360.88,225.18z
			 M351.71,230.35h5.71l2.64,4.57l-2.64,4.57h-5.71l-2.64-4.57L351.71,230.35z M339.89,240.09l2.64-4.57h5.71l2.64,4.57l-2.64,4.57
			h-5.71L339.89,240.09z M342.53,245.85h5.71l2.64,4.57l-2.64,4.57h-5.71l-2.64-4.57L342.53,245.85z M330.71,255.59l2.64-4.57h5.71
			l2.64,4.57l-2.64,4.57h-5.71L330.71,255.59z M330.71,265.93l2.64-4.57h5.71l2.64,4.57l-2.64,4.57h-5.71L330.71,265.93z
			 M330.71,276.27l2.64-4.57h5.71l2.64,4.57l-2.64,4.57h-5.71L330.71,276.27z M330.71,286.61l2.64-4.57h5.71l2.64,4.57l-2.64,4.57
			h-5.71L330.71,286.61z M330.71,296.94l2.64-4.57h5.71l2.64,4.57l-2.64,4.57h-5.71L330.71,296.94z M330.71,307.28l2.64-4.57h5.71
			l2.64,4.57l-2.64,4.57h-5.71L330.71,307.28z M330.71,317.62l2.64-4.57h5.71l2.64,4.57l-2.64,4.57h-5.71L330.71,317.62z
			 M333.35,323.38h5.71l2.64,4.57l-2.64,4.57h-5.71l-2.64-4.57L333.35,323.38z M321.54,333.12l2.64-4.57h5.71l2.64,4.57l-2.64,4.57
			h-5.71L321.54,333.12z M321.54,343.46l2.64-4.57h5.71l2.64,4.57l-2.64,4.57h-5.71L321.54,343.46z M321.54,353.8l2.64-4.57h5.71
			l2.64,4.57l-2.64,4.57h-5.71L321.54,353.8z M321.54,364.14l2.64-4.57h5.71l2.64,4.57l-2.64,4.57h-5.71L321.54,364.14z
			 M321.54,374.47l2.64-4.57h5.71l2.64,4.57l-2.64,4.57h-5.71L321.54,374.47z M321.54,384.81l2.64-4.57h5.71l2.64,4.57l-2.64,4.57
			h-5.71L321.54,384.81z M321.54,395.15l2.64-4.57h5.71l2.64,4.57l-2.64,4.57h-5.71L321.54,395.15z M324.18,400.91h5.71l2.64,4.57
			l-2.64,4.57h-5.71l-2.64-4.57L324.18,400.91z M312.36,410.65l2.64-4.57h5.71l2.64,4.57l-2.64,4.57H315L312.36,410.65z
			 M312.36,420.99l2.64-4.57h5.71l2.64,4.57l-2.64,4.57H315L312.36,420.99z M312.36,431.33l2.64-4.57h5.71l2.64,4.57l-2.64,4.57H315
			L312.36,431.33z M312.36,441.66l2.64-4.57h5.71l2.64,4.57l-2.64,4.57H315L312.36,441.66z M312.36,452l2.64-4.57h5.71l2.64,4.57
			l-2.64,4.57H315L312.36,452z M312.36,462.34l2.64-4.57h5.71l2.64,4.57l-2.64,4.57H315L312.36,462.34z M312.36,472.68l2.64-4.57
			h5.71l2.64,4.57l-2.64,4.57H315L312.36,472.68z M315,478.44h5.71l2.64,4.57l-2.64,4.57H315l-2.64-4.57L315,478.44z M303.18,488.18
			l2.64-4.57h5.71l2.64,4.57l-2.64,4.57h-5.71L303.18,488.18z M303.18,498.52l2.64-4.57h5.71l2.64,4.57l-2.64,4.57h-5.71
			L303.18,498.52z M303.18,508.86l2.64-4.57h5.71l2.64,4.57l-2.64,4.57h-5.71L303.18,508.86z M303.18,519.19l2.64-4.57h5.71
			l2.64,4.57l-2.64,4.57h-5.71L303.18,519.19z M303.18,529.53l2.64-4.57h5.71l2.64,4.57l-2.64,4.57h-5.71L303.18,529.53z
			 M303.18,539.87l2.64-4.57h5.71l2.64,4.57l-2.64,4.57h-5.71L303.18,539.87z M303.18,550.21l2.64-4.57h5.71l2.64,4.57l-2.64,4.57
			h-5.71L303.18,550.21z M305.83,555.97h5.71l2.64,4.57l-2.64,4.57h-5.71l-2.64-4.57L305.83,555.97z M294.01,565.71l2.64-4.57h5.71
			l2.64,4.57l-2.64,4.57h-5.71L294.01,565.71z"/>
	</g>
	<g>
		<linearGradient id="SVGID_2_" gradientUnits="userSpaceOnUse" x1="149.5836" y1="175.3746" x2="149.5836" y2="552.6002">
			<stop class="Gradient1 stopColor" offset="0" style="stop-color:#EDEDED;stop-opacity:0"/>
			<stop class="Gradient2 stopColor" offset="1" style="stop-color:#0F0F0F"/>
		</linearGradient>
		<path class="st1" d="M199.38,571.19l-0.18-0.31l2.38-4.11l-0.31-2.65l-2.07-3.57l1.37-2.37l-0.2-1.68l-1.99,3.45h-5.71l-2.64-4.57
			l2.64-4.57h5.71l1.66,2.88l-0.3-2.54l-0.54-0.94l0.36-0.62l-0.2-1.68l-0.99,1.71h-5.71l-2.64-4.57l2.64-4.57h5.71l0.14,0.25
			l-0.17-1.44h-5.68l-2.64-4.57l2.64-4.57h4.61l-0.14-1.19h-4.47l-2.64-4.57l2.64-4.57h3.4l-0.14-1.19h-3.26l-2.64-4.57l2.64-4.57
			h2.18l-0.14-1.19h-2.04l-2.64-4.57l2.64-4.57h0.97l-0.14-1.19h-0.83l-2.64-4.57l2.44-4.22l-0.28-2.37l-2.16-3.74l1.43-2.48
			l-0.2-1.68l-2.06,3.56h-5.71l-2.64-4.57l2.64-4.57h5.71l1.76,3.05l-0.3-2.54l-0.64-1.11l0.43-0.74l-0.2-1.68l-1.05,1.82h-5.71
			l-2.64-4.57l2.64-4.57h5.71l0.24,0.42l-0.2-1.69l-0.04,0.08h-5.71l-2.64-4.57l2.64-4.57h4.69l-0.14-1.19h-4.55l-2.64-4.57
			l2.64-4.57h3.48l-0.14-1.19h-3.34l-2.64-4.57l2.64-4.57h2.26l-0.14-1.19h-2.12l-2.64-4.57l2.64-4.57h1.05l-0.14-1.19h-0.91
			l-2.64-4.57l2.51-4.34l-0.24-2.08l-2.26-3.91l1.5-2.59l-0.2-1.68l-2.13,3.68h-5.71l-2.64-4.57l2.64-4.57h5.71l1.86,3.22l-0.3-2.54
			l-0.74-1.28l0.49-0.85l-0.2-1.68l-1.12,1.93h-5.71l-2.64-4.57l2.64-4.57h5.71l0.34,0.59l-0.23-1.97l-0.11,0.19h-5.71l-2.64-4.57
			l2.64-4.57h4.77l-0.14-1.19h-4.63l-2.64-4.57l2.64-4.57h3.56l-0.14-1.19h-3.42l-2.64-4.57l2.64-4.57h2.34l-0.14-1.19h-2.2
			l-2.64-4.57l2.64-4.57h1.13l-0.14-1.19h-0.99l-2.64-4.57l2.57-4.45l-0.21-1.8l-2.36-4.09l1.57-2.71l-0.2-1.68l-2.19,3.79h-5.71
			l-2.64-4.57l2.64-4.57h5.71l1.96,3.39l-0.3-2.54l-0.84-1.45l0.56-0.96l-0.2-1.68l-1.18,2.05h-5.71l-2.64-4.57l2.64-4.57h5.71
			l0.44,0.76l-0.27-2.26l-0.18,0.3h-5.71l-2.64-4.57l2.64-4.57h4.85l-0.14-1.19h-4.71l-2.64-4.57l2.64-4.57h3.63l-0.14-1.19h-3.49
			l-2.64-4.57l2.64-4.57h2.42l-0.14-1.19h-2.28l-2.64-4.57l2.64-4.57h1.21l-0.14-1.19h-1.07l-2.64-4.57l2.64-4.57l-0.18-1.51
			l-2.46-4.26l1.63-2.82l-0.2-1.68l-2.26,3.91h-5.71l-2.64-4.57l2.64-4.57h5.71l2.06,3.57l-0.3-2.54l-0.94-1.63l0.62-1.08
			l-0.05-0.46l-0.56-0.5l-0.84,1.45h-5.71l-2.64-4.57l1.98-3.43l-0.77-0.7l-2.04,3.53h-5.71l-2.64-4.57l2.64-4.57h1.58l-1.31-1.19
			h-0.26l-0.29-0.5l-2.46-2.24l1.93,3.34l-2.64,4.57h-5.71l-2.64-4.57l2.64-4.57h5.07l-1.31-1.19h-3.76l-2.64-4.57l0.47-0.82
			l-0.77-0.7l-0.53,0.92h-5.71l-2.64-4.57l1.68-2.9l-0.77-0.7l-1.73,3h-5.71l-2.64-4.57l2.64-4.57h0.68l-2.45-2.23l0.94,1.63
			l-2.64,4.57h-5.71l-2.64-4.57l2.64-4.57h4.18l-1.31-1.19h-2.86l-2.64-4.57l0.17-0.29l-0.77-0.7l-0.22,0.39h-5.71l-2.64-4.57
			l1.37-2.37l-0.77-0.7l-1.27,2.2c0.08,0.72,0.17,1.43,0.25,2.16l2.24,3.87l-1.6,2.76c0.05,0.59,0.09,1.19,0.14,1.78l2.28-3.95h5.71
			l2.64,4.57l-2.64,4.57h-5.71l-2.18-3.77c0.06,0.77,0.11,1.53,0.16,2.3l1.19,2.06l-0.98,1.69c0.03,0.62,0.06,1.24,0.09,1.87
			l1.71-2.96h5.71l2.64,4.57l-2.64,4.57h-5.71l-1.52-2.64c0.04,0.51,0.09,1.28,0.16,2.3l0.54,0.93l-0.42,0.74
			c0.04,0.56,0.08,1.16,0.12,1.81l1.13-1.95h5.71l2.64,4.57l-2.64,4.57h-5.71l-0.75-1.29c0.07,1.07,0.14,2.21,0.21,3.41l0.53-0.92
			h5.71l2.64,4.57l-2.64,4.57h-5.71l-0.05-0.08c0.02,0.42,0.05,0.85,0.07,1.28h5.68l2.64,4.57l-2.64,4.57h-5.18
			c0.02,0.39,0.04,0.79,0.06,1.19h5.11l2.64,4.57l-2.64,4.57h-4.64c0.02,0.4,0.04,0.79,0.06,1.19h4.58l2.64,4.57l-2.64,4.57h-4.13
			c0.02,0.4,0.04,0.79,0.06,1.19h4.08l2.64,4.57l-2.64,4.57h-3.67c0.02,0.4,0.03,0.79,0.05,1.19h3.62l2.64,4.57l-2.64,4.57h-3.24
			c0.02,0.4,0.03,0.79,0.05,1.19h3.19l2.64,4.57l-2.64,4.57h-2.84c0.01,0.4,0.03,0.8,0.04,1.19h2.8l2.64,4.57l-2.64,4.57h-2.48
			c0.01,0.4,0.03,0.79,0.04,1.19h2.44l2.64,4.57l-2.64,4.57h-2.16c0.01,0.4,0.02,0.79,0.04,1.19h2.12l2.64,4.57l-2.64,4.57h-1.87
			c0.01,0.4,0.02,0.8,0.03,1.19h1.84l2.64,4.57l-2.64,4.57H105c0.01,0.4,0.02,0.79,0.03,1.19h1.59l2.64,4.57l-2.64,4.57h-1.4
			c0.01,0.4,0.02,0.79,0.02,1.19h1.37l2.64,4.57l-2.64,4.57h-1.22c0.01,0.4,0.01,0.79,0.02,1.19h1.2l2.64,4.57l-2.64,4.57h-1.08
			c0,0.4,0.01,0.79,0.01,1.19h1.06l2.64,4.57l-2.64,4.57h-0.97c0,0.4,0.01,0.79,0.01,1.19h0.96l2.64,4.57l-2.64,4.57h-0.91
			c0,0.4,0,0.79,0.01,1.19h0.9l2.64,4.57l-2.64,4.57h-0.89c0,0.4,0,0.8,0,1.19h0.89l2.64,4.57l-2.64,4.57h-0.91
			c0,0.4,0,0.8-0.01,1.19h0.92l2.64,4.57l-2.64,4.57h-0.97c0,0.4-0.01,0.8-0.01,1.19h0.99l2.64,4.57l-2.64,4.57h-1.09
			c-0.01,0.4-0.01,0.8-0.02,1.19h1.1l2.64,4.57l-2.64,4.57h-1.25c-0.01,0.4-0.01,0.8-0.02,1.19h1.27l2.64,4.57l-2.64,4.57h-1.46
			c-0.01,0.4-0.02,0.79-0.03,1.19h1.49l2.64,4.57l-2.64,4.57h-1.72c-0.01,0.4-0.02,0.8-0.03,1.19h1.75l2.64,4.57l-2.64,4.57h-2.04
			c-0.01,0.4-0.03,0.8-0.04,1.19h2.08l2.64,4.57l-2.64,4.57h-2.41c-0.02,0.4-0.03,0.8-0.05,1.19h2.46l2.64,4.57l-2.64,4.57h-2.85
			c-0.02,0.4-0.04,0.8-0.05,1.19h2.9l2.64,4.57l-2.64,4.57h-3.35c-0.02,0.4-0.04,0.8-0.06,1.19h3.41l2.64,4.57l-2.64,4.57h-3.92
			c-0.02,0.4-0.05,0.8-0.07,1.19h3.99l2.64,4.57l-2.64,4.57h-4.56c-0.03,0.4-0.05,0.8-0.08,1.19h4.63l2.64,4.57l-2.64,4.57h-5.27
			c-0.03,0.4-0.06,0.8-0.09,1.19h5.36l2.64,4.57l-2.64,4.57h-5.71l-0.32-0.55c-0.07,0.89-0.15,1.79-0.22,2.68l0.54-0.93h5.71
			l2.64,4.57l-2.64,4.57h-5.71l-1.09-1.88c-0.05,0.58-0.1,1.17-0.16,1.75l0.42,0.72l-0.57,0.99c-0.06,0.65-0.12,1.31-0.18,1.96
			c0,0,0.05,0.04,0.16,0.1l1.42-2.45h5.71l2.64,4.57l-0.9,1.55c0.32,0.1,0.65,0.21,0.98,0.32l0.74-1.28h5.71l2.15,3.71
			c1.86,0.47,3.89,0.96,6.1,1.45h0.93l0.14,0.24c0.44,0.1,0.88,0.19,1.34,0.29l-0.65-1.12l2.64-4.57h5.71l2.64,4.57l-1.65,2.85
			c0.35,0.06,0.7,0.13,1.06,0.19l1.41-2.45h5.71l2.33,4.04c2.55,0.4,5.23,0.8,8.05,1.19l-0.38-0.66l2.64-4.57h5.71l2.64,4.57
			l-1.1,1.91c0.36,0.04,0.73,0.09,1.09,0.13l0.84-1.44h5.71l1.36,2.36c0.42,0.05,0.83,0.09,1.25,0.14l-1.79-3.09l2.64-4.57h5.71
			l2.64,4.57l-2.2,3.81c0.37,0.04,0.74,0.07,1.11,0.11l1.92-3.32h5.71l2.46,4.25C194.16,570.77,196.74,570.98,199.38,571.19z
			 M174.32,559.95l-2.64-4.57l2.64-4.57h5.71l2.64,4.57l-2.64,4.57H174.32z M124.97,230.35l2.64,4.57l-2.64,4.57h-5.71l-2.64-4.57
			l2.64-4.57H124.97z M124.97,229.15h-5.71l-2.64-4.57l2.64-4.57h5.71l2.64,4.57L124.97,229.15z M134.14,256.19l2.64,4.57
			l-2.64,4.57h-5.71l-2.64-4.57l2.64-4.57H134.14z M134.14,255h-5.71l-2.64-4.57l2.64-4.57h5.71l2.64,4.57L134.14,255z
			 M143.32,354.39l2.64,4.57l-2.64,4.57h-5.71l-2.64-4.57l2.64-4.57H143.32z M143.32,353.2h-5.71l-2.64-4.57l2.64-4.57h5.71
			l2.64,4.57L143.32,353.2z M143.32,364.73l2.64,4.57l-2.64,4.57h-5.71l-2.64-4.57l2.64-4.57H143.32z M143.32,375.07l2.64,4.57
			l-2.64,4.57h-5.71l-2.64-4.57l2.64-4.57H143.32z M143.32,385.41l2.64,4.57l-2.64,4.57h-5.71l-2.64-4.57l2.64-4.57H143.32z
			 M143.32,395.74l2.64,4.57l-2.64,4.57h-5.71l-2.64-4.57l2.64-4.57H143.32z M143.32,406.08l2.64,4.57l-2.64,4.57h-5.71l-2.64-4.57
			l2.64-4.57H143.32z M143.32,416.42l2.64,4.57l-2.64,4.57h-5.71l-2.64-4.57l2.64-4.57H143.32z M152.5,514.62l2.64,4.57l-2.64,4.57
			h-5.71l-2.64-4.57l2.64-4.57H152.5z M152.5,513.43h-5.71l-2.64-4.57l2.64-4.57h5.71l2.64,4.57L152.5,513.43z M152.5,524.96
			l2.64,4.57l-2.64,4.57h-5.71l-2.64-4.57l2.64-4.57H152.5z M143.32,528.93h-5.71l-2.64-4.57l2.64-4.57h5.71l2.64,4.57
			L143.32,528.93z M137.61,518.6l-2.64-4.57l2.64-4.57h5.71l2.64,4.57l-2.64,4.57H137.61z M137.61,508.26l-2.64-4.57l2.64-4.57h5.71
			l2.64,4.57l-2.64,4.57H137.61z M137.61,497.92l-2.64-4.57l2.64-4.57h5.71l2.64,4.57l-2.64,4.57H137.61z M137.61,487.59l-2.64-4.57
			l2.64-4.57h5.71l2.64,4.57l-2.64,4.57H137.61z M137.61,477.25l-2.64-4.57l2.64-4.57h5.71l2.64,4.57l-2.64,4.57H137.61z
			 M137.61,466.91l-2.64-4.57l2.64-4.57h5.71l2.64,4.57l-2.64,4.57H137.61z M137.61,456.57l-2.64-4.57l2.64-4.57h5.71l2.64,4.57
			l-2.64,4.57H137.61z M137.61,446.24l-2.64-4.57l2.64-4.57h5.71l2.64,4.57l-2.64,4.57H137.61z M137.61,435.9l-2.64-4.57l2.64-4.57
			h5.71l2.64,4.57l-2.64,4.57H137.61z M146.79,421.59h5.71l2.64,4.57l-2.64,4.57h-5.71l-2.64-4.57L146.79,421.59z M152.5,431.92
			l2.64,4.57l-2.64,4.57h-5.71l-2.64-4.57l2.64-4.57H152.5z M152.5,442.26l2.64,4.57l-2.64,4.57h-5.71l-2.64-4.57l2.64-4.57H152.5z
			 M152.5,452.6l2.64,4.57l-2.64,4.57h-5.71l-2.64-4.57l2.64-4.57H152.5z M152.5,462.93l2.64,4.57l-2.64,4.57h-5.71l-2.64-4.57
			l2.64-4.57H152.5z M152.5,473.27l2.64,4.57l-2.64,4.57h-5.71l-2.64-4.57l2.64-4.57H152.5z M152.5,483.61l2.64,4.57l-2.64,4.57
			h-5.71l-2.64-4.57l2.64-4.57H152.5z M152.5,493.95l2.64,4.57l-2.64,4.57h-5.71l-2.64-4.57l2.64-4.57H152.5z M155.96,499.12h5.71
			l2.64,4.57l-2.64,4.57h-5.71l-2.64-4.57L155.96,499.12z M161.67,509.45l2.64,4.57l-2.64,4.57h-5.71l-2.64-4.57l2.64-4.57H161.67z
			 M161.67,519.79l2.64,4.57l-2.64,4.57h-5.71l-2.64-4.57l2.64-4.57H161.67z M161.67,530.13l2.64,4.57l-2.64,4.57h-5.71l-2.64-4.57
			l2.64-4.57H161.67z M155.14,539.87l-2.64,4.57h-5.71l-2.64-4.57l2.64-4.57h5.71L155.14,539.87z M143.32,539.27h-5.71l-2.64-4.57
			l2.64-4.57h5.71l2.64,4.57L143.32,539.27z M134.14,534.1h-5.71l-2.64-4.57l2.64-4.57h5.71l2.64,4.57L134.14,534.1z M128.43,523.77
			l-2.64-4.57l2.64-4.57h5.71l2.64,4.57l-2.64,4.57H128.43z M125.79,508.86l2.64-4.57h5.71l2.64,4.57l-2.64,4.57h-5.71
			L125.79,508.86z M128.43,503.09l-2.64-4.57l2.64-4.57h5.71l2.64,4.57l-2.64,4.57H128.43z M128.43,492.75l-2.64-4.57l2.64-4.57
			h5.71l2.64,4.57l-2.64,4.57H128.43z M128.43,482.42l-2.64-4.57l2.64-4.57h5.71l2.64,4.57l-2.64,4.57H128.43z M128.43,472.08
			l-2.64-4.57l2.64-4.57h5.71l2.64,4.57l-2.64,4.57H128.43z M128.43,461.74l-2.64-4.57l2.64-4.57h5.71l2.64,4.57l-2.64,4.57H128.43z
			 M128.43,451.41l-2.64-4.57l2.64-4.57h5.71l2.64,4.57l-2.64,4.57H128.43z M128.43,441.07l-2.64-4.57l2.64-4.57h5.71l2.64,4.57
			l-2.64,4.57H128.43z M128.43,430.73l-2.64-4.57l2.64-4.57h5.71l2.64,4.57l-2.64,4.57H128.43z M128.43,420.39l-2.64-4.57l2.64-4.57
			h5.71l2.64,4.57l-2.64,4.57H128.43z M128.43,410.06l-2.64-4.57l2.64-4.57h5.71l2.64,4.57l-2.64,4.57H128.43z M128.43,399.72
			l-2.64-4.57l2.64-4.57h5.71l2.64,4.57l-2.64,4.57H128.43z M128.43,389.38l-2.64-4.57l2.64-4.57h5.71l2.64,4.57l-2.64,4.57H128.43z
			 M128.43,379.04l-2.64-4.57l2.64-4.57h5.71l2.64,4.57l-2.64,4.57H128.43z M128.43,368.71l-2.64-4.57l2.64-4.57h5.71l2.64,4.57
			l-2.64,4.57H128.43z M128.43,358.37l-2.64-4.57l2.64-4.57h5.71l2.64,4.57l-2.64,4.57H128.43z M128.43,348.03l-2.64-4.57l2.64-4.57
			h5.71l2.64,4.57l-2.64,4.57H128.43z M128.43,337.69l-2.64-4.57l2.64-4.57h5.71l2.64,4.57l-2.64,4.57H128.43z M125.79,322.79
			l2.64-4.57h5.71l2.64,4.57l-2.64,4.57h-5.71L125.79,322.79z M128.43,317.02l-2.64-4.57l2.64-4.57h5.71l2.64,4.57l-2.64,4.57
			H128.43z M128.43,306.68l-2.64-4.57l2.64-4.57h5.71l2.64,4.57l-2.64,4.57H128.43z M128.43,296.35l-2.64-4.57l2.64-4.57h5.71
			l2.64,4.57l-2.64,4.57H128.43z M128.43,286.01l-2.64-4.57l2.64-4.57h5.71l2.64,4.57l-2.64,4.57H128.43z M128.43,275.67l-2.64-4.57
			l2.64-4.57h5.71l2.64,4.57l-2.64,4.57H128.43z M137.61,261.36h5.71l2.64,4.57l-2.64,4.57h-5.71l-2.64-4.57L137.61,261.36z
			 M143.32,271.7l2.64,4.57l-2.64,4.57h-5.71l-2.64-4.57l2.64-4.57H143.32z M143.32,282.03l2.64,4.57l-2.64,4.57h-5.71l-2.64-4.57
			l2.64-4.57H143.32z M143.32,292.37l2.64,4.57l-2.64,4.57h-5.71l-2.64-4.57l2.64-4.57H143.32z M143.32,302.71l2.64,4.57l-2.64,4.57
			h-5.71l-2.64-4.57l2.64-4.57H143.32z M145.96,317.62l-2.64,4.57h-5.71l-2.64-4.57l2.64-4.57h5.71L145.96,317.62z M143.32,323.38
			l2.64,4.57l-2.64,4.57h-5.71l-2.64-4.57l2.64-4.57H143.32z M143.32,333.72l2.64,4.57l-2.64,4.57h-5.71l-2.64-4.57l2.64-4.57
			H143.32z M146.79,338.89h5.71l2.64,4.57l-2.64,4.57h-5.71l-2.64-4.57L146.79,338.89z M152.5,349.23l2.64,4.57l-2.64,4.57h-5.71
			l-2.64-4.57l2.64-4.57H152.5z M152.5,359.56l2.64,4.57l-2.64,4.57h-5.71l-2.64-4.57l2.64-4.57H152.5z M152.5,369.9l2.64,4.57
			l-2.64,4.57h-5.71l-2.64-4.57l2.64-4.57H152.5z M155.14,384.81l-2.64,4.57h-5.71l-2.64-4.57l2.64-4.57h5.71L155.14,384.81z
			 M152.5,390.57l2.64,4.57l-2.64,4.57h-5.71l-2.64-4.57l2.64-4.57H152.5z M152.5,400.91l2.64,4.57l-2.64,4.57h-5.71l-2.64-4.57
			l2.64-4.57H152.5z M152.5,411.25l2.64,4.57l-2.64,4.57h-5.71l-2.64-4.57l2.64-4.57H152.5z M155.96,416.42h5.71l2.64,4.57
			l-2.64,4.57h-5.71l-2.64-4.57L155.96,416.42z M161.67,426.75l2.64,4.57l-2.64,4.57h-5.71l-2.64-4.57l2.64-4.57H161.67z
			 M161.67,437.09l2.64,4.57l-2.64,4.57h-5.71l-2.64-4.57l2.64-4.57H161.67z M164.32,452l-2.64,4.57h-5.71l-2.64-4.57l2.64-4.57
			h5.71L164.32,452z M161.67,457.77l2.64,4.57l-2.64,4.57h-5.71l-2.64-4.57l2.64-4.57H161.67z M161.67,468.1l2.64,4.57l-2.64,4.57
			h-5.71l-2.64-4.57l2.64-4.57H161.67z M161.67,478.44l2.64,4.57l-2.64,4.57h-5.71l-2.64-4.57l2.64-4.57H161.67z M161.67,488.78
			l2.64,4.57l-2.64,4.57h-5.71l-2.64-4.57l2.64-4.57H161.67z M165.14,493.95h5.71l2.64,4.57l-2.64,4.57h-5.71l-2.64-4.57
			L165.14,493.95z M170.85,504.28l2.64,4.57l-2.64,4.57h-5.71l-2.64-4.57l2.64-4.57H170.85z M170.85,514.62l2.64,4.57l-2.64,4.57
			h-5.71l-2.64-4.57l2.64-4.57H170.85z M170.85,524.96l2.64,4.57l-2.64,4.57h-5.71l-2.64-4.57l2.64-4.57H170.85z M170.85,535.3
			l2.64,4.57l-2.64,4.57h-5.71l-2.64-4.57l2.64-4.57H170.85z M170.85,545.63l2.64,4.57l-2.64,4.57h-5.71l-2.64-4.57l2.64-4.57
			H170.85z M161.67,549.61h-5.71l-2.64-4.57l2.64-4.57h5.71l2.64,4.57L161.67,549.61z M155.14,550.21l-2.64,4.57h-5.71l-2.64-4.57
			l2.64-4.57h5.71L155.14,550.21z M143.32,549.61h-5.71l-2.64-4.57l2.64-4.57h5.71l2.64,4.57L143.32,549.61z M134.14,544.44h-5.71
			l-2.64-4.57l2.64-4.57h5.71l2.64,4.57L134.14,544.44z M127.61,545.04l-2.64,4.57h-5.71l-2.64-4.57l2.64-4.57h5.71L127.61,545.04z
			 M119.26,539.27l-2.64-4.57l2.64-4.57h5.71l2.64,4.57l-2.64,4.57H119.26z M119.26,528.93l-2.64-4.57l2.64-4.57h5.71l2.64,4.57
			l-2.64,4.57H119.26z M119.26,518.6l-2.64-4.57l2.64-4.57h5.71l2.64,4.57l-2.64,4.57H119.26z M119.26,508.26l-2.64-4.57l2.64-4.57
			h5.71l2.64,4.57l-2.64,4.57H119.26z M119.26,497.92l-2.64-4.57l2.64-4.57h5.71l2.64,4.57l-2.64,4.57H119.26z M119.26,487.59
			l-2.64-4.57l2.64-4.57h5.71l2.64,4.57l-2.64,4.57H119.26z M119.26,477.25l-2.64-4.57l2.64-4.57h5.71l2.64,4.57l-2.64,4.57H119.26z
			 M119.26,466.91l-2.64-4.57l2.64-4.57h5.71l2.64,4.57l-2.64,4.57H119.26z M119.26,456.57l-2.64-4.57l2.64-4.57h5.71l2.64,4.57
			l-2.64,4.57H119.26z M119.26,446.24l-2.64-4.57l2.64-4.57h5.71l2.64,4.57l-2.64,4.57H119.26z M119.26,435.9l-2.64-4.57l2.64-4.57
			h5.71l2.64,4.57l-2.64,4.57H119.26z M119.26,425.56l-2.64-4.57l2.64-4.57h5.71l2.64,4.57l-2.64,4.57H119.26z M119.26,415.22
			l-2.64-4.57l2.64-4.57h5.71l2.64,4.57l-2.64,4.57H119.26z M119.26,404.89l-2.64-4.57l2.64-4.57h5.71l2.64,4.57l-2.64,4.57H119.26z
			 M119.26,394.55l-2.64-4.57l2.64-4.57h5.71l2.64,4.57l-2.64,4.57H119.26z M119.26,384.21l-2.64-4.57l2.64-4.57h5.71l2.64,4.57
			l-2.64,4.57H119.26z M119.26,373.88l-2.64-4.57l2.64-4.57h5.71l2.64,4.57l-2.64,4.57H119.26z M119.26,363.54l-2.64-4.57l2.64-4.57
			h5.71l2.64,4.57l-2.64,4.57H119.26z M119.26,353.2l-2.64-4.57l2.64-4.57h5.71l2.64,4.57l-2.64,4.57H119.26z M119.26,342.86
			l-2.64-4.57l2.64-4.57h5.71l2.64,4.57l-2.64,4.57H119.26z M119.26,332.53l-2.64-4.57l2.64-4.57h5.71l2.64,4.57l-2.64,4.57H119.26z
			 M119.26,322.19l-2.64-4.57l2.64-4.57h5.71l2.64,4.57l-2.64,4.57H119.26z M119.26,311.85l-2.64-4.57l2.64-4.57h5.71l2.64,4.57
			l-2.64,4.57H119.26z M119.26,301.51l-2.64-4.57l2.64-4.57h5.71l2.64,4.57l-2.64,4.57H119.26z M119.26,291.18l-2.64-4.57l2.64-4.57
			h5.71l2.64,4.57l-2.64,4.57H119.26z M119.26,280.84l-2.64-4.57l2.64-4.57h5.71l2.64,4.57l-2.64,4.57H119.26z M119.26,270.5
			l-2.64-4.57l2.64-4.57h5.71l2.64,4.57l-2.64,4.57H119.26z M116.61,255.59l2.64-4.57h5.71l2.64,4.57l-2.64,4.57h-5.71
			L116.61,255.59z M119.26,249.83l-2.64-4.57l2.64-4.57h5.71l2.64,4.57l-2.64,4.57H119.26z M128.43,235.52h5.71l2.64,4.57
			l-2.64,4.57h-5.71l-2.64-4.57L128.43,235.52z M137.61,240.68h5.71l2.64,4.57l-2.64,4.57h-5.71l-2.64-4.57L137.61,240.68z
			 M143.32,251.02l2.64,4.57l-2.64,4.57h-5.71l-2.64-4.57l2.64-4.57H143.32z M146.79,256.19h5.71l2.64,4.57l-2.64,4.57h-5.71
			l-2.64-4.57L146.79,256.19z M152.5,266.53l2.64,4.57l-2.64,4.57h-5.71l-2.64-4.57l2.64-4.57H152.5z M152.5,276.86l2.64,4.57
			l-2.64,4.57h-5.71l-2.64-4.57l2.64-4.57H152.5z M152.5,287.2l2.64,4.57l-2.64,4.57h-5.71l-2.64-4.57l2.64-4.57H152.5z
			 M152.5,297.54l2.64,4.57l-2.64,4.57h-5.71l-2.64-4.57l2.64-4.57H152.5z M152.5,307.88l2.64,4.57l-2.64,4.57h-5.71l-2.64-4.57
			l2.64-4.57H152.5z M152.5,318.21l2.64,4.57l-2.64,4.57h-5.71l-2.64-4.57l2.64-4.57H152.5z M152.5,328.55l2.64,4.57l-2.64,4.57
			h-5.71l-2.64-4.57l2.64-4.57H152.5z M155.96,333.72h5.71l2.64,4.57l-2.64,4.57h-5.71l-2.64-4.57L155.96,333.72z M161.67,344.06
			l2.64,4.57l-2.64,4.57h-5.71l-2.64-4.57l2.64-4.57H161.67z M161.67,354.39l2.64,4.57l-2.64,4.57h-5.71l-2.64-4.57l2.64-4.57
			H161.67z M161.67,364.73l2.64,4.57l-2.64,4.57h-5.71l-2.64-4.57l2.64-4.57H161.67z M161.67,375.07l2.64,4.57l-2.64,4.57h-5.71
			l-2.64-4.57l2.64-4.57H161.67z M161.67,385.41l2.64,4.57l-2.64,4.57h-5.71l-2.64-4.57l2.64-4.57H161.67z M161.67,395.74l2.64,4.57
			l-2.64,4.57h-5.71l-2.64-4.57l2.64-4.57H161.67z M161.67,406.08l2.64,4.57l-2.64,4.57h-5.71l-2.64-4.57l2.64-4.57H161.67z
			 M165.14,411.25h5.71l2.64,4.57l-2.64,4.57h-5.71l-2.64-4.57L165.14,411.25z M170.85,421.59l2.64,4.57l-2.64,4.57h-5.71
			l-2.64-4.57l2.64-4.57H170.85z M170.85,431.92l2.64,4.57l-2.64,4.57h-5.71l-2.64-4.57l2.64-4.57H170.85z M170.85,442.26l2.64,4.57
			l-2.64,4.57h-5.71l-2.64-4.57l2.64-4.57H170.85z M170.85,452.6l2.64,4.57l-2.64,4.57h-5.71l-2.64-4.57l2.64-4.57H170.85z
			 M170.85,462.93l2.64,4.57l-2.64,4.57h-5.71l-2.64-4.57l2.64-4.57H170.85z M170.85,473.27l2.64,4.57l-2.64,4.57h-5.71l-2.64-4.57
			l2.64-4.57H170.85z M170.85,483.61l2.64,4.57l-2.64,4.57h-5.71l-2.64-4.57l2.64-4.57H170.85z M174.32,488.78h5.71l2.64,4.57
			l-2.64,4.57h-5.71l-2.64-4.57L174.32,488.78z M180.03,499.12l2.64,4.57l-2.64,4.57h-5.71l-2.64-4.57l2.64-4.57H180.03z
			 M180.03,509.45l2.64,4.57l-2.64,4.57h-5.71l-2.64-4.57l2.64-4.57H180.03z M180.03,519.79l2.64,4.57l-2.64,4.57h-5.71l-2.64-4.57
			l2.64-4.57H180.03z M180.03,530.13l2.64,4.57l-2.64,4.57h-5.71l-2.64-4.57l2.64-4.57H180.03z M180.03,540.46l2.64,4.57l-2.64,4.57
			h-5.71l-2.64-4.57l2.64-4.57H180.03z M162.5,560.54l2.64-4.57h5.71l2.64,4.57l-2.64,4.57h-5.71L162.5,560.54z M155.96,559.95
			l-2.64-4.57l2.64-4.57h5.71l2.64,4.57l-2.64,4.57H155.96z M144.14,560.54l2.64-4.57h5.71l2.64,4.57l-2.64,4.57h-5.71
			L144.14,560.54z M134.97,555.37l2.64-4.57h5.71l2.64,4.57l-2.64,4.57h-5.71L134.97,555.37z M128.43,554.78l-2.64-4.57l2.64-4.57
			h5.71l2.64,4.57l-2.64,4.57H128.43z M116.61,555.37l2.64-4.57h5.71l2.64,4.57l-2.64,4.57h-5.71L116.61,555.37z M110.08,545.63
			h5.71l2.64,4.57l-2.64,4.57h-5.71l-2.64-4.57L110.08,545.63z M110.08,535.3h5.71l2.64,4.57l-2.64,4.57h-5.71l-2.64-4.57
			L110.08,535.3z M110.08,524.96h5.71l2.64,4.57l-2.64,4.57h-5.71l-2.64-4.57L110.08,524.96z M110.08,514.62h5.71l2.64,4.57
			l-2.64,4.57h-5.71l-2.64-4.57L110.08,514.62z M110.08,504.28h5.71l2.64,4.57l-2.64,4.57h-5.71l-2.64-4.57L110.08,504.28z
			 M110.08,493.95h5.71l2.64,4.57l-2.64,4.57h-5.71l-2.64-4.57L110.08,493.95z M110.08,483.61h5.71l2.64,4.57l-2.64,4.57h-5.71
			l-2.64-4.57L110.08,483.61z M110.08,473.27h5.71l2.64,4.57l-2.64,4.57h-5.71l-2.64-4.57L110.08,473.27z M110.08,462.93h5.71
			l2.64,4.57l-2.64,4.57h-5.71l-2.64-4.57L110.08,462.93z M110.08,452.6h5.71l2.64,4.57l-2.64,4.57h-5.71l-2.64-4.57L110.08,452.6z
			 M110.08,442.26h5.71l2.64,4.57l-2.64,4.57h-5.71l-2.64-4.57L110.08,442.26z M110.08,431.92h5.71l2.64,4.57l-2.64,4.57h-5.71
			l-2.64-4.57L110.08,431.92z M110.08,421.59h5.71l2.64,4.57l-2.64,4.57h-5.71l-2.64-4.57L110.08,421.59z M110.08,411.25h5.71
			l2.64,4.57l-2.64,4.57h-5.71l-2.64-4.57L110.08,411.25z M110.08,400.91h5.71l2.64,4.57l-2.64,4.57h-5.71l-2.64-4.57L110.08,400.91
			z M110.08,390.57h5.71l2.64,4.57l-2.64,4.57h-5.71l-2.64-4.57L110.08,390.57z M110.08,380.24h5.71l2.64,4.57l-2.64,4.57h-5.71
			l-2.64-4.57L110.08,380.24z M110.08,369.9h5.71l2.64,4.57l-2.64,4.57h-5.71l-2.64-4.57L110.08,369.9z M110.08,359.56h5.71
			l2.64,4.57l-2.64,4.57h-5.71l-2.64-4.57L110.08,359.56z M110.08,349.23h5.71l2.64,4.57l-2.64,4.57h-5.71l-2.64-4.57L110.08,349.23
			z M110.08,338.89h5.71l2.64,4.57l-2.64,4.57h-5.71l-2.64-4.57L110.08,338.89z M110.08,328.55h5.71l2.64,4.57l-2.64,4.57h-5.71
			l-2.64-4.57L110.08,328.55z M110.08,318.21h5.71l2.64,4.57l-2.64,4.57h-5.71l-2.64-4.57L110.08,318.21z M110.08,307.88h5.71
			l2.64,4.57l-2.64,4.57h-5.71l-2.64-4.57L110.08,307.88z M110.08,297.54h5.71l2.64,4.57l-2.64,4.57h-5.71l-2.64-4.57L110.08,297.54
			z M110.08,287.2h5.71l2.64,4.57l-2.64,4.57h-5.71l-2.64-4.57L110.08,287.2z M110.08,276.86h5.71l2.64,4.57l-2.64,4.57h-5.71
			l-2.64-4.57L110.08,276.86z M110.08,266.53h5.71l2.64,4.57l-2.64,4.57h-5.71l-2.64-4.57L110.08,266.53z M110.08,256.19h5.71
			l2.64,4.57l-2.64,4.57h-5.71l-2.64-4.57L110.08,256.19z M110.08,245.85h5.71l2.64,4.57l-2.64,4.57h-5.71l-2.64-4.57L110.08,245.85
			z M110.08,235.52h5.71l2.64,4.57l-2.64,4.57h-5.71l-2.64-4.57L110.08,235.52z M110.08,225.18h5.71l2.64,4.57l-2.64,4.57h-5.71
			l-2.64-4.57L110.08,225.18z M110.08,214.84h5.71l2.64,4.57l-2.64,4.57h-5.71l-2.64-4.57L110.08,214.84z M118.43,209.08l-2.64,4.57
			h-5.71l-2.64-4.57l2.64-4.57h5.71L118.43,209.08z M127.61,214.24l-2.64,4.57h-5.71l-2.64-4.57l2.64-4.57h5.71L127.61,214.24z
			 M134.14,223.98h-5.71l-2.64-4.57l2.64-4.57h5.71l2.64,4.57L134.14,223.98z M136.79,229.75l-2.64,4.57h-5.71l-2.64-4.57l2.64-4.57
			h5.71L136.79,229.75z M145.96,234.92l-2.64,4.57h-5.71l-2.64-4.57l2.64-4.57h5.71L145.96,234.92z M152.5,244.66h-5.71l-2.64-4.57
			l2.64-4.57h5.71l2.64,4.57L152.5,244.66z M155.14,250.42L152.5,255h-5.71l-2.64-4.57l2.64-4.57h5.71L155.14,250.42z
			 M161.67,260.17h-5.71l-2.64-4.57l2.64-4.57h5.71l2.64,4.57L161.67,260.17z M161.67,270.5h-5.71l-2.64-4.57l2.64-4.57h5.71
			l2.64,4.57L161.67,270.5z M161.67,280.84h-5.71l-2.64-4.57l2.64-4.57h5.71l2.64,4.57L161.67,280.84z M161.67,291.18h-5.71
			l-2.64-4.57l2.64-4.57h5.71l2.64,4.57L161.67,291.18z M161.67,301.51h-5.71l-2.64-4.57l2.64-4.57h5.71l2.64,4.57L161.67,301.51z
			 M161.67,311.85h-5.71l-2.64-4.57l2.64-4.57h5.71l2.64,4.57L161.67,311.85z M161.67,322.19h-5.71l-2.64-4.57l2.64-4.57h5.71
			l2.64,4.57L161.67,322.19z M164.32,327.95l-2.64,4.57h-5.71l-2.64-4.57l2.64-4.57h5.71L164.32,327.95z M170.85,337.69h-5.71
			l-2.64-4.57l2.64-4.57h5.71l2.64,4.57L170.85,337.69z M170.85,348.03h-5.71l-2.64-4.57l2.64-4.57h5.71l2.64,4.57L170.85,348.03z
			 M170.85,358.37h-5.71l-2.64-4.57l2.64-4.57h5.71l2.64,4.57L170.85,358.37z M170.85,368.71h-5.71l-2.64-4.57l2.64-4.57h5.71
			l2.64,4.57L170.85,368.71z M170.85,379.04h-5.71l-2.64-4.57l2.64-4.57h5.71l2.64,4.57L170.85,379.04z M170.85,389.38h-5.71
			l-2.64-4.57l2.64-4.57h5.71l2.64,4.57L170.85,389.38z M170.85,399.72h-5.71l-2.64-4.57l2.64-4.57h5.71l2.64,4.57L170.85,399.72z
			 M173.49,405.48l-2.64,4.57h-5.71l-2.64-4.57l2.64-4.57h5.71L173.49,405.48z M180.03,415.22h-5.71l-2.64-4.57l2.64-4.57h5.71
			l2.64,4.57L180.03,415.22z M180.03,425.56h-5.71l-2.64-4.57l2.64-4.57h5.71l2.64,4.57L180.03,425.56z M180.03,435.9h-5.71
			l-2.64-4.57l2.64-4.57h5.71l2.64,4.57L180.03,435.9z M180.03,446.24h-5.71l-2.64-4.57l2.64-4.57h5.71l2.64,4.57L180.03,446.24z
			 M180.03,456.57h-5.71l-2.64-4.57l2.64-4.57h5.71l2.64,4.57L180.03,456.57z M180.03,466.91h-5.71l-2.64-4.57l2.64-4.57h5.71
			l2.64,4.57L180.03,466.91z M180.03,477.25h-5.71l-2.64-4.57l2.64-4.57h5.71l2.64,4.57L180.03,477.25z M182.67,483.01l-2.64,4.57
			h-5.71l-2.64-4.57l2.64-4.57h5.71L182.67,483.01z M189.2,492.75h-5.71l-2.64-4.57l2.64-4.57h5.71l2.64,4.57L189.2,492.75z
			 M189.2,503.09h-5.71l-2.64-4.57l2.64-4.57h5.71l2.64,4.57L189.2,503.09z M189.2,513.43h-5.71l-2.64-4.57l2.64-4.57h5.71
			l2.64,4.57L189.2,513.43z M189.2,523.77h-5.71l-2.64-4.57l2.64-4.57h5.71l2.64,4.57L189.2,523.77z M189.2,534.1h-5.71l-2.64-4.57
			l2.64-4.57h5.71l2.64,4.57L189.2,534.1z M189.2,544.44h-5.71l-2.64-4.57l2.64-4.57h5.71l2.64,4.57L189.2,544.44z M189.2,554.78
			h-5.71l-2.64-4.57l2.64-4.57h5.71l2.64,4.57L189.2,554.78z M191.84,560.54l-2.64,4.57h-5.71l-2.64-4.57l2.64-4.57h5.71
			L191.84,560.54z M198.38,570.28h-5.71l-2.64-4.57l2.64-4.57h5.71l2.64,4.57L198.38,570.28z"/>
	</g>
</g>
<path class="Colour1 fill" d="M439.11,64.76c0,0,46.18,55.04,54.38,148.75c0,0-64.06,39.05-86.41,25.66c0,0,1.37-13.64-10.68-34.34
	C396.41,204.83,396.28,130.58,439.11,64.76z"/>
<path class="Colour1 fill" d="M55.88,64.76c0,0-46.18,55.04-54.38,148.75c0,0,64.06,39.05,86.41,25.66c0,0-1.37-13.64,10.68-34.34
	C98.58,204.83,98.71,130.58,55.88,64.76z"/>
<path class="st2" d="M3.59,195.94c0,0,48.93,31.08,86.1,30.04"/>
<path class="st2" d="M491.44,195.94c0,0-48.93,31.08-86.1,30.04"/>
<g>
	<path class="st3" d="M247.51,11.49C287.45,11.68,314.24,2,314.24,2v9.59c0,0-37.4,8.24-66.73,8.24l-0.29,0
		c-29.28-0.05-66.43-8.24-66.43-8.24V2c0,0,26.62,9.61,66.35,9.49L247.51,11.49z"/>
	<path class="st3" d="M247.51,64.43c-71.37,0-75.24-57.8-75.24-57.8L180.79,2c0,0,9.26,48.8,66.73,48.8l0.32,0
		C305.02,50.61,314.24,2,314.24,2l8.51,4.63c0,0-3.86,57.68-75.02,57.8L247.51,64.43z"/>
</g>
<path class="st4" d="M247.51,31.55"/>
<path class="st3" d="M247.83,50.8l-0.32,0c-40.44,0-57.01-24.16-63.28-38.48c9.87,2,39.05,7.48,62.98,7.52l0.29,0
	c23.99,0,53.37-5.51,63.28-7.52C304.54,26.59,288.04,50.67,247.83,50.8z"/>
<path class="NeckAndArmTrim fill" d="M247.51,11.49C287.45,11.68,314.24,2,314.24,2v9.59c0,0-37.4,8.24-66.73,8.24l-0.29,0
	c-29.28-0.05-66.43-8.24-66.43-8.24V2c0,0,26.62,9.61,66.35,9.49L247.51,11.49z"/>
<path class="NeckAndArmTrim fill" d="M247.51,64.43c-71.37,0-75.24-57.8-75.24-57.8L180.79,2c0,0,9.26,48.8,66.73,48.8l0.32,0
	C305.02,50.61,314.24,2,314.24,2l8.51,4.63c0,0-3.86,57.68-75.02,57.8L247.51,64.43z"/>
<g>
	<path class="Colour2 fill" d="M34.39,98.81C21.14,124.3,5.88,163.37,1.5,213.51c0,0,13.56,8.27,30.38,15.89l33.41-80.06L34.39,98.81z"/>
	<path class="Colour2 fill" d="M94.16,164.05l-58.94,66.83c3.71,1.62,7.54,3.18,11.39,4.59l49.89-56.56
		C95.91,174.4,95.14,169.42,94.16,164.05z"/>
	<path class="Colour2 fill" d="M460.6,98.81c13.24,25.49,28.5,64.56,32.89,114.7c0,0-13.56,8.27-30.38,15.89l-33.41-80.06L460.6,98.81z"
		/>
	<path class="Colour2 fill" d="M400.83,164.05l58.94,66.83c-3.71,1.62-7.54,3.18-11.39,4.59l-49.89-56.56
		C399.08,174.4,399.85,169.42,400.83,164.05z"/>
</g>
<path class="Colour2 fill" d="M397.54,187.94l-84.3,64.87l88.27-92.38c3.91-20.14,9.55-37.69,15.27-52.07L318.15,217.5l82.4-135.17
	l-42.67,27.31l52.05-52.23l-28.51,14.81c-6.86-4.19-14-8.37-21.44-12.5c-16.6-9.22-32.72-17.12-48.08-23.92
	c-1.14,1.05-2.38,2.31-3.62,3.78c-1.2,1.43-2.21,2.8-3.04,4.07c-10.96,11.26-28.73,20.72-57.51,20.77l-0.22,0
	c-28.91,0-46.74-9.48-57.73-20.77c-3.73-1.84-3.38-5.44-6.42-7.53c-37,15.86-69.76,36.1-69.76,36.1L85.1,57.42l52.05,52.23
	L94.48,82.33l82.4,135.17L78.25,108.36c5.72,14.38,11.36,31.93,15.27,52.07l88.27,92.38l-84.29-64.87
	c0.52,5.49,0.9,11.12,1.11,16.89c0,0,0.02,0.27,0.06,0.79l40.7,30.24l47.98,334.13c16.83,1.51,36.72,2.82,60.18,3.74
	c23.46-0.93,43.34-2.23,60.18-3.74l47.98-334.13l40.7-30.24c0.04-0.52,0.06-0.79,0.06-0.79
	C396.63,199.06,397.01,193.44,397.54,187.94z"/>
<g>
	<polygon class="Colour3 fill" points="334.29,308.39 321.27,316.2 304.17,395.11 285.41,401.15 266.52,468.03 289.91,404.25 308.4,398.55 
		325.41,319.16 333.09,315.15 	"/>
	<polygon class="Colour3 fill" points="160.74,308.39 173.75,316.2 190.86,395.11 209.62,401.15 228.51,468.03 205.12,404.25 186.63,398.55 
		169.62,319.16 161.94,315.15 	"/>
</g>
<path class="Colour3 fill" d="M346.38,232.79l-29.71,29.94l-58.86,194.13l53.22-198.13L346.38,232.79z M148.65,232.79l29.71,29.94
	l58.86,194.13l-53.22-198.13L148.65,232.79z M376.82,75.28c0,0-21.61-18.4-65.9-34.68c-2.15,1.28-4.44,2.5-6.88,3.66
	c41.22,13.61,62.66,31.02,62.66,31.02l-29.61,37.67L376.82,75.28z M118.2,75.28l39.73,37.67l-29.61-37.67
	c0,0,21.45-17.41,62.67-31.02c-2.44-1.16-4.73-2.38-6.88-3.66C139.82,56.88,118.2,75.28,118.2,75.28z M291.47,259.54l112.77-111.69
	c1.88-7.81,3.99-15.16,6.22-22.01L291.47,259.54z M84.56,125.85c2.23,6.85,4.34,14.2,6.22,22.01l112.77,111.69L84.56,125.85z
	 M351.75,245.34l-7.11,4.68L300,568.53l-0.46,2.16c2.15-0.17,4.25-0.35,6.31-0.53L351.75,245.34z M150.39,250.02l-7.11-4.68
	l45.9,324.81c2.06,0.18,4.15,0.36,6.31,0.53l-0.46-2.16L150.39,250.02z"/>
<g>
	<path class="st2" d="M395.06,538.34c0,0-23,15.87-147.55,20.82"/>
	<path class="st2" d="M247.51,559.17c-124.55-4.96-147.55-20.82-147.55-20.82"/>
</g>
<g>
	<path class="st2" d="M314.23,2.27c0,0-26.79,9.68-66.73,9.49l-0.38,0c-39.73,0.13-66.35-9.49-66.35-9.49l-8.51,4.63
		c0,0,3.87,57.8,75.24,57.8l0.22,0c71.16-0.12,75.02-57.8,75.02-57.8L314.23,2.27z M247.83,51.06l-0.32,0
		c-40.44,0-57.01-24.16-63.28-38.48c9.86,2,39.05,7.48,62.98,7.52l0.29,0c23.99,0,53.38-5.52,63.28-7.52
		C304.53,26.86,288.03,50.94,247.83,51.06z"/>
	<g>
		<path class="st2" d="M439.12,65.03c0,0,46.18,55.04,54.38,148.75c0,0-64.06,39.05-86.41,25.66c0,0,1.37-13.64-10.68-34.34
			C396.42,205.1,396.29,130.85,439.12,65.03z"/>
		<path class="st2" d="M55.89,65.03c0,0-46.18,55.04-54.38,148.75c0,0,64.06,39.05,86.41,25.66c0,0-1.37-13.64,10.68-34.34
			C98.59,205.1,98.72,130.85,55.89,65.03z"/>
		<g>
			<path class="st2" d="M439.14,65.03C427.97,46.44,322.82,6.65,322.82,6.65l-0.31,0.11l0.26,0.14c0,0-3.86,57.68-75.02,57.8
				l-0.22,0c-71.37,0-75.24-57.8-75.24-57.8l0.24-0.13l-0.3-0.12c0,0-105.15,39.79-116.32,58.38c0,0,39.73,55.78,42.71,140.07
				c0,0,14.4,194.37,0,348.07c0,0,23.21,15.87,148.91,20.82c125.7-4.96,148.91-20.82,148.91-20.82c-14.4-153.71,0-348.07,0-348.07
				C399.42,120.81,439.14,65.03,439.14,65.03z"/>
		</g>
	</g>
</g>
<path class="NeckAndArmTrim fill" d="M419.28,241.79c-4.7,0-8.59-0.85-11.56-2.53c0.07-1.29,0.13-5.73-1.6-12.56
	c0.35,0.01,0.69,0.01,1.04,0.01c34.14,0,77.58-25.85,83.83-29.68c0.77,5.38,1.41,10.91,1.91,16.58
	C488.82,216.06,445.21,241.79,419.28,241.79z"/>
<g id="FBodyLogos"></g>
<path class="NeckAndArmTrim fill" d="M2.13,213.61c0.5-5.67,1.15-11.19,1.91-16.58c6.25,3.83,49.69,29.68,83.83,29.68
	c0.35,0,0.7-0.01,1.04-0.01c-1.73,6.83-1.67,11.27-1.6,12.56c-2.97,1.68-6.85,2.53-11.56,2.53C49.84,241.79,6.22,216.06,2.13,213.61
	z"/>
<path class="st6" d="M3.05,200.41c0,0,48.93,31.08,86.1,30.04"/>
<path class="st6" d="M491.98,200.41c0,0-48.93,31.08-86.1,30.04"/>
<g>
	<path class="BottomHem fill" d="M247.5,558.96c124.55-4.96,147.55-20.82,147.55-20.82l1.37,14.84c0,0-34.6,17.88-149.34,20.82
		c0,0-105.75-1.2-148.49-20.82l1.37-14.84C99.96,538.14,122.96,554,247.5,558.96"/>
</g>
<g>
	<path class="st6" d="M395.06,542.81c0,0-23,15.87-147.55,20.82"/>
	<path class="st6" d="M247.51,563.63c-124.55-4.96-147.55-20.82-147.55-20.82"/>
</g>
</svg>
