<?xml version="1.0" encoding="utf-8"?>
<!-- Generator: Adobe Illustrator 19.1.0, SVG Export Plug-In . SVG Version: 6.00 Build 0)  -->
<svg version="1.1" id="Layer_1" xmlns="http://www.w3.org/2000/svg" xmlns:xlink="http://www.w3.org/1999/xlink" x="0px" y="0px"
	 viewBox="0 0 495 576" style="enable-background:new 0 0 495 576;" xml:space="preserve">
<style type="text/css">
	<![CDATA[
	@font-face{font-family:'codaheavy';src:url('/fonts/coda-heavy-webfont.woff') format('woff')}
	text{font-family:Impact,codaheavy,sans-serif}
	.Number.fill{fill:#000}
	.NumberOutline.stroke{fill:none;stroke:#777;stroke-width:2.5}
	.Colour1.fill{fill:#EDEDED;}
	.Colour2.fill{fill:#0F0F0F;}
	.Colour3.fill{fill:#A08011;}
	.NeckAndArmTrim.fill{fill:#EDEDED;}
	.BottomHem.fill{fill:#EDEDED;}
	.Gradient1.stopColor{stop-color:#EDEDED;}
	.Gradient2.stopColor{stop-color:#0F0F0F;}
	.st0{fill:url(#SVGID_1_);}
	.st1{fill:url(#SVGID_2_);}
	.st2{fill:none;stroke:#000000;stroke-miterlimit:10;}
	.st3{fill:none;stroke:#000000;stroke-miterlimit:10;stroke-dasharray:2;}
	]]>
</style>
<path class="Colour1 fill" d="M247.85,574c125.4-4.97,148.57-20.8,148.57-20.8c-14.4-153.63,0-347.89,0-347.89
	c2.98-84.25,42.71-140,42.71-140C427.95,46.72,322.8,6.95,322.8,6.95l-0.12,0.01c0,0-30.18,12.46-75.17,12.25l-0.43,0
	c-44.76,0.14-74.75-12.25-74.75-12.25l-0.12-0.01c0,0-105.15,39.77-116.32,58.35c0,0,39.73,55.75,42.71,140
	c0,0,14.4,194.27,0,347.89c0,0,23.17,15.83,148.59,20.8L247.85,574z"/>
<g>
	<g>
		<linearGradient id="SVGID_1_" gradientUnits="userSpaceOnUse" x1="345.4026" y1="175.58" x2="345.4026" y2="552.6111">
			<stop class="Gradient1 stopColor" offset="0" style="stop-color:#EDEDED;stop-opacity:0"/>
			<stop class="Gradient2 stopColor" offset="1" style="stop-color:#0F0F0F"/>
		</linearGradient>
		<path class="st0" d="M303.33,570.56l2.46-4.24h5.71l1.92,3.32c0.37-0.04,0.74-0.07,1.11-0.11l-2.2-3.81l2.64-4.57h5.71l2.64,4.57
			l-1.79,3.09c0.42-0.05,0.83-0.09,1.25-0.14l1.36-2.36h5.71l0.84,1.44c0.37-0.04,0.73-0.09,1.09-0.13l-1.1-1.91l2.64-4.57h5.71
			l2.64,4.57l-0.38,0.66c2.82-0.39,5.5-0.79,8.05-1.19l2.33-4.04h5.71l1.41,2.44c0.36-0.06,0.71-0.13,1.06-0.19l-1.65-2.85
			l2.64-4.57h5.71l2.64,4.57l-0.65,1.12c0.45-0.1,0.9-0.19,1.34-0.29l0.14-0.24h0.93c2.21-0.5,4.24-0.98,6.1-1.45l2.15-3.71h5.71
			l0.74,1.27c0.34-0.11,0.67-0.21,0.98-0.32l-0.9-1.55l2.64-4.57h5.71l1.42,2.45c0.11-0.06,0.16-0.1,0.16-0.1
			c-0.06-0.65-0.12-1.3-0.18-1.96l-0.57-0.99l0.42-0.72c-0.05-0.58-0.1-1.17-0.16-1.75l-1.09,1.88h-5.71l-2.64-4.57l2.64-4.57h5.71
			l0.54,0.93c-0.07-0.89-0.15-1.78-0.22-2.68l-0.32,0.55h-5.71l-2.64-4.57l2.64-4.57h5.36c-0.03-0.4-0.06-0.79-0.09-1.19h-5.27
			l-2.64-4.57l2.64-4.57h4.63c-0.03-0.4-0.05-0.8-0.08-1.19h-4.56l-2.64-4.57l2.64-4.57h3.99c-0.02-0.4-0.05-0.8-0.07-1.19h-3.92
			l-2.64-4.57l2.64-4.57h3.41c-0.02-0.4-0.04-0.79-0.06-1.19h-3.35l-2.64-4.57l2.64-4.57h2.9c-0.02-0.4-0.04-0.8-0.05-1.19h-2.85
			l-2.64-4.57l2.64-4.57h2.46c-0.02-0.4-0.03-0.8-0.05-1.19h-2.41l-2.64-4.57l2.64-4.57h2.08c-0.01-0.4-0.03-0.8-0.04-1.19h-2.04
			l-2.64-4.57l2.64-4.57h1.75c-0.01-0.4-0.02-0.8-0.03-1.19h-1.72l-2.64-4.57l2.64-4.57h1.49c-0.01-0.4-0.02-0.79-0.03-1.19h-1.46
			l-2.64-4.57l2.64-4.57h1.27c-0.01-0.4-0.01-0.8-0.02-1.19h-1.25l-2.64-4.57l2.64-4.57h1.1c-0.01-0.4-0.01-0.8-0.02-1.19h-1.09
			l-2.64-4.57l2.64-4.57h0.99c0-0.4-0.01-0.8-0.01-1.19h-0.97l-2.64-4.57l2.64-4.57h0.92c0-0.4,0-0.8-0.01-1.19h-0.91l-2.64-4.57
			l2.64-4.57h0.89c0-0.4,0-0.8,0-1.19h-0.89l-2.64-4.57l2.64-4.57h0.9c0-0.4,0-0.8,0.01-1.19h-0.91l-2.64-4.57l2.64-4.57h0.96
			c0-0.4,0.01-0.8,0.01-1.19h-0.97l-2.64-4.57l2.64-4.57h1.06c0-0.4,0.01-0.79,0.01-1.19h-1.08l-2.64-4.57l2.64-4.57h1.2
			c0.01-0.4,0.01-0.79,0.02-1.19h-1.22l-2.64-4.57l2.64-4.57h1.37c0.01-0.4,0.02-0.8,0.02-1.19h-1.4l-2.64-4.57l2.64-4.57h1.59
			c0.01-0.4,0.02-0.8,0.03-1.19h-1.62l-2.64-4.57l2.64-4.57h1.84c0.01-0.4,0.02-0.8,0.03-1.19h-1.87l-2.64-4.57l2.64-4.57h2.12
			c0.01-0.4,0.02-0.8,0.04-1.19h-2.16l-2.64-4.57l2.64-4.57h2.44c0.01-0.4,0.03-0.8,0.04-1.19h-2.48l-2.64-4.57l2.64-4.57h2.8
			c0.01-0.4,0.03-0.8,0.04-1.19h-2.84l-2.64-4.57l2.64-4.57h3.19c0.02-0.4,0.03-0.8,0.05-1.19h-3.24l-2.64-4.57l2.64-4.57h3.62
			c0.02-0.4,0.03-0.8,0.05-1.19h-3.67l-2.64-4.57l2.64-4.57h4.08c0.02-0.4,0.04-0.8,0.06-1.19h-4.13l-2.64-4.57l2.64-4.57h4.58
			c0.02-0.4,0.04-0.8,0.06-1.19h-4.64l-2.64-4.57l2.64-4.57h5.11c0.02-0.4,0.04-0.8,0.06-1.19h-5.18l-2.64-4.57l2.64-4.57h5.68
			c0.02-0.43,0.05-0.86,0.07-1.28l-0.05,0.08h-5.71l-2.64-4.57l2.64-4.57h5.71l0.53,0.92c0.07-1.2,0.14-2.33,0.21-3.4l-0.75,1.29
			h-5.71l-2.64-4.57l2.64-4.57h5.71l1.13,1.95c0.04-0.65,0.08-1.25,0.12-1.81l-0.42-0.74l0.54-0.93c0.07-1.02,0.12-1.79,0.16-2.3
			l-1.52,2.64h-5.71l-2.64-4.57l2.64-4.57h5.71l1.71,2.96c0.03-0.62,0.06-1.25,0.09-1.87l-0.98-1.69l1.19-2.06
			c0.05-0.77,0.11-1.54,0.16-2.3l-2.18,3.77h-5.71l-2.64-4.57l2.64-4.57h5.71l2.28,3.94c0.05-0.59,0.09-1.19,0.14-1.78l-1.6-2.76
			l2.24-3.87c0.08-0.72,0.17-1.44,0.25-2.16l-1.27-2.2l-0.77,0.7l1.37,2.37l-2.64,4.57h-5.71l-0.22-0.39l-0.77,0.7l0.17,0.29
			l-2.64,4.57h-2.86l-1.31,1.19h4.18l2.64,4.57l-2.64,4.57h-5.71l-2.64-4.57l0.94-1.63l-2.45,2.23h0.68l2.64,4.57l-2.64,4.57h-5.71
			l-1.73-3l-0.77,0.7l1.68,2.9l-2.64,4.57h-5.71l-0.53-0.92l-0.77,0.7l0.47,0.82l-2.64,4.57h-3.76l-1.31,1.19h5.07l2.64,4.57
			l-2.64,4.57h-5.71l-2.64-4.57l1.93-3.34l-2.46,2.24l-0.29,0.5h-0.26l-1.31,1.19h1.58l2.64,4.57l-2.64,4.57h-5.71l-2.04-3.53
			l-0.77,0.7l1.98,3.43l-2.64,4.57h-5.71l-0.84-1.45l-0.56,0.5l-0.05,0.46l0.62,1.08l-0.94,1.63l-0.3,2.54l2.06-3.57h5.71l2.64,4.57
			l-2.64,4.57h-5.71l-2.26-3.9l-0.2,1.68l1.63,2.82l-2.46,4.26l-0.18,1.51l2.64,4.56l-2.64,4.57h-1.07l-0.14,1.19h1.21l2.64,4.57
			l-2.64,4.57h-2.28l-0.14,1.19h2.42l2.64,4.57l-2.64,4.57h-3.49l-0.14,1.19h3.63l2.64,4.57l-2.64,4.57h-4.71l-0.14,1.19h4.85
			l2.64,4.57l-2.64,4.57h-5.71l-0.18-0.3l-0.27,2.26l0.44-0.76h5.71l2.64,4.57l-2.64,4.57h-5.71l-1.18-2.05l-0.2,1.68l0.56,0.96
			l-0.84,1.45l-0.3,2.54l1.96-3.39h5.71l2.64,4.57l-2.64,4.57h-5.71l-2.19-3.79l-0.2,1.68l1.57,2.71l-2.36,4.09l-0.21,1.8l2.57,4.45
			l-2.64,4.57h-0.99l-0.14,1.19h1.13l2.64,4.57l-2.64,4.57h-2.2l-0.14,1.19h2.34l2.64,4.57l-2.64,4.57h-3.42l-0.14,1.19h3.56
			l2.64,4.57l-2.64,4.57h-4.63l-0.14,1.19h4.77l2.64,4.57l-2.64,4.57h-5.71l-0.11-0.19l-0.23,1.97l0.34-0.59h5.71l2.64,4.57
			l-2.64,4.57h-5.71l-1.12-1.93l-0.2,1.68l0.49,0.85l-0.74,1.28l-0.3,2.54l1.86-3.22h5.71l2.64,4.57l-2.64,4.57h-5.71l-2.13-3.68
			l-0.2,1.68l1.5,2.59l-2.26,3.91l-0.24,2.08l2.51,4.34l-2.64,4.57h-0.91l-0.14,1.19h1.05l2.64,4.57l-2.64,4.57h-2.12l-0.14,1.19
			h2.26l2.64,4.57l-2.64,4.57h-3.34l-0.14,1.19h3.48l2.64,4.57l-2.64,4.57h-4.55l-0.14,1.19h4.69l2.64,4.57l-2.64,4.57h-5.71
			l-0.04-0.08l-0.2,1.69l0.24-0.42h5.71l2.64,4.57l-2.64,4.57h-5.71l-1.05-1.82l-0.2,1.68l0.43,0.74l-0.64,1.11l-0.3,2.54l1.76-3.05
			h5.71l2.64,4.57l-2.64,4.57h-5.71l-2.06-3.56l-0.2,1.68l1.43,2.48l-2.16,3.74l-0.28,2.37l2.44,4.22l-2.64,4.57h-0.83l-0.14,1.19
			h0.97l2.64,4.57l-2.64,4.57h-2.04l-0.14,1.19h2.18l2.64,4.57l-2.64,4.57h-3.26l-0.14,1.19h3.4l2.64,4.57l-2.64,4.57h-4.47
			l-0.14,1.19h4.61l2.64,4.57l-2.64,4.57h-5.68l-0.17,1.44l0.14-0.25h5.71l2.64,4.57l-2.64,4.57h-5.71l-0.99-1.71l-0.2,1.68
			l0.36,0.62l-0.54,0.94l-0.3,2.53l1.66-2.88h5.71l2.64,4.57l-2.64,4.57h-5.71l-1.99-3.45l-0.2,1.68l1.37,2.37l-2.07,3.57
			l-0.31,2.65l2.38,4.11l-0.18,0.31C298.25,570.98,300.82,570.77,303.33,570.56z M314.96,559.95l-2.64-4.57l2.64-4.57h5.71
			l2.64,4.57l-2.64,4.57H314.96z M375.73,230.52l2.64,4.57l-2.64,4.57h-5.71l-2.64-4.57l2.64-4.57H375.73z M367.38,224.76l2.64-4.57
			h5.71l2.64,4.57l-2.64,4.57h-5.71L367.38,224.76z M366.55,256.35l2.64,4.57l-2.64,4.57h-5.71l-2.64-4.57l2.64-4.57H366.55z
			 M358.2,250.59l2.64-4.57h5.71l2.64,4.57l-2.64,4.57h-5.71L358.2,250.59z M357.38,354.51l2.64,4.57l-2.64,4.57h-5.71l-2.64-4.57
			l2.64-4.57H357.38z M349.02,348.75l2.64-4.57h5.71l2.64,4.57l-2.64,4.57h-5.71L349.02,348.75z M357.38,364.84l2.64,4.57
			l-2.64,4.57h-5.71l-2.64-4.57l2.64-4.57H357.38z M357.38,375.17l2.64,4.57l-2.64,4.57h-5.71l-2.64-4.57l2.64-4.57H357.38z
			 M357.38,385.5l2.64,4.57l-2.64,4.57h-5.71l-2.64-4.57l2.64-4.57H357.38z M357.38,395.83l2.64,4.57l-2.64,4.57h-5.71l-2.64-4.57
			l2.64-4.57H357.38z M357.38,406.17l2.64,4.57l-2.64,4.57h-5.71l-2.64-4.57l2.64-4.57H357.38z M357.38,416.5l2.64,4.57l-2.64,4.57
			h-5.71l-2.64-4.57l2.64-4.57H357.38z M348.2,514.65l2.64,4.57l-2.64,4.57h-5.71l-2.64-4.57l2.64-4.57H348.2z M339.85,508.89
			l2.64-4.57h5.71l2.64,4.57l-2.64,4.57h-5.71L339.85,508.89z M348.2,524.98l2.64,4.57l-2.64,4.57h-5.71l-2.64-4.57l2.64-4.57H348.2
			z M349.02,524.39l2.64-4.57h5.71l2.64,4.57l-2.64,4.57h-5.71L349.02,524.39z M351.67,518.63l-2.64-4.57l2.64-4.57h5.71l2.64,4.57
			l-2.64,4.57H351.67z M351.67,508.29l-2.64-4.57l2.64-4.57h5.71l2.64,4.57l-2.64,4.57H351.67z M351.67,497.96l-2.64-4.57l2.64-4.57
			h5.71l2.64,4.57l-2.64,4.57H351.67z M351.67,487.63l-2.64-4.57l2.64-4.57h5.71l2.64,4.57l-2.64,4.57H351.67z M351.67,477.3
			l-2.64-4.57l2.64-4.57h5.71l2.64,4.57l-2.64,4.57H351.67z M351.67,466.97l-2.64-4.57l2.64-4.57h5.71l2.64,4.57l-2.64,4.57H351.67z
			 M351.67,456.63l-2.64-4.57l2.64-4.57h5.71l2.64,4.57l-2.64,4.57H351.67z M351.67,446.3l-2.64-4.57l2.64-4.57h5.71l2.64,4.57
			l-2.64,4.57H351.67z M351.67,435.97l-2.64-4.57l2.64-4.57h5.71l2.64,4.57l-2.64,4.57H351.67z M350.84,426.23l-2.64,4.57h-5.71
			l-2.64-4.57l2.64-4.57h5.71L350.84,426.23z M348.2,432l2.64,4.57l-2.64,4.57h-5.71l-2.64-4.57l2.64-4.57H348.2z M348.2,442.33
			l2.64,4.57l-2.64,4.57h-5.71l-2.64-4.57l2.64-4.57H348.2z M348.2,452.66l2.64,4.57l-2.64,4.57h-5.71l-2.64-4.57l2.64-4.57H348.2z
			 M348.2,462.99l2.64,4.57l-2.64,4.57h-5.71l-2.64-4.57l2.64-4.57H348.2z M348.2,473.32l2.64,4.57l-2.64,4.57h-5.71l-2.64-4.57
			l2.64-4.57H348.2z M348.2,483.66l2.64,4.57l-2.64,4.57h-5.71l-2.64-4.57l2.64-4.57H348.2z M348.2,493.99l2.64,4.57l-2.64,4.57
			h-5.71l-2.64-4.57l2.64-4.57H348.2z M341.67,503.72l-2.64,4.57h-5.71l-2.64-4.57l2.64-4.57h5.71L341.67,503.72z M339.02,509.49
			l2.64,4.57l-2.64,4.57h-5.71l-2.64-4.57l2.64-4.57H339.02z M339.02,519.82l2.64,4.57l-2.64,4.57h-5.71l-2.64-4.57l2.64-4.57
			H339.02z M339.02,530.15l2.64,4.57l-2.64,4.57h-5.71l-2.64-4.57l2.64-4.57H339.02z M342.49,535.32h5.71l2.64,4.57l-2.64,4.57
			h-5.71l-2.64-4.57L342.49,535.32z M349.02,534.72l2.64-4.57h5.71l2.64,4.57l-2.64,4.57h-5.71L349.02,534.72z M358.2,529.55
			l2.64-4.57h5.71l2.64,4.57l-2.64,4.57h-5.71L358.2,529.55z M360.84,523.79l-2.64-4.57l2.64-4.57h5.71l2.64,4.57l-2.64,4.57H360.84
			z M366.55,513.46h-5.71l-2.64-4.57l2.64-4.57h5.71l2.64,4.57L366.55,513.46z M360.84,503.13l-2.64-4.57l2.64-4.57h5.71l2.64,4.57
			l-2.64,4.57H360.84z M360.84,492.8l-2.64-4.57l2.64-4.57h5.71l2.64,4.57l-2.64,4.57H360.84z M360.84,482.46l-2.64-4.57l2.64-4.57
			h5.71l2.64,4.57l-2.64,4.57H360.84z M360.84,472.13l-2.64-4.57l2.64-4.57h5.71l2.64,4.57l-2.64,4.57H360.84z M360.84,461.8
			l-2.64-4.57l2.64-4.57h5.71l2.64,4.57l-2.64,4.57H360.84z M360.84,451.47l-2.64-4.57l2.64-4.57h5.71l2.64,4.57l-2.64,4.57H360.84z
			 M360.84,441.14l-2.64-4.57l2.64-4.57h5.71l2.64,4.57l-2.64,4.57H360.84z M360.84,430.8l-2.64-4.57l2.64-4.57h5.71l2.64,4.57
			l-2.64,4.57H360.84z M360.84,420.47l-2.64-4.57l2.64-4.57h5.71l2.64,4.57l-2.64,4.57H360.84z M360.84,410.14l-2.64-4.57l2.64-4.57
			h5.71l2.64,4.57l-2.64,4.57H360.84z M360.84,399.81l-2.64-4.57l2.64-4.57h5.71l2.64,4.57l-2.64,4.57H360.84z M360.84,389.48
			l-2.64-4.57l2.64-4.57h5.71l2.64,4.57l-2.64,4.57H360.84z M360.84,379.14l-2.64-4.57l2.64-4.57h5.71l2.64,4.57l-2.64,4.57H360.84z
			 M360.84,368.81l-2.64-4.57l2.64-4.57h5.71l2.64,4.57l-2.64,4.57H360.84z M360.84,358.48l-2.64-4.57l2.64-4.57h5.71l2.64,4.57
			l-2.64,4.57H360.84z M360.84,348.15l-2.64-4.57l2.64-4.57h5.71l2.64,4.57l-2.64,4.57H360.84z M360.84,337.82l-2.64-4.57l2.64-4.57
			h5.71l2.64,4.57l-2.64,4.57H360.84z M366.55,327.49h-5.71l-2.64-4.57l2.64-4.57h5.71l2.64,4.57L366.55,327.49z M360.84,317.15
			l-2.64-4.57l2.64-4.57h5.71l2.64,4.57l-2.64,4.57H360.84z M360.84,306.82l-2.64-4.57l2.64-4.57h5.71l2.64,4.57l-2.64,4.57H360.84z
			 M360.84,296.49l-2.64-4.57l2.64-4.57h5.71l2.64,4.57l-2.64,4.57H360.84z M360.84,286.16l-2.64-4.57l2.64-4.57h5.71l2.64,4.57
			l-2.64,4.57H360.84z M360.84,275.82l-2.64-4.57l2.64-4.57h5.71l2.64,4.57l-2.64,4.57H360.84z M360.02,266.09l-2.64,4.57h-5.71
			l-2.64-4.57l2.64-4.57h5.71L360.02,266.09z M357.38,271.85l2.64,4.57l-2.64,4.57h-5.71l-2.64-4.57l2.64-4.57H357.38z
			 M357.38,282.18l2.64,4.57l-2.64,4.57h-5.71l-2.64-4.57l2.64-4.57H357.38z M357.38,292.52l2.64,4.57l-2.64,4.57h-5.71l-2.64-4.57
			l2.64-4.57H357.38z M357.38,302.85l2.64,4.57l-2.64,4.57h-5.71l-2.64-4.57l2.64-4.57H357.38z M351.67,313.18h5.71l2.64,4.57
			l-2.64,4.57h-5.71l-2.64-4.57L351.67,313.18z M357.38,323.51l2.64,4.57l-2.64,4.57h-5.71l-2.64-4.57l2.64-4.57H357.38z
			 M357.38,333.84l2.64,4.57l-2.64,4.57h-5.71l-2.64-4.57l2.64-4.57H357.38z M350.84,343.58l-2.64,4.57h-5.71l-2.64-4.57l2.64-4.57
			h5.71L350.84,343.58z M348.2,349.34l2.64,4.57l-2.64,4.57h-5.71l-2.64-4.57l2.64-4.57H348.2z M348.2,359.67l2.64,4.57l-2.64,4.57
			h-5.71l-2.64-4.57l2.64-4.57H348.2z M348.2,370.01l2.64,4.57l-2.64,4.57h-5.71l-2.64-4.57l2.64-4.57H348.2z M342.49,380.34h5.71
			l2.64,4.57l-2.64,4.57h-5.71l-2.64-4.57L342.49,380.34z M348.2,390.67l2.64,4.57l-2.64,4.57h-5.71l-2.64-4.57l2.64-4.57H348.2z
			 M348.2,401l2.64,4.57l-2.64,4.57h-5.71l-2.64-4.57l2.64-4.57H348.2z M348.2,411.33l2.64,4.57l-2.64,4.57h-5.71l-2.64-4.57
			l2.64-4.57H348.2z M341.67,421.07l-2.64,4.57h-5.71l-2.64-4.57l2.64-4.57h5.71L341.67,421.07z M339.02,426.83l2.64,4.57
			l-2.64,4.57h-5.71l-2.64-4.57l2.64-4.57H339.02z M339.02,437.16l2.64,4.57l-2.64,4.57h-5.71l-2.64-4.57l2.64-4.57H339.02z
			 M333.31,447.49h5.71l2.64,4.57l-2.64,4.57h-5.71l-2.64-4.57L333.31,447.49z M339.02,457.83l2.64,4.57l-2.64,4.57h-5.71
			l-2.64-4.57l2.64-4.57H339.02z M339.02,468.16l2.64,4.57l-2.64,4.57h-5.71l-2.64-4.57l2.64-4.57H339.02z M339.02,478.49l2.64,4.57
			l-2.64,4.57h-5.71l-2.64-4.57l2.64-4.57H339.02z M339.02,488.82l2.64,4.57l-2.64,4.57h-5.71l-2.64-4.57l2.64-4.57H339.02z
			 M332.49,498.56l-2.64,4.57h-5.71l-2.64-4.57l2.64-4.57h5.71L332.49,498.56z M329.85,504.32l2.64,4.57l-2.64,4.57h-5.71
			l-2.64-4.57l2.64-4.57H329.85z M329.85,514.65l2.64,4.57l-2.64,4.57h-5.71l-2.64-4.57l2.64-4.57H329.85z M329.85,524.98l2.64,4.57
			l-2.64,4.57h-5.71l-2.64-4.57l2.64-4.57H329.85z M329.85,535.32l2.64,4.57l-2.64,4.57h-5.71l-2.64-4.57l2.64-4.57H329.85z
			 M329.85,545.65l2.64,4.57l-2.64,4.57h-5.71l-2.64-4.57l2.64-4.57H329.85z M330.67,545.05l2.64-4.57h5.71l2.64,4.57l-2.64,4.57
			h-5.71L330.67,545.05z M342.49,545.65h5.71l2.64,4.57l-2.64,4.57h-5.71l-2.64-4.57L342.49,545.65z M349.02,545.05l2.64-4.57h5.71
			l2.64,4.57l-2.64,4.57h-5.71L349.02,545.05z M358.2,539.89l2.64-4.57h5.71l2.64,4.57l-2.64,4.57h-5.71L358.2,539.89z
			 M370.02,540.48h5.71l2.64,4.57l-2.64,4.57h-5.71l-2.64-4.57L370.02,540.48z M370.02,539.29l-2.64-4.57l2.64-4.57h5.71l2.64,4.57
			l-2.64,4.57H370.02z M370.02,528.96l-2.64-4.57l2.64-4.57h5.71l2.64,4.57l-2.64,4.57H370.02z M370.02,518.63l-2.64-4.57l2.64-4.57
			h5.71l2.64,4.57l-2.64,4.57H370.02z M370.02,508.29l-2.64-4.57l2.64-4.57h5.71l2.64,4.57l-2.64,4.57H370.02z M370.02,497.96
			l-2.64-4.57l2.64-4.57h5.71l2.64,4.57l-2.64,4.57H370.02z M370.02,487.63l-2.64-4.57l2.64-4.57h5.71l2.64,4.57l-2.64,4.57H370.02z
			 M370.02,477.3l-2.64-4.57l2.64-4.57h5.71l2.64,4.57l-2.64,4.57H370.02z M370.02,466.97l-2.64-4.57l2.64-4.57h5.71l2.64,4.57
			l-2.64,4.57H370.02z M370.02,456.63l-2.64-4.57l2.64-4.57h5.71l2.64,4.57l-2.64,4.57H370.02z M370.02,446.3l-2.64-4.57l2.64-4.57
			h5.71l2.64,4.57l-2.64,4.57H370.02z M370.02,435.97l-2.64-4.57l2.64-4.57h5.71l2.64,4.57l-2.64,4.57H370.02z M370.02,425.64
			l-2.64-4.57l2.64-4.57h5.71l2.64,4.57l-2.64,4.57H370.02z M370.02,415.31l-2.64-4.57l2.64-4.57h5.71l2.64,4.57l-2.64,4.57H370.02z
			 M370.02,404.97l-2.64-4.57l2.64-4.57h5.71l2.64,4.57l-2.64,4.57H370.02z M370.02,394.64l-2.64-4.57l2.64-4.57h5.71l2.64,4.57
			l-2.64,4.57H370.02z M370.02,384.31l-2.64-4.57l2.64-4.57h5.71l2.64,4.57l-2.64,4.57H370.02z M370.02,373.98l-2.64-4.57l2.64-4.57
			h5.71l2.64,4.57l-2.64,4.57H370.02z M370.02,363.65l-2.64-4.57l2.64-4.57h5.71l2.64,4.57l-2.64,4.57H370.02z M370.02,353.31
			l-2.64-4.57l2.64-4.57h5.71l2.64,4.57l-2.64,4.57H370.02z M370.02,342.98l-2.64-4.57l2.64-4.57h5.71l2.64,4.57l-2.64,4.57H370.02z
			 M370.02,332.65l-2.64-4.57l2.64-4.57h5.71l2.64,4.57l-2.64,4.57H370.02z M370.02,322.32l-2.64-4.57l2.64-4.57h5.71l2.64,4.57
			l-2.64,4.57H370.02z M370.02,311.99l-2.64-4.57l2.64-4.57h5.71l2.64,4.57l-2.64,4.57H370.02z M370.02,301.65l-2.64-4.57l2.64-4.57
			h5.71l2.64,4.57l-2.64,4.57H370.02z M370.02,291.32l-2.64-4.57l2.64-4.57h5.71l2.64,4.57l-2.64,4.57H370.02z M370.02,280.99
			l-2.64-4.57l2.64-4.57h5.71l2.64,4.57l-2.64,4.57H370.02z M370.02,270.66l-2.64-4.57l2.64-4.57h5.71l2.64,4.57l-2.64,4.57H370.02z
			 M375.73,260.33h-5.71l-2.64-4.57l2.64-4.57h5.71l2.64,4.57L375.73,260.33z M370.02,250l-2.64-4.57l2.64-4.57h5.71l2.64,4.57
			l-2.64,4.57H370.02z M369.2,240.26l-2.64,4.57h-5.71l-2.64-4.57l2.64-4.57h5.71L369.2,240.26z M360.02,245.43l-2.64,4.57h-5.71
			l-2.64-4.57l2.64-4.57h5.71L360.02,245.43z M357.38,251.19l2.64,4.57l-2.64,4.57h-5.71l-2.64-4.57l2.64-4.57H357.38z
			 M350.84,260.92l-2.64,4.57h-5.71l-2.64-4.57l2.64-4.57h5.71L350.84,260.92z M348.2,266.69l2.64,4.57l-2.64,4.57h-5.71l-2.64-4.57
			l2.64-4.57H348.2z M348.2,277.02l2.64,4.57l-2.64,4.57h-5.71l-2.64-4.57l2.64-4.57H348.2z M348.2,287.35l2.64,4.57l-2.64,4.57
			h-5.71l-2.64-4.57l2.64-4.57H348.2z M348.2,297.68l2.64,4.57l-2.64,4.57h-5.71l-2.64-4.57l2.64-4.57H348.2z M348.2,308.01
			l2.64,4.57l-2.64,4.57h-5.71l-2.64-4.57l2.64-4.57H348.2z M348.2,318.35l2.64,4.57l-2.64,4.57h-5.71l-2.64-4.57l2.64-4.57H348.2z
			 M348.2,328.68l2.64,4.57l-2.64,4.57h-5.71l-2.64-4.57l2.64-4.57H348.2z M341.67,338.41l-2.64,4.57h-5.71l-2.64-4.57l2.64-4.57
			h5.71L341.67,338.41z M339.02,344.17l2.64,4.57l-2.64,4.57h-5.71l-2.64-4.57l2.64-4.57H339.02z M339.02,354.51l2.64,4.57
			l-2.64,4.57h-5.71l-2.64-4.57l2.64-4.57H339.02z M339.02,364.84l2.64,4.57l-2.64,4.57h-5.71l-2.64-4.57l2.64-4.57H339.02z
			 M339.02,375.17l2.64,4.57l-2.64,4.57h-5.71l-2.64-4.57l2.64-4.57H339.02z M339.02,385.5l2.64,4.57l-2.64,4.57h-5.71l-2.64-4.57
			l2.64-4.57H339.02z M339.02,395.83l2.64,4.57l-2.64,4.57h-5.71l-2.64-4.57l2.64-4.57H339.02z M339.02,406.17l2.64,4.57l-2.64,4.57
			h-5.71l-2.64-4.57l2.64-4.57H339.02z M332.49,415.9l-2.64,4.57h-5.71l-2.64-4.57l2.64-4.57h5.71L332.49,415.9z M329.85,421.66
			l2.64,4.57l-2.64,4.57h-5.71l-2.64-4.57l2.64-4.57H329.85z M329.85,432l2.64,4.57l-2.64,4.57h-5.71l-2.64-4.57l2.64-4.57H329.85z
			 M329.85,442.33l2.64,4.57l-2.64,4.57h-5.71l-2.64-4.57l2.64-4.57H329.85z M329.85,452.66l2.64,4.57l-2.64,4.57h-5.71l-2.64-4.57
			l2.64-4.57H329.85z M329.85,462.99l2.64,4.57l-2.64,4.57h-5.71l-2.64-4.57l2.64-4.57H329.85z M329.85,473.32l2.64,4.57l-2.64,4.57
			h-5.71l-2.64-4.57l2.64-4.57H329.85z M329.85,483.66l2.64,4.57l-2.64,4.57h-5.71l-2.64-4.57l2.64-4.57H329.85z M323.31,493.39
			l-2.64,4.57h-5.71l-2.64-4.57l2.64-4.57h5.71L323.31,493.39z M320.67,499.15l2.64,4.57l-2.64,4.57h-5.71l-2.64-4.57l2.64-4.57
			H320.67z M320.67,509.49l2.64,4.57l-2.64,4.57h-5.71l-2.64-4.57l2.64-4.57H320.67z M320.67,519.82l2.64,4.57l-2.64,4.57h-5.71
			l-2.64-4.57l2.64-4.57H320.67z M320.67,530.15l2.64,4.57l-2.64,4.57h-5.71l-2.64-4.57l2.64-4.57H320.67z M320.67,540.48l2.64,4.57
			l-2.64,4.57h-5.71l-2.64-4.57l2.64-4.57H320.67z M329.85,565.12h-5.71l-2.64-4.57l2.64-4.57h5.71l2.64,4.57L329.85,565.12z
			 M333.31,559.95l-2.64-4.57l2.64-4.57h5.71l2.64,4.57l-2.64,4.57H333.31z M348.2,565.12h-5.71l-2.64-4.57l2.64-4.57h5.71
			l2.64,4.57L348.2,565.12z M357.38,559.95h-5.71l-2.64-4.57l2.64-4.57h5.71l2.64,4.57L357.38,559.95z M360.84,554.79l-2.64-4.57
			l2.64-4.57h5.71l2.64,4.57l-2.64,4.57H360.84z M375.73,559.95h-5.71l-2.64-4.57l2.64-4.57h5.71l2.64,4.57L375.73,559.95z
			 M387.55,550.22l-2.64,4.57h-5.71l-2.64-4.57l2.64-4.57h5.71L387.55,550.22z M387.55,539.89l-2.64,4.57h-5.71l-2.64-4.57
			l2.64-4.57h5.71L387.55,539.89z M387.55,529.55l-2.64,4.57h-5.71l-2.64-4.57l2.64-4.57h5.71L387.55,529.55z M387.55,519.22
			l-2.64,4.57h-5.71l-2.64-4.57l2.64-4.57h5.71L387.55,519.22z M387.55,508.89l-2.64,4.57h-5.71l-2.64-4.57l2.64-4.57h5.71
			L387.55,508.89z M387.55,498.56l-2.64,4.57h-5.71l-2.64-4.57l2.64-4.57h5.71L387.55,498.56z M387.55,488.23l-2.64,4.57h-5.71
			l-2.64-4.57l2.64-4.57h5.71L387.55,488.23z M387.55,477.89l-2.64,4.57h-5.71l-2.64-4.57l2.64-4.57h5.71L387.55,477.89z
			 M387.55,467.56l-2.64,4.57h-5.71l-2.64-4.57l2.64-4.57h5.71L387.55,467.56z M387.55,457.23l-2.64,4.57h-5.71l-2.64-4.57
			l2.64-4.57h5.71L387.55,457.23z M387.55,446.9l-2.64,4.57h-5.71l-2.64-4.57l2.64-4.57h5.71L387.55,446.9z M387.55,436.57
			l-2.64,4.57h-5.71l-2.64-4.57l2.64-4.57h5.71L387.55,436.57z M387.55,426.23l-2.64,4.57h-5.71l-2.64-4.57l2.64-4.57h5.71
			L387.55,426.23z M387.55,415.9l-2.64,4.57h-5.71l-2.64-4.57l2.64-4.57h5.71L387.55,415.9z M387.55,405.57l-2.64,4.57h-5.71
			l-2.64-4.57l2.64-4.57h5.71L387.55,405.57z M387.55,395.24l-2.64,4.57h-5.71l-2.64-4.57l2.64-4.57h5.71L387.55,395.24z
			 M387.55,384.91l-2.64,4.57h-5.71l-2.64-4.57l2.64-4.57h5.71L387.55,384.91z M387.55,374.57l-2.64,4.57h-5.71l-2.64-4.57
			l2.64-4.57h5.71L387.55,374.57z M387.55,364.24l-2.64,4.57h-5.71l-2.64-4.57l2.64-4.57h5.71L387.55,364.24z M387.55,353.91
			l-2.64,4.57h-5.71l-2.64-4.57l2.64-4.57h5.71L387.55,353.91z M387.55,343.58l-2.64,4.57h-5.71l-2.64-4.57l2.64-4.57h5.71
			L387.55,343.58z M387.55,333.25l-2.64,4.57h-5.71l-2.64-4.57l2.64-4.57h5.71L387.55,333.25z M387.55,322.91l-2.64,4.57h-5.71
			l-2.64-4.57l2.64-4.57h5.71L387.55,322.91z M387.55,312.58l-2.64,4.57h-5.71l-2.64-4.57l2.64-4.57h5.71L387.55,312.58z
			 M387.55,302.25l-2.64,4.57h-5.71l-2.64-4.57l2.64-4.57h5.71L387.55,302.25z M387.55,291.92l-2.64,4.57h-5.71l-2.64-4.57
			l2.64-4.57h5.71L387.55,291.92z M387.55,281.59l-2.64,4.57h-5.71l-2.64-4.57l2.64-4.57h5.71L387.55,281.59z M387.55,271.26
			l-2.64,4.57h-5.71l-2.64-4.57l2.64-4.57h5.71L387.55,271.26z M387.55,260.92l-2.64,4.57h-5.71l-2.64-4.57l2.64-4.57h5.71
			L387.55,260.92z M387.55,250.59l-2.64,4.57h-5.71l-2.64-4.57l2.64-4.57h5.71L387.55,250.59z M387.55,240.26l-2.64,4.57h-5.71
			l-2.64-4.57l2.64-4.57h5.71L387.55,240.26z M387.55,229.93l-2.64,4.57h-5.71l-2.64-4.57l2.64-4.57h5.71L387.55,229.93z
			 M387.55,219.6l-2.64,4.57h-5.71l-2.64-4.57l2.64-4.57h5.71L387.55,219.6z M379.2,204.69h5.71l2.64,4.57l-2.64,4.57h-5.71
			l-2.64-4.57L379.2,204.69z M370.02,209.86h5.71l2.64,4.57l-2.64,4.57h-5.71l-2.64-4.57L370.02,209.86z M358.2,219.6l2.64-4.57
			h5.71l2.64,4.57l-2.64,4.57h-5.71L358.2,219.6z M360.84,225.36h5.71l2.64,4.57l-2.64,4.57h-5.71l-2.64-4.57L360.84,225.36z
			 M351.67,230.52h5.71l2.64,4.57l-2.64,4.57h-5.71l-2.64-4.57L351.67,230.52z M339.85,240.26l2.64-4.57h5.71l2.64,4.57l-2.64,4.57
			h-5.71L339.85,240.26z M342.49,246.02h5.71l2.64,4.57l-2.64,4.57h-5.71l-2.64-4.57L342.49,246.02z M330.67,255.76l2.64-4.57h5.71
			l2.64,4.57l-2.64,4.57h-5.71L330.67,255.76z M330.67,266.09l2.64-4.57h5.71l2.64,4.57l-2.64,4.57h-5.71L330.67,266.09z
			 M330.67,276.42l2.64-4.57h5.71l2.64,4.57l-2.64,4.57h-5.71L330.67,276.42z M330.67,286.75l2.64-4.57h5.71l2.64,4.57l-2.64,4.57
			h-5.71L330.67,286.75z M330.67,297.09l2.64-4.57h5.71l2.64,4.57l-2.64,4.57h-5.71L330.67,297.09z M330.67,307.42l2.64-4.57h5.71
			l2.64,4.57l-2.64,4.57h-5.71L330.67,307.42z M330.67,317.75l2.64-4.57h5.71l2.64,4.57l-2.64,4.57h-5.71L330.67,317.75z
			 M333.31,323.51h5.71l2.64,4.57l-2.64,4.57h-5.71l-2.64-4.57L333.31,323.51z M321.49,333.25l2.64-4.57h5.71l2.64,4.57l-2.64,4.57
			h-5.71L321.49,333.25z M321.49,343.58l2.64-4.57h5.71l2.64,4.57l-2.64,4.57h-5.71L321.49,343.58z M321.49,353.91l2.64-4.57h5.71
			l2.64,4.57l-2.64,4.57h-5.71L321.49,353.91z M321.49,364.24l2.64-4.57h5.71l2.64,4.57l-2.64,4.57h-5.71L321.49,364.24z
			 M321.49,374.57l2.64-4.57h5.71l2.64,4.57l-2.64,4.57h-5.71L321.49,374.57z M321.49,384.91l2.64-4.57h5.71l2.64,4.57l-2.64,4.57
			h-5.71L321.49,384.91z M321.49,395.24l2.64-4.57h5.71l2.64,4.57l-2.64,4.57h-5.71L321.49,395.24z M324.14,401h5.71l2.64,4.57
			l-2.64,4.57h-5.71l-2.64-4.57L324.14,401z M312.32,410.74l2.64-4.57h5.71l2.64,4.57l-2.64,4.57h-5.71L312.32,410.74z
			 M312.32,421.07l2.64-4.57h5.71l2.64,4.57l-2.64,4.57h-5.71L312.32,421.07z M312.32,431.4l2.64-4.57h5.71l2.64,4.57l-2.64,4.57
			h-5.71L312.32,431.4z M312.32,441.73l2.64-4.57h5.71l2.64,4.57l-2.64,4.57h-5.71L312.32,441.73z M312.32,452.06l2.64-4.57h5.71
			l2.64,4.57l-2.64,4.57h-5.71L312.32,452.06z M312.32,462.4l2.64-4.57h5.71l2.64,4.57l-2.64,4.57h-5.71L312.32,462.4z
			 M312.32,472.73l2.64-4.57h5.71l2.64,4.57l-2.64,4.57h-5.71L312.32,472.73z M314.96,478.49h5.71l2.64,4.57l-2.64,4.57h-5.71
			l-2.64-4.57L314.96,478.49z M303.14,488.23l2.64-4.57h5.71l2.64,4.57l-2.64,4.57h-5.71L303.14,488.23z M303.14,498.56l2.64-4.57
			h5.71l2.64,4.57l-2.64,4.57h-5.71L303.14,498.56z M303.14,508.89l2.64-4.57h5.71l2.64,4.57l-2.64,4.57h-5.71L303.14,508.89z
			 M303.14,519.22l2.64-4.57h5.71l2.64,4.57l-2.64,4.57h-5.71L303.14,519.22z M303.14,529.55l2.64-4.57h5.71l2.64,4.57l-2.64,4.57
			h-5.71L303.14,529.55z M303.14,539.89l2.64-4.57h5.71l2.64,4.57l-2.64,4.57h-5.71L303.14,539.89z M303.14,550.22l2.64-4.57h5.71
			l2.64,4.57l-2.64,4.57h-5.71L303.14,550.22z M305.78,555.98h5.71l2.64,4.57l-2.64,4.57h-5.71l-2.64-4.57L305.78,555.98z
			 M293.96,565.72l2.64-4.57h5.71l2.64,4.57l-2.64,4.57h-5.71L293.96,565.72z"/>
	</g>
	<g>
		<linearGradient id="SVGID_2_" gradientUnits="userSpaceOnUse" x1="149.5425" y1="175.58" x2="149.5425" y2="552.6111">
			<stop class="Gradient1 stopColor" offset="0" style="stop-color:#EDEDED;stop-opacity:0"/>
			<stop class="Gradient2 stopColor" offset="1" style="stop-color:#0F0F0F"/>
		</linearGradient>
		<path class="st1" d="M199.34,571.19l-0.18-0.31l2.38-4.11l-0.31-2.65l-2.07-3.57l1.37-2.37l-0.2-1.68l-1.99,3.45h-5.71l-2.64-4.57
			l2.64-4.57h5.71l1.66,2.88l-0.3-2.53l-0.54-0.94l0.36-0.62l-0.2-1.68l-0.99,1.71h-5.71l-2.64-4.57l2.64-4.57h5.71l0.14,0.25
			l-0.17-1.44h-5.68l-2.64-4.57l2.64-4.57h4.61l-0.14-1.19h-4.47l-2.64-4.57l2.64-4.57h3.4l-0.14-1.19h-3.26l-2.64-4.57l2.64-4.57
			h2.18l-0.14-1.19h-2.04l-2.64-4.57l2.64-4.57h0.97l-0.14-1.19h-0.83l-2.64-4.57l2.44-4.22l-0.28-2.37l-2.16-3.74l1.43-2.48
			l-0.2-1.68l-2.06,3.56h-5.71l-2.64-4.57l2.64-4.57h5.71l1.76,3.05l-0.3-2.54l-0.64-1.11l0.43-0.74l-0.2-1.68l-1.05,1.82h-5.71
			l-2.64-4.57l2.64-4.57h5.71l0.24,0.42l-0.2-1.69l-0.04,0.08h-5.71l-2.64-4.57l2.64-4.57h4.69l-0.14-1.19h-4.55l-2.64-4.57
			l2.64-4.57h3.48l-0.14-1.19h-3.34l-2.64-4.57l2.64-4.57h2.26l-0.14-1.19h-2.12l-2.64-4.57l2.64-4.57h1.05l-0.14-1.19h-0.91
			l-2.64-4.57l2.51-4.34l-0.24-2.08l-2.26-3.91l1.5-2.59l-0.2-1.68l-2.13,3.68h-5.71l-2.64-4.57l2.64-4.57h5.71l1.86,3.22l-0.3-2.54
			l-0.74-1.28l0.49-0.85l-0.2-1.68l-1.12,1.93h-5.71l-2.64-4.57l2.64-4.57h5.71l0.34,0.59l-0.23-1.97l-0.11,0.19h-5.71l-2.64-4.57
			l2.64-4.57h4.77l-0.14-1.19h-4.63l-2.64-4.57l2.64-4.57h3.56l-0.14-1.19h-3.42l-2.64-4.57l2.64-4.57h2.34l-0.14-1.19h-2.2
			l-2.64-4.57l2.64-4.57h1.13l-0.14-1.19h-0.99l-2.64-4.57l2.57-4.45l-0.21-1.8l-2.36-4.09l1.57-2.71l-0.2-1.68l-2.19,3.79h-5.71
			l-2.64-4.57l2.64-4.57h5.71l1.96,3.39l-0.3-2.54l-0.84-1.45l0.56-0.96l-0.2-1.68l-1.18,2.05h-5.71l-2.64-4.57l2.64-4.57h5.71
			l0.44,0.76l-0.27-2.26l-0.18,0.3h-5.71l-2.64-4.57l2.64-4.57h4.85l-0.14-1.19h-4.71l-2.64-4.57l2.64-4.57h3.63l-0.14-1.19h-3.49
			l-2.64-4.57l2.64-4.57h2.42l-0.14-1.19h-2.28l-2.64-4.57l2.64-4.57h1.21l-0.14-1.19h-1.07l-2.64-4.57l2.64-4.56l-0.18-1.51
			l-2.46-4.26l1.63-2.82l-0.2-1.68l-2.26,3.9h-5.71l-2.64-4.57l2.64-4.57h5.71l2.06,3.57l-0.3-2.54l-0.94-1.63l0.62-1.08l-0.05-0.46
			l-0.56-0.5l-0.84,1.45h-5.71l-2.64-4.57l1.98-3.43l-0.77-0.7l-2.04,3.53h-5.71l-2.64-4.57l2.64-4.57h1.58l-1.31-1.19h-0.26
			l-0.29-0.5l-2.46-2.24l1.93,3.34l-2.64,4.57h-5.71l-2.64-4.57l2.64-4.57h5.07l-1.31-1.19h-3.76l-2.64-4.57l0.47-0.82l-0.77-0.7
			l-0.53,0.92h-5.71l-2.64-4.57l1.68-2.9l-0.77-0.7l-1.73,3h-5.71l-2.64-4.57l2.64-4.57h0.68l-2.45-2.23l0.94,1.63l-2.64,4.57h-5.71
			l-2.64-4.57l2.64-4.57h4.18l-1.31-1.19h-2.86l-2.64-4.57l0.17-0.29l-0.77-0.7l-0.22,0.39h-5.71l-2.64-4.57l1.37-2.37l-0.77-0.7
			l-1.27,2.2c0.08,0.72,0.17,1.43,0.25,2.16l2.24,3.87l-1.6,2.76c0.05,0.59,0.09,1.19,0.14,1.78l2.28-3.94h5.71l2.64,4.57
			l-2.64,4.57h-5.71l-2.18-3.77c0.06,0.77,0.11,1.53,0.16,2.3l1.19,2.06l-0.98,1.69c0.03,0.62,0.06,1.24,0.09,1.87l1.71-2.96h5.71
			l2.64,4.57l-2.64,4.57h-5.71l-1.52-2.64c0.04,0.51,0.09,1.28,0.16,2.3l0.54,0.93L99.61,210c0.04,0.56,0.08,1.16,0.12,1.81
			l1.13-1.95h5.71l2.64,4.57l-2.64,4.57h-5.71l-0.75-1.29c0.07,1.07,0.14,2.21,0.21,3.4l0.53-0.92h5.71l2.64,4.57l-2.64,4.57h-5.71
			l-0.05-0.08c0.02,0.42,0.05,0.85,0.07,1.28h5.68l2.64,4.57l-2.64,4.57h-5.18c0.02,0.39,0.04,0.79,0.06,1.19h5.11l2.64,4.57
			l-2.64,4.57h-4.64c0.02,0.39,0.04,0.79,0.06,1.19h4.58l2.64,4.57l-2.64,4.57h-4.13c0.02,0.4,0.04,0.79,0.06,1.19h4.08l2.64,4.57
			l-2.64,4.57h-3.67c0.02,0.4,0.03,0.79,0.05,1.19h3.62l2.64,4.57l-2.64,4.57h-3.24c0.02,0.4,0.03,0.79,0.05,1.19h3.19l2.64,4.57
			l-2.64,4.57h-2.84c0.01,0.4,0.03,0.8,0.04,1.19h2.8l2.64,4.57l-2.64,4.57h-2.48c0.01,0.4,0.03,0.79,0.04,1.19h2.44l2.64,4.57
			l-2.64,4.57h-2.16c0.01,0.4,0.02,0.79,0.04,1.19h2.12l2.64,4.57l-2.64,4.57h-1.87c0.01,0.4,0.02,0.79,0.03,1.19h1.84l2.64,4.57
			l-2.64,4.57h-1.62c0.01,0.4,0.02,0.79,0.03,1.19h1.59l2.64,4.57l-2.64,4.57h-1.4c0.01,0.4,0.02,0.79,0.02,1.19h1.37l2.64,4.57
			l-2.64,4.57h-1.22c0.01,0.4,0.01,0.79,0.02,1.19h1.2l2.64,4.57l-2.64,4.57h-1.08c0,0.4,0.01,0.79,0.01,1.19h1.06l2.64,4.57
			l-2.64,4.57h-0.97c0,0.4,0.01,0.79,0.01,1.19h0.96l2.64,4.57l-2.64,4.57h-0.91c0,0.4,0,0.79,0.01,1.19h0.9l2.64,4.57l-2.64,4.57
			h-0.89c0,0.4,0,0.79,0,1.19h0.89l2.64,4.57l-2.64,4.57h-0.91c0,0.4,0,0.8-0.01,1.19h0.92l2.64,4.57l-2.64,4.57h-0.97
			c0,0.4-0.01,0.8-0.01,1.19h0.99l2.64,4.57l-2.64,4.57h-1.09c-0.01,0.4-0.01,0.79-0.02,1.19h1.1l2.64,4.57l-2.64,4.57h-1.25
			c-0.01,0.4-0.01,0.79-0.02,1.19h1.27l2.64,4.57l-2.64,4.57h-1.46c-0.01,0.4-0.02,0.79-0.03,1.19h1.49l2.64,4.57l-2.64,4.57h-1.72
			c-0.01,0.4-0.02,0.8-0.03,1.19h1.75l2.64,4.57l-2.64,4.57h-2.04c-0.01,0.4-0.03,0.8-0.04,1.19h2.08l2.64,4.57l-2.64,4.57h-2.41
			c-0.02,0.4-0.03,0.8-0.05,1.19h2.46l2.64,4.57l-2.64,4.57h-2.85c-0.02,0.4-0.04,0.8-0.05,1.19h2.9l2.64,4.57l-2.64,4.57h-3.35
			c-0.02,0.4-0.04,0.8-0.06,1.19h3.41l2.64,4.57l-2.64,4.57h-3.92c-0.02,0.4-0.05,0.8-0.07,1.19h3.99l2.64,4.57l-2.64,4.57h-4.56
			c-0.03,0.4-0.05,0.8-0.08,1.19h4.63l2.64,4.57l-2.64,4.57h-5.27c-0.03,0.4-0.06,0.8-0.09,1.19h5.36l2.64,4.57l-2.64,4.57h-5.71
			l-0.32-0.55c-0.07,0.89-0.15,1.79-0.22,2.68l0.54-0.93h5.71l2.64,4.57l-2.64,4.57h-5.71l-1.09-1.88c-0.05,0.58-0.1,1.17-0.16,1.75
			l0.42,0.72l-0.57,0.99c-0.06,0.65-0.12,1.3-0.18,1.96c0,0,0.05,0.04,0.16,0.1l1.42-2.45h5.71l2.64,4.57l-0.9,1.55
			c0.32,0.1,0.65,0.21,0.98,0.32l0.74-1.27h5.71l2.15,3.71c1.86,0.47,3.89,0.96,6.1,1.45h0.93l0.14,0.24
			c0.44,0.1,0.88,0.19,1.34,0.29l-0.65-1.12l2.64-4.57h5.71l2.64,4.57l-1.65,2.85c0.35,0.06,0.7,0.13,1.06,0.19l1.41-2.44h5.71
			l2.33,4.04c2.55,0.4,5.23,0.8,8.05,1.19l-0.38-0.66l2.64-4.57h5.71l2.64,4.57l-1.1,1.91c0.36,0.04,0.73,0.09,1.09,0.13l0.84-1.44
			h5.71l1.36,2.36c0.42,0.05,0.83,0.09,1.25,0.14l-1.79-3.09l2.64-4.57h5.71l2.64,4.57l-2.2,3.81c0.37,0.04,0.74,0.07,1.11,0.11
			l1.92-3.32h5.71l2.46,4.24C194.12,570.77,196.7,570.98,199.34,571.19z M174.27,559.95l-2.64-4.57l2.64-4.57h5.71l2.64,4.57
			l-2.64,4.57H174.27z M124.93,230.52l2.64,4.57l-2.64,4.57h-5.71l-2.64-4.57l2.64-4.57H124.93z M124.93,229.33h-5.71l-2.64-4.57
			l2.64-4.57h5.71l2.64,4.57L124.93,229.33z M134.1,256.35l2.64,4.57l-2.64,4.57h-5.71l-2.64-4.57l2.64-4.57H134.1z M134.1,255.16
			h-5.71l-2.64-4.57l2.64-4.57h5.71l2.64,4.57L134.1,255.16z M143.28,354.51l2.64,4.57l-2.64,4.57h-5.71l-2.64-4.57l2.64-4.57
			H143.28z M143.28,353.31h-5.71l-2.64-4.57l2.64-4.57h5.71l2.64,4.57L143.28,353.31z M143.28,364.84l2.64,4.57l-2.64,4.57h-5.71
			l-2.64-4.57l2.64-4.57H143.28z M143.28,375.17l2.64,4.57l-2.64,4.57h-5.71l-2.64-4.57l2.64-4.57H143.28z M143.28,385.5l2.64,4.57
			l-2.64,4.57h-5.71l-2.64-4.57l2.64-4.57H143.28z M143.28,395.83l2.64,4.57l-2.64,4.57h-5.71l-2.64-4.57l2.64-4.57H143.28z
			 M143.28,406.17l2.64,4.57l-2.64,4.57h-5.71l-2.64-4.57l2.64-4.57H143.28z M143.28,416.5l2.64,4.57l-2.64,4.57h-5.71l-2.64-4.57
			l2.64-4.57H143.28z M152.45,514.65l2.64,4.57l-2.64,4.57h-5.71l-2.64-4.57l2.64-4.57H152.45z M152.45,513.46h-5.71l-2.64-4.57
			l2.64-4.57h5.71l2.64,4.57L152.45,513.46z M152.45,524.98l2.64,4.57l-2.64,4.57h-5.71l-2.64-4.57l2.64-4.57H152.45z
			 M143.28,528.96h-5.71l-2.64-4.57l2.64-4.57h5.71l2.64,4.57L143.28,528.96z M137.57,518.63l-2.64-4.57l2.64-4.57h5.71l2.64,4.57
			l-2.64,4.57H137.57z M137.57,508.29l-2.64-4.57l2.64-4.57h5.71l2.64,4.57l-2.64,4.57H137.57z M137.57,497.96l-2.64-4.57l2.64-4.57
			h5.71l2.64,4.57l-2.64,4.57H137.57z M137.57,487.63l-2.64-4.57l2.64-4.57h5.71l2.64,4.57l-2.64,4.57H137.57z M137.57,477.3
			l-2.64-4.57l2.64-4.57h5.71l2.64,4.57l-2.64,4.57H137.57z M137.57,466.97l-2.64-4.57l2.64-4.57h5.71l2.64,4.57l-2.64,4.57H137.57z
			 M137.57,456.63l-2.64-4.57l2.64-4.57h5.71l2.64,4.57l-2.64,4.57H137.57z M137.57,446.3l-2.64-4.57l2.64-4.57h5.71l2.64,4.57
			l-2.64,4.57H137.57z M137.57,435.97l-2.64-4.57l2.64-4.57h5.71l2.64,4.57l-2.64,4.57H137.57z M146.75,421.66h5.71l2.64,4.57
			l-2.64,4.57h-5.71l-2.64-4.57L146.75,421.66z M152.45,432l2.64,4.57l-2.64,4.57h-5.71l-2.64-4.57l2.64-4.57H152.45z
			 M152.45,442.33l2.64,4.57l-2.64,4.57h-5.71l-2.64-4.57l2.64-4.57H152.45z M152.45,452.66l2.64,4.57l-2.64,4.57h-5.71l-2.64-4.57
			l2.64-4.57H152.45z M152.45,462.99l2.64,4.57l-2.64,4.57h-5.71l-2.64-4.57l2.64-4.57H152.45z M152.45,473.32l2.64,4.57l-2.64,4.57
			h-5.71l-2.64-4.57l2.64-4.57H152.45z M152.45,483.66l2.64,4.57l-2.64,4.57h-5.71l-2.64-4.57l2.64-4.57H152.45z M152.45,493.99
			l2.64,4.57l-2.64,4.57h-5.71l-2.64-4.57l2.64-4.57H152.45z M155.92,499.15h5.71l2.64,4.57l-2.64,4.57h-5.71l-2.64-4.57
			L155.92,499.15z M161.63,509.49l2.64,4.57l-2.64,4.57h-5.71l-2.64-4.57l2.64-4.57H161.63z M161.63,519.82l2.64,4.57l-2.64,4.57
			h-5.71l-2.64-4.57l2.64-4.57H161.63z M161.63,530.15l2.64,4.57l-2.64,4.57h-5.71l-2.64-4.57l2.64-4.57H161.63z M155.1,539.89
			l-2.64,4.57h-5.71l-2.64-4.57l2.64-4.57h5.71L155.1,539.89z M143.28,539.29h-5.71l-2.64-4.57l2.64-4.57h5.71l2.64,4.57
			L143.28,539.29z M134.1,534.12h-5.71l-2.64-4.57l2.64-4.57h5.71l2.64,4.57L134.1,534.12z M128.39,523.79l-2.64-4.57l2.64-4.57
			h5.71l2.64,4.57l-2.64,4.57H128.39z M125.75,508.89l2.64-4.57h5.71l2.64,4.57l-2.64,4.57h-5.71L125.75,508.89z M128.39,503.13
			l-2.64-4.57l2.64-4.57h5.71l2.64,4.57l-2.64,4.57H128.39z M128.39,492.8l-2.64-4.57l2.64-4.57h5.71l2.64,4.57l-2.64,4.57H128.39z
			 M128.39,482.46l-2.64-4.57l2.64-4.57h5.71l2.64,4.57l-2.64,4.57H128.39z M128.39,472.13l-2.64-4.57l2.64-4.57h5.71l2.64,4.57
			l-2.64,4.57H128.39z M128.39,461.8l-2.64-4.57l2.64-4.57h5.71l2.64,4.57l-2.64,4.57H128.39z M128.39,451.47l-2.64-4.57l2.64-4.57
			h5.71l2.64,4.57l-2.64,4.57H128.39z M128.39,441.14l-2.64-4.57l2.64-4.57h5.71l2.64,4.57l-2.64,4.57H128.39z M128.39,430.8
			l-2.64-4.57l2.64-4.57h5.71l2.64,4.57l-2.64,4.57H128.39z M128.39,420.47l-2.64-4.57l2.64-4.57h5.71l2.64,4.57l-2.64,4.57H128.39z
			 M128.39,410.14l-2.64-4.57l2.64-4.57h5.71l2.64,4.57l-2.64,4.57H128.39z M128.39,399.81l-2.64-4.57l2.64-4.57h5.71l2.64,4.57
			l-2.64,4.57H128.39z M128.39,389.48l-2.64-4.57l2.64-4.57h5.71l2.64,4.57l-2.64,4.57H128.39z M128.39,379.14l-2.64-4.57l2.64-4.57
			h5.71l2.64,4.57l-2.64,4.57H128.39z M128.39,368.81l-2.64-4.57l2.64-4.57h5.71l2.64,4.57l-2.64,4.57H128.39z M128.39,358.48
			l-2.64-4.57l2.64-4.57h5.71l2.64,4.57l-2.64,4.57H128.39z M128.39,348.15l-2.64-4.57l2.64-4.57h5.71l2.64,4.57l-2.64,4.57H128.39z
			 M128.39,337.82l-2.64-4.57l2.64-4.57h5.71l2.64,4.57l-2.64,4.57H128.39z M125.75,322.91l2.64-4.57h5.71l2.64,4.57l-2.64,4.57
			h-5.71L125.75,322.91z M128.39,317.15l-2.64-4.57l2.64-4.57h5.71l2.64,4.57l-2.64,4.57H128.39z M128.39,306.82l-2.64-4.57
			l2.64-4.57h5.71l2.64,4.57l-2.64,4.57H128.39z M128.39,296.49l-2.64-4.57l2.64-4.57h5.71l2.64,4.57l-2.64,4.57H128.39z
			 M128.39,286.16l-2.64-4.57l2.64-4.57h5.71l2.64,4.57l-2.64,4.57H128.39z M128.39,275.82l-2.64-4.57l2.64-4.57h5.71l2.64,4.57
			l-2.64,4.57H128.39z M137.57,261.52h5.71l2.64,4.57l-2.64,4.57h-5.71l-2.64-4.57L137.57,261.52z M143.28,271.85l2.64,4.57
			l-2.64,4.57h-5.71l-2.64-4.57l2.64-4.57H143.28z M143.28,282.18l2.64,4.57l-2.64,4.57h-5.71l-2.64-4.57l2.64-4.57H143.28z
			 M143.28,292.52l2.64,4.57l-2.64,4.57h-5.71l-2.64-4.57l2.64-4.57H143.28z M143.28,302.85l2.64,4.57l-2.64,4.57h-5.71l-2.64-4.57
			l2.64-4.57H143.28z M145.92,317.75l-2.64,4.57h-5.71l-2.64-4.57l2.64-4.57h5.71L145.92,317.75z M143.28,323.51l2.64,4.57
			l-2.64,4.57h-5.71l-2.64-4.57l2.64-4.57H143.28z M143.28,333.84l2.64,4.57l-2.64,4.57h-5.71l-2.64-4.57l2.64-4.57H143.28z
			 M146.75,339.01h5.71l2.64,4.57l-2.64,4.57h-5.71l-2.64-4.57L146.75,339.01z M152.45,349.34l2.64,4.57l-2.64,4.57h-5.71
			l-2.64-4.57l2.64-4.57H152.45z M152.45,359.67l2.64,4.57l-2.64,4.57h-5.71l-2.64-4.57l2.64-4.57H152.45z M152.45,370.01l2.64,4.57
			l-2.64,4.57h-5.71l-2.64-4.57l2.64-4.57H152.45z M155.1,384.91l-2.64,4.57h-5.71l-2.64-4.57l2.64-4.57h5.71L155.1,384.91z
			 M152.45,390.67l2.64,4.57l-2.64,4.57h-5.71l-2.64-4.57l2.64-4.57H152.45z M152.45,401l2.64,4.57l-2.64,4.57h-5.71l-2.64-4.57
			l2.64-4.57H152.45z M152.45,411.33l2.64,4.57l-2.64,4.57h-5.71l-2.64-4.57l2.64-4.57H152.45z M155.92,416.5h5.71l2.64,4.57
			l-2.64,4.57h-5.71l-2.64-4.57L155.92,416.5z M161.63,426.83l2.64,4.57l-2.64,4.57h-5.71l-2.64-4.57l2.64-4.57H161.63z
			 M161.63,437.16l2.64,4.57l-2.64,4.57h-5.71l-2.64-4.57l2.64-4.57H161.63z M164.27,452.06l-2.64,4.57h-5.71l-2.64-4.57l2.64-4.57
			h5.71L164.27,452.06z M161.63,457.83l2.64,4.57l-2.64,4.57h-5.71l-2.64-4.57l2.64-4.57H161.63z M161.63,468.16l2.64,4.57
			l-2.64,4.57h-5.71l-2.64-4.57l2.64-4.57H161.63z M161.63,478.49l2.64,4.57l-2.64,4.57h-5.71l-2.64-4.57l2.64-4.57H161.63z
			 M161.63,488.82l2.64,4.57l-2.64,4.57h-5.71l-2.64-4.57l2.64-4.57H161.63z M165.1,493.99h5.71l2.64,4.57l-2.64,4.57h-5.71
			l-2.64-4.57L165.1,493.99z M170.81,504.32l2.64,4.57l-2.64,4.57h-5.71l-2.64-4.57l2.64-4.57H170.81z M170.81,514.65l2.64,4.57
			l-2.64,4.57h-5.71l-2.64-4.57l2.64-4.57H170.81z M170.81,524.98l2.64,4.57l-2.64,4.57h-5.71l-2.64-4.57l2.64-4.57H170.81z
			 M170.81,535.32l2.64,4.57l-2.64,4.57h-5.71l-2.64-4.57l2.64-4.57H170.81z M170.81,545.65l2.64,4.57l-2.64,4.57h-5.71l-2.64-4.57
			l2.64-4.57H170.81z M161.63,549.62h-5.71l-2.64-4.57l2.64-4.57h5.71l2.64,4.57L161.63,549.62z M155.1,550.22l-2.64,4.57h-5.71
			l-2.64-4.57l2.64-4.57h5.71L155.1,550.22z M143.28,549.62h-5.71l-2.64-4.57l2.64-4.57h5.71l2.64,4.57L143.28,549.62z
			 M134.1,544.46h-5.71l-2.64-4.57l2.64-4.57h5.71l2.64,4.57L134.1,544.46z M127.57,545.05l-2.64,4.57h-5.71l-2.64-4.57l2.64-4.57
			h5.71L127.57,545.05z M119.22,539.29l-2.64-4.57l2.64-4.57h5.71l2.64,4.57l-2.64,4.57H119.22z M119.22,528.96l-2.64-4.57
			l2.64-4.57h5.71l2.64,4.57l-2.64,4.57H119.22z M119.22,518.63l-2.64-4.57l2.64-4.57h5.71l2.64,4.57l-2.64,4.57H119.22z
			 M119.22,508.29l-2.64-4.57l2.64-4.57h5.71l2.64,4.57l-2.64,4.57H119.22z M119.22,497.96l-2.64-4.57l2.64-4.57h5.71l2.64,4.57
			l-2.64,4.57H119.22z M119.22,487.63l-2.64-4.57l2.64-4.57h5.71l2.64,4.57l-2.64,4.57H119.22z M119.22,477.3l-2.64-4.57l2.64-4.57
			h5.71l2.64,4.57l-2.64,4.57H119.22z M119.22,466.97l-2.64-4.57l2.64-4.57h5.71l2.64,4.57l-2.64,4.57H119.22z M119.22,456.63
			l-2.64-4.57l2.64-4.57h5.71l2.64,4.57l-2.64,4.57H119.22z M119.22,446.3l-2.64-4.57l2.64-4.57h5.71l2.64,4.57l-2.64,4.57H119.22z
			 M119.22,435.97l-2.64-4.57l2.64-4.57h5.71l2.64,4.57l-2.64,4.57H119.22z M119.22,425.64l-2.64-4.57l2.64-4.57h5.71l2.64,4.57
			l-2.64,4.57H119.22z M119.22,415.31l-2.64-4.57l2.64-4.57h5.71l2.64,4.57l-2.64,4.57H119.22z M119.22,404.97l-2.64-4.57l2.64-4.57
			h5.71l2.64,4.57l-2.64,4.57H119.22z M119.22,394.64l-2.64-4.57l2.64-4.57h5.71l2.64,4.57l-2.64,4.57H119.22z M119.22,384.31
			l-2.64-4.57l2.64-4.57h5.71l2.64,4.57l-2.64,4.57H119.22z M119.22,373.98l-2.64-4.57l2.64-4.57h5.71l2.64,4.57l-2.64,4.57H119.22z
			 M119.22,363.65l-2.64-4.57l2.64-4.57h5.71l2.64,4.57l-2.64,4.57H119.22z M119.22,353.31l-2.64-4.57l2.64-4.57h5.71l2.64,4.57
			l-2.64,4.57H119.22z M119.22,342.98l-2.64-4.57l2.64-4.57h5.71l2.64,4.57l-2.64,4.57H119.22z M119.22,332.65l-2.64-4.57l2.64-4.57
			h5.71l2.64,4.57l-2.64,4.57H119.22z M119.22,322.32l-2.64-4.57l2.64-4.57h5.71l2.64,4.57l-2.64,4.57H119.22z M119.22,311.99
			l-2.64-4.57l2.64-4.57h5.71l2.64,4.57l-2.64,4.57H119.22z M119.22,301.65l-2.64-4.57l2.64-4.57h5.71l2.64,4.57l-2.64,4.57H119.22z
			 M119.22,291.32l-2.64-4.57l2.64-4.57h5.71l2.64,4.57l-2.64,4.57H119.22z M119.22,280.99l-2.64-4.57l2.64-4.57h5.71l2.64,4.57
			l-2.64,4.57H119.22z M119.22,270.66l-2.64-4.57l2.64-4.57h5.71l2.64,4.57l-2.64,4.57H119.22z M116.57,255.76l2.64-4.57h5.71
			l2.64,4.57l-2.64,4.57h-5.71L116.57,255.76z M119.22,250l-2.64-4.57l2.64-4.57h5.71l2.64,4.57l-2.64,4.57H119.22z M128.39,235.69
			h5.71l2.64,4.57l-2.64,4.57h-5.71l-2.64-4.57L128.39,235.69z M137.57,240.86h5.71l2.64,4.57l-2.64,4.57h-5.71l-2.64-4.57
			L137.57,240.86z M143.28,251.19l2.64,4.57l-2.64,4.57h-5.71l-2.64-4.57l2.64-4.57H143.28z M146.75,256.35h5.71l2.64,4.57
			l-2.64,4.57h-5.71l-2.64-4.57L146.75,256.35z M152.45,266.69l2.64,4.57l-2.64,4.57h-5.71l-2.64-4.57l2.64-4.57H152.45z
			 M152.45,277.02l2.64,4.57l-2.64,4.57h-5.71l-2.64-4.57l2.64-4.57H152.45z M152.45,287.35l2.64,4.57l-2.64,4.57h-5.71l-2.64-4.57
			l2.64-4.57H152.45z M152.45,297.68l2.64,4.57l-2.64,4.57h-5.71l-2.64-4.57l2.64-4.57H152.45z M152.45,308.01l2.64,4.57l-2.64,4.57
			h-5.71l-2.64-4.57l2.64-4.57H152.45z M152.45,318.35l2.64,4.57l-2.64,4.57h-5.71l-2.64-4.57l2.64-4.57H152.45z M152.45,328.68
			l2.64,4.57l-2.64,4.57h-5.71l-2.64-4.57l2.64-4.57H152.45z M155.92,333.84h5.71l2.64,4.57l-2.64,4.57h-5.71l-2.64-4.57
			L155.92,333.84z M161.63,344.17l2.64,4.57l-2.64,4.57h-5.71l-2.64-4.57l2.64-4.57H161.63z M161.63,354.51l2.64,4.57l-2.64,4.57
			h-5.71l-2.64-4.57l2.64-4.57H161.63z M161.63,364.84l2.64,4.57l-2.64,4.57h-5.71l-2.64-4.57l2.64-4.57H161.63z M161.63,375.17
			l2.64,4.57l-2.64,4.57h-5.71l-2.64-4.57l2.64-4.57H161.63z M161.63,385.5l2.64,4.57l-2.64,4.57h-5.71l-2.64-4.57l2.64-4.57H161.63
			z M161.63,395.83l2.64,4.57l-2.64,4.57h-5.71l-2.64-4.57l2.64-4.57H161.63z M161.63,406.17l2.64,4.57l-2.64,4.57h-5.71l-2.64-4.57
			l2.64-4.57H161.63z M165.1,411.33h5.71l2.64,4.57l-2.64,4.57h-5.71l-2.64-4.57L165.1,411.33z M170.81,421.66l2.64,4.57l-2.64,4.57
			h-5.71l-2.64-4.57l2.64-4.57H170.81z M170.81,432l2.64,4.57l-2.64,4.57h-5.71l-2.64-4.57l2.64-4.57H170.81z M170.81,442.33
			l2.64,4.57l-2.64,4.57h-5.71l-2.64-4.57l2.64-4.57H170.81z M170.81,452.66l2.64,4.57l-2.64,4.57h-5.71l-2.64-4.57l2.64-4.57
			H170.81z M170.81,462.99l2.64,4.57l-2.64,4.57h-5.71l-2.64-4.57l2.64-4.57H170.81z M170.81,473.32l2.64,4.57l-2.64,4.57h-5.71
			l-2.64-4.57l2.64-4.57H170.81z M170.81,483.66l2.64,4.57l-2.64,4.57h-5.71l-2.64-4.57l2.64-4.57H170.81z M174.27,488.82h5.71
			l2.64,4.57l-2.64,4.57h-5.71l-2.64-4.57L174.27,488.82z M179.98,499.15l2.64,4.57l-2.64,4.57h-5.71l-2.64-4.57l2.64-4.57H179.98z
			 M179.98,509.49l2.64,4.57l-2.64,4.57h-5.71l-2.64-4.57l2.64-4.57H179.98z M179.98,519.82l2.64,4.57l-2.64,4.57h-5.71l-2.64-4.57
			l2.64-4.57H179.98z M179.98,530.15l2.64,4.57l-2.64,4.57h-5.71l-2.64-4.57l2.64-4.57H179.98z M179.98,540.48l2.64,4.57l-2.64,4.57
			h-5.71l-2.64-4.57l2.64-4.57H179.98z M162.46,560.55l2.64-4.57h5.71l2.64,4.57l-2.64,4.57h-5.71L162.46,560.55z M155.92,559.95
			l-2.64-4.57l2.64-4.57h5.71l2.64,4.57l-2.64,4.57H155.92z M144.1,560.55l2.64-4.57h5.71l2.64,4.57l-2.64,4.57h-5.71L144.1,560.55z
			 M134.93,555.38l2.64-4.57h5.71l2.64,4.57l-2.64,4.57h-5.71L134.93,555.38z M128.39,554.79l-2.64-4.57l2.64-4.57h5.71l2.64,4.57
			l-2.64,4.57H128.39z M116.57,555.38l2.64-4.57h5.71l2.64,4.57l-2.64,4.57h-5.71L116.57,555.38z M110.04,545.65h5.71l2.64,4.57
			l-2.64,4.57h-5.71l-2.64-4.57L110.04,545.65z M110.04,535.32h5.71l2.64,4.57l-2.64,4.57h-5.71l-2.64-4.57L110.04,535.32z
			 M110.04,524.98h5.71l2.64,4.57l-2.64,4.57h-5.71l-2.64-4.57L110.04,524.98z M110.04,514.65h5.71l2.64,4.57l-2.64,4.57h-5.71
			l-2.64-4.57L110.04,514.65z M110.04,504.32h5.71l2.64,4.57l-2.64,4.57h-5.71l-2.64-4.57L110.04,504.32z M110.04,493.99h5.71
			l2.64,4.57l-2.64,4.57h-5.71l-2.64-4.57L110.04,493.99z M110.04,483.66h5.71l2.64,4.57l-2.64,4.57h-5.71l-2.64-4.57L110.04,483.66
			z M110.04,473.32h5.71l2.64,4.57l-2.64,4.57h-5.71l-2.64-4.57L110.04,473.32z M110.04,462.99h5.71l2.64,4.57l-2.64,4.57h-5.71
			l-2.64-4.57L110.04,462.99z M110.04,452.66h5.71l2.64,4.57l-2.64,4.57h-5.71l-2.64-4.57L110.04,452.66z M110.04,442.33h5.71
			l2.64,4.57l-2.64,4.57h-5.71l-2.64-4.57L110.04,442.33z M110.04,432h5.71l2.64,4.57l-2.64,4.57h-5.71l-2.64-4.57L110.04,432z
			 M110.04,421.66h5.71l2.64,4.57l-2.64,4.57h-5.71l-2.64-4.57L110.04,421.66z M110.04,411.33h5.71l2.64,4.57l-2.64,4.57h-5.71
			l-2.64-4.57L110.04,411.33z M110.04,401h5.71l2.64,4.57l-2.64,4.57h-5.71l-2.64-4.57L110.04,401z M110.04,390.67h5.71l2.64,4.57
			l-2.64,4.57h-5.71l-2.64-4.57L110.04,390.67z M110.04,380.34h5.71l2.64,4.57l-2.64,4.57h-5.71l-2.64-4.57L110.04,380.34z
			 M110.04,370.01h5.71l2.64,4.57l-2.64,4.57h-5.71l-2.64-4.57L110.04,370.01z M110.04,359.67h5.71l2.64,4.57l-2.64,4.57h-5.71
			l-2.64-4.57L110.04,359.67z M110.04,349.34h5.71l2.64,4.57l-2.64,4.57h-5.71l-2.64-4.57L110.04,349.34z M110.04,339.01h5.71
			l2.64,4.57l-2.64,4.57h-5.71l-2.64-4.57L110.04,339.01z M110.04,328.68h5.71l2.64,4.57l-2.64,4.57h-5.71l-2.64-4.57L110.04,328.68
			z M110.04,318.35h5.71l2.64,4.57l-2.64,4.57h-5.71l-2.64-4.57L110.04,318.35z M110.04,308.01h5.71l2.64,4.57l-2.64,4.57h-5.71
			l-2.64-4.57L110.04,308.01z M110.04,297.68h5.71l2.64,4.57l-2.64,4.57h-5.71l-2.64-4.57L110.04,297.68z M110.04,287.35h5.71
			l2.64,4.57l-2.64,4.57h-5.71l-2.64-4.57L110.04,287.35z M110.04,277.02h5.71l2.64,4.57l-2.64,4.57h-5.71l-2.64-4.57L110.04,277.02
			z M110.04,266.69h5.71l2.64,4.57l-2.64,4.57h-5.71l-2.64-4.57L110.04,266.69z M110.04,256.35h5.71l2.64,4.57l-2.64,4.57h-5.71
			l-2.64-4.57L110.04,256.35z M110.04,246.02h5.71l2.64,4.57l-2.64,4.57h-5.71l-2.64-4.57L110.04,246.02z M110.04,235.69h5.71
			l2.64,4.57l-2.64,4.57h-5.71l-2.64-4.57L110.04,235.69z M110.04,225.36h5.71l2.64,4.57l-2.64,4.57h-5.71l-2.64-4.57L110.04,225.36
			z M110.04,215.03h5.71l2.64,4.57l-2.64,4.57h-5.71l-2.64-4.57L110.04,215.03z M118.39,209.26l-2.64,4.57h-5.71l-2.64-4.57
			l2.64-4.57h5.71L118.39,209.26z M127.57,214.43l-2.64,4.57h-5.71l-2.64-4.57l2.64-4.57h5.71L127.57,214.43z M134.1,224.16h-5.71
			l-2.64-4.57l2.64-4.57h5.71l2.64,4.57L134.1,224.16z M136.74,229.93l-2.64,4.57h-5.71l-2.64-4.57l2.64-4.57h5.71L136.74,229.93z
			 M145.92,235.09l-2.64,4.57h-5.71l-2.64-4.57l2.64-4.57h5.71L145.92,235.09z M152.45,244.83h-5.71l-2.64-4.57l2.64-4.57h5.71
			l2.64,4.57L152.45,244.83z M155.1,250.59l-2.64,4.57h-5.71l-2.64-4.57l2.64-4.57h5.71L155.1,250.59z M161.63,260.33h-5.71
			l-2.64-4.57l2.64-4.57h5.71l2.64,4.57L161.63,260.33z M161.63,270.66h-5.71l-2.64-4.57l2.64-4.57h5.71l2.64,4.57L161.63,270.66z
			 M161.63,280.99h-5.71l-2.64-4.57l2.64-4.57h5.71l2.64,4.57L161.63,280.99z M161.63,291.32h-5.71l-2.64-4.57l2.64-4.57h5.71
			l2.64,4.57L161.63,291.32z M161.63,301.65h-5.71l-2.64-4.57l2.64-4.57h5.71l2.64,4.57L161.63,301.65z M161.63,311.99h-5.71
			l-2.64-4.57l2.64-4.57h5.71l2.64,4.57L161.63,311.99z M161.63,322.32h-5.71l-2.64-4.57l2.64-4.57h5.71l2.64,4.57L161.63,322.32z
			 M164.27,328.08l-2.64,4.57h-5.71l-2.64-4.57l2.64-4.57h5.71L164.27,328.08z M170.81,337.82h-5.71l-2.64-4.57l2.64-4.57h5.71
			l2.64,4.57L170.81,337.82z M170.81,348.15h-5.71l-2.64-4.57l2.64-4.57h5.71l2.64,4.57L170.81,348.15z M170.81,358.48h-5.71
			l-2.64-4.57l2.64-4.57h5.71l2.64,4.57L170.81,358.48z M170.81,368.81h-5.71l-2.64-4.57l2.64-4.57h5.71l2.64,4.57L170.81,368.81z
			 M170.81,379.14h-5.71l-2.64-4.57l2.64-4.57h5.71l2.64,4.57L170.81,379.14z M170.81,389.48h-5.71l-2.64-4.57l2.64-4.57h5.71
			l2.64,4.57L170.81,389.48z M170.81,399.81h-5.71l-2.64-4.57l2.64-4.57h5.71l2.64,4.57L170.81,399.81z M173.45,405.57l-2.64,4.57
			h-5.71l-2.64-4.57l2.64-4.57h5.71L173.45,405.57z M179.98,415.31h-5.71l-2.64-4.57l2.64-4.57h5.71l2.64,4.57L179.98,415.31z
			 M179.98,425.64h-5.71l-2.64-4.57l2.64-4.57h5.71l2.64,4.57L179.98,425.64z M179.98,435.97h-5.71l-2.64-4.57l2.64-4.57h5.71
			l2.64,4.57L179.98,435.97z M179.98,446.3h-5.71l-2.64-4.57l2.64-4.57h5.71l2.64,4.57L179.98,446.3z M179.98,456.63h-5.71
			l-2.64-4.57l2.64-4.57h5.71l2.64,4.57L179.98,456.63z M179.98,466.97h-5.71l-2.64-4.57l2.64-4.57h5.71l2.64,4.57L179.98,466.97z
			 M179.98,477.3h-5.71l-2.64-4.57l2.64-4.57h5.71l2.64,4.57L179.98,477.3z M182.63,483.06l-2.64,4.57h-5.71l-2.64-4.57l2.64-4.57
			h5.71L182.63,483.06z M189.16,492.8h-5.71l-2.64-4.57l2.64-4.57h5.71l2.64,4.57L189.16,492.8z M189.16,503.13h-5.71l-2.64-4.57
			l2.64-4.57h5.71l2.64,4.57L189.16,503.13z M189.16,513.46h-5.71l-2.64-4.57l2.64-4.57h5.71l2.64,4.57L189.16,513.46z
			 M189.16,523.79h-5.71l-2.64-4.57l2.64-4.57h5.71l2.64,4.57L189.16,523.79z M189.16,534.12h-5.71l-2.64-4.57l2.64-4.57h5.71
			l2.64,4.57L189.16,534.12z M189.16,544.46h-5.71l-2.64-4.57l2.64-4.57h5.71l2.64,4.57L189.16,544.46z M189.16,554.79h-5.71
			l-2.64-4.57l2.64-4.57h5.71l2.64,4.57L189.16,554.79z M191.8,560.55l-2.64,4.57h-5.71l-2.64-4.57l2.64-4.57h5.71L191.8,560.55z
			 M198.34,570.29h-5.71l-2.64-4.57l2.64-4.57h5.71l2.64,4.57L198.34,570.29z"/>
	</g>
</g>
<path class="Colour2 fill" d="M416.77,108.6l-98.64,109.09l82.4-135.1l-42.67,27.3l52.05-52.2l-28.51,14.8c0,0-49.1-36.01-133.91-36.1
	c-84.81-0.09-133.91,36.1-133.91,36.1l-28.51-14.8l52.05,52.2l-42.67-27.3l82.4,135.1L78.24,108.6
	c5.72,14.37,11.36,31.91,15.27,52.04l88.27,92.34l-84.29-64.84c0.52,5.49,0.9,11.12,1.11,16.88c0,0,0.02,0.27,0.06,0.79l40.7,30.23
	l47.98,333.95c16.83,1.51,36.72,2.81,60.18,3.74c23.46-0.92,43.34-2.23,60.18-3.74l47.98-333.95l40.7-30.23
	c0.04-0.52,0.06-0.79,0.06-0.79c0.2-5.77,0.59-11.39,1.11-16.88l-84.29,64.84l88.27-92.34C405.42,140.51,411.05,122.97,416.77,108.6
	z"/>
<path class="Colour1 fill" d="M439.12,65.31c0,0,46.18,55.01,54.38,148.67c0,0-64.06,39.03-86.41,25.65c0,0,1.37-13.63-10.68-34.32
	C396.42,205.31,396.29,131.09,439.12,65.31z"/>
<path class="Colour1 fill" d="M55.89,65.31c0,0-46.18,55.01-54.38,148.67c0,0,64.06,39.03,86.41,25.65c0,0-1.37-13.63,10.68-34.32
	C98.59,205.31,98.72,131.09,55.89,65.31z"/>
<path class="st2" d="M3.58,196.14c0,0,48.93,31.06,86.1,30.03"/>
<path class="st2" d="M491.43,196.14c0,0-48.93,31.06-86.1,30.03"/>
<g>
	<path class="st2" d="M395.05,538.36c0,0-23,15.86-147.55,20.81"/>
	<path class="st2" d="M247.5,559.18c-124.55-4.96-147.55-20.81-147.55-20.81"/>
</g>

<path class="NeckAndArmTrim fill" d="M310.75,2.01l-0.1,0.01c0,0-25.35,9.15-63.15,8.97l-0.36,0c-37.6,0.12-62.79-8.97-62.79-8.97
	l-0.1-0.01l-11.93,4.95c0,0,29.99,12.39,74.75,12.25l0.43,0c44.99,0.21,75.17-12.25,75.17-12.25L310.75,2.01z"/>
<g>
	<path class="Colour2 fill" d="M34.4,99.05C21.15,124.53,5.89,163.58,1.51,213.7c0,0,13.56,8.26,30.38,15.88l33.41-80.01L34.4,99.05z"/>
	<path class="Colour2 fill" d="M94.17,164.26l-58.94,66.79c3.71,1.62,7.54,3.18,11.39,4.59l49.89-56.53
		C95.91,174.6,95.15,169.63,94.17,164.26z"/>
	<path class="Colour2 fill" d="M460.61,99.05c13.24,25.48,28.5,64.52,32.89,114.64c0,0-13.56,8.26-30.38,15.88l-33.41-80.01L460.61,99.05
		z"/>
	<path class="Colour2 fill" d="M400.84,164.26l58.94,66.79c-3.71,1.62-7.54,3.18-11.39,4.59l-49.89-56.53
		C399.09,174.6,399.86,169.63,400.84,164.26z"/>
</g>
<path class="Colour3 fill" d="M346.37,232.96l-29.71,29.93l-58.86,194.03l53.22-198.03L346.37,232.96z M148.64,232.96l29.71,29.93
	l58.86,194.03l-53.22-198.03L148.64,232.96z M291.47,259.7l112.77-111.63c1.88-7.8,3.99-15.15,6.22-21.99L291.47,259.7z
	 M84.55,126.08c2.23,6.85,4.34,14.19,6.22,21.99L203.54,259.7L84.55,126.08z M351.74,245.51l-7.11,4.67l-44.64,318.34l-0.46,2.15
	c2.15-0.17,4.25-0.35,6.31-0.53L351.74,245.51z M150.38,250.19l-7.11-4.67l45.9,324.64c2.06,0.18,4.15,0.36,6.31,0.53l-0.46-2.15
	L150.38,250.19z"/>
<path class="st2" d="M439.11,65.29c0,0,46.18,55.01,54.38,148.67c0,0-64.06,39.03-86.41,25.65c0,0,1.37-13.63-10.68-34.32
	C396.41,205.29,396.28,131.08,439.11,65.29z"/>
<path class="st2" d="M55.88,65.29c0,0-46.18,55.01-54.38,148.67c0,0,64.06,39.03,86.41,25.65c0,0-1.37-13.63,10.68-34.32
	C98.58,205.29,98.71,131.08,55.88,65.29z"/>
<path class="st2" d="M247.5,574c125.7-4.96,148.91-20.81,148.91-20.81c-14.4-153.63,0-347.89,0-347.89
	c2.98-84.25,42.71-140,42.71-140C427.94,46.71,322.79,6.94,322.79,6.94l-0.12,0.01c0,0-30.18,12.46-75.17,12.25l-0.43,0
	c-44.76,0.14-74.75-12.25-74.75-12.25l-0.12-0.01c0,0-105.15,39.77-116.32,58.35c0,0,39.73,55.75,42.71,140
	c0,0,14.4,194.27,0,347.89C98.58,553.19,121.8,569.04,247.5,574"/>
<path class="st2" d="M310.74,2l-0.1,0.01c0,0-25.35,9.15-63.15,8.97l-0.36,0c-37.6,0.12-62.79-8.97-62.79-8.97L184.25,2l-11.93,4.95
	c0,0,29.99,12.39,74.75,12.25l0.43,0c44.99,0.21,75.17-12.25,75.17-12.25L310.74,2z"/>
<path class="NeckAndArmTrim fill" d="M419.25,241.96c-4.7,0-8.59-0.85-11.56-2.53c0.07-1.29,0.13-5.73-1.6-12.55
	c0.35,0.01,0.69,0.01,1.04,0.01c34.14,0,77.58-25.84,83.83-29.67c0.77,5.38,1.41,10.9,1.91,16.57
	C488.8,216.24,445.18,241.96,419.25,241.96z"/>
<g id="BBodyLogos"></g>
<path class="NeckAndArmTrim fill" d="M2.1,213.79c0.5-5.66,1.15-11.19,1.91-16.57c6.25,3.83,49.69,29.67,83.83,29.67
	c0.35,0,0.7-0.01,1.04-0.01c-1.73,6.82-1.67,11.26-1.6,12.55c-2.97,1.68-6.85,2.53-11.56,2.53C49.81,241.96,6.2,216.24,2.1,213.79z"
	/>
<path class="st3" d="M3.04,200.6c0,0,48.93,31.06,86.1,30.03"/>
<path class="st3" d="M491.97,200.6c0,0-48.93,31.06-86.1,30.03"/>
<path class="BottomHem fill" d="M247.49,558.97c124.55-4.96,147.55-20.81,147.55-20.81l1.37,14.84c0,0-34.6,17.87-149.34,20.81
	c0,0-105.75-1.2-148.49-20.81l1.37-14.84C99.95,538.16,122.95,554.01,247.49,558.97"/>
<g>
	<path class="st3" d="M395.05,542.82c0,0-23,15.86-147.55,20.81"/>
	<path class="st3" d="M247.5,563.64c-124.55-4.96-147.55-20.81-147.55-20.81"/>
</g>
</svg>
