<?xml version="1.0" encoding="utf-8"?>
<!-- Generator: Adobe Illustrator 19.1.0, SVG Export Plug-In . SVG Version: 6.00 Build 0)  -->
<svg version="1.1" id="Layer_1" xmlns="http://www.w3.org/2000/svg" xmlns:xlink="http://www.w3.org/1999/xlink" x="0px" y="0px"
	 viewBox="0 0 495 576" style="enable-background:new 0 0 495 576;" xml:space="preserve">
<style type="text/css">
	<![CDATA[
	@font-face{font-family:'codaheavy';src:url('/fonts/coda-heavy-webfont.woff') format('woff')}
	text{font-family:Impact,codaheavy,sans-serif}
	.Number.fill{fill:#000}
	.NumberOutline.stroke{fill:none;stroke:#777;stroke-width:2.5}
	.Colour1.fill{fill:#1C181A;}
	.Colour2.fill{fill:#EFD50D;}
	.Colour3.fill{fill:#4C4B4C;}
	.NeckAndArmTrim.fill{fill:#EFD50D;}
	.BottomHem.fill{fill:#EFD50D;}
	.st0{fill:none;stroke:#000000;stroke-width:0.25;stroke-miterlimit:10;}
	.st1{fill:none;stroke:#000000;stroke-width:0.25;stroke-miterlimit:10;stroke-dasharray:2;}
	]]>
</style>
<g>
	<path class="Colour1 fill" d="M439.14,65.36c0,0,46.24,55.04,54.36,148.69c0,0-64.09,38.97-86.46,25.67c0,0,1.39-13.64-10.66-34.34
		C396.37,205.27,396.26,131.15,439.14,65.36z"/>
	<path class="Colour1 fill" d="M55.86,65.36c0,0-46.24,55.04-54.36,148.69c0,0,64.09,38.97,86.46,25.67c0,0-1.39-13.64,10.66-34.34
		C98.51,205.27,98.63,131.15,55.86,65.36z"/>
</g>
<path class="NeckAndArmTrim fill" d="M419.21,241.81c-4.75,0-8.58-0.81-11.59-2.54c0.12-1.27,0.12-5.78-1.62-12.6c0.35,0,0.7,0,1.04,0
	c34.19,0,77.65-25.78,83.8-29.72c0.81,5.43,1.39,10.87,1.97,16.53C488.86,216.14,445.17,241.81,419.21,241.81z"/>
<path class="NeckAndArmTrim fill" d="M2.08,213.71c0.46-5.67,1.16-11.22,1.97-16.53c6.26,3.82,49.72,29.72,83.8,29.72
	c0.35,0,0.7,0,1.04,0c-1.74,6.82-1.62,11.22-1.62,12.6c-3.01,1.73-6.84,2.54-11.59,2.54C49.71,241.81,6.14,216.14,2.08,213.71z"/>
<path class="Colour1 fill" d="M247.79,573.88c125.4-4.97,148.59-20.81,148.59-20.81c-14.37-153.55,0-347.8,0-347.8
	c3.01-84.29,42.77-140.02,42.77-140.02C428.02,46.63,322.78,6.86,322.78,6.86h-0.12c0,0-30.13,12.49-75.22,12.26h-0.46
	c-44.74,0.12-74.76-12.26-74.76-12.26h-0.12c0,0-105.12,39.78-116.36,58.39c0,0,39.75,55.73,42.77,140.02c0,0,14.37,194.25,0,347.8
	c0,0,23.18,15.84,148.59,20.81H247.79z"/>
<g>
	<path class="st0" d="M3.47,196.14c0,0,48.91,31.1,86.11,30.06"/>
	<path class="st1" d="M3.01,200.64c0,0,48.91,31.1,86.11,30.06"/>
	<path class="st0" d="M491.41,196.14c0,0-48.91,31.1-86.11,30.06"/>
	<path class="st1" d="M491.99,200.64c0,0-48.91,31.1-86.11,30.06"/>
</g>
<g>
	<path class="st1" d="M395.1,542.78c0,0-22.95,15.84-147.54,20.81"/>
	<path class="st1" d="M247.44,563.59C122.85,558.62,99.9,542.78,99.9,542.78"/>
</g>
<path class="NeckAndArmTrim fill" d="M310.72,2L310.72,2c-0.12,0-25.5,9.13-63.28,9.02h-0.35C209.54,11.13,184.28,2,184.28,2h-0.12
	l-11.94,4.97c0,0,30.02,12.37,74.76,12.26h0.46c44.97,0.23,75.22-12.26,75.22-12.26L310.72,2z"/>
<path class="Colour3 fill" d="M390.35,425.31l-78.93,44.28l-6.61,3.7l0,0l-13.1,7.4l0,0l-8.92,4.97l-31.64,17.69l-38.71-21.74l-1.85-1.04
	l0,0l-105.82-59.43c0-0.69,0-1.27,0-1.97l137.23,77.12l0,0l5.68,3.24l3.36,1.85l53.66-30.18l0,0l18.08-10.18l0,0l67.45-37.81
	C390.23,423.8,390.23,424.5,390.35,425.31z M331.35,508.67l-3.48,1.97l-5.1,2.77l0,0l-18.08,10.18l0,0l-44.62,25.09l0,0l-9.04,5.09
	l-8.92-5.09l0,0l-13.44-7.52l0,0l-18.08-10.18l0,0l-21.91-12.37l-9.27-5.2l0,0l-5.1-2.77l-3.48-1.97v1.97l3.48,1.97l76.73,43.13
	l9.04-5.09l0,0l13.44-7.52l0,0l18.08-10.18l0,0l36.28-20.35l3.48-1.97V508.67z M331.35,528.33l-3.01,1.73l-19.47,10.87l-4.06,2.31
	l0,0l-13.1,7.4l0,0l-8.92,4.97l-31.76,17.81l-9.04-5.09l0,0l-13.44-7.52l0,0l-6.84-3.82l-47.87-26.94l-3.01-1.73v1.97l3.01,1.73
	l5.56,3.12l0,0l18.08,10.17l0,0l13.21,7.4l0,0l13.21,7.4L248.6,574c1.85-0.12,3.82-0.12,5.68-0.23l19.47-10.87l0,0l18.08-10.18l0,0
	l13.1-7.4l0,0l18.08-10.17l0,0l5.56-3.12l3.01-1.73v-1.97H331.35z M331.35,515.26l-3.36,1.85l-36.39,20.47l0,0l-6.14,3.35
	l-34.42,19.43l-8.92-5.09l0,0l-13.44-7.63l0,0l-3.48-1.85l-51-28.68l-3.36-1.85v1.97l3.25,1.85l13.68,7.63l9.62,5.43l0,0
	l53.66,30.18l9.04-5.09l0,0l44.62-25.09l0,0l7.07-3.93l16.23-9.13l3.36-1.85V515.26z M331.35,541.39l-2.67,1.5l-5.8,3.24l0,0
	l-18.08,10.18l0,0l-28.86,16.19c1.27-0.12,2.67-0.12,3.94-0.23l11.71-6.59l0,0l37.09-20.81l2.67-1.5V541.39z M331.35,534.92
	l-2.9,1.62l-9.39,5.32l-14.37,8.09l0,0l-13.1,7.4l0,0l-9.97,5.67l-18.54,10.41c1.27-0.12,2.55-0.12,3.82-0.23l6.61-3.7l0,0
	l18.08-10.18l0,0l13.1-7.4l0,0l18.08-10.18l0,0l5.68-3.24l0,0l2.78-1.62v-1.97H331.35z M331.35,521.74l-3.25,1.85l-36.51,20.47l0,0
	l-7.53,4.28l-33.03,18.5l-8.92-5.09l0,0l-13.44-7.52l0,0l-5.33-2.89l-49.37-27.75l-3.13-1.85v1.97l3.13,1.85l5.45,3.01l0,0
	l17.96,10.18v-0.12l13.21,7.4l0,0l14.84,8.44l25.61,14.34l22.48-12.6l0,0l18.08-10.18l0,0l13.1-7.28l0,0l9.16-5.2l14.37-7.98
	l3.13-1.85V521.74z M331.35,469.36l-4.4,2.43l-66.87,37.58l0,0l-9.04,5.09l-8.92-5.09l0,0l-13.44-7.52l0,0l-4.29-2.43l-49.14-27.63
	l-4.4-2.43v1.97l4.4,2.43l13.33,7.52l8.81,4.97l0,0l53.66,30.18l22.48-12.6l0,0l18.08-10.18l0,0l35.35-19.89l4.4-2.43V469.36z
	 M331.35,475.83l-4.29,2.43l-66.99,37.69l0,0l-9.04,4.97l-8.92-4.97l0,0l-13.44-7.63l0,0l-5.8-3.24l-47.75-26.83l-4.29-2.43v1.97
	l4.17,2.43l4.4,2.43l0,0l17.96,10.18l0,0l13.21,7.4l0,0l14.49,8.09l25.96,14.57l9.04-4.97l0,0l13.44-7.63l0,0l11.94-6.59
	l19.24-10.87l0,0l18.08-10.18l0,0l4.29-2.43l4.29-2.43V475.83z M331.35,462.77l-4.64,2.54l-3.94,2.31l0,0l-18.08,10.06l0,0
	l-44.62,25.09l0,0l-9.04,5.09l-8.92-5.09l0,0l-13.44-7.52l0,0l-18.08-10.18l0,0l-21.09-11.79l-10.08-5.67l0,0l-3.94-2.31l-4.64-2.54
	v1.97l4.52,2.54l35.23,19.77l0,0l3.01,1.73l28.51,15.96l0,0l8.92,5.09l22.48-12.6l0,0l18.08-10.18l0,0l35.23-19.77l4.52-2.54V462.77
	z M331.35,495.49l-3.82,2.2l-4.75,2.66l0,0l-18.08,10.18l0,0l-53.66,30.06l-22.37-12.6l0,0l-12.17-6.82l-19.12-10.64l0,0
	l-17.96-10.18l0,0l-4.75-2.66l-3.82-2.2v1.97l3.71,2.2l4.87,2.66l0,0l0.46,0.35l45.2,25.32l3.59,1.97l0,0l22.37,12.72l9.04-5.09l0,0
	l13.44-7.63l0,0l7.88-4.39l37.9-21.28l3.48-1.97l0,0l4.75-2.66l3.82-2.2V495.49z M331.35,502.08l-3.71,2.08l-4.87,2.78l0,0
	L304.7,517l0,0l-44.62,25.09l0,0l-9.04,5.09l-22.37-12.6l0,0l-15.07-8.44L197.37,517l0,0l-17.96-10.06l0,0l-4.98-2.78l-3.59-2.08
	v1.97l3.59,2.08l52.85,29.72l1.39,0.69l0,0l22.37,12.6l9.04-5.09l0,0l13.44-7.52l0,0l18.08-10.17l0,0l36.16-20.23l3.59-2.08V502.08z
	 M331.35,489.02l-3.94,2.2l-4.64,2.54l0,0l-18.08,10.18l0,0l-13.1,7.4l0,0l-10.55,5.9l-30.02,16.88l-8.92-5.09l0,0l-13.44-7.52l0,0
	l-9.74-5.55l-21.56-12.03l0,0l-3.36-1.97l-19.24-10.75l-3.94-2.2v1.97l3.94,2.2l4.64,2.54l0,0l7.65,4.39l34.54,19.31l7.07,4.05l0,0
	l22.37,12.6l9.04-5.09l0,0l13.44-7.52l0,0l9.27-5.2l25.96-14.57l14.02-7.98l0,0l4.64-2.54l3.94-2.2V489.02z M331.35,482.42
	l-4.17,2.31l-67.11,37.69l0,0l-9.04,5.09l-8.92-5.09l0,0l-13.44-7.52l0,0l-7.53-4.16l-46.24-26.02l-4.06-2.31v1.97l4.06,2.31
	l4.52,2.54l0,0l17.96,10.06l0,0l13.21,7.4l0,0l12.98,7.4l27.47,15.38l9.04-5.09l0,0l13.44-7.52l0,0l10.55-5.9l20.63-11.68l0,0
	l18.08-10.06l0,0l4.52-2.54l4.06-2.31V482.42z M331.35,549.95v-1.97l-2.55,1.39l-6.03,3.35l0,0L304.7,562.9l0,0l-15.65,8.79
	c1.39-0.12,2.67-0.23,4.06-0.35l11.59-6.48l0,0l18.08-10.18l0,0l6.03-3.35L331.35,549.95L331.35,549.95z M331.35,554.57l-2.43,1.39
	l-6.14,3.47l0,0l-18.08,10.17l0,0l-2.09,1.16c1.39-0.12,2.78-0.23,4.17-0.35l15.99-9.02l0,0l6.14-3.47l2.32-1.27v-2.08H331.35z
	 M396.37,553.19c-0.46-4.63-0.81-9.25-1.27-13.99l-44.04,25.78C387.57,559.2,396.37,553.19,396.37,553.19z M179.41,415.13
	L179.41,415.13l-74.52-41.86c0,0.69,0,1.27,0,1.97l85.19,47.87l7.42,4.16l0,0l50.76,28.56l2.9,1.62l9.04-5.09l0,0l13.44-7.52l0,0
	l8.46-4.74l108.02-60.7c0-0.69,0-1.27,0-1.97l-67.34,37.81l0,0l-18.08,10.18l0,0l-15.88,8.9l-15.3,8.56l0,0l-13.44,7.52l0,0
	l-9.04,5.09l-9.04-5.09l0,0l-13.44-7.52l0,0l-17.39-9.71l-13.91-7.75l0,0L179.41,415.13z M194.01,416.86l-89.24-50.18
	c0,0.69,0,1.27,0,1.97l83.22,46.71l9.5,5.32l0,0l27.35,15.38l3.82,2.2l0,0l17.39,9.83l5.1,2.89l9.04-5.09l0,0l13.44-7.52l0,0
	l10.66-6.01l36.62-20.58l1.97-1.16l0,0l67.34-37.81c0-0.69,0-1.27,0-1.97l-67.34,37.81l0,0l-18.08,10.18l0,0l-44.62,25.09l0,0
	l-9.04,5.09l-9.04-5.09l0,0l-13.44-7.52l0,0l-13.33-7.52l-17.85-10.06l0,0L194.01,416.86z M173.15,557.81l6.14,3.47l0,0l17.27,9.71
	c1.39,0.12,2.67,0.23,4.06,0.35l-12.98-7.28l-8.34-4.74l0,0l-6.14-3.47l-2.43-1.39v1.97L173.15,557.81z M331.35,563.13v-1.97
	l-2.2,1.27l-6.26,3.58l0,0l-6.14,3.47c1.51-0.12,2.9-0.35,4.29-0.46l1.85-1.04l0,0l6.37-3.58L331.35,563.13z M170.83,543.36
	l2.67,1.5l49.61,27.87c1.27,0.12,2.55,0.12,3.94,0.23l-9.5-5.32l-20.05-11.33l0,0l-18.08-10.18l0,0l-5.8-3.24l-2.67-1.5
	L170.83,543.36z M187.06,570.18l-13.91-7.86l-2.2-1.27v1.97l2.2,1.27l6.37,3.58l0,0l3.48,1.97
	C184.16,569.95,185.55,570.07,187.06,570.18z M179.41,539.77l-5.8-3.24l-2.9-1.62v1.97l2.78,1.62l5.68,3.24l0,0l18.08,10.18l0,0
	l13.21,7.4l0,0l11.71,6.59l13.68,7.63c1.27,0.12,2.55,0.12,3.82,0.12l-15.07-8.44l-14.26-7.98l0,0l-13.21-7.4l0,0L179.41,539.77z
	 M188.91,560.12l21.09,11.79c1.27,0.12,2.67,0.23,3.94,0.23l-16.57-9.37l0,0l-18.08-10.18l0,0l-6.03-3.35l-2.55-1.39v1.97l2.55,1.39
	l6.03,3.35l0,0L188.91,560.12z M419.32,102.71c2.67-6.24,5.33-11.91,7.77-16.65V68.25c2.55,0.46,4.98,0.93,7.19,1.39v3.35
	c1.04-1.73,1.85-3.12,2.55-4.28c-29.21-8.33-59.34-13.18-88.78-16.07c-1.27-0.12-2.43-0.23-3.71-0.46v0.12
	c-2.43-0.23-4.87-0.46-7.19-0.58V51.6c-2.78-0.23-5.33-0.46-7.77-0.69v0.23c-2.43-0.23-4.87-0.35-7.19-0.46v-0.35
	c-3.01-0.23-5.56-0.35-7.77-0.46v0.35c-2.43-0.12-4.87-0.23-7.19-0.35v-0.23c-0.93,0-1.39,0-1.39,0l-0.7,0.23
	c-20.4-0.93-39.87-1.04-57.83-1.04c-54.94,0-124.71,1.73-189.38,20.12c0.23,0.35,0.46,0.81,0.81,1.27
	c4.52-0.93,9.97-1.97,16.23-3.01v34.57c2.55,6.01,5.22,12.72,7.77,20V65.94c2.32-0.35,4.75-0.81,7.19-1.16v81.17
	c3.59,14.22,6.37,29.95,7.77,47.06V63.51c2.32-0.35,4.75-0.69,7.19-1.04v301.55l7.77,4.39V61.32c2.32-0.35,4.75-0.58,7.19-0.81
	v311.84l7.77,4.39V59.58c2.32-0.23,4.75-0.46,7.19-0.69v321.9l7.77,4.39V58.19c2.32-0.23,4.75-0.46,7.19-0.58v331.61l7.77,4.39
	V56.92c2.32-0.23,4.75-0.35,7.19-0.46v341.1l7.77,4.39V55.88c2.32-0.12,4.75-0.23,7.19-0.35V406l7.77,4.39V55.19
	c2.43-0.12,4.75-0.23,7.19-0.23v359.48l7.77,4.39V54.61c2.43-0.12,4.75-0.12,7.19-0.12v368.27l7.77,4.39V56v-1.62
	c2.43,0,4.75,0,7.19-0.12v3.01V431.2l7.77,4.39V58.31v-4.05c2.43,0,4.75,0,7.19,0v4.51v380.76l7.77,4.39V59.12v-4.63
	c2.43,0,4.87-0.12,7.19-0.12v4.74v384.8l7.77-4.39V58.77v-4.51c2.43,0,4.87,0,7.19,0v3.93v377.29l7.77-4.39V57.27v-2.89
	c2.43,0,4.87,0.12,7.19,0.12V56v371.16l7.77-4.39V54.61c2.43,0.12,4.87,0.12,7.19,0.23v363.87l7.77-4.39V55.19
	c2.43,0.12,4.87,0.23,7.19,0.35v354.86l7.77-4.39V55.88c2.43,0.12,4.87,0.35,7.19,0.46v345.49l7.77-4.39V56.92
	c2.43,0.23,4.87,0.35,7.19,0.58v336.01l7.77-4.39V58.19c2.43,0.23,4.87,0.46,7.19,0.69v326.3l7.77-4.39V59.58
	c2.43,0.23,4.87,0.58,7.19,0.81v316.24l7.77-4.39V61.32c2.43,0.35,4.87,0.58,7.19,0.93v305.95l0.81-0.46
	c0.93-90.77,6.26-162.57,6.26-162.57c0.12-4.28,0.35-8.44,0.7-12.49V63.17c2.43,0.35,4.87,0.69,7.19,1.04v83.71
	c2.32-9.48,4.98-18.38,7.77-26.48V65.59c2.55,0.46,4.87,0.81,7.19,1.16v35.96H419.32z M166.08,458.61l-61.31-35.5
	c-0.23,17.58-0.58,35.5-1.27,53.42l62.59,36.65L166.08,458.61z M104.88,401.49l74.41,41.86l0,0l18.08,10.18l0,0l13.21,7.4l0,0
	l8.81,4.97l31.64,17.81l22.48-12.6l0,0l18.08-10.18l0,0l13.1-7.4l0,0l10.32-5.78L390,405.65c0-0.69,0-1.27,0-1.97l-98.4,55.27l0,0
	l-4.98,2.78l-35.58,20l-8-4.51l-1.04-0.58l0,0l-22.14-12.49l-9.27-5.2l0,0l-24.69-13.88l-6.61-3.7l0,0l-74.41-41.86
	C104.88,400.21,104.88,400.91,104.88,401.49z M104.88,408.08l74.41,41.86l0,0l18.08,10.18l0,0l13.21,7.4l0,0l6.03,3.35l34.42,19.31
	l22.48-12.6l0,0l18.08-10.18l0,0l13.1-7.4l0,0l9.04-5.09l76.26-42.9c0-0.69,0-1.27,0-1.97l-73.83,41.51l-11.59,6.48l0,0l-13.1,7.4
	l0,0l-6.84,3.82l-33.73,18.96l-5.68-3.24l-3.25-1.85l0,0l-18.43-10.41l-12.98-7.28l0,0l-23.3-13.07l-8-4.51l0,0L104.88,406
	C104.88,406.81,104.88,407.38,104.88,408.08z M179.41,456.41L179.41,456.41l11.94,6.71l19.24,10.87l0,0l4.87,2.78l35.58,20
	l22.48-12.6l0,0l18.08-10.18l0,0l13.1-7.4l0,0l8-4.51l77.42-43.48c0-0.69,0-1.27,0-1.97l-67.34,37.81l0,0l-18.08,10.18l0,0
	l-53.66,30.18l-5.45-3.01l-3.59-2.08l0,0L104.77,412.7c0,0.69,0,1.27,0,1.97L179.41,456.41z M390.23,427.27l-54.13,31.33v54.46
	l55.63-32.49C390.93,462.77,390.46,444.85,390.23,427.27z M179.41,421.72L179.41,421.72l-74.52-41.86c0,0.69,0,1.27,0,1.97
	l86.23,48.45l6.26,3.58l0,0l51,28.68l2.67,1.5l9.04-5.09l0,0l13.44-7.52l0,0l7.88-4.39L390,385.99c0-0.69,0-1.27,0-1.97
	l-67.22,37.81l0,0l-18.08,10.18l0,0l-13.1,7.4l0,0l-18.08,10.18l0,0l-13.44,7.52l0,0l-9.04,5.09l-9.04-5.09l0,0l-13.44-7.52l0,0
	l-18.08-10.18l0,0l-13.21-7.4l0,0L179.41,421.72z M104.88,388.42l87.51,49.14l4.98,2.77l0,0l53.2,29.83l0.46,0.23l9.04-5.09l0,0
	l13.44-7.52l0,0l6.14-3.47L390,392.35c0-0.69,0-1.27,0-1.97l-67.22,37.81l0,0l-18.08,10.18l0,0l-13.1,7.4l0,0l-18.08,10.18l0,0
	l-13.44,7.52l0,0l-9.04,5.09l-9.04-5.09l0,0l-13.44-7.52l0,0l-18.08-10.18l0,0l-13.21-7.4l0,0l-18.08-10.18l0,0l-74.41-41.86
	C104.88,387.15,104.88,387.73,104.88,388.42z M104.88,395.01l74.41,41.86l0,0l18.08,10.18l0,0l13.21,7.4l0,0l9.97,5.55l30.6,17.23
	l22.48-12.6l0,0l18.08-10.18l0,0l13.1-7.4l0,0l11.47-6.48l73.83-41.51c0-0.69,0-1.27,0-1.97l-98.4,55.27l0,0l-4.29,2.43
	l-36.39,20.35l-8.23-4.63l-0.81-0.46l0,0l-23.18-13.07l-8.34-4.63l0,0l-25.73-14.45l-5.45-3.12l0,0l-74.41-41.74
	C104.88,393.62,104.88,394.32,104.88,395.01z M170.83,567.64v0.92c0.7,0.12,1.39,0.12,1.97,0.23L170.83,567.64z M394.98,536.31
	c-1.39-17.34-2.43-35.03-3.13-52.84l-55.75,32.72v50.99c2.9-0.35,5.56-0.69,8.23-1.16L394.98,536.31z M331.12,567.76
	c0.12,0,0.12,0,0.23,0v-0.12L331.12,567.76z M100.13,535.15c-0.46,6.01-1.04,12.03-1.51,17.92c0,0,10.43,7.05,54.94,13.3
	L100.13,535.15z M60.15,70.57v1.5c2.09,3.47,4.75,8.21,7.77,13.99V68.48C65.36,69.18,62.7,69.87,60.15,70.57z M103.38,479.42
	c-0.7,17.81-1.74,35.5-3.01,52.84l59.8,35.03c1.97,0.23,3.94,0.46,6.03,0.69v-51.92L103.38,479.42z"/>
<path class="Colour2 fill" d="M173.03,562.32l0.12-4.51v-1.97l0.12-4.51v-1.97l0.12-4.51v-1.97l0.12-4.51v-1.97l0.12-4.51v-1.97
	l0.12-4.51v-1.97l0.12-4.51V517l0.12-4.51v-1.97l0.12-4.51v-1.97l0.12-4.51v-1.97l0.12-4.51v-1.97l0.12-4.51v-1.97l0.12-4.51v-1.97
	l0.12-4.51v-1.97l0.12-4.51v-1.97l0.12-4.51v-1.97l0.12-2.78l-46.82-23.47l-23.99-12.03c0,0.12,0,0.23,0,0.46l6.72,3.93l59.23,34.11
	v5.78v4.63v8.56v4.63v8.56v4.63v8.56v4.63v6.59v1.97v11.1v1.97v11.1v1.97v11.1v1.97v11.1v0.92c0.7,0.12,1.39,0.12,2.09,0.23
	l0.12-4.51L173.03,562.32z"/>
<path class="Colour2 fill" d="M382.12,371.42l-7.77,4.05l-7.19,3.82l-7.77,4.05l-7.19,3.82l-7.77,4.05l-7.19,3.82l-7.77,4.05l-7.19,3.82
	l-7.77,4.05l-7.19,3.82l-7.77,4.05l-7.19,3.82l-7.77,4.05l-7.19,3.82l-7.77,4.05l-7.19,3.82l-7.77,4.05l-3.59,1.85l-3.59-1.85
	l-7.77-4.05l-7.19-3.82l-7.77-4.05l-7.19-3.82l-7.88-4.16l-7.19-3.82l-7.77-4.05l-7.19-3.82l-7.77-4.05l-7.19-3.82l-7.77-4.05
	l-7.19-3.82l-7.77-4.05l-7.19-3.82l-7.77-4.05l-7.19-3.82l-7.77-4.05l-7.19-3.82l-7.77-4.05l-0.23-0.12c0,0.12,0,0.12,0,0.23
	l0.23,0.12l7.77,4.39l7.19,4.05l7.77,4.39l7.19,4.05l7.77,4.39l7.19,4.05l7.77,4.39l7.19,4.05l7.77,4.39l7.19,4.05l7.77,4.39
	l7.19,4.05l7.77,4.39l7.19,4.05l7.77,4.39l7.19,4.05l7.77,4.39l7.19,4.05l7.77,4.39l3.59,1.97l3.59-1.97l7.77-4.39l7.19-4.05
	l7.77-4.39l7.19-4.05l7.77-4.39l7.19-4.05l7.77-4.39l7.19-4.05l7.77-4.39l7.19-4.05l7.77-4.39l7.19-4.05l7.77-4.39l7.19-4.05
	l7.77-4.39l7.19-4.05l7.77-4.39l7.19-4.05l0.81-0.46c0-0.23,0-0.35,0-0.58l-0.81,0.46L382.12,371.42z"/>
<path class="Colour2 fill" d="M331.35,563.13v-1.97v-11.1v-1.97v-6.59v-4.63v-8.56v-4.63v-8.56v-4.63v-8.56v-4.63v-6.59v-1.97v-11.1
	v-1.97v-6.36v-4.63v-5.78l58.88-33.88c0-0.35,0-0.69,0-0.92l-16.57,8.33h-0.12h-0.12l-46.94,23.47l0.12,2.78v1.97l0.12,4.51v1.97
	l0.12,4.51v1.97l0.12,4.51v1.97l0.12,4.51v1.97l0.12,4.51v1.97l0.12,4.51v1.97l0.12,4.51v1.97l0.12,4.51v1.97l0.12,4.51v1.97
	l0.12,4.51v1.97l0.12,4.51v1.97l0.12,4.51v1.97l0,0l0.12,4.51v1.97l0.12,4.51v1.97l0.12,4.51v1.97l0.12,4.51v1.97l0.12,3.7
	c0.7-0.12,1.39-0.12,2.09-0.23v-4.63H331.35z"/>
<polygon class="Colour2 fill" points="460.47,103.4 428.48,145.14 440.53,203.77 432.88,145.38 "/>
<polygon class="Colour2 fill" points="34.53,103.4 66.52,145.14 54.35,203.77 62.12,145.38 "/>
<g id="BBodyLogos"></g>
<path class="BottomHem fill" d="M247.44,559.08c124.59-4.97,147.54-20.81,147.54-20.81l1.39,14.8c0,0-34.65,17.92-149.4,20.81
	c0,0-105.82-1.16-148.47-20.81l1.39-14.8C99.9,538.27,122.96,554.11,247.44,559.08"/>
<g>
	<path class="st0" d="M395.1,538.27c0,0-22.95,15.84-147.54,20.81"/>
	<path class="st0" d="M247.44,559.08C122.85,554.11,99.9,538.27,99.9,538.27"/>
</g>
<g>
	<path class="st1" d="M247.44,563.59c124.59-4.97,147.54-20.81,147.54-20.81"/>
	<path class="st1" d="M247.44,563.59C122.85,558.62,99.9,542.78,99.9,542.78"/>
</g>
<g>
	<path class="st0" d="M439.14,65.36c0,0,46.24,55.04,54.36,148.69c0,0-64.09,38.97-86.46,25.67c0,0,1.39-13.64-10.66-34.34
		C396.37,205.27,396.26,131.04,439.14,65.36z"/>
	<path class="st0" d="M55.86,65.36c0,0-46.24,55.04-54.36,148.69c0,0,64.09,38.97,86.46,25.67c0,0-1.39-13.64,10.66-34.34
		C98.51,205.27,98.63,131.04,55.86,65.36z"/>
	<path class="st0" d="M247.44,573.88c125.75-4.97,148.93-20.81,148.93-20.81c-14.37-153.55,0-347.8,0-347.8
		c3.01-84.29,42.77-140.02,42.77-140.02C428.02,46.63,322.78,6.86,322.78,6.86h-0.12c0,0-30.13,12.49-75.22,12.26h-0.46
		c-44.74,0.12-74.76-12.26-74.76-12.26h-0.12c0,0-105.12,39.78-116.36,58.39c0,0,39.75,55.73,42.77,140.02c0,0,14.37,194.25,0,347.8
		C98.51,553.07,121.69,569.03,247.44,573.88"/>
	<path class="st0" d="M310.72,2L310.72,2c-0.12,0-25.5,9.13-63.28,9.02h-0.35C209.54,11.13,184.28,2,184.28,2h-0.12l-11.94,4.97
		c0,0,30.02,12.37,74.76,12.26h0.46c44.97,0.23,75.22-12.26,75.22-12.26L310.72,2z"/>
</g>
</svg>
