<?xml version="1.0" encoding="utf-8"?>
<!-- Generator: Adobe Illustrator 19.1.0, SVG Export Plug-In . SVG Version: 6.00 Build 0)  -->
<svg version="1.1" id="Layer_1" xmlns="http://www.w3.org/2000/svg" xmlns:xlink="http://www.w3.org/1999/xlink" x="0px" y="0px"
	 viewBox="0 0 495 576" style="enable-background:new 0 0 495 576;" xml:space="preserve">
<style type="text/css">
	<![CDATA[
	@font-face{font-family:'codaheavy';src:url('/fonts/coda-heavy-webfont.woff') format('woff')}
	text{font-family:Impact,codaheavy,sans-serif}
	.Colour1.fill{stroke:#414042;stroke-miterlimit:10;}
	.Colour2.fill{fill:#0BC6E5;}
	.Colour3.fill{fill:#0B1940;}
	.Colour4.fill{fill:#0C003E;}
	.Colour5.fill{fill:#032E8C;}
	.NeckAndArmTrim.fill{fill:#414042;}
	.BottomHem.fill{fill:#0BC6E5;}
	.st0{fill:none;stroke:#414042;stroke-miterlimit:10;}
	.st1{fill:none;stroke:#414042;stroke-miterlimit:10;stroke-dasharray:2;}
	.st2{fill:#FFFFFF;stroke:#414042;stroke-miterlimit:10;}
	.st3{clip-path:url(#SVGID_3_);fill:#0B1940;}
	.st4{clip-path:url(#SVGID_3_);fill:url(#SVGID_4_);}
	.st5{fill:url(#SVGID_5_);}
	.st7{fill:#FFFFFF;}
	]]>
</style>
<path class="Colour1 fill" d="M439.11,64.76c0,0,46.18,55.04,54.37,148.75c0,0-64.06,39.05-86.4,25.66c0,0,1.37-13.64-10.68-34.34
	C396.4,204.83,396.28,130.58,439.11,64.76z"/>
<path class="Colour1 fill" d="M55.87,64.76c0,0-46.18,55.04-54.37,148.75c0,0,64.06,39.05,86.4,25.66c0,0-1.37-13.64,10.68-34.34
	C98.58,204.83,98.7,130.58,55.87,64.76z"/>
<path class="NeckAndArmTrim fill" d="M419.23,241.38c-4.7,0-8.59-0.85-11.56-2.53c0.07-1.29,0.13-5.73-1.6-12.56
	c0.35,0.01,0.69,0.01,1.04,0.01c34.14,0,77.58-25.85,83.83-29.68c0.77,5.38,1.41,10.91,1.91,16.58
	C488.77,215.65,445.16,241.38,419.23,241.38z"/>
<path class="NeckAndArmTrim fill" d="M2.09,213.2C2.59,207.53,3.24,202,4,196.62c6.25,3.83,49.69,29.68,83.83,29.68
	c0.35,0,0.7-0.01,1.04-0.01c-1.73,6.83-1.67,11.27-1.6,12.56c-2.97,1.68-6.85,2.53-11.56,2.53C49.8,241.38,6.18,215.65,2.09,213.2z"
	/>
<path class="Colour1 fill" d="M439.13,64.76C427.95,46.17,322.8,6.38,322.8,6.38l-0.31,0.11l0.26,0.14c0,0-3.86,57.68-75.02,57.8l-0.22,0
	c-71.37,0-75.24-57.8-75.24-57.8l0.24-0.13l-0.3-0.12c0,0-105.15,39.79-116.32,58.38c0,0,39.73,55.78,42.71,140.07
	c0,0,14.4,194.36,0,348.06c0,0,23.21,15.87,148.91,20.82c125.7-4.96,148.91-20.82,148.91-20.82c-14.4-153.7,0-348.06,0-348.06
	C399.4,120.54,439.13,64.76,439.13,64.76z"/>
<path class="st0" d="M3.57,195.66c0,0,48.93,31.08,86.1,30.04"/>
<path class="st1" d="M3.03,200.12c0,0,48.93,31.08,86.1,30.04"/>
<path class="st0" d="M405.32,225.7c37.16,1.04,86.1-30.04,86.1-30.04"/>
<path class="st1" d="M491.95,200.12c0,0-48.93,31.08-86.1,30.04"/>
<path class="st0" d="M247.51,6.38"/>
<g>
	<path class="st2" d="M247.51,11.49"/>
</g>
<g>
	<path class="st2" d="M247.51,11.49C287.45,11.67,314.24,2,314.24,2v9.59c0,0-37.4,8.24-66.73,8.24l-0.29,0
		c-29.28-0.05-66.43-8.24-66.43-8.24V2c0,0,26.62,9.61,66.35,9.49L247.51,11.49z"/>
	<path class="st2" d="M247.51,64.42c-71.37,0-75.24-57.8-75.24-57.8L180.78,2c0,0,9.26,48.8,66.73,48.8l0.32,0
		C305.01,50.61,314.24,2,314.24,2l8.51,4.63c0,0-3.86,57.68-75.02,57.8L247.51,64.42z"/>
</g>
<g>
	<path class="st0" d="M395.03,538.05c0,0-23,15.87-147.54,20.82"/>
	<path class="st0" d="M247.49,558.87c-124.54-4.96-147.54-20.82-147.54-20.82"/>
</g>
<path class="Colour2 fill" d="M326.04,7.9c0.21,0.08,0.45,0.17,0.68,0.26C326.48,8.07,326.25,7.98,326.04,7.9z"/>
<path class="Colour2 fill" d="M325.23,7.59c0.18,0.07,0.38,0.15,0.59,0.23C325.61,7.74,325.42,7.66,325.23,7.59z"/>
<path class="Colour2 fill" d="M328.04,8.67c0.31,0.12,0.62,0.24,0.95,0.37C328.66,8.92,328.34,8.79,328.04,8.67z"/>
<path class="Colour2 fill" d="M324.5,7.31c0.15,0.06,0.31,0.12,0.48,0.19C324.81,7.43,324.65,7.36,324.5,7.31z"/>
<path class="Colour2 fill" d="M167.55,185.84v382.41c1.51,0.17,3.06,0.35,4.64,0.52V183.37C95.43,132.1,61.29,69.12,57.86,62.52
	c-0.82,0.88-1.48,1.72-1.96,2.52c0,0,7.03,9.87,15.39,27.58C88.76,117.14,119.77,153.48,167.55,185.84z"/>
<path class="Colour2 fill" d="M329.16,9.11c0.34,0.13,0.7,0.27,1.06,0.41C329.85,9.38,329.5,9.24,329.16,9.11z"/>
<path class="Colour2 fill" d="M323.88,7.07c0.13,0.05,0.27,0.1,0.42,0.16C324.15,7.17,324.01,7.12,323.88,7.07z"/>
<path class="Colour2 fill" d="M247.08,18.92c-44.76,0.14-74.75-12.25-74.75-12.25l-0.12-0.01c0,0-0.14,0.05-0.39,0.15
	c3.46,1.36,32.63,12.31,74.83,12.11L247.08,18.92z"/>
<path class="Colour2 fill" d="M323.44,6.9c0.09,0.04,0.2,0.08,0.32,0.12C323.64,6.98,323.53,6.94,323.44,6.9z"/>
<path class="Colour2 fill" d="M323.09,6.77c0.04,0.01,0.1,0.04,0.14,0.05C323.18,6.8,323.13,6.78,323.09,6.77z"/>
<path class="Colour2 fill" d="M247.84,573.99h0.02c0.73-0.03,1.45-0.06,2.17-0.09C249.3,573.93,248.58,573.96,247.84,573.99z"/>
<path class="Colour2 fill" d="M322.8,6.66c0,0,0.09,0.03,0.24,0.09C322.89,6.69,322.8,6.66,322.8,6.66z"/>
<path class="Colour2 fill" d="M330.43,9.61c0.37,0.14,0.75,0.29,1.14,0.45C331.17,9.9,330.8,9.75,330.43,9.61z"/>
<path class="Colour2 fill" d="M331.77,10.14c0.4,0.16,0.81,0.32,1.23,0.48C332.58,10.45,332.17,10.29,331.77,10.14z"/>
<path class="Colour2 fill" d="M333.21,10.7c25.08,9.9,87.94,35.67,103.39,51.24C421.14,46.37,358.28,20.6,333.21,10.7z"/>
<path class="Colour2 fill" d="M327.04,8.29c0.24,0.09,0.48,0.19,0.74,0.29C327.52,8.48,327.28,8.38,327.04,8.29z"/>
<path class="Colour2 fill" d="M292.59,571.49c-1.11,0.08-2.23,0.16-3.36,0.25C290.36,571.65,291.48,571.57,292.59,571.49z"/>
<path class="Colour2 fill" d="M306.07,570.4c-1.19,0.11-2.4,0.21-3.63,0.31C303.66,570.61,304.87,570.51,306.07,570.4z"/>
<path class="Colour2 fill" d="M297.25,571.13c-1.15,0.09-2.3,0.18-3.47,0.27C294.94,571.31,296.1,571.22,297.25,571.13z"/>
<path class="Colour2 fill" d="M436.6,61.94c0,0-33.53,67.25-114.62,121.43v385.48c-1.21,0.13-2.44,0.26-3.69,0.39
	c2.87-0.29,5.65-0.59,8.32-0.9v-382.5c50.37-34.11,82.11-72.66,98.99-97.11c7.51-15.25,13.52-23.68,13.52-23.68
	C438.54,64.07,437.68,63.03,436.6,61.94z"/>
<path class="Colour2 fill" d="M310.25,570.02c-1.2,0.11-2.42,0.22-3.66,0.33C307.82,570.24,309.04,570.13,310.25,570.02z"/>
<path class="Colour2 fill" d="M318.22,569.25c-1.21,0.12-2.45,0.25-3.7,0.37C315.77,569.49,317,569.37,318.22,569.25z"/>
<path class="Colour2 fill" d="M314.3,569.64c-1.21,0.12-2.44,0.23-3.68,0.35C311.86,569.87,313.09,569.76,314.3,569.64z"/>
<path class="Colour2 fill" d="M301.73,570.77c-1.18,0.1-2.37,0.2-3.57,0.29C299.37,570.97,300.56,570.87,301.73,570.77z"/>
<path class="Colour2 fill" d="M261.67,573.37c-0.9,0.04-1.8,0.09-2.72,0.13C259.87,573.46,260.77,573.42,261.67,573.37z"/>
<path class="Colour2 fill" d="M267.19,573.09c-0.94,0.05-1.87,0.1-2.81,0.15C265.33,573.19,266.26,573.14,267.19,573.09z"/>
<path class="Colour2 fill" d="M255.93,573.64c-0.84,0.04-1.67,0.08-2.52,0.11C254.26,573.72,255.09,573.68,255.93,573.64z"/>
<path class="Colour2 fill" d="M287.81,571.83c-1.08,0.08-2.16,0.15-3.25,0.22C285.65,571.98,286.73,571.91,287.81,571.83z"/>
<path class="Colour2 fill" d="M282.88,572.17c-1.05,0.07-2.09,0.14-3.16,0.2C280.79,572.3,281.83,572.24,282.88,572.17z"/>
<path class="Colour2 fill" d="M272.57,572.8c-0.97,0.06-1.94,0.11-2.93,0.17C270.63,572.91,271.6,572.85,272.57,572.8z"/>
<path class="Colour2 fill" d="M277.82,572.49c-1.02,0.06-2.03,0.12-3.07,0.19C275.79,572.61,276.8,572.55,277.82,572.49z"/>
<g>
	
		<path id="SVGID_1_" class="Colour4 fill" d="M322.41,183.37v385.48c-19.56,2.1-43.99,3.95-74.47,5.15h-0.85c-30.48-1.2-54.91-3.05-74.47-5.15V183.37
			C91.51,129.2,57.99,61.94,57.99,61.94C77.4,42.38,171.79,6.66,171.79,6.66l0.12,0.01c0,0,30.18,12.47,75.17,12.25l0.43,0l0.43,0
			c44.99,0.21,75.17-12.25,75.17-12.25l0.12-0.01c0,0,94.38,35.72,113.8,55.28C437.03,61.94,403.51,129.2,322.41,183.37z"/>
	
	
	<clipPath id="SVGID_3_">
		<use xlink:href="#SVGID_1_"  style="overflow:visible;"/>
	</clipPath>
	<path class="st3 Colour3 fill" d="M396.82,197.12V38.11c-16.38-7.89-34.47-15.59-48.67-21.41v548.79c38.92-5.93,48.27-12.32,48.27-12.32
		c-14.4-153.7,0-348.07,0-348.07C396.51,202.42,396.65,199.76,396.82,197.12z"/>
	<path class="st3 Colour3 fill" d="M213.9,572.28c10.3,0.66,21.47,1.24,33.6,1.72c12.14-0.48,23.31-1.06,33.6-1.72V39.22l-27.19-20.36
		c-2.11,0.05-4.24,0.07-6.42,0.06l-0.43,0c-2.03,0.01-4.02-0.02-5.99-0.06L213.9,39.22V572.28z"/>
	<path class="st3 Colour3 fill" d="M98.2,38.11v159.01c0.17,2.63,0.3,5.3,0.4,7.99c0,0,14.4,194.36,0,348.07c0,0,9.35,6.38,48.27,12.32V16.71
		C132.67,22.52,114.58,30.23,98.2,38.11z"/>
	<rect x="213.9" y="234.46" class="st4" width="67.21" height="74.63"/>
	<rect x="281.11" y="191.27" class="st3 Colour3 fill" width="67.21" height="161.02"/>
</g>
<path class="Colour2 fill" d="M307.29,8.86c0,0,4.55,4.71,16.95,10.06c0,0,48.71,17.31,109.93,54.53c0,0,12.3,76.85-37.4,131.66
	c0,0,49.26-10.11,67.57,23.5c0,0-6.03-30.7-39.63-32.68c0,0,21.23-10.89,50.4,9.38l16.51-10.53c0,0-6.28-50.2-32.54-99.27
	c0,0,7.99,33.65-13.77,63.74c0,0,14.04-38.19,3.96-80.42l-11.89-16.9c0,0-16.73-18.12-113.92-55.28l-8.45,0.04L307.29,8.86z"/>
<path class="Colour2 fill" d="M187.73,8.86c0,0-4.55,4.71-16.95,10.06c0,0-48.71,17.31-109.93,54.53c0,0-12.3,76.85,37.4,131.66
	c0,0-49.26-10.11-67.57,23.5c0,0,6.03-30.7,39.63-32.68c0,0-21.23-10.89-50.4,9.38L3.4,194.8c0,0,6.28-50.2,32.54-99.27
	c0,0-7.99,33.65,13.77,63.74c0,0-14.04-38.19-3.96-80.42l11.89-16.9c0,0,16.73-18.12,113.92-55.28l8.45,0.04L187.73,8.86z"/>
<path class="NeckAndArmTrim fill" d="M247.51,11.49C287.45,11.67,314.24,2,314.24,2v9.59c0,0-37.4,8.24-66.73,8.24l-0.29,0
	c-29.28-0.05-66.43-8.24-66.43-8.24V2c0,0,26.62,9.61,66.35,9.49L247.51,11.49z"/>
<path class="NeckAndArmTrim fill" d="M247.51,64.42c-71.37,0-75.24-57.8-75.24-57.8L180.78,2c0,0,9.26,48.8,66.73,48.8l0.32,0
	C305.01,50.61,314.24,2,314.24,2l8.51,4.63c0,0-3.86,57.68-75.02,57.8L247.51,64.42z"/>
<linearGradient id="SVGID_5_" gradientUnits="userSpaceOnUse" x1="247.5092" y1="324.7346" x2="247.5092" y2="556.91">
	<stop class="stopColor" offset="0" style="stop-color:#000000"/>
	<stop class="stopColor" offset="1" style="stop-color:#0BC6E5"/>
</linearGradient>
<path class="st5" d="M384.92,556.06l1.16-231.33l1.16,231.33H384.92z M378.06,556.06l-1.16-231.33l-1.16,231.33H378.06z
	 M368.99,556.06l-1.16-231.33l-1.16,231.33H368.99z M359.91,556.06l-1.16-231.33l-1.16,231.33H359.91z M350.83,556.06l-1.16-231.33
	l-1.16,231.33H350.83z M341.75,556.06l-1.16-231.33l-1.16,231.33H341.75z M332.68,556.06l-1.16-231.33l-1.16,231.33H332.68z
	 M110.1,556.06l-1.16-231.33l-1.16,231.33H110.1z M119.27,556.06l-1.16-231.33l-1.16,231.33H119.27z M128.35,556.06l-1.16-231.33
	l-1.16,231.33H128.35z M137.43,556.06l-1.16-231.33l-1.16,231.33H137.43z M146.5,556.06l-1.16-231.33l-1.16,231.33H146.5z
	 M155.58,556.06l-1.16-231.33l-1.16,231.33H155.58z M164.66,556.06l-1.16-231.33l-1.16,231.33H164.66z"/>
<linearGradient id="SVGID_6_" gradientUnits="userSpaceOnUse" x1="247.5092" y1="328.1828" x2="247.5092" y2="555.4572">
	<stop class="stopColor" offset="0" style="stop-color:#000000"/>
	<stop class="stopColor" offset="1" style="stop-color:#032E8C"/>
</linearGradient>
<path class="Colour5 fill" d="M380.28,556.06l1.16-231.33l1.16,231.33H380.28z M373.52,556.06l-1.16-231.33l-1.16,231.33H373.52z
	 M364.45,556.06l-1.16-231.33l-1.16,231.33H364.45z M355.37,556.06l-1.16-231.33l-1.16,231.33H355.37z M346.29,556.06l-1.16-231.33
	l-1.16,231.33H346.29z M337.22,556.06l-1.16-231.33l-1.16,231.33H337.22z M328.14,556.06l-1.16-231.33l-1.16,231.33H328.14z
	 M114.73,556.06l-1.16-231.33l-1.16,231.33H114.73z M123.81,556.06l-1.16-231.33l-1.16,231.33H123.81z M132.89,556.06l-1.16-231.33
	l-1.16,231.33H132.89z M141.97,556.06l-1.16-231.33l-1.16,231.33H141.97z M151.04,556.06l-1.16-231.33l-1.16,231.33H151.04z
	 M160.12,556.06l-1.16-231.33l-1.16,231.33H160.12z M169.2,556.06l-1.16-231.33l-1.16,231.33H169.2z"/>
<g id="FBodyLogos"></g>
<path class="BottomHem fill" d="M247.51,559.16c124.54-4.96,147.54-20.82,147.54-20.82l1.37,14.84c0,0-34.6,17.88-149.34,20.82
	c0,0-105.75-1.2-148.48-20.82l1.37-14.84C99.97,538.33,122.97,554.2,247.51,559.16"/>
<g>
	<path class="st1" d="M395.03,542.51c0,0-23,15.87-147.54,20.82"/>
	<path class="st1" d="M247.49,563.34c-124.54-4.96-147.54-20.82-147.54-20.82"/>
</g>
<path class="st0" d="M314.24,2c0,0-26.79,9.67-66.73,9.49l-0.38,0C207.4,11.61,180.78,2,180.78,2l-8.51,4.63
	c0,0,3.87,57.8,75.24,57.8l0.22,0c71.16-0.12,75.02-57.8,75.02-57.8L314.24,2z M247.83,50.79l-0.32,0
	c-40.44,0-57.01-24.16-63.28-38.48c9.86,2,39.04,7.48,62.98,7.52l0.29,0c23.99,0,53.38-5.52,63.28-7.52
	C304.53,26.59,288.04,50.67,247.83,50.79z"/>
<path class="st0" d="M439.13,64.76c0,0,46.18,55.04,54.37,148.75c0,0-64.06,39.05-86.4,25.66c0,0,1.37-13.64-10.68-34.34
	C396.42,204.83,396.3,130.58,439.13,64.76z"/>
<path class="st0" d="M55.89,64.76c0,0-46.18,55.04-54.37,148.75c0,0,64.06,39.05,86.4,25.66c0,0-1.37-13.64,10.68-34.34
	C98.6,204.83,98.72,130.58,55.89,64.76z"/>
<g>
	<path class="st0" d="M439.14,64.76C427.97,46.17,322.82,6.38,322.82,6.38l-0.31,0.11l0.26,0.14c0,0-3.86,57.68-75.02,57.8l-0.22,0
		c-71.37,0-75.24-57.8-75.24-57.8l0.24-0.13l-0.3-0.12c0,0-105.15,39.79-116.32,58.38c0,0,39.73,55.78,42.71,140.07
		c0,0,14.4,194.36,0,348.06c0,0,23.21,15.87,148.91,20.82c125.7-4.96,148.91-20.82,148.91-20.82c-14.4-153.7,0-348.06,0-348.06
		C399.42,120.54,439.14,64.76,439.14,64.76z"/>
</g>
<path class="st7" d="M247.83,50.79l-0.32,0c-40.44,0-57.01-24.16-63.28-38.48c9.87,2,39.05,7.48,62.98,7.52l0.29,0
	c23.99,0,53.37-5.51,63.28-7.52C304.53,26.59,288.04,50.67,247.83,50.79z"/>
</svg>
