<?xml version="1.0" encoding="utf-8"?>
<!-- Generator: Adobe Illustrator 19.1.0, SVG Export Plug-In . SVG Version: 6.00 Build 0)  -->
<svg version="1.1" id="Layer_1" xmlns="http://www.w3.org/2000/svg" xmlns:xlink="http://www.w3.org/1999/xlink" x="0px" y="0px"
	 viewBox="0 0 495 576" style="enable-background:new 0 0 495 576;" xml:space="preserve">
<style type="text/css">
	<![CDATA[
	@font-face{font-family:'codaheavy';src:url('/fonts/coda-heavy-webfont.woff') format('woff')}
	text{font-family:Impact,codaheavy,sans-serif}
	.Number.fill{fill:#000}
	.NumberOutline.stroke{fill:none;stroke:#777;stroke-width:2.5}
	.Colour1.fill{stroke:#414042;stroke-miterlimit:10;}
	.Colour2.fill{fill:#0BC6E5;}
	.Colour3.fill{fill:#0B1940;}
	.Colour4.fill{fill:#0C003E;}
	.Colour5.fill{fill:#032E8C;}
	.NeckAndArmTrim.fill{fill:#414042;}
	.BottomHem.fill{fill:#0BC6E5;}
	.st0{fill:none;stroke:#414042;stroke-miterlimit:10;}
	.st1{fill:none;stroke:#414042;stroke-miterlimit:10;stroke-dasharray:2;}
	.st2{clip-path:url(#SVGID_3_);fill:#0B1940;}
	.st3{clip-path:url(#SVGID_3_);fill:url(#SVGID_4_);}
	.st4{fill:url(#SVGID_5_);}
	.st5{fill:url(#SVGID_5_);}
	]]>
</style>
<path class="Colour1 fill" d="M247.85,573.99c125.4-4.97,148.57-20.8,148.57-20.8c-14.4-153.62,0-347.89,0-347.89
	c2.98-84.25,42.71-140,42.71-140C427.95,46.72,322.8,6.95,322.8,6.95l-0.12,0.01c0,0-30.18,12.46-75.18,12.25l-0.43,0
	c-44.76,0.14-74.75-12.25-74.75-12.25l-0.12-0.01c0,0-105.15,39.77-116.33,58.35c0,0,39.73,55.75,42.71,140
	c0,0,14.4,194.26,0,347.89c0,0,23.18,15.83,148.59,20.8L247.85,573.99z"/>
<path class="Colour1 fill" d="M439.12,65.3c0,0,46.18,55.01,54.38,148.67c0,0-64.06,39.03-86.41,25.65c0,0,1.37-13.63-10.68-34.32
	C396.42,205.3,396.29,131.09,439.12,65.3z"/>
<path class="Colour1 fill" d="M55.88,65.3c0,0-46.18,55.01-54.38,148.67c0,0,64.06,39.03,86.41,25.65c0,0-1.37-13.63,10.68-34.32
	C98.58,205.3,98.71,131.09,55.88,65.3z"/>
<path class="NeckAndArmTrim fill" d="M419.26,241.83c-4.7,0-8.59-0.85-11.56-2.53c0.07-1.29,0.13-5.73-1.6-12.55
	c0.35,0.01,0.69,0.01,1.04,0.01c34.14,0,77.58-25.84,83.83-29.67c0.77,5.38,1.41,10.9,1.91,16.57
	C488.8,216.11,445.19,241.83,419.26,241.83z"/>
<path class="NeckAndArmTrim fill" d="M2.1,213.66c0.5-5.66,1.15-11.19,1.91-16.57c6.25,3.83,49.69,29.67,83.83,29.67
	c0.35,0,0.7-0.01,1.04-0.01c-1.73,6.82-1.67,11.26-1.6,12.55c-2.97,1.68-6.85,2.53-11.56,2.53C49.81,241.83,6.2,216.11,2.1,213.66z"
	/>
<path class="st0" d="M3.57,196.13c0,0,48.93,31.06,86.1,30.02"/>
<path class="st1" d="M3.03,200.59c0,0,48.93,31.06,86.1,30.02"/>
<path class="st0" d="M491.43,196.13c0,0-48.93,31.06-86.1,30.02"/>
<path class="st1" d="M491.97,200.59c0,0-48.93,31.06-86.1,30.02"/>
<g>
	<path class="st0" d="M395.05,538.35c0,0-23,15.86-147.55,20.81"/>
	<path class="st0" d="M247.5,559.16c-124.55-4.96-147.55-20.81-147.55-20.81"/>
</g>
<g>
	<path class="st1" d="M395.05,542.81c0,0-23,15.86-147.55,20.81"/>
	<path class="st1" d="M247.5,563.62c-124.55-4.96-147.55-20.81-147.55-20.81"/>
</g>
<g>
	<path class="Colour2 fill" d="M326.03,8.19c0.22,0.08,0.45,0.17,0.68,0.26C326.47,8.36,326.25,8.27,326.03,8.19z"/>
	<path class="Colour2 fill" d="M325.23,7.88c0.18,0.07,0.38,0.15,0.59,0.23C325.61,8.03,325.41,7.95,325.23,7.88z"/>
	<path class="Colour2 fill" d="M328.03,8.97c0.31,0.12,0.62,0.24,0.95,0.37C328.65,9.21,328.34,9.08,328.03,8.97z"/>
	<path class="Colour2 fill" d="M324.49,7.6c0.15,0.06,0.31,0.12,0.48,0.18C324.8,7.72,324.64,7.65,324.49,7.6z"/>
	<path class="Colour2 fill" d="M167.54,186.04v382.21c1.51,0.17,3.06,0.35,4.64,0.52V183.57C95.41,132.33,61.28,69.38,57.84,62.78
		c-0.82,0.87-1.48,1.72-1.96,2.52c0,0,7.03,9.86,15.39,27.56C88.75,117.38,119.76,153.7,167.54,186.04z"/>
	<path class="Colour2 fill" d="M329.15,9.4c0.34,0.13,0.7,0.27,1.06,0.41C329.84,9.67,329.49,9.53,329.15,9.4z"/>
	<path class="Colour2 fill" d="M323.88,7.36c0.13,0.05,0.27,0.1,0.42,0.16C324.15,7.47,324,7.41,323.88,7.36z"/>
	<path class="Colour2 fill" d="M247.07,19.21c-44.76,0.14-74.75-12.25-74.75-12.25l-0.12-0.01c0,0-0.14,0.05-0.39,0.15
		c3.46,1.36,32.63,12.31,74.83,12.11L247.07,19.21z"/>
	<path class="Colour2 fill" d="M323.43,7.19c0.09,0.04,0.2,0.08,0.32,0.12C323.64,7.27,323.52,7.23,323.43,7.19z"/>
	<path class="Colour2 fill" d="M323.08,7.06c0.04,0.01,0.1,0.04,0.14,0.05C323.17,7.09,323.12,7.07,323.08,7.06z"/>
	<path class="Colour2 fill" d="M247.83,573.99h0.02c0.73-0.03,1.45-0.06,2.17-0.09C249.29,573.93,248.57,573.96,247.83,573.99z"/>
	<path class="Colour2 fill" d="M322.8,6.95c0,0,0.09,0.03,0.24,0.09C322.89,6.99,322.8,6.95,322.8,6.95z"/>
	<path class="Colour2 fill" d="M330.42,9.9c0.37,0.14,0.75,0.29,1.14,0.45C331.17,10.19,330.79,10.04,330.42,9.9z"/>
	<path class="Colour2 fill" d="M331.77,10.43c0.4,0.16,0.81,0.32,1.23,0.48C332.57,10.74,332.16,10.58,331.77,10.43z"/>
	<path class="Colour2 fill" d="M333.2,10.99c25.08,9.89,87.94,35.66,103.4,51.21C421.14,46.64,358.28,20.88,333.2,10.99z"/>
	<path class="Colour2 fill" d="M327.03,8.58c0.24,0.09,0.48,0.19,0.74,0.29C327.52,8.77,327.27,8.67,327.03,8.58z"/>
	<path class="Colour2 fill" d="M292.59,571.49c-1.11,0.08-2.23,0.16-3.36,0.24C290.36,571.66,291.47,571.57,292.59,571.49z"/>
	<path class="Colour2 fill" d="M306.06,570.4c-1.19,0.11-2.4,0.21-3.63,0.31C303.66,570.61,304.86,570.51,306.06,570.4z"/>
	<path class="Colour2 fill" d="M297.24,571.14c-1.15,0.09-2.3,0.18-3.47,0.27C294.94,571.32,296.09,571.23,297.24,571.14z"/>
	<path class="Colour2 fill" d="M436.6,62.21c0,0-33.53,67.22-114.63,121.37v385.28c-1.21,0.13-2.44,0.26-3.69,0.39
		c2.87-0.29,5.65-0.59,8.32-0.9v-382.3c50.37-34.09,82.11-72.62,99-97.06c7.51-15.24,13.52-23.67,13.52-23.67
		C438.54,64.33,437.68,63.29,436.6,62.21z"/>
	<path class="Colour2 fill" d="M310.24,570.02c-1.2,0.11-2.42,0.22-3.66,0.33C307.82,570.25,309.04,570.14,310.24,570.02z"/>
	<path class="Colour2 fill" d="M318.21,569.25c-1.21,0.12-2.45,0.25-3.7,0.37C315.76,569.5,317,569.37,318.21,569.25z"/>
	<path class="Colour2 fill" d="M314.29,569.64c-1.21,0.12-2.44,0.23-3.68,0.35C311.85,569.87,313.08,569.76,314.29,569.64z"/>
	<path class="Colour2 fill" d="M301.73,570.77c-1.18,0.1-2.37,0.2-3.57,0.29C299.36,570.97,300.55,570.87,301.73,570.77z"/>
	<path class="Colour2 fill" d="M261.67,573.37c-0.9,0.04-1.8,0.09-2.72,0.13C259.87,573.46,260.76,573.42,261.67,573.37z"/>
	<path class="Colour2 fill" d="M267.19,573.09c-0.94,0.05-1.87,0.1-2.82,0.15C265.32,573.19,266.25,573.14,267.19,573.09z"/>
	<path class="Colour2 fill" d="M255.92,573.64c-0.84,0.04-1.67,0.08-2.52,0.11C254.25,573.72,255.08,573.68,255.92,573.64z"/>
	<path class="Colour2 fill" d="M287.8,571.84c-1.08,0.08-2.16,0.15-3.25,0.22C285.64,571.98,286.72,571.91,287.8,571.84z"/>
	<path class="Colour2 fill" d="M282.87,572.17c-1.05,0.07-2.09,0.14-3.16,0.2C280.78,572.3,281.83,572.24,282.87,572.17z"/>
	<path class="Colour2 fill" d="M272.57,572.8c-0.97,0.06-1.94,0.11-2.93,0.17C270.62,572.91,271.59,572.85,272.57,572.8z"/>
	<path class="Colour2 fill" d="M277.81,572.49c-1.02,0.06-2.03,0.12-3.07,0.19C275.78,572.61,276.79,572.55,277.81,572.49z"/>
</g>
<g>
	<path id="SVGID_1_" class="Colour4 fill" d="M322.4,183.57v385.28c-19.56,2.1-44,3.95-74.48,5.15h-0.85c-30.48-1.2-54.92-3.04-74.48-5.15V183.57
			C91.5,129.43,57.97,62.21,57.97,62.21c19.42-19.56,113.8-55.26,113.8-55.26l0.12,0.01c0,0,30.18,12.46,75.18,12.25l0.43,0l0.43,0
			c45,0.21,75.18-12.25,75.18-12.25l0.12-0.01c0,0,94.39,35.7,113.8,55.26C437.03,62.21,403.5,129.43,322.4,183.57z"/>
	<clipPath id="SVGID_3_">
		<use xlink:href="#SVGID_1_"  style="overflow:visible;"/>
	</clipPath>
	<path class="st2 Colour3 fill" d="M396.81,197.32V38.39c-16.38-7.88-34.47-15.58-48.67-21.39v548.5c38.92-5.93,48.27-12.31,48.27-12.31
		c-14.4-153.62,0-347.89,0-347.89C396.51,202.61,396.64,199.95,396.81,197.32z"/>
	<path class="st2 Colour3 fill" d="M213.89,572.28c10.3,0.66,21.47,1.24,33.61,1.72c12.14-0.48,23.31-1.06,33.61-1.72V39.49l-27.19-20.35
		c-2.11,0.05-4.24,0.07-6.42,0.06l-0.43,0c-2.03,0.01-4.02-0.02-5.99-0.06l-27.19,20.35V572.28z"/>
	<path class="st2 Colour3 fill" d="M98.19,38.39v158.93c0.17,2.63,0.3,5.29,0.4,7.98c0,0,14.4,194.26,0,347.89c0,0,9.35,6.38,48.27,12.31V16.99
		C132.66,22.8,114.57,30.51,98.19,38.39z"/>
	<rect x="213.89" y="234.64" class="st3" width="67.21" height="74.59"/>
	<rect x="281.11" y="191.47" class="st2 Colour3 fill" width="67.21" height="160.94"/>
</g>
<path class="Colour2 fill" d="M306.93,9.15c0,0,4.55,4.71,16.95,10.06c0,0,48.71,17.3,109.94,54.5c0,0,12.3,76.82-37.4,131.6
	c0,0,49.27-10.11,67.57,23.49c0,0-6.03-30.69-39.63-32.66c0,0,21.23-10.88,50.4,9.38l16.51-10.52c0,0-6.28-50.17-32.54-99.22
	c0,0,7.99,33.64-13.77,63.7c0,0,14.04-38.17,3.96-80.38l-11.89-16.89c0,0-16.73-18.11-113.93-55.25L314.65,7L306.93,9.15z"/>
<path class="Colour2 fill" d="M187.37,9.15c0,0-4.55,4.71-16.95,10.06c0,0-48.71,17.3-109.94,54.5c0,0-12.3,76.82,37.4,131.6
	c0,0-49.27-10.11-67.57,23.49c0,0,6.03-30.69,39.63-32.66c0,0-21.23-10.88-50.4,9.38L3.03,194.99c0,0,6.28-50.17,32.54-99.22
	c0,0-7.99,33.64,13.77,63.7c0,0-14.04-38.17-3.96-80.38l11.89-16.89c0,0,16.73-18.11,113.93-55.25L179.64,7L187.37,9.15z"/>
<path class="NeckAndArmTrim fill" d="M310.75,2.01l-0.1,0.01c0,0-25.35,9.15-63.15,8.97l-0.36,0c-37.6,0.12-62.79-8.97-62.79-8.97
	l-0.1-0.01l-11.93,4.95c0,0,29.99,12.39,74.75,12.25l0.43,0c45,0.21,75.18-12.25,75.18-12.25L310.75,2.01z"/>

<linearGradient id="SVGID_5_" gradientUnits="userSpaceOnUse" x1="247.5092" y1="324.7346" x2="247.5092" y2="556.91">
	<stop class="stopColor" offset="0" style="stop-color:#000000"/>
	<stop class="stopColor" offset="1" style="stop-color:#0BC6E5"/>
</linearGradient>
<path class="st5" d="M384.92,556.06l1.16-231.33l1.16,231.33H384.92z M378.06,556.06l-1.16-231.33l-1.16,231.33H378.06z
	 M368.99,556.06l-1.16-231.33l-1.16,231.33H368.99z M359.91,556.06l-1.16-231.33l-1.16,231.33H359.91z M350.83,556.06l-1.16-231.33
	l-1.16,231.33H350.83z M341.75,556.06l-1.16-231.33l-1.16,231.33H341.75z M332.68,556.06l-1.16-231.33l-1.16,231.33H332.68z
	 M110.1,556.06l-1.16-231.33l-1.16,231.33H110.1z M119.27,556.06l-1.16-231.33l-1.16,231.33H119.27z M128.35,556.06l-1.16-231.33
	l-1.16,231.33H128.35z M137.43,556.06l-1.16-231.33l-1.16,231.33H137.43z M146.5,556.06l-1.16-231.33l-1.16,231.33H146.5z
	 M155.58,556.06l-1.16-231.33l-1.16,231.33H155.58z M164.66,556.06l-1.16-231.33l-1.16,231.33H164.66z"/>
<linearGradient id="SVGID_6_" gradientUnits="userSpaceOnUse" x1="247.5092" y1="328.1828" x2="247.5092" y2="555.4572">
	<stop class="stopColor" offset="0" style="stop-color:#000000"/>
	<stop class="stopColor" offset="1" style="stop-color:#032E8C"/>
</linearGradient>
<path class="Colour5 fill" d="M380.28,556.06l1.16-231.33l1.16,231.33H380.28z M373.52,556.06l-1.16-231.33l-1.16,231.33H373.52z
	 M364.45,556.06l-1.16-231.33l-1.16,231.33H364.45z M355.37,556.06l-1.16-231.33l-1.16,231.33H355.37z M346.29,556.06l-1.16-231.33
	l-1.16,231.33H346.29z M337.22,556.06l-1.16-231.33l-1.16,231.33H337.22z M328.14,556.06l-1.16-231.33l-1.16,231.33H328.14z
	 M114.73,556.06l-1.16-231.33l-1.16,231.33H114.73z M123.81,556.06l-1.16-231.33l-1.16,231.33H123.81z M132.89,556.06l-1.16-231.33
	l-1.16,231.33H132.89z M141.97,556.06l-1.16-231.33l-1.16,231.33H141.97z M151.04,556.06l-1.16-231.33l-1.16,231.33H151.04z
	 M160.12,556.06l-1.16-231.33l-1.16,231.33H160.12z M169.2,556.06l-1.16-231.33l-1.16,231.33H169.2z"/>
<g>
	<g>
		<path class="BottomHem fill" d="M247.5,559.16c124.55-4.96,147.55-20.81,147.55-20.81l1.37,14.84c0,0-34.6,17.87-149.34,20.81
			c0,0-105.75-1.2-148.49-20.81l1.37-14.84C99.95,538.35,122.95,554.21,247.5,559.16"/>
	</g>
	<g>
		<path class="BottomHem fill" d="M247.5,559.16c124.55-4.96,147.55-20.81,147.55-20.81l1.37,14.84c0,0-34.6,17.87-149.34,20.81
			c0,0-105.75-1.2-148.49-20.81l1.37-14.84C99.95,538.35,122.95,554.21,247.5,559.16"/>
	</g>
</g>
<g>
	<path class="st1" d="M247.5,563.62c124.55-4.96,147.55-20.81,147.55-20.81"/>
	<path class="st1" d="M247.5,563.62c-124.55-4.96-147.55-20.81-147.55-20.81"/>
</g>
<g id="BBodyLogos"></g>
<path class="st0" d="M439.12,65.29c0,0,46.18,55.01,54.38,148.67c0,0-64.06,39.03-86.41,25.65c0,0,1.37-13.63-10.68-34.32
	C396.42,205.29,396.29,131.08,439.12,65.29z"/>
<path class="st0" d="M55.88,65.29c0,0-46.18,55.01-54.38,148.67c0,0,64.06,39.03,86.41,25.65c0,0-1.37-13.63,10.68-34.32
	C98.58,205.29,98.71,131.08,55.88,65.29z"/>
<path class="st0" d="M247.5,573.99c125.7-4.96,148.92-20.81,148.92-20.81c-14.4-153.62,0-347.89,0-347.89
	c2.98-84.25,42.71-140,42.71-140C427.95,46.71,322.8,6.94,322.8,6.94l-0.12,0.01c0,0-30.18,12.46-75.18,12.25l-0.43,0
	c-44.76,0.14-74.75-12.25-74.75-12.25l-0.12-0.01c0,0-105.15,39.77-116.33,58.35c0,0,39.73,55.75,42.71,140
	c0,0,14.4,194.26,0,347.89C98.58,553.17,121.8,569.03,247.5,573.99"/>
<path class="st0" d="M310.75,2l-0.1,0.01c0,0-25.35,9.15-63.15,8.97l-0.36,0c-37.6,0.12-62.79-8.97-62.79-8.97L184.25,2l-11.93,4.95
	c0,0,29.99,12.39,74.75,12.25l0.43,0c45,0.21,75.18-12.25,75.18-12.25L310.75,2z"/>
</svg>
