<?xml version="1.0" encoding="utf-8"?>
<!-- Generator: Adobe Illustrator 19.1.0, SVG Export Plug-In . SVG Version: 6.00 Build 0)  -->
<svg version="1.1" id="Layer_1" xmlns="http://www.w3.org/2000/svg" xmlns:xlink="http://www.w3.org/1999/xlink" x="0px" y="0px"
	 viewBox="0 0 495 576" style="enable-background:new 0 0 495 576;" xml:space="preserve">
<style type="text/css">
	<![CDATA[
	@font-face{font-family:'codaheavy';src:url('/fonts/coda-heavy-webfont.woff') format('woff')}
	text{font-family:Impact,codaheavy,sans-serif}
	.Colour1.fill{fill:#C8E3E4;}
	.Colour2.fill{fill:#5EB4AE;}
	.Colour3.fill{fill:#000000;}
	.BottomHem.fill{fill:#5EB4AE;}
	.NeckAndArmTrim.fill{fill:#5EB4AE;}
	.st0{fill:none;stroke:#000000;stroke-width:0.25;stroke-miterlimit:10;}
	.st1{fill:#FFFFFF;stroke:#000000;stroke-width:0.25;stroke-miterlimit:10;}
	.st2{fill:#FFFFFF;}
	.st3{fill:none;stroke:#000000;stroke-width:0.25;stroke-miterlimit:10;stroke-dasharray:2;}
	]]>
</style>
<path class="Colour1 fill" d="M396.49,204.83c0,0-14.39,194.36,0,348.06c0,0-23.2,15.87-148.81,20.82
	c-125.62-4.96-148.81-20.82-148.81-20.82c14.39-153.7,0-348.06,0-348.06C95.88,120.54,56.18,64.76,56.18,64.76
	C67.35,46.17,172.43,6.38,172.43,6.38l0.3,0.12l-0.24,0.13c0,0,3.86,57.8,75.19,57.8l0.22,0c71.12-0.12,74.97-57.8,74.97-57.8
	l-0.26-0.14l0.31-0.11c0,0,105.08,39.79,116.25,58.38C439.17,64.76,399.47,120.54,396.49,204.83z M396.47,204.83
	c12.03,20.7,10.67,34.34,10.67,34.34c22.33,13.39,86.35-25.66,86.35-25.66c-8.19-93.71-54.34-148.75-54.34-148.75
	C396.35,130.58,396.47,204.83,396.47,204.83z M56.16,64.76c0,0-46.15,55.04-54.34,148.75c0,0,64.02,39.05,86.35,25.66
	c0,0-1.36-13.64,10.67-34.34C98.84,204.83,98.97,130.58,56.16,64.76z"/>
<path class="st0" d="M247.67,6.38"/>
<g>
	<path class="st1" d="M247.67,11.49"/>
</g>
<g>
	<path class="st1" d="M247.67,11.49C287.59,11.67,314.36,2,314.36,2v9.59c0,0-37.38,8.24-66.68,8.24l-0.29,0
		c-29.26-0.05-66.39-8.24-66.39-8.24V2c0,0,26.6,9.61,66.31,9.49L247.67,11.49z"/>
	<path class="st1" d="M247.67,64.42c-71.33,0-75.19-57.8-75.19-57.8l8.5-4.63c0,0,9.25,48.8,66.68,48.8l0.32,0
		C305.14,50.61,314.36,2,314.36,2l8.5,4.63c0,0-3.86,57.68-74.97,57.8L247.67,64.42z"/>
</g>
<path class="st2" d="M248,50.79l-0.32,0c-40.42,0-56.97-24.16-63.24-38.48c9.86,2,39.03,7.48,62.94,7.52l0.29,0
	c23.97,0,53.33-5.51,63.24-7.52C304.66,26.59,288.18,50.67,248,50.79z"/>
<path class="Colour3 fill" d="M59.05,189.28l32.74,30.48c0.31-0.86,0.64-1.73,1-2.64L59.05,189.28z"/>
<g>
	<path class="Colour3 fill" d="M102.54,502.5c-0.04,0.67-0.07,1.34-0.11,2.01l26.99-13.73L102.54,502.5z"/>
	<path class="Colour3 fill" d="M103.28,487.73c-0.03,0.65-0.06,1.3-0.09,1.94l26.23-13.35L103.28,487.73z"/>
	<path class="Colour3 fill" d="M101.65,517.34c-0.05,0.7-0.09,1.39-0.14,2.09l27.9-14.2L101.65,517.34z"/>
	<path class="Colour3 fill" d="M100.61,532.24c-0.06,0.73-0.11,1.45-0.17,2.18l28.98-14.75L100.61,532.24z"/>
	<path class="Colour3 fill" d="M103.88,473.01c-0.02,0.63-0.05,1.26-0.07,1.89l25.61-13.03L103.88,473.01z"/>
	<path class="Colour3 fill" d="M104.37,458.35c-0.02,0.62-0.04,1.23-0.05,1.85l25.11-12.77L104.37,458.35z"/>
	<path class="Colour3 fill" d="M105.17,414.65c0,0.59-0.01,1.18-0.02,1.77l24.26-12.35L105.17,414.65z"/>
	<path class="Colour3 fill" d="M105.25,400.17c0,0.59,0,1.17-0.01,1.76l24.18-12.3L105.25,400.17z"/>
	<path class="Colour3 fill" d="M104.74,443.74c-0.01,0.6-0.03,1.21-0.04,1.81l24.72-12.58L104.74,443.74z"/>
	<path class="Colour3 fill" d="M105,429.18c-0.01,0.6-0.02,1.19-0.03,1.79l24.45-12.44L105,429.18z"/>
	<path class="Colour3 fill" d="M392.8,502.5c0.04,0.67,0.07,1.34,0.11,2.01l-26.99-13.73L392.8,502.5z"/>
	<path class="Colour3 fill" d="M392.07,487.73c0.03,0.65,0.06,1.3,0.09,1.94l-26.23-13.35L392.07,487.73z"/>
	<path class="Colour3 fill" d="M393.69,517.34c0.05,0.7,0.09,1.39,0.14,2.09l-27.9-14.2L393.69,517.34z"/>
	<path class="Colour3 fill" d="M394.74,532.24c0.06,0.73,0.11,1.45,0.17,2.18l-28.98-14.75L394.74,532.24z"/>
	<path class="Colour3 fill" d="M391.46,473.01c0.02,0.63,0.05,1.26,0.07,1.89l-25.61-13.03L391.46,473.01z"/>
	<path class="Colour3 fill" d="M390.98,458.35c0.02,0.62,0.04,1.23,0.05,1.85l-25.11-12.77L390.98,458.35z"/>
	<path class="Colour3 fill" d="M390.17,414.65c0,0.59,0.01,1.18,0.02,1.77l-24.26-12.35L390.17,414.65z"/>
	<path class="Colour3 fill" d="M390.09,400.17c0,0.59,0,1.17,0.01,1.76l-24.18-12.3L390.09,400.17z"/>
	<path class="Colour3 fill" d="M390.61,443.74c0.01,0.6,0.03,1.21,0.04,1.81l-24.72-12.58L390.61,443.74z"/>
	<path class="Colour3 fill" d="M390.34,429.18c0.01,0.6,0.02,1.19,0.03,1.79l-24.45-12.44L390.34,429.18z"/>
</g>
<path class="Colour3 fill" d="M436.29,189.28l-32.74,30.48c-0.31-0.86-0.64-1.73-1-2.64L436.29,189.28z"/>
<g>
	<path class="Colour3 fill" d="M174.2,458.91c-0.23,2.46-0.45,4.92-0.68,7.36c-0.11,1.22-0.22,2.44-0.34,3.65
		c-0.15,1.21-0.29,2.42-0.44,3.62c-0.29,2.4-0.58,4.79-0.87,7.16c-0.32,2.36-0.71,4.7-1.05,7.02c-0.64,4.65-1.55,9.17-2.34,13.6
		c-0.19,1.03-0.4,2.04-0.61,3.05l22.1-7.26c0.21-2.38,0.4-4.78,0.53-7.21c0.15-2.47,0.33-4.95,0.45-7.46
		c0.08-2.51,0.17-5.03,0.26-7.57c0.04-1.27,0.08-2.54,0.13-3.81c0.01-1.28,0.01-2.55,0.02-3.84c0.01-2.56,0.02-5.14,0.03-7.72
		c-0.01-2.58-0.12-5.17-0.17-7.77c-0.05-1.5-0.08-3.01-0.12-4.51l-16.45,5.4C174.49,454.72,174.38,456.82,174.2,458.91z"/>
	<path class="Colour3 fill" d="M164.93,517.51c-1.71,7.06-3.62,13.7-5.48,19.82c-2.25,7.04-4.51,13.4-6.69,18.92
		c-1.36,3.39-2.67,6.48-3.89,9.23c7.93,1.18,17.04,2.34,27.5,3.42c0.4-1.27,0.8-2.56,1.21-3.91c1.87-6.31,3.71-13.45,5.47-21.28
		c1.65-7.84,3.3-16.34,4.54-25.38c0.36-2.25,0.61-4.55,0.9-6.87c0.07-0.59,0.14-1.18,0.21-1.77L164.93,517.51z"/>
	<path class="Colour3 fill" d="M174.72,398.62c0.38,4.98,0.47,10.02,0.63,15.06c0.23,5.04,0.11,10.11,0.14,15.16
		c-0.01,1.26,0.01,2.53-0.02,3.79l-0.12,3.79c-0.04,1.28-0.08,2.55-0.12,3.82l15.22-5l-0.17-3.05c-0.08-1.3-0.22-2.6-0.33-3.91
		c-0.49-5.2-0.83-10.41-1.52-15.56c-0.62-5.16-1.17-10.29-2-15.35c-0.51-3.31-0.98-6.6-1.52-9.85l-10.67,3.5
		C174.41,393.54,174.55,396.08,174.72,398.62z"/>
	<path class="Colour3 fill" d="M156.56,288.88c0.67,2.62,1.39,5.45,2.16,8.48c0.75,3.03,1.63,6.23,2.41,9.64
		c0.76,3.42,1.55,7.01,2.39,10.76c0.19,0.88,0.4,1.8,0.6,2.7l4.53-1.49c-0.25-0.8-0.51-1.61-0.75-2.39
		c-1.17-3.68-2.28-7.21-3.35-10.57c-1.07-3.35-2.25-6.48-3.26-9.44c-1.04-2.95-2.01-5.72-2.91-8.28c-0.87-2.56-1.84-4.86-2.63-6.97
		c-3.23-8.38-5.08-13.16-5.08-13.16s1.42,4.93,3.9,13.56C155.16,283.89,155.92,286.25,156.56,288.88z"/>
	<path class="Colour3 fill" d="M168.25,342.06c0.68,4.33,1.38,8.78,2.1,13.33c0.69,4.55,1.19,9.23,1.81,13.96
		c0.45,3.23,0.75,6.53,1.05,9.85l9.63-3.16c-0.5-2.77-1.02-5.51-1.64-8.2c-1.05-4.75-1.97-9.43-3.08-13.96
		c-1.13-4.53-2.23-8.96-3.3-13.27c-0.94-3.61-1.95-7.09-2.92-10.51l-5.52,1.81C167,335.21,167.67,338.57,168.25,342.06z"/>
	<path class="Colour3 fill" d="M321.14,458.91c0.23,2.46,0.45,4.92,0.68,7.36c0.11,1.22,0.22,2.44,0.34,3.65
		c0.15,1.21,0.29,2.42,0.44,3.62c0.29,2.4,0.58,4.79,0.87,7.16c0.32,2.36,0.71,4.7,1.05,7.02c0.64,4.65,1.55,9.17,2.34,13.6
		c0.19,1.03,0.4,2.04,0.61,3.05l-22.1-7.26c-0.21-2.38-0.4-4.78-0.53-7.21c-0.15-2.47-0.33-4.95-0.45-7.46
		c-0.08-2.51-0.17-5.03-0.26-7.57c-0.04-1.27-0.08-2.54-0.13-3.81c-0.01-1.28-0.01-2.55-0.02-3.84c-0.01-2.56-0.02-5.14-0.03-7.72
		c0.01-2.58,0.12-5.17,0.17-7.77c0.05-1.5,0.08-3.01,0.12-4.51l16.45,5.4C320.85,454.72,320.96,456.82,321.14,458.91z"/>
	<path class="Colour3 fill" d="M330.41,517.51c1.71,7.06,3.62,13.7,5.48,19.82c2.25,7.04,4.51,13.4,6.69,18.92
		c1.36,3.39,2.67,6.48,3.89,9.23c-7.93,1.18-17.04,2.34-27.5,3.42c-0.4-1.27-0.8-2.56-1.21-3.91c-1.87-6.31-3.71-13.45-5.47-21.28
		c-1.65-7.84-3.3-16.34-4.54-25.38c-0.36-2.25-0.61-4.55-0.9-6.87c-0.07-0.59-0.14-1.18-0.21-1.77L330.41,517.51z"/>
	<path class="Colour3 fill" d="M320.63,398.62c-0.38,4.98-0.47,10.02-0.63,15.06c-0.23,5.04-0.11,10.11-0.14,15.16
		c0.01,1.26-0.01,2.53,0.02,3.79l0.12,3.79c0.04,1.28,0.08,2.55,0.12,3.82l-15.22-5l0.17-3.05c0.08-1.3,0.22-2.6,0.33-3.91
		c0.49-5.2,0.83-10.41,1.52-15.56c0.62-5.16,1.17-10.29,2-15.35c0.51-3.31,0.98-6.6,1.52-9.85l10.67,3.5
		C320.93,393.54,320.79,396.08,320.63,398.62z"/>
	<path class="Colour3 fill" d="M338.78,288.88c-0.67,2.62-1.39,5.45-2.16,8.48c-0.75,3.03-1.63,6.23-2.41,9.64
		c-0.76,3.42-1.55,7.01-2.39,10.76c-0.19,0.88-0.4,1.8-0.6,2.7l-4.53-1.49c0.25-0.8,0.51-1.61,0.75-2.39
		c1.17-3.68,2.28-7.21,3.35-10.57c1.07-3.35,2.25-6.48,3.26-9.44c1.04-2.95,2.01-5.72,2.91-8.28c0.87-2.56,1.84-4.86,2.63-6.97
		c3.23-8.38,5.08-13.16,5.08-13.16s-1.42,4.93-3.9,13.56C340.19,283.89,339.42,286.25,338.78,288.88z"/>
	<path class="Colour3 fill" d="M327.09,342.06c-0.68,4.33-1.38,8.78-2.1,13.33c-0.69,4.55-1.19,9.23-1.81,13.96
		c-0.45,3.23-0.75,6.53-1.05,9.85l-9.63-3.16c0.5-2.77,1.02-5.51,1.64-8.2c1.05-4.75,1.97-9.43,3.08-13.96
		c1.13-4.53,2.23-8.96,3.3-13.27c0.94-3.61,1.95-7.09,2.92-10.51l5.52,1.81C328.34,335.21,327.68,338.57,327.09,342.06z"/>
</g>
<g>
	<g>
		<path class="Colour3 fill" d="M68.45,85.97c0,0-40.25,30.39-55.26,133.31l7.93,4.14c0,0,9.38-77.83,55.75-119.11L68.45,85.97z"/>
		<path class="Colour3 fill" d="M82.78,241.26c1.06-0.24,2.08-0.55,3.03-0.93l-35.48-29.27L82.78,241.26z"/>
		<path class="Colour3 fill" d="M53.37,197.79l35.43,32.99c0.17-0.99,0.39-2.06,0.66-3.21L53.37,197.79z"/>
		<path class="Colour3 fill" d="M95.06,167.64c-0.09-0.54-0.19-1.09-0.28-1.64l-13.01-10.74L95.06,167.64z"/>
		<path class="Colour3 fill" d="M76.08,163.76l21.25,19.79c-0.09-0.81-0.19-1.65-0.3-2.5L76.08,163.76z"/>
		<path class="Colour3 fill" d="M64.73,180.78l31.33,29.17c0.39-0.76,0.79-1.53,1.21-2.32L64.73,180.78z"/>
		<path class="Colour3 fill" d="M70.4,172.27l28.22,26.27c-0.05-0.95-0.12-2-0.19-3.15L70.4,172.27z"/>
		<path class="Colour3 fill" d="M61.45,151.29c-1.14,1.57-2.28,3.2-3.41,4.88c-1.03,1.56-2.1,3.14-3.09,4.8
			c-0.35,0.57-0.7,1.14-1.05,1.71l2.69,4.5c0.65-1.41,1.32-2.81,2.01-4.18c0.81-1.7,1.71-3.32,2.57-4.93
			c0.69-1.27,1.39-2.51,2.1-3.73L61.45,151.29z"/>
		<path class="Colour3 fill" d="M42.3,185.34c-0.3,0.7-0.61,1.39-0.9,2.09c-1.52,3.64-2.96,7.25-4.22,10.8c-0.2,0.55-0.37,1.08-0.57,1.62
			l5.92,9.9c0.65-2.95,1.36-6.01,2.2-9.16c0.64-2.49,1.37-5.03,2.14-7.58L42.3,185.34z"/>
		<path class="Colour3 fill" d="M51.24,167.26c-0.74,1.3-1.45,2.61-2.16,3.94c-0.96,1.75-1.83,3.55-2.73,5.34
			c-0.61,1.2-1.17,2.43-1.74,3.65l4.12,6.89c0.31-0.92,0.62-1.83,0.93-2.76c0.67-1.81,1.29-3.66,2-5.47
			c0.71-1.81,1.39-3.63,2.17-5.41c0.15-0.37,0.31-0.73,0.46-1.09L51.24,167.26z"/>
		<path class="Colour3 fill" d="M80.86,130.03c-1.28,1.16-2.87,2.54-4.62,4.21c-1.71,1.7-3.68,3.6-5.66,5.84
			c-0.5,0.55-1.02,1.11-1.54,1.69c-0.5,0.59-1.01,1.2-1.53,1.81c-1,1.19-2.05,2.42-3.05,3.74l1.53,2.56
			c0.19-0.29,0.37-0.59,0.56-0.88c0.88-1.43,1.83-2.76,2.73-4.06c0.45-0.65,0.9-1.29,1.33-1.92c0.46-0.61,0.91-1.2,1.36-1.79
			c1.74-2.37,3.5-4.42,5.04-6.25c1.58-1.8,3.02-3.31,4.19-4.58c2.47-2.41,3.88-3.79,3.88-3.79S83.54,127.85,80.86,130.03z"/>
		<path class="Colour3 fill" d="M34.65,205.59c-0.32,0.98-0.65,1.97-0.95,2.92c-1.02,3.3-1.95,6.43-2.72,9.35c-1,3.69-1.8,7.01-2.44,9.84
			c3.26,1.54,6.69,3.07,10.19,4.54c0.37-3.2,0.93-7.39,1.79-12.26c0.19-1.13,0.41-2.31,0.64-3.51L34.65,205.59z"/>
	</g>
	<g>
		<path class="Colour3 fill" d="M426.89,85.97c0,0,40.25,30.39,55.26,133.31l-7.93,4.14c0,0-9.38-77.83-55.75-119.11L426.89,85.97z"/>
		<path class="Colour3 fill" d="M412.57,241.26c-1.06-0.24-2.08-0.55-3.03-0.93l35.48-29.27L412.57,241.26z"/>
		<path class="Colour3 fill" d="M441.97,197.79l-35.43,32.99c-0.17-0.99-0.39-2.06-0.66-3.21L441.97,197.79z"/>
		<path class="Colour3 fill" d="M400.29,167.64c0.09-0.54,0.19-1.09,0.28-1.64l13.01-10.74L400.29,167.64z"/>
		<path class="Colour3 fill" d="M419.26,163.76l-21.25,19.79c0.09-0.81,0.19-1.65,0.3-2.5L419.26,163.76z"/>
		<path class="Colour3 fill" d="M430.62,180.78l-31.33,29.17c-0.39-0.76-0.79-1.53-1.21-2.32L430.62,180.78z"/>
		<path class="Colour3 fill" d="M424.94,172.27l-28.22,26.27c0.05-0.95,0.12-2,0.19-3.15L424.94,172.27z"/>
		<path class="Colour3 fill" d="M433.9,151.29c1.14,1.57,2.28,3.2,3.41,4.88c1.03,1.56,2.1,3.14,3.09,4.8c0.35,0.57,0.7,1.14,1.05,1.71
			l-2.69,4.5c-0.65-1.41-1.32-2.81-2.01-4.18c-0.81-1.7-1.71-3.32-2.57-4.93c-0.69-1.27-1.39-2.51-2.1-3.73L433.9,151.29z"/>
		<path class="Colour3 fill" d="M453.05,185.34c0.3,0.7,0.61,1.39,0.9,2.09c1.52,3.64,2.96,7.25,4.22,10.8c0.2,0.55,0.37,1.08,0.57,1.62
			l-5.92,9.9c-0.65-2.95-1.36-6.01-2.2-9.16c-0.64-2.49-1.37-5.03-2.14-7.58L453.05,185.34z"/>
		<path class="Colour3 fill" d="M444.11,167.26c0.74,1.3,1.45,2.61,2.16,3.94c0.96,1.75,1.83,3.55,2.73,5.34
			c0.61,1.2,1.17,2.43,1.74,3.65l-4.12,6.89c-0.31-0.92-0.62-1.83-0.93-2.76c-0.67-1.81-1.29-3.66-2-5.47
			c-0.71-1.81-1.39-3.63-2.17-5.41c-0.15-0.37-0.31-0.73-0.46-1.09L444.11,167.26z"/>
		<path class="Colour3 fill" d="M414.49,130.03c1.28,1.16,2.87,2.54,4.62,4.21c1.71,1.7,3.68,3.6,5.66,5.84c0.5,0.55,1.02,1.11,1.54,1.69
			c0.5,0.59,1.01,1.2,1.53,1.81c1,1.19,2.05,2.42,3.05,3.74l-1.53,2.56c-0.19-0.29-0.37-0.59-0.56-0.88
			c-0.88-1.43-1.83-2.76-2.73-4.06c-0.45-0.65-0.9-1.29-1.33-1.92c-0.46-0.61-0.91-1.2-1.36-1.79c-1.74-2.37-3.5-4.42-5.04-6.25
			c-1.58-1.8-3.02-3.31-4.19-4.58c-2.47-2.41-3.88-3.79-3.88-3.79S411.8,127.85,414.49,130.03z"/>
		<path class="Colour3 fill" d="M460.7,205.59c0.32,0.98,0.65,1.97,0.95,2.92c1.02,3.3,1.95,6.43,2.72,9.35c1,3.69,1.8,7.01,2.44,9.84
			c-3.26,1.54-6.69,3.07-10.19,4.54c-0.37-3.2-0.93-7.39-1.79-12.26c-0.19-1.13-0.41-2.31-0.64-3.51L460.7,205.59z"/>
	</g>
</g>
<path class="Colour3 fill" d="M197.25,548.93c4.07-2.64,8.22-5.16,12.32-7.74c4.13-2.53,8.27-5.06,12.44-7.54
	c4.15-2.51,8.34-4.95,12.51-7.42l12.57-7.31l0.58-0.34l0.58,0.34l12.58,7.31c4.17,2.47,8.36,4.91,12.51,7.42
	c4.16,2.49,8.3,5.01,12.44,7.54c4.11,2.58,8.25,5.1,12.32,7.74c-4.33-2.19-8.59-4.51-12.89-6.76c-4.27-2.3-8.53-4.61-12.77-6.96
	c-4.26-2.32-8.47-4.72-12.7-7.09l-12.64-7.2h1.15l-12.64,7.2c-4.23,2.36-8.45,4.76-12.7,7.09c-4.24,2.35-8.5,4.66-12.77,6.96
	C205.84,544.42,201.59,546.74,197.25,548.93z M203.79,502.07l6.49-3.31l6.44-3.38l6.41-3.44c4.28-2.28,8.5-4.67,12.75-7l6.33-3.58
	l6.32-3.59h-1.73l12.65,7.17c4.25,2.33,8.47,4.72,12.75,7l6.41,3.44l6.45,3.38c4.32,2.21,8.64,4.43,13.03,6.51
	c-4.01-2.75-8.1-5.37-12.18-7.99l-6.16-3.87l-6.19-3.81c-4.12-2.56-8.31-5-12.46-7.5l-12.56-7.33l-0.87-0.51l-0.87,0.51l-6.28,3.66
	l-6.28,3.67c-4.15,2.5-8.34,4.95-12.46,7.5l-6.19,3.81l-6.16,3.87l-6.12,3.95c-2.03,1.32-4.05,2.67-6.06,4.04
	C199.44,504.23,201.63,503.16,203.79,502.07z M203.87,458.56c2.2-1.04,4.36-2.13,6.55-3.2l6.49-3.3c2.17-1.1,4.3-2.25,6.45-3.38
	c4.31-2.23,8.53-4.61,12.8-6.92c2.13-1.16,4.23-2.38,6.34-3.56l6.33-3.58h-2.31l6.33,3.58c2.11,1.19,4.21,2.4,6.34,3.57
	c4.27,2.31,8.49,4.69,12.8,6.92c2.15,1.12,4.28,2.28,6.45,3.38l6.49,3.3c2.18,1.06,4.35,2.15,6.55,3.2
	c2.19,1.05,4.39,2.08,6.62,3.07c-1.97-1.43-3.97-2.81-5.98-4.18c-2.01-1.37-4.04-2.7-6.06-4.05l-6.11-3.96
	c-2.04-1.32-4.11-2.58-6.16-3.88c-4.09-2.6-8.28-5.06-12.41-7.59c-2.08-1.25-4.18-2.46-6.27-3.69l-6.28-3.67l-1.16-0.68l-1.15,0.68
	l-6.28,3.67c-2.09,1.23-4.19,2.43-6.27,3.69c-4.14,2.53-8.32,4.98-12.41,7.59c-2.05,1.29-4.12,2.56-6.16,3.88l-6.11,3.95
	c-2.02,1.35-4.05,2.68-6.06,4.05c-2.01,1.36-4,2.76-5.98,4.18C199.48,460.64,201.68,459.62,203.87,458.56z M203.95,415.06
	c2.22-1,4.41-2.06,6.61-3.09l6.54-3.22c2.18-1.07,4.32-2.21,6.48-3.31c4.33-2.2,8.59-4.51,12.85-6.83
	c4.25-2.33,8.47-4.71,12.68-7.12h-2.89c4.21,2.41,8.43,4.79,12.68,7.12c4.26,2.32,8.52,4.63,12.85,6.83c2.16,1.1,4.3,2.24,6.48,3.31
	l6.54,3.21c2.2,1.03,4.39,2.09,6.61,3.09c2.22,1.01,4.44,2,6.7,2.93c-1.94-1.49-3.92-2.91-5.9-4.32c-1.98-1.42-4-2.77-5.99-4.16
	l-6.07-4.04c-2.02-1.35-4.08-2.62-6.12-3.94c-4.08-2.64-8.22-5.16-12.36-7.67c-4.15-2.51-8.33-4.96-12.53-7.38l-1.45-0.83
	l-1.44,0.83c-4.2,2.43-8.38,4.88-12.53,7.39c-4.15,2.51-8.28,5.04-12.36,7.68c-2.04,1.32-4.1,2.59-6.12,3.94l-6.07,4.04
	c-2,1.39-4.01,2.74-6,4.16c-1.98,1.41-3.96,2.83-5.9,4.32C199.51,417.06,201.74,416.06,203.95,415.06z M198.1,373.01
	c2.53-1.12,5.01-2.32,7.52-3.47c4.99-2.36,9.91-4.83,14.81-7.34c2.45-1.26,4.89-2.53,7.32-3.83c2.44-1.28,4.85-2.6,7.27-3.91
	c4.83-2.63,9.62-5.34,14.39-8.07h-3.47c4.77,2.73,9.56,5.44,14.39,8.07c2.42,1.31,4.83,2.64,7.27,3.91c2.43,1.3,4.87,2.57,7.32,3.83
	c2.45,1.26,4.91,2.5,7.37,3.73c2.47,1.23,4.95,2.43,7.44,3.61c2.51,1.15,4.99,2.35,7.52,3.47c2.52,1.13,5.05,2.24,7.63,3.28
	c-2.19-1.71-4.43-3.33-6.67-4.95c-2.24-1.62-4.52-3.17-6.78-4.76c-2.28-1.56-4.56-3.1-6.86-4.61c-2.3-1.52-4.61-3.02-6.93-4.5
	c-2.32-1.48-4.64-2.96-6.99-4.4c-2.33-1.47-4.69-2.88-7.03-4.31c-4.71-2.85-9.45-5.63-14.21-8.38l-1.73-1l-1.73,1
	c-4.76,2.75-9.5,5.54-14.21,8.39c-2.35,1.43-4.7,2.85-7.03,4.32c-2.34,1.45-4.66,2.92-6.99,4.4c-4.63,2.97-9.24,6-13.79,9.12
	c-2.26,1.59-4.54,3.13-6.78,4.75c-2.24,1.61-4.48,3.24-6.67,4.94C193.05,375.26,195.58,374.14,198.1,373.01z M190.5,331.4
	c2.92-1.29,5.8-2.64,8.68-4c2.87-1.37,5.74-2.75,8.58-4.16c2.85-1.41,5.68-2.84,8.51-4.29c2.82-1.45,5.64-2.91,8.44-4.41
	c2.81-1.47,5.59-3,8.38-4.51c5.57-3.04,11.1-6.15,16.6-9.3h-4.04l8.27,4.7l8.33,4.61c2.79,1.51,5.57,3.04,8.38,4.51
	c2.8,1.49,5.62,2.96,8.44,4.41c2.82,1.45,5.66,2.88,8.51,4.29c2.85,1.41,5.71,2.8,8.58,4.16c2.88,1.35,5.76,2.71,8.68,3.99
	c2.91,1.3,5.83,2.58,8.81,3.77c-2.52-1.97-5.1-3.85-7.69-5.72c-2.58-1.88-5.2-3.69-7.81-5.5c-2.63-1.8-5.26-3.58-7.91-5.33
	c-2.65-1.75-5.31-3.49-7.99-5.2c-2.67-1.71-5.36-3.41-8.05-5.08c-2.69-1.69-5.41-3.32-8.11-4.98l-8.17-4.88l-8.22-4.79l-2.02-1.17
	l-2.03,1.17c-5.49,3.18-10.96,6.39-16.39,9.68c-2.71,1.65-5.42,3.29-8.11,4.98c-2.7,1.67-5.38,3.37-8.05,5.08
	c-2.67,1.72-5.34,3.44-7.99,5.2c-2.65,1.75-5.29,3.53-7.91,5.33c-2.62,1.81-5.24,3.62-7.82,5.49c-2.59,1.86-5.16,3.74-7.69,5.71
	C184.67,333.98,187.59,332.7,190.5,331.4z M179.3,290.67c3.48-1.56,6.9-3.22,10.35-4.82l10.24-5.01c1.71-0.83,3.4-1.69,5.09-2.55
	l5.07-2.59c3.37-1.75,6.74-3.5,10.08-5.29c3.36-1.77,6.68-3.59,10.01-5.4l9.95-5.51l9.89-5.62h-4.62l9.89,5.62l9.95,5.52
	c3.34,1.81,6.66,3.64,10.01,5.4c3.34,1.79,6.71,3.55,10.08,5.29c3.37,1.74,6.75,3.47,10.16,5.15l10.24,5.01l5.17,2.42
	c1.73,0.8,3.44,1.63,5.18,2.39c3.47,1.57,6.96,3.12,10.5,4.56c-3.03-2.34-6.12-4.57-9.22-6.78c-1.54-1.13-3.11-2.19-4.67-3.28
	l-4.69-3.25l-9.48-6.33c-3.16-2.1-6.36-4.16-9.56-6.2c-3.2-2.04-6.41-4.06-9.64-6.06c-3.21-2.02-6.47-3.96-9.7-5.94l-9.77-5.83
	l-9.83-5.72l-2.31-1.35l-2.31,1.35l-9.83,5.73l-9.77,5.83c-3.24,1.97-6.49,3.93-9.7,5.94c-3.23,1.99-6.44,4.02-9.64,6.06l-4.79,3.08
	c-1.59,1.03-3.19,2.06-4.77,3.12l-9.48,6.33c-3.12,2.18-6.27,4.3-9.37,6.53c-3.1,2.21-6.19,4.44-9.22,6.78
	C172.34,293.79,175.83,292.24,179.3,290.67z M165.77,250.52c2.08-0.93,4.13-1.93,6.19-2.9l6.17-2.93c4.1-1.98,8.18-4,12.24-6.04
	l6.08-3.09l6.06-3.12c4.03-2.1,8.05-4.21,12.05-6.36c4.01-2.12,7.99-4.32,11.98-6.49l11.91-6.61l11.84-6.73h-5.2l11.83,6.74
	c3.97,2.2,7.92,4.43,11.91,6.61c3.99,2.17,7.96,4.37,11.98,6.49c4,2.15,8.02,4.26,12.05,6.36c4.03,2.1,8.08,4.17,12.14,6.21
	c4.06,2.05,8.14,4.06,12.24,6.04l6.17,2.93c2.06,0.97,4.1,1.97,6.19,2.9l6.23,2.83c2.1,0.9,4.18,1.84,6.3,2.71
	c-1.82-1.39-3.67-2.72-5.51-4.08l-5.57-3.96c-1.85-1.34-3.74-2.6-5.61-3.89l-5.63-3.86c-3.77-2.54-7.56-5.06-11.37-7.54
	c-3.81-2.49-7.63-4.94-11.47-7.37c-3.84-2.43-7.69-4.85-11.56-7.22c-3.85-2.4-7.75-4.73-11.63-7.09c-3.89-2.35-7.8-4.64-11.7-6.97
	l-11.77-6.85l-2.6-1.51l-2.6,1.51l-11.77,6.85l-11.7,6.97c-3.88,2.35-7.77,4.69-11.63,7.09c-3.87,2.37-7.71,4.79-11.56,7.22
	l-5.74,3.67l-5.72,3.7c-3.81,2.48-7.6,5-11.37,7.54l-5.63,3.86c-1.88,1.29-3.76,2.56-5.62,3.89c-3.73,2.63-7.44,5.27-11.09,8.03
	C157.47,254.3,161.62,252.42,165.77,250.52z M158.01,208.47c4.46-2.18,8.88-4.45,13.32-6.67l13.22-6.84
	c4.41-2.27,8.76-4.65,13.14-6.98c4.38-2.33,8.75-4.67,13.09-7.06c4.36-2.36,8.69-4.78,13.02-7.18c8.67-4.82,17.29-9.71,25.89-14.64
	h-4.04l12.91,7.37l12.97,7.28l13.02,7.18c4.34,2.39,8.71,4.73,13.09,7.06c4.38,2.32,8.73,4.7,13.14,6.98l13.22,6.84
	c4.44,2.22,8.86,4.48,13.32,6.67c4.46,2.19,8.93,4.36,13.45,6.44c-4.07-2.86-8.2-5.63-12.33-8.39c-4.13-2.76-8.31-5.44-12.46-8.17
	l-12.56-7.99c-4.19-2.66-8.43-5.23-12.64-7.85c-4.21-2.62-8.44-5.22-12.68-7.77l-12.75-7.65l-12.81-7.55l-12.86-7.46l-2.02-1.17
	l-2.03,1.17c-8.58,4.96-17.15,9.95-25.67,15.02c-4.26,2.54-8.52,5.07-12.75,7.65c-4.25,2.55-8.47,5.16-12.68,7.77
	c-4.21,2.62-8.45,5.19-12.64,7.85l-12.56,7.99c-4.15,2.72-8.33,5.4-12.46,8.16c-4.13,2.75-8.26,5.52-12.33,8.38
	C149.08,212.84,153.55,210.66,158.01,208.47z M147.8,167.19c4.92-2.5,9.8-5.07,14.71-7.61l14.62-7.76c4.88-2.58,9.7-5.25,14.55-7.87
	c4.85-2.63,9.69-5.26,14.5-7.96l14.46-8.04c4.82-2.67,9.59-5.44,14.39-8.15l14.38-8.18h-3.47l14.36,8.21l14.41,8.13l14.46,8.04
	c4.81,2.7,9.65,5.34,14.5,7.96c4.85,2.62,9.68,5.29,14.55,7.87l14.62,7.75c4.9,2.53,9.79,5.1,14.71,7.61
	c4.92,2.51,9.85,5,14.82,7.41c-4.59-3.08-9.22-6.09-13.86-9.08c-4.64-3-9.31-5.93-13.97-8.89l-14.05-8.74
	c-4.68-2.91-9.41-5.75-14.12-8.62c-4.71-2.88-9.42-5.73-14.17-8.54l-14.21-8.46l-14.27-8.37l-14.32-8.28l-1.74-1.01l-1.73,1.01
	l-14.3,8.32c-4.76,2.78-9.55,5.52-14.28,8.34l-14.21,8.46c-4.75,2.8-9.46,5.67-14.17,8.54c-4.7,2.88-9.44,5.71-14.12,8.62
	l-14.05,8.74c-4.65,2.97-9.33,5.89-13.97,8.89c-4.64,2.99-9.27,6-13.86,9.08C137.95,172.19,142.88,169.69,147.8,167.19z
	 M140.53,125.02l15.6-8.41l15.54-8.5l15.5-8.58c10.34-5.7,20.6-11.55,30.9-17.33l30.77-17.55h-2.31l30.76,17.56
	c10.3,5.78,20.55,11.63,30.9,17.33l15.5,8.58l15.54,8.5l15.6,8.4c5.21,2.79,10.43,5.54,15.67,8.28c-4.99-3.16-10-6.29-15.03-9.39
	l-15.1-9.26l-15.16-9.16l-15.21-9.08c-10.13-6.07-20.34-12-30.51-18l-30.64-17.77l-1.16-0.67l-1.15,0.67l-30.64,17.78
	c-10.17,6-20.38,11.93-30.51,18l-15.21,9.08L155,114.65l-15.11,9.26c-5.03,3.1-10.04,6.23-15.03,9.39
	C130.1,130.56,135.33,127.81,140.53,125.02z"/>
<path class="NeckAndArmTrim fill" d="M247.67,11.49C287.59,11.67,314.36,2,314.36,2v9.59c0,0-37.38,8.24-66.68,8.24l-0.29,0
	c-29.26-0.05-66.39-8.24-66.39-8.24V2c0,0,26.6,9.61,66.31,9.49L247.67,11.49z"/>
<path class="NeckAndArmTrim fill" d="M247.67,64.42c-71.33,0-75.19-57.8-75.19-57.8l8.5-4.63c0,0,9.25,48.8,66.68,48.8l0.32,0
	C305.14,50.61,314.36,2,314.36,2l8.5,4.63c0,0-3.86,57.68-74.97,57.8L247.67,64.42z"/>
<path class="Colour2 fill" d="M138.54,563.82c-2.26-0.39-4.4-0.78-6.43-1.17c10.73-52.75,17.54-155.49-30.61-313.16h0
	c-1.4-27.76-2.65-44.66-2.65-44.66C95.88,120.54,56.18,64.76,56.18,64.76C67.35,46.17,172.43,6.38,172.43,6.38l0.1,0.04l-0.05,0.21
	l0,0v0l0,0L89.93,77.57C89.93,77.57,188.18,252.9,138.54,563.82z M64.16,79.36c0,0-41.45,31.82-47.06,141.97
	c0,0,15.06-87.26,57.13-122.77L64.16,79.36z M22,126.84c-0.78,2-1.56,4.05-2.33,6.14c5.47,5.89,12.57,12.83,21.18,19.74
	c13.63,10.94,32.9,23.14,56.3,29.24c-0.24-1.98-0.51-4.06-0.82-6.24C61.69,165.92,35.62,141.9,22,126.84z M92.59,217.64
	c1.52-3.87,3.54-8.16,6.25-12.82c0,0,0.01-3.52-0.43-9.7c-39.36-6.66-68.95-34.56-82.83-50.24c-2.62,8.18-5.05,16.94-7.15,26.24
	C26.38,188.8,55.32,210.86,92.59,217.64z M356.81,563.82c2.26-0.39,4.4-0.78,6.43-1.17c-10.73-52.75-17.54-155.49,30.61-313.16h0
	c1.4-27.76,2.65-44.66,2.65-44.66c2.98-84.29,42.68-140.07,42.68-140.07C428,46.17,322.91,6.38,322.91,6.38l-0.1,0.04l0.05,0.21l0,0
	v0l0,0l82.55,70.94C405.41,77.57,307.16,252.9,356.81,563.82z M421.12,98.55c42.07,35.51,57.13,122.77,57.13,122.77
	c-5.61-110.14-47.06-141.97-47.06-141.97L421.12,98.55z M399.02,175.73c-0.31,2.18-0.58,4.26-0.82,6.24
	c23.4-6.11,42.67-18.3,56.3-29.24c8.61-6.91,15.71-13.85,21.18-19.74c-0.77-2.09-1.54-4.14-2.33-6.14
	C459.72,141.9,433.65,165.92,399.02,175.73z M486.92,171.12c-2.1-9.3-4.53-18.06-7.15-26.24c-13.89,15.68-43.47,43.59-82.83,50.24
	c-0.43,6.18-0.43,9.7-0.43,9.7c2.71,4.66,4.73,8.95,6.25,12.82C440.03,210.86,468.96,188.8,486.92,171.12z"/>
<path class="BottomHem fill" d="M247.44,559.16c-124.46-4.96-147.45-20.82-147.45-20.82l-1.36,14.84C141.33,572.8,247.01,574,247.01,574
	c114.67-2.94,149.24-20.82,149.24-20.82l-1.36-14.84C394.89,538.33,371.9,554.2,247.44,559.16"/>
<g>
	<g>
		<path class="st0" d="M247.66,558.87c-124.46-4.96-147.45-20.82-147.45-20.82"/>
		<path class="st0" d="M395.11,538.05c0,0-22.99,15.87-147.45,20.82"/>
	</g>
	<path class="st3" d="M395.11,542.51c0,0-22.99,15.87-147.45,20.82"/>
	<path class="st3" d="M247.66,563.34c-124.46-4.96-147.45-20.82-147.45-20.82"/>
</g>
<path class="Colour3 fill" d="M68.45,85.97c11.93,23.59,28.52,65.51,30.41,118.86c0,0,0,0.02,0,0.06
	c70.82,181.69,41.72,348.01,39.69,358.94c0.03,0,0.05,0.01,0.08,0.01C207.81,356.19,80.31,108.3,68.45,85.97z"/>
<path class="Colour3 fill" d="M426.89,85.97c-11.93,23.59-28.52,65.51-30.41,118.86c0,0,0,0.02,0,0.06
	c-70.82,181.69-41.72,348.01-39.69,358.94c-0.03,0-0.05,0.01-0.08,0.01C287.53,356.19,415.04,108.3,426.89,85.97z"/>
<path class="NeckAndArmTrim fill" d="M418.63,242.01c-3.45,0.17-6.53-0.66-6.53-0.66c-2.29-0.62-4.02-1.52-5.07-2.14
	c-0.04-1.34-0.13-2.73-0.26-4.18c-0.32-3.4-0.86-6.51-1.5-9.29c2.95,0.15,7.02,0.17,11.81-0.37c4.12-0.46,7.39-1.19,10.39-1.94
	c12.04-3,22.32-7.06,23.02-7.34c17.75-7.07,34.63-16.69,40.96-20.39c0.39,2.74,0.75,5.56,1.07,8.46c0.35,3.22,0.64,6.35,0.86,9.38
	c-10.6,6.16-19.78,10.85-26.68,14.2C466.7,227.76,439.35,241,418.63,242.01z"/>
<g id="FBodyLogos"></g>
<path class="NeckAndArmTrim fill" d="M76.26,242.11c3.45,0.17,6.53-0.66,6.53-0.66c2.29-0.62,4.02-1.52,5.07-2.14
	c0.04-1.34,0.13-2.73,0.26-4.18c0.32-3.4,0.86-6.51,1.5-9.29c-2.95,0.15-7.02,0.17-11.81-0.37c-4.12-0.46-7.39-1.19-10.39-1.94
	c-12.04-3-22.32-7.06-23.02-7.34c-17.75-7.07-34.63-16.69-40.96-20.39c-0.39,2.74-0.75,5.56-1.07,8.46
	c-0.35,3.22-0.64,6.35-0.86,9.38c10.6,6.16,19.78,10.85,26.68,14.2C28.18,227.86,55.53,241.1,76.26,242.11z"/>
<path class="st0" d="M3.89,195.66c0,0,48.9,31.08,86.04,30.04"/>
<path class="st3" d="M3.35,200.12c0,0,48.9,31.08,86.04,30.04"/>
<path class="st0" d="M405.38,225.7c37.14,1.04,86.04-30.04,86.04-30.04"/>
<path class="st3" d="M491.96,200.12c0,0-48.9,31.08-86.04,30.04"/>
<path class="st0" d="M314.35,2c0,0-26.77,9.67-66.68,9.49l-0.38,0C207.58,11.61,180.98,2,180.98,2l-8.5,4.63
	c0,0,3.86,57.8,75.19,57.8l0.22,0c71.12-0.12,74.97-57.8,74.97-57.8L314.35,2z M247.99,50.79l-0.32,0
	c-40.42,0-56.97-24.16-63.24-38.48c9.86,2,39.02,7.48,62.94,7.52l0.29,0c23.98,0,53.34-5.52,63.24-7.52
	C304.65,26.59,288.17,50.67,247.99,50.79z"/>
<g>
	<path class="st0" d="M439.16,64.76c0,0,46.15,55.04,54.34,148.75c0,0-64.02,39.05-86.35,25.66c0,0,1.36-13.64-10.67-34.34
		C396.48,204.83,396.36,130.58,439.16,64.76z"/>
	<path class="st0" d="M56.17,64.76c0,0-46.15,55.04-54.34,148.75c0,0,64.02,39.05,86.35,25.66c0,0-1.36-13.64,10.67-34.34
		C98.85,204.83,98.97,130.58,56.17,64.76z"/>
	<g>
		<path class="st0" d="M439.18,64.76C428.01,46.17,322.93,6.38,322.93,6.38l-0.31,0.11l0.26,0.14c0,0-3.86,57.68-74.97,57.8l-0.22,0
			c-71.33,0-75.19-57.8-75.19-57.8l0.24-0.13l-0.3-0.12c0,0-105.08,39.79-116.25,58.38c0,0,39.7,55.78,42.68,140.07
			c0,0,14.39,194.36,0,348.07c0,0,23.2,15.87,148.81,20.82c125.62-4.96,148.81-20.82,148.81-20.82c-14.39-153.7,0-348.07,0-348.07
			C399.48,120.54,439.18,64.76,439.18,64.76z"/>
	</g>
</g>
</svg>
