<?xml version="1.0" encoding="utf-8"?>
<!-- Generator: Adobe Illustrator 19.1.0, SVG Export Plug-In . SVG Version: 6.00 Build 0)  -->
<svg version="1.1" id="Layer_1" xmlns="http://www.w3.org/2000/svg" xmlns:xlink="http://www.w3.org/1999/xlink" x="0px" y="0px"
	 viewBox="0 0 495 576" style="enable-background:new 0 0 495 576;" xml:space="preserve">
<style type="text/css">
	<![CDATA[
	@font-face{font-family:'codaheavy';src:url('/fonts/coda-heavy-webfont.woff') format('woff')}
	text{font-family:Impact,codaheavy,sans-serif}
	.Number.fill{fill:#000}
	.NumberOutline.stroke{fill:none;stroke:#777;stroke-width:2.5}
	.Colour1.fill{fill:#C8E3E4;}
	.Colour2.fill{fill:#5EB4AE;}
	.Colour3.fill{fill:#000000;}
	.BottomHem.fill{fill:#5EB4AE;}
	.NeckAndArmTrim.fill{fill:#5EB4AE;}
	.st0{fill:none;stroke:#000000;stroke-width:0.25;stroke-miterlimit:10;}
	.st1{fill:none;stroke:#000000;stroke-width:0.25;stroke-miterlimit:10;stroke-dasharray:2;}
	]]>
</style>
<path class="Colour1 fill" d="M247.84,573.72c125.34-4.97,148.51-20.79,148.51-20.79c-14.4-153.55,0-347.72,0-347.72
	c2.98-84.21,42.69-139.93,42.69-139.93C427.87,46.7,322.76,6.95,322.76,6.95l-0.12,0.01c0,0-30.17,12.45-75.14,12.24l-0.43,0
	c-44.74,0.14-74.72-12.24-74.72-12.24l-0.12-0.01c0,0-105.11,39.75-116.28,58.33c0,0,39.71,55.72,42.69,139.93
	c0,0,14.4,194.17,0,347.72c0,0,23.17,15.82,148.53,20.79L247.84,573.72z"/>
<path class="Colour1 fill" d="M439.04,65.54c0,0,46.16,54.98,54.35,148.6c0,0-64.03,39.01-86.37,25.63c0,0,1.37-13.62-10.67-34.3
	C396.35,205.47,396.22,131.3,439.04,65.54z"/>
<path class="Colour1 fill" d="M55.96,65.54c0,0-46.16,54.98-54.35,148.6c0,0,64.03,39.01,86.37,25.63c0,0-1.37-13.62,10.67-34.3
	C98.65,205.47,98.77,131.3,55.96,65.54z"/>
<g>
	<path class="st0" d="M394.98,538.37c0,0-22.99,15.85-147.49,20.8"/>
	<path class="st0" d="M247.5,559.17c-124.49-4.95-147.49-20.8-147.49-20.8"/>
</g>
<g>
	<path class="st1" d="M394.98,542.82c0,0-22.99,15.85-147.49,20.8"/>
	<path class="st1" d="M247.5,563.63c-124.49-4.95-147.49-20.8-147.49-20.8"/>
</g>
<g>
	<path class="st1" d="M247.5,563.63c124.49-4.95,147.49-20.8,147.49-20.8"/>
	<path class="st1" d="M247.5,563.63c-124.49-4.95-147.49-20.8-147.49-20.8"/>
</g>
<g>
	<path class="Colour1 fill" d="M247.5,559.17c124.49-4.95,147.49-20.8,147.49-20.8l1.37,14.83c0,0-34.58,17.86-149.28,20.8
		c0,0-105.7-1.2-148.42-20.8l1.37-14.83C100.01,538.37,123,554.22,247.5,559.17"/>
</g>
<path class="Colour3 fill" d="M58.83,189.66l32.75,30.45c0.31-0.86,0.64-1.73,1-2.64L58.83,189.66z"/>
<g>
	<path class="Colour3 fill" d="M102.33,502.57c-0.04,0.67-0.07,1.34-0.11,2.01l27-13.72L102.33,502.57z"/>
	<path class="Colour3 fill" d="M103.07,487.81c-0.03,0.65-0.06,1.3-0.09,1.94l26.24-13.33L103.07,487.81z"/>
	<path class="Colour3 fill" d="M101.45,517.39c-0.05,0.69-0.09,1.39-0.14,2.08l27.91-14.18L101.45,517.39z"/>
	<path class="Colour3 fill" d="M100.4,532.29c-0.06,0.73-0.11,1.45-0.17,2.18l28.99-14.73L100.4,532.29z"/>
	<path class="Colour3 fill" d="M103.67,473.11c-0.02,0.63-0.05,1.26-0.07,1.89l25.61-13.02L103.67,473.11z"/>
	<path class="Colour3 fill" d="M104.16,458.47c-0.02,0.62-0.04,1.23-0.05,1.85l25.11-12.76L104.16,458.47z"/>
	<path class="Colour3 fill" d="M104.96,414.81c0,0.59-0.01,1.18-0.02,1.77l24.27-12.33L104.96,414.81z"/>
	<path class="Colour3 fill" d="M105.04,400.34c0,0.58,0,1.17-0.01,1.76l24.18-12.29L105.04,400.34z"/>
	<path class="Colour3 fill" d="M104.53,443.87c-0.01,0.6-0.03,1.21-0.04,1.81l24.73-12.57L104.53,443.87z"/>
	<path class="Colour3 fill" d="M104.79,429.32c-0.01,0.6-0.02,1.19-0.03,1.79l24.45-12.43L104.79,429.32z"/>
	<path class="Colour3 fill" d="M392.66,502.57c0.04,0.67,0.07,1.34,0.11,2.01l-27-13.72L392.66,502.57z"/>
	<path class="Colour3 fill" d="M391.92,487.81c0.03,0.65,0.06,1.3,0.09,1.94l-26.24-13.33L391.92,487.81z"/>
	<path class="Colour3 fill" d="M393.55,517.39c0.05,0.69,0.09,1.39,0.14,2.08l-27.91-14.18L393.55,517.39z"/>
	<path class="Colour3 fill" d="M394.6,532.29c0.06,0.73,0.11,1.45,0.17,2.18l-28.99-14.73L394.6,532.29z"/>
	<path class="Colour3 fill" d="M391.32,473.11c0.02,0.63,0.05,1.26,0.07,1.89l-25.61-13.02L391.32,473.11z"/>
	<path class="Colour3 fill" d="M390.84,458.47c0.02,0.62,0.04,1.23,0.05,1.85l-25.11-12.76L390.84,458.47z"/>
	<path class="Colour3 fill" d="M390.03,414.81c0,0.59,0.01,1.18,0.02,1.77l-24.27-12.33L390.03,414.81z"/>
	<path class="Colour3 fill" d="M389.95,400.34c0,0.58,0,1.17,0.01,1.76l-24.18-12.29L389.95,400.34z"/>
	<path class="Colour3 fill" d="M390.47,443.87c0.01,0.6,0.03,1.21,0.04,1.81l-24.73-12.57L390.47,443.87z"/>
	<path class="Colour3 fill" d="M390.2,429.32c0.01,0.6,0.02,1.19,0.03,1.79l-24.45-12.43L390.2,429.32z"/>
</g>
<path class="Colour3 fill" d="M436.16,189.66l-32.75,30.45c-0.31-0.86-0.64-1.73-1-2.64L436.16,189.66z"/>
<g>
	<g>
		<path class="Colour3 fill" d="M82.56,241.58c1.06-0.24,2.08-0.55,3.03-0.93l-35.48-29.24L82.56,241.58z"/>
		<path class="Colour3 fill" d="M53.15,198.16l35.44,32.96c0.17-0.99,0.39-2.06,0.66-3.21L53.15,198.16z"/>
		<path class="Colour3 fill" d="M94.85,168.04c-0.09-0.54-0.19-1.09-0.28-1.64l-13.01-10.73L94.85,168.04z"/>
		<path class="Colour3 fill" d="M75.87,164.17l21.26,19.77c-0.09-0.81-0.19-1.65-0.3-2.49L75.87,164.17z"/>
		<path class="Colour3 fill" d="M64.51,181.16l31.34,29.14c0.39-0.76,0.79-1.53,1.21-2.31L64.51,181.16z"/>
		<path class="Colour3 fill" d="M70.19,172.67l28.23,26.25c-0.05-0.95-0.12-2-0.19-3.14L70.19,172.67z"/>
		<path class="Colour3 fill" d="M61.23,151.71c-1.14,1.57-2.28,3.19-3.41,4.88c-1.03,1.56-2.1,3.14-3.09,4.79
			c-0.35,0.56-0.7,1.14-1.05,1.71l2.69,4.49c0.65-1.41,1.32-2.81,2.01-4.17c0.81-1.7,1.71-3.32,2.57-4.93
			c0.69-1.27,1.39-2.51,2.1-3.72L61.23,151.71z"/>
		<path class="Colour3 fill" d="M42.07,185.73c-0.3,0.69-0.61,1.39-0.9,2.08c-1.52,3.64-2.96,7.25-4.22,10.79
			c-0.2,0.55-0.37,1.07-0.57,1.62l5.93,9.89c0.65-2.95,1.36-6.01,2.2-9.16c0.64-2.49,1.38-5.02,2.14-7.58L42.07,185.73z"/>
		<path class="Colour3 fill" d="M51.02,167.66c-0.74,1.3-1.45,2.61-2.16,3.94c-0.96,1.75-1.83,3.55-2.73,5.34
			c-0.61,1.2-1.17,2.42-1.74,3.64l4.12,6.88c0.31-0.92,0.62-1.83,0.93-2.75c0.67-1.81,1.29-3.66,2-5.46
			c0.71-1.81,1.39-3.63,2.17-5.4c0.15-0.37,0.31-0.73,0.46-1.09L51.02,167.66z"/>
		<path class="Colour3 fill" d="M80.64,130.47c-1.28,1.16-2.87,2.54-4.63,4.2c-1.71,1.7-3.68,3.6-5.66,5.83
			c-0.5,0.55-1.02,1.11-1.54,1.68c-0.5,0.59-1.01,1.2-1.53,1.81c-1,1.19-2.05,2.42-3.05,3.74l1.53,2.56
			c0.19-0.29,0.37-0.59,0.56-0.87c0.88-1.43,1.83-2.76,2.73-4.06c0.45-0.65,0.9-1.29,1.33-1.92c0.46-0.61,0.92-1.2,1.36-1.79
			c1.74-2.37,3.5-4.41,5.04-6.25c1.58-1.8,3.02-3.31,4.19-4.58c2.47-2.41,3.88-3.79,3.88-3.79S83.33,128.29,80.64,130.47z"/>
		<path class="Colour3 fill" d="M34.42,205.96c-0.32,0.98-0.65,1.97-0.95,2.92c-1.02,3.3-1.95,6.43-2.72,9.34c-1,3.68-1.81,7-2.44,9.83
			c3.26,1.54,6.69,3.07,10.19,4.54c0.37-3.19,0.93-7.38,1.79-12.25c0.19-1.13,0.41-2.31,0.64-3.51L34.42,205.96z"/>
		<path class="Colour3 fill" d="M68.23,86.45c0,0-40.26,30.36-55.28,133.18l7.93,4.14c0,0,9.38-77.75,55.76-118.99L68.23,86.45z"/>
	</g>
	<path class="Colour3 fill" d="M426.76,86.45c0,0,40.26,30.36,55.28,133.18l-7.93,4.14c0,0-9.38-77.75-55.76-118.99L426.76,86.45z"/>
	<path class="Colour3 fill" d="M412.43,241.58c-1.06-0.24-2.08-0.55-3.03-0.93l35.48-29.24L412.43,241.58z"/>
	<path class="Colour3 fill" d="M441.84,198.16l-35.44,32.96c-0.17-0.99-0.39-2.06-0.66-3.21L441.84,198.16z"/>
	<path class="Colour3 fill" d="M400.15,168.04c0.09-0.54,0.19-1.09,0.28-1.64l13.01-10.73L400.15,168.04z"/>
	<path class="Colour3 fill" d="M419.13,164.17l-21.26,19.77c0.09-0.81,0.19-1.65,0.3-2.49L419.13,164.17z"/>
	<path class="Colour3 fill" d="M430.49,181.16l-31.34,29.14c-0.39-0.76-0.79-1.53-1.21-2.31L430.49,181.16z"/>
	<path class="Colour3 fill" d="M424.81,172.67l-28.23,26.25c0.05-0.95,0.12-2,0.19-3.14L424.81,172.67z"/>
	<path class="Colour3 fill" d="M433.77,151.71c1.14,1.57,2.28,3.19,3.41,4.88c1.03,1.56,2.1,3.14,3.09,4.79c0.35,0.56,0.7,1.14,1.05,1.71
		l-2.69,4.49c-0.65-1.41-1.32-2.81-2.01-4.17c-0.81-1.7-1.71-3.32-2.57-4.93c-0.69-1.27-1.39-2.51-2.1-3.72L433.77,151.71z"/>
	<path class="Colour3 fill" d="M452.92,185.73c0.3,0.69,0.61,1.39,0.9,2.08c1.52,3.64,2.96,7.25,4.22,10.79c0.2,0.55,0.37,1.07,0.57,1.62
		l-5.93,9.89c-0.65-2.95-1.36-6.01-2.2-9.16c-0.64-2.49-1.38-5.02-2.14-7.58L452.92,185.73z"/>
	<path class="Colour3 fill" d="M443.98,167.66c0.74,1.3,1.45,2.61,2.16,3.94c0.96,1.75,1.83,3.55,2.73,5.34c0.61,1.2,1.17,2.42,1.74,3.64
		l-4.12,6.88c-0.31-0.92-0.62-1.83-0.93-2.75c-0.67-1.81-1.29-3.66-2-5.46c-0.71-1.81-1.39-3.63-2.17-5.4
		c-0.15-0.37-0.31-0.73-0.46-1.09L443.98,167.66z"/>
	<path class="Colour3 fill" d="M414.35,130.47c1.28,1.16,2.87,2.54,4.63,4.2c1.71,1.7,3.68,3.6,5.66,5.83c0.5,0.55,1.02,1.11,1.54,1.68
		c0.5,0.59,1.01,1.2,1.53,1.81c1,1.19,2.05,2.42,3.05,3.74l-1.53,2.56c-0.19-0.29-0.37-0.59-0.56-0.87
		c-0.88-1.43-1.83-2.76-2.73-4.06c-0.45-0.65-0.9-1.29-1.33-1.92c-0.46-0.61-0.92-1.2-1.36-1.79c-1.74-2.37-3.5-4.41-5.04-6.25
		c-1.58-1.8-3.02-3.31-4.19-4.58c-2.47-2.41-3.88-3.79-3.88-3.79S411.67,128.29,414.35,130.47z"/>
	<path class="Colour3 fill" d="M460.57,205.96c0.32,0.98,0.65,1.97,0.95,2.92c1.02,3.3,1.95,6.43,2.72,9.34c1,3.68,1.81,7,2.44,9.83
		c-3.26,1.54-6.69,3.07-10.19,4.54c-0.37-3.19-0.93-7.38-1.79-12.25c-0.19-1.13-0.41-2.31-0.64-3.51L460.57,205.96z"/>
</g>
<path class="Colour2 fill" d="M89.72,78.06l82.57-70.87l0,0v0l0,0l0.05-0.21l-0.1-0.04c0,0-105.11,39.75-116.28,58.33
	c0,0,39.71,55.72,42.69,139.93c0,0,1.25,16.88,2.65,44.62h0c48.16,157.51,41.34,260.15,30.61,312.85c2.02,0.39,4.17,0.78,6.43,1.17
	C187.99,253.21,89.72,78.06,89.72,78.06z"/>
<path class="Colour2 fill" d="M63.94,79.85c0,0-41.46,31.79-47.07,141.83c0,0,15.06-87.18,57.14-122.65L63.94,79.85z"/>
<path class="Colour2 fill" d="M21.77,127.28c-0.78,2-1.56,4.05-2.33,6.13c5.47,5.89,12.57,12.82,21.19,19.72
	c13.63,10.93,32.91,23.11,56.31,29.22c-0.24-1.97-0.51-4.05-0.82-6.23C61.47,166.32,35.4,142.33,21.77,127.28z"/>
<path class="Colour2 fill" d="M92.38,217.99c1.52-3.86,3.54-8.15,6.25-12.8c0,0,0.01-3.52-0.43-9.69c-39.37-6.65-68.96-34.52-82.85-50.19
	c-2.62,8.17-5.05,16.92-7.15,26.21C26.15,189.18,55.09,211.22,92.38,217.99z"/>
<path class="Colour2 fill" d="M405.27,78.06L322.7,7.19l0,0v0l0,0l-0.05-0.21l0.1-0.04c0,0,105.11,39.75,116.28,58.33
	c0,0-39.71,55.72-42.69,139.93c0,0-1.25,16.88-2.65,44.62h0c-48.16,157.51-41.34,260.15-30.61,312.85
	c-2.02,0.39-4.17,0.78-6.43,1.17C307,253.21,405.27,78.06,405.27,78.06z"/>
<path class="Colour2 fill" d="M473.23,127.28c0.78,2,1.56,4.05,2.33,6.13c-5.47,5.89-12.57,12.82-21.19,19.72
	c-13.63,10.93-32.91,23.11-56.31,29.22c0.24-1.97,0.51-4.05,0.82-6.23C433.52,166.32,459.6,142.33,473.23,127.28z"/>
<path class="Colour2 fill" d="M402.61,217.99c-1.52-3.86-3.54-8.15-6.25-12.8c0,0-0.01-3.52,0.43-9.69
	c39.37-6.65,68.96-34.52,82.85-50.19c2.62,8.17,5.05,16.92,7.15,26.21C468.84,189.18,439.9,211.22,402.61,217.99z"/>
<path class="Colour2 fill" d="M431.06,79.85c0,0,41.46,31.79,47.07,141.83c0,0-15.06-87.18-57.14-122.65L431.06,79.85z"/>
<path class="Colour3 fill" d="M197.07,548.95c4.07-2.77,8.22-5.41,12.33-8.12c4.14-2.66,8.28-5.31,12.44-7.91
	c4.15-2.63,8.34-5.19,12.51-7.79l12.58-7.67l0.58-0.35l0.58,0.35l12.58,7.66c4.17,2.6,8.36,5.15,12.51,7.78
	c4.16,2.61,8.31,5.26,12.44,7.91c4.11,2.71,8.25,5.35,12.33,8.13c-4.33-2.3-8.59-4.73-12.89-7.09c-4.27-2.41-8.53-4.84-12.78-7.3
	c-4.26-2.44-8.47-4.96-12.7-7.43l-12.64-7.55h1.16l-12.64,7.55c-4.23,2.48-8.45,4.99-12.7,7.43c-4.24,2.47-8.51,4.89-12.78,7.3
	C205.66,544.22,201.4,546.65,197.07,548.95z M203.61,499.79l6.49-3.47l6.45-3.55l6.41-3.61c4.28-2.39,8.5-4.9,12.75-7.35l6.33-3.75
	l6.32-3.77h-1.73l12.65,7.53c4.25,2.45,8.47,4.96,12.75,7.35l6.41,3.61l6.45,3.55c4.32,2.32,8.64,4.65,13.03,6.83
	c-4.01-2.89-8.1-5.63-12.18-8.38l-6.16-4.06l-6.2-4c-4.12-2.68-8.31-5.25-12.46-7.87l-12.56-7.69l-0.87-0.53l-0.87,0.53l-6.28,3.84
	l-6.28,3.86c-4.16,2.62-8.34,5.19-12.46,7.87l-6.2,4l-6.16,4.06l-6.12,4.14c-2.03,1.39-4.05,2.81-6.07,4.24
	C199.26,502.05,201.44,500.93,203.61,499.79z M203.69,454.14c2.2-1.09,4.37-2.24,6.55-3.36l6.49-3.46c2.17-1.15,4.3-2.36,6.45-3.54
	c4.31-2.34,8.54-4.84,12.8-7.26c2.13-1.22,4.23-2.49,6.34-3.74l6.33-3.76h-2.31l6.33,3.76c2.11,1.25,4.21,2.52,6.34,3.74
	c4.27,2.42,8.49,4.92,12.8,7.26c2.15,1.18,4.28,2.39,6.45,3.54l6.49,3.46c2.18,1.12,4.35,2.26,6.55,3.35
	c2.19,1.1,4.39,2.19,6.62,3.22c-1.97-1.5-3.98-2.95-5.98-4.39c-2.01-1.44-4.04-2.83-6.06-4.25l-6.11-4.15
	c-2.04-1.38-4.11-2.71-6.16-4.07c-4.1-2.73-8.28-5.31-12.42-7.96c-2.08-1.31-4.18-2.58-6.27-3.87l-6.28-3.85l-1.16-0.71l-1.16,0.71
	l-6.28,3.85c-2.09,1.29-4.19,2.55-6.27,3.87c-4.14,2.65-8.32,5.23-12.42,7.96c-2.05,1.36-4.12,2.68-6.16,4.07l-6.11,4.15
	c-2.02,1.42-4.05,2.81-6.06,4.25c-2.01,1.43-4.01,2.9-5.99,4.38C199.29,456.31,201.5,455.24,203.69,454.14z M203.77,408.49
	c2.22-1.05,4.41-2.17,6.61-3.25l6.54-3.37c2.18-1.12,4.32-2.32,6.48-3.48c4.33-2.31,8.6-4.73,12.85-7.17
	c4.25-2.44,8.48-4.94,12.69-7.47h-2.89c4.21,2.53,8.43,5.03,12.68,7.48c4.26,2.43,8.52,4.86,12.85,7.17
	c2.16,1.16,4.3,2.35,6.48,3.48l6.54,3.37c2.21,1.08,4.39,2.19,6.61,3.24c2.22,1.06,4.44,2.1,6.7,3.08c-1.94-1.56-3.92-3.05-5.9-4.53
	c-1.98-1.49-4-2.91-6-4.37l-6.07-4.24c-2.02-1.41-4.08-2.75-6.12-4.13c-4.08-2.77-8.22-5.41-12.37-8.05
	c-4.15-2.63-8.34-5.2-12.53-7.74l-1.45-0.88l-1.44,0.88c-4.2,2.55-8.38,5.12-12.53,7.75c-4.15,2.64-8.29,5.29-12.36,8.05
	c-2.04,1.38-4.1,2.72-6.12,4.13l-6.07,4.24c-2,1.46-4.01,2.88-6,4.36c-1.99,1.48-3.96,2.97-5.91,4.53
	C199.33,410.59,201.55,409.54,203.77,408.49z M197.91,364.37c2.53-1.18,5.01-2.43,7.52-3.65c4.99-2.48,9.92-5.07,14.82-7.7
	c2.45-1.32,4.89-2.65,7.32-4.02c2.44-1.34,4.85-2.73,7.27-4.1c4.83-2.76,9.62-5.6,14.4-8.46h-3.47c4.77,2.87,9.56,5.7,14.39,8.47
	c2.42,1.37,4.83,2.77,7.27,4.11c2.43,1.36,4.87,2.69,7.32,4.02c2.45,1.32,4.91,2.63,7.38,3.91c2.47,1.29,4.95,2.55,7.44,3.79
	c2.51,1.21,5,2.46,7.52,3.64c2.52,1.18,5.06,2.35,7.63,3.44c-2.19-1.79-4.43-3.5-6.67-5.19c-2.24-1.7-4.52-3.33-6.78-4.99
	c-2.28-1.63-4.56-3.25-6.86-4.84c-2.3-1.59-4.61-3.17-6.93-4.72c-2.32-1.56-4.65-3.1-6.99-4.62c-2.33-1.54-4.69-3.02-7.04-4.53
	c-4.71-2.99-9.45-5.91-14.22-8.8l-1.74-1.05l-1.73,1.05c-4.76,2.89-9.51,5.81-14.21,8.8c-2.35,1.5-4.71,2.99-7.04,4.53
	c-2.34,1.52-4.67,3.06-6.99,4.62c-4.64,3.12-9.24,6.29-13.79,9.57c-2.26,1.67-4.54,3.29-6.78,4.99c-2.24,1.69-4.48,3.4-6.67,5.19
	C192.86,366.73,195.39,365.56,197.91,364.37z M190.31,320.71c2.92-1.35,5.8-2.77,8.68-4.19c2.87-1.44,5.74-2.89,8.58-4.37
	c2.85-1.48,5.68-2.98,8.51-4.5c2.82-1.53,5.64-3.06,8.44-4.63c2.81-1.55,5.59-3.15,8.39-4.73c5.57-3.19,11.1-6.46,16.61-9.76h-4.04
	l8.27,4.93l8.33,4.83c2.79,1.58,5.57,3.19,8.38,4.73c2.8,1.57,5.62,3.1,8.44,4.63c2.82,1.52,5.66,3.03,8.51,4.5
	c2.85,1.48,5.71,2.93,8.59,4.37c2.88,1.42,5.76,2.84,8.68,4.19c2.91,1.36,5.84,2.71,8.81,3.96c-2.52-2.07-5.1-4.04-7.69-6
	c-2.58-1.97-5.2-3.87-7.82-5.77c-2.63-1.88-5.26-3.75-7.91-5.59c-2.65-1.84-5.31-3.66-7.99-5.45c-2.67-1.8-5.36-3.58-8.06-5.33
	c-2.69-1.77-5.41-3.49-8.11-5.22l-8.17-5.12l-8.23-5.02l-2.02-1.23l-2.03,1.23c-5.49,3.33-10.96,6.7-16.39,10.15
	c-2.71,1.73-5.43,3.45-8.11,5.23c-2.7,1.75-5.38,3.54-8.06,5.33c-2.67,1.8-5.34,3.61-7.99,5.45c-2.65,1.84-5.29,3.7-7.91,5.59
	c-2.62,1.9-5.24,3.8-7.82,5.76c-2.59,1.96-5.17,3.93-7.69,5.99C184.48,323.42,187.4,322.07,190.31,320.71z M179.11,277.98
	c3.48-1.64,6.9-3.37,10.35-5.06l10.24-5.26c1.71-0.87,3.4-1.78,5.09-2.68l5.07-2.72c3.37-1.83,6.74-3.67,10.08-5.55
	c3.36-1.85,6.68-3.77,10.02-5.67l9.95-5.78l9.89-5.89h-4.62l9.89,5.9l9.95,5.79c3.34,1.9,6.66,3.82,10.02,5.67
	c3.34,1.88,6.71,3.72,10.08,5.55c3.37,1.83,6.75,3.64,10.16,5.4l10.24,5.26l5.17,2.54c1.73,0.84,3.44,1.71,5.19,2.51
	c3.47,1.64,6.96,3.27,10.5,4.79c-3.03-2.45-6.12-4.79-9.22-7.12c-1.54-1.18-3.11-2.3-4.68-3.44l-4.69-3.41l-9.48-6.64
	c-3.17-2.21-6.36-4.36-9.56-6.5c-3.2-2.14-6.41-4.27-9.64-6.35c-3.22-2.12-6.47-4.16-9.71-6.23l-9.77-6.12l-9.83-6l-2.31-1.41
	l-2.31,1.41l-9.83,6.01l-9.77,6.12c-3.24,2.07-6.49,4.12-9.71,6.23c-3.23,2.09-6.44,4.22-9.64,6.35l-4.79,3.23
	c-1.59,1.08-3.19,2.16-4.77,3.27l-9.48,6.64c-3.12,2.29-6.27,4.52-9.37,6.85c-3.1,2.32-6.19,4.66-9.22,7.11
	C172.15,281.25,175.63,279.62,179.11,277.98z M165.57,235.85c2.08-0.98,4.13-2.02,6.19-3.04l6.17-3.08
	c4.1-2.08,8.18-4.19,12.24-6.34l6.08-3.24l6.06-3.28c4.03-2.2,8.06-4.41,12.05-6.67c4.02-2.23,7.99-4.53,11.98-6.81l11.91-6.94
	l11.84-7.06h-5.2l11.84,7.07c3.97,2.31,7.92,4.65,11.91,6.94c3.99,2.28,7.96,4.58,11.98,6.81c4,2.26,8.02,4.47,12.05,6.67
	c4.03,2.2,8.08,4.37,12.14,6.51c4.06,2.15,8.14,4.26,12.24,6.34l6.17,3.07c2.06,1.02,4.11,2.07,6.19,3.04l6.23,2.97
	c2.1,0.95,4.18,1.93,6.3,2.85c-1.82-1.46-3.67-2.85-5.51-4.28l-5.58-4.16c-1.85-1.4-3.74-2.73-5.62-4.08l-5.63-4.05
	c-3.77-2.67-7.56-5.31-11.37-7.91c-3.81-2.61-7.63-5.19-11.47-7.74c-3.84-2.55-7.69-5.08-11.56-7.58
	c-3.85-2.52-7.75-4.97-11.63-7.44c-3.89-2.46-7.8-4.87-11.7-7.31l-11.77-7.18l-2.6-1.59l-2.6,1.59l-11.77,7.19l-11.7,7.31
	c-3.88,2.47-7.78,4.92-11.63,7.44c-3.87,2.49-7.72,5.03-11.56,7.58l-5.75,3.85l-5.72,3.89c-3.81,2.6-7.6,5.24-11.37,7.91l-5.64,4.05
	c-1.88,1.35-3.77,2.68-5.62,4.08c-3.73,2.76-7.44,5.53-11.09,8.43C157.27,239.82,161.43,237.84,165.57,235.85z M157.81,191.73
	c4.46-2.29,8.88-4.67,13.32-7l13.22-7.18c4.41-2.39,8.76-4.88,13.15-7.32c4.38-2.44,8.75-4.9,13.1-7.41
	c4.36-2.48,8.69-5.01,13.03-7.53c8.67-5.05,17.29-10.19,25.89-15.36h-4.04l12.92,7.74l12.97,7.64l13.03,7.53
	c4.34,2.51,8.72,4.97,13.1,7.41c4.38,2.44,8.74,4.93,13.14,7.32l13.22,7.18c4.44,2.33,8.86,4.7,13.32,6.99
	c4.46,2.3,8.93,4.58,13.45,6.76c-4.07-3-8.2-5.91-12.33-8.8c-4.13-2.9-8.31-5.71-12.46-8.57l-12.56-8.39
	c-4.19-2.8-8.43-5.49-12.64-8.24c-4.21-2.75-8.44-5.47-12.69-8.15l-12.76-8.03l-12.81-7.93l-12.87-7.83l-2.02-1.23l-2.03,1.23
	c-8.59,5.2-17.15,10.44-25.68,15.76c-4.26,2.67-8.52,5.32-12.76,8.03c-4.25,2.68-8.47,5.41-12.69,8.16
	c-4.21,2.75-8.46,5.44-12.64,8.24l-12.56,8.38c-4.15,2.86-8.33,5.67-12.46,8.56c-4.13,2.89-8.26,5.79-12.33,8.8
	C148.88,196.31,153.35,194.03,157.81,191.73z M147.6,148.41c4.92-2.62,9.8-5.32,14.71-7.98l14.62-8.14
	c4.88-2.71,9.7-5.51,14.56-8.26c4.85-2.76,9.7-5.52,14.51-8.35l14.46-8.43c4.82-2.81,9.6-5.71,14.4-8.55l14.38-8.58h-3.47
	l14.36,8.62l14.41,8.53l14.46,8.43c4.81,2.83,9.65,5.6,14.51,8.35c4.85,2.75,9.68,5.55,14.56,8.26l14.63,8.14
	c4.9,2.66,9.79,5.36,14.71,7.98c4.92,2.63,9.85,5.25,14.82,7.78c-4.59-3.24-9.22-6.39-13.86-9.53c-4.64-3.15-9.31-6.22-13.97-9.33
	l-14.05-9.17c-4.69-3.06-9.42-6.03-14.12-9.05c-4.71-3.02-9.43-6.02-14.17-8.96l-14.22-8.88l-14.27-8.78l-14.32-8.69l-1.74-1.05
	l-1.73,1.05l-14.3,8.73c-4.76,2.92-9.55,5.79-14.28,8.76l-14.22,8.88c-4.75,2.94-9.46,5.95-14.17,8.96
	c-4.71,3.02-9.44,5.99-14.12,9.05l-14.06,9.17c-4.66,3.11-9.33,6.18-13.97,9.33c-4.64,3.14-9.27,6.29-13.86,9.52
	C137.75,153.66,142.68,151.04,147.6,148.41z M140.33,104.16l15.6-8.82l15.54-8.92l15.5-9c10.34-5.98,20.6-12.12,30.9-18.18
	l30.77-18.42h-2.31l30.77,18.42c10.3,6.06,20.56,12.2,30.9,18.18l15.5,9l15.55,8.92l15.6,8.82c5.21,2.93,10.44,5.82,15.68,8.68
	c-5-3.31-10.01-6.6-15.03-9.85l-15.11-9.72l-15.17-9.61l-15.21-9.53c-10.13-6.37-20.35-12.59-30.52-18.89l-30.65-18.65l-1.16-0.7
	l-1.16,0.7L215.7,55.26c-10.17,6.29-20.39,12.51-30.52,18.89l-15.21,9.53l-15.17,9.61L139.7,103c-5.03,3.25-10.04,6.54-15.04,9.85
	C129.9,109.98,135.12,107.09,140.33,104.16z"/>
<path class="NeckAndArmTrim fill" d="M310.72,2.28l-0.1,0.01c0,0-25.34,9.15-63.12,8.97l-0.36,0c-37.58,0.12-62.76-8.97-62.76-8.97
	l-0.1-0.01l-11.92,4.94c0,0,29.98,12.38,74.72,12.24l0.43,0c44.98,0.21,75.14-12.24,75.14-12.24L310.72,2.28z"/>
<g>
	<path class="st0" d="M394.97,538.09c0,0-22.99,15.85-147.49,20.8"/>
	<path class="st0" d="M247.48,558.89C122.99,553.94,100,538.09,100,538.09"/>
	<path class="st1" d="M394.97,542.54c0,0-22.99,15.85-147.49,20.8"/>
	<path class="st1" d="M247.48,563.35C122.99,558.39,100,542.54,100,542.54"/>
</g>
<path class="Colour3 fill" d="M68.23,86.45c11.93,23.57,28.53,65.45,30.41,118.74c0,0,0,0.02,0,0.06
	c70.83,181.51,41.73,347.67,39.7,358.58c0.03,0,0.05,0.01,0.08,0.01C207.63,356.4,80.09,108.76,68.23,86.45z"/>
<path class="Colour3 fill" d="M174.01,459.02c-0.23,2.46-0.45,4.91-0.68,7.36c-0.11,1.22-0.22,2.43-0.34,3.65
	c-0.15,1.21-0.3,2.41-0.44,3.61c-0.29,2.4-0.59,4.78-0.87,7.15c-0.32,2.36-0.71,4.7-1.05,7.01c-0.64,4.64-1.55,9.16-2.34,13.58
	c-0.19,1.03-0.4,2.04-0.61,3.05l22.1-7.25c0.21-2.38,0.4-4.78,0.53-7.2c0.15-2.47,0.33-4.95,0.45-7.45c0.08-2.5,0.17-5.02,0.26-7.56
	c0.04-1.27,0.08-2.54,0.13-3.81c0.01-1.27,0.01-2.55,0.02-3.83c0.01-2.56,0.02-5.13,0.03-7.71c-0.01-2.58-0.12-5.17-0.17-7.76
	c-0.05-1.5-0.08-3-0.12-4.51l-16.45,5.4C174.3,454.84,174.19,456.93,174.01,459.02z"/>
<path class="Colour3 fill" d="M164.74,517.56c-1.71,7.06-3.62,13.69-5.48,19.8c-2.25,7.04-4.51,13.39-6.69,18.9
	c-1.36,3.39-2.67,6.47-3.89,9.22c7.93,1.18,17.05,2.33,27.51,3.41c0.4-1.27,0.8-2.56,1.21-3.9c1.87-6.3,3.71-13.44,5.47-21.26
	c1.65-7.83,3.3-16.33,4.54-25.35c0.36-2.25,0.61-4.54,0.9-6.86c0.07-0.59,0.14-1.18,0.21-1.77L164.74,517.56z"/>
<path class="Colour3 fill" d="M174.52,398.79c0.38,4.98,0.47,10.01,0.63,15.04c0.23,5.03,0.11,10.1,0.14,15.14
	c-0.01,1.26,0.01,2.52-0.02,3.79l-0.12,3.78c-0.04,1.27-0.08,2.55-0.12,3.82l15.22-4.99l-0.17-3.04c-0.08-1.3-0.22-2.6-0.33-3.9
	c-0.49-5.2-0.83-10.4-1.52-15.54c-0.62-5.15-1.17-10.28-2-15.33c-0.51-3.3-0.98-6.59-1.52-9.84l-10.67,3.5
	C174.22,393.72,174.36,396.25,174.52,398.79z"/>
<path class="Colour3 fill" d="M156.36,289.17c0.67,2.62,1.39,5.45,2.16,8.47c0.75,3.03,1.64,6.22,2.41,9.63c0.76,3.41,1.56,7,2.39,10.74
	c0.19,0.88,0.4,1.8,0.6,2.69l4.53-1.49c-0.25-0.79-0.51-1.61-0.76-2.39c-1.17-3.68-2.28-7.2-3.35-10.56
	c-1.08-3.35-2.25-6.47-3.26-9.43c-1.04-2.95-2.01-5.72-2.91-8.27c-0.87-2.56-1.84-4.86-2.63-6.96c-3.23-8.37-5.08-13.15-5.08-13.15
	s1.42,4.93,3.9,13.55C154.96,284.18,155.72,286.54,156.36,289.17z"/>
<path class="Colour3 fill" d="M168.06,342.28c0.68,4.33,1.38,8.77,2.1,13.32c0.69,4.54,1.19,9.22,1.81,13.94
	c0.45,3.23,0.75,6.52,1.05,9.84l9.63-3.16c-0.5-2.76-1.02-5.5-1.64-8.19c-1.05-4.74-1.97-9.42-3.08-13.95
	c-1.13-4.52-2.23-8.95-3.31-13.25c-0.94-3.61-1.95-7.09-2.92-10.5l-5.52,1.81C166.81,335.44,167.47,338.8,168.06,342.28z"/>
<path class="Colour3 fill" d="M426.76,86.45c-11.93,23.57-28.53,65.45-30.41,118.74c0,0,0,0.02,0,0.06
	c-70.83,181.51-41.73,347.67-39.7,358.58c-0.03,0-0.05,0.01-0.08,0.01C287.37,356.4,414.9,108.76,426.76,86.45z"/>
<path class="Colour3 fill" d="M320.98,459.02c0.23,2.46,0.45,4.91,0.68,7.36c0.11,1.22,0.22,2.43,0.34,3.65c0.15,1.21,0.3,2.41,0.44,3.61
	c0.29,2.4,0.59,4.78,0.87,7.15c0.32,2.36,0.71,4.7,1.05,7.01c0.64,4.64,1.55,9.16,2.34,13.58c0.19,1.03,0.4,2.04,0.61,3.05
	l-22.1-7.25c-0.21-2.38-0.4-4.78-0.53-7.2c-0.15-2.47-0.33-4.95-0.45-7.45c-0.08-2.5-0.17-5.02-0.26-7.56
	c-0.04-1.27-0.08-2.54-0.13-3.81c-0.01-1.27-0.01-2.55-0.02-3.83c-0.01-2.56-0.02-5.13-0.03-7.71c0.01-2.58,0.12-5.17,0.17-7.76
	c0.05-1.5,0.08-3,0.12-4.51l16.45,5.4C320.69,454.84,320.8,456.93,320.98,459.02z"/>
<path class="Colour3 fill" d="M330.26,517.56c1.71,7.06,3.62,13.69,5.48,19.8c2.25,7.04,4.51,13.39,6.69,18.9
	c1.36,3.39,2.67,6.47,3.89,9.22c-7.93,1.18-17.05,2.33-27.51,3.41c-0.4-1.27-0.8-2.56-1.21-3.9c-1.87-6.3-3.71-13.44-5.47-21.26
	c-1.65-7.83-3.3-16.33-4.54-25.35c-0.36-2.25-0.61-4.54-0.9-6.86c-0.07-0.59-0.14-1.18-0.21-1.77L330.26,517.56z"/>
<path class="Colour3 fill" d="M320.47,398.79c-0.38,4.98-0.47,10.01-0.63,15.04c-0.23,5.03-0.11,10.1-0.14,15.14
	c0.01,1.26-0.01,2.52,0.02,3.79l0.12,3.78c0.04,1.27,0.08,2.55,0.12,3.82l-15.22-4.99l0.17-3.04c0.08-1.3,0.22-2.6,0.33-3.9
	c0.49-5.2,0.83-10.4,1.52-15.54c0.62-5.15,1.17-10.28,2-15.33c0.51-3.3,0.98-6.59,1.52-9.84l10.67,3.5
	C320.77,393.72,320.63,396.25,320.47,398.79z"/>
<path class="Colour3 fill" d="M338.63,289.17c-0.67,2.62-1.39,5.45-2.16,8.47c-0.75,3.03-1.64,6.22-2.41,9.63
	c-0.76,3.41-1.56,7-2.39,10.74c-0.19,0.88-0.4,1.8-0.6,2.69l-4.53-1.49c0.25-0.79,0.51-1.61,0.76-2.39
	c1.17-3.68,2.28-7.2,3.35-10.56c1.08-3.35,2.25-6.47,3.26-9.43c1.04-2.95,2.01-5.72,2.91-8.27c0.87-2.56,1.84-4.86,2.63-6.96
	c3.23-8.37,5.08-13.15,5.08-13.15s-1.42,4.93-3.9,13.55C340.03,284.18,339.27,286.54,338.63,289.17z"/>
<path class="Colour3 fill" d="M326.94,342.28c-0.68,4.33-1.38,8.77-2.1,13.32c-0.69,4.54-1.19,9.22-1.81,13.94
	c-0.45,3.23-0.75,6.52-1.05,9.84l-9.63-3.16c0.5-2.76,1.02-5.5,1.64-8.19c1.05-4.74,1.97-9.42,3.08-13.95
	c1.13-4.52,2.23-8.95,3.31-13.25c0.94-3.61,1.95-7.09,2.92-10.5l5.52,1.81C328.18,335.44,327.52,338.8,326.94,342.28z"/>
<path class="NeckAndArmTrim fill" d="M418.73,242.29c-3.45,0.17-6.53-0.66-6.53-0.66c-2.29-0.61-4.03-1.52-5.07-2.13
	c-0.04-1.34-0.13-2.73-0.26-4.17c-0.32-3.39-0.86-6.5-1.5-9.28c2.95,0.15,7.02,0.17,11.81-0.37c4.12-0.46,7.39-1.18,10.39-1.93
	c12.04-3,22.33-7.06,23.03-7.34c17.76-7.07,34.64-16.68,40.97-20.37c0.39,2.73,0.75,5.55,1.07,8.46c0.35,3.21,0.64,6.34,0.86,9.38
	c-10.6,6.16-19.78,10.84-26.69,14.19C466.81,228.05,439.45,241.28,418.73,242.29z"/>
<g id="BBodyLogos"></g>
<path class="NeckAndArmTrim fill" d="M76.27,242.39c3.45,0.17,6.53-0.66,6.53-0.66c2.29-0.61,4.03-1.52,5.07-2.13
	c0.04-1.34,0.13-2.73,0.26-4.17c0.32-3.39,0.86-6.5,1.5-9.28c-2.95,0.15-7.02,0.17-11.81-0.37c-4.12-0.46-7.39-1.18-10.39-1.93
	c-12.04-3-22.33-7.06-23.03-7.34c-17.76-7.07-34.64-16.68-40.97-20.37c-0.39,2.73-0.75,5.55-1.07,8.46
	c-0.35,3.21-0.64,6.34-0.86,9.38c10.6,6.16,19.78,10.84,26.69,14.19C28.19,228.15,55.55,241.38,76.27,242.39z"/>
<path class="st0" d="M3.67,196.31c0,0,48.91,31.05,86.06,30.01"/>
<path class="st1" d="M3.13,200.77c0,0,48.91,31.05,86.06,30.01"/>
<path class="st0" d="M491.32,196.31c0,0-48.91,31.05-86.06,30.01"/>
<path class="st1" d="M491.86,200.77c0,0-48.91,31.05-86.06,30.01"/>
<g>
	<path class="st0" d="M439.03,65.26c0,0,46.16,54.98,54.35,148.6c0,0-64.03,39.01-86.37,25.63c0,0,1.37-13.62-10.67-34.3
		C396.34,205.19,396.22,131.02,439.03,65.26z"/>
	<path class="st0" d="M55.95,65.26c0,0-46.16,54.98-54.35,148.6c0,0,64.03,39.01,86.37,25.63c0,0-1.37-13.62,10.67-34.3
		C98.64,205.19,98.76,131.02,55.95,65.26z"/>
	<path class="st0" d="M247.49,573.72c125.65-4.95,148.85-20.8,148.85-20.8c-14.4-153.55,0-347.72,0-347.72
		c2.98-84.21,42.69-139.93,42.69-139.93C427.86,46.69,322.75,6.94,322.75,6.94l-0.12,0.01c0,0-30.17,12.45-75.14,12.24l-0.43,0
		c-44.74,0.14-74.72-12.24-74.72-12.24l-0.12-0.01c0,0-105.11,39.75-116.28,58.33c0,0,39.71,55.72,42.69,139.93
		c0,0,14.4,194.17,0,347.72C98.64,552.91,121.84,568.77,247.49,573.72"/>
	<path class="st0" d="M310.71,2l-0.1,0.01c0,0-25.34,9.15-63.12,8.97l-0.36,0c-37.58,0.12-62.76-8.97-62.76-8.97L184.27,2
		l-11.92,4.94c0,0,29.98,12.38,74.72,12.24l0.43,0c44.98,0.21,75.14-12.24,75.14-12.24L310.71,2z"/>
</g>
<path class="BottomHem fill" d="M247.26,559.17c124.49-4.95,147.49-20.8,147.49-20.8l1.37,14.83c0,0-34.58,17.86-149.28,20.8
	c0,0-105.7-1.2-148.42-20.8l1.37-14.83C99.77,538.37,122.76,554.22,247.26,559.17"/>
</svg>
