<?xml version="1.0" encoding="utf-8"?>
<!-- Generator: Adobe Illustrator 19.1.0, SVG Export Plug-In . SVG Version: 6.00 Build 0)  -->
<svg version="1.1" id="Layer_1" xmlns="http://www.w3.org/2000/svg" xmlns:xlink="http://www.w3.org/1999/xlink" x="0px" y="0px"
	 viewBox="0 0 495 576" style="enable-background:new 0 0 495 576;" xml:space="preserve">
<style type="text/css">
	<![CDATA[
	@font-face{font-family:'codaheavy';src:url('/fonts/coda-heavy-webfont.woff') format('woff')}
	text{font-family:Impact,codaheavy,sans-serif}
	.Number.fill{fill:#000}
	.NumberOutline.stroke{fill:none;stroke:#777;stroke-width:2.5}
	.Colour1.fill{fill:#030719;}
	.Colour2.fill{fill:#09185E;}
	.Colour3.fill{fill:#FFFFFF;}
	.Colour4.fill{fill:#081734;}
	.BottomHem.fill{fill:#0D143A;}
	.NeckAndArmTrim.fill{fill:#030719;}
	.st0{fill:none;stroke:#000000;stroke-width:0.25;stroke-miterlimit:10;stroke-dasharray:2;}
	.st1{fill:none;stroke:#000000;stroke-width:0.25;stroke-miterlimit:10;}
	]]>
</style>
<path class="Colour1 fill" d="M247.19,574c-125.36-4.97-148.53-20.79-148.53-20.79c14.4-153.56,0-347.73,0-347.73
	C95.68,121.27,55.97,65.54,55.97,65.54C67.14,46.97,172.25,7.22,172.25,7.22l0.12,0.01c0,0,29.98,12.38,74.72,12.24l0.43,0
	c44.98,0.21,75.14-12.24,75.14-12.24l0.12-0.01c0,0,105.11,39.75,116.28,58.33c0,0-39.71,55.73-42.69,139.93
	c0,0-14.4,194.17,0,347.73c0,0-23.16,15.82-148.51,20.79L247.19,574z M396.36,205.48c12.04,20.68,10.67,34.3,10.67,34.3
	c22.34,13.37,86.37-25.63,86.37-25.63c-8.19-93.62-54.35-148.6-54.35-148.6C396.24,131.3,396.36,205.48,396.36,205.48z M55.97,65.54
	c0,0-46.16,54.98-54.35,148.6c0,0,64.03,39.01,86.37,25.63c0,0-1.37-13.62,10.67-34.3C98.66,205.48,98.78,131.3,55.97,65.54z"/>
<g>
	<path class="st0" d="M394.99,542.84c0,0-22.99,15.85-147.49,20.8"/>
	<path class="st0" d="M247.51,563.64c-124.49-4.95-147.49-20.8-147.49-20.8"/>
</g>
<path class="Colour4 fill" d="M247.53,500.26l-62.28-46.46c0.59-7.26,0.99-14.23,1.21-20.87l61.07,45.56l61.07-45.56
	c0.22,6.64,0.62,13.61,1.21,20.87L247.53,500.26z M247.53,421.25l-64.01-47.75c1.03,7.11,1.87,14.98,2.42,23.58l61.59,45.94
	l61.59-45.94c0.56-8.6,1.4-16.47,2.42-23.58L247.53,421.25z M338.99,295.78L247.53,364l-91.46-68.22c0.56,0.95,1.1,1.9,1.67,2.85
	c0.94,1.21,8.43,11.19,15.58,31.79l74.21,55.36l74.21-55.36c7.15-20.6,14.64-30.58,15.58-31.79
	C337.89,297.67,338.43,296.73,338.99,295.78z M313.57,486.47l-66.04,49.26l-66.04-49.26c-0.93,6.26-2.01,12.72-3.24,19.36
	l69.28,51.68l69.28-51.68C315.58,499.19,314.5,492.73,313.57,486.47z"/>
<path class="Colour2 fill" d="M252.91,72.17c-2.96,0-4.84,0.07-5.38,0.09c-0.55-0.02-2.43-0.09-5.38-0.09
	c-24.37,0-106.35,4.3-137.92,59.64c-5.11,8.97-8.61,18.81-10.54,29.5c2.61,13.53,4.44,28.21,4.99,43.89c0,0,0.76,10.28,1.76,27.96
	c7.81,25.69,20.98,54.16,39.53,85.33l0.27,0.38c0.18,0.23,18.26,23.51,27.18,74.92c6.36,36.65,8.92,93.79-7.59,173.23
	c2.23,0.29,4.54,0.57,6.93,0.85c16.68-80.61,13.95-138.65,7.39-175.94c-8.96-50.93-26.34-74.62-28.31-77.18
	c-46.72-78.58-58.69-138.98-35.56-179.53C139.98,83.15,218.72,79.1,242.14,79.1c3.3,0,5.2,0.09,5.22,0.09l0.17,0.01l0.16-0.01
	c0.02,0,1.92-0.09,5.22-0.09c23.42,0,102.16,4.05,131.87,56.14c23.13,40.54,11.16,100.94-35.56,179.52
	c-1.97,2.56-19.36,26.25-28.31,77.18c-6.56,37.29-9.29,95.33,7.39,175.94c2.39-0.28,4.7-0.56,6.93-0.85
	c-16.51-79.45-13.95-136.58-7.59-173.23c8.92-51.41,27-74.69,27.18-74.92l0.27-0.39c18.55-31.17,31.72-59.65,39.53-85.34
	c1-17.68,1.76-27.96,1.76-27.96c0.55-15.67,2.38-30.36,4.99-43.88c-1.93-10.69-5.43-20.54-10.54-29.51
	C359.26,76.47,277.28,72.17,252.91,72.17z"/>
<path class="Colour2 fill" d="M146.32,374.85c-11.34-35.22-31.75-54.64-42.51-62.88c0.31,10.5,0.59,21.52,0.8,32.95
	c7.21,8.9,14.91,21.52,20.19,38.71c9.98,32.5,12.31,86.97-24.63,170.12c2.6,1.28,9.03,3.93,22.24,6.94
	c14.25-32.46,23.83-63.04,28.52-91.33C156.76,434.25,155.21,402.45,146.32,374.85z"/>
<path class="Colour2 fill" d="M439.06,65.27c0,0,0.01-0.01,0.01-0.01C427.9,46.69,322.79,6.94,322.79,6.94l-0.31,0.11l0.26,0.14
	c0,0-61.79,6.94-82.58,6.94c-16.81,0-67.84-6.94-67.84-6.94l0.24-0.13l-0.3-0.12c0,0-105.11,39.75-116.28,58.33h-0.02
	c0,0-46.16,54.98-54.35,148.6c0,0,22.52,13.72,45.51,22.09C65.85,67.35,247.53,73.95,247.53,73.95h0.04c0,0,181.66-6.6,200.4,161.98
	c22.96-8.38,45.43-22.07,45.43-22.07C485.25,120.68,439.48,65.78,439.06,65.27z"/>
<path class="Colour2 fill" d="M348.71,374.99c11.34-35.22,31.75-54.64,42.51-62.88c-0.31,10.5-0.59,21.52-0.8,32.95
	c-7.21,8.9-14.91,21.52-20.19,38.71c-9.98,32.5-12.31,86.97,24.63,170.12c-2.6,1.28-9.03,3.93-22.24,6.94
	c-14.25-32.46-23.83-63.04-28.52-91.33C338.27,434.39,339.82,402.6,348.71,374.99z"/>
<path class="Colour3 fill" d="M316.18,366.39c7.87-45.08,23.77-65.49,23.93-65.69l0.13-0.19c41.78-70.21,52.27-124.57,31.17-161.56
	c-27.19-47.67-98.1-51.38-119.19-51.38c-2.68,0-4.32,0.06-4.7,0.08c-0.38-0.02-2.02-0.08-4.7-0.08c-21.09,0-92,3.7-119.19,51.38
	c-21.1,36.99-10.61,91.35,31.17,161.56l0.14,0.2c0.16,0.2,15.96,20.41,23.87,65.36c6.9,39.24,8.86,105.24-18.65,201.02
	c1.14,0.15,2.3,0.29,3.48,0.43c27.53-96.13,25.54-162.53,18.59-202.05c-7.86-44.69-23.13-65.07-24.5-66.83
	c-41.05-69.01-51.5-122.17-31.08-157.98c26.26-46.05,95.56-49.62,116.17-49.62c2.92,0,4.6,0.08,4.62,0.08l0.08,0l0.08,0
	c0.02,0,1.7-0.08,4.61-0.08c20.61,0,89.9,3.58,116.17,49.62c20.43,35.81,9.97,88.97-31.08,157.98c-1.37,1.76-16.64,22.14-24.5,66.83
	c-6.95,39.53-8.94,105.92,18.59,202.05c1.18-0.14,2.34-0.29,3.48-0.43C307.44,471.49,309.34,405.58,316.18,366.39z"/>
<path class="Colour3 fill" d="M153.64,409.86l-9.21,1.02c0.1,0.96,7.84,83.76-35.88,146.08c2.52,0.81,5.61,1.7,9.38,2.65
	c10.1-14.99,17.4-30.82,22.62-45.99c-2.73,15.82-6.72,32.23-12.43,48.3c2.82,0.58,5.88,1.16,9.22,1.75
	c10.27-29.35,14.8-58.98,16.7-82.32C157.33,441.01,153.8,411.11,153.64,409.86z"/>
<path class="Colour3 fill" d="M341.39,410.01l9.21,1.02c-0.1,0.96-7.84,83.76,35.88,146.08c-2.52,0.81-5.61,1.7-9.38,2.65
	c-10.1-14.99-17.4-30.82-22.62-45.99c2.73,15.82,6.72,32.23,12.43,48.3c-2.82,0.58-5.88,1.16-9.22,1.75
	c-10.27-29.35-14.8-58.98-16.7-82.32C337.7,441.16,341.24,411.26,341.39,410.01z"/>
<path class="Colour3 fill" d="M32.87,229.65l-3.43-0.58c6.58-38.97,22.17-71.86,46.32-97.75c19.31-20.7,44.1-36.98,73.68-48.38
	c50.27-19.37,97.68-17.89,98.15-17.88c0.39-0.02,47.79-1.49,98.06,17.87c29.58,11.4,54.37,27.67,73.68,48.37
	c24.15,25.88,39.74,58.76,46.33,97.73l-3.43,0.58c-14.64-86.62-72.1-125.79-117.72-143.39c-49.61-19.14-96.4-17.7-96.86-17.69
	l-0.06,0l-0.11,0c-0.46-0.02-47.26-1.46-96.88,17.69C104.96,103.83,47.5,143.01,32.87,229.65z"/>
<g id="BBodyLogos"></g>
<path class="NeckAndArmTrim fill" d="M310.73,2.28l-0.1,0.01c0,0-25.34,9.15-63.12,8.97l-0.36,0c-37.58,0.12-62.76-8.97-62.76-8.97
	l-0.1-0.01l-11.92,4.94c0,0,29.98,12.38,74.72,12.24l0.43,0c44.98,0.21,75.14-12.24,75.14-12.24L310.73,2.28z"/>
<path class="BottomHem fill" d="M247.53,558.9c124.49-4.95,147.49-20.8,147.49-20.8l1.37,14.83c0,0-34.58,17.86-149.28,20.8
	c0,0-105.7-1.2-148.42-20.8l1.37-14.83C100.04,538.1,123.03,553.95,247.53,558.9"/>
<g>
	<g>
		<path class="st1" d="M394.99,538.38c0,0-22.99,15.85-147.49,20.8"/>
		<path class="st1" d="M247.51,559.18c-124.49-4.95-147.49-20.8-147.49-20.8"/>
	</g>
	<g>
		<path class="st0" d="M247.51,563.64c124.49-4.95,147.49-20.8,147.49-20.8"/>
		<path class="st0" d="M247.51,563.64c-124.49-4.95-147.49-20.8-147.49-20.8"/>
	</g>
</g>
<g>
	<path class="st1" d="M439.04,65.26c0,0,46.16,54.98,54.35,148.6c0,0-64.03,39.01-86.37,25.63c0,0,1.37-13.62-10.67-34.3
		C396.35,205.2,396.23,131.02,439.04,65.26z"/>
	<path class="st1" d="M55.96,65.26c0,0-46.16,54.98-54.35,148.6c0,0,64.03,39.01,86.37,25.63c0,0-1.37-13.62,10.67-34.3
		C98.65,205.2,98.77,131.02,55.96,65.26z"/>
	<path class="st1" d="M247.5,573.73c125.65-4.95,148.85-20.8,148.85-20.8c-14.4-153.56,0-347.73,0-347.73
		c2.98-84.21,42.69-139.93,42.69-139.93C427.87,46.69,322.76,6.94,322.76,6.94l-0.12,0.01c0,0-30.17,12.45-75.14,12.24l-0.43,0
		c-44.74,0.14-74.72-12.24-74.72-12.24l-0.12-0.01c0,0-105.11,39.75-116.28,58.33c0,0,39.71,55.73,42.69,139.93
		c0,0,14.4,194.17,0,347.73C98.65,552.93,121.85,568.78,247.5,573.73"/>
	<path class="st1" d="M310.72,2l-0.1,0.01c0,0-25.34,9.15-63.12,8.97l-0.36,0c-37.58,0.12-62.76-8.97-62.76-8.97L184.28,2
		l-11.92,4.94c0,0,29.98,12.38,74.72,12.24l0.43,0c44.98,0.21,75.14-12.24,75.14-12.24L310.72,2z"/>
</g>
<path class="NeckAndArmTrim fill" d="M418.73,242.57c-3.45,0.17-6.53-0.66-6.53-0.66c-2.29-0.61-4.03-1.52-5.07-2.13
	c-0.04-1.34-0.13-2.73-0.26-4.17c-0.32-3.39-0.86-6.5-1.5-9.28c2.95,0.15,7.02,0.17,11.81-0.37c4.12-0.46,7.39-1.18,10.39-1.93
	c12.04-3,22.33-7.06,23.03-7.34c17.76-7.07,34.64-16.68,40.97-20.37c0.39,2.73,0.75,5.55,1.07,8.46c0.35,3.21,0.64,6.34,0.86,9.38
	c-10.6,6.16-19.78,10.84-26.69,14.19C466.81,228.33,439.45,241.57,418.73,242.57z"/>
<path class="NeckAndArmTrim fill" d="M76.27,242.67c3.45,0.17,6.53-0.66,6.53-0.66c2.29-0.61,4.03-1.52,5.07-2.13
	c0.04-1.34,0.13-2.73,0.26-4.17c0.32-3.39,0.86-6.5,1.5-9.28c-2.95,0.15-7.02,0.17-11.81-0.37c-4.12-0.46-7.39-1.18-10.39-1.93
	c-12.04-3-22.33-7.06-23.03-7.34c-17.76-7.07-34.64-16.68-40.97-20.37c-0.39,2.73-0.75,5.55-1.07,8.46
	c-0.35,3.21-0.64,6.34-0.86,9.38c10.6,6.16,19.78,10.84,26.69,14.19C28.19,228.43,55.55,241.67,76.27,242.67z"/>
<path class="st1" d="M3.68,196.32c0,0,48.91,31.05,86.06,30.01"/>
<path class="st0" d="M3.14,200.77c0,0,48.91,31.05,86.06,30.01"/>
<path class="st1" d="M491.34,196.32c0,0-48.91,31.05-86.06,30.01"/>
<path class="st0" d="M491.87,200.77c0,0-48.91,31.05-86.06,30.01"/>
</svg>
