<?xml version="1.0" encoding="utf-8"?>
<!-- Generator: Adobe Illustrator 19.1.0, SVG Export Plug-In . SVG Version: 6.00 Build 0)  -->
<svg version="1.1" id="Layer_1" xmlns="http://www.w3.org/2000/svg" xmlns:xlink="http://www.w3.org/1999/xlink" x="0px" y="0px"
	 viewBox="0 0 495 576" style="enable-background:new 0 0 495 576;" xml:space="preserve">
<style type="text/css">
	<![CDATA[
	@font-face{font-family:'codaheavy';src:url('/fonts/coda-heavy-webfont.woff') format('woff')}
	text{font-family:Impact,codaheavy,sans-serif}
	.Colour1.fill{fill:#030719;}
	.Colour2.fill{fill:#09185E;}
	.Colour3.fill{fill:#FFFFFF;}
	.Colour4.fill{fill:#081734;}
	.BottomHem.fill{fill:#0D143A;}
	.NeckAndArmTrim.fill{fill:#030719;}
	.st0{fill:none;stroke:#000000;stroke-width:0.25;stroke-miterlimit:10;}
	.st1{fill:#FFFFFF;stroke:#000000;stroke-width:0.25;stroke-miterlimit:10;}
	.st2{fill:#FFFFFF;}
	.st3{fill:none;stroke:#000000;stroke-width:0.25;stroke-miterlimit:10;stroke-dasharray:2;}
	]]>
</style>
<path class="Colour1 fill" d="M439.06,64.76C427.89,46.17,322.78,6.38,322.78,6.38l-0.31,0.11l0.26,0.14c0,0-3.86,57.68-74.99,57.8
	l-0.22,0c-71.34,0-75.21-57.8-75.21-57.8l0.24-0.13l-0.3-0.12c0,0-105.11,39.79-116.28,58.38c0,0,39.71,55.78,42.69,140.07
	c0,0,14.4,194.36,0,348.06c0,0,23.2,15.87,148.85,20.82c125.65-4.96,148.85-20.82,148.85-20.82c-14.4-153.7,0-348.06,0-348.06
	C399.35,120.54,439.06,64.76,439.06,64.76z"/>
<path class="Colour1 fill" d="M439.04,64.76c0,0,46.16,55.04,54.35,148.75c0,0-64.03,39.05-86.37,25.66c0,0,1.37-13.64-10.67-34.34
	C396.35,204.83,396.23,130.58,439.04,64.76z"/>
<path class="Colour1 fill" d="M55.96,64.76c0,0-46.16,55.04-54.35,148.75c0,0,64.03,39.05,86.37,25.66c0,0-1.37-13.64,10.67-34.34
	C98.65,204.83,98.77,130.58,55.96,64.76z"/>
<path class="st0" d="M247.52,6.38"/>
<g>
	<path class="Colour3 fill" d="M247.52,11.49"/>
</g>
<g>
	<path class="st1" d="M247.52,11.49c39.92,0.19,66.7-9.49,66.7-9.49v9.59c0,0-37.39,8.24-66.7,8.24l-0.29,0
		c-29.27-0.05-66.41-8.24-66.41-8.24V2c0,0,26.61,9.61,66.32,9.49L247.52,11.49z"/>
	<path class="st1" d="M247.52,64.42c-71.34,0-75.21-57.8-75.21-57.8L180.82,2c0,0,9.26,48.8,66.7,48.8l0.32,0
		C305,50.61,314.22,2,314.22,2l8.51,4.63c0,0-3.86,57.68-74.99,57.8L247.52,64.42z"/>
</g>
<path class="st2" d="M247.84,50.79l-0.32,0c-40.43,0-56.99-24.16-63.25-38.48c9.86,2,39.03,7.48,62.96,7.52l0.29,0
	c23.98,0,53.35-5.51,63.25-7.52C304.52,26.59,288.03,50.67,247.84,50.79z"/>
<path class="Colour4 fill" d="M247.52,500.18l-62.28-46.5c0.59-7.27,0.99-14.24,1.21-20.89l61.07,45.6l61.07-45.6
	c0.22,6.65,0.62,13.63,1.21,20.89L247.52,500.18z M247.52,421.09l-64.01-47.79c1.03,7.12,1.87,14.99,2.42,23.6l61.59,45.98
	l61.59-45.98c0.56-8.61,1.4-16.48,2.42-23.6L247.52,421.09z M338.98,295.5l-91.46,68.29l-91.46-68.29c0.56,0.95,1.1,1.9,1.67,2.86
	c0.94,1.21,8.43,11.2,15.58,31.82l74.21,55.41l74.21-55.41c7.15-20.62,14.64-30.61,15.58-31.82
	C337.88,297.39,338.42,296.45,338.98,295.5z M313.56,486.37l-66.04,49.31l-66.04-49.31c-0.93,6.27-2.01,12.74-3.24,19.38
	l69.28,51.73l69.28-51.73C315.57,499.11,314.49,492.64,313.56,486.37z"/>
<path class="Colour2 fill" d="M252.9,71.67c-2.96,0-4.84,0.07-5.38,0.09c-0.55-0.02-2.43-0.09-5.38-0.09c-24.37,0-106.35,4.3-137.92,59.7
	c-5.11,8.97-8.61,18.83-10.54,29.53c2.61,13.54,4.44,28.24,4.99,43.93c0,0,0.76,10.29,1.76,27.99
	c7.81,25.72,20.98,54.21,39.53,85.42l0.27,0.39c0.18,0.23,18.26,23.54,27.18,75c6.36,36.69,8.92,93.88-7.59,173.4
	c2.23,0.29,4.54,0.57,6.93,0.85c16.68-80.69,13.95-138.78,7.39-176.11c-8.96-50.97-26.34-74.69-28.31-77.25
	c-46.72-78.66-58.69-139.12-35.56-179.7c29.71-52.14,108.45-56.19,131.88-56.19c3.3,0,5.2,0.09,5.22,0.09l0.17,0.01l0.16-0.01
	c0.02,0,1.92-0.09,5.22-0.09c23.42,0,102.16,4.05,131.87,56.19c23.13,40.58,11.16,101.04-35.56,179.7
	c-1.97,2.56-19.36,26.28-28.31,77.25c-6.56,37.32-9.29,95.42,7.39,176.11c2.39-0.28,4.7-0.56,6.93-0.85
	c-16.51-79.52-13.95-136.71-7.59-173.4c8.92-51.46,27-74.77,27.18-74.99l0.27-0.39c18.55-31.2,31.72-59.7,39.53-85.42
	c1-17.7,1.76-27.99,1.76-27.99c0.55-15.69,2.38-30.39,4.99-43.92c-1.93-10.7-5.43-20.56-10.54-29.54
	C359.25,75.98,277.27,71.67,252.9,71.67z"/>
<path class="Colour2 fill" d="M146.31,374.64c-11.34-35.25-31.75-54.7-42.51-62.94c0.31,10.51,0.59,21.54,0.8,32.98
	c7.21,8.9,14.91,21.54,20.19,38.75c9.98,32.53,12.31,87.05-24.63,170.28c2.6,1.28,9.03,3.93,22.24,6.95
	c14.25-32.5,23.83-63.11,28.52-91.42C156.75,434.1,155.2,402.28,146.31,374.64z"/>
<path class="Colour2 fill" d="M439.05,64.77c0,0,0.01-0.01,0.01-0.01C427.89,46.17,322.78,6.38,322.78,6.38l-0.31,0.11l0.26,0.14
	c0,0-3.86,57.68-74.99,57.8l-0.22,0c-71.34,0-75.21-57.8-75.21-57.8l0.24-0.13l-0.3-0.12c0,0-105.11,39.79-116.28,58.38h-0.02
	c0,0-46.16,55.04-54.35,148.75c0,0,22.52,13.73,45.51,22.12C65.84,66.85,247.52,73.46,247.52,73.46h0.04
	c0,0,181.66-6.6,200.4,162.14c22.96-8.39,45.43-22.09,45.43-22.09C485.24,120.23,439.47,65.28,439.05,64.77z"/>
<path class="Colour2 fill" d="M348.71,374.79c11.34-35.25,31.75-54.7,42.51-62.94c-0.31,10.51-0.59,21.54-0.8,32.98
	c-7.21,8.9-14.91,21.54-20.19,38.75c-9.98,32.53-12.31,87.05,24.63,170.28c-2.6,1.28-9.03,3.93-22.24,6.95
	c-14.25-32.5-23.83-63.11-28.52-91.42C338.26,434.25,339.81,402.42,348.71,374.79z"/>
<path class="Colour3 fill" d="M316.17,366.17c7.87-45.12,23.77-65.56,23.93-65.76l0.13-0.19c41.78-70.28,52.27-124.69,31.17-161.72
	c-27.19-47.72-98.1-51.43-119.19-51.43c-2.68,0-4.32,0.06-4.7,0.08c-0.38-0.02-2.02-0.08-4.7-0.08c-21.09,0-92,3.71-119.19,51.43
	c-21.1,37.03-10.61,91.44,31.17,161.72l0.14,0.2c0.16,0.2,15.96,20.43,23.87,65.43c6.9,39.28,8.86,105.34-18.65,201.21
	c1.14,0.15,2.3,0.29,3.48,0.43c27.53-96.22,25.54-162.68,18.59-202.25c-7.86-44.73-23.13-65.13-24.5-66.89
	c-41.05-69.08-51.5-122.28-31.08-158.13c26.26-46.09,95.56-49.67,116.17-49.67c2.92,0,4.6,0.08,4.62,0.08l0.08,0l0.08,0
	c0.02,0,1.7-0.08,4.61-0.08c20.61,0,89.9,3.58,116.17,49.67c20.43,35.85,9.97,89.05-31.08,158.13c-1.37,1.76-16.64,22.16-24.5,66.89
	c-6.95,39.56-8.94,106.02,18.59,202.25c1.18-0.14,2.34-0.29,3.48-0.43C307.43,471.38,309.33,405.41,316.17,366.17z"/>
<path class="Colour3 fill" d="M153.63,409.69l-9.21,1.02c0.1,0.96,7.84,83.84-35.88,146.22c2.52,0.81,5.61,1.7,9.38,2.65
	c10.1-15.01,17.4-30.85,22.62-46.04c-2.73,15.83-6.72,32.26-12.43,48.35c2.82,0.58,5.88,1.16,9.22,1.75
	c10.27-29.38,14.8-59.04,16.7-82.4C157.32,440.87,153.79,410.94,153.63,409.69z"/>
<path class="Colour3 fill" d="M341.38,409.84l9.21,1.02c-0.1,0.96-7.84,83.84,35.88,146.22c-2.52,0.81-5.61,1.7-9.38,2.65
	c-10.1-15.01-17.4-30.85-22.62-46.04c2.73,15.83,6.72,32.26,12.43,48.35c-2.82,0.58-5.88,1.16-9.22,1.75
	c-10.27-29.38-14.8-59.04-16.7-82.4C337.69,441.02,341.23,411.09,341.38,409.84z"/>
<g>
	<path class="Colour3 fill" d="M32.86,229.3l-3.43-0.58c6.58-39.01,22.17-71.93,46.32-97.84c19.31-20.72,44.1-37.01,73.68-48.42
		c50.27-19.39,97.68-17.91,98.15-17.9c0.39-0.02,47.79-1.49,98.06,17.89c29.58,11.41,54.37,27.7,73.68,48.41
		c24.15,25.91,39.74,58.82,46.33,97.82l-3.43,0.58c-14.64-86.71-72.1-125.91-117.72-143.53c-49.61-19.16-96.4-17.72-96.86-17.7
		l-0.06,0l-0.11,0c-0.46-0.02-47.26-1.46-96.88,17.71C104.95,103.37,47.49,142.58,32.86,229.3z"/>
</g>
<g id="FBodyLogos"></g>
<path class="NeckAndArmTrim fill" d="M247.52,11.49c39.92,0.19,66.7-9.49,66.7-9.49v9.59c0,0-37.39,8.24-66.7,8.24l-0.29,0
	c-29.27-0.05-66.41-8.24-66.41-8.24V2c0,0,26.61,9.61,66.32,9.49L247.52,11.49z"/>
<path class="NeckAndArmTrim fill" d="M247.52,64.42c-71.34,0-75.21-57.8-75.21-57.8L180.82,2c0,0,9.26,48.8,66.7,48.8l0.32,0
	C305,50.61,314.22,2,314.22,2l8.51,4.63c0,0-3.86,57.68-74.99,57.8L247.52,64.42z"/>
<path class="BottomHem fill" d="M247.53,559.16c124.49-4.96,147.49-20.82,147.49-20.82l1.37,14.84c0,0-34.58,17.88-149.28,20.82
	c0,0-105.7-1.2-148.42-20.82l1.37-14.84C100.04,538.33,123.03,554.2,247.53,559.16"/>
<g>
	<g>
		<path class="st0" d="M395,538.33c0,0-22.99,15.87-147.49,20.82"/>
		<path class="st0" d="M247.52,559.16c-124.49-4.96-147.49-20.82-147.49-20.82"/>
	</g>
	<g>
		<path class="st3" d="M247.52,563.62C372.01,558.66,395,542.79,395,542.79"/>
		<path class="st3" d="M247.52,563.62c-124.49-4.96-147.49-20.82-147.49-20.82"/>
	</g>
</g>
<path class="NeckAndArmTrim fill" d="M418.73,242.24c-3.45,0.17-6.53-0.66-6.53-0.66c-2.29-0.62-4.03-1.52-5.07-2.14
	c-0.04-1.34-0.13-2.73-0.26-4.18c-0.32-3.4-0.86-6.51-1.5-9.29c2.95,0.15,7.02,0.17,11.81-0.37c4.12-0.46,7.39-1.19,10.39-1.94
	c12.04-3,22.33-7.06,23.03-7.34c17.76-7.07,34.64-16.69,40.97-20.39c0.39,2.74,0.75,5.56,1.07,8.46c0.35,3.22,0.64,6.35,0.86,9.38
	c-10.6,6.16-19.78,10.85-26.69,14.2C466.81,227.99,439.45,241.23,418.73,242.24z"/>
<path class="NeckAndArmTrim fill" d="M76.27,242.34c3.45,0.17,6.53-0.66,6.53-0.66c2.29-0.62,4.03-1.52,5.07-2.14
	c0.04-1.34,0.13-2.73,0.26-4.18c0.32-3.4,0.86-6.51,1.5-9.29c-2.95,0.15-7.02,0.17-11.81-0.37c-4.12-0.46-7.39-1.19-10.39-1.94
	c-12.04-3-22.33-7.06-23.03-7.34c-17.76-7.07-34.64-16.69-40.97-20.39c-0.39,2.74-0.75,5.56-1.07,8.46
	c-0.35,3.22-0.64,6.35-0.86,9.38c10.6,6.16,19.78,10.85,26.69,14.2C28.19,228.09,55.55,241.33,76.27,242.34z"/>
<path class="st0" d="M3.67,195.66c0,0,48.91,31.08,86.06,30.04"/>
<path class="st3" d="M3.13,200.12c0,0,48.91,31.08,86.06,30.04"/>
<path class="st0" d="M405.26,225.7c37.15,1.04,86.06-30.04,86.06-30.04"/>
<path class="st3" d="M491.87,200.12c0,0-48.91,31.08-86.06,30.04"/>
<g>
	<path class="st0" d="M314.21,2c0,0-26.78,9.67-66.7,9.49l-0.38,0C207.42,11.61,180.81,2,180.81,2l-8.51,4.63
		c0,0,3.86,57.8,75.21,57.8l0.22,0c71.14-0.12,74.99-57.8,74.99-57.8L314.21,2z M247.83,50.79l-0.32,0
		c-40.43,0-56.99-24.16-63.25-38.48c9.86,2,39.03,7.48,62.96,7.52l0.29,0c23.98,0,53.35-5.52,63.25-7.52
		C304.51,26.59,288.02,50.67,247.83,50.79z"/>
	<g>
		<path class="st0" d="M439.05,64.76c0,0,46.16,55.04,54.35,148.75c0,0-64.03,39.05-86.37,25.66c0,0,1.37-13.64-10.67-34.34
			C396.36,204.83,396.24,130.58,439.05,64.76z"/>
		<path class="st0" d="M55.97,64.76c0,0-46.16,55.04-54.35,148.75c0,0,64.03,39.05,86.37,25.66c0,0-1.37-13.64,10.67-34.34
			C98.66,204.83,98.78,130.58,55.97,64.76z"/>
		<g>
			<path class="st0" d="M439.07,64.76C427.9,46.17,322.79,6.38,322.79,6.38l-0.31,0.11l0.26,0.14c0,0-3.86,57.68-74.99,57.8l-0.22,0
				c-71.34,0-75.21-57.8-75.21-57.8l0.24-0.13l-0.3-0.12c0,0-105.11,39.79-116.28,58.38c0,0,39.71,55.78,42.69,140.07
				c0,0,14.4,194.36,0,348.07c0,0,23.2,15.87,148.85,20.82c125.65-4.96,148.85-20.82,148.85-20.82c-14.4-153.7,0-348.07,0-348.07
				C399.36,120.54,439.07,64.76,439.07,64.76z"/>
		</g>
	</g>
</g>
</svg>
