<?xml version="1.0" encoding="utf-8"?>
<!-- Generator: Adobe Illustrator 19.1.0, SVG Export Plug-In . SVG Version: 6.00 Build 0)  -->
<svg version="1.1" id="Layer_1" xmlns="http://www.w3.org/2000/svg" xmlns:xlink="http://www.w3.org/1999/xlink" x="0px" y="0px"
	 viewBox="0 0 495 576" style="enable-background:new 0 0 495 576;" xml:space="preserve">
<style type="text/css">
	<![CDATA[
	@font-face{font-family:'codaheavy';src:url('/fonts/coda-heavy-webfont.woff') format('woff')}
	text{font-family:Impact,codaheavy,sans-serif}
	.Colour1.fill{fill:#091935;}
	.Colour2.fill{fill:#313D56;}
	.Colour3.fill{fill:#004CAA;}
	.Colour4.fill{fill:#FFFFFF;}
	.Colour5.fill{fill:#F6CD03;}
	.BottomHem.fill{fill:#0D143A;}
	.NeckAndArmTrim.fill{fill:#004CAA;}
	.st0{fill:url(#SVGID_1_);stroke:#000000;stroke-width:0.25;stroke-miterlimit:10;}
	.st1{fill:url(#SVGID_2_);stroke:#000000;stroke-width:0.25;stroke-miterlimit:10;}
	.st2{fill:url(#SVGID_3_);stroke:#000000;stroke-width:0.25;stroke-miterlimit:10;}
	.st3{fill:none;stroke:#000000;stroke-width:0.25;stroke-miterlimit:10;}
	.st4{fill:none;stroke:#000000;stroke-width:0.25;stroke-miterlimit:10;stroke-dasharray:2;}
	.st5{fill:#FFFFFF;stroke:#000000;stroke-width:0.25;stroke-miterlimit:10;}
	.st6{fill:none;stroke:#000000;stroke-width:0.25;stroke-miterlimit:10;stroke-dasharray:2,2;}
	.st7{fill:#FFFFFF;}
	.st8{fill:url(#SVGID_4_);}
	.st9{fill:url(#SVGID_5_);}
	.st10{fill:url(#SVGID_6_);}
	.st11{fill:url(#SVGID_7_);}
	]]>
</style>
<linearGradient id="SVGID_1_" gradientUnits="userSpaceOnUse" x1="55.8945" y1="289.9056" x2="439.1332" y2="289.9056">
	<stop class="Gradient1 stopColor" offset="0" style="stop-color:#313D56"/>
	<stop class="Gradient2 stopColor" offset="0.25" style="stop-color:#004CAA"/>
	<stop class="Gradient2 stopColor" offset="0.5" style="stop-color:#004CAA"/>
	<stop class="Gradient2 stopColor" offset="0.75" style="stop-color:#004CAA"/>
	<stop class="Gradient1 stopColor" offset="1" style="stop-color:#313D56"/>
</linearGradient>
<path class="Colour2 fill" d="M439.13,64.73C427.96,46.14,322.81,6.37,322.81,6.37l-0.31,0.11l0.26,0.14c0,0-3.86,57.65-75.02,57.77l-0.22,0
	c-71.37,0-75.24-57.77-75.24-57.77l0.24-0.13l-0.3-0.12c0,0-105.15,39.77-116.32,58.35c0,0,39.73,55.75,42.71,140
	c0,0,14.4,194.27,0,347.89c0,0,23.21,15.86,148.91,20.81c125.7-4.96,148.91-20.81,148.91-20.81c-14.4-153.63,0-347.89,0-347.89
	C399.41,120.48,439.13,64.73,439.13,64.73z"/>
<linearGradient id="SVGID_2_" gradientUnits="userSpaceOnUse" x1="396.4086" y1="153.2849" x2="493.4908" y2="153.2849">
	<stop class="Gradient1 stopColor" offset="0" style="stop-color:#313D56"/>
	<stop class="Gradient2 stopColor" offset="0.25" style="stop-color:#004CAA"/>
	<stop class="Gradient2 stopColor" offset="0.5" style="stop-color:#004CAA"/>
	<stop class="Gradient2 stopColor" offset="0.75" style="stop-color:#004CAA"/>
	<stop class="Gradient1 stopColor" offset="1" style="stop-color:#313D56"/>
</linearGradient>
<path class="Colour2 fill" d="M439.11,64.73c0,0,46.18,55.01,54.38,148.67c0,0-64.06,39.03-86.41,25.65c0,0,1.37-13.63-10.68-34.32
	C396.41,204.73,396.28,130.52,439.11,64.73z"/>
<linearGradient id="SVGID_3_" gradientUnits="userSpaceOnUse" x1="1.5002" y1="153.2849" x2="98.5823" y2="153.2849">
	<stop class="Gradient1 stopColor" offset="0" style="stop-color:#313D56"/>
	<stop class="Gradient2 stopColor" offset="0.25" style="stop-color:#004CAA"/>
	<stop class="Gradient2 stopColor" offset="0.5" style="stop-color:#004CAA"/>
	<stop class="Gradient2 stopColor" offset="0.75" style="stop-color:#004CAA"/>
	<stop class="Gradient1 stopColor" offset="1" style="stop-color:#313D56"/>
</linearGradient>
<path class="Colour2 fill" d="M55.88,64.73c0,0-46.18,55.01-54.38,148.67c0,0,64.06,39.03,86.41,25.65c0,0-1.37-13.63,10.68-34.32
	C98.58,204.73,98.71,130.52,55.88,64.73z"/>
<path class="Colour1 fill" d="M55.89,64.73h-0.02c0,0-46.18,55.01-54.38,148.67c0,0,64.06,39.03,86.41,25.65c0,0-1.11-11.1,7.52-28.46
	C55.45,107.22,180.78,31.81,180.78,31.81c-7.7-13.11-8.51-25.18-8.51-25.18l0.24-0.13l-0.3-0.12
	C172.22,6.37,67.07,46.14,55.89,64.73z"/>
<path class="Colour1 fill" d="M439.1,64.73h0.02c0,0,46.18,55.01,54.38,148.67c0,0-64.06,39.03-86.41,25.65c0,0,1.11-11.1-7.52-28.46
	c39.97-103.37-85.36-178.78-85.36-178.78c7.7-13.11,8.51-25.18,8.51-25.18l-0.24-0.13l0.3-0.12
	C322.77,6.37,427.92,46.14,439.1,64.73z"/>
<path class="st3" d="M3.57,195.56c0,0,48.93,31.06,86.1,30.03"/>
<path class="st4" d="M3.03,200.02c0,0,48.93,31.06,86.1,30.03"/>
<path class="st3" d="M405.32,225.59c37.17,1.04,86.1-30.03,86.1-30.03"/>
<g id="FBodyLogos"></g>
<path class="NeckAndArmTrim fill" d="M419.24,241.26c-4.7,0-8.59-0.85-11.56-2.53c0.07-1.29,0.13-5.73-1.6-12.55
	c0.35,0.01,0.69,0.01,1.04,0.01c34.14,0,77.58-25.84,83.83-29.67c0.77,5.38,1.41,10.9,1.91,16.57
	C488.78,215.54,445.17,241.26,419.24,241.26z"/>
<path class="NeckAndArmTrim fill" d="M2.09,213.09c0.5-5.66,1.15-11.19,1.91-16.57c6.25,3.83,49.69,29.67,83.83,29.67
	c0.35,0,0.7-0.01,1.04-0.01c-1.73,6.82-1.67,11.26-1.6,12.55c-2.97,1.68-6.85,2.53-11.56,2.53C49.8,241.26,6.18,215.54,2.09,213.09z
	"/>
<path class="st3" d="M247.51,6.37"/>
<g>
	<path class="st5" d="M247.51,11.48"/>
</g>
<g>
	<path class="st5" d="M247.51,11.48C287.45,11.67,314.24,2,314.24,2v9.59c0,0-37.4,8.24-66.73,8.24l-0.29,0
		c-29.28-0.05-66.43-8.24-66.43-8.24V2c0,0,26.62,9.61,66.35,9.48L247.51,11.48z"/>
	<path class="st5" d="M247.51,64.39c-71.37,0-75.24-57.77-75.24-57.77L180.79,2c0,0,9.26,48.77,66.73,48.77l0.32,0
		C305.02,50.59,314.24,2,314.24,2l8.51,4.62c0,0-3.86,57.65-75.02,57.77L247.51,64.39z"/>
</g>
<g>
	<path class="st6" d="M247.51,563.34c-124.55-4.96-147.55-20.81-147.55-20.81"/>
</g>
<path class="st7" d="M247.83,50.77l-0.32,0c-40.44,0-57.01-24.15-63.28-38.46c9.87,2,39.05,7.47,62.98,7.52l0.29,0
	c23.99,0,53.37-5.51,63.28-7.52C304.54,26.58,288.04,50.64,247.83,50.77z"/>
<path class="Colour3 fill" d="M100.55,236.05h293.93c0.55-10.05,1.05-17.98,1.4-23.35H99.15C99.5,218.07,99.99,226,100.55,236.05z"/>
<path class="Colour5 fill" d="M101.74,259.39h291.55c0.41-8.67,0.81-16.5,1.19-23.35H100.55C100.92,242.9,101.33,250.72,101.74,259.39z"/>
<path class="Colour4 fill" d="M98.6,204.73c0,0,0.21,2.8,0.55,7.97h296.73c0.34-5.17,0.55-7.97,0.55-7.97c0.34-9.72,1.18-19.06,2.39-27.99
	H96.21C97.42,185.67,98.26,195,98.6,204.73z"/>
<path class="Colour4 fill" d="M103.21,295.35h288.61c0.46-13.1,0.97-25.18,1.47-35.96H101.74C102.24,270.17,102.75,282.25,103.21,295.35z"/>
<g>
	<path class="st4" d="M3.05,200.3c0,0,48.93,31.06,86.1,30.03"/>
	<path class="st4" d="M491.98,200.3c0,0-48.93,31.06-86.1,30.03"/>
</g>
<path class="NeckAndArmTrim fill" d="M247.51,11.48C287.45,11.67,314.24,2,314.24,2v9.59c0,0-37.4,8.24-66.73,8.24l-0.29,0
	c-29.28-0.05-66.43-8.24-66.43-8.24V2c0,0,26.62,9.61,66.35,9.48L247.51,11.48z"/>
<path class="NeckAndArmTrim fill" d="M247.51,64.39c-71.37,0-75.24-57.77-75.24-57.77L180.79,2c0,0,9.26,48.77,66.73,48.77l0.32,0
	C305.02,50.59,314.24,2,314.24,2l8.51,4.62c0,0-3.86,57.65-75.02,57.77L247.51,64.39z"/>
<path class="st3" d="M314.23,2c0,0-26.79,9.67-66.73,9.48l-0.38,0C207.4,11.61,180.78,2,180.78,2l-8.51,4.62
	c0,0,3.87,57.77,75.24,57.77l0.22,0c71.16-0.12,75.02-57.77,75.02-57.77L314.23,2z M247.83,50.77l-0.32,0
	c-40.44,0-57.01-24.15-63.28-38.46c9.86,2,39.05,7.47,62.98,7.52l0.29,0c23.99,0,53.38-5.51,63.28-7.52
	C304.53,26.58,288.03,50.64,247.83,50.77z"/>
<g>
	<path class="st3" d="M439.12,64.73c0,0,46.18,55.01,54.38,148.67c0,0-64.06,39.03-86.41,25.65c0,0,1.37-13.63-10.68-34.32
		C396.42,204.73,396.29,130.52,439.12,64.73z"/>
	<path class="st3" d="M55.89,64.73c0,0-46.18,55.01-54.38,148.67c0,0,64.06,39.03,86.41,25.65c0,0-1.37-13.63,10.68-34.32
		C98.59,204.73,98.72,130.52,55.89,64.73z"/>
	<g>
		<path class="st3" d="M439.14,64.73C427.97,46.14,322.82,6.37,322.82,6.37l-0.31,0.11l0.26,0.14c0,0-3.86,57.65-75.02,57.77
			l-0.22,0c-71.37,0-75.24-57.77-75.24-57.77l0.24-0.13l-0.3-0.12c0,0-105.15,39.77-116.32,58.35c0,0,39.73,55.75,42.71,140
			c0,0,14.4,194.27,0,347.89c0,0,23.21,15.86,148.91,20.81c125.7-4.96,148.91-20.81,148.91-20.81c-14.4-153.63,0-347.89,0-347.89
			C399.42,120.48,439.14,64.73,439.14,64.73z"/>
	</g>
</g>
<path class="BottomHem fill" d="M247.5,559.16c124.55-4.96,147.55-20.81,147.55-20.81l1.37,14.84c0,0-34.6,17.87-149.34,20.81
	c0,0-105.75-1.2-148.49-20.81l1.37-14.84C99.96,538.35,122.96,554.21,247.5,559.16"/>
<g>
	<path class="st3" d="M395.06,538.07c0,0-23,15.86-147.55,20.81"/>
	<path class="st3" d="M247.51,558.88c-124.55-4.96-147.55-20.81-147.55-20.81"/>
</g>
<g>
	<path class="st4" d="M395.06,542.53c0,0-23,15.86-147.55,20.81"/>
	<path class="st4" d="M247.51,563.34c-124.55-4.96-147.55-20.81-147.55-20.81"/>
</g>
</svg>
