<?xml version="1.0" encoding="utf-8"?>
<!-- Generator: Adobe Illustrator 19.1.0, SVG Export Plug-In . SVG Version: 6.00 Build 0)  -->
<svg version="1.1" id="Layer_1" xmlns="http://www.w3.org/2000/svg" xmlns:xlink="http://www.w3.org/1999/xlink" x="0px" y="0px"
	 viewBox="0 0 495 576" style="enable-background:new 0 0 495 576;" xml:space="preserve">
<style type="text/css">
	<![CDATA[
	@font-face{font-family:'codaheavy';src:url('/fonts/coda-heavy-webfont.woff') format('woff')}
	text{font-family:Impact,codaheavy,sans-serif}
	.Number.fill{fill:#000}
	.NumberOutline.stroke{fill:none;stroke:#777;stroke-width:2.5}
	.Colour1.fill{fill:#091935;}
	.Colour2.fill{fill:#313D56;}
	.Colour3.fill{fill:#004CAA;}
	.Colour4.fill{fill:#FFFFFF;}
	.Colour5.fill{fill:#F6CD03;}
	.BottomHem.fill{fill:#0D143A;}
	.NeckAndArmTrim.fill{fill:#004CAA;}
	.st0{fill:url(#SVGID_1_);stroke:#000000;stroke-width:0.25;stroke-miterlimit:10;}
	.st1{fill:url(#SVGID_2_);stroke:#000000;stroke-width:0.25;stroke-miterlimit:10;}
	.st2{fill:url(#SVGID_3_);stroke:#000000;stroke-width:0.25;stroke-miterlimit:10;}
	.st3{fill:none;stroke:#000000;stroke-width:0.25;stroke-miterlimit:10;}
	.st4{fill:none;stroke:#000000;stroke-width:0.25;stroke-miterlimit:10;stroke-dasharray:2;}
	]]>
</style>
<linearGradient id="SVGID_1_" gradientUnits="userSpaceOnUse" x1="396.4178" y1="154.0555" x2="493.5" y2="154.0555">
	<stop class="Gradient1 stopColor" offset="0" style="stop-color:#313D56"/>
	<stop class="Gradient2 stopColor" offset="0.25" style="stop-color:#004CAA"/>
	<stop class="Gradient2 stopColor" offset="0.5" style="stop-color:#004CAA"/>
	<stop class="Gradient2 stopColor" offset="0.75" style="stop-color:#004CAA"/>
	<stop class="Gradient1 stopColor" offset="1" style="stop-color:#313D56"/>
</linearGradient>
<path class="Colour2 fill" d="M439.12,65.54c0,0,46.18,54.98,54.38,148.6c0,0-64.06,39.01-86.41,25.63c0,0,1.37-13.62-10.68-34.3
	C396.42,205.47,396.29,131.3,439.12,65.54z"/>
<linearGradient id="SVGID_2_" gradientUnits="userSpaceOnUse" x1="1.5091" y1="154.0555" x2="98.5914" y2="154.0555">
	<stop class="Gradient1 stopColor" offset="0" style="stop-color:#313D56"/>
	<stop class="Gradient2 stopColor" offset="0.25" style="stop-color:#004CAA"/>
	<stop class="Gradient2 stopColor" offset="0.5" style="stop-color:#004CAA"/>
	<stop class="Gradient2 stopColor" offset="0.75" style="stop-color:#004CAA"/>
	<stop class="Gradient1 stopColor" offset="1" style="stop-color:#313D56"/>
</linearGradient>
<path class="Colour2 fill" d="M55.89,65.54c0,0-46.18,54.98-54.38,148.6c0,0,64.06,39.01,86.41,25.63c0,0-1.37-13.62,10.68-34.3
	C98.59,205.47,98.72,131.3,55.89,65.54z"/>
<linearGradient id="SVGID_3_" gradientUnits="userSpaceOnUse" x1="55.8851" y1="290.6025" x2="439.124" y2="290.6025">
	<stop class="Gradient1 stopColor" offset="0" style="stop-color:#313D56"/>
	<stop class="Gradient2 stopColor" offset="0.25" style="stop-color:#004CAA"/>
	<stop class="Gradient2 stopColor" offset="0.5" style="stop-color:#004CAA"/>
	<stop class="Gradient2 stopColor" offset="0.75" style="stop-color:#004CAA"/>
	<stop class="Gradient1 stopColor" offset="1" style="stop-color:#313D56"/>
</linearGradient>
<path class="Colour2 fill" d="M247.85,573.99c125.4-4.97,148.57-20.79,148.57-20.79c-14.4-153.55,0-347.72,0-347.72
	c2.98-84.21,42.71-139.93,42.71-139.93C427.95,46.97,322.8,7.22,322.8,7.22l-0.12,0.01c0,0-30.18,12.45-75.17,12.24l-0.43,0
	c-44.76,0.14-74.75-12.24-74.75-12.24l-0.12-0.01c0,0-105.15,39.75-116.32,58.33c0,0,39.73,55.72,42.71,139.93
	c0,0,14.4,194.17,0,347.72c0,0,23.17,15.82,148.59,20.79L247.85,573.99z"/>
<path class="Colour3 fill" d="M100.55,236.05h293.93c0.55-10.05,1.05-17.98,1.4-23.35H99.15C99.5,218.07,99.99,226,100.55,236.05z"/>
<path class="Colour5 fill" d="M101.74,259.39h291.55c0.41-8.67,0.81-16.5,1.19-23.35H100.55C100.92,242.9,101.33,250.72,101.74,259.39z"/>
<path class="Colour4 fill" d="M98.6,204.73c0,0,0.21,2.8,0.55,7.97h296.73c0.34-5.17,0.55-7.97,0.55-7.97c0.34-9.72,1.18-19.06,2.39-27.99
	H96.21C97.42,185.67,98.26,195,98.6,204.73z"/>
<path class="Colour4 fill" d="M103.21,295.35h288.61c0.46-13.1,0.97-25.18,1.47-35.96H101.74C102.24,270.17,102.75,282.25,103.21,295.35z"/>
<path class="st3" d="M3.58,196.31c0,0,48.93,31.05,86.1,30.01"/>
<path class="st3" d="M491.43,196.31c0,0-48.93,31.05-86.1,30.01"/>
<g>
	<path class="st4" d="M395.05,542.82c0,0-23,15.85-147.55,20.8"/>
	<path class="st4" d="M247.5,563.63c-124.55-4.95-147.55-20.8-147.55-20.8"/>
</g>
<path class="Colour1 fill" d="M439.12,65.26h-0.02C427.93,46.69,322.78,6.94,322.78,6.94h-11.3l-47.9,6.9h-34.76l-43.26-6.9l-13.27,0.25
	l0.24-0.13l-0.3-0.12c0,0-105.15,39.75-116.32,58.33h-0.02c0,0-46.18,54.98-54.38,148.6c0,0,64.06,39.01,86.41,25.63
	c0,0-1.11-11.09,7.52-28.45C55.46,107.73,180.79,32.36,180.79,32.36l133.42,0c0,0,125.33,75.37,85.36,178.69
	c8.63,17.36,7.52,28.45,7.52,28.45c22.35,13.37,86.41-25.63,86.41-25.63C485.31,120.24,439.12,65.26,439.12,65.26z"/>
<g id="BBodyLogos"></g>
<path class="NeckAndArmTrim fill" d="M419.26,241.99c-4.7,0-8.59-0.85-11.56-2.53c0.07-1.29,0.13-5.73-1.6-12.55
	c0.35,0.01,0.69,0.01,1.04,0.01c34.14,0,77.58-25.82,83.83-29.65c0.77,5.38,1.41,10.9,1.91,16.56
	C488.8,216.28,445.19,241.99,419.26,241.99z"/>
<path class="NeckAndArmTrim fill" d="M2.11,213.83c0.5-5.66,1.15-11.18,1.91-16.56c6.25,3.83,49.69,29.65,83.83,29.65
	c0.35,0,0.7-0.01,1.04-0.01c-1.73,6.82-1.67,11.26-1.6,12.55c-2.97,1.68-6.85,2.53-11.56,2.53C49.82,241.99,6.2,216.28,2.11,213.83z
	"/>
<g>
	<path class="st4" d="M3.04,200.77c0,0,48.93,31.05,86.1,30.01"/>
	<path class="st4" d="M491.97,200.77c0,0-48.93,31.05-86.1,30.01"/>
</g>
<path class="NeckAndArmTrim fill" d="M310.75,2.28l-0.1,0.01c0,0-25.35,9.15-63.15,8.97l-0.36,0c-37.6,0.12-62.79-8.97-62.79-8.97
	l-0.1-0.01l-11.93,4.94c0,0,29.99,12.38,74.75,12.24l0.43,0c44.99,0.21,75.17-12.24,75.17-12.24L310.75,2.28z"/>
<g>
	<path class="st3" d="M439.11,65.26c0,0,46.18,54.98,54.38,148.6c0,0-64.06,39.01-86.41,25.63c0,0,1.37-13.62-10.68-34.3
		C396.41,205.19,396.28,131.02,439.11,65.26z"/>
	<path class="st3" d="M55.88,65.26c0,0-46.18,54.98-54.38,148.6c0,0,64.06,39.01,86.41,25.63c0,0-1.37-13.62,10.68-34.3
		C98.58,205.19,98.71,131.02,55.88,65.26z"/>
	<path class="st3" d="M247.5,573.72c125.7-4.95,148.91-20.8,148.91-20.8c-14.4-153.55,0-347.72,0-347.72
		c2.98-84.21,42.71-139.93,42.71-139.93C427.94,46.69,322.79,6.94,322.79,6.94l-0.12,0.01c0,0-30.18,12.45-75.17,12.24l-0.43,0
		c-44.76,0.14-74.75-12.24-74.75-12.24l-0.12-0.01c0,0-105.15,39.75-116.32,58.33c0,0,39.73,55.72,42.71,139.93
		c0,0,14.4,194.17,0,347.72C98.58,552.91,121.8,568.77,247.5,573.72"/>
	<path class="st3" d="M310.74,2l-0.1,0.01c0,0-25.35,9.15-63.15,8.97l-0.36,0c-37.6,0.12-62.79-8.97-62.79-8.97L184.25,2
		l-11.93,4.94c0,0,29.99,12.38,74.75,12.24l0.43,0c44.99,0.21,75.17-12.24,75.17-12.24L310.74,2z"/>
</g>
<path class="BottomHem fill" d="M247.5,559.17c124.55-4.95,147.55-20.8,147.55-20.8l1.37,14.83c0,0-34.6,17.86-149.34,20.8
	c0,0-105.75-1.2-148.49-20.8l1.37-14.83C99.96,538.37,122.96,554.22,247.5,559.17"/>
<g>
	<path class="st3" d="M395.05,538.37c0,0-23,15.85-147.55,20.8"/>
	<path class="st3" d="M247.5,559.17c-124.55-4.95-147.55-20.8-147.55-20.8"/>
</g>
<g>
	<path class="st4" d="M247.5,563.63c-124.55-4.95-147.55-20.8-147.55-20.8"/>
</g>
</svg>
