<?xml version="1.0" encoding="utf-8"?>
<!-- Generator: Adobe Illustrator 19.1.0, SVG Export Plug-In . SVG Version: 6.00 Build 0)  -->
<svg version="1.1" id="Layer_1" xmlns="http://www.w3.org/2000/svg" xmlns:xlink="http://www.w3.org/1999/xlink" x="0px" y="0px"
	 viewBox="0 0 495 576" style="enable-background:new 0 0 495 576;" xml:space="preserve">
<style type="text/css">
	<![CDATA[
	@font-face{font-family:'codaheavy';src:url('/fonts/coda-heavy-webfont.woff') format('woff')}
	text{font-family:Impact,codaheavy,sans-serif}
	.Colour1.fill{fill:#1090CC;}
	.Colour2.fill{fill:#0F152F;}
	.NeckAndArmTrim.fill{fill:#004CAA;}
	.BottomHem.fill{fill:#0D143A;}
	.st0{fill:#FFFFFF;stroke:#000000;stroke-width:0.25;stroke-miterlimit:10;}
	.st1{fill:none;stroke:#000000;stroke-width:0.25;stroke-miterlimit:10;stroke-dasharray:2;}
	.st2{fill:#FFFFFF;}
	.st3{fill:none;stroke:#000000;stroke-width:0.25;stroke-miterlimit:10;}
	]]>
</style>
<path class="Colour2 fill" d="M438.61,64.76c0,0,46.13,55.04,54.31,148.75c0,0-63.99,39.05-86.31,25.66c0,0,1.36-13.64-10.66-34.34
	C395.96,204.83,395.83,130.58,438.61,64.76z"/>
<path class="Colour2 fill" d="M55.81,64.76c0,0-46.13,55.04-54.31,148.75c0,0,63.99,39.05,86.31,25.66c0,0-1.36-13.64,10.66-34.34
	C98.47,204.83,98.59,130.58,55.81,64.76z"/>
<path class="Colour2 fill" d="M438.63,64.76C427.47,46.17,322.44,6.38,322.44,6.38l-0.31,0.11l0.26,0.14c0,0-3.85,57.68-74.94,57.8
	l-0.22,0c-71.29,0-75.15-57.8-75.15-57.8l0.24-0.13l-0.3-0.12c0,0-105.03,39.79-116.19,58.38c0,0,39.68,55.78,42.66,140.07
	c0,0,14.39,194.37,0,348.07c0,0,23.19,15.87,148.74,20.82c125.55-4.96,148.74-20.82,148.74-20.82c-14.39-153.71,0-348.07,0-348.07
	C398.95,120.54,438.63,64.76,438.63,64.76z"/>
<g>
	<path class="st0" d="M247.23,11.49C287.12,11.68,313.88,2,313.88,2v9.59c0,0-37.36,8.24-66.65,8.24l-0.29,0
		c-29.25-0.05-66.36-8.24-66.36-8.24V2c0,0,26.59,9.61,66.27,9.49L247.23,11.49z"/>
	<path class="st0" d="M247.23,64.43c-71.29,0-75.15-57.8-75.15-57.8l8.5-4.63c0,0,9.25,48.8,66.65,48.8l0.32,0
		C304.67,50.61,313.88,2,313.88,2l8.5,4.63c0,0-3.85,57.68-74.94,57.8L247.23,64.43z"/>
</g>
<g>
	<path class="st1" d="M394.61,542.81c0,0-22.98,15.87-147.38,20.82"/>
	<path class="st1" d="M247.23,563.63c-124.4-4.96-147.38-20.82-147.38-20.82"/>
</g>
<path class="NeckAndArmTrim fill" d="M247.23,31.55"/>
<path class="Colour2 fill" d="M59.32,116.75L29.66,228.39C13.89,221.07,1.5,213.51,1.5,213.51c4.6-52.72,21.22-93.2,34.87-118.52
	L59.32,116.75z M435.68,116.75l29.66,111.65c15.77-7.33,28.16-14.88,28.16-14.88c-4.6-52.72-21.22-93.2-34.87-118.52L435.68,116.75z
	"/>
<path class="Colour1 fill" d="M308.17,413.1c0.16-4.46,0.36-8.87,0.58-13.24l81.07-40.64c-0.06,4.29-0.11,8.63-0.14,13.02L308.17,413.1z
	 M307.61,452.14l82.03-41.11c-0.03-4.33-0.05-8.64-0.05-12.92l-81.98,41.09C307.58,443.47,307.58,447.79,307.61,452.14z
	 M389.58,391.67c0.01-4.36,0.02-8.68,0.05-12.97l-81.66,40.93c-0.12,4.32-0.22,8.68-0.28,13.08L389.58,391.67z M389.85,430.3
	c-0.07-4.3-0.12-8.59-0.16-12.86l-82,41.1c0.06,4.24,0.15,8.51,0.26,12.81L389.85,430.3z M391.21,300.39l-77.2,38.7
	c-0.56,4.51-1.07,9.1-1.57,13.73l78.36-39.28C390.93,309.06,391.07,304.67,391.21,300.39z M390.22,449.49
	c-0.1-4.28-0.19-8.55-0.27-12.81l-81.82,41.01c0.14,4.2,0.31,8.42,0.51,12.69L390.22,449.49z M314.96,564.74l78.73-39.47
	c-0.29-4.16-0.57-8.34-0.83-12.53l-79.33,39.76C313.98,556.56,314.46,560.64,314.96,564.74z M389.92,352.74
	c0.07-4.41,0.15-8.77,0.24-13.06l-80.16,40.18c-0.33,4.41-0.62,8.88-0.88,13.39L389.92,352.74z M390.29,333.17
	c0.1-4.44,0.21-8.81,0.33-13.11l-78.88,39.54c-0.44,4.46-0.84,8.98-1.21,13.55L390.29,333.17z M394.15,531.48l-75.13,37.66
	c14-1.46,25.57-3.05,35.1-4.65l41.03-20.56C394.79,539.8,394.46,535.65,394.15,531.48z M287.37,571.85
	c-0.11,0.01-0.21,0.01-0.32,0.02C287.16,571.87,287.27,571.86,287.37,571.85z M317.93,311.3l74.28-37.23
	c0.19-4.6,0.39-9.01,0.59-13.24l-72.5,36.34C319.48,301.8,318.69,306.52,317.93,311.3z M302.38,570.7c0.27-0.02,0.55-0.04,0.82-0.07
	l0.01,0C302.93,570.65,302.65,570.68,302.38,570.7z M297.74,571.08c0.36-0.03,0.71-0.06,1.07-0.09
	C298.45,571.02,298.1,571.05,297.74,571.08z M314.89,332.2l76.55-38.37c0.16-4.53,0.33-8.93,0.5-13.19l-75.1,37.64
	C316.16,322.85,315.51,327.5,314.89,332.2z M391.54,487.59c-0.19-4.22-0.37-8.45-0.53-12.68l-80.86,40.53
	c0.3,4.12,0.62,8.27,0.98,12.45L391.54,487.59z M390.78,468.59c-0.15-4.25-0.28-8.5-0.39-12.75l-81.42,40.81
	c0.22,4.16,0.48,8.35,0.76,12.57L390.78,468.59z M391.83,493.88l-80.14,40.17c0.37,4.09,0.77,8.2,1.2,12.34l79.61-39.9
	C392.26,502.3,392.04,498.09,391.83,493.88z M185.45,413.1c-0.16-4.46-0.36-8.87-0.58-13.24l-81.07-40.64
	c0.06,4.29,0.11,8.63,0.14,13.02L185.45,413.1z M186.01,439.2l-81.98-41.09c-0.01,4.28-0.02,8.59-0.05,12.92l82.03,41.11
	C186.04,447.79,186.04,443.47,186.01,439.2z M185.93,432.72c-0.06-4.4-0.16-8.76-0.28-13.08l-81.66-40.93
	c0.03,4.29,0.04,8.61,0.05,12.97L185.93,432.72z M185.67,471.35c0.12-4.31,0.2-8.58,0.26-12.81l-82-41.1
	c-0.04,4.27-0.09,8.56-0.16,12.86L185.67,471.35z M102.82,313.54l78.36,39.28c-0.49-4.63-1.01-9.22-1.57-13.73l-77.2-38.7
	C102.55,304.67,102.68,309.06,102.82,313.54z M184.97,490.38c0.2-4.26,0.37-8.49,0.51-12.69l-81.82-41.01
	c-0.08,4.26-0.17,8.53-0.27,12.81L184.97,490.38z M180.08,552.5l-79.33-39.76c-0.26,4.19-0.53,8.37-0.83,12.53l78.73,39.47
	C179.15,560.64,179.63,556.56,180.08,552.5z M184.51,393.25c-0.26-4.51-0.55-8.98-0.88-13.39l-80.16-40.18
	c0.09,4.3,0.17,8.65,0.24,13.06L184.51,393.25z M183.09,373.15c-0.37-4.57-0.77-9.09-1.21-13.55L103,320.07
	c0.12,4.29,0.22,8.66,0.33,13.11L183.09,373.15z M98.47,543.93l41.03,20.56c9.53,1.6,21.1,3.19,35.1,4.65l-75.13-37.66
	C99.16,535.65,98.82,539.8,98.47,543.93z M206.56,571.88c-0.11-0.01-0.21-0.01-0.32-0.02C206.35,571.86,206.45,571.87,206.56,571.88
	z M173.32,297.17l-72.5-36.34c0.2,4.22,0.39,8.64,0.59,13.24l74.28,37.23C174.93,306.52,174.14,301.8,173.32,297.17z M190.41,570.63
	L190.41,570.63c0.27,0.03,0.55,0.05,0.82,0.07C190.96,570.68,190.69,570.65,190.41,570.63z M194.8,571
	c0.36,0.03,0.71,0.06,1.07,0.09C195.52,571.05,195.16,571.02,194.8,571z M176.77,318.28l-75.1-37.64c0.17,4.26,0.34,8.67,0.5,13.19
	l76.55,38.37C178.1,327.5,177.46,322.85,176.77,318.28z M182.49,527.9c0.36-4.18,0.68-8.33,0.98-12.45l-80.86-40.53
	c-0.16,4.23-0.33,8.46-0.53,12.68L182.49,527.9z M183.89,509.22c0.28-4.22,0.53-8.41,0.76-12.57l-81.42-40.81
	c-0.12,4.25-0.25,8.5-0.39,12.75L183.89,509.22z M101.12,506.49l79.61,39.9c0.43-4.14,0.83-8.25,1.2-12.34l-80.14-40.17
	C101.58,498.09,101.35,502.3,101.12,506.49z M173.54,290.33c0,0,26.42,122.13,6.22,279.25c5.57,0.55,11.5,1.08,17.82,1.57
	C205.49,515.67,213.42,403.38,173.54,290.33z M321.54,290.33C281.67,403.35,289.58,515.6,297.5,571.1
	c6.32-0.5,12.26-1.03,17.82-1.58C295.13,412.43,321.54,290.33,321.54,290.33z M172.92,219.29c38.74,69.36,43.45,171.2,43.45,171.2
	c4.63-178.19-94.97-288.18-94.97-288.18l125.83-62.26l0-8.5l-140.82,69.67c16.78,23.72,38.81,84.66,38.81,84.66L172.92,219.29z
	 M321.54,219.29c-38.74,69.36-43.45,171.2-43.45,171.2c-4.63-178.19,94.97-288.18,94.97-288.18L247.23,40.05l0-8.5l140.82,69.67
	c-16.78,23.72-38.81,84.66-38.81,84.66L321.54,219.29z M187.82,166.4c0.26,2.26,0.42,4.55,0.76,6.79c0.37,2.24,0.61,4.48,1.14,6.68
	l0.7,3.31l0.86,3.27l0.43,1.63l0.53,1.6l1.05,3.19c0.85,2.08,1.53,4.21,2.51,6.22c0.47,1.01,0.89,2.05,1.4,3.04l1.54,2.96
	c0.5,0.99,1.12,1.92,1.67,2.89l0.83,1.44l0.91,1.4c0.62,0.92,1.19,1.88,1.85,2.77l1.96,2.69c1.38,1.74,2.75,3.48,4.25,5.12l1.1,1.25
	l1.14,1.21c0.77,0.8,1.51,1.62,2.32,2.38c1.57,1.56,3.22,3.04,4.89,4.5l2.56,2.11l2.64,2.02c1.79,1.3,3.6,2.59,5.45,3.81
	c1.86,1.2,3.74,2.38,5.67,3.46c1.92,1.1,3.89,2.12,5.88,3.07c1.96,0.94,4.06,1.86,5.97,2.54l-0.94-0.16l0.35,0l-0.94,0.16
	c1.9-0.68,4-1.6,5.97-2.54c1.99-0.95,3.95-1.97,5.88-3.07c1.93-1.08,3.81-2.25,5.67-3.46c0.93-0.6,1.83-1.25,2.75-1.87l2.7-1.94
	l2.64-2.02l2.56-2.11c1.67-1.45,3.32-2.93,4.89-4.49c0.81-0.76,1.56-1.58,2.32-2.38l1.14-1.21l1.09-1.25
	c1.5-1.63,2.87-3.38,4.25-5.12l1.96-2.69c0.66-0.89,1.23-1.85,1.85-2.77l0.91-1.4l0.83-1.44c0.54-0.97,1.16-1.9,1.66-2.89l1.54-2.96
	c0.52-0.99,0.93-2.02,1.41-3.04c0.98-2.01,1.67-4.14,2.51-6.22l1.05-3.19l0.53-1.6l0.43-1.63l0.87-3.27l0.7-3.31
	c0.53-2.2,0.78-4.45,1.15-6.69c0.34-2.25,0.5-4.51,0.76-6.78c0.03,2.27,0.17,4.56,0.11,6.85c-0.12,2.28-0.13,4.59-0.43,6.87
	c-0.12,1.14-0.23,2.29-0.37,3.43l-0.59,3.41l-0.3,1.71l-0.39,1.69l-0.79,3.38c-0.7,2.2-1.28,4.46-2.14,6.61
	c-0.42,1.08-0.78,2.19-1.24,3.26l-1.4,3.2c-0.46,1.07-1.02,2.09-1.55,3.13l-0.8,1.55l-0.88,1.51c-0.6,1-1.15,2.03-1.79,3l-1.92,2.93
	c-1.36,1.9-2.71,3.81-4.2,5.61c-0.72,0.93-1.48,1.81-2.27,2.67c-0.78,0.87-1.54,1.76-2.37,2.58c-1.61,1.7-3.3,3.31-5.02,4.9
	l-2.64,2.31l-2.72,2.22c-1.84,1.44-3.74,2.81-5.68,4.11c-1.95,1.29-3.92,2.55-5.95,3.71c-2.02,1.18-4.09,2.28-6.2,3.31
	c-2.14,1.04-4.2,1.99-6.57,2.86l-0.43,0.16l-0.51,0l-0.35,0l-0.52,0l-0.42-0.15c-2.38-0.88-4.44-1.82-6.57-2.86
	c-2.11-1.03-4.18-2.13-6.2-3.31c-2.03-1.16-4-2.42-5.95-3.71c-0.97-0.65-1.92-1.33-2.88-2c-0.95-0.69-1.86-1.41-2.8-2.12l-2.72-2.22
	l-2.64-2.31c-1.72-1.58-3.41-3.2-5.02-4.9c-0.83-0.82-1.59-1.71-2.37-2.58l-1.17-1.31l-1.1-1.36c-1.49-1.8-2.85-3.71-4.2-5.61
	L200.4,216c-0.64-0.97-1.19-2.01-1.8-3l-0.88-1.51l-0.8-1.55c-0.52-1.04-1.08-2.06-1.54-3.13l-1.4-3.2
	c-0.46-1.07-0.83-2.17-1.24-3.26c-0.86-2.16-1.45-4.41-2.14-6.61l-0.8-3.38l-0.39-1.69l-0.3-1.71l-0.59-3.4
	c-0.15-1.14-0.25-2.29-0.37-3.43c-0.3-2.27-0.32-4.59-0.43-6.87C187.65,170.96,187.79,168.69,187.82,166.4z M247.31,259.39
	c0,0,1.93-0.61,5.23-1.82c1.65-0.61,3.65-1.37,5.92-2.28c2.28-0.9,4.81-2,7.56-3.2c2.74-1.23,5.68-2.62,8.75-4.16
	c3.08-1.53,6.24-3.29,9.49-5.14c1.62-0.93,3.23-1.94,4.87-2.95c0.8-0.53,1.61-1.06,2.42-1.59c0.82-0.52,1.63-1.06,2.43-1.63
	c0.8-0.56,1.61-1.12,2.42-1.68c0.8-0.57,1.58-1.18,2.37-1.77c1.6-1.17,3.11-2.45,4.64-3.71c1.55-1.24,2.97-2.61,4.46-3.91
	c1.39-1.39,2.83-2.73,4.15-4.16c1.28-1.46,2.65-2.83,3.82-4.33c0.6-0.74,1.2-1.47,1.8-2.2c0.59-0.73,1.1-1.51,1.65-2.26
	c0.54-0.75,1.07-1.5,1.6-2.24c0.48-0.77,0.96-1.53,1.43-2.29c0.46-0.76,0.97-1.49,1.38-2.25c0.41-0.77,0.81-1.53,1.21-2.28
	c0.39-0.76,0.82-1.48,1.15-2.23c0.33-0.76,0.66-1.5,0.98-2.23c0.33-0.73,0.65-1.45,0.97-2.16c0.26-0.73,0.51-1.44,0.76-2.14
	c1.09-2.78,1.7-5.44,2.37-7.79c0.48-2.38,0.9-4.47,1.2-6.2c0.42-3.5,0.66-5.49,0.66-5.49s0.03,2.01,0.03,5.56
	c-0.11,1.76-0.29,3.92-0.58,6.38c-0.46,2.43-0.85,5.23-1.78,8.15c-0.21,0.74-0.42,1.49-0.63,2.26c-0.27,0.75-0.55,1.51-0.84,2.29
	c-0.29,0.78-0.59,1.57-0.89,2.37c-0.31,0.8-0.72,1.57-1.08,2.37c-0.37,0.8-0.76,1.61-1.14,2.43c-0.39,0.82-0.88,1.59-1.32,2.41
	c-0.46,0.81-0.92,1.62-1.39,2.44c-0.52,0.79-1.05,1.58-1.59,2.38c-0.55,0.79-1.05,1.62-1.65,2.4c-0.6,0.77-1.2,1.56-1.8,2.34
	c-1.16,1.61-2.55,3.06-3.88,4.58c-1.35,1.5-2.83,2.9-4.26,4.36c-1.52,1.35-2.99,2.8-4.57,4.09c-1.59,1.29-3.16,2.6-4.82,3.78
	c-0.82,0.6-1.62,1.22-2.46,1.8c-0.84,0.57-1.67,1.14-2.5,1.7c-3.32,2.26-6.75,4.22-10.1,6.05c-3.35,1.82-6.68,3.42-9.87,4.81
	c-3.18,1.43-6.26,2.62-9.11,3.66c-5.71,2.08-10.59,3.45-14.02,4.29C249.3,259.06,247.31,259.39,247.31,259.39z M161.12,175.31
	c0,0,0.24,2,0.66,5.51c0.3,1.74,0.72,3.82,1.2,6.19c0.67,2.34,1.29,5.01,2.37,7.79c0.25,0.7,0.5,1.41,0.76,2.14
	c0.32,0.71,0.64,1.42,0.97,2.16c0.32,0.73,0.65,1.48,0.98,2.23c0.33,0.75,0.77,1.48,1.15,2.23c0.4,0.75,0.8,1.51,1.21,2.28
	c0.41,0.77,0.92,1.49,1.38,2.25c0.47,0.76,0.95,1.52,1.43,2.29c0.53,0.74,1.06,1.49,1.6,2.24c0.55,0.74,1.06,1.53,1.65,2.26
	c0.6,0.73,1.2,1.46,1.8,2.2c1.17,1.51,2.55,2.87,3.82,4.33c1.32,1.43,2.76,2.77,4.15,4.16c1.49,1.29,2.91,2.67,4.46,3.91
	c1.53,1.26,3.04,2.55,4.64,3.71c0.79,0.59,1.56,1.21,2.37,1.77c0.81,0.56,1.61,1.12,2.42,1.68c0.8,0.57,1.61,1.11,2.43,1.62
	c0.81,0.53,1.62,1.06,2.42,1.59c1.64,1,3.24,2.02,4.86,2.95c1.62,0.93,3.22,1.84,4.81,2.68c1.57,0.88,3.14,1.68,4.68,2.45
	c3.07,1.54,6.01,2.93,8.75,4.16c2.75,1.2,5.29,2.3,7.56,3.2c2.27,0.91,4.27,1.67,5.92,2.28c3.31,1.21,5.23,1.82,5.23,1.82
	s-1.99-0.33-5.43-1.16c-3.44-0.84-8.31-2.21-14.03-4.29c-1.43-0.52-2.91-1.09-4.44-1.68c-1.51-0.63-3.09-1.25-4.68-1.98
	c-3.2-1.4-6.52-3-9.87-4.81c-3.35-1.83-6.78-3.79-10.1-6.05c-0.83-0.57-1.66-1.13-2.5-1.7c-0.83-0.58-1.63-1.2-2.46-1.8
	c-1.66-1.18-3.23-2.49-4.82-3.78c-1.59-1.29-3.05-2.73-4.57-4.09c-1.43-1.46-2.91-2.86-4.26-4.36c-1.33-1.52-2.71-2.97-3.88-4.58
	c-0.6-0.79-1.2-1.57-1.8-2.34c-0.59-0.78-1.1-1.61-1.65-2.4c-0.53-0.8-1.06-1.59-1.59-2.38c-0.47-0.82-0.93-1.64-1.39-2.44
	c-0.44-0.81-0.93-1.59-1.32-2.41c-0.38-0.82-0.77-1.63-1.14-2.43c-0.36-0.8-0.77-1.57-1.08-2.37c-0.3-0.8-0.6-1.59-0.89-2.37
	c-0.29-0.78-0.57-1.54-0.84-2.29c-0.22-0.77-0.43-1.52-0.63-2.26c-0.93-2.93-1.32-5.72-1.78-8.15c-0.29-2.47-0.47-4.63-0.58-6.39
	C161.11,177.32,161.12,175.31,161.12,175.31z M146.52,50.8L71.9,94.11c-8.66-18.64-16.07-29.07-16.07-29.07
	c7.81-13.01,61.53-36.38,93.12-49.25L146.52,50.8z M59.32,116.75L36.37,94.99c10.62-19.69,19.44-30.23,19.44-30.23
	c8.55,13.15,15.38,26.63,20.84,39.8L59.32,116.75z M346.05,15.79c31.59,12.88,85.31,36.25,93.12,49.25c0,0-7.41,10.43-16.07,29.07
	L348.48,50.8L346.05,15.79z M418.35,104.56c5.46-13.16,12.29-26.65,20.84-39.8c0,0,8.83,10.53,19.44,30.23l-22.95,21.76
	L418.35,104.56z M319.19,293.45l0.64-3.44c20.86-111.64,58.94-177.06,65.72-188.08L247.23,33.49l-138.32,68.44
	c6.78,11.02,44.86,76.45,65.72,188.08l0.64,3.44l-74.68-37.42l1.56-3.1l68.42,34.29c-22.86-119.31-65.17-184.38-65.6-185.03
	l-1.08-1.64l143.35-70.92l143.35,70.92l-1.08,1.64c-0.43,0.65-42.74,65.72-65.6,185.03l68.42-34.3l1.56,3.1L319.19,293.45z"/>
<path class="st2" d="M247.55,50.8l-0.32,0c-40.4,0-56.94-24.16-63.2-38.48c9.86,2,39.01,7.48,62.91,7.52l0.29,0
	c23.96,0,53.31-5.51,63.2-7.52C304.19,26.59,287.71,50.67,247.55,50.8z"/>
<path class="NeckAndArmTrim fill" d="M247.23,11.49C287.12,11.68,313.88,2,313.88,2v9.59c0,0-37.36,8.24-66.65,8.24l-0.29,0
	c-29.25-0.05-66.36-8.24-66.36-8.24V2c0,0,26.59,9.61,66.27,9.49L247.23,11.49z"/>
<path class="NeckAndArmTrim fill" d="M247.23,64.43c-71.29,0-75.15-57.8-75.15-57.8l8.5-4.63c0,0,9.25,48.8,66.65,48.8l0.32,0
	C304.67,50.61,313.88,2,313.88,2l8.5,4.63c0,0-3.85,57.68-74.94,57.8L247.23,64.43z"/>
<g>
	<path class="st3" d="M394.61,538.34c0,0-22.98,15.87-147.38,20.82"/>
	<path class="st3" d="M247.23,559.17c-124.4-4.96-147.38-20.82-147.38-20.82"/>
</g>
<g>
	<path class="st1" d="M247.23,563.63c124.4-4.96,147.38-20.82,147.38-20.82"/>
	<path class="st1" d="M247.23,563.63c-124.4-4.96-147.38-20.82-147.38-20.82"/>
</g>
<g>
	<path class="st3" d="M3.58,195.94c0,0,48.88,31.08,86,30.04"/>
	<path class="st1" d="M3.05,200.41c0,0,48.88,31.08,86,30.04"/>
	<path class="st3" d="M490.88,195.94c0,0-48.88,31.08-86,30.04"/>
	<path class="st1" d="M491.42,200.41c0,0-48.88,31.08-86,30.04"/>
</g>
<g>
	<path class="st3" d="M313.87,2c0,0-26.76,9.68-66.65,9.49l-0.38,0C207.16,11.61,180.57,2,180.57,2l-8.5,4.63
		c0,0,3.86,57.8,75.15,57.8l0.22,0c71.08-0.12,74.94-57.8,74.94-57.8L313.87,2z M247.54,50.8l-0.32,0
		c-40.4,0-56.94-24.16-63.2-38.48c9.85,2,39,7.48,62.91,7.52l0.29,0c23.96,0,53.32-5.52,63.2-7.52
		C304.18,26.59,287.71,50.67,247.54,50.8z"/>
	<g>
		<path class="st3" d="M438.62,64.76c0,0,46.13,55.04,54.31,148.75c0,0-63.99,39.05-86.31,25.66c0,0,1.36-13.64-10.66-34.34
			C395.96,204.83,395.84,130.58,438.62,64.76z"/>
		<path class="st3" d="M55.82,64.76c0,0-46.13,55.04-54.31,148.75c0,0,63.99,39.05,86.31,25.66c0,0-1.36-13.64,10.66-34.34
			C98.48,204.83,98.6,130.58,55.82,64.76z"/>
		<g>
			<path class="st3" d="M438.64,64.76C427.48,46.17,322.45,6.38,322.45,6.38l-0.31,0.11l0.26,0.14c0,0-3.85,57.68-74.94,57.8
				l-0.22,0c-71.29,0-75.15-57.8-75.15-57.8l0.24-0.13l-0.3-0.12c0,0-105.03,39.79-116.19,58.38c0,0,39.68,55.78,42.66,140.07
				c0,0,14.39,194.37,0,348.07c0,0,23.19,15.87,148.74,20.82c125.55-4.96,148.74-20.82,148.74-20.82
				c-14.39-153.71,0-348.07,0-348.07C398.96,120.54,438.64,64.76,438.64,64.76z"/>
		</g>
	</g>
</g>
<path class="NeckAndArmTrim fill" d="M418.79,241.67c-4.7,0-8.58-0.85-11.54-2.53c0.07-1.29,0.13-5.73-1.6-12.56
	c0.35,0.01,0.69,0.01,1.04,0.01c34.1,0,77.49-25.85,83.74-29.68c0.76,5.38,1.41,10.91,1.91,16.58
	C488.25,215.93,444.69,241.67,418.79,241.67z"/>
<path class="NeckAndArmTrim fill" d="M2.12,213.48c0.5-5.67,1.15-11.19,1.91-16.58c6.24,3.83,49.63,29.68,83.74,29.68
	c0.35,0,0.7-0.01,1.04-0.01c-1.73,6.83-1.67,11.27-1.6,12.56c-2.96,1.68-6.84,2.53-11.54,2.53C49.77,241.67,6.21,215.93,2.12,213.48
	z"/>
<path class="BottomHem fill" d="M247.5,559.16c124.55-4.96,147.55-20.81,147.55-20.81l1.37,14.84c0,0-34.6,17.87-149.34,20.81
	c0,0-105.75-1.2-148.49-20.81l1.37-14.84C99.96,538.35,122.96,554.21,247.5,559.16"/>
<g id="FBodyLogos"></g>
</svg>
