<?xml version="1.0" encoding="utf-8"?>
<!-- Generator: Adobe Illustrator 19.1.0, SVG Export Plug-In . SVG Version: 6.00 Build 0)  -->
<svg version="1.1" id="Layer_1" xmlns="http://www.w3.org/2000/svg" xmlns:xlink="http://www.w3.org/1999/xlink" x="0px" y="0px"
	 viewBox="0 0 495 576" style="enable-background:new 0 0 495 576;" xml:space="preserve">
<style type="text/css">
	<![CDATA[
	@font-face{font-family:'codaheavy';src:url('/fonts/coda-heavy-webfont.woff') format('woff')}
	text{font-family:Impact,codaheavy,sans-serif}
	.Number.fill{fill:#000}
	.NumberOutline.stroke{fill:none;stroke:#777;stroke-width:2.5}
	.Colour1.fill{fill:#1090CC;}
	.Colour2.fill{fill:#0F152F;}
	.NeckAndArmTrim.fill{fill:#004CAA;}
	.st0{fill:none;stroke:#000000;stroke-width:0.25;stroke-miterlimit:10;stroke-dasharray:2;}
	.st1{fill:none;stroke:#000000;stroke-width:0.25;stroke-miterlimit:10;}
	]]>
</style>
<path class="Colour2 fill" d="M438.9,65.54c0,0,46.13,54.98,54.31,148.6c0,0-63.99,39.01-86.31,25.63c0,0,1.36-13.62-10.66-34.3
	C396.24,205.48,396.12,131.3,438.9,65.54z"/>
<path class="Colour2 fill" d="M56.1,65.54c0,0-46.13,54.98-54.31,148.6c0,0,63.99,39.01,86.31,25.63c0,0-1.36-13.62,10.66-34.3
	C98.76,205.48,98.88,131.3,56.1,65.54z"/>
<path class="Colour2 fill" d="M247.84,574c125.25-4.97,148.4-20.79,148.4-20.79c-14.39-153.56,0-347.73,0-347.73
	c2.98-84.21,42.66-139.93,42.66-139.93C427.74,46.97,322.71,7.22,322.71,7.22l-0.12,0.01c0,0-30.15,12.45-75.09,12.24l-0.43,0
	c-44.71,0.14-74.66-12.24-74.66-12.24l-0.12-0.01c0,0-105.03,39.75-116.19,58.33c0,0,39.68,55.73,42.66,139.93
	c0,0,14.39,194.17,0,347.73c0,0,23.15,15.82,148.42,20.79L247.84,574z"/>
<g>
	<path class="st0" d="M394.88,542.84c0,0-22.98,15.85-147.38,20.8"/>
	<path class="st0" d="M247.5,563.64c-124.4-4.95-147.38-20.8-147.38-20.8"/>
</g>
<path class="Colour2 fill" d="M59.32,117.2L29.66,228.73C13.89,221.42,1.5,213.87,1.5,213.87c4.6-52.67,21.22-93.11,34.87-118.41
	L59.32,117.2z M435.68,117.2l29.66,111.54c15.77-7.32,28.16-14.87,28.16-14.87c-4.6-52.67-21.22-93.11-34.87-118.41L435.68,117.2z"
	/>
<path class="NeckAndArmTrim fill" d="M310.68,2.28l-0.1,0.01c0,0-25.32,9.15-63.07,8.97l-0.36,0c-37.55,0.12-62.72-8.97-62.72-8.97
	l-0.1-0.01l-11.91,4.94c0,0,29.95,12.38,74.66,12.24l0.43,0c44.94,0.21,75.09-12.24,75.09-12.24L310.68,2.28z"/>
<path class="Colour1 fill" d="M308.6,413.25c0.16-4.46,0.36-8.86,0.58-13.22l80.67-40.6c-0.06,4.29-0.11,8.62-0.14,13L308.6,413.25z
	 M308.04,452.26l81.62-41.07c-0.03-4.33-0.05-8.63-0.05-12.91l-81.57,41.05C308,443.6,308.01,447.91,308.04,452.26z M389.61,391.85
	c0.01-4.35,0.02-8.67,0.05-12.95l-81.26,40.89c-0.12,4.32-0.22,8.67-0.28,13.07L389.61,391.85z M389.87,430.44
	c-0.07-4.3-0.12-8.59-0.16-12.85l-81.6,41.06c0.06,4.23,0.14,8.5,0.26,12.8L389.87,430.44z M391.23,300.66l-76.83,38.66
	c-0.55,4.51-1.07,9.09-1.56,13.72l77.98-39.24C390.95,309.32,391.09,304.94,391.23,300.66z M390.25,449.61
	c-0.1-4.27-0.19-8.54-0.27-12.79l-81.42,40.97c0.14,4.19,0.31,8.42,0.51,12.67L390.25,449.61z M315.35,564.75l78.35-39.43
	c-0.29-4.16-0.57-8.33-0.82-12.52l-78.94,39.72C314.38,556.57,314.86,560.65,315.35,564.75z M389.94,352.96
	c0.07-4.41,0.15-8.76,0.23-13.05l-79.77,40.14c-0.33,4.41-0.61,8.87-0.88,13.37L389.94,352.96z M390.32,333.41
	c0.1-4.44,0.21-8.81,0.32-13.09l-78.5,39.5c-0.44,4.45-0.83,8.98-1.2,13.54L390.32,333.41z M394.15,531.52l-74.76,37.62
	c13.93-1.46,25.44-3.05,34.93-4.64l40.83-20.54C394.8,539.84,394.46,535.69,394.15,531.52z M287.9,571.86
	c-0.1,0.01-0.21,0.01-0.32,0.02C287.69,571.87,287.8,571.86,287.9,571.86z M318.31,311.56l73.92-37.19
	c0.19-4.59,0.39-9.01,0.58-13.22l-72.14,36.3C319.84,302.07,319.06,306.78,318.31,311.56z M302.83,570.7
	c0.27-0.02,0.55-0.04,0.81-0.07l0.01,0C303.38,570.66,303.11,570.68,302.83,570.7z M299.28,571c-0.36,0.03-0.71,0.06-1.07,0.09
	C298.58,571.06,298.93,571.03,299.28,571z M315.29,332.44l76.17-38.33c0.16-4.52,0.33-8.92,0.5-13.18l-74.73,37.6
	C316.54,323.1,315.9,327.74,315.29,332.44z M391.55,487.68c-0.19-4.22-0.36-8.44-0.52-12.67l-80.47,40.49
	c0.3,4.12,0.62,8.26,0.98,12.44L391.55,487.68z M390.8,468.69c-0.15-4.25-0.28-8.49-0.39-12.73l-81.02,40.77
	c0.22,4.15,0.47,8.34,0.75,12.55L390.8,468.69z M391.85,493.96l-79.75,40.13c0.37,4.08,0.77,8.19,1.2,12.33l79.22-39.86
	C392.28,502.37,392.05,498.17,391.85,493.96z M186.47,413.25c-0.16-4.46-0.36-8.86-0.58-13.22l-80.67-40.6
	c0.06,4.29,0.11,8.62,0.14,13L186.47,413.25z M187.03,439.33l-81.57-41.05c-0.01,4.28-0.02,8.58-0.05,12.91l81.62,41.07
	C187.06,447.91,187.06,443.6,187.03,439.33z M186.95,432.86c-0.06-4.4-0.16-8.76-0.28-13.07l-81.26-40.89
	c0.03,4.28,0.04,8.6,0.05,12.95L186.95,432.86z M186.69,471.45c0.12-4.3,0.2-8.57,0.26-12.8l-81.6-41.06
	c-0.04,4.27-0.09,8.55-0.16,12.85L186.69,471.45z M104.24,313.79l77.98,39.24c-0.49-4.63-1.01-9.21-1.56-13.72l-76.83-38.66
	C103.98,304.94,104.11,309.32,104.24,313.79z M186,490.46c0.2-4.26,0.37-8.48,0.51-12.67l-81.42-40.97
	c-0.08,4.25-0.17,8.52-0.27,12.79L186,490.46z M181.13,552.53l-78.94-39.72c-0.26,4.19-0.53,8.36-0.82,12.52l78.35,39.43
	C180.21,560.65,180.69,556.57,181.13,552.53z M185.54,393.42c-0.26-4.5-0.55-8.97-0.88-13.37l-79.77-40.14
	c0.09,4.29,0.17,8.64,0.23,13.05L185.54,393.42z M184.13,373.35c-0.37-4.56-0.77-9.08-1.2-13.54l-78.5-39.5
	c0.12,4.29,0.22,8.66,0.32,13.09L184.13,373.35z M99.92,543.96l40.83,20.54c9.49,1.6,21,3.19,34.93,4.64l-74.76-37.62
	C100.6,535.69,100.27,539.84,99.92,543.96z M207.17,571.86c0.1,0.01,0.21,0.01,0.32,0.02C207.38,571.87,207.27,571.86,207.17,571.86
	z M174.4,297.44l-72.14-36.3c0.2,4.22,0.39,8.63,0.58,13.22l73.92,37.19C176,306.78,175.22,302.07,174.4,297.44z M191.42,570.63
	L191.42,570.63c0.27,0.03,0.55,0.05,0.82,0.07C191.96,570.68,191.69,570.66,191.42,570.63z M196.85,571.08
	c-0.36-0.03-0.71-0.06-1.07-0.09C196.14,571.03,196.49,571.06,196.85,571.08z M177.84,318.54l-74.73-37.6
	c0.17,4.26,0.34,8.66,0.5,13.18l76.17,38.33C179.16,327.74,178.52,323.1,177.84,318.54z M183.53,527.94
	c0.35-4.18,0.68-8.32,0.98-12.44l-80.47-40.49c-0.16,4.23-0.33,8.45-0.52,12.67L183.53,527.94z M184.92,509.28
	c0.28-4.21,0.53-8.4,0.75-12.55l-81.02-40.77c-0.12,4.24-0.25,8.49-0.39,12.73L184.92,509.28z M102.55,506.56l79.22,39.86
	c0.43-4.14,0.82-8.25,1.2-12.33l-79.75-40.13C103.01,498.17,102.79,502.37,102.55,506.56z M173.54,290.61
	c0,0,26.42,122.01,6.22,278.97c5.57,0.55,11.5,1.07,17.82,1.57C205.49,515.72,213.42,403.55,173.54,290.61z M321.54,290.61
	c-39.86,112.91-31.96,225.05-24.04,280.49c6.32-0.5,12.26-1.03,17.82-1.58C295.13,412.59,321.54,290.61,321.54,290.61z
	 M76.65,105.02C71.19,91.87,64.36,78.4,55.81,65.26c0,0-8.83,10.52-19.44,30.2l22.95,21.74L76.65,105.02z M418.35,105.02
	c5.46-13.15,12.29-26.62,20.84-39.76c0,0,8.83,10.52,19.44,30.2l-22.95,21.74L418.35,105.02z M319.19,293.72l0.64-3.43
	c20.86-111.53,58.94-176.89,65.72-187.9L247.23,30.15l-138.32,72.24c6.78,11.01,44.86,76.37,65.72,187.9l0.64,3.43l-74.68-37.39
	l1.56-3.1l68.42,34.25c-22.86-119.19-65.17-184.2-65.6-184.84l-1.08-1.64l143.35-70.85l143.35,70.85l-1.08,1.64
	c-0.43,0.65-42.74,65.65-65.6,184.84l68.42-34.26l1.56,3.1L319.19,293.72z M388.05,101.69l-17.14,30.44
	C342.37,92.36,247.23,30.15,247.23,30.15L388.05,101.69z M247.23,30.15c0,0-95.14,62.21-123.67,101.97l-17.14-30.44L247.23,30.15z"
	/>
<g>
	<path class="st1" d="M394.88,538.38c0,0-22.98,15.85-147.38,20.8"/>
	<path class="st1" d="M247.5,559.18c-124.4-4.95-147.38-20.8-147.38-20.8"/>
</g>
<g>
	<path class="st0" d="M247.5,563.64c124.4-4.95,147.38-20.8,147.38-20.8"/>
	<path class="st0" d="M247.5,563.64c-124.4-4.95-147.38-20.8-147.38-20.8"/>
</g>
<g>
	<path class="st1" d="M3.85,196.32c0,0,48.88,31.05,86,30.01"/>
	<path class="st0" d="M3.31,200.77c0,0,48.88,31.05,86,30.01"/>
	<path class="st1" d="M491.15,196.32c0,0-48.88,31.05-86,30.01"/>
	<path class="st0" d="M491.69,200.77c0,0-48.88,31.05-86,30.01"/>
</g>
<g>
	<path class="st1" d="M438.89,65.26c0,0,46.13,54.98,54.31,148.6c0,0-63.99,39.01-86.31,25.63c0,0,1.36-13.62-10.66-34.3
		C396.23,205.2,396.11,131.02,438.89,65.26z"/>
	<path class="st1" d="M56.09,65.26c0,0-46.13,54.98-54.31,148.6c0,0,63.99,39.01,86.31,25.63c0,0-1.36-13.62,10.66-34.3
		C98.75,205.2,98.87,131.02,56.09,65.26z"/>
	<path class="st1" d="M247.49,573.73c125.55-4.95,148.74-20.8,148.74-20.8c-14.39-153.56,0-347.73,0-347.73
		c2.98-84.21,42.66-139.93,42.66-139.93C427.73,46.69,322.7,6.94,322.7,6.94l-0.12,0.01c0,0-30.15,12.45-75.09,12.24l-0.43,0
		C202.36,19.33,172.4,6.94,172.4,6.94l-0.12-0.01c0,0-105.03,39.75-116.19,58.33c0,0,39.68,55.73,42.66,139.93
		c0,0,14.39,194.17,0,347.73C98.75,552.93,121.94,568.78,247.49,573.73"/>
	<path class="st1" d="M310.67,2l-0.1,0.01c0,0-25.32,9.15-63.07,8.97l-0.36,0c-37.55,0.12-62.72-8.97-62.72-8.97L184.32,2
		L172.4,6.94c0,0,29.95,12.38,74.66,12.24l0.43,0c44.94,0.21,75.09-12.24,75.09-12.24L310.67,2z"/>
</g>
<path class="NeckAndArmTrim fill" d="M419.06,242c-4.7,0-8.58-0.85-11.54-2.53c0.07-1.29,0.13-5.73-1.6-12.55
	c0.35,0.01,0.69,0.01,1.04,0.01c34.1,0,77.49-25.82,83.74-29.65c0.76,5.38,1.41,10.9,1.91,16.56
	C488.52,216.29,444.96,242,419.06,242z"/>
<path class="NeckAndArmTrim fill" d="M2.39,213.84c0.5-5.66,1.15-11.18,1.91-16.56c6.24,3.83,49.63,29.65,83.74,29.65
	c0.35,0,0.7-0.01,1.04-0.01c-1.73,6.82-1.67,11.26-1.6,12.55c-2.96,1.68-6.84,2.53-11.54,2.53C50.04,242,6.48,216.29,2.39,213.84z"
	/>
<g id="BBodyLogos"></g>
</svg>
