<?xml version="1.0" encoding="utf-8"?>
<!-- Generator: Adobe Illustrator 19.1.0, SVG Export Plug-In . SVG Version: 6.00 Build 0)  -->
<svg version="1.1" id="Layer_1" xmlns="http://www.w3.org/2000/svg" xmlns:xlink="http://www.w3.org/1999/xlink" x="0px" y="0px"
	 viewBox="0 0 495 576" style="enable-background:new 0 0 495 576;" xml:space="preserve">
<style type="text/css">
	<![CDATA[
	@font-face{font-family:'codaheavy';src:url('/fonts/coda-heavy-webfont.woff') format('woff')}
	text{font-family:Impact,codaheavy,sans-serif}
	.Colour1.fill{fill:#000000;}
	.Colour2.fill{fill:#898989;}
	.Colour3.fill{fill:#FFFFFF;}
	.Colour4.fill{fill:#333333;}
	.BottomHem.fill{fill:#898989;}
	.NeckAndArmTrim.fill{fill:#898989;}
	.st0{fill:none;stroke:#000000;stroke-width:0.25;stroke-miterlimit:10;}
	.st1{fill:none;stroke:#000000;stroke-width:0.25;stroke-miterlimit:10;stroke-dasharray:2;}
	.st2{fill:#FFFFFF;stroke:#000000;stroke-width:0.25;stroke-miterlimit:10;}
	.st3{fill:#FFFFFF;}
	]]>
</style>
<path class="Colour1 fill" d="M439.11,64.76c0,0,46.18,55.04,54.37,148.75c0,0-64.06,39.05-86.4,25.66c0,0,1.37-13.64-10.68-34.34
	C396.4,204.83,396.28,130.58,439.11,64.76z"/>
<path class="Colour1 fill" d="M55.87,64.76c0,0-46.18,55.04-54.37,148.75c0,0,64.06,39.05,86.4,25.66c0,0-1.37-13.64,10.68-34.34
	C98.58,204.83,98.7,130.58,55.87,64.76z"/>
<path class="NeckAndArmTrim fill" d="M419.23,241.38c-4.7,0-8.59-0.85-11.56-2.53c0.07-1.29,0.13-5.73-1.6-12.56
	c0.35,0.01,0.69,0.01,1.04,0.01c34.14,0,77.58-25.85,83.83-29.68c0.77,5.38,1.41,10.91,1.91,16.58
	C488.77,215.65,445.16,241.38,419.23,241.38z"/>
<path class="NeckAndArmTrim fill" d="M2.09,213.2C2.59,207.53,3.24,202,4,196.62c6.25,3.83,49.69,29.68,83.83,29.68
	c0.35,0,0.7-0.01,1.04-0.01c-1.73,6.83-1.67,11.27-1.6,12.56c-2.97,1.68-6.85,2.53-11.56,2.53C49.8,241.38,6.18,215.65,2.09,213.2z"
	/>
<path class="Colour1 fill" d="M439.13,64.76C427.95,46.17,322.8,6.38,322.8,6.38l-0.31,0.11l0.26,0.14c0,0-3.86,57.68-75.02,57.8l-0.22,0
	c-71.37,0-75.24-57.8-75.24-57.8l0.24-0.13l-0.3-0.12c0,0-105.15,39.79-116.32,58.38c0,0,39.73,55.78,42.71,140.07
	c0,0,14.4,194.36,0,348.06c0,0,23.21,15.87,148.91,20.82c125.7-4.96,148.91-20.82,148.91-20.82c-14.4-153.7,0-348.06,0-348.06
	C399.4,120.54,439.13,64.76,439.13,64.76z"/>
<path class="st0" d="M3.57,195.66c0,0,48.93,31.08,86.1,30.04"/>
<path class="st1" d="M3.03,200.12c0,0,48.93,31.08,86.1,30.04"/>
<path class="st0" d="M405.32,225.7c37.16,1.04,86.1-30.04,86.1-30.04"/>
<path class="st1" d="M491.95,200.12c0,0-48.93,31.08-86.1,30.04"/>
<path class="st0" d="M247.51,6.38"/>
<g>
	<path class="st2" d="M247.51,11.49"/>
</g>
<g>
	<path class="st2" d="M247.51,11.49C287.45,11.67,314.24,2,314.24,2v9.59c0,0-37.4,8.24-66.73,8.24l-0.29,0
		c-29.28-0.05-66.43-8.24-66.43-8.24V2c0,0,26.62,9.61,66.35,9.49L247.51,11.49z"/>
	<path class="st2" d="M247.51,64.42c-71.37,0-75.24-57.8-75.24-57.8L180.78,2c0,0,9.26,48.8,66.73,48.8l0.32,0
		C305.01,50.61,314.24,2,314.24,2l8.51,4.63c0,0-3.86,57.68-75.02,57.8L247.51,64.42z"/>
</g>
<g>
	<path class="Colour1 fill" d="M247.51,559.16c124.54-4.96,147.54-20.82,147.54-20.82l1.37,14.84c0,0-34.6,17.88-149.34,20.82
		c0,0-105.75-1.2-148.48-20.82l1.37-14.84C99.97,538.33,122.97,554.2,247.51,559.16"/>
</g>
<path class="Colour4 fill" d="M317.86,166.19l76.35,76.23c-0.04,0.77-0.08,1.54-0.12,2.33l-78.69-78.57L427.18,54.59
	c0.5,0.33,0.99,0.66,1.47,0.98L317.86,166.19z M84.92,127.03L198.13,13.99c-0.69-0.14-1.36-0.29-2.02-0.44L84.31,125.18
	C84.51,125.8,84.71,126.41,84.92,127.03z M383.45,166.19l14.91,14.89c0.08-0.7,0.17-1.4,0.26-2.09c0-0.03,0.01-0.06,0.01-0.09
	l-12.73-12.71l18.49-18.46c0,0,0,0,0-0.01c0.26-1.09,0.53-2.17,0.8-3.24c0-0.01,0-0.01,0.01-0.02L383.45,166.19z M392.41,281.48
	c0.03-0.79,0.06-1.58,0.09-2.36l-113.1-112.93L404.12,41.67c-0.11-0.06-0.22-0.11-0.33-0.17c-0.43-0.22-0.87-0.44-1.3-0.65
	L276.95,166.19L392.41,281.48z M395.69,216.82c0.01-0.12,0.02-0.23,0.02-0.36c0.04-0.68,0.08-1.33,0.13-1.95l-48.4-48.32
	l78.85-78.73c0.44-0.87,0.86-1.72,1.29-2.54c0.02-0.05,0.05-0.09,0.07-0.14c0.41-0.81,0.82-1.59,1.22-2.35l-83.89,83.76
	L395.69,216.82z M349.43,166.19l46.54,46.47c0.04-0.59,0.08-1.13,0.11-1.66c0.01-0.22,0.03-0.43,0.04-0.64l-44.23-44.17l70.38-70.27
	c0.01-0.01,0.01-0.03,0.02-0.04c0.35-0.76,0.7-1.52,1.04-2.25c0.01-0.03,0.03-0.06,0.04-0.09c0.35-0.75,0.7-1.48,1.04-2.2
	c0-0.01,0.01-0.01,0.01-0.02L349.43,166.19z M397.51,189.09c0.07-0.75,0.14-1.49,0.22-2.24l-20.69-20.66l30.56-30.51v0
	c0.34-1.17,0.68-2.33,1.02-3.48l-34.04,33.99L397.51,189.09z M399.51,39.39l-127,126.81l119.73,119.55
	c0.03-0.79,0.06-1.58,0.09-2.36L274.97,166.19l126.19-126c-0.01,0-0.02-0.01-0.02-0.01C400.6,39.92,400.05,39.65,399.51,39.39z
	 M390.63,445.12c-0.01-0.54-0.02-1.07-0.03-1.61c-0.01-0.3-0.01-0.6-0.02-0.9L113.74,166.19L261.59,18.57l-0.01,0
	c-0.85,0.05-1.71,0.09-2.58,0.13l-147.72,147.5L390.63,445.12z M390.43,351.87c0.01-0.81,0.03-1.61,0.04-2.41L206.93,166.19
	L354.18,19.17c-0.58-0.24-1.16-0.48-1.74-0.72L204.47,166.19L390.43,351.87z M218.8,17.33c-0.39-0.05-0.79-0.09-1.18-0.14
	L89.98,144.63c0.05,0.18,0.09,0.36,0.13,0.54c0.12,0.47,0.24,0.95,0.35,1.43L219.82,17.45C219.47,17.41,219.14,17.37,218.8,17.33z
	 M91.69,151.78c0.15,0.67,0.3,1.33,0.45,2L227.93,18.21c-0.76-0.06-1.52-0.12-2.27-0.19L91.69,151.78z M340.55,166.19l54.88,54.8
	c0.01-0.1,0.01-0.19,0.02-0.29c0.04-0.7,0.08-1.37,0.13-2.02l-52.57-52.49l88.19-88.06c1.21-2.17,2.32-4.09,3.3-5.74
	c0-0.01,0.01-0.02,0.01-0.02L340.55,166.19z M221.63,17.64c-0.01,0-0.01,0-0.02,0L90.86,148.19c0.16,0.66,0.31,1.32,0.47,1.99
	L223.84,17.86C223.09,17.79,222.36,17.71,221.63,17.64z M174.88,166.19L390.12,381.1c0-0.81,0.01-1.61,0.01-2.42
	c0-0.01,0-0.02,0-0.02L177.34,166.19L333.13,10.65c-0.59-0.23-1.16-0.46-1.7-0.67c-0.02-0.01-0.04-0.02-0.06-0.02L174.88,166.19z
	 M145.3,166.19l244.84,244.46c0-0.47-0.01-0.94-0.01-1.41c0-0.35-0.01-0.71-0.01-1.06L147.76,166.19L301.1,13.09
	c-1.02,0.23-2.07,0.47-3.16,0.7L145.3,166.19z M390.15,376.7c0.01-0.81,0.01-1.63,0.02-2.44L181.78,166.19L336.31,11.9
	c-0.02-0.01-0.03-0.01-0.05-0.02c-0.58-0.23-1.15-0.46-1.7-0.67c0,0-0.01,0-0.01-0.01L179.32,166.19L390.15,376.7z M390.1,385.51
	c0-0.67,0.01-1.34,0.01-2.01c0-0.15,0-0.29,0-0.44l-217.2-216.87L329.95,9.39c-0.29-0.11-0.56-0.22-0.83-0.32
	c-0.04-0.01-0.07-0.03-0.11-0.04c-0.28-0.11-0.56-0.22-0.83-0.32L170.45,166.19L390.1,385.51z M310.97,166.19l82.91,82.78
	c0.04-0.75,0.08-1.5,0.11-2.24c0-0.03,0-0.06,0.01-0.1l-80.57-80.44L425.99,53.81c-0.12-0.07-0.24-0.15-0.35-0.22
	c-0.38-0.24-0.76-0.48-1.15-0.73L310.97,166.19z M72.98,96.13l83.35-83.22c-0.64,0.26-1.3,0.52-1.98,0.79
	c-0.02,0.01-0.04,0.01-0.06,0.02c-0.63,0.25-1.28,0.52-1.94,0.78c-0.05,0.02-0.1,0.04-0.15,0.06l-80,79.88
	c0.24,0.51,0.47,1.03,0.71,1.55C72.94,96.04,72.96,96.08,72.98,96.13z M73.59,97.49c0.03,0.06,0.05,0.12,0.08,0.17
	c0.22,0.5,0.45,1,0.68,1.52c0,0,0,0.01,0,0.01l89.33-89.2c-0.03,0.01-0.07,0.03-0.1,0.04c-0.55,0.22-1.13,0.44-1.72,0.68
	c-0.08,0.03-0.16,0.06-0.24,0.09c-0.64,0.25-1.31,0.52-2,0.79L73.59,97.49z M102.41,166.19l288.44,288c0-0.11-0.01-0.23-0.01-0.34
	c-0.02-0.73-0.04-1.45-0.06-2.18L104.86,166.19L252.39,18.89h0c-0.82,0.01-1.65,0.02-2.47,0.02h0L102.41,166.19z M106.84,166.19
	l283.89,283.46c0-0.01,0-0.02,0-0.03c-0.02-0.83-0.04-1.66-0.06-2.48L109.3,166.19L256.94,18.77h0c-0.84,0.03-1.68,0.05-2.53,0.07
	l0,0L106.84,166.19z M391.61,477.28L97.07,183.52c0.1,0.91,0.2,1.81,0.3,2.73c0,0.01,0,0.02,0,0.03l294.34,293.57
	C391.67,478.99,391.64,478.13,391.61,477.28z M112.63,31.42c-1.51,0.68-3.02,1.37-4.52,2.06l-44.37,44.3
	c0.03,0.05,0.05,0.1,0.08,0.14c0.26,0.47,0.52,0.94,0.79,1.43c0,0,0,0,0,0.01L112.63,31.42z M104.74,433.53
	c-0.01,0.76-0.03,1.53-0.04,2.29l138.2,137.99c0.61,0.03,1.23,0.05,1.85,0.08c0.24,0.01,0.48,0.02,0.72,0.03L104.75,433.4
	C104.75,433.45,104.75,433.49,104.74,433.53z M60.5,72.16c0.28,0.47,0.57,0.95,0.87,1.46c0.02,0.03,0.03,0.05,0.05,0.08l34.5-34.45
	c0,0-0.01,0-0.01,0.01c-1.64,0.8-3.25,1.6-4.85,2.4c-0.01,0-0.01,0.01-0.02,0.01L60.5,72.16z M104.41,35.2
	c-1.56,0.73-3.11,1.46-4.65,2.2c-0.01,0-0.01,0.01-0.02,0.01L62.14,74.95c0.29,0.5,0.58,1.01,0.88,1.54c0,0.01,0.01,0.01,0.01,0.02
	L104.41,35.2z M215.8,166.19L360.43,21.79c-0.04-0.02-0.08-0.03-0.12-0.05c-0.54-0.23-1.08-0.46-1.61-0.68L213.34,166.19
	l177.24,176.97c0.01-0.35,0.01-0.69,0.02-1.04c0.01-0.43,0.02-0.86,0.02-1.29c0-0.02,0-0.05,0-0.07L215.8,166.19z M384.09,32.13
	c-0.56-0.26-1.13-0.51-1.69-0.77L247.36,166.19l144.05,143.83c0.02-0.65,0.04-1.31,0.06-1.96c0-0.14,0.01-0.28,0.01-0.42
	L249.82,166.19L384.09,32.13z M357.31,20.47c-0.58-0.24-1.16-0.48-1.73-0.72L208.91,166.19l181.6,181.32
	c0.01-0.44,0.02-0.88,0.02-1.33c0.01-0.36,0.01-0.72,0.02-1.08L211.36,166.19L357.31,20.47z M245.38,166.19L381.03,30.75
	c-0.01-0.01-0.03-0.01-0.04-0.02c-0.55-0.25-1.09-0.49-1.64-0.74c0,0-0.01,0-0.01-0.01l-136.41,136.2l148.35,148.13
	c0.02-0.8,0.05-1.59,0.07-2.38L245.38,166.19z M392.58,277.22c0.03-0.79,0.07-1.58,0.1-2.36L283.84,166.19L407.06,43.16
	c-0.54-0.28-1.08-0.55-1.63-0.83L281.38,166.19L392.58,277.22z M308.99,166.19L423.25,52.11c-0.5-0.3-1.01-0.61-1.53-0.92
	c0,0,0,0-0.01,0L306.53,166.19l87.13,87c0.04-0.79,0.08-1.57,0.12-2.34L308.99,166.19z M390.21,419.59
	c-0.01-0.81-0.02-1.61-0.02-2.42c0-0.02,0-0.04,0-0.06l-251.3-250.92L289.97,15.34c-0.97,0.17-1.95,0.34-2.96,0.5L136.43,166.19
	L390.21,419.59z M240.95,166.19L377.97,29.38c-0.02-0.01-0.04-0.02-0.06-0.03c-0.54-0.24-1.09-0.48-1.63-0.72c0,0-0.01,0-0.01,0
	L238.49,166.19l152.67,152.44c0-0.04,0-0.08,0-0.13c0.01-0.35,0.02-0.69,0.03-1.04c0.01-0.41,0.02-0.81,0.03-1.22L240.95,166.19z
	 M390.17,415.12c0-0.48-0.01-0.97-0.01-1.45c0-0.34-0.01-0.68-0.01-1.02L143.32,166.19L295.44,14.31c-0.99,0.2-2.01,0.4-3.05,0.59
	l-151.53,151.3L390.17,415.12z M397.91,185.06c0.03-0.31,0.07-0.62,0.1-0.93c0.05-0.43,0.09-0.86,0.14-1.28l-16.68-16.66l24.43-24.4
	c0.3-1.13,0.6-2.25,0.91-3.36l-27.8,27.76L397.91,185.06z M103.12,291.47c0.03,0.84,0.06,1.69,0.09,2.55l268.02,267.26
	c0.69-0.15,1.35-0.3,2-0.45L103.12,291.47z M103.28,296.06c0.03,0.72,0.05,1.44,0.08,2.17c0,0.12,0.01,0.25,0.01,0.37l264.21,263.46
	c0.69-0.14,1.37-0.29,2.03-0.43L103.28,296.06z M102.05,265.29c0.04,0.85,0.08,1.71,0.11,2.57l288.69,287.88
	c0.65-0.25,1.24-0.48,1.76-0.7L102.05,265.29z M101.84,260.65c0.01,0.12,0.01,0.24,0.02,0.36c0.03,0.58,0.05,1.16,0.08,1.74
	c0.01,0.16,0.01,0.31,0.02,0.47L394,554.46c0.72-0.33,1.26-0.6,1.65-0.8L101.84,260.65z M104.4,335.58
	c0.01,0.47,0.02,0.94,0.03,1.41c0.01,0.29,0.01,0.58,0.02,0.87c0,0.07,0,0.15,0,0.22l229.99,229.32c0.74-0.09,1.46-0.19,2.18-0.28
	L104.4,335.58z M103.44,300.65c0,0.13,0.01,0.26,0.01,0.4c0.02,0.71,0.05,1.42,0.07,2.14L363.88,562.8c0.7-0.14,1.38-0.27,2.05-0.41
	L103.44,300.65z M101.62,256c0.01,0.17,0.02,0.33,0.02,0.5c0.03,0.61,0.06,1.22,0.09,1.84c0,0.08,0.01,0.16,0.01,0.24l294.67,293.86
	c-0.08-0.9-0.17-1.8-0.25-2.7L101.62,256z M104.3,331.05c0.02,0.83,0.04,1.67,0.06,2.51L338.37,566.9c0.73-0.1,1.45-0.2,2.17-0.29
	L104.3,331.05z M104.85,361.13c0.01,0.59,0.01,1.18,0.02,1.76c0,0.24,0.01,0.48,0.01,0.72l206.89,206.27
	c0.76-0.07,1.5-0.14,2.24-0.22L104.85,361.13z M104.19,326.51c0,0.12,0.01,0.25,0.01,0.37c0.02,0.71,0.04,1.43,0.05,2.15
	l238.03,237.33c0.72-0.1,1.45-0.2,2.15-0.31L104.19,326.51z M97.58,188.46C97.58,188.46,97.58,188.46,97.58,188.46
	c0.08,0.89,0.16,1.77,0.24,2.66c0,0.01,0,0.02,0,0.03L391.9,484.46c-0.04-0.85-0.07-1.71-0.11-2.56L97.58,188.46z M99.94,224.79
	c0.05,0.85,0.1,1.71,0.15,2.61l293.77,292.98c-0.06-0.87-0.11-1.75-0.17-2.62L99.94,224.79z M98,193.31c0,0.01,0,0.01,0,0.02
	c0.07,0.87,0.13,1.74,0.19,2.62l293.93,293.15c-0.04-0.86-0.08-1.71-0.12-2.57L98,193.31z M100.22,229.49
	c0.01,0.09,0.01,0.18,0.02,0.27c0.03,0.49,0.06,1,0.09,1.5c0.02,0.28,0.03,0.55,0.05,0.83l293.83,293.03
	c-0.06-0.88-0.12-1.76-0.18-2.64L100.22,229.49z M99.65,220.07c0.05,0.76,0.1,1.54,0.14,2.35c0.01,0.09,0.01,0.18,0.02,0.27
	l293.74,292.95c-0.05-0.87-0.11-1.74-0.16-2.62L99.65,220.07z M104.67,437.81c-0.01,0.78-0.03,1.57-0.05,2.35L238.27,573.6
	c0.46,0.02,0.92,0.04,1.38,0.06c0.4,0.02,0.79,0.04,1.19,0.05L104.67,437.76C104.67,437.77,104.67,437.79,104.67,437.81z
	 M211.64,572.13c0.87,0.06,1.74,0.12,2.63,0.17L104.06,462.26c0,0.13-0.01,0.27-0.01,0.4c-0.02,0.59-0.04,1.19-0.06,1.78
	c0,0.07,0,0.13-0.01,0.2L211.64,572.13z M134.95,563.5c0.97,0.18,1.97,0.35,2.99,0.53l0,0l-37.12-37.07c0,0.04-0.01,0.08-0.01,0.12
	c-0.05,0.7-0.1,1.4-0.15,2.1c0,0.02,0,0.04-0.01,0.07L134.95,563.5z M102.64,497.26L174.48,569c0,0,0.01,0,0.01,0
	c0.89,0.09,1.8,0.19,2.71,0.28c0.01,0,0.02,0,0.03,0l-74.47-74.36C102.72,495.7,102.68,496.48,102.64,497.26z M204.75,571.66
	L103.78,470.84c-0.03,0.79-0.06,1.58-0.09,2.37l98.41,98.26C202.98,571.53,203.86,571.59,204.75,571.66z M206.88,571.81
	c0.88,0.06,1.75,0.12,2.64,0.18l-105.6-105.44c-0.03,0.79-0.05,1.58-0.08,2.37L206.88,571.81z M170.24,7.44
	c-0.06,0.02-0.13,0.05-0.19,0.07c-0.2,0.08-0.42,0.16-0.64,0.25c-0.1,0.04-0.2,0.08-0.3,0.12c-0.24,0.09-0.49,0.19-0.76,0.29
	c-0.1,0.04-0.2,0.08-0.31,0.12c-0.31,0.12-0.63,0.24-0.96,0.37c-0.05,0.02-0.09,0.04-0.14,0.05l-91.98,91.84
	c0,0.01,0.01,0.02,0.01,0.03c0.24,0.56,0.48,1.12,0.73,1.69l95.25-95.11C170.73,7.25,170.49,7.34,170.24,7.44z M82.19,118.97
	c0.17,0.47,0.34,0.95,0.5,1.43L190.91,12.34l0,0c-0.67-0.17-1.32-0.33-1.96-0.49L82.05,118.58
	C82.1,118.71,82.14,118.84,82.19,118.97z M123.84,561.26c0.39,0.09,0.79,0.17,1.2,0.26c0.13,0.03,0.26,0.06,0.39,0.09
	c0.51,0.11,1.02,0.22,1.54,0.33l-26.77-26.73c-0.03,0.39-0.06,0.79-0.09,1.18c-0.03,0.36-0.06,0.73-0.09,1.09L123.84,561.26z
	 M129.46,562.45c0.99,0.2,2,0.4,3.06,0.6l0,0l-32-31.95c-0.05,0.64-0.1,1.28-0.15,1.92c-0.01,0.12-0.02,0.24-0.03,0.36
	L129.46,562.45z M164.48,567.87c0.47,0.06,0.96,0.11,1.44,0.17c0.45,0.05,0.89,0.11,1.35,0.16l-64.96-64.86
	c-0.04,0.77-0.08,1.53-0.13,2.3c0,0.01,0,0.02,0,0.03L164.48,567.87z M105.06,397.77l174.86,174.59l0,0
	c0.77-0.05,1.53-0.1,2.29-0.15l0.02,0L105.06,395.32C105.06,396.14,105.06,396.95,105.06,397.77z M275.74,572.62
	c0.78-0.05,1.54-0.09,2.32-0.14l-173-172.73c0,0.81,0,1.63-0.01,2.44c0,0,0,0,0,0.01L275.74,572.62z M104.95,370.09
	c0,0.24,0,0.48,0.01,0.72c0,0.5,0.01,0.99,0.01,1.49c0,0.09,0,0.18,0,0.27l198.65,198.05c0.76-0.07,1.51-0.13,2.26-0.2
	L104.95,370.09z M273.87,572.73L105.04,404.16c0,0.02,0,0.03,0,0.05c0,0.71-0.01,1.41-0.01,2.12c0,0.09,0,0.18,0,0.27l166.51,166.26
	c0.01,0,0.02,0,0.02,0C272.34,572.81,273.1,572.77,273.87,572.73z M104.81,429.04c-0.01,0.78-0.02,1.56-0.04,2.35
	c0,0.02,0,0.05,0,0.07l142.74,142.53l0.39,0c0.67-0.03,1.32-0.06,1.98-0.08L104.81,429.04z M104.9,365.62
	c0.01,0.83,0.02,1.65,0.03,2.48L307.7,570.26c0.76-0.07,1.51-0.14,2.25-0.21L104.9,365.62z M169.5,568.45L169.5,568.45
	c0.92,0.1,1.83,0.21,2.76,0.31l-69.73-69.62c-0.04,0.78-0.08,1.55-0.12,2.33L169.5,568.45z M83.2,121.86c0.11,0.33,0.23,0.67,0.34,1
	c0.09,0.28,0.19,0.55,0.28,0.83l110.67-110.5c-0.68-0.15-1.35-0.31-1.99-0.46L83.2,121.86z"/>
<polygon class="Colour3 fill" points="238.43,14.31 199.46,8.71 182.59,8.15 122.88,35.2 74.88,73.7 75.68,102.28 81.99,118.58 
	138.78,68.21 138.78,51.08 192.02,24.46 302.99,24.46 356.23,51.08 356.23,68.21 413.02,118.58 419.33,102.28 420.13,73.7 
	372.13,35.2 312.42,8.15 295.55,8.71 256.58,14.31 "/>
<path class="Colour2 fill" d="M297.41,10.32l68.46,32.01v14.14l53.47,45.8c0,0,12.14-27.18,15.87-30.99c0,0,50.05,84.06,50.74,146.18
	l7.55-3.68c0,0-4.56-84.45-54.37-148.75c0,0-5-15.43-116.44-58.37L297.41,10.32z"/>
<path class="Colour2 fill" d="M197.61,10.32l-68.46,32.01v14.14l-53.47,45.8c0,0-12.14-27.18-15.87-30.99c0,0-50.05,84.06-50.74,146.18
	l-7.55-3.68c0,0,4.56-84.45,54.37-148.75c0,0,5-15.43,116.44-58.37L197.61,10.32z"/>
<path class="st3" d="M247.83,50.79l-0.32,0c-40.44,0-57.01-24.16-63.28-38.48c9.87,2,39.05,7.48,62.98,7.52l0.29,0
	c23.99,0,53.37-5.51,63.28-7.52C304.53,26.59,288.04,50.67,247.83,50.79z"/>
<g>
	<path class="Colour2 fill" d="M103.97,320.08c0.2,7.47,0.38,15.18,0.53,23.09h2.34l93.17,227.86c2.86,0.22,5.81,0.43,8.83,0.64
		l-82.99-251.58H103.97z"/>
	<path class="Colour2 fill" d="M391.07,320.08c-0.2,7.47-0.38,15.18-0.53,23.09h-2.34l-93.17,227.86c-2.86,0.22-5.81,0.43-8.83,0.64
		l82.99-251.58H391.07z"/>
</g>
<path class="Colour3 fill" d="M98.57,554.1c0,0,10.52,7.19,55.73,13.4L104.71,430.9C104.09,471.98,102.29,514.4,98.57,554.1z"/>
<path class="Colour3 fill" d="M396.41,554.1c0,0-10.52,7.19-55.73,13.4l49.59-136.59C390.89,471.98,392.69,514.4,396.41,554.1z"/>
<path class="Colour3 fill" d="M102.79,286.09c0.57,14.74,1.09,31,1.48,48.33l15.01,7.98l85.53,230.18c3.48,0.25,7.09,0.49,10.79,0.72
	l-77.68-253.48L102.79,286.09z"/>
<path class="Colour3 fill" d="M392.19,286.09c-0.57,14.74-1.09,31-1.48,48.33l-15.01,7.98l-85.53,230.18c-3.48,0.25-7.09,0.49-10.79,0.72
	l77.68-253.48L392.19,286.09z"/>
<path class="st0" d="M314.24,2c0,0-26.79,9.67-66.73,9.49l-0.38,0C207.4,11.61,180.78,2,180.78,2l-8.51,4.63
	c0,0,3.87,57.8,75.24,57.8l0.22,0c71.16-0.12,75.02-57.8,75.02-57.8L314.24,2z M247.83,50.79l-0.32,0
	c-40.44,0-57.01-24.16-63.28-38.48c9.86,2,39.04,7.48,62.98,7.52l0.29,0c23.99,0,53.38-5.52,63.28-7.52
	C304.53,26.59,288.04,50.67,247.83,50.79z"/>
<path class="st0" d="M439.13,64.76c0,0,46.18,55.04,54.37,148.75c0,0-64.06,39.05-86.4,25.66c0,0,1.37-13.64-10.68-34.34
	C396.42,204.83,396.3,130.58,439.13,64.76z"/>
<path class="st0" d="M55.89,64.76c0,0-46.18,55.04-54.37,148.75c0,0,64.06,39.05,86.4,25.66c0,0-1.37-13.64,10.68-34.34
	C98.6,204.83,98.72,130.58,55.89,64.76z"/>
<path class="NeckAndArmTrim fill" d="M247.51,11.49C287.45,11.67,314.24,2,314.24,2v9.59c0,0-37.4,8.24-66.73,8.24l-0.29,0
	c-29.28-0.05-66.43-8.24-66.43-8.24V2c0,0,26.62,9.61,66.35,9.49L247.51,11.49z"/>
<path class="NeckAndArmTrim fill" d="M247.51,64.42c-71.37,0-75.24-57.8-75.24-57.8L180.78,2c0,0,9.26,48.8,66.73,48.8l0.32,0
	C305.01,50.61,314.24,2,314.24,2l8.51,4.63c0,0-3.86,57.68-75.02,57.8L247.51,64.42z"/>
<g id="FBodyLogos"></g>
<g>
	<path class="Colour2 fill" d="M98.6,552.89c0,0,7.68,5.24,38.09,10.65l-33.95-69.9C101.76,513.72,100.41,533.63,98.6,552.89z"/>
	<path class="Colour2 fill" d="M396.44,552.89c0,0-7.68,5.24-38.09,10.65l33.95-69.9C393.28,513.72,394.63,533.63,396.44,552.89z"/>
</g>
<path class="BottomHem fill" d="M247.49,559.16c124.54-4.96,147.54-20.82,147.54-20.82l1.37,14.84c0,0-34.6,17.88-149.34,20.82
	c0,0-105.75-1.2-148.48-20.82l1.37-14.84C99.95,538.33,122.95,554.2,247.49,559.16"/>
<g>
	<path class="st0" d="M395.03,538.05c0,0-23,15.87-147.54,20.82"/>
	<path class="st0" d="M247.49,558.87c-124.54-4.96-147.54-20.82-147.54-20.82"/>
</g>
<g>
	<path class="st1" d="M395.03,542.51c0,0-23,15.87-147.54,20.82"/>
	<path class="st1" d="M247.49,563.34c-124.54-4.96-147.54-20.82-147.54-20.82"/>
</g>
<g>
	<path class="st0" d="M439.14,64.76C427.97,46.17,322.82,6.38,322.82,6.38l-0.31,0.11l0.26,0.14c0,0-3.86,57.68-75.02,57.8l-0.22,0
		c-71.37,0-75.24-57.8-75.24-57.8l0.24-0.13l-0.3-0.12c0,0-105.15,39.79-116.32,58.38c0,0,39.73,55.78,42.71,140.07
		c0,0,14.4,194.36,0,348.06c0,0,23.21,15.87,148.91,20.82c125.7-4.96,148.91-20.82,148.91-20.82c-14.4-153.7,0-348.06,0-348.06
		C399.42,120.54,439.14,64.76,439.14,64.76z"/>
</g>
</svg>
