<?xml version="1.0" encoding="utf-8"?>
<!-- Generator: Adobe Illustrator 19.1.0, SVG Export Plug-In . SVG Version: 6.00 Build 0)  -->
<svg version="1.1" id="Layer_1" xmlns="http://www.w3.org/2000/svg" xmlns:xlink="http://www.w3.org/1999/xlink" x="0px" y="0px"
	 viewBox="0 0 495 576" style="enable-background:new 0 0 495 576;" xml:space="preserve">
<style type="text/css">
	<![CDATA[
	@font-face{font-family:'codaheavy';src:url('/fonts/coda-heavy-webfont.woff') format('woff')}
	text{font-family:Impact,codaheavy,sans-serif}
	.Number.fill{fill:#000}
	.NumberOutline.stroke{fill:none;stroke:#777;stroke-width:2.5}
	.Colour1.fill{fill:#000000;}
	.Colour2.fill{fill:#898989;}
	.Colour3.fill{fill:#FFFFFF;}
	.Colour4.fill{fill:#333333;}
	.BottomHem.fill{fill:#898989;}
	.NeckAndArmTrim.fill{fill:#898989;}
	.st0{fill:none;stroke:#000000;stroke-width:0.25;stroke-miterlimit:10;}
	.st1{fill:none;stroke:#000000;stroke-width:0.25;stroke-miterlimit:10;stroke-dasharray:2;}
	.st2{fill:#898989;}
	]]>
</style>
<path class="Colour1 fill" d="M247.85,573.99c125.4-4.97,148.57-20.8,148.57-20.8c-14.4-153.62,0-347.89,0-347.89c2.98-84.25,42.71-140,42.71-140
	C427.95,46.72,322.8,6.95,322.8,6.95l-0.12,0.01c0,0-30.18,12.46-75.18,12.25l-0.43,0c-44.76,0.14-74.75-12.25-74.75-12.25
	l-0.12-0.01c0,0-105.15,39.77-116.33,58.35c0,0,39.73,55.75,42.71,140c0,0,14.4,194.26,0,347.89c0,0,23.18,15.83,148.59,20.8
	L247.85,573.99z"/>
<path class="Colour1 fill" d="M439.12,65.3c0,0,46.18,55.01,54.38,148.67c0,0-64.06,39.03-86.41,25.65c0,0,1.37-13.63-10.68-34.32
	C396.42,205.3,396.29,131.09,439.12,65.3z"/>
<path class="Colour1 fill" d="M55.88,65.3c0,0-46.18,55.01-54.38,148.67c0,0,64.06,39.03,86.41,25.65c0,0-1.37-13.63,10.68-34.32
	C98.58,205.3,98.71,131.09,55.88,65.3z"/>
<path class="NeckAndArmTrim fill" d="M419.26,241.83c-4.7,0-8.59-0.85-11.56-2.53c0.07-1.29,0.13-5.73-1.6-12.55
	c0.35,0.01,0.69,0.01,1.04,0.01c34.14,0,77.58-25.84,83.83-29.67c0.77,5.38,1.41,10.9,1.91,16.57
	C488.8,216.11,445.19,241.83,419.26,241.83z"/>
<path class="NeckAndArmTrim fill" d="M2.1,213.66c0.5-5.66,1.15-11.19,1.91-16.57c6.25,3.83,49.69,29.67,83.83,29.67
	c0.35,0,0.7-0.01,1.04-0.01c-1.73,6.82-1.67,11.26-1.6,12.55c-2.97,1.68-6.85,2.53-11.56,2.53C49.81,241.83,6.2,216.11,2.1,213.66z"
	/>
<path class="st0" d="M3.57,196.13c0,0,48.93,31.06,86.1,30.02"/>
<path class="st1" d="M3.03,200.59c0,0,48.93,31.06,86.1,30.02"/>
<path class="st0" d="M491.43,196.13c0,0-48.93,31.06-86.1,30.02"/>
<path class="st1" d="M491.97,200.59c0,0-48.93,31.06-86.1,30.02"/>
<path class="Colour4 fill" d="M317.79,166.4l76.35,76.19c-0.04,0.77-0.08,1.54-0.12,2.33l-78.69-78.53L427.12,54.85
	c0.5,0.33,0.99,0.66,1.47,0.98L317.79,166.4z M84.84,127.26L198.06,14.28c-0.69-0.14-1.36-0.29-2.02-0.44L84.23,125.41
	C84.44,126.03,84.64,126.64,84.84,127.26z M383.38,166.4l14.91,14.88c0.08-0.7,0.17-1.4,0.26-2.09c0-0.03,0.01-0.06,0.01-0.09
	l-12.73-12.7l18.49-18.45c0,0,0,0,0-0.01c0.26-1.09,0.53-2.17,0.8-3.24c0-0.01,0-0.01,0.01-0.02L383.38,166.4z M392.34,281.63
	c0.03-0.79,0.06-1.58,0.09-2.36L279.33,166.4L404.05,41.95c-0.11-0.06-0.22-0.11-0.33-0.17c-0.43-0.22-0.87-0.43-1.3-0.65
	L276.88,166.4L392.34,281.63z M395.63,217.01c0.01-0.12,0.02-0.23,0.02-0.36c0.04-0.68,0.08-1.33,0.13-1.95l-48.4-48.3l78.85-78.69
	c0.44-0.87,0.86-1.72,1.29-2.54c0.02-0.05,0.05-0.09,0.07-0.14c0.41-0.81,0.82-1.59,1.23-2.35l-83.9,83.72L395.63,217.01z
	 M349.36,166.4l46.54,46.44c0.04-0.59,0.08-1.13,0.11-1.66c0.01-0.22,0.03-0.43,0.04-0.64l-44.23-44.14l70.38-70.23
	c0.01-0.01,0.01-0.03,0.02-0.04c0.35-0.76,0.7-1.51,1.04-2.25c0.01-0.03,0.03-0.06,0.04-0.09c0.35-0.75,0.7-1.48,1.04-2.2
	c0-0.01,0.01-0.01,0.01-0.02L349.36,166.4z M397.44,189.29c0.07-0.75,0.14-1.49,0.22-2.24l-20.69-20.65l30.56-30.5v0
	c0.34-1.17,0.68-2.33,1.02-3.47l-34.04,33.97L397.44,189.29z M399.44,39.66l-127,126.74l119.73,119.49
	c0.03-0.79,0.06-1.58,0.09-2.36L274.9,166.4L401.09,40.47c-0.01,0-0.02-0.01-0.02-0.01C400.53,40.2,399.99,39.93,399.44,39.66z
	 M390.56,445.18c-0.01-0.54-0.02-1.07-0.03-1.6c-0.01-0.3-0.01-0.6-0.02-0.9L113.66,166.4L261.51,18.86l-0.01,0
	c-0.85,0.05-1.71,0.09-2.58,0.13L111.2,166.4L390.56,445.18z M390.37,351.99c0.01-0.81,0.03-1.61,0.04-2.41L206.85,166.4
	L354.11,19.45c-0.58-0.24-1.16-0.48-1.74-0.72L204.4,166.4L390.37,351.99z M218.72,17.61c-0.39-0.05-0.79-0.09-1.18-0.14
	L89.9,144.85c0.05,0.18,0.09,0.36,0.13,0.54c0.12,0.47,0.24,0.95,0.35,1.42L219.74,17.73C219.4,17.7,219.06,17.65,218.72,17.61z
	 M91.62,152c0.15,0.67,0.3,1.33,0.45,2L227.85,18.5c-0.76-0.06-1.52-0.12-2.27-0.19L91.62,152z M340.49,166.4l54.88,54.77
	c0.01-0.1,0.01-0.19,0.02-0.29c0.04-0.7,0.08-1.37,0.13-2.02l-52.57-52.46l88.2-88.01c1.21-2.17,2.32-4.09,3.3-5.74
	c0-0.01,0.01-0.02,0.01-0.02L340.49,166.4z M221.55,17.92c0,0-0.01,0-0.02,0L90.78,148.41c0.16,0.66,0.31,1.32,0.47,1.98
	L223.77,18.15C223.02,18.08,222.29,18,221.55,17.92z M174.81,166.4l215.24,214.8c0-0.81,0.01-1.61,0.01-2.41c0-0.01,0-0.02,0-0.02
	L177.27,166.4L333.06,10.94c-0.59-0.23-1.16-0.46-1.7-0.67c-0.02-0.01-0.04-0.02-0.06-0.02L174.81,166.4z M145.22,166.4
	l244.84,244.34c0-0.47-0.01-0.94-0.01-1.41c0-0.35-0.01-0.71-0.01-1.06L147.68,166.4L301.03,13.37c-1.02,0.23-2.07,0.47-3.16,0.7
	L145.22,166.4z M390.08,376.8c0.01-0.81,0.01-1.62,0.02-2.43L181.7,166.4L336.24,12.19c-0.02-0.01-0.03-0.01-0.05-0.02
	c-0.58-0.23-1.15-0.46-1.7-0.67c0,0-0.01,0-0.01-0.01L179.25,166.4L390.08,376.8z M390.03,385.61c0-0.67,0.01-1.34,0.01-2
	c0-0.15,0-0.29,0-0.44L172.83,166.4L329.88,9.69c-0.29-0.11-0.56-0.22-0.83-0.32c-0.04-0.01-0.07-0.03-0.11-0.04
	c-0.28-0.11-0.56-0.22-0.83-0.32L170.37,166.4L390.03,385.61z M310.9,166.4l82.91,82.74c0.04-0.75,0.08-1.5,0.11-2.24
	c0-0.03,0-0.06,0.01-0.1l-80.57-80.4L425.92,54.08c-0.12-0.07-0.24-0.15-0.35-0.22c-0.38-0.24-0.76-0.48-1.15-0.73L310.9,166.4z
	 M72.9,96.37l83.35-83.18c-0.64,0.26-1.3,0.52-1.98,0.79c-0.02,0.01-0.04,0.01-0.06,0.02c-0.63,0.25-1.28,0.51-1.94,0.78
	c-0.05,0.02-0.1,0.04-0.15,0.06l-80,79.84c0.24,0.51,0.47,1.03,0.71,1.55C72.86,96.29,72.88,96.33,72.9,96.37z M73.51,97.73
	c0.03,0.06,0.05,0.12,0.08,0.17c0.22,0.5,0.45,1,0.68,1.52c0,0,0,0.01,0,0.01l89.33-89.15c-0.03,0.01-0.07,0.03-0.1,0.04
	c-0.55,0.22-1.13,0.44-1.72,0.68c-0.08,0.03-0.16,0.06-0.24,0.09c-0.64,0.25-1.31,0.52-2,0.79L73.51,97.73z M102.33,166.4
	l288.45,287.85c0-0.11-0.01-0.23-0.01-0.34c-0.02-0.72-0.04-1.45-0.06-2.17L104.79,166.4L252.32,19.18h0
	c-0.82,0.01-1.65,0.02-2.47,0.02h0L102.33,166.4z M106.76,166.4l283.9,283.31c0-0.01,0-0.02,0-0.03c-0.02-0.83-0.04-1.66-0.06-2.48
	L109.22,166.4L256.87,19.06h0c-0.84,0.03-1.68,0.05-2.53,0.07l0,0L106.76,166.4z M391.54,477.33L96.99,183.72
	c0.1,0.91,0.2,1.81,0.3,2.72c0,0.01,0,0.02,0,0.03l294.36,293.41C391.61,479.03,391.57,478.18,391.54,477.33z M112.56,31.7
	c-1.51,0.68-3.02,1.37-4.52,2.06L63.66,78.04c0.03,0.05,0.05,0.1,0.08,0.14c0.26,0.47,0.52,0.94,0.79,1.43c0,0,0,0,0,0.01
	L112.56,31.7z M104.67,433.6c-0.01,0.76-0.03,1.52-0.04,2.29l138.21,137.92c0.61,0.03,1.23,0.05,1.85,0.08
	c0.24,0.01,0.48,0.02,0.72,0.03L104.67,433.48C104.67,433.52,104.67,433.56,104.67,433.6z M60.42,72.42
	c0.28,0.47,0.57,0.95,0.87,1.46c0.02,0.03,0.03,0.05,0.05,0.08l34.5-34.43c0,0-0.01,0-0.01,0.01c-1.64,0.8-3.25,1.6-4.85,2.4
	c-0.01,0-0.01,0.01-0.02,0.01L60.42,72.42z M104.33,35.48c-1.56,0.73-3.11,1.46-4.65,2.2c-0.01,0-0.01,0.01-0.02,0.01L62.06,75.21
	c0.29,0.5,0.58,1.01,0.88,1.54c0,0.01,0.01,0.01,0.01,0.02L104.33,35.48z M215.73,166.4L360.36,22.07
	c-0.04-0.02-0.08-0.03-0.12-0.05c-0.54-0.23-1.08-0.45-1.61-0.68L213.27,166.4l177.25,176.88c0.01-0.35,0.01-0.69,0.02-1.04
	c0.01-0.43,0.02-0.86,0.02-1.29c0-0.02,0-0.05,0-0.07L215.73,166.4z M384.02,32.41c-0.56-0.26-1.13-0.51-1.69-0.77L247.29,166.4
	l144.05,143.75c0.02-0.65,0.04-1.31,0.06-1.96c0-0.14,0.01-0.28,0.01-0.42L249.75,166.4L384.02,32.41z M357.24,20.76
	c-0.58-0.24-1.16-0.48-1.73-0.72L208.83,166.4l181.61,181.23c0.01-0.44,0.02-0.88,0.02-1.33c0.01-0.36,0.01-0.72,0.02-1.08
	L211.29,166.4L357.24,20.76z M245.31,166.4L380.97,31.03c-0.01-0.01-0.03-0.01-0.04-0.02c-0.55-0.25-1.09-0.49-1.64-0.74
	c0,0-0.01,0-0.01-0.01L242.85,166.4l148.36,148.05c0.02-0.8,0.05-1.59,0.07-2.38L245.31,166.4z M392.51,277.38
	c0.03-0.79,0.07-1.58,0.1-2.36L283.77,166.4L407,43.44c-0.54-0.28-1.08-0.55-1.63-0.83L281.31,166.4L392.51,277.38z M308.92,166.4
	L423.19,52.38c-0.5-0.3-1.01-0.61-1.53-0.92c0,0,0,0-0.01,0L306.46,166.4l87.13,86.95c0.04-0.79,0.08-1.57,0.12-2.34L308.92,166.4z
	 M390.14,419.67c-0.01-0.81-0.02-1.61-0.02-2.42c0-0.02,0-0.04,0-0.06L138.81,166.4L289.9,15.63c-0.97,0.17-1.95,0.34-2.96,0.5
	L136.35,166.4L390.14,419.67z M240.88,166.4L377.9,29.66c-0.02-0.01-0.04-0.02-0.06-0.03c-0.54-0.24-1.09-0.48-1.63-0.72
	c0,0-0.01,0-0.01,0L238.42,166.4l152.67,152.36c0-0.04,0-0.08,0-0.13c0.01-0.35,0.02-0.69,0.03-1.04c0.01-0.41,0.02-0.81,0.03-1.22
	L240.88,166.4z M390.1,415.2c0-0.48-0.01-0.97-0.01-1.45c0-0.34-0.01-0.68-0.01-1.02L143.24,166.4L295.37,14.59
	c-0.99,0.2-2.01,0.4-3.05,0.59L140.79,166.4L390.1,415.2z M397.84,185.26c0.03-0.31,0.07-0.62,0.1-0.93
	c0.05-0.43,0.09-0.86,0.14-1.28L381.4,166.4l24.43-24.38c0.3-1.13,0.6-2.25,0.91-3.36l-27.8,27.74L397.84,185.26z M103.04,291.61
	c0.03,0.84,0.06,1.69,0.09,2.54l268.03,267.13c0.69-0.15,1.35-0.3,2-0.45L103.04,291.61z M103.2,296.2
	c0.03,0.72,0.05,1.44,0.08,2.17c0,0.12,0.01,0.25,0.01,0.37l264.22,263.32c0.69-0.14,1.37-0.29,2.03-0.43L103.2,296.2z
	 M101.97,265.45c0.04,0.85,0.08,1.7,0.11,2.57l288.7,287.74c0.65-0.25,1.24-0.48,1.76-0.69L101.97,265.45z M101.76,260.81
	c0.01,0.12,0.01,0.24,0.02,0.36c0.03,0.58,0.05,1.15,0.08,1.74c0.01,0.16,0.01,0.31,0.02,0.47l292.05,291.08
	c0.72-0.33,1.26-0.6,1.65-0.8L101.76,260.81z M104.33,335.7c0.01,0.47,0.02,0.94,0.03,1.41c0.01,0.29,0.01,0.58,0.02,0.87
	c0,0.07,0,0.15,0,0.22l230,229.2c0.74-0.09,1.46-0.19,2.18-0.28L104.33,335.7z M103.36,300.79c0,0.13,0.01,0.26,0.01,0.4
	c0.02,0.71,0.05,1.42,0.07,2.14l260.37,259.48c0.7-0.14,1.38-0.27,2.05-0.41L103.36,300.79z M101.54,256.17
	c0.01,0.17,0.02,0.33,0.02,0.5c0.03,0.61,0.06,1.22,0.09,1.84c0,0.08,0.01,0.16,0.01,0.24l294.69,293.71
	c-0.08-0.9-0.17-1.8-0.25-2.7L101.54,256.17z M104.22,331.18c0.02,0.83,0.04,1.67,0.06,2.51L338.31,566.9
	c0.73-0.1,1.45-0.19,2.17-0.29L104.22,331.18z M104.77,361.24c0.01,0.59,0.01,1.17,0.02,1.76c0,0.24,0.01,0.48,0.01,0.72
	l206.89,206.16c0.76-0.07,1.5-0.14,2.24-0.22L104.77,361.24z M104.11,326.64c0,0.12,0.01,0.25,0.01,0.37
	c0.02,0.71,0.04,1.43,0.05,2.15l238.03,237.21c0.72-0.1,1.45-0.2,2.15-0.31L104.11,326.64z M97.5,188.66
	C97.5,188.66,97.5,188.66,97.5,188.66c0.08,0.89,0.16,1.77,0.24,2.66c0,0.01,0,0.02,0,0.03l294.1,293.16
	c-0.04-0.85-0.07-1.71-0.11-2.56L97.5,188.66z M99.86,224.97c0.05,0.85,0.1,1.71,0.15,2.61L393.8,520.4
	c-0.06-0.87-0.11-1.75-0.17-2.62L99.86,224.97z M97.92,193.5c0,0.01,0,0.01,0,0.02c0.07,0.87,0.13,1.74,0.19,2.62l293.94,292.99
	c-0.04-0.86-0.08-1.71-0.12-2.57L97.92,193.5z M100.14,229.67c0.01,0.09,0.01,0.18,0.02,0.27c0.03,0.49,0.06,1,0.09,1.5
	c0.02,0.28,0.03,0.54,0.05,0.83l293.84,292.88c-0.06-0.88-0.12-1.76-0.18-2.63L100.14,229.67z M99.57,220.25
	c0.05,0.76,0.1,1.54,0.14,2.34c0.01,0.09,0.01,0.17,0.02,0.27l293.76,292.8c-0.05-0.87-0.11-1.74-0.16-2.62L99.57,220.25z
	 M104.59,437.88c-0.01,0.78-0.03,1.57-0.05,2.35L238.19,573.6c0.46,0.02,0.92,0.04,1.38,0.06c0.4,0.02,0.79,0.04,1.19,0.05
	L104.59,437.83C104.59,437.84,104.59,437.86,104.59,437.88z M211.57,572.13c0.87,0.06,1.74,0.12,2.63,0.17L103.99,462.32
	c0,0.13-0.01,0.27-0.01,0.4c-0.02,0.59-0.04,1.19-0.06,1.78c0,0.07,0,0.13-0.01,0.2L211.57,572.13z M134.88,563.5
	c0.97,0.18,1.97,0.35,2.99,0.53l0,0l-37.12-37.05c0,0.04-0.01,0.08-0.01,0.12c-0.05,0.7-0.1,1.4-0.15,2.1c0,0.02,0,0.04-0.01,0.07
	L134.88,563.5z M102.56,497.3l71.85,71.7l0.01,0c0.89,0.09,1.8,0.19,2.71,0.28c0,0,0.02,0,0.03,0l-74.47-74.32
	C102.64,495.74,102.6,496.52,102.56,497.3z M204.68,571.66L103.7,470.89c-0.03,0.79-0.06,1.58-0.09,2.37l98.41,98.21
	C202.91,571.53,203.78,571.59,204.68,571.66z M206.81,571.81c0.88,0.06,1.75,0.12,2.64,0.18l-105.6-105.38
	c-0.03,0.79-0.05,1.58-0.08,2.37L206.81,571.81z M170.16,7.73c-0.06,0.02-0.13,0.05-0.19,0.07c-0.2,0.08-0.42,0.16-0.64,0.25
	c-0.1,0.04-0.2,0.08-0.3,0.12c-0.24,0.09-0.49,0.19-0.76,0.29c-0.1,0.04-0.2,0.08-0.31,0.12c-0.31,0.12-0.63,0.24-0.96,0.37
	c-0.05,0.02-0.09,0.04-0.14,0.05l-91.99,91.8c0,0.01,0.01,0.02,0.01,0.03c0.24,0.56,0.48,1.12,0.73,1.69l95.26-95.06
	C170.66,7.54,170.42,7.63,170.16,7.73z M82.11,119.2c0.17,0.47,0.34,0.95,0.5,1.43L190.83,12.63l0,0c-0.67-0.17-1.32-0.33-1.96-0.49
	L81.97,118.81C82.02,118.94,82.06,119.07,82.11,119.2z M123.77,561.27c0.39,0.09,0.79,0.17,1.2,0.26c0.13,0.03,0.26,0.06,0.39,0.09
	c0.51,0.11,1.02,0.22,1.54,0.33l-26.77-26.72c-0.03,0.39-0.06,0.79-0.09,1.18c-0.03,0.36-0.06,0.73-0.09,1.09L123.77,561.27z
	 M129.39,562.45c0.99,0.2,2,0.4,3.06,0.6l0,0l-32-31.94c-0.05,0.64-0.1,1.28-0.15,1.92c-0.01,0.12-0.02,0.24-0.03,0.36
	L129.39,562.45z M164.41,567.88c0.47,0.06,0.96,0.11,1.44,0.17c0.45,0.05,0.89,0.11,1.35,0.16l-64.96-64.83
	c-0.04,0.76-0.08,1.53-0.13,2.29c0,0.01,0,0.02,0,0.03L164.41,567.88z M104.98,397.86l174.86,174.5l0,0
	c0.77-0.05,1.53-0.1,2.29-0.15c0,0,0.01,0,0.02,0l-177.17-176.8C104.98,396.23,104.98,397.05,104.98,397.86z M275.67,572.62
	c0.78-0.05,1.54-0.09,2.32-0.14l-173-172.64c0,0.81,0,1.63-0.01,2.44c0,0,0,0,0,0.01L275.67,572.62z M104.87,370.2
	c0,0.24,0,0.48,0.01,0.72c0,0.5,0.01,0.99,0.01,1.49c0,0.09,0,0.18,0,0.27l198.66,197.95c0.76-0.07,1.51-0.13,2.26-0.2L104.87,370.2
	z M273.8,572.73L104.97,404.25c0,0.02,0,0.03,0,0.05c0,0.71-0.01,1.41-0.01,2.12c0,0.09,0,0.18,0,0.27l166.51,166.17
	c0.01,0,0.02,0,0.02,0C272.27,572.82,273.03,572.77,273.8,572.73z M104.74,429.12c-0.01,0.78-0.02,1.56-0.04,2.34
	c0,0.02,0,0.05,0,0.07l142.75,142.45l0.39,0c0.67-0.03,1.32-0.06,1.98-0.08L104.74,429.12z M104.82,365.72
	c0.01,0.83,0.02,1.65,0.03,2.48l202.78,202.06c0.76-0.07,1.51-0.14,2.25-0.21L104.82,365.72z M169.43,568.46L169.43,568.46
	c0.92,0.1,1.83,0.2,2.76,0.31l-69.73-69.59c-0.04,0.78-0.08,1.55-0.12,2.33L169.43,568.46z M83.12,122.1c0.11,0.33,0.23,0.67,0.34,1
	c0.09,0.28,0.19,0.55,0.28,0.83L194.42,13.48c-0.68-0.15-1.35-0.31-1.99-0.46L83.12,122.1z"/>
<polygon class="Colour3 fill" points="238.42,14.59 199.45,9 182.58,8.44 122.87,35.48 74.87,73.96 75.67,102.52 81.97,118.81 
	138.77,68.47 138.77,51.35 192.01,24.75 302.98,24.75 356.22,51.35 356.22,68.47 413.02,118.81 419.33,102.52 420.12,73.96 
	372.13,35.48 312.41,8.44 295.54,9 256.57,14.59 "/>
<path class="Colour2 fill" d="M297.4,10.61l68.46,32v14.14l53.47,45.78c0,0,12.14-27.16,15.87-30.98c0,0,50.05,84.01,50.75,146.11
	l7.55-3.68c0,0-4.56-84.41-54.38-148.67c0,0-5-15.42-116.45-58.34L297.4,10.61z"/>
<path class="Colour2 fill" d="M197.6,10.61l-68.46,32v14.14l-53.47,45.78c0,0-12.14-27.16-15.87-30.98c0,0-50.05,84.01-50.75,146.11
	l-7.55-3.68c0,0,4.56-84.41,54.38-148.67c0,0,5-15.42,116.45-58.34L197.6,10.61z"/>
<path class="Colour3 fill" d="M98.51,552.9c0,0,10.52,7.18,55.73,13.39l-49.59-136.52C104.03,470.83,102.23,513.22,98.51,552.9z"/>
<path class="Colour3 fill" d="M396.36,552.9c0,0-10.52,7.18-55.73,13.39l49.59-136.52C390.84,470.83,392.64,513.22,396.36,552.9z"/>
<g>
	<path class="Colour2 fill" d="M103.88,320.21c0.2,7.47,0.38,15.17,0.53,23.07h2.34l93.17,227.74c2.86,0.22,5.81,0.43,8.83,0.64
		l-82.99-251.45H103.88z"/>
	<path class="Colour2 fill" d="M98.51,552.9c0,0,7.68,5.24,38.09,10.64l-33.95-69.87C101.67,513.75,100.32,533.65,98.51,552.9z"/>
	<path class="Colour2 fill" d="M390.99,320.21c-0.2,7.47-0.38,15.17-0.53,23.07h-2.34l-93.17,227.74c-2.86,0.22-5.81,0.43-8.83,0.64
		l82.99-251.45H390.99z"/>
	<path class="Colour2 fill" d="M396.36,552.9c0,0-7.68,5.24-38.09,10.64l33.95-69.87C393.2,513.75,394.56,533.65,396.36,552.9z"/>
</g>
<path class="Colour3 fill" d="M102.73,285.03c0.57,14.73,1.09,30.98,1.48,48.31l15.01,7.98l85.53,230.07c3.48,0.25,7.09,0.49,10.79,0.72
	l-77.68-253.35L102.73,285.03z"/>
<path class="Colour3 fill" d="M392.15,285.03c-0.57,14.73-1.09,30.98-1.48,48.31l-15.01,7.98l-85.53,230.07
	c-3.48,0.25-7.09,0.49-10.79,0.72l77.68-253.35L392.15,285.03z"/>
<path class="st2" d="M310.75,2.01l-0.1,0.01c0,0-25.35,9.15-63.15,8.97l-0.36,0c-37.6,0.12-62.79-8.97-62.79-8.97l-0.1-0.01
	l-11.93,4.95c0,0,29.99,12.39,74.75,12.25l0.43,0c45,0.21,75.18-12.25,75.18-12.25L310.75,2.01z"/>
<path class="BottomHem fill" d="M247.48,559.16c124.55-4.96,147.55-20.81,147.55-20.81l1.37,14.84c0,0-34.6,17.87-149.34,20.81
	c0,0-105.75-1.2-148.49-20.81l1.37-14.84C99.93,538.35,122.93,554.21,247.48,559.16"/>
<g>
	<path class="st0" d="M395.05,538.35c0,0-23,15.86-147.55,20.81"/>
	<path class="st0" d="M247.5,559.16c-124.55-4.96-147.55-20.81-147.55-20.81"/>
</g>
<g>
	<path class="st1" d="M395.05,542.81c0,0-23,15.86-147.55,20.81"/>
	<path class="st1" d="M247.5,563.62c-124.55-4.96-147.55-20.81-147.55-20.81"/>
</g>
<path class="st0" d="M439.12,65.29c0,0,46.18,55.01,54.38,148.67c0,0-64.06,39.03-86.41,25.65c0,0,1.37-13.63-10.68-34.32
	C396.42,205.29,396.29,131.08,439.12,65.29z"/>
<path class="st0" d="M55.88,65.29c0,0-46.18,55.01-54.38,148.67c0,0,64.06,39.03,86.41,25.65c0,0-1.37-13.63,10.68-34.32
	C98.58,205.29,98.71,131.08,55.88,65.29z"/>
<path class="st0" d="M247.5,573.99c125.7-4.96,148.92-20.81,148.92-20.81c-14.4-153.62,0-347.89,0-347.89
	c2.98-84.25,42.71-140,42.71-140C427.95,46.71,322.8,6.94,322.8,6.94l-0.12,0.01c0,0-30.18,12.46-75.18,12.25l-0.43,0
	c-44.76,0.14-74.75-12.25-74.75-12.25l-0.12-0.01c0,0-105.15,39.77-116.33,58.35c0,0,39.73,55.75,42.71,140
	c0,0,14.4,194.26,0,347.89C98.58,553.17,121.8,569.03,247.5,573.99"/>
<path class="NeckAndArmTrim fill" d="M310.75,2l-0.1,0.01c0,0-25.35,9.15-63.15,8.97l-0.36,0c-37.6,0.12-62.79-8.97-62.79-8.97L184.25,2
	l-11.93,4.95c0,0,29.99,12.39,74.75,12.25l0.43,0c45,0.21,75.18-12.25,75.18-12.25L310.75,2z"/>
</svg>
