<?xml version="1.0" encoding="utf-8"?>
<!-- Generator: Adobe Illustrator 19.1.0, SVG Export Plug-In . SVG Version: 6.00 Build 0)  -->
<svg version="1.1" id="Layer_1" xmlns="http://www.w3.org/2000/svg" xmlns:xlink="http://www.w3.org/1999/xlink" x="0px" y="0px"
	 viewBox="0 0 495 576" style="enable-background:new 0 0 495 576;" xml:space="preserve">
<style type="text/css">
	<![CDATA[
	@font-face{font-family:'codaheavy';src:url('/fonts/coda-heavy-webfont.woff') format('woff')}
	text{font-family:Impact,codaheavy,sans-serif}
	.Colour1.fill{fill:#000000;}
	.Colour2.fill{fill:#6D9421;}
	.Colour3.fill{fill:#0B4903;}
	.Colour4.fill{fill:#FFFFFF;}
	.NeckAndArmTrim.fill{fill:#52A035;}
	.BottomHem.fill{fill:#000000;}
	.st0{fill:none;stroke:#000000;stroke-width:0.25;stroke-miterlimit:10;}
	.st1{fill:none;stroke:#000000;stroke-width:0.25;stroke-miterlimit:10;stroke-dasharray:2;}
	.st2{fill:#FFFFFF;stroke:#000000;stroke-width:0.25;stroke-miterlimit:10;}
	.st3{fill:#FFFFFF;}
	.st4{fill:none;stroke:#58595B;stroke-width:0.25;stroke-miterlimit:10;}
	.st5{fill:none;stroke:#58595B;stroke-width:0.25;stroke-miterlimit:10;stroke-dasharray:2;}
	.st6{fill:none;stroke:#6D6E71;stroke-width:0.25;stroke-miterlimit:10;}
	]]>
</style>
<path class="Colour1 fill" d="M439.11,64.76c0,0,46.18,55.04,54.37,148.75c0,0-64.06,39.05-86.4,25.66c0,0,1.37-13.64-10.68-34.34
	C396.4,204.83,396.28,130.58,439.11,64.76z"/>
<path class="Colour1 fill" d="M55.87,64.76c0,0-46.18,55.04-54.37,148.75c0,0,64.06,39.05,86.4,25.66c0,0-1.37-13.64,10.68-34.34
	C98.58,204.83,98.7,130.58,55.87,64.76z"/>
<path class="NeckAndArmTrim fill" d="M419.23,241.39c-4.7,0-8.59-0.85-11.56-2.53c0.07-1.29,0.13-5.73-1.6-12.56
	c0.35,0.01,0.69,0.01,1.04,0.01c34.14,0,77.58-25.85,83.83-29.68c0.77,5.38,1.41,10.91,1.91,16.58
	C488.77,215.65,445.16,241.39,419.23,241.39z"/>
<path class="NeckAndArmTrim fill" d="M2.09,213.2c0.5-5.67,1.15-11.19,1.91-16.58c6.25,3.83,49.69,29.68,83.83,29.68
	c0.35,0,0.7-0.01,1.04-0.01c-1.73,6.83-1.67,11.27-1.6,12.56c-2.97,1.68-6.85,2.53-11.56,2.53C49.8,241.39,6.18,215.65,2.09,213.2z"
	/>
<path class="Colour1 fill" d="M439.13,64.76C427.95,46.17,322.8,6.38,322.8,6.38l-0.31,0.11l0.26,0.14c0,0-3.86,57.68-75.02,57.8l-0.22,0
	c-71.37,0-75.24-57.8-75.24-57.8l0.24-0.13l-0.3-0.12c0,0-105.15,39.79-116.32,58.38c0,0,39.73,55.78,42.71,140.07
	c0,0,14.4,194.37,0,348.07c0,0,23.21,15.87,148.91,20.82c125.7-4.96,148.91-20.82,148.91-20.82c-14.4-153.71,0-348.07,0-348.07
	C399.4,120.54,439.13,64.76,439.13,64.76z"/>
<path class="st0" d="M3.57,195.66c0,0,48.93,31.08,86.1,30.04"/>
<path class="st1" d="M3.03,200.12c0,0,48.93,31.08,86.1,30.04"/>
<path class="st0" d="M405.32,225.7c37.16,1.04,86.1-30.04,86.1-30.04"/>
<path class="st1" d="M491.95,200.12c0,0-48.93,31.08-86.1,30.04"/>
<path class="st0" d="M247.51,6.38"/>
<g>
	<path class="st2" d="M247.51,11.49"/>
</g>
<g>
	<path class="st2" d="M247.51,11.49C287.45,11.68,314.24,2,314.24,2v9.59c0,0-37.4,8.24-66.73,8.24l-0.29,0
		c-29.28-0.05-66.43-8.24-66.43-8.24V2c0,0,26.62,9.61,66.35,9.49L247.51,11.49z"/>
	<path class="st2" d="M247.51,64.43c-71.37,0-75.24-57.8-75.24-57.8L180.78,2c0,0,9.26,48.8,66.73,48.8l0.32,0
		C305.01,50.61,314.24,2,314.24,2l8.51,4.63c0,0-3.86,57.68-75.02,57.8L247.51,64.43z"/>
</g>
<path class="Colour4 fill" d="M103.54,305.63h287.95c0.07-2.15,0.14-4.27,0.21-6.36H103.33C103.4,301.36,103.47,303.48,103.54,305.63z"/>
<path class="Colour4 fill" d="M104.07,324.33h286.87c0.04-1.42,0.07-2.84,0.11-4.24h-287.1C104,321.5,104.04,322.91,104.07,324.33z"/>
<path class="Colour2 fill" d="M103.59,474.25c-0.03,0.73-0.06,1.47-0.08,2.2h288c-0.03-0.73-0.06-1.47-0.08-2.2H103.59z"/>
<path class="Colour2 fill" d="M104.78,427.24c-0.01,0.73-0.02,1.47-0.03,2.2h285.52c-0.01-0.73-0.02-1.47-0.03-2.2H104.78z"/>
<path class="Colour2 fill" d="M104.38,448.43c-0.02,0.73-0.04,1.47-0.05,2.2h286.37c-0.02-0.73-0.04-1.47-0.05-2.2H104.38z"/>
<path class="Colour2 fill" d="M103.9,317.78h287.22c0.11-4.13,0.24-8.18,0.36-12.15H103.54C103.66,309.6,103.78,313.65,103.9,317.78z"/>
<path class="Colour2 fill" d="M104.04,461.02c-0.02,0.73-0.04,1.47-0.07,2.2h287.08c-0.02-0.73-0.05-1.47-0.07-2.2H104.04z"/>
<path class="Colour2 fill" d="M100.74,527.19c-0.05,0.73-0.11,1.47-0.16,2.2h293.85c-0.05-0.73-0.11-1.47-0.16-2.2H100.74z"/>
<path class="Colour2 fill" d="M102.99,488.6c-0.03,0.73-0.07,1.47-0.1,2.2h289.23c-0.03-0.73-0.07-1.47-0.1-2.2H102.99z"/>
<path class="Colour2 fill" d="M396.01,548.68h-297c-0.07,0.73-0.13,1.47-0.2,2.2h297.39C396.14,550.15,396.07,549.41,396.01,548.68z"/>
<path class="Colour2 fill" d="M102.06,506.7c-0.04,0.73-0.08,1.47-0.13,2.2h291.14c-0.04-0.73-0.08-1.47-0.13-2.2H102.06z"/>
<path class="Colour2 fill" d="M104.61,437.63c-0.01,0.73-0.03,1.47-0.04,2.2h285.88c-0.01-0.73-0.03-1.47-0.04-2.2H104.61z"/>
<path class="Colour2 fill" d="M104.84,365.84c0.03,2.46,0.05,4.94,0.07,7.42h285.2c0.02-2.49,0.04-4.96,0.07-7.42H104.84z"/>
<path class="Colour2 fill" d="M104.48,342.51c0.05,2.46,0.09,4.93,0.13,7.42H390.4c0.04-2.49,0.09-4.97,0.13-7.42H104.48z"/>
<path class="Colour2 fill" d="M104.69,354.18c0.04,2.46,0.07,4.93,0.1,7.42h285.44c0.03-2.49,0.07-4.97,0.1-7.42H104.69z"/>
<path class="Colour2 fill" d="M104.89,417.74c-0.01,0.73-0.01,1.47-0.02,2.2h285.28c-0.01-0.73-0.02-1.47-0.02-2.2H104.89z"/>
<path class="Colour2 fill" d="M104.23,330.84c0.06,2.45,0.11,4.93,0.16,7.42h286.22c0.05-2.5,0.11-4.97,0.16-7.42H104.23z"/>
<path class="Colour2 fill" d="M104.95,410.15c0,0.73-0.01,1.47-0.01,2.2h285.15c-0.01-0.73-0.01-1.47-0.01-2.2H104.95z"/>
<path class="Colour2 fill" d="M390.02,389.18H104.99c0.01,2.46,0.01,4.94,0.01,7.42h285.02C390.02,394.12,390.02,391.64,390.02,389.18z"
	/>
<path class="Colour2 fill" d="M104.94,377.51c0.02,2.46,0.03,4.94,0.04,7.42h285.06c0.01-2.49,0.02-4.96,0.04-7.42H104.94z"/>
<path class="Colour3 fill" d="M390.02,396.6H105c0,1.41,0,2.83-0.01,4.24h285.03C390.02,399.43,390.02,398.01,390.02,396.6z"/>
<path class="Colour3 fill" d="M104.98,384.93c0.01,1.41,0.01,2.82,0.01,4.24h285.03c0-1.42,0.01-2.83,0.01-4.24H104.98z"/>
<path class="Colour3 fill" d="M104.91,373.27c0.01,1.41,0.02,2.82,0.03,4.24h285.13c0.01-1.42,0.02-2.83,0.03-4.24H104.91z"/>
<path class="Colour3 fill" d="M104.79,361.6c0.02,1.41,0.03,2.82,0.05,4.24h285.34c0.02-1.42,0.03-2.83,0.05-4.24H104.79z"/>
<path class="Colour3 fill" d="M104.4,338.27c0.03,1.41,0.06,2.82,0.09,4.24h286.05c0.03-1.42,0.06-2.84,0.09-4.24H104.4z"/>
<path class="Colour3 fill" d="M104.62,349.93c0.02,1.41,0.05,2.82,0.07,4.24h285.65c0.02-1.42,0.04-2.83,0.07-4.24H104.62z"/>
<path class="st3" d="M247.83,50.8l-0.32,0c-40.44,0-57.01-24.16-63.28-38.48c9.87,2,39.05,7.48,62.98,7.52l0.29,0
	c23.99,0,53.37-5.51,63.28-7.52C304.53,26.59,288.04,50.67,247.83,50.8z"/>
<path class="NeckAndArmTrim fill" d="M247.51,11.49C287.45,11.68,314.24,2,314.24,2v9.59c0,0-37.4,8.24-66.73,8.24l-0.29,0
	c-29.28-0.05-66.43-8.24-66.43-8.24V2c0,0,26.62,9.61,66.35,9.49L247.51,11.49z"/>
<path class="NeckAndArmTrim fill" d="M247.51,64.43c-71.37,0-75.24-57.8-75.24-57.8L180.78,2c0,0,9.26,48.8,66.73,48.8l0.32,0
	C305.01,50.61,314.24,2,314.24,2l8.51,4.63c0,0-3.86,57.68-75.02,57.8L247.51,64.43z"/>
<g id="FBodyLogos"></g>
<path class="BottomHem fill" d="M247.3,559.16c124.54-4.96,147.54-20.82,147.54-20.82l1.37,14.84c0,0-34.6,17.88-149.34,20.82
	c0,0-105.75-1.2-148.48-20.82l1.37-14.84C99.75,538.33,122.75,554.2,247.3,559.16"/>
<g>
	<path class="st4" d="M395.03,538.06c0,0-23,15.87-147.54,20.82"/>
	<path class="st4" d="M247.49,558.89c-124.54-4.96-147.54-20.82-147.54-20.82"/>
</g>
<g>
	<path class="st5" d="M395.03,542.52c0,0-23,15.87-147.54,20.82"/>
	<path class="st5" d="M247.49,563.35c-124.54-4.96-147.54-20.82-147.54-20.82"/>
</g>
<g>
	<path class="st6" d="M314.24,2c0,0-26.79,9.68-66.73,9.49l-0.38,0C207.4,11.61,180.78,2,180.78,2l-8.51,4.63
		c0,0,3.87,57.8,75.24,57.8l0.22,0c71.16-0.12,75.02-57.8,75.02-57.8L314.24,2z M247.83,50.8l-0.32,0
		c-40.44,0-57.01-24.16-63.28-38.48c9.86,2,39.04,7.48,62.98,7.52l0.29,0c23.99,0,53.38-5.52,63.28-7.52
		C304.53,26.59,288.04,50.67,247.83,50.8z"/>
	<g>
		<path class="st6" d="M439.13,64.76c0,0,46.18,55.04,54.37,148.75c0,0-64.06,39.05-86.4,25.66c0,0,1.37-13.64-10.68-34.34
			C396.42,204.83,396.3,130.58,439.13,64.76z"/>
		<path class="st6" d="M55.89,64.76c0,0-46.18,55.04-54.37,148.75c0,0,64.06,39.05,86.4,25.66c0,0-1.37-13.64,10.68-34.34
			C98.6,204.83,98.72,130.58,55.89,64.76z"/>
		<g>
			<path class="st6" d="M439.14,64.76C427.97,46.17,322.82,6.38,322.82,6.38l-0.31,0.11l0.26,0.14c0,0-3.86,57.68-75.02,57.8
				l-0.22,0c-71.37,0-75.24-57.8-75.24-57.8l0.24-0.13l-0.3-0.12c0,0-105.15,39.79-116.32,58.38c0,0,39.73,55.78,42.71,140.07
				c0,0,14.4,194.37,0,348.07c0,0,23.21,15.87,148.91,20.82c125.7-4.96,148.91-20.82,148.91-20.82c-14.4-153.71,0-348.07,0-348.07
				C399.42,120.54,439.14,64.76,439.14,64.76z"/>
		</g>
	</g>
</g>
</svg>
