<?xml version="1.0" encoding="utf-8"?>
<!-- Generator: Adobe Illustrator 19.1.0, SVG Export Plug-In . SVG Version: 6.00 Build 0)  -->
<svg version="1.1" id="Layer_1" xmlns="http://www.w3.org/2000/svg" xmlns:xlink="http://www.w3.org/1999/xlink" x="0px" y="0px"
	 viewBox="0 0 495 576" style="enable-background:new 0 0 495 576;" xml:space="preserve">
<style type="text/css">
	<![CDATA[
	@font-face{font-family:'codaheavy';src:url('/fonts/coda-heavy-webfont.woff') format('woff')}
	text{font-family:Impact,codaheavy,sans-serif}
	.Number.fill{fill:#000}
	.NumberOutline.stroke{fill:none;stroke:#777;stroke-width:2.5}
	.Colour1.fill{fill:#000000;}
	.Colour2.fill{fill:#6D9421;}
	.Colour3.fill{fill:#0B4903;}
	.Colour4.fill{fill:#FFFFFF;}
	.NeckAndArmTrim.fill{fill:#52A035;}
	.BottomHem.fill{fill:#000000;}
	.st0{fill:none;stroke:#000000;stroke-width:0.25;stroke-miterlimit:10;}
	.st1{fill:none;stroke:#000000;stroke-width:0.25;stroke-miterlimit:10;stroke-dasharray:2;}
	.st2{fill:#52A035;}
	.st3{fill:none;stroke:#58595B;stroke-width:0.25;stroke-miterlimit:10;}
	.st4{fill:none;stroke:#58595B;stroke-width:0.25;stroke-miterlimit:10;stroke-dasharray:2;}
	]]>
</style>
<path class="Colour1 fill" d="M247.18,574c-125.42-4.97-148.59-20.8-148.59-20.8c14.4-153.63,0-347.89,0-347.89
	c-2.98-84.25-42.71-140-42.71-140C67.05,46.72,172.2,6.95,172.2,6.95l0.12,0.01c0,0,29.99,12.39,74.75,12.25l0.43,0
	c45,0.21,75.18-12.25,75.18-12.25l0.12-0.01c0,0,105.15,39.77,116.33,58.35c0,0-39.73,55.75-42.71,140c0,0-14.4,194.27,0,347.89
	c0,0-23.17,15.83-148.57,20.8L247.18,574z"/>
<path class="Colour1 fill" d="M439.12,65.31c0,0,46.18,55.01,54.38,148.67c0,0-64.06,39.03-86.41,25.65c0,0,1.37-13.63-10.68-34.32
	C396.42,205.31,396.29,131.09,439.12,65.31z"/>
<path class="Colour1 fill" d="M55.88,65.31c0,0-46.18,55.01-54.38,148.67c0,0,64.06,39.03,86.41,25.65c0,0-1.37-13.63,10.68-34.32
	C98.58,205.31,98.71,131.09,55.88,65.31z"/>
<path class="NeckAndArmTrim fill" d="M419.26,241.84c-4.7,0-8.59-0.85-11.56-2.53c0.07-1.29,0.13-5.73-1.6-12.55
	c0.35,0.01,0.69,0.01,1.04,0.01c34.14,0,77.58-25.84,83.83-29.67c0.77,5.38,1.41,10.9,1.91,16.57
	C488.8,216.12,445.19,241.84,419.26,241.84z"/>
<path class="NeckAndArmTrim fill" d="M2.1,213.67c0.5-5.66,1.15-11.19,1.91-16.57c6.25,3.83,49.69,29.67,83.83,29.67
	c0.35,0,0.7-0.01,1.04-0.01c-1.73,6.82-1.67,11.26-1.6,12.55c-2.97,1.68-6.85,2.53-11.56,2.53C49.81,241.84,6.2,216.12,2.1,213.67z"
	/>
<path class="st0" d="M3.57,196.14c0,0,48.93,31.06,86.1,30.03"/>
<path class="st1" d="M3.03,200.6c0,0,48.93,31.06,86.1,30.03"/>
<path class="st0" d="M491.43,196.14c0,0-48.93,31.06-86.1,30.03"/>
<path class="st1" d="M491.97,200.6c0,0-48.93,31.06-86.1,30.03"/>
<g>
	<path class="st1" d="M395.05,542.82c0,0-23,15.86-147.55,20.81"/>
	<path class="st1" d="M247.5,563.64c-124.55-4.96-147.55-20.81-147.55-20.81"/>
</g>
<path class="Colour4 fill" d="M103.52,305.77h287.96c0.07-2.14,0.14-4.26,0.21-6.36H103.31C103.38,301.5,103.45,303.62,103.52,305.77z"/>
<path class="Colour4 fill" d="M104.06,324.46h286.88c0.04-1.42,0.07-2.83,0.11-4.24H103.95C103.98,321.63,104.02,323.04,104.06,324.46z"
	/>
<path class="Colour2 fill" d="M103.58,474.3c-0.03,0.73-0.06,1.47-0.08,2.2h288.01c-0.03-0.73-0.06-1.47-0.08-2.2H103.58z"/>
<path class="Colour2 fill" d="M104.76,427.31c-0.01,0.73-0.02,1.46-0.03,2.2h285.54c-0.01-0.73-0.02-1.47-0.03-2.2H104.76z"/>
<path class="Colour2 fill" d="M104.37,448.49c-0.02,0.73-0.04,1.47-0.05,2.2h286.38c-0.02-0.73-0.04-1.47-0.05-2.2H104.37z"/>
<path class="Colour2 fill" d="M103.88,317.91h287.23c0.11-4.12,0.24-8.17,0.36-12.14H103.52C103.65,309.73,103.77,313.78,103.88,317.91z"
	/>
<path class="Colour2 fill" d="M104.02,461.08c-0.02,0.73-0.04,1.47-0.07,2.2h287.09c-0.02-0.73-0.05-1.47-0.07-2.2H104.02z"/>
<path class="Colour2 fill" d="M100.73,527.21c-0.05,0.73-0.11,1.47-0.16,2.2h293.86c-0.05-0.73-0.11-1.46-0.16-2.2H100.73z"/>
<path class="Colour2 fill" d="M102.98,488.64c-0.03,0.73-0.07,1.47-0.1,2.2h289.24c-0.03-0.73-0.07-1.47-0.1-2.2H102.98z"/>
<path class="Colour2 fill" d="M396,548.69H99c-0.07,0.73-0.13,1.47-0.2,2.2h297.4C396.14,550.16,396.07,549.43,396,548.69z"/>
<path class="Colour2 fill" d="M102.05,506.73c-0.04,0.73-0.08,1.47-0.13,2.2h291.16c-0.04-0.73-0.08-1.46-0.13-2.2H102.05z"/>
<path class="Colour2 fill" d="M104.6,437.7c-0.01,0.73-0.03,1.47-0.04,2.2h285.9c-0.01-0.73-0.03-1.47-0.04-2.2H104.6z"/>
<path class="Colour2 fill" d="M104.82,365.95c0.03,2.46,0.05,4.93,0.07,7.42H390.1c0.02-2.49,0.04-4.96,0.07-7.42H104.82z"/>
<path class="Colour2 fill" d="M104.47,342.63c0.05,2.45,0.09,4.93,0.13,7.42h285.8c0.04-2.49,0.09-4.97,0.13-7.42H104.47z"/>
<path class="Colour2 fill" d="M104.67,354.29c0.04,2.46,0.07,4.93,0.1,7.42h285.45c0.03-2.49,0.07-4.96,0.1-7.42H104.67z"/>
<path class="Colour2 fill" d="M104.88,417.82c-0.01,0.73-0.01,1.46-0.02,2.2h285.29c-0.01-0.73-0.02-1.47-0.02-2.2H104.88z"/>
<path class="Colour2 fill" d="M104.22,330.97c0.06,2.45,0.11,4.93,0.16,7.42h286.23c0.05-2.49,0.11-4.97,0.16-7.42H104.22z"/>
<path class="Colour2 fill" d="M104.94,410.23c0,0.73-0.01,1.46-0.01,2.2h285.16c-0.01-0.73-0.01-1.47-0.01-2.2H104.94z"/>
<path class="Colour2 fill" d="M390.02,389.27H104.98c0.01,2.46,0.01,4.94,0.01,7.42h285.03C390.01,394.21,390.02,391.73,390.02,389.27z"
	/>
<path class="Colour2 fill" d="M104.93,377.61c0.02,2.46,0.03,4.94,0.04,7.42h285.07c0.01-2.49,0.02-4.96,0.04-7.42H104.93z"/>
<path class="Colour3 fill" d="M390.02,396.69H104.98c0,1.41,0,2.82-0.01,4.24h285.04C390.02,399.52,390.02,398.1,390.02,396.69z"/>
<path class="Colour3 fill" d="M104.97,385.03c0.01,1.41,0.01,2.82,0.01,4.24h285.04c0-1.42,0.01-2.83,0.01-4.24H104.97z"/>
<path class="Colour3 fill" d="M104.9,373.37c0.01,1.41,0.02,2.82,0.03,4.24h285.15c0.01-1.42,0.02-2.83,0.03-4.24H104.9z"/>
<path class="Colour3 fill" d="M104.77,361.71c0.02,1.41,0.03,2.82,0.05,4.24h285.35c0.02-1.42,0.03-2.83,0.05-4.24H104.77z"/>
<path class="Colour3 fill" d="M104.38,338.39c0.03,1.41,0.06,2.82,0.09,4.24h286.06c0.03-1.42,0.06-2.83,0.09-4.24H104.38z"/>
<path class="Colour3 fill" d="M104.6,350.05c0.02,1.41,0.05,2.82,0.07,4.24h285.66c0.02-1.42,0.04-2.83,0.07-4.24H104.6z"/>
<path class="st2" d="M310.75,2.01l-0.1,0.01c0,0-25.35,9.15-63.15,8.97l-0.36,0c-37.6,0.12-62.79-8.97-62.79-8.97l-0.1-0.01
	l-11.93,4.95c0,0,29.99,12.39,74.75,12.25l0.43,0c45,0.21,75.18-12.25,75.18-12.25L310.75,2.01z"/>
<g id="BBodyLogos"></g>
<path class="BottomHem fill" d="M247.29,559.16c124.55-4.96,147.55-20.81,147.55-20.81l1.37,14.84c0,0-34.6,17.87-149.34,20.81
	c0,0-105.75-1.2-148.49-20.81l1.37-14.84C99.74,538.35,122.74,554.21,247.29,559.16"/>
<g>
	<path class="st3" d="M395.05,538.36c0,0-23,15.86-147.55,20.81"/>
	<path class="st3" d="M247.5,559.18c-124.55-4.96-147.55-20.81-147.55-20.81"/>
</g>
<g>
	<path class="st4" d="M247.5,563.64c124.55-4.96,147.55-20.81,147.55-20.81"/>
	<path class="st4" d="M247.5,563.64c-124.55-4.96-147.55-20.81-147.55-20.81"/>
</g>
<g>
	<path class="st3" d="M439.12,65.29c0,0,46.18,55.01,54.38,148.67c0,0-64.06,39.03-86.41,25.65c0,0,1.37-13.63-10.68-34.32
		C396.42,205.29,396.29,131.08,439.12,65.29z"/>
	<path class="st3" d="M55.88,65.29c0,0-46.18,55.01-54.38,148.67c0,0,64.06,39.03,86.41,25.65c0,0-1.37-13.63,10.68-34.32
		C98.58,205.29,98.71,131.08,55.88,65.29z"/>
	<path class="st3" d="M247.5,574c125.7-4.96,148.92-20.81,148.92-20.81c-14.4-153.63,0-347.89,0-347.89
		c2.98-84.25,42.71-140,42.71-140C427.95,46.71,322.8,6.94,322.8,6.94l-0.12,0.01c0,0-30.18,12.46-75.18,12.25l-0.43,0
		c-44.76,0.14-74.75-12.25-74.75-12.25l-0.12-0.01c0,0-105.15,39.77-116.33,58.35c0,0,39.73,55.75,42.71,140
		c0,0,14.4,194.27,0,347.89C98.58,553.19,121.8,569.04,247.5,574"/>
	<path class="st3" d="M310.75,2l-0.1,0.01c0,0-25.35,9.15-63.15,8.97l-0.36,0c-37.6,0.12-62.79-8.97-62.79-8.97L184.25,2
		l-11.93,4.95c0,0,29.99,12.39,74.75,12.25l0.43,0c45,0.21,75.18-12.25,75.18-12.25L310.75,2z"/>
</g>
</svg>
