<?xml version="1.0" encoding="utf-8"?>
<!-- Generator: Adobe Illustrator 19.1.0, SVG Export Plug-In . SVG Version: 6.00 Build 0)  -->
<svg version="1.1" id="Layer_1" xmlns="http://www.w3.org/2000/svg" xmlns:xlink="http://www.w3.org/1999/xlink" x="0px" y="0px"
	 viewBox="0 0 495 576" style="enable-background:new 0 0 495 576;" xml:space="preserve">
<style type="text/css">
	<![CDATA[
	@font-face{font-family:'codaheavy';src:url('/fonts/coda-heavy-webfont.woff') format('woff')}
	text{font-family:Impact,codaheavy,sans-serif}
	.Colour1.fill{fill:#231F20;}
	.Colour2.fill{fill:#C8181B;}
	.Colour3.fill{fill:#303030;}
	.Colour4.fill{fill:#424147;}
	.Colour5.fill{fill:#CA1A1D;}
	.NeckTrim.fill{fill:#1C181A;stroke:#000000;stroke-width:0.25;stroke-miterlimit:10;}
	.BottomHem.fill{fill:#0D143A;}
	.st0{fill:#FFFFFF;stroke:#000000;stroke-width:0.25;stroke-miterlimit:10;}
	.st1{fill:#004CAA;}
	.st2{fill:#FFFFFF;}
	.st3{fill:none;stroke:#000000;stroke-width:0.25;stroke-miterlimit:10;}
	.st4{fill:none;stroke:#000000;stroke-width:0.25;stroke-miterlimit:10;stroke-dasharray:2;}
	]]>
</style>
<path class="Colour1 fill" d="M439.11,64.76c0,0,46.18,55.04,54.38,148.75c0,0-64.06,39.05-86.41,25.66c0,0,1.37-13.64-10.68-34.34
	C396.41,204.83,396.28,130.58,439.11,64.76z"/>
<path class="Colour1 fill" d="M55.88,64.76c0,0-46.18,55.04-54.38,148.75c0,0,64.06,39.05,86.41,25.66c0,0-1.37-13.64,10.68-34.34
	C98.58,204.83,98.71,130.58,55.88,64.76z"/>
<path class="Colour1 fill" d="M439.13,64.76C427.96,46.17,322.81,6.38,322.81,6.38l-0.31,0.11l0.26,0.14c0,0-3.86,57.68-75.02,57.8
	l-0.22,0c-71.37,0-75.24-57.8-75.24-57.8l0.24-0.13l-0.3-0.12c0,0-105.15,39.79-116.32,58.38c0,0,39.73,55.78,42.71,140.07
	c0,0,14.4,194.37,0,348.07c0,0,23.21,15.87,148.91,20.82c125.7-4.96,148.91-20.82,148.91-20.82c-14.4-153.71,0-348.07,0-348.07
	C399.41,120.54,439.13,64.76,439.13,64.76z"/>
<g>
	<path class="st0" d="M247.51,11.49C287.45,11.68,314.24,2,314.24,2v9.59c0,0-37.4,8.24-66.73,8.24l-0.29,0
		c-29.28-0.05-66.43-8.24-66.43-8.24V2c0,0,26.62,9.61,66.35,9.49L247.51,11.49z"/>
	<path class="st0" d="M247.51,64.43c-71.37,0-75.24-57.8-75.24-57.8L180.79,2c0,0,9.26,48.8,66.73,48.8l0.32,0
		C305.02,50.61,314.24,2,314.24,2l8.51,4.63c0,0-3.86,57.68-75.02,57.8L247.51,64.43z"/>
</g>
<path class="st1" d="M247.51,31.55"/>
<path class="st2" d="M247.83,50.8l-0.32,0c-40.44,0-57.01-24.16-63.28-38.48c9.87,2,39.05,7.48,62.98,7.52l0.29,0
	c23.99,0,53.37-5.51,63.28-7.52C304.54,26.59,288.04,50.67,247.83,50.8z"/>
<path class="NeckTrim fill" d="M247.51,11.49C287.45,11.68,314.24,2,314.24,2v9.59c0,0-37.4,8.24-66.73,8.24l-0.29,0
	c-29.28-0.05-66.43-8.24-66.43-8.24V2c0,0,26.62,9.61,66.35,9.49L247.51,11.49z"/>
<path class="NeckTrim fill" d="M247.51,64.43c-71.37,0-75.24-57.8-75.24-57.8L180.79,2c0,0,9.26,48.8,66.73,48.8l0.32,0
	C305.02,50.61,314.24,2,314.24,2l8.51,4.63c0,0-3.86,57.68-75.02,57.8L247.51,64.43z"/>
<path class="Colour3 fill" d="M321.29,292.09l-73.77,46.25l-73.77-46.25l-54.43-109.94l-24.5-14.6c1.32,7.81,2.36,15.99,3.04,24.49
	l11.56,7.06l62.87,145.02l31.07,227.18c13.1,0.96,27.75,1.8,44.17,2.44c16.42-0.65,31.07-1.48,44.17-2.44l31.07-227.18l62.87-145.02
	l11.55-7c0.68-8.44,1.71-16.57,3.01-24.33l-24.47,14.38L321.29,292.09z"/>
<path class="Colour4 fill" d="M321.29,292.09l-73.77,46.25l-73.77-46.25l-54.43-109.94l-24.5-14.6c0.7,4.14,1.31,8.39,1.85,12.73
	l22.65,13.51l54.43,109.94l73.77,46.25l73.77-46.25l54.43-109.94l22.63-13.3c0.53-4.34,1.14-8.58,1.84-12.72l-24.47,14.38
	L321.29,292.09z"/>
<g>
	<g>
		<path class="Colour3 fill" d="M338.13,345.64l53.5-44.77c0.47-14.24,1.01-27.36,1.55-39.04l-30.9,25.86L338.13,345.64z"/>
	</g>
	<g>
		<path class="Colour3 fill" d="M336.13,350.44l-3.7,27.57l58.39-48.86c0.33-13.69,0.73-26.67,1.17-38.72l-47.38,39.65L336.13,350.44z"/>
	</g>
	<g>
		<path class="Colour3 fill" d="M328.26,409.09l62.03-51.91c0.19-13.33,0.47-26.19,0.8-38.41l-57.13,47.8L328.26,409.09z"/>
	</g>
	<g>
		<path class="Colour3 fill" d="M324.09,440.18l65.95-55.19c0.05-13.05,0.19-25.8,0.41-38.09l-60.66,50.76L324.09,440.18z"/>
	</g>
	<g>
		<path class="Colour3 fill" d="M325.62,428.76l-5.7,42.51l70.17-58.72c-0.1-12.81-0.09-25.44,0.01-37.75L325.62,428.76z"/>
	</g>
	<g>
		<path class="Colour3 fill" d="M321.45,459.85l-5.7,42.51l74.71-62.52c-0.25-12.59-0.38-25.09-0.43-37.39L321.45,459.85z"/>
	</g>
	<g>
		<path class="Colour3 fill" d="M317.28,490.94l-5.7,42.51l79.6-66.61c-0.42-12.38-0.71-24.75-0.89-36.99L317.28,490.94z"/>
	</g>
</g>
<path class="Colour3 fill" d="M457.27,139.22l11.94-22.31c-1.43-3.3-2.87-6.45-4.31-9.46l-15.39,29.74l19.16,59.72
	c-22.47-0.92-50.52-9.38-70.38-16.43c-0.44,3.47-0.77,6.64-1.03,9.46c44.47,13.88,70.44,14.66,70.44,14.66l7.71,18.87
	c3.3-1.68,6.3-3.28,8.85-4.68L457.27,139.22z"/>
<path class="Colour5 fill" d="M407.03,137.19c-1.76,6.25-3.39,12.85-4.82,19.76l-31.53,19.58l-56.43,98.16l48.78-109.92L407.03,137.19z
	 M87.96,137.19c1.76,6.25,3.39,12.85,4.82,19.76l31.53,19.58l56.43,98.16l-48.78-109.92L87.96,137.19z"/>
<g>
	<g>
		<path class="Colour3 fill" d="M156.86,345.64l-53.5-44.77c-0.47-14.24-1.01-27.36-1.55-39.04l30.9,25.86L156.86,345.64z"/>
	</g>
	<g>
		<path class="Colour3 fill" d="M158.86,350.44l3.7,27.57l-58.39-48.86c-0.33-13.69-0.73-26.67-1.17-38.72l47.38,39.65L158.86,350.44z"/>
	</g>
	<g>
		<path class="Colour3 fill" d="M166.73,409.09l-62.03-51.91c-0.19-13.33-0.47-26.19-0.8-38.41l57.13,47.8L166.73,409.09z"/>
	</g>
	<g>
		<path class="Colour3 fill" d="M170.9,440.18l-65.95-55.19c-0.05-13.05-0.19-25.8-0.41-38.09l60.66,50.76L170.9,440.18z"/>
	</g>
	<g>
		<path class="Colour3 fill" d="M169.37,428.76l5.7,42.51l-70.17-58.72c0.1-12.81,0.09-25.44-0.01-37.75L169.37,428.76z"/>
	</g>
	<g>
		<path class="Colour3 fill" d="M173.54,459.85l5.7,42.51l-74.71-62.52c0.25-12.59,0.38-25.09,0.43-37.39L173.54,459.85z"/>
	</g>
	<g>
		<path class="Colour3 fill" d="M177.71,490.94l5.7,42.51l-79.6-66.61c0.42-12.38,0.71-24.75,0.89-36.99L177.71,490.94z"/>
	</g>
</g>
<path class="Colour3 fill" d="M37.72,139.22l-11.94-22.31c1.43-3.3,2.87-6.45,4.31-9.46l15.39,29.74l-19.16,59.72
	c22.47-0.92,50.52-9.38,70.38-16.43c0.44,3.47,0.77,6.64,1.03,9.46c-44.47,13.88-70.44,14.66-70.44,14.66l-7.71,18.87
	c-3.3-1.68-6.3-3.28-8.85-4.68L37.72,139.22z"/>
<path class="Colour2 fill" d="M301.47,267.37l-26.98,18.18l-26.98,18.18l-40.72-27.44l-13.24-8.92l0,0h0l0,0l-42.97-83.01l42.97,52.92
	V47.21c11.16,9.65,28.14,17.21,53.95,17.21l0.22,0c25.69-0.04,42.6-7.59,53.74-17.21v190.06l42.97-52.92L301.47,267.37z
	 M392.18,491.44c-0.23-4.89-0.44-9.79-0.64-14.69l-44.14,37.78l-17.44,53.16c4.53-0.54,8.77-1.09,12.74-1.65l14.71-44.83
	L392.18,491.44z M390.26,220.56l5.29-2.58c0.09-1.44,0.18-2.77,0.25-3.98l-8.25,4.02l-54.72,131.3l-0.09,0.21l-29.63,220.86
	c1.2-0.1,2.38-0.21,3.55-0.31l29.47-219.64L390.26,220.56z M137.59,521.2l14.71,44.83c3.96,0.56,8.2,1.11,12.74,1.65l-17.44-53.16
	l-44.14-37.78c-0.19,4.9-0.4,9.8-0.64,14.69L137.59,521.2z M158.86,350.44l29.47,219.64c1.17,0.1,2.35,0.21,3.55,0.31l-29.63-220.86
	l-0.09-0.21l-54.72-131.3L99.19,214c0.08,1.22,0.16,2.54,0.25,3.98l5.29,2.58L158.86,350.44z M368.67,25.05V142.3l45.01-25.77
	c11.88-32.69,25.46-51.77,25.46-51.77C433,54.55,398.51,37.94,368.67,25.05z M420.65,98.95c5.04-11.37,11.12-22.9,18.46-34.19
	c0,0,7.9,9.42,17.74,27.09C443.98,96.73,430.39,98.42,420.65,98.95z M401.21,162.02c2.55-13.42,6.45-29.07,12.43-45.58l0.04,0.08
	l20.61,58.95L401.21,162.02z M397.9,183.66c0.21-1.86,0.46-3.81,0.73-5.86c29.9,10.67,55.67,14.57,65.56,15.76l-17.81-56.66
	l17.2-32.17c1.03,2.09,2.06,4.26,3.09,6.51l-14.04,26.25l19.69,62.64l-4.27-0.33C467.57,199.75,436.22,197.16,397.9,183.66z
	 M126.33,25.05V142.3l-45.01-25.77C69.44,83.84,55.86,64.76,55.86,64.76C62,54.55,96.48,37.94,126.33,25.05z M38.13,91.85
	c9.84-17.67,17.74-27.09,17.74-27.09c7.34,11.29,13.42,22.82,18.46,34.19C64.6,98.42,51.01,96.73,38.13,91.85z M60.7,175.47
	l20.61-58.95l0.04-0.08c5.97,16.51,9.88,32.16,12.43,45.58L60.7,175.47z M26.93,199.79l-4.27,0.33l19.69-62.64l-14.04-26.25
	c1.03-2.25,2.06-4.41,3.09-6.51l17.2,32.17L30.8,193.56c9.89-1.2,35.66-5.09,65.56-15.76c0.28,2.05,0.52,4.01,0.73,5.86
	C58.77,197.16,27.42,199.75,26.93,199.79z"/>
<g id="FBodyLogos"></g>
<g>
	<path class="st3" d="M3.57,195.94c0,0,48.93,31.08,86.1,30.04"/>
	<path class="st4" d="M3.03,200.41c0,0,48.93,31.08,86.1,30.04"/>
	<path class="st3" d="M491.42,195.94c0,0-48.93,31.08-86.1,30.04"/>
	<path class="st4" d="M491.96,200.41c0,0-48.93,31.08-86.1,30.04"/>
</g>
<g>
	<path class="st3" d="M395.06,538.34c0,0-23,15.87-147.55,20.82"/>
	<path class="st3" d="M247.51,559.17c-124.55-4.96-147.55-20.82-147.55-20.82"/>
</g>
<g>
	<path class="st4" d="M247.51,563.63c124.55-4.96,147.55-20.82,147.55-20.82"/>
	<path class="st4" d="M247.51,563.63c-124.55-4.96-147.55-20.82-147.55-20.82"/>
</g>
<g>
	<path class="st3" d="M314.23,2.27c0,0-26.79,9.68-66.73,9.49l-0.38,0c-39.73,0.13-66.35-9.49-66.35-9.49l-8.51,4.63
		c0,0,3.87,57.8,75.24,57.8l0.22,0c71.16-0.12,75.02-57.8,75.02-57.8L314.23,2.27z M247.83,51.06l-0.32,0
		c-40.44,0-57.01-24.16-63.28-38.48c9.86,2,39.05,7.48,62.98,7.52l0.29,0c23.99,0,53.38-5.52,63.28-7.52
		C304.53,26.86,288.03,50.94,247.83,51.06z"/>
	<g>
		<path class="st3" d="M439.12,65.03c0,0,46.18,55.04,54.38,148.75c0,0-64.06,39.05-86.41,25.66c0,0,1.37-13.64-10.68-34.34
			C396.42,205.1,396.29,130.85,439.12,65.03z"/>
		<path class="st3" d="M55.89,65.03c0,0-46.18,55.04-54.38,148.75c0,0,64.06,39.05,86.41,25.66c0,0-1.37-13.64,10.68-34.34
			C98.59,205.1,98.72,130.85,55.89,65.03z"/>
		<g>
			<path class="st3" d="M439.14,65.03C427.97,46.44,322.82,6.65,322.82,6.65l-0.31,0.11l0.26,0.14c0,0-3.86,57.68-75.02,57.8
				l-0.22,0c-71.37,0-75.24-57.8-75.24-57.8l0.24-0.13l-0.3-0.12c0,0-105.15,39.79-116.32,58.38c0,0,39.73,55.78,42.71,140.07
				c0,0,14.4,194.37,0,348.07c0,0,23.21,15.87,148.91,20.82c125.7-4.96,148.91-20.82,148.91-20.82c-14.4-153.71,0-348.07,0-348.07
				C399.42,120.81,439.14,65.03,439.14,65.03z"/>
		</g>
	</g>
</g>
<path class="BottomHem fill" d="M247.5,559.16c124.55-4.96,147.55-20.81,147.55-20.81l1.37,14.84c0,0-34.6,17.87-149.34,20.81
	c0,0-105.75-1.2-148.49-20.81l1.37-14.84C99.96,538.35,122.96,554.21,247.5,559.16"/>
</svg>
