<?xml version="1.0" encoding="utf-8"?>
<!-- Generator: Adobe Illustrator 19.1.0, SVG Export Plug-In . SVG Version: 6.00 Build 0)  -->
<svg version="1.1" id="Layer_1" xmlns="http://www.w3.org/2000/svg" xmlns:xlink="http://www.w3.org/1999/xlink" x="0px" y="0px"
	 viewBox="0 0 495 576" style="enable-background:new 0 0 495 576;" xml:space="preserve">
<style type="text/css">
	<![CDATA[
	@font-face{font-family:'codaheavy';src:url('/fonts/coda-heavy-webfont.woff') format('woff')}
	text{font-family:Impact,codaheavy,sans-serif}
	.Number.fill{fill:#000}
	.NumberOutline.stroke{fill:none;stroke:#777;stroke-width:2.5}
	.Colour1.fill{fill:#231F20;}
	.Colour2.fill{fill:#C8181B;}
	.Colour3.fill{fill:#303030;}
	.Colour4.fill{fill:#424147;}
	.Colour5.fill{fill:#CA1A1D;}
	.NeckTrim.fill{fill:#1C181A;stroke:#000000;stroke-width:0.25;stroke-miterlimit:10;}
	.BottomHem.fill{fill:#0D143A;}
	.st0{fill:none;stroke:#000000;stroke-width:0.25;stroke-miterlimit:10;stroke-dasharray:2;}
	.st1{fill:none;stroke:#000000;stroke-width:0.25;stroke-miterlimit:10;}
	]]>
</style>
<path class="Colour1 fill" d="M247.85,573.99c125.4-4.97,148.57-20.8,148.57-20.8c-14.4-153.62,0-347.89,0-347.89
	c2.98-84.25,42.71-140,42.71-140C427.95,46.72,322.8,6.95,322.8,6.95l-0.12,0.01c0,0-30.18,12.46-75.17,12.25l-0.43,0
	c-44.76,0.14-74.75-12.25-74.75-12.25l-0.12-0.01c0,0-105.15,39.77-116.32,58.35c0,0,39.73,55.75,42.71,140
	c0,0,14.4,194.26,0,347.89c0,0,23.17,15.83,148.59,20.8L247.85,573.99z"/>
<path class="Colour1 fill" d="M247.5,559.16c124.55-4.96,147.55-20.81,147.55-20.81l1.37,14.84c0,0-34.6,17.87-149.34,20.81
	c0,0-105.75-1.2-148.49-20.81l1.37-14.84C99.96,538.35,122.96,554.21,247.5,559.16"/>
<path class="Colour1 fill" d="M439.12,65.3c0,0,46.18,55.01,54.38,148.67c0,0-64.06,39.03-86.41,25.65c0,0,1.37-13.63-10.68-34.32
	C396.42,205.3,396.29,131.09,439.12,65.3z"/>
<path class="Colour1 fill" d="M55.89,65.3c0,0-46.18,55.01-54.38,148.67c0,0,64.06,39.03,86.41,25.65c0,0-1.37-13.63,10.68-34.32
	C98.59,205.3,98.72,131.09,55.89,65.3z"/>
<g>
	<path class="st0" d="M395.05,542.81c0,0-23,15.86-147.55,20.81"/>
	<path class="st0" d="M247.5,563.62c-124.55-4.96-147.55-20.81-147.55-20.81"/>
</g>
<path class="NeckTrim fill" d="M310.75,2.01l-0.1,0.01c0,0-25.35,9.15-63.15,8.97l-0.36,0c-37.6,0.12-62.79-8.97-62.79-8.97l-0.1-0.01
	l-11.93,4.95c0,0,29.99,12.39,74.75,12.25l0.43,0c44.99,0.21,75.17-12.25,75.17-12.25L310.75,2.01z"/>
<g>
	<g>
		<path class="Colour4 fill" d="M321.3,292.22l-73.77,46.23l-73.77-46.23l-54.43-109.88l-24.5-14.59c0.7,4.14,1.31,8.39,1.85,12.72
			l22.65,13.5l54.43,109.88l73.77,46.23l73.77-46.23l54.43-109.88l22.63-13.29c0.53-4.33,1.14-8.58,1.84-12.72l-24.47,14.38
			L321.3,292.22z"/>
	</g>
	<g>
		<path class="Colour4 fill" d="M321.3,292.22l-73.77,46.23l-73.77-46.23l-54.43-109.88l-24.5-14.59c0.7,4.14,1.31,8.39,1.85,12.72
			l22.65,13.5l54.43,109.88l73.77,46.23l73.77-46.23l54.43-109.88l22.63-13.29c0.53-4.33,1.14-8.58,1.84-12.72l-24.47,14.38
			L321.3,292.22z"/>
	</g>
</g>
<g>
	<g>
		<path class="Colour3 fill" d="M338.14,345.75l53.5-44.75c0.47-14.23,1.01-27.35,1.55-39.02l-30.9,25.85L338.14,345.75z"/>
	</g>
	<g>
		<path class="Colour3 fill" d="M336.14,350.54l-3.7,27.55l58.39-48.84c0.33-13.68,0.73-26.66,1.17-38.7l-47.38,39.63L336.14,350.54z"/>
	</g>
	<g>
		<path class="Colour3 fill" d="M328.27,409.17l62.03-51.88c0.19-13.32,0.47-26.18,0.8-38.39l-57.13,47.78L328.27,409.17z"/>
	</g>
	<g>
		<path class="Colour3 fill" d="M324.1,440.24l65.95-55.16c0.05-13.05,0.19-25.78,0.41-38.07l-60.66,50.73L324.1,440.24z"/>
	</g>
	<g>
		<path class="Colour3 fill" d="M325.63,428.82l-5.7,42.49l70.17-58.69c-0.1-12.81-0.09-25.43,0.01-37.73L325.63,428.82z"/>
	</g>
	<g>
		<path class="Colour3 fill" d="M321.46,459.9l-5.7,42.49l74.71-62.49c-0.25-12.59-0.38-25.08-0.43-37.37L321.46,459.9z"/>
	</g>
	<g>
		<path class="Colour3 fill" d="M317.29,490.97l-5.7,42.49l79.6-66.57c-0.42-12.37-0.71-24.73-0.89-36.97L317.29,490.97z"/>
	</g>
</g>
<path class="Colour3 fill" d="M457.28,139.44l11.94-22.29c-1.43-3.3-2.87-6.45-4.31-9.45l-15.39,29.72l19.16,59.68
	c-22.47-0.92-50.52-9.38-70.38-16.43c-0.44,3.47-0.77,6.63-1.03,9.45c44.47,13.87,70.44,14.65,70.44,14.65l7.71,18.86
	c3.3-1.68,6.3-3.28,8.85-4.68L457.28,139.44z"/>
<path class="Colour5 fill" d="M407.04,137.41c-1.76,6.25-3.39,12.84-4.82,19.75l-31.53,19.57l-56.43,98.1l48.78-109.86L407.04,137.41z
	 M87.97,137.41c1.76,6.25,3.39,12.84,4.82,19.75l31.53,19.57l56.43,98.1l-48.78-109.86L87.97,137.41z"/>
<g>
	<g>
		<path class="Colour3 fill" d="M156.87,345.75L103.36,301c-0.47-14.23-1.01-27.35-1.55-39.02l30.9,25.85L156.87,345.75z"/>
	</g>
	<g>
		<path class="Colour3 fill" d="M158.87,350.54l3.7,27.55l-58.39-48.84c-0.33-13.68-0.73-26.66-1.17-38.7l47.38,39.63L158.87,350.54z"/>
	</g>
	<g>
		<path class="Colour3 fill" d="M166.74,409.17l-62.03-51.88c-0.19-13.32-0.47-26.18-0.8-38.39l57.13,47.78L166.74,409.17z"/>
	</g>
	<g>
		<path class="Colour3 fill" d="M170.91,440.24l-65.95-55.16c-0.05-13.05-0.19-25.78-0.41-38.07l60.66,50.73L170.91,440.24z"/>
	</g>
	<g>
		<path class="Colour3 fill" d="M169.38,428.82l5.7,42.49l-70.17-58.69c0.1-12.81,0.09-25.43-0.01-37.73L169.38,428.82z"/>
	</g>
	<g>
		<path class="Colour3 fill" d="M173.55,459.9l5.7,42.49l-74.71-62.49c0.25-12.59,0.38-25.08,0.43-37.37L173.55,459.9z"/>
	</g>
	<g>
		<path class="Colour3 fill" d="M177.72,490.97l5.7,42.49l-79.6-66.57c0.42-12.37,0.71-24.73,0.89-36.97L177.72,490.97z"/>
	</g>
</g>
<path class="Colour3 fill" d="M37.73,139.44l-11.94-22.29c1.43-3.3,2.87-6.45,4.31-9.45l15.39,29.72L26.33,197.1
	c22.47-0.92,50.52-9.38,70.38-16.43c0.44,3.47,0.77,6.63,1.03,9.45C53.28,204,27.3,204.78,27.3,204.78l-7.71,18.86
	c-3.3-1.68-6.3-3.28-8.85-4.68L37.73,139.44z"/>
<path class="Colour2 fill" d="M357.41,521.21l-14.71,44.8c-3.96,0.56-8.2,1.11-12.74,1.65l17.44-53.13l44.14-37.76
	c0.19,4.9,0.4,9.8,0.64,14.69L357.41,521.21z M390.26,220.74l5.29-2.57c0.09-1.44,0.18-2.77,0.25-3.98l-8.25,4.01l-54.72,131.23
	l-0.09,0.21l-29.63,220.75c1.2-0.1,2.38-0.21,3.55-0.31l29.47-219.53L390.26,220.74z M368.67,25.33v117.19l45.01-25.76
	c11.88-32.67,25.46-51.74,25.46-51.74C433,54.81,398.52,38.22,368.67,25.33z M456.87,92.1c-9.84-17.66-17.74-27.08-17.74-27.08
	c-7.34,11.28-13.42,22.81-18.46,34.17C430.4,98.67,443.99,96.97,456.87,92.1z M434.3,175.67l-20.61-58.91l-0.04-0.08
	c-5.97,16.5-9.88,32.14-12.43,45.56L434.3,175.67z M468.07,199.98l4.27,0.33l-19.69-62.6l14.04-26.24c-1.03-2.25-2.06-4.41-3.09-6.5
	l-17.2,32.16l17.81,56.63c-9.89-1.19-35.66-5.09-65.56-15.76c-0.28,2.05-0.52,4.01-0.73,5.86
	C436.23,197.35,467.58,199.94,468.07,199.98z M55.87,65.02c0,0,13.58,19.07,25.46,51.74l45.01,25.76V25.33
	C96.49,38.22,62,54.81,55.87,65.02z M137.6,521.21l14.71,44.8c3.96,0.56,8.2,1.11,12.74,1.65l-17.44-53.13l-44.14-37.76
	c-0.19,4.9-0.4,9.8-0.64,14.69L137.6,521.21z M158.87,350.54l29.47,219.53c1.17,0.1,2.35,0.21,3.55,0.31l-29.63-220.75l-0.09-0.21
	l-54.72-131.23l-8.25-4.01c0.08,1.22,0.16,2.54,0.25,3.98l5.29,2.57L158.87,350.54z M74.35,99.19
	C69.31,87.83,63.23,76.3,55.89,65.02c0,0-7.9,9.42-17.74,27.08C51.02,96.97,64.61,98.67,74.35,99.19z M93.79,162.23
	c-2.55-13.41-6.45-29.06-12.43-45.56l-0.04,0.08l-20.61,58.91L93.79,162.23z M97.1,183.86c-0.21-1.85-0.46-3.81-0.73-5.86
	c-29.9,10.67-55.67,14.56-65.56,15.76l17.81-56.63l-17.2-32.16c-1.03,2.09-2.06,4.26-3.09,6.5l14.04,26.24l-19.69,62.6l4.27-0.33
	C27.43,199.94,58.78,197.35,97.1,183.86z"/>
<g id="BBodyLogos"></g>
<g>
	<path class="st1" d="M3.58,196.13c0,0,48.93,31.06,86.1,30.02"/>
	<path class="st0" d="M3.04,200.59c0,0,48.93,31.06,86.1,30.02"/>
	<path class="st1" d="M491.43,196.13c0,0-48.93,31.06-86.1,30.02"/>
	<path class="st0" d="M491.97,200.59c0,0-48.93,31.06-86.1,30.02"/>
</g>
<g>
	<path class="st1" d="M395.05,538.35c0,0-23,15.86-147.55,20.81"/>
	<path class="st1" d="M247.5,559.16c-124.55-4.96-147.55-20.81-147.55-20.81"/>
</g>
<g>
	<path class="st1" d="M439.11,65.29c0,0,46.18,55.01,54.38,148.67c0,0-64.06,39.03-86.41,25.65c0,0,1.37-13.63-10.68-34.32
		C396.41,205.29,396.28,131.08,439.11,65.29z"/>
	<path class="st1" d="M55.88,65.29c0,0-46.18,55.01-54.38,148.67c0,0,64.06,39.03,86.41,25.65c0,0-1.37-13.63,10.68-34.32
		C98.58,205.29,98.71,131.08,55.88,65.29z"/>
	<path class="st1" d="M247.5,573.99c125.7-4.96,148.91-20.81,148.91-20.81c-14.4-153.62,0-347.89,0-347.89
		c2.98-84.25,42.71-140,42.71-140C427.94,46.71,322.79,6.94,322.79,6.94l-0.12,0.01c0,0-30.18,12.46-75.17,12.25l-0.43,0
		c-44.76,0.14-74.75-12.25-74.75-12.25l-0.12-0.01c0,0-105.15,39.77-116.32,58.35c0,0,39.73,55.75,42.71,140
		c0,0,14.4,194.26,0,347.89C98.58,553.17,121.8,569.03,247.5,573.99"/>
	<path class="st1" d="M310.74,2l-0.1,0.01c0,0-25.35,9.15-63.15,8.97l-0.36,0c-37.6,0.12-62.79-8.97-62.79-8.97L184.25,2
		l-11.93,4.95c0,0,29.99,12.39,74.75,12.25l0.43,0c44.99,0.21,75.17-12.25,75.17-12.25L310.74,2z"/>
</g>
<path class="BottomHem fill" d="M247.5,559.16c124.55-4.96,147.55-20.81,147.55-20.81l1.37,14.84c0,0-34.6,17.87-149.34,20.81
	c0,0-105.75-1.2-148.49-20.81l1.37-14.84C99.96,538.35,122.96,554.21,247.5,559.16"/>
</svg>
