<?xml version="1.0" encoding="utf-8"?>
<!-- Generator: Adobe Illustrator 19.1.0, SVG Export Plug-In . SVG Version: 6.00 Build 0)  -->
<svg version="1.1" id="Layer_1" xmlns="http://www.w3.org/2000/svg" xmlns:xlink="http://www.w3.org/1999/xlink" x="0px" y="0px"
	 viewBox="0 0 495 576" style="enable-background:new 0 0 495 576;" xml:space="preserve">
<style type="text/css">
	<![CDATA[
	@font-face{font-family:'codaheavy';src:url('/fonts/coda-heavy-webfont.woff') format('woff')}
	text{font-family:Impact,codaheavy,sans-serif}
	.Colour1.fill{fill:#1E2258;}
	.Colour2.fill{fill:#C8C813;}
	.Colour3.fill{fill:#0B0D2D;}
	.Colour4.fill{fill:#1E2258;}
	.NeckAndArmTrim.fill{fill:#0B0D2D;stroke:#000000;stroke-width:0.25;stroke-miterlimit:10;}
	.st0{fill:#0B0D2D;}
	.st1{fill:none;stroke:#000000;stroke-width:0.25;stroke-miterlimit:10;}
	.st2{fill:#FFFFFF;stroke:#000000;stroke-width:0.25;stroke-miterlimit:10;}
	.st3{fill:none;stroke:#000000;stroke-width:0.25;stroke-miterlimit:10;stroke-dasharray:2;}
	.st4{fill:#004CAA;}
	.st5{fill:#FFFFFF;}
	.st6{fill:url(#SVGID_2_);}
	]]>
</style>
<linearGradient id="SVGID_1_" gradientUnits="userSpaceOnUse" x1="-249.9113" y1="-65.8711" x2="-249.9113" y2="-64.8711">
	<stop  offset="0" style="stop-color:#1E2258;stop-opacity:0"/>
	<stop  offset="1" style="stop-color:#1E396F"/>
</linearGradient>
<path class="Colour3 fill" d="M439.11,64.76c0,0,46.18,55.04,54.38,148.75c0,0-64.06,39.05-86.41,25.66c0,0,1.37-13.64-10.68-34.34
	C396.41,204.83,396.28,130.58,439.11,64.76z"/>
<path class="Colour3 fill" d="M55.88,64.76c0,0-46.18,55.04-54.38,148.75c0,0,64.06,39.05,86.41,25.66c0,0-1.37-13.64,10.68-34.34
	C98.58,204.83,98.71,130.58,55.88,64.76z"/>
<path class="NeckAndArmTrim fill" d="M419.27,241.67c-4.7,0-8.59-0.85-11.56-2.53c0.07-1.29,0.13-5.73-1.6-12.56
	c0.35,0.01,0.69,0.01,1.04,0.01c34.14,0,77.58-25.85,83.83-29.68c0.77,5.38,1.41,10.91,1.91,16.58
	C488.81,215.93,445.2,241.67,419.27,241.67z"/>
<path class="NeckAndArmTrim fill" d="M2.12,213.48c0.5-5.67,1.15-11.19,1.91-16.58c6.25,3.83,49.69,29.68,83.83,29.68
	c0.35,0,0.7-0.01,1.04-0.01c-1.73,6.83-1.67,11.27-1.6,12.56c-2.97,1.68-6.85,2.53-11.56,2.53C49.83,241.67,6.21,215.93,2.12,213.48
	z"/>
<g>
	<g>
		<path class="st0" d="M439.13,64.76C427.96,46.17,322.81,6.38,322.81,6.38l-0.31,0.11l0.26,0.14c0,0-3.86,57.68-75.02,57.8l-0.22,0
			c-71.37,0-75.24-57.8-75.24-57.8l0.24-0.13l-0.3-0.12c0,0-105.15,39.79-116.32,58.38c0,0,39.73,55.78,42.71,140.07
			c0,0,14.4,194.37,0,348.07c0,0,23.21,15.87,148.91,20.82c125.7-4.96,148.91-20.82,148.91-20.82c-14.4-153.71,0-348.07,0-348.07
			C399.41,120.54,439.13,64.76,439.13,64.76z"/>
	</g>
	<g>
		<path class="Colour3 fill" d="M439.13,64.76C427.96,46.17,322.81,6.38,322.81,6.38l-0.31,0.11l0.26,0.14c0,0-3.86,57.68-75.02,57.8
			l-0.22,0c-71.37,0-75.24-57.8-75.24-57.8l0.24-0.13l-0.3-0.12c0,0-105.15,39.79-116.32,58.38c0,0,39.73,55.78,42.71,140.07
			c0,0,14.4,194.37,0,348.07c0,0,23.21,15.87,148.91,20.82c125.7-4.96,148.91-20.82,148.91-20.82c-14.4-153.71,0-348.07,0-348.07
			C399.41,120.54,439.13,64.76,439.13,64.76z"/>
	</g>
	<g>
		<path class="st1" d="M439.13,64.76C427.96,46.17,322.81,6.38,322.81,6.38l-0.31,0.11l0.26,0.14c0,0-3.86,57.68-75.02,57.8l-0.22,0
			c-71.37,0-75.24-57.8-75.24-57.8l0.24-0.13l-0.3-0.12c0,0-105.15,39.79-116.32,58.38c0,0,39.73,55.78,42.71,140.07
			c0,0,14.4,194.37,0,348.07c0,0,23.21,15.87,148.91,20.82c125.7-4.96,148.91-20.82,148.91-20.82c-14.4-153.71,0-348.07,0-348.07
			C399.41,120.54,439.13,64.76,439.13,64.76z"/>
	</g>
</g>
<g>
	<path class="st2" d="M247.51,11.49C287.45,11.68,314.24,2,314.24,2v9.59c0,0-37.4,8.24-66.73,8.24l-0.29,0
		c-29.28-0.05-66.43-8.24-66.43-8.24V2c0,0,26.62,9.61,66.35,9.49L247.51,11.49z"/>
	<path class="st2" d="M247.51,64.43c-71.37,0-75.24-57.8-75.24-57.8L180.79,2c0,0,9.26,48.8,66.73,48.8l0.32,0
		C305.02,50.61,314.24,2,314.24,2l8.51,4.63c0,0-3.86,57.68-75.02,57.8L247.51,64.43z"/>
</g>
<g>
	<path class="st3" d="M395.06,542.81c0,0-23,15.87-147.55,20.82"/>
	<path class="st3" d="M247.51,563.63c-124.55-4.96-147.55-20.82-147.55-20.82"/>
</g>
<path class="st4" d="M247.51,31.55"/>
<path class="st5" d="M247.83,50.8l-0.32,0c-40.44,0-57.01-24.16-63.28-38.48c9.87,2,39.05,7.48,62.98,7.52l0.29,0
	c23.99,0,53.37-5.51,63.28-7.52C304.54,26.59,288.04,50.67,247.83,50.8z"/>
<path class="NeckAndArmTrim fill" d="M247.51,11.49C287.45,11.68,314.24,2,314.24,2v9.59c0,0-37.4,8.24-66.73,8.24l-0.29,0
	c-29.28-0.05-66.43-8.24-66.43-8.24V2c0,0,26.62,9.61,66.35,9.49L247.51,11.49z"/>
<path class="NeckAndArmTrim fill" d="M247.51,64.43c-71.37,0-75.24-57.8-75.24-57.8L180.79,2c0,0,9.26,48.8,66.73,48.8l0.32,0
	C305.02,50.61,314.24,2,314.24,2l8.51,4.63c0,0-3.86,57.68-75.02,57.8L247.51,64.43z"/>
<path class="Colour1 fill" d="M69.7,89.03c8.07,16.49,17.8,40.75,23.71,70.83l154.11,70.62l154.11-70.62
	c5.91-30.08,15.64-54.34,23.71-70.83l-16.19-18.94l-95.37-37.48c-9.29,15.33-28.1,31.76-66.05,31.82l-0.22,0
	c-38.09,0-56.95-16.46-66.26-31.82L85.89,70.08L69.7,89.03z"/>
<path class="Colour1 fill" d="M379.22,272.57l-9.85,166.04l20.89-10.91c-0.9-63.35,0.98-123.36,2.89-165.11L379.22,272.57z"/>
<path class="Colour1 fill" d="M325.31,538.34c0,0,38.83-6.57,68.74-14.72c-2.06-29.6-3.19-60.11-3.7-89.98l-59.22,33.31L325.31,538.34z"
	/>
<path class="Colour1 fill" d="M115.88,272.57l9.85,166.04l-20.89-10.91c0.9-63.35-0.98-123.36-2.89-165.11L115.88,272.57z"/>
<path class="Colour1 fill" d="M169.79,538.34c0,0-38.83-6.57-68.74-14.72c2.06-29.6,3.19-60.11,3.7-89.98l59.22,33.31L169.79,538.34z"/>
<path class="Colour1 fill" d="M315.42,232.21l-9.86,183.41l19.74-161.28l70.08-33.77c-0.2,3.26-0.42,6.99-0.66,11.14l-61.3,31.69
	l-40.81,307.82c-2.01,0.15-4.06,0.3-6.15,0.44l17.41-142.27l4.15-203.38l90-42.86c-0.3,2.68-0.57,5.39-0.8,8.14L315.42,232.21z
	 M191.22,429.39l-4.15-203.38l-90-42.86c0.3,2.68,0.57,5.39,0.8,8.14l81.81,40.92l9.86,183.41l-19.74-161.28l-70.08-33.77
	c0.2,3.26,0.42,6.99,0.66,11.14l61.3,31.69l40.81,307.82c2.01,0.15,4.06,0.3,6.15,0.44L191.22,429.39z"/>
<linearGradient id="SVGID_2_" gradientUnits="userSpaceOnUse" x1="247.5505" y1="235.376" x2="247.5505" y2="555.405">
	<stop  offset="0" style="stop-color:#1E2258;stop-opacity:0"/>
	<stop  offset="1" style="stop-color:#1E396F"/>
</linearGradient>
<path class="Colour4 fill" d="M302.29,438.3c-1.38,0.41-2.76,0.84-4.15,1.23l-8.32,2.37l-8.35,2.27c-2.78,0.76-5.58,1.45-8.37,2.18
	c-2.79,0.72-5.58,1.45-8.38,2.12l-8.4,2.04c-2.8,0.7-5.61,1.32-8.42,1.97l-0.54,0.12l-0.51-0.12l-8.37-2.03
	c-2.79-0.66-5.57-1.41-8.35-2.11l-8.35-2.13l-8.32-2.22c-2.78-0.73-5.55-1.49-8.31-2.27c-2.76-0.78-5.54-1.52-8.3-2.34
	c-1.53-0.44-3.05-0.9-4.58-1.34l-0.2-1.65c1.75,0.32,3.51,0.63,5.26,0.95c2.83,0.51,5.64,1.09,8.46,1.63
	c2.82,0.54,5.64,1.11,8.45,1.7l8.44,1.74l8.41,1.84c2.8,0.62,5.61,1.2,8.41,1.86l7.85,1.81c2.63-0.64,5.26-1.29,7.9-1.88l8.43-1.93
	c2.81-0.66,5.63-1.24,8.45-1.85c2.82-0.59,5.63-1.23,8.46-1.79l8.48-1.7l8.51-1.59c1.42-0.27,2.84-0.5,4.26-0.75l1.2-0.2l-0.23,1.91
	L302.29,438.3z M301.72,447.08c-1.38,0.24-2.76,0.46-4.13,0.73l-8.51,1.59l-8.48,1.7c-2.83,0.56-5.64,1.2-8.46,1.79
	c-2.82,0.61-5.64,1.19-8.45,1.85l-8.43,1.93c-2.64,0.59-5.27,1.24-7.9,1.88l-7.85-1.81c-2.79-0.66-5.61-1.24-8.41-1.86l-8.41-1.84
	l-8.44-1.74c-2.81-0.59-5.63-1.16-8.45-1.7c-2.82-0.54-5.63-1.12-8.46-1.63c-1.31-0.24-2.62-0.47-3.93-0.71l0.22,1.8
	c1.08,0.31,2.15,0.64,3.23,0.95c2.76,0.82,5.53,1.56,8.3,2.34c2.76,0.78,5.54,1.54,8.31,2.27l8.32,2.22l8.35,2.13
	c2.78,0.7,5.56,1.44,8.35,2.11l8.37,2.03l0.51,0.12l0.54-0.12c2.81-0.65,5.62-1.27,8.42-1.97l8.4-2.04c2.8-0.66,5.59-1.4,8.38-2.12
	c2.79-0.73,5.59-1.42,8.37-2.18l8.35-2.27l8.32-2.37c1.11-0.31,2.22-0.65,3.32-0.98L301.72,447.08z M300.39,457.93
	c-0.94,0.16-1.87,0.32-2.8,0.5l-8.51,1.59l-8.48,1.7c-2.83,0.56-5.64,1.2-8.46,1.79c-2.82,0.61-5.64,1.19-8.45,1.85l-8.43,1.93
	c-2.64,0.59-5.27,1.24-7.9,1.88l-7.85-1.81c-2.79-0.66-5.61-1.24-8.41-1.86l-8.41-1.84l-8.44-1.74c-2.81-0.59-5.63-1.16-8.45-1.7
	c-2.82-0.54-5.63-1.12-8.46-1.63c-0.87-0.16-1.74-0.31-2.6-0.47l0.24,1.96c0.63,0.18,1.25,0.37,1.88,0.55
	c2.76,0.82,5.53,1.56,8.3,2.34c2.76,0.78,5.54,1.54,8.31,2.27l8.32,2.22l8.35,2.13c2.78,0.7,5.56,1.44,8.35,2.11l8.37,2.03
	l0.51,0.12l0.54-0.12c2.81-0.65,5.62-1.27,8.42-1.97l8.4-2.04c2.8-0.66,5.59-1.4,8.38-2.12c2.79-0.73,5.59-1.42,8.37-2.18l8.35-2.27
	l8.32-2.37c0.66-0.18,1.32-0.38,1.97-0.58L300.39,457.93z M304.18,414.79l-2.33,0.4c-1.42,0.25-2.85,0.48-4.26,0.75l-8.51,1.59
	l-8.48,1.7c-2.83,0.56-5.64,1.2-8.46,1.79c-2.82,0.61-5.64,1.19-8.45,1.85l-8.43,1.93c-2.64,0.59-5.27,1.24-7.9,1.88l-7.85-1.81
	c-2.79-0.66-5.61-1.24-8.41-1.86l-8.41-1.84l-8.44-1.74c-2.81-0.59-5.63-1.16-8.45-1.7c-2.82-0.54-5.63-1.12-8.46-1.63
	c-2.14-0.4-4.27-0.78-6.41-1.16l0.03,1.47c1.97,0.58,3.93,1.16,5.9,1.73c2.76,0.82,5.53,1.56,8.3,2.34
	c2.76,0.78,5.54,1.54,8.31,2.27l8.32,2.22l8.35,2.13c2.78,0.7,5.56,1.44,8.35,2.11l8.37,2.03l0.51,0.12l0.54-0.12
	c2.81-0.65,5.62-1.27,8.42-1.97l8.4-2.04c2.8-0.66,5.59-1.4,8.38-2.12c2.79-0.73,5.59-1.42,8.37-2.18l8.35-2.27l8.32-2.37
	c1.39-0.39,2.77-0.82,4.15-1.23l1.85-0.56L304.18,414.79z M304.62,393.47l-2.77,0.47c-1.42,0.25-2.85,0.48-4.26,0.75l-8.51,1.59
	l-8.48,1.7c-2.83,0.56-5.64,1.2-8.46,1.79c-2.82,0.61-5.64,1.19-8.45,1.85l-8.43,1.93c-2.64,0.59-5.27,1.24-7.9,1.88l-7.85-1.81
	c-2.79-0.66-5.61-1.24-8.41-1.86l-8.41-1.84l-8.44-1.74c-2.81-0.59-5.63-1.16-8.45-1.7c-2.82-0.54-5.63-1.12-8.46-1.63
	c-2.28-0.42-4.56-0.83-6.85-1.24l0.03,1.42c2.11,0.63,4.22,1.25,6.34,1.86c2.76,0.82,5.53,1.56,8.3,2.34
	c2.76,0.78,5.54,1.54,8.31,2.27l8.32,2.22l8.35,2.13c2.78,0.7,5.56,1.44,8.35,2.11l8.37,2.03l0.51,0.12l0.54-0.12
	c2.81-0.65,5.62-1.27,8.42-1.97l8.4-2.04c2.8-0.66,5.59-1.4,8.38-2.12c2.79-0.73,5.59-1.42,8.37-2.18l8.35-2.27l8.32-2.37
	c1.39-0.39,2.77-0.82,4.15-1.23l2.29-0.69L304.62,393.47z M303.96,425.45l-2.11,0.36c-1.42,0.25-2.85,0.48-4.26,0.75l-8.51,1.59
	l-8.48,1.7c-2.83,0.56-5.64,1.2-8.46,1.79c-2.82,0.61-5.64,1.19-8.45,1.85l-8.43,1.93c-2.64,0.59-5.27,1.24-7.9,1.88l-7.85-1.81
	c-2.79-0.66-5.61-1.24-8.41-1.86l-8.41-1.84l-8.44-1.74c-2.81-0.59-5.63-1.16-8.45-1.7c-2.82-0.54-5.63-1.12-8.46-1.63
	c-2.06-0.38-4.13-0.75-6.2-1.12l0.03,1.49c1.89,0.56,3.79,1.12,5.68,1.67c2.76,0.82,5.53,1.56,8.3,2.34
	c2.76,0.78,5.54,1.54,8.31,2.27l8.32,2.22l8.35,2.13c2.78,0.7,5.56,1.44,8.35,2.11l8.37,2.03l0.51,0.12l0.54-0.12
	c2.81-0.65,5.62-1.27,8.42-1.97l8.4-2.04c2.8-0.66,5.59-1.4,8.38-2.12c2.79-0.73,5.59-1.42,8.37-2.18l8.35-2.27l8.32-2.37
	c1.39-0.39,2.77-0.82,4.15-1.23l1.64-0.49L303.96,425.45z M298.76,471.22l0.3-2.43c-0.49,0.09-0.98,0.17-1.48,0.27l-8.51,1.59
	l-8.48,1.7c-2.83,0.56-5.64,1.2-8.46,1.79c-2.82,0.61-5.64,1.19-8.45,1.85l-8.43,1.93c-2.64,0.59-5.27,1.24-7.9,1.88l-7.85-1.81
	c-2.79-0.66-5.61-1.24-8.41-1.86l-8.41-1.84l-8.44-1.74c-2.81-0.59-5.63-1.16-8.45-1.7c-2.82-0.54-5.63-1.12-8.46-1.63
	c-0.42-0.08-0.85-0.15-1.27-0.23l0.26,2.11c0.18,0.05,0.35,0.1,0.53,0.16c2.76,0.82,5.53,1.56,8.3,2.34
	c2.76,0.78,5.54,1.54,8.31,2.27l8.32,2.22l8.35,2.13c2.78,0.7,5.56,1.44,8.35,2.11l8.37,2.03l0.51,0.12l0.54-0.12
	c2.81-0.65,5.62-1.27,8.42-1.97l8.4-2.04c2.8-0.66,5.59-1.4,8.38-2.12c2.79-0.73,5.59-1.42,8.37-2.18l8.35-2.27l8.32-2.37
	C298.35,471.34,298.56,471.28,298.76,471.22z M304.4,404.13l-2.55,0.44c-1.42,0.25-2.85,0.48-4.26,0.75l-8.51,1.59l-8.48,1.7
	c-2.83,0.56-5.64,1.2-8.46,1.79c-2.82,0.61-5.64,1.19-8.45,1.85l-8.43,1.93c-2.64,0.59-5.27,1.24-7.9,1.88l-7.85-1.81
	c-2.79-0.66-5.61-1.24-8.41-1.86l-8.41-1.84l-8.44-1.74c-2.81-0.59-5.63-1.16-8.45-1.7c-2.82-0.54-5.63-1.12-8.46-1.63
	c-2.21-0.41-4.42-0.81-6.63-1.2l0.03,1.44c2.04,0.6,4.08,1.21,6.12,1.8c2.76,0.82,5.53,1.56,8.3,2.34c2.76,0.78,5.54,1.54,8.31,2.27
	l8.32,2.22l8.35,2.13c2.78,0.7,5.56,1.44,8.35,2.11l8.37,2.03l0.51,0.12l0.54-0.12c2.81-0.65,5.62-1.27,8.42-1.97l8.4-2.04
	c2.8-0.66,5.59-1.4,8.38-2.12c2.79-0.73,5.59-1.42,8.37-2.18l8.35-2.27l8.32-2.37c1.39-0.39,2.77-0.82,4.15-1.23l2.07-0.63
	L304.4,404.13z M289.75,544.88l-0.67,0.13l-8.48,1.7c-2.83,0.56-5.64,1.2-8.46,1.79c-2.82,0.61-5.64,1.19-8.45,1.85l-8.43,1.93
	c-2.64,0.59-5.27,1.24-7.9,1.88l-7.85-1.81c-2.79-0.66-5.61-1.24-8.41-1.86l-8.41-1.84l-8.44-1.74c-2.81-0.59-5.63-1.16-8.45-1.7
	c-0.14-0.03-0.28-0.05-0.42-0.08l0.37,2.99c2.57,0.72,5.13,1.43,7.71,2.1l8.32,2.22l8.35,2.13c2.78,0.7,5.56,1.44,8.35,2.11
	l8.37,2.03l0.51,0.12l0.54-0.12c2.81-0.65,5.62-1.27,8.42-1.97l8.4-2.04c2.8-0.66,5.59-1.4,8.38-2.12c2.79-0.73,5.59-1.42,8.37-2.18
	l7.87-2.14L289.75,544.88z M290.68,537.26l0.4-3.25l-2,0.38l-8.48,1.7c-2.83,0.56-5.64,1.2-8.46,1.79
	c-2.82,0.61-5.64,1.19-8.45,1.85l-8.43,1.93c-2.64,0.59-5.27,1.24-7.9,1.88l-7.85-1.81c-2.79-0.66-5.61-1.24-8.41-1.86l-8.41-1.84
	l-8.44-1.74c-2.81-0.59-5.63-1.16-8.45-1.7c-0.58-0.11-1.17-0.23-1.75-0.34l0.35,2.88c0.25,0.07,0.5,0.14,0.74,0.21
	c2.76,0.78,5.54,1.54,8.31,2.27l8.32,2.22l8.35,2.13c2.78,0.7,5.56,1.44,8.35,2.11l8.37,2.03l0.51,0.12l0.54-0.12
	c2.81-0.65,5.62-1.27,8.42-1.97l8.4-2.04c2.8-0.66,5.59-1.4,8.38-2.12c2.79-0.73,5.59-1.42,8.37-2.18l8.35-2.27L290.68,537.26z
	 M292.41,523.13l-3.33,0.62l-8.48,1.7c-2.83,0.56-5.64,1.2-8.46,1.79c-2.82,0.61-5.64,1.19-8.45,1.85l-8.43,1.93
	c-2.64,0.59-5.27,1.24-7.9,1.88l-7.85-1.81c-2.79-0.66-5.61-1.24-8.41-1.86l-8.41-1.84l-8.44-1.74c-2.81-0.59-5.63-1.16-8.45-1.7
	c-1.03-0.2-2.05-0.4-3.08-0.6l0.34,2.77c0.7,0.19,1.39,0.39,2.09,0.58c2.76,0.78,5.54,1.54,8.31,2.27l8.32,2.22l8.35,2.13
	c2.78,0.7,5.56,1.44,8.35,2.11l8.37,2.03l0.51,0.12l0.54-0.12c2.81-0.65,5.62-1.27,8.42-1.97l8.4-2.04c2.8-0.66,5.59-1.4,8.38-2.12
	c2.79-0.73,5.59-1.42,8.37-2.18l8.35-2.27l2.21-0.63L292.41,523.13z M264.71,565.31c2.8-0.66,5.59-1.4,8.38-2.12
	c2.79-0.73,5.59-1.42,8.37-2.18l6.52-1.77l0.43-3.49l-7.82,1.56c-2.83,0.56-5.64,1.2-8.46,1.79c-2.82,0.61-5.64,1.19-8.45,1.85
	l-8.43,1.93c-2.64,0.59-5.27,1.24-7.9,1.88l-7.85-1.81c-2.79-0.66-5.61-1.24-8.41-1.86l-8.41-1.84l-8.44-1.74
	c-2.51-0.53-5.02-1.03-7.53-1.51l0.38,3.1c2.12,0.59,4.24,1.18,6.37,1.74l8.32,2.22l8.35,2.13c2.78,0.7,5.56,1.44,8.35,2.11
	l8.37,2.03l0.51,0.12l0.54-0.12c2.81-0.65,5.62-1.27,8.42-1.97L264.71,565.31z M297.73,479.65c-0.05,0.01-0.1,0.02-0.15,0.03
	l-8.51,1.59l-8.48,1.7c-2.83,0.56-5.64,1.2-8.46,1.79c-2.82,0.61-5.64,1.19-8.45,1.85l-8.43,1.93c-2.64,0.59-5.27,1.24-7.9,1.88
	l-7.85-1.81c-2.79-0.66-5.61-1.24-8.41-1.86l-8.41-1.84l-8.44-1.74c-2.81-0.59-5.63-1.16-8.45-1.7c-2.8-0.54-5.6-1.11-8.41-1.62
	l0.28,2.26c2.49,0.72,4.99,1.4,7.48,2.11c2.76,0.78,5.54,1.54,8.31,2.27l8.32,2.22l8.35,2.13c2.78,0.7,5.56,1.44,8.35,2.11
	l8.37,2.03l0.51,0.12l0.54-0.12c2.81-0.65,5.62-1.27,8.42-1.97l8.4-2.04c2.8-0.66,5.59-1.4,8.38-2.12c2.79-0.73,5.59-1.42,8.37-2.18
	l8.35-2.27l7.6-2.17L297.73,479.65z M296.4,490.52l-7.32,1.37l-8.48,1.7c-2.83,0.56-5.64,1.2-8.46,1.79
	c-2.82,0.61-5.64,1.19-8.45,1.85l-8.43,1.93c-2.64,0.59-5.27,1.24-7.9,1.88l-7.85-1.81c-2.79-0.66-5.61-1.24-8.41-1.86l-8.41-1.84
	l-8.44-1.74c-2.81-0.59-5.63-1.16-8.45-1.7c-2.36-0.45-4.71-0.92-7.08-1.37l0.29,2.39c2.04,0.58,4.09,1.14,6.13,1.72
	c2.76,0.78,5.54,1.54,8.31,2.27l8.32,2.22l8.35,2.13c2.78,0.7,5.56,1.44,8.35,2.11l8.37,2.03l0.51,0.12l0.54-0.12
	c2.81-0.65,5.62-1.27,8.42-1.97l8.4-2.04c2.8-0.66,5.59-1.4,8.38-2.12c2.79-0.73,5.59-1.42,8.37-2.18l8.35-2.27l6.25-1.78
	L296.4,490.52z M295.07,501.39l-5.99,1.12l-8.48,1.7c-2.83,0.56-5.64,1.2-8.46,1.79c-2.82,0.61-5.64,1.19-8.45,1.85l-8.43,1.93
	c-2.64,0.59-5.27,1.24-7.9,1.88l-7.85-1.81c-2.79-0.66-5.61-1.24-8.41-1.86l-8.41-1.84l-8.44-1.74c-2.81-0.59-5.63-1.16-8.45-1.7
	c-1.92-0.37-3.83-0.75-5.74-1.11l0.31,2.53c1.59,0.45,3.19,0.89,4.78,1.34c2.76,0.78,5.54,1.54,8.31,2.27l8.32,2.22l8.35,2.13
	c2.78,0.7,5.56,1.44,8.35,2.11l8.37,2.03l0.51,0.12l0.54-0.12c2.81-0.65,5.62-1.27,8.42-1.97l8.4-2.04c2.8-0.66,5.59-1.4,8.38-2.12
	c2.79-0.73,5.59-1.42,8.37-2.18l8.35-2.27l4.9-1.4L295.07,501.39z M293.74,512.26l-4.66,0.87l-8.48,1.7
	c-2.83,0.56-5.64,1.2-8.46,1.79c-2.82,0.61-5.64,1.19-8.45,1.85l-8.43,1.93c-2.64,0.59-5.27,1.24-7.9,1.88l-7.85-1.81
	c-2.79-0.66-5.61-1.24-8.41-1.86l-8.41-1.84l-8.44-1.74c-2.81-0.59-5.63-1.16-8.45-1.7c-1.47-0.28-2.94-0.57-4.41-0.86l0.32,2.65
	c1.15,0.32,2.29,0.63,3.44,0.96c2.76,0.78,5.54,1.54,8.31,2.27l8.32,2.22l8.35,2.13c2.78,0.7,5.56,1.44,8.35,2.11l8.37,2.03
	l0.51,0.12l0.54-0.12c2.81-0.65,5.62-1.27,8.42-1.97l8.4-2.04c2.8-0.66,5.59-1.4,8.38-2.12c2.79-0.73,5.59-1.42,8.37-2.18l8.35-2.27
	l3.56-1.01L293.74,512.26z M305.49,350.83l-3.64,0.62c-1.42,0.25-2.85,0.48-4.26,0.75l-8.51,1.59l-8.48,1.7
	c-2.83,0.56-5.64,1.2-8.46,1.79c-2.82,0.61-5.64,1.19-8.45,1.85l-8.43,1.93c-2.64,0.59-5.27,1.24-7.9,1.88l-7.85-1.81
	c-2.79-0.66-5.61-1.24-8.41-1.86l-8.41-1.84l-8.44-1.74c-2.81-0.59-5.63-1.16-8.45-1.7c-2.82-0.54-5.63-1.12-8.46-1.63
	c-2.57-0.48-5.14-0.94-7.72-1.4l0.03,1.32c2.4,0.72,4.8,1.42,7.21,2.12c2.76,0.82,5.53,1.56,8.3,2.34c2.76,0.78,5.54,1.54,8.31,2.27
	l8.32,2.22l8.35,2.13c2.78,0.7,5.56,1.44,8.35,2.11l8.37,2.03l0.51,0.12l0.54-0.12c2.81-0.65,5.62-1.27,8.42-1.97l8.4-2.04
	c2.8-0.66,5.59-1.4,8.38-2.12c2.79-0.73,5.59-1.42,8.37-2.18l8.35-2.27l8.32-2.37c1.39-0.39,2.77-0.82,4.15-1.23l3.16-0.96
	L305.49,350.83z M307.66,244.26c-0.51,0.08-1.03,0.16-1.54,0.25l-4.27,0.73c-1.42,0.25-2.85,0.48-4.26,0.75l-8.51,1.59l-8.48,1.7
	c-2.83,0.56-5.64,1.2-8.46,1.79c-2.82,0.61-5.64,1.19-8.45,1.85l-8.43,1.93c-2.64,0.59-5.27,1.24-7.9,1.88l-7.85-1.81
	c-2.79-0.66-5.61-1.24-8.41-1.86l-8.41-1.84l-8.44-1.74c-2.81-0.59-5.63-1.16-8.45-1.7c-2.82-0.54-5.63-1.12-8.46-1.63
	c-3.29-0.61-6.59-1.2-9.9-1.77l0.02,1.03c3.13,0.95,6.26,1.87,9.39,2.78c2.76,0.82,5.53,1.56,8.3,2.34
	c2.76,0.78,5.54,1.54,8.31,2.27l8.32,2.22l8.35,2.13c2.78,0.7,5.56,1.44,8.35,2.11l8.37,2.03l0.51,0.12l0.54-0.12
	c2.81-0.65,5.62-1.27,8.42-1.97l8.4-2.04c2.8-0.66,5.59-1.4,8.38-2.12c2.79-0.73,5.59-1.42,8.37-2.18l8.35-2.27l8.32-2.37
	c1.39-0.39,2.77-0.82,4.15-1.23l4.15-1.25c0.4-0.13,0.8-0.25,1.2-0.38L307.66,244.26z M307.23,265.57
	c-0.37,0.06-0.74,0.12-1.11,0.18l-4.27,0.73c-1.42,0.25-2.85,0.48-4.26,0.75l-8.51,1.59l-8.48,1.7c-2.83,0.56-5.64,1.2-8.46,1.79
	c-2.82,0.61-5.64,1.19-8.45,1.85l-8.43,1.93c-2.64,0.59-5.27,1.24-7.9,1.88l-7.85-1.81c-2.79-0.66-5.61-1.24-8.41-1.86l-8.41-1.84
	l-8.44-1.74c-2.81-0.59-5.63-1.16-8.45-1.7c-2.82-0.54-5.63-1.12-8.46-1.63c-3.15-0.58-6.3-1.15-9.46-1.7l0.02,1.1
	c2.98,0.9,5.97,1.78,8.95,2.64c2.76,0.82,5.53,1.56,8.3,2.34c2.76,0.78,5.54,1.54,8.31,2.27l8.32,2.22l8.35,2.13
	c2.78,0.7,5.56,1.44,8.35,2.11l8.37,2.03l0.51,0.12l0.54-0.12c2.81-0.65,5.62-1.27,8.42-1.97l8.4-2.04c2.8-0.66,5.59-1.4,8.38-2.12
	c2.79-0.73,5.59-1.42,8.37-2.18l8.35-2.27l8.32-2.37c1.39-0.39,2.77-0.82,4.15-1.23l4.15-1.25c0.25-0.08,0.51-0.16,0.76-0.24
	L307.23,265.57z M307.45,254.91c-0.44,0.07-0.88,0.14-1.33,0.21l-4.27,0.73c-1.42,0.25-2.85,0.48-4.26,0.75l-8.51,1.59l-8.48,1.7
	c-2.83,0.56-5.64,1.2-8.46,1.79c-2.82,0.61-5.64,1.19-8.45,1.85l-8.43,1.93c-2.64,0.59-5.27,1.24-7.9,1.88l-7.85-1.81
	c-2.79-0.66-5.61-1.24-8.41-1.86l-8.41-1.84l-8.44-1.74c-2.81-0.59-5.63-1.16-8.45-1.7c-2.82-0.54-5.63-1.12-8.46-1.63
	c-3.22-0.6-6.45-1.18-9.68-1.74l0.02,1.07c3.05,0.92,6.11,1.82,9.17,2.71c2.76,0.82,5.53,1.56,8.3,2.34
	c2.76,0.78,5.54,1.54,8.31,2.27l8.32,2.22l8.35,2.13c2.78,0.7,5.56,1.44,8.35,2.11l8.37,2.03l0.51,0.12l0.54-0.12
	c2.81-0.65,5.62-1.27,8.42-1.97l8.4-2.04c2.8-0.66,5.59-1.4,8.38-2.12c2.79-0.73,5.59-1.42,8.37-2.18l8.35-2.27l8.32-2.37
	c1.39-0.39,2.77-0.82,4.15-1.23l4.15-1.25c0.33-0.1,0.65-0.21,0.98-0.31L307.45,254.91z M307.01,276.23
	c-0.3,0.05-0.59,0.09-0.89,0.14l-4.27,0.73c-1.42,0.25-2.85,0.48-4.26,0.75l-8.51,1.59l-8.48,1.7c-2.83,0.56-5.64,1.2-8.46,1.79
	c-2.82,0.61-5.64,1.19-8.45,1.85l-8.43,1.93c-2.64,0.59-5.27,1.24-7.9,1.88l-7.85-1.81c-2.79-0.66-5.61-1.24-8.41-1.86l-8.41-1.84
	l-8.44-1.74c-2.81-0.59-5.63-1.16-8.45-1.7c-2.82-0.54-5.63-1.12-8.46-1.63c-3.08-0.57-6.16-1.13-9.24-1.66l0.02,1.13
	c2.91,0.88,5.82,1.73,8.74,2.57c2.76,0.82,5.53,1.56,8.3,2.34c2.76,0.78,5.54,1.54,8.31,2.27l8.32,2.22l8.35,2.13
	c2.78,0.7,5.56,1.44,8.35,2.11l8.37,2.03l0.51,0.12l0.54-0.12c2.81-0.65,5.62-1.27,8.42-1.97l8.4-2.04c2.8-0.66,5.59-1.4,8.38-2.12
	c2.79-0.73,5.59-1.42,8.37-2.18l8.35-2.27l8.32-2.37c1.39-0.39,2.77-0.82,4.15-1.23l4.15-1.25c0.18-0.06,0.36-0.11,0.55-0.17
	L307.01,276.23z M239.5,573.58c-2.79-0.66-5.61-1.24-8.41-1.86l-8.41-1.84l-8.44-1.74c-2.06-0.43-4.13-0.84-6.2-1.25l0.39,3.2
	c1.67,0.46,3.34,0.93,5.02,1.37l5.96,1.59c9.08,0.46,16.54,0.71,21.41,0.84L239.5,573.58z M306.79,286.88
	c-0.22,0.04-0.45,0.07-0.67,0.11l-4.27,0.73c-1.42,0.25-2.85,0.48-4.26,0.75l-8.51,1.59l-8.48,1.7c-2.83,0.56-5.64,1.2-8.46,1.79
	c-2.82,0.61-5.64,1.19-8.45,1.85l-8.43,1.93c-2.64,0.59-5.27,1.24-7.9,1.88l-7.85-1.81c-2.79-0.66-5.61-1.24-8.41-1.86l-8.41-1.84
	l-8.44-1.74c-2.81-0.59-5.63-1.16-8.45-1.7c-2.82-0.54-5.63-1.12-8.46-1.63c-3-0.56-6.01-1.1-9.03-1.63l0.02,1.16
	c2.84,0.85,5.67,1.68,8.52,2.51c2.76,0.82,5.53,1.56,8.3,2.34c2.76,0.78,5.54,1.54,8.31,2.27l8.32,2.22l8.35,2.13
	c2.78,0.7,5.56,1.44,8.35,2.11l8.37,2.03l0.51,0.12l0.54-0.12c2.81-0.65,5.62-1.27,8.42-1.97l8.4-2.04c2.8-0.66,5.59-1.4,8.38-2.12
	c2.79-0.73,5.59-1.42,8.37-2.18l8.35-2.27l8.32-2.37c1.39-0.39,2.77-0.82,4.15-1.23l4.15-1.25c0.11-0.03,0.22-0.07,0.33-0.1
	L306.79,286.88z M196.85,237.56c2.76,0.82,5.53,1.56,8.3,2.34c2.76,0.78,5.54,1.54,8.31,2.27l8.32,2.22l8.35,2.13
	c2.78,0.7,5.56,1.44,8.35,2.11l8.37,2.03l0.51,0.12l0.54-0.12c2.81-0.65,5.62-1.27,8.42-1.97l8.4-2.04c2.8-0.66,5.59-1.4,8.38-2.12
	c2.79-0.73,5.59-1.42,8.37-2.18l8.35-2.27l8.32-2.37c1.39-0.39,2.77-0.82,4.15-1.23l4.15-1.25c0.47-0.15,0.95-0.3,1.42-0.45
	l0.02-1.18c-0.59,0.09-1.17,0.19-1.76,0.28l-4.27,0.73c-1.42,0.25-2.85,0.48-4.26,0.75l-8.51,1.59l-8.48,1.7
	c-2.83,0.56-5.64,1.2-8.46,1.79c-2.82,0.61-5.64,1.19-8.45,1.85l-8.43,1.93c-2.64,0.59-5.27,1.24-7.9,1.88l-7.85-1.81
	c-2.79-0.66-5.61-1.24-8.41-1.86l-8.41-1.84l-8.44-1.74c-2.81-0.59-5.63-1.16-8.45-1.7c-2.82-0.54-5.63-1.12-8.46-1.63
	c-3.37-0.62-6.74-1.23-10.11-1.81l0.02,1C190.44,235.68,193.64,236.63,196.85,237.56z M286.64,570.23l0.44-3.59l-6.49,1.3
	c-2.83,0.56-5.64,1.2-8.46,1.79c-2.82,0.61-5.64,1.19-8.45,1.85l-8.43,1.93c-0.44,0.1-0.87,0.2-1.31,0.3
	c8.06-0.26,15.71-0.58,22.96-0.98c1.52-0.39,3.04-0.78,4.56-1.2L286.64,570.23z M305.05,372.15l-3.2,0.55
	c-1.42,0.25-2.85,0.48-4.26,0.75l-8.51,1.59l-8.48,1.7c-2.83,0.56-5.64,1.2-8.46,1.79c-2.82,0.61-5.64,1.19-8.45,1.85l-8.43,1.93
	c-2.64,0.59-5.27,1.24-7.9,1.88l-7.85-1.81c-2.79-0.66-5.61-1.24-8.41-1.86l-8.41-1.84l-8.44-1.74c-2.81-0.59-5.63-1.16-8.45-1.7
	c-2.82-0.54-5.63-1.12-8.46-1.63c-2.43-0.45-4.85-0.89-7.28-1.32l0.03,1.37c2.26,0.67,4.51,1.34,6.77,1.99
	c2.76,0.82,5.53,1.56,8.3,2.34c2.76,0.78,5.54,1.54,8.31,2.27l8.32,2.22l8.35,2.13c2.78,0.7,5.56,1.44,8.35,2.11l8.37,2.03
	l0.51,0.12l0.54-0.12c2.81-0.65,5.62-1.27,8.42-1.97l8.4-2.04c2.8-0.66,5.59-1.4,8.38-2.12c2.79-0.73,5.59-1.42,8.37-2.18l8.35-2.27
	l8.32-2.37c1.39-0.39,2.77-0.82,4.15-1.23l2.73-0.82L305.05,372.15z M305.71,340.17l-3.85,0.66c-1.42,0.25-2.85,0.48-4.26,0.75
	l-8.51,1.59l-8.48,1.7c-2.83,0.56-5.64,1.2-8.46,1.79c-2.82,0.61-5.64,1.19-8.45,1.85l-8.43,1.93c-2.64,0.59-5.27,1.24-7.9,1.88
	l-7.85-1.81c-2.79-0.66-5.61-1.24-8.41-1.86l-8.41-1.84l-8.44-1.74c-2.81-0.59-5.63-1.16-8.45-1.7c-2.82-0.54-5.63-1.12-8.46-1.63
	c-2.64-0.49-5.29-0.97-7.94-1.44l0.03,1.3c2.47,0.74,4.95,1.46,7.43,2.18c2.76,0.82,5.53,1.56,8.3,2.34
	c2.76,0.78,5.54,1.54,8.31,2.27l8.32,2.22l8.35,2.13c2.78,0.7,5.56,1.44,8.35,2.11l8.37,2.03l0.51,0.12l0.54-0.12
	c2.81-0.65,5.62-1.27,8.42-1.97l8.4-2.04c2.8-0.66,5.59-1.4,8.38-2.12c2.79-0.73,5.59-1.42,8.37-2.18l8.35-2.27l8.32-2.37
	c1.39-0.39,2.77-0.82,4.15-1.23l3.38-1.02L305.71,340.17z M305.27,361.49l-3.42,0.59c-1.42,0.25-2.85,0.48-4.26,0.75l-8.51,1.59
	l-8.48,1.7c-2.83,0.56-5.64,1.2-8.46,1.79c-2.82,0.61-5.64,1.19-8.45,1.85l-8.43,1.93c-2.64,0.59-5.27,1.24-7.9,1.88l-7.85-1.81
	c-2.79-0.66-5.61-1.24-8.41-1.86l-8.41-1.84l-8.44-1.74c-2.81-0.59-5.63-1.16-8.45-1.7c-2.82-0.54-5.63-1.12-8.46-1.63
	c-2.5-0.46-5-0.92-7.5-1.36l0.03,1.35c2.33,0.69,4.66,1.38,6.99,2.05c2.76,0.82,5.53,1.56,8.3,2.34c2.76,0.78,5.54,1.54,8.31,2.27
	l8.32,2.22l8.35,2.13c2.78,0.7,5.56,1.44,8.35,2.11l8.37,2.03l0.51,0.12l0.54-0.12c2.81-0.65,5.62-1.27,8.42-1.97l8.4-2.04
	c2.8-0.66,5.59-1.4,8.38-2.12c2.79-0.73,5.59-1.42,8.37-2.18l8.35-2.27l8.32-2.37c1.39-0.39,2.77-0.82,4.15-1.23l2.95-0.89
	L305.27,361.49z M304.83,382.81l-2.98,0.51c-1.42,0.25-2.85,0.48-4.26,0.75l-8.51,1.59l-8.48,1.7c-2.83,0.56-5.64,1.2-8.46,1.79
	c-2.82,0.61-5.64,1.19-8.45,1.85l-8.43,1.93c-2.64,0.59-5.27,1.24-7.9,1.88L239.5,393c-2.79-0.66-5.61-1.24-8.41-1.86l-8.41-1.84
	l-8.44-1.74c-2.81-0.59-5.63-1.16-8.45-1.7c-2.82-0.54-5.63-1.12-8.46-1.63c-2.35-0.44-4.71-0.86-7.07-1.28l0.03,1.39
	c2.18,0.65,4.37,1.29,6.55,1.92c2.76,0.82,5.53,1.56,8.3,2.34c2.76,0.78,5.54,1.54,8.31,2.27l8.32,2.22l8.35,2.13
	c2.78,0.7,5.56,1.44,8.35,2.11l8.37,2.03l0.51,0.12l0.54-0.12c2.81-0.65,5.62-1.27,8.42-1.97l8.4-2.04c2.8-0.66,5.59-1.4,8.38-2.12
	c2.79-0.73,5.59-1.42,8.37-2.18l8.35-2.27l8.32-2.37c1.39-0.39,2.77-0.82,4.15-1.23l2.51-0.76L304.83,382.81z M306.14,318.85
	c-0.01,0-0.01,0-0.02,0l-4.27,0.73c-1.42,0.25-2.85,0.48-4.26,0.75l-8.51,1.59l-8.48,1.7c-2.83,0.56-5.64,1.2-8.46,1.79
	c-2.82,0.61-5.64,1.19-8.45,1.85l-8.43,1.93c-2.64,0.59-5.27,1.24-7.9,1.88l-7.85-1.81c-2.79-0.66-5.61-1.24-8.41-1.86l-8.41-1.84
	l-8.44-1.74c-2.81-0.59-5.63-1.16-8.45-1.7c-2.82-0.54-5.63-1.12-8.46-1.63c-2.79-0.52-5.58-1.03-8.37-1.52l0.03,1.25
	c2.62,0.78,5.24,1.55,7.86,2.31c2.76,0.82,5.53,1.56,8.3,2.34c2.76,0.78,5.54,1.54,8.31,2.27l8.32,2.22l8.35,2.13
	c2.78,0.7,5.56,1.44,8.35,2.11l8.37,2.03l0.51,0.12l0.54-0.12c2.81-0.65,5.62-1.27,8.42-1.97l8.4-2.04c2.8-0.66,5.59-1.4,8.38-2.12
	c2.79-0.73,5.59-1.42,8.37-2.18l8.35-2.27l8.32-2.37c1.39-0.39,2.77-0.82,4.15-1.23l3.82-1.15L306.14,318.85z M306.36,308.2
	c-0.08,0.01-0.16,0.03-0.24,0.04l-4.27,0.73c-1.42,0.25-2.85,0.48-4.26,0.75l-8.51,1.59l-8.48,1.7c-2.83,0.56-5.64,1.2-8.46,1.79
	c-2.82,0.61-5.64,1.19-8.45,1.85l-8.43,1.93c-2.64,0.59-5.27,1.24-7.9,1.88l-7.85-1.81c-2.79-0.66-5.61-1.24-8.41-1.86l-8.41-1.84
	l-8.44-1.74c-2.81-0.59-5.63-1.16-8.45-1.7c-2.82-0.54-5.63-1.12-8.46-1.63c-2.86-0.53-5.72-1.05-8.59-1.55l0.02,1.22
	c2.69,0.81,5.38,1.59,8.08,2.37c2.76,0.82,5.53,1.56,8.3,2.34c2.76,0.78,5.54,1.54,8.31,2.27l8.32,2.22l8.35,2.13
	c2.78,0.7,5.56,1.44,8.35,2.11l8.37,2.03l0.51,0.12l0.54-0.12c2.81-0.65,5.62-1.27,8.42-1.97l8.4-2.04c2.8-0.66,5.59-1.4,8.38-2.12
	c2.79-0.73,5.59-1.42,8.37-2.18l8.35-2.27l8.32-2.37c1.39-0.39,2.77-0.82,4.15-1.23l4.04-1.22L306.36,308.2z M305.92,329.51
	l-4.07,0.7c-1.42,0.25-2.85,0.48-4.26,0.75l-8.51,1.59l-8.48,1.7c-2.83,0.56-5.64,1.2-8.46,1.79c-2.82,0.61-5.64,1.19-8.45,1.85
	l-8.43,1.93c-2.64,0.59-5.27,1.24-7.9,1.88l-7.85-1.81c-2.79-0.66-5.61-1.24-8.41-1.86l-8.41-1.84l-8.44-1.74
	c-2.81-0.59-5.63-1.16-8.45-1.7c-2.82-0.54-5.63-1.12-8.46-1.63c-2.72-0.5-5.43-1-8.15-1.48l0.03,1.27
	c2.55,0.76,5.09,1.51,7.64,2.25c2.76,0.82,5.53,1.56,8.3,2.34c2.76,0.78,5.54,1.54,8.31,2.27l8.32,2.22l8.35,2.13
	c2.78,0.7,5.56,1.44,8.35,2.11l8.37,2.03l0.51,0.12l0.54-0.12c2.81-0.65,5.62-1.27,8.42-1.97l8.4-2.04c2.8-0.66,5.59-1.4,8.38-2.12
	c2.79-0.73,5.59-1.42,8.37-2.18l8.35-2.27l8.32-2.37c1.39-0.39,2.77-0.82,4.15-1.23l3.6-1.09L305.92,329.51z M306.55,298.93
	l0.03-1.39c-0.15,0.02-0.3,0.05-0.46,0.07l-4.27,0.73c-1.42,0.25-2.85,0.48-4.26,0.75l-8.51,1.59l-8.48,1.7
	c-2.83,0.56-5.64,1.2-8.46,1.79c-2.82,0.61-5.64,1.19-8.45,1.85l-8.43,1.93c-2.64,0.59-5.27,1.24-7.9,1.88l-7.85-1.81
	c-2.79-0.66-5.61-1.24-8.41-1.86l-8.41-1.84l-8.44-1.74c-2.81-0.59-5.63-1.16-8.45-1.7c-2.82-0.54-5.63-1.12-8.46-1.63
	c-2.93-0.54-5.87-1.08-8.81-1.59l0.02,1.19c2.76,0.83,5.53,1.64,8.3,2.44c2.76,0.82,5.53,1.56,8.3,2.34
	c2.76,0.78,5.54,1.54,8.31,2.27l8.32,2.22l8.35,2.13c2.78,0.7,5.56,1.44,8.35,2.11l8.37,2.03l0.51,0.12l0.54-0.12
	c2.81-0.65,5.62-1.27,8.42-1.97l8.4-2.04c2.8-0.66,5.59-1.4,8.38-2.12c2.79-0.73,5.59-1.42,8.37-2.18l8.35-2.27l8.32-2.37
	c1.39-0.39,2.77-0.82,4.15-1.23l4.15-1.25C306.48,298.95,306.51,298.94,306.55,298.93z"/>
<polygon class="Colour2 fill" points="320.43,454.2 358.93,434.06 357.27,436.6 374.09,272.57 363.67,437.13 363.57,438.79 
	362.02,439.68 324.34,461.3 "/>
<path class="Colour2 fill" d="M328.69,237.3l67.72-32.36c0.01-0.07,0.01-0.11,0.01-0.11c0.08-2.17,0.18-4.32,0.31-6.46l-67.19,32.1
	L328.69,237.3z"/>
<path class="Colour2 fill" d="M327.4,247.72l68.33-32.65c0.18-2.74,0.32-4.96,0.44-6.63l-67.92,32.45L327.4,247.72z"/>
<path class="Colour2 fill" d="M394.58,531.03c-29.24,8.02-61.91,13.51-75.09,15.56l17.92-245.09l-29.98,251.17l-0.78,6.99l8.47-0.71
	c2.39-0.34,43.23-6.13,80.41-16.16C395.19,538.89,394.88,534.97,394.58,531.03z"/>
<polygon class="Colour2 fill" points="170.76,461.3 133.08,439.68 131.53,438.79 131.43,437.13 121.01,272.57 137.83,436.6 
	136.17,434.06 174.67,454.2 "/>
<path class="Colour2 fill" d="M166.4,237.3l-67.72-32.36c-0.01-0.07-0.01-0.11-0.01-0.11c-0.08-2.17-0.18-4.32-0.31-6.46l67.19,32.1
	L166.4,237.3z"/>
<path class="Colour2 fill" d="M167.7,247.72l-68.33-32.65c-0.18-2.74-0.32-4.96-0.44-6.63l67.92,32.45L167.7,247.72z"/>
<path class="Colour2 fill" d="M100.51,531.03c29.24,8.02,61.91,13.51,75.09,15.56l-17.92-245.09l29.98,251.17l0.78,6.99l-8.47-0.71
	c-2.39-0.34-43.23-6.13-80.41-16.16C99.9,538.89,100.22,534.97,100.51,531.03z"/>
<g>
	<path class="Colour2 fill" d="M118.44,51.17l60.06-23.6c-1.09-2.22-1.99-4.36-2.73-6.39L121.02,42.7L118.44,51.17z"/>
	<polygon class="Colour2 fill" points="114.14,45.4 91.59,54.26 88.46,62.96 111.55,53.88 	"/>
</g>
<g>
	<path class="Colour2 fill" d="M376.42,51.17l-60.06-23.6c1.09-2.22,1.99-4.36,2.73-6.39l54.74,21.51L376.42,51.17z"/>
	<polygon class="Colour2 fill" points="380.71,45.4 403.26,54.26 406.39,62.96 383.3,53.88 	"/>
</g>
<path class="Colour2 fill" d="M442.09,198.38l-24.24-44.73l21.29,54.79c0,0,26.57-9.99,50.48-23.89c-0.52-2.85-1.06-5.66-1.64-8.41
	C466.8,188.87,442.09,198.38,442.09,198.38z"/>
<path class="Colour2 fill" d="M439.86,238.33l-35.55-90.75c-3.81,15.83-5.78,29.64-6.81,39.72l18.21,54.49
	C422.61,242.49,431.08,240.97,439.86,238.33z"/>
<path class="Colour2 fill" d="M52.81,198.38l24.24-44.73l-21.29,54.79c0,0-26.57-9.99-50.48-23.89c0.52-2.85,1.06-5.66,1.64-8.41
	C28.09,188.87,52.81,198.38,52.81,198.38z"/>
<path class="Colour2 fill" d="M55.03,238.33l35.55-90.75c3.81,15.83,5.78,29.64,6.81,39.72l-18.21,54.49
	C72.28,242.49,63.81,240.97,55.03,238.33z"/>
<g>
	<path class="st1" d="M395.06,538.34c0,0-23,15.87-147.55,20.82"/>
	<path class="st1" d="M247.51,559.17c-124.55-4.96-147.55-20.82-147.55-20.82"/>
</g>
<g>
	<path class="st1" d="M3.52,195.94c0,0,48.93,31.08,86.1,30.04"/>
	<path class="st1" d="M491.37,195.94c0,0-48.93,31.08-86.1,30.04"/>
</g>
<g>
	<path class="st3" d="M3.05,200.41c0,0,48.93,31.08,86.1,30.04"/>
	<path class="st3" d="M491.98,200.41c0,0-48.93,31.08-86.1,30.04"/>
</g>
<g>
	<path class="st1" d="M314.23,2.27c0,0-26.79,9.68-66.73,9.49l-0.38,0c-39.73,0.13-66.35-9.49-66.35-9.49l-8.51,4.63
		c0,0,3.87,57.8,75.24,57.8l0.22,0c71.16-0.12,75.02-57.8,75.02-57.8L314.23,2.27z M247.83,51.06l-0.32,0
		c-40.44,0-57.01-24.16-63.28-38.48c9.86,2,39.05,7.48,62.98,7.52l0.29,0c23.99,0,53.38-5.52,63.28-7.52
		C304.53,26.86,288.03,50.94,247.83,51.06z"/>
	<g>
		<path class="st1" d="M439.12,65.03c0,0,46.18,55.04,54.38,148.75c0,0-64.06,39.05-86.41,25.66c0,0,1.37-13.64-10.68-34.34
			C396.42,205.1,396.29,130.85,439.12,65.03z"/>
		<path class="st1" d="M55.89,65.03c0,0-46.18,55.04-54.38,148.75c0,0,64.06,39.05,86.41,25.66c0,0-1.37-13.64,10.68-34.34
			C98.59,205.1,98.72,130.85,55.89,65.03z"/>
		<g>
			<path class="st1" d="M439.14,65.03C427.97,46.44,322.82,6.65,322.82,6.65l-0.31,0.11l0.26,0.14c0,0-3.86,57.68-75.02,57.8
				l-0.22,0c-71.37,0-75.24-57.8-75.24-57.8l0.24-0.13l-0.3-0.12c0,0-105.15,39.79-116.32,58.38c0,0,39.73,55.78,42.71,140.07
				c0,0,14.4,194.37,0,348.07c0,0,23.21,15.87,148.91,20.82c125.7-4.96,148.91-20.82,148.91-20.82c-14.4-153.71,0-348.07,0-348.07
				C399.42,120.81,439.14,65.03,439.14,65.03z"/>
		</g>
	</g>
</g>
<g id="FBodyLogos"></g>
</svg>
