<?xml version="1.0" encoding="utf-8"?>
<!-- Generator: Adobe Illustrator 19.1.0, SVG Export Plug-In . SVG Version: 6.00 Build 0)  -->
<svg version="1.1" id="Layer_1" xmlns="http://www.w3.org/2000/svg" xmlns:xlink="http://www.w3.org/1999/xlink" x="0px" y="0px"
	 viewBox="0 0 495 576" style="enable-background:new 0 0 495 576;" xml:space="preserve">
<style type="text/css">
	<![CDATA[
	@font-face{font-family:'codaheavy';src:url('/fonts/coda-heavy-webfont.woff') format('woff')}
	text{font-family:Impact,codaheavy,sans-serif}
	.Number.fill{fill:#000}
	.NumberOutline.stroke{fill:none;stroke:#777;stroke-width:2.5}
	.Colour1.fill{fill:#1E2258;}
	.Colour2.fill{fill:#C8C813;}
	.Colour3.fill{fill:#0B0D2D;}
	.Colour4.fill{fill:#1E2258;}
	.NeckAndArmTrim.fill{fill:#0B0D2D;stroke:#000000;stroke-width:0.25;stroke-miterlimit:10;}
	.BottomHem.fill{fill:#0D143A;}
	.st0{fill:none;stroke:#000000;stroke-width:0.25;stroke-miterlimit:10;stroke-dasharray:2;}
	.st1{fill:url(#SVGID_2_);}
	.st2{fill:none;stroke:#000000;stroke-width:0.25;stroke-miterlimit:10;}
	]]>
</style>
<linearGradient id="SVGID_1_" gradientUnits="userSpaceOnUse" x1="-249.9113" y1="-65.8711" x2="-249.9113" y2="-64.8711">
	<stop  offset="0" style="stop-color:#1E2258;stop-opacity:0"/>
	<stop  offset="1" style="stop-color:#1E396F"/>
</linearGradient>
<path class="Colour3 fill" d="M439.12,65.31c0,0,46.18,55.01,54.38,148.67c0,0-64.06,39.03-86.41,25.65c0,0,1.37-13.63-10.68-34.32
	C396.42,205.31,396.29,131.09,439.12,65.31z"/>
<path class="Colour3 fill" d="M55.89,65.31c0,0-46.18,55.01-54.38,148.67c0,0,64.06,39.03,86.41,25.65c0,0-1.37-13.63,10.68-34.32
	C98.59,205.31,98.72,131.09,55.89,65.31z"/>
<path class="NeckAndArmTrim fill" d="M419.26,241.84c-4.7,0-8.59-0.85-11.56-2.53c0.07-1.29,0.13-5.73-1.6-12.55
	c0.35,0.01,0.69,0.01,1.04,0.01c34.14,0,77.58-25.84,83.83-29.67c0.77,5.38,1.41,10.9,1.91,16.57
	C488.8,216.12,445.19,241.84,419.26,241.84z"/>
<path class="NeckAndArmTrim fill" d="M2.11,213.67c0.5-5.66,1.15-11.19,1.91-16.57c6.25,3.83,49.69,29.67,83.83,29.67
	c0.35,0,0.7-0.01,1.04-0.01c-1.73,6.82-1.67,11.26-1.6,12.55c-2.97,1.68-6.85,2.53-11.56,2.53C49.82,241.84,6.2,216.12,2.11,213.67z
	"/>
<path class="Colour3 fill" d="M247.85,574c125.4-4.97,148.57-20.8,148.57-20.8c-14.4-153.63,0-347.89,0-347.89
	c2.98-84.25,42.71-140,42.71-140C427.95,46.72,322.8,6.95,322.8,6.95l-0.12,0.01c0,0-30.18,12.46-75.17,12.25l-0.43,0
	c-44.76,0.14-74.75-12.25-74.75-12.25l-0.12-0.01c0,0-105.15,39.77-116.32,58.35c0,0,39.73,55.75,42.71,140
	c0,0,14.4,194.27,0,347.89c0,0,23.17,15.83,148.59,20.8L247.85,574z"/>
<g>
	<path class="st0" d="M395.05,542.82c0,0-23,15.86-147.55,20.81"/>
	<path class="st0" d="M247.5,563.64c-124.55-4.96-147.55-20.81-147.55-20.81"/>
</g>
<path class="NeckAndArmTrim fill" d="M310.75,2.01l-0.1,0.01c0,0-25.35,9.15-63.15,8.97l-0.36,0c-37.6,0.12-62.79-8.97-62.79-8.97
	l-0.1-0.01l-11.93,4.95c0,0,29.99,12.39,74.75,12.25l0.43,0c44.99,0.21,75.17-12.25,75.17-12.25L310.75,2.01z"/>
<path class="Colour1 fill" d="M313.83,32.89l95.37,37.46l16.19,18.93c-8.07,16.48-17.8,40.73-23.71,70.79l-154.11,70.58L93.46,160.07
	C87.55,130,77.82,105.76,69.75,89.28l16.19-18.93l95.37-37.46l66.3,27.43L313.83,32.89z"/>
<path class="Colour1 fill" d="M379.28,272.72l-9.85,165.95l20.89-10.91c-0.9-63.32,0.98-123.29,2.89-165.02L379.28,272.72z"/>
<path class="Colour1 fill" d="M325.37,538.36c0,0,38.83-6.56,68.74-14.71c-2.06-29.58-3.19-60.08-3.7-89.93l-59.22,33.29L325.37,538.36z"
	/>
<path class="Colour1 fill" d="M115.94,272.72l9.85,165.95l-20.89-10.91c0.9-63.32-0.98-123.29-2.89-165.02L115.94,272.72z"/>
<path class="Colour1 fill" d="M169.85,538.36c0,0-38.83-6.56-68.74-14.71c2.06-29.58,3.19-60.08,3.7-89.93l59.22,33.29L169.85,538.36z"/>
<path class="Colour1 fill" d="M315.48,232.39l-9.86,183.32l19.74-161.2l70.08-33.75c-0.2,3.26-0.42,6.98-0.66,11.13l-61.3,31.67
	l-40.81,307.66c-2.01,0.15-4.06,0.3-6.15,0.44l17.41-142.2l4.15-203.27l90-42.83c-0.3,2.68-0.57,5.39-0.8,8.13L315.48,232.39z
	 M191.27,429.46l-4.15-203.27l-90-42.83c0.3,2.68,0.57,5.39,0.8,8.13l81.81,40.9l9.86,183.32l-19.74-161.2l-70.08-33.75
	c0.2,3.26,0.42,6.98,0.66,11.13l61.3,31.67l40.81,307.66c2.01,0.15,4.06,0.3,6.15,0.44L191.27,429.46z"/>
<linearGradient id="SVGID_2_" gradientUnits="userSpaceOnUse" x1="247.6082" y1="235.5504" x2="247.6082" y2="555.4146">
	<stop  offset="0" style="stop-color:#1E2258;stop-opacity:0"/>
	<stop  offset="1" style="stop-color:#1E396F"/>
</linearGradient>
<path class="Colour4 fill" d="M302.35,438.37c-1.38,0.41-2.76,0.84-4.15,1.23l-8.32,2.37l-8.35,2.27c-2.78,0.76-5.58,1.45-8.37,2.18
	c-2.79,0.72-5.58,1.45-8.38,2.12l-8.4,2.04c-2.8,0.7-5.61,1.32-8.42,1.96l-0.54,0.12l-0.51-0.12l-8.37-2.03
	c-2.79-0.66-5.57-1.41-8.35-2.1l-8.35-2.13l-8.32-2.22c-2.78-0.73-5.55-1.49-8.31-2.27c-2.76-0.78-5.54-1.52-8.3-2.34
	c-1.53-0.44-3.05-0.89-4.58-1.34l-0.2-1.65c1.75,0.32,3.51,0.63,5.26,0.95c2.83,0.5,5.64,1.09,8.46,1.63
	c2.82,0.54,5.64,1.11,8.45,1.7l8.44,1.74l8.41,1.84c2.8,0.62,5.61,1.2,8.41,1.86l7.85,1.81c2.63-0.64,5.26-1.29,7.9-1.88l8.43-1.93
	c2.81-0.66,5.63-1.24,8.45-1.85c2.82-0.59,5.63-1.23,8.46-1.79l8.48-1.7l8.51-1.59c1.42-0.27,2.84-0.5,4.26-0.75l1.2-0.2l-0.23,1.91
	L302.35,438.37z M301.78,447.14c-1.38,0.24-2.76,0.46-4.13,0.73l-8.51,1.59l-8.48,1.7c-2.83,0.56-5.64,1.2-8.46,1.79
	c-2.82,0.61-5.64,1.19-8.45,1.85l-8.43,1.93c-2.64,0.59-5.27,1.24-7.9,1.88l-7.85-1.81c-2.79-0.66-5.61-1.24-8.41-1.86l-8.41-1.84
	l-8.44-1.74c-2.81-0.59-5.63-1.16-8.45-1.7c-2.82-0.54-5.63-1.12-8.46-1.63c-1.31-0.24-2.62-0.47-3.93-0.71l0.22,1.8
	c1.08,0.31,2.15,0.64,3.23,0.95c2.76,0.82,5.53,1.56,8.3,2.34c2.76,0.78,5.54,1.54,8.31,2.27l8.32,2.22l8.35,2.13
	c2.78,0.7,5.56,1.44,8.35,2.1l8.37,2.03l0.51,0.12l0.54-0.12c2.81-0.65,5.62-1.27,8.42-1.96l8.4-2.04c2.8-0.66,5.59-1.4,8.38-2.12
	c2.79-0.73,5.59-1.42,8.37-2.18l8.35-2.27l8.32-2.37c1.11-0.31,2.22-0.65,3.32-0.98L301.78,447.14z M300.45,457.99
	c-0.94,0.16-1.87,0.32-2.8,0.5l-8.51,1.59l-8.48,1.7c-2.83,0.56-5.64,1.2-8.46,1.79c-2.82,0.61-5.64,1.19-8.45,1.85l-8.43,1.93
	c-2.64,0.59-5.27,1.24-7.9,1.88l-7.85-1.81c-2.79-0.66-5.61-1.24-8.41-1.86l-8.41-1.84l-8.44-1.74c-2.81-0.59-5.63-1.16-8.45-1.7
	c-2.82-0.54-5.63-1.12-8.46-1.63c-0.87-0.16-1.74-0.31-2.6-0.47l0.24,1.96c0.63,0.18,1.25,0.37,1.88,0.55
	c2.76,0.82,5.53,1.56,8.3,2.34c2.76,0.78,5.54,1.54,8.31,2.27l8.32,2.22l8.35,2.13c2.78,0.7,5.56,1.44,8.35,2.1l8.37,2.03l0.51,0.12
	l0.54-0.12c2.81-0.65,5.62-1.27,8.42-1.96l8.4-2.04c2.8-0.66,5.59-1.4,8.38-2.12c2.79-0.73,5.59-1.42,8.37-2.18l8.35-2.27l8.32-2.37
	c0.66-0.18,1.32-0.38,1.97-0.58L300.45,457.99z M304.24,414.87l-2.33,0.4c-1.42,0.25-2.85,0.48-4.26,0.75l-8.51,1.59l-8.48,1.7
	c-2.83,0.56-5.64,1.2-8.46,1.79c-2.82,0.61-5.64,1.19-8.45,1.85l-8.43,1.93c-2.64,0.59-5.27,1.24-7.9,1.88l-7.85-1.81
	c-2.79-0.66-5.61-1.24-8.41-1.86l-8.41-1.84l-8.44-1.74c-2.81-0.59-5.63-1.16-8.45-1.7c-2.82-0.54-5.63-1.12-8.46-1.63
	c-2.14-0.4-4.27-0.78-6.41-1.16l0.03,1.47c1.97,0.58,3.93,1.16,5.9,1.73c2.76,0.82,5.53,1.56,8.3,2.34
	c2.76,0.78,5.54,1.54,8.31,2.27l8.32,2.22l8.35,2.13c2.78,0.7,5.56,1.44,8.35,2.1l8.37,2.03l0.51,0.12l0.54-0.12
	c2.81-0.65,5.62-1.27,8.42-1.96l8.4-2.04c2.8-0.66,5.59-1.4,8.38-2.12c2.79-0.73,5.59-1.42,8.37-2.18l8.35-2.27l8.32-2.37
	c1.39-0.39,2.77-0.82,4.15-1.23l1.85-0.56L304.24,414.87z M304.67,393.56l-2.77,0.47c-1.42,0.25-2.85,0.48-4.26,0.75l-8.51,1.59
	l-8.48,1.7c-2.83,0.56-5.64,1.2-8.46,1.79c-2.82,0.61-5.64,1.19-8.45,1.85l-8.43,1.93c-2.64,0.59-5.27,1.24-7.9,1.88l-7.85-1.81
	c-2.79-0.66-5.61-1.24-8.41-1.86l-8.41-1.84l-8.44-1.74c-2.81-0.59-5.63-1.16-8.45-1.7c-2.82-0.54-5.63-1.12-8.46-1.63
	c-2.28-0.42-4.56-0.83-6.85-1.24l0.03,1.42c2.11,0.63,4.22,1.25,6.34,1.86c2.76,0.82,5.53,1.56,8.3,2.34
	c2.76,0.78,5.54,1.54,8.31,2.27l8.32,2.22l8.35,2.13c2.78,0.7,5.56,1.44,8.35,2.1l8.37,2.03l0.51,0.12l0.54-0.12
	c2.81-0.65,5.62-1.27,8.42-1.96l8.4-2.04c2.8-0.66,5.59-1.4,8.38-2.12c2.79-0.73,5.59-1.42,8.37-2.18l8.35-2.27l8.32-2.37
	c1.39-0.39,2.77-0.82,4.15-1.23l2.29-0.69L304.67,393.56z M304.02,425.53l-2.11,0.36c-1.42,0.25-2.85,0.48-4.26,0.75l-8.51,1.59
	l-8.48,1.7c-2.83,0.56-5.64,1.2-8.46,1.79c-2.82,0.61-5.64,1.19-8.45,1.85l-8.43,1.93c-2.64,0.59-5.27,1.24-7.9,1.88l-7.85-1.81
	c-2.79-0.66-5.61-1.24-8.41-1.86l-8.41-1.84l-8.44-1.74c-2.81-0.59-5.63-1.16-8.45-1.7c-2.82-0.54-5.63-1.12-8.46-1.63
	c-2.06-0.38-4.13-0.75-6.2-1.12l0.03,1.49c1.89,0.56,3.79,1.12,5.68,1.67c2.76,0.82,5.53,1.56,8.3,2.34
	c2.76,0.78,5.54,1.54,8.31,2.27l8.32,2.22l8.35,2.13c2.78,0.7,5.56,1.44,8.35,2.1l8.37,2.03l0.51,0.12l0.54-0.12
	c2.81-0.65,5.62-1.27,8.42-1.96l8.4-2.04c2.8-0.66,5.59-1.4,8.38-2.12c2.79-0.73,5.59-1.42,8.37-2.18l8.35-2.27l8.32-2.37
	c1.39-0.39,2.77-0.82,4.15-1.23l1.64-0.49L304.02,425.53z M298.82,471.27l0.3-2.43c-0.49,0.09-0.98,0.17-1.48,0.27l-8.51,1.59
	l-8.48,1.7c-2.83,0.56-5.64,1.2-8.46,1.79c-2.82,0.61-5.64,1.19-8.45,1.85l-8.43,1.93c-2.64,0.59-5.27,1.24-7.9,1.88l-7.85-1.81
	c-2.79-0.66-5.61-1.24-8.41-1.86l-8.41-1.84l-8.44-1.74c-2.81-0.59-5.63-1.16-8.45-1.7c-2.82-0.54-5.63-1.12-8.46-1.63
	c-0.42-0.08-0.85-0.15-1.27-0.23l0.26,2.11c0.18,0.05,0.35,0.1,0.53,0.16c2.76,0.82,5.53,1.56,8.3,2.34
	c2.76,0.78,5.54,1.54,8.31,2.27l8.32,2.22l8.35,2.13c2.78,0.7,5.56,1.44,8.35,2.1l8.37,2.03l0.51,0.12l0.54-0.12
	c2.81-0.65,5.62-1.27,8.42-1.96l8.4-2.04c2.8-0.66,5.59-1.4,8.38-2.12c2.79-0.73,5.59-1.42,8.37-2.18l8.35-2.27l8.32-2.37
	C298.41,471.39,298.61,471.33,298.82,471.27z M304.46,404.22l-2.55,0.44c-1.42,0.25-2.85,0.48-4.26,0.75l-8.51,1.59l-8.48,1.7
	c-2.83,0.56-5.64,1.2-8.46,1.79c-2.82,0.61-5.64,1.19-8.45,1.85l-8.43,1.93c-2.64,0.59-5.27,1.24-7.9,1.88l-7.85-1.81
	c-2.79-0.66-5.61-1.24-8.41-1.86l-8.41-1.84l-8.44-1.74c-2.81-0.59-5.63-1.16-8.45-1.7c-2.82-0.54-5.63-1.12-8.46-1.63
	c-2.21-0.41-4.42-0.81-6.63-1.2l0.03,1.44c2.04,0.6,4.08,1.21,6.12,1.8c2.76,0.82,5.53,1.56,8.3,2.34c2.76,0.78,5.54,1.54,8.31,2.27
	l8.32,2.22l8.35,2.13c2.78,0.7,5.56,1.44,8.35,2.1l8.37,2.03l0.51,0.12l0.54-0.12c2.81-0.65,5.62-1.27,8.42-1.96l8.4-2.04
	c2.8-0.66,5.59-1.4,8.38-2.12c2.79-0.73,5.59-1.42,8.37-2.18l8.35-2.27l8.32-2.37c1.39-0.39,2.77-0.82,4.15-1.23l2.07-0.63
	L304.46,404.22z M289.81,544.89l-0.67,0.13l-8.48,1.7c-2.83,0.56-5.64,1.2-8.46,1.79c-2.82,0.61-5.64,1.19-8.45,1.85l-8.43,1.93
	c-2.64,0.59-5.27,1.24-7.9,1.88l-7.85-1.81c-2.79-0.66-5.61-1.24-8.41-1.86l-8.41-1.84l-8.44-1.74c-2.81-0.59-5.63-1.16-8.45-1.7
	c-0.14-0.03-0.28-0.05-0.42-0.08l0.37,2.99c2.57,0.72,5.13,1.43,7.71,2.1l8.32,2.22l8.35,2.13c2.78,0.7,5.56,1.44,8.35,2.1
	l8.37,2.03l0.51,0.12l0.54-0.12c2.81-0.65,5.62-1.27,8.42-1.96l8.4-2.04c2.8-0.66,5.59-1.4,8.38-2.12c2.79-0.73,5.59-1.42,8.37-2.18
	l7.87-2.14L289.81,544.89z M290.74,537.28l0.4-3.25l-2,0.37l-8.48,1.7c-2.83,0.56-5.64,1.2-8.46,1.79
	c-2.82,0.61-5.64,1.19-8.45,1.85l-8.43,1.93c-2.64,0.59-5.27,1.24-7.9,1.88l-7.85-1.81c-2.79-0.66-5.61-1.24-8.41-1.86l-8.41-1.84
	l-8.44-1.74c-2.81-0.59-5.63-1.16-8.45-1.7c-0.58-0.11-1.17-0.23-1.75-0.34l0.35,2.88c0.25,0.07,0.5,0.14,0.74,0.21
	c2.76,0.78,5.54,1.54,8.31,2.27l8.32,2.22l8.35,2.13c2.78,0.7,5.56,1.44,8.35,2.1l8.37,2.03l0.51,0.12l0.54-0.12
	c2.81-0.65,5.62-1.27,8.42-1.96l8.4-2.04c2.8-0.66,5.59-1.4,8.38-2.12c2.79-0.73,5.59-1.42,8.37-2.18l8.35-2.27L290.74,537.28z
	 M292.47,523.16l-3.33,0.62l-8.48,1.7c-2.83,0.56-5.64,1.2-8.46,1.79c-2.82,0.61-5.64,1.19-8.45,1.85l-8.43,1.93
	c-2.64,0.59-5.27,1.24-7.9,1.88l-7.85-1.81c-2.79-0.66-5.61-1.24-8.41-1.86l-8.41-1.84l-8.44-1.74c-2.81-0.59-5.63-1.16-8.45-1.7
	c-1.03-0.2-2.05-0.4-3.08-0.6l0.34,2.77c0.7,0.19,1.39,0.39,2.09,0.58c2.76,0.78,5.54,1.54,8.31,2.27l8.32,2.22l8.35,2.13
	c2.78,0.7,5.56,1.44,8.35,2.1l8.37,2.03l0.51,0.12l0.54-0.12c2.81-0.65,5.62-1.27,8.42-1.96l8.4-2.04c2.8-0.66,5.59-1.4,8.38-2.12
	c2.79-0.73,5.59-1.42,8.37-2.18l8.35-2.27l2.21-0.63L292.47,523.16z M264.77,565.32c2.8-0.66,5.59-1.4,8.38-2.12
	c2.79-0.73,5.59-1.42,8.37-2.18l6.52-1.77l0.43-3.49l-7.82,1.56c-2.83,0.56-5.64,1.2-8.46,1.79c-2.82,0.61-5.64,1.19-8.45,1.85
	l-8.43,1.93c-2.64,0.59-5.27,1.24-7.9,1.88l-7.85-1.81c-2.79-0.66-5.61-1.24-8.41-1.86l-8.41-1.84l-8.44-1.74
	c-2.51-0.53-5.02-1.03-7.53-1.51l0.38,3.09c2.12,0.59,4.24,1.18,6.37,1.74l8.32,2.22l8.35,2.13c2.78,0.7,5.56,1.44,8.35,2.1
	l8.37,2.03l0.51,0.12l0.54-0.12c2.81-0.65,5.62-1.27,8.42-1.96L264.77,565.32z M297.79,479.7c-0.05,0.01-0.1,0.02-0.15,0.03
	l-8.51,1.59l-8.48,1.7c-2.83,0.56-5.64,1.2-8.46,1.79c-2.82,0.61-5.64,1.19-8.45,1.85l-8.43,1.93c-2.64,0.59-5.27,1.24-7.9,1.88
	l-7.85-1.81c-2.79-0.66-5.61-1.24-8.41-1.86l-8.41-1.84l-8.44-1.74c-2.81-0.59-5.63-1.16-8.45-1.7c-2.8-0.54-5.6-1.11-8.41-1.62
	l0.28,2.26c2.49,0.72,4.99,1.4,7.48,2.1c2.76,0.78,5.54,1.54,8.31,2.27l8.32,2.22l8.35,2.13c2.78,0.7,5.56,1.44,8.35,2.1l8.37,2.03
	l0.51,0.12l0.54-0.12c2.81-0.65,5.62-1.27,8.42-1.96l8.4-2.04c2.8-0.66,5.59-1.4,8.38-2.12c2.79-0.73,5.59-1.42,8.37-2.18l8.35-2.27
	l7.6-2.16L297.79,479.7z M296.46,490.56l-7.32,1.37l-8.48,1.7c-2.83,0.56-5.64,1.2-8.46,1.79c-2.82,0.61-5.64,1.19-8.45,1.85
	l-8.43,1.93c-2.64,0.59-5.27,1.24-7.9,1.88l-7.85-1.81c-2.79-0.66-5.61-1.24-8.41-1.86l-8.41-1.84l-8.44-1.74
	c-2.81-0.59-5.63-1.16-8.45-1.7c-2.36-0.45-4.71-0.92-7.08-1.37l0.29,2.39c2.04,0.58,4.09,1.14,6.13,1.72
	c2.76,0.78,5.54,1.54,8.31,2.27l8.32,2.22l8.35,2.13c2.78,0.7,5.56,1.44,8.35,2.1l8.37,2.03l0.51,0.12l0.54-0.12
	c2.81-0.65,5.62-1.27,8.42-1.96l8.4-2.04c2.8-0.66,5.59-1.4,8.38-2.12c2.79-0.73,5.59-1.42,8.37-2.18l8.35-2.27l6.25-1.78
	L296.46,490.56z M295.13,501.43l-5.99,1.12l-8.48,1.7c-2.83,0.56-5.64,1.2-8.46,1.79c-2.82,0.61-5.64,1.19-8.45,1.85l-8.43,1.93
	c-2.64,0.59-5.27,1.24-7.9,1.88l-7.85-1.81c-2.79-0.66-5.61-1.24-8.41-1.86l-8.41-1.84l-8.44-1.74c-2.81-0.59-5.63-1.16-8.45-1.7
	c-1.92-0.37-3.83-0.75-5.74-1.11l0.31,2.53c1.59,0.45,3.19,0.89,4.78,1.34c2.76,0.78,5.54,1.54,8.31,2.27l8.32,2.22l8.35,2.13
	c2.78,0.7,5.56,1.44,8.35,2.1l8.37,2.03l0.51,0.12l0.54-0.12c2.81-0.65,5.62-1.27,8.42-1.96l8.4-2.04c2.8-0.66,5.59-1.4,8.38-2.12
	c2.79-0.73,5.59-1.42,8.37-2.18l8.35-2.27l4.9-1.4L295.13,501.43z M293.8,512.29l-4.66,0.87l-8.48,1.7
	c-2.83,0.56-5.64,1.2-8.46,1.79c-2.82,0.61-5.64,1.19-8.45,1.85l-8.43,1.93c-2.64,0.59-5.27,1.24-7.9,1.88l-7.85-1.81
	c-2.79-0.66-5.61-1.24-8.41-1.86l-8.41-1.84l-8.44-1.74c-2.81-0.59-5.63-1.16-8.45-1.7c-1.47-0.28-2.94-0.57-4.41-0.86l0.32,2.65
	c1.15,0.32,2.29,0.63,3.44,0.96c2.76,0.78,5.54,1.54,8.31,2.27l8.32,2.22l8.35,2.13c2.78,0.7,5.56,1.44,8.35,2.1l8.37,2.03
	l0.51,0.12l0.54-0.12c2.81-0.65,5.62-1.27,8.42-1.96l8.4-2.04c2.8-0.66,5.59-1.4,8.38-2.12c2.79-0.73,5.59-1.42,8.37-2.18l8.35-2.27
	l3.56-1.01L293.8,512.29z M305.55,350.95l-3.64,0.62c-1.42,0.25-2.85,0.48-4.26,0.75l-8.51,1.59l-8.48,1.7
	c-2.83,0.56-5.64,1.2-8.46,1.79c-2.82,0.61-5.64,1.19-8.45,1.85l-8.43,1.93c-2.64,0.59-5.27,1.24-7.9,1.88l-7.85-1.81
	c-2.79-0.66-5.61-1.24-8.41-1.86l-8.41-1.84l-8.44-1.74c-2.81-0.59-5.63-1.16-8.45-1.7c-2.82-0.54-5.63-1.12-8.46-1.63
	c-2.57-0.48-5.14-0.94-7.72-1.4l0.03,1.32c2.4,0.72,4.8,1.42,7.21,2.12c2.76,0.82,5.53,1.56,8.3,2.34c2.76,0.78,5.54,1.54,8.31,2.27
	l8.32,2.22l8.35,2.13c2.78,0.7,5.56,1.44,8.35,2.1l8.37,2.03l0.51,0.12l0.54-0.12c2.81-0.65,5.62-1.27,8.42-1.96l8.4-2.04
	c2.8-0.66,5.59-1.4,8.38-2.12c2.79-0.73,5.59-1.42,8.37-2.18l8.35-2.27l8.32-2.37c1.39-0.39,2.77-0.82,4.15-1.23l3.16-0.95
	L305.55,350.95z M307.72,244.43c-0.51,0.08-1.03,0.16-1.54,0.25l-4.27,0.73c-1.42,0.25-2.85,0.48-4.26,0.75l-8.51,1.59l-8.48,1.7
	c-2.83,0.56-5.64,1.2-8.46,1.79c-2.82,0.61-5.64,1.19-8.45,1.85l-8.43,1.93c-2.64,0.59-5.27,1.24-7.9,1.88l-7.85-1.81
	c-2.79-0.66-5.61-1.24-8.41-1.86l-8.41-1.84l-8.44-1.74c-2.81-0.59-5.63-1.16-8.45-1.7c-2.82-0.54-5.63-1.12-8.46-1.63
	c-3.29-0.61-6.59-1.2-9.9-1.77l0.02,1.03c3.13,0.94,6.26,1.87,9.39,2.77c2.76,0.82,5.53,1.56,8.3,2.34
	c2.76,0.78,5.54,1.54,8.31,2.27l8.32,2.22l8.35,2.13c2.78,0.7,5.56,1.44,8.35,2.1l8.37,2.03l0.51,0.12l0.54-0.12
	c2.81-0.65,5.62-1.27,8.42-1.96l8.4-2.04c2.8-0.66,5.59-1.4,8.38-2.12c2.79-0.73,5.59-1.42,8.37-2.18l8.35-2.27l8.32-2.37
	c1.39-0.39,2.77-0.82,4.15-1.23l4.15-1.25c0.4-0.12,0.8-0.25,1.2-0.38L307.72,244.43z M307.29,265.73
	c-0.37,0.06-0.74,0.12-1.11,0.18l-4.27,0.73c-1.42,0.25-2.85,0.48-4.26,0.75l-8.51,1.59l-8.48,1.7c-2.83,0.56-5.64,1.2-8.46,1.79
	c-2.82,0.61-5.64,1.19-8.45,1.85l-8.43,1.93c-2.64,0.59-5.27,1.24-7.9,1.88l-7.85-1.81c-2.79-0.66-5.61-1.24-8.41-1.86l-8.41-1.84
	l-8.44-1.74c-2.81-0.59-5.63-1.16-8.45-1.7c-2.82-0.54-5.63-1.12-8.46-1.63c-3.15-0.58-6.3-1.15-9.46-1.7l0.02,1.1
	c2.98,0.9,5.97,1.78,8.95,2.64c2.76,0.82,5.53,1.56,8.3,2.34c2.76,0.78,5.54,1.54,8.31,2.27l8.32,2.22l8.35,2.13
	c2.78,0.7,5.56,1.44,8.35,2.1l8.37,2.03l0.51,0.12l0.54-0.12c2.81-0.65,5.62-1.27,8.42-1.96l8.4-2.04c2.8-0.66,5.59-1.4,8.38-2.12
	c2.79-0.73,5.59-1.42,8.37-2.18l8.35-2.27l8.32-2.37c1.39-0.39,2.77-0.82,4.15-1.23l4.15-1.25c0.25-0.08,0.51-0.16,0.76-0.24
	L307.29,265.73z M307.5,255.08c-0.44,0.07-0.88,0.14-1.33,0.21l-4.27,0.73c-1.42,0.25-2.85,0.48-4.26,0.75l-8.51,1.59l-8.48,1.7
	c-2.83,0.56-5.64,1.2-8.46,1.79c-2.82,0.61-5.64,1.19-8.45,1.85l-8.43,1.93c-2.64,0.59-5.27,1.24-7.9,1.88l-7.85-1.81
	c-2.79-0.66-5.61-1.24-8.41-1.86l-8.41-1.84l-8.44-1.74c-2.81-0.59-5.63-1.16-8.45-1.7c-2.82-0.54-5.63-1.12-8.46-1.63
	c-3.22-0.6-6.45-1.18-9.68-1.73l0.02,1.06c3.05,0.92,6.11,1.82,9.17,2.71c2.76,0.82,5.53,1.56,8.3,2.34
	c2.76,0.78,5.54,1.54,8.31,2.27l8.32,2.22l8.35,2.13c2.78,0.7,5.56,1.44,8.35,2.1l8.37,2.03l0.51,0.12l0.54-0.12
	c2.81-0.65,5.62-1.27,8.42-1.96l8.4-2.04c2.8-0.66,5.59-1.4,8.38-2.12c2.79-0.73,5.59-1.42,8.37-2.18l8.35-2.27l8.32-2.37
	c1.39-0.39,2.77-0.82,4.15-1.23l4.15-1.25c0.33-0.1,0.65-0.21,0.98-0.31L307.5,255.08z M307.07,276.38
	c-0.3,0.05-0.59,0.09-0.89,0.14l-4.27,0.73c-1.42,0.25-2.85,0.48-4.26,0.75l-8.51,1.59l-8.48,1.7c-2.83,0.56-5.64,1.2-8.46,1.79
	c-2.82,0.61-5.64,1.19-8.45,1.85l-8.43,1.93c-2.64,0.59-5.27,1.24-7.9,1.88l-7.85-1.81c-2.79-0.66-5.61-1.24-8.41-1.86l-8.41-1.84
	l-8.44-1.74c-2.81-0.59-5.63-1.16-8.45-1.7c-2.82-0.54-5.63-1.12-8.46-1.63c-3.08-0.57-6.16-1.13-9.24-1.66l0.02,1.13
	c2.91,0.87,5.82,1.73,8.74,2.57c2.76,0.82,5.53,1.56,8.3,2.34c2.76,0.78,5.54,1.54,8.31,2.27l8.32,2.22l8.35,2.13
	c2.78,0.7,5.56,1.44,8.35,2.1l8.37,2.03l0.51,0.12l0.54-0.12c2.81-0.65,5.62-1.27,8.42-1.96l8.4-2.04c2.8-0.66,5.59-1.4,8.38-2.12
	c2.79-0.73,5.59-1.42,8.37-2.18l8.35-2.27l8.32-2.37c1.39-0.39,2.77-0.82,4.15-1.23l4.15-1.25c0.18-0.06,0.36-0.11,0.55-0.17
	L307.07,276.38z M239.56,573.58c-2.79-0.66-5.61-1.24-8.41-1.86l-8.41-1.84l-8.44-1.74c-2.06-0.43-4.13-0.84-6.2-1.25l0.39,3.19
	c1.67,0.46,3.34,0.93,5.02,1.37l5.96,1.59c9.08,0.46,16.54,0.71,21.41,0.84L239.56,573.58z M306.85,287.03
	c-0.22,0.04-0.45,0.07-0.67,0.11l-4.27,0.73c-1.42,0.25-2.85,0.48-4.26,0.75l-8.51,1.59l-8.48,1.7c-2.83,0.56-5.64,1.2-8.46,1.79
	c-2.82,0.61-5.64,1.19-8.45,1.85l-8.43,1.93c-2.64,0.59-5.27,1.24-7.9,1.88l-7.85-1.81c-2.79-0.66-5.61-1.24-8.41-1.86l-8.41-1.84
	l-8.44-1.74c-2.81-0.59-5.63-1.16-8.45-1.7c-2.82-0.54-5.63-1.12-8.46-1.63c-3-0.56-6.01-1.1-9.03-1.63l0.02,1.16
	c2.84,0.85,5.67,1.68,8.52,2.5c2.76,0.82,5.53,1.56,8.3,2.34c2.76,0.78,5.54,1.54,8.31,2.27l8.32,2.22l8.35,2.13
	c2.78,0.7,5.56,1.44,8.35,2.1l8.37,2.03l0.51,0.12l0.54-0.12c2.81-0.65,5.62-1.27,8.42-1.96l8.4-2.04c2.8-0.66,5.59-1.4,8.38-2.12
	c2.79-0.73,5.59-1.42,8.37-2.18l8.35-2.27l8.32-2.37c1.39-0.39,2.77-0.82,4.15-1.23l4.15-1.25c0.11-0.03,0.22-0.07,0.33-0.1
	L306.85,287.03z M196.91,237.73c2.76,0.82,5.53,1.56,8.3,2.34c2.76,0.78,5.54,1.54,8.31,2.27l8.32,2.22l8.35,2.13
	c2.78,0.7,5.56,1.44,8.35,2.1l8.37,2.03l0.51,0.12l0.54-0.12c2.81-0.65,5.62-1.27,8.42-1.96l8.4-2.04c2.8-0.66,5.59-1.4,8.38-2.12
	c2.79-0.73,5.59-1.42,8.37-2.18l8.35-2.27l8.32-2.37c1.39-0.39,2.77-0.82,4.15-1.23l4.15-1.25c0.47-0.15,0.95-0.3,1.42-0.45
	l0.02-1.18c-0.59,0.09-1.17,0.19-1.76,0.28l-4.27,0.73c-1.42,0.25-2.85,0.48-4.26,0.75l-8.51,1.59l-8.48,1.7
	c-2.83,0.56-5.64,1.2-8.46,1.79c-2.82,0.61-5.64,1.19-8.45,1.85l-8.43,1.93c-2.64,0.59-5.27,1.24-7.9,1.88l-7.85-1.81
	c-2.79-0.66-5.61-1.24-8.41-1.86l-8.41-1.84l-8.44-1.74c-2.81-0.59-5.63-1.16-8.45-1.7c-2.82-0.54-5.63-1.12-8.46-1.63
	c-3.37-0.62-6.74-1.23-10.11-1.81l0.02,1C190.5,235.86,193.7,236.8,196.91,237.73z M286.7,570.23l0.44-3.59l-6.49,1.3
	c-2.83,0.56-5.64,1.2-8.46,1.79c-2.82,0.61-5.64,1.19-8.45,1.85l-8.43,1.93c-0.44,0.1-0.87,0.2-1.31,0.3
	c8.06-0.26,15.71-0.58,22.96-0.98c1.52-0.39,3.04-0.78,4.56-1.2L286.7,570.23z M305.11,372.26l-3.2,0.55
	c-1.42,0.25-2.85,0.48-4.26,0.75l-8.51,1.59l-8.48,1.7c-2.83,0.56-5.64,1.2-8.46,1.79c-2.82,0.61-5.64,1.19-8.45,1.85l-8.43,1.93
	c-2.64,0.59-5.27,1.24-7.9,1.88l-7.85-1.81c-2.79-0.66-5.61-1.24-8.41-1.86l-8.41-1.84l-8.44-1.74c-2.81-0.59-5.63-1.16-8.45-1.7
	c-2.82-0.54-5.63-1.12-8.46-1.63c-2.43-0.45-4.85-0.89-7.28-1.32l0.03,1.37c2.26,0.67,4.51,1.33,6.77,1.99
	c2.76,0.82,5.53,1.56,8.3,2.34c2.76,0.78,5.54,1.54,8.31,2.27l8.32,2.22l8.35,2.13c2.78,0.7,5.56,1.44,8.35,2.1l8.37,2.03l0.51,0.12
	l0.54-0.12c2.81-0.65,5.62-1.27,8.42-1.96l8.4-2.04c2.8-0.66,5.59-1.4,8.38-2.12c2.79-0.73,5.59-1.42,8.37-2.18l8.35-2.27l8.32-2.37
	c1.39-0.39,2.77-0.82,4.15-1.23l2.73-0.82L305.11,372.26z M305.76,340.29l-3.85,0.66c-1.42,0.25-2.85,0.48-4.26,0.75l-8.51,1.59
	l-8.48,1.7c-2.83,0.56-5.64,1.2-8.46,1.79c-2.82,0.61-5.64,1.19-8.45,1.85l-8.43,1.93c-2.64,0.59-5.27,1.24-7.9,1.88l-7.85-1.81
	c-2.79-0.66-5.61-1.24-8.41-1.86l-8.41-1.84l-8.44-1.74c-2.81-0.59-5.63-1.16-8.45-1.7c-2.82-0.54-5.63-1.12-8.46-1.63
	c-2.64-0.49-5.29-0.97-7.94-1.44l0.03,1.3c2.47,0.74,4.95,1.46,7.43,2.18c2.76,0.82,5.53,1.56,8.3,2.34
	c2.76,0.78,5.54,1.54,8.31,2.27l8.32,2.22l8.35,2.13c2.78,0.7,5.56,1.44,8.35,2.1l8.37,2.03l0.51,0.12l0.54-0.12
	c2.81-0.65,5.62-1.27,8.42-1.96l8.4-2.04c2.8-0.66,5.59-1.4,8.38-2.12c2.79-0.73,5.59-1.42,8.37-2.18l8.35-2.27l8.32-2.37
	c1.39-0.39,2.77-0.82,4.15-1.23l3.38-1.02L305.76,340.29z M305.33,361.6l-3.42,0.59c-1.42,0.25-2.85,0.48-4.26,0.75l-8.51,1.59
	l-8.48,1.7c-2.83,0.56-5.64,1.2-8.46,1.79c-2.82,0.61-5.64,1.19-8.45,1.85l-8.43,1.93c-2.64,0.59-5.27,1.24-7.9,1.88l-7.85-1.81
	c-2.79-0.66-5.61-1.24-8.41-1.86l-8.41-1.84l-8.44-1.74c-2.81-0.59-5.63-1.16-8.45-1.7c-2.82-0.54-5.63-1.12-8.46-1.63
	c-2.5-0.46-5-0.92-7.5-1.36l0.03,1.34c2.33,0.69,4.66,1.38,6.99,2.05c2.76,0.82,5.53,1.56,8.3,2.34c2.76,0.78,5.54,1.54,8.31,2.27
	l8.32,2.22l8.35,2.13c2.78,0.7,5.56,1.44,8.35,2.1l8.37,2.03l0.51,0.12l0.54-0.12c2.81-0.65,5.62-1.27,8.42-1.96l8.4-2.04
	c2.8-0.66,5.59-1.4,8.38-2.12c2.79-0.73,5.59-1.42,8.37-2.18l8.35-2.27l8.32-2.37c1.39-0.39,2.77-0.82,4.15-1.23l2.95-0.89
	L305.33,361.6z M304.89,382.91l-2.98,0.51c-1.42,0.25-2.85,0.48-4.26,0.75l-8.51,1.59l-8.48,1.7c-2.83,0.56-5.64,1.2-8.46,1.79
	c-2.82,0.61-5.64,1.19-8.45,1.85l-8.43,1.93c-2.64,0.59-5.27,1.24-7.9,1.88l-7.85-1.81c-2.79-0.66-5.61-1.24-8.41-1.86l-8.41-1.84
	l-8.44-1.74c-2.81-0.59-5.63-1.16-8.45-1.7c-2.82-0.54-5.63-1.12-8.46-1.63c-2.35-0.44-4.71-0.86-7.07-1.28l0.03,1.39
	c2.18,0.65,4.37,1.29,6.55,1.92c2.76,0.82,5.53,1.56,8.3,2.34c2.76,0.78,5.54,1.54,8.31,2.27l8.32,2.22l8.35,2.13
	c2.78,0.7,5.56,1.44,8.35,2.1l8.37,2.03l0.51,0.12l0.54-0.12c2.81-0.65,5.62-1.27,8.42-1.96l8.4-2.04c2.8-0.66,5.59-1.4,8.38-2.12
	c2.79-0.73,5.59-1.42,8.37-2.18l8.35-2.27l8.32-2.37c1.39-0.39,2.77-0.82,4.15-1.23l2.51-0.76L304.89,382.91z M306.2,318.99
	c-0.01,0-0.01,0-0.02,0l-4.27,0.73c-1.42,0.25-2.85,0.48-4.26,0.75l-8.51,1.59l-8.48,1.7c-2.83,0.56-5.64,1.2-8.46,1.79
	c-2.82,0.61-5.64,1.19-8.45,1.85l-8.43,1.93c-2.64,0.59-5.27,1.24-7.9,1.88l-7.85-1.81c-2.79-0.66-5.61-1.24-8.41-1.86l-8.41-1.84
	l-8.44-1.74c-2.81-0.59-5.63-1.16-8.45-1.7c-2.82-0.54-5.63-1.12-8.46-1.63c-2.79-0.52-5.58-1.03-8.37-1.52l0.03,1.25
	c2.62,0.78,5.24,1.55,7.86,2.31c2.76,0.82,5.53,1.56,8.3,2.34c2.76,0.78,5.54,1.54,8.31,2.27l8.32,2.22l8.35,2.13
	c2.78,0.7,5.56,1.44,8.35,2.1l8.37,2.03l0.51,0.12l0.54-0.12c2.81-0.65,5.62-1.27,8.42-1.96l8.4-2.04c2.8-0.66,5.59-1.4,8.38-2.12
	c2.79-0.73,5.59-1.42,8.37-2.18l8.35-2.27l8.32-2.37c1.39-0.39,2.77-0.82,4.15-1.23l3.82-1.15L306.2,318.99z M306.42,308.33
	c-0.08,0.01-0.16,0.03-0.24,0.04l-4.27,0.73c-1.42,0.25-2.85,0.48-4.26,0.75l-8.51,1.59l-8.48,1.7c-2.83,0.56-5.64,1.2-8.46,1.79
	c-2.82,0.61-5.64,1.19-8.45,1.85l-8.43,1.93c-2.64,0.59-5.27,1.24-7.9,1.88l-7.85-1.81c-2.79-0.66-5.61-1.24-8.41-1.86l-8.41-1.84
	l-8.44-1.74c-2.81-0.59-5.63-1.16-8.45-1.7c-2.82-0.54-5.63-1.12-8.46-1.63c-2.86-0.53-5.72-1.05-8.59-1.55l0.02,1.22
	c2.69,0.81,5.38,1.59,8.08,2.37c2.76,0.82,5.53,1.56,8.3,2.34c2.76,0.78,5.54,1.54,8.31,2.27l8.32,2.22l8.35,2.13
	c2.78,0.7,5.56,1.44,8.35,2.1l8.37,2.03l0.51,0.12l0.54-0.12c2.81-0.65,5.62-1.27,8.42-1.96l8.4-2.04c2.8-0.66,5.59-1.4,8.38-2.12
	c2.79-0.73,5.59-1.42,8.37-2.18l8.35-2.27l8.32-2.37c1.39-0.39,2.77-0.82,4.15-1.23l4.04-1.22L306.42,308.33z M305.98,329.64
	l-4.07,0.7c-1.42,0.25-2.85,0.48-4.26,0.75l-8.51,1.59l-8.48,1.7c-2.83,0.56-5.64,1.2-8.46,1.79c-2.82,0.61-5.64,1.19-8.45,1.85
	l-8.43,1.93c-2.64,0.59-5.27,1.24-7.9,1.88l-7.85-1.81c-2.79-0.66-5.61-1.24-8.41-1.86l-8.41-1.84l-8.44-1.74
	c-2.81-0.59-5.63-1.16-8.45-1.7c-2.82-0.54-5.63-1.12-8.46-1.63c-2.72-0.5-5.43-1-8.15-1.48l0.03,1.27
	c2.55,0.76,5.09,1.51,7.64,2.24c2.76,0.82,5.53,1.56,8.3,2.34c2.76,0.78,5.54,1.54,8.31,2.27l8.32,2.22l8.35,2.13
	c2.78,0.7,5.56,1.44,8.35,2.1l8.37,2.03l0.51,0.12l0.54-0.12c2.81-0.65,5.62-1.27,8.42-1.96l8.4-2.04c2.8-0.66,5.59-1.4,8.38-2.12
	c2.79-0.73,5.59-1.42,8.37-2.18l8.35-2.27l8.32-2.37c1.39-0.39,2.77-0.82,4.15-1.23l3.6-1.09L305.98,329.64z M306.61,299.07
	l0.03-1.38c-0.15,0.02-0.3,0.05-0.46,0.07l-4.27,0.73c-1.42,0.25-2.85,0.48-4.26,0.75l-8.51,1.59l-8.48,1.7
	c-2.83,0.56-5.64,1.2-8.46,1.79c-2.82,0.61-5.64,1.19-8.45,1.85l-8.43,1.93c-2.64,0.59-5.27,1.24-7.9,1.88l-7.85-1.81
	c-2.79-0.66-5.61-1.24-8.41-1.86l-8.41-1.84l-8.44-1.74c-2.81-0.59-5.63-1.16-8.45-1.7c-2.82-0.54-5.63-1.12-8.46-1.63
	c-2.93-0.54-5.87-1.08-8.81-1.59l0.02,1.19c2.76,0.83,5.53,1.64,8.3,2.44c2.76,0.82,5.53,1.56,8.3,2.34
	c2.76,0.78,5.54,1.54,8.31,2.27l8.32,2.22l8.35,2.13c2.78,0.7,5.56,1.44,8.35,2.1l8.37,2.03l0.51,0.12l0.54-0.12
	c2.81-0.65,5.62-1.27,8.42-1.96l8.4-2.04c2.8-0.66,5.59-1.4,8.38-2.12c2.79-0.73,5.59-1.42,8.37-2.18l8.35-2.27l8.32-2.37
	c1.39-0.39,2.77-0.82,4.15-1.23l4.15-1.25C306.53,299.09,306.57,299.08,306.61,299.07z"/>
<g>
	<path class="st2" d="M395.05,538.36c0,0-23,15.86-147.55,20.81"/>
	<path class="st2" d="M247.5,559.18c-124.55-4.96-147.55-20.81-147.55-20.81"/>
</g>
<g>
	<path class="st2" d="M3.58,196.14c0,0,48.93,31.06,86.1,30.03"/>
	<path class="st2" d="M491.43,196.14c0,0-48.93,31.06-86.1,30.03"/>
</g>
<g>
	<path class="st0" d="M3.04,200.6c0,0,48.93,31.06,86.1,30.03"/>
	<path class="st0" d="M491.97,200.6c0,0-48.93,31.06-86.1,30.03"/>
</g>
<path class="st2" d="M439.11,65.29c0,0,46.18,55.01,54.38,148.67c0,0-64.06,39.03-86.41,25.65c0,0,1.37-13.63-10.68-34.32
	C396.41,205.29,396.28,131.08,439.11,65.29z"/>
<path class="st2" d="M55.88,65.29c0,0-46.18,55.01-54.38,148.67c0,0,64.06,39.03,86.41,25.65c0,0-1.37-13.63,10.68-34.32
	C98.58,205.29,98.71,131.08,55.88,65.29z"/>
<path class="st2" d="M247.5,574c125.7-4.96,148.91-20.81,148.91-20.81c-14.4-153.63,0-347.89,0-347.89
	c2.98-84.25,42.71-140,42.71-140C427.94,46.71,322.79,6.94,322.79,6.94l-0.12,0.01c0,0-30.18,12.46-75.17,12.25l-0.43,0
	c-44.76,0.14-74.75-12.25-74.75-12.25l-0.12-0.01c0,0-105.15,39.77-116.32,58.35c0,0,39.73,55.75,42.71,140
	c0,0,14.4,194.27,0,347.89C98.58,553.19,121.8,569.04,247.5,574"/>
<path class="st2" d="M310.74,2l-0.1,0.01c0,0-25.35,9.15-63.15,8.97l-0.36,0c-37.6,0.12-62.79-8.97-62.79-8.97L184.25,2l-11.93,4.95
	c0,0,29.99,12.39,74.75,12.25l0.43,0c44.99,0.21,75.17-12.25,75.17-12.25L310.74,2z"/>
<path class="Colour2 fill" d="M329.6,230.66l67.19-32.08c-0.12,2.13-0.23,4.28-0.31,6.45c0,0,0,0.04-0.01,0.11l-67.72,32.34L329.6,230.66
	z M327.46,247.88l68.33-32.64c0.18-2.74,0.32-4.96,0.44-6.62l-67.92,32.44L327.46,247.88z M394.64,531.05
	c-29.24,8.01-61.91,13.5-75.09,15.55l17.92-244.97l-29.98,251.04l-0.78,6.99l8.47-0.71c2.39-0.34,43.23-6.13,80.41-16.15
	C395.25,538.91,394.94,534.99,394.64,531.05z M174.72,454.26l-38.49-20.13l1.65,2.54l-16.82-163.95l10.42,164.48l0.1,1.66l1.55,0.89
	l37.68,21.61L174.72,454.26z M165.61,230.66l-67.19-32.08c0.12,2.13,0.23,4.28,0.31,6.45c0,0,0,0.04,0.01,0.11l67.72,32.34
	L165.61,230.66z M166.91,241.06l-67.92-32.44c0.11,1.66,0.26,3.89,0.44,6.62l68.33,32.64L166.91,241.06z M99.63,542.8
	c37.18,10.02,78.01,15.82,80.41,16.15l8.47,0.71l-0.78-6.99l-29.98-251.04l17.92,244.97c-13.18-2.05-45.85-7.54-75.09-15.55
	C100.28,534.99,99.96,538.91,99.63,542.8z M118.49,51.44l60.06-23.59c-1.09-2.21-1.99-4.36-2.73-6.38l-54.74,21.5L118.49,51.44z
	 M114.2,45.67l-22.55,8.86l-3.14,8.69l23.1-9.07L114.2,45.67z M373.88,42.97l-54.74-21.5c-0.74,2.02-1.65,4.17-2.73,6.38
	l60.06,23.59L373.88,42.97z M383.36,54.15l23.1,9.07l-3.14-8.69l-22.55-8.86L383.36,54.15z M442.14,198.57l-24.24-44.71l21.29,54.77
	c0,0,26.57-9.98,50.48-23.88c-0.52-2.85-1.06-5.65-1.64-8.41C466.86,189.07,442.14,198.57,442.14,198.57z M439.92,238.5l-35.55-90.7
	c-3.81,15.82-5.78,29.62-6.81,39.7l18.21,54.46C422.67,242.66,431.14,241.15,439.92,238.5z M6.98,176.34
	c-0.58,2.76-1.12,5.56-1.64,8.41c23.91,13.89,50.48,23.88,50.48,23.88l21.29-54.77l-24.24,44.71
	C52.87,198.57,28.15,189.07,6.98,176.34z M79.23,241.96l18.21-54.46c-1.02-10.08-3-23.88-6.81-39.7l-35.55,90.7
	C63.87,241.15,72.34,242.66,79.23,241.96z M325.18,461.35l37.68-21.61l1.55-0.89l0.1-1.66l10.42-164.48l-16.82,163.95l1.65-2.54
	l-38.49,20.13L325.18,461.35z"/>
<path class="BottomHem fill" d="M247.5,559.16c124.55-4.96,147.55-20.81,147.55-20.81l1.37,14.84c0,0-34.6,17.87-149.34,20.81
	c0,0-105.75-1.2-148.49-20.81l1.37-14.84C99.96,538.35,122.96,554.21,247.5,559.16"/>
<g id="BBodyLogos"></g>
</svg>
