<?xml version="1.0" encoding="utf-8"?>
<!-- Generator: Adobe Illustrator 19.1.0, SVG Export Plug-In . SVG Version: 6.00 Build 0)  -->
<svg version="1.1" id="Layer_1" xmlns="http://www.w3.org/2000/svg" xmlns:xlink="http://www.w3.org/1999/xlink" x="0px" y="0px"
	 viewBox="0 0 495 576" style="enable-background:new 0 0 495 576;" xml:space="preserve">
<style type="text/css">
	<![CDATA[
	@font-face{font-family:'codaheavy';src:url('/fonts/coda-heavy-webfont.woff') format('woff')}
	text{font-family:Impact,codaheavy,sans-serif}
	.Colour1.fill{fill:#000000;}
	.Colour2.fill{fill:#FFE400;}
	.NeckAndArmTrim.fill{fill:#FFE400;}
	.BottomHem.fill{fill:#FFE400;}
	.st0{fill:none;stroke:#000000;stroke-width:0.25;stroke-miterlimit:10;}
	.st1{fill:none;stroke:#000000;stroke-width:0.25;stroke-miterlimit:10;stroke-dasharray:2;}
	.st2{fill:#FFFFFF;stroke:#000000;stroke-width:0.25;stroke-miterlimit:10;}
	.st3{fill:#FFFFFF;}
	]]>
</style>
<path class="Colour1 fill" d="M439.11,64.76c0,0,46.18,55.04,54.37,148.75c0,0-64.06,39.05-86.4,25.66c0,0,1.37-13.64-10.68-34.34
	C396.4,204.83,396.28,130.58,439.11,64.76z"/>
<path class="Colour1 fill" d="M55.87,64.76c0,0-46.18,55.04-54.37,148.75c0,0,64.06,39.05,86.4,25.66c0,0-1.37-13.64,10.68-34.34
	C98.58,204.83,98.7,130.58,55.87,64.76z"/>
<path class="NeckAndArmTrim fill" d="M419.23,241.38c-4.7,0-8.59-0.85-11.56-2.53c0.07-1.29,0.13-5.73-1.6-12.56
	c0.35,0.01,0.69,0.01,1.04,0.01c34.14,0,77.58-25.85,83.83-29.68c0.77,5.38,1.41,10.91,1.91,16.58
	C488.77,215.65,445.16,241.38,419.23,241.38z"/>
<path class="NeckAndArmTrim fill" d="M2.09,213.2C2.59,207.53,3.24,202,4,196.62c6.25,3.83,49.69,29.68,83.83,29.68
	c0.35,0,0.7-0.01,1.04-0.01c-1.73,6.83-1.67,11.27-1.6,12.56c-2.97,1.68-6.85,2.53-11.56,2.53C49.8,241.38,6.18,215.65,2.09,213.2z"
	/>
<path class="Colour1 fill" d="M439.13,64.76C427.95,46.17,322.8,6.38,322.8,6.38l-0.31,0.11l0.26,0.14c0,0-3.86,57.68-75.02,57.8l-0.22,0
	c-71.37,0-75.24-57.8-75.24-57.8l0.24-0.13l-0.3-0.12c0,0-105.15,39.79-116.32,58.38c0,0,39.73,55.78,42.71,140.07
	c0,0,14.4,194.36,0,348.07c0,0,23.21,15.87,148.91,20.82c125.7-4.96,148.91-20.82,148.91-20.82c-14.4-153.7,0-348.07,0-348.07
	C399.4,120.54,439.13,64.76,439.13,64.76z"/>
<path class="st0" d="M3.57,195.66c0,0,48.93,31.08,86.1,30.04"/>
<path class="st1" d="M3.03,200.12c0,0,48.93,31.08,86.1,30.04"/>
<path class="st0" d="M405.32,225.7c37.16,1.04,86.1-30.04,86.1-30.04"/>
<path class="st1" d="M491.95,200.12c0,0-48.93,31.08-86.1,30.04"/>
<path class="st0" d="M247.51,6.38"/>
<g>
	<path class="st2" d="M247.51,11.49"/>
</g>
<g>
	<path class="st2" d="M247.51,11.49C287.45,11.67,314.24,2,314.24,2v9.59c0,0-37.4,8.24-66.73,8.24l-0.29,0
		c-29.28-0.05-66.43-8.24-66.43-8.24V2c0,0,26.62,9.61,66.35,9.49L247.51,11.49z"/>
	<path class="st2" d="M247.51,64.42c-71.37,0-75.24-57.8-75.24-57.8L180.78,2c0,0,9.26,48.8,66.73,48.8l0.32,0
		C305.01,50.61,314.24,2,314.24,2l8.51,4.63c0,0-3.86,57.68-75.02,57.8L247.51,64.42z"/>
</g>
<path class="NeckAndArmTrim fill" d="M247.51,11.49C287.45,11.67,314.24,2,314.24,2v9.59c0,0-37.4,8.24-66.73,8.24l-0.29,0
	c-29.28-0.05-66.43-8.24-66.43-8.24V2c0,0,26.62,9.61,66.35,9.49L247.51,11.49z"/>
<path class="NeckAndArmTrim fill" d="M247.51,64.42c-71.37,0-75.24-57.8-75.24-57.8L180.78,2c0,0,9.26,48.8,66.73,48.8l0.32,0
	C305.01,50.61,314.24,2,314.24,2l8.51,4.63c0,0-3.86,57.68-75.02,57.8L247.51,64.42z"/>
<path class="st3" d="M247.83,50.79l-0.32,0c-40.44,0-57.01-24.16-63.28-38.48c9.87,2,39.05,7.48,62.98,7.52l0.29,0
	c23.99,0,53.37-5.51,63.28-7.52C304.53,26.59,288.04,50.67,247.83,50.79z"/>
<path class="Colour2 fill" d="M268.17,62.58v510.18c-1.9,0.1-3.84,0.2-5.79,0.3V63.5C264.37,63.24,266.3,62.93,268.17,62.58z
	 M303.7,45.18c-1.76,1.69-3.69,3.32-5.79,4.88V570.8c1.96-0.16,3.9-0.31,5.79-0.47V45.18z M226.85,62.58v510.18
	c1.9,0.1,3.84,0.2,5.79,0.3V63.5C230.65,63.24,228.71,62.93,226.85,62.58z M339.22,12.81c-2.1-0.84-4.03-1.61-5.79-2.3v556.74
	c1.99-0.25,3.92-0.5,5.79-0.75V12.81z M90.53,41.6c-1.98,1-3.91,1.99-5.79,2.98v81.82c2.07,6.39,4.03,13.22,5.79,20.44V41.6z
	 M126.06,25.17c-1.92,0.83-3.85,1.67-5.79,2.53v532.47c1.79,0.43,3.72,0.86,5.79,1.3V25.17z M374.75,27.7
	c-1.94-0.86-3.88-1.7-5.79-2.53v536.3c2.07-0.44,4-0.88,5.79-1.3V27.7z M197.12,50.06c-2.1-1.56-4.03-3.2-5.79-4.88v525.15
	c1.89,0.16,3.83,0.32,5.79,0.47V50.06z M161.59,10.51c-1.76,0.7-3.7,1.46-5.79,2.3v553.68c1.87,0.25,3.8,0.5,5.79,0.75V10.51z
	 M410.28,44.58c-1.88-0.99-3.82-1.98-5.79-2.98v105.24c1.77-7.22,3.73-14.05,5.79-20.44V44.58z"/>
<g>
	<path class="st0" d="M439.13,64.76c0,0,46.18,55.04,54.37,148.75c0,0-64.06,39.05-86.4,25.66c0,0,1.37-13.64-10.68-34.34
		C396.42,204.83,396.3,130.58,439.13,64.76z"/>
	<path class="st0" d="M55.89,64.76c0,0-46.18,55.04-54.37,148.75c0,0,64.06,39.05,86.4,25.66c0,0-1.37-13.64,10.68-34.34
		C98.6,204.83,98.72,130.58,55.89,64.76z"/>
	<g>
		<path class="st0" d="M439.14,64.76C427.97,46.17,322.82,6.38,322.82,6.38l-0.31,0.11l0.26,0.14c0,0-3.86,57.68-75.02,57.8l-0.22,0
			c-71.37,0-75.24-57.8-75.24-57.8l0.24-0.13l-0.3-0.12c0,0-105.15,39.79-116.32,58.38c0,0,39.73,55.78,42.71,140.07
			c0,0,14.4,194.36,0,348.07c0,0,23.21,15.87,148.91,20.82c125.7-4.96,148.91-20.82,148.91-20.82c-14.4-153.7,0-348.07,0-348.07
			C399.42,120.54,439.14,64.76,439.14,64.76z"/>
	</g>
</g>
<path class="st0" d="M314.24,2c0,0-26.79,9.67-66.73,9.49l-0.38,0C207.4,11.61,180.78,2,180.78,2l-8.51,4.63
	c0,0,3.87,57.8,75.24,57.8l0.22,0c71.16-0.12,75.02-57.8,75.02-57.8L314.24,2z M247.83,50.79l-0.32,0
	c-40.44,0-57.01-24.16-63.28-38.48c9.86,2,39.04,7.48,62.98,7.52l0.29,0c23.99,0,53.38-5.52,63.28-7.52
	C304.53,26.59,288.04,50.67,247.83,50.79z"/>
<g id="FBodyLogos"></g>
<path class="BottomHem fill" d="M247.45,559.16C372,554.2,395,538.33,395,538.33l1.37,14.84c0,0-34.6,17.88-149.34,20.82
	c0,0-105.75-1.2-148.48-20.82l1.37-14.84C99.91,538.33,122.91,554.2,247.45,559.16"/>
<g>
	<path class="st0" d="M395.03,538.05c0,0-23,15.87-147.54,20.82"/>
	<path class="st0" d="M247.49,558.87c-124.54-4.96-147.54-20.82-147.54-20.82"/>
</g>
<g>
	<path class="st1" d="M395.03,542.51c0,0-23,15.87-147.54,20.82"/>
	<path class="st1" d="M247.49,563.34c-124.54-4.96-147.54-20.82-147.54-20.82"/>
</g>
</svg>
