<?xml version="1.0" encoding="utf-8"?>
<!-- Generator: Adobe Illustrator 19.1.0, SVG Export Plug-In . SVG Version: 6.00 Build 0)  -->
<svg version="1.1" id="Layer_1" xmlns="http://www.w3.org/2000/svg" xmlns:xlink="http://www.w3.org/1999/xlink" x="0px" y="0px"
	 viewBox="0 0 495 576" style="enable-background:new 0 0 495 576;" xml:space="preserve">
<style type="text/css">
	<![CDATA[
	@font-face{font-family:'codaheavy';src:url('/fonts/coda-heavy-webfont.woff') format('woff')}
	text{font-family:Impact,codaheavy,sans-serif}
	.Number.fill{fill:#000}
	.NumberOutline.stroke{fill:none;stroke:#777;stroke-width:2.5}
	.Colour1.fill{fill:#C1783D;}
	.Colour2.fill{fill:#343F17;}
	.NeckAndArmTrim.fill{fill:#343F17;}
	.st0{fill:none;stroke:#000000;stroke-width:0.25;stroke-miterlimit:10;}
	.st1{fill:none;stroke:#000000;stroke-width:0.25;stroke-miterlimit:10;stroke-dasharray:2;}
	]]>
</style>
<path class="Colour1 fill" d="M439.12,65.29c0,0,46.18,55.01,54.38,148.67c0,0-64.06,39.03-86.41,25.65c0,0,1.37-13.63-10.68-34.32
	C396.42,205.29,396.29,131.08,439.12,65.29z"/>
<path class="Colour1 fill" d="M55.88,65.29c0,0-46.18,55.01-54.38,148.67c0,0,64.06,39.03,86.41,25.65c0,0-1.37-13.63,10.68-34.32
	C98.58,205.29,98.71,131.08,55.88,65.29z"/>
<path class="NeckAndArmTrim fill" d="M419.26,241.83c-4.7,0-8.59-0.85-11.56-2.53c0.07-1.29,0.13-5.73-1.6-12.55
	c0.35,0.01,0.69,0.01,1.04,0.01c34.14,0,77.58-25.84,83.83-29.67c0.77,5.38,1.41,10.9,1.91,16.57
	C488.8,216.11,445.19,241.83,419.26,241.83z"/>
<path class="NeckAndArmTrim fill" d="M2.1,213.66c0.5-5.66,1.15-11.19,1.91-16.57c6.25,3.83,49.69,29.67,83.83,29.67
	c0.35,0,0.7-0.01,1.04-0.01c-1.73,6.82-1.67,11.26-1.6,12.55c-2.97,1.68-6.85,2.53-11.56,2.53C49.81,241.83,6.2,216.11,2.1,213.66z"
	/>
<path class="Colour1 fill" d="M247.5,574c125.7-4.96,148.92-20.81,148.92-20.81c-14.4-153.63,0-347.89,0-347.89
	c2.98-84.25,42.71-140,42.71-140C427.95,46.71,322.8,6.94,322.8,6.94l-0.12,0.01c0,0-30.18,12.46-75.18,12.25l-0.43,0
	c-44.76,0.14-74.75-12.25-74.75-12.25l-0.12-0.01c0,0-105.15,39.77-116.33,58.35c0,0,39.73,55.75,42.71,140
	c0,0,14.4,194.27,0,347.89C98.58,553.19,121.8,569.04,247.5,574"/>
<path class="st0" d="M3.57,196.13c0,0,48.93,31.06,86.1,30.03"/>
<path class="st1" d="M3.03,200.59c0,0,48.93,31.06,86.1,30.03"/>
<path class="st0" d="M491.43,196.13c0,0-48.93,31.06-86.1,30.03"/>
<path class="st1" d="M491.97,200.59c0,0-48.93,31.06-86.1,30.03"/>
<path class="Colour2 fill" d="M416.42,48.44c2.64,1.47,5.13,2.92,7.44,4.34H71.14c2.31-1.42,4.8-2.87,7.44-4.34H416.42z M111.47,32.18
	c-3.15,1.43-6.28,2.88-9.37,4.34H392.9c-3.09-1.46-6.23-2.91-9.37-4.34H111.47z M241.86,15.92l1.41,0.56l1.6-0.56H241.86z
	 M345.53,15.92H194.82h-14.39h-30.96c-3.29,1.34-6.83,2.79-10.53,4.34h29.15h37.66h150.31C352.36,18.71,348.82,17.25,345.53,15.92z
	 M65.27,80.96c0.73,1.36,1.49,2.81,2.28,4.34h359.9c0.78-1.53,1.54-2.97,2.28-4.34H65.27z M85.29,128.66
	c0.67,2.12,1.33,4.29,1.98,6.5h320.47c0.64-2.21,1.31-4.38,1.98-6.5H85.29z M89.92,144.92c0.54,2.13,1.07,4.3,1.57,6.5h312.02
	c0.51-2.2,1.03-4.37,1.57-6.5H89.92z M73.29,97.22c0.63,1.4,1.27,2.85,1.91,4.34h344.6c0.64-1.49,1.28-2.93,1.91-4.34H73.29z
	 M80.02,113.49c0.54,1.42,1.07,2.87,1.6,4.34h331.76c0.53-1.47,1.06-2.92,1.6-4.34H80.02z M93.55,161.19
	c0.41,2.14,0.81,4.31,1.18,6.5h305.53c0.37-2.2,0.77-4.37,1.18-6.5H93.55z M104.68,355.24c0.04,2.87,0.08,5.76,0.12,8.67h285.4
	c0.03-2.91,0.07-5.8,0.12-8.67H104.68z M104.26,452.81c-0.08,2.89-0.16,5.78-0.25,8.67h286.98c-0.09-2.89-0.17-5.78-0.25-8.67
	H104.26z M390.02,387.76H104.98c0.01,2.88,0.01,5.77,0.01,8.67h285.03C390.01,393.53,390.02,390.64,390.02,387.76z M103.76,469.07
	c-0.1,2.89-0.21,5.78-0.32,8.67h288.11c-0.11-2.89-0.22-5.78-0.32-8.67H103.76z M104.62,436.55c-0.05,2.89-0.11,5.78-0.17,8.67
	h286.12c-0.06-2.9-0.12-5.79-0.17-8.67H104.62z M104.97,404.02c-0.01,2.88-0.03,5.77-0.05,8.67h285.16
	c-0.02-2.9-0.04-5.79-0.05-8.67H104.97z M104.85,420.29c-0.03,2.88-0.07,5.77-0.11,8.67h285.52c-0.04-2.9-0.08-5.79-0.11-8.67
	H104.85z M103.18,484.25c-0.16,3.62-0.32,7.23-0.5,10.84h289.66c-0.18-3.61-0.35-7.22-0.5-10.84H103.18z M347.78,565.55H147.22
	c22.42,3.4,54.57,6.64,100.28,8.45C293.21,572.2,325.36,568.95,347.78,565.55z M98.58,553.19c0,0,4.51,3.08,20.31,6.95H376.1
	c15.8-3.87,20.31-6.95,20.31-6.95c-0.12-1.29-0.24-2.59-0.36-3.89H98.94C98.83,550.59,98.71,551.89,98.58,553.19z M55.88,65.29
	c0,0,0.91,1.29,2.47,3.74h378.31c1.55-2.46,2.47-3.74,2.47-3.74c-0.12-0.19-0.26-0.39-0.4-0.59H56.27
	C56.14,64.9,55.99,65.1,55.88,65.29z M101.44,516.77c-0.23,3.63-0.48,7.24-0.74,10.84h293.6c-0.26-3.6-0.51-7.21-0.74-10.84H101.44z
	 M100.3,533.03c-0.28,3.63-0.57,7.25-0.88,10.84h296.16c-0.31-3.6-0.6-7.21-0.88-10.84H100.3z M102.39,500.51
	c-0.19,3.62-0.4,7.24-0.62,10.84h291.45c-0.22-3.6-0.42-7.22-0.62-10.84H102.39z M104.39,338.98c0.06,2.86,0.11,5.76,0.17,8.67
	h285.88c0.05-2.92,0.11-5.81,0.17-8.67H104.39z M100.85,242.49c0.11,2.09,0.22,4.26,0.34,6.5h292.63c0.11-2.24,0.23-4.41,0.34-6.5
	H100.85z M99.94,226.23c0.12,2.04,0.25,4.21,0.38,6.5h294.37c0.13-2.3,0.26-4.47,0.38-6.5H99.94z M101.66,258.75
	c0.1,2.12,0.2,4.29,0.3,6.5h291.07c0.1-2.22,0.2-4.39,0.3-6.5H101.66z M97.94,193.71c0.16,2.15,0.3,4.32,0.42,6.5h298.29
	c0.12-2.19,0.25-4.36,0.42-6.5H97.94z M102.39,275.02c0.09,2.13,0.18,4.3,0.27,6.5h289.69c0.09-2.2,0.18-4.37,0.27-6.5H102.39z
	 M98.91,209.97c0.12,1.72,0.26,3.9,0.43,6.5h296.32c0.17-2.6,0.31-4.78,0.43-6.5H98.91z M104.88,371.5
	c0.03,2.87,0.05,5.76,0.06,8.67h285.11c0.02-2.91,0.04-5.8,0.06-8.67H104.88z M96.22,177.45c0.29,2.14,0.55,4.31,0.8,6.5h300.97
	c0.24-2.19,0.51-4.36,0.8-6.5H96.22z M104.01,322.72c0.07,2.86,0.15,5.75,0.21,8.67h286.54c0.07-2.92,0.14-5.81,0.21-8.67H104.01z
	 M103.03,291.28c0.08,2.14,0.16,4.31,0.23,6.5h288.49c0.08-2.2,0.15-4.37,0.23-6.5H103.03z M103.58,307.54
	c0.07,2.15,0.13,4.31,0.2,6.5h287.45c0.06-2.19,0.13-4.36,0.2-6.5H103.58z M73.29,97.22c9.17,20.32,19.36,49.49,23.53,84.99h301.36
	c4.17-35.5,14.36-64.67,23.53-84.99H73.29z"/>
<g id="BBodyLogos"></g>
<path class="NeckAndArmTrim fill" d="M310.75,2l-0.1,0.01c0,0-25.35,9.15-63.15,8.97l-0.36,0c-37.6,0.12-62.79-8.97-62.79-8.97L184.25,2
	l-11.93,4.95c0,0,29.99,12.39,74.75,12.25l0.43,0c45,0.21,75.18-12.25,75.18-12.25L310.75,2z"/>
<g>
	<path class="st0" d="M395.05,538.35c0,0-23,15.86-147.55,20.81"/>
	<path class="st0" d="M247.5,559.16c-124.55-4.96-147.55-20.81-147.55-20.81"/>
</g>
<g>
	<path class="st1" d="M395.05,542.81c0,0-23,15.86-147.55,20.81"/>
	<path class="st1" d="M247.5,563.62c-124.55-4.96-147.55-20.81-147.55-20.81"/>
</g>
<g>
	<path class="st0" d="M439.12,65.29c0,0,46.18,55.01,54.38,148.67c0,0-64.06,39.03-86.41,25.65c0,0,1.37-13.63-10.68-34.32
		C396.42,205.29,396.29,131.08,439.12,65.29z"/>
	<path class="st0" d="M55.88,65.29c0,0-46.18,55.01-54.38,148.67c0,0,64.06,39.03,86.41,25.65c0,0-1.37-13.63,10.68-34.32
		C98.58,205.29,98.71,131.08,55.88,65.29z"/>
	<path class="st0" d="M247.5,574c125.7-4.96,148.92-20.81,148.92-20.81c-14.4-153.63,0-347.89,0-347.89
		c2.98-84.25,42.71-140,42.71-140C427.95,46.71,322.8,6.94,322.8,6.94l-0.12,0.01c0,0-30.18,12.46-75.18,12.25l-0.43,0
		c-44.76,0.14-74.75-12.25-74.75-12.25l-0.12-0.01c0,0-105.15,39.77-116.33,58.35c0,0,39.73,55.75,42.71,140
		c0,0,14.4,194.27,0,347.89C98.58,553.19,121.8,569.04,247.5,574"/>
	<path class="st0" d="M310.75,2l-0.1,0.01c0,0-25.35,9.15-63.15,8.97l-0.36,0c-37.6,0.12-62.79-8.97-62.79-8.97L184.25,2
		l-11.93,4.95c0,0,29.99,12.39,74.75,12.25l0.43,0c45,0.21,75.18-12.25,75.18-12.25L310.75,2z"/>
</g>
</svg>
