<?xml version="1.0" encoding="utf-8"?>
<!-- Generator: Adobe Illustrator 19.1.0, SVG Export Plug-In . SVG Version: 6.00 Build 0)  -->
<svg version="1.1" id="Layer_1" xmlns="http://www.w3.org/2000/svg" xmlns:xlink="http://www.w3.org/1999/xlink" x="0px" y="0px"
	 viewBox="0 0 495 576" style="enable-background:new 0 0 495 576;" xml:space="preserve">
<style type="text/css">
	<![CDATA[
	@font-face{font-family:'codaheavy';src:url('/fonts/coda-heavy-webfont.woff') format('woff')}
	text{font-family:Impact,codaheavy,sans-serif}
	.Colour1.fill{fill:#C1783D;}
	.Colour2.fill{fill:#343F17;}
	.NeckAndArmTrim.fill{fill:#343F17;}
	.st0{fill:none;stroke:#000000;stroke-width:0.25;stroke-miterlimit:10;}
	.st1{fill:none;stroke:#000000;stroke-width:0.25;stroke-miterlimit:10;stroke-dasharray:2;}
	.st2{fill:#FFFFFF;stroke:#000000;stroke-width:0.25;stroke-miterlimit:10;}
	.st3{fill:#FFFFFF;}
	]]>
</style>
<path class="Colour1 fill" d="M439.12,64.79c0,0,46.18,55.06,54.38,148.82c0,0-64.06,39.07-86.41,25.67c0,0,1.37-13.64-10.68-34.35
	C396.42,204.93,396.29,130.64,439.12,64.79z"/>
<path class="Colour1 fill" d="M55.88,64.79c0,0-46.18,55.06-54.38,148.82c0,0,64.06,39.07,86.41,25.67c0,0-1.37-13.64,10.68-34.35
	C98.58,204.93,98.71,130.64,55.88,64.79z"/>
<path class="NeckAndArmTrim fill" d="M419.25,241.5c-4.7,0-8.59-0.85-11.56-2.54c0.07-1.29,0.13-5.74-1.6-12.57
	c0.35,0.01,0.69,0.01,1.04,0.01c34.14,0,77.58-25.86,83.83-29.7c0.77,5.39,1.41,10.91,1.91,16.58
	C488.79,215.75,445.18,241.5,419.25,241.5z"/>
<path class="NeckAndArmTrim fill" d="M2.09,213.3c0.5-5.67,1.15-11.2,1.91-16.58c6.25,3.83,49.69,29.7,83.83,29.7
	c0.35,0,0.7-0.01,1.04-0.01c-1.73,6.83-1.67,11.27-1.6,12.57c-2.97,1.68-6.85,2.54-11.56,2.54C49.8,241.5,6.18,215.75,2.09,213.3z"
	/>
<g>
	<path class="Colour1 fill" d="M439.14,64.79C427.97,46.19,322.81,6.38,322.81,6.38l-0.31,0.11l0.26,0.14c0,0-3.86,57.71-75.02,57.83
		l-0.22,0c-71.37,0-75.24-57.83-75.24-57.83l0.24-0.13l-0.3-0.12c0,0-105.15,39.81-116.33,58.41c0,0,39.73,55.81,42.71,140.14
		c0,0,14.4,194.46,0,348.24c0,0,23.21,15.87,148.92,20.83c125.7-4.96,148.92-20.83,148.92-20.83c-14.4-153.78,0-348.24,0-348.24
		C399.41,120.6,439.14,64.79,439.14,64.79z"/>
</g>
<path class="st0" d="M3.57,195.75c0,0,48.93,31.09,86.1,30.05"/>
<path class="st1" d="M3.03,200.22c0,0,48.93,31.09,86.1,30.05"/>
<path class="st0" d="M405.33,225.81c37.17,1.04,86.1-30.05,86.1-30.05"/>
<path class="st1" d="M491.97,200.22c0,0-48.93,31.09-86.1,30.05"/>
<path class="st0" d="M247.52,6.38"/>
<g>
	<path class="st2" d="M247.52,11.49"/>
</g>
<g>
	<path class="st2" d="M247.52,11.49C287.46,11.68,314.25,2,314.25,2v9.6c0,0-37.4,8.25-66.73,8.25l-0.29,0
		c-29.28-0.05-66.44-8.25-66.44-8.25V2c0,0,26.62,9.62,66.35,9.49L247.52,11.49z"/>
	<path class="st2" d="M247.52,64.45c-71.37,0-75.24-57.83-75.24-57.83L180.79,2c0,0,9.26,48.82,66.73,48.82l0.32,0
		C305.02,50.64,314.25,2,314.25,2l8.51,4.63c0,0-3.86,57.71-75.02,57.83L247.52,64.45z"/>
</g>
<path class="NeckAndArmTrim fill" d="M247.52,11.49C287.46,11.68,314.25,2,314.25,2v9.6c0,0-37.4,8.25-66.73,8.25l-0.29,0
	c-29.28-0.05-66.44-8.25-66.44-8.25V2c0,0,26.62,9.62,66.35,9.49L247.52,11.49z"/>
<path class="Colour2 fill" d="M416.44,47.92c2.64,1.47,5.13,2.92,7.44,4.34H71.16c2.31-1.42,4.8-2.87,7.44-4.34H416.44z M250.95,31.64
	l-8.03,2.82l-7.1-2.82H111.49c-3.15,1.43-6.28,2.88-9.37,4.34h290.81c-3.09-1.46-6.23-2.91-9.37-4.34H250.95z M205.77,19.71
	l-10.93-4.34h-45.35c-3.29,1.34-6.83,2.79-10.53,4.34H205.77z M241.88,15.37l1.41,0.56l1.6-0.56H241.88z M297.25,15.37l-12.35,4.34
	h71.17c-3.7-1.55-7.24-3-10.53-4.34H297.25z M65.29,80.48c0.73,1.36,1.49,2.81,2.28,4.34h359.9c0.78-1.53,1.54-2.98,2.28-4.34H65.29
	z M85.3,128.22c0.67,2.13,1.33,4.29,1.98,6.51h320.47c0.64-2.22,1.31-4.39,1.98-6.51H85.3z M89.94,144.5
	c0.54,2.13,1.07,4.31,1.57,6.51h312.02c0.51-2.21,1.03-4.38,1.57-6.51H89.94z M73.31,96.75c0.63,1.4,1.27,2.85,1.91,4.34h344.6
	c0.64-1.49,1.28-2.94,1.91-4.34H73.31z M80.04,113.03c0.54,1.42,1.07,2.87,1.6,4.34H413.4c0.53-1.47,1.06-2.92,1.6-4.34H80.04z
	 M93.57,160.78c0.41,2.14,0.81,4.31,1.18,6.51h305.53c0.37-2.2,0.77-4.37,1.18-6.51H93.57z M104.7,355.02
	c0.04,2.87,0.08,5.77,0.12,8.68h285.4c0.03-2.91,0.07-5.81,0.12-8.68H104.7z M104.28,452.69c-0.08,2.89-0.16,5.79-0.25,8.68h286.98
	c-0.09-2.9-0.17-5.79-0.25-8.68H104.28z M390.04,387.58H104.99c0.01,2.88,0.01,5.77,0.01,8.68h285.03
	C390.03,393.35,390.03,390.46,390.04,387.58z M103.78,468.97c-0.1,2.89-0.21,5.79-0.32,8.68h288.11c-0.11-2.89-0.22-5.79-0.32-8.68
	H103.78z M104.63,436.41c-0.05,2.89-0.11,5.78-0.17,8.68h286.12c-0.06-2.9-0.12-5.79-0.17-8.68H104.63z M104.99,403.86
	c-0.01,2.88-0.03,5.78-0.05,8.68H390.1c-0.02-2.9-0.04-5.8-0.05-8.68H104.99z M104.87,420.13c-0.03,2.89-0.07,5.78-0.11,8.68h285.52
	c-0.04-2.9-0.08-5.8-0.11-8.68H104.87z M103.19,484.16c-0.16,3.62-0.32,7.24-0.5,10.85h289.66c-0.18-3.61-0.35-7.23-0.5-10.85
	H103.19z M347.8,565.55H147.24c22.42,3.4,54.57,6.65,100.28,8.45C293.23,572.2,325.38,568.95,347.8,565.55z M98.6,553.17
	c0,0,4.51,3.08,20.31,6.95h257.21c15.8-3.87,20.31-6.95,20.31-6.95c-0.12-1.3-0.24-2.6-0.36-3.9H98.96
	C98.84,550.57,98.72,551.87,98.6,553.17z M55.9,64.79c0,0,0.91,1.29,2.47,3.75h378.31c1.55-2.46,2.47-3.75,2.47-3.75
	c-0.12-0.19-0.26-0.39-0.4-0.59H56.29C56.15,64.4,56.01,64.6,55.9,64.79z M101.46,516.71c-0.23,3.63-0.48,7.25-0.74,10.85h293.6
	c-0.26-3.6-0.51-7.22-0.74-10.85H101.46z M100.31,532.99c-0.28,3.63-0.57,7.25-0.88,10.85H395.6c-0.31-3.6-0.6-7.22-0.88-10.85
	H100.31z M102.41,500.44c-0.19,3.63-0.4,7.24-0.62,10.85h291.45c-0.22-3.61-0.42-7.23-0.62-10.85H102.41z M104.41,338.75
	c0.06,2.87,0.11,5.76,0.17,8.68h285.88c0.05-2.92,0.11-5.81,0.17-8.68H104.41z M100.87,242.17c0.11,2.1,0.22,4.27,0.34,6.51h292.63
	c0.11-2.24,0.23-4.42,0.34-6.51H100.87z M99.96,225.89c0.12,2.04,0.25,4.21,0.38,6.51H394.7c0.13-2.3,0.26-4.47,0.38-6.51H99.96z
	 M101.68,258.44c0.1,2.12,0.2,4.29,0.3,6.51h291.07c0.1-2.22,0.2-4.39,0.3-6.51H101.68z M97.95,193.33c0.16,2.15,0.3,4.32,0.42,6.51
	h298.29c0.12-2.19,0.25-4.36,0.42-6.51H97.95z M102.41,274.72c0.09,2.13,0.18,4.31,0.27,6.51h289.69c0.09-2.21,0.18-4.38,0.27-6.51
	H102.41z M98.93,209.61c0.12,1.72,0.26,3.9,0.43,6.51h296.32c0.17-2.61,0.31-4.79,0.43-6.51H98.93z M104.9,371.3
	c0.03,2.88,0.05,5.77,0.06,8.68h285.11c0.02-2.91,0.04-5.81,0.06-8.68H104.9z M96.23,177.06c0.29,2.15,0.55,4.32,0.8,6.51H398
	c0.24-2.19,0.51-4.36,0.8-6.51H96.23z M104.03,322.47c0.07,2.86,0.15,5.75,0.21,8.68h286.54c0.07-2.93,0.14-5.82,0.21-8.68H104.03z
	 M103.04,291c0.08,2.14,0.16,4.31,0.23,6.51h288.49c0.08-2.2,0.15-4.37,0.23-6.51H103.04z M103.6,307.28
	c0.07,2.15,0.13,4.32,0.2,6.51h287.45c0.06-2.19,0.13-4.36,0.2-6.51H103.6z M104.62,350.01h285.79c0.54-32.23,1.58-61.45,2.64-85.08
	H101.98C103.05,288.56,104.09,317.78,104.62,350.01z"/>
<path class="NeckAndArmTrim fill" d="M247.52,64.45c-71.37,0-75.24-57.83-75.24-57.83L180.79,2c0,0,9.26,48.82,66.73,48.82l0.32,0
	C305.02,50.64,314.25,2,314.25,2l8.51,4.63c0,0-3.86,57.71-75.02,57.83L247.52,64.45z"/>
<path class="st3" d="M247.84,50.82l-0.32,0c-40.44,0-57.01-24.18-63.28-38.5c9.87,2,39.05,7.48,62.98,7.53l0.29,0
	c23.99,0,53.37-5.52,63.28-7.53C304.55,26.61,288.05,50.69,247.84,50.82z"/>
<g>
	<path class="st0" d="M395.05,538.31c0,0-23,15.87-147.55,20.83"/>
	<path class="st0" d="M247.5,559.15c-124.55-4.96-147.55-20.83-147.55-20.83"/>
</g>
<g>
	<path class="st1" d="M395.05,542.78c0,0-23,15.87-147.55,20.83"/>
	<path class="st1" d="M247.5,563.61c-124.55-4.96-147.55-20.83-147.55-20.83"/>
</g>
<g>
	<path class="st0" d="M439.12,64.79c0,0,46.18,55.06,54.38,148.82c0,0-64.06,39.07-86.41,25.67c0,0,1.37-13.64-10.68-34.35
		C396.42,204.93,396.29,130.64,439.12,64.79z"/>
	<path class="st0" d="M55.88,64.79c0,0-46.18,55.06-54.38,148.82c0,0,64.06,39.07,86.41,25.67c0,0-1.37-13.64,10.68-34.35
		C98.58,204.93,98.71,130.64,55.88,64.79z"/>
	<g>
		<path class="st0" d="M439.14,64.79C427.97,46.19,322.81,6.38,322.81,6.38l-0.31,0.11l0.26,0.14c0,0-3.86,57.71-75.02,57.83
			l-0.22,0c-71.37,0-75.24-57.83-75.24-57.83l0.24-0.13l-0.3-0.12c0,0-105.15,39.81-116.33,58.41c0,0,39.73,55.81,42.71,140.14
			c0,0,14.4,194.46,0,348.24c0,0,23.21,15.87,148.92,20.83c125.7-4.96,148.92-20.83,148.92-20.83c-14.4-153.78,0-348.24,0-348.24
			C399.41,120.6,439.14,64.79,439.14,64.79z"/>
	</g>
</g>
<g id="FBodyLogos"></g>
<path class="st0" d="M314.25,2c0,0-26.79,9.68-66.73,9.49l-0.38,0C207.41,11.62,180.79,2,180.79,2l-8.51,4.63
	c0,0,3.87,57.83,75.24,57.83l0.22,0c71.17-0.12,75.02-57.83,75.02-57.83L314.25,2z M247.84,50.82l-0.32,0
	c-40.44,0-57.01-24.18-63.28-38.5c9.86,2,39.05,7.48,62.98,7.53l0.29,0c23.99,0,53.38-5.52,63.28-7.53
	C304.55,26.61,288.05,50.69,247.84,50.82z"/>
</svg>
