<?xml version="1.0" encoding="utf-8"?>
<!-- Generator: Adobe Illustrator 19.1.0, SVG Export Plug-In . SVG Version: 6.00 Build 0)  -->
<svg version="1.1" id="Layer_1" xmlns="http://www.w3.org/2000/svg" xmlns:xlink="http://www.w3.org/1999/xlink" x="0px" y="0px"
	 viewBox="0 0 495 576" style="enable-background:new 0 0 495 576;" xml:space="preserve">
<style type="text/css">
	<![CDATA[
	@font-face{font-family:'codaheavy';src:url('/fonts/coda-heavy-webfont.woff') format('woff')}
	text{font-family:Impact,codaheavy,sans-serif}
	.Number.fill{fill:#000}
	.NumberOutline.stroke{fill:none;stroke:#777;stroke-width:2.5}
	.Colour1.fill{fill:#161616;}
	.Colour2.fill{fill:#000000;}
	.Colour3.fill{fill:#CE4388;}
	.NeckAndArmTrim.fill{fill:#CE4388;}
	.BottomHem.fill{fill:#0D143A;}
	.st0{fill:none;stroke:#000000;stroke-width:0.25;stroke-miterlimit:10;stroke-dasharray:2;}
	.st1{fill:#EFD50D;}
	.st2{fill:none;stroke:#000000;stroke-width:0.25;stroke-miterlimit:10;}
	.st3{fill:#19181C;}
	]]>
</style>
<path class="Colour1 fill" d="M247.84,573.99c125.4-4.97,148.57-20.8,148.57-20.8c-14.4-153.63,0-347.89,0-347.89
	c2.98-84.25,42.71-140,42.71-140C427.95,46.71,322.8,6.94,322.8,6.94l-0.12,0.01c0,0-30.18,12.46-75.18,12.25l-0.43,0
	c-44.76,0.14-74.75-12.25-74.75-12.25l-0.12-0.01c0,0-105.15,39.77-116.33,58.35c0,0,39.73,55.75,42.71,140
	c0,0,14.4,194.27,0,347.89c0,0,23.18,15.83,148.59,20.8L247.84,573.99z"/>
<g>
	<path class="st0" d="M395.05,542.81c0,0-23,15.86-147.55,20.81"/>
	<path class="st0" d="M247.5,563.62c-124.55-4.96-147.55-20.81-147.55-20.81"/>
</g>
<g>
	<path class="st1" d="M247.5,559.16c124.55-4.96,147.55-20.81,147.55-20.81l1.37,14.84c0,0-34.6,17.87-149.34,20.81
		c0,0-105.75-1.2-148.49-20.81l1.37-14.84C99.95,538.35,122.95,554.21,247.5,559.16"/>
</g>
<g>
	<path class="st2" d="M395.05,538.35c0,0-23,15.86-147.55,20.81"/>
	<path class="st2" d="M247.5,559.16c-124.55-4.96-147.55-20.81-147.55-20.81"/>
</g>
<g>
	<path class="st0" d="M247.5,563.62c124.55-4.96,147.55-20.81,147.55-20.81"/>
	<path class="st0" d="M247.5,563.62c-124.55-4.96-147.55-20.81-147.55-20.81"/>
</g>
<g>
</g>
<g>
</g>
<path class="Colour3 fill" d="M377.58,279.96l15.39-13.18c0.51-11.4,1.03-21.54,1.5-30.13l-16.88,15.75V279.96z"/>
<path class="Colour3 fill" d="M114.25,317.98l-10.67-10.33c0.28,8.83,0.53,18.05,0.73,27.59l9.93,9V317.98z"/>
<path class="Colour3 fill" d="M115.09,252.63l-14.39-13.02c0.47,8.62,0.97,18.64,1.45,29.82l12.94,10.75V252.63z"/>
<path class="Colour3 fill" d="M363.36,481.83c-0.39,5.4-0.76,10.78-1.14,16.15l28.88-13.59l0.66-1.57c-0.5-11.87-0.88-23.76-1.16-35.6
	l-23.69-11.41C365.66,451.04,364.48,466.37,363.36,481.83z"/>
<path class="Colour3 fill" d="M377.58,344.65l13.16-11.94c0.22-9.63,0.48-18.93,0.76-27.82l-13.92,13.48V344.65z"/>
<path class="Colour3 fill" d="M382.95,415.17l7.09-9.34c-0.01-1.7-0.01-3.39-0.02-5.08l-7.08-10.77l-10.15,11.82L382.95,415.17z"/>
<path class="Colour3 fill" d="M390.89,538.6l-13.9,5.68l-5.67,16.97c10.94-2.43,17.46-4.65,21.1-6.14L390.89,538.6z"/>
<path class="Colour3 fill" d="M99.94,537.59c-0.42,5.24-0.87,10.44-1.35,15.59c0,0,4.72,3.22,21.38,7.21l-5.69-17.11L99.94,537.59z"/>
<path class="Colour3 fill" d="M128.16,477.96c-0.93-14.55-1.9-29.06-2.88-43.51L104.45,445c-0.29,12.98-0.7,26.04-1.26,39.06l26.11,11.99
	C128.92,490.03,128.55,483.99,128.16,477.96z"/>
<path class="Colour3 fill" d="M120.12,400.62l-10.37-13l-4.77,6.44c0,4.78-0.01,9.59-0.04,14.43l3.86,5.12L120.12,400.62z"/>
<path class="Colour2 fill" d="M245.14,463.22l119.92-145.56v43.58l-119,145.06l-117.8-144.32v-44.32L245.14,463.22z M383.12,186.46
	c-45.59,65.65-93.29,119.1-137.06,161.74c-41.16-43.67-84.41-94.58-127.07-153.35c-9.06-12.49-17.76-24.87-26.12-37.11
	c1.91,9.26,3.46,19.09,4.49,29.42c9.49,14.35,18.97,27.55,28.21,39.6c0.26,12.53,0.51,25.07,0.78,37.59l119.71,144.91l121.33-144.93
	v-37.91c9.99-12.6,20.29-26.61,30.56-42.05c1-9.11,2.4-17.81,4.08-26.06C395.98,167.61,389.69,177,383.12,186.46z M355.09,481.74
	l3.51-52.2L246.05,572.03L133.79,429.54l3.56,53.89l70.36,88.44c11.88,0.82,24.99,1.54,39.47,2.12l0.67,0
	c13.1-0.52,25.07-1.16,36.02-1.88l71.22-90.34V481.74z M351.25,538.6l-24,29.67c8.32-0.96,15.69-1.96,22.2-2.97L351.25,538.6z
	 M140.98,538.6l1.73,26.25c6.35,1.03,13.57,2.05,21.75,3.03L140.98,538.6z M391.51,304.89c0.12-3.59,0.23-7.12,0.36-10.57
	l-20.11,19.69v45.27l18.77-16.03c0.07-3.55,0.14-7.07,0.22-10.54l-13.16,11.94v-26.28L391.51,304.89z M371.75,264.34v30.03
	l20.78-17.56c0.14-3.44,0.29-6.79,0.43-10.04l-15.39,13.18v-27.57l16.88-15.75c0.23-4.14,0.45-7.92,0.65-11.31l-23.36,20.78V264.34z
	 M120.76,246.4l-20.73-18.53c0.21,3.55,0.43,7.46,0.66,11.73l14.39,13.02v27.55l-12.94-10.75c0.14,3.14,0.27,6.37,0.41,9.68
	l18.2,15.81V246.4z M120.76,313.75l-17.54-17.04c0.12,3.57,0.25,7.23,0.36,10.95l10.67,10.33v26.26l-9.93-9
	c0.08,3.5,0.15,7.04,0.21,10.61l17.2,16.12L120.76,313.75z M362.22,497.98c0.37-5.37,0.75-10.75,1.14-16.15
	c1.12-15.47,2.3-30.79,3.56-46.01c0.95-11.5,1.93-22.93,2.97-34.28c0.61-6.78,1.23-13.54,1.87-20.28l18.39-11.95
	c0.04-3.64,0.08-7.26,0.13-10.84l-27.84,14.26l-3.82,56.81l-3.51,52.2v0.02l-3.84,56.84l-1.8,26.7c3.12-0.48,6.04-0.97,8.77-1.46
	C359.38,542.11,360.71,520.16,362.22,497.98z M140.98,538.6l-3.64-55.17l-3.56-53.89l-3.61-54.68l-25.41-13.16
	c0.05,3.68,0.09,7.39,0.12,11.12l16.83,11.13c0.4,5.49,0.79,10.98,1.18,16.48c0.81,11.31,1.6,22.65,2.38,34.02
	c0.98,14.46,1.94,28.96,2.88,43.51c0.39,6.03,0.76,12.07,1.13,18.09c1.41,22.49,2.71,44.85,3.96,67.16c2.92,0.55,6.06,1.1,9.46,1.65
	L140.98,538.6z"/>
<path class="Colour1 fill" d="M371.75,246.11l23.36-20.78c0.76-12.79,1.3-20.04,1.3-20.04c0.25-7.19,0.78-14.17,1.52-20.92
	c-10.26,15.45-20.57,29.46-30.56,42.05v37.91L246.05,409.26L126.34,264.35c-0.26-12.52-0.51-25.05-0.78-37.59
	c-9.24-12.06-18.72-25.25-28.21-39.6c0.59,5.88,1.01,11.93,1.23,18.13c0,0,0.61,8.21,1.45,22.58l20.73,18.53v48.51l-18.2-15.81
	c0.23,5.63,0.45,11.5,0.66,17.59l17.54,17.04l0.96,48.23l-17.2-16.12c0.1,5.2,0.18,10.48,0.25,15.83l25.41,13.16l3.61,54.68
	l112.27,142.49L358.6,429.54l3.82-56.81l27.84-14.26c0.07-5.15,0.16-10.22,0.25-15.22l-18.77,16.03v-45.27l20.11-19.69
	c0.22-6.07,0.44-11.92,0.67-17.51l-20.78,17.56v-30.03V246.11z M365.05,361.23l-119,145.06l-117.8-144.32v-44.32l116.88,145.56
	l119.92-145.56V361.23z M327.25,568.27c-12.28,1.41-26.64,2.73-43.38,3.83l71.22-90.34l-3.84,56.84L327.25,568.27z M207.7,571.87
	c-16.77-1.16-31.08-2.53-43.24-3.99l-23.48-29.28l-3.64-55.17L207.7,571.87z M371.32,561.25c-3.81,0.85-8.15,1.72-13.1,2.59
	c1.16-21.74,2.49-43.69,4-65.86l28.88-13.59l0.66-1.57c1.01,23.84,2.51,47.55,4.65,70.36c0,0-1.07,0.73-3.99,1.92l-1.54-16.51
	l-13.9,5.68L371.32,561.25z M133.26,563.2c-5.1-0.96-9.51-1.9-13.29-2.81l-5.69-17.11l-14.34-5.69c1.41-17.54,2.47-35.5,3.25-53.54
	l26.11,11.99C130.7,518.53,132.01,540.9,133.26,563.2z M390.14,369.31c-0.1,10.27-0.14,20.77-0.12,31.44l-7.08-10.77l-10.15,11.82
	l-2.91-0.26c0.61-6.78,1.23-13.54,1.87-20.28L390.14,369.31z M382.95,415.17l7.09-9.34c0.06,13.61,0.24,27.46,0.57,41.39
	l-23.69-11.41c0.95-11.5,1.93-22.93,2.97-34.28l2.91,0.26L382.95,415.17z M104.98,394.06c0-7.17-0.03-14.26-0.09-21.24l16.83,11.13
	c0.4,5.49,0.79,10.98,1.18,16.48l-2.78,0.2l-10.37-13L104.98,394.06z M125.28,434.44L104.45,445c0.27-12.28,0.43-24.49,0.5-36.51
	l3.86,5.12l11.32-12.98l2.78-0.2C123.71,411.73,124.51,423.07,125.28,434.44z"/>
<path class="Colour2 fill" d="M247.37,361.69c48.01-46.77,100.06-104.68,150.33-175.07c7.5-73.72,41.43-121.33,41.43-121.33
	C427.95,46.71,322.8,6.94,322.8,6.94l-0.12,0.01c0,0-30.18,12.46-75.18,12.25l-0.43,0c-44.76,0.14-74.75-12.25-74.75-12.25
	l-0.12-0.01c0,0-105.15,39.77-116.33,58.35c0,0,31.61,44.37,40.55,113.75c0.87,1.2,1.72,2.39,2.6,3.6
	C148.83,251.25,199.33,310.7,247.37,361.69z"/>
<path class="Colour1 fill" d="M439.12,65.29c0,0,46.18,55.01,54.38,148.67c0,0-64.06,39.03-86.41,25.65c0,0,1.37-13.63-10.68-34.32
	C396.42,205.29,396.29,131.08,439.12,65.29z"/>
<path class="Colour1 fill" d="M55.88,65.29c0,0-46.18,55.01-54.38,148.67c0,0,64.06,39.03,86.41,25.65c0,0-1.37-13.63,10.68-34.32
	C98.58,205.29,98.71,131.08,55.88,65.29z"/>
<path class="NeckAndArmTrim fill" d="M419.26,241.83c-4.7,0-8.59-0.85-11.56-2.53c0.07-1.29,0.13-5.73-1.6-12.55
	c0.35,0.01,0.69,0.01,1.04,0.01c34.14,0,77.58-25.84,83.83-29.67c0.77,5.38,1.41,10.9,1.91,16.57
	C488.8,216.11,445.19,241.83,419.26,241.83z"/>
<path class="NeckAndArmTrim fill" d="M2.1,213.66c0.5-5.66,1.15-11.19,1.91-16.57c6.25,3.83,49.69,29.67,83.83,29.67
	c0.35,0,0.7-0.01,1.04-0.01c-1.73,6.82-1.67,11.26-1.6,12.55c-2.97,1.68-6.85,2.53-11.56,2.53C49.81,241.83,6.2,216.11,2.1,213.66z"
	/>
<g>
	<path class="st2" d="M3.57,196.13c0,0,48.93,31.06,86.1,30.03"/>
	<path class="st0" d="M3.03,200.59c0,0,48.93,31.06,86.1,30.03"/>
	<path class="st2" d="M491.43,196.13c0,0-48.93,31.06-86.1,30.03"/>
	<path class="st0" d="M491.97,200.59c0,0-48.93,31.06-86.1,30.03"/>
</g>
<path class="Colour2 fill" d="M364.39,34.65l-3.01,2.7c-0.63-0.21-1.26-0.43-1.9-0.64c-14.15-4.87-26.29-7.36-34.61-8.73l-158.21-0.41
	c-8.09,1.58-19.71,4.21-33.33,8.73l-1.2-3.63c4.23-2.26,9.07-4.55,14.47-6.69c6.61-2.59,12.78-4.43,18.26-5.76l162.31-0.19
	c6.17,1.69,12.93,3.89,20.11,6.77C353.61,29.31,359.29,31.99,364.39,34.65z"/>
<path class="Colour3 fill" d="M60.17,60.53c6.5-5.66,18.42-12.46,32.12-19.28l3.61,10.59c-3.09,2.08-5.91,4.46-8.59,7.27
	c-2.94,3.08-8.28,9.42-12.28,19.91c-4.86-5.32-9.73-10.65-14.6-15.97C60.33,62.29,60.24,61.44,60.17,60.53z M402.72,58.69
	c3.64,3.45,10.33,10.57,15.77,22.31h0.01c2.16-2.88,4.86-6.07,8.2-9.31c2.72-2.66,5.4-4.87,7.86-6.72c0.16-1.37,0.28-2.83,0.37-4.35
	c-6.41-5.62-18.19-12.36-31.77-19.14l-5.29,13.03C399.52,55.8,401.12,57.19,402.72,58.69z M386.91,47.52l-3.13-11.67l-14.67,4.2
	C375.67,42.39,381.52,44.71,386.91,47.52z M132.15,32.66c4.23-2.26,9.07-4.55,14.47-6.69c6.61-2.59,12.78-4.43,18.26-5.76
	l162.31-0.19c6.17,1.69,12.93,3.89,20.11,6.77c6.31,2.52,11.99,5.2,17.09,7.86c0.99-1.93,1.99-4.2,2.9-6.77
	c0.3-0.86,0.57-1.7,0.81-2.52C343.84,14.9,322.8,6.94,322.8,6.94l-0.12,0.01c0,0-30.18,12.46-75.18,12.25l-0.43,0
	c-44.76,0.14-74.75-12.25-74.75-12.25l-0.12-0.01c0,0-19.63,7.42-42.82,17.35c0.08,0.43,0.15,0.87,0.25,1.32
	C130.28,28.53,131.26,30.9,132.15,32.66z M127.33,38.29l-14.92-5.03l-3.52,11.75C114.17,42.79,120.2,40.68,127.33,38.29z"/>
<path class="Colour2 fill" d="M367.29,27.88c0.3-0.86,0.57-1.7,0.81-2.52c11.6,5,23.94,10.58,35.06,16.13l-5.29,13.03
	c-3.48-2.71-7.09-4.98-10.96-6.99l-3.13-11.67l-14.67,4.2c-1.9-0.67-3.85-1.36-5.87-2.06c-0.62-0.22-1.22-0.43-1.85-0.64l3.01-2.7
	C365.38,32.71,366.38,30.45,367.29,27.88z M434.93,60.63c-0.09,1.52-0.21,2.98-0.37,4.35c-2.46,1.85-5.14,4.06-7.86,6.72
	c-3.34,3.24-6.04,6.43-8.2,9.31h-0.01c0.18,0.37,0.34,0.75,0.52,1.14c0.99,2.21,1.92,4.57,2.79,7.1c0.51,1.49,0.99,3.05,1.44,4.66
	c8.58-18.35,15.88-28.61,15.88-28.61C438.26,63.85,436.83,62.29,434.93,60.63z M95.91,51.85c3.83-2.6,8.06-4.77,12.98-6.84
	l3.52-11.75l14.92,5.03c1.92-0.64,3.93-1.3,6.02-2l-1.2-3.63c-0.89-1.75-1.87-4.13-2.51-7.05c-0.1-0.45-0.18-0.89-0.25-1.32
	c-12.15,5.2-25.28,11.09-37.09,16.97L95.91,51.85z M71.99,89.24c0.56-2.54,1.22-4.89,1.95-7.1c0.34-1.07,0.71-2.11,1.1-3.11
	c-4.86-5.32-9.73-10.65-14.6-15.97c-0.1-0.77-0.19-1.61-0.26-2.52c-1.95,1.7-3.42,3.29-4.3,4.76c0,0,7.03,9.87,15.4,27.58
	C71.49,91.63,71.73,90.41,71.99,89.24z"/>
<path class="NeckAndArmTrim fill" d="M310.75,2l-0.1,0.01c0,0-25.35,9.15-63.15,8.97l-0.36,0c-37.6,0.12-62.79-8.97-62.79-8.97L184.25,2
	l-11.93,4.95c0,0,29.99,12.39,74.75,12.25l0.43,0c45,0.21,75.18-12.25,75.18-12.25L310.75,2z"/>
<path class="Colour2 fill" d="M50.79,218.28c-4.47-1.49-9.23-3.27-14.21-5.43c-3.81-1.65-7.38-3.35-10.69-5.06
	c-3.25,4.43-6.5,8.85-9.74,13.28c-2.57-1.47-5.25-2.92-8.05-4.33c-0.75-0.38-1.5-0.75-2.25-1.12c1.73-5.11,3.46-10.22,5.19-15.32
	c-2.44-1.59-4.88-3.17-7.33-4.76c11.92-82.2,52.33-129.95,52.33-129.95c16.91,25.75,27.12,52.8,33.29,76.12
	c-9.92,17.59-25.97,52.43-28.69,97.39c-3.14-0.77-6.35-1.72-9.59-2.8c-0.47-3.52-0.76-7.54-0.65-11.96
	C50.45,222.21,50.59,220.18,50.79,218.28z M444.21,219.28c4.47-1.49,9.23-3.27,14.21-5.43c3.81-1.65,7.38-3.35,10.69-5.06
	c3.25,4.43,6.5,8.85,9.74,13.28c2.57-1.47,5.25-2.92,8.05-4.33c0.75-0.38,1.5-0.75,2.25-1.12c-1.73-5.11-3.46-10.22-5.19-15.32
	c2.44-1.59,4.88-3.17,7.33-4.76c-11.92-82.2-52.33-129.95-52.33-129.95c-16.91,25.75-27.12,52.8-33.29,76.12
	c9.92,17.59,25.97,52.43,28.69,97.39c3.14-0.77,6.35-1.72,9.59-2.8c0.47-3.52,0.76-7.54,0.65-11.96
	C444.55,223.21,444.41,221.18,444.21,219.28z"/>
<path class="BottomHem fill" d="M247.5,559.16c124.55-4.96,147.55-20.81,147.55-20.81l1.37,14.84c0,0-34.6,17.87-149.34,20.81
	c0,0-105.75-1.2-148.49-20.81l1.37-14.84C99.96,538.35,122.96,554.21,247.5,559.16"/>
<g id="BBodyLogos"></g>
</svg>
