<?xml version="1.0" encoding="utf-8"?>
<!-- Generator: Adobe Illustrator 19.1.0, SVG Export Plug-In . SVG Version: 6.00 Build 0)  -->
<svg version="1.1" id="Layer_1" xmlns="http://www.w3.org/2000/svg" xmlns:xlink="http://www.w3.org/1999/xlink" x="0px" y="0px"
	 viewBox="0 0 495 576" style="enable-background:new 0 0 495 576;" xml:space="preserve">
<style type="text/css">
	<![CDATA[
	@font-face{font-family:'codaheavy';src:url('/fonts/coda-heavy-webfont.woff') format('woff')}
	text{font-family:Impact,codaheavy,sans-serif}
	.Colour1.fill{fill:#AB3E4A;}
	.Colour2.fill{fill:#00305D;}
	.Colour3.fill{fill:#FF800D;}
	.Colour4.fill{fill:#D66D3B;}
	.Colour5.fill{fill:#00609F;}
	.Colour6.fill{fill:#E69B3C;}
	.Colour7.fill{fill:#600602;}
	.Colour8.fill{fill:#EDEBE7;}
	.Colour9.fill{fill:#DDA058;}
	.Colour10.fill{fill:#BADCD9;}
	.NeckAndArmTrim.fill{fill:#AB3E4A;}
	.st0{fill:#EB2935;}
	.st1{fill:#111D35;stroke:#000000;stroke-width:0.25;stroke-miterlimit:10;}
	.st2{fill:#FFFFFF;}
	.st3{fill:#A7444D;}
	.st4{fill:none;stroke:#000000;stroke-width:0.25;stroke-miterlimit:10;stroke-dasharray:2;}
	.st5{fill:none;stroke:#000000;stroke-width:0.25;stroke-miterlimit:10;}
	.st6{fill:#FFFFFF;stroke:#000000;stroke-width:0.25;stroke-miterlimit:10;}
	]]>
</style>
<path class="Colour1 fill" d="M439.11,64.76c0,0,46.18,55.04,54.38,148.75c0,0-64.06,39.05-86.41,25.66c0,0,1.37-13.64-10.68-34.34
	C396.41,204.83,396.28,130.58,439.11,64.76z"/>
<path class="Colour1 fill" d="M55.88,64.76c0,0-46.18,55.04-54.38,148.75c0,0,64.06,39.05,86.41,25.66c0,0-1.37-13.64,10.68-34.34
	C98.58,204.83,98.71,130.58,55.88,64.76z"/>
<path class="NeckAndArmTrim fill" d="M419.27,241.66c-4.7,0-8.59-0.85-11.56-2.53c0.07-1.29,0.13-5.73-1.6-12.56
	c0.35,0.01,0.69,0.01,1.04,0.01c34.14,0,77.58-25.85,83.83-29.68c0.77,5.38,1.41,10.91,1.91,16.58
	C488.81,215.93,445.2,241.66,419.27,241.66z"/>
<path class="NeckAndArmTrim fill" d="M2.12,213.48c0.5-5.67,1.15-11.19,1.91-16.58c6.25,3.83,49.69,29.68,83.83,29.68
	c0.35,0,0.7-0.01,1.04-0.01c-1.73,6.83-1.67,11.27-1.6,12.56c-2.97,1.68-6.85,2.53-11.56,2.53C49.83,241.66,6.21,215.93,2.12,213.48
	z"/>
<g>
	<path class="st0" d="M247.51,559.16c124.55-4.96,147.55-20.82,147.55-20.82l1.37,14.84c0,0-34.6,17.88-149.34,20.82
		c0,0-105.75-1.2-148.49-20.82l1.37-14.84C99.97,538.33,122.97,554.2,247.51,559.16"/>
</g>
<g>
	<path class="st1" d="M439.13,64.76C427.96,46.17,322.81,6.38,322.81,6.38l-0.31,0.11l0.26,0.14c0,0-3.86,57.68-75.02,57.8l-0.22,0
		c-71.37,0-75.24-57.8-75.24-57.8l0.24-0.13l-0.3-0.12c0,0-105.15,39.79-116.32,58.38c0,0,39.73,55.78,42.71,140.07
		c0,0,14.4,194.36,0,348.06c0,0,23.21,15.87,148.91,20.82c125.7-4.96,148.91-20.82,148.91-20.82c-14.4-153.7,0-348.06,0-348.06
		C399.41,120.54,439.13,64.76,439.13,64.76z"/>
</g>
<path class="Colour1 fill" d="M247.21,234.78H100.45c0.8,14.33,1.73,33.22,2.55,55.27c0.62,16.8,1.17,35.43,1.54,55.27h142.68h143.28
	c0.37-19.84,0.91-38.47,1.54-55.27c0.81-22.05,1.75-40.94,2.55-55.27H247.21z"/>
<path class="Colour8 fill" d="M322.81,6.66l-0.12,0.01c0,0-30.18,12.47-75.17,12.25l-0.3,0l-0.13,0c-44.76,0.14-74.75-12.25-74.75-12.25
	l-0.12-0.01c0,0-105.15,39.79-116.32,58.38c0,0,12.71,17.85,24.29,48.62h167.03h167.62c11.58-30.76,24.29-48.62,24.29-48.62
	C427.96,46.45,322.81,6.66,322.81,6.66z"/>
<g>
	<path class="Colour8 fill" d="M247.21,231.33H100.26c0.33,5.83,0.69,12.53,1.07,19.98h10.61v-16.53h38.79v16.53h16.55l0,16.53h16.55
		v16.53h10.87v-16.53h16.55v-16.53h16.55v-16.53h19.4h19.4v16.53h16.55v16.53h16.55v16.53h10.87v-16.53h16.55v-16.53h16.55v-16.53
		h38.79v16.53h11.21c0.37-7.45,0.73-14.15,1.07-19.98H247.21z"/>
	<path class="Colour8 fill" d="M382.49,345.31H343.7v-16.53h-16.55v-16.53h-16.55l0-16.53h-10.87v16.53h-16.55v16.53h-16.55v16.53h-19.4
		h-19.4v-16.53h-16.55l0-16.53h-16.55v-16.53h-10.87v16.53h-16.55v16.53h-16.55v16.53h-38.79v-16.53h-7.75
		c0.16,6.51,0.3,13.18,0.41,19.98h142.62h143.21c0.12-6.81,0.26-13.47,0.41-19.98h-8.35V345.31z"/>
</g>
<path class="Colour8 fill" d="M391.16,466.44H247.21H103.87c-0.97,29.32-2.64,58.7-5.27,86.74c0,0,23.17,15.84,148.59,20.81h0.02l0.64,0
	c125.39-4.97,148.57-20.81,148.57-20.81C393.8,525.14,392.13,495.75,391.16,466.44z"/>
<path class="Colour4 fill" d="M391.16,466.4c-0.14-4.25-0.27-8.5-0.38-12.74c0,0,0,0,0-0.01c-0.22-8.46-0.39-16.89-0.51-25.27
	c0-0.11,0-0.22-0.01-0.33c-0.06-4.13-0.11-8.24-0.14-12.33c0-0.03,0-0.07,0-0.1h-142.9h-142.3c-0.15,16.73-0.48,33.76-1.04,50.82
	h143.35h143.94C391.16,466.42,391.16,466.41,391.16,466.4z"/>
<path class="Colour2 fill" d="M390.38,351.79H247.21H104.65c0.33,20.32,0.45,41.81,0.26,63.83h142.3h142.9
	C389.92,393.6,390.05,372.11,390.38,351.79z"/>
<path class="Colour2 fill" d="M247.21,164.48H94.22c2.28,12.62,3.87,26.21,4.38,40.63c0,0,0.63,8.44,1.49,23.19h147.13h147.73
	c0.86-14.75,1.49-23.19,1.49-23.19c0.51-14.43,2.1-28.01,4.38-40.63H247.21z"/>
<path class="Colour4 fill" d="M247.21,113.66H80.19c5.39,14.31,10.53,31.41,14.04,50.82h152.99H400.8c3.5-19.4,8.65-36.51,14.04-50.82
	H247.21z"/>
<polygon class="Colour2 fill" points="390.19,447.62 390.19,431.87 365.44,439.74 "/>
<path class="Colour2 fill" d="M104.71,431.99c-0.08,5.18-0.19,10.39-0.31,15.6l24.68-7.85L104.71,431.99z"/>
<path class="Colour6 fill" d="M374.93,419.83h15.22c-0.01-1.41-0.03-2.81-0.04-4.22h-15.18l1.13-1.13l-3.24-3.24l3.24-3.24l-3.24-3.24
	l-3.24,3.24l-3.24-3.24l-3.24,3.24l-3.24-3.24l-3.24,3.24l-3.24-3.24l-3.24,3.24l3.24,3.24l-3.24,3.24l1.13,1.13h-53.57l1.13-1.13
	l-3.24-3.24l3.24-3.24l-3.24-3.24l-3.24,3.24l-3.24-3.24l-3.24,3.24l-3.24-3.24l-3.24,3.24l-3.24-3.24l-3.24,3.24l3.24,3.24
	l-3.24,3.24l1.13,1.13h-26.8h-26.79l1.13-1.13l-3.24-3.24l3.24-3.24l-3.24-3.24l-3.24,3.24l-3.24-3.24l-3.24,3.24l-3.24-3.24
	l-3.24,3.24l-3.24-3.24l-3.24,3.24l3.24,3.24l-3.24,3.24l1.13,1.13h-53.58l1.13-1.13l-3.24-3.24l3.24-3.24l-3.24-3.24l-3.24,3.24
	l-3.24-3.24l-3.24,3.24l-3.24-3.24l-3.24,3.24l-3.24-3.24l-3.24,3.24l3.24,3.24l-3.24,3.24l1.13,1.13h-14.58
	c-0.01,1.4-0.03,2.81-0.04,4.22h14.62l-1.13,1.13l3.24,3.24l-3.24,3.24l3.24,3.24l3.24-3.24l3.24,3.24l3.24-3.24l3.24,3.24
	l3.24-3.24l3.24,3.24l3.24-3.24l-3.24-3.24l3.24-3.24l-1.13-1.13h53.58l-1.13,1.13l3.24,3.24l-3.24,3.24l3.24,3.24l3.24-3.24
	l3.24,3.24l3.24-3.24l3.24,3.24l3.24-3.24l3.24,3.24l3.24-3.24l-3.24-3.24l3.24-3.24l-1.13-1.13h26.79h26.8l-1.13,1.13l3.24,3.24
	l-3.24,3.24l3.24,3.24l3.24-3.24l3.24,3.24l3.24-3.24l3.24,3.24l3.24-3.24l3.24,3.24l3.24-3.24l-3.24-3.24l3.24-3.24l-1.13-1.13
	h53.57l-1.13,1.13l3.24,3.24l-3.24,3.24l3.24,3.24l3.24-3.24l3.24,3.24l3.24-3.24l3.24,3.24l3.24-3.24l3.24,3.24l3.24-3.24
	l-3.24-3.24l3.24-3.24L374.93,419.83z"/>
<path class="Colour6 fill" d="M401.6,160.26h-26.66l1.13-1.13l-3.24-3.24l3.24-3.24l-3.24-3.24l-3.24,3.24l-3.24-3.24l-3.24,3.24
	l-3.24-3.24l-3.24,3.24l-3.24-3.24l-3.24,3.24l3.24,3.24l-3.24,3.24l1.13,1.13h-53.58l1.13-1.13l-3.24-3.24l3.24-3.24l-3.24-3.24
	l-3.24,3.24l-3.24-3.24l-3.24,3.24l-3.24-3.24l-3.24,3.24l-3.24-3.24l-3.24,3.24l3.24,3.24l-3.24,3.24l1.13,1.13h-26.79h-26.8
	l1.13-1.13l-3.24-3.24l3.24-3.24l-3.24-3.24l-3.24,3.24l-3.24-3.24l-3.24,3.24l-3.24-3.24l-3.24,3.24l-3.24-3.24l-3.24,3.24
	l3.24,3.24l-3.24,3.24l1.13,1.13h-53.57l1.13-1.13l-3.24-3.24l3.24-3.24l-3.24-3.24l-3.24,3.24l-3.24-3.24l-3.24,3.24l-3.24-3.24
	l-3.24,3.24l-3.24-3.24l-3.24,3.24l3.24,3.24l-3.24,3.24l1.13,1.13H93.43c0.27,1.39,0.54,2.8,0.8,4.22h25.27l-1.13,1.13l3.24,3.24
	l-3.24,3.24l3.24,3.24l3.24-3.24l3.24,3.24l3.24-3.24l3.24,3.24l3.24-3.24l3.24,3.24l3.24-3.24l-3.24-3.24l3.24-3.24l-1.13-1.13
	h53.57l-1.13,1.13l3.24,3.24l-3.24,3.24l3.24,3.24l3.24-3.24l3.24,3.24l3.24-3.24l3.24,3.24l3.24-3.24l3.24,3.24l3.24-3.24
	l-3.24-3.24l3.24-3.24l-1.13-1.13h26.8H274l-1.13,1.13l3.24,3.24l-3.24,3.24l3.24,3.24l3.24-3.24l3.24,3.24l3.24-3.24l3.24,3.24
	l3.24-3.24l3.24,3.24l3.24-3.24l-3.24-3.24l3.24-3.24l-1.13-1.13h53.58l-1.13,1.13l3.24,3.24l-3.24,3.24l3.24,3.24l3.24-3.24
	l3.24,3.24l3.24-3.24l3.24,3.24l3.24-3.24l3.24,3.24l3.24-3.24l-3.24-3.24l3.24-3.24l-1.13-1.13h25.87
	C401.06,163.06,401.33,161.65,401.6,160.26z"/>
<path class="Colour9 fill" d="M78.21,94.73h-5.93c0.92,1.99,1.86,4.08,2.8,6.26L78.21,94.73z"/>
<path class="Colour9 fill" d="M419.66,101.67c1.04-2.42,2.07-4.74,3.09-6.94h-6.57L419.66,101.67z"/>
<path class="st2" d="M166.98,344.72h16.24l-8.12-16.22L166.98,344.72z M168.74,343.68l6.37-12.71l6.37,12.71H168.74z"/>
<path class="st2" d="M178,319.48L189.28,342l11.28-22.53H178z M180.44,320.92h17.69l-8.84,17.66L180.44,320.92z"/>
<path class="st2" d="M195.34,344.72h16.24l-8.12-16.22L195.34,344.72z M197.09,343.68l6.37-12.71l6.37,12.71H197.09z"/>
<path class="st2" d="M155.21,331.96l5.99,11.97l5.99-11.97H155.21z M156.51,332.72h9.39l-4.7,9.38L156.51,332.72z"/>
<path class="Colour1 fill" d="M238.49,554.11c0,4.81,3.9,8.71,8.72,8.71V545.4C242.4,545.4,238.49,549.3,238.49,554.11z"/>
<path class="st2" d="M217.26,343.88l5.99-11.97h-11.98L217.26,343.88z M217.26,342.06l-4.7-9.38h9.39L217.26,342.06z"/>
<polygon class="Colour6 fill" points="178.28,368.33 185.72,377.27 189.27,370.17 192.83,377.27 200.26,368.33 "/>
<polygon class="Colour6 fill" points="139.66,368.33 147.09,377.27 150.65,370.17 154.2,377.27 161.64,368.33 "/>
<polygon class="Colour6 fill" points="224.34,377.27 227.9,370.17 231.46,377.27 238.89,368.33 216.91,368.33 "/>
<g>
	<polygon class="Colour8 fill" points="191.61,378.74 189.27,374.06 186.93,378.74 189.27,381.55 	"/>
	<polygon class="Colour8 fill" points="230.24,378.74 227.9,374.06 225.56,378.74 227.9,381.55 	"/>
	<polygon class="Colour8 fill" points="152.99,378.74 150.65,374.06 148.3,378.74 150.65,381.55 	"/>
	<polygon class="Colour8 fill" points="114.36,378.74 112.02,374.06 109.68,378.74 112.02,381.55 	"/>
</g>
<polygon class="Colour1 fill" points="227.9,383.96 224.84,380.18 216.91,396.01 238.89,396.01 230.96,380.18 "/>
<polygon class="Colour1 fill" points="189.27,383.96 186.21,380.18 178.28,396.01 200.26,396.01 192.34,380.18 "/>
<polygon class="Colour1 fill" points="150.65,383.96 147.58,380.18 139.66,396.01 161.64,396.01 153.71,380.18 "/>
<polygon class="Colour9 fill" points="153.67,331.01 168.74,331.01 161.2,346.05 "/>
<polygon class="Colour9 fill" points="164.9,346 175.1,325.62 185.31,346 "/>
<polygon class="Colour9 fill" points="175.1,317.69 203.46,317.69 189.28,346 "/>
<polygon class="Colour9 fill" points="193.25,346 203.46,325.62 213.67,346 "/>
<polygon class="Colour9 fill" points="217.26,346 209.72,330.96 224.79,330.96 "/>
<rect x="217.29" y="398.97" class="Colour10 fill" width="21.22" height="1.54"/>
<rect x="178.66" y="398.97" class="Colour10 fill" width="21.22" height="1.54"/>
<rect x="140.03" y="398.97" class="Colour10 fill" width="21.22" height="1.54"/>
<path class="Colour7 fill" d="M223.63,378.69l-9.54,19.06h27.63l-9.54-19.06l9.54-11.77h-27.63L223.63,378.69z M238.89,396.01h-21.98
	l7.93-15.83l3.06,3.78l3.06-3.78L238.89,396.01z M225.56,378.74l2.34-4.67l2.34,4.67l-2.34,2.82L225.56,378.74z M231.46,377.27
	l-3.56-7.1l-3.56,7.1l-7.43-8.95h21.98L231.46,377.27z"/>
<path class="Colour7 fill" d="M175.46,366.92l9.54,11.77l-9.54,19.06h27.63l-9.54-19.06l9.54-11.77H175.46z M200.26,396.01h-21.98
	l7.93-15.83l3.06,3.78l3.06-3.78L200.26,396.01z M186.93,378.74l2.34-4.67l2.34,4.67l-2.34,2.82L186.93,378.74z M192.83,377.27
	l-3.56-7.1l-3.56,7.1l-7.43-8.95h21.98L192.83,377.27z"/>
<path class="Colour7 fill" d="M136.83,366.92l9.54,11.77l-9.54,19.06h27.63l-9.54-19.06l9.54-11.77H136.83z M161.64,396.01h-21.98
	l7.93-15.83l3.06,3.78l3.06-3.78L161.64,396.01z M148.3,378.74l2.34-4.67l2.34,4.67l-2.34,2.82L148.3,378.74z M154.2,377.27
	l-3.56-7.1l-3.56,7.1l-7.43-8.95h21.98L154.2,377.27z"/>
<polygon class="Colour10 fill" points="214.32,536.15 222.17,536.15 222.17,496.12 236.26,496.12 236.26,488.28 222.17,488.28 
	222.17,474.21 214.32,474.21 214.32,488.28 200.23,488.28 200.23,496.12 214.32,496.12 "/>
<polygon class="Colour10 fill" points="156.37,536.15 164.23,536.15 164.23,496.12 178.32,496.12 178.32,488.28 164.23,488.28 
	164.23,474.21 156.37,474.21 156.37,488.28 142.29,488.28 142.29,496.12 156.37,496.12 "/>
<path class="Colour3 fill" d="M99.31,545.32c-0.2,2.27-0.4,4.54-0.61,6.79l3.66-5.29l7.49,10.83c1.51,0.46,3.21,0.95,5.1,1.46l-12.6-18.2
	L99.31,545.32z"/>
<path class="Colour1 fill" d="M98.7,552.12c-0.03,0.35-0.06,0.71-0.1,1.06c0,0,0.6,0.41,2.1,1.11l1.66-2.39l2.94,4.25
	c1.29,0.46,2.8,0.97,4.55,1.51l-7.49-10.83L98.7,552.12z"/>
<path class="Colour1 fill" d="M258.56,552.12c-0.03,0.35-0.06,0.71-0.1,1.06c0,0,0.6,0.41,2.1,1.11l1.66-2.39l2.94,4.25
	c1.29,0.46,2.8,0.97,4.55,1.51l-7.49-10.83L258.56,552.12z"/>
<ellipse class="Colour1 fill" cx="189.27" cy="554.11" rx="8.72" ry="8.71"/>
<polygon class="Colour7 fill" points="240.64,464.6 247.21,464.6 247.21,455.11 "/>
<polygon class="Colour7 fill" points="219.57,464.6 232.71,464.6 226.14,455.11 "/>
<polygon class="Colour7 fill" points="198.5,464.6 211.64,464.6 205.07,455.11 "/>
<polygon class="Colour7 fill" points="177.43,464.6 190.58,464.6 184,455.11 "/>
<polygon class="Colour7 fill" points="156.36,464.6 169.51,464.6 162.93,455.11 "/>
<polygon class="Colour7 fill" points="135.29,464.6 148.44,464.6 141.87,455.11 "/>
<polygon class="Colour7 fill" points="114.23,464.6 127.37,464.6 120.8,455.11 "/>
<circle class="Colour6 fill" cx="114.04" cy="356.85" r="3.28"/>
<ellipse class="Colour6 fill" cx="148.8" cy="356.85" rx="3.28" ry="3.28"/>
<circle class="Colour6 fill" cx="183.56" cy="356.85" r="3.28"/>
<ellipse class="Colour6 fill" cx="218.31" cy="356.85" rx="3.28" ry="3.28"/>
<rect x="119.91" y="355.76" class="Colour8 fill" width="23.03" height="2.18"/>
<rect x="154.66" y="355.76" class="Colour8 fill" width="23.03" height="2.18"/>
<rect x="189.42" y="355.76" class="Colour8 fill" width="23.03" height="2.18"/>
<polygon class="Colour2 fill" points="158.42,431.87 133.67,439.74 158.42,447.62 "/>
<polygon class="Colour2 fill" points="181.53,431.87 181.53,447.62 206.28,439.74 "/>
<polygon class="Colour5 fill" points="174.9,431.87 174.9,447.62 199.65,439.74 "/>
<polygon class="Colour2 fill" points="235.62,447.62 235.62,431.87 210.87,439.74 "/>
<polygon class="Colour5 fill" points="165.41,431.87 140.66,439.74 165.41,447.62 "/>
<polygon class="Colour5 fill" points="242.6,447.62 242.6,431.87 217.85,439.74 "/>
<path class="st3" d="M175.1,317.69L189.28,346l14.18-28.31H175.1z M178,319.48h22.56L189.28,342L178,319.48z"/>
<polygon class="Colour5 fill" points="180.44,320.92 189.28,338.58 198.13,320.92 "/>
<path class="st3" d="M164.9,346h20.41l-10.21-20.38L164.9,346z M166.98,344.72l8.12-16.22l8.12,16.22H166.98z"/>
<polygon class="Colour5 fill" points="168.74,343.68 181.47,343.68 175.1,330.96 "/>
<path class="st3" d="M193.25,346h20.41l-10.21-20.38L193.25,346z M195.34,344.72l8.12-16.22l8.12,16.22H195.34z"/>
<polygon class="Colour5 fill" points="197.09,343.68 209.83,343.68 203.46,330.96 "/>
<path class="st3" d="M217.26,346l7.53-15.04h-15.06L217.26,346z M217.26,343.88l-5.99-11.97h11.98L217.26,343.88z"/>
<polygon class="Colour5 fill" points="217.26,342.06 221.95,332.68 212.56,332.68 "/>
<path class="st3" d="M153.67,331.01l7.53,15.04l7.53-15.04H153.67z M155.21,331.96h11.98l-5.99,11.97L155.21,331.96z"/>
<polygon class="Colour5 fill" points="156.51,332.72 161.2,342.1 165.9,332.72 "/>
<path class="Colour5 fill" d="M104.28,332.68c0.02,1.03,0.05,2.07,0.07,3.11l1.56-3.11H104.28z"/>
<path class="st3" d="M104.24,330.96c0.01,0.32,0.01,0.63,0.02,0.95h2.94l-2.82,5.62c0.01,0.68,0.03,1.36,0.04,2.04l4.31-8.61H104.24
	z"/>
<path class="Colour9 fill" d="M104.24,330.96c0.07,2.84,0.13,5.71,0.19,8.61l4.31-8.61H104.24z"/>
<g>
	<path class="Colour10 fill" d="M247.21,351.79v-3.03H104.6c0.02,1.01,0.03,2.02,0.05,3.03H247.21z"/>
</g>
<g>
	<polygon class="Colour2 fill" points="129.23,541.16 133.43,541.16 133.43,519.76 140.96,519.76 140.96,515.57 133.43,515.57 
		133.43,508.05 129.23,508.05 129.23,515.57 121.7,515.57 121.7,519.76 129.23,519.76 	"/>
	<polygon class="Colour2 fill" points="187.17,541.16 191.37,541.16 191.37,519.76 198.9,519.76 198.9,515.57 191.37,515.57 
		191.37,508.05 187.17,508.05 187.17,515.57 179.65,515.57 179.65,519.76 187.17,519.76 	"/>
	<g>
		<polygon class="Colour2 fill" points="245.12,508.05 245.12,515.57 237.59,515.57 237.59,519.76 245.12,519.76 245.12,541.16 
			247.21,541.16 247.21,508.05 		"/>
	</g>
</g>
<g>
	<rect x="110.03" y="500.75" class="Colour3 fill" width="42.6" height="3.45"/>
	<rect x="167.97" y="500.75" class="Colour3 fill" width="42.6" height="3.45"/>
	<rect x="225.92" y="500.75" class="Colour3 fill" width="21.3" height="3.45"/>
</g>
<g>
	<g>
		<polygon class="Colour9 fill" points="113.69,485.36 118.55,475.67 123.4,485.36 		"/>
		<path class="st3" d="M113.69,485.36h9.71l-4.86-9.7L113.69,485.36z M114.69,484.75l3.86-7.71l3.86,7.71H114.69z"/>
		<polygon class="Colour5 fill" points="115.52,484.26 121.58,484.26 118.55,478.21 		"/>
	</g>
	<g>
		<polygon class="Colour9 fill" points="126.48,485.36 131.33,475.67 136.19,485.36 		"/>
		<path class="st3" d="M126.48,485.36h9.71l-4.86-9.7L126.48,485.36z M127.47,484.75l3.86-7.71l3.86,7.71H127.47z"/>
		<polygon class="Colour5 fill" points="128.3,484.26 134.36,484.26 131.33,478.21 		"/>
	</g>
	<g>
		<polygon class="Colour9 fill" points="139.26,485.36 144.11,475.67 148.97,485.36 		"/>
		<path class="st3" d="M139.26,485.36h9.71l-4.86-9.7L139.26,485.36z M140.25,484.75l3.86-7.71l3.86,7.71H140.25z"/>
		<polygon class="Colour5 fill" points="141.09,484.26 147.14,484.26 144.11,478.21 		"/>
	</g>
</g>
<g>
	<g>
		<polygon class="Colour9 fill" points="171.67,485.36 176.53,475.67 181.38,485.36 		"/>
		<path class="st3" d="M171.67,485.36h9.71l-4.86-9.7L171.67,485.36z M172.67,484.75l3.86-7.71l3.86,7.71H172.67z"/>
		<polygon class="Colour5 fill" points="173.5,484.26 179.56,484.26 176.53,478.21 		"/>
	</g>
	<g>
		<polygon class="Colour9 fill" points="184.46,485.36 189.31,475.67 194.17,485.36 		"/>
		<path class="st3" d="M184.46,485.36h9.71l-4.86-9.7L184.46,485.36z M185.45,484.75l3.86-7.71l3.86,7.71H185.45z"/>
		<polygon class="Colour5 fill" points="186.28,484.26 192.34,484.26 189.31,478.21 		"/>
	</g>
	<g>
		<polygon class="Colour9 fill" points="197.24,485.36 202.09,475.67 206.95,485.36 		"/>
		<path class="st3" d="M197.24,485.36h9.71l-4.86-9.7L197.24,485.36z M198.23,484.75l3.86-7.71l3.86,7.71H198.23z"/>
		<polygon class="Colour5 fill" points="199.07,484.26 205.12,484.26 202.09,478.21 		"/>
	</g>
</g>
<g>
	<path class="Colour9 fill" d="M230.57,484.75h7.73l-3.86-7.71L230.57,484.75z M231.4,484.26l3.03-6.05l3.03,6.05H231.4z"/>
	<path class="st3" d="M229.58,485.36h9.71l-4.86-9.7L229.58,485.36z M230.57,484.75l3.86-7.71l3.86,7.71H230.57z"/>
	<polygon class="Colour5 fill" points="231.4,484.26 237.46,484.26 234.43,478.21 	"/>
	<polygon class="Colour9 fill" points="243.35,484.75 247.21,484.75 247.21,484.26 244.19,484.26 247.21,478.21 247.21,478.21 
		247.21,477.04 247.21,477.04 	"/>
	<polygon class="st3" points="243.35,484.75 247.21,477.04 247.21,477.04 247.21,475.67 247.21,475.67 242.36,485.36 247.21,485.36 
		247.21,484.75 	"/>
	<polygon class="Colour5 fill" points="244.19,484.26 247.21,484.26 247.21,478.21 247.21,478.21 	"/>
</g>
<polygon class="Colour1 fill" points="213.61,414.97 211.32,414.97 211.32,412.69 209.04,412.69 209.04,410.4 208.09,410.4 
	208.09,412.69 205.8,412.69 205.8,414.97 203.51,414.97 203.51,417.25 201.23,417.25 201.23,418.2 203.51,418.2 203.51,420.48 
	205.8,420.48 205.8,422.77 208.09,422.77 208.09,425.05 209.04,425.05 209.04,422.77 211.32,422.77 211.32,420.48 213.61,420.48 
	213.61,418.2 215.9,418.2 215.9,417.25 213.61,417.25 "/>
<path class="Colour8 fill" d="M214.94,413.64h-2.29v-2.28h-2.29v-2.28h-3.62v2.28h-2.29v2.28h-2.29v2.28h-2.29v3.61h2.29v2.28l2.29,0
	v2.28l2.29,0v2.28h3.62v-2.28l2.29,0v-2.28h2.29v-2.28h2.29v-3.61h-2.29V413.64z M215.9,417.25v0.95h-2.29v2.28h-2.29v2.28h-2.29
	v2.28h-0.95v-2.28h-2.29v-2.28h-2.29v-2.28h-2.29v-0.95h2.29v-2.28h2.29v-2.28h2.29v-2.28h0.95v2.28h2.29v2.28h2.29v2.28H215.9z"/>
<polygon class="Colour1 fill" points="136.38,414.97 134.09,414.97 134.09,412.69 131.81,412.69 131.81,410.4 130.86,410.4 
	130.86,412.69 128.57,412.69 128.57,414.97 126.28,414.97 126.28,417.25 124,417.25 124,418.2 126.28,418.2 126.28,420.48 
	128.57,420.48 128.57,422.77 130.86,422.77 130.86,425.05 131.81,425.05 131.81,422.77 134.09,422.77 134.09,420.48 136.38,420.48 
	136.38,418.2 138.67,418.2 138.67,417.25 136.38,417.25 "/>
<path class="Colour8 fill" d="M137.71,413.64h-2.29v-2.28h-2.29v-2.28h-3.62v2.28h-2.29v2.28h-2.29v2.28h-2.29v3.61h2.29v2.28l2.29,0
	v2.28l2.29,0v2.28h3.62v-2.28l2.29,0v-2.28h2.29v-2.28H140v-3.61h-2.29V413.64z M138.67,417.25v0.95h-2.29v2.28h-2.29v2.28h-2.29
	v2.28h-0.95v-2.28h-2.29v-2.28h-2.29v-2.28H124v-0.95h2.29v-2.28h2.29v-2.28h2.29v-2.28h0.95v2.28h2.29v2.28h2.29v2.28H138.67z"/>
<polygon class="Colour6 fill" points="229.53,290.05 229.53,301.06 242.84,301.06 242.84,314.36 247.21,314.36 247.21,290.05 "/>
<polygon class="Colour6 fill" points="113.64,290.05 113.64,301.06 126.96,301.06 126.96,314.36 135.7,314.36 135.7,301.06 
	149.02,301.06 149.02,290.05 "/>
<polygon class="Colour4 fill" points="122.39,305.63 122.39,318.92 140.28,318.92 140.28,305.63 153.59,305.63 153.59,290.05 
	149.02,290.05 149.02,301.06 135.7,301.06 135.7,314.36 126.96,314.36 126.96,301.06 113.64,301.06 113.64,290.05 109.07,290.05 
	109.07,305.63 "/>
<polygon class="Colour4 fill" points="238.27,305.63 238.27,318.92 247.21,318.92 247.21,314.36 242.84,314.36 242.84,301.06 
	229.53,301.06 229.53,290.05 224.95,290.05 224.95,305.63 "/>
<rect x="224.18" y="355.76" class="Colour8 fill" width="23.03" height="2.18"/>
<path class="st2" d="M270.93,331.96l5.99,11.97l5.99-11.97H270.93z M272.22,332.72h9.39l-4.7,9.38L272.22,332.72z"/>
<path class="st2" d="M293.72,319.48L305,342l11.28-22.53H293.72z M296.15,320.92h17.69L305,338.58L296.15,320.92z"/>
<path class="st2" d="M282.7,344.72h16.24l-8.12-16.22L282.7,344.72z M284.45,343.68l6.37-12.71l6.37,12.71H284.45z"/>
<path class="st2" d="M311.06,344.72h16.24l-8.12-16.22L311.06,344.72z M312.81,343.68l6.37-12.71l6.37,12.71H312.81z"/>
<path class="st2" d="M332.97,343.88l5.99-11.97h-11.98L332.97,343.88z M332.97,342.06l-4.7-9.38h9.39L332.97,342.06z"/>
<g>
	<polygon class="Colour8 fill" points="268.87,378.74 266.53,374.06 264.19,378.74 266.53,381.55 	"/>
	<polygon class="Colour8 fill" points="307.5,378.74 305.16,374.06 302.82,378.74 305.16,381.55 	"/>
	<polygon class="Colour8 fill" points="384.75,378.74 382.41,374.06 380.07,378.74 382.41,381.55 	"/>
	<polygon class="Colour8 fill" points="346.12,378.74 343.78,374.06 341.44,378.74 343.78,381.55 	"/>
</g>
<polygon class="Colour9 fill" points="269.39,331.01 284.45,331.01 276.92,346.05 "/>
<polygon class="Colour9 fill" points="280.61,346 290.82,325.62 301.03,346 "/>
<polygon class="Colour9 fill" points="290.82,317.69 319.18,317.69 305,346 "/>
<polygon class="Colour9 fill" points="308.97,346 319.18,325.62 329.38,346 "/>
<polygon class="Colour9 fill" points="332.97,346 325.44,330.96 340.5,330.96 "/>
<polygon class="Colour2 fill" points="258.81,431.87 258.81,447.62 283.56,439.74 "/>
<polygon class="Colour2 fill" points="312.9,431.87 288.15,439.74 312.9,447.62 "/>
<rect x="333.17" y="398.97" class="Colour10 fill" width="21.22" height="1.54"/>
<rect x="294.54" y="398.97" class="Colour10 fill" width="21.22" height="1.54"/>
<path class="Colour7 fill" d="M329.97,366.92l9.54,11.77l-9.54,19.06h27.63l-9.54-19.06l9.54-11.77H329.97z M354.77,396.01h-21.98
	l7.93-15.83l3.06,3.78l3.06-3.78L354.77,396.01z M341.44,378.74l2.34-4.67l2.34,4.67l-2.34,2.82L341.44,378.74z M347.34,377.27
	l-3.56-7.1l-3.56,7.1l-7.43-8.95h21.98L347.34,377.27z"/>
<path class="Colour7 fill" d="M291.34,366.92l9.54,11.77l-9.54,19.06h27.62l-9.54-19.06l9.54-11.77H291.34z M316.15,396.01h-21.98
	l7.93-15.83l3.06,3.78l3.06-3.78L316.15,396.01z M302.82,378.74l2.34-4.67l2.34,4.67l-2.34,2.82L302.82,378.74z M308.71,377.27
	l-3.56-7.1l-3.56,7.1l-7.43-8.95h21.98L308.71,377.27z"/>
<path class="Colour7 fill" d="M252.72,366.92l9.54,11.77l-9.54,19.06h27.63l-9.54-19.06l9.54-11.77H252.72z M277.52,396.01h-21.98
	l7.93-15.83l3.06,3.78l3.06-3.78L277.52,396.01z M264.19,378.74l2.34-4.67l2.34,4.67l-2.34,2.82L264.19,378.74z M270.09,377.27
	l-3.56-7.1l-3.56,7.1l-7.43-8.95h21.98L270.09,377.27z"/>
<rect x="255.92" y="398.97" class="Colour10 fill" width="21.22" height="1.54"/>
<polygon class="Colour10 fill" points="330.2,536.15 338.05,536.15 338.05,496.12 352.14,496.12 352.14,488.28 338.05,488.28 
	338.05,474.21 330.2,474.21 330.2,488.28 316.11,488.28 316.11,496.12 330.2,496.12 "/>
<polygon class="Colour10 fill" points="272.26,536.15 280.11,536.15 280.11,496.12 294.2,496.12 294.2,488.28 280.11,488.28 
	280.11,474.21 272.26,474.21 272.26,488.28 258.17,488.28 258.17,496.12 272.26,496.12 "/>
<path class="Colour3 fill" d="M392.07,546.83l4.35,6.29c-0.21-2.26-0.42-4.53-0.62-6.8l-3.74-5.4l-12.73,18.39
	c1.88-0.49,3.56-0.97,5.08-1.43L392.07,546.83z"/>
<ellipse class="Colour1 fill" cx="363.1" cy="554.11" rx="8.72" ry="8.71"/>
<ellipse class="Colour1 fill" cx="305.16" cy="554.11" rx="8.72" ry="8.71"/>
<polygon class="Colour7 fill" points="367.06,464.6 380.2,464.6 373.63,455.11 "/>
<polygon class="Colour7 fill" points="345.99,464.6 359.13,464.6 352.56,455.11 "/>
<polygon class="Colour7 fill" points="324.92,464.6 338.06,464.6 331.49,455.11 "/>
<polygon class="Colour7 fill" points="303.85,464.6 316.99,464.6 310.42,455.11 "/>
<polygon class="Colour7 fill" points="282.78,464.6 295.92,464.6 289.35,455.11 "/>
<polygon class="Colour7 fill" points="261.71,464.6 274.85,464.6 268.28,455.11 "/>
<polygon class="Colour7 fill" points="247.21,455.11 247.21,464.6 253.79,464.6 "/>
<circle class="Colour6 fill" cx="276.31" cy="356.85" r="3.28"/>
<circle class="Colour6 fill" cx="311.07" cy="356.85" r="3.28"/>
<circle class="Colour6 fill" cx="345.8" cy="356.85" r="3.28"/>
<ellipse class="Colour6 fill" cx="380.56" cy="356.85" rx="3.28" ry="3.28"/>
<rect x="282.18" y="355.76" class="Colour8 fill" width="23.03" height="2.18"/>
<rect x="316.94" y="355.76" class="Colour8 fill" width="23.03" height="2.18"/>
<rect x="351.67" y="355.76" class="Colour8 fill" width="23.03" height="2.18"/>
<polygon class="Colour2 fill" points="336.1,447.62 360.85,439.74 336.1,431.87 "/>
<polygon class="Colour5 fill" points="252.18,431.87 252.18,447.62 276.93,439.74 "/>
<polygon class="Colour5 fill" points="329.47,447.62 354.22,439.74 329.47,431.87 "/>
<polygon class="Colour5 fill" points="319.89,431.87 295.14,439.74 319.89,447.62 "/>
<path class="st3" d="M290.82,317.69L305,346l14.18-28.31H290.82z M293.72,319.48h22.56L305,342L293.72,319.48z"/>
<polygon class="Colour5 fill" points="296.15,320.92 305,338.58 313.84,320.92 "/>
<path class="st3" d="M280.61,346h20.41l-10.21-20.38L280.61,346z M282.7,344.72l8.12-16.22l8.12,16.22H282.7z"/>
<polygon class="Colour5 fill" points="284.45,343.68 297.19,343.68 290.82,330.96 "/>
<path class="st3" d="M308.97,346h20.41l-10.21-20.38L308.97,346z M311.06,344.72l8.12-16.22l8.12,16.22H311.06z"/>
<polygon class="Colour5 fill" points="312.81,343.68 325.54,343.68 319.18,330.96 "/>
<path class="st3" d="M332.97,346l7.53-15.04h-15.06L332.97,346z M332.97,343.88l-5.99-11.97h11.98L332.97,343.88z"/>
<polygon class="Colour5 fill" points="332.97,342.06 337.67,332.68 328.28,332.68 "/>
<path class="st3" d="M269.39,331.01l7.53,15.04l7.53-15.04H269.39z M270.93,331.96h11.98l-5.99,11.97L270.93,331.96z"/>
<polygon class="Colour5 fill" points="272.22,332.72 276.92,342.1 281.62,332.72 "/>
<g>
	<polygon class="Colour2 fill" points="303.06,541.16 307.25,541.16 307.25,519.76 314.78,519.76 314.78,515.57 307.25,515.57 
		307.25,508.05 303.06,508.05 303.06,515.57 295.53,515.57 295.53,519.76 303.06,519.76 	"/>
	<polygon class="Colour2 fill" points="361,541.16 365.2,541.16 365.2,519.76 372.72,519.76 372.72,515.57 365.2,515.57 365.2,508.05 
		361,508.05 361,515.57 353.47,515.57 353.47,519.76 361,519.76 	"/>
	<g>
		<polygon class="Colour2 fill" points="249.31,515.57 249.31,508.05 247.21,508.05 247.21,541.16 249.31,541.16 249.31,519.76 
			256.84,519.76 256.84,515.57 		"/>
	</g>
</g>
<g>
	<rect x="341.8" y="500.75" class="Colour3 fill" width="42.6" height="3.45"/>
	<rect x="283.86" y="500.75" class="Colour3 fill" width="42.6" height="3.45"/>
	<rect x="247.21" y="500.75" class="Colour3 fill" width="21.3" height="3.45"/>
</g>
<g>
	<g>
		<polygon class="Colour9 fill" points="287.52,485.36 292.37,475.67 297.23,485.36 		"/>
		<path class="st3" d="M287.52,485.36h9.71l-4.86-9.7L287.52,485.36z M288.51,484.75l3.86-7.71l3.86,7.71H288.51z"/>
		<polygon class="Colour5 fill" points="289.34,484.26 295.4,484.26 292.37,478.21 		"/>
	</g>
	<g>
		<polygon class="Colour9 fill" points="300.3,485.36 305.16,475.67 310.01,485.36 		"/>
		<path class="st3" d="M300.3,485.36h9.71l-4.86-9.7L300.3,485.36z M301.29,484.75l3.86-7.71l3.86,7.71H301.29z"/>
		<polygon class="Colour5 fill" points="302.13,484.26 308.18,484.26 305.16,478.21 		"/>
	</g>
	<g>
		<polygon class="Colour9 fill" points="313.08,485.36 317.94,475.67 322.79,485.36 		"/>
		<path class="st3" d="M313.08,485.36h9.71l-4.86-9.7L313.08,485.36z M314.08,484.75l3.86-7.71l3.86,7.71H314.08z"/>
		<polygon class="Colour5 fill" points="314.91,484.26 320.97,484.26 317.94,478.21 		"/>
	</g>
</g>
<g>
	<g>
		<polygon class="Colour9 fill" points="345.46,485.36 350.31,475.67 355.17,485.36 		"/>
		<path class="st3" d="M345.46,485.36h9.71l-4.86-9.7L345.46,485.36z M346.45,484.75l3.86-7.71l3.86,7.71H346.45z"/>
		<polygon class="Colour5 fill" points="347.29,484.26 353.34,484.26 350.31,478.21 		"/>
	</g>
	<g>
		<polygon class="Colour9 fill" points="358.24,485.36 363.1,475.67 367.95,485.36 		"/>
		<path class="st3" d="M358.24,485.36h9.71l-4.86-9.7L358.24,485.36z M359.23,484.75l3.86-7.71l3.86,7.71H359.23z"/>
		<polygon class="Colour5 fill" points="360.07,484.26 366.13,484.26 363.1,478.21 		"/>
	</g>
	<g>
		<polygon class="Colour9 fill" points="371.02,485.36 375.88,475.67 380.74,485.36 		"/>
		<path class="st3" d="M371.02,485.36h9.71l-4.86-9.7L371.02,485.36z M372.02,484.75l3.86-7.71l3.86,7.71H372.02z"/>
		<polygon class="Colour5 fill" points="372.85,484.26 378.91,484.26 375.88,478.21 		"/>
	</g>
</g>
<g>
	<path class="Colour9 fill" d="M260,477.04l-3.86,7.71h7.73L260,477.04z M256.97,484.26l3.03-6.05l3.03,6.05H256.97z"/>
	<path class="st3" d="M260,475.67l-4.86,9.7h9.71L260,475.67z M256.13,484.75l3.86-7.71l3.86,7.71H256.13z"/>
	<polygon class="Colour5 fill" points="263.03,484.26 256.97,484.26 260,478.21 	"/>
	<polygon class="Colour9 fill" points="251.08,484.75 247.21,484.75 247.21,484.26 250.24,484.26 247.21,478.21 247.21,478.21 
		247.21,477.04 247.21,477.04 	"/>
	<polygon class="st3" points="251.08,484.75 247.21,477.04 247.21,477.04 247.21,475.67 247.21,475.67 252.07,485.36 247.21,485.36 
		247.21,484.75 	"/>
	<polygon class="Colour5 fill" points="250.24,484.26 247.21,484.26 247.21,478.21 247.21,478.21 	"/>
</g>
<polygon class="Colour1 fill" points="368.15,414.97 365.86,414.97 365.86,412.69 363.57,412.69 363.57,410.4 362.62,410.4 
	362.62,412.69 360.33,412.69 360.33,414.97 358.05,414.97 358.05,417.25 355.76,417.25 355.76,418.2 358.05,418.2 358.05,420.48 
	360.33,420.48 360.33,422.77 362.62,422.77 362.62,425.05 363.57,425.05 363.57,422.77 365.86,422.77 365.86,420.48 368.15,420.48 
	368.15,418.2 370.43,418.2 370.43,417.25 368.15,417.25 "/>
<path class="Colour8 fill" d="M369.48,413.64h-2.29v-2.28h-2.29v-2.28h-3.62v2.28H359v2.28h-2.29v2.28h-2.29v3.61h2.29v2.28l2.29,0v2.28
	l2.29,0v2.28h3.62v-2.28l2.29,0v-2.28h2.29v-2.28h2.29v-3.61h-2.29V413.64z M370.43,417.25v0.95h-2.29v2.28h-2.29v2.28h-2.29v2.28
	h-0.95v-2.28h-2.29v-2.28h-2.29v-2.28h-2.29v-0.95h2.29v-2.28h2.29v-2.28h2.29v-2.28h0.95v2.28h2.29v2.28h2.29v2.28H370.43z"/>
<polygon class="Colour1 fill" points="290.86,414.97 288.57,414.97 288.57,412.69 286.28,412.69 286.28,410.4 285.33,410.4 
	285.33,412.69 283.05,412.69 283.05,414.97 280.76,414.97 280.76,417.25 278.47,417.25 278.47,418.2 280.76,418.2 280.76,420.48 
	283.05,420.48 283.05,422.77 285.33,422.77 285.33,425.05 286.28,425.05 286.28,422.77 288.57,422.77 288.57,420.48 290.86,420.48 
	290.86,418.2 293.14,418.2 293.14,417.25 290.86,417.25 "/>
<path class="Colour8 fill" d="M292.19,413.64h-2.29v-2.28h-2.29v-2.28H284l0,2.28h-2.29v2.28h-2.29v2.28h-2.29v3.61h2.29v2.28l2.29,0
	v2.28l2.29,0v2.28h3.62v-2.28l2.29,0v-2.28h2.29v-2.28h2.29v-3.61h-2.29V413.64z M293.14,417.25v0.95h-2.29v2.28h-2.29v2.28h-2.29
	v2.28h-0.95v-2.28h-2.29v-2.28h-2.29v-2.28h-2.29v-0.95h2.29v-2.28h2.29v-2.28h2.29v-2.28h0.95v2.28h2.29v2.28h2.29v2.28H293.14z"/>
<path class="Colour1 fill" d="M255.93,554.11c0-4.81-3.9-8.71-8.72-8.71v17.41C252.03,562.82,255.93,558.92,255.93,554.11z"/>
<rect x="247.21" y="355.76" class="Colour8 fill" width="23.23" height="2.18"/>
<polygon class="Colour6 fill" points="345.41,290.05 345.41,301.06 358.72,301.06 358.72,314.36 367.47,314.36 367.47,301.06 
	380.79,301.06 380.79,290.05 "/>
<polygon class="Colour6 fill" points="247.21,290.05 247.21,314.36 251.59,314.36 251.59,301.06 264.9,301.06 264.9,290.05 "/>
<polygon class="Colour4 fill" points="354.15,305.63 354.15,318.92 372.04,318.92 372.04,305.63 385.36,305.63 385.36,290.05 
	380.79,290.05 380.79,301.06 367.47,301.06 367.47,314.36 358.72,314.36 358.72,301.06 345.41,301.06 345.41,290.05 340.84,290.05 
	340.84,305.63 "/>
<polygon class="Colour4 fill" points="251.59,301.06 251.59,314.36 247.21,314.36 247.21,318.92 256.16,318.92 256.16,305.63 
	269.48,305.63 269.48,290.05 264.9,290.05 264.9,301.06 "/>
<path class="st2" d="M327.45,235.38h-16.24l8.12,16.22L327.45,235.38z M325.69,236.42l-6.37,12.71l-6.37-12.71H325.69z"/>
<path class="st2" d="M316.43,260.62l-11.28-22.53l-11.28,22.53H316.43z M313.99,259.18H296.3l8.84-17.66L313.99,259.18z"/>
<path class="st2" d="M299.09,235.38h-16.24l8.12,16.22L299.09,235.38z M297.33,236.42l-6.37,12.71l-6.37-12.71H297.33z"/>
<path class="st2" d="M339.22,248.14l-5.99-11.97l-5.99,11.97H339.22z M337.92,247.37h-9.39l4.7-9.38L337.92,247.37z"/>
<path class="Colour1 fill" d="M255.93,25.98c0-4.81-3.9-8.71-8.72-8.71v17.41C252.03,34.69,255.93,30.79,255.93,25.98z"/>
<path class="st2" d="M277.17,236.22l-5.99,11.97h11.98L277.17,236.22z M277.17,238.04l4.7,9.38h-9.39L277.17,238.04z"/>
<g>
	<polygon class="Colour6 fill" points="316.15,211.77 308.71,202.82 305.16,209.93 301.6,202.82 294.17,211.77 	"/>
	<polygon class="Colour6 fill" points="354.77,211.77 347.34,202.82 343.78,209.93 340.23,202.82 332.79,211.77 	"/>
	<polygon class="Colour6 fill" points="270.09,202.82 266.53,209.93 262.97,202.82 255.54,211.77 277.52,211.77 	"/>
	<polygon class="Colour6 fill" points="393.4,211.77 385.97,202.82 382.41,209.93 378.85,202.82 371.42,211.77 	"/>
</g>
<g>
	<polygon class="Colour8 fill" points="302.82,201.36 305.16,206.03 307.5,201.36 305.16,198.54 	"/>
	<polygon class="Colour8 fill" points="264.19,201.36 266.53,206.03 268.87,201.36 266.53,198.54 	"/>
	<polygon class="Colour8 fill" points="341.44,201.36 343.78,206.03 346.12,201.36 343.78,198.54 	"/>
	<polygon class="Colour8 fill" points="380.07,201.36 382.41,206.03 384.75,201.36 382.41,198.54 	"/>
</g>
<g>
	<polygon class="Colour1 fill" points="266.53,196.14 269.59,199.91 277.52,184.09 255.54,184.09 263.46,199.91 	"/>
	<polygon class="Colour1 fill" points="305.16,196.14 308.22,199.91 316.15,184.09 294.17,184.09 302.09,199.91 	"/>
	<polygon class="Colour1 fill" points="343.78,196.14 346.85,199.91 354.77,184.09 332.79,184.09 340.72,199.91 	"/>
	<polygon class="Colour1 fill" points="382.41,196.14 385.47,199.91 393.4,184.09 371.42,184.09 379.35,199.91 	"/>
</g>
<polygon class="Colour9 fill" points="340.75,249.09 325.69,249.09 333.22,234.05 "/>
<polygon class="Colour9 fill" points="329.53,234.09 319.33,254.47 309.12,234.09 "/>
<polygon class="Colour9 fill" points="319.33,262.41 290.97,262.41 305.15,234.09 "/>
<polygon class="Colour9 fill" points="301.18,234.09 290.97,254.47 280.76,234.09 "/>
<polygon class="Colour9 fill" points="277.17,234.09 284.7,249.13 269.64,249.13 "/>
<rect x="255.92" y="179.58" class="Colour10 fill" width="21.22" height="1.54"/>
<rect x="294.54" y="179.58" class="Colour10 fill" width="21.22" height="1.54"/>
<rect x="333.17" y="179.58" class="Colour10 fill" width="21.22" height="1.54"/>
<rect x="371.8" y="179.58" class="Colour10 fill" width="21.22" height="1.54"/>
<path class="Colour7 fill" d="M270.8,201.4l9.54-19.06h-27.63l9.54,19.06l-9.54,11.77h27.63L270.8,201.4z M255.54,184.09h21.98
	l-7.93,15.83l-3.06-3.78l-3.06,3.78L255.54,184.09z M268.87,201.36l-2.34,4.67l-2.34-4.67l2.34-2.82L268.87,201.36z M262.97,202.82
	l3.56,7.1l3.56-7.1l7.43,8.95h-21.98L262.97,202.82z"/>
<path class="Colour7 fill" d="M318.97,213.17l-9.54-11.77l9.54-19.06h-27.63l9.54,19.06l-9.54,11.77H318.97z M294.17,184.09h21.98
	l-7.93,15.83l-3.06-3.78l-3.06,3.78L294.17,184.09z M307.5,201.36l-2.34,4.67l-2.34-4.67l2.34-2.82L307.5,201.36z M301.6,202.82
	l3.56,7.1l3.56-7.1l7.43,8.95h-21.98L301.6,202.82z"/>
<path class="Colour7 fill" d="M357.6,213.17l-9.54-11.77l9.54-19.06h-27.63l9.54,19.06l-9.54,11.77H357.6z M332.79,184.09h21.98
	l-7.93,15.83l-3.06-3.78l-3.06,3.78L332.79,184.09z M346.12,201.36l-2.34,4.67l-2.34-4.67l2.34-2.82L346.12,201.36z M340.23,202.82
	l3.56,7.1l3.56-7.1l7.43,8.95h-21.98L340.23,202.82z"/>
<g>
	<polygon class="Colour10 fill" points="280.11,43.94 272.26,43.94 272.26,83.98 258.17,83.98 258.17,91.82 272.26,91.82 272.26,105.88 
		280.11,105.88 280.11,91.82 294.2,91.82 294.2,83.98 280.11,83.98 	"/>
	<polygon class="Colour10 fill" points="338.05,43.94 330.2,43.94 330.2,83.98 316.11,83.98 316.11,91.82 330.2,91.82 330.2,105.88 
		338.05,105.88 338.05,91.82 352.14,91.82 352.14,83.98 338.05,83.98 	"/>
	<polygon class="Colour10 fill" points="396,43.94 388.14,43.94 388.14,83.98 374.05,83.98 374.05,91.82 388.14,91.82 388.14,105.88 
		396,105.88 396,91.82 410.08,91.82 410.08,83.98 396,83.98 	"/>
</g>
<ellipse class="Colour1 fill" cx="305.16" cy="25.98" rx="8.72" ry="8.71"/>
<polygon class="Colour7 fill" points="253.79,115.49 247.21,115.49 247.22,124.99 "/>
<polygon class="Colour7 fill" points="274.86,115.49 261.71,115.49 268.29,124.99 "/>
<polygon class="Colour7 fill" points="295.93,115.49 282.78,115.49 289.36,124.99 "/>
<polygon class="Colour7 fill" points="317,115.49 303.85,115.49 310.42,124.99 "/>
<polygon class="Colour7 fill" points="338.06,115.49 324.92,115.49 331.49,124.99 "/>
<polygon class="Colour7 fill" points="359.13,115.49 345.99,115.49 352.56,124.99 "/>
<polygon class="Colour7 fill" points="380.2,115.49 367.06,115.49 373.63,124.99 "/>
<polygon class="Colour7 fill" points="401.27,115.49 388.13,115.49 394.7,124.99 "/>
<path class="Colour7 fill" d="M412.46,120.21c0.56-1.6,1.12-3.18,1.69-4.72h-4.95L412.46,120.21z"/>
<circle class="Colour6 fill" cx="380.39" cy="223.25" r="3.28"/>
<ellipse class="Colour6 fill" cx="345.63" cy="223.25" rx="3.28" ry="3.28"/>
<circle class="Colour6 fill" cx="310.87" cy="223.25" r="3.28"/>
<ellipse class="Colour6 fill" cx="276.11" cy="223.25" rx="3.28" ry="3.28"/>
<path class="Colour8 fill" d="M386.23,224.33h8.95c0.04-0.75,0.09-1.47,0.13-2.18h-9.08V224.33z"/>
<rect x="351.49" y="222.16" class="Colour8 fill" width="23.03" height="2.18"/>
<rect x="316.73" y="222.16" class="Colour8 fill" width="23.03" height="2.18"/>
<rect x="281.97" y="222.16" class="Colour8 fill" width="23.03" height="2.18"/>
<polygon class="Colour2 fill" points="390.1,132.48 365.35,140.35 390.1,148.23 "/>
<polygon class="Colour2 fill" points="336.01,148.23 360.76,140.35 336.01,132.48 "/>
<polygon class="Colour2 fill" points="312.9,148.23 312.9,132.48 288.15,140.35 "/>
<polygon class="Colour5 fill" points="396.73,132.48 371.98,140.35 396.73,148.23 "/>
<polygon class="Colour5 fill" points="319.53,148.23 319.53,132.48 294.78,140.35 "/>
<polygon class="Colour2 fill" points="258.81,132.48 258.81,148.23 283.56,140.35 "/>
<polygon class="Colour5 fill" points="329.02,148.23 353.77,140.35 329.02,132.48 "/>
<polygon class="Colour5 fill" points="251.83,132.48 251.83,148.23 276.58,140.35 "/>
<path class="st3" d="M319.33,262.41l-14.18-28.31l-14.18,28.31H319.33z M316.43,260.62h-22.56l11.28-22.53L316.43,260.62z"/>
<polygon class="Colour5 fill" points="313.99,259.18 305.15,241.52 296.3,259.18 "/>
<path class="st3" d="M329.53,234.09h-20.41l10.21,20.38L329.53,234.09z M327.45,235.38l-8.12,16.22l-8.12-16.22H327.45z"/>
<polygon class="Colour5 fill" points="325.69,236.42 312.96,236.42 319.33,249.13 "/>
<path class="st3" d="M301.18,234.09h-20.41l10.21,20.38L301.18,234.09z M299.09,235.38l-8.12,16.22l-8.12-16.22H299.09z"/>
<polygon class="Colour5 fill" points="297.33,236.42 284.6,236.42 290.97,249.13 "/>
<path class="st3" d="M277.17,234.09l-7.53,15.04h15.06L277.17,234.09z M277.17,236.22l5.99,11.97h-11.98L277.17,236.22z"/>
<polygon class="Colour5 fill" points="277.17,238.04 272.48,247.42 281.87,247.42 "/>
<path class="st3" d="M340.75,249.09l-7.53-15.04l-7.53,15.04H340.75z M339.22,248.14h-11.98l5.99-11.97L339.22,248.14z"/>
<polygon class="Colour5 fill" points="337.92,247.37 333.22,237.99 328.53,247.37 "/>
<polygon class="Colour2 fill" points="365.2,38.94 361,38.94 361,60.33 353.47,60.33 353.47,64.52 361,64.52 361,72.04 365.2,72.04 
	365.2,64.52 372.72,64.52 372.72,60.33 365.2,60.33 "/>
<polygon class="Colour2 fill" points="307.25,38.94 303.06,38.94 303.06,60.33 295.53,60.33 295.53,64.52 303.06,64.52 303.06,72.04 
	307.25,72.04 307.25,64.52 314.78,64.52 314.78,60.33 307.25,60.33 "/>
<g>
	<polygon class="Colour2 fill" points="249.31,72.04 249.31,64.52 256.84,64.52 256.84,60.33 249.31,60.33 249.31,38.94 247.21,38.94 
		247.21,72.04 	"/>
</g>
<g>
	<polygon class="Colour9 fill" points="413.11,94.73 408.26,104.43 403.4,94.73 	"/>
	<path class="st3" d="M413.11,94.73h-9.71l4.86,9.7L413.11,94.73z M412.12,95.34l-3.86,7.71l-3.86-7.71H412.12z"/>
	<polygon class="Colour5 fill" points="411.28,95.84 405.23,95.84 408.26,101.88 	"/>
</g>
<g>
	<g>
		<polygon class="Colour9 fill" points="380.74,94.73 375.88,104.43 371.02,94.73 		"/>
		<path class="st3" d="M380.74,94.73h-9.71l4.86,9.7L380.74,94.73z M379.74,95.34l-3.86,7.71l-3.86-7.71H379.74z"/>
		<polygon class="Colour5 fill" points="378.91,95.84 372.85,95.84 375.88,101.88 		"/>
	</g>
	<g>
		<polygon class="Colour9 fill" points="367.95,94.73 363.1,104.43 358.24,94.73 		"/>
		<path class="st3" d="M367.95,94.73h-9.71l4.86,9.7L367.95,94.73z M366.96,95.34l-3.86,7.71l-3.86-7.71H366.96z"/>
		<polygon class="Colour5 fill" points="366.13,95.84 360.07,95.84 363.1,101.88 		"/>
	</g>
	<g>
		<polygon class="Colour9 fill" points="355.17,94.73 350.31,104.43 345.46,94.73 		"/>
		<path class="st3" d="M355.17,94.73h-9.71l4.86,9.7L355.17,94.73z M354.18,95.34l-3.86,7.71l-3.86-7.71H354.18z"/>
		<polygon class="Colour5 fill" points="353.34,95.84 347.29,95.84 350.31,101.88 		"/>
	</g>
</g>
<g>
	<g>
		<polygon class="Colour9 fill" points="322.76,94.73 317.9,104.43 313.05,94.73 		"/>
		<path class="st3" d="M322.76,94.73h-9.71l4.86,9.7L322.76,94.73z M321.76,95.34l-3.86,7.71l-3.86-7.71H321.76z"/>
		<polygon class="Colour5 fill" points="320.93,95.84 314.87,95.84 317.9,101.88 		"/>
	</g>
	<g>
		<polygon class="Colour9 fill" points="309.97,94.73 305.12,104.43 300.26,94.73 		"/>
		<path class="st3" d="M309.97,94.73h-9.71l4.86,9.7L309.97,94.73z M308.98,95.34l-3.86,7.71l-3.86-7.71H308.98z"/>
		<polygon class="Colour5 fill" points="308.15,95.84 302.09,95.84 305.12,101.88 		"/>
	</g>
	<g>
		<polygon class="Colour9 fill" points="297.19,94.73 292.33,104.43 287.48,94.73 		"/>
		<path class="st3" d="M297.19,94.73h-9.71l4.86,9.7L297.19,94.73z M296.2,95.34l-3.86,7.71l-3.86-7.71H296.2z"/>
		<polygon class="Colour5 fill" points="295.36,95.84 289.31,95.84 292.33,101.88 		"/>
	</g>
</g>
<g>
	<path class="Colour9 fill" d="M263.86,95.34h-7.73l3.86,7.71L263.86,95.34z M263.03,95.84l-3.03,6.05l-3.03-6.05H263.03z"/>
	<path class="st3" d="M264.85,94.73h-9.71l4.86,9.7L264.85,94.73z M263.86,95.34l-3.86,7.71l-3.86-7.71H263.86z"/>
	<polygon class="Colour5 fill" points="263.03,95.84 256.97,95.84 260,101.88 	"/>
	<polygon class="Colour9 fill" points="251.08,95.34 247.21,95.34 247.21,95.84 250.24,95.84 247.21,101.88 247.21,101.88 247.21,103.06 
		247.21,103.06 	"/>
	<polygon class="st3" points="251.08,95.34 247.21,103.06 247.21,103.06 247.21,104.43 247.21,104.43 252.07,94.73 247.21,94.73 
		247.21,95.34 	"/>
	<polygon class="Colour5 fill" points="250.24,95.84 247.21,95.84 247.21,101.88 247.21,101.88 	"/>
</g>
<polygon class="Colour1 fill" points="280.82,165.13 283.1,165.13 283.1,167.41 285.39,167.41 285.39,169.69 286.34,169.69 
	286.34,167.41 288.63,167.41 288.63,165.13 290.91,165.13 290.91,162.84 293.2,162.84 293.2,161.89 290.91,161.89 290.91,159.61 
	288.63,159.61 288.63,157.33 286.34,157.33 286.34,155.05 285.39,155.05 285.39,157.33 283.1,157.33 283.1,159.61 280.82,159.61 
	280.82,161.89 278.53,161.89 278.53,162.84 280.82,162.84 "/>
<path class="Colour8 fill" d="M279.48,166.46h2.29v2.28h2.29v2.28h3.62v-2.28h2.29v-2.28h2.29v-2.28h2.29v-3.61h-2.29v-2.28l-2.29,0V156
	l-2.29,0v-2.28h-3.62V156l-2.29,0v2.28h-2.29v2.28h-2.29v3.61h2.29V166.46z M278.53,162.84v-0.95h2.29v-2.28h2.29v-2.28h2.29v-2.28
	h0.95v2.28h2.29v2.28h2.29v2.28h2.29v0.95h-2.29v2.28h-2.29v2.28h-2.29v2.28h-0.95v-2.28h-2.29v-2.28h-2.29v-2.28H278.53z"/>
<polygon class="Colour1 fill" points="358.05,165.13 360.33,165.13 360.33,167.41 362.62,167.41 362.62,169.69 363.57,169.69 
	363.57,167.41 365.86,167.41 365.86,165.13 368.15,165.13 368.15,162.84 370.43,162.84 370.43,161.89 368.15,161.89 368.15,159.61 
	365.86,159.61 365.86,157.33 363.57,157.33 363.57,155.05 362.62,155.05 362.62,157.33 360.33,157.33 360.33,159.61 358.05,159.61 
	358.05,161.89 355.76,161.89 355.76,162.84 358.05,162.84 "/>
<path class="Colour8 fill" d="M356.72,166.46H359v2.28h2.29v2.28h3.62v-2.28h2.29v-2.28h2.29v-2.28h2.29v-3.61h-2.29v-2.28l-2.29,0V156
	l-2.29,0v-2.28h-3.62V156l-2.29,0v2.28h-2.29v2.28h-2.29v3.61h2.29V166.46z M355.76,162.84v-0.95h2.29v-2.28h2.29v-2.28h2.29v-2.28
	h0.95v2.28h2.29v2.28h2.29v2.28h2.29v0.95h-2.29v2.28h-2.29v2.28h-2.29v2.28h-0.95v-2.28h-2.29v-2.28h-2.29v-2.28H355.76z"/>
<polygon class="Colour6 fill" points="264.9,290.05 264.9,279.03 251.59,279.03 251.59,265.74 247.21,265.74 247.21,290.05 "/>
<polygon class="Colour6 fill" points="380.79,290.05 380.79,279.03 367.47,279.03 367.47,265.74 358.72,265.74 358.72,279.03 
	345.41,279.03 345.41,290.05 "/>
<polygon class="Colour4 fill" points="372.04,274.47 372.04,261.17 354.15,261.17 354.15,274.47 340.84,274.47 340.84,290.05 
	345.41,290.05 345.41,279.03 358.72,279.03 358.72,265.74 367.47,265.74 367.47,279.03 380.79,279.03 380.79,290.05 385.36,290.05 
	385.36,274.47 "/>
<polygon class="Colour4 fill" points="256.16,274.47 256.16,261.17 247.21,261.17 247.21,265.74 251.59,265.74 251.59,279.03 
	264.9,279.03 264.9,290.05 269.48,290.05 269.48,274.47 "/>
<g>
	<path class="Colour2 fill" d="M393.36,256.99v1.26c0.11-2.38,0.23-4.69,0.34-6.93h-11.21v-16.53H343.7v16.53h-16.55v16.53h-16.55v16.53
		h-10.87v-16.53h-16.55l0-16.53h-16.55v-16.53h-19.4v5.67h13.71v16.53h16.55v16.53h16.55v16.53l22.24,0v-16.53h16.55v-16.53h16.55
		v-16.53h27.43v16.53H393.36z"/>
</g>
<rect x="247.21" y="222.16" class="Colour8 fill" width="23.03" height="2.18"/>
<path class="st2" d="M223.5,248.14l-5.99-11.97l-5.99,11.97H223.5z M222.2,247.37h-9.39l4.7-9.38L222.2,247.37z"/>
<path class="st2" d="M200.71,260.62l-11.28-22.53l-11.28,22.53H200.71z M198.27,259.18h-17.69l8.84-17.66L198.27,259.18z"/>
<path class="Colour1 fill" d="M288.41,15.6c-1.28,0.22-2.6,0.43-3.94,0.63l-8.29,11.97l-7.03-10.16c-1.09,0.09-2.2,0.18-3.32,0.26
	l10.36,14.97L288.41,15.6z"/>
<path class="Colour1 fill" d="M228.63,18.26c-1.12-0.08-2.23-0.17-3.32-0.27l-7.07,10.21l-8.35-12.07c-1.35-0.21-2.66-0.43-3.95-0.65
	l12.31,17.78L228.63,18.26z"/>
<path class="Colour1 fill" d="M177.44,8.51c-1.12-0.37-2.07-0.7-2.83-0.98L160.3,28.21l-9.16-13.24c-0.89,0.36-1.8,0.73-2.73,1.11
	l11.9,17.19L177.44,8.51z"/>
<path class="st2" d="M211.73,235.38h-16.24l8.12,16.22L211.73,235.38z M209.98,236.42l-6.37,12.71l-6.37-12.71H209.98z"/>
<path class="st2" d="M183.37,235.38h-16.24l8.12,16.22L183.37,235.38z M181.62,236.42l-6.37,12.71l-6.37-12.71H181.62z"/>
<path class="st2" d="M161.46,236.22l-5.99,11.97h11.98L161.46,236.22z M161.46,238.04l4.7,9.38h-9.39L161.46,238.04z"/>
<g>
	<polygon class="Colour6 fill" points="238.89,211.77 231.46,202.82 227.9,209.93 224.34,202.82 216.91,211.77 	"/>
	<polygon class="Colour6 fill" points="200.26,211.77 192.83,202.82 189.27,209.93 185.72,202.82 178.28,211.77 	"/>
	<polygon class="Colour6 fill" points="123.01,211.77 115.58,202.82 112.02,209.93 108.46,202.82 101.03,211.77 	"/>
	<polygon class="Colour6 fill" points="161.64,211.77 154.2,202.82 150.65,209.93 147.09,202.82 139.66,211.77 	"/>
</g>
<g>
	<polygon class="Colour8 fill" points="225.56,201.36 227.9,206.03 230.24,201.36 227.9,198.54 	"/>
	<polygon class="Colour8 fill" points="186.93,201.36 189.27,206.03 191.61,201.36 189.27,198.54 	"/>
	<polygon class="Colour8 fill" points="109.68,201.36 112.02,206.03 114.36,201.36 112.02,198.54 	"/>
	<polygon class="Colour8 fill" points="148.3,201.36 150.65,206.03 152.99,201.36 150.65,198.54 	"/>
</g>
<polygon class="Colour1 fill" points="227.9,196.14 230.96,199.91 238.89,184.09 216.91,184.09 224.84,199.91 "/>
<polygon class="Colour1 fill" points="189.27,196.14 192.34,199.91 200.26,184.09 178.28,184.09 186.21,199.91 "/>
<polygon class="Colour1 fill" points="112.02,196.14 115.08,199.91 123.01,184.09 101.03,184.09 108.95,199.91 "/>
<polygon class="Colour1 fill" points="150.65,196.14 153.71,199.91 161.64,184.09 139.66,184.09 147.58,199.91 "/>
<polygon class="Colour9 fill" points="225.04,249.09 209.98,249.09 217.51,234.05 "/>
<polygon class="Colour9 fill" points="213.82,234.09 203.61,254.47 193.4,234.09 "/>
<polygon class="Colour9 fill" points="203.61,262.41 175.25,262.41 189.43,234.09 "/>
<polygon class="Colour9 fill" points="185.46,234.09 175.25,254.47 165.04,234.09 "/>
<polygon class="Colour9 fill" points="161.46,234.09 168.99,249.13 153.93,249.13 "/>
<polygon class="Colour2 fill" points="235.62,148.23 235.62,132.48 210.87,140.35 "/>
<polygon class="Colour2 fill" points="181.53,148.23 206.28,140.35 181.53,132.48 "/>
<rect x="101.41" y="179.58" class="Colour10 fill" width="21.22" height="1.54"/>
<rect x="140.03" y="179.58" class="Colour10 fill" width="21.22" height="1.54"/>
<rect x="178.66" y="179.58" class="Colour10 fill" width="21.22" height="1.54"/>
<rect x="217.29" y="179.58" class="Colour10 fill" width="21.22" height="1.54"/>
<polygon class="Colour10 fill" points="106.29,43.94 98.43,43.94 98.43,83.98 84.35,83.98 84.35,91.82 98.43,91.82 98.43,105.88 
	106.29,105.88 106.29,91.82 120.37,91.82 120.37,83.98 106.29,83.98 "/>
<polygon class="Colour10 fill" points="164.23,43.94 156.37,43.94 156.37,83.98 142.29,83.98 142.29,91.82 156.37,91.82 156.37,105.88 
	164.23,105.88 164.23,91.82 178.32,91.82 178.32,83.98 164.23,83.98 "/>
<polygon class="Colour10 fill" points="222.17,43.94 214.32,43.94 214.32,83.98 200.23,83.98 200.23,91.82 214.32,91.82 214.32,105.88 
	222.17,105.88 222.17,91.82 236.26,91.82 236.26,83.98 222.17,83.98 "/>
<path class="Colour2 fill" d="M284.47,16.23c-4.75,0.72-9.87,1.34-15.32,1.81l7.03,10.16L284.47,16.23z"/>
<path class="Colour2 fill" d="M225.31,18c-5.49-0.48-10.65-1.12-15.42-1.86l8.35,12.07L225.31,18z"/>
<path class="Colour2 fill" d="M151.14,14.97l9.16,13.24l14.31-20.68c-1.49-0.54-2.27-0.86-2.27-0.86l-0.12-0.01
	C172.22,6.66,163.64,9.9,151.14,14.97z"/>
<ellipse class="Colour1 fill" cx="189.27" cy="25.98" rx="8.72" ry="8.71"/>
<polygon class="Colour7 fill" points="106.3,115.49 93.16,115.49 99.73,124.99 "/>
<polygon class="Colour7 fill" points="127.37,115.49 114.23,115.49 120.8,124.99 "/>
<polygon class="Colour7 fill" points="148.44,115.49 135.3,115.49 141.87,124.99 "/>
<polygon class="Colour7 fill" points="169.51,115.49 156.37,115.49 162.94,124.99 "/>
<polygon class="Colour7 fill" points="190.58,115.49 177.44,115.49 184.01,124.99 "/>
<polygon class="Colour7 fill" points="211.65,115.49 198.5,115.49 205.08,124.99 "/>
<polygon class="Colour7 fill" points="232.72,115.49 219.57,115.49 226.14,124.99 "/>
<polygon class="Colour7 fill" points="247.21,124.99 247.21,115.49 240.64,115.49 "/>
<g>
	<path class="Colour2 fill" d="M247.21,113.66v-2.52H79.23c0.32,0.83,0.64,1.67,0.96,2.52H247.21z"/>
</g>
<circle class="Colour6 fill" cx="218.12" cy="223.25" r="3.28"/>
<circle class="Colour6 fill" cx="183.36" cy="223.25" r="3.28"/>
<circle class="Colour6 fill" cx="148.62" cy="223.25" r="3.28"/>
<ellipse class="Colour6 fill" cx="113.87" cy="223.25" rx="3.28" ry="3.28"/>
<rect x="189.22" y="222.16" class="Colour8 fill" width="23.03" height="2.18"/>
<rect x="154.46" y="222.16" class="Colour8 fill" width="23.03" height="2.18"/>
<rect x="119.72" y="222.16" class="Colour8 fill" width="23.03" height="2.18"/>
<polygon class="Colour2 fill" points="158.33,132.48 133.58,140.35 158.33,148.23 "/>
<polygon class="Colour2 fill" points="104.24,148.23 128.99,140.35 104.24,132.48 "/>
<polygon class="Colour5 fill" points="242.25,148.23 242.25,132.48 217.5,140.35 "/>
<polygon class="Colour5 fill" points="164.96,132.48 140.21,140.35 164.96,148.23 "/>
<polygon class="Colour5 fill" points="174.54,148.23 199.29,140.35 174.54,132.48 "/>
<polygon class="Colour5 fill" points="97.26,148.23 122.01,140.35 97.26,132.48 "/>
<path class="Colour5 fill" d="M101.46,237.99l-0.75,1.49c0.14,2.51,0.27,5.15,0.41,7.89h5.03L101.46,237.99z"/>
<path class="st3" d="M101.46,234.05l-0.94,1.88c0.03,0.63,0.07,1.27,0.11,1.91l0.83-1.67l5.99,11.97h-6.28
	c0.02,0.31,0.03,0.63,0.05,0.95h7.77L101.46,234.05z"/>
<path class="Colour9 fill" d="M101.46,234.05l-0.94,1.88c0.22,4.05,0.46,8.45,0.7,13.16h7.77L101.46,234.05z"/>
<path class="st3" d="M203.61,262.41l-14.18-28.31l-14.18,28.31H203.61z M200.71,260.62h-22.56l11.28-22.53L200.71,260.62z"/>
<polygon class="Colour5 fill" points="198.27,259.18 189.43,241.52 180.59,259.18 "/>
<path class="st3" d="M213.82,234.09H193.4l10.21,20.38L213.82,234.09z M211.73,235.38l-8.12,16.22l-8.12-16.22H211.73z"/>
<polygon class="Colour5 fill" points="209.98,236.42 197.24,236.42 203.61,249.13 "/>
<path class="st3" d="M185.46,234.09h-20.41l10.21,20.38L185.46,234.09z M183.37,235.38l-8.12,16.22l-8.12-16.22H183.37z"/>
<polygon class="Colour5 fill" points="181.62,236.42 168.88,236.42 175.25,249.13 "/>
<path class="st3" d="M161.46,234.09l-7.53,15.04h15.06L161.46,234.09z M161.46,236.22l5.99,11.97h-11.98L161.46,236.22z"/>
<polygon class="Colour5 fill" points="161.46,238.04 156.76,247.42 166.15,247.42 "/>
<path class="st3" d="M225.04,249.09l-7.53-15.04l-7.53,15.04H225.04z M223.5,248.14h-11.98l5.99-11.97L223.5,248.14z"/>
<polygon class="Colour5 fill" points="222.2,247.37 217.51,237.99 212.81,247.37 "/>
<polygon class="Colour2 fill" points="191.37,38.94 187.17,38.94 187.17,60.33 179.65,60.33 179.65,64.52 187.17,64.52 187.17,72.04 
	191.37,72.04 191.37,64.52 198.9,64.52 198.9,60.33 191.37,60.33 "/>
<polygon class="Colour2 fill" points="133.43,38.94 129.23,38.94 129.23,60.33 121.7,60.33 121.7,64.52 129.23,64.52 129.23,72.04 
	133.43,72.04 133.43,64.52 140.96,64.52 140.96,60.33 133.43,60.33 "/>
<g>
	<polygon class="Colour2 fill" points="245.12,64.52 245.12,72.04 247.21,72.04 247.21,38.94 245.12,38.94 245.12,60.33 237.59,60.33 
		237.59,64.52 	"/>
</g>
<rect x="110.03" y="75.9" class="Colour3 fill" width="42.6" height="3.45"/>
<rect x="167.97" y="75.9" class="Colour3 fill" width="42.6" height="3.45"/>
<rect x="225.92" y="75.9" class="Colour3 fill" width="21.3" height="3.45"/>
<g>
	<polygon class="Colour9 fill" points="206.91,94.73 202.06,104.43 197.2,94.73 	"/>
	<path class="st3" d="M206.91,94.73h-9.71l4.86,9.7L206.91,94.73z M205.92,95.34l-3.86,7.71l-3.86-7.71H205.92z"/>
	<polygon class="Colour5 fill" points="205.08,95.84 199.03,95.84 202.06,101.88 	"/>
</g>
<g>
	<polygon class="Colour9 fill" points="194.13,94.73 189.27,104.43 184.42,94.73 	"/>
	<path class="st3" d="M194.13,94.73h-9.71l4.86,9.7L194.13,94.73z M193.14,95.34l-3.86,7.71l-3.86-7.71H193.14z"/>
	<polygon class="Colour5 fill" points="192.3,95.84 186.24,95.84 189.27,101.88 	"/>
</g>
<g>
	<polygon class="Colour9 fill" points="181.35,94.73 176.49,104.43 171.64,94.73 	"/>
	<path class="st3" d="M181.35,94.73h-9.71l4.86,9.7L181.35,94.73z M180.35,95.34l-3.86,7.71l-3.86-7.71H180.35z"/>
	<polygon class="Colour5 fill" points="179.52,95.84 173.46,95.84 176.49,101.88 	"/>
</g>
<g>
	<polygon class="Colour9 fill" points="148.97,94.73 144.11,104.43 139.26,94.73 	"/>
	<path class="st3" d="M148.97,94.73h-9.71l4.86,9.7L148.97,94.73z M147.98,95.34l-3.86,7.71l-3.86-7.71H147.98z"/>
	<polygon class="Colour5 fill" points="147.14,95.84 141.09,95.84 144.11,101.88 	"/>
</g>
<g>
	<polygon class="Colour9 fill" points="136.19,94.73 131.33,104.43 126.48,94.73 	"/>
	<path class="st3" d="M136.19,94.73h-9.71l4.86,9.7L136.19,94.73z M135.19,95.34l-3.86,7.71l-3.86-7.71H135.19z"/>
	<polygon class="Colour5 fill" points="134.36,95.84 128.3,95.84 131.33,101.88 	"/>
</g>
<g>
	<polygon class="Colour9 fill" points="123.4,94.73 118.55,104.43 113.69,94.73 	"/>
	<path class="st3" d="M123.4,94.73h-9.71l4.86,9.7L123.4,94.73z M122.41,95.34l-3.86,7.71l-3.86-7.71H122.41z"/>
	<polygon class="Colour5 fill" points="121.58,95.84 115.52,95.84 118.55,101.88 	"/>
</g>
<polygon class="Colour9 fill" points="90.99,94.73 86.13,104.43 81.28,94.73 "/>
<path class="st3" d="M90.99,94.73h-9.71l4.86,9.7L90.99,94.73z M90,95.34l-3.86,7.71l-3.86-7.71H90z"/>
<polygon class="Colour5 fill" points="89.16,95.84 83.11,95.84 86.13,101.88 "/>
<g>
	<path class="Colour9 fill" d="M234.43,103.06l3.86-7.71h-7.73L234.43,103.06z M237.46,95.84l-3.03,6.05l-3.03-6.05H237.46z"/>
	<path class="st3" d="M234.43,104.43l4.86-9.7h-9.71L234.43,104.43z M238.29,95.34l-3.86,7.71l-3.86-7.71H238.29z"/>
	<polygon class="Colour5 fill" points="231.4,95.84 237.46,95.84 234.43,101.88 	"/>
	<polygon class="Colour9 fill" points="243.35,95.34 247.21,95.34 247.21,95.84 244.19,95.84 247.21,101.88 247.21,101.88 247.21,103.06 
		247.21,103.06 	"/>
	<polygon class="st3" points="243.35,95.34 247.21,103.06 247.21,103.06 247.21,104.43 247.21,104.43 242.36,94.73 247.21,94.73 
		247.21,95.34 	"/>
	<polygon class="Colour5 fill" points="244.19,95.84 247.21,95.84 247.21,101.88 247.21,101.88 	"/>
</g>
<polygon class="Colour1 fill" points="126.28,165.13 128.57,165.13 128.57,167.41 130.86,167.41 130.86,169.69 131.81,169.69 
	131.81,167.41 134.09,167.41 134.09,165.13 136.38,165.13 136.38,162.84 138.67,162.84 138.67,161.89 136.38,161.89 136.38,159.61 
	134.09,159.61 134.09,157.33 131.81,157.33 131.81,155.05 130.86,155.05 130.86,157.33 128.57,157.33 128.57,159.61 126.28,159.61 
	126.28,161.89 124,161.89 124,162.84 126.28,162.84 "/>
<path class="Colour8 fill" d="M124.95,166.46h2.29v2.28h2.29v2.28h3.62v-2.28h2.29v-2.28h2.29v-2.28H140v-3.61h-2.29v-2.28l-2.29,0V156
	l-2.29,0v-2.28h-3.62V156l-2.29,0v2.28h-2.29v2.28h-2.29v3.61h2.29V166.46z M124,162.84v-0.95h2.29v-2.28h2.29v-2.28h2.29v-2.28
	h0.95v2.28h2.29v2.28h2.29v2.28h2.29v0.95h-2.29v2.28h-2.29v2.28h-2.29v2.28h-0.95v-2.28h-2.29v-2.28h-2.29v-2.28H124z"/>
<polygon class="Colour1 fill" points="203.57,165.13 205.86,165.13 205.86,167.41 208.15,167.41 208.15,169.69 209.1,169.69 
	209.1,167.41 211.38,167.41 211.38,165.13 213.67,165.13 213.67,162.84 215.96,162.84 215.96,161.89 213.67,161.89 213.67,159.61 
	211.38,159.61 211.38,157.33 209.1,157.33 209.1,155.05 208.15,155.05 208.15,157.33 205.86,157.33 205.86,159.61 203.57,159.61 
	203.57,161.89 201.29,161.89 201.29,162.84 203.57,162.84 "/>
<path class="Colour8 fill" d="M202.24,166.46h2.29v2.28h2.29v2.28h3.62l0-2.28h2.29v-2.28H215v-2.28h2.29v-3.61H215v-2.28l-2.29,0V156
	l-2.29,0v-2.28h-3.62V156l-2.29,0v2.28h-2.29v2.28h-2.29v3.61h2.29V166.46z M201.29,162.84v-0.95h2.29v-2.28h2.29v-2.28h2.29v-2.28
	h0.95v2.28h2.29v2.28h2.29v2.28h2.29v0.95h-2.29v2.28h-2.29v2.28h-2.29v2.28h-0.95v-2.28h-2.29v-2.28h-2.29v-2.28H201.29z"/>
<path class="Colour1 fill" d="M238.49,25.98c0,4.81,3.9,8.71,8.72,8.71V17.28C242.4,17.28,238.49,21.18,238.49,25.98z"/>
<rect x="223.98" y="222.16" class="Colour8 fill" width="23.23" height="2.18"/>
<polygon class="Colour6 fill" points="149.02,290.05 149.02,279.03 135.7,279.03 135.7,265.74 126.96,265.74 126.96,279.03 
	113.64,279.03 113.64,290.05 "/>
<polygon class="Colour6 fill" points="247.21,290.05 247.21,265.74 242.84,265.74 242.84,279.03 229.52,279.03 229.52,290.05 "/>
<polygon class="Colour4 fill" points="140.28,274.47 140.28,261.17 122.39,261.17 122.39,274.47 109.07,274.47 109.07,290.05 
	113.64,290.05 113.64,279.03 126.96,279.03 126.96,265.74 135.7,265.74 135.7,279.03 149.02,279.03 149.02,290.05 153.59,290.05 
	153.59,274.47 "/>
<polygon class="Colour4 fill" points="242.84,279.03 242.84,265.74 247.21,265.74 247.21,261.17 238.27,261.17 238.27,274.47 
	224.95,274.47 224.95,290.05 229.52,290.05 229.52,279.03 "/>
<path class="Colour2 fill" d="M411.41,60.33v4.19h7.53v7.52h4.2v-7.52h7.53v-4.19h-7.53v-8.26c-1.34-0.82-2.74-1.64-4.2-2.47v10.73
	H411.41z"/>
<path class="Colour3 fill" d="M393.8,36.67c-1.7-0.81-3.42-1.61-5.14-2.41l3.41,4.92L393.8,36.67z"/>
<rect x="341.8" y="75.9" class="Colour3 fill" width="42.6" height="3.45"/>
<path class="Colour5 fill" d="M420.25,100.31c0.67-1.54,1.34-3.03,2-4.47h-4.24L420.25,100.31z"/>
<path class="st3" d="M419.66,101.67c0.11-0.25,0.21-0.49,0.32-0.74l-2.8-5.6h5.3c0.09-0.2,0.19-0.41,0.28-0.61h-6.57L419.66,101.67z
	"/>
<g>
	<path class="Colour2 fill" d="M247.21,111.14v2.52h167.62c0.32-0.85,0.64-1.69,0.96-2.52H247.21z"/>
</g>
<path class="Colour5 fill" d="M408.29,133.11l-1.98-0.63v7.6C406.95,137.71,407.61,135.39,408.29,133.11z"/>
<path class="Colour7 fill" d="M368.6,182.34l9.54,19.06l-9.54,11.77h27.28c0.01-0.13,0.02-0.27,0.03-0.4l-9.22-11.37l9.54-19.06H368.6z
	 M393.4,211.77h-21.98l7.43-8.95l3.56,7.1l3.56-7.1L393.4,211.77z M380.07,201.36l2.34-2.82l2.34,2.82l-2.34,4.67L380.07,201.36z
	 M385.47,199.91l-3.06-3.78l-3.06,3.78l-7.93-15.83h21.98L385.47,199.91z"/>
<path class="st3" d="M385.69,249.13h8.12c0.02-0.32,0.03-0.64,0.05-0.95h-6.63l5.99-11.97l1.15,2.29c0.04-0.65,0.07-1.28,0.1-1.91
	l-1.25-2.5L385.69,249.13z"/>
<path class="Colour5 fill" d="M393.22,238.03l-4.7,9.38h5.37c0.13-2.52,0.26-4.94,0.38-7.27L393.22,238.03z"/>
<path class="Colour9 fill" d="M393.22,234.09l-7.53,15.04h8.12c0.23-4.48,0.45-8.66,0.66-12.54L393.22,234.09z"/>
<g>
	<path class="Colour2 fill" d="M376.81,323.11v16.53h-27.43v-16.53h-16.55l0-16.53h-16.55v-16.53l-22.24,0v16.53h-16.55v16.53h-16.55
		l0,16.53h-13.71v5.67h19.4v-16.53h16.55l0-16.53h16.55v-16.53h10.87v16.53h16.55v16.53h16.55v16.53h38.79v-16.53h8.35
		c0.05-1.91,0.09-3.8,0.14-5.67H376.81z"/>
</g>
<path class="st3" d="M390.57,341.25c0.01-0.68,0.03-1.36,0.04-2.04l-3.63-7.25h3.79c0.01-0.32,0.01-0.63,0.02-0.95h-5.35
	L390.57,341.25z"/>
<path class="Colour5 fill" d="M390.65,337.46c0.03-1.59,0.07-3.17,0.1-4.74h-2.48L390.65,337.46z"/>
<path class="Colour9 fill" d="M390.57,341.25c0.07-3.45,0.14-6.87,0.22-10.24h-5.35L390.57,341.25z"/>
<path class="Colour8 fill" d="M386.43,357.94h3.86c0.01-0.73,0.02-1.45,0.03-2.18h-3.89V357.94z"/>
<path class="Colour7 fill" d="M378.14,378.69l-9.54,19.06h21.43c0-0.58,0-1.16,0-1.74h-18.61l7.93-15.83l3.06,3.78l3.06-3.78l4.56,9.1
	c0-1.29,0.01-2.58,0.01-3.87l-3.36-6.71l3.43-4.22c0.01-0.73,0.01-1.47,0.02-2.2l-4.15,5l-3.56-7.1l-3.56,7.1l-7.43-8.95h18.74
	c0-0.47,0.01-0.93,0.01-1.4H368.6L378.14,378.69z M382.41,374.06l2.34,4.67l-2.34,2.82l-2.34-2.82L382.41,374.06z"/>
<path class="Colour10 fill" d="M371.8,400.51h18.23c0-0.51,0-1.03,0-1.54H371.8V400.51z"/>
<path class="Colour5 fill" d="M390.58,445.52c-0.09-3.83-0.16-7.66-0.23-11.48l-17.93,5.7L390.58,445.52z"/>
<path class="Colour7 fill" d="M391.1,464.6c-0.04-1.37-0.09-2.74-0.13-4.11l-2.84,4.11H391.1z"/>
<g>
	<path class="Colour2 fill" d="M247.21,466.44v2.52h144.03c-0.03-0.84-0.06-1.68-0.09-2.52H247.21z"/>
</g>
<path class="Colour10 fill" d="M394.96,536.15c-1.6-20.28-2.75-41.1-3.53-61.94h-3.29v14.06h-14.09v7.84h14.09v40.03H394.96z"/>
<path class="Colour2 fill" d="M392.07,551.89l-3.14,4.53c2.16-0.76,3.78-1.41,4.94-1.93L392.07,551.89z"/>
<path class="Colour1 fill" d="M392.07,551.89l1.8,2.6c1.84-0.83,2.56-1.31,2.56-1.31c0-0.02,0-0.04-0.01-0.06l-4.35-6.29l-7.65,11.06
	c1.72-0.52,3.22-1.01,4.51-1.46L392.07,551.89z"/>
<path class="Colour3 fill" d="M334.13,546.83l13.03,18.82c1.27-0.19,2.49-0.38,3.69-0.57l-16.72-24.16l-19.88,28.73
	c1.49-0.15,2.96-0.29,4.4-0.44L334.13,546.83z"/>
<path class="Colour1 fill" d="M334.13,551.89l9.85,14.23c1.08-0.16,2.14-0.31,3.18-0.47l-13.03-18.82l-15.49,22.38
	c1.28-0.13,2.54-0.26,3.78-0.4L334.13,551.89z"/>
<path class="Colour2 fill" d="M334.13,551.89l-11.71,16.91c7.97-0.86,15.14-1.77,21.55-2.69L334.13,551.89z"/>
<path class="Colour3 fill" d="M253.46,573.75c1.43-0.06,2.82-0.13,4.22-0.19l18.5-26.74l17.04,24.62c1.31-0.1,2.61-0.2,3.88-0.3
	l-20.92-30.23L253.46,573.75z"/>
<path class="Colour1 fill" d="M276.19,551.89l13.7,19.8c1.13-0.08,2.23-0.16,3.33-0.25l-17.04-24.62l-18.5,26.74
	c1.22-0.06,2.43-0.11,3.62-0.17L276.19,551.89z"/>
<path class="Colour2 fill" d="M276.19,551.89l-14.88,21.5c10.26-0.5,19.78-1.07,28.58-1.7L276.19,551.89z"/>
<path class="Colour3 fill" d="M197.35,571.1c1.28,0.1,2.57,0.2,3.88,0.3l17.01-24.58l18.48,26.71c1.4,0.06,2.8,0.13,4.22,0.19
	l-22.71-32.81L197.35,571.1z"/>
<path class="Colour1 fill" d="M201.24,571.4c1.1,0.08,2.21,0.17,3.33,0.25l13.67-19.76l14.86,21.47c1.2,0.06,2.4,0.12,3.63,0.17
	l-18.48-26.71L201.24,571.4z"/>
<path class="Colour2 fill" d="M204.57,571.65c8.79,0.63,18.29,1.21,28.53,1.71l-14.86-21.47L204.57,571.65z"/>
<path class="Colour3 fill" d="M143.64,564.99c1.2,0.19,2.43,0.38,3.69,0.58l12.97-18.74l15.44,22.31c1.44,0.15,2.91,0.3,4.4,0.44
	l-19.84-28.67L143.64,564.99z"/>
<path class="Colour1 fill" d="M147.33,565.57c1.04,0.16,2.1,0.31,3.18,0.47l9.79-14.15l11.66,16.85c1.24,0.14,2.5,0.27,3.78,0.4
	l-15.44-22.31L147.33,565.57z"/>
<path class="Colour2 fill" d="M150.51,566.04c6.38,0.92,13.51,1.83,21.45,2.7l-11.66-16.85L150.51,566.04z"/>
<path class="Colour1 fill" d="M140.05,554.11c0-4.81-3.9-8.71-8.72-8.71s-8.72,3.9-8.72,8.71c0,3.64,2.25,6.76,5.43,8.06
	c1.04,0.21,2.13,0.43,3.24,0.64c0.02,0,0.04,0,0.05,0C136.15,562.82,140.05,558.92,140.05,554.11z"/>
<path class="Colour2 fill" d="M100.7,554.28c1.05,0.49,2.55,1.12,4.6,1.86l-2.94-4.25L100.7,554.28z"/>
<path class="Colour2 fill" d="M343.42,14.78c-12.25-4.96-20.61-8.12-20.61-8.12l-0.12,0.01c0,0-0.96,0.39-2.75,1.03l14.19,20.51
	L343.42,14.78z"/>
<path class="Colour1 fill" d="M346.15,15.89c-0.93-0.38-1.85-0.75-2.74-1.11l-9.29,13.43L319.93,7.7c-0.79,0.28-1.73,0.6-2.83,0.97
	l17.03,24.6L346.15,15.89z"/>
<path class="Colour3 fill" d="M349.34,17.19c-1.09-0.45-2.15-0.88-3.19-1.3l-12.03,17.38L317.1,8.67c-0.99,0.33-2.12,0.68-3.36,1.06
	l20.38,29.46L349.34,17.19z"/>
<path class="Colour3 fill" d="M100.77,36.88l1.59,2.3l3.12-4.51C103.9,35.4,102.33,36.14,100.77,36.88z"/>
<path class="Colour3 fill" d="M180.79,9.58c-1.25-0.38-2.37-0.74-3.35-1.07L160.3,33.27l-11.9-17.19c-1.04,0.43-2.1,0.86-3.19,1.3
	l15.08,21.8L180.79,9.58z"/>
<path class="Colour3 fill" d="M293.09,14.76c-1.51,0.29-3.07,0.57-4.67,0.84l-12.23,17.67L265.83,18.3c-1.29,0.09-2.6,0.17-3.92,0.25
	l14.28,20.63L293.09,14.76z"/>
<path class="Colour3 fill" d="M232.54,18.52c-1.32-0.08-2.63-0.16-3.91-0.26l-10.39,15.01l-12.31-17.78c-1.61-0.28-3.17-0.56-4.68-0.86
	l16.99,24.55L232.54,18.52z"/>
<path class="Colour2 fill" d="M71.29,52.44v7.9h-7.53v4.19h7.53v7.52h4.2v-7.52h7.53v-4.19h-7.53V49.94
	C74.03,50.78,72.63,51.62,71.29,52.44z"/>
<path class="Colour3 fill" d="M94.69,75.9H62.62c0.61,1.08,1.26,2.22,1.93,3.45h30.15V75.9z"/>
<path class="Colour5 fill" d="M76.38,95.84h-3.6c0.56,1.23,1.13,2.5,1.7,3.8L76.38,95.84z"/>
<path class="st3" d="M77.21,95.34l-2.46,4.92c0.11,0.24,0.21,0.49,0.32,0.73l3.13-6.26h-5.93c0.09,0.2,0.19,0.41,0.28,0.61H77.21z"
	/>
<path class="Colour7 fill" d="M85.23,115.49h-4.36c0.5,1.36,1,2.74,1.49,4.14L85.23,115.49z"/>
<path class="Colour5 fill" d="M87.77,136.65v-4.17l-1.11,0.35C87.03,134.09,87.4,135.36,87.77,136.65z"/>
<path class="Colour8 fill" d="M108,222.16h-8.28c0.04,0.71,0.09,1.43,0.13,2.18H108V222.16z"/>
<g>
	<path class="Colour2 fill" d="M247.21,234.79h-19.4v16.53h-16.55v16.53h-16.55v16.53h-10.87v-16.53h-16.55v-16.53h-16.55v-16.53h-38.79
		v16.53h-10.61c0.09,1.85,0.18,3.74,0.28,5.67h16.02v-16.53h27.43v16.53h16.55v16.53h16.55v16.53l22.24,0v-16.53h16.55v-16.53h16.55
		v-16.53h13.71V234.79z"/>
</g>
<g>
	<path class="Colour2 fill" d="M247.21,345.31v-5.67H233.5v-16.53h-16.55v-16.53h-16.55v-16.53l-22.24,0v16.53H161.6v16.53h-16.55v16.53
		h-27.43v-16.53h-13.58c0.05,1.88,0.1,3.77,0.14,5.67h7.75v16.53h38.79v-16.53h16.55v-16.53h16.55l0-16.53h10.87l0,16.53h16.55
		v16.53h16.55v16.53H247.21z"/>
</g>
<path class="Colour8 fill" d="M108.2,355.76h-3.49c0.01,0.72,0.02,1.45,0.03,2.18h3.46V355.76z"/>
<path class="Colour7 fill" d="M104.85,366.92c0,0.47,0.01,0.93,0.01,1.4h18.14l-7.43,8.95l-3.56-7.1l-3.56,7.1l-3.55-4.27
	c0.01,0.74,0.01,1.48,0.02,2.22l2.82,3.48l-2.77,5.53c0.01,1.29,0.01,2.58,0.01,3.87l3.96-7.91l3.06,3.78l3.06-3.78l7.93,15.83H105
	c0,0.58,0,1.16,0,1.74h20.83l-9.54-19.06l9.54-11.77H104.85z M112.02,381.55l-2.34-2.82l2.34-4.67l2.34,4.67L112.02,381.55z"/>
<path class="Colour6 fill" d="M112.02,370.17l3.56,7.1l7.43-8.95h-18.14c0.02,1.55,0.03,3.11,0.04,4.67l3.55,4.27L112.02,370.17z"/>
<path class="Colour1 fill" d="M123.01,396.01l-7.93-15.83l-3.06,3.78l-3.06-3.78l-3.96,7.91c0.01,2.63,0.01,5.27,0.01,7.92H123.01z"/>
<path class="Colour10 fill" d="M122.63,398.97H105c0,0.51,0,1.03,0,1.54h17.63V398.97z"/>
<path class="Colour5 fill" d="M104.67,434.09c-0.06,3.78-0.14,7.58-0.22,11.38l18-5.73L104.67,434.09z"/>
<path class="Colour7 fill" d="M104.03,461.33c-0.03,1.09-0.07,2.18-0.1,3.27h2.37L104.03,461.33z"/>
<g>
	<path class="Colour2 fill" d="M247.21,468.96v-2.52H103.87c-0.03,0.84-0.06,1.68-0.09,2.52H247.21z"/>
</g>
<path class="Colour10 fill" d="M106.29,496.12h14.09v-7.84h-14.09v-14.06h-2.69c-0.78,20.85-1.92,41.66-3.53,61.94h6.22V496.12z"/>
<g>
	<path class="Colour10 fill" d="M247.21,228.3v3.03h147.55c0.06-1.04,0.12-2.05,0.17-3.03H247.21z"/>
</g>
<g>
	<path class="Colour10 fill" d="M247.21,231.33v-3.03H100.09c0.06,0.98,0.12,1.99,0.17,3.03H247.21z"/>
</g>
<g>
	<path class="Colour10 fill" d="M247.21,348.76v3.03h143.16c0.02-1.01,0.03-2.02,0.05-3.03H247.21z"/>
</g>
<path class="st2" d="M104.26,331.91c0.01,0.25,0.01,0.51,0.02,0.77h1.63l-1.56,3.11c0.01,0.58,0.02,1.16,0.04,1.74l2.82-5.62H104.26
	z"/>
<path class="st2" d="M390.61,339.21c0.01-0.58,0.02-1.17,0.04-1.75l-2.37-4.74h2.48c0.01-0.26,0.01-0.51,0.02-0.77h-3.79
	L390.61,339.21z"/>
<polygon class="Colour6 fill" points="255.54,368.33 262.97,377.27 266.53,370.17 270.09,377.27 277.52,368.33 "/>
<polygon class="Colour6 fill" points="294.17,368.33 301.6,377.27 305.16,370.17 308.71,377.27 316.15,368.33 "/>
<polygon class="Colour6 fill" points="332.79,368.33 340.23,377.27 343.78,370.17 347.34,377.27 354.77,368.33 "/>
<polygon class="Colour1 fill" points="266.53,383.96 263.46,380.18 255.54,396.01 277.52,396.01 269.59,380.18 "/>
<polygon class="Colour1 fill" points="305.16,383.96 302.09,380.18 294.17,396.01 316.15,396.01 308.22,380.18 "/>
<polygon class="Colour1 fill" points="343.78,383.96 340.72,380.18 332.79,396.01 354.77,396.01 346.85,380.18 "/>
<path class="Colour6 fill" d="M378.85,377.27l3.56-7.1l3.56,7.1l4.15-5c0.01-1.32,0.02-2.63,0.04-3.94h-18.74L378.85,377.27z"/>
<path class="Colour1 fill" d="M385.47,380.18l-3.06,3.78l-3.06-3.78l-7.93,15.83h18.61c0-2.25,0-4.49,0.01-6.73L385.47,380.18z"/>
<path class="st2" d="M387.23,248.18h6.63c0.01-0.26,0.03-0.51,0.04-0.77h-5.37l4.7-9.38l1.06,2.11c0.03-0.55,0.06-1.1,0.09-1.64
	l-1.15-2.29L387.23,248.18z"/>
<path class="st2" d="M101.46,236.17l-0.83,1.67c0.03,0.54,0.06,1.09,0.09,1.64l0.75-1.49l4.7,9.38h-5.03
	c0.01,0.26,0.03,0.51,0.04,0.77h6.28L101.46,236.17z"/>
<path class="Colour7 fill" d="M164.46,213.17l-9.54-11.77l9.54-19.06h-27.63l9.54,19.06l-9.54,11.77H164.46z M139.66,184.09h21.98
	l-7.93,15.83l-3.06-3.78l-3.06,3.78L139.66,184.09z M152.99,201.36l-2.34,4.67l-2.34-4.67l2.34-2.82L152.99,201.36z M147.09,202.82
	l3.56,7.1l3.56-7.1l7.43,8.95h-21.98L147.09,202.82z"/>
<path class="Colour7 fill" d="M203.09,213.17l-9.54-11.77l9.54-19.06h-27.62L185,201.4l-9.54,11.77H203.09z M178.28,184.09h21.98
	l-7.93,15.83l-3.06-3.78l-3.06,3.78L178.28,184.09z M191.61,201.36l-2.34,4.67l-2.34-4.67l2.34-2.82L191.61,201.36z M185.72,202.82
	l3.56,7.1l3.56-7.1l7.43,8.95h-21.98L185.72,202.82z"/>
<path class="Colour7 fill" d="M241.71,213.17l-9.54-11.77l9.54-19.06h-27.63l9.54,19.06l-9.54,11.77H241.71z M216.91,184.09h21.98
	l-7.93,15.83l-3.06-3.78l-3.06,3.78L216.91,184.09z M230.24,201.36l-2.34,4.67l-2.34-4.67l2.34-2.82L230.24,201.36z M224.34,202.82
	l3.56,7.1l3.56-7.1l7.43,8.95h-21.98L224.34,202.82z"/>
<path class="Colour7 fill" d="M98.21,182.34l9.54,19.06l-8.67,10.69c0.02,0.35,0.05,0.71,0.07,1.08h26.68l-9.54-11.77l9.54-19.06H98.21z
	 M123.01,211.77h-21.98l7.43-8.95l3.56,7.1l3.56-7.1L123.01,211.77z M109.68,201.36l2.34-2.82l2.34,2.82l-2.34,4.67L109.68,201.36z
	 M115.08,199.91l-3.06-3.78l-3.06,3.78l-7.93-15.83h21.98L115.08,199.91z"/>
<path class="Colour1 fill" d="M131.33,34.69c4.82,0,8.72-3.9,8.72-8.71c0-2.14-0.77-4.09-2.05-5.6c-4.89,2.05-10.06,4.25-15.33,6.55
	C123.14,31.3,126.84,34.69,131.33,34.69z"/>
<path class="Colour1 fill" d="M363.1,34.69c4.58,0,8.33-3.53,8.68-8.01c-5.23-2.28-10.35-4.46-15.19-6.48c-1.37,1.54-2.22,3.56-2.22,5.79
	C354.38,30.79,358.28,34.69,363.1,34.69z"/>
<g>
	<path class="st4" d="M395.06,542.79c0,0-23,15.87-147.55,20.82"/>
	<path class="st4" d="M247.51,563.62c-124.55-4.96-147.55-20.82-147.55-20.82"/>
</g>
<g>
	<g>
		<path class="st5" d="M395.06,538.33c0,0-23,15.87-147.55,20.82"/>
		<path class="st5" d="M247.51,559.16c-124.55-4.96-147.55-20.82-147.55-20.82"/>
	</g>
	<g>
		<path class="st4" d="M247.51,563.62c124.55-4.96,147.55-20.82,147.55-20.82"/>
		<path class="st4" d="M247.51,563.62c-124.55-4.96-147.55-20.82-147.55-20.82"/>
	</g>
</g>
<g>
	<path class="st5" d="M3.59,195.94c0,0,48.93,31.08,86.1,30.04"/>
	<path class="st4" d="M3.05,200.4c0,0,48.93,31.08,86.1,30.04"/>
	<path class="st5" d="M491.44,195.94c0,0-48.93,31.08-86.1,30.04"/>
	<path class="st4" d="M491.98,200.4c0,0-48.93,31.08-86.1,30.04"/>
</g>
<g>
	<path class="st6" d="M247.51,11.49C287.45,11.67,314.24,2,314.24,2v9.59c0,0-37.4,8.24-66.73,8.24l-0.29,0
		c-29.28-0.05-66.43-8.24-66.43-8.24V2c0,0,26.62,9.61,66.35,9.49L247.51,11.49z"/>
	<path class="st6" d="M247.51,64.42c-71.37,0-75.24-57.8-75.24-57.8L180.79,2c0,0,9.26,48.8,66.73,48.8l0.32,0
		C305.02,50.61,314.24,2,314.24,2l8.51,4.63c0,0-3.86,57.68-75.02,57.8L247.51,64.42z"/>
</g>
<path class="st2" d="M247.83,50.79l-0.32,0c-40.44,0-57.01-24.16-63.28-38.48c9.87,2,39.05,7.48,62.98,7.52l0.29,0
	c23.99,0,53.37-5.51,63.28-7.52C304.54,26.59,288.04,50.67,247.83,50.79z"/>
<path class="NeckAndArmTrim fill" d="M247.51,11.49C287.45,11.67,314.24,2,314.24,2v9.59c0,0-37.4,8.24-66.73,8.24l-0.29,0
	c-29.28-0.05-66.43-8.24-66.43-8.24V2c0,0,26.62,9.61,66.35,9.49L247.51,11.49z"/>
<path class="NeckAndArmTrim fill" d="M247.51,64.42c-71.37,0-75.24-57.8-75.24-57.8L180.79,2c0,0,9.26,48.8,66.73,48.8l0.32,0
	C305.02,50.61,314.24,2,314.24,2l8.51,4.63c0,0-3.86,57.68-75.02,57.8L247.51,64.42z"/>
<g id="FBodyLogos"></g>
<g>
	<path class="st5" d="M314.23,2.27c0,0-26.79,9.67-66.73,9.49l-0.38,0c-39.73,0.13-66.35-9.49-66.35-9.49l-8.51,4.63
		c0,0,3.87,57.8,75.24,57.8l0.22,0c71.16-0.12,75.02-57.8,75.02-57.8L314.23,2.27z M247.83,51.06l-0.32,0
		c-40.44,0-57.01-24.16-63.28-38.48c9.86,2,39.05,7.48,62.98,7.52l0.29,0c23.99,0,53.38-5.52,63.28-7.52
		C304.53,26.86,288.03,50.94,247.83,51.06z"/>
	<g>
		<path class="st5" d="M439.12,65.03c0,0,46.18,55.04,54.38,148.75c0,0-64.06,39.05-86.41,25.66c0,0,1.37-13.64-10.68-34.34
			C396.42,205.1,396.29,130.85,439.12,65.03z"/>
		<path class="st5" d="M55.89,65.03c0,0-46.18,55.04-54.38,148.75c0,0,64.06,39.05,86.41,25.66c0,0-1.37-13.64,10.68-34.34
			C98.59,205.1,98.72,130.85,55.89,65.03z"/>
		<g>
			<path class="st5" d="M439.14,65.03C427.97,46.44,322.82,6.65,322.82,6.65l-0.31,0.11l0.26,0.14c0,0-3.86,57.68-75.02,57.8
				l-0.22,0c-71.37,0-75.24-57.8-75.24-57.8l0.24-0.13l-0.3-0.12c0,0-105.15,39.79-116.32,58.38c0,0,39.73,55.78,42.71,140.07
				c0,0,14.4,194.36,0,348.07c0,0,23.21,15.87,148.91,20.82c125.7-4.96,148.91-20.82,148.91-20.82c-14.4-153.7,0-348.07,0-348.07
				C399.42,120.81,439.14,65.03,439.14,65.03z"/>
		</g>
	</g>
</g>
</svg>
