<?xml version="1.0" encoding="utf-8"?>
<!-- Generator: Adobe Illustrator 19.1.0, SVG Export Plug-In . SVG Version: 6.00 Build 0)  -->
<svg version="1.1" id="Layer_1" xmlns="http://www.w3.org/2000/svg" xmlns:xlink="http://www.w3.org/1999/xlink" x="0px" y="0px"
	 viewBox="0 0 495 576" style="enable-background:new 0 0 495 576;" xml:space="preserve">
<style type="text/css">
	<![CDATA[
	@font-face{font-family:'codaheavy';src:url('/fonts/coda-heavy-webfont.woff') format('woff')}
	text{font-family:Impact,codaheavy,sans-serif}
	.Number.fill{fill:#000}
	.NumberOutline.stroke{fill:none;stroke:#777;stroke-width:2.5}
	.Colour1.fill{fill:#AB3E4A;}
	.Colour2.fill{fill:#00305D;}
	.Colour3.fill{fill:#FF800D;}
	.Colour4.fill{fill:#D66D3B;}
	.Colour5.fill{fill:#00609F;}
	.Colour6.fill{fill:#E69B3C;}
	.Colour7.fill{fill:#600602;}
	.Colour8.fill{fill:#EDEBE7;}
	.Colour9.fill{fill:#DDA058;}
	.Colour10.fill{fill:#BADCD9;}
	.NeckAndArmTrim.fill{fill:#AB3E4A;}
	.st0{fill:#111D35;stroke:#000000;stroke-width:0.25;stroke-miterlimit:10;}
	.st1{fill:#EB2935;}
	.st2{fill:#FFFFFF;}
	.st3{fill:#A7444D;}
	.st4{fill:none;stroke:#000000;stroke-width:0.25;stroke-miterlimit:10;}
	.st5{fill:none;stroke:#000000;stroke-width:0.25;stroke-miterlimit:10;stroke-dasharray:2;}
	]]>
</style>
<path class="st0" d="M247.85,573.99c125.4-4.97,148.57-20.8,148.57-20.8c-14.4-153.62,0-347.89,0-347.89
	c2.98-84.25,42.71-140,42.71-140C427.95,46.72,322.8,6.95,322.8,6.95l-0.12,0.01c0,0-30.18,12.46-75.17,12.25l-0.43,0
	c-44.76,0.14-74.75-12.25-74.75-12.25l-0.12-0.01c0,0-105.15,39.77-116.32,58.35c0,0,39.73,55.75,42.71,140
	c0,0,14.4,194.26,0,347.89c0,0,23.17,15.83,148.59,20.8L247.85,573.99z"/>
<g>
	<path class="st1" d="M247.5,559.16c124.55-4.96,147.55-20.81,147.55-20.81l1.37,14.84c0,0-34.6,17.87-149.34,20.81
		c0,0-105.75-1.2-148.49-20.81l1.37-14.84C99.96,538.35,122.96,554.21,247.5,559.16"/>
</g>
<path class="Colour1 fill" d="M247.21,234.95H100.45c0.8,14.32,1.73,33.2,2.55,55.24c0.62,16.79,1.17,35.41,1.54,55.24h142.68h143.28
	c0.37-19.83,0.91-38.45,1.54-55.24c0.81-22.04,1.75-40.92,2.55-55.24H247.21z"/>
<path class="Colour8 fill" d="M322.8,6.95l-0.12,0.01c0,0-30.18,12.46-75.17,12.25l-0.3,0l-0.13,0c-44.76,0.14-74.75-12.25-74.75-12.25
	l-0.12-0.01c0,0-105.15,39.77-116.32,58.35c0,0,12.71,17.85,24.29,48.59h167.03h167.62c11.58-30.75,24.29-48.59,24.29-48.59
	C427.95,46.72,322.8,6.95,322.8,6.95z"/>
<g>
	<path class="Colour8 fill" d="M247.21,231.51H100.25c0.33,5.83,0.69,12.52,1.07,19.97h10.61v-16.52h38.79v16.52h16.55l0,16.52h16.55
		v16.52h10.87V268h16.55v-16.52h16.55v-16.52h19.4h19.4v16.52h16.55V268h16.55v16.52h10.87V268h16.55v-16.52h16.55v-16.52h38.79
		v16.52h11.21c0.37-7.45,0.73-14.14,1.07-19.97H247.21z"/>
	<path class="Colour8 fill" d="M382.48,345.42h-38.79V328.9h-16.55v-16.52h-16.55l0-16.52h-10.87v16.52h-16.55v16.52H266.6v16.52h-19.4
		h-19.4V328.9h-16.55l0-16.52H194.7v-16.52h-10.87v16.52h-16.55v16.52h-16.55v16.52h-38.79V328.9h-7.75
		c0.16,6.5,0.3,13.17,0.41,19.97h142.62h143.21c0.12-6.8,0.26-13.47,0.41-19.97h-8.35V345.42z"/>
</g>
<path class="Colour8 fill" d="M391.15,466.49H247.21H103.86c-0.97,29.3-2.64,58.67-5.27,86.7c0,0,23.17,15.83,148.59,20.8h0.02l0.64,0
	c125.39-4.97,148.57-20.8,148.57-20.8C393.79,525.16,392.12,495.79,391.15,466.49z"/>
<path class="Colour4 fill" d="M391.15,466.45c-0.14-4.25-0.27-8.5-0.38-12.74c0,0,0,0,0-0.01c-0.22-8.45-0.39-16.88-0.51-25.26
	c0-0.11,0-0.22-0.01-0.33c-0.06-4.12-0.11-8.23-0.14-12.33c0-0.03,0-0.07,0-0.1h-142.9H104.9c-0.15,16.72-0.48,33.74-1.04,50.79
	h143.35h143.94C391.15,466.48,391.15,466.47,391.15,466.45z"/>
<path class="Colour2 fill" d="M390.37,351.91H247.21H104.64c0.33,20.31,0.45,41.79,0.26,63.79h142.3h142.9
	C389.92,393.69,390.04,372.21,390.37,351.91z"/>
<path class="Colour2 fill" d="M247.21,164.69H94.22c2.28,12.61,3.87,26.19,4.38,40.61c0,0,0.63,8.44,1.49,23.18h147.13h147.73
	c0.86-14.74,1.49-23.18,1.49-23.18c0.51-14.42,2.1-28,4.38-40.61H247.21z"/>
<path class="Colour4 fill" d="M247.21,113.9H80.18c5.39,14.3,10.53,31.4,14.04,50.79h152.99h153.59c3.5-19.39,8.65-36.49,14.04-50.79
	H247.21z"/>
<polygon class="Colour2 fill" points="390.18,447.68 390.18,431.94 365.43,439.81 "/>
<path class="Colour2 fill" d="M104.7,432.06c-0.08,5.18-0.19,10.38-0.31,15.6l24.68-7.85L104.7,432.06z"/>
<path class="Colour6 fill" d="M374.93,419.91h15.22c-0.01-1.41-0.03-2.81-0.04-4.21h-15.18l1.13-1.13l-3.24-3.24l3.24-3.24l-3.24-3.24
	l-3.24,3.24l-3.24-3.24l-3.24,3.24l-3.24-3.24l-3.24,3.24l-3.24-3.24l-3.24,3.24l3.24,3.24l-3.24,3.24l1.13,1.13h-53.57l1.13-1.13
	l-3.24-3.24l3.24-3.24l-3.24-3.24l-3.24,3.24l-3.24-3.24l-3.24,3.24l-3.24-3.24l-3.24,3.24l-3.24-3.24l-3.24,3.24l3.24,3.24
	l-3.24,3.24l1.13,1.13h-26.8h-26.79l1.13-1.13l-3.24-3.24l3.24-3.24l-3.24-3.24l-3.24,3.24l-3.24-3.24l-3.24,3.24l-3.24-3.24
	l-3.24,3.24l-3.24-3.24l-3.24,3.24l3.24,3.24l-3.24,3.24l1.13,1.13h-53.58l1.13-1.13l-3.24-3.24l3.24-3.24l-3.24-3.24l-3.24,3.24
	l-3.24-3.24l-3.24,3.24l-3.24-3.24l-3.24,3.24l-3.24-3.24l-3.24,3.24l3.24,3.24l-3.24,3.24l1.13,1.13H104.9
	c-0.01,1.4-0.03,2.81-0.04,4.21h14.62l-1.13,1.13l3.24,3.24l-3.24,3.24l3.24,3.24l3.24-3.24l3.24,3.24l3.24-3.24l3.24,3.24
	l3.24-3.24l3.24,3.24l3.24-3.24l-3.24-3.24l3.24-3.24l-1.13-1.13h53.58l-1.13,1.13l3.24,3.24l-3.24,3.24l3.24,3.24l3.24-3.24
	l3.24,3.24l3.24-3.24l3.24,3.24l3.24-3.24l3.24,3.24l3.24-3.24l-3.24-3.24l3.24-3.24l-1.13-1.13h26.79h26.8l-1.13,1.13l3.24,3.24
	l-3.24,3.24l3.24,3.24l3.24-3.24l3.24,3.24l3.24-3.24l3.24,3.24l3.24-3.24l3.24,3.24l3.24-3.24l-3.24-3.24l3.24-3.24l-1.13-1.13
	h53.57l-1.13,1.13l3.24,3.24l-3.24,3.24l3.24,3.24l3.24-3.24l3.24,3.24l3.24-3.24l3.24,3.24l3.24-3.24l3.24,3.24l3.24-3.24
	l-3.24-3.24l3.24-3.24L374.93,419.91z"/>
<path class="Colour6 fill" d="M401.59,160.47h-26.66l1.13-1.13l-3.24-3.24l3.24-3.24l-3.24-3.24l-3.24,3.24l-3.24-3.24l-3.24,3.24
	l-3.24-3.24l-3.24,3.24l-3.24-3.24l-3.24,3.24l3.24,3.24l-3.24,3.24l1.13,1.13h-53.58l1.13-1.13l-3.24-3.24l3.24-3.24l-3.24-3.24
	l-3.24,3.24l-3.24-3.24l-3.24,3.24l-3.24-3.24l-3.24,3.24l-3.24-3.24l-3.24,3.24l3.24,3.24l-3.24,3.24l1.13,1.13h-26.79h-26.8
	l1.13-1.13l-3.24-3.24l3.24-3.24l-3.24-3.24l-3.24,3.24l-3.24-3.24l-3.24,3.24l-3.24-3.24l-3.24,3.24l-3.24-3.24l-3.24,3.24
	l3.24,3.24l-3.24,3.24l1.13,1.13h-53.57l1.13-1.13l-3.24-3.24l3.24-3.24l-3.24-3.24l-3.24,3.24l-3.24-3.24l-3.24,3.24l-3.24-3.24
	l-3.24,3.24l-3.24-3.24l-3.24,3.24l3.24,3.24l-3.24,3.24l1.13,1.13H93.42c0.27,1.39,0.54,2.8,0.8,4.21h25.27l-1.13,1.13l3.24,3.24
	l-3.24,3.24l3.24,3.24l3.24-3.24l3.24,3.24l3.24-3.24l3.24,3.24l3.24-3.24l3.24,3.24l3.24-3.24l-3.24-3.24l3.24-3.24l-1.13-1.13
	h53.57l-1.13,1.13l3.24,3.24l-3.24,3.24l3.24,3.24l3.24-3.24l3.24,3.24l3.24-3.24l3.24,3.24l3.24-3.24l3.24,3.24l3.24-3.24
	l-3.24-3.24l3.24-3.24l-1.13-1.13h26.8h26.79l-1.13,1.13l3.24,3.24l-3.24,3.24l3.24,3.24l3.24-3.24l3.24,3.24l3.24-3.24l3.24,3.24
	l3.24-3.24l3.24,3.24l3.24-3.24l-3.24-3.24l3.24-3.24l-1.13-1.13h53.58l-1.13,1.13l3.24,3.24l-3.24,3.24l3.24,3.24l3.24-3.24
	l3.24,3.24l3.24-3.24l3.24,3.24l3.24-3.24l3.24,3.24l3.24-3.24l-3.24-3.24l3.24-3.24l-1.13-1.13h25.87
	C401.05,163.27,401.32,161.87,401.59,160.47z"/>
<path class="Colour9 fill" d="M78.2,94.98h-5.93c0.92,1.99,1.86,4.08,2.8,6.26L78.2,94.98z"/>
<path class="Colour9 fill" d="M419.65,101.92c1.04-2.42,2.07-4.74,3.09-6.94h-6.57L419.65,101.92z"/>
<path class="st2" d="M166.97,344.83h16.24l-8.12-16.21L166.97,344.83z M168.73,343.8l6.37-12.71l6.37,12.71H168.73z"/>
<path class="st2" d="M177.99,319.61l11.28,22.52l11.28-22.52H177.99z M180.43,321.05h17.69l-8.84,17.65L180.43,321.05z"/>
<path class="st2" d="M195.33,344.83h16.24l-8.12-16.21L195.33,344.83z M197.09,343.8l6.37-12.71l6.37,12.71H197.09z"/>
<path class="st2" d="M155.2,332.08l5.99,11.96l5.99-11.96H155.2z M156.5,332.85h9.39l-4.7,9.38L156.5,332.85z"/>
<path class="Colour1 fill" d="M238.48,554.12c0,4.81,3.9,8.7,8.72,8.7v-17.4C242.39,545.42,238.48,549.32,238.48,554.12z"/>
<path class="st2" d="M217.25,344l5.99-11.96h-11.98L217.25,344z M217.25,342.18l-4.7-9.38h9.39L217.25,342.18z"/>
<polygon class="Colour6 fill" points="178.27,368.43 185.71,377.37 189.26,370.27 192.82,377.37 200.25,368.43 "/>
<polygon class="Colour6 fill" points="139.65,368.43 147.08,377.37 150.64,370.27 154.19,377.37 161.63,368.43 "/>
<polygon class="Colour6 fill" points="224.33,377.37 227.89,370.27 231.45,377.37 238.88,368.43 216.9,368.43 "/>
<g>
	<polygon class="Colour8 fill" points="191.6,378.84 189.26,374.17 186.92,378.84 189.26,381.65 	"/>
	<polygon class="Colour8 fill" points="230.23,378.84 227.89,374.17 225.55,378.84 227.89,381.65 	"/>
	<polygon class="Colour8 fill" points="152.98,378.84 150.64,374.17 148.3,378.84 150.64,381.65 	"/>
	<polygon class="Colour8 fill" points="114.35,378.84 112.01,374.17 109.67,378.84 112.01,381.65 	"/>
</g>
<polygon class="Colour1 fill" points="227.89,384.06 224.83,380.28 216.9,396.1 238.88,396.1 230.96,380.28 "/>
<polygon class="Colour1 fill" points="189.26,384.06 186.2,380.28 178.27,396.1 200.25,396.1 192.33,380.28 "/>
<polygon class="Colour1 fill" points="150.64,384.06 147.57,380.28 139.65,396.1 161.63,396.1 153.7,380.28 "/>
<polygon class="Colour9 fill" points="153.67,331.13 168.73,331.13 161.2,346.16 "/>
<polygon class="Colour9 fill" points="164.89,346.12 175.09,325.75 185.3,346.12 "/>
<polygon class="Colour9 fill" points="175.09,317.82 203.45,317.82 189.27,346.12 "/>
<polygon class="Colour9 fill" points="193.24,346.12 203.45,325.75 213.66,346.12 "/>
<polygon class="Colour9 fill" points="217.25,346.12 209.72,331.09 224.78,331.09 "/>
<rect x="217.28" y="399.06" class="Colour10 fill" width="21.22" height="1.54"/>
<rect x="178.65" y="399.06" class="Colour10 fill" width="21.22" height="1.54"/>
<rect x="140.02" y="399.06" class="Colour10 fill" width="21.22" height="1.54"/>
<path class="Colour7 fill" d="M223.62,378.79l-9.54,19.05h27.63l-9.54-19.05l9.54-11.76h-27.63L223.62,378.79z M238.88,396.1H216.9
	l7.93-15.82l3.06,3.78l3.06-3.78L238.88,396.1z M225.55,378.84l2.34-4.67l2.34,4.67l-2.34,2.82L225.55,378.84z M231.45,377.37
	l-3.56-7.1l-3.56,7.1l-7.43-8.94h21.98L231.45,377.37z"/>
<path class="Colour7 fill" d="M175.45,367.03l9.54,11.76l-9.54,19.05h27.63l-9.54-19.05l9.54-11.76H175.45z M200.25,396.1h-21.98
	l7.93-15.82l3.06,3.78l3.06-3.78L200.25,396.1z M186.92,378.84l2.34-4.67l2.34,4.67l-2.34,2.82L186.92,378.84z M192.82,377.37
	l-3.56-7.1l-3.56,7.1l-7.43-8.94h21.98L192.82,377.37z"/>
<path class="Colour7 fill" d="M136.82,367.03l9.54,11.76l-9.54,19.05h27.63l-9.54-19.05l9.54-11.76H136.82z M161.63,396.1h-21.98
	l7.93-15.82l3.06,3.78l3.06-3.78L161.63,396.1z M148.3,378.84l2.34-4.67l2.34,4.67l-2.34,2.82L148.3,378.84z M154.19,377.37
	l-3.56-7.1l-3.56,7.1l-7.43-8.94h21.98L154.19,377.37z"/>
<polygon class="Colour10 fill" points="214.31,536.17 222.16,536.17 222.16,496.16 236.25,496.16 236.25,488.32 222.16,488.32 
	222.16,474.26 214.31,474.26 214.31,488.32 200.22,488.32 200.22,496.16 214.31,496.16 "/>
<polygon class="Colour10 fill" points="156.37,536.17 164.22,536.17 164.22,496.16 178.31,496.16 178.31,488.32 164.22,488.32 
	164.22,474.26 156.37,474.26 156.37,488.32 142.28,488.32 142.28,496.16 156.37,496.16 "/>
<path class="Colour3 fill" d="M99.3,545.34c-0.2,2.27-0.4,4.53-0.61,6.79l3.66-5.29l7.49,10.82c1.51,0.46,3.21,0.95,5.1,1.46l-12.6-18.19
	L99.3,545.34z"/>
<path class="Colour1 fill" d="M98.69,552.13c-0.03,0.35-0.06,0.71-0.1,1.06c0,0,0.6,0.41,2.1,1.11l1.66-2.39l2.94,4.25
	c1.29,0.46,2.8,0.97,4.55,1.51l-7.49-10.82L98.69,552.13z"/>
<path class="Colour1 fill" d="M258.55,552.13c-0.03,0.35-0.06,0.71-0.1,1.06c0,0,0.6,0.41,2.1,1.11l1.66-2.39l2.94,4.25
	c1.29,0.46,2.8,0.97,4.55,1.51l-7.49-10.82L258.55,552.13z"/>
<ellipse class="Colour1 fill" cx="189.26" cy="554.12" rx="8.72" ry="8.7"/>
<polygon class="Colour7 fill" points="240.63,464.66 247.21,464.66 247.2,455.17 "/>
<polygon class="Colour7 fill" points="219.56,464.66 232.7,464.66 226.13,455.17 "/>
<polygon class="Colour7 fill" points="198.49,464.66 211.64,464.66 205.06,455.17 "/>
<polygon class="Colour7 fill" points="177.42,464.66 190.57,464.66 184,455.17 "/>
<polygon class="Colour7 fill" points="156.35,464.66 169.5,464.66 162.93,455.17 "/>
<polygon class="Colour7 fill" points="135.29,464.66 148.43,464.66 141.86,455.17 "/>
<polygon class="Colour7 fill" points="114.22,464.66 127.36,464.66 120.79,455.17 "/>
<ellipse class="Colour6 fill" cx="114.03" cy="356.96" rx="3.28" ry="3.28"/>
<ellipse class="Colour6 fill" cx="148.79" cy="356.96" rx="3.28" ry="3.28"/>
<ellipse class="Colour6 fill" cx="183.55" cy="356.96" rx="3.28" ry="3.28"/>
<ellipse class="Colour6 fill" cx="218.31" cy="356.96" rx="3.28" ry="3.28"/>
<rect x="119.9" y="355.87" class="Colour8 fill" width="23.03" height="2.17"/>
<rect x="154.65" y="355.87" class="Colour8 fill" width="23.03" height="2.17"/>
<rect x="189.42" y="355.87" class="Colour8 fill" width="23.03" height="2.17"/>
<polygon class="Colour2 fill" points="158.41,431.94 133.66,439.81 158.41,447.68 "/>
<polygon class="Colour2 fill" points="181.52,431.94 181.52,447.68 206.27,439.81 "/>
<polygon class="Colour5 fill" points="174.89,431.94 174.89,447.68 199.64,439.81 "/>
<polygon class="Colour2 fill" points="235.61,447.68 235.61,431.94 210.86,439.81 "/>
<polygon class="Colour5 fill" points="165.4,431.94 140.65,439.81 165.4,447.68 "/>
<polygon class="Colour5 fill" points="242.59,447.68 242.59,431.94 217.84,439.81 "/>
<path class="st3" d="M175.09,317.82l14.18,28.3l14.18-28.3H175.09z M177.99,319.61h22.56l-11.28,22.52L177.99,319.61z"/>
<polygon class="Colour5 fill" points="180.43,321.05 189.27,338.7 198.12,321.05 "/>
<path class="st3" d="M164.89,346.12h20.41l-10.21-20.37L164.89,346.12z M166.97,344.83l8.12-16.21l8.12,16.21H166.97z"/>
<polygon class="Colour5 fill" points="168.73,343.8 181.46,343.8 175.09,331.09 "/>
<path class="st3" d="M193.24,346.12h20.41l-10.21-20.37L193.24,346.12z M195.33,344.83l8.12-16.21l8.12,16.21H195.33z"/>
<polygon class="Colour5 fill" points="197.09,343.8 209.82,343.8 203.45,331.09 "/>
<path class="st3" d="M217.25,346.12l7.53-15.03h-15.06L217.25,346.12z M217.25,344l-5.99-11.96h11.98L217.25,344z"/>
<polygon class="Colour5 fill" points="217.25,342.18 221.94,332.8 212.55,332.8 "/>
<path class="st3" d="M153.67,331.13l7.53,15.03l7.53-15.03H153.67z M155.2,332.08h11.98l-5.99,11.96L155.2,332.08z"/>
<polygon class="Colour5 fill" points="156.5,332.85 161.2,342.22 165.89,332.85 "/>
<path class="Colour5 fill" d="M104.27,332.8c0.02,1.03,0.05,2.07,0.07,3.11l1.56-3.11H104.27z"/>
<path class="st3" d="M104.23,331.09c0.01,0.32,0.01,0.63,0.02,0.95h2.94l-2.82,5.62c0.01,0.68,0.03,1.36,0.04,2.04l4.31-8.61H104.23
	z"/>
<path class="Colour9 fill" d="M104.23,331.09c0.07,2.84,0.13,5.71,0.19,8.61l4.31-8.61H104.23z"/>
<g>
	<path class="Colour10 fill" d="M247.21,351.91v-3.03H104.59c0.02,1.01,0.03,2.02,0.05,3.03H247.21z"/>
</g>
<g>
	<polygon class="Colour2 fill" points="129.22,541.17 133.42,541.17 133.42,519.79 140.95,519.79 140.95,515.6 133.42,515.6 
		133.42,508.09 129.22,508.09 129.22,515.6 121.7,515.6 121.7,519.79 129.22,519.79 	"/>
	<polygon class="Colour2 fill" points="187.16,541.17 191.36,541.17 191.36,519.79 198.89,519.79 198.89,515.6 191.36,515.6 
		191.36,508.09 187.16,508.09 187.16,515.6 179.64,515.6 179.64,519.79 187.16,519.79 	"/>
	<g>
		<polygon class="Colour2 fill" points="245.11,508.09 245.11,515.6 237.58,515.6 237.58,519.79 245.11,519.79 245.11,541.17 
			247.21,541.17 247.21,508.09 		"/>
	</g>
</g>
<g>
	<rect x="110.02" y="500.79" class="Colour3 fill" width="42.6" height="3.45"/>
	<rect x="167.96" y="500.79" class="Colour3 fill" width="42.6" height="3.45"/>
	<rect x="225.91" y="500.79" class="Colour3 fill" width="21.3" height="3.45"/>
</g>
<g>
	<g>
		<polygon class="Colour9 fill" points="113.68,485.41 118.54,475.72 123.39,485.41 		"/>
		<path class="st3" d="M113.68,485.41h9.71l-4.86-9.69L113.68,485.41z M114.68,484.8l3.86-7.71l3.86,7.71H114.68z"/>
		<polygon class="Colour5 fill" points="115.51,484.3 121.57,484.3 118.54,478.26 		"/>
	</g>
	<g>
		<polygon class="Colour9 fill" points="126.47,485.41 131.32,475.72 136.18,485.41 		"/>
		<path class="st3" d="M126.47,485.41h9.71l-4.86-9.69L126.47,485.41z M127.46,484.8l3.86-7.71l3.86,7.71H127.46z"/>
		<polygon class="Colour5 fill" points="128.29,484.3 134.35,484.3 131.32,478.26 		"/>
	</g>
	<g>
		<polygon class="Colour9 fill" points="139.25,485.41 144.11,475.72 148.96,485.41 		"/>
		<path class="st3" d="M139.25,485.41h9.71l-4.86-9.69L139.25,485.41z M140.24,484.8l3.86-7.71l3.86,7.71H140.24z"/>
		<polygon class="Colour5 fill" points="141.08,484.3 147.13,484.3 144.11,478.26 		"/>
	</g>
</g>
<g>
	<g>
		<polygon class="Colour9 fill" points="171.66,485.41 176.52,475.72 181.37,485.41 		"/>
		<path class="st3" d="M171.66,485.41h9.71l-4.86-9.69L171.66,485.41z M172.66,484.8l3.86-7.71l3.86,7.71H172.66z"/>
		<polygon class="Colour5 fill" points="173.49,484.3 179.55,484.3 176.52,478.26 		"/>
	</g>
	<g>
		<polygon class="Colour9 fill" points="184.45,485.41 189.3,475.72 194.16,485.41 		"/>
		<path class="st3" d="M184.45,485.41h9.71l-4.86-9.69L184.45,485.41z M185.44,484.8l3.86-7.71l3.86,7.71H185.44z"/>
		<polygon class="Colour5 fill" points="186.27,484.3 192.33,484.3 189.3,478.26 		"/>
	</g>
	<g>
		<polygon class="Colour9 fill" points="197.23,485.41 202.09,475.72 206.94,485.41 		"/>
		<path class="st3" d="M197.23,485.41h9.71l-4.86-9.69L197.23,485.41z M198.22,484.8l3.86-7.71l3.86,7.71H198.22z"/>
		<polygon class="Colour5 fill" points="199.06,484.3 205.11,484.3 202.09,478.26 		"/>
	</g>
</g>
<g>
	<path class="Colour9 fill" d="M230.56,484.8h7.73l-3.86-7.71L230.56,484.8z M231.39,484.3l3.03-6.04l3.03,6.04H231.39z"/>
	<path class="st3" d="M229.57,485.41h9.71l-4.86-9.69L229.57,485.41z M230.56,484.8l3.86-7.71l3.86,7.71H230.56z"/>
	<polygon class="Colour5 fill" points="231.39,484.3 237.45,484.3 234.42,478.26 	"/>
	<polygon class="Colour9 fill" points="243.34,484.8 247.21,484.8 247.21,484.3 244.18,484.3 247.21,478.26 247.21,478.26 247.21,477.09 
		247.21,477.09 	"/>
	<polygon class="st3" points="243.34,484.8 247.21,477.09 247.21,477.09 247.21,475.72 247.21,475.72 242.35,485.41 247.21,485.41 
		247.21,484.8 	"/>
	<polygon class="Colour5 fill" points="244.18,484.3 247.21,484.3 247.21,478.26 247.21,478.26 	"/>
</g>
<polygon class="Colour1 fill" points="213.6,415.05 211.32,415.05 211.32,412.77 209.03,412.77 209.03,410.49 208.08,410.49 
	208.08,412.77 205.79,412.77 205.79,415.05 203.51,415.05 203.51,417.33 201.22,417.33 201.22,418.28 203.51,418.28 203.51,420.56 
	205.79,420.56 205.79,422.84 208.08,422.84 208.08,425.13 209.03,425.13 209.03,422.84 211.32,422.84 211.32,420.56 213.6,420.56 
	213.6,418.28 215.89,418.28 215.89,417.33 213.6,417.33 "/>
<path class="Colour8 fill" d="M214.93,413.72h-2.29v-2.28h-2.29v-2.28h-3.62v2.28h-2.29v2.28h-2.29V416h-2.29v3.61h2.29v2.28l2.29,0v2.28
	l2.29,0v2.28h3.62v-2.28l2.29,0v-2.28h2.29v-2.28h2.29V416h-2.29V413.72z M215.89,417.33v0.95h-2.29v2.28h-2.29v2.28h-2.29v2.28
	h-0.95v-2.28h-2.29v-2.28h-2.29v-2.28h-2.29v-0.95h2.29v-2.28h2.29v-2.28h2.29v-2.28h0.95v2.28h2.29v2.28h2.29v2.28H215.89z"/>
<polygon class="Colour1 fill" points="136.37,415.05 134.08,415.05 134.08,412.77 131.8,412.77 131.8,410.49 130.85,410.49 
	130.85,412.77 128.56,412.77 128.56,415.05 126.27,415.05 126.27,417.33 123.99,417.33 123.99,418.28 126.27,418.28 126.27,420.56 
	128.56,420.56 128.56,422.84 130.85,422.84 130.85,425.13 131.8,425.13 131.8,422.84 134.08,422.84 134.08,420.56 136.37,420.56 
	136.37,418.28 138.66,418.28 138.66,417.33 136.37,417.33 "/>
<path class="Colour8 fill" d="M137.7,413.72h-2.29v-2.28h-2.29v-2.28h-3.62v2.28h-2.29v2.28h-2.29V416h-2.29v3.61h2.29v2.28l2.29,0v2.28
	l2.29,0v2.28h3.62v-2.28l2.29,0v-2.28h2.29v-2.28h2.29V416h-2.29V413.72z M138.66,417.33v0.95h-2.29v2.28h-2.29v2.28h-2.29v2.28
	h-0.95v-2.28h-2.29v-2.28h-2.29v-2.28h-2.29v-0.95h2.29v-2.28h2.29v-2.28h2.29v-2.28h0.95v2.28h2.29v2.28h2.29v2.28H138.66z"/>
<polygon class="Colour6 fill" points="229.52,290.19 229.52,301.2 242.83,301.2 242.83,314.49 247.21,314.49 247.21,290.19 "/>
<polygon class="Colour6 fill" points="113.63,290.19 113.63,301.2 126.95,301.2 126.95,314.49 135.7,314.49 135.7,301.2 149.01,301.2 
	149.01,290.19 "/>
<polygon class="Colour4 fill" points="122.38,305.76 122.38,319.05 140.27,319.05 140.27,305.76 153.58,305.76 153.58,290.19 
	149.01,290.19 149.01,301.2 135.7,301.2 135.7,314.49 126.95,314.49 126.95,301.2 113.63,301.2 113.63,290.19 109.06,290.19 
	109.06,305.76 "/>
<polygon class="Colour4 fill" points="238.26,305.76 238.26,319.05 247.21,319.05 247.21,314.49 242.83,314.49 242.83,301.2 
	229.52,301.2 229.52,290.19 224.94,290.19 224.94,305.76 "/>
<rect x="224.17" y="355.87" class="Colour8 fill" width="23.03" height="2.17"/>
<path class="st2" d="M270.92,332.08l5.99,11.96l5.99-11.96H270.92z M272.22,332.85h9.39l-4.7,9.38L272.22,332.85z"/>
<path class="st2" d="M293.71,319.61l11.28,22.52l11.28-22.52H293.71z M296.15,321.05h17.69l-8.84,17.65L296.15,321.05z"/>
<path class="st2" d="M282.69,344.83h16.24l-8.12-16.21L282.69,344.83z M284.44,343.8l6.37-12.71l6.37,12.71H284.44z"/>
<path class="st2" d="M311.05,344.83h16.24l-8.12-16.21L311.05,344.83z M312.8,343.8l6.37-12.71l6.37,12.71H312.8z"/>
<path class="st2" d="M332.96,344l5.99-11.96h-11.98L332.96,344z M332.96,342.18l-4.7-9.38h9.39L332.96,342.18z"/>
<g>
	<polygon class="Colour8 fill" points="268.86,378.84 266.52,374.17 264.18,378.84 266.52,381.65 	"/>
	<polygon class="Colour8 fill" points="307.49,378.84 305.15,374.17 302.81,378.84 305.15,381.65 	"/>
	<polygon class="Colour8 fill" points="384.74,378.84 382.4,374.17 380.06,378.84 382.4,381.65 	"/>
	<polygon class="Colour8 fill" points="346.11,378.84 343.77,374.17 341.43,378.84 343.77,381.65 	"/>
</g>
<polygon class="Colour9 fill" points="269.38,331.13 284.44,331.13 276.91,346.16 "/>
<polygon class="Colour9 fill" points="280.6,346.12 290.81,325.75 301.02,346.12 "/>
<polygon class="Colour9 fill" points="290.81,317.82 319.17,317.82 304.99,346.12 "/>
<polygon class="Colour9 fill" points="308.96,346.12 319.17,325.75 329.38,346.12 "/>
<polygon class="Colour9 fill" points="332.96,346.12 325.43,331.09 340.49,331.09 "/>
<polygon class="Colour2 fill" points="258.8,431.94 258.8,447.68 283.55,439.81 "/>
<polygon class="Colour2 fill" points="312.89,431.94 288.14,439.81 312.89,447.68 "/>
<rect x="333.16" y="399.06" class="Colour10 fill" width="21.22" height="1.54"/>
<rect x="294.54" y="399.06" class="Colour10 fill" width="21.22" height="1.54"/>
<path class="Colour7 fill" d="M329.96,367.03l9.54,11.76l-9.54,19.05h27.63l-9.54-19.05l9.54-11.76H329.96z M354.76,396.1h-21.98
	l7.93-15.82l3.06,3.78l3.06-3.78L354.76,396.1z M341.43,378.84l2.34-4.67l2.34,4.67l-2.34,2.82L341.43,378.84z M347.33,377.37
	l-3.56-7.1l-3.56,7.1l-7.43-8.94h21.98L347.33,377.37z"/>
<path class="Colour7 fill" d="M291.33,367.03l9.54,11.76l-9.54,19.05h27.62l-9.54-19.05l9.54-11.76H291.33z M316.14,396.1h-21.98
	l7.93-15.82l3.06,3.78l3.06-3.78L316.14,396.1z M302.81,378.84l2.34-4.67l2.34,4.67l-2.34,2.82L302.81,378.84z M308.7,377.37
	l-3.56-7.1l-3.56,7.1l-7.43-8.94h21.98L308.7,377.37z"/>
<path class="Colour7 fill" d="M252.71,367.03l9.54,11.76l-9.54,19.05h27.63l-9.54-19.05l9.54-11.76H252.71z M277.51,396.1h-21.98
	l7.93-15.82l3.06,3.78l3.06-3.78L277.51,396.1z M264.18,378.84l2.34-4.67l2.34,4.67l-2.34,2.82L264.18,378.84z M270.08,377.37
	l-3.56-7.1l-3.56,7.1l-7.43-8.94h21.98L270.08,377.37z"/>
<rect x="255.91" y="399.06" class="Colour10 fill" width="21.22" height="1.54"/>
<polygon class="Colour10 fill" points="330.19,536.17 338.05,536.17 338.05,496.16 352.13,496.16 352.13,488.32 338.05,488.32 
	338.05,474.26 330.19,474.26 330.19,488.32 316.1,488.32 316.1,496.16 330.19,496.16 "/>
<polygon class="Colour10 fill" points="272.25,536.17 280.1,536.17 280.1,496.16 294.19,496.16 294.19,488.32 280.1,488.32 280.1,474.26 
	272.25,474.26 272.25,488.32 258.16,488.32 258.16,496.16 272.25,496.16 "/>
<path class="Colour3 fill" d="M392.06,546.84l4.35,6.29c-0.21-2.26-0.42-4.52-0.62-6.8l-3.74-5.4l-12.73,18.39
	c1.88-0.49,3.56-0.97,5.08-1.43L392.06,546.84z"/>
<ellipse class="Colour1 fill" cx="363.09" cy="554.12" rx="8.72" ry="8.7"/>
<ellipse class="Colour1 fill" cx="305.15" cy="554.12" rx="8.72" ry="8.7"/>
<polygon class="Colour7 fill" points="367.05,464.66 380.19,464.66 373.62,455.17 "/>
<polygon class="Colour7 fill" points="345.98,464.66 359.12,464.66 352.55,455.17 "/>
<polygon class="Colour7 fill" points="324.91,464.66 338.05,464.66 331.48,455.17 "/>
<polygon class="Colour7 fill" points="303.84,464.66 316.98,464.66 310.41,455.17 "/>
<polygon class="Colour7 fill" points="282.77,464.66 295.92,464.66 289.34,455.17 "/>
<polygon class="Colour7 fill" points="261.7,464.66 274.85,464.66 268.27,455.17 "/>
<polygon class="Colour7 fill" points="247.21,455.17 247.21,464.66 253.78,464.66 "/>
<ellipse class="Colour6 fill" cx="276.3" cy="356.96" rx="3.28" ry="3.28"/>
<ellipse class="Colour6 fill" cx="311.06" cy="356.96" rx="3.28" ry="3.28"/>
<ellipse class="Colour6 fill" cx="345.8" cy="356.96" rx="3.28" ry="3.28"/>
<ellipse class="Colour6 fill" cx="380.55" cy="356.96" rx="3.28" ry="3.28"/>
<rect x="282.17" y="355.87" class="Colour8 fill" width="23.03" height="2.17"/>
<rect x="316.93" y="355.87" class="Colour8 fill" width="23.03" height="2.17"/>
<rect x="351.66" y="355.87" class="Colour8 fill" width="23.03" height="2.17"/>
<polygon class="Colour2 fill" points="336.09,447.68 360.84,439.81 336.09,431.94 "/>
<polygon class="Colour5 fill" points="252.17,431.94 252.17,447.68 276.92,439.81 "/>
<polygon class="Colour5 fill" points="329.46,447.68 354.21,439.81 329.46,431.94 "/>
<polygon class="Colour5 fill" points="319.88,431.94 295.13,439.81 319.88,447.68 "/>
<path class="st3" d="M290.81,317.82l14.18,28.3l14.18-28.3H290.81z M293.71,319.61h22.56l-11.28,22.52L293.71,319.61z"/>
<polygon class="Colour5 fill" points="296.15,321.05 304.99,338.7 313.83,321.05 "/>
<path class="st3" d="M280.6,346.12h20.41l-10.21-20.37L280.6,346.12z M282.69,344.83l8.12-16.21l8.12,16.21H282.69z"/>
<polygon class="Colour5 fill" points="284.44,343.8 297.18,343.8 290.81,331.09 "/>
<path class="st3" d="M308.96,346.12h20.41l-10.21-20.37L308.96,346.12z M311.05,344.83l8.12-16.21l8.12,16.21H311.05z"/>
<polygon class="Colour5 fill" points="312.8,343.8 325.53,343.8 319.17,331.09 "/>
<path class="st3" d="M332.96,346.12l7.53-15.03h-15.06L332.96,346.12z M332.96,344l-5.99-11.96h11.98L332.96,344z"/>
<polygon class="Colour5 fill" points="332.96,342.18 337.66,332.8 328.27,332.8 "/>
<path class="st3" d="M269.38,331.13l7.53,15.03l7.53-15.03H269.38z M270.92,332.08h11.98l-5.99,11.96L270.92,332.08z"/>
<polygon class="Colour5 fill" points="272.22,332.85 276.91,342.22 281.61,332.85 "/>
<g>
	<polygon class="Colour2 fill" points="303.05,541.17 307.25,541.17 307.25,519.79 314.77,519.79 314.77,515.6 307.25,515.6 
		307.25,508.09 303.05,508.09 303.05,515.6 295.52,515.6 295.52,519.79 303.05,519.79 	"/>
	<polygon class="Colour2 fill" points="360.99,541.17 365.19,541.17 365.19,519.79 372.71,519.79 372.71,515.6 365.19,515.6 
		365.19,508.09 360.99,508.09 360.99,515.6 353.46,515.6 353.46,519.79 360.99,519.79 	"/>
	<g>
		<polygon class="Colour2 fill" points="249.3,515.6 249.3,508.09 247.21,508.09 247.21,541.17 249.3,541.17 249.3,519.79 256.83,519.79 
			256.83,515.6 		"/>
	</g>
</g>
<g>
	<rect x="341.79" y="500.79" class="Colour3 fill" width="42.6" height="3.45"/>
	<rect x="283.85" y="500.79" class="Colour3 fill" width="42.6" height="3.45"/>
	<rect x="247.21" y="500.79" class="Colour3 fill" width="21.3" height="3.45"/>
</g>
<g>
	<g>
		<polygon class="Colour9 fill" points="287.51,485.41 292.36,475.72 297.22,485.41 		"/>
		<path class="st3" d="M287.51,485.41h9.71l-4.86-9.69L287.51,485.41z M288.5,484.8l3.86-7.71l3.86,7.71H288.5z"/>
		<polygon class="Colour5 fill" points="289.34,484.3 295.39,484.3 292.36,478.26 		"/>
	</g>
	<g>
		<polygon class="Colour9 fill" points="300.29,485.41 305.15,475.72 310,485.41 		"/>
		<path class="st3" d="M300.29,485.41H310l-4.86-9.69L300.29,485.41z M301.28,484.8l3.86-7.71l3.86,7.71H301.28z"/>
		<polygon class="Colour5 fill" points="302.12,484.3 308.18,484.3 305.15,478.26 		"/>
	</g>
	<g>
		<polygon class="Colour9 fill" points="313.07,485.41 317.93,475.72 322.78,485.41 		"/>
		<path class="st3" d="M313.07,485.41h9.71l-4.86-9.69L313.07,485.41z M314.07,484.8l3.86-7.71l3.86,7.71H314.07z"/>
		<polygon class="Colour5 fill" points="314.9,484.3 320.96,484.3 317.93,478.26 		"/>
	</g>
</g>
<g>
	<g>
		<polygon class="Colour9 fill" points="345.45,485.41 350.31,475.72 355.16,485.41 		"/>
		<path class="st3" d="M345.45,485.41h9.71l-4.86-9.69L345.45,485.41z M346.44,484.8l3.86-7.71l3.86,7.71H346.44z"/>
		<polygon class="Colour5 fill" points="347.28,484.3 353.33,484.3 350.31,478.26 		"/>
	</g>
	<g>
		<polygon class="Colour9 fill" points="358.23,485.41 363.09,475.72 367.94,485.41 		"/>
		<path class="st3" d="M358.23,485.41h9.71l-4.86-9.69L358.23,485.41z M359.23,484.8l3.86-7.71l3.86,7.71H359.23z"/>
		<polygon class="Colour5 fill" points="360.06,484.3 366.12,484.3 363.09,478.26 		"/>
	</g>
	<g>
		<polygon class="Colour9 fill" points="371.02,485.41 375.87,475.72 380.73,485.41 		"/>
		<path class="st3" d="M371.02,485.41h9.71l-4.86-9.69L371.02,485.41z M372.01,484.8l3.86-7.71l3.86,7.71H372.01z"/>
		<polygon class="Colour5 fill" points="372.84,484.3 378.9,484.3 375.87,478.26 		"/>
	</g>
</g>
<g>
	<path class="Colour9 fill" d="M259.99,477.09l-3.86,7.71h7.73L259.99,477.09z M256.96,484.3l3.03-6.04l3.03,6.04H256.96z"/>
	<path class="st3" d="M259.99,475.72l-4.86,9.69h9.71L259.99,475.72z M256.13,484.8l3.86-7.71l3.86,7.71H256.13z"/>
	<polygon class="Colour5 fill" points="263.02,484.3 256.96,484.3 259.99,478.26 	"/>
	<polygon class="Colour9 fill" points="251.07,484.8 247.21,484.8 247.21,484.3 250.23,484.3 247.21,478.26 247.21,478.26 247.21,477.09 
		247.21,477.09 	"/>
	<polygon class="st3" points="251.07,484.8 247.21,477.09 247.21,477.09 247.21,475.72 247.21,475.72 252.06,485.41 247.21,485.41 
		247.21,484.8 	"/>
	<polygon class="Colour5 fill" points="250.23,484.3 247.21,484.3 247.21,478.26 247.21,478.26 	"/>
</g>
<polygon class="Colour1 fill" points="368.14,415.05 365.85,415.05 365.85,412.77 363.56,412.77 363.56,410.49 362.61,410.49 
	362.61,412.77 360.33,412.77 360.33,415.05 358.04,415.05 358.04,417.33 355.75,417.33 355.75,418.28 358.04,418.28 358.04,420.56 
	360.33,420.56 360.33,422.84 362.61,422.84 362.61,425.13 363.56,425.13 363.56,422.84 365.85,422.84 365.85,420.56 368.14,420.56 
	368.14,418.28 370.42,418.28 370.42,417.33 368.14,417.33 "/>
<path class="Colour8 fill" d="M369.47,413.72h-2.29v-2.28h-2.29v-2.28h-3.62v2.28h-2.29v2.28h-2.29V416h-2.29v3.61h2.29v2.28l2.29,0v2.28
	l2.29,0v2.28h3.62v-2.28l2.29,0v-2.28h2.29v-2.28h2.29V416h-2.29V413.72z M370.42,417.33v0.95h-2.29v2.28h-2.29v2.28h-2.29v2.28
	h-0.95v-2.28h-2.29v-2.28h-2.29v-2.28h-2.29v-0.95h2.29v-2.28h2.29v-2.28h2.29v-2.28h0.95v2.28h2.29v2.28h2.29v2.28H370.42z"/>
<polygon class="Colour1 fill" points="290.85,415.05 288.56,415.05 288.56,412.77 286.27,412.77 286.27,410.49 285.32,410.49 
	285.32,412.77 283.04,412.77 283.04,415.05 280.75,415.05 280.75,417.33 278.46,417.33 278.46,418.28 280.75,418.28 280.75,420.56 
	283.04,420.56 283.04,422.84 285.32,422.84 285.32,425.13 286.27,425.13 286.27,422.84 288.56,422.84 288.56,420.56 290.85,420.56 
	290.85,418.28 293.13,418.28 293.13,417.33 290.85,417.33 "/>
<path class="Colour8 fill" d="M292.18,413.72h-2.29v-2.28h-2.29v-2.28h-3.62l0,2.28h-2.29v2.28h-2.29V416h-2.29v3.61h2.29v2.28l2.29,0
	v2.28l2.29,0v2.28h3.62v-2.28l2.29,0v-2.28h2.29v-2.28h2.29V416h-2.29V413.72z M293.13,417.33v0.95h-2.29v2.28h-2.29v2.28h-2.29
	v2.28h-0.95v-2.28h-2.29v-2.28h-2.29v-2.28h-2.29v-0.95h2.29v-2.28h2.29v-2.28h2.29v-2.28h0.95v2.28h2.29v2.28h2.29v2.28H293.13z"/>
<path class="Colour1 fill" d="M255.93,554.12c0-4.81-3.9-8.7-8.72-8.7v17.4C252.02,562.82,255.93,558.93,255.93,554.12z"/>
<rect x="247.21" y="355.87" class="Colour8 fill" width="23.23" height="2.17"/>
<polygon class="Colour6 fill" points="345.4,290.19 345.4,301.2 358.72,301.2 358.72,314.49 367.46,314.49 367.46,301.2 380.78,301.2 
	380.78,290.19 "/>
<polygon class="Colour6 fill" points="247.21,290.19 247.21,314.49 251.58,314.49 251.58,301.2 264.89,301.2 264.89,290.19 "/>
<polygon class="Colour4 fill" points="354.14,305.76 354.14,319.05 372.03,319.05 372.03,305.76 385.35,305.76 385.35,290.19 
	380.78,290.19 380.78,301.2 367.46,301.2 367.46,314.49 358.72,314.49 358.72,301.2 345.4,301.2 345.4,290.19 340.83,290.19 
	340.83,305.76 "/>
<polygon class="Colour4 fill" points="251.58,301.2 251.58,314.49 247.21,314.49 247.21,319.05 256.15,319.05 256.15,305.76 
	269.47,305.76 269.47,290.19 264.89,290.19 264.89,301.2 "/>
<path class="st2" d="M327.44,235.55H311.2l8.12,16.21L327.44,235.55z M325.68,236.59l-6.37,12.71l-6.37-12.71H325.68z"/>
<path class="st2" d="M316.42,260.78l-11.28-22.52l-11.28,22.52H316.42z M313.98,259.34h-17.69l8.84-17.65L313.98,259.34z"/>
<path class="st2" d="M299.08,235.55h-16.24l8.12,16.21L299.08,235.55z M297.33,236.59l-6.37,12.71l-6.37-12.71H297.33z"/>
<path class="st2" d="M339.21,248.31l-5.99-11.96l-5.99,11.96H339.21z M337.91,247.54h-9.39l4.7-9.38L337.91,247.54z"/>
<path class="Colour1 fill" d="M255.93,26.27c0-4.81-3.9-8.7-8.72-8.7v17.4C252.02,34.97,255.93,31.07,255.93,26.27z"/>
<path class="st2" d="M277.16,236.39l-5.99,11.96h11.98L277.16,236.39z M277.16,238.21l4.7,9.38h-9.39L277.16,238.21z"/>
<g>
	<polygon class="Colour6 fill" points="316.14,211.95 308.7,203.01 305.15,210.11 301.59,203.01 294.16,211.95 	"/>
	<polygon class="Colour6 fill" points="354.76,211.95 347.33,203.01 343.77,210.11 340.22,203.01 332.78,211.95 	"/>
	<polygon class="Colour6 fill" points="270.08,203.01 266.52,210.11 262.96,203.01 255.53,211.95 277.51,211.95 	"/>
	<polygon class="Colour6 fill" points="393.39,211.95 385.96,203.01 382.4,210.11 378.84,203.01 371.41,211.95 	"/>
</g>
<g>
	<polygon class="Colour8 fill" points="302.81,201.55 305.15,206.22 307.49,201.55 305.15,198.73 	"/>
	<polygon class="Colour8 fill" points="264.18,201.55 266.52,206.22 268.86,201.55 266.52,198.73 	"/>
	<polygon class="Colour8 fill" points="341.43,201.55 343.77,206.22 346.11,201.55 343.77,198.73 	"/>
	<polygon class="Colour8 fill" points="380.06,201.55 382.4,206.22 384.74,201.55 382.4,198.73 	"/>
</g>
<g>
	<polygon class="Colour1 fill" points="266.52,196.33 269.58,200.11 277.51,184.29 255.53,184.29 263.46,200.11 	"/>
	<polygon class="Colour1 fill" points="305.15,196.33 308.21,200.11 316.14,184.29 294.16,184.29 302.08,200.11 	"/>
	<polygon class="Colour1 fill" points="343.77,196.33 346.84,200.11 354.76,184.29 332.78,184.29 340.71,200.11 	"/>
	<polygon class="Colour1 fill" points="382.4,196.33 385.47,200.11 393.39,184.29 371.41,184.29 379.34,200.11 	"/>
</g>
<polygon class="Colour9 fill" points="340.75,249.26 325.68,249.26 333.21,234.22 "/>
<polygon class="Colour9 fill" points="329.52,234.27 319.32,254.64 309.11,234.27 "/>
<polygon class="Colour9 fill" points="319.32,262.57 290.96,262.57 305.14,234.27 "/>
<polygon class="Colour9 fill" points="301.17,234.27 290.96,254.64 280.75,234.27 "/>
<polygon class="Colour9 fill" points="277.16,234.27 284.69,249.3 269.63,249.3 "/>
<rect x="255.91" y="179.79" class="Colour10 fill" width="21.22" height="1.54"/>
<rect x="294.54" y="179.79" class="Colour10 fill" width="21.22" height="1.54"/>
<rect x="333.16" y="179.79" class="Colour10 fill" width="21.22" height="1.54"/>
<rect x="371.79" y="179.79" class="Colour10 fill" width="21.22" height="1.54"/>
<path class="Colour7 fill" d="M270.79,201.59l9.54-19.05h-27.63l9.54,19.05l-9.54,11.76h27.63L270.79,201.59z M255.53,184.29h21.98
	l-7.93,15.82l-3.06-3.78l-3.06,3.78L255.53,184.29z M268.86,201.55l-2.34,4.67l-2.34-4.67l2.34-2.82L268.86,201.55z M262.96,203.01
	l3.56,7.1l3.56-7.1l7.43,8.94h-21.98L262.96,203.01z"/>
<path class="Colour7 fill" d="M318.96,213.36l-9.54-11.76l9.54-19.05h-27.63l9.54,19.05l-9.54,11.76H318.96z M294.16,184.29h21.98
	l-7.93,15.82l-3.06-3.78l-3.06,3.78L294.16,184.29z M307.49,201.55l-2.34,4.67l-2.34-4.67l2.34-2.82L307.49,201.55z M301.59,203.01
	l3.56,7.1l3.56-7.1l7.43,8.94h-21.98L301.59,203.01z"/>
<path class="Colour7 fill" d="M357.59,213.36l-9.54-11.76l9.54-19.05h-27.63l9.54,19.05l-9.54,11.76H357.59z M332.78,184.29h21.98
	l-7.93,15.82l-3.06-3.78l-3.06,3.78L332.78,184.29z M346.11,201.55l-2.34,4.67l-2.34-4.67l2.34-2.82L346.11,201.55z M340.22,203.01
	l3.56,7.1l3.56-7.1l7.43,8.94h-21.98L340.22,203.01z"/>
<g>
	<polygon class="Colour10 fill" points="280.1,44.22 272.25,44.22 272.25,84.23 258.16,84.23 258.16,92.07 272.25,92.07 272.25,106.12 
		280.1,106.12 280.1,92.07 294.19,92.07 294.19,84.23 280.1,84.23 	"/>
	<polygon class="Colour10 fill" points="338.05,44.22 330.19,44.22 330.19,84.23 316.1,84.23 316.1,92.07 330.19,92.07 330.19,106.12 
		338.05,106.12 338.05,92.07 352.13,92.07 352.13,84.23 338.05,84.23 	"/>
	<polygon class="Colour10 fill" points="395.99,44.22 388.13,44.22 388.13,84.23 374.05,84.23 374.05,92.07 388.13,92.07 388.13,106.12 
		395.99,106.12 395.99,92.07 410.07,92.07 410.07,84.23 395.99,84.23 	"/>
</g>
<ellipse class="Colour1 fill" cx="305.15" cy="26.27" rx="8.72" ry="8.7"/>
<polygon class="Colour7 fill" points="253.78,115.73 247.21,115.73 247.21,125.22 "/>
<polygon class="Colour7 fill" points="274.85,115.73 261.71,115.73 268.28,125.22 "/>
<polygon class="Colour7 fill" points="295.92,115.73 282.78,115.73 289.35,125.22 "/>
<polygon class="Colour7 fill" points="316.99,115.73 303.84,115.73 310.42,125.22 "/>
<polygon class="Colour7 fill" points="338.06,115.73 324.91,115.73 331.48,125.22 "/>
<polygon class="Colour7 fill" points="359.13,115.73 345.98,115.73 352.55,125.22 "/>
<polygon class="Colour7 fill" points="380.19,115.73 367.05,115.73 373.62,125.22 "/>
<polygon class="Colour7 fill" points="401.26,115.73 388.12,115.73 394.69,125.22 "/>
<path class="Colour7 fill" d="M412.46,120.44c0.56-1.6,1.12-3.17,1.69-4.71h-4.95L412.46,120.44z"/>
<ellipse class="Colour6 fill" cx="380.38" cy="223.43" rx="3.28" ry="3.28"/>
<ellipse class="Colour6 fill" cx="345.62" cy="223.43" rx="3.28" ry="3.28"/>
<ellipse class="Colour6 fill" cx="310.86" cy="223.43" rx="3.28" ry="3.28"/>
<ellipse class="Colour6 fill" cx="276.1" cy="223.43" rx="3.28" ry="3.28"/>
<path class="Colour8 fill" d="M386.22,224.51h8.95c0.04-0.75,0.09-1.47,0.13-2.17h-9.08V224.51z"/>
<rect x="351.48" y="222.34" class="Colour8 fill" width="23.03" height="2.17"/>
<rect x="316.72" y="222.34" class="Colour8 fill" width="23.03" height="2.17"/>
<rect x="281.96" y="222.34" class="Colour8 fill" width="23.03" height="2.17"/>
<polygon class="Colour2 fill" points="390.09,132.71 365.34,140.58 390.09,148.45 "/>
<polygon class="Colour2 fill" points="336,148.45 360.75,140.58 336,132.71 "/>
<polygon class="Colour2 fill" points="312.89,148.45 312.89,132.71 288.14,140.58 "/>
<polygon class="Colour5 fill" points="396.72,132.71 371.97,140.58 396.72,148.45 "/>
<polygon class="Colour5 fill" points="319.52,148.45 319.52,132.71 294.77,140.58 "/>
<polygon class="Colour2 fill" points="258.8,132.71 258.8,148.45 283.55,140.58 "/>
<polygon class="Colour5 fill" points="329.01,148.45 353.76,140.58 329.01,132.71 "/>
<polygon class="Colour5 fill" points="251.82,132.71 251.82,148.45 276.57,140.58 "/>
<path class="st3" d="M319.32,262.57l-14.18-28.3l-14.18,28.3H319.32z M316.42,260.78h-22.56l11.28-22.52L316.42,260.78z"/>
<polygon class="Colour5 fill" points="313.98,259.34 305.14,241.69 296.29,259.34 "/>
<path class="st3" d="M329.52,234.27h-20.41l10.21,20.37L329.52,234.27z M327.44,235.55l-8.12,16.21l-8.12-16.21H327.44z"/>
<polygon class="Colour5 fill" points="325.68,236.59 312.95,236.59 319.32,249.3 "/>
<path class="st3" d="M301.17,234.27h-20.41l10.21,20.37L301.17,234.27z M299.08,235.55l-8.12,16.21l-8.12-16.21H299.08z"/>
<polygon class="Colour5 fill" points="297.33,236.59 284.59,236.59 290.96,249.3 "/>
<path class="st3" d="M277.16,234.27l-7.53,15.03h15.06L277.16,234.27z M277.16,236.39l5.99,11.96h-11.98L277.16,236.39z"/>
<polygon class="Colour5 fill" points="277.16,238.21 272.47,247.58 281.86,247.58 "/>
<path class="st3" d="M340.75,249.26l-7.53-15.03l-7.53,15.03H340.75z M339.21,248.31h-11.98l5.99-11.96L339.21,248.31z"/>
<polygon class="Colour5 fill" points="337.91,247.54 333.21,238.16 328.52,247.54 "/>
<polygon class="Colour2 fill" points="365.19,39.21 360.99,39.21 360.99,60.6 353.46,60.6 353.46,64.79 360.99,64.79 360.99,72.3 
	365.19,72.3 365.19,64.79 372.71,64.79 372.71,60.6 365.19,60.6 "/>
<polygon class="Colour2 fill" points="307.25,39.21 303.05,39.21 303.05,60.6 295.52,60.6 295.52,64.79 303.05,64.79 303.05,72.3 
	307.25,72.3 307.25,64.79 314.77,64.79 314.77,60.6 307.25,60.6 "/>
<g>
	<polygon class="Colour2 fill" points="249.3,72.3 249.3,64.79 256.83,64.79 256.83,60.6 249.3,60.6 249.3,39.21 247.21,39.21 
		247.21,72.3 	"/>
</g>
<g>
	<polygon class="Colour9 fill" points="413.1,94.98 408.25,104.67 403.39,94.98 	"/>
	<path class="st3" d="M413.1,94.98h-9.71l4.86,9.69L413.1,94.98z M412.11,95.59l-3.86,7.71l-3.86-7.71H412.11z"/>
	<polygon class="Colour5 fill" points="411.27,96.08 405.22,96.08 408.25,102.13 	"/>
</g>
<g>
	<g>
		<polygon class="Colour9 fill" points="380.73,94.98 375.87,104.67 371.02,94.98 		"/>
		<path class="st3" d="M380.73,94.98h-9.71l4.86,9.69L380.73,94.98z M379.73,95.59l-3.86,7.71l-3.86-7.71H379.73z"/>
		<polygon class="Colour5 fill" points="378.9,96.08 372.84,96.08 375.87,102.13 		"/>
	</g>
	<g>
		<polygon class="Colour9 fill" points="367.94,94.98 363.09,104.67 358.23,94.98 		"/>
		<path class="st3" d="M367.94,94.98h-9.71l4.86,9.69L367.94,94.98z M366.95,95.59l-3.86,7.71l-3.86-7.71H366.95z"/>
		<polygon class="Colour5 fill" points="366.12,96.08 360.06,96.08 363.09,102.13 		"/>
	</g>
	<g>
		<polygon class="Colour9 fill" points="355.16,94.98 350.31,104.67 345.45,94.98 		"/>
		<path class="st3" d="M355.16,94.98h-9.71l4.86,9.69L355.16,94.98z M354.17,95.59l-3.86,7.71l-3.86-7.71H354.17z"/>
		<polygon class="Colour5 fill" points="353.33,96.08 347.28,96.08 350.31,102.13 		"/>
	</g>
</g>
<g>
	<g>
		<polygon class="Colour9 fill" points="322.75,94.98 317.89,104.67 313.04,94.98 		"/>
		<path class="st3" d="M322.75,94.98h-9.71l4.86,9.69L322.75,94.98z M321.75,95.59l-3.86,7.71l-3.86-7.71H321.75z"/>
		<polygon class="Colour5 fill" points="320.92,96.08 314.86,96.08 317.89,102.13 		"/>
	</g>
	<g>
		<polygon class="Colour9 fill" points="309.96,94.98 305.11,104.67 300.25,94.98 		"/>
		<path class="st3" d="M309.96,94.98h-9.71l4.86,9.69L309.96,94.98z M308.97,95.59l-3.86,7.71l-3.86-7.71H308.97z"/>
		<polygon class="Colour5 fill" points="308.14,96.08 302.08,96.08 305.11,102.13 		"/>
	</g>
	<g>
		<polygon class="Colour9 fill" points="297.18,94.98 292.33,104.67 287.47,94.98 		"/>
		<path class="st3" d="M297.18,94.98h-9.71l4.86,9.69L297.18,94.98z M296.19,95.59l-3.86,7.71l-3.86-7.71H296.19z"/>
		<polygon class="Colour5 fill" points="295.35,96.08 289.3,96.08 292.33,102.13 		"/>
	</g>
</g>
<g>
	<path class="Colour9 fill" d="M263.85,95.59h-7.73l3.86,7.71L263.85,95.59z M263.02,96.08l-3.03,6.04l-3.03-6.04H263.02z"/>
	<path class="st3" d="M264.84,94.98h-9.71l4.86,9.69L264.84,94.98z M263.85,95.59l-3.86,7.71l-3.86-7.71H263.85z"/>
	<polygon class="Colour5 fill" points="263.02,96.08 256.96,96.08 259.99,102.13 	"/>
	<polygon class="Colour9 fill" points="251.07,95.59 247.21,95.59 247.21,96.08 250.23,96.08 247.21,102.13 247.21,102.13 247.21,103.3 
		247.21,103.3 	"/>
	<polygon class="st3" points="251.07,95.59 247.21,103.3 247.21,103.3 247.21,104.67 247.21,104.67 252.06,94.98 247.21,94.98 
		247.21,95.59 	"/>
	<polygon class="Colour5 fill" points="250.23,96.08 247.21,96.08 247.21,102.13 247.21,102.13 	"/>
</g>
<polygon class="Colour1 fill" points="280.81,165.34 283.1,165.34 283.1,167.62 285.38,167.62 285.38,169.9 286.33,169.9 286.33,167.62 
	288.62,167.62 288.62,165.34 290.91,165.34 290.91,163.06 293.19,163.06 293.19,162.11 290.91,162.11 290.91,159.82 288.62,159.82 
	288.62,157.54 286.33,157.54 286.33,155.26 285.38,155.26 285.38,157.54 283.1,157.54 283.1,159.82 280.81,159.82 280.81,162.11 
	278.52,162.11 278.52,163.06 280.81,163.06 "/>
<path class="Colour8 fill" d="M279.48,166.67h2.29v2.28h2.29v2.28h3.62v-2.28h2.29v-2.28h2.29v-2.28h2.29v-3.61h-2.29v-2.28l-2.29,0
	v-2.28l-2.29,0v-2.28h-3.62v2.28l-2.29,0v2.28h-2.29v2.28h-2.29v3.61h2.29V166.67z M278.52,163.06v-0.95h2.29v-2.28h2.29v-2.28h2.29
	v-2.28h0.95v2.28h2.29v2.28h2.29v2.28h2.29v0.95h-2.29v2.28h-2.29v2.28h-2.29v2.28h-0.95v-2.28h-2.29v-2.28h-2.29v-2.28H278.52z"/>
<polygon class="Colour1 fill" points="358.04,165.34 360.33,165.34 360.33,167.62 362.61,167.62 362.61,169.9 363.56,169.9 
	363.56,167.62 365.85,167.62 365.85,165.34 368.14,165.34 368.14,163.06 370.42,163.06 370.42,162.11 368.14,162.11 368.14,159.82 
	365.85,159.82 365.85,157.54 363.56,157.54 363.56,155.26 362.61,155.26 362.61,157.54 360.33,157.54 360.33,159.82 358.04,159.82 
	358.04,162.11 355.75,162.11 355.75,163.06 358.04,163.06 "/>
<path class="Colour8 fill" d="M356.71,166.67h2.29v2.28h2.29v2.28h3.62v-2.28h2.29v-2.28h2.29v-2.28h2.29v-3.61h-2.29v-2.28l-2.29,0
	v-2.28l-2.29,0v-2.28h-3.62v2.28l-2.29,0v2.28h-2.29v2.28h-2.29v3.61h2.29V166.67z M355.75,163.06v-0.95h2.29v-2.28h2.29v-2.28h2.29
	v-2.28h0.95v2.28h2.29v2.28h2.29v2.28h2.29v0.95h-2.29v2.28h-2.29v2.28h-2.29v2.28h-0.95v-2.28h-2.29v-2.28h-2.29v-2.28H355.75z"/>
<polygon class="Colour6 fill" points="264.89,290.19 264.89,279.19 251.58,279.19 251.58,265.9 247.21,265.9 247.21,290.19 "/>
<polygon class="Colour6 fill" points="380.78,290.19 380.78,279.19 367.46,279.19 367.46,265.9 358.72,265.9 358.72,279.19 345.4,279.19 
	345.4,290.19 "/>
<polygon class="Colour4 fill" points="372.03,274.62 372.03,261.33 354.14,261.33 354.14,274.62 340.83,274.62 340.83,290.19 
	345.4,290.19 345.4,279.19 358.72,279.19 358.72,265.9 367.46,265.9 367.46,279.19 380.78,279.19 380.78,290.19 385.35,290.19 
	385.35,274.62 "/>
<polygon class="Colour4 fill" points="256.15,274.62 256.15,261.33 247.21,261.33 247.21,265.9 251.58,265.9 251.58,279.19 
	264.89,279.19 264.89,290.19 269.47,290.19 269.47,274.62 "/>
<g>
	<path class="Colour2 fill" d="M393.36,257.15v1.26c0.11-2.38,0.23-4.69,0.34-6.93h-11.21v-16.52h-38.79v16.52h-16.55V268h-16.55v16.52
		h-10.87V268h-16.55l0-16.52H266.6v-16.52h-19.4v5.67h13.71v16.52h16.55v16.52h16.55v16.52l22.24,0v-16.52h16.55v-16.52h16.55
		v-16.52h27.43v16.52H393.36z"/>
</g>
<rect x="247.21" y="222.34" class="Colour8 fill" width="23.03" height="2.17"/>
<path class="st2" d="M223.49,248.31l-5.99-11.96l-5.99,11.96H223.49z M222.19,247.54h-9.39l4.7-9.38L222.19,247.54z"/>
<path class="st2" d="M200.7,260.78l-11.28-22.52l-11.28,22.52H200.7z M198.27,259.34h-17.69l8.84-17.65L198.27,259.34z"/>
<g>
	<path class="Colour1 fill" d="M288.4,15.89c-1.28,0.22-2.6,0.43-3.94,0.63l-8.29,11.97l-7.03-10.16c-1.09,0.09-2.2,0.18-3.32,0.26
		l10.36,14.96L288.4,15.89z"/>
	<path class="Colour1 fill" d="M228.62,18.55c-1.12-0.08-2.23-0.17-3.32-0.27l-7.07,10.21l-8.35-12.06c-1.35-0.21-2.66-0.43-3.95-0.65
		l12.31,17.77L228.62,18.55z"/>
	<path class="Colour1 fill" d="M177.43,8.8c-1.12-0.37-2.07-0.7-2.83-0.98l-14.31,20.67l-9.16-13.23c-0.89,0.36-1.8,0.73-2.73,1.11
		l11.9,17.18L177.43,8.8z"/>
</g>
<path class="st2" d="M211.72,235.55h-16.24l8.12,16.21L211.72,235.55z M209.97,236.59l-6.37,12.71l-6.37-12.71H209.97z"/>
<path class="st2" d="M183.36,235.55h-16.24l8.12,16.21L183.36,235.55z M181.61,236.59l-6.37,12.71l-6.37-12.71H181.61z"/>
<path class="st2" d="M161.45,236.39l-5.99,11.96h11.98L161.45,236.39z M161.45,238.21l4.7,9.38h-9.39L161.45,238.21z"/>
<g>
	<polygon class="Colour6 fill" points="238.88,211.95 231.45,203.01 227.89,210.11 224.33,203.01 216.9,211.95 	"/>
	<polygon class="Colour6 fill" points="200.25,211.95 192.82,203.01 189.26,210.11 185.71,203.01 178.27,211.95 	"/>
	<polygon class="Colour6 fill" points="123,211.95 115.57,203.01 112.01,210.11 108.45,203.01 101.02,211.95 	"/>
	<polygon class="Colour6 fill" points="161.63,211.95 154.19,203.01 150.64,210.11 147.08,203.01 139.65,211.95 	"/>
</g>
<g>
	<polygon class="Colour8 fill" points="225.55,201.55 227.89,206.22 230.23,201.55 227.89,198.73 	"/>
	<polygon class="Colour8 fill" points="186.92,201.55 189.26,206.22 191.6,201.55 189.26,198.73 	"/>
	<polygon class="Colour8 fill" points="109.67,201.55 112.01,206.22 114.35,201.55 112.01,198.73 	"/>
	<polygon class="Colour8 fill" points="148.3,201.55 150.64,206.22 152.98,201.55 150.64,198.73 	"/>
</g>
<polygon class="Colour1 fill" points="227.89,196.33 230.96,200.11 238.88,184.29 216.9,184.29 224.83,200.11 "/>
<polygon class="Colour1 fill" points="189.26,196.33 192.33,200.11 200.25,184.29 178.27,184.29 186.2,200.11 "/>
<polygon class="Colour1 fill" points="112.01,196.33 115.07,200.11 123,184.29 101.02,184.29 108.95,200.11 "/>
<polygon class="Colour1 fill" points="150.64,196.33 153.7,200.11 161.63,184.29 139.65,184.29 147.57,200.11 "/>
<polygon class="Colour9 fill" points="225.03,249.26 209.97,249.26 217.5,234.22 "/>
<polygon class="Colour9 fill" points="213.81,234.27 203.6,254.64 193.39,234.27 "/>
<polygon class="Colour9 fill" points="203.6,262.57 175.24,262.57 189.42,234.27 "/>
<polygon class="Colour9 fill" points="185.45,234.27 175.24,254.64 165.04,234.27 "/>
<polygon class="Colour9 fill" points="161.45,234.27 168.98,249.3 153.92,249.3 "/>
<polygon class="Colour2 fill" points="235.61,148.45 235.61,132.71 210.86,140.58 "/>
<polygon class="Colour2 fill" points="181.52,148.45 206.27,140.58 181.52,132.71 "/>
<rect x="101.4" y="179.79" class="Colour10 fill" width="21.22" height="1.54"/>
<rect x="140.02" y="179.79" class="Colour10 fill" width="21.22" height="1.54"/>
<rect x="178.65" y="179.79" class="Colour10 fill" width="21.22" height="1.54"/>
<rect x="217.28" y="179.79" class="Colour10 fill" width="21.22" height="1.54"/>
<polygon class="Colour10 fill" points="106.28,44.22 98.42,44.22 98.42,84.23 84.34,84.23 84.34,92.07 98.42,92.07 98.42,106.12 
	106.28,106.12 106.28,92.07 120.37,92.07 120.37,84.23 106.28,84.23 "/>
<polygon class="Colour10 fill" points="164.22,44.22 156.37,44.22 156.37,84.23 142.28,84.23 142.28,92.07 156.37,92.07 156.37,106.12 
	164.22,106.12 164.22,92.07 178.31,92.07 178.31,84.23 164.22,84.23 "/>
<polygon class="Colour10 fill" points="222.16,44.22 214.31,44.22 214.31,84.23 200.22,84.23 200.22,92.07 214.31,92.07 214.31,106.12 
	222.16,106.12 222.16,92.07 236.25,92.07 236.25,84.23 222.16,84.23 "/>
<g>
	<path class="Colour2 fill" d="M284.46,16.52c-4.75,0.72-9.87,1.34-15.32,1.81l7.03,10.16L284.46,16.52z"/>
	<path class="Colour2 fill" d="M225.3,18.28c-5.49-0.48-10.65-1.12-15.42-1.86l8.35,12.06L225.3,18.28z"/>
	<path class="Colour2 fill" d="M151.13,15.26l9.16,13.23L174.6,7.82c-1.49-0.54-2.27-0.86-2.27-0.86l-0.12-0.01
		C172.21,6.95,163.64,10.19,151.13,15.26z"/>
</g>
<ellipse class="Colour1 fill" cx="189.26" cy="26.27" rx="8.72" ry="8.7"/>
<polygon class="Colour7 fill" points="106.29,115.73 93.15,115.73 99.72,125.22 "/>
<polygon class="Colour7 fill" points="127.36,115.73 114.22,115.73 120.79,125.22 "/>
<polygon class="Colour7 fill" points="148.43,115.73 135.29,115.73 141.86,125.22 "/>
<polygon class="Colour7 fill" points="169.5,115.73 156.36,115.73 162.93,125.22 "/>
<polygon class="Colour7 fill" points="190.57,115.73 177.43,115.73 184,125.22 "/>
<polygon class="Colour7 fill" points="211.64,115.73 198.5,115.73 205.07,125.22 "/>
<polygon class="Colour7 fill" points="232.71,115.73 219.57,115.73 226.14,125.22 "/>
<polygon class="Colour7 fill" points="247.21,125.22 247.21,115.73 240.63,115.73 "/>
<g>
	<path class="Colour2 fill" d="M247.21,113.9v-2.52H79.22c0.32,0.83,0.64,1.67,0.96,2.52H247.21z"/>
</g>
<ellipse class="Colour6 fill" cx="218.11" cy="223.43" rx="3.28" ry="3.28"/>
<ellipse class="Colour6 fill" cx="183.35" cy="223.43" rx="3.28" ry="3.28"/>
<ellipse class="Colour6 fill" cx="148.62" cy="223.43" rx="3.28" ry="3.28"/>
<ellipse class="Colour6 fill" cx="113.86" cy="223.43" rx="3.28" ry="3.28"/>
<rect x="189.21" y="222.34" class="Colour8 fill" width="23.03" height="2.17"/>
<rect x="154.45" y="222.34" class="Colour8 fill" width="23.03" height="2.17"/>
<rect x="119.72" y="222.34" class="Colour8 fill" width="23.03" height="2.17"/>
<polygon class="Colour2 fill" points="158.32,132.71 133.57,140.58 158.32,148.45 "/>
<polygon class="Colour2 fill" points="104.23,148.45 128.98,140.58 104.23,132.71 "/>
<polygon class="Colour5 fill" points="242.24,148.45 242.24,132.71 217.49,140.58 "/>
<polygon class="Colour5 fill" points="164.95,132.71 140.2,140.58 164.95,148.45 "/>
<polygon class="Colour5 fill" points="174.53,148.45 199.28,140.58 174.53,132.71 "/>
<polygon class="Colour5 fill" points="97.25,148.45 122,140.58 97.25,132.71 "/>
<path class="Colour5 fill" d="M101.45,238.16l-0.75,1.49c0.14,2.51,0.27,5.14,0.41,7.89h5.03L101.45,238.16z"/>
<path class="st3" d="M101.45,234.22l-0.94,1.88c0.03,0.63,0.07,1.27,0.11,1.91l0.83-1.67l5.99,11.96h-6.28
	c0.02,0.31,0.03,0.63,0.05,0.95h7.77L101.45,234.22z"/>
<path class="Colour9 fill" d="M101.45,234.22l-0.94,1.88c0.22,4.04,0.46,8.44,0.7,13.16h7.77L101.45,234.22z"/>
<path class="st3" d="M203.6,262.57l-14.18-28.3l-14.18,28.3H203.6z M200.7,260.78h-22.56l11.28-22.52L200.7,260.78z"/>
<polygon class="Colour5 fill" points="198.27,259.34 189.42,241.69 180.58,259.34 "/>
<path class="st3" d="M213.81,234.27h-20.41l10.21,20.37L213.81,234.27z M211.72,235.55l-8.12,16.21l-8.12-16.21H211.72z"/>
<polygon class="Colour5 fill" points="209.97,236.59 197.23,236.59 203.6,249.3 "/>
<path class="st3" d="M185.45,234.27h-20.41l10.21,20.37L185.45,234.27z M183.36,235.55l-8.12,16.21l-8.12-16.21H183.36z"/>
<polygon class="Colour5 fill" points="181.61,236.59 168.88,236.59 175.24,249.3 "/>
<path class="st3" d="M161.45,234.27l-7.53,15.03h15.06L161.45,234.27z M161.45,236.39l5.99,11.96h-11.98L161.45,236.39z"/>
<polygon class="Colour5 fill" points="161.45,238.21 156.75,247.58 166.14,247.58 "/>
<path class="st3" d="M225.03,249.26l-7.53-15.03l-7.53,15.03H225.03z M223.49,248.31h-11.98l5.99-11.96L223.49,248.31z"/>
<polygon class="Colour5 fill" points="222.19,247.54 217.5,238.16 212.8,247.54 "/>
<polygon class="Colour2 fill" points="191.36,39.21 187.16,39.21 187.16,60.6 179.64,60.6 179.64,64.79 187.16,64.79 187.16,72.3 
	191.36,72.3 191.36,64.79 198.89,64.79 198.89,60.6 191.36,60.6 "/>
<polygon class="Colour2 fill" points="133.42,39.21 129.22,39.21 129.22,60.6 121.7,60.6 121.7,64.79 129.22,64.79 129.22,72.3 
	133.42,72.3 133.42,64.79 140.95,64.79 140.95,60.6 133.42,60.6 "/>
<g>
	<polygon class="Colour2 fill" points="245.11,64.79 245.11,72.3 247.21,72.3 247.21,39.21 245.11,39.21 245.11,60.6 237.58,60.6 
		237.58,64.79 	"/>
</g>
<rect x="110.02" y="76.15" class="Colour3 fill" width="42.6" height="3.45"/>
<rect x="167.96" y="76.15" class="Colour3 fill" width="42.6" height="3.45"/>
<rect x="225.91" y="76.15" class="Colour3 fill" width="21.3" height="3.45"/>
<g>
	<g>
		<polygon class="Colour9 fill" points="206.9,94.98 202.05,104.67 197.19,94.98 		"/>
		<path class="st3" d="M206.9,94.98h-9.71l4.86,9.69L206.9,94.98z M205.91,95.59l-3.86,7.71l-3.86-7.71H205.91z"/>
		<polygon class="Colour5 fill" points="205.07,96.08 199.02,96.08 202.05,102.13 		"/>
	</g>
	<g>
		<polygon class="Colour9 fill" points="194.12,94.98 189.26,104.67 184.41,94.98 		"/>
		<path class="st3" d="M194.12,94.98h-9.71l4.86,9.69L194.12,94.98z M193.13,95.59l-3.86,7.71l-3.86-7.71H193.13z"/>
		<polygon class="Colour5 fill" points="192.29,96.08 186.24,96.08 189.26,102.13 		"/>
	</g>
	<g>
		<polygon class="Colour9 fill" points="181.34,94.98 176.48,104.67 171.63,94.98 		"/>
		<path class="st3" d="M181.34,94.98h-9.71l4.86,9.69L181.34,94.98z M180.34,95.59l-3.86,7.71l-3.86-7.71H180.34z"/>
		<polygon class="Colour5 fill" points="179.51,96.08 173.45,96.08 176.48,102.13 		"/>
	</g>
</g>
<g>
	<g>
		<polygon class="Colour9 fill" points="148.96,94.98 144.11,104.67 139.25,94.98 		"/>
		<path class="st3" d="M148.96,94.98h-9.71l4.86,9.69L148.96,94.98z M147.97,95.59l-3.86,7.71l-3.86-7.71H147.97z"/>
		<polygon class="Colour5 fill" points="147.13,96.08 141.08,96.08 144.11,102.13 		"/>
	</g>
	<g>
		<polygon class="Colour9 fill" points="136.18,94.98 131.32,104.67 126.47,94.98 		"/>
		<path class="st3" d="M136.18,94.98h-9.71l4.86,9.69L136.18,94.98z M135.19,95.59l-3.86,7.71l-3.86-7.71H135.19z"/>
		<polygon class="Colour5 fill" points="134.35,96.08 128.29,96.08 131.32,102.13 		"/>
	</g>
	<g>
		<polygon class="Colour9 fill" points="123.39,94.98 118.54,104.67 113.68,94.98 		"/>
		<path class="st3" d="M123.39,94.98h-9.71l4.86,9.69L123.39,94.98z M122.4,95.59l-3.86,7.71l-3.86-7.71H122.4z"/>
		<polygon class="Colour5 fill" points="121.57,96.08 115.51,96.08 118.54,102.13 		"/>
	</g>
</g>
<g>
	<polygon class="Colour9 fill" points="90.98,94.98 86.13,104.67 81.27,94.98 	"/>
	<path class="st3" d="M90.98,94.98h-9.71l4.86,9.69L90.98,94.98z M89.99,95.59l-3.86,7.71l-3.86-7.71H89.99z"/>
	<polygon class="Colour5 fill" points="89.15,96.08 83.1,96.08 86.13,102.13 	"/>
</g>
<g>
	<path class="Colour9 fill" d="M234.42,103.3l3.86-7.71h-7.73L234.42,103.3z M237.45,96.08l-3.03,6.04l-3.03-6.04H237.45z"/>
	<path class="st3" d="M234.42,104.67l4.86-9.69h-9.71L234.42,104.67z M238.29,95.59l-3.86,7.71l-3.86-7.71H238.29z"/>
	<polygon class="Colour5 fill" points="231.39,96.08 237.45,96.08 234.42,102.13 	"/>
	<polygon class="Colour9 fill" points="243.34,95.59 247.21,95.59 247.21,96.08 244.18,96.08 247.21,102.13 247.21,102.13 247.21,103.3 
		247.21,103.3 	"/>
	<polygon class="st3" points="243.34,95.59 247.21,103.3 247.21,103.3 247.21,104.67 247.21,104.67 242.35,94.98 247.21,94.98 
		247.21,95.59 	"/>
	<polygon class="Colour5 fill" points="244.18,96.08 247.21,96.08 247.21,102.13 247.21,102.13 	"/>
</g>
<polygon class="Colour1 fill" points="126.27,165.34 128.56,165.34 128.56,167.62 130.85,167.62 130.85,169.9 131.8,169.9 131.8,167.62 
	134.08,167.62 134.08,165.34 136.37,165.34 136.37,163.06 138.66,163.06 138.66,162.11 136.37,162.11 136.37,159.82 134.08,159.82 
	134.08,157.54 131.8,157.54 131.8,155.26 130.85,155.26 130.85,157.54 128.56,157.54 128.56,159.82 126.27,159.82 126.27,162.11 
	123.99,162.11 123.99,163.06 126.27,163.06 "/>
<path class="Colour8 fill" d="M124.94,166.67h2.29v2.28h2.29v2.28h3.62v-2.28h2.29v-2.28h2.29v-2.28h2.29v-3.61h-2.29v-2.28l-2.29,0
	v-2.28l-2.29,0v-2.28h-3.62v2.28l-2.29,0v2.28h-2.29v2.28h-2.29v3.61h2.29V166.67z M123.99,163.06v-0.95h2.29v-2.28h2.29v-2.28h2.29
	v-2.28h0.95v2.28h2.29v2.28h2.29v2.28h2.29v0.95h-2.29v2.28h-2.29v2.28h-2.29v2.28h-0.95v-2.28h-2.29v-2.28h-2.29v-2.28H123.99z"/>
<polygon class="Colour1 fill" points="203.56,165.34 205.85,165.34 205.85,167.62 208.14,167.62 208.14,169.9 209.09,169.9 
	209.09,167.62 211.37,167.62 211.37,165.34 213.66,165.34 213.66,163.06 215.95,163.06 215.95,162.11 213.66,162.11 213.66,159.82 
	211.37,159.82 211.37,157.54 209.09,157.54 209.09,155.26 208.14,155.26 208.14,157.54 205.85,157.54 205.85,159.82 203.56,159.82 
	203.56,162.11 201.28,162.11 201.28,163.06 203.56,163.06 "/>
<path class="Colour8 fill" d="M202.23,166.67h2.29v2.28h2.29v2.28h3.62l0-2.28h2.29v-2.28h2.29v-2.28h2.29v-3.61h-2.29v-2.28l-2.29,0
	v-2.28l-2.29,0v-2.28h-3.62v2.28l-2.29,0v2.28h-2.29v2.28h-2.29v3.61h2.29V166.67z M201.28,163.06v-0.95h2.29v-2.28h2.29v-2.28h2.29
	v-2.28h0.95v2.28h2.29v2.28h2.29v2.28h2.29v0.95h-2.29v2.28h-2.29v2.28h-2.29v2.28h-0.95v-2.28h-2.29v-2.28h-2.29v-2.28H201.28z"/>
<path class="Colour1 fill" d="M238.48,26.27c0,4.81,3.9,8.7,8.72,8.7v-17.4C242.39,17.56,238.48,21.46,238.48,26.27z"/>
<rect x="223.97" y="222.34" class="Colour8 fill" width="23.23" height="2.17"/>
<polygon class="Colour6 fill" points="149.01,290.19 149.01,279.19 135.7,279.19 135.7,265.9 126.95,265.9 126.95,279.19 113.63,279.19 
	113.63,290.19 "/>
<polygon class="Colour6 fill" points="247.21,290.19 247.21,265.9 242.83,265.9 242.83,279.19 229.52,279.19 229.52,290.19 "/>
<polygon class="Colour4 fill" points="140.27,274.62 140.27,261.33 122.38,261.33 122.38,274.62 109.06,274.62 109.06,290.19 
	113.63,290.19 113.63,279.19 126.95,279.19 126.95,265.9 135.7,265.9 135.7,279.19 149.01,279.19 149.01,290.19 153.58,290.19 
	153.58,274.62 "/>
<polygon class="Colour4 fill" points="242.83,279.19 242.83,265.9 247.21,265.9 247.21,261.33 238.26,261.33 238.26,274.62 
	224.94,274.62 224.94,290.19 229.52,290.19 229.52,279.19 "/>
<path class="Colour2 fill" d="M411.4,60.6v4.19h7.53v7.51h4.2v-7.51h7.53V60.6h-7.53v-8.26c-1.34-0.82-2.74-1.64-4.2-2.47V60.6H411.4z"/>
<path class="Colour3 fill" d="M393.8,36.95c-1.7-0.81-3.42-1.61-5.14-2.41l3.41,4.92L393.8,36.95z"/>
<rect x="341.79" y="76.15" class="Colour3 fill" width="42.6" height="3.45"/>
<path class="Colour5 fill" d="M420.24,100.56c0.67-1.54,1.34-3.03,2-4.47H418L420.24,100.56z"/>
<path class="st3" d="M419.65,101.92c0.11-0.25,0.21-0.49,0.32-0.74l-2.8-5.59h5.3c0.09-0.2,0.19-0.41,0.28-0.61h-6.57L419.65,101.92
	z"/>
<g>
	<path class="Colour2 fill" d="M247.21,111.37v2.52h167.62c0.32-0.85,0.64-1.69,0.96-2.52H247.21z"/>
</g>
<path class="Colour5 fill" d="M408.28,133.34l-1.98-0.63v7.6C406.94,137.94,407.6,135.61,408.28,133.34z"/>
<path class="Colour7 fill" d="M368.59,182.55l9.54,19.05l-9.54,11.76h27.28c0.01-0.13,0.02-0.27,0.03-0.4l-9.22-11.37l9.54-19.05H368.59z
	 M393.39,211.95h-21.98l7.43-8.94l3.56,7.1l3.56-7.1L393.39,211.95z M380.06,201.55l2.34-2.82l2.34,2.82l-2.34,4.67L380.06,201.55z
	 M385.47,200.11l-3.06-3.78l-3.06,3.78l-7.93-15.82h21.98L385.47,200.11z"/>
<path class="st3" d="M385.68,249.3h8.12c0.02-0.32,0.03-0.64,0.05-0.95h-6.63l5.99-11.96l1.15,2.29c0.04-0.65,0.07-1.28,0.1-1.91
	l-1.25-2.5L385.68,249.3z"/>
<path class="Colour5 fill" d="M393.21,238.21l-4.7,9.38h5.37c0.13-2.52,0.26-4.94,0.38-7.26L393.21,238.21z"/>
<path class="Colour9 fill" d="M393.21,234.27l-7.53,15.03h8.12c0.23-4.47,0.45-8.66,0.66-12.53L393.21,234.27z"/>
<g>
	<path class="Colour2 fill" d="M376.8,323.24v16.52h-27.43v-16.52h-16.55l0-16.52h-16.55v-16.52l-22.24,0v16.52h-16.55v16.52h-16.55
		l0,16.52h-13.71v5.67h19.4v-16.52h16.55l0-16.52h16.55v-16.52h10.87v16.52h16.55v16.52h16.55v16.52h38.79v-16.52h8.35
		c0.05-1.9,0.09-3.8,0.14-5.67H376.8z"/>
</g>
<path class="st3" d="M390.56,341.37c0.01-0.68,0.03-1.36,0.04-2.04l-3.63-7.25h3.79c0.01-0.32,0.01-0.63,0.02-0.95h-5.35
	L390.56,341.37z"/>
<path class="Colour5 fill" d="M390.64,337.58c0.03-1.59,0.07-3.16,0.1-4.73h-2.48L390.64,337.58z"/>
<path class="Colour9 fill" d="M390.56,341.37c0.07-3.45,0.14-6.86,0.22-10.24h-5.35L390.56,341.37z"/>
<path class="Colour8 fill" d="M386.42,358.05h3.86c0.01-0.73,0.02-1.45,0.03-2.17h-3.89V358.05z"/>
<path class="Colour7 fill" d="M378.13,378.79l-9.54,19.05h21.43c0-0.58,0-1.16,0-1.74h-18.61l7.93-15.82l3.06,3.78l3.06-3.78l4.56,9.09
	c0-1.29,0.01-2.58,0.01-3.87l-3.36-6.71l3.43-4.22c0.01-0.73,0.01-1.47,0.02-2.2l-4.15,5l-3.56-7.1l-3.56,7.1l-7.43-8.94h18.74
	c0-0.47,0.01-0.93,0.01-1.4h-21.58L378.13,378.79z M382.4,374.17l2.34,4.67l-2.34,2.82l-2.34-2.82L382.4,374.17z"/>
<path class="Colour10 fill" d="M371.79,400.6h18.23c0-0.51,0-1.03,0-1.54h-18.23V400.6z"/>
<path class="Colour5 fill" d="M390.57,445.58c-0.09-3.83-0.16-7.66-0.23-11.47l-17.93,5.7L390.57,445.58z"/>
<path class="Colour7 fill" d="M391.09,464.66c-0.04-1.37-0.09-2.74-0.13-4.1l-2.84,4.1H391.09z"/>
<g>
	<path class="Colour2 fill" d="M247.21,466.49v2.52h144.03c-0.03-0.84-0.06-1.68-0.09-2.52H247.21z"/>
</g>
<path class="Colour10 fill" d="M394.95,536.17c-1.6-20.27-2.75-41.07-3.53-61.91h-3.29v14.06h-14.09v7.84h14.09v40.01H394.95z"/>
<path class="Colour2 fill" d="M392.06,551.9l-3.14,4.53c2.16-0.76,3.78-1.41,4.94-1.93L392.06,551.9z"/>
<path class="Colour1 fill" d="M392.06,551.9l1.8,2.6c1.84-0.83,2.56-1.31,2.56-1.31c0-0.02,0-0.04-0.01-0.06l-4.35-6.29l-7.65,11.05
	c1.72-0.52,3.22-1,4.51-1.46L392.06,551.9z"/>
<path class="Colour3 fill" d="M334.12,546.84l13.03,18.81c1.27-0.19,2.49-0.38,3.69-0.57l-16.72-24.15l-19.88,28.71
	c1.49-0.15,2.96-0.29,4.4-0.44L334.12,546.84z"/>
<path class="Colour1 fill" d="M334.12,551.9l9.85,14.22c1.08-0.16,2.14-0.31,3.18-0.47l-13.03-18.81l-15.49,22.37
	c1.28-0.13,2.54-0.26,3.78-0.4L334.12,551.9z"/>
<path class="Colour2 fill" d="M334.12,551.9l-11.71,16.91c7.97-0.86,15.14-1.77,21.55-2.69L334.12,551.9z"/>
<path class="Colour3 fill" d="M253.45,573.75c1.43-0.06,2.82-0.13,4.22-0.19l18.5-26.72l17.04,24.61c1.31-0.1,2.61-0.2,3.88-0.3
	l-20.92-30.22L253.45,573.75z"/>
<path class="Colour1 fill" d="M276.18,551.9l13.7,19.79c1.13-0.08,2.23-0.16,3.33-0.25l-17.04-24.61l-18.5,26.72
	c1.22-0.06,2.43-0.11,3.62-0.17L276.18,551.9z"/>
<path class="Colour2 fill" d="M276.18,551.9l-14.88,21.49c10.26-0.5,19.78-1.07,28.58-1.7L276.18,551.9z"/>
<path class="Colour3 fill" d="M197.34,571.1c1.28,0.1,2.57,0.2,3.88,0.3l17.01-24.56l18.48,26.7c1.4,0.06,2.8,0.13,4.22,0.19l-22.71-32.8
	L197.34,571.1z"/>
<path class="Colour1 fill" d="M201.23,571.4c1.1,0.08,2.21,0.17,3.33,0.25l13.67-19.75l14.86,21.46c1.2,0.06,2.4,0.12,3.63,0.17
	l-18.48-26.7L201.23,571.4z"/>
<path class="Colour2 fill" d="M204.56,571.65c8.79,0.63,18.29,1.21,28.53,1.71l-14.86-21.46L204.56,571.65z"/>
<path class="Colour3 fill" d="M143.63,564.99c1.2,0.19,2.43,0.38,3.69,0.57l12.97-18.73l15.44,22.3c1.44,0.15,2.91,0.3,4.4,0.44
	l-19.84-28.65L143.63,564.99z"/>
<path class="Colour1 fill" d="M147.32,565.57c1.04,0.16,2.1,0.31,3.18,0.47l9.79-14.14l11.66,16.84c1.24,0.14,2.5,0.27,3.78,0.4
	l-15.44-22.3L147.32,565.57z"/>
<path class="Colour2 fill" d="M150.5,566.04c6.38,0.92,13.51,1.83,21.45,2.7l-11.66-16.84L150.5,566.04z"/>
<path class="Colour1 fill" d="M140.04,554.12c0-4.81-3.9-8.7-8.72-8.7c-4.82,0-8.72,3.9-8.72,8.7c0,3.64,2.25,6.76,5.43,8.06
	c1.04,0.21,2.13,0.43,3.24,0.64c0.02,0,0.04,0,0.05,0C136.14,562.82,140.04,558.93,140.04,554.12z"/>
<path class="Colour2 fill" d="M100.7,554.29c1.05,0.49,2.55,1.12,4.6,1.86l-2.94-4.25L100.7,554.29z"/>
<path class="Colour2 fill" d="M343.41,15.07c-12.25-4.96-20.61-8.12-20.61-8.12l-0.12,0.01c0,0-0.96,0.39-2.75,1.03l14.19,20.5
	L343.41,15.07z"/>
<path class="Colour1 fill" d="M346.14,16.18c-0.93-0.38-1.85-0.75-2.74-1.11l-9.29,13.42l-14.19-20.5c-0.79,0.28-1.73,0.6-2.83,0.97
	l17.03,24.59L346.14,16.18z"/>
<path class="Colour3 fill" d="M349.33,17.48c-1.09-0.45-2.15-0.88-3.19-1.3l-12.03,17.37L317.09,8.96c-0.99,0.33-2.12,0.68-3.36,1.06
	l20.38,29.44L349.33,17.48z"/>
<g>
	<path class="Colour3 fill" d="M100.76,37.16l1.59,2.29l3.12-4.51C103.89,35.68,102.32,36.42,100.76,37.16z"/>
	<path class="Colour3 fill" d="M180.78,9.87c-1.25-0.38-2.37-0.74-3.35-1.07l-17.14,24.75l-11.9-17.18c-1.04,0.42-2.1,0.86-3.19,1.3
		l15.08,21.78L180.78,9.87z"/>
	<path class="Colour3 fill" d="M293.08,15.04c-1.51,0.29-3.07,0.57-4.67,0.84l-12.23,17.66l-10.36-14.96c-1.29,0.09-2.6,0.17-3.92,0.25
		l14.28,20.62L293.08,15.04z"/>
	<path class="Colour3 fill" d="M232.53,18.81c-1.32-0.08-2.63-0.16-3.91-0.26l-10.39,15l-12.31-17.77c-1.61-0.28-3.17-0.56-4.68-0.86
		l16.99,24.54L232.53,18.81z"/>
</g>
<path class="Colour2 fill" d="M71.28,52.71v7.89h-7.53v4.19h7.53v7.51h4.2v-7.51h7.53V60.6h-7.53V50.21
	C74.02,51.05,72.62,51.88,71.28,52.71z"/>
<path class="Colour3 fill" d="M94.68,76.15H62.61c0.61,1.07,1.26,2.22,1.93,3.45h30.15V76.15z"/>
<path class="Colour5 fill" d="M76.37,96.08h-3.6c0.56,1.23,1.13,2.49,1.7,3.79L76.37,96.08z"/>
<path class="st3" d="M77.21,95.59l-2.46,4.91c0.11,0.24,0.21,0.48,0.32,0.73l3.13-6.26h-5.93c0.09,0.2,0.19,0.41,0.28,0.61H77.21z"
	/>
<path class="Colour7 fill" d="M85.22,115.73h-4.36c0.5,1.35,1,2.74,1.49,4.14L85.22,115.73z"/>
<path class="Colour5 fill" d="M87.76,136.87v-4.17l-1.11,0.35C87.02,134.32,87.39,135.59,87.76,136.87z"/>
<path class="Colour8 fill" d="M107.99,222.34h-8.28c0.04,0.71,0.09,1.43,0.13,2.17h8.15V222.34z"/>
<g>
	<path class="Colour2 fill" d="M247.21,234.96h-19.4v16.52h-16.55V268H194.7v16.52h-10.87V268h-16.55v-16.52h-16.55v-16.52h-38.79v16.52
		h-10.61c0.09,1.85,0.18,3.73,0.28,5.67h16.02v-16.52h27.43v16.52h16.55v16.52h16.55v16.52l22.24,0v-16.52h16.55v-16.52h16.55
		v-16.52h13.71V234.96z"/>
</g>
<g>
	<path class="Colour2 fill" d="M247.21,345.43v-5.67h-13.71v-16.52h-16.55v-16.52h-16.55v-16.52l-22.24,0v16.52h-16.55v16.52h-16.55
		v16.52h-27.43v-16.52h-13.58c0.05,1.88,0.1,3.77,0.14,5.67h7.75v16.52h38.79v-16.52h16.55v-16.52h16.55l0-16.52h10.87l0,16.52
		h16.55v16.52h16.55v16.52H247.21z"/>
</g>
<path class="Colour8 fill" d="M108.19,355.87h-3.49c0.01,0.72,0.02,1.45,0.03,2.17h3.46V355.87z"/>
<path class="Colour7 fill" d="M104.84,367.03c0,0.47,0.01,0.93,0.01,1.4H123l-7.43,8.94l-3.56-7.1l-3.56,7.1l-3.55-4.27
	c0.01,0.74,0.01,1.48,0.02,2.22l2.82,3.48l-2.77,5.53c0.01,1.29,0.01,2.57,0.01,3.87l3.96-7.91l3.06,3.78l3.06-3.78L123,396.1
	h-18.01c0,0.58,0,1.16,0,1.74h20.83l-9.54-19.05l9.54-11.76H104.84z M112.01,381.65l-2.34-2.82l2.34-4.67l2.34,4.67L112.01,381.65z"
	/>
<path class="Colour6 fill" d="M112.01,370.27l3.56,7.1l7.43-8.94h-18.14c0.02,1.55,0.03,3.11,0.04,4.67l3.55,4.27L112.01,370.27z"/>
<path class="Colour1 fill" d="M123,396.1l-7.93-15.82l-3.06,3.78l-3.06-3.78l-3.96,7.91c0.01,2.63,0.01,5.26,0.01,7.91H123z"/>
<path class="Colour10 fill" d="M122.62,399.06h-17.63c0,0.51,0,1.03,0,1.54h17.63V399.06z"/>
<path class="Colour5 fill" d="M104.67,434.16c-0.06,3.78-0.14,7.58-0.22,11.38l18-5.72L104.67,434.16z"/>
<path class="Colour7 fill" d="M104.02,461.39c-0.03,1.09-0.07,2.18-0.1,3.27h2.37L104.02,461.39z"/>
<g>
	<path class="Colour2 fill" d="M247.21,469.01v-2.52H103.86c-0.03,0.84-0.06,1.68-0.09,2.52H247.21z"/>
</g>
<path class="Colour10 fill" d="M106.28,496.16h14.09v-7.84h-14.09v-14.06h-2.69c-0.78,20.83-1.92,41.64-3.53,61.91h6.22V496.16z"/>
<g>
	<path class="Colour10 fill" d="M247.21,228.48v3.03h147.55c0.06-1.04,0.12-2.05,0.17-3.03H247.21z"/>
</g>
<g>
	<path class="Colour10 fill" d="M247.21,231.51v-3.03H100.08c0.06,0.98,0.12,1.99,0.17,3.03H247.21z"/>
</g>
<g>
	<path class="Colour10 fill" d="M247.21,348.88v3.03h143.16c0.02-1.01,0.03-2.02,0.05-3.03H247.21z"/>
</g>
<path class="st2" d="M104.25,332.04c0.01,0.25,0.01,0.51,0.02,0.77h1.63l-1.56,3.11c0.01,0.58,0.02,1.16,0.04,1.74l2.82-5.62H104.25
	z"/>
<path class="st2" d="M390.6,339.33c0.01-0.58,0.02-1.17,0.04-1.75l-2.37-4.73h2.48c0.01-0.26,0.01-0.51,0.02-0.77h-3.79
	L390.6,339.33z"/>
<polygon class="Colour6 fill" points="255.53,368.43 262.96,377.37 266.52,370.27 270.08,377.37 277.51,368.43 "/>
<polygon class="Colour6 fill" points="294.16,368.43 301.59,377.37 305.15,370.27 308.7,377.37 316.14,368.43 "/>
<polygon class="Colour6 fill" points="332.78,368.43 340.22,377.37 343.77,370.27 347.33,377.37 354.76,368.43 "/>
<polygon class="Colour1 fill" points="266.52,384.06 263.46,380.28 255.53,396.1 277.51,396.1 269.58,380.28 "/>
<polygon class="Colour1 fill" points="305.15,384.06 302.08,380.28 294.16,396.1 316.14,396.1 308.21,380.28 "/>
<polygon class="Colour1 fill" points="343.77,384.06 340.71,380.28 332.78,396.1 354.76,396.1 346.84,380.28 "/>
<path class="Colour6 fill" d="M378.84,377.37l3.56-7.1l3.56,7.1l4.15-5c0.01-1.32,0.02-2.63,0.04-3.94h-18.74L378.84,377.37z"/>
<path class="Colour1 fill" d="M385.47,380.28l-3.06,3.78l-3.06-3.78l-7.93,15.82h18.61c0-2.25,0-4.49,0.01-6.72L385.47,380.28z"/>
<path class="st2" d="M387.22,248.35h6.63c0.01-0.26,0.03-0.51,0.04-0.77h-5.37l4.7-9.38l1.06,2.11c0.03-0.55,0.06-1.1,0.09-1.64
	l-1.15-2.29L387.22,248.35z"/>
<path class="st2" d="M101.45,236.35l-0.83,1.67c0.03,0.54,0.06,1.09,0.09,1.64l0.75-1.49l4.7,9.38h-5.03
	c0.01,0.26,0.03,0.51,0.04,0.77h6.28L101.45,236.35z"/>
<path class="Colour7 fill" d="M164.45,213.36l-9.54-11.76l9.54-19.05h-27.63l9.54,19.05l-9.54,11.76H164.45z M139.65,184.29h21.98
	l-7.93,15.82l-3.06-3.78l-3.06,3.78L139.65,184.29z M152.98,201.55l-2.34,4.67l-2.34-4.67l2.34-2.82L152.98,201.55z M147.08,203.01
	l3.56,7.1l3.56-7.1l7.43,8.94h-21.98L147.08,203.01z"/>
<path class="Colour7 fill" d="M203.08,213.36l-9.54-11.76l9.54-19.05h-27.62l9.54,19.05l-9.54,11.76H203.08z M178.27,184.29h21.98
	l-7.93,15.82l-3.06-3.78l-3.06,3.78L178.27,184.29z M191.6,201.55l-2.34,4.67l-2.34-4.67l2.34-2.82L191.6,201.55z M185.71,203.01
	l3.56,7.1l3.56-7.1l7.43,8.94h-21.98L185.71,203.01z"/>
<path class="Colour7 fill" d="M241.7,213.36l-9.54-11.76l9.54-19.05h-27.63l9.54,19.05l-9.54,11.76H241.7z M216.9,184.29h21.98
	l-7.93,15.82l-3.06-3.78l-3.06,3.78L216.9,184.29z M230.23,201.55l-2.34,4.67l-2.34-4.67l2.34-2.82L230.23,201.55z M224.33,203.01
	l3.56,7.1l3.56-7.1l7.43,8.94H216.9L224.33,203.01z"/>
<path class="Colour7 fill" d="M98.2,182.55l9.54,19.05l-8.67,10.68c0.02,0.35,0.05,0.71,0.07,1.08h26.68l-9.54-11.76l9.54-19.05H98.2z
	 M123,211.95h-21.98l7.43-8.94l3.56,7.1l3.56-7.1L123,211.95z M109.67,201.55l2.34-2.82l2.34,2.82l-2.34,4.67L109.67,201.55z
	 M115.07,200.11l-3.06-3.78l-3.06,3.78l-7.93-15.82H123L115.07,200.11z"/>
<path class="Colour1 fill" d="M131.32,34.97c4.82,0,8.72-3.9,8.72-8.7c0-2.13-0.77-4.09-2.05-5.6c-4.89,2.05-10.06,4.25-15.33,6.55
	C123.13,31.57,126.83,34.97,131.32,34.97z"/>
<path class="Colour1 fill" d="M363.09,34.97c4.58,0,8.33-3.53,8.68-8.01c-5.23-2.28-10.35-4.46-15.19-6.48
	c-1.37,1.54-2.22,3.56-2.22,5.78C354.37,31.07,358.27,34.97,363.09,34.97z"/>
<path class="Colour1 fill" d="M439.12,65.3c0,0,46.18,55.01,54.38,148.67c0,0-64.06,39.03-86.41,25.65c0,0,1.37-13.63-10.68-34.32
	C396.42,205.3,396.29,131.09,439.12,65.3z"/>
<path class="Colour1 fill" d="M55.89,65.3c0,0-46.18,55.01-54.38,148.67c0,0,64.06,39.03,86.41,25.65c0,0-1.37-13.63,10.68-34.32
	C98.59,205.3,98.72,131.09,55.89,65.3z"/>
<path class="NeckAndArmTrim fill" d="M419.26,241.83c-4.7,0-8.59-0.85-11.56-2.53c0.07-1.29,0.13-5.73-1.6-12.55
	c0.35,0.01,0.69,0.01,1.04,0.01c34.14,0,77.58-25.84,83.83-29.67c0.77,5.38,1.41,10.9,1.91,16.57
	C488.8,216.11,445.19,241.83,419.26,241.83z"/>
<path class="NeckAndArmTrim fill" d="M2.11,213.66c0.5-5.66,1.15-11.19,1.91-16.57c6.25,3.83,49.69,29.67,83.83,29.67
	c0.35,0,0.7-0.01,1.04-0.01c-1.73,6.82-1.67,11.26-1.6,12.55c-2.97,1.68-6.85,2.53-11.56,2.53C49.82,241.83,6.2,216.11,2.11,213.66z
	"/>
<g>
	<g>
		<path class="st4" d="M395.05,538.35c0,0-23,15.86-147.55,20.81"/>
		<path class="st4" d="M247.5,559.16c-124.55-4.96-147.55-20.81-147.55-20.81"/>
	</g>
	<g>
		<path class="st5" d="M247.5,563.62c124.55-4.96,147.55-20.81,147.55-20.81"/>
		<path class="st5" d="M247.5,563.62c-124.55-4.96-147.55-20.81-147.55-20.81"/>
	</g>
</g>
<g>
	<path class="st4" d="M3.58,196.13c0,0,48.93,31.06,86.1,30.02"/>
	<path class="st5" d="M3.04,200.59c0,0,48.93,31.06,86.1,30.02"/>
	<path class="st4" d="M491.43,196.13c0,0-48.93,31.06-86.1,30.02"/>
	<path class="st5" d="M491.97,200.59c0,0-48.93,31.06-86.1,30.02"/>
</g>
<g>
	<path class="st4" d="M395.05,538.35c0,0-23,15.86-147.55,20.81"/>
	<path class="st4" d="M247.5,559.16c-124.55-4.96-147.55-20.81-147.55-20.81"/>
</g>
<g>
	<path class="st5" d="M395.05,542.81c0,0-23,15.86-147.55,20.81"/>
	<path class="st5" d="M247.5,563.62c-124.55-4.96-147.55-20.81-147.55-20.81"/>
</g>
<g>
	<path class="st5" d="M247.5,563.62c124.55-4.96,147.55-20.81,147.55-20.81"/>
	<path class="st5" d="M247.5,563.62c-124.55-4.96-147.55-20.81-147.55-20.81"/>
</g>
<g id="BBodyLogos"></g>
<path class="NeckAndArmTrim fill" d="M310.75,2.01l-0.1,0.01c0,0-25.35,9.15-63.15,8.97l-0.36,0c-37.6,0.12-62.79-8.97-62.79-8.97
	l-0.1-0.01l-11.93,4.95c0,0,29.99,12.39,74.75,12.25l0.43,0c44.99,0.21,75.17-12.25,75.17-12.25L310.75,2.01z"/>
<g>
	<path class="st4" d="M439.11,65.29c0,0,46.18,55.01,54.38,148.67c0,0-64.06,39.03-86.41,25.65c0,0,1.37-13.63-10.68-34.32
		C396.41,205.29,396.28,131.08,439.11,65.29z"/>
	<path class="st4" d="M55.88,65.29c0,0-46.18,55.01-54.38,148.67c0,0,64.06,39.03,86.41,25.65c0,0-1.37-13.63,10.68-34.32
		C98.58,205.29,98.71,131.08,55.88,65.29z"/>
	<path class="st4" d="M247.5,573.99c125.7-4.96,148.91-20.81,148.91-20.81c-14.4-153.62,0-347.89,0-347.89
		c2.98-84.25,42.71-140,42.71-140C427.94,46.71,322.79,6.94,322.79,6.94l-0.12,0.01c0,0-30.18,12.46-75.17,12.25l-0.43,0
		c-44.76,0.14-74.75-12.25-74.75-12.25l-0.12-0.01c0,0-105.15,39.77-116.32,58.35c0,0,39.73,55.75,42.71,140
		c0,0,14.4,194.26,0,347.89C98.58,553.17,121.8,569.03,247.5,573.99"/>
	<path class="st4" d="M310.74,2l-0.1,0.01c0,0-25.35,9.15-63.15,8.97l-0.36,0c-37.6,0.12-62.79-8.97-62.79-8.97L184.25,2
		l-11.93,4.95c0,0,29.99,12.39,74.75,12.25l0.43,0c44.99,0.21,75.17-12.25,75.17-12.25L310.74,2z"/>
</g>
</svg>
