<?xml version="1.0" encoding="utf-8"?>
<!-- Generator: Adobe Illustrator 19.1.0, SVG Export Plug-In . SVG Version: 6.00 Build 0)  -->
<svg version="1.1" id="Layer_1" xmlns="http://www.w3.org/2000/svg" xmlns:xlink="http://www.w3.org/1999/xlink" x="0px" y="0px"
	 viewBox="0 0 495 576" style="enable-background:new 0 0 495 576;" xml:space="preserve">
<style type="text/css">
	<![CDATA[
	@font-face{font-family:'codaheavy';src:url('/fonts/coda-heavy-webfont.woff') format('woff')}
	text{font-family:Impact,codaheavy,sans-serif}
	.Colour1.fill{fill:#161616;}
	.Colour2.fill{fill:#000000;}
	.Colour3.fill{fill:#CE4388;}
	.NeckAndArmTrim.fill{fill:#CE4388;}
	.st0{fill:#161616;}
	.st1{fill:none;stroke:#000000;stroke-width:0.25;stroke-miterlimit:10;stroke-dasharray:2;}
	.st2{fill:#FFFFFF;stroke:#000000;stroke-width:0.25;stroke-miterlimit:10;}
	.st3{fill:#EFD50D;}
	.st4{fill:none;stroke:#000000;stroke-width:0.25;stroke-miterlimit:10;}
	.st5{fill:#FFFFFF;}
	]]>
</style>
<path class="Colour1 fill" d="M439.12,64.76c0,0,46.18,55.04,54.38,148.75c0,0-64.06,39.05-86.41,25.66c0,0,1.37-13.64-10.68-34.34
	C396.42,204.83,396.29,130.58,439.12,64.76z"/>
<path class="Colour1 fill" d="M55.88,64.76c0,0-46.18,55.04-54.38,148.75c0,0,64.06,39.05,86.41,25.66c0,0-1.37-13.64,10.68-34.34
	C98.58,204.83,98.71,130.58,55.88,64.76z"/>
<g>
	<path class="st0" d="M439.14,64.76C427.97,46.17,322.81,6.38,322.81,6.38l-0.31,0.11l0.26,0.14c0,0-3.86,57.68-75.02,57.8l-0.22,0
		c-71.37,0-75.24-57.8-75.24-57.8l0.24-0.13l-0.3-0.12c0,0-105.15,39.79-116.33,58.38c0,0,39.73,55.78,42.71,140.07
		c0,0,14.4,194.36,0,348.06c0,0,23.21,15.87,148.92,20.82c125.7-4.96,148.92-20.82,148.92-20.82c-14.4-153.7,0-348.06,0-348.06
		C399.41,120.54,439.14,64.76,439.14,64.76z"/>
</g>
<g>
	<path class="st1" d="M395.07,542.79c0,0-23,15.87-147.55,20.82"/>
	<path class="st1" d="M247.52,563.62c-124.55-4.96-147.55-20.82-147.55-20.82"/>
</g>
<g>
	<path class="st2" d="M247.52,11.49C287.46,11.67,314.25,2,314.25,2v9.59c0,0-37.4,8.24-66.73,8.24l-0.29,0
		c-29.28-0.05-66.44-8.24-66.44-8.24V2c0,0,26.62,9.61,66.35,9.49L247.52,11.49z"/>
	<path class="st2" d="M247.52,64.42c-71.37,0-75.24-57.8-75.24-57.8L180.79,2c0,0,9.26,48.8,66.73,48.8l0.32,0
		C305.02,50.61,314.25,2,314.25,2l8.51,4.63c0,0-3.86,57.68-75.02,57.8L247.52,64.42z"/>
</g>
<g>
	<path class="st3" d="M247.52,559.16c124.55-4.96,147.55-20.82,147.55-20.82l1.37,14.84c0,0-34.6,17.88-149.34,20.82
		c0,0-105.75-1.2-148.49-20.82l1.37-14.84C99.97,538.33,122.97,554.2,247.52,559.16"/>
</g>
<g>
	<path class="st4" d="M395.07,538.33c0,0-23,15.87-147.55,20.82"/>
	<path class="st4" d="M247.52,559.16c-124.55-4.96-147.55-20.82-147.55-20.82"/>
</g>
<g>
	<path class="st1" d="M247.52,563.62c124.55-4.96,147.55-20.82,147.55-20.82"/>
	<path class="st1" d="M247.52,563.62c-124.55-4.96-147.55-20.82-147.55-20.82"/>
</g>
<path class="st0" d="M247.86,573.99c125.4-4.97,148.57-20.81,148.57-20.81c-14.4-153.7,0-348.07,0-348.07
	c2.98-84.29,42.71-140.07,42.71-140.07C427.97,46.45,322.82,6.66,322.82,6.66l-0.12,0.01c0,0-30.18,12.47-75.18,12.25l-0.43,0
	c-44.76,0.14-74.75-12.25-74.75-12.25l-0.12-0.01c0,0-105.15,39.79-116.33,58.38c0,0,39.73,55.78,42.71,140.07
	c0,0,14.4,194.36,0,348.07c0,0,23.18,15.84,148.59,20.81L247.86,573.99z"/>
<path class="st1" d="M395.07,542.79c0,0-23,15.87-147.55,20.82"/>
<path class="st1" d="M247.52,563.62c-124.55-4.96-147.55-20.82-147.55-20.82"/>
<path class="st3" d="M247.52,559.16c124.55-4.96,147.55-20.82,147.55-20.82l1.37,14.84c0,0-34.6,17.88-149.34,20.82
	c0,0-105.75-1.2-148.49-20.82l1.37-14.84C99.97,538.33,122.97,554.2,247.52,559.16"/>
<path class="st4" d="M395.07,538.33c0,0-23,15.87-147.55,20.82"/>
<path class="st4" d="M247.52,559.16c-124.55-4.96-147.55-20.82-147.55-20.82"/>
<path class="st1" d="M247.52,563.62c124.55-4.96,147.55-20.82,147.55-20.82"/>
<path class="st1" d="M247.52,563.62c-124.55-4.96-147.55-20.82-147.55-20.82"/>
<path class="Colour3 fill" d="M377.6,279.81l15.39-13.19c0.51-11.41,1.03-21.55,1.5-30.15l-16.88,15.75V279.81z"/>
<path class="Colour3 fill" d="M114.26,317.86l-10.67-10.34c0.28,8.83,0.53,18.06,0.73,27.61l9.93,9.01V317.86z"/>
<path class="Colour3 fill" d="M115.1,252.47l-14.39-13.03c0.47,8.62,0.97,18.65,1.45,29.84l12.94,10.76V252.47z"/>
<path class="Colour3 fill" d="M377.6,344.54l13.16-11.95c0.22-9.64,0.48-18.94,0.76-27.83l-13.92,13.48V344.54z"/>
<path class="Colour2 fill" d="M245.16,463.16l119.92-145.63v43.6l-119,145.14l-117.8-144.39v-44.34L245.16,463.16z M383.13,186.27
	c-45.59,65.68-93.29,119.15-137.06,161.82c-41.16-43.69-84.41-94.63-127.07-153.42c-9.06-12.49-17.76-24.88-26.12-37.13
	c1.91,9.26,3.46,19.1,4.49,29.44c9.49,14.36,18.97,27.56,28.21,39.62c0.26,12.54,0.51,25.08,0.78,37.61l119.71,144.98l121.33-145
	v-37.93c9.99-12.6,20.29-26.62,30.56-42.07c1-9.11,2.4-17.82,4.08-26.07C396,167.41,389.7,176.8,383.13,186.27z M355.11,481.7
	l3.51-52.23L246.07,572.03L133.81,429.47l3.56,53.92l70.36,88.48c11.88,0.82,24.99,1.54,39.47,2.12l0.67,0
	c13.1-0.52,25.07-1.16,36.02-1.89l71.22-90.39V481.7z M351.27,538.58l-24,29.68c8.32-0.96,15.69-1.96,22.2-2.97L351.27,538.58z
	 M141,538.58l1.73,26.26c6.35,1.03,13.57,2.05,21.75,3.03L141,538.58z M391.52,304.76c0.12-3.59,0.23-7.12,0.36-10.57l-20.11,19.7
	v45.29l18.77-16.04c0.07-3.56,0.14-7.07,0.22-10.54l-13.16,11.95v-26.29L391.52,304.76z M371.77,264.19v30.05l20.78-17.57
	c0.14-3.44,0.29-6.79,0.43-10.04l-15.39,13.19v-27.58l16.88-15.75c0.23-4.14,0.45-7.93,0.65-11.32l-23.36,20.79V264.19z
	 M120.78,246.24l-20.73-18.54c0.21,3.55,0.43,7.47,0.66,11.74l14.39,13.03v27.57l-12.94-10.76c0.14,3.14,0.27,6.37,0.41,9.69
	l18.2,15.81V246.24z M120.78,313.62l-17.54-17.05c0.12,3.58,0.25,7.23,0.36,10.95l10.67,10.34v26.28l-9.93-9.01
	c0.08,3.5,0.15,7.04,0.21,10.62l17.2,16.13L120.78,313.62z M362.24,497.95c0.37-5.37,0.75-10.76,1.14-16.16
	c1.12-15.47,2.3-30.81,3.56-46.04c0.95-11.5,1.93-22.94,2.97-34.3c0.61-6.78,1.23-13.55,1.87-20.29l18.39-11.96
	c0.04-3.65,0.08-7.26,0.13-10.84l-27.84,14.26l-3.82,56.84l-3.51,52.23v0.02l-3.84,56.87l-1.8,26.71c3.12-0.48,6.04-0.97,8.77-1.46
	C359.4,542.09,360.73,520.13,362.24,497.95z M141,538.58l-3.64-55.19l-3.56-53.92l-3.61-54.71l-25.41-13.17
	c0.05,3.68,0.09,7.39,0.12,11.13l16.83,11.13c0.4,5.49,0.79,10.99,1.18,16.48c0.81,11.31,1.6,22.66,2.38,34.04
	c0.98,14.47,1.94,28.98,2.88,43.54c0.39,6.04,0.76,12.08,1.13,18.1c1.41,22.5,2.71,44.88,3.96,67.19c2.92,0.55,6.06,1.1,9.46,1.65
	L141,538.58z"/>
<path class="Colour1 fill" d="M375.05,560.39c-3.18,0.75-6.46,1.47-9.84,2.14c-2.36,0.47-4.69,0.91-6.97,1.31
	c1.16-21.75,2.49-43.71,4-65.89l28.88-13.6l0.66-1.57c1.01,23.85,2.51,47.57,4.65,70.39c0,0-1.07,0.73-3.99,1.93l-1.54-16.52
	c-3.39,1.56-6.78,3.12-10.17,4.69C378.85,548.97,376.95,554.68,375.05,560.39z M129.31,496.01l-26.11-11.99
	c-0.78,18.05-1.84,36.01-3.25,53.56l14.34,5.69l5.69,17.12c3.78,0.91,8.19,1.85,13.29,2.81
	C132.02,540.88,130.72,518.51,129.31,496.01z M371.77,381.17c-0.64,6.74-1.26,13.5-1.87,20.29l2.91,0.26l10.15-11.83l7.08,10.78
	c-0.03-10.67,0.02-21.19,0.12-31.46L371.77,381.17z M372.81,401.72l-2.91-0.26c-1.04,11.36-2.02,22.8-2.97,34.3l23.69,11.41
	c-0.32-13.94-0.5-27.8-0.57-41.41l-7.09,9.34L372.81,401.72z M109.77,387.53l10.37,13.01l2.78-0.2c-0.39-5.49-0.78-10.99-1.18-16.48
	l-16.83-11.13c0.06,6.99,0.09,14.08,0.09,21.25L109.77,387.53z M122.92,400.34l-2.78,0.2l-11.32,12.99l-3.86-5.12
	c-0.07,12.03-0.23,24.24-0.5,36.53l20.84-10.57C124.52,423,123.73,411.65,122.92,400.34z M371.77,245.95l23.36-20.79
	c0.76-12.8,1.3-20.05,1.3-20.05c0.25-7.19,0.78-14.17,1.52-20.93c-10.26,15.45-20.57,29.47-30.56,42.07v37.93l-121.33,145
	L126.36,264.2c-0.26-12.53-0.51-25.07-0.78-37.61c-9.24-12.06-18.72-25.27-28.21-39.62c0.59,5.89,1.01,11.93,1.23,18.14
	c0,0,0.61,8.21,1.45,22.59l20.73,18.54v48.53l-18.2-15.81c0.23,5.63,0.45,11.51,0.66,17.6l17.54,17.05l0.96,48.25l-17.2-16.13
	c0.1,5.2,0.18,10.49,0.25,15.84l25.41,13.17l3.61,54.71l112.27,142.56l112.55-142.56l3.82-56.84l27.84-14.26
	c0.07-5.15,0.16-10.23,0.25-15.23l-18.77,16.04v-45.29l20.11-19.7c0.22-6.08,0.44-11.92,0.67-17.52l-20.78,17.57v-30.05V245.95z
	 M365.07,361.13l-119,145.14l-117.8-144.39v-44.34l116.88,145.63l119.92-145.63V361.13z M327.27,568.27
	c-12.28,1.41-26.64,2.73-43.38,3.84l71.22-90.39l-3.84,56.87L327.27,568.27z M137.36,483.39l3.64,55.19l23.48,29.3
	c12.16,1.46,26.47,2.83,43.24,3.99L137.36,483.39z"/>
<path class="Colour1 fill" d="M247.4,348.09c48.65-47.42,101.4-106.13,152.33-177.51c10.21-64.82,39.41-105.82,39.41-105.82
	C427.97,46.17,322.81,6.38,322.81,6.38l-0.31,0.11l0.26,0.14c0,0-3.86,57.68-75.02,57.8l-0.22,0c-71.37,0-75.24-57.8-75.24-57.8
	l0.24-0.13l-0.3-0.12c0,0-105.15,39.79-116.33,58.38c0,0,26.66,37.44,37.94,97.32c1.1,1.52,2.19,3.04,3.29,4.56
	C147.57,236.18,198.72,296.42,247.4,348.09z"/>
<path class="Colour1 fill" d="M364.41,34.38l-3.01,2.7c-0.63-0.21-1.26-0.43-1.9-0.64c-14.15-4.87-26.29-7.37-34.61-8.74l-158.21-0.41
	c-8.09,1.58-19.71,4.21-33.33,8.74l-1.2-3.63c4.23-2.26,9.07-4.55,14.47-6.69c6.61-2.59,12.78-4.43,18.26-5.76l162.31-0.19
	c6.17,1.69,12.93,3.9,20.11,6.78C353.62,29.05,359.31,31.72,364.41,34.38z"/>
<path class="Colour3 fill" d="M60.46,62.8c4.88,5.32,9.74,10.66,14.6,15.98c4-10.49,9.34-16.83,12.28-19.92c2.68-2.81,5.5-5.18,8.59-7.27
	L92.31,41C78.61,47.82,66.7,54.62,60.19,60.28C60.26,61.19,60.35,62.04,60.46,62.8z"/>
<path class="Colour3 fill" d="M402.74,58.44c3.64,3.46,10.33,10.58,15.77,22.32h0.01c2.16-2.88,4.86-6.08,8.2-9.31
	c2.72-2.66,5.4-4.87,7.86-6.72c0.16-1.37,0.28-2.83,0.37-4.35c-6.41-5.62-18.19-12.37-31.77-19.15l-5.29,13.03
	C399.54,55.55,401.14,56.93,402.74,58.44z"/>
<path class="Colour3 fill" d="M386.92,47.26l-3.13-11.67l-14.67,4.2C375.69,42.13,381.54,44.45,386.92,47.26z"/>
<path class="Colour3 fill" d="M132.17,32.39c4.23-2.26,9.07-4.55,14.47-6.69c6.61-2.59,12.78-4.43,18.26-5.76l162.31-0.19
	c6.17,1.69,12.93,3.9,20.11,6.78c6.31,2.52,11.99,5.2,17.09,7.86c0.99-1.93,1.99-4.2,2.9-6.78c0.3-0.86,0.57-1.7,0.81-2.52
	c-24.26-10.47-45.3-18.43-45.3-18.43l-0.12,0.01c0,0-30.18,12.47-75.18,12.25l-0.43,0c-44.76,0.14-74.75-12.25-74.75-12.25
	l-0.12-0.01c0,0-19.63,7.43-42.82,17.36c0.08,0.43,0.15,0.87,0.25,1.32C130.3,28.26,131.27,30.64,132.17,32.39z"/>
<path class="Colour3 fill" d="M127.35,38.03L112.43,33l-3.52,11.76C114.18,42.53,120.22,40.42,127.35,38.03z"/>
<path class="Colour2 fill" d="M367.31,27.61c0.3-0.86,0.57-1.7,0.81-2.52c11.6,5.01,23.94,10.58,35.06,16.14l-5.29,13.03
	c-3.48-2.72-7.09-4.98-10.96-7l-3.13-11.67l-14.67,4.2c-1.9-0.67-3.85-1.36-5.87-2.06c-0.62-0.22-1.22-0.43-1.85-0.64l3.01-2.7
	C365.4,32.45,366.4,30.18,367.31,27.61z M434.95,60.37c-0.09,1.52-0.21,2.98-0.37,4.35c-2.46,1.85-5.14,4.06-7.86,6.72
	c-3.34,3.24-6.04,6.43-8.2,9.31h-0.01c0.18,0.37,0.34,0.75,0.52,1.14c0.99,2.21,1.92,4.57,2.79,7.11c0.51,1.49,0.99,3.06,1.44,4.66
	c8.58-18.36,15.88-28.62,15.88-28.62C438.28,63.6,436.85,62.04,434.95,60.37z M95.93,51.6c3.83-2.61,8.06-4.77,12.98-6.84L112.43,33
	l14.92,5.03c1.92-0.64,3.93-1.3,6.02-2l-1.2-3.63c-0.89-1.76-1.87-4.13-2.51-7.05c-0.1-0.45-0.18-0.89-0.25-1.32
	c-12.15,5.21-25.28,11.1-37.09,16.98L95.93,51.6z M72.01,89c0.56-2.54,1.22-4.9,1.95-7.11c0.34-1.07,0.71-2.11,1.1-3.11
	c-4.86-5.32-9.73-10.66-14.6-15.98c-0.1-0.77-0.19-1.62-0.26-2.52c-1.95,1.7-3.42,3.3-4.3,4.76c0,0,7.03,9.88,15.4,27.59
	C71.51,91.39,71.75,90.17,72.01,89z"/>
<path class="NeckAndArmTrim fill" d="M247.52,11.49C287.46,11.67,314.25,2,314.25,2v9.59c0,0-37.4,8.24-66.73,8.24l-0.29,0
	c-29.28-0.05-66.44-8.24-66.44-8.24V2c0,0,26.62,9.61,66.35,9.49L247.52,11.49z"/>
<path class="NeckAndArmTrim fill" d="M247.52,64.42c-71.37,0-75.24-57.8-75.24-57.8L180.79,2c0,0,9.26,48.8,66.73,48.8l0.32,0
	C305.02,50.61,314.25,2,314.25,2l8.51,4.63c0,0-3.86,57.68-75.02,57.8L247.52,64.42z"/>
<path class="st5" d="M247.84,50.79l-0.32,0c-40.44,0-57.01-24.16-63.28-38.48c9.87,2,39.05,7.48,62.98,7.52l0.29,0
	c23.99,0,53.37-5.51,63.28-7.52C304.55,26.59,288.05,50.67,247.84,50.79z"/>
<path class="NeckAndArmTrim fill" d="M419.28,241.66c-4.7,0-8.59-0.85-11.56-2.53c0.07-1.29,0.13-5.73-1.6-12.56
	c0.35,0.01,0.69,0.01,1.04,0.01c34.14,0,77.58-25.85,83.83-29.68c0.77,5.38,1.41,10.91,1.91,16.58
	C488.82,215.93,445.21,241.66,419.28,241.66z"/>
<path class="NeckAndArmTrim fill" d="M2.12,213.48c0.5-5.67,1.15-11.19,1.91-16.58c6.25,3.83,49.69,29.68,83.83,29.68
	c0.35,0,0.7-0.01,1.04-0.01c-1.73,6.83-1.67,11.27-1.6,12.56c-2.97,1.68-6.85,2.53-11.56,2.53C49.83,241.66,6.21,215.93,2.12,213.48
	z"/>
<path class="Colour3 fill" d="M397.4,205.11c12.04,20.7,10.68,34.34,10.68,34.34c5.26,3.15,12.84,3.4,21.35,1.93
	c-2.12-18.41-8.32-55.57-25.63-86.95C397.37,184.05,397.4,205.11,397.4,205.11z"/>
<path class="Colour3 fill" d="M97.64,205.11c-12.04,20.7-10.68,34.34-10.68,34.34c-5.26,3.15-12.84,3.4-21.35,1.93
	c2.12-18.41,8.32-55.57,25.63-86.95C97.67,184.05,97.64,205.11,97.64,205.11z"/>
<path class="Colour2 fill" d="M49.79,218.6c-4.47-1.49-9.23-3.28-14.21-5.43c-3.81-1.65-7.38-3.36-10.69-5.06
	c-3.25,4.43-6.5,8.86-9.74,13.29c-2.57-1.47-5.25-2.92-8.05-4.33c-0.75-0.38-1.5-0.75-2.25-1.12c1.73-5.11,3.46-10.22,5.19-15.33
	c-2.44-1.59-4.88-3.17-7.33-4.76C14.63,113.61,55.04,65.84,55.04,65.84C71.95,91.61,82.16,118.67,88.33,142
	c-9.92,17.6-25.97,52.46-28.69,97.44c-3.14-0.77-6.35-1.72-9.59-2.8c-0.47-3.53-0.76-7.55-0.65-11.97
	C49.45,222.53,49.59,220.51,49.79,218.6z M445.25,219.6c4.47-1.49,9.23-3.28,14.21-5.43c3.81-1.65,7.38-3.36,10.69-5.06
	c3.25,4.43,6.5,8.86,9.74,13.29c2.57-1.47,5.25-2.92,8.05-4.33c0.75-0.38,1.5-0.75,2.25-1.12c-1.73-5.11-3.46-10.22-5.19-15.33
	c2.44-1.59,4.88-3.17,7.33-4.76C480.41,114.61,440,66.84,440,66.84c-16.91,25.77-27.12,52.83-33.29,76.16
	c9.92,17.6,25.97,52.46,28.69,97.44c3.14-0.77,6.35-1.72,9.59-2.8c0.47-3.53,0.76-7.55,0.65-11.97
	C445.58,223.54,445.45,221.51,445.25,219.6z"/>
<path class="Colour3 fill" d="M363.38,481.79c-0.39,5.4-0.76,10.79-1.14,16.16l28.88-13.6l0.66-1.57c-0.5-11.87-0.88-23.77-1.16-35.61
	l-23.69-11.41C365.68,450.98,364.5,466.31,363.38,481.79z"/>
<path class="Colour3 fill" d="M382.96,415.1l7.09-9.34c-0.01-1.7-0.01-3.4-0.02-5.09l-7.08-10.78l-10.15,11.83L382.96,415.1z"/>
<path class="Colour3 fill" d="M99.96,537.58c-0.42,5.24-0.87,10.44-1.35,15.6c0,0,4.72,3.22,21.38,7.21l-5.69-17.12L99.96,537.58z"/>
<path class="Colour3 fill" d="M128.18,477.91c-0.93-14.56-1.9-29.07-2.88-43.54l-20.84,10.57c-0.29,12.98-0.7,26.05-1.26,39.07
	l26.11,11.99C128.94,489.98,128.57,483.95,128.18,477.91z"/>
<path class="Colour3 fill" d="M120.14,400.54l-10.37-13.01l-4.77,6.44c0,4.78-0.01,9.59-0.04,14.44l3.86,5.12L120.14,400.54z"/>
<path class="Colour3 fill" d="M395.08,537.58c0.42,5.24,0.87,10.44,1.35,15.6c0,0-4.72,3.22-21.38,7.21l5.69-17.12L395.08,537.58z"/>
<g>
	<path class="st4" d="M3.59,195.94c0,0,48.93,31.08,86.1,30.04"/>
	<path class="st1" d="M3.05,200.4c0,0,48.93,31.08,86.1,30.04"/>
	<path class="st4" d="M491.45,195.94c0,0-48.93,31.08-86.1,30.04"/>
	<path class="st1" d="M491.99,200.4c0,0-48.93,31.08-86.1,30.04"/>
</g>
<g id="FBodyLogos"></g>
</svg>
