<?xml version="1.0" encoding="utf-8"?>
<!-- Generator: Adobe Illustrator 19.1.0, SVG Export Plug-In . SVG Version: 6.00 Build 0)  -->
<svg version="1.1" id="Layer_1" xmlns="http://www.w3.org/2000/svg" xmlns:xlink="http://www.w3.org/1999/xlink" x="0px" y="0px"
	 viewBox="0 0 495 576" style="enable-background:new 0 0 495 576;" xml:space="preserve">
<style type="text/css">
	<![CDATA[
	@font-face{font-family:'codaheavy';src:url('/fonts/coda-heavy-webfont.woff') format('woff')}
	text{font-family:Impact,codaheavy,sans-serif}
	.Colour1.fill{fill:#1C181A;}
	.Colour2.fill{fill:#EFD50D;}
	.Colour3.fill{fill:#4C4B4C;}
	.NeckAndArmTrim.fill{fill:#EFD50D;}
	.BottomHem.fill{fill:#EFD50D;}
	.st0{fill:none;stroke:#000000;stroke-width:0.25;stroke-miterlimit:10;stroke-dasharray:2;}
	.st1{fill:none;stroke:#000000;stroke-width:0.25;stroke-miterlimit:10;}
	.st2{fill:#FFFFFF;stroke:#000000;stroke-width:0.25;stroke-miterlimit:10;}
	.st3{fill:#FFFFFF;}
	]]>
</style>
<path class="Colour1 fill" d="M439.14,64.81c0,0,46.24,55.06,54.36,148.75c0,0-64.09,38.98-86.46,25.68c0,0,1.39-13.65-10.66-34.35
	C396.49,204.89,396.37,130.63,439.14,64.81z"/>
<path class="Colour1 fill" d="M55.86,64.81c0,0-46.24,55.06-54.36,148.75c0,0,64.09,38.98,86.46,25.68c0,0-1.39-13.65,10.66-34.35
	C98.63,204.89,98.74,130.63,55.86,64.81z"/>
<path class="NeckAndArmTrim fill" d="M419.32,241.67c-4.75,0-8.58-0.81-11.59-2.54c0.12-1.27,0.12-5.78-1.62-12.61c0.35,0,0.7,0,1.04,0
	c34.19,0,77.65-25.79,83.8-29.73c0.81,5.44,1.39,10.87,1.97,16.54C488.86,215.99,445.29,241.67,419.32,241.67z"/>
<path class="NeckAndArmTrim fill" d="M2.08,213.56c0.46-5.67,1.16-11.22,1.97-16.54c6.26,3.82,49.72,29.73,83.8,29.73
	c0.35,0,0.7,0,1.04,0c-1.74,6.82-1.62,11.22-1.62,12.61c-3.01,1.74-6.84,2.54-11.59,2.54C49.83,241.67,6.25,215.99,2.08,213.56z"/>
<path class="Colour1 fill" d="M439.14,64.81C428.02,46.19,322.78,6.4,322.78,6.4l-0.35,0.12l0.23,0.12c0,0-3.82,57.72-74.99,57.84h-0.23
	c-71.4,0-75.22-57.84-75.22-57.84l0.23-0.12l-0.35-0.12c0,0-105.12,39.79-116.36,58.41c0,0,39.75,55.75,42.77,140.08
	c0,0,14.37,194.33,0,347.94c0,0,23.18,15.85,148.93,20.82c125.75-4.97,148.93-20.82,148.93-20.82c-14.37-153.61,0-347.94,0-347.94
	C399.5,120.56,439.14,64.81,439.14,64.81z"/>
<g>
	<path class="st0" d="M395.1,542.77c0,0-22.95,15.85-147.54,20.82"/>
	<path class="st0" d="M247.56,563.59c-124.59-4.97-147.54-20.82-147.54-20.82"/>
</g>
<g>
	<path class="st1" d="M3.59,195.98c0,0,48.91,31.12,86.11,30.07"/>
	<path class="st0" d="M3.01,200.49c0,0,48.91,31.12,86.11,30.07"/>
	<path class="st1" d="M491.53,195.98c0,0-48.91,31.12-86.11,30.07"/>
	<path class="st0" d="M492.11,200.49c0,0-48.91,31.12-86.11,30.07"/>
</g>
<g>
	<path class="st2" d="M247.56,11.6c39.99,0.23,66.76-9.49,66.76-9.49v9.6c0,0-37.44,8.21-66.76,8.21h-0.35
		c-29.32,0-66.41-8.21-66.41-8.21v-9.6c0,0,26.66,9.6,66.41,9.49H247.56z"/>
	<path class="st2" d="M247.56,64.46c-71.4,0-75.22-57.84-75.22-57.84L180.8,2c0,0,9.27,48.81,66.76,48.81h0.35
		C305.04,50.58,314.32,2,314.32,2l8.46,4.63c0,0-3.82,57.72-74.99,57.84H247.56z"/>
</g>
<path class="st3" d="M247.75,50.93h-0.35c-40.35,0-56.89-26.64-63.13-42.44c9.83,2.17,38.97,8.28,62.9,8.28h0.35
	c23.93,0,53.3-6.12,63.13-8.28C304.29,24.16,287.87,50.67,247.75,50.93z"/>
<path class="NeckAndArmTrim fill" d="M247.56,11.6c39.99,0.23,66.76-9.49,66.76-9.49v9.6c0,0-37.44,8.21-66.76,8.21h-0.35
	c-29.32,0-66.41-8.21-66.41-8.21v-9.6c0,0,26.66,9.6,66.41,9.49H247.56z"/>
<path class="NeckAndArmTrim fill" d="M247.56,64.46c-71.4,0-75.22-57.84-75.22-57.84L180.8,2c0,0,9.27,48.81,66.76,48.81h0.35
	C305.04,50.58,314.32,2,314.32,2l8.46,4.63c0,0-3.82,57.72-74.99,57.84H247.56z"/>
<polygon class="Colour2 fill" points="460.47,103.21 428.48,144.97 440.65,203.62 432.88,145.2 "/>
<polygon class="Colour2 fill" points="34.53,103.21 66.52,144.97 54.47,203.62 62.12,145.2 "/>
<path class="Colour3 fill" d="M322.08,535.13v1.97l-1.74,0.93l-35.12,19.78l0,0l-16.69,9.37l0,0l-11.13,6.25c-1.27,0-2.43,0.12-3.59,0.12
	l2.2-1.27l0,0l64.21-36.09l1.74-1.04H322.08z M321.97,529l-1.97,1.04l-64.09,36.09l0,0l-8.34,4.63l-8.34-4.63l0,0l-12.52-7.06l0,0
	l-4.29-2.43l-47.29-26.6l-1.97-1.04v1.85l1.85,1.04l6.03,3.35l0,0l15.07,8.44l13.91,7.87l0,0l7.65,4.28l29.9,16.77l8.34-4.63l0,0
	l12.4-7.06l0,0l6.95-3.82L320,531.9l1.97-1.04V529z M321.97,522.87l-2.09,1.27l-5.8,3.24l0,0l-8.34,4.63L255.9,560l0,0l-8.34,4.74
	l-8.34-4.74l0,0l-12.52-6.94l0,0l-3.01-1.74l-48.45-27.3l-2.09-1.16v1.85l2.09,1.16l5.8,3.35l0,0l16.81,9.37l0,0l12.17,6.82l0,0
	l9.5,5.44l28.05,15.73l20.75-11.68l0,0l16.81-9.49l0,0l12.17-6.82l0,0l16.81-9.37l0,0l5.8-3.35l2.09-1.16V522.87z M321.97,516.86
	l-2.2,1.27l-5.68,3.12l0,0l-16.81,9.49l0,0l-41.38,23.25l0,0l-8.34,4.63l-8.34-4.63l0,0l-12.52-7.06l0,0l-16.69-9.37l0,0
	l-20.98-11.8l-8-4.51l0,0l-5.68-3.12l-2.2-1.27v1.85l2.2,1.16l5.68,3.24l0,0l16.81,9.37l0,0l12.17,6.94l0,0l11.13,6.25l26.43,14.81
	l20.75-11.68l0,0l16.81-9.37l0,0l12.17-6.94l0,0l16.81-9.37l0,0l5.68-3.24l2.2-1.16V516.86z M321.97,541.15l-1.62,0.93l0,0
	l-54.82,30.77c1.16-0.12,2.43-0.12,3.59-0.23l15.99-8.91l0,0l35.23-19.78l1.62-0.93L321.97,541.15L321.97,541.15z M321.97,547.28
	l-1.51,0.81l-6.37,3.59l0,0l-16.69,9.37l0,0l-19.7,11.1c1.27-0.12,2.43-0.12,3.71-0.23l3.82-2.2l0,0l35.35-19.9l1.39-0.81
	L321.97,547.28L321.97,547.28z M321.97,512.58v-1.85l-2.43,1.39l-5.45,3.12l0,0l-16.81,9.37l0,0l-41.38,23.25l0,0l-8.34,4.74
	l-20.86-11.68l0,0l-12.75-7.29l-16.11-9.02l0,0l-16.81-9.37l0,0l-5.56-3.12l-2.32-1.39v1.85l2.32,1.27l5.56,3.24l0,0l8.92,4.97
	l49.26,27.65l0,0l8.34,4.74l20.75-11.8l0,0l16.81-9.37l0,0l12.17-6.82l0,0l16.81-9.37l0,0l5.56-3.24L321.97,512.58z M321.97,486.44
	l-3.01,1.62l-33.84,19.09l0,0l-6.95,3.93l-30.6,17.24l-8.34-4.74l0,0l-12.52-7.06l0,0l-4.87-2.66l-45.78-25.79l-2.9-1.62v1.85
	l2.9,1.62l4.98,2.78l0,0l16.81,9.49l0,0l12.17,6.82l0,0l13.56,7.63l23.99,13.42l20.75-11.68l0,0l16.81-9.37l0,0l12.17-6.82l0,0
	l8.46-4.86l13.33-7.4l2.9-1.62V486.44z M321.97,492.57l-2.78,1.5l-18.31,10.29l-3.59,1.97l0,0l-12.17,6.94l0,0l-8.23,4.51
	l-29.32,16.54l-8.34-4.74l0,0l-12.52-6.94l0,0l-6.49-3.7l-44.27-24.87l-2.78-1.5v1.74l2.78,1.62l5.1,2.89l0,0l16.81,9.37l0,0
	l12.17,6.82v0.12l12.17,6.82l25.38,14.23l20.75-11.68l0,0l16.81-9.37v-0.12l12.17-6.82l0,0l16.81-9.37l0,0l5.1-2.89l2.78-1.62
	V492.57z M321.97,480.31l-3.13,1.85l-33.73,18.97l0,0l-5.68,3.12l-31.87,17.93l-8.34-4.74l0,0l-12.52-6.94l0,0l-3.48-1.97
	l-46.94-26.37l-3.13-1.85v1.85l3.01,1.74l12.63,7.06l9.04,5.09l0,0l49.72,27.99l8.34-4.74l0,0l41.38-23.25l0,0l6.61-3.7l14.95-8.44
	l3.13-1.74V480.31z M321.97,504.71l-2.55,1.39l-5.33,3.01l0,0l-16.81,9.49l0,0l-49.72,27.88l-8.34-4.63l0,0l-12.52-7.06l0,0
	l-10.43-5.9l-18.43-10.29l0,0l-16.81-9.49l0,0l-5.33-3.01l-2.55-1.39v1.85l2.43,1.39l63.63,35.63l0,0l8.34,4.74l20.75-11.68l0,0
	l16.81-9.37l0,0l34.31-19.32l2.55-1.39V504.71z M321.97,498.58l-2.67,1.5l-8.58,4.86l-13.44,7.52l0,0l-12.17,6.82l0,0l-9.27,5.21
	l-28.28,15.96l-8.34-4.74l0,0l-15.41-8.68l-13.79-7.75l0,0l-12.17-6.82l0,0l-16.81-9.37l0,0l-5.22-3.01l-2.67-1.5v1.85l2.67,1.5
	l5.22,2.89l0,0l16.81,9.49l0,0l12.17,6.82l0,0l10.66,6.02l26.89,15.04l20.75-11.68l0,0l16.81-9.37l0,0l12.17-6.82l0,0l16.81-9.37
	v-0.12l5.22-2.89l0,0l2.67-1.5V498.58z M174.42,555.84l6.61,3.7l0,0l16.69,9.37l0,0l3.71,2.08c1.27,0.12,2.43,0.23,3.71,0.23
	l-7.53-4.16l0,0l-16.69-9.37l0,0l-6.49-3.7l-1.39-0.69v1.85L174.42,555.84z M321.97,474.29l-3.25,1.85l-4.64,2.54l0,0l-16.81,9.49
	l0,0l-41.38,23.25l0,0l-8.34,4.63l-8.34-4.63l0,0l-12.52-7.06l0,0L210.01,495l0,0l-20.4-11.45l-8.58-4.86l0,0l-4.64-2.54l-3.25-1.85
	v1.85l3.25,1.74l71.16,40.02l20.75-11.68l0,0l16.81-9.37l0,0l33.61-18.97l3.25-1.74V474.29z M297.28,390.89L297.28,390.89
	l-41.38,23.25l0,0l-8.34,4.74l-8.34-4.74l0,0l-12.52-7.06l0,0l-12.4-6.94l-16.46-9.25l0,0l-3.13-1.74l-88.66-49.85l-0.81,1.39
	l83.68,46.96l8.92,5.09l0,0l25.27,14.23l3.59,1.97l0,0l16.11,9.02l4.75,2.66l8.34-4.63l0,0l12.4-7.06l0,0l9.97-5.55l33.5-18.85
	l2.32-1.27l0,0l75.68-42.57l-0.7-1.39l-74.99,42.22l0,0L297.28,390.89z M91.56,151.22V64.23c2.2-0.46,4.4-0.81,6.72-1.27v134.53
	c0.12,2.43,0.23,4.86,0.35,7.29c0,0,2.55,34.24,4.4,85.25c0.93,13.65,1.74,28.34,2.43,43.61c0,0.23,0,0.58,0,0.81V61.69
	c2.2-0.35,4.4-0.69,6.72-1.16v279.35l7.19,4.05V59.37c2.2-0.35,4.4-0.69,6.72-1.04v289.53l7.19,4.05V57.41
	c2.2-0.35,4.4-0.58,6.72-0.81v299.01l7.19,4.05V55.79c2.2-0.23,4.4-0.46,6.72-0.69v308.38l7.19,4.05V54.4
	c2.2-0.23,4.4-0.35,6.72-0.58v317.41l7.19,4.05V53.36c2.2-0.12,4.52-0.23,6.72-0.35v325.96l7.19,4.05V52.9c2.2,0,4.52,0,6.72,0
	v333.95l7.19,4.05V53.71c-2.78-1.62-5.45-3.47-7.77-5.44c-1.39,0-3.36,0.12-6.14,0.23c-2.09,0.12-4.4,0.23-7.19,0.46
	c-2.09,0.12-4.29,0.35-6.72,0.46c-2.2,0.23-4.64,0.35-7.19,0.69c-2.09,0.23-4.4,0.46-6.72,0.69c-2.32,0.23-4.75,0.58-7.19,0.81
	c-2.2,0.23-4.4,0.58-6.72,0.81c-2.32,0.35-4.75,0.69-7.19,1.04c-2.2,0.35-4.4,0.69-6.72,1.04c-2.32,0.35-4.75,0.81-7.19,1.16
	c-2.2,0.35-4.4,0.81-6.72,1.16c-2.32,0.46-4.75,0.93-7.19,1.39c-2.2,0.46-4.4,0.93-6.72,1.39c-2.32,0.46-4.75,1.04-7.19,1.5
	c-2.2,0.46-4.4,0.93-6.72,1.5c-2.32,0.58-4.75,1.16-7.19,1.74c-2.2,0.58-4.4,1.04-6.72,1.74v1.04c2.09-0.46,4.29-0.93,6.72-1.39
	v59.69C87.03,133.29,89.47,141.96,91.56,151.22z M285.81,394.59V57.18c-2.2,1.04-4.64,1.97-7.19,2.78v338.69L285.81,394.59z
	 M173.15,543l1.62,0.93l12.87,7.17l10.2,5.78l0,0L226,572.73c1.16,0.12,2.43,0.12,3.59,0.23l-2.78-1.62l0,0l-7.53-4.28l-44.39-24.99
	l-1.62-0.93L173.15,543z M424.65,90.72V68.51c6.03,1.27,9.85,2.2,10.55,2.43c-3.59-1.04-7.07-2.08-10.55-3.01
	c-2.43-0.69-4.87-1.27-7.19-1.85c-2.2-0.58-4.52-1.16-6.72-1.74c-2.43-0.58-4.87-1.16-7.19-1.74c-2.2-0.58-4.52-1.04-6.72-1.5
	c-2.43-0.58-4.87-1.04-7.19-1.5c-2.2-0.46-4.52-0.93-6.72-1.27c-2.43-0.46-4.87-0.93-7.19-1.39c-2.32-0.46-4.52-0.81-6.72-1.16
	c-2.43-0.46-4.87-0.81-7.19-1.16c-2.32-0.35-4.52-0.69-6.72-1.04c-2.43-0.35-4.87-0.69-7.19-1.04c-2.32-0.35-4.52-0.58-6.72-0.81
	c-2.43-0.35-4.87-0.58-7.19-0.81c-2.32-0.23-4.52-0.46-6.72-0.69c-2.55-0.23-4.98-0.46-7.19-0.69c-2.43-0.23-4.64-0.35-6.72-0.46
	c-2.78-0.23-5.1-0.35-7.19-0.46c-2.78-0.12-4.87-0.23-6.14-0.23c-2.32,1.85-4.87,3.7-7.77,5.32v337.07l7.19-4.05V52.9
	c2.2,0,4.4,0,6.72,0v330.13l7.19-4.05V53.13c2.2,0.12,4.4,0.23,6.72,0.35v321.92l7.19-4.05V53.82c2.2,0.12,4.4,0.35,6.72,0.58
	v313.13l7.19-4.05V55.09c2.2,0.23,4.52,0.46,6.72,0.69v303.87l7.19-4.05V56.6c2.2,0.23,4.52,0.58,6.72,0.81v294.39l7.19-4.05V58.45
	c2.32,0.35,4.52,0.69,6.72,1.04v284.55l7.19-4.05V60.65c2.32,0.35,4.52,0.69,6.72,1.16v272.52c0.46-12.26,1.16-24.18,1.85-35.4
	c0.23-3.12,0.35-6.13,0.58-9.02c1.85-50.9,4.4-85.02,4.4-85.02c0.12-2.54,0.23-4.97,0.35-7.52V62.96c2.32,0.46,4.52,0.81,6.72,1.27
	v86.99c2.09-9.25,4.64-17.93,7.19-25.91V65.62c2.32,0.46,4.64,0.93,6.72,1.39v40.02C419.79,101.02,422.22,95.58,424.65,90.72z
	 M70.46,90.72c2.32,4.86,4.75,10.29,7.19,16.31V67.01c-2.67,0.58-5.1,1.04-7.19,1.5V90.72z M59.91,70.94
	c0.7-0.12,4.52-1.04,10.55-2.43v-0.58C66.98,68.86,63.51,69.9,59.91,70.94z M220.78,561.85l-45.9-25.79l-1.74-1.04v1.85l1.74,0.93
	l35.12,19.78l0,0l5.45,3.01l22.37,12.61c1.16,0,2.32,0.12,3.59,0.12l-2.2-1.27l0,0l-12.4-6.94l0,0L220.78,561.85z M192.74,570.41
	l-4.75-2.66l-6.95-3.93l0,0l-6.72-3.82l-1.16-0.69v1.85l1.16,0.69l6.72,3.82l0,0l7.77,4.4C190.19,570.18,191.46,570.3,192.74,570.41
	z M181.03,551.68L181.03,551.68l-6.37-3.59l-1.51-0.81v1.85l1.39,0.81l15.41,8.68l7.77,4.4l0,0l16.11,9.02
	c1.16,0.12,2.43,0.12,3.71,0.23l-0.35-0.23l-19.36-10.87l0,0L181.03,551.68z M326.37,481.23v50.78l66.06-38.63
	c-0.58-11.68-1.04-23.48-1.39-35.28c-0.23-2.66-0.35-5.21-0.58-7.87c-0.12-2.08-0.23-4.16-0.35-6.25L326.37,481.23z M320.81,561.85
	l1.16-0.69v-1.85l-1.16,0.69l-6.72,3.82l0,0l-11.71,6.59c1.27-0.12,2.55-0.23,3.82-0.35l7.77-4.4l0,0L320.81,561.85z M396.49,552.83
	c-0.12-1.62-0.35-3.24-0.46-4.86l-20.4,11.91C391.85,555.96,396.49,552.83,396.49,552.83z M321.97,553.29l-1.39,0.69l-6.49,3.7l0,0
	l-16.69,9.37l0,0l-7.53,4.16c1.27-0.12,2.55-0.23,3.71-0.23l3.71-2.08l0,0l16.69-9.37l0,0l6.61-3.7l0,0l1.27-0.69v-1.85H321.97z
	 M272.01,402.46V61.8c-2.32,0.58-4.64,1.04-7.19,1.39v343.2L272.01,402.46z M258.1,410.21V64c-2.32,0.23-4.75,0.35-7.19,0.46v349.79
	L258.1,410.21z M388.49,391.82l-62.01,36.09v50.55l63.4-37.13c-0.23-3.12-0.35-6.36-0.46-9.6
	C388.73,418.77,388.49,405.35,388.49,391.82L388.49,391.82z M181.03,425.82L181.03,425.82l11.71,6.59l17.27,9.72l0,0l4.4,2.43
	l33.15,18.62l20.75-11.68l0,0l16.81-9.37l0,0l12.17-6.82l0,0l7.42-4.16l85.07-47.89l-0.7-1.39l-74.99,42.1l0,0l-16.81,9.49l0,0
	l-49.72,27.88l-5.1-2.78l-3.25-1.85l0,0l-133.17-74.84l-0.81,1.39L181.03,425.82z M237.01,410.21l7.19,4.05V64.46
	c-2.43-0.12-4.87-0.23-7.19-0.46V410.21z M181.03,407.66L181.03,407.66l16.81,9.37l0,0l12.17,6.82l0,0l9.16,5.21l28.4,15.96
	l20.75-11.68l0,0l16.81-9.49l0,0l12.17-6.82l0,0l10.55-5.9l81.94-46.15l-0.7-1.39l-103.96,58.41l0,0l-4.06,2.31l-33.5,18.85
	l-7.65-4.28l-0.7-0.46l0,0l-21.56-12.15l-7.65-4.28l0,0l-23.88-13.42l-5.1-2.78l0,0l-74.99-42.22l-0.81,1.39L181.03,407.66z
	 M181.03,419.81L181.03,419.81l16.81,9.37l0,0l12.17,6.82l0,0l5.68,3.24l31.87,17.93l20.75-11.68l0,0l16.81-9.49l0,0l12.17-6.82l0,0
	l8.46-4.74l84.03-47.31l-0.7-1.39l-81.83,46.04l-9.97,5.55l0,0l-12.17,6.82l0,0l-6.14,3.47l-31.41,17.7l-5.33-3.01l-3.01-1.74l0,0
	l-17.39-9.72l-11.82-6.71l0,0l-21.67-12.15l-7.3-4.05l0,0l-74.99-42.22l-0.81,1.39L181.03,419.81z M181.03,413.68L181.03,413.68
	l16.81,9.37l0,0l12.17,6.94l0,0l8.11,4.51l29.44,16.54l20.75-11.68l0,0l16.81-9.37l0,0l12.17-6.94v0.12l9.62-5.44l82.87-46.62
	l-0.7-1.39l-103.96,58.41l0,0l-4.75,2.66l-32.8,18.39l-7.19-4.05l-1.16-0.58l0,0l-20.17-11.34l-9.04-5.09l0,0l-22.83-12.84
	l-6.14-3.47l0,0l-74.99-42.1l-0.81,1.39L181.03,413.68z M321.85,567.29v-1.85l-1.04,0.58l-5.56,3.12c1.39-0.12,2.67-0.23,3.94-0.35
	l1.62-0.93L321.85,567.29z M174.19,566.13l-1.04-0.58v1.85l0.93,0.58l1.62,0.93c1.27,0.12,2.67,0.23,3.94,0.35L174.19,566.13z
	 M395.8,545.31c-1.39-16.19-2.55-32.74-3.36-49.39l-66.18,38.75v33.31c17.96-2.08,31.53-4.28,41.72-6.36L395.8,545.31z
	 M209.31,394.59l7.19,4.05V59.95c-2.55-0.81-4.98-1.74-7.19-2.78V394.59z M230.29,406.51V63.19c-2.55-0.35-4.87-0.81-7.19-1.39
	v340.54L230.29,406.51z M102.68,496.04c-0.81,16.66-1.97,33.2-3.36,49.39l27.82,16.31c10.2,2.08,23.76,4.4,41.72,6.36v-33.31
	L102.68,496.04z M389.07,388l-74.99,42.1l0,0l-16.81,9.37l0,0l-49.72,27.99l-3.01-1.74l-5.33-3.01l0,0L106.04,388l-0.81,1.39
	l104.77,58.76l0,0l1.74,1.04l35.81,20.13l29.09-16.43l8.46-4.74l0,0l12.17-6.82l0,0l6.14-3.35l86.35-48.58L389.07,388z
	 M321.97,443.87l-3.94,2.2L255.9,481l0,0l-8.34,4.74l-8.34-4.74l0,0l-12.52-6.94v-0.12l-5.56-3.12l-44.04-24.75l-3.94-2.2v1.85
	l3.94,2.2l3.94,2.2v0.12l16.81,9.37l0,0l12.17,6.82l0,0l13.1,7.4l24.46,13.76l8.34-4.74l0,0l12.4-7.06l0,0l11.24-6.25l17.73-9.95
	l0,0l16.81-9.37v-0.12l3.94-2.2l3.94-2.2V443.87z M321.97,437.74l-4.17,2.43l-61.89,34.7l0,0l-8.34,4.74l-8.34-4.74l0,0l-12.52-6.94
	l0,0l-3.82-2.2l-45.67-25.56l-4.06-2.43v1.85l4.06,2.31l12.4,6.94l8.23,4.63l0,0l49.72,27.99l20.75-11.68l0,0l16.81-9.37v-0.12
	l32.8-18.39l4.06-2.31V437.74z M321.97,431.72l-4.29,2.43l-3.59,2.08l0,0l-16.81,9.37l0,0l-41.38,23.25l0,0l-8.34,4.74l-8.34-4.74
	l0,0l-12.52-7.06l0,0l-16.69-9.37l0,0l-19.59-10.99l-9.39-5.32v0.12l-3.59-2.08l-4.29-2.43v1.85l4.17,2.31l32.68,18.39l0,0l2.67,1.5
	l26.54,14.92l0,0l8.34,4.63l20.75-11.68l0,0l16.81-9.37l0,0l32.68-18.39l4.17-2.31V431.72z M321.97,450l-3.82,2.08l-62.24,35.05l0,0
	l-8.34,4.63l-8.34-4.63l0,0l-12.52-7.06l0,0l-7.3-4.05l-42.42-23.94l-3.82-2.08v1.74l3.71,2.2l4.17,2.31l0,0l16.81,9.37l0,0
	l12.17,6.94l0,0l11.82,6.59l25.73,14.46l8.34-4.74l0,0l12.4-6.94l0,0l9.97-5.55l19.01-10.76l0,0l16.81-9.37l0,0l4.06-2.31l3.82-2.2
	V450z M321.97,462.14l-3.59,1.97l-4.29,2.43l0,0l-16.81,9.49l0,0l-41.38,23.25l0,0l-8.34,4.63l-20.86-11.68l0,0l-11.47-6.36
	l-17.39-9.83l0,0l-16.81-9.49l0,0l-4.4-2.43l-3.48-1.97V464l3.48,1.97l4.4,2.43l0,0l0.58,0.35l41.61,23.37l3.48,1.97l0,0
	l20.86,11.68l8.34-4.63l0,0l12.4-7.06l0,0l7.53-4.16l34.77-19.55l3.48-1.97l0,0l4.4-2.43l3.48-1.97V462.14z M321.97,456.01
	l-3.71,2.08l-4.17,2.43l0,0l-16.81,9.37l0,0l-12.17,6.82l0,0l-9.74,5.44l-27.82,15.73l-8.34-4.74l0,0l-12.52-6.94l0,0l-9.04-5.21
	l-19.82-11.1l0,0l-3.36-1.85l-17.62-9.95l-3.71-2.08v1.85l3.59,2.08l4.29,2.43l0,0l6.95,3.82l32.68,18.39l6.03,3.35l0,0l20.86,11.8
	l8.34-4.74l0,0l12.4-7.06v0.12l8.58-4.86l24.46-13.65l12.75-7.17l0,0l4.17-2.43l3.71-2.08V456.01z M106.62,391.82L106.62,391.82
	c0,13.53-0.35,26.95-0.93,39.91c-0.12,3.24-0.35,6.36-0.46,9.6l63.4,37.13v-50.55L106.62,391.82z M181.03,387.54L181.03,387.54
	l-74.99-42.1l-0.81,1.39L191,394.94l6.84,3.82l0,0l47.06,26.49l2.67,1.5l8.34-4.74l0,0l12.4-6.94l0,0l7.88-4.4l113.58-63.85
	l-0.7-1.39l-74.99,42.1l0,0l-16.81,9.37l0,0l-13.79,7.75l-15.18,8.56l0,0l-12.4,7.06v-0.12l-8.34,4.74l-8.34-4.74l0,0l-12.52-6.94
	l0,0l-16.23-9.14l-12.63-7.17l0,0L181.03,387.54z M191.93,401.53l5.91,3.35l0,0l47.06,26.49l2.67,1.5l8.34-4.74l0,0l12.4-7.06l0,0
	l7.42-4.05l114.05-64.2l-0.7-1.39l-74.99,42.22l0,0l-16.81,9.37l0,0l-12.17,6.82l0,0l-16.81,9.49l0,0l-12.4,6.94l0,0l-8.34,4.74
	l-8.34-4.74l0,0l-12.52-6.94v-0.12l-16.69-9.37l0,0l-12.17-6.82l0,0l-16.81-9.37l0,0l-74.99-42.22l-0.81,1.39L191.93,401.53z
	 M193.2,408.36l4.64,2.54l0,0l49.14,27.65l0.58,0.35l8.34-4.74l0,0l12.4-6.94l0,0l5.68-3.12l115.79-65.12l-0.7-1.39l-74.99,42.1l0,0
	l-16.81,9.49l0,0l-12.17,6.82l0,0l-16.81,9.37l0,0l-12.4,7.06l0,0l-8.34,4.63l-8.34-4.63l0,0l-12.52-7.06l0,0l-16.69-9.37l0,0
	l-12.17-6.82l0,0l-16.81-9.49l0,0l-74.99-42.1l-0.81,1.39L193.2,408.36z M321.97,468.16l-3.36,1.97l-4.52,2.54l0,0l-16.81,9.37l0,0
	l-41.38,23.25l0,0l-8.34,4.74l-20.86-11.68l0,0l-13.79-7.87l-15.07-8.44l0,0l-16.81-9.37l0,0l-4.52-2.54l-3.36-1.97v1.85l3.36,1.85
	l49.26,27.76l0.93,0.58l0,0l20.86,11.68l8.34-4.74l0,0l12.4-6.94l0,0l16.81-9.49l0,0l33.5-18.85l3.36-1.85V468.16z M168.75,481.23
	l-63.63-37.25c-0.12,2.08-0.23,4.16-0.35,6.25c-0.23,2.66-0.35,5.32-0.58,7.98c-0.35,11.68-0.81,23.48-1.39,35.16l66.06,38.63
	L168.75,481.23z M99.09,547.97c-0.12,1.62-0.35,3.24-0.46,4.86c0,0,4.64,3.12,20.86,7.06L99.09,547.97z"/>
<polygon class="Colour2 fill" points="105,324.84 282.1,251.97 104.3,311.19 "/>
<polygon class="Colour2 fill" points="264.71,401.65 258.1,405.23 250.92,408.94 247.56,410.67 244.2,408.94 237.01,405.23 
	230.29,401.65 223.1,397.95 216.5,394.48 209.31,390.66 202.59,387.19 195.4,383.37 188.68,379.9 181.49,376.08 174.77,372.61 
	167.59,368.8 160.98,365.33 153.79,361.63 147.07,358.04 139.89,354.34 133.16,350.75 125.98,347.05 119.37,343.58 112.07,339.76 
	105.46,336.29 112.07,339.99 119.37,344.04 125.98,347.86 133.16,351.91 139.89,355.61 147.07,359.66 153.79,363.36 160.98,367.41 
	167.59,371.23 174.77,375.27 181.49,378.98 188.68,383.02 195.4,386.84 202.59,390.89 209.31,394.59 216.5,398.64 223.1,402.46 
	230.29,406.51 237.01,410.21 244.2,414.26 247.56,416.11 250.92,414.26 258.1,410.21 264.71,406.51 272.01,402.46 278.62,398.64 
	285.81,394.59 292.53,390.89 299.71,386.84 306.44,383.02 313.62,378.98 320.23,375.27 327.41,371.23 334.14,367.41 341.32,363.36 
	348.04,359.66 355.23,355.61 361.95,351.91 369.14,347.86 375.74,344.04 382.93,339.99 389.54,336.29 382.93,339.76 375.74,343.58 
	369.14,347.05 361.95,350.75 355.23,354.34 348.04,358.04 341.32,361.51 334.14,365.33 327.41,368.8 320.23,372.61 313.62,376.08 
	306.44,379.9 299.71,383.37 292.53,387.19 285.81,390.66 278.62,394.48 272.01,397.95 "/>
<path class="Colour2 fill" d="M174.19,566.13l0.12-4.16v-1.85l0.12-4.16v-1.85l0.12-4.16v-1.85l0.12-4.16v-1.85l0.12-4.16v-1.85
	l0.12-4.16v-1.85l0.12-4.16v-1.85l0.12-4.16v-1.85l0.12-4.16V512l0.12-4.16v-1.85l0.12-4.16v-1.85l0.12-4.16v-1.85l0.12-4.16v-1.85
	l0.12-4.16v-1.85l0.12-4.16v-1.85l0.12-4.16v-1.85l0.12-4.16v-1.85l0.12-4.16v-1.85l0.12-4.16v-1.85l0.12-4.16v-1.85l0.12-4.16
	v-1.85l0.12-4.16v-1.85l0.12-4.16v-1.85l0.12-2.66l-43.46-21.75l-27.47-13.77l11.59,6.59l54.94,31.58v5.32v4.28v7.87v4.28v7.87v4.28
	v7.87v4.28v6.13v1.85v10.29v1.85v10.29v1.85v10.29v1.85v10.29v1.85v10.29v1.85v10.29v1.85v10.29v1.85v1.16
	c0.35,0,0.7,0.12,0.93,0.12v-0.81L174.19,566.13z"/>
<path class="Colour2 fill" d="M321.85,567.29v-7.87v-4.28v-7.87V543v-7.87v-4.28v-6.13v-1.85v-10.29v-1.85v-6.13v-4.28v-7.87v-4.28v-7.87
	v-4.28v-7.87v-4.28v-6.13v-1.85V445.6v-1.85v-6.13v-4.28v-5.32l54.71-31.46l0,0l0.23-0.12l11.47-6.59l-27.24,13.65h-0.12h-0.12
	l-43.58,21.86l0.12,2.66v1.85l0.12,4.16v1.85l0.12,4.16v1.85l0.12,4.16v1.85l0.12,4.16v1.85l0.12,4.16v1.85l0.12,4.16v1.85
	l0.12,4.16v1.85l0.12,4.16v1.85l0.12,4.16v1.85l0.12,4.16v1.85l0.12,4.16v1.85l0.12,4.16v1.85l0,0l0.12,4.16v1.85l0.12,4.16v1.85
	l0.12,4.16v1.85l0.12,4.16v1.85l0.12,4.16v1.85l0.12,4.16v1.85l0.12,4.16l0,0v1.85l0.12,4.16v1.85l0.12,4.16v1.85l0,0l0.12,4.16
	v1.85l0.12,4.16v1.85v0.69c0.35,0,0.7-0.12,0.93-0.12L321.85,567.29z"/>
<path class="Colour2 fill" d="M229.01,166.72l189.5-62.58c2.9-6.94,5.8-13.07,8.46-18.28L229.01,166.72z"/>
<g id="FBodyLogos"></g>
<path class="BottomHem fill" d="M247.56,559.08c124.59-4.97,147.54-20.82,147.54-20.82l1.39,14.81c0,0-34.65,17.93-149.4,20.82
	c0,0-105.82-1.16-148.47-20.82l1.39-14.81C100.02,538.26,122.96,554.1,247.56,559.08"/>
<g>
	<path class="st1" d="M395.1,538.26c0,0-22.95,15.85-147.54,20.82"/>
	<path class="st1" d="M247.56,559.08c-124.59-4.97-147.54-20.82-147.54-20.82"/>
</g>
<g>
	<path class="st0" d="M247.56,563.59c124.59-4.97,147.54-20.82,147.54-20.82"/>
	<path class="st0" d="M247.56,563.59c-124.59-4.97-147.54-20.82-147.54-20.82"/>
</g>
<g>
	<path class="st1" d="M314.32,2.35c0,0-26.77,9.72-66.76,9.49h-0.35c-39.75,0.12-66.41-9.49-66.41-9.49l-8.46,4.63
		c0,0,3.82,57.84,75.22,57.84h0.23c71.16-0.12,74.99-57.84,74.99-57.84L314.32,2.35z M247.91,51.16h-0.35
		c-40.45,0-57.02-24.18-63.28-38.52c9.85,1.97,39.06,7.52,63.05,7.52h0.35c23.99,0,53.43-5.55,63.28-7.52
		C304.58,26.99,288.12,51.05,247.91,51.16z"/>
	<g>
		<path class="st1" d="M439.14,65.16c0,0,46.24,55.06,54.36,148.75c0,0-64.09,38.98-86.46,25.68c0,0,1.39-13.65-10.66-34.35
			C396.49,205.12,396.37,130.86,439.14,65.16z"/>
		<path class="st1" d="M55.86,65.16c0,0-46.24,55.06-54.36,148.75c0,0,64.09,38.98,86.46,25.68c0,0-1.39-13.65,10.66-34.35
			C98.63,205.12,98.74,130.86,55.86,65.16z"/>
		<g>
			<path class="st1" d="M439.26,65.16C428.13,46.53,322.89,6.74,322.89,6.74l-0.35,0.12l0.23,0.12c0,0-3.82,57.72-74.99,57.84h-0.23
				c-71.4,0-75.22-57.84-75.22-57.84l0.23-0.12l-0.35-0.12c0,0-105.12,39.79-116.36,58.41c0,0,39.75,55.75,42.77,140.08
				c0,0,14.37,194.33,0,347.94c0,0,23.18,15.85,148.93,20.82c125.75-4.97,148.93-20.82,148.93-20.82
				c-14.37-153.61,0-347.94,0-347.94C399.5,120.91,439.26,65.16,439.26,65.16z"/>
		</g>
	</g>
</g>
</svg>
